<?xml version="1.0" encoding="UTF-8"?>
<svg xmlns="http://www.w3.org/2000/svg" width="100" height="100" viewBox="0 0 100 100">
<defs>
<linearGradient id="g0" x1="0%" y1="0%" x2="100%" y2="100%">
<stop offset="0.0%" stop-color="hsl(106, 75%, 59%)" />
<stop offset="33.3%" stop-color="hsl(183, 71%, 60%)" />
<stop offset="66.7%" stop-color="hsl(242, 72%, 49%)" />
<stop offset="100.0%" stop-color="hsl(322, 74%, 44%)" />
</linearGradient>
<linearGradient id="g1" x1="0%" y1="0%" x2="100%" y2="100%">
<stop offset="0.0%" stop-color="hsl(290, 83%, 63%)" />
<stop offset="33.3%" stop-color="hsl(2, 82%, 55%)" />
<stop offset="66.7%" stop-color="hsl(86, 72%, 68%)" />
<stop offset="100.0%" stop-color="hsl(83, 65%, 44%)" />
</linearGradient>
<linearGradient id="g2" x1="0%" y1="0%" x2="100%" y2="100%">
<stop offset="0.0%" stop-color="hsl(40, 53%, 69%)" />
<stop offset="33.3%" stop-color="hsl(104, 72%, 65%)" />
<stop offset="66.7%" stop-color="hsl(144, 86%, 72%)" />
<stop offset="100.0%" stop-color="hsl(151, 70%, 62%)" />
</linearGradient>
<filter id="f1" x="-20%" y="-20%" width="140%" height="140%">
  <feGaussianBlur stdDeviation="0.558026434241711" />
</filter>

</defs>

<rect x="23.3" y="26.1" width="37.4" height="18.2" rx="16.6" fill="none" fill-opacity="0.58" stroke="hsl(2, 82%, 55%)" stroke-width="4.1"   />
<path d="M 66.6 5.8 C 57.7 21.4, 27.5 78.5, 13.4 69.7 C 1.5 80.2, 74.1 47.8, 82.1 61.7 C 67.7 47.2, 65.2 85.1, 78.7 76.3 C 91.2 74.0, 31.3 54.7, 17.3 63.3 C 11.1 63.5, 35.1 32.3, 25.2 22.0 C 5.8 27.7, 76.2 28.4, 81.1 28.8 C 88.5 31.3, 76.3 51.1, 90.3 55.0 C 100.0 43.6, 66.0 30.8, 56.4 22.5 C 51.1 21.6, 5.9 21.3, 4.6 18.2 Z" fill="none" fill-opacity="0.40" stroke="hsl(106, 75%, 59%)" stroke-width="4.19"  transform="translate(56.5 26.4) rotate(317.0) scale(0.90 1.45)" />
<rect x="16.2" y="23.4" width="45.1" height="30.1" rx="17.4" fill="none" fill-opacity="0.38"   transform="translate(34.7 59.5) rotate(268.6) scale(1.58 1.85)" />
<path d="M 12.3 82.9 C 6.3 86.6, 19.7 17.1, 17.6 16.2 C 5.8 30.8, 38.6 54.4, 48.8 55.4 C 31.6 71.3, 75.5 0.0, 82.0 5.0 C 99.3 15.7, 76.8 86.8, 80.2 84.5 C 97.6 99.1, 23.8 100.0, 14.7 94.7 C 14.7 100.0, 67.7 48.3, 82.2 42.9 C 74.0 55.6, 38.0 67.0, 48.0 68.7 C 45.1 81.3, 37.3 63.6, 29.5 65.0 C 11.4 48.9, 56.5 99.4, 53.5 91.5 Z" fill="none" fill-opacity="0.48" stroke="hsl(183, 71%, 60%)" stroke-width="0.89"  transform="translate(44.5 99.5) rotate(259.2) scale(1.72 0.72)" />
<path d="M 15.5 67.6 C 30.6 52.5, 55.2 27.8, 62.8 20.3 C 53.2 29.4, 94.2 57.4, 95.1 47.5 C 81.1 30.8, 2.0 75.6, 1.4 73.8 C 0.0 89.1, 0.3 32.5, 4.0 29.9 C 11.9 14.8, 33.2 0.0, 37.8 4.4 C 18.7 5.9, 47.9 99.3, 59.5 99.6 C 56.7 96.5, 85.4 38.8, 85.8 32.6 Z" fill="hsl(242, 72%, 49%)" fill-opacity="0.89" stroke="none" stroke-width="1.06" filter="url(#f1)" transform="translate(71.9 71.1) rotate(145.2) scale(0.67 0.73)" />
<path d="M 64.1 95.3 C 50.1 96.7, 45.1 31.5, 33.2 16.8 C 34.4 6.0, 57.8 89.7, 45.5 99.5 C 35.1 100.0, 59.7 26.7, 53.8 39.5 C 67.9 49.8, 96.0 94.2, 92.1 84.7 C 100.0 71.0, 14.5 0.0, 4.1 5.7 C 4.9 10.4, 38.7 45.9, 24.9 47.6 C 8.6 65.0, 59.4 91.6, 50.2 80.4 Z" fill="none" fill-opacity="0.67" stroke="hsl(144, 86%, 72%)" stroke-width="2.59" filter="url(#f1)" transform="translate(37.3 19.9) rotate(235.9) scale(1.22 1.09)" />
<circle cx="1.3" cy="60.4" r="15.1" fill="url(#g2)" fill-opacity="0.81"  transform="translate(41.8 71.6) rotate(204.6) scale(1.03 1.06)" />
<path d="M 28.6 47.4 C 44.6 60.6, 61.4 12.1, 49.9 22.8 C 57.8 33.6, 44.2 47.6, 51.0 51.6 C 68.8 32.8, 87.1 64.2, 84.6 52.8 C 71.8 57.5, 20.7 12.7, 24.7 12.3 C 37.8 0.0, 56.2 94.1, 54.4 98.3 C 43.8 96.7, 48.7 42.9, 52.6 51.6 C 63.9 64.0, 78.7 83.0, 83.3 74.0 C 74.2 65.7, 91.8 23.9, 98.0 18.8 C 98.7 31.5, 51.4 86.0, 47.0 98.4 Z" fill="none" fill-opacity="0.79" stroke="hsl(151, 70%, 62%)" stroke-width="4.86"   />
<path d="M 61.5 69.2 C 56.8 79.9, 77.7 66.7, 86.9 53.3 C 76.9 43.3, 33.3 70.6, 36.7 72.7 C 22.6 79.7, 90.2 94.8, 98.1 91.9 C 86.8 100.0, 13.2 88.4, 0.1 75.1 C 0.0 67.6, 16.7 35.9, 15.4 29.8 C 31.2 32.9, 34.2 67.8, 20.8 53.9 C 5.7 70.4, 21.3 16.0, 32.2 1.1 C 30.5 9.8, 72.7 16.8, 75.2 8.6 C 73.1 14.9, 75.3 74.7, 85.8 67.2 C 97.2 78.5, 33.7 83.1, 48.2 80.7 Z" fill="hsl(106, 75%, 59%)" fill-opacity="0.73" stroke="none" stroke-width="3.35"   />
<path d="M 32.3 44.1 C 31.9 33.8, 69.7 42.8, 79.8 53.5 C 93.3 67.8, 50.0 65.1, 57.9 57.1 C 66.2 43.6, 29.0 79.9, 26.2 77.5 C 11.0 90.4, 89.1 20.7, 98.5 26.1 C 93.1 41.2, 70.3 16.5, 73.9 25.7 C 73.0 26.0, 21.5 91.0, 27.4 85.0 C 30.4 73.9, 76.6 99.0, 62.4 94.6 C 45.2 100.0, 88.4 89.8, 99.8 85.6 Z" fill="hsl(83, 65%, 44%)" fill-opacity="0.56" stroke="none" stroke-width="4.32"   />
<circle cx="42.2" cy="21.2" r="15.5" fill="url(#g0)" fill-opacity="0.45"  transform="translate(56.1 24.6) rotate(309.1) scale(1.83 0.53)" />
<path d="M 28.1 27.3 C 28.3 23.1, 1.9 100.0, 7.9 97.2 C 27.0 99.8, 59.9 79.8, 62.7 81.3 C 64.6 62.4, 11.5 55.7, 22.1 43.2 C 12.0 39.5, 17.5 37.0, 4.3 33.2 C 1.6 52.6, 55.5 78.8, 41.6 86.9 C 37.3 88.9, 68.5 32.5, 64.8 41.5 C 75.5 56.6, 57.5 78.0, 49.6 91.4 C 39.3 90.7, 9.5 90.3, 4.2 97.2 C 23.0 89.9, 0.0 61.0, 2.5 74.9 C 12.4 57.4, 37.3 56.1, 37.4 51.5 Z" fill="hsl(322, 74%, 44%)" fill-opacity="0.27" stroke="none" stroke-width="5.01"  transform="translate(94.3 36.9) rotate(326.3) scale(0.56 1.23)" />
<rect x="43.6" y="50.2" width="35.8" height="12.8" rx="0" fill="none" fill-opacity="0.44"   transform="translate(25.3 19.2) rotate(179.9) scale(1.63 0.79)" />
<rect x="7.5" y="22.9" width="47.0" height="32.4" rx="0" fill="hsl(86, 72%, 68%)" fill-opacity="0.60" stroke="hsl(83, 65%, 44%)" stroke-width="3.6"   />
<path d="M 71.7 13.0 C 79.2 19.2, 23.7 87.2, 24.8 87.6 C 35.8 70.3, 62.3 59.4, 48.1 69.4 C 49.2 85.3, 64.9 24.7, 73.1 36.1 C 58.1 50.1, 13.7 7.8, 15.0 9.5 C 0.0 14.1, 0.0 0.0, 4.3 8.1 C 11.0 19.5, 100.0 86.1, 97.9 89.5 C 100.0 99.0, 50.2 7.6, 58.0 16.4 Z" fill="none" fill-opacity="0.39" stroke="hsl(322, 74%, 44%)" stroke-width="3.14"  transform="translate(24.1 27.5) rotate(180.5) scale(0.56 0.60)" />
<path d="M 65.6 54.2 C 70.0 58.6, 7.3 11.7, 15.5 25.2 C 19.1 27.2, 15.9 87.7, 1.2 83.9 C 0.0 82.2, 17.7 59.9, 9.6 74.8 C 13.2 59.1, 100.0 90.5, 94.5 77.1 C 83.0 71.2, 89.5 63.5, 74.8 61.3 C 79.2 62.8, 54.0 22.9, 57.7 27.3 C 73.9 20.4, 46.3 68.4, 32.3 72.6 C 33.1 92.0, 81.5 0.0, 94.6 0.5 C 88.5 12.9, 64.5 49.2, 79.0 52.7 C 95.6 63.5, 30.8 86.4, 38.9 77.0 Z" fill="none" fill-opacity="0.39" stroke="hsl(242, 72%, 49%)" stroke-width="3.38"  transform="translate(78.4 82.6) rotate(171.7) scale(0.74 1.70)" />
<path d="M 91.2 68.7 C 82.7 85.1, 29.2 83.8, 40.5 93.2 C 40.8 75.7, 100.0 95.4, 90.6 85.2 C 100.0 72.7, 47.7 24.8, 61.8 23.4 C 47.5 8.4, 31.5 39.7, 24.3 28.5 C 15.4 20.4, 12.9 79.2, 2.6 91.7 C 7.9 100.0, 52.3 27.9, 65.7 36.1 Z" fill="hsl(144, 86%, 72%)" fill-opacity="0.55" stroke="none" stroke-width="1.33"  transform="translate(67.7 20.2) rotate(150.0) scale(1.29 1.58)" />
<path d="M 68.0 91.7 C 67.6 78.3, 31.9 71.1, 36.0 84.8 C 55.3 80.5, 95.3 84.9, 93.2 99.9 C 82.4 90.8, 19.5 78.5, 20.7 72.4 C 34.2 74.7, 65.1 0.0, 67.5 2.4 C 71.5 0.0, 87.4 20.0, 92.4 28.5 C 100.0 26.9, 39.3 46.7, 48.9 39.0 Z" fill="hsl(104, 72%, 65%)" fill-opacity="0.76" stroke="none" stroke-width="3.82"  transform="translate(6.9 98.4) rotate(300.7) scale(0.51 1.65)" />
<rect x="59.6" y="40.3" width="39.2" height="18.4" rx="0" fill="hsl(106, 75%, 59%)" fill-opacity="0.55"   transform="translate(78.6 74.0) rotate(250.8) scale(1.08 0.59)" />
<path d="M 46.1 13.1 C 42.7 22.6, 47.9 80.4, 50.5 66.8 C 63.1 61.7, 61.5 100.0, 58.0 96.1 C 67.8 97.7, 16.2 41.7, 18.7 43.9 C 24.3 40.9, 46.9 65.8, 50.8 75.3 C 45.7 73.3, 3.2 58.7, 10.9 61.8 C 12.9 78.1, 42.2 25.6, 36.6 20.8 C 21.6 3.5, 0.4 20.7, 14.3 33.6 C 29.7 28.9, 0.0 23.6, 9.1 10.3 Z" fill="hsl(290, 83%, 63%)" fill-opacity="0.31" stroke="none" stroke-width="2.51"  transform="translate(52.0 37.5) rotate(284.7) scale(0.77 1.55)" />
<rect x="33.3" y="4.9" width="39.1" height="33.0" rx="16.1" fill="hsl(144, 86%, 72%)" fill-opacity="0.53" stroke="hsl(40, 53%, 69%)" stroke-width="3.7"   />
<path d="M 0.8 96.9 C 1.0 100.0, 100.0 63.7, 95.0 73.7 C 100.0 77.1, 81.9 78.5, 72.9 74.3 C 76.7 86.3, 86.8 14.1, 73.8 8.1 C 89.8 0.0, 38.8 34.8, 49.1 46.6 C 38.3 43.6, 64.3 52.3, 54.8 42.7 C 61.4 41.1, 61.5 43.7, 51.5 48.8 C 71.5 45.5, 10.2 46.3, 0.8 51.9 C 0.0 47.1, 36.1 65.2, 49.6 52.5 C 67.1 57.3, 96.6 98.3, 98.2 96.6 Z" fill="hsl(2, 82%, 55%)" fill-opacity="0.72" stroke="none" stroke-width="4.21"  transform="translate(1.6 11.2) rotate(284.8) scale(1.95 1.10)" />
<path d="M 44.3 1.8 C 28.6 5.8, 65.7 67.1, 63.1 73.5 C 78.0 56.1, 59.3 18.7, 55.5 14.0 C 36.0 0.7, 8.6 96.1, 7.0 81.6 C 24.0 61.9, 29.0 100.0, 24.2 88.2 C 29.1 82.1, 0.0 48.4, 9.1 55.4 C 0.0 70.0, 87.1 0.0, 98.1 7.1 C 100.0 0.0, 60.7 30.0, 56.8 36.7 C 47.4 46.7, 47.2 41.6, 37.1 52.1 Z" fill="hsl(2, 82%, 55%)" fill-opacity="0.79" stroke="none" stroke-width="4.36"  transform="translate(74.0 54.3) rotate(53.3) scale(1.89 1.13)" />
<path d="M 43.8 32.1 C 60.8 28.7, 65.0 80.7, 52.6 78.3 C 60.5 80.3, 100.0 85.6, 99.1 98.4 C 92.9 79.5, 53.6 88.6, 61.6 86.8 C 53.1 100.0, 0.0 68.8, 11.5 77.7 C 0.0 78.1, 80.1 3.5, 78.4 3.1 C 89.9 10.5, 73.2 48.5, 79.4 48.4 C 84.6 49.3, 73.9 25.8, 84.2 17.9 C 65.6 16.1, 0.7 21.9, 12.1 29.1 C 13.8 17.7, 100.0 48.5, 99.2 60.1 C 99.3 41.8, 88.5 13.7, 84.7 14.5 Z" fill="hsl(242, 72%, 49%)" fill-opacity="0.86" stroke="none" stroke-width="2.54"  transform="translate(48.1 72.1) rotate(85.5) scale(0.57 1.84)" />
<path d="M 71.0 63.6 C 78.0 53.9, 58.6 97.5, 55.6 91.4 C 49.3 83.3, 84.1 87.2, 74.7 87.6 C 74.5 82.1, 43.5 100.0, 47.2 91.1 C 59.2 100.0, 65.3 45.8, 74.9 32.2 C 72.6 40.5, 52.8 43.6, 54.6 43.7 C 55.5 26.6, 82.6 2.7, 81.0 11.4 C 63.0 0.0, 18.0 66.6, 18.8 77.1 C 14.2 67.0, 64.1 79.6, 73.7 86.3 C 59.9 81.7, 7.7 100.0, 13.4 98.2 Z" fill="hsl(144, 86%, 72%)" fill-opacity="0.26" stroke="none" stroke-width="4.67"  transform="translate(2.2 51.0) rotate(181.0) scale(1.70 1.98)" />
<rect x="15.9" y="11.8" width="39.8" height="20.1" rx="3.2" fill="none" fill-opacity="0.83" stroke="hsl(40, 53%, 69%)" stroke-width="3.6" filter="url(#f1)" transform="translate(27.8 5.4) rotate(44.3) scale(1.18 1.73)" />
<path d="M 49.1 0.7 C 36.4 17.9, 8.3 56.1, 6.5 60.7 C 12.2 76.1, 60.7 43.8, 75.1 34.3 C 79.8 15.4, 83.3 83.4, 73.0 84.9 C 84.1 96.8, 45.6 57.9, 55.5 63.2 C 59.5 54.7, 30.7 79.8, 31.2 81.2 C 46.6 97.1, 78.5 38.0, 92.0 49.3 C 100.0 37.5, 0.0 100.0, 1.4 91.3 C 7.2 89.2, 48.1 33.0, 40.6 23.1 C 34.5 23.6, 48.2 13.1, 45.4 27.4 Z" fill="none" fill-opacity="0.66" stroke="hsl(151, 70%, 62%)" stroke-width="1.85"  transform="translate(60.5 11.6) rotate(35.3) scale(1.97 1.75)" />
<path d="M 80.3 57.1 C 94.0 66.0, 75.8 29.4, 75.7 42.3 C 61.4 40.9, 86.1 55.6, 93.9 54.9 C 82.6 44.5, 60.5 80.1, 55.1 69.7 C 49.9 63.6, 99.9 93.8, 95.5 97.5 C 95.2 79.4, 67.1 42.2, 80.5 42.9 C 65.3 54.5, 37.8 66.6, 49.1 59.9 C 42.9 40.1, 86.3 37.9, 87.4 24.6 C 68.9 34.2, 54.9 70.4, 45.6 71.2 C 27.2 71.9, 74.4 43.3, 71.7 32.9 C 76.5 52.1, 30.0 22.7, 44.5 34.3 Z" fill="hsl(106, 75%, 59%)" fill-opacity="0.56" stroke="none" stroke-width="1.62"  transform="translate(73.9 92.7) rotate(264.8) scale(0.89 0.98)" />
<path d="M 66.9 96.3 C 76.8 95.4, 31.6 69.1, 23.0 73.8 C 13.8 87.3, 75.3 44.4, 69.2 33.1 C 71.3 25.8, 64.3 89.9, 67.5 76.2 C 86.3 83.9, 0.0 80.7, 0.3 85.6 C 18.0 71.0, 3.3 66.0, 5.7 63.3 C 4.1 68.9, 54.2 6.0, 68.6 0.2 C 70.9 6.0, 12.1 94.3, 14.8 92.0 Z" fill="hsl(104, 72%, 65%)" fill-opacity="0.28" stroke="none" stroke-width="4.12"   />
<rect x="77.3" y="77.5" width="22.4" height="20.2" rx="18.1" fill="none" fill-opacity="0.32"   transform="translate(90.1 52.5) rotate(68.8) scale(0.89 0.55)" />
<rect x="35.1" y="5.2" width="44.2" height="37.0" rx="1.5" fill="hsl(2, 82%, 55%)" fill-opacity="0.65"  filter="url(#f1)" transform="translate(94.7 94.1) rotate(315.5) scale(1.28 1.81)" />
<path d="M 60.8 38.3 C 57.3 27.3, 97.5 33.3, 88.6 36.2 C 99.4 49.8, 35.3 40.7, 38.3 48.0 C 43.8 40.7, 69.1 0.0, 57.6 5.0 C 65.4 0.0, 61.3 85.7, 55.1 76.0 C 63.2 66.0, 11.4 60.2, 18.5 75.1 C 9.7 93.8, 77.0 92.8, 70.4 98.3 C 70.1 100.0, 10.7 92.1, 1.1 85.6 C 14.4 82.5, 71.7 71.1, 70.8 72.7 C 64.9 67.2, 21.1 74.6, 22.1 73.1 C 3.2 57.1, 31.8 100.0, 36.5 98.3 Z" fill="none" fill-opacity="0.33" stroke="hsl(106, 75%, 59%)" stroke-width="1.04" filter="url(#f1)" transform="translate(94.4 8.6) rotate(245.8) scale(0.93 1.91)" />
<path d="M 71.7 71.3 C 80.5 67.5, 53.3 12.2, 39.7 14.3 C 30.1 30.8, 38.3 23.2, 26.6 29.4 C 37.7 32.8, 11.0 20.0, 5.6 25.8 C 23.8 12.2, 5.0 14.9, 4.5 16.6 C 19.8 15.9, 0.0 5.1, 0.8 12.8 C 0.0 27.1, 18.2 35.5, 5.4 28.2 " fill="hsl(242, 72%, 49%)" fill-opacity="0.40" stroke="none" stroke-width="4.25"  transform="translate(49.4 24.4) rotate(57.9) scale(1.29 0.87)" />
<rect x="56.9" y="70.6" width="32.1" height="24.0" rx="0" fill="hsl(86, 72%, 68%)" fill-opacity="0.98" stroke="hsl(290, 83%, 63%)" stroke-width="3.1"  transform="translate(25.2 60.2) rotate(142.9) scale(1.34 1.47)" />
<path d="M 95.3 17.0 C 100.0 0.0, 77.2 60.3, 66.8 46.9 C 52.4 38.8, 3.1 87.7, 14.0 75.6 C 1.3 94.9, 46.7 53.4, 54.4 45.6 C 54.4 59.9, 66.2 34.0, 62.3 48.4 C 47.1 41.8, 72.4 56.6, 67.6 55.0 C 74.1 53.2, 12.8 86.0, 1.2 89.1 Z" fill="none" fill-opacity="0.65" stroke="hsl(2, 82%, 55%)" stroke-width="4.46"  transform="translate(81.5 91.1) rotate(255.5) scale(0.77 0.98)" />
<path d="M 9.6 61.6 C 14.4 51.7, 58.1 66.1, 61.1 56.1 C 51.0 74.8, 0.0 8.7, 4.6 8.8 C 0.0 0.0, 0.0 74.4, 5.3 68.4 C 18.4 64.4, 0.0 2.6, 1.5 9.4 C 0.0 0.0, 56.9 36.7, 45.0 43.3 C 39.5 51.6, 87.4 78.5, 93.5 77.7 C 89.0 92.3, 36.3 52.0, 24.5 46.1 Z" fill="none" fill-opacity="0.49" stroke="hsl(322, 74%, 44%)" stroke-width="5.26"  transform="translate(67.9 89.2) rotate(81.2) scale(1.17 1.02)" />
<circle cx="72.7" cy="85.1" r="0.5" fill="url(#g0)" fill-opacity="0.69" filter="url(#f1)" transform="translate(58.0 2.7) rotate(16.1) scale(0.56 1.76)" />
<rect x="65.0" y="18.1" width="21.6" height="14.5" rx="0" fill="hsl(322, 74%, 44%)" fill-opacity="0.63"   transform="translate(74.4 76.6) rotate(228.4) scale(1.82 0.87)" />
<rect x="45.7" y="52.4" width="23.4" height="35.4" rx="0" fill="hsl(290, 83%, 63%)" fill-opacity="0.46"   transform="translate(88.4 94.8) rotate(94.1) scale(1.23 0.55)" />
<path d="M 13.5 56.1 C 20.2 51.7, 0.6 78.4, 6.3 73.2 C 3.1 64.8, 63.1 15.1, 60.2 16.0 C 53.9 29.1, 20.2 44.6, 20.3 47.7 C 23.2 56.4, 72.8 63.8, 74.7 69.4 C 61.7 81.5, 33.8 27.3, 29.4 25.7 C 34.8 8.1, 69.2 44.9, 57.7 41.6 C 56.7 34.7, 39.2 62.9, 31.5 49.9 C 20.1 65.7, 92.8 77.2, 86.8 84.4 Z" fill="hsl(106, 75%, 59%)" fill-opacity="0.38" stroke="none" stroke-width="2.30"  transform="translate(6.6 77.6) rotate(114.1) scale(1.84 1.97)" />
<rect x="43.5" y="59.2" width="41.0" height="34.2" rx="0" fill="hsl(183, 71%, 60%)" fill-opacity="0.91"   transform="translate(63.2 32.7) rotate(128.2) scale(1.85 1.36)" />
<rect x="61.1" y="44.2" width="33.2" height="36.1" rx="8.2" fill="hsl(106, 75%, 59%)" fill-opacity="0.80"  filter="url(#f1)" transform="translate(87.7 5.3) rotate(276.4) scale(0.54 1.97)" />
<path d="M 60.4 32.4 C 59.6 43.0, 18.7 17.7, 32.0 9.1 C 45.0 21.7, 50.2 44.5, 39.3 45.5 C 34.0 61.4, 18.4 74.4, 23.4 79.3 C 16.8 60.3, 9.0 40.6, 1.2 33.3 C 1.9 41.2, 18.2 44.0, 21.0 52.0 C 40.7 64.4, 18.6 13.2, 13.5 24.9 C 0.0 7.2, 56.2 23.1, 42.8 34.7 Z" fill="hsl(40, 53%, 69%)" fill-opacity="0.67" stroke="none" stroke-width="2.58" filter="url(#f1)" transform="translate(93.4 68.0) rotate(285.8) scale(1.28 0.52)" />
<circle cx="65.9" cy="28.4" r="3.6" fill="hsl(106, 75%, 59%)" fill-opacity="0.90"  transform="translate(92.3 76.2) rotate(233.5) scale(1.93 0.96)" />
<circle cx="59.5" cy="16.8" r="8.1" fill="hsl(2, 82%, 55%)" fill-opacity="0.40" filter="url(#f1)" transform="translate(83.3 3.3) rotate(329.7) scale(1.00 1.10)" />
<path d="M 20.7 68.2 C 24.3 63.8, 88.2 70.4, 98.6 71.0 C 96.7 62.8, 77.3 11.0, 65.7 17.1 C 77.0 31.0, 86.2 27.3, 80.3 41.4 C 76.2 31.1, 50.0 71.1, 50.8 65.2 C 50.5 52.0, 43.7 71.5, 29.4 57.7 C 24.2 75.5, 55.7 20.3, 67.7 21.1 C 54.7 35.1, 63.3 100.0, 70.1 95.3 C 60.3 88.5, 38.0 28.8, 28.3 36.3 C 25.5 35.9, 26.6 12.8, 20.1 13.9 C 31.3 13.9, 62.5 0.0, 70.1 4.8 Z" fill="hsl(104, 72%, 65%)" fill-opacity="0.65" stroke="none" stroke-width="1.47"  transform="translate(39.6 61.2) rotate(53.1) scale(1.98 1.29)" />
<path d="M 26.1 75.4 C 42.2 66.4, 0.0 95.4, 2.4 82.8 C 0.0 71.8, 0.0 95.5, 3.1 99.2 C 7.9 100.0, 50.8 4.5, 53.9 13.6 C 38.4 30.7, 22.6 16.3, 33.0 5.5 C 37.7 9.6, 10.1 47.9, 24.9 42.9 C 42.9 50.5, 91.1 60.9, 85.8 58.5 C 74.2 56.8, 80.7 72.1, 90.3 69.0 C 72.5 64.0, 20.2 68.9, 19.9 65.2 Z" fill="hsl(183, 71%, 60%)" fill-opacity="0.85" stroke="none" stroke-width="0.85"  transform="translate(92.2 51.1) rotate(156.5) scale(1.15 1.29)" />
<path d="M 82.5 13.8 C 89.9 5.0, 21.3 42.8, 12.7 48.1 C 31.1 33.6, 77.7 48.3, 77.4 44.2 C 75.7 59.4, 47.9 71.7, 38.9 64.4 C 26.8 63.6, 5.4 21.6, 15.5 24.0 C 18.2 36.6, 0.0 2.2, 0.8 14.3 C 1.7 0.0, 57.0 81.2, 55.9 84.5 C 67.0 98.3, 100.0 59.8, 96.8 55.8 C 100.0 73.7, 56.0 11.5, 50.7 15.8 Z" fill="hsl(290, 83%, 63%)" fill-opacity="0.31" stroke="none" stroke-width="1.40"  transform="translate(30.2 4.0) rotate(269.4) scale(0.99 1.04)" />
<circle cx="31.1" cy="53.7" r="17.5" fill="hsl(104, 72%, 65%)" fill-opacity="0.63"  transform="translate(25.6 27.4) rotate(147.9) scale(1.78 1.18)" />
<rect x="42.9" y="35.0" width="43.9" height="38.4" rx="0" fill="none" fill-opacity="0.29"   transform="translate(46.1 65.0) rotate(87.8) scale(1.82 1.61)" />
<path d="M 97.8 58.0 C 89.0 70.6, 10.9 56.9, 12.7 69.4 C 0.0 88.8, 78.6 61.2, 75.7 63.9 C 83.6 66.5, 63.0 76.9, 55.0 76.5 C 58.8 86.3, 64.4 12.1, 51.9 8.8 C 50.0 0.0, 34.6 83.5, 29.8 83.2 C 19.1 99.6, 89.2 64.8, 79.8 63.9 C 69.6 69.1, 60.9 67.5, 64.2 67.2 C 74.0 80.9, 15.5 15.6, 9.2 18.4 C 8.8 14.8, 50.8 80.6, 49.4 87.4 C 45.8 93.6, 47.9 71.6, 55.2 73.8 Z" fill="hsl(2, 82%, 55%)" fill-opacity="0.69" stroke="none" stroke-width="4.74"   />
<path d="M 37.5 31.3 C 54.8 45.8, 37.2 62.3, 34.2 55.3 C 18.4 70.6, 39.1 9.1, 29.4 17.7 C 49.2 26.8, 93.4 68.8, 96.3 61.2 C 100.0 53.7, 48.3 11.6, 56.9 11.9 C 55.3 0.0, 21.2 36.0, 20.5 30.2 C 24.8 40.2, 10.9 43.0, 24.9 40.2 C 14.7 29.1, 40.9 0.0, 33.2 12.7 C 26.4 10.0, 20.2 0.0, 6.5 1.1 C 8.6 0.0, 72.9 55.5, 78.1 54.6 " fill="hsl(2, 82%, 55%)" fill-opacity="0.33" stroke="none" stroke-width="4.89"  transform="translate(21.3 59.6) rotate(157.3) scale(1.75 1.18)" />
<path d="M 26.2 17.6 C 43.6 3.7, 100.0 67.9, 95.8 59.7 C 85.1 75.2, 24.3 46.4, 11.1 56.9 C 18.0 69.6, 26.7 17.8, 17.5 15.9 C 33.1 0.0, 67.2 63.2, 68.8 58.8 C 83.9 77.8, 50.0 1.6, 64.3 8.9 C 60.1 4.7, 78.7 42.2, 92.9 56.1 C 100.0 45.5, 11.9 48.6, 7.1 38.7 C 0.0 19.6, 8.1 57.1, 11.7 63.8 Z" fill="hsl(86, 72%, 68%)" fill-opacity="0.30" stroke="none" stroke-width="0.99"  transform="translate(39.6 36.6) rotate(32.2) scale(0.52 0.53)" />
<path d="M 19.7 87.1 C 13.2 87.0, 56.1 62.7, 48.0 61.5 C 65.9 70.5, 40.0 87.6, 37.6 74.1 C 34.4 85.7, 73.8 43.7, 70.6 55.7 C 78.8 63.2, 17.3 32.0, 14.9 46.8 C 11.6 33.4, 72.8 30.1, 70.9 37.6 C 81.5 52.6, 81.5 20.9, 89.0 24.0 C 100.0 33.4, 6.6 52.1, 11.1 40.4 C 0.0 42.4, 48.3 48.7, 34.0 61.2 C 49.1 57.8, 98.4 87.7, 88.6 92.5 C 93.6 91.0, 48.3 95.4, 48.4 82.0 Z" fill="hsl(83, 65%, 44%)" fill-opacity="0.83" stroke="none" stroke-width="1.37"  transform="translate(81.3 86.4) rotate(175.6) scale(1.44 0.72)" />
<path d="M 41.0 31.9 C 34.9 13.3, 96.3 37.7, 90.4 26.9 C 100.0 30.9, 41.4 42.2, 43.2 48.6 C 42.8 67.2, 35.9 100.0, 31.5 95.4 C 33.4 81.3, 74.2 61.8, 87.3 53.4 C 72.3 71.9, 75.1 24.4, 69.9 34.2 C 87.5 22.6, 56.6 11.5, 58.0 19.6 C 65.5 15.6, 0.9 45.7, 5.5 39.1 C 0.3 46.2, 70.5 0.0, 72.9 4.8 C 72.4 0.0, 43.2 71.3, 42.8 70.7 Z" fill="hsl(144, 86%, 72%)" fill-opacity="0.85" stroke="none" stroke-width="2.72"  transform="translate(45.6 98.4) rotate(34.5) scale(1.41 1.42)" />
<path d="M 49.7 62.3 C 56.5 60.9, 49.3 38.5, 41.1 41.0 C 22.2 47.0, 57.1 16.0, 67.4 15.0 C 74.6 23.1, 92.6 31.4, 89.0 26.7 C 97.4 24.1, 93.5 27.4, 94.7 24.5 C 81.0 43.9, 42.7 10.9, 37.9 12.5 C 32.7 1.1, 27.4 0.0, 35.2 0.9 C 15.8 0.0, 26.0 67.4, 31.8 65.5 C 38.8 74.4, 62.9 52.7, 60.4 58.9 " fill="hsl(183, 71%, 60%)" fill-opacity="0.50" stroke="none" stroke-width="4.19"  transform="translate(31.4 46.0) rotate(157.6) scale(1.80 1.06)" />
<path d="M 74.4 45.3 C 69.6 40.2, 0.0 18.9, 3.1 8.7 C 17.3 0.0, 81.6 41.2, 76.9 53.9 C 65.0 44.9, 47.7 40.2, 35.9 52.9 C 55.0 55.7, 45.1 76.9, 38.5 67.4 C 51.4 86.6, 24.2 79.5, 23.4 71.3 C 17.4 74.7, 28.8 39.5, 21.1 25.4 C 24.9 33.3, 85.2 30.9, 94.0 41.1 Z" fill="none" fill-opacity="0.84" stroke="hsl(104, 72%, 65%)" stroke-width="4.81"  transform="translate(20.2 42.3) rotate(227.9) scale(1.79 1.11)" />
<path d="M 40.7 65.4 C 45.0 83.0, 82.3 94.6, 82.4 79.6 C 74.0 70.8, 9.2 14.9, 13.0 4.7 C 28.1 11.4, 4.8 92.4, 15.5 87.3 C 34.8 100.0, 86.8 25.9, 73.0 27.1 C 74.7 43.4, 26.3 61.3, 28.8 53.5 C 11.3 72.5, 65.7 36.4, 60.8 44.4 C 65.5 25.0, 78.2 58.2, 75.3 56.9 C 64.4 58.8, 47.0 33.8, 43.2 29.7 C 57.5 20.9, 88.1 92.0, 99.0 92.2 C 98.0 93.3, 74.0 50.0, 79.7 53.2 Z" fill="hsl(2, 82%, 55%)" fill-opacity="0.49" stroke="none" stroke-width="3.64"  transform="translate(4.4 60.4) rotate(315.7) scale(1.40 1.65)" />
<path d="M 8.6 19.5 C 0.0 10.8, 79.1 84.3, 68.2 80.6 C 65.3 60.7, 92.4 5.1, 82.6 1.0 C 94.0 20.5, 44.2 47.3, 51.2 38.2 C 42.2 22.5, 10.5 89.9, 1.6 82.4 C 19.5 87.9, 64.9 51.2, 78.2 62.8 C 59.3 74.0, 7.0 60.2, 7.4 50.9 C 18.2 48.5, 65.8 60.4, 57.1 50.9 Z" fill="hsl(144, 86%, 72%)" fill-opacity="0.89" stroke="none" stroke-width="2.24"  transform="translate(6.1 28.0) rotate(222.8) scale(1.21 1.66)" />
<path d="M 81.6 99.1 C 94.0 100.0, 50.5 47.5, 41.0 59.0 C 31.1 68.5, 75.0 94.6, 73.4 79.9 C 87.4 96.5, 72.0 65.1, 62.6 53.9 C 82.5 70.9, 87.1 24.8, 78.9 18.2 C 83.6 26.9, 60.2 35.4, 65.3 30.7 C 56.4 49.9, 66.7 8.4, 70.9 3.4 C 86.2 7.6, 84.5 93.6, 81.5 90.8 C 75.7 90.0, 49.3 7.3, 55.8 11.8 Z" fill="hsl(144, 86%, 72%)" fill-opacity="0.61" stroke="none" stroke-width="1.09"  transform="translate(59.5 55.2) rotate(255.2) scale(0.99 1.39)" />
<path d="M 62.1 81.1 C 49.8 86.3, 72.4 0.0, 86.7 6.8 C 83.3 21.3, 97.1 51.6, 89.2 49.3 C 82.8 67.1, 64.4 26.0, 50.2 25.6 C 58.5 8.6, 4.5 54.3, 0.0 53.2 C 18.8 48.0, 74.4 94.1, 87.4 99.1 C 97.6 100.0, 85.1 79.8, 75.7 73.7 C 78.2 56.8, 89.0 22.9, 94.7 34.3 C 98.2 45.2, 94.6 66.2, 95.8 65.9 C 80.8 72.3, 86.7 66.6, 99.8 70.5 C 100.0 78.4, 24.8 44.5, 13.6 34.7 " fill="none" fill-opacity="0.31" stroke="hsl(40, 53%, 69%)" stroke-width="1.73"  transform="translate(85.5 52.1) rotate(213.6) scale(1.09 1.46)" />
<path d="M 89.9 58.1 C 81.0 48.8, 27.8 88.7, 33.6 86.4 C 32.4 99.0, 91.0 66.4, 86.5 73.8 C 94.6 73.4, 0.0 38.0, 2.8 38.7 C 0.0 37.8, 63.6 48.5, 69.5 58.9 C 71.2 45.3, 20.7 55.1, 18.7 67.0 C 13.2 75.1, 64.5 100.0, 65.6 93.5 C 71.6 81.2, 16.0 58.6, 7.4 54.0 C 2.4 43.5, 11.6 28.8, 24.4 29.8 C 30.5 9.9, 70.3 53.7, 59.2 47.6 Z" fill="hsl(83, 65%, 44%)" fill-opacity="0.87" stroke="none" stroke-width="3.81"  transform="translate(37.1 49.1) rotate(186.8) scale(1.36 1.04)" />
<path d="M 69.2 86.1 C 83.3 70.5, 89.9 12.5, 79.9 25.3 C 86.3 41.3, 69.8 91.9, 70.0 82.4 C 62.6 93.4, 0.0 6.1, 9.3 18.2 C 12.1 22.0, 52.4 37.6, 54.9 23.4 C 48.5 34.9, 24.6 44.1, 36.1 55.7 C 26.7 53.5, 91.0 95.8, 87.5 89.8 C 100.0 92.4, 67.5 72.4, 65.7 63.9 Z" fill="none" fill-opacity="0.57" stroke="hsl(151, 70%, 62%)" stroke-width="1.64"  transform="translate(57.4 57.9) rotate(285.3) scale(1.51 1.73)" />
<path d="M 98.7 7.7 C 100.0 0.0, 81.5 30.2, 80.1 34.6 C 94.7 26.6, 85.5 62.9, 75.5 49.4 C 68.4 30.2, 72.9 69.5, 83.5 71.3 C 77.7 53.4, 58.0 34.9, 44.6 39.9 C 38.8 52.6, 74.0 33.6, 72.1 41.8 C 53.1 23.2, 51.3 42.6, 37.7 54.6 C 47.4 73.5, 87.8 49.6, 80.7 47.8 C 69.4 50.9, 24.6 91.7, 36.9 91.2 Z" fill="hsl(322, 74%, 44%)" fill-opacity="0.52" stroke="none" stroke-width="1.26"  transform="translate(91.7 84.6) rotate(67.9) scale(1.40 1.64)" />
<path d="M 92.7 35.3 C 100.0 24.3, 92.6 78.9, 87.3 88.2 C 85.4 89.1, 51.0 41.9, 62.9 37.0 C 81.8 17.6, 62.0 69.3, 65.1 69.4 C 45.8 73.6, 17.5 27.7, 13.6 13.2 C 26.3 12.6, 29.3 42.7, 39.9 49.5 C 41.4 48.3, 78.3 28.7, 64.7 15.2 C 70.9 7.8, 6.1 57.7, 7.2 62.2 C 0.0 59.2, 42.6 26.1, 45.2 25.3 Z" fill="none" fill-opacity="0.64" stroke="hsl(183, 71%, 60%)" stroke-width="3.51"  transform="translate(91.5 99.4) rotate(15.3) scale(0.85 0.95)" />
<circle cx="4.7" cy="74.2" r="15.0" fill="url(#g1)" fill-opacity="0.65"   />
<rect x="50.8" y="51.7" width="30.1" height="22.0" rx="19.5" fill="hsl(322, 74%, 44%)" fill-opacity="0.94"   transform="translate(27.1 86.9) rotate(185.2) scale(1.09 1.43)" />
<path d="M 28.0 91.9 C 18.0 91.7, 62.4 23.4, 71.3 22.9 C 78.4 39.5, 37.9 63.4, 38.5 50.0 C 26.9 49.8, 0.0 13.4, 0.1 13.9 C 0.0 26.6, 57.0 0.0, 55.5 11.9 C 55.1 12.1, 23.2 13.2, 23.3 26.5 C 42.7 26.3, 9.9 48.8, 12.0 57.4 C 3.3 57.5, 75.8 55.5, 68.6 66.1 Z" fill="none" fill-opacity="0.36" stroke="hsl(144, 86%, 72%)" stroke-width="2.73"  transform="translate(10.0 45.1) rotate(284.5) scale(1.33 0.81)" />
<path d="M 12.1 34.3 C 15.5 32.7, 85.6 9.9, 91.4 9.3 C 92.5 4.6, 66.5 10.0, 53.8 14.8 C 40.5 30.1, 62.8 25.3, 74.6 22.6 C 72.1 2.9, 81.4 34.0, 82.3 26.7 C 76.7 15.6, 32.7 43.7, 29.8 47.1 C 42.3 40.2, 85.6 56.4, 70.6 60.4 C 57.5 67.3, 48.7 54.5, 43.2 62.7 C 33.6 50.0, 74.1 23.9, 78.9 13.9 C 95.8 30.4, 18.3 87.7, 13.7 78.5 C 22.4 88.9, 100.0 11.9, 99.1 4.3 Z" fill="none" fill-opacity="0.49" stroke="hsl(2, 82%, 55%)" stroke-width="2.57"  transform="translate(23.0 60.6) rotate(26.7) scale(0.55 1.17)" />
<path d="M 22.2 98.1 C 34.1 86.1, 63.4 0.0, 69.0 7.4 C 80.0 11.2, 9.8 33.0, 13.1 39.7 C 13.8 47.9, 22.5 61.5, 24.9 49.7 C 18.6 63.5, 40.1 1.0, 25.6 13.6 C 10.9 4.6, 0.0 22.2, 7.7 18.9 C 7.1 27.2, 43.6 78.7, 49.4 64.5 C 62.2 58.4, 0.0 50.7, 4.9 39.1 C 21.1 24.1, 9.1 33.5, 1.9 34.4 Z" fill="hsl(2, 82%, 55%)" fill-opacity="0.28" stroke="none" stroke-width="3.75"  transform="translate(98.7 28.2) rotate(102.2) scale(0.99 1.80)" />
<path d="M 47.2 52.6 C 33.6 68.0, 68.7 46.9, 57.9 52.8 C 59.0 43.7, 92.3 17.9, 95.4 27.8 C 88.4 17.6, 19.3 30.0, 24.8 25.0 C 40.5 40.4, 50.9 81.2, 43.2 87.3 C 41.4 87.9, 69.3 89.0, 64.8 92.4 C 50.9 75.6, 36.5 0.1, 33.0 12.2 C 15.6 0.0, 59.6 57.6, 52.2 61.1 C 65.9 63.8, 9.9 51.2, 5.1 44.9 Z" fill="hsl(151, 70%, 62%)" fill-opacity="0.94" stroke="none" stroke-width="5.10"  transform="translate(3.0 10.4) rotate(207.8) scale(1.71 0.88)" />
<rect x="38.8" y="58.2" width="26.8" height="25.8" rx="19.3" fill="none" fill-opacity="0.70" stroke="hsl(104, 72%, 65%)" stroke-width="4.8"   />
<circle cx="70.1" cy="67.9" r="4.2" fill="url(#g1)" fill-opacity="0.54"  transform="translate(71.4 61.6) rotate(223.5) scale(1.60 1.17)" />
<rect x="50.3" y="72.6" width="21.9" height="20.3" rx="16.5" fill="none" fill-opacity="0.40"   transform="translate(94.8 8.2) rotate(104.8) scale(1.35 0.84)" />
<path d="M 99.7 50.2 C 95.5 59.2, 88.9 2.2, 93.0 16.1 C 100.0 5.5, 64.0 64.2, 53.5 56.2 C 61.7 62.2, 52.7 30.2, 44.9 32.0 C 44.2 42.8, 81.4 91.8, 78.9 89.5 C 88.4 98.3, 100.0 96.9, 94.2 91.3 C 82.7 92.4, 26.6 51.6, 30.0 63.8 C 24.3 47.5, 25.6 43.8, 30.0 51.8 C 11.2 71.8, 83.5 85.6, 91.5 99.1 Z" fill="none" fill-opacity="0.56" stroke="hsl(104, 72%, 65%)" stroke-width="2.06"  transform="translate(87.7 9.8) rotate(283.9) scale(1.15 0.53)" />
<rect x="25.2" y="16.2" width="24.5" height="24.6" rx="0.1" fill="hsl(86, 72%, 68%)" fill-opacity="0.28"   transform="translate(56.5 1.5) rotate(6.3) scale(0.82 1.02)" />
<rect x="0.9" y="55.0" width="25.4" height="31.1" rx="13.1" fill="none" fill-opacity="0.53"   transform="translate(23.4 23.4) rotate(320.8) scale(0.98 1.39)" />
<path d="M 79.6 73.8 C 60.4 83.4, 78.6 94.0, 82.4 93.7 C 73.8 86.6, 7.2 70.3, 15.0 65.9 C 6.6 54.2, 60.6 18.6, 73.2 17.9 C 58.7 26.1, 19.2 22.9, 5.1 24.4 C 0.0 20.2, 94.1 14.5, 95.9 2.1 C 94.6 0.0, 77.3 27.2, 91.2 41.0 Z" fill="none" fill-opacity="0.48" stroke="hsl(242, 72%, 49%)" stroke-width="4.24"  transform="translate(14.9 69.6) rotate(101.6) scale(0.64 0.97)" />
<path d="M 16.8 41.9 C 22.6 40.1, 73.6 84.8, 71.4 76.2 C 88.3 75.7, 100.0 54.7, 87.0 65.1 C 84.6 72.4, 45.3 96.1, 54.5 87.5 C 73.0 69.2, 53.6 13.1, 54.5 21.6 C 36.8 40.2, 76.0 59.9, 79.5 53.5 C 88.4 44.0, 41.3 50.2, 37.3 40.8 Z" fill="hsl(86, 72%, 68%)" fill-opacity="0.86" stroke="none" stroke-width="3.70" filter="url(#f1)" transform="translate(28.6 8.2) rotate(160.4) scale(1.01 1.84)" />
<path d="M 68.0 8.3 C 59.5 5.6, 67.5 87.1, 60.4 77.1 C 76.6 93.7, 48.8 45.9, 44.2 38.1 C 60.8 54.7, 53.8 36.6, 42.1 24.5 C 50.8 30.1, 93.0 72.1, 91.0 66.4 C 82.9 79.4, 38.4 43.4, 31.1 29.6 C 45.6 10.9, 57.9 58.9, 48.9 52.8 C 58.0 67.4, 66.2 11.0, 76.9 9.3 C 90.1 27.5, 19.7 2.1, 27.0 3.2 C 8.4 0.3, 77.8 19.3, 80.2 17.9 Z" fill="hsl(104, 72%, 65%)" fill-opacity="0.56" stroke="none" stroke-width="3.05"  transform="translate(72.5 95.5) rotate(123.6) scale(1.30 1.52)" />
<rect x="38.7" y="16.4" width="21.7" height="29.8" rx="0" fill="hsl(2, 82%, 55%)" fill-opacity="0.61"   transform="translate(0.6 88.7) rotate(61.5) scale(0.88 1.95)" />
<path d="M 11.2 21.1 C 22.2 24.2, 65.5 58.9, 61.2 57.3 C 69.7 38.4, 75.2 100.0, 68.8 93.4 C 84.1 98.5, 19.4 19.4, 15.1 21.5 C 4.6 39.5, 16.5 79.7, 4.6 90.6 C 21.0 100.0, 51.6 80.0, 59.5 71.3 C 39.7 73.9, 78.6 90.9, 92.8 91.3 Z" fill="hsl(144, 86%, 72%)" fill-opacity="0.71" stroke="none" stroke-width="1.75"  transform="translate(77.0 11.5) rotate(43.7) scale(1.41 0.67)" />
<path d="M 38.8 67.5 C 41.9 73.0, 10.6 65.8, 23.5 75.5 C 31.5 66.4, 30.3 13.9, 36.5 24.9 C 29.1 29.5, 57.1 8.9, 56.0 22.7 C 38.5 28.9, 19.8 4.3, 25.8 8.0 C 41.3 0.0, 43.9 39.1, 38.9 39.2 C 49.1 49.0, 100.0 61.0, 96.5 49.4 C 98.1 40.5, 92.5 85.0, 98.1 93.3 C 90.6 80.1, 39.7 80.5, 32.4 82.7 C 20.1 75.1, 51.6 32.4, 58.9 42.0 C 69.5 58.7, 17.4 23.8, 14.4 29.3 Z" fill="hsl(242, 72%, 49%)" fill-opacity="0.84" stroke="none" stroke-width="0.89"  transform="translate(35.2 91.0) rotate(82.4) scale(1.24 0.98)" />
<path d="M 27.3 28.9 C 10.3 38.6, 22.9 66.2, 11.3 65.0 C 0.0 81.9, 15.9 76.2, 26.2 62.4 C 24.7 65.5, 73.8 95.7, 70.7 92.5 C 70.8 94.4, 45.9 100.0, 41.7 99.7 C 49.8 87.9, 79.4 5.2, 69.5 18.3 C 89.2 23.6, 33.0 24.9, 26.9 12.1 C 29.0 0.0, 73.8 23.2, 79.9 25.4 " fill="none" fill-opacity="0.67" stroke="hsl(322, 74%, 44%)" stroke-width="3.59"  transform="translate(66.6 36.0) rotate(106.8) scale(1.61 1.42)" />
<path d="M 26.4 10.9 C 19.5 0.0, 0.0 48.4, 4.4 45.7 C 0.0 40.7, 72.1 16.8, 71.5 20.1 C 71.9 1.7, 8.2 15.6, 22.3 17.9 C 40.9 0.6, 39.7 100.0, 33.9 96.2 C 43.3 85.2, 45.6 25.9, 47.5 27.6 C 47.6 40.7, 89.1 40.8, 88.4 43.4 Z" fill="none" fill-opacity="0.81" stroke="hsl(290, 83%, 63%)" stroke-width="1.24"   />
<path d="M 34.4 81.2 C 47.5 68.4, 66.8 55.3, 73.9 44.9 C 87.5 44.3, 90.8 100.0, 93.7 99.9 C 95.7 100.0, 74.5 62.4, 66.7 68.2 C 70.3 63.8, 12.3 89.1, 15.3 92.5 C 26.1 94.7, 42.6 53.0, 32.9 63.1 C 48.7 81.5, 86.4 0.0, 82.4 4.2 Z" fill="hsl(183, 71%, 60%)" fill-opacity="0.63" stroke="none" stroke-width="4.51" filter="url(#f1)" transform="translate(82.5 73.6) rotate(84.4) scale(1.84 1.17)" />
<rect x="43.1" y="8.0" width="26.5" height="33.4" rx="17.9" fill="hsl(242, 72%, 49%)" fill-opacity="0.74"   transform="translate(54.7 82.8) rotate(56.2) scale(1.15 1.00)" />
<circle cx="53.2" cy="59.7" r="2.1" fill="url(#g2)" fill-opacity="0.62"  transform="translate(69.5 1.4) rotate(236.4) scale(0.60 0.61)" />
<path d="M 73.6 71.5 C 55.2 72.5, 38.2 87.1, 30.9 77.8 C 19.8 88.4, 87.1 80.0, 89.0 77.7 C 81.3 86.0, 12.4 25.5, 8.2 21.0 C 0.0 39.4, 86.2 94.4, 82.0 95.4 C 70.3 90.9, 50.3 57.9, 43.4 72.8 C 47.2 72.6, 12.9 48.5, 21.0 51.5 C 13.7 56.4, 12.8 100.0, 24.9 96.5 C 15.3 88.2, 15.2 88.5, 23.8 84.3 Z" fill="hsl(104, 72%, 65%)" fill-opacity="1.00" stroke="none" stroke-width="1.90"  transform="translate(53.6 32.5) rotate(170.9) scale(1.08 0.86)" />
<path d="M 51.2 44.4 C 46.4 33.0, 44.5 32.9, 32.6 33.8 C 44.5 15.5, 76.3 56.8, 68.9 66.4 C 78.9 51.5, 2.3 81.5, 16.3 94.4 C 25.8 83.1, 92.6 55.6, 95.5 54.3 C 100.0 52.8, 22.6 86.4, 22.2 94.7 C 4.8 97.4, 13.5 57.8, 22.8 52.2 C 34.8 40.9, 76.5 100.0, 70.4 92.4 C 64.6 100.0, 5.3 91.3, 16.5 84.7 Z" fill="hsl(86, 72%, 68%)" fill-opacity="0.40" stroke="none" stroke-width="2.22"  transform="translate(53.3 61.3) rotate(19.1) scale(1.50 1.46)" />
<rect x="43.1" y="5.0" width="33.7" height="33.9" rx="19.2" fill="hsl(144, 86%, 72%)" fill-opacity="0.95"   transform="translate(92.0 17.3) rotate(120.3) scale(1.50 1.66)" />
<rect x="2.5" y="55.9" width="44.5" height="32.1" rx="0" fill="hsl(183, 71%, 60%)" fill-opacity="0.60"   transform="translate(38.7 35.1) rotate(138.2) scale(0.76 1.78)" />
<rect x="33.0" y="15.6" width="35.4" height="38.7" rx="0" fill="hsl(151, 70%, 62%)" fill-opacity="0.84" stroke="hsl(104, 72%, 65%)" stroke-width="4.4"  transform="translate(74.9 41.9) rotate(136.8) scale(1.33 0.86)" />
<circle cx="80.2" cy="23.6" r="14.4" fill="url(#g2)" fill-opacity="0.57"  transform="translate(63.3 13.1) rotate(147.7) scale(1.44 0.85)" />
<rect x="15.2" y="61.8" width="47.1" height="14.7" rx="8.1" fill="hsl(2, 82%, 55%)" fill-opacity="0.60" stroke="hsl(290, 83%, 63%)" stroke-width="4.5"  transform="translate(13.5 75.5) rotate(196.7) scale(0.70 1.09)" />
<path d="M 81.3 65.1 C 99.6 75.1, 70.0 92.0, 62.7 88.4 C 63.2 100.0, 32.7 54.4, 47.4 59.3 C 64.4 62.0, 82.3 17.1, 72.6 6.6 C 90.4 1.5, 31.3 5.7, 31.6 17.0 C 46.9 11.8, 93.2 64.2, 96.6 68.7 C 98.1 82.2, 0.0 12.9, 10.3 21.5 C 9.5 24.2, 47.2 6.8, 61.2 20.2 C 46.3 27.1, 14.4 79.3, 1.5 72.6 C 0.0 83.5, 80.6 28.1, 91.4 13.2 Z" fill="none" fill-opacity="0.26" stroke="hsl(40, 53%, 69%)" stroke-width="3.84"  transform="translate(27.9 77.5) rotate(172.9) scale(0.98 0.72)" />
<path d="M 81.8 89.0 C 85.0 100.0, 4.4 88.0, 2.7 84.8 C 7.9 88.8, 73.1 40.6, 64.9 35.5 C 73.4 24.2, 24.4 11.2, 12.9 15.8 C 15.1 5.0, 97.5 58.5, 85.6 55.3 C 100.0 48.0, 41.2 38.6, 40.9 30.9 C 33.0 21.1, 65.0 51.8, 65.9 63.0 C 52.4 50.5, 13.4 0.0, 20.2 5.3 C 13.6 22.8, 81.5 16.4, 87.2 16.6 C 100.0 4.8, 73.0 58.0, 59.5 53.8 C 53.6 57.4, 0.0 53.6, 5.1 60.0 Z" fill="hsl(83, 65%, 44%)" fill-opacity="0.67" stroke="none" stroke-width="2.10"  transform="translate(21.1 48.1) rotate(277.5) scale(0.56 1.64)" />
<path d="M 48.8 60.1 C 38.0 56.1, 84.0 28.3, 88.9 34.7 C 73.8 27.3, 70.9 5.7, 76.6 20.1 C 81.4 26.0, 36.0 27.0, 43.1 26.8 C 38.2 19.4, 59.4 28.4, 48.7 34.2 C 34.9 26.8, 100.0 48.8, 96.1 34.8 C 96.3 46.3, 71.2 67.3, 83.5 71.8 C 100.0 57.2, 42.0 12.8, 33.6 10.1 C 41.8 26.7, 47.5 61.5, 40.9 63.1 C 36.9 52.0, 51.8 16.9, 62.8 7.2 C 60.3 20.7, 49.8 10.3, 41.5 1.7 " fill="hsl(2, 82%, 55%)" fill-opacity="0.60" stroke="none" stroke-width="5.16"  transform="translate(6.9 65.3) rotate(159.8) scale(1.33 0.52)" />
<path d="M 72.8 71.9 C 59.3 90.2, 75.9 88.3, 76.4 81.1 C 61.4 65.9, 90.1 13.9, 91.3 22.4 C 100.0 3.4, 89.7 30.5, 80.9 33.1 C 71.2 13.5, 100.0 12.1, 90.0 14.8 C 94.0 0.0, 66.8 34.5, 57.0 47.3 C 65.2 49.7, 48.8 88.0, 41.1 97.2 C 36.7 100.0, 52.8 78.0, 65.9 68.9 C 68.5 66.5, 17.4 79.1, 13.5 64.4 " fill="hsl(144, 86%, 72%)" fill-opacity="0.44" stroke="none" stroke-width="4.33"  transform="translate(17.9 57.4) rotate(147.1) scale(1.48 0.80)" />
<path d="M 86.2 44.8 C 80.8 33.7, 78.2 66.9, 63.3 67.3 C 75.2 78.3, 71.2 7.4, 83.9 21.8 C 100.0 27.4, 13.0 61.5, 23.2 48.7 C 11.0 66.8, 84.1 11.9, 88.7 4.9 C 74.6 8.0, 63.0 3.0, 68.6 13.7 C 61.4 14.4, 36.3 8.9, 45.2 20.9 C 61.3 40.3, 31.5 55.7, 31.5 53.2 C 27.8 39.0, 57.0 63.5, 68.3 53.9 Z" fill="hsl(144, 86%, 72%)" fill-opacity="0.25" stroke="none" stroke-width="2.52"  transform="translate(70.5 31.5) rotate(23.6) scale(1.24 1.89)" />
<rect x="39.5" y="33.1" width="39.0" height="21.0" rx="14.2" fill="hsl(2, 82%, 55%)" fill-opacity="0.48"   transform="translate(57.9 51.4) rotate(103.7) scale(1.60 1.20)" />
<path d="M 5.5 64.9 C 24.6 60.5, 0.0 37.5, 4.7 44.7 C 0.0 39.4, 72.1 27.3, 81.3 36.9 C 96.1 31.0, 21.1 58.9, 25.1 48.9 C 32.8 49.8, 36.3 41.4, 28.8 36.9 C 30.6 19.3, 60.0 20.0, 46.6 15.9 C 47.2 35.7, 23.4 93.9, 20.6 91.6 C 32.0 100.0, 52.6 90.1, 55.9 92.4 C 48.3 93.0, 85.5 13.0, 90.1 17.7 C 88.0 27.9, 99.2 87.9, 85.0 82.9 Z" fill="none" fill-opacity="0.91" stroke="hsl(2, 82%, 55%)" stroke-width="1.45"   />
<path d="M 11.5 16.0 C 17.7 13.1, 85.0 46.0, 89.9 40.5 C 89.9 45.6, 32.8 48.1, 46.1 42.1 C 47.8 33.6, 22.8 76.7, 30.1 82.7 C 49.6 93.4, 42.7 37.6, 45.5 38.2 C 62.0 32.2, 89.8 57.1, 95.1 67.4 C 100.0 51.2, 28.0 76.3, 40.3 82.3 C 22.6 63.6, 20.2 85.9, 6.2 95.2 Z" fill="none" fill-opacity="0.70" stroke="hsl(144, 86%, 72%)" stroke-width="5.12" filter="url(#f1)" transform="translate(67.7 91.1) rotate(282.0) scale(0.81 0.94)" />
<circle cx="77.3" cy="46.9" r="0.0" fill="url(#g1)" fill-opacity="0.72"   />
<rect x="65.0" y="48.3" width="32.2" height="20.4" rx="5.3" fill="none" fill-opacity="0.38" stroke="hsl(144, 86%, 72%)" stroke-width="3.2"  transform="translate(1.0 82.2) rotate(282.3) scale(1.46 1.23)" />
<path d="M 33.8 47.8 C 31.7 66.3, 0.0 9.6, 3.3 21.5 C 0.0 21.0, 58.1 45.2, 72.6 46.3 C 66.3 63.9, 83.1 3.4, 88.3 8.9 C 100.0 2.0, 13.5 100.0, 10.8 99.4 C 19.9 100.0, 90.1 78.7, 84.7 63.8 C 86.9 46.4, 20.8 26.5, 13.6 36.3 C 6.8 25.3, 0.0 64.0, 5.7 69.7 C 11.8 56.8, 58.1 27.0, 44.1 14.5 C 24.6 20.9, 76.5 10.3, 71.7 15.3 Z" fill="hsl(183, 71%, 60%)" fill-opacity="0.79" stroke="none" stroke-width="3.09"  transform="translate(77.6 64.9) rotate(231.7) scale(1.37 1.07)" />
<path d="M 75.3 0.1 C 91.2 0.0, 86.4 100.0, 88.9 99.2 C 88.1 100.0, 38.5 37.1, 35.7 31.0 C 30.1 23.5, 49.5 73.6, 63.8 88.2 C 62.1 99.2, 65.2 10.9, 80.1 16.7 C 87.3 6.0, 8.1 34.9, 5.2 28.8 C 12.2 40.4, 10.6 59.0, 0.1 57.0 Z" fill="hsl(83, 65%, 44%)" fill-opacity="0.39" stroke="none" stroke-width="4.16"  transform="translate(82.2 99.9) rotate(289.9) scale(1.03 0.51)" />
<rect x="6.5" y="21.9" width="38.0" height="24.7" rx="0" fill="none" fill-opacity="0.24" stroke="hsl(183, 71%, 60%)" stroke-width="1.4"  transform="translate(58.4 77.8) rotate(229.9) scale(1.41 1.00)" />
<path d="M 14.1 97.3 C 0.0 100.0, 51.1 97.1, 52.5 97.7 C 49.4 87.7, 75.7 31.4, 71.9 16.7 C 57.3 28.4, 23.9 67.5, 8.9 55.5 C 8.7 35.6, 10.2 69.4, 17.7 74.9 C 4.2 66.1, 73.2 75.1, 78.6 88.4 C 60.7 76.5, 49.0 66.2, 47.3 77.8 Z" fill="hsl(322, 74%, 44%)" fill-opacity="0.27" stroke="none" stroke-width="3.78"  transform="translate(58.3 40.0) rotate(283.8) scale(1.37 1.56)" />
<circle cx="72.3" cy="76.9" r="10.6" fill="url(#g2)" fill-opacity="0.83"  transform="translate(71.5 53.0) rotate(51.4) scale(1.26 1.16)" />
<path d="M 81.0 32.9 C 79.7 27.0, 38.6 45.4, 39.8 58.2 C 54.2 61.6, 15.3 58.0, 14.3 61.7 C 24.5 58.2, 33.7 34.0, 46.6 38.1 C 51.7 39.6, 13.3 77.9, 19.4 65.7 C 19.3 65.8, 12.8 11.3, 9.5 1.2 C 23.9 15.4, 30.8 60.3, 31.0 63.2 Z" fill="none" fill-opacity="0.66" stroke="hsl(322, 74%, 44%)" stroke-width="0.93"  transform="translate(35.5 69.5) rotate(36.1) scale(0.78 1.62)" />
<circle cx="84.8" cy="63.6" r="9.2" fill="url(#g1)" fill-opacity="0.47"  transform="translate(72.3 14.6) rotate(110.9) scale(1.92 0.98)" />
<circle cx="91.2" cy="3.5" r="3.5" fill="url(#g0)" fill-opacity="0.59"  transform="translate(15.8 33.3) rotate(15.5) scale(0.99 0.70)" />
<circle cx="93.7" cy="19.0" r="0.5" fill="hsl(290, 83%, 63%)" fill-opacity="0.47"  transform="translate(40.8 77.3) rotate(175.2) scale(1.72 1.63)" />
<circle cx="56.1" cy="9.2" r="8.3" fill="url(#g1)" fill-opacity="0.48"  transform="translate(19.0 76.4) rotate(193.6) scale(1.76 0.98)" />
<path d="M 46.5 16.9 C 64.1 7.1, 55.3 82.3, 58.3 87.2 C 65.1 72.0, 73.9 78.8, 62.8 80.6 C 58.1 74.8, 14.6 40.8, 5.2 40.1 C 6.2 56.3, 17.6 83.4, 23.4 88.9 C 42.3 100.0, 27.0 8.5, 20.4 10.5 C 26.2 20.2, 40.9 63.4, 50.0 61.7 Z" fill="hsl(183, 71%, 60%)" fill-opacity="0.58" stroke="none" stroke-width="1.64"  transform="translate(51.9 61.4) rotate(315.0) scale(1.41 1.94)" />
<path d="M 19.0 43.2 C 10.5 58.9, 70.0 46.9, 68.3 41.0 C 52.3 47.1, 21.2 15.5, 14.9 16.0 C 14.8 36.0, 51.4 77.8, 46.2 78.1 C 51.7 94.3, 31.0 53.6, 25.8 43.0 C 19.2 29.8, 79.9 80.4, 65.6 71.8 C 62.0 73.3, 34.5 15.2, 32.7 23.2 C 24.7 38.9, 88.4 44.6, 91.2 39.2 Z" fill="hsl(322, 74%, 44%)" fill-opacity="0.62" stroke="none" stroke-width="4.16"   />
<circle cx="87.3" cy="77.4" r="5.6" fill="url(#g0)" fill-opacity="0.80"  transform="translate(42.6 32.2) rotate(359.7) scale(1.19 1.35)" />
<circle cx="90.5" cy="59.6" r="17.5" fill="url(#g1)" fill-opacity="0.64"  transform="translate(32.0 62.7) rotate(221.2) scale(1.46 0.74)" />
<rect x="29.9" y="27.7" width="30.1" height="39.8" rx="0" fill="none" fill-opacity="0.83"   transform="translate(57.7 99.5) rotate(125.7) scale(1.87 0.80)" />
<path d="M 46.6 1.7 C 32.8 0.7, 45.8 54.4, 31.1 65.1 C 33.1 74.3, 63.1 39.0, 48.4 48.5 C 56.7 38.1, 72.3 65.9, 66.7 70.3 C 60.9 58.1, 18.4 34.0, 9.0 28.2 C 20.0 30.9, 93.9 89.4, 84.3 87.8 C 99.8 68.3, 59.3 83.8, 62.1 79.8 Z" fill="none" fill-opacity="0.51" stroke="hsl(83, 65%, 44%)" stroke-width="3.96"  transform="translate(77.6 47.0) rotate(172.7) scale(1.10 1.31)" />
<path d="M 41.2 81.7 C 39.6 88.9, 83.6 45.3, 86.5 35.5 C 79.2 26.5, 6.9 22.0, 15.4 29.2 C 24.0 15.6, 55.1 29.9, 49.0 36.0 C 46.6 26.4, 15.1 86.6, 12.8 96.6 C 25.5 80.7, 11.8 64.8, 19.4 65.7 C 32.6 48.6, 0.0 43.0, 7.2 47.9 C 23.8 47.4, 81.7 72.0, 75.4 81.0 Z" fill="none" fill-opacity="0.98" stroke="hsl(144, 86%, 72%)" stroke-width="3.74"  transform="translate(55.8 7.7) rotate(215.0) scale(1.50 1.76)" />
<circle cx="63.8" cy="86.6" r="8.1" fill="url(#g0)" fill-opacity="0.66"   />
<path d="M 6.1 51.9 C 5.9 38.0, 2.0 10.1, 16.9 6.6 C 0.0 0.0, 56.5 15.8, 61.9 26.2 C 57.1 34.4, 88.5 82.2, 87.0 90.5 C 78.5 71.9, 46.9 69.1, 39.8 73.3 C 21.5 72.3, 71.6 44.6, 67.4 30.9 C 59.8 35.6, 30.7 55.0, 28.3 60.0 C 8.8 75.1, 47.3 16.7, 42.3 16.2 C 54.6 15.0, 34.8 6.2, 29.8 5.1 C 36.0 0.0, 71.6 51.4, 71.9 42.2 C 80.5 50.5, 63.1 7.0, 55.6 9.4 Z" fill="none" fill-opacity="0.93" stroke="hsl(144, 86%, 72%)" stroke-width="3.72"  transform="translate(61.7 71.9) rotate(273.4) scale(1.74 1.22)" />
<path d="M 13.7 48.9 C 2.7 54.8, 61.7 73.7, 73.8 84.4 C 92.2 78.5, 51.2 58.7, 50.7 72.2 C 63.4 80.9, 73.2 38.3, 65.0 31.2 C 76.4 46.3, 17.2 83.0, 22.6 83.1 C 11.5 95.9, 57.9 68.7, 47.2 69.1 C 61.7 88.3, 19.5 30.4, 29.7 30.6 C 12.9 14.6, 51.6 67.0, 66.0 71.1 " fill="hsl(242, 72%, 49%)" fill-opacity="0.41" stroke="none" stroke-width="3.60"  transform="translate(6.9 80.1) rotate(334.0) scale(1.85 1.03)" />
<path d="M 53.8 73.1 C 39.1 58.5, 38.9 86.4, 32.2 95.6 C 51.3 78.0, 85.5 77.9, 97.4 73.6 C 82.1 78.2, 66.2 10.8, 63.0 11.7 C 50.7 26.2, 62.9 0.0, 69.1 0.4 C 69.6 0.0, 51.4 11.0, 52.5 9.6 C 42.4 0.0, 25.8 38.8, 35.8 50.5 C 31.2 36.1, 54.1 15.5, 57.1 14.4 C 43.2 0.0, 69.3 88.0, 54.5 88.4 C 49.5 83.5, 22.5 67.0, 11.2 73.9 Z" fill="hsl(144, 86%, 72%)" fill-opacity="0.65" stroke="none" stroke-width="5.18"  transform="translate(16.0 62.9) rotate(39.6) scale(0.88 1.26)" />
<path d="M 56.2 21.6 C 56.5 35.2, 25.8 0.0, 18.5 2.8 C 22.1 19.3, 18.6 14.3, 14.8 9.0 C 0.0 0.0, 16.2 54.1, 14.6 47.5 C 33.4 41.3, 44.7 86.9, 36.7 81.7 C 52.4 78.0, 39.6 83.8, 35.7 95.9 C 53.2 82.4, 27.6 95.0, 29.2 82.7 C 33.4 94.8, 45.4 17.5, 35.8 22.6 C 18.4 12.6, 32.9 75.3, 38.4 86.3 Z" fill="none" fill-opacity="0.59" stroke="hsl(242, 72%, 49%)" stroke-width="2.59"  transform="translate(78.4 21.1) rotate(103.6) scale(0.78 1.35)" />
<path d="M 8.7 47.0 C 0.0 63.1, 58.2 0.0, 63.6 5.7 C 57.9 0.0, 30.9 74.1, 23.2 74.4 C 26.9 62.8, 52.9 20.8, 58.4 14.5 C 46.7 9.2, 52.5 48.7, 58.3 39.6 C 63.2 51.0, 93.3 62.9, 87.8 74.9 C 79.3 60.1, 40.4 37.0, 55.4 43.3 C 46.2 36.0, 91.9 32.4, 88.3 33.9 C 70.9 43.5, 93.7 43.7, 95.6 42.4 C 100.0 29.0, 10.7 93.6, 10.4 79.4 Z" fill="hsl(2, 82%, 55%)" fill-opacity="0.67" stroke="none" stroke-width="3.90"  transform="translate(48.8 56.7) rotate(100.3) scale(0.50 0.62)" />
<path d="M 42.6 19.1 C 25.2 4.0, 100.0 36.0, 97.4 40.6 C 100.0 55.0, 79.3 8.1, 74.6 6.5 C 70.3 0.7, 23.7 21.8, 15.2 19.0 C 34.7 0.8, 8.0 73.7, 0.0 75.1 C 0.0 82.2, 88.5 21.9, 80.6 30.5 C 86.5 39.1, 76.8 71.6, 75.9 65.5 C 80.7 82.6, 33.0 56.9, 20.9 49.6 Z" fill="none" fill-opacity="0.58" stroke="hsl(144, 86%, 72%)" stroke-width="2.23" filter="url(#f1)"  />
<path d="M 93.0 4.2 C 95.8 13.9, 87.6 37.0, 79.2 22.2 C 93.8 21.9, 37.7 10.2, 26.0 23.5 C 43.5 10.1, 48.1 16.1, 40.2 29.3 C 31.4 27.2, 34.5 12.6, 28.6 26.0 C 22.0 9.6, 85.1 8.1, 71.6 14.5 C 72.0 1.2, 27.7 59.6, 34.8 49.6 C 51.5 59.5, 0.0 12.3, 8.0 22.9 C 0.0 18.8, 0.0 61.3, 13.0 72.8 Z" fill="hsl(322, 74%, 44%)" fill-opacity="0.83" stroke="none" stroke-width="2.85"  transform="translate(62.9 18.6) rotate(244.8) scale(0.99 1.61)" />
<rect x="17.7" y="25.9" width="27.8" height="27.8" rx="14.9" fill="none" fill-opacity="0.42"   transform="translate(35.3 5.8) rotate(234.0) scale(1.11 0.85)" />
<path d="M 78.2 70.9 C 87.5 68.2, 54.3 25.0, 44.1 23.4 C 27.8 28.7, 59.6 0.0, 58.4 5.8 C 77.8 0.0, 34.8 100.0, 32.9 100.0 C 35.1 100.0, 38.2 14.4, 36.1 16.0 C 16.6 0.5, 12.1 24.3, 24.7 10.3 C 18.8 17.1, 45.0 7.6, 41.6 1.5 C 56.4 0.0, 0.0 70.8, 5.7 60.6 C 3.2 54.0, 100.0 35.9, 98.9 40.8 C 100.0 44.3, 51.9 11.3, 50.7 17.3 Z" fill="none" fill-opacity="0.70" stroke="hsl(144, 86%, 72%)" stroke-width="4.83"  transform="translate(83.5 13.5) rotate(264.0) scale(0.96 1.92)" />
<path d="M 72.8 32.5 C 87.0 33.7, 37.9 23.0, 29.3 33.9 C 43.0 22.1, 84.0 36.6, 71.6 44.3 C 73.6 33.6, 17.1 91.9, 7.8 83.0 C 25.3 100.0, 40.9 52.8, 53.8 66.3 C 49.6 81.4, 34.5 7.7, 34.0 2.5 C 51.9 0.0, 47.8 92.8, 54.5 85.1 C 42.5 65.8, 84.8 1.0, 75.8 6.0 C 60.4 25.3, 44.0 46.0, 42.5 52.8 C 25.4 45.9, 69.0 59.9, 61.0 62.2 C 54.1 55.4, 79.4 38.3, 74.1 31.0 Z" fill="none" fill-opacity="0.51" stroke="hsl(86, 72%, 68%)" stroke-width="4.10"   />
<g opacity="0.044">
<rect x="0" y="0" width="1" height="100" fill="black" />
<rect x="22" y="0" width="1" height="100" fill="black" />
<rect x="44" y="0" width="1" height="100" fill="black" />
<rect x="66" y="0" width="1" height="100" fill="black" />
<rect x="88" y="0" width="1" height="100" fill="black" />
<rect x="0" y="0" width="100" height="1" fill="black" />
<rect x="0" y="22" width="100" height="1" fill="black" />
<rect x="0" y="44" width="100" height="1" fill="black" />
<rect x="0" y="66" width="100" height="1" fill="black" />
<rect x="0" y="88" width="100" height="1" fill="black" />
</g>

</svg>
