<?xml version="1.0" encoding="UTF-8"?>
<svg xmlns="http://www.w3.org/2000/svg" width="100" height="100" viewBox="0 0 100 100">
<defs>
<linearGradient id="g0" x1="0%" y1="0%" x2="100%" y2="100%">
<stop offset="0.0%" stop-color="hsl(106, 75%, 59%)" />
<stop offset="33.3%" stop-color="hsl(183, 71%, 60%)" />
<stop offset="66.7%" stop-color="hsl(242, 72%, 49%)" />
<stop offset="100.0%" stop-color="hsl(322, 74%, 44%)" />
</linearGradient>
<linearGradient id="g1" x1="0%" y1="0%" x2="100%" y2="100%">
<stop offset="0.0%" stop-color="hsl(290, 83%, 63%)" />
<stop offset="33.3%" stop-color="hsl(2, 82%, 55%)" />
<stop offset="66.7%" stop-color="hsl(86, 72%, 68%)" />
<stop offset="100.0%" stop-color="hsl(83, 65%, 44%)" />
</linearGradient>
<linearGradient id="g2" x1="0%" y1="0%" x2="100%" y2="100%">
<stop offset="0.0%" stop-color="hsl(40, 53%, 69%)" />
<stop offset="33.3%" stop-color="hsl(104, 72%, 65%)" />
<stop offset="66.7%" stop-color="hsl(144, 86%, 72%)" />
<stop offset="100.0%" stop-color="hsl(151, 70%, 62%)" />
</linearGradient>
<filter id="f1" x="-20%" y="-20%" width="140%" height="140%">
  <feGaussianBlur stdDeviation="0.9660503156980083" />
</filter>

</defs>

<path d="M 69.8 65.1 C 61.1 46.4, 12.4 76.7, 16.8 89.9 C 17.1 92.6, 41.4 43.5, 41.3 37.1 C 30.3 52.2, 63.1 100.0, 54.1 98.9 C 41.5 100.0, 60.4 14.8, 48.9 14.2 C 63.9 0.2, 56.3 37.8, 70.6 42.6 C 51.4 35.7, 78.5 65.8, 85.0 76.8 C 67.1 80.9, 70.6 55.3, 79.8 61.8 C 62.3 79.1, 60.9 36.2, 53.6 42.4 Z" fill="none" fill-opacity="0.33" stroke="hsl(290, 83%, 63%)" stroke-width="1.14"  transform="translate(6.2 96.6) rotate(295.2) scale(0.67 1.67)" />
<path d="M 44.8 56.1 C 26.4 38.8, 25.5 100.0, 22.7 96.9 C 39.8 100.0, 45.2 88.5, 57.5 79.3 C 46.1 72.4, 44.0 69.4, 34.1 65.9 C 39.5 74.1, 63.2 24.1, 77.3 38.4 C 90.8 29.1, 86.9 72.4, 94.7 82.1 C 100.0 90.3, 52.3 13.6, 56.9 17.2 C 70.4 15.2, 54.2 50.9, 50.5 58.9 C 51.3 72.9, 49.2 6.0, 57.9 0.7 C 50.9 0.0, 42.9 100.0, 31.8 96.8 Z" fill="hsl(183, 71%, 60%)" fill-opacity="0.68" stroke="none" stroke-width="4.67"  transform="translate(30.7 19.0) rotate(210.6) scale(0.87 0.92)" />
<rect x="8.9" y="62.0" width="22.7" height="14.6" rx="0" fill="hsl(242, 72%, 49%)" fill-opacity="0.66" stroke="hsl(106, 75%, 59%)" stroke-width="2.2"  transform="translate(65.4 88.7) rotate(210.4) scale(0.76 0.94)" />
<circle cx="6.5" cy="70.4" r="10.0" fill="url(#g1)" fill-opacity="0.70"   />
<path d="M 79.5 35.9 C 72.6 33.9, 73.9 3.1, 63.7 4.1 C 49.7 0.0, 64.7 42.6, 79.4 36.0 C 83.0 22.9, 55.5 53.5, 69.9 48.0 C 61.7 46.4, 14.4 60.4, 25.9 60.2 C 15.4 71.7, 79.7 40.2, 88.1 37.9 C 100.0 47.3, 89.9 27.0, 98.1 34.7 C 87.9 16.9, 44.9 84.4, 56.1 93.4 C 53.8 85.8, 72.3 84.8, 71.3 76.3 C 90.2 83.5, 50.3 60.8, 42.4 69.9 Z" fill="none" fill-opacity="0.41" stroke="hsl(83, 65%, 44%)" stroke-width="2.42"  transform="translate(73.5 62.3) rotate(107.8) scale(1.76 1.66)" />
<rect x="52.4" y="44.9" width="35.3" height="35.1" rx="0" fill="none" fill-opacity="0.46"   transform="translate(31.4 28.5) rotate(266.3) scale(0.79 1.64)" />
<rect x="14.6" y="0.6" width="33.7" height="40.0" rx="4.6" fill="none" fill-opacity="0.98"   transform="translate(88.3 71.0) rotate(49.8) scale(1.92 1.71)" />
<path d="M 46.3 7.6 C 29.5 4.5, 48.3 27.7, 36.4 36.1 C 38.5 54.7, 66.3 70.9, 53.9 79.5 C 70.4 93.1, 77.5 0.0, 86.1 8.3 C 100.0 26.0, 5.1 65.0, 6.4 54.1 C 1.1 50.4, 70.5 57.8, 80.2 49.1 C 93.9 37.8, 70.9 78.4, 76.2 84.6 Z" fill="hsl(106, 75%, 59%)" fill-opacity="0.75" stroke="none" stroke-width="3.48"   />
<path d="M 7.9 97.1 C 19.8 99.2, 69.4 52.8, 70.4 56.6 C 78.3 65.5, 58.1 96.0, 72.9 85.7 C 59.7 83.4, 79.5 79.2, 69.9 91.1 C 83.4 79.8, 28.2 75.7, 39.3 73.4 C 29.9 61.0, 59.0 46.1, 71.1 35.2 C 85.2 53.8, 30.7 100.0, 45.5 98.6 Z" fill="hsl(151, 70%, 62%)" fill-opacity="0.78" stroke="none" stroke-width="3.19"  transform="translate(77.4 26.3) rotate(81.8) scale(1.94 1.21)" />
<circle cx="95.2" cy="19.9" r="0.6" fill="url(#g0)" fill-opacity="0.42"  transform="translate(39.8 52.7) rotate(120.1) scale(1.63 1.14)" />
<path d="M 97.8 98.2 C 94.0 90.7, 50.8 51.2, 51.1 54.5 C 45.0 50.1, 60.5 76.0, 53.1 84.1 C 64.9 97.0, 60.1 10.5, 69.2 24.2 C 72.9 26.0, 12.1 61.2, 26.1 46.5 C 19.0 55.9, 90.8 74.6, 91.4 80.7 C 90.9 87.6, 11.5 18.9, 7.6 9.0 C 23.9 10.8, 84.8 70.9, 88.3 58.5 C 99.7 71.3, 31.8 63.7, 27.9 71.8 Z" fill="none" fill-opacity="0.57" stroke="hsl(106, 75%, 59%)" stroke-width="1.82" filter="url(#f1)" transform="translate(73.3 81.8) rotate(155.2) scale(0.64 1.08)" />
<path d="M 23.0 53.2 C 31.8 63.3, 100.0 17.8, 98.6 8.5 C 100.0 0.0, 12.6 25.0, 15.0 40.0 C 24.0 48.4, 0.9 20.8, 14.5 19.6 C 30.1 2.7, 27.5 33.7, 35.7 22.7 C 41.6 36.6, 69.0 10.4, 57.9 7.6 C 47.4 9.1, 18.0 21.0, 7.1 15.0 C 12.2 10.4, 83.1 0.0, 82.5 2.4 C 73.5 10.9, 29.0 21.5, 40.9 33.3 C 59.3 40.0, 82.7 82.6, 83.8 76.4 C 97.9 83.6, 80.3 23.3, 91.7 22.8 Z" fill="none" fill-opacity="0.48" stroke="hsl(40, 53%, 69%)" stroke-width="4.68"  transform="translate(92.9 42.1) rotate(105.8) scale(0.63 1.03)" />
<path d="M 16.8 13.0 C 10.1 14.6, 100.0 22.7, 89.2 26.1 C 73.1 20.0, 100.0 0.6, 92.1 6.7 C 100.0 0.0, 71.5 50.6, 79.2 50.9 C 74.2 38.7, 57.3 0.0, 54.3 3.6 C 59.9 9.5, 69.6 80.1, 82.4 84.4 C 68.4 79.1, 22.5 1.6, 13.5 15.3 C 9.7 1.3, 26.7 4.3, 27.4 2.3 C 9.1 9.5, 43.1 78.3, 49.8 87.1 Z" fill="none" fill-opacity="0.90" stroke="hsl(86, 72%, 68%)" stroke-width="4.75"  transform="translate(95.1 18.5) rotate(29.9) scale(1.75 1.54)" />
<path d="M 58.5 3.1 C 52.5 3.5, 47.9 35.4, 58.2 36.3 C 75.7 43.6, 55.7 43.6, 59.2 47.1 C 58.9 39.5, 70.2 69.0, 75.7 74.2 C 67.8 69.7, 39.7 79.2, 30.6 80.8 C 40.4 83.4, 81.3 41.6, 77.1 47.0 C 69.4 52.5, 42.3 74.9, 49.8 84.4 Z" fill="hsl(242, 72%, 49%)" fill-opacity="0.51" stroke="none" stroke-width="3.54"  transform="translate(55.7 83.9) rotate(245.4) scale(1.22 1.64)" />
<path d="M 21.1 23.5 C 22.8 10.4, 45.4 11.5, 57.0 15.0 C 37.1 23.0, 24.5 94.6, 28.4 100.0 C 45.4 100.0, 53.5 41.9, 59.5 41.0 C 70.8 57.2, 37.7 86.4, 28.0 83.8 C 15.6 79.4, 24.4 4.7, 26.1 9.2 C 36.8 14.5, 0.0 39.2, 6.8 42.9 C 13.4 58.3, 11.2 54.8, 20.3 69.1 C 1.7 51.8, 79.0 16.0, 72.2 31.0 Z" fill="none" fill-opacity="0.45" stroke="hsl(86, 72%, 68%)" stroke-width="3.37"  transform="translate(33.2 67.8) rotate(155.2) scale(1.05 1.49)" />
<rect x="61.1" y="59.6" width="31.7" height="24.6" rx="0" fill="hsl(40, 53%, 69%)" fill-opacity="0.66"   transform="translate(99.0 1.9) rotate(151.9) scale(1.17 1.85)" />
<path d="M 94.4 2.9 C 94.4 3.2, 64.7 26.2, 52.8 33.1 C 65.5 40.5, 100.0 100.0, 99.6 98.3 C 93.6 100.0, 80.5 88.1, 81.4 83.1 C 62.2 69.9, 98.4 24.7, 90.6 38.0 C 100.0 27.2, 79.1 81.8, 85.3 79.6 C 90.5 67.5, 30.5 56.1, 26.4 42.8 Z" fill="hsl(183, 71%, 60%)" fill-opacity="0.26" stroke="none" stroke-width="5.20"   />
<path d="M 15.4 6.0 C 18.2 1.4, 59.3 79.3, 65.7 78.4 C 85.5 73.9, 3.1 13.6, 0.8 25.0 C 7.4 30.5, 0.0 33.0, 6.1 34.2 C 2.6 28.8, 33.0 0.0, 40.3 4.7 C 33.3 12.2, 35.7 0.0, 45.0 10.4 C 29.3 16.3, 57.8 65.4, 64.1 73.9 C 73.8 79.3, 21.1 46.1, 29.1 31.7 C 33.8 40.6, 42.1 54.9, 34.1 40.0 Z" fill="hsl(104, 72%, 65%)" fill-opacity="0.75" stroke="none" stroke-width="1.89"  transform="translate(53.9 23.3) rotate(266.1) scale(1.82 0.69)" />
<rect x="27.6" y="23.2" width="26.9" height="12.3" rx="1.5" fill="none" fill-opacity="0.82" stroke="hsl(40, 53%, 69%)" stroke-width="1.5"  transform="translate(58.4 20.2) rotate(34.7) scale(1.41 1.87)" />
<path d="M 49.2 41.1 C 53.9 35.8, 34.0 100.0, 29.6 92.8 C 25.9 79.5, 48.0 39.8, 43.1 47.5 C 30.0 64.6, 56.4 85.3, 57.1 89.6 C 65.8 87.9, 10.4 79.5, 6.1 78.6 C 23.5 80.0, 6.3 26.8, 0.9 19.9 C 14.9 3.8, 96.4 45.1, 95.3 39.5 C 79.2 32.9, 99.0 1.2, 86.6 9.2 C 89.0 10.0, 47.1 10.7, 43.8 8.2 Z" fill="none" fill-opacity="0.71" stroke="hsl(242, 72%, 49%)" stroke-width="2.71"   />
<path d="M 35.5 85.0 C 52.8 67.7, 76.9 60.8, 65.9 57.6 C 77.1 42.8, 63.3 34.1, 53.3 35.3 C 61.9 33.5, 51.7 32.7, 43.6 25.6 C 58.2 16.4, 18.7 32.0, 7.6 18.3 C 0.0 24.3, 15.2 54.0, 0.7 41.6 C 9.5 53.1, 70.3 0.0, 73.1 2.2 C 75.5 0.0, 13.3 86.4, 26.3 80.9 C 14.7 63.2, 62.3 8.7, 68.7 8.8 Z" fill="hsl(183, 71%, 60%)" fill-opacity="0.36" stroke="none" stroke-width="4.73"  transform="translate(32.4 72.1) rotate(162.8) scale(0.68 0.73)" />
<path d="M 54.8 4.6 C 65.8 2.2, 0.0 21.3, 6.3 7.5 C 24.5 0.0, 70.7 98.4, 62.3 85.6 C 67.4 72.9, 3.1 10.3, 5.9 9.0 C 0.0 24.0, 85.5 7.9, 98.5 12.1 C 100.0 0.0, 53.5 0.2, 64.6 12.4 C 64.1 30.1, 58.2 100.0, 52.2 90.9 C 52.4 94.5, 12.3 23.7, 8.2 9.6 C 28.1 9.3, 21.2 40.5, 35.3 32.1 C 31.1 19.8, 37.5 62.9, 33.9 52.7 C 36.7 71.2, 42.8 52.9, 43.6 55.3 Z" fill="hsl(106, 75%, 59%)" fill-opacity="0.92" stroke="none" stroke-width="5.07"   />
<path d="M 87.2 99.5 C 70.0 91.7, 100.0 42.8, 97.4 56.3 C 99.2 61.2, 67.8 62.5, 57.4 70.8 C 48.3 73.0, 53.8 4.0, 64.9 4.7 C 68.6 18.2, 71.3 0.0, 77.4 0.8 C 60.6 9.1, 73.3 23.9, 82.2 29.5 C 86.0 35.6, 82.2 50.5, 95.8 65.3 C 93.6 80.6, 60.4 0.0, 55.6 0.0 C 63.5 5.0, 25.4 60.1, 34.4 71.4 C 51.3 85.3, 15.7 60.4, 2.2 73.4 C 11.5 90.2, 27.4 25.3, 41.7 35.0 Z" fill="hsl(183, 71%, 60%)" fill-opacity="0.98" stroke="none" stroke-width="3.64"  transform="translate(76.5 97.8) rotate(359.7) scale(1.01 1.31)" />
<rect x="9.1" y="24.0" width="45.8" height="29.2" rx="0" fill="none" fill-opacity="0.39"   transform="translate(57.6 30.6) rotate(172.1) scale(1.06 1.64)" />
<path d="M 88.8 37.8 C 100.0 47.0, 38.4 100.0, 24.0 90.3 C 19.0 91.1, 67.4 63.1, 56.1 65.3 C 48.4 68.9, 91.3 0.0, 93.4 5.6 C 100.0 0.0, 84.4 58.9, 85.8 66.5 C 75.5 50.8, 36.9 13.2, 22.5 28.2 C 22.7 12.3, 16.6 29.5, 16.8 42.2 C 35.7 57.4, 5.4 44.0, 11.3 50.5 C 5.0 60.2, 65.9 14.3, 54.1 0.5 Z" fill="none" fill-opacity="0.64" stroke="hsl(242, 72%, 49%)" stroke-width="3.58"  transform="translate(37.1 42.6) rotate(111.3) scale(0.65 0.58)" />
<circle cx="86.5" cy="81.8" r="14.4" fill="url(#g1)" fill-opacity="0.83"  transform="translate(90.0 60.2) rotate(63.1) scale(1.12 1.34)" />
<rect x="3.8" y="54.0" width="31.9" height="10.6" rx="0.6" fill="hsl(322, 74%, 44%)" fill-opacity="0.69" stroke="hsl(183, 71%, 60%)" stroke-width="3.0"  transform="translate(77.0 43.4) rotate(210.4) scale(0.61 1.64)" />
<path d="M 10.8 82.5 C 11.8 100.0, 52.9 32.2, 39.4 32.0 C 59.3 36.0, 73.1 100.0, 61.5 99.4 C 63.2 100.0, 51.8 16.0, 52.2 12.3 C 49.4 19.5, 88.0 38.4, 76.6 29.3 C 67.9 19.9, 33.1 85.2, 39.4 97.9 C 41.0 100.0, 23.8 66.5, 32.1 72.2 C 25.0 59.6, 18.7 57.8, 21.0 52.0 C 10.1 45.8, 28.7 35.5, 26.3 26.6 C 8.0 43.9, 13.7 41.4, 24.3 43.8 Z" fill="hsl(40, 53%, 69%)" fill-opacity="0.29" stroke="none" stroke-width="4.44"  transform="translate(76.6 81.1) rotate(338.1) scale(1.33 1.73)" />
<path d="M 39.8 7.2 C 22.3 19.7, 45.1 16.1, 32.2 2.9 C 14.7 2.6, 36.6 44.0, 38.9 37.8 C 42.4 29.0, 29.1 46.2, 30.9 31.2 C 21.0 14.8, 5.7 89.0, 16.3 77.4 C 12.2 73.3, 77.5 7.1, 69.5 14.3 C 51.7 23.7, 5.1 31.8, 7.3 44.0 C 23.6 57.4, 43.3 37.5, 55.9 38.1 Z" fill="hsl(183, 71%, 60%)" fill-opacity="0.56" stroke="none" stroke-width="1.41"  transform="translate(0.2 85.2) rotate(126.5) scale(1.69 1.36)" />
<rect x="8.6" y="63.7" width="46.3" height="19.2" rx="0" fill="hsl(183, 71%, 60%)" fill-opacity="0.71"    />
<rect x="25.8" y="5.4" width="49.6" height="10.2" rx="0" fill="hsl(2, 82%, 55%)" fill-opacity="0.40"  filter="url(#f1)" transform="translate(32.1 40.7) rotate(279.6) scale(1.39 0.61)" />
<path d="M 69.6 92.3 C 52.3 77.7, 24.4 56.3, 22.1 63.5 C 12.0 52.5, 25.8 71.7, 17.2 75.7 C 10.6 59.6, 75.3 32.3, 85.0 44.2 C 79.4 54.1, 69.3 13.2, 70.8 13.1 C 69.7 0.0, 99.2 26.4, 84.4 32.1 C 87.3 40.7, 49.6 87.5, 57.9 84.5 C 45.6 72.8, 89.4 97.9, 75.9 87.9 Z" fill="hsl(2, 82%, 55%)" fill-opacity="0.83" stroke="none" stroke-width="4.25"  transform="translate(71.0 27.1) rotate(94.6) scale(1.73 1.14)" />
<path d="M 60.0 29.2 C 74.5 43.8, 100.0 55.4, 98.5 58.2 C 81.2 70.7, 90.8 96.7, 82.7 82.4 C 97.0 68.4, 89.5 63.4, 75.1 55.8 C 55.2 61.5, 20.2 57.9, 16.4 52.1 C 29.3 48.1, 6.0 96.4, 2.5 98.3 C 0.0 80.0, 78.9 18.9, 89.7 29.4 C 86.9 10.3, 98.1 70.2, 84.8 74.3 C 100.0 83.4, 46.9 88.0, 46.6 78.1 C 42.3 82.3, 83.4 20.4, 74.4 34.6 Z" fill="hsl(151, 70%, 62%)" fill-opacity="0.58" stroke="none" stroke-width="4.18" filter="url(#f1)" transform="translate(79.2 58.1) rotate(331.3) scale(1.79 0.96)" />
<circle cx="17.1" cy="88.5" r="2.1" fill="hsl(106, 75%, 59%)" fill-opacity="0.56"  transform="translate(67.9 56.6) rotate(219.0) scale(1.10 1.48)" />
<path d="M 7.0 35.1 C 0.0 51.8, 32.0 42.4, 23.9 39.8 C 8.8 47.6, 65.0 15.5, 66.7 28.3 C 56.1 32.8, 100.0 77.8, 90.6 80.6 C 100.0 95.8, 26.6 87.4, 16.6 80.9 C 4.2 72.3, 39.9 82.2, 49.4 71.4 C 35.5 80.2, 64.4 82.5, 67.0 83.0 C 83.3 100.0, 13.1 48.9, 1.2 49.1 C 11.2 52.4, 63.5 47.3, 60.5 57.5 C 45.4 72.7, 92.0 75.9, 79.6 78.6 C 88.8 79.5, 22.4 40.3, 26.4 42.2 Z" fill="hsl(40, 53%, 69%)" fill-opacity="0.55" stroke="none" stroke-width="2.58"  transform="translate(27.2 90.5) rotate(304.4) scale(0.80 0.87)" />
<path d="M 46.9 36.5 C 54.6 26.9, 59.3 54.1, 60.8 61.1 C 64.4 73.5, 19.3 19.7, 20.8 25.7 C 9.9 13.4, 72.7 68.3, 76.3 81.2 C 81.3 66.7, 0.0 54.5, 4.4 55.8 C 0.0 71.8, 15.9 90.9, 13.8 90.4 C 11.4 78.6, 100.0 17.8, 91.5 3.5 C 98.2 0.0, 85.2 34.9, 83.1 32.7 C 100.0 41.7, 17.9 50.8, 15.5 41.5 C 0.7 24.1, 99.3 5.4, 96.6 15.6 " fill="none" fill-opacity="0.42" stroke="hsl(322, 74%, 44%)" stroke-width="3.62"   />
<path d="M 66.8 88.0 C 56.7 72.7, 78.6 18.1, 88.0 19.8 C 89.9 0.9, 75.2 84.2, 83.1 76.6 C 69.9 70.7, 9.1 36.8, 8.1 46.7 C 0.0 37.4, 93.6 100.0, 91.4 99.9 C 86.8 100.0, 90.8 13.2, 93.6 11.2 C 96.1 30.0, 78.5 40.0, 65.5 54.2 C 50.1 68.0, 27.3 48.6, 33.2 62.4 Z" fill="hsl(144, 86%, 72%)" fill-opacity="0.85" stroke="none" stroke-width="2.67"  transform="translate(15.5 28.6) rotate(144.3) scale(1.80 0.57)" />
<path d="M 60.2 84.8 C 70.3 76.5, 99.4 27.4, 90.1 38.1 C 89.4 42.3, 73.0 28.1, 88.0 15.7 C 100.0 19.5, 46.7 0.0, 45.8 0.5 C 63.1 18.4, 57.1 32.8, 48.2 45.2 C 58.9 50.1, 28.8 11.3, 37.4 7.8 C 17.5 0.0, 97.3 48.8, 97.9 44.6 C 100.0 40.0, 28.2 22.0, 26.2 35.4 C 44.4 16.1, 17.8 8.7, 21.4 15.5 C 38.6 16.9, 9.7 48.1, 7.9 59.8 Z" fill="hsl(106, 75%, 59%)" fill-opacity="0.46" stroke="none" stroke-width="1.15"  transform="translate(31.9 16.8) rotate(140.5) scale(0.69 0.73)" />
<rect x="1.7" y="23.2" width="38.2" height="20.9" rx="1.4" fill="hsl(322, 74%, 44%)" fill-opacity="0.60" stroke="hsl(242, 72%, 49%)" stroke-width="2.9"  transform="translate(83.7 84.8) rotate(302.2) scale(1.31 1.04)" />
<path d="M 81.9 21.3 C 78.8 6.5, 46.9 74.6, 45.2 78.5 C 36.6 90.4, 76.2 88.4, 77.3 76.3 C 89.2 75.3, 8.6 44.9, 6.4 48.1 C 3.2 59.2, 16.1 66.3, 6.7 70.0 C 3.2 60.4, 69.6 40.2, 55.3 52.5 C 38.4 33.4, 37.5 57.6, 43.9 43.8 C 62.7 33.0, 84.0 66.8, 73.0 53.2 C 83.9 40.6, 8.1 26.8, 13.0 37.0 C 14.6 26.6, 95.5 81.8, 99.9 87.2 Z" fill="none" fill-opacity="0.53" stroke="hsl(104, 72%, 65%)" stroke-width="2.15"  transform="translate(38.4 70.5) rotate(287.3) scale(1.12 1.42)" />
<circle cx="53.6" cy="12.6" r="10.9" fill="url(#g2)" fill-opacity="0.57" filter="url(#f1)" transform="translate(43.0 36.6) rotate(205.9) scale(1.55 1.30)" />
<rect x="11.3" y="30.7" width="37.8" height="29.3" rx="18.8" fill="none" fill-opacity="0.90"    />
<circle cx="7.0" cy="90.1" r="0.5" fill="hsl(144, 86%, 72%)" fill-opacity="0.95" filter="url(#f1)" transform="translate(8.4 92.6) rotate(297.7) scale(1.90 1.09)" />
<path d="M 72.6 95.7 C 53.9 92.9, 83.7 59.0, 85.0 49.0 C 73.9 64.2, 38.8 37.4, 42.7 52.2 C 60.6 68.3, 65.3 76.9, 52.9 69.2 C 62.8 80.6, 32.8 67.2, 34.2 64.1 C 38.5 64.6, 0.0 44.0, 4.6 30.3 C 0.0 38.6, 70.8 15.7, 58.9 2.1 Z" fill="hsl(106, 75%, 59%)" fill-opacity="0.87" stroke="none" stroke-width="2.11"  transform="translate(77.5 81.9) rotate(13.8) scale(1.18 0.62)" />
<path d="M 73.2 21.1 C 88.8 6.7, 26.0 0.0, 22.2 3.1 C 29.3 16.6, 28.3 39.6, 16.5 49.6 C 31.2 59.8, 77.3 22.3, 82.7 26.6 C 68.8 26.9, 100.0 64.0, 96.9 67.6 C 77.1 53.6, 29.3 63.7, 43.2 75.6 C 39.4 57.3, 15.6 38.9, 18.6 28.8 C 13.1 34.8, 64.6 97.8, 57.8 96.2 C 55.5 93.3, 88.3 15.8, 91.8 7.8 C 100.0 24.2, 69.1 58.7, 60.9 69.0 C 53.2 81.9, 42.8 17.8, 53.8 31.8 Z" fill="hsl(183, 71%, 60%)" fill-opacity="0.52" stroke="none" stroke-width="1.59"  transform="translate(45.8 34.1) rotate(273.2) scale(1.38 1.71)" />
<path d="M 79.5 43.1 C 98.7 53.7, 0.0 77.7, 3.2 72.6 C 0.0 62.6, 77.1 43.1, 70.7 31.0 C 58.4 20.0, 74.6 100.0, 78.1 90.1 C 93.8 100.0, 12.8 27.7, 2.0 31.0 C 16.8 41.0, 37.4 74.2, 26.7 60.2 C 43.0 75.0, 31.6 79.8, 18.6 82.8 C 34.3 62.8, 77.4 45.7, 90.9 50.4 C 87.0 53.7, 0.0 89.9, 9.6 90.3 C 2.9 85.6, 0.0 79.9, 8.0 87.4 C 13.1 91.1, 39.1 14.6, 25.4 6.6 Z" fill="none" fill-opacity="0.54" stroke="hsl(40, 53%, 69%)" stroke-width="4.51"  transform="translate(24.7 20.9) rotate(124.1) scale(1.69 0.83)" />
<path d="M 75.2 94.4 C 74.8 88.6, 55.5 100.0, 69.4 93.4 C 74.5 97.5, 34.6 60.2, 44.9 57.5 C 25.7 69.7, 74.0 73.0, 68.2 84.5 C 86.3 71.2, 90.8 13.7, 87.0 6.6 C 68.3 20.0, 75.3 22.9, 72.8 18.6 C 84.5 35.8, 35.9 35.4, 44.7 35.2 C 34.8 46.1, 44.8 0.0, 43.9 1.9 C 47.6 12.7, 93.9 32.3, 78.9 29.1 C 62.9 20.1, 100.0 30.1, 92.0 43.5 C 100.0 46.4, 19.2 51.5, 24.1 52.5 Z" fill="none" fill-opacity="0.63" stroke="hsl(183, 71%, 60%)" stroke-width="5.13"  transform="translate(24.5 18.9) rotate(357.0) scale(1.01 1.46)" />
<path d="M 48.0 90.0 C 28.8 97.1, 55.8 44.3, 55.2 32.2 C 61.0 18.3, 59.1 0.0, 71.2 0.4 C 53.1 0.0, 29.0 21.0, 16.8 18.0 C 23.3 22.7, 0.0 11.0, 0.1 7.1 C 17.1 20.3, 0.0 47.6, 2.0 59.6 C 0.0 67.2, 36.1 9.7, 21.3 2.3 C 23.4 7.0, 60.2 65.1, 61.3 70.8 C 59.8 80.7, 23.8 0.0, 25.5 9.4 C 11.6 24.3, 42.7 58.9, 49.1 49.7 C 39.8 56.7, 66.1 32.1, 79.9 21.1 Z" fill="hsl(106, 75%, 59%)" fill-opacity="0.91" stroke="none" stroke-width="3.86"  transform="translate(67.1 8.8) rotate(125.7) scale(1.57 1.93)" />
<rect x="48.6" y="23.7" width="29.9" height="24.4" rx="9.3" fill="none" fill-opacity="0.99" stroke="hsl(290, 83%, 63%)" stroke-width="1.3"  transform="translate(20.4 51.8) rotate(272.7) scale(1.52 0.81)" />
<rect x="25.1" y="47.3" width="47.7" height="13.1" rx="19.3" fill="hsl(104, 72%, 65%)" fill-opacity="0.72"   transform="translate(65.7 91.5) rotate(349.2) scale(1.28 1.38)" />
<circle cx="59.8" cy="58.5" r="2.9" fill="url(#g2)" fill-opacity="0.51"   />
<path d="M 10.2 76.1 C 18.5 78.3, 52.8 63.7, 63.7 49.9 C 68.4 43.1, 71.0 14.8, 65.2 2.9 C 53.3 0.0, 1.0 6.3, 14.6 7.1 C 18.4 24.9, 38.9 0.0, 47.1 0.5 C 43.8 18.2, 38.0 85.0, 31.4 90.7 C 35.6 90.4, 12.1 83.2, 25.3 85.4 C 29.3 68.4, 92.4 80.0, 96.4 89.0 C 100.0 74.8, 52.8 81.1, 58.8 80.8 C 57.1 76.6, 79.2 30.0, 70.4 18.6 Z" fill="hsl(86, 72%, 68%)" fill-opacity="0.41" stroke="none" stroke-width="4.75"  transform="translate(46.6 58.1) rotate(204.8) scale(0.96 0.57)" />
<path d="M 73.0 98.5 C 58.8 96.2, 84.4 76.4, 94.3 89.9 C 84.0 92.9, 59.9 60.9, 49.5 62.8 C 43.7 44.6, 71.3 85.6, 70.5 95.4 C 82.5 76.4, 60.2 36.3, 62.8 32.7 C 67.9 29.7, 77.2 100.0, 62.8 95.5 C 74.7 100.0, 46.0 40.6, 37.4 40.6 C 46.7 40.9, 4.2 100.0, 19.1 94.7 C 26.4 100.0, 76.6 28.7, 90.7 27.8 C 89.2 32.0, 88.4 76.5, 89.7 77.3 C 100.0 71.3, 88.0 59.9, 79.7 63.3 Z" fill="none" fill-opacity="0.57" stroke="hsl(290, 83%, 63%)" stroke-width="3.27"  transform="translate(99.1 62.0) rotate(299.6) scale(1.15 1.49)" />
<path d="M 30.6 28.2 C 28.9 14.4, 87.7 96.9, 82.5 92.2 C 83.1 100.0, 37.9 29.9, 52.0 24.1 C 70.0 24.8, 40.2 92.3, 38.9 77.9 C 20.4 71.3, 25.0 22.2, 20.8 8.5 C 7.8 5.1, 38.9 70.7, 37.9 75.5 C 30.9 72.8, 57.0 10.4, 60.7 8.6 C 42.0 14.0, 62.3 36.0, 55.0 44.2 C 58.1 36.4, 72.1 74.9, 71.9 82.0 C 77.6 83.9, 3.7 74.3, 14.5 75.2 Z" fill="none" fill-opacity="0.52" stroke="hsl(151, 70%, 62%)" stroke-width="3.31"   />
<path d="M 79.8 63.2 C 66.2 78.6, 86.9 23.5, 84.1 33.6 C 75.6 33.8, 78.7 75.3, 80.8 86.7 C 88.9 83.7, 63.8 91.8, 57.5 99.7 C 57.9 98.7, 42.5 45.3, 34.4 45.3 C 26.6 40.3, 56.5 20.0, 49.1 31.0 C 44.7 40.3, 88.1 99.0, 75.8 91.1 C 76.1 100.0, 90.8 77.4, 75.8 66.4 C 85.3 68.7, 100.0 30.7, 96.0 40.7 C 78.9 50.4, 82.9 66.4, 85.2 63.2 C 73.6 79.4, 96.0 13.1, 96.6 7.4 Z" fill="none" fill-opacity="0.57" stroke="hsl(86, 72%, 68%)" stroke-width="4.22"  transform="translate(15.0 91.2) rotate(67.3) scale(1.76 1.91)" />
<rect x="18.1" y="54.9" width="21.5" height="14.5" rx="0" fill="none" fill-opacity="0.26" stroke="hsl(144, 86%, 72%)" stroke-width="4.5"   />
<circle cx="47.5" cy="10.2" r="15.3" fill="hsl(104, 72%, 65%)" fill-opacity="0.62"  transform="translate(33.1 80.3) rotate(70.5) scale(1.46 0.90)" />
<circle cx="1.0" cy="0.3" r="14.4" fill="hsl(144, 86%, 72%)" fill-opacity="0.70"   />
<circle cx="16.4" cy="81.6" r="17.4" fill="hsl(86, 72%, 68%)" fill-opacity="0.92"  transform="translate(76.9 38.9) rotate(134.4) scale(0.59 1.82)" />
<rect x="51.1" y="27.8" width="23.2" height="35.7" rx="6.6" fill="none" fill-opacity="0.41" stroke="hsl(104, 72%, 65%)" stroke-width="1.0"   />
<circle cx="54.6" cy="77.6" r="1.6" fill="url(#g2)" fill-opacity="0.97"  transform="translate(97.1 81.0) rotate(208.4) scale(0.94 1.14)" />
<rect x="14.2" y="24.5" width="23.5" height="14.8" rx="13.6" fill="none" fill-opacity="0.72" stroke="hsl(242, 72%, 49%)" stroke-width="1.2"  transform="translate(6.9 59.0) rotate(282.7) scale(1.24 1.39)" />
<path d="M 29.8 81.0 C 26.8 87.3, 30.0 85.2, 37.6 74.7 C 56.1 68.0, 89.9 1.7, 97.4 14.0 C 100.0 10.4, 29.6 100.0, 28.8 97.4 C 19.2 93.1, 60.2 8.1, 49.7 10.4 C 51.3 14.5, 98.1 48.6, 95.4 40.6 C 77.5 56.9, 77.8 41.1, 80.1 48.9 C 99.8 46.9, 82.5 28.5, 72.5 24.5 Z" fill="hsl(151, 70%, 62%)" fill-opacity="0.33" stroke="none" stroke-width="4.37"  transform="translate(43.0 99.5) rotate(110.4) scale(0.59 0.85)" />
<rect x="39.2" y="69.3" width="36.0" height="29.8" rx="0" fill="hsl(183, 71%, 60%)" fill-opacity="0.91"    />
<rect x="5.5" y="22.6" width="20.9" height="24.5" rx="0" fill="none" fill-opacity="0.28"   transform="translate(43.3 69.2) rotate(204.1) scale(0.58 1.13)" />
<path d="M 24.6 28.5 C 33.5 22.5, 100.0 32.8, 96.0 42.1 C 95.6 41.2, 100.0 72.0, 98.1 86.2 C 89.7 81.1, 57.3 43.4, 49.4 41.1 C 45.4 56.6, 81.9 79.6, 70.0 80.0 C 70.7 71.2, 37.9 52.5, 47.2 65.6 C 53.7 56.8, 71.9 77.2, 77.2 74.9 C 62.1 65.8, 8.8 88.5, 11.4 78.6 Z" fill="hsl(2, 82%, 55%)" fill-opacity="0.65" stroke="none" stroke-width="1.31"  transform="translate(13.1 79.6) rotate(192.1) scale(0.82 1.61)" />
<rect x="27.4" y="39.1" width="44.8" height="18.8" rx="0" fill="none" fill-opacity="0.31"  filter="url(#f1)" transform="translate(69.0 5.7) rotate(78.4) scale(1.66 1.73)" />
<circle cx="96.9" cy="37.5" r="2.4" fill="url(#g1)" fill-opacity="0.46"  transform="translate(77.3 65.6) rotate(136.8) scale(1.58 0.89)" />
<path d="M 2.7 34.9 C 0.0 22.4, 77.0 100.0, 84.9 99.2 C 73.1 81.4, 16.5 68.1, 8.6 82.0 C 20.6 94.0, 0.0 28.9, 0.1 26.0 C 0.0 7.9, 45.4 18.3, 46.9 21.8 C 47.1 18.9, 12.2 78.5, 19.5 76.9 C 27.4 87.0, 35.6 62.4, 41.6 68.8 C 54.0 84.9, 0.0 0.0, 3.3 5.7 C 11.5 7.8, 94.1 74.0, 81.5 84.1 C 90.7 90.1, 29.3 85.2, 21.0 79.1 C 35.1 98.0, 36.7 36.7, 45.7 22.3 Z" fill="none" fill-opacity="0.93" stroke="hsl(40, 53%, 69%)" stroke-width="2.00"   />
<path d="M 82.0 96.7 C 86.8 100.0, 33.4 71.8, 43.9 58.1 C 42.4 39.6, 96.4 0.0, 85.5 0.6 C 72.3 14.0, 18.8 62.3, 8.6 70.2 C 0.0 57.8, 69.7 47.4, 62.2 33.5 C 80.9 23.7, 1.1 33.4, 0.9 37.7 C 0.0 17.9, 9.5 38.6, 17.7 35.3 C 29.6 33.3, 83.9 15.1, 86.8 16.5 C 71.4 25.3, 40.8 36.0, 45.0 28.0 C 31.2 30.9, 35.0 77.8, 31.1 82.5 C 13.2 71.9, 46.1 84.6, 56.3 76.3 " fill="hsl(144, 86%, 72%)" fill-opacity="0.92" stroke="none" stroke-width="1.63" filter="url(#f1)" transform="translate(51.9 41.3) rotate(235.8) scale(1.14 1.70)" />
<path d="M 42.4 2.7 C 32.9 18.5, 73.7 100.0, 66.4 89.8 C 60.1 95.1, 74.3 80.0, 62.2 86.9 C 78.8 100.0, 71.7 47.3, 72.3 60.2 C 63.1 56.5, 20.0 75.1, 11.6 77.6 C 18.7 75.8, 84.7 85.1, 82.0 73.3 C 78.5 87.9, 33.8 75.0, 30.4 70.4 C 37.9 76.2, 0.0 32.9, 3.0 23.3 C 11.3 3.3, 0.0 35.0, 1.9 34.3 Z" fill="hsl(151, 70%, 62%)" fill-opacity="0.59" stroke="none" stroke-width="2.63" filter="url(#f1)" transform="translate(84.1 21.5) rotate(332.7) scale(1.21 1.88)" />
<rect x="18.3" y="67.9" width="20.8" height="23.1" rx="8.3" fill="hsl(106, 75%, 59%)" fill-opacity="0.83"  filter="url(#f1)"  />
<path d="M 65.4 37.6 C 85.3 44.0, 12.2 81.1, 16.9 81.3 C 19.0 68.1, 42.3 28.3, 34.7 18.9 C 40.6 0.2, 28.0 1.0, 15.3 3.5 C 22.4 3.0, 83.8 100.0, 95.6 90.5 C 82.5 88.0, 44.8 81.7, 37.2 73.9 C 51.5 78.8, 36.9 82.3, 29.6 81.1 Z" fill="none" fill-opacity="0.46" stroke="hsl(144, 86%, 72%)" stroke-width="1.12" filter="url(#f1)"  />
<rect x="15.0" y="47.4" width="43.5" height="33.4" rx="0" fill="none" fill-opacity="0.23"   transform="translate(12.5 99.7) rotate(200.4) scale(0.58 1.46)" />
<rect x="15.7" y="64.2" width="38.7" height="30.6" rx="6.8" fill="hsl(106, 75%, 59%)" fill-opacity="0.24" stroke="hsl(322, 74%, 44%)" stroke-width="1.6"  transform="translate(69.5 37.8) rotate(162.6) scale(1.60 1.02)" />
<path d="M 40.2 86.7 C 59.6 85.6, 21.0 15.5, 24.5 22.5 C 27.5 28.8, 41.1 70.0, 42.7 73.8 C 49.2 58.4, 57.6 19.5, 43.1 28.6 C 41.8 44.7, 21.5 53.4, 17.9 62.7 C 5.4 46.5, 26.9 32.2, 27.8 26.8 C 43.9 39.3, 36.3 79.0, 38.6 82.9 C 18.7 64.7, 19.8 0.0, 7.6 0.3 Z" fill="hsl(144, 86%, 72%)" fill-opacity="0.59" stroke="none" stroke-width="3.05" filter="url(#f1)" transform="translate(32.3 17.9) rotate(194.3) scale(0.87 1.77)" />
<path d="M 46.7 50.0 C 31.1 57.1, 57.8 17.0, 58.4 9.0 C 55.1 27.6, 23.2 66.2, 35.8 58.0 C 50.9 71.2, 21.5 59.9, 15.0 72.1 C 34.3 80.9, 48.0 48.3, 55.6 41.5 C 53.0 59.4, 100.0 4.2, 98.7 9.7 C 87.5 29.1, 90.7 66.7, 83.5 68.5 C 81.6 49.9, 9.9 14.6, 2.4 16.8 Z" fill="none" fill-opacity="0.60" stroke="hsl(144, 86%, 72%)" stroke-width="4.25" filter="url(#f1)"  />
<rect x="47.8" y="20.7" width="34.9" height="36.9" rx="9.7" fill="none" fill-opacity="0.20"   transform="translate(56.2 53.1) rotate(323.9) scale(0.82 1.31)" />
<path d="M 58.8 3.9 C 43.1 0.0, 49.5 21.3, 60.7 29.4 C 74.2 36.9, 94.4 55.0, 87.7 53.9 C 100.0 57.5, 23.7 37.5, 28.8 44.8 C 14.5 35.4, 35.1 52.6, 40.5 45.2 C 58.1 57.4, 57.1 0.0, 49.6 5.4 C 55.4 21.6, 39.9 89.8, 27.1 83.6 C 23.5 79.7, 18.4 85.3, 17.3 89.2 Z" fill="hsl(106, 75%, 59%)" fill-opacity="0.65" stroke="none" stroke-width="4.85"   />
<circle cx="71.6" cy="9.6" r="9.3" fill="hsl(290, 83%, 63%)" fill-opacity="0.53"   />
<rect x="2.6" y="14.0" width="23.8" height="16.9" rx="8.3" fill="none" fill-opacity="0.89"   transform="translate(51.2 3.0) rotate(137.8) scale(1.25 1.53)" />
<path d="M 57.7 23.0 C 47.5 24.1, 45.7 0.0, 39.1 4.0 C 22.7 0.0, 37.6 27.0, 49.3 16.1 C 55.8 17.3, 100.0 46.1, 94.7 38.7 C 93.6 43.0, 18.3 0.0, 18.0 8.8 C 20.5 5.3, 100.0 57.5, 94.9 50.6 C 86.5 69.8, 25.7 80.4, 18.0 70.6 C 24.1 57.9, 0.5 37.3, 14.2 23.4 C 21.2 8.8, 13.9 69.4, 2.7 76.5 Z" fill="none" fill-opacity="0.70" stroke="hsl(40, 53%, 69%)" stroke-width="1.02"  transform="translate(90.0 64.8) rotate(283.7) scale(1.19 1.77)" />
<path d="M 88.8 25.8 C 93.1 43.3, 23.9 23.9, 35.8 13.0 C 54.5 17.1, 95.8 19.4, 93.6 17.2 C 96.2 0.9, 71.7 82.3, 75.9 81.5 C 93.1 62.0, 56.9 70.4, 65.3 79.7 C 60.2 60.0, 22.0 21.9, 24.8 17.0 C 8.1 27.4, 30.7 75.5, 36.8 85.8 C 23.7 83.9, 68.9 69.8, 65.3 84.3 C 53.2 78.0, 0.0 59.9, 1.6 51.1 " fill="hsl(104, 72%, 65%)" fill-opacity="0.87" stroke="none" stroke-width="2.98"  transform="translate(18.7 53.8) rotate(36.8) scale(1.17 1.07)" />
<rect x="67.8" y="3.5" width="31.3" height="32.7" rx="10.1" fill="none" fill-opacity="0.40"   transform="translate(65.7 75.3) rotate(326.3) scale(1.69 0.70)" />
<path d="M 11.8 3.3 C 7.6 14.4, 33.3 23.5, 42.8 28.3 C 36.9 28.9, 89.8 28.4, 97.3 20.2 C 100.0 16.8, 80.5 44.1, 85.5 40.9 C 73.0 56.4, 38.2 32.5, 28.4 40.2 C 13.6 44.5, 3.3 99.0, 17.7 90.8 C 12.3 72.0, 95.7 5.2, 99.9 10.5 C 100.0 0.0, 67.0 39.5, 53.6 48.3 C 57.5 56.6, 26.7 37.5, 36.3 23.4 Z" fill="hsl(322, 74%, 44%)" fill-opacity="0.46" stroke="none" stroke-width="4.74" filter="url(#f1)" transform="translate(22.5 40.3) rotate(320.3) scale(0.92 1.77)" />
<path d="M 0.6 34.5 C 0.0 30.3, 16.5 7.4, 21.6 0.9 C 29.6 12.4, 57.9 19.5, 51.5 14.9 C 35.5 24.2, 43.8 100.0, 33.8 98.3 C 17.0 100.0, 19.3 86.5, 7.8 89.5 C 25.8 81.6, 82.1 44.0, 68.2 54.9 C 75.4 56.8, 11.7 71.6, 17.8 68.6 C 19.3 76.9, 63.1 100.0, 70.8 99.7 C 60.0 96.6, 55.3 32.6, 51.2 40.2 Z" fill="none" fill-opacity="0.80" stroke="hsl(151, 70%, 62%)" stroke-width="0.83"  transform="translate(42.7 51.2) rotate(58.8) scale(0.83 0.97)" />
<path d="M 36.2 96.3 C 46.7 77.7, 77.2 51.3, 63.2 55.4 C 55.3 58.3, 0.0 15.7, 1.5 9.9 C 0.0 4.0, 32.0 25.7, 23.2 39.8 C 13.8 48.0, 18.3 17.2, 19.3 23.4 C 18.7 22.4, 65.9 88.7, 71.0 88.0 C 54.9 98.1, 100.0 87.9, 88.6 85.4 C 88.2 100.0, 56.9 0.0, 42.0 12.5 C 55.5 11.4, 93.6 36.2, 92.8 41.7 Z" fill="hsl(151, 70%, 62%)" fill-opacity="0.65" stroke="none" stroke-width="5.09" filter="url(#f1)" transform="translate(65.3 19.0) rotate(321.6) scale(1.26 0.56)" />
<path d="M 72.3 57.3 C 89.1 65.7, 15.7 79.6, 26.6 83.4 C 17.5 70.1, 55.3 43.1, 61.5 53.9 C 66.9 42.2, 41.0 90.0, 38.8 78.7 C 56.8 72.7, 75.8 88.6, 72.2 91.8 C 62.9 100.0, 35.3 0.0, 22.7 5.8 C 10.8 7.0, 37.6 16.3, 24.1 29.0 C 37.9 15.9, 52.4 59.6, 52.6 64.5 C 72.1 62.7, 80.5 18.2, 80.1 11.0 Z" fill="none" fill-opacity="0.79" stroke="hsl(86, 72%, 68%)" stroke-width="2.88"   />
<rect x="22.9" y="24.5" width="33.9" height="33.6" rx="16.5" fill="hsl(40, 53%, 69%)" fill-opacity="0.73"   transform="translate(84.0 91.6) rotate(235.5) scale(0.61 1.11)" />
<rect x="6.9" y="60.8" width="38.3" height="31.0" rx="3.9" fill="hsl(144, 86%, 72%)" fill-opacity="0.39"   transform="translate(28.8 64.1) rotate(179.2) scale(1.72 1.22)" />
<path d="M 44.3 10.5 C 61.6 27.0, 86.5 0.0, 90.0 3.1 C 73.3 15.6, 88.4 26.5, 83.7 15.4 C 92.3 19.1, 26.1 37.3, 39.1 29.0 C 37.2 28.7, 2.4 79.5, 4.2 92.4 C 2.1 82.2, 58.6 38.3, 47.1 44.3 C 64.2 44.7, 74.3 28.1, 63.3 19.5 C 54.1 16.5, 81.5 47.3, 93.4 45.7 C 77.1 28.6, 38.3 31.1, 50.7 29.4 C 31.2 25.4, 17.9 4.5, 3.1 3.2 C 14.7 3.0, 7.7 22.6, 20.9 9.2 Z" fill="hsl(144, 86%, 72%)" fill-opacity="0.70" stroke="none" stroke-width="3.62"   />
<rect x="3.6" y="37.3" width="29.7" height="18.7" rx="0" fill="hsl(290, 83%, 63%)" fill-opacity="0.73"    />
<rect x="21.8" y="24.3" width="48.4" height="21.2" rx="18.6" fill="hsl(322, 74%, 44%)" fill-opacity="0.52"   transform="translate(43.0 62.4) rotate(67.1) scale(0.69 0.74)" />
<path d="M 1.3 7.9 C 3.4 14.0, 49.7 20.6, 43.2 13.3 C 48.9 8.5, 89.6 45.9, 90.9 53.6 C 100.0 52.1, 0.0 0.0, 0.5 7.9 C 2.7 0.0, 70.3 45.6, 61.2 32.8 C 55.4 20.5, 97.0 62.0, 83.5 59.4 C 68.3 52.6, 100.0 88.8, 96.9 79.0 Z" fill="hsl(322, 74%, 44%)" fill-opacity="0.97" stroke="none" stroke-width="1.90"  transform="translate(19.7 76.1) rotate(190.4) scale(0.98 0.81)" />
<circle cx="60.8" cy="80.3" r="6.4" fill="url(#g0)" fill-opacity="0.87"   />
<circle cx="18.1" cy="83.9" r="5.5" fill="url(#g2)" fill-opacity="0.83"  transform="translate(41.9 63.8) rotate(189.4) scale(1.61 1.26)" />
<rect x="14.2" y="37.2" width="23.9" height="28.3" rx="15.4" fill="none" fill-opacity="0.66"   transform="translate(20.7 15.9) rotate(119.3) scale(1.57 1.87)" />
<path d="M 63.3 12.8 C 45.4 1.8, 85.0 65.1, 83.3 73.3 C 74.6 63.9, 0.0 19.6, 10.1 25.3 C 30.1 32.4, 40.0 89.5, 50.0 99.4 C 42.6 100.0, 12.5 15.5, 0.1 26.3 C 0.5 42.2, 20.1 82.6, 29.9 92.4 C 48.5 100.0, 45.3 25.3, 37.5 22.0 C 44.2 20.4, 78.3 30.3, 65.5 36.7 Z" fill="hsl(2, 82%, 55%)" fill-opacity="0.59" stroke="none" stroke-width="1.10"  transform="translate(46.3 66.5) rotate(62.0) scale(1.66 1.27)" />
<path d="M 51.6 18.0 C 58.8 0.0, 82.7 50.0, 77.1 57.9 C 94.8 48.4, 92.5 77.4, 92.2 82.3 C 100.0 64.9, 97.7 37.0, 89.8 40.7 C 100.0 56.5, 33.5 82.4, 44.8 80.0 C 55.4 65.1, 84.8 63.5, 87.1 56.6 C 75.8 56.6, 65.9 35.0, 71.0 21.4 C 77.2 9.3, 78.6 23.2, 85.1 28.8 C 65.3 9.6, 27.9 100.0, 35.2 99.6 Z" fill="none" fill-opacity="0.58" stroke="hsl(183, 71%, 60%)" stroke-width="3.72"  transform="translate(19.6 49.0) rotate(172.4) scale(1.22 1.89)" />
<path d="M 91.2 73.0 C 76.1 57.9, 85.4 92.3, 93.9 96.0 C 86.0 84.2, 60.5 65.0, 54.1 65.9 C 62.6 51.1, 49.1 31.4, 35.6 35.4 C 20.9 27.4, 77.4 15.3, 66.0 3.5 C 51.0 6.3, 0.0 47.2, 0.3 38.7 C 11.8 24.9, 34.5 35.5, 48.3 40.5 C 37.3 38.1, 44.8 93.9, 54.6 80.1 C 62.2 82.7, 55.9 43.6, 45.5 46.1 C 43.4 45.0, 90.3 14.9, 87.3 14.3 C 78.6 23.8, 48.8 15.9, 58.6 10.9 Z" fill="hsl(290, 83%, 63%)" fill-opacity="0.86" stroke="none" stroke-width="2.47"  transform="translate(78.3 77.3) rotate(263.7) scale(0.93 1.46)" />
<rect x="37.0" y="18.0" width="43.8" height="31.4" rx="0" fill="hsl(40, 53%, 69%)" fill-opacity="0.35" stroke="hsl(40, 53%, 69%)" stroke-width="4.2"  transform="translate(89.6 97.4) rotate(213.2) scale(1.54 0.78)" />
<rect x="55.2" y="6.7" width="42.8" height="37.1" rx="0" fill="none" fill-opacity="0.23" stroke="hsl(104, 72%, 65%)" stroke-width="1.4"  transform="translate(55.2 66.3) rotate(104.7) scale(1.87 0.53)" />
<path d="M 60.5 75.6 C 46.0 65.8, 59.9 42.4, 50.6 44.7 C 45.7 37.5, 10.8 37.1, 12.6 47.8 C 23.5 47.1, 100.0 46.7, 99.4 33.2 C 100.0 40.9, 0.4 100.0, 8.8 97.8 C 1.8 87.9, 58.1 68.9, 46.7 61.7 C 65.7 74.7, 15.2 44.6, 25.1 53.5 Z" fill="none" fill-opacity="0.99" stroke="hsl(242, 72%, 49%)" stroke-width="4.81" filter="url(#f1)" transform="translate(45.5 6.5) rotate(140.3) scale(0.99 1.73)" />
<path d="M 76.5 32.9 C 71.7 39.8, 68.7 74.7, 53.9 87.4 C 36.6 78.1, 97.2 18.5, 86.4 25.8 C 69.8 11.3, 100.0 100.0, 96.3 94.6 C 100.0 88.2, 77.7 6.3, 75.3 6.8 C 72.8 6.7, 48.6 33.4, 61.4 38.7 C 47.2 35.6, 100.0 65.7, 96.5 80.0 Z" fill="none" fill-opacity="0.37" stroke="hsl(151, 70%, 62%)" stroke-width="2.79"   />
<rect x="14.1" y="68.9" width="42.1" height="20.4" rx="0" fill="none" fill-opacity="0.88"   transform="translate(20.2 22.9) rotate(254.1) scale(1.75 1.31)" />
<g opacity="0.068">
<rect x="0" y="0" width="1" height="100" fill="black" />
<rect x="22" y="0" width="1" height="100" fill="black" />
<rect x="44" y="0" width="1" height="100" fill="black" />
<rect x="66" y="0" width="1" height="100" fill="black" />
<rect x="88" y="0" width="1" height="100" fill="black" />
<rect x="0" y="0" width="100" height="1" fill="black" />
<rect x="0" y="22" width="100" height="1" fill="black" />
<rect x="0" y="44" width="100" height="1" fill="black" />
<rect x="0" y="66" width="100" height="1" fill="black" />
<rect x="0" y="88" width="100" height="1" fill="black" />
</g>

</svg>
