<?xml version="1.0" encoding="UTF-8"?>
<svg xmlns="http://www.w3.org/2000/svg" width="100" height="100" viewBox="0 0 100 100">
<defs>
<linearGradient id="g0" x1="0%" y1="0%" x2="100%" y2="100%">
<stop offset="0.0%" stop-color="hsl(106, 75%, 59%)" />
<stop offset="33.3%" stop-color="hsl(183, 71%, 60%)" />
<stop offset="66.7%" stop-color="hsl(242, 72%, 49%)" />
<stop offset="100.0%" stop-color="hsl(322, 74%, 44%)" />
</linearGradient>
<linearGradient id="g1" x1="0%" y1="0%" x2="100%" y2="100%">
<stop offset="0.0%" stop-color="hsl(290, 83%, 63%)" />
<stop offset="33.3%" stop-color="hsl(2, 82%, 55%)" />
<stop offset="66.7%" stop-color="hsl(86, 72%, 68%)" />
<stop offset="100.0%" stop-color="hsl(83, 65%, 44%)" />
</linearGradient>
<linearGradient id="g2" x1="0%" y1="0%" x2="100%" y2="100%">
<stop offset="0.0%" stop-color="hsl(40, 53%, 69%)" />
<stop offset="33.3%" stop-color="hsl(104, 72%, 65%)" />
<stop offset="66.7%" stop-color="hsl(144, 86%, 72%)" />
<stop offset="100.0%" stop-color="hsl(151, 70%, 62%)" />
</linearGradient>
</defs>

<circle cx="81.3" cy="94.5" r="0.3" fill="hsl(242, 72%, 49%)" fill-opacity="0.42"  transform="translate(73.8 92.5) rotate(178.4) scale(1.22 0.86)" />
<rect x="8.2" y="15.4" width="42.7" height="13.3" rx="0" fill="hsl(106, 75%, 59%)" fill-opacity="0.43"    />
<path d="M 55.8 75.9 C 60.0 85.3, 22.4 33.2, 32.9 46.3 C 19.2 55.4, 89.2 10.4, 84.6 20.7 C 79.6 8.0, 65.3 77.7, 73.3 74.3 C 74.9 92.0, 3.3 41.8, 2.2 29.5 " fill="hsl(104, 72%, 65%)" fill-opacity="0.27" stroke="none" stroke-width="1.21"   />
<rect x="55.6" y="78.7" width="35.2" height="19.3" rx="7.2" fill="none" fill-opacity="0.28"    />
<path d="M 20.1 83.3 C 9.0 70.0, 54.6 20.4, 44.4 30.2 C 48.8 12.0, 16.0 68.7, 9.1 59.4 C 24.0 45.0, 72.5 18.9, 78.1 23.5 C 62.8 6.9, 26.0 87.7, 21.5 99.4 C 39.1 83.5, 32.5 45.9, 31.4 34.7 C 30.1 29.3, 100.0 37.0, 93.1 25.0 C 92.8 21.6, 37.7 68.4, 45.2 68.3 " fill="none" fill-opacity="0.54" stroke="hsl(40, 53%, 69%)" stroke-width="0.82"   />
<path d="M 88.9 61.1 C 71.2 49.8, 88.6 35.7, 87.8 41.0 C 76.4 58.1, 56.7 23.6, 62.3 10.7 C 72.5 16.1, 7.2 0.0, 0.8 10.7 C 1.2 9.8, 14.0 32.6, 16.7 40.0 C 31.1 51.8, 0.1 31.8, 14.1 32.0 C 13.1 44.1, 100.0 51.6, 91.3 51.1 " fill="hsl(106, 75%, 59%)" fill-opacity="0.98" stroke="none" stroke-width="1.11"   />
<path d="M 63.9 40.4 C 70.1 23.4, 47.6 13.2, 61.4 20.6 C 73.2 33.0, 36.1 22.7, 33.2 26.4 C 43.6 12.2, 26.2 49.0, 30.7 34.6 C 37.5 43.4, 49.7 92.0, 58.0 91.3 C 57.8 81.4, 21.1 95.9, 23.5 99.4 C 6.7 100.0, 61.6 86.0, 54.2 81.0 C 74.1 88.9, 57.1 71.4, 53.9 58.5 " fill="hsl(86, 72%, 68%)" fill-opacity="0.99" stroke="none" stroke-width="1.29"  transform="translate(78.0 68.5) rotate(332.3) scale(1.66 1.17)" />
<rect x="57.6" y="14.1" width="35.5" height="39.1" rx="0" fill="none" fill-opacity="0.92"   transform="translate(35.2 55.1) rotate(283.1) scale(0.78 1.27)" />
<circle cx="62.9" cy="89.3" r="1.4" fill="hsl(290, 83%, 63%)" fill-opacity="0.56"   />
<path d="M 29.0 65.4 C 18.5 55.4, 11.4 5.3, 22.2 10.5 C 38.7 0.0, 89.6 71.2, 82.5 81.1 C 92.2 92.5, 68.1 88.9, 70.3 87.9 C 65.3 80.6, 34.7 32.0, 36.1 33.7 C 37.6 46.0, 45.4 31.6, 34.2 17.7 C 33.2 25.8, 33.0 49.0, 37.2 50.1 " fill="hsl(83, 65%, 44%)" fill-opacity="0.31" stroke="none" stroke-width="0.92"   />
<path d="M 65.9 25.9 C 69.3 35.8, 10.9 76.0, 14.7 83.8 C 9.8 96.1, 28.0 0.0, 18.0 9.0 C 12.1 0.0, 80.0 35.3, 75.2 38.5 C 58.1 54.7, 11.5 0.0, 25.2 9.4 Z" fill="none" fill-opacity="0.95" stroke="hsl(104, 72%, 65%)" stroke-width="0.82"   />
<rect x="4.4" y="3.1" width="32.8" height="16.6" rx="17.6" fill="hsl(290, 83%, 63%)" fill-opacity="0.36"    />
<rect x="54.1" y="4.3" width="26.5" height="16.5" rx="0" fill="none" fill-opacity="0.51"    />
</svg>
