<?xml version="1.0" encoding="UTF-8"?>
<svg xmlns="http://www.w3.org/2000/svg" width="100" height="100" viewBox="0 0 100 100">
<defs>
<linearGradient id="g0" x1="0%" y1="0%" x2="100%" y2="100%">
<stop offset="0.0%" stop-color="hsl(106, 75%, 59%)" />
<stop offset="33.3%" stop-color="hsl(183, 71%, 60%)" />
<stop offset="66.7%" stop-color="hsl(242, 72%, 49%)" />
<stop offset="100.0%" stop-color="hsl(322, 74%, 44%)" />
</linearGradient>
<linearGradient id="g1" x1="0%" y1="0%" x2="100%" y2="100%">
<stop offset="0.0%" stop-color="hsl(290, 83%, 63%)" />
<stop offset="33.3%" stop-color="hsl(2, 82%, 55%)" />
<stop offset="66.7%" stop-color="hsl(86, 72%, 68%)" />
<stop offset="100.0%" stop-color="hsl(83, 65%, 44%)" />
</linearGradient>
<linearGradient id="g2" x1="0%" y1="0%" x2="100%" y2="100%">
<stop offset="0.0%" stop-color="hsl(40, 53%, 69%)" />
<stop offset="33.3%" stop-color="hsl(104, 72%, 65%)" />
<stop offset="66.7%" stop-color="hsl(144, 86%, 72%)" />
<stop offset="100.0%" stop-color="hsl(151, 70%, 62%)" />
</linearGradient>
<filter id="f1" x="-20%" y="-20%" width="140%" height="140%">
  <feGaussianBlur stdDeviation="2.3753145652652936" />
</filter>

</defs>

<rect x="45.1" y="19.6" width="23.7" height="39.2" rx="0" fill="hsl(104, 72%, 65%)" fill-opacity="0.42" stroke="hsl(104, 72%, 65%)" stroke-width="3.6"  transform="translate(31.7 55.9) rotate(54.7) scale(1.73 0.61)" />
<path d="M 65.4 7.4 C 80.7 2.6, 76.8 100.0, 67.8 95.6 C 82.3 88.5, 74.5 84.0, 80.0 81.7 C 89.6 79.4, 24.8 41.9, 29.2 47.6 C 13.8 47.5, 23.4 61.2, 36.1 67.5 C 40.4 62.2, 30.2 76.8, 23.4 81.6 C 7.1 69.9, 18.3 29.6, 24.9 27.8 C 42.3 26.1, 91.6 79.9, 95.8 71.5 C 100.0 60.8, 17.3 64.9, 17.2 50.2 Z" fill="hsl(2, 82%, 55%)" fill-opacity="0.65" stroke="none" stroke-width="2.28"  transform="translate(13.0 78.2) rotate(335.0) scale(1.62 1.19)" />
<path d="M 64.7 96.9 C 76.5 87.3, 39.7 36.3, 49.3 23.2 C 52.1 9.9, 75.1 46.6, 75.9 48.9 C 58.6 41.6, 35.3 44.6, 37.5 47.8 C 51.6 58.0, 24.4 89.0, 34.5 75.3 C 34.8 90.3, 13.1 19.8, 2.4 24.1 C 17.4 8.5, 57.7 39.0, 57.3 29.1 C 70.2 14.1, 11.5 39.6, 26.0 30.6 C 37.0 22.0, 58.2 57.9, 65.0 72.0 C 51.4 69.5, 42.1 24.2, 54.3 14.4 " fill="none" fill-opacity="0.85" stroke="hsl(83, 65%, 44%)" stroke-width="3.74"  transform="translate(20.1 48.7) rotate(224.5) scale(1.08 1.70)" />
<rect x="39.8" y="38.1" width="48.9" height="22.2" rx="0" fill="none" fill-opacity="0.35"   transform="translate(27.8 15.9) rotate(133.1) scale(1.60 1.97)" />
<path d="M 85.8 75.2 C 99.1 93.5, 51.8 64.2, 57.9 65.1 C 75.9 61.0, 34.5 66.8, 39.3 59.4 C 30.5 49.7, 45.5 50.9, 45.2 56.5 C 45.6 53.1, 79.0 61.2, 76.2 74.0 C 69.1 86.3, 99.6 76.4, 97.8 90.8 C 95.0 100.0, 20.3 32.6, 15.4 31.4 C 32.5 41.8, 53.5 65.7, 43.9 66.4 C 25.7 70.7, 31.3 51.8, 21.4 40.4 Z" fill="none" fill-opacity="0.97" stroke="hsl(242, 72%, 49%)" stroke-width="1.32"  transform="translate(95.4 74.1) rotate(83.8) scale(1.48 1.43)" />
<rect x="56.1" y="62.7" width="37.4" height="33.8" rx="7.4" fill="hsl(2, 82%, 55%)" fill-opacity="0.45"   transform="translate(6.6 98.4) rotate(89.2) scale(1.42 0.63)" />
<path d="M 25.6 78.4 C 30.2 66.0, 79.7 2.3, 89.1 12.0 C 79.2 22.6, 66.5 36.8, 52.2 30.9 C 47.1 49.5, 73.4 0.0, 65.7 11.2 C 64.0 11.0, 29.9 89.0, 32.1 91.9 C 42.2 100.0, 79.5 98.1, 89.2 86.3 C 72.9 97.4, 27.6 40.9, 23.6 39.3 C 15.4 35.6, 63.7 66.8, 63.2 53.1 C 59.1 46.3, 91.9 43.7, 99.0 40.8 C 79.9 25.0, 95.0 83.1, 92.1 90.0 C 94.3 85.0, 25.6 8.3, 36.7 15.6 Z" fill="none" fill-opacity="0.54" stroke="hsl(40, 53%, 69%)" stroke-width="4.99"  transform="translate(83.8 39.1) rotate(162.1) scale(1.58 1.40)" />
<circle cx="17.5" cy="17.3" r="2.6" fill="url(#g2)" fill-opacity="0.55"  transform="translate(65.9 25.6) rotate(185.4) scale(1.44 1.14)" />
<rect x="5.7" y="59.5" width="44.1" height="37.6" rx="0" fill="hsl(144, 86%, 72%)" fill-opacity="0.35"   transform="translate(63.3 26.3) rotate(218.3) scale(1.54 1.95)" />
<rect x="16.4" y="1.1" width="47.5" height="27.3" rx="6.9" fill="hsl(83, 65%, 44%)" fill-opacity="0.32" stroke="hsl(83, 65%, 44%)" stroke-width="2.4"  transform="translate(56.0 82.5) rotate(50.1) scale(1.04 1.70)" />
<rect x="67.6" y="23.7" width="31.0" height="38.0" rx="0" fill="hsl(322, 74%, 44%)" fill-opacity="0.44"  filter="url(#f1)" transform="translate(92.1 45.7) rotate(341.9) scale(1.48 1.18)" />
<path d="M 73.7 3.8 C 84.6 3.9, 49.7 0.0, 60.6 0.0 C 49.1 3.1, 54.9 42.1, 65.0 48.4 C 81.1 58.9, 29.6 100.0, 44.6 98.3 C 42.1 100.0, 7.8 48.5, 14.7 53.5 C 19.3 36.4, 100.0 85.0, 92.6 70.0 C 97.4 68.3, 99.8 94.1, 99.8 89.5 C 86.1 100.0, 48.1 54.9, 59.9 67.5 C 59.9 60.3, 38.4 32.8, 27.7 32.5 C 21.0 51.2, 91.6 82.0, 80.1 92.2 C 89.7 72.5, 77.9 53.5, 82.6 48.3 Z" fill="hsl(106, 75%, 59%)" fill-opacity="0.71" stroke="none" stroke-width="4.05"  transform="translate(3.9 97.4) rotate(5.9) scale(1.44 0.58)" />
<path d="M 68.4 26.6 C 78.8 10.7, 39.6 29.1, 47.8 29.5 C 64.8 14.3, 46.3 73.7, 32.8 75.7 C 45.8 69.1, 68.2 54.4, 80.1 52.2 C 83.5 67.7, 26.6 38.6, 33.2 53.2 C 38.3 42.5, 63.4 99.6, 59.9 87.2 C 59.9 81.5, 44.4 82.8, 51.6 72.1 C 43.4 60.9, 30.8 100.0, 37.6 96.4 C 54.4 100.0, 86.7 32.9, 93.3 29.5 C 80.9 10.9, 33.4 58.1, 47.8 51.4 C 40.3 43.5, 50.4 86.0, 41.2 99.3 Z" fill="none" fill-opacity="0.95" stroke="hsl(104, 72%, 65%)" stroke-width="3.61" filter="url(#f1)" transform="translate(29.7 39.1) rotate(351.9) scale(0.99 1.97)" />
<path d="M 73.8 18.1 C 77.1 6.7, 32.6 29.8, 28.5 41.6 C 36.0 43.0, 73.2 19.3, 60.1 22.3 C 76.2 23.0, 88.2 23.6, 87.1 35.5 C 86.2 39.1, 85.2 32.9, 99.0 38.7 C 92.3 56.8, 86.3 44.6, 72.7 38.1 C 85.9 44.5, 0.0 100.0, 1.8 97.1 C 7.1 100.0, 97.3 83.9, 88.4 85.6 C 89.9 100.0, 21.2 35.2, 26.0 21.5 C 38.4 11.3, 78.0 16.5, 65.8 8.6 Z" fill="none" fill-opacity="0.32" stroke="hsl(290, 83%, 63%)" stroke-width="3.15"  transform="translate(48.8 55.8) rotate(130.8) scale(1.26 1.23)" />
<rect x="0.8" y="7.4" width="21.4" height="18.6" rx="0" fill="hsl(151, 70%, 62%)" fill-opacity="0.63" stroke="hsl(40, 53%, 69%)" stroke-width="4.5"   />
<circle cx="74.2" cy="32.3" r="7.4" fill="url(#g2)" fill-opacity="0.44"  transform="translate(73.7 20.5) rotate(39.7) scale(1.29 2.00)" />
<path d="M 57.9 74.8 C 46.4 73.7, 18.6 0.0, 32.5 1.2 C 52.1 16.3, 55.4 58.8, 50.5 71.1 C 38.1 74.3, 64.7 56.5, 67.9 60.5 C 83.1 45.7, 61.6 17.0, 66.0 2.2 C 61.8 9.1, 66.2 23.4, 78.8 15.3 C 73.1 30.3, 72.6 55.1, 85.2 64.6 C 74.3 79.9, 67.8 26.8, 73.0 34.7 C 78.0 20.0, 93.1 98.8, 95.3 94.3 C 82.3 81.8, 29.5 21.6, 42.1 9.0 C 44.1 0.0, 55.3 63.5, 66.2 73.6 Z" fill="hsl(242, 72%, 49%)" fill-opacity="0.95" stroke="none" stroke-width="3.35" filter="url(#f1)" transform="translate(96.7 18.3) rotate(286.9) scale(1.52 0.54)" />
<circle cx="0.6" cy="56.1" r="4.0" fill="hsl(322, 74%, 44%)" fill-opacity="0.48"  transform="translate(62.5 59.0) rotate(93.4) scale(1.39 0.80)" />
<path d="M 10.9 80.9 C 0.0 93.8, 59.9 100.0, 62.5 99.1 C 54.7 81.5, 0.0 14.0, 0.2 23.3 C 11.5 8.5, 18.8 7.9, 9.7 14.5 C 3.2 21.6, 73.2 10.6, 78.4 1.9 C 69.6 0.0, 6.6 65.8, 18.7 63.7 C 4.5 60.9, 15.2 46.8, 28.4 35.5 C 29.3 52.4, 82.1 84.6, 91.4 93.6 C 74.0 78.7, 57.5 7.1, 67.9 11.2 C 54.3 6.9, 83.5 34.0, 95.2 26.3 C 84.2 18.2, 10.0 0.0, 18.3 4.7 Z" fill="hsl(2, 82%, 55%)" fill-opacity="0.90" stroke="none" stroke-width="4.39" filter="url(#f1)" transform="translate(69.7 68.7) rotate(321.7) scale(1.16 1.75)" />
<path d="M 58.6 56.2 C 62.9 36.6, 70.2 82.0, 62.5 81.8 C 63.6 98.5, 42.9 28.7, 44.0 42.2 C 38.9 33.3, 39.0 42.5, 42.4 55.5 C 31.8 38.8, 52.9 27.3, 53.8 14.7 C 50.5 0.0, 83.9 100.0, 71.9 94.5 C 52.7 98.5, 79.4 33.8, 80.7 39.9 C 83.9 51.6, 51.9 78.4, 38.1 83.5 C 53.1 65.2, 8.7 84.5, 6.4 90.8 C 20.4 98.4, 69.2 20.1, 83.4 12.5 C 99.9 0.6, 82.2 65.3, 70.6 77.4 Z" fill="hsl(106, 75%, 59%)" fill-opacity="0.53" stroke="none" stroke-width="4.33"  transform="translate(73.8 15.7) rotate(266.5) scale(0.95 1.99)" />
<circle cx="95.1" cy="89.7" r="2.3" fill="hsl(83, 65%, 44%)" fill-opacity="0.78"  transform="translate(58.5 30.2) rotate(225.5) scale(0.78 1.99)" />
<path d="M 87.0 44.9 C 74.8 31.1, 89.9 0.0, 95.5 0.9 C 90.7 0.0, 16.5 42.1, 28.5 55.8 C 34.5 45.9, 59.2 13.8, 49.2 6.3 C 59.8 12.8, 35.6 71.9, 33.9 73.5 C 34.4 71.2, 64.8 57.6, 78.6 62.8 C 85.0 69.2, 4.3 60.8, 17.7 51.0 C 0.9 60.6, 1.8 71.7, 14.7 59.9 C 9.2 41.5, 47.5 93.6, 58.7 80.6 Z" fill="hsl(144, 86%, 72%)" fill-opacity="0.25" stroke="none" stroke-width="2.70"   />
<path d="M 40.1 81.6 C 21.3 88.3, 27.1 25.4, 36.5 18.2 C 42.9 9.3, 19.5 32.3, 4.8 36.7 C 7.3 37.9, 100.0 31.6, 98.2 21.6 C 100.0 3.0, 55.9 100.0, 61.4 90.6 C 56.9 100.0, 100.0 5.6, 97.3 5.3 C 91.9 0.0, 38.2 27.8, 30.4 30.3 C 32.2 25.9, 32.6 9.1, 39.9 22.9 C 56.9 11.9, 44.3 48.9, 58.1 36.9 C 38.6 53.4, 23.4 12.2, 33.3 2.0 Z" fill="hsl(144, 86%, 72%)" fill-opacity="0.81" stroke="none" stroke-width="1.55"  transform="translate(60.8 31.6) rotate(194.3) scale(1.29 0.87)" />
<rect x="3.6" y="48.3" width="42.2" height="12.8" rx="0" fill="hsl(151, 70%, 62%)" fill-opacity="0.92"   transform="translate(8.8 16.7) rotate(17.7) scale(1.27 1.66)" />
<path d="M 21.5 29.5 C 5.5 9.7, 33.0 26.2, 27.6 18.0 C 22.0 25.6, 19.0 0.0, 10.4 8.4 C 6.9 27.8, 48.7 76.6, 53.3 81.5 C 46.4 75.3, 55.7 36.1, 64.2 23.1 C 76.8 34.3, 95.0 20.7, 88.9 10.6 C 100.0 15.9, 36.0 75.4, 30.1 65.3 " fill="hsl(2, 82%, 55%)" fill-opacity="0.39" stroke="none" stroke-width="2.12"  transform="translate(55.2 78.2) rotate(15.7) scale(1.54 1.26)" />
<path d="M 16.8 44.6 C 29.2 48.2, 56.9 20.1, 56.8 14.8 C 72.5 6.6, 56.2 48.5, 51.1 59.5 C 45.0 73.0, 67.8 0.0, 65.8 6.6 C 70.4 0.0, 99.4 86.9, 88.1 94.5 C 90.0 100.0, 90.6 24.0, 83.3 9.9 C 73.7 0.0, 17.5 58.6, 22.8 58.6 Z" fill="none" fill-opacity="0.44" stroke="hsl(2, 82%, 55%)" stroke-width="2.47"  transform="translate(53.4 59.5) rotate(152.8) scale(1.94 1.38)" />
<path d="M 91.5 84.7 C 100.0 96.3, 45.0 100.0, 42.3 99.9 C 43.1 97.5, 73.1 10.2, 79.4 11.1 C 76.9 25.3, 30.2 28.5, 24.1 27.6 C 28.6 39.7, 64.9 2.3, 79.1 4.3 C 85.6 0.0, 89.8 35.3, 83.0 22.0 C 93.3 20.7, 36.7 12.7, 33.5 1.0 C 24.6 0.0, 63.3 11.7, 52.4 7.4 C 35.7 22.2, 45.4 100.0, 42.2 99.8 Z" fill="none" fill-opacity="0.33" stroke="hsl(322, 74%, 44%)" stroke-width="0.85"  transform="translate(0.1 75.1) rotate(234.7) scale(0.64 1.20)" />
<path d="M 90.4 77.6 C 100.0 76.3, 100.0 60.5, 99.9 60.2 C 88.2 49.2, 52.1 68.7, 57.1 67.5 C 47.3 78.4, 46.7 18.0, 32.4 31.2 C 41.6 17.9, 51.7 33.2, 39.3 28.6 C 55.2 24.8, 50.5 69.6, 53.4 66.8 C 53.4 82.3, 24.1 21.4, 38.4 26.7 Z" fill="hsl(40, 53%, 69%)" fill-opacity="0.83" stroke="none" stroke-width="2.69"  transform="translate(6.7 21.5) rotate(325.2) scale(1.14 0.60)" />
<rect x="25.6" y="42.9" width="42.2" height="26.1" rx="0" fill="hsl(322, 74%, 44%)" fill-opacity="1.00" stroke="hsl(183, 71%, 60%)" stroke-width="2.9"  transform="translate(0.1 89.1) rotate(14.8) scale(1.95 1.05)" />
<path d="M 31.7 27.2 C 33.4 17.4, 30.9 93.3, 34.1 82.6 C 28.9 71.2, 100.0 53.2, 98.9 52.1 C 90.9 40.2, 61.6 0.0, 50.2 13.8 C 57.6 5.0, 89.8 42.1, 100.0 46.9 C 100.0 30.7, 60.7 76.3, 60.1 73.5 C 77.8 92.2, 48.8 0.8, 47.0 7.2 C 39.7 12.7, 45.9 4.0, 51.8 11.2 C 66.5 0.0, 75.0 63.4, 82.7 72.5 C 82.4 65.7, 34.1 43.1, 31.9 55.8 C 29.8 41.5, 94.7 79.4, 96.6 91.1 Z" fill="none" fill-opacity="0.38" stroke="hsl(144, 86%, 72%)" stroke-width="4.86"  transform="translate(87.3 55.6) rotate(278.8) scale(0.89 1.83)" />
<path d="M 91.9 16.7 C 100.0 27.9, 99.3 71.1, 94.1 68.3 C 96.5 81.5, 39.7 78.0, 31.1 88.1 C 36.9 86.1, 46.8 95.9, 47.7 96.7 C 49.4 100.0, 25.7 56.4, 26.2 60.4 C 40.1 56.0, 52.7 36.2, 62.5 31.3 C 47.1 23.4, 88.5 57.7, 79.2 71.5 Z" fill="hsl(242, 72%, 49%)" fill-opacity="0.30" stroke="none" stroke-width="2.76" filter="url(#f1)" transform="translate(58.3 10.9) rotate(126.7) scale(1.96 1.61)" />
<path d="M 4.5 10.1 C 10.2 0.0, 38.3 47.1, 27.2 42.5 C 11.6 30.7, 31.3 9.1, 41.8 10.0 C 25.9 0.0, 48.7 84.0, 52.8 97.3 C 60.9 89.0, 88.4 87.1, 89.6 86.0 C 95.8 96.4, 51.2 24.4, 56.2 12.3 C 58.3 21.1, 100.0 90.7, 98.9 93.2 Z" fill="none" fill-opacity="0.38" stroke="hsl(86, 72%, 68%)" stroke-width="1.77" filter="url(#f1)"  />
<path d="M 46.6 49.5 C 66.6 35.7, 51.6 62.6, 55.4 61.3 C 56.1 71.1, 36.6 78.8, 25.5 66.5 C 43.2 65.9, 7.0 7.1, 6.1 1.8 C 0.0 1.8, 99.5 66.6, 91.2 60.6 C 86.7 80.5, 16.6 40.7, 7.4 45.2 C 3.2 28.6, 50.9 64.2, 64.1 71.4 C 64.8 87.9, 0.0 75.3, 5.7 76.5 Z" fill="none" fill-opacity="0.90" stroke="hsl(83, 65%, 44%)" stroke-width="2.00"  transform="translate(97.3 10.9) rotate(225.7) scale(1.78 1.03)" />
<path d="M 78.9 32.2 C 75.4 35.5, 21.5 61.5, 9.2 62.9 C 5.0 61.4, 0.0 69.5, 4.5 55.1 C 4.5 44.5, 39.0 48.6, 45.7 40.3 C 52.8 56.2, 61.8 39.1, 70.2 47.1 C 65.2 66.4, 87.9 71.9, 78.3 81.0 C 92.6 99.9, 7.7 70.9, 13.6 85.5 C 30.7 82.1, 100.0 60.9, 99.5 63.0 C 100.0 78.1, 22.4 57.9, 22.2 50.4 C 35.1 55.3, 27.5 46.9, 36.8 46.4 Z" fill="hsl(144, 86%, 72%)" fill-opacity="0.27" stroke="none" stroke-width="2.04"  transform="translate(39.4 94.8) rotate(339.2) scale(1.76 0.88)" />
<rect x="47.1" y="34.2" width="35.1" height="29.4" rx="7.2" fill="hsl(322, 74%, 44%)" fill-opacity="0.28" stroke="hsl(106, 75%, 59%)" stroke-width="2.6" filter="url(#f1)"  />
<rect x="62.3" y="23.0" width="26.5" height="34.6" rx="13.4" fill="none" fill-opacity="0.85"   transform="translate(87.7 27.0) rotate(346.9) scale(1.88 1.73)" />
<path d="M 37.1 14.6 C 32.4 1.9, 77.5 39.6, 66.9 30.1 C 47.2 22.2, 90.9 21.7, 90.7 25.5 C 95.3 21.6, 49.1 43.1, 56.6 44.5 C 46.2 47.9, 11.4 99.9, 15.4 84.9 C 19.4 90.0, 41.7 57.7, 31.5 52.9 C 21.0 61.0, 13.6 20.2, 14.4 19.4 Z" fill="hsl(40, 53%, 69%)" fill-opacity="0.52" stroke="none" stroke-width="1.88"  transform="translate(30.9 37.1) rotate(70.1) scale(1.98 1.27)" />
<circle cx="78.7" cy="64.2" r="11.4" fill="hsl(290, 83%, 63%)" fill-opacity="0.67"  transform="translate(61.0 74.6) rotate(228.4) scale(1.10 1.83)" />
<path d="M 71.7 73.5 C 81.6 79.8, 83.7 11.6, 88.5 20.9 C 100.0 21.5, 22.8 0.0, 8.1 6.4 C 0.0 0.0, 59.7 44.5, 74.0 32.5 C 70.4 42.5, 40.8 16.0, 43.5 30.8 C 45.5 25.9, 89.7 38.5, 90.8 39.5 C 100.0 25.7, 13.3 85.6, 25.7 95.6 C 35.7 77.3, 7.7 76.1, 12.5 71.9 Z" fill="none" fill-opacity="0.80" stroke="hsl(290, 83%, 63%)" stroke-width="3.71"  transform="translate(40.7 47.2) rotate(260.1) scale(1.95 0.66)" />
<path d="M 49.1 13.1 C 64.4 32.5, 13.4 43.4, 27.5 46.4 C 20.9 44.9, 65.7 8.2, 68.6 12.9 C 88.4 0.0, 5.6 41.5, 18.8 41.5 C 5.1 30.3, 88.3 24.9, 76.9 10.0 C 90.0 0.0, 66.3 28.1, 76.3 18.1 C 86.9 7.6, 83.2 22.5, 91.1 9.9 C 98.0 24.8, 24.4 0.4, 13.0 1.3 C 4.9 0.0, 18.4 75.2, 29.4 84.9 Z" fill="none" fill-opacity="0.66" stroke="hsl(104, 72%, 65%)" stroke-width="2.72"  transform="translate(35.0 80.9) rotate(128.8) scale(0.81 1.82)" />
<rect x="46.1" y="3.3" width="28.8" height="29.6" rx="17.9" fill="hsl(106, 75%, 59%)" fill-opacity="0.60"   transform="translate(91.2 16.7) rotate(334.5) scale(1.34 1.98)" />
<rect x="45.5" y="30.4" width="43.9" height="31.3" rx="0" fill="hsl(86, 72%, 68%)" fill-opacity="0.95" stroke="hsl(290, 83%, 63%)" stroke-width="1.5"  transform="translate(28.8 11.7) rotate(81.0) scale(1.93 1.21)" />
<path d="M 44.8 24.2 C 44.1 41.4, 77.7 33.0, 90.0 21.9 C 92.3 41.6, 35.0 47.9, 31.2 56.7 C 42.0 42.3, 85.8 37.5, 70.8 25.8 C 62.6 10.0, 69.1 92.1, 70.1 90.9 C 66.0 85.3, 57.7 43.7, 50.0 48.5 C 52.4 40.7, 4.7 33.3, 13.4 30.5 C 16.0 32.9, 70.8 46.8, 78.6 51.1 Z" fill="none" fill-opacity="0.36" stroke="hsl(83, 65%, 44%)" stroke-width="4.53"  transform="translate(96.7 83.9) rotate(237.4) scale(1.26 1.13)" />
<path d="M 53.6 20.6 C 56.2 4.1, 37.1 5.8, 24.0 3.6 C 9.0 14.6, 19.0 55.6, 27.6 49.9 C 14.8 57.5, 44.2 73.8, 52.0 70.2 C 68.6 71.1, 26.4 23.4, 15.2 20.1 C 14.5 10.8, 86.5 14.3, 93.7 16.2 C 85.9 28.5, 97.2 0.0, 84.9 2.2 C 81.6 10.0, 82.2 83.5, 94.5 89.7 C 98.4 87.9, 36.7 47.1, 39.7 35.9 C 44.8 26.7, 92.3 45.6, 81.2 59.6 Z" fill="hsl(86, 72%, 68%)" fill-opacity="0.69" stroke="none" stroke-width="4.97"  transform="translate(40.9 88.9) rotate(129.6) scale(1.63 0.85)" />
<circle cx="92.0" cy="32.7" r="0.7" fill="hsl(322, 74%, 44%)" fill-opacity="0.44"  transform="translate(7.8 56.5) rotate(118.4) scale(0.94 1.80)" />
<rect x="12.3" y="49.5" width="45.9" height="17.4" rx="0" fill="hsl(104, 72%, 65%)" fill-opacity="0.56" stroke="hsl(151, 70%, 62%)" stroke-width="1.5" filter="url(#f1)" transform="translate(48.2 8.6) rotate(166.5) scale(1.00 1.17)" />
<path d="M 92.2 10.6 C 81.8 21.7, 17.2 63.5, 4.9 70.4 C 24.7 51.0, 27.5 100.0, 37.1 95.0 C 47.0 100.0, 65.9 15.6, 68.1 11.7 C 80.9 28.8, 55.7 86.3, 50.6 97.7 C 60.1 100.0, 33.5 82.4, 30.6 88.3 C 41.7 82.0, 97.1 2.9, 97.2 2.5 C 91.6 0.0, 52.6 24.1, 57.1 18.8 C 60.2 9.3, 96.7 33.5, 88.2 23.6 Z" fill="hsl(290, 83%, 63%)" fill-opacity="0.91" stroke="none" stroke-width="2.48"   />
<circle cx="27.5" cy="51.3" r="14.3" fill="hsl(40, 53%, 69%)" fill-opacity="0.79" filter="url(#f1)"  />
<path d="M 93.5 99.5 C 86.9 84.8, 100.0 20.7, 92.8 8.2 C 84.5 0.0, 41.2 39.9, 34.5 28.7 C 26.7 34.5, 64.6 66.2, 63.6 79.6 C 66.0 89.0, 72.1 51.9, 58.2 56.9 C 58.4 64.7, 65.5 68.5, 62.3 82.6 C 44.5 87.1, 100.0 6.2, 92.3 11.6 C 79.1 9.6, 36.9 22.4, 25.7 35.9 C 37.4 53.6, 19.5 27.5, 29.0 21.0 C 12.0 23.6, 92.7 91.3, 89.9 92.2 C 100.0 88.0, 74.6 83.6, 60.7 91.4 Z" fill="none" fill-opacity="0.56" stroke="hsl(322, 74%, 44%)" stroke-width="5.30" filter="url(#f1)" transform="translate(82.4 56.9) rotate(68.2) scale(1.71 1.94)" />
<rect x="50.2" y="12.8" width="31.7" height="20.7" rx="0" fill="hsl(83, 65%, 44%)" fill-opacity="0.26" stroke="hsl(290, 83%, 63%)" stroke-width="2.2" filter="url(#f1)" transform="translate(83.5 2.1) rotate(83.1) scale(0.53 1.80)" />
<path d="M 96.2 80.7 C 95.6 74.9, 65.3 70.8, 66.2 72.4 C 81.4 68.6, 0.0 100.0, 3.4 96.1 C 9.8 89.0, 30.8 51.1, 23.0 47.4 C 36.7 47.6, 9.9 50.8, 21.6 60.5 C 25.5 63.6, 79.1 21.7, 81.4 26.9 C 91.9 45.9, 88.0 20.0, 82.1 23.8 Z" fill="hsl(2, 82%, 55%)" fill-opacity="0.80" stroke="none" stroke-width="3.83"  transform="translate(31.7 98.6) rotate(36.9) scale(0.91 0.61)" />
<path d="M 57.6 5.2 C 62.7 20.0, 85.3 71.8, 99.6 59.8 C 100.0 47.9, 59.2 58.5, 56.2 70.1 C 75.3 89.9, 0.0 90.7, 1.0 84.3 C 5.9 82.5, 54.3 65.0, 52.5 79.1 C 51.5 90.6, 0.0 52.9, 5.4 67.1 C 0.0 54.7, 57.0 84.9, 43.1 77.2 C 50.7 61.4, 3.9 0.0, 11.6 1.1 C 1.3 0.0, 64.8 51.2, 79.3 52.5 Z" fill="hsl(144, 86%, 72%)" fill-opacity="0.57" stroke="none" stroke-width="2.18"  transform="translate(65.4 26.3) rotate(228.2) scale(0.97 0.80)" />
<rect x="19.1" y="36.0" width="35.5" height="29.1" rx="1.3" fill="none" fill-opacity="0.63"   transform="translate(43.1 74.1) rotate(221.5) scale(0.55 1.35)" />
<rect x="46.8" y="77.6" width="27.4" height="18.5" rx="0" fill="hsl(83, 65%, 44%)" fill-opacity="0.74"   transform="translate(29.0 95.4) rotate(213.3) scale(1.46 0.67)" />
<rect x="41.9" y="37.8" width="29.1" height="10.0" rx="0" fill="hsl(290, 83%, 63%)" fill-opacity="0.67" stroke="hsl(290, 83%, 63%)" stroke-width="3.2" filter="url(#f1)"  />
<path d="M 77.3 97.0 C 59.9 100.0, 94.1 26.7, 79.3 18.2 C 67.8 21.1, 8.5 97.1, 22.2 96.0 C 9.5 100.0, 75.4 82.6, 68.3 81.5 C 51.4 70.4, 27.7 75.9, 25.6 84.5 C 20.8 99.4, 0.1 53.3, 6.7 48.3 C 16.2 47.5, 36.4 24.8, 36.9 39.5 C 37.1 23.9, 0.0 100.0, 0.3 93.9 C 0.0 97.3, 76.0 95.6, 65.5 81.5 C 77.6 67.2, 78.4 86.8, 84.0 96.2 C 77.7 100.0, 82.6 26.4, 86.2 12.7 Z" fill="none" fill-opacity="0.32" stroke="hsl(183, 71%, 60%)" stroke-width="4.35"  transform="translate(28.5 90.6) rotate(359.1) scale(0.56 1.45)" />
<path d="M 65.4 82.6 C 53.0 82.2, 0.0 45.9, 5.1 49.0 C 4.6 39.9, 65.7 14.1, 54.9 12.3 C 69.7 8.6, 56.1 23.5, 48.6 30.6 C 33.4 30.8, 99.9 15.6, 91.3 14.9 C 80.0 23.2, 40.7 35.0, 34.0 31.6 C 29.8 23.7, 66.9 54.8, 74.1 52.2 C 81.9 54.0, 26.1 13.5, 38.3 10.7 C 24.4 25.8, 30.7 94.9, 24.2 88.6 C 27.3 82.7, 51.4 3.2, 45.3 4.1 C 42.1 12.4, 53.4 1.0, 42.4 9.2 Z" fill="hsl(40, 53%, 69%)" fill-opacity="0.68" stroke="none" stroke-width="1.82"  transform="translate(80.2 88.8) rotate(209.6) scale(1.14 0.58)" />
<circle cx="13.8" cy="79.5" r="2.6" fill="hsl(2, 82%, 55%)" fill-opacity="0.45"  transform="translate(86.0 69.6) rotate(36.9) scale(1.88 1.66)" />
<circle cx="51.6" cy="77.8" r="1.9" fill="hsl(322, 74%, 44%)" fill-opacity="0.61"  transform="translate(74.3 44.6) rotate(200.5) scale(1.37 1.72)" />
<path d="M 34.5 87.5 C 50.6 94.3, 41.1 42.6, 30.1 57.0 C 24.4 61.5, 59.6 30.4, 64.1 43.4 C 83.2 30.7, 51.8 29.0, 66.2 39.5 C 77.1 59.4, 47.1 15.8, 53.1 24.2 C 51.3 23.2, 69.9 50.7, 81.1 63.3 C 79.7 62.4, 51.5 37.8, 53.9 44.8 C 35.0 40.5, 23.5 71.5, 30.6 62.2 C 29.4 75.0, 76.6 93.6, 66.4 91.8 C 79.1 81.2, 2.0 91.3, 2.0 87.2 C 0.0 95.2, 39.5 40.4, 34.4 43.8 Z" fill="none" fill-opacity="0.25" stroke="hsl(290, 83%, 63%)" stroke-width="3.29"   />
<rect x="2.9" y="79.1" width="30.9" height="12.4" rx="0" fill="hsl(86, 72%, 68%)" fill-opacity="0.25"   transform="translate(68.7 59.6) rotate(35.5) scale(1.92 0.64)" />
<circle cx="72.0" cy="48.5" r="4.9" fill="hsl(151, 70%, 62%)" fill-opacity="0.60"  transform="translate(64.4 41.9) rotate(139.3) scale(1.53 1.28)" />
<circle cx="9.3" cy="78.2" r="14.4" fill="url(#g1)" fill-opacity="0.94" filter="url(#f1)"  />
<path d="M 96.3 92.2 C 77.3 100.0, 86.3 85.1, 97.9 99.3 C 100.0 100.0, 100.0 54.6, 90.0 43.3 C 86.3 59.3, 84.9 48.5, 80.6 47.0 C 78.4 29.1, 12.3 42.6, 0.2 47.2 C 0.0 36.5, 55.2 8.1, 42.5 11.5 C 39.8 22.1, 30.8 11.4, 41.4 15.6 C 24.3 1.3, 15.4 61.2, 2.8 52.2 C 0.0 41.2, 64.0 16.8, 66.0 29.2 Z" fill="hsl(83, 65%, 44%)" fill-opacity="0.80" stroke="none" stroke-width="4.71"  transform="translate(87.9 23.2) rotate(26.8) scale(1.31 1.91)" />
<path d="M 56.0 34.2 C 47.9 43.0, 96.4 28.6, 82.4 13.9 C 75.1 0.0, 40.9 11.4, 26.3 19.9 C 17.1 29.0, 2.3 60.9, 14.4 65.9 C 30.3 59.9, 0.0 70.0, 2.3 60.4 C 0.0 52.5, 91.6 100.0, 79.9 86.3 C 72.5 70.3, 13.3 84.6, 21.6 99.0 C 2.2 100.0, 78.1 4.9, 75.0 3.9 C 87.8 0.0, 73.5 72.7, 81.9 83.9 C 100.0 75.5, 22.7 86.5, 21.3 80.3 C 30.5 70.8, 39.6 22.9, 37.2 25.5 Z" fill="hsl(322, 74%, 44%)" fill-opacity="0.27" stroke="none" stroke-width="1.97"  transform="translate(7.3 22.2) rotate(117.0) scale(0.69 1.77)" />
<rect x="3.7" y="77.0" width="42.2" height="17.1" rx="2.7" fill="none" fill-opacity="0.72"  filter="url(#f1)"  />
<circle cx="19.0" cy="66.6" r="8.9" fill="url(#g0)" fill-opacity="0.47"  transform="translate(68.1 35.4) rotate(342.5) scale(1.54 1.26)" />
<rect x="55.6" y="51.8" width="31.2" height="40.0" rx="0" fill="hsl(183, 71%, 60%)" fill-opacity="0.69"   transform="translate(46.1 51.2) rotate(346.4) scale(1.20 0.50)" />
<path d="M 50.3 29.8 C 54.2 22.4, 16.5 100.0, 26.5 95.3 C 38.8 100.0, 100.0 86.2, 99.6 75.3 C 88.5 69.6, 84.7 78.8, 89.5 92.9 C 96.3 96.3, 75.9 10.2, 78.2 7.7 C 96.8 0.2, 42.6 27.0, 48.3 37.2 C 32.2 46.1, 29.4 77.9, 14.8 69.1 Z" fill="none" fill-opacity="0.84" stroke="hsl(104, 72%, 65%)" stroke-width="4.10"  transform="translate(78.6 53.3) rotate(305.9) scale(0.93 0.91)" />
<path d="M 16.8 68.0 C 16.4 49.1, 0.0 59.9, 3.5 64.2 C 0.0 67.9, 39.9 74.3, 26.1 84.3 C 39.5 100.0, 54.8 82.3, 48.5 69.8 C 52.2 61.7, 77.4 77.0, 75.6 88.1 C 57.2 85.3, 5.3 15.0, 3.4 4.2 C 1.7 19.5, 32.3 18.7, 47.2 28.7 Z" fill="hsl(104, 72%, 65%)" fill-opacity="0.31" stroke="none" stroke-width="1.24"  transform="translate(93.6 82.8) rotate(278.1) scale(0.60 0.96)" />
<path d="M 67.6 32.0 C 54.3 29.4, 50.4 75.8, 42.7 79.8 C 25.3 60.8, 21.1 63.6, 9.5 60.3 C 12.5 50.9, 44.1 48.6, 34.2 54.7 C 18.5 42.1, 51.0 74.5, 61.3 60.5 C 49.8 48.5, 88.4 26.7, 78.2 35.2 C 83.7 33.0, 84.8 69.7, 94.9 66.2 Z" fill="none" fill-opacity="0.95" stroke="hsl(242, 72%, 49%)" stroke-width="2.47"   />
<circle cx="37.1" cy="64.1" r="4.4" fill="url(#g2)" fill-opacity="0.66"   />
<rect x="33.0" y="47.1" width="34.7" height="28.0" rx="0" fill="hsl(2, 82%, 55%)" fill-opacity="0.42"   transform="translate(90.8 89.5) rotate(248.9) scale(1.35 0.97)" />
<circle cx="32.0" cy="80.2" r="1.0" fill="hsl(242, 72%, 49%)" fill-opacity="0.51" filter="url(#f1)" transform="translate(34.0 34.3) rotate(55.5) scale(0.71 1.89)" />
<path d="M 47.5 49.6 C 28.0 65.8, 39.9 21.0, 54.8 14.9 C 61.6 31.9, 5.9 3.0, 20.7 10.4 C 35.8 29.5, 30.9 76.4, 18.5 75.0 C 15.1 77.8, 50.8 3.9, 57.5 7.3 C 65.1 24.0, 25.8 60.4, 15.5 70.2 C 27.9 55.0, 55.6 91.2, 51.8 80.3 C 71.0 66.3, 17.6 45.4, 18.1 59.1 C 23.6 59.0, 44.6 14.9, 47.2 7.6 C 49.7 1.2, 62.2 0.1, 49.2 5.5 Z" fill="hsl(242, 72%, 49%)" fill-opacity="0.82" stroke="none" stroke-width="3.84"   />
<rect x="54.8" y="55.2" width="37.1" height="32.5" rx="19.8" fill="hsl(86, 72%, 68%)" fill-opacity="0.92"    />
<rect x="56.9" y="38.0" width="24.0" height="20.6" rx="0" fill="none" fill-opacity="0.61"   transform="translate(99.6 55.1) rotate(56.5) scale(1.85 0.91)" />
<path d="M 16.0 29.1 C 23.9 44.4, 2.7 8.2, 13.9 19.7 C 9.2 39.4, 18.5 66.2, 11.4 66.4 C 21.2 85.8, 57.8 35.7, 58.3 49.9 C 52.8 34.9, 46.2 58.7, 32.5 51.8 C 52.3 65.1, 51.0 64.1, 55.1 57.2 C 39.2 47.7, 26.8 47.2, 15.2 53.8 C 5.9 66.5, 47.2 83.1, 35.2 74.5 C 35.3 80.8, 0.0 13.4, 4.6 1.9 Z" fill="hsl(106, 75%, 59%)" fill-opacity="0.51" stroke="none" stroke-width="1.87"  transform="translate(3.0 5.5) rotate(9.9) scale(1.22 0.86)" />
<path d="M 82.0 44.4 C 83.2 49.6, 10.3 67.9, 13.7 70.6 C 21.9 68.8, 100.0 29.3, 95.7 19.4 C 100.0 28.4, 0.0 81.3, 0.1 86.7 C 0.0 74.0, 65.8 35.9, 69.8 36.9 C 74.0 21.6, 7.2 84.1, 13.9 96.8 C 1.8 100.0, 100.0 30.1, 98.2 24.7 C 97.4 16.6, 47.2 95.0, 56.2 99.8 C 50.4 100.0, 46.1 97.3, 51.3 90.6 C 68.9 100.0, 58.9 43.4, 44.0 55.9 " fill="none" fill-opacity="0.50" stroke="hsl(83, 65%, 44%)" stroke-width="2.23"  transform="translate(66.4 28.0) rotate(182.1) scale(0.71 1.20)" />
<rect x="7.8" y="65.5" width="27.2" height="13.9" rx="12.8" fill="none" fill-opacity="0.81" stroke="hsl(86, 72%, 68%)" stroke-width="3.9"  transform="translate(94.4 37.3) rotate(4.9) scale(0.92 1.86)" />
<rect x="38.2" y="83.4" width="23.3" height="16.1" rx="13.7" fill="hsl(106, 75%, 59%)" fill-opacity="0.81"    />
<rect x="11.1" y="49.5" width="41.9" height="12.0" rx="8.1" fill="hsl(242, 72%, 49%)" fill-opacity="0.52"  filter="url(#f1)"  />
<rect x="32.3" y="43.4" width="48.6" height="17.3" rx="0" fill="none" fill-opacity="0.28"   transform="translate(81.9 44.9) rotate(26.1) scale(0.51 0.78)" />
<path d="M 86.2 3.6 C 66.3 11.7, 0.0 40.2, 4.5 40.1 C 17.8 25.3, 18.8 18.4, 7.6 18.2 C 0.0 8.2, 23.1 60.6, 20.0 70.8 C 23.2 64.3, 40.2 3.5, 34.9 3.0 C 32.6 0.0, 60.2 0.0, 48.2 1.3 C 52.5 15.4, 51.6 43.3, 38.2 34.7 C 30.7 20.5, 12.1 72.1, 4.1 57.9 Z" fill="none" fill-opacity="0.44" stroke="hsl(144, 86%, 72%)" stroke-width="4.32"  transform="translate(61.6 72.4) rotate(221.7) scale(1.54 1.14)" />
<rect x="47.1" y="16.5" width="47.0" height="36.3" rx="10.0" fill="hsl(242, 72%, 49%)" fill-opacity="0.86" stroke="hsl(183, 71%, 60%)" stroke-width="2.6"  transform="translate(7.9 50.4) rotate(48.6) scale(0.62 1.31)" />
<circle cx="93.8" cy="79.3" r="13.8" fill="url(#g1)" fill-opacity="0.85"  transform="translate(55.9 29.3) rotate(136.4) scale(1.20 1.90)" />
<rect x="1.7" y="28.9" width="31.2" height="25.1" rx="0" fill="none" fill-opacity="0.63"   transform="translate(70.8 23.5) rotate(213.9) scale(1.10 1.85)" />
<rect x="48.6" y="58.3" width="28.0" height="11.6" rx="14.0" fill="none" fill-opacity="0.44" stroke="hsl(144, 86%, 72%)" stroke-width="2.1" filter="url(#f1)"  />
<path d="M 42.9 50.5 C 52.3 52.5, 54.2 70.6, 55.0 64.6 C 67.7 72.0, 8.3 29.9, 18.2 21.6 C 13.5 21.2, 93.4 14.1, 96.3 5.2 C 98.2 0.0, 19.5 68.3, 29.2 60.6 C 23.0 69.1, 18.5 40.3, 8.7 46.3 C 0.0 35.6, 42.1 3.3, 35.8 15.5 C 28.4 2.6, 100.0 86.6, 93.6 71.9 C 100.0 86.6, 54.1 100.0, 42.4 99.0 Z" fill="none" fill-opacity="0.88" stroke="hsl(40, 53%, 69%)" stroke-width="3.40"  transform="translate(89.4 70.8) rotate(30.0) scale(0.59 1.97)" />
<rect x="23.9" y="25.1" width="47.3" height="37.3" rx="8.1" fill="hsl(151, 70%, 62%)" fill-opacity="0.66" stroke="hsl(144, 86%, 72%)" stroke-width="4.2"  transform="translate(95.2 93.1) rotate(297.2) scale(1.66 1.85)" />
<rect x="3.8" y="58.2" width="27.4" height="37.8" rx="5.9" fill="hsl(86, 72%, 68%)" fill-opacity="0.39" stroke="hsl(2, 82%, 55%)" stroke-width="3.4"  transform="translate(23.7 48.6) rotate(295.2) scale(0.95 1.75)" />
<circle cx="45.9" cy="76.1" r="1.1" fill="hsl(104, 72%, 65%)" fill-opacity="0.69"  transform="translate(6.3 20.2) rotate(264.3) scale(0.99 0.70)" />
<path d="M 23.2 36.4 C 28.8 42.2, 46.1 77.6, 34.3 83.9 C 54.1 97.6, 52.3 16.1, 62.4 1.8 C 63.5 20.6, 47.8 70.5, 35.3 59.9 C 19.0 54.2, 75.3 74.2, 64.2 63.9 C 77.9 70.3, 96.1 92.0, 96.4 95.7 C 88.7 100.0, 49.5 78.6, 46.0 83.4 C 49.1 100.0, 30.1 17.6, 23.6 27.6 Z" fill="none" fill-opacity="0.34" stroke="hsl(144, 86%, 72%)" stroke-width="5.28"  transform="translate(77.6 66.5) rotate(295.4) scale(0.54 1.59)" />
<path d="M 30.9 32.5 C 14.1 16.6, 1.9 31.3, 13.4 27.2 C 16.0 11.8, 66.8 41.4, 67.0 33.2 C 50.7 18.8, 22.0 25.4, 25.2 18.5 C 19.1 24.3, 29.2 89.3, 15.4 86.4 C 33.7 77.8, 40.4 68.9, 41.8 56.1 C 40.2 62.0, 59.9 74.6, 54.3 70.2 C 39.3 70.0, 61.0 89.7, 47.6 97.6 C 38.6 100.0, 88.7 65.7, 76.4 64.0 Z" fill="none" fill-opacity="0.85" stroke="hsl(242, 72%, 49%)" stroke-width="4.15"  transform="translate(99.4 91.8) rotate(135.1) scale(1.27 1.26)" />
<circle cx="86.6" cy="45.8" r="1.3" fill="url(#g0)" fill-opacity="0.87"  transform="translate(66.0 93.3) rotate(252.5) scale(1.42 0.84)" />
<g opacity="0.075">
<rect x="0" y="0" width="1" height="100" fill="black" />
<rect x="22" y="0" width="1" height="100" fill="black" />
<rect x="44" y="0" width="1" height="100" fill="black" />
<rect x="66" y="0" width="1" height="100" fill="black" />
<rect x="88" y="0" width="1" height="100" fill="black" />
<rect x="0" y="0" width="100" height="1" fill="black" />
<rect x="0" y="22" width="100" height="1" fill="black" />
<rect x="0" y="44" width="100" height="1" fill="black" />
<rect x="0" y="66" width="100" height="1" fill="black" />
<rect x="0" y="88" width="100" height="1" fill="black" />
</g>

</svg>
