<?xml version="1.0" encoding="UTF-8"?>
<svg xmlns="http://www.w3.org/2000/svg" width="100" height="100" viewBox="0 0 100 100">
<defs>
<linearGradient id="g0" x1="0%" y1="0%" x2="100%" y2="100%">
<stop offset="0.0%" stop-color="hsl(106, 75%, 59%)" />
<stop offset="33.3%" stop-color="hsl(183, 71%, 60%)" />
<stop offset="66.7%" stop-color="hsl(242, 72%, 49%)" />
<stop offset="100.0%" stop-color="hsl(322, 74%, 44%)" />
</linearGradient>
<linearGradient id="g1" x1="0%" y1="0%" x2="100%" y2="100%">
<stop offset="0.0%" stop-color="hsl(290, 83%, 63%)" />
<stop offset="33.3%" stop-color="hsl(2, 82%, 55%)" />
<stop offset="66.7%" stop-color="hsl(86, 72%, 68%)" />
<stop offset="100.0%" stop-color="hsl(83, 65%, 44%)" />
</linearGradient>
<linearGradient id="g2" x1="0%" y1="0%" x2="100%" y2="100%">
<stop offset="0.0%" stop-color="hsl(40, 53%, 69%)" />
<stop offset="33.3%" stop-color="hsl(104, 72%, 65%)" />
<stop offset="66.7%" stop-color="hsl(144, 86%, 72%)" />
<stop offset="100.0%" stop-color="hsl(151, 70%, 62%)" />
</linearGradient>
</defs>

<circle cx="95.3" cy="13.4" r="0.7" fill="hsl(106, 75%, 59%)" fill-opacity="0.67"  transform="translate(84.4 57.2) rotate(159.4) scale(1.25 1.71)" />
<rect x="8.7" y="42.6" width="36.1" height="38.3" rx="0" fill="hsl(144, 86%, 72%)" fill-opacity="0.49" stroke="hsl(144, 86%, 72%)" stroke-width="4.8"   />
<rect x="21.2" y="9.9" width="22.7" height="14.9" rx="0" fill="hsl(86, 72%, 68%)" fill-opacity="0.81" stroke="hsl(2, 82%, 55%)" stroke-width="5.0"   />
<rect x="16.9" y="81.0" width="38.0" height="10.8" rx="0" fill="hsl(151, 70%, 62%)" fill-opacity="0.20"    />
<circle cx="16.6" cy="91.9" r="1.1" fill="hsl(40, 53%, 69%)" fill-opacity="0.54"   />
<rect x="47.7" y="15.7" width="42.5" height="11.2" rx="17.1" fill="hsl(106, 75%, 59%)" fill-opacity="0.80"    />
<path d="M 89.8 91.6 C 89.1 88.9, 8.5 21.8, 0.9 15.6 C 2.8 16.2, 21.7 38.4, 30.2 33.4 C 15.1 20.4, 53.6 53.6, 40.8 42.8 C 38.3 25.7, 72.7 26.6, 77.0 38.7 C 78.1 52.0, 72.2 53.7, 66.9 60.5 Z" fill="hsl(151, 70%, 62%)" fill-opacity="0.95" stroke="none" stroke-width="1.26"  transform="translate(56.0 54.6) rotate(327.6) scale(1.83 0.76)" />
<rect x="49.3" y="44.5" width="20.0" height="31.5" rx="15.7" fill="hsl(40, 53%, 69%)" fill-opacity="0.30"   transform="translate(30.7 93.2) rotate(185.7) scale(1.39 1.99)" />
<rect x="24.7" y="28.1" width="46.7" height="21.4" rx="12.1" fill="none" fill-opacity="0.86"   transform="translate(93.7 45.6) rotate(319.2) scale(1.47 1.45)" />
<path d="M 94.1 55.1 C 100.0 42.4, 62.6 27.9, 67.9 22.8 C 63.3 41.1, 46.9 52.0, 40.9 65.6 C 50.5 61.0, 70.0 74.0, 73.2 76.5 C 84.4 78.3, 69.3 53.9, 69.1 54.9 C 59.9 39.2, 43.7 66.7, 44.3 54.3 C 41.2 41.3, 60.5 1.4, 61.3 14.3 " fill="hsl(40, 53%, 69%)" fill-opacity="0.76" stroke="none" stroke-width="1.01"  transform="translate(21.8 28.5) rotate(272.8) scale(1.89 1.70)" />
<circle cx="76.8" cy="99.7" r="0.7" fill="hsl(106, 75%, 59%)" fill-opacity="0.63"  transform="translate(4.3 35.4) rotate(329.5) scale(0.64 1.45)" />
<circle cx="47.9" cy="99.9" r="1.4" fill="hsl(2, 82%, 55%)" fill-opacity="0.66"   />
<rect x="41.1" y="48.2" width="26.6" height="39.3" rx="0" fill="none" fill-opacity="0.48"    />
<circle cx="21.7" cy="62.5" r="0.4" fill="hsl(104, 72%, 65%)" fill-opacity="0.41"  transform="translate(36.4 86.3) rotate(3.9) scale(1.40 0.95)" />
</svg>
