<?xml version="1.0" encoding="UTF-8"?>
<svg xmlns="http://www.w3.org/2000/svg" width="100" height="100" viewBox="0 0 100 100">
<defs>
<linearGradient id="g0" x1="0%" y1="0%" x2="100%" y2="100%">
<stop offset="0.0%" stop-color="hsl(106, 75%, 59%)" />
<stop offset="33.3%" stop-color="hsl(183, 71%, 60%)" />
<stop offset="66.7%" stop-color="hsl(242, 72%, 49%)" />
<stop offset="100.0%" stop-color="hsl(322, 74%, 44%)" />
</linearGradient>
<linearGradient id="g1" x1="0%" y1="0%" x2="100%" y2="100%">
<stop offset="0.0%" stop-color="hsl(290, 83%, 63%)" />
<stop offset="33.3%" stop-color="hsl(2, 82%, 55%)" />
<stop offset="66.7%" stop-color="hsl(86, 72%, 68%)" />
<stop offset="100.0%" stop-color="hsl(83, 65%, 44%)" />
</linearGradient>
<linearGradient id="g2" x1="0%" y1="0%" x2="100%" y2="100%">
<stop offset="0.0%" stop-color="hsl(40, 53%, 69%)" />
<stop offset="33.3%" stop-color="hsl(104, 72%, 65%)" />
<stop offset="66.7%" stop-color="hsl(144, 86%, 72%)" />
<stop offset="100.0%" stop-color="hsl(151, 70%, 62%)" />
</linearGradient>
<filter id="f1" x="-20%" y="-20%" width="140%" height="140%">
  <feGaussianBlur stdDeviation="1.8825311075657754" />
</filter>

</defs>

<path d="M 41.7 66.4 C 43.6 83.1, 74.8 78.3, 66.7 69.2 C 76.0 84.1, 36.2 44.3, 46.8 32.4 C 53.8 24.3, 12.9 51.0, 20.6 47.0 C 23.3 49.7, 94.0 26.3, 98.7 35.5 C 100.0 33.3, 82.4 64.2, 79.0 51.0 C 94.4 54.3, 21.1 77.5, 18.5 65.3 C 0.0 61.9, 41.6 59.8, 43.8 71.9 C 53.3 56.1, 73.5 83.1, 68.0 76.8 C 74.0 84.1, 45.1 58.4, 37.5 65.5 C 50.4 84.2, 33.4 31.8, 35.3 39.3 Z" fill="hsl(183, 71%, 60%)" fill-opacity="0.52" stroke="none" stroke-width="1.44"  transform="translate(26.6 19.8) rotate(110.1) scale(0.98 0.70)" />
<path d="M 3.5 60.5 C 13.4 70.3, 35.7 10.7, 47.7 23.3 C 58.4 39.4, 37.7 84.3, 48.1 70.0 C 40.0 81.3, 43.3 80.5, 29.5 86.6 C 40.0 93.6, 46.6 59.4, 43.4 71.0 C 52.5 58.4, 34.2 70.0, 26.7 69.1 C 15.0 67.0, 100.0 42.7, 93.8 43.7 C 88.5 34.5, 93.0 22.3, 80.3 18.6 C 79.4 17.7, 95.5 96.7, 92.6 86.6 Z" fill="hsl(40, 53%, 69%)" fill-opacity="0.57" stroke="none" stroke-width="4.79"  transform="translate(88.1 38.7) rotate(48.2) scale(1.87 2.00)" />
<circle cx="0.9" cy="40.4" r="3.1" fill="url(#g0)" fill-opacity="0.79"  transform="translate(20.3 56.9) rotate(203.8) scale(1.31 1.96)" />
<rect x="65.8" y="61.8" width="22.5" height="31.9" rx="0" fill="none" fill-opacity="0.99"    />
<path d="M 89.9 7.3 C 74.9 0.0, 44.7 21.4, 40.4 35.3 C 24.4 22.5, 100.0 0.0, 97.8 4.6 C 100.0 0.0, 59.9 57.6, 67.7 57.9 C 70.0 65.2, 81.0 20.6, 72.1 15.1 C 68.7 31.2, 9.1 21.4, 14.5 30.9 C 9.0 49.0, 0.0 7.0, 7.4 1.2 C 0.0 0.0, 0.0 44.1, 4.9 44.6 Z" fill="none" fill-opacity="0.71" stroke="hsl(144, 86%, 72%)" stroke-width="1.90"  transform="translate(99.7 28.5) rotate(278.2) scale(1.01 1.79)" />
<rect x="15.0" y="76.9" width="32.3" height="23.1" rx="0" fill="hsl(2, 82%, 55%)" fill-opacity="0.41"   transform="translate(20.5 35.0) rotate(291.6) scale(1.98 0.73)" />
<path d="M 69.0 18.9 C 61.9 19.9, 74.1 57.7, 59.2 69.4 C 46.9 68.1, 77.1 58.8, 68.2 71.6 C 52.3 56.7, 21.6 66.3, 14.5 61.1 C 13.6 55.9, 27.2 47.1, 27.7 61.4 C 31.8 66.3, 32.4 81.5, 37.6 79.5 C 41.2 98.4, 64.2 38.2, 70.2 29.9 C 64.1 45.0, 56.8 18.0, 49.2 6.6 C 42.3 0.0, 24.9 43.5, 32.4 52.9 Z" fill="hsl(2, 82%, 55%)" fill-opacity="0.96" stroke="none" stroke-width="1.00"  transform="translate(66.5 11.9) rotate(354.6) scale(0.92 1.82)" />
<path d="M 72.7 85.9 C 67.1 87.1, 5.6 51.3, 0.1 45.7 C 12.1 56.7, 76.1 25.4, 75.9 20.2 C 74.4 6.1, 23.7 71.4, 29.8 68.3 C 35.5 78.0, 88.6 78.5, 96.1 80.7 C 77.1 99.7, 72.2 58.7, 85.1 65.5 C 67.5 58.8, 96.5 72.5, 91.4 70.5 C 96.8 74.3, 52.5 96.0, 48.4 83.7 C 29.6 86.5, 7.2 10.0, 10.3 5.4 Z" fill="none" fill-opacity="0.37" stroke="hsl(290, 83%, 63%)" stroke-width="0.88" filter="url(#f1)" transform="translate(31.7 33.6) rotate(176.6) scale(0.51 1.78)" />
<path d="M 89.2 51.0 C 82.4 58.0, 11.9 67.2, 11.9 58.3 C 28.2 72.8, 52.4 57.8, 49.3 69.7 C 48.9 77.2, 4.1 76.0, 6.7 71.0 C 0.0 56.2, 57.7 69.6, 65.1 77.6 C 51.1 77.7, 58.1 94.2, 47.9 90.2 C 32.2 100.0, 66.0 66.7, 61.0 73.5 Z" fill="hsl(151, 70%, 62%)" fill-opacity="0.84" stroke="none" stroke-width="5.25" filter="url(#f1)" transform="translate(16.4 16.9) rotate(303.7) scale(1.06 1.51)" />
<path d="M 78.7 55.0 C 73.2 47.2, 22.4 27.0, 33.7 19.5 C 36.6 28.7, 22.3 80.6, 9.7 71.7 C 17.4 63.4, 66.6 21.2, 54.4 13.5 C 64.7 32.5, 79.6 58.5, 78.8 53.2 C 84.9 45.1, 81.1 35.3, 76.3 23.8 C 66.5 14.7, 89.2 11.2, 85.1 5.4 C 74.1 20.5, 95.4 84.8, 97.5 97.8 C 100.0 94.9, 86.0 81.7, 92.1 85.9 C 94.8 84.9, 41.8 29.1, 48.6 21.7 Z" fill="hsl(144, 86%, 72%)" fill-opacity="0.83" stroke="none" stroke-width="4.83"  transform="translate(96.8 66.6) rotate(126.4) scale(1.97 0.59)" />
<path d="M 25.2 21.7 C 33.0 6.7, 54.9 55.9, 44.0 61.7 C 53.8 59.8, 78.1 13.7, 82.5 14.4 C 81.0 33.3, 85.7 30.6, 79.7 23.2 C 68.1 13.1, 92.6 17.4, 92.1 4.4 C 100.0 0.0, 2.7 49.1, 4.3 55.0 C 4.2 62.9, 24.2 53.2, 22.2 62.4 C 6.9 82.0, 94.4 30.2, 94.9 21.3 C 86.1 15.0, 21.3 74.3, 29.3 68.8 C 30.7 70.9, 83.9 47.2, 75.0 39.5 Z" fill="hsl(83, 65%, 44%)" fill-opacity="0.96" stroke="none" stroke-width="1.15" filter="url(#f1)" transform="translate(34.4 38.4) rotate(162.9) scale(0.92 0.86)" />
<path d="M 6.9 41.5 C 0.0 41.9, 29.8 47.7, 29.2 58.6 C 31.0 71.5, 83.4 9.5, 76.7 1.2 C 66.0 0.0, 64.5 23.8, 77.4 18.6 C 72.2 11.7, 30.6 36.3, 43.1 34.8 C 32.6 17.2, 12.9 68.9, 10.3 62.8 C 0.0 77.8, 100.0 66.9, 97.7 71.7 C 100.0 81.1, 97.9 17.0, 85.5 23.1 Z" fill="none" fill-opacity="0.86" stroke="hsl(83, 65%, 44%)" stroke-width="2.17"  transform="translate(32.3 26.7) rotate(352.2) scale(1.55 0.56)" />
<rect x="18.7" y="31.7" width="48.6" height="36.6" rx="0" fill="hsl(151, 70%, 62%)" fill-opacity="0.82" stroke="hsl(40, 53%, 69%)" stroke-width="4.0"  transform="translate(78.7 60.2) rotate(54.4) scale(1.56 1.66)" />
<circle cx="85.0" cy="4.2" r="7.0" fill="hsl(242, 72%, 49%)" fill-opacity="0.98"  transform="translate(33.9 74.8) rotate(16.9) scale(1.08 0.79)" />
<path d="M 32.6 88.7 C 23.8 89.3, 57.5 87.7, 48.5 87.6 C 63.1 85.6, 96.7 59.0, 87.7 63.1 C 78.4 56.1, 78.7 43.8, 90.6 31.2 C 100.0 11.3, 41.8 80.8, 55.6 94.3 C 43.2 97.5, 0.0 15.5, 9.6 21.0 C 17.5 30.6, 0.0 21.2, 3.9 22.6 C 0.0 35.2, 33.8 24.9, 36.0 32.8 Z" fill="none" fill-opacity="0.51" stroke="hsl(106, 75%, 59%)" stroke-width="0.89"  transform="translate(81.2 17.3) rotate(348.6) scale(0.65 0.51)" />
<rect x="32.0" y="45.0" width="41.1" height="35.1" rx="0" fill="hsl(290, 83%, 63%)" fill-opacity="0.24"    />
<path d="M 99.6 8.8 C 89.6 17.9, 6.4 100.0, 3.3 99.4 C 0.0 87.5, 57.2 48.2, 48.7 41.6 C 58.3 41.5, 100.0 11.2, 99.8 1.1 C 82.7 0.0, 58.4 46.8, 59.5 49.9 C 74.0 42.8, 33.4 74.1, 19.6 65.7 C 2.4 84.7, 84.9 13.5, 73.3 28.5 " fill="hsl(40, 53%, 69%)" fill-opacity="0.62" stroke="none" stroke-width="5.16"  transform="translate(74.6 64.8) rotate(79.9) scale(0.75 0.90)" />
<path d="M 29.2 92.7 C 46.1 77.3, 31.0 27.4, 19.3 41.7 C 13.1 50.1, 70.3 11.1, 82.8 11.1 C 90.1 0.0, 46.7 93.7, 46.7 87.4 C 52.3 96.5, 49.5 81.5, 54.1 93.2 C 57.9 78.3, 18.2 18.9, 9.8 9.5 C 5.8 24.3, 91.9 98.0, 88.5 96.3 Z" fill="none" fill-opacity="0.63" stroke="hsl(40, 53%, 69%)" stroke-width="4.68" filter="url(#f1)"  />
<path d="M 88.9 39.0 C 75.6 30.8, 100.0 24.6, 96.8 25.7 C 80.0 12.7, 0.0 0.3, 1.6 1.5 C 18.1 2.5, 1.7 8.9, 7.9 1.2 C 1.3 10.3, 13.1 25.1, 14.9 29.5 C 0.0 33.7, 64.9 72.8, 79.7 71.8 C 91.9 52.1, 7.4 69.3, 1.3 80.9 Z" fill="hsl(151, 70%, 62%)" fill-opacity="0.90" stroke="none" stroke-width="4.69"  transform="translate(74.2 70.7) rotate(115.3) scale(1.41 1.49)" />
<rect x="59.8" y="73.3" width="33.3" height="15.4" rx="17.9" fill="hsl(144, 86%, 72%)" fill-opacity="0.44" stroke="hsl(104, 72%, 65%)" stroke-width="1.2"  transform="translate(29.6 62.9) rotate(299.1) scale(0.84 1.80)" />
<path d="M 61.0 9.8 C 58.1 26.7, 49.5 0.0, 40.2 1.6 C 45.5 4.7, 26.9 47.7, 26.6 35.5 C 40.3 40.4, 73.3 0.0, 64.0 3.1 C 73.3 19.0, 64.7 64.2, 56.3 57.6 C 74.5 54.7, 85.4 7.5, 82.2 19.8 C 94.3 9.0, 96.3 52.4, 92.7 46.1 Z" fill="hsl(2, 82%, 55%)" fill-opacity="0.98" stroke="none" stroke-width="5.05"   />
<rect x="38.8" y="8.0" width="35.9" height="36.3" rx="0" fill="none" fill-opacity="0.22"   transform="translate(30.5 21.5) rotate(211.8) scale(0.87 0.99)" />
<path d="M 90.4 99.4 C 85.1 81.0, 24.8 48.3, 21.6 43.0 C 25.5 43.5, 2.6 0.0, 11.7 13.2 C 31.2 27.4, 63.3 34.8, 76.5 30.5 C 57.3 39.4, 63.2 100.0, 62.3 93.3 C 81.6 88.8, 74.6 46.9, 71.5 51.8 C 66.6 46.0, 1.9 44.9, 14.7 55.4 C 27.9 42.4, 15.2 97.2, 21.6 99.0 C 38.7 84.4, 75.3 63.5, 86.9 57.0 Z" fill="hsl(151, 70%, 62%)" fill-opacity="0.49" stroke="none" stroke-width="2.48"  transform="translate(25.7 54.1) rotate(151.7) scale(1.32 0.58)" />
<path d="M 37.4 27.7 C 28.0 39.1, 35.3 61.2, 22.1 68.8 C 23.8 50.7, 14.0 59.6, 13.3 52.0 C 0.2 65.6, 8.1 8.7, 1.8 15.3 C 0.0 16.6, 42.1 90.0, 54.4 93.2 C 53.6 100.0, 79.3 70.5, 81.8 67.9 C 73.1 77.7, 0.0 97.0, 3.2 88.1 C 0.0 77.2, 73.7 36.6, 81.6 41.0 " fill="none" fill-opacity="0.30" stroke="hsl(242, 72%, 49%)" stroke-width="2.35"   />
<path d="M 15.7 55.2 C 5.6 44.7, 29.8 1.9, 23.9 9.3 C 38.5 7.3, 8.4 84.2, 5.0 76.1 C 4.0 79.4, 25.2 56.6, 10.2 53.2 C 30.1 62.2, 44.8 82.6, 37.7 96.7 C 48.4 87.6, 82.7 86.8, 72.4 77.1 C 57.2 96.4, 38.5 21.5, 48.7 33.2 Z" fill="hsl(86, 72%, 68%)" fill-opacity="0.74" stroke="none" stroke-width="3.03"  transform="translate(13.6 48.5) rotate(102.0) scale(1.86 0.99)" />
<rect x="48.9" y="52.0" width="21.2" height="34.5" rx="6.6" fill="hsl(106, 75%, 59%)" fill-opacity="0.86" stroke="hsl(242, 72%, 49%)" stroke-width="1.4"  transform="translate(33.0 72.1) rotate(39.5) scale(1.94 0.97)" />
<path d="M 8.1 24.7 C 17.7 34.5, 22.3 99.8, 19.5 96.5 C 21.2 100.0, 100.0 0.0, 99.4 6.3 C 100.0 6.4, 100.0 93.5, 97.5 84.7 C 96.7 94.4, 77.5 23.9, 77.7 27.5 C 65.6 15.3, 99.8 48.3, 87.4 42.2 C 93.6 27.9, 94.4 100.0, 99.4 98.0 Z" fill="none" fill-opacity="0.32" stroke="hsl(40, 53%, 69%)" stroke-width="2.39"   />
<rect x="14.7" y="71.4" width="26.4" height="18.3" rx="0" fill="hsl(242, 72%, 49%)" fill-opacity="0.89"   transform="translate(55.3 93.4) rotate(15.1) scale(1.92 0.75)" />
<path d="M 16.7 54.8 C 30.4 51.4, 8.2 26.3, 14.1 23.2 C 1.1 10.1, 0.0 83.2, 7.2 95.5 C 5.1 88.2, 65.2 32.3, 63.2 30.6 C 78.5 11.7, 71.9 68.3, 57.5 70.7 C 72.1 58.1, 85.4 89.7, 85.8 97.8 C 67.6 100.0, 83.0 60.7, 80.1 63.4 Z" fill="hsl(151, 70%, 62%)" fill-opacity="0.78" stroke="none" stroke-width="0.90"  transform="translate(65.9 85.2) rotate(249.5) scale(1.44 1.28)" />
<circle cx="19.1" cy="11.9" r="6.2" fill="url(#g0)" fill-opacity="0.73"  transform="translate(13.8 56.5) rotate(330.7) scale(0.95 1.63)" />
<path d="M 57.9 89.2 C 53.0 81.9, 39.1 35.8, 25.6 41.4 C 20.1 40.8, 44.8 55.7, 42.2 48.3 C 30.5 53.5, 11.8 98.2, 14.3 84.7 C 0.7 69.9, 43.1 44.2, 45.1 39.9 C 25.6 30.2, 8.4 22.0, 1.5 27.9 C 0.0 46.9, 100.0 59.6, 95.6 66.9 C 100.0 47.0, 42.2 24.1, 39.9 24.3 C 24.5 13.3, 8.3 61.4, 16.7 66.6 C 0.1 56.2, 20.2 93.3, 19.9 79.1 Z" fill="none" fill-opacity="0.62" stroke="hsl(242, 72%, 49%)" stroke-width="3.10"  transform="translate(26.9 21.4) rotate(13.2) scale(0.81 1.86)" />
<path d="M 50.7 95.6 C 31.5 79.6, 36.5 0.0, 35.3 1.2 C 39.5 7.1, 4.8 73.6, 13.9 83.6 C 0.0 83.8, 82.4 8.3, 68.5 9.9 C 58.7 4.2, 27.8 0.0, 36.5 3.0 C 45.7 3.5, 28.2 14.0, 36.5 28.9 C 18.1 10.1, 26.0 41.3, 19.6 54.1 C 20.0 58.4, 11.6 25.9, 25.9 35.5 C 32.7 32.4, 11.9 0.0, 6.9 4.7 C 4.8 0.0, 81.6 62.6, 84.6 57.4 Z" fill="hsl(40, 53%, 69%)" fill-opacity="0.34" stroke="none" stroke-width="2.97"  transform="translate(92.5 20.6) rotate(209.0) scale(0.90 0.94)" />
<rect x="32.1" y="16.1" width="39.4" height="31.6" rx="6.5" fill="none" fill-opacity="0.95"   transform="translate(82.9 76.9) rotate(4.2) scale(0.66 1.95)" />
<path d="M 43.1 26.9 C 34.7 28.0, 3.5 89.9, 14.7 94.6 C 3.4 93.7, 31.8 83.1, 43.5 69.9 C 49.2 83.1, 20.9 36.0, 34.8 25.2 C 17.1 18.7, 78.3 26.2, 81.1 33.4 C 99.0 31.0, 60.6 58.0, 48.9 63.9 C 31.6 80.4, 24.7 0.0, 16.7 1.8 C 24.3 15.9, 61.0 65.5, 74.0 72.3 C 60.8 69.8, 42.4 41.1, 31.1 43.3 C 33.8 40.7, 83.6 0.0, 82.8 7.3 C 66.6 0.0, 37.6 66.5, 34.6 65.3 Z" fill="hsl(290, 83%, 63%)" fill-opacity="0.97" stroke="none" stroke-width="0.85" filter="url(#f1)" transform="translate(54.7 22.9) rotate(128.5) scale(1.49 1.60)" />
<circle cx="52.1" cy="16.6" r="2.2" fill="hsl(290, 83%, 63%)" fill-opacity="0.86" filter="url(#f1)" transform="translate(31.0 91.1) rotate(127.5) scale(0.59 1.49)" />
<path d="M 0.6 14.7 C 0.0 3.6, 89.9 39.8, 82.9 50.5 C 68.1 57.2, 15.0 93.7, 29.4 93.7 C 46.4 93.8, 12.1 15.6, 23.0 9.8 C 18.0 7.2, 63.8 94.6, 68.8 94.8 C 71.8 100.0, 26.7 39.6, 33.1 46.0 C 13.3 30.3, 62.1 35.6, 64.6 39.8 C 83.9 40.7, 37.6 94.4, 39.0 90.2 C 34.3 98.3, 58.0 42.8, 65.0 48.0 Z" fill="hsl(183, 71%, 60%)" fill-opacity="0.80" stroke="none" stroke-width="1.34"  transform="translate(38.7 71.0) rotate(228.9) scale(1.67 1.35)" />
<path d="M 71.5 33.7 C 53.1 32.0, 23.0 37.9, 30.4 23.3 C 14.0 13.6, 21.0 96.3, 34.6 96.8 C 46.5 87.2, 31.1 20.8, 33.7 14.8 C 40.4 10.2, 16.2 100.0, 5.4 96.0 C 0.4 88.9, 32.1 23.8, 21.7 15.7 C 28.0 10.8, 2.8 46.3, 6.3 58.9 C 0.0 71.3, 13.8 90.5, 12.1 92.0 C 31.5 85.2, 66.6 20.5, 55.4 11.5 C 68.6 3.9, 37.6 32.1, 46.6 32.8 Z" fill="hsl(104, 72%, 65%)" fill-opacity="0.58" stroke="none" stroke-width="3.86"   />
<rect x="48.1" y="11.9" width="24.7" height="15.0" rx="13.3" fill="hsl(183, 71%, 60%)" fill-opacity="0.98" stroke="hsl(106, 75%, 59%)" stroke-width="3.2"   />
<path d="M 10.0 47.0 C 7.3 50.9, 65.7 79.6, 71.3 86.3 C 55.8 79.6, 80.6 46.7, 91.8 38.1 C 96.9 19.7, 38.0 53.8, 48.6 41.8 C 48.5 52.4, 47.0 59.0, 60.2 47.4 C 59.4 34.9, 68.8 100.0, 56.6 97.9 C 54.8 100.0, 78.0 100.0, 74.6 99.8 " fill="none" fill-opacity="0.73" stroke="hsl(83, 65%, 44%)" stroke-width="5.18"  transform="translate(67.3 80.7) rotate(92.0) scale(1.94 0.97)" />
<path d="M 43.7 17.9 C 51.6 33.6, 25.1 53.0, 37.5 55.0 C 52.2 59.2, 66.4 10.0, 70.6 18.8 C 80.4 26.1, 5.8 18.4, 4.4 23.2 C 0.0 17.3, 49.3 62.8, 61.2 59.8 C 55.8 69.2, 21.5 46.0, 13.3 32.3 C 2.2 31.5, 69.2 27.5, 62.1 16.4 C 72.9 31.6, 65.8 64.7, 53.4 58.5 C 56.1 66.8, 85.6 91.2, 99.6 95.3 " fill="hsl(144, 86%, 72%)" fill-opacity="0.63" stroke="none" stroke-width="5.15"   />
<path d="M 50.6 10.1 C 51.5 8.3, 75.8 62.1, 82.0 74.1 C 90.5 87.7, 59.6 9.6, 63.0 1.9 C 78.2 0.0, 42.8 58.9, 29.7 61.8 C 44.3 68.2, 40.1 13.3, 45.2 27.4 C 27.1 11.2, 70.9 63.8, 82.3 70.6 C 95.3 77.9, 3.2 38.5, 3.3 46.6 C 0.4 34.7, 67.2 78.6, 77.4 92.8 C 87.6 100.0, 87.1 19.4, 75.4 30.1 Z" fill="hsl(106, 75%, 59%)" fill-opacity="0.61" stroke="none" stroke-width="4.91"  transform="translate(24.0 45.0) rotate(94.1) scale(1.17 1.61)" />
<path d="M 47.7 96.9 C 54.4 83.6, 5.7 27.8, 19.4 26.7 C 4.9 18.5, 59.4 55.6, 67.1 52.4 C 74.6 44.3, 30.2 38.4, 38.3 26.1 C 34.8 34.7, 78.5 4.0, 77.0 8.5 C 84.9 9.7, 0.0 0.0, 2.3 8.6 C 0.0 5.4, 22.9 44.9, 22.8 50.1 C 8.7 36.2, 19.2 67.2, 5.2 63.7 C 17.5 72.8, 27.6 31.3, 32.6 32.0 C 38.5 22.7, 55.4 38.2, 45.1 41.0 Z" fill="hsl(86, 72%, 68%)" fill-opacity="0.56" stroke="none" stroke-width="2.96"   />
<path d="M 20.6 73.3 C 30.3 89.3, 23.7 22.3, 24.5 36.4 C 36.0 38.0, 53.7 79.4, 50.2 68.3 C 55.6 82.3, 34.3 63.4, 46.4 74.9 C 58.6 84.7, 33.8 65.5, 19.6 74.7 C 0.0 60.2, 40.2 18.6, 30.1 13.7 C 45.9 19.7, 31.1 94.8, 43.7 80.3 C 41.2 100.0, 56.4 45.7, 67.2 35.5 C 48.1 45.5, 42.4 47.7, 29.8 53.7 Z" fill="hsl(242, 72%, 49%)" fill-opacity="0.72" stroke="none" stroke-width="0.87"  transform="translate(4.4 22.4) rotate(271.2) scale(1.78 1.66)" />
<path d="M 37.5 95.5 C 46.2 100.0, 17.1 75.9, 2.4 65.7 C 2.3 49.7, 70.1 71.6, 83.9 80.5 C 100.0 79.8, 68.7 44.3, 74.0 33.0 C 54.6 19.6, 74.5 95.8, 67.5 91.4 C 51.5 100.0, 97.5 59.1, 82.9 64.6 C 96.0 51.1, 68.1 28.6, 62.1 43.4 C 61.2 33.1, 71.8 71.6, 57.3 72.8 C 56.7 85.2, 53.5 62.6, 56.5 72.5 C 48.6 91.1, 0.0 0.0, 0.7 1.1 C 0.0 0.0, 92.2 8.8, 79.6 13.0 Z" fill="none" fill-opacity="0.88" stroke="hsl(40, 53%, 69%)" stroke-width="4.05"  transform="translate(62.4 49.8) rotate(136.8) scale(0.58 1.98)" />
<path d="M 6.6 28.2 C 0.0 10.7, 83.7 63.0, 97.6 67.6 C 100.0 69.8, 49.2 0.0, 48.4 9.0 C 54.3 0.0, 97.0 53.6, 87.9 39.2 C 100.0 40.1, 25.2 8.5, 11.3 8.2 C 30.8 18.4, 77.5 48.7, 72.5 44.4 C 82.4 30.6, 39.7 28.0, 30.1 25.6 Z" fill="none" fill-opacity="0.33" stroke="hsl(151, 70%, 62%)" stroke-width="3.15"  transform="translate(75.6 59.4) rotate(159.1) scale(0.65 0.75)" />
<rect x="36.1" y="19.2" width="34.1" height="12.8" rx="16.1" fill="none" fill-opacity="0.82"   transform="translate(75.9 11.2) rotate(358.7) scale(1.27 1.98)" />
<rect x="29.5" y="63.6" width="48.5" height="14.8" rx="15.1" fill="none" fill-opacity="0.61"    />
<rect x="29.5" y="63.4" width="26.3" height="30.6" rx="0" fill="hsl(40, 53%, 69%)" fill-opacity="0.47"   transform="translate(74.1 65.9) rotate(20.9) scale(1.28 1.25)" />
<path d="M 59.3 97.7 C 72.7 100.0, 70.1 12.3, 58.5 10.3 C 45.2 26.7, 100.0 94.2, 95.0 95.9 C 100.0 100.0, 43.6 78.5, 32.3 68.5 C 44.9 53.9, 47.3 90.1, 52.7 91.1 C 71.4 85.2, 86.4 87.3, 92.9 92.0 C 78.0 100.0, 23.5 9.7, 27.7 8.2 C 27.2 0.0, 63.8 93.6, 64.0 78.9 C 80.3 73.8, 100.0 74.4, 87.4 63.2 C 87.8 62.2, 11.9 31.6, 16.0 29.3 Z" fill="none" fill-opacity="0.37" stroke="hsl(104, 72%, 65%)" stroke-width="5.03"  transform="translate(98.3 53.0) rotate(187.6) scale(1.51 1.02)" />
<rect x="25.7" y="48.6" width="26.7" height="35.8" rx="0" fill="hsl(290, 83%, 63%)" fill-opacity="0.29" stroke="hsl(290, 83%, 63%)" stroke-width="3.9"  transform="translate(40.0 64.5) rotate(274.7) scale(1.40 0.96)" />
<path d="M 89.3 81.4 C 89.7 78.2, 33.2 22.5, 35.3 25.7 C 44.6 27.5, 47.9 0.0, 42.6 5.6 C 25.6 23.1, 71.0 36.1, 84.9 30.6 C 65.3 12.0, 100.0 28.2, 95.0 20.3 C 80.7 0.4, 58.3 31.5, 56.1 38.4 C 55.0 19.8, 8.9 7.4, 9.1 10.1 C 5.3 0.0, 64.9 20.0, 74.9 26.7 C 93.3 31.3, 77.4 58.2, 66.5 51.1 Z" fill="hsl(86, 72%, 68%)" fill-opacity="0.84" stroke="none" stroke-width="5.08"   />
<rect x="37.2" y="71.3" width="37.8" height="24.6" rx="0" fill="none" fill-opacity="0.24"   transform="translate(85.7 32.0) rotate(254.3) scale(1.25 1.76)" />
<rect x="38.0" y="0.8" width="38.9" height="17.2" rx="0" fill="hsl(183, 71%, 60%)" fill-opacity="0.46"   transform="translate(26.2 28.9) rotate(258.9) scale(0.89 1.81)" />
<rect x="28.5" y="29.4" width="41.1" height="36.6" rx="0" fill="hsl(144, 86%, 72%)" fill-opacity="0.22" stroke="hsl(40, 53%, 69%)" stroke-width="1.3"  transform="translate(94.0 2.1) rotate(72.2) scale(1.17 1.26)" />
<path d="M 25.9 2.5 C 9.6 0.0, 93.3 54.2, 94.2 57.1 C 94.0 67.4, 0.0 24.1, 1.3 11.9 C 0.0 17.8, 73.2 53.6, 68.9 51.3 C 71.2 58.8, 54.5 20.9, 42.9 32.0 C 48.0 27.6, 100.0 15.8, 93.5 13.6 C 92.1 29.2, 45.2 47.1, 31.7 49.1 Z" fill="hsl(40, 53%, 69%)" fill-opacity="0.25" stroke="none" stroke-width="1.10"   />
<path d="M 54.6 96.3 C 49.5 81.1, 13.6 29.6, 16.0 34.7 C 21.0 49.6, 61.8 100.0, 48.9 89.9 C 45.5 100.0, 40.8 64.7, 33.2 51.6 C 46.2 46.0, 64.4 28.4, 64.3 19.4 C 76.0 0.0, 36.8 18.4, 28.5 10.4 C 30.3 10.2, 93.8 90.3, 95.1 92.5 C 100.0 100.0, 87.4 13.9, 95.1 9.6 C 90.4 7.4, 72.1 48.4, 65.7 38.0 Z" fill="hsl(40, 53%, 69%)" fill-opacity="0.60" stroke="none" stroke-width="1.20"   />
<circle cx="72.6" cy="52.5" r="10.2" fill="hsl(144, 86%, 72%)" fill-opacity="0.53"  transform="translate(73.4 99.1) rotate(90.6) scale(1.87 1.70)" />
<rect x="36.3" y="45.0" width="49.5" height="38.7" rx="12.5" fill="hsl(40, 53%, 69%)" fill-opacity="0.69"   transform="translate(70.2 0.0) rotate(131.0) scale(1.34 1.18)" />
<path d="M 40.5 4.2 C 48.7 11.8, 32.1 40.6, 21.0 32.4 C 22.0 17.4, 21.0 14.8, 21.0 28.6 C 13.1 22.0, 74.4 44.9, 67.9 59.7 C 68.8 72.3, 0.0 100.0, 4.9 93.8 C 8.7 100.0, 49.7 30.1, 61.1 30.1 C 68.0 48.1, 80.0 78.0, 74.9 66.1 C 73.2 47.8, 73.1 68.8, 77.1 80.1 Z" fill="hsl(242, 72%, 49%)" fill-opacity="0.59" stroke="none" stroke-width="1.13"  transform="translate(18.1 45.2) rotate(283.0) scale(1.48 1.51)" />
<path d="M 89.5 49.4 C 77.4 30.3, 63.7 82.8, 59.2 87.9 C 66.4 86.6, 34.6 66.5, 47.7 57.4 C 59.4 54.8, 37.0 20.4, 26.3 13.2 C 26.1 0.0, 37.9 0.0, 34.1 2.4 C 22.6 0.0, 70.6 98.8, 78.3 95.8 C 75.8 92.4, 46.4 58.6, 43.9 72.3 C 38.6 87.1, 20.3 0.0, 26.9 2.2 C 14.1 0.0, 4.8 55.5, 17.8 41.3 C 37.1 39.0, 43.5 41.5, 42.8 42.5 Z" fill="none" fill-opacity="0.75" stroke="hsl(183, 71%, 60%)" stroke-width="1.75"  transform="translate(59.0 7.6) rotate(90.9) scale(0.60 0.66)" />
<path d="M 94.7 66.2 C 84.9 63.0, 86.4 46.4, 96.6 55.1 C 86.3 41.2, 0.3 54.4, 9.5 56.6 C 12.7 56.1, 68.7 22.9, 63.2 17.0 C 55.5 26.1, 42.3 25.2, 35.7 17.4 C 46.7 27.6, 50.7 73.6, 48.9 65.8 C 32.9 57.5, 11.9 64.9, 5.8 60.2 C 0.0 57.3, 64.9 20.3, 66.4 9.5 C 70.9 12.5, 67.3 11.1, 53.9 18.5 C 67.0 31.0, 89.5 3.0, 79.3 15.1 Z" fill="none" fill-opacity="0.66" stroke="hsl(40, 53%, 69%)" stroke-width="2.22"  transform="translate(1.6 31.4) rotate(147.4) scale(1.63 0.82)" />
<rect x="11.6" y="71.5" width="40.7" height="17.7" rx="0" fill="hsl(2, 82%, 55%)" fill-opacity="0.20" stroke="hsl(2, 82%, 55%)" stroke-width="3.6" filter="url(#f1)" transform="translate(19.8 28.2) rotate(72.9) scale(0.54 1.68)" />
<circle cx="68.3" cy="53.9" r="6.9" fill="hsl(290, 83%, 63%)" fill-opacity="0.54" filter="url(#f1)" transform="translate(19.6 96.9) rotate(267.0) scale(1.79 1.73)" />
<circle cx="86.2" cy="62.0" r="3.2" fill="url(#g2)" fill-opacity="0.84"  transform="translate(71.0 0.3) rotate(8.6) scale(1.10 0.75)" />
<circle cx="54.6" cy="20.0" r="0.4" fill="url(#g0)" fill-opacity="0.97"   />
<rect x="5.4" y="4.5" width="30.8" height="28.8" rx="4.6" fill="hsl(322, 74%, 44%)" fill-opacity="0.21" stroke="hsl(106, 75%, 59%)" stroke-width="1.8"  transform="translate(5.2 2.6) rotate(104.8) scale(1.63 1.14)" />
<rect x="56.2" y="15.6" width="38.6" height="22.8" rx="7.8" fill="none" fill-opacity="0.56" stroke="hsl(151, 70%, 62%)" stroke-width="3.0"  transform="translate(55.9 66.7) rotate(270.7) scale(0.50 1.50)" />
<path d="M 45.2 82.0 C 62.1 88.7, 27.5 71.0, 23.1 76.4 C 22.1 64.5, 0.0 12.5, 1.2 27.4 C 0.0 20.4, 44.3 77.1, 34.1 67.8 C 51.9 68.7, 74.8 53.2, 81.9 67.2 C 76.6 50.1, 34.5 0.0, 45.7 4.5 C 38.0 0.0, 47.4 33.2, 57.1 41.7 C 40.6 47.1, 44.4 55.8, 40.9 48.9 C 50.3 35.1, 16.9 71.2, 24.4 74.1 C 7.8 62.5, 23.9 57.9, 25.8 50.6 Z" fill="none" fill-opacity="0.94" stroke="hsl(40, 53%, 69%)" stroke-width="3.62"  transform="translate(46.6 23.8) rotate(218.1) scale(0.65 1.07)" />
<rect x="56.6" y="65.0" width="37.5" height="22.5" rx="0" fill="none" fill-opacity="0.70"   transform="translate(66.7 28.9) rotate(97.3) scale(1.13 1.22)" />
<rect x="43.2" y="48.0" width="43.3" height="30.7" rx="0.2" fill="hsl(83, 65%, 44%)" fill-opacity="0.33" stroke="hsl(83, 65%, 44%)" stroke-width="3.8"  transform="translate(30.7 20.5) rotate(297.3) scale(1.86 0.58)" />
<circle cx="38.4" cy="20.3" r="2.9" fill="hsl(2, 82%, 55%)" fill-opacity="0.86" filter="url(#f1)"  />
<path d="M 37.7 30.6 C 46.9 18.5, 82.8 17.1, 87.7 16.7 C 100.0 16.5, 92.5 8.2, 84.5 21.3 C 68.2 32.3, 10.8 35.7, 20.3 43.5 C 16.3 57.9, 90.1 12.9, 99.9 17.4 C 96.7 23.6, 67.1 46.8, 81.0 57.8 C 65.1 43.3, 65.4 66.7, 76.5 62.3 C 60.5 44.9, 23.5 14.1, 36.8 17.4 Z" fill="hsl(83, 65%, 44%)" fill-opacity="0.91" stroke="none" stroke-width="2.27"  transform="translate(77.2 71.4) rotate(290.2) scale(0.59 0.82)" />
<path d="M 4.8 84.7 C 23.7 68.9, 72.3 31.8, 76.5 37.2 C 78.2 23.0, 57.5 67.1, 64.5 61.8 C 73.0 48.0, 14.6 62.2, 12.8 72.0 C 20.2 66.6, 3.5 80.9, 11.2 82.9 C 21.0 71.4, 38.5 29.9, 34.3 29.3 C 48.2 17.5, 55.9 43.4, 66.6 55.0 Z" fill="none" fill-opacity="0.44" stroke="hsl(183, 71%, 60%)" stroke-width="1.66"  transform="translate(43.9 53.4) rotate(323.8) scale(1.67 1.22)" />
<circle cx="76.4" cy="95.3" r="16.0" fill="hsl(322, 74%, 44%)" fill-opacity="0.57" filter="url(#f1)" transform="translate(33.5 87.6) rotate(177.7) scale(1.71 0.53)" />
<circle cx="70.0" cy="47.3" r="2.5" fill="url(#g1)" fill-opacity="0.69"  transform="translate(48.6 95.4) rotate(291.2) scale(1.79 1.40)" />
<path d="M 13.7 62.6 C 0.0 81.5, 82.8 37.7, 94.6 46.9 C 95.1 48.2, 20.4 44.2, 12.2 45.8 C 3.1 29.9, 92.6 0.0, 91.2 7.9 C 100.0 9.7, 17.6 97.3, 28.0 84.1 C 20.7 91.0, 37.5 40.7, 50.6 46.2 C 54.9 40.9, 8.9 0.0, 20.3 2.0 C 36.2 17.5, 0.0 66.2, 13.4 71.8 C 10.0 72.3, 77.2 44.5, 71.1 44.0 C 89.8 49.6, 81.2 51.2, 72.2 53.9 C 76.5 50.8, 1.2 0.0, 6.2 1.3 Z" fill="none" fill-opacity="0.61" stroke="hsl(322, 74%, 44%)" stroke-width="1.25" filter="url(#f1)" transform="translate(26.1 99.5) rotate(10.2) scale(0.89 1.76)" />
<path d="M 15.0 65.2 C 0.9 52.7, 22.7 84.7, 25.5 71.1 C 28.7 72.8, 73.5 44.3, 64.5 37.0 C 77.4 36.4, 45.3 51.9, 32.7 43.5 C 14.1 44.1, 97.7 27.2, 98.3 37.3 C 95.7 23.1, 47.3 47.1, 46.6 55.6 C 47.2 37.8, 51.7 87.5, 41.6 94.4 C 41.6 86.7, 25.3 0.0, 24.3 9.9 C 39.0 6.7, 45.6 18.0, 57.6 23.4 C 60.0 21.0, 55.5 81.6, 53.6 69.1 Z" fill="hsl(322, 74%, 44%)" fill-opacity="0.47" stroke="none" stroke-width="0.93" filter="url(#f1)" transform="translate(18.8 40.0) rotate(116.8) scale(0.56 0.60)" />
<rect x="24.5" y="46.5" width="37.6" height="32.6" rx="11.7" fill="hsl(183, 71%, 60%)" fill-opacity="0.51"   transform="translate(80.7 35.9) rotate(289.3) scale(1.11 1.94)" />
<rect x="57.2" y="8.4" width="33.9" height="28.6" rx="0" fill="none" fill-opacity="0.58" stroke="hsl(322, 74%, 44%)" stroke-width="3.8"  transform="translate(54.0 58.6) rotate(68.1) scale(1.61 1.21)" />
<path d="M 61.0 88.1 C 76.1 96.6, 67.6 29.3, 78.0 17.7 C 66.9 37.7, 42.7 69.7, 46.7 59.8 C 54.2 52.0, 47.0 51.1, 37.9 42.7 C 37.7 51.5, 58.2 53.2, 43.7 38.4 C 48.0 21.3, 31.5 67.8, 44.7 59.8 C 47.9 75.7, 43.4 68.4, 58.0 65.9 Z" fill="hsl(104, 72%, 65%)" fill-opacity="0.81" stroke="none" stroke-width="2.08"   />
<path d="M 38.2 94.0 C 25.5 100.0, 9.6 4.7, 7.9 1.4 C 10.6 16.6, 66.1 63.2, 61.2 69.8 C 78.0 85.9, 52.2 57.2, 65.6 65.6 C 79.9 75.8, 23.7 43.5, 25.0 46.5 C 42.0 47.9, 34.3 91.7, 25.3 94.9 C 19.3 78.9, 53.5 65.7, 39.2 71.8 C 53.8 73.0, 47.6 40.3, 40.1 31.1 C 29.3 49.1, 100.0 40.7, 96.4 38.5 Z" fill="hsl(83, 65%, 44%)" fill-opacity="0.49" stroke="none" stroke-width="4.44"  transform="translate(3.4 78.5) rotate(146.2) scale(1.76 1.31)" />
<rect x="19.9" y="52.3" width="28.6" height="38.8" rx="0" fill="none" fill-opacity="0.48" stroke="hsl(144, 86%, 72%)" stroke-width="3.2"  transform="translate(93.1 31.3) rotate(69.3) scale(1.02 0.61)" />
<circle cx="91.8" cy="5.8" r="5.4" fill="url(#g0)" fill-opacity="0.73" filter="url(#f1)" transform="translate(95.1 98.3) rotate(205.7) scale(1.25 1.46)" />
<path d="M 81.5 24.8 C 71.5 44.4, 65.3 100.0, 80.1 99.4 C 96.8 86.7, 51.1 0.0, 58.6 3.5 C 77.9 14.0, 55.8 62.1, 66.5 75.2 C 79.8 85.0, 45.2 9.8, 56.5 2.7 C 44.0 0.0, 75.5 18.7, 66.4 28.9 C 83.3 18.2, 40.4 96.6, 39.8 85.3 C 58.4 76.3, 49.7 100.0, 53.1 92.5 C 63.0 100.0, 47.3 66.4, 33.8 79.3 C 20.0 92.9, 84.1 29.1, 79.9 41.7 Z" fill="hsl(83, 65%, 44%)" fill-opacity="0.34" stroke="none" stroke-width="1.52"  transform="translate(17.4 99.3) rotate(254.7) scale(1.55 0.88)" />
<circle cx="68.3" cy="96.6" r="3.4" fill="url(#g2)" fill-opacity="0.47"  transform="translate(91.4 93.0) rotate(106.2) scale(1.75 1.30)" />
<circle cx="80.0" cy="2.7" r="10.6" fill="url(#g2)" fill-opacity="0.60"  transform="translate(35.3 32.8) rotate(304.9) scale(1.48 0.87)" />
<path d="M 43.1 40.4 C 62.6 42.6, 63.1 82.3, 66.0 86.9 C 48.7 97.6, 12.7 18.6, 14.9 9.4 C 0.0 17.4, 69.5 35.1, 71.6 45.7 C 73.8 26.5, 49.4 81.4, 53.9 94.5 C 51.3 100.0, 73.9 79.1, 59.9 76.7 C 76.4 96.5, 88.0 77.9, 85.4 63.3 C 95.4 64.8, 61.8 88.8, 49.0 74.3 C 56.5 81.1, 100.0 27.1, 90.1 25.5 Z" fill="none" fill-opacity="0.84" stroke="hsl(104, 72%, 65%)" stroke-width="3.08"  transform="translate(93.2 4.3) rotate(256.8) scale(1.60 1.06)" />
<path d="M 58.9 78.6 C 58.2 61.9, 48.5 0.0, 35.6 5.7 C 34.7 0.0, 46.5 0.0, 54.4 8.8 C 55.0 10.7, 14.5 98.3, 17.2 92.6 C 12.6 100.0, 48.2 100.0, 36.4 98.5 C 38.0 98.8, 75.7 51.0, 62.0 45.0 C 47.6 44.1, 25.6 91.4, 39.2 95.1 C 33.9 93.8, 11.7 59.5, 13.9 51.6 C 18.9 53.2, 88.3 46.7, 89.2 41.1 C 78.2 27.3, 0.0 82.2, 4.8 72.5 C 3.1 60.1, 16.4 79.6, 14.1 71.3 Z" fill="hsl(151, 70%, 62%)" fill-opacity="0.39" stroke="none" stroke-width="2.80"  transform="translate(94.7 43.1) rotate(43.7) scale(0.78 1.42)" />
<rect x="19.1" y="65.2" width="37.9" height="28.3" rx="8.0" fill="none" fill-opacity="0.84" stroke="hsl(290, 83%, 63%)" stroke-width="2.7"  transform="translate(63.4 88.6) rotate(100.1) scale(1.16 1.48)" />
<rect x="20.5" y="55.6" width="47.6" height="14.8" rx="0" fill="none" fill-opacity="0.89"   transform="translate(10.8 44.3) rotate(148.4) scale(1.54 0.85)" />
<path d="M 70.6 96.6 C 86.4 100.0, 84.1 100.0, 78.6 95.4 C 86.7 100.0, 47.8 93.0, 34.4 80.6 C 38.5 82.3, 45.2 56.0, 41.7 70.4 C 28.8 73.2, 0.0 1.9, 3.1 16.1 C 0.0 3.1, 41.9 49.9, 49.6 41.6 C 33.8 53.7, 86.2 83.9, 98.7 94.7 C 100.0 84.6, 50.6 83.4, 53.5 73.0 C 52.3 63.7, 51.0 100.0, 39.2 98.1 Z" fill="hsl(40, 53%, 69%)" fill-opacity="0.52" stroke="none" stroke-width="4.83"  transform="translate(39.6 52.9) rotate(234.4) scale(1.97 0.52)" />
<path d="M 36.0 42.3 C 45.2 33.5, 61.7 21.6, 75.9 12.0 C 89.3 29.4, 67.7 56.6, 75.9 53.0 C 94.1 58.5, 17.2 52.3, 17.4 40.8 C 16.3 44.6, 29.4 6.0, 41.8 13.9 C 39.7 16.9, 25.8 12.2, 11.3 5.6 C 28.1 23.9, 61.5 91.0, 54.6 88.1 Z" fill="hsl(144, 86%, 72%)" fill-opacity="0.97" stroke="none" stroke-width="5.14"  transform="translate(68.2 19.9) rotate(104.9) scale(1.10 0.68)" />
<path d="M 73.9 35.0 C 90.1 32.8, 29.6 81.1, 27.1 94.0 C 24.5 78.9, 42.1 69.5, 33.1 72.0 C 46.9 62.9, 96.1 0.0, 91.4 11.6 C 84.5 0.0, 22.0 32.5, 31.7 20.8 C 51.2 16.1, 59.3 38.7, 50.0 43.9 C 31.4 46.5, 27.8 78.7, 24.3 78.9 C 38.0 96.5, 93.0 100.0, 81.3 94.6 C 69.4 100.0, 44.7 87.2, 52.1 77.7 C 49.2 70.4, 72.0 77.7, 79.6 89.5 C 79.9 75.3, 91.9 59.5, 81.6 50.3 " fill="none" fill-opacity="0.76" stroke="hsl(86, 72%, 68%)" stroke-width="3.50"  transform="translate(43.0 31.3) rotate(81.6) scale(1.82 0.82)" />
<circle cx="38.9" cy="43.2" r="3.3" fill="url(#g1)" fill-opacity="0.76" filter="url(#f1)"  />
<path d="M 24.2 64.9 C 7.2 71.5, 64.4 47.4, 61.1 35.9 C 49.0 17.8, 100.0 52.2, 99.7 58.8 C 100.0 65.0, 82.9 39.4, 71.1 27.9 C 54.1 45.3, 0.0 94.7, 1.3 93.5 C 16.8 87.1, 92.4 50.7, 99.9 41.3 C 100.0 36.7, 92.2 39.7, 89.4 33.9 C 74.6 53.4, 72.1 97.0, 61.9 96.0 Z" fill="none" fill-opacity="0.81" stroke="hsl(2, 82%, 55%)" stroke-width="2.08"  transform="translate(49.2 1.0) rotate(310.6) scale(1.00 1.72)" />
<rect x="47.1" y="7.1" width="43.6" height="14.2" rx="8.5" fill="none" fill-opacity="0.34"   transform="translate(82.1 66.7) rotate(34.2) scale(1.08 1.12)" />
<path d="M 55.5 55.4 C 68.0 58.0, 28.5 98.6, 39.9 98.6 C 40.0 100.0, 50.8 88.2, 55.6 90.3 C 52.2 100.0, 58.2 53.2, 47.5 50.7 C 57.1 45.5, 44.8 79.9, 33.3 87.1 C 38.0 67.5, 43.4 22.6, 48.5 23.8 C 57.4 38.7, 60.8 6.3, 61.9 2.7 C 76.2 5.2, 15.9 0.0, 20.2 1.3 C 27.3 2.9, 21.7 50.7, 34.9 43.1 C 25.4 51.9, 62.0 85.7, 59.2 83.1 Z" fill="none" fill-opacity="0.82" stroke="hsl(144, 86%, 72%)" stroke-width="3.92"  transform="translate(86.7 44.5) rotate(116.5) scale(1.38 1.47)" />
<path d="M 95.6 18.7 C 91.2 23.2, 47.6 0.0, 61.0 0.1 C 67.6 0.0, 84.7 15.6, 96.0 30.1 C 100.0 23.0, 26.6 80.0, 12.5 77.7 C 29.2 58.1, 61.3 29.1, 69.3 34.4 C 70.4 29.2, 15.4 100.0, 1.4 99.4 C 17.6 100.0, 39.8 28.8, 44.9 21.8 C 40.9 6.0, 73.8 20.1, 83.1 20.3 C 88.4 23.6, 54.7 33.9, 46.6 40.1 Z" fill="hsl(40, 53%, 69%)" fill-opacity="0.38" stroke="none" stroke-width="0.81"  transform="translate(68.4 31.6) rotate(74.9) scale(1.36 1.59)" />
<path d="M 14.5 92.3 C 6.1 98.3, 31.2 84.3, 39.7 79.9 C 52.1 85.2, 33.0 43.0, 47.0 39.7 C 58.7 59.0, 64.9 83.2, 56.1 72.1 C 51.6 65.1, 27.3 86.8, 37.4 80.3 C 21.1 77.9, 24.6 15.4, 14.7 17.5 C 19.2 3.0, 26.3 56.6, 27.2 42.3 Z" fill="hsl(322, 74%, 44%)" fill-opacity="0.30" stroke="none" stroke-width="1.70"  transform="translate(6.9 53.9) rotate(349.8) scale(1.91 1.73)" />
<circle cx="11.0" cy="10.6" r="3.8" fill="hsl(86, 72%, 68%)" fill-opacity="0.73" filter="url(#f1)" transform="translate(53.3 91.2) rotate(273.4) scale(0.72 1.03)" />
<path d="M 34.3 67.7 C 50.1 49.0, 97.4 14.1, 94.5 23.3 C 98.0 39.2, 0.0 92.1, 10.8 94.6 C 0.0 82.7, 12.0 22.4, 19.4 10.8 C 21.7 26.1, 27.5 81.7, 36.2 80.9 C 33.8 64.1, 64.1 75.1, 63.2 65.7 C 57.3 76.8, 56.4 42.9, 51.7 50.4 C 45.9 62.2, 80.2 96.3, 65.8 93.2 C 58.2 100.0, 30.5 34.3, 39.0 48.9 C 32.1 50.8, 46.5 6.4, 33.4 3.8 C 14.0 0.0, 60.8 100.0, 64.5 92.7 Z" fill="none" fill-opacity="0.92" stroke="hsl(86, 72%, 68%)" stroke-width="4.79"  transform="translate(44.4 61.8) rotate(259.4) scale(1.28 1.13)" />
<rect x="47.1" y="42.7" width="20.5" height="20.5" rx="11.3" fill="none" fill-opacity="0.49"   transform="translate(4.0 82.5) rotate(241.5) scale(1.72 1.88)" />
<path d="M 40.0 52.5 C 26.8 57.1, 11.8 96.2, 21.1 88.3 C 35.3 77.0, 56.8 53.8, 46.9 54.0 C 49.1 42.8, 43.6 90.4, 43.5 80.4 C 35.2 70.3, 14.8 95.6, 21.2 94.5 C 1.3 82.5, 25.5 29.6, 14.7 38.8 C 9.3 32.7, 10.1 63.0, 9.2 51.3 C 14.2 49.9, 83.5 75.0, 87.7 73.3 C 89.8 59.3, 67.2 18.7, 70.4 25.4 Z" fill="none" fill-opacity="0.42" stroke="hsl(104, 72%, 65%)" stroke-width="4.08"  transform="translate(57.0 56.4) rotate(240.9) scale(0.81 0.54)" />
<rect x="11.2" y="27.6" width="36.4" height="17.8" rx="0" fill="hsl(144, 86%, 72%)" fill-opacity="0.76"   transform="translate(32.5 30.3) rotate(211.8) scale(1.70 0.64)" />
<path d="M 31.0 14.9 C 39.9 26.8, 19.5 75.5, 31.6 78.2 C 35.0 76.1, 27.3 47.8, 33.9 42.0 C 22.6 26.7, 14.7 97.6, 25.6 89.2 C 36.3 94.9, 86.2 44.0, 79.0 30.7 C 83.5 18.6, 10.2 66.9, 20.3 65.5 C 35.2 70.6, 15.6 55.0, 8.2 53.1 C 5.1 71.9, 26.4 85.2, 36.6 77.0 C 22.5 60.9, 30.1 4.0, 38.1 14.2 C 31.3 10.1, 20.8 18.6, 21.6 7.7 C 19.6 27.7, 19.0 28.6, 18.3 24.8 Z" fill="none" fill-opacity="0.36" stroke="hsl(83, 65%, 44%)" stroke-width="2.88"  transform="translate(6.7 62.9) rotate(85.2) scale(1.15 1.68)" />
<rect x="29.8" y="36.0" width="44.3" height="33.1" rx="4.9" fill="hsl(40, 53%, 69%)" fill-opacity="0.29"   transform="translate(19.7 13.7) rotate(132.6) scale(1.77 1.48)" />
<path d="M 86.6 50.9 C 100.0 69.1, 45.0 32.5, 33.8 38.3 C 17.4 31.9, 92.4 13.2, 79.3 11.5 C 98.1 19.1, 74.7 30.5, 79.5 43.8 C 60.5 63.0, 94.1 7.8, 81.1 3.2 C 63.3 0.0, 25.2 55.3, 11.6 67.5 C 0.0 86.5, 15.2 62.7, 15.2 50.2 Z" fill="none" fill-opacity="0.67" stroke="hsl(144, 86%, 72%)" stroke-width="1.36"  transform="translate(86.7 15.3) rotate(96.1) scale(1.11 0.93)" />
<rect x="27.4" y="21.3" width="33.4" height="26.2" rx="0" fill="hsl(83, 65%, 44%)" fill-opacity="0.88"  filter="url(#f1)" transform="translate(58.1 78.7) rotate(343.7) scale(0.74 0.89)" />
<path d="M 39.3 7.8 C 44.0 3.3, 98.3 34.4, 95.6 34.1 C 77.1 40.4, 77.2 23.1, 88.1 14.6 C 78.0 21.2, 37.2 10.9, 46.4 18.9 C 66.1 36.3, 35.3 32.6, 25.3 20.4 C 34.4 3.6, 25.0 48.7, 25.7 62.5 C 44.7 51.6, 16.8 56.0, 10.4 50.8 C 18.4 56.2, 8.8 75.6, 5.1 67.0 Z" fill="hsl(83, 65%, 44%)" fill-opacity="0.41" stroke="none" stroke-width="2.92"  transform="translate(56.3 56.7) rotate(32.0) scale(1.94 1.58)" />
<path d="M 33.9 90.2 C 42.8 100.0, 41.3 47.7, 32.9 50.3 C 29.1 30.5, 97.8 70.8, 85.6 74.5 C 85.0 76.3, 92.5 14.3, 88.4 18.8 C 95.0 10.6, 14.1 46.6, 4.2 51.1 C 0.0 62.5, 41.7 29.9, 51.1 21.6 C 54.8 10.6, 34.8 65.9, 30.8 74.7 C 32.7 74.1, 28.4 19.9, 29.1 34.5 C 21.2 27.7, 58.5 0.0, 52.5 8.4 C 49.0 0.0, 94.5 68.8, 82.9 73.5 " fill="hsl(151, 70%, 62%)" fill-opacity="0.41" stroke="none" stroke-width="1.38"  transform="translate(19.4 35.4) rotate(244.4) scale(0.59 1.15)" />
<path d="M 54.3 49.7 C 41.5 61.3, 72.5 74.7, 79.4 62.1 C 67.6 66.9, 53.7 30.5, 58.5 25.7 C 54.6 35.5, 10.4 5.2, 24.5 9.1 C 27.5 15.2, 51.6 17.6, 65.9 20.7 C 58.6 36.6, 0.0 10.3, 13.8 10.6 C 28.2 2.3, 4.8 12.6, 11.5 25.9 C 14.6 17.3, 49.8 0.0, 39.2 8.4 C 42.9 18.1, 3.5 82.6, 0.0 87.4 Z" fill="hsl(151, 70%, 62%)" fill-opacity="0.33" stroke="none" stroke-width="0.90"  transform="translate(77.3 31.7) rotate(356.2) scale(1.08 1.61)" />
<rect x="50.0" y="2.5" width="34.1" height="23.6" rx="5.0" fill="none" fill-opacity="0.47"   transform="translate(92.9 48.3) rotate(321.0) scale(0.82 1.49)" />
<circle cx="16.0" cy="11.0" r="5.1" fill="url(#g0)" fill-opacity="0.58"  transform="translate(19.1 16.1) rotate(194.0) scale(1.95 1.70)" />
<path d="M 42.8 15.9 C 37.2 33.4, 100.0 87.4, 97.0 84.8 C 100.0 76.1, 87.8 52.1, 92.3 59.5 C 81.2 58.3, 35.4 37.0, 38.7 34.1 C 48.8 40.3, 73.1 58.0, 58.8 55.7 C 50.8 37.3, 35.3 99.5, 40.5 97.1 C 58.2 100.0, 14.5 36.9, 14.2 51.3 C 15.4 36.8, 29.7 31.8, 34.5 30.7 C 14.7 42.6, 78.7 32.8, 89.2 33.4 Z" fill="hsl(104, 72%, 65%)" fill-opacity="0.95" stroke="none" stroke-width="1.02"  transform="translate(90.1 84.3) rotate(84.3) scale(1.39 0.74)" />
<path d="M 14.8 30.4 C 11.6 17.8, 42.1 64.2, 42.4 71.8 C 51.5 85.1, 22.9 100.0, 12.4 92.0 C 32.3 78.4, 33.3 19.5, 29.5 22.7 C 11.4 12.9, 27.5 38.0, 34.0 32.6 C 43.9 15.8, 95.7 37.7, 82.5 24.7 C 91.7 25.6, 5.1 43.3, 13.4 50.0 C 25.3 36.4, 13.1 34.2, 12.6 24.2 Z" fill="hsl(86, 72%, 68%)" fill-opacity="0.49" stroke="none" stroke-width="5.04"  transform="translate(93.5 65.0) rotate(225.6) scale(1.91 1.21)" />
<circle cx="78.2" cy="53.5" r="4.9" fill="hsl(183, 71%, 60%)" fill-opacity="0.52"  transform="translate(15.9 68.6) rotate(84.0) scale(1.42 1.61)" />
<path d="M 59.0 74.6 C 54.6 75.2, 0.0 11.7, 1.4 25.3 C 0.0 13.5, 100.0 85.8, 94.5 91.8 C 95.1 93.8, 12.5 13.5, 21.0 14.1 C 21.9 29.6, 66.6 35.1, 57.9 22.1 C 73.9 34.8, 21.1 45.6, 19.9 44.7 C 8.4 30.1, 80.9 58.6, 80.0 48.9 C 65.5 59.2, 16.8 40.8, 28.5 55.6 Z" fill="hsl(104, 72%, 65%)" fill-opacity="0.36" stroke="none" stroke-width="4.82"   />
<path d="M 53.1 86.1 C 67.0 75.0, 66.3 6.5, 74.8 6.5 C 83.6 7.4, 0.1 12.6, 8.1 19.2 C 0.0 17.6, 72.2 85.6, 68.5 73.4 C 56.5 65.8, 0.0 77.2, 13.8 63.6 C 5.9 61.8, 95.9 24.6, 97.2 18.2 C 79.3 9.6, 15.1 100.0, 7.7 95.9 C 23.0 92.4, 36.9 85.7, 45.9 83.9 Z" fill="hsl(40, 53%, 69%)" fill-opacity="0.80" stroke="none" stroke-width="1.19"  transform="translate(85.9 43.4) rotate(244.1) scale(0.88 0.93)" />
<path d="M 14.6 57.9 C 7.9 54.4, 31.0 24.2, 18.4 27.8 C 15.4 8.8, 83.8 63.1, 77.9 75.1 C 75.9 78.7, 29.2 51.5, 36.4 47.1 C 49.7 60.3, 50.7 47.5, 35.8 35.6 C 26.2 36.7, 56.7 31.8, 63.8 36.4 C 50.2 46.7, 39.0 31.7, 47.6 21.8 Z" fill="hsl(40, 53%, 69%)" fill-opacity="0.39" stroke="none" stroke-width="2.79"  transform="translate(87.7 45.3) rotate(90.5) scale(1.43 1.87)" />
<circle cx="46.2" cy="51.7" r="4.3" fill="url(#g1)" fill-opacity="0.56"   />
<path d="M 65.3 97.6 C 60.2 100.0, 38.0 54.0, 28.2 65.3 C 22.2 51.7, 77.7 25.0, 89.3 17.6 C 91.8 32.6, 30.8 34.9, 43.8 21.8 C 32.5 16.6, 78.5 46.4, 85.1 50.0 C 71.8 68.1, 60.9 59.9, 46.6 48.6 C 57.7 45.8, 52.3 85.3, 60.5 77.3 C 59.7 59.9, 78.6 78.6, 66.5 89.6 C 56.1 78.8, 40.5 79.6, 26.7 69.9 C 12.8 88.2, 90.1 42.5, 75.4 33.3 Z" fill="hsl(86, 72%, 68%)" fill-opacity="0.62" stroke="none" stroke-width="1.87"  transform="translate(53.1 64.1) rotate(25.4) scale(1.16 1.07)" />
<path d="M 41.8 60.7 C 52.2 52.3, 91.9 56.8, 98.8 48.1 C 82.7 35.2, 43.5 47.0, 44.2 44.6 C 42.1 56.2, 19.4 84.7, 11.2 77.7 C 15.6 84.3, 24.6 14.7, 36.5 21.5 C 21.2 15.7, 57.9 38.1, 57.1 32.1 C 45.0 50.2, 52.4 75.3, 49.9 68.9 C 69.3 73.2, 27.2 0.0, 36.7 0.5 Z" fill="hsl(183, 71%, 60%)" fill-opacity="0.45" stroke="none" stroke-width="1.45"  transform="translate(53.1 80.4) rotate(154.0) scale(1.40 1.02)" />
<path d="M 77.4 59.2 C 76.5 59.2, 76.1 27.9, 90.5 34.9 C 100.0 20.6, 80.9 86.4, 74.5 75.9 C 63.3 94.1, 9.3 24.7, 3.0 37.6 C 22.7 35.6, 83.3 6.8, 71.2 6.2 C 57.5 18.5, 52.5 44.9, 56.8 59.6 C 60.5 41.2, 50.5 22.5, 62.7 36.5 C 62.5 32.9, 50.0 55.4, 39.2 58.1 " fill="none" fill-opacity="0.70" stroke="hsl(104, 72%, 65%)" stroke-width="3.60"  transform="translate(33.8 72.7) rotate(282.3) scale(1.95 1.84)" />
<path d="M 21.9 33.8 C 36.1 47.7, 54.0 9.1, 41.1 22.1 C 21.8 13.6, 67.0 88.2, 55.2 79.5 C 41.3 62.7, 15.5 2.9, 24.7 1.2 C 11.2 0.0, 32.5 33.8, 27.4 45.4 C 12.0 46.8, 78.7 0.0, 67.4 2.6 C 59.2 22.2, 63.6 6.3, 56.3 19.5 C 65.5 9.9, 39.5 86.7, 53.2 92.7 C 55.4 78.7, 10.5 31.0, 18.7 31.1 " fill="none" fill-opacity="0.89" stroke="hsl(86, 72%, 68%)" stroke-width="5.15" filter="url(#f1)" transform="translate(94.3 13.7) rotate(131.0) scale(0.64 0.97)" />
<rect x="46.4" y="23.2" width="36.6" height="29.4" rx="0" fill="none" fill-opacity="0.47"   transform="translate(88.6 62.8) rotate(283.1) scale(1.87 0.61)" />
<path d="M 76.7 54.9 C 65.5 35.0, 25.4 66.6, 14.1 56.8 C 28.9 64.8, 4.6 17.5, 16.6 8.6 C 20.0 0.0, 39.3 5.0, 33.4 5.9 C 31.2 0.0, 24.1 0.0, 14.6 10.8 C 22.2 0.0, 24.8 31.8, 39.0 22.8 C 56.2 37.2, 0.0 67.5, 8.7 59.7 Z" fill="none" fill-opacity="0.79" stroke="hsl(104, 72%, 65%)" stroke-width="5.14"  transform="translate(29.1 84.8) rotate(243.9) scale(1.04 0.93)" />
<path d="M 67.4 98.2 C 67.3 88.8, 42.8 72.6, 45.4 82.0 C 28.2 67.0, 43.2 60.7, 37.4 75.6 C 53.7 56.6, 56.2 70.2, 53.7 75.6 C 41.5 70.6, 1.8 17.0, 12.7 28.9 C 26.8 27.9, 66.7 58.8, 65.3 63.9 C 58.8 65.7, 37.6 19.5, 38.3 15.8 Z" fill="hsl(104, 72%, 65%)" fill-opacity="0.63" stroke="none" stroke-width="3.92"  transform="translate(9.7 89.8) rotate(185.3) scale(1.27 1.13)" />
<rect x="76.1" y="29.9" width="20.0" height="39.7" rx="0" fill="none" fill-opacity="0.30"   transform="translate(92.5 7.1) rotate(202.7) scale(1.29 1.62)" />
<rect x="2.1" y="49.4" width="47.5" height="13.6" rx="1.9" fill="hsl(183, 71%, 60%)" fill-opacity="0.87"   transform="translate(17.6 16.2) rotate(83.4) scale(1.09 1.34)" />
<circle cx="94.4" cy="21.9" r="2.3" fill="hsl(322, 74%, 44%)" fill-opacity="0.64"  transform="translate(49.5 85.1) rotate(219.7) scale(1.67 0.94)" />
<path d="M 60.7 57.7 C 54.0 45.3, 60.1 56.2, 60.7 70.0 C 52.1 57.3, 39.7 22.3, 50.4 18.8 C 51.9 10.8, 68.8 63.8, 53.8 58.1 C 67.2 68.3, 79.7 14.4, 67.3 5.2 C 61.0 0.0, 78.9 36.6, 73.2 33.2 C 56.5 40.2, 35.2 59.0, 25.4 45.0 C 16.5 42.1, 31.3 83.0, 40.0 93.9 Z" fill="hsl(151, 70%, 62%)" fill-opacity="0.42" stroke="none" stroke-width="4.30"  transform="translate(34.1 15.3) rotate(324.8) scale(1.20 1.44)" />
<path d="M 1.4 61.9 C 20.2 42.3, 12.8 75.0, 20.1 76.0 C 14.4 71.8, 16.5 5.9, 25.7 0.1 C 34.7 2.8, 22.9 40.5, 35.7 30.7 C 19.7 15.1, 49.3 71.9, 42.8 75.8 C 42.8 61.4, 36.7 0.0, 22.8 7.8 C 14.9 0.0, 21.1 100.0, 19.6 94.7 C 23.4 91.5, 59.1 21.0, 55.8 32.7 C 43.3 37.4, 53.6 65.3, 58.7 54.0 Z" fill="hsl(40, 53%, 69%)" fill-opacity="0.79" stroke="none" stroke-width="1.77"  transform="translate(27.8 71.6) rotate(318.1) scale(0.64 0.80)" />
<path d="M 94.5 96.7 C 78.8 95.4, 25.5 89.2, 26.6 83.2 C 15.3 100.0, 100.0 82.5, 92.0 77.6 C 100.0 86.9, 44.5 54.8, 37.1 62.5 C 22.5 74.7, 8.3 9.7, 1.3 17.7 C 0.0 23.0, 33.5 63.2, 29.3 53.5 C 29.0 62.3, 24.4 78.8, 17.3 82.1 C 1.0 81.7, 48.0 100.0, 58.0 99.8 C 69.9 98.4, 93.7 69.4, 81.6 70.7 C 63.8 72.2, 62.2 24.2, 74.3 36.8 C 77.8 56.2, 22.7 1.0, 28.9 15.9 Z" fill="hsl(83, 65%, 44%)" fill-opacity="0.80" stroke="none" stroke-width="3.11"  transform="translate(44.1 37.4) rotate(167.2) scale(1.52 1.95)" />
<path d="M 94.4 89.3 C 99.0 98.4, 59.8 24.8, 53.4 10.5 C 63.5 5.0, 80.3 19.6, 66.5 19.3 C 69.7 22.3, 80.3 13.2, 77.8 20.2 C 70.3 29.9, 33.8 73.4, 36.7 76.9 C 25.3 90.0, 64.6 70.3, 76.0 80.6 C 92.2 62.3, 7.8 45.9, 2.6 47.2 C 1.3 29.4, 39.4 50.4, 53.6 46.0 C 62.5 61.8, 68.7 39.4, 69.0 44.1 C 78.5 26.2, 29.8 82.6, 34.7 72.6 Z" fill="hsl(104, 72%, 65%)" fill-opacity="0.38" stroke="none" stroke-width="2.24"  transform="translate(62.5 67.9) rotate(124.1) scale(1.93 1.09)" />
<rect x="9.7" y="8.4" width="26.0" height="32.8" rx="1.3" fill="none" fill-opacity="0.48"  filter="url(#f1)" transform="translate(19.4 42.0) rotate(108.0) scale(1.04 1.11)" />
<path d="M 49.0 57.3 C 40.1 46.6, 92.7 33.2, 98.0 32.9 C 82.4 40.0, 71.6 20.3, 81.0 10.5 C 99.9 29.6, 41.3 84.0, 39.2 69.6 C 38.7 57.4, 58.7 24.2, 49.0 9.5 C 61.3 22.6, 84.0 42.0, 84.2 36.8 C 90.7 49.4, 49.3 35.6, 37.8 45.0 C 50.6 31.8, 95.5 53.4, 89.4 59.0 C 73.3 50.1, 54.7 5.2, 57.4 3.5 " fill="none" fill-opacity="0.96" stroke="hsl(183, 71%, 60%)" stroke-width="3.90"   />
<circle cx="97.7" cy="8.3" r="0.9" fill="url(#g0)" fill-opacity="0.57"  transform="translate(49.5 92.2) rotate(206.3) scale(1.75 1.04)" />
<circle cx="18.2" cy="46.5" r="16.7" fill="url(#g0)" fill-opacity="0.74"   />
<path d="M 16.7 18.9 C 33.4 22.0, 84.9 47.6, 79.3 39.2 C 90.4 44.6, 10.4 36.5, 15.5 40.2 C 17.7 24.3, 55.8 84.7, 70.7 77.2 C 87.5 82.9, 9.4 82.2, 18.4 86.6 C 35.3 97.8, 43.2 51.6, 29.6 48.5 C 34.7 31.3, 10.7 52.5, 7.7 49.9 C 0.0 51.2, 67.4 42.5, 58.6 38.8 C 69.5 33.6, 40.8 85.3, 35.7 94.9 C 41.0 76.7, 52.3 28.1, 47.6 38.0 C 33.0 36.6, 78.8 61.2, 71.4 65.1 Z" fill="none" fill-opacity="0.73" stroke="hsl(83, 65%, 44%)" stroke-width="1.93"  transform="translate(41.7 42.8) rotate(134.1) scale(0.56 1.09)" />
<circle cx="92.3" cy="41.6" r="16.0" fill="hsl(104, 72%, 65%)" fill-opacity="0.45"  transform="translate(5.8 89.9) rotate(331.0) scale(1.06 1.54)" />
<path d="M 15.2 2.0 C 7.8 19.3, 94.5 10.5, 80.6 19.1 C 67.6 25.4, 60.6 50.5, 57.3 64.6 C 61.2 58.2, 0.2 36.7, 9.7 31.6 C 13.5 44.3, 67.8 35.9, 77.0 40.5 C 65.3 36.1, 83.1 42.8, 95.3 30.4 C 93.9 32.1, 51.7 48.3, 52.2 48.2 C 45.1 59.6, 100.0 89.2, 95.0 81.8 C 93.4 72.2, 54.5 63.3, 64.9 67.0 Z" fill="hsl(83, 65%, 44%)" fill-opacity="0.85" stroke="none" stroke-width="1.95"  transform="translate(4.5 13.3) rotate(253.5) scale(1.68 1.92)" />
<g opacity="0.054">
<rect x="0" y="0" width="1" height="100" fill="black" />
<rect x="22" y="0" width="1" height="100" fill="black" />
<rect x="44" y="0" width="1" height="100" fill="black" />
<rect x="66" y="0" width="1" height="100" fill="black" />
<rect x="88" y="0" width="1" height="100" fill="black" />
<rect x="0" y="0" width="100" height="1" fill="black" />
<rect x="0" y="22" width="100" height="1" fill="black" />
<rect x="0" y="44" width="100" height="1" fill="black" />
<rect x="0" y="66" width="100" height="1" fill="black" />
<rect x="0" y="88" width="100" height="1" fill="black" />
</g>

</svg>
