<?xml version="1.0" encoding="UTF-8"?>
<svg xmlns="http://www.w3.org/2000/svg" width="100" height="100" viewBox="0 0 100 100">
<defs>
<linearGradient id="g0" x1="0%" y1="0%" x2="100%" y2="100%">
<stop offset="0.0%" stop-color="hsl(106, 75%, 59%)" />
<stop offset="33.3%" stop-color="hsl(183, 71%, 60%)" />
<stop offset="66.7%" stop-color="hsl(242, 72%, 49%)" />
<stop offset="100.0%" stop-color="hsl(322, 74%, 44%)" />
</linearGradient>
<linearGradient id="g1" x1="0%" y1="0%" x2="100%" y2="100%">
<stop offset="0.0%" stop-color="hsl(290, 83%, 63%)" />
<stop offset="33.3%" stop-color="hsl(2, 82%, 55%)" />
<stop offset="66.7%" stop-color="hsl(86, 72%, 68%)" />
<stop offset="100.0%" stop-color="hsl(83, 65%, 44%)" />
</linearGradient>
<linearGradient id="g2" x1="0%" y1="0%" x2="100%" y2="100%">
<stop offset="0.0%" stop-color="hsl(40, 53%, 69%)" />
<stop offset="33.3%" stop-color="hsl(104, 72%, 65%)" />
<stop offset="66.7%" stop-color="hsl(144, 86%, 72%)" />
<stop offset="100.0%" stop-color="hsl(151, 70%, 62%)" />
</linearGradient>
<filter id="f1" x="-20%" y="-20%" width="140%" height="140%">
  <feGaussianBlur stdDeviation="1.417367343766499" />
</filter>

</defs>

<path d="M 46.9 8.7 C 59.3 10.4, 95.0 0.0, 83.9 0.5 C 71.8 0.0, 91.2 62.5, 81.8 72.6 C 75.1 86.7, 83.1 99.3, 97.2 85.8 C 84.1 85.5, 79.3 2.0, 75.9 4.5 C 58.4 16.7, 0.0 19.8, 3.6 7.1 C 22.2 7.1, 58.7 75.0, 63.4 79.9 C 56.5 83.1, 41.4 30.4, 46.6 38.6 C 32.1 49.1, 14.9 18.4, 27.5 29.9 C 34.3 29.2, 73.8 33.3, 82.2 27.6 Z" fill="hsl(40, 53%, 69%)" fill-opacity="0.77" stroke="none" stroke-width="2.25"  transform="translate(6.7 22.1) rotate(345.8) scale(1.18 0.88)" />
<circle cx="57.9" cy="1.0" r="11.6" fill="hsl(40, 53%, 69%)" fill-opacity="0.62"  transform="translate(70.8 67.7) rotate(96.6) scale(1.46 0.86)" />
<rect x="22.0" y="53.3" width="32.6" height="36.1" rx="0.3" fill="none" fill-opacity="0.80"   transform="translate(78.0 17.9) rotate(35.1) scale(0.54 1.19)" />
<path d="M 5.3 69.7 C 16.6 58.2, 62.5 40.1, 68.1 40.6 C 74.9 35.0, 30.7 0.0, 34.6 6.0 C 48.8 11.1, 31.2 41.8, 25.3 50.6 C 40.5 60.8, 61.4 70.5, 68.1 76.8 C 66.7 60.0, 47.5 19.4, 49.7 13.4 C 53.7 25.5, 25.5 65.8, 28.0 53.1 " fill="hsl(242, 72%, 49%)" fill-opacity="0.74" stroke="none" stroke-width="4.94"  transform="translate(16.8 61.8) rotate(184.3) scale(0.96 0.64)" />
<path d="M 7.6 78.5 C 0.0 82.2, 55.0 90.1, 49.2 98.6 C 54.7 100.0, 44.3 22.2, 36.0 35.0 C 42.2 41.8, 33.3 24.9, 33.0 14.8 C 46.5 7.9, 48.6 3.1, 55.9 13.5 C 67.3 11.9, 58.1 26.7, 67.2 20.4 C 50.8 17.2, 86.5 15.0, 73.8 28.4 C 60.6 14.6, 66.1 91.3, 65.4 89.9 C 75.2 100.0, 0.0 40.3, 4.4 48.2 C 19.6 58.9, 23.6 19.4, 36.2 21.6 Z" fill="hsl(2, 82%, 55%)" fill-opacity="0.88" stroke="none" stroke-width="2.59" filter="url(#f1)" transform="translate(24.7 58.7) rotate(283.9) scale(1.17 1.71)" />
<rect x="55.6" y="0.4" width="27.4" height="11.4" rx="18.5" fill="none" fill-opacity="0.47" stroke="hsl(83, 65%, 44%)" stroke-width="1.1"   />
<circle cx="67.4" cy="76.0" r="3.5" fill="hsl(86, 72%, 68%)" fill-opacity="0.49"  transform="translate(98.9 99.4) rotate(12.0) scale(0.74 0.83)" />
<circle cx="28.8" cy="36.0" r="4.9" fill="url(#g2)" fill-opacity="0.90"   />
<path d="M 22.9 94.3 C 10.4 77.8, 29.4 100.0, 20.7 97.3 C 9.2 100.0, 61.3 82.4, 51.1 73.1 C 32.6 91.7, 36.2 0.0, 47.5 1.4 C 35.6 7.0, 58.6 50.5, 55.1 46.7 C 61.2 45.1, 26.8 46.9, 36.6 61.3 C 35.9 65.8, 100.0 36.6, 99.0 33.3 C 80.1 23.4, 54.9 1.6, 67.4 1.6 C 59.6 13.1, 0.0 14.9, 3.0 5.0 C 10.3 0.0, 5.3 100.0, 19.1 93.8 C 1.8 100.0, 46.9 69.1, 59.7 76.0 " fill="none" fill-opacity="0.40" stroke="hsl(290, 83%, 63%)" stroke-width="4.83"  transform="translate(94.8 9.2) rotate(274.7) scale(1.05 1.84)" />
<path d="M 91.2 14.7 C 100.0 0.0, 35.1 95.7, 28.0 87.6 C 35.0 100.0, 50.6 53.0, 59.1 59.7 C 63.1 79.4, 11.7 55.0, 6.2 48.5 C 0.0 28.8, 91.8 11.4, 82.3 15.0 C 73.5 22.6, 81.0 38.7, 85.9 38.4 C 96.2 51.3, 68.8 76.8, 69.5 84.1 C 75.5 92.5, 38.7 27.9, 50.6 29.8 Z" fill="hsl(290, 83%, 63%)" fill-opacity="0.82" stroke="none" stroke-width="3.00"  transform="translate(61.8 74.2) rotate(283.4) scale(1.75 1.88)" />
<rect x="17.5" y="45.5" width="49.1" height="37.6" rx="5.8" fill="hsl(242, 72%, 49%)" fill-opacity="0.38"   transform="translate(57.9 52.3) rotate(121.6) scale(0.63 1.66)" />
<rect x="9.7" y="30.6" width="22.1" height="35.3" rx="0.5" fill="none" fill-opacity="0.46"   transform="translate(81.3 86.3) rotate(268.2) scale(1.25 1.44)" />
<rect x="12.2" y="49.7" width="25.7" height="37.9" rx="0" fill="hsl(290, 83%, 63%)" fill-opacity="0.57"   transform="translate(98.9 86.1) rotate(42.7) scale(1.64 1.67)" />
<rect x="56.2" y="54.3" width="41.6" height="16.7" rx="0" fill="none" fill-opacity="0.32"   transform="translate(47.5 35.3) rotate(326.2) scale(1.08 1.61)" />
<circle cx="79.6" cy="81.7" r="1.5" fill="hsl(86, 72%, 68%)" fill-opacity="0.62"  transform="translate(68.2 65.7) rotate(328.0) scale(1.34 0.98)" />
<circle cx="22.4" cy="20.5" r="3.6" fill="hsl(151, 70%, 62%)" fill-opacity="0.93"   />
<path d="M 93.9 39.7 C 87.0 54.5, 83.7 30.3, 83.0 16.9 C 89.7 11.2, 0.0 0.0, 1.0 14.2 C 0.0 9.2, 65.8 30.8, 78.1 35.1 C 97.3 50.4, 72.8 2.0, 82.4 0.0 C 100.0 3.2, 14.5 51.0, 23.5 59.9 C 40.1 55.5, 91.3 23.6, 88.6 12.7 Z" fill="none" fill-opacity="0.34" stroke="hsl(104, 72%, 65%)" stroke-width="1.23" filter="url(#f1)" transform="translate(20.3 45.1) rotate(160.3) scale(1.02 1.99)" />
<path d="M 99.7 91.7 C 88.2 100.0, 81.1 4.4, 69.7 10.7 C 62.8 23.5, 51.0 22.8, 43.2 21.9 C 38.5 33.7, 80.8 27.8, 72.4 40.1 C 77.4 21.0, 7.6 17.3, 12.8 5.8 C 25.0 3.6, 90.6 100.0, 87.8 90.0 C 85.0 100.0, 82.6 18.6, 95.5 17.2 C 99.0 10.6, 29.8 25.3, 22.2 38.3 C 38.8 30.3, 15.4 30.2, 7.6 43.9 C 16.5 25.2, 63.7 95.3, 72.5 84.0 Z" fill="none" fill-opacity="0.61" stroke="hsl(106, 75%, 59%)" stroke-width="1.94"  transform="translate(56.2 91.0) rotate(85.5) scale(1.35 1.37)" />
<rect x="24.5" y="42.3" width="37.8" height="16.3" rx="17.7" fill="hsl(183, 71%, 60%)" fill-opacity="0.24" stroke="hsl(106, 75%, 59%)" stroke-width="4.0"  transform="translate(14.5 49.2) rotate(322.6) scale(1.37 1.66)" />
<path d="M 69.3 25.3 C 69.3 27.8, 60.3 62.7, 57.1 65.2 C 51.9 56.8, 72.1 81.2, 65.5 81.1 C 52.4 98.3, 64.2 80.4, 78.1 76.1 C 65.8 62.6, 86.3 13.4, 88.3 28.1 C 69.9 24.2, 94.3 31.5, 87.2 46.1 C 70.8 46.8, 92.4 100.0, 94.9 91.5 Z" fill="hsl(151, 70%, 62%)" fill-opacity="0.78" stroke="none" stroke-width="2.47"  transform="translate(82.9 1.6) rotate(273.0) scale(0.55 1.70)" />
<rect x="56.6" y="19.2" width="30.3" height="21.2" rx="0" fill="none" fill-opacity="0.74"   transform="translate(68.0 65.9) rotate(16.8) scale(1.50 1.35)" />
<path d="M 68.0 9.7 C 84.9 29.5, 96.8 70.5, 98.9 84.2 C 89.5 98.5, 1.2 25.6, 0.8 32.5 C 0.0 24.7, 33.2 51.4, 41.4 48.0 C 43.9 58.6, 87.4 3.9, 89.6 8.8 C 87.3 0.0, 100.0 41.6, 85.7 31.7 C 83.6 35.7, 100.0 28.1, 97.4 20.2 C 100.0 21.9, 80.5 40.4, 83.3 28.1 C 86.3 27.1, 83.8 98.7, 72.6 92.8 C 63.7 100.0, 71.4 31.8, 59.2 26.4 C 39.8 41.7, 70.7 30.8, 74.9 22.5 Z" fill="none" fill-opacity="0.43" stroke="hsl(242, 72%, 49%)" stroke-width="1.68"   />
<rect x="11.3" y="1.1" width="39.4" height="32.4" rx="14.3" fill="hsl(322, 74%, 44%)" fill-opacity="0.39"   transform="translate(18.9 14.0) rotate(250.5) scale(1.94 0.77)" />
<path d="M 81.0 20.1 C 83.3 13.5, 16.5 22.8, 13.4 24.1 C 13.9 9.0, 15.3 35.8, 22.1 43.9 C 28.6 27.7, 21.8 95.2, 7.2 97.6 C 18.6 79.1, 10.3 28.0, 3.4 29.2 C 0.0 24.2, 22.6 46.2, 20.5 36.5 C 11.7 20.9, 98.0 100.0, 96.8 99.9 C 100.0 100.0, 13.9 22.2, 7.1 12.0 C 0.0 0.4, 48.4 26.4, 50.1 40.0 Z" fill="hsl(151, 70%, 62%)" fill-opacity="0.97" stroke="none" stroke-width="3.86"   />
<path d="M 82.2 57.9 C 84.1 54.7, 59.7 15.2, 56.7 20.6 C 68.7 29.7, 4.0 53.4, 2.5 63.5 C 8.5 72.3, 30.2 100.0, 17.7 91.5 C 0.0 92.5, 49.2 22.5, 51.1 24.5 C 67.8 5.5, 51.5 57.9, 49.9 52.9 C 66.9 35.5, 12.3 8.3, 18.9 18.0 C 29.9 8.6, 12.2 38.8, 3.4 24.5 C 15.7 41.1, 100.0 92.2, 96.7 92.6 C 100.0 100.0, 100.0 83.5, 97.8 89.3 " fill="hsl(144, 86%, 72%)" fill-opacity="0.31" stroke="none" stroke-width="1.07"  transform="translate(85.9 6.6) rotate(311.2) scale(0.94 1.73)" />
<rect x="2.5" y="3.7" width="34.0" height="25.1" rx="18.3" fill="hsl(83, 65%, 44%)" fill-opacity="0.57"   transform="translate(31.9 72.9) rotate(283.5) scale(1.96 0.90)" />
<path d="M 35.2 34.9 C 32.3 45.1, 32.1 17.7, 24.6 31.1 C 26.6 43.9, 92.3 18.1, 88.9 32.8 C 80.1 38.0, 73.9 67.8, 85.6 54.2 C 80.2 73.7, 91.8 87.4, 91.8 86.3 C 84.5 85.6, 5.3 31.8, 1.0 43.7 C 9.8 52.5, 76.0 69.7, 61.7 83.9 Z" fill="hsl(151, 70%, 62%)" fill-opacity="0.97" stroke="none" stroke-width="3.36"  transform="translate(73.0 18.3) rotate(239.1) scale(0.73 0.82)" />
<circle cx="87.2" cy="74.9" r="1.0" fill="url(#g1)" fill-opacity="0.58"  transform="translate(41.8 43.5) rotate(278.4) scale(1.50 1.63)" />
<path d="M 23.7 47.8 C 8.0 39.6, 37.9 15.4, 32.8 22.0 C 39.6 16.7, 79.3 55.0, 67.5 55.3 C 84.7 41.2, 36.8 21.3, 41.9 31.1 C 26.9 24.3, 83.6 13.1, 69.3 12.0 C 74.3 5.5, 15.8 42.1, 5.1 52.1 C 18.1 67.1, 55.3 15.1, 59.0 22.8 C 51.5 8.8, 27.8 13.7, 40.1 28.4 C 41.8 20.0, 76.6 61.2, 83.2 67.7 C 74.7 59.0, 51.3 30.9, 65.4 21.6 C 69.6 35.0, 73.0 44.4, 85.4 41.8 Z" fill="none" fill-opacity="0.38" stroke="hsl(290, 83%, 63%)" stroke-width="3.65"   />
<rect x="37.9" y="27.7" width="22.5" height="10.8" rx="4.5" fill="hsl(104, 72%, 65%)" fill-opacity="0.64"   transform="translate(97.9 31.7) rotate(342.9) scale(1.04 1.27)" />
<path d="M 28.4 62.6 C 15.6 58.4, 91.3 61.8, 92.7 47.9 C 100.0 63.0, 93.4 89.6, 89.0 99.5 C 100.0 86.5, 12.1 23.1, 13.3 19.2 C 26.0 35.2, 39.9 50.8, 50.0 44.4 C 64.2 40.7, 83.1 75.6, 82.0 68.5 C 81.3 84.0, 66.9 50.5, 64.9 63.1 C 50.2 47.2, 58.7 17.5, 60.4 23.0 Z" fill="none" fill-opacity="0.51" stroke="hsl(290, 83%, 63%)" stroke-width="3.21"   />
<path d="M 95.8 99.3 C 100.0 79.5, 10.3 44.2, 25.0 41.5 C 33.6 47.5, 91.4 68.1, 82.6 74.0 C 95.5 60.9, 1.1 79.3, 3.3 82.8 C 0.0 72.4, 16.6 44.4, 15.9 31.3 C 17.0 37.9, 9.3 40.9, 12.9 45.1 C 24.8 44.6, 52.6 0.6, 57.1 9.1 Z" fill="none" fill-opacity="0.29" stroke="hsl(86, 72%, 68%)" stroke-width="3.58"  transform="translate(27.1 18.1) rotate(221.9) scale(1.57 1.78)" />
<path d="M 92.6 1.0 C 79.6 3.8, 46.8 32.0, 43.4 22.5 C 58.7 12.7, 38.3 59.8, 45.9 63.3 C 49.7 60.5, 87.7 85.7, 73.2 99.6 C 57.8 100.0, 81.2 95.2, 73.1 92.8 C 56.9 100.0, 27.5 63.2, 30.5 54.3 C 45.9 43.7, 48.8 95.2, 62.7 90.6 C 70.0 99.6, 3.1 89.1, 1.3 92.5 C 8.7 97.3, 15.0 87.6, 20.1 93.0 C 29.0 84.2, 6.8 69.0, 3.6 56.7 C 0.0 47.5, 7.3 75.2, 3.1 77.5 Z" fill="none" fill-opacity="0.57" stroke="hsl(2, 82%, 55%)" stroke-width="1.46"   />
<circle cx="83.6" cy="43.5" r="6.9" fill="hsl(151, 70%, 62%)" fill-opacity="0.46"  transform="translate(97.3 60.7) rotate(303.3) scale(1.50 1.09)" />
<path d="M 7.9 63.6 C 3.3 76.4, 71.0 11.0, 66.9 23.5 C 76.2 18.2, 67.4 98.5, 80.9 85.0 C 99.7 67.9, 93.8 90.7, 96.8 82.5 C 93.3 87.9, 6.9 81.8, 17.5 95.0 C 0.5 78.5, 23.5 100.0, 25.0 98.2 C 29.9 100.0, 87.7 45.3, 86.3 32.6 Z" fill="hsl(2, 82%, 55%)" fill-opacity="0.40" stroke="none" stroke-width="2.46"  transform="translate(30.9 83.1) rotate(93.5) scale(0.55 1.84)" />
<path d="M 58.7 67.7 C 58.2 50.9, 32.3 22.9, 19.5 18.2 C 2.8 19.3, 39.0 0.0, 33.7 6.6 C 44.0 25.2, 46.2 85.1, 60.4 92.4 C 66.1 94.3, 90.4 77.2, 93.5 73.9 C 81.3 77.1, 72.9 91.1, 78.5 79.1 C 92.6 67.6, 37.3 47.1, 31.4 36.6 C 43.3 40.4, 14.2 21.4, 13.9 36.2 C 16.4 44.9, 55.6 56.6, 62.1 43.0 C 71.8 23.7, 76.8 26.8, 69.7 37.4 Z" fill="hsl(242, 72%, 49%)" fill-opacity="0.86" stroke="none" stroke-width="1.70"  transform="translate(89.4 89.8) rotate(292.2) scale(1.21 0.91)" />
<path d="M 26.5 7.2 C 13.5 1.2, 84.9 62.4, 75.9 56.3 C 62.1 49.3, 59.8 27.8, 60.5 13.2 C 66.9 30.3, 64.2 100.0, 57.2 93.6 C 49.6 79.3, 100.0 78.3, 97.0 71.3 C 100.0 60.3, 78.1 26.4, 86.8 40.1 C 82.0 33.9, 0.0 94.3, 10.7 88.8 C 0.0 88.1, 55.0 29.7, 48.1 24.1 C 45.7 6.9, 80.4 17.2, 91.9 17.9 Z" fill="hsl(83, 65%, 44%)" fill-opacity="0.69" stroke="none" stroke-width="5.10"   />
<path d="M 3.1 63.7 C 1.3 66.6, 18.7 93.4, 22.0 82.5 C 33.8 67.0, 38.5 12.6, 33.6 16.1 C 47.9 17.3, 83.5 99.3, 89.4 94.9 C 88.5 100.0, 52.4 87.6, 65.1 76.9 C 61.2 59.9, 47.3 70.4, 41.4 80.9 C 59.9 70.9, 52.4 61.4, 50.3 67.6 C 42.0 50.9, 62.6 84.5, 51.2 83.5 Z" fill="hsl(2, 82%, 55%)" fill-opacity="0.69" stroke="none" stroke-width="3.77"  transform="translate(97.5 97.1) rotate(70.5) scale(1.06 0.79)" />
<rect x="18.3" y="66.7" width="33.5" height="27.3" rx="3.7" fill="none" fill-opacity="0.92" stroke="hsl(151, 70%, 62%)" stroke-width="3.1"  transform="translate(83.2 60.5) rotate(275.6) scale(1.05 1.70)" />
<path d="M 94.3 57.1 C 100.0 48.2, 18.5 59.4, 13.6 46.1 C 27.8 32.8, 87.1 74.8, 87.1 84.0 C 89.1 73.3, 25.9 53.8, 38.5 53.6 C 49.0 65.1, 17.6 100.0, 26.1 94.1 C 11.1 100.0, 0.0 21.6, 5.9 24.1 C 0.0 26.7, 16.3 55.3, 17.2 48.5 C 23.1 53.2, 79.9 52.3, 88.7 47.5 C 99.8 54.1, 8.6 11.9, 10.2 25.7 C 2.0 6.2, 79.1 73.0, 91.0 63.1 C 90.4 65.9, 100.0 99.8, 97.8 85.8 Z" fill="hsl(151, 70%, 62%)" fill-opacity="0.34" stroke="none" stroke-width="2.65"  transform="translate(63.3 94.5) rotate(244.7) scale(1.50 1.07)" />
<path d="M 2.8 18.4 C 4.4 28.0, 49.1 77.5, 36.6 74.2 C 38.8 84.8, 6.3 74.6, 14.5 64.6 C 21.9 77.9, 66.2 47.6, 65.3 42.4 C 78.5 35.1, 51.5 46.0, 58.8 38.9 C 72.4 51.9, 10.5 12.0, 7.0 11.5 C 0.0 3.2, 60.9 16.6, 62.7 5.6 C 44.5 21.6, 84.3 80.9, 79.5 70.7 C 66.3 77.1, 36.1 19.5, 31.0 18.6 C 45.8 6.2, 100.0 60.3, 98.5 66.9 Z" fill="none" fill-opacity="0.38" stroke="hsl(322, 74%, 44%)" stroke-width="0.97" filter="url(#f1)" transform="translate(1.1 13.1) rotate(253.3) scale(0.72 1.83)" />
<circle cx="44.9" cy="15.3" r="0.7" fill="hsl(40, 53%, 69%)" fill-opacity="0.73"  transform="translate(63.0 80.0) rotate(2.0) scale(1.46 1.93)" />
<rect x="51.8" y="54.4" width="23.5" height="32.5" rx="12.7" fill="hsl(106, 75%, 59%)" fill-opacity="0.90"    />
<path d="M 62.2 30.4 C 80.8 40.2, 67.8 87.9, 59.9 95.2 C 51.8 91.7, 76.8 35.3, 85.4 33.9 C 94.3 26.5, 45.8 18.7, 43.4 23.6 C 31.6 33.4, 42.8 31.5, 53.2 44.6 C 62.9 28.8, 84.4 15.8, 71.2 17.8 C 84.6 32.0, 97.4 32.9, 96.4 36.7 Z" fill="none" fill-opacity="0.45" stroke="hsl(151, 70%, 62%)" stroke-width="3.96"  transform="translate(52.5 97.2) rotate(313.0) scale(1.91 1.78)" />
<path d="M 6.7 79.6 C 0.0 98.4, 36.3 29.8, 21.7 29.7 C 26.4 15.0, 93.7 20.2, 87.2 15.6 C 100.0 32.9, 77.5 0.0, 88.1 6.6 C 80.5 22.3, 14.2 15.7, 13.0 5.7 C 0.0 0.0, 86.8 76.1, 92.5 84.0 C 100.0 91.3, 7.4 74.9, 14.9 82.1 C 25.1 75.0, 73.2 51.8, 72.6 41.7 Z" fill="hsl(322, 74%, 44%)" fill-opacity="0.33" stroke="none" stroke-width="1.31"   />
<circle cx="70.2" cy="59.1" r="16.8" fill="hsl(242, 72%, 49%)" fill-opacity="0.52"  transform="translate(35.0 82.0) rotate(290.9) scale(1.40 1.35)" />
<rect x="49.5" y="11.5" width="21.5" height="39.8" rx="0" fill="none" fill-opacity="0.23" stroke="hsl(40, 53%, 69%)" stroke-width="2.7"  transform="translate(79.7 49.2) rotate(299.3) scale(0.87 1.91)" />
<circle cx="82.7" cy="50.2" r="5.6" fill="hsl(40, 53%, 69%)" fill-opacity="0.82"  transform="translate(23.2 77.0) rotate(317.6) scale(1.27 1.84)" />
<path d="M 50.0 40.2 C 38.7 28.7, 90.1 100.0, 82.5 89.2 C 85.2 80.7, 61.1 64.9, 64.9 52.6 C 49.0 36.1, 35.6 16.0, 28.6 8.1 C 37.1 21.0, 68.4 69.3, 79.5 69.3 C 75.1 67.2, 68.0 0.0, 57.5 10.7 C 52.3 15.6, 88.6 75.5, 82.8 80.9 C 89.9 74.6, 3.5 93.7, 5.9 78.9 C 0.0 62.9, 64.8 88.9, 76.1 83.2 Z" fill="hsl(144, 86%, 72%)" fill-opacity="0.32" stroke="none" stroke-width="3.07"  transform="translate(43.6 91.7) rotate(154.4) scale(1.07 1.67)" />
<rect x="38.2" y="27.2" width="35.8" height="34.6" rx="0" fill="none" fill-opacity="0.39"   transform="translate(77.7 77.5) rotate(298.0) scale(0.97 1.49)" />
<path d="M 4.4 19.0 C 13.5 26.3, 39.5 8.1, 44.9 11.8 C 39.9 2.6, 88.5 88.5, 93.9 91.1 C 89.4 93.7, 68.7 74.6, 72.7 68.1 C 58.5 51.6, 84.2 74.9, 92.9 62.2 C 90.4 58.1, 77.3 40.1, 81.3 26.9 C 73.5 20.4, 29.1 12.1, 14.3 19.3 C 24.0 1.1, 77.1 37.1, 77.1 22.4 Z" fill="hsl(242, 72%, 49%)" fill-opacity="0.92" stroke="none" stroke-width="0.81"   />
<path d="M 2.9 88.9 C 0.0 100.0, 62.2 88.1, 67.5 80.4 C 77.7 92.6, 62.6 34.2, 55.0 21.1 C 65.1 13.0, 16.1 11.9, 11.5 12.6 C 30.6 0.0, 100.0 31.2, 93.2 24.5 C 100.0 28.0, 63.8 13.1, 67.4 21.8 C 66.6 40.6, 48.2 75.7, 40.4 90.1 Z" fill="hsl(322, 74%, 44%)" fill-opacity="0.58" stroke="none" stroke-width="3.83"  transform="translate(76.0 22.9) rotate(53.5) scale(1.07 1.09)" />
<circle cx="37.3" cy="15.1" r="3.4" fill="url(#g0)" fill-opacity="0.54"  transform="translate(86.2 49.4) rotate(327.4) scale(1.56 1.30)" />
<path d="M 92.3 70.4 C 77.4 50.7, 87.3 7.1, 77.9 12.5 C 72.4 21.1, 90.9 28.7, 93.6 14.1 C 79.4 0.0, 66.5 66.8, 76.2 67.0 C 71.2 75.0, 45.1 19.1, 59.5 32.0 C 41.8 12.6, 0.0 84.2, 0.1 79.0 C 0.0 70.0, 67.3 0.0, 73.0 3.0 C 89.3 2.5, 54.4 61.6, 63.2 56.2 C 79.1 46.2, 87.5 29.7, 89.6 17.7 C 96.7 6.9, 91.7 44.6, 92.2 40.5 C 100.0 56.5, 94.8 5.0, 83.1 2.2 Z" fill="hsl(86, 72%, 68%)" fill-opacity="0.86" stroke="none" stroke-width="4.52"  transform="translate(12.0 17.6) rotate(281.5) scale(1.27 1.08)" />
<rect x="42.4" y="71.0" width="46.6" height="25.3" rx="10.7" fill="hsl(83, 65%, 44%)" fill-opacity="0.92"   transform="translate(29.2 6.8) rotate(200.5) scale(1.61 1.83)" />
<circle cx="88.6" cy="81.9" r="8.9" fill="hsl(151, 70%, 62%)" fill-opacity="0.55"  transform="translate(99.2 52.5) rotate(191.8) scale(1.07 0.97)" />
<rect x="58.9" y="55.6" width="28.9" height="30.2" rx="12.9" fill="none" fill-opacity="0.26" stroke="hsl(183, 71%, 60%)" stroke-width="1.8"  transform="translate(12.2 40.8) rotate(62.4) scale(1.79 1.02)" />
<path d="M 65.9 97.0 C 48.9 97.5, 66.5 91.7, 68.9 83.6 C 79.8 75.1, 88.2 18.0, 94.7 21.3 C 100.0 33.7, 10.2 77.6, 6.2 77.7 C 0.0 88.4, 79.9 71.3, 80.7 79.4 C 83.4 75.9, 0.0 75.2, 14.3 63.6 C 0.0 48.9, 34.5 100.0, 25.9 93.7 Z" fill="none" fill-opacity="0.33" stroke="hsl(183, 71%, 60%)" stroke-width="0.91" filter="url(#f1)" transform="translate(2.9 61.3) rotate(118.1) scale(0.70 1.93)" />
<path d="M 38.4 28.5 C 36.3 17.8, 59.8 52.8, 47.9 62.8 C 39.4 79.3, 77.7 85.9, 91.9 83.1 C 98.4 100.0, 100.0 17.2, 94.4 24.5 C 100.0 15.4, 66.1 49.7, 65.2 55.8 C 56.4 69.9, 100.0 43.2, 98.4 32.4 C 100.0 50.6, 70.1 0.0, 60.1 3.7 " fill="none" fill-opacity="0.89" stroke="hsl(144, 86%, 72%)" stroke-width="1.65"  transform="translate(8.7 22.3) rotate(249.4) scale(1.57 0.82)" />
<path d="M 52.2 46.1 C 35.1 64.3, 0.4 7.6, 1.9 10.4 C 8.0 0.0, 22.0 37.2, 21.9 32.5 C 11.7 36.4, 89.0 71.5, 84.9 63.5 C 85.0 50.6, 27.9 86.9, 29.4 82.6 C 46.6 71.9, 27.2 19.4, 36.5 16.0 C 45.3 18.3, 43.1 12.2, 37.1 26.0 C 33.8 21.9, 83.8 36.4, 92.8 33.3 Z" fill="hsl(2, 82%, 55%)" fill-opacity="0.85" stroke="none" stroke-width="3.78"  transform="translate(51.7 31.4) rotate(202.1) scale(1.52 0.82)" />
<circle cx="1.4" cy="90.3" r="4.1" fill="url(#g0)" fill-opacity="0.60"  transform="translate(56.0 54.7) rotate(145.1) scale(1.66 1.64)" />
<path d="M 14.2 97.6 C 7.6 100.0, 43.8 5.5, 55.7 20.4 C 51.7 14.3, 78.5 100.0, 66.3 97.2 C 82.8 92.3, 0.0 30.0, 4.8 27.1 C 13.2 29.6, 42.5 0.0, 35.9 2.0 C 32.5 2.1, 88.8 100.0, 95.0 86.1 C 88.4 83.7, 54.5 43.4, 65.5 43.5 C 53.0 56.3, 14.6 71.4, 29.4 62.1 Z" fill="hsl(242, 72%, 49%)" fill-opacity="0.91" stroke="none" stroke-width="3.24"   />
<rect x="12.9" y="40.7" width="44.9" height="35.5" rx="12.7" fill="hsl(104, 72%, 65%)" fill-opacity="0.94"    />
<circle cx="87.8" cy="13.7" r="4.8" fill="url(#g0)" fill-opacity="0.98"  transform="translate(47.8 1.6) rotate(69.5) scale(1.24 0.96)" />
<rect x="49.4" y="12.8" width="39.4" height="25.0" rx="2.3" fill="hsl(83, 65%, 44%)" fill-opacity="0.32"   transform="translate(38.3 17.0) rotate(302.7) scale(0.84 0.71)" />
<path d="M 5.0 21.8 C 23.6 25.2, 86.6 93.1, 81.1 80.0 C 67.3 70.3, 100.0 7.8, 96.3 5.7 C 88.8 13.8, 43.1 52.7, 57.2 47.6 C 46.6 62.7, 0.0 68.6, 4.4 73.0 C 8.3 75.3, 20.3 32.4, 8.5 40.9 C 0.0 41.3, 73.2 2.0, 66.4 3.0 C 75.8 0.0, 0.0 49.4, 2.7 38.7 C 12.0 52.7, 83.0 82.9, 94.9 81.1 C 100.0 76.2, 67.8 87.9, 55.5 98.5 Z" fill="none" fill-opacity="0.78" stroke="hsl(106, 75%, 59%)" stroke-width="1.86" filter="url(#f1)" transform="translate(82.7 85.1) rotate(212.4) scale(1.25 1.85)" />
<circle cx="87.1" cy="38.7" r="3.7" fill="url(#g2)" fill-opacity="0.81"  transform="translate(64.8 89.9) rotate(48.5) scale(1.22 1.73)" />
<path d="M 66.7 38.9 C 52.4 58.0, 42.0 34.9, 36.4 40.2 C 52.8 39.6, 2.7 44.5, 11.3 59.1 C 22.6 43.4, 0.0 30.1, 8.4 43.0 C 7.6 33.1, 19.2 48.6, 8.9 46.4 C 17.8 61.2, 97.8 32.9, 85.3 45.9 C 100.0 34.5, 47.9 100.0, 46.6 94.3 C 66.0 82.6, 67.6 53.6, 61.4 50.5 C 73.3 40.8, 0.0 3.8, 11.5 14.2 Z" fill="none" fill-opacity="0.41" stroke="hsl(2, 82%, 55%)" stroke-width="4.59" filter="url(#f1)" transform="translate(96.2 91.8) rotate(91.0) scale(1.92 1.39)" />
<path d="M 20.2 56.2 C 0.7 73.5, 23.5 27.4, 37.5 30.6 C 21.4 26.0, 67.7 26.3, 79.0 29.2 C 77.5 19.2, 16.4 58.0, 7.7 57.6 C 19.2 71.2, 86.6 54.6, 99.8 61.1 C 100.0 46.3, 59.7 79.4, 51.9 92.3 C 44.4 100.0, 14.1 28.6, 21.6 28.8 Z" fill="hsl(183, 71%, 60%)" fill-opacity="0.77" stroke="none" stroke-width="0.82"  transform="translate(29.3 84.7) rotate(290.9) scale(1.75 0.87)" />
<path d="M 96.4 67.1 C 88.0 56.8, 1.6 88.5, 1.1 85.1 C 2.0 97.1, 79.1 0.4, 75.3 3.8 C 93.0 7.8, 92.5 0.2, 88.1 14.5 C 89.4 33.2, 44.2 58.4, 32.0 67.4 C 39.6 59.4, 49.9 23.0, 49.7 27.2 C 56.7 39.9, 13.4 72.7, 19.2 64.5 C 38.2 83.6, 10.3 33.6, 16.4 22.9 C 28.1 38.2, 50.6 32.2, 47.3 44.9 C 66.7 40.3, 13.1 29.4, 27.8 15.5 C 15.9 13.8, 66.3 24.0, 63.1 32.6 Z" fill="hsl(2, 82%, 55%)" fill-opacity="0.60" stroke="none" stroke-width="2.56"  transform="translate(10.7 50.3) rotate(258.5) scale(1.37 0.88)" />
<rect x="65.3" y="3.0" width="32.7" height="34.5" rx="12.4" fill="none" fill-opacity="0.48" stroke="hsl(2, 82%, 55%)" stroke-width="2.9"  transform="translate(4.5 39.0) rotate(310.3) scale(1.95 0.51)" />
<path d="M 24.9 33.5 C 30.8 16.1, 6.7 90.7, 7.3 97.9 C 17.6 86.6, 61.7 81.5, 61.6 92.8 C 75.9 88.3, 53.0 31.8, 63.2 25.7 C 72.1 5.9, 53.9 69.0, 41.6 71.9 C 30.5 68.5, 86.0 7.4, 89.4 8.5 C 95.3 15.6, 28.1 82.5, 15.2 82.4 Z" fill="hsl(290, 83%, 63%)" fill-opacity="0.51" stroke="none" stroke-width="2.43"  transform="translate(45.0 71.5) rotate(140.2) scale(1.40 1.30)" />
<path d="M 14.9 50.2 C 29.5 56.5, 27.9 88.2, 22.0 95.4 C 11.2 80.4, 9.3 0.0, 14.7 3.8 C 20.4 0.0, 93.6 100.0, 95.0 99.5 C 100.0 100.0, 31.8 86.4, 19.3 99.6 C 15.4 85.1, 53.4 25.9, 64.0 13.4 C 67.9 0.0, 81.8 44.7, 90.7 56.1 C 79.1 60.2, 52.4 26.5, 51.0 13.3 C 31.0 28.3, 44.9 0.0, 46.8 11.9 C 63.2 3.8, 55.1 2.8, 44.3 2.9 Z" fill="hsl(151, 70%, 62%)" fill-opacity="0.54" stroke="none" stroke-width="1.39" filter="url(#f1)" transform="translate(14.1 26.1) rotate(265.6) scale(1.94 1.55)" />
<path d="M 27.7 48.9 C 16.2 59.8, 100.0 0.0, 94.5 2.5 C 100.0 20.7, 77.2 53.8, 73.2 49.1 C 85.3 58.6, 53.9 15.6, 62.5 5.4 C 59.6 9.2, 98.6 99.4, 96.5 94.0 C 79.5 94.4, 24.0 55.6, 37.3 52.6 C 40.8 51.1, 63.3 100.0, 58.1 98.0 Z" fill="hsl(40, 53%, 69%)" fill-opacity="0.99" stroke="none" stroke-width="1.92"  transform="translate(75.6 47.2) rotate(144.6) scale(1.77 1.77)" />
<path d="M 89.0 68.3 C 71.8 78.1, 19.7 70.8, 31.5 57.5 C 12.3 67.6, 11.6 100.0, 19.1 96.7 C 17.7 93.1, 2.3 90.3, 12.3 75.8 C 21.4 68.9, 72.3 48.5, 87.0 60.0 C 100.0 64.2, 63.5 65.5, 71.5 62.7 C 62.4 74.7, 24.0 5.8, 17.6 0.8 C 24.3 11.3, 63.7 70.5, 60.7 65.4 C 73.0 80.1, 24.6 96.9, 10.1 93.1 Z" fill="hsl(83, 65%, 44%)" fill-opacity="0.58" stroke="none" stroke-width="4.99"  transform="translate(85.6 71.8) rotate(12.3) scale(1.47 1.36)" />
<rect x="27.3" y="74.3" width="25.0" height="23.5" rx="0" fill="hsl(2, 82%, 55%)" fill-opacity="0.38"   transform="translate(1.8 20.1) rotate(215.5) scale(1.33 0.56)" />
<path d="M 29.3 41.0 C 13.1 52.5, 10.9 63.2, 24.9 66.9 C 37.6 64.6, 14.6 95.0, 23.9 89.4 C 34.5 92.3, 52.4 65.4, 60.6 52.1 C 79.9 49.5, 100.0 65.8, 91.9 58.0 C 84.9 63.5, 2.6 43.3, 10.6 37.0 C 16.8 50.0, 45.7 57.8, 44.8 49.9 C 47.4 63.3, 89.8 95.8, 89.8 96.3 C 72.2 97.0, 79.5 28.5, 66.4 23.3 Z" fill="hsl(106, 75%, 59%)" fill-opacity="0.29" stroke="none" stroke-width="4.62"  transform="translate(72.8 9.8) rotate(81.6) scale(1.21 0.93)" />
<circle cx="90.2" cy="85.3" r="5.3" fill="hsl(151, 70%, 62%)" fill-opacity="0.91"   />
<rect x="47.2" y="4.5" width="30.7" height="15.6" rx="13.6" fill="hsl(151, 70%, 62%)" fill-opacity="0.84"   transform="translate(55.5 94.3) rotate(275.6) scale(1.93 0.50)" />
<path d="M 4.0 33.6 C 0.0 45.5, 55.1 35.8, 67.5 42.8 C 49.0 48.1, 40.2 90.3, 46.9 88.6 C 45.2 75.9, 66.5 72.9, 63.8 66.4 C 53.4 81.9, 15.0 4.1, 5.6 8.5 C 0.0 0.0, 38.9 49.3, 31.0 51.3 C 40.6 63.0, 68.6 100.0, 59.4 90.6 C 60.1 100.0, 88.9 17.3, 91.7 22.5 C 98.3 38.0, 38.1 85.3, 52.8 78.8 Z" fill="none" fill-opacity="0.88" stroke="hsl(322, 74%, 44%)" stroke-width="0.86" filter="url(#f1)"  />
<circle cx="0.1" cy="31.9" r="8.0" fill="url(#g0)" fill-opacity="0.94"  transform="translate(0.4 49.7) rotate(5.4) scale(1.51 1.96)" />
<path d="M 55.2 30.6 C 54.3 47.0, 67.6 3.2, 77.4 4.0 C 64.8 0.0, 66.1 100.0, 57.7 98.6 C 50.0 100.0, 42.8 23.2, 40.7 34.7 C 29.5 40.8, 45.0 56.0, 32.4 58.7 C 13.7 48.4, 17.1 57.7, 23.8 64.8 C 29.6 77.8, 82.3 88.2, 86.0 98.5 C 76.2 93.3, 13.5 100.0, 16.2 97.6 C 4.9 96.0, 83.5 98.4, 87.0 90.1 C 100.0 74.9, 31.1 54.0, 38.2 47.3 C 27.1 39.4, 56.4 14.9, 58.0 7.9 " fill="hsl(151, 70%, 62%)" fill-opacity="0.64" stroke="none" stroke-width="2.51" filter="url(#f1)" transform="translate(65.0 39.5) rotate(295.4) scale(0.78 1.42)" />
<circle cx="21.1" cy="62.1" r="8.6" fill="url(#g0)" fill-opacity="0.41"  transform="translate(93.8 85.5) rotate(320.4) scale(1.57 1.46)" />
<rect x="8.4" y="24.5" width="30.4" height="30.8" rx="0" fill="none" fill-opacity="0.64" stroke="hsl(322, 74%, 44%)" stroke-width="2.5"  transform="translate(0.8 3.0) rotate(254.2) scale(0.74 1.26)" />
<path d="M 15.0 6.4 C 34.6 5.2, 2.7 50.4, 13.0 37.3 C 16.5 23.9, 2.3 12.7, 8.6 19.5 C 4.5 27.7, 99.0 20.6, 93.5 9.1 C 85.8 22.4, 80.7 81.7, 92.9 70.3 C 100.0 89.6, 82.6 22.8, 78.2 22.6 C 91.8 4.5, 48.6 27.9, 59.6 18.8 C 74.8 32.4, 82.6 43.9, 96.5 42.6 C 82.7 33.5, 0.0 27.9, 6.6 24.0 Z" fill="none" fill-opacity="0.92" stroke="hsl(151, 70%, 62%)" stroke-width="4.20"   />
<rect x="44.9" y="20.1" width="35.3" height="31.6" rx="0" fill="hsl(83, 65%, 44%)" fill-opacity="0.37"   transform="translate(20.0 96.5) rotate(39.4) scale(0.85 1.00)" />
<path d="M 80.8 53.3 C 62.0 41.3, 34.3 85.3, 37.9 88.2 C 54.4 100.0, 43.3 78.1, 38.8 67.8 C 19.6 80.5, 16.7 66.6, 30.4 81.4 C 35.8 100.0, 93.8 76.0, 88.9 87.6 C 100.0 84.3, 60.3 65.5, 69.2 70.5 C 70.8 65.6, 75.7 57.7, 69.4 60.9 C 59.4 48.9, 56.3 18.5, 48.8 26.9 C 51.7 22.0, 13.7 48.2, 15.3 33.9 Z" fill="hsl(242, 72%, 49%)" fill-opacity="0.60" stroke="none" stroke-width="1.55"  transform="translate(51.1 84.5) rotate(223.3) scale(1.07 1.09)" />
<rect x="24.4" y="17.1" width="43.1" height="38.0" rx="0" fill="hsl(183, 71%, 60%)" fill-opacity="0.32" stroke="hsl(322, 74%, 44%)" stroke-width="4.8"  transform="translate(34.8 0.9) rotate(250.9) scale(0.51 1.46)" />
<path d="M 33.4 72.7 C 35.2 87.7, 24.5 96.5, 39.5 96.9 C 21.8 98.8, 100.0 92.6, 91.5 85.3 C 98.2 89.7, 24.7 11.6, 17.2 6.5 C 6.5 24.8, 69.6 51.6, 61.7 49.2 C 69.2 33.1, 92.2 78.6, 91.3 89.5 C 100.0 96.5, 70.8 82.6, 56.8 96.6 Z" fill="none" fill-opacity="0.35" stroke="hsl(40, 53%, 69%)" stroke-width="0.91"   />
<path d="M 80.2 22.3 C 83.7 18.6, 94.9 94.5, 81.6 87.6 C 97.5 91.9, 48.3 79.5, 58.2 81.0 C 64.8 69.9, 32.5 43.8, 45.3 33.4 C 42.1 25.5, 62.6 88.7, 56.0 92.2 C 38.6 80.8, 51.2 66.5, 43.1 76.4 C 51.2 92.2, 97.4 32.9, 91.2 44.5 C 100.0 44.8, 21.9 19.1, 8.3 30.3 Z" fill="hsl(104, 72%, 65%)" fill-opacity="0.46" stroke="none" stroke-width="2.46"  transform="translate(44.0 3.7) rotate(269.7) scale(0.77 1.04)" />
<circle cx="90.1" cy="75.9" r="3.5" fill="url(#g1)" fill-opacity="0.52"  transform="translate(64.1 79.5) rotate(197.7) scale(0.75 1.83)" />
<path d="M 64.7 28.8 C 82.3 19.0, 7.3 86.1, 7.3 73.2 C 0.0 63.5, 41.5 68.0, 27.0 79.2 C 11.2 85.3, 94.8 71.8, 98.3 68.0 C 100.0 69.0, 79.7 66.5, 76.5 54.5 C 68.0 38.5, 17.8 16.4, 4.8 11.5 C 24.7 20.4, 77.0 61.2, 85.8 58.9 C 95.0 57.6, 93.2 31.6, 85.3 39.3 Z" fill="none" fill-opacity="0.56" stroke="hsl(83, 65%, 44%)" stroke-width="2.43"   />
<path d="M 50.6 9.3 C 50.2 2.8, 83.8 57.4, 79.8 68.0 C 74.5 77.6, 47.1 26.0, 52.6 23.6 C 34.7 13.2, 6.3 0.0, 1.4 4.4 C 21.1 0.0, 96.2 90.5, 98.3 79.2 C 100.0 91.3, 5.1 82.4, 17.3 88.7 C 0.0 70.4, 55.7 30.2, 57.9 27.0 C 75.3 10.4, 100.0 94.6, 99.8 97.8 C 83.4 100.0, 4.0 26.7, 0.9 30.1 Z" fill="hsl(104, 72%, 65%)" fill-opacity="0.98" stroke="none" stroke-width="4.63" filter="url(#f1)" transform="translate(19.7 68.2) rotate(185.8) scale(1.65 0.88)" />
<circle cx="96.9" cy="74.7" r="0.2" fill="url(#g0)" fill-opacity="0.98"  transform="translate(8.9 40.7) rotate(207.5) scale(0.60 0.98)" />
<circle cx="53.6" cy="76.2" r="2.1" fill="url(#g1)" fill-opacity="0.73"  transform="translate(37.8 6.6) rotate(144.6) scale(1.17 0.55)" />
<path d="M 83.0 48.0 C 72.2 60.9, 83.5 59.1, 98.0 46.4 C 100.0 30.3, 11.2 62.1, 14.3 76.6 C 30.5 95.8, 42.8 66.7, 31.3 67.1 C 31.9 64.3, 92.3 88.8, 86.8 80.9 C 82.1 75.9, 39.4 14.6, 42.5 29.3 C 39.5 39.4, 21.5 46.0, 25.1 41.1 C 39.5 42.8, 40.7 35.6, 43.8 32.4 C 54.7 51.0, 87.8 58.9, 74.0 44.0 Z" fill="hsl(290, 83%, 63%)" fill-opacity="0.78" stroke="none" stroke-width="4.86"  transform="translate(65.6 26.9) rotate(331.9) scale(1.57 1.08)" />
<path d="M 80.1 60.2 C 85.9 78.4, 100.0 37.3, 97.3 24.8 C 100.0 34.8, 93.6 78.9, 87.3 79.6 C 75.4 89.3, 23.4 79.2, 20.8 75.9 C 16.0 95.3, 63.5 89.0, 55.2 85.0 C 48.3 99.9, 72.6 77.8, 77.2 77.8 C 94.6 88.8, 42.4 31.6, 34.6 35.0 C 43.8 52.2, 96.8 20.4, 91.3 15.6 C 86.8 17.4, 64.0 79.4, 77.9 93.1 C 92.7 100.0, 90.2 67.3, 77.0 82.2 C 87.2 86.9, 76.7 100.0, 66.4 96.9 Z" fill="none" fill-opacity="0.28" stroke="hsl(86, 72%, 68%)" stroke-width="2.56"  transform="translate(50.2 68.1) rotate(147.1) scale(2.00 1.39)" />
<rect x="51.2" y="49.8" width="37.0" height="32.5" rx="11.5" fill="none" fill-opacity="0.88" stroke="hsl(40, 53%, 69%)" stroke-width="2.1"  transform="translate(79.6 60.0) rotate(68.4) scale(0.63 1.19)" />
<rect x="23.1" y="62.6" width="35.6" height="22.7" rx="0" fill="hsl(40, 53%, 69%)" fill-opacity="0.79"   transform="translate(24.7 13.3) rotate(230.5) scale(0.55 1.78)" />
<rect x="34.3" y="40.8" width="45.3" height="24.9" rx="0" fill="hsl(86, 72%, 68%)" fill-opacity="0.92"  filter="url(#f1)" transform="translate(79.1 46.0) rotate(68.2) scale(1.94 0.74)" />
<rect x="1.9" y="67.5" width="40.2" height="30.4" rx="0.8" fill="none" fill-opacity="0.56"   transform="translate(20.7 40.1) rotate(263.5) scale(1.28 1.09)" />
<path d="M 11.7 96.3 C 8.0 80.2, 0.0 10.7, 9.5 6.8 C 14.8 23.1, 69.3 97.3, 75.7 97.9 C 91.5 100.0, 14.6 83.6, 29.2 90.8 C 35.9 94.2, 54.8 49.7, 45.4 48.1 C 65.2 61.7, 98.2 57.1, 95.1 42.1 C 100.0 60.1, 27.5 51.5, 24.5 37.1 C 20.4 48.7, 6.3 61.4, 2.7 61.5 C 8.2 63.5, 67.4 17.4, 75.5 17.3 C 59.2 0.0, 5.8 86.5, 16.0 88.8 Z" fill="none" fill-opacity="0.62" stroke="hsl(151, 70%, 62%)" stroke-width="2.10"   />
<path d="M 97.3 89.3 C 100.0 84.8, 80.4 78.5, 77.0 80.7 C 79.6 79.9, 85.0 18.0, 99.3 28.4 C 88.5 17.0, 37.4 61.3, 44.4 55.5 C 43.0 54.4, 73.1 52.2, 60.2 57.9 C 40.7 64.1, 79.5 93.4, 87.1 95.2 C 92.4 82.0, 70.5 79.4, 61.8 65.4 Z" fill="none" fill-opacity="0.61" stroke="hsl(322, 74%, 44%)" stroke-width="1.11"  transform="translate(25.3 15.5) rotate(227.4) scale(1.67 1.24)" />
<path d="M 66.3 42.6 C 84.4 24.5, 82.8 29.8, 88.8 23.0 C 96.4 30.5, 13.9 87.3, 9.5 75.2 C 0.0 66.8, 10.6 59.9, 8.8 45.8 C 0.0 57.8, 76.7 77.8, 65.0 86.5 C 70.9 69.0, 81.2 32.7, 74.0 39.5 C 71.8 29.2, 52.9 65.6, 67.3 65.8 C 75.6 85.5, 21.9 68.5, 16.1 60.8 C 21.0 69.7, 15.0 66.3, 0.8 58.5 C 14.1 57.1, 73.6 19.6, 85.6 22.5 Z" fill="hsl(40, 53%, 69%)" fill-opacity="0.31" stroke="none" stroke-width="3.97"  transform="translate(39.3 11.4) rotate(298.5) scale(1.05 1.17)" />
<path d="M 84.0 30.8 C 100.0 34.3, 48.0 100.0, 55.3 95.7 C 74.2 86.5, 70.2 17.5, 67.7 6.8 C 52.6 16.2, 26.3 18.7, 39.3 5.9 C 26.8 5.1, 82.1 98.6, 74.9 84.1 C 89.3 73.9, 66.5 81.1, 71.7 84.3 C 71.4 80.2, 92.4 100.0, 92.7 97.9 C 93.8 100.0, 59.8 60.7, 52.0 51.2 C 69.8 70.4, 16.4 41.8, 17.8 35.9 C 20.3 41.0, 82.5 54.0, 94.6 44.8 C 98.9 51.1, 68.2 33.8, 80.7 41.5 Z" fill="none" fill-opacity="0.94" stroke="hsl(144, 86%, 72%)" stroke-width="1.09"  transform="translate(30.3 46.0) rotate(42.5) scale(0.94 0.96)" />
<circle cx="48.7" cy="75.8" r="2.5" fill="hsl(290, 83%, 63%)" fill-opacity="0.67"  transform="translate(87.2 19.4) rotate(31.5) scale(1.87 0.95)" />
<path d="M 15.9 3.3 C 19.9 5.1, 68.2 75.4, 78.1 63.2 C 80.3 63.1, 6.7 66.3, 13.4 60.5 C 4.0 62.4, 69.3 52.9, 60.5 67.4 C 51.4 64.2, 42.6 81.5, 30.9 76.5 C 26.8 85.3, 32.9 44.1, 21.6 56.7 C 5.2 51.3, 19.2 43.4, 5.8 33.1 Z" fill="hsl(2, 82%, 55%)" fill-opacity="0.33" stroke="none" stroke-width="1.47"  transform="translate(50.4 1.2) rotate(32.4) scale(1.85 0.94)" />
<rect x="58.9" y="15.9" width="32.9" height="35.3" rx="15.3" fill="none" fill-opacity="0.83"   transform="translate(81.0 36.2) rotate(150.6) scale(1.70 1.91)" />
<rect x="10.1" y="30.2" width="29.0" height="21.5" rx="0" fill="hsl(106, 75%, 59%)" fill-opacity="0.28"   transform="translate(19.9 70.1) rotate(73.7) scale(0.96 1.03)" />
<circle cx="97.7" cy="4.0" r="1.1" fill="hsl(40, 53%, 69%)" fill-opacity="0.43"  transform="translate(58.4 40.6) rotate(98.4) scale(1.56 1.80)" />
<path d="M 45.3 62.5 C 29.5 65.3, 97.5 17.2, 93.0 4.8 C 82.7 10.6, 78.6 21.9, 78.2 28.8 C 79.7 17.0, 47.3 19.1, 33.9 22.5 C 44.4 29.7, 71.4 63.2, 57.3 56.2 C 41.4 64.1, 65.3 8.9, 56.9 11.2 C 61.4 10.7, 67.3 65.1, 58.8 68.7 C 41.9 83.3, 73.7 65.6, 63.8 54.2 C 70.4 61.8, 72.2 1.8, 64.9 4.8 C 51.0 0.0, 48.6 40.4, 36.1 33.6 Z" fill="hsl(104, 72%, 65%)" fill-opacity="0.26" stroke="none" stroke-width="2.98"  transform="translate(71.7 82.3) rotate(331.3) scale(1.66 1.42)" />
<rect x="2.0" y="56.9" width="22.0" height="22.5" rx="0" fill="none" fill-opacity="0.88" stroke="hsl(2, 82%, 55%)" stroke-width="4.1"  transform="translate(76.3 52.2) rotate(73.8) scale(1.47 0.87)" />
<path d="M 36.8 25.8 C 41.7 23.6, 91.2 64.1, 91.0 51.9 C 85.5 32.2, 36.7 100.0, 24.2 86.5 C 8.6 83.1, 78.4 32.8, 80.6 42.1 C 79.7 43.6, 23.1 26.1, 28.2 16.3 C 43.0 22.5, 61.1 13.1, 74.2 13.1 C 87.0 20.9, 80.9 16.0, 82.1 23.9 C 95.6 27.3, 82.5 80.5, 75.4 74.9 Z" fill="hsl(83, 65%, 44%)" fill-opacity="0.81" stroke="none" stroke-width="2.43"  transform="translate(13.6 74.3) rotate(156.4) scale(0.92 1.15)" />
<path d="M 24.0 61.1 C 42.2 79.6, 72.4 26.3, 63.0 19.5 C 61.5 38.7, 43.0 62.6, 49.0 66.8 C 34.3 81.9, 88.5 21.4, 84.4 14.2 C 66.2 25.5, 23.6 4.1, 23.5 13.3 C 29.0 18.2, 24.5 68.2, 27.7 65.2 C 26.2 81.7, 58.6 0.0, 63.7 1.1 " fill="none" fill-opacity="0.41" stroke="hsl(151, 70%, 62%)" stroke-width="2.12"   />
<rect x="25.7" y="0.3" width="48.5" height="37.9" rx="0" fill="hsl(83, 65%, 44%)" fill-opacity="0.57"   transform="translate(10.8 54.5) rotate(95.9) scale(1.00 1.62)" />
<path d="M 69.7 35.6 C 77.3 44.7, 61.8 46.8, 75.6 39.8 C 82.6 36.9, 1.9 62.9, 5.2 62.1 C 5.8 52.4, 30.7 70.9, 35.8 65.0 C 25.5 66.6, 40.8 7.7, 33.1 19.4 C 18.4 25.5, 28.6 40.4, 32.6 38.6 C 51.3 50.5, 69.8 23.8, 69.6 19.2 C 64.8 30.4, 50.4 36.3, 62.5 33.2 C 47.3 37.3, 16.7 43.7, 6.2 50.8 Z" fill="hsl(144, 86%, 72%)" fill-opacity="0.27" stroke="none" stroke-width="3.76"   />
<path d="M 45.6 83.6 C 65.3 100.0, 51.7 91.7, 50.9 78.2 C 34.0 82.4, 88.6 45.5, 87.4 32.6 C 75.2 37.0, 16.7 56.2, 14.9 63.8 C 34.7 83.1, 58.4 54.2, 57.0 58.2 C 59.2 51.2, 20.8 74.3, 25.4 86.3 C 33.3 100.0, 29.8 23.2, 35.7 13.6 Z" fill="none" fill-opacity="0.42" stroke="hsl(104, 72%, 65%)" stroke-width="5.18"  transform="translate(53.8 6.2) rotate(125.3) scale(0.99 0.91)" />
<g opacity="0.073">
<rect x="0" y="0" width="1" height="100" fill="black" />
<rect x="22" y="0" width="1" height="100" fill="black" />
<rect x="44" y="0" width="1" height="100" fill="black" />
<rect x="66" y="0" width="1" height="100" fill="black" />
<rect x="88" y="0" width="1" height="100" fill="black" />
<rect x="0" y="0" width="100" height="1" fill="black" />
<rect x="0" y="22" width="100" height="1" fill="black" />
<rect x="0" y="44" width="100" height="1" fill="black" />
<rect x="0" y="66" width="100" height="1" fill="black" />
<rect x="0" y="88" width="100" height="1" fill="black" />
</g>

</svg>
