<?xml version="1.0" encoding="UTF-8"?>
<svg xmlns="http://www.w3.org/2000/svg" width="100" height="100" viewBox="0 0 100 100">
<defs>
<linearGradient id="g0" x1="0%" y1="0%" x2="100%" y2="100%">
<stop offset="0.0%" stop-color="hsl(106, 75%, 59%)" />
<stop offset="33.3%" stop-color="hsl(183, 71%, 60%)" />
<stop offset="66.7%" stop-color="hsl(242, 72%, 49%)" />
<stop offset="100.0%" stop-color="hsl(322, 74%, 44%)" />
</linearGradient>
<linearGradient id="g1" x1="0%" y1="0%" x2="100%" y2="100%">
<stop offset="0.0%" stop-color="hsl(290, 83%, 63%)" />
<stop offset="33.3%" stop-color="hsl(2, 82%, 55%)" />
<stop offset="66.7%" stop-color="hsl(86, 72%, 68%)" />
<stop offset="100.0%" stop-color="hsl(83, 65%, 44%)" />
</linearGradient>
<linearGradient id="g2" x1="0%" y1="0%" x2="100%" y2="100%">
<stop offset="0.0%" stop-color="hsl(40, 53%, 69%)" />
<stop offset="33.3%" stop-color="hsl(104, 72%, 65%)" />
<stop offset="66.7%" stop-color="hsl(144, 86%, 72%)" />
<stop offset="100.0%" stop-color="hsl(151, 70%, 62%)" />
</linearGradient>
</defs>

<path d="M 74.9 85.0 C 67.3 82.5, 71.8 77.2, 81.9 87.4 C 81.0 95.7, 88.5 83.9, 95.5 74.9 C 100.0 63.4, 23.1 48.6, 23.9 46.6 C 15.8 55.8, 49.2 18.2, 51.2 22.6 C 47.9 38.7, 83.5 72.0, 85.6 63.7 C 68.2 59.8, 44.6 56.0, 52.4 56.8 C 33.5 53.9, 53.0 86.5, 58.2 73.5 " fill="hsl(40, 53%, 69%)" fill-opacity="0.50" stroke="none" stroke-width="1.12"   />
<path d="M 42.2 9.9 C 35.8 19.2, 88.7 65.4, 89.4 55.3 C 100.0 51.5, 68.5 69.3, 80.7 75.9 C 78.6 89.5, 91.5 23.2, 82.0 10.5 C 70.6 12.6, 22.4 23.1, 18.5 30.3 C 33.7 39.1, 49.1 85.0, 56.8 84.2 C 48.0 86.0, 32.7 83.3, 19.3 84.7 Z" fill="hsl(183, 71%, 60%)" fill-opacity="0.89" stroke="none" stroke-width="1.19"   />
<path d="M 40.8 96.6 C 31.5 100.0, 54.9 76.2, 42.0 79.1 C 33.0 85.8, 86.4 24.2, 88.0 14.8 C 97.4 3.3, 58.7 95.8, 68.6 87.0 C 62.8 100.0, 15.6 83.2, 23.0 74.5 C 37.8 57.5, 50.8 100.0, 57.5 97.5 Z" fill="none" fill-opacity="0.28" stroke="hsl(104, 72%, 65%)" stroke-width="0.98"   />
<path d="M 80.4 8.5 C 100.0 20.6, 84.2 73.7, 79.5 75.2 C 78.1 73.5, 76.0 0.0, 66.1 1.5 C 62.3 13.8, 22.2 63.2, 12.2 64.4 C 19.9 52.6, 52.0 4.5, 59.0 16.7 C 49.1 20.1, 74.7 43.1, 68.8 37.8 C 72.4 36.5, 32.7 69.9, 32.7 76.5 C 33.9 71.0, 66.4 6.2, 76.2 19.9 " fill="hsl(83, 65%, 44%)" fill-opacity="0.78" stroke="none" stroke-width="0.86"   />
<circle cx="87.5" cy="49.2" r="0.3" fill="hsl(2, 82%, 55%)" fill-opacity="0.75"   />
<rect x="44.0" y="54.0" width="32.5" height="23.9" rx="0" fill="none" fill-opacity="0.89" stroke="hsl(2, 82%, 55%)" stroke-width="3.2"   />
<circle cx="49.9" cy="10.0" r="0.3" fill="hsl(83, 65%, 44%)" fill-opacity="0.73"   />
<path d="M 4.1 17.8 C 16.1 0.0, 4.7 42.3, 9.5 42.8 C 0.0 42.3, 95.3 60.5, 98.2 47.4 C 100.0 47.5, 62.6 57.6, 52.9 53.5 C 44.9 37.9, 23.1 84.9, 20.1 79.3 C 32.9 67.7, 74.4 6.3, 66.1 2.6 " fill="hsl(144, 86%, 72%)" fill-opacity="0.65" stroke="none" stroke-width="1.00"  transform="translate(46.7 79.7) rotate(331.6) scale(1.12 1.16)" />
<rect x="49.1" y="73.8" width="48.4" height="15.8" rx="0.8" fill="none" fill-opacity="0.86"    />
<circle cx="91.9" cy="13.7" r="1.1" fill="hsl(40, 53%, 69%)" fill-opacity="0.98"  transform="translate(62.5 53.1) rotate(205.3) scale(1.60 0.54)" />
<circle cx="32.5" cy="36.9" r="0.0" fill="hsl(86, 72%, 68%)" fill-opacity="0.43"   />
<circle cx="56.0" cy="14.1" r="0.6" fill="hsl(322, 74%, 44%)" fill-opacity="0.75"  transform="translate(25.4 50.9) rotate(187.3) scale(0.89 0.92)" />
<path d="M 28.4 91.7 C 42.0 91.8, 12.1 72.3, 8.9 63.5 C 0.0 53.9, 53.0 83.8, 43.6 87.3 C 55.9 85.3, 8.1 57.1, 16.3 45.4 " fill="hsl(83, 65%, 44%)" fill-opacity="0.35" stroke="none" stroke-width="1.13"   />
<path d="M 23.4 4.4 C 26.0 0.0, 51.4 13.9, 50.8 5.5 C 53.3 16.8, 39.3 7.3, 39.8 3.1 C 38.5 11.0, 13.2 14.2, 6.1 6.5 C 24.0 2.9, 25.7 83.7, 38.7 86.6 C 26.2 79.4, 32.5 0.0, 31.4 1.2 " fill="none" fill-opacity="0.65" stroke="hsl(83, 65%, 44%)" stroke-width="0.86"   />
<circle cx="29.1" cy="33.5" r="0.4" fill="hsl(144, 86%, 72%)" fill-opacity="0.70"  transform="translate(57.7 87.9) rotate(325.0) scale(0.92 1.11)" />
</svg>
