<?xml version="1.0" encoding="UTF-8"?>
<svg xmlns="http://www.w3.org/2000/svg" width="100" height="100" viewBox="0 0 100 100">
<defs>
<linearGradient id="g0" x1="0%" y1="0%" x2="100%" y2="100%">
<stop offset="0.0%" stop-color="hsl(106, 75%, 59%)" />
<stop offset="33.3%" stop-color="hsl(183, 71%, 60%)" />
<stop offset="66.7%" stop-color="hsl(242, 72%, 49%)" />
<stop offset="100.0%" stop-color="hsl(322, 74%, 44%)" />
</linearGradient>
<linearGradient id="g1" x1="0%" y1="0%" x2="100%" y2="100%">
<stop offset="0.0%" stop-color="hsl(290, 83%, 63%)" />
<stop offset="33.3%" stop-color="hsl(2, 82%, 55%)" />
<stop offset="66.7%" stop-color="hsl(86, 72%, 68%)" />
<stop offset="100.0%" stop-color="hsl(83, 65%, 44%)" />
</linearGradient>
<linearGradient id="g2" x1="0%" y1="0%" x2="100%" y2="100%">
<stop offset="0.0%" stop-color="hsl(40, 53%, 69%)" />
<stop offset="33.3%" stop-color="hsl(104, 72%, 65%)" />
<stop offset="66.7%" stop-color="hsl(144, 86%, 72%)" />
<stop offset="100.0%" stop-color="hsl(151, 70%, 62%)" />
</linearGradient>
<filter id="f1" x="-20%" y="-20%" width="140%" height="140%">
  <feGaussianBlur stdDeviation="0.8866013726482547" />
</filter>

</defs>

<rect x="6.3" y="26.9" width="34.7" height="38.7" rx="0" fill="none" fill-opacity="0.51"    />
<circle cx="81.7" cy="7.8" r="14.6" fill="url(#g1)" fill-opacity="1.00"  transform="translate(23.3 88.6) rotate(46.2) scale(1.44 1.48)" />
<circle cx="43.5" cy="23.7" r="2.3" fill="url(#g1)" fill-opacity="0.76"  transform="translate(97.6 93.8) rotate(76.0) scale(1.72 1.91)" />
<rect x="17.2" y="52.7" width="46.0" height="37.1" rx="4.6" fill="hsl(151, 70%, 62%)" fill-opacity="0.78"   transform="translate(72.9 61.9) rotate(274.3) scale(1.16 0.72)" />
<path d="M 87.6 61.7 C 96.2 60.7, 87.4 14.0, 81.7 5.7 C 100.0 22.3, 92.0 49.0, 98.0 51.0 C 100.0 66.8, 47.1 88.8, 42.6 94.3 C 53.0 100.0, 42.5 76.9, 34.3 81.7 C 39.2 73.8, 46.1 33.4, 35.3 21.5 C 19.4 23.9, 84.3 27.8, 92.6 18.2 C 91.2 8.6, 31.8 0.0, 34.6 0.7 C 51.1 0.0, 0.0 32.6, 8.2 29.2 Z" fill="hsl(290, 83%, 63%)" fill-opacity="0.90" stroke="none" stroke-width="3.89"  transform="translate(23.5 19.8) rotate(142.9) scale(0.78 1.12)" />
<path d="M 10.8 73.7 C 11.0 77.2, 81.2 81.4, 73.8 86.6 C 77.3 81.3, 33.0 46.0, 42.0 39.2 C 47.6 24.6, 21.6 81.4, 33.2 68.8 C 41.8 77.0, 36.4 0.0, 38.6 2.2 C 46.9 10.0, 20.0 37.4, 14.4 38.5 C 30.1 27.5, 67.6 47.9, 77.7 52.2 C 62.4 59.3, 98.9 96.3, 98.2 85.2 Z" fill="hsl(2, 82%, 55%)" fill-opacity="0.70" stroke="none" stroke-width="1.42"  transform="translate(74.1 3.2) rotate(69.7) scale(1.42 0.94)" />
<path d="M 83.2 19.8 C 91.1 25.7, 36.1 79.0, 36.2 72.7 C 52.1 73.1, 2.0 6.3, 16.3 1.7 C 4.2 16.7, 83.7 28.8, 97.7 16.4 C 89.6 0.0, 80.5 1.8, 72.7 10.0 C 58.7 0.0, 36.1 84.2, 49.6 81.4 C 35.3 68.1, 87.6 75.0, 97.3 65.0 C 100.0 73.7, 47.5 26.7, 47.4 36.3 Z" fill="hsl(242, 72%, 49%)" fill-opacity="0.58" stroke="none" stroke-width="4.38"  transform="translate(86.9 38.8) rotate(339.3) scale(0.93 0.50)" />
<path d="M 77.4 41.0 C 63.5 37.1, 83.1 87.9, 73.7 98.1 C 93.3 85.4, 18.3 42.2, 19.7 47.7 C 8.9 64.8, 42.5 60.8, 28.6 66.3 C 25.7 57.8, 55.1 10.1, 56.6 11.7 C 47.3 27.6, 0.0 36.3, 1.7 38.7 C 20.9 51.3, 78.0 24.8, 78.7 19.8 C 79.9 22.7, 79.0 38.9, 88.5 39.4 C 77.2 43.2, 42.6 9.1, 35.0 8.4 C 44.4 24.0, 0.0 78.4, 1.1 75.5 C 0.0 78.2, 60.7 76.2, 65.6 86.1 Z" fill="hsl(40, 53%, 69%)" fill-opacity="0.35" stroke="none" stroke-width="1.72"  transform="translate(73.6 85.9) rotate(183.3) scale(1.41 1.28)" />
<circle cx="62.3" cy="4.0" r="1.0" fill="hsl(144, 86%, 72%)" fill-opacity="0.97" filter="url(#f1)"  />
<path d="M 85.5 87.4 C 79.0 90.0, 52.0 52.0, 53.4 54.4 C 38.8 47.3, 49.6 95.8, 63.0 96.4 C 55.3 100.0, 92.0 34.3, 83.5 41.4 C 80.7 25.4, 66.1 29.5, 77.3 28.0 C 90.9 31.7, 10.5 25.3, 8.4 15.7 C 25.8 31.9, 59.2 20.8, 68.3 28.6 C 66.3 37.0, 83.9 81.8, 89.1 79.2 C 85.2 88.7, 91.3 68.1, 90.5 59.1 C 99.7 64.2, 79.4 55.0, 73.3 64.3 Z" fill="hsl(40, 53%, 69%)" fill-opacity="0.81" stroke="none" stroke-width="4.74" filter="url(#f1)" transform="translate(34.9 68.2) rotate(3.8) scale(1.63 1.23)" />
<path d="M 91.0 74.3 C 95.9 76.0, 10.5 10.7, 3.0 21.0 C 1.4 20.7, 53.6 10.7, 53.5 5.3 C 49.5 16.9, 58.3 53.3, 66.4 67.1 C 47.5 48.8, 11.8 24.3, 4.9 23.9 C 0.0 25.1, 86.9 51.1, 99.2 36.4 C 100.0 19.9, 58.1 74.7, 44.9 86.0 C 42.1 96.1, 90.2 61.4, 85.5 49.6 C 69.6 63.7, 98.6 45.3, 100.0 55.6 C 100.0 54.7, 86.1 1.9, 79.1 1.9 C 98.5 0.0, 26.8 98.6, 14.3 97.1 Z" fill="none" fill-opacity="0.43" stroke="hsl(144, 86%, 72%)" stroke-width="1.45"  transform="translate(52.8 27.1) rotate(63.9) scale(1.31 0.95)" />
<path d="M 60.0 19.9 C 42.6 24.9, 59.0 44.0, 60.7 44.9 C 42.5 26.5, 18.9 47.3, 17.7 55.4 C 16.0 50.0, 78.0 17.1, 80.1 29.5 C 95.0 17.5, 18.3 21.7, 24.6 9.1 C 36.5 7.6, 100.0 77.8, 100.0 66.1 C 100.0 52.1, 96.8 29.3, 82.9 34.9 Z" fill="none" fill-opacity="0.80" stroke="hsl(106, 75%, 59%)" stroke-width="1.95"  transform="translate(7.7 27.0) rotate(97.4) scale(1.02 1.34)" />
<path d="M 58.5 67.0 C 51.7 61.0, 27.3 80.2, 14.8 93.4 C 4.6 100.0, 20.3 72.1, 11.2 76.0 C 0.0 68.9, 8.6 78.1, 16.8 67.0 C 9.0 66.2, 22.6 74.3, 15.5 70.2 C 20.8 52.5, 0.0 24.4, 0.8 10.9 C 0.0 2.1, 22.4 60.5, 33.0 48.8 C 26.3 41.9, 72.5 85.5, 62.9 80.1 C 52.9 61.8, 88.7 100.0, 84.1 92.5 Z" fill="hsl(322, 74%, 44%)" fill-opacity="0.78" stroke="none" stroke-width="3.78"  transform="translate(35.7 6.4) rotate(111.4) scale(1.80 1.09)" />
<path d="M 72.8 14.4 C 88.2 0.0, 90.0 0.0, 79.2 11.0 C 87.3 24.5, 51.6 50.9, 66.4 47.3 C 79.8 31.9, 42.8 32.7, 39.5 32.5 C 46.7 48.8, 8.9 47.5, 16.3 49.1 C 10.8 57.6, 93.3 30.8, 86.3 19.5 C 99.6 31.1, 5.2 27.3, 9.3 21.6 C 14.6 23.2, 97.6 28.1, 95.9 41.3 C 100.0 51.9, 20.9 86.9, 12.3 73.2 C 0.0 65.1, 48.5 68.4, 57.9 57.1 C 68.4 56.9, 38.2 21.8, 37.6 10.6 Z" fill="none" fill-opacity="0.70" stroke="hsl(2, 82%, 55%)" stroke-width="2.80"  transform="translate(83.5 74.1) rotate(190.6) scale(1.27 0.95)" />
<path d="M 3.0 12.9 C 10.0 0.0, 25.0 25.2, 35.6 13.8 C 22.6 10.5, 12.8 2.8, 21.2 16.1 C 15.2 7.5, 19.3 64.3, 22.5 71.4 C 34.1 63.7, 40.4 13.5, 44.3 9.3 C 34.5 4.1, 7.7 93.1, 3.1 79.1 C 12.0 81.8, 0.2 53.5, 10.7 44.8 C 0.0 51.1, 58.6 83.0, 49.8 96.6 C 29.9 91.0, 93.1 5.1, 91.4 19.3 Z" fill="hsl(40, 53%, 69%)" fill-opacity="0.56" stroke="none" stroke-width="5.29"  transform="translate(64.0 51.7) rotate(121.4) scale(1.56 1.76)" />
<path d="M 30.5 92.5 C 17.8 74.7, 23.6 59.2, 31.3 68.1 C 37.2 67.4, 35.5 61.9, 23.2 59.5 C 35.4 79.2, 35.4 51.0, 23.4 40.4 C 19.8 54.2, 53.1 56.0, 59.8 41.8 C 63.3 54.2, 100.0 18.1, 97.9 30.2 C 78.1 12.0, 82.4 33.8, 83.8 24.7 C 87.8 19.1, 50.4 64.8, 40.0 76.1 Z" fill="hsl(290, 83%, 63%)" fill-opacity="0.90" stroke="none" stroke-width="0.82"  transform="translate(97.0 20.2) rotate(278.8) scale(0.92 0.86)" />
<path d="M 50.1 17.4 C 45.0 26.0, 83.3 52.9, 88.5 52.7 C 96.5 41.3, 91.4 0.0, 98.6 3.8 C 100.0 22.6, 41.3 23.7, 31.3 38.2 C 33.5 36.4, 30.3 44.9, 28.5 48.4 C 20.4 61.2, 70.1 54.2, 59.2 66.4 C 56.5 83.7, 16.2 0.0, 4.2 4.2 C 13.4 0.4, 0.0 26.2, 10.1 31.8 C 5.6 40.5, 60.8 89.3, 53.1 80.4 C 36.5 80.3, 58.5 20.1, 45.7 34.1 Z" fill="hsl(290, 83%, 63%)" fill-opacity="0.35" stroke="none" stroke-width="5.23" filter="url(#f1)" transform="translate(63.9 66.1) rotate(80.3) scale(0.72 0.90)" />
<rect x="0.9" y="58.6" width="22.5" height="24.7" rx="10.5" fill="hsl(104, 72%, 65%)" fill-opacity="0.69" stroke="hsl(151, 70%, 62%)" stroke-width="1.4"  transform="translate(90.9 89.5) rotate(125.6) scale(0.97 1.90)" />
<circle cx="90.4" cy="87.7" r="9.3" fill="url(#g2)" fill-opacity="0.62"  transform="translate(26.2 50.3) rotate(256.2) scale(1.93 1.93)" />
<path d="M 0.9 40.2 C 16.6 20.2, 0.0 44.0, 5.7 52.6 C 5.1 36.4, 75.1 33.3, 87.6 28.1 C 81.1 48.0, 16.6 30.0, 16.4 36.8 C 0.0 19.4, 0.0 87.9, 4.4 87.1 C 0.0 100.0, 94.3 49.3, 92.9 64.0 C 100.0 72.8, 22.4 42.0, 12.0 51.1 C 0.0 52.5, 25.8 86.1, 33.5 85.5 C 13.8 68.5, 90.9 75.4, 86.5 70.8 Z" fill="hsl(322, 74%, 44%)" fill-opacity="0.63" stroke="none" stroke-width="2.96"   />
<path d="M 25.4 9.5 C 9.2 0.0, 75.6 47.1, 80.4 35.0 C 70.2 32.8, 30.8 86.3, 44.8 77.7 C 62.6 85.6, 87.9 0.0, 98.8 1.9 C 100.0 19.6, 71.3 0.0, 81.6 4.3 C 92.1 0.0, 36.7 53.3, 28.8 51.1 C 41.9 39.8, 84.6 60.2, 94.1 62.4 C 97.6 68.8, 5.7 22.7, 10.3 11.0 C 10.2 0.0, 26.3 39.9, 14.9 47.4 C 18.1 55.6, 63.1 97.4, 70.7 92.3 C 68.1 87.7, 62.3 63.9, 48.6 55.5 Z" fill="hsl(290, 83%, 63%)" fill-opacity="0.64" stroke="none" stroke-width="2.90" filter="url(#f1)" transform="translate(21.8 53.7) rotate(90.6) scale(1.90 1.32)" />
<rect x="58.4" y="48.8" width="32.4" height="12.2" rx="4.2" fill="hsl(290, 83%, 63%)" fill-opacity="0.60"   transform="translate(42.4 95.0) rotate(157.0) scale(1.19 0.59)" />
<circle cx="80.7" cy="93.3" r="1.3" fill="hsl(2, 82%, 55%)" fill-opacity="0.96"  transform="translate(66.8 13.0) rotate(152.2) scale(1.31 1.73)" />
<path d="M 24.2 92.7 C 28.8 78.3, 95.2 83.2, 89.4 85.0 C 78.9 73.9, 80.1 77.3, 87.2 68.4 C 99.7 69.6, 16.4 0.0, 23.0 4.8 C 5.5 6.4, 69.7 16.9, 69.1 12.9 C 82.4 29.5, 69.7 42.7, 63.9 53.0 C 47.7 70.4, 73.6 71.6, 84.4 65.2 C 69.3 79.9, 86.8 86.0, 86.2 75.3 Z" fill="none" fill-opacity="0.88" stroke="hsl(183, 71%, 60%)" stroke-width="1.39"  transform="translate(34.2 4.2) rotate(87.7) scale(1.12 0.75)" />
<path d="M 62.9 14.9 C 76.6 26.5, 51.3 25.1, 59.0 31.5 C 49.7 16.9, 62.9 32.8, 65.8 29.3 C 60.7 10.4, 22.1 59.5, 8.2 68.2 C 13.6 77.0, 60.1 44.5, 63.5 40.3 C 49.9 36.6, 54.7 24.1, 65.8 36.7 C 71.0 34.0, 86.0 71.5, 74.1 73.6 Z" fill="none" fill-opacity="0.52" stroke="hsl(106, 75%, 59%)" stroke-width="3.16"  transform="translate(65.4 93.1) rotate(341.5) scale(1.54 0.51)" />
<circle cx="18.2" cy="8.1" r="4.7" fill="hsl(242, 72%, 49%)" fill-opacity="0.63"  transform="translate(93.2 54.2) rotate(140.0) scale(1.63 1.43)" />
<path d="M 74.3 57.5 C 81.1 75.6, 83.7 57.2, 78.7 57.8 C 72.4 70.1, 64.2 100.0, 51.1 99.2 C 67.6 90.5, 67.3 100.0, 78.9 94.8 C 98.1 100.0, 18.9 44.8, 27.3 38.8 C 22.3 41.4, 100.0 11.0, 99.9 20.5 C 100.0 10.6, 27.0 28.8, 15.6 34.2 Z" fill="hsl(83, 65%, 44%)" fill-opacity="0.53" stroke="none" stroke-width="3.11"  transform="translate(57.2 5.6) rotate(270.1) scale(0.56 1.21)" />
<path d="M 97.5 87.4 C 100.0 76.7, 47.2 0.0, 41.7 1.2 C 57.5 7.5, 36.9 81.0, 26.9 72.0 C 22.1 72.9, 96.6 13.0, 97.1 18.6 C 86.0 12.5, 20.1 33.6, 17.2 48.2 C 37.1 45.6, 27.5 0.0, 12.8 4.5 C 0.0 0.0, 60.7 49.0, 75.2 63.9 Z" fill="hsl(86, 72%, 68%)" fill-opacity="0.64" stroke="none" stroke-width="4.89"  transform="translate(57.5 61.6) rotate(56.1) scale(1.86 0.67)" />
<path d="M 25.5 70.0 C 34.5 63.2, 48.0 13.7, 61.3 28.2 C 69.5 45.2, 9.3 8.6, 0.5 7.1 C 12.1 5.1, 71.7 72.8, 79.7 62.0 C 72.7 76.6, 90.9 65.4, 92.9 65.6 C 97.8 76.7, 66.8 1.7, 67.5 11.9 C 69.1 19.3, 48.1 30.5, 37.7 39.3 C 38.9 44.8, 66.7 42.3, 79.2 36.4 Z" fill="none" fill-opacity="0.38" stroke="hsl(40, 53%, 69%)" stroke-width="3.81"   />
<rect x="41.7" y="69.8" width="37.5" height="14.7" rx="0" fill="hsl(242, 72%, 49%)" fill-opacity="0.35"   transform="translate(34.2 44.4) rotate(112.2) scale(0.60 0.98)" />
<path d="M 72.1 16.8 C 66.2 5.8, 5.5 62.5, 7.9 53.4 C 7.4 56.6, 38.8 14.6, 25.8 5.7 C 6.1 0.0, 100.0 69.8, 95.2 62.4 C 100.0 58.7, 53.1 64.7, 59.6 56.4 C 51.8 67.0, 58.7 67.5, 54.2 52.8 C 42.1 36.0, 9.1 6.8, 2.8 8.4 C 0.0 28.0, 35.1 22.1, 29.9 22.9 C 47.7 16.7, 47.6 100.0, 53.7 99.2 C 71.8 100.0, 42.0 57.0, 47.8 57.6 C 53.2 59.3, 79.4 86.0, 91.5 86.1 Z" fill="hsl(83, 65%, 44%)" fill-opacity="0.57" stroke="none" stroke-width="3.73" filter="url(#f1)" transform="translate(60.4 33.6) rotate(320.0) scale(1.74 0.53)" />
<circle cx="50.7" cy="60.5" r="8.2" fill="url(#g2)" fill-opacity="0.81"  transform="translate(21.1 52.2) rotate(319.4) scale(1.80 1.10)" />
<rect x="20.3" y="57.2" width="39.0" height="31.9" rx="16.1" fill="hsl(144, 86%, 72%)" fill-opacity="0.72" stroke="hsl(40, 53%, 69%)" stroke-width="3.7"  transform="translate(25.3 11.7) rotate(215.0) scale(0.57 1.18)" />
<path d="M 24.2 11.4 C 13.4 3.2, 55.7 20.0, 46.6 23.2 C 27.2 22.7, 26.0 0.0, 37.1 1.4 C 27.7 0.0, 45.7 35.2, 56.5 22.6 C 60.6 4.0, 67.0 84.8, 78.2 80.5 C 82.3 72.0, 41.6 34.3, 34.7 45.6 C 22.8 51.6, 87.5 33.3, 91.6 40.8 C 100.0 23.1, 33.5 72.2, 46.5 77.2 C 53.1 78.5, 10.2 97.5, 0.7 84.9 C 0.0 71.6, 88.7 60.4, 98.7 51.6 C 85.5 62.8, 10.4 83.5, 10.7 75.4 Z" fill="hsl(322, 74%, 44%)" fill-opacity="0.30" stroke="none" stroke-width="2.51"  transform="translate(37.3 23.9) rotate(50.6) scale(1.31 1.74)" />
<path d="M 14.2 1.8 C 33.6 19.4, 23.8 95.9, 13.6 88.2 C 8.2 74.7, 37.8 0.0, 27.0 0.7 C 43.0 8.7, 0.0 0.0, 1.1 10.5 C 0.0 2.5, 20.0 9.1, 9.6 16.5 C 0.0 12.2, 12.7 84.0, 10.3 80.0 C 0.0 82.1, 67.6 60.3, 69.4 60.2 C 81.1 68.5, 46.8 79.6, 44.8 77.0 C 34.4 85.3, 46.7 36.2, 34.7 43.4 C 48.3 27.5, 1.2 0.0, 3.3 3.6 Z" fill="hsl(183, 71%, 60%)" fill-opacity="0.64" stroke="none" stroke-width="3.36"  transform="translate(68.7 9.2) rotate(253.6) scale(1.88 1.44)" />
<circle cx="36.8" cy="59.1" r="4.4" fill="hsl(183, 71%, 60%)" fill-opacity="0.80"  transform="translate(79.1 29.7) rotate(105.8) scale(1.93 1.11)" />
<circle cx="5.5" cy="88.1" r="3.1" fill="url(#g1)" fill-opacity="0.81"  transform="translate(94.9 63.8) rotate(82.7) scale(1.83 0.80)" />
<path d="M 76.8 8.2 C 72.7 0.0, 42.8 51.5, 32.7 50.5 C 33.4 43.3, 74.9 60.0, 72.3 46.9 C 89.6 42.8, 0.0 50.3, 8.8 63.9 C 0.0 44.8, 21.1 48.0, 7.6 36.6 C 4.4 27.7, 39.9 41.1, 49.9 51.7 C 32.0 36.7, 39.6 63.6, 33.7 56.4 C 18.1 65.1, 5.3 65.9, 15.2 60.9 C 7.7 44.7, 96.1 35.4, 82.6 50.3 C 94.6 66.4, 0.0 68.8, 3.4 81.9 C 10.6 72.6, 29.9 44.2, 39.9 46.2 Z" fill="none" fill-opacity="0.94" stroke="hsl(242, 72%, 49%)" stroke-width="4.23"  transform="translate(84.2 25.2) rotate(49.3) scale(0.95 1.54)" />
<path d="M 95.0 46.7 C 81.8 64.6, 84.1 21.5, 80.8 7.6 C 82.1 22.0, 7.4 0.0, 14.4 8.0 C 34.0 0.2, 10.1 91.6, 24.3 86.9 C 40.7 84.5, 6.6 63.0, 20.0 77.8 C 19.0 61.9, 0.0 2.9, 5.1 0.9 C 0.0 0.0, 4.2 56.3, 5.1 47.1 C 23.3 59.4, 88.9 43.2, 80.5 43.7 Z" fill="none" fill-opacity="0.49" stroke="hsl(242, 72%, 49%)" stroke-width="0.94" filter="url(#f1)" transform="translate(47.9 84.6) rotate(10.8) scale(0.83 1.13)" />
<circle cx="1.0" cy="28.4" r="15.1" fill="url(#g2)" fill-opacity="0.47"  transform="translate(85.9 69.3) rotate(279.2) scale(0.55 1.96)" />
<path d="M 9.6 55.5 C 23.1 43.8, 40.5 31.1, 26.7 39.8 C 19.3 20.9, 39.5 27.6, 33.7 18.9 C 36.4 25.4, 31.0 81.8, 36.1 71.4 C 40.3 85.0, 88.6 58.7, 89.2 52.0 C 76.3 40.9, 100.0 42.5, 96.0 41.6 C 100.0 25.2, 63.5 100.0, 58.5 98.0 C 64.9 100.0, 87.6 43.8, 85.6 48.9 C 86.2 41.7, 7.4 51.5, 13.2 45.7 C 5.3 55.8, 53.3 47.9, 63.6 60.4 C 63.5 79.2, 100.0 40.3, 95.5 47.2 Z" fill="hsl(151, 70%, 62%)" fill-opacity="0.31" stroke="none" stroke-width="2.50"  transform="translate(25.1 51.1) rotate(8.3) scale(1.38 1.93)" />
<circle cx="13.6" cy="66.6" r="6.6" fill="hsl(104, 72%, 65%)" fill-opacity="0.64"   />
<circle cx="74.0" cy="97.6" r="10.6" fill="url(#g0)" fill-opacity="0.95" filter="url(#f1)"  />
<rect x="33.5" y="22.3" width="47.0" height="32.4" rx="0" fill="none" fill-opacity="0.61"   transform="translate(68.2 81.4) rotate(159.4) scale(1.50 0.96)" />
<path d="M 12.0 34.5 C 0.0 27.1, 89.7 77.0, 88.4 84.4 C 74.2 79.5, 61.6 55.3, 53.8 66.9 C 69.6 86.6, 64.6 87.4, 73.2 76.2 C 82.8 86.1, 41.3 6.0, 40.8 15.1 C 57.9 14.0, 86.5 6.5, 77.1 12.2 C 85.4 14.7, 63.8 69.4, 57.0 68.0 Z" fill="none" fill-opacity="0.80" stroke="hsl(183, 71%, 60%)" stroke-width="5.28"  transform="translate(86.4 82.1) rotate(186.0) scale(1.31 1.44)" />
<rect x="69.8" y="54.0" width="22.5" height="31.0" rx="0" fill="none" fill-opacity="0.94"   transform="translate(9.6 64.0) rotate(301.2) scale(1.98 1.99)" />
<path d="M 53.6 87.6 C 42.2 68.6, 70.1 43.8, 65.2 34.4 C 83.8 15.8, 18.8 32.9, 8.4 37.1 C 23.4 42.0, 8.4 85.1, 13.7 92.6 C 15.6 94.9, 0.0 87.9, 8.5 95.8 C 0.0 100.0, 46.5 90.6, 47.7 99.6 C 27.9 100.0, 18.0 54.2, 23.6 69.2 C 33.2 67.8, 69.7 35.6, 80.2 47.9 C 67.9 66.9, 63.9 89.6, 50.3 78.5 C 39.9 61.0, 82.8 66.3, 88.0 55.5 C 92.8 71.6, 7.0 47.5, 4.4 44.2 Z" fill="none" fill-opacity="0.31" stroke="hsl(40, 53%, 69%)" stroke-width="4.03"  transform="translate(87.0 19.4) rotate(162.5) scale(1.03 1.38)" />
<path d="M 81.4 37.5 C 100.0 47.1, 21.7 89.7, 12.3 90.9 C 15.7 71.2, 43.2 38.1, 28.4 47.0 C 39.2 37.6, 76.4 100.0, 69.0 95.7 C 62.5 100.0, 85.8 51.3, 79.4 56.8 C 89.6 64.5, 45.2 3.3, 56.7 18.0 C 47.5 17.8, 22.3 14.7, 17.4 1.8 C 24.0 17.2, 94.1 18.7, 97.8 26.5 Z" fill="none" fill-opacity="0.84" stroke="hsl(40, 53%, 69%)" stroke-width="0.97"   />
<path d="M 88.5 52.7 C 91.9 37.6, 56.5 7.8, 60.4 21.2 C 67.5 24.4, 40.0 16.1, 34.7 13.5 C 32.2 24.3, 100.0 48.7, 87.2 42.1 C 77.4 24.5, 7.3 69.9, 13.6 55.6 C 18.0 48.2, 98.7 86.1, 85.2 84.0 C 79.5 94.0, 56.9 57.3, 43.5 58.6 C 55.8 64.0, 22.8 90.0, 16.7 94.8 C 34.6 100.0, 55.9 33.0, 43.6 43.9 Z" fill="none" fill-opacity="0.39" stroke="hsl(290, 83%, 63%)" stroke-width="0.81"  transform="translate(17.9 75.0) rotate(280.6) scale(1.23 0.71)" />
<rect x="11.0" y="43.7" width="35.0" height="32.3" rx="0" fill="hsl(290, 83%, 63%)" fill-opacity="0.42" stroke="hsl(290, 83%, 63%)" stroke-width="4.1"  transform="translate(13.0 9.3) rotate(330.7) scale(0.61 1.18)" />
<rect x="8.8" y="59.6" width="26.7" height="27.2" rx="0" fill="hsl(40, 53%, 69%)" fill-opacity="0.94"  filter="url(#f1)" transform="translate(27.0 59.4) rotate(22.7) scale(1.04 0.98)" />
<circle cx="5.8" cy="47.2" r="15.3" fill="hsl(290, 83%, 63%)" fill-opacity="0.83" filter="url(#f1)"  />
<path d="M 41.9 93.6 C 32.2 90.9, 63.2 35.1, 74.5 23.9 C 86.1 35.1, 66.4 27.1, 68.1 25.4 C 87.6 39.7, 80.0 71.4, 81.7 76.2 C 82.2 58.6, 69.8 75.5, 63.0 68.8 C 81.0 88.6, 67.9 43.8, 74.6 46.6 C 61.1 30.5, 41.9 59.6, 34.0 73.5 C 49.9 57.0, 49.4 53.5, 36.9 52.3 Z" fill="none" fill-opacity="0.64" stroke="hsl(322, 74%, 44%)" stroke-width="2.12"  transform="translate(69.4 56.3) rotate(10.4) scale(1.26 1.77)" />
<path d="M 80.6 3.9 C 71.2 14.2, 49.5 55.4, 41.2 43.4 C 29.8 63.4, 69.8 83.7, 81.2 85.7 C 79.0 90.3, 12.6 66.4, 15.1 62.2 C 20.6 48.8, 0.0 92.0, 4.8 88.2 C 1.5 91.7, 35.6 20.5, 30.2 16.1 C 35.1 8.4, 85.1 82.2, 70.4 72.4 C 57.5 84.2, 31.1 62.2, 32.6 64.9 C 29.4 48.3, 37.4 81.3, 31.8 95.0 Z" fill="hsl(86, 72%, 68%)" fill-opacity="0.99" stroke="none" stroke-width="4.78"  transform="translate(74.6 70.9) rotate(200.7) scale(1.92 1.86)" />
<circle cx="71.8" cy="18.5" r="4.6" fill="url(#g0)" fill-opacity="0.68"  transform="translate(50.7 30.3) rotate(169.1) scale(1.60 1.18)" />
<circle cx="61.5" cy="14.3" r="3.5" fill="url(#g2)" fill-opacity="0.79"  transform="translate(5.1 33.6) rotate(323.4) scale(0.57 1.27)" />
<circle cx="61.0" cy="99.3" r="1.3" fill="url(#g1)" fill-opacity="0.93"  transform="translate(23.2 50.4) rotate(223.5) scale(1.25 1.10)" />
<circle cx="36.1" cy="91.4" r="1.3" fill="hsl(40, 53%, 69%)" fill-opacity="0.83"  transform="translate(95.5 63.1) rotate(287.1) scale(1.50 0.77)" />
<path d="M 48.3 29.7 C 42.9 22.0, 46.6 6.4, 49.2 7.2 C 64.9 11.1, 70.3 73.2, 68.5 59.5 C 78.0 48.7, 44.1 68.9, 58.8 54.5 C 71.7 54.1, 51.2 0.0, 42.0 5.4 C 40.3 0.0, 70.9 72.4, 61.3 86.9 C 55.4 70.4, 45.6 81.0, 54.3 71.9 C 52.4 61.1, 53.4 83.1, 68.4 72.5 C 75.8 86.3, 16.6 84.9, 4.0 88.8 Z" fill="hsl(242, 72%, 49%)" fill-opacity="0.66" stroke="none" stroke-width="1.54"  transform="translate(43.0 7.1) rotate(95.0) scale(1.24 1.76)" />
<circle cx="68.0" cy="2.3" r="0.3" fill="url(#g2)" fill-opacity="0.62" filter="url(#f1)" transform="translate(51.7 75.0) rotate(149.9) scale(0.78 1.21)" />
<circle cx="1.9" cy="54.3" r="4.9" fill="url(#g1)" fill-opacity="0.95" filter="url(#f1)" transform="translate(59.6 53.6) rotate(339.1) scale(1.67 0.81)" />
<path d="M 17.9 23.5 C 1.0 18.0, 24.6 76.9, 30.8 65.9 C 36.8 51.5, 100.0 89.9, 87.5 94.7 C 100.0 100.0, 99.1 100.0, 89.2 98.9 C 75.5 93.6, 21.6 1.6, 18.3 13.0 C 6.2 3.3, 71.0 54.5, 56.6 49.0 C 47.8 45.9, 8.9 80.1, 18.5 77.1 C 0.0 75.3, 73.2 56.3, 66.2 70.3 Z" fill="none" fill-opacity="0.80" stroke="hsl(242, 72%, 49%)" stroke-width="4.68"  transform="translate(22.1 20.8) rotate(163.1) scale(1.17 0.58)" />
<circle cx="19.5" cy="35.9" r="3.4" fill="url(#g0)" fill-opacity="0.46"  transform="translate(39.0 31.8) rotate(246.5) scale(1.68 1.23)" />
<path d="M 76.0 83.0 C 78.5 99.7, 21.9 33.1, 34.3 21.4 C 46.5 32.0, 53.9 66.9, 58.7 64.3 C 64.4 60.2, 59.6 22.1, 63.2 15.9 C 82.4 20.2, 57.2 65.7, 68.0 66.5 C 69.6 55.9, 71.9 100.0, 72.5 89.7 C 56.6 82.2, 74.1 55.5, 76.7 62.4 C 76.4 52.9, 37.7 39.3, 35.8 39.4 C 39.2 52.7, 21.4 25.2, 24.4 25.2 Z" fill="hsl(40, 53%, 69%)" fill-opacity="0.28" stroke="none" stroke-width="4.84"  transform="translate(69.4 78.8) rotate(356.5) scale(1.29 1.66)" />
<rect x="45.8" y="46.2" width="44.4" height="36.4" rx="0" fill="none" fill-opacity="0.82" stroke="hsl(242, 72%, 49%)" stroke-width="4.9" filter="url(#f1)" transform="translate(11.9 76.3) rotate(328.2) scale(0.60 1.03)" />
<rect x="13.8" y="54.9" width="49.9" height="23.7" rx="9.8" fill="none" fill-opacity="0.24"   transform="translate(54.1 13.9) rotate(354.5) scale(1.36 1.53)" />
<path d="M 49.1 98.2 C 40.8 84.0, 22.5 87.1, 21.4 80.7 C 24.1 69.9, 53.4 89.6, 55.9 89.1 C 49.6 85.1, 70.0 88.5, 83.8 99.4 C 76.6 100.0, 79.1 82.6, 69.5 80.1 C 85.2 63.6, 38.7 45.8, 27.0 34.4 C 31.1 15.0, 68.6 50.2, 82.8 37.7 Z" fill="hsl(86, 72%, 68%)" fill-opacity="0.42" stroke="none" stroke-width="5.28"  transform="translate(5.7 50.9) rotate(328.0) scale(1.50 0.56)" />
<path d="M 80.2 75.4 C 61.2 79.2, 76.9 100.0, 91.0 96.9 C 71.9 100.0, 66.2 45.1, 75.7 33.0 C 71.4 50.7, 1.4 22.9, 11.9 35.4 C 0.0 45.6, 16.7 92.9, 23.4 82.2 C 41.5 79.5, 38.1 55.6, 43.5 69.0 C 25.5 72.4, 21.4 42.4, 23.0 51.6 C 21.0 33.7, 52.1 40.8, 49.7 32.1 C 43.0 23.0, 47.2 22.5, 50.0 12.6 Z" fill="none" fill-opacity="0.91" stroke="hsl(86, 72%, 68%)" stroke-width="4.04"   />
<path d="M 47.5 53.2 C 60.6 47.8, 72.1 9.9, 60.0 16.5 C 76.0 18.9, 78.3 18.4, 73.0 6.5 C 82.2 13.6, 63.9 100.0, 57.3 95.7 C 73.5 87.0, 30.5 81.2, 23.9 76.8 C 21.3 91.3, 62.8 7.6, 66.0 14.1 C 80.0 26.3, 35.1 56.8, 44.2 41.9 C 36.0 51.8, 45.9 65.8, 32.7 56.7 C 44.7 74.1, 58.3 27.5, 47.8 33.4 Z" fill="none" fill-opacity="0.85" stroke="hsl(290, 83%, 63%)" stroke-width="3.59"  transform="translate(13.2 25.0) rotate(70.7) scale(1.58 1.40)" />
<path d="M 53.7 66.3 C 47.0 73.4, 16.6 77.6, 21.9 65.3 C 29.3 82.1, 88.0 0.0, 75.8 9.4 C 81.8 7.9, 46.3 42.3, 53.0 54.0 C 37.7 35.3, 78.1 69.0, 66.8 73.9 C 79.5 73.9, 38.5 66.5, 33.6 69.5 C 20.3 69.2, 42.9 81.5, 44.7 71.0 C 46.6 67.7, 66.3 16.1, 63.9 7.5 C 55.0 11.9, 35.9 39.4, 23.9 34.2 C 4.0 35.6, 26.2 30.5, 33.2 22.4 Z" fill="hsl(290, 83%, 63%)" fill-opacity="0.86" stroke="none" stroke-width="1.76"  transform="translate(88.1 60.8) rotate(114.0) scale(0.86 0.59)" />
<path d="M 79.7 69.0 C 61.5 76.3, 70.5 17.8, 67.7 25.7 C 86.5 36.1, 80.8 65.0, 87.0 55.8 C 71.2 64.7, 16.0 100.0, 23.7 91.1 C 8.4 93.3, 57.0 26.7, 56.4 34.1 C 74.7 54.0, 24.9 26.3, 30.4 12.6 C 21.9 0.0, 76.6 70.0, 71.3 71.0 Z" fill="none" fill-opacity="0.89" stroke="hsl(40, 53%, 69%)" stroke-width="1.40"   />
<path d="M 63.2 88.5 C 74.9 79.4, 96.9 80.0, 90.6 94.0 C 81.3 100.0, 56.1 0.0, 49.6 8.6 C 68.0 0.0, 84.5 78.9, 75.6 83.6 C 76.0 63.9, 61.7 16.8, 72.2 18.6 C 70.2 34.0, 45.8 74.5, 48.7 76.8 C 53.3 88.4, 47.3 53.9, 44.5 52.9 C 38.8 46.3, 62.6 17.0, 48.4 8.6 C 58.3 0.0, 30.0 23.0, 43.1 14.9 C 29.3 18.3, 26.3 44.8, 31.8 55.6 Z" fill="none" fill-opacity="0.72" stroke="hsl(183, 71%, 60%)" stroke-width="2.41"  transform="translate(93.2 99.2) rotate(325.1) scale(0.76 0.84)" />
<circle cx="43.9" cy="92.6" r="0.7" fill="url(#g1)" fill-opacity="0.69"   />
<path d="M 65.9 99.7 C 58.7 100.0, 60.1 29.6, 70.1 32.1 C 50.3 51.2, 83.9 92.7, 82.1 85.1 C 66.6 68.6, 98.7 36.8, 98.5 36.7 C 89.3 42.6, 67.2 23.7, 62.2 14.8 C 56.0 28.3, 89.6 34.5, 98.2 45.9 C 100.0 30.8, 79.0 23.3, 68.2 28.9 C 69.8 31.4, 7.4 53.1, 8.8 45.7 C 2.5 38.8, 15.4 100.0, 1.8 99.7 C 0.0 80.2, 64.6 12.3, 71.5 15.4 Z" fill="hsl(106, 75%, 59%)" fill-opacity="0.38" stroke="none" stroke-width="2.82"  transform="translate(60.8 25.2) rotate(334.8) scale(1.63 1.08)" />
<rect x="26.4" y="17.8" width="25.8" height="31.7" rx="0" fill="hsl(322, 74%, 44%)" fill-opacity="0.46"  filter="url(#f1)" transform="translate(4.6 2.1) rotate(105.7) scale(0.73 1.74)" />
<rect x="64.3" y="32.8" width="20.6" height="19.4" rx="17.0" fill="hsl(86, 72%, 68%)" fill-opacity="0.74"   transform="translate(99.2 99.6) rotate(48.5) scale(0.58 1.20)" />
<rect x="4.6" y="72.1" width="46.2" height="14.4" rx="0" fill="none" fill-opacity="0.27"   transform="translate(63.7 33.4) rotate(306.7) scale(1.19 0.72)" />
<path d="M 52.4 88.8 C 40.5 82.3, 7.5 27.7, 12.4 12.8 C 28.7 0.0, 9.7 46.2, 7.0 56.9 C 0.0 58.7, 31.3 41.2, 24.5 43.1 C 18.1 23.6, 89.2 15.7, 90.4 18.5 C 81.1 25.1, 40.9 30.8, 42.6 18.6 C 29.3 22.9, 3.6 8.1, 6.9 12.5 C 22.4 0.0, 6.3 8.9, 16.2 21.1 Z" fill="none" fill-opacity="0.89" stroke="hsl(322, 74%, 44%)" stroke-width="3.06"  transform="translate(23.8 25.1) rotate(355.1) scale(1.13 1.87)" />
<path d="M 58.0 71.2 C 74.0 77.9, 70.2 13.8, 66.6 20.8 C 74.6 20.1, 37.9 13.0, 44.2 11.4 C 48.7 28.0, 74.0 37.5, 60.7 48.7 C 61.2 60.0, 59.2 19.2, 44.8 19.4 C 27.2 0.0, 88.5 54.7, 88.5 52.5 C 100.0 39.6, 53.3 59.7, 48.7 72.2 C 29.9 65.6, 64.2 23.8, 55.4 16.0 C 60.1 4.8, 80.4 80.8, 81.3 69.6 Z" fill="none" fill-opacity="0.86" stroke="hsl(106, 75%, 59%)" stroke-width="2.75"  transform="translate(20.7 20.2) rotate(337.1) scale(1.15 1.68)" />
<path d="M 28.1 39.1 C 34.5 26.2, 26.7 22.6, 38.5 37.5 C 51.5 28.5, 6.6 32.7, 10.7 19.8 C 2.5 38.0, 100.0 18.4, 88.8 27.0 C 92.9 36.0, 89.5 78.8, 76.1 71.6 C 66.5 57.1, 72.2 76.1, 68.7 81.0 C 79.8 65.3, 41.4 61.4, 44.3 47.3 C 48.0 31.3, 85.4 22.1, 83.3 35.5 C 100.0 32.1, 73.2 0.0, 63.1 9.9 C 79.8 0.0, 78.1 55.9, 65.9 45.6 C 74.8 44.8, 36.8 84.3, 42.9 93.6 Z" fill="hsl(104, 72%, 65%)" fill-opacity="0.27" stroke="none" stroke-width="3.96" filter="url(#f1)" transform="translate(74.1 48.3) rotate(92.6) scale(1.60 0.70)" />
<rect x="32.4" y="7.8" width="22.3" height="31.0" rx="4.9" fill="none" fill-opacity="0.53"   transform="translate(22.4 81.6) rotate(91.2) scale(1.88 0.99)" />
<path d="M 33.4 21.1 C 30.7 34.0, 83.4 73.9, 72.4 79.5 C 70.6 60.1, 97.9 70.9, 97.3 58.9 C 92.9 69.1, 76.8 56.5, 68.4 54.5 C 62.8 34.7, 92.1 21.6, 82.7 18.8 C 91.1 33.4, 40.6 74.5, 54.4 85.5 C 47.8 73.9, 86.3 45.8, 74.1 52.7 C 82.8 48.8, 87.6 100.0, 99.8 97.5 Z" fill="hsl(86, 72%, 68%)" fill-opacity="0.42" stroke="none" stroke-width="2.31" filter="url(#f1)" transform="translate(8.0 58.1) rotate(135.1) scale(1.40 0.93)" />
<path d="M 81.0 42.8 C 100.0 37.2, 18.0 26.4, 4.6 34.0 C 4.3 49.6, 73.0 9.2, 71.7 10.1 C 72.8 10.5, 70.6 54.3, 77.4 63.8 C 60.7 51.5, 59.7 16.2, 54.6 2.1 C 58.6 0.0, 6.8 0.0, 14.9 3.9 C 1.5 19.8, 63.2 81.9, 54.4 70.3 C 60.4 80.7, 52.7 5.5, 58.8 4.2 C 67.0 21.0, 79.8 0.0, 83.5 10.4 C 100.0 0.0, 0.0 97.7, 8.4 92.9 Z" fill="hsl(151, 70%, 62%)" fill-opacity="0.98" stroke="none" stroke-width="2.92"  transform="translate(63.7 1.2) rotate(56.9) scale(1.81 1.89)" />
<circle cx="90.8" cy="52.0" r="3.3" fill="url(#g0)" fill-opacity="0.48"  transform="translate(70.4 50.3) rotate(243.3) scale(1.95 1.92)" />
<g opacity="0.056">
<rect x="0" y="0" width="1" height="100" fill="black" />
<rect x="22" y="0" width="1" height="100" fill="black" />
<rect x="44" y="0" width="1" height="100" fill="black" />
<rect x="66" y="0" width="1" height="100" fill="black" />
<rect x="88" y="0" width="1" height="100" fill="black" />
<rect x="0" y="0" width="100" height="1" fill="black" />
<rect x="0" y="22" width="100" height="1" fill="black" />
<rect x="0" y="44" width="100" height="1" fill="black" />
<rect x="0" y="66" width="100" height="1" fill="black" />
<rect x="0" y="88" width="100" height="1" fill="black" />
</g>

</svg>
