<?xml version="1.0" encoding="UTF-8"?>
<svg xmlns="http://www.w3.org/2000/svg" width="100" height="100" viewBox="0 0 100 100">
<defs>
<linearGradient id="g0" x1="0%" y1="0%" x2="100%" y2="100%">
<stop offset="0.0%" stop-color="hsl(106, 75%, 59%)" />
<stop offset="33.3%" stop-color="hsl(183, 71%, 60%)" />
<stop offset="66.7%" stop-color="hsl(242, 72%, 49%)" />
<stop offset="100.0%" stop-color="hsl(322, 74%, 44%)" />
</linearGradient>
<linearGradient id="g1" x1="0%" y1="0%" x2="100%" y2="100%">
<stop offset="0.0%" stop-color="hsl(290, 83%, 63%)" />
<stop offset="33.3%" stop-color="hsl(2, 82%, 55%)" />
<stop offset="66.7%" stop-color="hsl(86, 72%, 68%)" />
<stop offset="100.0%" stop-color="hsl(83, 65%, 44%)" />
</linearGradient>
<linearGradient id="g2" x1="0%" y1="0%" x2="100%" y2="100%">
<stop offset="0.0%" stop-color="hsl(40, 53%, 69%)" />
<stop offset="33.3%" stop-color="hsl(104, 72%, 65%)" />
<stop offset="66.7%" stop-color="hsl(144, 86%, 72%)" />
<stop offset="100.0%" stop-color="hsl(151, 70%, 62%)" />
</linearGradient>
<filter id="f1" x="-20%" y="-20%" width="140%" height="140%">
  <feGaussianBlur stdDeviation="2.3530878414420724" />
</filter>

</defs>

<circle cx="5.6" cy="63.3" r="1.7" fill="url(#g0)" fill-opacity="0.70"  transform="translate(26.0 6.2) rotate(255.3) scale(1.61 1.93)" />
<path d="M 59.5 54.0 C 42.9 66.2, 17.3 31.7, 22.4 19.0 C 31.3 3.1, 65.5 54.5, 58.5 60.1 C 42.5 66.5, 0.0 0.0, 0.3 1.8 C 0.0 0.0, 0.0 25.9, 5.8 28.1 C 10.7 31.3, 48.1 100.0, 51.6 92.6 C 35.9 79.8, 47.1 17.6, 54.1 11.3 Z" fill="none" fill-opacity="0.99" stroke="hsl(322, 74%, 44%)" stroke-width="5.04"  transform="translate(8.4 52.4) rotate(149.7) scale(1.92 1.93)" />
<path d="M 9.5 97.2 C 26.5 100.0, 61.1 42.7, 51.4 37.9 C 58.7 37.7, 100.0 30.6, 97.4 29.3 C 82.4 39.6, 92.9 39.1, 89.6 51.5 C 100.0 60.3, 34.4 41.3, 40.7 55.1 C 53.2 67.0, 83.7 77.9, 95.4 70.1 C 82.9 55.9, 15.6 43.1, 4.7 39.6 C 10.7 22.3, 32.7 81.4, 39.1 92.1 Z" fill="hsl(83, 65%, 44%)" fill-opacity="0.63" stroke="none" stroke-width="1.34"  transform="translate(53.3 78.1) rotate(277.3) scale(0.64 0.94)" />
<rect x="10.9" y="61.2" width="24.5" height="32.6" rx="0" fill="hsl(144, 86%, 72%)" fill-opacity="0.57"   transform="translate(49.3 40.9) rotate(25.3) scale(1.45 0.62)" />
<path d="M 66.6 79.3 C 59.8 91.7, 6.6 75.5, 13.0 82.3 C 1.5 72.8, 10.0 20.2, 1.0 28.7 C 0.0 27.2, 99.2 39.9, 86.8 46.5 C 100.0 57.8, 70.4 96.1, 59.4 98.0 C 53.8 98.5, 84.6 39.1, 92.3 42.8 C 97.7 45.9, 95.2 0.0, 92.1 5.3 C 100.0 16.4, 50.9 30.0, 63.4 21.0 C 51.9 40.4, 0.0 25.7, 6.9 28.4 C 0.0 21.4, 84.2 35.5, 79.6 36.2 Z" fill="hsl(86, 72%, 68%)" fill-opacity="0.32" stroke="none" stroke-width="3.79"  transform="translate(75.7 84.9) rotate(115.5) scale(1.62 0.84)" />
<path d="M 92.1 80.5 C 100.0 91.0, 60.9 80.3, 73.3 79.1 C 54.9 88.4, 56.5 90.5, 42.0 77.5 C 57.7 69.8, 77.9 77.2, 80.6 89.8 C 93.8 71.3, 74.1 0.0, 88.5 8.6 C 84.0 7.3, 61.3 48.9, 61.8 46.8 C 73.9 51.3, 0.0 46.2, 4.9 45.0 Z" fill="none" fill-opacity="0.26" stroke="hsl(40, 53%, 69%)" stroke-width="1.80"  transform="translate(21.4 99.0) rotate(132.2) scale(1.35 1.13)" />
<path d="M 13.8 3.1 C 16.9 2.2, 74.9 0.0, 65.3 1.1 C 59.4 0.0, 0.9 8.3, 0.9 5.3 C 15.4 12.9, 26.3 52.7, 12.1 62.0 C 18.0 54.8, 0.0 46.9, 1.9 56.8 C 0.0 47.8, 67.8 7.6, 66.1 14.8 C 82.6 17.5, 75.4 1.3, 81.6 1.9 C 79.5 3.9, 80.9 5.6, 69.1 19.2 C 82.3 9.4, 53.8 15.8, 55.4 7.7 C 72.6 21.9, 48.7 6.4, 63.4 5.0 C 82.4 0.0, 61.7 68.2, 57.6 64.4 Z" fill="hsl(290, 83%, 63%)" fill-opacity="0.40" stroke="none" stroke-width="2.77"  transform="translate(98.5 12.2) rotate(93.6) scale(1.37 1.22)" />
<path d="M 28.2 54.1 C 44.7 61.2, 21.2 7.9, 22.7 20.2 C 25.0 1.2, 12.1 80.2, 9.6 85.9 C 12.6 94.1, 24.3 70.1, 23.4 75.9 C 28.6 64.6, 24.5 64.2, 23.3 72.0 C 16.1 61.3, 8.9 60.8, 0.4 49.6 C 0.0 41.8, 14.1 34.7, 14.0 44.3 C 6.5 44.7, 67.9 29.4, 53.2 36.1 " fill="none" fill-opacity="0.34" stroke="hsl(183, 71%, 60%)" stroke-width="4.51"  transform="translate(14.4 19.1) rotate(154.4) scale(1.58 1.70)" />
<path d="M 11.3 28.5 C 8.0 39.2, 77.8 22.7, 80.4 8.8 C 89.5 20.9, 59.7 21.3, 65.3 35.2 C 78.4 48.5, 94.1 0.0, 87.2 1.8 C 81.3 0.0, 19.6 0.0, 8.7 1.6 C 3.9 0.0, 73.1 92.4, 61.1 80.3 C 50.8 92.5, 35.7 14.8, 33.5 23.2 C 48.4 17.4, 82.9 71.6, 85.1 83.2 C 67.6 84.6, 65.2 14.7, 78.2 17.6 C 97.8 20.2, 43.9 25.5, 45.5 22.2 Z" fill="none" fill-opacity="0.75" stroke="hsl(242, 72%, 49%)" stroke-width="3.34"  transform="translate(6.8 2.1) rotate(323.0) scale(1.62 1.21)" />
<path d="M 96.9 43.5 C 100.0 24.1, 35.2 0.0, 46.5 1.7 C 51.6 16.1, 8.8 54.7, 14.5 52.2 C 27.6 56.8, 46.3 43.4, 61.2 52.8 C 60.4 37.7, 8.2 30.6, 8.2 44.0 C 28.0 46.0, 28.1 72.7, 19.0 65.4 C 29.9 63.3, 17.9 100.0, 22.4 89.1 C 36.8 77.9, 91.2 55.4, 82.1 43.3 C 83.8 24.6, 36.8 39.4, 50.1 39.1 C 49.2 33.3, 71.6 58.7, 62.0 50.5 C 77.8 68.0, 77.4 51.0, 79.5 36.5 Z" fill="hsl(40, 53%, 69%)" fill-opacity="0.92" stroke="none" stroke-width="1.96"  transform="translate(99.1 81.7) rotate(126.5) scale(1.46 1.55)" />
<circle cx="31.5" cy="39.5" r="1.7" fill="url(#g1)" fill-opacity="0.66" filter="url(#f1)" transform="translate(1.1 26.1) rotate(121.4) scale(1.60 1.88)" />
<path d="M 75.3 9.5 C 67.1 11.6, 65.7 62.8, 71.8 74.5 C 88.9 63.0, 42.0 81.7, 51.4 79.2 C 46.6 78.1, 72.9 80.7, 60.3 88.1 C 44.9 93.4, 54.1 53.8, 54.8 60.7 C 60.7 66.0, 83.7 87.0, 95.9 93.4 C 100.0 93.6, 38.1 32.9, 28.0 38.2 C 22.3 21.7, 91.4 8.0, 88.6 9.4 Z" fill="hsl(290, 83%, 63%)" fill-opacity="0.37" stroke="none" stroke-width="1.34"   />
<rect x="20.3" y="12.9" width="46.0" height="34.7" rx="12.6" fill="hsl(83, 65%, 44%)" fill-opacity="0.96"   transform="translate(7.6 22.7) rotate(66.3) scale(0.84 1.63)" />
<circle cx="45.4" cy="49.9" r="15.9" fill="url(#g0)" fill-opacity="0.75"  transform="translate(51.5 8.2) rotate(158.3) scale(1.77 0.93)" />
<path d="M 64.7 22.8 C 69.2 41.7, 5.1 80.5, 16.8 82.8 C 20.8 66.3, 73.1 56.8, 78.7 49.7 C 88.5 44.7, 97.8 25.8, 98.5 36.0 C 90.2 48.4, 95.2 12.5, 98.2 12.9 C 89.3 19.2, 38.0 30.3, 31.8 41.6 C 50.5 35.5, 85.2 87.7, 73.9 99.7 C 87.7 100.0, 6.8 22.8, 20.3 35.7 Z" fill="none" fill-opacity="0.52" stroke="hsl(2, 82%, 55%)" stroke-width="1.38"   />
<path d="M 11.1 32.7 C 8.6 38.4, 6.4 11.6, 18.7 20.1 C 21.1 31.1, 83.1 91.7, 72.6 92.5 C 84.6 100.0, 76.5 27.7, 75.0 24.1 C 72.0 23.7, 61.3 34.5, 64.1 41.5 C 74.9 36.2, 71.8 55.1, 70.0 50.3 C 74.0 33.5, 63.8 58.7, 74.5 68.1 C 86.8 70.4, 62.3 10.6, 71.2 20.0 C 62.3 28.4, 0.0 61.1, 2.2 55.3 C 19.7 71.7, 48.6 0.0, 52.5 0.5 Z" fill="hsl(242, 72%, 49%)" fill-opacity="0.61" stroke="none" stroke-width="4.59"  transform="translate(67.2 26.8) rotate(174.6) scale(1.64 0.53)" />
<circle cx="78.0" cy="80.1" r="11.4" fill="hsl(242, 72%, 49%)" fill-opacity="0.42"  transform="translate(32.8 98.7) rotate(313.5) scale(1.54 1.92)" />
<circle cx="23.6" cy="99.5" r="0.8" fill="hsl(144, 86%, 72%)" fill-opacity="0.68"   />
<path d="M 86.1 0.4 C 88.5 0.0, 2.8 13.8, 12.1 27.9 C 0.0 38.3, 82.2 96.1, 91.4 86.5 C 91.1 88.8, 6.9 72.7, 0.2 67.5 C 12.5 59.7, 93.3 78.9, 84.0 74.6 C 84.7 59.8, 100.0 78.8, 96.4 72.7 C 82.5 57.1, 87.1 100.0, 88.7 98.1 C 94.9 86.3, 100.0 26.0, 99.0 40.9 C 100.0 45.5, 24.2 32.0, 29.6 33.7 C 46.8 20.7, 45.8 3.2, 55.8 10.4 Z" fill="none" fill-opacity="0.98" stroke="hsl(106, 75%, 59%)" stroke-width="1.85"  transform="translate(19.9 90.9) rotate(134.3) scale(0.55 1.27)" />
<path d="M 26.9 79.5 C 38.6 60.4, 79.6 69.7, 79.6 80.8 C 77.7 75.1, 73.0 40.8, 62.0 28.0 C 45.6 19.2, 80.3 100.0, 77.0 92.6 C 84.1 93.4, 5.4 76.5, 1.3 71.5 C 6.8 59.3, 26.9 41.5, 24.2 46.1 C 7.4 61.2, 50.5 77.1, 39.3 69.1 Z" fill="hsl(322, 74%, 44%)" fill-opacity="0.28" stroke="none" stroke-width="2.60"  transform="translate(65.4 94.3) rotate(354.7) scale(1.63 1.89)" />
<circle cx="42.1" cy="16.6" r="0.8" fill="hsl(144, 86%, 72%)" fill-opacity="0.85"  transform="translate(44.9 94.5) rotate(274.8) scale(1.23 1.63)" />
<path d="M 49.3 89.9 C 45.7 74.6, 3.7 95.0, 7.9 81.0 C 16.0 75.4, 46.7 11.4, 49.2 19.4 C 54.5 10.1, 31.3 26.4, 35.8 15.9 C 20.1 11.9, 61.0 30.4, 48.7 30.9 C 31.6 26.6, 28.9 10.2, 19.8 21.9 C 0.4 22.5, 17.8 7.3, 28.4 19.4 C 39.1 15.1, 38.6 0.0, 29.8 11.3 C 25.9 12.8, 12.1 54.7, 5.9 41.3 Z" fill="none" fill-opacity="0.46" stroke="hsl(183, 71%, 60%)" stroke-width="3.07"  transform="translate(9.1 12.1) rotate(324.8) scale(1.85 1.54)" />
<path d="M 21.4 85.7 C 14.6 80.9, 86.9 14.5, 82.7 9.8 C 65.2 25.1, 20.3 80.0, 29.0 67.1 C 33.1 68.8, 41.8 0.0, 40.2 2.7 C 21.6 10.1, 26.2 98.9, 20.2 90.7 C 13.0 80.6, 0.0 62.8, 0.4 67.4 C 0.0 83.0, 52.2 30.1, 41.8 27.6 C 44.8 15.4, 58.2 94.2, 71.6 86.6 C 57.1 86.1, 72.4 61.4, 82.0 59.8 " fill="hsl(183, 71%, 60%)" fill-opacity="0.56" stroke="none" stroke-width="0.86"  transform="translate(55.9 20.0) rotate(135.2) scale(1.97 0.52)" />
<rect x="36.5" y="30.8" width="36.8" height="34.2" rx="0" fill="hsl(183, 71%, 60%)" fill-opacity="0.63"    />
<path d="M 33.9 64.5 C 36.5 63.0, 90.6 51.9, 90.8 44.6 C 72.3 59.6, 100.0 27.0, 97.1 33.3 C 90.8 38.4, 22.3 43.1, 17.4 33.3 C 9.1 14.8, 77.8 62.7, 63.7 63.2 C 46.6 53.6, 39.7 58.4, 52.2 68.3 C 62.3 57.4, 23.6 88.8, 25.4 76.6 C 30.4 68.9, 86.5 55.4, 97.8 51.5 C 100.0 45.0, 76.1 51.9, 65.1 63.6 C 83.8 55.2, 12.8 69.1, 12.8 73.9 Z" fill="none" fill-opacity="0.30" stroke="hsl(2, 82%, 55%)" stroke-width="2.82"  transform="translate(83.7 69.0) rotate(34.0) scale(1.28 1.33)" />
<path d="M 65.3 34.2 C 61.0 39.6, 68.3 80.6, 71.9 95.6 C 71.6 100.0, 34.3 85.6, 35.4 90.7 C 54.5 100.0, 50.5 80.8, 43.3 73.3 C 39.1 77.1, 57.0 68.9, 56.4 67.4 C 60.9 72.5, 37.6 44.3, 44.1 58.8 C 32.7 54.5, 60.7 22.5, 72.1 8.9 C 64.7 28.4, 55.9 83.1, 61.4 74.8 C 78.6 59.4, 74.7 26.8, 79.3 14.0 " fill="hsl(322, 74%, 44%)" fill-opacity="0.27" stroke="none" stroke-width="0.92" filter="url(#f1)" transform="translate(67.8 14.5) rotate(105.9) scale(1.93 1.92)" />
<circle cx="1.9" cy="28.7" r="0.2" fill="url(#g2)" fill-opacity="0.49"  transform="translate(48.1 5.6) rotate(191.2) scale(1.80 0.74)" />
<path d="M 1.6 57.8 C 8.9 54.1, 17.4 47.0, 11.8 47.6 C 0.0 63.2, 60.9 37.6, 69.0 30.6 C 54.5 29.7, 37.6 71.2, 33.2 62.4 C 32.6 79.8, 39.1 69.4, 52.3 66.7 C 56.7 71.9, 87.8 59.2, 74.5 72.7 C 66.3 86.5, 70.7 1.4, 62.4 12.3 C 57.6 19.2, 12.6 60.4, 22.9 67.0 C 38.0 74.7, 67.8 0.4, 68.9 2.0 C 84.8 13.8, 40.9 27.0, 43.6 14.9 Z" fill="hsl(242, 72%, 49%)" fill-opacity="0.78" stroke="none" stroke-width="3.05"  transform="translate(99.4 64.5) rotate(5.2) scale(0.52 1.43)" />
<circle cx="30.6" cy="64.8" r="10.3" fill="url(#g0)" fill-opacity="0.91"  transform="translate(51.8 87.4) rotate(250.2) scale(0.54 0.85)" />
<path d="M 22.6 29.2 C 42.4 39.9, 100.0 68.1, 91.8 58.0 C 100.0 67.0, 12.5 67.5, 11.1 65.8 C 0.0 75.4, 70.3 3.7, 62.5 13.6 C 61.1 23.2, 32.9 84.4, 26.3 93.3 C 37.4 100.0, 13.0 70.1, 12.2 57.0 C 18.4 71.7, 25.5 71.3, 29.6 75.6 C 17.2 66.7, 57.0 74.9, 56.5 63.5 Z" fill="none" fill-opacity="0.81" stroke="hsl(242, 72%, 49%)" stroke-width="3.70"  transform="translate(19.3 32.2) rotate(160.1) scale(1.66 1.94)" />
<circle cx="43.6" cy="80.2" r="4.1" fill="url(#g0)" fill-opacity="0.87"  transform="translate(52.6 67.3) rotate(105.7) scale(0.70 0.60)" />
<rect x="73.5" y="20.4" width="25.5" height="21.1" rx="18.6" fill="none" fill-opacity="0.88"   transform="translate(4.8 14.2) rotate(228.9) scale(1.58 1.90)" />
<path d="M 94.2 15.0 C 100.0 9.9, 85.6 47.7, 90.9 32.9 C 100.0 50.8, 52.9 59.4, 38.8 55.4 C 39.3 52.8, 3.0 32.5, 1.8 28.6 C 5.4 16.7, 14.6 88.7, 17.1 100.0 C 27.1 88.4, 93.4 18.7, 79.4 10.7 C 93.2 25.3, 48.1 33.6, 42.6 23.7 C 24.3 34.1, 6.8 0.0, 5.2 3.4 C 13.9 21.8, 83.9 55.9, 79.0 68.6 Z" fill="hsl(183, 71%, 60%)" fill-opacity="0.67" stroke="none" stroke-width="1.11"  transform="translate(52.7 18.3) rotate(332.2) scale(0.62 1.44)" />
<circle cx="62.6" cy="66.9" r="8.4" fill="url(#g1)" fill-opacity="0.42"  transform="translate(72.5 25.1) rotate(103.3) scale(0.56 1.23)" />
<circle cx="41.6" cy="27.8" r="4.4" fill="hsl(151, 70%, 62%)" fill-opacity="0.48"   />
<path d="M 95.1 89.1 C 100.0 97.6, 22.4 95.7, 34.2 94.5 C 24.0 100.0, 80.6 79.2, 67.6 71.4 C 69.8 82.8, 53.5 47.2, 42.4 40.5 C 47.2 28.3, 79.2 15.4, 79.5 20.9 C 60.1 26.2, 69.3 77.0, 64.6 79.0 C 56.9 61.0, 100.0 75.7, 99.4 85.2 C 100.0 77.3, 91.8 41.6, 76.9 32.1 C 59.5 31.5, 59.5 81.9, 49.6 75.0 " fill="none" fill-opacity="0.58" stroke="hsl(104, 72%, 65%)" stroke-width="2.47"  transform="translate(74.9 84.3) rotate(338.7) scale(1.65 1.72)" />
<path d="M 42.1 57.0 C 55.8 46.6, 32.4 27.2, 36.5 30.2 C 51.2 22.6, 13.9 5.7, 25.7 19.5 C 45.5 14.7, 81.3 23.3, 73.1 13.2 C 88.1 7.9, 18.4 3.9, 6.7 0.3 C 7.7 0.0, 0.0 35.5, 2.2 20.7 C 0.0 32.2, 20.7 100.0, 32.1 86.0 C 47.5 100.0, 25.7 38.7, 16.8 53.0 C 21.7 58.7, 34.6 53.7, 49.2 61.0 C 35.1 45.6, 84.8 87.2, 73.2 74.2 C 58.3 87.9, 100.0 61.5, 99.1 55.0 Z" fill="none" fill-opacity="0.77" stroke="hsl(183, 71%, 60%)" stroke-width="0.83" filter="url(#f1)" transform="translate(52.9 59.5) rotate(209.3) scale(1.06 1.25)" />
<circle cx="2.1" cy="12.1" r="1.5" fill="url(#g2)" fill-opacity="0.67"  transform="translate(64.4 82.9) rotate(119.6) scale(0.60 0.96)" />
<path d="M 27.7 61.9 C 15.5 65.6, 4.5 47.0, 1.4 34.2 C 0.0 43.7, 100.0 18.6, 99.4 24.1 C 100.0 40.8, 26.4 53.7, 18.8 45.1 C 7.4 48.2, 100.0 100.0, 90.9 97.7 C 100.0 100.0, 41.9 60.8, 30.4 65.0 C 14.5 74.2, 65.2 70.0, 67.0 56.9 C 80.7 46.0, 40.8 38.0, 35.9 23.0 C 32.8 34.0, 6.5 62.7, 1.8 61.4 C 0.0 43.8, 6.2 85.0, 14.4 97.0 C 0.0 95.5, 95.7 49.0, 97.1 53.3 Z" fill="hsl(106, 75%, 59%)" fill-opacity="0.59" stroke="none" stroke-width="0.95"  transform="translate(8.3 2.0) rotate(259.5) scale(0.84 1.49)" />
<path d="M 80.9 41.0 C 69.5 44.0, 100.0 92.4, 93.6 99.9 C 77.4 100.0, 82.7 25.9, 73.8 31.7 C 55.8 45.7, 39.2 81.3, 42.4 73.6 C 35.2 73.9, 0.0 86.1, 10.1 83.6 C 0.0 100.0, 33.6 100.0, 45.3 95.8 C 26.8 100.0, 45.0 76.8, 56.7 66.2 C 69.5 64.6, 47.3 71.4, 47.1 83.0 " fill="hsl(183, 71%, 60%)" fill-opacity="0.28" stroke="none" stroke-width="3.26" filter="url(#f1)" transform="translate(69.4 75.9) rotate(193.9) scale(1.59 1.19)" />
<path d="M 89.9 80.9 C 95.4 65.7, 82.5 76.2, 68.4 88.2 C 68.4 91.7, 45.9 90.0, 31.3 89.6 C 17.8 100.0, 42.7 33.9, 40.7 36.7 C 28.9 16.7, 37.1 54.5, 30.6 49.8 C 16.1 60.2, 49.9 20.3, 37.4 22.3 C 27.0 21.7, 0.0 43.7, 9.5 43.1 C 22.4 27.8, 55.9 76.4, 46.0 89.6 Z" fill="hsl(151, 70%, 62%)" fill-opacity="0.43" stroke="none" stroke-width="1.29"  transform="translate(90.4 15.2) rotate(209.3) scale(1.01 1.11)" />
<path d="M 3.8 92.0 C 21.9 100.0, 0.0 18.0, 1.1 8.0 C 0.0 0.6, 49.7 87.7, 41.2 90.3 C 33.8 86.2, 35.2 53.1, 24.1 51.6 C 25.9 49.3, 50.8 65.0, 60.8 70.4 C 44.5 64.3, 6.8 72.9, 5.2 65.8 C 0.0 75.9, 61.7 21.2, 67.0 8.8 Z" fill="hsl(144, 86%, 72%)" fill-opacity="0.51" stroke="none" stroke-width="1.70"   />
<path d="M 95.6 37.5 C 83.3 49.3, 74.7 98.5, 64.8 87.5 C 75.3 100.0, 6.8 57.0, 18.2 44.7 C 10.7 59.3, 44.5 86.0, 46.4 96.9 C 53.0 100.0, 64.7 23.2, 66.2 10.3 C 81.8 0.8, 100.0 0.0, 95.9 7.2 C 97.5 9.8, 70.7 14.0, 74.2 1.3 " fill="hsl(2, 82%, 55%)" fill-opacity="0.53" stroke="none" stroke-width="4.41" filter="url(#f1)"  />
<path d="M 8.9 60.5 C 0.3 52.0, 99.5 21.6, 87.3 18.7 C 84.8 0.0, 78.2 61.6, 80.9 57.9 C 75.4 56.7, 70.1 26.0, 66.1 26.6 C 55.7 34.9, 8.4 40.9, 0.6 54.7 C 0.0 38.1, 26.0 54.6, 16.6 68.6 C 18.6 60.2, 8.1 28.8, 1.7 42.4 C 0.5 46.0, 44.5 29.8, 54.1 24.6 Z" fill="none" fill-opacity="0.52" stroke="hsl(242, 72%, 49%)" stroke-width="1.42" filter="url(#f1)"  />
<path d="M 22.2 8.1 C 36.2 0.0, 0.0 71.8, 4.1 82.4 C 4.9 94.4, 69.7 49.1, 66.7 45.3 C 80.7 62.1, 0.2 92.3, 2.9 99.6 C 8.1 100.0, 71.2 19.6, 77.6 33.6 C 72.3 19.1, 50.9 13.4, 59.0 20.5 C 61.7 23.9, 64.9 65.0, 54.5 50.8 Z" fill="hsl(242, 72%, 49%)" fill-opacity="0.73" stroke="none" stroke-width="0.81"   />
<rect x="42.9" y="47.6" width="28.0" height="25.1" rx="17.0" fill="none" fill-opacity="0.74"   transform="translate(23.8 80.2) rotate(265.0) scale(0.62 0.72)" />
<path d="M 77.2 25.6 C 78.5 13.0, 81.5 40.0, 83.3 26.9 C 88.6 40.8, 62.5 98.2, 58.3 98.8 C 54.6 100.0, 4.5 84.1, 8.6 85.8 C 19.1 79.2, 100.0 65.0, 95.4 69.9 C 90.6 81.2, 49.1 32.0, 38.2 19.3 C 49.1 34.9, 22.7 83.7, 12.1 79.4 C 6.5 94.9, 25.2 31.7, 24.0 18.9 C 26.2 35.9, 96.1 100.0, 97.2 94.8 Z" fill="hsl(242, 72%, 49%)" fill-opacity="0.54" stroke="none" stroke-width="3.85"  transform="translate(39.3 84.7) rotate(298.6) scale(1.93 0.77)" />
<path d="M 88.2 8.3 C 86.2 9.3, 65.4 30.8, 78.3 26.5 C 59.9 24.7, 0.0 58.4, 1.8 53.6 C 0.0 63.0, 22.4 23.8, 16.8 30.6 C 2.1 36.7, 0.0 42.7, 3.1 28.1 C 16.7 13.7, 39.2 36.0, 53.4 43.3 C 34.1 31.6, 60.1 70.1, 70.4 67.2 Z" fill="hsl(242, 72%, 49%)" fill-opacity="0.85" stroke="none" stroke-width="4.49" filter="url(#f1)" transform="translate(89.9 86.1) rotate(282.8) scale(1.41 0.81)" />
<path d="M 1.9 91.3 C 0.0 79.7, 73.2 88.5, 70.7 96.5 C 71.4 100.0, 1.9 83.6, 7.9 74.4 C 7.8 57.7, 65.9 10.9, 67.1 10.6 C 53.2 27.5, 92.4 4.4, 84.9 5.2 C 100.0 1.8, 91.6 19.3, 94.5 24.3 C 98.6 9.4, 74.7 69.2, 67.3 64.4 Z" fill="none" fill-opacity="0.65" stroke="hsl(86, 72%, 68%)" stroke-width="1.09"  transform="translate(20.2 26.5) rotate(320.4) scale(1.97 1.31)" />
<path d="M 54.6 76.0 C 63.5 67.5, 64.6 61.4, 59.3 68.8 C 77.8 76.2, 24.2 83.2, 24.9 80.6 C 40.5 86.3, 0.0 26.2, 10.0 16.2 C 9.1 0.6, 74.1 33.1, 66.5 34.0 C 78.0 31.5, 91.9 19.9, 96.1 17.2 C 99.9 14.8, 29.6 7.2, 31.9 9.4 C 45.6 20.0, 11.9 33.5, 19.4 27.8 Z" fill="none" fill-opacity="0.84" stroke="hsl(104, 72%, 65%)" stroke-width="1.32"  transform="translate(80.2 18.3) rotate(325.1) scale(0.75 1.64)" />
<path d="M 49.1 51.6 C 61.1 43.7, 47.2 77.1, 38.3 72.8 C 30.5 60.1, 19.3 41.1, 30.6 53.3 C 41.0 72.5, 60.7 100.0, 61.7 90.0 C 65.2 100.0, 92.2 10.3, 95.1 0.2 C 100.0 0.0, 72.9 37.9, 65.4 51.3 C 58.8 70.9, 42.0 54.5, 50.6 55.9 C 42.1 71.8, 6.3 51.7, 21.2 57.2 C 2.6 69.7, 17.9 78.9, 23.8 80.9 C 40.0 77.1, 60.6 68.5, 58.8 70.6 C 42.7 71.0, 68.6 43.3, 61.2 29.7 Z" fill="hsl(151, 70%, 62%)" fill-opacity="0.56" stroke="none" stroke-width="4.53"  transform="translate(61.3 21.7) rotate(279.8) scale(1.70 1.46)" />
<circle cx="23.7" cy="66.7" r="5.7" fill="url(#g2)" fill-opacity="0.51" filter="url(#f1)" transform="translate(30.3 26.1) rotate(54.3) scale(0.61 0.98)" />
<path d="M 2.6 68.0 C 11.4 68.6, 70.3 75.8, 70.6 80.0 C 73.9 88.6, 30.8 80.3, 21.8 79.2 C 40.5 80.3, 77.1 60.2, 74.0 62.3 C 66.7 73.6, 52.8 99.3, 55.4 87.3 C 51.7 100.0, 49.7 7.1, 60.6 1.3 C 76.3 1.3, 41.5 0.0, 37.4 11.4 C 42.7 7.4, 9.6 83.9, 24.2 78.8 Z" fill="hsl(242, 72%, 49%)" fill-opacity="0.98" stroke="none" stroke-width="2.43"   />
<path d="M 73.6 48.5 C 76.4 35.3, 77.0 65.7, 74.2 70.8 C 72.2 54.9, 41.4 99.6, 37.1 92.9 C 32.7 100.0, 60.1 35.9, 58.8 24.5 C 41.7 31.7, 31.6 73.7, 37.3 79.1 C 27.5 74.8, 44.7 64.1, 34.1 61.8 C 38.9 54.4, 71.2 81.1, 82.4 79.6 Z" fill="none" fill-opacity="0.60" stroke="hsl(83, 65%, 44%)" stroke-width="2.66"  transform="translate(84.2 80.7) rotate(180.7) scale(1.38 1.82)" />
<path d="M 30.4 22.3 C 36.1 41.7, 40.6 57.6, 36.8 46.0 C 18.5 46.0, 100.0 22.4, 90.9 34.1 C 100.0 28.0, 93.6 89.0, 84.5 76.9 C 87.3 68.7, 33.7 15.4, 41.8 29.5 C 49.5 15.6, 54.8 25.5, 64.1 39.9 C 45.8 55.9, 53.4 72.8, 62.8 62.1 C 54.9 68.5, 26.1 23.2, 29.3 35.4 C 9.4 31.9, 43.4 42.1, 55.2 45.7 " fill="none" fill-opacity="0.87" stroke="hsl(106, 75%, 59%)" stroke-width="4.58"  transform="translate(81.3 5.2) rotate(202.3) scale(1.67 1.59)" />
<path d="M 98.9 12.9 C 100.0 9.5, 74.6 75.8, 70.9 83.8 C 89.8 100.0, 15.3 85.5, 12.5 76.7 C 26.7 69.7, 60.5 71.4, 66.9 63.5 C 56.2 44.1, 87.7 77.6, 96.9 72.1 C 100.0 77.6, 17.7 23.9, 18.7 15.1 C 25.0 10.7, 94.8 77.6, 88.4 69.1 Z" fill="hsl(104, 72%, 65%)" fill-opacity="0.66" stroke="none" stroke-width="5.28"  transform="translate(30.1 99.1) rotate(302.4) scale(1.58 1.94)" />
<path d="M 51.8 50.1 C 66.5 40.9, 16.9 23.4, 24.8 8.6 C 42.9 3.7, 60.4 100.0, 72.0 99.6 C 63.8 93.0, 61.4 45.8, 54.0 60.6 C 43.2 45.3, 3.0 84.9, 6.2 75.4 C 0.0 69.1, 53.1 61.6, 43.0 63.7 C 49.5 75.8, 100.0 0.0, 93.7 0.6 C 82.6 0.0, 88.4 64.7, 97.5 52.7 C 100.0 70.9, 6.7 79.0, 20.9 79.1 Z" fill="none" fill-opacity="0.87" stroke="hsl(86, 72%, 68%)" stroke-width="2.28" filter="url(#f1)" transform="translate(27.4 69.9) rotate(268.4) scale(1.28 1.20)" />
<path d="M 22.0 6.7 C 9.0 17.4, 27.7 7.6, 33.4 0.8 C 23.8 0.0, 74.9 100.0, 74.2 98.5 C 65.7 100.0, 22.8 77.3, 26.7 80.0 C 18.8 92.1, 55.5 59.1, 64.2 66.0 C 59.4 72.4, 0.0 84.9, 2.0 73.9 C 19.8 70.7, 16.6 89.2, 22.6 78.7 C 23.0 96.3, 43.6 49.6, 29.6 37.0 C 38.0 22.1, 63.2 85.4, 56.7 92.6 C 49.9 84.2, 74.2 58.7, 80.0 67.2 C 94.4 59.3, 34.6 81.0, 20.1 90.5 Z" fill="none" fill-opacity="0.39" stroke="hsl(83, 65%, 44%)" stroke-width="3.63"   />
<path d="M 77.6 59.7 C 58.1 73.4, 100.0 14.8, 98.5 12.8 C 88.4 16.5, 62.6 83.7, 71.8 92.8 C 62.4 82.1, 71.5 100.0, 74.6 94.0 C 67.1 100.0, 29.9 75.1, 21.2 88.7 C 1.9 98.6, 29.4 68.7, 18.8 76.8 C 29.9 58.7, 21.6 96.4, 13.5 86.6 C 0.0 83.9, 74.3 15.1, 74.9 7.7 Z" fill="none" fill-opacity="0.85" stroke="hsl(104, 72%, 65%)" stroke-width="3.34"  transform="translate(71.2 64.0) rotate(278.7) scale(1.28 1.84)" />
<rect x="27.6" y="21.8" width="47.6" height="38.6" rx="14.4" fill="none" fill-opacity="0.53" stroke="hsl(242, 72%, 49%)" stroke-width="4.7"  transform="translate(74.0 54.3) rotate(177.3) scale(1.10 1.92)" />
<path d="M 99.4 86.9 C 92.4 83.9, 54.6 1.8, 59.9 6.2 C 60.7 0.0, 56.4 33.0, 61.9 31.3 C 42.1 47.8, 0.0 31.5, 12.1 37.4 C 0.0 22.4, 97.0 3.5, 92.0 14.6 C 91.0 12.7, 68.5 74.1, 71.2 84.6 C 80.5 95.3, 53.7 20.9, 53.8 19.5 C 63.7 9.3, 68.9 64.2, 72.3 77.2 C 52.5 83.8, 43.6 50.5, 52.5 55.9 Z" fill="none" fill-opacity="0.62" stroke="hsl(2, 82%, 55%)" stroke-width="2.37"  transform="translate(79.9 42.4) rotate(330.9) scale(1.71 1.91)" />
<path d="M 62.4 29.0 C 50.5 12.4, 56.5 33.8, 59.3 20.9 C 44.6 31.7, 89.2 0.0, 97.0 0.8 C 83.7 0.0, 22.8 81.8, 10.1 73.3 C 6.4 70.8, 81.6 92.6, 90.8 90.0 C 76.7 98.7, 41.3 6.9, 41.6 2.8 C 26.2 3.2, 99.9 60.1, 86.4 50.4 Z" fill="none" fill-opacity="0.69" stroke="hsl(151, 70%, 62%)" stroke-width="2.55"  transform="translate(3.9 25.6) rotate(20.1) scale(0.92 1.27)" />
<path d="M 9.2 1.6 C 26.6 0.0, 27.2 49.3, 26.9 61.2 C 30.6 52.8, 33.1 53.9, 39.5 45.7 C 35.1 60.0, 17.7 28.8, 4.7 16.3 C 20.2 27.3, 41.8 71.0, 42.3 77.2 C 33.9 87.8, 14.0 56.0, 16.1 55.6 C 33.3 63.5, 47.1 78.7, 34.6 81.7 C 37.5 99.2, 40.7 49.2, 49.5 49.8 C 60.9 66.4, 16.2 67.2, 16.2 52.8 C 0.0 53.7, 2.7 70.3, 0.1 68.8 Z" fill="none" fill-opacity="0.85" stroke="hsl(86, 72%, 68%)" stroke-width="1.91"  transform="translate(25.4 59.0) rotate(180.1) scale(1.51 0.96)" />
<rect x="41.6" y="66.7" width="25.4" height="15.7" rx="0" fill="none" fill-opacity="0.51" stroke="hsl(83, 65%, 44%)" stroke-width="2.4"  transform="translate(25.7 75.9) rotate(132.2) scale(0.70 1.40)" />
<rect x="48.8" y="19.1" width="20.2" height="23.6" rx="0" fill="hsl(104, 72%, 65%)" fill-opacity="0.37"   transform="translate(29.5 33.9) rotate(331.9) scale(1.75 0.91)" />
<path d="M 45.4 53.9 C 61.9 39.8, 55.0 87.6, 42.7 98.7 C 41.0 99.0, 45.2 65.7, 52.8 70.7 C 59.2 79.6, 84.1 10.7, 72.1 20.4 C 84.4 3.4, 11.8 86.1, 13.4 97.3 C 7.4 100.0, 42.3 2.2, 50.9 11.1 C 32.6 19.3, 89.2 23.5, 76.0 25.4 C 94.0 28.1, 36.6 2.5, 38.6 9.9 " fill="hsl(86, 72%, 68%)" fill-opacity="0.67" stroke="none" stroke-width="3.56"  transform="translate(24.6 43.1) rotate(49.9) scale(1.79 0.64)" />
<rect x="2.5" y="42.9" width="26.9" height="30.9" rx="10.2" fill="none" fill-opacity="0.76" stroke="hsl(151, 70%, 62%)" stroke-width="3.5"  transform="translate(35.4 97.6) rotate(21.7) scale(0.90 1.57)" />
<path d="M 72.5 21.3 C 69.6 27.4, 0.0 56.4, 6.4 70.1 C 16.2 50.6, 25.1 16.9, 14.7 4.3 C 13.7 0.0, 10.4 19.9, 7.0 29.2 C 0.0 33.0, 33.8 58.8, 46.1 68.5 C 43.5 53.7, 25.1 56.7, 12.6 44.4 C 30.6 48.4, 30.0 100.0, 40.0 99.4 C 50.7 88.0, 86.0 29.8, 75.2 37.8 C 81.6 29.4, 10.6 44.8, 11.9 46.9 Z" fill="none" fill-opacity="0.76" stroke="hsl(290, 83%, 63%)" stroke-width="2.04"  transform="translate(31.9 82.8) rotate(102.8) scale(0.76 0.75)" />
<path d="M 31.3 74.2 C 44.3 68.0, 87.8 92.0, 89.2 77.2 C 98.4 90.8, 20.9 39.5, 9.2 36.6 C 8.8 38.7, 54.7 71.1, 46.5 83.6 C 48.2 90.2, 100.0 96.2, 91.3 89.5 C 89.5 100.0, 70.8 90.4, 71.4 85.2 C 52.8 93.1, 56.6 100.0, 64.4 94.9 Z" fill="hsl(40, 53%, 69%)" fill-opacity="0.26" stroke="none" stroke-width="3.78"   />
<path d="M 97.1 66.2 C 84.1 48.5, 82.5 17.3, 82.3 8.1 C 74.2 14.9, 83.7 28.6, 78.3 30.8 C 77.4 44.2, 85.5 83.9, 92.1 78.0 C 86.8 71.2, 0.0 22.0, 12.7 30.6 C 4.3 42.8, 16.1 0.0, 10.9 4.8 C 5.9 0.0, 49.7 19.7, 47.4 17.4 C 51.2 25.2, 9.0 70.1, 13.1 57.5 C 31.3 50.4, 25.3 36.7, 20.0 40.1 C 33.8 22.8, 16.2 2.8, 18.3 5.0 Z" fill="hsl(83, 65%, 44%)" fill-opacity="0.55" stroke="none" stroke-width="4.45"  transform="translate(92.4 39.1) rotate(339.2) scale(0.81 0.91)" />
<path d="M 50.6 54.3 C 50.2 67.3, 7.8 100.0, 2.1 95.4 C 0.0 92.9, 17.2 91.6, 29.9 87.7 C 10.0 100.0, 0.0 17.5, 9.4 24.9 C 0.0 34.9, 35.4 21.2, 22.7 32.0 C 5.0 39.7, 32.9 13.9, 42.0 25.2 C 23.5 36.3, 14.4 100.0, 0.4 99.7 Z" fill="hsl(144, 86%, 72%)" fill-opacity="0.37" stroke="none" stroke-width="0.97"  transform="translate(99.3 4.9) rotate(341.2) scale(1.03 0.72)" />
<path d="M 9.3 76.0 C 25.4 89.8, 62.9 72.1, 72.7 74.2 C 53.3 57.1, 8.0 49.7, 4.8 59.0 C 0.0 58.6, 87.4 0.0, 74.7 12.2 C 55.0 32.0, 93.7 45.4, 92.9 40.7 C 94.6 57.8, 96.8 97.6, 94.0 89.9 C 98.0 77.5, 91.0 77.1, 82.3 88.4 C 74.2 74.8, 2.5 41.4, 0.8 41.6 C 0.0 51.8, 10.9 92.5, 3.4 93.6 " fill="hsl(2, 82%, 55%)" fill-opacity="0.62" stroke="none" stroke-width="4.02"   />
<path d="M 44.1 8.9 C 47.2 0.0, 76.5 71.3, 84.4 61.3 C 77.7 46.6, 43.7 28.9, 48.5 31.8 C 60.0 22.5, 28.7 95.5, 23.9 94.3 C 4.6 83.4, 57.1 18.9, 54.6 29.9 C 44.0 10.6, 53.5 51.8, 51.7 63.4 C 70.1 55.9, 23.2 34.2, 29.6 20.5 C 31.6 25.7, 100.0 92.6, 97.4 88.8 C 100.0 100.0, 59.5 87.6, 62.5 77.8 C 45.2 92.2, 40.9 22.4, 27.6 20.4 C 30.3 31.3, 15.4 4.6, 1.4 4.3 Z" fill="hsl(151, 70%, 62%)" fill-opacity="0.34" stroke="none" stroke-width="1.99"   />
<circle cx="27.6" cy="97.8" r="7.4" fill="url(#g0)" fill-opacity="0.52"  transform="translate(38.8 12.6) rotate(312.1) scale(0.95 1.29)" />
<path d="M 29.3 0.3 C 31.5 0.0, 100.0 26.2, 97.0 19.3 C 88.0 33.2, 62.0 89.2, 48.7 84.2 C 30.1 79.1, 82.1 100.0, 96.3 90.6 C 100.0 81.4, 23.8 66.5, 11.0 52.6 C 23.6 67.7, 40.9 76.1, 46.7 65.1 C 60.2 64.9, 5.2 53.0, 7.5 49.3 C 24.6 58.3, 37.1 53.4, 40.7 52.2 C 39.1 65.0, 69.3 100.0, 74.7 99.8 C 91.0 85.1, 36.9 64.8, 41.7 52.9 " fill="hsl(86, 72%, 68%)" fill-opacity="0.78" stroke="none" stroke-width="4.72"  transform="translate(58.1 6.4) rotate(21.3) scale(1.79 1.01)" />
<circle cx="15.2" cy="39.9" r="7.4" fill="hsl(2, 82%, 55%)" fill-opacity="0.47"  transform="translate(16.7 33.1) rotate(293.9) scale(1.32 1.86)" />
<path d="M 33.8 8.3 C 34.4 0.0, 0.0 100.0, 5.9 98.9 C 8.8 100.0, 100.0 71.0, 91.5 80.5 C 100.0 82.9, 34.7 80.9, 35.1 85.9 C 49.7 70.3, 56.9 54.0, 52.5 63.0 C 62.1 46.0, 58.3 17.8, 46.4 23.9 C 46.3 38.8, 32.2 9.0, 17.9 15.4 C 15.7 28.7, 7.9 98.3, 16.5 83.8 C 16.3 76.9, 90.6 96.1, 98.9 81.8 C 94.9 65.5, 37.3 76.6, 30.2 81.0 Z" fill="none" fill-opacity="0.75" stroke="hsl(83, 65%, 44%)" stroke-width="4.25"  transform="translate(89.6 29.5) rotate(108.7) scale(0.56 1.74)" />
<rect x="13.2" y="34.3" width="21.6" height="37.0" rx="0" fill="hsl(183, 71%, 60%)" fill-opacity="0.94"   transform="translate(10.7 5.4) rotate(347.4) scale(0.75 1.15)" />
<rect x="1.3" y="87.6" width="41.4" height="11.9" rx="0" fill="hsl(322, 74%, 44%)" fill-opacity="0.61"   transform="translate(3.6 96.0) rotate(178.8) scale(1.24 1.96)" />
<path d="M 78.9 47.3 C 74.4 34.4, 84.8 62.7, 83.6 68.9 C 87.0 83.5, 54.7 0.0, 43.6 7.9 C 41.5 19.2, 58.0 50.6, 64.4 49.5 C 67.3 46.0, 60.9 44.1, 66.7 58.2 C 70.2 39.5, 98.3 41.3, 92.8 33.4 C 89.5 47.3, 5.5 16.9, 3.9 4.8 C 22.5 7.2, 21.9 66.2, 19.5 56.3 C 11.0 56.6, 87.2 0.0, 74.8 5.7 Z" fill="hsl(83, 65%, 44%)" fill-opacity="0.84" stroke="none" stroke-width="3.02"  transform="translate(29.2 71.8) rotate(289.5) scale(1.02 0.96)" />
<rect x="3.8" y="64.5" width="34.1" height="21.6" rx="0" fill="hsl(151, 70%, 62%)" fill-opacity="0.54"   transform="translate(56.5 59.8) rotate(188.9) scale(1.50 1.06)" />
<path d="M 89.6 31.8 C 79.5 45.3, 0.0 82.2, 3.6 72.2 C 9.3 74.4, 13.9 57.7, 18.9 67.3 C 7.1 66.9, 38.5 81.4, 26.1 95.8 C 25.2 100.0, 46.5 37.9, 55.9 27.5 C 41.3 23.2, 55.7 51.5, 53.8 54.3 C 36.0 70.5, 16.4 87.0, 16.5 74.4 C 18.2 75.6, 62.3 60.0, 58.7 58.6 C 50.1 61.7, 0.0 34.1, 9.0 39.3 Z" fill="hsl(242, 72%, 49%)" fill-opacity="0.46" stroke="none" stroke-width="1.36"  transform="translate(34.0 20.2) rotate(11.2) scale(0.71 1.84)" />
<path d="M 25.5 54.6 C 28.5 61.0, 30.1 41.6, 41.0 31.7 C 28.6 48.5, 49.2 0.0, 61.7 1.8 C 55.6 0.0, 100.0 84.6, 97.9 83.6 C 100.0 98.1, 71.3 100.0, 68.4 90.7 C 53.4 97.3, 99.0 14.8, 91.8 14.5 C 71.8 29.3, 79.2 26.0, 86.3 32.7 C 71.9 19.6, 73.4 29.2, 73.5 31.8 C 66.3 29.4, 44.5 71.8, 51.1 75.5 C 60.7 62.6, 65.1 0.0, 75.9 1.7 Z" fill="none" fill-opacity="0.60" stroke="hsl(83, 65%, 44%)" stroke-width="4.20"   />
<path d="M 57.3 44.9 C 76.9 28.0, 91.6 100.0, 77.0 89.4 C 87.9 84.0, 82.8 44.4, 90.4 46.4 C 71.3 60.8, 59.3 85.2, 60.0 81.7 C 47.4 73.2, 61.3 74.8, 53.4 84.6 C 42.8 65.0, 0.6 29.2, 14.8 24.3 C 17.2 13.1, 88.1 58.7, 77.5 48.3 C 74.1 41.3, 87.8 55.2, 80.9 43.3 C 68.2 53.8, 16.7 46.7, 20.8 42.8 Z" fill="hsl(86, 72%, 68%)" fill-opacity="0.44" stroke="none" stroke-width="4.79"  transform="translate(28.9 37.1) rotate(91.2) scale(1.15 1.13)" />
<rect x="60.3" y="22.7" width="25.8" height="29.4" rx="0" fill="hsl(242, 72%, 49%)" fill-opacity="0.36"   transform="translate(86.2 81.7) rotate(148.9) scale(0.56 1.66)" />
<path d="M 16.5 86.2 C 20.3 87.7, 78.8 50.6, 87.5 58.3 C 100.0 39.7, 17.6 87.3, 3.3 84.3 C 16.1 82.5, 53.4 37.8, 38.9 37.0 C 48.5 22.4, 69.1 80.1, 56.3 81.4 C 73.1 96.6, 79.6 40.4, 69.1 25.5 C 73.2 24.6, 78.2 37.2, 63.5 42.8 C 61.8 45.6, 77.6 17.2, 76.9 5.0 C 93.1 0.0, 86.9 10.5, 93.5 10.9 C 100.0 7.2, 39.1 70.2, 44.9 83.2 Z" fill="none" fill-opacity="0.93" stroke="hsl(2, 82%, 55%)" stroke-width="2.92"  transform="translate(16.8 47.1) rotate(16.8) scale(1.88 1.45)" />
<path d="M 10.8 85.0 C 0.0 91.1, 76.3 58.5, 75.6 47.5 C 56.7 33.3, 37.6 93.5, 30.6 85.1 C 12.9 100.0, 32.2 47.6, 34.1 38.5 C 47.6 31.1, 67.2 15.0, 73.7 1.4 C 84.9 0.1, 72.1 34.4, 81.6 42.0 C 90.2 39.4, 95.8 41.0, 94.1 41.3 C 87.6 27.6, 53.1 40.7, 62.5 43.0 C 57.0 60.3, 17.1 92.3, 4.5 91.6 Z" fill="hsl(242, 72%, 49%)" fill-opacity="0.65" stroke="none" stroke-width="1.52" filter="url(#f1)" transform="translate(46.0 81.6) rotate(261.3) scale(1.29 0.64)" />
<circle cx="73.6" cy="87.0" r="10.4" fill="url(#g2)" fill-opacity="0.88"  transform="translate(85.9 11.0) rotate(349.2) scale(0.55 1.22)" />
<circle cx="15.3" cy="60.5" r="2.5" fill="hsl(183, 71%, 60%)" fill-opacity="0.70"  transform="translate(22.7 8.4) rotate(259.3) scale(1.00 0.51)" />
<path d="M 10.9 57.4 C 26.5 67.4, 9.9 34.6, 15.9 48.2 C 7.0 45.0, 14.4 75.1, 8.4 79.1 C 0.0 97.7, 25.8 38.9, 17.8 35.5 C 33.1 54.6, 83.3 53.3, 69.5 64.6 C 64.4 60.5, 80.3 74.0, 75.6 76.0 C 74.0 67.1, 72.9 21.3, 73.6 32.3 C 66.8 29.5, 62.0 4.7, 72.0 1.7 Z" fill="hsl(242, 72%, 49%)" fill-opacity="0.29" stroke="none" stroke-width="4.34"   />
<path d="M 27.3 56.4 C 22.1 52.3, 60.8 93.3, 50.4 96.1 C 60.7 87.2, 87.2 98.2, 83.8 92.8 C 97.2 92.6, 0.0 0.0, 12.0 3.7 C 30.5 18.3, 24.9 48.0, 36.0 50.4 C 36.5 67.2, 85.8 100.0, 85.7 98.3 C 89.3 87.3, 75.3 29.5, 69.2 29.0 C 52.1 38.0, 31.1 44.9, 45.6 48.0 C 26.3 46.7, 34.7 12.0, 20.7 20.5 C 24.2 37.0, 68.3 58.1, 60.1 71.8 Z" fill="none" fill-opacity="0.49" stroke="hsl(86, 72%, 68%)" stroke-width="1.93"  transform="translate(29.2 2.1) rotate(223.6) scale(1.16 0.54)" />
<circle cx="56.5" cy="1.4" r="12.1" fill="hsl(290, 83%, 63%)" fill-opacity="0.68" filter="url(#f1)" transform="translate(45.6 5.6) rotate(76.3) scale(1.30 0.93)" />
<path d="M 4.4 24.7 C 0.0 15.5, 55.3 35.4, 60.7 34.1 C 70.3 29.8, 62.1 36.8, 57.8 38.1 C 53.3 19.1, 100.0 85.8, 89.7 85.8 C 82.6 70.3, 58.3 4.7, 69.3 15.9 C 59.5 33.8, 58.2 90.8, 51.7 95.7 C 59.0 100.0, 66.8 16.8, 70.7 14.2 C 83.0 15.6, 17.4 20.1, 17.0 23.9 C 35.8 14.5, 100.0 60.0, 95.8 70.6 " fill="none" fill-opacity="0.40" stroke="hsl(40, 53%, 69%)" stroke-width="0.90"  transform="translate(0.4 31.7) rotate(75.5) scale(0.67 1.94)" />
<path d="M 40.5 91.1 C 28.2 74.0, 46.5 41.3, 42.5 44.0 C 43.6 49.2, 93.5 5.5, 99.3 4.2 C 100.0 0.0, 35.4 10.6, 34.3 24.4 C 39.1 7.6, 0.0 63.5, 6.4 64.6 C 23.6 62.5, 61.2 65.0, 52.1 52.2 C 34.7 48.9, 100.0 69.4, 97.4 78.9 C 89.2 97.3, 0.0 90.1, 1.6 82.2 C 9.8 87.6, 69.7 53.8, 69.4 53.1 C 73.3 61.4, 14.3 59.1, 9.2 55.9 Z" fill="none" fill-opacity="0.41" stroke="hsl(106, 75%, 59%)" stroke-width="3.98"  transform="translate(52.9 8.0) rotate(104.2) scale(1.72 0.77)" />
<path d="M 75.1 56.5 C 95.0 70.2, 94.2 74.2, 88.1 77.0 C 100.0 66.4, 23.5 67.6, 8.9 52.7 C 0.0 35.4, 73.0 58.6, 75.9 60.6 C 60.8 68.2, 64.9 46.8, 63.3 45.4 C 77.7 52.8, 74.5 21.0, 69.2 17.2 C 56.7 6.9, 87.9 88.0, 84.8 91.4 C 71.1 86.0, 68.5 29.9, 78.6 40.7 Z" fill="hsl(290, 83%, 63%)" fill-opacity="0.64" stroke="none" stroke-width="4.99"  transform="translate(59.7 71.2) rotate(309.9) scale(0.88 0.61)" />
<path d="M 36.8 8.7 C 48.3 0.0, 35.6 54.8, 49.3 67.6 C 46.4 54.7, 100.0 35.3, 99.2 45.0 C 87.8 46.6, 100.0 76.4, 98.3 80.6 C 78.4 96.6, 55.3 56.2, 55.6 58.9 C 47.0 46.8, 7.8 69.0, 14.2 63.2 C 32.7 53.6, 14.9 23.3, 5.0 29.4 C 5.2 47.4, 82.6 70.0, 84.4 56.9 Z" fill="none" fill-opacity="0.54" stroke="hsl(106, 75%, 59%)" stroke-width="2.38"  transform="translate(93.9 16.7) rotate(265.9) scale(0.63 0.60)" />
<path d="M 5.6 83.5 C 0.0 79.3, 45.7 3.4, 43.9 8.6 C 26.7 7.7, 47.3 83.5, 36.1 81.4 C 38.1 73.5, 59.5 27.7, 50.5 30.0 C 62.7 43.7, 90.4 82.5, 81.9 95.4 C 66.2 100.0, 82.9 83.9, 94.1 82.3 C 100.0 100.0, 40.9 74.0, 38.4 59.1 C 28.3 47.6, 85.9 71.7, 97.0 64.0 Z" fill="none" fill-opacity="0.31" stroke="hsl(40, 53%, 69%)" stroke-width="3.67"  transform="translate(90.2 96.0) rotate(326.1) scale(1.38 0.99)" />
<path d="M 27.3 53.7 C 16.7 44.7, 100.0 13.2, 97.4 8.0 C 100.0 17.4, 79.5 20.4, 81.4 6.4 C 99.4 0.0, 73.5 18.5, 85.4 19.9 C 84.6 39.3, 93.2 96.1, 90.0 88.8 C 100.0 85.0, 47.4 78.8, 39.6 80.9 C 35.0 87.2, 86.2 34.6, 89.7 19.9 Z" fill="hsl(86, 72%, 68%)" fill-opacity="0.70" stroke="none" stroke-width="5.20"  transform="translate(32.8 3.8) rotate(208.0) scale(0.95 0.51)" />
<rect x="46.6" y="48.4" width="40.5" height="18.3" rx="1.5" fill="hsl(83, 65%, 44%)" fill-opacity="0.69"  filter="url(#f1)"  />
<path d="M 74.9 8.4 C 88.3 7.6, 100.0 60.1, 91.0 66.1 C 99.5 51.8, 45.4 0.0, 42.3 0.7 C 55.2 0.0, 86.3 99.5, 85.7 88.7 C 93.1 90.1, 84.6 30.6, 78.5 16.6 C 59.5 4.5, 44.6 75.8, 46.0 70.1 C 26.1 52.7, 0.0 43.2, 0.1 36.7 C 3.2 20.7, 17.0 13.3, 20.2 11.3 Z" fill="hsl(2, 82%, 55%)" fill-opacity="0.34" stroke="none" stroke-width="3.12"  transform="translate(96.8 27.2) rotate(61.1) scale(1.28 0.60)" />
<path d="M 23.6 93.3 C 19.4 100.0, 80.6 45.0, 72.5 52.1 C 76.7 72.0, 42.6 46.7, 31.8 51.7 C 34.3 51.5, 28.2 0.0, 16.8 2.7 C 1.3 0.0, 68.3 31.4, 54.0 39.7 C 52.4 34.4, 86.9 21.9, 95.9 27.6 C 93.3 41.9, 12.6 64.4, 2.5 74.7 C 0.0 56.8, 82.1 24.9, 89.7 28.5 C 78.8 23.8, 0.4 77.2, 13.7 71.3 C 22.3 86.8, 73.8 29.4, 71.6 35.4 Z" fill="none" fill-opacity="0.54" stroke="hsl(144, 86%, 72%)" stroke-width="1.36" filter="url(#f1)" transform="translate(88.5 49.5) rotate(256.1) scale(0.70 1.15)" />
<path d="M 10.5 0.0 C 18.8 0.0, 5.9 0.0, 19.5 9.5 C 29.5 0.0, 76.1 64.4, 61.3 76.3 C 63.9 91.4, 96.2 57.1, 89.6 64.2 C 100.0 57.6, 35.3 100.0, 22.0 96.3 C 29.1 97.6, 78.8 47.0, 64.5 46.7 C 51.4 33.5, 65.5 69.3, 60.7 64.5 C 52.6 54.1, 75.3 0.0, 61.1 8.0 C 43.6 22.3, 41.7 29.0, 28.2 27.0 Z" fill="hsl(290, 83%, 63%)" fill-opacity="0.84" stroke="none" stroke-width="1.31"   />
<path d="M 13.9 7.3 C 0.0 6.5, 79.0 100.0, 86.0 92.5 C 72.9 97.1, 8.7 42.7, 4.0 52.0 C 16.6 60.5, 14.7 52.2, 16.2 66.0 C 33.4 50.9, 34.8 66.1, 25.2 59.1 C 6.3 40.8, 34.5 48.3, 37.6 40.6 C 18.4 21.5, 93.1 90.9, 84.6 85.7 C 95.9 100.0, 43.3 60.2, 39.1 74.0 C 58.8 89.5, 56.3 63.8, 53.0 55.2 Z" fill="hsl(242, 72%, 49%)" fill-opacity="0.93" stroke="none" stroke-width="3.37"  transform="translate(69.6 25.3) rotate(31.8) scale(0.96 1.84)" />
<path d="M 20.7 61.8 C 28.6 66.6, 0.7 0.0, 12.1 0.0 C 27.2 0.0, 51.2 89.4, 56.6 86.8 C 62.3 70.9, 28.2 97.7, 25.0 91.5 C 18.6 76.4, 100.0 84.3, 99.9 90.4 C 91.0 100.0, 77.4 67.1, 87.9 75.5 C 100.0 58.3, 58.6 67.7, 72.8 67.5 C 61.0 71.2, 55.4 47.6, 65.5 34.4 C 80.7 26.3, 14.2 49.0, 26.7 47.4 Z" fill="none" fill-opacity="0.82" stroke="hsl(290, 83%, 63%)" stroke-width="2.28"  transform="translate(67.8 44.6) rotate(203.6) scale(0.57 0.64)" />
<path d="M 21.3 84.3 C 29.0 96.3, 26.0 44.4, 35.8 46.4 C 33.5 52.3, 15.4 59.1, 24.5 55.2 C 35.8 74.6, 69.6 47.0, 77.7 51.1 C 66.9 58.6, 63.0 38.1, 66.3 43.8 C 77.7 30.0, 97.5 38.6, 97.5 26.2 C 100.0 13.5, 23.0 57.1, 12.2 67.5 C 27.2 81.5, 84.3 87.6, 84.0 98.8 Z" fill="none" fill-opacity="0.48" stroke="hsl(2, 82%, 55%)" stroke-width="2.48" filter="url(#f1)" transform="translate(0.7 1.7) rotate(247.8) scale(1.28 0.70)" />
<circle cx="24.7" cy="17.7" r="2.7" fill="hsl(106, 75%, 59%)" fill-opacity="0.98"  transform="translate(19.6 24.8) rotate(42.9) scale(1.36 0.62)" />
<circle cx="4.9" cy="57.1" r="2.5" fill="hsl(322, 74%, 44%)" fill-opacity="0.51"   />
<circle cx="91.6" cy="15.4" r="5.9" fill="url(#g2)" fill-opacity="0.45"   />
<rect x="34.3" y="48.2" width="41.8" height="20.0" rx="5.8" fill="hsl(104, 72%, 65%)" fill-opacity="0.29" stroke="hsl(144, 86%, 72%)" stroke-width="3.7"   />
<path d="M 71.3 27.4 C 79.8 23.8, 13.9 88.8, 22.3 93.1 C 14.4 100.0, 70.3 68.4, 55.7 70.2 C 74.7 82.1, 0.0 26.7, 1.6 37.1 C 11.1 31.8, 26.3 25.9, 29.3 20.0 C 45.7 8.0, 77.6 87.7, 86.4 82.4 C 74.9 80.4, 66.8 90.4, 68.0 93.9 C 48.4 100.0, 20.2 64.5, 29.8 76.0 C 24.8 85.6, 27.0 68.3, 15.0 67.8 C 26.6 71.9, 76.3 62.2, 72.6 76.3 Z" fill="none" fill-opacity="0.56" stroke="hsl(2, 82%, 55%)" stroke-width="3.33"   />
<path d="M 69.7 37.2 C 86.3 44.2, 62.1 93.0, 64.1 78.5 C 78.1 73.2, 40.1 13.9, 52.1 3.8 C 63.9 22.8, 27.9 41.0, 22.2 51.1 C 36.7 69.4, 12.9 93.7, 23.4 83.6 C 36.7 86.5, 77.2 47.8, 68.7 60.7 C 56.1 51.2, 85.2 0.0, 71.7 7.6 Z" fill="hsl(322, 74%, 44%)" fill-opacity="0.62" stroke="none" stroke-width="3.36"  transform="translate(43.6 34.8) rotate(227.3) scale(1.87 0.87)" />
<circle cx="4.6" cy="7.7" r="0.8" fill="hsl(322, 74%, 44%)" fill-opacity="0.66"  transform="translate(32.1 6.9) rotate(135.0) scale(1.62 0.94)" />
<path d="M 34.6 22.3 C 17.1 2.4, 0.5 0.0, 2.9 5.6 C 0.0 5.5, 63.5 95.6, 72.7 87.6 C 78.5 68.5, 31.4 71.3, 38.1 58.8 C 55.8 42.3, 13.6 42.4, 17.3 41.7 C 9.4 33.4, 0.0 91.6, 2.8 78.0 C 0.0 93.0, 24.1 45.5, 25.9 49.7 C 8.7 68.2, 1.9 72.7, 14.6 80.9 C 21.2 76.1, 67.7 7.8, 56.8 9.0 " fill="none" fill-opacity="0.81" stroke="hsl(40, 53%, 69%)" stroke-width="4.01"  transform="translate(95.0 60.3) rotate(27.2) scale(0.85 0.88)" />
<path d="M 39.5 21.6 C 28.9 6.7, 86.8 1.4, 77.8 10.3 C 63.4 27.4, 100.0 4.9, 95.7 14.8 C 99.3 31.7, 11.5 74.6, 1.7 64.3 C 0.0 58.6, 100.0 22.3, 96.9 9.7 C 100.0 0.0, 2.1 12.5, 15.1 15.1 C 3.0 3.5, 55.6 87.5, 50.7 95.9 C 53.0 88.2, 95.5 18.4, 82.6 21.1 C 68.9 30.6, 81.3 21.5, 76.8 22.6 Z" fill="hsl(40, 53%, 69%)" fill-opacity="0.43" stroke="none" stroke-width="3.35"  transform="translate(43.1 79.4) rotate(207.2) scale(0.92 1.24)" />
<circle cx="1.5" cy="16.4" r="5.9" fill="url(#g2)" fill-opacity="0.49"  transform="translate(20.0 97.5) rotate(216.4) scale(1.66 0.65)" />
<path d="M 73.0 51.1 C 82.1 58.2, 14.9 45.3, 19.0 33.5 C 11.6 34.7, 0.0 100.0, 6.6 98.9 C 0.0 100.0, 100.0 71.0, 92.9 78.3 C 96.5 65.9, 14.0 94.7, 19.6 81.8 C 8.8 70.6, 69.0 41.8, 70.6 47.1 C 63.8 29.0, 99.4 52.5, 86.0 53.5 C 100.0 45.4, 17.5 54.3, 25.2 62.4 C 17.8 77.3, 25.2 100.0, 24.8 97.5 C 33.9 100.0, 11.7 22.7, 21.5 30.3 C 14.5 15.0, 46.2 85.7, 50.3 85.9 Z" fill="none" fill-opacity="0.69" stroke="hsl(322, 74%, 44%)" stroke-width="0.80"  transform="translate(34.3 76.7) rotate(174.3) scale(0.97 1.88)" />
<path d="M 2.4 81.2 C 0.0 71.0, 26.7 20.6, 35.7 9.1 C 55.0 4.7, 69.1 87.1, 62.5 76.5 C 43.0 93.5, 8.0 45.6, 8.0 35.2 C 0.4 21.8, 26.2 36.6, 22.4 41.3 C 34.7 24.7, 42.1 61.2, 40.2 65.2 C 24.9 82.2, 24.5 92.2, 16.6 96.3 Z" fill="hsl(290, 83%, 63%)" fill-opacity="0.54" stroke="none" stroke-width="2.61" filter="url(#f1)" transform="translate(15.3 35.3) rotate(118.8) scale(1.11 1.59)" />
<rect x="7.4" y="18.5" width="45.3" height="17.4" rx="0" fill="hsl(322, 74%, 44%)" fill-opacity="0.89"   transform="translate(99.5 89.1) rotate(3.1) scale(0.92 1.80)" />
<circle cx="98.6" cy="41.9" r="5.2" fill="url(#g0)" fill-opacity="0.66"  transform="translate(9.1 94.4) rotate(29.2) scale(1.29 1.99)" />
<circle cx="28.3" cy="36.6" r="3.9" fill="hsl(40, 53%, 69%)" fill-opacity="0.63"  transform="translate(77.2 80.5) rotate(109.4) scale(0.68 1.44)" />
<path d="M 15.4 99.7 C 32.7 88.9, 77.0 31.9, 77.9 43.1 C 72.9 49.4, 65.2 52.7, 67.5 64.1 C 54.6 80.8, 51.1 57.4, 42.8 46.0 C 30.7 34.4, 14.5 14.0, 24.2 6.0 C 21.5 3.1, 73.5 79.1, 63.0 85.9 C 72.1 100.0, 0.0 100.0, 6.6 92.5 C 5.9 100.0, 22.1 70.6, 26.6 64.4 C 30.7 56.1, 22.1 73.9, 24.4 73.1 Z" fill="none" fill-opacity="0.95" stroke="hsl(183, 71%, 60%)" stroke-width="4.01"  transform="translate(60.3 2.4) rotate(330.1) scale(1.39 1.36)" />
<path d="M 40.9 22.5 C 32.3 40.7, 57.6 67.9, 45.3 59.8 C 48.2 49.1, 44.4 63.6, 37.7 75.2 C 31.5 92.4, 12.1 66.5, 5.4 55.6 C 4.8 48.2, 88.3 88.6, 84.1 90.3 C 100.0 84.7, 11.8 91.3, 1.8 76.9 C 10.9 80.1, 92.5 4.0, 91.7 18.5 " fill="none" fill-opacity="0.66" stroke="hsl(40, 53%, 69%)" stroke-width="2.14"  transform="translate(18.2 78.8) rotate(12.5) scale(1.52 1.75)" />
<circle cx="23.5" cy="82.8" r="2.2" fill="url(#g2)" fill-opacity="0.66"  transform="translate(41.0 92.1) rotate(32.2) scale(0.81 1.48)" />
<path d="M 74.2 24.7 C 77.5 23.3, 12.0 15.9, 22.2 24.6 C 35.8 34.9, 6.1 81.0, 3.5 69.6 C 0.0 50.0, 21.0 58.0, 13.3 66.9 C 2.8 60.4, 64.3 57.0, 78.7 49.3 C 61.2 41.3, 82.9 33.9, 70.2 35.8 C 85.7 36.1, 34.7 88.8, 39.5 91.8 C 36.0 71.9, 71.7 81.0, 86.3 79.1 Z" fill="hsl(242, 72%, 49%)" fill-opacity="0.91" stroke="none" stroke-width="2.27" filter="url(#f1)" transform="translate(2.8 83.7) rotate(253.6) scale(1.64 0.60)" />
<path d="M 8.6 88.0 C 0.0 80.2, 51.2 36.9, 53.3 48.8 C 37.3 50.7, 90.1 75.9, 93.9 62.9 C 100.0 43.9, 82.1 59.8, 90.6 64.9 C 91.8 58.8, 38.8 71.7, 28.1 65.1 C 38.9 48.7, 27.0 42.2, 17.2 53.2 C 25.9 62.2, 84.9 48.5, 77.1 59.0 C 65.8 51.9, 88.7 13.4, 88.3 5.7 C 100.0 16.7, 0.0 57.3, 3.8 43.6 C 0.0 56.2, 57.4 100.0, 52.9 95.0 C 67.6 100.0, 85.4 18.8, 94.6 9.3 Z" fill="hsl(86, 72%, 68%)" fill-opacity="0.28" stroke="none" stroke-width="4.43"  transform="translate(1.8 45.6) rotate(204.7) scale(0.51 1.01)" />
<path d="M 97.9 54.0 C 100.0 49.8, 15.2 14.3, 6.0 26.3 C 0.0 14.7, 24.9 90.5, 30.8 87.0 C 28.4 100.0, 82.2 47.9, 75.7 35.2 C 72.1 30.1, 0.0 10.6, 4.0 6.3 C 5.9 0.0, 86.8 79.3, 77.0 84.2 C 61.8 83.4, 33.5 69.3, 18.6 76.1 C 35.5 82.8, 76.6 70.1, 88.5 79.7 C 95.0 93.4, 81.9 7.9, 87.4 19.0 Z" fill="hsl(104, 72%, 65%)" fill-opacity="0.58" stroke="none" stroke-width="5.29"  transform="translate(28.0 62.0) rotate(89.4) scale(0.88 1.35)" />
<rect x="17.9" y="57.8" width="41.8" height="31.3" rx="0" fill="none" fill-opacity="0.40"  filter="url(#f1)" transform="translate(71.0 60.3) rotate(256.3) scale(1.78 1.06)" />
<rect x="16.3" y="12.7" width="27.3" height="29.0" rx="0" fill="none" fill-opacity="0.67"   transform="translate(70.0 18.7) rotate(78.7) scale(1.38 1.25)" />
<path d="M 34.3 93.1 C 23.6 84.4, 89.6 81.2, 77.5 73.7 C 60.3 89.7, 0.0 90.8, 2.0 79.1 C 0.0 96.4, 35.0 55.4, 25.3 55.8 C 17.1 74.1, 12.6 14.2, 4.5 13.7 C 13.6 14.2, 0.0 41.6, 10.0 42.5 C 7.7 51.3, 10.3 75.8, 5.8 62.2 C 0.7 52.3, 13.2 56.7, 24.0 59.8 C 7.0 67.0, 94.7 59.7, 84.5 55.6 Z" fill="none" fill-opacity="0.50" stroke="hsl(106, 75%, 59%)" stroke-width="3.89"  transform="translate(87.0 0.4) rotate(91.0) scale(1.20 1.51)" />
<path d="M 91.8 69.6 C 90.4 52.1, 43.7 74.7, 31.9 87.2 C 38.6 76.1, 85.0 56.7, 75.0 58.6 C 77.1 39.9, 37.6 1.8, 40.9 9.3 C 39.6 8.8, 11.5 7.6, 24.2 14.5 C 11.1 9.8, 58.0 19.5, 69.9 26.3 C 52.8 34.6, 80.1 33.6, 87.0 23.5 C 100.0 35.5, 68.8 84.1, 69.6 70.4 C 76.7 62.5, 44.9 72.7, 55.9 63.2 C 61.8 82.4, 0.0 34.2, 6.1 42.3 C 0.0 26.3, 77.2 50.9, 63.5 61.2 Z" fill="hsl(2, 82%, 55%)" fill-opacity="0.77" stroke="none" stroke-width="3.21"  transform="translate(59.0 45.1) rotate(140.3) scale(1.02 0.64)" />
<path d="M 10.2 49.5 C 22.5 56.8, 38.5 20.5, 37.0 28.9 C 27.0 39.3, 52.2 81.9, 37.3 67.2 C 55.5 57.3, 0.0 58.8, 4.4 58.2 C 0.0 55.5, 16.7 71.4, 8.0 78.2 C 11.6 96.9, 73.4 89.7, 84.0 78.2 C 95.2 66.0, 32.5 25.7, 18.4 29.6 C 9.5 14.1, 0.0 75.6, 5.0 75.5 C 15.3 70.7, 46.1 47.5, 35.5 49.0 C 19.8 41.6, 5.8 31.1, 15.9 37.5 Z" fill="hsl(151, 70%, 62%)" fill-opacity="0.49" stroke="none" stroke-width="4.02"   />
<rect x="21.3" y="52.5" width="38.8" height="19.4" rx="7.1" fill="none" fill-opacity="0.70" stroke="hsl(144, 86%, 72%)" stroke-width="2.2"  transform="translate(32.9 50.5) rotate(109.5) scale(1.20 1.88)" />
<rect x="38.7" y="5.9" width="32.2" height="39.5" rx="2.2" fill="none" fill-opacity="0.62"   transform="translate(63.7 24.0) rotate(296.1) scale(1.46 1.55)" />
<path d="M 63.6 41.9 C 67.5 49.0, 42.9 25.3, 53.2 31.5 C 37.8 18.3, 30.6 58.2, 34.0 48.2 C 19.2 45.0, 65.3 16.6, 77.9 28.1 C 69.0 27.1, 10.3 48.7, 24.8 53.1 C 41.3 51.4, 45.7 64.0, 31.7 56.3 C 45.4 74.4, 56.6 50.0, 58.2 62.6 C 60.3 62.9, 4.7 70.9, 12.5 73.8 C 0.0 85.4, 57.4 59.1, 50.8 51.5 C 49.2 42.2, 38.5 90.0, 35.8 80.0 C 19.8 85.6, 16.0 100.0, 2.7 94.5 Z" fill="hsl(40, 53%, 69%)" fill-opacity="0.54" stroke="none" stroke-width="1.95"  transform="translate(15.2 58.8) rotate(154.0) scale(1.94 1.71)" />
<path d="M 29.7 34.2 C 40.1 19.6, 93.6 28.6, 96.1 28.5 C 100.0 44.3, 14.6 10.3, 18.6 14.7 C 6.7 27.5, 86.7 16.9, 81.7 9.1 C 66.8 26.7, 57.2 37.8, 62.7 23.6 C 68.1 6.7, 43.5 15.9, 47.1 12.6 C 59.3 4.4, 60.0 52.6, 45.1 56.5 C 36.4 57.5, 4.0 9.1, 16.7 19.6 C 4.7 2.2, 57.7 80.2, 68.3 71.4 Z" fill="none" fill-opacity="0.50" stroke="hsl(151, 70%, 62%)" stroke-width="1.59"  transform="translate(8.1 55.1) rotate(104.2) scale(1.46 1.73)" />
<rect x="5.9" y="15.8" width="39.7" height="29.2" rx="9.8" fill="none" fill-opacity="0.69" stroke="hsl(40, 53%, 69%)" stroke-width="3.1"  transform="translate(44.8 53.6) rotate(252.7) scale(1.02 1.53)" />
<g opacity="0.033">
<rect x="0" y="0" width="1" height="100" fill="black" />
<rect x="22" y="0" width="1" height="100" fill="black" />
<rect x="44" y="0" width="1" height="100" fill="black" />
<rect x="66" y="0" width="1" height="100" fill="black" />
<rect x="88" y="0" width="1" height="100" fill="black" />
<rect x="0" y="0" width="100" height="1" fill="black" />
<rect x="0" y="22" width="100" height="1" fill="black" />
<rect x="0" y="44" width="100" height="1" fill="black" />
<rect x="0" y="66" width="100" height="1" fill="black" />
<rect x="0" y="88" width="100" height="1" fill="black" />
</g>

</svg>
