<?xml version="1.0" encoding="UTF-8"?>
<svg xmlns="http://www.w3.org/2000/svg" width="100" height="100" viewBox="0 0 100 100">
<defs>
<linearGradient id="g0" x1="0%" y1="0%" x2="100%" y2="100%">
<stop offset="0.0%" stop-color="hsl(106, 75%, 59%)" />
<stop offset="33.3%" stop-color="hsl(183, 71%, 60%)" />
<stop offset="66.7%" stop-color="hsl(242, 72%, 49%)" />
<stop offset="100.0%" stop-color="hsl(322, 74%, 44%)" />
</linearGradient>
<linearGradient id="g1" x1="0%" y1="0%" x2="100%" y2="100%">
<stop offset="0.0%" stop-color="hsl(290, 83%, 63%)" />
<stop offset="33.3%" stop-color="hsl(2, 82%, 55%)" />
<stop offset="66.7%" stop-color="hsl(86, 72%, 68%)" />
<stop offset="100.0%" stop-color="hsl(83, 65%, 44%)" />
</linearGradient>
<linearGradient id="g2" x1="0%" y1="0%" x2="100%" y2="100%">
<stop offset="0.0%" stop-color="hsl(40, 53%, 69%)" />
<stop offset="33.3%" stop-color="hsl(104, 72%, 65%)" />
<stop offset="66.7%" stop-color="hsl(144, 86%, 72%)" />
<stop offset="100.0%" stop-color="hsl(151, 70%, 62%)" />
</linearGradient>
</defs>

<path d="M 63.1 97.3 C 44.8 100.0, 0.0 13.2, 2.3 26.9 C 0.0 43.5, 7.9 90.1, 6.6 92.0 C 10.2 90.7, 47.5 23.1, 49.2 15.6 C 52.6 8.2, 33.5 62.3, 31.1 54.1 " fill="none" fill-opacity="0.97" stroke="hsl(83, 65%, 44%)" stroke-width="1.07"   />
<path d="M 62.2 48.7 C 59.4 62.3, 9.3 6.3, 4.9 1.7 C 14.2 0.0, 9.2 18.7, 14.3 15.7 C 29.9 34.5, 76.6 4.1, 68.2 12.7 C 62.4 22.7, 37.2 63.4, 50.3 57.5 Z" fill="none" fill-opacity="0.28" stroke="hsl(86, 72%, 68%)" stroke-width="1.11"  transform="translate(12.6 79.6) rotate(332.9) scale(1.40 0.84)" />
<rect x="11.2" y="12.1" width="23.9" height="19.9" rx="11.6" fill="hsl(83, 65%, 44%)" fill-opacity="0.55" stroke="hsl(2, 82%, 55%)" stroke-width="1.0"  transform="translate(97.7 59.1) rotate(221.9) scale(0.58 0.85)" />
<circle cx="15.8" cy="80.1" r="0.5" fill="hsl(151, 70%, 62%)" fill-opacity="0.91"   />
<path d="M 4.2 93.0 C 7.4 87.8, 56.7 94.0, 48.6 81.7 C 46.9 73.8, 45.9 44.6, 36.6 46.2 C 42.0 35.4, 72.9 17.9, 63.4 27.2 Z" fill="none" fill-opacity="0.53" stroke="hsl(151, 70%, 62%)" stroke-width="1.29"  transform="translate(11.7 33.9) rotate(103.0) scale(1.72 1.41)" />
<path d="M 60.3 69.2 C 76.6 76.2, 27.6 83.9, 15.3 90.4 C 0.0 80.7, 39.0 0.0, 24.8 9.6 C 15.1 22.3, 62.3 68.1, 50.7 56.9 C 47.6 72.4, 63.7 38.1, 69.7 30.2 " fill="hsl(83, 65%, 44%)" fill-opacity="0.31" stroke="none" stroke-width="0.88"   />
<rect x="8.4" y="61.4" width="38.2" height="36.5" rx="9.1" fill="none" fill-opacity="0.34"    />
<path d="M 6.4 18.9 C 19.7 20.9, 64.0 84.8, 73.1 90.1 C 82.8 100.0, 74.8 7.4, 63.1 21.3 C 80.1 15.8, 87.4 66.1, 94.2 70.8 Z" fill="hsl(40, 53%, 69%)" fill-opacity="1.00" stroke="none" stroke-width="0.82"  transform="translate(45.4 51.0) rotate(211.2) scale(1.34 1.84)" />
<path d="M 27.4 74.1 C 45.5 77.6, 35.4 33.2, 38.7 37.7 C 44.2 57.5, 14.3 13.0, 8.7 23.6 C 28.2 30.0, 38.8 20.6, 38.3 16.9 C 25.6 19.6, 39.2 56.6, 53.2 47.6 C 72.0 54.9, 71.4 79.1, 74.0 68.4 C 91.1 52.5, 50.9 84.6, 51.9 86.2 C 59.6 77.1, 28.3 34.9, 27.2 26.6 " fill="none" fill-opacity="0.77" stroke="hsl(40, 53%, 69%)" stroke-width="1.21"  transform="translate(35.6 11.5) rotate(325.3) scale(1.05 0.97)" />
<rect x="6.9" y="44.3" width="32.5" height="38.6" rx="0" fill="hsl(144, 86%, 72%)" fill-opacity="0.58"   transform="translate(62.8 80.7) rotate(269.3) scale(1.94 0.68)" />
<path d="M 54.9 49.6 C 68.9 65.7, 57.3 26.6, 43.7 22.4 C 63.2 5.4, 19.6 29.7, 13.1 35.1 C 29.1 34.7, 92.2 68.6, 94.1 59.1 C 100.0 43.3, 69.7 68.5, 56.0 57.0 C 57.9 68.9, 56.8 84.7, 63.5 86.1 C 52.2 100.0, 65.2 70.4, 69.2 60.7 " fill="hsl(144, 86%, 72%)" fill-opacity="0.64" stroke="none" stroke-width="0.91"   />
<path d="M 97.6 4.6 C 100.0 20.2, 94.8 49.2, 98.4 61.9 C 99.2 78.9, 18.9 0.5, 19.3 7.2 C 1.2 5.1, 49.2 58.7, 45.7 53.0 C 61.7 70.9, 82.3 78.7, 78.1 67.8 Z" fill="hsl(106, 75%, 59%)" fill-opacity="0.65" stroke="none" stroke-width="1.00"   />
<rect x="45.3" y="36.4" width="42.2" height="18.4" rx="0" fill="hsl(104, 72%, 65%)" fill-opacity="0.99"    />
<path d="M 90.0 30.9 C 97.2 21.0, 31.7 83.9, 45.8 98.1 C 65.3 83.3, 98.6 65.5, 99.0 60.1 C 89.0 51.7, 86.4 98.0, 89.9 92.2 C 77.0 80.0, 74.2 52.8, 61.8 51.0 Z" fill="none" fill-opacity="0.56" stroke="hsl(242, 72%, 49%)" stroke-width="1.28"  transform="translate(11.5 32.0) rotate(209.6) scale(1.04 0.85)" />
<path d="M 30.5 39.3 C 28.2 38.1, 38.8 93.3, 39.3 80.2 C 22.5 90.3, 49.9 89.6, 42.4 98.1 C 32.4 100.0, 24.6 56.3, 37.5 42.7 C 25.7 33.3, 14.5 0.0, 9.6 3.9 C 9.7 0.0, 50.6 68.6, 55.7 71.3 C 44.5 61.6, 55.2 51.0, 40.3 40.3 " fill="hsl(322, 74%, 44%)" fill-opacity="0.51" stroke="none" stroke-width="0.86"  transform="translate(81.9 22.6) rotate(52.8) scale(1.41 1.23)" />
<path d="M 80.5 16.6 C 76.4 18.0, 74.3 54.3, 64.9 60.5 C 58.5 74.0, 98.5 8.4, 92.2 7.9 C 78.8 1.4, 86.8 28.1, 78.3 38.9 C 95.6 49.0, 75.4 51.9, 82.2 60.7 C 90.6 73.2, 75.1 54.1, 89.3 47.9 C 100.0 33.5, 45.4 54.7, 40.4 54.4 " fill="hsl(86, 72%, 68%)" fill-opacity="0.94" stroke="none" stroke-width="0.93"   />
</svg>
