<?xml version="1.0" encoding="UTF-8"?>
<svg xmlns="http://www.w3.org/2000/svg" width="100" height="100" viewBox="0 0 100 100">
<defs>
<linearGradient id="g0" x1="0%" y1="0%" x2="100%" y2="100%">
<stop offset="0.0%" stop-color="hsl(106, 75%, 59%)" />
<stop offset="33.3%" stop-color="hsl(183, 71%, 60%)" />
<stop offset="66.7%" stop-color="hsl(242, 72%, 49%)" />
<stop offset="100.0%" stop-color="hsl(322, 74%, 44%)" />
</linearGradient>
<linearGradient id="g1" x1="0%" y1="0%" x2="100%" y2="100%">
<stop offset="0.0%" stop-color="hsl(290, 83%, 63%)" />
<stop offset="33.3%" stop-color="hsl(2, 82%, 55%)" />
<stop offset="66.7%" stop-color="hsl(86, 72%, 68%)" />
<stop offset="100.0%" stop-color="hsl(83, 65%, 44%)" />
</linearGradient>
<linearGradient id="g2" x1="0%" y1="0%" x2="100%" y2="100%">
<stop offset="0.0%" stop-color="hsl(40, 53%, 69%)" />
<stop offset="33.3%" stop-color="hsl(104, 72%, 65%)" />
<stop offset="66.7%" stop-color="hsl(144, 86%, 72%)" />
<stop offset="100.0%" stop-color="hsl(151, 70%, 62%)" />
</linearGradient>
</defs>

<circle cx="91.3" cy="20.5" r="0.6" fill="hsl(242, 72%, 49%)" fill-opacity="0.71"  transform="translate(91.8 41.5) rotate(118.8) scale(1.09 1.50)" />
<path d="M 35.2 67.0 C 27.9 53.4, 47.8 75.9, 51.7 85.8 C 63.4 92.5, 39.0 92.6, 44.1 89.2 C 33.5 88.4, 67.8 67.8, 61.7 63.0 C 81.2 45.3, 63.6 15.4, 70.9 28.9 C 55.0 47.2, 100.0 19.8, 99.6 26.4 Z" fill="hsl(242, 72%, 49%)" fill-opacity="0.46" stroke="none" stroke-width="0.84"  transform="translate(14.2 39.3) rotate(268.1) scale(1.87 0.78)" />
<path d="M 89.7 58.6 C 74.8 71.9, 84.4 79.3, 95.8 78.6 C 87.6 96.3, 35.1 18.3, 45.4 5.7 C 28.0 3.1, 29.4 59.8, 43.5 65.7 " fill="none" fill-opacity="0.45" stroke="hsl(322, 74%, 44%)" stroke-width="0.99"  transform="translate(96.7 9.8) rotate(219.3) scale(1.17 1.12)" />
<path d="M 16.1 15.4 C 26.2 0.9, 90.1 55.6, 78.4 48.4 C 87.6 35.0, 13.9 10.6, 9.5 21.8 C 18.9 36.2, 78.4 100.0, 64.5 94.4 C 56.9 81.6, 65.3 69.5, 54.1 79.9 " fill="none" fill-opacity="0.68" stroke="hsl(104, 72%, 65%)" stroke-width="1.12"   />
<rect x="34.8" y="64.6" width="44.3" height="35.2" rx="10.2" fill="hsl(183, 71%, 60%)" fill-opacity="0.47"    />
<path d="M 66.8 31.4 C 64.6 40.5, 80.3 0.0, 87.5 1.8 C 100.0 0.0, 76.7 56.5, 85.4 55.5 C 82.1 67.9, 57.1 78.9, 54.6 72.4 C 49.4 72.6, 34.7 52.6, 49.3 67.1 C 50.4 55.5, 49.5 35.2, 49.6 37.0 " fill="none" fill-opacity="0.51" stroke="hsl(144, 86%, 72%)" stroke-width="0.87"  transform="translate(46.7 11.2) rotate(337.2) scale(0.53 1.41)" />
<rect x="22.9" y="61.7" width="26.7" height="28.4" rx="9.4" fill="hsl(151, 70%, 62%)" fill-opacity="0.26"   transform="translate(60.1 35.9) rotate(170.6) scale(1.19 1.99)" />
<path d="M 19.3 92.8 C 12.4 84.0, 28.5 8.9, 36.3 9.9 C 36.1 7.9, 44.3 82.0, 53.5 74.8 C 57.1 89.4, 34.6 27.1, 41.7 20.9 Z" fill="none" fill-opacity="0.54" stroke="hsl(242, 72%, 49%)" stroke-width="1.19"   />
<rect x="37.4" y="64.0" width="20.9" height="17.4" rx="0" fill="hsl(104, 72%, 65%)" fill-opacity="0.41" stroke="hsl(40, 53%, 69%)" stroke-width="5.0"   />
<path d="M 36.4 28.7 C 17.9 24.6, 32.3 27.4, 42.8 26.6 C 42.2 32.4, 90.6 6.4, 76.5 8.3 C 79.4 4.4, 75.0 20.2, 81.5 15.2 C 78.9 0.0, 27.7 60.3, 26.5 74.2 C 29.4 77.7, 41.0 71.3, 39.4 70.4 C 28.3 83.0, 17.8 51.7, 21.1 60.8 C 2.1 58.7, 0.0 27.5, 5.7 33.1 " fill="none" fill-opacity="0.53" stroke="hsl(104, 72%, 65%)" stroke-width="1.13"  transform="translate(3.1 47.9) rotate(83.9) scale(0.96 1.02)" />
<path d="M 35.9 44.7 C 37.9 35.9, 27.4 77.4, 25.9 91.0 C 44.6 100.0, 4.5 80.2, 1.3 75.5 C 0.0 91.2, 82.9 87.8, 87.7 83.4 C 73.0 82.0, 87.5 13.6, 73.2 27.1 C 59.3 23.6, 43.9 72.2, 42.1 74.2 " fill="hsl(183, 71%, 60%)" fill-opacity="0.27" stroke="none" stroke-width="0.91"   />
<circle cx="52.1" cy="79.8" r="1.0" fill="hsl(104, 72%, 65%)" fill-opacity="0.46"  transform="translate(48.5 39.8) rotate(188.7) scale(0.72 1.15)" />
<path d="M 84.7 35.3 C 74.3 33.9, 84.5 13.3, 77.0 0.2 C 83.4 0.0, 27.0 55.3, 17.7 62.0 C 12.0 49.7, 73.3 18.2, 83.0 3.6 Z" fill="none" fill-opacity="0.83" stroke="hsl(242, 72%, 49%)" stroke-width="1.29"   />
<path d="M 11.7 79.9 C 0.0 76.3, 0.0 48.5, 11.5 48.0 C 20.4 54.7, 31.1 96.8, 27.7 92.4 C 21.0 89.1, 30.2 48.3, 33.9 34.4 C 45.6 32.5, 46.7 81.4, 47.8 94.9 C 34.7 91.3, 49.8 0.0, 49.8 5.1 " fill="none" fill-opacity="0.67" stroke="hsl(242, 72%, 49%)" stroke-width="1.23"   />
</svg>
