<?xml version="1.0" encoding="UTF-8"?>
<svg xmlns="http://www.w3.org/2000/svg" width="100" height="100" viewBox="0 0 100 100">
<defs>
<linearGradient id="g0" x1="0%" y1="0%" x2="100%" y2="100%">
<stop offset="0.0%" stop-color="hsl(106, 75%, 59%)" />
<stop offset="33.3%" stop-color="hsl(183, 71%, 60%)" />
<stop offset="66.7%" stop-color="hsl(242, 72%, 49%)" />
<stop offset="100.0%" stop-color="hsl(322, 74%, 44%)" />
</linearGradient>
<linearGradient id="g1" x1="0%" y1="0%" x2="100%" y2="100%">
<stop offset="0.0%" stop-color="hsl(290, 83%, 63%)" />
<stop offset="33.3%" stop-color="hsl(2, 82%, 55%)" />
<stop offset="66.7%" stop-color="hsl(86, 72%, 68%)" />
<stop offset="100.0%" stop-color="hsl(83, 65%, 44%)" />
</linearGradient>
<linearGradient id="g2" x1="0%" y1="0%" x2="100%" y2="100%">
<stop offset="0.0%" stop-color="hsl(40, 53%, 69%)" />
<stop offset="33.3%" stop-color="hsl(104, 72%, 65%)" />
<stop offset="66.7%" stop-color="hsl(144, 86%, 72%)" />
<stop offset="100.0%" stop-color="hsl(151, 70%, 62%)" />
</linearGradient>
</defs>

<circle cx="74.6" cy="49.9" r="0.6" fill="hsl(83, 65%, 44%)" fill-opacity="0.77"   />
<path d="M 5.2 23.1 C 0.0 22.3, 13.4 48.6, 19.8 47.1 C 19.1 39.1, 20.1 2.1, 21.3 16.5 C 12.7 24.9, 89.4 0.0, 74.5 1.0 " fill="hsl(86, 72%, 68%)" fill-opacity="0.90" stroke="none" stroke-width="1.02"   />
<rect x="28.3" y="4.0" width="23.1" height="15.6" rx="0" fill="none" fill-opacity="0.48"   transform="translate(34.4 94.6) rotate(144.8) scale(1.38 0.86)" />
<path d="M 92.4 10.2 C 100.0 30.2, 88.3 5.9, 85.5 3.4 C 68.1 0.0, 21.9 74.0, 25.8 68.0 C 12.5 51.9, 21.0 2.9, 7.4 0.3 C 0.0 0.4, 46.3 92.0, 35.2 77.6 Z" fill="hsl(2, 82%, 55%)" fill-opacity="0.30" stroke="none" stroke-width="1.09"  transform="translate(95.6 47.9) rotate(306.1) scale(1.07 1.38)" />
<circle cx="88.1" cy="14.1" r="0.5" fill="hsl(322, 74%, 44%)" fill-opacity="0.68"  transform="translate(57.8 34.3) rotate(104.7) scale(1.61 0.68)" />
<path d="M 39.4 31.6 C 59.0 32.0, 16.5 86.4, 17.1 83.0 C 7.8 68.7, 34.3 50.1, 41.7 41.8 C 55.2 27.9, 89.5 55.9, 92.0 58.9 Z" fill="hsl(242, 72%, 49%)" fill-opacity="0.41" stroke="none" stroke-width="1.03"   />
<circle cx="76.0" cy="53.3" r="1.2" fill="hsl(144, 86%, 72%)" fill-opacity="0.96"  transform="translate(84.6 38.0) rotate(353.5) scale(1.56 1.10)" />
<path d="M 13.8 37.5 C 25.5 39.8, 34.5 38.5, 33.5 52.8 C 19.2 63.5, 100.0 45.7, 99.8 50.6 C 95.8 37.4, 28.2 18.7, 35.2 32.4 C 52.3 50.4, 30.8 43.9, 40.1 55.0 " fill="hsl(151, 70%, 62%)" fill-opacity="0.28" stroke="none" stroke-width="1.14"   />
<path d="M 88.9 8.1 C 94.8 25.7, 55.7 80.4, 64.5 72.5 C 67.0 84.2, 90.5 94.8, 78.9 96.8 C 67.5 96.1, 46.7 9.6, 35.8 4.1 " fill="none" fill-opacity="0.87" stroke="hsl(106, 75%, 59%)" stroke-width="1.23"  transform="translate(43.0 70.0) rotate(141.8) scale(0.50 1.87)" />
<path d="M 50.6 19.3 C 41.9 37.2, 66.1 3.2, 73.0 4.7 C 78.8 21.6, 67.1 49.9, 67.9 54.9 C 57.9 39.3, 86.4 40.9, 88.7 36.9 " fill="hsl(290, 83%, 63%)" fill-opacity="0.55" stroke="none" stroke-width="0.94"   />
<path d="M 81.3 38.8 C 65.5 18.8, 3.9 100.0, 17.0 91.7 C 0.9 80.5, 73.2 88.9, 78.3 88.5 C 64.9 98.4, 39.1 17.3, 46.2 6.7 " fill="hsl(83, 65%, 44%)" fill-opacity="0.94" stroke="none" stroke-width="0.88"  transform="translate(72.1 92.1) rotate(254.4) scale(0.65 0.88)" />
<rect x="54.7" y="14.8" width="38.0" height="37.4" rx="0" fill="none" fill-opacity="0.94" stroke="hsl(242, 72%, 49%)" stroke-width="2.1"   />
<rect x="13.7" y="48.9" width="49.2" height="15.1" rx="18.2" fill="none" fill-opacity="0.57"    />
</svg>
