<?xml version="1.0" encoding="UTF-8"?>
<svg xmlns="http://www.w3.org/2000/svg" width="100" height="100" viewBox="0 0 100 100">
<defs>
<linearGradient id="g0" x1="0%" y1="0%" x2="100%" y2="100%">
<stop offset="0.0%" stop-color="hsl(106, 75%, 59%)" />
<stop offset="33.3%" stop-color="hsl(183, 71%, 60%)" />
<stop offset="66.7%" stop-color="hsl(242, 72%, 49%)" />
<stop offset="100.0%" stop-color="hsl(322, 74%, 44%)" />
</linearGradient>
<linearGradient id="g1" x1="0%" y1="0%" x2="100%" y2="100%">
<stop offset="0.0%" stop-color="hsl(290, 83%, 63%)" />
<stop offset="33.3%" stop-color="hsl(2, 82%, 55%)" />
<stop offset="66.7%" stop-color="hsl(86, 72%, 68%)" />
<stop offset="100.0%" stop-color="hsl(83, 65%, 44%)" />
</linearGradient>
<linearGradient id="g2" x1="0%" y1="0%" x2="100%" y2="100%">
<stop offset="0.0%" stop-color="hsl(40, 53%, 69%)" />
<stop offset="33.3%" stop-color="hsl(104, 72%, 65%)" />
<stop offset="66.7%" stop-color="hsl(144, 86%, 72%)" />
<stop offset="100.0%" stop-color="hsl(151, 70%, 62%)" />
</linearGradient>
</defs>

<circle cx="90.3" cy="66.2" r="0.1" fill="hsl(106, 75%, 59%)" fill-opacity="0.42"   />
<path d="M 67.3 8.6 C 53.5 0.0, 38.6 23.4, 50.3 19.9 C 43.9 19.4, 82.5 37.3, 80.3 31.3 C 86.2 28.6, 59.1 35.7, 60.7 33.3 C 70.8 24.7, 17.5 69.8, 3.5 59.1 " fill="none" fill-opacity="0.73" stroke="hsl(183, 71%, 60%)" stroke-width="1.10"   />
<path d="M 38.0 60.0 C 35.3 59.7, 28.0 25.3, 13.4 39.3 C 23.2 24.6, 0.0 89.7, 9.3 76.0 C 23.7 77.6, 67.4 56.9, 54.7 64.0 C 51.8 45.6, 5.7 39.8, 13.5 34.8 C 31.1 40.8, 65.2 4.1, 69.3 18.4 C 62.1 28.9, 82.0 22.3, 67.6 19.4 C 84.0 18.7, 77.7 80.7, 82.9 91.8 Z" fill="none" fill-opacity="0.74" stroke="hsl(290, 83%, 63%)" stroke-width="0.88"  transform="translate(41.4 69.0) rotate(48.7) scale(1.18 1.87)" />
<path d="M 15.8 55.5 C 19.3 73.8, 100.0 29.7, 91.9 32.9 C 71.9 40.3, 10.5 36.7, 8.6 50.6 C 22.5 33.8, 69.2 42.0, 61.0 30.6 C 58.4 43.7, 100.0 53.8, 94.9 62.3 " fill="hsl(83, 65%, 44%)" fill-opacity="0.32" stroke="none" stroke-width="1.19"  transform="translate(28.6 23.6) rotate(40.4) scale(1.67 0.65)" />
<rect x="48.1" y="39.1" width="20.3" height="22.1" rx="0" fill="none" fill-opacity="1.00"    />
<path d="M 3.8 28.1 C 0.0 26.8, 24.4 45.1, 32.2 47.7 C 28.8 44.5, 34.0 98.3, 21.6 86.6 C 28.2 100.0, 19.9 37.3, 28.4 32.8 C 36.4 44.3, 15.8 100.0, 12.7 92.4 Z" fill="none" fill-opacity="0.57" stroke="hsl(106, 75%, 59%)" stroke-width="1.25"  transform="translate(96.9 30.7) rotate(109.5) scale(0.71 0.76)" />
<circle cx="6.7" cy="12.4" r="0.7" fill="hsl(83, 65%, 44%)" fill-opacity="0.40"  transform="translate(78.5 97.3) rotate(315.7) scale(1.04 0.51)" />
<path d="M 13.8 33.8 C 23.1 34.5, 46.0 19.8, 49.7 9.1 C 54.9 5.7, 11.5 16.1, 22.2 4.8 C 5.1 0.0, 100.0 90.1, 95.7 83.4 C 91.3 100.0, 25.5 19.7, 11.0 24.9 C 11.3 26.6, 53.2 100.0, 65.6 92.2 " fill="none" fill-opacity="0.83" stroke="hsl(40, 53%, 69%)" stroke-width="1.30"  transform="translate(60.2 97.1) rotate(322.7) scale(1.23 1.38)" />
<path d="M 16.0 70.2 C 28.5 79.0, 61.8 100.0, 69.9 93.7 C 67.5 92.3, 81.5 67.8, 94.4 81.6 C 75.9 76.6, 51.1 11.0, 51.1 5.6 C 38.8 0.0, 90.1 16.7, 95.6 30.3 C 89.1 38.7, 42.8 10.1, 32.1 12.5 C 23.1 0.0, 2.2 48.7, 5.7 62.5 C 22.3 42.9, 22.6 51.4, 7.9 44.0 " fill="none" fill-opacity="0.35" stroke="hsl(144, 86%, 72%)" stroke-width="1.28"   />
</svg>
