<?xml version="1.0" encoding="UTF-8"?>
<svg xmlns="http://www.w3.org/2000/svg" width="100" height="100" viewBox="0 0 100 100">
<defs>
<linearGradient id="g0" x1="0%" y1="0%" x2="100%" y2="100%">
<stop offset="0.0%" stop-color="hsl(106, 75%, 59%)" />
<stop offset="33.3%" stop-color="hsl(183, 71%, 60%)" />
<stop offset="66.7%" stop-color="hsl(242, 72%, 49%)" />
<stop offset="100.0%" stop-color="hsl(322, 74%, 44%)" />
</linearGradient>
<linearGradient id="g1" x1="0%" y1="0%" x2="100%" y2="100%">
<stop offset="0.0%" stop-color="hsl(290, 83%, 63%)" />
<stop offset="33.3%" stop-color="hsl(2, 82%, 55%)" />
<stop offset="66.7%" stop-color="hsl(86, 72%, 68%)" />
<stop offset="100.0%" stop-color="hsl(83, 65%, 44%)" />
</linearGradient>
<linearGradient id="g2" x1="0%" y1="0%" x2="100%" y2="100%">
<stop offset="0.0%" stop-color="hsl(40, 53%, 69%)" />
<stop offset="33.3%" stop-color="hsl(104, 72%, 65%)" />
<stop offset="66.7%" stop-color="hsl(144, 86%, 72%)" />
<stop offset="100.0%" stop-color="hsl(151, 70%, 62%)" />
</linearGradient>
<filter id="f1" x="-20%" y="-20%" width="140%" height="140%">
  <feGaussianBlur stdDeviation="1.5212735002486177" />
</filter>

</defs>

<rect x="22.1" y="28.6" width="35.6" height="34.5" rx="0" fill="none" fill-opacity="0.65"    />
<rect x="48.6" y="25.8" width="36.5" height="35.2" rx="0" fill="hsl(144, 86%, 72%)" fill-opacity="1.00"  filter="url(#f1)"  />
<path d="M 99.9 49.8 C 100.0 35.3, 34.4 44.5, 33.0 42.3 C 22.3 24.6, 24.1 39.2, 38.2 30.6 C 30.1 24.8, 65.2 65.6, 61.9 54.0 C 59.7 69.3, 52.5 75.4, 58.0 62.3 C 68.3 76.4, 14.4 5.2, 10.5 17.5 C 0.0 35.3, 84.1 38.4, 84.5 45.2 C 100.0 59.0, 65.3 44.2, 73.5 52.5 Z" fill="hsl(104, 72%, 65%)" fill-opacity="0.35" stroke="none" stroke-width="4.44"  transform="translate(88.8 37.6) rotate(205.7) scale(1.50 0.75)" />
<circle cx="43.8" cy="80.6" r="11.7" fill="hsl(40, 53%, 69%)" fill-opacity="0.48"  transform="translate(14.7 72.5) rotate(303.8) scale(0.79 1.28)" />
<circle cx="94.5" cy="41.7" r="2.9" fill="url(#g0)" fill-opacity="0.89"  transform="translate(38.9 40.7) rotate(326.9) scale(1.98 1.37)" />
<path d="M 58.6 27.2 C 42.8 17.3, 66.1 51.9, 54.4 50.8 C 37.7 52.7, 57.5 45.3, 54.8 55.4 C 66.2 45.1, 35.5 100.0, 38.1 94.0 C 27.6 92.0, 56.8 21.8, 69.1 34.3 C 73.0 37.0, 33.0 81.8, 26.5 70.4 C 36.8 61.3, 99.3 18.2, 94.9 8.3 C 86.2 19.7, 42.6 7.4, 28.2 11.5 C 10.9 27.1, 8.3 71.1, 17.0 69.1 C 27.6 86.1, 89.8 35.8, 85.0 30.7 Z" fill="none" fill-opacity="0.90" stroke="hsl(40, 53%, 69%)" stroke-width="1.56"  transform="translate(1.3 73.6) rotate(335.5) scale(1.69 0.96)" />
<path d="M 36.6 47.1 C 53.5 61.4, 94.3 67.2, 89.2 70.4 C 94.3 57.0, 8.5 24.9, 15.4 16.0 C 27.4 0.0, 46.1 42.5, 54.1 49.2 C 68.7 29.9, 53.3 14.4, 65.2 18.8 C 47.7 36.5, 79.0 93.2, 73.2 85.2 C 69.8 74.9, 57.3 25.5, 54.9 11.2 C 44.5 22.4, 0.0 57.2, 5.3 51.1 C 9.8 40.2, 60.5 80.9, 50.4 77.0 C 60.1 69.7, 50.5 95.7, 65.2 95.9 C 52.0 99.2, 32.5 97.2, 30.9 83.8 Z" fill="none" fill-opacity="0.90" stroke="hsl(322, 74%, 44%)" stroke-width="2.54"  transform="translate(65.1 46.8) rotate(184.3) scale(1.39 1.72)" />
<path d="M 62.1 16.6 C 76.4 8.5, 49.1 100.0, 61.5 95.6 C 52.9 91.5, 33.1 30.7, 34.6 35.5 C 29.7 54.9, 69.5 6.1, 57.4 16.7 C 74.3 29.1, 49.9 0.0, 38.4 6.0 C 34.8 16.9, 91.2 61.7, 78.7 50.0 C 92.8 55.8, 100.0 96.0, 99.1 89.7 C 100.0 97.8, 14.8 7.7, 7.3 10.4 C 0.0 5.0, 55.0 41.1, 51.4 50.1 C 63.2 51.3, 2.1 1.6, 11.6 1.5 C 0.0 0.0, 11.0 36.1, 2.1 41.2 Z" fill="hsl(40, 53%, 69%)" fill-opacity="0.61" stroke="none" stroke-width="2.68"  transform="translate(40.7 26.3) rotate(207.1) scale(0.95 1.25)" />
<path d="M 15.5 98.2 C 20.7 86.7, 96.0 68.0, 81.2 53.6 C 86.7 66.7, 43.7 21.6, 32.9 30.9 C 31.7 50.1, 44.1 45.2, 31.6 39.4 C 43.4 46.7, 100.0 24.3, 93.9 20.8 C 100.0 29.0, 14.6 83.4, 20.4 74.6 C 3.0 56.7, 29.2 72.9, 25.4 82.9 C 12.0 63.8, 22.6 21.9, 17.0 31.8 C 32.4 41.8, 35.2 2.0, 35.9 15.5 C 16.9 16.4, 34.0 1.8, 24.5 14.1 Z" fill="none" fill-opacity="0.76" stroke="hsl(106, 75%, 59%)" stroke-width="3.70"  transform="translate(85.6 81.8) rotate(284.8) scale(1.03 1.11)" />
<path d="M 89.4 81.5 C 82.5 68.1, 88.3 51.6, 85.2 46.2 C 78.2 50.0, 55.2 61.5, 48.2 47.8 C 47.6 60.7, 66.9 0.0, 76.5 0.1 C 74.6 13.1, 41.0 51.9, 46.1 41.0 C 56.5 46.1, 58.7 15.9, 65.5 12.4 C 62.5 16.9, 25.0 96.8, 23.9 86.9 C 28.6 79.5, 82.3 71.3, 92.4 74.2 C 100.0 91.4, 100.0 90.1, 97.4 99.9 Z" fill="none" fill-opacity="0.28" stroke="hsl(144, 86%, 72%)" stroke-width="3.40"  transform="translate(70.0 90.8) rotate(193.9) scale(0.70 1.74)" />
<path d="M 36.4 24.7 C 45.5 33.6, 62.8 62.3, 50.4 60.1 C 70.4 73.2, 58.3 85.2, 69.2 92.5 C 52.4 82.6, 67.3 0.0, 82.0 9.5 C 81.3 24.3, 80.4 71.9, 68.0 82.4 C 61.3 79.2, 42.2 40.9, 31.1 49.6 C 17.4 67.4, 6.7 6.2, 18.6 15.9 C 20.4 0.0, 50.9 42.6, 57.9 46.3 C 41.4 39.0, 24.1 28.9, 11.3 20.7 Z" fill="none" fill-opacity="0.76" stroke="hsl(86, 72%, 68%)" stroke-width="2.99"  transform="translate(7.7 31.9) rotate(356.9) scale(2.00 1.96)" />
<path d="M 95.1 29.7 C 100.0 16.5, 85.2 10.5, 71.5 0.0 C 90.9 0.0, 96.5 0.9, 85.9 2.9 C 78.6 0.0, 12.1 97.9, 21.4 95.2 C 28.0 90.8, 89.0 29.5, 80.2 38.8 C 78.8 53.5, 22.2 0.0, 20.8 0.0 C 15.0 0.0, 68.2 28.8, 61.8 25.1 C 57.0 35.5, 9.4 10.5, 20.2 10.2 C 33.4 3.8, 90.4 80.2, 96.1 77.9 Z" fill="hsl(151, 70%, 62%)" fill-opacity="0.70" stroke="none" stroke-width="3.01" filter="url(#f1)"  />
<path d="M 56.1 55.2 C 63.2 64.1, 87.1 78.9, 80.8 68.1 C 100.0 63.4, 6.9 66.0, 17.0 53.0 C 3.9 34.5, 47.9 52.0, 47.1 46.3 C 29.9 53.8, 7.0 15.1, 2.8 14.9 C 9.2 11.5, 49.4 9.0, 63.9 19.0 C 62.9 6.2, 79.5 96.5, 77.2 97.0 C 66.8 100.0, 6.3 62.9, 5.8 61.8 C 23.7 51.6, 61.8 13.8, 50.9 13.0 Z" fill="none" fill-opacity="0.54" stroke="hsl(151, 70%, 62%)" stroke-width="2.10"  transform="translate(25.0 52.1) rotate(66.6) scale(0.60 1.98)" />
<path d="M 20.1 90.8 C 29.2 72.0, 85.9 58.4, 75.2 70.9 C 83.1 88.6, 64.4 2.1, 51.0 0.0 C 35.6 6.2, 38.0 46.4, 46.4 40.4 C 52.7 30.6, 100.0 79.1, 93.2 92.6 C 97.4 87.7, 4.0 44.6, 17.8 30.0 C 36.4 33.2, 100.0 54.7, 98.6 47.0 C 91.0 38.7, 27.8 24.3, 32.9 31.6 C 22.9 32.1, 3.6 29.1, 10.7 37.4 C 0.0 57.3, 17.7 64.4, 7.3 65.2 C 18.8 76.3, 77.4 70.7, 85.3 82.9 Z" fill="none" fill-opacity="0.70" stroke="hsl(2, 82%, 55%)" stroke-width="3.03"  transform="translate(15.9 21.9) rotate(359.6) scale(1.27 1.79)" />
<rect x="49.9" y="6.1" width="25.9" height="17.5" rx="0" fill="none" fill-opacity="0.27" stroke="hsl(290, 83%, 63%)" stroke-width="1.9"  transform="translate(1.0 64.0) rotate(208.9) scale(0.76 0.62)" />
<path d="M 32.9 87.9 C 18.0 100.0, 61.2 67.0, 71.2 80.3 C 85.5 60.5, 59.6 52.0, 50.9 51.0 C 62.0 69.9, 61.1 19.5, 60.1 31.4 C 73.4 15.5, 0.0 57.8, 6.3 45.2 C 0.0 44.6, 58.5 23.1, 70.3 32.1 C 78.6 21.4, 63.2 50.3, 70.0 46.5 C 66.9 52.1, 100.0 47.7, 95.5 38.9 Z" fill="hsl(151, 70%, 62%)" fill-opacity="0.74" stroke="none" stroke-width="3.46"  transform="translate(91.6 48.1) rotate(146.8) scale(0.59 1.72)" />
<rect x="29.6" y="32.9" width="20.6" height="30.0" rx="0" fill="hsl(40, 53%, 69%)" fill-opacity="0.44"   transform="translate(79.0 93.3) rotate(31.4) scale(1.92 1.55)" />
<path d="M 62.2 72.7 C 47.4 64.5, 11.8 63.7, 19.6 57.7 C 1.6 39.5, 25.0 41.5, 28.0 44.4 C 42.1 44.5, 0.0 20.4, 2.3 24.1 C 0.0 18.5, 36.7 5.9, 43.0 7.9 C 34.2 0.0, 16.3 53.0, 10.3 44.3 C 0.0 47.0, 59.6 84.2, 58.4 76.2 C 51.7 86.1, 55.7 47.2, 45.9 56.3 C 63.7 49.6, 43.5 36.2, 34.2 28.2 C 52.4 18.5, 83.7 29.5, 86.9 21.7 C 100.0 14.3, 33.2 69.2, 24.4 69.1 Z" fill="none" fill-opacity="0.81" stroke="hsl(183, 71%, 60%)" stroke-width="3.71"  transform="translate(30.2 11.8) rotate(316.3) scale(1.16 0.89)" />
<circle cx="3.5" cy="95.8" r="9.0" fill="url(#g2)" fill-opacity="0.49"  transform="translate(70.8 94.5) rotate(48.2) scale(1.34 1.46)" />
<circle cx="23.5" cy="71.4" r="5.0" fill="hsl(183, 71%, 60%)" fill-opacity="0.60"  transform="translate(38.0 36.7) rotate(76.2) scale(0.76 0.96)" />
<path d="M 15.4 5.3 C 16.5 7.6, 85.9 52.5, 81.3 59.3 C 88.2 67.4, 42.2 28.3, 34.2 36.8 C 39.6 55.1, 92.7 68.3, 88.2 57.7 C 73.1 69.1, 46.7 83.7, 32.7 82.5 C 30.5 68.3, 99.8 53.0, 88.2 53.0 C 81.5 38.3, 69.1 66.9, 60.9 64.6 C 74.1 74.7, 25.4 100.0, 39.6 91.8 C 34.2 100.0, 86.3 19.0, 74.9 29.2 C 83.3 35.8, 82.4 93.9, 88.5 93.6 " fill="hsl(2, 82%, 55%)" fill-opacity="0.75" stroke="none" stroke-width="2.30"  transform="translate(75.1 91.7) rotate(242.2) scale(0.93 1.09)" />
<path d="M 38.0 86.5 C 29.5 82.7, 49.2 85.7, 60.7 86.5 C 41.5 70.8, 74.1 70.8, 74.2 70.1 C 89.3 80.9, 78.4 12.1, 72.9 19.1 C 68.8 0.0, 24.1 71.5, 15.9 64.6 C 3.5 49.4, 69.9 97.9, 63.7 94.4 C 68.0 95.7, 41.2 90.1, 40.5 94.5 C 27.6 100.0, 57.4 12.2, 63.7 27.2 Z" fill="hsl(104, 72%, 65%)" fill-opacity="0.39" stroke="none" stroke-width="4.86"  transform="translate(66.6 37.0) rotate(237.5) scale(1.46 1.03)" />
<path d="M 62.0 1.0 C 77.2 18.8, 52.0 16.9, 47.8 15.7 C 42.9 2.1, 17.8 41.2, 5.9 51.2 C 15.2 61.3, 17.2 14.9, 16.6 6.2 C 13.7 13.8, 0.0 14.1, 3.5 22.7 C 22.3 37.7, 13.8 5.7, 18.6 9.3 C 10.8 11.0, 55.9 25.9, 55.0 35.5 C 40.6 40.8, 51.4 96.0, 40.5 86.7 C 31.0 67.2, 61.8 67.2, 56.2 78.3 C 64.9 78.8, 0.0 67.0, 12.8 56.0 C 0.0 66.8, 54.7 16.3, 62.8 25.3 Z" fill="hsl(151, 70%, 62%)" fill-opacity="0.57" stroke="none" stroke-width="0.94"  transform="translate(66.1 88.8) rotate(88.3) scale(0.55 1.19)" />
<rect x="31.5" y="47.0" width="39.1" height="27.2" rx="2.9" fill="hsl(290, 83%, 63%)" fill-opacity="0.67"   transform="translate(60.6 89.4) rotate(73.4) scale(1.54 0.61)" />
<path d="M 14.2 87.5 C 20.3 81.3, 76.4 16.6, 71.5 21.4 C 62.6 21.9, 71.7 49.8, 77.5 62.3 C 69.3 67.0, 4.9 25.1, 6.3 20.4 C 12.2 22.1, 59.9 91.0, 53.9 85.3 C 39.6 98.6, 20.3 13.6, 16.2 6.9 C 18.9 2.5, 6.6 49.4, 2.4 54.1 C 0.6 39.6, 69.2 30.1, 57.4 24.9 C 62.4 42.6, 89.0 66.3, 93.1 75.9 C 77.0 93.3, 38.5 19.9, 33.9 24.3 Z" fill="hsl(106, 75%, 59%)" fill-opacity="0.92" stroke="none" stroke-width="2.63"  transform="translate(28.0 77.7) rotate(203.7) scale(1.14 1.27)" />
<circle cx="85.5" cy="0.2" r="4.2" fill="hsl(106, 75%, 59%)" fill-opacity="0.42"  transform="translate(58.9 25.3) rotate(118.9) scale(1.38 1.43)" />
<circle cx="37.3" cy="8.0" r="4.0" fill="url(#g1)" fill-opacity="0.72"  transform="translate(97.4 18.5) rotate(319.8) scale(0.71 1.45)" />
<rect x="41.1" y="35.7" width="23.8" height="10.2" rx="10.7" fill="hsl(242, 72%, 49%)" fill-opacity="0.47"   transform="translate(9.7 13.1) rotate(132.3) scale(1.59 0.68)" />
<rect x="7.8" y="47.6" width="37.4" height="18.7" rx="11.1" fill="hsl(2, 82%, 55%)" fill-opacity="0.30"   transform="translate(44.8 42.6) rotate(105.8) scale(1.23 1.50)" />
<rect x="18.8" y="19.5" width="30.7" height="11.6" rx="13.5" fill="none" fill-opacity="0.50"  filter="url(#f1)" transform="translate(56.8 30.4) rotate(34.6) scale(1.60 1.71)" />
<path d="M 11.9 23.0 C 21.3 4.7, 32.0 8.6, 38.5 1.1 C 49.6 0.0, 0.0 9.5, 12.2 12.8 C 20.6 14.2, 47.4 11.0, 46.6 25.3 C 66.1 39.6, 58.2 22.4, 48.3 31.0 C 42.4 25.5, 46.6 5.5, 56.1 0.6 C 71.3 0.0, 11.3 69.7, 4.6 77.9 C 0.0 71.6, 100.0 72.5, 87.3 79.7 Z" fill="hsl(144, 86%, 72%)" fill-opacity="0.94" stroke="none" stroke-width="2.59"  transform="translate(71.7 72.2) rotate(350.6) scale(1.00 1.27)" />
<circle cx="91.3" cy="7.1" r="3.8" fill="url(#g2)" fill-opacity="0.59"   />
<rect x="42.5" y="10.2" width="43.6" height="35.6" rx="2.1" fill="none" fill-opacity="0.25" stroke="hsl(86, 72%, 68%)" stroke-width="4.4"  transform="translate(5.3 7.4) rotate(26.7) scale(0.66 0.56)" />
<rect x="12.6" y="69.5" width="40.4" height="21.5" rx="0" fill="hsl(242, 72%, 49%)" fill-opacity="0.63" stroke="hsl(106, 75%, 59%)" stroke-width="3.2"  transform="translate(21.6 41.4) rotate(258.5) scale(1.23 0.80)" />
<path d="M 56.9 60.1 C 74.9 58.7, 30.5 20.4, 29.9 29.2 C 24.0 30.8, 31.9 43.9, 40.9 50.8 C 30.6 63.7, 21.8 83.9, 10.1 96.6 C 27.3 94.6, 69.6 77.7, 66.5 74.6 C 57.9 86.9, 80.9 11.9, 76.6 11.3 C 67.5 15.7, 10.4 20.3, 10.8 30.3 C 18.5 50.2, 13.0 32.1, 17.6 24.9 C 30.6 36.4, 76.7 44.5, 79.2 56.0 Z" fill="hsl(2, 82%, 55%)" fill-opacity="0.81" stroke="none" stroke-width="1.84"  transform="translate(67.2 79.9) rotate(202.7) scale(0.72 0.69)" />
<path d="M 65.9 60.5 C 76.2 52.7, 79.1 35.3, 88.7 21.8 C 96.0 34.6, 92.4 52.1, 79.0 52.2 C 66.9 55.5, 23.2 2.6, 19.6 15.5 C 27.5 32.2, 39.3 6.4, 38.3 18.2 C 45.8 14.2, 91.5 41.3, 81.3 48.2 C 78.6 41.8, 28.2 19.0, 41.2 18.3 Z" fill="none" fill-opacity="0.79" stroke="hsl(86, 72%, 68%)" stroke-width="2.99"  transform="translate(20.4 4.5) rotate(74.2) scale(1.51 1.32)" />
<path d="M 21.4 61.2 C 11.6 75.4, 100.0 0.0, 94.0 4.3 C 100.0 4.7, 68.2 15.5, 62.8 18.6 C 69.8 5.2, 7.9 53.1, 18.2 56.2 C 14.7 72.3, 62.7 4.7, 70.9 7.4 C 82.5 8.1, 57.6 16.3, 52.3 16.6 C 68.6 0.2, 36.9 40.6, 22.8 54.4 C 31.6 46.5, 0.5 74.4, 2.8 77.4 C 0.0 87.7, 10.4 49.0, 4.4 47.0 C 18.2 35.0, 42.0 67.3, 42.8 52.5 Z" fill="hsl(86, 72%, 68%)" fill-opacity="0.37" stroke="none" stroke-width="2.89"  transform="translate(45.3 23.3) rotate(248.5) scale(1.00 0.62)" />
<rect x="7.7" y="28.7" width="36.1" height="37.0" rx="0" fill="none" fill-opacity="0.87"  filter="url(#f1)"  />
<rect x="68.0" y="21.2" width="20.5" height="10.7" rx="0" fill="none" fill-opacity="0.61"   transform="translate(7.6 72.4) rotate(79.5) scale(1.25 0.97)" />
<path d="M 67.1 53.8 C 49.1 43.6, 55.7 86.9, 43.8 94.4 C 50.4 97.6, 43.4 80.2, 44.8 93.8 C 57.4 74.1, 24.5 6.7, 11.6 13.7 C 19.5 3.3, 44.3 46.8, 45.2 57.1 C 35.3 75.5, 78.7 100.0, 82.6 96.0 C 100.0 88.5, 74.5 2.8, 72.8 13.0 C 55.1 29.5, 49.2 15.3, 44.3 14.0 C 53.3 9.5, 36.8 72.8, 41.2 73.8 C 52.5 82.0, 31.4 31.5, 33.3 45.0 Z" fill="none" fill-opacity="0.90" stroke="hsl(106, 75%, 59%)" stroke-width="5.12"  transform="translate(13.8 36.0) rotate(124.9) scale(1.94 0.86)" />
<path d="M 29.5 35.6 C 19.7 25.8, 35.2 17.9, 35.4 13.5 C 24.5 12.4, 26.9 88.6, 26.4 86.1 C 12.5 69.4, 28.6 82.4, 26.2 72.7 C 39.2 90.9, 14.8 63.8, 14.7 70.4 C 15.7 67.7, 18.3 93.4, 20.5 99.3 C 0.6 100.0, 37.0 29.9, 27.4 31.2 Z" fill="hsl(106, 75%, 59%)" fill-opacity="0.65" stroke="none" stroke-width="4.11"  transform="translate(75.6 24.6) rotate(4.3) scale(1.80 1.65)" />
<rect x="2.8" y="38.4" width="28.8" height="34.9" rx="3.9" fill="none" fill-opacity="0.40"   transform="translate(78.4 40.2) rotate(312.3) scale(0.96 0.83)" />
<path d="M 24.4 23.5 C 16.2 29.0, 10.9 50.9, 12.6 50.1 C 1.2 58.5, 91.9 1.0, 96.7 7.0 C 80.5 17.8, 46.8 61.2, 46.8 68.7 C 55.4 50.8, 81.0 18.7, 71.8 17.9 C 73.8 7.3, 53.6 87.2, 49.5 77.9 C 32.7 88.7, 98.6 15.9, 91.6 24.8 C 100.0 13.2, 0.8 35.1, 8.2 49.9 C 26.2 42.5, 39.4 76.4, 48.1 77.8 Z" fill="hsl(322, 74%, 44%)" fill-opacity="0.82" stroke="none" stroke-width="5.18"  transform="translate(33.4 3.0) rotate(335.8) scale(1.80 1.90)" />
<rect x="2.7" y="73.1" width="32.8" height="10.7" rx="2.0" fill="none" fill-opacity="0.78"    />
<rect x="63.0" y="38.1" width="27.4" height="33.2" rx="8.2" fill="hsl(322, 74%, 44%)" fill-opacity="0.25" stroke="hsl(106, 75%, 59%)" stroke-width="1.5"   />
<rect x="27.2" y="21.3" width="28.1" height="37.3" rx="0" fill="hsl(290, 83%, 63%)" fill-opacity="0.45" stroke="hsl(290, 83%, 63%)" stroke-width="4.7"  transform="translate(45.5 83.9) rotate(27.4) scale(1.00 1.59)" />
<rect x="59.5" y="58.8" width="27.1" height="35.6" rx="0" fill="none" fill-opacity="0.20"   transform="translate(93.7 76.8) rotate(23.2) scale(1.69 0.86)" />
<path d="M 35.8 46.7 C 51.6 53.9, 79.6 34.3, 92.7 26.8 C 76.8 28.2, 81.1 16.5, 94.2 1.6 C 100.0 2.5, 62.4 22.2, 63.0 8.1 C 48.2 3.1, 13.5 0.0, 19.5 2.9 C 4.9 0.0, 66.3 44.0, 75.4 46.0 C 91.6 37.1, 42.3 29.1, 44.7 36.7 Z" fill="none" fill-opacity="0.72" stroke="hsl(242, 72%, 49%)" stroke-width="1.32"  transform="translate(21.9 75.3) rotate(28.2) scale(0.84 1.50)" />
<path d="M 32.3 3.5 C 26.6 15.8, 50.7 35.8, 47.7 31.6 C 38.0 44.6, 42.2 67.5, 35.6 62.7 C 23.7 71.9, 83.0 83.8, 72.0 87.8 C 56.6 98.9, 12.7 0.0, 7.9 3.2 C 0.0 5.4, 66.6 71.0, 66.2 64.7 C 73.7 62.5, 76.6 66.0, 80.3 64.4 C 92.8 74.6, 63.5 87.2, 65.1 93.9 C 49.2 100.0, 55.4 100.0, 51.8 93.0 Z" fill="none" fill-opacity="0.62" stroke="hsl(106, 75%, 59%)" stroke-width="4.02"  transform="translate(18.2 36.5) rotate(265.1) scale(1.23 0.90)" />
<rect x="13.9" y="68.9" width="21.5" height="23.4" rx="5.6" fill="hsl(144, 86%, 72%)" fill-opacity="0.46"   transform="translate(69.4 94.1) rotate(148.6) scale(0.95 1.51)" />
<path d="M 37.7 26.2 C 30.1 30.3, 52.7 33.9, 56.6 23.1 C 63.2 15.8, 12.9 25.6, 26.3 39.5 C 9.1 23.1, 40.3 36.2, 32.7 46.2 C 17.6 36.8, 57.0 31.3, 70.8 37.5 C 82.9 23.8, 42.1 24.3, 50.9 15.4 C 45.9 4.5, 4.2 22.8, 1.1 29.8 C 0.0 44.7, 29.3 65.6, 18.0 65.5 Z" fill="none" fill-opacity="0.49" stroke="hsl(106, 75%, 59%)" stroke-width="3.22"  transform="translate(49.0 34.9) rotate(188.0) scale(0.99 1.31)" />
<rect x="63.5" y="13.7" width="24.3" height="19.3" rx="0" fill="hsl(86, 72%, 68%)" fill-opacity="0.94"   transform="translate(91.4 82.8) rotate(99.9) scale(1.37 1.24)" />
<path d="M 93.1 21.4 C 73.9 24.7, 74.9 77.8, 65.0 75.8 C 75.8 74.2, 51.8 65.5, 63.2 76.5 C 47.5 79.4, 18.3 25.3, 32.7 16.9 C 33.2 30.0, 65.3 74.2, 80.3 84.1 C 70.5 92.8, 90.4 12.5, 77.3 17.3 C 80.6 0.0, 4.4 55.7, 16.3 56.0 C 35.7 65.5, 46.5 52.3, 57.2 63.0 C 46.6 43.8, 78.4 10.2, 82.7 15.8 C 99.2 12.0, 61.6 81.4, 74.0 90.0 Z" fill="hsl(106, 75%, 59%)" fill-opacity="0.81" stroke="none" stroke-width="1.51"   />
<circle cx="66.0" cy="41.7" r="3.8" fill="hsl(322, 74%, 44%)" fill-opacity="0.80"  transform="translate(38.9 30.0) rotate(66.9) scale(1.23 1.80)" />
<rect x="10.2" y="34.5" width="43.5" height="21.2" rx="2.7" fill="hsl(322, 74%, 44%)" fill-opacity="0.21"   transform="translate(76.1 72.6) rotate(66.6) scale(1.08 0.70)" />
<path d="M 7.7 41.9 C 19.5 24.3, 27.4 7.3, 15.9 3.9 C 0.0 0.0, 31.4 42.2, 27.6 44.5 C 21.6 59.0, 83.7 22.8, 78.1 25.5 C 66.0 22.2, 52.6 79.5, 50.6 68.5 C 56.1 49.0, 41.4 75.0, 39.9 84.9 C 32.7 96.5, 27.1 37.0, 14.7 28.1 C 26.7 8.9, 70.6 89.6, 57.6 89.5 C 56.9 88.8, 94.0 100.0, 80.3 98.1 C 84.4 84.4, 75.9 3.5, 74.0 15.3 Z" fill="hsl(104, 72%, 65%)" fill-opacity="0.91" stroke="none" stroke-width="3.56" filter="url(#f1)" transform="translate(37.8 36.1) rotate(177.1) scale(1.29 1.75)" />
<circle cx="88.5" cy="31.8" r="5.0" fill="url(#g0)" fill-opacity="0.84"  transform="translate(1.3 37.9) rotate(176.0) scale(0.73 0.93)" />
<path d="M 96.4 31.6 C 87.4 14.5, 46.8 62.9, 53.6 70.8 C 53.5 83.6, 60.1 53.0, 66.0 44.5 C 76.8 47.5, 31.2 100.0, 20.6 93.8 C 12.1 88.4, 57.6 100.0, 72.3 89.4 C 70.2 69.8, 51.5 18.0, 52.9 30.6 C 37.1 16.4, 51.9 21.2, 62.1 13.3 C 54.3 9.8, 37.3 35.8, 48.8 23.7 C 29.8 31.8, 37.7 75.2, 52.0 63.8 C 44.2 75.3, 75.6 79.2, 82.8 65.5 Z" fill="hsl(290, 83%, 63%)" fill-opacity="0.49" stroke="none" stroke-width="3.81"  transform="translate(71.0 19.1) rotate(138.8) scale(0.82 1.91)" />
<path d="M 58.1 55.5 C 40.6 74.9, 48.9 48.6, 40.3 55.3 C 39.2 57.6, 13.5 36.3, 4.1 21.6 C 10.0 8.8, 76.3 40.7, 83.2 40.0 C 70.8 28.5, 76.2 55.7, 84.0 66.4 C 66.2 78.3, 66.0 36.9, 76.8 23.8 C 96.0 3.9, 40.7 71.8, 46.2 70.3 Z" fill="none" fill-opacity="0.56" stroke="hsl(86, 72%, 68%)" stroke-width="4.75"  transform="translate(32.7 75.0) rotate(102.6) scale(0.60 0.78)" />
<circle cx="88.9" cy="29.7" r="18.0" fill="url(#g0)" fill-opacity="0.87" filter="url(#f1)" transform="translate(78.6 31.8) rotate(82.1) scale(1.99 1.64)" />
<rect x="25.5" y="1.8" width="35.7" height="22.1" rx="0" fill="none" fill-opacity="0.40"  filter="url(#f1)" transform="translate(89.7 88.0) rotate(111.0) scale(1.41 1.89)" />
<path d="M 26.2 43.9 C 23.9 25.9, 70.7 67.3, 60.2 69.8 C 50.3 86.5, 100.0 23.8, 94.3 10.4 C 74.7 0.0, 36.2 42.0, 46.5 39.0 C 64.6 38.2, 7.7 89.3, 22.0 91.5 C 22.8 94.3, 88.7 76.0, 98.2 64.9 C 83.9 50.7, 66.8 0.0, 76.0 2.1 C 85.2 6.6, 80.3 60.6, 78.4 68.4 C 93.2 85.7, 80.3 1.5, 88.4 5.3 C 93.3 5.4, 100.0 74.2, 85.9 73.1 " fill="none" fill-opacity="0.53" stroke="hsl(2, 82%, 55%)" stroke-width="1.74"  transform="translate(85.3 6.2) rotate(173.3) scale(1.10 0.67)" />
<circle cx="74.9" cy="7.4" r="13.2" fill="url(#g1)" fill-opacity="0.58"  transform="translate(86.3 55.9) rotate(320.2) scale(0.98 1.44)" />
<rect x="46.0" y="30.7" width="43.9" height="31.0" rx="0" fill="none" fill-opacity="0.63"   transform="translate(75.8 41.0) rotate(276.5) scale(0.66 0.65)" />
<path d="M 91.3 31.0 C 96.9 50.3, 25.3 7.8, 31.8 3.4 C 45.7 0.6, 73.1 64.2, 72.6 66.7 C 72.2 76.1, 29.0 81.7, 32.8 93.7 C 23.8 79.5, 15.4 32.2, 30.0 27.2 C 29.9 26.3, 59.1 32.9, 57.4 43.5 C 45.9 30.5, 23.0 21.6, 27.7 20.9 C 13.4 24.4, 85.3 12.6, 77.4 26.3 Z" fill="hsl(83, 65%, 44%)" fill-opacity="0.85" stroke="none" stroke-width="4.11"   />
<rect x="39.4" y="46.7" width="45.9" height="28.5" rx="1.7" fill="none" fill-opacity="0.77"  filter="url(#f1)" transform="translate(10.1 60.9) rotate(143.3) scale(1.31 1.35)" />
<rect x="27.5" y="19.4" width="20.3" height="28.6" rx="14.1" fill="hsl(83, 65%, 44%)" fill-opacity="0.95"   transform="translate(75.8 92.3) rotate(184.8) scale(0.66 1.20)" />
<circle cx="62.6" cy="60.1" r="11.3" fill="url(#g1)" fill-opacity="0.85"  transform="translate(67.4 85.0) rotate(292.9) scale(1.36 0.72)" />
<rect x="11.1" y="24.0" width="48.4" height="28.7" rx="0" fill="none" fill-opacity="0.57"    />
<circle cx="45.7" cy="53.6" r="3.2" fill="hsl(322, 74%, 44%)" fill-opacity="0.92"  transform="translate(83.2 38.4) rotate(155.2) scale(0.70 1.48)" />
<path d="M 70.5 94.0 C 63.7 83.3, 30.9 11.3, 20.6 21.3 C 25.9 16.8, 72.9 100.0, 74.9 95.8 C 56.7 95.2, 86.1 56.0, 81.0 43.0 C 72.4 39.4, 86.8 74.2, 82.4 87.6 C 76.1 81.7, 66.7 61.7, 75.0 48.0 C 85.0 59.5, 1.8 100.0, 5.7 97.6 C 13.3 100.0, 85.0 28.3, 93.3 15.0 C 100.0 24.8, 34.8 21.1, 35.6 32.8 " fill="hsl(290, 83%, 63%)" fill-opacity="0.88" stroke="none" stroke-width="4.76"  transform="translate(85.6 40.9) rotate(128.9) scale(0.84 1.79)" />
<path d="M 84.0 34.0 C 100.0 36.8, 74.4 34.6, 86.8 33.4 C 91.1 23.7, 92.6 67.4, 89.1 77.2 C 90.8 73.7, 77.3 36.0, 76.5 22.5 C 76.0 12.6, 47.5 30.6, 36.9 32.1 C 29.7 21.4, 36.0 9.8, 24.0 12.6 C 33.4 20.7, 36.5 25.9, 43.2 26.7 C 62.0 26.5, 87.7 32.8, 87.7 22.6 C 83.0 21.1, 19.3 5.6, 13.2 8.8 Z" fill="hsl(86, 72%, 68%)" fill-opacity="0.42" stroke="none" stroke-width="5.07"  transform="translate(53.2 51.7) rotate(340.0) scale(1.57 1.61)" />
<rect x="45.9" y="18.7" width="37.4" height="39.9" rx="16.7" fill="hsl(322, 74%, 44%)" fill-opacity="0.52" stroke="hsl(242, 72%, 49%)" stroke-width="2.6"  transform="translate(58.7 68.3) rotate(352.3) scale(1.00 1.75)" />
<circle cx="49.8" cy="81.6" r="14.7" fill="url(#g2)" fill-opacity="0.64"  transform="translate(61.7 15.0) rotate(64.4) scale(0.89 1.86)" />
<circle cx="1.6" cy="28.0" r="0.0" fill="hsl(106, 75%, 59%)" fill-opacity="0.78"   />
<path d="M 19.9 19.0 C 19.9 26.7, 15.3 84.3, 6.1 69.5 C 13.9 76.1, 96.5 99.1, 95.4 99.8 C 79.8 92.8, 66.8 87.7, 67.1 90.7 C 50.9 93.1, 99.9 52.5, 96.4 57.3 C 83.5 48.8, 46.4 79.5, 35.8 92.6 C 25.0 80.2, 52.0 68.2, 45.0 61.8 " fill="hsl(290, 83%, 63%)" fill-opacity="0.60" stroke="none" stroke-width="2.93"  transform="translate(81.3 43.0) rotate(232.6) scale(1.76 1.20)" />
<path d="M 52.8 89.3 C 46.3 93.1, 86.9 51.5, 87.6 60.3 C 84.3 49.8, 53.3 81.5, 45.3 87.4 C 37.1 76.2, 17.8 41.1, 21.8 55.1 C 27.6 75.0, 7.8 21.6, 5.0 19.0 C 7.5 25.8, 61.0 48.5, 52.3 57.9 C 62.1 76.3, 35.4 69.6, 27.2 62.9 C 43.3 55.1, 61.8 52.7, 58.6 39.4 Z" fill="none" fill-opacity="0.89" stroke="hsl(40, 53%, 69%)" stroke-width="4.88"  transform="translate(2.7 13.7) rotate(326.9) scale(1.25 1.08)" />
<path d="M 67.9 6.0 C 62.0 5.2, 82.1 50.5, 81.3 53.3 C 75.0 70.8, 80.8 60.9, 79.0 75.1 C 68.7 78.3, 79.7 74.7, 82.8 78.6 C 91.8 75.6, 19.9 23.9, 21.7 13.6 C 27.6 26.6, 93.4 42.7, 81.1 46.8 C 66.6 64.0, 94.8 97.1, 86.2 99.3 C 100.0 92.6, 48.7 88.5, 49.0 84.2 C 34.7 100.0, 56.6 97.0, 57.0 85.0 Z" fill="hsl(40, 53%, 69%)" fill-opacity="0.58" stroke="none" stroke-width="1.31"  transform="translate(92.3 31.8) rotate(310.2) scale(1.63 1.00)" />
<rect x="0.3" y="21.7" width="36.6" height="22.3" rx="2.3" fill="hsl(2, 82%, 55%)" fill-opacity="0.26" stroke="hsl(2, 82%, 55%)" stroke-width="1.7"  transform="translate(73.0 99.4) rotate(148.6) scale(1.87 0.65)" />
<path d="M 68.9 22.4 C 70.2 9.4, 81.3 25.5, 95.2 15.0 C 88.1 31.9, 52.6 85.2, 62.2 79.0 C 46.6 81.8, 97.5 53.8, 82.9 68.4 C 94.3 53.2, 32.6 6.8, 46.9 15.0 C 63.4 17.0, 21.5 49.4, 9.1 61.1 C 0.0 58.9, 55.4 48.6, 51.8 46.1 Z" fill="none" fill-opacity="0.45" stroke="hsl(106, 75%, 59%)" stroke-width="0.87"  transform="translate(25.0 92.6) rotate(115.8) scale(1.04 1.40)" />
<rect x="17.2" y="65.5" width="29.9" height="28.1" rx="2.4" fill="hsl(151, 70%, 62%)" fill-opacity="0.99"  filter="url(#f1)" transform="translate(9.6 43.6) rotate(56.7) scale(0.92 1.90)" />
<path d="M 5.0 43.3 C 13.7 53.6, 41.7 19.6, 47.3 7.7 C 37.2 0.0, 98.6 69.9, 99.5 68.4 C 100.0 87.9, 85.4 12.6, 91.2 8.5 C 97.5 23.1, 63.9 64.7, 61.5 70.9 C 65.9 79.4, 69.1 25.2, 57.5 19.8 C 37.8 39.8, 53.8 21.3, 57.4 35.2 C 45.5 41.5, 11.5 30.4, 22.1 19.2 C 14.4 12.2, 60.2 85.0, 71.3 77.1 C 53.4 87.0, 34.5 91.7, 48.5 99.4 C 68.5 91.0, 33.9 29.8, 30.7 20.0 Z" fill="none" fill-opacity="0.35" stroke="hsl(106, 75%, 59%)" stroke-width="1.94"  transform="translate(47.5 1.5) rotate(203.8) scale(0.59 2.00)" />
<path d="M 78.9 68.7 C 75.9 52.7, 96.0 56.9, 87.7 55.8 C 90.9 59.0, 16.6 49.8, 13.9 46.7 C 12.3 47.3, 67.1 92.2, 75.4 89.8 C 63.9 77.9, 57.0 75.8, 49.7 85.8 C 43.8 100.0, 0.0 39.4, 9.3 36.1 C 0.0 44.7, 72.6 36.6, 84.1 31.9 C 73.4 17.4, 72.1 100.0, 80.6 87.1 Z" fill="hsl(106, 75%, 59%)" fill-opacity="0.37" stroke="none" stroke-width="4.79"  transform="translate(76.2 77.2) rotate(358.8) scale(0.73 1.91)" />
<rect x="17.4" y="73.3" width="35.0" height="24.1" rx="7.8" fill="hsl(40, 53%, 69%)" fill-opacity="0.20"  filter="url(#f1)" transform="translate(67.8 42.0) rotate(332.4) scale(1.68 1.11)" />
<g opacity="0.061">
<rect x="0" y="0" width="1" height="100" fill="black" />
<rect x="22" y="0" width="1" height="100" fill="black" />
<rect x="44" y="0" width="1" height="100" fill="black" />
<rect x="66" y="0" width="1" height="100" fill="black" />
<rect x="88" y="0" width="1" height="100" fill="black" />
<rect x="0" y="0" width="100" height="1" fill="black" />
<rect x="0" y="22" width="100" height="1" fill="black" />
<rect x="0" y="44" width="100" height="1" fill="black" />
<rect x="0" y="66" width="100" height="1" fill="black" />
<rect x="0" y="88" width="100" height="1" fill="black" />
</g>

</svg>
