<?xml version="1.0" encoding="UTF-8"?>
<svg xmlns="http://www.w3.org/2000/svg" width="100" height="100" viewBox="0 0 100 100">
<defs>
<linearGradient id="g0" x1="0%" y1="0%" x2="100%" y2="100%">
<stop offset="0.0%" stop-color="hsl(106, 75%, 59%)" />
<stop offset="33.3%" stop-color="hsl(183, 71%, 60%)" />
<stop offset="66.7%" stop-color="hsl(242, 72%, 49%)" />
<stop offset="100.0%" stop-color="hsl(322, 74%, 44%)" />
</linearGradient>
<linearGradient id="g1" x1="0%" y1="0%" x2="100%" y2="100%">
<stop offset="0.0%" stop-color="hsl(290, 83%, 63%)" />
<stop offset="33.3%" stop-color="hsl(2, 82%, 55%)" />
<stop offset="66.7%" stop-color="hsl(86, 72%, 68%)" />
<stop offset="100.0%" stop-color="hsl(83, 65%, 44%)" />
</linearGradient>
<linearGradient id="g2" x1="0%" y1="0%" x2="100%" y2="100%">
<stop offset="0.0%" stop-color="hsl(40, 53%, 69%)" />
<stop offset="33.3%" stop-color="hsl(104, 72%, 65%)" />
<stop offset="66.7%" stop-color="hsl(144, 86%, 72%)" />
<stop offset="100.0%" stop-color="hsl(151, 70%, 62%)" />
</linearGradient>
</defs>

<path d="M 36.4 85.1 C 22.5 100.0, 57.2 69.6, 64.2 76.7 C 52.7 65.1, 33.0 69.5, 35.7 62.6 C 29.6 66.0, 79.0 95.5, 91.7 86.5 C 98.5 98.1, 100.0 7.7, 93.2 8.7 C 78.6 26.9, 54.0 83.3, 47.8 77.1 " fill="hsl(40, 53%, 69%)" fill-opacity="0.69" stroke="none" stroke-width="1.19"   />
<rect x="21.6" y="52.9" width="29.2" height="18.5" rx="9.9" fill="none" fill-opacity="0.30"   transform="translate(83.6 72.0) rotate(41.7) scale(1.82 1.76)" />
<circle cx="49.5" cy="81.5" r="0.1" fill="hsl(104, 72%, 65%)" fill-opacity="0.76"   />
<path d="M 77.7 94.9 C 88.8 100.0, 9.9 25.0, 13.7 17.9 C 30.3 14.0, 89.9 0.0, 77.8 3.8 C 84.8 0.0, 99.4 79.5, 84.8 91.5 C 73.3 77.5, 52.3 69.0, 65.0 58.8 C 70.9 55.7, 45.0 37.7, 36.2 50.7 " fill="none" fill-opacity="0.34" stroke="hsl(290, 83%, 63%)" stroke-width="1.17"   />
<path d="M 34.2 93.4 C 35.9 75.5, 81.5 0.0, 96.3 3.0 C 77.8 16.9, 100.0 0.0, 88.5 3.6 C 87.7 16.7, 73.4 45.7, 70.0 30.9 C 87.8 27.9, 59.9 55.0, 72.6 53.7 C 78.7 63.7, 87.5 38.1, 92.3 52.0 C 100.0 40.8, 62.2 31.9, 70.4 25.9 " fill="hsl(104, 72%, 65%)" fill-opacity="0.47" stroke="none" stroke-width="0.91"   />
<circle cx="65.3" cy="76.2" r="0.7" fill="hsl(106, 75%, 59%)" fill-opacity="0.79"   />
<path d="M 43.7 48.6 C 28.8 44.7, 83.4 33.1, 79.1 47.5 C 92.9 62.9, 89.0 13.1, 79.8 24.8 C 80.8 25.3, 93.9 94.1, 88.5 88.7 C 100.0 100.0, 37.5 68.4, 39.4 76.3 Z" fill="hsl(83, 65%, 44%)" fill-opacity="0.75" stroke="none" stroke-width="0.84"  transform="translate(23.2 30.9) rotate(340.9) scale(1.24 0.80)" />
<rect x="32.5" y="26.5" width="39.9" height="27.0" rx="0" fill="none" fill-opacity="0.50"    />
<rect x="75.4" y="13.8" width="22.2" height="26.2" rx="0" fill="hsl(183, 71%, 60%)" fill-opacity="0.37"    />
<path d="M 35.3 14.0 C 42.6 3.0, 74.9 60.6, 86.5 58.9 C 69.2 70.0, 80.8 27.4, 83.8 17.1 C 72.5 0.5, 90.2 37.5, 92.1 40.7 C 100.0 34.8, 11.0 85.0, 3.2 88.9 C 3.3 88.7, 62.0 91.6, 61.1 99.0 C 51.7 84.2, 91.6 59.8, 77.2 62.4 C 76.3 79.9, 32.1 51.2, 20.4 61.3 " fill="none" fill-opacity="0.66" stroke="hsl(83, 65%, 44%)" stroke-width="0.82"   />
<rect x="25.9" y="1.6" width="49.9" height="14.2" rx="0.2" fill="none" fill-opacity="0.57"   transform="translate(10.5 84.4) rotate(311.1) scale(0.64 1.53)" />
<rect x="43.0" y="37.8" width="48.6" height="25.3" rx="1.4" fill="none" fill-opacity="0.82"   transform="translate(83.6 61.7) rotate(74.0) scale(1.86 0.54)" />
</svg>
