<?xml version="1.0" encoding="UTF-8"?>
<svg xmlns="http://www.w3.org/2000/svg" width="100" height="100" viewBox="0 0 100 100">
<defs>
<linearGradient id="g0" x1="0%" y1="0%" x2="100%" y2="100%">
<stop offset="0.0%" stop-color="hsl(106, 75%, 59%)" />
<stop offset="33.3%" stop-color="hsl(183, 71%, 60%)" />
<stop offset="66.7%" stop-color="hsl(242, 72%, 49%)" />
<stop offset="100.0%" stop-color="hsl(322, 74%, 44%)" />
</linearGradient>
<linearGradient id="g1" x1="0%" y1="0%" x2="100%" y2="100%">
<stop offset="0.0%" stop-color="hsl(290, 83%, 63%)" />
<stop offset="33.3%" stop-color="hsl(2, 82%, 55%)" />
<stop offset="66.7%" stop-color="hsl(86, 72%, 68%)" />
<stop offset="100.0%" stop-color="hsl(83, 65%, 44%)" />
</linearGradient>
<linearGradient id="g2" x1="0%" y1="0%" x2="100%" y2="100%">
<stop offset="0.0%" stop-color="hsl(40, 53%, 69%)" />
<stop offset="33.3%" stop-color="hsl(104, 72%, 65%)" />
<stop offset="66.7%" stop-color="hsl(144, 86%, 72%)" />
<stop offset="100.0%" stop-color="hsl(151, 70%, 62%)" />
</linearGradient>
</defs>

<rect x="7.6" y="32.0" width="29.6" height="30.9" rx="14.4" fill="none" fill-opacity="0.62"    />
<path d="M 64.3 74.3 C 56.7 92.5, 65.0 36.7, 71.0 23.8 C 54.4 14.8, 6.8 18.8, 8.7 10.5 C 27.4 0.6, 56.0 0.7, 65.0 4.0 " fill="none" fill-opacity="0.65" stroke="hsl(144, 86%, 72%)" stroke-width="1.25"  transform="translate(58.4 89.4) rotate(212.3) scale(1.67 0.95)" />
<path d="M 64.4 24.5 C 70.3 16.1, 70.2 26.6, 84.9 34.6 C 97.9 25.0, 10.0 60.7, 9.9 65.4 C 11.3 55.3, 69.3 12.1, 79.5 23.5 C 86.3 26.1, 26.0 70.4, 33.7 58.3 C 39.3 75.2, 52.0 23.0, 42.3 31.7 C 48.7 50.5, 19.5 66.8, 25.3 72.0 C 31.1 91.9, 100.0 68.8, 99.7 74.8 " fill="hsl(83, 65%, 44%)" fill-opacity="0.70" stroke="none" stroke-width="1.03"   />
<rect x="56.1" y="76.4" width="32.0" height="12.0" rx="1.4" fill="none" fill-opacity="0.23"   transform="translate(2.4 75.7) rotate(111.0) scale(1.83 1.15)" />
<circle cx="18.5" cy="31.3" r="0.3" fill="hsl(242, 72%, 49%)" fill-opacity="0.64"  transform="translate(29.0 68.6) rotate(299.8) scale(1.06 0.90)" />
<circle cx="60.2" cy="26.1" r="1.1" fill="hsl(83, 65%, 44%)" fill-opacity="0.54"  transform="translate(29.3 57.7) rotate(135.5) scale(1.10 0.68)" />
<path d="M 20.5 68.6 C 31.6 69.7, 26.9 51.2, 26.9 56.3 C 22.7 59.3, 33.1 71.8, 29.5 74.3 C 13.6 79.0, 43.5 64.5, 33.2 56.0 C 52.9 66.2, 66.6 95.9, 67.6 94.3 C 86.5 76.0, 44.8 87.5, 31.6 76.3 " fill="hsl(83, 65%, 44%)" fill-opacity="0.76" stroke="none" stroke-width="1.20"  transform="translate(21.5 53.3) rotate(253.1) scale(0.91 0.79)" />
<path d="M 91.8 86.9 C 100.0 100.0, 46.5 16.1, 52.3 18.6 C 51.5 10.2, 53.0 15.6, 67.5 2.2 C 54.8 4.9, 64.1 6.2, 63.0 19.2 C 78.2 14.4, 34.2 7.1, 28.0 21.6 C 27.8 36.9, 56.6 8.5, 45.7 6.4 C 37.5 6.3, 8.6 88.9, 4.6 93.4 C 18.8 99.0, 24.9 61.2, 12.6 73.9 Z" fill="none" fill-opacity="0.43" stroke="hsl(86, 72%, 68%)" stroke-width="1.20"  transform="translate(53.4 32.1) rotate(16.0) scale(0.60 0.94)" />
<rect x="11.2" y="36.6" width="48.9" height="38.2" rx="0" fill="none" fill-opacity="0.29"   transform="translate(4.3 41.3) rotate(236.3) scale(1.97 0.53)" />
<path d="M 68.0 12.6 C 70.2 0.0, 25.7 90.6, 33.2 79.4 C 45.0 89.4, 35.1 66.6, 31.6 63.7 C 34.9 81.7, 47.3 13.8, 37.4 28.8 C 23.8 33.5, 3.9 16.8, 15.7 4.2 Z" fill="hsl(183, 71%, 60%)" fill-opacity="0.28" stroke="none" stroke-width="0.86"   />
<path d="M 1.9 91.8 C 0.0 86.7, 59.8 89.4, 66.4 99.4 C 83.6 99.1, 65.1 37.9, 57.7 48.7 C 75.4 59.5, 29.1 40.3, 17.7 30.5 " fill="hsl(2, 82%, 55%)" fill-opacity="0.49" stroke="none" stroke-width="0.96"  transform="translate(56.2 73.4) rotate(113.0) scale(1.67 0.62)" />
<circle cx="98.3" cy="79.8" r="1.0" fill="hsl(183, 71%, 60%)" fill-opacity="0.92"   />
<path d="M 68.3 20.8 C 64.2 13.9, 66.1 61.9, 79.1 72.1 C 70.4 82.9, 72.6 41.1, 70.8 54.0 C 56.1 35.3, 37.9 42.1, 28.7 30.2 C 48.1 21.4, 80.9 57.9, 91.3 64.4 " fill="hsl(183, 71%, 60%)" fill-opacity="0.30" stroke="none" stroke-width="0.93"   />
</svg>
