<?xml version="1.0" encoding="UTF-8"?>
<svg xmlns="http://www.w3.org/2000/svg" width="100" height="100" viewBox="0 0 100 100">
<defs>
<linearGradient id="g0" x1="0%" y1="0%" x2="100%" y2="100%">
<stop offset="0.0%" stop-color="hsl(106, 75%, 59%)" />
<stop offset="33.3%" stop-color="hsl(183, 71%, 60%)" />
<stop offset="66.7%" stop-color="hsl(242, 72%, 49%)" />
<stop offset="100.0%" stop-color="hsl(322, 74%, 44%)" />
</linearGradient>
<linearGradient id="g1" x1="0%" y1="0%" x2="100%" y2="100%">
<stop offset="0.0%" stop-color="hsl(290, 83%, 63%)" />
<stop offset="33.3%" stop-color="hsl(2, 82%, 55%)" />
<stop offset="66.7%" stop-color="hsl(86, 72%, 68%)" />
<stop offset="100.0%" stop-color="hsl(83, 65%, 44%)" />
</linearGradient>
<linearGradient id="g2" x1="0%" y1="0%" x2="100%" y2="100%">
<stop offset="0.0%" stop-color="hsl(40, 53%, 69%)" />
<stop offset="33.3%" stop-color="hsl(104, 72%, 65%)" />
<stop offset="66.7%" stop-color="hsl(144, 86%, 72%)" />
<stop offset="100.0%" stop-color="hsl(151, 70%, 62%)" />
</linearGradient>
</defs>

<rect x="23.2" y="81.0" width="24.8" height="10.1" rx="13.6" fill="none" fill-opacity="0.90"    />
<path d="M 3.6 23.9 C 16.1 14.9, 0.0 0.0, 2.1 4.8 C 0.0 19.4, 94.6 52.6, 81.6 56.1 C 91.5 37.3, 85.4 23.5, 77.5 24.0 C 69.2 17.6, 23.2 52.3, 12.8 55.1 " fill="none" fill-opacity="0.45" stroke="hsl(2, 82%, 55%)" stroke-width="1.29"  transform="translate(28.3 34.9) rotate(60.8) scale(1.80 1.60)" />
<rect x="59.1" y="18.7" width="40.5" height="14.3" rx="10.9" fill="none" fill-opacity="0.89"   transform="translate(27.1 5.4) rotate(184.3) scale(1.43 1.70)" />
<path d="M 67.9 69.5 C 67.1 68.3, 42.1 49.1, 38.5 60.1 C 34.9 64.5, 54.4 75.9, 57.6 62.8 C 74.1 82.4, 39.7 63.5, 54.6 54.0 C 41.6 51.6, 83.3 30.8, 79.7 25.8 Z" fill="none" fill-opacity="0.65" stroke="hsl(86, 72%, 68%)" stroke-width="1.12"  transform="translate(50.3 91.6) rotate(94.3) scale(1.61 1.95)" />
<path d="M 27.0 28.3 C 21.6 39.8, 81.9 11.1, 74.7 25.6 C 62.3 32.3, 31.6 97.9, 18.3 87.2 C 0.0 85.1, 30.7 44.7, 27.0 47.2 C 20.0 65.8, 65.5 35.8, 65.8 33.1 Z" fill="none" fill-opacity="0.67" stroke="hsl(242, 72%, 49%)" stroke-width="0.84"  transform="translate(78.2 32.1) rotate(50.4) scale(1.73 1.16)" />
<path d="M 10.5 92.0 C 25.7 100.0, 8.2 11.9, 13.8 1.7 C 19.2 0.4, 53.6 30.9, 55.2 27.4 C 59.0 15.1, 65.6 16.4, 69.3 14.4 Z" fill="hsl(144, 86%, 72%)" fill-opacity="0.80" stroke="none" stroke-width="0.87"  transform="translate(75.4 22.7) rotate(313.7) scale(1.10 0.98)" />
<path d="M 79.7 67.6 C 74.4 66.1, 8.3 9.6, 21.9 1.2 C 8.0 6.1, 6.3 87.0, 4.1 96.5 C 0.0 100.0, 66.2 82.7, 66.7 95.5 C 84.2 90.0, 64.5 48.3, 71.8 58.4 C 68.6 65.0, 21.7 86.5, 23.7 71.8 C 29.8 81.7, 27.1 76.8, 13.5 88.1 Z" fill="none" fill-opacity="0.98" stroke="hsl(144, 86%, 72%)" stroke-width="1.20"  transform="translate(14.0 40.6) rotate(55.2) scale(1.31 1.28)" />
<circle cx="69.6" cy="41.0" r="0.4" fill="hsl(290, 83%, 63%)" fill-opacity="0.53"   />
<path d="M 59.9 58.4 C 66.6 69.5, 18.8 22.7, 14.5 12.3 C 13.4 19.9, 12.4 67.0, 26.0 66.4 C 39.9 62.6, 0.0 21.0, 1.0 35.1 C 6.0 19.8, 47.8 89.4, 51.0 75.6 C 68.7 60.7, 94.7 85.6, 89.9 72.8 C 100.0 84.7, 23.8 0.0, 15.4 1.5 " fill="none" fill-opacity="0.75" stroke="hsl(322, 74%, 44%)" stroke-width="1.25"  transform="translate(34.8 54.8) rotate(245.4) scale(0.92 1.26)" />
<rect x="58.6" y="35.6" width="33.0" height="26.6" rx="6.2" fill="none" fill-opacity="0.51"    />
<path d="M 78.0 69.4 C 92.6 58.9, 95.7 11.1, 94.1 9.8 C 81.3 15.5, 2.5 51.7, 6.2 41.8 C 0.0 52.9, 86.1 85.2, 77.5 95.7 C 93.5 100.0, 86.9 98.7, 82.9 92.1 C 72.0 77.0, 37.0 88.1, 49.3 97.7 C 55.6 100.0, 30.0 86.4, 19.4 95.0 C 36.8 100.0, 69.8 86.0, 55.6 96.6 " fill="none" fill-opacity="0.47" stroke="hsl(83, 65%, 44%)" stroke-width="0.97"  transform="translate(15.8 66.8) rotate(228.7) scale(1.30 1.39)" />
<path d="M 31.4 96.6 C 47.6 81.3, 94.7 40.7, 95.1 32.7 C 92.9 13.6, 46.8 3.5, 40.8 5.2 C 48.4 4.1, 63.3 31.5, 54.8 22.3 Z" fill="hsl(86, 72%, 68%)" fill-opacity="0.72" stroke="none" stroke-width="1.00"   />
<circle cx="69.8" cy="62.4" r="0.6" fill="hsl(144, 86%, 72%)" fill-opacity="0.56"   />
<circle cx="42.4" cy="2.0" r="0.1" fill="hsl(242, 72%, 49%)" fill-opacity="0.97"   />
<rect x="43.1" y="56.9" width="34.3" height="11.7" rx="0" fill="hsl(183, 71%, 60%)" fill-opacity="0.40"    />
<circle cx="52.7" cy="57.3" r="0.1" fill="hsl(151, 70%, 62%)" fill-opacity="0.82"   />
<circle cx="86.5" cy="5.9" r="0.3" fill="hsl(106, 75%, 59%)" fill-opacity="0.97"   />
</svg>
