<?xml version="1.0" encoding="UTF-8"?>
<svg xmlns="http://www.w3.org/2000/svg" width="100" height="100" viewBox="0 0 100 100">
<defs>
<linearGradient id="g0" x1="0%" y1="0%" x2="100%" y2="100%">
<stop offset="0.0%" stop-color="hsl(106, 75%, 59%)" />
<stop offset="33.3%" stop-color="hsl(183, 71%, 60%)" />
<stop offset="66.7%" stop-color="hsl(242, 72%, 49%)" />
<stop offset="100.0%" stop-color="hsl(322, 74%, 44%)" />
</linearGradient>
<linearGradient id="g1" x1="0%" y1="0%" x2="100%" y2="100%">
<stop offset="0.0%" stop-color="hsl(290, 83%, 63%)" />
<stop offset="33.3%" stop-color="hsl(2, 82%, 55%)" />
<stop offset="66.7%" stop-color="hsl(86, 72%, 68%)" />
<stop offset="100.0%" stop-color="hsl(83, 65%, 44%)" />
</linearGradient>
<linearGradient id="g2" x1="0%" y1="0%" x2="100%" y2="100%">
<stop offset="0.0%" stop-color="hsl(40, 53%, 69%)" />
<stop offset="33.3%" stop-color="hsl(104, 72%, 65%)" />
<stop offset="66.7%" stop-color="hsl(144, 86%, 72%)" />
<stop offset="100.0%" stop-color="hsl(151, 70%, 62%)" />
</linearGradient>
</defs>

<rect x="63.8" y="38.4" width="26.8" height="21.0" rx="5.9" fill="hsl(290, 83%, 63%)" fill-opacity="0.68"   transform="translate(86.9 54.9) rotate(246.8) scale(0.76 0.99)" />
<circle cx="33.3" cy="96.1" r="0.5" fill="hsl(290, 83%, 63%)" fill-opacity="0.44"   />
<rect x="62.4" y="32.5" width="25.3" height="33.7" rx="0" fill="none" fill-opacity="0.26"    />
<path d="M 93.8 58.9 C 93.9 69.8, 0.0 47.6, 5.1 59.7 C 11.5 60.1, 33.2 13.1, 19.8 21.1 C 33.6 12.5, 95.3 26.4, 88.4 33.4 C 99.1 14.7, 14.7 65.9, 20.2 57.0 C 21.3 47.2, 55.9 100.0, 67.1 92.9 C 51.6 88.3, 36.6 56.0, 22.0 42.1 " fill="none" fill-opacity="0.32" stroke="hsl(40, 53%, 69%)" stroke-width="0.84"   />
<circle cx="92.5" cy="94.1" r="1.1" fill="hsl(86, 72%, 68%)" fill-opacity="0.83"  transform="translate(54.0 16.1) rotate(41.7) scale(1.88 0.62)" />
<path d="M 96.4 4.0 C 92.3 12.3, 90.6 67.5, 84.7 72.7 C 92.1 69.2, 53.0 87.8, 65.3 96.6 C 48.6 83.8, 100.0 84.4, 95.0 70.2 C 100.0 81.4, 46.6 66.2, 46.8 57.4 " fill="hsl(83, 65%, 44%)" fill-opacity="0.76" stroke="none" stroke-width="0.87"  transform="translate(94.0 52.5) rotate(146.7) scale(1.09 0.82)" />
<path d="M 29.4 4.0 C 14.9 22.2, 38.7 6.0, 24.2 3.6 C 11.4 0.0, 16.6 19.1, 7.0 7.5 C 6.5 18.3, 100.0 66.6, 95.8 78.0 C 77.2 84.5, 73.7 3.1, 71.6 9.0 C 81.9 18.1, 72.5 0.0, 63.4 0.5 C 52.2 0.0, 83.9 13.0, 94.9 6.6 C 87.2 13.7, 48.8 7.9, 39.8 11.6 " fill="hsl(86, 72%, 68%)" fill-opacity="0.90" stroke="none" stroke-width="1.13"  transform="translate(53.4 98.2) rotate(124.1) scale(1.28 1.43)" />
<path d="M 30.7 2.8 C 21.2 16.3, 24.2 87.6, 24.7 82.8 C 29.6 84.1, 38.6 37.8, 41.6 23.4 C 54.0 4.3, 26.8 66.7, 13.8 53.6 C 14.7 43.9, 56.5 7.6, 68.2 4.7 C 84.3 17.9, 2.7 97.0, 2.9 99.7 C 0.0 89.0, 26.5 40.3, 39.8 32.0 " fill="hsl(86, 72%, 68%)" fill-opacity="0.68" stroke="none" stroke-width="1.20"  transform="translate(95.2 86.8) rotate(132.3) scale(0.59 1.44)" />
<rect x="7.2" y="45.9" width="33.6" height="37.5" rx="5.9" fill="hsl(104, 72%, 65%)" fill-opacity="0.86"   transform="translate(47.5 57.2) rotate(342.7) scale(1.45 1.52)" />
<path d="M 91.3 63.0 C 82.1 64.3, 85.9 5.4, 95.2 14.8 C 77.1 8.9, 100.0 12.6, 96.4 1.7 C 100.0 4.7, 44.7 2.9, 58.9 4.5 C 58.0 8.9, 59.2 100.0, 63.9 99.2 C 72.8 100.0, 33.7 32.0, 38.6 41.1 C 20.8 21.9, 3.0 1.1, 15.2 5.9 C 20.4 3.4, 63.5 76.9, 54.7 90.8 " fill="none" fill-opacity="0.90" stroke="hsl(86, 72%, 68%)" stroke-width="1.17"  transform="translate(57.0 6.9) rotate(191.2) scale(1.38 1.70)" />
<circle cx="52.6" cy="81.0" r="0.1" fill="hsl(106, 75%, 59%)" fill-opacity="0.58"   />
<path d="M 35.8 52.4 C 29.4 59.8, 20.9 44.4, 35.6 47.0 C 16.8 48.6, 50.0 33.8, 61.4 23.8 C 74.5 29.8, 29.8 97.1, 35.8 86.4 C 51.9 76.8, 15.0 57.3, 3.9 58.9 C 9.1 40.7, 20.5 32.6, 24.2 17.8 C 5.3 3.7, 71.1 80.6, 69.3 75.9 C 67.3 93.5, 50.4 34.8, 62.6 46.7 Z" fill="hsl(86, 72%, 68%)" fill-opacity="0.91" stroke="none" stroke-width="0.90"   />
<path d="M 20.9 98.8 C 34.9 100.0, 62.4 79.7, 56.5 92.5 C 58.5 99.7, 9.8 61.8, 2.2 49.1 C 19.0 52.0, 12.4 55.6, 20.8 66.4 C 24.1 55.0, 11.2 22.7, 1.0 16.4 C 0.0 7.5, 37.6 36.2, 43.7 35.6 C 58.9 52.3, 31.5 100.0, 27.6 89.3 " fill="hsl(104, 72%, 65%)" fill-opacity="0.85" stroke="none" stroke-width="1.17"  transform="translate(37.4 17.2) rotate(93.4) scale(0.86 0.77)" />
<rect x="11.0" y="56.4" width="25.1" height="20.1" rx="0" fill="none" fill-opacity="0.68"   transform="translate(44.3 47.4) rotate(247.8) scale(1.04 1.17)" />
<rect x="33.9" y="47.7" width="39.8" height="12.4" rx="0" fill="hsl(2, 82%, 55%)" fill-opacity="0.66"   transform="translate(86.7 46.7) rotate(305.4) scale(0.63 0.59)" />
<rect x="17.9" y="44.1" width="21.4" height="25.3" rx="0.1" fill="none" fill-opacity="0.98"   transform="translate(24.9 37.5) rotate(21.9) scale(1.15 1.36)" />
</svg>
