<?xml version="1.0" encoding="UTF-8"?>
<svg xmlns="http://www.w3.org/2000/svg" width="100" height="100" viewBox="0 0 100 100">
<defs>
<linearGradient id="g0" x1="0%" y1="0%" x2="100%" y2="100%">
<stop offset="0.0%" stop-color="hsl(106, 75%, 59%)" />
<stop offset="33.3%" stop-color="hsl(183, 71%, 60%)" />
<stop offset="66.7%" stop-color="hsl(242, 72%, 49%)" />
<stop offset="100.0%" stop-color="hsl(322, 74%, 44%)" />
</linearGradient>
<linearGradient id="g1" x1="0%" y1="0%" x2="100%" y2="100%">
<stop offset="0.0%" stop-color="hsl(290, 83%, 63%)" />
<stop offset="33.3%" stop-color="hsl(2, 82%, 55%)" />
<stop offset="66.7%" stop-color="hsl(86, 72%, 68%)" />
<stop offset="100.0%" stop-color="hsl(83, 65%, 44%)" />
</linearGradient>
<linearGradient id="g2" x1="0%" y1="0%" x2="100%" y2="100%">
<stop offset="0.0%" stop-color="hsl(40, 53%, 69%)" />
<stop offset="33.3%" stop-color="hsl(104, 72%, 65%)" />
<stop offset="66.7%" stop-color="hsl(144, 86%, 72%)" />
<stop offset="100.0%" stop-color="hsl(151, 70%, 62%)" />
</linearGradient>
</defs>

<circle cx="81.2" cy="31.9" r="1.3" fill="hsl(2, 82%, 55%)" fill-opacity="0.58"  transform="translate(50.3 36.7) rotate(198.6) scale(1.31 1.79)" />
<circle cx="56.9" cy="25.1" r="0.2" fill="hsl(151, 70%, 62%)" fill-opacity="0.59"   />
<rect x="18.8" y="10.8" width="44.3" height="16.3" rx="16.5" fill="none" fill-opacity="0.47"    />
<path d="M 19.4 93.6 C 20.6 78.3, 88.5 75.1, 77.0 69.1 C 69.6 71.6, 36.0 25.5, 41.3 32.8 C 58.7 14.6, 83.3 77.0, 90.1 79.7 " fill="hsl(2, 82%, 55%)" fill-opacity="0.98" stroke="none" stroke-width="0.80"   />
<path d="M 50.9 32.5 C 43.4 47.6, 37.7 0.0, 22.9 4.6 C 31.7 4.2, 53.7 17.1, 51.9 4.3 C 46.8 0.3, 59.7 15.2, 72.8 21.9 C 64.9 24.4, 29.2 78.5, 35.2 68.6 " fill="none" fill-opacity="0.51" stroke="hsl(83, 65%, 44%)" stroke-width="0.81"   />
<rect x="56.1" y="1.7" width="23.8" height="15.8" rx="1.0" fill="hsl(86, 72%, 68%)" fill-opacity="0.39"   transform="translate(90.4 92.6) rotate(265.2) scale(1.60 1.97)" />
<path d="M 10.0 4.3 C 0.0 0.0, 83.3 33.2, 98.1 20.0 C 91.0 37.7, 66.0 65.2, 67.9 62.1 C 71.8 80.3, 77.1 39.5, 81.8 51.1 C 74.4 43.4, 13.8 87.2, 4.4 74.2 C 0.0 54.6, 55.8 100.0, 65.4 94.8 C 65.1 83.1, 69.6 62.6, 56.2 68.2 " fill="hsl(183, 71%, 60%)" fill-opacity="0.64" stroke="none" stroke-width="1.01"   />
<path d="M 44.6 18.1 C 47.5 16.5, 100.0 82.4, 100.0 80.3 C 92.7 88.1, 100.0 61.4, 97.1 49.3 C 100.0 40.6, 13.9 4.2, 21.5 16.0 C 40.6 21.6, 35.4 70.8, 43.9 77.1 C 25.5 95.3, 0.0 71.9, 0.4 72.6 C 0.0 55.3, 10.3 3.3, 18.7 16.2 C 0.3 16.2, 49.6 35.4, 57.1 41.4 " fill="hsl(86, 72%, 68%)" fill-opacity="0.27" stroke="none" stroke-width="0.82"  transform="translate(67.7 71.7) rotate(8.7) scale(1.35 1.51)" />
<path d="M 23.5 75.8 C 11.3 83.8, 14.6 36.4, 2.4 31.8 C 7.9 42.5, 51.3 51.1, 54.8 46.1 C 38.5 42.4, 94.9 13.3, 98.7 15.0 C 89.4 7.7, 68.5 76.8, 58.3 72.9 C 47.8 74.9, 23.6 70.2, 14.8 61.7 C 25.6 77.8, 28.4 24.9, 17.9 22.4 C 9.5 7.2, 47.7 78.4, 61.9 81.8 " fill="hsl(86, 72%, 68%)" fill-opacity="0.71" stroke="none" stroke-width="0.81"   />
<rect x="29.6" y="19.6" width="33.0" height="30.5" rx="17.6" fill="hsl(144, 86%, 72%)" fill-opacity="0.76" stroke="hsl(144, 86%, 72%)" stroke-width="2.8"  transform="translate(79.3 30.0) rotate(344.1) scale(1.95 0.74)" />
<path d="M 81.6 45.6 C 75.6 31.4, 31.0 61.8, 21.6 76.0 C 31.5 86.5, 24.7 59.7, 29.5 69.1 C 11.4 62.2, 31.4 19.6, 23.8 23.7 C 36.4 24.8, 18.3 30.3, 4.1 32.7 " fill="hsl(104, 72%, 65%)" fill-opacity="0.70" stroke="none" stroke-width="1.12"  transform="translate(37.2 56.7) rotate(113.9) scale(0.99 1.06)" />
</svg>
