<?xml version="1.0" encoding="UTF-8"?>
<svg xmlns="http://www.w3.org/2000/svg" width="100" height="100" viewBox="0 0 100 100">
<defs>
<linearGradient id="g0" x1="0%" y1="0%" x2="100%" y2="100%">
<stop offset="0.0%" stop-color="hsl(106, 75%, 59%)" />
<stop offset="33.3%" stop-color="hsl(183, 71%, 60%)" />
<stop offset="66.7%" stop-color="hsl(242, 72%, 49%)" />
<stop offset="100.0%" stop-color="hsl(322, 74%, 44%)" />
</linearGradient>
<linearGradient id="g1" x1="0%" y1="0%" x2="100%" y2="100%">
<stop offset="0.0%" stop-color="hsl(290, 83%, 63%)" />
<stop offset="33.3%" stop-color="hsl(2, 82%, 55%)" />
<stop offset="66.7%" stop-color="hsl(86, 72%, 68%)" />
<stop offset="100.0%" stop-color="hsl(83, 65%, 44%)" />
</linearGradient>
<linearGradient id="g2" x1="0%" y1="0%" x2="100%" y2="100%">
<stop offset="0.0%" stop-color="hsl(40, 53%, 69%)" />
<stop offset="33.3%" stop-color="hsl(104, 72%, 65%)" />
<stop offset="66.7%" stop-color="hsl(144, 86%, 72%)" />
<stop offset="100.0%" stop-color="hsl(151, 70%, 62%)" />
</linearGradient>
</defs>

<path d="M 70.6 37.4 C 73.2 56.6, 77.3 20.3, 69.3 14.2 C 73.5 20.8, 63.5 16.8, 55.8 22.7 C 68.5 21.1, 48.2 71.3, 55.3 70.1 C 73.5 89.5, 21.1 39.7, 17.2 47.2 C 7.8 49.0, 27.6 71.7, 16.7 66.1 C 9.9 62.3, 21.6 10.4, 13.7 20.6 " fill="none" fill-opacity="0.75" stroke="hsl(290, 83%, 63%)" stroke-width="1.29"  transform="translate(27.7 19.2) rotate(192.6) scale(1.04 0.81)" />
<rect x="37.1" y="48.4" width="23.9" height="36.9" rx="0" fill="hsl(183, 71%, 60%)" fill-opacity="0.29" stroke="hsl(183, 71%, 60%)" stroke-width="3.1"  transform="translate(2.9 54.0) rotate(334.6) scale(0.71 1.66)" />
<rect x="17.7" y="41.6" width="29.8" height="37.5" rx="0.8" fill="hsl(151, 70%, 62%)" fill-opacity="0.74"   transform="translate(1.5 13.9) rotate(133.4) scale(1.70 1.18)" />
<circle cx="35.9" cy="89.7" r="1.9" fill="hsl(183, 71%, 60%)" fill-opacity="0.66"  transform="translate(86.0 64.4) rotate(342.9) scale(0.96 1.71)" />
<path d="M 21.5 78.4 C 14.8 80.8, 18.1 27.7, 10.3 24.0 C 6.5 27.9, 46.1 49.5, 52.6 63.5 C 34.6 77.9, 88.5 100.0, 99.0 91.0 C 91.1 100.0, 56.6 16.0, 57.1 7.4 C 62.3 8.0, 46.0 13.3, 32.0 16.7 C 50.8 23.7, 71.2 82.4, 70.2 74.4 " fill="none" fill-opacity="0.66" stroke="hsl(242, 72%, 49%)" stroke-width="1.28"   />
<path d="M 89.8 28.3 C 80.5 28.0, 54.3 22.3, 68.3 14.8 C 76.8 24.9, 27.6 25.1, 39.7 26.1 C 45.4 9.4, 68.1 7.5, 70.5 12.3 C 61.7 28.8, 68.9 55.5, 73.6 57.3 C 87.0 67.8, 51.8 23.4, 37.2 21.8 C 39.2 11.6, 44.4 57.0, 49.5 52.7 C 38.8 33.5, 48.8 83.0, 41.8 95.2 " fill="hsl(322, 74%, 44%)" fill-opacity="0.69" stroke="none" stroke-width="1.04"   />
<rect x="13.6" y="67.2" width="24.2" height="21.2" rx="10.4" fill="none" fill-opacity="0.85"   transform="translate(17.7 16.1) rotate(206.5) scale(0.85 1.03)" />
<path d="M 15.2 27.4 C 34.8 40.3, 66.1 43.8, 53.2 36.3 C 36.9 26.3, 12.5 62.4, 27.2 59.7 C 27.7 56.4, 80.6 24.0, 86.2 24.6 " fill="none" fill-opacity="0.40" stroke="hsl(242, 72%, 49%)" stroke-width="1.03"  transform="translate(81.6 69.6) rotate(218.9) scale(1.41 0.69)" />
<rect x="60.4" y="31.1" width="37.3" height="13.1" rx="0" fill="hsl(151, 70%, 62%)" fill-opacity="0.60" stroke="hsl(40, 53%, 69%)" stroke-width="3.2"  transform="translate(58.5 57.3) rotate(9.0) scale(1.55 1.61)" />
<rect x="54.5" y="44.7" width="38.8" height="27.9" rx="0" fill="hsl(40, 53%, 69%)" fill-opacity="0.54" stroke="hsl(40, 53%, 69%)" stroke-width="2.4"  transform="translate(55.9 42.3) rotate(108.8) scale(1.03 1.75)" />
<path d="M 89.8 36.6 C 100.0 17.8, 80.8 62.0, 86.0 76.0 C 91.6 71.2, 44.0 57.0, 30.9 61.7 C 34.7 75.8, 77.8 69.9, 87.4 67.3 C 81.4 47.4, 72.4 58.3, 83.5 53.8 C 69.6 45.0, 16.2 88.7, 24.7 97.0 Z" fill="none" fill-opacity="0.41" stroke="hsl(2, 82%, 55%)" stroke-width="0.86"  transform="translate(82.7 76.7) rotate(325.0) scale(1.06 1.88)" />
<circle cx="5.5" cy="70.8" r="0.1" fill="hsl(151, 70%, 62%)" fill-opacity="0.79"  transform="translate(70.6 12.1) rotate(19.3) scale(0.79 1.99)" />
<path d="M 62.2 77.6 C 45.5 65.5, 0.0 100.0, 8.5 97.4 C 9.6 100.0, 77.3 2.6, 87.6 5.4 C 75.8 0.0, 93.2 90.9, 89.6 90.3 C 77.6 81.1, 69.5 50.1, 82.9 56.9 C 81.2 47.6, 0.0 8.3, 9.3 21.2 C 12.5 37.7, 23.4 62.9, 17.0 70.5 C 4.6 67.2, 75.1 9.4, 87.7 6.7 Z" fill="none" fill-opacity="0.51" stroke="hsl(183, 71%, 60%)" stroke-width="0.83"  transform="translate(98.2 3.1) rotate(153.0) scale(0.96 1.96)" />
<rect x="37.6" y="40.2" width="47.4" height="39.0" rx="0" fill="hsl(183, 71%, 60%)" fill-opacity="0.76"    />
<circle cx="0.3" cy="68.9" r="0.1" fill="hsl(322, 74%, 44%)" fill-opacity="0.47"   />
</svg>
