<?xml version="1.0" encoding="UTF-8"?>
<svg xmlns="http://www.w3.org/2000/svg" width="100" height="100" viewBox="0 0 100 100">
<defs>
<linearGradient id="g0" x1="0%" y1="0%" x2="100%" y2="100%">
<stop offset="0.0%" stop-color="hsl(106, 75%, 59%)" />
<stop offset="33.3%" stop-color="hsl(183, 71%, 60%)" />
<stop offset="66.7%" stop-color="hsl(242, 72%, 49%)" />
<stop offset="100.0%" stop-color="hsl(322, 74%, 44%)" />
</linearGradient>
<linearGradient id="g1" x1="0%" y1="0%" x2="100%" y2="100%">
<stop offset="0.0%" stop-color="hsl(290, 83%, 63%)" />
<stop offset="33.3%" stop-color="hsl(2, 82%, 55%)" />
<stop offset="66.7%" stop-color="hsl(86, 72%, 68%)" />
<stop offset="100.0%" stop-color="hsl(83, 65%, 44%)" />
</linearGradient>
<linearGradient id="g2" x1="0%" y1="0%" x2="100%" y2="100%">
<stop offset="0.0%" stop-color="hsl(40, 53%, 69%)" />
<stop offset="33.3%" stop-color="hsl(104, 72%, 65%)" />
<stop offset="66.7%" stop-color="hsl(144, 86%, 72%)" />
<stop offset="100.0%" stop-color="hsl(151, 70%, 62%)" />
</linearGradient>
<filter id="f1" x="-20%" y="-20%" width="140%" height="140%">
  <feGaussianBlur stdDeviation="2.0678839578318713" />
</filter>

</defs>

<path d="M 59.2 54.1 C 55.9 43.2, 0.0 53.2, 4.4 39.8 C 0.0 31.3, 0.0 55.9, 11.9 66.8 C 3.7 52.0, 28.4 41.3, 22.5 56.0 C 25.0 36.2, 9.1 2.1, 18.2 14.5 C 29.0 7.3, 56.1 97.0, 52.2 83.3 C 56.4 82.6, 75.1 0.0, 74.0 9.2 C 88.3 0.0, 20.4 8.4, 10.8 17.0 C 2.0 16.3, 18.0 29.7, 16.8 21.9 C 0.8 22.1, 0.0 47.5, 1.2 47.6 C 17.3 44.2, 11.6 76.0, 26.2 78.5 Z" fill="hsl(183, 71%, 60%)" fill-opacity="0.64" stroke="none" stroke-width="1.72"  transform="translate(50.2 54.3) rotate(34.9) scale(0.99 1.98)" />
<path d="M 38.1 65.6 C 44.8 49.8, 80.0 22.7, 94.4 35.3 C 100.0 44.1, 47.7 48.8, 46.5 45.6 C 37.4 56.9, 69.3 61.0, 62.6 65.1 C 55.5 77.4, 64.4 42.9, 78.2 33.3 C 81.8 46.9, 3.0 9.1, 10.7 16.1 C 0.0 15.7, 44.4 20.2, 37.4 29.2 C 19.5 24.8, 28.1 7.7, 39.6 15.6 C 19.8 16.4, 46.1 57.5, 40.9 71.4 C 47.7 77.0, 87.2 42.3, 79.7 56.9 " fill="hsl(290, 83%, 63%)" fill-opacity="0.83" stroke="none" stroke-width="1.55"  transform="translate(79.3 23.0) rotate(98.6) scale(1.01 1.64)" />
<path d="M 80.7 13.8 C 77.7 0.0, 72.5 5.7, 69.3 3.7 C 80.6 0.0, 31.5 79.3, 18.4 74.3 C 26.2 67.0, 25.4 19.1, 29.4 9.9 C 42.0 0.0, 84.4 81.8, 70.6 94.2 C 85.6 85.5, 19.7 69.9, 17.2 57.0 C 9.4 45.4, 76.3 14.0, 61.4 14.1 C 64.0 24.1, 9.5 100.0, 13.3 98.8 C 0.0 79.2, 13.1 91.8, 22.1 91.8 C 15.6 100.0, 59.2 9.7, 48.4 24.2 C 56.2 21.6, 82.7 12.0, 92.3 5.0 " fill="hsl(40, 53%, 69%)" fill-opacity="0.71" stroke="none" stroke-width="2.47"  transform="translate(16.9 59.8) rotate(73.6) scale(1.13 1.99)" />
<circle cx="95.8" cy="66.4" r="6.7" fill="hsl(183, 71%, 60%)" fill-opacity="0.46"  transform="translate(10.3 59.1) rotate(92.4) scale(0.78 0.79)" />
<circle cx="95.1" cy="55.6" r="3.2" fill="url(#g2)" fill-opacity="0.69" filter="url(#f1)" transform="translate(84.4 80.3) rotate(124.8) scale(0.77 1.50)" />
<path d="M 80.4 4.3 C 67.1 0.0, 29.4 82.5, 21.5 71.1 C 7.3 52.6, 81.0 67.5, 76.2 55.4 C 61.9 41.0, 99.0 70.1, 99.1 64.8 C 94.2 69.0, 20.8 86.2, 10.0 81.8 C 29.3 80.5, 71.1 99.1, 63.6 91.6 C 73.1 89.6, 73.7 100.0, 88.0 98.0 Z" fill="hsl(106, 75%, 59%)" fill-opacity="0.45" stroke="none" stroke-width="1.56"  transform="translate(98.1 64.4) rotate(163.0) scale(0.57 1.17)" />
<rect x="9.9" y="42.8" width="48.2" height="16.2" rx="0" fill="none" fill-opacity="0.75" stroke="hsl(242, 72%, 49%)" stroke-width="1.7"  transform="translate(30.4 68.8) rotate(215.4) scale(1.42 0.78)" />
<rect x="32.1" y="84.9" width="42.0" height="12.4" rx="1.4" fill="none" fill-opacity="0.83"   transform="translate(31.2 1.5) rotate(338.0) scale(1.47 1.90)" />
<circle cx="71.3" cy="73.9" r="1.4" fill="hsl(322, 74%, 44%)" fill-opacity="0.73"  transform="translate(16.2 14.7) rotate(199.7) scale(0.71 0.84)" />
<path d="M 80.7 6.7 C 98.6 7.5, 91.5 56.3, 82.7 51.0 C 86.0 42.1, 50.5 81.8, 59.5 70.0 C 66.1 85.5, 9.1 64.6, 16.2 73.0 C 0.0 65.2, 5.1 99.7, 12.2 92.0 C 30.3 92.5, 38.0 26.8, 29.2 33.3 C 30.6 32.5, 78.8 49.0, 74.6 47.8 C 77.3 58.2, 9.1 29.2, 4.2 31.0 C 0.0 41.1, 4.8 22.9, 19.6 34.9 C 10.5 17.5, 99.5 15.8, 86.3 2.9 " fill="none" fill-opacity="0.93" stroke="hsl(86, 72%, 68%)" stroke-width="4.07"  transform="translate(41.2 82.7) rotate(290.5) scale(1.34 0.80)" />
<path d="M 18.5 42.5 C 3.8 46.3, 80.2 88.1, 90.8 84.5 C 84.1 77.2, 25.4 21.3, 12.2 8.4 C 5.3 26.7, 48.3 8.6, 56.8 18.6 C 69.4 1.7, 46.9 90.0, 32.7 95.2 C 49.4 78.2, 35.9 58.9, 46.1 59.0 C 55.6 74.0, 14.1 5.4, 2.0 14.7 C 2.3 23.5, 37.2 32.9, 33.0 32.2 Z" fill="hsl(86, 72%, 68%)" fill-opacity="0.26" stroke="none" stroke-width="1.33"   />
<path d="M 14.1 38.2 C 17.1 32.3, 33.3 83.1, 23.6 76.9 C 31.8 63.3, 100.0 5.4, 89.8 2.4 C 96.4 0.0, 28.4 53.5, 37.3 46.9 C 23.4 32.5, 61.3 32.1, 49.7 43.5 C 66.6 36.4, 97.7 31.7, 97.6 37.4 C 83.9 36.4, 35.8 16.9, 28.1 26.1 C 21.0 27.2, 86.6 9.6, 75.5 2.5 C 76.7 16.0, 68.0 37.9, 56.1 25.2 C 68.5 21.1, 0.0 61.2, 3.7 62.4 C 17.4 46.0, 27.1 56.7, 27.8 45.2 Z" fill="hsl(40, 53%, 69%)" fill-opacity="0.49" stroke="none" stroke-width="2.20"  transform="translate(22.5 33.4) rotate(198.4) scale(1.17 1.81)" />
<rect x="23.0" y="68.3" width="23.6" height="21.9" rx="0" fill="none" fill-opacity="0.63"  filter="url(#f1)"  />
<circle cx="71.2" cy="43.6" r="0.1" fill="hsl(40, 53%, 69%)" fill-opacity="0.88"  transform="translate(26.9 53.5) rotate(261.0) scale(0.94 0.93)" />
<circle cx="93.1" cy="2.1" r="0.8" fill="url(#g0)" fill-opacity="0.77"   />
<circle cx="30.0" cy="75.0" r="1.1" fill="url(#g0)" fill-opacity="0.78"  transform="translate(37.7 81.0) rotate(261.9) scale(1.11 1.57)" />
<path d="M 70.3 87.4 C 80.0 100.0, 7.0 1.1, 20.3 11.1 C 26.4 0.0, 100.0 100.0, 94.7 92.8 C 100.0 78.4, 7.2 51.8, 6.4 51.2 C 8.6 59.5, 75.9 13.9, 76.1 10.9 C 68.3 25.1, 21.8 7.5, 22.4 0.3 C 23.8 0.0, 19.3 27.6, 26.6 26.4 " fill="hsl(322, 74%, 44%)" fill-opacity="0.68" stroke="none" stroke-width="3.82"  transform="translate(30.5 18.6) rotate(209.3) scale(1.45 0.70)" />
<path d="M 60.0 86.3 C 51.2 93.4, 0.7 26.8, 13.3 29.3 C 6.8 20.3, 48.9 93.4, 54.0 95.2 C 61.7 83.9, 51.2 38.9, 60.7 42.5 C 62.0 57.0, 4.5 42.9, 16.3 41.4 C 8.5 40.4, 88.0 44.9, 79.9 53.9 C 97.9 68.9, 12.7 56.8, 21.2 69.9 C 14.0 56.5, 84.9 63.1, 88.1 61.3 C 100.0 79.3, 31.2 43.2, 25.8 53.9 C 27.6 42.6, 86.7 100.0, 97.1 89.2 C 100.0 92.8, 75.3 96.0, 73.5 88.9 Z" fill="none" fill-opacity="0.26" stroke="hsl(183, 71%, 60%)" stroke-width="4.21"  transform="translate(86.8 56.6) rotate(160.6) scale(1.38 1.67)" />
<path d="M 80.0 34.6 C 98.0 23.6, 76.6 55.1, 65.7 51.3 C 64.6 56.6, 11.7 91.4, 8.6 96.2 C 22.2 83.1, 62.7 32.4, 68.7 18.0 C 72.4 21.1, 44.3 96.4, 37.5 95.5 C 38.4 99.5, 12.8 74.0, 12.4 62.2 C 27.0 74.1, 39.7 73.6, 47.0 65.6 C 53.8 46.6, 95.4 0.0, 97.3 5.6 C 87.4 0.0, 33.2 45.5, 38.7 57.2 Z" fill="hsl(242, 72%, 49%)" fill-opacity="0.84" stroke="none" stroke-width="2.74"  transform="translate(8.3 99.9) rotate(114.2) scale(0.92 0.87)" />
<circle cx="31.4" cy="78.6" r="5.4" fill="hsl(86, 72%, 68%)" fill-opacity="0.48"  transform="translate(94.6 88.2) rotate(326.1) scale(1.87 1.76)" />
<circle cx="9.8" cy="17.7" r="0.8" fill="url(#g2)" fill-opacity="0.77"  transform="translate(25.3 73.9) rotate(121.9) scale(1.79 0.81)" />
<rect x="18.1" y="43.1" width="34.5" height="12.2" rx="0.7" fill="none" fill-opacity="0.87"   transform="translate(19.7 92.8) rotate(307.2) scale(1.08 1.44)" />
<path d="M 23.7 15.2 C 40.3 0.0, 56.9 82.8, 65.7 92.8 C 65.6 90.8, 30.3 71.2, 37.9 69.2 C 40.8 84.5, 88.4 11.0, 86.4 13.6 C 85.9 0.0, 86.6 97.0, 79.2 86.1 C 71.7 70.2, 58.8 11.7, 52.1 21.1 C 64.0 13.0, 71.3 16.4, 58.3 12.4 C 39.4 16.4, 57.0 86.2, 53.9 94.4 C 73.3 97.0, 93.6 59.6, 78.7 72.5 C 82.3 84.2, 27.4 44.4, 35.5 52.0 Z" fill="hsl(290, 83%, 63%)" fill-opacity="0.53" stroke="none" stroke-width="2.69"  transform="translate(12.1 61.6) rotate(177.9) scale(0.52 1.66)" />
<path d="M 77.6 67.2 C 83.9 60.5, 47.5 100.0, 32.6 95.9 C 22.0 100.0, 48.3 46.9, 38.2 61.5 C 29.3 76.5, 1.3 29.2, 12.8 37.3 C 12.5 25.9, 74.1 50.5, 84.8 54.2 C 90.1 50.7, 78.3 74.6, 72.4 85.1 C 86.7 91.8, 22.8 63.5, 11.6 52.3 C 18.1 42.4, 32.9 71.8, 27.1 59.8 Z" fill="none" fill-opacity="0.99" stroke="hsl(40, 53%, 69%)" stroke-width="1.97"  transform="translate(55.6 71.3) rotate(323.6) scale(0.70 0.79)" />
<path d="M 94.8 37.1 C 93.1 52.3, 100.0 85.3, 92.9 95.3 C 100.0 92.2, 7.5 69.6, 8.9 84.5 C 0.0 69.4, 13.9 56.0, 7.3 55.8 C 2.9 72.0, 63.3 76.3, 52.5 79.2 C 56.1 89.7, 64.0 0.0, 74.5 1.4 C 87.4 17.0, 32.0 60.0, 45.0 61.9 C 57.7 71.6, 15.6 60.1, 12.2 62.0 C 13.9 64.5, 91.2 3.6, 88.3 9.1 " fill="none" fill-opacity="0.35" stroke="hsl(151, 70%, 62%)" stroke-width="3.34"  transform="translate(0.5 18.3) rotate(19.0) scale(0.92 1.91)" />
<path d="M 81.6 98.3 C 84.9 100.0, 58.5 85.7, 69.1 98.1 C 76.2 95.5, 30.8 5.5, 44.3 3.5 C 38.2 0.0, 88.1 25.0, 78.9 31.8 C 82.6 44.8, 6.5 93.2, 10.8 92.7 C 5.5 100.0, 31.2 49.4, 21.1 49.7 C 26.7 46.0, 35.9 59.9, 50.8 51.7 C 31.7 51.4, 25.8 23.8, 32.0 36.5 C 48.3 34.7, 86.2 56.8, 95.8 58.2 Z" fill="hsl(144, 86%, 72%)" fill-opacity="0.70" stroke="none" stroke-width="3.75"   />
<circle cx="50.5" cy="42.6" r="16.5" fill="url(#g2)" fill-opacity="0.64"  transform="translate(25.4 92.8) rotate(108.5) scale(1.83 1.82)" />
<circle cx="41.7" cy="39.6" r="5.7" fill="url(#g0)" fill-opacity="0.66"  transform="translate(29.4 49.3) rotate(195.0) scale(1.15 1.91)" />
<rect x="62.4" y="65.0" width="35.9" height="19.2" rx="3.8" fill="none" fill-opacity="0.93"    />
<rect x="35.5" y="31.8" width="37.5" height="33.1" rx="0" fill="hsl(106, 75%, 59%)" fill-opacity="0.62"   transform="translate(53.4 16.6) rotate(53.6) scale(0.92 1.57)" />
<rect x="12.5" y="55.8" width="38.1" height="35.8" rx="0" fill="hsl(183, 71%, 60%)" fill-opacity="0.77"   transform="translate(44.6 95.3) rotate(165.6) scale(1.13 1.27)" />
<rect x="31.8" y="2.7" width="32.1" height="10.9" rx="0" fill="hsl(322, 74%, 44%)" fill-opacity="0.63"   transform="translate(81.2 63.2) rotate(50.2) scale(1.96 1.08)" />
<rect x="49.9" y="40.5" width="47.8" height="38.5" rx="17.1" fill="hsl(290, 83%, 63%)" fill-opacity="0.36"   transform="translate(5.0 57.9) rotate(266.0) scale(1.01 1.58)" />
<path d="M 29.4 98.3 C 36.8 100.0, 93.5 61.5, 80.2 51.0 C 85.2 43.6, 47.5 76.8, 41.0 90.1 C 37.9 100.0, 39.8 36.8, 46.5 25.3 C 56.8 15.0, 18.9 53.0, 33.0 64.1 C 33.0 46.6, 81.4 39.5, 72.1 31.5 C 79.8 42.7, 29.1 35.7, 32.4 50.0 C 46.1 56.8, 5.1 0.0, 1.3 3.0 C 17.6 15.8, 85.1 65.8, 75.3 63.2 C 65.8 73.3, 86.0 68.2, 96.6 81.0 C 86.8 96.4, 44.1 9.5, 35.6 16.4 Z" fill="hsl(151, 70%, 62%)" fill-opacity="0.57" stroke="none" stroke-width="4.30"  transform="translate(18.8 5.9) rotate(118.2) scale(1.19 1.41)" />
<path d="M 50.3 22.1 C 50.0 16.0, 67.2 18.9, 81.8 19.1 C 78.3 31.0, 72.2 15.6, 79.8 26.3 C 97.0 31.6, 30.9 100.0, 26.2 95.7 C 43.1 96.0, 47.4 24.5, 50.1 25.2 C 31.9 33.5, 53.4 46.6, 43.4 43.2 C 50.0 31.2, 47.2 54.9, 51.2 58.0 Z" fill="hsl(86, 72%, 68%)" fill-opacity="0.88" stroke="none" stroke-width="5.15" filter="url(#f1)" transform="translate(20.2 49.3) rotate(32.0) scale(1.97 0.71)" />
<circle cx="90.4" cy="83.3" r="15.3" fill="url(#g0)" fill-opacity="0.50"  transform="translate(16.9 2.4) rotate(119.7) scale(1.88 1.71)" />
<circle cx="64.5" cy="62.5" r="0.9" fill="hsl(144, 86%, 72%)" fill-opacity="0.45"  transform="translate(15.0 46.1) rotate(199.6) scale(0.51 0.52)" />
<rect x="6.8" y="52.3" width="49.5" height="18.4" rx="5.7" fill="hsl(104, 72%, 65%)" fill-opacity="0.26"    />
<path d="M 10.2 40.2 C 10.1 46.1, 91.3 85.0, 83.4 92.5 C 84.0 100.0, 20.9 75.8, 31.6 70.5 C 46.7 54.4, 14.2 90.8, 8.5 82.3 C 24.4 81.6, 0.0 33.3, 2.9 25.1 C 14.3 16.0, 41.3 28.9, 31.7 38.8 C 16.5 40.3, 78.8 93.6, 82.5 90.3 C 90.0 85.0, 40.9 20.8, 53.2 22.9 " fill="hsl(242, 72%, 49%)" fill-opacity="0.70" stroke="none" stroke-width="2.37"  transform="translate(25.0 20.8) rotate(136.3) scale(1.22 1.01)" />
<circle cx="45.9" cy="1.2" r="1.4" fill="url(#g1)" fill-opacity="0.88"   />
<rect x="24.2" y="45.6" width="43.4" height="14.5" rx="0" fill="none" fill-opacity="0.26"   transform="translate(93.9 32.4) rotate(16.9) scale(1.28 1.77)" />
<rect x="22.7" y="44.0" width="32.2" height="40.0" rx="9.7" fill="hsl(183, 71%, 60%)" fill-opacity="0.83"   transform="translate(70.7 13.2) rotate(136.8) scale(1.58 0.78)" />
<rect x="2.0" y="39.3" width="49.0" height="24.3" rx="7.9" fill="none" fill-opacity="0.97"   transform="translate(86.0 55.1) rotate(70.9) scale(0.67 0.56)" />
<rect x="63.2" y="36.4" width="30.8" height="11.3" rx="18.7" fill="none" fill-opacity="0.57"   transform="translate(58.6 55.0) rotate(160.2) scale(0.75 1.72)" />
<path d="M 25.4 48.0 C 18.1 57.3, 24.8 28.0, 21.8 15.2 C 4.7 8.7, 58.5 62.7, 59.2 73.7 C 51.3 55.8, 45.2 88.1, 34.2 89.0 C 21.9 86.7, 89.4 17.6, 96.3 9.8 C 97.2 0.0, 55.4 72.1, 64.7 87.0 C 73.7 69.2, 15.2 37.7, 9.8 45.4 C 3.1 31.5, 25.5 45.0, 20.4 30.6 Z" fill="hsl(290, 83%, 63%)" fill-opacity="0.78" stroke="none" stroke-width="4.05"  transform="translate(72.8 64.1) rotate(228.5) scale(1.75 1.73)" />
<path d="M 19.3 74.2 C 27.0 88.6, 84.6 0.0, 87.8 1.4 C 94.9 0.0, 18.6 4.3, 19.2 15.1 C 15.8 15.2, 0.0 73.8, 7.1 60.0 C 12.3 67.4, 82.2 74.6, 72.7 87.8 C 81.1 100.0, 22.1 24.4, 34.3 10.7 C 31.0 3.8, 45.2 92.8, 54.3 91.2 C 52.7 98.5, 38.1 38.6, 30.3 33.8 C 43.1 15.0, 7.0 51.4, 10.4 62.4 C 3.6 81.6, 92.6 62.0, 77.7 50.0 C 71.9 60.7, 7.7 45.9, 14.6 57.4 Z" fill="hsl(86, 72%, 68%)" fill-opacity="0.94" stroke="none" stroke-width="1.95"  transform="translate(33.6 60.3) rotate(32.0) scale(0.70 1.00)" />
<path d="M 31.3 35.9 C 12.0 18.2, 18.2 24.8, 4.3 29.9 C 1.8 12.1, 56.2 48.1, 46.7 45.6 C 43.9 60.8, 90.6 64.5, 90.4 63.3 C 82.3 49.2, 33.4 71.9, 36.0 82.5 C 16.1 83.9, 96.6 41.3, 84.2 43.7 C 74.0 51.9, 7.5 1.5, 5.7 2.0 C 12.7 0.4, 100.0 54.3, 97.1 47.1 Z" fill="hsl(183, 71%, 60%)" fill-opacity="0.72" stroke="none" stroke-width="1.76"  transform="translate(73.1 29.2) rotate(223.7) scale(1.68 0.96)" />
<path d="M 76.7 68.6 C 66.5 74.6, 62.2 34.0, 48.4 27.9 C 35.2 34.2, 72.4 57.7, 84.1 46.9 C 100.0 42.8, 23.0 2.2, 10.3 3.8 C 18.3 0.0, 31.7 100.0, 44.4 98.4 C 57.5 100.0, 62.9 77.6, 55.1 71.0 C 59.2 56.1, 90.5 2.3, 97.7 12.6 C 100.0 20.0, 24.1 68.8, 17.5 54.2 C 13.6 52.2, 0.0 42.6, 10.5 47.2 C 26.3 50.1, 40.8 51.9, 43.0 63.8 C 53.9 62.8, 53.9 75.8, 42.7 89.8 Z" fill="hsl(106, 75%, 59%)" fill-opacity="0.63" stroke="none" stroke-width="3.43"  transform="translate(38.2 62.1) rotate(105.9) scale(0.60 1.97)" />
<path d="M 52.5 50.0 C 61.7 37.2, 59.4 91.6, 61.3 78.2 C 65.9 69.2, 15.1 73.7, 25.2 59.2 C 9.8 54.9, 74.9 12.5, 86.1 10.8 C 95.4 20.0, 65.5 14.2, 78.4 28.3 C 69.0 22.7, 58.7 38.0, 57.7 35.5 C 47.7 36.5, 53.4 0.0, 39.7 12.8 Z" fill="hsl(104, 72%, 65%)" fill-opacity="0.57" stroke="none" stroke-width="3.42"  transform="translate(21.8 17.9) rotate(48.6) scale(1.49 0.50)" />
<rect x="28.4" y="64.4" width="40.2" height="30.3" rx="0" fill="hsl(183, 71%, 60%)" fill-opacity="0.37"    />
<path d="M 59.5 82.7 C 43.0 94.9, 26.6 94.1, 29.0 89.0 C 38.5 75.3, 20.6 79.8, 29.1 75.2 C 12.6 61.2, 21.1 18.2, 31.1 16.8 C 32.9 29.3, 63.4 78.6, 64.1 75.6 C 47.0 69.7, 49.1 82.4, 43.3 75.3 C 28.2 71.2, 5.5 13.6, 7.6 20.9 C 4.5 3.3, 31.6 13.8, 22.9 7.0 " fill="hsl(322, 74%, 44%)" fill-opacity="0.70" stroke="none" stroke-width="0.97"  transform="translate(98.1 54.6) rotate(91.9) scale(0.85 0.66)" />
<path d="M 4.5 42.4 C 0.0 26.7, 0.0 18.3, 7.7 18.1 C 1.4 15.5, 31.6 59.1, 31.8 46.4 C 27.1 41.0, 14.9 65.2, 13.0 63.0 C 8.3 43.8, 27.3 86.9, 31.8 96.1 C 25.4 100.0, 78.3 75.4, 74.8 84.6 C 86.0 71.3, 100.0 67.0, 88.2 62.1 Z" fill="none" fill-opacity="0.55" stroke="hsl(290, 83%, 63%)" stroke-width="2.22"  transform="translate(34.1 6.8) rotate(180.5) scale(1.22 1.28)" />
<rect x="7.6" y="6.0" width="33.5" height="14.5" rx="0" fill="none" fill-opacity="0.95"  filter="url(#f1)" transform="translate(94.0 30.3) rotate(356.0) scale(1.22 1.29)" />
<path d="M 72.6 0.3 C 88.6 0.0, 98.5 11.7, 98.2 13.9 C 92.6 0.0, 80.4 37.2, 73.8 22.7 C 79.2 14.1, 71.0 42.2, 73.5 33.2 C 82.2 43.4, 0.0 39.2, 5.1 36.6 C 20.9 22.5, 70.7 77.3, 62.9 85.4 C 61.9 100.0, 47.1 43.7, 52.2 41.4 C 36.4 48.5, 70.6 5.0, 81.8 19.5 C 99.0 16.4, 62.2 83.4, 47.2 86.2 " fill="hsl(83, 65%, 44%)" fill-opacity="0.68" stroke="none" stroke-width="0.92" filter="url(#f1)" transform="translate(75.2 24.4) rotate(83.3) scale(1.45 0.91)" />
<circle cx="60.6" cy="52.9" r="6.9" fill="url(#g1)" fill-opacity="0.53"  transform="translate(27.3 85.7) rotate(203.6) scale(1.41 1.88)" />
<path d="M 88.6 87.4 C 100.0 74.2, 50.0 53.3, 41.4 46.0 C 27.1 52.3, 94.5 76.1, 94.6 71.4 C 80.7 56.0, 26.0 100.0, 36.0 93.9 C 41.7 100.0, 27.3 34.2, 28.3 45.4 C 26.2 42.0, 18.4 51.3, 6.4 55.5 C 0.0 70.8, 15.1 57.5, 1.8 65.9 C 0.7 70.1, 88.1 100.0, 79.3 90.9 C 62.0 76.6, 72.7 20.1, 85.9 8.4 C 96.3 0.0, 51.8 64.8, 57.4 77.1 Z" fill="hsl(83, 65%, 44%)" fill-opacity="0.57" stroke="none" stroke-width="5.24"  transform="translate(33.2 11.2) rotate(58.6) scale(1.93 1.59)" />
<circle cx="2.2" cy="92.5" r="4.7" fill="url(#g0)" fill-opacity="0.45"  transform="translate(33.0 19.6) rotate(166.0) scale(1.46 1.20)" />
<circle cx="17.4" cy="62.3" r="20.4" fill="url(#g0)" fill-opacity="0.69"  transform="translate(15.9 37.3) rotate(107.2) scale(1.31 1.05)" />
<path d="M 41.0 76.7 C 31.5 81.2, 92.8 71.5, 84.6 68.7 C 95.4 59.6, 22.0 0.0, 16.8 3.3 C 32.2 3.3, 78.3 0.0, 91.6 2.6 C 91.3 9.0, 38.9 0.0, 37.3 0.0 C 53.6 7.9, 78.4 12.9, 87.1 20.4 C 70.0 34.8, 0.0 49.6, 5.4 46.5 C 21.8 48.6, 86.6 26.8, 83.6 28.9 C 76.0 21.7, 37.4 52.5, 37.6 62.5 C 28.3 62.6, 89.9 92.8, 88.3 87.6 Z" fill="none" fill-opacity="0.79" stroke="hsl(144, 86%, 72%)" stroke-width="1.64"  transform="translate(48.8 41.1) rotate(139.0) scale(0.93 1.89)" />
<circle cx="36.5" cy="75.1" r="9.9" fill="url(#g2)" fill-opacity="0.89"  transform="translate(81.3 74.3) rotate(136.1) scale(1.74 1.69)" />
<path d="M 62.7 37.9 C 65.8 38.0, 0.0 28.9, 4.3 38.1 C 13.3 29.8, 84.7 54.1, 86.0 62.8 C 68.5 58.0, 26.1 63.2, 15.8 58.1 C 22.9 57.8, 39.8 21.7, 33.8 35.4 C 46.4 53.9, 47.9 49.5, 60.6 53.0 C 65.0 61.8, 14.1 42.3, 3.2 35.5 C 2.4 24.1, 40.8 41.5, 52.1 46.8 C 67.6 34.7, 77.9 34.0, 63.3 25.3 C 83.1 13.7, 13.9 41.9, 10.5 50.4 C 23.0 44.2, 87.3 89.1, 90.1 77.0 Z" fill="none" fill-opacity="0.49" stroke="hsl(290, 83%, 63%)" stroke-width="4.63" filter="url(#f1)" transform="translate(99.7 24.0) rotate(166.2) scale(1.00 1.38)" />
<path d="M 84.3 67.2 C 85.2 77.9, 79.9 43.7, 77.8 34.9 C 90.5 37.2, 41.8 97.5, 36.6 94.0 C 52.0 100.0, 0.0 35.6, 4.0 23.6 C 19.6 29.1, 23.9 80.3, 19.0 77.2 C 29.6 76.9, 30.4 34.6, 17.8 21.9 C 34.9 14.4, 45.4 47.0, 39.4 61.2 C 55.4 80.9, 4.5 45.5, 4.6 35.1 Z" fill="hsl(106, 75%, 59%)" fill-opacity="0.46" stroke="none" stroke-width="5.11"  transform="translate(46.8 65.8) rotate(328.8) scale(0.95 1.08)" />
<rect x="37.3" y="13.3" width="37.2" height="27.5" rx="0" fill="hsl(106, 75%, 59%)" fill-opacity="0.48"   transform="translate(17.2 14.5) rotate(118.6) scale(1.01 0.55)" />
<rect x="39.2" y="67.2" width="23.5" height="27.0" rx="0" fill="none" fill-opacity="0.71"   transform="translate(42.2 53.7) rotate(344.4) scale(0.92 1.51)" />
<rect x="42.0" y="28.8" width="22.5" height="39.0" rx="0" fill="hsl(151, 70%, 62%)" fill-opacity="0.90" stroke="hsl(151, 70%, 62%)" stroke-width="4.5"  transform="translate(19.5 60.3) rotate(156.1) scale(1.93 1.52)" />
<path d="M 11.7 75.9 C 10.3 71.6, 37.3 87.6, 50.3 82.3 C 34.0 98.4, 31.2 16.6, 37.8 17.5 C 33.4 15.5, 87.1 4.5, 86.5 14.5 C 97.6 17.1, 25.3 58.1, 33.5 52.6 C 15.2 57.5, 35.7 69.9, 36.2 69.6 C 28.6 61.5, 17.7 68.5, 27.6 81.0 C 46.0 78.1, 81.9 36.2, 78.2 50.8 C 85.6 31.8, 0.0 36.9, 8.5 45.6 C 26.4 62.3, 63.2 59.2, 61.5 73.3 C 78.1 80.7, 27.2 85.1, 30.3 91.7 Z" fill="none" fill-opacity="0.39" stroke="hsl(104, 72%, 65%)" stroke-width="4.54"  transform="translate(98.0 55.5) rotate(156.0) scale(1.53 0.85)" />
<path d="M 37.4 53.3 C 18.4 49.7, 89.6 14.0, 95.1 8.4 C 82.1 6.3, 91.7 26.4, 91.5 21.3 C 100.0 36.4, 13.7 17.0, 14.2 21.4 C 9.4 8.9, 59.1 35.5, 58.9 32.7 C 78.2 36.2, 64.1 92.6, 52.1 95.7 C 61.8 95.4, 57.3 53.8, 57.3 46.3 Z" fill="hsl(86, 72%, 68%)" fill-opacity="0.73" stroke="none" stroke-width="5.05"  transform="translate(85.0 74.0) rotate(260.2) scale(1.21 1.95)" />
<circle cx="36.9" cy="70.3" r="17.1" fill="hsl(40, 53%, 69%)" fill-opacity="0.57"  transform="translate(18.6 35.2) rotate(212.6) scale(0.94 0.70)" />
<path d="M 69.3 43.0 C 73.6 36.8, 15.6 64.2, 14.4 51.1 C 12.5 50.7, 4.9 87.1, 15.2 95.9 C 1.0 100.0, 63.4 31.5, 58.3 41.0 C 62.7 45.6, 29.6 96.7, 36.2 87.9 C 48.0 87.8, 43.4 57.1, 30.4 67.5 C 43.9 69.4, 4.4 69.1, 14.7 65.8 C 10.0 50.6, 84.6 83.9, 78.2 78.4 Z" fill="hsl(322, 74%, 44%)" fill-opacity="0.85" stroke="none" stroke-width="3.02" filter="url(#f1)" transform="translate(56.5 72.2) rotate(85.4) scale(1.84 1.78)" />
<path d="M 0.4 8.9 C 16.2 11.7, 49.0 64.7, 35.8 52.7 C 32.0 40.6, 25.8 86.1, 31.4 85.6 C 30.5 89.4, 100.0 54.7, 86.9 54.1 C 94.4 52.8, 82.4 100.0, 86.8 93.0 C 72.0 100.0, 32.6 25.8, 44.6 38.2 C 46.2 47.4, 87.4 84.3, 80.9 96.0 C 91.5 87.4, 93.0 77.5, 94.2 82.5 C 100.0 78.8, 40.9 22.9, 53.1 18.5 C 68.0 25.5, 15.3 10.6, 6.3 18.4 C 0.0 7.4, 74.7 14.8, 75.4 18.5 Z" fill="none" fill-opacity="0.45" stroke="hsl(104, 72%, 65%)" stroke-width="3.89"  transform="translate(18.7 57.9) rotate(54.4) scale(1.37 1.31)" />
<path d="M 33.3 57.1 C 24.8 53.7, 8.7 11.2, 23.2 17.1 C 35.4 19.5, 31.4 22.9, 33.1 13.4 C 26.0 1.6, 43.1 94.3, 33.3 80.6 C 17.7 91.6, 51.4 21.1, 61.1 30.8 C 77.2 27.8, 87.2 75.4, 98.4 73.1 C 100.0 78.9, 50.3 79.9, 55.0 91.5 C 72.0 74.2, 35.0 48.5, 35.3 51.2 C 31.1 56.6, 85.1 58.1, 87.6 58.8 C 74.4 49.1, 0.0 22.0, 9.4 23.2 Z" fill="hsl(151, 70%, 62%)" fill-opacity="0.44" stroke="none" stroke-width="4.18"  transform="translate(90.0 39.5) rotate(182.8) scale(0.67 1.68)" />
<path d="M 10.0 89.1 C 30.0 93.0, 96.8 79.1, 95.3 77.4 C 88.0 86.0, 57.2 32.8, 58.0 22.0 C 71.8 21.4, 75.0 12.6, 77.3 2.6 C 76.4 17.3, 64.9 61.7, 71.5 66.5 C 75.7 50.3, 100.0 0.0, 98.4 8.4 C 100.0 2.7, 42.3 88.0, 38.9 89.7 C 29.2 79.3, 28.2 20.5, 15.6 26.2 C 13.1 10.0, 79.0 100.0, 84.9 89.6 Z" fill="none" fill-opacity="1.00" stroke="hsl(242, 72%, 49%)" stroke-width="1.25"  transform="translate(8.9 99.9) rotate(251.6) scale(1.74 1.88)" />
<path d="M 34.8 3.2 C 42.2 1.7, 6.5 16.8, 1.9 22.5 C 16.5 14.3, 54.4 76.6, 62.2 65.2 C 51.3 82.9, 78.9 18.7, 91.0 24.5 C 96.3 17.8, 32.5 19.9, 35.0 27.8 C 16.4 19.8, 99.1 49.0, 87.6 57.9 C 93.4 56.1, 86.7 83.2, 81.1 68.4 C 88.2 56.2, 100.0 67.8, 99.0 66.7 C 93.3 69.1, 0.0 0.0, 4.0 8.5 C 0.0 26.9, 22.2 100.0, 27.3 99.1 C 8.2 95.8, 0.1 51.5, 7.1 49.9 Z" fill="hsl(144, 86%, 72%)" fill-opacity="0.96" stroke="none" stroke-width="4.20" filter="url(#f1)" transform="translate(8.6 54.2) rotate(4.7) scale(1.47 1.80)" />
<circle cx="68.3" cy="28.1" r="3.7" fill="hsl(183, 71%, 60%)" fill-opacity="0.92"  transform="translate(39.2 90.3) rotate(128.8) scale(1.63 0.82)" />
<circle cx="69.9" cy="63.1" r="5.1" fill="url(#g2)" fill-opacity="0.49"   />
<g opacity="0.074">
<rect x="0" y="0" width="1" height="100" fill="black" />
<rect x="22" y="0" width="1" height="100" fill="black" />
<rect x="44" y="0" width="1" height="100" fill="black" />
<rect x="66" y="0" width="1" height="100" fill="black" />
<rect x="88" y="0" width="1" height="100" fill="black" />
<rect x="0" y="0" width="100" height="1" fill="black" />
<rect x="0" y="22" width="100" height="1" fill="black" />
<rect x="0" y="44" width="100" height="1" fill="black" />
<rect x="0" y="66" width="100" height="1" fill="black" />
<rect x="0" y="88" width="100" height="1" fill="black" />
</g>

</svg>
