<?xml version="1.0" encoding="UTF-8"?>
<svg xmlns="http://www.w3.org/2000/svg" width="100" height="100" viewBox="0 0 100 100">
<defs>
<linearGradient id="g0" x1="0%" y1="0%" x2="100%" y2="100%">
<stop offset="0.0%" stop-color="hsl(106, 75%, 59%)" />
<stop offset="33.3%" stop-color="hsl(183, 71%, 60%)" />
<stop offset="66.7%" stop-color="hsl(242, 72%, 49%)" />
<stop offset="100.0%" stop-color="hsl(322, 74%, 44%)" />
</linearGradient>
<linearGradient id="g1" x1="0%" y1="0%" x2="100%" y2="100%">
<stop offset="0.0%" stop-color="hsl(290, 83%, 63%)" />
<stop offset="33.3%" stop-color="hsl(2, 82%, 55%)" />
<stop offset="66.7%" stop-color="hsl(86, 72%, 68%)" />
<stop offset="100.0%" stop-color="hsl(83, 65%, 44%)" />
</linearGradient>
<linearGradient id="g2" x1="0%" y1="0%" x2="100%" y2="100%">
<stop offset="0.0%" stop-color="hsl(40, 53%, 69%)" />
<stop offset="33.3%" stop-color="hsl(104, 72%, 65%)" />
<stop offset="66.7%" stop-color="hsl(144, 86%, 72%)" />
<stop offset="100.0%" stop-color="hsl(151, 70%, 62%)" />
</linearGradient>
<filter id="f1" x="-20%" y="-20%" width="140%" height="140%">
  <feGaussianBlur stdDeviation="1.2053396889807637" />
</filter>

</defs>

<path d="M 68.2 10.7 C 58.3 21.1, 64.1 37.3, 56.1 48.8 C 45.8 58.3, 81.1 43.0, 91.1 50.0 C 96.0 65.1, 74.6 60.7, 64.3 57.5 C 54.4 37.8, 98.2 53.2, 92.3 59.2 C 73.9 40.8, 3.2 38.9, 2.8 34.3 C 5.2 48.7, 2.9 41.8, 14.9 27.8 C 0.0 14.9, 65.6 38.4, 76.1 32.3 C 93.0 35.2, 38.8 53.9, 38.3 48.0 Z" fill="hsl(2, 82%, 55%)" fill-opacity="0.71" stroke="none" stroke-width="1.36"  transform="translate(89.4 38.0) rotate(227.7) scale(0.91 1.88)" />
<circle cx="3.9" cy="70.0" r="13.3" fill="hsl(151, 70%, 62%)" fill-opacity="0.92"  transform="translate(84.9 96.5) rotate(33.8) scale(1.72 1.52)" />
<circle cx="68.3" cy="19.3" r="12.3" fill="url(#g2)" fill-opacity="0.43"  transform="translate(50.6 21.8) rotate(42.9) scale(1.11 1.31)" />
<circle cx="99.4" cy="94.5" r="3.4" fill="url(#g0)" fill-opacity="0.61" filter="url(#f1)" transform="translate(68.7 50.6) rotate(213.5) scale(1.08 0.94)" />
<path d="M 7.3 93.0 C 0.0 89.9, 82.6 78.3, 87.6 76.7 C 96.4 93.1, 71.4 61.2, 59.6 64.5 C 63.7 48.3, 37.9 47.9, 48.2 48.8 C 37.0 36.0, 78.7 52.7, 72.8 59.7 C 79.5 75.5, 54.4 26.8, 65.2 34.4 C 74.6 29.8, 70.3 84.2, 70.9 85.0 C 60.7 84.9, 70.1 52.3, 82.0 41.2 C 100.0 59.7, 53.5 41.9, 52.6 52.2 C 56.0 52.6, 100.0 74.9, 92.5 71.4 Z" fill="hsl(104, 72%, 65%)" fill-opacity="0.31" stroke="none" stroke-width="4.23" filter="url(#f1)" transform="translate(38.6 99.1) rotate(343.9) scale(0.66 1.33)" />
<path d="M 72.3 52.4 C 59.3 49.1, 22.9 0.0, 26.6 7.0 C 13.2 16.2, 6.1 35.3, 19.4 45.2 C 16.0 26.9, 66.3 38.1, 74.3 24.6 C 60.4 43.1, 61.2 4.9, 53.4 18.9 C 44.7 3.1, 11.0 78.1, 7.6 83.9 C 24.3 70.8, 71.3 41.9, 59.2 30.2 C 55.7 18.9, 65.1 17.0, 67.9 27.6 Z" fill="none" fill-opacity="0.48" stroke="hsl(242, 72%, 49%)" stroke-width="3.32"  transform="translate(28.3 73.1) rotate(0.9) scale(0.64 1.59)" />
<path d="M 54.2 61.6 C 40.3 73.0, 51.1 83.1, 57.3 72.0 C 56.2 58.7, 100.0 92.7, 90.2 98.7 C 100.0 80.3, 89.5 45.7, 76.9 44.9 C 69.2 39.9, 62.0 5.3, 56.5 5.3 C 73.0 10.5, 84.2 1.2, 87.8 12.8 C 100.0 21.0, 12.5 0.9, 2.4 9.2 C 0.0 1.0, 59.4 67.7, 54.8 59.4 C 57.3 50.2, 16.6 100.0, 25.6 97.2 C 29.5 100.0, 83.0 21.8, 70.1 24.6 C 74.0 35.9, 4.0 66.3, 3.3 78.0 Z" fill="hsl(322, 74%, 44%)" fill-opacity="0.99" stroke="none" stroke-width="5.04" filter="url(#f1)" transform="translate(40.8 54.0) rotate(84.9) scale(1.50 0.66)" />
<rect x="14.4" y="17.7" width="25.4" height="39.2" rx="8.2" fill="none" fill-opacity="0.21"   transform="translate(31.3 27.0) rotate(256.7) scale(1.38 0.80)" />
<rect x="30.1" y="56.6" width="30.8" height="18.8" rx="9.2" fill="hsl(242, 72%, 49%)" fill-opacity="0.86"   transform="translate(71.9 36.0) rotate(182.9) scale(0.95 0.64)" />
<circle cx="31.8" cy="36.2" r="15.3" fill="hsl(144, 86%, 72%)" fill-opacity="0.50"  transform="translate(74.6 76.7) rotate(174.6) scale(0.75 1.23)" />
<path d="M 27.9 72.1 C 20.4 69.1, 100.0 65.0, 93.2 76.6 C 87.0 92.2, 25.6 33.3, 18.6 36.4 C 11.5 18.3, 62.3 43.3, 58.7 48.8 C 53.3 65.0, 71.9 100.0, 59.4 94.9 C 76.4 85.6, 17.8 8.3, 29.7 2.3 C 14.6 0.6, 28.7 0.0, 16.2 11.1 C 11.1 23.5, 35.2 49.8, 43.0 53.4 C 29.5 52.2, 26.5 34.8, 25.4 45.4 C 24.2 49.7, 9.7 46.6, 24.6 56.2 Z" fill="none" fill-opacity="0.87" stroke="hsl(144, 86%, 72%)" stroke-width="3.22"  transform="translate(39.9 10.7) rotate(209.9) scale(1.89 1.66)" />
<path d="M 60.5 8.9 C 53.4 28.5, 78.6 72.4, 65.4 76.8 C 61.9 94.6, 74.1 40.8, 62.4 27.7 C 47.7 24.7, 14.8 30.1, 20.9 31.8 C 7.5 31.6, 0.0 0.0, 2.5 13.7 C 6.9 9.9, 95.6 33.1, 81.4 35.9 C 74.5 19.6, 1.8 53.0, 7.6 40.1 C 0.0 31.6, 87.3 21.4, 84.0 15.2 Z" fill="none" fill-opacity="0.59" stroke="hsl(322, 74%, 44%)" stroke-width="5.09"  transform="translate(18.8 71.8) rotate(113.1) scale(1.97 1.58)" />
<path d="M 46.5 51.9 C 29.0 47.9, 41.2 42.9, 42.8 28.1 C 57.7 30.5, 66.5 27.8, 68.6 13.1 C 70.2 25.1, 88.2 34.9, 73.8 20.1 C 80.3 24.3, 8.0 67.0, 10.3 74.3 C 8.1 77.6, 44.7 15.1, 38.5 20.8 C 46.3 7.2, 42.2 17.4, 42.4 20.3 Z" fill="hsl(106, 75%, 59%)" fill-opacity="0.38" stroke="none" stroke-width="4.88"  transform="translate(4.7 15.3) rotate(44.1) scale(0.59 1.38)" />
<circle cx="11.5" cy="41.5" r="9.7" fill="hsl(83, 65%, 44%)" fill-opacity="0.98"   />
<path d="M 15.1 13.6 C 0.0 8.4, 94.6 70.8, 88.2 84.0 C 100.0 69.6, 16.9 28.0, 19.6 17.9 C 7.7 24.1, 39.9 39.4, 28.8 35.5 C 14.4 17.0, 29.8 73.1, 20.1 61.5 C 7.4 48.0, 28.0 36.3, 40.8 43.8 C 44.7 33.4, 30.9 73.6, 40.0 65.4 C 54.0 72.5, 54.2 28.1, 50.8 36.7 C 65.6 37.5, 13.1 74.3, 21.1 75.0 C 19.3 78.5, 42.0 95.5, 32.4 88.4 C 20.7 87.0, 60.9 53.8, 46.0 57.0 Z" fill="none" fill-opacity="0.40" stroke="hsl(144, 86%, 72%)" stroke-width="1.84"  transform="translate(44.7 30.1) rotate(291.9) scale(0.53 1.24)" />
<path d="M 37.2 35.8 C 24.3 36.4, 44.3 12.3, 56.3 24.6 C 57.4 29.8, 49.5 24.0, 39.0 32.2 C 28.4 25.5, 67.4 29.5, 71.3 18.7 C 71.6 32.5, 81.4 49.4, 76.7 40.9 C 89.7 35.3, 80.9 9.6, 73.4 1.5 C 54.1 18.6, 53.0 47.3, 61.3 41.5 Z" fill="none" fill-opacity="0.63" stroke="hsl(2, 82%, 55%)" stroke-width="2.12"   />
<path d="M 45.8 78.9 C 60.3 73.4, 18.9 14.1, 12.6 16.5 C 0.0 36.2, 70.5 41.7, 65.2 40.0 C 84.2 51.9, 0.9 0.0, 12.9 0.8 C 0.0 19.2, 62.2 28.5, 55.8 34.1 C 70.0 32.2, 83.2 9.9, 79.0 18.4 C 87.1 13.9, 98.5 5.1, 98.7 7.9 C 100.0 17.2, 41.3 33.3, 47.4 25.0 C 58.1 6.5, 55.5 41.5, 48.5 52.0 C 56.2 48.7, 25.2 32.7, 26.8 39.0 Z" fill="none" fill-opacity="0.40" stroke="hsl(83, 65%, 44%)" stroke-width="2.80" filter="url(#f1)" transform="translate(65.4 2.0) rotate(10.0) scale(0.63 1.11)" />
<path d="M 71.1 58.5 C 58.1 50.1, 94.0 76.1, 81.3 64.6 C 93.7 71.5, 27.8 61.5, 34.9 76.4 C 27.0 62.1, 76.8 46.1, 90.5 59.1 C 91.7 61.4, 55.2 74.4, 67.4 60.6 C 53.7 41.5, 48.5 40.8, 56.5 46.8 C 60.0 66.0, 28.7 97.3, 18.6 90.8 C 30.7 78.0, 84.7 76.2, 97.7 61.6 C 100.0 71.0, 68.2 62.6, 83.2 70.2 C 97.3 62.6, 17.9 25.2, 20.3 12.1 Z" fill="none" fill-opacity="0.78" stroke="hsl(322, 74%, 44%)" stroke-width="0.81"  transform="translate(85.9 98.2) rotate(302.0) scale(1.98 0.92)" />
<path d="M 93.3 58.7 C 73.5 62.0, 62.0 51.2, 55.8 46.9 C 37.5 31.5, 6.9 19.3, 20.6 17.1 C 29.8 35.8, 56.9 30.7, 44.8 34.3 C 48.4 47.9, 69.5 60.9, 64.6 56.6 C 81.0 39.5, 26.9 75.5, 27.9 70.6 C 32.1 52.7, 7.9 39.1, 4.2 34.3 Z" fill="hsl(144, 86%, 72%)" fill-opacity="0.49" stroke="none" stroke-width="4.86" filter="url(#f1)" transform="translate(61.9 84.7) rotate(56.3) scale(1.51 1.83)" />
<circle cx="35.7" cy="14.4" r="10.4" fill="url(#g0)" fill-opacity="0.59"  transform="translate(55.1 87.3) rotate(3.4) scale(0.57 0.50)" />
<path d="M 72.6 34.7 C 61.7 32.5, 3.0 38.4, 16.9 33.9 C 23.9 22.9, 0.0 58.5, 6.6 49.0 C 0.0 62.7, 91.7 48.3, 93.1 46.5 C 76.1 46.5, 17.1 79.3, 20.4 92.8 C 21.6 93.0, 76.0 42.6, 91.0 45.7 C 92.3 56.8, 0.0 56.9, 10.8 48.2 Z" fill="hsl(242, 72%, 49%)" fill-opacity="0.47" stroke="none" stroke-width="2.15"  transform="translate(77.5 66.9) rotate(25.9) scale(0.66 1.97)" />
<circle cx="68.4" cy="15.9" r="14.4" fill="url(#g0)" fill-opacity="0.54"  transform="translate(99.4 88.0) rotate(352.5) scale(0.58 1.07)" />
<rect x="54.5" y="6.8" width="22.6" height="26.9" rx="18.2" fill="none" fill-opacity="0.40"    />
<rect x="55.3" y="50.8" width="24.8" height="29.3" rx="0" fill="hsl(290, 83%, 63%)" fill-opacity="0.25"   transform="translate(71.1 46.7) rotate(212.1) scale(1.76 1.28)" />
<rect x="35.9" y="63.9" width="42.5" height="18.0" rx="0" fill="none" fill-opacity="0.82" stroke="hsl(104, 72%, 65%)" stroke-width="2.5"  transform="translate(45.3 75.5) rotate(37.6) scale(1.03 0.64)" />
<path d="M 20.0 11.9 C 7.3 30.7, 17.5 43.3, 21.5 31.6 C 22.2 24.6, 48.4 24.6, 45.3 31.2 C 55.0 22.7, 11.8 31.9, 8.5 40.3 C 14.5 58.9, 79.9 34.9, 79.4 26.0 C 76.1 14.1, 44.4 61.8, 45.7 62.0 C 58.0 70.8, 55.6 10.9, 46.4 8.2 C 31.0 20.8, 75.4 78.9, 66.7 91.6 C 61.3 78.2, 38.8 47.8, 31.7 41.3 Z" fill="none" fill-opacity="0.68" stroke="hsl(106, 75%, 59%)" stroke-width="4.01"  transform="translate(83.2 50.0) rotate(323.1) scale(0.82 0.76)" />
<rect x="56.0" y="73.9" width="35.8" height="21.0" rx="0" fill="hsl(290, 83%, 63%)" fill-opacity="0.92" stroke="hsl(290, 83%, 63%)" stroke-width="1.9"  transform="translate(7.8 54.7) rotate(48.5) scale(1.69 0.93)" />
<path d="M 81.3 79.5 C 93.2 79.6, 69.9 80.0, 71.6 66.5 C 60.2 76.8, 51.5 80.9, 43.2 84.1 C 37.7 93.6, 28.7 84.7, 17.5 76.1 C 34.6 90.9, 15.4 61.1, 29.1 71.4 C 16.1 52.7, 68.1 50.0, 54.8 57.0 C 35.8 38.2, 8.0 88.5, 8.1 86.8 C 22.6 100.0, 85.1 40.5, 87.8 49.2 C 100.0 43.0, 64.1 90.5, 64.4 97.7 Z" fill="hsl(40, 53%, 69%)" fill-opacity="0.55" stroke="none" stroke-width="3.78"   />
<path d="M 22.6 46.3 C 3.2 28.9, 16.6 100.0, 13.5 98.3 C 0.4 100.0, 31.7 26.7, 25.6 21.2 C 21.1 38.1, 14.5 100.0, 4.7 97.2 C 8.9 100.0, 6.3 84.9, 20.5 89.2 C 9.9 93.8, 71.3 76.8, 81.0 63.3 C 97.3 51.0, 38.5 94.6, 44.4 97.3 C 29.1 89.9, 11.5 9.2, 7.2 20.6 C 26.3 32.2, 21.6 51.4, 32.5 49.9 C 46.1 69.8, 40.1 29.9, 27.0 34.9 C 33.5 17.3, 24.2 30.2, 19.3 19.6 " fill="none" fill-opacity="0.69" stroke="hsl(290, 83%, 63%)" stroke-width="1.02"  transform="translate(51.7 21.9) rotate(208.4) scale(0.96 0.70)" />
<path d="M 8.7 82.5 C 0.0 74.1, 88.2 91.4, 81.3 88.7 C 75.6 83.9, 87.8 44.4, 83.2 38.0 C 77.0 57.7, 87.1 55.3, 75.1 56.9 C 80.8 53.8, 4.1 73.3, 17.6 74.8 C 0.0 80.6, 73.5 29.1, 67.9 16.2 C 73.1 9.6, 57.6 76.6, 71.8 83.7 C 86.0 95.0, 71.5 76.3, 81.4 79.0 Z" fill="hsl(104, 72%, 65%)" fill-opacity="0.53" stroke="none" stroke-width="2.26"  transform="translate(78.3 82.6) rotate(120.2) scale(1.53 1.07)" />
<circle cx="83.7" cy="61.9" r="3.6" fill="hsl(86, 72%, 68%)" fill-opacity="0.61"  transform="translate(87.7 52.5) rotate(73.7) scale(1.79 1.67)" />
<rect x="31.0" y="18.6" width="33.2" height="20.5" rx="9.0" fill="hsl(106, 75%, 59%)" fill-opacity="1.00"   transform="translate(15.5 82.2) rotate(290.2) scale(1.74 1.31)" />
<rect x="69.6" y="73.9" width="27.5" height="15.6" rx="15.1" fill="hsl(40, 53%, 69%)" fill-opacity="0.55"   transform="translate(43.0 40.2) rotate(223.7) scale(0.75 0.62)" />
<rect x="32.5" y="31.6" width="46.8" height="22.9" rx="17.8" fill="none" fill-opacity="0.81"   transform="translate(62.8 89.4) rotate(260.6) scale(0.86 0.96)" />
<path d="M 0.0 36.1 C 0.0 16.4, 94.6 58.3, 81.3 44.4 C 95.7 29.6, 18.5 80.6, 18.8 77.5 C 4.7 73.6, 82.0 98.1, 67.1 99.2 C 77.2 100.0, 90.8 53.6, 94.4 42.9 C 100.0 54.4, 68.7 17.4, 65.7 6.7 C 72.1 0.0, 93.2 86.0, 82.4 73.2 C 88.9 72.4, 0.0 9.1, 3.1 20.2 C 1.9 31.5, 68.4 0.0, 71.1 3.8 Z" fill="hsl(83, 65%, 44%)" fill-opacity="0.53" stroke="none" stroke-width="4.03"  transform="translate(85.2 74.4) rotate(186.2) scale(1.00 0.84)" />
<path d="M 90.4 74.1 C 92.9 71.7, 54.3 51.3, 40.4 53.4 C 52.4 40.0, 64.7 29.8, 63.9 30.4 C 67.3 13.9, 32.2 21.2, 40.2 21.6 C 43.5 33.3, 88.5 71.9, 82.6 74.1 C 75.1 90.9, 28.7 81.6, 17.4 74.4 C 26.9 69.3, 2.0 0.0, 5.0 9.3 C 16.0 0.0, 22.8 32.1, 36.7 30.1 Z" fill="hsl(40, 53%, 69%)" fill-opacity="0.67" stroke="none" stroke-width="1.84"  transform="translate(46.4 33.5) rotate(239.7) scale(1.05 1.21)" />
<path d="M 85.2 51.4 C 74.9 60.1, 52.1 3.6, 37.8 9.4 C 57.4 26.3, 35.8 24.7, 21.6 22.8 C 21.3 5.9, 22.1 18.9, 12.8 5.0 C 26.5 4.6, 66.1 6.2, 79.1 4.5 C 84.0 21.2, 98.5 29.3, 87.6 18.4 C 75.0 13.1, 68.7 65.9, 59.2 74.8 C 41.1 58.3, 45.8 75.0, 44.8 71.6 " fill="hsl(86, 72%, 68%)" fill-opacity="0.75" stroke="none" stroke-width="4.39"  transform="translate(32.2 20.8) rotate(282.8) scale(1.87 0.59)" />
<path d="M 76.0 75.8 C 85.7 81.5, 40.4 21.4, 42.3 12.6 C 26.9 21.9, 76.6 77.6, 76.1 82.4 C 91.7 70.7, 44.4 100.0, 31.4 88.5 C 22.1 74.8, 77.2 25.7, 83.8 21.7 C 100.0 14.9, 49.2 37.8, 36.5 46.5 C 31.0 47.1, 11.0 64.2, 17.8 65.0 Z" fill="hsl(151, 70%, 62%)" fill-opacity="0.61" stroke="none" stroke-width="3.88"   />
<path d="M 11.1 33.9 C 19.0 40.9, 14.3 23.3, 2.3 9.6 C 0.0 3.4, 46.8 81.3, 53.9 74.7 C 49.8 56.1, 65.0 71.0, 53.1 64.8 C 39.2 58.1, 49.4 81.5, 63.8 80.7 C 53.0 73.0, 9.5 72.0, 2.2 86.7 C 0.0 100.0, 65.4 79.6, 67.5 65.8 C 76.4 75.1, 6.4 64.9, 10.7 51.6 C 15.4 39.0, 63.8 57.6, 78.3 60.4 C 92.6 52.2, 83.8 37.1, 97.9 44.3 Z" fill="none" fill-opacity="0.79" stroke="hsl(2, 82%, 55%)" stroke-width="4.49"  transform="translate(88.8 22.5) rotate(124.5) scale(1.62 0.63)" />
<rect x="56.1" y="43.6" width="40.2" height="12.8" rx="0" fill="hsl(144, 86%, 72%)" fill-opacity="0.36"   transform="translate(76.6 14.2) rotate(159.5) scale(0.59 1.13)" />
<rect x="6.9" y="48.8" width="40.3" height="36.7" rx="16.6" fill="none" fill-opacity="0.30"  filter="url(#f1)" transform="translate(97.9 7.8) rotate(96.3) scale(0.95 1.26)" />
<path d="M 35.4 72.6 C 50.0 56.9, 55.6 54.4, 46.2 56.9 C 52.8 73.7, 78.0 18.2, 64.2 17.5 C 69.3 4.8, 99.1 68.5, 90.8 63.3 C 87.2 78.1, 43.4 95.2, 46.0 81.5 C 52.5 77.6, 54.8 95.8, 65.4 87.0 C 53.5 94.6, 60.6 0.0, 74.4 8.0 C 71.0 22.5, 86.4 93.2, 73.2 80.8 " fill="hsl(183, 71%, 60%)" fill-opacity="0.35" stroke="none" stroke-width="2.27"  transform="translate(41.5 38.1) rotate(255.3) scale(1.53 0.67)" />
<rect x="53.8" y="10.1" width="21.8" height="31.7" rx="14.5" fill="hsl(290, 83%, 63%)" fill-opacity="0.61"   transform="translate(16.4 6.1) rotate(41.1) scale(1.41 1.84)" />
<path d="M 66.6 66.9 C 71.0 51.9, 14.4 0.0, 5.0 5.7 C 15.7 0.0, 0.0 39.3, 12.9 44.1 C 0.0 26.3, 83.5 12.5, 78.0 22.7 C 94.0 10.0, 37.8 36.9, 28.7 32.7 C 39.2 35.4, 18.1 82.6, 16.8 93.9 C 14.5 100.0, 34.2 62.3, 46.0 59.1 C 41.6 42.7, 21.4 67.5, 12.7 76.4 C 10.6 80.2, 59.8 87.7, 73.3 94.4 Z" fill="none" fill-opacity="0.95" stroke="hsl(104, 72%, 65%)" stroke-width="3.18"   />
<path d="M 32.0 68.7 C 39.0 70.2, 57.9 21.4, 60.9 13.9 C 43.4 6.4, 33.2 74.7, 36.1 83.7 C 42.3 79.1, 22.9 50.5, 34.3 58.3 C 31.9 57.5, 57.2 68.9, 64.7 61.9 C 54.9 48.7, 64.9 46.7, 74.1 34.7 C 65.3 52.0, 93.7 71.6, 94.5 74.0 C 79.0 72.3, 52.8 3.6, 61.5 17.5 C 73.9 13.3, 78.4 85.8, 88.2 97.7 C 78.7 100.0, 89.1 40.2, 79.6 43.8 Z" fill="hsl(104, 72%, 65%)" fill-opacity="0.36" stroke="none" stroke-width="2.56"  transform="translate(16.4 4.3) rotate(279.3) scale(1.37 1.77)" />
<circle cx="60.0" cy="67.5" r="11.6" fill="hsl(242, 72%, 49%)" fill-opacity="0.58"  transform="translate(90.5 2.0) rotate(301.7) scale(1.77 1.35)" />
<rect x="58.6" y="65.4" width="39.1" height="17.1" rx="0" fill="hsl(144, 86%, 72%)" fill-opacity="0.56"   transform="translate(46.2 41.0) rotate(247.2) scale(1.69 1.14)" />
<path d="M 69.2 45.0 C 69.8 30.8, 62.2 0.0, 52.5 7.6 C 36.8 9.2, 53.4 68.4, 57.4 66.6 C 73.6 61.0, 50.3 51.3, 59.3 64.5 C 48.4 74.2, 10.9 77.7, 19.1 86.2 C 30.4 99.1, 77.0 76.0, 64.9 67.4 C 63.9 66.9, 0.0 96.0, 2.4 82.4 C 19.9 72.2, 55.3 28.1, 53.4 27.6 C 37.8 14.8, 41.0 81.4, 44.1 74.3 C 25.4 65.0, 72.8 67.6, 79.6 76.6 C 88.2 59.6, 29.1 55.0, 25.8 47.2 Z" fill="hsl(86, 72%, 68%)" fill-opacity="0.98" stroke="none" stroke-width="3.30"  transform="translate(33.9 89.4) rotate(262.5) scale(1.40 1.78)" />
<path d="M 4.5 22.5 C 0.0 16.9, 25.9 98.8, 37.0 86.3 C 34.0 84.7, 27.3 69.2, 27.7 79.5 C 12.7 65.4, 67.4 21.3, 66.0 22.7 C 73.4 35.4, 80.4 72.5, 68.4 66.6 C 77.3 55.1, 36.9 43.8, 30.6 49.2 C 34.4 53.5, 32.6 91.2, 45.4 86.2 C 54.7 86.7, 33.1 48.5, 30.2 63.1 Z" fill="hsl(86, 72%, 68%)" fill-opacity="0.36" stroke="none" stroke-width="1.64"  transform="translate(42.4 5.3) rotate(230.7) scale(0.56 1.44)" />
<path d="M 14.8 94.4 C 21.5 100.0, 87.5 1.4, 81.7 1.5 C 75.6 0.0, 70.9 36.9, 66.2 25.1 C 72.5 31.7, 28.1 70.9, 35.2 58.7 C 36.1 44.6, 76.5 23.4, 78.9 21.4 C 72.6 36.1, 71.5 42.5, 75.2 49.5 C 93.8 66.9, 26.9 73.9, 23.1 64.6 C 37.6 56.8, 34.6 97.9, 32.0 92.5 Z" fill="hsl(83, 65%, 44%)" fill-opacity="0.62" stroke="none" stroke-width="5.22"  transform="translate(73.9 29.0) rotate(343.0) scale(1.08 1.11)" />
<rect x="16.2" y="60.6" width="49.0" height="30.2" rx="6.0" fill="hsl(183, 71%, 60%)" fill-opacity="0.58"   transform="translate(70.6 29.1) rotate(142.3) scale(0.63 1.18)" />
<rect x="63.1" y="45.3" width="31.9" height="24.4" rx="0" fill="hsl(83, 65%, 44%)" fill-opacity="0.95"   transform="translate(31.2 85.1) rotate(15.7) scale(0.69 0.95)" />
<circle cx="45.2" cy="81.2" r="13.8" fill="url(#g1)" fill-opacity="0.47"  transform="translate(88.2 13.6) rotate(55.6) scale(1.84 1.89)" />
<path d="M 79.7 99.0 C 65.6 100.0, 33.8 34.6, 23.7 37.0 C 43.5 17.4, 19.0 13.6, 6.9 19.2 C 25.4 37.3, 97.9 5.9, 82.9 11.7 C 68.8 15.1, 39.9 52.3, 28.9 53.9 C 24.2 34.8, 9.0 55.2, 20.0 67.8 C 28.5 65.2, 77.6 89.2, 73.7 97.3 Z" fill="none" fill-opacity="0.43" stroke="hsl(290, 83%, 63%)" stroke-width="3.43"   />
<circle cx="54.1" cy="97.3" r="4.6" fill="url(#g2)" fill-opacity="0.91"  transform="translate(66.5 12.5) rotate(122.4) scale(0.88 0.84)" />
<rect x="24.8" y="52.7" width="44.4" height="11.8" rx="0" fill="none" fill-opacity="0.28"   transform="translate(33.6 55.6) rotate(125.8) scale(0.57 0.91)" />
<path d="M 26.2 96.5 C 30.1 100.0, 16.9 88.3, 4.9 98.6 C 24.4 100.0, 80.1 64.9, 79.0 60.9 C 75.6 52.9, 5.5 17.2, 10.4 17.7 C 25.1 15.2, 71.3 79.1, 82.5 71.3 C 98.1 62.2, 75.3 0.0, 69.4 3.4 C 53.6 4.3, 13.5 65.6, 2.9 59.1 Z" fill="hsl(83, 65%, 44%)" fill-opacity="0.48" stroke="none" stroke-width="3.61"  transform="translate(98.6 28.8) rotate(32.5) scale(1.36 0.77)" />
<path d="M 40.5 3.6 C 43.6 1.4, 0.0 75.5, 4.1 61.6 C 7.8 74.6, 1.7 51.9, 15.3 56.8 C 5.2 51.5, 37.5 68.8, 34.1 71.1 C 42.8 68.9, 94.0 100.0, 86.0 96.3 C 100.0 95.8, 21.5 74.8, 20.5 88.9 C 26.1 82.4, 26.4 62.9, 32.8 73.8 C 29.4 82.7, 26.8 41.7, 16.0 31.5 C 29.7 32.1, 46.2 34.3, 43.8 41.6 C 41.2 26.1, 82.6 57.1, 69.1 62.4 C 54.8 54.3, 69.8 12.3, 71.3 0.4 Z" fill="hsl(2, 82%, 55%)" fill-opacity="0.37" stroke="none" stroke-width="4.32"   />
<path d="M 52.8 96.3 C 37.6 78.7, 86.4 35.0, 92.6 44.1 C 86.8 29.9, 29.0 56.4, 15.6 57.7 C 32.2 37.8, 97.2 49.7, 93.4 39.6 C 100.0 34.2, 37.8 35.0, 30.0 20.7 C 30.6 13.9, 72.1 37.9, 71.7 50.0 C 75.5 51.2, 2.1 38.1, 9.9 38.5 C 10.8 29.6, 79.1 88.5, 85.7 79.4 C 94.0 96.7, 6.1 46.2, 8.8 60.7 Z" fill="hsl(104, 72%, 65%)" fill-opacity="0.28" stroke="none" stroke-width="4.51" filter="url(#f1)" transform="translate(28.6 64.4) rotate(296.8) scale(1.10 0.58)" />
<rect x="64.6" y="27.0" width="33.2" height="19.5" rx="0" fill="hsl(106, 75%, 59%)" fill-opacity="0.31"   transform="translate(70.1 96.9) rotate(294.7) scale(1.49 1.29)" />
<path d="M 41.9 47.5 C 37.5 32.3, 35.4 45.1, 40.3 46.2 C 40.0 42.6, 80.2 68.1, 80.5 66.3 C 76.1 62.4, 38.1 37.2, 49.3 36.5 C 52.2 56.2, 58.2 87.6, 46.0 99.2 C 44.1 83.4, 0.0 60.8, 2.3 53.7 C 11.3 40.2, 28.0 67.8, 16.5 62.2 C 24.8 74.0, 31.3 42.2, 37.7 31.6 C 56.7 17.4, 42.5 82.1, 31.8 93.8 Z" fill="hsl(151, 70%, 62%)" fill-opacity="0.97" stroke="none" stroke-width="0.93"  transform="translate(27.7 61.1) rotate(66.6) scale(0.63 1.25)" />
<path d="M 6.5 13.5 C 5.3 19.4, 7.1 19.0, 8.0 6.4 C 0.6 3.5, 21.7 69.1, 13.6 67.8 C 4.4 75.0, 0.0 15.0, 3.0 6.3 C 8.0 14.8, 72.2 85.8, 70.1 75.6 C 67.4 77.9, 51.7 3.6, 58.5 11.6 C 69.6 25.0, 16.3 32.3, 3.8 37.6 C 0.0 38.0, 63.6 7.6, 70.9 18.4 C 69.4 32.1, 99.2 67.4, 86.1 69.4 Z" fill="hsl(2, 82%, 55%)" fill-opacity="0.45" stroke="none" stroke-width="4.27"  transform="translate(77.5 17.8) rotate(268.9) scale(0.60 1.78)" />
<circle cx="91.1" cy="34.2" r="3.2" fill="hsl(2, 82%, 55%)" fill-opacity="0.65"  transform="translate(91.3 14.2) rotate(63.4) scale(0.97 1.35)" />
<path d="M 51.8 86.7 C 63.7 86.0, 24.9 34.8, 17.7 47.0 C 22.6 44.8, 16.8 32.7, 28.7 28.3 C 44.3 10.6, 12.8 69.0, 22.1 66.1 C 39.5 66.0, 0.0 15.5, 0.8 12.9 C 19.5 0.0, 100.0 81.1, 87.1 80.1 C 78.0 88.7, 88.8 31.3, 80.4 39.6 C 87.6 48.3, 90.1 14.8, 78.0 1.5 C 68.0 11.9, 38.5 73.4, 41.8 66.8 C 24.1 84.7, 9.2 49.5, 5.3 46.5 Z" fill="none" fill-opacity="0.30" stroke="hsl(183, 71%, 60%)" stroke-width="3.49"  transform="translate(76.6 77.6) rotate(74.9) scale(0.90 0.70)" />
<circle cx="75.7" cy="86.4" r="2.8" fill="hsl(104, 72%, 65%)" fill-opacity="0.69"  transform="translate(87.9 97.1) rotate(96.4) scale(1.47 0.96)" />
<path d="M 41.0 30.1 C 59.9 17.7, 14.1 55.2, 24.4 58.0 C 7.9 60.5, 33.4 10.6, 34.9 18.1 C 32.3 27.5, 60.9 60.5, 56.1 69.8 C 74.6 64.9, 55.5 57.6, 60.9 64.7 C 64.7 82.7, 95.0 44.6, 85.3 46.1 C 98.2 44.7, 97.7 38.2, 93.2 50.0 C 88.5 37.7, 69.7 19.1, 58.0 31.8 C 51.7 28.7, 61.3 49.6, 68.2 40.4 C 86.3 41.2, 30.7 43.7, 33.5 47.3 Z" fill="none" fill-opacity="0.46" stroke="hsl(242, 72%, 49%)" stroke-width="3.36"  transform="translate(91.8 52.7) rotate(3.1) scale(0.69 1.86)" />
<rect x="2.7" y="2.9" width="31.3" height="13.4" rx="1.7" fill="none" fill-opacity="0.27"   transform="translate(96.7 29.6) rotate(160.9) scale(1.47 0.87)" />
<circle cx="98.6" cy="37.7" r="13.4" fill="hsl(242, 72%, 49%)" fill-opacity="0.67" filter="url(#f1)" transform="translate(47.3 41.0) rotate(187.8) scale(1.02 1.01)" />
<path d="M 67.0 9.6 C 67.8 0.0, 42.2 8.7, 46.4 5.8 C 60.1 24.9, 29.2 78.7, 21.6 70.6 C 3.0 52.0, 61.5 15.2, 57.7 21.0 C 56.1 22.3, 77.4 59.8, 66.6 71.4 C 69.7 73.1, 98.5 83.9, 93.2 87.5 C 94.4 78.3, 42.8 68.9, 46.0 78.5 " fill="hsl(151, 70%, 62%)" fill-opacity="0.85" stroke="none" stroke-width="5.07"  transform="translate(42.4 61.6) rotate(329.3) scale(1.24 0.58)" />
<rect x="45.9" y="60.2" width="50.0" height="16.5" rx="0" fill="none" fill-opacity="0.40"   transform="translate(10.7 33.0) rotate(313.0) scale(1.98 1.81)" />
<path d="M 32.4 69.5 C 40.3 60.5, 88.7 93.2, 81.7 99.5 C 99.0 100.0, 34.0 0.0, 34.1 4.1 C 32.1 0.0, 87.2 30.1, 84.8 41.7 C 82.3 47.1, 61.7 33.5, 61.1 28.8 C 48.9 29.9, 33.6 33.0, 29.1 42.2 C 34.5 34.5, 31.5 51.8, 26.7 46.1 Z" fill="none" fill-opacity="0.32" stroke="hsl(2, 82%, 55%)" stroke-width="3.41"  transform="translate(62.0 67.3) rotate(33.2) scale(1.69 1.00)" />
<rect x="45.5" y="42.9" width="39.5" height="14.8" rx="0" fill="none" fill-opacity="0.98"  filter="url(#f1)" transform="translate(55.6 86.5) rotate(187.2) scale(1.61 1.62)" />
<rect x="6.9" y="68.3" width="29.3" height="27.4" rx="0" fill="none" fill-opacity="0.41" stroke="hsl(104, 72%, 65%)" stroke-width="4.0"  transform="translate(2.4 21.3) rotate(321.6) scale(0.58 0.54)" />
<path d="M 89.5 26.9 C 89.9 20.5, 56.1 24.2, 67.9 34.8 C 57.9 31.3, 34.3 84.3, 45.7 70.3 C 35.1 85.3, 16.7 3.1, 7.9 12.0 C 0.0 0.0, 19.5 29.1, 21.9 43.1 C 19.4 47.7, 56.0 12.1, 64.6 0.9 C 49.9 0.0, 38.5 35.3, 52.0 33.6 Z" fill="hsl(106, 75%, 59%)" fill-opacity="0.39" stroke="none" stroke-width="2.81"   />
<path d="M 35.0 0.3 C 52.1 7.4, 26.4 31.0, 31.8 31.7 C 49.4 27.2, 87.1 41.6, 95.3 51.0 C 79.9 50.7, 14.4 54.4, 17.0 41.4 C 0.7 51.1, 4.6 47.5, 1.8 37.1 C 0.0 17.9, 77.2 21.7, 83.9 18.4 C 77.9 16.4, 40.7 1.1, 28.8 13.1 Z" fill="hsl(322, 74%, 44%)" fill-opacity="0.59" stroke="none" stroke-width="2.34"   />
<circle cx="17.4" cy="86.8" r="0.9" fill="hsl(242, 72%, 49%)" fill-opacity="0.61"  transform="translate(95.0 89.6) rotate(73.2) scale(1.71 0.64)" />
<path d="M 66.2 53.0 C 49.3 72.5, 94.6 9.5, 91.1 5.9 C 82.0 12.9, 88.5 39.6, 90.3 49.2 C 97.2 67.2, 15.4 83.7, 26.0 98.6 C 36.0 79.2, 74.9 61.8, 64.0 56.7 C 69.9 71.5, 78.8 82.0, 87.2 79.5 C 79.2 78.9, 56.6 57.1, 45.8 45.3 Z" fill="none" fill-opacity="0.73" stroke="hsl(40, 53%, 69%)" stroke-width="4.30"  transform="translate(60.7 6.9) rotate(231.3) scale(1.10 1.64)" />
<circle cx="3.3" cy="24.8" r="5.8" fill="url(#g1)" fill-opacity="0.87"  transform="translate(51.5 7.8) rotate(34.2) scale(1.14 1.90)" />
<circle cx="8.1" cy="40.4" r="0.1" fill="url(#g1)" fill-opacity="0.75"  transform="translate(63.0 71.2) rotate(113.2) scale(1.40 0.76)" />
<circle cx="4.4" cy="82.4" r="4.1" fill="url(#g1)" fill-opacity="0.88"  transform="translate(0.7 74.9) rotate(298.7) scale(0.94 1.46)" />
<path d="M 81.3 82.2 C 97.4 77.3, 90.3 13.9, 82.8 16.8 C 100.0 20.6, 57.8 97.8, 46.9 84.8 C 46.2 79.1, 41.3 75.3, 33.3 61.6 C 50.2 49.6, 60.7 24.5, 47.7 12.7 C 34.8 25.1, 74.2 0.3, 88.8 10.4 C 100.0 12.6, 15.2 43.3, 23.9 41.5 C 21.3 22.2, 45.1 38.6, 48.3 46.8 Z" fill="hsl(144, 86%, 72%)" fill-opacity="0.99" stroke="none" stroke-width="2.48"  transform="translate(57.5 78.4) rotate(269.3) scale(1.58 0.59)" />
<path d="M 33.4 3.1 C 18.2 0.0, 0.0 10.5, 8.1 6.0 C 0.6 25.7, 78.4 24.3, 87.0 28.4 C 87.8 29.6, 29.0 100.0, 34.1 88.5 C 19.6 75.5, 45.8 68.5, 35.4 77.4 C 23.7 67.9, 14.7 87.7, 7.3 74.8 C 0.0 81.2, 19.3 8.7, 20.8 1.7 C 11.2 0.0, 55.9 40.7, 70.0 53.2 Z" fill="none" fill-opacity="0.63" stroke="hsl(242, 72%, 49%)" stroke-width="4.75"  transform="translate(83.5 18.7) rotate(94.7) scale(0.82 0.57)" />
<path d="M 24.4 77.2 C 17.4 68.8, 100.0 79.0, 95.4 80.0 C 100.0 76.6, 71.8 26.1, 65.7 35.6 C 54.2 28.6, 45.2 28.8, 59.8 41.9 C 63.0 48.8, 20.0 13.5, 30.9 19.5 C 20.6 10.4, 96.7 46.0, 93.6 50.7 C 100.0 55.9, 55.4 70.3, 54.1 62.7 C 52.7 50.6, 40.2 4.5, 26.2 2.4 C 8.1 12.8, 27.1 21.0, 34.2 6.8 C 32.2 0.0, 9.8 27.7, 9.4 37.2 Z" fill="none" fill-opacity="0.77" stroke="hsl(290, 83%, 63%)" stroke-width="1.71"  transform="translate(91.9 66.5) rotate(137.7) scale(1.53 1.84)" />
<path d="M 43.2 84.6 C 50.1 77.0, 72.7 37.4, 61.4 43.1 C 76.8 58.5, 66.8 37.3, 64.4 43.0 C 46.3 50.4, 86.4 43.3, 78.4 56.1 C 84.6 70.5, 23.0 16.1, 24.4 1.2 C 13.7 15.6, 14.8 56.7, 14.8 61.6 C 23.0 74.5, 31.3 100.0, 25.5 98.3 C 37.8 99.1, 63.5 13.6, 53.1 5.8 C 38.7 20.0, 41.3 84.2, 52.4 92.9 C 47.5 97.4, 53.8 57.1, 64.0 71.4 C 47.9 91.2, 51.2 45.1, 56.1 35.4 Z" fill="none" fill-opacity="0.78" stroke="hsl(290, 83%, 63%)" stroke-width="4.19"  transform="translate(1.0 72.1) rotate(319.4) scale(0.88 1.76)" />
<rect x="38.2" y="43.7" width="39.0" height="14.8" rx="0" fill="hsl(104, 72%, 65%)" fill-opacity="0.97"   transform="translate(0.2 36.8) rotate(113.4) scale(0.89 0.75)" />
<circle cx="67.3" cy="39.7" r="10.4" fill="url(#g2)" fill-opacity="0.89"  transform="translate(41.2 86.7) rotate(214.6) scale(1.83 1.83)" />
<path d="M 55.5 82.0 C 62.1 74.6, 9.5 92.2, 20.2 80.2 C 26.8 98.3, 95.0 57.1, 94.6 46.0 C 98.1 58.1, 36.8 57.3, 39.9 66.8 C 39.4 79.4, 78.3 28.6, 86.5 41.6 C 82.5 37.5, 100.0 17.2, 98.0 14.6 C 94.3 15.5, 83.0 30.9, 76.2 24.2 Z" fill="hsl(86, 72%, 68%)" fill-opacity="0.60" stroke="none" stroke-width="4.36"  transform="translate(27.8 43.3) rotate(180.1) scale(1.03 1.99)" />
<path d="M 21.3 46.8 C 16.3 33.8, 34.5 81.0, 23.8 94.8 C 15.6 94.6, 43.1 34.4, 33.3 21.5 C 38.5 19.3, 9.8 100.0, 3.8 98.5 C 3.2 99.2, 88.8 67.3, 75.6 54.4 C 69.3 51.7, 8.6 17.3, 15.5 9.2 C 30.9 23.7, 23.0 26.0, 11.1 29.6 C 3.6 11.6, 93.3 71.9, 78.6 63.6 C 89.4 82.0, 86.2 31.9, 82.6 40.0 C 84.9 42.5, 69.1 5.3, 79.1 2.2 C 96.4 21.4, 54.4 98.0, 61.7 90.3 " fill="hsl(86, 72%, 68%)" fill-opacity="0.39" stroke="none" stroke-width="2.60"   />
<path d="M 16.9 77.3 C 1.8 89.4, 19.4 28.9, 13.2 23.6 C 32.8 29.4, 26.9 100.0, 14.7 93.2 C 33.9 100.0, 71.9 62.8, 78.5 64.0 C 70.6 56.9, 34.7 53.2, 35.9 50.2 C 35.6 57.2, 68.1 21.5, 79.5 31.8 C 74.3 16.5, 37.3 20.8, 27.0 15.5 C 11.3 32.0, 49.0 25.6, 40.1 24.4 C 55.3 27.1, 58.6 66.2, 49.0 62.0 C 51.9 46.9, 83.7 44.6, 78.9 55.5 Z" fill="hsl(40, 53%, 69%)" fill-opacity="0.32" stroke="none" stroke-width="5.20"  transform="translate(71.5 38.4) rotate(113.3) scale(0.92 1.48)" />
<path d="M 0.5 60.4 C 9.8 47.2, 81.1 0.0, 78.5 7.1 C 98.0 26.0, 77.2 31.6, 81.6 38.9 C 73.9 48.8, 38.9 58.8, 23.9 57.4 C 27.4 56.7, 56.8 88.7, 68.8 98.6 C 62.0 94.7, 88.3 9.2, 92.5 6.9 C 87.6 7.7, 3.6 49.4, 9.7 46.2 C 27.8 57.1, 53.7 65.7, 52.3 64.1 C 52.1 52.4, 0.0 30.9, 5.0 27.5 C 5.1 22.9, 40.5 20.5, 46.5 9.5 Z" fill="hsl(83, 65%, 44%)" fill-opacity="0.76" stroke="none" stroke-width="2.48"  transform="translate(13.1 51.3) rotate(118.9) scale(1.07 1.06)" />
<path d="M 70.8 35.6 C 90.2 37.5, 53.5 10.8, 57.4 16.2 C 53.2 35.3, 9.1 25.4, 8.6 16.5 C 11.1 24.9, 30.7 34.0, 38.0 21.4 C 53.0 9.1, 38.5 16.2, 28.2 27.7 C 33.4 8.2, 34.1 68.7, 45.9 57.3 C 39.1 49.4, 84.0 47.9, 74.4 61.6 C 57.0 64.0, 37.6 11.8, 32.4 25.2 C 30.2 10.3, 90.6 69.1, 90.0 59.6 C 88.0 65.2, 91.9 37.8, 80.2 33.3 Z" fill="hsl(151, 70%, 62%)" fill-opacity="0.51" stroke="none" stroke-width="2.65" filter="url(#f1)" transform="translate(0.5 66.9) rotate(177.8) scale(0.99 0.60)" />
<path d="M 28.7 38.3 C 23.9 20.6, 3.5 79.1, 11.8 85.3 C 6.0 100.0, 92.7 28.2, 91.0 35.3 C 81.4 55.1, 81.8 71.4, 87.0 83.4 C 100.0 72.6, 59.9 81.0, 74.1 84.8 C 77.6 96.1, 54.0 100.0, 60.0 93.8 C 42.9 96.4, 50.5 70.0, 42.6 56.4 C 40.0 51.4, 71.4 43.8, 67.6 32.8 C 74.4 37.1, 54.3 0.5, 54.4 1.0 Z" fill="hsl(86, 72%, 68%)" fill-opacity="0.90" stroke="none" stroke-width="4.44"   />
<path d="M 5.0 63.3 C 0.8 44.8, 34.6 35.8, 43.1 24.9 C 46.7 32.2, 14.0 29.6, 0.3 41.3 C 0.0 37.1, 13.8 97.7, 22.4 96.1 C 12.1 94.5, 37.2 65.8, 42.2 63.5 C 62.0 62.7, 12.6 81.9, 24.6 75.0 C 18.7 63.2, 82.0 77.1, 76.5 68.3 C 63.6 79.1, 86.0 16.1, 83.8 6.4 C 96.9 23.7, 75.5 66.8, 83.5 72.9 C 81.6 80.8, 9.5 18.5, 17.7 11.5 C 25.3 10.0, 0.0 74.0, 6.4 87.0 Z" fill="none" fill-opacity="0.42" stroke="hsl(83, 65%, 44%)" stroke-width="3.06"  transform="translate(98.2 10.8) rotate(346.8) scale(0.63 1.76)" />
<path d="M 29.6 75.0 C 46.9 90.2, 44.6 27.6, 57.6 22.5 C 70.1 38.2, 95.2 86.9, 86.5 85.3 C 86.1 100.0, 95.6 83.9, 92.8 93.2 C 100.0 100.0, 74.9 84.3, 78.5 84.6 C 95.7 94.0, 67.9 71.1, 66.5 66.0 C 75.0 47.2, 35.1 11.1, 30.9 18.9 C 46.1 2.4, 36.4 42.3, 47.0 43.1 C 46.1 24.5, 72.7 71.5, 58.9 82.9 Z" fill="hsl(104, 72%, 65%)" fill-opacity="0.41" stroke="none" stroke-width="1.73"  transform="translate(35.1 42.0) rotate(351.9) scale(1.06 1.16)" />
<path d="M 15.2 19.4 C 0.0 15.6, 22.0 25.6, 20.9 26.1 C 39.5 27.4, 70.1 55.1, 63.4 63.1 C 43.8 72.2, 20.8 0.0, 13.8 5.1 C 0.0 1.3, 30.6 0.0, 34.4 1.8 C 51.7 1.7, 3.1 37.9, 17.5 29.0 C 32.5 15.8, 50.9 55.6, 63.8 58.6 C 62.2 71.9, 32.6 17.7, 32.6 22.3 C 36.4 33.2, 26.7 0.0, 16.5 1.5 C 10.7 0.0, 23.4 44.2, 21.6 43.9 C 5.8 39.7, 64.1 26.3, 62.0 32.7 Z" fill="none" fill-opacity="0.63" stroke="hsl(144, 86%, 72%)" stroke-width="1.44"  transform="translate(72.4 13.4) rotate(188.2) scale(1.68 0.60)" />
<circle cx="3.7" cy="44.9" r="8.1" fill="url(#g1)" fill-opacity="0.54"  transform="translate(71.6 18.0) rotate(26.2) scale(1.52 0.51)" />
<path d="M 0.0 30.1 C 0.0 34.6, 53.0 86.1, 66.3 92.2 C 48.9 100.0, 32.7 34.8, 46.7 37.0 C 46.5 25.6, 57.0 33.7, 67.8 32.5 C 53.8 38.1, 77.1 0.0, 87.1 4.5 C 68.1 17.8, 36.8 0.8, 25.5 4.6 C 41.5 18.4, 79.5 60.2, 85.2 71.8 C 87.2 79.4, 0.0 13.8, 0.0 15.9 C 0.0 28.6, 29.7 78.6, 31.9 80.5 C 38.2 68.9, 2.6 49.2, 12.3 37.5 C 7.8 49.3, 65.6 25.2, 70.2 14.5 Z" fill="hsl(242, 72%, 49%)" fill-opacity="0.41" stroke="none" stroke-width="3.83"  transform="translate(17.7 29.0) rotate(168.3) scale(0.56 1.73)" />
<circle cx="93.6" cy="8.4" r="4.1" fill="hsl(86, 72%, 68%)" fill-opacity="0.62"  transform="translate(2.5 32.9) rotate(46.2) scale(1.45 1.99)" />
<path d="M 88.3 3.2 C 72.2 0.0, 0.0 5.9, 2.8 1.6 C 21.0 14.1, 91.5 78.6, 94.3 64.0 C 82.5 51.8, 21.5 70.9, 17.4 72.0 C 3.9 85.2, 77.2 56.2, 79.9 59.0 C 91.5 53.5, 36.5 30.1, 33.6 38.0 C 41.9 43.4, 58.0 61.7, 51.0 56.2 C 55.5 57.7, 76.0 5.9, 61.8 10.9 C 46.9 1.5, 100.0 33.3, 93.2 21.5 " fill="hsl(242, 72%, 49%)" fill-opacity="0.43" stroke="none" stroke-width="5.11"  transform="translate(18.2 76.7) rotate(322.4) scale(1.94 0.67)" />
<path d="M 51.9 99.0 C 44.0 99.5, 91.2 100.0, 97.2 95.5 C 89.0 100.0, 68.5 16.5, 73.9 18.5 C 62.5 23.0, 87.4 98.1, 92.6 85.1 C 100.0 100.0, 77.3 8.3, 73.7 10.9 C 70.4 6.9, 9.4 47.3, 4.2 53.3 C 0.0 34.6, 0.6 52.9, 4.6 56.9 C 14.4 70.7, 20.9 27.6, 10.3 26.7 C 0.0 41.6, 89.5 63.8, 82.8 64.2 C 73.2 64.2, 80.8 8.7, 85.5 11.3 Z" fill="hsl(104, 72%, 65%)" fill-opacity="0.66" stroke="none" stroke-width="4.18"  transform="translate(42.5 75.3) rotate(317.2) scale(1.79 0.61)" />
<path d="M 39.1 81.2 C 26.3 62.2, 16.5 43.4, 22.9 43.4 C 20.0 61.4, 28.9 67.2, 30.3 55.6 C 36.1 73.3, 70.5 21.7, 84.0 21.7 C 71.0 21.2, 88.1 82.2, 90.0 87.6 C 100.0 89.9, 80.9 76.1, 84.3 76.1 C 95.5 78.8, 33.8 35.1, 29.3 37.8 C 11.8 39.3, 91.4 63.7, 97.9 72.1 C 99.3 73.4, 65.6 29.8, 58.9 28.8 C 66.2 32.6, 94.5 23.0, 92.6 20.0 C 100.0 2.7, 63.9 48.0, 49.9 48.8 Z" fill="hsl(242, 72%, 49%)" fill-opacity="0.81" stroke="none" stroke-width="3.10"  transform="translate(79.2 17.8) rotate(130.3) scale(0.83 1.35)" />
<path d="M 46.4 31.3 C 42.1 49.9, 53.2 58.4, 54.6 56.5 C 69.5 45.5, 8.0 22.8, 12.0 8.1 C 6.1 15.0, 91.4 40.7, 82.9 26.0 C 100.0 17.3, 19.0 78.5, 20.7 75.6 C 20.2 65.6, 76.6 14.2, 65.8 26.2 C 68.8 19.8, 67.2 41.0, 69.2 52.7 C 76.1 43.8, 18.4 93.6, 10.9 89.2 C 25.0 76.5, 98.4 89.8, 99.0 86.3 C 90.8 98.3, 25.5 10.1, 31.5 10.5 Z" fill="none" fill-opacity="0.57" stroke="hsl(2, 82%, 55%)" stroke-width="2.05"  transform="translate(32.0 82.7) rotate(62.4) scale(1.01 1.11)" />
<path d="M 76.4 55.5 C 66.1 57.1, 17.0 97.0, 16.3 95.8 C 24.8 83.2, 96.3 86.3, 90.0 98.6 C 85.4 100.0, 44.7 82.1, 57.9 89.2 C 72.5 79.7, 9.0 84.2, 9.1 76.1 C 0.0 92.6, 66.2 13.4, 64.0 18.7 C 70.5 7.4, 13.2 48.0, 6.5 42.3 C 23.8 38.5, 91.6 3.0, 81.4 8.7 C 91.0 16.4, 100.0 48.7, 97.0 52.0 C 96.5 58.3, 26.7 38.5, 33.3 34.7 C 33.7 51.9, 85.7 17.8, 78.8 19.7 Z" fill="hsl(40, 53%, 69%)" fill-opacity="0.54" stroke="none" stroke-width="3.34" filter="url(#f1)" transform="translate(2.9 7.1) rotate(240.7) scale(0.83 0.79)" />
<circle cx="24.9" cy="63.2" r="16.9" fill="hsl(183, 71%, 60%)" fill-opacity="0.53"   />
<circle cx="51.3" cy="53.3" r="11.1" fill="hsl(183, 71%, 60%)" fill-opacity="0.86"  transform="translate(61.6 96.5) rotate(335.0) scale(1.97 1.01)" />
<path d="M 4.2 56.8 C 0.0 75.9, 0.0 80.5, 2.8 89.6 C 16.5 85.6, 67.3 86.5, 81.1 76.7 C 68.4 67.0, 83.6 11.0, 69.6 1.4 C 54.4 0.0, 48.4 96.6, 36.7 86.1 C 28.9 75.6, 19.2 79.3, 12.8 75.5 C 25.8 55.7, 15.3 18.7, 23.4 17.9 C 12.0 32.5, 88.4 60.4, 90.8 45.7 Z" fill="none" fill-opacity="0.33" stroke="hsl(242, 72%, 49%)" stroke-width="1.72"  transform="translate(34.9 68.1) rotate(307.7) scale(1.55 0.98)" />
<rect x="30.9" y="48.3" width="42.3" height="31.8" rx="16.8" fill="hsl(40, 53%, 69%)" fill-opacity="0.54"   transform="translate(68.0 26.9) rotate(89.3) scale(0.82 1.64)" />
<path d="M 25.8 90.0 C 10.8 100.0, 30.0 79.2, 41.6 90.2 C 23.4 81.6, 2.2 69.7, 16.1 57.4 C 34.4 45.4, 43.4 60.9, 56.3 65.3 C 48.3 81.1, 0.0 58.8, 1.6 69.0 C 13.5 72.4, 49.1 47.5, 50.1 41.0 C 34.7 40.7, 88.0 37.4, 94.7 23.1 C 99.8 36.7, 24.1 74.4, 26.9 66.4 C 8.0 59.5, 55.8 90.0, 42.2 98.4 Z" fill="hsl(183, 71%, 60%)" fill-opacity="0.42" stroke="none" stroke-width="1.14"  transform="translate(94.6 19.3) rotate(181.2) scale(1.20 0.86)" />
<circle cx="81.9" cy="51.8" r="5.7" fill="url(#g1)" fill-opacity="0.55"  transform="translate(76.4 9.9) rotate(240.2) scale(0.88 1.88)" />
<path d="M 79.7 60.5 C 81.2 79.2, 40.0 29.1, 50.2 28.8 C 47.4 9.2, 45.0 35.2, 41.3 46.6 C 24.3 57.4, 56.5 51.6, 48.2 49.0 C 56.9 68.8, 54.5 0.0, 39.7 2.2 C 41.8 12.6, 84.5 57.5, 96.1 60.9 C 83.2 46.5, 98.8 57.0, 92.9 69.0 Z" fill="hsl(2, 82%, 55%)" fill-opacity="0.91" stroke="none" stroke-width="1.98"  transform="translate(81.8 50.9) rotate(26.6) scale(1.17 1.01)" />
<path d="M 24.4 66.8 C 36.6 71.4, 89.0 43.1, 93.4 42.2 C 85.0 47.9, 8.6 65.0, 1.4 55.4 C 18.0 43.5, 83.0 53.6, 72.3 39.0 C 77.7 57.1, 66.2 74.4, 75.8 74.0 C 57.8 59.3, 58.4 78.0, 44.1 78.2 C 50.0 72.1, 87.1 79.3, 97.6 72.7 C 100.0 89.3, 91.4 93.1, 98.7 93.1 C 82.8 100.0, 44.7 100.0, 40.4 88.7 Z" fill="hsl(2, 82%, 55%)" fill-opacity="0.37" stroke="none" stroke-width="4.02"  transform="translate(80.0 1.4) rotate(315.6) scale(1.36 1.15)" />
<path d="M 28.5 82.7 C 47.3 85.6, 12.8 47.8, 2.9 60.4 C 0.0 47.0, 92.5 82.6, 90.9 70.7 C 87.3 86.5, 47.2 3.3, 37.5 14.6 C 37.3 17.0, 52.4 52.8, 58.0 44.1 C 47.3 37.2, 92.2 60.5, 96.4 74.7 C 83.0 63.7, 92.7 64.9, 91.8 65.6 C 84.5 83.8, 87.3 85.8, 83.8 99.8 C 67.3 100.0, 35.6 44.4, 31.8 58.7 C 34.9 40.7, 12.7 8.3, 26.8 6.3 Z" fill="hsl(86, 72%, 68%)" fill-opacity="0.75" stroke="none" stroke-width="3.62"  transform="translate(52.0 58.2) rotate(199.0) scale(1.73 1.05)" />
<path d="M 71.9 29.0 C 81.5 22.7, 85.8 79.4, 81.6 73.1 C 76.1 77.0, 3.6 83.3, 0.3 78.3 C 0.0 83.9, 15.8 66.2, 9.1 56.3 C 23.7 61.4, 11.9 76.6, 19.9 89.2 C 38.3 100.0, 76.0 31.3, 79.3 33.7 C 75.7 26.9, 58.5 51.4, 68.5 58.7 Z" fill="hsl(151, 70%, 62%)" fill-opacity="0.46" stroke="none" stroke-width="3.84"  transform="translate(59.3 68.6) rotate(195.1) scale(0.67 1.38)" />
<rect x="27.0" y="65.1" width="39.2" height="20.5" rx="11.1" fill="none" fill-opacity="0.56"   transform="translate(46.6 12.6) rotate(86.6) scale(0.85 1.38)" />
<path d="M 40.9 7.0 C 44.5 0.0, 18.6 43.1, 17.1 46.8 C 21.8 59.5, 41.6 98.3, 44.2 99.2 C 37.7 99.9, 23.1 83.3, 19.0 69.0 C 4.7 70.9, 40.7 7.5, 55.4 14.6 C 56.3 16.9, 47.5 63.4, 52.4 55.2 C 55.7 74.1, 69.9 84.3, 63.3 97.4 C 45.5 92.7, 66.9 63.6, 60.4 62.1 C 72.4 80.7, 31.8 13.1, 31.1 9.1 C 25.9 0.0, 42.7 60.9, 57.6 52.9 C 54.0 40.4, 80.5 13.4, 74.3 9.3 Z" fill="none" fill-opacity="0.26" stroke="hsl(242, 72%, 49%)" stroke-width="1.45"  transform="translate(89.3 0.5) rotate(82.1) scale(1.89 1.60)" />
<path d="M 26.1 12.2 C 16.4 15.9, 100.0 100.0, 86.7 87.8 C 67.1 84.4, 9.2 93.1, 3.5 89.9 C 0.0 100.0, 66.0 70.6, 69.1 65.3 C 74.0 82.7, 8.8 16.5, 13.6 27.2 C 23.5 28.0, 90.1 0.0, 99.0 3.4 C 100.0 17.3, 70.3 10.4, 67.6 4.6 C 69.4 12.1, 72.5 39.8, 72.6 48.1 Z" fill="hsl(40, 53%, 69%)" fill-opacity="0.94" stroke="none" stroke-width="2.69" filter="url(#f1)"  />
<path d="M 85.1 80.6 C 84.5 76.8, 0.0 14.8, 7.3 20.5 C 0.0 25.4, 61.9 64.4, 65.5 63.4 C 60.9 79.8, 16.3 20.9, 14.6 17.0 C 27.1 36.7, 0.0 55.3, 6.7 56.7 C 21.3 42.7, 56.4 82.8, 63.9 76.9 C 72.5 57.8, 0.0 85.9, 6.7 78.6 C 15.9 90.0, 100.0 74.1, 98.4 64.5 C 98.8 49.0, 34.2 53.6, 46.4 47.3 Z" fill="none" fill-opacity="0.80" stroke="hsl(290, 83%, 63%)" stroke-width="2.29"  transform="translate(32.1 97.7) rotate(84.9) scale(1.12 1.54)" />
<path d="M 74.7 86.8 C 86.9 85.2, 14.3 32.1, 5.3 23.7 C 14.5 18.1, 43.3 90.5, 28.8 86.2 C 33.9 84.6, 95.3 64.2, 95.0 67.6 C 100.0 68.2, 81.4 41.1, 75.7 47.7 C 66.8 33.2, 45.7 53.7, 58.3 55.5 C 74.9 48.7, 11.8 0.1, 17.5 1.8 C 0.0 17.9, 93.9 70.3, 83.0 57.1 C 91.3 75.2, 23.7 74.4, 36.2 88.8 C 53.7 74.1, 44.2 81.8, 48.9 74.5 Z" fill="hsl(40, 53%, 69%)" fill-opacity="0.99" stroke="none" stroke-width="4.45" filter="url(#f1)" transform="translate(5.0 15.0) rotate(194.6) scale(1.92 1.98)" />
<path d="M 89.0 26.5 C 95.7 40.6, 40.9 61.6, 42.2 48.4 C 26.0 52.2, 36.5 50.1, 42.9 36.8 C 61.3 26.5, 42.1 28.1, 48.0 39.8 C 44.4 38.1, 85.1 5.8, 99.0 0.3 C 81.3 0.0, 36.2 48.6, 42.2 51.2 C 39.4 38.1, 100.0 98.6, 93.6 96.0 C 100.0 79.3, 0.0 50.3, 13.8 36.3 C 13.5 32.5, 13.6 65.8, 19.0 53.1 Z" fill="none" fill-opacity="0.99" stroke="hsl(104, 72%, 65%)" stroke-width="0.89"  transform="translate(78.8 29.4) rotate(336.9) scale(0.70 1.63)" />
<path d="M 13.0 92.4 C 0.0 80.9, 74.5 75.2, 70.4 87.5 C 78.0 70.2, 31.6 4.5, 24.0 13.4 C 32.0 23.9, 64.1 77.1, 71.9 72.7 C 77.5 89.1, 59.8 95.1, 71.4 81.6 C 61.1 75.5, 95.4 13.9, 93.5 17.8 C 95.8 18.0, 17.9 87.4, 15.8 89.7 C 16.1 72.3, 77.2 58.7, 88.1 46.8 Z" fill="hsl(86, 72%, 68%)" fill-opacity="0.33" stroke="none" stroke-width="1.33"   />
<path d="M 0.3 34.7 C 5.2 46.2, 93.3 31.8, 99.4 34.1 C 100.0 24.5, 85.0 0.0, 80.2 11.7 C 73.1 4.3, 90.7 84.7, 82.1 92.4 C 84.5 100.0, 100.0 21.2, 90.6 24.8 C 96.6 26.7, 6.3 72.4, 0.9 77.2 C 19.7 71.4, 68.9 72.5, 80.9 64.3 C 73.2 68.4, 85.9 11.0, 71.3 6.6 C 66.2 6.8, 68.2 53.9, 68.1 60.2 C 79.3 57.2, 17.8 78.2, 17.7 92.9 Z" fill="hsl(106, 75%, 59%)" fill-opacity="0.40" stroke="none" stroke-width="3.38"  transform="translate(54.8 72.3) rotate(174.6) scale(0.54 1.77)" />
<path d="M 6.9 87.3 C 0.0 95.3, 100.0 34.4, 94.6 34.3 C 97.4 44.4, 22.9 48.8, 36.3 54.6 C 38.6 70.1, 20.3 36.7, 6.9 32.0 C 0.0 30.1, 45.0 55.3, 42.4 60.5 C 47.6 65.8, 92.6 92.3, 79.5 83.4 C 90.5 64.0, 10.2 33.4, 23.0 45.0 C 21.6 45.1, 0.0 9.0, 5.1 20.9 C 10.3 4.6, 62.3 0.0, 69.8 2.3 C 60.5 11.7, 53.2 92.7, 55.6 97.4 Z" fill="hsl(151, 70%, 62%)" fill-opacity="0.69" stroke="none" stroke-width="3.02"   />
<rect x="40.7" y="22.9" width="35.2" height="33.9" rx="5.4" fill="none" fill-opacity="0.41"   transform="translate(96.8 28.8) rotate(25.6) scale(1.85 0.61)" />
<path d="M 22.1 95.3 C 4.8 90.2, 17.4 71.8, 32.3 78.1 C 51.6 94.7, 57.5 41.1, 57.9 38.2 C 69.1 36.9, 26.8 32.0, 19.7 24.3 C 20.6 22.4, 17.9 36.7, 21.1 24.4 C 13.0 39.6, 87.8 61.6, 82.9 59.3 C 63.2 72.9, 100.0 33.9, 97.8 40.1 C 100.0 50.9, 22.0 18.7, 32.4 6.1 C 30.6 16.6, 79.0 97.3, 90.9 88.7 C 84.7 100.0, 65.4 91.7, 73.8 92.8 Z" fill="none" fill-opacity="0.98" stroke="hsl(86, 72%, 68%)" stroke-width="1.23"  transform="translate(7.3 6.7) rotate(90.7) scale(0.89 1.95)" />
<path d="M 31.0 55.6 C 11.9 38.8, 71.4 51.2, 61.4 61.3 C 49.1 74.6, 82.3 92.0, 81.7 85.9 C 90.9 100.0, 55.1 64.3, 40.6 64.1 C 29.7 63.1, 39.0 27.9, 50.5 22.9 C 64.3 29.4, 73.3 100.0, 69.7 95.4 C 77.9 100.0, 100.0 66.6, 90.2 74.1 C 74.8 90.3, 100.0 39.0, 97.3 34.0 Z" fill="none" fill-opacity="0.60" stroke="hsl(151, 70%, 62%)" stroke-width="2.94"  transform="translate(74.1 35.2) rotate(289.7) scale(0.77 1.44)" />
<path d="M 83.6 46.2 C 100.0 59.4, 87.4 100.0, 91.5 99.8 C 73.0 100.0, 27.5 94.0, 41.6 82.1 C 41.7 92.9, 77.7 54.7, 73.5 66.5 C 82.2 46.6, 34.0 26.5, 46.7 24.6 C 28.8 4.9, 66.4 48.5, 62.5 39.0 C 79.5 36.3, 33.5 22.7, 41.4 17.5 C 48.1 24.6, 87.6 18.8, 95.7 6.2 C 79.6 15.0, 11.2 0.0, 1.8 6.0 C 0.0 4.4, 0.0 14.1, 0.8 20.1 C 0.0 2.5, 76.9 82.1, 68.6 92.2 Z" fill="none" fill-opacity="0.65" stroke="hsl(40, 53%, 69%)" stroke-width="3.60" filter="url(#f1)" transform="translate(45.7 12.7) rotate(89.9) scale(0.82 0.81)" />
<circle cx="32.7" cy="99.2" r="0.0" fill="hsl(2, 82%, 55%)" fill-opacity="0.98"  transform="translate(67.3 16.7) rotate(95.0) scale(1.45 1.88)" />
<circle cx="17.7" cy="32.8" r="6.3" fill="url(#g2)" fill-opacity="0.72" filter="url(#f1)" transform="translate(65.6 89.1) rotate(124.3) scale(1.28 1.34)" />
<rect x="30.8" y="52.0" width="22.2" height="37.1" rx="0" fill="hsl(290, 83%, 63%)" fill-opacity="0.48"    />
<circle cx="27.3" cy="78.3" r="10.0" fill="url(#g0)" fill-opacity="0.67"  transform="translate(20.2 83.5) rotate(276.4) scale(1.81 1.67)" />
<path d="M 60.9 93.4 C 46.0 89.2, 54.8 17.3, 63.9 4.0 C 76.5 0.2, 100.0 92.4, 88.8 89.7 C 81.1 96.3, 18.9 81.1, 23.8 90.7 C 33.6 100.0, 46.4 15.4, 41.4 21.4 C 57.6 22.8, 20.9 56.5, 7.9 52.4 C 22.0 57.7, 3.2 51.4, 17.4 49.7 C 0.6 35.5, 34.0 88.7, 36.6 75.3 C 27.1 57.5, 19.2 97.0, 20.4 82.6 C 39.5 97.3, 0.0 21.5, 7.3 21.8 Z" fill="hsl(2, 82%, 55%)" fill-opacity="0.50" stroke="none" stroke-width="3.40"  transform="translate(77.9 87.8) rotate(315.3) scale(1.52 0.88)" />
<rect x="40.2" y="67.2" width="38.3" height="11.7" rx="0" fill="none" fill-opacity="0.35" stroke="hsl(106, 75%, 59%)" stroke-width="3.1"  transform="translate(8.4 22.4) rotate(176.9) scale(1.83 1.05)" />
<path d="M 18.6 21.5 C 26.5 9.6, 74.7 27.3, 85.8 41.4 C 100.0 29.7, 33.7 42.6, 34.7 53.1 C 21.6 57.8, 30.7 9.7, 26.7 1.1 C 42.6 17.1, 81.8 72.5, 69.7 62.5 C 83.6 54.5, 97.8 94.2, 97.6 97.2 C 100.0 100.0, 0.0 84.5, 2.9 98.7 Z" fill="none" fill-opacity="0.45" stroke="hsl(183, 71%, 60%)" stroke-width="1.60"  transform="translate(41.8 31.1) rotate(190.4) scale(1.95 1.55)" />
<path d="M 15.1 47.9 C 19.0 59.0, 48.1 96.5, 40.6 97.0 C 46.5 100.0, 33.7 30.0, 27.9 27.2 C 42.3 12.8, 33.7 0.4, 24.2 8.1 C 41.2 0.0, 49.2 37.4, 39.3 34.8 C 29.2 26.6, 77.1 51.3, 89.6 46.6 C 88.6 37.9, 82.6 90.4, 91.0 87.4 Z" fill="hsl(106, 75%, 59%)" fill-opacity="0.78" stroke="none" stroke-width="2.79" filter="url(#f1)" transform="translate(48.4 79.5) rotate(240.9) scale(0.63 1.41)" />
<path d="M 46.5 39.5 C 34.8 38.0, 63.6 76.9, 60.0 75.8 C 53.0 92.1, 69.8 89.0, 66.5 92.3 C 54.8 81.0, 0.5 41.8, 14.2 32.9 C 1.6 36.3, 77.2 100.0, 69.1 93.4 C 67.6 88.7, 32.1 39.5, 41.7 44.5 C 41.3 26.0, 97.2 23.6, 83.0 16.0 C 74.6 14.3, 30.8 83.8, 26.4 75.9 Z" fill="hsl(242, 72%, 49%)" fill-opacity="0.91" stroke="none" stroke-width="1.30" filter="url(#f1)" transform="translate(96.8 91.3) rotate(357.4) scale(0.99 1.04)" />
<path d="M 8.0 2.6 C 0.0 19.1, 89.1 100.0, 87.4 99.8 C 81.6 100.0, 80.2 88.9, 74.3 79.7 C 93.4 68.8, 12.3 85.9, 12.1 92.6 C 0.0 90.1, 35.2 43.4, 20.5 28.7 C 3.0 14.8, 36.8 16.5, 37.8 22.2 C 34.4 24.1, 78.5 35.8, 66.2 33.2 C 78.5 18.0, 60.6 56.6, 73.7 42.2 Z" fill="hsl(104, 72%, 65%)" fill-opacity="0.72" stroke="none" stroke-width="3.57"  transform="translate(53.9 30.2) rotate(354.8) scale(1.95 0.77)" />
<rect x="60.9" y="24.5" width="30.2" height="36.8" rx="0" fill="hsl(322, 74%, 44%)" fill-opacity="0.85"   transform="translate(32.2 69.7) rotate(295.0) scale(0.84 2.00)" />
<rect x="45.4" y="1.0" width="45.3" height="23.8" rx="0" fill="none" fill-opacity="0.91" stroke="hsl(83, 65%, 44%)" stroke-width="2.9"  transform="translate(14.1 35.9) rotate(118.5) scale(1.67 1.83)" />
<rect x="44.6" y="4.4" width="48.4" height="39.9" rx="1.3" fill="hsl(40, 53%, 69%)" fill-opacity="0.56" stroke="hsl(144, 86%, 72%)" stroke-width="3.8"  transform="translate(91.5 73.3) rotate(58.3) scale(1.98 1.30)" />
<rect x="67.4" y="50.3" width="20.9" height="31.2" rx="4.5" fill="none" fill-opacity="0.71"   transform="translate(48.8 36.1) rotate(41.4) scale(1.18 1.98)" />
<path d="M 47.1 51.3 C 43.2 31.4, 51.6 100.0, 50.4 95.5 C 61.1 83.6, 3.9 75.6, 16.7 79.1 C 35.8 70.2, 72.1 28.2, 74.9 23.6 C 64.9 36.3, 5.2 14.3, 7.8 22.3 C 25.3 3.0, 22.4 26.3, 17.2 22.4 C 8.9 7.9, 75.5 48.0, 86.3 46.8 C 70.9 31.7, 99.2 50.7, 97.5 35.8 C 100.0 35.0, 36.6 80.2, 36.6 83.3 C 19.2 90.1, 89.2 66.4, 93.3 52.2 C 100.0 63.8, 61.5 32.4, 52.0 21.7 Z" fill="none" fill-opacity="0.68" stroke="hsl(106, 75%, 59%)" stroke-width="1.07"  transform="translate(80.8 51.0) rotate(216.3) scale(0.54 0.52)" />
<g opacity="0.046">
<rect x="0" y="0" width="1" height="100" fill="black" />
<rect x="22" y="0" width="1" height="100" fill="black" />
<rect x="44" y="0" width="1" height="100" fill="black" />
<rect x="66" y="0" width="1" height="100" fill="black" />
<rect x="88" y="0" width="1" height="100" fill="black" />
<rect x="0" y="0" width="100" height="1" fill="black" />
<rect x="0" y="22" width="100" height="1" fill="black" />
<rect x="0" y="44" width="100" height="1" fill="black" />
<rect x="0" y="66" width="100" height="1" fill="black" />
<rect x="0" y="88" width="100" height="1" fill="black" />
</g>

</svg>
