<?xml version="1.0" encoding="UTF-8"?>
<svg xmlns="http://www.w3.org/2000/svg" width="100" height="100" viewBox="0 0 100 100">
<defs>
<linearGradient id="g0" x1="0%" y1="0%" x2="100%" y2="100%">
<stop offset="0.0%" stop-color="hsl(106, 75%, 59%)" />
<stop offset="33.3%" stop-color="hsl(183, 71%, 60%)" />
<stop offset="66.7%" stop-color="hsl(242, 72%, 49%)" />
<stop offset="100.0%" stop-color="hsl(322, 74%, 44%)" />
</linearGradient>
<linearGradient id="g1" x1="0%" y1="0%" x2="100%" y2="100%">
<stop offset="0.0%" stop-color="hsl(290, 83%, 63%)" />
<stop offset="33.3%" stop-color="hsl(2, 82%, 55%)" />
<stop offset="66.7%" stop-color="hsl(86, 72%, 68%)" />
<stop offset="100.0%" stop-color="hsl(83, 65%, 44%)" />
</linearGradient>
<linearGradient id="g2" x1="0%" y1="0%" x2="100%" y2="100%">
<stop offset="0.0%" stop-color="hsl(40, 53%, 69%)" />
<stop offset="33.3%" stop-color="hsl(104, 72%, 65%)" />
<stop offset="66.7%" stop-color="hsl(144, 86%, 72%)" />
<stop offset="100.0%" stop-color="hsl(151, 70%, 62%)" />
</linearGradient>
</defs>

<rect x="59.5" y="76.6" width="22.5" height="11.2" rx="8.7" fill="hsl(2, 82%, 55%)" fill-opacity="0.30"    />
<path d="M 70.8 51.8 C 87.1 47.1, 63.9 64.7, 76.3 76.0 C 83.2 56.2, 15.7 85.1, 25.7 82.2 C 21.8 99.5, 89.9 79.6, 98.3 86.8 C 100.0 98.7, 100.0 56.9, 91.7 61.4 C 96.0 71.3, 50.4 0.0, 61.8 8.3 C 66.8 19.9, 88.1 79.7, 83.7 86.6 C 100.0 84.8, 91.3 100.0, 81.8 91.2 " fill="hsl(2, 82%, 55%)" fill-opacity="0.64" stroke="none" stroke-width="1.02"  transform="translate(27.9 51.1) rotate(56.2) scale(1.22 1.74)" />
<path d="M 16.1 21.8 C 16.1 30.6, 17.3 93.3, 11.6 93.5 C 25.8 86.4, 63.4 85.7, 60.9 74.3 C 57.9 88.8, 54.9 57.6, 45.6 62.9 C 54.3 70.6, 40.1 26.0, 32.4 19.2 C 20.7 21.7, 44.7 29.7, 44.2 29.3 C 51.0 21.1, 26.0 65.4, 26.0 54.1 C 43.5 36.8, 55.9 21.5, 46.4 14.2 " fill="none" fill-opacity="0.75" stroke="hsl(86, 72%, 68%)" stroke-width="1.02"  transform="translate(94.3 35.7) rotate(45.1) scale(0.51 0.83)" />
<rect x="19.5" y="26.1" width="30.0" height="20.4" rx="0" fill="none" fill-opacity="0.89"    />
<rect x="8.4" y="13.3" width="49.5" height="32.0" rx="19.6" fill="hsl(2, 82%, 55%)" fill-opacity="0.28"   transform="translate(1.2 91.4) rotate(262.6) scale(0.85 1.68)" />
<path d="M 19.3 20.8 C 29.1 10.1, 38.6 0.0, 39.9 2.8 C 22.3 10.5, 51.8 88.5, 51.8 78.6 C 46.1 59.4, 43.2 73.4, 53.1 86.9 C 39.5 100.0, 15.4 68.6, 1.8 81.2 Z" fill="hsl(106, 75%, 59%)" fill-opacity="0.67" stroke="none" stroke-width="0.88"  transform="translate(69.8 10.0) rotate(289.6) scale(0.96 0.90)" />
<circle cx="32.6" cy="48.6" r="0.8" fill="hsl(151, 70%, 62%)" fill-opacity="0.48"   />
<rect x="2.7" y="43.5" width="48.3" height="23.8" rx="0" fill="hsl(104, 72%, 65%)" fill-opacity="0.33"   transform="translate(83.6 16.1) rotate(340.6) scale(0.80 0.79)" />
<path d="M 15.6 31.0 C 33.7 12.1, 37.4 62.1, 46.7 56.5 C 47.0 61.9, 56.1 58.7, 49.2 43.9 C 34.1 44.7, 89.9 17.7, 78.1 15.8 C 95.8 0.0, 6.1 29.9, 16.7 27.4 " fill="hsl(2, 82%, 55%)" fill-opacity="0.52" stroke="none" stroke-width="0.95"   />
<path d="M 12.4 11.3 C 25.5 22.6, 9.6 79.6, 5.4 89.8 C 0.0 85.8, 32.1 64.7, 22.2 64.4 C 16.1 77.2, 13.5 59.5, 20.7 62.1 C 34.6 59.1, 59.2 59.3, 48.3 55.1 C 42.9 65.9, 43.7 0.0, 46.2 10.9 " fill="hsl(104, 72%, 65%)" fill-opacity="0.62" stroke="none" stroke-width="0.87"  transform="translate(54.0 46.0) rotate(189.4) scale(0.80 1.00)" />
<path d="M 38.8 36.7 C 45.1 36.1, 13.6 90.9, 3.4 93.0 C 6.3 81.6, 5.7 55.1, 17.8 69.4 C 36.4 82.8, 32.4 35.5, 19.4 35.9 C 29.5 43.8, 34.2 66.6, 42.1 63.1 " fill="none" fill-opacity="0.40" stroke="hsl(151, 70%, 62%)" stroke-width="0.94"   />
<circle cx="81.6" cy="78.3" r="0.1" fill="hsl(144, 86%, 72%)" fill-opacity="0.61"  transform="translate(64.2 97.7) rotate(307.4) scale(0.83 0.69)" />
<path d="M 44.9 57.9 C 32.7 77.5, 54.0 87.9, 45.8 93.3 C 27.6 84.7, 0.0 61.3, 0.3 74.1 C 0.0 91.4, 32.2 15.1, 26.8 29.9 C 15.3 17.2, 49.0 79.5, 42.9 88.8 C 36.4 79.6, 100.0 18.8, 88.6 4.3 " fill="none" fill-opacity="0.54" stroke="hsl(322, 74%, 44%)" stroke-width="1.11"  transform="translate(87.1 17.3) rotate(87.8) scale(1.74 1.76)" />
</svg>
