<?xml version="1.0" encoding="UTF-8"?>
<svg xmlns="http://www.w3.org/2000/svg" width="100" height="100" viewBox="0 0 100 100">
<defs>
<linearGradient id="g0" x1="0%" y1="0%" x2="100%" y2="100%">
<stop offset="0.0%" stop-color="hsl(106, 75%, 59%)" />
<stop offset="33.3%" stop-color="hsl(183, 71%, 60%)" />
<stop offset="66.7%" stop-color="hsl(242, 72%, 49%)" />
<stop offset="100.0%" stop-color="hsl(322, 74%, 44%)" />
</linearGradient>
<linearGradient id="g1" x1="0%" y1="0%" x2="100%" y2="100%">
<stop offset="0.0%" stop-color="hsl(290, 83%, 63%)" />
<stop offset="33.3%" stop-color="hsl(2, 82%, 55%)" />
<stop offset="66.7%" stop-color="hsl(86, 72%, 68%)" />
<stop offset="100.0%" stop-color="hsl(83, 65%, 44%)" />
</linearGradient>
<linearGradient id="g2" x1="0%" y1="0%" x2="100%" y2="100%">
<stop offset="0.0%" stop-color="hsl(40, 53%, 69%)" />
<stop offset="33.3%" stop-color="hsl(104, 72%, 65%)" />
<stop offset="66.7%" stop-color="hsl(144, 86%, 72%)" />
<stop offset="100.0%" stop-color="hsl(151, 70%, 62%)" />
</linearGradient>
</defs>

<circle cx="76.8" cy="18.2" r="0.7" fill="hsl(106, 75%, 59%)" fill-opacity="0.74"   />
<path d="M 46.6 67.0 C 43.6 58.3, 43.0 38.0, 38.4 46.6 C 44.8 34.8, 20.9 79.0, 5.9 73.6 C 15.1 64.9, 15.5 47.9, 12.7 57.5 C 15.2 59.8, 0.0 50.0, 6.3 62.8 C 12.2 45.6, 15.6 1.5, 24.3 14.6 " fill="hsl(2, 82%, 55%)" fill-opacity="0.32" stroke="none" stroke-width="0.92"  transform="translate(15.6 18.1) rotate(64.2) scale(0.88 1.83)" />
<path d="M 6.4 93.2 C 4.0 98.7, 74.8 76.0, 81.1 66.7 C 62.9 77.3, 54.9 13.0, 62.1 1.3 C 59.8 0.0, 34.5 51.8, 48.6 37.1 C 44.9 42.1, 37.8 26.0, 51.7 22.1 C 62.7 6.0, 0.0 81.5, 1.2 93.2 C 18.0 97.0, 72.9 69.8, 58.1 63.4 C 76.4 58.7, 37.3 79.3, 46.8 66.3 " fill="hsl(242, 72%, 49%)" fill-opacity="0.74" stroke="none" stroke-width="1.21"   />
<path d="M 26.9 49.9 C 27.6 59.8, 22.1 20.0, 36.1 32.6 C 46.4 32.4, 0.0 28.5, 6.7 29.5 C 13.8 36.5, 28.4 100.0, 27.9 98.2 C 33.1 82.5, 39.1 61.3, 32.7 68.8 C 48.8 73.5, 0.0 0.0, 4.3 10.7 C 0.0 0.0, 89.7 32.4, 93.3 17.9 C 75.9 21.4, 61.0 23.1, 74.4 19.6 " fill="none" fill-opacity="0.48" stroke="hsl(40, 53%, 69%)" stroke-width="1.26"   />
<path d="M 34.2 30.3 C 42.8 48.5, 63.9 69.9, 77.8 79.4 C 64.3 81.9, 34.4 71.5, 34.9 62.7 C 49.2 58.6, 87.1 31.6, 77.3 28.9 C 95.6 11.4, 15.3 15.6, 7.3 18.9 C 12.2 12.3, 34.3 85.4, 28.3 96.1 C 19.5 84.2, 100.0 99.9, 92.6 89.7 Z" fill="hsl(2, 82%, 55%)" fill-opacity="0.50" stroke="none" stroke-width="0.80"   />
<path d="M 38.6 4.9 C 30.8 0.0, 50.1 26.5, 52.4 21.0 C 67.8 34.3, 26.4 49.3, 40.6 57.8 C 46.1 65.4, 76.4 41.5, 68.8 44.5 C 71.4 44.0, 0.0 2.7, 0.6 15.3 C 5.9 16.2, 70.8 21.4, 57.5 15.3 C 60.8 25.7, 16.0 36.6, 4.7 31.9 C 23.8 30.4, 66.0 15.9, 52.4 30.9 Z" fill="hsl(144, 86%, 72%)" fill-opacity="0.46" stroke="none" stroke-width="0.89"   />
<path d="M 33.2 71.1 C 23.6 85.9, 57.7 75.8, 63.9 72.0 C 70.8 81.6, 3.1 30.2, 15.1 16.9 C 31.6 0.0, 54.3 51.6, 57.4 60.8 C 76.5 51.1, 47.3 16.4, 35.0 23.1 " fill="hsl(2, 82%, 55%)" fill-opacity="0.47" stroke="none" stroke-width="0.86"  transform="translate(60.8 78.3) rotate(127.8) scale(0.77 1.82)" />
<path d="M 8.7 60.9 C 18.6 78.6, 18.4 58.2, 16.5 66.6 C 20.0 51.4, 68.9 65.5, 74.6 55.7 C 72.4 66.0, 58.7 45.5, 60.9 57.8 C 41.4 75.7, 24.4 67.4, 28.6 70.3 C 18.2 79.9, 51.0 44.2, 56.2 49.4 " fill="none" fill-opacity="0.77" stroke="hsl(83, 65%, 44%)" stroke-width="1.20"   />
<circle cx="68.1" cy="95.0" r="0.5" fill="hsl(104, 72%, 65%)" fill-opacity="0.89"  transform="translate(12.6 6.7) rotate(98.7) scale(1.80 1.72)" />
<rect x="51.5" y="72.9" width="39.2" height="16.8" rx="0" fill="none" fill-opacity="0.42"    />
<path d="M 34.8 55.1 C 47.2 52.7, 30.8 35.9, 25.9 31.9 C 28.1 12.3, 87.9 88.6, 99.7 89.4 C 100.0 100.0, 76.3 13.4, 68.7 26.3 " fill="hsl(106, 75%, 59%)" fill-opacity="0.73" stroke="none" stroke-width="1.20"   />
<path d="M 63.9 73.3 C 59.0 66.1, 61.6 29.2, 49.9 16.7 C 46.4 17.4, 29.8 19.2, 44.2 31.4 C 61.8 24.5, 85.4 70.0, 93.1 56.9 C 100.0 44.2, 36.5 26.7, 25.3 38.6 C 21.4 53.0, 38.5 19.3, 24.8 33.8 C 25.5 48.9, 44.2 89.1, 34.7 80.7 " fill="none" fill-opacity="0.73" stroke="hsl(322, 74%, 44%)" stroke-width="0.90"   />
<rect x="24.0" y="15.1" width="29.7" height="13.1" rx="11.4" fill="none" fill-opacity="0.46" stroke="hsl(322, 74%, 44%)" stroke-width="4.4"   />
<path d="M 1.2 40.8 C 19.3 57.8, 38.4 1.8, 30.9 8.9 C 16.9 8.8, 57.0 19.2, 60.3 9.4 C 65.5 19.4, 19.4 83.8, 17.2 93.2 " fill="none" fill-opacity="0.41" stroke="hsl(144, 86%, 72%)" stroke-width="0.93"   />
<path d="M 26.2 83.2 C 36.0 90.5, 71.6 96.8, 59.1 86.8 C 54.5 68.8, 50.8 81.2, 56.2 86.4 C 40.5 93.1, 68.2 43.4, 53.2 32.0 C 51.0 27.3, 45.0 22.8, 58.8 8.5 C 62.5 5.3, 5.3 19.9, 12.2 21.8 C 28.2 9.5, 87.3 65.6, 76.8 58.6 C 61.5 75.2, 10.3 98.4, 14.5 93.3 Z" fill="hsl(144, 86%, 72%)" fill-opacity="0.67" stroke="none" stroke-width="1.18"   />
<path d="M 78.2 16.6 C 77.2 5.8, 82.9 64.8, 75.2 68.2 C 79.7 66.5, 100.0 100.0, 99.4 94.2 C 100.0 83.2, 65.1 82.5, 74.2 83.5 C 87.8 67.8, 45.3 0.7, 52.0 0.8 C 66.7 0.0, 2.7 14.7, 7.7 1.2 C 0.0 0.0, 99.2 54.7, 90.4 58.8 C 74.0 49.0, 68.2 83.3, 56.7 97.6 " fill="hsl(242, 72%, 49%)" fill-opacity="0.59" stroke="none" stroke-width="0.94"   />
</svg>
