<?xml version="1.0" encoding="UTF-8"?>
<svg xmlns="http://www.w3.org/2000/svg" width="100" height="100" viewBox="0 0 100 100">
<defs>
<linearGradient id="g0" x1="0%" y1="0%" x2="100%" y2="100%">
<stop offset="0.0%" stop-color="hsl(106, 75%, 59%)" />
<stop offset="33.3%" stop-color="hsl(183, 71%, 60%)" />
<stop offset="66.7%" stop-color="hsl(242, 72%, 49%)" />
<stop offset="100.0%" stop-color="hsl(322, 74%, 44%)" />
</linearGradient>
<linearGradient id="g1" x1="0%" y1="0%" x2="100%" y2="100%">
<stop offset="0.0%" stop-color="hsl(290, 83%, 63%)" />
<stop offset="33.3%" stop-color="hsl(2, 82%, 55%)" />
<stop offset="66.7%" stop-color="hsl(86, 72%, 68%)" />
<stop offset="100.0%" stop-color="hsl(83, 65%, 44%)" />
</linearGradient>
<linearGradient id="g2" x1="0%" y1="0%" x2="100%" y2="100%">
<stop offset="0.0%" stop-color="hsl(40, 53%, 69%)" />
<stop offset="33.3%" stop-color="hsl(104, 72%, 65%)" />
<stop offset="66.7%" stop-color="hsl(144, 86%, 72%)" />
<stop offset="100.0%" stop-color="hsl(151, 70%, 62%)" />
</linearGradient>
</defs>

<path d="M 50.4 81.6 C 57.7 89.3, 0.0 93.0, 0.5 80.5 C 6.2 72.5, 76.6 24.1, 84.5 18.2 C 84.6 34.6, 49.1 57.2, 58.1 50.8 C 41.7 60.4, 34.1 98.9, 35.1 87.5 Z" fill="hsl(2, 82%, 55%)" fill-opacity="0.27" stroke="none" stroke-width="0.99"  transform="translate(78.1 6.7) rotate(8.6) scale(1.41 1.51)" />
<path d="M 35.5 81.9 C 49.4 99.9, 39.3 17.4, 43.2 30.2 C 55.8 40.5, 80.4 48.6, 81.2 39.2 C 98.1 50.1, 73.2 28.0, 79.1 42.3 C 59.3 36.6, 52.3 45.9, 38.4 36.8 C 45.9 54.9, 34.6 77.6, 44.5 69.8 C 27.0 69.9, 0.3 10.4, 4.7 6.9 C 16.1 10.3, 100.0 74.7, 90.6 61.5 " fill="none" fill-opacity="0.42" stroke="hsl(40, 53%, 69%)" stroke-width="0.84"  transform="translate(63.8 42.1) rotate(316.2) scale(1.46 0.61)" />
<path d="M 88.2 24.2 C 100.0 32.4, 20.9 9.1, 35.2 22.4 C 52.0 24.9, 78.6 44.2, 85.1 58.2 C 97.2 74.2, 52.4 33.4, 61.9 44.9 C 47.5 61.9, 67.8 68.9, 69.0 81.9 C 76.5 99.5, 15.1 34.1, 29.4 28.8 Z" fill="hsl(151, 70%, 62%)" fill-opacity="0.64" stroke="none" stroke-width="1.13"  transform="translate(82.1 50.0) rotate(130.8) scale(1.81 1.63)" />
<rect x="13.7" y="63.2" width="49.6" height="20.3" rx="0" fill="hsl(151, 70%, 62%)" fill-opacity="0.80"    />
<circle cx="62.0" cy="29.3" r="1.1" fill="hsl(322, 74%, 44%)" fill-opacity="0.87"   />
<path d="M 24.7 75.4 C 17.6 56.2, 36.2 3.6, 43.0 3.9 C 34.5 0.0, 22.7 88.8, 23.4 92.8 C 10.9 90.9, 84.7 73.5, 80.8 84.4 C 100.0 88.9, 55.2 33.2, 59.0 37.1 C 40.6 19.4, 26.8 71.5, 16.3 69.4 C 7.9 80.3, 100.0 83.8, 98.8 81.1 Z" fill="hsl(86, 72%, 68%)" fill-opacity="0.58" stroke="none" stroke-width="0.89"   />
<path d="M 14.4 30.6 C 1.3 35.1, 100.0 15.7, 96.6 6.1 C 97.8 0.0, 45.8 13.6, 42.7 4.0 C 44.0 0.0, 18.5 88.6, 18.0 82.2 C 32.5 88.4, 22.4 62.5, 23.4 62.1 C 16.3 70.5, 19.7 30.1, 17.1 33.2 Z" fill="hsl(86, 72%, 68%)" fill-opacity="0.49" stroke="none" stroke-width="1.13"  transform="translate(81.4 36.2) rotate(99.7) scale(1.78 1.22)" />
<rect x="5.1" y="45.2" width="31.2" height="36.2" rx="17.1" fill="none" fill-opacity="0.72"   transform="translate(37.5 40.1) rotate(233.5) scale(0.99 0.98)" />
<path d="M 93.2 7.2 C 92.2 12.2, 10.3 40.6, 4.8 33.4 C 0.0 36.5, 38.9 31.5, 31.2 41.4 C 22.8 51.2, 80.5 100.0, 73.2 92.8 C 78.2 100.0, 60.5 77.1, 60.2 64.2 C 65.3 60.7, 55.5 32.7, 60.1 25.4 C 65.7 37.2, 79.9 20.4, 79.9 14.3 C 70.3 19.4, 79.0 17.7, 65.6 13.6 Z" fill="none" fill-opacity="0.31" stroke="hsl(151, 70%, 62%)" stroke-width="0.91"  transform="translate(24.9 2.2) rotate(317.5) scale(1.52 1.98)" />
<path d="M 2.5 56.8 C 21.9 58.6, 44.3 53.4, 54.9 44.5 C 56.4 48.4, 39.3 91.6, 25.0 93.4 C 29.6 100.0, 38.6 29.4, 32.0 16.4 C 44.6 7.4, 48.9 34.7, 53.4 41.4 C 51.6 50.6, 85.8 71.6, 97.6 77.2 " fill="hsl(2, 82%, 55%)" fill-opacity="0.25" stroke="none" stroke-width="0.81"   />
<rect x="39.7" y="41.3" width="38.8" height="23.2" rx="0" fill="hsl(322, 74%, 44%)" fill-opacity="0.22" stroke="hsl(106, 75%, 59%)" stroke-width="1.6"   />
</svg>
