<?xml version="1.0" encoding="UTF-8"?>
<svg xmlns="http://www.w3.org/2000/svg" width="100" height="100" viewBox="0 0 100 100">
<defs>
<linearGradient id="g0" x1="0%" y1="0%" x2="100%" y2="100%">
<stop offset="0.0%" stop-color="hsl(106, 75%, 59%)" />
<stop offset="33.3%" stop-color="hsl(183, 71%, 60%)" />
<stop offset="66.7%" stop-color="hsl(242, 72%, 49%)" />
<stop offset="100.0%" stop-color="hsl(322, 74%, 44%)" />
</linearGradient>
<linearGradient id="g1" x1="0%" y1="0%" x2="100%" y2="100%">
<stop offset="0.0%" stop-color="hsl(290, 83%, 63%)" />
<stop offset="33.3%" stop-color="hsl(2, 82%, 55%)" />
<stop offset="66.7%" stop-color="hsl(86, 72%, 68%)" />
<stop offset="100.0%" stop-color="hsl(83, 65%, 44%)" />
</linearGradient>
<linearGradient id="g2" x1="0%" y1="0%" x2="100%" y2="100%">
<stop offset="0.0%" stop-color="hsl(40, 53%, 69%)" />
<stop offset="33.3%" stop-color="hsl(104, 72%, 65%)" />
<stop offset="66.7%" stop-color="hsl(144, 86%, 72%)" />
<stop offset="100.0%" stop-color="hsl(151, 70%, 62%)" />
</linearGradient>
</defs>

<path d="M 86.3 50.9 C 100.0 57.0, 22.7 85.9, 8.4 79.8 C 12.1 95.7, 0.0 16.2, 3.9 30.0 C 0.0 21.2, 43.7 81.0, 43.1 90.4 C 50.4 84.4, 25.1 34.3, 24.6 20.3 C 31.4 36.5, 68.2 79.8, 68.3 72.1 C 53.0 79.9, 70.5 99.2, 69.4 88.7 " fill="hsl(2, 82%, 55%)" fill-opacity="0.98" stroke="none" stroke-width="0.96"   />
<path d="M 65.0 15.4 C 83.3 33.4, 63.0 69.4, 57.3 76.3 C 68.9 87.6, 52.7 51.6, 51.5 62.9 C 55.8 73.6, 72.0 67.5, 70.8 73.4 C 72.2 68.4, 90.1 100.0, 85.5 94.8 " fill="hsl(40, 53%, 69%)" fill-opacity="0.30" stroke="none" stroke-width="1.05"  transform="translate(43.8 85.3) rotate(15.5) scale(1.22 0.80)" />
<path d="M 23.1 48.5 C 13.4 43.9, 34.6 98.5, 25.7 96.5 C 31.7 100.0, 64.9 81.7, 55.3 89.0 C 39.7 82.0, 30.5 66.9, 16.8 70.7 C 21.2 84.0, 14.2 50.7, 11.1 53.7 C 0.0 53.8, 92.1 27.4, 87.8 18.6 C 75.4 15.3, 0.0 78.2, 3.1 71.9 " fill="none" fill-opacity="0.45" stroke="hsl(83, 65%, 44%)" stroke-width="0.93"  transform="translate(26.6 73.4) rotate(128.3) scale(1.41 1.01)" />
<rect x="0.0" y="14.5" width="49.9" height="26.9" rx="0" fill="hsl(144, 86%, 72%)" fill-opacity="0.56" stroke="hsl(104, 72%, 65%)" stroke-width="1.6"   />
<path d="M 87.3 80.2 C 87.6 93.2, 31.9 51.5, 29.5 64.6 C 30.6 76.3, 67.9 78.9, 75.3 70.6 C 95.2 80.5, 37.1 93.4, 33.9 80.9 C 22.8 97.1, 47.4 25.7, 36.5 18.3 C 25.6 7.3, 100.0 17.5, 99.6 19.4 C 100.0 17.4, 84.9 50.6, 78.2 49.6 C 64.9 55.0, 40.4 32.8, 51.9 19.7 " fill="hsl(83, 65%, 44%)" fill-opacity="0.87" stroke="none" stroke-width="0.81"   />
<circle cx="57.5" cy="73.8" r="1.1" fill="hsl(86, 72%, 68%)" fill-opacity="0.67"  transform="translate(17.8 18.6) rotate(178.9) scale(0.55 1.10)" />
<circle cx="86.9" cy="1.2" r="0.1" fill="hsl(151, 70%, 62%)" fill-opacity="0.54"   />
<path d="M 67.8 6.0 C 66.1 0.0, 74.8 33.2, 67.3 21.7 C 67.1 24.8, 74.2 30.6, 60.5 41.3 C 70.8 58.0, 46.7 3.7, 45.9 8.6 C 48.0 0.0, 60.6 56.8, 56.0 68.8 C 55.0 70.8, 91.3 27.0, 81.2 39.0 C 97.5 44.9, 31.6 53.1, 42.1 64.9 Z" fill="none" fill-opacity="0.47" stroke="hsl(83, 65%, 44%)" stroke-width="1.19"   />
<path d="M 31.2 40.8 C 22.2 59.0, 59.0 77.0, 62.6 68.5 C 61.3 55.4, 9.6 44.4, 24.0 45.8 C 31.4 37.7, 12.3 11.3, 2.4 12.5 C 6.2 13.4, 66.0 72.8, 68.5 58.7 Z" fill="hsl(144, 86%, 72%)" fill-opacity="1.00" stroke="none" stroke-width="1.14"  transform="translate(61.6 0.8) rotate(321.0) scale(1.00 1.34)" />
<path d="M 32.8 21.4 C 48.3 17.5, 7.8 84.2, 14.8 69.6 C 5.5 60.4, 10.6 85.7, 19.3 79.5 C 1.9 79.0, 100.0 81.5, 93.8 84.0 C 90.3 71.0, 40.2 37.4, 47.6 33.6 C 42.1 34.9, 0.0 46.6, 10.3 32.9 " fill="hsl(2, 82%, 55%)" fill-opacity="0.55" stroke="none" stroke-width="1.13"  transform="translate(94.1 40.3) rotate(196.9) scale(1.83 1.12)" />
<path d="M 88.6 16.0 C 98.4 32.3, 44.2 0.0, 52.9 12.8 C 50.4 0.0, 0.0 62.9, 1.6 56.3 C 0.0 59.9, 22.2 72.3, 9.2 69.8 C 9.5 84.9, 37.3 89.5, 29.4 98.8 C 43.0 93.2, 89.1 26.2, 83.6 19.1 C 90.9 14.9, 46.9 100.0, 32.3 95.9 " fill="hsl(2, 82%, 55%)" fill-opacity="0.38" stroke="none" stroke-width="0.86"  transform="translate(22.8 75.4) rotate(242.8) scale(0.64 1.41)" />
<rect x="0.8" y="18.3" width="38.9" height="11.4" rx="0" fill="none" fill-opacity="0.87" stroke="hsl(151, 70%, 62%)" stroke-width="1.2"  transform="translate(61.4 65.3) rotate(93.9) scale(1.28 0.76)" />
<circle cx="6.2" cy="56.6" r="0.2" fill="hsl(151, 70%, 62%)" fill-opacity="0.56"   />
<path d="M 15.7 18.3 C 20.8 13.7, 97.7 24.4, 93.1 38.1 C 86.6 41.6, 100.0 72.5, 90.4 69.0 C 87.5 82.7, 32.2 28.3, 33.7 20.2 C 27.4 37.0, 100.0 66.9, 95.4 56.0 C 97.7 51.6, 66.0 34.6, 77.1 47.1 C 80.3 34.2, 21.1 63.9, 34.5 57.2 C 43.1 65.2, 40.7 0.0, 44.4 13.1 Z" fill="none" fill-opacity="0.77" stroke="hsl(2, 82%, 55%)" stroke-width="1.29"   />
<path d="M 91.5 75.8 C 76.9 91.8, 16.3 14.3, 23.2 1.7 C 6.5 0.0, 79.4 67.2, 91.9 74.3 C 72.0 71.4, 22.5 31.8, 26.8 22.6 C 41.4 13.2, 92.1 82.3, 77.7 94.7 " fill="hsl(106, 75%, 59%)" fill-opacity="0.51" stroke="none" stroke-width="1.12"  transform="translate(77.3 53.3) rotate(2.1) scale(1.72 1.23)" />
<path d="M 99.0 85.1 C 90.0 100.0, 7.9 15.5, 2.4 20.2 C 11.8 12.3, 100.0 55.8, 99.9 51.9 C 87.0 53.5, 20.7 59.8, 11.5 69.7 " fill="hsl(104, 72%, 65%)" fill-opacity="0.34" stroke="none" stroke-width="1.27"  transform="translate(12.0 8.6) rotate(342.6) scale(1.16 1.56)" />
<circle cx="23.5" cy="35.5" r="0.6" fill="hsl(322, 74%, 44%)" fill-opacity="0.93"  transform="translate(67.8 90.5) rotate(263.0) scale(1.08 1.21)" />
</svg>
