<?xml version="1.0" encoding="UTF-8"?>
<svg xmlns="http://www.w3.org/2000/svg" width="100" height="100" viewBox="0 0 100 100">
<defs>
<linearGradient id="g0" x1="0%" y1="0%" x2="100%" y2="100%">
<stop offset="0.0%" stop-color="hsl(106, 75%, 59%)" />
<stop offset="33.3%" stop-color="hsl(183, 71%, 60%)" />
<stop offset="66.7%" stop-color="hsl(242, 72%, 49%)" />
<stop offset="100.0%" stop-color="hsl(322, 74%, 44%)" />
</linearGradient>
<linearGradient id="g1" x1="0%" y1="0%" x2="100%" y2="100%">
<stop offset="0.0%" stop-color="hsl(290, 83%, 63%)" />
<stop offset="33.3%" stop-color="hsl(2, 82%, 55%)" />
<stop offset="66.7%" stop-color="hsl(86, 72%, 68%)" />
<stop offset="100.0%" stop-color="hsl(83, 65%, 44%)" />
</linearGradient>
<linearGradient id="g2" x1="0%" y1="0%" x2="100%" y2="100%">
<stop offset="0.0%" stop-color="hsl(40, 53%, 69%)" />
<stop offset="33.3%" stop-color="hsl(104, 72%, 65%)" />
<stop offset="66.7%" stop-color="hsl(144, 86%, 72%)" />
<stop offset="100.0%" stop-color="hsl(151, 70%, 62%)" />
</linearGradient>
</defs>

<path d="M 97.9 97.7 C 100.0 100.0, 33.9 100.0, 31.2 95.6 C 14.3 77.0, 60.4 25.0, 72.3 28.6 C 56.5 28.4, 86.3 63.8, 81.7 66.4 Z" fill="hsl(106, 75%, 59%)" fill-opacity="0.70" stroke="none" stroke-width="1.29"   />
<path d="M 19.4 89.7 C 11.7 87.6, 11.0 92.7, 25.0 89.2 C 9.3 100.0, 81.1 31.2, 80.7 35.7 C 100.0 25.5, 98.0 61.0, 83.9 66.7 C 78.3 76.0, 53.1 18.6, 40.0 14.8 C 49.8 21.1, 87.0 43.6, 75.6 52.1 C 79.5 71.1, 25.4 11.5, 32.1 0.8 C 28.9 0.0, 87.3 84.0, 91.3 88.7 " fill="hsl(290, 83%, 63%)" fill-opacity="0.69" stroke="none" stroke-width="1.13"   />
<rect x="73.8" y="84.9" width="24.9" height="10.0" rx="0" fill="hsl(151, 70%, 62%)" fill-opacity="0.45"   transform="translate(27.1 6.3) rotate(103.5) scale(0.87 0.93)" />
<circle cx="10.7" cy="21.5" r="0.4" fill="hsl(2, 82%, 55%)" fill-opacity="0.46"   />
<circle cx="41.4" cy="50.8" r="0.1" fill="hsl(86, 72%, 68%)" fill-opacity="0.66"  transform="translate(75.2 42.8) rotate(298.2) scale(1.49 0.58)" />
<path d="M 45.1 6.7 C 48.2 15.7, 66.1 58.5, 66.8 55.3 C 81.6 41.1, 66.4 79.0, 51.9 78.2 C 58.6 70.0, 17.1 9.3, 31.5 0.4 C 11.8 0.0, 18.5 8.5, 22.7 17.1 C 32.2 31.6, 45.7 10.6, 55.1 12.0 " fill="none" fill-opacity="0.44" stroke="hsl(106, 75%, 59%)" stroke-width="0.94"   />
<path d="M 56.2 7.6 C 44.3 0.0, 59.7 47.1, 72.2 43.3 C 55.3 62.1, 63.2 75.5, 73.9 64.9 C 71.5 45.6, 15.9 59.2, 11.6 67.8 C 12.4 70.4, 33.0 31.8, 28.4 29.0 C 22.5 18.7, 38.3 14.8, 47.1 26.3 C 49.2 11.9, 26.9 18.6, 19.8 27.4 C 30.7 11.2, 52.9 44.2, 42.0 42.5 " fill="hsl(290, 83%, 63%)" fill-opacity="0.82" stroke="none" stroke-width="1.03"   />
<rect x="18.8" y="54.5" width="30.7" height="15.8" rx="19.9" fill="none" fill-opacity="0.27"   transform="translate(47.5 11.1) rotate(176.2) scale(1.69 1.25)" />
<rect x="21.5" y="31.9" width="36.9" height="30.7" rx="10.4" fill="none" fill-opacity="0.87"   transform="translate(9.1 38.4) rotate(149.2) scale(1.21 0.58)" />
<path d="M 63.2 44.8 C 46.6 35.1, 68.2 57.7, 62.8 53.9 C 69.6 57.8, 69.4 84.1, 72.8 80.3 C 81.5 77.8, 88.1 1.4, 80.5 13.6 Z" fill="hsl(183, 71%, 60%)" fill-opacity="0.87" stroke="none" stroke-width="1.12"  transform="translate(59.5 36.9) rotate(342.4) scale(1.56 0.58)" />
<circle cx="52.7" cy="88.7" r="0.1" fill="hsl(242, 72%, 49%)" fill-opacity="0.77"  transform="translate(9.4 44.2) rotate(34.2) scale(0.64 1.56)" />
<rect x="15.1" y="62.4" width="40.0" height="11.2" rx="7.9" fill="none" fill-opacity="0.37" stroke="hsl(183, 71%, 60%)" stroke-width="1.7"  transform="translate(18.6 80.5) rotate(159.3) scale(1.13 0.76)" />
<rect x="6.0" y="84.8" width="42.7" height="10.0" rx="5.9" fill="hsl(86, 72%, 68%)" fill-opacity="0.40"   transform="translate(14.9 60.3) rotate(139.8) scale(1.10 0.91)" />
<circle cx="15.3" cy="12.1" r="0.8" fill="hsl(104, 72%, 65%)" fill-opacity="0.50"  transform="translate(97.3 28.2) rotate(291.6) scale(1.05 1.25)" />
<path d="M 29.6 81.1 C 24.4 74.5, 65.0 38.8, 60.5 49.4 C 46.7 35.8, 87.2 0.0, 79.7 3.4 C 81.6 1.7, 4.8 49.8, 14.8 48.3 " fill="hsl(86, 72%, 68%)" fill-opacity="0.35" stroke="none" stroke-width="1.28"  transform="translate(28.9 64.1) rotate(289.8) scale(0.83 1.16)" />
<circle cx="42.2" cy="58.5" r="0.7" fill="hsl(151, 70%, 62%)" fill-opacity="0.41"   />
<path d="M 87.3 19.9 C 72.0 27.4, 43.6 100.0, 40.5 91.6 C 49.4 89.5, 75.1 42.7, 60.9 43.3 C 63.2 31.1, 31.4 100.0, 24.4 96.8 C 18.4 84.3, 50.5 18.2, 63.2 17.4 C 74.2 29.1, 91.2 14.7, 92.8 12.7 C 82.2 0.0, 67.5 96.0, 58.9 99.0 C 46.5 80.1, 58.7 74.8, 45.9 84.2 Z" fill="none" fill-opacity="0.77" stroke="hsl(183, 71%, 60%)" stroke-width="1.16"  transform="translate(77.7 88.1) rotate(15.6) scale(0.79 0.52)" />
</svg>
