<?xml version="1.0" encoding="UTF-8"?>
<svg xmlns="http://www.w3.org/2000/svg" width="100" height="100" viewBox="0 0 100 100">
<defs>
<linearGradient id="g0" x1="0%" y1="0%" x2="100%" y2="100%">
<stop offset="0.0%" stop-color="hsl(106, 75%, 59%)" />
<stop offset="33.3%" stop-color="hsl(183, 71%, 60%)" />
<stop offset="66.7%" stop-color="hsl(242, 72%, 49%)" />
<stop offset="100.0%" stop-color="hsl(322, 74%, 44%)" />
</linearGradient>
<linearGradient id="g1" x1="0%" y1="0%" x2="100%" y2="100%">
<stop offset="0.0%" stop-color="hsl(290, 83%, 63%)" />
<stop offset="33.3%" stop-color="hsl(2, 82%, 55%)" />
<stop offset="66.7%" stop-color="hsl(86, 72%, 68%)" />
<stop offset="100.0%" stop-color="hsl(83, 65%, 44%)" />
</linearGradient>
<linearGradient id="g2" x1="0%" y1="0%" x2="100%" y2="100%">
<stop offset="0.0%" stop-color="hsl(40, 53%, 69%)" />
<stop offset="33.3%" stop-color="hsl(104, 72%, 65%)" />
<stop offset="66.7%" stop-color="hsl(144, 86%, 72%)" />
<stop offset="100.0%" stop-color="hsl(151, 70%, 62%)" />
</linearGradient>
<filter id="f1" x="-20%" y="-20%" width="140%" height="140%">
  <feGaussianBlur stdDeviation="0.8501004204600391" />
</filter>

</defs>

<path d="M 27.6 55.3 C 9.9 41.6, 51.7 61.3, 41.0 54.7 C 39.9 49.2, 1.3 25.5, 8.6 24.1 C 14.9 7.7, 53.1 87.8, 54.9 95.4 C 63.8 84.4, 90.6 26.7, 89.2 24.9 C 96.8 43.1, 75.7 13.0, 67.2 20.0 C 64.6 24.0, 0.0 18.8, 4.8 21.0 C 0.0 6.0, 100.0 48.5, 100.0 60.0 Z" fill="hsl(83, 65%, 44%)" fill-opacity="0.93" stroke="none" stroke-width="2.22"   />
<circle cx="76.3" cy="72.1" r="0.5" fill="url(#g1)" fill-opacity="0.41"  transform="translate(37.0 27.1) rotate(261.4) scale(1.70 0.87)" />
<path d="M 38.7 72.7 C 40.3 56.6, 0.0 68.0, 1.8 74.6 C 9.1 74.7, 1.8 41.0, 8.1 51.0 C 17.1 47.7, 24.9 44.5, 12.7 49.0 C 0.0 43.1, 100.0 100.0, 97.8 85.9 C 81.6 85.9, 3.5 91.6, 7.4 83.6 C 0.0 97.5, 34.2 84.7, 31.4 85.6 Z" fill="none" fill-opacity="0.82" stroke="hsl(106, 75%, 59%)" stroke-width="1.76" filter="url(#f1)" transform="translate(5.1 17.8) rotate(205.0) scale(0.76 1.23)" />
<path d="M 0.6 36.9 C 8.0 54.8, 62.0 34.3, 76.4 35.5 C 89.0 39.3, 100.0 65.4, 92.1 55.1 C 100.0 41.6, 91.1 19.3, 90.9 18.2 C 84.2 12.5, 53.5 91.9, 61.0 99.6 C 67.7 100.0, 47.3 69.6, 46.9 56.7 C 66.1 73.9, 85.8 26.1, 81.9 20.3 C 62.3 9.1, 100.0 9.4, 88.8 16.2 C 96.7 25.3, 53.8 28.7, 62.6 39.4 Z" fill="hsl(151, 70%, 62%)" fill-opacity="0.57" stroke="none" stroke-width="4.57"  transform="translate(30.7 72.0) rotate(154.2) scale(1.46 0.58)" />
<path d="M 42.4 4.6 C 45.4 0.0, 25.2 25.1, 13.7 22.5 C 0.0 32.4, 11.1 88.4, 4.1 78.8 C 15.8 60.0, 37.2 61.5, 43.3 56.9 C 47.3 68.1, 83.1 100.0, 84.7 98.2 C 65.7 86.4, 43.0 72.1, 55.4 75.7 C 65.8 81.8, 57.1 25.3, 52.7 31.4 C 36.7 32.1, 68.1 79.5, 62.0 78.3 C 42.6 97.6, 13.0 84.8, 11.0 81.5 C 19.8 72.3, 20.8 61.9, 32.4 55.1 Z" fill="hsl(290, 83%, 63%)" fill-opacity="0.59" stroke="none" stroke-width="1.01"  transform="translate(62.9 63.7) rotate(230.7) scale(1.67 1.68)" />
<rect x="56.5" y="28.0" width="32.8" height="20.0" rx="0" fill="hsl(242, 72%, 49%)" fill-opacity="0.88"   transform="translate(35.5 92.8) rotate(349.9) scale(0.63 1.78)" />
<path d="M 72.6 88.9 C 90.2 100.0, 91.2 48.3, 86.4 56.3 C 85.9 53.2, 87.8 100.0, 93.5 93.7 C 90.2 100.0, 100.0 22.8, 97.5 13.7 C 100.0 15.8, 22.6 90.3, 20.4 95.3 C 24.5 97.7, 25.3 44.1, 17.4 55.3 C 13.9 62.7, 79.1 18.6, 79.7 22.5 C 79.1 35.2, 56.8 66.8, 54.1 68.3 C 63.0 70.9, 74.4 25.2, 79.4 27.4 Z" fill="none" fill-opacity="0.41" stroke="hsl(86, 72%, 68%)" stroke-width="1.44"  transform="translate(45.6 61.7) rotate(308.7) scale(1.66 1.95)" />
<path d="M 5.1 0.1 C 19.7 0.0, 25.2 82.6, 12.5 75.3 C 25.5 66.9, 75.1 70.7, 83.6 72.1 C 95.0 58.9, 39.9 16.3, 44.7 12.8 C 41.9 8.5, 60.1 24.2, 63.7 14.9 C 62.4 1.6, 60.1 45.9, 49.6 42.0 C 40.4 51.5, 8.8 24.7, 16.8 38.5 C 10.6 38.5, 63.8 0.0, 71.2 1.1 Z" fill="hsl(40, 53%, 69%)" fill-opacity="0.95" stroke="none" stroke-width="0.89"  transform="translate(21.7 12.7) rotate(150.6) scale(0.66 1.80)" />
<path d="M 61.3 82.1 C 80.2 81.2, 37.5 97.1, 47.7 93.1 C 41.6 100.0, 54.1 89.9, 45.8 97.3 C 31.9 100.0, 73.4 81.0, 71.8 87.6 C 87.8 82.7, 24.2 82.3, 17.1 93.5 C 19.3 92.5, 35.2 11.6, 49.1 11.9 C 29.7 16.8, 78.1 14.2, 83.1 22.6 Z" fill="hsl(144, 86%, 72%)" fill-opacity="0.90" stroke="none" stroke-width="3.38"  transform="translate(41.8 83.4) rotate(274.6) scale(1.67 1.69)" />
<path d="M 53.4 39.2 C 46.9 55.2, 6.5 0.0, 3.1 6.0 C 6.9 18.8, 92.8 100.0, 87.5 88.9 C 88.6 92.6, 30.1 16.5, 25.6 10.7 C 21.5 2.5, 62.5 81.4, 49.5 84.0 C 41.0 99.1, 100.0 41.9, 98.3 42.3 C 89.6 51.0, 6.6 17.7, 19.5 18.4 " fill="none" fill-opacity="0.89" stroke="hsl(290, 83%, 63%)" stroke-width="4.16"  transform="translate(36.8 30.5) rotate(302.1) scale(1.38 0.81)" />
<path d="M 43.4 68.4 C 44.5 77.0, 0.0 64.6, 7.6 54.9 C 16.4 38.6, 6.9 0.0, 3.6 1.9 C 0.0 11.7, 64.4 63.9, 58.0 50.1 C 66.4 47.8, 9.2 78.8, 11.6 84.3 C 17.2 78.6, 41.4 38.9, 39.0 39.7 C 49.2 59.3, 78.0 81.9, 88.3 86.3 C 100.0 94.5, 6.2 41.6, 2.5 31.9 C 0.7 29.0, 19.8 24.6, 13.3 16.9 C 32.3 0.0, 52.3 1.6, 47.6 13.3 Z" fill="hsl(290, 83%, 63%)" fill-opacity="1.00" stroke="none" stroke-width="4.00"  transform="translate(4.5 41.3) rotate(79.5) scale(1.82 0.75)" />
<path d="M 78.0 3.1 C 91.2 0.0, 6.6 18.7, 21.1 23.4 C 4.0 12.8, 16.7 29.8, 24.9 28.6 C 16.4 26.2, 46.2 51.8, 31.5 44.0 C 18.7 53.7, 57.3 28.6, 59.0 20.6 C 49.6 35.8, 77.5 87.4, 78.0 98.2 C 77.4 100.0, 30.4 90.5, 31.0 88.1 C 37.6 86.3, 9.1 43.7, 15.0 33.5 C 24.1 17.3, 42.9 50.6, 44.1 36.1 Z" fill="none" fill-opacity="0.32" stroke="hsl(290, 83%, 63%)" stroke-width="2.14"   />
<path d="M 52.2 91.2 C 68.5 83.4, 41.4 30.9, 26.6 34.5 C 21.5 33.2, 56.1 10.0, 67.1 4.9 C 77.3 22.4, 64.8 7.8, 55.1 15.0 C 35.6 0.0, 3.2 34.6, 5.0 25.1 C 0.0 25.5, 76.1 39.3, 61.5 40.5 C 57.1 38.3, 100.0 87.1, 92.4 84.0 C 100.0 83.3, 99.1 100.0, 94.1 99.8 C 89.1 91.5, 56.7 80.9, 46.0 75.8 C 60.7 73.8, 13.8 14.9, 2.3 20.0 Z" fill="hsl(106, 75%, 59%)" fill-opacity="0.30" stroke="none" stroke-width="3.12"  transform="translate(79.7 48.1) rotate(219.2) scale(1.28 0.79)" />
<rect x="54.7" y="4.0" width="40.4" height="18.2" rx="0" fill="hsl(183, 71%, 60%)" fill-opacity="0.51"   transform="translate(7.8 17.5) rotate(178.3) scale(0.53 1.90)" />
<rect x="3.5" y="25.7" width="42.9" height="35.2" rx="7.2" fill="none" fill-opacity="0.97"    />
<path d="M 18.2 37.6 C 10.1 36.3, 73.7 87.1, 71.0 89.1 C 81.9 82.1, 63.2 21.8, 58.7 31.6 C 53.3 18.4, 63.6 100.0, 75.7 90.3 C 81.2 92.0, 12.0 65.4, 17.1 54.1 C 3.7 34.7, 77.1 57.5, 84.9 49.0 C 75.1 41.1, 68.1 75.8, 71.6 65.6 C 81.9 48.6, 89.8 60.6, 96.5 51.4 C 100.0 48.1, 85.2 0.0, 95.8 2.6 C 80.4 0.0, 50.8 87.3, 38.0 93.2 Z" fill="none" fill-opacity="0.70" stroke="hsl(242, 72%, 49%)" stroke-width="2.98"  transform="translate(64.5 70.3) rotate(143.9) scale(1.88 1.63)" />
<path d="M 80.1 82.0 C 76.0 68.9, 27.6 80.6, 23.7 86.3 C 15.8 76.7, 58.3 35.7, 55.4 28.8 C 55.8 36.7, 78.2 19.0, 64.4 16.6 C 49.0 28.6, 34.8 23.7, 23.0 11.9 C 11.7 0.0, 72.5 62.1, 68.6 55.2 C 84.0 71.2, 0.0 54.1, 12.1 49.2 C 5.6 57.1, 0.0 34.3, 2.4 36.0 C 8.3 22.0, 70.1 62.9, 55.9 55.6 C 74.5 65.4, 60.4 25.2, 61.8 27.4 Z" fill="none" fill-opacity="0.47" stroke="hsl(151, 70%, 62%)" stroke-width="4.13"  transform="translate(62.8 19.2) rotate(76.7) scale(1.62 1.18)" />
<rect x="57.8" y="27.0" width="24.1" height="37.7" rx="0" fill="hsl(183, 71%, 60%)" fill-opacity="0.73"  filter="url(#f1)" transform="translate(44.3 15.9) rotate(80.8) scale(1.42 1.16)" />
<path d="M 33.7 10.1 C 41.9 0.0, 21.1 93.5, 21.6 94.7 C 2.7 74.9, 54.0 53.5, 43.1 42.7 C 39.7 45.1, 65.0 56.4, 75.7 64.1 C 60.9 70.3, 15.1 57.6, 16.2 65.7 C 10.1 55.3, 41.1 85.9, 35.7 78.6 C 22.4 93.4, 80.0 0.0, 88.4 0.2 C 78.2 9.6, 30.0 87.5, 33.5 85.2 C 19.2 80.4, 17.0 78.9, 9.2 90.4 C 6.9 92.9, 21.5 42.4, 28.2 41.0 Z" fill="hsl(40, 53%, 69%)" fill-opacity="0.33" stroke="none" stroke-width="0.97"  transform="translate(4.6 16.3) rotate(111.7) scale(1.01 0.64)" />
<rect x="2.0" y="60.3" width="35.2" height="28.1" rx="15.9" fill="hsl(2, 82%, 55%)" fill-opacity="0.61"   transform="translate(47.7 35.5) rotate(247.8) scale(1.33 0.79)" />
<path d="M 90.4 23.4 C 100.0 7.9, 79.1 9.9, 85.7 18.2 C 87.6 10.5, 10.8 15.0, 20.6 10.0 C 20.3 20.6, 98.1 62.1, 98.2 74.4 C 100.0 64.6, 0.0 54.7, 1.6 65.4 C 2.8 82.7, 71.4 68.9, 57.2 72.0 C 38.0 57.8, 4.9 13.3, 16.3 18.8 C 0.0 3.2, 20.0 67.1, 16.7 56.9 Z" fill="hsl(104, 72%, 65%)" fill-opacity="0.92" stroke="none" stroke-width="1.54"  transform="translate(95.5 18.4) rotate(135.0) scale(0.72 1.21)" />
<circle cx="59.8" cy="29.5" r="2.3" fill="url(#g0)" fill-opacity="0.62"  transform="translate(91.2 54.5) rotate(332.1) scale(1.37 1.19)" />
<path d="M 41.9 41.5 C 51.3 36.2, 0.0 42.3, 9.4 29.2 C 12.3 10.9, 39.4 90.0, 38.4 99.3 C 30.0 100.0, 29.0 36.2, 17.4 31.0 C 26.3 48.5, 15.6 78.4, 19.9 86.4 C 17.4 77.5, 12.7 30.8, 25.5 16.6 C 33.9 30.6, 41.5 85.6, 35.7 76.1 C 26.6 74.9, 50.4 0.4, 36.6 4.8 C 45.2 18.1, 7.4 55.4, 7.6 65.6 Z" fill="none" fill-opacity="0.63" stroke="hsl(242, 72%, 49%)" stroke-width="3.72"  transform="translate(32.0 44.1) rotate(190.8) scale(1.28 1.95)" />
<circle cx="38.3" cy="59.8" r="4.0" fill="hsl(151, 70%, 62%)" fill-opacity="0.52"  transform="translate(48.9 58.8) rotate(32.6) scale(0.98 1.49)" />
<rect x="24.7" y="33.3" width="29.2" height="33.2" rx="14.8" fill="none" fill-opacity="0.73" stroke="hsl(104, 72%, 65%)" stroke-width="3.2"  transform="translate(21.7 4.1) rotate(165.5) scale(0.53 1.66)" />
<rect x="38.3" y="63.4" width="43.0" height="33.9" rx="0" fill="none" fill-opacity="0.35"   transform="translate(5.5 27.7) rotate(176.2) scale(1.13 1.72)" />
<path d="M 74.8 37.8 C 76.7 23.2, 93.5 26.5, 88.7 27.7 C 69.5 36.0, 11.7 71.8, 2.8 63.5 C 0.0 65.7, 45.9 0.0, 45.0 1.9 C 31.8 18.9, 71.6 83.6, 76.5 82.2 C 79.6 70.4, 26.7 27.2, 16.4 21.9 C 35.8 24.4, 92.7 85.2, 89.9 89.5 C 77.7 92.3, 47.3 28.4, 58.7 16.2 C 72.0 25.4, 48.6 44.8, 60.1 46.1 C 71.5 44.0, 27.6 33.4, 12.8 43.1 Z" fill="none" fill-opacity="0.28" stroke="hsl(183, 71%, 60%)" stroke-width="1.51"  transform="translate(64.2 83.3) rotate(324.3) scale(1.98 1.27)" />
<path d="M 73.9 22.0 C 75.2 6.6, 7.4 12.9, 15.3 4.7 C 22.1 9.0, 42.6 29.4, 38.2 43.7 C 45.2 48.1, 14.3 66.1, 24.1 66.9 C 35.8 78.6, 75.4 88.0, 85.1 75.0 C 100.0 70.8, 76.6 0.0, 81.1 2.3 C 81.0 8.9, 23.9 62.8, 16.1 71.1 C 20.4 67.7, 72.1 67.3, 62.8 80.1 C 75.3 72.0, 38.0 47.8, 50.1 42.4 C 46.8 60.0, 88.5 59.0, 83.2 65.0 Z" fill="none" fill-opacity="0.86" stroke="hsl(106, 75%, 59%)" stroke-width="2.20"  transform="translate(43.7 95.5) rotate(55.3) scale(1.96 0.96)" />
<circle cx="5.0" cy="43.1" r="0.1" fill="url(#g1)" fill-opacity="0.45"  transform="translate(70.1 28.6) rotate(293.1) scale(1.01 1.01)" />
<path d="M 39.0 88.2 C 45.8 69.5, 60.4 30.6, 59.1 24.2 C 65.1 40.0, 40.4 55.2, 53.7 47.7 C 68.7 40.7, 68.5 28.0, 76.4 28.8 C 92.0 35.1, 22.1 0.0, 33.2 4.0 C 39.5 17.3, 59.7 63.4, 72.1 55.6 C 74.4 64.9, 50.2 26.9, 50.1 22.2 C 53.2 25.3, 68.9 64.4, 60.7 52.7 C 49.3 70.1, 82.2 13.6, 74.4 27.7 Z" fill="none" fill-opacity="0.79" stroke="hsl(290, 83%, 63%)" stroke-width="4.84"  transform="translate(25.4 38.2) rotate(42.5) scale(1.97 1.37)" />
<path d="M 30.3 31.5 C 44.3 15.8, 72.0 46.5, 75.4 46.0 C 78.2 46.0, 33.2 40.3, 24.2 33.5 C 29.1 33.3, 62.7 51.8, 72.4 48.0 C 66.0 62.7, 64.3 16.4, 57.5 28.7 C 72.3 46.7, 60.8 65.6, 58.9 58.5 C 40.3 60.6, 40.8 0.5, 36.4 14.9 C 36.1 0.0, 60.4 60.2, 71.1 70.7 C 63.2 87.7, 60.0 58.8, 57.4 71.0 C 63.1 63.8, 93.9 91.6, 99.3 88.9 Z" fill="hsl(2, 82%, 55%)" fill-opacity="0.87" stroke="none" stroke-width="3.32"  transform="translate(51.5 43.2) rotate(65.4) scale(0.94 1.55)" />
<circle cx="98.1" cy="30.8" r="1.3" fill="hsl(183, 71%, 60%)" fill-opacity="0.78" filter="url(#f1)" transform="translate(9.6 13.7) rotate(30.2) scale(1.42 0.51)" />
<path d="M 40.1 12.7 C 58.4 9.6, 31.7 31.1, 33.1 42.9 C 31.5 30.9, 49.2 100.0, 51.6 98.6 C 43.0 90.6, 58.8 30.0, 52.8 40.2 C 48.0 25.6, 78.4 51.6, 79.8 44.9 C 67.1 26.4, 20.4 41.7, 23.6 31.4 C 26.8 16.8, 0.0 4.5, 2.4 18.8 C 8.6 4.0, 78.8 21.3, 75.5 13.1 C 57.2 17.7, 43.9 79.1, 34.2 88.5 C 29.2 68.7, 81.3 84.7, 80.9 98.2 C 77.3 79.3, 87.8 25.4, 82.0 11.8 Z" fill="hsl(106, 75%, 59%)" fill-opacity="0.75" stroke="none" stroke-width="3.64" filter="url(#f1)"  />
<rect x="7.0" y="33.1" width="35.8" height="29.7" rx="3.0" fill="none" fill-opacity="0.35"   transform="translate(4.6 6.1) rotate(78.5) scale(1.00 1.22)" />
<path d="M 36.1 4.6 C 50.6 3.7, 61.8 54.0, 55.3 41.4 C 56.7 55.9, 38.4 0.0, 33.8 3.1 C 34.9 0.0, 98.8 66.8, 89.1 60.4 C 72.5 55.3, 35.3 58.1, 44.2 52.9 C 27.1 44.4, 13.9 25.2, 6.4 19.5 C 1.2 18.8, 53.7 22.0, 39.0 25.8 C 55.2 19.5, 71.1 56.8, 71.3 51.7 Z" fill="none" fill-opacity="0.43" stroke="hsl(151, 70%, 62%)" stroke-width="5.27"  transform="translate(48.7 97.9) rotate(347.9) scale(1.26 1.08)" />
<rect x="53.6" y="60.4" width="39.3" height="36.0" rx="0" fill="hsl(40, 53%, 69%)" fill-opacity="0.97"  filter="url(#f1)" transform="translate(67.2 11.4) rotate(133.0) scale(1.18 1.84)" />
<path d="M 55.9 13.9 C 40.1 0.0, 54.0 62.3, 54.9 71.5 C 51.7 58.5, 89.4 59.1, 86.6 63.4 C 71.1 47.6, 25.1 100.0, 39.1 97.1 C 57.2 100.0, 18.1 14.0, 3.8 13.7 C 0.0 1.7, 50.3 0.0, 63.9 3.0 C 59.2 8.3, 46.9 57.0, 54.0 44.4 C 47.4 56.0, 35.2 76.1, 47.8 64.5 C 60.1 49.5, 72.4 56.8, 82.2 55.8 C 81.7 56.1, 90.8 29.4, 90.3 40.1 Z" fill="none" fill-opacity="0.40" stroke="hsl(40, 53%, 69%)" stroke-width="2.23"  transform="translate(22.8 28.6) rotate(37.2) scale(0.86 1.29)" />
<path d="M 86.8 5.4 C 73.6 22.9, 43.2 100.0, 47.2 96.8 C 40.2 100.0, 35.3 42.1, 37.5 42.5 C 18.9 35.6, 32.6 21.7, 24.8 17.8 C 27.9 13.6, 58.5 35.7, 66.8 50.0 C 74.7 41.3, 39.3 31.6, 52.9 30.8 C 49.9 16.1, 80.0 100.0, 69.4 91.3 C 55.1 75.8, 37.0 64.8, 50.6 71.1 C 61.3 77.3, 79.4 35.3, 90.5 35.8 Z" fill="none" fill-opacity="0.65" stroke="hsl(40, 53%, 69%)" stroke-width="2.59" filter="url(#f1)" transform="translate(89.0 5.5) rotate(22.4) scale(0.68 0.71)" />
<path d="M 30.5 38.0 C 18.7 38.0, 63.0 13.7, 70.1 23.4 C 60.0 40.1, 58.1 49.4, 50.0 56.6 C 59.8 52.7, 89.8 91.0, 77.2 94.1 C 62.1 100.0, 83.1 31.5, 76.3 33.5 C 89.2 18.6, 72.3 67.3, 79.8 64.7 C 93.1 76.7, 100.0 0.0, 86.1 2.8 C 100.0 0.0, 76.5 24.9, 71.2 35.3 C 79.2 38.1, 26.1 9.8, 11.5 5.9 C 19.5 24.1, 100.0 28.5, 98.5 35.6 Z" fill="hsl(322, 74%, 44%)" fill-opacity="0.63" stroke="none" stroke-width="3.09"   />
<rect x="40.1" y="41.7" width="39.2" height="30.4" rx="0" fill="hsl(86, 72%, 68%)" fill-opacity="0.67"   transform="translate(26.7 64.0) rotate(197.0) scale(1.49 0.83)" />
<path d="M 58.8 30.0 C 64.4 49.8, 100.0 28.0, 89.6 22.9 C 98.8 41.5, 61.8 41.7, 47.7 33.7 C 33.4 21.6, 76.8 64.9, 82.5 79.1 C 77.4 67.9, 59.3 64.7, 68.0 58.0 C 77.3 66.1, 48.0 6.5, 59.4 16.7 C 39.8 29.3, 16.6 34.6, 1.7 34.3 C 2.8 30.8, 68.6 51.0, 54.1 57.8 C 36.1 68.7, 63.4 22.3, 67.0 36.5 C 77.5 21.1, 72.5 6.9, 76.7 6.1 Z" fill="none" fill-opacity="0.45" stroke="hsl(322, 74%, 44%)" stroke-width="4.64"  transform="translate(96.7 98.0) rotate(101.3) scale(0.81 1.18)" />
<path d="M 3.2 52.0 C 0.0 69.7, 46.6 27.2, 53.9 13.7 C 45.9 14.7, 52.0 75.3, 40.1 87.9 C 54.2 84.9, 18.3 100.0, 31.0 99.3 C 39.1 100.0, 65.3 97.6, 72.4 99.3 C 73.2 79.9, 85.5 25.9, 77.6 12.0 C 85.4 2.6, 0.0 67.9, 7.8 81.9 C 0.0 94.8, 35.4 28.0, 35.8 23.5 C 48.5 25.4, 33.0 26.3, 22.2 41.2 Z" fill="none" fill-opacity="0.89" stroke="hsl(144, 86%, 72%)" stroke-width="4.18"  transform="translate(88.1 82.4) rotate(133.8) scale(0.79 1.57)" />
<path d="M 31.9 44.1 C 32.7 31.1, 94.3 8.9, 83.9 5.7 C 98.2 0.0, 9.5 12.8, 14.7 27.7 C 17.9 36.5, 56.5 0.0, 64.3 10.1 C 74.2 9.9, 23.6 78.7, 25.1 90.1 C 16.5 70.4, 76.9 0.3, 67.2 14.8 C 72.1 5.4, 45.0 26.6, 48.7 22.9 C 39.1 30.0, 18.7 54.1, 27.3 57.1 C 46.2 75.7, 28.0 36.1, 27.5 31.0 Z" fill="none" fill-opacity="0.76" stroke="hsl(106, 75%, 59%)" stroke-width="1.96"  transform="translate(89.6 4.6) rotate(181.8) scale(1.96 1.80)" />
<path d="M 51.0 31.4 C 51.6 27.3, 49.7 80.4, 43.4 75.0 C 32.7 68.2, 40.6 84.3, 35.7 85.8 C 26.8 98.1, 100.0 22.2, 94.7 23.7 C 100.0 38.0, 23.1 27.9, 37.0 26.9 C 23.8 32.7, 22.9 23.2, 22.9 19.9 C 3.6 1.0, 17.8 66.7, 26.8 81.7 C 11.7 73.9, 42.2 71.6, 36.7 68.5 C 29.1 59.0, 84.5 60.6, 89.2 63.9 Z" fill="none" fill-opacity="0.42" stroke="hsl(151, 70%, 62%)" stroke-width="3.76"  transform="translate(90.4 39.4) rotate(34.8) scale(0.99 0.62)" />
<path d="M 13.7 71.7 C 32.4 71.1, 41.4 61.0, 37.8 53.8 C 32.7 44.5, 42.6 28.6, 30.9 30.9 C 26.5 18.7, 13.9 52.5, 10.9 51.2 C 2.9 63.2, 6.7 85.0, 13.8 87.7 C 16.0 100.0, 79.8 80.9, 87.6 92.7 C 100.0 100.0, 75.6 30.7, 86.0 35.6 C 73.1 45.8, 73.5 77.3, 65.1 69.9 C 83.0 68.7, 21.3 18.5, 26.9 16.3 Z" fill="none" fill-opacity="0.62" stroke="hsl(151, 70%, 62%)" stroke-width="4.95"  transform="translate(93.3 45.0) rotate(172.8) scale(1.56 0.84)" />
<path d="M 27.3 53.6 C 23.9 34.0, 70.6 52.7, 75.5 62.1 C 74.9 59.3, 14.3 71.9, 29.1 70.8 C 29.8 83.7, 24.9 70.4, 21.3 67.1 C 7.6 86.4, 26.9 14.9, 18.7 29.3 C 7.1 33.0, 45.7 47.1, 50.4 56.7 C 35.8 65.7, 30.2 48.9, 37.5 46.1 " fill="none" fill-opacity="0.93" stroke="hsl(151, 70%, 62%)" stroke-width="4.18"  transform="translate(39.2 37.8) rotate(248.7) scale(1.96 0.99)" />
<path d="M 8.1 39.5 C 3.1 39.5, 81.6 20.4, 88.5 34.9 C 98.2 17.5, 70.8 70.5, 72.4 80.1 C 91.0 92.3, 89.3 93.1, 84.4 95.4 C 100.0 99.6, 96.4 76.7, 82.3 91.4 C 64.4 98.4, 32.4 100.0, 44.2 99.2 C 34.1 100.0, 56.5 26.0, 57.6 29.8 C 77.4 24.7, 40.2 67.2, 45.7 74.4 Z" fill="hsl(290, 83%, 63%)" fill-opacity="0.88" stroke="none" stroke-width="2.43" filter="url(#f1)" transform="translate(40.2 31.4) rotate(77.3) scale(1.19 1.59)" />
<path d="M 64.9 24.0 C 63.0 28.1, 100.0 72.6, 98.9 64.1 C 100.0 65.8, 48.5 28.4, 35.6 23.5 C 18.2 39.0, 25.2 84.0, 31.5 86.3 C 22.6 90.2, 72.4 40.0, 71.0 52.2 C 54.9 58.3, 84.3 48.2, 94.6 38.9 C 100.0 39.8, 33.4 2.9, 45.3 16.7 Z" fill="none" fill-opacity="0.83" stroke="hsl(83, 65%, 44%)" stroke-width="4.04"  transform="translate(22.2 42.3) rotate(289.3) scale(0.76 1.32)" />
<circle cx="92.2" cy="26.5" r="8.0" fill="url(#g2)" fill-opacity="0.64"  transform="translate(40.9 13.7) rotate(64.2) scale(1.30 0.97)" />
<path d="M 64.4 58.9 C 58.0 58.9, 7.1 34.5, 1.4 25.7 C 19.3 8.0, 58.7 100.0, 48.7 92.3 C 35.3 91.0, 0.0 48.5, 2.3 60.8 C 0.0 54.2, 22.4 14.0, 36.7 7.3 C 47.7 16.9, 45.0 9.0, 54.2 22.6 C 60.7 27.9, 61.1 22.9, 60.8 23.4 C 46.7 10.5, 0.0 39.6, 3.3 35.5 C 0.0 53.0, 88.1 48.6, 87.8 45.3 Z" fill="hsl(106, 75%, 59%)" fill-opacity="0.75" stroke="none" stroke-width="3.11"  transform="translate(24.5 82.2) rotate(331.4) scale(1.11 1.36)" />
<rect x="66.7" y="33.6" width="26.1" height="38.9" rx="0" fill="none" fill-opacity="0.56"   transform="translate(72.3 80.5) rotate(35.1) scale(1.38 0.79)" />
<rect x="40.9" y="5.2" width="37.6" height="14.2" rx="0" fill="hsl(290, 83%, 63%)" fill-opacity="0.41"   transform="translate(43.3 54.6) rotate(151.5) scale(1.53 0.63)" />
<circle cx="86.0" cy="64.2" r="8.2" fill="url(#g2)" fill-opacity="0.83" filter="url(#f1)" transform="translate(94.2 84.4) rotate(283.0) scale(1.76 1.84)" />
<rect x="14.0" y="45.2" width="29.0" height="19.2" rx="0" fill="none" fill-opacity="0.36"  filter="url(#f1)" transform="translate(55.1 90.6) rotate(312.6) scale(0.94 1.92)" />
<rect x="66.8" y="54.5" width="20.1" height="20.2" rx="0" fill="hsl(83, 65%, 44%)" fill-opacity="0.78" stroke="hsl(2, 82%, 55%)" stroke-width="3.6"  transform="translate(60.8 79.0) rotate(295.8) scale(0.85 0.62)" />
<rect x="12.9" y="49.3" width="41.4" height="23.5" rx="0" fill="hsl(106, 75%, 59%)" fill-opacity="0.30"  filter="url(#f1)" transform="translate(43.3 67.5) rotate(215.5) scale(1.42 0.96)" />
<path d="M 43.8 2.0 C 45.0 0.0, 90.6 88.5, 85.8 97.9 C 76.3 95.3, 44.5 0.4, 35.5 14.3 C 36.8 0.0, 33.1 71.3, 38.2 59.2 C 23.9 77.3, 15.0 97.2, 4.6 91.2 C 12.6 83.2, 21.2 28.1, 12.2 13.9 C 26.7 33.1, 65.7 7.8, 74.7 2.4 C 87.6 11.5, 33.1 36.1, 44.6 34.0 C 50.0 28.1, 100.0 76.3, 95.6 67.5 C 100.0 75.4, 10.9 30.1, 17.8 32.7 Z" fill="hsl(183, 71%, 60%)" fill-opacity="0.49" stroke="none" stroke-width="1.78"  transform="translate(51.7 56.2) rotate(2.0) scale(0.89 0.66)" />
<path d="M 21.4 27.0 C 12.6 12.5, 68.2 7.8, 76.8 20.5 C 58.2 6.5, 73.8 44.4, 86.6 51.9 C 82.6 66.8, 50.1 91.1, 41.0 93.7 C 31.1 100.0, 84.0 59.4, 89.9 52.6 C 82.7 39.0, 91.4 55.5, 78.7 70.0 C 61.2 69.1, 66.2 18.4, 51.3 27.7 C 40.6 36.5, 22.9 64.6, 16.5 59.9 C 13.1 75.3, 1.6 69.8, 7.8 60.6 Z" fill="hsl(2, 82%, 55%)" fill-opacity="0.80" stroke="none" stroke-width="4.83"   />
<circle cx="52.1" cy="82.5" r="0.4" fill="url(#g2)" fill-opacity="0.52" filter="url(#f1)" transform="translate(39.6 48.5) rotate(63.9) scale(1.03 1.52)" />
<path d="M 29.9 81.5 C 40.3 90.3, 57.9 34.3, 44.8 20.7 C 54.8 13.4, 33.1 17.9, 41.5 20.7 C 57.5 4.6, 17.4 44.0, 15.8 43.8 C 22.0 55.2, 80.9 36.7, 76.2 24.1 C 76.1 42.6, 34.4 59.3, 21.7 57.2 C 34.8 64.2, 47.5 54.0, 54.4 60.8 C 73.5 65.1, 47.5 70.2, 35.4 68.3 C 24.1 65.6, 62.7 4.9, 59.5 11.0 C 63.8 15.0, 0.0 59.9, 8.5 49.5 Z" fill="hsl(106, 75%, 59%)" fill-opacity="0.55" stroke="none" stroke-width="4.95"  transform="translate(96.8 56.4) rotate(130.5) scale(0.69 1.73)" />
<path d="M 11.3 79.3 C 22.6 73.2, 89.4 0.0, 76.2 7.4 C 63.3 0.0, 29.8 71.3, 22.5 85.5 C 41.4 86.2, 98.0 64.7, 90.1 50.1 C 98.5 69.9, 74.4 9.6, 87.2 21.0 C 67.9 9.7, 24.6 24.9, 11.1 22.2 C 9.7 25.7, 27.5 66.3, 28.1 79.4 C 30.8 76.8, 40.7 81.2, 44.1 86.6 C 35.8 100.0, 0.0 43.2, 2.6 35.9 C 0.0 44.1, 100.0 28.2, 99.0 22.2 C 83.0 10.3, 57.7 91.1, 61.9 84.9 Z" fill="hsl(151, 70%, 62%)" fill-opacity="0.27" stroke="none" stroke-width="4.22"  transform="translate(85.8 79.6) rotate(89.5) scale(1.80 0.83)" />
<path d="M 58.7 12.1 C 41.8 31.5, 4.5 88.2, 13.8 93.5 C 25.4 93.3, 0.0 28.2, 3.3 40.1 C 19.3 22.0, 28.7 46.3, 41.2 45.5 C 24.0 40.5, 92.3 20.2, 97.9 12.8 C 100.0 0.0, 58.0 87.4, 57.0 72.9 C 73.7 57.0, 90.9 18.2, 91.7 12.6 C 84.1 22.4, 18.8 49.3, 21.0 50.8 C 2.0 53.1, 45.3 57.9, 44.5 58.8 C 42.9 41.2, 83.8 62.9, 84.4 54.7 Z" fill="hsl(144, 86%, 72%)" fill-opacity="0.60" stroke="none" stroke-width="3.81"  transform="translate(84.9 57.9) rotate(272.0) scale(1.28 0.90)" />
<circle cx="2.5" cy="7.8" r="6.4" fill="url(#g1)" fill-opacity="0.99"  transform="translate(50.3 23.3) rotate(8.3) scale(1.13 0.96)" />
<path d="M 83.9 87.6 C 100.0 92.4, 93.8 69.0, 84.8 69.7 C 100.0 85.1, 79.0 13.6, 83.5 11.6 C 67.8 0.0, 87.9 37.3, 97.6 28.1 C 97.7 29.3, 94.8 22.0, 92.2 31.7 C 100.0 37.7, 83.4 88.5, 97.4 81.1 C 100.0 94.3, 61.9 81.0, 62.5 91.2 C 48.0 100.0, 93.1 53.3, 95.5 53.6 Z" fill="none" fill-opacity="0.61" stroke="hsl(40, 53%, 69%)" stroke-width="3.52" filter="url(#f1)" transform="translate(53.8 21.4) rotate(140.0) scale(1.54 1.96)" />
<path d="M 52.4 42.0 C 53.3 49.1, 69.5 53.6, 63.3 48.2 C 79.1 53.6, 12.6 4.1, 0.8 15.8 C 0.0 35.6, 95.6 27.8, 84.7 32.4 C 65.0 22.0, 82.8 60.9, 82.0 73.6 C 74.4 83.2, 56.6 19.0, 54.7 22.1 C 65.5 36.0, 100.0 77.1, 95.0 79.8 Z" fill="hsl(83, 65%, 44%)" fill-opacity="0.34" stroke="none" stroke-width="4.23"  transform="translate(90.5 66.7) rotate(253.5) scale(1.93 0.98)" />
<rect x="57.7" y="16.6" width="37.1" height="29.4" rx="0" fill="none" fill-opacity="0.69"   transform="translate(98.9 92.9) rotate(292.8) scale(1.72 2.00)" />
<rect x="14.2" y="27.2" width="25.9" height="36.8" rx="14.5" fill="none" fill-opacity="0.63"   transform="translate(86.5 61.6) rotate(9.2) scale(1.71 1.60)" />
<rect x="3.5" y="24.6" width="35.6" height="20.4" rx="15.6" fill="hsl(290, 83%, 63%)" fill-opacity="0.42"   transform="translate(77.1 98.8) rotate(347.7) scale(0.77 0.76)" />
<path d="M 54.8 15.9 C 73.9 12.8, 25.7 73.2, 35.5 59.5 C 16.9 61.8, 0.5 4.3, 6.3 7.3 C 0.0 18.3, 11.0 14.0, 14.3 10.5 C 16.8 20.5, 68.9 88.3, 71.3 89.6 C 73.7 97.5, 57.4 97.8, 70.2 84.2 C 79.2 75.4, 95.9 92.9, 98.4 87.8 C 78.7 70.9, 7.7 61.8, 16.0 63.3 C 4.6 66.7, 78.4 6.6, 89.0 18.2 C 94.9 31.9, 56.1 99.6, 48.2 97.9 Z" fill="hsl(242, 72%, 49%)" fill-opacity="0.47" stroke="none" stroke-width="3.04"   />
<path d="M 18.0 68.3 C 37.7 67.9, 90.1 33.8, 96.3 42.6 C 85.7 35.0, 49.9 44.1, 38.7 37.2 C 19.4 35.4, 88.2 100.0, 78.1 99.1 C 86.6 100.0, 0.0 65.2, 7.5 74.8 C 9.2 64.9, 13.0 15.1, 24.8 12.1 C 25.5 24.2, 37.5 68.5, 34.0 62.9 C 17.3 47.9, 0.0 28.5, 0.3 25.4 C 0.0 9.1, 46.8 9.2, 44.1 10.0 Z" fill="hsl(106, 75%, 59%)" fill-opacity="0.55" stroke="none" stroke-width="4.54"  transform="translate(33.6 83.0) rotate(114.1) scale(1.50 0.82)" />
<path d="M 22.7 99.7 C 30.7 93.0, 42.0 60.1, 52.0 71.0 C 45.8 71.4, 54.1 94.0, 45.2 89.4 C 40.3 97.4, 80.0 58.4, 77.9 59.8 C 85.3 50.5, 26.0 21.7, 25.0 14.4 C 18.4 9.7, 69.1 38.8, 69.2 26.9 C 49.5 46.6, 58.6 52.8, 48.8 38.1 C 35.5 54.4, 80.5 69.2, 66.2 59.4 C 63.4 73.1, 0.0 55.9, 1.9 46.8 C 0.0 57.3, 49.0 0.0, 39.6 8.2 Z" fill="hsl(2, 82%, 55%)" fill-opacity="0.32" stroke="none" stroke-width="1.94"  transform="translate(9.4 38.6) rotate(295.5) scale(1.52 1.82)" />
<path d="M 36.6 49.7 C 47.4 59.2, 31.4 23.3, 27.4 18.9 C 10.0 37.4, 42.1 41.4, 30.7 46.6 C 31.3 49.9, 77.7 0.0, 68.3 0.7 C 86.0 18.2, 31.2 89.5, 45.7 82.8 C 28.9 93.6, 87.5 54.6, 94.7 55.9 C 89.2 75.0, 63.0 81.3, 52.2 69.8 C 56.0 53.4, 20.6 87.0, 18.7 91.2 C 23.1 76.7, 57.5 57.8, 62.6 63.6 Z" fill="hsl(86, 72%, 68%)" fill-opacity="1.00" stroke="none" stroke-width="1.92"  transform="translate(49.3 38.3) rotate(355.7) scale(1.58 1.44)" />
<rect x="56.5" y="49.0" width="26.5" height="33.4" rx="8.7" fill="none" fill-opacity="0.32"   transform="translate(86.8 69.1) rotate(166.1) scale(1.38 0.55)" />
<path d="M 10.0 0.5 C 0.0 0.0, 0.0 72.8, 14.1 63.4 C 0.0 71.2, 100.0 65.5, 95.4 76.1 C 92.2 91.0, 28.9 67.5, 25.9 74.8 C 27.3 94.6, 0.0 23.5, 1.9 35.4 C 13.2 21.9, 2.5 57.1, 4.6 62.2 C 0.0 73.7, 80.4 60.5, 94.6 45.6 C 100.0 58.8, 37.2 12.0, 38.3 8.3 C 32.9 13.7, 19.0 44.5, 26.0 56.1 C 28.5 69.8, 100.0 82.7, 94.4 90.7 " fill="none" fill-opacity="0.52" stroke="hsl(151, 70%, 62%)" stroke-width="4.21" filter="url(#f1)" transform="translate(2.1 9.7) rotate(345.4) scale(1.92 0.88)" />
<rect x="70.8" y="12.6" width="27.1" height="38.9" rx="13.0" fill="none" fill-opacity="0.34"    />
<path d="M 17.4 71.5 C 29.4 61.5, 73.6 58.5, 69.0 55.2 C 54.0 56.0, 43.7 73.0, 49.2 63.5 C 64.9 80.2, 36.1 54.8, 35.8 41.0 C 34.9 51.6, 44.4 38.3, 50.8 30.9 C 36.5 45.6, 81.1 91.6, 78.2 92.6 C 58.7 97.4, 81.6 100.0, 93.7 99.7 C 97.9 100.0, 6.6 9.5, 8.3 21.1 Z" fill="none" fill-opacity="0.34" stroke="hsl(290, 83%, 63%)" stroke-width="1.30" filter="url(#f1)" transform="translate(90.6 58.1) rotate(298.4) scale(1.96 1.45)" />
<circle cx="49.3" cy="37.9" r="2.5" fill="hsl(40, 53%, 69%)" fill-opacity="0.66"  transform="translate(59.0 40.3) rotate(170.4) scale(0.63 0.79)" />
<circle cx="66.8" cy="54.1" r="5.5" fill="hsl(322, 74%, 44%)" fill-opacity="0.88"  transform="translate(9.1 81.5) rotate(225.8) scale(0.76 1.16)" />
<path d="M 90.2 75.7 C 100.0 93.3, 60.0 38.3, 46.0 45.7 C 33.0 51.3, 17.7 45.0, 18.7 32.4 C 0.0 49.8, 61.4 81.6, 69.5 82.0 C 57.4 70.5, 38.6 2.5, 48.5 11.1 C 41.8 0.0, 65.9 84.1, 80.5 82.3 C 97.8 89.0, 60.5 50.9, 50.6 46.6 C 45.1 32.6, 9.3 49.5, 4.6 57.2 C 14.2 64.8, 24.5 43.4, 34.8 42.5 C 38.3 26.1, 100.0 73.9, 90.4 81.7 C 80.6 66.0, 46.1 82.7, 32.8 90.5 Z" fill="none" fill-opacity="0.75" stroke="hsl(104, 72%, 65%)" stroke-width="2.73"  transform="translate(60.2 22.9) rotate(60.8) scale(1.14 0.56)" />
<rect x="6.2" y="15.9" width="46.5" height="11.2" rx="0" fill="hsl(183, 71%, 60%)" fill-opacity="0.41" stroke="hsl(106, 75%, 59%)" stroke-width="3.9"  transform="translate(88.5 25.9) rotate(209.2) scale(0.52 1.59)" />
<rect x="48.5" y="68.4" width="43.5" height="26.8" rx="0" fill="hsl(151, 70%, 62%)" fill-opacity="0.53" stroke="hsl(144, 86%, 72%)" stroke-width="2.6"  transform="translate(88.8 37.3) rotate(265.4) scale(0.87 1.89)" />
<rect x="32.7" y="22.6" width="20.9" height="18.6" rx="11.9" fill="none" fill-opacity="0.82"  filter="url(#f1)" transform="translate(97.4 15.7) rotate(302.6) scale(0.78 1.39)" />
<rect x="35.5" y="22.4" width="24.7" height="13.0" rx="16.3" fill="hsl(106, 75%, 59%)" fill-opacity="0.75"   transform="translate(75.5 14.7) rotate(240.3) scale(0.92 1.96)" />
<path d="M 22.6 78.4 C 19.3 65.0, 20.5 45.0, 31.7 48.9 C 40.3 41.6, 2.9 0.0, 11.3 7.7 C 0.0 0.0, 92.0 53.2, 97.2 59.4 C 99.3 71.9, 78.5 32.0, 75.4 29.4 C 67.8 13.3, 36.2 53.3, 36.2 60.1 C 19.3 43.3, 41.6 100.0, 51.2 99.0 Z" fill="hsl(104, 72%, 65%)" fill-opacity="0.44" stroke="none" stroke-width="4.30"  transform="translate(58.7 13.6) rotate(29.2) scale(0.66 0.70)" />
<path d="M 54.0 0.0 C 62.5 4.8, 59.9 94.7, 73.5 94.2 C 64.9 100.0, 62.7 42.1, 61.4 49.2 C 62.5 30.1, 93.6 28.8, 88.5 39.4 C 95.7 37.1, 51.5 72.3, 47.8 79.2 C 61.0 76.8, 23.9 100.0, 11.2 91.6 C 2.1 86.5, 69.9 22.5, 71.6 29.2 C 71.7 22.4, 32.9 57.2, 47.7 46.5 C 50.7 43.5, 25.1 56.9, 24.8 49.2 Z" fill="none" fill-opacity="0.32" stroke="hsl(104, 72%, 65%)" stroke-width="4.76"  transform="translate(67.3 87.1) rotate(127.2) scale(0.66 0.96)" />
<circle cx="80.9" cy="80.2" r="10.0" fill="url(#g1)" fill-opacity="0.75"  transform="translate(85.4 7.6) rotate(143.7) scale(1.67 1.12)" />
<rect x="61.7" y="15.1" width="38.3" height="32.7" rx="0" fill="hsl(40, 53%, 69%)" fill-opacity="0.65"   transform="translate(76.5 92.2) rotate(333.9) scale(0.62 0.70)" />
<path d="M 17.8 45.2 C 28.1 59.1, 9.2 59.8, 11.6 64.9 C 9.8 68.6, 63.3 30.0, 78.0 17.8 C 85.3 0.0, 70.0 32.9, 63.1 22.1 C 47.9 36.3, 20.2 5.1, 7.8 19.6 C 0.0 1.7, 18.4 59.8, 28.8 68.0 C 14.3 69.6, 26.4 46.8, 25.9 38.2 Z" fill="none" fill-opacity="0.69" stroke="hsl(290, 83%, 63%)" stroke-width="3.55"  transform="translate(45.9 11.6) rotate(226.3) scale(0.61 1.03)" />
<rect x="11.5" y="43.0" width="39.2" height="36.3" rx="0" fill="none" fill-opacity="0.59" stroke="hsl(242, 72%, 49%)" stroke-width="1.4" filter="url(#f1)"  />
<circle cx="0.4" cy="27.6" r="3.0" fill="url(#g2)" fill-opacity="0.59"  transform="translate(16.9 56.2) rotate(92.7) scale(0.97 1.34)" />
<rect x="17.1" y="29.6" width="38.9" height="30.8" rx="4.2" fill="none" fill-opacity="0.28"   transform="translate(75.7 82.2) rotate(115.6) scale(0.88 1.04)" />
<circle cx="56.3" cy="19.3" r="7.3" fill="url(#g0)" fill-opacity="0.62"  transform="translate(80.4 100.0) rotate(326.9) scale(1.55 1.39)" />
<rect x="7.5" y="21.3" width="44.9" height="18.8" rx="10.6" fill="hsl(183, 71%, 60%)" fill-opacity="0.22" stroke="hsl(242, 72%, 49%)" stroke-width="4.6"  transform="translate(88.6 19.6) rotate(241.0) scale(1.26 1.85)" />
<path d="M 79.2 96.6 C 94.5 89.8, 100.0 0.0, 95.5 0.8 C 100.0 6.7, 71.9 52.7, 85.5 48.8 C 100.0 68.5, 18.0 62.4, 23.9 49.7 C 32.0 36.8, 51.3 59.1, 65.9 60.4 C 83.5 45.8, 89.7 92.9, 85.1 94.1 C 100.0 89.3, 84.8 49.1, 83.1 40.2 C 98.7 41.8, 58.2 76.6, 59.0 85.2 C 46.9 87.7, 38.3 54.2, 39.5 65.9 C 22.7 55.3, 20.3 52.7, 31.8 61.2 Z" fill="hsl(290, 83%, 63%)" fill-opacity="0.94" stroke="none" stroke-width="3.67"   />
<path d="M 72.6 24.6 C 71.4 13.7, 100.0 65.8, 94.7 72.1 C 100.0 81.3, 13.8 11.3, 0.1 12.5 C 19.9 16.3, 96.4 18.5, 89.1 9.6 C 100.0 4.6, 47.5 13.4, 41.5 3.3 C 39.3 3.2, 9.6 54.2, 22.0 43.3 C 6.9 40.6, 20.9 73.0, 30.3 85.9 Z" fill="none" fill-opacity="0.32" stroke="hsl(183, 71%, 60%)" stroke-width="4.90"  transform="translate(4.9 6.9) rotate(302.5) scale(1.83 0.82)" />
<path d="M 71.6 19.1 C 86.8 22.1, 94.7 19.3, 88.1 7.1 C 100.0 15.6, 89.9 18.0, 80.1 4.0 C 92.4 20.9, 80.6 32.5, 73.4 43.2 C 59.3 60.6, 30.1 44.7, 34.8 53.3 C 47.0 34.3, 30.5 44.7, 39.5 43.5 C 41.2 57.0, 36.1 33.1, 43.2 27.7 C 55.2 44.8, 89.3 85.5, 97.3 74.2 C 94.2 78.5, 56.8 100.0, 67.7 87.9 C 62.6 73.9, 0.0 61.1, 2.9 69.5 C 21.3 72.2, 2.0 0.0, 6.7 13.9 Z" fill="none" fill-opacity="0.78" stroke="hsl(144, 86%, 72%)" stroke-width="1.60"  transform="translate(21.8 56.8) rotate(45.7) scale(0.53 1.08)" />
<path d="M 13.8 10.8 C 3.4 0.0, 77.7 9.6, 88.0 22.2 C 100.0 37.9, 0.0 38.0, 4.2 36.5 C 0.0 41.8, 13.0 45.1, 4.9 32.5 C 0.0 31.6, 52.2 100.0, 49.6 95.6 C 61.3 86.9, 73.5 96.0, 69.3 83.8 C 62.7 100.0, 86.3 85.5, 71.4 71.8 C 77.0 81.8, 93.6 64.6, 79.1 75.6 C 65.1 90.0, 30.6 91.8, 44.4 77.4 C 35.8 88.7, 69.9 94.2, 63.9 80.3 C 83.1 73.2, 42.7 79.6, 49.8 89.2 Z" fill="hsl(40, 53%, 69%)" fill-opacity="0.63" stroke="none" stroke-width="2.35"  transform="translate(60.0 31.5) rotate(237.1) scale(1.02 0.76)" />
<rect x="46.2" y="35.2" width="37.4" height="14.6" rx="0" fill="none" fill-opacity="0.50"   transform="translate(84.8 87.6) rotate(171.2) scale(1.20 1.21)" />
<path d="M 33.9 72.9 C 50.2 54.0, 7.1 100.0, 7.5 93.2 C 0.0 95.6, 29.9 80.1, 33.8 80.2 C 52.6 94.7, 22.7 7.2, 31.8 13.0 C 43.0 13.6, 95.4 100.0, 96.6 92.5 C 100.0 72.9, 75.0 94.3, 80.7 83.1 C 98.2 91.0, 44.7 23.5, 55.9 30.8 C 70.0 32.6, 1.7 75.9, 10.8 69.8 C 17.2 67.7, 91.8 87.3, 87.0 82.2 C 86.5 72.8, 22.3 8.7, 35.6 11.7 C 36.2 12.6, 0.0 46.3, 12.2 31.6 Z" fill="none" fill-opacity="0.37" stroke="hsl(106, 75%, 59%)" stroke-width="3.80" filter="url(#f1)" transform="translate(38.0 34.1) rotate(254.4) scale(1.31 1.27)" />
<circle cx="31.1" cy="16.2" r="8.4" fill="url(#g1)" fill-opacity="0.49"   />
<rect x="55.3" y="57.1" width="34.5" height="18.7" rx="0" fill="none" fill-opacity="0.77"   transform="translate(48.5 89.2) rotate(322.1) scale(0.79 1.23)" />
<path d="M 96.2 30.9 C 100.0 26.1, 45.1 93.1, 33.7 96.4 C 51.5 100.0, 8.6 81.3, 14.2 72.2 C 11.9 84.9, 40.5 90.8, 46.0 80.7 C 26.1 77.4, 28.0 73.6, 37.8 64.4 C 45.0 65.7, 15.5 59.8, 24.4 66.2 C 24.5 55.0, 69.9 6.2, 78.3 1.5 " fill="hsl(242, 72%, 49%)" fill-opacity="0.52" stroke="none" stroke-width="3.84"   />
<rect x="21.0" y="6.5" width="41.9" height="30.3" rx="3.2" fill="none" fill-opacity="0.84"   transform="translate(64.4 19.0) rotate(16.5) scale(1.02 0.97)" />
<rect x="19.3" y="48.2" width="42.7" height="32.7" rx="0" fill="none" fill-opacity="0.77"   transform="translate(73.5 71.7) rotate(106.5) scale(1.80 1.86)" />
<circle cx="69.7" cy="13.8" r="4.5" fill="hsl(2, 82%, 55%)" fill-opacity="0.59"  transform="translate(30.4 34.1) rotate(161.7) scale(1.66 1.69)" />
<path d="M 8.2 86.5 C 22.1 100.0, 22.8 70.5, 24.7 80.3 C 40.3 96.9, 6.6 66.9, 9.3 57.8 C 27.7 75.5, 51.8 24.3, 49.9 18.1 C 51.3 27.0, 64.2 46.2, 73.1 60.8 C 60.2 51.0, 22.6 83.0, 24.5 87.0 C 39.2 100.0, 59.4 66.4, 57.9 51.5 C 61.2 35.5, 17.0 75.1, 21.9 66.5 C 27.8 56.9, 84.8 60.6, 85.2 75.3 C 83.2 61.4, 65.6 73.0, 78.8 65.6 C 63.7 59.2, 69.2 6.4, 82.8 15.6 Z" fill="none" fill-opacity="0.63" stroke="hsl(2, 82%, 55%)" stroke-width="4.94"  transform="translate(28.1 21.6) rotate(306.0) scale(1.65 1.39)" />
<path d="M 96.0 81.8 C 92.0 76.2, 19.0 8.5, 28.1 10.4 C 16.9 2.3, 81.5 10.9, 80.3 17.9 C 70.6 24.0, 91.2 53.5, 96.0 66.7 C 82.5 69.1, 24.3 73.4, 10.6 88.1 C 0.0 70.7, 0.0 5.8, 0.1 14.2 C 10.6 33.5, 40.4 41.7, 28.1 36.6 Z" fill="hsl(151, 70%, 62%)" fill-opacity="0.56" stroke="none" stroke-width="0.93"  transform="translate(21.7 87.8) rotate(223.4) scale(0.95 1.96)" />
<path d="M 47.8 19.9 C 48.6 0.4, 6.6 33.6, 1.6 23.9 C 10.1 41.8, 3.0 100.0, 17.8 91.8 C 22.1 77.7, 4.4 100.0, 10.8 95.1 C 28.4 95.8, 24.4 19.1, 11.1 8.9 C 27.8 16.7, 59.5 80.5, 47.1 76.3 C 59.5 62.7, 23.2 100.0, 17.8 99.7 Z" fill="none" fill-opacity="0.28" stroke="hsl(2, 82%, 55%)" stroke-width="3.68"  transform="translate(59.6 71.0) rotate(155.0) scale(1.43 1.91)" />
<path d="M 89.2 41.5 C 95.4 46.4, 34.9 62.6, 41.3 56.9 C 33.6 70.7, 58.6 14.5, 44.8 11.9 C 39.0 10.1, 31.3 29.6, 27.8 34.7 C 19.9 54.0, 37.1 83.6, 50.8 70.1 C 41.0 51.2, 0.0 74.0, 1.2 74.9 C 18.3 66.5, 95.6 78.5, 82.7 67.0 C 87.1 84.5, 70.4 71.6, 70.9 68.0 C 76.6 76.1, 74.2 49.3, 72.4 38.9 Z" fill="hsl(86, 72%, 68%)" fill-opacity="0.86" stroke="none" stroke-width="2.05"  transform="translate(23.4 81.6) rotate(175.6) scale(1.30 1.49)" />
<rect x="16.8" y="57.7" width="30.6" height="37.6" rx="16.3" fill="none" fill-opacity="0.26"   transform="translate(84.5 14.1) rotate(251.9) scale(1.75 1.07)" />
<path d="M 57.0 31.1 C 42.2 49.2, 63.7 33.3, 54.3 18.6 C 71.7 34.5, 5.9 74.5, 20.3 71.7 C 13.6 66.7, 71.6 16.8, 74.5 15.5 C 77.8 22.1, 38.6 41.3, 41.1 41.0 C 57.7 42.7, 100.0 14.6, 87.8 4.1 C 75.8 0.0, 67.4 90.5, 69.3 98.8 C 68.4 100.0, 50.4 60.2, 47.2 67.2 Z" fill="hsl(183, 71%, 60%)" fill-opacity="0.66" stroke="none" stroke-width="3.43"   />
<circle cx="26.0" cy="27.0" r="15.2" fill="url(#g0)" fill-opacity="0.78"  transform="translate(52.5 81.3) rotate(206.0) scale(0.76 1.73)" />
<path d="M 84.4 54.1 C 73.4 49.7, 83.0 15.8, 94.5 2.2 C 100.0 13.3, 91.1 19.7, 87.2 28.2 C 88.4 20.9, 94.9 72.8, 85.5 80.5 C 67.0 78.7, 10.1 12.4, 19.9 9.6 C 20.3 0.0, 39.7 73.2, 32.7 87.6 C 15.1 81.0, 21.9 54.1, 20.4 44.4 C 1.9 43.4, 41.0 88.8, 35.4 83.8 Z" fill="none" fill-opacity="0.85" stroke="hsl(290, 83%, 63%)" stroke-width="2.68"  transform="translate(39.8 28.7) rotate(216.7) scale(1.23 1.06)" />
<circle cx="88.4" cy="73.8" r="3.5" fill="hsl(86, 72%, 68%)" fill-opacity="0.90"  transform="translate(20.7 74.4) rotate(340.5) scale(1.35 1.91)" />
<circle cx="88.7" cy="33.1" r="3.7" fill="url(#g0)" fill-opacity="0.88"  transform="translate(20.5 29.0) rotate(50.2) scale(1.41 1.04)" />
<circle cx="29.6" cy="1.3" r="4.4" fill="url(#g0)" fill-opacity="0.63" filter="url(#f1)" transform="translate(95.7 84.3) rotate(259.2) scale(0.56 1.26)" />
<path d="M 18.9 77.7 C 0.6 85.8, 0.0 28.5, 0.2 18.4 C 20.2 13.0, 24.6 0.0, 38.4 3.1 C 20.9 12.3, 15.0 30.9, 11.9 25.9 C 0.0 35.0, 82.0 38.7, 70.7 42.9 C 56.2 32.0, 0.0 59.1, 4.9 49.8 C 11.3 39.1, 19.6 25.8, 31.7 31.9 C 37.3 41.7, 47.6 16.1, 46.5 9.6 C 28.4 2.1, 0.0 60.9, 5.8 66.0 C 0.0 79.8, 80.4 48.3, 76.2 44.5 C 70.8 31.9, 99.3 48.8, 87.6 45.4 Z" fill="none" fill-opacity="0.88" stroke="hsl(151, 70%, 62%)" stroke-width="2.16"  transform="translate(39.2 45.6) rotate(132.1) scale(1.29 0.56)" />
<path d="M 73.5 10.3 C 76.9 0.0, 83.2 62.0, 95.1 67.0 C 100.0 49.8, 98.4 30.0, 83.8 19.4 C 96.1 36.4, 58.7 45.6, 67.8 31.0 C 47.9 19.4, 83.8 61.6, 78.8 66.9 C 82.0 69.2, 18.2 13.9, 15.6 25.9 C 19.9 30.1, 92.9 0.0, 83.5 10.3 Z" fill="hsl(2, 82%, 55%)" fill-opacity="0.62" stroke="none" stroke-width="1.76"  transform="translate(80.3 40.5) rotate(66.0) scale(1.73 1.47)" />
<circle cx="61.1" cy="48.3" r="7.6" fill="hsl(144, 86%, 72%)" fill-opacity="0.97"   />
<rect x="7.8" y="35.2" width="25.7" height="33.8" rx="0" fill="none" fill-opacity="0.91"   transform="translate(39.1 38.2) rotate(64.7) scale(0.74 0.98)" />
<path d="M 94.8 74.8 C 91.2 65.1, 26.7 48.7, 17.2 50.5 C 1.2 43.8, 67.0 85.4, 71.0 89.1 C 75.3 74.7, 46.2 51.6, 58.3 59.8 C 73.4 42.8, 60.5 23.1, 64.6 28.0 C 82.6 28.1, 59.3 36.0, 67.4 34.2 C 65.5 44.1, 73.8 38.1, 63.5 35.3 C 78.0 48.0, 44.5 23.3, 56.1 19.3 C 38.4 7.5, 45.5 68.8, 52.9 81.6 C 49.1 88.7, 12.6 24.8, 1.7 30.6 Z" fill="hsl(106, 75%, 59%)" fill-opacity="0.58" stroke="none" stroke-width="3.19"  transform="translate(21.3 55.7) rotate(277.6) scale(1.49 0.93)" />
<circle cx="35.2" cy="7.5" r="12.1" fill="hsl(106, 75%, 59%)" fill-opacity="0.84"  transform="translate(45.7 0.4) rotate(120.6) scale(1.76 1.28)" />
<path d="M 60.4 82.1 C 54.8 90.5, 12.1 19.6, 0.3 14.7 C 0.0 31.5, 2.7 46.3, 17.4 55.0 C 16.6 35.9, 37.2 94.2, 36.3 96.4 C 30.6 91.5, 76.4 68.4, 64.3 73.5 C 68.0 69.7, 37.6 86.5, 47.5 92.7 C 44.1 74.7, 4.8 24.2, 9.9 30.2 C 6.7 11.8, 76.3 40.0, 88.6 54.2 Z" fill="hsl(83, 65%, 44%)" fill-opacity="0.62" stroke="none" stroke-width="3.11"  transform="translate(83.2 27.9) rotate(255.7) scale(0.73 0.99)" />
<circle cx="70.6" cy="75.5" r="3.2" fill="hsl(242, 72%, 49%)" fill-opacity="0.92"  transform="translate(68.5 70.2) rotate(218.4) scale(0.98 0.66)" />
<path d="M 23.3 60.7 C 17.0 68.3, 85.6 47.6, 81.2 40.7 C 61.6 36.6, 75.5 100.0, 83.1 100.0 C 70.1 91.3, 30.9 26.9, 27.9 25.3 C 34.1 27.2, 99.2 77.4, 90.3 72.7 C 98.8 80.8, 7.0 81.4, 15.1 84.4 C 5.0 92.7, 90.4 67.1, 89.3 81.1 C 80.7 71.0, 100.0 70.0, 99.4 78.3 C 100.0 60.2, 0.0 52.5, 6.1 54.8 C 10.7 41.3, 83.4 92.6, 72.3 90.6 C 72.5 100.0, 65.6 45.9, 58.2 52.5 Z" fill="none" fill-opacity="0.60" stroke="hsl(86, 72%, 68%)" stroke-width="4.83"  transform="translate(58.6 5.4) rotate(330.3) scale(0.80 1.99)" />
<rect x="35.9" y="4.9" width="41.5" height="28.5" rx="0" fill="none" fill-opacity="0.25"   transform="translate(69.3 66.6) rotate(33.3) scale(1.75 1.77)" />
<rect x="26.0" y="59.0" width="43.7" height="28.2" rx="2.0" fill="hsl(151, 70%, 62%)" fill-opacity="0.90" stroke="hsl(104, 72%, 65%)" stroke-width="1.5"  transform="translate(81.1 22.1) rotate(323.9) scale(0.91 0.83)" />
<path d="M 63.6 64.6 C 70.8 57.1, 22.8 89.6, 20.9 77.0 C 14.5 96.3, 0.0 81.8, 7.1 78.1 C 0.0 83.9, 95.6 56.7, 86.8 62.3 C 99.2 60.6, 33.8 3.0, 28.0 0.7 C 35.8 13.9, 22.7 24.8, 14.4 11.9 C 33.2 2.8, 34.6 18.9, 22.1 26.9 C 15.5 14.7, 65.1 31.5, 73.6 17.0 C 91.7 1.3, 100.0 27.0, 95.9 38.0 C 88.3 39.1, 64.1 36.9, 61.3 45.0 Z" fill="none" fill-opacity="0.92" stroke="hsl(106, 75%, 59%)" stroke-width="4.60"  transform="translate(88.4 23.7) rotate(359.0) scale(1.12 1.41)" />
<rect x="58.3" y="50.3" width="31.4" height="23.7" rx="8.1" fill="none" fill-opacity="0.98"   transform="translate(3.7 62.9) rotate(267.2) scale(0.78 1.83)" />
<path d="M 98.7 34.3 C 100.0 40.9, 17.8 40.5, 23.8 34.4 C 38.9 23.2, 0.0 63.6, 4.8 55.7 C 0.0 63.5, 55.4 13.6, 53.4 26.5 C 48.8 6.7, 18.1 59.4, 12.2 67.5 C 9.9 75.1, 97.5 20.7, 97.9 9.3 C 98.8 1.4, 13.4 87.7, 13.2 90.7 C 18.2 88.5, 79.8 72.9, 67.1 79.3 Z" fill="none" fill-opacity="0.97" stroke="hsl(290, 83%, 63%)" stroke-width="3.78"  transform="translate(64.7 12.9) rotate(169.7) scale(0.92 1.40)" />
<rect x="19.4" y="47.2" width="49.8" height="39.1" rx="0" fill="hsl(290, 83%, 63%)" fill-opacity="0.62"   transform="translate(26.3 25.9) rotate(183.7) scale(1.37 1.65)" />
<path d="M 7.8 52.7 C 22.1 50.3, 56.5 56.8, 65.8 46.8 C 77.1 28.4, 12.9 14.9, 17.0 24.2 C 18.4 32.2, 82.6 0.0, 88.8 0.6 C 75.0 13.2, 27.3 75.0, 36.6 78.4 C 17.2 59.2, 32.9 52.1, 43.5 51.0 C 59.4 34.1, 70.0 16.0, 83.8 28.6 C 81.8 20.2, 81.6 65.5, 89.3 70.8 C 71.5 90.5, 72.3 75.9, 66.5 85.6 Z" fill="hsl(322, 74%, 44%)" fill-opacity="0.96" stroke="none" stroke-width="2.78"  transform="translate(39.3 43.7) rotate(245.6) scale(0.51 1.62)" />
<path d="M 93.7 78.5 C 75.5 69.1, 82.2 37.3, 95.5 28.5 C 81.2 38.8, 73.2 45.4, 87.6 40.6 C 100.0 51.6, 66.4 29.7, 80.4 18.3 C 94.1 14.1, 40.0 100.0, 46.6 93.0 C 34.5 89.1, 69.4 86.9, 73.5 88.6 C 83.7 98.3, 73.6 52.2, 76.1 54.6 Z" fill="hsl(144, 86%, 72%)" fill-opacity="0.55" stroke="none" stroke-width="3.46"   />
<path d="M 83.5 10.6 C 93.1 19.2, 70.7 65.4, 72.4 58.3 C 57.1 75.4, 90.0 72.8, 85.1 81.6 C 70.1 62.6, 38.0 44.5, 52.1 30.0 C 44.0 49.6, 34.3 17.9, 19.8 25.4 C 25.1 27.9, 100.0 18.6, 90.7 16.9 C 100.0 20.1, 34.8 69.2, 22.3 66.2 C 2.7 52.2, 61.1 4.5, 53.0 6.7 C 70.8 21.4, 26.0 48.4, 30.5 47.0 C 33.5 65.6, 7.9 67.7, 13.4 53.8 C 15.2 63.3, 70.3 34.6, 79.2 33.7 Z" fill="hsl(86, 72%, 68%)" fill-opacity="0.86" stroke="none" stroke-width="2.47"  transform="translate(96.0 44.3) rotate(191.2) scale(0.96 0.74)" />
<path d="M 40.7 78.3 C 55.1 66.2, 50.0 40.7, 39.4 38.6 C 35.9 27.6, 44.2 100.0, 57.4 99.2 C 44.1 100.0, 75.3 37.0, 76.5 44.9 C 56.9 46.9, 55.0 83.4, 61.3 74.3 C 67.2 58.2, 16.6 68.9, 19.3 79.2 C 30.9 91.1, 34.3 7.1, 38.4 18.9 C 36.2 33.8, 23.6 98.1, 9.7 93.9 C 28.2 78.7, 20.6 19.8, 30.3 7.8 C 28.3 0.0, 91.7 63.7, 80.6 52.2 Z" fill="hsl(83, 65%, 44%)" fill-opacity="0.50" stroke="none" stroke-width="5.30"  transform="translate(53.5 36.6) rotate(228.1) scale(0.97 1.69)" />
<rect x="20.9" y="55.0" width="20.3" height="37.9" rx="8.4" fill="none" fill-opacity="0.76" stroke="hsl(322, 74%, 44%)" stroke-width="2.1" filter="url(#f1)" transform="translate(18.6 72.5) rotate(317.9) scale(1.23 1.62)" />
<rect x="12.5" y="63.6" width="35.4" height="17.3" rx="0" fill="none" fill-opacity="0.40"  filter="url(#f1)" transform="translate(4.0 66.9) rotate(340.7) scale(0.89 1.40)" />
<path d="M 32.2 88.0 C 45.7 82.2, 45.3 62.4, 36.3 57.0 C 49.7 73.2, 0.0 70.7, 10.6 77.3 C 8.1 59.7, 51.8 98.5, 53.2 99.2 C 47.0 100.0, 45.1 53.0, 39.2 38.1 C 41.1 33.2, 51.8 28.8, 58.8 33.7 C 52.4 19.5, 27.8 90.5, 29.0 88.5 Z" fill="hsl(2, 82%, 55%)" fill-opacity="0.53" stroke="none" stroke-width="3.36" filter="url(#f1)" transform="translate(47.1 16.4) rotate(40.7) scale(1.51 0.69)" />
<path d="M 93.3 13.2 C 100.0 21.2, 88.7 17.7, 94.3 11.2 C 86.7 24.7, 46.6 16.3, 48.8 18.6 C 50.9 11.1, 43.0 52.6, 47.9 61.9 C 56.0 81.4, 46.0 57.9, 31.9 72.7 C 27.0 59.8, 81.9 69.4, 82.1 64.9 C 64.2 58.0, 31.3 4.7, 39.8 16.1 C 32.9 26.2, 18.8 86.0, 24.5 94.8 C 32.6 100.0, 60.7 23.8, 60.9 12.6 C 57.9 0.0, 94.5 52.4, 87.1 38.9 Z" fill="none" fill-opacity="0.74" stroke="hsl(83, 65%, 44%)" stroke-width="1.65"  transform="translate(0.7 59.0) rotate(119.4) scale(1.83 1.68)" />
<path d="M 30.1 96.3 C 11.9 100.0, 85.6 1.5, 83.4 12.4 C 97.6 12.8, 57.9 40.6, 62.9 42.9 C 55.7 58.4, 27.9 100.0, 29.9 98.5 C 45.5 100.0, 42.2 49.8, 35.0 49.6 C 23.3 48.6, 43.6 44.1, 53.3 52.1 C 51.1 69.5, 29.1 31.9, 21.4 32.7 Z" fill="none" fill-opacity="0.54" stroke="hsl(86, 72%, 68%)" stroke-width="3.77"  transform="translate(33.6 13.6) rotate(216.9) scale(0.53 1.00)" />
<rect x="11.8" y="63.9" width="47.1" height="32.8" rx="0" fill="hsl(144, 86%, 72%)" fill-opacity="0.66"   transform="translate(15.2 0.5) rotate(104.6) scale(1.61 1.96)" />
<path d="M 11.6 64.7 C 19.3 50.0, 90.2 14.6, 87.7 1.0 C 71.5 0.0, 77.0 10.1, 66.5 18.3 C 55.6 10.1, 57.7 44.5, 64.3 37.2 C 59.6 29.7, 49.0 7.2, 54.2 18.0 C 66.8 14.0, 83.4 23.9, 92.4 38.4 C 100.0 38.8, 98.5 33.5, 93.0 21.0 C 100.0 13.9, 15.8 8.7, 25.1 9.4 C 44.4 23.7, 82.9 3.6, 85.7 8.8 C 75.1 4.3, 42.1 77.3, 40.9 71.9 C 41.1 77.0, 81.7 35.3, 77.1 36.5 Z" fill="hsl(106, 75%, 59%)" fill-opacity="0.45" stroke="none" stroke-width="4.48" filter="url(#f1)" transform="translate(40.0 22.5) rotate(95.8) scale(0.97 1.03)" />
<path d="M 0.2 84.8 C 6.6 88.3, 38.3 80.2, 41.6 86.5 C 47.9 75.1, 29.7 0.0, 17.6 1.9 C 31.2 0.0, 88.9 61.4, 80.6 55.1 C 84.8 60.8, 90.3 29.2, 89.5 15.9 C 100.0 13.2, 22.6 51.1, 26.8 59.7 C 35.2 40.1, 42.1 76.1, 35.1 80.4 C 49.9 91.7, 100.0 61.9, 93.9 73.9 C 98.2 55.4, 20.8 91.0, 7.3 95.6 C 26.5 100.0, 39.4 13.4, 54.2 10.7 C 51.5 13.0, 84.5 46.1, 72.3 32.9 Z" fill="hsl(242, 72%, 49%)" fill-opacity="0.72" stroke="none" stroke-width="2.87"   />
<rect x="17.6" y="43.5" width="46.8" height="32.9" rx="10.3" fill="hsl(144, 86%, 72%)" fill-opacity="0.28"   transform="translate(15.0 55.9) rotate(235.8) scale(1.28 1.32)" />
<rect x="9.9" y="41.2" width="48.0" height="29.3" rx="0" fill="none" fill-opacity="0.51"    />
<rect x="13.7" y="35.8" width="34.7" height="21.4" rx="0" fill="hsl(106, 75%, 59%)" fill-opacity="0.99"   transform="translate(64.0 7.6) rotate(233.8) scale(1.61 1.89)" />
<g opacity="0.057">
<rect x="0" y="0" width="1" height="100" fill="black" />
<rect x="22" y="0" width="1" height="100" fill="black" />
<rect x="44" y="0" width="1" height="100" fill="black" />
<rect x="66" y="0" width="1" height="100" fill="black" />
<rect x="88" y="0" width="1" height="100" fill="black" />
<rect x="0" y="0" width="100" height="1" fill="black" />
<rect x="0" y="22" width="100" height="1" fill="black" />
<rect x="0" y="44" width="100" height="1" fill="black" />
<rect x="0" y="66" width="100" height="1" fill="black" />
<rect x="0" y="88" width="100" height="1" fill="black" />
</g>

</svg>
