<?xml version="1.0" encoding="UTF-8"?>
<svg xmlns="http://www.w3.org/2000/svg" width="100" height="100" viewBox="0 0 100 100">
<defs>
<linearGradient id="g0" x1="0%" y1="0%" x2="100%" y2="100%">
<stop offset="0.0%" stop-color="hsl(106, 75%, 59%)" />
<stop offset="33.3%" stop-color="hsl(183, 71%, 60%)" />
<stop offset="66.7%" stop-color="hsl(242, 72%, 49%)" />
<stop offset="100.0%" stop-color="hsl(322, 74%, 44%)" />
</linearGradient>
<linearGradient id="g1" x1="0%" y1="0%" x2="100%" y2="100%">
<stop offset="0.0%" stop-color="hsl(290, 83%, 63%)" />
<stop offset="33.3%" stop-color="hsl(2, 82%, 55%)" />
<stop offset="66.7%" stop-color="hsl(86, 72%, 68%)" />
<stop offset="100.0%" stop-color="hsl(83, 65%, 44%)" />
</linearGradient>
<linearGradient id="g2" x1="0%" y1="0%" x2="100%" y2="100%">
<stop offset="0.0%" stop-color="hsl(40, 53%, 69%)" />
<stop offset="33.3%" stop-color="hsl(104, 72%, 65%)" />
<stop offset="66.7%" stop-color="hsl(144, 86%, 72%)" />
<stop offset="100.0%" stop-color="hsl(151, 70%, 62%)" />
</linearGradient>
<filter id="f1" x="-20%" y="-20%" width="140%" height="140%">
  <feGaussianBlur stdDeviation="1.0725604572038288" />
</filter>

</defs>

<circle cx="85.9" cy="0.2" r="5.4" fill="url(#g2)" fill-opacity="0.92"  transform="translate(69.1 18.4) rotate(341.7) scale(1.19 1.17)" />
<path d="M 94.8 59.5 C 85.0 54.3, 1.4 15.8, 0.3 20.1 C 0.0 15.1, 22.5 10.8, 9.7 0.3 C 14.5 0.0, 1.8 17.9, 4.2 29.0 C 0.0 13.4, 76.4 83.8, 77.2 87.4 C 63.7 80.7, 61.9 15.3, 60.1 30.0 C 61.8 23.9, 39.5 72.1, 39.8 74.0 Z" fill="hsl(40, 53%, 69%)" fill-opacity="0.94" stroke="none" stroke-width="3.67"  transform="translate(16.1 87.2) rotate(343.6) scale(1.08 0.74)" />
<circle cx="57.9" cy="75.8" r="3.3" fill="url(#g2)" fill-opacity="0.82" filter="url(#f1)" transform="translate(44.7 98.7) rotate(139.7) scale(0.78 1.13)" />
<circle cx="61.6" cy="87.1" r="8.6" fill="url(#g1)" fill-opacity="0.62"  transform="translate(85.8 29.2) rotate(34.1) scale(1.08 1.88)" />
<rect x="9.1" y="51.4" width="24.3" height="37.1" rx="10.8" fill="none" fill-opacity="0.56"   transform="translate(25.6 68.0) rotate(323.7) scale(1.38 0.82)" />
<circle cx="25.5" cy="51.7" r="2.4" fill="hsl(106, 75%, 59%)" fill-opacity="0.93"  transform="translate(19.1 50.0) rotate(250.4) scale(1.35 1.21)" />
<path d="M 99.9 25.5 C 98.0 13.4, 47.4 97.3, 39.9 98.6 C 56.7 100.0, 88.9 14.4, 97.1 16.1 C 79.2 9.0, 52.8 84.0, 39.0 79.9 C 28.5 99.3, 57.0 43.2, 61.7 40.2 C 67.2 54.4, 11.2 40.2, 19.3 48.8 C 30.6 60.9, 70.0 80.6, 76.8 74.1 C 89.8 67.5, 76.7 72.2, 83.6 68.8 C 98.3 86.5, 12.3 50.5, 24.1 50.4 C 23.9 69.2, 95.0 4.0, 93.4 4.8 Z" fill="hsl(242, 72%, 49%)" fill-opacity="0.34" stroke="none" stroke-width="3.30"  transform="translate(59.3 52.9) rotate(99.6) scale(0.91 1.10)" />
<path d="M 61.5 54.8 C 50.3 55.3, 23.5 100.0, 17.0 97.2 C 8.4 94.2, 39.0 30.6, 44.6 20.1 C 58.9 18.5, 99.2 81.2, 92.4 81.2 C 100.0 89.3, 9.7 20.8, 2.9 11.1 C 0.0 0.0, 68.5 68.9, 81.8 73.5 C 94.9 85.2, 77.7 40.6, 65.2 55.1 C 75.3 44.4, 53.4 22.8, 38.6 36.9 Z" fill="none" fill-opacity="0.26" stroke="hsl(2, 82%, 55%)" stroke-width="3.94"   />
<path d="M 3.7 61.3 C 17.9 55.5, 29.1 68.0, 20.3 82.8 C 2.5 95.3, 58.6 33.2, 58.5 29.8 C 59.8 20.5, 45.6 39.6, 40.4 37.8 C 38.3 21.1, 61.1 74.8, 63.6 71.2 C 59.7 82.5, 42.2 88.7, 54.0 81.1 C 57.5 94.6, 62.3 78.3, 50.4 71.5 C 49.7 63.1, 62.9 76.6, 49.9 76.7 Z" fill="none" fill-opacity="0.79" stroke="hsl(144, 86%, 72%)" stroke-width="1.69"  transform="translate(64.9 18.6) rotate(114.1) scale(1.12 0.99)" />
<path d="M 41.0 52.4 C 47.6 61.6, 52.6 47.8, 64.4 36.4 C 64.5 31.0, 6.0 100.0, 4.0 92.1 C 4.1 73.8, 80.8 100.0, 93.5 95.2 C 90.6 100.0, 55.6 66.8, 69.9 70.1 C 70.1 54.5, 61.6 6.9, 48.2 2.4 C 52.1 4.3, 55.4 85.0, 50.2 80.1 C 54.2 80.4, 35.4 100.0, 45.2 95.8 C 47.1 87.9, 12.0 35.6, 12.9 38.9 " fill="none" fill-opacity="0.42" stroke="hsl(290, 83%, 63%)" stroke-width="3.20"  transform="translate(98.8 20.1) rotate(144.1) scale(1.85 0.89)" />
<circle cx="28.4" cy="45.0" r="9.3" fill="url(#g1)" fill-opacity="0.69"  transform="translate(66.3 29.2) rotate(353.1) scale(1.10 1.71)" />
<path d="M 92.5 14.4 C 100.0 15.3, 52.0 81.2, 58.6 70.5 C 47.0 76.3, 5.6 51.1, 3.2 49.6 C 4.4 43.7, 55.0 83.2, 54.2 97.1 C 40.0 100.0, 60.3 77.6, 50.2 71.4 C 40.6 75.9, 43.5 0.0, 42.6 9.2 C 30.5 14.6, 26.3 26.5, 32.4 39.5 C 40.0 59.5, 16.6 55.5, 14.8 45.4 C 0.0 33.2, 45.3 48.9, 58.0 39.1 C 61.8 43.7, 25.0 40.0, 16.7 29.2 C 18.9 41.4, 94.3 96.4, 87.6 87.6 Z" fill="hsl(86, 72%, 68%)" fill-opacity="0.29" stroke="none" stroke-width="1.65"  transform="translate(65.6 29.9) rotate(319.5) scale(1.73 0.54)" />
<circle cx="89.4" cy="74.6" r="1.0" fill="hsl(183, 71%, 60%)" fill-opacity="0.65"  transform="translate(22.9 10.5) rotate(273.8) scale(0.72 1.99)" />
<circle cx="9.4" cy="71.1" r="4.4" fill="hsl(2, 82%, 55%)" fill-opacity="0.91"   />
<rect x="55.8" y="80.4" width="41.8" height="14.6" rx="3.5" fill="hsl(144, 86%, 72%)" fill-opacity="0.38"   transform="translate(71.8 66.4) rotate(76.1) scale(1.06 1.45)" />
<path d="M 89.5 55.3 C 97.5 45.9, 13.7 31.1, 24.7 35.7 C 28.0 31.1, 0.0 100.0, 7.4 91.6 C 5.8 93.4, 90.4 8.0, 86.0 6.7 C 71.5 15.3, 77.4 34.2, 76.2 24.8 C 56.7 29.5, 83.8 74.9, 74.8 79.9 C 64.1 98.3, 5.5 100.0, 20.3 91.8 Z" fill="none" fill-opacity="0.81" stroke="hsl(106, 75%, 59%)" stroke-width="1.94" filter="url(#f1)" transform="translate(67.6 29.2) rotate(187.3) scale(1.05 1.36)" />
<path d="M 78.6 5.0 C 89.1 3.0, 36.0 83.7, 21.3 71.5 C 18.8 66.6, 0.0 76.0, 8.8 74.6 C 19.8 81.2, 90.3 32.0, 82.4 40.8 C 90.0 54.1, 76.4 19.3, 84.0 29.6 C 79.8 43.3, 44.8 45.1, 39.7 50.3 C 56.2 61.0, 69.8 0.0, 78.2 3.9 C 64.9 16.9, 43.7 56.1, 44.3 61.2 Z" fill="hsl(106, 75%, 59%)" fill-opacity="0.67" stroke="none" stroke-width="3.94"  transform="translate(26.8 17.5) rotate(351.1) scale(1.08 1.70)" />
<path d="M 41.7 83.1 C 24.4 81.5, 7.0 23.6, 17.5 31.5 C 6.3 30.8, 84.4 49.4, 79.9 59.4 C 77.8 55.9, 71.3 57.2, 62.7 69.4 C 59.1 55.6, 13.5 78.8, 9.4 86.3 C 15.5 90.1, 14.8 14.5, 25.2 20.0 C 8.9 33.8, 48.8 29.3, 54.4 40.5 Z" fill="none" fill-opacity="0.47" stroke="hsl(86, 72%, 68%)" stroke-width="4.78"  transform="translate(64.3 75.7) rotate(224.3) scale(1.80 1.20)" />
<path d="M 50.1 19.0 C 39.3 26.1, 18.5 100.0, 5.7 95.9 C 23.1 100.0, 86.9 88.2, 88.8 92.1 C 81.3 100.0, 68.5 51.1, 64.1 39.0 C 61.8 41.9, 95.3 0.0, 90.1 3.9 C 97.7 0.0, 92.7 36.0, 79.3 31.8 C 85.9 46.7, 23.8 18.5, 15.4 9.4 Z" fill="hsl(144, 86%, 72%)" fill-opacity="0.72" stroke="none" stroke-width="4.89"  transform="translate(57.9 31.8) rotate(94.4) scale(1.42 1.07)" />
<path d="M 17.2 30.0 C 31.7 46.5, 68.4 79.3, 57.0 88.1 C 47.8 69.3, 80.5 48.7, 95.3 50.0 C 100.0 51.8, 76.7 25.4, 68.4 32.0 C 79.7 34.7, 33.6 19.4, 26.4 17.1 C 45.9 23.9, 57.9 100.0, 51.8 97.6 C 69.5 79.6, 78.5 23.1, 73.1 37.9 C 87.9 51.1, 70.9 100.0, 56.7 95.8 C 45.2 100.0, 86.0 70.6, 93.5 65.0 C 78.6 46.2, 58.8 84.4, 58.1 97.4 Z" fill="hsl(83, 65%, 44%)" fill-opacity="0.56" stroke="none" stroke-width="2.56"  transform="translate(73.7 53.2) rotate(196.4) scale(0.93 0.75)" />
<path d="M 90.7 81.5 C 74.0 84.7, 45.9 54.9, 47.5 46.9 C 57.7 40.1, 87.1 39.1, 80.8 47.0 C 84.5 48.4, 10.6 0.0, 22.1 10.2 C 39.4 0.0, 47.2 23.2, 38.2 35.7 C 40.8 21.4, 70.3 55.0, 80.5 41.5 C 69.3 43.7, 7.4 0.0, 22.2 3.7 C 19.8 6.1, 66.2 26.4, 61.1 19.8 C 74.1 6.8, 35.1 78.0, 23.4 67.9 Z" fill="hsl(106, 75%, 59%)" fill-opacity="0.94" stroke="none" stroke-width="1.07"  transform="translate(42.5 52.0) rotate(147.0) scale(1.93 0.92)" />
<circle cx="6.4" cy="68.3" r="18.2" fill="hsl(104, 72%, 65%)" fill-opacity="0.94"  transform="translate(71.0 32.4) rotate(215.5) scale(0.58 1.11)" />
<circle cx="22.7" cy="94.0" r="14.6" fill="url(#g0)" fill-opacity="0.93"  transform="translate(55.9 59.4) rotate(206.8) scale(0.56 0.91)" />
<circle cx="64.8" cy="87.3" r="3.3" fill="url(#g0)" fill-opacity="0.58"  transform="translate(22.2 91.4) rotate(54.6) scale(1.76 1.92)" />
<path d="M 62.2 62.8 C 60.9 78.6, 33.8 93.8, 39.9 79.3 C 38.3 93.9, 46.8 86.4, 60.5 76.2 C 79.6 87.5, 42.2 7.5, 49.4 8.9 C 53.0 24.1, 53.8 59.7, 60.7 63.4 C 62.4 63.6, 45.6 68.8, 45.6 81.2 C 53.3 73.7, 26.0 78.4, 33.2 86.1 C 37.9 80.0, 0.0 25.6, 8.2 18.0 Z" fill="none" fill-opacity="0.58" stroke="hsl(83, 65%, 44%)" stroke-width="0.85"  transform="translate(59.6 81.9) rotate(7.8) scale(1.18 0.95)" />
<path d="M 31.7 12.9 C 12.2 25.2, 90.0 89.1, 94.3 99.4 C 100.0 100.0, 92.5 40.3, 85.3 53.9 C 79.2 54.6, 88.1 40.7, 74.1 39.1 C 69.9 58.3, 54.6 0.0, 52.9 4.3 C 65.4 0.1, 61.7 68.0, 57.8 53.4 C 44.2 45.9, 53.8 57.1, 40.4 42.8 Z" fill="hsl(242, 72%, 49%)" fill-opacity="0.81" stroke="none" stroke-width="1.15"  transform="translate(36.7 31.7) rotate(208.0) scale(0.80 1.74)" />
<circle cx="34.6" cy="15.4" r="1.7" fill="url(#g1)" fill-opacity="0.81"   />
<path d="M 52.8 78.6 C 57.0 76.8, 74.6 44.9, 60.2 43.2 C 75.1 55.9, 87.3 94.0, 88.7 93.0 C 85.0 78.4, 44.0 74.1, 37.6 76.3 C 48.3 73.4, 49.9 100.0, 39.6 93.7 C 27.6 100.0, 52.1 21.9, 44.0 20.5 C 41.9 35.4, 48.4 16.7, 49.4 14.7 Z" fill="hsl(83, 65%, 44%)" fill-opacity="0.60" stroke="none" stroke-width="3.01"  transform="translate(16.3 16.1) rotate(133.1) scale(1.48 1.80)" />
<rect x="11.8" y="12.5" width="40.1" height="28.8" rx="0" fill="hsl(151, 70%, 62%)" fill-opacity="0.35"   transform="translate(60.6 78.1) rotate(39.2) scale(1.28 1.06)" />
<path d="M 82.8 97.0 C 76.6 99.9, 26.3 8.1, 28.0 0.5 C 24.0 3.2, 59.4 67.5, 65.3 61.8 C 73.5 71.8, 8.6 54.2, 3.4 52.3 C 7.2 69.5, 100.0 29.4, 93.0 24.3 C 100.0 36.2, 73.9 65.2, 81.7 69.6 C 100.0 67.7, 23.2 0.0, 24.9 6.0 C 18.5 11.2, 90.5 27.4, 87.5 31.2 C 68.4 16.4, 31.4 8.3, 22.4 5.2 Z" fill="hsl(104, 72%, 65%)" fill-opacity="0.42" stroke="none" stroke-width="3.29" filter="url(#f1)" transform="translate(80.4 5.7) rotate(303.9) scale(0.91 1.69)" />
<rect x="57.4" y="5.1" width="32.0" height="34.7" rx="2.8" fill="hsl(104, 72%, 65%)" fill-opacity="0.58"   transform="translate(23.2 5.2) rotate(344.1) scale(1.07 0.65)" />
<path d="M 31.5 34.7 C 17.4 20.3, 49.7 18.4, 63.6 26.2 C 64.1 17.5, 18.5 52.5, 28.0 57.6 C 16.3 51.3, 58.1 73.5, 56.6 66.8 C 64.2 72.1, 47.7 42.4, 51.0 32.5 C 48.6 12.6, 80.8 70.4, 82.6 72.0 C 76.0 52.0, 85.9 100.0, 72.3 88.0 C 84.7 69.5, 59.1 59.6, 51.2 51.4 C 53.5 43.9, 60.7 70.2, 61.5 59.0 C 43.5 58.7, 38.6 13.0, 33.8 24.3 " fill="hsl(151, 70%, 62%)" fill-opacity="0.88" stroke="none" stroke-width="1.94"  transform="translate(4.7 62.8) rotate(356.1) scale(1.51 1.07)" />
<path d="M 99.9 85.8 C 100.0 67.8, 40.1 6.2, 26.9 12.1 C 23.0 0.0, 0.0 69.4, 3.5 84.3 C 19.3 79.4, 16.6 2.5, 13.5 14.0 C 32.5 0.0, 97.1 87.1, 87.8 74.2 C 75.1 73.6, 10.4 46.2, 3.0 35.3 C 0.9 33.8, 35.6 67.0, 34.5 56.2 Z" fill="none" fill-opacity="0.56" stroke="hsl(2, 82%, 55%)" stroke-width="1.54"  transform="translate(10.4 65.2) rotate(332.7) scale(0.78 1.55)" />
<rect x="42.2" y="17.1" width="34.9" height="17.1" rx="16.9" fill="none" fill-opacity="0.21"   transform="translate(7.8 92.6) rotate(121.1) scale(0.74 0.81)" />
<path d="M 2.0 54.2 C 5.8 74.0, 17.9 45.9, 30.0 49.8 C 40.0 64.7, 45.4 73.3, 56.1 63.9 C 64.0 65.4, 67.2 67.0, 80.9 69.5 C 74.7 70.4, 48.9 33.9, 49.9 39.1 C 37.4 39.7, 83.3 61.6, 71.7 55.3 C 75.0 65.0, 98.3 42.5, 96.1 42.8 C 79.2 39.7, 56.6 23.0, 63.8 34.8 C 47.4 33.9, 14.5 4.4, 28.9 3.2 C 33.8 19.6, 56.2 80.2, 57.1 73.3 Z" fill="hsl(40, 53%, 69%)" fill-opacity="0.71" stroke="none" stroke-width="0.97"  transform="translate(21.6 42.1) rotate(9.6) scale(1.19 0.65)" />
<circle cx="23.2" cy="68.0" r="1.3" fill="hsl(40, 53%, 69%)" fill-opacity="0.89"  transform="translate(52.2 68.6) rotate(331.6) scale(1.91 0.99)" />
<path d="M 19.3 77.2 C 38.5 86.7, 16.8 65.0, 30.6 54.7 C 36.8 69.8, 68.6 62.5, 67.8 56.6 C 70.0 56.7, 21.1 55.2, 6.7 66.1 C 21.2 56.7, 89.6 56.7, 97.6 60.4 C 100.0 51.9, 88.5 63.0, 76.2 64.4 C 80.3 65.4, 36.8 63.8, 23.8 63.2 C 20.2 64.9, 4.3 23.6, 13.1 26.4 C 28.5 40.6, 75.8 82.0, 68.0 75.1 Z" fill="hsl(183, 71%, 60%)" fill-opacity="0.74" stroke="none" stroke-width="0.83"  transform="translate(28.7 78.3) rotate(36.6) scale(1.23 1.30)" />
<path d="M 79.1 66.6 C 99.0 59.8, 8.7 11.0, 8.3 24.5 C 0.0 40.0, 73.4 83.3, 87.0 72.5 C 97.7 86.3, 88.4 57.1, 90.8 60.7 C 71.3 69.7, 32.5 100.0, 24.6 95.1 C 5.2 100.0, 100.0 1.5, 96.4 3.1 C 100.0 3.9, 85.6 63.3, 96.7 55.1 C 94.5 62.8, 52.1 20.4, 53.7 32.4 C 53.4 34.8, 0.0 90.9, 0.8 86.4 C 0.0 99.9, 54.0 71.6, 44.3 81.7 C 47.3 72.0, 65.1 80.6, 63.5 85.6 " fill="none" fill-opacity="0.88" stroke="hsl(2, 82%, 55%)" stroke-width="0.93" filter="url(#f1)" transform="translate(65.9 84.6) rotate(146.1) scale(0.69 0.75)" />
<rect x="41.9" y="50.7" width="32.3" height="31.8" rx="12.0" fill="none" fill-opacity="0.56"   transform="translate(56.2 43.5) rotate(94.5) scale(1.22 0.94)" />
<path d="M 9.9 14.9 C 29.4 11.1, 21.3 71.7, 30.6 63.0 C 21.8 80.0, 44.3 62.2, 29.9 72.8 C 47.2 69.2, 76.5 17.6, 79.0 7.0 C 86.6 0.0, 100.0 13.5, 92.3 19.7 C 83.5 25.5, 61.2 100.0, 71.0 96.9 C 66.6 100.0, 89.1 0.0, 77.0 0.9 " fill="hsl(83, 65%, 44%)" fill-opacity="0.84" stroke="none" stroke-width="1.58"  transform="translate(20.5 23.4) rotate(304.4) scale(0.89 0.51)" />
<path d="M 38.9 93.7 C 40.0 100.0, 80.3 62.7, 90.0 70.1 C 97.8 71.6, 19.4 45.7, 28.7 42.6 C 42.2 62.3, 15.1 70.6, 14.3 71.7 C 5.2 66.9, 78.2 22.6, 68.8 36.7 C 81.3 51.6, 15.5 84.7, 25.6 77.0 C 17.7 68.5, 26.6 30.9, 15.5 21.1 C 1.6 17.9, 58.6 0.0, 59.1 4.1 Z" fill="none" fill-opacity="0.87" stroke="hsl(144, 86%, 72%)" stroke-width="4.43"  transform="translate(57.0 99.5) rotate(138.9) scale(1.09 0.74)" />
<path d="M 8.1 72.0 C 4.1 64.4, 0.0 54.2, 12.3 65.7 C 12.8 66.8, 29.0 100.0, 39.8 92.8 C 33.3 95.3, 10.8 86.2, 21.9 75.5 C 33.2 65.4, 92.9 21.4, 79.1 20.5 C 78.1 29.9, 53.4 68.5, 67.6 65.7 C 79.1 67.1, 68.3 93.0, 81.1 82.8 C 74.9 76.3, 100.0 18.4, 88.4 20.3 C 70.4 21.6, 19.8 63.9, 8.4 56.4 C 12.4 39.8, 31.9 63.4, 27.7 74.3 Z" fill="hsl(151, 70%, 62%)" fill-opacity="0.91" stroke="none" stroke-width="5.14" filter="url(#f1)" transform="translate(33.7 90.3) rotate(279.4) scale(1.04 0.89)" />
<path d="M 55.9 21.7 C 69.4 15.9, 61.0 44.9, 47.6 57.2 C 40.2 42.0, 52.5 35.4, 64.6 34.4 C 69.5 19.9, 34.4 23.1, 26.8 33.8 C 6.8 29.3, 86.4 73.9, 77.4 80.3 C 59.1 87.9, 70.8 0.0, 70.7 0.4 C 64.6 4.5, 72.6 51.4, 67.2 62.6 C 57.4 81.4, 88.3 60.5, 91.8 63.3 C 89.7 49.5, 86.5 14.1, 80.4 18.5 " fill="hsl(40, 53%, 69%)" fill-opacity="0.66" stroke="none" stroke-width="4.65"  transform="translate(34.8 25.2) rotate(85.2) scale(1.50 0.82)" />
<circle cx="2.2" cy="97.4" r="9.5" fill="hsl(183, 71%, 60%)" fill-opacity="0.87"  transform="translate(19.6 66.7) rotate(110.1) scale(1.55 1.25)" />
<path d="M 91.1 66.3 C 80.1 77.8, 9.5 16.1, 2.6 30.6 C 10.1 36.4, 0.0 21.3, 11.8 8.3 C 10.3 1.3, 100.0 26.7, 99.1 17.4 C 91.1 5.0, 31.1 98.4, 30.4 88.6 C 49.0 84.9, 45.4 24.1, 49.4 22.6 C 45.7 3.0, 70.0 12.6, 57.1 7.3 C 39.6 11.2, 93.1 14.6, 80.8 14.6 C 73.3 15.3, 92.8 76.0, 78.3 90.7 C 78.5 97.3, 77.4 56.2, 80.3 51.4 " fill="none" fill-opacity="0.68" stroke="hsl(83, 65%, 44%)" stroke-width="3.74"  transform="translate(69.7 24.9) rotate(308.5) scale(1.05 1.90)" />
<rect x="48.5" y="25.2" width="48.2" height="26.6" rx="0" fill="hsl(2, 82%, 55%)" fill-opacity="0.30"    />
<path d="M 65.5 86.1 C 72.2 95.1, 56.6 96.0, 44.4 99.1 C 43.6 96.2, 41.7 51.7, 54.3 47.9 C 49.8 48.1, 100.0 0.0, 90.5 2.4 C 89.7 10.0, 63.6 47.4, 74.4 47.2 C 63.6 49.9, 66.6 58.9, 80.2 54.3 C 76.6 54.5, 12.7 40.8, 2.7 36.8 C 6.7 21.3, 13.1 76.5, 19.2 86.8 Z" fill="hsl(86, 72%, 68%)" fill-opacity="0.29" stroke="none" stroke-width="2.13"   />
<rect x="39.1" y="30.7" width="38.1" height="26.7" rx="0" fill="hsl(322, 74%, 44%)" fill-opacity="0.83" stroke="hsl(106, 75%, 59%)" stroke-width="1.6"  transform="translate(38.6 49.6) rotate(259.8) scale(1.80 1.35)" />
<circle cx="3.5" cy="33.7" r="2.8" fill="hsl(322, 74%, 44%)" fill-opacity="0.50"  transform="translate(28.9 56.0) rotate(164.5) scale(1.55 1.67)" />
<path d="M 57.5 23.1 C 68.4 30.0, 0.0 100.0, 5.5 85.4 C 4.2 88.9, 84.5 46.1, 80.2 35.6 C 92.5 30.0, 80.4 65.9, 86.2 54.5 C 69.1 56.0, 47.4 81.8, 50.8 96.1 C 55.2 80.1, 65.6 44.4, 61.5 46.6 C 74.1 55.5, 77.9 20.4, 76.4 30.6 Z" fill="hsl(242, 72%, 49%)" fill-opacity="0.62" stroke="none" stroke-width="2.99"   />
<path d="M 38.4 23.5 C 36.1 38.1, 15.1 22.0, 10.4 27.8 C 24.2 31.1, 13.0 39.3, 8.0 43.9 C 0.0 36.4, 81.5 68.7, 85.3 72.6 C 78.5 58.4, 19.4 49.5, 10.8 54.8 C 6.9 49.6, 13.6 54.0, 6.1 47.0 C 6.0 40.9, 33.1 24.9, 41.5 28.5 C 23.9 17.3, 6.0 78.4, 20.6 86.1 C 15.9 74.4, 98.8 22.5, 88.2 14.8 C 91.4 19.6, 83.4 34.0, 85.2 33.7 Z" fill="none" fill-opacity="0.97" stroke="hsl(104, 72%, 65%)" stroke-width="4.08"  transform="translate(53.2 42.5) rotate(351.6) scale(1.79 1.37)" />
<rect x="1.2" y="24.2" width="38.4" height="27.0" rx="6.8" fill="hsl(40, 53%, 69%)" fill-opacity="0.93" stroke="hsl(151, 70%, 62%)" stroke-width="3.2"   />
<circle cx="96.3" cy="8.2" r="1.3" fill="hsl(83, 65%, 44%)" fill-opacity="0.43"   />
<path d="M 62.4 99.5 C 47.0 92.2, 4.7 93.8, 6.2 89.2 C 20.3 73.2, 13.5 54.4, 9.3 60.6 C 18.4 62.7, 54.6 97.8, 62.1 95.0 C 76.2 86.8, 51.1 72.4, 56.7 58.5 C 73.1 59.8, 7.5 51.4, 3.5 44.3 C 0.0 58.6, 48.7 100.0, 33.8 98.4 C 37.4 100.0, 63.8 16.3, 71.6 10.5 C 55.7 7.4, 63.1 41.3, 59.1 54.2 Z" fill="hsl(83, 65%, 44%)" fill-opacity="0.68" stroke="none" stroke-width="1.90"  transform="translate(13.4 48.9) rotate(282.3) scale(1.07 1.74)" />
<circle cx="72.4" cy="63.9" r="15.8" fill="hsl(106, 75%, 59%)" fill-opacity="0.97"  transform="translate(46.2 36.9) rotate(115.3) scale(1.38 1.20)" />
<path d="M 24.6 98.4 C 15.7 92.3, 18.6 14.4, 27.7 25.2 C 37.0 34.6, 64.9 9.9, 63.5 11.3 C 71.3 22.2, 26.7 37.4, 30.6 50.3 C 18.2 42.3, 58.8 38.5, 46.9 46.3 C 63.7 32.4, 21.0 62.5, 11.8 67.6 C 21.5 61.5, 51.2 59.6, 65.3 72.8 C 54.7 67.5, 75.5 16.2, 89.6 4.5 C 99.7 4.8, 55.4 7.3, 48.1 16.2 Z" fill="none" fill-opacity="0.77" stroke="hsl(104, 72%, 65%)" stroke-width="5.25"  transform="translate(7.5 83.9) rotate(331.3) scale(1.53 1.43)" />
<circle cx="9.6" cy="73.6" r="2.9" fill="url(#g2)" fill-opacity="0.42"  transform="translate(66.9 88.7) rotate(145.3) scale(0.88 1.48)" />
<circle cx="42.6" cy="89.4" r="0.3" fill="url(#g2)" fill-opacity="0.52"   />
<rect x="26.9" y="56.9" width="30.8" height="27.5" rx="0" fill="hsl(322, 74%, 44%)" fill-opacity="0.61" stroke="hsl(242, 72%, 49%)" stroke-width="3.8" filter="url(#f1)" transform="translate(95.5 52.1) rotate(350.2) scale(1.92 1.64)" />
<rect x="8.6" y="48.5" width="49.4" height="16.8" rx="0" fill="hsl(86, 72%, 68%)" fill-opacity="0.95" stroke="hsl(2, 82%, 55%)" stroke-width="2.2" filter="url(#f1)" transform="translate(59.7 8.4) rotate(54.7) scale(0.83 1.42)" />
<path d="M 94.5 30.4 C 100.0 37.4, 33.4 29.0, 46.2 27.5 C 50.5 22.2, 20.4 0.0, 19.0 1.5 C 23.3 0.0, 0.0 68.8, 1.2 78.5 C 4.5 68.3, 38.9 100.0, 32.6 91.0 C 50.5 84.7, 93.1 10.5, 91.3 14.9 C 98.8 0.0, 46.8 17.8, 40.2 6.8 Z" fill="hsl(290, 83%, 63%)" fill-opacity="0.77" stroke="none" stroke-width="3.84"  transform="translate(52.6 26.2) rotate(359.5) scale(1.28 0.92)" />
<path d="M 0.2 71.3 C 7.1 69.3, 53.5 49.0, 63.2 40.8 C 72.3 29.6, 33.3 87.8, 18.6 75.9 C 5.6 65.6, 61.1 39.1, 56.4 32.0 C 42.5 45.3, 39.5 34.5, 26.9 25.9 C 14.1 14.8, 89.5 80.0, 77.8 67.5 C 78.6 68.8, 97.0 41.9, 94.0 51.4 C 90.0 36.4, 32.8 40.4, 20.0 49.5 C 27.7 69.4, 0.0 56.9, 7.3 51.1 C 0.0 44.6, 49.5 58.1, 44.9 46.0 " fill="hsl(104, 72%, 65%)" fill-opacity="0.90" stroke="none" stroke-width="3.39"   />
<path d="M 34.4 70.0 C 44.2 83.4, 47.2 91.2, 40.4 82.9 C 55.5 64.4, 43.6 69.7, 42.6 64.2 C 46.2 55.6, 100.0 82.3, 90.4 73.3 C 100.0 56.4, 45.5 78.0, 37.7 77.8 C 20.0 93.0, 56.2 0.0, 58.6 13.0 C 52.1 10.2, 46.1 54.0, 35.7 51.2 C 35.7 59.0, 28.3 12.7, 35.3 20.3 C 51.7 29.8, 77.9 3.5, 72.5 2.5 C 90.9 0.0, 92.9 45.8, 93.3 58.6 C 85.7 68.8, 100.0 82.2, 95.9 69.5 Z" fill="hsl(83, 65%, 44%)" fill-opacity="0.72" stroke="none" stroke-width="1.11"  transform="translate(10.3 8.0) rotate(84.9) scale(0.76 0.61)" />
<path d="M 90.6 79.1 C 99.1 93.7, 66.1 15.4, 62.7 29.3 C 56.2 34.3, 17.7 77.8, 20.0 83.2 C 19.4 92.0, 36.1 18.3, 24.3 24.4 C 20.0 21.9, 0.0 94.8, 3.0 99.1 C 0.0 89.2, 50.7 53.4, 43.8 66.7 C 46.5 60.5, 20.6 76.6, 31.8 73.5 Z" fill="none" fill-opacity="0.35" stroke="hsl(2, 82%, 55%)" stroke-width="3.80"  transform="translate(15.7 73.1) rotate(307.4) scale(1.01 1.26)" />
<rect x="75.6" y="34.4" width="20.6" height="31.3" rx="18.2" fill="hsl(86, 72%, 68%)" fill-opacity="0.56"   transform="translate(12.6 1.5) rotate(357.8) scale(1.32 1.80)" />
<path d="M 50.7 68.5 C 46.0 76.0, 100.0 14.1, 97.4 22.0 C 100.0 32.8, 15.7 39.0, 27.2 44.8 C 20.7 33.1, 99.6 27.1, 88.9 13.0 C 82.2 0.0, 84.6 62.2, 84.1 53.9 C 69.1 57.9, 28.0 12.5, 13.9 21.8 C 32.4 18.5, 91.8 37.3, 90.1 29.4 Z" fill="hsl(290, 83%, 63%)" fill-opacity="0.92" stroke="none" stroke-width="2.77"  transform="translate(46.3 21.8) rotate(5.0) scale(1.80 0.72)" />
<rect x="27.5" y="64.8" width="30.5" height="24.4" rx="0" fill="hsl(322, 74%, 44%)" fill-opacity="0.45"    />
<rect x="8.3" y="13.4" width="22.1" height="37.5" rx="3.7" fill="none" fill-opacity="0.77" stroke="hsl(86, 72%, 68%)" stroke-width="2.3"  transform="translate(47.8 86.5) rotate(245.8) scale(0.72 1.83)" />
<rect x="28.1" y="15.4" width="31.5" height="36.4" rx="0" fill="hsl(40, 53%, 69%)" fill-opacity="0.42"   transform="translate(95.4 6.3) rotate(312.4) scale(0.77 1.01)" />
<rect x="30.0" y="8.7" width="30.1" height="10.5" rx="7.7" fill="none" fill-opacity="0.57"   transform="translate(26.5 14.3) rotate(40.8) scale(1.95 0.81)" />
<path d="M 18.5 13.5 C 16.9 7.8, 77.8 89.8, 70.3 98.2 C 80.7 100.0, 50.2 31.7, 51.6 38.9 C 67.9 29.6, 51.0 19.2, 43.9 26.8 C 47.2 24.4, 87.2 70.8, 77.8 72.9 C 66.1 54.9, 52.6 69.2, 52.2 57.2 C 34.9 62.5, 48.4 33.5, 48.0 41.6 Z" fill="hsl(183, 71%, 60%)" fill-opacity="0.91" stroke="none" stroke-width="3.00"  transform="translate(25.4 13.0) rotate(52.3) scale(0.80 1.29)" />
<circle cx="92.1" cy="56.8" r="13.4" fill="hsl(2, 82%, 55%)" fill-opacity="0.84"  transform="translate(58.3 81.0) rotate(75.5) scale(1.56 0.55)" />
<path d="M 11.4 70.4 C 0.0 57.7, 3.2 38.4, 5.7 28.7 C 18.7 34.1, 95.1 75.5, 85.1 65.3 C 78.0 81.9, 7.0 63.4, 15.7 48.7 C 14.0 68.5, 38.7 7.6, 46.0 14.3 C 62.9 13.8, 26.1 70.5, 30.7 67.4 C 22.7 73.2, 20.5 27.8, 20.8 28.3 C 40.3 14.6, 31.4 36.8, 25.1 25.8 C 23.7 13.8, 51.5 48.3, 45.8 58.5 C 44.5 44.1, 11.8 26.0, 16.6 34.3 C 27.7 16.2, 28.8 99.8, 39.5 88.3 Z" fill="none" fill-opacity="0.86" stroke="hsl(242, 72%, 49%)" stroke-width="1.56"  transform="translate(50.2 76.6) rotate(220.6) scale(1.34 1.84)" />
<path d="M 77.0 78.4 C 64.6 88.9, 89.6 5.7, 98.0 1.6 C 88.2 0.0, 0.0 35.3, 4.9 48.8 C 3.8 58.7, 81.9 70.3, 87.5 70.0 C 73.7 84.3, 50.9 61.6, 62.9 53.4 C 45.1 60.6, 20.4 47.1, 13.7 46.4 C 0.0 54.5, 23.3 100.0, 12.3 94.1 Z" fill="hsl(183, 71%, 60%)" fill-opacity="0.65" stroke="none" stroke-width="2.16" filter="url(#f1)" transform="translate(92.4 12.1) rotate(15.6) scale(1.23 1.45)" />
<path d="M 66.8 27.8 C 67.1 32.1, 36.3 82.8, 41.8 68.1 C 25.4 49.6, 0.2 68.0, 13.8 75.2 C 0.0 55.9, 78.1 100.0, 92.4 94.6 C 76.0 95.4, 46.9 49.5, 48.9 53.8 C 58.6 42.1, 62.3 9.9, 70.8 18.6 C 58.4 30.6, 36.4 84.7, 45.2 96.6 Z" fill="none" fill-opacity="0.63" stroke="hsl(242, 72%, 49%)" stroke-width="0.93"  transform="translate(30.9 87.7) rotate(96.7) scale(1.57 0.88)" />
<circle cx="29.8" cy="70.3" r="1.2" fill="url(#g0)" fill-opacity="0.83" filter="url(#f1)"  />
<path d="M 40.1 47.7 C 24.0 30.4, 57.9 60.2, 50.1 65.4 C 30.6 85.1, 91.8 33.2, 96.0 37.1 C 98.8 37.5, 72.0 33.5, 84.3 30.2 C 100.0 25.8, 99.6 99.6, 88.6 91.8 C 71.0 96.2, 81.1 37.8, 81.1 47.0 C 70.9 39.7, 2.4 45.5, 1.8 55.9 C 20.9 41.8, 93.6 4.7, 83.4 12.4 C 66.3 30.8, 17.4 12.1, 3.7 7.7 " fill="hsl(40, 53%, 69%)" fill-opacity="0.87" stroke="none" stroke-width="1.26" filter="url(#f1)" transform="translate(40.4 10.4) rotate(300.0) scale(1.06 1.20)" />
<path d="M 7.7 31.6 C 8.8 44.7, 51.5 95.5, 42.5 98.2 C 32.5 100.0, 40.9 21.5, 47.7 11.1 C 29.3 0.0, 28.6 0.0, 32.8 10.9 C 48.1 13.8, 11.7 87.1, 2.0 80.5 C 17.2 77.7, 36.0 9.0, 29.0 7.5 C 25.4 23.8, 30.4 10.1, 23.1 20.2 Z" fill="none" fill-opacity="0.72" stroke="hsl(106, 75%, 59%)" stroke-width="0.99"  transform="translate(3.6 36.1) rotate(216.2) scale(0.97 1.95)" />
<rect x="55.8" y="55.6" width="42.3" height="11.5" rx="5.6" fill="hsl(151, 70%, 62%)" fill-opacity="0.79"   transform="translate(22.5 28.2) rotate(172.5) scale(0.71 0.55)" />
<rect x="7.0" y="4.3" width="34.3" height="10.7" rx="15.6" fill="none" fill-opacity="0.32"  filter="url(#f1)" transform="translate(54.9 47.0) rotate(279.7) scale(1.87 0.67)" />
<circle cx="92.6" cy="56.0" r="0.9" fill="url(#g1)" fill-opacity="0.45"  transform="translate(30.6 72.6) rotate(106.2) scale(1.39 1.62)" />
<rect x="9.0" y="49.3" width="26.2" height="15.7" rx="12.4" fill="hsl(151, 70%, 62%)" fill-opacity="0.80"   transform="translate(80.2 32.9) rotate(357.2) scale(1.16 1.55)" />
<rect x="12.9" y="40.8" width="38.9" height="36.3" rx="0" fill="hsl(322, 74%, 44%)" fill-opacity="0.47" stroke="hsl(322, 74%, 44%)" stroke-width="1.5"  transform="translate(88.2 45.6) rotate(297.6) scale(0.95 1.75)" />
<rect x="17.1" y="22.7" width="31.5" height="18.4" rx="4.6" fill="none" fill-opacity="0.48"  filter="url(#f1)"  />
<circle cx="17.7" cy="2.1" r="6.1" fill="url(#g1)" fill-opacity="0.92"  transform="translate(22.1 75.5) rotate(352.1) scale(1.64 1.61)" />
<path d="M 59.4 86.2 C 56.8 87.6, 51.4 65.4, 42.8 72.6 C 36.4 71.3, 47.1 16.2, 57.8 17.3 C 71.7 1.6, 85.6 49.9, 78.3 42.7 C 93.6 47.5, 47.4 70.8, 49.0 77.8 C 37.0 61.0, 100.0 100.0, 97.6 93.6 C 88.8 87.0, 45.2 98.6, 39.4 97.5 Z" fill="hsl(144, 86%, 72%)" fill-opacity="0.49" stroke="none" stroke-width="1.44"  transform="translate(49.7 19.8) rotate(289.8) scale(1.63 0.76)" />
<circle cx="53.9" cy="10.4" r="8.2" fill="hsl(106, 75%, 59%)" fill-opacity="0.59"  transform="translate(98.2 38.6) rotate(84.8) scale(1.75 0.65)" />
<path d="M 15.1 8.6 C 0.0 21.2, 42.5 97.9, 30.8 89.3 C 49.2 93.7, 81.3 83.8, 90.6 83.5 C 97.9 99.9, 59.2 53.2, 69.2 53.7 C 60.4 49.8, 62.6 56.0, 52.0 49.0 C 63.6 62.3, 48.2 75.0, 56.0 82.1 C 48.3 85.8, 62.7 50.2, 76.6 42.0 C 81.8 23.9, 14.6 49.3, 8.9 53.5 C 0.8 40.4, 0.0 8.1, 5.0 2.0 C 24.5 12.8, 53.2 32.5, 59.6 34.3 C 47.2 52.2, 24.1 62.1, 33.1 66.2 Z" fill="none" fill-opacity="0.66" stroke="hsl(40, 53%, 69%)" stroke-width="1.10"   />
<circle cx="58.3" cy="91.5" r="7.3" fill="url(#g0)" fill-opacity="0.79"   />
<path d="M 49.6 37.1 C 68.7 38.0, 46.0 69.0, 59.4 60.4 C 66.9 41.5, 50.0 11.4, 38.0 5.4 C 39.0 22.4, 24.8 0.0, 13.5 3.6 C 0.0 1.2, 33.0 50.0, 43.5 59.8 C 52.1 70.1, 61.5 19.4, 70.7 9.3 C 54.7 22.4, 35.3 65.4, 22.6 64.7 C 28.5 71.5, 13.4 71.3, 28.0 67.5 C 33.8 56.9, 17.0 0.0, 17.1 1.6 Z" fill="hsl(144, 86%, 72%)" fill-opacity="0.75" stroke="none" stroke-width="4.53"  transform="translate(49.7 35.3) rotate(246.6) scale(1.73 1.00)" />
<path d="M 93.2 25.0 C 96.4 36.2, 9.2 81.1, 2.2 86.9 C 11.8 73.3, 77.7 36.2, 68.8 22.2 C 76.9 16.1, 43.2 36.9, 40.2 46.7 C 47.8 31.6, 38.1 50.6, 50.4 60.1 C 34.8 72.7, 30.7 49.7, 41.1 40.7 C 56.6 32.0, 0.0 37.8, 0.4 41.9 C 0.0 22.0, 84.2 69.4, 78.7 75.6 C 81.7 88.4, 83.6 32.0, 96.2 45.6 Z" fill="hsl(183, 71%, 60%)" fill-opacity="0.99" stroke="none" stroke-width="1.43"  transform="translate(77.0 3.1) rotate(167.1) scale(0.79 0.62)" />
<circle cx="81.2" cy="9.6" r="7.7" fill="url(#g0)" fill-opacity="0.90"  transform="translate(72.6 24.9) rotate(125.1) scale(1.62 1.45)" />
<path d="M 7.7 72.7 C 0.0 85.2, 4.0 84.1, 17.6 69.4 C 35.6 52.4, 22.9 19.4, 15.9 5.0 C 26.2 0.0, 73.5 11.1, 61.7 18.1 C 57.9 29.4, 79.7 33.8, 67.8 37.3 C 49.0 22.7, 26.8 85.4, 16.4 81.8 C 36.0 75.6, 31.1 92.8, 24.2 87.7 C 25.6 93.9, 48.8 48.4, 34.3 36.9 C 36.0 22.7, 79.9 48.0, 67.7 49.0 C 58.5 49.8, 62.8 28.3, 55.1 39.1 Z" fill="none" fill-opacity="0.35" stroke="hsl(290, 83%, 63%)" stroke-width="3.78"  transform="translate(37.6 42.4) rotate(334.1) scale(1.28 0.73)" />
<path d="M 29.6 94.6 C 20.7 100.0, 18.0 60.6, 23.0 56.8 C 42.1 69.3, 71.5 19.1, 84.9 33.2 C 86.3 48.7, 0.0 88.6, 6.7 97.7 C 0.0 86.8, 4.6 29.8, 18.4 32.0 C 28.4 38.9, 27.8 13.9, 22.1 24.0 C 8.2 43.9, 42.4 83.7, 48.8 92.9 C 33.6 88.0, 51.0 46.6, 43.6 34.7 C 52.2 22.7, 87.1 83.1, 75.8 69.6 Z" fill="hsl(106, 75%, 59%)" fill-opacity="0.41" stroke="none" stroke-width="1.08" filter="url(#f1)" transform="translate(56.2 77.3) rotate(36.6) scale(1.04 0.96)" />
<circle cx="2.4" cy="32.4" r="3.5" fill="hsl(322, 74%, 44%)" fill-opacity="0.88"  transform="translate(52.0 62.2) rotate(304.2) scale(1.82 1.18)" />
<rect x="6.7" y="22.6" width="47.4" height="30.9" rx="18.9" fill="hsl(183, 71%, 60%)" fill-opacity="0.58"   transform="translate(20.7 61.6) rotate(152.5) scale(0.53 1.80)" />
<path d="M 69.9 46.9 C 67.9 56.1, 100.0 89.4, 93.9 84.8 C 94.1 100.0, 63.2 79.9, 53.7 91.4 C 50.5 100.0, 44.0 29.1, 49.8 28.4 C 49.6 25.7, 35.5 67.6, 47.8 75.0 C 55.2 57.7, 12.2 36.7, 5.2 33.0 C 6.2 23.4, 52.9 82.0, 54.3 95.5 C 48.3 93.5, 82.5 42.4, 87.5 31.9 Z" fill="none" fill-opacity="0.86" stroke="hsl(2, 82%, 55%)" stroke-width="0.86"  transform="translate(7.3 91.2) rotate(130.1) scale(1.98 1.04)" />
<path d="M 53.0 43.8 C 37.2 53.9, 81.9 65.7, 75.3 74.8 C 75.1 93.5, 42.2 92.5, 34.5 80.6 C 20.5 99.6, 60.9 0.0, 53.1 1.1 C 43.9 16.3, 39.6 73.5, 45.6 84.3 C 54.9 97.0, 44.2 68.4, 57.1 54.6 C 55.2 55.5, 4.4 17.2, 3.5 23.3 C 14.2 39.9, 38.8 38.5, 29.1 44.4 C 48.0 62.0, 56.4 13.6, 55.0 12.0 C 69.1 12.7, 87.2 9.2, 90.5 1.0 C 93.2 6.6, 50.1 22.4, 53.9 20.5 Z" fill="none" fill-opacity="0.41" stroke="hsl(144, 86%, 72%)" stroke-width="5.05" filter="url(#f1)" transform="translate(98.1 34.0) rotate(33.7) scale(1.25 0.64)" />
<path d="M 10.4 76.2 C 18.5 76.2, 27.8 11.8, 19.4 3.0 C 21.7 5.3, 91.2 50.9, 87.0 49.3 C 85.8 65.2, 13.3 68.8, 24.3 58.5 C 19.7 55.0, 20.3 75.4, 8.9 86.2 C 4.6 100.0, 75.0 46.1, 72.9 45.1 C 75.9 45.8, 99.8 36.4, 88.9 51.3 C 82.0 51.6, 9.5 86.7, 14.0 72.0 C 19.2 56.8, 45.6 13.0, 50.8 27.8 C 40.5 17.4, 9.2 100.0, 12.8 88.6 C 0.1 92.7, 19.3 100.0, 11.9 98.5 Z" fill="hsl(86, 72%, 68%)" fill-opacity="0.82" stroke="none" stroke-width="4.98"  transform="translate(68.6 2.2) rotate(21.9) scale(0.61 1.79)" />
<path d="M 39.3 39.3 C 40.7 33.4, 7.4 26.9, 18.7 27.8 C 34.6 21.8, 38.3 52.3, 33.2 56.3 C 35.2 69.1, 76.4 46.1, 83.1 57.2 C 90.2 76.0, 46.6 70.8, 34.0 61.3 C 15.1 64.2, 0.2 17.1, 4.9 9.2 C 5.0 27.1, 47.0 58.8, 33.5 50.1 " fill="none" fill-opacity="0.88" stroke="hsl(242, 72%, 49%)" stroke-width="2.32"  transform="translate(37.3 83.9) rotate(329.1) scale(1.08 1.90)" />
<path d="M 70.7 6.8 C 65.5 23.1, 40.3 96.1, 43.0 97.3 C 46.5 87.7, 75.7 80.4, 67.6 75.6 C 80.8 57.0, 38.4 64.8, 29.3 58.0 C 46.8 62.0, 10.0 41.3, 5.9 31.8 C 7.6 15.5, 76.3 43.8, 68.7 49.0 C 55.5 62.6, 100.0 45.6, 96.6 38.2 C 100.0 36.2, 27.3 80.4, 24.7 73.8 C 35.8 81.4, 73.7 85.3, 69.1 99.0 Z" fill="none" fill-opacity="0.48" stroke="hsl(322, 74%, 44%)" stroke-width="3.86"  transform="translate(70.8 31.7) rotate(50.5) scale(0.73 0.55)" />
<path d="M 26.1 13.7 C 6.8 18.7, 42.1 94.0, 51.9 80.4 C 59.9 96.3, 86.5 0.0, 76.7 1.2 C 94.2 4.0, 74.3 49.8, 77.0 36.3 C 89.4 34.8, 43.6 36.2, 34.2 24.6 C 24.2 7.4, 36.4 79.2, 35.8 89.8 C 18.8 75.7, 87.0 9.9, 75.8 7.7 " fill="none" fill-opacity="0.68" stroke="hsl(104, 72%, 65%)" stroke-width="2.57"  transform="translate(30.9 11.7) rotate(292.1) scale(1.35 0.55)" />
<path d="M 58.2 91.7 C 60.1 87.3, 18.9 34.7, 32.4 49.5 C 35.2 57.1, 77.2 7.6, 66.1 20.3 C 50.0 19.4, 59.3 68.3, 53.7 68.0 C 56.0 76.5, 47.1 92.1, 58.7 91.0 C 70.4 79.5, 19.1 50.2, 26.3 60.7 C 39.8 64.5, 39.7 24.2, 53.1 11.3 C 48.6 23.3, 41.1 65.7, 29.5 77.3 C 24.3 78.0, 34.7 24.5, 34.3 20.1 Z" fill="hsl(86, 72%, 68%)" fill-opacity="0.94" stroke="none" stroke-width="2.15"  transform="translate(71.4 49.4) rotate(332.9) scale(0.50 1.18)" />
<path d="M 12.6 13.3 C 0.0 15.8, 54.1 27.7, 65.8 25.5 C 50.0 39.9, 0.3 26.3, 5.0 21.7 C 0.0 9.7, 91.3 77.9, 80.9 70.4 C 87.7 80.8, 0.0 54.3, 4.8 55.2 C 18.3 37.0, 10.8 72.9, 17.1 58.5 C 34.5 56.0, 53.2 8.7, 53.6 15.1 C 37.2 16.6, 61.9 95.1, 74.6 98.0 C 93.1 98.8, 77.7 63.1, 73.7 77.8 C 70.3 97.2, 45.8 22.0, 42.9 31.9 C 49.2 21.6, 25.6 58.7, 33.2 68.2 Z" fill="none" fill-opacity="0.51" stroke="hsl(144, 86%, 72%)" stroke-width="4.68" filter="url(#f1)" transform="translate(23.8 52.7) rotate(203.1) scale(0.61 1.45)" />
<circle cx="37.6" cy="36.3" r="5.6" fill="url(#g0)" fill-opacity="0.78"  transform="translate(18.4 41.9) rotate(206.0) scale(1.25 1.16)" />
<path d="M 61.5 47.7 C 53.6 60.4, 97.6 100.0, 93.8 94.0 C 97.7 92.1, 22.0 19.5, 7.1 27.3 C 12.3 9.4, 28.1 12.9, 37.3 24.4 C 23.9 20.0, 100.0 36.1, 99.9 26.9 C 100.0 32.8, 77.8 15.0, 77.8 1.2 C 95.2 0.0, 41.1 45.3, 42.5 32.7 C 24.4 18.0, 85.5 100.0, 77.5 94.0 C 64.7 100.0, 32.0 56.0, 27.5 56.1 C 13.1 52.8, 38.4 85.6, 52.0 73.6 C 67.6 56.0, 37.9 49.0, 41.2 51.9 Z" fill="hsl(83, 65%, 44%)" fill-opacity="0.67" stroke="none" stroke-width="2.67"  transform="translate(43.6 23.4) rotate(212.9) scale(0.78 1.33)" />
<rect x="42.2" y="2.5" width="43.7" height="15.2" rx="0" fill="hsl(40, 53%, 69%)" fill-opacity="0.77"   transform="translate(16.4 97.1) rotate(235.4) scale(0.78 1.97)" />
<path d="M 4.5 24.7 C 4.7 31.0, 100.0 92.7, 95.4 80.6 C 98.6 80.7, 73.2 43.6, 61.4 47.9 C 55.9 54.7, 52.1 19.9, 65.3 21.8 C 49.8 35.6, 54.4 29.0, 45.7 18.7 C 55.8 27.8, 52.5 31.5, 64.4 19.4 C 47.5 34.6, 40.9 63.4, 49.6 63.3 C 59.3 52.3, 31.9 100.0, 35.5 96.8 Z" fill="none" fill-opacity="0.44" stroke="hsl(106, 75%, 59%)" stroke-width="4.86"  transform="translate(30.9 94.8) rotate(164.9) scale(0.53 1.36)" />
<circle cx="75.5" cy="91.8" r="19.2" fill="url(#g2)" fill-opacity="0.84"  transform="translate(33.8 83.2) rotate(162.5) scale(0.91 1.18)" />
<path d="M 82.5 96.7 C 75.9 98.8, 48.7 33.6, 62.2 20.2 C 54.5 18.0, 44.2 72.8, 57.2 66.9 C 59.7 56.5, 63.9 91.4, 64.6 86.4 C 51.0 70.5, 12.6 46.2, 15.1 40.2 C 12.6 39.7, 9.4 62.1, 21.8 67.0 C 3.4 60.3, 29.4 11.8, 19.0 7.5 C 4.0 5.8, 92.2 34.6, 87.2 25.8 Z" fill="hsl(242, 72%, 49%)" fill-opacity="0.63" stroke="none" stroke-width="3.06"   />
<circle cx="20.3" cy="15.0" r="10.3" fill="url(#g1)" fill-opacity="0.76"  transform="translate(84.5 22.3) rotate(236.1) scale(1.94 0.61)" />
<circle cx="32.8" cy="97.8" r="17.6" fill="url(#g2)" fill-opacity="0.88"  transform="translate(54.4 5.0) rotate(23.2) scale(0.90 0.86)" />
<circle cx="16.3" cy="27.8" r="17.6" fill="hsl(83, 65%, 44%)" fill-opacity="0.86"  transform="translate(60.8 83.1) rotate(125.4) scale(1.87 1.46)" />
<path d="M 33.6 97.1 C 52.4 90.6, 67.6 29.3, 56.6 26.1 C 63.9 43.2, 89.7 89.6, 88.9 79.4 C 77.6 98.8, 26.9 42.6, 37.0 34.2 C 18.4 15.8, 100.0 100.0, 92.9 94.7 C 78.5 100.0, 28.1 71.5, 13.5 76.1 C 20.5 59.3, 91.9 99.8, 87.8 94.6 C 96.3 100.0, 12.9 10.2, 19.8 23.1 Z" fill="hsl(144, 86%, 72%)" fill-opacity="0.35" stroke="none" stroke-width="1.64"  transform="translate(48.3 19.3) rotate(24.2) scale(1.52 0.92)" />
<path d="M 65.2 78.7 C 67.5 77.0, 10.5 4.6, 16.7 1.4 C 26.3 0.0, 7.0 2.7, 13.6 10.5 C 17.0 28.3, 78.7 34.1, 93.0 46.2 C 100.0 39.0, 14.0 0.0, 2.1 8.1 C 0.8 26.6, 6.7 0.0, 13.1 0.8 C 13.4 15.8, 78.8 37.1, 93.5 37.1 C 100.0 33.9, 59.8 10.4, 67.4 20.7 C 77.8 16.2, 11.9 37.9, 14.1 47.7 C 3.1 44.5, 79.1 74.0, 77.4 66.9 C 87.9 83.6, 63.4 39.8, 76.2 32.6 Z" fill="none" fill-opacity="0.26" stroke="hsl(322, 74%, 44%)" stroke-width="4.09"  transform="translate(2.0 45.3) rotate(132.5) scale(0.72 1.41)" />
<path d="M 48.4 93.1 C 42.1 100.0, 23.5 57.5, 31.1 54.3 C 45.8 48.3, 17.7 33.5, 16.4 36.4 C 23.8 55.1, 82.0 76.9, 69.7 91.2 C 81.5 100.0, 69.9 12.1, 71.4 26.6 C 81.4 32.4, 53.1 98.0, 51.2 85.4 C 47.0 97.7, 83.6 95.2, 86.7 90.7 C 86.1 100.0, 4.1 68.5, 18.2 76.1 C 9.5 67.1, 99.9 65.5, 96.5 56.7 Z" fill="hsl(40, 53%, 69%)" fill-opacity="0.25" stroke="none" stroke-width="4.16"  transform="translate(41.2 36.0) rotate(194.6) scale(1.37 0.74)" />
<rect x="39.0" y="47.5" width="44.1" height="13.2" rx="0" fill="none" fill-opacity="0.55"   transform="translate(53.4 95.6) rotate(3.8) scale(1.00 1.36)" />
<path d="M 70.7 55.0 C 61.4 54.3, 0.0 52.2, 0.2 63.8 C 0.0 76.1, 12.9 64.0, 7.1 63.6 C 19.9 59.3, 0.0 36.3, 12.1 36.1 C 31.9 28.3, 32.2 0.0, 23.6 2.2 C 3.8 0.0, 63.9 100.0, 52.7 93.9 C 51.6 74.4, 50.4 24.3, 46.5 14.3 C 29.1 7.2, 46.7 86.2, 35.8 76.4 C 55.7 68.7, 37.8 43.8, 48.5 33.5 C 59.7 31.1, 43.0 35.0, 47.4 39.1 C 36.0 34.2, 22.8 17.6, 31.2 3.5 Z" fill="none" fill-opacity="0.46" stroke="hsl(322, 74%, 44%)" stroke-width="1.68"  transform="translate(81.9 33.1) rotate(301.7) scale(1.88 1.70)" />
<rect x="22.5" y="44.6" width="47.2" height="25.2" rx="0" fill="hsl(290, 83%, 63%)" fill-opacity="0.84"  filter="url(#f1)" transform="translate(29.9 80.1) rotate(302.2) scale(0.93 1.19)" />
<rect x="60.6" y="57.7" width="25.5" height="33.2" rx="0" fill="hsl(290, 83%, 63%)" fill-opacity="0.49"   transform="translate(30.0 7.8) rotate(205.1) scale(1.75 1.41)" />
<path d="M 0.4 4.9 C 2.0 14.4, 50.1 25.9, 39.7 11.3 C 32.6 16.0, 34.7 4.6, 30.0 18.6 C 21.4 2.7, 34.0 42.4, 43.2 51.1 C 34.4 34.0, 19.4 100.0, 29.1 89.2 C 21.6 94.6, 79.9 85.9, 92.1 76.6 C 87.6 90.6, 22.3 89.1, 26.2 74.2 C 15.1 78.6, 79.9 13.8, 88.3 22.4 C 90.2 21.9, 10.1 74.5, 16.4 67.7 C 32.8 63.9, 73.4 25.7, 77.1 25.6 C 81.8 43.3, 98.1 90.0, 91.2 95.5 " fill="hsl(242, 72%, 49%)" fill-opacity="0.26" stroke="none" stroke-width="4.98"  transform="translate(77.6 33.5) rotate(143.5) scale(0.50 1.54)" />
<path d="M 84.5 35.8 C 67.8 28.6, 18.6 66.2, 9.0 72.8 C 21.0 53.7, 51.2 41.2, 62.1 56.1 C 61.2 50.8, 11.1 46.0, 15.5 33.5 C 25.2 52.3, 69.8 5.7, 56.5 1.8 C 73.8 5.6, 58.0 11.4, 58.8 11.2 C 50.6 4.1, 7.9 44.3, 10.3 31.3 C 28.1 49.1, 40.5 49.1, 31.4 34.8 C 44.4 25.8, 27.2 8.6, 16.3 2.3 C 17.1 19.5, 4.9 38.0, 18.4 36.1 Z" fill="hsl(106, 75%, 59%)" fill-opacity="0.42" stroke="none" stroke-width="2.94"  transform="translate(40.4 78.7) rotate(284.6) scale(1.23 1.02)" />
<path d="M 73.7 16.3 C 90.3 1.1, 50.8 39.2, 58.5 26.6 C 58.4 21.8, 13.6 19.2, 25.8 20.9 C 12.9 27.5, 18.9 68.3, 29.2 58.8 C 32.2 50.8, 84.6 82.5, 77.0 79.1 C 74.1 65.2, 27.7 16.4, 16.7 10.1 C 34.0 0.0, 99.7 83.7, 94.3 71.4 Z" fill="hsl(2, 82%, 55%)" fill-opacity="0.41" stroke="none" stroke-width="4.95" filter="url(#f1)" transform="translate(26.7 96.6) rotate(198.5) scale(0.73 0.72)" />
<path d="M 66.1 27.0 C 84.8 16.1, 67.3 24.9, 70.5 19.0 C 90.3 31.6, 45.4 0.0, 43.8 2.4 C 56.4 21.3, 0.0 39.1, 8.2 53.4 C 24.8 61.9, 26.3 1.1, 30.4 1.2 C 20.2 0.0, 57.5 49.1, 66.0 52.0 C 67.2 41.4, 29.5 93.4, 33.8 84.4 C 39.3 85.0, 80.2 58.0, 86.8 56.2 C 100.0 69.5, 49.4 7.4, 55.2 9.2 C 55.8 18.4, 67.6 58.3, 68.9 54.8 C 77.9 73.7, 61.5 94.2, 46.9 84.6 Z" fill="hsl(86, 72%, 68%)" fill-opacity="0.40" stroke="none" stroke-width="2.49" filter="url(#f1)" transform="translate(43.3 42.0) rotate(320.9) scale(1.08 0.52)" />
<circle cx="4.8" cy="78.2" r="9.8" fill="hsl(144, 86%, 72%)" fill-opacity="0.50" filter="url(#f1)" transform="translate(46.7 77.1) rotate(294.8) scale(1.41 1.84)" />
<path d="M 9.2 16.7 C 0.0 34.3, 45.5 35.3, 52.9 34.2 C 54.1 19.1, 83.2 100.0, 79.6 89.0 C 63.1 94.4, 90.9 48.1, 88.5 45.6 C 83.0 61.8, 100.0 16.3, 94.5 25.4 C 100.0 7.3, 35.6 0.0, 37.7 11.8 C 31.7 12.1, 75.2 31.4, 87.0 22.7 C 77.0 20.0, 83.0 13.5, 69.1 3.3 Z" fill="hsl(151, 70%, 62%)" fill-opacity="0.62" stroke="none" stroke-width="2.05"  transform="translate(63.7 54.9) rotate(163.0) scale(1.16 0.65)" />
<circle cx="51.1" cy="77.0" r="13.4" fill="hsl(322, 74%, 44%)" fill-opacity="0.72"  transform="translate(24.6 81.5) rotate(147.7) scale(1.26 0.74)" />
<circle cx="24.6" cy="43.2" r="5.6" fill="url(#g1)" fill-opacity="0.52"  transform="translate(35.8 70.0) rotate(25.6) scale(0.90 0.68)" />
<path d="M 6.4 39.2 C 0.0 20.4, 28.2 29.0, 39.7 34.7 C 47.2 52.8, 71.5 0.0, 76.6 3.3 C 66.7 5.2, 91.5 55.6, 86.9 65.8 C 72.0 68.7, 33.1 58.1, 32.1 53.3 C 14.8 60.6, 70.0 67.1, 71.1 72.3 C 90.0 78.3, 68.7 10.5, 64.8 18.7 C 58.7 13.4, 30.6 15.5, 20.5 15.9 C 11.6 10.1, 95.4 89.3, 91.5 79.6 C 100.0 77.8, 22.1 49.9, 8.5 57.2 C 19.2 60.5, 99.6 91.6, 98.8 85.0 Z" fill="hsl(322, 74%, 44%)" fill-opacity="0.65" stroke="none" stroke-width="1.98"  transform="translate(35.8 63.5) rotate(34.2) scale(1.27 1.18)" />
<rect x="37.2" y="74.0" width="34.2" height="10.0" rx="1.1" fill="hsl(322, 74%, 44%)" fill-opacity="0.67"   transform="translate(18.5 18.2) rotate(226.5) scale(0.94 0.81)" />
<path d="M 50.5 65.0 C 35.6 67.7, 51.9 38.2, 62.7 49.0 C 50.2 60.0, 64.7 74.1, 58.5 64.6 C 53.0 76.6, 0.0 92.7, 1.4 78.7 C 15.6 60.8, 53.7 46.5, 44.1 53.7 C 24.9 43.0, 73.5 84.7, 61.1 70.8 C 41.6 75.0, 85.2 8.8, 87.6 12.4 C 84.9 21.9, 49.4 74.8, 57.6 79.2 C 47.5 95.4, 75.8 23.4, 69.6 32.8 C 70.7 36.2, 78.0 12.6, 70.1 2.9 Z" fill="none" fill-opacity="0.49" stroke="hsl(144, 86%, 72%)" stroke-width="4.57"   />
<path d="M 72.4 80.1 C 84.3 89.9, 63.4 99.3, 70.5 94.8 C 87.9 100.0, 17.6 70.0, 12.5 57.0 C 19.3 60.1, 3.7 5.7, 17.9 2.0 C 29.5 0.0, 38.0 42.7, 41.4 28.2 C 28.5 34.1, 68.2 3.6, 82.4 15.7 C 71.4 2.2, 73.1 94.1, 74.4 81.2 C 78.6 90.7, 11.1 47.3, 9.3 36.5 C 19.4 48.0, 59.2 62.6, 56.9 54.4 Z" fill="hsl(104, 72%, 65%)" fill-opacity="0.39" stroke="none" stroke-width="2.26"  transform="translate(82.2 45.5) rotate(305.7) scale(0.73 1.33)" />
<path d="M 67.7 40.1 C 87.7 25.0, 81.9 64.6, 77.5 52.8 C 63.3 69.0, 100.0 29.0, 99.7 30.8 C 100.0 34.2, 55.9 14.1, 67.4 25.7 C 87.2 38.6, 6.1 22.4, 20.9 28.6 C 20.7 24.8, 68.8 17.5, 76.1 3.6 C 64.9 4.2, 42.0 24.9, 45.5 10.5 C 41.2 0.0, 47.0 58.8, 48.3 63.9 C 29.2 68.2, 1.0 37.1, 8.3 32.0 C 0.0 45.8, 0.0 40.3, 1.7 38.7 C 10.7 44.2, 81.1 0.0, 87.6 0.3 " fill="none" fill-opacity="0.54" stroke="hsl(290, 83%, 63%)" stroke-width="1.12"  transform="translate(12.2 16.0) rotate(53.8) scale(0.64 1.33)" />
<path d="M 60.6 78.3 C 68.3 77.3, 69.8 29.5, 78.5 28.5 C 73.3 43.2, 44.1 84.3, 51.2 87.0 C 69.4 88.0, 73.1 55.0, 68.3 46.3 C 68.3 39.0, 78.2 30.2, 83.5 33.7 C 78.8 18.0, 55.9 14.2, 44.7 9.7 C 64.6 0.0, 71.9 59.1, 85.2 54.5 Z" fill="hsl(151, 70%, 62%)" fill-opacity="0.75" stroke="none" stroke-width="2.66"  transform="translate(99.1 40.9) rotate(155.0) scale(0.54 1.30)" />
<circle cx="56.4" cy="54.7" r="2.6" fill="url(#g1)" fill-opacity="0.77"   />
<path d="M 3.6 69.2 C 22.7 81.9, 62.9 77.7, 68.3 64.4 C 66.7 81.5, 82.8 23.1, 87.5 17.7 C 100.0 32.0, 29.0 79.2, 39.1 86.1 C 55.6 100.0, 16.8 20.6, 9.7 24.5 C 12.7 24.3, 59.9 29.0, 45.0 34.5 C 35.7 20.5, 100.0 81.6, 98.8 77.0 C 100.0 73.6, 15.5 82.6, 9.3 95.9 C 26.3 76.1, 66.2 73.2, 62.4 61.4 " fill="hsl(2, 82%, 55%)" fill-opacity="0.48" stroke="none" stroke-width="1.03"  transform="translate(95.8 65.9) rotate(136.3) scale(0.67 0.93)" />
<path d="M 3.3 15.9 C 0.0 0.0, 99.4 29.0, 85.2 39.9 C 75.7 31.4, 76.9 20.9, 74.9 27.5 C 92.8 25.5, 13.9 39.1, 0.5 52.8 C 11.2 66.0, 44.5 21.2, 50.6 22.9 C 52.1 37.9, 100.0 4.8, 89.8 12.0 C 94.1 23.5, 0.0 97.5, 9.8 96.3 C 29.5 89.7, 46.7 0.0, 55.2 0.3 Z" fill="none" fill-opacity="0.50" stroke="hsl(144, 86%, 72%)" stroke-width="4.26"  transform="translate(81.4 24.6) rotate(271.1) scale(1.14 0.77)" />
<path d="M 46.8 27.0 C 63.1 42.4, 0.0 27.8, 1.5 13.3 C 0.0 2.8, 25.0 16.3, 23.2 10.8 C 34.0 16.1, 75.4 78.8, 72.0 80.2 C 90.8 89.5, 96.0 83.6, 97.1 82.9 C 93.9 79.8, 32.5 48.1, 24.5 39.6 C 28.7 38.8, 8.1 54.8, 8.0 63.6 C 0.0 64.4, 9.2 77.1, 13.9 79.2 C 0.0 73.3, 38.6 70.0, 39.0 80.8 Z" fill="none" fill-opacity="0.83" stroke="hsl(322, 74%, 44%)" stroke-width="5.11" filter="url(#f1)" transform="translate(57.0 81.5) rotate(110.2) scale(0.55 1.35)" />
<path d="M 17.3 25.3 C 17.8 12.0, 63.2 100.0, 72.2 93.9 C 67.3 93.4, 45.0 68.0, 52.9 59.6 C 63.6 48.8, 34.4 79.9, 25.9 66.5 C 40.7 58.6, 37.2 41.9, 50.9 36.6 C 61.0 49.3, 82.9 7.8, 77.5 1.9 C 93.2 7.6, 0.0 29.1, 3.0 41.9 C 13.4 27.9, 80.6 58.9, 88.9 69.0 C 100.0 55.0, 90.7 62.9, 90.5 54.6 Z" fill="hsl(151, 70%, 62%)" fill-opacity="0.76" stroke="none" stroke-width="4.34"  transform="translate(53.1 61.7) rotate(4.8) scale(1.48 1.36)" />
<path d="M 22.4 4.4 C 23.3 19.4, 84.8 32.1, 98.2 38.6 C 100.0 56.1, 26.1 75.3, 25.2 64.7 C 17.3 77.8, 0.0 75.0, 4.0 69.5 C 4.6 60.7, 18.7 65.3, 10.7 55.8 C 25.1 58.1, 50.3 91.0, 54.3 82.6 C 52.6 98.9, 75.2 54.6, 68.2 58.1 C 82.5 47.0, 52.0 99.3, 62.0 96.6 C 61.7 77.4, 50.7 88.9, 49.0 84.5 C 48.0 78.2, 65.4 47.9, 73.6 52.8 C 81.0 47.5, 74.1 76.9, 66.0 82.4 Z" fill="none" fill-opacity="0.92" stroke="hsl(40, 53%, 69%)" stroke-width="2.87"  transform="translate(81.0 7.9) rotate(60.3) scale(1.67 1.53)" />
<rect x="30.1" y="59.8" width="32.9" height="36.4" rx="0" fill="hsl(83, 65%, 44%)" fill-opacity="0.52"   transform="translate(32.3 46.0) rotate(341.7) scale(1.55 0.80)" />
<path d="M 96.5 78.4 C 97.7 73.6, 66.6 18.3, 69.6 4.7 C 78.9 0.0, 67.9 11.5, 65.4 14.9 C 52.8 21.5, 46.4 60.5, 41.4 53.3 C 29.4 55.0, 51.8 67.2, 37.9 77.1 C 47.0 80.9, 51.6 10.4, 43.9 2.7 C 24.8 2.5, 76.0 42.9, 68.6 36.1 C 81.2 22.6, 77.1 62.2, 68.0 48.1 C 56.4 60.8, 71.7 35.1, 70.5 36.4 Z" fill="none" fill-opacity="0.68" stroke="hsl(86, 72%, 68%)" stroke-width="2.46"  transform="translate(87.8 51.8) rotate(82.7) scale(1.79 0.73)" />
<path d="M 45.8 11.9 C 64.4 0.0, 71.2 63.2, 69.0 52.0 C 66.8 49.0, 84.2 69.8, 71.4 56.9 C 78.7 60.5, 84.3 72.5, 80.2 83.6 C 93.9 76.0, 4.7 90.6, 1.9 98.4 C 7.3 82.9, 64.8 11.7, 66.9 3.8 C 57.6 9.4, 43.9 36.7, 30.0 40.8 C 44.5 58.8, 85.0 84.3, 72.3 83.6 C 63.8 84.3, 16.8 47.7, 31.5 41.6 C 22.2 49.1, 57.1 43.2, 59.6 55.4 C 71.9 58.8, 16.9 46.9, 5.4 56.1 Z" fill="none" fill-opacity="0.59" stroke="hsl(242, 72%, 49%)" stroke-width="4.02"  transform="translate(51.4 27.9) rotate(67.9) scale(1.77 0.94)" />
<rect x="61.9" y="76.9" width="20.4" height="14.5" rx="0" fill="hsl(290, 83%, 63%)" fill-opacity="0.37"   transform="translate(29.8 59.0) rotate(280.2) scale(1.19 1.64)" />
<path d="M 15.3 68.5 C 10.1 87.1, 63.0 0.0, 72.5 1.0 C 70.8 14.1, 54.0 69.2, 46.6 68.2 C 57.8 69.5, 21.3 78.6, 28.9 88.8 C 41.0 98.1, 24.7 69.3, 16.3 73.1 C 16.2 64.4, 25.6 100.0, 20.3 92.3 C 13.3 100.0, 39.1 10.3, 52.5 15.8 C 45.0 8.7, 53.2 57.3, 65.9 68.8 C 71.0 66.9, 15.1 82.1, 23.1 92.8 C 18.3 100.0, 60.4 19.7, 57.0 23.7 " fill="hsl(151, 70%, 62%)" fill-opacity="0.36" stroke="none" stroke-width="0.82"  transform="translate(16.6 40.2) rotate(272.1) scale(0.54 0.79)" />
<g opacity="0.053">
<rect x="0" y="0" width="1" height="100" fill="black" />
<rect x="22" y="0" width="1" height="100" fill="black" />
<rect x="44" y="0" width="1" height="100" fill="black" />
<rect x="66" y="0" width="1" height="100" fill="black" />
<rect x="88" y="0" width="1" height="100" fill="black" />
<rect x="0" y="0" width="100" height="1" fill="black" />
<rect x="0" y="22" width="100" height="1" fill="black" />
<rect x="0" y="44" width="100" height="1" fill="black" />
<rect x="0" y="66" width="100" height="1" fill="black" />
<rect x="0" y="88" width="100" height="1" fill="black" />
</g>

</svg>
