<?xml version="1.0" encoding="UTF-8"?>
<svg xmlns="http://www.w3.org/2000/svg" width="100" height="100" viewBox="0 0 100 100">
<defs>
<linearGradient id="g0" x1="0%" y1="0%" x2="100%" y2="100%">
<stop offset="0.0%" stop-color="hsl(106, 75%, 59%)" />
<stop offset="33.3%" stop-color="hsl(183, 71%, 60%)" />
<stop offset="66.7%" stop-color="hsl(242, 72%, 49%)" />
<stop offset="100.0%" stop-color="hsl(322, 74%, 44%)" />
</linearGradient>
<linearGradient id="g1" x1="0%" y1="0%" x2="100%" y2="100%">
<stop offset="0.0%" stop-color="hsl(290, 83%, 63%)" />
<stop offset="33.3%" stop-color="hsl(2, 82%, 55%)" />
<stop offset="66.7%" stop-color="hsl(86, 72%, 68%)" />
<stop offset="100.0%" stop-color="hsl(83, 65%, 44%)" />
</linearGradient>
<linearGradient id="g2" x1="0%" y1="0%" x2="100%" y2="100%">
<stop offset="0.0%" stop-color="hsl(40, 53%, 69%)" />
<stop offset="33.3%" stop-color="hsl(104, 72%, 65%)" />
<stop offset="66.7%" stop-color="hsl(144, 86%, 72%)" />
<stop offset="100.0%" stop-color="hsl(151, 70%, 62%)" />
</linearGradient>
</defs>

<path d="M 7.6 87.1 C 21.0 78.4, 22.9 62.7, 18.5 50.5 C 27.0 61.6, 60.9 8.9, 62.0 19.3 C 64.8 36.3, 43.6 39.8, 37.9 53.0 C 28.3 52.7, 24.1 8.3, 38.9 7.6 C 30.1 7.7, 62.9 42.3, 64.7 45.3 C 59.2 27.2, 100.0 99.5, 90.0 98.1 " fill="hsl(183, 71%, 60%)" fill-opacity="0.30" stroke="none" stroke-width="1.15"  transform="translate(42.1 27.6) rotate(162.4) scale(0.89 1.81)" />
<rect x="45.7" y="64.5" width="37.7" height="22.6" rx="0" fill="none" fill-opacity="0.58"    />
<rect x="16.5" y="7.0" width="33.2" height="32.7" rx="0" fill="hsl(40, 53%, 69%)" fill-opacity="0.79" stroke="hsl(104, 72%, 65%)" stroke-width="3.5"   />
<circle cx="62.1" cy="41.8" r="0.4" fill="hsl(322, 74%, 44%)" fill-opacity="0.60"  transform="translate(11.2 86.3) rotate(64.9) scale(0.61 1.54)" />
<circle cx="52.4" cy="39.5" r="0.4" fill="hsl(86, 72%, 68%)" fill-opacity="0.51"  transform="translate(3.6 79.1) rotate(8.6) scale(0.98 1.12)" />
<path d="M 66.8 61.4 C 65.2 67.1, 28.6 39.2, 26.0 51.2 C 38.8 63.1, 92.6 20.6, 84.1 15.8 C 76.3 18.9, 95.3 28.0, 88.7 14.4 C 88.4 14.2, 24.0 73.5, 24.9 59.0 C 25.5 76.1, 81.7 87.7, 92.6 84.8 C 92.0 100.0, 100.0 86.8, 95.2 80.1 C 77.8 92.6, 46.1 100.0, 40.4 93.3 Z" fill="hsl(322, 74%, 44%)" fill-opacity="0.91" stroke="none" stroke-width="0.99"  transform="translate(95.2 0.3) rotate(54.1) scale(0.80 1.42)" />
<path d="M 98.3 40.7 C 79.0 53.6, 65.7 35.6, 72.4 34.1 C 53.5 51.6, 84.9 48.0, 80.0 40.1 C 73.5 51.3, 40.8 95.8, 35.1 90.8 C 19.8 99.1, 25.8 5.9, 24.3 17.0 C 7.4 10.0, 42.1 81.3, 49.9 75.0 C 30.4 60.8, 100.0 60.4, 87.4 57.4 Z" fill="none" fill-opacity="1.00" stroke="hsl(144, 86%, 72%)" stroke-width="1.12"  transform="translate(40.3 10.2) rotate(331.1) scale(1.24 1.58)" />
<rect x="5.0" y="19.6" width="34.9" height="37.9" rx="0" fill="hsl(40, 53%, 69%)" fill-opacity="0.54" stroke="hsl(144, 86%, 72%)" stroke-width="5.0"   />
<path d="M 24.9 5.0 C 31.7 0.0, 76.8 84.9, 64.2 80.2 C 79.8 60.7, 97.4 62.4, 90.7 71.4 C 100.0 84.3, 24.3 16.1, 23.5 9.7 C 12.7 0.0, 80.3 63.4, 91.8 64.1 C 95.4 69.3, 97.5 51.5, 97.5 44.6 " fill="hsl(322, 74%, 44%)" fill-opacity="0.89" stroke="none" stroke-width="0.92"  transform="translate(85.6 89.6) rotate(219.1) scale(1.11 1.24)" />
<path d="M 90.9 47.8 C 87.0 52.1, 23.7 93.1, 34.8 85.7 C 45.0 73.0, 54.8 96.7, 67.6 82.5 C 62.0 75.0, 45.1 2.1, 35.2 1.4 C 28.7 15.1, 35.7 100.0, 27.1 94.6 Z" fill="hsl(242, 72%, 49%)" fill-opacity="0.51" stroke="none" stroke-width="1.11"  transform="translate(93.5 4.5) rotate(98.0) scale(1.97 1.51)" />
<path d="M 23.4 1.5 C 17.5 0.0, 23.4 0.0, 19.6 4.3 C 33.9 24.1, 16.5 65.2, 2.8 65.6 C 10.3 67.0, 100.0 70.5, 97.7 63.3 " fill="none" fill-opacity="0.44" stroke="hsl(151, 70%, 62%)" stroke-width="0.81"   />
<path d="M 20.1 44.9 C 38.7 28.7, 29.9 5.2, 26.4 3.4 C 9.1 0.0, 23.6 9.3, 32.8 23.3 C 50.7 8.0, 47.7 82.1, 47.0 96.2 C 60.5 99.9, 81.9 23.8, 74.7 28.6 C 60.2 12.1, 80.3 66.2, 66.8 64.6 Z" fill="none" fill-opacity="0.88" stroke="hsl(40, 53%, 69%)" stroke-width="1.19"   />
<circle cx="10.2" cy="45.1" r="1.1" fill="hsl(104, 72%, 65%)" fill-opacity="0.64"   />
<path d="M 2.9 17.6 C 0.0 5.2, 8.8 13.6, 9.9 25.6 C 0.0 23.0, 73.5 55.9, 68.2 46.6 C 81.7 36.6, 32.0 57.5, 19.4 53.8 " fill="none" fill-opacity="0.70" stroke="hsl(40, 53%, 69%)" stroke-width="0.80"  transform="translate(37.3 70.4) rotate(195.4) scale(1.11 0.68)" />
</svg>
