<?xml version="1.0" encoding="UTF-8"?>
<svg xmlns="http://www.w3.org/2000/svg" width="100" height="100" viewBox="0 0 100 100">
<defs>
<linearGradient id="g0" x1="0%" y1="0%" x2="100%" y2="100%">
<stop offset="0.0%" stop-color="hsl(106, 75%, 59%)" />
<stop offset="33.3%" stop-color="hsl(183, 71%, 60%)" />
<stop offset="66.7%" stop-color="hsl(242, 72%, 49%)" />
<stop offset="100.0%" stop-color="hsl(322, 74%, 44%)" />
</linearGradient>
<linearGradient id="g1" x1="0%" y1="0%" x2="100%" y2="100%">
<stop offset="0.0%" stop-color="hsl(290, 83%, 63%)" />
<stop offset="33.3%" stop-color="hsl(2, 82%, 55%)" />
<stop offset="66.7%" stop-color="hsl(86, 72%, 68%)" />
<stop offset="100.0%" stop-color="hsl(83, 65%, 44%)" />
</linearGradient>
<linearGradient id="g2" x1="0%" y1="0%" x2="100%" y2="100%">
<stop offset="0.0%" stop-color="hsl(40, 53%, 69%)" />
<stop offset="33.3%" stop-color="hsl(104, 72%, 65%)" />
<stop offset="66.7%" stop-color="hsl(144, 86%, 72%)" />
<stop offset="100.0%" stop-color="hsl(151, 70%, 62%)" />
</linearGradient>
<filter id="f1" x="-20%" y="-20%" width="140%" height="140%">
  <feGaussianBlur stdDeviation="0.575169864891818" />
</filter>

</defs>

<path d="M 34.5 32.6 C 43.4 22.1, 12.4 99.7, 7.2 97.2 C 20.3 100.0, 20.1 25.4, 19.4 23.0 C 30.9 10.1, 49.3 77.9, 46.4 70.7 C 44.8 64.4, 67.6 51.6, 63.6 49.7 C 69.9 30.8, 49.8 48.1, 46.5 41.9 C 29.5 25.7, 98.6 88.4, 92.8 74.8 C 87.9 73.8, 62.2 75.8, 76.5 64.0 C 74.0 83.7, 28.1 32.3, 34.1 38.4 Z" fill="hsl(40, 53%, 69%)" fill-opacity="0.86" stroke="none" stroke-width="4.19"  transform="translate(59.1 37.9) rotate(183.8) scale(1.90 0.62)" />
<circle cx="26.8" cy="86.2" r="1.9" fill="url(#g1)" fill-opacity="0.82"  transform="translate(75.7 92.2) rotate(158.1) scale(1.00 1.83)" />
<path d="M 51.0 49.7 C 51.4 39.7, 21.0 59.7, 33.7 46.6 C 14.5 64.5, 9.3 66.4, 15.1 58.8 C 29.2 49.1, 58.5 100.0, 64.6 94.0 C 71.7 80.3, 54.3 41.1, 65.8 53.9 C 70.7 44.5, 100.0 57.9, 96.0 66.1 C 84.5 85.4, 18.1 15.7, 24.8 24.5 Z" fill="none" fill-opacity="0.56" stroke="hsl(83, 65%, 44%)" stroke-width="2.60"  transform="translate(94.2 19.7) rotate(20.7) scale(0.87 1.22)" />
<path d="M 81.8 33.6 C 62.5 30.3, 78.6 53.9, 73.9 45.3 C 71.9 40.4, 32.0 41.4, 40.4 56.3 C 30.3 59.8, 75.2 79.1, 81.5 85.9 C 75.6 100.0, 78.9 0.0, 70.8 5.8 C 75.9 5.8, 40.0 5.9, 54.8 11.6 C 54.2 7.0, 45.7 5.9, 34.8 11.0 C 49.5 22.5, 26.2 96.3, 31.7 96.9 Z" fill="hsl(322, 74%, 44%)" fill-opacity="0.88" stroke="none" stroke-width="2.06"  transform="translate(32.7 13.5) rotate(319.1) scale(1.01 0.85)" />
<path d="M 8.4 19.7 C 0.0 28.4, 30.6 19.9, 33.2 7.7 C 28.8 25.0, 67.9 42.2, 74.8 46.4 C 58.7 39.3, 31.9 5.2, 29.8 1.0 C 47.9 0.0, 21.7 46.2, 7.1 45.5 C 17.7 53.8, 65.8 2.8, 73.9 7.8 C 85.7 19.3, 11.6 82.6, 23.4 73.0 C 6.1 91.7, 0.0 65.1, 2.3 64.2 C 3.1 52.8, 74.5 19.3, 62.2 15.3 Z" fill="none" fill-opacity="0.85" stroke="hsl(151, 70%, 62%)" stroke-width="4.99"  transform="translate(55.7 88.4) rotate(88.5) scale(0.93 0.80)" />
<path d="M 16.5 24.4 C 29.6 29.1, 75.3 41.8, 74.8 55.9 C 57.8 74.0, 3.3 87.3, 12.3 80.8 C 0.8 98.7, 27.8 26.7, 33.6 31.5 C 14.8 36.9, 58.2 83.4, 64.4 72.7 C 52.1 59.7, 39.9 89.6, 48.9 78.7 C 34.8 89.0, 49.3 68.3, 55.5 57.0 C 70.2 40.1, 0.0 57.7, 8.4 68.1 Z" fill="hsl(40, 53%, 69%)" fill-opacity="0.85" stroke="none" stroke-width="2.45"   />
<circle cx="54.3" cy="80.7" r="2.9" fill="url(#g2)" fill-opacity="0.96"  transform="translate(2.5 74.3) rotate(22.2) scale(1.34 1.04)" />
<path d="M 84.5 23.4 C 94.1 37.1, 58.2 61.2, 45.8 58.7 C 38.6 71.6, 80.0 77.7, 82.0 84.2 C 93.3 100.0, 44.8 51.5, 33.1 44.6 C 51.5 64.0, 35.8 60.4, 38.1 75.1 C 18.2 58.6, 36.2 73.7, 39.4 72.4 C 52.7 66.0, 100.0 24.9, 92.6 17.2 C 82.4 36.8, 71.9 22.6, 66.5 31.1 " fill="hsl(106, 75%, 59%)" fill-opacity="0.71" stroke="none" stroke-width="4.69"  transform="translate(73.3 82.2) rotate(175.4) scale(1.39 1.69)" />
<circle cx="14.8" cy="15.0" r="4.7" fill="url(#g2)" fill-opacity="0.41"  transform="translate(91.8 64.0) rotate(40.3) scale(0.77 0.60)" />
<rect x="70.9" y="15.6" width="27.3" height="18.6" rx="0" fill="none" fill-opacity="0.87" stroke="hsl(106, 75%, 59%)" stroke-width="3.4"  transform="translate(61.1 100.0) rotate(262.2) scale(0.98 1.80)" />
<rect x="31.5" y="15.5" width="40.4" height="33.9" rx="0" fill="none" fill-opacity="0.48"    />
<rect x="46.8" y="76.7" width="27.2" height="16.6" rx="9.9" fill="none" fill-opacity="0.41"   transform="translate(16.0 63.7) rotate(289.0) scale(1.13 1.41)" />
<rect x="18.4" y="67.7" width="27.8" height="10.8" rx="6.8" fill="none" fill-opacity="0.28" stroke="hsl(242, 72%, 49%)" stroke-width="1.6"   />
<path d="M 51.6 67.0 C 48.2 71.1, 0.0 36.3, 0.7 40.9 C 10.8 34.6, 86.4 84.3, 97.1 96.6 C 94.3 100.0, 100.0 33.5, 98.0 23.6 C 82.5 21.7, 13.7 60.4, 15.0 50.4 C 1.8 56.6, 65.0 73.1, 68.0 70.1 C 79.3 66.2, 33.2 0.8, 26.4 0.5 C 41.0 6.2, 28.3 31.1, 41.3 45.9 C 43.3 34.2, 44.1 18.7, 30.8 20.2 C 34.4 4.7, 100.0 4.2, 89.7 12.5 Z" fill="hsl(40, 53%, 69%)" fill-opacity="0.84" stroke="none" stroke-width="3.20"  transform="translate(27.1 77.4) rotate(171.4) scale(1.41 0.87)" />
<path d="M 37.1 68.6 C 19.8 87.8, 21.7 68.7, 19.9 74.7 C 14.8 87.0, 82.9 83.3, 97.3 88.9 C 100.0 100.0, 77.7 58.2, 75.2 63.9 C 58.4 72.1, 41.8 26.9, 28.6 13.5 C 28.8 29.5, 28.2 3.4, 15.8 8.8 C 8.1 3.5, 69.1 93.2, 81.0 83.3 Z" fill="none" fill-opacity="0.94" stroke="hsl(183, 71%, 60%)" stroke-width="2.82" filter="url(#f1)" transform="translate(39.7 2.6) rotate(315.8) scale(1.82 0.68)" />
<path d="M 31.2 24.1 C 18.9 20.3, 77.9 45.5, 64.7 42.4 C 76.8 35.8, 0.8 8.1, 2.7 3.2 C 18.9 8.3, 34.4 50.4, 22.8 64.0 C 29.7 82.6, 69.5 61.7, 54.8 54.2 C 39.6 47.8, 71.1 6.5, 74.6 15.3 C 56.3 6.4, 21.5 42.5, 32.8 28.5 C 50.6 30.5, 29.9 76.9, 40.9 83.5 C 38.1 80.9, 20.2 64.4, 25.6 62.2 Z" fill="hsl(151, 70%, 62%)" fill-opacity="0.54" stroke="none" stroke-width="4.42"  transform="translate(52.0 42.3) rotate(234.3) scale(1.67 0.59)" />
<circle cx="68.4" cy="13.4" r="6.3" fill="hsl(290, 83%, 63%)" fill-opacity="0.85"  transform="translate(14.0 81.2) rotate(168.2) scale(0.79 0.96)" />
<path d="M 45.3 58.3 C 62.1 40.4, 70.6 79.0, 72.5 89.8 C 68.6 99.6, 31.4 54.2, 42.8 59.7 C 52.4 56.4, 77.3 5.8, 81.8 9.4 C 86.0 5.4, 85.7 100.0, 83.8 90.1 C 98.8 86.4, 59.9 64.8, 55.1 56.1 C 64.3 48.4, 64.2 59.5, 75.3 49.5 C 58.9 37.5, 100.0 22.2, 100.0 19.2 Z" fill="hsl(322, 74%, 44%)" fill-opacity="0.49" stroke="none" stroke-width="1.40"   />
<circle cx="69.2" cy="84.1" r="0.3" fill="hsl(290, 83%, 63%)" fill-opacity="0.89" filter="url(#f1)" transform="translate(54.4 99.1) rotate(314.4) scale(0.90 1.61)" />
<circle cx="16.5" cy="62.4" r="5.5" fill="hsl(2, 82%, 55%)" fill-opacity="0.52"  transform="translate(94.3 38.4) rotate(303.3) scale(0.65 1.72)" />
<path d="M 68.2 30.9 C 85.1 27.6, 0.1 80.9, 7.6 78.4 C 0.0 81.7, 84.6 38.5, 82.8 44.0 C 79.7 26.9, 18.1 4.5, 22.2 15.5 C 12.1 8.4, 71.8 58.6, 59.2 62.3 C 71.8 46.1, 67.9 12.5, 71.4 5.3 C 75.1 11.0, 7.8 2.7, 1.0 9.2 C 0.0 0.0, 75.8 16.7, 63.0 18.7 Z" fill="none" fill-opacity="0.48" stroke="hsl(106, 75%, 59%)" stroke-width="4.34"  transform="translate(3.3 98.5) rotate(285.0) scale(1.54 1.68)" />
<path d="M 32.9 53.4 C 29.1 48.1, 93.6 9.8, 86.6 3.3 C 99.0 5.4, 71.6 67.8, 83.2 73.7 C 71.0 85.3, 27.3 68.7, 37.7 67.1 C 41.8 63.1, 100.0 5.7, 97.2 9.3 C 100.0 9.7, 61.2 72.5, 67.7 64.1 C 80.2 50.4, 25.5 58.3, 36.8 60.7 C 29.7 56.6, 36.6 55.9, 37.7 63.2 C 30.5 81.6, 47.4 100.0, 43.7 94.4 Z" fill="none" fill-opacity="0.31" stroke="hsl(322, 74%, 44%)" stroke-width="3.05"  transform="translate(41.7 18.3) rotate(86.4) scale(1.38 1.96)" />
<path d="M 0.3 90.7 C 0.0 92.5, 8.0 32.0, 13.1 25.0 C 0.0 37.9, 91.5 47.5, 99.0 57.4 C 100.0 50.0, 70.0 42.9, 83.2 54.9 C 83.2 60.3, 69.7 54.8, 69.4 44.2 C 51.6 55.9, 64.7 36.7, 57.7 26.6 C 52.2 17.6, 32.1 43.8, 31.0 46.5 C 14.6 33.6, 0.0 26.5, 3.7 18.2 C 0.0 33.2, 34.2 69.3, 40.8 75.6 C 40.6 62.2, 92.3 20.4, 81.7 34.0 Z" fill="hsl(151, 70%, 62%)" fill-opacity="0.93" stroke="none" stroke-width="3.75"  transform="translate(52.4 31.2) rotate(160.2) scale(1.92 1.06)" />
<path d="M 60.4 55.0 C 63.9 70.5, 41.9 30.3, 41.8 16.1 C 28.6 0.0, 44.9 97.6, 46.4 84.2 C 61.7 95.7, 78.9 72.1, 69.7 74.7 C 52.0 71.9, 86.1 21.5, 90.7 25.6 C 95.0 31.1, 46.7 5.9, 58.3 13.7 C 44.1 32.0, 53.4 5.3, 55.4 11.3 C 58.8 30.1, 76.8 47.0, 87.7 52.2 C 98.0 63.1, 66.8 100.0, 67.1 97.5 Z" fill="hsl(242, 72%, 49%)" fill-opacity="0.41" stroke="none" stroke-width="1.62"  transform="translate(22.9 95.0) rotate(69.6) scale(1.63 1.37)" />
<path d="M 96.4 3.3 C 97.8 4.1, 57.6 45.6, 62.3 53.4 C 79.3 47.7, 89.0 44.9, 79.3 30.7 C 88.6 42.4, 75.4 29.4, 84.4 23.0 C 92.6 36.6, 29.4 51.5, 19.3 46.9 C 27.0 33.4, 74.8 72.0, 76.0 76.0 C 61.7 75.9, 27.3 99.5, 22.8 85.4 C 32.5 89.4, 100.0 99.8, 95.9 85.3 C 100.0 70.6, 100.0 3.4, 91.1 5.8 Z" fill="hsl(40, 53%, 69%)" fill-opacity="0.97" stroke="none" stroke-width="1.19" filter="url(#f1)" transform="translate(37.2 53.0) rotate(221.1) scale(0.57 1.22)" />
<rect x="14.8" y="30.2" width="48.5" height="32.8" rx="10.0" fill="hsl(151, 70%, 62%)" fill-opacity="0.74" stroke="hsl(144, 86%, 72%)" stroke-width="4.5"   />
<rect x="34.8" y="24.7" width="36.6" height="17.9" rx="9.2" fill="hsl(106, 75%, 59%)" fill-opacity="0.45" stroke="hsl(322, 74%, 44%)" stroke-width="2.6"  transform="translate(3.9 60.1) rotate(63.3) scale(1.67 0.73)" />
<rect x="25.2" y="23.9" width="47.4" height="14.5" rx="0" fill="hsl(2, 82%, 55%)" fill-opacity="0.96"   transform="translate(31.3 13.7) rotate(347.3) scale(0.87 1.10)" />
<rect x="31.2" y="44.3" width="43.1" height="21.4" rx="0" fill="none" fill-opacity="0.45"   transform="translate(71.3 95.5) rotate(47.6) scale(0.63 0.90)" />
<path d="M 14.2 15.2 C 14.4 30.8, 16.9 58.3, 24.3 64.3 C 18.5 59.9, 95.0 77.5, 91.7 91.7 C 100.0 90.0, 100.0 67.3, 97.1 79.5 C 100.0 81.8, 81.9 13.6, 90.7 15.6 C 72.4 20.5, 80.7 41.4, 84.9 39.5 C 80.9 20.0, 99.9 39.0, 87.4 48.6 C 80.3 50.5, 100.0 78.1, 97.9 74.0 C 100.0 83.4, 33.8 35.3, 21.1 30.2 C 2.8 22.8, 79.5 76.7, 77.4 68.1 C 77.0 82.3, 74.7 6.0, 81.3 6.6 Z" fill="hsl(242, 72%, 49%)" fill-opacity="0.27" stroke="none" stroke-width="2.66"  transform="translate(76.2 39.9) rotate(301.2) scale(1.62 1.77)" />
<path d="M 83.6 80.7 C 82.5 79.3, 21.9 55.8, 14.8 47.5 C 17.7 33.5, 79.6 50.6, 74.2 58.2 C 78.5 75.9, 59.6 58.6, 46.8 68.8 C 29.3 56.2, 66.7 21.3, 76.3 10.5 C 65.6 26.8, 70.5 22.4, 58.3 12.7 C 49.9 0.2, 83.9 16.8, 94.4 6.4 C 93.0 17.8, 23.5 86.5, 20.7 81.8 C 0.8 63.2, 53.6 56.8, 47.1 71.0 Z" fill="hsl(2, 82%, 55%)" fill-opacity="0.35" stroke="none" stroke-width="3.25"   />
<path d="M 76.6 55.3 C 84.4 37.2, 38.6 81.6, 26.7 67.8 C 13.0 61.3, 71.6 20.9, 75.6 29.7 C 60.4 33.0, 16.0 6.4, 21.7 9.9 C 38.2 0.0, 63.1 29.7, 51.9 38.6 C 64.5 58.6, 10.4 0.0, 4.8 2.0 C 24.2 0.0, 50.4 28.6, 62.3 23.6 Z" fill="none" fill-opacity="0.43" stroke="hsl(86, 72%, 68%)" stroke-width="0.92"  transform="translate(21.4 37.3) rotate(272.7) scale(0.55 0.65)" />
<path d="M 45.8 7.6 C 41.9 0.0, 49.1 16.8, 41.7 28.6 C 40.7 25.9, 30.7 21.7, 33.4 25.7 C 14.9 21.0, 85.1 54.8, 89.1 49.8 C 93.9 55.0, 10.0 19.5, 0.8 14.5 C 0.0 33.8, 96.0 46.6, 93.2 52.1 C 100.0 48.0, 11.0 62.5, 11.7 73.2 C 10.5 77.2, 0.0 1.2, 0.8 5.2 C 15.1 16.9, 84.3 74.6, 69.7 76.9 C 53.0 75.1, 53.0 53.7, 67.9 43.5 C 68.1 45.9, 80.7 33.2, 92.3 41.2 Z" fill="hsl(2, 82%, 55%)" fill-opacity="0.59" stroke="none" stroke-width="5.09"  transform="translate(13.2 42.5) rotate(268.8) scale(1.61 0.98)" />
<circle cx="57.6" cy="37.0" r="5.4" fill="url(#g0)" fill-opacity="0.72"   />
<rect x="52.8" y="9.9" width="39.3" height="17.4" rx="0" fill="none" fill-opacity="0.82"   transform="translate(79.8 48.7) rotate(307.2) scale(0.73 1.40)" />
<path d="M 6.9 92.3 C 20.2 78.5, 9.0 100.0, 16.2 99.4 C 31.8 100.0, 62.0 23.6, 58.2 37.3 C 41.5 30.5, 73.7 76.4, 63.5 69.7 C 50.8 57.6, 60.9 74.6, 70.6 64.0 C 66.5 69.0, 44.6 18.1, 49.3 29.8 C 55.2 24.9, 21.7 68.4, 34.1 73.7 C 47.8 58.8, 59.4 85.6, 53.0 70.7 C 35.5 61.5, 8.3 46.1, 3.9 34.7 C 0.0 53.1, 85.7 24.9, 78.5 21.8 C 77.9 28.0, 50.8 77.9, 65.2 90.5 Z" fill="hsl(106, 75%, 59%)" fill-opacity="0.26" stroke="none" stroke-width="1.60"  transform="translate(22.7 72.2) rotate(180.4) scale(0.76 1.02)" />
<path d="M 12.7 18.2 C 19.9 0.0, 15.0 62.8, 19.0 72.0 C 36.2 87.0, 52.6 54.8, 65.8 57.2 C 77.4 63.1, 52.7 31.8, 49.3 40.9 C 35.4 51.7, 15.5 29.5, 18.3 22.9 C 33.2 13.5, 20.8 57.4, 13.1 51.8 C 20.3 67.8, 57.0 26.4, 55.9 37.0 C 40.7 27.9, 72.2 32.8, 71.4 44.5 C 81.4 41.6, 64.1 3.4, 62.6 17.1 C 52.9 27.4, 16.5 36.7, 31.0 35.2 Z" fill="none" fill-opacity="0.54" stroke="hsl(40, 53%, 69%)" stroke-width="4.50"  transform="translate(12.7 71.0) rotate(60.3) scale(1.33 1.81)" />
<path d="M 31.5 66.5 C 48.4 64.9, 74.9 42.7, 70.3 51.1 C 55.7 31.6, 56.7 41.8, 48.2 43.1 C 65.0 45.2, 46.9 82.5, 54.9 75.5 C 46.8 57.5, 55.8 71.7, 64.1 68.0 C 62.4 48.3, 18.7 60.5, 10.8 47.3 C 0.0 55.0, 92.2 37.8, 91.7 41.4 Z" fill="none" fill-opacity="0.56" stroke="hsl(40, 53%, 69%)" stroke-width="4.18"  transform="translate(78.4 30.3) rotate(187.0) scale(1.26 0.79)" />
<path d="M 14.2 10.7 C 8.3 0.0, 62.7 26.5, 66.7 21.0 C 55.4 11.0, 0.1 61.8, 5.6 52.2 C 0.0 48.4, 94.4 45.3, 86.6 58.2 C 82.0 46.9, 52.8 100.0, 43.5 97.9 C 60.9 100.0, 0.0 86.2, 4.0 93.6 C 0.0 100.0, 58.4 35.7, 48.4 46.7 C 29.1 49.7, 0.0 91.0, 1.0 91.5 C 19.5 88.4, 72.2 88.7, 81.6 86.8 C 90.9 82.9, 22.5 70.3, 20.7 72.6 Z" fill="hsl(322, 74%, 44%)" fill-opacity="0.91" stroke="none" stroke-width="1.36" filter="url(#f1)" transform="translate(70.7 16.9) rotate(27.0) scale(0.80 1.66)" />
<rect x="42.2" y="9.8" width="34.3" height="24.8" rx="17.5" fill="hsl(183, 71%, 60%)" fill-opacity="0.41"    />
<rect x="61.5" y="10.6" width="29.2" height="15.7" rx="0" fill="none" fill-opacity="0.31" stroke="hsl(183, 71%, 60%)" stroke-width="2.6" filter="url(#f1)"  />
<path d="M 40.9 30.0 C 40.5 21.4, 19.0 42.6, 26.2 43.2 C 17.6 37.0, 46.5 35.4, 37.7 50.1 C 48.0 67.9, 82.6 47.8, 97.1 54.9 C 93.0 51.5, 19.0 0.0, 17.4 0.9 C 34.7 0.0, 77.9 100.0, 88.0 94.6 C 75.8 100.0, 78.1 78.6, 66.4 76.2 C 51.4 60.7, 19.2 91.2, 15.8 89.2 C 30.1 100.0, 60.6 99.9, 67.6 99.5 Z" fill="hsl(40, 53%, 69%)" fill-opacity="0.44" stroke="none" stroke-width="2.56" filter="url(#f1)" transform="translate(98.0 83.2) rotate(70.7) scale(1.05 1.68)" />
<path d="M 96.0 76.9 C 100.0 89.8, 93.3 3.6, 84.7 1.4 C 96.6 1.6, 24.5 44.4, 38.1 41.0 C 42.9 49.8, 87.2 56.4, 93.1 68.7 C 92.3 69.8, 54.2 46.8, 60.1 37.1 C 53.3 28.7, 49.2 66.6, 41.3 73.7 C 21.3 85.1, 97.6 51.4, 87.7 64.5 C 84.1 57.0, 21.4 92.8, 21.6 97.9 C 20.5 82.8, 56.1 16.9, 60.0 13.4 C 53.3 30.0, 32.6 38.3, 46.9 38.0 Z" fill="none" fill-opacity="0.25" stroke="hsl(40, 53%, 69%)" stroke-width="1.76"   />
<rect x="43.3" y="34.0" width="44.0" height="15.6" rx="0" fill="none" fill-opacity="0.27"    />
<rect x="12.7" y="29.4" width="39.6" height="22.9" rx="16.8" fill="hsl(183, 71%, 60%)" fill-opacity="0.41" stroke="hsl(242, 72%, 49%)" stroke-width="3.9"  transform="translate(21.6 10.2) rotate(13.5) scale(1.17 1.84)" />
<path d="M 80.2 61.9 C 89.3 72.7, 80.9 72.5, 75.7 66.6 C 63.4 61.3, 19.2 1.8, 14.5 5.3 C 20.7 15.4, 42.4 36.2, 39.1 42.5 C 24.6 37.5, 68.4 26.3, 59.7 31.5 C 56.2 16.5, 38.5 78.9, 28.8 81.9 C 41.4 75.7, 49.3 92.0, 47.6 92.9 C 58.3 79.9, 37.9 38.3, 42.5 51.2 C 53.3 61.7, 74.1 34.3, 72.1 20.5 C 65.4 9.3, 28.6 96.2, 31.9 82.0 C 15.8 72.6, 9.6 1.9, 8.4 16.4 Z" fill="hsl(106, 75%, 59%)" fill-opacity="0.79" stroke="none" stroke-width="3.41" filter="url(#f1)" transform="translate(3.2 64.0) rotate(74.5) scale(1.12 1.30)" />
<path d="M 64.3 99.1 C 51.4 94.7, 62.4 76.7, 73.7 83.1 C 91.8 85.0, 21.3 49.4, 14.5 48.1 C 5.9 54.4, 92.2 78.0, 86.2 74.9 C 100.0 90.3, 37.0 20.4, 24.7 30.8 C 15.2 43.8, 57.1 0.0, 55.1 3.2 C 67.7 0.0, 84.2 62.9, 77.9 49.1 Z" fill="hsl(2, 82%, 55%)" fill-opacity="0.99" stroke="none" stroke-width="0.87"  transform="translate(88.6 35.4) rotate(124.1) scale(1.14 1.85)" />
<path d="M 29.5 79.1 C 37.1 72.4, 51.8 76.8, 46.6 70.7 C 64.2 65.3, 12.9 41.0, 15.2 26.1 C 15.7 7.1, 27.0 33.4, 24.6 36.7 C 30.7 20.3, 70.3 47.7, 59.4 33.1 C 41.6 33.9, 89.2 100.0, 79.9 90.6 C 62.3 100.0, 9.8 67.2, 23.1 65.5 Z" fill="hsl(86, 72%, 68%)" fill-opacity="0.29" stroke="none" stroke-width="5.03"  transform="translate(32.6 65.0) rotate(272.5) scale(1.17 1.17)" />
<rect x="40.4" y="21.0" width="34.8" height="19.7" rx="8.5" fill="hsl(151, 70%, 62%)" fill-opacity="0.34" stroke="hsl(104, 72%, 65%)" stroke-width="3.5"  transform="translate(30.1 73.5) rotate(241.5) scale(1.25 1.96)" />
<rect x="32.7" y="57.7" width="36.5" height="33.3" rx="15.9" fill="hsl(151, 70%, 62%)" fill-opacity="0.63" stroke="hsl(144, 86%, 72%)" stroke-width="3.0" filter="url(#f1)" transform="translate(46.2 84.7) rotate(228.6) scale(1.58 1.88)" />
<rect x="43.3" y="17.6" width="25.9" height="20.1" rx="0" fill="none" fill-opacity="0.38"   transform="translate(51.0 52.4) rotate(325.2) scale(1.26 1.60)" />
<path d="M 43.7 7.1 C 48.0 0.0, 86.0 0.0, 95.9 3.5 C 100.0 5.7, 100.0 25.9, 92.4 26.9 C 100.0 31.0, 58.7 11.4, 60.3 8.5 C 78.8 15.2, 69.9 32.7, 79.3 23.0 C 63.6 8.4, 87.0 20.9, 83.0 15.3 C 90.8 22.1, 27.0 26.7, 21.4 12.1 C 30.0 27.2, 53.4 17.1, 50.1 25.3 C 56.1 28.6, 61.8 0.0, 65.6 6.9 C 55.6 0.0, 98.1 73.9, 85.1 88.3 " fill="hsl(290, 83%, 63%)" fill-opacity="0.72" stroke="none" stroke-width="1.26"  transform="translate(52.2 93.0) rotate(301.3) scale(1.77 1.88)" />
<path d="M 56.2 16.7 C 53.9 0.0, 28.1 87.3, 17.6 83.0 C 21.4 90.1, 47.4 32.2, 60.1 35.1 C 46.9 40.9, 43.1 85.7, 34.1 87.0 C 45.6 100.0, 24.7 79.4, 18.8 70.6 C 17.9 73.1, 19.4 9.6, 10.9 4.7 C 4.0 17.1, 91.0 54.8, 79.7 67.4 C 62.3 70.8, 99.9 63.1, 92.5 62.0 C 99.1 45.6, 84.3 100.0, 77.2 95.6 C 71.9 100.0, 9.0 78.9, 3.9 89.3 Z" fill="none" fill-opacity="0.51" stroke="hsl(104, 72%, 65%)" stroke-width="1.71"  transform="translate(0.4 75.9) rotate(215.7) scale(1.32 1.64)" />
<circle cx="52.9" cy="26.7" r="10.4" fill="url(#g0)" fill-opacity="0.64"  transform="translate(64.1 47.6) rotate(172.8) scale(1.38 1.11)" />
<path d="M 98.0 78.6 C 100.0 81.5, 76.1 39.2, 62.4 35.6 C 71.1 33.3, 0.0 81.4, 5.8 91.4 C 24.6 75.5, 89.3 65.6, 90.3 56.8 C 73.9 38.5, 41.7 92.7, 53.8 91.0 C 56.0 77.1, 1.0 7.6, 6.5 19.5 C 19.1 36.3, 47.9 48.5, 46.5 41.5 C 49.0 59.3, 20.7 70.7, 17.2 57.3 Z" fill="hsl(183, 71%, 60%)" fill-opacity="0.77" stroke="none" stroke-width="1.35"  transform="translate(11.2 57.3) rotate(26.7) scale(1.28 1.24)" />
<rect x="9.5" y="30.3" width="32.1" height="11.6" rx="17.1" fill="none" fill-opacity="0.20"   transform="translate(45.5 61.4) rotate(224.2) scale(1.17 1.18)" />
<circle cx="7.2" cy="74.3" r="9.0" fill="hsl(86, 72%, 68%)" fill-opacity="0.62"   />
<rect x="10.6" y="70.1" width="31.1" height="10.3" rx="16.8" fill="none" fill-opacity="0.54"  filter="url(#f1)" transform="translate(49.8 94.2) rotate(76.1) scale(1.79 0.52)" />
<path d="M 8.8 48.8 C 14.3 32.5, 54.0 56.7, 65.3 65.0 C 58.4 50.3, 71.5 58.4, 60.5 65.1 C 77.0 58.7, 86.9 63.9, 83.6 66.6 C 67.4 84.8, 59.1 5.8, 53.9 16.0 C 34.0 2.1, 62.5 49.0, 48.8 51.0 C 55.4 68.8, 0.0 36.3, 8.1 30.3 C 0.0 37.8, 66.4 98.7, 63.3 92.0 Z" fill="hsl(83, 65%, 44%)" fill-opacity="0.41" stroke="none" stroke-width="0.81"  transform="translate(47.3 11.7) rotate(334.4) scale(0.87 1.05)" />
<path d="M 47.2 12.0 C 58.5 32.0, 46.2 78.0, 51.3 68.1 C 42.2 67.6, 61.9 45.9, 66.3 52.5 C 60.1 67.1, 46.3 73.4, 49.6 71.0 C 47.0 66.7, 7.0 53.9, 0.2 66.5 C 12.5 69.9, 63.3 0.0, 60.0 1.0 C 62.9 17.1, 43.0 67.6, 39.3 61.4 C 50.5 60.2, 0.0 84.0, 5.2 85.9 C 20.5 76.6, 0.0 53.0, 0.8 43.9 C 18.5 33.5, 81.2 74.6, 88.4 72.5 Z" fill="hsl(290, 83%, 63%)" fill-opacity="0.51" stroke="none" stroke-width="3.81" filter="url(#f1)" transform="translate(68.6 1.6) rotate(89.0) scale(0.78 0.97)" />
<rect x="77.4" y="48.2" width="20.1" height="12.7" rx="3.6" fill="hsl(2, 82%, 55%)" fill-opacity="0.30" stroke="hsl(86, 72%, 68%)" stroke-width="3.2"  transform="translate(84.5 11.2) rotate(304.4) scale(1.95 0.98)" />
<circle cx="24.4" cy="65.2" r="12.8" fill="url(#g1)" fill-opacity="0.54"  transform="translate(91.0 96.2) rotate(216.8) scale(0.70 1.88)" />
<rect x="54.8" y="22.3" width="28.2" height="34.0" rx="0.8" fill="hsl(83, 65%, 44%)" fill-opacity="0.27" stroke="hsl(290, 83%, 63%)" stroke-width="2.4"   />
<path d="M 38.5 4.4 C 47.2 2.1, 0.0 67.8, 2.9 56.5 C 0.0 39.4, 7.5 100.0, 13.1 91.6 C 12.8 78.9, 22.8 54.2, 26.1 52.2 C 20.3 59.3, 5.2 15.4, 12.2 18.1 C 29.2 22.0, 39.9 65.4, 25.6 57.3 C 45.4 66.7, 12.9 43.9, 1.1 38.2 C 13.4 18.6, 34.0 56.3, 31.3 51.0 C 18.0 51.1, 29.5 45.8, 15.7 33.4 Z" fill="hsl(86, 72%, 68%)" fill-opacity="0.55" stroke="none" stroke-width="1.58"  transform="translate(14.5 44.6) rotate(19.0) scale(1.31 1.76)" />
<path d="M 16.5 94.0 C 16.9 100.0, 45.8 23.9, 38.5 29.9 C 57.0 29.0, 82.7 43.5, 94.3 29.2 C 100.0 28.4, 29.6 65.7, 27.7 61.8 C 45.1 46.5, 64.3 15.3, 51.0 11.5 C 66.7 4.1, 84.6 57.8, 92.7 54.3 C 100.0 66.8, 89.6 59.5, 91.2 68.6 C 93.4 55.8, 34.7 27.3, 43.7 12.5 " fill="hsl(40, 53%, 69%)" fill-opacity="0.40" stroke="none" stroke-width="4.95" filter="url(#f1)" transform="translate(50.7 99.0) rotate(77.9) scale(1.41 0.60)" />
<rect x="45.0" y="17.1" width="24.5" height="17.7" rx="0" fill="none" fill-opacity="0.57"   transform="translate(34.9 59.0) rotate(40.7) scale(1.61 0.64)" />
<circle cx="72.3" cy="18.1" r="4.2" fill="hsl(151, 70%, 62%)" fill-opacity="0.71"  transform="translate(71.3 2.0) rotate(219.1) scale(0.53 1.22)" />
<path d="M 90.4 19.6 C 98.0 0.0, 100.0 99.5, 94.7 93.6 C 85.0 100.0, 89.3 81.1, 93.6 86.9 C 91.1 77.4, 30.1 83.7, 37.9 90.7 C 56.3 87.5, 22.3 91.6, 36.8 94.4 C 24.4 99.7, 58.8 6.5, 50.1 16.3 C 35.3 18.3, 12.5 54.0, 7.5 62.6 C 12.5 45.3, 14.5 40.1, 22.8 25.9 C 10.6 18.7, 43.9 32.6, 37.0 21.2 C 32.4 20.0, 53.7 36.2, 40.6 47.5 Z" fill="none" fill-opacity="0.57" stroke="hsl(2, 82%, 55%)" stroke-width="1.16"  transform="translate(76.9 47.4) rotate(354.2) scale(1.60 0.94)" />
<path d="M 25.7 42.5 C 13.3 24.5, 45.1 73.0, 32.9 60.1 C 28.5 68.2, 4.0 83.9, 11.1 75.9 C 24.7 62.5, 86.2 4.1, 88.3 11.7 C 85.5 8.4, 63.2 95.9, 52.0 89.8 C 36.7 76.0, 22.5 59.5, 37.5 53.3 C 36.7 47.2, 53.5 10.6, 38.9 12.6 " fill="hsl(290, 83%, 63%)" fill-opacity="0.76" stroke="none" stroke-width="1.04"  transform="translate(61.3 2.1) rotate(161.0) scale(1.01 1.65)" />
<path d="M 4.3 92.2 C 18.9 96.4, 51.3 74.9, 61.7 61.2 C 66.4 50.4, 50.6 54.8, 38.7 42.2 C 35.6 55.0, 56.4 0.0, 51.4 5.3 C 45.1 0.0, 81.5 63.1, 68.8 62.1 C 61.9 52.8, 78.4 76.1, 73.3 78.4 C 79.4 78.9, 34.9 100.0, 37.6 97.2 C 28.2 95.0, 0.0 83.2, 8.6 83.0 C 24.3 78.3, 76.8 81.7, 73.7 88.5 C 72.4 83.4, 12.9 0.0, 5.8 6.3 Z" fill="none" fill-opacity="0.42" stroke="hsl(242, 72%, 49%)" stroke-width="2.56"  transform="translate(68.3 69.1) rotate(164.0) scale(1.40 1.46)" />
<path d="M 94.0 13.2 C 88.9 0.0, 3.7 21.0, 8.5 16.9 C 0.0 14.7, 82.8 59.9, 84.5 61.5 C 78.4 79.7, 81.1 100.0, 66.5 99.4 C 63.1 91.8, 24.3 77.6, 29.8 68.1 C 49.2 48.5, 77.2 60.6, 66.8 67.7 C 69.7 47.8, 77.4 17.9, 78.4 15.2 C 81.3 26.2, 27.1 74.5, 18.8 63.4 C 27.2 74.9, 98.7 44.8, 97.5 41.7 C 93.2 21.9, 7.2 76.8, 12.0 70.2 " fill="hsl(183, 71%, 60%)" fill-opacity="0.32" stroke="none" stroke-width="3.31"  transform="translate(51.3 77.0) rotate(312.3) scale(1.61 1.07)" />
<rect x="54.2" y="25.6" width="30.6" height="25.3" rx="0" fill="none" fill-opacity="0.60"   transform="translate(10.2 20.8) rotate(292.7) scale(1.61 1.14)" />
<path d="M 1.2 76.1 C 12.0 91.6, 56.1 41.2, 59.1 49.2 C 62.1 41.9, 51.1 1.4, 44.4 13.6 C 32.2 10.5, 17.4 64.8, 3.1 52.1 C 0.0 33.2, 27.3 100.0, 17.8 97.8 C 21.1 94.4, 88.7 50.0, 80.1 50.0 C 94.9 51.8, 34.1 39.9, 41.8 51.3 Z" fill="hsl(83, 65%, 44%)" fill-opacity="0.76" stroke="none" stroke-width="3.60"  transform="translate(39.1 69.9) rotate(359.2) scale(1.18 0.93)" />
<circle cx="71.1" cy="49.1" r="0.3" fill="hsl(151, 70%, 62%)" fill-opacity="0.79"  transform="translate(11.6 99.2) rotate(324.0) scale(1.78 1.93)" />
<path d="M 97.9 21.6 C 81.9 14.2, 15.4 27.7, 17.9 33.8 C 18.2 28.4, 45.6 38.9, 44.5 44.7 C 38.5 60.4, 0.0 96.3, 3.5 88.6 C 0.0 87.0, 74.9 17.9, 83.9 3.3 C 96.6 0.0, 90.2 25.4, 99.1 34.6 C 89.4 38.9, 54.4 54.8, 68.3 48.2 C 78.5 61.5, 39.8 29.5, 34.9 16.8 Z" fill="hsl(2, 82%, 55%)" fill-opacity="0.78" stroke="none" stroke-width="2.00" filter="url(#f1)" transform="translate(81.0 9.1) rotate(352.9) scale(1.67 1.57)" />
<path d="M 38.0 94.9 C 52.7 100.0, 50.5 0.0, 40.1 13.0 C 20.3 2.2, 55.7 4.0, 55.0 1.6 C 48.9 0.0, 7.8 22.6, 19.9 34.4 C 24.3 49.9, 20.8 33.1, 24.2 23.9 C 18.2 34.6, 83.0 100.0, 73.3 99.1 C 56.6 97.8, 53.1 85.5, 52.4 84.3 C 55.5 68.8, 100.0 100.0, 91.5 94.1 C 92.2 99.4, 52.0 38.7, 42.7 31.9 Z" fill="none" fill-opacity="0.36" stroke="hsl(86, 72%, 68%)" stroke-width="3.06"  transform="translate(44.8 26.7) rotate(90.0) scale(0.58 1.05)" />
<path d="M 1.6 23.3 C 9.4 27.7, 29.9 15.9, 43.0 11.9 C 35.2 10.5, 69.2 57.5, 73.0 63.9 C 53.7 67.6, 28.2 100.0, 42.3 94.6 C 41.0 94.3, 9.5 32.7, 11.5 22.4 C 31.0 3.5, 39.2 100.0, 40.8 99.1 C 47.4 92.5, 7.6 45.7, 17.1 59.3 Z" fill="none" fill-opacity="0.31" stroke="hsl(183, 71%, 60%)" stroke-width="1.70"  transform="translate(34.4 18.4) rotate(199.5) scale(1.27 1.93)" />
<path d="M 86.4 34.8 C 83.4 50.9, 48.4 2.5, 58.2 9.0 C 73.0 0.0, 63.0 30.7, 59.5 19.4 C 49.6 7.0, 17.6 19.3, 24.2 23.3 C 6.3 42.1, 49.6 41.9, 37.9 55.2 C 32.0 66.6, 64.4 55.3, 60.2 44.3 C 48.0 34.4, 31.7 71.7, 43.3 81.1 C 55.3 76.8, 81.9 67.8, 72.2 55.2 C 75.1 64.1, 33.8 29.3, 36.8 27.7 Z" fill="none" fill-opacity="0.93" stroke="hsl(104, 72%, 65%)" stroke-width="1.15"  transform="translate(37.7 18.0) rotate(308.6) scale(1.89 1.08)" />
<path d="M 8.6 85.0 C 20.1 71.4, 1.9 71.3, 13.5 66.1 C 29.2 59.4, 30.6 63.5, 45.6 66.1 C 37.6 80.1, 78.2 38.4, 93.0 42.7 C 100.0 28.5, 1.3 46.5, 6.4 59.1 C 0.0 67.3, 57.4 80.7, 50.2 67.2 C 52.1 65.3, 100.0 49.0, 99.9 59.7 Z" fill="none" fill-opacity="0.80" stroke="hsl(40, 53%, 69%)" stroke-width="3.07" filter="url(#f1)" transform="translate(3.9 57.7) rotate(311.4) scale(1.17 1.24)" />
<circle cx="18.2" cy="48.8" r="1.9" fill="url(#g2)" fill-opacity="0.93" filter="url(#f1)" transform="translate(36.6 38.5) rotate(29.5) scale(1.55 1.41)" />
<circle cx="35.7" cy="22.2" r="5.4" fill="hsl(86, 72%, 68%)" fill-opacity="0.45"   />
<path d="M 68.7 74.0 C 69.4 60.6, 47.7 23.9, 35.7 10.4 C 25.8 0.0, 22.6 50.2, 33.5 64.5 C 30.3 49.2, 6.5 47.4, 20.5 34.4 C 10.2 28.5, 81.8 37.2, 68.4 39.6 C 55.4 55.5, 100.0 76.7, 96.6 77.7 C 91.9 86.4, 82.4 16.9, 89.4 30.3 C 72.9 38.9, 7.7 34.0, 9.5 37.9 Z" fill="none" fill-opacity="0.56" stroke="hsl(2, 82%, 55%)" stroke-width="2.49"  transform="translate(56.0 92.0) rotate(276.2) scale(0.82 1.20)" />
<path d="M 27.1 46.8 C 23.5 35.6, 5.5 5.8, 18.1 14.2 C 24.4 14.1, 51.0 71.0, 57.6 64.1 C 39.0 62.0, 81.2 45.2, 85.0 37.0 C 77.3 36.5, 78.3 0.0, 74.0 5.4 C 90.8 15.6, 95.6 72.7, 95.5 61.4 C 100.0 44.1, 89.0 39.9, 97.7 48.3 C 80.4 30.7, 64.6 79.3, 61.9 87.0 C 80.0 100.0, 24.1 77.4, 38.3 68.0 Z" fill="hsl(2, 82%, 55%)" fill-opacity="0.65" stroke="none" stroke-width="0.82"  transform="translate(33.7 84.6) rotate(291.6) scale(0.84 0.82)" />
<rect x="57.4" y="53.3" width="27.9" height="29.3" rx="0" fill="hsl(86, 72%, 68%)" fill-opacity="0.34"    />
<path d="M 3.5 5.6 C 15.3 22.8, 12.5 12.1, 10.7 0.9 C 0.0 0.0, 43.7 61.6, 34.9 50.6 C 19.3 50.4, 63.3 24.3, 67.7 14.1 C 80.8 10.8, 97.1 20.8, 91.2 20.3 C 100.0 26.8, 76.3 59.4, 69.0 45.6 C 81.2 51.3, 92.2 14.2, 98.8 2.7 C 98.5 17.8, 42.0 100.0, 49.2 93.8 C 51.7 100.0, 16.8 63.3, 30.3 72.2 C 21.7 86.6, 51.9 73.4, 63.3 84.8 C 59.7 74.4, 22.0 65.2, 26.7 61.6 Z" fill="hsl(2, 82%, 55%)" fill-opacity="0.81" stroke="none" stroke-width="2.45"  transform="translate(45.7 27.9) rotate(180.0) scale(0.67 1.99)" />
<path d="M 97.4 74.2 C 100.0 74.4, 38.6 49.5, 41.7 39.5 C 46.1 48.1, 53.4 81.4, 43.5 73.0 C 53.4 61.8, 72.8 100.0, 70.1 92.1 C 54.0 74.7, 49.7 100.0, 54.3 94.9 C 34.4 87.7, 35.8 7.2, 29.9 5.1 C 23.6 0.0, 45.1 66.8, 46.4 81.7 C 40.8 65.7, 52.9 52.6, 38.0 67.0 C 29.4 80.7, 57.4 47.4, 43.3 38.8 C 30.9 46.1, 62.5 60.0, 59.8 47.0 Z" fill="hsl(183, 71%, 60%)" fill-opacity="0.73" stroke="none" stroke-width="4.91"  transform="translate(17.3 37.0) rotate(52.8) scale(1.31 1.58)" />
<rect x="52.2" y="44.7" width="21.5" height="38.1" rx="6.4" fill="none" fill-opacity="0.71" stroke="hsl(144, 86%, 72%)" stroke-width="4.0" filter="url(#f1)" transform="translate(34.3 27.1) rotate(281.0) scale(1.95 0.92)" />
<rect x="0.9" y="51.1" width="29.9" height="20.7" rx="0" fill="hsl(104, 72%, 65%)" fill-opacity="0.57"   transform="translate(67.4 66.6) rotate(153.7) scale(1.97 1.56)" />
<path d="M 25.2 25.6 C 39.2 29.6, 49.7 67.9, 61.6 69.9 C 49.5 53.4, 37.8 61.3, 50.7 50.7 C 43.0 64.5, 91.6 94.4, 83.3 95.1 C 78.3 100.0, 99.0 12.6, 94.0 20.0 C 86.5 20.1, 19.4 100.0, 27.7 98.9 C 12.4 82.5, 29.9 0.0, 30.0 4.6 Z" fill="hsl(83, 65%, 44%)" fill-opacity="0.85" stroke="none" stroke-width="1.74" filter="url(#f1)" transform="translate(32.1 50.6) rotate(184.5) scale(0.59 0.79)" />
<path d="M 14.0 42.0 C 13.5 35.8, 85.4 76.4, 72.2 67.0 C 68.0 73.5, 37.1 0.0, 30.3 4.7 C 21.5 20.9, 1.8 26.9, 7.1 29.4 C 0.0 9.4, 59.4 54.7, 61.8 49.1 C 47.0 51.5, 28.4 8.9, 35.9 5.4 C 54.1 0.0, 24.3 27.8, 21.8 34.5 C 36.6 49.5, 68.5 9.3, 78.5 12.2 C 82.2 26.1, 100.0 36.7, 99.6 44.0 C 84.8 42.3, 48.1 91.6, 57.4 82.0 Z" fill="none" fill-opacity="0.68" stroke="hsl(290, 83%, 63%)" stroke-width="1.18"  transform="translate(52.6 31.8) rotate(150.8) scale(1.75 0.58)" />
<path d="M 94.4 18.8 C 100.0 35.2, 100.0 47.5, 93.8 61.1 C 85.4 61.3, 100.0 94.3, 98.5 94.6 C 91.7 79.3, 27.5 53.5, 15.7 55.5 C 1.8 68.3, 17.2 54.6, 24.5 43.5 C 32.1 24.5, 66.8 84.3, 78.5 88.6 C 64.4 73.5, 83.4 80.3, 78.3 65.8 Z" fill="hsl(86, 72%, 68%)" fill-opacity="0.62" stroke="none" stroke-width="1.87"  transform="translate(62.3 97.1) rotate(92.5) scale(0.58 0.95)" />
<rect x="39.8" y="43.5" width="38.1" height="36.1" rx="7.8" fill="hsl(106, 75%, 59%)" fill-opacity="0.79" stroke="hsl(322, 74%, 44%)" stroke-width="1.8"  transform="translate(29.6 34.6) rotate(8.7) scale(1.67 1.21)" />
<rect x="11.7" y="26.8" width="20.7" height="12.5" rx="0" fill="none" fill-opacity="0.75" stroke="hsl(86, 72%, 68%)" stroke-width="2.3"  transform="translate(56.6 58.8) rotate(265.2) scale(1.34 1.67)" />
<path d="M 35.2 11.7 C 21.2 0.0, 25.8 62.7, 32.1 52.4 C 49.4 64.2, 60.1 48.9, 58.5 58.7 C 56.8 77.3, 27.8 41.9, 17.4 45.0 C 30.2 44.7, 69.6 15.6, 75.6 2.5 C 88.6 8.9, 61.8 24.7, 73.4 20.2 C 87.0 10.0, 0.0 65.3, 3.4 69.5 " fill="none" fill-opacity="0.57" stroke="hsl(2, 82%, 55%)" stroke-width="1.14"  transform="translate(59.3 96.0) rotate(263.5) scale(1.17 1.88)" />
<path d="M 83.0 4.9 C 100.0 0.0, 23.7 73.1, 16.3 72.3 C 29.7 89.6, 21.3 40.1, 22.4 42.3 C 35.1 37.1, 0.0 100.0, 6.1 98.8 C 16.4 100.0, 48.1 52.9, 52.3 43.7 C 52.4 58.0, 33.0 6.8, 40.4 7.7 C 49.6 0.0, 91.8 70.8, 99.6 60.9 Z" fill="none" fill-opacity="0.60" stroke="hsl(183, 71%, 60%)" stroke-width="5.03"  transform="translate(13.9 27.0) rotate(6.3) scale(1.52 1.78)" />
<path d="M 33.8 87.2 C 20.7 100.0, 91.3 66.6, 79.1 53.4 C 91.6 65.0, 60.3 35.7, 53.1 36.1 C 59.0 29.7, 80.1 78.2, 74.0 81.0 C 83.9 91.4, 55.3 59.2, 51.3 50.8 C 40.1 36.8, 82.0 60.0, 95.8 54.7 C 98.6 58.6, 71.9 74.3, 86.4 88.2 C 78.8 72.0, 48.5 47.4, 46.6 40.3 C 56.8 41.8, 15.7 80.2, 8.6 80.3 C 0.0 83.5, 34.7 23.7, 25.7 15.9 C 27.5 0.0, 40.9 14.1, 55.2 27.2 Z" fill="none" fill-opacity="0.50" stroke="hsl(40, 53%, 69%)" stroke-width="1.98"  transform="translate(17.6 22.2) rotate(211.5) scale(1.20 0.52)" />
<path d="M 31.6 31.4 C 17.2 20.1, 30.3 91.2, 35.3 79.5 C 32.4 64.0, 89.2 98.4, 96.4 89.1 C 97.9 100.0, 44.7 64.7, 39.0 70.0 C 28.8 66.1, 49.7 100.0, 60.2 92.9 C 43.1 100.0, 39.5 5.0, 50.5 7.0 C 35.9 26.0, 91.4 24.4, 84.3 10.4 C 66.1 23.8, 47.0 29.8, 54.9 27.1 C 74.9 33.9, 83.6 76.2, 88.3 81.6 Z" fill="none" fill-opacity="0.98" stroke="hsl(183, 71%, 60%)" stroke-width="4.12"  transform="translate(39.3 19.0) rotate(258.7) scale(0.80 1.62)" />
<rect x="35.5" y="1.1" width="26.1" height="30.5" rx="5.5" fill="hsl(83, 65%, 44%)" fill-opacity="0.88"   transform="translate(36.7 59.3) rotate(272.1) scale(0.73 1.06)" />
<path d="M 47.6 50.5 C 52.1 65.8, 39.9 78.7, 30.8 79.2 C 26.9 69.0, 61.9 80.3, 65.3 86.4 C 55.1 100.0, 17.5 8.1, 31.9 5.1 C 41.0 0.0, 17.6 45.1, 7.7 58.7 C 0.0 43.4, 0.0 46.4, 5.2 37.7 C 9.1 32.7, 21.9 39.6, 7.5 53.9 C 0.0 57.0, 66.5 87.4, 65.2 78.4 C 76.3 71.3, 0.0 75.7, 9.4 82.6 C 16.2 76.5, 37.7 75.3, 28.6 66.3 C 34.1 84.4, 61.9 9.6, 71.1 1.6 Z" fill="hsl(144, 86%, 72%)" fill-opacity="0.73" stroke="none" stroke-width="3.22"  transform="translate(15.4 93.9) rotate(353.6) scale(1.87 1.54)" />
<path d="M 38.0 29.2 C 23.3 17.3, 62.1 86.6, 73.2 90.6 C 86.4 97.5, 100.0 10.4, 95.1 17.7 C 100.0 27.4, 95.6 85.4, 96.1 81.7 C 98.8 82.1, 22.7 29.2, 23.1 15.7 C 3.2 0.0, 38.4 80.4, 52.4 77.0 C 39.0 69.8, 79.6 9.1, 86.7 19.5 Z" fill="hsl(2, 82%, 55%)" fill-opacity="0.39" stroke="none" stroke-width="5.29"  transform="translate(52.2 42.8) rotate(340.5) scale(0.59 1.59)" />
<path d="M 59.5 98.3 C 62.4 100.0, 58.5 87.8, 57.3 73.3 C 57.5 76.3, 61.7 100.0, 65.9 91.6 C 84.6 100.0, 55.4 7.3, 57.8 13.1 C 73.8 28.9, 33.9 70.4, 38.3 79.8 C 39.3 81.8, 9.0 80.3, 11.8 80.9 C 0.0 74.1, 21.7 42.4, 10.4 40.6 Z" fill="none" fill-opacity="0.25" stroke="hsl(183, 71%, 60%)" stroke-width="4.32"  transform="translate(8.2 80.4) rotate(74.7) scale(0.83 0.90)" />
<rect x="65.7" y="12.7" width="32.6" height="26.6" rx="6.7" fill="none" fill-opacity="0.77"   transform="translate(38.2 37.7) rotate(89.6) scale(1.17 0.78)" />
<g opacity="0.042">
<rect x="0" y="0" width="1" height="100" fill="black" />
<rect x="22" y="0" width="1" height="100" fill="black" />
<rect x="44" y="0" width="1" height="100" fill="black" />
<rect x="66" y="0" width="1" height="100" fill="black" />
<rect x="88" y="0" width="1" height="100" fill="black" />
<rect x="0" y="0" width="100" height="1" fill="black" />
<rect x="0" y="22" width="100" height="1" fill="black" />
<rect x="0" y="44" width="100" height="1" fill="black" />
<rect x="0" y="66" width="100" height="1" fill="black" />
<rect x="0" y="88" width="100" height="1" fill="black" />
</g>

</svg>
