<?xml version="1.0" encoding="UTF-8"?>
<svg xmlns="http://www.w3.org/2000/svg" width="100" height="100" viewBox="0 0 100 100">
<defs>
<linearGradient id="g0" x1="0%" y1="0%" x2="100%" y2="100%">
<stop offset="0.0%" stop-color="hsl(106, 75%, 59%)" />
<stop offset="33.3%" stop-color="hsl(183, 71%, 60%)" />
<stop offset="66.7%" stop-color="hsl(242, 72%, 49%)" />
<stop offset="100.0%" stop-color="hsl(322, 74%, 44%)" />
</linearGradient>
<linearGradient id="g1" x1="0%" y1="0%" x2="100%" y2="100%">
<stop offset="0.0%" stop-color="hsl(290, 83%, 63%)" />
<stop offset="33.3%" stop-color="hsl(2, 82%, 55%)" />
<stop offset="66.7%" stop-color="hsl(86, 72%, 68%)" />
<stop offset="100.0%" stop-color="hsl(83, 65%, 44%)" />
</linearGradient>
<linearGradient id="g2" x1="0%" y1="0%" x2="100%" y2="100%">
<stop offset="0.0%" stop-color="hsl(40, 53%, 69%)" />
<stop offset="33.3%" stop-color="hsl(104, 72%, 65%)" />
<stop offset="66.7%" stop-color="hsl(144, 86%, 72%)" />
<stop offset="100.0%" stop-color="hsl(151, 70%, 62%)" />
</linearGradient>
</defs>

<path d="M 46.9 9.2 C 66.3 0.0, 100.0 13.4, 95.2 24.6 C 100.0 9.1, 22.2 63.0, 24.1 58.3 C 13.5 52.5, 69.7 53.4, 73.2 59.0 C 76.7 39.4, 36.8 81.4, 28.9 90.8 " fill="none" fill-opacity="0.83" stroke="hsl(183, 71%, 60%)" stroke-width="1.20"  transform="translate(91.6 5.1) rotate(99.9) scale(0.98 0.99)" />
<path d="M 70.8 15.2 C 59.2 0.0, 75.4 42.7, 85.9 29.2 C 93.2 33.1, 13.1 90.7, 2.7 77.5 C 6.5 77.1, 96.9 50.4, 92.2 59.7 C 74.2 67.7, 28.3 32.9, 22.8 36.4 C 36.0 29.5, 78.6 86.8, 85.5 96.6 C 81.4 85.1, 23.6 64.6, 31.7 50.6 C 31.6 68.8, 74.7 48.0, 65.5 53.9 Z" fill="hsl(2, 82%, 55%)" fill-opacity="0.26" stroke="none" stroke-width="1.07"   />
<path d="M 7.4 34.4 C 23.0 35.5, 39.8 73.5, 54.7 80.6 C 61.5 81.7, 73.9 0.0, 59.9 4.4 C 57.7 4.9, 11.4 25.9, 18.4 16.6 C 8.0 27.3, 31.3 100.0, 39.1 98.6 C 38.2 89.3, 32.6 22.6, 27.9 21.4 C 13.0 2.4, 29.7 53.4, 19.7 46.3 Z" fill="hsl(86, 72%, 68%)" fill-opacity="0.67" stroke="none" stroke-width="1.16"  transform="translate(81.9 50.6) rotate(35.1) scale(1.96 1.56)" />
<rect x="19.9" y="48.4" width="33.4" height="25.3" rx="0" fill="hsl(2, 82%, 55%)" fill-opacity="0.56"    />
<rect x="2.5" y="37.0" width="34.3" height="28.3" rx="10.3" fill="hsl(2, 82%, 55%)" fill-opacity="0.80" stroke="hsl(86, 72%, 68%)" stroke-width="4.6"   />
<path d="M 45.7 54.7 C 63.0 57.6, 55.4 75.2, 42.2 83.3 C 32.5 79.8, 60.6 70.9, 71.3 61.6 C 55.3 66.1, 20.0 24.9, 14.0 32.3 C 0.0 12.3, 97.4 34.9, 97.2 49.6 " fill="hsl(290, 83%, 63%)" fill-opacity="0.45" stroke="none" stroke-width="0.91"   />
<rect x="39.6" y="30.9" width="28.1" height="16.5" rx="0" fill="none" fill-opacity="0.87"   transform="translate(51.8 67.0) rotate(14.5) scale(1.80 1.38)" />
<path d="M 50.6 7.6 C 37.1 0.0, 86.7 67.2, 80.0 74.4 C 60.8 74.8, 33.8 83.4, 28.8 77.0 C 28.0 86.8, 32.1 0.0, 24.5 2.2 " fill="hsl(242, 72%, 49%)" fill-opacity="0.51" stroke="none" stroke-width="0.86"  transform="translate(41.3 68.9) rotate(93.2) scale(1.72 0.99)" />
<circle cx="46.0" cy="21.2" r="0.3" fill="hsl(322, 74%, 44%)" fill-opacity="0.73"   />
<circle cx="11.9" cy="42.1" r="0.5" fill="hsl(322, 74%, 44%)" fill-opacity="0.98"   />
<path d="M 54.1 44.0 C 36.7 38.3, 54.0 33.8, 56.5 37.8 C 37.1 45.8, 38.0 84.7, 47.0 80.7 C 56.4 74.6, 70.5 100.0, 85.1 88.8 C 75.3 78.5, 87.6 24.2, 91.4 29.8 C 76.6 12.5, 16.9 0.6, 31.6 9.0 C 30.1 0.0, 61.6 87.2, 47.8 90.8 Z" fill="none" fill-opacity="0.87" stroke="hsl(83, 65%, 44%)" stroke-width="1.18"   />
<path d="M 42.3 56.2 C 51.1 60.3, 76.9 51.9, 62.6 48.2 C 69.0 40.5, 0.7 58.3, 8.7 52.7 C 18.8 38.4, 40.5 43.5, 54.0 46.2 C 35.3 48.6, 50.3 62.5, 62.1 75.1 C 63.3 80.1, 65.6 100.0, 65.6 96.9 Z" fill="none" fill-opacity="0.80" stroke="hsl(83, 65%, 44%)" stroke-width="1.22"  transform="translate(5.7 43.3) rotate(152.4) scale(0.91 0.88)" />
<circle cx="27.3" cy="51.0" r="2.0" fill="hsl(106, 75%, 59%)" fill-opacity="0.49"   />
<rect x="24.4" y="38.1" width="47.2" height="37.0" rx="16.6" fill="hsl(106, 75%, 59%)" fill-opacity="0.89"   transform="translate(36.3 91.1) rotate(164.0) scale(1.99 0.75)" />
<path d="M 80.0 53.5 C 77.0 34.1, 49.9 23.6, 57.9 19.2 C 60.0 9.6, 2.3 97.9, 17.2 83.7 C 11.8 63.7, 46.9 59.8, 47.2 72.7 C 56.8 86.1, 15.7 94.4, 4.2 79.8 C 19.8 93.8, 83.3 62.0, 96.6 68.3 C 91.5 59.7, 46.8 24.5, 36.5 26.9 C 28.7 19.6, 26.0 0.0, 24.1 7.9 Z" fill="hsl(83, 65%, 44%)" fill-opacity="0.43" stroke="none" stroke-width="1.25"   />
<path d="M 93.5 33.6 C 100.0 51.2, 5.2 95.8, 11.6 84.8 C 28.7 91.4, 70.7 23.8, 61.9 23.3 C 52.4 34.7, 69.9 85.1, 70.6 87.5 C 65.8 71.8, 36.1 41.0, 30.6 31.0 C 44.1 48.4, 92.2 70.5, 84.6 82.4 C 99.4 82.7, 33.8 68.0, 37.3 82.1 C 55.5 91.4, 90.8 30.6, 79.8 36.7 " fill="hsl(183, 71%, 60%)" fill-opacity="0.66" stroke="none" stroke-width="0.97"  transform="translate(64.7 65.0) rotate(132.1) scale(1.98 1.79)" />
<path d="M 41.3 57.7 C 29.5 77.4, 67.9 51.0, 71.9 59.8 C 84.9 40.0, 46.6 0.0, 50.6 5.3 C 53.8 3.9, 71.0 0.8, 65.8 11.6 Z" fill="hsl(151, 70%, 62%)" fill-opacity="1.00" stroke="none" stroke-width="0.81"   />
<circle cx="82.4" cy="85.2" r="0.9" fill="hsl(322, 74%, 44%)" fill-opacity="0.42"   />
</svg>
