<?xml version="1.0" encoding="UTF-8"?>
<svg xmlns="http://www.w3.org/2000/svg" width="100" height="100" viewBox="0 0 100 100">
<defs>
<linearGradient id="g0" x1="0%" y1="0%" x2="100%" y2="100%">
<stop offset="0.0%" stop-color="hsl(106, 75%, 59%)" />
<stop offset="33.3%" stop-color="hsl(183, 71%, 60%)" />
<stop offset="66.7%" stop-color="hsl(242, 72%, 49%)" />
<stop offset="100.0%" stop-color="hsl(322, 74%, 44%)" />
</linearGradient>
<linearGradient id="g1" x1="0%" y1="0%" x2="100%" y2="100%">
<stop offset="0.0%" stop-color="hsl(290, 83%, 63%)" />
<stop offset="33.3%" stop-color="hsl(2, 82%, 55%)" />
<stop offset="66.7%" stop-color="hsl(86, 72%, 68%)" />
<stop offset="100.0%" stop-color="hsl(83, 65%, 44%)" />
</linearGradient>
<linearGradient id="g2" x1="0%" y1="0%" x2="100%" y2="100%">
<stop offset="0.0%" stop-color="hsl(40, 53%, 69%)" />
<stop offset="33.3%" stop-color="hsl(104, 72%, 65%)" />
<stop offset="66.7%" stop-color="hsl(144, 86%, 72%)" />
<stop offset="100.0%" stop-color="hsl(151, 70%, 62%)" />
</linearGradient>
<filter id="f1" x="-20%" y="-20%" width="140%" height="140%">
  <feGaussianBlur stdDeviation="1.7636261504536126" />
</filter>

</defs>

<rect x="9.6" y="16.1" width="42.8" height="29.8" rx="1.7" fill="hsl(2, 82%, 55%)" fill-opacity="0.91" stroke="hsl(86, 72%, 68%)" stroke-width="4.2"  transform="translate(7.7 50.3) rotate(240.8) scale(1.77 1.77)" />
<path d="M 90.3 2.8 C 70.9 0.0, 62.5 95.2, 51.5 98.3 C 40.2 83.1, 55.0 97.9, 55.8 98.2 C 51.6 88.3, 83.5 47.8, 84.8 34.9 C 100.0 38.2, 54.7 29.1, 47.6 37.1 C 35.1 23.8, 100.0 0.0, 91.8 3.0 C 86.1 16.7, 22.3 58.7, 27.7 54.7 C 46.6 62.1, 19.4 36.7, 21.8 37.5 C 27.1 34.5, 72.5 20.8, 86.7 8.9 Z" fill="none" fill-opacity="0.87" stroke="hsl(183, 71%, 60%)" stroke-width="3.70"   />
<path d="M 98.7 52.5 C 91.7 40.7, 85.3 100.0, 76.4 95.3 C 66.5 81.6, 100.0 37.0, 92.2 43.5 C 78.0 48.7, 87.1 46.6, 97.9 51.8 C 85.2 67.6, 3.0 91.2, 3.4 82.1 C 21.0 71.2, 5.8 36.6, 5.0 39.2 C 24.6 31.9, 43.2 94.3, 28.9 93.3 Z" fill="hsl(151, 70%, 62%)" fill-opacity="0.39" stroke="none" stroke-width="1.28"  transform="translate(1.5 2.2) rotate(127.8) scale(1.40 1.77)" />
<circle cx="33.0" cy="39.6" r="9.1" fill="hsl(83, 65%, 44%)" fill-opacity="0.72"  transform="translate(39.4 10.1) rotate(100.9) scale(1.99 1.96)" />
<circle cx="28.5" cy="66.4" r="5.1" fill="hsl(151, 70%, 62%)" fill-opacity="0.97"  transform="translate(8.9 81.7) rotate(312.2) scale(1.58 1.32)" />
<path d="M 15.1 55.9 C 13.3 57.3, 31.3 0.0, 29.5 9.3 C 33.7 9.4, 69.2 93.3, 69.7 81.5 C 50.2 73.1, 19.8 54.7, 12.8 67.3 C 19.2 68.7, 57.0 84.8, 64.6 91.6 C 68.3 73.9, 11.1 31.7, 20.7 27.7 C 36.3 18.4, 81.1 46.3, 73.7 51.5 C 77.5 42.9, 62.7 23.7, 60.0 26.2 C 68.3 38.0, 36.2 95.5, 43.9 86.4 C 24.8 98.5, 80.8 92.3, 93.0 80.3 C 100.0 95.2, 96.7 1.2, 89.9 13.4 Z" fill="none" fill-opacity="0.60" stroke="hsl(151, 70%, 62%)" stroke-width="1.97"  transform="translate(48.6 63.2) rotate(312.4) scale(1.80 1.05)" />
<path d="M 17.2 37.6 C 15.2 26.0, 99.4 20.8, 89.2 26.9 C 90.7 22.6, 93.5 74.0, 87.3 81.6 C 83.3 87.1, 79.2 95.6, 93.7 92.1 C 79.3 90.5, 41.5 86.9, 46.3 86.5 C 27.8 80.5, 62.8 47.6, 66.6 58.8 C 64.2 41.3, 46.2 22.8, 40.6 16.5 C 54.3 30.2, 52.8 32.3, 53.9 42.2 C 45.0 37.7, 12.7 59.9, 11.2 62.4 Z" fill="hsl(144, 86%, 72%)" fill-opacity="0.85" stroke="none" stroke-width="3.08"  transform="translate(4.9 17.1) rotate(127.3) scale(1.84 0.88)" />
<rect x="17.0" y="28.8" width="26.6" height="23.6" rx="0" fill="hsl(104, 72%, 65%)" fill-opacity="0.47"   transform="translate(24.0 55.2) rotate(92.0) scale(1.85 1.71)" />
<circle cx="55.9" cy="15.3" r="1.0" fill="url(#g2)" fill-opacity="0.99"  transform="translate(8.0 97.7) rotate(343.9) scale(0.79 1.05)" />
<path d="M 52.5 89.6 C 41.4 76.9, 19.4 68.6, 12.0 65.7 C 31.0 72.3, 59.5 11.7, 54.2 18.0 C 63.3 33.4, 86.1 11.0, 90.9 23.5 C 88.4 42.9, 9.0 84.4, 6.9 98.8 C 6.0 87.1, 10.5 39.8, 10.7 49.4 C 10.7 51.8, 100.0 70.7, 92.3 75.1 C 85.2 82.4, 81.9 95.0, 68.6 84.0 C 50.3 77.7, 61.7 61.2, 73.5 51.6 C 67.3 53.7, 22.7 22.7, 8.6 20.3 Z" fill="hsl(290, 83%, 63%)" fill-opacity="0.28" stroke="none" stroke-width="4.34" filter="url(#f1)" transform="translate(45.9 40.5) rotate(288.4) scale(1.99 0.78)" />
<path d="M 40.5 49.8 C 24.9 56.6, 17.8 78.0, 32.3 69.9 C 42.4 50.8, 9.4 42.9, 16.2 31.4 C 14.7 13.5, 54.3 20.9, 53.7 19.7 C 70.4 18.6, 25.8 100.0, 30.4 94.0 C 10.4 88.8, 48.8 18.3, 49.3 23.9 C 35.4 14.6, 86.0 69.2, 72.0 80.2 C 63.2 78.7, 0.5 74.5, 0.4 82.8 Z" fill="hsl(83, 65%, 44%)" fill-opacity="0.99" stroke="none" stroke-width="2.23"  transform="translate(4.6 46.4) rotate(166.3) scale(0.60 1.96)" />
<path d="M 84.3 65.1 C 65.8 55.0, 8.3 17.3, 21.5 22.2 C 37.5 12.2, 90.2 60.6, 90.3 68.4 C 73.1 60.7, 49.3 88.5, 55.7 96.1 C 57.3 100.0, 64.1 92.5, 77.3 88.2 C 90.9 74.7, 35.7 0.0, 48.2 0.1 C 65.5 8.1, 88.4 34.1, 98.4 37.3 Z" fill="none" fill-opacity="0.98" stroke="hsl(144, 86%, 72%)" stroke-width="4.86"  transform="translate(25.0 48.1) rotate(85.3) scale(1.01 0.57)" />
<circle cx="7.6" cy="55.4" r="9.4" fill="url(#g0)" fill-opacity="0.81"  transform="translate(41.3 35.4) rotate(330.8) scale(1.43 1.94)" />
<path d="M 78.0 40.3 C 67.0 24.3, 51.7 44.8, 51.9 40.2 C 67.8 53.1, 83.2 84.6, 83.8 83.8 C 78.0 81.7, 17.3 100.0, 27.4 98.5 C 37.1 98.3, 54.4 52.3, 52.8 40.4 C 49.8 56.8, 27.8 78.1, 23.0 88.0 C 7.7 95.1, 19.4 96.6, 31.2 86.3 C 40.6 96.3, 0.9 88.3, 8.9 94.5 C 17.7 100.0, 24.4 19.2, 22.1 8.1 " fill="none" fill-opacity="0.41" stroke="hsl(242, 72%, 49%)" stroke-width="2.30"  transform="translate(36.3 97.7) rotate(69.4) scale(1.62 1.19)" />
<path d="M 10.1 30.8 C 5.3 29.0, 51.6 70.4, 52.4 65.5 C 61.3 78.4, 40.6 44.8, 29.5 48.6 C 20.6 57.8, 67.5 46.7, 54.8 34.8 C 43.6 30.5, 92.0 43.2, 95.4 41.7 C 100.0 46.5, 19.9 28.9, 14.6 39.9 C 0.0 55.4, 22.8 12.8, 18.8 23.4 C 26.7 39.8, 76.3 66.0, 63.4 68.3 Z" fill="hsl(2, 82%, 55%)" fill-opacity="0.94" stroke="none" stroke-width="1.55" filter="url(#f1)" transform="translate(40.0 64.9) rotate(191.5) scale(0.65 1.20)" />
<path d="M 39.0 88.2 C 20.8 72.1, 0.0 57.3, 10.2 43.0 C 20.1 52.3, 64.1 32.6, 59.1 45.9 C 52.4 65.7, 78.2 63.2, 63.4 65.0 C 50.7 49.2, 30.2 45.2, 43.4 56.4 C 46.7 50.7, 44.5 54.7, 44.9 40.7 C 34.6 46.4, 83.9 30.7, 81.6 22.8 C 71.9 28.7, 20.8 34.7, 22.7 25.9 C 31.4 8.1, 71.7 94.3, 81.6 99.7 Z" fill="hsl(322, 74%, 44%)" fill-opacity="0.77" stroke="none" stroke-width="1.25"   />
<circle cx="76.2" cy="98.3" r="2.2" fill="url(#g1)" fill-opacity="0.55"  transform="translate(90.5 38.3) rotate(40.9) scale(1.37 1.00)" />
<path d="M 86.2 92.1 C 66.8 100.0, 44.0 42.7, 53.2 42.1 C 59.2 28.1, 68.4 61.7, 76.2 66.3 C 70.2 78.9, 27.3 45.9, 39.8 45.5 C 33.7 49.2, 60.6 10.4, 60.1 10.3 C 69.9 27.9, 29.7 17.3, 43.7 6.6 C 46.9 0.0, 86.2 86.2, 79.4 92.4 C 98.7 89.2, 50.7 60.3, 64.4 51.9 C 73.5 69.8, 5.5 86.7, 17.7 84.0 Z" fill="hsl(183, 71%, 60%)" fill-opacity="0.56" stroke="none" stroke-width="0.98"  transform="translate(74.2 32.8) rotate(187.8) scale(0.61 0.87)" />
<circle cx="90.6" cy="74.7" r="1.4" fill="url(#g0)" fill-opacity="0.56"  transform="translate(87.6 66.3) rotate(275.9) scale(0.94 0.73)" />
<path d="M 50.2 39.8 C 41.7 37.6, 61.0 66.5, 46.5 63.1 C 37.3 71.5, 69.5 76.8, 65.0 63.4 C 49.1 66.3, 29.7 46.4, 28.7 33.8 C 40.7 31.0, 89.5 3.1, 83.9 14.3 C 78.7 29.0, 10.3 100.0, 25.0 89.5 C 6.3 96.0, 61.4 49.3, 62.3 50.3 C 57.8 31.9, 34.9 86.7, 31.8 98.5 Z" fill="hsl(106, 75%, 59%)" fill-opacity="0.27" stroke="none" stroke-width="2.31"  transform="translate(19.8 99.8) rotate(59.4) scale(1.17 0.63)" />
<path d="M 38.4 11.7 C 56.2 0.0, 29.9 100.0, 23.2 92.9 C 25.5 95.9, 5.3 74.1, 5.9 70.1 C 0.0 65.0, 79.6 35.5, 70.5 25.3 C 73.4 19.8, 59.1 8.3, 59.3 5.6 C 69.7 4.8, 28.3 89.0, 38.9 96.8 C 57.8 82.3, 60.4 99.5, 65.8 94.6 Z" fill="hsl(144, 86%, 72%)" fill-opacity="0.64" stroke="none" stroke-width="1.08" filter="url(#f1)" transform="translate(5.4 35.1) rotate(243.7) scale(1.07 1.16)" />
<circle cx="27.3" cy="98.5" r="12.8" fill="url(#g1)" fill-opacity="0.66"  transform="translate(4.3 30.0) rotate(19.3) scale(1.69 1.83)" />
<path d="M 35.0 75.4 C 36.7 80.8, 47.4 52.8, 59.2 49.3 C 62.2 40.9, 12.1 22.8, 2.6 23.3 C 0.0 32.6, 88.8 100.0, 77.0 98.7 C 74.3 83.4, 0.0 43.9, 6.6 32.4 C 20.3 38.7, 66.4 28.4, 70.2 39.4 C 51.0 41.5, 36.0 92.3, 43.7 99.2 C 63.0 100.0, 24.1 84.2, 23.3 72.3 Z" fill="hsl(242, 72%, 49%)" fill-opacity="0.74" stroke="none" stroke-width="2.55"  transform="translate(12.1 19.4) rotate(194.1) scale(1.53 1.55)" />
<rect x="56.6" y="65.8" width="36.3" height="23.0" rx="3.4" fill="hsl(290, 83%, 63%)" fill-opacity="0.81"   transform="translate(34.4 57.7) rotate(244.7) scale(1.43 1.93)" />
<rect x="57.9" y="25.9" width="40.4" height="30.6" rx="0" fill="none" fill-opacity="0.41"  filter="url(#f1)" transform="translate(83.3 81.0) rotate(192.4) scale(1.12 1.56)" />
<path d="M 95.3 13.9 C 87.4 21.2, 0.0 83.0, 5.9 69.6 C 0.0 86.6, 84.2 33.5, 74.3 47.5 C 68.1 55.3, 77.2 100.0, 89.5 95.8 C 100.0 100.0, 40.0 51.6, 44.7 58.9 C 63.2 74.9, 58.4 3.3, 65.2 1.8 C 83.7 19.8, 57.1 60.3, 60.7 48.5 Z" fill="hsl(322, 74%, 44%)" fill-opacity="0.72" stroke="none" stroke-width="3.83"  transform="translate(83.6 19.7) rotate(168.2) scale(1.53 0.63)" />
<rect x="12.0" y="46.6" width="41.3" height="24.2" rx="1.3" fill="none" fill-opacity="0.94" stroke="hsl(40, 53%, 69%)" stroke-width="3.9"  transform="translate(58.8 0.6) rotate(341.0) scale(0.79 0.71)" />
<circle cx="83.2" cy="54.7" r="4.0" fill="url(#g0)" fill-opacity="0.41"   />
<path d="M 11.3 68.1 C 19.6 61.2, 75.9 88.5, 71.1 88.0 C 52.6 100.0, 73.5 24.8, 60.6 11.2 C 79.7 7.0, 32.8 89.1, 28.3 92.6 C 47.6 100.0, 70.6 100.0, 56.8 98.5 C 71.0 88.2, 100.0 28.3, 97.9 32.9 C 100.0 17.8, 34.2 25.7, 46.2 17.0 C 59.3 10.0, 52.5 62.7, 45.6 54.9 C 30.7 38.4, 69.1 2.7, 59.1 8.4 Z" fill="hsl(2, 82%, 55%)" fill-opacity="0.83" stroke="none" stroke-width="4.74" filter="url(#f1)" transform="translate(15.3 8.0) rotate(123.8) scale(1.14 1.45)" />
<circle cx="26.1" cy="42.1" r="12.1" fill="url(#g1)" fill-opacity="0.97" filter="url(#f1)" transform="translate(57.3 59.0) rotate(323.2) scale(0.51 0.71)" />
<path d="M 80.2 69.1 C 69.2 88.2, 12.9 92.0, 27.7 79.9 C 20.9 85.3, 24.7 37.5, 19.4 52.1 C 16.4 54.2, 50.7 77.3, 53.6 75.6 C 62.9 79.8, 25.8 3.5, 28.4 3.0 C 20.3 12.2, 37.7 51.3, 39.4 42.7 C 27.5 54.3, 95.5 30.6, 91.3 32.3 Z" fill="none" fill-opacity="0.60" stroke="hsl(83, 65%, 44%)" stroke-width="2.45"  transform="translate(47.1 6.4) rotate(309.1) scale(1.20 1.12)" />
<circle cx="10.4" cy="25.6" r="5.1" fill="url(#g0)" fill-opacity="0.68"  transform="translate(99.9 9.1) rotate(227.6) scale(1.90 1.98)" />
<circle cx="85.0" cy="17.4" r="7.7" fill="url(#g0)" fill-opacity="0.43"   />
<path d="M 27.7 75.7 C 32.8 67.9, 28.2 28.1, 17.0 30.4 C 24.8 29.8, 97.5 71.6, 86.0 83.7 C 90.3 64.8, 83.4 8.9, 89.9 23.2 C 100.0 10.8, 68.2 31.1, 54.9 27.5 C 73.9 39.8, 48.3 5.2, 58.1 17.5 C 59.8 35.1, 100.0 23.7, 91.5 9.1 C 79.2 0.0, 8.3 26.2, 20.8 35.6 C 2.8 35.6, 0.0 100.0, 5.6 88.9 C 17.8 100.0, 80.6 60.6, 86.7 65.6 C 85.3 63.3, 64.2 24.8, 63.9 35.0 Z" fill="hsl(2, 82%, 55%)" fill-opacity="0.86" stroke="none" stroke-width="2.91"  transform="translate(24.6 36.9) rotate(8.9) scale(0.93 1.29)" />
<path d="M 59.3 70.7 C 41.8 55.3, 51.2 74.4, 43.9 75.1 C 39.0 65.6, 82.9 78.1, 80.7 79.6 C 98.6 73.5, 76.5 40.3, 76.7 31.4 C 72.3 36.6, 42.1 0.0, 30.2 10.4 C 36.5 0.0, 63.1 21.8, 51.4 20.9 C 52.3 40.0, 53.1 11.1, 54.2 26.0 C 50.1 11.7, 93.9 82.6, 87.0 72.4 Z" fill="none" fill-opacity="0.28" stroke="hsl(144, 86%, 72%)" stroke-width="1.93"  transform="translate(63.8 58.2) rotate(347.5) scale(1.61 1.04)" />
<path d="M 88.1 17.0 C 85.8 0.1, 75.7 15.7, 66.7 2.4 C 77.5 5.6, 13.7 45.3, 24.9 41.9 C 11.0 36.8, 53.9 48.8, 58.1 39.3 C 67.4 28.1, 64.2 11.8, 65.4 9.2 C 53.8 27.6, 60.8 57.3, 63.9 57.3 C 69.5 57.3, 41.5 0.7, 42.4 15.5 C 49.0 19.3, 87.2 85.3, 74.0 88.4 Z" fill="hsl(151, 70%, 62%)" fill-opacity="0.73" stroke="none" stroke-width="4.21"  transform="translate(60.6 35.5) rotate(301.5) scale(0.63 0.99)" />
<rect x="25.5" y="9.2" width="40.7" height="15.4" rx="18.1" fill="hsl(151, 70%, 62%)" fill-opacity="0.86" stroke="hsl(40, 53%, 69%)" stroke-width="3.6"  transform="translate(28.9 40.9) rotate(306.2) scale(1.82 1.04)" />
<path d="M 5.3 76.4 C 1.8 92.1, 46.5 34.2, 47.3 21.5 C 34.7 35.5, 46.5 64.1, 56.4 55.1 C 75.9 62.2, 65.2 66.9, 66.3 73.2 C 65.2 81.0, 77.9 23.1, 64.1 8.6 C 56.4 19.4, 23.6 99.8, 17.8 95.7 C 32.8 100.0, 2.0 100.0, 15.0 99.2 C 4.8 94.9, 100.0 59.1, 92.5 66.6 C 100.0 78.0, 42.6 28.3, 31.5 22.1 Z" fill="hsl(183, 71%, 60%)" fill-opacity="0.41" stroke="none" stroke-width="4.86"  transform="translate(4.7 76.6) rotate(120.7) scale(1.64 1.55)" />
<path d="M 53.4 21.2 C 54.1 21.8, 32.5 33.6, 19.7 19.5 C 37.2 37.1, 74.0 9.6, 66.8 14.9 C 62.4 15.3, 55.1 77.1, 63.0 62.3 C 75.6 48.2, 78.7 95.0, 84.2 87.1 C 100.0 86.0, 81.5 1.5, 86.4 15.6 C 69.1 25.8, 62.5 30.5, 76.3 27.6 C 64.9 33.1, 100.0 17.6, 90.4 13.7 C 100.0 2.9, 77.9 23.1, 76.5 33.9 Z" fill="hsl(106, 75%, 59%)" fill-opacity="0.28" stroke="none" stroke-width="3.16"  transform="translate(45.4 31.6) rotate(334.7) scale(1.22 2.00)" />
<path d="M 59.0 21.1 C 58.0 15.8, 52.9 41.2, 54.7 40.2 C 44.7 37.3, 89.1 83.3, 74.9 70.7 C 61.0 75.8, 58.3 30.7, 49.6 24.2 C 41.1 5.7, 64.4 49.3, 73.7 62.3 C 57.2 52.5, 83.5 9.0, 82.4 19.6 C 83.0 28.1, 48.8 86.6, 57.6 94.4 C 55.8 98.2, 91.8 9.2, 80.8 24.2 C 98.6 43.6, 83.7 74.4, 96.1 66.5 C 82.5 68.6, 70.4 18.4, 59.9 24.4 C 42.5 13.4, 44.7 16.5, 59.2 5.4 Z" fill="hsl(2, 82%, 55%)" fill-opacity="0.94" stroke="none" stroke-width="2.26"  transform="translate(20.9 73.4) rotate(77.0) scale(1.23 1.76)" />
<path d="M 3.1 64.2 C 10.2 78.5, 98.5 43.8, 92.4 50.1 C 89.0 31.0, 47.1 35.2, 56.3 42.4 C 38.5 37.3, 27.7 64.2, 26.7 75.8 C 7.6 75.6, 31.4 73.4, 21.8 76.0 C 26.5 83.5, 31.3 41.5, 18.2 29.5 C 19.3 36.8, 32.2 8.9, 29.9 17.8 Z" fill="hsl(83, 65%, 44%)" fill-opacity="0.66" stroke="none" stroke-width="2.48"  transform="translate(99.5 93.4) rotate(87.7) scale(1.99 1.94)" />
<path d="M 87.2 57.8 C 68.7 75.2, 28.1 42.3, 29.8 30.9 C 26.8 10.9, 56.1 70.9, 46.4 59.7 C 27.3 72.8, 25.2 80.4, 23.0 78.0 C 12.7 64.8, 39.7 16.7, 38.8 26.9 C 29.6 31.9, 64.0 39.9, 65.0 25.8 C 65.7 40.2, 53.3 84.4, 44.4 76.8 C 50.5 83.3, 0.0 53.8, 4.9 53.3 C 0.0 51.2, 48.2 81.3, 43.8 74.5 C 26.6 67.7, 83.1 38.6, 90.9 30.4 C 77.5 15.2, 74.7 36.9, 65.6 39.4 Z" fill="none" fill-opacity="0.47" stroke="hsl(151, 70%, 62%)" stroke-width="3.56"  transform="translate(85.0 68.4) rotate(16.7) scale(0.75 1.73)" />
<rect x="2.0" y="59.8" width="42.0" height="10.7" rx="0" fill="none" fill-opacity="0.92" stroke="hsl(2, 82%, 55%)" stroke-width="3.0"  transform="translate(70.8 23.1) rotate(195.3) scale(0.97 0.93)" />
<path d="M 53.0 42.0 C 56.3 40.8, 93.9 96.7, 99.2 90.2 C 80.0 72.5, 92.8 52.8, 85.1 53.8 C 67.4 72.2, 87.5 94.6, 88.8 97.1 C 100.0 97.1, 38.7 33.7, 38.9 35.7 C 52.2 51.7, 16.5 45.1, 8.1 39.8 C 2.9 20.0, 21.9 72.6, 17.3 76.6 Z" fill="hsl(242, 72%, 49%)" fill-opacity="0.98" stroke="none" stroke-width="4.58"  transform="translate(78.3 73.6) rotate(137.3) scale(1.15 0.95)" />
<circle cx="4.6" cy="27.0" r="12.0" fill="url(#g2)" fill-opacity="0.83"  transform="translate(25.6 56.5) rotate(44.2) scale(1.70 1.17)" />
<path d="M 68.0 96.1 C 58.0 97.3, 100.0 35.2, 99.4 27.2 C 100.0 28.8, 79.2 69.1, 74.7 78.6 C 79.9 61.3, 80.0 14.4, 70.9 17.0 C 54.6 28.5, 69.8 2.6, 56.0 8.6 C 40.9 9.7, 70.5 61.4, 72.9 72.7 C 86.4 84.4, 44.8 3.2, 37.5 3.9 C 54.5 0.0, 38.0 93.0, 32.9 93.7 C 29.9 83.1, 81.7 1.5, 66.9 0.9 C 62.5 0.0, 35.1 0.0, 36.7 6.2 " fill="hsl(86, 72%, 68%)" fill-opacity="0.35" stroke="none" stroke-width="1.16"  transform="translate(69.0 64.7) rotate(66.9) scale(1.30 1.80)" />
<path d="M 16.8 51.0 C 29.5 60.7, 58.4 0.0, 71.3 6.5 C 53.7 2.3, 37.8 81.7, 33.5 70.1 C 15.5 78.3, 100.0 33.9, 97.1 30.3 C 99.9 50.3, 19.0 41.6, 26.6 38.2 C 26.3 50.7, 84.8 34.5, 99.7 45.5 C 96.3 39.1, 86.4 6.9, 90.5 8.6 C 100.0 0.0, 52.0 77.0, 53.7 67.2 C 69.9 50.7, 100.0 57.4, 91.2 44.9 C 100.0 58.5, 47.3 19.9, 45.8 26.6 C 26.5 42.5, 1.2 0.0, 9.5 8.9 Z" fill="hsl(290, 83%, 63%)" fill-opacity="0.64" stroke="none" stroke-width="3.70"  transform="translate(58.0 75.1) rotate(237.4) scale(1.54 1.30)" />
<circle cx="19.4" cy="56.5" r="1.1" fill="url(#g0)" fill-opacity="0.62"  transform="translate(81.3 45.8) rotate(115.6) scale(1.10 1.20)" />
<path d="M 75.7 68.5 C 78.1 81.9, 19.6 34.1, 19.7 22.2 C 3.9 39.3, 0.0 1.9, 0.8 4.1 C 0.0 9.8, 41.4 57.0, 30.8 62.5 C 30.7 45.9, 18.0 39.7, 9.9 38.8 C 27.7 28.2, 49.0 48.5, 61.7 51.2 C 41.9 62.9, 20.7 11.3, 33.0 23.5 C 47.1 21.5, 92.5 37.4, 84.1 40.8 C 98.3 30.4, 94.2 22.0, 95.0 21.0 Z" fill="hsl(2, 82%, 55%)" fill-opacity="0.80" stroke="none" stroke-width="2.75"  transform="translate(28.8 71.7) rotate(60.1) scale(1.36 0.61)" />
<circle cx="45.6" cy="94.0" r="2.2" fill="hsl(86, 72%, 68%)" fill-opacity="0.54"   />
<rect x="52.3" y="70.0" width="47.3" height="14.4" rx="0" fill="hsl(106, 75%, 59%)" fill-opacity="0.28"   transform="translate(22.7 46.9) rotate(116.5) scale(0.73 1.15)" />
<path d="M 50.9 17.6 C 63.2 17.0, 30.2 99.6, 30.5 90.5 C 47.2 97.2, 73.5 68.1, 79.2 79.7 C 78.1 96.8, 100.0 52.0, 99.0 66.0 C 100.0 68.0, 2.9 16.8, 6.4 10.9 C 0.0 7.8, 9.7 70.3, 22.8 78.0 C 3.9 72.8, 72.3 4.1, 73.1 10.9 C 62.5 0.0, 99.2 88.5, 93.9 83.8 C 79.9 96.3, 48.3 32.6, 61.7 47.0 Z" fill="none" fill-opacity="0.67" stroke="hsl(104, 72%, 65%)" stroke-width="3.82"  transform="translate(61.3 49.1) rotate(78.8) scale(0.73 1.00)" />
<rect x="29.4" y="26.3" width="49.7" height="13.4" rx="5.7" fill="none" fill-opacity="0.85"   transform="translate(17.8 46.0) rotate(182.1) scale(1.46 1.81)" />
<path d="M 77.0 71.6 C 87.2 54.0, 15.9 26.7, 16.6 34.2 C 28.0 44.3, 7.4 18.7, 10.8 4.7 C 22.3 4.5, 68.4 76.9, 61.4 72.8 C 62.0 84.4, 42.9 96.4, 50.0 83.6 C 62.8 97.9, 84.5 40.8, 74.6 35.8 C 71.0 34.1, 19.4 82.9, 33.4 70.3 Z" fill="hsl(242, 72%, 49%)" fill-opacity="0.79" stroke="none" stroke-width="1.54"  transform="translate(88.5 18.4) rotate(208.1) scale(1.05 1.68)" />
<path d="M 34.5 22.0 C 33.9 6.8, 85.1 1.1, 82.1 8.8 C 70.2 0.4, 32.2 9.6, 45.7 14.6 C 52.4 17.0, 84.2 64.0, 74.6 62.9 C 79.5 78.7, 39.4 49.8, 46.3 63.4 C 42.9 71.0, 12.9 33.0, 2.9 28.3 C 14.5 26.7, 98.6 73.1, 90.1 84.3 C 75.7 99.8, 63.2 27.5, 53.9 16.6 Z" fill="hsl(322, 74%, 44%)" fill-opacity="0.90" stroke="none" stroke-width="4.42"  transform="translate(75.0 5.3) rotate(76.7) scale(1.48 0.92)" />
<path d="M 30.3 87.1 C 13.3 100.0, 27.6 40.0, 16.5 49.3 C 33.5 49.2, 16.6 89.1, 17.8 89.6 C 6.5 87.2, 21.2 92.4, 8.7 80.8 C 0.0 91.5, 71.1 75.5, 70.8 70.5 C 90.0 54.3, 29.7 23.4, 37.6 35.3 C 55.3 28.1, 18.3 42.6, 18.6 52.4 C 7.0 49.4, 66.6 3.5, 65.8 13.0 C 46.5 29.6, 19.4 26.8, 20.0 24.7 C 16.9 27.5, 76.2 14.3, 83.9 2.7 C 81.5 0.0, 32.0 0.0, 34.1 2.3 " fill="none" fill-opacity="0.68" stroke="hsl(242, 72%, 49%)" stroke-width="4.45" filter="url(#f1)" transform="translate(51.6 19.7) rotate(247.5) scale(1.73 1.20)" />
<path d="M 4.1 82.7 C 22.8 96.2, 39.5 24.7, 43.8 16.9 C 32.2 13.2, 36.8 60.1, 24.5 51.0 C 13.2 67.9, 33.2 67.6, 25.0 75.2 C 42.5 65.6, 10.5 63.5, 9.5 76.1 C 6.3 91.4, 25.2 57.4, 12.1 66.4 C 3.9 74.2, 74.1 19.5, 83.4 8.4 C 96.1 0.0, 26.3 64.7, 37.0 77.5 C 48.8 71.8, 73.6 52.2, 84.2 61.3 C 94.9 55.9, 59.9 23.0, 70.7 13.7 C 76.7 26.0, 57.9 9.0, 59.6 22.6 Z" fill="hsl(2, 82%, 55%)" fill-opacity="0.93" stroke="none" stroke-width="4.20"  transform="translate(65.5 14.6) rotate(254.1) scale(1.49 0.60)" />
<rect x="22.1" y="19.4" width="47.4" height="19.2" rx="6.8" fill="none" fill-opacity="0.43" stroke="hsl(83, 65%, 44%)" stroke-width="2.8"  transform="translate(2.0 37.7) rotate(177.8) scale(1.18 0.86)" />
<rect x="59.6" y="59.2" width="36.2" height="33.3" rx="0" fill="none" fill-opacity="0.95" stroke="hsl(104, 72%, 65%)" stroke-width="2.8"   />
<path d="M 97.6 39.3 C 100.0 42.1, 97.2 92.9, 94.9 96.3 C 100.0 100.0, 41.3 96.1, 32.5 87.0 C 22.4 71.2, 54.8 9.9, 46.5 24.6 C 30.3 43.5, 69.0 83.4, 72.7 78.4 C 91.4 80.2, 22.9 77.9, 31.7 78.8 C 16.7 98.4, 31.7 73.4, 41.9 80.7 Z" fill="none" fill-opacity="0.86" stroke="hsl(83, 65%, 44%)" stroke-width="3.83"  transform="translate(46.3 15.4) rotate(106.1) scale(0.93 0.50)" />
<path d="M 7.3 5.7 C 25.7 0.0, 63.2 79.6, 52.5 72.7 C 53.0 74.9, 93.2 45.2, 80.4 45.2 C 99.9 40.8, 99.5 80.8, 92.8 85.1 C 81.0 95.3, 56.4 0.2, 66.3 12.3 C 83.0 28.5, 85.9 11.8, 86.6 25.8 C 77.5 11.9, 44.9 80.0, 51.1 90.4 C 64.8 92.0, 19.3 61.7, 21.4 63.8 C 22.4 48.2, 81.5 43.7, 81.5 56.4 C 95.6 44.6, 16.7 75.8, 19.0 62.2 C 25.8 72.5, 14.0 0.0, 19.7 11.3 Z" fill="none" fill-opacity="0.99" stroke="hsl(144, 86%, 72%)" stroke-width="2.74"  transform="translate(78.2 38.6) rotate(259.5) scale(0.64 0.64)" />
<rect x="58.9" y="44.6" width="34.2" height="24.8" rx="0" fill="none" fill-opacity="0.45" stroke="hsl(2, 82%, 55%)" stroke-width="3.5"  transform="translate(88.2 7.9) rotate(54.3) scale(1.54 1.97)" />
<path d="M 7.9 32.9 C 17.5 41.7, 32.7 5.0, 26.1 6.0 C 30.3 0.0, 55.6 74.7, 42.2 85.5 C 35.0 66.0, 60.8 62.2, 56.8 74.2 C 56.2 94.0, 73.6 66.5, 81.2 65.8 C 65.1 58.2, 7.6 76.3, 16.3 77.6 C 28.0 96.4, 79.2 84.7, 70.4 98.6 C 57.5 100.0, 73.7 86.0, 73.3 84.4 Z" fill="hsl(83, 65%, 44%)" fill-opacity="0.71" stroke="none" stroke-width="2.57"   />
<path d="M 2.6 10.0 C 4.7 6.5, 6.2 9.6, 13.4 3.4 C 10.6 0.0, 46.4 91.9, 51.6 97.6 C 59.9 91.5, 78.1 100.0, 86.0 92.7 C 69.6 76.7, 82.2 40.2, 81.2 42.4 C 89.1 27.5, 86.6 3.9, 97.3 10.2 C 100.0 10.5, 21.1 61.4, 14.3 61.9 C 16.4 74.6, 94.0 11.7, 99.4 13.1 C 97.2 4.4, 85.1 9.6, 96.4 1.7 C 79.0 0.0, 72.6 92.2, 64.0 80.5 Z" fill="hsl(183, 71%, 60%)" fill-opacity="0.85" stroke="none" stroke-width="5.02"  transform="translate(1.5 90.7) rotate(296.9) scale(1.55 1.62)" />
<path d="M 51.9 99.3 C 39.7 100.0, 93.4 74.5, 86.2 78.6 C 80.5 96.0, 31.1 42.3, 30.3 32.4 C 39.5 41.8, 0.0 23.8, 0.8 22.3 C 9.7 4.4, 92.1 52.2, 85.6 47.7 C 77.9 41.5, 21.9 56.2, 13.8 53.4 C 14.4 44.1, 48.6 32.7, 52.7 28.5 C 39.1 40.4, 0.0 38.7, 13.2 47.8 Z" fill="none" fill-opacity="0.26" stroke="hsl(242, 72%, 49%)" stroke-width="2.22"  transform="translate(98.6 83.5) rotate(246.7) scale(1.16 1.08)" />
<path d="M 24.8 96.0 C 5.2 100.0, 40.7 64.5, 36.2 77.2 C 56.0 76.8, 34.6 11.4, 37.7 18.2 C 41.9 0.0, 72.1 52.7, 75.4 52.2 C 64.2 41.1, 82.8 81.3, 80.1 75.2 C 80.7 65.2, 86.7 66.3, 76.1 52.9 C 57.9 60.3, 50.8 44.7, 46.6 40.4 C 66.1 24.3, 11.5 28.3, 16.8 35.7 Z" fill="hsl(151, 70%, 62%)" fill-opacity="0.74" stroke="none" stroke-width="2.00" filter="url(#f1)" transform="translate(74.3 7.1) rotate(274.6) scale(1.86 1.63)" />
<path d="M 23.6 96.0 C 3.6 92.5, 60.8 96.4, 51.1 83.5 C 45.5 92.0, 93.6 92.1, 80.2 84.5 C 78.8 99.1, 82.9 68.1, 83.2 55.9 C 64.2 50.3, 59.9 100.0, 59.8 94.7 C 63.6 91.1, 49.8 50.6, 64.6 47.3 C 80.0 66.2, 97.9 59.0, 93.1 71.9 C 94.8 88.7, 86.3 60.4, 97.2 70.2 Z" fill="hsl(322, 74%, 44%)" fill-opacity="0.65" stroke="none" stroke-width="4.98"  transform="translate(72.5 18.0) rotate(175.9) scale(1.87 0.98)" />
<path d="M 14.3 36.1 C 0.0 37.0, 64.4 26.2, 53.7 34.6 C 39.4 30.4, 90.4 67.8, 86.9 76.9 C 99.5 87.7, 82.1 74.5, 87.6 60.7 C 73.9 59.4, 17.1 64.3, 30.7 52.4 C 18.1 53.8, 39.2 84.2, 48.5 69.4 C 59.9 84.2, 63.9 86.8, 61.5 75.2 Z" fill="hsl(40, 53%, 69%)" fill-opacity="0.40" stroke="none" stroke-width="2.03"  transform="translate(97.7 57.3) rotate(174.9) scale(1.55 1.90)" />
<rect x="23.7" y="22.0" width="30.8" height="13.3" rx="14.8" fill="hsl(151, 70%, 62%)" fill-opacity="0.21" stroke="hsl(151, 70%, 62%)" stroke-width="1.7"  transform="translate(27.2 65.3) rotate(308.7) scale(0.60 1.09)" />
<circle cx="6.7" cy="86.5" r="7.2" fill="hsl(86, 72%, 68%)" fill-opacity="0.85"  transform="translate(69.2 46.2) rotate(7.2) scale(1.20 1.34)" />
<path d="M 85.4 40.9 C 89.6 57.6, 98.7 80.2, 97.4 88.6 C 96.4 77.3, 38.3 100.0, 36.0 99.3 C 54.7 100.0, 38.2 84.3, 44.5 88.9 C 26.7 89.7, 2.9 21.5, 16.2 12.8 C 9.9 10.7, 17.5 50.1, 17.9 35.6 C 0.0 50.8, 28.7 72.8, 29.4 78.0 Z" fill="none" fill-opacity="0.48" stroke="hsl(83, 65%, 44%)" stroke-width="4.47"  transform="translate(68.8 89.1) rotate(73.7) scale(1.51 1.72)" />
<circle cx="28.9" cy="63.8" r="10.0" fill="url(#g1)" fill-opacity="0.80"  transform="translate(16.0 13.4) rotate(287.4) scale(1.58 1.95)" />
<path d="M 8.9 87.5 C 27.7 67.5, 17.2 74.0, 5.4 86.3 C 0.0 93.7, 59.9 77.3, 53.1 82.5 C 56.1 63.1, 78.9 93.8, 68.7 92.6 C 83.4 89.4, 64.9 25.9, 51.8 38.2 C 50.7 56.0, 77.0 87.4, 87.5 94.3 C 68.8 83.0, 0.0 44.7, 1.2 46.5 C 0.0 53.7, 41.8 72.0, 52.5 71.1 Z" fill="hsl(86, 72%, 68%)" fill-opacity="0.34" stroke="none" stroke-width="4.19"  transform="translate(28.4 5.7) rotate(176.9) scale(1.80 1.17)" />
<path d="M 90.1 19.1 C 94.2 20.8, 35.6 100.0, 39.4 93.8 C 45.9 76.4, 2.9 47.8, 11.2 57.1 C 2.6 61.3, 31.1 46.6, 35.0 44.2 C 18.5 46.5, 37.1 48.7, 42.0 35.2 C 23.5 39.6, 24.8 45.6, 32.0 39.9 C 32.1 47.6, 80.3 90.5, 77.0 79.1 C 69.6 65.0, 83.5 34.4, 76.8 49.3 Z" fill="none" fill-opacity="0.41" stroke="hsl(83, 65%, 44%)" stroke-width="2.89"  transform="translate(14.6 90.4) rotate(172.8) scale(1.99 1.54)" />
<circle cx="2.0" cy="8.1" r="5.5" fill="url(#g0)" fill-opacity="0.63"   />
<path d="M 49.8 93.9 C 59.0 100.0, 62.9 39.3, 51.0 44.6 C 66.8 31.5, 70.7 25.4, 63.6 18.9 C 76.1 30.9, 39.5 100.0, 48.2 99.1 C 30.0 96.0, 45.2 29.0, 37.9 35.0 C 32.0 29.3, 37.5 33.8, 22.6 36.9 C 26.8 37.9, 24.1 73.0, 28.1 64.3 C 33.6 56.7, 49.6 85.4, 48.1 91.4 C 60.6 71.4, 23.0 4.3, 20.0 17.4 C 27.5 36.0, 27.4 28.0, 25.6 36.1 Z" fill="none" fill-opacity="0.32" stroke="hsl(104, 72%, 65%)" stroke-width="5.08"  transform="translate(79.2 87.4) rotate(44.5) scale(0.56 0.83)" />
<path d="M 25.8 55.8 C 28.1 37.0, 88.7 18.7, 90.5 6.6 C 100.0 15.1, 0.0 26.1, 3.9 24.1 C 0.0 27.9, 19.4 52.6, 20.9 51.3 C 31.2 61.0, 65.6 58.3, 61.9 64.6 C 79.3 82.4, 77.7 88.9, 79.2 77.0 C 96.4 85.2, 85.4 80.1, 81.4 66.1 C 95.0 60.1, 70.3 40.9, 58.6 46.3 " fill="none" fill-opacity="0.84" stroke="hsl(151, 70%, 62%)" stroke-width="3.36"   />
<rect x="59.4" y="52.2" width="26.1" height="15.4" rx="10.7" fill="hsl(2, 82%, 55%)" fill-opacity="0.44"  filter="url(#f1)"  />
<path d="M 14.7 83.6 C 0.0 95.8, 53.8 68.4, 56.7 59.3 C 54.2 59.8, 29.5 95.3, 24.7 82.0 C 8.1 73.6, 100.0 66.2, 91.0 78.8 C 100.0 70.7, 66.7 23.6, 80.2 23.1 C 81.8 17.7, 76.5 60.7, 89.1 65.0 C 83.9 63.4, 68.0 49.3, 64.3 61.3 C 53.0 47.2, 51.2 31.1, 52.5 20.7 C 58.3 3.9, 26.0 82.3, 21.1 75.4 C 2.0 59.3, 90.8 76.4, 97.2 78.7 " fill="hsl(104, 72%, 65%)" fill-opacity="0.85" stroke="none" stroke-width="3.43"  transform="translate(8.4 61.4) rotate(181.5) scale(1.38 1.43)" />
<path d="M 88.4 53.9 C 73.0 51.6, 43.8 77.6, 37.0 81.6 C 36.8 74.6, 15.1 6.2, 23.0 8.6 C 5.3 17.9, 0.0 89.5, 2.4 74.7 C 3.3 57.5, 15.3 63.7, 13.4 58.8 C 9.3 70.2, 33.2 31.8, 33.9 40.0 C 45.4 31.6, 15.0 14.0, 0.9 14.6 Z" fill="hsl(104, 72%, 65%)" fill-opacity="0.49" stroke="none" stroke-width="1.38"   />
<path d="M 22.7 88.0 C 29.2 76.1, 18.1 42.6, 31.1 53.7 C 41.7 64.2, 42.1 100.0, 55.0 88.7 C 51.7 74.6, 65.7 63.6, 72.3 55.1 C 65.3 68.7, 73.0 30.5, 70.7 18.0 C 58.0 7.0, 51.0 29.9, 51.8 24.2 C 40.0 22.1, 76.2 83.3, 71.9 92.2 C 81.5 100.0, 0.0 51.6, 3.5 58.3 " fill="hsl(290, 83%, 63%)" fill-opacity="0.98" stroke="none" stroke-width="3.91"  transform="translate(6.0 17.5) rotate(49.4) scale(1.68 0.87)" />
<path d="M 56.4 61.5 C 64.2 55.0, 88.2 81.2, 92.1 72.4 C 75.2 87.2, 53.5 9.1, 47.4 0.3 C 34.0 10.2, 3.5 11.9, 7.9 17.7 C 6.3 17.3, 6.7 34.0, 16.8 25.9 C 25.1 19.3, 100.0 14.2, 97.0 13.6 C 100.0 17.9, 10.4 71.7, 2.6 66.1 C 0.0 63.1, 4.8 70.2, 14.7 57.8 C 4.8 52.0, 79.5 90.6, 82.7 79.9 Z" fill="none" fill-opacity="0.58" stroke="hsl(290, 83%, 63%)" stroke-width="0.96"  transform="translate(87.9 54.0) rotate(234.0) scale(1.23 0.86)" />
<rect x="7.5" y="37.4" width="43.3" height="36.2" rx="0" fill="none" fill-opacity="0.34"   transform="translate(54.7 88.3) rotate(249.5) scale(1.98 0.83)" />
<path d="M 44.8 30.1 C 28.1 49.0, 52.2 16.7, 65.0 18.6 C 55.4 11.3, 77.9 21.1, 84.1 7.3 C 100.0 0.0, 60.6 51.0, 75.2 64.3 C 63.4 54.6, 30.4 40.4, 17.9 54.2 C 4.2 53.4, 40.0 100.0, 48.3 95.7 C 43.5 97.2, 42.4 0.0, 56.0 7.7 C 44.6 3.4, 69.7 25.1, 74.8 35.2 Z" fill="hsl(242, 72%, 49%)" fill-opacity="0.49" stroke="none" stroke-width="5.22"  transform="translate(30.2 94.6) rotate(314.9) scale(0.78 1.57)" />
<path d="M 78.0 95.5 C 59.6 92.0, 70.7 53.1, 70.9 48.4 C 65.2 39.0, 30.7 67.2, 22.9 78.0 C 6.8 80.3, 50.1 0.0, 62.3 2.3 C 78.1 14.6, 31.8 72.4, 41.4 61.7 C 29.5 62.3, 28.3 98.9, 21.1 95.5 C 9.8 84.9, 86.6 24.9, 85.0 31.7 C 94.4 15.9, 90.9 0.2, 97.9 11.0 C 83.2 0.0, 63.8 44.6, 59.9 31.3 Z" fill="none" fill-opacity="0.98" stroke="hsl(183, 71%, 60%)" stroke-width="2.23" filter="url(#f1)" transform="translate(81.5 58.8) rotate(183.9) scale(0.99 1.22)" />
<rect x="55.8" y="70.9" width="43.7" height="14.3" rx="19.9" fill="none" fill-opacity="0.61"    />
<rect x="3.2" y="60.5" width="34.3" height="22.7" rx="0" fill="none" fill-opacity="0.58"   transform="translate(22.8 5.4) rotate(226.4) scale(1.29 1.26)" />
<path d="M 64.5 98.1 C 55.7 82.1, 57.8 93.0, 58.4 94.0 C 63.1 83.4, 31.8 94.5, 40.2 89.0 C 50.7 92.7, 9.9 74.5, 2.9 75.5 C 6.0 87.9, 49.4 85.6, 61.2 83.8 C 58.5 90.4, 89.8 48.6, 86.3 56.2 C 95.3 56.4, 50.2 11.9, 48.9 1.2 C 38.0 0.9, 69.6 32.6, 81.0 19.5 C 69.5 32.6, 10.8 50.8, 15.5 44.0 Z" fill="hsl(104, 72%, 65%)" fill-opacity="0.92" stroke="none" stroke-width="2.38" filter="url(#f1)" transform="translate(83.4 29.9) rotate(200.2) scale(0.71 1.22)" />
<rect x="17.8" y="39.1" width="46.4" height="12.5" rx="7.7" fill="none" fill-opacity="0.33" stroke="hsl(2, 82%, 55%)" stroke-width="2.7"  transform="translate(89.1 53.8) rotate(313.7) scale(0.95 1.21)" />
<circle cx="78.2" cy="78.0" r="1.8" fill="hsl(151, 70%, 62%)" fill-opacity="0.98"  transform="translate(61.4 62.2) rotate(58.1) scale(1.20 0.72)" />
<path d="M 66.2 86.0 C 84.9 80.8, 79.1 55.3, 87.9 65.6 C 82.5 74.2, 8.8 31.5, 20.1 40.9 C 5.1 58.1, 84.9 30.7, 97.8 27.4 C 95.2 9.3, 54.0 7.1, 41.7 17.7 C 59.6 21.4, 49.5 0.0, 42.1 1.2 C 35.0 1.7, 80.5 59.1, 80.3 66.0 C 74.1 58.2, 2.8 22.1, 4.9 28.5 C 23.0 46.1, 80.1 61.9, 94.9 69.8 C 88.5 74.1, 43.1 100.0, 42.9 93.2 Z" fill="none" fill-opacity="0.93" stroke="hsl(104, 72%, 65%)" stroke-width="1.79"  transform="translate(46.7 96.3) rotate(63.3) scale(1.12 0.77)" />
<path d="M 14.1 28.0 C 7.5 22.7, 0.0 6.9, 0.7 14.2 C 10.1 12.9, 19.0 86.1, 25.9 75.6 C 23.2 75.5, 65.9 84.9, 64.1 75.0 C 70.0 85.3, 71.8 21.5, 68.4 15.5 C 48.6 6.5, 77.8 71.0, 75.8 60.8 C 67.1 51.2, 76.8 50.3, 85.1 51.5 C 89.1 44.1, 22.2 94.8, 19.6 94.3 C 8.4 93.2, 44.6 93.7, 44.4 91.0 C 52.3 86.6, 81.3 6.4, 94.0 2.1 C 100.0 12.0, 83.8 4.8, 93.2 18.8 Z" fill="hsl(242, 72%, 49%)" fill-opacity="0.29" stroke="none" stroke-width="2.88" filter="url(#f1)" transform="translate(47.8 96.9) rotate(284.5) scale(1.71 1.28)" />
<path d="M 27.3 30.9 C 11.1 39.8, 34.1 47.1, 26.8 32.8 C 17.7 16.9, 15.4 65.3, 28.5 50.6 C 27.4 43.1, 48.7 83.7, 50.7 76.0 C 57.0 59.9, 55.9 53.6, 54.6 66.8 C 63.1 68.5, 30.1 84.2, 23.6 98.8 C 20.8 84.8, 75.4 36.1, 66.7 40.1 C 49.6 56.4, 46.9 17.3, 39.4 31.6 C 23.1 46.4, 33.3 46.1, 19.1 60.1 C 27.2 74.9, 67.9 1.0, 75.0 2.5 Z" fill="hsl(86, 72%, 68%)" fill-opacity="0.27" stroke="none" stroke-width="2.51"  transform="translate(37.8 81.5) rotate(125.9) scale(1.57 1.71)" />
<path d="M 69.3 16.4 C 75.5 15.0, 40.5 0.0, 52.5 0.3 C 45.0 20.1, 2.9 70.7, 17.5 71.8 C 6.7 75.7, 9.0 91.4, 14.8 96.6 C 28.3 85.2, 27.5 34.1, 28.5 27.9 C 39.8 32.8, 85.2 73.0, 70.8 81.1 C 73.7 84.0, 8.0 61.2, 1.5 51.7 C 0.0 53.0, 0.1 79.9, 11.7 78.1 Z" fill="hsl(2, 82%, 55%)" fill-opacity="0.30" stroke="none" stroke-width="2.51"  transform="translate(79.8 16.8) rotate(279.6) scale(1.44 1.09)" />
<path d="M 1.7 8.5 C 11.6 15.1, 62.5 42.8, 57.0 39.2 C 42.4 27.6, 0.0 76.0, 3.2 76.8 C 6.4 61.2, 44.6 28.7, 35.8 16.9 C 54.1 32.1, 2.6 19.8, 7.9 21.8 C 10.0 12.9, 55.5 6.6, 46.6 12.5 C 36.5 5.8, 13.8 64.8, 21.6 49.9 C 3.2 69.1, 38.4 48.3, 27.7 45.9 Z" fill="none" fill-opacity="0.94" stroke="hsl(322, 74%, 44%)" stroke-width="2.29"  transform="translate(58.0 51.0) rotate(293.4) scale(0.53 1.69)" />
<path d="M 25.8 55.2 C 45.2 58.2, 12.2 49.6, 5.0 47.0 C 0.0 36.6, 62.3 21.4, 49.1 28.2 C 37.8 12.3, 38.7 84.5, 26.1 89.1 C 39.5 75.5, 51.9 56.7, 50.1 51.5 C 50.3 42.5, 21.6 29.7, 28.3 37.7 C 17.3 55.2, 6.5 17.9, 6.7 21.5 C 0.2 2.7, 69.2 31.5, 62.6 39.0 C 76.8 44.8, 41.4 0.0, 45.0 4.8 C 56.4 0.0, 39.5 21.1, 54.4 25.5 Z" fill="hsl(40, 53%, 69%)" fill-opacity="0.48" stroke="none" stroke-width="1.74"  transform="translate(9.3 76.4) rotate(184.5) scale(0.82 0.85)" />
<rect x="46.7" y="54.9" width="21.3" height="20.6" rx="0" fill="hsl(86, 72%, 68%)" fill-opacity="0.30"   transform="translate(21.5 92.3) rotate(237.2) scale(1.62 0.54)" />
<rect x="8.2" y="40.6" width="30.9" height="33.6" rx="0" fill="none" fill-opacity="0.72"   transform="translate(40.9 31.3) rotate(319.9) scale(0.50 0.62)" />
<path d="M 1.9 57.4 C 0.0 76.9, 57.5 82.9, 71.0 71.0 C 61.6 67.6, 42.1 22.3, 35.1 26.8 C 47.1 17.5, 71.1 42.0, 83.1 28.0 C 89.4 36.3, 34.0 100.0, 46.8 96.3 C 28.7 96.5, 72.5 29.8, 79.0 39.9 C 78.3 52.3, 53.3 9.4, 40.0 1.5 Z" fill="hsl(183, 71%, 60%)" fill-opacity="0.25" stroke="none" stroke-width="1.99"   />
<path d="M 10.8 48.4 C 0.0 32.7, 57.6 36.9, 69.6 29.1 C 76.0 9.6, 76.8 39.1, 68.5 53.8 C 74.0 43.8, 88.8 19.0, 81.3 28.6 C 87.1 46.3, 33.5 2.0, 19.1 6.1 C 20.2 23.2, 44.0 81.6, 35.8 77.2 C 41.8 93.2, 100.0 81.3, 97.6 81.7 Z" fill="hsl(104, 72%, 65%)" fill-opacity="0.29" stroke="none" stroke-width="3.83"  transform="translate(46.7 92.6) rotate(60.7) scale(1.05 1.12)" />
<path d="M 67.2 30.5 C 62.0 27.9, 98.2 72.1, 86.3 84.9 C 100.0 87.6, 44.3 92.9, 48.9 82.8 C 36.4 100.0, 79.6 0.0, 91.2 1.8 C 93.4 9.2, 52.5 66.7, 38.8 58.4 C 42.2 55.8, 68.7 72.1, 76.0 84.3 C 68.4 68.4, 65.5 88.1, 68.3 89.0 C 84.2 73.2, 0.0 91.3, 5.1 81.7 C 0.0 86.8, 6.7 49.4, 14.5 40.5 C 14.6 41.5, 84.7 87.5, 81.2 73.5 Z" fill="hsl(83, 65%, 44%)" fill-opacity="0.28" stroke="none" stroke-width="2.13"  transform="translate(39.9 76.3) rotate(245.1) scale(1.41 1.17)" />
<circle cx="76.9" cy="33.5" r="3.9" fill="hsl(322, 74%, 44%)" fill-opacity="0.89"  transform="translate(35.9 34.4) rotate(137.1) scale(0.62 1.90)" />
<path d="M 80.9 79.0 C 89.5 76.0, 18.1 95.5, 5.1 99.7 C 22.9 100.0, 52.9 16.2, 49.3 8.4 C 41.9 10.8, 81.9 78.5, 80.3 78.9 C 81.0 69.0, 65.7 39.3, 58.3 29.7 C 40.6 29.3, 19.5 21.6, 4.6 32.7 C 16.0 34.4, 87.3 79.4, 99.3 89.1 C 100.0 90.0, 61.5 28.5, 51.6 14.4 C 70.8 0.4, 9.6 89.2, 6.2 97.6 C 15.7 86.2, 32.3 79.1, 27.4 87.4 Z" fill="hsl(2, 82%, 55%)" fill-opacity="0.40" stroke="none" stroke-width="1.24"  transform="translate(70.0 65.6) rotate(163.8) scale(1.54 0.78)" />
<path d="M 90.8 31.2 C 100.0 21.0, 81.3 14.2, 72.8 4.5 C 64.8 0.0, 71.3 0.0, 61.0 1.1 C 49.1 0.0, 10.6 60.9, 25.3 46.9 C 12.8 57.8, 88.4 9.5, 91.6 8.2 C 78.2 10.2, 68.3 50.8, 65.4 49.7 C 53.9 64.2, 45.4 80.5, 57.7 94.3 C 74.1 89.1, 12.4 15.0, 2.0 23.2 C 5.8 13.8, 76.6 74.1, 75.9 66.3 C 91.5 47.8, 98.0 16.2, 94.5 1.9 C 100.0 0.0, 40.3 90.4, 29.6 80.8 Z" fill="hsl(83, 65%, 44%)" fill-opacity="0.95" stroke="none" stroke-width="4.01"  transform="translate(25.9 47.5) rotate(135.8) scale(1.82 0.76)" />
<circle cx="22.9" cy="65.0" r="6.2" fill="url(#g0)" fill-opacity="0.50"  transform="translate(13.3 41.5) rotate(351.2) scale(0.80 1.21)" />
<circle cx="13.9" cy="8.6" r="5.1" fill="hsl(322, 74%, 44%)" fill-opacity="0.86"  transform="translate(76.1 49.0) rotate(212.0) scale(1.78 0.52)" />
<circle cx="48.3" cy="23.1" r="10.6" fill="hsl(151, 70%, 62%)" fill-opacity="0.65"  transform="translate(44.4 91.5) rotate(138.0) scale(0.52 1.65)" />
<rect x="3.4" y="40.0" width="47.6" height="17.0" rx="3.0" fill="none" fill-opacity="0.48"   transform="translate(21.9 45.6) rotate(227.4) scale(0.70 0.81)" />
<circle cx="35.1" cy="43.6" r="8.9" fill="url(#g2)" fill-opacity="0.63"  transform="translate(49.1 9.4) rotate(41.7) scale(1.89 1.82)" />
<circle cx="50.1" cy="77.2" r="4.4" fill="hsl(144, 86%, 72%)" fill-opacity="0.71"  transform="translate(15.7 75.0) rotate(294.7) scale(0.88 0.72)" />
<circle cx="14.3" cy="22.4" r="8.7" fill="url(#g1)" fill-opacity="0.94"  transform="translate(0.4 43.2) rotate(192.0) scale(1.35 0.89)" />
<rect x="5.9" y="37.9" width="40.7" height="26.0" rx="8.9" fill="hsl(151, 70%, 62%)" fill-opacity="0.41" stroke="hsl(40, 53%, 69%)" stroke-width="4.7"  transform="translate(64.8 25.4) rotate(323.1) scale(1.32 1.82)" />
<path d="M 54.5 94.0 C 59.9 93.2, 37.4 24.0, 30.7 15.8 C 34.8 32.9, 65.5 29.5, 55.7 38.3 C 67.8 18.8, 55.7 10.8, 42.6 25.3 C 58.2 18.9, 69.4 20.2, 79.9 5.8 C 71.9 17.3, 56.4 64.7, 54.3 55.6 C 48.1 38.8, 19.3 100.0, 34.2 97.9 C 34.0 100.0, 35.1 75.5, 29.3 88.6 Z" fill="none" fill-opacity="0.55" stroke="hsl(151, 70%, 62%)" stroke-width="4.28"  transform="translate(18.9 62.6) rotate(352.3) scale(0.61 1.05)" />
<path d="M 38.2 74.8 C 40.1 88.3, 63.5 36.7, 65.2 37.3 C 79.2 29.3, 58.8 30.9, 52.9 19.5 C 69.8 5.7, 94.5 100.0, 92.1 94.1 C 82.5 82.3, 67.5 70.8, 70.4 80.7 C 70.9 95.5, 31.1 56.9, 23.8 55.5 C 21.8 73.0, 22.5 43.8, 21.9 42.1 Z" fill="none" fill-opacity="0.82" stroke="hsl(83, 65%, 44%)" stroke-width="3.28"  transform="translate(15.2 69.4) rotate(296.6) scale(1.16 1.19)" />
<rect x="61.9" y="15.5" width="24.8" height="16.3" rx="0" fill="none" fill-opacity="0.69" stroke="hsl(86, 72%, 68%)" stroke-width="2.4"  transform="translate(21.7 73.4) rotate(150.7) scale(0.88 1.39)" />
<path d="M 36.8 29.1 C 56.1 23.4, 100.0 57.4, 90.5 62.8 C 81.4 74.6, 100.0 23.0, 92.7 12.4 C 74.2 16.6, 31.4 0.2, 38.8 7.3 C 34.5 19.9, 77.0 59.6, 89.7 72.9 C 83.4 67.9, 49.0 26.9, 56.3 27.0 C 65.1 26.8, 45.4 47.1, 44.7 60.8 C 44.7 80.3, 31.5 83.3, 30.3 78.1 C 49.5 89.1, 29.6 68.8, 22.2 54.7 Z" fill="hsl(40, 53%, 69%)" fill-opacity="0.39" stroke="none" stroke-width="3.22" filter="url(#f1)" transform="translate(95.9 42.7) rotate(147.2) scale(1.06 1.51)" />
<rect x="34.6" y="9.6" width="25.5" height="35.3" rx="8.3" fill="hsl(83, 65%, 44%)" fill-opacity="0.55" stroke="hsl(290, 83%, 63%)" stroke-width="3.8"  transform="translate(23.6 1.6) rotate(241.3) scale(0.81 1.48)" />
<path d="M 46.4 72.0 C 64.5 66.4, 69.0 78.3, 59.4 83.7 C 79.0 77.0, 52.2 32.1, 55.6 41.9 C 65.8 30.9, 58.9 30.9, 46.8 42.0 C 61.6 51.4, 21.9 4.2, 25.5 9.5 C 32.6 11.3, 24.6 16.4, 28.0 30.5 C 45.9 12.2, 100.0 27.1, 89.5 12.5 C 93.0 0.1, 64.2 13.8, 66.8 21.0 Z" fill="none" fill-opacity="0.36" stroke="hsl(322, 74%, 44%)" stroke-width="4.14"  transform="translate(69.8 96.1) rotate(135.3) scale(2.00 1.18)" />
<circle cx="48.9" cy="7.1" r="2.6" fill="hsl(106, 75%, 59%)" fill-opacity="0.93"  transform="translate(15.3 89.9) rotate(337.0) scale(1.99 1.61)" />
<rect x="25.0" y="45.4" width="49.6" height="34.6" rx="11.0" fill="none" fill-opacity="0.46" stroke="hsl(106, 75%, 59%)" stroke-width="2.9"  transform="translate(98.6 64.8) rotate(155.7) scale(0.77 1.79)" />
<g opacity="0.035">
<rect x="0" y="0" width="1" height="100" fill="black" />
<rect x="22" y="0" width="1" height="100" fill="black" />
<rect x="44" y="0" width="1" height="100" fill="black" />
<rect x="66" y="0" width="1" height="100" fill="black" />
<rect x="88" y="0" width="1" height="100" fill="black" />
<rect x="0" y="0" width="100" height="1" fill="black" />
<rect x="0" y="22" width="100" height="1" fill="black" />
<rect x="0" y="44" width="100" height="1" fill="black" />
<rect x="0" y="66" width="100" height="1" fill="black" />
<rect x="0" y="88" width="100" height="1" fill="black" />
</g>

</svg>
