<?xml version="1.0" encoding="UTF-8"?>
<svg xmlns="http://www.w3.org/2000/svg" width="100" height="100" viewBox="0 0 100 100">
<defs>
<linearGradient id="g0" x1="0%" y1="0%" x2="100%" y2="100%">
<stop offset="0.0%" stop-color="hsl(106, 75%, 59%)" />
<stop offset="33.3%" stop-color="hsl(183, 71%, 60%)" />
<stop offset="66.7%" stop-color="hsl(242, 72%, 49%)" />
<stop offset="100.0%" stop-color="hsl(322, 74%, 44%)" />
</linearGradient>
<linearGradient id="g1" x1="0%" y1="0%" x2="100%" y2="100%">
<stop offset="0.0%" stop-color="hsl(290, 83%, 63%)" />
<stop offset="33.3%" stop-color="hsl(2, 82%, 55%)" />
<stop offset="66.7%" stop-color="hsl(86, 72%, 68%)" />
<stop offset="100.0%" stop-color="hsl(83, 65%, 44%)" />
</linearGradient>
<linearGradient id="g2" x1="0%" y1="0%" x2="100%" y2="100%">
<stop offset="0.0%" stop-color="hsl(40, 53%, 69%)" />
<stop offset="33.3%" stop-color="hsl(104, 72%, 65%)" />
<stop offset="66.7%" stop-color="hsl(144, 86%, 72%)" />
<stop offset="100.0%" stop-color="hsl(151, 70%, 62%)" />
</linearGradient>
<filter id="f1" x="-20%" y="-20%" width="140%" height="140%">
  <feGaussianBlur stdDeviation="1.483314126603604" />
</filter>

</defs>

<path d="M 93.3 32.2 C 100.0 36.6, 59.5 87.6, 46.9 85.9 C 33.9 99.6, 9.1 35.3, 23.2 43.5 C 28.9 43.7, 51.5 21.0, 63.0 20.4 C 71.8 34.9, 72.2 7.4, 82.4 22.0 C 81.2 40.6, 77.7 91.2, 82.9 98.0 C 97.0 79.8, 28.1 31.6, 39.5 37.1 C 23.7 43.4, 70.6 85.9, 80.7 89.8 Z" fill="hsl(83, 65%, 44%)" fill-opacity="1.00" stroke="none" stroke-width="2.56"  transform="translate(81.9 80.2) rotate(22.0) scale(1.61 1.82)" />
<path d="M 56.5 26.2 C 46.9 11.9, 16.5 90.6, 9.3 91.9 C 25.7 98.8, 58.8 96.2, 56.6 91.3 C 74.3 80.8, 78.0 62.9, 80.7 56.9 C 85.5 54.6, 3.5 39.1, 2.9 40.6 C 0.0 31.2, 9.5 90.3, 22.0 86.8 C 6.4 78.2, 37.4 86.9, 43.6 73.0 Z" fill="hsl(86, 72%, 68%)" fill-opacity="0.55" stroke="none" stroke-width="2.65"  transform="translate(39.3 21.4) rotate(204.5) scale(1.08 1.80)" />
<rect x="69.3" y="39.8" width="29.9" height="20.4" rx="0" fill="none" fill-opacity="0.41" stroke="hsl(104, 72%, 65%)" stroke-width="2.6" filter="url(#f1)" transform="translate(52.6 82.3) rotate(268.8) scale(1.96 1.96)" />
<circle cx="43.9" cy="68.4" r="10.2" fill="hsl(104, 72%, 65%)" fill-opacity="0.58"  transform="translate(22.1 67.2) rotate(294.9) scale(1.56 0.63)" />
<circle cx="28.0" cy="59.9" r="4.3" fill="hsl(144, 86%, 72%)" fill-opacity="0.92"  transform="translate(45.6 7.3) rotate(305.2) scale(1.33 1.38)" />
<rect x="37.6" y="41.7" width="30.2" height="32.6" rx="7.6" fill="hsl(322, 74%, 44%)" fill-opacity="0.57" stroke="hsl(106, 75%, 59%)" stroke-width="1.1" filter="url(#f1)" transform="translate(50.0 41.2) rotate(197.0) scale(0.65 0.92)" />
<rect x="33.7" y="66.9" width="28.8" height="16.3" rx="9.3" fill="hsl(86, 72%, 68%)" fill-opacity="0.93" stroke="hsl(2, 82%, 55%)" stroke-width="4.0"  transform="translate(89.1 24.1) rotate(91.0) scale(1.26 1.87)" />
<path d="M 11.5 11.7 C 21.6 1.8, 98.4 68.8, 89.7 71.3 C 75.0 85.5, 42.3 74.3, 35.5 88.8 C 37.8 100.0, 42.3 45.4, 53.9 42.6 C 47.1 31.7, 74.2 90.4, 71.2 77.7 C 83.1 83.5, 93.2 39.1, 98.9 29.5 C 99.0 25.7, 5.7 61.0, 1.5 55.1 C 0.0 44.3, 31.2 67.2, 22.4 68.4 Z" fill="hsl(104, 72%, 65%)" fill-opacity="0.56" stroke="none" stroke-width="3.60"  transform="translate(66.9 43.4) rotate(79.9) scale(0.64 1.37)" />
<rect x="60.1" y="72.9" width="23.6" height="17.1" rx="0" fill="hsl(183, 71%, 60%)" fill-opacity="0.80" stroke="hsl(106, 75%, 59%)" stroke-width="2.8"  transform="translate(17.9 54.1) rotate(77.3) scale(1.68 1.86)" />
<path d="M 52.9 33.8 C 53.6 19.4, 32.9 33.3, 30.3 37.3 C 22.8 18.9, 52.5 99.0, 58.9 86.8 C 58.3 99.2, 57.4 33.1, 62.4 36.7 C 75.4 48.3, 92.8 24.7, 94.7 33.4 C 78.0 29.3, 61.4 35.3, 49.2 42.8 C 49.8 49.6, 90.9 75.1, 78.7 73.5 C 78.9 92.0, 95.7 12.3, 91.4 0.5 C 95.6 19.0, 77.6 43.0, 69.4 45.1 Z" fill="none" fill-opacity="0.53" stroke="hsl(83, 65%, 44%)" stroke-width="5.18"  transform="translate(83.9 52.7) rotate(299.3) scale(0.94 1.65)" />
<rect x="16.7" y="69.7" width="47.3" height="10.2" rx="0" fill="hsl(106, 75%, 59%)" fill-opacity="0.83"   transform="translate(82.9 5.9) rotate(345.3) scale(1.06 1.51)" />
<path d="M 53.9 42.9 C 36.4 61.5, 72.1 58.7, 78.5 45.0 C 66.6 56.5, 92.5 24.6, 79.3 9.8 C 79.2 21.3, 97.4 14.8, 96.7 17.3 C 100.0 9.1, 56.0 88.0, 56.6 91.1 C 53.2 91.5, 62.7 61.0, 60.6 62.0 C 69.0 72.5, 100.0 61.1, 99.3 59.8 C 100.0 52.1, 6.2 17.9, 8.0 4.2 Z" fill="hsl(83, 65%, 44%)" fill-opacity="0.70" stroke="none" stroke-width="1.34"  transform="translate(97.3 38.8) rotate(8.4) scale(0.50 1.46)" />
<path d="M 10.4 54.2 C 28.5 45.9, 39.1 57.4, 26.0 65.7 C 17.8 69.9, 19.0 16.9, 6.4 13.3 C 15.9 15.3, 96.4 25.5, 93.7 28.8 C 100.0 26.5, 5.3 64.9, 3.6 63.7 C 0.0 82.7, 97.6 76.0, 92.2 79.5 C 72.5 63.3, 70.9 9.1, 79.1 2.8 C 77.9 0.0, 76.4 70.4, 77.6 83.6 C 94.0 64.3, 13.3 39.1, 1.5 24.6 C 0.0 15.2, 98.4 38.9, 96.5 46.4 C 100.0 36.2, 16.4 63.4, 11.0 60.7 Z" fill="hsl(151, 70%, 62%)" fill-opacity="0.33" stroke="none" stroke-width="2.50"  transform="translate(38.2 57.2) rotate(58.7) scale(1.96 1.91)" />
<rect x="0.9" y="48.9" width="32.6" height="36.5" rx="0" fill="none" fill-opacity="0.57" stroke="hsl(151, 70%, 62%)" stroke-width="1.1"  transform="translate(28.6 81.1) rotate(198.3) scale(0.78 0.72)" />
<path d="M 43.9 38.0 C 30.9 51.4, 19.9 57.3, 28.6 43.2 C 44.9 57.3, 26.8 93.5, 20.9 99.3 C 19.4 93.5, 98.4 86.2, 99.4 89.3 C 100.0 83.2, 67.3 68.6, 63.8 55.8 C 53.3 55.5, 53.8 21.4, 58.4 33.0 C 43.2 18.4, 32.8 25.4, 33.5 11.7 Z" fill="hsl(290, 83%, 63%)" fill-opacity="0.93" stroke="none" stroke-width="1.13"  transform="translate(26.0 86.6) rotate(89.4) scale(0.91 0.93)" />
<rect x="41.5" y="65.8" width="23.0" height="25.7" rx="0" fill="none" fill-opacity="0.87"  filter="url(#f1)" transform="translate(30.9 8.9) rotate(14.8) scale(1.00 1.03)" />
<path d="M 4.8 45.6 C 0.0 63.6, 100.0 29.9, 98.9 15.3 C 100.0 17.1, 76.7 50.7, 86.1 38.2 C 87.8 45.8, 69.9 8.5, 79.9 15.1 C 99.4 3.4, 95.7 80.2, 96.7 71.0 C 76.9 55.6, 62.6 93.9, 49.1 83.6 C 29.3 77.0, 51.4 25.2, 62.6 32.7 Z" fill="none" fill-opacity="0.37" stroke="hsl(86, 72%, 68%)" stroke-width="3.48"  transform="translate(49.6 33.6) rotate(281.4) scale(1.21 1.04)" />
<rect x="32.9" y="0.1" width="43.5" height="22.0" rx="0" fill="none" fill-opacity="0.33"   transform="translate(83.8 61.2) rotate(157.5) scale(0.93 0.54)" />
<rect x="34.9" y="13.8" width="36.1" height="25.9" rx="0" fill="hsl(83, 65%, 44%)" fill-opacity="0.48" stroke="hsl(290, 83%, 63%)" stroke-width="2.8"   />
<circle cx="69.7" cy="74.2" r="6.1" fill="hsl(151, 70%, 62%)" fill-opacity="0.55"   />
<path d="M 1.5 93.5 C 0.0 78.8, 37.7 59.5, 36.6 50.5 C 43.7 51.2, 49.9 62.0, 61.6 72.3 C 73.3 91.9, 32.0 53.4, 35.6 55.2 C 28.3 40.9, 77.9 22.7, 79.2 9.1 C 68.1 0.0, 21.2 58.9, 11.1 50.4 C 3.7 64.3, 35.9 17.9, 35.7 10.3 Z" fill="hsl(322, 74%, 44%)" fill-opacity="0.46" stroke="none" stroke-width="2.88"  transform="translate(94.1 11.1) rotate(344.9) scale(0.82 0.71)" />
<rect x="20.1" y="27.6" width="41.9" height="33.7" rx="0" fill="hsl(144, 86%, 72%)" fill-opacity="0.57"   transform="translate(13.9 58.7) rotate(117.0) scale(1.05 1.89)" />
<path d="M 45.8 98.2 C 29.3 97.2, 66.3 53.8, 59.6 49.1 C 51.6 67.6, 20.2 0.0, 6.0 10.5 C 9.4 0.0, 35.5 89.5, 42.2 90.7 C 46.5 100.0, 100.0 56.7, 94.7 44.8 C 100.0 44.8, 31.8 93.0, 23.1 84.3 C 11.1 71.1, 75.0 6.6, 64.9 19.7 C 46.7 0.8, 78.8 31.7, 92.2 32.5 C 76.8 12.9, 92.6 81.2, 84.6 93.2 C 92.0 100.0, 0.0 93.0, 2.8 80.3 C 0.0 92.2, 59.1 83.8, 67.3 72.3 Z" fill="none" fill-opacity="0.29" stroke="hsl(290, 83%, 63%)" stroke-width="4.76"  transform="translate(7.9 70.2) rotate(213.4) scale(1.02 0.95)" />
<path d="M 51.7 65.7 C 48.3 49.1, 85.2 60.3, 76.5 52.9 C 73.5 42.9, 34.8 60.1, 39.6 59.9 C 36.1 63.3, 62.9 11.4, 68.5 18.7 C 82.0 31.9, 28.8 55.7, 42.2 64.8 C 38.2 48.7, 58.2 38.7, 53.7 29.0 C 36.7 19.2, 63.0 61.0, 57.7 56.8 C 46.7 71.3, 82.9 0.0, 79.3 3.2 C 94.9 19.3, 62.1 20.1, 51.4 5.5 C 38.0 0.0, 100.0 78.2, 92.7 75.1 C 75.2 68.0, 9.8 67.8, 18.7 57.6 Z" fill="hsl(242, 72%, 49%)" fill-opacity="0.53" stroke="none" stroke-width="4.18"  transform="translate(21.9 56.6) rotate(330.1) scale(1.97 0.77)" />
<path d="M 83.7 55.6 C 86.9 56.7, 80.3 62.8, 70.1 55.8 C 82.2 57.3, 59.3 64.7, 53.9 75.7 C 59.1 85.5, 43.6 3.7, 49.8 4.4 C 64.7 17.4, 29.2 82.1, 34.3 67.4 C 40.5 51.4, 73.6 65.5, 67.8 74.2 C 60.1 80.6, 40.3 35.0, 28.1 41.5 C 15.6 51.7, 35.8 27.6, 43.5 36.9 Z" fill="none" fill-opacity="0.69" stroke="hsl(290, 83%, 63%)" stroke-width="3.80"  transform="translate(26.4 28.0) rotate(231.5) scale(0.63 0.57)" />
<rect x="59.5" y="59.0" width="32.0" height="19.8" rx="5.0" fill="hsl(86, 72%, 68%)" fill-opacity="0.52" stroke="hsl(86, 72%, 68%)" stroke-width="1.6"   />
<path d="M 62.6 75.6 C 47.9 67.4, 91.0 30.4, 84.0 20.2 C 70.9 26.7, 37.9 35.3, 37.8 40.0 C 53.8 22.4, 19.5 23.7, 5.7 28.2 C 0.0 17.8, 0.0 75.8, 2.3 65.3 C 17.0 82.5, 45.2 0.0, 47.1 3.8 C 54.0 0.0, 41.1 95.3, 54.0 95.4 C 67.3 100.0, 18.8 11.0, 22.7 21.1 C 30.8 9.1, 84.0 70.6, 93.5 75.2 C 98.9 60.5, 25.5 82.9, 25.1 69.7 C 21.8 70.6, 36.2 63.0, 42.6 60.2 Z" fill="hsl(144, 86%, 72%)" fill-opacity="0.56" stroke="none" stroke-width="2.82"  transform="translate(60.8 1.7) rotate(350.1) scale(1.82 1.36)" />
<circle cx="6.7" cy="57.8" r="14.7" fill="url(#g2)" fill-opacity="0.89"  transform="translate(78.3 52.9) rotate(39.6) scale(0.80 1.44)" />
<path d="M 58.4 28.0 C 69.3 8.9, 61.5 8.9, 53.2 22.3 C 59.3 6.2, 15.5 49.7, 12.0 52.1 C 5.3 65.3, 52.0 92.0, 49.2 82.9 C 54.1 83.2, 100.0 19.3, 95.5 27.7 C 93.8 25.4, 48.1 64.0, 45.9 54.1 C 41.5 55.3, 20.1 100.0, 27.4 96.5 C 14.7 80.6, 57.0 0.0, 46.5 2.0 C 61.2 0.0, 7.5 49.0, 22.2 62.3 Z" fill="hsl(106, 75%, 59%)" fill-opacity="0.32" stroke="none" stroke-width="4.68"  transform="translate(45.7 48.2) rotate(59.0) scale(1.45 1.76)" />
<rect x="48.2" y="47.5" width="23.1" height="21.8" rx="0" fill="hsl(2, 82%, 55%)" fill-opacity="0.29" stroke="hsl(2, 82%, 55%)" stroke-width="4.3"  transform="translate(77.6 79.2) rotate(301.1) scale(1.59 1.38)" />
<rect x="41.9" y="6.8" width="40.8" height="23.9" rx="0" fill="none" fill-opacity="0.27"   transform="translate(16.9 40.4) rotate(133.8) scale(1.99 1.25)" />
<path d="M 39.4 69.6 C 21.8 86.7, 47.9 100.0, 59.2 93.1 C 69.2 80.8, 75.6 80.9, 85.5 77.2 C 99.4 72.6, 89.1 82.2, 77.1 76.4 C 70.8 88.0, 80.0 13.6, 66.2 16.9 C 61.8 2.6, 79.4 100.0, 83.2 99.0 C 89.2 100.0, 49.1 19.0, 36.7 22.0 C 32.5 35.7, 55.4 52.2, 54.3 47.7 C 61.6 56.5, 68.3 67.3, 73.6 66.7 C 54.2 48.9, 65.8 68.7, 77.2 80.1 C 73.1 72.4, 76.7 20.5, 86.7 15.7 Z" fill="hsl(183, 71%, 60%)" fill-opacity="0.50" stroke="none" stroke-width="5.25"  transform="translate(82.5 23.9) rotate(68.3) scale(0.93 0.96)" />
<circle cx="34.1" cy="44.3" r="13.9" fill="url(#g1)" fill-opacity="0.94"  transform="translate(83.0 62.9) rotate(87.3) scale(1.92 1.86)" />
<circle cx="94.2" cy="67.4" r="7.6" fill="url(#g0)" fill-opacity="0.43"  transform="translate(57.8 80.0) rotate(36.2) scale(1.04 0.77)" />
<path d="M 57.0 88.3 C 53.5 76.3, 44.0 89.7, 49.0 98.4 C 38.5 89.6, 36.3 62.6, 37.5 55.2 C 18.7 45.4, 9.6 93.1, 3.1 89.4 C 0.0 83.5, 0.5 2.4, 7.4 1.8 C 23.4 0.0, 43.7 68.4, 40.8 77.2 C 57.4 93.8, 59.0 8.7, 65.9 8.8 C 51.0 24.8, 83.2 20.3, 91.6 18.5 C 100.0 23.3, 54.6 71.7, 56.3 86.3 C 47.6 68.4, 76.2 56.6, 84.7 57.3 " fill="hsl(83, 65%, 44%)" fill-opacity="0.60" stroke="none" stroke-width="4.21"   />
<path d="M 9.7 63.2 C 26.7 78.7, 5.8 60.3, 1.0 69.8 C 0.0 69.2, 25.9 73.4, 12.8 64.4 C 27.0 73.3, 98.8 46.2, 96.6 35.7 C 94.3 47.1, 26.6 0.0, 36.2 6.8 C 50.3 14.8, 28.9 3.3, 25.8 12.2 C 8.4 24.5, 69.1 60.6, 60.3 72.0 C 43.4 86.0, 76.3 52.1, 68.1 61.2 Z" fill="hsl(290, 83%, 63%)" fill-opacity="0.75" stroke="none" stroke-width="3.65"  transform="translate(89.0 36.0) rotate(107.8) scale(1.27 1.36)" />
<circle cx="32.2" cy="62.2" r="3.9" fill="hsl(183, 71%, 60%)" fill-opacity="0.62"  transform="translate(41.0 61.5) rotate(72.2) scale(1.63 0.73)" />
<circle cx="15.6" cy="40.5" r="2.2" fill="url(#g0)" fill-opacity="0.81"  transform="translate(96.3 73.9) rotate(44.7) scale(0.61 1.68)" />
<path d="M 65.7 30.5 C 45.9 25.3, 6.1 10.8, 0.1 9.3 C 11.2 21.0, 50.4 26.4, 52.4 31.6 C 45.8 30.2, 25.9 65.8, 22.8 65.4 C 38.8 61.5, 0.0 28.0, 6.4 29.4 C 25.0 38.9, 94.0 55.3, 95.9 63.5 C 100.0 63.8, 42.9 63.4, 42.4 75.4 C 62.4 55.8, 7.6 15.8, 12.9 28.0 C 12.3 22.2, 63.2 0.0, 53.9 9.1 C 57.8 10.3, 52.3 1.4, 39.3 1.0 " fill="hsl(183, 71%, 60%)" fill-opacity="0.54" stroke="none" stroke-width="4.15"  transform="translate(21.3 58.8) rotate(28.2) scale(1.24 1.16)" />
<rect x="29.6" y="7.4" width="32.1" height="39.7" rx="0" fill="hsl(322, 74%, 44%)" fill-opacity="0.31"   transform="translate(97.4 53.2) rotate(264.5) scale(1.03 0.68)" />
<rect x="21.9" y="19.8" width="41.8" height="33.7" rx="0" fill="hsl(104, 72%, 65%)" fill-opacity="1.00"   transform="translate(47.5 40.7) rotate(301.9) scale(1.39 0.71)" />
<rect x="16.6" y="20.1" width="37.1" height="22.1" rx="5.7" fill="none" fill-opacity="0.44" stroke="hsl(86, 72%, 68%)" stroke-width="2.2"  transform="translate(15.5 39.8) rotate(274.3) scale(1.83 0.75)" />
<path d="M 56.4 64.8 C 54.9 65.2, 97.8 43.8, 94.4 41.6 C 92.4 52.5, 43.1 80.1, 54.7 78.9 C 39.4 90.2, 78.8 23.3, 86.8 29.0 C 81.8 30.8, 58.4 23.0, 50.0 18.4 C 67.9 24.6, 19.0 95.9, 12.9 90.8 C 7.7 98.2, 33.8 50.5, 32.2 59.7 C 47.6 62.4, 53.1 96.5, 57.2 84.1 C 43.4 88.9, 11.8 72.0, 0.5 75.9 C 15.5 69.5, 40.1 49.5, 29.2 48.5 C 11.6 42.0, 76.6 29.1, 81.2 27.8 Z" fill="hsl(144, 86%, 72%)" fill-opacity="0.43" stroke="none" stroke-width="1.82"  transform="translate(99.3 39.2) rotate(283.1) scale(1.69 0.58)" />
<path d="M 12.9 26.1 C 0.1 25.4, 51.5 0.0, 57.6 3.3 C 44.1 4.3, 26.1 19.7, 36.8 9.7 C 25.8 29.5, 93.3 44.0, 96.2 44.8 C 82.1 59.8, 89.7 72.2, 88.4 77.0 C 68.4 63.4, 78.4 40.4, 66.5 44.8 C 55.2 63.7, 13.8 49.2, 8.2 47.6 C 0.0 64.5, 61.4 93.3, 51.5 93.2 C 57.2 99.4, 28.7 79.7, 27.3 72.4 C 28.6 73.7, 36.5 74.3, 26.0 80.1 C 45.7 84.4, 64.2 27.1, 59.3 21.8 Z" fill="hsl(86, 72%, 68%)" fill-opacity="0.75" stroke="none" stroke-width="2.31"  transform="translate(3.6 94.8) rotate(66.3) scale(1.18 1.55)" />
<path d="M 89.6 62.0 C 76.1 66.1, 57.9 88.3, 58.4 73.8 C 43.4 88.5, 62.2 90.9, 65.9 93.1 C 81.3 88.1, 100.0 91.7, 97.6 97.8 C 100.0 100.0, 100.0 86.6, 96.7 79.5 C 96.6 86.6, 28.7 35.1, 27.4 49.7 C 26.6 61.9, 69.2 94.1, 56.4 91.0 Z" fill="hsl(86, 72%, 68%)" fill-opacity="0.83" stroke="none" stroke-width="1.19"  transform="translate(69.9 34.4) rotate(48.2) scale(0.94 1.09)" />
<rect x="13.2" y="60.3" width="32.6" height="25.1" rx="9.2" fill="none" fill-opacity="0.68"   transform="translate(76.9 12.6) rotate(354.2) scale(1.39 0.85)" />
<path d="M 92.9 91.0 C 100.0 97.8, 76.8 56.6, 74.2 58.9 C 61.7 46.5, 74.6 62.9, 85.1 54.2 C 73.4 45.7, 28.1 91.3, 19.4 83.2 C 10.5 80.2, 0.0 70.1, 3.4 68.2 C 2.5 85.0, 91.9 36.1, 99.9 32.9 C 81.9 29.8, 0.0 66.3, 11.7 64.7 Z" fill="none" fill-opacity="0.40" stroke="hsl(106, 75%, 59%)" stroke-width="5.13" filter="url(#f1)"  />
<path d="M 68.6 24.3 C 57.9 37.6, 22.4 45.4, 14.1 52.8 C 29.0 41.0, 22.8 8.0, 24.4 5.6 C 12.2 0.0, 16.4 14.6, 29.4 6.4 C 23.7 0.0, 14.5 11.7, 13.9 25.0 C 27.5 16.3, 61.3 84.9, 56.9 85.7 C 38.8 97.1, 39.0 60.2, 49.7 62.1 C 41.1 60.6, 53.1 96.9, 58.7 93.8 C 69.3 97.3, 77.5 24.7, 71.3 16.7 C 67.4 35.2, 77.2 100.0, 66.2 96.6 C 47.0 80.6, 79.8 27.0, 67.3 22.6 Z" fill="hsl(104, 72%, 65%)" fill-opacity="0.54" stroke="none" stroke-width="2.56"  transform="translate(18.1 96.9) rotate(71.5) scale(0.64 0.83)" />
<rect x="21.0" y="33.1" width="46.3" height="23.8" rx="16.8" fill="none" fill-opacity="0.24"   transform="translate(33.2 64.5) rotate(64.2) scale(0.51 1.03)" />
<path d="M 88.5 84.0 C 80.2 93.1, 73.6 5.2, 67.3 11.5 C 70.0 7.3, 100.0 29.7, 94.4 27.2 C 79.4 28.0, 77.6 27.3, 89.0 13.8 C 74.8 14.5, 60.7 78.1, 57.4 90.5 C 59.3 100.0, 78.7 67.1, 77.9 78.1 C 58.1 97.6, 0.0 32.2, 8.6 36.0 Z" fill="hsl(83, 65%, 44%)" fill-opacity="0.81" stroke="none" stroke-width="5.29"  transform="translate(12.1 84.3) rotate(183.5) scale(0.74 1.89)" />
<rect x="41.6" y="49.4" width="39.0" height="37.6" rx="0" fill="hsl(106, 75%, 59%)" fill-opacity="0.78"   transform="translate(28.6 86.0) rotate(44.9) scale(1.91 1.56)" />
<path d="M 58.8 18.8 C 63.8 37.8, 55.2 0.0, 63.8 2.8 C 44.4 14.7, 92.5 78.5, 99.9 89.7 C 100.0 100.0, 80.1 100.0, 65.5 98.3 C 60.9 97.6, 100.0 100.0, 87.9 99.4 C 84.4 94.1, 61.4 68.5, 69.4 79.9 C 83.9 91.6, 82.3 54.7, 81.1 60.7 C 67.7 79.6, 46.0 55.6, 31.1 48.4 C 19.6 32.3, 50.7 18.4, 47.4 25.7 " fill="none" fill-opacity="0.56" stroke="hsl(83, 65%, 44%)" stroke-width="2.88" filter="url(#f1)" transform="translate(34.7 35.1) rotate(3.0) scale(1.21 0.61)" />
<path d="M 63.9 32.7 C 61.9 47.5, 98.0 100.0, 94.3 100.0 C 81.4 90.7, 6.0 38.7, 15.1 29.6 C 13.4 44.6, 19.9 32.3, 6.0 36.2 C 9.8 50.1, 46.2 29.5, 31.7 15.6 C 15.6 12.8, 28.5 83.1, 32.2 77.3 C 20.0 58.9, 100.0 87.8, 87.4 80.7 C 100.0 82.9, 91.8 23.3, 78.4 23.7 C 75.4 6.3, 57.7 50.4, 54.0 53.6 C 51.6 72.8, 40.9 11.2, 32.1 10.3 C 36.3 0.0, 100.0 75.9, 99.6 89.9 Z" fill="hsl(151, 70%, 62%)" fill-opacity="0.79" stroke="none" stroke-width="3.83"  transform="translate(40.9 15.2) rotate(230.6) scale(1.81 1.51)" />
<circle cx="34.2" cy="20.1" r="3.9" fill="hsl(322, 74%, 44%)" fill-opacity="0.71" filter="url(#f1)" transform="translate(87.1 41.7) rotate(183.1) scale(0.98 0.88)" />
<rect x="16.5" y="57.6" width="34.8" height="40.0" rx="0" fill="none" fill-opacity="0.93"   transform="translate(41.9 87.6) rotate(115.2) scale(1.49 0.98)" />
<circle cx="45.3" cy="43.8" r="13.7" fill="url(#g0)" fill-opacity="0.88"   />
<circle cx="42.4" cy="6.0" r="2.4" fill="hsl(40, 53%, 69%)" fill-opacity="0.72"  transform="translate(28.4 78.3) rotate(186.9) scale(1.29 0.86)" />
<circle cx="80.7" cy="95.6" r="15.5" fill="url(#g2)" fill-opacity="0.57"   />
<path d="M 61.6 16.0 C 61.9 25.6, 25.0 63.6, 14.1 69.7 C 9.4 52.8, 79.1 49.1, 67.2 61.0 C 54.2 48.9, 55.2 29.5, 69.9 15.2 C 81.7 0.4, 32.1 87.9, 31.7 73.0 C 32.1 62.7, 100.0 35.5, 99.6 32.1 C 100.0 17.2, 62.1 55.9, 56.2 70.6 C 66.5 85.6, 75.9 85.4, 78.5 84.5 C 66.2 90.7, 69.5 7.1, 65.2 16.1 C 64.6 28.9, 47.7 19.0, 49.9 24.9 C 69.9 42.7, 3.5 27.4, 17.4 17.5 " fill="hsl(151, 70%, 62%)" fill-opacity="0.30" stroke="none" stroke-width="5.03"  transform="translate(11.6 28.2) rotate(264.9) scale(1.81 0.76)" />
<path d="M 89.2 75.7 C 75.0 59.7, 8.0 65.3, 15.2 56.3 C 0.0 61.3, 2.2 64.8, 5.5 55.9 C 10.3 68.4, 17.4 0.0, 10.0 10.7 C 27.4 8.6, 74.4 81.8, 60.6 71.0 C 66.7 61.9, 27.2 88.1, 22.3 96.1 C 18.1 98.8, 70.7 21.2, 75.2 24.4 C 79.9 27.7, 94.5 6.3, 97.8 9.5 C 81.6 3.3, 39.7 44.6, 41.0 45.9 C 24.0 51.4, 48.2 94.5, 38.4 82.0 C 53.9 62.6, 68.5 12.4, 55.1 1.3 Z" fill="none" fill-opacity="0.65" stroke="hsl(242, 72%, 49%)" stroke-width="3.13"  transform="translate(77.7 28.3) rotate(17.3) scale(1.18 1.48)" />
<path d="M 89.4 22.3 C 100.0 27.7, 16.1 59.4, 17.0 71.0 C 1.2 75.4, 39.4 63.8, 42.0 60.7 C 25.2 69.0, 77.6 88.4, 87.8 81.9 C 91.4 84.6, 94.2 25.7, 94.9 12.5 C 100.0 7.8, 47.1 57.3, 47.2 51.6 C 53.3 67.7, 93.1 53.7, 83.7 63.7 C 87.1 71.9, 11.0 48.2, 6.0 34.7 C 4.3 16.8, 70.3 70.6, 83.3 84.7 C 84.9 76.0, 99.1 12.4, 85.9 10.5 Z" fill="none" fill-opacity="0.33" stroke="hsl(2, 82%, 55%)" stroke-width="1.37"  transform="translate(43.4 36.4) rotate(256.0) scale(1.97 1.81)" />
<path d="M 33.8 13.3 C 46.9 30.1, 20.6 74.3, 30.9 76.9 C 15.6 89.6, 41.6 97.7, 46.8 94.3 C 58.7 87.6, 59.2 55.3, 64.2 41.9 C 66.1 38.9, 64.3 100.0, 53.4 99.7 C 46.6 91.1, 36.9 65.8, 24.2 68.3 C 27.3 85.0, 72.8 36.5, 61.0 40.6 C 66.8 57.8, 37.7 75.5, 37.9 67.2 C 18.5 53.1, 100.0 30.6, 96.0 17.6 C 100.0 5.6, 99.4 14.9, 97.0 7.7 Z" fill="none" fill-opacity="0.77" stroke="hsl(2, 82%, 55%)" stroke-width="4.39"  transform="translate(16.0 73.5) rotate(200.2) scale(1.45 1.03)" />
<path d="M 75.9 64.7 C 76.0 46.2, 77.1 4.8, 66.9 19.3 C 75.2 29.2, 0.0 48.7, 12.9 47.9 C 15.8 53.9, 65.2 46.5, 67.8 42.3 C 69.8 49.8, 57.2 54.7, 69.3 65.5 C 53.5 74.9, 28.1 62.5, 15.3 70.3 C 0.0 58.3, 54.6 71.7, 52.2 81.4 " fill="hsl(83, 65%, 44%)" fill-opacity="0.62" stroke="none" stroke-width="2.14"  transform="translate(45.3 58.2) rotate(77.4) scale(1.00 0.59)" />
<path d="M 71.3 64.8 C 80.0 49.7, 75.5 23.6, 61.3 17.1 C 72.2 27.4, 13.4 57.6, 18.4 68.5 C 20.7 58.9, 7.8 53.6, 1.1 59.4 C 0.0 54.6, 94.6 51.3, 82.6 60.6 C 75.2 67.7, 28.3 32.5, 18.5 28.0 C 11.2 17.7, 59.1 80.5, 73.1 76.5 C 79.1 67.9, 100.0 35.8, 91.5 47.2 Z" fill="none" fill-opacity="0.81" stroke="hsl(290, 83%, 63%)" stroke-width="2.71"  transform="translate(72.4 57.2) rotate(204.8) scale(0.92 1.87)" />
<circle cx="67.7" cy="1.0" r="0.6" fill="url(#g2)" fill-opacity="0.97"  transform="translate(70.7 14.9) rotate(237.2) scale(1.20 1.28)" />
<rect x="29.8" y="48.8" width="22.0" height="11.6" rx="0" fill="hsl(242, 72%, 49%)" fill-opacity="0.22" stroke="hsl(183, 71%, 60%)" stroke-width="4.2"  transform="translate(58.0 79.6) rotate(286.2) scale(1.51 1.13)" />
<rect x="3.2" y="3.4" width="43.1" height="33.0" rx="15.8" fill="none" fill-opacity="0.48"    />
<rect x="49.8" y="23.3" width="45.5" height="22.9" rx="0.2" fill="hsl(290, 83%, 63%)" fill-opacity="0.40"   transform="translate(25.0 96.4) rotate(236.7) scale(1.39 0.88)" />
<path d="M 64.1 98.3 C 48.9 96.4, 59.6 100.0, 67.2 92.4 C 75.6 75.5, 74.0 39.1, 72.6 36.7 C 68.1 44.9, 67.5 71.3, 76.4 67.8 C 95.6 78.7, 82.0 1.2, 77.1 1.7 C 74.3 0.3, 32.4 31.7, 34.7 30.2 C 36.4 16.1, 57.7 78.9, 58.4 90.1 Z" fill="hsl(40, 53%, 69%)" fill-opacity="0.59" stroke="none" stroke-width="3.37"  transform="translate(23.2 63.8) rotate(350.3) scale(0.89 1.65)" />
<circle cx="85.3" cy="64.1" r="2.4" fill="url(#g2)" fill-opacity="0.59"  transform="translate(25.2 89.2) rotate(147.0) scale(1.61 1.83)" />
<rect x="10.7" y="7.2" width="33.0" height="39.6" rx="14.3" fill="hsl(183, 71%, 60%)" fill-opacity="0.33"   transform="translate(13.9 23.4) rotate(147.1) scale(1.32 0.64)" />
<rect x="25.5" y="53.1" width="26.8" height="28.6" rx="0" fill="hsl(106, 75%, 59%)" fill-opacity="0.25"  filter="url(#f1)" transform="translate(30.2 73.9) rotate(97.5) scale(0.64 1.79)" />
<path d="M 39.5 40.9 C 31.2 24.6, 54.4 69.4, 47.6 70.0 C 38.0 58.0, 74.0 7.7, 59.8 19.5 C 65.1 0.9, 30.6 43.4, 16.4 30.8 C 11.9 31.2, 74.8 55.5, 74.4 70.3 C 78.8 76.3, 46.5 29.2, 56.4 35.0 C 49.6 53.4, 84.7 27.2, 88.7 32.6 C 97.1 16.0, 75.5 24.4, 80.7 38.3 C 95.6 50.4, 19.6 28.0, 21.9 16.8 Z" fill="none" fill-opacity="0.36" stroke="hsl(40, 53%, 69%)" stroke-width="4.23"  transform="translate(55.9 48.6) rotate(33.6) scale(0.68 1.28)" />
<path d="M 96.1 47.4 C 80.7 32.1, 52.2 52.5, 53.9 62.1 C 62.4 63.4, 3.3 86.1, 5.9 72.3 C 25.9 82.7, 94.5 0.0, 87.8 1.4 C 100.0 14.3, 57.4 45.9, 49.4 46.5 C 47.5 50.5, 40.5 27.3, 26.0 38.5 C 31.3 40.8, 82.7 52.0, 81.7 45.7 C 85.4 65.0, 64.1 78.4, 60.6 76.2 C 60.7 57.0, 78.5 57.6, 87.3 56.1 C 96.5 51.2, 87.0 49.5, 89.4 40.6 Z" fill="none" fill-opacity="0.86" stroke="hsl(144, 86%, 72%)" stroke-width="4.22"  transform="translate(11.2 23.4) rotate(292.7) scale(1.52 1.83)" />
<path d="M 25.4 12.0 C 22.2 23.8, 12.4 35.9, 5.7 24.0 C 0.0 23.3, 76.2 39.3, 88.9 50.4 C 72.6 60.5, 45.7 16.5, 34.4 27.2 C 36.6 22.1, 57.7 72.7, 66.8 68.2 C 57.0 67.1, 10.9 97.8, 23.3 84.6 C 37.2 69.3, 64.0 49.4, 51.9 55.1 C 54.9 63.9, 89.1 54.5, 97.8 50.9 C 100.0 57.0, 100.0 82.4, 88.9 73.5 C 97.0 61.5, 22.9 69.0, 28.6 83.4 C 15.3 73.1, 54.7 61.0, 45.2 68.8 Z" fill="none" fill-opacity="0.45" stroke="hsl(183, 71%, 60%)" stroke-width="0.84"  transform="translate(2.8 82.0) rotate(84.3) scale(1.48 0.65)" />
<path d="M 24.1 46.7 C 13.6 42.0, 48.6 21.4, 56.0 28.6 C 69.5 9.5, 67.6 0.0, 73.9 8.1 C 58.4 8.0, 88.0 72.1, 74.6 59.7 C 59.1 70.8, 44.4 53.3, 51.7 67.1 C 45.2 85.4, 83.7 94.4, 89.2 95.4 C 100.0 100.0, 7.0 2.0, 13.9 11.7 C 0.0 21.4, 16.6 99.9, 29.7 97.6 C 48.0 91.8, 59.6 17.7, 60.9 31.5 C 70.1 25.3, 23.6 39.7, 24.5 25.5 Z" fill="none" fill-opacity="0.77" stroke="hsl(322, 74%, 44%)" stroke-width="4.52"  transform="translate(55.5 84.9) rotate(154.2) scale(1.07 1.64)" />
<rect x="38.5" y="67.5" width="21.3" height="29.1" rx="0" fill="none" fill-opacity="0.41"   transform="translate(45.8 58.8) rotate(322.3) scale(1.10 1.19)" />
<circle cx="30.8" cy="9.2" r="3.2" fill="hsl(2, 82%, 55%)" fill-opacity="0.59"  transform="translate(55.0 92.7) rotate(322.8) scale(1.63 1.46)" />
<path d="M 40.4 88.7 C 47.6 87.3, 41.0 49.6, 49.6 58.8 C 54.7 50.2, 93.6 77.7, 85.8 65.5 C 79.9 66.1, 23.2 40.7, 13.2 36.1 C 31.5 29.5, 36.8 41.7, 32.7 53.3 C 39.7 61.0, 0.0 74.5, 9.7 88.1 C 0.0 72.3, 89.5 67.8, 97.6 62.9 C 100.0 67.2, 100.0 57.7, 99.0 50.9 C 94.1 32.1, 74.5 69.3, 70.0 60.1 C 61.7 45.0, 0.0 72.4, 0.5 78.5 Z" fill="none" fill-opacity="0.57" stroke="hsl(83, 65%, 44%)" stroke-width="4.01"  transform="translate(31.5 19.5) rotate(132.7) scale(1.93 0.96)" />
<path d="M 21.8 86.0 C 13.9 81.8, 25.2 57.9, 16.5 54.7 C 34.7 36.3, 97.4 79.6, 89.3 92.3 C 77.3 74.3, 51.1 17.4, 40.6 23.2 C 56.8 3.8, 0.0 68.3, 3.1 59.7 C 0.0 77.3, 53.2 8.8, 56.9 18.9 C 66.2 29.6, 29.4 64.7, 23.8 76.8 C 15.5 80.4, 93.2 95.1, 88.4 99.7 Z" fill="hsl(104, 72%, 65%)" fill-opacity="0.28" stroke="none" stroke-width="3.12"  transform="translate(43.1 99.8) rotate(271.4) scale(1.54 1.07)" />
<path d="M 1.6 75.0 C 17.1 69.3, 4.3 4.4, 4.0 14.4 C 0.6 18.3, 1.0 76.6, 15.8 77.6 C 5.1 78.0, 0.0 0.0, 8.9 2.9 C 0.0 1.9, 23.4 87.5, 16.5 98.0 C 32.6 100.0, 81.3 91.5, 74.7 76.7 C 58.2 72.3, 100.0 100.0, 92.9 95.4 C 79.3 76.3, 89.7 31.2, 83.4 18.7 Z" fill="hsl(144, 86%, 72%)" fill-opacity="0.86" stroke="none" stroke-width="3.79"   />
<circle cx="24.5" cy="32.2" r="1.6" fill="hsl(183, 71%, 60%)" fill-opacity="0.79"  transform="translate(73.5 21.4) rotate(48.3) scale(1.14 1.80)" />
<path d="M 84.5 28.0 C 90.7 29.8, 35.9 0.6, 39.6 10.9 C 23.0 3.4, 21.9 8.4, 8.6 11.8 C 3.9 14.0, 10.7 0.6, 19.9 7.6 C 20.4 6.9, 21.9 100.0, 13.9 96.4 C 31.9 100.0, 32.1 44.5, 34.5 48.3 C 31.6 53.1, 10.6 62.3, 18.9 56.5 Z" fill="hsl(151, 70%, 62%)" fill-opacity="0.85" stroke="none" stroke-width="3.70" filter="url(#f1)" transform="translate(23.7 5.3) rotate(9.3) scale(1.01 1.65)" />
<circle cx="18.4" cy="57.0" r="18.4" fill="url(#g0)" fill-opacity="0.82"  transform="translate(64.5 22.6) rotate(173.0) scale(1.68 1.82)" />
<path d="M 15.5 73.4 C 12.8 88.0, 15.0 16.3, 23.6 9.3 C 4.4 10.9, 24.2 17.2, 28.5 26.2 C 18.5 29.3, 63.8 38.9, 71.2 40.0 C 87.5 30.2, 7.6 39.0, 5.0 34.3 C 5.1 42.1, 47.3 92.7, 36.1 98.0 C 40.2 97.7, 45.2 17.3, 40.2 28.2 Z" fill="none" fill-opacity="0.66" stroke="hsl(106, 75%, 59%)" stroke-width="4.14" filter="url(#f1)" transform="translate(89.3 1.6) rotate(348.3) scale(1.12 1.74)" />
<path d="M 65.6 28.2 C 56.0 36.8, 15.1 44.1, 28.0 49.3 C 27.2 65.2, 96.4 8.9, 99.3 15.3 C 93.4 9.2, 87.4 31.0, 73.3 30.6 C 77.7 16.1, 69.5 33.4, 61.5 36.2 C 64.4 33.5, 99.2 87.4, 99.7 87.4 C 100.0 97.5, 31.7 16.5, 43.4 28.4 C 57.8 34.0, 94.7 78.3, 81.2 83.1 C 68.9 78.4, 67.3 100.0, 72.9 91.1 C 54.7 95.8, 89.3 42.0, 82.2 53.8 C 96.5 54.2, 78.7 74.4, 90.5 74.1 Z" fill="none" fill-opacity="0.34" stroke="hsl(322, 74%, 44%)" stroke-width="1.89" filter="url(#f1)" transform="translate(64.4 54.4) rotate(313.1) scale(1.98 1.16)" />
<path d="M 0.4 15.0 C 7.3 28.4, 48.5 71.0, 48.4 63.9 C 58.8 76.7, 97.0 10.3, 83.8 15.6 C 97.9 1.9, 7.2 92.5, 7.2 87.1 C 11.0 98.8, 85.3 2.8, 83.5 10.1 C 96.0 0.0, 23.2 0.0, 19.1 7.0 C 15.3 13.4, 13.9 43.6, 28.7 37.7 Z" fill="hsl(242, 72%, 49%)" fill-opacity="0.33" stroke="none" stroke-width="4.60"  transform="translate(80.2 96.0) rotate(41.4) scale(1.58 1.93)" />
<g opacity="0.035">
<rect x="0" y="0" width="1" height="100" fill="black" />
<rect x="22" y="0" width="1" height="100" fill="black" />
<rect x="44" y="0" width="1" height="100" fill="black" />
<rect x="66" y="0" width="1" height="100" fill="black" />
<rect x="88" y="0" width="1" height="100" fill="black" />
<rect x="0" y="0" width="100" height="1" fill="black" />
<rect x="0" y="22" width="100" height="1" fill="black" />
<rect x="0" y="44" width="100" height="1" fill="black" />
<rect x="0" y="66" width="100" height="1" fill="black" />
<rect x="0" y="88" width="100" height="1" fill="black" />
</g>

</svg>
