<?xml version="1.0" encoding="UTF-8"?>
<svg xmlns="http://www.w3.org/2000/svg" width="100" height="100" viewBox="0 0 100 100">
<defs>
<linearGradient id="g0" x1="0%" y1="0%" x2="100%" y2="100%">
<stop offset="0.0%" stop-color="hsl(106, 75%, 59%)" />
<stop offset="33.3%" stop-color="hsl(183, 71%, 60%)" />
<stop offset="66.7%" stop-color="hsl(242, 72%, 49%)" />
<stop offset="100.0%" stop-color="hsl(322, 74%, 44%)" />
</linearGradient>
<linearGradient id="g1" x1="0%" y1="0%" x2="100%" y2="100%">
<stop offset="0.0%" stop-color="hsl(290, 83%, 63%)" />
<stop offset="33.3%" stop-color="hsl(2, 82%, 55%)" />
<stop offset="66.7%" stop-color="hsl(86, 72%, 68%)" />
<stop offset="100.0%" stop-color="hsl(83, 65%, 44%)" />
</linearGradient>
<linearGradient id="g2" x1="0%" y1="0%" x2="100%" y2="100%">
<stop offset="0.0%" stop-color="hsl(40, 53%, 69%)" />
<stop offset="33.3%" stop-color="hsl(104, 72%, 65%)" />
<stop offset="66.7%" stop-color="hsl(144, 86%, 72%)" />
<stop offset="100.0%" stop-color="hsl(151, 70%, 62%)" />
</linearGradient>
<filter id="f1" x="-20%" y="-20%" width="140%" height="140%">
  <feGaussianBlur stdDeviation="0.5803452914377119" />
</filter>

</defs>

<path d="M 67.6 48.0 C 69.3 35.9, 100.0 95.6, 98.0 86.5 C 99.1 100.0, 52.4 57.4, 48.8 62.5 C 42.8 62.5, 71.5 7.3, 76.5 8.4 C 94.3 0.0, 32.7 8.4, 32.3 21.6 C 40.1 13.2, 55.4 56.4, 47.4 47.7 C 35.8 46.0, 93.0 45.8, 80.3 35.7 C 64.5 49.0, 96.4 36.1, 99.6 44.1 C 82.4 27.2, 40.5 17.9, 33.7 8.8 C 27.4 7.4, 22.1 100.0, 9.4 97.0 Z" fill="hsl(144, 86%, 72%)" fill-opacity="0.82" stroke="none" stroke-width="3.17"  transform="translate(2.4 9.5) rotate(226.8) scale(1.56 1.92)" />
<rect x="29.0" y="46.3" width="28.9" height="17.4" rx="9.0" fill="none" fill-opacity="0.89"   transform="translate(65.5 49.1) rotate(254.6) scale(0.89 0.98)" />
<path d="M 80.3 6.1 C 89.1 25.8, 80.9 33.0, 92.0 26.7 C 85.2 26.1, 64.9 83.6, 59.0 84.9 C 43.6 73.0, 20.6 31.1, 15.8 18.6 C 0.0 2.2, 14.2 80.0, 0.9 85.6 C 0.0 70.5, 44.9 54.6, 58.5 52.8 C 41.2 47.1, 82.8 59.8, 80.2 74.0 C 97.8 72.5, 34.5 38.2, 48.6 26.1 Z" fill="none" fill-opacity="0.87" stroke="hsl(151, 70%, 62%)" stroke-width="2.50"   />
<path d="M 49.1 18.1 C 34.6 35.6, 5.9 2.5, 11.7 13.5 C 0.0 11.7, 16.3 25.5, 19.0 15.1 C 13.2 26.3, 22.8 15.6, 26.3 13.2 C 40.3 28.6, 29.9 68.0, 19.3 60.0 C 22.0 70.1, 15.5 91.2, 11.7 89.4 C 0.0 88.1, 64.6 40.7, 64.7 42.9 C 79.5 37.1, 94.8 73.1, 81.0 77.7 C 73.3 78.1, 49.5 5.9, 53.7 6.8 C 58.1 14.5, 100.0 5.5, 88.7 16.5 Z" fill="hsl(183, 71%, 60%)" fill-opacity="0.76" stroke="none" stroke-width="3.98" filter="url(#f1)" transform="translate(11.0 86.9) rotate(284.2) scale(1.74 0.55)" />
<circle cx="46.2" cy="24.0" r="1.0" fill="url(#g0)" fill-opacity="0.51"   />
<path d="M 1.9 49.8 C 0.0 55.5, 40.1 88.9, 45.9 76.9 C 26.8 60.3, 25.9 87.9, 17.8 77.9 C 17.9 71.3, 29.0 39.5, 42.5 37.6 C 57.6 48.1, 46.7 58.5, 43.2 45.5 C 23.8 31.2, 74.0 51.8, 82.2 64.3 C 99.9 78.1, 57.8 87.2, 48.5 94.9 C 43.1 75.5, 30.7 7.6, 35.6 3.1 C 16.6 4.7, 38.0 14.8, 26.2 11.0 C 40.3 6.7, 85.1 68.4, 91.9 57.6 Z" fill="hsl(40, 53%, 69%)" fill-opacity="0.72" stroke="none" stroke-width="2.09"   />
<rect x="8.0" y="46.7" width="45.1" height="25.2" rx="0" fill="none" fill-opacity="0.75"   transform="translate(76.1 43.0) rotate(318.7) scale(1.92 0.94)" />
<rect x="50.2" y="17.7" width="45.0" height="36.4" rx="7.0" fill="none" fill-opacity="0.94"   transform="translate(57.0 46.7) rotate(280.6) scale(1.27 0.91)" />
<path d="M 5.4 96.3 C 1.6 100.0, 59.3 72.4, 54.5 58.9 C 73.1 71.5, 41.2 86.4, 52.8 93.7 C 54.7 100.0, 86.0 91.6, 94.1 95.3 C 84.5 98.2, 60.9 22.8, 68.2 23.1 C 85.9 21.3, 26.3 91.7, 16.5 80.9 C 19.7 97.9, 98.7 31.7, 99.3 36.9 C 92.6 53.8, 66.7 89.1, 65.2 88.2 C 71.2 77.4, 20.1 74.8, 24.0 89.0 " fill="hsl(2, 82%, 55%)" fill-opacity="0.33" stroke="none" stroke-width="5.27"  transform="translate(25.8 58.7) rotate(184.4) scale(1.70 0.68)" />
<path d="M 39.1 60.5 C 41.4 45.3, 58.8 0.0, 55.5 1.1 C 48.1 13.6, 53.8 53.1, 49.1 65.1 C 31.8 45.8, 41.7 68.4, 48.7 64.9 C 58.0 69.9, 66.8 52.5, 65.9 43.1 C 61.0 45.6, 59.4 73.8, 55.7 78.8 C 62.8 66.3, 57.9 79.9, 67.7 75.0 Z" fill="hsl(242, 72%, 49%)" fill-opacity="0.71" stroke="none" stroke-width="4.39"  transform="translate(33.7 84.0) rotate(35.3) scale(1.62 1.81)" />
<rect x="37.5" y="53.7" width="30.7" height="32.7" rx="4.9" fill="none" fill-opacity="0.48" stroke="hsl(242, 72%, 49%)" stroke-width="4.6" filter="url(#f1)" transform="translate(18.4 73.7) rotate(114.0) scale(1.81 0.71)" />
<path d="M 13.3 10.3 C 13.1 0.0, 74.9 22.8, 61.5 27.4 C 80.0 45.4, 11.5 42.6, 14.9 38.6 C 22.7 41.3, 77.6 55.1, 84.1 65.4 C 68.5 68.3, 74.1 100.0, 64.6 90.2 C 71.9 81.9, 100.0 53.9, 95.6 42.4 C 82.0 49.6, 31.3 66.3, 24.8 77.5 C 23.8 77.7, 37.2 13.1, 26.0 27.3 C 40.5 34.7, 100.0 23.8, 99.9 23.4 C 100.0 16.0, 28.5 46.8, 40.9 60.4 Z" fill="hsl(104, 72%, 65%)" fill-opacity="0.84" stroke="none" stroke-width="3.24"  transform="translate(36.7 70.4) rotate(190.7) scale(1.66 1.91)" />
<path d="M 60.2 93.8 C 60.7 93.4, 82.6 52.9, 87.4 52.4 C 87.0 43.6, 39.8 65.6, 42.5 60.9 C 43.6 58.0, 29.4 78.8, 26.6 78.4 C 17.1 84.8, 52.9 75.9, 38.4 69.1 C 28.2 80.8, 72.2 30.5, 86.8 35.3 C 96.5 35.4, 75.6 71.7, 85.5 65.2 Z" fill="hsl(104, 72%, 65%)" fill-opacity="0.51" stroke="none" stroke-width="4.38"  transform="translate(35.6 55.7) rotate(215.0) scale(1.62 1.46)" />
<circle cx="1.8" cy="89.6" r="13.7" fill="hsl(104, 72%, 65%)" fill-opacity="0.94" filter="url(#f1)" transform="translate(95.6 74.5) rotate(223.4) scale(1.80 0.74)" />
<path d="M 25.7 97.1 C 37.8 100.0, 26.9 62.9, 37.3 54.9 C 49.9 48.3, 0.8 42.6, 5.9 43.1 C 6.0 60.5, 39.3 0.0, 38.9 7.4 C 58.4 12.8, 71.1 50.8, 59.8 38.8 C 76.7 56.9, 16.4 70.5, 30.5 56.1 C 20.8 54.4, 11.0 17.1, 10.0 15.8 C 28.2 0.0, 15.9 12.1, 20.8 9.4 Z" fill="hsl(86, 72%, 68%)" fill-opacity="0.55" stroke="none" stroke-width="2.08" filter="url(#f1)" transform="translate(98.6 21.3) rotate(274.4) scale(1.79 0.90)" />
<path d="M 69.4 84.6 C 53.2 84.5, 68.4 79.8, 57.8 91.8 C 67.9 91.8, 4.8 99.2, 5.9 91.4 C 0.0 100.0, 49.0 66.4, 61.8 56.0 C 49.3 38.2, 11.7 0.0, 21.7 5.0 C 28.9 4.8, 34.0 65.8, 38.5 61.7 C 40.1 49.2, 30.0 83.9, 42.4 83.4 C 27.9 83.5, 74.7 100.0, 70.9 85.8 C 63.0 78.4, 42.1 35.1, 29.0 45.8 C 48.6 57.5, 33.1 82.4, 29.2 93.6 Z" fill="none" fill-opacity="0.80" stroke="hsl(144, 86%, 72%)" stroke-width="2.64" filter="url(#f1)" transform="translate(62.8 82.1) rotate(176.9) scale(0.98 1.87)" />
<circle cx="81.3" cy="45.3" r="9.6" fill="url(#g0)" fill-opacity="0.53"  transform="translate(56.8 59.9) rotate(65.9) scale(0.73 0.67)" />
<path d="M 1.8 33.8 C 6.5 48.2, 37.4 33.5, 47.9 44.0 C 32.1 45.5, 0.0 100.0, 9.2 87.9 C 0.0 82.0, 1.2 31.6, 0.5 21.2 C 0.0 39.7, 33.0 100.0, 39.4 97.5 C 19.6 82.7, 35.6 64.6, 38.1 72.2 C 27.5 66.6, 30.9 49.6, 24.3 57.1 C 10.9 42.2, 83.6 15.9, 77.7 20.9 C 96.3 37.0, 0.0 66.7, 8.4 80.4 Z" fill="none" fill-opacity="0.34" stroke="hsl(183, 71%, 60%)" stroke-width="3.98"  transform="translate(82.0 38.0) rotate(10.6) scale(1.39 1.34)" />
<path d="M 55.1 33.3 C 70.5 39.5, 50.8 63.5, 38.1 56.8 C 52.5 75.1, 86.4 54.3, 87.4 59.0 C 71.6 64.5, 86.0 94.4, 75.5 89.9 C 93.8 91.8, 60.0 47.9, 53.6 55.4 C 61.0 72.3, 31.6 48.2, 26.4 45.9 C 8.0 51.8, 78.8 38.4, 68.1 33.4 Z" fill="hsl(2, 82%, 55%)" fill-opacity="0.79" stroke="none" stroke-width="4.97"  transform="translate(21.9 42.9) rotate(279.4) scale(0.53 1.42)" />
<path d="M 50.8 42.7 C 41.8 34.7, 8.4 71.9, 0.9 78.7 C 2.8 95.1, 40.9 80.1, 49.8 66.0 C 54.9 62.2, 42.1 22.0, 34.4 27.2 C 34.7 15.9, 88.8 39.6, 98.9 40.8 C 100.0 33.3, 0.0 10.4, 0.8 10.1 C 0.0 21.5, 56.2 76.8, 53.4 90.3 C 53.3 95.8, 84.9 46.9, 99.1 50.9 Z" fill="hsl(83, 65%, 44%)" fill-opacity="0.87" stroke="none" stroke-width="1.36" filter="url(#f1)" transform="translate(95.9 79.6) rotate(257.5) scale(1.38 1.88)" />
<path d="M 82.1 41.9 C 91.4 42.1, 20.2 65.6, 30.5 62.1 C 37.1 56.9, 37.7 41.7, 38.8 55.9 C 24.3 65.8, 51.1 19.5, 58.5 14.3 C 44.8 0.0, 81.7 88.5, 88.2 88.0 C 100.0 70.7, 59.6 38.4, 72.1 35.9 C 86.0 25.4, 82.4 40.7, 93.3 34.4 C 100.0 26.6, 4.6 78.1, 18.5 76.8 C 29.0 71.6, 88.5 5.9, 92.2 20.2 Z" fill="none" fill-opacity="0.60" stroke="hsl(322, 74%, 44%)" stroke-width="1.29"  transform="translate(35.8 12.7) rotate(29.5) scale(1.44 0.61)" />
<rect x="24.3" y="9.4" width="28.8" height="16.9" rx="0" fill="none" fill-opacity="0.74" stroke="hsl(144, 86%, 72%)" stroke-width="1.1" filter="url(#f1)" transform="translate(24.0 58.7) rotate(27.0) scale(1.15 0.64)" />
<rect x="49.9" y="34.1" width="27.1" height="34.9" rx="16.7" fill="none" fill-opacity="0.83" stroke="hsl(144, 86%, 72%)" stroke-width="2.2"  transform="translate(51.2 2.9) rotate(165.8) scale(1.03 1.14)" />
<circle cx="55.1" cy="46.4" r="2.5" fill="url(#g1)" fill-opacity="0.99"  transform="translate(49.5 76.1) rotate(206.0) scale(1.59 1.27)" />
<rect x="39.2" y="52.4" width="41.3" height="11.4" rx="0" fill="none" fill-opacity="0.80" stroke="hsl(290, 83%, 63%)" stroke-width="4.9" filter="url(#f1)" transform="translate(37.2 17.2) rotate(64.6) scale(0.92 1.24)" />
<path d="M 52.8 8.8 C 59.1 0.0, 26.8 94.8, 15.4 86.4 C 29.1 66.7, 29.8 61.8, 41.6 47.3 C 29.3 59.2, 61.0 68.0, 47.6 79.1 C 56.0 91.5, 11.0 2.9, 18.4 11.2 C 1.3 9.0, 66.1 87.4, 59.9 98.4 C 57.2 96.7, 88.7 59.8, 81.2 58.0 C 93.1 61.0, 66.3 7.0, 69.0 9.6 C 86.9 27.9, 1.7 57.0, 14.1 47.1 C 0.0 48.1, 30.6 74.0, 31.1 77.5 C 49.4 88.4, 78.9 44.9, 82.9 52.0 Z" fill="none" fill-opacity="0.38" stroke="hsl(2, 82%, 55%)" stroke-width="4.85"  transform="translate(55.1 34.4) rotate(186.3) scale(1.56 1.00)" />
<circle cx="53.7" cy="4.3" r="9.7" fill="url(#g2)" fill-opacity="0.94"   />
<rect x="8.9" y="17.8" width="48.7" height="19.1" rx="19.6" fill="none" fill-opacity="0.86" stroke="hsl(183, 71%, 60%)" stroke-width="3.6"  transform="translate(88.7 71.0) rotate(352.1) scale(1.47 1.97)" />
<rect x="77.9" y="71.4" width="20.8" height="23.0" rx="5.2" fill="hsl(40, 53%, 69%)" fill-opacity="0.72" stroke="hsl(144, 86%, 72%)" stroke-width="1.2"  transform="translate(12.1 33.9) rotate(224.8) scale(0.93 1.86)" />
<path d="M 73.6 67.3 C 88.9 69.2, 86.4 75.7, 86.0 81.7 C 92.7 74.1, 3.5 17.1, 10.9 16.3 C 30.4 19.0, 28.4 19.4, 34.8 8.4 C 36.6 7.0, 50.9 12.0, 40.9 1.7 C 41.2 13.1, 78.6 6.2, 81.6 9.8 C 87.8 2.7, 62.7 65.2, 65.9 77.9 C 53.4 84.9, 40.2 73.1, 31.6 75.2 C 18.8 94.4, 32.7 86.3, 18.4 74.2 " fill="hsl(183, 71%, 60%)" fill-opacity="0.80" stroke="none" stroke-width="1.35"  transform="translate(14.3 41.4) rotate(298.2) scale(0.60 1.49)" />
<circle cx="92.0" cy="1.5" r="15.1" fill="hsl(183, 71%, 60%)" fill-opacity="0.89"  transform="translate(24.4 59.3) rotate(139.1) scale(0.84 1.11)" />
<circle cx="32.2" cy="39.1" r="6.9" fill="url(#g0)" fill-opacity="0.78"  transform="translate(73.1 59.2) rotate(222.7) scale(1.84 1.63)" />
<rect x="15.6" y="68.0" width="36.7" height="23.5" rx="0" fill="none" fill-opacity="0.34"   transform="translate(34.0 42.5) rotate(76.8) scale(0.57 1.31)" />
<rect x="23.8" y="3.7" width="30.5" height="36.9" rx="0" fill="none" fill-opacity="0.56"   transform="translate(77.3 12.1) rotate(4.7) scale(0.87 1.28)" />
<circle cx="83.6" cy="0.1" r="1.8" fill="hsl(104, 72%, 65%)" fill-opacity="0.69"   />
<path d="M 73.3 20.2 C 77.7 20.4, 89.1 78.9, 81.8 73.3 C 74.1 88.6, 93.7 44.3, 87.5 36.1 C 95.2 17.5, 65.5 72.7, 63.7 67.9 C 61.2 67.1, 44.2 32.1, 34.1 35.4 C 51.8 45.3, 53.1 20.1, 52.9 19.1 C 38.0 16.8, 23.6 0.0, 18.7 8.5 C 4.5 0.0, 94.3 15.2, 85.0 19.5 C 91.5 25.4, 14.9 38.1, 8.9 43.2 C 14.3 42.8, 57.8 17.4, 70.1 16.7 C 81.4 28.5, 68.9 17.2, 69.3 9.0 Z" fill="hsl(144, 86%, 72%)" fill-opacity="0.96" stroke="none" stroke-width="4.95"  transform="translate(32.1 46.2) rotate(314.9) scale(1.41 2.00)" />
<rect x="26.0" y="42.8" width="34.6" height="27.3" rx="19.4" fill="hsl(106, 75%, 59%)" fill-opacity="0.62"   transform="translate(58.8 60.5) rotate(332.6) scale(1.07 0.79)" />
<path d="M 65.9 51.8 C 81.8 45.2, 90.7 93.0, 99.3 79.5 C 95.2 73.6, 15.9 93.9, 9.0 96.1 C 25.2 100.0, 78.4 50.3, 81.4 54.8 C 82.6 72.1, 87.6 45.6, 87.8 48.8 C 67.8 32.3, 70.6 62.1, 64.5 68.5 C 83.7 65.1, 17.6 38.5, 16.1 45.5 " fill="hsl(83, 65%, 44%)" fill-opacity="0.79" stroke="none" stroke-width="1.92"  transform="translate(4.1 11.1) rotate(174.8) scale(0.73 1.90)" />
<path d="M 33.4 69.1 C 45.4 66.7, 74.3 100.0, 66.0 91.4 C 53.3 76.9, 15.1 14.0, 17.6 19.2 C 22.0 23.9, 56.0 33.6, 42.4 18.7 C 49.5 17.7, 34.8 12.6, 38.4 7.3 C 28.0 0.0, 0.0 49.7, 1.6 54.7 C 19.2 47.7, 41.4 52.4, 31.5 63.5 C 28.7 65.1, 44.1 18.4, 56.5 14.8 C 70.2 0.9, 19.0 100.0, 10.9 95.9 C 0.0 100.0, 54.1 25.4, 66.8 12.0 Z" fill="hsl(104, 72%, 65%)" fill-opacity="0.91" stroke="none" stroke-width="3.18"  transform="translate(34.9 14.1) rotate(70.4) scale(1.69 0.99)" />
<circle cx="18.8" cy="24.0" r="16.1" fill="url(#g0)" fill-opacity="0.77"  transform="translate(95.8 33.0) rotate(291.6) scale(1.90 1.01)" />
<path d="M 23.4 56.2 C 33.6 42.4, 63.3 27.4, 54.2 26.4 C 58.1 8.5, 26.9 67.2, 28.4 65.6 C 34.9 60.0, 29.6 86.0, 30.7 78.6 C 45.3 70.8, 21.8 60.8, 15.3 46.5 C 25.8 61.2, 69.9 70.4, 68.0 68.2 C 79.5 64.2, 45.9 66.8, 38.9 60.0 C 20.4 45.5, 100.0 49.7, 98.7 36.4 C 100.0 38.3, 40.8 56.4, 46.6 69.7 Z" fill="hsl(183, 71%, 60%)" fill-opacity="0.27" stroke="none" stroke-width="5.28" filter="url(#f1)" transform="translate(46.3 45.3) rotate(350.1) scale(1.38 1.56)" />
<path d="M 26.0 46.7 C 20.1 53.6, 38.7 12.9, 41.9 6.1 C 39.7 0.0, 33.1 98.6, 25.7 95.8 C 42.9 89.7, 65.4 55.4, 50.8 44.5 C 61.0 28.7, 28.1 88.3, 37.0 96.3 C 51.9 87.8, 39.8 66.1, 30.9 80.9 C 22.7 62.9, 51.2 89.4, 64.3 78.8 C 78.1 85.7, 6.3 65.9, 5.7 52.6 C 20.4 33.8, 2.4 24.5, 12.7 30.7 C 19.8 37.5, 61.8 28.8, 71.5 18.3 C 83.2 17.9, 0.0 85.6, 6.8 75.7 Z" fill="hsl(144, 86%, 72%)" fill-opacity="0.52" stroke="none" stroke-width="4.12"  transform="translate(59.2 25.9) rotate(339.4) scale(1.79 0.98)" />
<path d="M 89.0 5.1 C 88.2 12.2, 36.8 43.8, 44.3 45.8 C 40.9 59.2, 1.9 18.1, 7.9 5.1 C 12.8 4.9, 74.8 18.5, 67.3 4.0 C 86.3 0.0, 27.8 22.7, 19.5 27.1 C 4.5 34.9, 81.5 26.0, 69.5 24.1 C 58.5 20.6, 34.8 56.8, 49.2 53.3 C 64.5 66.4, 14.3 78.9, 21.8 79.6 C 22.1 94.5, 86.8 59.7, 83.0 67.4 Z" fill="hsl(322, 74%, 44%)" fill-opacity="0.78" stroke="none" stroke-width="3.18"  transform="translate(88.1 43.8) rotate(169.5) scale(0.70 1.93)" />
<path d="M 33.6 96.9 C 50.9 82.0, 8.5 0.0, 11.9 1.3 C 23.3 0.0, 44.6 68.7, 32.3 55.5 C 19.6 74.7, 24.3 38.2, 12.1 26.5 C 9.8 14.5, 74.2 60.3, 70.2 57.3 C 70.9 57.7, 0.0 50.7, 0.7 38.3 C 3.0 44.6, 23.0 66.1, 37.5 55.6 C 28.3 59.5, 6.1 54.1, 5.7 42.3 C 22.4 40.1, 100.0 72.2, 96.3 65.4 C 97.4 55.2, 40.7 31.2, 43.4 33.9 C 52.0 44.3, 72.5 48.9, 63.7 41.7 Z" fill="none" fill-opacity="0.47" stroke="hsl(183, 71%, 60%)" stroke-width="4.91"  transform="translate(9.9 49.4) rotate(46.1) scale(1.45 1.23)" />
<path d="M 62.3 49.1 C 79.2 54.4, 34.8 56.2, 42.3 66.0 C 43.2 52.8, 48.4 100.0, 59.8 87.0 C 48.2 70.1, 0.0 19.0, 4.8 9.6 C 0.0 12.2, 62.1 46.6, 51.7 42.6 C 64.3 25.0, 66.3 16.4, 63.6 15.3 C 48.3 5.6, 14.0 45.3, 7.5 41.9 C 9.7 39.4, 27.3 31.5, 31.6 17.2 C 12.4 19.8, 49.2 82.0, 41.7 88.4 C 40.3 100.0, 30.1 8.9, 40.1 6.4 Z" fill="hsl(242, 72%, 49%)" fill-opacity="0.42" stroke="none" stroke-width="1.41"  transform="translate(43.1 28.5) rotate(65.7) scale(0.63 1.61)" />
<circle cx="77.4" cy="91.6" r="4.3" fill="hsl(242, 72%, 49%)" fill-opacity="0.95"  transform="translate(48.4 47.0) rotate(253.4) scale(1.04 1.66)" />
<circle cx="24.8" cy="60.2" r="3.9" fill="url(#g1)" fill-opacity="0.99"   />
<rect x="11.9" y="57.1" width="49.2" height="26.4" rx="0" fill="hsl(183, 71%, 60%)" fill-opacity="0.50"   transform="translate(87.5 3.7) rotate(42.5) scale(1.33 0.83)" />
<rect x="6.8" y="18.1" width="45.3" height="23.8" rx="6.5" fill="hsl(2, 82%, 55%)" fill-opacity="0.82"   transform="translate(69.7 92.2) rotate(140.4) scale(1.89 0.52)" />
<path d="M 77.1 48.7 C 57.9 68.4, 28.9 93.4, 34.2 95.5 C 53.5 100.0, 27.7 88.5, 19.3 85.2 C 38.0 91.0, 30.0 24.9, 40.3 18.0 C 51.2 28.4, 2.7 48.2, 13.9 53.4 C 28.3 55.9, 33.8 100.0, 24.3 99.8 C 40.6 87.5, 100.0 66.0, 97.4 52.7 C 91.4 55.2, 75.7 87.0, 64.7 95.6 Z" fill="none" fill-opacity="0.91" stroke="hsl(40, 53%, 69%)" stroke-width="4.01"  transform="translate(29.3 22.0) rotate(109.9) scale(0.79 1.74)" />
<path d="M 11.9 4.3 C 14.7 13.5, 22.3 6.6, 30.8 17.7 C 37.4 3.5, 92.4 55.8, 91.5 51.7 C 96.7 47.4, 73.7 65.9, 75.2 78.5 C 57.0 85.1, 100.0 74.0, 92.0 69.3 C 86.2 70.7, 76.7 88.8, 64.8 75.7 C 82.5 75.2, 5.6 76.9, 9.4 90.1 C 0.0 88.9, 70.0 32.0, 55.9 29.2 Z" fill="hsl(322, 74%, 44%)" fill-opacity="0.95" stroke="none" stroke-width="3.79"  transform="translate(52.4 12.9) rotate(245.7) scale(0.73 0.61)" />
<path d="M 55.1 0.8 C 42.6 18.7, 11.4 38.1, 0.3 45.5 C 0.0 31.5, 5.2 21.8, 2.8 20.9 C 12.3 2.0, 77.5 91.0, 85.2 98.3 C 69.2 86.6, 7.9 9.6, 18.4 20.4 C 35.3 5.2, 70.6 46.0, 76.3 32.3 C 71.6 24.9, 74.4 14.2, 71.1 14.1 C 72.1 13.4, 35.1 28.6, 27.6 39.9 C 18.2 52.9, 23.6 58.9, 20.9 49.6 C 6.1 36.0, 88.4 88.6, 80.1 91.2 Z" fill="hsl(183, 71%, 60%)" fill-opacity="0.78" stroke="none" stroke-width="1.86"   />
<circle cx="84.4" cy="4.0" r="11.4" fill="hsl(183, 71%, 60%)" fill-opacity="0.52"  transform="translate(89.2 17.1) rotate(289.1) scale(0.78 1.43)" />
<path d="M 95.4 93.3 C 99.1 98.4, 90.0 63.6, 89.3 64.8 C 96.8 79.4, 37.3 5.7, 31.3 3.8 C 49.1 16.1, 57.5 63.6, 61.1 77.3 C 74.8 67.4, 55.6 17.6, 69.6 5.9 C 87.4 0.0, 60.9 73.7, 73.6 64.3 C 56.5 78.4, 86.0 0.0, 78.7 1.7 C 78.7 8.2, 40.4 10.9, 32.4 2.9 C 17.4 0.0, 17.0 68.7, 11.2 62.2 C 31.1 53.2, 75.4 62.1, 89.4 60.0 " fill="hsl(322, 74%, 44%)" fill-opacity="0.83" stroke="none" stroke-width="2.89" filter="url(#f1)" transform="translate(77.7 90.2) rotate(322.4) scale(0.97 1.45)" />
<circle cx="85.4" cy="4.7" r="5.4" fill="url(#g2)" fill-opacity="0.89"   />
<path d="M 29.3 36.0 C 33.7 22.8, 43.8 19.7, 48.5 34.5 C 58.3 41.3, 56.9 99.3, 64.7 91.2 C 60.4 100.0, 15.0 44.7, 22.9 36.2 C 33.5 22.1, 82.4 83.0, 80.2 72.5 C 69.0 82.7, 44.6 88.6, 55.8 95.0 C 63.7 100.0, 81.4 38.6, 87.5 44.2 C 83.7 37.0, 0.0 24.7, 7.1 23.7 C 26.2 24.2, 27.4 41.7, 28.1 47.9 C 30.1 62.6, 63.2 84.1, 77.1 95.8 Z" fill="hsl(40, 53%, 69%)" fill-opacity="0.83" stroke="none" stroke-width="2.18"  transform="translate(78.8 7.8) rotate(294.0) scale(1.86 0.69)" />
<path d="M 97.2 41.4 C 97.8 24.7, 49.3 26.0, 53.2 18.4 C 65.3 24.4, 3.1 99.7, 17.6 87.7 C 5.6 88.7, 0.0 68.0, 5.0 82.3 C 12.2 93.7, 90.0 55.5, 90.4 48.4 C 88.2 64.9, 11.2 100.0, 9.3 98.8 C 16.0 84.7, 64.9 38.9, 55.6 34.5 C 43.5 25.0, 17.4 32.8, 23.8 36.7 C 5.5 35.5, 19.8 59.5, 34.7 66.2 C 31.8 79.1, 43.8 16.1, 38.9 28.5 C 57.1 47.9, 9.2 61.2, 1.9 57.5 Z" fill="hsl(290, 83%, 63%)" fill-opacity="0.94" stroke="none" stroke-width="2.00" filter="url(#f1)"  />
<circle cx="12.4" cy="91.2" r="10.0" fill="url(#g2)" fill-opacity="0.71"  transform="translate(52.2 77.6) rotate(252.8) scale(0.79 1.43)" />
<path d="M 35.7 43.9 C 50.7 62.3, 93.6 19.3, 91.3 24.4 C 100.0 25.1, 0.0 62.8, 4.7 73.8 C 5.9 86.1, 16.3 21.7, 3.0 12.4 C 0.0 31.6, 40.1 16.6, 36.7 30.3 C 31.0 25.6, 69.1 81.9, 55.1 86.7 C 73.6 100.0, 8.8 0.0, 1.4 1.3 C 0.0 4.8, 97.7 68.2, 94.6 69.1 C 100.0 79.1, 50.1 28.0, 48.6 25.6 C 55.3 28.8, 28.9 71.5, 23.7 78.7 C 26.1 74.1, 4.6 60.4, 2.2 62.3 Z" fill="none" fill-opacity="0.48" stroke="hsl(242, 72%, 49%)" stroke-width="3.29"  transform="translate(16.8 37.1) rotate(177.1) scale(1.70 1.59)" />
<circle cx="93.7" cy="22.3" r="14.0" fill="hsl(2, 82%, 55%)" fill-opacity="0.49"  transform="translate(38.5 96.6) rotate(6.4) scale(1.14 0.97)" />
<rect x="51.2" y="20.7" width="30.1" height="26.3" rx="16.4" fill="none" fill-opacity="0.52" stroke="hsl(40, 53%, 69%)" stroke-width="3.7"  transform="translate(66.2 49.9) rotate(19.3) scale(1.44 1.53)" />
<circle cx="79.3" cy="44.6" r="2.8" fill="url(#g0)" fill-opacity="0.85"  transform="translate(62.7 92.4) rotate(249.4) scale(0.64 1.28)" />
<circle cx="84.9" cy="75.8" r="6.1" fill="url(#g1)" fill-opacity="0.43"  transform="translate(30.3 69.2) rotate(158.2) scale(1.14 0.64)" />
<path d="M 40.5 14.1 C 45.3 3.2, 3.6 34.3, 11.8 31.2 C 4.7 45.3, 74.2 62.7, 87.9 65.1 C 68.4 79.3, 4.5 53.6, 1.5 48.8 C 0.0 66.8, 7.9 51.3, 8.6 61.4 C 4.6 59.4, 18.2 78.4, 10.5 65.0 C 1.4 50.3, 75.1 16.4, 89.4 13.0 C 82.7 13.4, 80.8 52.2, 79.1 57.4 C 88.2 72.3, 69.0 41.8, 56.4 37.8 C 58.2 18.0, 19.3 49.3, 11.8 35.8 Z" fill="hsl(144, 86%, 72%)" fill-opacity="0.93" stroke="none" stroke-width="4.44"   />
<rect x="10.5" y="5.9" width="44.1" height="26.4" rx="0" fill="none" fill-opacity="0.89"   transform="translate(86.4 7.2) rotate(165.2) scale(1.84 1.53)" />
<path d="M 71.2 18.0 C 51.5 26.2, 11.1 15.7, 6.1 21.5 C 0.0 9.9, 100.0 0.0, 89.6 12.3 C 100.0 14.4, 36.8 96.6, 45.1 98.7 C 26.2 100.0, 63.3 20.5, 54.2 9.1 C 46.1 0.0, 39.7 100.0, 50.2 98.8 C 62.9 100.0, 21.9 0.0, 8.4 6.2 Z" fill="hsl(104, 72%, 65%)" fill-opacity="0.88" stroke="none" stroke-width="1.45"  transform="translate(15.6 55.6) rotate(350.6) scale(0.60 1.36)" />
<path d="M 15.4 95.5 C 24.0 100.0, 32.3 56.9, 20.4 47.6 C 27.6 36.4, 57.9 97.3, 67.6 88.3 C 83.9 70.6, 66.9 99.5, 60.3 96.7 C 52.0 85.5, 21.6 56.2, 13.2 66.1 C 30.7 55.8, 75.8 81.6, 62.3 76.9 C 67.6 84.7, 20.3 0.0, 24.1 9.2 C 42.1 25.6, 48.0 27.5, 33.2 29.3 C 50.3 18.7, 33.0 15.8, 30.6 18.3 Z" fill="none" fill-opacity="0.57" stroke="hsl(151, 70%, 62%)" stroke-width="2.14"  transform="translate(0.5 15.6) rotate(37.7) scale(1.74 1.62)" />
<path d="M 17.4 69.6 C 0.0 86.9, 23.1 65.2, 29.2 57.2 C 45.1 62.1, 58.5 14.2, 58.0 18.8 C 40.2 13.5, 77.7 46.6, 86.2 52.5 C 73.1 60.4, 18.5 1.4, 27.0 7.0 C 13.7 2.7, 22.3 68.0, 16.5 78.4 C 30.7 83.3, 39.7 100.0, 38.3 99.0 C 44.5 95.6, 52.2 20.6, 51.8 26.9 C 45.4 11.9, 68.1 87.9, 55.4 78.5 C 74.6 63.0, 31.8 93.8, 32.5 82.2 Z" fill="hsl(151, 70%, 62%)" fill-opacity="0.91" stroke="none" stroke-width="4.21"  transform="translate(9.1 0.6) rotate(63.7) scale(1.03 1.59)" />
<rect x="52.3" y="10.0" width="47.2" height="14.3" rx="2.8" fill="none" fill-opacity="0.75"  filter="url(#f1)" transform="translate(40.1 87.2) rotate(209.0) scale(0.54 1.70)" />
<path d="M 50.8 64.0 C 64.7 82.9, 70.3 77.3, 78.7 79.3 C 67.7 89.0, 23.3 37.7, 15.2 23.1 C 12.2 35.3, 13.2 44.8, 2.1 32.7 C 0.0 38.2, 11.4 99.0, 19.4 86.2 C 26.4 79.8, 77.7 0.0, 82.1 5.2 C 88.5 0.0, 93.5 100.0, 87.3 98.4 C 100.0 86.5, 7.8 55.0, 4.2 60.4 C 0.0 52.7, 45.3 4.8, 59.4 2.9 C 40.2 21.0, 34.3 78.6, 28.2 81.2 Z" fill="hsl(151, 70%, 62%)" fill-opacity="0.66" stroke="none" stroke-width="3.54"  transform="translate(28.6 66.9) rotate(259.5) scale(0.82 1.83)" />
<rect x="6.8" y="70.8" width="39.5" height="20.2" rx="0" fill="none" fill-opacity="0.95"  filter="url(#f1)"  />
<path d="M 22.8 38.0 C 39.0 24.1, 83.6 18.1, 90.4 23.0 C 87.3 22.0, 27.0 79.1, 29.2 87.7 C 16.0 91.5, 74.1 33.7, 64.0 27.5 C 79.2 23.2, 29.7 76.8, 40.0 85.4 C 50.3 100.0, 0.0 15.9, 2.0 4.6 C 0.0 2.2, 19.5 9.3, 5.9 16.0 C 18.3 21.8, 41.7 80.2, 38.0 84.6 " fill="hsl(183, 71%, 60%)" fill-opacity="1.00" stroke="none" stroke-width="3.91"  transform="translate(6.0 84.1) rotate(351.9) scale(1.76 1.16)" />
<rect x="53.9" y="62.3" width="45.6" height="32.3" rx="3.0" fill="none" fill-opacity="0.43" stroke="hsl(151, 70%, 62%)" stroke-width="1.8"  transform="translate(9.9 20.4) rotate(164.6) scale(1.25 0.56)" />
<path d="M 85.7 0.6 C 99.6 0.0, 74.1 55.5, 75.4 58.0 C 59.7 65.3, 86.2 93.8, 73.9 82.7 C 83.3 96.7, 75.8 53.3, 72.4 52.1 C 55.0 49.5, 53.5 34.9, 53.3 43.2 C 48.3 53.1, 67.1 72.3, 77.3 67.4 C 94.2 84.4, 21.7 71.2, 32.1 65.8 C 17.9 85.3, 77.0 26.7, 83.6 34.7 C 73.4 26.5, 100.0 90.0, 94.9 80.3 C 100.0 88.5, 49.9 27.1, 63.7 18.9 C 77.9 9.6, 55.8 50.1, 57.0 49.5 Z" fill="hsl(2, 82%, 55%)" fill-opacity="0.86" stroke="none" stroke-width="4.87"  transform="translate(34.9 96.7) rotate(233.0) scale(1.19 1.92)" />
<rect x="42.1" y="28.5" width="28.4" height="32.0" rx="0" fill="hsl(242, 72%, 49%)" fill-opacity="0.95"   transform="translate(53.7 73.5) rotate(284.7) scale(0.86 1.94)" />
<path d="M 18.8 51.2 C 33.0 64.4, 65.6 48.2, 52.5 39.3 C 67.2 42.9, 31.1 22.8, 29.2 7.9 C 21.1 12.7, 43.6 53.3, 42.5 65.5 C 34.3 65.9, 79.0 14.5, 81.9 6.6 C 66.9 16.6, 51.0 45.5, 41.7 31.8 C 56.7 18.3, 38.7 61.1, 25.2 71.3 C 38.7 53.4, 24.7 43.4, 18.3 42.7 C 2.1 51.2, 47.9 41.6, 42.9 56.2 C 38.6 65.8, 33.3 56.3, 37.4 60.5 C 30.5 49.0, 58.7 54.9, 47.8 42.7 Z" fill="hsl(83, 65%, 44%)" fill-opacity="0.49" stroke="none" stroke-width="3.45"  transform="translate(20.4 62.3) rotate(196.6) scale(0.66 1.55)" />
<rect x="7.0" y="10.9" width="47.3" height="16.1" rx="13.2" fill="none" fill-opacity="0.86" stroke="hsl(40, 53%, 69%)" stroke-width="3.5"  transform="translate(83.7 92.1) rotate(161.5) scale(1.53 1.69)" />
<path d="M 46.0 79.8 C 63.5 61.4, 58.2 84.7, 63.3 80.6 C 47.1 98.0, 31.0 3.7, 35.2 13.2 C 34.4 13.0, 75.0 43.7, 70.4 42.1 C 65.7 24.8, 13.7 36.8, 13.1 39.5 C 28.2 38.8, 97.9 5.7, 95.7 0.1 C 93.8 0.0, 0.0 12.5, 2.6 22.0 C 16.3 36.6, 100.0 9.9, 91.3 15.6 C 100.0 0.0, 100.0 75.4, 91.0 65.1 Z" fill="hsl(183, 71%, 60%)" fill-opacity="0.96" stroke="none" stroke-width="1.34"  transform="translate(46.2 90.1) rotate(111.4) scale(1.79 0.96)" />
<path d="M 35.5 74.4 C 53.7 83.0, 78.3 83.7, 92.7 73.8 C 100.0 54.7, 26.7 77.2, 17.1 72.0 C 12.1 92.0, 24.0 89.8, 34.8 79.8 C 15.7 80.1, 31.6 68.3, 38.3 62.9 C 18.7 78.4, 27.6 88.1, 24.2 88.6 C 36.7 100.0, 9.0 37.7, 19.6 50.3 C 12.4 45.6, 85.7 53.2, 95.1 57.6 C 88.7 44.0, 100.0 78.9, 89.1 88.7 C 69.5 97.5, 23.3 34.1, 9.2 38.4 C 0.0 30.4, 74.3 33.6, 80.5 36.2 Z" fill="hsl(242, 72%, 49%)" fill-opacity="0.68" stroke="none" stroke-width="2.91" filter="url(#f1)" transform="translate(78.0 98.5) rotate(153.0) scale(0.83 1.53)" />
<rect x="39.0" y="42.6" width="42.9" height="14.6" rx="0" fill="hsl(290, 83%, 63%)" fill-opacity="0.83"    />
<circle cx="22.5" cy="47.4" r="0.1" fill="url(#g2)" fill-opacity="0.50"  transform="translate(31.8 61.5) rotate(104.4) scale(1.69 1.30)" />
<circle cx="31.0" cy="54.0" r="17.8" fill="hsl(40, 53%, 69%)" fill-opacity="0.50"  transform="translate(72.0 69.5) rotate(318.9) scale(0.54 1.34)" />
<rect x="34.2" y="21.1" width="38.4" height="19.9" rx="14.7" fill="none" fill-opacity="0.51"    />
<circle cx="51.4" cy="91.7" r="3.6" fill="hsl(144, 86%, 72%)" fill-opacity="0.41"   />
<path d="M 96.6 68.2 C 99.6 50.6, 11.8 72.7, 4.9 71.2 C 0.0 68.3, 37.1 82.0, 39.5 72.3 C 51.5 83.2, 42.4 3.3, 54.5 16.5 C 71.1 30.8, 50.2 15.9, 62.0 17.2 C 54.4 28.9, 81.3 27.5, 72.3 31.6 C 85.8 43.2, 0.1 72.7, 0.1 64.7 C 0.0 79.7, 80.4 20.0, 73.9 21.2 C 93.7 26.6, 53.3 31.5, 66.3 34.5 Z" fill="hsl(322, 74%, 44%)" fill-opacity="0.34" stroke="none" stroke-width="1.75"  transform="translate(51.0 86.7) rotate(101.1) scale(1.14 1.23)" />
<rect x="37.9" y="35.0" width="50.0" height="23.2" rx="0" fill="none" fill-opacity="0.44"   transform="translate(87.6 39.5) rotate(141.0) scale(1.21 1.52)" />
<path d="M 43.3 17.4 C 55.8 33.3, 16.5 55.1, 10.2 55.7 C 0.0 56.3, 49.8 77.2, 48.8 86.1 C 65.6 85.1, 100.0 13.6, 98.9 14.4 C 100.0 8.7, 46.1 16.7, 40.1 28.2 C 31.9 37.4, 21.4 63.2, 28.2 62.9 C 8.7 76.3, 15.4 24.7, 3.0 12.2 C 0.0 3.0, 3.1 64.2, 4.9 63.3 Z" fill="hsl(151, 70%, 62%)" fill-opacity="0.93" stroke="none" stroke-width="5.19"  transform="translate(37.7 42.9) rotate(120.8) scale(1.94 0.74)" />
<path d="M 13.1 93.7 C 20.0 98.1, 70.9 49.2, 82.8 56.4 C 90.6 58.5, 36.5 29.8, 31.3 14.9 C 22.6 8.8, 33.5 33.8, 42.3 47.2 C 60.5 53.8, 96.4 78.0, 95.7 75.1 C 92.5 83.2, 90.2 10.1, 76.3 13.0 C 78.0 19.5, 26.4 22.9, 27.0 33.6 C 23.2 39.9, 0.0 85.8, 7.6 89.9 " fill="hsl(242, 72%, 49%)" fill-opacity="0.59" stroke="none" stroke-width="3.81"  transform="translate(94.8 6.8) rotate(262.4) scale(0.87 1.29)" />
<path d="M 41.1 70.7 C 50.3 83.4, 25.5 37.3, 25.9 28.8 C 18.7 10.5, 52.2 47.9, 60.0 38.1 C 41.2 46.0, 49.7 65.5, 60.0 56.4 C 72.1 64.8, 55.4 24.5, 62.5 12.6 C 47.8 30.0, 28.0 15.0, 25.2 8.4 C 31.2 3.1, 80.6 27.0, 89.7 33.0 C 95.0 33.8, 0.0 86.9, 0.3 87.8 C 10.1 94.7, 69.1 18.2, 71.2 5.3 C 74.7 0.1, 42.2 88.8, 45.6 91.4 Z" fill="none" fill-opacity="0.59" stroke="hsl(322, 74%, 44%)" stroke-width="1.68"   />
<path d="M 90.2 3.0 C 100.0 15.1, 9.7 10.6, 11.0 20.1 C 22.5 15.5, 94.7 87.6, 87.4 91.4 C 100.0 98.7, 47.2 100.0, 52.1 90.4 C 51.4 99.0, 29.2 38.4, 43.7 30.5 C 32.8 11.5, 95.4 73.6, 95.4 68.1 C 85.6 60.0, 73.4 46.6, 83.4 38.9 C 91.7 56.9, 12.8 51.6, 25.4 62.8 C 11.4 65.6, 54.6 51.6, 42.6 46.8 C 38.3 63.7, 65.9 14.3, 65.2 27.3 Z" fill="hsl(144, 86%, 72%)" fill-opacity="0.65" stroke="none" stroke-width="3.88"  transform="translate(57.1 48.8) rotate(139.7) scale(1.09 1.10)" />
<circle cx="12.9" cy="86.5" r="16.9" fill="url(#g1)" fill-opacity="0.62" filter="url(#f1)" transform="translate(89.3 24.6) rotate(89.0) scale(0.84 1.35)" />
<path d="M 86.8 90.4 C 79.0 100.0, 30.7 20.6, 16.4 33.6 C 5.8 30.2, 72.4 47.0, 79.7 44.3 C 98.9 50.5, 22.5 99.8, 17.1 99.1 C 2.4 100.0, 44.2 7.2, 39.4 20.6 C 32.3 18.0, 60.7 78.6, 52.2 86.6 C 34.1 95.6, 48.3 77.4, 53.6 90.3 C 41.8 100.0, 70.7 80.6, 84.6 72.2 Z" fill="hsl(40, 53%, 69%)" fill-opacity="0.93" stroke="none" stroke-width="3.15"  transform="translate(89.4 38.2) rotate(195.8) scale(1.49 0.74)" />
<circle cx="83.4" cy="47.5" r="9.0" fill="hsl(290, 83%, 63%)" fill-opacity="0.50" filter="url(#f1)" transform="translate(40.4 29.1) rotate(159.9) scale(1.60 1.86)" />
<path d="M 13.5 2.4 C 23.8 0.0, 76.1 56.2, 76.3 60.4 C 65.6 48.2, 32.1 77.8, 34.4 64.2 C 47.0 59.7, 17.0 64.3, 2.6 76.9 C 13.1 94.6, 31.2 74.4, 26.6 61.8 C 45.0 51.8, 0.0 94.0, 5.7 91.5 C 12.7 100.0, 2.6 66.5, 5.6 60.1 Z" fill="hsl(40, 53%, 69%)" fill-opacity="0.75" stroke="none" stroke-width="4.72"  transform="translate(87.6 29.4) rotate(33.6) scale(1.17 1.85)" />
<rect x="57.2" y="5.3" width="25.1" height="35.4" rx="0" fill="hsl(104, 72%, 65%)" fill-opacity="0.96"   transform="translate(16.9 81.4) rotate(53.3) scale(0.61 1.36)" />
<rect x="48.3" y="77.3" width="48.1" height="22.0" rx="0" fill="hsl(242, 72%, 49%)" fill-opacity="0.72"   transform="translate(3.3 0.5) rotate(343.2) scale(0.54 1.47)" />
<circle cx="58.9" cy="41.6" r="1.0" fill="url(#g0)" fill-opacity="0.91" filter="url(#f1)" transform="translate(82.9 2.4) rotate(250.4) scale(1.16 1.45)" />
<path d="M 77.5 70.0 C 91.1 66.2, 59.3 33.5, 60.0 46.4 C 67.1 60.4, 13.8 5.8, 21.3 19.1 C 12.9 10.0, 47.7 47.9, 55.8 44.2 C 47.4 41.2, 82.1 45.4, 83.8 53.8 C 87.6 65.3, 83.4 66.1, 95.3 79.4 C 100.0 98.4, 40.8 70.3, 29.2 62.0 " fill="hsl(290, 83%, 63%)" fill-opacity="0.55" stroke="none" stroke-width="3.13"  transform="translate(59.2 83.4) rotate(114.4) scale(1.56 1.87)" />
<path d="M 21.4 31.7 C 3.8 45.8, 0.0 22.4, 2.3 19.4 C 12.6 9.3, 67.5 31.0, 59.4 38.4 C 49.4 29.7, 64.7 84.3, 63.7 98.3 C 51.5 94.0, 98.1 33.7, 97.8 39.0 C 98.8 29.1, 75.7 0.0, 77.9 5.0 C 88.9 0.0, 37.1 93.5, 36.2 88.0 C 22.0 100.0, 87.4 48.8, 91.3 62.5 C 82.6 44.2, 86.8 51.0, 89.8 41.7 C 100.0 23.7, 52.0 94.2, 40.2 81.8 C 40.9 94.8, 83.9 14.3, 83.7 24.4 Z" fill="none" fill-opacity="0.36" stroke="hsl(290, 83%, 63%)" stroke-width="0.93"   />
<path d="M 41.5 96.8 C 31.7 89.6, 73.9 47.3, 69.4 57.5 C 68.7 59.5, 38.7 76.6, 41.7 88.7 C 44.8 100.0, 82.2 59.4, 76.1 67.1 C 87.0 50.9, 57.6 33.7, 68.0 41.1 C 79.0 50.8, 56.8 32.3, 60.1 41.6 C 48.9 22.6, 37.2 85.1, 33.4 80.4 C 44.9 92.3, 68.0 39.3, 75.9 39.5 Z" fill="none" fill-opacity="0.79" stroke="hsl(183, 71%, 60%)" stroke-width="2.00"  transform="translate(7.4 81.1) rotate(300.0) scale(0.59 1.14)" />
<rect x="64.5" y="53.8" width="20.5" height="10.8" rx="0" fill="none" fill-opacity="0.78" stroke="hsl(83, 65%, 44%)" stroke-width="4.7" filter="url(#f1)" transform="translate(86.1 93.3) rotate(272.4) scale(1.01 0.57)" />
<circle cx="52.1" cy="79.8" r="12.4" fill="hsl(242, 72%, 49%)" fill-opacity="0.93" filter="url(#f1)" transform="translate(51.5 76.7) rotate(38.4) scale(1.86 1.47)" />
<circle cx="60.8" cy="34.2" r="3.1" fill="url(#g1)" fill-opacity="0.42"  transform="translate(52.3 44.6) rotate(4.5) scale(1.56 0.81)" />
<path d="M 45.1 48.0 C 37.1 64.3, 53.4 18.2, 47.7 27.0 C 55.3 36.0, 37.2 38.6, 40.9 42.8 C 54.3 47.3, 38.6 61.4, 29.2 58.0 C 12.8 75.9, 13.9 20.1, 3.7 13.9 C 0.0 33.9, 28.3 0.0, 18.0 7.3 C 9.1 1.6, 66.0 81.8, 66.5 88.4 C 49.6 93.8, 63.9 48.1, 77.6 59.7 C 91.7 63.8, 29.2 78.5, 42.3 82.4 Z" fill="hsl(86, 72%, 68%)" fill-opacity="0.92" stroke="none" stroke-width="0.94" filter="url(#f1)"  />
<rect x="36.9" y="65.0" width="48.6" height="12.8" rx="0" fill="hsl(322, 74%, 44%)" fill-opacity="0.76"    />
<path d="M 45.5 98.4 C 32.1 90.9, 0.0 23.7, 1.6 21.9 C 0.0 34.9, 86.9 78.6, 76.0 91.0 C 73.3 100.0, 80.4 75.4, 69.5 89.9 C 51.5 83.2, 48.6 11.6, 38.9 15.2 C 27.0 17.6, 44.1 36.0, 30.9 26.9 C 11.4 20.1, 9.6 28.5, 3.9 36.7 C 18.1 44.4, 46.7 47.1, 39.5 41.9 C 22.5 22.0, 27.4 100.0, 34.9 99.8 C 16.5 100.0, 76.9 93.4, 69.2 84.8 Z" fill="hsl(104, 72%, 65%)" fill-opacity="0.47" stroke="none" stroke-width="2.54"  transform="translate(2.6 8.7) rotate(78.8) scale(1.85 0.58)" />
<path d="M 66.5 5.0 C 69.1 0.0, 93.9 82.0, 94.0 68.3 C 93.6 53.6, 35.3 80.5, 25.2 68.4 C 24.4 84.4, 42.8 45.4, 41.0 37.4 C 48.4 29.0, 63.1 45.9, 54.6 50.5 C 59.5 53.9, 84.0 1.6, 95.6 14.4 C 90.6 14.8, 86.8 55.1, 92.9 59.1 C 100.0 39.7, 60.9 0.0, 59.7 2.0 Z" fill="none" fill-opacity="0.43" stroke="hsl(104, 72%, 65%)" stroke-width="1.60"  transform="translate(14.2 23.4) rotate(312.1) scale(1.43 1.20)" />
<path d="M 34.6 63.5 C 50.2 51.8, 89.7 57.2, 78.3 48.0 C 94.1 49.4, 43.0 18.1, 36.2 12.7 C 17.9 22.4, 51.3 70.0, 61.3 63.8 C 44.2 82.7, 37.4 100.0, 24.3 93.3 C 35.7 82.8, 78.2 66.5, 80.0 71.6 C 87.3 83.3, 37.0 63.7, 34.5 55.2 C 36.7 45.0, 29.2 34.2, 26.8 47.6 Z" fill="hsl(104, 72%, 65%)" fill-opacity="0.86" stroke="none" stroke-width="4.51"  transform="translate(92.3 62.9) rotate(244.9) scale(0.83 0.80)" />
<path d="M 15.4 45.5 C 16.2 41.3, 49.4 58.8, 60.7 62.6 C 48.6 73.9, 36.4 34.5, 43.7 36.4 C 31.5 44.1, 52.8 87.6, 42.0 75.2 C 56.6 63.1, 52.7 100.0, 41.5 94.0 C 55.5 100.0, 27.4 59.4, 41.6 71.0 C 27.2 67.3, 65.3 64.6, 68.9 59.0 C 67.3 71.5, 68.4 9.4, 82.1 23.6 C 67.3 6.8, 24.5 78.1, 34.5 80.4 C 26.2 62.9, 55.0 75.5, 51.2 69.8 Z" fill="hsl(83, 65%, 44%)" fill-opacity="0.79" stroke="none" stroke-width="4.39"  transform="translate(5.3 18.2) rotate(147.8) scale(0.85 0.77)" />
<rect x="50.8" y="26.8" width="40.0" height="35.4" rx="0" fill="none" fill-opacity="0.62" stroke="hsl(242, 72%, 49%)" stroke-width="3.0"  transform="translate(94.4 33.0) rotate(134.8) scale(1.64 1.47)" />
<circle cx="17.5" cy="29.2" r="5.9" fill="hsl(183, 71%, 60%)" fill-opacity="0.86"  transform="translate(37.9 82.8) rotate(67.9) scale(0.82 0.67)" />
<path d="M 18.7 54.6 C 37.2 72.3, 56.8 32.0, 46.3 26.1 C 57.4 45.2, 95.0 67.9, 80.5 80.5 C 63.1 82.2, 21.5 26.9, 20.2 32.9 C 24.6 42.3, 53.9 46.2, 47.8 48.1 C 55.7 43.4, 63.8 46.0, 69.8 59.4 C 68.8 55.3, 85.8 92.2, 84.7 94.5 Z" fill="none" fill-opacity="0.93" stroke="hsl(151, 70%, 62%)" stroke-width="3.20"   />
<rect x="3.1" y="17.3" width="46.9" height="17.5" rx="0" fill="hsl(183, 71%, 60%)" fill-opacity="0.73"   transform="translate(29.0 84.3) rotate(164.0) scale(1.21 0.56)" />
<circle cx="51.2" cy="86.4" r="18.7" fill="hsl(322, 74%, 44%)" fill-opacity="0.87"  transform="translate(76.2 27.6) rotate(268.9) scale(1.33 1.32)" />
<path d="M 20.0 9.7 C 20.7 2.7, 44.4 42.4, 42.2 57.0 C 37.6 55.7, 41.2 100.0, 35.8 99.4 C 51.0 100.0, 52.9 95.3, 53.3 88.4 C 57.8 100.0, 57.3 75.8, 45.5 68.6 C 26.7 60.8, 13.9 86.7, 25.8 87.6 C 43.8 100.0, 74.9 60.8, 63.2 46.8 C 62.2 61.1, 14.0 7.7, 1.7 17.6 C 1.0 23.7, 65.7 86.6, 59.1 91.2 C 51.4 83.3, 73.5 97.7, 64.1 87.4 Z" fill="none" fill-opacity="0.38" stroke="hsl(144, 86%, 72%)" stroke-width="3.89"  transform="translate(48.2 17.4) rotate(99.1) scale(0.80 1.99)" />
<path d="M 58.7 18.1 C 73.2 12.2, 81.6 63.9, 74.6 72.3 C 68.3 80.4, 12.9 38.0, 3.4 51.5 C 12.1 64.2, 28.1 3.9, 24.7 3.8 C 44.3 21.9, 41.4 95.6, 46.4 88.3 C 54.5 97.3, 94.0 56.5, 89.3 50.5 C 100.0 32.7, 62.9 66.4, 62.0 53.7 C 72.8 55.0, 20.1 47.8, 9.0 58.4 C 0.0 44.9, 33.3 4.8, 46.4 5.7 C 47.5 11.9, 73.1 22.9, 70.4 26.8 C 73.5 26.3, 44.6 0.0, 47.5 0.8 Z" fill="none" fill-opacity="0.88" stroke="hsl(144, 86%, 72%)" stroke-width="5.14"  transform="translate(58.2 66.1) rotate(242.6) scale(1.03 1.51)" />
<path d="M 38.3 70.9 C 19.7 75.6, 33.3 46.8, 32.7 60.9 C 46.8 51.7, 34.0 0.0, 45.3 3.2 C 36.7 0.0, 75.6 82.8, 64.0 94.6 C 60.7 100.0, 50.7 61.5, 56.6 67.2 C 61.7 86.8, 38.0 84.2, 37.0 71.5 C 35.5 63.0, 75.1 72.0, 87.1 86.5 C 90.8 68.6, 91.5 34.4, 83.1 37.9 C 74.6 22.2, 84.7 92.8, 95.5 97.7 C 89.9 100.0, 5.7 23.3, 16.4 18.4 C 4.4 2.4, 11.6 35.8, 20.4 29.9 Z" fill="hsl(106, 75%, 59%)" fill-opacity="0.97" stroke="none" stroke-width="2.95"   />
<path d="M 99.9 69.7 C 100.0 60.2, 7.1 56.9, 21.1 54.8 C 27.7 63.4, 28.1 9.9, 15.8 1.1 C 6.9 0.0, 97.9 75.0, 93.6 89.5 C 99.7 94.0, 75.2 17.4, 82.5 20.4 C 78.2 13.1, 44.2 34.2, 48.8 35.0 C 45.8 17.5, 71.1 1.4, 79.4 13.3 C 63.2 25.0, 92.2 63.8, 90.8 62.0 Z" fill="hsl(144, 86%, 72%)" fill-opacity="0.30" stroke="none" stroke-width="1.39"   />
<path d="M 87.9 29.3 C 100.0 48.4, 72.4 72.9, 66.9 74.7 C 69.9 60.1, 2.8 24.6, 15.6 30.2 C 4.6 11.8, 10.4 95.2, 18.0 90.6 C 33.7 83.1, 26.5 61.4, 30.2 67.0 C 28.7 85.0, 85.1 94.8, 84.0 97.7 C 86.7 78.3, 51.4 61.4, 65.2 72.3 C 84.3 67.1, 64.5 46.4, 55.6 61.1 C 62.8 62.3, 35.9 73.3, 32.3 59.7 Z" fill="none" fill-opacity="0.68" stroke="hsl(106, 75%, 59%)" stroke-width="2.24"  transform="translate(7.9 70.9) rotate(5.9) scale(0.53 1.55)" />
<circle cx="11.0" cy="55.2" r="6.1" fill="url(#g1)" fill-opacity="0.70"  transform="translate(33.1 69.5) rotate(338.1) scale(1.28 0.80)" />
<rect x="71.8" y="61.2" width="20.5" height="29.6" rx="0" fill="hsl(83, 65%, 44%)" fill-opacity="0.78"   transform="translate(95.5 35.6) rotate(350.2) scale(1.17 1.35)" />
<rect x="12.6" y="4.5" width="27.7" height="12.1" rx="0" fill="hsl(144, 86%, 72%)" fill-opacity="0.34" stroke="hsl(40, 53%, 69%)" stroke-width="3.6"  transform="translate(57.8 7.5) rotate(45.4) scale(0.58 1.28)" />
<path d="M 48.0 41.7 C 36.4 22.6, 70.7 23.8, 73.1 11.9 C 74.1 22.7, 87.1 8.9, 85.2 21.6 C 84.0 27.3, 19.4 26.8, 22.1 26.6 C 7.4 41.5, 32.6 14.0, 26.3 7.6 C 32.2 27.5, 74.7 79.5, 82.7 83.0 C 68.5 75.4, 76.3 74.5, 86.8 65.6 C 80.9 64.7, 55.5 51.8, 66.0 61.0 C 80.9 56.1, 71.7 88.5, 65.3 76.2 Z" fill="hsl(322, 74%, 44%)" fill-opacity="0.63" stroke="none" stroke-width="2.48" filter="url(#f1)" transform="translate(94.1 76.5) rotate(23.8) scale(1.57 1.01)" />
<circle cx="25.9" cy="40.4" r="20.6" fill="url(#g1)" fill-opacity="0.49"   />
<circle cx="9.3" cy="44.6" r="11.8" fill="url(#g1)" fill-opacity="0.79"  transform="translate(35.6 5.0) rotate(4.8) scale(1.29 1.02)" />
<path d="M 77.2 75.6 C 94.3 56.7, 32.5 5.8, 43.9 18.3 C 36.7 33.3, 83.8 97.2, 80.5 98.0 C 73.3 84.9, 100.0 5.6, 99.8 14.7 C 84.7 25.1, 14.8 25.4, 9.7 26.3 C 15.2 27.3, 9.0 26.0, 21.3 32.4 C 25.5 40.6, 28.8 48.2, 27.7 55.2 C 25.8 45.4, 0.0 61.9, 6.5 49.4 C 17.7 68.0, 87.9 91.6, 81.5 94.5 Z" fill="none" fill-opacity="0.32" stroke="hsl(104, 72%, 65%)" stroke-width="1.95"  transform="translate(50.4 69.2) rotate(13.6) scale(0.78 1.42)" />
<rect x="16.1" y="50.9" width="38.3" height="20.5" rx="0" fill="none" fill-opacity="0.69"   transform="translate(39.1 9.7) rotate(206.8) scale(0.64 1.90)" />
<rect x="27.0" y="0.6" width="38.7" height="31.1" rx="15.0" fill="hsl(104, 72%, 65%)" fill-opacity="0.73"   transform="translate(24.2 39.9) rotate(9.4) scale(1.01 1.24)" />
<path d="M 46.2 85.5 C 47.1 74.5, 98.5 69.2, 98.5 74.5 C 89.0 76.8, 1.5 60.7, 15.0 62.2 C 1.0 43.8, 10.3 61.1, 18.2 74.3 C 29.8 61.7, 35.6 27.0, 30.4 16.2 C 34.3 0.2, 29.4 46.4, 21.5 35.9 C 38.1 46.1, 76.8 49.6, 91.2 62.4 C 71.6 63.0, 0.0 70.5, 6.3 64.6 C 0.0 80.1, 92.7 21.4, 95.6 35.5 C 87.8 32.0, 5.3 35.4, 0.8 46.1 C 9.9 39.1, 0.0 37.3, 0.8 36.0 Z" fill="hsl(104, 72%, 65%)" fill-opacity="0.57" stroke="none" stroke-width="4.74" filter="url(#f1)" transform="translate(83.2 33.3) rotate(85.5) scale(1.26 1.78)" />
<circle cx="62.3" cy="58.9" r="8.8" fill="url(#g2)" fill-opacity="0.96"  transform="translate(61.4 50.1) rotate(217.1) scale(1.68 1.03)" />
<path d="M 84.8 87.3 C 74.9 80.9, 1.0 63.4, 9.8 66.0 C 26.2 66.9, 29.6 27.8, 38.9 30.5 C 44.2 31.5, 79.0 78.3, 91.0 78.2 C 100.0 96.3, 21.6 40.0, 35.3 34.7 C 26.2 37.3, 81.2 86.8, 68.7 93.3 C 49.8 74.6, 100.0 21.6, 95.6 17.5 Z" fill="none" fill-opacity="0.91" stroke="hsl(40, 53%, 69%)" stroke-width="5.24"  transform="translate(50.1 40.4) rotate(260.5) scale(1.38 0.66)" />
<path d="M 51.5 82.6 C 62.7 90.6, 79.3 0.0, 69.3 5.0 C 56.0 0.0, 6.0 15.3, 18.5 3.8 C 2.1 8.6, 15.5 76.2, 2.2 87.5 C 0.0 92.4, 64.2 80.8, 61.8 66.3 C 56.7 50.8, 57.7 31.1, 49.0 18.9 C 37.0 20.7, 94.3 5.8, 94.5 17.2 C 77.3 1.0, 97.9 66.3, 84.7 76.8 C 70.7 87.4, 81.6 17.2, 95.8 19.3 Z" fill="hsl(106, 75%, 59%)" fill-opacity="0.31" stroke="none" stroke-width="2.36"  transform="translate(70.8 33.1) rotate(164.2) scale(0.88 1.02)" />
<rect x="55.5" y="13.7" width="32.3" height="15.9" rx="0" fill="hsl(322, 74%, 44%)" fill-opacity="0.30"   transform="translate(55.2 25.5) rotate(178.4) scale(1.75 0.93)" />
<path d="M 16.7 28.4 C 27.8 43.3, 42.3 54.0, 41.4 42.9 C 35.9 52.6, 0.0 89.8, 10.5 98.6 C 4.5 94.6, 47.3 60.2, 37.4 73.6 C 34.8 87.5, 62.1 99.9, 51.5 91.4 C 48.4 72.5, 40.5 81.3, 32.6 78.8 C 44.4 79.4, 71.9 8.4, 67.8 3.8 C 60.9 16.7, 41.3 39.7, 39.2 29.2 C 36.9 44.1, 7.7 5.9, 10.7 6.2 C 0.0 6.6, 23.6 96.4, 13.9 94.2 Z" fill="none" fill-opacity="0.45" stroke="hsl(290, 83%, 63%)" stroke-width="1.61"   />
<path d="M 92.3 1.2 C 88.3 0.0, 41.5 39.6, 34.8 39.1 C 29.4 24.3, 0.0 47.4, 11.5 43.2 C 14.0 58.5, 47.6 59.0, 53.2 66.3 C 57.8 55.4, 76.1 100.0, 85.8 92.2 C 98.1 96.1, 31.3 21.6, 44.6 23.8 C 60.0 33.3, 91.9 7.2, 91.9 5.4 C 76.3 5.8, 26.7 1.3, 23.1 0.3 C 4.4 0.0, 43.9 14.6, 49.0 4.8 C 33.8 13.3, 76.6 14.3, 62.6 26.6 C 77.3 22.7, 33.1 95.9, 41.8 89.4 Z" fill="hsl(106, 75%, 59%)" fill-opacity="0.57" stroke="none" stroke-width="2.41" filter="url(#f1)" transform="translate(86.3 44.0) rotate(325.2) scale(1.36 1.57)" />
<path d="M 62.3 20.7 C 49.0 9.2, 26.7 29.2, 40.8 27.0 C 44.1 23.8, 82.3 34.8, 70.5 33.3 C 54.0 18.2, 29.3 17.9, 36.3 11.9 C 37.6 0.0, 62.0 76.3, 59.2 86.3 C 70.4 79.3, 47.1 27.6, 45.9 39.9 C 57.5 47.4, 97.8 79.1, 85.3 83.9 C 90.4 93.6, 89.1 30.0, 88.7 24.8 C 100.0 35.2, 46.4 5.4, 47.3 19.5 C 29.3 12.7, 11.8 99.9, 1.4 90.5 C 0.0 95.4, 0.0 100.0, 7.5 92.9 Z" fill="hsl(104, 72%, 65%)" fill-opacity="0.36" stroke="none" stroke-width="1.19"  transform="translate(83.8 51.1) rotate(83.4) scale(0.70 0.64)" />
<rect x="28.4" y="49.5" width="30.2" height="22.9" rx="0" fill="none" fill-opacity="0.94"   transform="translate(40.4 68.5) rotate(306.9) scale(1.50 1.62)" />
<path d="M 2.3 39.2 C 0.0 53.4, 84.3 67.2, 90.5 60.6 C 89.8 70.5, 35.7 76.7, 42.4 81.7 C 41.2 100.0, 41.6 62.0, 38.3 61.2 C 23.3 41.3, 60.3 87.9, 56.4 81.8 C 47.0 65.4, 55.0 60.2, 60.2 56.5 C 46.4 68.5, 60.9 91.5, 52.9 90.7 C 67.0 100.0, 18.1 63.6, 29.6 60.8 C 23.4 78.0, 86.3 92.0, 76.2 97.7 C 58.2 100.0, 76.6 83.3, 86.7 74.5 C 94.8 60.0, 80.0 58.4, 79.4 64.8 " fill="none" fill-opacity="0.83" stroke="hsl(151, 70%, 62%)" stroke-width="1.95"  transform="translate(8.0 23.8) rotate(269.3) scale(0.93 0.91)" />
<path d="M 65.6 59.7 C 64.8 62.6, 47.7 46.2, 47.5 59.8 C 52.4 77.5, 57.8 67.1, 58.2 68.0 C 66.2 73.1, 60.2 54.2, 62.7 56.7 C 56.6 67.6, 0.9 57.4, 13.0 67.8 C 28.5 61.8, 31.6 28.1, 44.9 26.9 C 63.8 21.4, 77.3 78.7, 69.8 70.4 C 71.4 86.3, 31.4 99.9, 35.3 88.9 C 29.7 76.0, 8.0 73.7, 5.3 81.7 C 0.0 92.3, 30.5 3.5, 22.1 5.5 C 16.2 10.2, 54.4 64.5, 42.0 69.8 Z" fill="none" fill-opacity="0.77" stroke="hsl(242, 72%, 49%)" stroke-width="4.54"  transform="translate(38.0 12.1) rotate(66.6) scale(1.93 1.99)" />
<path d="M 13.5 58.7 C 6.3 50.5, 0.0 27.9, 1.2 30.7 C 8.6 30.5, 94.5 84.0, 87.3 71.7 C 79.7 91.4, 80.5 35.2, 66.9 37.9 C 59.4 25.0, 80.7 63.7, 81.8 75.9 C 93.4 64.2, 7.4 83.9, 9.6 82.5 C 0.0 100.0, 34.7 67.5, 34.8 72.2 C 18.7 91.2, 70.4 93.3, 55.9 96.4 C 72.9 81.5, 0.0 67.2, 4.6 63.0 C 1.4 78.8, 10.7 90.0, 3.2 97.8 Z" fill="hsl(322, 74%, 44%)" fill-opacity="0.60" stroke="none" stroke-width="3.77"   />
<circle cx="88.0" cy="6.1" r="4.9" fill="url(#g0)" fill-opacity="0.98"   />
<rect x="46.3" y="48.9" width="48.4" height="22.5" rx="0" fill="none" fill-opacity="0.67" stroke="hsl(151, 70%, 62%)" stroke-width="4.9"  transform="translate(12.6 50.2) rotate(93.9) scale(1.28 1.22)" />
<path d="M 10.1 70.2 C 7.7 76.6, 37.7 34.4, 48.0 21.4 C 43.2 30.0, 86.4 67.4, 88.5 80.7 C 69.7 82.3, 49.0 59.1, 44.8 52.8 C 54.6 70.0, 52.5 22.6, 44.1 14.6 C 57.3 0.0, 26.4 84.4, 14.8 91.1 C 28.9 81.0, 14.4 16.2, 16.3 26.6 C 0.8 8.3, 27.0 0.0, 29.9 13.2 C 16.1 11.0, 60.0 37.2, 73.6 22.4 Z" fill="none" fill-opacity="0.73" stroke="hsl(40, 53%, 69%)" stroke-width="2.66"  transform="translate(28.7 42.8) rotate(29.9) scale(1.46 0.76)" />
<path d="M 55.3 62.5 C 45.9 59.0, 47.9 68.6, 36.1 54.7 C 49.1 36.2, 0.0 75.7, 6.8 80.3 C 26.5 83.0, 73.8 34.0, 73.2 24.8 C 91.1 23.0, 65.0 100.0, 75.8 96.8 C 88.1 100.0, 24.4 78.4, 10.0 75.5 C 6.6 55.6, 0.0 84.9, 2.7 97.0 " fill="hsl(83, 65%, 44%)" fill-opacity="0.27" stroke="none" stroke-width="3.76" filter="url(#f1)" transform="translate(62.5 35.8) rotate(29.4) scale(0.84 0.51)" />
<rect x="21.9" y="50.2" width="23.4" height="26.4" rx="0" fill="hsl(144, 86%, 72%)" fill-opacity="0.42"    />
<circle cx="7.2" cy="59.1" r="1.3" fill="url(#g0)" fill-opacity="0.74"  transform="translate(74.8 99.4) rotate(357.3) scale(0.85 1.97)" />
<path d="M 71.3 21.5 C 60.2 39.9, 29.8 0.0, 35.1 4.3 C 26.1 0.0, 8.0 61.5, 6.2 65.1 C 15.1 80.3, 54.2 88.3, 56.5 99.1 C 58.0 98.1, 3.2 24.4, 3.1 13.9 C 0.0 0.0, 79.8 76.3, 68.3 73.7 C 86.1 91.3, 80.3 98.2, 69.2 86.5 C 60.6 100.0, 0.6 70.8, 9.4 66.9 C 0.0 55.0, 17.1 41.7, 10.8 46.6 C 20.3 46.5, 34.3 80.8, 40.3 81.7 Z" fill="hsl(242, 72%, 49%)" fill-opacity="0.36" stroke="none" stroke-width="2.09"  transform="translate(93.7 84.0) rotate(272.5) scale(1.33 1.18)" />
<g opacity="0.049">
<rect x="0" y="0" width="1" height="100" fill="black" />
<rect x="22" y="0" width="1" height="100" fill="black" />
<rect x="44" y="0" width="1" height="100" fill="black" />
<rect x="66" y="0" width="1" height="100" fill="black" />
<rect x="88" y="0" width="1" height="100" fill="black" />
<rect x="0" y="0" width="100" height="1" fill="black" />
<rect x="0" y="22" width="100" height="1" fill="black" />
<rect x="0" y="44" width="100" height="1" fill="black" />
<rect x="0" y="66" width="100" height="1" fill="black" />
<rect x="0" y="88" width="100" height="1" fill="black" />
</g>

</svg>
