<?xml version="1.0" encoding="UTF-8"?>
<svg xmlns="http://www.w3.org/2000/svg" width="100" height="100" viewBox="0 0 100 100">
<defs>
<linearGradient id="g0" x1="0%" y1="0%" x2="100%" y2="100%">
<stop offset="0.0%" stop-color="hsl(106, 75%, 59%)" />
<stop offset="33.3%" stop-color="hsl(183, 71%, 60%)" />
<stop offset="66.7%" stop-color="hsl(242, 72%, 49%)" />
<stop offset="100.0%" stop-color="hsl(322, 74%, 44%)" />
</linearGradient>
<linearGradient id="g1" x1="0%" y1="0%" x2="100%" y2="100%">
<stop offset="0.0%" stop-color="hsl(290, 83%, 63%)" />
<stop offset="33.3%" stop-color="hsl(2, 82%, 55%)" />
<stop offset="66.7%" stop-color="hsl(86, 72%, 68%)" />
<stop offset="100.0%" stop-color="hsl(83, 65%, 44%)" />
</linearGradient>
<linearGradient id="g2" x1="0%" y1="0%" x2="100%" y2="100%">
<stop offset="0.0%" stop-color="hsl(40, 53%, 69%)" />
<stop offset="33.3%" stop-color="hsl(104, 72%, 65%)" />
<stop offset="66.7%" stop-color="hsl(144, 86%, 72%)" />
<stop offset="100.0%" stop-color="hsl(151, 70%, 62%)" />
</linearGradient>
</defs>

<path d="M 56.3 84.8 C 37.5 91.0, 35.0 41.1, 29.9 39.9 C 44.9 21.3, 26.6 97.6, 16.5 91.3 C 19.0 100.0, 61.3 24.8, 63.2 28.6 C 78.5 39.1, 52.5 14.8, 41.0 16.6 C 44.9 33.9, 84.8 62.1, 73.7 71.7 C 92.2 83.7, 75.9 12.7, 69.0 26.2 " fill="none" fill-opacity="0.45" stroke="hsl(2, 82%, 55%)" stroke-width="1.14"   />
<path d="M 69.8 53.4 C 78.5 67.9, 92.8 44.5, 79.1 56.9 C 85.8 68.7, 28.3 87.5, 34.6 80.8 C 36.9 94.6, 6.9 100.0, 7.4 93.4 C 8.4 100.0, 69.5 84.1, 68.4 75.2 Z" fill="hsl(106, 75%, 59%)" fill-opacity="0.66" stroke="none" stroke-width="1.11"  transform="translate(93.6 19.7) rotate(204.2) scale(1.19 1.21)" />
<circle cx="58.9" cy="74.1" r="0.5" fill="hsl(322, 74%, 44%)" fill-opacity="0.68"  transform="translate(7.4 20.6) rotate(113.9) scale(1.02 0.62)" />
<path d="M 23.1 63.9 C 10.4 55.6, 13.6 78.2, 26.6 91.7 C 44.0 84.7, 91.8 6.3, 86.5 3.8 C 94.6 0.2, 0.0 24.0, 3.9 38.1 C 0.0 29.4, 32.4 41.3, 39.6 45.7 C 32.8 52.9, 8.0 62.7, 3.5 66.1 C 0.0 65.6, 7.2 69.6, 4.8 79.2 C 10.8 97.7, 100.0 80.5, 87.9 68.7 Z" fill="none" fill-opacity="0.36" stroke="hsl(183, 71%, 60%)" stroke-width="1.14"   />
<path d="M 61.1 71.8 C 62.1 57.9, 59.7 7.5, 74.3 1.1 C 84.1 15.8, 74.9 5.7, 73.2 5.3 C 75.8 2.7, 70.2 37.0, 60.3 49.8 C 60.5 35.5, 79.2 78.9, 83.3 64.4 C 82.9 80.3, 69.8 53.3, 79.1 56.2 C 59.3 53.5, 19.3 91.3, 21.3 96.1 C 34.9 100.0, 52.3 9.3, 39.9 19.1 Z" fill="hsl(83, 65%, 44%)" fill-opacity="0.91" stroke="none" stroke-width="0.94"  transform="translate(30.7 71.9) rotate(312.5) scale(0.65 1.89)" />
<rect x="62.0" y="5.8" width="28.5" height="20.3" rx="0" fill="none" fill-opacity="0.59"    />
<rect x="31.7" y="8.6" width="28.0" height="18.3" rx="9.4" fill="hsl(242, 72%, 49%)" fill-opacity="0.28"    />
<circle cx="62.4" cy="85.2" r="0.5" fill="hsl(2, 82%, 55%)" fill-opacity="0.42"  transform="translate(84.8 47.3) rotate(331.8) scale(0.94 1.92)" />
<rect x="28.5" y="25.1" width="46.3" height="23.5" rx="13.0" fill="none" fill-opacity="0.38"   transform="translate(89.0 39.2) rotate(159.9) scale(1.03 1.03)" />
<path d="M 10.5 92.3 C 2.6 87.5, 79.2 0.0, 67.0 7.9 C 63.5 6.3, 83.0 100.0, 76.0 92.8 C 70.8 94.9, 27.4 40.6, 20.8 47.9 C 38.8 43.6, 80.0 89.8, 82.7 85.5 C 95.7 75.7, 11.7 47.5, 5.9 52.6 Z" fill="none" fill-opacity="0.33" stroke="hsl(83, 65%, 44%)" stroke-width="1.25"  transform="translate(9.7 80.7) rotate(71.1) scale(1.72 0.91)" />
<path d="M 34.4 85.1 C 34.7 83.8, 58.3 80.6, 61.1 84.2 C 44.7 85.7, 87.7 91.7, 91.2 93.7 C 100.0 100.0, 30.5 19.2, 21.5 31.4 " fill="hsl(183, 71%, 60%)" fill-opacity="0.64" stroke="none" stroke-width="1.11"   />
<rect x="21.4" y="33.2" width="41.5" height="16.6" rx="0" fill="hsl(242, 72%, 49%)" fill-opacity="0.82"   transform="translate(24.4 61.9) rotate(134.0) scale(1.31 1.27)" />
<path d="M 89.1 24.2 C 100.0 21.1, 26.8 91.8, 23.2 85.5 C 26.1 100.0, 83.9 9.4, 89.0 6.5 C 78.6 0.0, 47.9 48.7, 41.5 46.6 C 30.5 32.0, 37.6 30.7, 40.1 19.8 C 53.8 37.7, 18.0 82.6, 5.6 81.7 C 18.0 95.3, 22.1 50.6, 33.1 55.2 " fill="hsl(83, 65%, 44%)" fill-opacity="0.57" stroke="none" stroke-width="1.29"   />
</svg>
