<?xml version="1.0" encoding="UTF-8"?>
<svg xmlns="http://www.w3.org/2000/svg" width="100" height="100" viewBox="0 0 100 100">
<defs>
<linearGradient id="g0" x1="0%" y1="0%" x2="100%" y2="100%">
<stop offset="0.0%" stop-color="hsl(106, 75%, 59%)" />
<stop offset="33.3%" stop-color="hsl(183, 71%, 60%)" />
<stop offset="66.7%" stop-color="hsl(242, 72%, 49%)" />
<stop offset="100.0%" stop-color="hsl(322, 74%, 44%)" />
</linearGradient>
<linearGradient id="g1" x1="0%" y1="0%" x2="100%" y2="100%">
<stop offset="0.0%" stop-color="hsl(290, 83%, 63%)" />
<stop offset="33.3%" stop-color="hsl(2, 82%, 55%)" />
<stop offset="66.7%" stop-color="hsl(86, 72%, 68%)" />
<stop offset="100.0%" stop-color="hsl(83, 65%, 44%)" />
</linearGradient>
<linearGradient id="g2" x1="0%" y1="0%" x2="100%" y2="100%">
<stop offset="0.0%" stop-color="hsl(40, 53%, 69%)" />
<stop offset="33.3%" stop-color="hsl(104, 72%, 65%)" />
<stop offset="66.7%" stop-color="hsl(144, 86%, 72%)" />
<stop offset="100.0%" stop-color="hsl(151, 70%, 62%)" />
</linearGradient>
</defs>

<rect x="21.2" y="42.5" width="30.2" height="33.9" rx="0" fill="none" fill-opacity="0.47"   transform="translate(53.1 91.6) rotate(248.2) scale(1.00 1.52)" />
<path d="M 53.8 38.3 C 42.1 44.6, 58.5 44.6, 46.9 33.6 C 43.7 52.8, 33.1 0.0, 40.6 0.1 C 26.9 0.0, 78.5 21.8, 83.4 16.2 C 91.1 21.5, 51.1 22.9, 53.8 34.9 Z" fill="hsl(183, 71%, 60%)" fill-opacity="0.88" stroke="none" stroke-width="0.95"  transform="translate(78.8 52.9) rotate(33.3) scale(1.06 0.54)" />
<path d="M 89.3 4.8 C 100.0 0.0, 54.1 16.4, 60.3 18.3 C 52.7 0.0, 49.2 0.0, 63.1 0.0 C 60.4 13.5, 21.0 77.1, 28.5 80.0 C 43.0 91.9, 17.8 2.9, 26.1 9.2 C 6.7 4.4, 40.6 54.7, 29.7 40.3 C 15.1 51.8, 76.5 22.9, 66.3 32.8 " fill="hsl(183, 71%, 60%)" fill-opacity="0.51" stroke="none" stroke-width="1.08"   />
<path d="M 1.8 27.5 C 0.0 16.3, 0.0 0.0, 5.8 0.9 C 0.0 0.0, 61.2 57.0, 58.2 64.6 C 57.3 51.3, 13.4 45.9, 23.6 49.1 Z" fill="hsl(183, 71%, 60%)" fill-opacity="0.34" stroke="none" stroke-width="0.94"  transform="translate(86.0 47.9) rotate(233.3) scale(1.17 1.37)" />
<circle cx="27.5" cy="87.5" r="0.6" fill="hsl(322, 74%, 44%)" fill-opacity="0.91"  transform="translate(36.9 29.0) rotate(118.8) scale(1.35 1.21)" />
<rect x="42.1" y="35.6" width="32.9" height="20.6" rx="0" fill="none" fill-opacity="0.90"   transform="translate(80.3 20.5) rotate(62.5) scale(0.87 1.91)" />
<circle cx="96.5" cy="76.3" r="0.3" fill="hsl(106, 75%, 59%)" fill-opacity="0.80"   />
<rect x="15.2" y="24.6" width="35.9" height="14.8" rx="12.8" fill="none" fill-opacity="0.73"   transform="translate(75.7 46.0) rotate(189.6) scale(0.80 1.78)" />
<circle cx="22.6" cy="5.4" r="0.9" fill="hsl(242, 72%, 49%)" fill-opacity="0.88"  transform="translate(26.0 29.0) rotate(217.9) scale(0.75 1.57)" />
<rect x="20.3" y="2.6" width="31.9" height="28.2" rx="0" fill="none" fill-opacity="0.68"    />
<rect x="11.5" y="69.5" width="45.0" height="23.2" rx="10.0" fill="none" fill-opacity="0.86"    />
<path d="M 80.4 80.5 C 95.9 74.6, 74.8 52.1, 73.6 53.6 C 92.4 55.7, 5.4 97.7, 7.4 88.6 C 0.0 68.8, 33.8 95.8, 31.0 87.3 Z" fill="none" fill-opacity="0.93" stroke="hsl(104, 72%, 65%)" stroke-width="0.81"  transform="translate(21.1 62.6) rotate(32.4) scale(1.35 1.74)" />
<path d="M 32.1 4.7 C 31.6 5.8, 70.6 50.7, 82.7 47.6 C 86.6 48.8, 7.2 75.1, 14.3 78.7 C 2.5 59.3, 97.9 100.0, 83.9 95.8 " fill="none" fill-opacity="0.79" stroke="hsl(106, 75%, 59%)" stroke-width="0.88"   />
<rect x="0.4" y="51.2" width="37.2" height="21.3" rx="13.9" fill="none" fill-opacity="0.96"    />
<path d="M 16.1 24.4 C 19.9 31.9, 17.7 69.6, 9.0 66.8 C 0.0 63.2, 14.0 78.3, 15.6 73.4 C 5.4 54.8, 68.4 67.5, 55.9 63.7 C 56.9 58.6, 44.7 52.9, 39.9 57.3 C 59.8 49.9, 83.8 40.8, 77.8 28.9 C 78.4 14.7, 67.4 93.0, 52.5 96.0 Z" fill="none" fill-opacity="0.54" stroke="hsl(322, 74%, 44%)" stroke-width="0.82"  transform="translate(12.7 77.4) rotate(260.4) scale(0.73 1.50)" />
<rect x="10.0" y="35.8" width="48.8" height="28.5" rx="0" fill="none" fill-opacity="0.32" stroke="hsl(322, 74%, 44%)" stroke-width="3.2"  transform="translate(65.4 45.8) rotate(144.3) scale(1.51 0.77)" />
<path d="M 81.2 75.2 C 71.4 84.8, 50.5 48.8, 40.5 55.3 C 53.0 56.5, 80.2 80.4, 89.1 76.8 C 91.1 81.4, 21.2 75.8, 26.4 63.2 C 40.8 63.6, 26.4 15.9, 18.5 7.6 C 0.0 0.0, 40.6 14.2, 44.4 18.3 " fill="none" fill-opacity="0.59" stroke="hsl(144, 86%, 72%)" stroke-width="1.25"  transform="translate(57.6 66.0) rotate(223.2) scale(1.59 1.18)" />
</svg>
