<?xml version="1.0" encoding="UTF-8"?>
<svg xmlns="http://www.w3.org/2000/svg" width="100" height="100" viewBox="0 0 100 100">
<defs>
<linearGradient id="g0" x1="0%" y1="0%" x2="100%" y2="100%">
<stop offset="0.0%" stop-color="hsl(106, 75%, 59%)" />
<stop offset="33.3%" stop-color="hsl(183, 71%, 60%)" />
<stop offset="66.7%" stop-color="hsl(242, 72%, 49%)" />
<stop offset="100.0%" stop-color="hsl(322, 74%, 44%)" />
</linearGradient>
<linearGradient id="g1" x1="0%" y1="0%" x2="100%" y2="100%">
<stop offset="0.0%" stop-color="hsl(290, 83%, 63%)" />
<stop offset="33.3%" stop-color="hsl(2, 82%, 55%)" />
<stop offset="66.7%" stop-color="hsl(86, 72%, 68%)" />
<stop offset="100.0%" stop-color="hsl(83, 65%, 44%)" />
</linearGradient>
<linearGradient id="g2" x1="0%" y1="0%" x2="100%" y2="100%">
<stop offset="0.0%" stop-color="hsl(40, 53%, 69%)" />
<stop offset="33.3%" stop-color="hsl(104, 72%, 65%)" />
<stop offset="66.7%" stop-color="hsl(144, 86%, 72%)" />
<stop offset="100.0%" stop-color="hsl(151, 70%, 62%)" />
</linearGradient>
<filter id="f1" x="-20%" y="-20%" width="140%" height="140%">
  <feGaussianBlur stdDeviation="1.4123482040636897" />
</filter>

</defs>

<path d="M 13.4 97.5 C 15.0 91.1, 57.9 99.5, 71.6 95.0 C 74.1 93.0, 63.2 20.7, 74.3 24.2 C 77.4 39.7, 51.5 49.3, 57.0 41.0 C 54.4 25.3, 19.4 37.9, 24.3 51.5 C 6.1 31.6, 3.8 42.2, 2.6 39.2 C 8.8 43.7, 83.5 60.3, 87.8 73.7 C 89.2 74.5, 66.2 39.1, 52.9 46.5 C 51.1 47.9, 8.2 28.4, 22.2 13.6 C 25.6 27.7, 14.1 12.7, 16.6 20.0 " fill="hsl(2, 82%, 55%)" fill-opacity="0.30" stroke="none" stroke-width="0.94" filter="url(#f1)" transform="translate(37.6 54.3) rotate(130.6) scale(0.65 1.57)" />
<path d="M 68.6 21.8 C 80.2 15.7, 57.8 37.1, 44.2 49.9 C 33.7 54.3, 29.2 19.2, 29.8 22.0 C 42.3 16.8, 0.0 31.5, 3.2 34.1 C 0.0 46.8, 100.0 20.1, 98.2 18.8 C 90.0 22.1, 65.6 63.3, 53.7 78.3 C 69.6 87.4, 66.4 82.3, 51.8 80.8 C 69.6 61.1, 50.8 89.8, 47.3 76.8 C 35.6 61.7, 21.7 88.0, 29.8 99.2 C 15.9 87.0, 37.8 44.5, 33.2 50.0 C 20.7 39.5, 60.8 74.2, 51.2 63.6 Z" fill="hsl(2, 82%, 55%)" fill-opacity="0.54" stroke="none" stroke-width="4.76"   />
<circle cx="51.9" cy="1.6" r="9.7" fill="hsl(86, 72%, 68%)" fill-opacity="0.66"  transform="translate(46.0 62.6) rotate(142.3) scale(1.67 1.25)" />
<rect x="4.6" y="54.3" width="24.1" height="27.5" rx="18.9" fill="none" fill-opacity="0.63" stroke="hsl(322, 74%, 44%)" stroke-width="1.4" filter="url(#f1)" transform="translate(39.9 4.8) rotate(53.1) scale(1.02 0.71)" />
<rect x="26.1" y="22.3" width="41.3" height="15.5" rx="6.2" fill="none" fill-opacity="0.88" stroke="hsl(106, 75%, 59%)" stroke-width="4.1"  transform="translate(67.7 50.1) rotate(355.9) scale(1.03 0.93)" />
<path d="M 70.1 52.4 C 83.0 41.9, 34.1 100.0, 44.3 94.7 C 24.5 100.0, 55.2 75.3, 47.4 70.6 C 64.3 76.4, 13.1 88.1, 10.3 86.7 C 7.3 72.7, 53.1 22.1, 38.9 31.3 C 21.7 33.5, 0.0 19.4, 8.5 33.3 C 8.2 21.5, 38.1 17.9, 28.2 4.4 C 9.2 0.0, 11.6 66.2, 9.2 80.2 C 5.2 93.0, 1.4 91.9, 5.5 94.6 C 0.0 100.0, 81.4 89.5, 87.1 92.1 " fill="hsl(106, 75%, 59%)" fill-opacity="0.66" stroke="none" stroke-width="3.29" filter="url(#f1)"  />
<path d="M 17.5 57.3 C 33.8 65.5, 6.4 79.6, 7.4 87.6 C 0.9 100.0, 41.4 41.4, 49.1 37.5 C 37.2 31.7, 65.0 90.4, 57.6 81.0 C 65.5 80.9, 100.0 40.8, 92.3 35.7 C 80.3 27.9, 40.2 11.0, 50.9 13.3 C 57.2 22.3, 97.4 59.9, 99.2 52.7 C 82.5 50.3, 48.4 0.0, 54.1 4.4 Z" fill="none" fill-opacity="0.33" stroke="hsl(104, 72%, 65%)" stroke-width="4.86"  transform="translate(33.4 72.9) rotate(229.2) scale(1.06 1.94)" />
<circle cx="99.6" cy="26.9" r="10.3" fill="hsl(106, 75%, 59%)" fill-opacity="0.75"   />
<path d="M 84.2 50.7 C 100.0 55.3, 67.7 77.4, 65.3 86.7 C 75.2 100.0, 45.5 42.6, 35.3 56.3 C 27.2 37.4, 65.8 72.4, 75.7 87.3 C 90.3 77.0, 27.2 100.0, 30.7 94.8 C 18.0 91.9, 49.9 24.9, 41.7 14.7 C 37.1 26.5, 30.0 4.0, 35.7 1.4 C 15.8 0.0, 89.3 25.0, 74.9 19.3 C 57.2 35.0, 92.0 0.0, 96.7 10.9 Z" fill="hsl(290, 83%, 63%)" fill-opacity="0.84" stroke="none" stroke-width="2.70"  transform="translate(37.3 65.8) rotate(357.5) scale(1.48 0.88)" />
<circle cx="27.8" cy="9.8" r="18.2" fill="hsl(290, 83%, 63%)" fill-opacity="0.77"  transform="translate(57.3 17.5) rotate(322.9) scale(1.49 0.51)" />
<path d="M 19.4 78.0 C 15.5 61.0, 0.0 15.5, 2.6 22.3 C 10.5 25.0, 100.0 20.2, 86.3 15.7 C 84.0 7.8, 63.5 59.1, 51.2 63.4 C 45.7 62.9, 72.7 66.5, 61.8 75.7 C 69.2 68.9, 61.5 66.8, 47.3 70.3 C 43.7 82.9, 89.9 59.6, 76.7 55.6 C 83.7 44.1, 47.5 70.6, 50.3 83.4 Z" fill="hsl(290, 83%, 63%)" fill-opacity="0.60" stroke="none" stroke-width="4.94"  transform="translate(84.3 0.6) rotate(191.5) scale(1.60 0.98)" />
<path d="M 74.3 80.6 C 65.8 92.0, 77.4 100.0, 78.0 91.5 C 92.2 99.9, 61.0 79.9, 72.0 69.8 C 79.7 86.4, 48.4 82.6, 56.1 94.9 C 68.3 98.2, 72.2 62.6, 78.6 64.0 C 88.9 61.9, 45.3 90.0, 44.1 88.2 C 47.7 83.2, 57.4 37.5, 69.6 30.8 C 86.4 47.1, 8.9 24.7, 11.7 17.7 C 3.0 23.0, 80.6 100.0, 89.7 88.4 C 89.6 100.0, 38.8 45.3, 46.9 47.6 Z" fill="none" fill-opacity="0.70" stroke="hsl(104, 72%, 65%)" stroke-width="5.03"   />
<rect x="4.9" y="78.1" width="33.1" height="18.6" rx="1.8" fill="hsl(151, 70%, 62%)" fill-opacity="0.45" stroke="hsl(40, 53%, 69%)" stroke-width="2.2"  transform="translate(10.9 34.2) rotate(77.3) scale(1.80 1.54)" />
<rect x="16.6" y="54.6" width="40.3" height="30.9" rx="0" fill="hsl(104, 72%, 65%)" fill-opacity="0.37" stroke="hsl(104, 72%, 65%)" stroke-width="2.1"  transform="translate(89.1 7.5) rotate(53.3) scale(0.88 1.66)" />
<path d="M 60.7 2.8 C 73.1 0.0, 44.8 46.2, 44.9 52.6 C 55.4 56.0, 56.2 48.0, 66.0 46.7 C 60.7 60.7, 82.2 13.1, 81.3 7.4 C 76.3 27.4, 46.6 36.4, 36.8 34.1 C 45.1 46.4, 29.3 65.5, 35.2 50.5 C 20.5 35.0, 89.7 57.2, 98.0 47.6 C 100.0 57.1, 84.8 47.6, 98.3 59.8 C 100.0 77.6, 35.3 0.0, 41.9 2.3 C 58.5 0.0, 70.7 99.0, 74.4 92.6 Z" fill="none" fill-opacity="0.76" stroke="hsl(83, 65%, 44%)" stroke-width="1.71"  transform="translate(16.9 75.1) rotate(145.1) scale(1.05 0.77)" />
<path d="M 2.7 83.2 C 3.1 85.7, 91.6 33.4, 85.0 24.8 C 80.6 24.5, 12.7 5.3, 10.7 13.8 C 23.6 19.7, 80.4 37.8, 84.9 30.2 C 67.9 13.1, 25.5 36.1, 20.0 26.7 C 36.7 45.9, 51.1 86.0, 52.8 88.1 C 41.8 99.4, 50.2 30.0, 62.7 34.5 C 76.3 33.7, 31.3 65.5, 40.9 78.0 C 23.5 78.0, 60.5 6.4, 71.7 10.7 Z" fill="hsl(2, 82%, 55%)" fill-opacity="0.83" stroke="none" stroke-width="2.40"  transform="translate(5.9 53.8) rotate(238.4) scale(1.95 1.96)" />
<path d="M 86.2 85.9 C 91.4 91.8, 7.1 42.4, 19.6 33.1 C 21.3 19.7, 52.3 100.0, 63.9 98.8 C 71.0 100.0, 83.9 35.2, 80.1 27.8 C 63.0 15.9, 16.9 0.0, 2.2 10.1 C 0.0 12.8, 86.7 90.1, 75.8 84.9 C 86.6 75.1, 57.5 21.0, 62.4 29.3 Z" fill="hsl(183, 71%, 60%)" fill-opacity="0.78" stroke="none" stroke-width="4.24"  transform="translate(99.4 26.9) rotate(252.9) scale(1.92 0.82)" />
<path d="M 39.4 40.5 C 24.6 52.2, 76.3 0.0, 84.4 1.2 C 84.3 0.0, 34.9 48.1, 25.6 34.6 C 9.2 44.4, 62.5 39.9, 76.6 36.1 C 92.5 30.4, 29.1 76.3, 32.6 83.5 C 33.2 67.8, 62.3 56.1, 70.1 54.9 C 64.2 63.6, 72.8 72.9, 72.4 82.1 C 57.7 85.2, 42.0 37.4, 49.0 34.0 Z" fill="none" fill-opacity="0.31" stroke="hsl(242, 72%, 49%)" stroke-width="3.24"  transform="translate(4.4 66.6) rotate(65.0) scale(1.40 1.80)" />
<circle cx="94.7" cy="54.7" r="8.5" fill="url(#g2)" fill-opacity="0.89"  transform="translate(93.3 68.2) rotate(199.9) scale(1.99 1.07)" />
<rect x="0.9" y="63.9" width="34.4" height="28.5" rx="2.0" fill="none" fill-opacity="0.50" stroke="hsl(106, 75%, 59%)" stroke-width="4.0"  transform="translate(54.5 35.1) rotate(307.3) scale(0.59 0.51)" />
<path d="M 79.9 0.5 C 84.3 18.4, 70.7 25.4, 64.0 26.6 C 74.6 26.0, 85.3 86.9, 92.5 78.1 C 100.0 70.7, 90.0 85.0, 92.4 90.6 C 90.2 91.4, 17.4 61.9, 7.8 55.9 C 17.8 39.5, 84.1 30.4, 90.7 42.1 C 100.0 22.3, 45.4 27.2, 41.9 13.2 C 29.6 9.2, 89.4 72.7, 98.4 64.0 C 100.0 46.0, 49.9 83.9, 55.5 74.7 C 64.1 70.3, 91.4 79.0, 77.8 74.1 C 64.6 91.9, 92.2 53.6, 92.0 64.8 Z" fill="none" fill-opacity="0.98" stroke="hsl(40, 53%, 69%)" stroke-width="3.15"  transform="translate(76.6 24.0) rotate(111.2) scale(1.68 1.12)" />
<rect x="37.9" y="31.9" width="47.3" height="25.1" rx="0" fill="none" fill-opacity="0.27" stroke="hsl(322, 74%, 44%)" stroke-width="1.3" filter="url(#f1)" transform="translate(78.6 61.3) rotate(58.3) scale(0.90 1.15)" />
<path d="M 10.1 30.0 C 12.5 45.9, 70.5 63.8, 67.1 69.4 C 72.2 67.9, 66.7 8.5, 57.6 17.7 C 57.0 15.2, 8.6 42.5, 20.9 54.1 C 24.8 62.3, 4.4 24.5, 4.2 18.9 C 0.0 28.6, 100.0 82.2, 97.9 71.1 C 100.0 91.0, 64.3 82.1, 77.2 85.1 C 76.4 94.8, 72.1 0.0, 67.0 6.7 C 66.4 0.0, 37.3 84.7, 30.0 80.1 C 30.3 82.3, 31.7 0.8, 29.8 7.4 Z" fill="none" fill-opacity="0.86" stroke="hsl(151, 70%, 62%)" stroke-width="4.83"  transform="translate(33.6 29.0) rotate(195.6) scale(1.35 1.44)" />
<path d="M 12.4 29.6 C 10.0 32.8, 72.0 36.3, 85.2 33.2 C 86.8 29.5, 7.5 82.1, 20.4 74.6 C 33.7 67.3, 35.1 65.7, 28.6 56.2 C 24.5 57.8, 35.2 39.3, 38.2 32.0 C 29.0 46.0, 92.6 59.1, 98.6 73.0 C 100.0 77.2, 91.5 46.2, 92.7 33.9 Z" fill="none" fill-opacity="0.84" stroke="hsl(86, 72%, 68%)" stroke-width="1.01"  transform="translate(82.7 79.7) rotate(95.0) scale(0.89 0.88)" />
<rect x="16.6" y="4.5" width="41.2" height="33.2" rx="9.9" fill="hsl(83, 65%, 44%)" fill-opacity="0.85" stroke="hsl(290, 83%, 63%)" stroke-width="2.1" filter="url(#f1)" transform="translate(15.3 20.4) rotate(261.7) scale(0.87 1.24)" />
<path d="M 3.1 23.7 C 0.0 23.7, 8.4 31.1, 7.0 28.6 C 0.0 23.1, 49.4 62.8, 60.2 49.6 C 74.6 52.5, 87.3 59.1, 95.3 56.8 C 87.8 50.9, 71.4 37.9, 69.7 44.8 C 76.6 59.5, 59.4 8.5, 54.8 11.7 C 42.8 24.6, 67.6 81.0, 65.1 92.0 C 53.4 100.0, 18.6 56.2, 12.2 66.1 C 0.6 54.5, 60.6 65.4, 71.6 72.3 C 52.7 59.3, 39.4 63.0, 48.1 60.9 C 57.8 68.5, 7.6 31.0, 21.3 16.3 Z" fill="hsl(83, 65%, 44%)" fill-opacity="0.95" stroke="none" stroke-width="3.19"   />
<path d="M 47.8 26.7 C 57.2 25.8, 9.1 14.9, 3.1 12.4 C 0.4 0.0, 17.2 36.8, 23.7 45.2 C 4.4 28.4, 40.4 54.2, 41.5 64.2 C 45.8 84.0, 10.6 35.5, 7.4 37.7 C 0.0 57.6, 50.9 23.6, 46.6 13.1 C 49.8 0.0, 68.0 45.4, 82.9 38.0 Z" fill="none" fill-opacity="0.95" stroke="hsl(86, 72%, 68%)" stroke-width="4.11"  transform="translate(87.0 41.4) rotate(18.6) scale(1.38 1.31)" />
<path d="M 25.3 93.2 C 12.7 100.0, 39.0 65.4, 25.4 62.6 C 32.0 53.3, 35.6 38.8, 36.4 42.2 C 41.9 36.1, 9.2 96.7, 0.7 98.4 C 0.0 100.0, 29.7 3.2, 41.8 10.0 C 48.6 26.0, 97.2 48.7, 98.1 34.3 C 85.7 45.1, 17.8 21.2, 19.9 6.7 C 30.7 0.0, 73.7 48.1, 72.7 52.8 C 60.4 52.4, 76.8 87.3, 62.3 94.7 C 77.8 80.3, 70.8 95.8, 70.4 93.5 C 75.9 95.9, 28.5 76.9, 14.8 89.8 Z" fill="none" fill-opacity="0.88" stroke="hsl(151, 70%, 62%)" stroke-width="4.63"  transform="translate(55.9 40.9) rotate(22.3) scale(0.71 0.83)" />
<path d="M 56.9 26.3 C 62.2 18.5, 30.8 15.1, 17.6 12.4 C 25.1 16.7, 75.8 71.6, 71.1 69.4 C 60.1 55.6, 72.2 74.8, 64.5 86.1 C 83.8 76.6, 73.3 36.5, 70.0 39.0 C 71.6 44.4, 0.0 71.6, 1.2 67.1 C 15.6 67.3, 86.9 97.1, 97.3 83.4 Z" fill="none" fill-opacity="0.48" stroke="hsl(290, 83%, 63%)" stroke-width="1.05" filter="url(#f1)" transform="translate(84.4 60.8) rotate(269.9) scale(0.75 0.61)" />
<rect x="31.8" y="13.0" width="25.7" height="37.3" rx="0" fill="none" fill-opacity="0.83"   transform="translate(84.9 51.6) rotate(6.5) scale(0.85 1.79)" />
<path d="M 65.9 86.6 C 80.7 71.5, 88.0 51.2, 89.0 36.7 C 100.0 56.5, 63.7 69.8, 59.8 74.5 C 39.8 86.1, 32.0 34.9, 42.0 34.3 C 47.9 17.3, 36.0 71.1, 38.1 65.5 C 50.1 69.1, 84.5 59.6, 86.0 63.1 C 75.6 44.7, 97.9 47.0, 86.5 33.6 Z" fill="hsl(322, 74%, 44%)" fill-opacity="0.47" stroke="none" stroke-width="1.79"  transform="translate(59.0 89.7) rotate(94.3) scale(1.99 0.76)" />
<rect x="32.3" y="47.9" width="27.8" height="39.6" rx="0" fill="none" fill-opacity="0.86"   transform="translate(89.2 42.3) rotate(65.9) scale(1.10 0.92)" />
<path d="M 87.9 91.8 C 79.6 100.0, 41.0 15.0, 27.3 11.6 C 36.9 22.6, 59.2 50.4, 69.5 61.4 C 75.9 58.1, 38.5 50.3, 46.3 44.7 C 58.8 64.5, 18.8 95.8, 12.1 81.5 C 1.3 77.3, 63.4 88.0, 53.3 94.6 C 67.8 98.2, 8.1 92.1, 1.4 82.8 C 0.0 85.6, 21.5 69.6, 15.5 83.4 C 13.5 98.6, 92.3 71.9, 90.6 80.1 Z" fill="none" fill-opacity="0.61" stroke="hsl(183, 71%, 60%)" stroke-width="4.41"  transform="translate(53.9 63.3) rotate(81.4) scale(0.86 1.53)" />
<rect x="68.2" y="10.2" width="29.7" height="20.9" rx="12.8" fill="hsl(144, 86%, 72%)" fill-opacity="0.92"   transform="translate(2.6 98.3) rotate(256.8) scale(1.10 1.91)" />
<path d="M 38.2 53.3 C 41.1 51.0, 3.9 5.0, 10.0 11.7 C 15.6 21.7, 4.2 0.0, 5.2 1.8 C 0.0 13.6, 21.2 52.9, 28.3 45.4 C 47.8 46.2, 52.5 43.2, 62.8 37.3 C 61.8 53.1, 0.0 60.6, 13.3 62.8 C 30.0 56.9, 62.9 3.0, 73.8 17.7 Z" fill="hsl(322, 74%, 44%)" fill-opacity="0.89" stroke="none" stroke-width="0.95"  transform="translate(79.1 3.1) rotate(154.5) scale(1.65 0.84)" />
<path d="M 10.1 18.4 C 0.7 1.0, 37.2 0.0, 42.4 4.2 C 61.9 0.0, 19.2 34.9, 31.5 49.5 C 33.1 37.0, 16.6 65.2, 21.5 62.9 C 15.9 80.3, 24.7 38.6, 24.7 30.2 C 7.5 17.1, 87.0 36.2, 80.5 50.5 C 78.2 55.7, 50.1 78.5, 37.3 71.8 " fill="hsl(322, 74%, 44%)" fill-opacity="0.75" stroke="none" stroke-width="5.13"  transform="translate(63.2 72.5) rotate(94.1) scale(1.67 1.98)" />
<path d="M 90.5 40.2 C 87.4 21.6, 98.4 59.6, 83.8 62.7 C 83.1 53.2, 33.4 23.6, 45.4 14.8 C 45.8 16.1, 33.1 0.0, 25.7 3.5 C 25.5 19.3, 94.3 60.2, 84.6 71.5 C 75.9 52.5, 35.3 96.3, 29.3 83.7 C 10.9 100.0, 35.0 30.6, 35.7 33.4 C 34.6 45.4, 64.1 19.6, 61.7 15.6 C 73.9 5.1, 39.5 93.7, 46.1 99.5 " fill="hsl(144, 86%, 72%)" fill-opacity="0.49" stroke="none" stroke-width="2.20"  transform="translate(69.8 89.9) rotate(302.3) scale(1.02 0.91)" />
<rect x="48.0" y="60.2" width="46.4" height="25.2" rx="0" fill="none" fill-opacity="0.45"   transform="translate(35.3 12.2) rotate(271.6) scale(1.36 1.43)" />
<path d="M 76.5 74.0 C 70.9 63.2, 100.0 28.9, 97.7 15.9 C 86.4 22.6, 37.7 53.7, 25.3 53.1 C 43.8 53.6, 39.3 0.0, 39.7 3.6 C 44.6 16.9, 28.4 76.6, 17.1 70.9 C 8.1 75.5, 92.8 11.3, 94.1 2.2 C 100.0 0.0, 26.0 56.0, 14.9 58.9 C 0.5 70.5, 100.0 87.4, 98.7 96.4 C 98.2 100.0, 56.4 57.1, 46.5 64.8 C 36.0 58.8, 61.3 65.2, 49.7 55.8 Z" fill="hsl(322, 74%, 44%)" fill-opacity="0.93" stroke="none" stroke-width="5.23"  transform="translate(98.2 20.4) rotate(87.9) scale(1.34 1.46)" />
<path d="M 53.8 44.5 C 43.4 29.6, 36.9 54.9, 25.7 46.8 C 28.7 51.9, 69.1 4.6, 63.3 13.7 C 43.6 7.2, 66.8 35.7, 70.9 48.5 C 80.0 46.9, 42.5 69.1, 28.3 75.8 C 38.6 93.5, 61.8 0.0, 71.4 7.6 C 69.6 0.0, 20.6 90.0, 28.4 79.3 C 25.9 77.7, 27.1 48.1, 21.0 42.3 Z" fill="hsl(104, 72%, 65%)" fill-opacity="0.79" stroke="none" stroke-width="4.69"   />
<path d="M 79.9 76.2 C 66.0 91.6, 22.9 35.4, 21.0 47.6 C 23.3 42.6, 13.2 79.9, 11.8 88.8 C 9.0 71.1, 35.0 30.4, 47.8 32.3 C 67.1 49.5, 8.4 29.6, 12.2 15.4 C 8.9 6.0, 19.3 66.6, 34.1 63.7 C 38.5 49.7, 67.3 65.7, 64.6 57.1 C 50.8 69.9, 10.2 95.6, 15.3 89.3 C 10.5 93.5, 30.1 0.0, 15.2 12.2 Z" fill="hsl(83, 65%, 44%)" fill-opacity="0.59" stroke="none" stroke-width="3.82"   />
<rect x="53.0" y="16.8" width="44.7" height="37.5" rx="18.9" fill="hsl(183, 71%, 60%)" fill-opacity="0.69" stroke="hsl(322, 74%, 44%)" stroke-width="2.7"  transform="translate(48.9 83.7) rotate(143.7) scale(1.75 1.74)" />
<rect x="18.0" y="78.7" width="44.0" height="20.7" rx="0" fill="none" fill-opacity="0.21" stroke="hsl(106, 75%, 59%)" stroke-width="1.8"  transform="translate(87.0 22.1) rotate(244.1) scale(0.78 1.98)" />
<rect x="41.9" y="56.6" width="42.0" height="37.8" rx="0" fill="hsl(83, 65%, 44%)" fill-opacity="0.85" stroke="hsl(2, 82%, 55%)" stroke-width="2.6"  transform="translate(70.0 89.1) rotate(338.5) scale(1.21 0.92)" />
<path d="M 8.3 94.4 C 1.5 100.0, 56.8 90.7, 64.2 85.0 C 51.5 92.1, 51.6 46.5, 64.5 59.9 C 77.7 47.2, 59.1 78.5, 60.6 79.0 C 55.2 62.5, 0.1 100.0, 1.3 99.0 C 2.2 100.0, 3.6 11.6, 15.1 14.3 C 1.1 30.3, 53.1 0.0, 49.0 2.2 C 55.5 20.4, 76.1 82.9, 67.5 93.5 Z" fill="hsl(242, 72%, 49%)" fill-opacity="0.51" stroke="none" stroke-width="2.75" filter="url(#f1)" transform="translate(11.9 42.0) rotate(209.3) scale(1.26 1.08)" />
<path d="M 33.2 90.4 C 32.0 93.1, 76.5 27.9, 67.0 42.6 C 63.0 61.0, 72.1 13.6, 83.5 23.4 C 100.0 11.2, 36.6 93.1, 43.1 83.6 C 28.5 90.9, 40.3 0.0, 53.6 0.4 C 39.7 0.0, 23.4 12.5, 20.3 1.1 C 6.5 14.9, 80.5 56.3, 84.7 44.5 C 99.6 61.0, 95.1 63.1, 98.4 60.2 C 100.0 74.2, 60.5 59.8, 73.0 48.5 C 65.7 30.3, 42.7 40.2, 33.7 46.3 Z" fill="none" fill-opacity="0.64" stroke="hsl(40, 53%, 69%)" stroke-width="1.36" filter="url(#f1)" transform="translate(20.6 89.5) rotate(17.3) scale(1.43 0.68)" />
<rect x="16.4" y="28.4" width="37.0" height="11.7" rx="17.6" fill="none" fill-opacity="0.43"   transform="translate(84.4 54.8) rotate(274.3) scale(1.07 0.53)" />
<path d="M 89.4 51.1 C 98.7 46.1, 50.3 70.7, 63.3 81.5 C 60.8 80.5, 94.4 8.1, 92.9 10.9 C 73.0 2.8, 18.1 37.1, 31.5 31.6 C 24.7 29.8, 17.9 100.0, 23.5 99.9 C 7.5 88.9, 70.1 96.0, 76.2 95.1 C 79.5 79.1, 96.0 58.5, 82.6 62.6 Z" fill="hsl(40, 53%, 69%)" fill-opacity="0.77" stroke="none" stroke-width="3.15"  transform="translate(55.8 50.3) rotate(256.4) scale(1.86 0.65)" />
<rect x="48.1" y="37.5" width="23.8" height="31.1" rx="11.5" fill="none" fill-opacity="0.77"   transform="translate(92.1 71.9) rotate(139.8) scale(0.72 1.85)" />
<path d="M 24.3 98.1 C 28.0 85.2, 41.6 0.0, 29.9 10.1 C 38.6 0.0, 72.1 7.6, 73.9 10.5 C 73.4 3.9, 74.3 100.0, 65.2 94.6 C 75.6 100.0, 41.0 31.4, 44.8 17.3 C 29.3 18.2, 29.8 26.6, 24.8 13.0 C 25.2 1.5, 15.8 97.3, 3.5 96.4 C 0.0 89.4, 21.5 49.0, 14.2 38.5 Z" fill="none" fill-opacity="0.51" stroke="hsl(290, 83%, 63%)" stroke-width="1.92"  transform="translate(14.0 45.1) rotate(132.2) scale(1.09 1.32)" />
<path d="M 12.8 82.2 C 10.4 76.0, 61.3 81.1, 76.3 70.9 C 75.6 56.8, 76.8 77.9, 87.3 78.2 C 100.0 65.1, 3.6 64.5, 0.8 77.1 C 15.5 61.2, 84.6 84.8, 85.9 83.8 C 79.9 100.0, 100.0 34.1, 91.0 25.8 C 100.0 38.3, 62.4 33.0, 72.2 45.3 " fill="hsl(106, 75%, 59%)" fill-opacity="0.47" stroke="none" stroke-width="4.26"  transform="translate(49.4 10.7) rotate(92.8) scale(1.85 1.66)" />
<path d="M 69.4 75.1 C 50.1 81.2, 69.8 22.8, 78.4 12.0 C 96.4 0.9, 63.0 38.4, 54.9 33.4 C 67.1 30.7, 31.6 29.6, 25.8 33.4 C 44.1 24.1, 73.9 17.6, 79.9 16.1 C 60.6 4.8, 100.0 70.1, 98.0 66.2 C 100.0 76.7, 82.0 58.4, 89.6 64.1 C 93.2 47.7, 55.9 19.2, 53.9 27.5 Z" fill="hsl(151, 70%, 62%)" fill-opacity="1.00" stroke="none" stroke-width="4.15"  transform="translate(90.0 8.4) rotate(46.0) scale(1.95 1.87)" />
<path d="M 40.6 14.7 C 35.6 0.0, 13.8 89.9, 9.4 75.3 C 0.0 64.7, 19.2 0.0, 23.0 1.0 C 21.7 0.0, 0.0 22.4, 0.6 34.3 C 0.8 14.4, 70.4 78.4, 55.5 72.8 C 71.6 87.2, 85.3 84.2, 81.7 98.1 C 80.1 100.0, 82.4 35.4, 90.3 25.7 C 93.4 7.7, 92.2 23.8, 95.8 35.8 Z" fill="hsl(290, 83%, 63%)" fill-opacity="0.60" stroke="none" stroke-width="4.02"  transform="translate(67.6 88.9) rotate(302.1) scale(1.63 1.63)" />
<rect x="61.5" y="39.2" width="35.8" height="19.1" rx="10.8" fill="none" fill-opacity="0.88" stroke="hsl(183, 71%, 60%)" stroke-width="3.3"  transform="translate(94.2 85.6) rotate(346.7) scale(1.14 1.69)" />
<path d="M 13.5 51.8 C 14.6 54.2, 89.7 43.3, 86.7 57.8 C 97.3 65.6, 0.0 73.3, 2.7 73.2 C 20.1 71.5, 87.1 19.7, 92.0 31.0 C 94.3 27.0, 50.5 100.0, 46.7 97.4 C 50.6 79.1, 75.8 60.6, 70.9 61.0 C 87.4 59.6, 96.6 6.2, 97.2 16.4 C 92.8 0.0, 21.2 76.2, 23.6 69.4 Z" fill="hsl(104, 72%, 65%)" fill-opacity="0.54" stroke="none" stroke-width="1.44"  transform="translate(10.6 20.6) rotate(81.8) scale(1.10 1.62)" />
<path d="M 23.2 12.3 C 16.8 19.4, 90.4 96.9, 79.8 82.6 C 75.3 80.6, 100.0 45.3, 91.5 51.2 C 100.0 38.9, 97.2 39.9, 96.9 29.9 C 92.2 10.8, 88.3 28.6, 86.0 31.4 C 66.7 16.1, 86.9 14.1, 72.4 27.4 C 74.2 27.7, 71.9 96.3, 71.1 84.7 C 86.7 88.6, 100.0 98.3, 99.3 99.0 C 93.9 100.0, 48.5 94.5, 58.9 86.0 C 73.3 86.1, 98.3 92.6, 88.1 80.7 C 100.0 71.8, 56.3 92.4, 44.6 91.1 Z" fill="hsl(2, 82%, 55%)" fill-opacity="0.34" stroke="none" stroke-width="2.42" filter="url(#f1)" transform="translate(40.7 73.4) rotate(38.3) scale(1.23 1.91)" />
<path d="M 71.5 37.4 C 79.0 51.5, 56.8 93.5, 66.2 84.6 C 63.4 74.8, 85.8 64.7, 75.6 68.0 C 61.1 78.0, 58.8 42.5, 47.8 50.4 C 30.0 58.0, 37.6 98.0, 28.5 86.2 C 21.4 76.0, 18.8 45.1, 32.3 51.8 C 20.5 46.0, 86.3 22.2, 97.5 31.3 Z" fill="hsl(242, 72%, 49%)" fill-opacity="0.71" stroke="none" stroke-width="3.71"  transform="translate(55.9 13.6) rotate(39.2) scale(1.55 1.65)" />
<path d="M 52.5 34.3 C 51.2 26.1, 41.0 95.9, 45.2 99.2 C 39.1 100.0, 50.2 36.8, 37.0 48.7 C 26.0 47.8, 23.0 88.3, 14.5 92.8 C 12.2 100.0, 27.0 76.4, 29.8 86.2 C 24.6 95.4, 75.8 95.5, 84.0 83.3 C 76.4 76.1, 28.6 51.0, 15.3 36.9 C 14.0 51.5, 63.4 7.0, 50.7 13.9 C 51.9 4.3, 8.7 76.1, 15.3 67.0 C 0.0 77.7, 16.5 13.8, 6.7 14.8 " fill="none" fill-opacity="0.38" stroke="hsl(106, 75%, 59%)" stroke-width="3.23"  transform="translate(15.1 29.3) rotate(219.3) scale(0.91 0.78)" />
<rect x="7.6" y="35.7" width="37.5" height="10.3" rx="8.7" fill="none" fill-opacity="0.94"   transform="translate(5.8 72.9) rotate(237.1) scale(1.53 1.07)" />
<rect x="2.1" y="17.7" width="34.8" height="25.8" rx="0" fill="none" fill-opacity="0.35"   transform="translate(89.3 93.4) rotate(21.8) scale(1.34 1.28)" />
<rect x="39.8" y="48.9" width="26.4" height="37.8" rx="0" fill="none" fill-opacity="0.59"  filter="url(#f1)"  />
<path d="M 21.2 75.9 C 5.3 90.6, 22.9 47.3, 17.7 45.4 C 29.1 26.9, 26.4 1.9, 34.0 11.8 C 16.8 2.2, 68.6 1.7, 55.6 13.0 C 62.1 0.0, 21.6 21.0, 16.4 35.1 C 21.5 46.6, 82.8 0.0, 89.2 5.5 C 98.9 15.4, 61.0 52.4, 73.4 53.2 Z" fill="none" fill-opacity="0.50" stroke="hsl(86, 72%, 68%)" stroke-width="1.16"   />
<path d="M 55.7 15.1 C 50.1 4.8, 3.3 18.2, 2.7 28.0 C 0.0 47.2, 98.3 0.0, 97.3 1.0 C 100.0 0.0, 54.2 95.0, 57.2 91.8 C 58.3 100.0, 84.1 53.4, 69.3 46.4 C 71.9 41.4, 51.2 0.1, 52.9 9.9 C 35.2 25.4, 95.8 81.4, 87.0 91.2 C 100.0 100.0, 81.6 15.7, 86.9 30.3 C 71.9 46.3, 100.0 14.7, 97.3 11.8 C 97.3 18.2, 35.8 82.5, 32.2 82.6 C 35.3 74.4, 24.3 87.7, 15.3 88.6 Z" fill="hsl(151, 70%, 62%)" fill-opacity="0.34" stroke="none" stroke-width="4.29"  transform="translate(50.6 20.8) rotate(242.3) scale(1.20 1.23)" />
<path d="M 8.7 15.0 C 9.9 33.8, 38.2 0.5, 27.5 12.4 C 32.5 0.0, 79.9 51.4, 77.9 36.9 C 68.2 29.2, 82.7 17.1, 75.5 15.9 C 82.5 12.0, 56.0 56.4, 44.7 56.7 C 54.1 62.6, 36.5 54.2, 26.7 59.8 C 22.8 58.9, 0.0 63.8, 6.5 56.5 Z" fill="hsl(40, 53%, 69%)" fill-opacity="0.77" stroke="none" stroke-width="3.28"  transform="translate(51.1 46.2) rotate(188.3) scale(1.56 1.84)" />
<rect x="34.6" y="47.9" width="37.2" height="37.8" rx="10.0" fill="none" fill-opacity="0.61" stroke="hsl(290, 83%, 63%)" stroke-width="4.0"  transform="translate(30.2 56.1) rotate(183.2) scale(1.74 1.55)" />
<path d="M 44.7 86.5 C 56.0 74.1, 25.2 55.3, 14.6 44.9 C 0.0 30.9, 65.9 54.6, 58.2 59.7 C 45.4 60.7, 76.7 56.1, 76.2 70.3 C 91.3 71.6, 63.8 44.3, 75.7 47.5 C 84.3 59.8, 5.5 37.5, 10.2 34.3 C 21.5 21.6, 67.3 21.2, 81.7 24.8 C 75.9 36.0, 15.6 38.2, 4.5 28.1 Z" fill="none" fill-opacity="0.98" stroke="hsl(2, 82%, 55%)" stroke-width="1.90"  transform="translate(16.2 62.3) rotate(34.5) scale(1.16 0.81)" />
<rect x="16.4" y="13.5" width="26.4" height="39.2" rx="0" fill="none" fill-opacity="0.81"   transform="translate(21.8 9.3) rotate(19.9) scale(1.77 1.31)" />
<path d="M 83.2 36.5 C 91.6 48.3, 34.8 20.2, 49.7 19.6 C 64.3 28.1, 98.6 90.6, 99.9 98.8 C 99.5 99.9, 73.2 100.0, 61.4 99.7 C 54.9 100.0, 81.2 75.2, 66.5 74.7 C 72.4 62.6, 57.4 66.3, 47.6 74.4 C 41.7 77.6, 31.4 48.4, 31.3 50.3 C 35.8 65.4, 24.3 89.9, 11.3 86.8 C 18.7 73.0, 85.3 34.4, 96.1 28.2 C 100.0 45.0, 24.7 94.6, 12.1 88.4 C 1.2 81.7, 75.6 39.9, 64.5 37.3 Z" fill="hsl(322, 74%, 44%)" fill-opacity="0.56" stroke="none" stroke-width="1.33"  transform="translate(64.3 2.8) rotate(1.7) scale(1.20 1.72)" />
<path d="M 85.5 17.2 C 68.9 30.6, 21.5 41.8, 12.6 37.0 C 1.4 24.4, 52.1 27.3, 57.8 32.5 C 56.8 28.8, 65.5 92.2, 71.3 98.7 C 66.7 100.0, 20.3 81.5, 20.5 71.1 C 35.4 90.1, 15.5 72.3, 19.9 82.5 C 33.0 97.4, 23.1 19.8, 12.1 33.6 C 0.0 38.3, 39.7 5.7, 44.2 1.7 C 49.8 0.0, 67.2 78.7, 65.9 76.1 Z" fill="hsl(322, 74%, 44%)" fill-opacity="0.40" stroke="none" stroke-width="4.39"  transform="translate(32.8 57.4) rotate(143.4) scale(0.97 0.93)" />
<path d="M 33.2 19.4 C 19.3 26.3, 47.3 51.2, 35.5 38.7 C 17.8 53.5, 0.0 62.0, 9.4 53.2 C 1.5 41.9, 89.5 77.2, 82.0 91.6 C 68.0 83.0, 62.0 31.5, 58.4 23.8 C 74.4 43.6, 78.1 1.1, 86.4 2.2 C 93.2 3.8, 71.6 4.4, 57.4 17.9 Z" fill="hsl(2, 82%, 55%)" fill-opacity="0.49" stroke="none" stroke-width="2.09"  transform="translate(17.7 17.5) rotate(212.1) scale(0.64 0.83)" />
<rect x="31.2" y="88.0" width="36.6" height="12.0" rx="18.4" fill="hsl(2, 82%, 55%)" fill-opacity="0.85" stroke="hsl(2, 82%, 55%)" stroke-width="1.4"  transform="translate(35.1 93.9) rotate(349.3) scale(1.01 0.89)" />
<rect x="45.9" y="68.6" width="38.4" height="31.1" rx="0" fill="hsl(144, 86%, 72%)" fill-opacity="0.38"    />
<path d="M 92.0 14.2 C 81.8 10.4, 64.8 98.1, 54.5 94.2 C 44.1 97.8, 6.2 40.3, 6.1 33.4 C 22.4 32.8, 61.8 28.0, 71.8 34.8 C 75.1 14.9, 26.9 86.1, 39.5 91.5 C 37.1 100.0, 46.6 23.4, 36.0 26.1 C 18.5 36.4, 68.2 74.4, 54.2 85.4 Z" fill="hsl(144, 86%, 72%)" fill-opacity="0.71" stroke="none" stroke-width="2.38"  transform="translate(81.0 51.9) rotate(105.4) scale(0.82 0.73)" />
<path d="M 67.1 97.0 C 50.9 100.0, 78.5 33.4, 75.8 39.1 C 91.8 53.0, 34.3 7.5, 27.0 3.2 C 38.3 0.0, 43.9 84.7, 35.9 80.7 C 54.4 75.5, 100.0 26.2, 93.9 33.2 C 100.0 14.4, 14.2 37.0, 23.6 39.5 C 13.2 54.2, 100.0 58.1, 99.0 59.8 C 80.3 63.5, 0.0 99.4, 3.9 94.2 Z" fill="none" fill-opacity="0.72" stroke="hsl(242, 72%, 49%)" stroke-width="5.19" filter="url(#f1)" transform="translate(81.8 22.1) rotate(308.0) scale(0.94 1.72)" />
<path d="M 6.8 62.9 C 25.6 78.4, 37.9 48.7, 48.1 36.9 C 59.7 24.1, 48.3 23.0, 37.5 8.8 C 26.2 0.0, 15.6 20.5, 24.2 34.3 C 14.4 30.5, 42.2 68.0, 41.4 67.7 C 37.8 76.6, 100.0 21.8, 87.5 8.8 C 74.7 5.8, 86.1 81.9, 73.8 83.6 C 64.7 76.3, 82.1 24.9, 74.2 32.5 Z" fill="hsl(322, 74%, 44%)" fill-opacity="0.58" stroke="none" stroke-width="3.55"  transform="translate(35.8 19.2) rotate(173.2) scale(0.78 0.73)" />
<path d="M 24.6 19.6 C 27.3 18.8, 60.5 22.5, 50.2 10.7 C 58.5 25.2, 30.0 91.4, 23.8 96.9 C 30.8 90.8, 71.5 49.2, 73.8 63.7 C 83.5 67.4, 81.1 54.4, 67.0 56.7 C 65.8 37.0, 47.8 78.6, 43.2 76.5 C 36.4 73.0, 27.7 16.9, 22.3 26.6 C 12.1 9.8, 17.3 18.7, 14.3 11.5 C 8.7 0.4, 28.6 25.6, 15.4 17.3 Z" fill="hsl(83, 65%, 44%)" fill-opacity="0.75" stroke="none" stroke-width="3.26" filter="url(#f1)" transform="translate(21.1 85.9) rotate(93.4) scale(0.79 0.71)" />
<rect x="48.1" y="34.2" width="35.4" height="39.9" rx="0.5" fill="none" fill-opacity="0.20"   transform="translate(51.4 3.0) rotate(171.6) scale(1.95 1.39)" />
<path d="M 20.5 85.6 C 4.9 73.4, 39.7 49.1, 48.2 61.3 C 41.6 70.4, 19.1 71.7, 11.9 84.7 C 18.5 97.7, 87.0 35.2, 96.5 40.7 C 96.8 30.7, 42.3 72.0, 46.9 78.3 C 49.7 94.4, 61.4 63.0, 49.7 72.1 C 43.1 92.0, 23.9 89.2, 18.7 74.9 C 16.1 57.9, 53.4 96.5, 44.1 99.5 C 26.5 100.0, 0.0 45.2, 7.9 39.3 C 0.0 53.2, 0.0 98.7, 4.4 89.2 Z" fill="hsl(86, 72%, 68%)" fill-opacity="0.72" stroke="none" stroke-width="3.09"  transform="translate(56.1 62.7) rotate(255.0) scale(0.74 1.06)" />
<circle cx="0.2" cy="18.9" r="3.7" fill="url(#g0)" fill-opacity="0.61"  transform="translate(85.3 80.5) rotate(26.8) scale(1.12 1.01)" />
<rect x="52.2" y="1.8" width="34.3" height="27.7" rx="13.2" fill="none" fill-opacity="0.29"  filter="url(#f1)" transform="translate(26.6 34.3) rotate(223.4) scale(1.87 1.02)" />
<path d="M 40.1 78.1 C 54.6 81.8, 25.1 77.1, 22.4 64.3 C 16.5 71.4, 54.0 90.1, 61.9 88.8 C 59.4 100.0, 19.4 15.4, 14.9 18.0 C 18.1 14.1, 64.8 55.8, 53.6 54.4 C 73.4 73.6, 12.7 86.9, 21.0 76.5 C 32.0 62.3, 25.6 65.6, 38.3 70.4 C 55.3 77.6, 84.7 64.7, 78.7 73.6 C 73.7 91.0, 70.5 50.7, 65.2 48.6 C 76.0 50.8, 32.3 18.6, 24.2 19.5 " fill="hsl(104, 72%, 65%)" fill-opacity="0.33" stroke="none" stroke-width="1.38"  transform="translate(55.0 57.0) rotate(127.0) scale(1.31 1.50)" />
<path d="M 91.9 97.6 C 78.6 100.0, 38.5 0.0, 25.4 4.0 C 17.6 0.0, 25.1 16.4, 11.4 25.4 C 7.3 34.1, 6.1 11.3, 12.7 13.0 C 21.5 0.0, 34.0 32.4, 25.7 29.0 C 22.1 10.1, 12.2 88.3, 14.2 77.5 C 12.0 61.1, 90.7 61.4, 96.4 55.9 " fill="hsl(106, 75%, 59%)" fill-opacity="0.57" stroke="none" stroke-width="2.93"  transform="translate(75.1 84.4) rotate(13.2) scale(1.76 1.25)" />
<rect x="29.7" y="18.5" width="41.0" height="13.6" rx="4.8" fill="none" fill-opacity="0.82" stroke="hsl(183, 71%, 60%)" stroke-width="2.0" filter="url(#f1)" transform="translate(39.3 54.6) rotate(73.8) scale(0.98 0.70)" />
<rect x="10.2" y="73.4" width="43.9" height="23.6" rx="12.6" fill="hsl(290, 83%, 63%)" fill-opacity="0.38"   transform="translate(37.6 76.5) rotate(175.8) scale(1.38 0.92)" />
<path d="M 83.9 74.9 C 99.5 76.7, 100.0 54.1, 90.4 68.1 C 71.4 77.8, 30.4 13.7, 38.1 20.5 C 18.5 29.3, 17.0 16.0, 9.1 5.1 C 5.3 0.0, 69.0 11.5, 55.0 5.0 C 37.7 0.0, 29.0 8.2, 14.6 20.7 C 0.0 28.3, 25.0 65.5, 25.3 51.9 C 14.5 57.5, 100.0 95.1, 98.0 97.4 Z" fill="none" fill-opacity="0.82" stroke="hsl(106, 75%, 59%)" stroke-width="2.76"  transform="translate(27.3 95.8) rotate(96.9) scale(0.82 1.27)" />
<path d="M 18.9 34.7 C 18.9 41.3, 100.0 83.2, 88.4 70.1 C 96.9 85.6, 15.5 100.0, 23.3 91.7 C 10.1 85.7, 10.3 24.8, 9.5 13.2 C 26.1 0.0, 33.1 46.2, 34.1 34.9 C 51.7 25.4, 60.2 12.1, 72.4 21.5 C 80.1 32.9, 100.0 66.0, 88.1 58.3 C 100.0 54.2, 36.8 17.7, 34.0 2.9 C 32.3 0.0, 62.1 83.0, 54.0 68.7 C 53.7 77.4, 52.6 82.6, 58.3 71.5 " fill="hsl(242, 72%, 49%)" fill-opacity="0.83" stroke="none" stroke-width="1.21"  transform="translate(14.3 61.7) rotate(13.1) scale(1.08 0.95)" />
<path d="M 66.7 59.9 C 59.7 56.3, 8.6 84.8, 3.6 72.9 C 9.7 71.8, 24.6 80.5, 21.3 94.2 C 2.3 95.3, 79.7 80.9, 68.6 86.4 C 63.8 86.3, 75.1 6.2, 76.1 9.0 C 59.3 2.2, 53.6 53.0, 58.2 58.6 C 52.2 75.2, 73.7 66.1, 71.4 54.2 C 79.2 65.5, 48.4 6.2, 55.7 0.4 C 65.8 0.0, 15.9 39.9, 3.0 35.0 C 10.1 20.6, 76.5 76.2, 78.2 72.4 C 97.2 60.8, 0.0 27.0, 0.4 22.1 Z" fill="hsl(322, 74%, 44%)" fill-opacity="0.61" stroke="none" stroke-width="4.12"  transform="translate(72.4 48.6) rotate(80.1) scale(0.57 1.48)" />
<circle cx="82.2" cy="89.2" r="4.9" fill="hsl(322, 74%, 44%)" fill-opacity="0.68"  transform="translate(93.9 88.1) rotate(153.4) scale(1.40 1.57)" />
<rect x="8.0" y="0.6" width="34.9" height="30.4" rx="0" fill="none" fill-opacity="0.94"    />
<path d="M 92.8 16.2 C 90.9 24.9, 18.8 76.7, 27.2 80.2 C 9.9 72.7, 84.5 26.1, 76.8 12.0 C 59.7 7.6, 15.9 85.3, 7.6 76.2 C 0.0 90.1, 51.0 75.4, 55.2 61.4 C 42.3 71.6, 100.0 58.0, 98.9 54.9 C 100.0 68.2, 15.3 45.5, 26.1 49.4 C 24.6 52.5, 19.1 97.1, 10.5 84.2 Z" fill="hsl(83, 65%, 44%)" fill-opacity="0.77" stroke="none" stroke-width="1.42"  transform="translate(0.6 29.8) rotate(204.0) scale(1.34 1.17)" />
<path d="M 28.0 17.4 C 15.0 5.0, 80.1 72.8, 88.9 73.8 C 100.0 73.7, 2.8 29.7, 5.9 15.3 C 0.0 24.5, 88.9 51.9, 82.3 44.6 C 100.0 46.6, 34.0 73.5, 33.7 58.5 C 27.8 67.1, 56.6 63.6, 42.3 74.8 C 50.7 85.4, 74.4 32.6, 68.1 34.1 Z" fill="hsl(104, 72%, 65%)" fill-opacity="0.76" stroke="none" stroke-width="1.10"  transform="translate(67.7 71.9) rotate(1.3) scale(1.66 1.99)" />
<path d="M 65.5 53.3 C 53.2 68.8, 62.4 45.5, 66.5 59.3 C 75.2 61.0, 35.3 59.7, 23.5 63.3 C 40.6 52.9, 23.6 62.6, 31.8 74.6 C 50.0 65.1, 39.6 1.3, 43.9 9.1 C 40.9 0.4, 21.4 64.6, 11.7 68.8 C 0.0 63.8, 24.3 43.0, 38.1 28.6 C 47.4 48.5, 14.3 59.4, 1.8 70.0 Z" fill="hsl(2, 82%, 55%)" fill-opacity="0.28" stroke="none" stroke-width="2.07"  transform="translate(19.3 30.5) rotate(203.6) scale(1.46 0.92)" />
<rect x="57.6" y="33.3" width="27.8" height="33.3" rx="0" fill="hsl(242, 72%, 49%)" fill-opacity="0.91"   transform="translate(80.6 28.5) rotate(122.9) scale(1.07 1.05)" />
<path d="M 87.8 75.9 C 87.7 68.2, 94.1 79.3, 87.1 66.3 C 79.7 84.5, 76.1 11.1, 62.0 1.2 C 72.8 9.8, 17.9 67.4, 8.7 78.0 C 11.7 60.2, 99.0 19.2, 90.6 7.7 C 75.4 0.0, 8.6 21.8, 8.3 34.4 C 0.0 28.4, 77.5 36.2, 87.1 45.7 C 80.9 47.4, 42.9 66.5, 45.8 52.3 C 28.9 39.4, 63.7 75.2, 67.7 62.7 C 50.2 67.3, 20.9 55.4, 8.7 68.9 Z" fill="hsl(83, 65%, 44%)" fill-opacity="0.68" stroke="none" stroke-width="5.20"  transform="translate(6.1 76.2) rotate(283.1) scale(1.88 1.72)" />
<path d="M 1.0 73.3 C 3.7 78.3, 2.0 33.9, 10.8 21.5 C 9.1 32.3, 28.6 19.7, 31.3 7.9 C 19.7 15.1, 75.6 12.8, 62.1 20.4 C 45.2 4.5, 92.8 82.4, 99.1 76.2 C 100.0 91.1, 30.6 51.0, 40.2 65.4 C 49.1 78.0, 54.9 47.8, 46.9 61.2 C 55.9 67.4, 93.3 51.6, 80.1 66.1 C 64.7 73.1, 75.1 53.3, 61.0 57.8 C 70.8 48.6, 3.9 39.2, 7.1 47.5 C 7.3 58.8, 85.3 33.9, 83.8 24.1 Z" fill="none" fill-opacity="0.50" stroke="hsl(104, 72%, 65%)" stroke-width="4.69"  transform="translate(31.4 82.6) rotate(92.0) scale(1.92 0.55)" />
<circle cx="66.3" cy="9.4" r="0.2" fill="url(#g1)" fill-opacity="0.50"  transform="translate(41.2 48.3) rotate(166.4) scale(0.58 0.67)" />
<path d="M 22.1 49.8 C 41.4 39.7, 40.1 5.4, 35.6 7.2 C 30.2 2.8, 96.0 51.6, 98.7 63.7 C 100.0 63.5, 46.3 54.5, 45.7 60.9 C 47.9 43.4, 4.5 97.1, 2.5 97.2 C 0.0 100.0, 80.4 25.2, 77.4 17.4 C 83.9 0.0, 64.7 88.7, 59.3 75.0 C 74.0 69.3, 20.7 19.4, 14.6 8.8 C 19.1 25.9, 69.7 55.7, 72.4 56.6 C 57.1 63.2, 45.6 56.0, 35.9 46.8 C 51.8 56.7, 94.6 12.3, 86.2 2.3 Z" fill="none" fill-opacity="0.79" stroke="hsl(290, 83%, 63%)" stroke-width="4.44"   />
<circle cx="67.7" cy="75.1" r="16.6" fill="hsl(183, 71%, 60%)" fill-opacity="0.44"  transform="translate(67.8 12.7) rotate(283.9) scale(0.79 0.80)" />
<circle cx="60.9" cy="70.8" r="17.1" fill="hsl(83, 65%, 44%)" fill-opacity="0.45"  transform="translate(83.9 66.0) rotate(331.5) scale(1.32 1.04)" />
<path d="M 46.5 69.8 C 54.6 86.9, 71.0 18.9, 65.7 6.9 C 74.1 5.5, 27.2 22.7, 36.8 14.7 C 37.8 26.7, 39.4 47.8, 35.6 49.4 C 40.6 56.2, 36.7 9.6, 23.8 5.1 C 21.3 0.0, 9.7 38.7, 21.7 38.7 C 5.0 40.3, 43.5 70.4, 38.7 74.6 C 19.8 78.9, 0.0 93.2, 2.3 90.6 C 0.0 100.0, 43.3 46.7, 47.2 40.1 Z" fill="hsl(104, 72%, 65%)" fill-opacity="0.36" stroke="none" stroke-width="2.31" filter="url(#f1)" transform="translate(65.2 43.4) rotate(237.4) scale(1.36 1.81)" />
<rect x="58.2" y="7.1" width="25.6" height="17.2" rx="9.3" fill="hsl(104, 72%, 65%)" fill-opacity="0.20"    />
<path d="M 16.9 72.0 C 18.1 59.2, 35.6 37.4, 26.6 44.8 C 46.4 42.2, 66.3 18.3, 70.7 29.3 C 85.7 13.9, 86.3 18.2, 85.3 13.7 C 68.2 12.9, 84.5 67.2, 72.8 60.4 C 59.4 49.0, 30.1 100.0, 38.6 99.2 C 43.5 100.0, 92.9 3.5, 99.2 5.9 C 100.0 0.0, 7.6 41.6, 2.7 29.8 C 12.2 16.9, 77.2 73.8, 86.7 74.2 Z" fill="hsl(322, 74%, 44%)" fill-opacity="0.82" stroke="none" stroke-width="5.08"  transform="translate(30.4 50.0) rotate(17.6) scale(1.11 0.53)" />
<circle cx="74.2" cy="87.8" r="6.6" fill="hsl(183, 71%, 60%)" fill-opacity="0.77"  transform="translate(97.6 62.5) rotate(273.9) scale(1.99 1.17)" />
<rect x="19.6" y="35.1" width="48.0" height="30.3" rx="3.9" fill="hsl(183, 71%, 60%)" fill-opacity="0.32"   transform="translate(39.5 41.8) rotate(5.7) scale(1.45 1.58)" />
<path d="M 37.6 59.7 C 23.5 49.2, 31.8 95.9, 33.2 90.1 C 23.1 96.1, 25.2 44.5, 14.2 44.1 C 16.2 33.9, 67.0 28.5, 77.9 24.5 C 92.6 10.3, 37.3 43.8, 24.0 51.5 C 6.2 56.6, 84.6 100.0, 71.6 97.1 C 88.1 100.0, 39.0 9.6, 50.3 24.1 C 64.7 34.5, 46.0 0.0, 57.0 3.0 C 45.7 0.0, 41.5 87.4, 50.0 77.0 C 47.1 82.9, 89.9 13.0, 91.5 8.7 Z" fill="hsl(183, 71%, 60%)" fill-opacity="0.30" stroke="none" stroke-width="1.10"  transform="translate(39.5 66.5) rotate(48.4) scale(1.10 1.06)" />
<path d="M 82.2 37.8 C 91.5 47.5, 74.8 46.9, 74.7 52.6 C 60.1 38.2, 68.8 32.5, 81.9 24.1 C 67.0 43.4, 51.6 88.0, 59.8 96.7 C 56.6 100.0, 55.5 61.6, 60.6 72.4 C 46.7 85.8, 71.6 35.9, 71.3 45.7 C 82.3 38.6, 60.6 51.7, 56.6 39.3 C 62.7 39.2, 64.7 38.8, 60.6 37.2 Z" fill="none" fill-opacity="0.79" stroke="hsl(86, 72%, 68%)" stroke-width="4.96"   />
<path d="M 26.1 13.5 C 16.8 1.5, 59.3 70.9, 65.5 65.9 C 46.0 70.1, 7.9 47.7, 15.1 62.5 C 19.7 66.5, 19.3 62.9, 19.6 70.8 C 7.7 58.0, 57.1 85.4, 52.1 78.7 C 62.8 93.2, 75.1 31.8, 71.7 22.9 C 60.8 28.0, 12.1 84.2, 14.4 77.8 C 0.0 58.2, 0.0 62.2, 2.6 51.6 C 10.7 64.9, 0.0 64.7, 4.1 78.6 Z" fill="hsl(242, 72%, 49%)" fill-opacity="0.32" stroke="none" stroke-width="3.56"  transform="translate(95.9 31.4) rotate(109.0) scale(1.45 0.93)" />
<path d="M 17.3 43.2 C 12.1 37.5, 0.0 4.2, 1.7 8.5 C 0.0 27.0, 15.4 5.5, 6.6 13.3 C 25.1 20.7, 62.2 43.8, 50.6 38.6 C 54.6 38.6, 50.8 73.5, 46.5 71.9 C 28.8 59.8, 16.0 36.8, 16.8 33.5 C 0.0 49.2, 69.6 82.0, 81.4 90.5 C 72.4 80.8, 16.8 72.2, 4.6 59.0 Z" fill="none" fill-opacity="0.64" stroke="hsl(83, 65%, 44%)" stroke-width="1.55"   />
<path d="M 95.9 97.3 C 82.3 100.0, 45.6 54.6, 32.0 60.2 C 41.4 77.2, 62.4 0.3, 58.3 1.2 C 46.8 0.0, 52.2 56.9, 48.1 53.9 C 34.7 51.7, 58.8 70.9, 67.0 69.0 C 81.4 61.6, 12.9 76.0, 3.5 82.6 C 0.0 98.6, 56.0 0.0, 52.8 3.9 C 68.3 4.1, 99.1 89.6, 97.1 88.5 C 100.0 95.9, 66.1 23.2, 62.7 22.8 Z" fill="none" fill-opacity="0.42" stroke="hsl(144, 86%, 72%)" stroke-width="4.44"  transform="translate(63.5 16.5) rotate(170.8) scale(1.54 0.66)" />
<path d="M 76.6 98.6 C 71.7 100.0, 82.2 83.3, 97.2 80.8 C 81.9 95.5, 89.1 0.0, 94.8 4.2 C 93.2 0.0, 43.5 24.2, 57.1 31.9 C 54.7 18.4, 82.2 34.9, 73.9 45.7 C 88.6 29.4, 56.2 28.0, 63.1 21.2 C 73.6 30.3, 73.1 19.4, 67.1 11.5 C 83.8 8.2, 24.9 41.0, 13.3 37.6 Z" fill="none" fill-opacity="0.33" stroke="hsl(2, 82%, 55%)" stroke-width="1.31"  transform="translate(66.7 61.4) rotate(288.9) scale(1.97 1.44)" />
<path d="M 63.3 65.0 C 60.7 65.4, 63.3 81.3, 60.3 74.3 C 59.9 71.3, 57.7 11.0, 64.6 6.4 C 67.2 8.0, 86.8 51.7, 94.4 58.0 C 100.0 77.5, 64.8 53.8, 59.8 62.0 C 72.8 57.3, 11.1 10.5, 6.0 9.3 C 0.0 16.2, 60.4 21.8, 58.6 33.5 " fill="none" fill-opacity="0.88" stroke="hsl(106, 75%, 59%)" stroke-width="2.27"  transform="translate(71.2 61.0) rotate(111.5) scale(1.30 1.42)" />
<path d="M 9.8 79.7 C 15.6 61.2, 19.6 29.4, 16.5 42.6 C 23.8 41.8, 74.1 68.0, 75.8 77.1 C 93.2 96.5, 49.3 77.6, 40.5 71.9 C 38.1 67.0, 38.5 18.5, 42.8 22.9 C 42.5 24.0, 34.2 60.5, 21.1 63.1 C 40.2 74.0, 17.4 90.3, 24.0 84.0 C 33.8 97.4, 100.0 50.1, 98.2 35.8 C 100.0 54.4, 10.1 58.0, 17.8 53.0 C 30.5 56.8, 32.4 41.9, 34.0 30.1 Z" fill="hsl(242, 72%, 49%)" fill-opacity="0.60" stroke="none" stroke-width="0.92"  transform="translate(49.2 76.1) rotate(228.6) scale(0.82 0.90)" />
<rect x="9.8" y="26.6" width="20.5" height="36.5" rx="11.5" fill="none" fill-opacity="0.61"   transform="translate(86.6 3.7) rotate(208.1) scale(0.55 0.59)" />
<rect x="9.8" y="25.2" width="44.1" height="22.3" rx="2.9" fill="hsl(83, 65%, 44%)" fill-opacity="0.24"   transform="translate(77.3 37.0) rotate(151.6) scale(1.27 1.18)" />
<rect x="46.8" y="51.4" width="47.1" height="29.0" rx="0" fill="hsl(290, 83%, 63%)" fill-opacity="0.51" stroke="hsl(83, 65%, 44%)" stroke-width="3.9"  transform="translate(42.6 49.3) rotate(301.3) scale(1.53 1.16)" />
<circle cx="91.3" cy="76.0" r="9.3" fill="hsl(106, 75%, 59%)" fill-opacity="0.95" filter="url(#f1)"  />
<path d="M 93.1 76.2 C 100.0 70.0, 90.1 88.7, 96.5 80.5 C 97.8 93.0, 0.0 3.1, 1.3 0.6 C 3.3 9.8, 61.4 42.6, 55.2 45.9 C 74.9 32.0, 50.7 51.8, 53.3 42.0 C 62.2 44.0, 79.7 10.1, 93.2 7.6 C 79.1 13.6, 60.1 5.9, 52.7 9.5 C 36.3 0.0, 55.7 80.1, 67.8 67.2 C 74.6 55.3, 71.8 23.3, 75.2 27.6 C 61.2 8.3, 57.7 95.6, 58.3 94.2 C 58.7 100.0, 100.0 33.2, 99.1 43.2 Z" fill="none" fill-opacity="0.29" stroke="hsl(183, 71%, 60%)" stroke-width="2.67"  transform="translate(23.7 35.9) rotate(350.9) scale(0.74 1.75)" />
<rect x="54.5" y="15.2" width="20.5" height="33.8" rx="0" fill="none" fill-opacity="0.79" stroke="hsl(290, 83%, 63%)" stroke-width="2.4"  transform="translate(84.3 83.7) rotate(1.5) scale(1.88 1.44)" />
<rect x="26.1" y="87.9" width="33.8" height="11.6" rx="11.4" fill="hsl(151, 70%, 62%)" fill-opacity="0.75"   transform="translate(52.0 56.9) rotate(49.4) scale(1.86 0.85)" />
<circle cx="84.4" cy="63.4" r="2.7" fill="url(#g2)" fill-opacity="0.97"   />
<rect x="54.9" y="75.4" width="40.8" height="16.8" rx="0.6" fill="none" fill-opacity="0.67" stroke="hsl(104, 72%, 65%)" stroke-width="2.3"  transform="translate(31.7 25.5) rotate(311.4) scale(1.97 0.76)" />
<path d="M 40.8 47.5 C 48.4 66.1, 43.0 100.0, 49.6 98.1 C 65.2 83.5, 25.7 82.6, 12.3 76.6 C 21.7 94.3, 74.5 71.9, 77.3 65.8 C 86.7 48.1, 39.9 98.2, 43.0 99.5 C 55.8 88.6, 66.4 71.0, 69.4 66.0 C 81.8 52.7, 82.5 86.5, 74.7 91.8 C 76.8 100.0, 88.1 46.4, 94.8 45.6 C 81.4 61.3, 85.0 18.0, 89.1 13.6 Z" fill="hsl(106, 75%, 59%)" fill-opacity="0.72" stroke="none" stroke-width="5.15"  transform="translate(46.6 27.1) rotate(354.5) scale(1.42 1.65)" />
<rect x="66.1" y="27.1" width="25.2" height="21.9" rx="0" fill="none" fill-opacity="0.32" stroke="hsl(104, 72%, 65%)" stroke-width="2.1"  transform="translate(67.3 10.5) rotate(310.7) scale(1.04 1.05)" />
<path d="M 26.4 34.7 C 24.6 53.4, 70.9 77.2, 80.7 79.4 C 86.0 66.5, 0.0 61.3, 0.0 70.9 C 0.0 83.4, 14.2 100.0, 3.2 96.8 C 5.0 100.0, 60.2 28.8, 59.1 26.0 C 58.6 25.0, 66.1 0.0, 60.0 0.3 C 47.0 0.0, 79.3 99.8, 87.3 87.2 C 81.2 69.4, 62.0 44.8, 73.0 58.0 " fill="hsl(183, 71%, 60%)" fill-opacity="0.32" stroke="none" stroke-width="3.00"   />
<circle cx="53.2" cy="24.2" r="2.3" fill="hsl(40, 53%, 69%)" fill-opacity="0.41"  transform="translate(90.4 97.3) rotate(17.5) scale(1.70 1.86)" />
<rect x="10.9" y="51.8" width="47.8" height="21.5" rx="3.6" fill="none" fill-opacity="0.54"  filter="url(#f1)" transform="translate(87.7 51.2) rotate(180.3) scale(1.26 0.83)" />
<path d="M 69.5 36.0 C 57.1 29.2, 8.0 20.5, 6.3 30.2 C 11.9 41.9, 10.1 75.8, 22.1 76.1 C 6.6 68.8, 31.9 39.0, 35.1 50.4 C 45.2 62.3, 64.8 26.1, 77.1 17.9 C 85.1 2.3, 46.5 98.2, 35.4 89.0 C 44.6 75.5, 98.7 26.2, 99.4 29.0 Z" fill="hsl(322, 74%, 44%)" fill-opacity="0.60" stroke="none" stroke-width="3.97"  transform="translate(76.8 78.5) rotate(125.2) scale(1.31 0.76)" />
<path d="M 25.4 63.2 C 23.7 50.2, 49.0 8.1, 59.6 21.8 C 62.4 24.0, 64.3 89.1, 51.9 98.7 C 51.1 86.6, 40.9 20.0, 33.3 24.9 C 52.5 40.9, 7.5 89.5, 8.2 97.6 C 16.3 100.0, 46.3 36.5, 59.9 47.0 C 43.8 36.9, 100.0 9.5, 95.6 3.3 Z" fill="hsl(144, 86%, 72%)" fill-opacity="0.95" stroke="none" stroke-width="2.60"  transform="translate(37.5 48.6) rotate(184.0) scale(0.91 0.71)" />
<path d="M 40.9 79.1 C 21.6 79.2, 47.3 49.8, 53.1 50.4 C 46.4 35.2, 44.3 28.6, 33.7 21.2 C 21.8 8.3, 74.9 69.1, 88.5 60.5 C 80.3 67.6, 59.1 51.8, 51.5 65.9 C 62.9 83.0, 53.6 54.3, 67.7 57.2 C 73.5 47.3, 85.2 86.1, 75.1 91.1 C 89.5 92.6, 30.4 85.9, 36.1 98.2 C 34.1 100.0, 4.5 60.4, 15.8 63.5 Z" fill="hsl(104, 72%, 65%)" fill-opacity="0.34" stroke="none" stroke-width="4.01"  transform="translate(0.5 43.2) rotate(292.3) scale(1.86 1.13)" />
<circle cx="87.4" cy="55.5" r="8.0" fill="hsl(144, 86%, 72%)" fill-opacity="0.88" filter="url(#f1)" transform="translate(91.4 70.7) rotate(49.5) scale(2.00 0.57)" />
<circle cx="30.8" cy="83.1" r="10.9" fill="url(#g1)" fill-opacity="0.81"   />
<path d="M 38.6 76.6 C 40.0 71.5, 67.1 59.0, 76.3 50.8 C 67.2 49.4, 2.5 50.2, 0.8 63.2 C 17.5 75.7, 54.1 47.8, 68.4 34.5 C 49.9 38.0, 81.0 16.3, 81.2 28.1 C 87.2 19.8, 33.1 100.0, 30.7 91.4 C 38.9 82.2, 73.5 0.0, 65.1 8.1 C 71.7 9.6, 90.0 57.9, 84.5 46.6 C 93.4 54.5, 13.3 44.2, 0.5 36.8 C 0.0 33.5, 48.7 8.4, 49.8 6.4 C 49.4 0.0, 21.6 50.5, 9.1 47.4 Z" fill="hsl(2, 82%, 55%)" fill-opacity="0.67" stroke="none" stroke-width="2.94"  transform="translate(56.0 41.8) rotate(90.4) scale(1.81 0.61)" />
<circle cx="23.4" cy="13.0" r="4.8" fill="hsl(290, 83%, 63%)" fill-opacity="1.00"  transform="translate(78.5 53.0) rotate(290.3) scale(0.78 1.24)" />
<path d="M 39.5 95.9 C 53.1 85.4, 9.6 69.1, 22.6 55.0 C 11.8 46.7, 73.3 80.6, 64.0 76.1 C 63.8 86.0, 81.0 83.6, 72.6 76.2 C 64.7 87.7, 8.4 16.2, 9.6 8.1 C 0.0 0.0, 91.2 3.1, 83.5 11.6 C 64.5 5.0, 50.2 58.7, 62.4 64.1 C 69.1 81.4, 52.9 5.4, 50.5 5.4 C 35.2 15.6, 22.5 22.8, 25.0 33.3 C 24.3 43.5, 24.7 59.0, 36.6 59.1 C 37.4 69.7, 47.1 28.1, 52.8 35.7 " fill="hsl(40, 53%, 69%)" fill-opacity="0.43" stroke="none" stroke-width="2.61"  transform="translate(69.1 38.1) rotate(110.1) scale(0.51 0.77)" />
<path d="M 87.9 15.1 C 100.0 21.2, 54.9 71.3, 59.9 82.5 C 72.7 91.2, 49.9 50.1, 62.8 58.6 C 81.2 67.4, 81.6 0.0, 91.9 8.4 C 87.0 26.7, 68.6 81.0, 55.4 78.7 C 59.2 59.7, 77.8 16.0, 91.0 17.5 C 73.9 4.3, 12.3 6.9, 13.9 20.3 Z" fill="hsl(242, 72%, 49%)" fill-opacity="0.80" stroke="none" stroke-width="3.96"  transform="translate(6.6 42.7) rotate(190.5) scale(1.82 1.42)" />
<path d="M 58.7 38.0 C 71.2 40.6, 76.0 22.3, 76.7 30.2 C 61.9 17.2, 49.2 68.9, 58.1 67.0 C 44.3 80.5, 58.5 87.1, 73.0 72.4 C 85.3 73.3, 75.9 58.6, 75.2 60.6 C 94.0 56.5, 16.7 25.3, 16.3 27.5 C 0.7 17.1, 89.4 17.3, 98.8 9.0 C 86.4 5.4, 0.0 16.8, 4.4 25.5 Z" fill="none" fill-opacity="0.76" stroke="hsl(290, 83%, 63%)" stroke-width="1.00"  transform="translate(99.4 7.8) rotate(314.1) scale(1.98 1.79)" />
<path d="M 73.1 22.7 C 85.1 9.1, 100.0 82.2, 95.5 95.2 C 83.1 100.0, 70.1 38.8, 65.7 42.8 C 74.9 56.5, 31.6 0.0, 34.8 4.2 C 30.4 6.8, 69.3 77.0, 82.9 89.0 C 75.4 94.4, 79.1 52.5, 83.2 40.2 C 65.3 49.6, 98.5 99.6, 89.9 93.3 " fill="none" fill-opacity="0.78" stroke="hsl(83, 65%, 44%)" stroke-width="1.95"  transform="translate(94.0 83.5) rotate(346.5) scale(1.63 1.93)" />
<path d="M 10.8 10.3 C 0.0 17.7, 86.8 24.6, 81.1 26.3 C 73.5 27.0, 0.0 69.0, 2.7 66.0 C 0.0 69.2, 35.7 36.2, 48.8 47.2 C 61.6 55.4, 98.5 19.0, 87.5 26.4 C 90.8 8.9, 96.5 8.7, 91.6 7.1 C 98.6 0.0, 53.0 34.5, 63.0 20.1 C 78.8 15.1, 94.3 38.4, 90.5 42.5 C 99.4 48.4, 31.0 52.9, 22.6 41.7 C 16.7 60.6, 11.9 8.7, 16.1 10.1 Z" fill="hsl(106, 75%, 59%)" fill-opacity="0.97" stroke="none" stroke-width="2.84"  transform="translate(60.2 53.6) rotate(84.2) scale(0.53 1.53)" />
<rect x="72.0" y="21.4" width="23.2" height="34.5" rx="10.5" fill="hsl(290, 83%, 63%)" fill-opacity="0.92"  filter="url(#f1)" transform="translate(69.2 9.1) rotate(227.6) scale(0.88 1.92)" />
<path d="M 57.6 12.8 C 61.3 18.3, 57.5 8.2, 58.9 18.9 C 65.7 30.3, 36.9 3.3, 51.2 12.8 C 41.4 0.0, 46.1 37.4, 50.4 30.6 C 64.5 43.5, 13.8 33.7, 13.4 21.0 C 21.8 20.1, 43.8 44.1, 43.3 57.1 C 41.7 38.5, 34.3 54.5, 21.3 52.9 C 23.4 59.7, 74.2 33.8, 60.8 34.0 C 52.2 51.1, 31.2 80.4, 19.7 65.8 Z" fill="none" fill-opacity="0.52" stroke="hsl(144, 86%, 72%)" stroke-width="4.82"  transform="translate(18.0 22.4) rotate(159.3) scale(0.89 1.49)" />
<path d="M 74.5 20.3 C 76.5 8.4, 2.5 40.7, 2.2 32.2 C 0.0 38.0, 38.2 75.1, 42.0 62.5 C 23.0 64.3, 41.4 98.6, 44.0 94.5 C 58.3 100.0, 57.2 30.2, 51.8 26.9 C 35.0 15.6, 51.0 69.5, 47.9 74.1 C 37.2 94.0, 17.6 40.0, 12.5 26.1 C 0.0 8.5, 55.7 49.7, 57.2 62.5 C 50.1 66.8, 73.7 79.5, 76.4 89.2 C 76.8 88.4, 33.0 10.3, 34.0 21.2 C 37.8 13.7, 36.8 25.9, 51.0 39.6 Z" fill="hsl(151, 70%, 62%)" fill-opacity="0.34" stroke="none" stroke-width="3.58"  transform="translate(4.6 63.0) rotate(24.9) scale(1.68 0.53)" />
<path d="M 27.3 99.8 C 35.7 93.5, 60.1 44.1, 67.9 54.9 C 59.7 52.9, 81.4 89.2, 74.3 92.0 C 79.7 79.2, 40.5 74.9, 39.0 84.6 C 53.1 84.6, 43.2 37.5, 31.6 46.8 C 41.5 38.9, 51.6 53.5, 61.1 49.8 C 54.3 60.4, 18.0 27.1, 18.8 25.0 Z" fill="hsl(242, 72%, 49%)" fill-opacity="0.99" stroke="none" stroke-width="4.63"  transform="translate(88.2 61.3) rotate(252.4) scale(1.73 0.68)" />
<path d="M 38.0 38.6 C 46.4 36.0, 69.2 36.0, 71.6 30.6 C 76.4 26.5, 83.2 7.7, 87.9 20.0 C 92.3 14.9, 30.8 60.6, 35.0 57.7 C 19.8 53.9, 64.4 36.2, 73.4 30.5 C 60.3 35.4, 24.8 87.3, 27.4 85.0 C 26.0 100.0, 33.2 25.7, 26.1 30.9 C 9.2 21.5, 12.3 18.1, 1.5 11.0 Z" fill="none" fill-opacity="0.47" stroke="hsl(322, 74%, 44%)" stroke-width="1.82"  transform="translate(61.5 91.7) rotate(83.7) scale(0.79 1.09)" />
<path d="M 69.6 79.6 C 75.5 99.0, 83.0 76.0, 96.9 68.2 C 87.9 69.5, 57.2 43.6, 42.6 46.5 C 41.6 64.6, 82.4 93.8, 82.5 82.5 C 100.0 89.5, 59.9 70.2, 53.0 85.1 C 34.2 72.6, 51.1 5.5, 55.1 0.2 C 70.8 0.0, 89.1 32.2, 88.9 25.1 C 100.0 25.1, 74.5 73.1, 87.0 74.0 Z" fill="none" fill-opacity="0.35" stroke="hsl(290, 83%, 63%)" stroke-width="2.05" filter="url(#f1)" transform="translate(33.2 84.9) rotate(201.2) scale(1.41 1.88)" />
<path d="M 22.2 36.0 C 26.4 22.0, 37.5 92.4, 32.9 79.6 C 31.2 91.4, 87.0 40.9, 95.9 34.5 C 97.5 41.0, 70.3 32.5, 62.5 19.4 C 70.9 36.1, 15.0 79.1, 18.3 79.8 C 12.0 64.3, 18.9 16.5, 17.1 28.9 C 6.0 32.1, 78.5 6.8, 78.5 17.2 C 77.5 1.4, 15.6 95.0, 8.3 95.3 Z" fill="none" fill-opacity="0.28" stroke="hsl(83, 65%, 44%)" stroke-width="1.61"   />
<g opacity="0.048">
<rect x="0" y="0" width="1" height="100" fill="black" />
<rect x="22" y="0" width="1" height="100" fill="black" />
<rect x="44" y="0" width="1" height="100" fill="black" />
<rect x="66" y="0" width="1" height="100" fill="black" />
<rect x="88" y="0" width="1" height="100" fill="black" />
<rect x="0" y="0" width="100" height="1" fill="black" />
<rect x="0" y="22" width="100" height="1" fill="black" />
<rect x="0" y="44" width="100" height="1" fill="black" />
<rect x="0" y="66" width="100" height="1" fill="black" />
<rect x="0" y="88" width="100" height="1" fill="black" />
</g>

</svg>
