<?xml version="1.0" encoding="UTF-8"?>
<svg xmlns="http://www.w3.org/2000/svg" width="100" height="100" viewBox="0 0 100 100">
<defs>
<linearGradient id="g0" x1="0%" y1="0%" x2="100%" y2="100%">
<stop offset="0.0%" stop-color="hsl(106, 75%, 59%)" />
<stop offset="33.3%" stop-color="hsl(183, 71%, 60%)" />
<stop offset="66.7%" stop-color="hsl(242, 72%, 49%)" />
<stop offset="100.0%" stop-color="hsl(322, 74%, 44%)" />
</linearGradient>
<linearGradient id="g1" x1="0%" y1="0%" x2="100%" y2="100%">
<stop offset="0.0%" stop-color="hsl(290, 83%, 63%)" />
<stop offset="33.3%" stop-color="hsl(2, 82%, 55%)" />
<stop offset="66.7%" stop-color="hsl(86, 72%, 68%)" />
<stop offset="100.0%" stop-color="hsl(83, 65%, 44%)" />
</linearGradient>
<linearGradient id="g2" x1="0%" y1="0%" x2="100%" y2="100%">
<stop offset="0.0%" stop-color="hsl(40, 53%, 69%)" />
<stop offset="33.3%" stop-color="hsl(104, 72%, 65%)" />
<stop offset="66.7%" stop-color="hsl(144, 86%, 72%)" />
<stop offset="100.0%" stop-color="hsl(151, 70%, 62%)" />
</linearGradient>
</defs>

<circle cx="12.9" cy="66.5" r="0.7" fill="hsl(151, 70%, 62%)" fill-opacity="0.71"   />
<path d="M 67.6 24.1 C 66.3 6.4, 24.6 34.2, 29.3 27.0 C 23.6 20.5, 100.0 100.0, 99.5 88.5 C 100.0 77.8, 62.4 41.8, 71.2 51.4 C 55.4 62.8, 68.7 53.3, 80.5 60.4 C 64.8 64.2, 24.0 64.6, 26.6 70.5 " fill="hsl(183, 71%, 60%)" fill-opacity="0.98" stroke="none" stroke-width="0.80"   />
<path d="M 1.7 33.8 C 14.4 31.9, 0.0 14.5, 4.0 5.2 C 22.7 0.0, 80.3 95.8, 81.2 99.2 C 83.8 100.0, 87.2 97.6, 76.9 94.2 C 66.0 81.2, 85.0 92.6, 93.7 90.6 Z" fill="hsl(151, 70%, 62%)" fill-opacity="0.43" stroke="none" stroke-width="1.14"   />
<circle cx="86.7" cy="41.2" r="0.3" fill="hsl(144, 86%, 72%)" fill-opacity="0.69"   />
<path d="M 95.2 37.7 C 100.0 46.8, 76.1 3.9, 69.9 14.0 C 84.7 18.2, 28.4 75.5, 14.6 60.8 C 0.0 46.9, 26.8 35.8, 39.4 42.8 C 22.5 36.9, 100.0 0.6, 96.1 14.2 C 81.0 3.6, 42.7 42.9, 50.0 41.5 " fill="hsl(2, 82%, 55%)" fill-opacity="0.68" stroke="none" stroke-width="1.22"  transform="translate(44.5 55.2) rotate(138.1) scale(1.33 1.07)" />
<rect x="45.2" y="60.5" width="38.6" height="19.4" rx="0" fill="hsl(144, 86%, 72%)" fill-opacity="0.78" stroke="hsl(104, 72%, 65%)" stroke-width="1.3"   />
<circle cx="2.5" cy="57.2" r="1.8" fill="hsl(183, 71%, 60%)" fill-opacity="0.99"  transform="translate(21.6 51.9) rotate(327.0) scale(1.87 1.53)" />
<rect x="44.2" y="2.7" width="33.5" height="28.3" rx="14.4" fill="hsl(290, 83%, 63%)" fill-opacity="0.29" stroke="hsl(290, 83%, 63%)" stroke-width="4.2"   />
<rect x="29.1" y="35.3" width="40.8" height="32.7" rx="0" fill="none" fill-opacity="0.28" stroke="hsl(290, 83%, 63%)" stroke-width="1.4"   />
</svg>
