<?xml version="1.0" encoding="UTF-8"?>
<svg xmlns="http://www.w3.org/2000/svg" width="100" height="100" viewBox="0 0 100 100">
<defs>
<linearGradient id="g0" x1="0%" y1="0%" x2="100%" y2="100%">
<stop offset="0.0%" stop-color="hsl(106, 75%, 59%)" />
<stop offset="33.3%" stop-color="hsl(183, 71%, 60%)" />
<stop offset="66.7%" stop-color="hsl(242, 72%, 49%)" />
<stop offset="100.0%" stop-color="hsl(322, 74%, 44%)" />
</linearGradient>
<linearGradient id="g1" x1="0%" y1="0%" x2="100%" y2="100%">
<stop offset="0.0%" stop-color="hsl(290, 83%, 63%)" />
<stop offset="33.3%" stop-color="hsl(2, 82%, 55%)" />
<stop offset="66.7%" stop-color="hsl(86, 72%, 68%)" />
<stop offset="100.0%" stop-color="hsl(83, 65%, 44%)" />
</linearGradient>
<linearGradient id="g2" x1="0%" y1="0%" x2="100%" y2="100%">
<stop offset="0.0%" stop-color="hsl(40, 53%, 69%)" />
<stop offset="33.3%" stop-color="hsl(104, 72%, 65%)" />
<stop offset="66.7%" stop-color="hsl(144, 86%, 72%)" />
<stop offset="100.0%" stop-color="hsl(151, 70%, 62%)" />
</linearGradient>
<filter id="f1" x="-20%" y="-20%" width="140%" height="140%">
  <feGaussianBlur stdDeviation="1.5142520105106112" />
</filter>

</defs>

<path d="M 5.9 15.2 C 0.0 22.6, 45.2 48.5, 58.0 62.4 C 41.0 53.7, 6.2 87.2, 20.3 74.8 C 5.8 58.7, 3.3 56.4, 14.4 56.5 C 30.4 36.8, 81.9 89.2, 81.2 81.3 C 67.5 85.7, 51.1 94.7, 56.9 89.1 C 70.7 74.8, 41.8 81.1, 47.8 81.9 C 48.0 67.5, 70.7 80.9, 82.9 87.8 C 92.5 68.1, 84.6 90.2, 97.9 76.9 C 96.2 79.8, 4.5 78.0, 9.6 74.8 C 0.0 69.5, 39.3 0.0, 28.3 2.3 Z" fill="hsl(183, 71%, 60%)" fill-opacity="0.37" stroke="none" stroke-width="2.46"  transform="translate(81.4 98.9) rotate(31.3) scale(1.40 0.68)" />
<path d="M 69.7 52.5 C 53.1 72.5, 86.1 77.4, 99.6 86.7 C 100.0 100.0, 73.8 0.3, 83.1 5.0 C 100.0 5.6, 83.1 13.0, 94.1 5.0 C 100.0 0.0, 57.9 99.8, 61.4 96.2 C 72.0 88.3, 11.7 68.0, 15.4 56.0 C 21.6 60.9, 30.0 64.2, 33.2 72.7 C 47.1 71.5, 35.8 55.5, 31.4 66.4 C 41.8 82.8, 79.6 25.9, 87.2 31.6 C 100.0 12.9, 21.4 71.6, 29.5 72.3 C 48.5 90.7, 93.5 0.0, 97.0 7.6 Z" fill="none" fill-opacity="0.92" stroke="hsl(151, 70%, 62%)" stroke-width="3.55"  transform="translate(55.9 27.9) rotate(13.5) scale(1.86 1.05)" />
<path d="M 1.5 50.3 C 0.0 41.6, 11.7 78.6, 16.0 64.7 C 23.2 52.4, 21.2 0.0, 6.2 4.3 C 18.7 19.3, 23.7 29.9, 26.0 27.4 C 17.2 10.3, 34.5 21.7, 45.3 27.1 C 62.5 42.3, 45.8 73.5, 45.9 77.1 C 41.4 89.9, 100.0 3.5, 90.7 4.4 Z" fill="none" fill-opacity="0.41" stroke="hsl(83, 65%, 44%)" stroke-width="4.73"   />
<path d="M 32.7 79.4 C 37.8 61.3, 89.2 23.1, 83.6 35.7 C 93.5 17.0, 58.2 49.0, 51.3 47.5 C 37.0 34.2, 31.5 33.3, 29.3 27.0 C 30.2 26.0, 71.3 20.6, 75.1 13.5 C 64.4 0.0, 3.9 8.6, 3.0 16.3 C 1.8 17.0, 60.7 30.4, 56.8 24.7 Z" fill="hsl(86, 72%, 68%)" fill-opacity="0.53" stroke="none" stroke-width="0.96"  transform="translate(92.8 67.6) rotate(95.4) scale(1.20 1.56)" />
<circle cx="63.1" cy="81.5" r="2.4" fill="url(#g2)" fill-opacity="0.48"  transform="translate(99.3 98.0) rotate(139.7) scale(1.56 0.72)" />
<path d="M 8.5 93.4 C 6.1 84.1, 72.8 40.9, 58.4 52.6 C 64.9 54.1, 20.6 25.9, 7.8 29.4 C 0.0 48.8, 31.6 100.0, 31.3 99.5 C 30.8 95.0, 35.3 45.7, 47.4 44.7 C 47.9 32.1, 82.1 64.8, 76.5 57.9 C 65.4 69.5, 0.0 16.0, 4.4 30.0 C 0.0 23.5, 62.3 94.5, 49.3 85.3 C 51.9 83.4, 80.5 6.0, 85.0 13.2 C 69.3 27.3, 21.1 45.1, 13.6 33.3 C 7.7 30.4, 100.0 40.3, 90.9 37.5 Z" fill="hsl(40, 53%, 69%)" fill-opacity="0.69" stroke="none" stroke-width="2.36"  transform="translate(87.2 62.6) rotate(34.2) scale(0.59 1.06)" />
<path d="M 39.1 28.4 C 46.4 41.2, 95.4 38.2, 90.8 51.8 C 100.0 32.7, 80.1 76.8, 91.3 83.9 C 72.0 95.4, 66.8 51.2, 59.6 61.3 C 39.6 57.9, 32.2 23.0, 20.6 26.6 C 37.3 16.2, 29.8 85.9, 30.7 89.0 C 18.9 71.6, 70.5 12.5, 65.0 13.2 C 55.5 0.0, 12.1 28.0, 10.4 28.5 Z" fill="none" fill-opacity="0.60" stroke="hsl(86, 72%, 68%)" stroke-width="2.42"   />
<rect x="7.8" y="11.7" width="27.6" height="13.0" rx="10.2" fill="none" fill-opacity="0.88"  filter="url(#f1)" transform="translate(39.1 10.4) rotate(44.5) scale(1.72 0.96)" />
<path d="M 25.9 35.1 C 39.3 15.7, 23.8 35.2, 25.4 44.1 C 10.1 27.4, 29.8 47.4, 20.9 47.3 C 39.9 42.3, 61.7 4.2, 47.8 11.4 C 34.7 7.0, 100.0 54.5, 96.6 51.2 C 89.0 35.3, 98.2 22.5, 83.8 13.1 C 84.9 0.0, 31.4 75.3, 24.7 78.7 C 39.3 67.4, 98.5 90.6, 89.6 78.2 C 72.7 91.8, 88.7 7.4, 82.4 13.3 Z" fill="none" fill-opacity="0.40" stroke="hsl(144, 86%, 72%)" stroke-width="5.16"  transform="translate(9.4 64.8) rotate(298.7) scale(0.75 1.19)" />
<circle cx="16.7" cy="28.0" r="5.0" fill="url(#g1)" fill-opacity="0.63"  transform="translate(19.8 4.6) rotate(104.2) scale(1.38 0.56)" />
<circle cx="16.1" cy="77.5" r="5.9" fill="url(#g2)" fill-opacity="0.60"  transform="translate(87.4 61.8) rotate(310.3) scale(1.36 1.68)" />
<path d="M 79.8 49.8 C 89.7 53.4, 53.6 64.3, 39.6 62.4 C 20.8 72.5, 23.4 96.5, 8.9 82.3 C 0.0 81.0, 32.8 92.5, 41.6 92.7 C 35.8 83.2, 82.3 25.2, 67.6 16.3 C 64.6 23.3, 57.8 77.0, 55.7 73.8 C 57.9 56.6, 26.5 84.9, 31.7 87.5 Z" fill="hsl(104, 72%, 65%)" fill-opacity="0.81" stroke="none" stroke-width="0.99"  transform="translate(69.5 13.5) rotate(271.0) scale(1.70 1.94)" />
<path d="M 82.1 51.0 C 84.1 50.8, 58.1 100.0, 50.7 99.0 C 31.8 100.0, 59.7 18.5, 59.9 19.4 C 46.5 23.7, 0.0 0.0, 3.3 0.3 C 0.0 0.0, 4.4 85.9, 18.6 93.9 C 10.6 84.0, 14.2 81.7, 25.3 80.0 C 21.5 90.5, 22.3 80.4, 22.8 83.2 C 39.9 93.2, 18.2 55.8, 21.5 45.3 Z" fill="hsl(86, 72%, 68%)" fill-opacity="0.71" stroke="none" stroke-width="3.20"  transform="translate(68.1 38.2) rotate(316.8) scale(0.58 0.93)" />
<path d="M 91.2 57.4 C 100.0 68.6, 80.6 18.9, 82.1 4.5 C 86.4 0.0, 69.2 67.0, 65.9 70.0 C 67.0 86.4, 64.2 35.0, 61.5 28.7 C 71.9 31.7, 40.9 45.3, 30.1 50.3 C 32.7 45.5, 49.3 29.6, 43.9 16.4 C 37.0 19.8, 100.0 14.1, 99.9 4.5 C 91.7 0.0, 40.5 31.0, 49.6 24.5 C 33.4 22.7, 0.0 92.7, 10.1 93.7 C 22.2 80.2, 80.6 100.0, 73.0 97.5 " fill="hsl(106, 75%, 59%)" fill-opacity="0.63" stroke="none" stroke-width="3.27"  transform="translate(96.6 52.6) rotate(65.1) scale(0.93 0.99)" />
<path d="M 70.4 41.7 C 59.8 38.0, 84.7 29.4, 89.6 35.0 C 71.3 31.1, 98.4 48.3, 86.6 56.2 C 100.0 39.8, 92.9 0.0, 86.4 10.5 C 95.9 0.0, 13.9 32.0, 16.0 24.9 C 29.2 38.2, 10.9 25.1, 24.2 23.0 C 24.2 35.2, 22.7 70.5, 17.9 77.3 C 8.7 75.5, 62.9 16.8, 56.6 31.7 C 50.4 31.8, 93.7 12.5, 86.0 18.2 C 90.7 11.3, 0.0 13.6, 2.2 17.1 Z" fill="none" fill-opacity="0.31" stroke="hsl(86, 72%, 68%)" stroke-width="4.26"  transform="translate(45.6 50.6) rotate(268.1) scale(1.34 1.08)" />
<path d="M 87.8 47.7 C 99.4 63.4, 35.4 100.0, 30.0 93.6 C 17.2 85.3, 39.0 90.1, 29.6 82.8 C 45.5 90.3, 18.9 5.0, 29.9 18.0 C 37.0 0.0, 15.9 67.0, 23.1 72.6 C 34.4 75.2, 46.7 77.2, 33.2 81.7 C 20.3 86.3, 94.6 30.7, 92.6 18.7 C 78.8 36.5, 0.0 95.5, 11.1 91.0 C 30.4 80.2, 53.5 33.7, 60.2 41.7 C 46.6 53.4, 40.1 57.0, 26.6 46.3 Z" fill="hsl(83, 65%, 44%)" fill-opacity="0.61" stroke="none" stroke-width="4.02"  transform="translate(56.5 20.9) rotate(190.7) scale(1.83 1.69)" />
<rect x="58.1" y="6.0" width="31.8" height="22.6" rx="0" fill="hsl(290, 83%, 63%)" fill-opacity="0.63"   transform="translate(98.5 74.2) rotate(85.6) scale(1.88 1.33)" />
<path d="M 92.6 63.4 C 73.2 47.8, 34.7 59.3, 32.7 61.9 C 24.2 70.1, 67.3 41.2, 55.0 46.4 C 63.3 48.0, 28.4 59.0, 29.0 48.4 C 11.9 34.3, 43.1 21.2, 58.0 35.6 C 46.1 28.6, 26.9 75.1, 18.5 66.2 C 27.3 66.5, 17.8 35.3, 28.7 48.1 C 32.3 67.5, 23.3 78.3, 29.6 87.2 C 21.8 80.2, 92.5 19.4, 88.1 12.1 C 90.0 6.9, 91.8 80.5, 97.4 86.6 " fill="hsl(144, 86%, 72%)" fill-opacity="0.73" stroke="none" stroke-width="2.93"  transform="translate(66.1 99.8) rotate(77.1) scale(1.30 1.95)" />
<path d="M 79.2 54.6 C 94.2 64.3, 94.8 26.9, 82.0 34.9 C 75.7 30.1, 20.6 26.9, 7.8 28.8 C 8.3 41.6, 52.4 69.1, 44.9 81.2 C 32.7 67.8, 36.5 75.5, 41.3 62.3 C 34.9 70.8, 72.5 99.5, 71.9 97.1 C 82.1 97.5, 71.4 43.9, 70.8 38.7 C 79.2 51.8, 73.9 10.9, 73.1 3.1 C 88.1 0.0, 93.5 81.8, 98.3 79.3 C 90.1 69.5, 56.2 90.4, 60.0 75.5 C 67.2 77.4, 52.1 39.6, 40.2 48.6 Z" fill="hsl(104, 72%, 65%)" fill-opacity="0.86" stroke="none" stroke-width="0.87"  transform="translate(76.0 66.1) rotate(82.0) scale(0.53 0.64)" />
<circle cx="4.2" cy="99.1" r="3.8" fill="url(#g1)" fill-opacity="0.74"  transform="translate(28.2 92.9) rotate(98.1) scale(1.69 0.85)" />
<path d="M 43.4 9.2 C 31.6 0.0, 56.4 56.6, 48.3 56.3 C 29.8 53.5, 73.6 73.6, 67.0 82.8 C 68.1 72.5, 0.0 73.4, 13.2 77.8 C 22.3 78.2, 90.9 89.5, 80.7 78.7 C 99.2 73.4, 23.4 100.0, 9.0 93.3 C 13.9 78.8, 82.7 14.6, 91.8 28.7 C 100.0 34.1, 63.9 64.3, 73.7 67.5 C 92.8 57.0, 93.8 74.4, 98.4 80.4 C 100.0 95.3, 87.8 58.8, 99.6 45.6 Z" fill="none" fill-opacity="0.26" stroke="hsl(322, 74%, 44%)" stroke-width="2.42"  transform="translate(47.8 36.1) rotate(259.2) scale(1.03 1.79)" />
<path d="M 35.9 11.4 C 39.9 11.1, 21.1 100.0, 33.8 88.8 C 53.2 84.0, 87.5 77.5, 88.8 76.1 C 80.2 93.0, 93.5 0.0, 87.3 8.4 C 94.7 13.7, 46.5 18.3, 36.4 24.8 C 29.4 12.4, 0.0 46.6, 1.5 33.2 C 20.5 26.8, 48.0 52.8, 40.7 56.4 C 46.4 47.8, 74.2 61.9, 60.9 61.7 C 75.8 56.9, 43.3 12.6, 29.7 17.7 Z" fill="none" fill-opacity="0.68" stroke="hsl(106, 75%, 59%)" stroke-width="2.55"  transform="translate(83.2 87.3) rotate(139.2) scale(1.88 1.04)" />
<path d="M 54.1 42.7 C 60.6 35.3, 15.9 69.7, 9.2 82.0 C 0.0 71.6, 40.9 71.3, 47.3 64.7 C 48.1 64.4, 26.9 44.5, 24.5 29.9 C 21.4 24.6, 41.0 64.5, 28.5 49.6 C 9.3 66.6, 51.8 49.5, 60.7 45.7 C 45.9 27.2, 46.8 48.1, 55.3 48.3 C 45.6 47.7, 1.9 87.7, 14.0 79.3 C 33.7 67.6, 79.5 66.9, 74.9 62.9 C 94.9 54.1, 100.0 59.3, 91.4 57.5 Z" fill="hsl(290, 83%, 63%)" fill-opacity="0.91" stroke="none" stroke-width="3.08"  transform="translate(37.5 71.3) rotate(129.9) scale(0.53 0.52)" />
<path d="M 34.4 35.2 C 31.9 19.0, 86.5 13.6, 97.8 22.5 C 81.7 31.1, 76.1 61.4, 68.1 54.2 C 86.4 71.9, 66.0 35.4, 58.1 26.9 C 40.0 12.1, 79.4 72.5, 77.6 74.7 C 66.4 79.1, 62.7 18.8, 70.9 32.0 C 78.0 33.3, 49.8 52.3, 64.4 64.5 C 79.4 82.4, 65.5 71.0, 57.8 64.2 C 73.0 79.4, 75.1 95.3, 64.9 94.5 Z" fill="hsl(2, 82%, 55%)" fill-opacity="0.34" stroke="none" stroke-width="1.90"   />
<rect x="49.3" y="82.4" width="27.8" height="11.8" rx="7.3" fill="hsl(83, 65%, 44%)" fill-opacity="0.98"   transform="translate(19.0 79.5) rotate(196.1) scale(1.01 1.47)" />
<circle cx="8.5" cy="47.9" r="3.8" fill="hsl(86, 72%, 68%)" fill-opacity="0.86"  transform="translate(51.3 75.7) rotate(326.1) scale(1.94 1.62)" />
<path d="M 62.3 38.8 C 79.1 38.8, 100.0 74.6, 98.8 72.0 C 82.6 71.7, 64.0 94.0, 57.3 87.4 C 62.6 95.2, 70.8 62.4, 69.7 66.9 C 67.5 62.4, 84.1 29.3, 77.1 25.6 C 72.0 36.8, 63.0 58.6, 72.9 67.3 C 63.0 49.4, 13.7 68.0, 9.7 57.3 C 28.3 49.4, 38.1 64.8, 27.5 72.1 " fill="none" fill-opacity="0.78" stroke="hsl(83, 65%, 44%)" stroke-width="4.48"  transform="translate(41.9 28.5) rotate(126.0) scale(0.95 1.83)" />
<circle cx="56.4" cy="83.0" r="3.9" fill="hsl(40, 53%, 69%)" fill-opacity="0.88" filter="url(#f1)" transform="translate(58.9 63.0) rotate(317.6) scale(1.19 1.87)" />
<path d="M 59.8 23.7 C 74.8 35.0, 97.9 0.0, 88.8 6.9 C 100.0 4.4, 11.5 64.8, 2.6 62.3 C 0.0 62.9, 19.2 55.9, 17.4 62.6 C 12.6 43.2, 95.5 100.0, 90.3 93.3 C 70.3 100.0, 77.0 19.7, 76.2 25.9 C 72.2 15.4, 100.0 73.9, 99.7 83.6 C 82.4 96.7, 62.0 0.0, 53.5 1.2 C 42.8 21.0, 39.3 36.2, 50.7 41.9 Z" fill="hsl(40, 53%, 69%)" fill-opacity="0.98" stroke="none" stroke-width="1.90"  transform="translate(65.7 21.2) rotate(318.9) scale(1.78 0.67)" />
<path d="M 86.1 21.2 C 84.4 37.5, 52.7 44.9, 46.9 36.7 C 36.7 27.5, 69.1 89.6, 60.6 93.9 C 43.6 100.0, 82.8 30.4, 94.9 34.6 C 100.0 38.0, 46.9 7.4, 36.9 21.5 C 50.2 4.0, 31.2 19.7, 27.2 21.6 C 39.9 21.7, 57.1 40.6, 46.4 32.8 C 48.9 32.0, 68.1 23.8, 76.0 35.9 C 61.2 27.6, 48.2 26.0, 42.3 13.0 Z" fill="none" fill-opacity="0.48" stroke="hsl(290, 83%, 63%)" stroke-width="4.78" filter="url(#f1)" transform="translate(55.6 67.0) rotate(207.5) scale(1.83 0.61)" />
<rect x="46.7" y="81.8" width="46.1" height="17.5" rx="9.6" fill="none" fill-opacity="0.74" stroke="hsl(290, 83%, 63%)" stroke-width="2.3"  transform="translate(10.7 49.8) rotate(54.3) scale(1.87 0.97)" />
<path d="M 75.1 41.5 C 81.3 49.5, 59.4 5.2, 48.3 5.2 C 39.4 9.9, 43.3 81.9, 53.6 67.7 C 47.5 66.9, 75.2 38.0, 85.1 50.1 C 96.5 63.9, 21.4 8.1, 28.0 9.6 C 32.0 26.9, 89.6 21.9, 79.0 24.1 C 80.4 43.5, 66.3 6.1, 62.9 1.7 Z" fill="hsl(83, 65%, 44%)" fill-opacity="0.75" stroke="none" stroke-width="1.12"  transform="translate(22.7 86.7) rotate(131.7) scale(1.65 1.47)" />
<path d="M 27.4 95.5 C 35.7 100.0, 85.7 62.2, 82.3 76.2 C 94.3 85.6, 47.5 73.3, 34.4 79.5 C 20.0 60.3, 13.9 81.8, 15.6 67.9 C 18.8 61.2, 25.2 73.8, 22.3 88.7 C 34.5 71.3, 56.4 0.0, 60.1 4.9 C 51.8 0.3, 53.0 46.6, 55.1 44.1 C 35.8 26.7, 40.9 59.8, 43.7 49.1 C 39.1 50.2, 24.9 43.8, 29.1 41.3 Z" fill="hsl(151, 70%, 62%)" fill-opacity="0.37" stroke="none" stroke-width="5.05"  transform="translate(43.6 31.3) rotate(117.4) scale(1.46 0.66)" />
<rect x="28.2" y="30.6" width="38.7" height="39.5" rx="0" fill="hsl(40, 53%, 69%)" fill-opacity="0.69"   transform="translate(99.4 45.0) rotate(75.9) scale(0.67 1.96)" />
<path d="M 14.4 89.9 C 15.1 87.9, 0.0 48.1, 2.2 35.0 C 9.7 49.0, 54.1 83.4, 59.6 97.6 C 56.4 85.2, 8.7 39.7, 3.7 38.2 C 1.7 41.8, 45.3 66.3, 45.0 58.9 C 47.1 77.6, 42.7 11.2, 53.7 16.1 C 69.2 30.8, 29.7 16.7, 25.3 3.2 C 22.5 0.0, 78.0 75.1, 87.2 74.7 Z" fill="hsl(40, 53%, 69%)" fill-opacity="0.34" stroke="none" stroke-width="3.89" filter="url(#f1)" transform="translate(1.8 94.9) rotate(307.8) scale(1.69 0.81)" />
<path d="M 85.8 50.5 C 81.7 53.9, 25.2 55.3, 29.7 41.0 C 25.7 60.7, 69.9 56.2, 82.5 45.3 C 67.3 58.1, 0.0 33.3, 9.2 43.0 C 8.8 45.0, 33.0 23.3, 41.7 11.9 C 23.8 1.4, 78.9 66.5, 79.5 55.4 C 61.1 74.1, 47.3 33.9, 47.3 36.7 C 57.2 46.0, 88.7 5.7, 78.7 3.5 Z" fill="none" fill-opacity="0.36" stroke="hsl(40, 53%, 69%)" stroke-width="1.49"  transform="translate(14.5 30.9) rotate(65.3) scale(1.66 1.04)" />
<path d="M 39.8 51.7 C 35.3 55.2, 78.4 60.7, 77.9 75.4 C 82.6 72.5, 95.1 26.9, 89.9 22.2 C 100.0 6.1, 2.0 50.1, 2.3 40.8 C 16.4 28.1, 80.0 23.2, 71.9 24.7 C 79.3 7.2, 13.8 79.4, 8.0 85.2 C 9.8 85.2, 87.4 19.1, 82.8 14.7 C 97.5 10.9, 90.6 41.9, 89.6 51.5 C 100.0 34.4, 91.4 64.6, 83.4 51.1 C 72.3 52.8, 56.0 23.0, 57.2 12.9 C 64.2 7.6, 82.8 21.5, 81.1 35.4 Z" fill="none" fill-opacity="0.54" stroke="hsl(40, 53%, 69%)" stroke-width="2.25"   />
<rect x="46.0" y="25.5" width="26.1" height="10.9" rx="15.9" fill="none" fill-opacity="0.29" stroke="hsl(86, 72%, 68%)" stroke-width="3.5"  transform="translate(78.6 19.5) rotate(296.5) scale(1.02 0.76)" />
<path d="M 42.9 0.3 C 40.1 5.1, 62.1 87.6, 61.3 88.8 C 80.1 74.0, 75.8 30.6, 71.6 25.1 C 57.3 24.2, 77.0 82.9, 90.9 81.6 C 90.7 76.0, 83.3 97.2, 84.3 88.8 C 73.0 82.9, 22.5 71.0, 18.3 59.8 C 0.0 78.6, 59.0 64.6, 45.7 56.7 C 31.4 72.5, 34.4 84.9, 38.3 75.9 C 29.4 85.8, 29.2 45.4, 35.1 54.1 " fill="none" fill-opacity="0.78" stroke="hsl(183, 71%, 60%)" stroke-width="3.91" filter="url(#f1)" transform="translate(0.2 7.3) rotate(34.9) scale(1.02 0.58)" />
<circle cx="37.6" cy="26.8" r="1.6" fill="url(#g1)" fill-opacity="0.45"  transform="translate(41.0 38.1) rotate(296.4) scale(1.35 1.54)" />
<path d="M 9.4 42.9 C 15.1 36.0, 86.6 1.6, 89.5 13.1 C 85.3 7.3, 17.2 62.5, 13.7 73.4 C 0.0 82.6, 27.6 50.7, 41.2 41.0 C 55.3 37.4, 8.2 16.8, 10.5 31.1 C 0.0 23.4, 0.0 79.2, 1.8 66.8 C 0.0 47.1, 32.5 90.0, 24.4 80.1 C 41.4 91.7, 4.6 72.0, 4.3 85.9 C 0.0 88.9, 21.7 68.8, 19.2 70.2 C 21.2 87.1, 10.8 98.4, 1.9 83.7 Z" fill="hsl(106, 75%, 59%)" fill-opacity="0.65" stroke="none" stroke-width="4.13"  transform="translate(72.1 91.4) rotate(43.5) scale(1.46 1.84)" />
<path d="M 94.0 49.7 C 99.9 64.0, 86.4 33.2, 96.0 46.9 C 99.0 62.9, 19.0 28.0, 4.0 31.8 C 0.0 32.7, 5.7 6.6, 1.4 16.8 C 0.5 20.3, 74.4 53.6, 67.2 58.8 C 65.2 66.6, 3.8 7.8, 4.8 22.1 C 11.6 18.7, 11.6 32.6, 16.8 26.7 C 27.1 12.4, 85.8 15.0, 81.2 12.9 Z" fill="none" fill-opacity="0.99" stroke="hsl(242, 72%, 49%)" stroke-width="3.08"   />
<path d="M 14.8 0.6 C 29.2 0.0, 57.6 82.2, 68.4 95.4 C 84.3 100.0, 99.3 82.5, 84.3 87.8 C 100.0 97.5, 76.0 87.9, 73.5 85.6 C 83.6 94.8, 4.9 83.6, 0.6 75.8 C 0.0 82.7, 54.0 93.4, 41.4 81.7 C 30.3 87.2, 11.1 9.1, 26.1 21.0 C 32.5 14.3, 84.5 2.1, 76.2 11.8 C 72.7 14.9, 8.1 100.0, 3.2 95.5 C 22.3 100.0, 34.7 33.5, 36.6 26.6 C 28.7 34.3, 43.1 66.5, 34.0 76.9 Z" fill="none" fill-opacity="0.61" stroke="hsl(151, 70%, 62%)" stroke-width="3.25"  transform="translate(37.9 22.7) rotate(216.6) scale(1.55 1.48)" />
<rect x="51.9" y="34.1" width="34.1" height="18.5" rx="19.8" fill="none" fill-opacity="0.70"   transform="translate(4.9 12.0) rotate(345.9) scale(1.61 0.85)" />
<rect x="22.6" y="33.3" width="31.5" height="18.8" rx="18.9" fill="hsl(183, 71%, 60%)" fill-opacity="0.44"   transform="translate(83.1 50.1) rotate(332.5) scale(2.00 0.99)" />
<path d="M 8.8 46.6 C 0.0 31.4, 48.8 25.1, 55.0 10.8 C 58.6 0.0, 41.9 31.4, 48.1 22.5 C 45.2 14.6, 16.2 70.4, 13.1 64.5 C 16.7 52.4, 84.0 0.8, 96.4 1.7 C 100.0 12.6, 46.0 56.6, 49.6 49.8 C 48.0 46.2, 16.8 71.0, 29.5 60.9 C 20.2 53.4, 88.9 1.6, 80.1 5.8 C 82.1 0.0, 73.6 93.1, 77.5 80.2 Z" fill="none" fill-opacity="0.45" stroke="hsl(83, 65%, 44%)" stroke-width="2.90"  transform="translate(20.8 17.2) rotate(195.5) scale(1.18 1.15)" />
<path d="M 49.4 74.5 C 58.9 75.7, 1.3 43.6, 10.3 39.7 C 22.0 50.1, 83.1 6.7, 73.5 12.3 C 76.4 23.8, 22.6 30.6, 11.6 31.1 C 0.0 14.6, 85.4 48.9, 93.2 57.9 C 84.7 41.7, 13.7 79.0, 24.2 79.8 C 8.9 94.5, 27.4 20.3, 34.1 15.2 C 31.2 0.0, 29.4 16.9, 27.1 24.6 C 28.3 16.7, 81.1 67.9, 69.2 53.3 C 51.8 65.7, 42.6 43.6, 43.4 47.9 " fill="hsl(40, 53%, 69%)" fill-opacity="0.74" stroke="none" stroke-width="1.65"  transform="translate(88.9 0.3) rotate(166.5) scale(0.91 0.61)" />
<circle cx="81.7" cy="26.7" r="16.9" fill="hsl(144, 86%, 72%)" fill-opacity="0.97"  transform="translate(80.1 90.5) rotate(84.5) scale(1.51 0.69)" />
<path d="M 99.5 32.8 C 97.3 33.7, 81.9 73.7, 75.9 63.1 C 67.0 74.1, 35.9 55.5, 31.4 70.1 C 11.8 54.8, 87.4 36.4, 98.2 43.7 C 100.0 39.7, 19.6 16.7, 10.9 14.3 C 0.0 12.3, 84.0 100.0, 89.9 96.6 C 100.0 99.7, 85.3 1.6, 91.3 11.4 Z" fill="none" fill-opacity="0.51" stroke="hsl(183, 71%, 60%)" stroke-width="1.51"  transform="translate(11.5 5.7) rotate(224.6) scale(1.16 0.82)" />
<circle cx="51.0" cy="64.5" r="2.4" fill="hsl(86, 72%, 68%)" fill-opacity="0.57"  transform="translate(7.4 24.8) rotate(159.0) scale(1.89 1.43)" />
<path d="M 88.8 30.5 C 97.6 16.7, 53.7 62.7, 55.9 57.7 C 74.9 55.6, 45.6 6.3, 40.1 9.9 C 33.5 0.0, 90.1 70.7, 86.2 68.8 C 81.5 69.9, 14.4 56.9, 9.9 59.9 C 0.0 70.2, 21.4 49.3, 28.5 48.4 C 15.3 45.3, 4.2 66.2, 11.5 52.6 Z" fill="none" fill-opacity="0.78" stroke="hsl(83, 65%, 44%)" stroke-width="4.49" filter="url(#f1)" transform="translate(84.2 18.1) rotate(331.6) scale(1.47 1.34)" />
<rect x="42.6" y="41.2" width="39.4" height="22.3" rx="0" fill="hsl(86, 72%, 68%)" fill-opacity="0.44"   transform="translate(17.5 18.6) rotate(259.6) scale(1.97 1.84)" />
<path d="M 77.9 7.0 C 87.8 14.2, 80.7 6.8, 93.0 15.9 C 97.4 7.0, 8.6 19.7, 3.2 13.2 C 1.8 15.9, 62.0 99.6, 57.7 89.7 C 60.3 100.0, 8.4 0.0, 21.3 5.1 C 35.3 0.0, 0.0 13.2, 5.8 18.1 C 24.9 5.7, 56.8 89.0, 53.6 77.1 Z" fill="hsl(104, 72%, 65%)" fill-opacity="0.49" stroke="none" stroke-width="4.19"   />
<circle cx="30.6" cy="76.7" r="4.0" fill="url(#g0)" fill-opacity="0.50"  transform="translate(14.4 26.4) rotate(176.6) scale(1.19 1.15)" />
<path d="M 75.2 56.4 C 75.8 74.6, 53.7 69.5, 64.8 67.3 C 52.1 74.8, 17.4 0.0, 3.6 11.9 C 2.8 30.6, 26.5 29.0, 40.8 15.0 C 52.5 17.8, 71.9 85.8, 69.4 93.6 C 67.6 93.0, 99.9 66.0, 89.5 51.5 C 100.0 70.4, 92.8 48.4, 95.1 56.6 C 96.5 39.7, 88.3 64.6, 95.1 73.7 C 75.4 81.9, 26.6 12.1, 13.7 6.2 C 29.3 0.0, 24.8 80.1, 14.1 79.2 C 0.0 60.5, 39.9 0.6, 28.5 11.0 " fill="hsl(183, 71%, 60%)" fill-opacity="0.64" stroke="none" stroke-width="4.83"   />
<circle cx="71.3" cy="18.7" r="7.2" fill="hsl(322, 74%, 44%)" fill-opacity="0.91"  transform="translate(27.7 80.3) rotate(149.9) scale(1.50 0.60)" />
<rect x="62.6" y="51.0" width="22.2" height="24.6" rx="0" fill="none" fill-opacity="0.56"   transform="translate(40.3 47.2) rotate(161.4) scale(1.51 0.96)" />
<circle cx="25.7" cy="16.5" r="12.9" fill="hsl(322, 74%, 44%)" fill-opacity="0.87"  transform="translate(36.1 69.5) rotate(127.0) scale(1.05 1.45)" />
<rect x="5.4" y="69.3" width="49.1" height="30.1" rx="6.3" fill="hsl(144, 86%, 72%)" fill-opacity="0.90" stroke="hsl(40, 53%, 69%)" stroke-width="3.1"  transform="translate(3.8 59.3) rotate(204.8) scale(1.12 1.07)" />
<rect x="23.3" y="21.4" width="39.7" height="37.0" rx="0" fill="none" fill-opacity="0.56"  filter="url(#f1)" transform="translate(38.8 72.2) rotate(223.7) scale(0.70 1.51)" />
<rect x="19.7" y="36.2" width="30.0" height="35.1" rx="0" fill="hsl(151, 70%, 62%)" fill-opacity="0.39" stroke="hsl(40, 53%, 69%)" stroke-width="3.6"  transform="translate(35.9 29.4) rotate(220.6) scale(1.81 0.95)" />
<path d="M 49.7 94.7 C 34.7 83.7, 81.4 11.2, 69.3 13.3 C 53.7 9.0, 0.2 39.1, 12.2 27.4 C 20.6 19.4, 85.4 66.6, 91.3 52.2 C 100.0 62.4, 56.7 58.9, 67.1 62.9 C 71.8 74.2, 42.2 40.5, 46.2 49.2 C 36.4 31.4, 71.9 72.8, 58.1 58.8 C 51.2 59.2, 83.1 62.7, 75.7 49.4 C 63.5 35.0, 54.7 23.8, 53.5 30.3 C 46.9 10.9, 59.0 14.6, 54.9 1.4 C 66.6 0.0, 51.9 4.9, 61.7 7.7 Z" fill="none" fill-opacity="0.77" stroke="hsl(2, 82%, 55%)" stroke-width="3.61"   />
<rect x="1.9" y="70.3" width="48.7" height="14.1" rx="0" fill="none" fill-opacity="0.43" stroke="hsl(86, 72%, 68%)" stroke-width="2.1"  transform="translate(26.6 99.5) rotate(356.7) scale(1.79 1.14)" />
<path d="M 1.0 3.3 C 19.9 9.7, 43.0 98.1, 56.1 90.5 C 70.6 100.0, 75.8 69.4, 69.1 79.7 C 51.7 96.9, 43.3 66.6, 39.0 57.6 C 55.5 47.9, 38.8 52.5, 50.1 43.7 C 57.9 46.7, 76.7 63.9, 69.2 62.8 C 54.0 73.2, 78.1 20.9, 73.6 24.3 C 86.4 17.2, 10.0 72.4, 24.7 87.0 C 27.5 94.1, 20.2 44.9, 11.8 39.7 C 29.0 51.4, 76.4 0.8, 81.7 1.4 Z" fill="hsl(242, 72%, 49%)" fill-opacity="0.43" stroke="none" stroke-width="2.25"  transform="translate(20.8 41.7) rotate(31.2) scale(0.90 0.81)" />
<path d="M 3.8 43.6 C 9.5 55.2, 69.4 55.5, 73.1 59.2 C 72.2 44.6, 70.0 21.8, 61.1 13.5 C 58.6 17.8, 79.3 66.5, 73.9 63.3 C 58.6 62.9, 52.2 26.6, 53.3 33.2 C 48.6 31.5, 49.7 62.9, 48.7 62.9 C 41.8 74.3, 17.9 6.1, 15.4 12.8 C 28.5 31.8, 36.5 91.0, 27.2 96.2 Z" fill="hsl(2, 82%, 55%)" fill-opacity="0.92" stroke="none" stroke-width="5.28"  transform="translate(31.3 84.7) rotate(299.8) scale(1.47 1.68)" />
<path d="M 3.9 52.9 C 6.8 36.5, 66.1 9.8, 68.8 18.2 C 60.0 33.8, 64.2 17.2, 55.2 26.7 C 41.7 40.7, 79.8 80.9, 66.1 67.6 C 72.0 54.3, 52.7 86.6, 60.6 83.4 C 78.0 68.3, 28.0 27.2, 29.2 25.0 C 14.1 29.6, 13.1 20.2, 18.4 30.4 C 5.7 49.3, 26.4 53.1, 15.1 65.6 C 31.8 50.4, 76.4 94.4, 87.3 80.2 C 74.7 71.7, 91.8 53.0, 93.5 52.5 Z" fill="none" fill-opacity="0.67" stroke="hsl(2, 82%, 55%)" stroke-width="0.97"  transform="translate(43.8 7.3) rotate(281.0) scale(1.52 0.80)" />
<circle cx="0.9" cy="13.5" r="16.3" fill="hsl(183, 71%, 60%)" fill-opacity="0.85"  transform="translate(19.6 20.7) rotate(51.0) scale(0.91 1.07)" />
<circle cx="65.4" cy="92.8" r="11.2" fill="url(#g0)" fill-opacity="0.74"  transform="translate(98.1 78.7) rotate(316.9) scale(1.29 1.57)" />
<path d="M 92.1 53.5 C 100.0 56.4, 39.6 46.0, 26.0 49.9 C 34.7 30.9, 100.0 24.6, 96.5 38.1 C 100.0 35.7, 53.5 93.8, 66.1 94.6 C 84.2 86.7, 41.3 65.5, 27.7 74.9 C 19.1 85.1, 7.2 48.5, 4.4 51.2 C 0.0 61.7, 13.5 86.5, 2.1 95.6 C 21.2 95.0, 33.2 18.9, 45.1 14.2 Z" fill="none" fill-opacity="0.75" stroke="hsl(40, 53%, 69%)" stroke-width="0.89"   />
<path d="M 72.9 28.9 C 57.6 33.3, 74.1 48.8, 73.9 50.8 C 59.0 39.8, 29.7 30.3, 25.4 23.3 C 21.3 41.5, 86.8 34.1, 83.0 42.0 C 90.9 58.9, 0.0 24.4, 5.0 21.0 C 2.7 13.7, 60.2 58.7, 71.2 69.0 C 59.3 68.7, 0.0 0.0, 11.0 10.8 C 16.9 6.4, 8.0 67.6, 5.1 72.8 C 23.0 59.5, 26.0 72.6, 11.4 78.5 C 27.5 71.3, 59.7 24.7, 67.7 34.7 Z" fill="none" fill-opacity="0.48" stroke="hsl(151, 70%, 62%)" stroke-width="1.40" filter="url(#f1)" transform="translate(67.0 38.5) rotate(279.7) scale(1.01 1.89)" />
<path d="M 72.2 68.5 C 68.1 55.8, 60.2 79.8, 50.8 81.8 C 45.8 70.7, 0.0 72.4, 0.9 69.8 C 17.7 77.8, 83.2 34.7, 70.3 43.0 C 54.1 40.6, 57.1 22.0, 42.6 11.3 C 53.9 0.0, 21.9 21.8, 35.1 28.7 C 53.1 21.1, 86.5 37.9, 93.2 45.3 C 100.0 29.3, 6.3 32.1, 19.5 44.4 C 1.3 26.5, 28.4 56.4, 27.8 43.1 C 44.4 40.8, 29.7 60.1, 29.0 71.2 Z" fill="hsl(40, 53%, 69%)" fill-opacity="0.30" stroke="none" stroke-width="4.50"  transform="translate(70.8 62.1) rotate(268.0) scale(1.97 0.75)" />
<path d="M 56.1 73.8 C 50.5 88.7, 47.4 0.5, 54.5 8.9 C 50.2 3.0, 54.3 30.7, 39.9 33.2 C 34.4 40.8, 6.2 34.8, 3.2 38.3 C 11.6 57.2, 53.0 65.0, 43.5 75.7 C 53.8 69.3, 35.8 63.7, 42.6 60.1 C 36.2 48.4, 43.0 45.5, 56.7 39.2 Z" fill="hsl(104, 72%, 65%)" fill-opacity="0.43" stroke="none" stroke-width="2.22"  transform="translate(55.9 15.3) rotate(21.7) scale(0.88 1.55)" />
<path d="M 87.8 72.0 C 100.0 80.4, 14.4 19.4, 20.5 24.7 C 4.6 28.8, 71.0 97.0, 80.5 92.5 C 91.2 79.5, 9.0 87.3, 17.1 85.0 C 19.5 94.7, 30.9 72.1, 21.8 60.2 C 36.9 47.6, 30.8 70.7, 45.7 58.4 C 53.2 41.4, 32.8 34.0, 39.4 34.8 C 21.0 42.4, 33.7 86.4, 31.6 91.5 C 13.8 82.2, 94.5 40.1, 91.6 43.7 Z" fill="none" fill-opacity="0.74" stroke="hsl(104, 72%, 65%)" stroke-width="0.90"  transform="translate(14.7 29.8) rotate(316.2) scale(0.51 0.52)" />
<path d="M 66.2 93.9 C 54.4 100.0, 72.8 95.2, 71.6 80.8 C 71.3 79.9, 71.7 43.6, 84.0 42.1 C 88.0 57.3, 69.2 2.0, 82.6 0.4 C 69.1 14.6, 99.4 30.3, 89.7 38.5 C 91.1 23.5, 92.8 39.5, 88.7 51.4 C 69.2 41.6, 85.0 13.4, 72.2 1.9 C 69.0 10.9, 49.2 83.6, 58.0 79.8 C 67.6 96.9, 0.0 65.0, 8.2 69.0 C 20.1 60.7, 73.5 40.1, 73.1 37.1 Z" fill="none" fill-opacity="0.84" stroke="hsl(2, 82%, 55%)" stroke-width="3.47" filter="url(#f1)" transform="translate(46.8 89.7) rotate(120.7) scale(0.99 1.61)" />
<path d="M 80.7 70.6 C 79.6 54.3, 51.1 3.8, 59.7 2.2 C 52.0 1.8, 84.4 29.6, 91.4 29.8 C 85.6 31.0, 8.5 0.5, 17.3 7.6 C 22.7 0.0, 37.4 5.1, 48.7 3.0 C 45.9 0.0, 88.2 9.5, 99.4 15.2 C 100.0 21.4, 13.6 35.0, 25.8 36.3 C 43.9 19.7, 36.6 7.0, 44.0 16.9 C 57.4 14.1, 83.6 44.6, 96.4 47.4 C 85.8 41.9, 59.7 41.8, 46.6 49.9 Z" fill="hsl(40, 53%, 69%)" fill-opacity="0.32" stroke="none" stroke-width="4.08"  transform="translate(43.3 13.6) rotate(189.1) scale(0.65 1.28)" />
<path d="M 69.2 62.3 C 77.1 80.1, 9.8 55.5, 8.6 50.6 C 13.9 40.9, 0.0 35.8, 3.6 44.7 C 12.3 54.2, 23.2 87.5, 9.1 93.8 C 0.5 97.3, 72.4 91.2, 82.3 90.8 C 71.7 100.0, 64.1 72.6, 78.1 63.7 C 91.5 56.6, 78.2 19.6, 85.2 18.7 Z" fill="hsl(2, 82%, 55%)" fill-opacity="0.97" stroke="none" stroke-width="2.32"  transform="translate(90.3 23.2) rotate(145.3) scale(0.72 0.60)" />
<path d="M 42.7 90.9 C 35.4 82.3, 36.7 68.9, 45.3 62.5 C 27.2 69.5, 53.5 0.0, 68.2 6.8 C 52.8 2.3, 58.8 39.7, 44.4 32.6 C 26.2 23.1, 55.2 0.0, 41.8 2.0 C 47.9 9.2, 98.6 13.2, 98.5 26.3 C 97.8 7.1, 87.6 81.5, 93.9 91.4 C 82.8 83.9, 8.4 87.9, 14.5 77.1 C 3.2 72.0, 81.2 23.9, 92.5 28.6 C 75.9 39.4, 61.7 96.3, 63.8 81.9 Z" fill="none" fill-opacity="0.36" stroke="hsl(86, 72%, 68%)" stroke-width="3.50"  transform="translate(9.6 67.5) rotate(221.2) scale(1.26 1.00)" />
<path d="M 25.4 94.9 C 31.3 86.4, 67.8 68.6, 76.1 80.2 C 69.6 62.5, 7.2 41.1, 7.5 56.0 C 17.3 51.9, 2.6 0.0, 3.0 8.6 C 0.0 7.8, 33.6 44.5, 34.0 32.1 C 21.7 34.2, 43.3 8.9, 52.7 12.0 C 64.5 17.5, 100.0 82.3, 97.2 73.9 C 92.0 64.0, 50.6 52.1, 41.1 57.5 C 44.8 45.4, 57.1 51.7, 49.7 45.2 C 57.9 42.8, 37.5 0.0, 23.8 8.3 " fill="none" fill-opacity="0.83" stroke="hsl(183, 71%, 60%)" stroke-width="1.50"  transform="translate(93.9 95.0) rotate(0.3) scale(1.37 1.72)" />
<circle cx="60.5" cy="97.0" r="11.7" fill="url(#g1)" fill-opacity="0.99" filter="url(#f1)" transform="translate(41.7 62.5) rotate(134.9) scale(1.25 1.57)" />
<circle cx="77.5" cy="18.5" r="2.2" fill="hsl(40, 53%, 69%)" fill-opacity="0.95"  transform="translate(31.3 17.8) rotate(71.9) scale(1.99 0.58)" />
<path d="M 84.0 2.0 C 66.6 0.0, 53.6 13.9, 67.4 4.8 C 55.0 0.0, 44.3 26.1, 53.5 22.9 C 34.2 18.1, 29.5 62.8, 42.8 48.3 C 54.1 29.6, 46.1 61.2, 42.4 54.3 C 44.0 73.5, 16.0 90.2, 26.6 99.6 C 32.0 85.7, 42.2 40.6, 37.9 32.5 C 36.4 47.7, 50.0 18.8, 38.3 30.5 C 50.5 36.5, 34.2 76.2, 37.3 76.8 C 31.3 90.7, 6.0 53.7, 6.0 68.6 C 10.6 57.8, 85.7 99.9, 82.2 85.5 Z" fill="hsl(106, 75%, 59%)" fill-opacity="1.00" stroke="none" stroke-width="2.17"  transform="translate(26.6 84.0) rotate(277.4) scale(1.66 1.89)" />
<rect x="66.9" y="80.1" width="22.1" height="12.9" rx="1.9" fill="none" fill-opacity="0.77"   transform="translate(86.8 27.9) rotate(358.8) scale(1.90 0.97)" />
<rect x="33.9" y="44.7" width="38.4" height="12.4" rx="18.6" fill="hsl(242, 72%, 49%)" fill-opacity="0.98"   transform="translate(67.5 20.5) rotate(248.2) scale(1.67 1.84)" />
<path d="M 88.4 13.8 C 86.1 3.5, 30.2 55.4, 35.0 50.2 C 17.5 66.4, 10.5 6.5, 9.0 12.5 C 5.7 30.5, 16.6 80.0, 19.6 91.4 C 26.7 74.8, 36.8 93.8, 32.5 80.5 C 42.2 70.6, 63.8 64.7, 57.5 67.4 C 73.9 66.1, 80.0 15.5, 76.0 14.5 C 86.7 25.5, 48.5 91.7, 49.1 81.0 Z" fill="hsl(83, 65%, 44%)" fill-opacity="0.43" stroke="none" stroke-width="5.29"  transform="translate(16.2 58.8) rotate(235.4) scale(1.49 1.04)" />
<path d="M 39.4 87.4 C 59.3 81.1, 80.5 94.2, 73.9 94.6 C 79.2 100.0, 100.0 33.3, 99.2 35.7 C 98.1 21.8, 32.5 40.1, 41.3 54.7 C 39.5 36.5, 21.4 28.6, 14.3 33.0 C 33.3 39.2, 100.0 7.7, 90.2 21.5 C 83.4 17.5, 23.0 47.5, 17.3 47.9 C 0.0 55.1, 0.0 44.2, 3.1 32.4 C 0.0 16.9, 47.1 57.2, 42.7 59.2 Z" fill="hsl(322, 74%, 44%)" fill-opacity="0.91" stroke="none" stroke-width="1.10"  transform="translate(41.2 99.0) rotate(288.0) scale(1.39 1.90)" />
<rect x="19.6" y="4.4" width="25.1" height="39.1" rx="0" fill="none" fill-opacity="0.26" stroke="hsl(86, 72%, 68%)" stroke-width="4.6"  transform="translate(1.1 47.1) rotate(122.5) scale(1.50 1.82)" />
<rect x="31.6" y="16.1" width="40.9" height="12.6" rx="0" fill="hsl(144, 86%, 72%)" fill-opacity="0.67" stroke="hsl(144, 86%, 72%)" stroke-width="2.7"  transform="translate(49.0 25.8) rotate(56.1) scale(0.85 1.49)" />
<circle cx="19.9" cy="41.7" r="6.4" fill="hsl(83, 65%, 44%)" fill-opacity="0.59"  transform="translate(66.7 51.0) rotate(62.0) scale(1.83 1.42)" />
<path d="M 77.3 82.6 C 69.5 96.9, 57.3 64.6, 63.5 67.6 C 69.9 70.2, 37.6 89.6, 44.1 99.5 C 26.2 94.3, 20.6 51.1, 35.3 37.1 C 21.4 17.4, 55.2 22.9, 42.7 27.5 C 60.2 44.5, 100.0 7.1, 98.5 14.8 C 100.0 3.5, 76.5 84.5, 71.9 92.1 Z" fill="hsl(183, 71%, 60%)" fill-opacity="0.49" stroke="none" stroke-width="4.22"  transform="translate(21.4 7.6) rotate(321.9) scale(1.07 0.64)" />
<path d="M 30.4 86.2 C 41.9 91.8, 82.7 68.3, 68.2 78.9 C 74.5 83.8, 84.0 73.7, 79.4 71.3 C 69.6 64.9, 60.2 37.1, 55.1 50.3 C 66.0 50.7, 1.6 96.1, 9.8 82.4 C 16.7 79.6, 100.0 23.4, 97.6 12.4 C 100.0 6.9, 87.9 53.0, 99.9 57.7 C 100.0 60.5, 69.4 59.3, 77.0 68.7 C 89.5 70.0, 24.5 75.3, 27.6 82.1 C 8.9 75.7, 52.7 44.5, 59.5 52.7 Z" fill="hsl(83, 65%, 44%)" fill-opacity="0.98" stroke="none" stroke-width="3.64"  transform="translate(69.4 96.4) rotate(246.6) scale(1.26 1.80)" />
<circle cx="47.5" cy="69.1" r="5.2" fill="hsl(2, 82%, 55%)" fill-opacity="0.57"  transform="translate(81.7 3.9) rotate(156.7) scale(1.05 0.51)" />
<path d="M 82.3 53.5 C 99.7 69.6, 44.4 64.2, 46.6 53.5 C 40.5 42.9, 38.4 84.2, 27.7 87.5 C 16.3 78.4, 74.6 93.9, 85.0 80.3 C 65.1 74.4, 100.0 59.1, 99.1 61.1 C 100.0 79.3, 71.8 50.8, 76.0 51.4 C 68.8 53.9, 86.6 47.2, 81.8 50.3 C 64.5 64.6, 38.4 64.2, 51.3 54.4 C 38.4 40.7, 27.4 90.2, 34.8 94.6 C 24.0 100.0, 61.5 72.4, 48.8 82.2 " fill="hsl(183, 71%, 60%)" fill-opacity="0.92" stroke="none" stroke-width="4.10"  transform="translate(34.4 45.3) rotate(25.4) scale(1.42 0.88)" />
<path d="M 95.2 11.4 C 100.0 8.6, 9.8 0.0, 2.2 1.1 C 17.5 7.9, 31.1 54.3, 23.3 54.6 C 40.5 74.6, 13.6 89.1, 23.8 81.4 C 39.6 75.4, 54.1 51.5, 44.5 57.9 C 61.0 70.6, 24.6 64.6, 28.5 54.7 C 27.6 42.9, 81.8 55.5, 77.4 49.6 C 95.8 38.1, 94.0 79.4, 96.7 91.7 C 88.9 88.1, 93.8 42.5, 81.8 44.2 C 84.3 26.5, 66.2 14.7, 77.6 16.5 C 94.5 22.7, 79.4 53.7, 82.6 51.7 Z" fill="hsl(151, 70%, 62%)" fill-opacity="0.72" stroke="none" stroke-width="2.67"  transform="translate(37.7 40.8) rotate(68.2) scale(1.49 1.98)" />
<circle cx="76.2" cy="41.3" r="4.8" fill="hsl(183, 71%, 60%)" fill-opacity="0.93"   />
<rect x="21.8" y="69.8" width="35.7" height="25.6" rx="15.9" fill="none" fill-opacity="0.51"   transform="translate(68.9 96.2) rotate(163.3) scale(1.21 1.27)" />
<path d="M 82.2 78.9 C 81.4 95.8, 3.8 11.5, 17.1 5.1 C 12.7 2.4, 72.4 52.0, 77.6 61.5 C 82.5 75.5, 100.0 53.9, 93.2 40.6 C 84.9 47.1, 85.0 29.3, 85.3 16.5 C 95.5 33.6, 41.3 82.0, 52.7 75.4 C 44.9 78.4, 34.3 5.2, 45.5 5.6 Z" fill="hsl(242, 72%, 49%)" fill-opacity="0.42" stroke="none" stroke-width="4.89"  transform="translate(94.9 36.7) rotate(34.9) scale(1.37 1.09)" />
<path d="M 12.6 47.1 C 19.2 55.5, 45.1 77.8, 57.2 70.1 C 76.7 68.7, 58.4 62.0, 70.8 66.2 C 62.9 64.8, 19.7 79.9, 16.2 88.7 C 0.0 87.5, 64.6 84.6, 58.3 77.1 C 67.0 92.3, 3.0 86.7, 14.9 82.3 C 6.6 71.9, 47.1 59.0, 35.1 57.6 C 46.3 71.7, 95.8 6.0, 97.6 15.8 Z" fill="hsl(40, 53%, 69%)" fill-opacity="0.87" stroke="none" stroke-width="3.17"   />
<path d="M 91.9 88.2 C 85.5 79.2, 48.1 70.6, 50.7 56.5 C 31.2 42.1, 61.7 100.0, 62.9 94.7 C 80.9 100.0, 76.5 65.0, 74.8 70.9 C 93.2 85.4, 36.3 52.9, 44.6 45.2 C 29.3 44.2, 20.6 60.0, 19.9 67.9 C 27.3 61.1, 43.9 92.9, 45.6 98.2 C 42.9 97.6, 91.7 68.4, 98.2 81.6 C 89.8 95.3, 26.1 69.6, 27.1 63.2 Z" fill="none" fill-opacity="0.77" stroke="hsl(322, 74%, 44%)" stroke-width="2.07"  transform="translate(35.9 86.9) rotate(185.3) scale(0.76 1.29)" />
<path d="M 30.7 88.2 C 29.6 81.0, 86.7 86.5, 77.7 80.7 C 71.2 75.7, 81.0 66.9, 92.6 72.6 C 96.8 87.8, 45.5 64.0, 39.6 53.7 C 22.6 69.1, 22.3 57.4, 8.6 47.2 C 5.9 48.6, 3.4 25.2, 16.3 24.9 C 15.3 42.1, 35.7 0.0, 35.7 11.2 C 17.3 7.7, 38.6 15.9, 53.1 22.8 C 62.2 14.8, 61.8 49.3, 59.1 47.0 C 69.3 45.2, 6.3 21.1, 1.4 32.5 Z" fill="hsl(151, 70%, 62%)" fill-opacity="0.55" stroke="none" stroke-width="5.29"  transform="translate(15.1 23.1) rotate(282.4) scale(0.78 1.79)" />
<path d="M 24.4 51.3 C 21.8 67.1, 45.1 71.0, 48.0 62.4 C 48.5 75.6, 33.0 75.4, 32.8 69.4 C 51.4 70.7, 100.0 15.8, 97.5 15.1 C 100.0 27.6, 48.0 1.5, 58.0 14.5 C 74.8 15.9, 69.6 53.4, 73.7 56.4 C 91.8 74.9, 64.3 49.2, 74.2 36.3 Z" fill="hsl(290, 83%, 63%)" fill-opacity="0.93" stroke="none" stroke-width="2.13"  transform="translate(37.3 14.8) rotate(13.7) scale(1.70 0.84)" />
<rect x="26.9" y="54.3" width="43.8" height="39.2" rx="0" fill="hsl(83, 65%, 44%)" fill-opacity="0.42"   transform="translate(26.0 23.8) rotate(77.2) scale(1.08 1.13)" />
<circle cx="67.2" cy="83.4" r="7.6" fill="hsl(183, 71%, 60%)" fill-opacity="0.73"  transform="translate(54.4 73.9) rotate(197.9) scale(0.87 1.95)" />
<path d="M 0.6 53.2 C 0.0 68.3, 45.6 84.3, 57.7 93.8 C 77.2 95.3, 5.1 82.6, 19.8 96.8 C 12.4 91.9, 57.5 60.8, 61.5 67.1 C 43.4 80.9, 95.8 72.1, 93.2 77.6 C 77.5 79.4, 85.1 75.4, 72.6 81.6 C 59.4 75.1, 88.1 62.8, 91.7 49.1 C 92.8 39.1, 49.7 94.0, 44.9 93.5 C 49.9 98.3, 25.9 44.8, 32.3 37.0 C 24.2 46.0, 9.0 22.4, 17.4 33.0 C 31.3 32.5, 100.0 100.0, 93.8 96.3 Z" fill="hsl(2, 82%, 55%)" fill-opacity="0.86" stroke="none" stroke-width="2.46"   />
<rect x="45.5" y="23.5" width="46.2" height="22.7" rx="0" fill="hsl(106, 75%, 59%)" fill-opacity="0.52"    />
<rect x="32.3" y="12.4" width="49.9" height="18.7" rx="11.5" fill="none" fill-opacity="0.70" stroke="hsl(183, 71%, 60%)" stroke-width="2.0"  transform="translate(22.4 40.0) rotate(356.2) scale(1.63 1.82)" />
<circle cx="47.8" cy="2.2" r="1.9" fill="hsl(290, 83%, 63%)" fill-opacity="0.60"  transform="translate(0.9 30.8) rotate(48.0) scale(0.87 1.46)" />
<rect x="36.9" y="44.2" width="46.6" height="34.7" rx="0" fill="none" fill-opacity="0.24" stroke="hsl(106, 75%, 59%)" stroke-width="4.0" filter="url(#f1)" transform="translate(45.6 49.5) rotate(146.4) scale(1.16 1.99)" />
<path d="M 14.6 48.6 C 0.0 47.8, 0.0 80.1, 5.7 70.2 C 11.0 60.8, 37.6 94.4, 39.5 95.5 C 40.2 98.0, 42.2 31.9, 28.8 35.6 C 18.2 20.3, 49.6 16.0, 49.2 10.5 C 39.6 28.6, 64.7 28.0, 69.2 42.1 C 58.0 25.2, 77.5 65.4, 66.8 55.1 C 83.9 74.7, 58.0 70.8, 65.1 82.9 C 59.4 89.8, 58.0 82.1, 57.2 75.4 C 40.0 61.3, 63.0 38.4, 65.5 33.9 C 82.7 32.2, 14.4 52.5, 27.9 48.5 Z" fill="none" fill-opacity="0.78" stroke="hsl(106, 75%, 59%)" stroke-width="3.19" filter="url(#f1)" transform="translate(78.5 15.4) rotate(181.6) scale(1.99 1.90)" />
<path d="M 26.0 56.2 C 29.1 42.3, 42.4 44.2, 34.7 36.5 C 44.4 36.7, 54.8 36.3, 60.0 28.5 C 62.9 23.3, 83.5 66.9, 89.1 63.0 C 87.2 60.5, 49.3 75.2, 61.3 71.4 C 55.8 72.4, 64.7 38.5, 68.5 35.6 C 68.5 44.3, 93.0 0.0, 80.4 7.8 C 80.6 0.0, 26.5 98.2, 41.3 96.1 C 37.5 88.4, 57.8 36.2, 63.0 31.3 C 60.8 19.6, 58.1 63.4, 70.7 64.4 C 88.0 54.1, 0.0 16.1, 2.8 4.4 Z" fill="hsl(86, 72%, 68%)" fill-opacity="0.76" stroke="none" stroke-width="1.49"  transform="translate(43.8 82.0) rotate(305.7) scale(1.11 1.68)" />
<rect x="11.7" y="24.3" width="32.0" height="14.4" rx="13.7" fill="none" fill-opacity="0.89"   transform="translate(51.3 76.1) rotate(126.7) scale(1.70 2.00)" />
<g opacity="0.057">
<rect x="0" y="0" width="1" height="100" fill="black" />
<rect x="22" y="0" width="1" height="100" fill="black" />
<rect x="44" y="0" width="1" height="100" fill="black" />
<rect x="66" y="0" width="1" height="100" fill="black" />
<rect x="88" y="0" width="1" height="100" fill="black" />
<rect x="0" y="0" width="100" height="1" fill="black" />
<rect x="0" y="22" width="100" height="1" fill="black" />
<rect x="0" y="44" width="100" height="1" fill="black" />
<rect x="0" y="66" width="100" height="1" fill="black" />
<rect x="0" y="88" width="100" height="1" fill="black" />
</g>

</svg>
