<?xml version="1.0" encoding="UTF-8"?>
<svg xmlns="http://www.w3.org/2000/svg" width="100" height="100" viewBox="0 0 100 100">
<defs>
<linearGradient id="g0" x1="0%" y1="0%" x2="100%" y2="100%">
<stop offset="0.0%" stop-color="hsl(106, 75%, 59%)" />
<stop offset="33.3%" stop-color="hsl(183, 71%, 60%)" />
<stop offset="66.7%" stop-color="hsl(242, 72%, 49%)" />
<stop offset="100.0%" stop-color="hsl(322, 74%, 44%)" />
</linearGradient>
<linearGradient id="g1" x1="0%" y1="0%" x2="100%" y2="100%">
<stop offset="0.0%" stop-color="hsl(290, 83%, 63%)" />
<stop offset="33.3%" stop-color="hsl(2, 82%, 55%)" />
<stop offset="66.7%" stop-color="hsl(86, 72%, 68%)" />
<stop offset="100.0%" stop-color="hsl(83, 65%, 44%)" />
</linearGradient>
<linearGradient id="g2" x1="0%" y1="0%" x2="100%" y2="100%">
<stop offset="0.0%" stop-color="hsl(40, 53%, 69%)" />
<stop offset="33.3%" stop-color="hsl(104, 72%, 65%)" />
<stop offset="66.7%" stop-color="hsl(144, 86%, 72%)" />
<stop offset="100.0%" stop-color="hsl(151, 70%, 62%)" />
</linearGradient>
<filter id="f1" x="-20%" y="-20%" width="140%" height="140%">
  <feGaussianBlur stdDeviation="1.7299483548237886" />
</filter>

</defs>

<rect x="27.3" y="66.6" width="31.3" height="27.0" rx="18.8" fill="none" fill-opacity="0.86"    />
<path d="M 5.7 16.2 C 4.8 4.9, 93.2 83.9, 95.7 98.8 C 80.6 100.0, 34.4 96.0, 39.6 95.2 C 57.8 99.9, 69.0 56.5, 82.3 43.5 C 63.4 32.6, 100.0 59.3, 98.1 55.6 C 92.6 61.3, 28.4 9.9, 36.3 8.7 C 20.6 22.4, 32.1 15.1, 29.9 16.5 C 35.9 26.8, 85.9 72.2, 81.9 84.5 " fill="hsl(322, 74%, 44%)" fill-opacity="0.41" stroke="none" stroke-width="5.21"  transform="translate(0.6 62.6) rotate(238.7) scale(0.50 1.19)" />
<path d="M 96.4 30.0 C 100.0 44.3, 1.6 67.8, 1.9 57.5 C 10.3 77.4, 75.3 53.8, 71.9 43.3 C 62.8 34.6, 78.7 45.8, 89.6 41.2 C 74.9 28.2, 71.2 90.7, 60.4 88.9 C 76.4 85.0, 23.5 33.1, 28.4 25.3 C 33.3 38.8, 71.2 60.8, 76.3 65.0 C 88.4 67.6, 91.4 11.0, 97.6 6.2 C 83.4 0.0, 31.4 40.8, 44.6 53.0 C 36.3 65.9, 37.4 100.0, 40.5 91.7 C 48.9 100.0, 88.9 0.0, 90.4 10.3 Z" fill="hsl(290, 83%, 63%)" fill-opacity="0.35" stroke="none" stroke-width="5.16"  transform="translate(57.5 3.1) rotate(50.0) scale(1.89 0.87)" />
<path d="M 90.0 78.6 C 98.4 91.5, 77.6 2.1, 67.7 12.0 C 64.1 17.2, 33.0 100.0, 24.5 96.5 C 26.4 100.0, 71.4 17.4, 58.6 8.7 C 43.7 15.4, 76.2 56.1, 72.0 51.1 C 53.8 67.4, 100.0 26.3, 98.1 19.2 C 100.0 25.8, 69.4 50.0, 68.4 35.2 C 66.3 37.4, 54.1 18.4, 53.8 13.9 C 52.3 25.0, 67.9 100.0, 55.9 97.8 Z" fill="hsl(40, 53%, 69%)" fill-opacity="0.87" stroke="none" stroke-width="4.67"   />
<rect x="3.5" y="52.5" width="45.1" height="34.5" rx="5.3" fill="none" fill-opacity="0.24" stroke="hsl(151, 70%, 62%)" stroke-width="2.9" filter="url(#f1)" transform="translate(25.8 95.0) rotate(10.3) scale(1.74 0.94)" />
<circle cx="61.2" cy="0.7" r="0.3" fill="url(#g1)" fill-opacity="0.98"  transform="translate(35.1 64.4) rotate(94.6) scale(0.73 1.10)" />
<path d="M 51.7 47.5 C 55.8 41.1, 48.1 14.7, 48.0 10.2 C 35.9 2.0, 73.0 95.2, 74.1 96.8 C 70.4 96.7, 7.7 16.3, 12.9 22.1 C 20.6 27.4, 41.0 97.1, 54.6 87.1 C 40.2 68.7, 100.0 82.6, 95.7 96.1 C 100.0 91.0, 33.9 35.3, 29.0 38.6 C 24.5 41.9, 67.3 27.3, 57.9 18.2 C 63.9 11.0, 10.6 82.7, 8.9 74.8 C 0.0 66.7, 74.6 84.6, 79.7 99.4 C 78.4 88.9, 20.0 57.1, 32.0 57.2 " fill="hsl(86, 72%, 68%)" fill-opacity="0.27" stroke="none" stroke-width="2.61"  transform="translate(44.4 64.3) rotate(182.9) scale(0.98 0.60)" />
<path d="M 79.3 64.3 C 76.7 62.2, 25.0 25.2, 10.0 39.6 C 9.7 50.4, 69.2 69.2, 61.2 75.4 C 76.8 73.9, 70.5 36.4, 72.8 41.6 C 71.2 37.8, 100.0 69.5, 99.1 65.1 C 100.0 45.9, 37.7 13.7, 27.1 15.4 C 39.3 18.3, 63.5 73.0, 62.0 63.8 " fill="hsl(104, 72%, 65%)" fill-opacity="0.50" stroke="none" stroke-width="1.98"  transform="translate(11.4 92.5) rotate(328.0) scale(0.79 1.86)" />
<path d="M 66.3 64.5 C 63.9 71.8, 60.6 94.4, 59.7 94.7 C 78.5 95.6, 54.7 43.4, 50.6 31.3 C 33.9 18.7, 53.4 0.0, 39.0 4.0 C 52.8 0.0, 0.0 14.9, 5.3 0.9 C 22.5 16.9, 58.9 11.8, 68.7 10.2 C 55.4 19.1, 67.1 58.1, 69.4 70.5 C 82.6 66.8, 46.0 88.8, 47.5 75.5 C 63.9 56.2, 17.3 91.3, 9.8 83.5 C 26.2 98.3, 84.2 64.7, 98.0 70.0 Z" fill="none" fill-opacity="0.78" stroke="hsl(144, 86%, 72%)" stroke-width="2.73"   />
<path d="M 61.8 26.5 C 78.9 23.0, 22.3 83.0, 20.8 84.8 C 33.1 99.4, 32.9 81.4, 31.5 81.2 C 15.7 85.8, 41.7 43.6, 31.3 40.3 C 22.8 48.6, 68.9 27.0, 75.9 41.3 C 62.9 26.9, 42.0 36.2, 53.5 28.5 C 37.9 30.5, 96.5 43.4, 87.0 53.3 C 76.6 70.1, 63.3 71.0, 63.2 73.5 C 80.5 87.2, 34.2 35.2, 21.3 33.6 C 37.4 15.0, 25.0 76.8, 31.3 88.9 Z" fill="hsl(144, 86%, 72%)" fill-opacity="0.41" stroke="none" stroke-width="3.79" filter="url(#f1)"  />
<rect x="72.2" y="23.2" width="23.8" height="13.9" rx="0" fill="none" fill-opacity="0.33" stroke="hsl(106, 75%, 59%)" stroke-width="4.1"  transform="translate(28.3 94.0) rotate(338.7) scale(1.99 1.76)" />
<rect x="2.3" y="55.2" width="23.4" height="25.9" rx="0" fill="hsl(106, 75%, 59%)" fill-opacity="0.62"   transform="translate(4.7 64.5) rotate(295.2) scale(1.25 1.72)" />
<path d="M 67.6 52.1 C 80.8 56.5, 78.0 10.3, 70.8 24.7 C 59.7 9.0, 65.5 30.8, 55.6 42.2 C 53.7 56.8, 66.7 83.4, 78.2 78.2 C 67.1 76.8, 0.0 75.4, 1.5 79.3 C 2.7 94.3, 15.5 58.9, 0.8 64.3 C 6.8 65.1, 82.0 10.0, 73.0 22.8 C 64.6 37.9, 0.6 2.8, 2.1 15.5 C 2.4 5.1, 67.0 0.0, 81.1 5.5 Z" fill="hsl(104, 72%, 65%)" fill-opacity="0.34" stroke="none" stroke-width="1.25"   />
<rect x="58.2" y="48.9" width="29.8" height="32.5" rx="1.6" fill="hsl(290, 83%, 63%)" fill-opacity="0.97"  filter="url(#f1)" transform="translate(76.4 44.0) rotate(95.2) scale(1.50 1.74)" />
<path d="M 20.0 90.5 C 14.6 100.0, 64.4 54.5, 56.2 54.7 C 43.1 39.7, 65.1 88.0, 52.5 85.9 C 64.4 70.5, 33.0 74.5, 20.7 68.8 C 29.0 50.0, 0.0 22.0, 5.2 21.3 C 7.6 15.6, 74.2 93.1, 76.0 87.2 C 76.7 95.0, 26.3 92.9, 30.1 93.3 C 17.8 89.2, 83.3 0.0, 92.5 6.8 C 100.0 11.4, 26.1 66.1, 33.0 79.3 C 30.5 74.2, 11.6 100.0, 21.7 94.7 Z" fill="none" fill-opacity="0.46" stroke="hsl(104, 72%, 65%)" stroke-width="1.33"  transform="translate(67.1 47.0) rotate(245.6) scale(1.78 1.16)" />
<circle cx="32.3" cy="46.1" r="6.5" fill="url(#g1)" fill-opacity="0.51" filter="url(#f1)" transform="translate(66.1 72.8) rotate(316.5) scale(1.99 0.50)" />
<path d="M 38.7 70.6 C 23.0 79.0, 46.4 27.1, 59.1 15.0 C 41.3 0.3, 42.6 90.8, 52.5 99.2 C 53.4 100.0, 38.1 61.9, 41.6 69.7 C 46.8 86.6, 33.2 58.1, 24.8 49.2 C 36.6 37.3, 25.3 19.2, 38.0 18.6 C 19.5 6.1, 23.6 85.7, 35.7 76.0 Z" fill="hsl(183, 71%, 60%)" fill-opacity="0.97" stroke="none" stroke-width="2.09"  transform="translate(95.5 17.4) rotate(224.8) scale(0.78 1.17)" />
<circle cx="87.2" cy="50.9" r="9.4" fill="url(#g2)" fill-opacity="0.45" filter="url(#f1)" transform="translate(76.0 96.8) rotate(225.2) scale(0.93 0.73)" />
<path d="M 97.5 46.1 C 81.5 32.5, 62.9 47.3, 63.1 51.3 C 46.4 58.6, 7.4 55.6, 12.8 55.7 C 31.1 62.5, 0.0 40.7, 8.5 52.8 C 18.5 49.2, 38.6 67.9, 35.3 74.3 C 15.5 78.2, 91.7 60.7, 93.1 75.3 C 95.4 63.8, 34.3 0.0, 29.3 8.7 Z" fill="none" fill-opacity="0.53" stroke="hsl(83, 65%, 44%)" stroke-width="5.08"  transform="translate(60.4 59.7) rotate(230.8) scale(1.02 0.50)" />
<path d="M 9.6 36.9 C 25.5 24.9, 89.6 9.6, 88.0 1.9 C 100.0 0.0, 0.0 23.7, 2.5 19.4 C 5.9 22.9, 64.4 7.0, 77.3 4.5 C 92.6 0.0, 58.4 71.8, 58.9 67.3 C 56.8 51.3, 49.8 5.7, 61.4 2.0 C 69.9 0.0, 83.0 84.9, 89.5 86.5 C 100.0 82.9, 30.5 14.9, 35.0 0.8 C 30.2 5.7, 61.7 7.8, 49.1 16.4 Z" fill="none" fill-opacity="0.66" stroke="hsl(104, 72%, 65%)" stroke-width="1.86"  transform="translate(28.2 11.4) rotate(212.8) scale(0.79 1.19)" />
<path d="M 4.8 44.3 C 11.1 40.9, 30.5 100.0, 31.0 94.7 C 49.4 100.0, 78.9 92.7, 72.7 81.6 C 81.5 85.3, 87.9 49.7, 73.9 40.2 C 76.6 33.8, 70.3 18.6, 85.1 16.4 C 76.0 10.8, 61.3 96.5, 73.0 88.3 C 63.5 100.0, 98.4 89.8, 95.1 88.4 C 95.0 70.5, 45.5 38.0, 38.7 25.9 C 47.7 24.4, 62.2 58.5, 66.3 62.9 C 75.7 50.8, 69.9 40.3, 75.6 44.4 Z" fill="hsl(290, 83%, 63%)" fill-opacity="0.65" stroke="none" stroke-width="4.90"  transform="translate(39.7 35.4) rotate(207.0) scale(0.83 1.46)" />
<path d="M 67.3 5.0 C 59.3 20.5, 88.0 29.9, 82.1 38.8 C 66.0 22.9, 73.9 98.2, 83.2 89.8 C 81.4 89.0, 74.5 38.0, 89.1 42.5 C 100.0 47.2, 55.4 70.9, 54.2 67.5 C 71.7 48.9, 40.6 52.4, 42.9 61.6 C 45.1 52.6, 14.7 73.6, 16.0 60.3 C 23.7 62.1, 9.1 19.5, 10.9 21.1 C 0.0 33.7, 63.7 59.3, 53.2 72.1 C 41.6 56.0, 0.6 56.1, 6.9 54.9 C 18.5 57.7, 0.0 44.1, 0.4 41.3 Z" fill="hsl(106, 75%, 59%)" fill-opacity="0.84" stroke="none" stroke-width="1.16"  transform="translate(26.8 16.6) rotate(281.8) scale(0.55 1.83)" />
<path d="M 40.2 18.7 C 39.0 19.8, 59.8 82.7, 66.1 75.6 C 50.2 88.5, 76.2 63.3, 80.6 69.2 C 98.9 62.6, 62.2 21.4, 76.4 14.2 C 63.1 0.0, 100.0 35.6, 98.8 41.4 C 100.0 36.8, 72.0 1.3, 72.3 12.6 C 65.1 26.5, 72.2 76.8, 65.2 81.4 Z" fill="hsl(322, 74%, 44%)" fill-opacity="0.30" stroke="none" stroke-width="4.52"   />
<circle cx="30.6" cy="23.9" r="3.6" fill="url(#g0)" fill-opacity="0.42"  transform="translate(60.2 61.4) rotate(88.4) scale(0.76 1.22)" />
<path d="M 43.7 44.0 C 25.6 25.8, 0.0 83.6, 12.9 69.0 C 11.2 64.7, 10.9 86.2, 16.5 82.9 C 34.5 73.9, 15.6 61.8, 20.0 72.6 C 33.9 68.0, 84.4 62.7, 72.6 64.5 C 78.7 51.5, 55.3 41.7, 40.9 42.0 C 25.7 23.3, 33.3 59.3, 30.8 62.7 Z" fill="none" fill-opacity="0.60" stroke="hsl(40, 53%, 69%)" stroke-width="4.53"   />
<path d="M 13.4 0.1 C 24.1 15.1, 88.2 14.0, 96.0 0.3 C 92.2 0.0, 24.0 79.9, 14.2 70.8 C 26.8 69.8, 51.1 69.1, 55.1 69.0 C 69.2 55.0, 72.1 35.8, 73.1 30.9 C 90.9 24.6, 14.8 81.6, 0.7 91.1 C 4.0 88.6, 37.0 62.9, 49.6 63.9 C 43.0 62.5, 84.4 55.9, 69.6 43.2 C 81.6 34.6, 0.0 59.5, 1.2 71.2 C 0.0 71.5, 13.6 35.9, 9.0 22.3 C 18.9 5.3, 94.9 20.9, 86.4 35.3 Z" fill="hsl(290, 83%, 63%)" fill-opacity="0.81" stroke="none" stroke-width="3.77" filter="url(#f1)" transform="translate(82.4 21.3) rotate(321.1) scale(1.83 0.78)" />
<rect x="55.9" y="57.1" width="22.6" height="38.5" rx="7.2" fill="none" fill-opacity="0.93"   transform="translate(43.8 99.5) rotate(186.4) scale(1.75 1.80)" />
<rect x="25.1" y="6.6" width="28.1" height="11.2" rx="13.6" fill="none" fill-opacity="0.77"    />
<path d="M 39.7 58.9 C 50.0 64.4, 79.9 66.0, 81.0 69.6 C 66.0 77.9, 54.4 84.8, 42.6 83.4 C 43.0 73.7, 30.0 37.8, 34.5 45.7 C 26.8 63.6, 90.3 82.6, 95.7 71.5 C 100.0 62.4, 62.7 37.8, 63.1 41.6 C 60.3 27.3, 25.5 43.1, 33.8 53.1 C 46.3 61.8, 28.1 27.4, 32.9 36.6 C 47.4 52.4, 0.0 4.8, 2.6 1.5 " fill="none" fill-opacity="0.49" stroke="hsl(2, 82%, 55%)" stroke-width="2.46"   />
<circle cx="3.4" cy="59.1" r="8.6" fill="hsl(104, 72%, 65%)" fill-opacity="0.51"  transform="translate(67.3 45.1) rotate(47.7) scale(1.29 1.83)" />
<rect x="68.3" y="20.1" width="30.9" height="39.6" rx="17.9" fill="none" fill-opacity="0.78"    />
<path d="M 33.3 16.2 C 24.9 29.1, 23.2 17.5, 37.5 13.9 C 30.8 5.9, 93.8 49.2, 85.2 38.6 C 70.2 48.6, 52.7 33.7, 64.9 23.3 C 74.2 42.1, 61.9 26.8, 65.9 20.7 C 50.9 32.7, 82.7 80.1, 72.4 69.6 C 54.5 52.1, 92.4 87.9, 80.9 83.9 C 81.7 89.5, 46.6 82.7, 38.1 76.2 C 45.4 61.3, 78.8 56.2, 71.4 46.0 Z" fill="none" fill-opacity="0.51" stroke="hsl(290, 83%, 63%)" stroke-width="3.88" filter="url(#f1)" transform="translate(63.4 87.4) rotate(239.5) scale(1.58 1.38)" />
<path d="M 70.8 33.2 C 75.0 18.1, 80.9 83.0, 88.1 95.6 C 74.4 90.8, 70.3 18.9, 76.9 13.7 C 59.5 29.7, 15.4 17.4, 16.2 19.8 C 8.6 4.7, 66.3 15.3, 72.1 20.8 C 85.4 33.8, 25.1 35.8, 38.0 24.9 C 40.9 17.4, 8.7 89.4, 1.0 86.7 C 0.0 87.8, 51.9 78.4, 42.9 81.4 C 50.8 82.6, 16.6 33.8, 27.6 38.5 C 10.0 25.6, 31.7 25.2, 30.2 25.0 Z" fill="hsl(2, 82%, 55%)" fill-opacity="0.38" stroke="none" stroke-width="4.89"   />
<rect x="37.4" y="84.9" width="36.0" height="11.3" rx="0" fill="none" fill-opacity="0.44"   transform="translate(33.2 74.9) rotate(69.1) scale(1.90 0.94)" />
<path d="M 45.4 2.4 C 63.5 18.7, 38.2 46.8, 42.6 41.9 C 23.3 45.4, 59.2 48.5, 56.7 55.4 C 61.3 47.5, 49.2 30.5, 50.8 31.9 C 68.7 27.6, 75.4 30.5, 73.5 18.2 C 79.7 7.6, 30.5 68.4, 37.2 76.8 C 50.9 57.2, 16.1 32.2, 26.6 21.4 C 11.3 41.2, 26.5 16.5, 36.7 13.7 Z" fill="hsl(40, 53%, 69%)" fill-opacity="0.72" stroke="none" stroke-width="1.28"  transform="translate(66.8 75.1) rotate(223.1) scale(1.46 1.13)" />
<path d="M 43.1 90.4 C 56.6 85.5, 9.6 53.3, 14.5 53.9 C 21.2 55.1, 85.7 66.3, 85.3 66.1 C 100.0 76.9, 21.4 51.5, 13.7 38.3 C 0.0 37.7, 76.1 16.6, 72.1 11.9 C 89.7 0.0, 47.1 100.0, 56.0 99.8 C 44.2 90.7, 13.5 3.6, 17.2 2.7 C 24.9 7.6, 0.0 18.4, 8.4 24.4 Z" fill="hsl(106, 75%, 59%)" fill-opacity="0.36" stroke="none" stroke-width="1.57"   />
<path d="M 55.1 1.4 C 64.9 0.0, 16.8 35.5, 20.0 38.8 C 7.5 43.9, 38.6 70.0, 43.7 57.8 C 46.5 46.9, 37.4 96.4, 24.8 83.2 C 24.5 83.7, 47.2 47.8, 44.0 58.3 C 61.6 61.7, 85.4 55.4, 96.0 45.4 C 100.0 26.3, 64.5 12.1, 59.1 16.9 C 73.9 10.4, 81.0 71.8, 81.1 65.8 C 82.1 64.7, 26.4 26.1, 33.5 15.2 C 26.8 2.9, 61.6 19.1, 65.7 15.8 Z" fill="none" fill-opacity="0.44" stroke="hsl(290, 83%, 63%)" stroke-width="1.65" filter="url(#f1)" transform="translate(88.9 35.4) rotate(359.1) scale(1.53 1.60)" />
<path d="M 40.9 67.3 C 21.1 50.5, 67.6 55.1, 58.0 48.9 C 59.5 61.9, 85.8 38.9, 79.0 29.1 C 75.3 19.0, 53.8 23.5, 53.3 31.3 C 40.5 35.6, 13.3 58.9, 9.8 72.9 C 19.8 56.1, 59.6 94.6, 59.7 93.9 C 77.1 86.1, 98.5 72.9, 84.7 65.9 Z" fill="hsl(144, 86%, 72%)" fill-opacity="0.89" stroke="none" stroke-width="2.70"   />
<path d="M 26.2 6.0 C 9.4 19.8, 33.0 51.7, 35.3 53.5 C 20.2 38.6, 61.2 86.1, 57.5 98.0 C 66.5 81.1, 50.1 0.0, 63.6 2.5 C 50.0 19.1, 94.1 59.6, 83.5 63.9 C 99.1 47.4, 75.1 80.9, 66.0 87.0 C 80.5 100.0, 0.3 36.6, 5.3 22.8 C 21.8 31.5, 25.9 73.3, 38.1 82.3 C 31.0 91.0, 55.5 63.6, 53.3 57.6 Z" fill="hsl(183, 71%, 60%)" fill-opacity="0.74" stroke="none" stroke-width="2.25"  transform="translate(33.5 45.9) rotate(309.7) scale(1.96 1.56)" />
<path d="M 18.8 17.8 C 30.9 10.5, 19.4 84.5, 22.1 75.0 C 6.5 85.5, 83.8 77.9, 89.2 88.3 C 87.2 100.0, 81.8 40.2, 74.5 46.4 C 56.9 37.7, 0.0 55.8, 0.5 48.3 C 0.0 47.5, 100.0 75.7, 93.0 62.8 C 98.7 48.5, 7.2 26.9, 19.2 37.6 C 18.2 24.6, 47.6 85.2, 45.2 81.1 C 55.0 79.7, 79.5 45.0, 76.8 43.5 C 72.0 51.3, 79.6 63.8, 77.5 54.9 Z" fill="none" fill-opacity="0.96" stroke="hsl(144, 86%, 72%)" stroke-width="5.28"  transform="translate(58.9 50.6) rotate(3.1) scale(1.44 1.69)" />
<rect x="55.8" y="56.8" width="24.4" height="14.7" rx="0" fill="none" fill-opacity="0.69" stroke="hsl(290, 83%, 63%)" stroke-width="4.6"   />
<path d="M 44.7 8.3 C 44.2 0.0, 85.9 38.8, 78.0 38.5 C 69.0 35.3, 50.2 100.0, 46.2 93.5 C 30.2 92.5, 23.2 64.8, 21.1 77.4 C 36.9 88.1, 66.6 13.8, 80.5 15.9 C 79.2 15.5, 48.7 54.7, 53.5 49.3 C 58.0 31.4, 69.6 26.2, 65.6 19.5 Z" fill="none" fill-opacity="0.56" stroke="hsl(290, 83%, 63%)" stroke-width="3.79"  transform="translate(51.0 62.1) rotate(91.4) scale(0.98 1.06)" />
<rect x="6.9" y="27.9" width="29.1" height="17.6" rx="0" fill="hsl(40, 53%, 69%)" fill-opacity="0.77" stroke="hsl(104, 72%, 65%)" stroke-width="4.6"  transform="translate(21.1 25.1) rotate(179.6) scale(1.42 1.54)" />
<path d="M 63.1 67.8 C 80.6 60.5, 80.2 31.3, 69.6 24.1 C 81.5 14.8, 20.8 32.6, 21.5 44.1 C 36.1 60.2, 39.1 91.0, 28.9 88.3 C 37.4 84.0, 99.2 50.8, 84.2 54.9 C 100.0 36.9, 47.0 28.1, 59.9 16.7 C 50.5 35.6, 93.5 27.8, 84.4 27.3 C 100.0 10.1, 72.2 63.7, 74.7 57.8 Z" fill="hsl(290, 83%, 63%)" fill-opacity="0.86" stroke="none" stroke-width="1.29"  transform="translate(10.6 92.1) rotate(14.4) scale(0.72 1.10)" />
<path d="M 28.0 13.9 C 14.2 22.5, 63.0 18.1, 51.9 6.4 C 65.0 0.6, 33.6 59.9, 45.8 66.8 C 29.6 78.9, 92.8 62.0, 78.1 56.8 C 76.6 62.2, 0.0 100.0, 6.2 93.9 C 0.0 84.3, 55.0 53.6, 43.4 40.8 C 30.0 41.5, 81.2 32.9, 91.3 34.1 Z" fill="none" fill-opacity="0.79" stroke="hsl(106, 75%, 59%)" stroke-width="1.05"  transform="translate(63.2 16.3) rotate(293.2) scale(1.01 1.95)" />
<rect x="47.9" y="15.9" width="33.7" height="29.9" rx="0" fill="hsl(290, 83%, 63%)" fill-opacity="0.39"   transform="translate(28.3 70.9) rotate(61.0) scale(1.16 0.73)" />
<rect x="39.5" y="23.1" width="36.0" height="16.9" rx="1.1" fill="hsl(144, 86%, 72%)" fill-opacity="0.95" stroke="hsl(40, 53%, 69%)" stroke-width="4.3"  transform="translate(6.3 45.8) rotate(121.6) scale(1.33 0.91)" />
<circle cx="96.8" cy="17.6" r="1.3" fill="hsl(144, 86%, 72%)" fill-opacity="0.73"  transform="translate(83.4 16.5) rotate(220.4) scale(1.48 1.83)" />
<circle cx="2.7" cy="88.7" r="5.9" fill="url(#g2)" fill-opacity="0.52"  transform="translate(77.3 22.1) rotate(261.9) scale(0.67 1.02)" />
<path d="M 81.1 76.4 C 62.0 83.1, 40.6 38.4, 28.0 37.2 C 9.7 54.3, 37.0 36.4, 26.8 42.3 C 7.3 56.1, 14.6 64.4, 11.6 70.5 C 28.9 72.6, 12.4 59.9, 3.5 64.0 C 0.0 46.9, 77.4 33.8, 76.5 21.4 C 57.1 38.8, 40.5 72.8, 40.5 81.3 C 38.5 75.9, 60.1 60.0, 62.0 67.9 C 80.2 75.1, 85.7 79.7, 78.7 78.7 C 83.8 87.6, 60.5 3.6, 64.1 10.3 C 67.8 0.0, 48.0 0.5, 43.6 2.7 Z" fill="hsl(2, 82%, 55%)" fill-opacity="0.53" stroke="none" stroke-width="2.85"   />
<rect x="12.7" y="50.1" width="38.7" height="33.6" rx="16.5" fill="none" fill-opacity="0.46"   transform="translate(76.0 7.2) rotate(44.0) scale(0.82 1.04)" />
<path d="M 66.0 28.6 C 81.2 37.7, 29.5 52.2, 29.2 55.8 C 40.8 64.2, 100.0 24.4, 94.8 34.8 C 100.0 43.7, 29.8 91.4, 15.4 98.1 C 8.0 86.9, 66.3 21.3, 54.3 34.3 C 68.5 25.0, 31.8 17.9, 18.5 4.4 C 21.0 0.0, 0.7 83.5, 8.1 79.8 C 22.8 71.9, 100.0 34.9, 90.5 22.5 C 90.8 33.3, 0.0 40.3, 4.8 49.1 C 2.7 38.1, 23.2 36.3, 15.7 27.9 C 0.0 27.8, 47.6 100.0, 46.0 99.6 Z" fill="hsl(86, 72%, 68%)" fill-opacity="0.51" stroke="none" stroke-width="2.78"  transform="translate(74.3 23.5) rotate(303.3) scale(0.92 1.27)" />
<path d="M 20.5 5.2 C 32.5 0.0, 62.1 86.6, 61.3 93.1 C 73.6 87.0, 60.6 87.8, 58.8 81.7 C 49.5 74.5, 12.5 29.9, 10.0 30.7 C 0.0 40.9, 88.8 81.9, 85.9 84.9 C 95.4 97.9, 11.8 86.5, 18.4 96.2 C 8.3 92.9, 79.7 39.1, 71.7 52.8 Z" fill="hsl(40, 53%, 69%)" fill-opacity="0.32" stroke="none" stroke-width="2.90"  transform="translate(27.7 19.2) rotate(317.0) scale(1.15 1.95)" />
<path d="M 40.4 34.4 C 55.4 25.1, 72.7 39.3, 78.9 43.4 C 88.2 24.7, 26.8 86.9, 15.8 81.1 C 28.9 95.8, 56.1 61.2, 46.8 59.5 C 54.3 78.2, 29.3 80.7, 27.8 80.8 C 37.7 81.9, 2.5 41.4, 9.7 50.0 C 6.9 48.1, 61.6 64.8, 51.2 71.6 C 57.1 84.6, 47.4 41.9, 48.8 41.8 Z" fill="none" fill-opacity="0.75" stroke="hsl(40, 53%, 69%)" stroke-width="5.11"  transform="translate(88.0 48.4) rotate(82.7) scale(1.33 1.75)" />
<rect x="4.6" y="45.6" width="26.8" height="34.4" rx="0" fill="hsl(242, 72%, 49%)" fill-opacity="0.83"    />
<rect x="58.6" y="54.0" width="41.3" height="35.3" rx="12.5" fill="hsl(40, 53%, 69%)" fill-opacity="0.83"   transform="translate(76.1 13.1) rotate(60.1) scale(1.90 1.24)" />
<path d="M 17.8 6.5 C 22.3 0.0, 100.0 43.2, 99.0 49.5 C 100.0 43.6, 50.8 45.5, 39.4 36.4 C 42.9 19.1, 50.9 97.1, 57.0 83.8 C 62.1 71.5, 32.8 48.3, 33.5 61.9 C 37.5 52.5, 38.5 77.5, 49.6 68.9 C 46.8 74.8, 91.5 12.1, 98.4 4.7 C 100.0 20.8, 70.5 20.3, 81.8 25.1 C 63.4 16.1, 72.8 80.2, 86.5 75.0 C 77.7 81.1, 63.6 65.7, 66.6 68.2 Z" fill="hsl(104, 72%, 65%)" fill-opacity="0.59" stroke="none" stroke-width="1.41"  transform="translate(56.7 26.6) rotate(47.1) scale(0.76 1.43)" />
<path d="M 12.7 28.9 C 26.8 44.3, 82.3 32.3, 97.2 20.8 C 100.0 6.7, 100.0 65.6, 97.0 65.3 C 97.8 51.5, 24.9 80.0, 38.1 67.5 C 47.3 77.8, 60.5 16.0, 66.8 15.3 C 72.3 5.1, 100.0 25.1, 97.8 23.6 C 91.2 16.1, 45.7 51.4, 53.7 37.8 C 34.9 49.8, 51.4 65.8, 43.4 76.4 Z" fill="hsl(2, 82%, 55%)" fill-opacity="0.87" stroke="none" stroke-width="2.08"  transform="translate(34.3 84.8) rotate(301.5) scale(1.71 0.85)" />
<path d="M 85.0 20.8 C 90.6 27.8, 6.9 42.4, 15.1 38.7 C 20.2 26.6, 61.1 90.6, 50.8 76.9 C 34.6 71.2, 71.3 24.7, 80.0 25.7 C 91.0 23.4, 28.7 55.9, 35.9 57.1 C 42.0 42.8, 37.5 35.3, 45.0 25.9 C 50.6 32.8, 100.0 26.3, 98.8 27.7 C 100.0 15.9, 0.4 89.1, 3.1 76.7 C 0.0 85.7, 0.0 50.0, 5.7 61.2 C 13.5 79.0, 30.7 79.5, 28.4 73.3 Z" fill="hsl(40, 53%, 69%)" fill-opacity="0.30" stroke="none" stroke-width="2.80"  transform="translate(11.0 33.6) rotate(73.2) scale(1.64 1.84)" />
<path d="M 74.1 4.5 C 63.8 0.0, 53.0 88.4, 54.4 99.6 C 56.2 100.0, 72.5 100.0, 59.1 90.9 C 67.8 100.0, 52.9 1.1, 61.3 1.1 C 81.2 17.4, 66.8 59.8, 67.0 53.6 C 84.7 70.9, 94.8 84.0, 89.7 95.3 C 73.0 82.8, 60.8 17.2, 59.3 4.7 C 47.9 0.0, 72.7 99.1, 81.2 92.5 C 88.6 92.8, 73.2 82.4, 66.3 76.3 C 68.1 60.6, 13.0 74.3, 8.2 86.5 C 0.0 79.6, 32.8 38.9, 40.3 37.3 Z" fill="hsl(242, 72%, 49%)" fill-opacity="0.53" stroke="none" stroke-width="3.21"  transform="translate(10.2 66.3) rotate(51.2) scale(0.54 0.67)" />
<path d="M 47.5 97.4 C 50.0 80.1, 86.6 78.3, 80.1 83.5 C 86.5 97.5, 27.6 69.5, 25.9 56.2 C 8.6 64.1, 43.5 100.0, 40.1 97.2 C 37.2 92.5, 15.0 10.4, 16.0 9.8 C 4.7 0.4, 80.0 90.0, 73.9 90.5 C 57.1 73.0, 27.6 63.6, 28.1 65.0 C 12.1 64.8, 32.7 87.1, 36.4 90.8 C 37.9 88.1, 100.0 44.8, 88.9 53.5 C 88.0 69.4, 38.5 70.8, 28.7 65.8 Z" fill="none" fill-opacity="0.72" stroke="hsl(104, 72%, 65%)" stroke-width="1.62" filter="url(#f1)" transform="translate(30.4 61.2) rotate(73.3) scale(0.65 1.87)" />
<path d="M 27.4 75.8 C 12.5 87.8, 48.2 19.4, 47.7 22.1 C 32.7 11.8, 63.9 34.9, 74.5 25.9 C 61.1 23.0, 0.0 0.0, 1.5 1.8 C 8.6 0.0, 0.0 100.0, 8.2 92.8 C 22.3 97.7, 60.3 57.3, 56.2 65.9 C 39.2 76.9, 73.0 35.3, 66.8 33.7 C 72.2 35.0, 44.6 73.5, 41.3 64.7 C 55.9 70.4, 45.2 34.6, 53.5 47.7 Z" fill="hsl(144, 86%, 72%)" fill-opacity="0.77" stroke="none" stroke-width="2.01"  transform="translate(58.7 23.9) rotate(240.5) scale(1.78 0.65)" />
<path d="M 92.9 7.1 C 100.0 0.0, 92.4 17.1, 88.1 4.6 C 100.0 0.0, 15.1 68.8, 29.6 72.8 C 11.2 62.5, 96.7 41.9, 82.9 29.5 C 100.0 40.5, 40.4 31.6, 51.5 31.6 C 69.7 49.1, 47.8 6.7, 55.3 7.8 C 46.0 0.0, 18.5 57.9, 26.8 61.9 Z" fill="hsl(86, 72%, 68%)" fill-opacity="0.45" stroke="none" stroke-width="1.28"  transform="translate(42.3 32.4) rotate(291.4) scale(1.11 1.78)" />
<circle cx="57.0" cy="2.3" r="9.2" fill="hsl(290, 83%, 63%)" fill-opacity="0.93"  transform="translate(64.7 25.8) rotate(331.0) scale(0.82 0.65)" />
<circle cx="10.1" cy="13.3" r="1.5" fill="hsl(144, 86%, 72%)" fill-opacity="0.42"  transform="translate(11.3 45.8) rotate(234.5) scale(1.02 1.40)" />
<path d="M 37.4 3.2 C 21.2 0.0, 100.0 34.9, 89.5 23.2 C 94.8 14.0, 75.6 53.1, 76.8 46.1 C 73.0 48.4, 0.0 100.0, 0.9 93.2 C 0.0 100.0, 100.0 83.0, 99.5 68.7 C 93.6 69.2, 0.0 20.6, 1.1 7.3 C 10.1 7.6, 86.6 78.2, 74.5 64.1 C 82.3 59.0, 2.7 0.0, 10.4 6.3 Z" fill="hsl(183, 71%, 60%)" fill-opacity="0.82" stroke="none" stroke-width="2.84"   />
<path d="M 10.8 77.3 C 18.1 72.2, 60.4 15.4, 57.0 13.5 C 73.9 6.8, 74.3 3.7, 82.6 17.4 C 95.0 15.9, 100.0 17.0, 98.9 23.0 C 100.0 42.5, 82.8 23.1, 83.4 30.9 C 100.0 47.4, 51.0 25.3, 37.3 22.6 C 25.1 14.3, 23.0 36.3, 29.2 35.3 C 22.3 46.8, 36.4 59.1, 39.3 59.5 C 35.5 43.7, 89.5 49.6, 85.9 47.6 C 81.5 41.3, 78.1 10.7, 82.4 16.0 C 90.0 34.3, 66.1 83.6, 59.6 81.7 Z" fill="none" fill-opacity="0.39" stroke="hsl(86, 72%, 68%)" stroke-width="4.80"  transform="translate(4.3 48.3) rotate(307.9) scale(1.24 1.13)" />
<path d="M 77.0 26.3 C 59.3 41.0, 100.0 56.5, 89.3 58.5 C 72.0 61.1, 34.3 69.5, 20.9 68.8 C 39.3 66.6, 93.2 0.0, 80.6 6.2 C 67.4 16.9, 74.6 100.0, 76.7 97.8 C 60.0 100.0, 11.2 59.4, 8.6 51.9 C 6.1 57.9, 63.0 100.0, 56.5 96.3 C 72.7 100.0, 88.7 59.1, 80.5 68.3 C 93.5 56.8, 40.2 0.0, 32.0 6.9 C 28.9 18.6, 42.2 24.5, 50.3 36.7 C 35.1 39.7, 37.2 61.0, 51.0 53.6 Z" fill="hsl(104, 72%, 65%)" fill-opacity="0.34" stroke="none" stroke-width="4.19"  transform="translate(33.6 91.5) rotate(269.2) scale(0.70 0.86)" />
<path d="M 44.9 12.6 C 28.0 32.0, 20.0 15.6, 21.5 20.5 C 11.6 12.5, 3.2 81.4, 3.1 82.0 C 0.0 100.0, 16.1 73.7, 1.4 84.1 C 0.0 94.0, 70.8 65.1, 67.4 80.0 C 65.3 69.3, 85.7 11.2, 88.8 23.3 C 100.0 5.5, 28.3 62.6, 20.1 51.2 C 37.3 35.7, 60.9 5.0, 53.0 12.9 C 42.8 9.1, 0.0 17.0, 0.9 27.8 Z" fill="hsl(40, 53%, 69%)" fill-opacity="0.70" stroke="none" stroke-width="4.61"  transform="translate(8.4 65.3) rotate(37.9) scale(1.76 1.46)" />
<path d="M 95.7 7.4 C 100.0 5.5, 31.0 65.5, 17.4 66.4 C 18.6 77.6, 72.7 24.3, 67.2 37.1 C 55.6 53.6, 1.9 6.0, 11.9 19.4 C 2.1 31.4, 84.4 53.8, 91.5 55.7 C 99.6 69.4, 0.0 64.8, 4.8 72.0 C 0.0 87.4, 47.9 20.4, 40.3 16.3 C 57.3 13.1, 33.3 48.8, 28.0 50.9 C 34.0 53.0, 41.3 100.0, 35.6 92.6 C 36.4 100.0, 60.1 19.0, 47.7 23.4 C 43.0 15.5, 89.1 14.5, 77.9 6.9 Z" fill="hsl(40, 53%, 69%)" fill-opacity="0.42" stroke="none" stroke-width="4.66"  transform="translate(30.4 95.9) rotate(51.0) scale(1.31 0.75)" />
<path d="M 62.0 44.6 C 57.2 33.6, 26.6 84.7, 30.8 96.7 C 41.7 100.0, 38.9 100.0, 25.0 97.6 C 14.6 82.5, 89.4 2.0, 78.6 14.9 C 84.5 17.0, 89.9 78.9, 89.8 64.3 C 80.4 74.4, 13.2 44.7, 0.5 45.5 C 0.0 62.3, 36.4 25.1, 37.8 27.4 C 31.1 28.7, 1.0 35.3, 2.9 50.1 Z" fill="hsl(104, 72%, 65%)" fill-opacity="0.31" stroke="none" stroke-width="4.93"  transform="translate(37.9 80.5) rotate(183.6) scale(1.31 1.38)" />
<path d="M 54.0 80.8 C 67.2 83.0, 20.5 86.2, 21.5 82.1 C 10.7 89.6, 22.2 25.5, 21.2 37.3 C 7.9 47.9, 84.5 97.1, 77.5 99.9 C 83.0 89.9, 0.0 63.5, 2.9 76.4 C 0.0 64.3, 54.2 77.2, 63.4 87.9 C 55.9 87.7, 72.4 11.9, 58.0 23.0 C 69.6 12.9, 37.9 99.5, 40.6 90.2 C 53.4 86.9, 38.2 21.7, 28.6 19.3 C 26.6 30.4, 13.0 30.1, 22.0 19.1 Z" fill="hsl(144, 86%, 72%)" fill-opacity="0.63" stroke="none" stroke-width="1.23"  transform="translate(50.9 91.9) rotate(17.3) scale(0.96 1.25)" />
<path d="M 23.2 63.8 C 31.4 57.6, 16.9 51.9, 6.7 40.7 C 8.4 38.5, 69.0 42.9, 64.0 41.5 C 78.7 59.2, 10.7 89.3, 22.6 76.0 C 22.5 81.3, 29.4 39.6, 18.7 40.5 C 3.1 21.4, 46.2 49.8, 33.2 61.2 C 44.7 53.8, 56.7 38.6, 49.0 29.2 C 38.6 47.4, 63.4 47.2, 61.5 32.4 C 77.3 31.3, 64.2 75.6, 71.0 81.0 C 60.4 99.4, 61.8 28.9, 67.6 35.4 Z" fill="none" fill-opacity="0.96" stroke="hsl(106, 75%, 59%)" stroke-width="3.50" filter="url(#f1)" transform="translate(99.2 83.9) rotate(81.9) scale(0.54 0.51)" />
<path d="M 0.8 66.1 C 0.0 70.0, 21.6 75.2, 33.0 79.2 C 43.3 79.4, 12.1 40.7, 12.0 38.6 C 3.7 44.0, 47.7 18.9, 59.9 10.1 C 49.8 10.0, 52.3 64.3, 65.1 78.8 C 49.4 65.5, 93.6 38.3, 88.7 41.9 C 78.8 26.3, 16.4 77.3, 26.1 83.2 C 20.8 100.0, 28.3 9.4, 27.3 23.6 C 14.2 15.9, 2.8 100.0, 11.8 97.0 C 20.4 80.9, 4.6 59.5, 8.1 68.9 C 3.4 51.9, 75.0 61.2, 76.1 62.3 Z" fill="hsl(290, 83%, 63%)" fill-opacity="0.37" stroke="none" stroke-width="0.94" filter="url(#f1)" transform="translate(31.2 17.3) rotate(66.0) scale(1.91 1.73)" />
<path d="M 29.7 8.3 C 35.9 13.7, 7.5 97.3, 14.8 97.5 C 9.9 85.0, 22.8 56.2, 17.0 69.8 C 33.6 82.5, 64.3 37.8, 52.9 32.6 C 47.5 15.8, 0.0 25.6, 2.7 27.1 C 20.8 18.0, 92.4 21.1, 82.0 10.3 C 74.5 14.6, 56.6 36.5, 69.8 23.7 C 75.8 11.3, 81.4 85.6, 79.6 79.3 Z" fill="none" fill-opacity="0.28" stroke="hsl(86, 72%, 68%)" stroke-width="4.85"  transform="translate(61.1 59.1) rotate(277.6) scale(1.65 1.29)" />
<rect x="36.1" y="44.1" width="33.1" height="34.1" rx="5.0" fill="none" fill-opacity="0.58"   transform="translate(2.0 26.1) rotate(60.7) scale(0.61 1.91)" />
<g opacity="0.059">
<rect x="0" y="0" width="1" height="100" fill="black" />
<rect x="22" y="0" width="1" height="100" fill="black" />
<rect x="44" y="0" width="1" height="100" fill="black" />
<rect x="66" y="0" width="1" height="100" fill="black" />
<rect x="88" y="0" width="1" height="100" fill="black" />
<rect x="0" y="0" width="100" height="1" fill="black" />
<rect x="0" y="22" width="100" height="1" fill="black" />
<rect x="0" y="44" width="100" height="1" fill="black" />
<rect x="0" y="66" width="100" height="1" fill="black" />
<rect x="0" y="88" width="100" height="1" fill="black" />
</g>

</svg>
