<?xml version="1.0" encoding="UTF-8"?>
<svg xmlns="http://www.w3.org/2000/svg" width="100" height="100" viewBox="0 0 100 100">
<defs>
<linearGradient id="g0" x1="0%" y1="0%" x2="100%" y2="100%">
<stop offset="0.0%" stop-color="hsl(106, 75%, 59%)" />
<stop offset="33.3%" stop-color="hsl(183, 71%, 60%)" />
<stop offset="66.7%" stop-color="hsl(242, 72%, 49%)" />
<stop offset="100.0%" stop-color="hsl(322, 74%, 44%)" />
</linearGradient>
<linearGradient id="g1" x1="0%" y1="0%" x2="100%" y2="100%">
<stop offset="0.0%" stop-color="hsl(290, 83%, 63%)" />
<stop offset="33.3%" stop-color="hsl(2, 82%, 55%)" />
<stop offset="66.7%" stop-color="hsl(86, 72%, 68%)" />
<stop offset="100.0%" stop-color="hsl(83, 65%, 44%)" />
</linearGradient>
<linearGradient id="g2" x1="0%" y1="0%" x2="100%" y2="100%">
<stop offset="0.0%" stop-color="hsl(40, 53%, 69%)" />
<stop offset="33.3%" stop-color="hsl(104, 72%, 65%)" />
<stop offset="66.7%" stop-color="hsl(144, 86%, 72%)" />
<stop offset="100.0%" stop-color="hsl(151, 70%, 62%)" />
</linearGradient>
</defs>

<rect x="7.3" y="57.7" width="32.4" height="16.0" rx="0" fill="none" fill-opacity="0.77" stroke="hsl(151, 70%, 62%)" stroke-width="4.7"   />
<path d="M 24.6 31.4 C 35.2 23.7, 62.7 23.7, 64.9 10.7 C 65.8 6.1, 85.8 57.5, 96.2 65.8 C 91.3 80.8, 3.9 15.9, 11.0 15.0 C 10.8 0.2, 68.8 96.7, 61.1 95.6 C 79.2 89.2, 67.4 95.0, 69.8 97.8 C 53.9 100.0, 27.4 76.7, 38.9 73.5 C 51.2 87.2, 41.2 40.9, 36.6 35.2 Z" fill="none" fill-opacity="0.54" stroke="hsl(183, 71%, 60%)" stroke-width="1.16"  transform="translate(37.9 15.0) rotate(263.6) scale(1.58 1.25)" />
<rect x="6.8" y="51.8" width="32.4" height="38.9" rx="10.9" fill="hsl(290, 83%, 63%)" fill-opacity="0.44"   transform="translate(93.3 56.6) rotate(175.0) scale(1.61 1.69)" />
<path d="M 87.1 32.2 C 98.0 41.1, 34.3 60.8, 45.7 70.8 C 64.4 65.5, 43.6 79.0, 57.7 93.2 C 72.1 100.0, 1.2 2.1, 15.6 2.8 C 15.8 0.0, 23.4 74.6, 9.0 83.1 C 27.0 99.8, 93.5 28.7, 87.5 42.2 C 93.8 24.2, 42.1 79.1, 27.8 85.2 " fill="hsl(151, 70%, 62%)" fill-opacity="0.49" stroke="none" stroke-width="1.27"   />
<path d="M 59.2 75.7 C 60.0 78.6, 88.2 64.2, 87.2 50.4 C 89.8 38.7, 18.9 11.4, 27.2 6.1 C 29.4 0.0, 37.2 70.3, 40.0 64.1 C 30.7 57.3, 73.9 25.6, 84.5 12.9 C 71.9 19.8, 73.4 40.9, 88.0 51.8 " fill="none" fill-opacity="0.88" stroke="hsl(144, 86%, 72%)" stroke-width="1.10"  transform="translate(44.7 67.4) rotate(311.2) scale(1.19 1.93)" />
<rect x="32.2" y="6.2" width="49.3" height="11.4" rx="0" fill="hsl(106, 75%, 59%)" fill-opacity="0.34" stroke="hsl(106, 75%, 59%)" stroke-width="2.7"   />
<path d="M 61.9 87.3 C 46.2 81.0, 75.6 42.1, 72.2 50.2 C 57.6 63.8, 23.9 85.8, 22.4 74.2 C 31.4 81.4, 47.4 57.6, 52.1 66.0 C 45.9 48.4, 28.8 6.1, 31.3 9.4 C 17.4 0.0, 73.5 58.2, 84.3 58.1 C 98.5 41.2, 64.3 60.5, 68.3 60.0 " fill="hsl(183, 71%, 60%)" fill-opacity="0.53" stroke="none" stroke-width="1.26"   />
<path d="M 75.3 4.9 C 70.4 0.0, 37.9 66.1, 28.0 59.5 C 20.3 46.8, 60.9 19.2, 50.8 15.6 C 35.5 4.5, 60.7 57.8, 67.1 66.6 C 78.3 75.4, 16.3 57.1, 12.4 45.1 C 30.9 48.6, 24.7 63.0, 38.4 58.0 " fill="none" fill-opacity="0.65" stroke="hsl(2, 82%, 55%)" stroke-width="1.17"  transform="translate(89.0 78.4) rotate(341.1) scale(0.97 1.08)" />
<path d="M 13.8 56.8 C 13.0 43.1, 57.2 70.6, 69.8 72.0 C 69.3 55.7, 71.6 32.2, 79.9 40.4 C 66.1 48.1, 41.6 67.9, 35.5 57.9 C 29.3 43.0, 100.0 100.0, 94.6 96.6 Z" fill="none" fill-opacity="0.85" stroke="hsl(83, 65%, 44%)" stroke-width="0.96"   />
<circle cx="78.8" cy="83.5" r="1.6" fill="hsl(322, 74%, 44%)" fill-opacity="0.45"  transform="translate(80.3 16.4) rotate(266.5) scale(1.04 0.76)" />
<rect x="22.1" y="68.1" width="30.4" height="16.9" rx="0" fill="hsl(86, 72%, 68%)" fill-opacity="0.46" stroke="hsl(2, 82%, 55%)" stroke-width="1.5"   />
<circle cx="12.2" cy="84.3" r="0.2" fill="hsl(104, 72%, 65%)" fill-opacity="0.43"  transform="translate(86.4 22.7) rotate(245.0) scale(1.74 0.52)" />
<path d="M 59.4 45.5 C 75.8 54.1, 0.0 92.4, 2.7 79.6 C 0.0 64.3, 57.8 60.5, 70.1 61.9 C 77.6 49.5, 0.0 71.8, 1.1 84.6 C 0.0 79.9, 82.9 44.7, 76.3 35.8 C 69.3 54.1, 100.0 75.0, 93.9 71.9 C 100.0 88.7, 23.8 45.8, 11.3 53.3 " fill="hsl(104, 72%, 65%)" fill-opacity="0.98" stroke="none" stroke-width="1.15"   />
<path d="M 69.6 51.3 C 76.7 67.3, 4.1 100.0, 9.5 95.4 C 3.8 76.3, 100.0 68.7, 99.9 67.9 C 94.7 58.4, 29.1 53.8, 18.2 56.3 C 20.7 45.9, 81.4 70.6, 67.9 75.8 C 62.5 69.5, 19.0 39.2, 21.1 45.7 " fill="hsl(83, 65%, 44%)" fill-opacity="0.81" stroke="none" stroke-width="0.81"  transform="translate(54.0 85.8) rotate(81.1) scale(1.71 1.76)" />
<rect x="9.3" y="19.0" width="49.2" height="11.1" rx="0.9" fill="none" fill-opacity="0.86"   transform="translate(70.3 33.4) rotate(220.6) scale(1.05 1.83)" />
</svg>
