<?xml version="1.0" encoding="UTF-8"?>
<svg xmlns="http://www.w3.org/2000/svg" width="100" height="100" viewBox="0 0 100 100">
<defs>
<linearGradient id="g0" x1="0%" y1="0%" x2="100%" y2="100%">
<stop offset="0.0%" stop-color="hsl(106, 75%, 59%)" />
<stop offset="33.3%" stop-color="hsl(183, 71%, 60%)" />
<stop offset="66.7%" stop-color="hsl(242, 72%, 49%)" />
<stop offset="100.0%" stop-color="hsl(322, 74%, 44%)" />
</linearGradient>
<linearGradient id="g1" x1="0%" y1="0%" x2="100%" y2="100%">
<stop offset="0.0%" stop-color="hsl(290, 83%, 63%)" />
<stop offset="33.3%" stop-color="hsl(2, 82%, 55%)" />
<stop offset="66.7%" stop-color="hsl(86, 72%, 68%)" />
<stop offset="100.0%" stop-color="hsl(83, 65%, 44%)" />
</linearGradient>
<linearGradient id="g2" x1="0%" y1="0%" x2="100%" y2="100%">
<stop offset="0.0%" stop-color="hsl(40, 53%, 69%)" />
<stop offset="33.3%" stop-color="hsl(104, 72%, 65%)" />
<stop offset="66.7%" stop-color="hsl(144, 86%, 72%)" />
<stop offset="100.0%" stop-color="hsl(151, 70%, 62%)" />
</linearGradient>
<filter id="f1" x="-20%" y="-20%" width="140%" height="140%">
  <feGaussianBlur stdDeviation="1.6593204265764199" />
</filter>

</defs>

<path d="M 84.4 99.3 C 100.0 100.0, 86.1 45.2, 85.5 34.6 C 89.9 29.6, 36.4 0.0, 49.0 12.1 C 68.5 29.6, 17.5 10.2, 15.5 19.1 C 21.3 30.8, 0.0 78.0, 1.4 74.6 C 7.5 78.0, 32.1 30.9, 31.1 27.9 C 22.5 36.4, 45.8 49.0, 38.5 47.4 C 44.8 51.8, 23.6 28.0, 34.8 36.6 C 16.9 42.0, 67.8 76.0, 78.5 81.6 Z" fill="none" fill-opacity="0.84" stroke="hsl(40, 53%, 69%)" stroke-width="1.79"  transform="translate(58.7 63.0) rotate(137.0) scale(1.22 0.59)" />
<path d="M 29.3 34.9 C 22.5 48.0, 75.9 63.0, 70.1 77.3 C 74.8 92.1, 0.0 82.5, 11.3 87.5 C 13.8 100.0, 31.0 93.7, 30.0 95.6 C 38.2 100.0, 27.5 58.9, 31.4 44.0 C 21.3 62.9, 60.3 33.8, 75.2 32.0 C 90.5 44.8, 22.4 35.9, 11.7 23.1 C 8.3 10.3, 27.8 20.7, 27.3 23.5 C 47.1 15.4, 33.3 81.3, 48.1 90.0 C 61.0 85.7, 0.9 93.6, 15.1 95.4 Z" fill="hsl(183, 71%, 60%)" fill-opacity="0.94" stroke="none" stroke-width="4.96"  transform="translate(9.5 42.2) rotate(54.6) scale(1.92 0.83)" />
<rect x="6.6" y="0.8" width="41.3" height="20.3" rx="18.7" fill="hsl(322, 74%, 44%)" fill-opacity="0.42"   transform="translate(41.7 47.3) rotate(322.4) scale(1.05 1.23)" />
<path d="M 89.5 28.4 C 95.0 16.4, 32.0 48.2, 43.0 41.9 C 43.9 31.8, 85.0 100.0, 72.9 99.4 C 71.2 92.9, 27.0 94.0, 41.7 87.3 C 28.3 96.7, 63.9 27.7, 63.4 26.3 C 77.7 21.8, 1.6 49.7, 0.3 54.6 C 0.0 53.1, 53.9 74.3, 51.2 62.9 C 54.7 63.6, 69.9 12.2, 70.2 16.7 C 73.4 0.0, 67.1 90.6, 79.7 88.6 C 73.5 88.0, 33.7 90.6, 20.6 78.5 Z" fill="hsl(151, 70%, 62%)" fill-opacity="0.66" stroke="none" stroke-width="0.95"  transform="translate(13.9 68.1) rotate(151.8) scale(1.31 1.26)" />
<rect x="7.9" y="21.0" width="38.6" height="16.2" rx="0" fill="none" fill-opacity="0.23" stroke="hsl(2, 82%, 55%)" stroke-width="2.1"  transform="translate(87.4 90.1) rotate(82.7) scale(1.85 1.36)" />
<circle cx="60.3" cy="13.2" r="5.9" fill="hsl(106, 75%, 59%)" fill-opacity="0.98"  transform="translate(65.2 48.9) rotate(29.7) scale(1.42 1.49)" />
<circle cx="43.6" cy="74.6" r="1.2" fill="hsl(106, 75%, 59%)" fill-opacity="0.62" filter="url(#f1)" transform="translate(64.5 15.9) rotate(149.8) scale(0.59 1.63)" />
<circle cx="15.0" cy="33.7" r="4.6" fill="hsl(86, 72%, 68%)" fill-opacity="0.96"  transform="translate(64.7 51.4) rotate(108.1) scale(0.85 0.99)" />
<circle cx="93.2" cy="91.0" r="3.0" fill="hsl(242, 72%, 49%)" fill-opacity="0.47"  transform="translate(61.7 91.7) rotate(179.5) scale(1.50 1.13)" />
<path d="M 57.7 9.9 C 71.3 0.0, 17.9 24.2, 15.5 31.6 C 25.9 29.0, 14.1 0.0, 3.4 7.6 C 0.0 3.1, 61.1 89.4, 75.3 95.7 C 83.8 100.0, 79.1 23.1, 78.1 12.7 C 75.7 0.0, 87.9 29.3, 73.5 29.8 C 75.6 40.0, 10.8 21.7, 21.1 10.5 C 34.6 30.1, 13.7 23.2, 14.0 17.7 C 31.7 36.5, 49.7 98.0, 43.6 97.3 C 26.7 100.0, 0.0 72.2, 3.4 59.5 Z" fill="hsl(242, 72%, 49%)" fill-opacity="0.27" stroke="none" stroke-width="2.64"   />
<circle cx="21.6" cy="34.1" r="3.7" fill="url(#g1)" fill-opacity="0.51" filter="url(#f1)" transform="translate(82.2 98.3) rotate(106.8) scale(1.64 1.04)" />
<circle cx="97.7" cy="13.2" r="13.0" fill="url(#g1)" fill-opacity="0.97"  transform="translate(20.7 29.4) rotate(150.1) scale(1.33 0.54)" />
<path d="M 87.9 78.8 C 75.3 66.9, 100.0 43.4, 95.3 30.4 C 100.0 46.3, 42.8 75.2, 42.2 74.4 C 33.5 66.7, 100.0 82.2, 91.8 83.5 C 92.5 83.2, 17.9 89.4, 28.2 86.7 C 35.7 87.2, 0.0 66.2, 10.4 78.8 C 12.3 85.4, 73.7 52.8, 74.1 65.8 C 56.3 53.9, 73.5 0.0, 69.6 10.8 C 56.7 0.0, 68.0 35.2, 58.9 45.1 C 52.3 38.2, 0.0 76.6, 13.3 64.8 C 6.7 84.8, 33.2 56.4, 32.3 66.8 Z" fill="none" fill-opacity="0.97" stroke="hsl(183, 71%, 60%)" stroke-width="2.09"  transform="translate(56.8 4.1) rotate(34.7) scale(1.69 1.10)" />
<rect x="34.0" y="60.0" width="35.3" height="26.9" rx="18.3" fill="hsl(106, 75%, 59%)" fill-opacity="0.91" stroke="hsl(106, 75%, 59%)" stroke-width="1.3"   />
<path d="M 51.4 40.5 C 49.2 23.4, 93.2 8.7, 79.4 12.0 C 78.2 11.7, 59.9 95.2, 72.5 84.6 C 71.2 80.3, 0.0 38.5, 0.3 27.6 C 0.0 11.9, 97.5 64.3, 85.6 56.4 C 90.0 73.6, 85.2 17.0, 79.4 21.4 C 74.8 33.1, 87.7 67.0, 83.1 52.5 C 74.7 63.0, 24.5 28.1, 38.4 14.6 Z" fill="hsl(144, 86%, 72%)" fill-opacity="0.75" stroke="none" stroke-width="2.33"  transform="translate(41.3 20.0) rotate(128.5) scale(1.96 1.43)" />
<path d="M 69.7 68.1 C 66.5 75.2, 35.3 9.1, 44.6 22.2 C 44.4 8.1, 41.1 25.3, 47.2 25.1 C 66.3 28.4, 100.0 29.1, 98.5 43.6 C 100.0 36.5, 4.9 49.6, 0.6 44.5 C 0.0 25.2, 66.5 79.7, 64.9 80.0 C 62.5 64.4, 21.5 79.0, 26.6 92.3 C 28.7 78.1, 30.0 34.9, 42.8 37.6 C 44.4 41.1, 20.2 68.6, 25.4 59.9 C 20.2 74.5, 15.3 42.6, 6.3 29.2 Z" fill="hsl(242, 72%, 49%)" fill-opacity="0.93" stroke="none" stroke-width="1.16" filter="url(#f1)" transform="translate(44.7 21.5) rotate(15.0) scale(0.81 1.25)" />
<circle cx="77.8" cy="99.0" r="6.8" fill="url(#g1)" fill-opacity="0.61" filter="url(#f1)" transform="translate(75.5 42.4) rotate(236.0) scale(1.74 1.93)" />
<path d="M 10.4 50.1 C 21.0 46.7, 38.9 32.2, 48.2 42.2 C 29.9 29.6, 97.8 88.8, 94.4 87.5 C 100.0 72.4, 95.6 0.0, 91.0 12.8 C 82.5 25.5, 90.0 73.3, 86.1 58.5 C 98.1 42.2, 78.8 84.6, 83.6 81.0 C 90.5 85.6, 14.8 36.7, 15.1 41.3 C 34.5 57.4, 24.6 53.3, 35.7 52.9 C 54.7 43.3, 80.1 34.5, 82.2 32.0 C 78.6 27.3, 90.6 13.3, 76.5 23.2 C 81.2 17.2, 95.1 59.1, 98.9 69.7 Z" fill="none" fill-opacity="0.96" stroke="hsl(83, 65%, 44%)" stroke-width="3.40" filter="url(#f1)"  />
<path d="M 2.9 3.2 C 10.9 12.9, 10.7 23.8, 13.9 17.6 C 24.0 12.8, 19.8 90.6, 21.5 99.2 C 40.0 98.2, 23.5 26.1, 17.9 39.6 C 26.1 30.7, 90.4 41.7, 98.6 40.5 C 100.0 41.1, 100.0 21.7, 96.2 32.0 C 78.4 38.8, 0.0 61.9, 3.1 52.4 C 3.1 43.9, 38.4 84.7, 42.9 74.8 C 54.5 68.1, 0.0 0.0, 10.3 2.0 C 0.0 7.6, 23.7 15.3, 35.2 14.1 Z" fill="none" fill-opacity="0.57" stroke="hsl(322, 74%, 44%)" stroke-width="4.25"  transform="translate(18.9 56.3) rotate(306.7) scale(1.67 1.28)" />
<rect x="3.9" y="39.1" width="49.6" height="10.4" rx="0" fill="none" fill-opacity="0.78"   transform="translate(17.4 5.7) rotate(331.5) scale(1.46 0.51)" />
<path d="M 54.0 76.3 C 56.5 73.5, 5.8 11.2, 7.9 24.8 C 25.8 20.6, 0.0 45.9, 5.9 33.8 C 23.5 50.3, 89.8 19.6, 97.9 17.7 C 100.0 33.1, 90.7 93.1, 98.1 99.7 C 100.0 89.6, 7.6 87.5, 9.5 83.4 C 26.7 81.1, 69.9 79.5, 63.4 68.5 C 55.6 84.9, 24.6 94.3, 11.2 85.5 C 0.0 69.5, 2.6 85.8, 6.9 93.2 Z" fill="none" fill-opacity="0.99" stroke="hsl(151, 70%, 62%)" stroke-width="2.32"  transform="translate(15.5 41.7) rotate(42.1) scale(1.61 0.85)" />
<path d="M 58.8 70.5 C 67.2 64.8, 94.6 14.6, 96.0 16.1 C 100.0 17.2, 39.0 30.8, 45.5 20.2 C 42.5 33.4, 43.9 61.6, 36.6 50.4 C 29.9 52.9, 28.3 69.6, 20.1 63.4 C 7.2 80.3, 51.0 65.6, 37.3 61.5 C 43.1 76.4, 50.4 60.4, 44.3 56.1 C 27.1 59.9, 58.5 56.6, 70.8 57.0 C 59.0 75.3, 91.4 77.9, 79.0 88.5 C 70.1 87.6, 12.0 64.6, 24.9 75.4 " fill="hsl(290, 83%, 63%)" fill-opacity="0.83" stroke="none" stroke-width="2.46"  transform="translate(37.7 38.8) rotate(69.0) scale(0.94 1.93)" />
<rect x="58.4" y="5.6" width="36.7" height="20.9" rx="3.2" fill="none" fill-opacity="0.63" stroke="hsl(40, 53%, 69%)" stroke-width="3.7"  transform="translate(66.8 37.6) rotate(89.0) scale(1.05 1.30)" />
<path d="M 42.7 79.1 C 60.5 69.3, 52.3 65.1, 44.3 62.5 C 24.5 77.7, 27.2 76.0, 15.1 74.9 C 32.9 68.2, 24.4 64.3, 35.3 71.8 C 47.1 80.8, 94.1 20.5, 89.3 28.6 C 74.3 19.8, 5.7 55.9, 16.7 44.5 C 30.6 59.7, 46.1 22.6, 45.1 8.2 C 47.6 0.0, 58.8 19.4, 46.6 10.6 C 29.1 6.0, 92.9 6.6, 96.2 21.2 C 81.6 18.3, 28.1 62.3, 40.9 53.1 Z" fill="hsl(86, 72%, 68%)" fill-opacity="0.86" stroke="none" stroke-width="1.24"  transform="translate(25.9 38.7) rotate(218.7) scale(0.69 1.33)" />
<path d="M 80.2 96.9 C 84.2 84.9, 25.7 60.3, 22.5 47.6 C 16.2 29.1, 9.7 67.6, 6.9 54.3 C 0.0 37.7, 100.0 27.0, 92.1 30.3 C 80.7 40.1, 0.0 74.8, 6.7 83.2 C 0.0 81.4, 84.4 14.2, 84.8 10.1 C 80.9 22.8, 44.2 77.9, 44.2 85.2 Z" fill="hsl(151, 70%, 62%)" fill-opacity="0.83" stroke="none" stroke-width="1.72"  transform="translate(91.1 48.4) rotate(185.1) scale(1.80 0.92)" />
<rect x="60.0" y="40.7" width="31.2" height="29.2" rx="17.2" fill="hsl(106, 75%, 59%)" fill-opacity="0.25"   transform="translate(72.5 90.7) rotate(155.4) scale(1.22 1.94)" />
<path d="M 74.7 71.1 C 56.5 55.9, 9.5 42.3, 5.8 39.9 C 5.1 58.7, 71.3 75.4, 72.6 89.1 C 55.8 78.7, 97.9 55.0, 95.3 61.9 C 81.1 60.2, 35.8 91.8, 38.3 84.8 C 55.7 78.1, 36.4 26.0, 21.4 20.7 C 35.9 10.0, 49.7 54.6, 38.2 40.7 C 49.3 54.6, 15.7 80.2, 19.4 87.2 C 28.3 69.3, 53.3 35.5, 63.2 31.9 C 71.8 37.5, 95.4 0.0, 81.8 0.7 C 88.4 0.0, 86.5 30.3, 80.2 39.7 Z" fill="hsl(40, 53%, 69%)" fill-opacity="0.61" stroke="none" stroke-width="4.36"  transform="translate(20.6 70.2) rotate(295.1) scale(1.36 0.84)" />
<path d="M 43.6 11.2 C 50.0 0.1, 25.5 13.8, 39.3 18.8 C 45.4 34.0, 49.5 44.9, 46.0 32.9 C 45.6 49.7, 84.9 44.9, 95.9 33.1 C 100.0 45.5, 7.3 32.3, 4.7 21.2 C 15.9 32.5, 31.1 49.8, 22.3 40.7 C 39.1 57.1, 61.3 6.0, 59.2 8.8 C 40.5 14.4, 38.9 44.5, 44.6 29.7 C 61.6 37.1, 94.1 52.9, 84.1 50.9 C 91.5 46.5, 78.5 14.7, 93.4 21.3 Z" fill="hsl(144, 86%, 72%)" fill-opacity="0.88" stroke="none" stroke-width="1.08"  transform="translate(40.6 3.1) rotate(164.9) scale(1.08 1.55)" />
<circle cx="69.5" cy="72.0" r="4.5" fill="hsl(106, 75%, 59%)" fill-opacity="0.50"  transform="translate(69.3 17.9) rotate(125.2) scale(1.12 1.61)" />
<rect x="49.8" y="31.5" width="44.3" height="27.2" rx="9.1" fill="none" fill-opacity="0.97"   transform="translate(52.0 74.6) rotate(67.2) scale(0.76 1.79)" />
<path d="M 63.2 93.3 C 77.4 84.9, 43.8 67.6, 54.5 69.3 C 65.0 82.5, 40.0 20.4, 29.9 8.2 C 43.0 27.1, 27.8 78.9, 28.5 89.7 C 12.0 100.0, 79.2 85.8, 64.4 93.9 C 48.9 77.2, 11.4 25.9, 6.6 11.0 C 5.8 3.7, 53.1 62.6, 63.0 70.7 Z" fill="hsl(104, 72%, 65%)" fill-opacity="0.50" stroke="none" stroke-width="3.48"  transform="translate(44.5 28.0) rotate(227.9) scale(1.74 1.80)" />
<path d="M 31.2 70.1 C 29.6 51.0, 68.7 91.2, 71.6 93.5 C 85.8 100.0, 8.7 82.8, 10.4 87.3 C 9.9 84.8, 7.4 80.8, 14.0 87.6 C 25.8 82.8, 0.0 90.0, 9.1 96.3 C 1.2 91.6, 27.4 58.5, 26.1 68.1 C 13.7 56.7, 61.3 86.9, 59.8 90.0 C 51.1 100.0, 21.5 65.1, 19.8 63.4 C 28.4 79.7, 60.0 75.9, 53.1 66.2 C 49.3 66.1, 1.9 35.3, 1.1 45.8 Z" fill="hsl(104, 72%, 65%)" fill-opacity="0.36" stroke="none" stroke-width="2.26"  transform="translate(25.2 81.6) rotate(8.0) scale(1.13 1.97)" />
<rect x="6.7" y="68.0" width="40.2" height="12.7" rx="0" fill="hsl(83, 65%, 44%)" fill-opacity="0.95" stroke="hsl(86, 72%, 68%)" stroke-width="4.4"  transform="translate(71.0 8.4) rotate(208.3) scale(1.31 1.69)" />
<path d="M 64.9 35.7 C 76.3 26.7, 76.2 19.5, 66.7 8.8 C 52.4 0.0, 45.3 74.1, 57.5 89.0 C 72.2 92.1, 36.8 100.0, 47.9 94.7 C 66.1 100.0, 0.0 14.0, 7.9 16.6 C 3.6 24.2, 42.1 48.0, 40.5 53.2 C 58.3 33.6, 63.7 64.5, 67.6 58.4 C 63.8 39.0, 58.1 18.7, 57.5 18.8 C 66.9 38.4, 73.5 75.0, 85.7 76.5 C 97.1 93.2, 26.1 32.3, 25.9 33.2 C 27.4 48.1, 67.3 28.0, 65.2 30.5 Z" fill="hsl(83, 65%, 44%)" fill-opacity="0.81" stroke="none" stroke-width="2.90"   />
<rect x="4.7" y="41.6" width="38.0" height="20.0" rx="11.8" fill="none" fill-opacity="0.54"   transform="translate(63.4 24.9) rotate(181.2) scale(0.98 1.31)" />
<circle cx="40.7" cy="16.8" r="2.2" fill="url(#g2)" fill-opacity="0.56"  transform="translate(6.8 95.4) rotate(193.8) scale(1.21 1.82)" />
<path d="M 26.4 40.7 C 33.9 35.5, 65.3 17.5, 78.6 2.8 C 88.7 22.2, 68.0 15.4, 81.5 3.7 C 71.5 3.9, 84.7 51.4, 88.8 65.1 C 91.6 83.0, 5.5 87.7, 3.1 92.2 C 0.0 100.0, 47.3 99.9, 50.8 98.1 C 56.7 90.2, 45.7 82.2, 41.4 87.0 C 24.6 93.0, 68.5 33.9, 57.5 31.4 C 39.3 38.9, 0.0 33.4, 8.3 20.7 C 0.0 28.7, 49.9 19.5, 47.9 28.6 " fill="hsl(104, 72%, 65%)" fill-opacity="0.32" stroke="none" stroke-width="1.25"  transform="translate(37.3 48.2) rotate(249.1) scale(0.99 0.83)" />
<path d="M 37.2 63.6 C 23.4 45.2, 66.9 68.9, 72.8 83.4 C 55.2 90.1, 38.7 83.2, 44.4 74.2 C 53.0 67.3, 35.5 100.0, 44.5 96.1 C 28.6 96.1, 34.0 68.8, 31.8 67.0 C 37.1 59.5, 25.6 51.3, 39.9 50.2 C 49.3 70.1, 92.7 32.2, 90.5 43.7 C 74.7 52.4, 59.9 40.7, 74.3 26.1 C 74.1 12.0, 87.3 86.4, 96.1 92.6 C 83.3 100.0, 54.9 32.7, 50.8 19.3 C 67.2 31.9, 46.8 18.2, 32.7 29.0 Z" fill="none" fill-opacity="0.27" stroke="hsl(151, 70%, 62%)" stroke-width="4.59"  transform="translate(35.4 81.4) rotate(223.2) scale(1.90 1.37)" />
<path d="M 48.3 15.6 C 68.0 18.2, 48.4 83.4, 61.9 88.7 C 55.1 82.6, 30.4 46.9, 33.7 46.5 C 48.5 62.4, 83.4 54.4, 96.8 54.6 C 89.3 71.6, 60.0 47.6, 49.1 44.9 C 63.0 48.5, 88.4 0.5, 87.5 4.2 C 97.5 19.1, 32.3 100.0, 41.1 99.6 C 52.9 91.6, 0.0 30.2, 8.6 35.7 C 0.0 54.0, 16.3 57.5, 21.9 47.3 Z" fill="hsl(183, 71%, 60%)" fill-opacity="0.29" stroke="none" stroke-width="1.24" filter="url(#f1)" transform="translate(81.3 83.6) rotate(169.5) scale(1.50 1.89)" />
<rect x="26.4" y="43.4" width="35.6" height="17.8" rx="3.5" fill="hsl(86, 72%, 68%)" fill-opacity="0.31"   transform="translate(72.0 0.6) rotate(15.6) scale(1.36 1.93)" />
<path d="M 69.0 37.0 C 73.3 20.1, 69.7 47.6, 75.6 32.7 C 71.1 24.7, 42.5 27.1, 33.5 14.3 C 47.6 13.9, 14.0 52.8, 13.6 49.4 C 27.0 45.8, 76.6 61.8, 71.5 51.4 C 54.8 54.3, 1.8 14.9, 2.6 28.3 C 10.2 9.6, 35.6 0.0, 36.6 2.2 Z" fill="none" fill-opacity="0.47" stroke="hsl(151, 70%, 62%)" stroke-width="1.85"  transform="translate(48.5 41.0) rotate(165.6) scale(1.78 1.51)" />
<path d="M 60.1 28.6 C 66.2 45.5, 76.6 65.4, 76.6 55.2 C 73.8 45.7, 43.7 60.9, 53.7 52.0 C 34.1 63.9, 44.7 22.3, 59.1 8.8 C 61.1 23.0, 24.6 1.1, 23.4 5.5 C 14.6 0.0, 64.5 49.5, 63.8 62.7 C 79.2 53.2, 48.2 71.9, 40.7 65.6 C 21.8 69.7, 0.0 34.9, 1.2 28.3 C 0.0 28.8, 80.1 0.7, 85.3 11.8 " fill="none" fill-opacity="0.35" stroke="hsl(322, 74%, 44%)" stroke-width="4.12"  transform="translate(91.6 77.6) rotate(344.2) scale(1.63 1.46)" />
<path d="M 23.5 74.7 C 33.9 55.1, 90.6 51.7, 85.2 42.6 C 68.3 51.4, 67.7 84.7, 74.7 90.2 C 75.6 82.9, 36.9 16.8, 40.3 29.4 C 23.6 48.1, 79.4 21.0, 69.1 17.5 C 57.4 36.8, 14.1 71.1, 7.4 84.7 C 2.7 69.3, 56.3 76.1, 44.4 71.2 C 63.6 88.4, 16.0 77.6, 2.8 77.6 C 9.2 91.4, 44.2 92.4, 57.5 85.6 " fill="hsl(104, 72%, 65%)" fill-opacity="0.40" stroke="none" stroke-width="2.38"  transform="translate(85.6 44.8) rotate(17.1) scale(1.13 0.81)" />
<circle cx="42.4" cy="42.3" r="4.6" fill="hsl(106, 75%, 59%)" fill-opacity="0.43"  transform="translate(7.6 50.1) rotate(228.8) scale(1.04 0.84)" />
<rect x="46.5" y="70.1" width="31.1" height="28.1" rx="10.5" fill="hsl(104, 72%, 65%)" fill-opacity="0.84"   transform="translate(35.6 73.7) rotate(328.6) scale(0.76 1.87)" />
<path d="M 21.4 41.4 C 15.8 56.4, 0.0 58.2, 2.5 50.6 C 22.2 57.0, 61.1 80.1, 57.8 82.7 C 54.2 98.2, 55.7 38.5, 53.5 44.7 C 57.3 57.0, 62.7 32.0, 69.0 35.5 C 57.8 42.4, 64.3 32.9, 51.1 40.6 C 69.8 35.5, 81.8 81.9, 92.9 83.7 C 91.9 83.2, 100.0 86.3, 95.1 74.8 C 98.7 82.6, 12.4 100.0, 0.5 99.7 Z" fill="hsl(83, 65%, 44%)" fill-opacity="0.35" stroke="none" stroke-width="1.45"  transform="translate(50.2 53.6) rotate(156.5) scale(0.66 0.60)" />
<rect x="16.6" y="72.5" width="29.7" height="16.8" rx="8.5" fill="hsl(86, 72%, 68%)" fill-opacity="0.25"   transform="translate(96.0 60.6) rotate(307.4) scale(1.54 1.52)" />
<circle cx="99.1" cy="93.4" r="11.4" fill="hsl(40, 53%, 69%)" fill-opacity="0.88"  transform="translate(57.3 23.6) rotate(327.9) scale(1.62 1.20)" />
<path d="M 92.5 22.6 C 100.0 33.6, 71.8 38.4, 86.4 47.5 C 99.1 55.6, 61.0 0.0, 46.2 7.5 C 63.1 8.8, 86.3 20.8, 86.6 28.2 C 73.8 41.4, 15.2 63.9, 14.8 65.5 C 17.5 56.1, 25.9 15.3, 32.5 2.6 C 24.3 4.7, 80.0 52.7, 75.4 41.4 C 89.5 53.9, 14.4 22.3, 28.3 36.0 C 46.3 22.8, 82.2 56.0, 67.4 45.2 C 70.3 34.6, 71.4 37.8, 76.4 38.7 C 91.0 53.6, 59.3 74.8, 65.6 69.0 Z" fill="hsl(83, 65%, 44%)" fill-opacity="0.75" stroke="none" stroke-width="3.13"   />
<path d="M 18.6 67.1 C 23.1 57.6, 70.5 70.9, 62.0 68.5 C 71.9 70.1, 82.1 8.8, 75.3 2.5 C 76.5 16.7, 14.0 46.0, 22.1 37.7 C 6.0 57.3, 94.7 44.0, 81.0 49.7 C 75.2 36.6, 54.9 95.0, 56.8 91.8 C 47.6 100.0, 100.0 23.4, 87.3 20.4 C 91.7 25.2, 19.5 44.5, 18.8 40.7 Z" fill="none" fill-opacity="0.30" stroke="hsl(2, 82%, 55%)" stroke-width="1.33"  transform="translate(17.8 7.6) rotate(116.3) scale(1.44 1.70)" />
<circle cx="62.8" cy="71.3" r="2.6" fill="url(#g0)" fill-opacity="0.98" filter="url(#f1)" transform="translate(25.5 48.3) rotate(111.1) scale(0.97 1.03)" />
<circle cx="21.4" cy="74.0" r="8.7" fill="hsl(86, 72%, 68%)" fill-opacity="0.40" filter="url(#f1)" transform="translate(1.5 44.6) rotate(66.9) scale(1.73 1.26)" />
<path d="M 32.4 91.7 C 51.2 80.1, 87.8 35.8, 96.3 37.3 C 98.3 37.9, 32.7 97.4, 39.6 90.2 C 38.7 96.5, 75.6 43.5, 80.0 51.8 C 94.8 70.0, 17.9 34.3, 4.9 29.1 C 0.0 10.7, 0.0 20.3, 0.1 26.5 C 0.0 7.2, 76.7 63.9, 75.6 51.0 C 76.0 66.2, 70.7 7.9, 76.2 4.3 C 89.1 9.0, 0.8 25.6, 6.3 34.9 C 0.0 31.5, 64.0 19.4, 68.5 12.2 C 61.0 17.9, 63.8 41.6, 77.1 26.8 Z" fill="hsl(151, 70%, 62%)" fill-opacity="0.64" stroke="none" stroke-width="1.42"   />
<path d="M 21.9 59.6 C 37.2 64.3, 42.5 2.2, 29.8 9.5 C 35.7 26.5, 32.6 73.4, 46.8 87.2 C 33.6 96.0, 26.5 4.6, 26.5 0.4 C 14.2 0.0, 44.1 51.3, 42.3 63.7 C 55.1 58.5, 100.0 86.4, 96.9 85.6 C 93.4 87.1, 48.7 43.1, 41.7 44.6 Z" fill="hsl(2, 82%, 55%)" fill-opacity="0.47" stroke="none" stroke-width="3.35"  transform="translate(49.8 4.1) rotate(322.1) scale(1.99 1.91)" />
<circle cx="75.5" cy="75.1" r="5.8" fill="hsl(86, 72%, 68%)" fill-opacity="0.99"   />
<path d="M 40.5 8.8 C 25.8 9.4, 75.6 51.6, 70.7 61.4 C 64.6 50.4, 95.3 3.8, 95.7 12.5 C 97.4 20.2, 32.6 38.3, 28.6 28.5 C 34.9 11.1, 2.6 79.2, 0.1 90.8 C 2.6 100.0, 15.0 53.9, 12.0 42.6 C 20.8 34.9, 0.0 46.3, 8.0 54.4 Z" fill="hsl(290, 83%, 63%)" fill-opacity="0.36" stroke="none" stroke-width="4.21"  transform="translate(3.5 69.4) rotate(191.1) scale(1.85 0.75)" />
<path d="M 34.9 29.6 C 38.9 45.3, 28.9 30.1, 26.9 43.9 C 43.2 43.9, 17.6 100.0, 4.2 96.2 C 14.8 84.9, 83.5 100.0, 78.9 99.6 C 90.8 85.5, 0.0 80.3, 11.9 74.9 C 22.9 63.8, 34.7 43.3, 48.3 48.3 C 67.1 51.4, 69.5 64.0, 55.8 58.9 C 66.2 70.2, 82.7 8.0, 80.3 20.7 C 66.3 39.0, 28.0 35.1, 24.8 32.5 C 31.1 36.9, 47.7 25.1, 40.8 27.3 Z" fill="none" fill-opacity="0.87" stroke="hsl(144, 86%, 72%)" stroke-width="1.76"   />
<rect x="2.1" y="41.6" width="49.6" height="36.7" rx="8.0" fill="none" fill-opacity="0.81"   transform="translate(45.5 36.1) rotate(348.2) scale(1.62 1.89)" />
<path d="M 27.1 55.7 C 31.3 73.8, 0.0 89.7, 2.9 94.8 C 21.8 100.0, 64.5 50.0, 52.5 45.5 C 71.6 62.7, 12.0 49.5, 12.2 54.4 C 0.0 38.9, 54.6 44.2, 41.2 58.2 C 22.7 38.8, 82.4 15.6, 85.5 8.3 C 85.9 20.7, 85.4 88.0, 79.6 89.6 C 62.5 88.0, 10.2 58.7, 15.0 59.3 Z" fill="none" fill-opacity="0.90" stroke="hsl(151, 70%, 62%)" stroke-width="0.89"  transform="translate(12.8 25.9) rotate(224.6) scale(1.34 0.66)" />
<path d="M 52.5 10.6 C 67.8 0.0, 75.9 56.4, 86.9 50.8 C 100.0 54.3, 85.5 88.8, 85.5 76.8 C 88.1 76.7, 27.4 18.1, 33.4 18.5 C 29.8 34.3, 95.7 96.7, 82.7 92.9 C 100.0 90.7, 21.2 40.2, 21.1 26.1 C 16.0 26.0, 11.1 57.7, 7.4 43.1 Z" fill="hsl(183, 71%, 60%)" fill-opacity="0.27" stroke="none" stroke-width="1.19"   />
<rect x="8.1" y="12.3" width="29.4" height="39.6" rx="0" fill="hsl(183, 71%, 60%)" fill-opacity="0.88"  filter="url(#f1)" transform="translate(77.4 94.8) rotate(162.3) scale(1.03 1.94)" />
<path d="M 82.7 72.2 C 95.2 64.2, 35.3 74.3, 36.2 81.8 C 54.0 65.1, 61.1 33.3, 52.4 39.2 C 67.2 57.9, 100.0 79.7, 91.2 70.7 C 99.9 63.7, 0.0 54.1, 8.6 66.4 C 20.8 53.3, 53.3 70.5, 65.5 70.0 C 61.3 73.6, 45.6 79.5, 30.7 66.4 C 11.7 70.5, 64.5 11.9, 50.5 6.0 C 38.9 0.0, 80.8 72.8, 88.3 75.8 C 87.9 79.3, 23.2 56.8, 14.1 61.8 Z" fill="hsl(83, 65%, 44%)" fill-opacity="0.92" stroke="none" stroke-width="3.01"  transform="translate(46.5 41.2) rotate(97.0) scale(1.34 1.53)" />
<path d="M 39.6 76.0 C 31.9 66.9, 80.5 50.1, 78.2 47.7 C 89.4 65.3, 51.7 79.3, 40.6 75.0 C 40.6 55.9, 81.8 39.8, 77.4 42.0 C 58.5 47.5, 72.4 10.9, 66.6 0.6 C 73.0 16.7, 94.8 14.1, 80.7 9.1 C 86.7 0.0, 96.1 13.9, 96.7 3.6 C 87.5 23.3, 91.4 57.5, 99.1 70.3 C 100.0 89.5, 26.6 71.4, 13.8 85.0 C 0.0 97.5, 55.6 46.5, 69.5 46.1 Z" fill="none" fill-opacity="0.46" stroke="hsl(144, 86%, 72%)" stroke-width="1.72"  transform="translate(89.1 48.3) rotate(14.0) scale(1.13 0.80)" />
<circle cx="87.5" cy="99.7" r="11.9" fill="hsl(144, 86%, 72%)" fill-opacity="0.75"  transform="translate(7.6 46.8) rotate(5.5) scale(1.49 0.82)" />
<path d="M 29.1 54.5 C 31.4 55.6, 71.9 35.6, 85.9 32.3 C 98.2 50.0, 99.1 42.3, 91.0 53.2 C 100.0 38.0, 12.3 39.9, 2.8 41.0 C 0.0 38.1, 64.6 41.8, 70.5 32.4 C 88.4 26.8, 29.9 79.0, 23.8 65.1 C 36.1 77.4, 47.8 76.9, 43.6 90.2 C 27.5 90.2, 25.5 85.9, 18.8 71.0 C 24.8 62.5, 72.7 71.5, 86.7 84.6 C 91.7 84.1, 93.4 73.9, 90.5 87.7 Z" fill="hsl(290, 83%, 63%)" fill-opacity="0.96" stroke="none" stroke-width="4.79"  transform="translate(38.0 51.5) rotate(339.9) scale(1.58 0.80)" />
<path d="M 0.7 13.3 C 11.1 32.6, 6.5 69.6, 17.1 65.0 C 17.9 83.4, 75.7 6.6, 68.4 4.0 C 67.4 0.0, 63.0 92.5, 60.7 87.6 C 59.4 69.0, 57.3 86.8, 49.4 79.7 C 42.9 89.5, 67.0 85.8, 53.0 75.4 C 33.1 82.8, 50.5 97.4, 46.6 96.3 C 58.2 100.0, 53.2 55.5, 49.3 46.5 Z" fill="none" fill-opacity="0.38" stroke="hsl(40, 53%, 69%)" stroke-width="1.15"  transform="translate(74.5 98.5) rotate(306.4) scale(0.93 1.44)" />
<path d="M 17.6 99.3 C 1.0 100.0, 62.8 34.3, 68.6 39.2 C 85.8 40.6, 60.5 72.3, 50.0 69.7 C 35.4 56.1, 71.7 67.5, 77.9 74.8 C 84.1 91.7, 63.6 0.0, 64.0 9.9 C 47.5 0.0, 67.1 76.6, 57.1 65.1 C 57.7 55.7, 74.2 3.5, 74.1 2.4 C 64.7 15.2, 76.7 39.2, 83.2 40.5 C 88.0 22.9, 21.0 25.1, 19.0 32.8 Z" fill="hsl(151, 70%, 62%)" fill-opacity="0.68" stroke="none" stroke-width="4.09"  transform="translate(77.2 18.1) rotate(275.8) scale(1.22 1.06)" />
<rect x="4.2" y="59.3" width="39.9" height="36.6" rx="0" fill="hsl(322, 74%, 44%)" fill-opacity="0.69"   transform="translate(62.5 64.9) rotate(288.2) scale(1.02 1.35)" />
<path d="M 6.3 49.6 C 25.4 58.7, 99.8 68.2, 85.7 70.7 C 92.3 74.8, 70.1 76.6, 72.7 90.2 C 82.4 100.0, 97.0 69.4, 94.4 74.5 C 100.0 87.5, 90.1 100.0, 83.6 98.5 C 84.0 94.7, 92.8 20.9, 91.9 29.0 C 100.0 16.1, 41.7 3.5, 54.8 8.6 " fill="hsl(104, 72%, 65%)" fill-opacity="0.48" stroke="none" stroke-width="1.84"  transform="translate(12.2 80.1) rotate(284.8) scale(1.49 0.76)" />
<circle cx="44.3" cy="5.2" r="6.1" fill="hsl(86, 72%, 68%)" fill-opacity="0.46"  transform="translate(1.2 96.6) rotate(232.8) scale(1.65 1.16)" />
<path d="M 69.2 42.7 C 56.3 52.2, 87.7 56.6, 73.4 55.5 C 86.1 70.7, 61.5 20.2, 53.9 15.5 C 52.7 0.4, 100.0 100.0, 92.8 97.6 C 88.0 81.5, 86.5 100.0, 75.9 95.3 C 79.1 91.0, 61.1 100.0, 53.5 98.5 C 56.9 100.0, 58.5 87.4, 50.8 75.2 Z" fill="none" fill-opacity="0.52" stroke="hsl(2, 82%, 55%)" stroke-width="2.06"   />
<rect x="0.3" y="59.4" width="42.6" height="22.7" rx="0" fill="hsl(2, 82%, 55%)" fill-opacity="0.27" stroke="hsl(2, 82%, 55%)" stroke-width="4.9" filter="url(#f1)" transform="translate(82.9 30.4) rotate(177.4) scale(1.62 1.19)" />
<path d="M 28.7 75.1 C 16.5 75.7, 87.1 46.7, 85.5 42.5 C 88.9 27.3, 57.7 37.2, 67.8 34.4 C 70.2 27.3, 24.2 18.4, 34.6 20.5 C 15.1 6.2, 88.4 33.9, 78.6 30.8 C 86.2 11.0, 61.1 57.1, 54.3 43.8 C 71.8 56.6, 13.1 16.0, 1.6 26.3 C 13.9 11.7, 41.7 62.6, 55.4 65.9 C 37.4 49.6, 40.7 15.1, 26.2 20.0 C 34.7 39.4, 0.0 53.5, 13.1 58.7 C 2.4 68.3, 93.1 100.0, 97.1 99.3 Z" fill="none" fill-opacity="0.66" stroke="hsl(86, 72%, 68%)" stroke-width="4.41"  transform="translate(61.2 73.4) rotate(207.7) scale(1.30 1.74)" />
<path d="M 77.7 48.5 C 69.5 60.5, 78.3 20.9, 67.9 25.1 C 63.8 30.5, 17.5 38.6, 29.7 45.1 C 20.9 40.5, 11.1 49.0, 15.0 50.7 C 20.2 48.6, 53.6 59.3, 40.2 68.8 C 56.4 49.5, 33.8 14.4, 36.8 20.6 C 28.5 3.7, 57.0 89.1, 70.0 99.5 C 79.7 100.0, 57.7 70.1, 71.4 57.4 C 76.7 70.2, 14.0 78.5, 14.7 90.4 C 10.8 100.0, 46.0 0.0, 51.5 8.1 Z" fill="none" fill-opacity="0.94" stroke="hsl(183, 71%, 60%)" stroke-width="1.35"  transform="translate(19.1 99.9) rotate(318.2) scale(1.96 1.88)" />
<circle cx="61.4" cy="18.4" r="0.9" fill="url(#g0)" fill-opacity="0.75"  transform="translate(70.2 19.6) rotate(265.8) scale(1.33 1.43)" />
<circle cx="60.3" cy="45.9" r="0.9" fill="hsl(183, 71%, 60%)" fill-opacity="0.46"  transform="translate(25.9 83.6) rotate(338.9) scale(0.66 0.55)" />
<path d="M 7.7 82.9 C 0.0 76.4, 22.5 61.0, 28.8 75.7 C 35.7 83.6, 13.7 39.2, 0.5 42.2 C 3.1 35.0, 8.3 10.3, 19.1 16.7 C 8.0 17.1, 93.0 63.0, 78.9 71.0 C 75.8 89.4, 71.1 75.4, 65.4 67.0 C 68.5 60.3, 67.7 60.7, 70.4 74.2 C 53.8 71.4, 40.4 96.2, 53.9 85.7 Z" fill="none" fill-opacity="0.68" stroke="hsl(242, 72%, 49%)" stroke-width="4.06" filter="url(#f1)" transform="translate(81.8 11.8) rotate(22.0) scale(1.03 1.38)" />
<path d="M 32.0 67.2 C 41.6 48.7, 37.9 77.6, 41.7 62.8 C 58.6 71.6, 91.5 78.0, 97.3 75.7 C 93.0 57.4, 73.2 58.8, 68.5 45.7 C 85.4 60.9, 37.5 79.6, 45.8 84.4 C 48.7 87.9, 82.0 21.9, 92.3 17.4 C 84.9 12.0, 34.1 75.9, 34.9 76.6 Z" fill="hsl(40, 53%, 69%)" fill-opacity="0.38" stroke="none" stroke-width="3.86" filter="url(#f1)" transform="translate(45.4 96.3) rotate(5.4) scale(1.16 1.01)" />
<rect x="2.4" y="61.1" width="49.8" height="10.4" rx="0" fill="none" fill-opacity="0.89" stroke="hsl(104, 72%, 65%)" stroke-width="4.8"  transform="translate(56.0 66.9) rotate(201.1) scale(1.33 1.30)" />
<rect x="49.8" y="33.3" width="40.5" height="21.5" rx="18.4" fill="hsl(40, 53%, 69%)" fill-opacity="0.70"   transform="translate(36.0 83.5) rotate(149.1) scale(1.47 1.92)" />
<path d="M 12.5 48.9 C 30.3 61.2, 43.5 27.7, 52.7 15.1 C 70.5 1.0, 58.7 68.3, 56.5 68.2 C 59.9 61.6, 23.7 12.0, 34.6 8.9 C 38.6 7.8, 19.2 70.8, 31.9 83.1 C 27.7 88.8, 7.9 41.9, 17.3 30.4 C 23.7 43.0, 63.6 60.7, 77.6 69.5 C 73.3 78.1, 87.2 33.6, 86.8 39.9 C 69.0 40.8, 52.9 3.1, 42.7 10.3 C 49.8 0.0, 52.7 39.1, 45.5 25.7 Z" fill="hsl(40, 53%, 69%)" fill-opacity="0.78" stroke="none" stroke-width="1.76" filter="url(#f1)"  />
<path d="M 71.4 24.6 C 85.6 37.1, 43.5 83.3, 46.8 82.6 C 53.4 76.5, 43.6 90.7, 39.0 78.6 C 52.0 67.6, 55.7 46.2, 45.7 33.6 C 43.0 30.8, 60.2 32.2, 53.8 41.0 C 71.8 45.5, 23.1 100.0, 11.0 90.1 C 0.0 97.7, 71.7 24.5, 78.3 17.4 C 59.8 0.0, 43.1 0.0, 50.0 1.9 C 35.1 0.0, 28.8 70.2, 23.2 57.2 Z" fill="hsl(290, 83%, 63%)" fill-opacity="0.89" stroke="none" stroke-width="3.06"   />
<path d="M 65.2 71.6 C 64.3 55.3, 44.2 85.6, 41.3 77.8 C 28.6 63.5, 68.3 95.8, 55.4 90.2 C 42.7 79.1, 0.0 45.9, 2.0 38.5 C 0.0 46.8, 86.6 71.4, 89.6 64.4 C 88.8 56.0, 18.4 19.5, 11.3 11.8 C 22.0 7.3, 12.8 10.9, 21.7 9.3 C 7.7 0.0, 50.1 97.8, 42.4 92.9 C 49.1 94.7, 0.0 77.0, 0.2 65.2 C 1.8 80.6, 17.3 49.8, 16.1 35.3 C 2.3 40.1, 72.8 10.9, 61.4 20.7 Z" fill="none" fill-opacity="0.53" stroke="hsl(86, 72%, 68%)" stroke-width="4.42"  transform="translate(50.8 56.0) rotate(42.9) scale(1.99 1.15)" />
<rect x="47.8" y="12.1" width="41.4" height="29.2" rx="0" fill="none" fill-opacity="0.92"   transform="translate(74.1 11.5) rotate(340.7) scale(0.76 1.63)" />
<circle cx="54.2" cy="71.4" r="4.5" fill="url(#g2)" fill-opacity="0.85"  transform="translate(81.6 71.5) rotate(80.2) scale(1.44 1.39)" />
<circle cx="94.1" cy="22.3" r="0.5" fill="url(#g1)" fill-opacity="0.48"  transform="translate(42.3 64.4) rotate(234.9) scale(1.83 1.25)" />
<rect x="21.2" y="17.2" width="26.9" height="31.5" rx="9.7" fill="hsl(104, 72%, 65%)" fill-opacity="0.60" stroke="hsl(144, 86%, 72%)" stroke-width="4.1"  transform="translate(52.2 41.7) rotate(175.5) scale(1.46 1.60)" />
<path d="M 69.7 37.8 C 56.0 23.3, 90.1 29.8, 84.6 25.9 C 66.7 37.9, 44.6 12.1, 33.0 0.2 C 13.9 0.0, 58.8 32.7, 59.1 24.8 C 49.5 30.5, 29.9 51.6, 39.1 37.1 C 26.3 23.8, 79.0 24.3, 86.5 27.0 C 67.1 19.0, 17.3 14.2, 23.2 24.4 C 6.0 37.8, 19.5 52.6, 26.7 50.4 C 43.2 32.0, 0.0 55.9, 8.9 46.1 C 0.0 31.1, 85.8 22.9, 78.7 27.1 " fill="hsl(183, 71%, 60%)" fill-opacity="0.31" stroke="none" stroke-width="4.28"  transform="translate(61.1 60.2) rotate(332.3) scale(1.13 1.34)" />
<rect x="17.3" y="27.2" width="23.1" height="38.4" rx="0" fill="none" fill-opacity="0.20"   transform="translate(16.7 34.7) rotate(254.5) scale(0.87 0.85)" />
<rect x="36.3" y="55.2" width="38.0" height="16.5" rx="17.9" fill="hsl(2, 82%, 55%)" fill-opacity="0.80" stroke="hsl(86, 72%, 68%)" stroke-width="2.6"  transform="translate(64.7 63.9) rotate(195.3) scale(1.42 1.50)" />
<circle cx="84.3" cy="19.2" r="1.4" fill="hsl(106, 75%, 59%)" fill-opacity="0.59"  transform="translate(3.3 17.8) rotate(333.9) scale(1.48 1.03)" />
<path d="M 87.0 0.2 C 100.0 1.6, 94.6 16.9, 90.0 30.4 C 100.0 22.4, 18.0 14.6, 20.2 17.8 C 38.9 0.0, 46.0 100.0, 50.5 92.8 C 68.8 78.5, 98.3 94.0, 98.3 80.8 C 92.8 61.6, 100.0 56.3, 97.6 47.0 C 96.3 48.1, 100.0 58.6, 91.4 52.1 C 100.0 45.4, 0.0 30.1, 11.2 17.4 C 6.6 15.0, 4.0 57.3, 2.7 67.1 C 0.0 49.0, 0.0 93.0, 7.0 99.3 C 23.2 83.3, 8.9 22.5, 7.7 13.2 Z" fill="none" fill-opacity="0.43" stroke="hsl(2, 82%, 55%)" stroke-width="3.78"  transform="translate(33.3 94.1) rotate(157.8) scale(0.74 0.75)" />
<path d="M 20.4 8.1 C 1.4 13.2, 7.7 86.3, 16.1 91.5 C 7.4 97.0, 63.9 74.5, 68.1 75.6 C 64.5 92.7, 52.5 100.0, 52.5 94.7 C 52.6 77.1, 26.9 20.1, 28.5 17.7 C 42.1 14.5, 98.2 58.4, 93.1 58.6 C 80.9 65.6, 55.1 23.2, 53.3 13.3 C 49.3 27.2, 74.6 15.4, 70.2 17.6 C 74.3 31.9, 60.8 100.0, 69.3 96.0 C 75.5 97.0, 13.5 78.5, 19.8 76.4 C 26.8 83.8, 55.4 75.1, 43.0 61.2 " fill="none" fill-opacity="0.98" stroke="hsl(2, 82%, 55%)" stroke-width="3.03"  transform="translate(57.9 92.9) rotate(171.3) scale(1.37 1.51)" />
<rect x="43.5" y="5.4" width="34.0" height="19.8" rx="18.1" fill="hsl(151, 70%, 62%)" fill-opacity="0.73"   transform="translate(25.7 14.7) rotate(284.6) scale(1.96 1.24)" />
<path d="M 91.2 68.7 C 100.0 69.6, 21.5 96.4, 29.1 89.6 C 37.0 100.0, 23.2 36.1, 16.3 37.2 C 35.2 39.7, 25.8 33.6, 23.0 36.8 C 10.0 40.9, 37.7 8.8, 43.1 22.2 C 27.8 9.7, 65.3 93.4, 55.9 99.8 C 51.9 97.9, 27.8 50.7, 26.7 41.6 Z" fill="hsl(144, 86%, 72%)" fill-opacity="0.93" stroke="none" stroke-width="5.15"  transform="translate(74.4 53.9) rotate(219.0) scale(1.06 1.09)" />
<rect x="30.2" y="40.4" width="43.4" height="23.9" rx="14.7" fill="none" fill-opacity="0.98"   transform="translate(53.2 45.5) rotate(191.6) scale(1.86 0.86)" />
<path d="M 20.0 90.1 C 4.0 100.0, 88.1 100.0, 86.2 92.2 C 100.0 76.1, 22.4 70.7, 26.1 61.8 C 16.7 68.2, 37.3 59.0, 27.9 45.7 C 22.1 49.4, 17.5 0.0, 26.1 0.2 C 35.3 11.8, 79.6 88.3, 64.8 92.3 C 51.6 86.9, 100.0 98.5, 87.2 83.5 C 74.4 90.3, 61.3 67.0, 71.4 64.0 C 52.9 52.4, 72.1 45.0, 73.3 48.3 C 56.0 56.1, 70.5 64.7, 79.2 77.8 C 83.3 92.4, 57.1 73.3, 52.2 58.6 Z" fill="none" fill-opacity="0.73" stroke="hsl(151, 70%, 62%)" stroke-width="1.69"  transform="translate(20.7 27.6) rotate(0.5) scale(1.67 1.77)" />
<path d="M 85.0 33.4 C 98.3 38.1, 31.5 96.4, 26.0 91.6 C 43.1 100.0, 71.3 30.3, 69.8 25.6 C 50.9 7.4, 60.3 50.4, 75.0 62.6 C 66.2 63.2, 48.8 37.9, 59.5 32.9 C 62.3 29.7, 48.1 49.8, 41.8 52.5 C 42.8 36.2, 72.5 90.2, 59.7 89.8 Z" fill="hsl(106, 75%, 59%)" fill-opacity="0.68" stroke="none" stroke-width="1.90"  transform="translate(50.2 85.9) rotate(219.2) scale(1.11 1.46)" />
<rect x="69.6" y="47.4" width="20.9" height="13.9" rx="0" fill="hsl(40, 53%, 69%)" fill-opacity="0.75"  filter="url(#f1)" transform="translate(45.9 34.9) rotate(334.5) scale(1.45 0.75)" />
<path d="M 21.8 45.0 C 29.1 50.2, 52.8 85.5, 58.5 73.8 C 57.8 80.7, 36.8 54.2, 31.3 39.6 C 39.3 27.4, 81.1 87.7, 80.0 93.5 C 68.3 74.4, 23.9 95.3, 10.9 93.2 C 10.1 77.4, 14.9 36.5, 29.6 23.9 C 18.9 34.8, 68.4 69.7, 67.3 69.5 C 77.1 81.2, 10.8 79.2, 10.5 67.4 " fill="hsl(40, 53%, 69%)" fill-opacity="0.69" stroke="none" stroke-width="3.03" filter="url(#f1)" transform="translate(8.7 1.7) rotate(91.1) scale(1.63 0.55)" />
<path d="M 33.8 10.2 C 29.5 13.0, 21.1 71.5, 24.1 56.9 C 35.7 73.5, 17.8 51.0, 16.1 59.4 C 6.0 63.8, 67.5 45.3, 71.0 32.1 C 65.9 14.8, 30.4 96.1, 19.6 85.8 C 18.8 66.2, 94.9 35.9, 83.4 28.2 C 80.0 9.9, 43.6 45.9, 52.7 45.8 C 36.2 51.5, 76.8 22.1, 84.9 19.3 C 100.0 12.3, 36.7 15.7, 49.5 30.5 C 63.5 38.7, 52.2 9.9, 62.7 11.5 C 75.3 0.0, 61.0 100.0, 51.6 94.0 Z" fill="hsl(2, 82%, 55%)" fill-opacity="0.77" stroke="none" stroke-width="1.42"  transform="translate(85.5 57.6) rotate(16.6) scale(1.69 0.77)" />
<path d="M 19.1 91.4 C 22.5 100.0, 71.3 30.6, 59.8 38.8 C 57.8 41.5, 72.6 0.6, 58.6 11.7 C 50.3 17.4, 100.0 17.6, 98.3 27.4 C 80.6 32.1, 89.0 29.5, 78.6 39.2 C 84.4 24.2, 77.1 44.2, 86.1 44.5 C 100.0 30.3, 43.3 87.6, 47.6 94.4 C 31.6 92.7, 95.0 80.5, 97.3 86.3 C 77.4 100.0, 100.0 79.0, 92.9 81.5 C 100.0 82.9, 86.8 64.7, 84.4 52.8 C 100.0 69.3, 14.9 54.3, 7.2 58.0 Z" fill="hsl(40, 53%, 69%)" fill-opacity="0.51" stroke="none" stroke-width="5.28"   />
<rect x="12.5" y="45.5" width="21.9" height="32.2" rx="9.3" fill="none" fill-opacity="0.34"   transform="translate(77.7 93.5) rotate(330.0) scale(0.54 1.89)" />
<path d="M 48.5 19.6 C 36.1 12.7, 90.8 98.6, 87.6 97.1 C 78.9 84.2, 38.8 40.4, 30.2 48.7 C 46.0 39.9, 96.1 97.1, 89.1 92.4 C 97.0 94.3, 89.3 43.2, 77.4 29.2 C 68.8 35.6, 99.7 37.0, 90.3 46.8 C 81.2 29.4, 91.4 0.0, 96.0 5.0 C 84.4 16.0, 24.6 0.0, 28.5 8.7 C 32.6 0.0, 63.1 14.0, 70.8 3.8 Z" fill="hsl(183, 71%, 60%)" fill-opacity="0.32" stroke="none" stroke-width="2.64"  transform="translate(13.6 34.6) rotate(104.1) scale(1.77 0.72)" />
<circle cx="3.1" cy="23.7" r="15.3" fill="hsl(144, 86%, 72%)" fill-opacity="0.75"  transform="translate(98.7 56.7) rotate(295.9) scale(1.08 0.72)" />
<circle cx="37.7" cy="18.2" r="0.9" fill="hsl(83, 65%, 44%)" fill-opacity="0.50"  transform="translate(64.1 10.7) rotate(215.9) scale(0.63 1.89)" />
<circle cx="49.9" cy="67.7" r="2.5" fill="url(#g0)" fill-opacity="0.54"  transform="translate(85.7 1.2) rotate(103.1) scale(1.94 1.29)" />
<path d="M 11.8 38.5 C 13.2 25.0, 54.6 12.0, 54.0 14.9 C 50.8 0.0, 17.3 52.0, 24.2 41.2 C 13.9 30.7, 6.9 77.9, 5.5 68.8 C 0.0 73.2, 62.3 3.2, 75.2 15.4 C 55.7 25.5, 26.9 93.9, 25.1 93.6 C 24.8 95.3, 54.8 52.7, 59.8 48.1 C 50.5 66.4, 85.0 49.4, 95.7 59.8 C 82.0 73.8, 45.6 75.5, 52.9 60.6 C 71.4 69.8, 4.0 39.5, 11.0 50.0 C 0.0 68.5, 0.0 72.6, 8.0 73.5 Z" fill="none" fill-opacity="0.72" stroke="hsl(40, 53%, 69%)" stroke-width="2.02"  transform="translate(70.1 78.1) rotate(97.0) scale(1.43 0.77)" />
<circle cx="68.9" cy="61.8" r="2.5" fill="hsl(40, 53%, 69%)" fill-opacity="0.76" filter="url(#f1)" transform="translate(36.1 16.6) rotate(174.3) scale(1.60 1.81)" />
<path d="M 40.9 30.3 C 35.1 46.7, 90.5 62.7, 92.0 73.6 C 78.7 76.0, 94.8 35.5, 89.2 23.6 C 74.4 29.8, 79.7 32.2, 73.3 33.9 C 67.7 48.0, 23.5 93.0, 21.2 83.2 C 39.1 75.3, 86.9 53.0, 86.3 43.1 C 94.7 55.7, 87.7 22.2, 99.7 37.1 C 92.1 29.7, 74.3 0.5, 71.5 14.0 C 91.3 19.8, 77.0 79.8, 80.6 72.4 C 66.2 58.5, 90.8 26.4, 98.4 14.3 Z" fill="hsl(40, 53%, 69%)" fill-opacity="0.59" stroke="none" stroke-width="1.80"   />
<path d="M 86.7 55.1 C 96.8 51.6, 90.7 28.8, 80.6 29.3 C 92.4 34.3, 90.9 18.9, 83.7 24.0 C 65.3 32.0, 85.0 55.5, 96.7 57.4 C 95.3 56.9, 0.0 51.2, 7.8 66.1 C 0.0 54.3, 66.1 51.1, 72.5 59.1 C 73.9 51.1, 84.0 60.4, 86.5 45.9 C 76.6 27.4, 17.6 25.4, 23.8 30.0 C 9.3 11.7, 86.3 38.6, 71.6 33.8 C 55.7 25.6, 38.5 6.6, 43.5 8.1 C 52.8 18.5, 85.9 17.1, 79.2 23.4 Z" fill="hsl(104, 72%, 65%)" fill-opacity="0.28" stroke="none" stroke-width="3.34"  transform="translate(80.4 40.6) rotate(256.6) scale(1.09 1.05)" />
<path d="M 15.0 55.6 C 29.2 54.2, 0.0 55.0, 7.4 52.5 C 11.7 52.8, 46.7 17.8, 58.7 5.7 C 43.3 0.0, 84.8 8.4, 71.2 7.3 C 61.6 13.8, 5.0 36.2, 18.7 28.3 C 26.3 10.2, 87.1 62.4, 76.4 48.9 C 83.5 38.5, 79.8 63.1, 86.5 53.5 C 70.2 42.7, 22.3 85.2, 22.1 85.1 Z" fill="none" fill-opacity="0.40" stroke="hsl(104, 72%, 65%)" stroke-width="3.57"  transform="translate(74.3 95.7) rotate(135.8) scale(0.84 1.83)" />
<rect x="31.9" y="47.5" width="42.9" height="31.4" rx="17.2" fill="hsl(151, 70%, 62%)" fill-opacity="0.53" stroke="hsl(144, 86%, 72%)" stroke-width="4.3"  transform="translate(19.4 76.7) rotate(102.1) scale(1.04 1.63)" />
<circle cx="60.0" cy="14.0" r="1.5" fill="url(#g0)" fill-opacity="0.42"  transform="translate(42.3 27.8) rotate(307.7) scale(1.55 1.92)" />
<path d="M 29.6 37.3 C 43.9 24.0, 75.1 78.3, 81.1 81.7 C 76.8 75.4, 34.8 37.3, 25.2 50.0 C 20.7 67.6, 84.8 43.5, 78.5 38.8 C 63.0 47.0, 67.2 36.1, 73.0 38.9 C 60.8 49.5, 100.0 14.5, 97.2 16.0 C 100.0 19.4, 57.9 91.7, 54.7 87.3 C 55.0 70.0, 61.5 4.1, 47.7 9.9 C 36.9 0.0, 16.0 89.0, 16.5 87.4 C 24.8 79.8, 88.6 83.5, 92.0 83.0 C 93.8 80.5, 17.1 61.1, 18.1 71.8 " fill="hsl(144, 86%, 72%)" fill-opacity="0.98" stroke="none" stroke-width="1.98"  transform="translate(52.7 2.8) rotate(189.7) scale(0.78 1.26)" />
<rect x="4.2" y="3.5" width="28.9" height="23.8" rx="0" fill="none" fill-opacity="0.60"    />
<path d="M 19.2 54.2 C 32.8 46.5, 96.9 3.5, 89.6 18.5 C 76.5 1.7, 74.4 34.1, 85.8 29.7 C 71.6 12.7, 28.8 100.0, 30.2 93.9 C 40.3 88.1, 82.3 3.7, 79.9 2.9 C 76.0 0.0, 83.7 1.5, 87.6 10.0 C 80.3 18.8, 41.1 0.0, 54.2 6.6 Z" fill="hsl(322, 74%, 44%)" fill-opacity="0.90" stroke="none" stroke-width="4.17"  transform="translate(70.6 16.2) rotate(256.8) scale(0.63 2.00)" />
<path d="M 43.8 79.4 C 49.2 85.6, 7.1 24.3, 9.9 33.3 C 22.3 21.5, 45.3 79.9, 31.5 87.1 C 29.3 94.4, 100.0 60.9, 93.1 63.5 C 97.3 53.3, 5.0 54.8, 12.1 52.5 C 4.1 42.8, 35.2 28.9, 43.0 20.5 C 62.0 20.7, 51.3 0.0, 58.4 3.5 C 40.2 14.2, 0.0 74.2, 10.0 63.5 Z" fill="hsl(2, 82%, 55%)" fill-opacity="0.69" stroke="none" stroke-width="2.10" filter="url(#f1)" transform="translate(66.2 40.7) rotate(189.5) scale(0.82 0.69)" />
<rect x="4.3" y="7.8" width="35.0" height="30.2" rx="0" fill="hsl(2, 82%, 55%)" fill-opacity="0.57"   transform="translate(62.0 58.5) rotate(227.7) scale(2.00 1.04)" />
<path d="M 32.1 21.1 C 17.3 3.9, 55.3 62.3, 42.2 47.8 C 29.9 34.7, 8.4 64.0, 12.0 59.8 C 1.7 49.8, 85.9 89.1, 99.9 83.6 C 85.8 94.1, 23.0 44.2, 18.6 56.7 C 21.3 59.3, 88.3 19.8, 85.1 21.3 C 71.9 27.1, 89.2 41.8, 85.8 51.6 C 66.5 61.9, 0.0 20.4, 10.4 16.2 C 23.8 2.0, 67.7 80.4, 80.5 75.5 Z" fill="none" fill-opacity="0.49" stroke="hsl(106, 75%, 59%)" stroke-width="5.19"  transform="translate(78.0 25.1) rotate(134.0) scale(1.15 0.95)" />
<path d="M 40.3 28.3 C 29.7 12.2, 0.0 0.0, 1.1 3.5 C 0.0 0.0, 34.6 47.9, 32.9 54.1 C 17.1 72.1, 11.7 17.6, 17.9 3.9 C 35.6 8.9, 100.0 43.7, 94.8 55.6 C 100.0 50.7, 0.0 100.0, 1.2 95.9 C 0.0 97.5, 64.3 39.1, 72.1 36.7 C 87.6 51.9, 59.7 48.2, 47.0 45.5 C 37.8 32.9, 14.9 66.6, 3.5 69.0 C 4.9 63.6, 63.9 78.9, 59.4 68.5 " fill="hsl(106, 75%, 59%)" fill-opacity="0.29" stroke="none" stroke-width="5.29"   />
<circle cx="19.4" cy="52.9" r="3.5" fill="url(#g0)" fill-opacity="0.64"   />
<rect x="57.4" y="16.4" width="21.6" height="33.2" rx="6.4" fill="hsl(151, 70%, 62%)" fill-opacity="0.94" stroke="hsl(151, 70%, 62%)" stroke-width="4.8"  transform="translate(44.1 15.6) rotate(49.4) scale(1.31 1.43)" />
<path d="M 44.3 83.1 C 55.3 88.1, 3.2 70.3, 6.0 62.3 C 9.6 54.9, 40.4 91.3, 50.8 92.0 C 55.7 85.5, 47.4 1.5, 38.9 6.6 C 54.4 12.5, 40.3 84.6, 28.6 87.8 C 12.9 80.0, 39.7 49.3, 29.4 53.6 C 44.1 73.1, 71.7 64.3, 83.4 53.7 C 63.7 65.2, 52.8 20.8, 51.7 26.3 Z" fill="hsl(183, 71%, 60%)" fill-opacity="0.53" stroke="none" stroke-width="2.55"  transform="translate(92.3 83.0) rotate(357.5) scale(0.67 0.53)" />
<path d="M 34.7 53.4 C 29.0 69.9, 53.5 53.0, 52.8 42.6 C 33.7 47.4, 41.1 29.0, 48.3 38.7 C 58.0 52.9, 22.0 37.7, 35.1 38.9 C 37.3 43.1, 76.9 96.8, 88.5 82.4 C 80.5 94.5, 47.4 86.5, 40.3 74.7 C 52.6 87.3, 55.9 42.9, 43.7 45.5 C 54.5 28.2, 32.3 79.6, 33.0 68.6 C 15.9 65.9, 92.3 88.5, 82.1 91.7 Z" fill="hsl(83, 65%, 44%)" fill-opacity="0.47" stroke="none" stroke-width="2.65"  transform="translate(24.7 62.9) rotate(28.4) scale(0.91 0.79)" />
<path d="M 96.8 70.4 C 100.0 58.2, 94.3 59.0, 98.5 61.3 C 78.5 66.2, 1.6 95.2, 12.5 81.1 C 0.0 81.8, 30.3 79.2, 31.2 86.6 C 35.2 91.4, 65.3 70.0, 73.6 67.3 C 57.5 85.2, 92.9 94.0, 88.1 80.4 C 80.5 90.1, 94.7 0.0, 95.6 1.9 C 82.5 0.0, 82.7 12.6, 80.5 11.1 C 77.7 0.0, 59.4 58.0, 66.9 49.8 C 86.0 42.3, 35.4 27.6, 41.1 18.8 C 27.1 35.3, 17.3 86.9, 32.0 84.1 Z" fill="none" fill-opacity="0.82" stroke="hsl(322, 74%, 44%)" stroke-width="1.35"  transform="translate(55.2 83.4) rotate(145.7) scale(0.71 0.72)" />
<path d="M 0.5 58.5 C 0.0 48.7, 80.6 57.3, 87.5 43.4 C 81.0 23.8, 32.2 32.7, 19.7 23.2 C 2.4 40.3, 21.7 59.5, 35.0 70.4 C 38.9 84.1, 17.2 48.7, 24.0 45.6 C 38.2 52.6, 8.7 14.6, 17.5 1.7 C 1.4 16.6, 63.6 55.5, 56.8 69.0 Z" fill="hsl(86, 72%, 68%)" fill-opacity="0.66" stroke="none" stroke-width="2.10"  transform="translate(35.3 17.2) rotate(153.1) scale(1.35 0.72)" />
<path d="M 84.1 3.0 C 97.7 0.0, 17.8 75.4, 19.7 62.7 C 19.1 62.7, 73.2 76.8, 65.5 74.5 C 73.9 65.8, 72.9 15.0, 68.6 3.4 C 49.3 0.0, 30.0 80.1, 26.5 72.4 C 31.3 59.0, 37.3 36.9, 32.6 35.2 C 40.8 32.8, 18.6 21.9, 16.8 22.3 " fill="none" fill-opacity="0.89" stroke="hsl(83, 65%, 44%)" stroke-width="1.50"  transform="translate(91.3 1.0) rotate(209.8) scale(0.57 0.88)" />
<rect x="61.2" y="15.5" width="26.4" height="26.6" rx="16.7" fill="none" fill-opacity="0.72" stroke="hsl(183, 71%, 60%)" stroke-width="4.2"  transform="translate(47.2 22.0) rotate(218.4) scale(0.53 0.78)" />
<rect x="8.9" y="43.6" width="39.8" height="38.3" rx="11.5" fill="hsl(290, 83%, 63%)" fill-opacity="0.85" stroke="hsl(2, 82%, 55%)" stroke-width="3.1" filter="url(#f1)"  />
<circle cx="24.3" cy="54.5" r="4.2" fill="url(#g1)" fill-opacity="0.62"  transform="translate(48.1 94.6) rotate(219.3) scale(1.41 1.17)" />
<circle cx="68.8" cy="21.6" r="2.3" fill="hsl(144, 86%, 72%)" fill-opacity="0.52"   />
<path d="M 76.4 91.1 C 62.3 98.0, 65.2 18.0, 53.1 16.3 C 39.4 0.0, 41.6 49.1, 46.2 35.6 C 42.7 30.1, 88.4 19.0, 86.5 26.9 C 84.1 42.1, 72.4 19.4, 60.9 33.9 C 80.2 51.1, 9.9 22.0, 10.2 14.8 C 22.1 0.0, 77.7 19.1, 79.1 22.0 C 88.2 29.4, 57.9 80.4, 67.8 65.7 C 51.1 82.9, 35.5 86.4, 47.6 97.4 Z" fill="hsl(144, 86%, 72%)" fill-opacity="0.56" stroke="none" stroke-width="0.98"  transform="translate(16.1 70.6) rotate(232.8) scale(1.97 1.58)" />
<circle cx="50.2" cy="43.1" r="3.0" fill="hsl(83, 65%, 44%)" fill-opacity="0.59"  transform="translate(69.8 29.6) rotate(72.1) scale(1.35 1.87)" />
<rect x="47.5" y="39.5" width="34.9" height="38.6" rx="0" fill="hsl(40, 53%, 69%)" fill-opacity="0.57"   transform="translate(44.5 7.8) rotate(313.6) scale(1.14 0.54)" />
<path d="M 25.5 73.9 C 6.1 88.8, 100.0 55.3, 88.7 49.5 C 92.3 56.0, 51.3 66.0, 65.9 63.3 C 51.0 58.5, 69.1 83.3, 67.6 94.8 C 80.9 97.0, 36.3 49.8, 22.2 37.5 C 16.3 53.5, 33.2 60.5, 36.0 47.7 C 35.8 60.7, 70.6 59.9, 79.4 53.9 Z" fill="hsl(2, 82%, 55%)" fill-opacity="0.46" stroke="none" stroke-width="2.56"  transform="translate(92.9 93.1) rotate(337.8) scale(1.28 1.49)" />
<rect x="12.1" y="65.9" width="28.6" height="19.4" rx="0" fill="hsl(290, 83%, 63%)" fill-opacity="0.97"   transform="translate(38.2 52.2) rotate(75.3) scale(0.52 1.03)" />
<path d="M 72.5 22.9 C 78.5 3.6, 28.9 85.3, 38.1 88.1 C 55.5 100.0, 53.4 64.5, 66.7 54.2 C 80.7 44.4, 34.2 55.1, 36.2 47.0 C 44.7 54.1, 2.6 53.6, 13.7 67.3 C 0.0 80.0, 92.4 49.2, 89.3 60.1 C 76.8 78.3, 81.0 50.0, 81.2 64.8 C 85.3 80.5, 35.4 3.1, 25.7 13.3 C 31.3 0.0, 35.4 9.6, 22.0 12.2 C 22.6 19.3, 65.8 68.7, 62.2 79.6 C 44.2 64.0, 96.5 46.9, 98.7 39.4 Z" fill="hsl(83, 65%, 44%)" fill-opacity="0.47" stroke="none" stroke-width="3.58" filter="url(#f1)" transform="translate(41.3 91.1) rotate(51.0) scale(1.02 1.03)" />
<path d="M 43.5 45.9 C 37.2 46.0, 7.2 55.2, 9.0 53.3 C 4.1 69.0, 79.2 22.0, 77.9 31.3 C 86.8 19.5, 50.5 63.4, 46.1 52.0 C 40.0 59.3, 83.8 89.5, 73.2 92.9 C 85.9 98.1, 57.4 67.3, 66.2 62.5 C 48.7 79.6, 89.5 14.7, 85.0 27.0 C 69.5 23.1, 18.4 84.0, 18.0 89.1 Z" fill="hsl(2, 82%, 55%)" fill-opacity="0.49" stroke="none" stroke-width="2.41"  transform="translate(3.1 27.2) rotate(145.0) scale(1.23 1.06)" />
<rect x="15.8" y="8.7" width="28.9" height="35.7" rx="18.3" fill="hsl(106, 75%, 59%)" fill-opacity="0.54" stroke="hsl(242, 72%, 49%)" stroke-width="4.0"  transform="translate(33.2 54.0) rotate(210.8) scale(1.56 1.89)" />
<circle cx="42.0" cy="58.2" r="16.0" fill="url(#g1)" fill-opacity="0.86"  transform="translate(91.1 92.0) rotate(187.1) scale(0.68 1.11)" />
<path d="M 82.2 25.7 C 93.1 12.4, 45.8 63.2, 47.7 53.9 C 54.3 64.9, 1.1 91.0, 8.3 87.5 C 4.2 85.9, 39.5 43.2, 31.5 29.1 C 32.8 41.4, 63.6 34.6, 54.3 46.9 C 35.6 43.6, 20.6 82.3, 32.6 86.1 C 16.9 87.6, 96.5 19.0, 99.8 14.1 Z" fill="none" fill-opacity="0.44" stroke="hsl(2, 82%, 55%)" stroke-width="4.65"  transform="translate(82.0 50.4) rotate(343.6) scale(0.93 0.76)" />
<path d="M 3.9 78.7 C 3.3 87.8, 39.2 41.7, 49.1 56.0 C 53.0 57.0, 51.0 43.0, 49.4 40.0 C 61.6 39.8, 10.4 27.1, 16.5 27.9 C 15.3 44.4, 51.6 41.4, 49.1 55.9 C 49.2 50.4, 62.6 15.6, 62.9 7.4 C 80.8 19.3, 53.6 39.2, 46.1 51.5 C 39.2 36.3, 73.1 79.3, 85.7 66.7 C 78.7 72.0, 81.8 38.6, 71.5 40.1 Z" fill="none" fill-opacity="0.81" stroke="hsl(83, 65%, 44%)" stroke-width="2.61"  transform="translate(43.9 39.3) rotate(86.2) scale(0.98 1.95)" />
<path d="M 64.3 54.3 C 67.9 60.4, 0.5 45.0, 3.8 48.4 C 1.3 59.7, 44.2 33.5, 54.3 45.4 C 54.7 40.2, 91.0 23.1, 95.8 15.9 C 100.0 11.9, 13.8 53.2, 22.8 50.7 C 37.1 66.2, 85.9 72.7, 89.4 86.3 C 79.6 74.9, 15.2 37.2, 4.7 35.6 C 0.5 31.1, 65.3 75.4, 63.0 75.2 C 74.1 83.8, 75.7 89.0, 79.1 75.0 C 90.7 61.5, 52.1 28.4, 45.8 14.8 Z" fill="none" fill-opacity="0.60" stroke="hsl(2, 82%, 55%)" stroke-width="5.06"  transform="translate(9.8 70.0) rotate(111.7) scale(1.80 0.77)" />
<path d="M 35.0 13.3 C 47.9 0.0, 49.7 27.5, 44.1 33.1 C 56.2 46.9, 15.9 53.3, 1.0 44.1 C 14.3 60.0, 0.0 47.9, 0.8 55.5 C 3.7 38.4, 52.5 83.4, 41.0 77.9 C 37.1 60.3, 70.0 26.2, 69.3 19.4 C 78.0 36.5, 27.2 34.8, 28.8 20.6 C 20.7 27.5, 0.0 16.2, 2.6 4.3 C 14.9 16.7, 75.9 43.5, 69.4 57.0 C 87.1 40.9, 13.8 76.1, 12.0 74.4 C 8.7 91.5, 88.4 39.7, 94.8 47.7 Z" fill="hsl(86, 72%, 68%)" fill-opacity="0.46" stroke="none" stroke-width="2.57"  transform="translate(24.1 66.9) rotate(259.2) scale(0.52 1.40)" />
<path d="M 96.8 43.4 C 82.6 49.3, 50.2 77.1, 55.0 69.3 C 41.1 61.4, 14.3 43.9, 25.2 30.5 C 35.7 27.0, 19.6 63.7, 9.2 55.1 C 13.4 71.1, 88.2 68.5, 80.4 65.5 C 90.8 53.6, 6.0 0.0, 7.7 3.0 C 0.0 2.2, 100.0 41.8, 93.7 40.9 " fill="hsl(86, 72%, 68%)" fill-opacity="0.82" stroke="none" stroke-width="4.65"  transform="translate(62.7 3.8) rotate(284.3) scale(0.85 0.83)" />
<circle cx="89.6" cy="90.8" r="2.5" fill="hsl(2, 82%, 55%)" fill-opacity="0.95"  transform="translate(4.5 7.9) rotate(356.6) scale(0.81 1.67)" />
<path d="M 35.1 53.2 C 41.3 63.1, 46.6 11.2, 37.8 8.7 C 36.8 14.5, 29.1 97.8, 35.0 94.3 C 43.7 80.0, 62.4 89.6, 70.1 83.5 C 68.2 100.0, 26.2 20.3, 39.9 9.9 C 54.5 24.0, 69.5 17.9, 75.3 7.3 C 68.0 0.0, 56.2 46.0, 60.4 45.7 C 79.5 32.3, 83.1 12.1, 82.5 3.3 Z" fill="hsl(104, 72%, 65%)" fill-opacity="0.59" stroke="none" stroke-width="1.36"  transform="translate(65.7 34.6) rotate(160.2) scale(1.14 1.87)" />
<path d="M 34.8 70.6 C 26.6 75.5, 0.0 0.0, 3.8 3.4 C 19.7 10.7, 93.7 85.5, 98.4 78.8 C 97.4 90.1, 43.9 76.2, 40.3 71.3 C 27.4 83.4, 89.1 87.6, 95.0 85.8 C 100.0 89.6, 21.9 26.7, 32.2 38.9 C 13.7 25.8, 20.5 0.0, 28.4 1.5 C 20.4 5.7, 52.3 14.4, 39.5 20.7 C 48.7 20.4, 0.0 7.5, 2.2 4.4 C 0.0 0.0, 67.9 98.8, 76.8 91.5 Z" fill="none" fill-opacity="0.60" stroke="hsl(242, 72%, 49%)" stroke-width="4.87"  transform="translate(5.3 70.6) rotate(334.3) scale(1.15 1.53)" />
<path d="M 87.3 1.5 C 76.4 0.0, 65.4 24.0, 58.0 20.9 C 61.4 12.9, 50.2 41.2, 54.3 32.2 C 47.5 17.6, 8.7 100.0, 21.5 88.7 C 1.6 100.0, 62.9 27.1, 66.4 17.6 C 59.6 19.7, 93.2 61.6, 80.8 70.9 C 61.0 58.6, 6.8 15.8, 17.3 24.2 C 34.1 21.1, 100.0 38.6, 98.9 49.2 C 94.9 63.9, 9.3 100.0, 23.4 96.7 Z" fill="hsl(322, 74%, 44%)" fill-opacity="0.65" stroke="none" stroke-width="5.03"  transform="translate(53.0 36.1) rotate(132.9) scale(0.60 1.47)" />
<path d="M 2.8 97.1 C 6.7 100.0, 37.6 58.8, 23.7 61.2 C 28.4 43.0, 35.4 63.2, 42.0 50.5 C 58.7 43.5, 21.6 36.6, 23.7 43.8 C 36.1 39.5, 81.2 60.5, 73.9 47.7 C 59.1 29.7, 8.8 100.0, 10.9 99.7 C 22.8 100.0, 33.2 32.4, 22.0 23.8 Z" fill="none" fill-opacity="0.57" stroke="hsl(144, 86%, 72%)" stroke-width="4.70"  transform="translate(38.9 56.2) rotate(216.7) scale(1.23 0.77)" />
<circle cx="86.3" cy="60.3" r="7.5" fill="hsl(86, 72%, 68%)" fill-opacity="0.94"  transform="translate(94.3 7.2) rotate(340.9) scale(1.95 1.87)" />
<path d="M 29.9 31.8 C 18.7 30.2, 69.4 90.0, 60.8 89.5 C 52.4 90.3, 27.3 66.3, 28.4 53.2 C 11.5 44.0, 57.6 10.6, 44.5 15.1 C 50.0 18.4, 94.6 68.1, 89.2 79.2 C 70.5 77.7, 58.2 69.3, 45.6 57.3 C 65.1 41.0, 79.8 70.6, 68.4 80.6 C 68.7 68.9, 52.0 19.0, 42.3 22.6 C 56.6 22.0, 100.0 22.0, 91.9 34.7 C 88.5 28.9, 26.1 0.0, 33.0 3.2 Z" fill="hsl(144, 86%, 72%)" fill-opacity="0.87" stroke="none" stroke-width="1.20"  transform="translate(39.6 87.1) rotate(26.2) scale(1.83 1.38)" />
<path d="M 41.3 19.8 C 32.2 30.8, 64.5 14.5, 64.6 24.9 C 82.2 39.2, 13.9 71.9, 27.6 64.6 C 37.4 79.2, 80.7 37.1, 69.6 30.2 C 78.3 40.5, 31.4 54.3, 27.6 40.5 C 10.6 53.5, 0.0 42.2, 7.4 57.0 C 24.8 54.3, 83.0 45.3, 87.5 33.9 C 100.0 14.4, 57.2 14.7, 48.9 2.8 C 62.4 0.7, 26.0 39.7, 29.4 41.7 C 46.6 27.1, 25.9 53.1, 12.5 39.0 Z" fill="hsl(144, 86%, 72%)" fill-opacity="0.63" stroke="none" stroke-width="1.42"  transform="translate(61.4 43.0) rotate(197.7) scale(0.85 1.81)" />
<path d="M 53.1 22.3 C 39.6 20.3, 0.0 58.0, 4.9 45.4 C 0.0 42.5, 28.1 33.8, 26.6 43.6 C 28.6 62.7, 29.0 32.8, 28.8 27.2 C 9.1 32.7, 98.9 20.0, 90.6 28.0 C 73.3 46.2, 43.3 24.6, 29.3 31.3 C 35.1 35.0, 60.4 7.1, 48.1 8.7 C 61.6 0.0, 47.7 80.4, 51.0 85.6 C 47.6 85.4, 3.7 60.5, 2.9 73.1 C 1.2 71.1, 95.8 10.4, 81.7 18.0 C 66.4 4.1, 58.0 97.3, 58.2 93.2 Z" fill="hsl(322, 74%, 44%)" fill-opacity="0.45" stroke="none" stroke-width="3.23" filter="url(#f1)" transform="translate(33.9 42.2) rotate(35.4) scale(1.83 1.99)" />
<circle cx="70.0" cy="65.7" r="11.1" fill="url(#g1)" fill-opacity="0.65"   />
<path d="M 91.2 12.1 C 100.0 20.0, 60.4 66.7, 50.4 73.7 C 31.0 85.9, 19.3 85.8, 28.4 77.3 C 12.6 70.5, 24.5 2.7, 26.3 10.9 C 27.5 0.0, 20.5 8.2, 15.5 16.6 C 35.5 17.5, 100.0 35.0, 96.4 47.2 C 78.7 34.6, 56.4 12.5, 71.3 3.8 C 61.9 0.0, 13.1 39.3, 12.2 40.9 C 10.1 22.9, 69.0 0.0, 65.9 4.4 Z" fill="hsl(242, 72%, 49%)" fill-opacity="0.43" stroke="none" stroke-width="1.80"  transform="translate(96.5 16.1) rotate(286.1) scale(0.75 1.77)" />
<path d="M 89.8 18.8 C 80.0 37.8, 29.5 78.3, 15.9 84.9 C 22.7 75.2, 8.0 19.1, 22.7 31.5 C 32.1 30.4, 53.5 59.3, 64.3 69.3 C 44.7 82.5, 62.8 0.0, 66.7 0.1 C 58.3 0.0, 93.9 19.3, 92.0 20.0 C 77.4 19.0, 21.1 84.0, 21.2 96.1 C 39.7 100.0, 18.1 26.9, 17.1 41.2 C 3.9 34.2, 76.2 44.8, 67.7 37.1 C 77.6 25.8, 20.3 63.9, 32.2 65.6 C 29.7 78.2, 58.6 54.9, 59.6 54.1 Z" fill="hsl(104, 72%, 65%)" fill-opacity="0.40" stroke="none" stroke-width="2.19"   />
<path d="M 78.1 86.5 C 85.2 80.0, 42.3 24.4, 28.4 14.4 C 9.5 24.3, 44.6 74.5, 41.4 88.5 C 24.0 100.0, 64.4 4.9, 76.4 17.2 C 62.1 30.8, 3.7 6.4, 11.0 4.1 C 0.0 14.2, 19.1 26.8, 23.0 14.6 C 11.0 0.0, 31.0 8.8, 34.9 7.1 Z" fill="hsl(83, 65%, 44%)" fill-opacity="0.47" stroke="none" stroke-width="3.69"  transform="translate(63.5 7.5) rotate(72.7) scale(0.63 0.66)" />
<rect x="24.8" y="65.8" width="38.8" height="28.2" rx="3.8" fill="hsl(183, 71%, 60%)" fill-opacity="0.51"   transform="translate(74.4 19.7) rotate(236.2) scale(1.81 0.75)" />
<g opacity="0.079">
<rect x="0" y="0" width="1" height="100" fill="black" />
<rect x="22" y="0" width="1" height="100" fill="black" />
<rect x="44" y="0" width="1" height="100" fill="black" />
<rect x="66" y="0" width="1" height="100" fill="black" />
<rect x="88" y="0" width="1" height="100" fill="black" />
<rect x="0" y="0" width="100" height="1" fill="black" />
<rect x="0" y="22" width="100" height="1" fill="black" />
<rect x="0" y="44" width="100" height="1" fill="black" />
<rect x="0" y="66" width="100" height="1" fill="black" />
<rect x="0" y="88" width="100" height="1" fill="black" />
</g>

</svg>
