<?xml version="1.0" encoding="UTF-8"?>
<svg xmlns="http://www.w3.org/2000/svg" width="100" height="100" viewBox="0 0 100 100">
<defs>
<linearGradient id="g0" x1="0%" y1="0%" x2="100%" y2="100%">
<stop offset="0.0%" stop-color="hsl(106, 75%, 59%)" />
<stop offset="33.3%" stop-color="hsl(183, 71%, 60%)" />
<stop offset="66.7%" stop-color="hsl(242, 72%, 49%)" />
<stop offset="100.0%" stop-color="hsl(322, 74%, 44%)" />
</linearGradient>
<linearGradient id="g1" x1="0%" y1="0%" x2="100%" y2="100%">
<stop offset="0.0%" stop-color="hsl(290, 83%, 63%)" />
<stop offset="33.3%" stop-color="hsl(2, 82%, 55%)" />
<stop offset="66.7%" stop-color="hsl(86, 72%, 68%)" />
<stop offset="100.0%" stop-color="hsl(83, 65%, 44%)" />
</linearGradient>
<linearGradient id="g2" x1="0%" y1="0%" x2="100%" y2="100%">
<stop offset="0.0%" stop-color="hsl(40, 53%, 69%)" />
<stop offset="33.3%" stop-color="hsl(104, 72%, 65%)" />
<stop offset="66.7%" stop-color="hsl(144, 86%, 72%)" />
<stop offset="100.0%" stop-color="hsl(151, 70%, 62%)" />
</linearGradient>
</defs>

<path d="M 73.5 24.7 C 73.1 23.3, 9.4 9.4, 7.6 4.6 C 9.1 10.1, 7.1 94.4, 13.6 80.5 C 27.7 66.2, 7.2 14.0, 0.2 5.6 C 6.2 13.4, 49.0 41.9, 44.4 27.4 C 42.4 42.1, 15.7 18.3, 14.4 14.6 Z" fill="hsl(40, 53%, 69%)" fill-opacity="0.71" stroke="none" stroke-width="0.93"  transform="translate(37.2 89.7) rotate(66.5) scale(1.32 1.66)" />
<circle cx="43.1" cy="79.1" r="1.2" fill="hsl(40, 53%, 69%)" fill-opacity="0.43"   />
<circle cx="19.4" cy="31.2" r="0.1" fill="hsl(144, 86%, 72%)" fill-opacity="0.79"  transform="translate(75.6 53.3) rotate(60.8) scale(0.68 1.08)" />
<rect x="33.1" y="30.6" width="48.9" height="19.4" rx="0" fill="hsl(183, 71%, 60%)" fill-opacity="0.74"   transform="translate(60.1 60.1) rotate(132.7) scale(0.86 1.59)" />
<circle cx="70.9" cy="61.3" r="1.6" fill="hsl(322, 74%, 44%)" fill-opacity="0.83"   />
<path d="M 14.1 64.2 C 0.0 77.9, 79.2 58.8, 70.4 59.5 C 75.7 62.2, 0.0 50.4, 1.1 45.6 C 5.0 62.9, 37.4 56.3, 24.4 65.6 C 42.3 56.0, 61.3 40.0, 52.1 51.6 C 66.6 45.1, 93.4 88.0, 98.5 93.5 Z" fill="hsl(290, 83%, 63%)" fill-opacity="0.66" stroke="none" stroke-width="1.09"   />
<rect x="49.4" y="76.7" width="35.8" height="15.8" rx="0" fill="hsl(40, 53%, 69%)" fill-opacity="0.53" stroke="hsl(40, 53%, 69%)" stroke-width="2.3"   />
<rect x="55.8" y="77.6" width="40.6" height="19.9" rx="0" fill="hsl(2, 82%, 55%)" fill-opacity="0.41"   transform="translate(41.8 57.4) rotate(174.5) scale(0.55 0.87)" />
<path d="M 54.9 9.3 C 70.2 0.0, 0.0 65.3, 8.7 57.7 C 18.6 66.1, 78.7 13.9, 83.7 19.8 C 63.8 15.4, 78.6 26.1, 67.4 11.7 C 84.6 2.1, 74.1 13.8, 70.1 9.5 C 77.8 5.1, 47.1 14.1, 52.9 12.8 C 44.8 0.0, 98.5 9.2, 95.1 1.7 Z" fill="hsl(242, 72%, 49%)" fill-opacity="0.90" stroke="none" stroke-width="0.84"  transform="translate(90.3 46.6) rotate(338.5) scale(0.74 0.67)" />
<path d="M 3.1 68.5 C 0.0 65.4, 46.3 100.0, 55.5 96.0 C 47.4 100.0, 29.1 24.5, 29.4 25.2 C 36.8 18.6, 5.4 64.6, 18.1 70.6 C 0.2 74.2, 85.1 43.3, 87.8 39.5 C 94.8 28.9, 8.5 88.2, 21.4 76.2 " fill="hsl(144, 86%, 72%)" fill-opacity="0.97" stroke="none" stroke-width="0.85"  transform="translate(52.0 4.9) rotate(244.2) scale(1.84 0.75)" />
<circle cx="21.6" cy="24.9" r="0.9" fill="hsl(242, 72%, 49%)" fill-opacity="0.49"  transform="translate(52.3 67.5) rotate(7.4) scale(1.86 0.74)" />
<path d="M 78.2 43.3 C 78.0 26.5, 80.7 22.6, 90.0 25.8 C 91.9 19.5, 80.7 89.4, 80.5 95.2 C 69.3 100.0, 74.1 40.4, 86.5 31.5 C 90.6 44.0, 49.7 6.1, 47.2 9.4 C 32.9 0.0, 62.1 43.1, 61.0 57.1 C 46.1 75.7, 11.3 65.2, 7.6 67.3 " fill="hsl(83, 65%, 44%)" fill-opacity="0.86" stroke="none" stroke-width="1.28"  transform="translate(52.7 34.4) rotate(276.2) scale(0.71 1.89)" />
<circle cx="41.3" cy="31.0" r="0.3" fill="hsl(40, 53%, 69%)" fill-opacity="0.70"   />
<path d="M 16.3 70.6 C 21.4 63.1, 6.2 83.1, 3.2 80.5 C 18.6 70.0, 88.2 32.1, 83.9 32.5 C 76.5 22.5, 0.6 90.6, 14.9 98.8 C 11.2 100.0, 18.3 77.2, 14.2 73.0 C 0.0 74.3, 45.1 86.4, 35.8 94.5 C 29.1 100.0, 91.2 92.8, 85.5 99.0 C 75.2 83.9, 84.4 34.5, 73.4 39.7 " fill="hsl(322, 74%, 44%)" fill-opacity="0.67" stroke="none" stroke-width="0.92"  transform="translate(88.9 83.5) rotate(115.2) scale(1.52 0.91)" />
<path d="M 69.7 61.7 C 53.8 76.6, 48.1 70.0, 38.5 59.4 C 43.8 61.8, 37.9 45.2, 30.1 52.0 C 17.0 51.1, 72.9 85.0, 73.7 89.1 C 68.2 95.4, 72.9 12.0, 80.9 1.8 C 76.2 21.2, 15.9 53.9, 29.3 56.2 C 17.4 69.4, 77.8 70.0, 73.4 76.2 " fill="hsl(290, 83%, 63%)" fill-opacity="0.78" stroke="none" stroke-width="1.10"   />
</svg>
