<?xml version="1.0" encoding="UTF-8"?>
<svg xmlns="http://www.w3.org/2000/svg" width="100" height="100" viewBox="0 0 100 100">
<defs>
<linearGradient id="g0" x1="0%" y1="0%" x2="100%" y2="100%">
<stop offset="0.0%" stop-color="hsl(106, 75%, 59%)" />
<stop offset="33.3%" stop-color="hsl(183, 71%, 60%)" />
<stop offset="66.7%" stop-color="hsl(242, 72%, 49%)" />
<stop offset="100.0%" stop-color="hsl(322, 74%, 44%)" />
</linearGradient>
<linearGradient id="g1" x1="0%" y1="0%" x2="100%" y2="100%">
<stop offset="0.0%" stop-color="hsl(290, 83%, 63%)" />
<stop offset="33.3%" stop-color="hsl(2, 82%, 55%)" />
<stop offset="66.7%" stop-color="hsl(86, 72%, 68%)" />
<stop offset="100.0%" stop-color="hsl(83, 65%, 44%)" />
</linearGradient>
<linearGradient id="g2" x1="0%" y1="0%" x2="100%" y2="100%">
<stop offset="0.0%" stop-color="hsl(40, 53%, 69%)" />
<stop offset="33.3%" stop-color="hsl(104, 72%, 65%)" />
<stop offset="66.7%" stop-color="hsl(144, 86%, 72%)" />
<stop offset="100.0%" stop-color="hsl(151, 70%, 62%)" />
</linearGradient>
</defs>

<path d="M 85.3 40.1 C 100.0 32.9, 61.7 72.8, 72.4 85.8 C 82.4 72.4, 33.6 42.1, 35.3 37.0 C 31.5 33.8, 51.8 96.1, 55.6 84.7 C 35.7 88.1, 32.1 100.0, 21.8 98.4 Z" fill="none" fill-opacity="0.83" stroke="hsl(106, 75%, 59%)" stroke-width="1.01"   />
<path d="M 59.8 69.1 C 66.5 79.2, 11.5 16.8, 26.0 7.1 C 8.0 0.0, 1.4 0.0, 15.3 2.4 C 10.4 10.2, 12.8 75.8, 17.0 84.2 C 33.2 75.5, 89.6 69.7, 88.1 72.5 C 77.1 61.4, 53.1 77.7, 47.9 88.9 C 53.7 72.0, 26.5 65.0, 15.7 50.8 Z" fill="none" fill-opacity="0.70" stroke="hsl(322, 74%, 44%)" stroke-width="0.99"   />
<path d="M 96.3 44.5 C 100.0 54.2, 46.5 94.1, 34.2 93.2 C 15.3 80.3, 72.2 20.4, 77.2 12.1 C 77.8 7.4, 52.1 18.4, 49.5 5.2 C 35.8 24.8, 59.1 42.1, 65.1 43.0 C 79.8 53.9, 54.5 25.8, 43.7 18.4 Z" fill="none" fill-opacity="0.69" stroke="hsl(104, 72%, 65%)" stroke-width="0.93"   />
<rect x="24.1" y="54.0" width="48.9" height="14.0" rx="14.3" fill="none" fill-opacity="0.30" stroke="hsl(144, 86%, 72%)" stroke-width="3.1"  transform="translate(7.8 1.9) rotate(312.0) scale(1.66 1.44)" />
<path d="M 74.0 45.2 C 64.7 36.6, 88.7 75.3, 87.5 75.2 C 74.0 75.8, 72.2 13.7, 71.0 27.0 C 51.7 39.0, 64.9 18.5, 56.1 27.2 C 70.5 38.3, 7.9 27.6, 8.9 32.4 C 8.5 41.2, 81.4 21.1, 75.8 20.4 C 68.3 26.1, 41.2 80.8, 56.1 86.1 " fill="none" fill-opacity="0.83" stroke="hsl(83, 65%, 44%)" stroke-width="1.12"   />
<circle cx="3.3" cy="66.2" r="1.2" fill="hsl(40, 53%, 69%)" fill-opacity="0.81"  transform="translate(62.6 49.6) rotate(257.8) scale(1.05 1.47)" />
<path d="M 56.5 74.3 C 69.8 91.6, 10.2 51.2, 3.8 50.3 C 0.0 65.6, 57.5 62.2, 61.0 49.0 C 78.0 66.6, 27.7 29.6, 23.0 33.9 Z" fill="hsl(144, 86%, 72%)" fill-opacity="0.86" stroke="none" stroke-width="0.92"   />
<rect x="2.7" y="9.1" width="45.5" height="38.0" rx="0" fill="hsl(151, 70%, 62%)" fill-opacity="0.48" stroke="hsl(104, 72%, 65%)" stroke-width="3.0"  transform="translate(31.9 37.7) rotate(80.4) scale(1.45 1.44)" />
<path d="M 18.3 1.0 C 24.2 0.0, 10.0 34.7, 5.6 25.1 C 3.9 19.1, 75.6 100.0, 61.2 93.4 C 64.3 86.7, 9.0 64.9, 15.1 79.5 C 10.5 90.4, 4.5 80.2, 3.0 75.7 C 10.9 62.5, 91.7 75.6, 80.9 85.0 C 92.6 91.9, 24.0 0.0, 12.9 5.0 C 0.0 10.6, 59.8 56.9, 50.7 67.1 " fill="hsl(151, 70%, 62%)" fill-opacity="0.35" stroke="none" stroke-width="1.14"  transform="translate(98.4 62.0) rotate(46.9) scale(1.49 1.55)" />
<path d="M 23.2 19.0 C 38.8 16.0, 14.4 33.3, 1.4 25.6 C 0.0 42.4, 80.3 61.3, 66.3 58.6 C 73.5 60.9, 9.7 73.2, 14.5 82.2 C 21.0 99.5, 67.7 63.4, 63.5 52.5 C 60.3 44.5, 76.2 88.4, 66.8 99.7 C 62.0 100.0, 56.2 38.7, 58.5 26.2 " fill="none" fill-opacity="0.68" stroke="hsl(83, 65%, 44%)" stroke-width="1.19"   />
</svg>
