<?xml version="1.0" encoding="UTF-8"?>
<svg xmlns="http://www.w3.org/2000/svg" width="100" height="100" viewBox="0 0 100 100">
<defs>
<linearGradient id="g0" x1="0%" y1="0%" x2="100%" y2="100%">
<stop offset="0.0%" stop-color="hsl(106, 75%, 59%)" />
<stop offset="33.3%" stop-color="hsl(183, 71%, 60%)" />
<stop offset="66.7%" stop-color="hsl(242, 72%, 49%)" />
<stop offset="100.0%" stop-color="hsl(322, 74%, 44%)" />
</linearGradient>
<linearGradient id="g1" x1="0%" y1="0%" x2="100%" y2="100%">
<stop offset="0.0%" stop-color="hsl(290, 83%, 63%)" />
<stop offset="33.3%" stop-color="hsl(2, 82%, 55%)" />
<stop offset="66.7%" stop-color="hsl(86, 72%, 68%)" />
<stop offset="100.0%" stop-color="hsl(83, 65%, 44%)" />
</linearGradient>
<linearGradient id="g2" x1="0%" y1="0%" x2="100%" y2="100%">
<stop offset="0.0%" stop-color="hsl(40, 53%, 69%)" />
<stop offset="33.3%" stop-color="hsl(104, 72%, 65%)" />
<stop offset="66.7%" stop-color="hsl(144, 86%, 72%)" />
<stop offset="100.0%" stop-color="hsl(151, 70%, 62%)" />
</linearGradient>
</defs>

<path d="M 38.2 17.4 C 38.4 4.6, 100.0 83.7, 91.1 92.9 C 85.0 84.3, 89.6 79.8, 89.4 72.4 C 92.1 64.4, 85.7 77.1, 71.1 67.3 C 87.0 83.0, 63.1 91.4, 56.2 81.5 C 54.4 74.1, 44.0 25.2, 48.9 12.0 C 62.8 9.1, 87.2 56.1, 91.7 58.8 Z" fill="none" fill-opacity="0.76" stroke="hsl(2, 82%, 55%)" stroke-width="1.04"  transform="translate(9.3 38.3) rotate(84.4) scale(1.81 1.14)" />
<path d="M 19.0 2.3 C 29.1 3.2, 13.9 6.3, 6.7 15.0 C 0.0 14.5, 82.9 49.3, 96.3 38.1 C 100.0 26.1, 48.9 0.0, 44.5 1.0 C 30.5 0.0, 0.0 57.9, 2.5 58.9 " fill="none" fill-opacity="0.71" stroke="hsl(40, 53%, 69%)" stroke-width="0.88"  transform="translate(21.4 19.9) rotate(35.0) scale(1.98 1.07)" />
<circle cx="80.5" cy="24.0" r="0.5" fill="hsl(40, 53%, 69%)" fill-opacity="0.97"   />
<path d="M 25.6 99.1 C 13.2 91.5, 97.3 22.4, 94.0 15.5 C 93.9 21.3, 14.4 86.1, 8.1 91.3 C 27.9 93.7, 25.8 17.4, 17.7 22.3 C 26.9 30.9, 44.3 7.6, 49.2 2.0 C 32.4 0.0, 71.8 27.8, 76.4 25.5 C 81.0 35.7, 35.3 94.5, 36.7 86.8 Z" fill="hsl(83, 65%, 44%)" fill-opacity="0.99" stroke="none" stroke-width="0.95"  transform="translate(49.9 72.1) rotate(289.6) scale(0.98 0.97)" />
<rect x="6.8" y="15.3" width="28.4" height="20.2" rx="2.9" fill="none" fill-opacity="0.27"    />
<rect x="21.9" y="66.6" width="31.6" height="17.4" rx="11.4" fill="hsl(86, 72%, 68%)" fill-opacity="0.43" stroke="hsl(2, 82%, 55%)" stroke-width="3.2"  transform="translate(54.8 18.3) rotate(298.3) scale(0.56 1.99)" />
<path d="M 63.2 3.4 C 56.8 0.0, 26.1 21.9, 20.0 8.0 C 5.5 0.0, 0.0 53.0, 2.2 49.1 C 19.8 39.7, 4.6 25.6, 15.1 35.2 C 11.2 33.5, 24.1 39.6, 36.1 46.7 C 20.7 55.8, 55.0 63.1, 52.8 51.0 C 33.4 48.7, 32.6 21.2, 33.7 27.5 C 47.1 39.1, 76.5 72.4, 87.3 65.2 Z" fill="hsl(104, 72%, 65%)" fill-opacity="0.62" stroke="none" stroke-width="1.10"  transform="translate(17.3 37.4) rotate(140.1) scale(1.84 0.67)" />
<rect x="12.5" y="50.7" width="31.3" height="11.0" rx="2.9" fill="hsl(290, 83%, 63%)" fill-opacity="0.34"    />
<path d="M 43.1 95.6 C 34.6 87.0, 74.2 17.7, 65.3 20.1 C 72.2 21.6, 75.1 28.3, 60.7 14.5 C 42.4 28.1, 29.4 98.9, 16.5 99.8 C 3.6 98.6, 84.5 49.0, 73.0 56.4 C 78.8 41.3, 67.2 13.2, 66.7 21.6 Z" fill="hsl(290, 83%, 63%)" fill-opacity="0.26" stroke="none" stroke-width="1.27"  transform="translate(98.9 90.6) rotate(98.1) scale(1.29 0.61)" />
<rect x="48.0" y="63.6" width="49.8" height="18.7" rx="12.6" fill="none" fill-opacity="0.45" stroke="hsl(144, 86%, 72%)" stroke-width="4.9"   />
<path d="M 71.2 92.2 C 84.9 97.2, 77.9 100.0, 76.4 94.4 C 76.3 100.0, 85.5 47.3, 96.6 48.0 C 83.0 53.3, 0.2 40.2, 0.7 31.7 " fill="hsl(104, 72%, 65%)" fill-opacity="0.99" stroke="none" stroke-width="1.12"  transform="translate(32.2 22.8) rotate(158.6) scale(0.71 1.94)" />
<path d="M 40.3 24.2 C 24.7 9.2, 79.6 49.1, 65.5 41.2 C 52.9 35.5, 55.9 7.4, 56.6 6.1 C 61.0 19.1, 96.7 60.8, 97.6 64.9 C 99.1 69.9, 76.3 32.3, 75.0 46.7 " fill="hsl(104, 72%, 65%)" fill-opacity="0.74" stroke="none" stroke-width="0.99"   />
<path d="M 80.4 4.0 C 88.8 7.1, 94.4 7.5, 90.6 16.5 C 70.9 29.9, 19.0 14.9, 28.2 18.5 C 45.3 15.4, 47.3 46.8, 39.2 60.8 C 21.2 49.6, 30.0 23.7, 23.3 24.4 C 38.4 37.5, 76.6 27.2, 71.4 28.7 C 79.0 47.0, 80.2 48.1, 72.4 53.2 Z" fill="hsl(322, 74%, 44%)" fill-opacity="0.77" stroke="none" stroke-width="1.17"   />
<path d="M 12.4 14.4 C 8.3 0.0, 56.6 13.7, 51.9 15.5 C 51.5 9.9, 55.3 30.1, 64.5 30.8 C 81.7 47.5, 10.5 67.9, 21.9 80.3 C 18.0 80.9, 70.8 71.7, 81.2 80.2 C 61.8 95.5, 28.3 52.3, 24.1 64.5 C 6.1 63.4, 23.0 85.7, 37.1 83.7 C 34.7 89.9, 32.0 44.4, 36.2 47.9 " fill="hsl(106, 75%, 59%)" fill-opacity="0.33" stroke="none" stroke-width="1.29"   />
</svg>
