<?xml version="1.0" encoding="UTF-8"?>
<svg xmlns="http://www.w3.org/2000/svg" width="100" height="100" viewBox="0 0 100 100">
<defs>
<linearGradient id="g0" x1="0%" y1="0%" x2="100%" y2="100%">
<stop offset="0.0%" stop-color="hsl(106, 75%, 59%)" />
<stop offset="33.3%" stop-color="hsl(183, 71%, 60%)" />
<stop offset="66.7%" stop-color="hsl(242, 72%, 49%)" />
<stop offset="100.0%" stop-color="hsl(322, 74%, 44%)" />
</linearGradient>
<linearGradient id="g1" x1="0%" y1="0%" x2="100%" y2="100%">
<stop offset="0.0%" stop-color="hsl(290, 83%, 63%)" />
<stop offset="33.3%" stop-color="hsl(2, 82%, 55%)" />
<stop offset="66.7%" stop-color="hsl(86, 72%, 68%)" />
<stop offset="100.0%" stop-color="hsl(83, 65%, 44%)" />
</linearGradient>
<linearGradient id="g2" x1="0%" y1="0%" x2="100%" y2="100%">
<stop offset="0.0%" stop-color="hsl(40, 53%, 69%)" />
<stop offset="33.3%" stop-color="hsl(104, 72%, 65%)" />
<stop offset="66.7%" stop-color="hsl(144, 86%, 72%)" />
<stop offset="100.0%" stop-color="hsl(151, 70%, 62%)" />
</linearGradient>
<filter id="f1" x="-20%" y="-20%" width="140%" height="140%">
  <feGaussianBlur stdDeviation="1.9207005615547268" />
</filter>

</defs>

<path d="M 6.6 60.3 C 0.0 64.6, 10.8 100.0, 12.6 93.7 C 15.9 75.7, 51.6 45.6, 52.9 55.0 C 57.8 67.6, 54.4 30.2, 61.4 28.3 C 67.0 24.3, 12.9 0.0, 24.1 0.9 C 12.5 4.7, 57.7 26.2, 58.9 31.7 C 41.6 27.9, 86.7 39.2, 99.1 24.4 C 83.8 30.4, 90.1 22.0, 83.3 7.9 C 76.6 19.6, 69.7 24.3, 68.9 21.8 C 81.3 30.7, 57.7 62.9, 61.5 71.0 Z" fill="hsl(151, 70%, 62%)" fill-opacity="0.65" stroke="none" stroke-width="1.22"  transform="translate(0.1 67.9) rotate(229.2) scale(1.34 1.15)" />
<rect x="20.7" y="42.9" width="32.7" height="32.2" rx="7.9" fill="hsl(86, 72%, 68%)" fill-opacity="0.59"   transform="translate(19.2 22.1) rotate(138.4) scale(1.35 0.62)" />
<path d="M 61.2 18.4 C 54.5 6.6, 63.0 1.9, 56.2 11.7 C 47.4 2.8, 56.1 59.3, 45.0 50.5 C 31.2 60.6, 93.4 7.5, 91.7 22.4 C 79.5 9.9, 66.1 25.0, 55.2 36.2 C 67.6 47.2, 53.1 14.2, 47.6 12.5 C 66.4 0.0, 37.9 9.8, 25.3 19.8 Z" fill="hsl(322, 74%, 44%)" fill-opacity="0.99" stroke="none" stroke-width="3.91" filter="url(#f1)" transform="translate(94.8 33.8) rotate(190.2) scale(1.80 0.97)" />
<path d="M 97.3 65.7 C 78.4 67.0, 2.1 43.8, 5.2 31.1 C 20.3 40.0, 27.4 36.4, 14.3 50.9 C 0.6 62.2, 100.0 88.0, 94.6 79.0 C 77.8 59.5, 68.7 6.8, 60.4 20.6 C 78.4 0.7, 26.2 95.0, 16.0 83.7 C 7.0 82.7, 77.3 65.1, 74.0 67.3 C 70.7 64.9, 48.5 13.4, 60.6 13.9 Z" fill="hsl(104, 72%, 65%)" fill-opacity="0.44" stroke="none" stroke-width="4.02"  transform="translate(95.1 32.5) rotate(156.1) scale(0.68 1.03)" />
<rect x="79.5" y="24.4" width="20.5" height="32.1" rx="0" fill="hsl(2, 82%, 55%)" fill-opacity="0.48"  filter="url(#f1)" transform="translate(70.1 96.5) rotate(225.6) scale(1.24 0.78)" />
<circle cx="53.9" cy="68.4" r="13.8" fill="hsl(183, 71%, 60%)" fill-opacity="0.77"  transform="translate(20.2 7.5) rotate(221.6) scale(1.87 1.37)" />
<rect x="46.8" y="37.9" width="33.3" height="28.3" rx="0" fill="none" fill-opacity="0.37"    />
<rect x="18.3" y="39.6" width="28.6" height="34.8" rx="7.0" fill="hsl(322, 74%, 44%)" fill-opacity="0.92"   transform="translate(52.8 31.2) rotate(11.7) scale(0.51 0.88)" />
<rect x="37.9" y="7.7" width="22.0" height="17.7" rx="12.1" fill="hsl(322, 74%, 44%)" fill-opacity="0.24" stroke="hsl(106, 75%, 59%)" stroke-width="1.7"   />
<path d="M 64.4 84.1 C 59.2 83.8, 100.0 55.9, 88.3 59.1 C 81.2 41.6, 100.0 62.0, 99.0 53.2 C 100.0 61.8, 100.0 44.6, 87.8 51.9 C 92.6 42.9, 57.2 71.8, 71.2 61.0 C 79.4 68.1, 29.1 93.6, 27.5 82.6 C 38.5 68.0, 0.0 58.7, 0.1 72.3 C 12.1 76.7, 3.9 100.0, 18.7 98.2 C 15.2 98.5, 61.3 77.5, 60.8 76.4 C 44.3 80.9, 45.0 77.5, 35.6 86.2 C 41.0 69.7, 39.0 75.7, 44.6 77.2 Z" fill="none" fill-opacity="0.42" stroke="hsl(290, 83%, 63%)" stroke-width="3.08"   />
<path d="M 39.6 67.1 C 59.1 78.0, 54.0 32.3, 66.7 19.0 C 61.8 2.9, 31.4 52.0, 40.7 40.8 C 47.6 56.0, 89.0 2.7, 93.7 14.5 C 93.7 6.1, 93.6 52.8, 79.0 41.9 C 83.8 52.1, 97.7 60.6, 85.2 73.9 C 72.1 65.3, 55.1 97.2, 50.2 99.3 C 49.2 91.9, 88.6 18.5, 98.0 16.4 C 78.2 16.4, 44.6 81.6, 32.6 96.3 C 37.3 83.7, 37.0 39.1, 26.6 47.8 Z" fill="hsl(290, 83%, 63%)" fill-opacity="0.52" stroke="none" stroke-width="2.66" filter="url(#f1)" transform="translate(95.6 90.8) rotate(350.3) scale(1.47 1.24)" />
<path d="M 67.0 95.1 C 61.0 80.2, 16.8 26.6, 4.4 26.3 C 0.0 31.1, 37.7 32.8, 35.9 33.4 C 50.3 28.3, 89.5 100.0, 97.6 96.7 C 99.4 96.9, 23.6 11.6, 26.9 17.0 C 39.0 14.3, 72.9 57.7, 59.2 48.2 C 49.2 42.0, 28.4 76.9, 27.9 88.1 C 29.8 100.0, 51.6 90.0, 46.7 94.6 Z" fill="none" fill-opacity="0.84" stroke="hsl(83, 65%, 44%)" stroke-width="4.27"  transform="translate(66.2 40.6) rotate(1.8) scale(1.51 1.15)" />
<circle cx="36.7" cy="85.3" r="1.5" fill="hsl(83, 65%, 44%)" fill-opacity="0.83"  transform="translate(0.2 26.9) rotate(304.8) scale(0.89 1.39)" />
<circle cx="97.9" cy="80.6" r="3.9" fill="url(#g0)" fill-opacity="0.82"  transform="translate(11.8 50.7) rotate(92.7) scale(0.73 1.62)" />
<rect x="7.3" y="12.0" width="49.0" height="25.9" rx="11.0" fill="hsl(40, 53%, 69%)" fill-opacity="0.84"   transform="translate(74.1 40.5) rotate(90.7) scale(0.52 1.69)" />
<path d="M 36.1 74.5 C 36.3 77.6, 40.8 62.7, 45.6 64.6 C 26.1 84.1, 92.9 4.6, 79.4 0.3 C 86.9 0.0, 96.9 86.2, 87.4 73.8 C 100.0 83.0, 17.7 31.6, 25.3 21.0 C 17.8 6.0, 9.2 10.1, 7.4 15.1 C 8.0 14.7, 23.2 53.1, 10.7 61.5 " fill="hsl(322, 74%, 44%)" fill-opacity="0.45" stroke="none" stroke-width="4.09"  transform="translate(76.5 74.7) rotate(77.6) scale(1.05 0.56)" />
<circle cx="82.2" cy="89.3" r="12.9" fill="hsl(86, 72%, 68%)" fill-opacity="0.89"  transform="translate(91.4 65.1) rotate(61.0) scale(1.94 0.56)" />
<rect x="32.3" y="59.0" width="30.9" height="26.4" rx="18.6" fill="none" fill-opacity="0.49"  filter="url(#f1)" transform="translate(34.7 64.6) rotate(194.9) scale(0.96 0.85)" />
<path d="M 96.5 13.1 C 100.0 15.2, 97.8 86.2, 92.9 87.3 C 97.1 85.1, 0.0 93.8, 2.8 85.3 C 21.5 89.8, 63.5 16.4, 73.9 15.3 C 60.7 13.0, 0.0 30.9, 7.1 21.5 C 0.0 13.2, 74.5 69.3, 83.7 60.9 C 93.3 48.3, 91.0 15.0, 98.8 15.8 C 97.5 30.6, 90.5 77.4, 86.8 80.9 Z" fill="none" fill-opacity="0.55" stroke="hsl(290, 83%, 63%)" stroke-width="2.60" filter="url(#f1)" transform="translate(73.7 42.3) rotate(337.3) scale(1.83 0.66)" />
<circle cx="53.0" cy="97.8" r="1.5" fill="url(#g1)" fill-opacity="0.65" filter="url(#f1)" transform="translate(8.9 29.0) rotate(127.1) scale(1.82 1.64)" />
<rect x="34.6" y="52.5" width="36.0" height="33.4" rx="14.1" fill="hsl(104, 72%, 65%)" fill-opacity="0.64" stroke="hsl(151, 70%, 62%)" stroke-width="4.5"  transform="translate(14.7 56.9) rotate(166.8) scale(1.72 0.80)" />
<rect x="23.0" y="5.1" width="22.7" height="16.7" rx="0" fill="none" fill-opacity="0.98"   transform="translate(42.6 17.7) rotate(227.0) scale(1.55 1.15)" />
<path d="M 41.3 3.7 C 32.8 4.3, 10.3 99.4, 13.6 94.3 C 29.2 76.9, 76.4 75.4, 78.7 77.0 C 90.1 70.2, 60.8 17.9, 73.0 6.1 C 56.1 21.7, 48.6 61.0, 37.2 64.1 C 37.3 47.6, 30.9 4.1, 38.9 16.4 C 38.7 34.5, 100.0 59.9, 95.0 70.8 C 84.1 73.9, 100.0 23.2, 92.7 8.8 " fill="hsl(322, 74%, 44%)" fill-opacity="0.64" stroke="none" stroke-width="5.02"  transform="translate(55.2 10.1) rotate(274.6) scale(1.65 0.79)" />
<path d="M 71.1 13.9 C 52.2 28.7, 47.7 40.2, 49.5 32.4 C 66.9 21.0, 71.1 30.6, 84.8 30.8 C 94.7 40.8, 20.7 76.9, 21.3 64.4 C 34.5 59.4, 89.0 41.7, 96.9 50.5 C 100.0 49.5, 65.8 47.0, 71.2 54.0 C 85.7 65.3, 23.0 70.0, 34.2 79.7 C 39.1 72.6, 64.1 0.0, 52.4 11.0 C 50.3 13.0, 33.3 40.5, 33.1 47.7 Z" fill="hsl(322, 74%, 44%)" fill-opacity="0.53" stroke="none" stroke-width="5.04"  transform="translate(28.4 14.3) rotate(343.4) scale(1.99 1.64)" />
<path d="M 80.7 83.2 C 82.6 93.3, 54.0 87.1, 59.8 93.7 C 78.8 78.0, 75.6 61.6, 82.2 48.0 C 86.9 61.3, 77.3 61.9, 83.0 73.4 C 74.3 60.8, 39.0 60.0, 34.0 71.3 C 25.1 75.7, 0.0 69.2, 9.2 72.0 C 11.6 76.2, 76.8 38.7, 91.1 35.1 C 74.8 18.1, 64.1 7.8, 59.6 18.4 Z" fill="none" fill-opacity="0.48" stroke="hsl(242, 72%, 49%)" stroke-width="3.97"  transform="translate(5.4 3.8) rotate(234.4) scale(1.48 1.37)" />
<circle cx="19.4" cy="79.7" r="0.5" fill="hsl(104, 72%, 65%)" fill-opacity="0.71" filter="url(#f1)" transform="translate(80.0 41.8) rotate(92.6) scale(1.12 1.10)" />
<path d="M 2.7 84.8 C 0.0 76.7, 22.2 11.9, 37.2 4.8 C 40.1 21.8, 31.8 23.0, 39.7 19.0 C 48.9 27.4, 100.0 59.5, 97.9 46.5 C 83.6 40.8, 0.0 20.7, 4.4 17.4 C 21.5 24.7, 6.2 100.0, 4.8 98.6 C 0.0 99.3, 38.1 18.3, 46.9 7.6 " fill="none" fill-opacity="0.63" stroke="hsl(2, 82%, 55%)" stroke-width="4.09"  transform="translate(57.9 28.7) rotate(283.8) scale(1.46 1.15)" />
<rect x="8.4" y="44.8" width="32.1" height="19.0" rx="0" fill="none" fill-opacity="0.61"   transform="translate(62.6 59.9) rotate(166.1) scale(0.62 1.07)" />
<path d="M 50.0 84.4 C 62.9 76.3, 60.7 0.9, 51.1 13.9 C 60.0 31.9, 3.7 77.4, 0.9 87.9 C 0.0 94.7, 85.3 37.5, 90.0 37.2 C 76.5 43.5, 7.2 0.0, 11.6 12.0 C 0.0 22.9, 94.9 100.0, 88.8 96.9 C 99.1 85.5, 9.5 73.5, 1.8 71.8 C 15.4 77.7, 62.4 50.7, 73.9 42.3 C 71.9 31.1, 100.0 39.4, 97.9 31.1 C 100.0 18.6, 80.0 74.2, 84.6 77.2 Z" fill="none" fill-opacity="0.64" stroke="hsl(242, 72%, 49%)" stroke-width="1.27"  transform="translate(76.6 48.6) rotate(112.2) scale(1.18 1.43)" />
<path d="M 70.1 86.2 C 80.1 73.8, 22.9 65.4, 23.9 63.9 C 33.2 60.6, 36.1 46.3, 47.4 46.8 C 42.2 40.9, 80.9 63.8, 73.4 63.0 C 79.7 78.7, 8.0 32.7, 0.8 26.7 C 0.0 23.7, 46.5 19.9, 42.5 26.6 C 55.9 36.0, 0.0 29.3, 7.9 34.6 C 22.1 32.8, 64.5 63.4, 73.2 58.2 Z" fill="hsl(144, 86%, 72%)" fill-opacity="0.39" stroke="none" stroke-width="2.96"  transform="translate(72.7 89.3) rotate(37.9) scale(1.16 0.97)" />
<rect x="45.3" y="66.7" width="23.6" height="28.0" rx="0" fill="none" fill-opacity="0.91"   transform="translate(44.0 2.6) rotate(185.2) scale(1.91 1.98)" />
<path d="M 25.9 74.1 C 17.6 69.4, 77.1 66.3, 69.7 70.8 C 59.8 71.6, 88.1 64.4, 84.2 72.8 C 87.2 55.2, 44.5 38.8, 40.7 31.8 C 32.1 27.9, 0.0 26.8, 9.3 28.7 C 29.0 18.6, 85.4 21.2, 95.0 9.0 C 83.8 0.0, 43.7 65.6, 50.2 72.7 C 61.9 70.4, 79.4 0.0, 73.1 9.2 C 74.0 18.8, 16.7 25.5, 24.0 20.0 Z" fill="hsl(86, 72%, 68%)" fill-opacity="0.35" stroke="none" stroke-width="3.18"  transform="translate(25.8 85.0) rotate(120.7) scale(1.88 1.81)" />
<path d="M 6.1 27.2 C 0.0 32.2, 85.6 57.5, 73.9 65.3 C 60.5 47.9, 15.4 59.7, 27.3 59.4 C 25.7 57.9, 97.8 0.7, 87.7 0.9 C 95.6 0.0, 24.9 99.5, 29.6 96.0 C 24.2 88.1, 13.0 95.7, 5.8 87.7 C 20.1 76.2, 90.4 50.1, 84.2 58.1 Z" fill="hsl(242, 72%, 49%)" fill-opacity="0.61" stroke="none" stroke-width="2.10"  transform="translate(77.0 14.9) rotate(179.0) scale(1.34 1.64)" />
<path d="M 60.9 31.9 C 77.2 38.5, 53.0 0.0, 64.9 1.2 C 64.0 11.3, 51.6 22.4, 38.4 14.5 C 44.7 17.2, 97.6 94.2, 86.3 79.7 C 97.9 69.6, 30.5 18.2, 19.1 24.8 C 13.8 31.9, 13.1 87.2, 17.8 74.7 C 0.0 74.2, 89.2 34.1, 88.6 25.2 Z" fill="hsl(83, 65%, 44%)" fill-opacity="0.91" stroke="none" stroke-width="4.25"   />
<circle cx="86.2" cy="32.8" r="1.3" fill="hsl(2, 82%, 55%)" fill-opacity="0.64"   />
<path d="M 74.8 13.6 C 57.2 18.1, 70.9 100.0, 66.6 96.2 C 79.6 80.7, 12.0 79.4, 12.7 72.2 C 11.3 60.6, 87.3 0.0, 89.6 0.5 C 82.0 18.2, 33.6 100.0, 19.6 92.0 C 12.5 79.9, 18.0 80.1, 5.6 94.9 C 19.7 94.4, 30.9 65.4, 36.3 60.7 C 38.3 63.9, 87.8 92.0, 98.7 95.5 C 100.0 89.2, 0.0 62.7, 7.0 71.4 C 3.4 83.2, 70.3 20.0, 73.9 14.0 C 86.2 4.2, 84.2 27.8, 79.4 19.9 " fill="none" fill-opacity="0.43" stroke="hsl(183, 71%, 60%)" stroke-width="2.82"  transform="translate(78.2 62.8) rotate(36.5) scale(0.85 1.33)" />
<rect x="26.2" y="69.8" width="31.7" height="15.1" rx="10.8" fill="hsl(151, 70%, 62%)" fill-opacity="0.76" stroke="hsl(104, 72%, 65%)" stroke-width="4.8"  transform="translate(30.8 37.4) rotate(47.2) scale(1.14 0.56)" />
<path d="M 51.1 18.6 C 58.4 10.2, 57.3 91.5, 53.5 93.2 C 59.4 97.5, 83.8 67.6, 81.5 81.5 C 61.8 86.4, 8.9 4.6, 3.1 4.1 C 6.3 0.0, 36.1 47.9, 45.5 51.9 C 36.3 69.5, 80.4 63.9, 81.7 49.7 C 77.9 55.5, 42.1 55.1, 39.6 49.6 C 34.1 41.5, 31.9 8.0, 26.1 16.2 C 41.5 3.3, 7.7 12.3, 16.6 12.8 Z" fill="hsl(183, 71%, 60%)" fill-opacity="0.31" stroke="none" stroke-width="2.77"  transform="translate(65.2 18.0) rotate(256.7) scale(1.46 1.07)" />
<path d="M 84.3 55.2 C 97.1 71.5, 100.0 15.6, 99.7 29.1 C 89.9 30.4, 0.0 60.8, 3.4 69.2 C 0.0 84.6, 0.0 18.4, 12.8 14.1 C 21.4 0.0, 78.0 65.7, 80.1 61.4 C 67.2 42.1, 88.1 16.6, 77.3 13.1 C 86.6 1.9, 43.3 13.6, 57.0 15.3 Z" fill="none" fill-opacity="0.55" stroke="hsl(322, 74%, 44%)" stroke-width="1.11"  transform="translate(34.9 90.2) rotate(84.1) scale(1.30 1.87)" />
<rect x="34.0" y="37.7" width="22.9" height="28.5" rx="0" fill="none" fill-opacity="0.55"   transform="translate(33.2 10.2) rotate(97.5) scale(1.10 1.82)" />
<rect x="36.5" y="69.8" width="47.5" height="20.7" rx="0" fill="hsl(183, 71%, 60%)" fill-opacity="0.53" stroke="hsl(322, 74%, 44%)" stroke-width="4.1"   />
<path d="M 19.4 37.9 C 16.6 20.0, 89.0 45.4, 90.2 55.0 C 87.9 55.0, 55.1 12.1, 65.7 10.3 C 70.2 9.5, 46.2 76.7, 55.6 87.3 C 43.4 100.0, 3.9 2.8, 16.4 0.4 C 1.0 0.0, 15.8 58.6, 11.9 47.5 C 17.9 49.5, 91.1 24.1, 97.6 34.7 C 100.0 48.4, 85.6 57.9, 79.5 45.9 Z" fill="hsl(144, 86%, 72%)" fill-opacity="0.79" stroke="none" stroke-width="2.56"  transform="translate(42.8 44.2) rotate(265.9) scale(1.46 1.65)" />
<path d="M 10.6 15.7 C 18.2 14.8, 87.8 59.3, 75.3 50.1 C 74.3 62.6, 82.9 23.2, 80.6 14.2 C 94.4 5.5, 19.9 99.0, 34.1 92.5 C 31.4 100.0, 6.0 79.3, 11.3 88.6 C 11.3 78.9, 55.0 35.8, 67.1 34.3 C 86.1 52.6, 57.8 15.5, 51.2 22.5 Z" fill="hsl(40, 53%, 69%)" fill-opacity="0.45" stroke="none" stroke-width="4.88"  transform="translate(1.3 24.2) rotate(11.5) scale(0.80 0.54)" />
<path d="M 31.2 79.5 C 21.6 90.1, 24.7 0.0, 22.8 2.9 C 34.3 0.0, 17.0 37.9, 31.7 52.3 C 16.9 36.1, 14.0 95.3, 21.6 87.1 C 9.2 100.0, 21.4 62.9, 11.5 49.5 C 9.9 39.0, 22.7 91.1, 17.5 77.3 C 6.8 67.4, 82.4 0.0, 76.2 7.0 C 64.1 0.0, 37.9 16.0, 25.3 19.3 C 39.2 24.9, 87.9 71.2, 76.9 59.9 C 86.3 54.2, 13.7 3.8, 11.8 17.4 C 10.1 9.3, 41.6 58.0, 52.0 66.4 Z" fill="none" fill-opacity="0.28" stroke="hsl(104, 72%, 65%)" stroke-width="2.69"  transform="translate(32.3 94.7) rotate(311.1) scale(1.83 1.37)" />
<path d="M 83.6 63.4 C 93.6 62.0, 44.2 63.2, 46.0 55.7 C 52.6 42.3, 62.3 10.2, 62.0 9.0 C 56.3 0.0, 93.0 8.2, 89.2 17.9 C 98.0 0.0, 20.8 66.8, 22.7 55.3 C 34.2 65.0, 69.8 8.6, 79.3 1.4 C 94.0 15.3, 36.1 51.0, 48.7 65.2 C 49.6 59.4, 67.6 47.6, 73.4 47.9 " fill="hsl(83, 65%, 44%)" fill-opacity="0.98" stroke="none" stroke-width="3.71"  transform="translate(46.7 30.5) rotate(302.5) scale(1.94 0.61)" />
<path d="M 8.2 38.1 C 12.5 46.4, 53.8 24.8, 56.1 24.3 C 59.0 26.8, 88.5 80.3, 84.2 82.8 C 100.0 75.9, 21.1 55.2, 9.2 51.1 C 0.7 48.0, 93.3 80.5, 84.8 85.2 C 81.3 94.6, 20.4 30.5, 32.7 17.5 C 29.4 31.1, 26.1 49.2, 11.4 48.2 C 19.2 45.4, 89.7 25.0, 83.8 35.0 C 100.0 30.5, 73.5 56.8, 81.1 49.2 C 69.8 65.9, 19.0 15.7, 13.6 4.1 C 7.3 0.0, 28.6 0.0, 32.9 6.6 Z" fill="hsl(40, 53%, 69%)" fill-opacity="0.58" stroke="none" stroke-width="4.67"  transform="translate(11.1 30.6) rotate(79.7) scale(0.66 1.91)" />
<path d="M 75.0 99.1 C 87.0 81.7, 7.6 49.3, 12.9 35.2 C 0.0 29.5, 19.9 0.0, 8.8 5.1 C 0.0 16.7, 26.9 27.1, 17.4 25.0 C 6.1 29.9, 85.2 93.0, 71.9 95.4 C 90.9 100.0, 88.7 85.2, 74.1 75.4 C 69.5 60.0, 98.6 29.6, 96.7 31.0 C 100.0 20.8, 43.8 44.9, 40.9 54.3 C 22.4 36.0, 36.6 70.0, 51.6 65.3 C 62.5 53.5, 60.3 93.8, 67.5 85.8 Z" fill="hsl(104, 72%, 65%)" fill-opacity="0.52" stroke="none" stroke-width="1.66"  transform="translate(82.1 24.4) rotate(234.4) scale(1.13 0.80)" />
<path d="M 75.5 71.3 C 80.7 56.6, 88.4 85.4, 85.8 80.7 C 94.4 85.9, 36.3 58.5, 34.9 54.5 C 46.1 48.8, 20.7 61.1, 32.8 54.0 C 39.4 65.6, 10.6 20.0, 7.4 27.3 C 13.1 7.8, 91.3 20.3, 87.6 23.9 C 85.2 37.4, 100.0 1.9, 100.0 2.3 C 92.4 0.0, 11.7 41.1, 18.4 46.5 C 0.0 29.2, 100.0 30.2, 98.0 37.7 C 100.0 55.9, 21.4 49.7, 25.0 39.0 C 41.0 52.2, 0.0 75.1, 12.2 75.3 Z" fill="none" fill-opacity="0.36" stroke="hsl(106, 75%, 59%)" stroke-width="3.42"  transform="translate(9.2 49.4) rotate(26.3) scale(1.94 1.04)" />
<circle cx="38.2" cy="12.2" r="7.8" fill="hsl(86, 72%, 68%)" fill-opacity="0.67"  transform="translate(29.2 0.7) rotate(358.6) scale(0.97 2.00)" />
<circle cx="61.1" cy="41.3" r="2.4" fill="hsl(290, 83%, 63%)" fill-opacity="0.95"  transform="translate(80.1 80.3) rotate(28.7) scale(1.17 1.62)" />
<path d="M 57.9 41.1 C 68.1 51.2, 19.5 94.3, 11.2 83.2 C 4.5 100.0, 81.6 69.0, 92.5 67.6 C 91.0 78.2, 71.0 68.6, 60.8 72.7 C 80.7 81.7, 90.5 56.6, 91.0 67.5 C 94.2 83.1, 84.6 89.6, 85.7 86.7 C 81.6 83.7, 15.5 68.6, 29.0 79.3 C 14.6 92.6, 54.6 28.6, 55.7 29.3 C 51.2 26.7, 34.5 64.5, 41.7 73.8 C 38.5 73.7, 57.1 25.4, 58.0 12.6 C 57.8 20.1, 45.5 9.0, 45.7 8.9 Z" fill="hsl(322, 74%, 44%)" fill-opacity="0.91" stroke="none" stroke-width="5.08"  transform="translate(58.5 0.6) rotate(112.8) scale(1.83 0.58)" />
<circle cx="93.1" cy="58.1" r="6.5" fill="url(#g0)" fill-opacity="0.94"  transform="translate(98.4 13.2) rotate(256.2) scale(1.78 1.01)" />
<rect x="18.0" y="18.6" width="25.1" height="34.3" rx="0" fill="hsl(290, 83%, 63%)" fill-opacity="0.96"   transform="translate(6.7 1.8) rotate(70.0) scale(1.83 1.84)" />
<path d="M 90.2 53.4 C 100.0 64.5, 65.7 0.0, 54.8 7.6 C 59.1 4.4, 0.0 68.3, 4.4 76.2 C 0.0 80.5, 21.1 10.7, 32.5 1.9 C 12.7 0.0, 34.4 22.5, 25.3 16.1 C 39.3 0.0, 77.4 33.3, 77.9 29.2 C 70.2 25.7, 88.9 31.2, 80.7 34.9 C 96.4 34.7, 89.8 7.3, 88.7 19.8 C 76.3 38.0, 54.2 13.3, 40.7 19.8 Z" fill="hsl(2, 82%, 55%)" fill-opacity="0.50" stroke="none" stroke-width="3.15"  transform="translate(55.1 63.4) rotate(129.5) scale(0.52 1.69)" />
<circle cx="53.7" cy="44.4" r="4.8" fill="hsl(104, 72%, 65%)" fill-opacity="0.81"  transform="translate(28.6 25.0) rotate(194.9) scale(1.85 0.75)" />
<path d="M 52.6 16.3 C 58.0 0.0, 68.2 6.9, 67.9 5.1 C 54.4 2.4, 32.5 93.4, 47.2 83.0 C 63.2 63.6, 64.9 73.5, 62.2 70.4 C 78.1 81.5, 94.3 87.4, 99.1 100.0 C 100.0 100.0, 44.3 46.6, 40.0 39.2 C 45.4 53.1, 8.3 15.1, 7.0 7.1 Z" fill="hsl(40, 53%, 69%)" fill-opacity="0.90" stroke="none" stroke-width="1.48"  transform="translate(6.4 0.2) rotate(171.4) scale(1.99 0.81)" />
<path d="M 15.3 40.9 C 25.7 58.4, 55.0 86.4, 44.8 91.0 C 42.9 88.0, 72.4 17.7, 58.7 28.6 C 43.4 45.7, 43.7 9.0, 46.2 13.2 C 45.6 8.4, 73.2 37.4, 87.3 33.9 C 96.5 14.1, 0.0 81.9, 9.3 92.7 C 2.5 88.2, 62.4 55.1, 48.9 49.7 C 43.2 56.5, 83.2 81.5, 87.9 93.8 C 100.0 99.5, 52.5 81.7, 47.4 96.3 C 52.6 100.0, 100.0 6.0, 95.0 10.2 C 85.0 0.0, 32.8 45.6, 31.4 49.0 Z" fill="none" fill-opacity="0.88" stroke="hsl(106, 75%, 59%)" stroke-width="4.00"  transform="translate(81.3 19.8) rotate(122.7) scale(0.95 1.62)" />
<path d="M 48.2 78.1 C 53.7 98.1, 78.4 26.9, 74.6 41.3 C 56.4 45.8, 93.0 52.8, 96.7 59.0 C 100.0 66.2, 0.0 38.0, 0.2 28.5 C 12.6 13.9, 28.1 46.1, 35.6 58.7 C 48.7 71.1, 22.0 92.0, 19.7 87.4 C 27.0 73.6, 14.1 79.5, 10.6 94.3 C 22.4 81.7, 63.1 43.0, 72.0 40.1 Z" fill="hsl(86, 72%, 68%)" fill-opacity="0.42" stroke="none" stroke-width="4.23"  transform="translate(3.1 75.1) rotate(347.3) scale(1.80 1.42)" />
<path d="M 35.5 70.6 C 41.1 81.4, 47.3 63.9, 41.4 78.5 C 35.9 91.5, 79.9 35.5, 72.1 44.3 C 52.3 56.8, 20.8 93.0, 29.3 82.2 C 20.8 91.3, 64.0 49.2, 58.1 44.3 C 46.1 48.6, 0.0 80.7, 1.9 89.4 C 19.7 89.4, 23.0 3.9, 21.5 7.2 C 12.6 0.0, 100.0 95.5, 89.2 90.3 C 88.1 100.0, 35.5 30.3, 23.2 38.1 C 15.9 36.6, 8.7 84.2, 17.6 96.4 Z" fill="hsl(40, 53%, 69%)" fill-opacity="0.33" stroke="none" stroke-width="3.18"  transform="translate(61.4 47.4) rotate(181.5) scale(0.76 1.28)" />
<rect x="47.6" y="13.0" width="48.9" height="34.4" rx="3.9" fill="none" fill-opacity="0.54"   transform="translate(10.0 88.6) rotate(3.7) scale(1.35 0.88)" />
<path d="M 79.9 73.3 C 89.7 74.4, 100.0 33.7, 99.1 21.2 C 100.0 3.2, 18.3 27.3, 22.5 33.2 C 42.4 50.4, 53.4 38.4, 66.3 27.1 C 51.6 31.8, 76.2 52.4, 90.0 54.6 C 86.2 72.0, 53.8 87.6, 50.6 81.2 C 31.5 92.5, 25.6 90.2, 35.2 89.2 C 29.3 74.4, 44.3 100.0, 49.2 99.8 Z" fill="hsl(290, 83%, 63%)" fill-opacity="0.31" stroke="none" stroke-width="1.72"  transform="translate(7.8 63.6) rotate(55.9) scale(0.55 0.61)" />
<rect x="47.4" y="74.6" width="39.4" height="17.0" rx="0" fill="hsl(151, 70%, 62%)" fill-opacity="0.88"    />
<path d="M 39.2 48.8 C 56.7 57.4, 40.0 13.5, 34.3 22.4 C 34.9 31.8, 84.0 75.1, 75.7 79.1 C 67.7 66.7, 56.4 31.8, 53.7 32.6 C 38.5 30.1, 0.0 67.7, 10.1 81.1 C 29.0 87.9, 69.7 81.0, 78.6 88.1 C 91.5 69.3, 10.8 25.1, 22.2 14.0 C 8.7 0.0, 67.2 91.3, 63.5 90.1 C 52.0 71.7, 49.8 0.0, 34.8 0.5 Z" fill="hsl(144, 86%, 72%)" fill-opacity="0.87" stroke="none" stroke-width="2.94"  transform="translate(22.6 15.1) rotate(310.0) scale(1.19 1.50)" />
<path d="M 63.3 35.2 C 43.9 40.7, 82.6 95.0, 75.0 89.1 C 94.8 73.8, 81.7 66.6, 68.9 73.7 C 53.1 89.2, 29.4 26.8, 38.3 31.5 C 57.9 14.3, 84.4 43.6, 82.2 36.5 C 79.2 25.3, 58.2 3.5, 59.9 16.0 C 60.6 33.1, 38.4 8.3, 32.3 7.7 C 49.6 24.9, 21.7 73.6, 31.4 60.6 Z" fill="none" fill-opacity="0.82" stroke="hsl(322, 74%, 44%)" stroke-width="2.41"  transform="translate(21.7 30.7) rotate(206.7) scale(0.58 0.75)" />
<path d="M 73.3 29.2 C 54.0 23.8, 88.5 6.1, 74.0 4.3 C 77.6 11.0, 7.9 96.6, 5.1 92.3 C 0.0 96.2, 6.8 80.4, 8.2 93.0 C 20.5 98.3, 52.3 95.1, 55.9 98.2 C 72.1 87.0, 59.8 97.3, 55.9 97.7 C 47.6 100.0, 56.4 47.7, 57.9 49.3 C 38.5 44.6, 37.4 5.5, 26.1 0.4 C 27.4 8.8, 77.5 0.0, 68.9 10.4 Z" fill="hsl(2, 82%, 55%)" fill-opacity="0.55" stroke="none" stroke-width="4.32"  transform="translate(55.1 74.3) rotate(70.8) scale(1.01 1.94)" />
<path d="M 48.4 49.4 C 58.3 36.7, 72.7 32.2, 59.9 28.9 C 63.8 18.4, 98.9 43.6, 84.3 56.8 C 95.2 68.9, 2.5 33.6, 15.2 41.5 C 14.3 48.5, 89.1 0.0, 79.3 1.5 C 75.7 15.8, 0.0 42.3, 4.8 29.8 C 0.0 31.6, 11.6 27.9, 8.6 26.3 C 28.0 30.3, 20.8 8.1, 22.1 9.5 Z" fill="none" fill-opacity="0.90" stroke="hsl(183, 71%, 60%)" stroke-width="1.35" filter="url(#f1)"  />
<path d="M 99.6 65.0 C 100.0 46.5, 34.5 24.9, 41.8 21.2 C 49.6 3.3, 54.2 100.0, 46.7 96.9 C 63.7 80.3, 3.8 66.4, 0.9 67.9 C 0.0 65.8, 0.9 56.5, 12.2 63.8 C 28.5 82.4, 45.5 45.1, 39.6 53.2 C 50.8 49.1, 11.6 32.6, 17.4 19.3 C 17.4 13.9, 95.5 37.4, 84.6 43.2 C 100.0 54.4, 96.3 95.8, 87.4 82.8 C 85.9 77.1, 62.9 80.0, 55.3 80.7 C 52.2 65.1, 50.1 27.9, 58.3 15.6 Z" fill="hsl(106, 75%, 59%)" fill-opacity="0.81" stroke="none" stroke-width="4.25"  transform="translate(98.5 13.2) rotate(173.9) scale(0.65 1.43)" />
<path d="M 82.7 67.3 C 91.4 71.1, 43.0 70.3, 55.2 81.5 C 47.1 74.0, 100.0 11.3, 96.8 19.1 C 100.0 30.3, 100.0 88.9, 89.9 84.7 C 91.7 66.4, 47.2 51.9, 39.7 46.6 C 26.7 27.3, 100.0 0.0, 98.8 2.0 C 100.0 1.9, 91.8 56.6, 88.1 62.5 Z" fill="hsl(104, 72%, 65%)" fill-opacity="0.95" stroke="none" stroke-width="4.54"   />
<path d="M 88.0 52.0 C 82.5 34.3, 17.0 78.0, 3.9 71.2 C 0.9 84.8, 18.0 31.0, 23.0 28.6 C 16.4 21.4, 24.2 95.6, 24.1 99.7 C 43.2 100.0, 100.0 49.5, 95.5 37.5 C 89.5 43.1, 76.1 77.3, 70.5 83.2 C 82.6 91.3, 0.0 4.2, 10.1 9.8 C 11.2 17.0, 66.7 37.7, 76.2 31.1 C 75.2 50.2, 10.9 34.5, 3.0 28.8 C 10.6 40.2, 0.0 9.5, 13.1 16.0 C 19.4 28.7, 38.5 50.2, 36.8 57.5 Z" fill="hsl(151, 70%, 62%)" fill-opacity="0.68" stroke="none" stroke-width="0.94"  transform="translate(4.9 69.5) rotate(211.6) scale(1.04 0.69)" />
<path d="M 55.8 54.4 C 39.1 71.4, 39.0 51.0, 42.0 44.9 C 38.3 54.4, 24.3 80.5, 17.7 88.1 C 0.0 80.4, 66.3 72.0, 74.7 78.2 C 71.2 83.4, 26.0 25.3, 39.1 11.3 C 40.8 25.9, 0.0 79.4, 1.3 92.9 C 13.5 77.5, 59.1 33.0, 64.2 26.8 C 68.8 12.0, 81.2 64.6, 88.6 49.7 Z" fill="none" fill-opacity="0.89" stroke="hsl(151, 70%, 62%)" stroke-width="2.37"   />
<rect x="54.4" y="63.6" width="20.7" height="11.4" rx="0" fill="hsl(106, 75%, 59%)" fill-opacity="0.26" stroke="hsl(322, 74%, 44%)" stroke-width="2.6"  transform="translate(67.2 19.6) rotate(256.3) scale(1.14 1.85)" />
<path d="M 11.8 49.5 C 14.4 46.5, 65.9 75.9, 75.2 62.3 C 89.1 44.9, 37.5 50.9, 44.7 48.1 C 57.3 56.5, 7.0 83.2, 7.8 95.4 C 0.0 78.6, 45.0 22.9, 47.8 15.9 C 49.1 0.0, 79.0 75.6, 80.0 86.4 C 71.1 82.4, 25.0 90.4, 31.9 97.9 C 14.7 90.6, 28.5 66.5, 30.5 71.6 C 47.7 90.3, 90.8 64.7, 83.6 68.3 Z" fill="hsl(104, 72%, 65%)" fill-opacity="0.52" stroke="none" stroke-width="2.64"  transform="translate(66.8 81.8) rotate(90.3) scale(0.88 1.23)" />
<path d="M 42.8 46.5 C 58.6 50.8, 100.0 75.4, 98.1 82.2 C 94.6 70.3, 24.5 30.0, 10.4 39.6 C 0.0 26.4, 64.2 57.1, 78.5 49.5 C 72.9 47.5, 88.3 16.2, 94.5 22.7 C 100.0 19.5, 17.0 92.9, 6.9 88.2 C 5.1 96.7, 58.8 34.5, 46.9 45.2 C 44.7 48.8, 15.2 53.3, 3.0 61.2 C 20.9 65.5, 25.5 43.4, 29.5 30.3 Z" fill="hsl(86, 72%, 68%)" fill-opacity="0.45" stroke="none" stroke-width="1.91"  transform="translate(88.4 64.2) rotate(60.2) scale(0.72 1.19)" />
<rect x="67.0" y="9.9" width="21.1" height="26.0" rx="6.5" fill="hsl(40, 53%, 69%)" fill-opacity="0.54" stroke="hsl(151, 70%, 62%)" stroke-width="1.8"  transform="translate(9.5 93.3) rotate(61.5) scale(1.77 0.98)" />
<path d="M 64.0 10.7 C 68.1 9.3, 0.0 44.0, 9.7 51.3 C 18.0 59.2, 15.3 0.0, 5.6 1.1 C 18.9 0.0, 46.7 17.1, 54.4 23.5 C 50.9 12.6, 100.0 74.8, 99.6 85.8 C 99.0 79.6, 75.5 93.6, 78.4 91.0 C 91.8 95.1, 86.5 37.5, 72.1 26.7 C 56.3 11.6, 78.7 0.0, 72.2 8.0 C 54.6 5.2, 77.7 69.9, 90.9 66.1 C 100.0 53.4, 0.0 50.3, 2.5 43.6 Z" fill="none" fill-opacity="0.39" stroke="hsl(322, 74%, 44%)" stroke-width="1.15"  transform="translate(11.4 68.9) rotate(54.4) scale(1.53 1.29)" />
<path d="M 54.0 73.2 C 38.2 56.3, 85.3 94.5, 77.9 87.8 C 68.8 100.0, 26.9 28.3, 20.1 15.0 C 29.4 30.2, 23.1 56.1, 31.4 61.1 C 45.7 65.0, 71.9 94.3, 77.0 80.9 C 60.2 99.9, 44.9 93.5, 44.9 92.3 C 63.8 100.0, 29.4 28.1, 34.7 22.5 C 32.8 11.0, 16.3 29.9, 25.9 32.6 Z" fill="hsl(183, 71%, 60%)" fill-opacity="0.25" stroke="none" stroke-width="1.79"  transform="translate(52.8 77.2) rotate(57.3) scale(1.44 0.61)" />
<rect x="59.0" y="1.4" width="20.1" height="31.8" rx="0.2" fill="hsl(290, 83%, 63%)" fill-opacity="0.33"   transform="translate(44.6 56.9) rotate(284.4) scale(1.18 0.94)" />
<path d="M 91.6 16.0 C 74.8 25.6, 80.9 73.2, 95.0 60.3 C 100.0 69.9, 100.0 31.4, 87.6 19.9 C 68.2 24.0, 65.8 16.0, 51.0 15.1 C 49.0 18.4, 8.7 7.0, 15.9 21.5 C 3.5 31.1, 55.9 100.0, 43.0 96.2 C 40.5 93.3, 97.3 80.6, 97.6 75.0 C 95.5 60.5, 5.6 11.7, 3.5 22.5 Z" fill="none" fill-opacity="0.98" stroke="hsl(106, 75%, 59%)" stroke-width="1.38"  transform="translate(54.2 43.8) rotate(38.5) scale(0.59 1.84)" />
<path d="M 28.0 65.4 C 22.0 78.5, 96.7 60.4, 96.3 71.6 C 92.8 77.6, 25.1 0.0, 33.5 1.7 C 16.8 0.0, 70.7 73.6, 85.2 68.6 C 92.0 52.1, 76.9 100.0, 76.7 90.5 C 84.4 79.8, 0.9 73.1, 8.6 81.2 C 19.6 90.6, 4.5 54.3, 10.7 58.7 C 16.0 61.0, 9.8 100.0, 9.7 98.1 Z" fill="hsl(83, 65%, 44%)" fill-opacity="0.39" stroke="none" stroke-width="1.95"  transform="translate(41.9 83.0) rotate(264.7) scale(1.20 1.65)" />
<path d="M 98.2 78.8 C 100.0 93.2, 52.8 8.0, 58.6 11.0 C 68.3 9.2, 2.5 54.5, 2.6 47.7 C 1.8 46.9, 81.5 76.9, 90.1 75.7 C 79.9 63.0, 56.9 69.7, 48.7 67.8 C 45.6 76.7, 75.4 9.7, 76.2 15.8 C 56.6 19.6, 46.5 54.1, 54.7 43.0 C 41.0 32.7, 87.2 14.1, 99.3 7.6 C 98.6 19.2, 14.2 0.0, 26.6 1.8 Z" fill="none" fill-opacity="0.54" stroke="hsl(104, 72%, 65%)" stroke-width="1.36" filter="url(#f1)" transform="translate(65.4 75.6) rotate(184.2) scale(1.15 1.36)" />
<path d="M 72.8 25.1 C 63.0 10.9, 26.6 45.6, 30.0 49.6 C 10.2 43.7, 80.6 61.3, 74.5 51.9 C 73.9 54.0, 96.0 0.0, 96.3 0.8 C 84.8 0.0, 3.5 95.4, 8.2 83.6 C 13.9 97.3, 59.7 27.8, 72.4 18.6 C 79.8 18.2, 84.1 56.2, 85.5 63.3 C 70.9 66.9, 53.3 100.0, 57.8 94.0 C 68.8 100.0, 41.1 61.5, 53.7 72.6 C 56.4 57.1, 33.1 62.6, 31.2 72.3 C 43.8 63.1, 5.9 90.3, 0.7 79.8 Z" fill="none" fill-opacity="0.58" stroke="hsl(2, 82%, 55%)" stroke-width="2.35"  transform="translate(45.2 14.7) rotate(315.2) scale(1.90 1.48)" />
<path d="M 23.5 38.6 C 27.0 41.5, 69.4 70.6, 83.6 83.3 C 89.5 97.5, 51.6 29.9, 63.6 21.1 C 52.1 9.8, 52.9 62.8, 57.9 74.3 C 53.7 61.5, 8.6 83.6, 2.6 97.0 C 14.0 100.0, 28.5 23.8, 17.7 31.9 C 9.0 50.8, 100.0 49.9, 93.7 54.4 C 100.0 73.7, 21.4 51.2, 12.0 47.0 C 0.0 32.5, 5.2 91.5, 16.4 79.8 C 20.2 67.5, 14.8 81.0, 11.8 85.9 C 5.0 95.5, 0.0 29.0, 5.3 39.6 " fill="hsl(322, 74%, 44%)" fill-opacity="0.30" stroke="none" stroke-width="2.79"  transform="translate(40.0 34.6) rotate(188.0) scale(1.76 1.21)" />
<path d="M 84.5 38.7 C 73.9 56.1, 34.8 34.7, 20.7 27.2 C 25.1 20.1, 58.9 37.4, 67.5 31.0 C 52.7 16.6, 89.2 79.6, 92.8 88.5 C 100.0 94.4, 50.8 29.7, 45.9 34.9 C 47.4 46.5, 55.3 56.9, 53.9 57.8 C 43.4 57.4, 74.7 58.0, 82.5 46.3 C 92.4 54.1, 60.8 3.5, 74.3 17.5 C 83.7 11.4, 0.0 78.2, 3.5 67.5 C 0.0 74.3, 80.6 26.0, 94.7 29.3 C 78.9 26.5, 67.9 90.9, 54.6 98.0 Z" fill="hsl(40, 53%, 69%)" fill-opacity="0.71" stroke="none" stroke-width="3.92"  transform="translate(52.2 41.4) rotate(317.6) scale(1.86 1.35)" />
<path d="M 56.8 18.9 C 52.5 33.3, 6.8 67.6, 0.2 64.1 C 0.8 68.4, 46.2 15.7, 46.0 12.5 C 39.4 16.2, 29.8 60.0, 33.0 55.4 C 26.5 35.5, 83.2 49.6, 83.9 59.0 C 93.2 72.7, 61.5 35.9, 74.5 22.6 C 81.5 41.0, 77.0 25.8, 64.7 29.1 C 46.3 36.6, 69.7 76.1, 58.1 81.5 C 41.6 97.6, 84.4 5.5, 81.8 18.6 C 78.6 23.3, 64.1 16.8, 74.9 30.8 Z" fill="hsl(106, 75%, 59%)" fill-opacity="0.26" stroke="none" stroke-width="2.50"  transform="translate(4.3 94.0) rotate(113.5) scale(0.67 0.66)" />
<path d="M 2.2 74.2 C 0.0 72.2, 75.2 58.3, 69.5 50.1 C 83.1 51.1, 53.8 41.7, 40.7 52.7 C 37.2 34.2, 76.0 17.2, 66.0 19.2 C 72.1 23.3, 43.6 54.1, 42.7 61.7 C 47.9 59.7, 36.9 75.2, 40.1 86.8 C 20.3 100.0, 12.7 23.4, 2.8 36.6 C 0.0 49.7, 83.6 63.3, 89.2 50.9 C 100.0 48.3, 68.2 14.8, 66.3 11.0 C 66.0 22.3, 32.2 78.1, 23.7 81.9 Z" fill="none" fill-opacity="0.34" stroke="hsl(242, 72%, 49%)" stroke-width="1.80"  transform="translate(81.6 51.2) rotate(245.5) scale(1.26 1.44)" />
<path d="M 98.6 15.8 C 100.0 8.6, 5.0 36.3, 8.6 38.2 C 0.0 36.6, 89.6 16.4, 96.7 26.2 C 90.8 20.0, 100.0 78.0, 99.7 88.4 C 81.6 74.9, 62.2 94.0, 54.5 95.0 C 38.5 91.9, 56.2 83.0, 53.2 86.3 C 54.1 70.7, 22.9 85.8, 28.3 75.2 C 17.8 57.0, 91.6 76.7, 91.5 87.5 C 78.8 98.1, 24.2 0.0, 22.7 11.4 C 26.3 0.0, 77.7 5.3, 67.9 1.1 C 54.8 0.0, 82.9 41.3, 77.4 53.2 Z" fill="hsl(104, 72%, 65%)" fill-opacity="0.95" stroke="none" stroke-width="1.16" filter="url(#f1)" transform="translate(83.1 4.8) rotate(160.5) scale(1.33 1.80)" />
<path d="M 94.6 50.7 C 99.3 50.8, 70.3 18.9, 82.9 21.1 C 67.5 20.6, 60.3 65.7, 70.4 54.5 C 80.8 58.8, 60.7 33.2, 64.2 46.5 C 72.0 36.0, 41.1 23.4, 38.0 11.8 C 28.8 6.9, 27.4 18.1, 38.4 4.2 C 28.2 22.5, 36.9 35.4, 42.4 35.9 C 62.0 45.3, 33.1 16.2, 37.3 7.1 C 56.0 0.0, 76.3 21.5, 71.9 29.4 C 91.4 47.0, 0.0 19.0, 3.1 12.3 C 8.8 22.4, 48.8 85.3, 33.9 76.3 Z" fill="hsl(2, 82%, 55%)" fill-opacity="0.51" stroke="none" stroke-width="4.71"  transform="translate(12.5 52.4) rotate(328.0) scale(1.98 0.70)" />
<path d="M 21.8 30.1 C 8.9 21.2, 40.5 38.7, 46.1 39.9 C 65.0 51.2, 52.3 2.3, 38.7 8.4 C 50.6 0.0, 16.3 29.2, 11.8 19.1 C 2.8 13.1, 34.2 88.0, 29.9 88.0 C 22.8 88.9, 72.1 6.6, 61.2 17.6 C 54.5 22.3, 0.0 92.8, 0.3 96.2 C 14.2 92.7, 56.0 71.8, 68.4 81.1 C 56.9 93.5, 15.5 27.2, 20.8 38.5 Z" fill="hsl(83, 65%, 44%)" fill-opacity="0.29" stroke="none" stroke-width="3.77"  transform="translate(10.6 80.2) rotate(82.0) scale(0.76 1.35)" />
<rect x="44.4" y="58.5" width="48.0" height="39.5" rx="6.9" fill="none" fill-opacity="0.86"    />
<rect x="9.5" y="43.4" width="35.9" height="32.6" rx="13.3" fill="none" fill-opacity="0.39"  filter="url(#f1)" transform="translate(76.2 39.5) rotate(307.2) scale(0.92 1.76)" />
<rect x="43.5" y="58.5" width="26.5" height="24.8" rx="17.6" fill="hsl(83, 65%, 44%)" fill-opacity="0.39" stroke="hsl(2, 82%, 55%)" stroke-width="1.9"   />
<path d="M 6.3 60.5 C 0.0 79.9, 60.3 31.8, 61.7 25.7 C 80.1 41.8, 99.3 70.2, 88.9 56.9 C 100.0 49.2, 49.5 14.3, 51.7 1.3 C 34.8 20.7, 61.3 0.0, 54.3 8.1 C 64.8 0.0, 30.3 30.5, 29.1 29.5 C 39.2 41.6, 84.4 100.0, 83.5 93.0 C 71.9 100.0, 9.7 51.7, 14.7 41.9 C 0.0 37.4, 70.8 90.1, 63.1 81.2 Z" fill="none" fill-opacity="0.55" stroke="hsl(290, 83%, 63%)" stroke-width="4.65"  transform="translate(66.8 93.1) rotate(247.0) scale(0.91 1.94)" />
<path d="M 52.9 55.5 C 34.9 63.6, 29.0 65.3, 21.1 55.8 C 35.2 45.5, 64.3 44.3, 55.6 50.5 C 51.9 53.3, 76.9 42.0, 67.4 31.6 C 71.5 29.6, 92.6 100.0, 89.4 96.5 C 79.3 96.6, 32.1 63.9, 46.5 61.8 C 54.0 67.4, 62.3 18.4, 50.1 32.0 C 51.6 47.6, 20.5 51.3, 15.7 51.3 C 8.2 53.9, 30.6 56.6, 19.5 69.5 " fill="hsl(86, 72%, 68%)" fill-opacity="0.80" stroke="none" stroke-width="0.82" filter="url(#f1)" transform="translate(22.2 38.0) rotate(172.1) scale(1.22 1.03)" />
<circle cx="59.5" cy="1.2" r="14.3" fill="hsl(40, 53%, 69%)" fill-opacity="0.68"  transform="translate(51.8 84.7) rotate(29.9) scale(0.71 1.21)" />
<circle cx="80.5" cy="10.6" r="8.1" fill="url(#g0)" fill-opacity="0.74"   />
<circle cx="5.1" cy="97.8" r="0.9" fill="url(#g2)" fill-opacity="0.68"  transform="translate(65.5 19.4) rotate(315.4) scale(0.76 1.44)" />
<path d="M 15.5 15.4 C 16.6 3.7, 48.3 52.4, 41.5 59.1 C 41.1 63.6, 43.5 18.5, 32.0 9.1 C 49.9 0.0, 100.0 23.5, 89.3 19.7 C 76.2 0.0, 71.3 70.5, 63.2 62.8 C 61.5 46.2, 41.4 15.9, 54.9 17.3 C 38.6 29.8, 41.2 84.9, 53.4 88.5 C 46.6 84.3, 11.1 73.8, 3.2 69.4 C 0.0 89.0, 10.6 61.5, 20.5 57.2 C 19.0 69.7, 49.7 63.3, 45.6 66.9 Z" fill="none" fill-opacity="0.65" stroke="hsl(322, 74%, 44%)" stroke-width="3.63"  transform="translate(44.1 72.4) rotate(326.4) scale(1.05 0.64)" />
<rect x="36.5" y="2.1" width="33.6" height="34.6" rx="1.7" fill="none" fill-opacity="0.60"  filter="url(#f1)" transform="translate(92.1 98.4) rotate(112.4) scale(1.63 1.79)" />
<rect x="12.1" y="54.8" width="30.5" height="16.7" rx="10.3" fill="none" fill-opacity="0.30" stroke="hsl(40, 53%, 69%)" stroke-width="4.8"  transform="translate(44.1 32.6) rotate(280.6) scale(0.87 1.29)" />
<rect x="4.3" y="8.9" width="44.2" height="19.2" rx="9.1" fill="none" fill-opacity="0.80"   transform="translate(85.5 47.6) rotate(255.8) scale(0.92 1.31)" />
<path d="M 67.1 56.3 C 56.3 56.5, 94.9 25.0, 95.0 12.9 C 77.9 21.6, 53.2 78.0, 44.5 81.4 C 60.1 81.1, 0.0 39.7, 10.9 54.5 C 14.5 67.2, 0.9 44.8, 5.4 59.1 C 0.0 39.8, 39.0 0.0, 37.1 1.2 C 20.4 7.8, 7.0 62.8, 2.5 70.5 C 7.1 75.8, 75.1 13.0, 69.4 2.4 Z" fill="hsl(144, 86%, 72%)" fill-opacity="0.52" stroke="none" stroke-width="0.94"  transform="translate(15.3 71.3) rotate(237.8) scale(0.50 1.89)" />
<path d="M 55.3 90.4 C 46.1 84.0, 0.1 62.2, 8.2 51.0 C 14.8 35.2, 34.9 31.6, 45.8 20.8 C 43.0 22.4, 91.3 5.0, 94.9 18.0 C 94.6 5.7, 100.0 70.0, 88.4 81.4 C 68.6 65.5, 0.0 20.2, 0.3 27.2 C 13.3 21.1, 35.0 77.6, 35.6 69.4 C 52.7 79.9, 76.7 10.5, 66.2 10.6 C 78.3 19.6, 0.1 0.0, 6.8 1.8 C 0.0 0.0, 45.8 66.7, 59.4 79.5 C 53.0 88.9, 8.4 63.5, 12.2 50.8 Z" fill="none" fill-opacity="0.62" stroke="hsl(40, 53%, 69%)" stroke-width="2.95"  transform="translate(53.8 67.5) rotate(68.7) scale(1.08 0.55)" />
<circle cx="54.1" cy="28.0" r="3.1" fill="hsl(2, 82%, 55%)" fill-opacity="0.86"  transform="translate(92.6 15.5) rotate(289.2) scale(1.65 1.60)" />
<circle cx="74.3" cy="68.5" r="4.4" fill="url(#g0)" fill-opacity="0.48"  transform="translate(42.6 44.5) rotate(260.5) scale(0.57 0.85)" />
<circle cx="43.0" cy="85.9" r="2.0" fill="url(#g2)" fill-opacity="0.63"   />
<path d="M 51.9 55.4 C 32.4 72.6, 69.0 100.0, 78.0 89.5 C 79.4 76.0, 63.5 48.2, 56.3 60.3 C 44.0 61.5, 77.9 76.6, 87.4 70.5 C 90.4 61.6, 48.8 100.0, 51.2 94.9 C 50.3 100.0, 51.7 10.8, 56.1 7.5 C 72.5 0.0, 18.5 85.5, 30.1 76.7 C 41.2 76.9, 14.7 9.6, 28.2 21.0 C 33.1 26.8, 25.5 62.5, 32.6 67.3 C 39.7 70.2, 44.9 61.8, 49.5 57.2 Z" fill="none" fill-opacity="0.65" stroke="hsl(322, 74%, 44%)" stroke-width="1.21"   />
<path d="M 16.0 22.0 C 1.4 31.7, 45.6 86.7, 58.5 85.8 C 70.0 72.0, 3.1 29.5, 16.9 33.5 C 13.8 29.5, 46.8 96.2, 45.9 89.5 C 60.7 96.3, 25.6 26.1, 10.7 11.5 C 0.0 16.7, 7.2 75.9, 12.7 84.0 C 0.0 69.8, 24.5 89.6, 22.8 83.4 C 16.6 86.9, 39.6 43.2, 42.5 55.1 C 35.6 55.7, 57.6 60.7, 51.6 53.3 C 39.7 51.7, 83.4 32.8, 72.0 23.9 C 59.1 9.2, 71.8 47.3, 85.7 35.1 Z" fill="hsl(86, 72%, 68%)" fill-opacity="0.57" stroke="none" stroke-width="3.46" filter="url(#f1)" transform="translate(43.5 93.9) rotate(29.8) scale(0.97 0.99)" />
<rect x="33.7" y="7.1" width="49.1" height="26.8" rx="0" fill="none" fill-opacity="0.50"   transform="translate(58.6 60.8) rotate(272.5) scale(1.97 1.46)" />
<circle cx="23.6" cy="25.7" r="7.3" fill="url(#g1)" fill-opacity="0.97" filter="url(#f1)" transform="translate(84.7 1.5) rotate(311.4) scale(1.44 1.52)" />
<path d="M 99.6 87.6 C 91.6 68.0, 16.6 100.0, 15.9 87.6 C 0.0 89.9, 36.9 82.4, 48.2 79.3 C 62.4 67.6, 46.9 38.3, 35.7 48.5 C 30.8 50.8, 100.0 100.0, 90.8 99.1 C 83.9 93.7, 44.4 26.3, 53.9 24.7 C 45.5 16.2, 49.1 10.1, 43.2 19.9 C 29.0 18.1, 21.1 25.0, 29.6 39.1 C 13.8 59.1, 19.6 10.2, 26.5 5.6 C 26.3 19.2, 100.0 44.9, 93.1 41.3 Z" fill="hsl(242, 72%, 49%)" fill-opacity="0.28" stroke="none" stroke-width="3.07" filter="url(#f1)"  />
<rect x="18.1" y="62.8" width="20.8" height="16.4" rx="0" fill="hsl(183, 71%, 60%)" fill-opacity="0.30"   transform="translate(96.5 54.0) rotate(40.4) scale(1.98 1.87)" />
<circle cx="22.8" cy="44.7" r="2.5" fill="hsl(183, 71%, 60%)" fill-opacity="0.99"  transform="translate(93.7 9.0) rotate(358.2) scale(1.05 0.72)" />
<rect x="38.0" y="54.6" width="49.7" height="22.9" rx="0" fill="none" fill-opacity="0.88"   transform="translate(9.1 24.3) rotate(154.2) scale(1.83 1.17)" />
<circle cx="46.9" cy="58.0" r="6.5" fill="url(#g0)" fill-opacity="0.70"  transform="translate(27.5 94.8) rotate(53.0) scale(0.87 0.93)" />
<path d="M 68.1 81.1 C 80.0 93.4, 62.4 100.0, 60.5 94.8 C 68.2 100.0, 55.7 97.9, 69.9 95.4 C 85.7 95.6, 50.5 20.5, 44.3 32.0 C 36.2 46.2, 54.0 45.8, 54.6 34.0 C 48.2 43.7, 30.8 32.7, 40.0 29.7 C 41.9 39.6, 95.2 100.0, 90.8 96.1 Z" fill="hsl(83, 65%, 44%)" fill-opacity="0.72" stroke="none" stroke-width="4.44"   />
<path d="M 71.6 62.7 C 75.9 69.0, 33.1 56.4, 34.9 65.7 C 19.7 75.8, 45.3 17.1, 56.5 27.2 C 42.7 34.3, 27.9 49.4, 20.1 52.4 C 1.2 44.0, 34.6 43.8, 32.2 47.5 C 14.7 56.2, 82.6 41.6, 71.6 43.3 C 76.9 36.2, 16.1 70.4, 7.3 65.5 C 0.9 70.1, 72.7 0.0, 76.3 1.9 C 87.6 17.7, 77.9 100.0, 89.3 99.1 C 87.8 100.0, 41.1 100.0, 50.4 96.7 C 32.1 80.1, 86.3 60.8, 84.4 60.3 Z" fill="hsl(151, 70%, 62%)" fill-opacity="0.75" stroke="none" stroke-width="5.13"  transform="translate(56.5 18.4) rotate(76.1) scale(0.62 1.28)" />
<path d="M 44.9 89.7 C 58.2 70.0, 17.9 44.8, 28.8 37.3 C 10.0 53.1, 54.8 60.8, 67.8 67.0 C 64.1 47.6, 83.7 82.8, 84.7 95.3 C 79.3 100.0, 86.2 19.1, 82.5 29.8 C 92.6 37.6, 30.3 11.3, 23.8 22.5 C 24.8 21.0, 32.9 52.7, 34.0 61.7 C 52.6 72.3, 47.9 97.2, 40.0 88.4 C 42.2 90.0, 76.3 23.2, 76.2 28.7 " fill="hsl(104, 72%, 65%)" fill-opacity="0.77" stroke="none" stroke-width="1.59"  transform="translate(97.6 95.6) rotate(332.3) scale(0.88 1.45)" />
<circle cx="87.2" cy="95.2" r="6.4" fill="url(#g0)" fill-opacity="0.43"  transform="translate(87.4 54.7) rotate(181.1) scale(0.75 0.86)" />
<path d="M 84.2 12.0 C 84.7 19.8, 24.7 82.9, 38.6 89.5 C 39.8 85.1, 70.0 79.7, 56.6 90.4 C 43.7 93.9, 0.8 58.5, 9.7 52.1 C 11.8 34.8, 39.6 61.2, 35.2 68.0 C 25.2 55.3, 0.0 85.9, 5.1 90.8 C 23.4 82.4, 2.6 97.9, 14.0 96.7 C 1.5 90.4, 37.1 3.7, 38.6 2.3 C 56.3 0.0, 28.4 6.7, 32.4 8.8 C 38.5 13.9, 7.9 82.8, 6.6 94.8 Z" fill="hsl(2, 82%, 55%)" fill-opacity="0.46" stroke="none" stroke-width="0.83"  transform="translate(41.4 65.3) rotate(176.0) scale(0.72 0.64)" />
<path d="M 14.5 33.3 C 1.7 49.7, 77.5 82.8, 75.7 82.3 C 66.5 63.7, 45.3 85.6, 58.2 74.2 C 78.0 68.5, 34.2 36.3, 45.0 23.8 C 32.5 7.4, 0.0 64.3, 2.0 55.9 C 0.0 42.7, 73.9 70.8, 85.7 60.8 C 100.0 42.0, 20.4 0.0, 31.9 3.4 C 48.9 0.0, 16.1 12.0, 9.4 4.2 C 20.6 0.0, 12.2 0.0, 8.3 1.1 C 9.2 0.0, 92.0 10.3, 90.6 24.2 Z" fill="hsl(322, 74%, 44%)" fill-opacity="0.48" stroke="none" stroke-width="1.48"  transform="translate(98.2 4.2) rotate(234.2) scale(0.75 0.69)" />
<circle cx="76.6" cy="24.2" r="3.0" fill="url(#g0)" fill-opacity="0.49"  transform="translate(3.8 29.4) rotate(256.0) scale(0.63 0.64)" />
<path d="M 22.0 39.4 C 17.4 58.2, 82.2 62.0, 72.7 71.9 C 86.6 60.6, 42.5 47.5, 30.1 57.3 C 27.8 74.5, 36.4 32.6, 21.8 23.2 C 35.6 23.3, 59.0 57.7, 57.8 47.0 C 58.8 54.2, 21.9 23.9, 22.1 9.3 C 32.4 0.0, 7.6 27.7, 1.7 32.8 C 21.4 27.0, 47.2 20.5, 46.7 34.9 Z" fill="none" fill-opacity="0.65" stroke="hsl(242, 72%, 49%)" stroke-width="2.70"  transform="translate(80.1 4.1) rotate(9.1) scale(2.00 1.54)" />
<path d="M 38.0 5.7 C 52.1 21.2, 13.7 94.9, 3.7 96.5 C 0.0 100.0, 87.0 85.3, 88.2 97.9 C 88.9 83.8, 79.7 26.9, 87.9 11.9 C 84.6 5.7, 4.4 91.0, 9.5 87.3 C 26.8 71.4, 0.6 65.1, 11.0 51.7 C 12.8 70.1, 60.3 0.0, 63.6 8.2 C 79.9 6.5, 24.3 58.2, 22.7 65.3 Z" fill="hsl(144, 86%, 72%)" fill-opacity="0.72" stroke="none" stroke-width="3.91"   />
<circle cx="2.0" cy="12.1" r="2.3" fill="hsl(83, 65%, 44%)" fill-opacity="0.82"   />
<circle cx="77.8" cy="29.1" r="1.4" fill="url(#g2)" fill-opacity="0.45"  transform="translate(5.0 40.6) rotate(193.0) scale(0.62 0.96)" />
<path d="M 10.0 27.5 C 23.3 45.4, 37.2 19.9, 44.1 34.6 C 33.4 20.4, 95.5 81.7, 82.4 69.7 C 100.0 83.8, 74.8 60.3, 78.9 57.9 C 96.3 52.6, 50.8 32.6, 50.7 37.3 C 31.5 44.4, 47.0 10.3, 34.4 23.1 C 27.2 14.5, 70.6 32.9, 65.9 39.6 C 77.4 34.8, 88.8 15.0, 91.0 7.6 C 100.0 0.0, 27.8 19.9, 14.1 7.3 C 17.0 2.1, 94.6 7.8, 89.9 16.4 C 91.2 8.6, 48.4 11.2, 61.9 13.4 Z" fill="hsl(104, 72%, 65%)" fill-opacity="0.88" stroke="none" stroke-width="3.62"  transform="translate(4.4 39.1) rotate(125.9) scale(1.64 0.68)" />
<circle cx="51.5" cy="56.5" r="14.0" fill="url(#g1)" fill-opacity="0.56" filter="url(#f1)" transform="translate(36.5 2.7) rotate(7.9) scale(0.57 1.86)" />
<path d="M 49.0 63.3 C 43.3 48.2, 63.7 100.0, 52.8 97.9 C 57.9 86.5, 48.6 87.6, 40.7 81.8 C 60.6 75.3, 43.4 93.2, 31.8 97.2 C 14.8 85.1, 4.4 19.2, 6.9 22.9 C 9.1 16.0, 80.7 32.7, 85.3 47.1 C 69.3 66.0, 87.2 0.0, 85.4 2.6 C 99.7 0.0, 62.6 60.2, 57.2 62.3 C 38.2 82.2, 33.0 7.2, 47.7 3.7 C 55.2 0.0, 12.4 14.9, 10.8 29.8 C 14.1 48.4, 44.0 61.3, 52.0 64.6 Z" fill="none" fill-opacity="0.61" stroke="hsl(40, 53%, 69%)" stroke-width="1.60"  transform="translate(56.1 63.8) rotate(193.7) scale(1.06 1.29)" />
<path d="M 90.7 57.1 C 85.4 60.0, 85.0 92.4, 84.6 86.9 C 92.1 89.5, 3.1 62.1, 7.9 65.4 C 3.4 53.7, 35.5 40.4, 34.3 51.1 C 40.1 32.7, 40.7 24.7, 44.9 24.2 C 57.2 6.9, 79.5 25.5, 65.7 31.8 C 60.5 47.0, 55.6 0.0, 45.6 0.7 C 57.6 0.0, 12.3 1.8, 5.1 12.1 C 0.0 3.1, 94.6 60.2, 84.9 58.9 C 87.4 50.0, 37.7 7.5, 31.2 18.1 Z" fill="hsl(322, 74%, 44%)" fill-opacity="0.62" stroke="none" stroke-width="3.81" filter="url(#f1)" transform="translate(85.6 82.5) rotate(158.4) scale(0.60 1.54)" />
<path d="M 1.3 35.8 C 0.0 20.2, 29.5 92.9, 17.8 99.1 C 31.5 100.0, 97.6 39.1, 85.9 35.2 C 100.0 47.7, 45.2 26.8, 47.2 28.9 C 40.3 44.0, 0.0 56.2, 0.5 69.6 C 13.9 81.3, 16.4 57.7, 28.8 51.1 C 16.3 31.9, 88.5 29.1, 88.1 31.2 C 80.6 32.2, 81.3 56.1, 95.8 60.2 C 100.0 63.7, 27.8 8.5, 39.9 18.2 Z" fill="hsl(183, 71%, 60%)" fill-opacity="0.29" stroke="none" stroke-width="2.33"  transform="translate(61.4 73.2) rotate(93.6) scale(1.71 1.76)" />
<rect x="10.7" y="20.0" width="49.9" height="21.8" rx="19.5" fill="hsl(322, 74%, 44%)" fill-opacity="0.41"    />
<rect x="18.3" y="33.3" width="35.1" height="25.4" rx="12.1" fill="hsl(183, 71%, 60%)" fill-opacity="0.34"    />
<circle cx="15.6" cy="95.5" r="15.1" fill="url(#g0)" fill-opacity="0.85"  transform="translate(67.1 84.5) rotate(259.4) scale(1.57 1.52)" />
<rect x="7.7" y="6.2" width="42.8" height="39.7" rx="17.1" fill="none" fill-opacity="0.48"   transform="translate(52.0 83.6) rotate(135.7) scale(0.95 0.55)" />
<path d="M 81.2 34.3 C 75.9 21.0, 35.2 2.4, 44.8 14.5 C 39.5 19.0, 24.8 53.6, 11.3 49.2 C 0.0 56.3, 29.3 31.2, 14.8 29.5 C 0.0 13.1, 8.4 0.0, 8.8 7.1 C 0.1 0.0, 15.7 74.5, 9.1 80.5 C 6.7 99.6, 32.4 78.6, 24.3 66.1 C 33.4 58.8, 78.9 0.8, 88.9 0.1 C 100.0 12.8, 4.3 57.2, 8.5 65.0 Z" fill="none" fill-opacity="0.83" stroke="hsl(183, 71%, 60%)" stroke-width="2.39" filter="url(#f1)" transform="translate(3.8 60.2) rotate(91.5) scale(0.64 0.55)" />
<path d="M 1.0 67.4 C 0.8 71.0, 73.5 47.1, 70.9 54.2 C 61.2 66.2, 66.3 71.0, 78.6 78.5 C 97.8 70.9, 95.0 50.2, 93.2 48.4 C 76.6 55.4, 48.2 44.6, 53.3 58.8 C 57.1 54.5, 11.4 83.9, 12.2 85.7 C 18.9 87.2, 35.7 16.3, 35.0 30.7 C 54.9 34.5, 17.3 38.0, 23.6 40.0 " fill="hsl(290, 83%, 63%)" fill-opacity="0.49" stroke="none" stroke-width="2.04" filter="url(#f1)" transform="translate(61.1 89.8) rotate(57.6) scale(0.93 0.79)" />
<path d="M 15.4 79.0 C 30.2 62.5, 45.9 91.1, 55.8 95.4 C 72.1 96.4, 8.7 53.2, 17.5 38.5 C 31.2 45.6, 29.3 88.8, 35.6 77.6 C 45.4 81.0, 7.6 63.8, 9.5 49.6 C 1.5 62.2, 98.2 76.1, 91.7 65.0 C 91.6 57.0, 12.3 72.3, 17.2 79.7 C 19.6 65.1, 13.9 77.9, 21.7 69.2 C 27.3 74.3, 71.5 80.8, 65.0 75.0 C 76.5 92.3, 29.8 78.0, 24.7 66.8 Z" fill="none" fill-opacity="0.64" stroke="hsl(40, 53%, 69%)" stroke-width="2.17"  transform="translate(31.0 83.4) rotate(209.7) scale(0.60 1.80)" />
<rect x="24.7" y="64.9" width="28.4" height="33.9" rx="16.3" fill="none" fill-opacity="0.47" stroke="hsl(104, 72%, 65%)" stroke-width="1.3" filter="url(#f1)" transform="translate(79.6 0.5) rotate(263.0) scale(0.76 0.54)" />
<circle cx="60.3" cy="43.3" r="15.2" fill="url(#g0)" fill-opacity="0.67"  transform="translate(51.7 7.3) rotate(202.4) scale(1.05 1.52)" />
<path d="M 35.7 52.8 C 45.2 35.7, 18.5 46.4, 20.8 39.3 C 10.6 40.3, 0.0 42.0, 2.9 55.5 C 0.0 70.9, 18.8 16.1, 27.9 20.9 C 8.3 11.5, 50.5 47.0, 42.7 55.2 C 38.9 64.3, 66.3 27.6, 75.0 36.9 C 65.4 34.5, 54.3 9.1, 44.6 10.3 Z" fill="hsl(83, 65%, 44%)" fill-opacity="0.41" stroke="none" stroke-width="4.56"  transform="translate(23.8 99.0) rotate(315.0) scale(1.53 1.89)" />
<circle cx="83.0" cy="66.1" r="2.3" fill="hsl(40, 53%, 69%)" fill-opacity="0.79"  transform="translate(38.5 40.8) rotate(83.4) scale(0.92 1.91)" />
<circle cx="89.2" cy="71.3" r="12.6" fill="hsl(106, 75%, 59%)" fill-opacity="0.99"   />
<rect x="19.1" y="31.5" width="32.0" height="24.1" rx="0" fill="none" fill-opacity="0.49" stroke="hsl(83, 65%, 44%)" stroke-width="1.6"  transform="translate(15.9 76.6) rotate(357.4) scale(0.79 1.96)" />
<path d="M 36.3 39.0 C 41.0 43.0, 32.8 0.0, 32.9 8.6 C 46.5 0.0, 90.5 93.5, 94.1 88.4 C 83.0 100.0, 78.1 94.3, 85.2 92.9 C 77.9 80.5, 13.6 39.7, 24.9 48.4 C 25.5 32.4, 58.6 57.5, 50.3 65.9 C 53.0 83.9, 0.0 33.2, 1.3 26.4 C 0.0 15.8, 43.1 46.5, 35.9 38.8 Z" fill="hsl(290, 83%, 63%)" fill-opacity="0.58" stroke="none" stroke-width="2.24"  transform="translate(37.9 90.2) rotate(105.4) scale(1.88 1.89)" />
<path d="M 10.1 59.3 C 0.0 52.9, 45.7 25.7, 41.6 40.2 C 55.6 22.0, 0.0 53.6, 6.8 48.3 C 10.1 65.2, 31.6 86.3, 31.3 90.9 C 51.1 100.0, 56.7 75.5, 68.9 77.9 C 73.8 97.4, 38.5 20.5, 39.2 33.5 C 24.0 51.3, 97.8 8.0, 86.3 7.4 C 100.0 23.2, 98.5 41.7, 90.6 39.5 C 95.3 52.9, 2.0 100.0, 5.2 97.7 Z" fill="none" fill-opacity="0.92" stroke="hsl(83, 65%, 44%)" stroke-width="3.01"  transform="translate(16.9 80.6) rotate(224.8) scale(1.58 1.60)" />
<rect x="54.2" y="75.3" width="24.9" height="22.1" rx="0" fill="none" fill-opacity="0.41"   transform="translate(49.9 45.3) rotate(254.3) scale(1.10 0.68)" />
<path d="M 50.5 35.0 C 36.3 39.5, 71.5 13.8, 84.0 3.3 C 79.4 0.0, 17.2 62.9, 12.1 51.1 C 0.0 43.4, 26.8 30.3, 24.3 18.0 C 13.7 31.3, 71.8 37.9, 63.4 33.0 C 54.8 41.0, 61.3 57.2, 72.9 47.0 C 54.2 65.1, 26.8 16.4, 23.8 2.6 C 25.5 0.0, 22.1 92.4, 18.2 83.5 Z" fill="hsl(104, 72%, 65%)" fill-opacity="0.78" stroke="none" stroke-width="4.55"  transform="translate(95.3 43.6) rotate(319.4) scale(1.03 1.54)" />
<path d="M 43.9 43.5 C 56.6 43.6, 70.7 46.1, 68.5 48.6 C 88.4 41.4, 0.0 4.4, 6.1 14.1 C 1.4 17.7, 23.5 43.3, 17.8 56.3 C 34.3 66.5, 62.0 74.0, 58.4 60.2 C 52.6 72.7, 52.1 68.5, 44.7 79.6 C 27.8 77.9, 11.2 92.1, 19.6 91.4 C 16.7 97.8, 27.0 68.6, 21.2 54.5 C 28.1 70.0, 100.0 73.3, 99.7 72.3 C 100.0 65.9, 90.6 22.1, 91.6 13.0 Z" fill="hsl(290, 83%, 63%)" fill-opacity="0.71" stroke="none" stroke-width="0.94" filter="url(#f1)" transform="translate(31.8 97.2) rotate(254.3) scale(1.98 1.27)" />
<rect x="60.6" y="5.2" width="38.9" height="13.8" rx="0" fill="none" fill-opacity="0.64"  filter="url(#f1)" transform="translate(23.4 48.3) rotate(306.8) scale(0.75 1.64)" />
<path d="M 70.0 28.4 C 55.0 22.2, 71.2 79.7, 69.0 71.8 C 72.6 65.6, 19.5 99.3, 24.3 94.8 C 24.9 99.9, 48.3 15.8, 60.2 18.7 C 70.8 4.5, 31.2 7.0, 18.8 19.6 C 18.1 36.3, 97.0 57.7, 95.5 48.7 C 90.3 57.5, 12.1 38.2, 9.5 26.5 C 22.2 40.0, 67.1 51.5, 73.7 62.6 C 90.5 81.4, 92.9 36.2, 94.1 39.8 Z" fill="hsl(83, 65%, 44%)" fill-opacity="0.51" stroke="none" stroke-width="4.47" filter="url(#f1)" transform="translate(39.9 35.9) rotate(151.7) scale(1.44 1.11)" />
<rect x="71.0" y="70.2" width="28.9" height="22.0" rx="9.5" fill="none" fill-opacity="0.96" stroke="hsl(183, 71%, 60%)" stroke-width="4.5"   />
<g opacity="0.053">
<rect x="0" y="0" width="1" height="100" fill="black" />
<rect x="22" y="0" width="1" height="100" fill="black" />
<rect x="44" y="0" width="1" height="100" fill="black" />
<rect x="66" y="0" width="1" height="100" fill="black" />
<rect x="88" y="0" width="1" height="100" fill="black" />
<rect x="0" y="0" width="100" height="1" fill="black" />
<rect x="0" y="22" width="100" height="1" fill="black" />
<rect x="0" y="44" width="100" height="1" fill="black" />
<rect x="0" y="66" width="100" height="1" fill="black" />
<rect x="0" y="88" width="100" height="1" fill="black" />
</g>

</svg>
