<?xml version="1.0" encoding="UTF-8"?>
<svg xmlns="http://www.w3.org/2000/svg" width="100" height="100" viewBox="0 0 100 100">
<defs>
<linearGradient id="g0" x1="0%" y1="0%" x2="100%" y2="100%">
<stop offset="0.0%" stop-color="hsl(106, 75%, 59%)" />
<stop offset="33.3%" stop-color="hsl(183, 71%, 60%)" />
<stop offset="66.7%" stop-color="hsl(242, 72%, 49%)" />
<stop offset="100.0%" stop-color="hsl(322, 74%, 44%)" />
</linearGradient>
<linearGradient id="g1" x1="0%" y1="0%" x2="100%" y2="100%">
<stop offset="0.0%" stop-color="hsl(290, 83%, 63%)" />
<stop offset="33.3%" stop-color="hsl(2, 82%, 55%)" />
<stop offset="66.7%" stop-color="hsl(86, 72%, 68%)" />
<stop offset="100.0%" stop-color="hsl(83, 65%, 44%)" />
</linearGradient>
<linearGradient id="g2" x1="0%" y1="0%" x2="100%" y2="100%">
<stop offset="0.0%" stop-color="hsl(40, 53%, 69%)" />
<stop offset="33.3%" stop-color="hsl(104, 72%, 65%)" />
<stop offset="66.7%" stop-color="hsl(144, 86%, 72%)" />
<stop offset="100.0%" stop-color="hsl(151, 70%, 62%)" />
</linearGradient>
<filter id="f1" x="-20%" y="-20%" width="140%" height="140%">
  <feGaussianBlur stdDeviation="2.0472522838699554" />
</filter>

</defs>

<rect x="14.6" y="8.6" width="34.7" height="36.8" rx="0" fill="hsl(151, 70%, 62%)" fill-opacity="0.42" stroke="hsl(144, 86%, 72%)" stroke-width="2.0"  transform="translate(1.6 81.7) rotate(60.7) scale(1.98 1.08)" />
<rect x="7.1" y="71.3" width="26.6" height="25.6" rx="0" fill="none" fill-opacity="0.46"   transform="translate(8.9 88.2) rotate(59.9) scale(0.92 0.56)" />
<path d="M 20.9 2.5 C 12.9 9.2, 79.7 68.6, 71.2 65.3 C 65.1 50.1, 45.0 25.9, 38.5 32.6 C 46.0 42.3, 98.6 66.9, 88.7 56.6 C 100.0 37.9, 32.5 71.9, 41.5 79.4 C 36.6 88.1, 71.8 45.9, 77.1 51.2 C 86.8 47.0, 45.4 56.5, 36.8 68.6 C 28.6 55.1, 52.3 91.5, 46.5 95.2 C 48.3 100.0, 71.2 23.0, 69.3 19.9 Z" fill="none" fill-opacity="0.75" stroke="hsl(40, 53%, 69%)" stroke-width="5.24"  transform="translate(13.3 71.3) rotate(246.2) scale(1.92 1.58)" />
<path d="M 55.9 46.8 C 73.0 40.9, 50.4 27.8, 49.1 13.8 C 33.2 9.5, 89.4 61.9, 78.5 54.4 C 79.2 35.4, 80.0 47.2, 86.9 53.2 C 71.8 48.6, 32.3 77.2, 33.4 84.7 C 39.5 95.6, 4.5 37.4, 9.9 23.7 C 0.0 18.1, 4.2 5.8, 13.9 20.5 C 32.4 19.7, 8.9 62.5, 14.3 68.2 C 5.9 77.4, 29.8 75.3, 19.0 83.5 Z" fill="hsl(86, 72%, 68%)" fill-opacity="0.85" stroke="none" stroke-width="1.91" filter="url(#f1)" transform="translate(46.5 19.1) rotate(46.2) scale(1.97 0.69)" />
<path d="M 79.2 87.3 C 78.4 70.6, 75.1 19.8, 83.7 33.7 C 80.9 42.9, 35.2 16.9, 33.5 15.6 C 35.6 26.7, 52.0 62.1, 62.7 66.5 C 50.1 50.1, 3.7 73.6, 13.4 71.5 C 3.9 60.7, 64.8 66.0, 71.2 52.7 C 83.2 46.0, 88.2 5.1, 75.2 16.1 C 94.8 23.0, 22.2 80.7, 21.6 79.2 C 27.8 59.4, 73.1 26.2, 62.0 27.7 C 79.8 9.7, 0.0 29.5, 0.4 32.6 C 0.0 37.6, 10.3 100.0, 20.3 96.3 Z" fill="none" fill-opacity="0.85" stroke="hsl(290, 83%, 63%)" stroke-width="1.40"  transform="translate(9.5 64.0) rotate(278.6) scale(1.21 1.66)" />
<path d="M 45.0 47.6 C 38.6 55.1, 65.1 74.1, 65.6 73.5 C 57.5 86.0, 30.8 100.0, 31.0 89.7 C 22.5 100.0, 20.1 79.9, 7.9 84.1 C 1.4 100.0, 0.0 47.9, 4.4 39.3 C 20.3 49.4, 53.6 95.3, 48.6 87.6 C 50.5 100.0, 7.9 100.0, 21.0 97.3 C 23.1 79.0, 96.4 86.7, 92.2 82.4 C 93.2 70.2, 44.9 100.0, 53.1 90.9 C 34.6 75.2, 100.0 34.2, 97.7 41.0 Z" fill="none" fill-opacity="0.87" stroke="hsl(144, 86%, 72%)" stroke-width="5.06"  transform="translate(19.5 38.9) rotate(158.2) scale(0.96 0.85)" />
<rect x="47.6" y="24.7" width="38.3" height="14.8" rx="5.5" fill="hsl(2, 82%, 55%)" fill-opacity="0.94" stroke="hsl(290, 83%, 63%)" stroke-width="3.0"  transform="translate(36.0 69.4) rotate(15.3) scale(1.07 1.29)" />
<circle cx="10.1" cy="48.8" r="7.5" fill="url(#g1)" fill-opacity="0.46"  transform="translate(79.4 10.1) rotate(136.6) scale(1.60 1.54)" />
<rect x="58.2" y="43.1" width="33.5" height="20.0" rx="0" fill="none" fill-opacity="0.68"   transform="translate(49.4 29.8) rotate(357.1) scale(0.75 0.99)" />
<circle cx="68.2" cy="32.6" r="0.1" fill="url(#g2)" fill-opacity="0.64"  transform="translate(16.8 15.2) rotate(81.5) scale(1.74 1.79)" />
<rect x="50.8" y="46.1" width="33.6" height="34.5" rx="0" fill="hsl(322, 74%, 44%)" fill-opacity="0.70"   transform="translate(8.1 23.3) rotate(160.7) scale(0.99 1.42)" />
<path d="M 54.1 66.9 C 34.5 72.6, 12.2 0.0, 26.3 4.8 C 12.3 19.0, 29.5 51.9, 41.5 48.7 C 22.1 60.2, 0.0 89.9, 3.6 98.7 C 0.0 100.0, 73.1 75.6, 59.0 65.9 C 67.8 67.4, 47.2 54.3, 56.7 65.9 C 47.9 49.5, 74.8 12.8, 66.9 23.9 C 50.5 12.4, 46.1 61.8, 54.5 49.7 C 40.3 52.4, 85.4 84.3, 90.4 90.9 Z" fill="hsl(183, 71%, 60%)" fill-opacity="0.80" stroke="none" stroke-width="3.54" filter="url(#f1)"  />
<rect x="61.7" y="84.1" width="24.3" height="13.4" rx="16.6" fill="none" fill-opacity="0.94"   transform="translate(75.5 50.3) rotate(273.8) scale(1.04 1.00)" />
<circle cx="80.4" cy="4.0" r="14.4" fill="hsl(242, 72%, 49%)" fill-opacity="0.41" filter="url(#f1)" transform="translate(43.1 27.2) rotate(258.5) scale(1.20 1.93)" />
<circle cx="47.5" cy="25.6" r="7.4" fill="url(#g0)" fill-opacity="0.71" filter="url(#f1)" transform="translate(17.9 53.1) rotate(144.8) scale(1.30 1.38)" />
<circle cx="94.0" cy="8.4" r="6.1" fill="hsl(106, 75%, 59%)" fill-opacity="0.70"  transform="translate(82.8 28.9) rotate(184.6) scale(0.94 0.94)" />
<path d="M 6.6 65.0 C 0.0 80.3, 22.0 0.0, 18.3 11.3 C 6.2 3.7, 69.3 38.4, 59.8 36.4 C 64.6 24.7, 14.3 90.8, 1.8 79.6 C 19.3 66.6, 23.9 69.3, 20.9 61.5 C 33.0 75.4, 75.5 42.1, 65.2 47.7 C 54.5 39.7, 12.3 51.3, 12.3 53.3 C 0.9 48.7, 45.1 64.7, 57.5 61.9 " fill="hsl(86, 72%, 68%)" fill-opacity="0.70" stroke="none" stroke-width="0.84"  transform="translate(89.8 93.2) rotate(252.8) scale(1.19 1.04)" />
<circle cx="66.7" cy="58.8" r="2.2" fill="hsl(106, 75%, 59%)" fill-opacity="0.85"   />
<circle cx="4.6" cy="1.1" r="7.7" fill="url(#g0)" fill-opacity="0.60"   />
<path d="M 71.9 40.5 C 61.8 33.8, 39.2 81.9, 43.6 70.7 C 52.7 72.0, 25.5 3.7, 40.5 10.6 C 47.0 8.2, 76.1 61.2, 88.1 58.6 C 84.8 58.1, 37.1 100.0, 43.6 98.3 C 37.6 84.5, 60.2 58.5, 53.5 55.7 C 54.4 67.1, 23.5 53.9, 18.1 48.9 Z" fill="hsl(144, 86%, 72%)" fill-opacity="0.97" stroke="none" stroke-width="1.44"  transform="translate(93.4 86.0) rotate(312.6) scale(1.43 1.81)" />
<path d="M 56.4 37.9 C 56.1 25.2, 47.6 53.3, 38.8 51.2 C 51.0 43.1, 30.3 32.7, 23.8 28.1 C 9.8 31.3, 4.0 92.4, 0.5 88.3 C 1.5 68.6, 100.0 69.8, 88.9 73.0 C 100.0 80.4, 23.9 11.9, 38.8 26.2 C 47.8 19.8, 49.9 0.9, 41.6 4.2 C 50.3 0.0, 35.6 41.5, 49.5 54.1 Z" fill="hsl(40, 53%, 69%)" fill-opacity="0.96" stroke="none" stroke-width="3.82"  transform="translate(89.5 61.2) rotate(24.3) scale(1.51 1.40)" />
<rect x="27.9" y="46.2" width="39.0" height="14.2" rx="3.6" fill="none" fill-opacity="0.64"   transform="translate(42.4 58.4) rotate(203.4) scale(0.72 1.81)" />
<path d="M 63.4 71.5 C 76.3 62.4, 44.2 65.1, 44.6 58.6 C 40.4 52.9, 88.1 17.4, 77.2 4.0 C 93.8 23.7, 78.6 59.7, 79.0 73.3 C 91.5 87.1, 37.8 37.8, 31.5 28.9 C 48.6 34.6, 1.2 7.6, 2.0 21.4 C 18.6 7.1, 49.6 55.1, 42.0 47.2 Z" fill="hsl(144, 86%, 72%)" fill-opacity="0.61" stroke="none" stroke-width="4.09"  transform="translate(66.5 46.7) rotate(134.2) scale(0.51 0.78)" />
<path d="M 70.4 81.6 C 63.4 82.5, 0.0 67.1, 1.3 65.8 C 4.9 48.3, 65.2 60.3, 66.0 66.4 C 62.3 65.4, 48.0 35.9, 55.2 49.4 C 59.6 52.8, 45.5 42.8, 53.3 54.4 C 68.7 61.0, 51.3 63.5, 41.2 75.1 C 56.9 61.4, 80.9 59.5, 83.4 46.8 C 81.0 49.4, 17.5 58.5, 3.6 58.6 C 7.5 48.4, 85.9 46.2, 73.9 55.5 " fill="none" fill-opacity="0.26" stroke="hsl(322, 74%, 44%)" stroke-width="3.89"  transform="translate(68.5 58.0) rotate(68.6) scale(0.70 1.74)" />
<circle cx="65.7" cy="51.6" r="5.6" fill="url(#g2)" fill-opacity="0.62"   />
<path d="M 56.7 86.5 C 67.0 100.0, 84.2 39.4, 83.7 40.4 C 64.9 23.0, 77.9 4.0, 70.1 4.6 C 76.1 0.0, 61.7 82.9, 53.1 91.1 C 71.3 94.9, 20.1 71.7, 28.8 76.5 C 31.9 66.4, 71.6 73.2, 71.9 85.0 C 86.3 88.9, 50.6 75.1, 59.1 80.8 Z" fill="hsl(151, 70%, 62%)" fill-opacity="0.37" stroke="none" stroke-width="4.62"  transform="translate(22.5 67.6) rotate(127.0) scale(1.85 1.90)" />
<path d="M 85.9 60.1 C 76.4 70.7, 0.0 32.4, 6.7 41.1 C 13.4 22.4, 12.1 78.6, 8.8 87.4 C 28.5 70.8, 36.8 70.9, 35.1 80.6 C 17.5 63.4, 93.4 69.1, 94.6 73.5 C 84.2 91.7, 48.6 61.0, 59.0 74.1 C 46.5 88.5, 16.1 100.0, 14.1 95.0 C 14.0 82.9, 12.7 64.4, 11.0 60.9 C 16.7 46.0, 17.9 49.2, 6.4 62.0 C 0.0 47.6, 47.7 76.7, 33.5 79.4 C 24.9 71.1, 100.0 21.1, 93.7 32.2 Z" fill="none" fill-opacity="0.49" stroke="hsl(83, 65%, 44%)" stroke-width="1.48"  transform="translate(70.6 73.7) rotate(129.4) scale(1.66 1.98)" />
<path d="M 62.3 71.0 C 80.4 57.1, 92.4 28.0, 83.3 24.0 C 99.5 35.5, 82.4 66.2, 88.4 60.1 C 93.3 65.9, 41.6 95.2, 33.2 83.1 C 18.4 65.0, 0.0 16.6, 0.3 30.1 C 15.3 41.3, 86.2 16.5, 95.2 17.2 C 78.4 5.0, 18.9 100.0, 4.5 96.6 C 0.0 100.0, 58.3 0.0, 52.7 3.2 Z" fill="none" fill-opacity="0.43" stroke="hsl(2, 82%, 55%)" stroke-width="1.56"  transform="translate(80.7 75.9) rotate(131.4) scale(1.27 1.84)" />
<rect x="17.7" y="41.6" width="32.7" height="30.0" rx="0" fill="hsl(183, 71%, 60%)" fill-opacity="0.51"   transform="translate(63.7 43.8) rotate(274.3) scale(1.72 1.96)" />
<circle cx="81.2" cy="33.4" r="0.7" fill="url(#g1)" fill-opacity="0.56" filter="url(#f1)" transform="translate(3.1 48.3) rotate(16.0) scale(0.60 1.34)" />
<circle cx="99.7" cy="91.1" r="1.2" fill="url(#g1)" fill-opacity="0.75"  transform="translate(95.6 8.2) rotate(279.1) scale(1.40 0.76)" />
<rect x="15.5" y="58.6" width="30.4" height="39.7" rx="7.3" fill="none" fill-opacity="0.95"   transform="translate(41.9 39.7) rotate(76.2) scale(0.61 1.58)" />
<rect x="18.4" y="61.4" width="29.2" height="36.3" rx="6.9" fill="none" fill-opacity="0.31"   transform="translate(50.7 82.5) rotate(207.1) scale(1.42 0.67)" />
<path d="M 29.7 35.0 C 29.6 32.3, 11.2 44.0, 4.3 56.1 C 18.9 65.2, 57.9 91.5, 44.7 81.5 C 44.4 100.0, 0.0 51.6, 4.5 52.6 C 8.7 69.7, 42.1 88.6, 38.8 97.9 C 51.7 89.4, 90.8 52.2, 82.6 45.5 C 80.7 61.2, 13.0 39.4, 9.3 26.7 C 28.0 19.4, 26.4 93.4, 23.2 88.5 C 21.2 74.3, 47.4 35.5, 41.0 36.3 C 44.5 23.0, 75.3 29.9, 66.9 20.0 Z" fill="hsl(151, 70%, 62%)" fill-opacity="0.72" stroke="none" stroke-width="3.52" filter="url(#f1)" transform="translate(71.8 35.0) rotate(132.5) scale(1.71 1.35)" />
<path d="M 51.9 58.7 C 56.6 63.3, 98.2 76.7, 87.6 74.7 C 87.7 67.6, 30.7 68.7, 18.5 55.6 C 11.1 63.6, 63.7 84.7, 64.6 72.4 C 50.4 56.3, 22.1 69.1, 15.6 63.9 C 35.3 65.3, 92.8 91.6, 92.5 84.3 C 100.0 100.0, 11.8 100.0, 13.8 92.0 C 19.3 75.3, 26.0 23.9, 33.5 10.8 C 33.2 25.9, 17.3 12.0, 17.7 24.6 C 20.3 26.6, 51.2 57.6, 62.3 58.0 C 50.1 64.3, 28.9 81.9, 39.9 89.5 " fill="none" fill-opacity="0.90" stroke="hsl(106, 75%, 59%)" stroke-width="1.44"  transform="translate(24.5 53.5) rotate(297.1) scale(0.53 0.99)" />
<path d="M 38.5 2.1 C 47.3 1.8, 76.8 62.2, 67.1 48.6 C 52.9 58.0, 5.2 23.0, 16.5 31.1 C 1.4 13.7, 91.0 63.7, 83.3 65.6 C 95.3 76.3, 29.5 49.2, 27.0 34.4 C 31.6 53.1, 69.4 72.2, 77.6 59.8 C 73.3 73.5, 55.5 100.0, 67.4 91.7 C 69.2 96.1, 46.9 52.1, 36.6 43.8 C 53.4 51.5, 67.6 59.2, 54.1 56.8 C 44.7 69.7, 51.2 19.6, 65.3 21.2 " fill="none" fill-opacity="0.77" stroke="hsl(83, 65%, 44%)" stroke-width="1.79"  transform="translate(5.8 47.9) rotate(301.2) scale(1.27 0.67)" />
<path d="M 80.5 55.9 C 100.0 56.7, 21.9 64.5, 14.7 59.8 C 20.0 60.2, 3.7 22.4, 16.0 17.7 C 32.0 27.2, 25.7 18.8, 24.2 30.7 C 21.9 32.3, 83.8 65.1, 70.2 78.4 C 59.2 81.5, 23.5 2.8, 28.3 3.5 C 34.7 20.6, 12.5 19.2, 6.4 21.7 C 22.3 40.5, 36.1 43.9, 45.4 53.0 C 48.5 43.2, 75.6 41.9, 73.9 36.8 C 75.0 26.5, 15.3 19.9, 30.0 20.0 C 39.3 34.7, 78.1 91.6, 83.9 93.9 Z" fill="hsl(322, 74%, 44%)" fill-opacity="0.40" stroke="none" stroke-width="2.21" filter="url(#f1)" transform="translate(28.5 7.0) rotate(85.6) scale(1.96 1.29)" />
<path d="M 31.2 24.9 C 32.3 18.5, 51.4 39.2, 38.2 30.2 C 26.0 22.7, 88.3 21.7, 85.8 27.4 C 79.0 15.4, 53.5 41.2, 50.0 27.5 C 37.5 10.7, 65.5 15.3, 70.7 11.0 C 76.0 14.4, 80.4 0.7, 72.0 7.7 C 72.4 13.5, 83.1 33.2, 94.2 24.0 C 90.8 17.4, 47.6 100.0, 57.1 96.7 " fill="hsl(290, 83%, 63%)" fill-opacity="0.51" stroke="none" stroke-width="2.71"  transform="translate(32.1 79.0) rotate(207.9) scale(1.37 1.33)" />
<circle cx="91.6" cy="93.3" r="9.4" fill="hsl(83, 65%, 44%)" fill-opacity="0.70"  transform="translate(12.6 16.7) rotate(344.4) scale(1.04 0.85)" />
<circle cx="26.9" cy="80.5" r="6.5" fill="hsl(144, 86%, 72%)" fill-opacity="0.58"  transform="translate(49.3 17.5) rotate(270.2) scale(1.66 1.36)" />
<rect x="1.7" y="67.3" width="31.4" height="25.9" rx="11.1" fill="none" fill-opacity="0.91"   transform="translate(67.9 89.6) rotate(28.6) scale(1.74 0.82)" />
<path d="M 80.7 62.8 C 86.9 52.2, 62.2 80.4, 48.2 67.1 C 46.5 68.9, 10.3 0.0, 14.3 4.2 C 0.0 17.7, 41.5 0.0, 41.0 2.5 C 55.3 3.4, 54.5 26.3, 61.4 26.4 C 41.5 45.5, 51.4 77.3, 42.7 91.7 C 52.6 82.9, 42.5 68.4, 42.5 57.4 C 45.2 47.0, 67.5 100.0, 77.9 99.9 C 81.7 84.5, 32.4 30.7, 43.4 25.8 C 38.8 28.7, 69.8 13.5, 65.3 25.4 Z" fill="none" fill-opacity="0.37" stroke="hsl(290, 83%, 63%)" stroke-width="2.92"  transform="translate(55.1 42.9) rotate(61.0) scale(1.75 0.85)" />
<path d="M 35.6 35.0 C 37.4 29.3, 82.6 62.2, 78.9 76.9 C 82.3 77.6, 68.9 36.2, 63.2 25.6 C 53.4 20.2, 88.9 56.4, 95.3 66.6 C 94.6 46.9, 63.4 58.5, 65.6 70.1 C 51.8 60.1, 5.3 80.1, 8.1 79.2 C 0.0 90.7, 49.1 69.6, 35.3 63.1 C 17.3 53.8, 40.7 56.0, 51.8 67.8 C 70.2 51.2, 71.2 67.6, 61.6 66.9 C 64.4 74.0, 15.7 14.8, 27.4 11.2 Z" fill="hsl(183, 71%, 60%)" fill-opacity="0.85" stroke="none" stroke-width="1.53"  transform="translate(97.0 99.3) rotate(286.7) scale(1.85 1.44)" />
<path d="M 80.1 6.2 C 95.0 0.0, 63.2 29.1, 60.9 32.6 C 75.6 14.8, 91.2 10.1, 96.8 6.8 C 81.3 0.0, 82.0 75.0, 94.3 80.1 C 100.0 72.2, 72.1 31.7, 71.8 45.9 C 78.2 34.4, 36.1 55.8, 31.7 41.5 C 37.0 44.3, 35.8 26.9, 39.6 27.1 C 49.0 44.1, 13.8 4.0, 2.9 15.5 C 8.4 17.1, 75.4 37.1, 70.5 48.9 C 75.4 58.3, 96.4 18.3, 87.6 6.9 Z" fill="none" fill-opacity="0.65" stroke="hsl(83, 65%, 44%)" stroke-width="4.93"  transform="translate(19.2 87.4) rotate(67.7) scale(1.66 1.73)" />
<rect x="0.1" y="21.8" width="45.6" height="38.0" rx="15.9" fill="none" fill-opacity="0.68" stroke="hsl(183, 71%, 60%)" stroke-width="4.6"  transform="translate(30.6 29.0) rotate(22.0) scale(0.79 1.00)" />
<path d="M 85.8 61.7 C 99.3 47.1, 36.5 64.7, 26.8 72.5 C 38.5 85.6, 82.1 82.2, 78.0 94.9 C 63.8 100.0, 13.8 13.3, 7.0 1.1 C 0.0 0.0, 38.9 100.0, 53.0 98.8 C 46.5 100.0, 37.7 18.1, 30.0 14.0 C 18.6 10.3, 37.9 30.9, 33.3 23.9 Z" fill="hsl(40, 53%, 69%)" fill-opacity="0.94" stroke="none" stroke-width="3.99"  transform="translate(4.3 42.3) rotate(19.8) scale(0.68 1.03)" />
<rect x="5.7" y="26.6" width="24.2" height="34.4" rx="0" fill="hsl(290, 83%, 63%)" fill-opacity="0.95"   transform="translate(7.5 12.3) rotate(291.9) scale(1.43 1.48)" />
<circle cx="15.7" cy="26.6" r="6.3" fill="hsl(183, 71%, 60%)" fill-opacity="0.53"  transform="translate(90.4 50.7) rotate(123.0) scale(0.75 1.32)" />
<circle cx="55.4" cy="51.9" r="1.6" fill="url(#g2)" fill-opacity="0.92"  transform="translate(40.9 63.5) rotate(248.7) scale(0.77 1.01)" />
<rect x="11.9" y="31.0" width="28.3" height="37.6" rx="10.6" fill="none" fill-opacity="0.35" stroke="hsl(144, 86%, 72%)" stroke-width="2.8"  transform="translate(4.9 61.8) rotate(246.9) scale(1.95 1.33)" />
<path d="M 45.4 45.5 C 52.1 42.5, 98.3 13.6, 90.8 2.8 C 98.7 1.9, 100.0 46.8, 99.7 49.4 C 100.0 39.6, 31.0 76.8, 21.8 85.1 C 25.4 75.8, 54.1 100.0, 52.4 90.2 C 71.3 78.2, 22.5 57.2, 36.7 65.4 C 54.8 67.9, 14.5 100.0, 6.5 95.2 Z" fill="hsl(106, 75%, 59%)" fill-opacity="0.43" stroke="none" stroke-width="1.23"   />
<circle cx="79.7" cy="49.8" r="10.7" fill="url(#g1)" fill-opacity="0.43"  transform="translate(97.8 2.5) rotate(253.2) scale(1.36 1.06)" />
<rect x="41.6" y="29.5" width="46.9" height="25.4" rx="1.8" fill="hsl(86, 72%, 68%)" fill-opacity="0.33" stroke="hsl(86, 72%, 68%)" stroke-width="4.9" filter="url(#f1)" transform="translate(0.6 51.2) rotate(246.9) scale(0.71 0.85)" />
<path d="M 57.4 79.5 C 40.9 73.0, 38.5 90.4, 45.3 82.6 C 42.4 86.3, 46.6 57.4, 53.3 72.2 C 69.5 72.8, 100.0 81.3, 93.9 66.8 C 95.2 66.9, 84.1 52.8, 79.9 62.2 C 94.5 73.2, 39.7 36.1, 35.6 29.5 C 55.4 10.5, 32.0 62.6, 38.4 77.1 C 53.7 70.0, 28.8 67.5, 39.1 54.4 C 38.4 43.6, 44.6 100.0, 40.4 96.9 C 44.4 100.0, 44.3 78.1, 38.4 73.7 C 33.0 92.7, 34.2 83.9, 22.9 97.2 Z" fill="hsl(104, 72%, 65%)" fill-opacity="0.62" stroke="none" stroke-width="4.11"  transform="translate(20.6 67.7) rotate(240.3) scale(1.74 1.99)" />
<rect x="26.0" y="40.8" width="22.6" height="12.1" rx="8.5" fill="none" fill-opacity="0.85"   transform="translate(13.7 6.8) rotate(200.5) scale(1.13 1.55)" />
<path d="M 85.8 4.8 C 67.1 0.0, 0.0 58.5, 5.4 71.5 C 0.0 69.3, 48.0 27.0, 39.8 20.5 C 33.4 1.2, 61.9 61.4, 59.9 71.3 C 75.3 63.6, 63.7 32.0, 70.0 31.4 C 87.9 32.5, 20.0 47.4, 34.0 60.2 C 14.3 54.1, 30.7 72.8, 21.2 84.4 C 29.3 97.9, 73.3 52.3, 87.6 60.6 C 68.6 54.2, 56.2 2.9, 56.5 4.9 C 66.1 0.0, 82.6 39.2, 75.3 30.3 C 91.9 33.7, 43.0 70.8, 41.3 75.2 Z" fill="hsl(290, 83%, 63%)" fill-opacity="0.50" stroke="none" stroke-width="3.13"  transform="translate(55.1 22.5) rotate(136.7) scale(1.36 0.73)" />
<path d="M 11.3 8.3 C 5.9 0.0, 22.2 9.4, 29.4 5.7 C 22.7 0.0, 58.2 28.4, 46.0 17.9 C 55.4 20.8, 53.5 38.7, 44.8 47.1 C 41.6 31.4, 79.1 50.5, 77.1 62.8 C 73.4 79.8, 26.0 29.8, 35.0 42.3 C 23.2 31.8, 45.5 25.3, 49.4 20.9 C 56.5 35.9, 18.8 81.3, 31.3 85.0 C 47.9 77.8, 63.7 25.5, 67.3 27.4 C 73.8 22.6, 11.9 93.3, 20.2 98.7 Z" fill="none" fill-opacity="0.49" stroke="hsl(104, 72%, 65%)" stroke-width="1.94"  transform="translate(97.3 27.6) rotate(33.5) scale(1.97 1.17)" />
<path d="M 94.4 73.1 C 77.8 55.7, 62.7 49.8, 54.6 54.3 C 59.9 58.5, 19.5 0.0, 24.9 10.5 C 29.7 22.1, 4.0 46.0, 18.8 48.5 C 35.5 43.4, 22.8 11.1, 11.6 5.3 C 18.5 0.0, 34.5 14.5, 43.4 18.6 C 44.9 7.3, 0.0 47.5, 3.9 55.6 C 18.4 58.0, 35.1 78.6, 40.4 82.2 C 23.0 89.4, 33.3 77.6, 42.0 76.6 Z" fill="hsl(322, 74%, 44%)" fill-opacity="0.76" stroke="none" stroke-width="4.75"  transform="translate(21.9 64.7) rotate(136.3) scale(1.37 0.89)" />
<path d="M 0.6 93.8 C 15.7 98.6, 83.5 80.4, 73.4 74.0 C 68.6 75.8, 63.9 40.6, 50.9 31.7 C 32.9 29.6, 56.9 84.3, 42.0 76.8 C 58.5 57.5, 22.2 14.9, 35.3 4.6 C 46.2 0.0, 33.9 36.9, 31.9 29.3 C 16.3 27.2, 0.0 78.6, 2.0 93.6 C 0.0 86.5, 19.2 17.6, 33.7 18.5 C 45.7 2.9, 89.9 81.2, 89.2 71.1 C 100.0 63.8, 15.3 87.8, 16.8 92.0 Z" fill="hsl(104, 72%, 65%)" fill-opacity="0.65" stroke="none" stroke-width="4.15"  transform="translate(48.3 79.0) rotate(279.1) scale(1.64 1.10)" />
<path d="M 70.2 20.4 C 80.2 1.8, 29.3 0.0, 14.7 3.1 C 28.2 0.0, 46.1 81.8, 33.2 88.5 C 37.4 95.5, 55.9 63.5, 42.4 49.1 C 33.2 62.2, 51.8 14.3, 56.4 2.9 C 47.7 18.8, 35.2 42.8, 32.9 30.2 C 43.4 37.5, 40.7 26.7, 41.8 18.9 C 43.0 0.6, 51.1 42.9, 65.7 32.9 C 80.0 36.2, 59.5 52.7, 51.3 64.9 C 49.1 64.3, 67.7 100.0, 58.9 89.3 Z" fill="none" fill-opacity="0.45" stroke="hsl(144, 86%, 72%)" stroke-width="0.86"   />
<path d="M 34.2 3.2 C 27.1 12.3, 17.0 35.5, 7.9 33.4 C 20.0 42.5, 74.7 89.0, 66.2 87.4 C 70.1 74.1, 77.9 53.6, 84.7 67.0 C 99.2 59.4, 93.5 23.6, 78.8 28.6 C 95.6 39.1, 69.4 50.2, 76.2 40.4 C 61.9 60.4, 40.5 100.0, 51.6 94.1 Z" fill="hsl(104, 72%, 65%)" fill-opacity="0.51" stroke="none" stroke-width="2.69"  transform="translate(42.1 41.8) rotate(343.6) scale(0.55 1.92)" />
<path d="M 94.4 1.2 C 94.6 0.0, 63.1 85.0, 69.2 97.9 C 88.3 81.7, 0.8 14.1, 11.9 12.7 C 7.1 24.1, 50.9 57.8, 58.1 54.2 C 56.4 56.2, 65.0 54.2, 59.4 47.7 C 47.1 31.2, 82.2 75.2, 77.4 74.2 C 74.5 86.6, 75.5 67.8, 80.1 55.7 C 85.2 64.8, 1.7 60.7, 15.5 54.9 C 23.4 42.8, 34.5 80.3, 43.7 79.1 Z" fill="hsl(40, 53%, 69%)" fill-opacity="0.54" stroke="none" stroke-width="3.66" filter="url(#f1)" transform="translate(50.0 31.6) rotate(317.5) scale(1.62 1.06)" />
<path d="M 43.1 82.1 C 38.7 65.6, 54.7 65.9, 55.0 79.4 C 59.7 84.4, 52.4 12.7, 50.9 9.0 C 56.2 0.0, 0.0 66.5, 4.7 65.0 C 17.2 50.6, 25.2 9.1, 33.4 9.5 C 52.0 24.4, 47.9 92.0, 56.2 80.2 C 44.1 89.8, 11.8 41.2, 17.5 38.7 C 1.2 55.1, 51.0 58.4, 49.8 48.1 C 68.7 40.4, 37.3 53.7, 25.2 43.0 C 6.8 25.4, 58.5 2.5, 54.3 7.3 C 41.0 23.7, 37.8 91.8, 33.8 97.6 Z" fill="none" fill-opacity="0.75" stroke="hsl(83, 65%, 44%)" stroke-width="2.05"  transform="translate(62.8 40.3) rotate(31.5) scale(1.49 1.79)" />
<rect x="20.3" y="19.4" width="46.8" height="33.9" rx="0" fill="hsl(290, 83%, 63%)" fill-opacity="0.53"   transform="translate(43.8 5.8) rotate(201.6) scale(1.21 1.03)" />
<path d="M 45.9 49.4 C 39.9 53.6, 20.5 79.1, 14.4 75.6 C 9.6 91.4, 54.5 88.6, 55.9 80.6 C 56.8 67.9, 0.0 32.4, 5.8 26.8 C 0.0 45.4, 63.6 77.3, 62.0 77.9 C 57.9 87.6, 40.3 68.9, 31.1 71.0 C 34.5 71.5, 86.5 70.4, 76.8 75.0 C 75.5 59.2, 59.2 97.4, 53.2 93.6 C 42.9 100.0, 57.7 82.0, 43.2 82.7 C 28.5 74.0, 64.2 10.1, 75.8 8.1 " fill="hsl(242, 72%, 49%)" fill-opacity="0.92" stroke="none" stroke-width="1.58"  transform="translate(41.9 25.9) rotate(89.4) scale(1.03 1.25)" />
<path d="M 26.0 30.9 C 44.8 20.4, 43.9 67.8, 54.5 72.7 C 54.9 82.7, 56.7 82.4, 54.2 93.4 C 50.3 96.2, 77.3 32.5, 65.0 39.5 C 65.3 56.3, 22.4 35.1, 32.9 39.9 C 31.8 21.7, 25.9 42.7, 19.5 48.6 C 4.6 44.2, 13.0 0.0, 23.1 6.9 C 30.0 11.1, 4.6 13.1, 4.8 10.3 C 15.1 5.8, 21.8 0.0, 11.1 1.1 C 15.2 0.0, 7.4 21.3, 4.3 26.7 C 21.2 9.0, 0.0 8.3, 11.5 16.6 Z" fill="none" fill-opacity="0.63" stroke="hsl(83, 65%, 44%)" stroke-width="3.29"  transform="translate(37.1 89.3) rotate(336.0) scale(1.69 1.40)" />
<path d="M 1.5 39.2 C 0.0 52.9, 31.9 46.6, 46.4 35.0 C 34.4 24.0, 7.4 46.4, 13.3 40.0 C 32.9 56.5, 0.0 0.0, 1.3 1.3 C 0.3 0.0, 100.0 52.2, 96.8 53.0 C 100.0 62.8, 28.1 71.9, 14.2 78.8 C 27.2 63.4, 38.9 89.4, 31.5 92.9 C 42.4 74.9, 67.3 92.8, 71.5 86.7 Z" fill="hsl(2, 82%, 55%)" fill-opacity="0.43" stroke="none" stroke-width="0.82"  transform="translate(65.1 0.1) rotate(134.3) scale(1.90 1.68)" />
<circle cx="34.8" cy="84.3" r="5.3" fill="url(#g1)" fill-opacity="0.65"  transform="translate(16.3 53.6) rotate(58.3) scale(0.57 0.58)" />
<path d="M 8.1 9.4 C 0.0 3.3, 15.3 90.0, 15.0 89.3 C 21.0 100.0, 53.7 39.7, 46.5 30.0 C 34.8 20.0, 14.4 83.0, 5.4 74.0 C 22.5 63.2, 53.0 60.3, 66.1 57.3 C 71.1 63.6, 19.9 40.6, 25.3 54.5 C 26.3 66.2, 58.6 40.4, 56.7 48.4 Z" fill="hsl(183, 71%, 60%)" fill-opacity="0.85" stroke="none" stroke-width="0.95"  transform="translate(23.0 73.6) rotate(50.2) scale(1.52 0.59)" />
<path d="M 40.6 85.2 C 23.7 93.6, 79.5 23.9, 82.2 10.4 C 90.6 22.5, 100.0 80.7, 96.7 77.1 C 76.9 57.9, 44.4 24.0, 35.1 34.7 C 21.2 44.6, 88.9 96.1, 86.1 92.0 C 90.8 100.0, 60.8 0.0, 54.2 3.2 C 52.0 20.6, 28.4 76.6, 16.3 83.5 C 0.4 75.6, 95.8 59.2, 90.6 53.6 C 100.0 64.6, 16.9 4.5, 16.5 6.1 C 9.0 0.0, 25.1 14.0, 19.7 26.7 C 29.5 20.7, 17.6 29.6, 29.0 19.9 Z" fill="hsl(106, 75%, 59%)" fill-opacity="0.97" stroke="none" stroke-width="1.96" filter="url(#f1)" transform="translate(29.3 85.4) rotate(318.9) scale(1.29 1.19)" />
<path d="M 4.3 9.9 C 1.4 0.0, 63.2 14.0, 65.3 0.7 C 65.6 6.4, 0.4 89.1, 9.6 76.1 C 28.1 67.4, 72.7 53.2, 64.0 45.8 C 65.1 26.2, 77.8 68.8, 68.1 61.0 C 87.3 61.6, 72.4 14.2, 78.9 8.3 C 80.6 5.1, 8.0 99.2, 19.5 97.4 Z" fill="hsl(151, 70%, 62%)" fill-opacity="0.34" stroke="none" stroke-width="0.91"   />
<path d="M 17.0 4.1 C 33.1 11.6, 91.6 100.0, 80.5 98.1 C 68.8 100.0, 29.8 73.6, 33.0 67.5 C 13.1 56.5, 12.7 18.4, 19.7 25.1 C 23.7 5.9, 11.5 22.1, 15.2 8.9 C 3.8 0.0, 19.1 73.6, 25.0 71.8 C 41.7 89.6, 54.2 87.5, 50.9 83.4 Z" fill="none" fill-opacity="0.66" stroke="hsl(40, 53%, 69%)" stroke-width="4.47"  transform="translate(66.3 63.6) rotate(198.1) scale(0.85 1.10)" />
<path d="M 60.8 56.1 C 64.6 74.5, 16.9 53.4, 2.3 57.4 C 1.4 53.8, 29.7 25.8, 43.2 24.8 C 38.7 42.4, 26.2 0.0, 28.9 5.0 C 20.3 0.0, 52.2 0.0, 61.5 2.5 C 44.3 16.6, 20.8 26.0, 27.0 38.8 C 8.8 43.5, 85.9 27.6, 71.5 15.2 C 70.6 27.4, 6.7 100.0, 3.9 92.7 C 2.4 92.4, 62.4 39.1, 61.9 43.0 C 76.2 38.4, 47.5 100.0, 51.3 99.9 C 36.1 100.0, 51.6 42.5, 66.5 44.4 Z" fill="none" fill-opacity="0.45" stroke="hsl(242, 72%, 49%)" stroke-width="2.27"  transform="translate(97.7 27.6) rotate(285.1) scale(1.96 2.00)" />
<circle cx="25.6" cy="9.9" r="9.1" fill="url(#g1)" fill-opacity="0.78" filter="url(#f1)" transform="translate(17.2 16.9) rotate(340.9) scale(1.72 0.53)" />
<circle cx="65.1" cy="36.8" r="4.4" fill="url(#g2)" fill-opacity="0.58"  transform="translate(31.5 67.2) rotate(122.2) scale(1.92 1.19)" />
<rect x="2.6" y="54.8" width="31.4" height="22.4" rx="19.8" fill="hsl(151, 70%, 62%)" fill-opacity="0.84"   transform="translate(43.4 81.3) rotate(85.7) scale(0.86 1.97)" />
<path d="M 0.5 79.6 C 0.0 71.5, 86.4 40.1, 90.2 42.8 C 80.4 39.4, 21.8 0.0, 12.3 3.9 C 10.9 9.5, 15.3 38.3, 22.3 24.6 C 34.6 12.4, 6.3 65.5, 17.4 79.5 C 6.3 78.0, 89.8 63.7, 91.5 60.3 C 74.1 40.8, 24.4 13.9, 37.4 18.6 C 41.5 18.2, 83.5 31.6, 82.0 18.2 C 92.9 34.0, 42.0 54.7, 48.2 43.5 Z" fill="none" fill-opacity="0.89" stroke="hsl(290, 83%, 63%)" stroke-width="1.65" filter="url(#f1)"  />
<rect x="9.6" y="10.2" width="27.9" height="28.0" rx="0" fill="none" fill-opacity="0.58"   transform="translate(71.1 99.4) rotate(50.2) scale(1.86 1.31)" />
<rect x="2.1" y="23.5" width="49.3" height="14.1" rx="0" fill="none" fill-opacity="0.82"   transform="translate(95.7 58.3) rotate(78.1) scale(1.82 0.77)" />
<circle cx="72.8" cy="92.5" r="0.4" fill="hsl(2, 82%, 55%)" fill-opacity="0.75"  transform="translate(36.7 32.6) rotate(41.5) scale(0.94 1.88)" />
<path d="M 75.5 96.9 C 55.8 86.4, 84.9 68.2, 81.4 82.7 C 94.0 75.8, 33.8 53.2, 47.1 62.7 C 59.9 46.5, 62.0 75.8, 69.8 70.0 C 68.2 67.7, 8.1 4.2, 4.4 4.0 C 21.0 2.0, 9.5 48.7, 2.7 59.6 C 19.9 76.5, 14.7 45.1, 11.5 38.2 C 6.4 49.4, 7.4 15.9, 9.4 14.1 C 17.2 4.3, 54.2 22.2, 40.7 16.6 Z" fill="none" fill-opacity="0.28" stroke="hsl(106, 75%, 59%)" stroke-width="3.25"  transform="translate(0.6 51.9) rotate(249.6) scale(1.97 1.93)" />
<path d="M 10.3 59.7 C 4.8 68.8, 76.9 57.3, 63.1 46.5 C 63.2 58.0, 20.1 0.0, 7.4 8.3 C 25.7 0.0, 49.3 27.2, 41.6 41.8 C 40.7 47.6, 78.0 74.2, 93.0 60.8 C 73.1 45.2, 23.0 26.4, 14.8 30.1 C 0.0 31.1, 64.9 65.5, 60.8 71.1 C 68.8 70.7, 17.2 49.3, 10.4 56.4 C 0.0 38.5, 77.9 65.0, 80.7 65.7 C 66.0 54.0, 0.6 43.2, 5.7 51.6 C 19.8 53.2, 93.0 36.4, 79.1 44.5 " fill="none" fill-opacity="0.65" stroke="hsl(151, 70%, 62%)" stroke-width="2.77"  transform="translate(0.7 81.0) rotate(192.1) scale(1.51 1.09)" />
<rect x="67.2" y="45.6" width="23.1" height="18.3" rx="7.0" fill="hsl(242, 72%, 49%)" fill-opacity="0.57"   transform="translate(75.3 43.5) rotate(357.1) scale(0.54 1.06)" />
<path d="M 77.1 75.5 C 69.3 94.3, 24.4 46.1, 28.4 39.8 C 28.8 20.5, 21.8 45.7, 8.5 45.4 C 0.0 59.3, 9.3 22.5, 6.0 19.7 C 0.0 33.5, 71.4 42.6, 66.2 51.2 C 48.5 64.7, 45.0 93.8, 45.1 81.2 C 39.9 79.1, 71.2 30.7, 71.2 17.4 C 73.0 32.2, 77.9 4.7, 75.2 7.4 Z" fill="none" fill-opacity="0.87" stroke="hsl(144, 86%, 72%)" stroke-width="1.98"  transform="translate(41.6 76.2) rotate(104.7) scale(1.03 1.75)" />
<path d="M 14.6 34.8 C 0.0 45.4, 82.9 81.6, 73.2 76.4 C 92.0 57.5, 40.0 28.9, 54.9 42.6 C 50.1 39.9, 43.2 83.3, 32.0 90.9 C 38.4 100.0, 17.7 22.5, 31.4 23.8 C 45.1 32.5, 23.7 69.2, 12.1 74.5 C 31.3 79.1, 73.8 62.5, 62.1 51.2 C 54.1 57.6, 54.6 52.2, 46.4 44.9 C 35.9 59.1, 5.5 69.4, 20.4 66.7 C 17.1 83.4, 33.7 19.3, 26.9 30.5 C 38.8 37.9, 83.5 75.5, 70.6 71.1 Z" fill="hsl(106, 75%, 59%)" fill-opacity="0.72" stroke="none" stroke-width="1.55"  transform="translate(91.8 90.4) rotate(226.8) scale(1.31 0.68)" />
<circle cx="70.6" cy="2.3" r="2.5" fill="hsl(290, 83%, 63%)" fill-opacity="0.55" filter="url(#f1)" transform="translate(31.3 9.9) rotate(63.6) scale(0.85 0.56)" />
<rect x="50.7" y="19.4" width="38.8" height="33.2" rx="9.9" fill="none" fill-opacity="0.99"  filter="url(#f1)" transform="translate(28.8 90.4) rotate(55.5) scale(1.45 1.16)" />
<path d="M 95.7 96.2 C 93.1 99.3, 11.5 20.2, 1.6 30.2 C 0.0 47.2, 12.2 96.7, 11.7 84.9 C 0.0 97.4, 61.1 76.2, 68.5 90.1 C 86.7 100.0, 72.8 21.9, 74.5 33.1 C 81.5 24.3, 7.4 6.9, 16.5 4.6 C 0.0 3.5, 21.6 66.7, 25.9 75.8 C 37.5 75.3, 0.0 5.8, 3.8 7.2 C 10.9 17.1, 95.1 81.5, 88.4 72.0 C 76.3 84.8, 100.0 81.0, 95.9 68.6 Z" fill="none" fill-opacity="0.79" stroke="hsl(106, 75%, 59%)" stroke-width="2.65" filter="url(#f1)" transform="translate(89.0 64.2) rotate(251.6) scale(1.54 0.56)" />
<circle cx="61.4" cy="78.7" r="10.3" fill="hsl(242, 72%, 49%)" fill-opacity="0.96"  transform="translate(70.6 18.4) rotate(259.3) scale(1.36 1.00)" />
<circle cx="81.6" cy="70.9" r="6.0" fill="hsl(144, 86%, 72%)" fill-opacity="0.43"  transform="translate(0.1 15.5) rotate(48.9) scale(0.57 0.60)" />
<circle cx="17.5" cy="85.4" r="1.6" fill="hsl(2, 82%, 55%)" fill-opacity="0.83"   />
<path d="M 67.2 5.2 C 63.9 17.1, 4.9 37.1, 9.0 38.6 C 26.5 53.5, 8.7 66.8, 2.8 69.0 C 0.0 50.0, 78.4 77.0, 87.9 69.5 C 94.5 86.0, 66.7 28.2, 59.6 30.8 C 46.9 12.1, 0.0 77.7, 0.6 88.7 C 9.1 80.2, 19.2 66.9, 33.3 53.1 C 28.5 61.7, 0.0 73.3, 8.4 78.5 C 6.0 63.5, 15.6 23.7, 3.3 27.7 C 0.0 10.3, 15.0 0.0, 10.7 3.9 C 11.3 6.7, 58.8 78.5, 60.7 90.8 Z" fill="none" fill-opacity="0.65" stroke="hsl(183, 71%, 60%)" stroke-width="5.28"  transform="translate(27.8 50.4) rotate(112.8) scale(1.20 0.63)" />
<rect x="56.5" y="8.8" width="27.1" height="36.2" rx="0" fill="hsl(144, 86%, 72%)" fill-opacity="0.69"   transform="translate(9.5 90.2) rotate(20.0) scale(1.39 0.72)" />
<rect x="15.9" y="27.0" width="24.4" height="28.3" rx="0" fill="hsl(183, 71%, 60%)" fill-opacity="0.56"   transform="translate(63.0 44.5) rotate(244.8) scale(1.46 0.81)" />
<circle cx="56.6" cy="93.1" r="17.0" fill="hsl(83, 65%, 44%)" fill-opacity="0.74"  transform="translate(31.8 63.5) rotate(56.4) scale(1.82 1.73)" />
<path d="M 8.6 34.9 C 6.3 17.4, 80.7 17.8, 92.7 24.1 C 100.0 4.7, 50.3 45.1, 59.4 43.5 C 52.9 40.9, 8.7 58.5, 19.4 60.6 C 25.8 80.1, 0.0 77.0, 7.5 85.8 C 0.0 67.1, 85.3 17.5, 95.9 17.4 C 100.0 0.0, 53.2 12.9, 51.1 5.8 C 45.9 0.0, 24.9 67.2, 25.7 70.9 Z" fill="hsl(322, 74%, 44%)" fill-opacity="0.30" stroke="none" stroke-width="5.02" filter="url(#f1)" transform="translate(65.3 46.1) rotate(334.3) scale(1.08 0.93)" />
<path d="M 88.9 86.9 C 90.5 100.0, 10.0 43.3, 2.1 28.7 C 0.0 11.3, 74.8 80.2, 79.4 92.1 C 96.6 82.1, 3.6 59.1, 1.0 73.6 C 0.0 79.9, 38.7 68.4, 50.4 57.2 C 61.6 46.0, 52.3 37.9, 58.7 29.3 C 47.8 38.7, 45.7 84.5, 59.9 96.1 C 72.0 100.0, 39.7 0.0, 36.8 2.3 C 37.0 8.0, 37.1 50.8, 44.4 59.4 C 38.5 50.0, 82.0 72.5, 88.3 84.6 Z" fill="hsl(40, 53%, 69%)" fill-opacity="0.57" stroke="none" stroke-width="3.80" filter="url(#f1)" transform="translate(41.9 7.9) rotate(130.5) scale(1.77 1.61)" />
<path d="M 22.0 9.9 C 34.7 5.1, 70.2 63.5, 82.8 76.2 C 75.0 65.7, 8.3 7.2, 5.5 4.0 C 0.0 11.4, 54.9 85.2, 64.3 70.8 C 53.1 84.5, 17.3 15.5, 3.8 19.3 C 0.0 6.9, 76.8 83.8, 88.1 79.4 C 77.4 82.7, 53.2 73.7, 45.0 87.1 Z" fill="hsl(322, 74%, 44%)" fill-opacity="0.43" stroke="none" stroke-width="4.84"  transform="translate(88.8 43.5) rotate(79.1) scale(1.93 1.51)" />
<rect x="71.0" y="48.1" width="20.7" height="29.2" rx="0" fill="none" fill-opacity="0.21" stroke="hsl(144, 86%, 72%)" stroke-width="3.2" filter="url(#f1)" transform="translate(71.4 81.5) rotate(62.9) scale(0.66 0.64)" />
<path d="M 39.7 16.6 C 22.8 19.3, 66.1 54.0, 81.1 45.6 C 100.0 51.3, 33.2 100.0, 30.3 89.3 C 26.1 100.0, 60.7 72.3, 49.8 78.9 C 61.8 63.3, 63.3 28.4, 50.9 34.6 C 42.2 28.1, 56.2 0.0, 68.0 0.3 C 67.2 0.0, 89.8 19.5, 94.3 5.9 C 95.7 0.0, 61.2 63.3, 55.2 58.3 Z" fill="hsl(40, 53%, 69%)" fill-opacity="0.79" stroke="none" stroke-width="5.24"  transform="translate(93.1 79.5) rotate(12.3) scale(1.63 1.19)" />
<rect x="55.0" y="64.3" width="42.5" height="11.6" rx="0" fill="hsl(144, 86%, 72%)" fill-opacity="0.31" stroke="hsl(144, 86%, 72%)" stroke-width="1.4"   />
<rect x="60.5" y="14.0" width="30.7" height="29.5" rx="0" fill="hsl(322, 74%, 44%)" fill-opacity="0.20"  filter="url(#f1)" transform="translate(88.9 42.1) rotate(325.1) scale(1.74 1.36)" />
<rect x="14.3" y="67.6" width="35.3" height="15.5" rx="0" fill="none" fill-opacity="0.74" stroke="hsl(151, 70%, 62%)" stroke-width="2.4"  transform="translate(77.5 31.8) rotate(165.7) scale(0.77 0.90)" />
<path d="M 89.9 80.5 C 100.0 84.1, 3.4 53.6, 1.6 41.2 C 0.0 53.9, 86.2 100.0, 83.7 96.6 C 100.0 83.2, 10.7 84.7, 1.0 92.7 C 0.0 80.2, 43.5 85.9, 42.2 91.5 C 48.3 100.0, 51.6 60.9, 47.1 46.9 C 33.5 46.7, 93.6 60.5, 89.5 68.5 Z" fill="hsl(104, 72%, 65%)" fill-opacity="0.60" stroke="none" stroke-width="4.64"  transform="translate(96.0 78.6) rotate(241.3) scale(1.61 1.26)" />
<path d="M 26.7 28.4 C 27.5 33.3, 100.0 35.6, 94.0 29.9 C 100.0 37.7, 70.1 32.6, 64.4 22.3 C 53.8 12.2, 7.2 90.0, 9.1 76.2 C 4.2 58.6, 69.6 80.0, 81.3 88.1 C 87.1 93.3, 83.6 38.4, 94.0 45.1 C 86.2 54.5, 66.4 12.0, 76.5 20.6 Z" fill="none" fill-opacity="0.72" stroke="hsl(144, 86%, 72%)" stroke-width="0.82"  transform="translate(49.7 61.4) rotate(236.6) scale(1.63 1.30)" />
<rect x="12.1" y="30.0" width="39.1" height="39.4" rx="0" fill="none" fill-opacity="0.49"   transform="translate(37.8 34.4) rotate(312.2) scale(0.60 1.72)" />
<circle cx="82.8" cy="53.4" r="6.2" fill="url(#g2)" fill-opacity="0.62"  transform="translate(95.7 30.8) rotate(272.4) scale(1.37 1.09)" />
<path d="M 93.4 13.4 C 100.0 25.5, 100.0 70.2, 94.0 64.5 C 87.2 55.2, 86.7 82.3, 72.2 81.3 C 75.4 72.7, 0.0 25.0, 8.8 18.4 C 15.5 26.7, 56.3 99.5, 58.2 86.2 C 54.8 100.0, 0.0 24.2, 8.1 26.7 C 1.4 17.1, 71.2 14.4, 82.5 2.1 C 67.7 12.5, 59.8 62.8, 74.0 62.6 Z" fill="none" fill-opacity="0.61" stroke="hsl(40, 53%, 69%)" stroke-width="3.51"  transform="translate(56.0 83.1) rotate(123.9) scale(1.97 1.56)" />
<path d="M 17.7 54.1 C 19.1 59.9, 60.4 26.0, 51.1 30.7 C 36.0 39.5, 73.6 23.7, 67.6 15.0 C 60.1 14.1, 73.6 48.2, 63.4 41.0 C 44.8 59.9, 30.6 87.9, 26.4 83.4 C 40.5 86.1, 60.7 86.4, 50.5 89.2 C 52.5 70.6, 44.5 27.1, 40.4 32.8 C 38.8 34.4, 16.1 62.8, 5.0 64.5 Z" fill="hsl(40, 53%, 69%)" fill-opacity="0.71" stroke="none" stroke-width="1.49"   />
<circle cx="18.9" cy="83.8" r="1.3" fill="hsl(86, 72%, 68%)" fill-opacity="0.78"   />
<path d="M 77.5 47.9 C 95.3 60.2, 100.0 49.3, 95.4 35.4 C 100.0 26.1, 2.2 84.1, 14.5 78.4 C 30.4 75.3, 17.2 94.3, 11.7 91.9 C 30.5 77.9, 91.1 84.3, 91.5 80.6 C 86.4 79.5, 75.4 100.0, 70.6 88.7 C 65.9 69.7, 93.0 34.7, 85.6 34.7 C 79.9 34.8, 15.1 33.3, 24.3 45.8 Z" fill="hsl(104, 72%, 65%)" fill-opacity="0.53" stroke="none" stroke-width="4.12"  transform="translate(19.9 56.2) rotate(73.5) scale(1.84 1.55)" />
<path d="M 96.6 17.1 C 88.2 7.7, 14.3 66.1, 15.8 58.3 C 0.0 51.3, 92.9 0.0, 84.9 7.7 C 98.8 27.6, 83.6 62.8, 97.3 49.9 C 77.9 46.1, 38.8 72.1, 29.2 65.6 C 18.7 60.6, 39.1 87.7, 40.8 96.3 C 47.9 90.9, 90.1 41.0, 87.5 39.1 C 94.6 48.4, 52.7 47.0, 44.4 60.4 C 36.2 53.3, 2.1 84.8, 8.9 93.3 C 21.1 77.2, 29.0 3.5, 36.9 9.4 C 26.3 26.0, 27.6 17.9, 20.1 5.4 Z" fill="hsl(242, 72%, 49%)" fill-opacity="0.51" stroke="none" stroke-width="1.32"  transform="translate(48.3 36.7) rotate(133.5) scale(1.33 1.42)" />
<path d="M 20.0 99.9 C 21.2 100.0, 84.6 11.7, 87.5 23.6 C 78.0 29.2, 16.8 47.3, 14.8 58.7 C 19.8 54.5, 100.0 44.5, 98.1 39.3 C 92.5 52.2, 59.0 6.0, 61.7 11.4 C 66.2 17.2, 13.8 61.9, 24.6 56.1 C 5.0 75.2, 21.4 78.7, 14.3 74.3 C 23.5 70.6, 92.7 36.5, 81.6 25.3 C 90.8 5.9, 90.3 78.1, 85.0 90.6 Z" fill="none" fill-opacity="0.40" stroke="hsl(242, 72%, 49%)" stroke-width="3.52" filter="url(#f1)" transform="translate(18.4 23.7) rotate(154.1) scale(0.88 0.87)" />
<rect x="46.7" y="33.9" width="26.5" height="31.8" rx="18.8" fill="none" fill-opacity="0.61"   transform="translate(22.6 16.0) rotate(290.8) scale(0.52 1.86)" />
<path d="M 39.3 1.9 C 19.8 0.0, 82.6 40.8, 81.6 30.4 C 81.1 29.8, 44.3 49.7, 40.3 39.6 C 58.3 26.4, 48.3 67.4, 39.6 76.5 C 40.0 76.7, 22.6 6.4, 25.4 21.0 C 23.3 32.3, 30.9 13.9, 39.0 2.7 C 46.0 10.1, 94.2 77.0, 88.0 82.0 C 74.5 68.3, 82.4 88.8, 87.6 89.0 Z" fill="none" fill-opacity="0.36" stroke="hsl(86, 72%, 68%)" stroke-width="2.81"   />
<circle cx="98.0" cy="41.9" r="8.6" fill="hsl(83, 65%, 44%)" fill-opacity="0.90"  transform="translate(26.3 87.9) rotate(29.4) scale(0.58 1.50)" />
<path d="M 89.6 49.0 C 89.2 40.8, 27.9 34.4, 20.2 45.3 C 11.9 60.0, 54.2 28.9, 57.1 15.3 C 55.5 8.3, 25.5 25.4, 29.8 39.1 C 24.8 51.0, 53.9 30.5, 44.5 36.9 C 25.6 31.6, 80.0 19.0, 66.0 5.6 C 62.9 0.0, 87.4 17.6, 87.1 19.5 C 82.3 20.3, 5.1 31.0, 13.1 32.2 Z" fill="hsl(242, 72%, 49%)" fill-opacity="0.71" stroke="none" stroke-width="1.08" filter="url(#f1)" transform="translate(63.3 19.7) rotate(93.4) scale(0.55 1.84)" />
<path d="M 83.9 83.9 C 100.0 65.4, 82.4 23.1, 73.3 27.0 C 83.9 23.6, 86.8 51.1, 91.6 46.8 C 87.3 27.5, 31.6 42.1, 41.1 29.3 C 52.3 45.9, 87.7 66.0, 89.6 52.9 C 73.2 45.8, 9.6 87.1, 20.0 88.3 C 37.1 94.3, 39.0 39.6, 32.9 52.9 C 15.6 40.3, 0.0 64.8, 10.1 55.2 Z" fill="none" fill-opacity="0.31" stroke="hsl(183, 71%, 60%)" stroke-width="4.52"  transform="translate(62.5 20.5) rotate(284.9) scale(1.19 1.73)" />
<g opacity="0.066">
<rect x="0" y="0" width="1" height="100" fill="black" />
<rect x="22" y="0" width="1" height="100" fill="black" />
<rect x="44" y="0" width="1" height="100" fill="black" />
<rect x="66" y="0" width="1" height="100" fill="black" />
<rect x="88" y="0" width="1" height="100" fill="black" />
<rect x="0" y="0" width="100" height="1" fill="black" />
<rect x="0" y="22" width="100" height="1" fill="black" />
<rect x="0" y="44" width="100" height="1" fill="black" />
<rect x="0" y="66" width="100" height="1" fill="black" />
<rect x="0" y="88" width="100" height="1" fill="black" />
</g>

</svg>
