<?xml version="1.0" encoding="UTF-8"?>
<svg xmlns="http://www.w3.org/2000/svg" width="100" height="100" viewBox="0 0 100 100">
<defs>
<linearGradient id="g0" x1="0%" y1="0%" x2="100%" y2="100%">
<stop offset="0.0%" stop-color="hsl(106, 75%, 59%)" />
<stop offset="33.3%" stop-color="hsl(183, 71%, 60%)" />
<stop offset="66.7%" stop-color="hsl(242, 72%, 49%)" />
<stop offset="100.0%" stop-color="hsl(322, 74%, 44%)" />
</linearGradient>
<linearGradient id="g1" x1="0%" y1="0%" x2="100%" y2="100%">
<stop offset="0.0%" stop-color="hsl(290, 83%, 63%)" />
<stop offset="33.3%" stop-color="hsl(2, 82%, 55%)" />
<stop offset="66.7%" stop-color="hsl(86, 72%, 68%)" />
<stop offset="100.0%" stop-color="hsl(83, 65%, 44%)" />
</linearGradient>
<linearGradient id="g2" x1="0%" y1="0%" x2="100%" y2="100%">
<stop offset="0.0%" stop-color="hsl(40, 53%, 69%)" />
<stop offset="33.3%" stop-color="hsl(104, 72%, 65%)" />
<stop offset="66.7%" stop-color="hsl(144, 86%, 72%)" />
<stop offset="100.0%" stop-color="hsl(151, 70%, 62%)" />
</linearGradient>
<filter id="f1" x="-20%" y="-20%" width="140%" height="140%">
  <feGaussianBlur stdDeviation="0.7798790336979957" />
</filter>

</defs>

<rect x="49.0" y="2.4" width="28.3" height="31.3" rx="2.9" fill="hsl(151, 70%, 62%)" fill-opacity="0.77"   transform="translate(47.3 78.5) rotate(179.2) scale(1.85 1.97)" />
<circle cx="50.9" cy="78.6" r="2.6" fill="hsl(144, 86%, 72%)" fill-opacity="0.66"  transform="translate(15.9 9.4) rotate(272.4) scale(0.87 0.75)" />
<rect x="40.3" y="28.1" width="22.6" height="19.1" rx="18.1" fill="none" fill-opacity="0.56"   transform="translate(68.7 2.7) rotate(90.6) scale(1.80 0.51)" />
<path d="M 78.7 83.6 C 86.9 69.5, 78.8 19.7, 93.1 10.1 C 88.1 14.7, 44.0 18.7, 49.9 4.2 C 63.2 14.9, 15.3 67.3, 11.7 78.8 C 14.7 86.3, 23.5 84.7, 17.9 93.3 C 7.3 100.0, 1.6 73.6, 10.3 84.6 C 0.0 93.0, 28.5 3.3, 42.8 13.5 Z" fill="hsl(183, 71%, 60%)" fill-opacity="0.38" stroke="none" stroke-width="2.09"  transform="translate(90.9 93.9) rotate(296.6) scale(1.35 1.20)" />
<path d="M 5.6 81.5 C 20.5 81.5, 98.4 53.7, 85.8 63.4 C 81.4 81.8, 61.7 30.4, 60.8 38.4 C 69.9 55.9, 45.1 69.2, 42.3 57.7 C 26.2 70.0, 17.7 14.4, 4.5 18.8 C 14.5 38.6, 90.8 9.0, 98.4 13.6 C 80.4 15.5, 75.7 100.0, 82.1 96.7 C 88.2 80.6, 18.4 48.3, 18.4 56.8 C 33.6 39.1, 26.4 49.8, 39.1 39.7 C 56.3 40.1, 24.8 0.3, 29.4 2.9 C 32.1 12.2, 36.6 64.3, 34.4 53.2 Z" fill="none" fill-opacity="0.48" stroke="hsl(40, 53%, 69%)" stroke-width="3.01"   />
<rect x="44.6" y="39.6" width="22.7" height="26.3" rx="7.8" fill="none" fill-opacity="0.27"   transform="translate(44.2 48.8) rotate(296.2) scale(0.76 0.64)" />
<path d="M 69.8 26.1 C 78.2 11.9, 88.4 53.6, 85.4 57.0 C 87.7 48.9, 100.0 14.2, 94.5 24.7 C 81.7 9.0, 13.8 73.2, 27.3 65.6 C 42.0 79.4, 34.7 40.9, 36.1 35.2 C 17.9 19.4, 54.2 14.6, 58.6 24.9 C 41.6 15.3, 37.8 68.5, 42.6 79.5 C 56.1 85.5, 74.7 25.0, 63.7 15.2 C 80.5 0.0, 21.0 54.7, 21.4 64.4 C 13.8 71.6, 55.0 41.1, 65.2 34.5 Z" fill="none" fill-opacity="0.88" stroke="hsl(242, 72%, 49%)" stroke-width="2.20"  transform="translate(55.4 18.9) rotate(110.2) scale(1.86 1.30)" />
<rect x="29.3" y="63.8" width="22.8" height="23.9" rx="0" fill="hsl(40, 53%, 69%)" fill-opacity="0.88"   transform="translate(27.7 21.1) rotate(81.9) scale(0.58 1.55)" />
<circle cx="67.4" cy="99.9" r="4.0" fill="url(#g0)" fill-opacity="0.98"   />
<rect x="18.0" y="70.9" width="44.1" height="15.4" rx="18.2" fill="none" fill-opacity="0.80"   transform="translate(14.0 86.5) rotate(110.8) scale(0.75 1.11)" />
<path d="M 94.3 47.9 C 87.1 49.9, 54.8 0.0, 40.1 7.6 C 49.1 4.8, 74.4 7.7, 63.8 3.3 C 49.8 19.6, 41.2 53.9, 44.8 55.0 C 39.9 49.7, 22.0 91.0, 33.2 98.3 C 17.5 100.0, 38.3 0.0, 33.0 0.3 C 44.2 0.0, 72.6 78.0, 62.2 69.3 C 47.4 53.9, 82.5 37.1, 70.9 27.3 C 71.3 21.7, 31.2 48.7, 16.4 60.2 C 28.9 49.7, 85.3 7.4, 86.2 19.2 C 99.9 11.6, 14.3 100.0, 20.1 94.7 Z" fill="none" fill-opacity="0.47" stroke="hsl(106, 75%, 59%)" stroke-width="3.14" filter="url(#f1)" transform="translate(46.8 37.4) rotate(241.3) scale(1.80 0.85)" />
<rect x="7.9" y="50.8" width="26.6" height="36.5" rx="18.4" fill="none" fill-opacity="0.39"   transform="translate(59.1 12.2) rotate(270.2) scale(1.61 1.49)" />
<path d="M 26.0 31.3 C 29.3 37.7, 41.1 100.0, 35.1 86.5 C 18.3 88.8, 11.4 94.6, 5.7 90.2 C 4.3 98.8, 100.0 38.2, 96.9 43.8 C 95.8 52.0, 46.9 94.9, 52.4 89.5 C 44.7 70.3, 32.9 56.7, 21.4 51.8 C 23.7 49.9, 54.7 9.3, 48.5 17.1 C 65.0 10.9, 0.0 36.0, 6.9 21.8 Z" fill="hsl(144, 86%, 72%)" fill-opacity="0.56" stroke="none" stroke-width="1.03"  transform="translate(54.8 96.9) rotate(195.1) scale(1.67 1.67)" />
<rect x="29.3" y="15.8" width="45.3" height="12.7" rx="10.5" fill="hsl(86, 72%, 68%)" fill-opacity="0.90"   transform="translate(57.7 74.5) rotate(36.0) scale(0.63 1.06)" />
<path d="M 48.6 43.6 C 40.7 37.3, 33.6 60.5, 23.1 58.1 C 14.0 48.1, 81.3 23.0, 91.9 15.0 C 97.9 0.0, 8.4 31.7, 0.4 24.3 C 10.3 7.8, 53.0 37.3, 38.2 42.6 C 40.0 55.7, 65.4 64.8, 55.9 78.8 C 56.6 87.0, 37.4 49.1, 27.8 60.7 C 32.5 52.8, 35.6 5.5, 38.6 10.9 C 57.2 6.4, 5.9 18.0, 5.8 6.6 C 14.8 14.4, 35.8 23.7, 35.8 18.8 C 28.3 16.2, 84.4 0.0, 75.9 1.6 Z" fill="none" fill-opacity="0.92" stroke="hsl(322, 74%, 44%)" stroke-width="3.36"  transform="translate(76.3 27.2) rotate(85.5) scale(1.37 1.58)" />
<path d="M 59.8 62.2 C 55.3 62.4, 100.0 71.8, 99.9 65.9 C 100.0 64.5, 27.1 56.7, 29.3 58.7 C 14.0 58.7, 68.2 68.6, 82.8 68.4 C 97.2 82.6, 71.0 5.1, 73.3 12.6 C 87.2 0.0, 41.9 59.9, 31.3 56.5 C 50.6 45.0, 34.0 71.0, 28.3 75.0 C 21.6 65.4, 69.3 39.6, 75.6 41.9 C 63.3 47.3, 69.4 84.1, 57.6 87.7 C 68.7 87.0, 39.0 63.5, 32.4 52.2 C 13.0 51.3, 6.8 60.5, 1.2 74.3 " fill="none" fill-opacity="0.46" stroke="hsl(322, 74%, 44%)" stroke-width="1.99"  transform="translate(31.7 4.7) rotate(50.4) scale(0.99 1.06)" />
<path d="M 52.4 27.8 C 55.6 29.7, 20.4 42.2, 29.5 34.1 C 47.5 46.7, 50.4 79.3, 35.6 86.8 C 41.7 100.0, 12.7 39.1, 17.6 47.3 C 0.0 33.3, 44.3 100.0, 48.6 93.4 C 29.7 100.0, 0.4 48.2, 6.6 57.8 C 6.2 76.1, 67.6 48.9, 69.0 39.5 Z" fill="hsl(183, 71%, 60%)" fill-opacity="0.29" stroke="none" stroke-width="5.19"  transform="translate(1.4 7.6) rotate(25.7) scale(0.87 1.23)" />
<path d="M 51.3 12.9 C 51.9 24.1, 93.6 84.4, 86.2 90.2 C 100.0 96.7, 44.8 2.9, 46.9 2.6 C 60.4 0.0, 15.4 55.6, 2.8 42.8 C 20.8 47.6, 13.6 100.0, 10.3 96.9 C 9.7 91.8, 91.2 39.1, 98.7 51.9 C 100.0 45.2, 65.9 49.6, 80.7 47.9 C 98.8 35.5, 0.0 55.8, 0.9 61.0 C 0.0 57.5, 55.4 18.1, 47.2 19.3 C 49.6 0.1, 28.4 17.9, 17.3 19.9 C 0.0 19.6, 0.0 21.2, 8.7 34.5 Z" fill="hsl(104, 72%, 65%)" fill-opacity="0.96" stroke="none" stroke-width="2.96"  transform="translate(99.1 22.5) rotate(216.8) scale(0.95 1.18)" />
<path d="M 80.1 75.4 C 83.0 66.1, 48.2 13.1, 46.9 23.6 C 45.4 20.8, 65.1 60.2, 72.0 74.5 C 88.6 85.3, 62.4 43.9, 73.3 34.5 C 80.2 37.9, 100.0 17.7, 93.7 29.8 C 99.0 28.5, 82.8 96.7, 83.1 95.6 C 75.9 92.6, 35.0 60.1, 24.7 73.7 C 13.8 84.0, 63.8 39.3, 49.2 28.6 C 60.7 21.9, 94.1 33.4, 92.3 21.7 C 100.0 35.0, 72.0 17.4, 68.1 4.7 Z" fill="hsl(144, 86%, 72%)" fill-opacity="0.62" stroke="none" stroke-width="4.73"  transform="translate(86.1 51.5) rotate(204.0) scale(1.84 1.97)" />
<path d="M 36.8 97.4 C 26.6 100.0, 26.8 80.0, 37.0 88.4 C 42.8 93.3, 13.0 74.0, 27.7 76.2 C 26.8 71.6, 15.4 53.2, 21.5 54.0 C 31.7 50.3, 39.5 88.9, 37.7 93.1 C 22.4 89.0, 79.3 40.0, 88.0 29.1 C 91.6 23.3, 65.1 54.1, 61.0 54.6 C 71.5 68.8, 20.6 74.6, 20.9 72.6 C 36.2 65.2, 17.1 50.1, 23.0 58.8 Z" fill="none" fill-opacity="0.34" stroke="hsl(2, 82%, 55%)" stroke-width="3.99" filter="url(#f1)" transform="translate(98.1 6.3) rotate(314.2) scale(1.40 0.86)" />
<path d="M 67.2 53.1 C 56.7 69.5, 36.4 22.1, 40.6 22.3 C 36.8 42.1, 74.6 69.0, 89.1 64.7 C 96.4 57.5, 31.5 74.4, 43.2 69.2 C 36.6 61.5, 47.9 88.5, 37.1 94.0 C 36.7 75.9, 41.5 56.6, 55.4 58.1 C 67.6 67.4, 100.0 61.8, 94.8 75.2 C 100.0 80.3, 49.0 65.9, 56.5 66.0 C 52.0 68.4, 27.5 56.5, 41.2 65.8 Z" fill="none" fill-opacity="0.79" stroke="hsl(104, 72%, 65%)" stroke-width="3.10" filter="url(#f1)" transform="translate(49.4 45.9) rotate(292.3) scale(1.69 1.55)" />
<path d="M 90.4 34.9 C 89.1 38.9, 20.3 57.0, 31.6 61.3 C 23.7 74.2, 4.6 74.7, 5.0 81.0 C 17.8 75.8, 24.2 0.0, 13.5 8.3 C 0.0 26.4, 45.8 17.9, 49.1 26.1 C 34.3 12.1, 37.0 90.8, 37.6 85.5 C 54.5 82.6, 30.5 80.0, 33.3 73.6 C 21.8 83.9, 66.4 14.9, 57.5 25.2 C 56.2 28.9, 58.9 80.5, 64.7 94.1 C 61.8 100.0, 15.3 54.0, 1.1 46.4 C 0.0 57.7, 100.0 19.0, 97.8 4.3 Z" fill="hsl(86, 72%, 68%)" fill-opacity="0.84" stroke="none" stroke-width="1.40"  transform="translate(90.8 81.4) rotate(326.8) scale(0.92 0.51)" />
<circle cx="6.8" cy="12.9" r="6.2" fill="hsl(104, 72%, 65%)" fill-opacity="0.69"  transform="translate(37.4 46.4) rotate(167.4) scale(1.63 0.79)" />
<path d="M 79.4 48.1 C 73.8 52.6, 91.8 69.4, 77.9 80.6 C 77.8 66.7, 1.6 62.9, 12.7 55.5 C 5.1 44.5, 35.7 28.8, 26.2 42.3 C 15.8 26.9, 29.2 32.1, 41.2 46.5 C 36.6 63.2, 80.0 64.5, 73.0 49.8 C 72.9 58.4, 74.8 30.9, 79.7 16.1 C 77.5 8.5, 62.9 61.7, 65.1 66.5 C 56.0 63.4, 65.0 80.9, 62.4 93.6 C 66.7 89.2, 19.1 100.0, 25.2 98.2 C 10.1 100.0, 81.9 41.9, 81.4 38.1 Z" fill="hsl(322, 74%, 44%)" fill-opacity="0.83" stroke="none" stroke-width="3.47"  transform="translate(52.3 32.8) rotate(188.7) scale(1.58 0.88)" />
<path d="M 25.2 99.3 C 18.2 98.9, 57.1 0.0, 48.6 11.2 C 46.0 20.9, 63.5 14.3, 58.8 27.3 C 72.6 43.4, 0.0 34.7, 4.5 23.5 C 22.5 4.0, 48.5 43.5, 60.0 45.8 C 50.5 60.1, 74.7 20.6, 70.4 20.6 C 71.1 8.5, 55.8 80.7, 41.4 83.6 Z" fill="none" fill-opacity="0.40" stroke="hsl(322, 74%, 44%)" stroke-width="1.90"  transform="translate(79.5 82.8) rotate(121.1) scale(1.69 0.93)" />
<path d="M 13.8 9.0 C 10.3 26.6, 6.8 49.4, 20.1 53.4 C 0.3 43.0, 65.1 29.5, 51.1 16.9 C 44.1 19.6, 40.0 62.9, 43.4 57.9 C 47.6 45.0, 49.8 36.7, 48.2 26.3 C 52.0 29.8, 21.8 12.8, 25.6 6.4 C 25.3 14.1, 45.5 0.0, 42.8 5.6 C 58.4 0.3, 58.8 11.7, 72.2 11.6 C 53.0 3.5, 9.2 100.0, 8.1 92.0 C 7.7 90.4, 100.0 74.3, 97.8 72.9 C 100.0 92.4, 71.7 70.1, 82.7 57.7 Z" fill="none" fill-opacity="0.98" stroke="hsl(40, 53%, 69%)" stroke-width="3.76" filter="url(#f1)" transform="translate(41.7 13.5) rotate(47.6) scale(0.64 1.03)" />
<path d="M 15.9 24.3 C 22.3 41.4, 12.8 100.0, 21.4 92.1 C 34.7 75.3, 39.7 75.0, 27.2 81.7 C 26.6 82.3, 89.0 21.6, 75.7 31.0 C 61.6 25.0, 78.6 6.8, 79.5 19.8 C 88.0 34.9, 45.4 31.5, 38.5 31.4 C 52.2 46.0, 61.5 21.0, 71.3 22.9 C 76.9 20.9, 22.9 17.0, 13.2 19.8 C 8.7 2.9, 100.0 100.0, 97.6 89.8 C 100.0 79.3, 89.3 71.3, 76.2 66.5 C 74.9 65.0, 46.8 43.3, 54.4 42.6 Z" fill="hsl(322, 74%, 44%)" fill-opacity="0.73" stroke="none" stroke-width="1.12"  transform="translate(44.9 42.2) rotate(309.8) scale(1.21 1.05)" />
<circle cx="82.5" cy="34.6" r="2.9" fill="hsl(183, 71%, 60%)" fill-opacity="0.40"   />
<path d="M 72.8 22.5 C 92.1 38.4, 100.0 97.7, 96.3 85.7 C 86.5 93.7, 35.0 17.3, 22.0 5.6 C 27.5 3.7, 57.3 63.4, 66.2 72.2 C 84.9 88.3, 73.7 45.9, 68.4 43.8 C 54.1 47.6, 86.9 64.6, 82.4 78.0 C 72.4 61.9, 3.2 34.2, 16.6 31.3 C 35.4 37.5, 14.3 77.4, 8.7 89.3 C 1.2 75.4, 3.9 51.7, 18.4 41.0 C 20.0 48.3, 57.4 13.3, 47.9 1.0 " fill="hsl(86, 72%, 68%)" fill-opacity="0.67" stroke="none" stroke-width="3.75" filter="url(#f1)" transform="translate(12.5 59.1) rotate(355.2) scale(1.73 1.67)" />
<rect x="63.7" y="47.2" width="29.3" height="39.0" rx="9.9" fill="none" fill-opacity="0.82"   transform="translate(11.4 28.6) rotate(173.5) scale(2.00 0.53)" />
<circle cx="68.9" cy="19.3" r="4.8" fill="hsl(144, 86%, 72%)" fill-opacity="0.86"  transform="translate(0.5 50.4) rotate(250.8) scale(1.30 1.57)" />
<path d="M 52.1 48.9 C 36.3 30.6, 72.1 45.5, 62.1 59.3 C 57.4 75.6, 89.2 60.9, 83.1 71.5 C 97.3 62.1, 51.0 6.9, 53.3 3.4 C 37.7 2.7, 86.6 25.5, 77.6 39.0 C 87.8 28.7, 0.0 52.1, 8.2 44.1 C 0.0 32.9, 26.8 30.0, 27.2 18.1 C 40.5 4.0, 71.8 56.5, 58.9 71.3 C 61.7 80.6, 75.0 48.6, 82.5 60.1 C 88.5 52.7, 34.2 0.0, 26.5 1.7 Z" fill="hsl(183, 71%, 60%)" fill-opacity="0.36" stroke="none" stroke-width="4.89"  transform="translate(88.1 85.8) rotate(326.8) scale(0.80 1.35)" />
<rect x="53.2" y="66.1" width="45.1" height="13.4" rx="0" fill="none" fill-opacity="0.28"   transform="translate(20.0 99.3) rotate(198.1) scale(1.76 1.31)" />
<circle cx="71.3" cy="84.4" r="18.4" fill="url(#g1)" fill-opacity="0.87"  transform="translate(69.0 33.1) rotate(119.6) scale(1.32 0.94)" />
<path d="M 82.0 78.4 C 98.4 69.6, 45.3 3.1, 57.2 3.4 C 51.1 0.0, 10.7 6.8, 7.9 19.1 C 19.9 13.8, 92.4 34.3, 99.8 46.1 C 88.0 60.1, 43.0 68.5, 56.8 59.9 C 50.2 58.7, 47.4 35.0, 53.6 40.3 C 48.1 24.1, 34.0 33.6, 40.5 27.9 C 24.2 10.8, 59.8 96.4, 73.4 98.7 C 72.0 84.8, 76.3 29.3, 76.4 29.5 Z" fill="hsl(322, 74%, 44%)" fill-opacity="0.60" stroke="none" stroke-width="4.26"   />
<rect x="36.6" y="71.0" width="41.7" height="12.1" rx="0" fill="hsl(144, 86%, 72%)" fill-opacity="0.55"    />
<circle cx="4.1" cy="14.1" r="0.3" fill="url(#g1)" fill-opacity="0.95"  transform="translate(93.2 87.8) rotate(214.6) scale(1.03 1.70)" />
<path d="M 5.1 87.0 C 7.1 94.8, 64.1 65.5, 58.9 72.6 C 72.3 89.1, 76.8 6.1, 87.0 10.5 C 86.7 8.4, 82.6 82.2, 84.3 92.3 C 65.1 72.8, 54.8 83.1, 40.2 91.9 C 51.9 89.9, 47.8 35.1, 47.4 20.4 C 48.7 6.8, 100.0 57.7, 94.6 55.2 C 94.6 44.3, 55.2 53.6, 57.8 47.9 Z" fill="hsl(106, 75%, 59%)" fill-opacity="0.88" stroke="none" stroke-width="3.88"  transform="translate(21.4 68.6) rotate(90.1) scale(1.90 1.62)" />
<path d="M 88.8 70.9 C 76.7 83.1, 36.4 61.4, 33.7 48.6 C 24.7 43.0, 78.7 28.9, 76.6 29.1 C 57.6 45.2, 75.5 87.8, 61.6 79.5 C 77.0 71.9, 100.0 37.0, 92.5 40.7 C 90.5 27.8, 100.0 24.8, 93.3 28.8 C 93.2 14.8, 32.8 80.4, 28.7 69.9 C 46.9 84.3, 100.0 58.0, 92.7 52.6 C 100.0 66.1, 18.8 65.2, 22.6 68.5 C 17.8 54.0, 87.9 89.7, 90.9 85.4 C 100.0 84.9, 28.5 56.1, 16.1 56.9 Z" fill="hsl(106, 75%, 59%)" fill-opacity="0.98" stroke="none" stroke-width="5.10" filter="url(#f1)" transform="translate(71.0 53.9) rotate(216.6) scale(1.95 1.64)" />
<circle cx="75.1" cy="37.9" r="12.8" fill="hsl(322, 74%, 44%)" fill-opacity="0.77"  transform="translate(97.4 75.1) rotate(122.7) scale(1.92 1.04)" />
<path d="M 12.6 1.5 C 27.3 17.1, 20.3 40.6, 25.6 37.4 C 14.1 24.1, 54.3 91.4, 51.7 84.6 C 33.2 83.7, 77.0 15.3, 77.1 23.6 C 94.5 4.1, 14.1 77.7, 3.7 91.5 C 0.0 79.7, 91.4 6.4, 82.9 3.1 C 78.4 4.6, 85.1 71.8, 89.0 58.6 C 79.3 46.7, 16.3 90.6, 16.9 85.5 Z" fill="hsl(106, 75%, 59%)" fill-opacity="0.43" stroke="none" stroke-width="1.99"  transform="translate(42.2 40.3) rotate(39.3) scale(1.26 1.04)" />
<path d="M 56.3 80.2 C 41.7 90.4, 80.9 90.9, 87.3 76.6 C 93.7 69.9, 98.2 14.4, 92.1 21.9 C 73.9 7.2, 77.2 17.1, 70.7 31.0 C 79.9 17.4, 21.0 85.6, 20.8 74.2 C 3.5 58.5, 22.9 10.0, 9.5 23.3 C 18.4 18.1, 10.5 59.4, 21.8 51.7 C 16.4 64.2, 100.0 28.7, 93.7 32.5 C 77.6 17.1, 85.5 48.7, 84.7 51.6 Z" fill="hsl(290, 83%, 63%)" fill-opacity="0.50" stroke="none" stroke-width="1.39"   />
<path d="M 33.4 83.3 C 45.1 98.2, 39.8 53.5, 40.2 61.1 C 23.6 44.1, 88.6 76.1, 91.6 64.1 C 91.6 80.7, 81.9 0.0, 69.2 4.7 C 78.6 12.5, 45.1 100.0, 36.3 87.9 C 36.7 78.7, 100.0 41.3, 89.9 43.8 C 100.0 30.3, 66.8 18.5, 57.9 18.1 C 38.7 3.5, 24.3 67.3, 13.8 70.8 C 0.0 59.2, 33.3 0.0, 42.2 5.8 Z" fill="hsl(183, 71%, 60%)" fill-opacity="0.99" stroke="none" stroke-width="2.43"  transform="translate(66.1 26.9) rotate(1.0) scale(0.61 1.35)" />
<path d="M 98.5 15.7 C 94.4 0.0, 100.0 10.5, 90.2 19.8 C 78.0 36.6, 0.0 99.7, 0.9 90.4 C 12.4 85.0, 78.6 89.4, 68.0 85.5 C 63.6 100.0, 39.2 62.7, 28.5 68.2 C 12.4 59.6, 34.5 13.1, 20.4 4.7 C 31.5 0.0, 17.3 14.6, 22.7 16.9 C 30.6 19.7, 11.2 64.9, 22.4 66.8 C 4.4 52.1, 31.7 17.4, 42.3 18.5 Z" fill="none" fill-opacity="0.90" stroke="hsl(290, 83%, 63%)" stroke-width="1.91"  transform="translate(33.9 80.2) rotate(286.6) scale(1.01 0.83)" />
<path d="M 37.4 52.1 C 34.7 38.7, 80.1 76.8, 77.2 77.5 C 65.3 92.2, 16.8 0.0, 25.6 4.0 C 17.3 3.7, 74.1 73.1, 87.9 82.9 C 85.8 70.0, 11.4 79.1, 5.0 81.1 C 7.0 79.4, 36.4 88.3, 41.1 82.0 C 30.4 67.6, 44.1 85.7, 58.6 96.0 C 78.4 92.2, 9.4 56.3, 13.0 69.5 C 15.7 75.9, 20.3 71.4, 12.2 57.8 C 6.2 56.0, 58.7 73.8, 63.1 67.4 Z" fill="hsl(290, 83%, 63%)" fill-opacity="0.62" stroke="none" stroke-width="2.99"  transform="translate(24.2 14.6) rotate(269.9) scale(1.81 1.61)" />
<path d="M 49.6 13.4 C 66.6 0.0, 23.1 92.0, 24.1 82.3 C 6.5 81.8, 0.0 18.1, 7.6 3.3 C 3.3 0.5, 100.0 70.8, 92.0 76.3 C 80.7 56.3, 47.0 48.6, 48.2 43.8 C 51.5 41.3, 11.6 70.1, 19.3 75.1 C 18.9 83.4, 87.3 46.2, 97.3 55.9 C 81.2 64.5, 74.2 34.2, 69.7 34.9 C 52.5 34.4, 57.6 50.2, 58.5 36.8 C 40.6 36.0, 27.7 22.0, 17.0 19.1 " fill="none" fill-opacity="0.49" stroke="hsl(106, 75%, 59%)" stroke-width="2.33"  transform="translate(47.0 64.4) rotate(282.1) scale(1.29 1.96)" />
<circle cx="70.5" cy="23.4" r="3.5" fill="hsl(151, 70%, 62%)" fill-opacity="0.95"  transform="translate(23.4 19.1) rotate(129.3) scale(1.37 0.61)" />
<path d="M 38.7 4.4 C 46.7 0.0, 31.2 0.0, 35.9 2.8 C 55.6 1.4, 15.2 85.6, 15.2 80.9 C 12.1 82.3, 74.2 54.4, 64.1 65.7 C 61.2 71.0, 19.5 28.0, 30.4 15.9 C 15.7 22.7, 52.0 14.1, 46.0 4.5 C 29.2 0.0, 38.8 39.6, 48.7 45.4 Z" fill="hsl(151, 70%, 62%)" fill-opacity="0.86" stroke="none" stroke-width="3.23"  transform="translate(22.7 78.8) rotate(177.1) scale(1.99 1.49)" />
<path d="M 80.5 36.9 C 80.1 35.9, 47.6 10.6, 57.7 14.3 C 54.8 0.0, 42.2 71.6, 30.0 77.1 C 20.3 87.1, 28.3 5.1, 28.7 14.4 C 22.4 29.3, 2.5 74.8, 11.6 60.1 C 29.9 54.1, 26.8 58.1, 38.7 65.0 C 47.7 78.3, 41.6 61.2, 30.0 55.8 C 32.0 40.0, 38.5 97.9, 26.2 88.5 C 45.9 92.4, 22.6 77.9, 26.8 88.0 C 32.5 86.8, 21.4 70.8, 33.4 56.1 C 45.0 64.1, 12.0 75.8, 20.3 80.3 " fill="none" fill-opacity="0.92" stroke="hsl(144, 86%, 72%)" stroke-width="3.46"  transform="translate(87.6 84.3) rotate(306.2) scale(1.89 1.78)" />
<rect x="25.2" y="51.2" width="50.0" height="18.4" rx="0" fill="none" fill-opacity="0.23"   transform="translate(3.1 77.3) rotate(48.8) scale(1.26 1.81)" />
<path d="M 28.7 76.9 C 44.7 66.6, 80.5 98.4, 74.3 83.6 C 71.9 97.6, 35.5 47.8, 25.7 32.9 C 41.6 25.1, 83.8 7.3, 95.7 16.1 C 97.9 5.2, 91.6 69.5, 95.5 63.8 C 95.7 58.8, 31.9 19.2, 34.2 24.1 C 24.4 29.0, 96.0 51.3, 93.8 60.7 C 76.7 50.6, 88.1 58.3, 79.9 55.3 Z" fill="hsl(40, 53%, 69%)" fill-opacity="0.90" stroke="none" stroke-width="0.94"  transform="translate(68.0 99.7) rotate(209.0) scale(0.96 1.54)" />
<circle cx="42.1" cy="98.5" r="7.9" fill="hsl(106, 75%, 59%)" fill-opacity="0.85"  transform="translate(27.8 97.2) rotate(24.6) scale(1.56 1.31)" />
<path d="M 74.4 4.5 C 93.9 6.9, 87.9 57.0, 84.4 53.1 C 94.7 60.2, 44.9 82.1, 50.5 76.1 C 60.8 82.2, 28.9 59.1, 27.1 65.1 C 34.1 68.4, 84.7 40.1, 74.4 32.4 C 63.3 25.7, 32.8 56.5, 38.6 67.8 C 54.0 69.3, 77.3 69.1, 80.2 71.5 C 88.5 59.2, 100.0 65.0, 89.9 64.3 Z" fill="hsl(86, 72%, 68%)" fill-opacity="0.50" stroke="none" stroke-width="1.92"  transform="translate(9.6 84.0) rotate(17.3) scale(1.65 0.99)" />
<rect x="44.4" y="12.3" width="33.6" height="13.3" rx="18.6" fill="hsl(151, 70%, 62%)" fill-opacity="0.32"   transform="translate(71.8 38.4) rotate(291.0) scale(0.54 1.89)" />
<path d="M 85.9 37.6 C 99.1 45.3, 79.0 40.0, 70.8 36.8 C 74.1 38.4, 19.3 56.2, 24.9 66.0 C 19.9 72.1, 89.6 64.4, 82.6 56.3 C 84.9 50.5, 53.0 91.5, 41.2 95.0 C 33.0 90.9, 45.5 70.8, 32.7 63.6 C 13.9 46.0, 70.5 32.5, 56.8 28.1 C 62.9 35.9, 71.2 0.0, 73.6 8.3 C 65.9 12.6, 48.3 21.2, 55.3 12.4 C 59.4 5.5, 63.0 4.4, 51.2 8.8 C 49.7 0.0, 55.7 59.0, 60.1 52.0 Z" fill="none" fill-opacity="0.52" stroke="hsl(144, 86%, 72%)" stroke-width="3.27"  transform="translate(98.6 85.5) rotate(35.1) scale(1.95 0.81)" />
<path d="M 94.1 40.6 C 98.4 49.2, 17.3 86.3, 7.8 85.8 C 23.5 95.2, 61.9 51.1, 69.4 41.7 C 69.3 50.0, 46.8 95.3, 39.3 96.1 C 39.8 100.0, 62.8 89.4, 55.3 79.8 C 69.9 92.0, 84.7 7.1, 83.7 8.2 C 100.0 10.9, 63.2 38.1, 56.3 36.1 Z" fill="none" fill-opacity="0.58" stroke="hsl(144, 86%, 72%)" stroke-width="2.72"  transform="translate(44.7 71.0) rotate(337.3) scale(1.57 1.89)" />
<circle cx="36.3" cy="50.0" r="3.8" fill="hsl(106, 75%, 59%)" fill-opacity="0.76"  transform="translate(19.3 28.7) rotate(245.9) scale(1.19 0.54)" />
<path d="M 80.0 36.0 C 64.3 20.0, 53.9 60.1, 64.8 57.8 C 45.9 68.2, 0.9 70.5, 15.9 84.8 C 28.4 69.8, 85.3 45.5, 82.1 44.7 C 79.4 60.6, 43.9 41.4, 51.9 47.9 C 68.0 41.9, 83.5 41.6, 89.8 46.6 C 100.0 47.6, 61.0 100.0, 75.0 96.7 C 57.7 81.5, 0.0 52.3, 9.0 57.2 Z" fill="none" fill-opacity="0.58" stroke="hsl(106, 75%, 59%)" stroke-width="2.92"  transform="translate(31.1 77.0) rotate(299.4) scale(1.00 0.98)" />
<path d="M 22.9 17.8 C 32.3 17.6, 59.1 83.5, 58.8 71.8 C 42.9 73.1, 49.1 89.1, 63.8 75.6 C 63.0 57.3, 27.7 0.0, 20.8 1.0 C 40.3 9.8, 84.0 35.6, 85.3 30.0 C 96.2 28.4, 80.4 64.0, 81.4 57.7 C 80.7 42.0, 4.0 33.7, 13.5 46.3 C 1.7 26.9, 6.9 14.5, 13.3 18.8 C 0.2 14.9, 44.2 74.8, 54.4 69.2 Z" fill="hsl(290, 83%, 63%)" fill-opacity="0.96" stroke="none" stroke-width="1.23"  transform="translate(77.0 5.9) rotate(135.7) scale(0.96 1.54)" />
<path d="M 77.2 9.5 C 63.5 0.0, 37.6 44.6, 49.5 49.9 C 69.1 54.8, 32.5 19.6, 20.2 7.9 C 39.0 27.6, 29.9 21.1, 14.9 29.8 C 12.6 42.3, 64.8 84.0, 65.6 80.1 C 66.3 90.1, 35.6 60.5, 23.1 71.6 C 4.6 73.6, 9.5 35.2, 22.0 39.9 C 41.1 59.0, 69.1 59.2, 71.9 52.9 Z" fill="none" fill-opacity="0.31" stroke="hsl(290, 83%, 63%)" stroke-width="3.79"  transform="translate(62.0 24.3) rotate(84.5) scale(1.68 1.55)" />
<path d="M 78.6 17.2 C 93.0 3.9, 43.4 78.4, 38.6 66.7 C 19.9 65.2, 16.7 73.9, 14.3 79.0 C 0.0 60.6, 42.2 12.9, 40.1 2.5 C 44.5 0.0, 9.8 91.9, 10.2 84.2 C 10.2 100.0, 10.3 85.3, 7.2 73.3 C 18.4 58.7, 10.7 100.0, 12.9 98.9 Z" fill="hsl(290, 83%, 63%)" fill-opacity="0.37" stroke="none" stroke-width="5.17"  transform="translate(93.7 16.1) rotate(230.9) scale(1.16 1.54)" />
<path d="M 33.6 66.9 C 29.7 76.4, 36.0 6.1, 42.5 12.4 C 43.9 0.0, 53.2 23.6, 40.5 9.3 C 31.5 27.2, 35.7 27.7, 40.7 22.1 C 37.0 16.6, 36.4 67.5, 43.8 67.2 C 35.5 61.3, 22.2 70.8, 10.6 58.3 C 29.7 77.6, 10.1 7.4, 0.4 11.1 C 10.9 11.0, 37.0 58.7, 48.3 47.8 Z" fill="none" fill-opacity="0.41" stroke="hsl(83, 65%, 44%)" stroke-width="5.28"   />
<path d="M 31.5 97.9 C 46.9 86.8, 9.6 69.4, 16.5 62.8 C 21.8 56.3, 48.2 59.7, 53.3 70.2 C 54.1 61.7, 58.1 35.4, 61.7 31.2 C 76.5 32.9, 23.3 61.7, 13.6 65.3 C 11.1 69.3, 32.4 11.3, 20.8 5.5 C 31.9 14.1, 45.1 24.0, 31.7 28.8 C 43.3 35.4, 15.8 92.4, 13.2 83.2 Z" fill="none" fill-opacity="0.58" stroke="hsl(151, 70%, 62%)" stroke-width="1.51" filter="url(#f1)" transform="translate(49.8 74.4) rotate(39.0) scale(1.84 1.19)" />
<circle cx="10.6" cy="4.9" r="3.0" fill="url(#g0)" fill-opacity="0.87" filter="url(#f1)" transform="translate(53.2 49.5) rotate(177.5) scale(1.30 1.42)" />
<path d="M 24.4 16.6 C 21.8 8.3, 97.9 63.1, 94.2 55.7 C 100.0 53.0, 53.5 92.5, 55.9 97.4 C 57.3 100.0, 23.6 80.8, 19.7 66.9 C 20.4 65.1, 14.3 70.5, 24.0 79.4 C 37.3 67.6, 0.4 52.3, 3.7 38.0 C 0.0 57.2, 54.8 33.3, 55.3 25.1 C 35.6 31.7, 66.5 61.8, 77.4 69.1 Z" fill="hsl(144, 86%, 72%)" fill-opacity="0.32" stroke="none" stroke-width="4.08"  transform="translate(81.6 69.2) rotate(343.7) scale(0.70 0.71)" />
<path d="M 64.3 70.5 C 44.9 84.9, 63.6 20.9, 64.2 17.5 C 64.5 0.0, 68.7 13.3, 56.3 5.4 C 74.5 8.5, 0.0 76.2, 1.2 64.7 C 10.8 56.5, 32.8 93.9, 38.5 98.8 C 52.4 91.8, 87.2 68.7, 81.8 59.1 C 93.2 59.7, 38.3 10.4, 41.2 18.0 C 44.2 14.6, 0.0 38.4, 8.9 52.0 C 10.5 47.5, 15.4 37.6, 28.6 23.9 Z" fill="hsl(290, 83%, 63%)" fill-opacity="0.32" stroke="none" stroke-width="4.15"  transform="translate(61.6 37.3) rotate(325.6) scale(1.29 1.85)" />
<path d="M 71.3 29.2 C 74.4 20.7, 78.5 90.5, 89.7 85.8 C 100.0 95.5, 90.2 60.8, 84.5 58.2 C 70.5 55.2, 70.1 48.8, 65.4 50.0 C 66.6 34.9, 13.4 29.9, 17.5 35.9 C 16.2 41.4, 94.6 66.7, 88.3 56.4 C 90.3 38.6, 52.9 13.2, 45.4 27.1 Z" fill="none" fill-opacity="0.82" stroke="hsl(2, 82%, 55%)" stroke-width="1.70"  transform="translate(3.6 1.8) rotate(89.9) scale(0.92 1.39)" />
<path d="M 36.7 35.8 C 27.0 53.9, 85.7 42.6, 95.8 39.0 C 99.1 57.3, 65.6 21.3, 67.6 17.5 C 58.5 28.1, 57.8 46.6, 58.3 52.0 C 53.1 69.9, 87.4 45.9, 94.0 56.9 C 97.1 69.4, 58.5 34.4, 71.9 19.5 C 85.4 0.4, 28.2 65.3, 20.4 51.0 C 22.3 61.1, 96.7 14.7, 91.2 29.1 C 92.7 30.1, 0.0 94.3, 6.9 79.4 C 20.0 75.6, 91.6 18.4, 90.4 17.5 " fill="none" fill-opacity="0.68" stroke="hsl(106, 75%, 59%)" stroke-width="5.00"  transform="translate(6.5 95.0) rotate(91.8) scale(0.57 1.16)" />
<rect x="46.2" y="59.0" width="24.6" height="20.2" rx="12.5" fill="none" fill-opacity="0.92"   transform="translate(30.9 64.7) rotate(297.7) scale(0.71 0.70)" />
<rect x="17.8" y="1.3" width="33.8" height="27.5" rx="0" fill="hsl(242, 72%, 49%)" fill-opacity="0.56"   transform="translate(7.2 78.7) rotate(67.8) scale(1.07 0.66)" />
<rect x="41.0" y="54.9" width="45.4" height="30.6" rx="2.1" fill="none" fill-opacity="0.39"   transform="translate(57.8 55.8) rotate(246.0) scale(0.68 1.74)" />
<path d="M 77.1 52.7 C 61.9 57.7, 52.4 83.2, 53.2 89.0 C 48.9 97.4, 24.2 62.0, 23.8 48.7 C 26.3 63.4, 63.2 88.2, 59.2 88.5 C 69.7 100.0, 25.8 22.2, 18.5 23.0 C 28.4 21.5, 69.3 90.2, 72.8 81.9 C 64.8 72.2, 7.2 39.2, 17.1 29.6 C 10.8 26.5, 67.0 8.5, 59.8 20.1 C 54.9 15.5, 42.5 55.9, 33.1 61.8 Z" fill="none" fill-opacity="0.86" stroke="hsl(83, 65%, 44%)" stroke-width="3.34"  transform="translate(69.6 37.7) rotate(52.4) scale(1.70 1.90)" />
<path d="M 88.7 80.6 C 100.0 87.1, 44.5 25.0, 34.7 35.6 C 37.2 39.0, 92.2 60.5, 86.9 61.9 C 69.1 52.0, 90.8 70.2, 78.1 81.5 C 63.5 81.6, 92.0 45.0, 82.3 32.7 C 80.2 30.7, 8.0 86.5, 6.5 83.4 C 8.1 74.4, 44.0 82.5, 38.2 86.8 C 56.0 88.2, 53.0 6.8, 58.6 1.1 C 47.8 0.0, 96.6 91.0, 91.4 98.6 C 71.6 100.0, 45.4 15.1, 44.2 14.1 C 54.3 30.3, 13.0 65.8, 8.8 67.6 Z" fill="none" fill-opacity="0.42" stroke="hsl(151, 70%, 62%)" stroke-width="1.13"   />
<path d="M 35.4 64.9 C 20.1 48.9, 15.2 45.5, 17.9 56.5 C 0.0 73.7, 55.9 60.1, 43.6 64.5 C 27.5 72.2, 54.0 17.8, 58.6 32.3 C 53.5 16.0, 100.0 13.1, 97.6 10.8 C 77.8 26.7, 5.9 100.0, 9.8 97.3 C 12.0 94.9, 16.7 59.7, 26.7 64.0 C 25.5 81.1, 94.6 96.0, 83.7 94.6 C 100.0 100.0, 56.3 89.3, 60.8 88.7 C 55.6 100.0, 50.7 1.5, 58.9 13.5 C 64.1 0.0, 5.9 68.3, 1.9 64.6 Z" fill="hsl(2, 82%, 55%)" fill-opacity="0.94" stroke="none" stroke-width="1.39"  transform="translate(47.7 15.6) rotate(204.6) scale(0.97 1.87)" />
<path d="M 60.9 97.1 C 41.1 95.3, 76.3 80.0, 69.4 86.7 C 87.9 86.1, 49.9 61.6, 53.5 51.5 C 51.6 35.1, 48.6 31.2, 54.5 44.6 C 64.3 34.5, 11.5 82.8, 21.9 77.7 C 26.7 89.8, 79.0 43.3, 65.7 37.4 C 55.2 56.3, 73.6 68.3, 77.4 54.8 C 89.0 65.2, 26.2 31.3, 28.9 31.7 C 13.0 18.6, 34.7 68.8, 36.4 62.2 C 41.0 45.4, 69.0 48.3, 54.1 56.7 C 46.3 41.5, 55.7 100.0, 52.4 97.5 Z" fill="hsl(144, 86%, 72%)" fill-opacity="0.77" stroke="none" stroke-width="2.91"  transform="translate(99.2 7.6) rotate(334.6) scale(1.86 0.77)" />
<rect x="16.2" y="71.1" width="22.9" height="25.3" rx="0" fill="none" fill-opacity="0.34"  filter="url(#f1)" transform="translate(1.4 45.9) rotate(319.5) scale(1.17 1.23)" />
<circle cx="6.7" cy="36.3" r="9.8" fill="url(#g2)" fill-opacity="0.74"  transform="translate(23.2 9.7) rotate(296.4) scale(1.79 0.57)" />
<path d="M 28.3 43.3 C 19.6 56.3, 93.8 7.9, 81.7 22.1 C 100.0 23.1, 56.6 16.6, 68.9 2.2 C 67.3 16.5, 15.2 59.4, 28.8 55.9 C 27.4 44.6, 8.9 16.1, 16.4 4.9 C 4.7 15.7, 57.8 70.4, 62.1 56.6 C 48.0 71.4, 44.7 25.9, 57.3 36.1 C 63.4 39.1, 36.2 93.5, 22.7 81.9 Z" fill="hsl(83, 65%, 44%)" fill-opacity="0.80" stroke="none" stroke-width="1.37"  transform="translate(23.7 8.6) rotate(110.3) scale(1.94 0.68)" />
<rect x="22.3" y="26.3" width="27.9" height="19.7" rx="0" fill="none" fill-opacity="0.97" stroke="hsl(322, 74%, 44%)" stroke-width="1.7"  transform="translate(62.3 17.7) rotate(73.5) scale(1.98 0.63)" />
<rect x="9.9" y="27.3" width="43.9" height="24.2" rx="0" fill="hsl(144, 86%, 72%)" fill-opacity="0.66"   transform="translate(54.2 48.8) rotate(121.8) scale(1.70 0.77)" />
<path d="M 85.6 12.9 C 75.2 5.2, 21.2 0.0, 33.4 1.8 C 26.0 1.7, 27.0 23.4, 34.3 23.3 C 25.6 12.9, 37.8 80.0, 39.7 65.7 C 21.3 59.8, 44.0 75.5, 38.8 78.9 C 54.5 86.7, 9.1 35.0, 19.3 42.0 C 15.1 51.7, 88.2 67.0, 82.6 63.6 C 82.6 79.4, 27.1 28.0, 18.7 24.9 C 14.0 6.5, 23.2 50.8, 29.3 57.7 C 46.1 61.3, 56.1 25.3, 60.0 23.5 Z" fill="none" fill-opacity="0.54" stroke="hsl(151, 70%, 62%)" stroke-width="3.04"  transform="translate(4.2 60.1) rotate(142.2) scale(1.58 1.23)" />
<rect x="1.8" y="35.7" width="32.3" height="20.5" rx="0" fill="hsl(183, 71%, 60%)" fill-opacity="0.93" stroke="hsl(106, 75%, 59%)" stroke-width="2.2"   />
<rect x="1.5" y="67.7" width="41.1" height="21.7" rx="0" fill="none" fill-opacity="0.61"    />
<circle cx="64.8" cy="54.0" r="4.2" fill="hsl(151, 70%, 62%)" fill-opacity="0.71"  transform="translate(10.2 53.1) rotate(302.8) scale(1.78 0.71)" />
<circle cx="53.3" cy="82.3" r="1.7" fill="hsl(40, 53%, 69%)" fill-opacity="0.56"  transform="translate(65.4 7.1) rotate(323.2) scale(0.77 1.15)" />
<rect x="55.3" y="52.8" width="29.5" height="30.1" rx="0" fill="none" fill-opacity="0.36"   transform="translate(43.4 10.4) rotate(68.4) scale(1.69 0.70)" />
<path d="M 20.0 62.9 C 10.6 60.5, 71.2 8.4, 82.0 18.9 C 100.0 14.4, 84.9 31.3, 98.8 26.8 C 97.2 23.7, 28.6 31.3, 28.2 23.6 C 44.5 10.2, 50.1 100.0, 47.5 95.1 C 64.5 76.0, 39.6 0.0, 26.6 4.4 C 19.4 0.0, 71.6 8.8, 70.7 11.9 C 73.5 0.0, 0.0 44.6, 1.4 57.5 C 13.8 57.9, 51.7 93.1, 56.2 87.0 Z" fill="hsl(151, 70%, 62%)" fill-opacity="0.83" stroke="none" stroke-width="1.63"  transform="translate(71.6 62.8) rotate(89.2) scale(1.62 0.68)" />
<rect x="56.8" y="24.5" width="21.4" height="26.0" rx="4.0" fill="none" fill-opacity="0.21"   transform="translate(46.5 44.0) rotate(187.2) scale(1.59 0.94)" />
<path d="M 48.6 46.5 C 56.7 59.1, 47.0 41.1, 53.2 31.5 C 52.6 30.0, 80.4 77.9, 68.2 81.1 C 50.1 90.6, 37.3 20.8, 51.7 12.7 C 65.9 3.9, 23.4 17.6, 28.5 6.1 C 35.4 16.3, 71.1 40.9, 57.1 40.5 C 68.2 25.1, 64.3 76.9, 70.0 84.9 Z" fill="hsl(106, 75%, 59%)" fill-opacity="1.00" stroke="none" stroke-width="2.22"  transform="translate(2.3 39.1) rotate(283.9) scale(1.03 1.92)" />
<circle cx="66.2" cy="83.8" r="10.6" fill="url(#g0)" fill-opacity="0.55"  transform="translate(19.9 31.6) rotate(78.1) scale(0.63 1.94)" />
<rect x="76.4" y="17.8" width="20.9" height="21.9" rx="19.7" fill="none" fill-opacity="0.86" stroke="hsl(104, 72%, 65%)" stroke-width="3.5" filter="url(#f1)" transform="translate(2.5 67.2) rotate(284.3) scale(0.59 1.01)" />
<path d="M 47.4 65.5 C 49.2 51.6, 59.7 46.9, 47.8 34.8 C 66.3 54.7, 36.2 8.7, 46.3 11.0 C 26.4 29.5, 33.6 19.9, 46.8 34.3 C 48.6 41.0, 5.7 47.4, 19.8 61.8 C 17.4 71.6, 59.2 13.7, 48.0 22.8 C 51.3 23.2, 4.0 31.4, 3.1 21.3 C 0.0 24.4, 88.3 48.3, 87.1 36.2 C 67.2 40.0, 47.3 79.6, 46.2 68.7 C 56.7 64.9, 95.5 40.3, 97.8 44.6 Z" fill="hsl(144, 86%, 72%)" fill-opacity="0.30" stroke="none" stroke-width="2.73"  transform="translate(66.5 26.7) rotate(85.1) scale(0.74 0.80)" />
<circle cx="56.3" cy="75.7" r="8.3" fill="url(#g1)" fill-opacity="0.47" filter="url(#f1)" transform="translate(97.3 21.4) rotate(194.4) scale(0.73 1.39)" />
<path d="M 19.5 69.9 C 28.5 59.2, 19.7 64.9, 31.4 68.1 C 42.0 77.1, 42.4 49.5, 52.8 36.4 C 60.9 21.3, 87.0 40.5, 73.5 47.0 C 66.4 40.5, 40.5 73.9, 52.1 70.9 C 69.1 61.7, 83.1 70.6, 78.4 60.6 C 85.0 78.7, 63.5 17.8, 67.5 30.9 C 53.5 22.1, 36.0 28.3, 44.0 29.9 C 25.7 39.0, 19.5 75.5, 9.9 83.6 C 21.8 76.8, 84.4 34.8, 90.4 49.2 Z" fill="none" fill-opacity="0.80" stroke="hsl(183, 71%, 60%)" stroke-width="3.01"  transform="translate(57.5 71.5) rotate(263.6) scale(1.01 1.21)" />
<circle cx="0.7" cy="44.2" r="18.1" fill="url(#g1)" fill-opacity="1.00" filter="url(#f1)" transform="translate(37.1 27.5) rotate(26.7) scale(0.74 1.37)" />
<circle cx="76.4" cy="86.9" r="1.0" fill="hsl(106, 75%, 59%)" fill-opacity="0.68"  transform="translate(49.3 93.7) rotate(292.5) scale(0.53 1.29)" />
<rect x="50.8" y="50.5" width="32.9" height="39.9" rx="11.9" fill="none" fill-opacity="0.73"   transform="translate(13.8 17.3) rotate(90.3) scale(1.91 1.39)" />
<rect x="16.7" y="17.5" width="27.0" height="14.8" rx="0" fill="none" fill-opacity="0.89"   transform="translate(16.6 86.3) rotate(296.8) scale(1.81 0.90)" />
<path d="M 78.8 28.4 C 61.3 33.6, 53.4 26.5, 57.5 25.1 C 68.2 41.4, 46.5 56.1, 55.5 41.4 C 53.1 38.2, 15.8 33.4, 12.9 32.3 C 0.0 41.4, 51.3 2.7, 47.4 9.5 C 47.7 12.5, 21.3 83.5, 26.3 72.5 C 23.9 69.5, 75.1 88.7, 65.7 98.9 C 67.1 100.0, 82.5 61.2, 72.0 46.9 C 89.5 28.5, 77.0 22.3, 71.1 31.4 C 84.6 25.1, 87.2 54.1, 89.9 63.4 Z" fill="none" fill-opacity="0.48" stroke="hsl(104, 72%, 65%)" stroke-width="3.03"  transform="translate(22.2 74.3) rotate(207.9) scale(1.18 1.52)" />
<path d="M 85.8 64.8 C 97.3 62.2, 31.9 86.2, 40.6 91.3 C 39.9 100.0, 27.0 31.6, 29.1 45.2 C 45.9 30.9, 79.3 57.3, 76.4 70.2 C 70.1 72.9, 56.0 52.0, 58.0 37.7 C 75.9 36.7, 86.9 31.8, 86.2 23.7 C 81.2 12.7, 13.6 36.8, 11.4 46.8 C 8.7 33.2, 50.0 42.2, 48.7 47.6 Z" fill="none" fill-opacity="0.74" stroke="hsl(183, 71%, 60%)" stroke-width="2.00"  transform="translate(79.8 49.1) rotate(189.1) scale(1.74 1.71)" />
<path d="M 39.5 28.0 C 48.8 12.0, 0.0 0.0, 1.3 14.0 C 0.0 13.9, 79.6 79.5, 65.9 67.1 C 85.1 77.5, 45.8 12.2, 58.6 22.7 C 50.8 31.8, 42.9 42.4, 49.4 45.9 C 50.2 45.5, 14.1 77.0, 19.5 74.7 C 32.4 61.9, 22.4 26.5, 16.1 16.8 C 0.0 13.1, 95.1 33.7, 97.9 37.5 C 80.4 33.2, 38.7 19.8, 36.7 17.0 C 31.3 20.3, 0.3 82.2, 14.0 68.3 " fill="hsl(322, 74%, 44%)" fill-opacity="0.99" stroke="none" stroke-width="2.03"  transform="translate(87.1 16.9) rotate(320.8) scale(1.53 0.69)" />
<rect x="41.5" y="29.5" width="21.9" height="18.3" rx="0" fill="none" fill-opacity="0.68" stroke="hsl(322, 74%, 44%)" stroke-width="2.9"  transform="translate(82.2 61.8) rotate(221.3) scale(1.42 0.98)" />
<path d="M 44.7 27.0 C 31.4 16.5, 68.2 58.5, 78.2 71.3 C 75.3 89.1, 72.6 14.7, 75.3 1.7 C 73.9 14.5, 12.5 42.3, 26.6 38.2 C 10.8 40.4, 100.0 100.0, 88.5 96.8 C 75.3 100.0, 49.0 33.4, 38.5 20.9 C 30.4 12.6, 38.9 29.3, 25.6 39.9 C 39.0 24.4, 15.8 89.8, 15.7 92.0 Z" fill="hsl(151, 70%, 62%)" fill-opacity="0.88" stroke="none" stroke-width="1.91"  transform="translate(24.3 50.1) rotate(238.0) scale(1.35 0.77)" />
<path d="M 3.6 68.0 C 21.1 64.0, 19.5 43.4, 31.6 37.4 C 42.0 24.0, 19.0 38.4, 13.9 24.3 C 31.3 33.8, 97.7 87.1, 86.6 88.5 C 69.0 100.0, 7.5 17.7, 10.5 16.6 C 6.0 1.8, 88.0 0.0, 95.6 12.6 C 91.8 26.9, 13.2 68.5, 21.5 57.6 C 7.4 43.0, 40.7 96.1, 53.2 88.0 Z" fill="hsl(322, 74%, 44%)" fill-opacity="0.30" stroke="none" stroke-width="4.53"  transform="translate(54.9 45.3) rotate(138.5) scale(0.77 1.82)" />
<path d="M 33.8 4.0 C 39.6 0.0, 67.3 8.5, 64.5 5.0 C 66.4 24.0, 58.5 70.9, 47.8 63.4 C 60.6 82.1, 83.3 32.7, 84.6 29.1 C 91.6 30.9, 59.3 25.8, 56.1 17.9 C 65.9 17.7, 22.4 68.4, 13.9 66.5 C 4.0 85.7, 41.4 49.1, 33.8 46.1 C 38.9 59.1, 87.8 97.5, 77.1 89.4 C 96.7 93.7, 20.5 29.6, 5.8 29.2 C 24.6 38.7, 49.3 25.4, 47.7 20.7 C 27.8 26.3, 11.4 14.7, 20.3 18.8 Z" fill="none" fill-opacity="0.64" stroke="hsl(104, 72%, 65%)" stroke-width="1.09"  transform="translate(5.6 52.7) rotate(348.4) scale(1.87 1.55)" />
<path d="M 51.3 73.9 C 56.2 88.3, 100.0 62.3, 93.0 73.9 C 82.0 57.6, 30.4 42.9, 28.8 54.4 C 35.2 39.7, 51.3 100.0, 44.7 95.1 C 34.9 100.0, 68.0 67.8, 64.2 55.2 C 53.7 53.2, 100.0 81.3, 97.6 83.7 C 100.0 74.0, 72.1 100.0, 79.3 94.8 C 97.7 78.4, 52.1 25.0, 49.5 17.5 Z" fill="none" fill-opacity="0.53" stroke="hsl(106, 75%, 59%)" stroke-width="2.36" filter="url(#f1)" transform="translate(84.3 12.1) rotate(115.8) scale(1.09 0.57)" />
<path d="M 22.1 31.8 C 6.7 14.8, 86.7 51.6, 99.8 52.9 C 100.0 37.4, 92.3 95.4, 94.6 90.7 C 88.7 94.9, 45.9 42.6, 37.9 31.2 C 36.2 26.8, 82.2 76.6, 75.4 86.4 C 89.3 91.5, 48.7 23.9, 35.9 27.1 C 46.2 35.6, 8.3 70.0, 13.3 78.2 C 0.0 78.5, 42.1 64.9, 27.6 72.7 Z" fill="none" fill-opacity="0.49" stroke="hsl(151, 70%, 62%)" stroke-width="4.06"  transform="translate(26.4 5.1) rotate(262.1) scale(1.55 0.64)" />
<circle cx="81.8" cy="81.5" r="1.8" fill="hsl(86, 72%, 68%)" fill-opacity="1.00" filter="url(#f1)" transform="translate(10.7 89.6) rotate(85.8) scale(1.85 1.04)" />
<path d="M 27.6 28.1 C 45.4 46.5, 19.2 21.9, 32.0 8.8 C 31.3 0.0, 52.7 23.5, 55.3 18.0 C 45.3 21.2, 0.0 62.3, 2.9 64.9 C 16.7 70.8, 8.8 60.2, 20.4 65.3 C 10.0 53.2, 61.1 44.1, 65.7 37.4 C 76.5 45.8, 17.5 23.5, 7.0 9.0 Z" fill="hsl(106, 75%, 59%)" fill-opacity="0.93" stroke="none" stroke-width="3.88"  transform="translate(82.0 84.7) rotate(108.4) scale(0.55 1.25)" />
<path d="M 73.0 68.0 C 75.3 76.4, 100.0 59.4, 97.4 70.6 C 97.2 81.5, 70.9 87.1, 56.9 96.5 C 66.3 100.0, 67.3 33.8, 63.7 48.2 C 78.4 37.7, 48.7 72.1, 36.4 65.4 C 34.7 78.9, 51.8 84.4, 63.6 97.9 C 57.0 100.0, 48.9 32.7, 57.6 33.5 C 42.6 35.1, 71.9 41.9, 86.2 51.3 " fill="hsl(144, 86%, 72%)" fill-opacity="0.59" stroke="none" stroke-width="0.85"   />
<circle cx="97.5" cy="8.5" r="0.0" fill="url(#g1)" fill-opacity="0.78"   />
<path d="M 1.3 44.9 C 0.0 31.5, 0.0 63.4, 12.0 53.3 C 0.0 47.0, 61.2 56.6, 46.5 56.8 C 53.8 57.7, 38.2 7.0, 28.0 5.7 C 30.3 14.7, 32.4 36.4, 41.5 38.3 C 55.0 51.5, 43.9 18.3, 44.6 33.2 C 40.8 32.4, 79.8 5.5, 84.0 15.7 Z" fill="none" fill-opacity="0.96" stroke="hsl(83, 65%, 44%)" stroke-width="4.95"  transform="translate(54.2 2.4) rotate(132.9) scale(1.16 0.82)" />
<path d="M 55.2 80.6 C 66.9 87.8, 12.4 71.9, 26.3 57.6 C 8.9 61.7, 93.2 3.1, 88.4 1.8 C 81.6 0.0, 78.5 38.2, 69.1 38.0 C 52.8 46.7, 100.0 78.6, 99.1 65.7 C 94.4 54.7, 46.3 75.2, 43.9 76.5 C 24.7 74.0, 72.6 55.6, 61.4 59.6 C 72.6 43.0, 24.6 30.0, 20.8 24.9 C 23.0 19.0, 100.0 72.3, 85.8 86.3 C 96.1 76.0, 70.1 32.3, 76.1 30.6 Z" fill="hsl(40, 53%, 69%)" fill-opacity="0.35" stroke="none" stroke-width="5.19"   />
<rect x="53.2" y="60.2" width="42.2" height="10.3" rx="1.5" fill="none" fill-opacity="0.46"   transform="translate(84.5 97.7) rotate(269.5) scale(1.14 1.45)" />
<path d="M 89.3 96.9 C 83.7 95.9, 68.7 68.9, 55.8 76.0 C 44.2 77.3, 35.7 47.6, 31.6 38.6 C 19.2 26.9, 35.4 42.6, 36.7 49.5 C 28.4 43.6, 56.2 44.0, 47.1 46.2 C 27.7 32.9, 5.6 79.2, 14.0 84.7 C 16.0 70.0, 68.4 17.5, 80.4 31.9 C 65.3 24.3, 43.4 20.7, 35.0 27.0 C 47.8 21.4, 76.3 56.0, 69.2 66.3 C 87.6 76.6, 89.6 71.0, 87.0 78.3 C 71.1 96.1, 35.7 86.1, 22.0 90.2 Z" fill="none" fill-opacity="0.63" stroke="hsl(322, 74%, 44%)" stroke-width="4.37"  transform="translate(58.3 2.9) rotate(222.4) scale(0.86 1.25)" />
<path d="M 30.0 1.2 C 35.5 7.5, 83.3 68.3, 77.9 53.4 C 73.0 39.4, 1.7 0.0, 5.7 2.9 C 3.9 11.2, 55.5 46.4, 63.3 35.5 C 61.3 22.4, 2.8 38.2, 1.4 43.7 C 0.0 58.7, 77.1 1.6, 86.4 14.7 C 85.7 11.2, 100.0 42.1, 95.3 43.6 C 100.0 54.6, 100.0 59.4, 88.2 59.8 Z" fill="none" fill-opacity="0.57" stroke="hsl(290, 83%, 63%)" stroke-width="1.91"  transform="translate(60.6 50.2) rotate(121.8) scale(1.51 0.65)" />
<rect x="4.8" y="14.8" width="37.8" height="36.4" rx="6.1" fill="hsl(106, 75%, 59%)" fill-opacity="0.54"    />
<path d="M 14.3 25.2 C 0.0 22.4, 40.6 75.1, 48.8 71.9 C 63.9 75.9, 10.7 22.5, 19.3 16.3 C 9.9 35.4, 13.6 23.3, 23.1 37.2 C 10.4 19.4, 100.0 0.0, 98.2 1.2 C 86.5 0.0, 35.3 0.0, 45.8 3.4 C 34.2 0.0, 37.6 94.0, 42.0 81.2 C 45.9 95.2, 63.8 100.0, 76.5 99.8 Z" fill="none" fill-opacity="0.79" stroke="hsl(106, 75%, 59%)" stroke-width="3.70"  transform="translate(84.8 94.8) rotate(337.7) scale(0.78 1.45)" />
<circle cx="22.0" cy="59.9" r="3.6" fill="url(#g1)" fill-opacity="0.50"  transform="translate(94.4 68.2) rotate(189.5) scale(1.95 0.64)" />
<g opacity="0.031">
<rect x="0" y="0" width="1" height="100" fill="black" />
<rect x="22" y="0" width="1" height="100" fill="black" />
<rect x="44" y="0" width="1" height="100" fill="black" />
<rect x="66" y="0" width="1" height="100" fill="black" />
<rect x="88" y="0" width="1" height="100" fill="black" />
<rect x="0" y="0" width="100" height="1" fill="black" />
<rect x="0" y="22" width="100" height="1" fill="black" />
<rect x="0" y="44" width="100" height="1" fill="black" />
<rect x="0" y="66" width="100" height="1" fill="black" />
<rect x="0" y="88" width="100" height="1" fill="black" />
</g>

</svg>
