<?xml version="1.0" encoding="UTF-8"?>
<svg xmlns="http://www.w3.org/2000/svg" width="100" height="100" viewBox="0 0 100 100">
<defs>
<linearGradient id="g0" x1="0%" y1="0%" x2="100%" y2="100%">
<stop offset="0.0%" stop-color="hsl(106, 75%, 59%)" />
<stop offset="33.3%" stop-color="hsl(183, 71%, 60%)" />
<stop offset="66.7%" stop-color="hsl(242, 72%, 49%)" />
<stop offset="100.0%" stop-color="hsl(322, 74%, 44%)" />
</linearGradient>
<linearGradient id="g1" x1="0%" y1="0%" x2="100%" y2="100%">
<stop offset="0.0%" stop-color="hsl(290, 83%, 63%)" />
<stop offset="33.3%" stop-color="hsl(2, 82%, 55%)" />
<stop offset="66.7%" stop-color="hsl(86, 72%, 68%)" />
<stop offset="100.0%" stop-color="hsl(83, 65%, 44%)" />
</linearGradient>
<linearGradient id="g2" x1="0%" y1="0%" x2="100%" y2="100%">
<stop offset="0.0%" stop-color="hsl(40, 53%, 69%)" />
<stop offset="33.3%" stop-color="hsl(104, 72%, 65%)" />
<stop offset="66.7%" stop-color="hsl(144, 86%, 72%)" />
<stop offset="100.0%" stop-color="hsl(151, 70%, 62%)" />
</linearGradient>
<filter id="f1" x="-20%" y="-20%" width="140%" height="140%">
  <feGaussianBlur stdDeviation="0.5851978676452958" />
</filter>

</defs>

<path d="M 5.3 23.5 C 0.0 22.0, 19.0 88.6, 28.5 92.0 C 33.6 100.0, 17.4 72.5, 15.2 80.2 C 29.2 91.6, 80.6 61.3, 92.4 47.5 C 100.0 51.1, 67.5 64.2, 80.0 50.6 C 90.1 61.8, 22.7 15.7, 33.3 6.8 C 15.0 1.3, 73.2 62.8, 79.9 73.8 C 72.3 73.4, 63.7 22.9, 48.9 11.0 C 63.0 3.1, 61.4 31.5, 71.7 20.8 C 61.4 16.7, 100.0 0.0, 97.9 9.5 Z" fill="hsl(290, 83%, 63%)" fill-opacity="0.80" stroke="none" stroke-width="3.95"   />
<path d="M 32.6 65.0 C 40.9 61.8, 69.8 6.8, 75.7 0.7 C 79.8 0.0, 23.0 39.2, 13.5 48.1 C 6.3 49.7, 16.1 60.8, 11.0 65.2 C 30.2 48.8, 0.0 100.0, 12.2 89.9 C 6.5 74.6, 6.0 25.8, 8.6 39.8 C 0.0 38.1, 81.1 72.1, 88.9 77.5 C 74.7 94.4, 74.8 26.4, 84.7 39.0 C 91.0 56.9, 100.0 98.4, 98.9 98.0 Z" fill="hsl(183, 71%, 60%)" fill-opacity="0.30" stroke="none" stroke-width="0.93" filter="url(#f1)" transform="translate(97.0 94.6) rotate(326.6) scale(0.92 0.85)" />
<path d="M 53.6 1.2 C 38.8 19.7, 49.6 91.9, 41.2 99.6 C 58.8 100.0, 18.5 8.9, 10.5 0.1 C 25.1 3.6, 14.7 24.3, 19.5 38.0 C 22.2 20.4, 84.8 55.4, 88.8 63.9 C 70.0 45.4, 56.2 86.0, 55.1 98.7 C 42.3 100.0, 70.1 67.9, 66.3 68.7 C 80.0 69.1, 71.5 16.4, 79.3 19.1 Z" fill="hsl(106, 75%, 59%)" fill-opacity="0.93" stroke="none" stroke-width="4.39"  transform="translate(71.5 91.8) rotate(274.6) scale(0.82 1.77)" />
<path d="M 87.3 18.9 C 80.0 20.6, 95.6 39.2, 99.4 30.0 C 100.0 13.1, 25.9 17.0, 30.7 14.5 C 23.5 25.7, 68.3 44.4, 56.7 48.3 C 48.6 41.2, 75.9 77.4, 87.4 67.3 C 80.2 51.8, 14.5 45.7, 25.1 34.5 C 17.8 22.9, 93.2 49.0, 94.2 40.9 C 79.8 37.4, 25.4 12.9, 21.1 13.4 C 37.7 30.7, 95.6 59.7, 88.0 70.3 Z" fill="hsl(83, 65%, 44%)" fill-opacity="0.46" stroke="none" stroke-width="3.00"  transform="translate(17.5 91.1) rotate(127.4) scale(1.06 0.60)" />
<circle cx="83.7" cy="14.1" r="1.1" fill="url(#g2)" fill-opacity="0.77"  transform="translate(22.6 49.9) rotate(16.9) scale(0.57 1.47)" />
<path d="M 0.1 46.2 C 14.5 52.6, 55.8 8.3, 41.2 9.7 C 54.8 1.5, 12.4 77.0, 11.6 82.7 C 0.0 63.9, 92.2 47.8, 89.3 57.9 C 77.7 38.0, 42.0 12.5, 42.1 13.1 C 45.3 23.2, 77.4 94.1, 80.8 94.6 C 100.0 100.0, 30.5 34.4, 22.2 28.1 C 28.0 22.1, 85.6 11.5, 95.6 7.4 C 78.5 11.3, 25.6 100.0, 21.6 99.9 C 23.5 91.9, 100.0 81.1, 92.0 84.8 Z" fill="hsl(83, 65%, 44%)" fill-opacity="0.90" stroke="none" stroke-width="3.93"  transform="translate(51.7 73.7) rotate(141.8) scale(1.12 1.92)" />
<rect x="49.5" y="2.0" width="44.6" height="21.1" rx="18.2" fill="none" fill-opacity="0.33"   transform="translate(28.4 43.2) rotate(59.6) scale(1.75 1.50)" />
<path d="M 81.3 18.6 C 63.6 31.8, 66.5 33.2, 77.2 39.8 C 58.7 54.6, 72.1 29.5, 80.4 35.8 C 64.7 47.9, 89.0 71.3, 95.0 63.5 C 95.3 60.7, 32.3 80.2, 34.7 69.2 C 40.8 76.8, 38.4 81.2, 28.9 93.3 C 16.2 100.0, 0.0 28.6, 13.4 20.7 C 10.2 22.4, 71.9 81.7, 84.0 83.0 Z" fill="hsl(151, 70%, 62%)" fill-opacity="0.40" stroke="none" stroke-width="3.94"  transform="translate(76.1 68.5) rotate(199.2) scale(1.19 1.80)" />
<rect x="14.2" y="49.7" width="49.3" height="17.8" rx="0" fill="hsl(290, 83%, 63%)" fill-opacity="0.96"  filter="url(#f1)" transform="translate(77.5 55.9) rotate(347.9) scale(1.69 1.91)" />
<circle cx="13.5" cy="43.7" r="1.9" fill="url(#g2)" fill-opacity="0.83"  transform="translate(52.1 77.1) rotate(263.7) scale(1.42 1.09)" />
<path d="M 94.8 44.2 C 100.0 39.1, 60.7 17.6, 73.2 8.6 C 53.5 0.0, 61.8 6.4, 49.1 6.1 C 58.2 0.0, 83.9 73.2, 98.0 66.3 C 99.4 81.2, 5.1 61.3, 1.4 59.9 C 0.0 77.4, 88.3 83.8, 73.5 95.9 C 63.0 100.0, 27.8 55.1, 30.3 65.2 C 33.2 73.1, 80.6 62.5, 90.5 73.4 C 90.9 74.3, 6.4 29.1, 16.6 39.7 C 20.5 36.1, 8.0 45.9, 17.5 39.6 C 3.8 30.4, 41.4 38.4, 30.8 28.6 " fill="none" fill-opacity="0.65" stroke="hsl(322, 74%, 44%)" stroke-width="1.55"  transform="translate(93.1 39.2) rotate(270.7) scale(1.26 0.88)" />
<rect x="17.5" y="1.1" width="25.7" height="19.4" rx="6.6" fill="none" fill-opacity="0.48"    />
<path d="M 59.7 11.7 C 74.5 28.9, 8.7 89.7, 19.2 86.8 C 0.2 100.0, 62.5 94.7, 57.7 88.1 C 76.8 77.9, 68.2 26.6, 54.2 34.7 C 51.7 21.0, 49.3 19.5, 37.0 26.3 C 48.3 38.6, 96.3 60.5, 82.8 48.5 C 78.1 43.3, 43.9 11.2, 39.6 1.8 C 37.2 0.0, 81.7 100.0, 73.9 91.7 C 57.4 78.5, 43.6 31.6, 34.4 33.7 Z" fill="none" fill-opacity="0.49" stroke="hsl(106, 75%, 59%)" stroke-width="3.11"  transform="translate(7.3 32.0) rotate(288.0) scale(1.50 0.75)" />
<path d="M 45.5 56.0 C 46.8 72.7, 100.0 64.6, 96.1 74.9 C 100.0 87.0, 77.2 25.7, 82.1 24.2 C 83.4 30.3, 84.4 23.5, 91.9 25.2 C 91.4 26.2, 75.3 28.3, 80.6 38.3 C 70.5 38.7, 80.9 44.5, 95.4 58.5 C 100.0 75.7, 20.3 37.5, 9.7 31.6 Z" fill="hsl(86, 72%, 68%)" fill-opacity="0.89" stroke="none" stroke-width="1.69"   />
<rect x="49.6" y="2.2" width="33.2" height="33.0" rx="7.9" fill="hsl(104, 72%, 65%)" fill-opacity="0.72"   transform="translate(86.3 58.9) rotate(124.3) scale(1.61 0.56)" />
<path d="M 78.0 94.2 C 59.9 84.5, 17.5 35.0, 29.8 38.6 C 14.5 53.8, 63.3 5.3, 49.9 3.9 C 45.9 19.8, 28.5 32.6, 30.8 44.9 C 30.0 47.4, 81.0 8.6, 78.9 18.7 C 66.6 33.2, 34.6 95.0, 31.1 93.5 C 22.3 89.3, 29.7 100.0, 19.4 99.7 Z" fill="none" fill-opacity="0.60" stroke="hsl(2, 82%, 55%)" stroke-width="4.69"  transform="translate(8.9 84.5) rotate(93.7) scale(0.78 0.55)" />
<path d="M 34.5 47.1 C 26.7 33.8, 33.4 34.6, 27.2 43.1 C 22.4 44.8, 0.0 43.8, 13.7 42.5 C 0.0 23.6, 15.0 46.7, 5.6 41.7 C 10.8 32.7, 33.0 25.2, 22.8 26.7 C 6.4 34.5, 59.1 91.2, 62.7 99.6 C 60.8 99.8, 80.5 65.2, 75.7 69.9 " fill="none" fill-opacity="0.83" stroke="hsl(183, 71%, 60%)" stroke-width="4.69"  transform="translate(84.4 85.7) rotate(135.9) scale(0.63 1.52)" />
<path d="M 25.4 73.3 C 19.2 65.7, 100.0 28.9, 93.3 31.1 C 87.9 37.4, 0.0 82.0, 10.3 90.2 C 26.6 90.6, 74.3 64.3, 87.0 50.7 C 77.9 31.0, 39.9 42.6, 25.2 29.9 C 34.0 44.9, 10.8 7.2, 15.5 12.8 C 14.5 9.3, 58.4 71.7, 57.6 75.9 C 66.8 65.4, 31.6 96.1, 31.9 96.7 Z" fill="none" fill-opacity="0.76" stroke="hsl(290, 83%, 63%)" stroke-width="4.98"  transform="translate(8.6 62.8) rotate(320.7) scale(1.76 1.20)" />
<path d="M 41.1 37.9 C 53.3 26.4, 81.8 10.7, 86.1 16.9 C 84.7 6.0, 43.2 33.6, 39.3 24.1 C 29.3 16.1, 16.4 100.0, 17.7 98.7 C 14.9 83.5, 85.2 6.9, 95.7 8.0 C 83.0 19.4, 32.1 0.0, 24.5 1.5 C 14.2 16.3, 91.4 100.0, 92.2 97.8 C 94.7 100.0, 83.4 21.2, 96.1 24.6 Z" fill="hsl(151, 70%, 62%)" fill-opacity="0.83" stroke="none" stroke-width="0.91"  transform="translate(37.3 29.3) rotate(125.4) scale(1.29 1.10)" />
<rect x="27.2" y="34.8" width="39.5" height="18.6" rx="0" fill="hsl(83, 65%, 44%)" fill-opacity="0.95" stroke="hsl(2, 82%, 55%)" stroke-width="1.1"  transform="translate(45.9 38.6) rotate(240.0) scale(1.62 1.54)" />
<path d="M 34.0 35.3 C 22.3 46.6, 45.8 83.6, 41.3 85.3 C 21.7 85.3, 29.5 57.7, 26.7 49.9 C 34.2 69.0, 40.8 43.2, 49.8 31.6 C 53.9 42.9, 78.2 88.2, 65.4 92.4 C 79.6 80.5, 0.0 71.4, 8.1 82.6 C 0.0 76.0, 11.3 54.6, 2.5 58.7 C 13.7 60.1, 0.0 22.7, 0.9 37.2 C 0.0 57.0, 0.0 63.2, 0.9 72.5 C 0.0 67.2, 100.0 7.2, 88.3 8.8 Z" fill="none" fill-opacity="0.57" stroke="hsl(322, 74%, 44%)" stroke-width="1.23"  transform="translate(34.7 46.6) rotate(231.2) scale(1.40 0.62)" />
<rect x="19.7" y="45.4" width="31.4" height="36.8" rx="0" fill="none" fill-opacity="0.78" stroke="hsl(322, 74%, 44%)" stroke-width="2.2"  transform="translate(64.0 69.5) rotate(198.8) scale(0.68 0.95)" />
<path d="M 44.8 1.5 C 29.1 0.8, 52.4 13.3, 55.7 17.9 C 60.2 0.0, 68.0 92.5, 54.1 89.6 C 55.8 82.7, 19.7 90.3, 11.2 99.9 C 2.6 80.1, 42.8 16.8, 56.0 15.9 C 41.2 6.8, 0.0 59.1, 0.4 63.1 C 19.5 66.6, 19.5 88.7, 33.2 83.4 C 51.1 92.5, 3.2 0.0, 16.8 10.0 Z" fill="none" fill-opacity="0.25" stroke="hsl(183, 71%, 60%)" stroke-width="4.49"  transform="translate(31.0 48.6) rotate(147.8) scale(0.73 1.71)" />
<circle cx="34.6" cy="37.5" r="1.6" fill="url(#g2)" fill-opacity="0.86"  transform="translate(89.2 82.4) rotate(152.4) scale(1.62 1.80)" />
<rect x="46.5" y="68.0" width="26.6" height="21.3" rx="2.8" fill="none" fill-opacity="0.53"   transform="translate(49.7 53.5) rotate(219.1) scale(0.96 1.44)" />
<path d="M 87.3 26.8 C 75.3 34.2, 76.4 52.9, 70.6 67.2 C 78.5 86.0, 23.1 21.1, 32.3 10.6 C 47.8 0.0, 99.6 63.5, 90.2 75.2 C 96.7 85.8, 62.8 97.2, 67.8 93.1 C 69.0 95.1, 48.8 58.1, 60.3 63.0 C 76.9 57.0, 96.0 95.9, 85.9 83.2 C 100.0 95.7, 28.2 49.6, 25.4 44.3 Z" fill="hsl(86, 72%, 68%)" fill-opacity="0.60" stroke="none" stroke-width="5.07" filter="url(#f1)"  />
<path d="M 30.0 48.6 C 44.9 52.4, 42.9 83.4, 51.1 78.4 C 64.7 77.4, 90.0 92.7, 91.5 94.2 C 76.1 98.7, 34.8 35.3, 31.3 48.8 C 36.9 61.9, 68.3 100.0, 76.5 99.9 C 73.0 100.0, 30.2 0.0, 29.2 12.4 C 41.5 12.4, 13.1 16.3, 9.6 8.5 C 27.3 0.0, 60.8 0.0, 47.2 5.8 Z" fill="none" fill-opacity="0.58" stroke="hsl(106, 75%, 59%)" stroke-width="2.05"  transform="translate(26.4 25.4) rotate(135.5) scale(1.49 1.65)" />
<path d="M 29.4 67.4 C 33.9 79.4, 28.1 91.0, 16.0 87.2 C 16.2 98.8, 91.8 54.0, 96.6 42.0 C 78.9 22.7, 91.0 60.0, 92.8 67.5 C 100.0 59.6, 67.7 45.4, 79.4 38.7 C 96.7 22.5, 85.2 18.5, 83.3 30.4 C 100.0 18.7, 57.1 73.6, 59.0 60.8 C 61.2 47.0, 71.7 47.7, 84.7 45.9 C 88.6 64.8, 24.4 29.2, 24.6 23.4 C 32.6 19.4, 11.5 0.0, 9.7 10.6 Z" fill="none" fill-opacity="0.86" stroke="hsl(104, 72%, 65%)" stroke-width="0.93"  transform="translate(50.5 27.9) rotate(301.1) scale(1.82 0.63)" />
<path d="M 17.1 4.6 C 20.0 0.0, 40.1 13.0, 54.7 3.3 C 55.5 15.3, 21.7 78.2, 22.1 81.1 C 5.1 72.4, 35.1 87.1, 42.3 84.3 C 60.2 100.0, 33.5 70.7, 47.1 59.3 C 53.7 67.9, 78.5 66.7, 74.4 51.9 C 84.4 36.8, 9.0 9.8, 14.9 5.1 C 24.3 20.9, 50.6 2.0, 56.8 14.5 C 76.3 15.0, 59.9 22.5, 58.7 17.5 C 74.8 17.0, 6.3 16.7, 6.6 25.4 Z" fill="hsl(183, 71%, 60%)" fill-opacity="0.37" stroke="none" stroke-width="2.08"  transform="translate(78.4 47.5) rotate(295.9) scale(1.38 1.44)" />
<path d="M 2.9 76.4 C 0.0 77.8, 16.3 10.1, 9.6 21.9 C 0.0 16.5, 84.8 33.2, 83.6 34.6 C 83.8 36.5, 51.8 37.2, 60.5 49.0 C 41.9 43.6, 84.7 69.1, 69.9 61.0 C 65.6 46.6, 36.9 24.2, 46.7 28.4 C 56.8 21.2, 21.9 17.3, 18.2 11.3 C 15.0 0.0, 81.8 60.1, 89.3 64.1 Z" fill="none" fill-opacity="0.40" stroke="hsl(106, 75%, 59%)" stroke-width="3.34"  transform="translate(27.6 45.1) rotate(53.6) scale(0.82 1.49)" />
<circle cx="30.1" cy="11.4" r="0.6" fill="hsl(2, 82%, 55%)" fill-opacity="0.61"  transform="translate(60.4 10.6) rotate(149.0) scale(0.95 1.41)" />
<circle cx="93.3" cy="75.6" r="1.4" fill="url(#g2)" fill-opacity="0.59"  transform="translate(6.3 28.2) rotate(143.5) scale(1.65 1.85)" />
<path d="M 28.2 42.9 C 42.6 33.5, 87.9 57.9, 78.3 66.2 C 63.0 56.3, 24.5 49.2, 10.5 53.7 C 17.8 50.2, 9.2 27.3, 10.1 17.2 C 0.0 24.4, 59.6 46.4, 49.7 42.4 C 60.8 56.2, 49.6 92.8, 39.1 84.7 C 19.9 74.5, 11.8 74.8, 24.9 75.8 C 42.9 85.7, 57.6 17.3, 47.5 7.1 Z" fill="none" fill-opacity="0.72" stroke="hsl(106, 75%, 59%)" stroke-width="3.65"  transform="translate(66.2 19.6) rotate(140.2) scale(1.92 1.41)" />
<circle cx="34.8" cy="86.6" r="18.7" fill="url(#g2)" fill-opacity="0.64"  transform="translate(73.4 28.4) rotate(153.8) scale(0.51 1.87)" />
<path d="M 80.3 2.2 C 71.8 0.0, 51.6 76.7, 42.2 78.3 C 61.1 77.9, 30.3 13.5, 32.4 25.5 C 32.2 33.8, 64.1 62.3, 67.9 77.0 C 55.2 84.6, 45.9 21.2, 59.3 35.3 C 63.4 51.2, 47.9 21.1, 55.9 8.1 C 52.8 0.0, 45.8 74.3, 43.3 87.5 C 38.8 67.8, 85.9 80.0, 75.3 92.8 Z" fill="none" fill-opacity="0.37" stroke="hsl(242, 72%, 49%)" stroke-width="5.16"  transform="translate(60.9 87.4) rotate(200.0) scale(1.01 1.87)" />
<path d="M 86.0 25.9 C 75.1 21.3, 50.4 72.4, 43.0 61.7 C 37.8 58.3, 58.2 4.2, 45.4 17.7 C 39.5 10.5, 62.1 16.8, 54.4 15.4 C 60.5 35.3, 30.7 4.2, 26.1 2.7 C 18.7 0.0, 68.8 72.9, 72.4 81.6 C 52.9 65.8, 58.5 21.8, 67.6 23.7 C 51.4 42.4, 67.7 6.9, 70.5 3.7 C 76.2 18.5, 71.3 85.5, 60.1 76.2 C 72.8 91.1, 22.8 98.9, 24.7 94.1 Z" fill="hsl(144, 86%, 72%)" fill-opacity="0.77" stroke="none" stroke-width="3.43"  transform="translate(68.8 44.7) rotate(90.1) scale(1.38 0.87)" />
<path d="M 25.6 66.2 C 25.6 59.3, 100.0 31.2, 92.5 17.1 C 99.2 1.6, 0.0 62.0, 13.5 50.5 C 8.0 68.5, 27.1 98.3, 25.9 86.2 C 13.4 78.4, 12.5 86.6, 1.6 75.1 C 7.5 57.0, 1.1 34.0, 9.7 43.9 C 15.7 44.5, 88.6 83.5, 99.6 85.0 C 100.0 83.4, 36.5 50.6, 40.7 41.5 C 46.7 46.8, 60.4 75.2, 72.9 72.2 C 78.8 59.2, 99.0 98.9, 94.6 97.6 C 100.0 100.0, 69.3 98.9, 71.5 84.8 Z" fill="hsl(242, 72%, 49%)" fill-opacity="0.36" stroke="none" stroke-width="4.55"  transform="translate(49.5 53.5) rotate(231.8) scale(0.89 0.89)" />
<rect x="45.2" y="75.7" width="24.9" height="11.7" rx="0" fill="hsl(40, 53%, 69%)" fill-opacity="0.78" stroke="hsl(144, 86%, 72%)" stroke-width="4.7"  transform="translate(22.4 59.6) rotate(68.4) scale(1.42 0.89)" />
<rect x="55.5" y="17.1" width="40.7" height="10.1" rx="6.1" fill="none" fill-opacity="0.38"   transform="translate(89.4 18.2) rotate(32.4) scale(1.80 1.52)" />
<rect x="5.0" y="60.5" width="33.5" height="26.1" rx="0" fill="hsl(183, 71%, 60%)" fill-opacity="0.71"   transform="translate(5.6 12.4) rotate(301.4) scale(0.91 1.48)" />
<path d="M 46.3 9.0 C 31.1 16.0, 19.3 73.3, 19.9 79.3 C 4.8 85.1, 62.7 0.0, 64.6 1.1 C 61.4 17.3, 51.7 60.5, 58.0 59.9 C 74.8 77.7, 85.7 19.5, 76.5 21.4 C 79.4 17.8, 43.6 81.5, 52.2 83.5 C 70.5 77.3, 90.6 0.0, 91.5 2.2 C 84.5 14.8, 98.0 66.2, 97.9 69.3 Z" fill="hsl(83, 65%, 44%)" fill-opacity="0.32" stroke="none" stroke-width="3.83"  transform="translate(25.6 31.8) rotate(212.0) scale(1.39 1.72)" />
<path d="M 11.9 11.1 C 5.8 17.1, 72.5 56.3, 61.3 57.6 C 54.1 45.3, 100.0 51.5, 89.0 60.9 C 79.5 69.2, 50.1 3.8, 58.3 11.9 C 41.9 13.3, 45.2 90.5, 30.9 86.2 C 30.0 83.2, 55.8 71.2, 41.2 64.7 C 48.0 80.5, 28.3 21.4, 40.2 7.9 C 37.1 17.6, 89.7 98.1, 84.5 89.1 C 79.4 100.0, 74.2 94.8, 80.3 92.1 " fill="none" fill-opacity="0.35" stroke="hsl(2, 82%, 55%)" stroke-width="2.17"  transform="translate(4.1 94.3) rotate(30.2) scale(0.67 1.04)" />
<path d="M 73.5 49.1 C 83.7 36.2, 51.4 50.2, 49.8 62.0 C 52.2 69.4, 5.7 30.6, 4.3 30.4 C 19.1 48.7, 21.0 17.9, 25.0 10.7 C 18.1 0.0, 0.0 53.1, 1.4 64.2 C 0.0 78.0, 55.3 48.3, 46.9 44.2 C 28.5 50.5, 5.2 74.0, 17.7 78.1 Z" fill="hsl(83, 65%, 44%)" fill-opacity="0.81" stroke="none" stroke-width="5.00" filter="url(#f1)" transform="translate(41.2 14.3) rotate(276.4) scale(0.65 0.93)" />
<path d="M 28.9 66.6 C 35.0 86.4, 59.7 31.4, 45.7 19.2 C 42.0 18.7, 59.2 24.2, 64.8 12.3 C 54.5 7.2, 91.2 28.6, 93.3 18.0 C 78.4 36.1, 17.7 13.4, 27.3 20.8 C 8.3 25.8, 37.8 63.3, 34.9 56.3 C 44.1 73.5, 67.5 62.0, 67.6 64.9 C 59.7 73.5, 81.8 29.1, 77.4 21.5 C 88.6 34.4, 100.0 31.7, 93.6 43.5 Z" fill="hsl(290, 83%, 63%)" fill-opacity="0.97" stroke="none" stroke-width="2.19"  transform="translate(74.1 96.3) rotate(265.0) scale(1.57 1.05)" />
<rect x="25.2" y="56.5" width="21.2" height="34.6" rx="0" fill="none" fill-opacity="0.42" stroke="hsl(144, 86%, 72%)" stroke-width="4.0"  transform="translate(62.9 5.4) rotate(39.5) scale(0.53 1.36)" />
<path d="M 35.7 51.2 C 53.5 39.2, 87.6 70.7, 94.9 85.0 C 88.9 84.9, 6.3 100.0, 4.0 88.6 C 0.0 87.6, 3.8 63.3, 1.1 71.9 C 0.0 60.2, 32.1 91.2, 18.5 87.3 C 37.6 71.4, 67.9 64.9, 63.2 69.3 C 80.1 75.2, 51.0 15.8, 56.9 18.4 C 39.2 22.3, 14.5 68.1, 7.1 68.0 C 0.0 55.5, 34.0 33.3, 35.0 46.6 C 49.4 43.2, 0.9 81.6, 5.8 79.4 C 0.0 80.2, 95.4 64.2, 88.9 71.1 Z" fill="hsl(144, 86%, 72%)" fill-opacity="0.57" stroke="none" stroke-width="4.41"   />
<path d="M 89.7 12.1 C 85.3 16.3, 52.7 93.8, 64.8 97.6 C 78.6 100.0, 69.4 62.6, 70.0 59.7 C 73.9 67.0, 6.5 40.8, 13.9 30.5 C 0.0 23.3, 29.8 21.2, 30.4 25.6 C 12.2 23.1, 100.0 41.4, 97.4 47.4 C 88.9 58.2, 90.4 82.8, 77.0 95.2 Z" fill="hsl(83, 65%, 44%)" fill-opacity="0.85" stroke="none" stroke-width="4.53"  transform="translate(37.7 27.5) rotate(145.6) scale(1.68 1.36)" />
<path d="M 62.5 43.0 C 66.4 62.3, 50.4 12.7, 38.5 1.6 C 33.7 0.0, 69.0 75.3, 65.4 73.6 C 77.9 80.6, 88.0 81.3, 86.8 72.9 C 81.6 91.2, 24.7 58.7, 11.8 66.2 C 18.3 47.5, 13.5 48.6, 0.6 51.2 C 0.0 45.0, 84.3 0.0, 78.0 6.8 Z" fill="none" fill-opacity="0.72" stroke="hsl(144, 86%, 72%)" stroke-width="3.88"  transform="translate(12.1 75.6) rotate(132.5) scale(1.94 0.92)" />
<circle cx="89.7" cy="50.4" r="12.7" fill="url(#g2)" fill-opacity="0.60"  transform="translate(79.7 16.2) rotate(234.8) scale(1.51 1.23)" />
<path d="M 20.4 83.1 C 24.8 79.2, 10.0 81.3, 5.9 83.1 C 25.8 93.7, 79.6 100.0, 71.2 92.9 C 77.4 94.7, 49.2 45.2, 58.8 51.9 C 53.5 62.6, 92.4 60.4, 89.9 65.5 C 99.5 62.7, 59.4 82.9, 57.8 90.3 C 39.3 83.5, 52.1 87.8, 55.8 73.6 C 40.9 60.9, 9.9 75.5, 1.8 80.4 C 19.6 97.5, 89.2 17.2, 91.9 20.5 C 77.6 31.8, 87.7 97.8, 96.9 86.7 Z" fill="hsl(144, 86%, 72%)" fill-opacity="0.53" stroke="none" stroke-width="1.90" filter="url(#f1)" transform="translate(65.6 28.1) rotate(163.4) scale(1.58 0.91)" />
<path d="M 31.6 52.9 C 25.8 71.1, 51.1 56.9, 48.0 71.1 C 43.4 69.2, 90.3 74.1, 99.1 82.3 C 100.0 72.0, 31.7 94.2, 22.4 97.2 C 5.3 100.0, 40.3 59.2, 52.1 72.6 C 57.5 68.3, 5.6 44.1, 9.0 44.3 C 0.0 29.0, 100.0 34.7, 95.2 46.3 C 94.8 28.8, 46.5 15.5, 60.8 15.5 C 76.7 15.8, 50.4 67.7, 56.6 82.0 Z" fill="hsl(144, 86%, 72%)" fill-opacity="0.96" stroke="none" stroke-width="3.17"  transform="translate(98.2 84.2) rotate(3.5) scale(1.23 1.36)" />
<path d="M 43.7 13.0 C 33.7 19.0, 25.8 87.4, 38.6 92.3 C 58.1 93.4, 68.8 34.7, 70.7 27.3 C 82.9 14.6, 26.2 44.9, 34.3 58.9 C 49.0 59.2, 80.0 86.7, 67.4 77.5 C 59.4 89.8, 46.5 0.0, 42.5 2.3 C 44.1 0.0, 24.0 100.0, 33.7 99.5 C 25.9 88.5, 45.2 6.2, 33.0 9.9 C 33.9 4.7, 16.3 81.9, 14.7 76.0 C 28.6 93.1, 22.5 76.8, 26.2 85.0 C 37.4 95.1, 75.4 72.6, 66.0 66.5 " fill="hsl(322, 74%, 44%)" fill-opacity="0.98" stroke="none" stroke-width="5.22"  transform="translate(57.5 49.6) rotate(33.4) scale(0.69 1.17)" />
<path d="M 53.5 92.9 C 34.9 82.2, 81.9 99.5, 93.1 93.8 C 98.9 85.8, 41.6 92.1, 54.3 98.3 C 41.0 99.5, 48.0 37.9, 56.5 43.0 C 69.2 45.6, 0.4 72.0, 11.7 75.8 C 27.8 84.6, 79.3 64.9, 87.5 74.1 C 83.1 72.1, 84.3 74.2, 88.6 73.2 Z" fill="hsl(86, 72%, 68%)" fill-opacity="0.52" stroke="none" stroke-width="1.62"  transform="translate(72.3 51.8) rotate(152.2) scale(1.60 1.41)" />
<rect x="48.7" y="15.6" width="35.7" height="38.0" rx="0" fill="none" fill-opacity="0.87"   transform="translate(69.2 84.5) rotate(37.8) scale(1.25 1.64)" />
<rect x="12.1" y="31.5" width="43.3" height="19.0" rx="1.3" fill="none" fill-opacity="0.54"   transform="translate(18.0 57.6) rotate(142.8) scale(1.74 1.51)" />
<path d="M 33.2 48.2 C 26.9 61.8, 44.4 59.6, 30.3 55.5 C 44.3 49.3, 68.5 16.7, 72.6 10.9 C 67.8 5.2, 0.0 46.2, 4.8 55.4 C 8.0 65.6, 77.5 25.0, 90.5 26.9 C 100.0 42.4, 89.5 20.6, 86.5 33.7 C 95.4 33.2, 98.1 40.6, 85.4 26.1 C 71.8 35.8, 32.7 95.3, 46.5 99.5 " fill="hsl(106, 75%, 59%)" fill-opacity="0.98" stroke="none" stroke-width="1.80"  transform="translate(32.0 16.5) rotate(109.6) scale(1.91 0.94)" />
<path d="M 49.6 61.7 C 31.5 57.3, 82.6 49.7, 83.6 59.8 C 94.7 47.0, 56.6 64.8, 41.8 54.0 C 47.9 48.8, 98.2 75.5, 93.7 79.3 C 100.0 61.4, 0.0 78.9, 4.3 66.3 C 22.5 73.3, 78.8 10.5, 69.7 16.9 C 61.6 32.3, 32.8 30.7, 21.8 38.4 C 31.3 53.4, 97.3 18.3, 90.0 24.0 C 87.1 38.1, 71.8 16.0, 84.8 2.9 Z" fill="hsl(106, 75%, 59%)" fill-opacity="0.85" stroke="none" stroke-width="1.50"  transform="translate(25.2 74.6) rotate(240.9) scale(1.46 0.57)" />
<circle cx="94.6" cy="99.8" r="1.4" fill="url(#g2)" fill-opacity="0.63"  transform="translate(38.5 33.9) rotate(107.9) scale(1.25 1.42)" />
<path d="M 69.8 58.4 C 72.9 60.8, 74.7 67.6, 76.5 59.9 C 88.6 43.4, 5.0 85.9, 0.2 97.9 C 8.4 91.6, 0.0 81.3, 5.3 66.6 C 0.0 52.7, 11.4 14.9, 9.6 25.9 C 20.1 33.4, 100.0 71.6, 96.9 84.4 C 100.0 85.6, 88.5 65.9, 84.5 68.6 C 78.0 77.3, 87.8 16.5, 96.7 4.9 C 87.5 17.6, 4.9 70.8, 7.1 80.4 C 0.0 80.8, 27.4 69.6, 23.8 77.3 " fill="none" fill-opacity="0.95" stroke="hsl(151, 70%, 62%)" stroke-width="1.04"  transform="translate(86.5 89.6) rotate(244.7) scale(1.14 0.84)" />
<path d="M 8.8 13.2 C 13.3 24.5, 27.4 18.3, 37.1 28.4 C 43.1 42.1, 0.0 51.9, 7.5 37.2 C 2.8 53.6, 47.9 58.0, 62.3 44.5 C 55.4 40.4, 51.1 93.6, 65.7 88.3 C 54.5 95.2, 47.4 87.3, 49.7 89.9 C 35.0 74.0, 0.0 13.7, 7.9 2.7 C 6.2 0.0, 31.2 16.6, 43.1 31.6 C 39.2 42.5, 51.6 0.0, 53.9 4.3 C 41.7 3.8, 28.8 31.1, 25.0 18.7 C 9.6 9.1, 84.5 45.9, 77.0 50.0 Z" fill="none" fill-opacity="0.34" stroke="hsl(2, 82%, 55%)" stroke-width="1.99"  transform="translate(91.7 35.5) rotate(318.1) scale(1.47 1.67)" />
<path d="M 49.8 7.0 C 39.2 0.0, 11.9 6.3, 20.5 9.7 C 36.9 0.0, 80.7 3.2, 67.4 4.8 C 75.4 0.0, 0.0 38.2, 2.3 43.4 C 0.0 31.4, 2.6 12.4, 15.5 3.7 C 25.4 8.3, 18.5 90.8, 6.0 78.8 C 0.0 60.3, 33.5 9.6, 40.3 21.4 Z" fill="hsl(290, 83%, 63%)" fill-opacity="0.75" stroke="none" stroke-width="4.45"  transform="translate(92.2 70.9) rotate(357.1) scale(1.09 1.38)" />
<rect x="12.5" y="17.5" width="47.8" height="12.4" rx="2.0" fill="hsl(40, 53%, 69%)" fill-opacity="0.39" stroke="hsl(40, 53%, 69%)" stroke-width="2.5"  transform="translate(85.6 49.3) rotate(83.4) scale(1.17 1.92)" />
<rect x="10.4" y="3.5" width="28.5" height="34.0" rx="0" fill="hsl(106, 75%, 59%)" fill-opacity="0.67" stroke="hsl(183, 71%, 60%)" stroke-width="2.4"  transform="translate(42.5 60.8) rotate(208.4) scale(0.65 1.71)" />
<path d="M 63.4 21.7 C 70.4 34.8, 34.7 36.5, 42.1 46.9 C 42.9 32.0, 70.6 15.3, 73.5 14.6 C 77.5 1.6, 34.6 32.6, 35.7 38.7 C 41.8 24.6, 33.5 38.6, 34.1 48.6 C 22.2 64.4, 100.0 30.6, 94.7 39.8 C 98.6 55.3, 31.1 94.6, 19.3 85.8 C 26.1 90.4, 87.1 55.7, 99.9 64.1 C 100.0 77.0, 24.8 70.6, 25.0 58.2 C 37.7 57.1, 7.1 47.1, 21.3 52.1 C 5.0 65.5, 98.7 17.1, 92.0 17.7 Z" fill="hsl(83, 65%, 44%)" fill-opacity="0.74" stroke="none" stroke-width="1.83"  transform="translate(75.9 24.0) rotate(20.6) scale(1.46 1.23)" />
<path d="M 5.9 58.1 C 24.4 45.3, 0.0 11.4, 4.1 8.1 C 23.1 0.0, 63.2 41.6, 77.2 29.4 C 61.2 40.2, 35.2 84.4, 38.1 93.1 C 50.0 79.8, 75.4 43.7, 82.3 32.2 C 64.9 33.0, 2.0 85.7, 6.6 79.1 C 17.5 96.7, 37.8 16.7, 47.1 13.4 C 55.8 24.5, 83.0 31.4, 94.0 31.7 C 100.0 12.4, 27.9 98.2, 24.9 94.5 C 12.5 100.0, 17.2 47.8, 28.0 48.1 C 45.3 43.1, 42.2 64.5, 31.4 76.7 Z" fill="hsl(104, 72%, 65%)" fill-opacity="0.33" stroke="none" stroke-width="4.73"  transform="translate(79.7 21.0) rotate(36.8) scale(1.77 1.01)" />
<path d="M 47.9 50.6 C 66.3 52.7, 71.0 61.9, 81.7 50.2 C 77.1 39.9, 84.4 38.2, 85.4 25.8 C 73.9 30.0, 74.7 38.0, 66.2 35.4 C 54.2 47.2, 100.0 49.1, 97.2 56.6 C 95.5 51.4, 16.3 99.2, 22.3 86.5 C 14.0 88.0, 67.3 60.8, 62.9 62.0 C 79.5 50.9, 45.5 64.2, 58.7 72.8 Z" fill="hsl(290, 83%, 63%)" fill-opacity="0.27" stroke="none" stroke-width="4.67"  transform="translate(6.6 36.5) rotate(201.9) scale(1.31 0.61)" />
<circle cx="65.6" cy="56.4" r="2.0" fill="hsl(106, 75%, 59%)" fill-opacity="0.63" filter="url(#f1)" transform="translate(14.5 25.4) rotate(297.4) scale(1.76 0.54)" />
<path d="M 83.0 67.0 C 68.4 73.3, 47.3 53.7, 59.0 40.3 C 50.5 26.0, 97.3 68.0, 85.4 61.2 C 76.5 77.9, 0.0 95.9, 6.7 88.7 C 2.6 100.0, 80.3 33.6, 90.0 22.0 C 100.0 17.8, 32.3 52.2, 31.4 60.7 C 44.3 57.6, 40.0 16.3, 54.6 19.7 Z" fill="hsl(183, 71%, 60%)" fill-opacity="0.85" stroke="none" stroke-width="1.67"  transform="translate(57.9 49.6) rotate(138.4) scale(1.53 1.98)" />
<path d="M 97.4 89.9 C 100.0 100.0, 91.3 30.9, 91.4 43.4 C 75.0 55.6, 23.8 31.8, 8.8 29.2 C 24.9 9.2, 44.3 61.5, 40.8 49.8 C 29.0 55.2, 67.6 91.3, 53.5 85.3 C 68.9 73.1, 43.4 12.0, 34.0 7.3 C 53.5 7.6, 35.5 66.8, 50.1 78.5 C 39.1 72.1, 60.0 15.1, 67.2 20.1 C 68.1 1.9, 27.3 49.5, 27.6 63.3 Z" fill="none" fill-opacity="0.91" stroke="hsl(2, 82%, 55%)" stroke-width="5.29"  transform="translate(67.1 48.1) rotate(188.2) scale(1.76 1.81)" />
<path d="M 36.2 87.3 C 48.7 100.0, 95.6 91.0, 98.3 82.5 C 88.9 73.7, 0.0 15.0, 10.4 20.6 C 0.0 1.5, 91.6 89.0, 96.6 74.2 C 91.9 55.5, 98.5 68.4, 95.9 58.9 C 100.0 72.9, 61.2 13.9, 47.1 27.3 C 44.8 11.4, 99.9 0.0, 97.6 9.3 C 87.6 0.0, 98.7 2.5, 99.4 15.3 C 96.7 19.6, 54.2 83.1, 68.5 87.2 C 69.5 81.7, 50.5 45.7, 48.1 47.6 Z" fill="none" fill-opacity="0.61" stroke="hsl(2, 82%, 55%)" stroke-width="4.39" filter="url(#f1)" transform="translate(23.8 57.9) rotate(95.9) scale(0.85 0.73)" />
<rect x="39.5" y="21.7" width="44.8" height="36.9" rx="18.1" fill="hsl(183, 71%, 60%)" fill-opacity="0.78" stroke="hsl(322, 74%, 44%)" stroke-width="3.7"  transform="translate(59.1 18.2) rotate(141.5) scale(0.70 1.50)" />
<path d="M 47.4 40.0 C 63.5 45.9, 18.8 96.2, 20.1 89.6 C 38.9 77.6, 23.0 45.3, 17.9 55.1 C 0.9 35.5, 18.0 54.3, 6.8 60.8 C 3.5 58.9, 73.7 25.9, 79.9 24.4 C 91.3 19.5, 15.6 75.9, 22.1 86.7 C 2.8 99.8, 15.8 33.7, 20.2 27.4 C 37.5 30.5, 84.0 2.4, 77.1 3.1 C 61.1 8.0, 100.0 0.0, 92.1 3.0 C 100.0 0.0, 47.0 42.6, 57.2 55.5 Z" fill="hsl(290, 83%, 63%)" fill-opacity="0.56" stroke="none" stroke-width="1.58"  transform="translate(20.2 3.2) rotate(130.4) scale(1.35 1.59)" />
<path d="M 71.7 34.8 C 72.5 33.5, 0.0 0.0, 7.3 13.6 C 20.5 22.6, 36.8 60.2, 48.2 69.0 C 40.3 62.0, 9.3 3.5, 16.2 6.5 C 8.5 14.8, 86.8 55.1, 92.8 54.0 C 100.0 44.7, 0.0 16.7, 1.4 11.2 C 11.3 6.5, 56.8 75.7, 70.0 77.4 C 64.2 95.7, 62.1 24.1, 68.2 27.9 Z" fill="none" fill-opacity="0.63" stroke="hsl(151, 70%, 62%)" stroke-width="2.17"  transform="translate(50.2 39.3) rotate(90.9) scale(0.80 1.24)" />
<circle cx="36.3" cy="52.0" r="18.4" fill="hsl(144, 86%, 72%)" fill-opacity="0.64"  transform="translate(36.4 23.7) rotate(325.7) scale(1.05 1.69)" />
<rect x="40.9" y="40.0" width="29.7" height="23.5" rx="6.5" fill="none" fill-opacity="0.27"   transform="translate(60.9 47.4) rotate(348.8) scale(0.76 1.35)" />
<path d="M 28.6 16.5 C 23.9 7.3, 50.4 5.6, 61.3 2.4 C 63.8 0.0, 81.0 43.1, 82.2 37.8 C 84.9 27.1, 98.3 89.0, 96.9 80.1 C 97.6 85.2, 32.4 57.9, 36.4 47.2 C 52.1 52.4, 59.7 69.6, 61.0 68.1 C 79.0 52.9, 100.0 62.7, 94.3 67.1 Z" fill="hsl(242, 72%, 49%)" fill-opacity="0.56" stroke="none" stroke-width="2.69"   />
<rect x="21.5" y="52.9" width="23.9" height="38.1" rx="12.5" fill="none" fill-opacity="0.37"   transform="translate(6.9 76.5) rotate(297.2) scale(1.97 0.94)" />
<circle cx="33.0" cy="69.3" r="1.9" fill="url(#g1)" fill-opacity="0.41"  transform="translate(67.1 28.8) rotate(234.4) scale(0.98 0.91)" />
<rect x="68.4" y="60.0" width="21.9" height="22.9" rx="0" fill="none" fill-opacity="0.92"   transform="translate(88.3 17.0) rotate(224.9) scale(0.82 1.90)" />
<path d="M 99.8 79.5 C 92.7 87.3, 0.0 54.9, 9.9 42.4 C 21.8 28.0, 0.9 23.0, 12.8 26.8 C 24.8 24.0, 39.6 69.8, 41.4 54.9 C 22.7 58.4, 4.4 20.9, 4.3 33.7 C 0.0 40.9, 78.6 32.2, 82.6 19.1 C 87.1 37.5, 35.1 82.0, 39.2 68.7 Z" fill="hsl(106, 75%, 59%)" fill-opacity="0.86" stroke="none" stroke-width="0.93" filter="url(#f1)" transform="translate(73.5 9.8) rotate(195.5) scale(1.85 1.25)" />
<rect x="4.7" y="54.5" width="30.0" height="29.4" rx="4.2" fill="none" fill-opacity="0.43"   transform="translate(18.8 76.2) rotate(201.8) scale(1.24 1.42)" />
<path d="M 70.5 93.9 C 74.0 93.2, 39.8 93.3, 27.1 82.1 C 25.8 63.1, 70.2 47.5, 81.5 47.8 C 70.0 28.7, 51.7 41.0, 39.4 27.3 C 28.5 35.8, 42.4 83.3, 34.7 89.5 C 29.2 87.5, 55.6 56.1, 60.7 44.5 C 70.3 30.6, 28.6 88.0, 43.0 85.6 C 59.7 76.4, 0.2 70.5, 0.8 81.5 " fill="hsl(83, 65%, 44%)" fill-opacity="0.93" stroke="none" stroke-width="4.35"  transform="translate(38.4 33.0) rotate(346.9) scale(0.56 0.89)" />
<path d="M 78.6 8.1 C 78.4 0.0, 87.0 61.0, 82.8 48.0 C 87.2 58.5, 26.4 95.6, 16.5 96.4 C 23.5 77.1, 66.8 92.8, 54.6 80.7 C 61.4 63.5, 74.6 73.6, 72.7 72.8 C 58.8 57.4, 54.7 0.0, 52.4 1.3 C 53.9 0.0, 8.1 63.3, 12.7 77.8 Z" fill="none" fill-opacity="0.63" stroke="hsl(322, 74%, 44%)" stroke-width="4.70"  transform="translate(47.4 92.2) rotate(310.0) scale(1.51 1.21)" />
<path d="M 65.5 42.0 C 80.5 23.0, 96.5 51.2, 81.8 44.2 C 96.6 58.2, 86.1 59.7, 92.3 67.0 C 100.0 67.5, 12.2 22.7, 8.8 27.9 C 0.0 22.0, 91.4 24.6, 76.5 15.7 C 68.2 19.8, 83.3 38.7, 86.7 32.4 C 100.0 28.0, 88.1 43.8, 95.4 31.0 C 100.0 30.9, 48.0 21.0, 47.1 15.9 C 54.0 17.5, 14.0 39.4, 4.2 46.5 C 13.8 56.1, 21.8 28.2, 25.7 40.0 C 9.8 46.2, 95.3 44.8, 81.2 35.2 Z" fill="none" fill-opacity="0.39" stroke="hsl(40, 53%, 69%)" stroke-width="1.56" filter="url(#f1)" transform="translate(40.5 80.3) rotate(330.8) scale(0.68 1.41)" />
<circle cx="19.8" cy="89.3" r="0.7" fill="hsl(2, 82%, 55%)" fill-opacity="0.53"  transform="translate(86.4 22.4) rotate(127.1) scale(1.07 0.82)" />
<path d="M 27.3 75.2 C 32.9 61.8, 15.4 59.8, 13.4 68.1 C 4.6 62.8, 8.8 37.6, 21.1 47.7 C 39.6 59.9, 72.7 81.8, 78.8 91.5 C 85.1 71.7, 56.5 67.0, 59.6 58.5 C 62.8 77.0, 51.4 19.4, 40.9 23.3 C 41.1 5.7, 21.4 66.9, 34.1 74.0 Z" fill="hsl(106, 75%, 59%)" fill-opacity="0.56" stroke="none" stroke-width="3.37"  transform="translate(13.6 81.0) rotate(38.8) scale(1.63 1.63)" />
<circle cx="95.3" cy="11.5" r="11.9" fill="hsl(40, 53%, 69%)" fill-opacity="0.71"   />
<path d="M 28.4 74.3 C 24.4 71.5, 29.6 0.0, 20.1 11.5 C 3.1 0.0, 65.4 63.4, 62.5 77.0 C 82.3 96.4, 52.9 81.3, 52.4 89.8 C 71.2 91.6, 64.7 93.1, 69.8 85.6 C 60.9 100.0, 65.1 20.1, 52.7 31.8 C 51.1 27.3, 50.3 46.4, 39.0 41.0 C 57.9 48.8, 9.1 22.2, 4.3 23.4 Z" fill="hsl(242, 72%, 49%)" fill-opacity="0.79" stroke="none" stroke-width="2.89"  transform="translate(86.9 88.1) rotate(124.2) scale(1.62 1.65)" />
<rect x="55.6" y="10.4" width="38.0" height="29.6" rx="19.4" fill="none" fill-opacity="0.20" stroke="hsl(144, 86%, 72%)" stroke-width="2.5"  transform="translate(63.6 62.7) rotate(42.8) scale(0.56 0.59)" />
<path d="M 9.8 73.1 C 2.0 91.1, 71.8 66.2, 69.1 73.2 C 67.1 84.8, 100.0 21.5, 94.3 11.9 C 74.4 0.0, 26.7 25.0, 32.5 10.8 C 18.1 18.5, 45.0 21.3, 33.6 26.0 C 35.6 38.7, 56.7 64.7, 63.8 64.3 C 68.3 57.3, 29.7 0.0, 27.4 5.9 C 22.8 0.0, 63.9 3.9, 57.5 17.1 C 63.5 22.1, 99.1 28.5, 98.6 42.8 C 80.9 35.8, 70.4 14.4, 58.3 7.6 Z" fill="none" fill-opacity="0.30" stroke="hsl(106, 75%, 59%)" stroke-width="3.98"  transform="translate(90.8 91.3) rotate(285.2) scale(1.96 1.42)" />
<path d="M 32.4 52.7 C 36.7 39.1, 22.8 83.6, 24.7 74.7 C 25.9 91.7, 95.6 73.4, 87.2 78.6 C 75.3 96.1, 11.1 0.0, 7.0 11.3 C 26.6 0.0, 16.1 25.6, 4.6 12.2 C 0.0 8.1, 90.7 70.8, 95.5 75.4 C 85.5 61.2, 84.3 38.6, 73.5 38.1 C 65.8 24.1, 63.5 41.5, 69.6 28.4 C 67.7 35.1, 29.1 100.0, 18.9 98.3 C 24.3 100.0, 76.4 88.5, 73.8 97.6 Z" fill="hsl(40, 53%, 69%)" fill-opacity="0.54" stroke="none" stroke-width="3.33"  transform="translate(9.8 10.7) rotate(94.2) scale(1.62 1.66)" />
<path d="M 70.6 22.7 C 86.0 15.5, 63.5 20.1, 56.1 25.2 C 46.6 30.9, 34.8 66.1, 25.1 76.5 C 9.8 76.9, 84.6 100.0, 96.3 98.9 C 100.0 100.0, 47.3 84.9, 58.7 97.3 C 53.2 92.9, 84.4 66.5, 78.1 80.5 C 87.1 62.6, 52.0 60.2, 49.6 68.4 C 46.6 85.6, 20.9 98.7, 26.1 96.7 Z" fill="none" fill-opacity="0.64" stroke="hsl(322, 74%, 44%)" stroke-width="1.62"  transform="translate(70.4 99.8) rotate(250.8) scale(0.92 1.16)" />
<path d="M 80.5 75.2 C 88.3 56.1, 22.1 61.3, 29.4 76.1 C 30.2 74.8, 36.1 29.9, 42.2 19.6 C 40.6 27.5, 22.0 70.0, 17.3 74.5 C 4.5 70.1, 40.4 75.3, 28.8 66.2 C 45.3 56.4, 19.2 14.5, 32.9 24.4 C 16.7 26.5, 47.4 34.6, 54.5 27.8 C 68.8 24.5, 8.0 72.6, 15.3 84.5 C 24.4 91.5, 5.4 10.2, 20.4 24.3 Z" fill="none" fill-opacity="0.88" stroke="hsl(151, 70%, 62%)" stroke-width="1.47"   />
<circle cx="98.3" cy="15.0" r="4.2" fill="url(#g2)" fill-opacity="0.64" filter="url(#f1)" transform="translate(28.6 95.9) rotate(222.2) scale(1.34 1.99)" />
<path d="M 32.6 61.6 C 45.1 62.7, 6.2 70.7, 8.8 83.6 C 0.0 82.9, 39.2 49.0, 45.3 35.4 C 34.5 48.9, 100.0 49.1, 99.6 43.5 C 100.0 24.7, 70.6 86.3, 82.8 84.5 C 91.6 84.2, 23.9 77.9, 21.5 87.4 C 25.1 72.3, 45.5 41.4, 58.5 40.2 C 47.8 48.5, 7.3 27.9, 7.2 34.9 C 0.0 29.5, 6.6 31.9, 10.2 18.4 C 20.4 30.8, 42.5 8.2, 35.6 9.1 " fill="hsl(242, 72%, 49%)" fill-opacity="0.74" stroke="none" stroke-width="3.68"  transform="translate(94.5 6.1) rotate(146.0) scale(0.83 1.90)" />
<circle cx="4.9" cy="43.7" r="11.9" fill="url(#g1)" fill-opacity="0.96"  transform="translate(67.6 35.8) rotate(211.7) scale(0.97 1.90)" />
<path d="M 98.4 12.5 C 100.0 20.6, 74.1 14.5, 59.2 17.5 C 50.3 6.2, 14.0 51.2, 8.1 50.7 C 0.0 49.9, 80.3 40.4, 85.7 52.9 C 100.0 39.5, 51.8 49.6, 57.2 52.0 C 60.2 58.4, 64.0 5.5, 49.5 14.1 C 29.7 30.8, 13.4 63.9, 13.7 52.9 Z" fill="hsl(144, 86%, 72%)" fill-opacity="0.32" stroke="none" stroke-width="1.57"   />
<circle cx="10.2" cy="96.8" r="14.7" fill="hsl(242, 72%, 49%)" fill-opacity="0.50"  transform="translate(17.9 21.2) rotate(216.9) scale(0.96 1.67)" />
<circle cx="54.6" cy="64.0" r="2.2" fill="url(#g2)" fill-opacity="0.77"  transform="translate(29.9 74.6) rotate(169.7) scale(0.60 0.97)" />
<path d="M 9.1 43.2 C 0.0 31.7, 7.4 27.1, 19.3 38.2 C 25.6 49.8, 83.4 89.2, 91.3 94.6 C 100.0 100.0, 0.0 96.0, 2.2 95.5 C 13.5 95.3, 42.0 90.9, 51.0 79.2 C 64.6 90.7, 75.2 58.8, 80.2 63.7 C 83.8 73.3, 81.2 11.9, 89.2 17.3 C 95.7 1.4, 60.8 25.9, 70.3 25.9 C 65.2 29.3, 15.6 86.3, 24.0 88.9 C 41.5 94.7, 46.1 11.9, 35.6 19.2 Z" fill="hsl(242, 72%, 49%)" fill-opacity="0.70" stroke="none" stroke-width="1.56"  transform="translate(63.4 78.1) rotate(296.9) scale(1.89 0.61)" />
<path d="M 1.1 39.3 C 0.0 23.8, 48.4 57.0, 38.7 70.4 C 26.6 52.7, 15.3 61.1, 23.7 75.8 C 27.4 73.2, 66.7 53.5, 74.2 39.5 C 86.9 28.1, 62.9 97.7, 50.8 90.9 C 41.6 76.7, 94.8 87.7, 94.4 91.0 C 78.4 100.0, 47.1 7.8, 57.5 20.4 C 75.8 31.6, 10.5 27.2, 14.2 21.8 C 2.8 19.0, 30.6 63.7, 44.5 69.4 C 57.6 77.8, 65.9 4.3, 58.2 3.3 " fill="none" fill-opacity="0.71" stroke="hsl(104, 72%, 65%)" stroke-width="5.22"  transform="translate(46.0 21.5) rotate(109.1) scale(1.95 1.57)" />
<circle cx="89.7" cy="35.4" r="16.4" fill="hsl(104, 72%, 65%)" fill-opacity="0.46"  transform="translate(79.7 73.6) rotate(275.7) scale(1.60 1.40)" />
<path d="M 9.1 66.7 C 22.9 84.9, 34.6 73.6, 23.2 66.3 C 10.8 62.8, 69.6 17.0, 72.2 6.9 C 77.6 0.0, 41.9 59.2, 33.2 51.6 C 26.5 70.1, 54.0 60.0, 55.3 65.0 C 60.0 69.0, 17.8 13.0, 7.2 7.9 C 0.0 7.7, 0.0 97.1, 7.9 94.3 C 1.3 100.0, 0.0 41.2, 4.3 32.5 C 1.4 34.1, 55.9 32.9, 43.1 30.3 C 60.9 11.8, 64.0 87.5, 56.4 80.5 " fill="none" fill-opacity="0.46" stroke="hsl(86, 72%, 68%)" stroke-width="5.18"  transform="translate(32.7 78.2) rotate(72.7) scale(0.74 1.79)" />
<path d="M 40.1 23.6 C 34.1 20.2, 84.3 53.0, 96.0 49.9 C 92.8 63.3, 29.5 67.6, 17.7 77.4 C 29.6 72.8, 8.6 92.0, 13.1 92.0 C 29.2 100.0, 26.7 35.7, 22.5 42.6 C 33.2 24.6, 73.3 47.7, 69.1 55.9 C 88.0 68.0, 31.6 83.3, 37.9 72.4 C 27.9 83.4, 0.0 15.2, 5.0 12.3 C 10.3 26.5, 0.0 23.7, 5.9 21.8 C 13.4 19.4, 44.8 62.2, 58.5 53.7 Z" fill="hsl(2, 82%, 55%)" fill-opacity="0.79" stroke="none" stroke-width="3.28"  transform="translate(56.9 36.0) rotate(10.9) scale(0.50 1.10)" />
<path d="M 78.2 67.7 C 93.5 51.6, 92.3 34.7, 90.3 34.2 C 91.2 31.2, 22.0 78.5, 18.4 86.0 C 19.6 70.9, 86.5 20.3, 91.9 11.8 C 79.2 21.1, 83.5 71.6, 86.8 72.2 C 100.0 68.3, 62.9 98.6, 71.2 93.8 C 78.6 100.0, 72.7 46.5, 58.6 51.9 C 42.5 57.2, 74.0 56.3, 76.6 68.2 C 70.5 88.2, 46.8 27.4, 55.7 30.0 C 70.9 27.8, 63.1 84.0, 64.0 81.1 Z" fill="none" fill-opacity="0.73" stroke="hsl(322, 74%, 44%)" stroke-width="4.41" filter="url(#f1)" transform="translate(59.6 71.2) rotate(291.8) scale(1.50 0.51)" />
<path d="M 97.9 61.6 C 85.3 69.3, 37.6 100.0, 26.8 96.2 C 22.2 100.0, 36.2 67.8, 46.7 61.7 C 32.9 50.4, 65.8 30.6, 62.9 45.4 C 51.5 60.1, 51.9 34.7, 62.1 49.6 C 58.6 43.6, 45.7 44.2, 59.2 58.1 C 72.1 66.4, 29.9 51.9, 26.3 64.2 C 22.2 70.2, 61.1 18.1, 62.0 21.8 C 65.8 22.5, 74.8 39.6, 63.2 26.4 C 71.7 20.9, 62.5 92.3, 50.6 99.6 C 32.9 100.0, 29.6 93.0, 30.6 85.0 Z" fill="none" fill-opacity="0.83" stroke="hsl(40, 53%, 69%)" stroke-width="2.05"  transform="translate(4.4 79.0) rotate(200.4) scale(1.35 1.53)" />
<circle cx="30.0" cy="17.6" r="16.3" fill="url(#g2)" fill-opacity="0.65"  transform="translate(87.8 43.2) rotate(12.9) scale(1.51 1.56)" />
<path d="M 19.8 33.7 C 31.4 35.0, 70.5 64.6, 58.6 76.5 C 45.3 79.9, 97.9 11.6, 91.0 17.1 C 94.8 22.0, 0.0 94.5, 1.4 89.5 C 0.0 97.3, 50.8 41.8, 55.7 50.2 C 47.0 32.5, 33.5 54.3, 42.2 49.7 C 50.9 67.0, 30.2 37.4, 36.5 47.2 C 51.9 41.0, 67.5 61.9, 74.2 55.4 Z" fill="none" fill-opacity="0.76" stroke="hsl(86, 72%, 68%)" stroke-width="2.73"  transform="translate(58.5 38.8) rotate(305.2) scale(1.04 1.28)" />
<circle cx="47.3" cy="14.2" r="7.0" fill="hsl(40, 53%, 69%)" fill-opacity="0.72"  transform="translate(40.0 17.1) rotate(15.5) scale(1.49 0.84)" />
<path d="M 89.3 8.3 C 100.0 22.3, 23.4 15.3, 28.2 28.0 C 38.5 22.3, 58.2 99.4, 63.2 85.6 C 78.3 70.0, 5.8 71.9, 11.5 86.8 C 0.0 99.2, 36.7 0.0, 43.4 7.5 C 31.6 20.7, 56.9 71.3, 46.6 80.0 C 47.2 76.3, 20.3 78.1, 20.6 92.0 C 13.5 95.5, 32.7 55.8, 38.1 63.8 C 23.4 47.2, 66.3 78.5, 73.0 79.6 Z" fill="hsl(242, 72%, 49%)" fill-opacity="0.35" stroke="none" stroke-width="4.15"  transform="translate(71.5 29.3) rotate(246.8) scale(1.11 0.73)" />
<path d="M 85.8 7.5 C 83.7 1.0, 17.2 57.7, 31.2 69.6 C 48.7 50.3, 16.9 81.3, 22.7 96.0 C 31.8 100.0, 0.0 79.4, 3.7 81.2 C 0.0 90.2, 79.7 69.4, 89.1 76.6 C 100.0 74.5, 4.6 12.1, 8.7 16.6 C 0.0 16.8, 100.0 25.8, 93.5 29.5 Z" fill="hsl(2, 82%, 55%)" fill-opacity="0.89" stroke="none" stroke-width="4.67"  transform="translate(43.5 81.1) rotate(221.4) scale(1.85 0.97)" />
<path d="M 86.7 39.7 C 90.0 46.3, 18.1 92.2, 12.9 92.8 C 22.7 100.0, 29.1 83.2, 24.0 85.0 C 15.2 90.0, 90.7 2.7, 98.0 0.7 C 100.0 0.0, 12.8 47.5, 2.3 40.4 C 0.0 59.6, 95.9 19.8, 94.3 14.6 C 99.3 12.2, 53.1 64.6, 39.0 63.1 C 37.2 64.5, 2.4 21.9, 11.5 27.5 C 27.6 43.7, 58.4 16.9, 46.0 8.5 C 40.4 0.0, 24.1 64.2, 12.4 68.4 Z" fill="hsl(106, 75%, 59%)" fill-opacity="0.42" stroke="none" stroke-width="2.01" filter="url(#f1)" transform="translate(26.4 19.7) rotate(105.4) scale(0.51 1.98)" />
<path d="M 8.8 42.9 C 4.3 26.8, 67.2 0.0, 64.7 2.3 C 55.1 0.0, 80.7 53.4, 72.6 66.0 C 85.7 72.8, 83.6 82.3, 73.7 85.2 C 88.7 82.9, 66.1 8.6, 75.9 16.2 C 91.7 26.2, 100.0 86.7, 97.9 96.0 C 81.7 77.0, 20.2 23.3, 7.6 18.0 C 0.0 0.0, 65.2 65.2, 62.3 60.4 C 45.5 66.7, 30.4 15.2, 21.3 7.4 C 35.0 13.6, 63.9 70.5, 53.1 79.5 Z" fill="none" fill-opacity="0.28" stroke="hsl(242, 72%, 49%)" stroke-width="4.32"   />
<circle cx="77.2" cy="84.8" r="8.3" fill="hsl(2, 82%, 55%)" fill-opacity="0.95"  transform="translate(33.2 61.4) rotate(183.3) scale(1.40 0.63)" />
<path d="M 28.2 98.0 C 45.0 90.2, 65.0 8.2, 76.0 18.4 C 90.2 13.3, 31.9 63.3, 42.0 69.8 C 26.4 72.6, 0.0 39.6, 8.3 24.8 C 0.0 32.3, 57.9 48.0, 52.7 37.9 C 37.6 44.1, 40.0 72.1, 31.8 74.3 C 29.6 65.8, 43.6 34.2, 40.4 21.5 C 57.2 37.6, 62.9 93.1, 56.0 90.0 C 62.3 100.0, 51.2 21.2, 52.9 30.5 Z" fill="none" fill-opacity="0.48" stroke="hsl(2, 82%, 55%)" stroke-width="0.90"  transform="translate(16.1 45.0) rotate(238.1) scale(1.90 1.62)" />
<path d="M 76.7 79.0 C 76.4 80.4, 46.0 54.8, 49.0 66.7 C 39.1 60.1, 22.7 52.1, 28.9 62.3 C 31.3 70.5, 0.0 98.0, 1.0 92.3 C 13.1 88.8, 0.0 75.3, 3.6 79.5 C 22.7 70.4, 41.7 88.7, 55.1 76.2 C 63.8 76.0, 82.6 100.0, 94.4 97.2 C 89.1 84.5, 54.9 26.9, 67.4 19.9 Z" fill="hsl(2, 82%, 55%)" fill-opacity="0.92" stroke="none" stroke-width="1.11"  transform="translate(62.2 11.0) rotate(70.2) scale(1.35 1.06)" />
<path d="M 95.5 41.9 C 100.0 37.7, 30.0 21.9, 33.3 21.2 C 25.9 7.9, 24.1 27.3, 14.6 19.2 C 0.0 37.8, 40.7 98.0, 35.6 89.6 C 43.7 81.0, 92.4 48.7, 79.4 45.9 C 93.0 28.4, 28.6 77.2, 35.2 75.7 C 35.9 93.9, 56.8 58.5, 71.6 68.5 C 62.4 56.5, 36.8 45.0, 44.9 38.7 C 51.1 28.8, 30.9 44.7, 19.5 38.3 C 14.7 38.9, 100.0 15.5, 96.4 5.8 Z" fill="none" fill-opacity="0.39" stroke="hsl(104, 72%, 65%)" stroke-width="2.00" filter="url(#f1)" transform="translate(50.7 7.8) rotate(232.6) scale(1.15 1.06)" />
<circle cx="78.5" cy="34.1" r="1.2" fill="hsl(151, 70%, 62%)" fill-opacity="0.95"  transform="translate(68.5 51.4) rotate(274.1) scale(1.39 0.96)" />
<path d="M 89.4 66.3 C 73.5 50.8, 59.9 45.7, 73.7 32.2 C 61.9 36.9, 40.7 36.4, 48.9 39.6 C 33.9 55.3, 18.0 29.7, 21.1 26.9 C 39.6 36.9, 30.8 0.0, 24.6 2.2 C 19.5 10.5, 31.8 55.3, 33.5 54.8 C 32.2 50.6, 86.1 40.5, 96.4 51.0 C 88.2 58.1, 21.4 0.0, 18.0 1.9 C 0.2 21.2, 49.9 26.9, 54.9 14.9 C 63.7 32.7, 21.3 67.3, 24.0 56.4 Z" fill="hsl(290, 83%, 63%)" fill-opacity="0.72" stroke="none" stroke-width="4.40"  transform="translate(23.8 60.1) rotate(18.9) scale(0.75 1.84)" />
<path d="M 91.0 20.4 C 80.3 18.1, 73.0 11.8, 79.5 12.4 C 71.6 5.6, 46.0 100.0, 34.5 94.0 C 45.3 100.0, 78.1 90.8, 73.5 98.5 C 85.3 83.8, 78.4 47.3, 77.7 48.7 C 78.1 44.8, 30.7 87.8, 34.2 97.0 C 47.2 82.1, 37.3 94.8, 37.7 82.5 C 39.7 84.8, 50.3 45.0, 46.6 57.7 C 51.2 64.0, 18.0 39.1, 12.8 42.3 C 25.9 27.9, 85.3 40.0, 84.6 25.8 Z" fill="hsl(151, 70%, 62%)" fill-opacity="0.60" stroke="none" stroke-width="1.28"  transform="translate(44.0 13.5) rotate(354.2) scale(1.57 1.76)" />
<rect x="50.0" y="50.0" width="45.7" height="18.8" rx="17.5" fill="hsl(144, 86%, 72%)" fill-opacity="0.60" stroke="hsl(151, 70%, 62%)" stroke-width="4.2"  transform="translate(56.2 82.0) rotate(44.4) scale(1.59 1.68)" />
<circle cx="19.8" cy="27.5" r="2.8" fill="hsl(86, 72%, 68%)" fill-opacity="0.62"  transform="translate(23.4 75.5) rotate(2.0) scale(1.24 1.71)" />
<rect x="35.0" y="35.9" width="43.3" height="23.8" rx="0" fill="none" fill-opacity="0.36"   transform="translate(16.3 8.5) rotate(331.6) scale(0.78 1.52)" />
<path d="M 52.6 47.5 C 48.1 28.0, 97.4 54.7, 95.9 68.2 C 99.9 48.7, 85.6 0.0, 91.3 10.6 C 90.1 6.0, 100.0 0.9, 99.8 1.9 C 100.0 9.5, 0.0 24.2, 0.3 14.8 C 0.0 31.9, 24.8 66.7, 12.7 63.8 C 21.7 55.1, 38.7 27.5, 31.9 19.0 C 27.0 35.7, 50.4 11.3, 52.5 19.7 C 63.7 19.9, 31.8 7.7, 27.2 15.4 Z" fill="none" fill-opacity="0.58" stroke="hsl(183, 71%, 60%)" stroke-width="4.55"   />
<path d="M 15.0 26.4 C 12.7 23.6, 16.8 54.6, 6.6 61.2 C 16.1 60.2, 90.6 39.2, 85.3 53.9 C 99.0 45.9, 8.1 11.6, 20.8 17.1 C 40.7 34.9, 60.4 50.4, 61.0 61.6 C 71.1 80.1, 20.2 29.0, 8.6 32.9 C 3.3 42.1, 83.4 100.0, 86.7 97.3 C 91.9 98.5, 24.3 70.6, 28.0 79.6 C 27.2 70.5, 0.0 10.2, 1.2 7.8 Z" fill="none" fill-opacity="0.94" stroke="hsl(151, 70%, 62%)" stroke-width="3.97"   />
<rect x="61.9" y="48.4" width="28.0" height="11.8" rx="2.1" fill="hsl(144, 86%, 72%)" fill-opacity="0.65"   transform="translate(78.9 28.7) rotate(33.9) scale(1.35 0.58)" />
<path d="M 39.5 56.4 C 41.8 37.2, 35.7 6.7, 41.5 21.0 C 30.0 29.8, 55.4 22.4, 47.7 9.0 C 58.2 0.0, 5.7 66.8, 12.6 69.4 C 15.3 78.2, 13.5 86.6, 5.7 99.8 C 0.0 100.0, 28.3 34.5, 42.9 28.1 C 51.8 10.8, 75.1 40.6, 89.4 48.3 C 99.7 35.9, 64.1 69.1, 65.2 75.2 C 83.7 76.9, 57.0 91.1, 53.1 90.7 C 44.6 100.0, 3.3 42.6, 12.5 46.5 C 0.0 28.0, 86.2 47.1, 78.0 35.3 Z" fill="hsl(104, 72%, 65%)" fill-opacity="0.89" stroke="none" stroke-width="4.07"  transform="translate(63.2 22.3) rotate(208.3) scale(0.75 1.98)" />
<path d="M 91.1 68.9 C 87.7 62.0, 28.5 5.4, 28.8 19.3 C 43.1 26.8, 25.9 11.4, 17.0 14.4 C 0.0 16.7, 71.5 37.9, 73.9 37.0 C 65.7 30.8, 52.5 98.7, 54.7 99.8 C 64.9 87.7, 45.6 18.0, 35.5 18.2 C 24.3 21.2, 23.1 96.1, 27.0 90.5 C 19.3 72.4, 17.0 100.0, 21.3 90.7 C 15.2 99.7, 100.0 53.1, 98.7 41.1 C 100.0 57.7, 26.9 87.4, 15.5 96.5 Z" fill="none" fill-opacity="0.93" stroke="hsl(144, 86%, 72%)" stroke-width="1.40"  transform="translate(51.2 46.9) rotate(89.4) scale(1.14 1.78)" />
<path d="M 52.2 5.5 C 35.4 0.0, 75.6 76.6, 83.4 83.7 C 77.3 74.7, 78.3 86.8, 64.2 90.1 C 67.3 89.9, 76.4 45.1, 90.7 46.0 C 100.0 54.2, 54.2 22.8, 49.9 9.2 C 41.4 16.9, 56.2 16.4, 53.6 6.1 C 38.0 6.0, 4.8 38.8, 0.7 41.2 C 5.7 27.6, 85.6 71.1, 75.6 57.1 Z" fill="none" fill-opacity="0.53" stroke="hsl(183, 71%, 60%)" stroke-width="1.29"  transform="translate(8.1 51.7) rotate(238.0) scale(1.52 1.47)" />
<path d="M 19.0 26.2 C 25.4 7.1, 49.3 81.2, 51.1 95.1 C 37.9 85.4, 16.7 37.3, 23.5 23.5 C 26.6 20.0, 59.8 56.8, 73.9 48.9 C 71.4 63.3, 34.5 42.7, 21.3 56.1 C 14.3 51.8, 10.9 55.2, 12.6 47.0 C 2.2 38.3, 0.0 21.2, 10.3 7.4 C 15.7 4.3, 65.3 55.6, 65.2 68.0 C 82.6 69.4, 69.1 31.8, 66.5 21.1 " fill="none" fill-opacity="0.61" stroke="hsl(2, 82%, 55%)" stroke-width="3.38"  transform="translate(75.0 58.2) rotate(226.7) scale(1.85 1.80)" />
<rect x="13.9" y="73.7" width="22.7" height="18.9" rx="2.5" fill="none" fill-opacity="0.55"   transform="translate(8.8 6.5) rotate(258.3) scale(1.54 0.64)" />
<path d="M 51.8 35.6 C 57.9 38.1, 74.8 21.1, 69.1 31.6 C 52.5 38.2, 76.7 83.0, 87.6 71.3 C 78.2 75.9, 32.2 21.7, 35.4 12.8 C 36.4 0.0, 30.1 77.5, 39.1 75.2 C 44.1 93.7, 87.6 83.0, 94.5 89.3 C 92.7 100.0, 9.4 10.1, 2.7 23.8 C 0.0 37.7, 50.7 87.6, 45.1 94.9 C 32.6 100.0, 17.9 21.5, 6.4 26.1 C 0.0 11.0, 9.5 86.9, 23.8 73.9 Z" fill="none" fill-opacity="0.59" stroke="hsl(242, 72%, 49%)" stroke-width="1.51"  transform="translate(1.5 91.9) rotate(95.9) scale(1.05 1.98)" />
<path d="M 37.1 90.8 C 23.2 80.5, 4.1 60.5, 5.4 70.7 C 0.0 79.7, 72.7 2.9, 75.9 17.5 C 58.2 11.0, 53.0 65.4, 53.9 72.4 C 39.0 73.1, 4.1 56.3, 5.6 65.4 C 0.0 74.0, 72.1 44.3, 57.2 55.5 C 54.5 68.7, 96.4 8.5, 93.5 18.1 C 81.2 2.9, 78.7 24.2, 86.7 35.5 C 100.0 44.0, 6.6 100.0, 10.0 98.7 C 0.0 100.0, 54.2 17.9, 63.5 11.4 Z" fill="hsl(151, 70%, 62%)" fill-opacity="0.74" stroke="none" stroke-width="4.38"  transform="translate(1.8 64.9) rotate(236.2) scale(0.56 1.69)" />
<rect x="30.7" y="54.5" width="32.3" height="15.8" rx="14.9" fill="none" fill-opacity="0.95" stroke="hsl(290, 83%, 63%)" stroke-width="3.9"  transform="translate(55.9 61.6) rotate(112.2) scale(0.92 1.55)" />
<rect x="4.2" y="74.1" width="39.1" height="11.9" rx="0" fill="none" fill-opacity="0.50"   transform="translate(35.6 5.1) rotate(256.6) scale(1.31 0.96)" />
<path d="M 0.3 73.1 C 9.1 90.3, 0.0 88.7, 5.3 83.5 C 0.0 77.4, 44.2 100.0, 35.4 97.8 C 35.1 100.0, 64.8 28.2, 53.2 41.5 C 60.0 35.1, 30.6 61.7, 22.2 62.9 C 9.1 54.0, 71.7 64.2, 77.7 64.3 C 81.4 70.7, 84.2 100.0, 78.5 98.3 C 94.2 100.0, 33.4 23.4, 44.9 12.2 Z" fill="hsl(144, 86%, 72%)" fill-opacity="0.50" stroke="none" stroke-width="2.18" filter="url(#f1)" transform="translate(26.2 29.5) rotate(264.9) scale(1.36 1.73)" />
<circle cx="99.2" cy="30.9" r="10.0" fill="url(#g0)" fill-opacity="0.97"   />
<g opacity="0.068">
<rect x="0" y="0" width="1" height="100" fill="black" />
<rect x="22" y="0" width="1" height="100" fill="black" />
<rect x="44" y="0" width="1" height="100" fill="black" />
<rect x="66" y="0" width="1" height="100" fill="black" />
<rect x="88" y="0" width="1" height="100" fill="black" />
<rect x="0" y="0" width="100" height="1" fill="black" />
<rect x="0" y="22" width="100" height="1" fill="black" />
<rect x="0" y="44" width="100" height="1" fill="black" />
<rect x="0" y="66" width="100" height="1" fill="black" />
<rect x="0" y="88" width="100" height="1" fill="black" />
</g>

</svg>
