<?xml version="1.0" encoding="UTF-8"?>
<svg xmlns="http://www.w3.org/2000/svg" width="100" height="100" viewBox="0 0 100 100">
<defs>
<linearGradient id="g0" x1="0%" y1="0%" x2="100%" y2="100%">
<stop offset="0.0%" stop-color="hsl(106, 75%, 59%)" />
<stop offset="33.3%" stop-color="hsl(183, 71%, 60%)" />
<stop offset="66.7%" stop-color="hsl(242, 72%, 49%)" />
<stop offset="100.0%" stop-color="hsl(322, 74%, 44%)" />
</linearGradient>
<linearGradient id="g1" x1="0%" y1="0%" x2="100%" y2="100%">
<stop offset="0.0%" stop-color="hsl(290, 83%, 63%)" />
<stop offset="33.3%" stop-color="hsl(2, 82%, 55%)" />
<stop offset="66.7%" stop-color="hsl(86, 72%, 68%)" />
<stop offset="100.0%" stop-color="hsl(83, 65%, 44%)" />
</linearGradient>
<linearGradient id="g2" x1="0%" y1="0%" x2="100%" y2="100%">
<stop offset="0.0%" stop-color="hsl(40, 53%, 69%)" />
<stop offset="33.3%" stop-color="hsl(104, 72%, 65%)" />
<stop offset="66.7%" stop-color="hsl(144, 86%, 72%)" />
<stop offset="100.0%" stop-color="hsl(151, 70%, 62%)" />
</linearGradient>
<filter id="f1" x="-20%" y="-20%" width="140%" height="140%">
  <feGaussianBlur stdDeviation="0.5506265170956142" />
</filter>

</defs>

<circle cx="90.5" cy="76.0" r="2.9" fill="url(#g0)" fill-opacity="0.72"  transform="translate(63.5 59.9) rotate(11.9) scale(0.54 1.84)" />
<rect x="28.7" y="6.8" width="46.5" height="37.4" rx="0.6" fill="none" fill-opacity="0.26"   transform="translate(55.7 15.3) rotate(133.6) scale(1.08 1.45)" />
<path d="M 7.6 65.8 C 8.5 48.5, 52.4 100.0, 38.9 96.3 C 20.9 100.0, 7.2 37.0, 14.4 45.6 C 14.7 61.6, 21.7 36.4, 30.0 45.9 C 26.8 63.7, 18.0 22.5, 25.3 14.5 C 17.0 29.2, 19.0 39.3, 19.8 24.5 C 27.7 10.1, 29.3 92.3, 18.3 89.8 C 36.4 78.4, 46.2 63.6, 50.4 63.1 Z" fill="none" fill-opacity="0.55" stroke="hsl(83, 65%, 44%)" stroke-width="4.12"  transform="translate(68.9 21.8) rotate(147.2) scale(1.86 0.69)" />
<path d="M 51.6 84.1 C 33.9 71.2, 44.2 100.0, 32.8 93.9 C 22.2 86.4, 79.0 70.1, 68.7 81.0 C 84.1 88.1, 85.8 52.5, 89.9 57.1 C 100.0 64.9, 25.8 20.8, 13.2 9.1 C 21.6 2.8, 3.9 29.2, 6.5 38.2 C 24.7 57.8, 47.0 66.5, 60.1 63.2 C 69.3 56.8, 100.0 36.1, 98.0 38.5 C 100.0 43.8, 38.3 25.3, 46.1 38.8 C 50.5 51.0, 38.0 89.2, 35.3 80.2 Z" fill="none" fill-opacity="0.88" stroke="hsl(86, 72%, 68%)" stroke-width="3.27"  transform="translate(86.1 39.4) rotate(217.5) scale(0.85 0.66)" />
<path d="M 15.1 71.6 C 0.2 89.9, 57.0 34.0, 61.7 22.6 C 74.3 10.3, 76.9 51.2, 73.3 46.7 C 66.7 51.7, 92.6 73.2, 86.6 72.9 C 92.8 88.9, 0.0 12.6, 3.7 14.5 C 0.0 0.0, 52.3 50.0, 45.3 63.9 C 53.5 59.5, 25.3 59.7, 33.5 54.6 C 31.8 53.0, 40.1 100.0, 53.5 98.9 C 42.9 100.0, 100.0 38.9, 85.1 49.2 Z" fill="hsl(106, 75%, 59%)" fill-opacity="0.70" stroke="none" stroke-width="4.77" filter="url(#f1)" transform="translate(85.2 9.3) rotate(29.0) scale(0.50 1.47)" />
<path d="M 71.6 20.8 C 89.1 15.8, 57.9 21.9, 59.1 35.2 C 57.4 49.5, 77.6 22.3, 73.3 16.3 C 69.6 32.3, 50.3 42.7, 37.9 54.6 C 46.4 35.3, 14.9 23.6, 8.6 21.5 C 0.0 31.8, 1.2 78.8, 4.4 83.8 C 15.4 96.1, 49.6 13.8, 50.0 12.1 C 55.7 4.5, 66.7 75.7, 67.2 68.9 C 61.8 60.1, 50.1 62.9, 61.8 64.7 C 64.1 49.7, 34.1 72.7, 22.4 76.5 Z" fill="hsl(151, 70%, 62%)" fill-opacity="0.46" stroke="none" stroke-width="4.56" filter="url(#f1)" transform="translate(94.3 16.8) rotate(47.3) scale(0.51 0.93)" />
<path d="M 89.2 63.7 C 78.7 51.6, 56.2 32.3, 54.5 23.5 C 56.1 8.7, 93.6 29.8, 90.7 34.9 C 82.5 18.6, 13.5 34.3, 4.6 48.9 C 11.9 63.5, 55.2 84.8, 63.2 95.4 C 59.2 100.0, 20.4 6.0, 18.1 0.7 C 22.4 0.0, 0.0 36.5, 9.3 28.1 C 0.0 25.6, 13.7 51.0, 27.4 64.2 C 8.0 61.6, 0.0 72.8, 8.1 86.0 C 0.8 76.8, 67.7 47.8, 76.7 53.0 Z" fill="hsl(106, 75%, 59%)" fill-opacity="0.59" stroke="none" stroke-width="3.42"  transform="translate(92.9 83.3) rotate(203.0) scale(1.05 1.59)" />
<path d="M 41.5 97.6 C 45.4 98.5, 18.8 47.4, 7.1 40.3 C 0.0 26.4, 70.8 54.4, 74.6 54.2 C 90.8 56.1, 87.4 73.0, 73.8 59.1 C 83.6 58.2, 0.0 89.5, 3.1 91.0 C 22.4 72.0, 92.5 29.2, 89.6 19.6 C 100.0 15.5, 20.1 18.1, 29.1 20.7 C 31.9 3.2, 13.5 51.1, 1.3 45.0 C 21.1 27.8, 75.7 85.9, 79.5 89.7 " fill="hsl(183, 71%, 60%)" fill-opacity="0.75" stroke="none" stroke-width="4.36"  transform="translate(91.6 56.0) rotate(71.2) scale(0.80 1.44)" />
<circle cx="67.2" cy="59.3" r="7.5" fill="hsl(83, 65%, 44%)" fill-opacity="0.85"  transform="translate(33.3 86.8) rotate(341.9) scale(1.27 1.82)" />
<path d="M 84.9 73.6 C 77.8 82.4, 32.9 0.0, 22.2 5.4 C 32.3 14.2, 74.0 20.8, 83.8 7.3 C 83.7 25.7, 83.9 58.7, 80.8 64.7 C 95.1 62.0, 8.5 76.8, 4.9 72.2 C 3.2 76.7, 94.9 27.3, 84.0 23.0 C 86.6 10.6, 39.6 69.5, 38.2 75.9 C 45.5 63.9, 85.9 31.1, 94.3 39.3 C 100.0 49.2, 85.9 48.0, 82.8 60.0 Z" fill="none" fill-opacity="0.68" stroke="hsl(106, 75%, 59%)" stroke-width="4.45"  transform="translate(68.4 62.1) rotate(188.9) scale(1.28 1.96)" />
<path d="M 85.9 4.3 C 87.1 19.4, 48.5 34.2, 46.3 36.5 C 38.9 44.6, 4.2 27.5, 14.3 36.4 C 3.8 49.4, 40.9 61.4, 31.9 47.5 C 36.9 36.2, 40.8 70.2, 39.3 65.9 C 40.8 56.7, 49.6 100.0, 41.0 90.0 C 55.3 89.0, 67.1 0.0, 66.1 6.8 C 80.8 23.5, 82.3 0.0, 81.5 7.5 C 61.6 1.9, 38.5 31.5, 52.4 32.8 Z" fill="hsl(290, 83%, 63%)" fill-opacity="0.89" stroke="none" stroke-width="3.14"   />
<path d="M 93.4 7.5 C 75.7 0.0, 11.8 48.3, 18.7 42.2 C 34.5 61.9, 82.1 18.9, 95.8 28.0 C 100.0 27.7, 52.5 70.8, 62.7 71.9 C 59.9 66.5, 0.0 88.6, 1.9 78.0 C 16.0 90.5, 48.6 49.7, 37.9 60.2 C 29.1 79.8, 65.2 48.0, 64.7 53.3 C 46.0 40.4, 48.5 85.8, 57.5 72.0 C 56.4 81.2, 84.8 0.0, 80.3 0.2 C 76.7 0.0, 92.3 0.2, 95.8 8.4 C 95.9 17.9, 100.0 56.1, 96.5 70.2 Z" fill="hsl(106, 75%, 59%)" fill-opacity="0.38" stroke="none" stroke-width="2.99"  transform="translate(43.0 71.4) rotate(194.7) scale(1.22 1.51)" />
<circle cx="24.3" cy="74.3" r="3.3" fill="hsl(83, 65%, 44%)" fill-opacity="0.61"  transform="translate(49.9 89.4) rotate(122.9) scale(0.80 1.74)" />
<rect x="58.4" y="43.3" width="30.7" height="24.3" rx="0" fill="none" fill-opacity="0.61"   transform="translate(12.0 92.3) rotate(19.9) scale(1.09 1.68)" />
<path d="M 2.6 99.4 C 3.6 97.3, 48.6 86.0, 60.4 92.2 C 59.8 75.3, 73.7 14.1, 60.3 19.2 C 76.9 23.5, 89.9 95.5, 98.8 87.1 C 87.6 76.4, 63.5 83.4, 57.4 86.6 C 57.0 99.9, 42.4 52.8, 40.1 54.9 C 40.9 55.7, 31.5 67.7, 44.2 77.4 C 26.5 63.2, 56.1 88.6, 43.1 91.1 C 32.3 82.8, 0.1 50.8, 7.1 62.9 C 0.0 74.4, 13.8 82.1, 13.5 77.2 C 10.0 58.7, 51.8 8.5, 48.1 11.0 Z" fill="none" fill-opacity="0.41" stroke="hsl(106, 75%, 59%)" stroke-width="4.13"  transform="translate(20.5 59.1) rotate(204.3) scale(0.59 1.57)" />
<path d="M 48.4 57.1 C 65.8 57.7, 88.5 18.0, 75.2 7.9 C 79.7 2.1, 42.9 26.8, 47.6 37.5 C 40.5 32.4, 24.0 53.1, 37.6 64.9 C 21.6 60.2, 25.0 14.2, 25.5 16.0 C 9.3 14.8, 52.3 87.3, 43.4 91.2 C 56.2 78.3, 72.2 16.1, 69.0 5.8 C 74.1 0.0, 99.7 0.0, 93.5 3.8 Z" fill="hsl(86, 72%, 68%)" fill-opacity="0.57" stroke="none" stroke-width="4.84"  transform="translate(19.8 47.5) rotate(118.0) scale(1.82 0.64)" />
<path d="M 58.4 64.5 C 66.5 55.4, 16.0 0.0, 17.0 2.9 C 0.0 17.0, 84.5 42.0, 80.1 56.8 C 83.6 42.7, 64.8 11.0, 75.9 23.5 C 72.1 27.5, 20.4 45.2, 26.1 41.2 C 27.3 27.8, 65.5 80.9, 53.1 70.7 C 33.7 73.2, 39.5 21.9, 27.2 20.2 C 46.4 28.5, 14.5 92.1, 19.0 77.2 C 0.6 65.0, 42.4 96.8, 42.5 94.6 Z" fill="none" fill-opacity="0.30" stroke="hsl(144, 86%, 72%)" stroke-width="4.73"  transform="translate(30.4 32.2) rotate(42.8) scale(1.55 1.48)" />
<path d="M 89.8 65.3 C 86.3 66.4, 85.4 1.8, 82.2 5.8 C 81.2 0.0, 32.9 26.2, 28.1 21.6 C 42.0 28.6, 62.0 74.7, 65.6 76.1 C 73.8 91.9, 74.4 0.5, 70.4 9.8 C 88.3 10.1, 94.3 17.3, 91.1 12.1 C 100.0 22.7, 85.0 100.0, 86.8 98.5 C 80.9 100.0, 19.4 58.3, 6.2 62.9 C 25.9 71.3, 69.2 11.1, 55.8 24.0 C 68.4 27.7, 41.4 33.9, 26.4 40.4 C 41.8 46.5, 17.7 18.8, 15.5 22.6 Z" fill="hsl(242, 72%, 49%)" fill-opacity="0.41" stroke="none" stroke-width="3.62" filter="url(#f1)"  />
<rect x="18.3" y="28.2" width="28.9" height="15.6" rx="1.5" fill="none" fill-opacity="0.79"  filter="url(#f1)" transform="translate(2.9 81.2) rotate(335.5) scale(1.50 0.75)" />
<circle cx="26.4" cy="47.0" r="3.2" fill="hsl(2, 82%, 55%)" fill-opacity="0.51"   />
<path d="M 79.9 49.9 C 68.0 36.4, 54.8 53.3, 58.1 56.7 C 55.3 68.1, 72.0 43.1, 63.8 51.8 C 61.9 61.6, 89.6 58.7, 86.4 51.3 C 95.0 59.9, 16.5 0.0, 12.3 9.1 C 5.5 0.0, 83.7 99.1, 79.6 92.7 C 71.9 100.0, 27.6 88.9, 39.2 85.5 Z" fill="none" fill-opacity="0.77" stroke="hsl(86, 72%, 68%)" stroke-width="4.24"  transform="translate(4.5 61.1) rotate(271.1) scale(0.53 1.09)" />
<circle cx="52.0" cy="85.8" r="3.2" fill="url(#g1)" fill-opacity="0.98"  transform="translate(89.3 67.0) rotate(143.6) scale(1.07 1.76)" />
<rect x="18.5" y="11.3" width="39.8" height="37.0" rx="0" fill="hsl(40, 53%, 69%)" fill-opacity="0.90"   transform="translate(80.8 84.4) rotate(209.1) scale(1.80 1.76)" />
<rect x="40.2" y="40.1" width="32.2" height="37.5" rx="7.8" fill="hsl(104, 72%, 65%)" fill-opacity="0.91" stroke="hsl(104, 72%, 65%)" stroke-width="2.5"  transform="translate(48.9 75.2) rotate(144.8) scale(0.51 1.72)" />
<path d="M 10.9 91.2 C 18.3 83.3, 49.4 64.4, 54.5 57.1 C 73.6 41.5, 5.8 38.9, 3.2 41.0 C 5.0 38.8, 68.3 70.5, 70.9 82.4 C 58.6 85.7, 68.4 100.0, 58.2 96.1 C 68.1 92.4, 33.3 29.8, 44.4 17.2 C 35.0 0.0, 3.7 56.1, 4.1 49.3 C 0.0 63.2, 0.0 50.1, 10.3 55.8 C 23.0 66.2, 100.0 100.0, 96.3 90.8 C 82.1 97.5, 63.9 0.0, 56.9 5.2 Z" fill="hsl(144, 86%, 72%)" fill-opacity="0.97" stroke="none" stroke-width="1.55"  transform="translate(34.5 59.5) rotate(355.1) scale(1.28 1.03)" />
<rect x="33.7" y="67.8" width="43.0" height="31.7" rx="0" fill="none" fill-opacity="0.30"  filter="url(#f1)" transform="translate(2.9 97.4) rotate(65.1) scale(1.80 0.74)" />
<rect x="66.1" y="69.0" width="23.0" height="26.2" rx="0" fill="hsl(290, 83%, 63%)" fill-opacity="0.82"   transform="translate(0.9 97.4) rotate(34.1) scale(1.90 0.92)" />
<path d="M 24.8 38.7 C 33.5 19.4, 28.6 18.9, 24.9 30.6 C 31.2 46.2, 7.9 56.2, 0.9 43.5 C 8.9 57.6, 1.4 31.9, 7.0 37.2 C 12.0 52.3, 56.6 52.2, 47.0 37.7 C 43.9 43.4, 82.6 100.0, 76.2 93.9 C 70.8 89.5, 43.9 44.0, 57.9 37.3 C 75.8 38.5, 49.8 69.8, 58.4 66.6 Z" fill="hsl(40, 53%, 69%)" fill-opacity="0.32" stroke="none" stroke-width="3.38"  transform="translate(28.0 58.2) rotate(185.8) scale(1.50 1.45)" />
<rect x="11.7" y="50.1" width="44.3" height="35.1" rx="0" fill="none" fill-opacity="0.42" stroke="hsl(183, 71%, 60%)" stroke-width="2.2"  transform="translate(95.9 33.4) rotate(287.3) scale(1.78 1.58)" />
<circle cx="56.6" cy="52.4" r="8.5" fill="url(#g0)" fill-opacity="0.48"  transform="translate(62.7 85.7) rotate(215.4) scale(1.31 1.71)" />
<rect x="70.9" y="28.9" width="21.3" height="36.1" rx="0" fill="none" fill-opacity="0.68"   transform="translate(52.1 7.0) rotate(322.6) scale(1.89 1.02)" />
<path d="M 29.0 11.4 C 39.5 29.0, 81.8 80.3, 76.1 94.6 C 61.3 100.0, 8.0 8.3, 4.4 14.3 C 18.2 23.9, 10.2 20.6, 9.6 20.1 C 17.2 20.0, 70.6 19.4, 67.8 26.0 C 64.6 29.0, 60.8 8.5, 74.8 21.6 C 65.8 18.6, 40.0 15.1, 44.5 20.7 C 53.0 2.2, 47.0 0.0, 40.2 3.8 C 52.6 16.8, 91.4 14.3, 81.8 13.9 C 91.4 0.4, 0.0 84.8, 0.3 74.6 Z" fill="none" fill-opacity="0.70" stroke="hsl(183, 71%, 60%)" stroke-width="3.70"  transform="translate(80.7 58.8) rotate(183.3) scale(0.67 1.63)" />
<path d="M 91.0 32.0 C 98.1 22.5, 100.0 91.1, 99.1 93.1 C 91.5 93.6, 86.6 10.9, 97.0 1.0 C 100.0 20.6, 80.8 72.8, 88.4 80.6 C 99.3 96.9, 44.1 83.8, 40.1 82.0 C 52.6 98.2, 58.3 57.2, 65.2 62.4 C 80.8 67.7, 87.8 54.6, 81.9 56.9 C 88.6 37.6, 79.9 42.3, 92.6 54.7 C 76.3 64.6, 53.7 78.7, 55.3 74.5 C 54.1 74.2, 57.4 12.0, 66.9 3.2 " fill="none" fill-opacity="0.93" stroke="hsl(83, 65%, 44%)" stroke-width="5.26"  transform="translate(88.6 88.6) rotate(207.6) scale(0.50 0.66)" />
<path d="M 34.5 37.3 C 24.4 25.8, 0.0 48.6, 1.1 35.9 C 3.8 52.1, 53.0 100.0, 40.1 93.9 C 56.7 100.0, 20.0 100.0, 13.3 93.2 C 0.0 83.0, 37.3 41.9, 51.0 36.0 C 47.4 40.7, 18.6 0.0, 27.2 13.5 C 47.0 0.0, 49.8 31.9, 49.8 44.8 C 32.5 41.7, 45.7 88.8, 35.8 76.2 C 23.4 67.2, 26.4 12.3, 32.4 9.3 C 16.0 9.4, 28.6 47.2, 38.2 41.0 C 35.2 56.6, 38.1 80.4, 45.8 79.4 Z" fill="none" fill-opacity="0.70" stroke="hsl(322, 74%, 44%)" stroke-width="4.10"  transform="translate(80.7 47.8) rotate(207.6) scale(1.62 0.85)" />
<rect x="60.3" y="69.6" width="38.2" height="29.0" rx="0" fill="hsl(2, 82%, 55%)" fill-opacity="1.00"    />
<path d="M 67.9 25.8 C 69.7 38.7, 7.8 48.4, 14.2 45.7 C 23.9 39.6, 42.9 31.9, 53.5 35.2 C 73.3 15.4, 0.0 77.1, 1.9 89.3 C 14.0 99.9, 60.9 90.3, 46.8 90.6 C 34.5 100.0, 67.8 100.0, 79.3 97.3 C 66.3 94.2, 0.0 21.0, 1.2 14.1 C 0.0 14.6, 15.9 85.7, 21.5 87.9 C 13.5 71.2, 31.9 1.5, 46.0 2.5 C 59.8 0.1, 12.7 70.5, 6.9 70.0 Z" fill="hsl(2, 82%, 55%)" fill-opacity="0.87" stroke="none" stroke-width="1.51"  transform="translate(40.5 30.0) rotate(24.5) scale(0.68 1.84)" />
<path d="M 63.1 10.8 C 75.2 25.5, 58.4 21.2, 71.0 26.4 C 69.3 37.4, 70.0 39.5, 84.7 40.0 C 65.3 35.1, 40.9 64.2, 42.7 49.8 C 45.2 53.6, 23.9 1.7, 38.5 8.7 C 26.6 0.0, 88.4 83.7, 94.8 95.2 C 86.3 91.8, 16.9 86.4, 15.6 88.7 C 6.6 100.0, 44.4 80.4, 33.0 81.6 C 20.8 84.5, 100.0 60.2, 88.8 49.4 Z" fill="hsl(144, 86%, 72%)" fill-opacity="0.60" stroke="none" stroke-width="2.41"  transform="translate(27.0 18.8) rotate(53.5) scale(0.71 1.82)" />
<path d="M 13.1 63.6 C 3.2 51.0, 26.1 100.0, 11.2 97.3 C 16.9 100.0, 33.1 43.8, 46.9 34.8 C 48.3 23.9, 36.0 77.6, 49.4 82.0 C 60.1 81.1, 100.0 17.3, 99.4 13.2 C 100.0 19.3, 30.3 50.9, 39.7 58.2 C 28.9 72.8, 49.1 69.8, 51.1 79.3 Z" fill="none" fill-opacity="0.32" stroke="hsl(86, 72%, 68%)" stroke-width="3.66"  transform="translate(4.4 82.1) rotate(186.0) scale(1.14 1.77)" />
<path d="M 33.2 0.3 C 30.2 0.0, 3.0 52.2, 8.5 49.4 C 9.4 66.9, 48.6 30.6, 59.5 22.1 C 66.6 23.3, 62.5 72.7, 48.0 84.6 C 31.2 100.0, 59.4 56.1, 49.3 43.4 C 43.3 43.0, 31.3 62.8, 25.1 77.1 C 22.6 62.4, 89.0 92.7, 77.2 99.8 C 70.8 94.1, 56.6 18.6, 70.1 25.7 Z" fill="none" fill-opacity="0.72" stroke="hsl(40, 53%, 69%)" stroke-width="4.32"   />
<path d="M 61.3 75.3 C 79.9 65.4, 35.1 61.6, 45.1 56.2 C 36.2 48.8, 79.2 0.0, 66.7 1.6 C 73.0 0.0, 21.0 64.9, 24.0 66.8 C 43.3 60.3, 2.5 84.8, 4.5 92.8 C 0.0 100.0, 31.7 8.3, 22.9 4.0 C 28.1 0.0, 51.8 43.1, 54.9 31.0 C 57.6 17.1, 15.3 100.0, 0.5 99.0 C 0.8 85.8, 44.7 67.8, 38.8 82.5 C 53.3 66.9, 5.2 6.9, 1.4 6.5 " fill="none" fill-opacity="0.29" stroke="hsl(2, 82%, 55%)" stroke-width="0.89"  transform="translate(58.4 46.1) rotate(287.5) scale(0.65 1.36)" />
<rect x="2.4" y="54.4" width="30.6" height="33.3" rx="18.8" fill="hsl(2, 82%, 55%)" fill-opacity="0.47"    />
<path d="M 12.9 69.8 C 15.6 51.3, 28.8 25.4, 38.8 10.9 C 52.8 0.0, 100.0 88.4, 98.6 78.7 C 100.0 83.2, 68.5 30.7, 69.2 22.2 C 84.8 31.1, 23.0 79.5, 23.3 94.1 C 6.0 100.0, 60.9 12.1, 51.6 17.1 C 38.0 0.0, 75.6 12.7, 87.0 19.2 C 100.0 20.8, 79.5 50.2, 85.9 62.2 C 81.8 54.6, 76.3 47.3, 83.5 57.9 C 76.2 44.6, 6.9 82.3, 3.5 86.6 " fill="hsl(40, 53%, 69%)" fill-opacity="0.50" stroke="none" stroke-width="3.27"  transform="translate(20.7 10.3) rotate(313.2) scale(0.90 0.98)" />
<rect x="22.9" y="24.8" width="46.3" height="36.0" rx="0" fill="none" fill-opacity="0.38"    />
<path d="M 21.4 55.1 C 21.9 36.8, 78.1 94.2, 77.0 88.5 C 92.8 76.1, 0.0 25.4, 5.8 31.7 C 11.7 45.6, 5.8 14.6, 18.0 17.4 C 0.0 22.3, 15.0 33.1, 0.4 29.8 C 0.0 47.6, 82.3 64.1, 86.0 54.9 C 100.0 59.6, 79.0 89.4, 92.2 98.1 C 98.8 100.0, 9.1 100.0, 16.5 91.9 C 28.0 100.0, 100.0 5.0, 95.3 9.8 C 100.0 14.7, 77.5 97.1, 82.9 92.7 Z" fill="hsl(86, 72%, 68%)" fill-opacity="0.93" stroke="none" stroke-width="4.59"  transform="translate(53.5 53.3) rotate(30.5) scale(1.82 1.36)" />
<rect x="37.1" y="46.2" width="34.9" height="29.8" rx="10.4" fill="none" fill-opacity="0.33"   transform="translate(62.5 31.8) rotate(37.9) scale(1.60 1.32)" />
<rect x="36.9" y="13.8" width="42.8" height="34.8" rx="0" fill="none" fill-opacity="0.41" stroke="hsl(2, 82%, 55%)" stroke-width="3.8"  transform="translate(88.4 95.5) rotate(177.8) scale(1.02 1.74)" />
<circle cx="47.8" cy="15.4" r="7.1" fill="url(#g2)" fill-opacity="0.89"   />
<path d="M 10.8 67.5 C 30.1 65.3, 14.7 29.8, 10.3 43.7 C 5.9 48.4, 80.6 42.9, 80.1 48.8 C 65.8 39.3, 10.1 29.9, 14.8 30.6 C 14.0 23.0, 40.4 76.4, 49.6 69.5 C 64.1 80.2, 14.7 14.1, 3.4 7.2 C 16.4 0.0, 79.2 35.9, 70.9 39.9 C 73.0 55.6, 100.0 36.6, 98.2 32.6 C 96.2 24.2, 40.1 0.0, 30.3 6.4 C 18.6 16.5, 5.0 72.8, 7.6 83.3 Z" fill="hsl(40, 53%, 69%)" fill-opacity="0.98" stroke="none" stroke-width="1.56"  transform="translate(5.8 18.1) rotate(217.1) scale(1.40 1.06)" />
<path d="M 45.4 75.6 C 27.5 85.0, 53.3 68.1, 46.0 80.3 C 46.2 61.6, 63.5 99.3, 51.5 85.9 C 39.0 93.1, 0.0 46.5, 0.7 37.5 C 0.0 18.1, 25.3 92.9, 17.4 97.8 C 1.8 100.0, 100.0 11.7, 97.6 24.1 C 88.0 35.5, 42.5 21.5, 37.5 9.7 Z" fill="none" fill-opacity="0.49" stroke="hsl(242, 72%, 49%)" stroke-width="1.80"  transform="translate(55.7 70.0) rotate(260.0) scale(1.32 0.64)" />
<path d="M 22.8 88.2 C 4.2 72.7, 63.4 83.8, 51.0 70.0 C 67.4 63.0, 78.4 30.4, 64.3 34.1 C 55.7 15.6, 96.7 13.5, 97.8 18.7 C 92.2 35.1, 56.6 84.8, 63.3 77.2 C 56.9 82.8, 96.7 88.0, 85.9 73.6 C 95.4 72.7, 13.8 19.6, 19.6 20.5 C 6.8 19.2, 24.4 22.3, 38.1 33.7 C 35.6 30.2, 65.2 42.6, 67.5 52.8 Z" fill="hsl(86, 72%, 68%)" fill-opacity="0.82" stroke="none" stroke-width="0.93"  transform="translate(7.6 42.0) rotate(138.3) scale(0.64 0.78)" />
<path d="M 41.8 26.9 C 54.2 46.3, 48.8 100.0, 52.1 91.6 C 57.7 75.6, 59.4 65.3, 66.6 55.3 C 84.2 50.2, 12.2 100.0, 2.5 98.6 C 0.0 100.0, 69.8 70.2, 75.9 80.4 C 63.3 61.7, 65.2 100.0, 59.7 94.2 C 69.3 79.3, 14.9 100.0, 1.2 99.9 C 0.0 87.7, 15.7 66.3, 2.6 51.7 C 0.0 56.2, 49.5 81.7, 41.8 94.0 C 61.0 92.7, 0.0 100.0, 6.2 99.3 C 1.6 81.4, 56.5 91.5, 51.4 88.5 Z" fill="none" fill-opacity="0.55" stroke="hsl(40, 53%, 69%)" stroke-width="1.58"  transform="translate(45.5 71.7) rotate(85.1) scale(1.38 1.19)" />
<circle cx="69.5" cy="7.7" r="5.0" fill="url(#g1)" fill-opacity="0.70"  transform="translate(77.5 20.4) rotate(339.2) scale(1.61 0.95)" />
<path d="M 87.1 4.5 C 98.3 0.0, 99.6 59.5, 93.6 73.7 C 76.0 78.5, 61.4 42.4, 72.2 37.7 C 83.9 39.2, 81.0 74.0, 73.5 85.8 C 70.0 100.0, 60.8 19.7, 52.8 32.5 C 67.9 31.9, 86.2 55.1, 100.0 51.3 C 82.6 46.7, 27.2 7.7, 38.2 22.5 C 48.5 6.8, 60.9 30.9, 47.1 24.8 C 27.5 19.3, 41.6 17.5, 50.9 3.5 C 38.5 0.0, 22.6 100.0, 10.9 97.4 C 0.0 87.0, 78.0 77.5, 89.8 90.3 " fill="hsl(2, 82%, 55%)" fill-opacity="0.48" stroke="none" stroke-width="1.93"  transform="translate(53.7 21.5) rotate(356.8) scale(1.34 0.73)" />
<circle cx="77.2" cy="20.2" r="7.2" fill="url(#g2)" fill-opacity="0.88"  transform="translate(37.4 40.4) rotate(128.9) scale(0.99 0.72)" />
<path d="M 3.6 69.9 C 0.6 72.9, 0.0 91.2, 4.9 97.7 C 0.0 100.0, 28.6 56.0, 36.4 55.1 C 42.1 39.9, 60.6 92.3, 66.9 80.1 C 54.9 80.3, 15.5 87.1, 5.5 81.7 C 23.9 78.0, 66.6 79.8, 65.5 94.6 C 85.5 80.0, 58.3 50.5, 67.3 37.6 C 58.6 37.7, 71.6 14.6, 75.6 9.8 C 61.2 28.8, 64.4 36.0, 73.0 36.1 Z" fill="none" fill-opacity="0.35" stroke="hsl(322, 74%, 44%)" stroke-width="5.02"  transform="translate(67.2 41.2) rotate(183.0) scale(0.52 1.73)" />
<path d="M 39.2 25.2 C 48.0 9.4, 43.1 25.0, 43.3 15.3 C 52.8 5.6, 95.7 34.9, 92.8 33.5 C 77.9 21.4, 52.3 78.8, 58.0 67.4 C 62.5 69.5, 53.0 76.5, 52.3 78.3 C 36.3 77.2, 0.0 87.5, 8.1 94.3 C 0.0 100.0, 71.6 71.5, 60.9 80.2 C 57.4 96.0, 79.9 34.9, 70.1 33.7 C 72.1 27.5, 40.0 32.9, 28.1 27.0 C 37.6 35.2, 12.1 78.0, 1.6 69.7 Z" fill="hsl(322, 74%, 44%)" fill-opacity="0.33" stroke="none" stroke-width="4.57"  transform="translate(79.0 50.9) rotate(356.7) scale(1.30 0.70)" />
<rect x="3.3" y="36.6" width="29.1" height="21.7" rx="12.5" fill="hsl(40, 53%, 69%)" fill-opacity="0.60"    />
<path d="M 23.6 60.3 C 22.0 47.2, 71.0 81.8, 78.5 96.5 C 94.2 100.0, 67.5 72.1, 58.8 71.6 C 65.7 54.0, 85.0 61.8, 99.9 46.8 C 100.0 35.0, 74.1 51.2, 74.9 42.3 C 66.5 56.4, 0.0 46.0, 12.2 60.8 C 3.3 58.2, 68.8 65.5, 65.9 72.3 C 72.1 70.0, 96.9 82.0, 98.2 72.6 Z" fill="hsl(86, 72%, 68%)" fill-opacity="0.54" stroke="none" stroke-width="4.36"   />
<circle cx="71.6" cy="95.7" r="11.3" fill="url(#g0)" fill-opacity="0.71"  transform="translate(62.5 47.6) rotate(216.6) scale(0.51 1.38)" />
<path d="M 85.3 37.0 C 81.2 38.8, 54.6 29.4, 42.9 38.1 C 43.8 27.5, 6.3 64.4, 11.0 65.5 C 24.8 54.0, 35.9 57.6, 44.6 67.8 C 45.7 81.8, 100.0 4.5, 91.1 14.2 C 100.0 14.8, 22.0 93.3, 32.6 91.5 C 29.1 97.7, 43.0 63.1, 57.4 63.7 Z" fill="none" fill-opacity="0.37" stroke="hsl(144, 86%, 72%)" stroke-width="2.29"  transform="translate(48.6 50.9) rotate(57.3) scale(1.35 1.15)" />
<circle cx="79.4" cy="48.1" r="1.2" fill="url(#g1)" fill-opacity="0.97"  transform="translate(69.7 92.1) rotate(54.3) scale(1.07 0.86)" />
<rect x="6.1" y="65.6" width="47.9" height="15.7" rx="0" fill="hsl(144, 86%, 72%)" fill-opacity="0.52"   transform="translate(65.4 30.2) rotate(78.9) scale(1.85 1.68)" />
<path d="M 53.4 58.3 C 63.1 41.6, 37.7 100.0, 24.9 94.6 C 29.8 87.2, 61.3 26.8, 72.5 32.3 C 68.2 50.5, 58.1 100.0, 62.6 91.3 C 53.4 87.9, 56.1 62.9, 47.0 53.8 C 39.7 65.5, 63.4 5.0, 77.3 2.0 C 76.7 0.0, 53.5 98.8, 60.7 95.2 C 49.3 76.2, 100.0 34.9, 87.9 45.0 C 100.0 49.4, 13.7 23.4, 27.2 23.7 " fill="none" fill-opacity="0.58" stroke="hsl(86, 72%, 68%)" stroke-width="3.98" filter="url(#f1)" transform="translate(72.5 9.4) rotate(309.8) scale(1.36 0.57)" />
<path d="M 14.3 92.8 C 7.8 100.0, 77.8 58.6, 87.4 63.4 C 74.6 55.8, 88.4 73.3, 73.7 71.8 C 93.2 82.7, 91.9 51.4, 97.7 51.8 C 97.1 63.2, 82.0 10.3, 73.7 21.2 C 93.3 9.1, 74.2 14.3, 65.2 7.6 C 81.2 14.6, 100.0 23.5, 95.8 9.4 C 83.5 14.7, 20.7 97.5, 32.0 96.3 C 32.1 98.1, 39.6 66.2, 45.6 70.4 Z" fill="hsl(242, 72%, 49%)" fill-opacity="0.71" stroke="none" stroke-width="3.94"  transform="translate(21.6 95.2) rotate(188.4) scale(0.77 1.23)" />
<path d="M 92.1 37.8 C 77.1 53.0, 52.2 26.9, 44.6 17.1 C 30.9 22.8, 84.2 49.0, 96.9 52.5 C 77.0 40.8, 0.0 9.5, 1.8 12.2 C 0.0 21.8, 55.4 52.9, 65.9 64.7 C 82.2 83.8, 0.0 54.7, 9.3 49.4 C 28.8 37.4, 78.5 13.1, 91.8 18.7 C 100.0 9.5, 8.5 79.0, 6.8 70.6 C 5.6 85.8, 83.8 0.3, 76.6 2.6 C 86.9 4.3, 52.2 9.8, 57.7 8.3 " fill="hsl(290, 83%, 63%)" fill-opacity="0.69" stroke="none" stroke-width="3.95"  transform="translate(53.2 58.9) rotate(229.9) scale(1.63 1.83)" />
<path d="M 70.5 1.3 C 77.4 2.2, 43.7 77.4, 41.0 70.7 C 38.1 59.4, 78.4 86.1, 78.3 89.8 C 88.3 87.3, 96.1 38.3, 89.9 42.2 C 71.5 53.0, 21.9 19.6, 15.8 8.7 C 5.8 0.0, 17.9 14.3, 5.6 14.7 C 6.5 20.2, 35.8 35.4, 34.6 30.3 C 50.7 25.6, 36.4 69.8, 31.5 79.4 " fill="hsl(151, 70%, 62%)" fill-opacity="0.49" stroke="none" stroke-width="3.68"  transform="translate(32.4 77.4) rotate(216.5) scale(1.97 1.49)" />
<circle cx="61.6" cy="69.5" r="4.5" fill="url(#g1)" fill-opacity="0.82"  transform="translate(78.3 7.6) rotate(105.3) scale(0.92 1.26)" />
<circle cx="95.0" cy="51.2" r="2.1" fill="url(#g0)" fill-opacity="0.86" filter="url(#f1)" transform="translate(53.7 66.1) rotate(47.3) scale(1.41 1.34)" />
<path d="M 24.3 77.5 C 40.6 65.7, 0.0 0.0, 0.5 2.7 C 15.6 3.5, 23.6 22.8, 27.5 21.5 C 19.2 12.3, 47.0 0.0, 59.8 1.1 C 52.5 15.8, 20.5 93.3, 33.3 93.0 C 48.8 75.4, 88.8 26.5, 74.8 35.1 C 61.9 44.1, 33.5 34.5, 45.8 20.6 C 48.8 29.6, 3.8 25.7, 6.7 16.7 C 0.0 16.7, 70.1 0.0, 76.0 8.1 C 79.6 16.5, 7.6 79.5, 10.2 84.0 C 0.0 100.0, 29.0 50.8, 34.1 40.0 " fill="none" fill-opacity="0.49" stroke="hsl(2, 82%, 55%)" stroke-width="4.80"  transform="translate(65.3 34.4) rotate(210.0) scale(1.56 1.32)" />
<circle cx="5.9" cy="39.0" r="4.7" fill="hsl(322, 74%, 44%)" fill-opacity="0.83"  transform="translate(83.2 25.6) rotate(45.9) scale(0.82 1.68)" />
<circle cx="57.0" cy="37.4" r="12.9" fill="url(#g1)" fill-opacity="0.47"  transform="translate(77.5 11.7) rotate(226.4) scale(1.38 1.45)" />
<path d="M 31.7 65.6 C 30.2 68.1, 67.3 0.0, 65.4 2.2 C 67.3 0.0, 81.0 79.1, 94.4 76.2 C 100.0 72.0, 31.2 21.9, 35.8 8.0 C 34.0 2.8, 67.8 61.9, 79.0 55.7 C 76.2 54.1, 91.7 0.0, 93.3 5.4 C 100.0 8.9, 27.7 82.7, 22.8 74.5 C 26.0 83.4, 41.0 57.8, 39.9 64.3 C 40.7 69.2, 36.2 56.6, 46.1 58.6 Z" fill="hsl(242, 72%, 49%)" fill-opacity="0.93" stroke="none" stroke-width="3.16"  transform="translate(88.9 52.5) rotate(30.8) scale(1.71 0.97)" />
<path d="M 90.7 86.0 C 91.3 66.6, 73.1 9.5, 67.7 23.2 C 49.5 27.8, 39.9 0.0, 45.1 8.0 C 64.5 0.0, 66.0 47.5, 62.4 42.3 C 71.5 31.1, 32.3 11.1, 33.3 24.0 C 28.0 16.7, 33.4 25.7, 36.8 13.5 C 37.9 19.2, 67.6 25.1, 68.4 14.3 C 85.9 5.4, 20.8 57.5, 33.6 70.8 Z" fill="none" fill-opacity="0.75" stroke="hsl(104, 72%, 65%)" stroke-width="4.32"  transform="translate(35.6 22.4) rotate(249.8) scale(1.60 0.97)" />
<rect x="72.1" y="24.2" width="27.0" height="32.0" rx="0" fill="hsl(290, 83%, 63%)" fill-opacity="0.55"   transform="translate(33.2 84.5) rotate(274.4) scale(0.88 1.06)" />
<path d="M 72.8 43.5 C 85.9 30.6, 100.0 10.6, 97.1 7.3 C 100.0 3.6, 8.3 23.8, 3.8 19.0 C 22.3 23.6, 35.7 0.0, 26.8 1.2 C 44.4 18.2, 11.7 58.5, 7.3 43.9 C 17.1 47.8, 9.3 8.1, 11.6 14.9 C 24.3 25.0, 52.4 85.9, 38.5 95.9 C 37.3 86.7, 35.4 91.7, 35.5 90.9 C 31.5 100.0, 4.4 25.0, 16.7 36.6 C 2.3 23.4, 29.4 100.0, 26.4 99.8 Z" fill="none" fill-opacity="0.56" stroke="hsl(242, 72%, 49%)" stroke-width="2.86"   />
<circle cx="80.2" cy="82.0" r="6.1" fill="hsl(290, 83%, 63%)" fill-opacity="0.66"  transform="translate(54.0 48.3) rotate(143.8) scale(1.67 1.15)" />
<circle cx="50.0" cy="87.9" r="3.1" fill="url(#g1)" fill-opacity="0.75" filter="url(#f1)"  />
<g opacity="0.043">
<rect x="0" y="0" width="1" height="100" fill="black" />
<rect x="22" y="0" width="1" height="100" fill="black" />
<rect x="44" y="0" width="1" height="100" fill="black" />
<rect x="66" y="0" width="1" height="100" fill="black" />
<rect x="88" y="0" width="1" height="100" fill="black" />
<rect x="0" y="0" width="100" height="1" fill="black" />
<rect x="0" y="22" width="100" height="1" fill="black" />
<rect x="0" y="44" width="100" height="1" fill="black" />
<rect x="0" y="66" width="100" height="1" fill="black" />
<rect x="0" y="88" width="100" height="1" fill="black" />
</g>

</svg>
