<?xml version="1.0" encoding="UTF-8"?>
<svg xmlns="http://www.w3.org/2000/svg" width="100" height="100" viewBox="0 0 100 100">
<defs>
<linearGradient id="g0" x1="0%" y1="0%" x2="100%" y2="100%">
<stop offset="0.0%" stop-color="hsl(106, 75%, 59%)" />
<stop offset="33.3%" stop-color="hsl(183, 71%, 60%)" />
<stop offset="66.7%" stop-color="hsl(242, 72%, 49%)" />
<stop offset="100.0%" stop-color="hsl(322, 74%, 44%)" />
</linearGradient>
<linearGradient id="g1" x1="0%" y1="0%" x2="100%" y2="100%">
<stop offset="0.0%" stop-color="hsl(290, 83%, 63%)" />
<stop offset="33.3%" stop-color="hsl(2, 82%, 55%)" />
<stop offset="66.7%" stop-color="hsl(86, 72%, 68%)" />
<stop offset="100.0%" stop-color="hsl(83, 65%, 44%)" />
</linearGradient>
<linearGradient id="g2" x1="0%" y1="0%" x2="100%" y2="100%">
<stop offset="0.0%" stop-color="hsl(40, 53%, 69%)" />
<stop offset="33.3%" stop-color="hsl(104, 72%, 65%)" />
<stop offset="66.7%" stop-color="hsl(144, 86%, 72%)" />
<stop offset="100.0%" stop-color="hsl(151, 70%, 62%)" />
</linearGradient>
<filter id="f1" x="-20%" y="-20%" width="140%" height="140%">
  <feGaussianBlur stdDeviation="2.0957714414953372" />
</filter>

</defs>

<path d="M 48.3 47.5 C 64.5 65.0, 16.8 30.8, 20.2 26.9 C 8.1 42.2, 44.4 25.6, 47.6 11.9 C 47.0 8.7, 96.5 74.9, 89.8 64.2 C 97.1 54.9, 46.7 32.0, 50.1 21.8 C 69.6 20.3, 9.6 0.3, 20.2 8.6 C 34.3 22.9, 40.2 18.6, 54.9 30.4 C 55.7 25.5, 86.8 51.2, 77.4 65.2 Z" fill="hsl(290, 83%, 63%)" fill-opacity="0.62" stroke="none" stroke-width="3.95"  transform="translate(10.4 37.5) rotate(87.8) scale(1.86 1.32)" />
<rect x="5.9" y="40.2" width="43.3" height="35.4" rx="0" fill="hsl(183, 71%, 60%)" fill-opacity="0.59"   transform="translate(65.6 65.6) rotate(142.9) scale(0.71 1.62)" />
<rect x="25.9" y="17.8" width="21.3" height="26.3" rx="0" fill="none" fill-opacity="0.32" stroke="hsl(86, 72%, 68%)" stroke-width="2.7" filter="url(#f1)" transform="translate(32.5 80.4) rotate(82.8) scale(1.29 1.90)" />
<path d="M 13.1 25.6 C 27.6 8.2, 75.2 77.2, 66.0 90.6 C 65.4 100.0, 46.6 62.8, 43.2 51.6 C 24.5 60.1, 79.9 37.3, 94.4 40.5 C 76.4 58.6, 44.4 41.1, 50.2 46.4 C 32.7 45.0, 97.2 72.4, 85.7 60.0 C 72.3 53.6, 21.2 75.0, 31.9 63.3 Z" fill="none" fill-opacity="0.95" stroke="hsl(2, 82%, 55%)" stroke-width="1.51"  transform="translate(24.4 43.5) rotate(110.5) scale(1.24 1.47)" />
<path d="M 51.2 89.4 C 63.2 85.8, 97.4 8.9, 95.6 8.1 C 93.2 5.8, 15.4 19.6, 27.3 21.6 C 8.6 11.5, 83.8 63.4, 83.0 58.6 C 99.1 54.6, 84.9 63.8, 94.5 67.6 C 85.0 68.4, 34.2 64.5, 30.8 64.5 C 15.4 83.2, 3.1 0.0, 6.7 10.3 C 8.4 17.2, 80.8 0.0, 70.4 1.1 C 81.8 9.5, 25.4 9.4, 36.1 1.5 Z" fill="none" fill-opacity="0.65" stroke="hsl(83, 65%, 44%)" stroke-width="1.33"  transform="translate(13.5 58.6) rotate(206.9) scale(1.78 1.93)" />
<circle cx="82.8" cy="61.0" r="10.9" fill="url(#g2)" fill-opacity="0.62"  transform="translate(82.4 68.9) rotate(109.3) scale(1.90 0.69)" />
<circle cx="83.7" cy="79.7" r="7.4" fill="hsl(83, 65%, 44%)" fill-opacity="0.87"   />
<path d="M 7.9 37.9 C 1.0 51.7, 82.7 41.8, 91.9 38.9 C 100.0 31.2, 82.9 100.0, 89.1 95.8 C 97.9 97.5, 50.1 38.9, 58.7 32.2 C 61.0 14.9, 55.2 57.9, 53.5 58.7 C 61.7 63.1, 46.9 78.0, 40.0 88.1 C 28.6 78.8, 0.0 100.0, 4.0 87.7 C 11.9 99.8, 100.0 68.2, 91.5 66.1 C 95.1 74.0, 54.5 61.3, 47.2 69.8 C 62.9 83.1, 73.4 45.5, 61.0 55.8 C 79.9 40.2, 47.0 66.8, 34.9 63.7 Z" fill="hsl(104, 72%, 65%)" fill-opacity="0.91" stroke="none" stroke-width="1.40"  transform="translate(64.8 66.4) rotate(120.5) scale(0.65 1.98)" />
<rect x="43.5" y="12.0" width="33.5" height="18.8" rx="4.6" fill="none" fill-opacity="0.24"   transform="translate(17.2 42.2) rotate(351.4) scale(1.12 1.47)" />
<circle cx="39.9" cy="62.8" r="5.7" fill="url(#g2)" fill-opacity="0.65"  transform="translate(4.2 17.3) rotate(282.3) scale(1.41 1.45)" />
<rect x="59.1" y="24.7" width="27.8" height="18.0" rx="0" fill="none" fill-opacity="0.38"   transform="translate(66.4 21.4) rotate(290.1) scale(1.25 1.42)" />
<rect x="9.7" y="62.1" width="40.3" height="32.6" rx="0" fill="none" fill-opacity="0.70"    />
<path d="M 89.8 78.7 C 97.2 71.9, 50.2 0.0, 59.9 2.1 C 70.7 0.0, 68.1 4.9, 67.9 10.8 C 65.3 0.0, 36.9 71.5, 25.7 74.4 C 23.8 89.3, 56.7 81.1, 64.8 81.2 C 52.6 62.7, 73.7 36.5, 84.3 36.0 C 92.5 28.6, 86.3 60.2, 95.8 74.0 Z" fill="hsl(183, 71%, 60%)" fill-opacity="0.78" stroke="none" stroke-width="4.50"  transform="translate(21.4 47.8) rotate(333.8) scale(0.73 1.03)" />
<circle cx="70.8" cy="27.5" r="4.5" fill="hsl(242, 72%, 49%)" fill-opacity="0.99"  transform="translate(52.5 35.9) rotate(166.7) scale(1.00 1.27)" />
<rect x="4.5" y="10.3" width="44.1" height="28.6" rx="0" fill="hsl(86, 72%, 68%)" fill-opacity="0.21"   transform="translate(71.3 79.4) rotate(22.8) scale(1.36 1.43)" />
<path d="M 37.1 79.3 C 52.8 65.5, 26.5 1.4, 23.2 7.9 C 33.1 20.2, 0.0 29.3, 5.2 27.4 C 2.5 24.1, 34.0 19.5, 23.9 21.2 C 14.4 7.9, 2.5 46.2, 10.2 33.4 C 29.7 52.9, 86.6 64.2, 80.3 67.0 C 94.7 80.1, 20.5 26.1, 25.6 14.2 C 45.5 0.0, 27.5 42.0, 24.6 42.6 C 25.7 59.9, 13.2 43.9, 23.0 54.5 C 17.9 48.5, 30.4 17.9, 22.3 13.9 Z" fill="none" fill-opacity="0.86" stroke="hsl(183, 71%, 60%)" stroke-width="4.19"  transform="translate(13.1 80.9) rotate(319.3) scale(1.25 0.65)" />
<rect x="33.1" y="66.0" width="37.9" height="15.0" rx="2.7" fill="none" fill-opacity="0.32" stroke="hsl(2, 82%, 55%)" stroke-width="4.4"  transform="translate(81.9 7.7) rotate(196.0) scale(1.10 1.38)" />
<circle cx="97.6" cy="58.2" r="8.8" fill="hsl(40, 53%, 69%)" fill-opacity="0.96"  transform="translate(4.9 69.9) rotate(266.8) scale(1.69 1.11)" />
<circle cx="68.7" cy="66.2" r="4.6" fill="hsl(290, 83%, 63%)" fill-opacity="0.88"  transform="translate(79.4 23.1) rotate(342.9) scale(1.74 1.27)" />
<rect x="32.0" y="1.1" width="46.6" height="12.8" rx="0" fill="hsl(104, 72%, 65%)" fill-opacity="0.38" stroke="hsl(151, 70%, 62%)" stroke-width="2.4"  transform="translate(14.6 39.0) rotate(111.9) scale(0.92 0.62)" />
<path d="M 3.4 86.2 C 13.5 100.0, 58.9 4.1, 62.1 7.2 C 74.1 0.0, 63.2 24.7, 75.1 27.5 C 74.1 27.9, 18.4 82.0, 22.0 82.2 C 15.3 89.6, 76.5 12.4, 77.8 12.5 C 68.8 6.1, 69.0 52.9, 70.4 62.1 C 86.1 73.8, 100.0 66.1, 97.8 65.7 C 89.7 61.2, 66.9 19.6, 74.9 25.4 C 93.7 9.6, 100.0 34.9, 98.7 23.7 C 99.5 31.6, 7.0 40.7, 18.3 55.1 Z" fill="hsl(86, 72%, 68%)" fill-opacity="0.78" stroke="none" stroke-width="0.86"  transform="translate(66.7 76.5) rotate(88.1) scale(0.70 1.92)" />
<path d="M 91.9 4.1 C 89.8 12.4, 75.4 88.3, 87.5 74.4 C 86.9 84.9, 58.4 1.0, 45.6 14.1 C 38.2 22.6, 72.7 2.6, 82.8 4.6 C 100.0 14.1, 65.0 17.1, 71.2 26.0 C 72.5 33.1, 60.8 9.6, 60.1 13.2 C 68.1 28.2, 89.5 87.8, 89.6 77.2 Z" fill="none" fill-opacity="0.99" stroke="hsl(183, 71%, 60%)" stroke-width="2.71"  transform="translate(37.8 76.4) rotate(121.4) scale(1.29 1.42)" />
<path d="M 74.5 12.8 C 72.2 27.2, 95.2 62.4, 88.7 51.0 C 100.0 37.7, 27.0 12.5, 33.9 27.2 C 18.8 37.9, 87.2 100.0, 74.7 96.4 C 78.4 100.0, 54.2 98.1, 45.5 84.7 C 31.1 80.4, 90.5 42.0, 94.3 35.2 C 82.7 30.1, 74.7 45.8, 84.5 37.6 " fill="none" fill-opacity="0.29" stroke="hsl(104, 72%, 65%)" stroke-width="3.47"  transform="translate(98.2 59.7) rotate(86.5) scale(1.59 1.60)" />
<path d="M 44.7 94.1 C 52.1 100.0, 53.5 26.5, 46.8 31.8 C 58.6 37.5, 19.6 3.9, 24.7 14.7 C 8.5 1.2, 74.9 23.2, 75.7 22.8 C 76.0 25.9, 27.6 27.0, 32.2 13.4 C 49.4 6.4, 95.1 94.2, 97.2 84.8 C 100.0 70.1, 49.7 61.6, 62.9 48.4 Z" fill="hsl(151, 70%, 62%)" fill-opacity="0.50" stroke="none" stroke-width="1.53" filter="url(#f1)"  />
<rect x="15.4" y="38.4" width="46.6" height="24.3" rx="5.3" fill="none" fill-opacity="0.22"   transform="translate(97.8 16.5) rotate(16.5) scale(1.65 1.93)" />
<rect x="56.8" y="19.8" width="38.3" height="28.9" rx="0" fill="hsl(242, 72%, 49%)" fill-opacity="0.95"   transform="translate(32.3 22.6) rotate(56.7) scale(1.17 1.41)" />
<rect x="32.0" y="38.9" width="31.5" height="13.9" rx="0" fill="hsl(86, 72%, 68%)" fill-opacity="0.80" stroke="hsl(83, 65%, 44%)" stroke-width="3.8"   />
<path d="M 63.3 83.5 C 47.2 71.4, 95.5 41.7, 80.7 55.3 C 94.5 49.8, 62.0 16.5, 54.8 23.8 C 60.8 37.8, 88.5 100.0, 85.2 93.0 C 100.0 96.7, 61.4 83.6, 71.6 73.3 C 62.8 74.4, 52.1 10.9, 61.1 8.0 C 42.0 0.6, 75.9 32.6, 61.2 42.9 Z" fill="hsl(290, 83%, 63%)" fill-opacity="0.49" stroke="none" stroke-width="1.03"  transform="translate(38.1 5.1) rotate(235.9) scale(1.56 1.74)" />
<circle cx="0.7" cy="17.8" r="5.5" fill="hsl(40, 53%, 69%)" fill-opacity="0.90"  transform="translate(45.1 49.2) rotate(168.1) scale(1.43 0.71)" />
<rect x="40.3" y="59.4" width="34.6" height="39.8" rx="0" fill="hsl(83, 65%, 44%)" fill-opacity="0.85"   transform="translate(27.7 55.8) rotate(215.4) scale(1.00 1.45)" />
<circle cx="75.1" cy="3.3" r="0.7" fill="hsl(144, 86%, 72%)" fill-opacity="0.97"  transform="translate(72.8 21.0) rotate(155.5) scale(1.95 0.89)" />
<path d="M 81.5 26.3 C 77.4 13.5, 58.0 94.9, 51.7 88.7 C 43.5 93.8, 19.1 94.7, 27.0 94.4 C 42.6 100.0, 32.7 37.8, 34.2 27.9 C 22.6 27.8, 27.3 4.8, 14.1 13.0 C 25.7 26.1, 9.2 50.1, 23.9 63.4 C 16.0 52.9, 100.0 79.7, 90.9 72.2 Z" fill="none" fill-opacity="0.79" stroke="hsl(104, 72%, 65%)" stroke-width="4.67"  transform="translate(12.1 70.0) rotate(285.6) scale(1.51 1.99)" />
<path d="M 59.4 31.9 C 62.4 42.9, 28.7 83.4, 39.0 73.5 C 56.5 92.5, 8.4 48.4, 8.4 37.1 C 21.1 24.0, 24.5 76.6, 38.8 71.5 C 39.3 65.7, 100.0 56.9, 97.1 60.1 C 77.3 59.6, 22.0 77.1, 33.3 75.3 C 23.1 79.2, 0.2 0.0, 9.0 0.5 C 0.0 0.0, 94.7 60.0, 84.2 52.5 C 70.5 43.8, 18.7 21.4, 10.5 25.5 C 0.0 15.3, 59.3 76.0, 60.2 69.1 C 43.4 81.8, 46.1 95.3, 35.6 91.9 " fill="none" fill-opacity="0.48" stroke="hsl(183, 71%, 60%)" stroke-width="5.16"  transform="translate(4.4 41.1) rotate(106.5) scale(0.54 1.44)" />
<circle cx="50.6" cy="77.2" r="11.8" fill="hsl(86, 72%, 68%)" fill-opacity="0.77"  transform="translate(21.2 32.1) rotate(3.6) scale(1.14 1.90)" />
<rect x="6.5" y="84.5" width="20.7" height="12.7" rx="0" fill="hsl(151, 70%, 62%)" fill-opacity="0.88"   transform="translate(86.1 31.3) rotate(221.2) scale(1.24 1.02)" />
<path d="M 33.3 73.5 C 34.6 72.8, 91.4 94.5, 93.2 94.9 C 79.6 89.7, 38.8 40.2, 27.2 51.9 C 40.6 40.5, 98.8 28.2, 86.0 19.6 C 91.3 17.2, 77.2 23.0, 88.3 31.7 C 97.0 24.3, 0.0 65.9, 4.9 64.0 C 0.0 77.1, 73.1 73.3, 76.5 81.4 Z" fill="none" fill-opacity="0.94" stroke="hsl(106, 75%, 59%)" stroke-width="5.19"  transform="translate(19.0 59.0) rotate(44.8) scale(1.93 0.68)" />
<rect x="35.6" y="22.9" width="23.2" height="18.9" rx="10.5" fill="hsl(151, 70%, 62%)" fill-opacity="0.31"   transform="translate(34.1 87.4) rotate(229.4) scale(1.22 0.89)" />
<path d="M 3.1 98.9 C 15.8 100.0, 51.6 100.0, 57.9 96.0 C 64.2 100.0, 76.7 41.0, 62.5 43.2 C 45.6 46.4, 74.7 36.2, 75.4 27.8 C 63.7 31.7, 79.2 26.6, 80.4 40.3 C 78.1 32.3, 58.8 5.5, 70.1 15.2 C 51.3 25.7, 80.9 52.7, 90.3 63.9 C 87.2 74.5, 94.8 36.4, 99.0 51.4 C 88.3 50.7, 61.8 77.5, 59.7 66.1 Z" fill="hsl(242, 72%, 49%)" fill-opacity="0.65" stroke="none" stroke-width="3.08"  transform="translate(60.7 5.4) rotate(226.5) scale(0.58 1.76)" />
<path d="M 12.3 43.2 C 0.9 61.8, 0.0 33.5, 5.9 26.8 C 16.6 25.2, 18.6 27.7, 17.1 28.2 C 33.0 22.1, 20.2 13.8, 25.4 23.9 C 24.0 34.6, 20.7 37.6, 16.3 28.9 C 36.3 15.4, 13.3 84.8, 11.9 76.3 C 0.0 75.6, 26.2 5.4, 32.7 20.3 C 16.4 14.5, 49.7 56.9, 56.7 65.3 C 41.9 65.6, 69.7 97.1, 70.8 84.4 C 74.2 79.6, 69.6 29.2, 69.1 26.5 Z" fill="hsl(290, 83%, 63%)" fill-opacity="0.29" stroke="none" stroke-width="3.05" filter="url(#f1)"  />
<circle cx="61.0" cy="66.3" r="4.0" fill="hsl(242, 72%, 49%)" fill-opacity="0.92"  transform="translate(2.1 59.5) rotate(304.1) scale(1.95 1.58)" />
<path d="M 93.4 58.1 C 89.6 74.3, 46.7 24.7, 57.9 21.2 C 62.6 27.5, 82.9 100.0, 86.9 95.2 C 100.0 93.0, 100.0 50.8, 95.5 65.1 C 100.0 61.7, 22.7 29.8, 32.8 36.5 C 15.0 36.4, 43.6 52.9, 31.8 60.5 C 20.9 50.4, 9.5 29.3, 12.6 17.6 C 12.8 35.0, 65.7 11.5, 74.8 26.1 C 67.6 9.9, 100.0 64.2, 99.6 66.2 C 100.0 79.6, 66.3 54.7, 78.9 41.4 " fill="none" fill-opacity="0.79" stroke="hsl(144, 86%, 72%)" stroke-width="5.10"  transform="translate(6.6 27.7) rotate(102.1) scale(0.61 1.11)" />
<path d="M 32.7 68.6 C 30.2 79.0, 15.2 100.0, 3.5 92.7 C 0.0 82.7, 26.3 23.4, 36.4 31.7 C 50.1 39.4, 14.4 58.2, 4.2 54.2 C 0.0 43.1, 44.0 36.0, 42.0 49.6 C 53.9 51.6, 8.8 67.2, 22.9 59.9 C 19.3 64.6, 9.6 32.1, 4.2 43.9 C 17.7 29.3, 61.1 33.1, 67.0 22.3 C 73.3 18.5, 49.3 63.5, 35.7 68.0 C 19.9 76.6, 19.7 15.0, 18.8 7.3 " fill="none" fill-opacity="0.47" stroke="hsl(83, 65%, 44%)" stroke-width="4.78"  transform="translate(66.4 54.7) rotate(90.4) scale(1.83 1.78)" />
<path d="M 11.9 63.1 C 21.0 66.9, 59.8 20.3, 73.5 11.3 C 59.1 27.5, 74.3 93.7, 76.4 96.9 C 95.6 84.7, 10.9 80.5, 20.5 77.2 C 36.0 61.9, 84.3 94.3, 96.1 97.0 C 91.3 100.0, 21.5 13.9, 13.2 7.8 C 0.0 19.5, 63.5 29.6, 69.7 37.5 C 71.8 32.4, 0.0 73.4, 1.9 71.5 Z" fill="none" fill-opacity="0.75" stroke="hsl(83, 65%, 44%)" stroke-width="4.42"  transform="translate(31.1 18.6) rotate(62.7) scale(1.67 0.63)" />
<circle cx="66.4" cy="6.8" r="6.0" fill="url(#g1)" fill-opacity="0.86" filter="url(#f1)" transform="translate(41.1 8.4) rotate(263.3) scale(1.36 1.89)" />
<path d="M 62.2 36.1 C 81.7 32.4, 63.3 67.1, 61.4 61.3 C 76.8 45.8, 75.2 23.2, 71.3 10.1 C 56.3 6.9, 67.0 37.7, 74.1 32.1 C 67.7 39.3, 19.0 84.3, 6.4 77.8 C 0.0 97.3, 82.1 32.8, 94.5 21.6 C 85.9 30.6, 87.0 70.2, 81.8 79.8 Z" fill="hsl(322, 74%, 44%)" fill-opacity="0.52" stroke="none" stroke-width="1.50"  transform="translate(47.7 69.5) rotate(143.2) scale(1.29 1.26)" />
<path d="M 91.8 94.0 C 95.2 100.0, 35.7 65.7, 22.0 72.4 C 31.4 83.6, 19.6 60.4, 18.4 70.9 C 37.8 87.2, 31.9 67.9, 18.0 75.2 C 34.3 73.5, 10.3 4.0, 1.0 14.6 C 0.0 32.5, 70.7 0.0, 83.2 6.9 C 99.7 0.0, 84.2 28.5, 81.8 40.0 C 76.2 41.4, 47.5 26.5, 45.0 17.1 C 61.0 33.8, 27.7 23.8, 26.0 25.2 C 42.0 35.9, 81.4 98.2, 87.9 97.6 C 86.3 95.1, 93.8 37.2, 98.7 29.1 " fill="none" fill-opacity="0.64" stroke="hsl(242, 72%, 49%)" stroke-width="2.13"  transform="translate(16.7 2.4) rotate(353.8) scale(1.60 0.99)" />
<circle cx="21.0" cy="99.3" r="7.1" fill="hsl(83, 65%, 44%)" fill-opacity="0.83" filter="url(#f1)" transform="translate(86.9 45.6) rotate(355.8) scale(1.76 0.87)" />
<path d="M 3.8 79.8 C 9.1 85.8, 11.5 55.6, 6.9 43.2 C 0.0 52.7, 71.4 54.1, 73.0 46.0 C 73.0 36.0, 61.4 55.7, 58.3 58.2 C 63.0 55.4, 25.3 69.0, 32.8 56.1 C 29.4 69.1, 30.8 20.1, 40.0 26.0 C 40.4 19.4, 63.2 58.8, 67.2 66.4 C 68.8 85.4, 76.0 88.4, 70.3 83.3 Z" fill="hsl(144, 86%, 72%)" fill-opacity="0.90" stroke="none" stroke-width="5.18"  transform="translate(29.5 54.9) rotate(28.3) scale(0.59 1.15)" />
<rect x="6.6" y="18.1" width="27.4" height="37.3" rx="0" fill="hsl(242, 72%, 49%)" fill-opacity="0.64"   transform="translate(33.9 61.9) rotate(63.9) scale(0.72 1.14)" />
<path d="M 47.3 3.3 C 53.3 0.0, 81.0 67.4, 95.1 58.9 C 94.5 76.4, 0.0 0.0, 7.4 7.8 C 17.9 24.1, 72.8 91.6, 79.9 97.6 C 96.4 84.6, 83.6 94.6, 70.0 82.0 C 81.9 62.2, 57.9 78.7, 67.0 92.1 C 60.8 91.0, 100.0 20.2, 98.2 6.1 C 95.2 0.0, 19.1 7.3, 33.9 8.2 C 50.3 0.0, 76.6 11.0, 86.1 6.3 C 78.6 16.1, 33.1 0.0, 19.6 13.7 C 20.8 5.0, 99.5 100.0, 96.0 97.9 " fill="none" fill-opacity="0.62" stroke="hsl(144, 86%, 72%)" stroke-width="2.49"   />
<path d="M 75.1 59.1 C 85.9 56.5, 23.2 79.5, 10.3 92.5 C 25.2 100.0, 24.3 49.5, 14.4 49.4 C 27.6 43.3, 55.4 73.1, 44.9 73.7 C 51.9 72.5, 8.7 60.5, 20.0 62.3 C 1.9 65.5, 70.6 18.4, 57.7 25.5 C 67.0 8.7, 0.0 41.8, 6.9 50.2 C 19.1 66.1, 73.6 37.1, 68.6 27.2 Z" fill="hsl(183, 71%, 60%)" fill-opacity="0.27" stroke="none" stroke-width="2.83"  transform="translate(33.5 97.2) rotate(174.7) scale(1.55 0.94)" />
<circle cx="99.2" cy="96.6" r="9.3" fill="hsl(290, 83%, 63%)" fill-opacity="0.55" filter="url(#f1)" transform="translate(65.8 28.4) rotate(231.1) scale(1.99 1.70)" />
<rect x="35.6" y="53.2" width="47.0" height="14.9" rx="0" fill="none" fill-opacity="0.60" stroke="hsl(86, 72%, 68%)" stroke-width="2.4"   />
<circle cx="92.4" cy="56.2" r="9.2" fill="url(#g0)" fill-opacity="0.51"  transform="translate(47.5 71.0) rotate(320.8) scale(0.54 1.58)" />
<rect x="39.8" y="2.4" width="31.0" height="23.9" rx="11.1" fill="none" fill-opacity="0.79" stroke="hsl(151, 70%, 62%)" stroke-width="2.7"  transform="translate(19.9 73.5) rotate(246.2) scale(1.14 1.27)" />
<path d="M 36.8 96.6 C 36.2 100.0, 29.2 74.5, 33.3 69.3 C 32.5 69.2, 37.8 5.4, 37.7 13.7 C 41.0 0.0, 30.3 61.6, 21.5 55.8 C 31.5 53.7, 23.8 40.9, 29.5 42.9 C 45.1 25.6, 85.9 10.6, 89.1 21.0 C 89.7 16.2, 79.9 100.0, 73.4 97.1 C 60.8 95.4, 33.5 65.9, 36.6 52.2 C 47.8 38.7, 100.0 69.6, 98.3 83.9 Z" fill="none" fill-opacity="0.32" stroke="hsl(40, 53%, 69%)" stroke-width="4.79"  transform="translate(33.5 0.7) rotate(286.5) scale(1.33 1.85)" />
<rect x="68.5" y="19.8" width="27.3" height="33.5" rx="7.1" fill="hsl(104, 72%, 65%)" fill-opacity="0.29"   transform="translate(48.4 13.1) rotate(115.1) scale(0.95 1.95)" />
<circle cx="43.1" cy="2.6" r="3.9" fill="url(#g2)" fill-opacity="0.55" filter="url(#f1)"  />
<path d="M 52.1 19.7 C 59.5 1.3, 0.0 10.0, 3.1 21.0 C 8.2 6.0, 66.5 13.8, 64.5 5.8 C 70.8 22.6, 92.7 100.0, 98.6 97.1 C 84.2 86.7, 85.1 100.0, 82.6 94.4 C 90.5 77.7, 88.3 47.8, 84.3 39.4 C 96.9 53.6, 15.6 67.7, 6.6 66.1 C 26.3 52.0, 44.7 95.3, 56.3 89.1 Z" fill="hsl(106, 75%, 59%)" fill-opacity="0.39" stroke="none" stroke-width="2.56"  transform="translate(7.3 76.8) rotate(246.6) scale(1.72 1.58)" />
<path d="M 27.9 67.4 C 23.1 85.0, 33.0 0.0, 45.1 8.5 C 58.0 0.9, 100.0 19.1, 97.3 12.4 C 84.3 5.0, 21.7 0.0, 13.2 2.5 C 19.8 0.0, 27.6 39.9, 23.9 42.8 C 40.4 27.2, 84.1 70.7, 92.4 74.0 C 100.0 59.6, 21.4 82.2, 26.5 80.4 C 16.8 72.9, 4.3 47.9, 2.9 48.7 Z" fill="none" fill-opacity="0.43" stroke="hsl(242, 72%, 49%)" stroke-width="0.86"  transform="translate(37.2 2.4) rotate(315.7) scale(0.87 1.04)" />
<circle cx="65.8" cy="19.6" r="0.1" fill="url(#g0)" fill-opacity="0.56"  transform="translate(80.1 86.6) rotate(326.0) scale(1.54 1.29)" />
<rect x="10.8" y="71.7" width="41.1" height="23.8" rx="7.6" fill="none" fill-opacity="0.85" stroke="hsl(322, 74%, 44%)" stroke-width="1.4"  transform="translate(24.3 33.0) rotate(103.8) scale(0.67 0.83)" />
<path d="M 80.1 96.5 C 93.6 99.2, 64.7 8.4, 68.7 22.8 C 68.4 22.1, 46.0 3.2, 35.3 0.8 C 23.9 6.7, 5.1 54.0, 16.5 40.4 C 35.5 37.3, 29.1 29.1, 20.6 16.0 C 9.0 9.8, 61.3 62.5, 48.5 47.9 C 49.5 47.1, 36.9 40.3, 51.3 41.7 C 62.9 23.3, 71.7 53.3, 62.2 42.7 Z" fill="hsl(144, 86%, 72%)" fill-opacity="0.39" stroke="none" stroke-width="1.16"  transform="translate(64.3 9.6) rotate(84.7) scale(1.85 1.24)" />
<rect x="11.7" y="57.0" width="27.0" height="21.3" rx="0" fill="hsl(183, 71%, 60%)" fill-opacity="0.56"   transform="translate(3.2 3.7) rotate(21.2) scale(1.58 1.65)" />
<path d="M 40.0 92.0 C 56.3 95.3, 28.9 93.1, 30.8 90.4 C 21.9 94.1, 19.9 55.2, 29.0 54.3 C 20.8 45.4, 95.8 88.4, 95.0 83.9 C 98.3 88.8, 33.8 74.7, 18.9 89.5 C 33.7 97.1, 100.0 70.7, 95.0 83.0 C 82.3 100.0, 71.9 5.5, 69.1 7.3 C 71.0 26.8, 62.5 67.5, 67.6 64.7 C 51.6 56.0, 0.1 85.4, 11.7 99.1 C 12.1 88.0, 57.8 97.2, 45.5 97.2 C 29.1 79.7, 93.6 79.0, 87.5 91.7 Z" fill="none" fill-opacity="0.47" stroke="hsl(322, 74%, 44%)" stroke-width="4.20" filter="url(#f1)" transform="translate(11.2 81.1) rotate(144.3) scale(0.84 1.59)" />
<rect x="59.1" y="10.7" width="23.8" height="21.8" rx="0" fill="none" fill-opacity="0.67"   transform="translate(42.0 62.3) rotate(27.4) scale(1.70 1.92)" />
<rect x="73.6" y="57.3" width="25.2" height="28.6" rx="12.2" fill="hsl(2, 82%, 55%)" fill-opacity="0.35" stroke="hsl(83, 65%, 44%)" stroke-width="2.0"  transform="translate(92.7 91.0) rotate(108.2) scale(1.24 1.72)" />
<path d="M 78.2 43.7 C 86.8 42.0, 68.3 23.3, 78.6 15.6 C 84.5 32.7, 0.2 35.8, 2.9 34.3 C 6.6 21.1, 15.7 44.1, 29.7 34.0 C 35.2 19.1, 5.6 72.0, 5.0 71.9 C 0.0 74.4, 70.1 97.1, 63.1 90.0 C 67.6 95.8, 81.8 5.6, 89.9 14.0 C 74.9 4.7, 9.2 69.7, 1.7 83.9 C 14.9 100.0, 39.1 77.7, 50.7 66.1 C 44.5 58.8, 32.5 94.0, 41.8 90.8 Z" fill="hsl(106, 75%, 59%)" fill-opacity="0.86" stroke="none" stroke-width="2.94"  transform="translate(54.1 73.4) rotate(258.2) scale(0.64 1.44)" />
<circle cx="36.2" cy="72.7" r="3.7" fill="hsl(151, 70%, 62%)" fill-opacity="1.00"  transform="translate(32.2 40.8) rotate(4.0) scale(1.06 1.30)" />
<circle cx="72.3" cy="99.3" r="9.5" fill="url(#g0)" fill-opacity="0.58"  transform="translate(17.4 31.3) rotate(143.1) scale(1.43 1.42)" />
<path d="M 83.8 88.3 C 65.4 100.0, 60.2 100.0, 72.0 90.6 C 54.0 80.9, 56.8 33.1, 67.0 20.3 C 86.3 25.0, 37.0 97.3, 40.2 94.6 C 53.3 84.1, 76.0 57.5, 73.2 45.1 C 82.2 53.3, 90.6 83.7, 79.8 71.7 C 60.6 56.7, 3.0 4.8, 8.6 13.0 C 22.3 0.0, 80.7 17.0, 92.2 20.9 C 87.8 33.6, 9.9 7.0, 18.3 12.7 C 7.6 11.5, 77.1 61.0, 62.3 74.8 C 64.9 87.8, 76.7 5.6, 68.5 17.6 " fill="hsl(242, 72%, 49%)" fill-opacity="0.37" stroke="none" stroke-width="3.84"  transform="translate(14.9 84.1) rotate(356.9) scale(0.87 1.89)" />
<circle cx="69.1" cy="38.9" r="6.9" fill="url(#g1)" fill-opacity="0.41" filter="url(#f1)" transform="translate(80.9 9.4) rotate(354.4) scale(0.77 1.94)" />
<path d="M 16.2 27.6 C 26.3 27.2, 80.1 57.5, 91.3 51.5 C 71.7 43.8, 9.4 87.4, 14.0 91.6 C 9.6 100.0, 55.5 23.5, 61.1 20.6 C 53.9 10.5, 71.4 19.9, 84.8 16.2 C 75.3 33.0, 71.9 71.2, 79.6 74.5 C 94.1 77.5, 15.0 28.8, 26.0 34.4 C 41.9 34.4, 23.0 78.3, 11.3 82.3 C 17.6 65.8, 51.0 99.7, 58.5 85.1 Z" fill="hsl(2, 82%, 55%)" fill-opacity="0.54" stroke="none" stroke-width="1.75" filter="url(#f1)" transform="translate(35.3 45.8) rotate(101.4) scale(1.90 1.62)" />
<path d="M 44.4 3.2 C 31.5 22.4, 28.3 50.0, 37.5 56.7 C 55.7 42.9, 52.2 0.0, 44.2 1.7 C 52.1 9.5, 0.0 76.8, 3.4 83.6 C 15.6 77.8, 7.5 0.0, 14.7 2.5 C 31.9 16.2, 27.3 5.3, 20.7 14.7 C 24.5 4.0, 64.6 62.1, 52.4 57.5 C 41.6 52.7, 45.3 89.1, 31.3 75.4 Z" fill="hsl(83, 65%, 44%)" fill-opacity="0.60" stroke="none" stroke-width="2.36"  transform="translate(75.5 0.6) rotate(192.2) scale(1.62 0.76)" />
<path d="M 87.3 96.3 C 98.1 100.0, 83.6 41.0, 80.3 39.0 C 65.6 56.0, 100.0 0.0, 97.7 7.6 C 90.3 20.6, 26.7 58.7, 30.0 58.9 C 23.0 68.7, 27.0 82.6, 25.0 82.6 C 40.3 70.6, 16.0 37.6, 4.7 24.3 C 5.3 12.7, 62.2 51.3, 59.6 50.6 C 66.7 65.9, 21.7 48.7, 24.9 33.8 C 18.8 45.4, 40.7 39.6, 51.3 51.4 C 63.6 37.8, 2.5 61.6, 7.1 73.3 C 20.5 75.1, 41.4 40.0, 50.8 27.7 " fill="hsl(183, 71%, 60%)" fill-opacity="0.46" stroke="none" stroke-width="1.29"  transform="translate(87.9 35.6) rotate(304.2) scale(1.39 0.85)" />
<rect x="64.8" y="83.3" width="26.0" height="15.2" rx="10.3" fill="none" fill-opacity="0.84" stroke="hsl(2, 82%, 55%)" stroke-width="3.0"  transform="translate(59.2 60.4) rotate(280.3) scale(1.70 0.99)" />
<rect x="31.1" y="22.6" width="46.6" height="18.1" rx="3.5" fill="none" fill-opacity="0.37"   transform="translate(59.2 76.7) rotate(10.0) scale(0.51 1.46)" />
<path d="M 96.4 41.6 C 86.1 48.7, 6.5 42.4, 8.9 27.7 C 6.1 43.7, 15.9 22.2, 24.5 25.6 C 9.5 43.3, 74.1 82.3, 79.3 96.9 C 92.5 90.6, 52.6 82.2, 39.3 68.8 C 29.1 52.3, 80.4 27.3, 76.2 23.9 C 69.1 19.5, 82.0 82.1, 76.1 73.9 C 91.0 89.0, 22.1 75.2, 30.3 64.9 C 30.9 80.3, 13.7 18.1, 10.8 4.3 Z" fill="hsl(290, 83%, 63%)" fill-opacity="0.33" stroke="none" stroke-width="1.59"  transform="translate(6.2 6.8) rotate(341.0) scale(0.89 1.93)" />
<rect x="49.6" y="0.8" width="29.8" height="33.1" rx="19.4" fill="none" fill-opacity="0.99"   transform="translate(2.1 96.2) rotate(74.5) scale(1.58 0.71)" />
<path d="M 62.5 25.7 C 59.2 16.9, 20.2 11.1, 16.9 21.0 C 0.8 3.7, 0.0 33.6, 9.7 24.6 C 2.1 17.6, 49.5 53.4, 52.6 50.0 C 35.1 53.5, 80.7 69.0, 79.6 78.6 C 60.2 80.1, 38.6 23.8, 49.9 37.7 C 54.5 34.7, 60.9 32.2, 53.5 46.0 Z" fill="none" fill-opacity="0.95" stroke="hsl(40, 53%, 69%)" stroke-width="3.64"  transform="translate(50.8 38.3) rotate(332.8) scale(1.67 1.85)" />
<path d="M 49.4 52.4 C 39.2 48.4, 40.5 73.9, 26.5 88.0 C 22.9 70.0, 12.3 70.1, 18.6 70.3 C 19.2 55.5, 88.1 88.3, 82.9 77.9 C 73.1 72.5, 88.9 44.6, 76.3 54.1 C 92.9 68.0, 90.5 57.9, 96.2 55.6 C 91.7 37.7, 35.0 66.7, 31.9 66.3 C 51.8 55.3, 66.3 28.5, 75.9 23.7 C 87.9 21.5, 1.1 100.0, 0.9 98.5 C 2.3 100.0, 18.7 68.8, 16.5 74.8 Z" fill="none" fill-opacity="0.94" stroke="hsl(242, 72%, 49%)" stroke-width="2.88"  transform="translate(67.7 92.8) rotate(352.8) scale(1.69 1.98)" />
<circle cx="20.9" cy="71.0" r="10.7" fill="hsl(2, 82%, 55%)" fill-opacity="0.42"  transform="translate(26.9 55.4) rotate(302.1) scale(0.65 1.19)" />
<path d="M 16.9 6.5 C 8.4 12.2, 47.1 82.4, 47.5 68.2 C 63.1 68.4, 93.9 56.1, 98.7 52.4 C 84.5 36.6, 27.0 32.7, 32.4 39.6 C 30.8 51.7, 56.6 92.3, 42.7 100.0 C 42.9 96.8, 100.0 71.3, 94.6 69.2 C 88.0 55.0, 96.1 24.4, 86.3 36.8 Z" fill="none" fill-opacity="0.85" stroke="hsl(104, 72%, 65%)" stroke-width="4.60"   />
<rect x="61.1" y="26.5" width="36.6" height="31.6" rx="0" fill="hsl(40, 53%, 69%)" fill-opacity="0.80" stroke="hsl(151, 70%, 62%)" stroke-width="2.4"  transform="translate(69.4 100.0) rotate(73.3) scale(1.12 1.54)" />
<path d="M 34.8 82.5 C 18.7 87.5, 92.7 63.6, 86.4 52.9 C 96.0 45.9, 66.9 0.0, 79.6 0.4 C 64.4 0.0, 88.1 41.6, 86.2 55.6 C 77.3 55.5, 100.0 10.0, 87.8 10.8 C 91.5 4.8, 49.8 24.8, 60.6 35.4 C 58.5 40.2, 33.9 40.1, 40.2 55.1 C 40.4 66.8, 45.8 53.9, 47.0 41.8 " fill="hsl(104, 72%, 65%)" fill-opacity="0.44" stroke="none" stroke-width="3.78" filter="url(#f1)" transform="translate(1.1 89.1) rotate(195.1) scale(0.53 0.72)" />
<circle cx="11.9" cy="33.4" r="11.3" fill="url(#g1)" fill-opacity="0.49"   />
<path d="M 44.6 8.8 C 44.4 0.0, 94.0 42.3, 97.1 52.7 C 100.0 46.6, 0.0 81.7, 7.1 93.9 C 5.3 100.0, 0.0 87.0, 2.4 91.7 C 17.8 78.9, 16.4 37.6, 14.2 43.7 C 0.0 35.2, 0.0 98.3, 4.5 99.7 C 13.9 100.0, 90.3 38.2, 91.7 34.2 C 93.1 47.3, 67.2 44.2, 53.2 41.7 C 59.6 29.9, 54.1 75.6, 60.6 83.6 Z" fill="none" fill-opacity="0.55" stroke="hsl(106, 75%, 59%)" stroke-width="3.49"   />
<path d="M 55.9 81.8 C 51.3 64.4, 21.9 32.8, 36.2 36.7 C 25.7 30.6, 42.4 18.4, 28.1 7.8 C 18.7 0.0, 17.3 69.6, 4.4 78.1 C 9.0 60.1, 53.6 18.7, 44.2 4.2 C 46.1 0.0, 64.8 52.5, 68.6 46.5 C 78.9 30.3, 70.5 28.3, 68.4 31.5 C 48.8 31.9, 23.7 33.2, 11.9 34.7 Z" fill="hsl(40, 53%, 69%)" fill-opacity="0.79" stroke="none" stroke-width="1.45"  transform="translate(39.8 73.0) rotate(358.8) scale(1.66 1.52)" />
<circle cx="92.9" cy="86.1" r="0.8" fill="hsl(86, 72%, 68%)" fill-opacity="0.60"  transform="translate(34.3 74.7) rotate(219.7) scale(0.54 1.69)" />
<path d="M 78.9 52.0 C 98.2 59.7, 15.9 77.6, 9.7 87.6 C 16.9 89.2, 59.5 64.1, 45.9 55.8 C 53.5 47.4, 6.4 41.2, 5.1 31.8 C 0.0 34.4, 95.9 56.3, 83.3 42.0 C 81.1 26.0, 25.2 71.1, 22.7 71.3 C 41.8 72.5, 10.9 7.6, 25.7 18.4 C 28.9 3.0, 100.0 45.5, 90.2 47.5 C 100.0 32.0, 29.0 13.4, 34.3 18.3 Z" fill="hsl(290, 83%, 63%)" fill-opacity="0.51" stroke="none" stroke-width="2.62"  transform="translate(23.9 9.4) rotate(239.6) scale(1.18 1.44)" />
<rect x="32.2" y="10.0" width="47.0" height="12.6" rx="0" fill="none" fill-opacity="0.42"   transform="translate(50.8 39.8) rotate(299.1) scale(0.90 0.70)" />
<circle cx="3.0" cy="69.0" r="19.7" fill="url(#g0)" fill-opacity="0.81"  transform="translate(16.2 69.9) rotate(199.9) scale(0.60 0.52)" />
<path d="M 73.5 66.5 C 73.6 74.6, 82.4 27.5, 82.7 17.1 C 82.2 12.0, 29.9 10.2, 27.1 24.0 C 21.8 23.1, 32.2 92.3, 38.1 79.7 C 38.3 80.3, 15.4 53.6, 28.0 47.6 C 23.6 51.2, 15.5 0.0, 5.6 8.4 C 8.7 0.0, 51.6 51.7, 56.7 58.0 C 76.2 76.1, 7.8 92.8, 15.4 80.2 C 16.7 79.2, 52.8 0.3, 45.9 1.3 C 46.1 10.8, 97.6 82.5, 96.7 91.0 C 100.0 71.9, 69.7 88.9, 59.1 91.0 Z" fill="hsl(40, 53%, 69%)" fill-opacity="0.78" stroke="none" stroke-width="4.40"  transform="translate(92.3 85.4) rotate(281.5) scale(1.29 1.17)" />
<path d="M 36.8 14.2 C 47.5 17.9, 74.1 59.1, 65.1 61.5 C 84.5 79.5, 45.1 64.1, 40.4 71.5 C 43.7 60.3, 77.6 60.7, 70.7 69.7 C 59.4 77.7, 63.7 75.8, 57.6 67.8 C 68.2 69.6, 19.0 76.1, 15.0 76.1 C 19.4 91.6, 92.0 29.3, 99.3 26.4 C 100.0 31.5, 50.7 51.2, 47.0 47.3 C 53.5 50.5, 43.1 39.6, 35.1 47.5 C 37.3 55.1, 21.4 43.1, 21.9 31.4 C 4.8 48.3, 46.9 33.3, 50.5 20.3 Z" fill="hsl(104, 72%, 65%)" fill-opacity="0.85" stroke="none" stroke-width="2.66"  transform="translate(44.7 66.0) rotate(263.0) scale(0.94 1.36)" />
<path d="M 79.7 41.0 C 62.3 32.1, 27.5 44.0, 34.8 42.4 C 30.7 34.6, 67.4 14.9, 65.0 24.7 C 53.7 36.3, 100.0 74.6, 98.8 70.1 C 87.3 53.0, 65.4 0.0, 66.6 14.8 C 53.2 17.9, 24.3 62.2, 20.6 48.0 C 7.7 38.7, 81.6 61.9, 74.9 55.8 C 65.0 38.3, 46.5 34.3, 43.9 19.4 C 29.3 3.3, 28.2 60.0, 41.2 50.0 C 36.1 58.0, 94.2 62.2, 96.6 49.3 Z" fill="none" fill-opacity="0.93" stroke="hsl(151, 70%, 62%)" stroke-width="0.85"   />
<rect x="62.2" y="1.5" width="20.4" height="23.1" rx="0" fill="none" fill-opacity="0.99"   transform="translate(30.2 11.5) rotate(201.5) scale(1.35 1.35)" />
<path d="M 47.5 49.8 C 28.1 33.1, 90.4 17.5, 79.6 31.3 C 68.7 23.1, 42.3 2.1, 38.9 1.3 C 40.6 14.1, 59.5 51.0, 60.8 48.3 C 48.4 32.6, 59.3 0.0, 56.0 1.0 C 71.1 15.8, 12.1 57.8, 26.2 66.0 C 38.2 51.9, 45.7 65.4, 35.6 56.7 C 30.4 68.9, 60.0 18.8, 48.0 26.0 C 62.7 18.0, 3.3 68.5, 8.6 60.4 C 7.6 60.0, 34.6 55.3, 48.7 53.4 Z" fill="none" fill-opacity="0.87" stroke="hsl(2, 82%, 55%)" stroke-width="1.01"  transform="translate(40.3 36.4) rotate(340.7) scale(1.44 0.95)" />
<path d="M 48.9 46.8 C 49.7 30.4, 0.0 69.1, 2.3 74.3 C 1.3 72.8, 45.1 65.8, 56.4 70.6 C 43.8 56.1, 100.0 12.2, 97.5 7.7 C 100.0 13.6, 80.0 78.4, 66.5 63.5 C 58.3 69.4, 82.0 68.9, 92.1 75.1 C 94.9 90.9, 82.9 75.1, 88.5 62.7 C 80.8 43.4, 6.1 60.6, 19.6 63.6 Z" fill="none" fill-opacity="0.58" stroke="hsl(151, 70%, 62%)" stroke-width="1.09"   />
<rect x="13.6" y="39.4" width="45.8" height="11.3" rx="0" fill="hsl(322, 74%, 44%)" fill-opacity="0.81" stroke="hsl(106, 75%, 59%)" stroke-width="4.9"  transform="translate(23.2 5.0) rotate(284.1) scale(1.72 1.00)" />
<circle cx="41.3" cy="0.5" r="1.1" fill="url(#g0)" fill-opacity="0.79"  transform="translate(16.4 63.1) rotate(14.6) scale(1.45 1.07)" />
<circle cx="97.1" cy="9.8" r="0.3" fill="url(#g1)" fill-opacity="0.80"  transform="translate(31.6 95.0) rotate(109.1) scale(0.98 1.65)" />
<path d="M 73.3 89.8 C 55.3 100.0, 78.8 59.7, 82.2 57.5 C 90.3 76.6, 95.1 66.3, 84.5 72.1 C 78.1 78.2, 0.0 37.4, 7.4 30.2 C 15.9 40.3, 11.8 54.6, 5.8 63.4 C 0.0 68.3, 92.8 12.9, 78.8 0.5 C 71.7 20.5, 18.9 76.2, 27.4 64.2 C 30.3 76.2, 0.0 59.5, 8.3 53.6 C 13.5 72.8, 41.2 34.3, 28.2 44.2 Z" fill="none" fill-opacity="0.76" stroke="hsl(322, 74%, 44%)" stroke-width="4.98"  transform="translate(38.2 73.2) rotate(265.5) scale(0.95 1.87)" />
<path d="M 34.7 52.1 C 21.9 45.8, 75.3 89.2, 83.5 92.1 C 78.2 100.0, 56.6 18.5, 49.5 19.9 C 36.4 12.7, 27.3 68.1, 27.2 53.9 C 17.1 63.7, 48.4 49.8, 63.4 50.3 C 52.9 49.1, 15.3 20.5, 29.9 19.8 C 42.2 1.8, 88.1 80.7, 81.5 83.3 C 65.7 100.0, 8.9 48.4, 22.4 37.1 C 4.0 53.7, 98.9 55.8, 94.5 68.3 C 96.6 87.8, 35.8 43.5, 48.8 57.1 C 33.0 38.8, 100.0 35.9, 96.0 31.9 Z" fill="hsl(106, 75%, 59%)" fill-opacity="0.46" stroke="none" stroke-width="3.75"  transform="translate(98.0 42.3) rotate(105.3) scale(1.14 0.62)" />
<path d="M 48.8 79.6 C 48.1 97.3, 98.5 85.4, 96.2 87.5 C 100.0 100.0, 59.2 63.3, 46.6 73.2 C 37.4 61.7, 87.0 0.0, 90.9 0.1 C 87.7 5.1, 14.1 33.9, 19.3 39.5 C 29.2 37.0, 11.1 50.0, 24.4 47.5 C 39.5 52.9, 1.0 13.0, 6.7 11.9 C 0.0 2.5, 87.0 61.6, 72.0 65.7 C 73.9 78.1, 94.8 31.6, 98.6 17.7 " fill="none" fill-opacity="0.53" stroke="hsl(2, 82%, 55%)" stroke-width="4.19"  transform="translate(56.8 57.8) rotate(1.1) scale(0.76 1.63)" />
<rect x="49.4" y="4.8" width="27.3" height="13.7" rx="0" fill="none" fill-opacity="0.32"    />
<rect x="49.1" y="54.5" width="20.1" height="21.7" rx="13.0" fill="none" fill-opacity="0.49"   transform="translate(68.7 46.6) rotate(316.4) scale(0.54 1.22)" />
<path d="M 80.5 100.0 C 97.2 100.0, 12.2 70.3, 26.5 61.3 C 12.9 75.1, 78.6 44.6, 79.2 39.7 C 89.1 24.2, 0.0 100.0, 4.8 90.9 C 0.0 100.0, 85.3 87.6, 76.8 80.2 C 57.3 75.0, 21.4 59.2, 24.4 47.0 C 21.4 61.0, 89.0 37.9, 83.4 45.5 C 78.6 47.5, 43.9 32.1, 31.2 42.2 Z" fill="none" fill-opacity="0.47" stroke="hsl(86, 72%, 68%)" stroke-width="0.93"  transform="translate(69.4 67.1) rotate(137.5) scale(0.57 0.68)" />
<path d="M 75.9 95.0 C 60.4 100.0, 59.6 43.8, 52.2 39.6 C 44.1 54.1, 21.5 52.0, 26.3 54.3 C 16.4 70.5, 0.0 0.0, 4.8 2.7 C 0.0 13.9, 84.1 11.9, 91.5 26.6 C 79.9 21.7, 35.1 38.0, 38.4 35.9 C 50.6 39.8, 75.8 19.9, 74.0 13.4 C 87.4 1.9, 15.5 26.2, 8.5 19.5 C 13.4 19.5, 69.7 35.7, 69.7 29.9 C 63.7 23.6, 22.4 41.7, 37.1 32.1 Z" fill="hsl(2, 82%, 55%)" fill-opacity="0.76" stroke="none" stroke-width="5.25" filter="url(#f1)" transform="translate(93.1 56.9) rotate(103.3) scale(1.90 1.91)" />
<path d="M 41.7 83.7 C 39.1 77.7, 35.3 57.4, 43.7 58.7 C 62.4 50.9, 66.8 73.5, 79.9 80.7 C 76.0 67.2, 97.4 73.5, 91.9 75.2 C 100.0 76.0, 7.6 59.6, 13.3 64.3 C 5.3 48.3, 87.3 8.0, 79.2 9.3 C 69.4 12.2, 85.9 44.0, 74.4 52.8 C 92.2 36.5, 8.1 27.4, 10.7 38.0 C 9.0 43.5, 89.1 77.6, 97.4 90.4 Z" fill="none" fill-opacity="0.44" stroke="hsl(83, 65%, 44%)" stroke-width="5.05"  transform="translate(76.0 93.6) rotate(326.1) scale(0.83 0.91)" />
<circle cx="61.9" cy="3.3" r="2.7" fill="hsl(322, 74%, 44%)" fill-opacity="0.71"  transform="translate(7.8 60.9) rotate(321.1) scale(0.57 0.68)" />
<rect x="13.5" y="50.3" width="39.7" height="15.5" rx="0" fill="hsl(290, 83%, 63%)" fill-opacity="0.82" stroke="hsl(2, 82%, 55%)" stroke-width="1.4"  transform="translate(45.0 5.4) rotate(245.6) scale(1.77 1.20)" />
<path d="M 13.1 60.4 C 31.4 48.0, 80.6 43.4, 71.8 45.2 C 60.7 26.3, 44.2 14.5, 57.8 11.6 C 48.8 5.0, 17.5 79.9, 8.0 79.9 C 18.8 92.0, 55.6 69.0, 45.2 74.1 C 59.1 91.2, 9.4 100.0, 15.1 97.6 C 0.0 100.0, 100.0 26.9, 91.8 40.8 C 84.5 50.0, 80.5 92.4, 87.5 80.7 Z" fill="none" fill-opacity="0.56" stroke="hsl(104, 72%, 65%)" stroke-width="5.27"  transform="translate(8.4 44.7) rotate(11.5) scale(1.31 0.87)" />
<path d="M 38.3 44.2 C 50.6 35.2, 91.5 75.6, 81.6 75.9 C 65.0 86.9, 36.8 4.8, 26.9 12.0 C 22.6 6.5, 82.0 54.5, 90.5 51.4 C 82.3 48.8, 27.6 1.9, 35.6 13.3 C 27.5 29.2, 46.8 43.7, 61.6 34.6 C 48.1 22.1, 74.9 84.0, 88.0 83.4 C 88.2 82.1, 98.8 54.1, 98.6 43.1 C 84.2 36.1, 70.0 84.7, 62.3 96.9 Z" fill="hsl(86, 72%, 68%)" fill-opacity="0.50" stroke="none" stroke-width="4.78"  transform="translate(3.6 0.2) rotate(153.2) scale(1.27 0.86)" />
<path d="M 32.7 72.3 C 41.1 79.1, 35.5 2.8, 27.1 13.7 C 21.2 0.0, 97.2 68.9, 84.3 81.9 C 91.9 74.0, 97.3 59.3, 89.0 57.1 C 98.2 69.1, 41.1 21.3, 39.0 16.8 C 35.2 22.3, 87.8 54.8, 96.0 44.6 C 80.5 33.7, 49.5 74.5, 58.4 78.5 C 54.2 74.7, 33.8 26.7, 43.0 34.7 C 24.9 41.0, 12.7 19.4, 25.8 5.9 Z" fill="none" fill-opacity="0.57" stroke="hsl(290, 83%, 63%)" stroke-width="3.99"  transform="translate(41.8 37.1) rotate(30.5) scale(1.91 0.56)" />
<path d="M 49.8 55.2 C 61.1 45.1, 27.6 12.7, 15.5 26.2 C 0.8 37.6, 84.3 29.5, 92.0 38.3 C 87.9 19.7, 54.4 86.2, 52.0 78.4 C 40.3 75.7, 27.2 71.8, 34.7 66.1 C 51.6 69.0, 93.9 90.4, 82.5 94.1 C 88.6 100.0, 27.9 7.2, 19.3 18.0 C 1.1 22.8, 34.9 51.4, 27.8 40.3 C 35.3 36.1, 69.7 57.4, 59.2 67.8 Z" fill="hsl(106, 75%, 59%)" fill-opacity="0.43" stroke="none" stroke-width="4.48"  transform="translate(20.5 10.1) rotate(327.2) scale(0.72 0.70)" />
<path d="M 63.2 5.9 C 66.5 0.0, 6.1 90.9, 15.2 88.0 C 11.8 100.0, 43.1 100.0, 41.2 94.7 C 25.0 100.0, 40.9 33.5, 27.9 44.3 C 31.8 62.4, 47.0 97.1, 59.5 94.9 C 43.6 81.7, 72.3 43.2, 57.5 57.6 C 51.7 67.2, 100.0 33.7, 96.7 22.3 C 100.0 6.5, 33.5 83.1, 48.3 94.0 C 66.2 100.0, 46.8 80.6, 46.1 74.5 C 26.7 89.1, 82.3 27.8, 70.2 23.1 C 72.4 3.5, 30.4 40.7, 20.1 51.9 Z" fill="none" fill-opacity="0.57" stroke="hsl(242, 72%, 49%)" stroke-width="3.34"  transform="translate(16.6 5.7) rotate(316.0) scale(1.13 0.52)" />
<rect x="2.8" y="24.3" width="46.9" height="11.4" rx="0" fill="hsl(106, 75%, 59%)" fill-opacity="0.25" stroke="hsl(242, 72%, 49%)" stroke-width="3.6"   />
<rect x="7.0" y="16.1" width="28.3" height="28.9" rx="0" fill="hsl(183, 71%, 60%)" fill-opacity="0.87"  filter="url(#f1)" transform="translate(74.2 35.4) rotate(303.9) scale(1.35 1.49)" />
<path d="M 53.5 91.8 C 65.3 85.2, 46.9 61.4, 35.4 71.4 C 26.2 58.0, 83.4 56.4, 90.8 70.3 C 100.0 64.3, 51.7 61.5, 60.4 74.7 C 47.5 82.5, 94.8 2.2, 99.8 13.9 C 100.0 20.3, 75.0 82.9, 75.2 72.9 C 59.8 82.2, 15.6 55.6, 28.5 64.2 C 37.5 52.7, 74.9 14.4, 69.0 22.7 C 85.4 3.5, 30.1 11.8, 25.5 17.2 " fill="hsl(151, 70%, 62%)" fill-opacity="0.81" stroke="none" stroke-width="4.42" filter="url(#f1)" transform="translate(77.7 73.4) rotate(176.8) scale(1.20 0.56)" />
<rect x="8.8" y="67.0" width="24.8" height="16.1" rx="0" fill="none" fill-opacity="0.62"   transform="translate(35.1 63.1) rotate(272.2) scale(0.50 0.98)" />
<path d="M 21.3 57.6 C 13.3 45.5, 71.0 16.2, 63.2 26.2 C 68.7 42.3, 44.4 87.5, 54.4 93.3 C 61.5 100.0, 67.6 67.3, 82.3 66.4 C 75.5 52.4, 53.0 33.2, 50.4 38.7 C 68.9 26.6, 18.2 0.0, 25.5 2.3 C 33.0 0.0, 24.8 10.9, 37.0 17.0 C 39.0 22.6, 73.2 7.1, 69.5 7.4 C 89.1 0.0, 28.5 17.9, 24.0 32.4 C 6.4 27.1, 85.4 8.0, 96.5 19.4 Z" fill="none" fill-opacity="0.81" stroke="hsl(151, 70%, 62%)" stroke-width="2.37"   />
<rect x="16.4" y="19.5" width="44.7" height="29.4" rx="0.4" fill="hsl(290, 83%, 63%)" fill-opacity="0.70" stroke="hsl(83, 65%, 44%)" stroke-width="4.5"   />
<rect x="13.7" y="44.6" width="35.1" height="25.7" rx="0" fill="none" fill-opacity="0.95"    />
<circle cx="71.6" cy="0.2" r="12.4" fill="hsl(144, 86%, 72%)" fill-opacity="0.49"  transform="translate(93.0 9.3) rotate(305.7) scale(0.73 1.58)" />
<rect x="44.2" y="69.0" width="42.4" height="26.3" rx="0.1" fill="none" fill-opacity="0.87"   transform="translate(21.2 86.2) rotate(266.7) scale(1.44 0.97)" />
<path d="M 96.1 25.9 C 91.0 28.9, 82.2 91.8, 84.8 80.1 C 73.2 67.1, 41.8 49.2, 42.0 59.2 C 60.8 59.8, 48.5 51.5, 42.1 54.0 C 34.2 62.7, 69.9 28.3, 70.8 35.8 C 90.0 48.6, 91.5 8.2, 84.4 9.8 C 85.9 18.4, 2.2 100.0, 6.2 94.5 C 0.0 95.3, 51.6 42.0, 62.1 36.2 Z" fill="hsl(322, 74%, 44%)" fill-opacity="0.47" stroke="none" stroke-width="5.26"  transform="translate(17.1 66.7) rotate(257.2) scale(1.63 0.54)" />
<path d="M 94.8 86.1 C 91.3 100.0, 68.8 43.1, 70.9 34.2 C 59.8 26.3, 89.9 25.9, 97.2 30.7 C 100.0 43.5, 39.2 72.8, 42.6 87.5 C 49.0 91.4, 66.5 90.6, 81.3 80.4 C 64.6 72.9, 79.6 52.7, 68.7 44.4 C 73.2 43.7, 16.3 54.6, 22.2 68.3 C 37.6 67.8, 40.2 54.8, 48.8 61.1 C 38.3 49.7, 10.6 30.2, 23.0 18.3 Z" fill="hsl(242, 72%, 49%)" fill-opacity="0.94" stroke="none" stroke-width="2.30"  transform="translate(2.4 70.1) rotate(107.6) scale(1.13 1.57)" />
<rect x="64.0" y="8.2" width="32.7" height="28.2" rx="0" fill="none" fill-opacity="0.91"   transform="translate(52.4 31.2) rotate(291.9) scale(1.78 1.93)" />
<rect x="21.9" y="24.2" width="43.6" height="31.1" rx="0" fill="none" fill-opacity="0.38"  filter="url(#f1)" transform="translate(41.0 50.4) rotate(247.5) scale(1.04 1.47)" />
<path d="M 59.0 20.7 C 62.8 24.4, 34.2 47.3, 23.5 40.8 C 20.1 30.5, 99.1 72.0, 97.8 77.1 C 95.4 84.1, 9.7 0.0, 23.2 3.9 C 33.5 0.0, 14.4 2.1, 18.7 6.9 C 15.6 0.0, 61.0 75.2, 61.7 73.6 C 42.3 62.8, 83.5 20.2, 92.1 27.1 C 83.2 40.6, 56.7 48.2, 65.6 43.6 Z" fill="hsl(322, 74%, 44%)" fill-opacity="0.64" stroke="none" stroke-width="4.82"  transform="translate(34.0 44.6) rotate(18.9) scale(1.07 1.26)" />
<circle cx="59.4" cy="23.9" r="13.9" fill="url(#g1)" fill-opacity="0.82"  transform="translate(96.2 64.8) rotate(242.5) scale(0.92 1.96)" />
<circle cx="50.2" cy="26.2" r="18.6" fill="url(#g1)" fill-opacity="0.96"  transform="translate(51.3 68.7) rotate(209.4) scale(1.97 0.81)" />
<path d="M 5.7 29.4 C 0.0 42.9, 1.9 100.0, 15.6 98.1 C 30.8 93.7, 54.1 22.6, 61.5 12.4 C 70.2 26.0, 19.7 72.0, 29.0 57.2 C 14.6 50.0, 39.2 41.1, 25.3 48.1 C 38.0 55.4, 39.5 85.4, 51.3 93.7 C 55.7 100.0, 84.6 89.3, 80.3 89.9 C 92.5 76.7, 84.8 32.0, 78.9 37.9 C 85.3 18.7, 81.0 85.9, 82.1 99.3 C 71.8 100.0, 69.1 3.4, 72.5 17.1 C 56.1 16.0, 96.2 100.0, 99.6 99.5 Z" fill="none" fill-opacity="0.27" stroke="hsl(242, 72%, 49%)" stroke-width="0.86"   />
<path d="M 63.3 12.9 C 45.9 20.4, 45.4 31.1, 37.9 45.3 C 48.1 57.3, 100.0 44.3, 98.9 53.9 C 85.0 35.8, 67.1 57.4, 61.8 54.8 C 43.8 38.0, 83.1 63.9, 79.7 59.3 C 84.3 66.0, 49.7 38.4, 44.6 46.7 C 33.5 42.8, 90.6 43.8, 98.8 55.8 C 93.4 41.7, 46.9 71.9, 32.1 79.9 C 42.7 65.4, 40.7 82.6, 43.8 68.7 C 55.4 82.3, 74.1 36.0, 64.1 27.9 Z" fill="none" fill-opacity="0.90" stroke="hsl(322, 74%, 44%)" stroke-width="4.14"  transform="translate(59.7 5.1) rotate(213.1) scale(1.80 1.78)" />
<circle cx="61.6" cy="14.6" r="5.6" fill="hsl(242, 72%, 49%)" fill-opacity="0.75"  transform="translate(81.6 37.9) rotate(56.7) scale(0.75 0.80)" />
<path d="M 57.0 70.3 C 47.8 52.0, 0.0 62.1, 6.9 75.7 C 23.1 92.5, 3.7 60.4, 15.1 63.1 C 2.8 51.1, 56.5 4.8, 59.8 12.8 C 65.7 32.2, 24.2 3.8, 29.8 11.2 C 33.7 1.3, 64.0 77.7, 64.6 74.6 C 49.0 66.6, 18.9 42.7, 30.4 29.0 C 36.9 44.0, 57.0 53.5, 45.9 63.7 C 30.8 74.8, 91.4 40.2, 88.5 29.6 C 88.8 38.4, 82.2 61.2, 92.4 74.2 Z" fill="hsl(151, 70%, 62%)" fill-opacity="0.96" stroke="none" stroke-width="1.60"  transform="translate(9.3 56.8) rotate(285.8) scale(1.66 1.01)" />
<rect x="69.7" y="0.4" width="27.4" height="26.9" rx="0" fill="hsl(151, 70%, 62%)" fill-opacity="0.56"   transform="translate(19.5 97.0) rotate(157.5) scale(1.62 1.08)" />
<path d="M 90.1 92.8 C 84.7 95.2, 38.2 85.2, 26.1 89.2 C 16.7 90.6, 44.7 100.0, 52.0 98.0 C 38.5 98.7, 99.3 88.0, 91.1 99.3 C 85.3 100.0, 74.3 52.9, 75.0 60.8 C 61.8 59.7, 26.6 60.9, 36.7 48.3 C 47.4 30.6, 100.0 4.0, 89.1 5.6 C 73.7 5.3, 38.4 69.3, 46.2 77.4 C 47.4 62.3, 57.4 45.9, 48.3 49.0 Z" fill="hsl(2, 82%, 55%)" fill-opacity="0.72" stroke="none" stroke-width="3.21"  transform="translate(2.9 82.9) rotate(206.5) scale(0.68 1.35)" />
<circle cx="39.8" cy="9.3" r="0.4" fill="url(#g1)" fill-opacity="0.84"  transform="translate(42.9 91.2) rotate(193.8) scale(1.02 1.19)" />
<circle cx="81.5" cy="77.9" r="6.3" fill="url(#g1)" fill-opacity="0.51"  transform="translate(78.2 74.8) rotate(21.0) scale(1.28 1.01)" />
<path d="M 51.2 93.3 C 67.3 83.8, 48.2 81.1, 45.7 74.1 C 36.1 74.2, 50.0 53.6, 40.6 43.8 C 25.1 26.8, 60.2 1.4, 63.2 8.7 C 77.6 17.7, 18.1 78.7, 30.0 85.6 C 25.4 72.6, 25.9 23.8, 18.1 36.6 C 12.2 19.8, 93.9 29.9, 91.8 30.2 C 81.3 46.1, 38.5 45.1, 29.7 40.6 Z" fill="hsl(242, 72%, 49%)" fill-opacity="0.95" stroke="none" stroke-width="1.57" filter="url(#f1)" transform="translate(45.2 42.8) rotate(191.6) scale(1.09 1.15)" />
<path d="M 18.2 66.5 C 21.1 67.7, 25.4 18.9, 30.0 12.6 C 40.7 9.3, 57.3 51.4, 63.6 45.2 C 49.7 55.6, 51.9 49.2, 60.2 61.2 C 53.8 61.8, 21.5 82.0, 33.0 69.2 C 14.9 51.9, 94.6 39.6, 95.0 51.3 C 100.0 50.9, 19.5 73.0, 29.8 82.7 Z" fill="hsl(106, 75%, 59%)" fill-opacity="0.86" stroke="none" stroke-width="1.79"  transform="translate(77.0 87.7) rotate(287.4) scale(0.79 1.97)" />
<path d="M 37.3 76.5 C 36.9 77.2, 66.7 58.5, 63.0 69.2 C 62.7 82.7, 34.1 65.5, 22.2 51.6 C 17.7 33.0, 85.2 91.4, 86.3 99.6 C 89.6 100.0, 10.4 58.7, 9.7 61.8 C 0.0 71.4, 81.8 38.7, 68.8 29.0 C 66.9 35.2, 16.3 80.3, 23.4 70.6 C 22.3 55.4, 17.6 16.8, 27.0 18.0 C 17.4 23.9, 94.9 16.3, 89.3 26.6 C 88.3 22.3, 1.1 0.5, 14.2 14.9 C 18.9 34.8, 100.0 51.8, 96.7 61.5 Z" fill="hsl(144, 86%, 72%)" fill-opacity="0.96" stroke="none" stroke-width="2.15" filter="url(#f1)" transform="translate(52.0 61.3) rotate(354.0) scale(1.56 0.95)" />
<circle cx="36.2" cy="78.0" r="6.1" fill="url(#g0)" fill-opacity="0.41"  transform="translate(44.6 5.8) rotate(71.3) scale(0.87 1.03)" />
<rect x="35.2" y="45.3" width="42.7" height="17.2" rx="19.0" fill="hsl(151, 70%, 62%)" fill-opacity="0.53" stroke="hsl(144, 86%, 72%)" stroke-width="1.3" filter="url(#f1)"  />
<path d="M 67.7 2.7 C 60.3 0.0, 27.0 79.0, 22.4 76.7 C 37.0 60.1, 88.6 13.1, 97.7 15.3 C 99.6 1.7, 23.2 0.0, 36.3 4.7 C 32.4 5.6, 22.0 34.1, 28.1 46.2 C 12.2 40.8, 0.0 81.1, 3.9 89.4 C 11.3 100.0, 25.9 42.9, 22.5 44.2 C 28.1 34.1, 42.9 95.9, 43.8 82.0 Z" fill="none" fill-opacity="0.33" stroke="hsl(83, 65%, 44%)" stroke-width="1.31"  transform="translate(81.8 43.1) rotate(215.9) scale(1.47 0.95)" />
<rect x="5.0" y="13.4" width="47.8" height="38.7" rx="2.5" fill="none" fill-opacity="0.80" stroke="hsl(106, 75%, 59%)" stroke-width="3.4"  transform="translate(43.3 53.1) rotate(219.3) scale(1.65 1.50)" />
<rect x="44.2" y="40.8" width="46.9" height="33.8" rx="18.0" fill="none" fill-opacity="0.29"   transform="translate(10.7 27.2) rotate(122.7) scale(0.75 0.81)" />
<path d="M 14.0 3.9 C 7.9 12.6, 38.5 16.2, 40.5 19.6 C 41.2 6.9, 56.8 83.0, 59.3 72.1 C 43.1 70.9, 89.9 14.4, 91.4 20.5 C 100.0 9.5, 34.6 4.8, 39.4 2.3 C 48.3 8.4, 29.9 20.7, 15.7 22.2 C 4.9 28.8, 84.7 77.7, 85.5 73.1 C 72.7 76.8, 41.5 71.6, 36.9 73.1 C 31.9 59.4, 48.6 91.7, 33.9 96.0 C 46.8 98.4, 92.1 80.0, 78.9 67.2 C 80.0 80.8, 46.3 61.0, 45.8 72.0 Z" fill="none" fill-opacity="0.72" stroke="hsl(290, 83%, 63%)" stroke-width="2.05"  transform="translate(9.9 96.1) rotate(271.2) scale(1.39 0.95)" />
<path d="M 6.4 26.8 C 0.0 38.9, 9.6 86.2, 19.3 92.0 C 18.5 72.1, 66.2 51.9, 69.5 54.0 C 82.1 36.6, 76.4 88.8, 77.8 75.7 C 79.8 59.7, 56.0 39.4, 68.2 34.5 C 72.8 15.4, 56.3 23.3, 41.5 22.0 C 22.5 40.3, 39.3 70.4, 33.8 61.8 Z" fill="hsl(106, 75%, 59%)" fill-opacity="0.47" stroke="none" stroke-width="1.70" filter="url(#f1)" transform="translate(38.6 75.9) rotate(210.4) scale(0.50 1.28)" />
<circle cx="99.3" cy="98.7" r="7.2" fill="url(#g0)" fill-opacity="0.56"  transform="translate(90.4 77.7) rotate(301.7) scale(1.11 0.64)" />
<circle cx="15.0" cy="10.5" r="2.7" fill="url(#g1)" fill-opacity="0.82"  transform="translate(48.9 71.8) rotate(305.0) scale(1.71 1.83)" />
<path d="M 91.6 82.8 C 98.9 98.5, 87.2 61.1, 97.4 59.4 C 87.2 46.8, 56.8 35.9, 65.0 30.6 C 50.2 30.4, 69.7 100.0, 60.9 97.0 C 52.2 92.8, 33.5 42.0, 35.3 51.5 C 36.6 36.4, 18.2 70.1, 19.1 82.2 C 31.7 70.7, 69.9 94.0, 58.5 85.4 Z" fill="hsl(242, 72%, 49%)" fill-opacity="0.43" stroke="none" stroke-width="4.08"   />
<g opacity="0.054">
<rect x="0" y="0" width="1" height="100" fill="black" />
<rect x="22" y="0" width="1" height="100" fill="black" />
<rect x="44" y="0" width="1" height="100" fill="black" />
<rect x="66" y="0" width="1" height="100" fill="black" />
<rect x="88" y="0" width="1" height="100" fill="black" />
<rect x="0" y="0" width="100" height="1" fill="black" />
<rect x="0" y="22" width="100" height="1" fill="black" />
<rect x="0" y="44" width="100" height="1" fill="black" />
<rect x="0" y="66" width="100" height="1" fill="black" />
<rect x="0" y="88" width="100" height="1" fill="black" />
</g>

</svg>
