<?xml version="1.0" encoding="UTF-8"?>
<svg xmlns="http://www.w3.org/2000/svg" width="100" height="100" viewBox="0 0 100 100">
<defs>
<linearGradient id="g0" x1="0%" y1="0%" x2="100%" y2="100%">
<stop offset="0.0%" stop-color="hsl(106, 75%, 59%)" />
<stop offset="33.3%" stop-color="hsl(183, 71%, 60%)" />
<stop offset="66.7%" stop-color="hsl(242, 72%, 49%)" />
<stop offset="100.0%" stop-color="hsl(322, 74%, 44%)" />
</linearGradient>
<linearGradient id="g1" x1="0%" y1="0%" x2="100%" y2="100%">
<stop offset="0.0%" stop-color="hsl(290, 83%, 63%)" />
<stop offset="33.3%" stop-color="hsl(2, 82%, 55%)" />
<stop offset="66.7%" stop-color="hsl(86, 72%, 68%)" />
<stop offset="100.0%" stop-color="hsl(83, 65%, 44%)" />
</linearGradient>
<linearGradient id="g2" x1="0%" y1="0%" x2="100%" y2="100%">
<stop offset="0.0%" stop-color="hsl(40, 53%, 69%)" />
<stop offset="33.3%" stop-color="hsl(104, 72%, 65%)" />
<stop offset="66.7%" stop-color="hsl(144, 86%, 72%)" />
<stop offset="100.0%" stop-color="hsl(151, 70%, 62%)" />
</linearGradient>
<filter id="f1" x="-20%" y="-20%" width="140%" height="140%">
  <feGaussianBlur stdDeviation="1.6572856543452408" />
</filter>

</defs>

<circle cx="5.7" cy="44.7" r="7.5" fill="url(#g0)" fill-opacity="0.62"  transform="translate(56.1 64.9) rotate(33.0) scale(1.85 1.69)" />
<rect x="42.3" y="27.8" width="39.7" height="14.8" rx="6.9" fill="hsl(86, 72%, 68%)" fill-opacity="0.28" stroke="hsl(290, 83%, 63%)" stroke-width="3.6"  transform="translate(98.1 5.3) rotate(142.9) scale(0.80 0.86)" />
<path d="M 41.4 77.9 C 37.4 88.5, 34.1 31.5, 42.1 43.2 C 40.5 44.1, 63.8 68.8, 65.4 59.4 C 66.3 46.1, 99.4 47.4, 87.0 39.3 C 76.3 48.3, 28.6 18.0, 31.6 13.2 C 24.3 26.4, 38.6 94.3, 27.2 98.6 C 30.3 100.0, 28.3 26.1, 24.9 21.6 Z" fill="hsl(106, 75%, 59%)" fill-opacity="0.84" stroke="none" stroke-width="4.88"   />
<path d="M 66.2 83.8 C 77.2 90.6, 25.7 71.1, 14.0 75.6 C 14.9 81.4, 68.4 0.0, 66.0 8.1 C 54.0 0.0, 63.9 45.4, 68.7 46.6 C 83.7 56.0, 72.5 61.5, 82.3 53.3 C 88.5 37.4, 90.9 69.1, 88.5 61.5 C 77.5 51.5, 41.8 65.2, 53.2 66.9 C 72.3 72.3, 77.7 14.2, 62.9 3.0 C 76.9 0.0, 33.4 46.8, 33.8 42.5 C 43.9 38.3, 89.9 82.6, 81.9 89.8 Z" fill="hsl(322, 74%, 44%)" fill-opacity="0.60" stroke="none" stroke-width="3.90"   />
<path d="M 80.7 23.4 C 63.6 38.3, 5.0 28.8, 12.0 38.8 C 19.3 52.5, 17.8 93.6, 27.7 99.8 C 20.8 100.0, 28.8 17.0, 14.9 25.5 C 15.6 6.9, 67.6 56.7, 62.5 54.1 C 81.5 57.8, 97.0 45.4, 97.0 40.7 C 100.0 30.0, 19.9 96.4, 9.7 86.8 C 0.0 86.7, 77.9 48.2, 80.9 43.3 C 76.5 38.5, 49.5 15.0, 57.1 13.9 " fill="hsl(290, 83%, 63%)" fill-opacity="0.70" stroke="none" stroke-width="2.47"  transform="translate(9.0 69.4) rotate(91.5) scale(1.59 1.78)" />
<path d="M 72.5 31.3 C 64.8 15.7, 12.9 66.9, 25.6 69.7 C 19.9 69.3, 66.1 89.8, 60.2 85.1 C 47.9 100.0, 16.4 23.4, 22.1 9.6 C 14.5 0.0, 5.1 98.3, 6.4 92.9 C 25.0 96.6, 9.9 100.0, 6.5 97.3 C 0.0 100.0, 46.6 12.0, 60.8 13.6 C 63.8 14.5, 76.9 86.7, 88.0 73.6 C 83.5 81.0, 39.6 100.0, 34.8 97.6 Z" fill="hsl(106, 75%, 59%)" fill-opacity="0.69" stroke="none" stroke-width="4.19"  transform="translate(53.6 89.4) rotate(347.4) scale(1.03 0.94)" />
<path d="M 48.7 88.5 C 32.8 72.0, 59.7 36.5, 50.1 22.7 C 66.4 11.8, 61.4 44.9, 70.6 34.5 C 70.7 23.3, 45.2 22.9, 43.1 35.4 C 23.5 16.2, 79.4 100.0, 86.1 92.7 C 86.2 100.0, 80.1 6.8, 93.6 12.7 C 77.7 0.0, 8.8 47.3, 10.3 48.1 C 24.3 57.4, 42.4 86.6, 44.4 90.2 C 44.5 96.2, 33.9 30.1, 28.7 31.0 C 39.7 20.6, 52.5 10.9, 42.2 3.9 Z" fill="none" fill-opacity="0.55" stroke="hsl(104, 72%, 65%)" stroke-width="3.85"  transform="translate(49.2 54.6) rotate(201.1) scale(1.50 1.60)" />
<path d="M 1.9 2.0 C 10.7 0.0, 100.0 1.4, 100.0 11.4 C 95.0 8.5, 91.3 35.5, 89.7 39.7 C 100.0 58.6, 31.2 31.1, 27.9 17.1 C 12.8 17.9, 25.4 14.3, 10.7 0.3 C 22.6 0.0, 14.0 71.2, 13.6 71.4 C 13.2 69.7, 34.0 56.8, 35.4 53.5 C 35.0 47.0, 22.6 95.4, 27.1 92.2 C 27.4 79.3, 2.0 0.0, 15.5 1.3 C 24.4 0.0, 79.4 33.4, 76.2 41.0 C 69.6 27.3, 5.8 61.7, 11.7 49.1 Z" fill="hsl(183, 71%, 60%)" fill-opacity="0.50" stroke="none" stroke-width="3.15"  transform="translate(42.0 63.6) rotate(355.2) scale(0.94 1.83)" />
<rect x="61.0" y="69.8" width="28.3" height="25.4" rx="0" fill="none" fill-opacity="0.98"   transform="translate(31.2 33.4) rotate(2.2) scale(0.50 0.87)" />
<circle cx="19.2" cy="53.1" r="8.7" fill="url(#g1)" fill-opacity="0.73"  transform="translate(44.2 84.3) rotate(295.0) scale(1.93 1.01)" />
<path d="M 82.9 55.8 C 94.3 67.6, 63.5 22.0, 76.5 10.3 C 74.8 27.0, 89.3 10.5, 93.3 3.1 C 100.0 0.0, 63.3 67.0, 54.0 76.3 C 40.9 56.7, 49.7 79.2, 54.7 90.1 C 41.3 100.0, 21.6 74.3, 13.1 78.1 C 31.2 72.4, 100.0 45.0, 95.0 58.4 C 90.0 62.0, 67.7 90.3, 76.8 97.9 C 87.2 100.0, 16.1 20.9, 19.9 7.8 C 25.5 25.7, 52.1 69.1, 45.7 66.0 " fill="hsl(40, 53%, 69%)" fill-opacity="0.58" stroke="none" stroke-width="2.23"   />
<path d="M 45.0 74.5 C 50.8 93.9, 53.7 32.9, 67.8 31.6 C 72.7 34.4, 70.1 96.3, 55.8 96.8 C 49.1 96.1, 10.5 54.2, 8.1 47.7 C 0.0 40.7, 18.1 40.4, 18.1 27.1 C 0.0 39.0, 26.5 34.9, 32.1 49.4 C 50.7 40.2, 100.0 60.3, 88.7 57.1 Z" fill="hsl(83, 65%, 44%)" fill-opacity="0.39" stroke="none" stroke-width="3.71"  transform="translate(43.5 65.0) rotate(24.2) scale(0.63 1.73)" />
<path d="M 46.4 65.4 C 33.9 82.5, 0.0 13.5, 7.3 15.4 C 8.0 0.0, 30.4 59.7, 35.6 66.0 C 54.4 71.7, 47.6 19.7, 57.7 11.6 C 53.4 9.0, 31.9 91.2, 28.6 91.8 C 37.8 76.9, 74.2 16.9, 75.6 28.5 C 93.8 9.0, 7.2 73.5, 8.1 81.1 C 0.0 82.6, 35.2 73.8, 40.5 86.0 C 21.4 83.9, 0.0 75.2, 0.3 61.6 C 0.0 79.2, 79.4 14.0, 88.9 8.1 C 95.0 11.3, 0.0 48.5, 4.3 44.7 " fill="hsl(106, 75%, 59%)" fill-opacity="0.70" stroke="none" stroke-width="2.84"   />
<rect x="50.3" y="55.2" width="30.0" height="39.7" rx="0" fill="none" fill-opacity="0.39" stroke="hsl(106, 75%, 59%)" stroke-width="3.5"  transform="translate(17.1 11.3) rotate(346.8) scale(1.31 1.96)" />
<path d="M 57.7 20.2 C 65.6 35.7, 3.3 13.2, 13.2 8.3 C 20.0 0.0, 11.2 77.3, 2.7 92.0 C 20.7 100.0, 78.9 9.2, 71.1 8.0 C 73.2 13.6, 14.7 5.0, 17.8 14.0 C 31.0 13.3, 68.5 94.0, 79.7 97.0 C 72.4 90.1, 66.0 7.2, 76.5 10.0 C 88.1 17.7, 74.8 35.1, 68.1 37.0 Z" fill="hsl(151, 70%, 62%)" fill-opacity="0.60" stroke="none" stroke-width="4.57" filter="url(#f1)" transform="translate(41.7 7.0) rotate(231.0) scale(1.54 1.34)" />
<path d="M 13.2 11.2 C 1.8 6.8, 63.2 36.2, 51.4 33.1 C 60.3 47.7, 63.3 70.5, 72.0 81.8 C 62.1 89.4, 0.0 84.4, 5.0 86.0 C 21.3 85.6, 42.3 80.9, 37.3 85.1 C 23.6 74.8, 61.8 84.7, 67.7 84.6 C 62.3 89.9, 69.0 76.0, 54.6 72.7 C 69.6 72.5, 67.3 12.0, 61.2 22.6 C 76.8 36.5, 26.5 41.7, 25.2 55.8 C 35.3 73.0, 0.0 0.0, 3.4 2.6 C 0.1 0.0, 45.5 71.2, 31.9 72.0 Z" fill="hsl(322, 74%, 44%)" fill-opacity="0.31" stroke="none" stroke-width="2.11"  transform="translate(11.2 34.7) rotate(43.4) scale(1.83 0.62)" />
<path d="M 84.9 17.5 C 69.3 8.1, 100.0 22.7, 88.6 34.8 C 92.9 21.9, 100.0 26.8, 91.8 35.2 C 100.0 28.3, 31.4 79.1, 28.5 85.4 C 31.1 86.3, 66.2 30.9, 62.8 16.0 C 70.0 1.0, 82.8 47.5, 79.6 53.8 C 59.9 63.5, 100.0 85.2, 95.1 89.4 C 79.5 100.0, 92.1 94.7, 87.2 90.4 C 100.0 76.8, 18.6 87.7, 6.3 95.0 C 0.0 81.1, 39.3 35.6, 27.7 32.4 Z" fill="none" fill-opacity="0.77" stroke="hsl(106, 75%, 59%)" stroke-width="3.72"  transform="translate(43.9 70.8) rotate(324.2) scale(0.55 1.65)" />
<path d="M 71.8 59.4 C 56.2 61.4, 75.2 20.2, 68.2 23.8 C 70.6 36.7, 40.8 81.8, 27.6 91.0 C 28.6 77.1, 81.3 62.3, 78.8 74.3 C 78.9 84.1, 26.7 0.0, 24.0 12.9 C 29.6 29.3, 71.7 83.4, 67.5 81.2 C 65.8 93.0, 14.4 24.6, 16.9 12.7 C 24.9 0.0, 44.4 87.9, 42.7 87.6 C 55.7 82.6, 60.5 69.9, 60.8 55.5 Z" fill="hsl(106, 75%, 59%)" fill-opacity="0.81" stroke="none" stroke-width="3.89"  transform="translate(73.6 58.3) rotate(213.9) scale(1.71 0.93)" />
<path d="M 82.3 36.6 C 91.8 26.6, 20.2 67.8, 34.4 58.7 C 27.0 69.7, 24.1 10.4, 27.1 24.3 C 7.9 39.6, 88.7 20.5, 95.2 34.7 C 78.9 51.4, 62.3 76.6, 63.2 64.6 C 74.7 45.1, 60.2 32.5, 64.0 40.0 C 76.4 46.4, 55.8 91.5, 56.0 85.1 C 66.2 88.2, 28.8 47.6, 39.6 56.5 C 34.9 59.2, 61.3 26.9, 74.5 32.5 C 71.2 16.1, 79.0 92.6, 78.9 85.8 C 73.1 83.0, 23.0 85.1, 16.8 97.0 Z" fill="none" fill-opacity="0.64" stroke="hsl(83, 65%, 44%)" stroke-width="1.12"  transform="translate(41.1 2.1) rotate(153.5) scale(1.84 1.52)" />
<path d="M 33.3 18.5 C 31.6 16.1, 67.2 77.2, 80.7 87.9 C 71.2 68.7, 26.5 74.4, 21.0 72.8 C 33.2 58.1, 57.6 43.5, 47.1 38.0 C 62.6 31.9, 35.6 82.8, 29.4 96.3 C 39.3 80.3, 27.9 64.4, 13.3 63.0 C 0.0 49.7, 14.0 72.0, 14.7 63.7 C 5.1 79.4, 93.7 3.9, 87.0 9.5 C 100.0 4.1, 87.6 46.2, 82.8 44.3 C 75.2 42.2, 87.9 8.8, 81.5 7.3 Z" fill="none" fill-opacity="0.54" stroke="hsl(86, 72%, 68%)" stroke-width="4.35"   />
<rect x="4.6" y="10.3" width="42.1" height="20.9" rx="9.3" fill="hsl(151, 70%, 62%)" fill-opacity="0.35"   transform="translate(44.8 55.9) rotate(225.3) scale(1.07 0.53)" />
<path d="M 64.6 54.7 C 70.4 36.0, 47.0 50.8, 56.2 42.7 C 47.4 42.6, 12.8 10.0, 22.2 23.8 C 13.1 13.9, 27.1 74.1, 13.9 69.6 C 7.2 62.4, 8.2 56.7, 0.0 61.6 C 14.1 65.3, 97.5 40.8, 94.9 54.2 C 85.9 70.2, 70.8 0.0, 83.2 5.7 C 73.6 0.0, 35.9 87.8, 36.0 97.9 C 21.5 100.0, 81.4 60.4, 92.2 64.3 C 100.0 74.7, 88.1 50.2, 74.9 62.0 C 67.2 47.1, 25.2 9.6, 23.9 20.3 " fill="none" fill-opacity="0.85" stroke="hsl(183, 71%, 60%)" stroke-width="2.11"  transform="translate(15.0 23.9) rotate(292.3) scale(1.36 1.64)" />
<path d="M 97.2 42.6 C 100.0 43.8, 41.4 78.0, 44.7 73.2 C 47.8 65.6, 89.8 94.3, 81.5 93.4 C 71.9 76.9, 67.2 21.8, 65.5 34.8 C 59.3 44.3, 97.7 47.9, 86.6 56.6 C 100.0 65.0, 57.9 26.0, 56.8 20.2 C 44.9 27.5, 60.4 35.3, 59.5 38.7 C 46.4 55.9, 90.7 70.3, 85.0 78.2 C 93.5 67.0, 76.7 19.0, 62.6 14.8 C 69.8 25.7, 1.5 27.9, 13.9 16.8 Z" fill="hsl(290, 83%, 63%)" fill-opacity="0.38" stroke="none" stroke-width="3.15"   />
<path d="M 80.2 11.0 C 97.6 0.5, 57.4 89.0, 65.7 99.6 C 72.9 100.0, 4.1 21.4, 8.8 29.7 C 2.8 39.7, 100.0 61.2, 94.8 62.5 C 100.0 45.0, 55.6 55.9, 44.7 66.2 C 41.2 55.4, 82.2 6.2, 84.8 4.1 C 70.2 0.0, 16.5 73.2, 25.1 68.1 C 36.0 66.6, 84.2 40.7, 80.8 47.6 C 85.7 30.3, 43.4 62.7, 41.7 75.9 C 44.1 64.0, 58.3 33.9, 55.9 25.0 C 71.4 14.1, 60.3 65.6, 48.8 55.5 Z" fill="hsl(83, 65%, 44%)" fill-opacity="0.54" stroke="none" stroke-width="3.54"  transform="translate(98.9 44.8) rotate(314.0) scale(0.89 1.32)" />
<path d="M 49.6 3.5 C 48.0 0.0, 45.5 90.0, 58.4 84.5 C 49.3 69.3, 14.1 31.0, 21.2 22.1 C 27.1 20.4, 51.9 45.7, 62.1 54.2 C 60.6 46.6, 27.5 46.6, 20.1 53.6 C 9.7 68.1, 49.2 77.3, 58.9 69.5 C 55.4 52.0, 54.5 29.4, 61.7 25.8 C 65.8 16.4, 71.9 16.7, 70.2 31.3 C 51.7 14.7, 31.1 0.0, 19.3 6.4 Z" fill="hsl(144, 86%, 72%)" fill-opacity="0.74" stroke="none" stroke-width="1.27" filter="url(#f1)"  />
<circle cx="5.3" cy="29.5" r="1.5" fill="hsl(86, 72%, 68%)" fill-opacity="0.41"  transform="translate(35.6 75.8) rotate(213.6) scale(1.97 0.72)" />
<path d="M 43.8 2.5 C 50.8 0.0, 75.0 37.4, 62.9 43.1 C 82.1 49.4, 20.8 68.4, 13.9 76.9 C 5.7 60.6, 72.4 28.4, 70.8 26.0 C 56.5 41.3, 51.3 1.4, 41.1 7.0 C 44.9 10.2, 70.0 35.8, 61.2 39.1 C 46.1 46.5, 74.6 53.9, 76.8 50.8 C 78.0 66.3, 86.1 32.0, 92.6 44.0 C 73.5 35.0, 65.9 81.3, 78.8 69.0 C 78.7 83.7, 57.7 58.0, 48.9 61.3 Z" fill="none" fill-opacity="0.74" stroke="hsl(183, 71%, 60%)" stroke-width="1.34" filter="url(#f1)" transform="translate(31.1 76.4) rotate(250.9) scale(1.18 1.97)" />
<path d="M 88.7 62.4 C 100.0 52.8, 71.1 100.0, 68.1 99.0 C 73.3 87.2, 25.5 19.9, 23.0 19.5 C 28.1 14.0, 93.1 0.0, 94.6 7.4 C 86.8 24.6, 61.7 40.5, 67.5 43.0 C 67.6 48.1, 31.1 12.7, 34.1 5.7 C 36.2 0.0, 16.3 47.0, 27.5 53.3 C 35.0 40.0, 45.7 51.0, 49.6 55.2 C 66.6 40.2, 23.8 93.4, 16.9 87.8 C 1.6 96.5, 31.0 3.9, 26.0 17.5 C 19.0 5.4, 56.8 43.9, 66.4 40.0 Z" fill="none" fill-opacity="0.92" stroke="hsl(40, 53%, 69%)" stroke-width="1.01" filter="url(#f1)" transform="translate(37.5 64.7) rotate(333.2) scale(0.62 1.21)" />
<path d="M 33.2 55.7 C 26.7 67.9, 9.7 60.9, 2.9 68.4 C 16.4 78.0, 59.3 66.0, 67.9 71.3 C 55.2 60.4, 18.5 21.7, 17.2 27.4 C 14.2 43.9, 92.7 52.6, 79.7 48.5 C 96.5 55.4, 46.2 53.9, 58.5 54.3 C 48.3 46.0, 68.8 39.9, 82.3 53.9 C 67.9 53.1, 52.3 54.2, 63.0 47.9 C 50.8 28.5, 20.5 71.4, 20.5 66.0 C 35.4 46.9, 2.7 87.8, 5.8 81.7 C 16.0 72.8, 94.3 62.5, 98.8 64.4 Z" fill="hsl(86, 72%, 68%)" fill-opacity="0.94" stroke="none" stroke-width="4.72"  transform="translate(61.0 59.2) rotate(232.4) scale(1.13 1.69)" />
<rect x="34.3" y="23.0" width="37.0" height="24.1" rx="6.2" fill="none" fill-opacity="0.28" stroke="hsl(86, 72%, 68%)" stroke-width="2.3"  transform="translate(39.6 0.8) rotate(233.6) scale(1.96 1.48)" />
<path d="M 78.6 56.0 C 66.5 47.8, 76.5 81.4, 74.9 88.3 C 92.8 86.0, 21.3 92.5, 12.5 81.8 C 0.0 95.1, 87.3 63.7, 89.4 59.2 C 100.0 76.8, 100.0 76.4, 89.1 79.3 C 80.7 70.3, 93.9 46.1, 82.7 47.0 C 89.0 40.1, 40.1 31.8, 26.8 17.5 C 18.7 13.0, 0.0 69.2, 7.0 69.9 C 10.0 79.9, 18.8 16.2, 22.3 30.5 Z" fill="hsl(322, 74%, 44%)" fill-opacity="0.37" stroke="none" stroke-width="1.51"   />
<path d="M 56.9 9.5 C 64.0 25.2, 16.2 38.2, 2.6 33.9 C 0.3 37.8, 76.5 5.7, 88.2 7.6 C 91.3 0.5, 92.0 42.7, 98.9 42.0 C 98.6 60.7, 14.7 84.6, 1.5 95.4 C 17.9 100.0, 65.6 0.0, 52.6 6.0 C 61.9 16.7, 16.3 6.9, 30.3 13.5 C 46.6 28.4, 12.3 71.3, 0.2 72.4 C 10.1 55.5, 23.7 23.2, 10.6 26.1 C 20.2 12.7, 36.6 3.5, 51.5 6.3 C 65.4 0.6, 99.7 39.3, 99.2 35.3 Z" fill="hsl(106, 75%, 59%)" fill-opacity="0.28" stroke="none" stroke-width="4.29"  transform="translate(66.1 31.3) rotate(121.0) scale(0.76 1.01)" />
<path d="M 82.4 80.8 C 86.2 69.3, 40.5 74.3, 46.9 77.1 C 58.8 70.3, 50.4 55.8, 42.7 67.5 C 52.1 58.8, 9.8 56.7, 23.8 48.7 C 19.6 52.6, 72.3 66.0, 80.5 63.9 C 93.8 83.0, 67.2 49.2, 58.6 50.5 C 69.4 41.2, 4.7 20.6, 13.8 34.4 C 9.1 50.3, 52.8 77.7, 40.0 74.4 C 25.0 86.5, 75.6 84.5, 63.8 90.2 C 51.9 78.8, 61.4 70.9, 56.4 64.8 C 43.4 73.9, 10.2 69.1, 19.0 63.3 Z" fill="hsl(242, 72%, 49%)" fill-opacity="0.70" stroke="none" stroke-width="4.13"  transform="translate(30.6 80.3) rotate(64.5) scale(1.24 0.64)" />
<rect x="44.9" y="24.4" width="43.1" height="12.3" rx="0" fill="hsl(104, 72%, 65%)" fill-opacity="0.30"   transform="translate(10.7 51.6) rotate(118.0) scale(1.46 1.38)" />
<rect x="60.2" y="48.5" width="31.4" height="39.2" rx="0" fill="none" fill-opacity="0.90" stroke="hsl(40, 53%, 69%)" stroke-width="4.5"  transform="translate(34.4 81.2) rotate(104.6) scale(1.18 1.16)" />
<path d="M 63.1 65.0 C 43.1 69.9, 81.5 9.4, 76.3 19.7 C 58.9 22.4, 26.8 26.5, 23.5 22.6 C 19.9 37.2, 67.2 46.9, 66.2 56.5 C 48.7 63.0, 39.7 41.9, 48.4 31.9 C 64.8 20.7, 14.6 43.8, 25.9 54.1 C 16.3 72.4, 21.9 74.9, 35.5 62.1 C 27.3 79.2, 67.8 90.8, 62.7 82.8 C 64.3 76.6, 100.0 16.8, 91.0 16.3 Z" fill="none" fill-opacity="0.77" stroke="hsl(144, 86%, 72%)" stroke-width="4.51"  transform="translate(5.5 92.7) rotate(255.4) scale(1.30 2.00)" />
<path d="M 36.8 38.0 C 20.6 31.7, 91.2 90.6, 96.8 96.2 C 90.9 97.2, 92.3 37.0, 94.6 48.1 C 83.9 53.7, 0.0 41.4, 9.9 53.1 C 18.9 46.4, 77.8 46.1, 84.0 41.6 C 68.6 59.4, 53.6 8.2, 57.3 4.7 C 72.6 0.0, 21.8 29.2, 33.8 28.8 C 17.7 29.4, 36.1 63.3, 36.1 49.3 C 55.3 54.8, 76.6 27.0, 72.5 39.3 Z" fill="none" fill-opacity="0.37" stroke="hsl(151, 70%, 62%)" stroke-width="1.64"  transform="translate(65.6 7.1) rotate(344.8) scale(1.89 1.38)" />
<path d="M 62.2 20.6 C 57.9 34.8, 57.4 9.8, 46.2 11.6 C 42.1 19.4, 50.6 89.0, 48.0 80.3 C 48.3 75.7, 50.9 26.1, 54.6 39.3 C 37.1 56.8, 63.4 22.0, 57.2 23.1 C 72.2 35.7, 19.7 83.1, 15.5 92.2 C 31.3 81.0, 57.1 78.9, 69.6 71.7 C 80.7 72.1, 75.5 87.4, 72.5 89.2 Z" fill="hsl(2, 82%, 55%)" fill-opacity="0.81" stroke="none" stroke-width="5.08"  transform="translate(30.8 38.5) rotate(236.5) scale(0.64 1.83)" />
<rect x="16.5" y="27.6" width="45.5" height="34.7" rx="0" fill="hsl(40, 53%, 69%)" fill-opacity="0.57" stroke="hsl(151, 70%, 62%)" stroke-width="2.6" filter="url(#f1)"  />
<path d="M 18.1 94.4 C 17.0 100.0, 33.3 67.8, 38.8 68.9 C 33.3 63.0, 36.8 11.2, 27.1 16.3 C 11.9 6.2, 100.0 32.2, 92.1 45.7 C 94.1 37.0, 14.8 20.5, 5.9 23.9 C 0.0 7.6, 9.6 15.3, 1.0 0.4 C 19.6 2.7, 46.1 51.8, 46.4 41.8 C 45.6 58.1, 13.9 82.9, 24.9 71.7 C 38.3 76.6, 17.0 25.6, 26.5 36.6 Z" fill="none" fill-opacity="0.46" stroke="hsl(151, 70%, 62%)" stroke-width="1.66" filter="url(#f1)"  />
<rect x="34.9" y="62.6" width="43.9" height="12.5" rx="14.7" fill="none" fill-opacity="0.41" stroke="hsl(106, 75%, 59%)" stroke-width="4.4"  transform="translate(58.0 93.5) rotate(65.9) scale(1.66 1.11)" />
<path d="M 90.8 56.1 C 81.7 72.6, 48.6 14.2, 36.9 27.7 C 17.1 45.4, 94.2 96.6, 91.1 89.8 C 93.2 70.6, 4.4 66.9, 9.6 56.0 C 0.0 70.5, 89.5 34.3, 97.7 19.9 C 82.1 27.7, 3.9 47.1, 5.6 54.4 C 0.2 38.6, 36.3 100.0, 42.4 89.9 C 25.9 72.4, 64.1 31.1, 56.4 40.3 C 55.3 29.4, 91.5 33.4, 84.2 44.4 C 87.9 28.3, 39.5 33.6, 26.3 37.8 C 39.9 44.6, 15.7 77.1, 22.8 85.6 Z" fill="hsl(106, 75%, 59%)" fill-opacity="0.94" stroke="none" stroke-width="1.31"  transform="translate(6.1 47.4) rotate(119.4) scale(0.54 1.46)" />
<circle cx="84.4" cy="56.7" r="9.9" fill="hsl(183, 71%, 60%)" fill-opacity="0.76"  transform="translate(60.9 34.3) rotate(78.9) scale(1.70 0.52)" />
<path d="M 62.3 52.1 C 78.1 69.9, 3.1 69.4, 9.2 63.8 C 15.2 73.7, 58.4 59.0, 43.7 48.1 C 44.0 57.0, 0.0 22.5, 2.0 34.5 C 8.5 54.2, 97.9 14.0, 83.9 24.4 C 84.0 41.4, 82.8 46.0, 85.9 47.4 C 76.4 62.8, 28.7 73.6, 35.6 84.7 C 18.0 76.4, 13.8 70.8, 2.2 69.2 C 19.5 76.9, 65.5 37.3, 53.8 33.9 C 34.7 52.5, 38.8 93.2, 36.8 79.4 C 26.9 82.4, 48.9 0.0, 40.6 4.3 Z" fill="none" fill-opacity="0.44" stroke="hsl(104, 72%, 65%)" stroke-width="1.07"  transform="translate(22.8 48.7) rotate(200.8) scale(1.78 1.92)" />
<circle cx="55.0" cy="48.4" r="2.4" fill="url(#g1)" fill-opacity="0.85" filter="url(#f1)" transform="translate(93.2 13.1) rotate(184.1) scale(1.98 0.83)" />
<path d="M 77.4 48.6 C 87.4 34.4, 83.0 83.0, 71.6 77.9 C 89.4 68.5, 75.7 81.2, 79.1 84.1 C 93.2 89.7, 14.4 0.0, 7.7 2.2 C 16.6 0.0, 20.6 1.6, 21.4 16.5 C 16.4 35.8, 97.0 71.3, 99.3 60.4 C 100.0 63.1, 78.4 44.8, 68.2 36.2 C 72.5 24.9, 82.8 41.5, 89.8 53.8 C 82.9 73.6, 60.3 49.6, 53.3 43.2 Z" fill="hsl(104, 72%, 65%)" fill-opacity="0.71" stroke="none" stroke-width="1.45"  transform="translate(18.0 1.2) rotate(4.1) scale(0.92 1.66)" />
<path d="M 39.0 99.5 C 54.9 100.0, 19.0 67.1, 20.8 68.9 C 11.8 55.1, 32.1 83.5, 36.0 84.6 C 44.9 96.3, 50.3 11.7, 41.7 24.4 C 48.8 44.1, 85.5 91.3, 99.2 87.4 C 90.8 76.5, 19.7 56.1, 33.7 59.5 C 37.8 68.3, 19.9 55.8, 7.6 42.2 C 24.2 45.6, 74.1 76.5, 66.4 80.2 " fill="none" fill-opacity="0.91" stroke="hsl(151, 70%, 62%)" stroke-width="1.34"  transform="translate(79.0 79.4) rotate(152.7) scale(0.75 1.69)" />
<circle cx="35.2" cy="39.5" r="1.6" fill="hsl(183, 71%, 60%)" fill-opacity="0.50"  transform="translate(43.9 68.0) rotate(188.5) scale(1.76 1.93)" />
<rect x="0.7" y="19.1" width="47.8" height="33.4" rx="0" fill="none" fill-opacity="0.80"   transform="translate(57.1 46.3) rotate(101.3) scale(1.27 1.35)" />
<path d="M 69.0 40.1 C 63.8 37.4, 13.7 100.0, 5.2 89.8 C 0.0 100.0, 7.3 41.6, 17.4 40.5 C 27.6 32.3, 49.9 27.8, 58.7 40.0 C 54.3 39.8, 45.6 85.3, 56.4 94.7 C 73.5 81.3, 87.9 88.0, 81.5 76.4 C 78.1 94.0, 22.7 32.1, 10.8 20.7 C 8.1 14.6, 21.7 58.1, 8.7 48.9 C 7.2 50.3, 13.7 97.5, 19.6 85.0 C 17.1 65.4, 45.9 38.1, 41.2 36.6 Z" fill="hsl(322, 74%, 44%)" fill-opacity="0.49" stroke="none" stroke-width="4.18"  transform="translate(67.6 14.6) rotate(186.5) scale(1.03 1.12)" />
<rect x="17.8" y="16.3" width="34.0" height="18.2" rx="0" fill="none" fill-opacity="0.54" stroke="hsl(86, 72%, 68%)" stroke-width="2.7"  transform="translate(92.5 63.4) rotate(32.1) scale(1.75 0.59)" />
<circle cx="92.5" cy="81.4" r="9.1" fill="url(#g1)" fill-opacity="0.87" filter="url(#f1)"  />
<path d="M 64.5 67.2 C 52.2 78.5, 29.3 0.0, 32.4 0.1 C 52.4 10.8, 81.2 39.7, 76.5 40.4 C 65.5 35.0, 15.1 24.0, 15.4 15.9 C 18.5 0.0, 33.4 12.9, 37.2 20.3 C 47.1 7.4, 89.3 85.2, 90.4 99.9 C 79.2 92.0, 60.5 8.6, 67.1 0.3 C 63.1 14.8, 12.3 29.9, 3.5 19.4 C 23.4 39.2, 10.9 84.8, 19.4 93.4 C 27.8 100.0, 94.6 35.6, 98.9 36.9 Z" fill="hsl(83, 65%, 44%)" fill-opacity="0.96" stroke="none" stroke-width="2.89"   />
<path d="M 42.3 94.5 C 24.3 100.0, 91.7 67.8, 93.2 80.1 C 90.4 96.6, 40.0 37.4, 46.5 26.2 C 35.8 44.4, 77.6 54.0, 63.0 40.6 C 64.6 24.2, 18.0 80.9, 20.2 86.1 C 4.2 81.7, 79.5 15.6, 87.5 3.6 C 88.1 0.0, 71.2 67.4, 84.3 76.5 C 66.8 84.9, 72.8 58.4, 87.6 51.6 C 84.2 33.4, 39.1 75.3, 35.5 81.4 C 51.4 88.7, 53.5 91.8, 52.2 91.7 Z" fill="hsl(144, 86%, 72%)" fill-opacity="0.86" stroke="none" stroke-width="5.24" filter="url(#f1)" transform="translate(71.4 91.6) rotate(300.3) scale(1.94 1.81)" />
<rect x="11.4" y="33.9" width="29.8" height="10.4" rx="5.3" fill="none" fill-opacity="0.45" stroke="hsl(242, 72%, 49%)" stroke-width="2.1"  transform="translate(26.2 64.3) rotate(333.6) scale(1.73 0.57)" />
<path d="M 92.5 28.6 C 83.8 13.8, 75.5 94.8, 62.3 92.7 C 69.5 97.2, 43.2 36.2, 39.2 22.9 C 31.2 35.3, 5.8 32.9, 11.4 34.8 C 13.4 36.3, 17.8 14.4, 12.1 24.0 C 6.2 12.1, 56.8 30.7, 60.7 16.6 C 70.2 19.6, 4.1 98.4, 12.8 85.2 C 0.0 72.5, 0.0 96.4, 2.2 99.0 C 0.0 83.2, 28.5 12.3, 30.0 14.2 C 40.2 26.4, 87.4 100.0, 93.3 89.8 Z" fill="none" fill-opacity="0.32" stroke="hsl(322, 74%, 44%)" stroke-width="1.45"  transform="translate(12.8 69.6) rotate(107.8) scale(1.41 0.89)" />
<path d="M 67.7 25.5 C 72.6 16.6, 50.5 15.3, 57.6 8.5 C 62.7 2.7, 62.5 75.0, 55.2 87.2 C 64.4 100.0, 100.0 0.0, 96.9 2.1 C 86.9 7.1, 92.5 57.0, 95.4 70.6 C 85.8 84.2, 100.0 16.7, 98.9 27.0 C 79.7 7.5, 21.3 43.7, 20.5 50.8 Z" fill="hsl(106, 75%, 59%)" fill-opacity="0.76" stroke="none" stroke-width="1.79"  transform="translate(22.8 1.8) rotate(160.4) scale(0.95 1.08)" />
<rect x="47.6" y="16.7" width="34.4" height="14.1" rx="0" fill="none" fill-opacity="0.22"   transform="translate(4.4 31.2) rotate(333.3) scale(1.43 1.84)" />
<rect x="54.6" y="44.5" width="23.7" height="38.7" rx="0.3" fill="hsl(83, 65%, 44%)" fill-opacity="0.80" stroke="hsl(290, 83%, 63%)" stroke-width="4.3"  transform="translate(96.2 1.3) rotate(248.0) scale(1.82 1.11)" />
<path d="M 79.0 31.4 C 94.4 46.3, 64.7 73.0, 54.1 86.0 C 43.4 89.7, 94.5 36.0, 98.9 32.7 C 81.6 34.5, 0.0 82.7, 6.4 79.6 C 10.1 98.5, 100.0 0.0, 93.4 2.0 C 91.8 0.0, 100.0 99.8, 91.4 98.8 C 79.2 86.9, 96.5 30.9, 86.1 26.4 C 88.5 25.5, 63.5 3.5, 72.7 1.5 C 62.2 0.0, 82.3 2.0, 91.2 1.7 Z" fill="hsl(86, 72%, 68%)" fill-opacity="0.27" stroke="none" stroke-width="2.75" filter="url(#f1)"  />
<circle cx="89.4" cy="41.8" r="5.5" fill="hsl(83, 65%, 44%)" fill-opacity="0.95"  transform="translate(65.0 12.8) rotate(321.0) scale(1.00 1.74)" />
<circle cx="14.3" cy="3.0" r="5.6" fill="hsl(242, 72%, 49%)" fill-opacity="0.57"  transform="translate(59.6 72.4) rotate(187.9) scale(1.27 1.34)" />
<circle cx="49.6" cy="53.0" r="13.8" fill="url(#g1)" fill-opacity="0.62"  transform="translate(81.3 63.5) rotate(233.8) scale(0.75 0.99)" />
<path d="M 70.2 15.5 C 81.5 35.4, 57.4 58.1, 70.2 45.8 C 59.1 34.7, 16.4 15.7, 4.6 4.6 C 2.1 0.0, 100.0 14.7, 100.0 10.5 C 100.0 0.0, 7.5 74.0, 2.9 82.6 C 0.0 67.7, 74.2 100.0, 83.1 99.7 C 97.0 95.8, 76.9 91.5, 63.2 83.4 C 47.1 100.0, 49.2 40.5, 56.9 28.3 C 46.6 40.9, 29.9 14.5, 37.3 6.0 C 28.0 3.7, 53.3 37.0, 67.4 51.7 Z" fill="none" fill-opacity="0.89" stroke="hsl(242, 72%, 49%)" stroke-width="2.30"  transform="translate(13.4 61.1) rotate(197.0) scale(1.64 1.08)" />
<rect x="53.4" y="70.6" width="44.9" height="12.3" rx="0" fill="none" fill-opacity="0.59"   transform="translate(31.6 97.4) rotate(52.6) scale(1.65 0.92)" />
<path d="M 95.1 36.7 C 91.2 35.0, 14.2 78.0, 24.4 85.2 C 42.0 75.7, 77.2 95.9, 73.2 95.7 C 57.7 98.1, 50.4 37.8, 39.0 42.3 C 35.0 43.7, 44.9 0.0, 32.2 4.2 C 51.8 0.0, 30.4 25.6, 38.9 39.9 C 31.4 48.4, 67.7 62.4, 82.2 54.3 " fill="hsl(183, 71%, 60%)" fill-opacity="0.34" stroke="none" stroke-width="2.59"  transform="translate(17.0 65.9) rotate(35.6) scale(1.46 1.05)" />
<circle cx="45.8" cy="13.1" r="18.8" fill="hsl(242, 72%, 49%)" fill-opacity="0.78"   />
<circle cx="2.1" cy="43.1" r="0.6" fill="url(#g0)" fill-opacity="0.73"  transform="translate(89.0 8.4) rotate(237.7) scale(1.13 0.78)" />
<path d="M 45.4 36.4 C 26.6 50.8, 85.0 10.3, 88.9 3.2 C 100.0 0.0, 71.7 66.6, 84.7 68.7 C 99.8 81.3, 59.9 71.0, 61.8 65.0 C 81.4 73.3, 70.3 2.6, 66.8 11.2 C 75.8 5.7, 76.6 97.8, 69.3 94.7 C 76.1 100.0, 3.6 48.3, 3.9 51.2 C 10.7 50.4, 58.8 49.3, 44.8 59.4 C 33.9 44.8, 24.5 69.4, 16.0 83.4 C 22.9 75.3, 9.6 66.6, 17.8 54.3 Z" fill="hsl(151, 70%, 62%)" fill-opacity="0.45" stroke="none" stroke-width="1.99"  transform="translate(32.8 13.2) rotate(75.8) scale(1.71 1.69)" />
<path d="M 52.1 14.0 C 70.6 30.1, 58.1 84.0, 43.5 94.5 C 44.6 89.6, 66.3 100.0, 71.0 90.3 C 66.4 74.1, 70.5 39.2, 60.1 27.3 C 77.9 8.6, 21.0 81.4, 28.9 77.6 C 14.3 82.2, 75.1 0.0, 79.1 11.3 C 72.3 0.0, 4.4 41.8, 4.5 50.1 C 0.0 31.6, 100.0 41.8, 88.5 39.3 C 100.0 39.0, 61.9 53.1, 62.4 60.5 C 68.8 62.5, 56.8 18.6, 51.3 6.1 Z" fill="hsl(183, 71%, 60%)" fill-opacity="0.41" stroke="none" stroke-width="1.98" filter="url(#f1)" transform="translate(37.5 37.3) rotate(336.7) scale(1.02 1.58)" />
<path d="M 52.4 31.0 C 43.9 43.1, 95.0 57.4, 82.7 67.1 C 84.8 47.1, 18.2 11.2, 19.8 25.0 C 29.0 5.5, 99.6 13.2, 97.5 22.4 C 85.3 41.5, 80.1 70.2, 92.3 75.0 C 81.3 79.5, 53.5 61.1, 47.7 49.4 C 56.2 64.9, 17.2 28.0, 26.5 39.7 C 28.2 22.9, 17.8 11.9, 27.1 13.6 C 24.3 3.0, 79.2 100.0, 92.7 89.9 Z" fill="none" fill-opacity="0.76" stroke="hsl(144, 86%, 72%)" stroke-width="5.16"  transform="translate(5.6 76.2) rotate(293.3) scale(1.28 0.60)" />
<path d="M 95.9 94.9 C 81.2 84.1, 84.9 5.3, 79.2 19.5 C 93.8 32.5, 0.0 36.5, 8.6 46.2 C 16.4 45.3, 67.8 86.4, 68.4 89.4 C 75.8 91.7, 44.5 57.2, 45.6 53.6 C 54.7 55.0, 79.5 17.1, 77.5 10.8 C 76.8 0.0, 0.0 51.9, 8.1 56.2 C 2.5 64.5, 28.9 81.7, 40.8 71.5 C 56.2 81.5, 97.5 89.7, 97.4 81.5 C 80.0 75.5, 70.0 64.6, 66.8 54.2 Z" fill="hsl(151, 70%, 62%)" fill-opacity="0.70" stroke="none" stroke-width="2.88"  transform="translate(38.8 89.1) rotate(329.3) scale(0.54 1.10)" />
<path d="M 25.2 22.6 C 25.2 23.3, 99.4 87.2, 85.1 87.5 C 80.7 79.4, 71.8 17.2, 75.2 24.4 C 70.4 31.8, 0.0 63.3, 9.6 49.7 C 13.5 50.3, 60.2 76.3, 64.9 64.8 C 48.7 63.0, 67.3 65.4, 76.7 67.5 C 73.0 51.5, 60.8 84.8, 59.4 80.5 Z" fill="none" fill-opacity="0.64" stroke="hsl(83, 65%, 44%)" stroke-width="2.26"  transform="translate(11.4 80.8) rotate(77.2) scale(1.85 1.49)" />
<path d="M 18.8 70.3 C 24.1 83.2, 72.0 47.3, 79.2 58.7 C 92.8 42.6, 31.2 73.4, 42.5 66.0 C 24.3 68.5, 78.0 86.4, 92.3 76.1 C 74.7 57.8, 64.1 23.7, 71.2 35.8 C 58.5 22.7, 99.7 8.2, 85.1 8.5 C 100.0 21.3, 69.8 0.0, 62.4 13.4 Z" fill="hsl(2, 82%, 55%)" fill-opacity="0.95" stroke="none" stroke-width="4.36"   />
<circle cx="77.6" cy="56.4" r="7.2" fill="hsl(144, 86%, 72%)" fill-opacity="0.60" filter="url(#f1)" transform="translate(1.3 23.3) rotate(295.0) scale(1.08 1.66)" />
<rect x="33.3" y="88.3" width="40.4" height="11.2" rx="10.7" fill="none" fill-opacity="0.32" stroke="hsl(104, 72%, 65%)" stroke-width="2.5"  transform="translate(18.5 46.8) rotate(74.2) scale(1.28 1.22)" />
<rect x="72.3" y="64.2" width="24.8" height="18.0" rx="0" fill="none" fill-opacity="0.32" stroke="hsl(83, 65%, 44%)" stroke-width="4.8"  transform="translate(22.8 37.0) rotate(296.3) scale(0.69 0.65)" />
<rect x="66.6" y="54.3" width="27.9" height="36.2" rx="0" fill="none" fill-opacity="0.41"   transform="translate(41.9 61.9) rotate(100.1) scale(1.46 0.71)" />
<path d="M 14.2 19.0 C 3.4 3.4, 20.9 4.3, 27.3 5.4 C 42.0 13.3, 94.0 27.4, 98.4 40.2 C 83.9 20.3, 19.7 2.5, 32.3 16.8 C 15.7 0.0, 10.8 32.7, 4.9 29.3 C 0.0 42.4, 58.6 58.5, 66.4 66.9 C 57.6 60.6, 98.2 60.5, 85.1 64.3 Z" fill="none" fill-opacity="1.00" stroke="hsl(2, 82%, 55%)" stroke-width="3.35"  transform="translate(91.3 14.2) rotate(105.3) scale(1.42 0.99)" />
<path d="M 53.1 15.6 C 42.2 29.8, 45.6 62.5, 38.5 48.0 C 53.5 67.2, 26.9 30.7, 26.8 16.1 C 14.2 21.3, 41.5 6.6, 32.4 2.0 C 37.2 0.0, 25.0 100.0, 21.0 90.3 C 31.8 89.3, 31.5 30.7, 40.0 28.6 C 31.9 32.6, 4.0 53.1, 14.9 46.0 Z" fill="none" fill-opacity="0.41" stroke="hsl(104, 72%, 65%)" stroke-width="2.77"  transform="translate(48.2 80.1) rotate(347.4) scale(1.96 1.95)" />
<path d="M 76.8 23.9 C 79.0 9.8, 75.8 19.9, 73.4 5.9 C 57.4 20.3, 54.8 24.0, 58.5 14.7 C 43.6 9.4, 86.7 94.8, 87.3 85.3 C 71.2 89.8, 35.3 94.1, 27.0 91.2 C 12.2 100.0, 12.3 11.1, 6.5 21.8 C 13.7 23.9, 93.1 20.5, 91.0 30.2 C 100.0 13.6, 85.9 100.0, 75.3 88.5 C 70.5 100.0, 19.7 96.7, 24.2 82.7 C 38.4 92.9, 11.6 60.9, 5.3 56.5 Z" fill="hsl(151, 70%, 62%)" fill-opacity="0.68" stroke="none" stroke-width="1.91"   />
<rect x="45.2" y="80.5" width="41.1" height="13.2" rx="0" fill="hsl(86, 72%, 68%)" fill-opacity="0.42" stroke="hsl(290, 83%, 63%)" stroke-width="2.5"  transform="translate(45.4 64.1) rotate(102.9) scale(1.67 0.97)" />
<circle cx="54.7" cy="32.9" r="0.1" fill="url(#g2)" fill-opacity="0.69"  transform="translate(4.4 36.0) rotate(75.8) scale(1.39 1.74)" />
<path d="M 63.5 48.8 C 70.7 55.3, 59.0 46.0, 73.8 53.9 C 82.9 71.8, 22.7 95.7, 21.9 97.7 C 36.4 100.0, 74.3 0.0, 64.9 1.1 C 57.6 0.0, 12.7 20.1, 10.4 18.2 C 11.2 2.4, 9.4 57.3, 19.5 68.5 C 39.3 63.9, 47.7 25.0, 38.9 14.6 C 50.5 9.3, 100.0 0.0, 91.8 2.5 Z" fill="hsl(183, 71%, 60%)" fill-opacity="0.89" stroke="none" stroke-width="5.13"  transform="translate(31.9 73.4) rotate(141.4) scale(1.73 1.25)" />
<path d="M 66.9 48.8 C 80.9 30.5, 73.1 44.9, 83.6 38.5 C 71.6 56.4, 98.9 32.1, 89.7 37.6 C 71.0 48.0, 20.2 74.0, 23.1 76.2 C 19.6 70.2, 74.3 90.9, 69.8 98.9 C 64.3 100.0, 56.1 0.0, 59.9 0.5 C 73.5 0.0, 5.8 67.8, 9.0 74.1 C 5.0 65.1, 59.6 24.7, 62.7 24.3 C 57.3 31.5, 81.0 81.0, 78.3 67.1 C 77.7 54.9, 88.2 63.5, 98.4 74.4 C 88.5 54.7, 57.7 57.6, 51.6 66.3 Z" fill="none" fill-opacity="0.93" stroke="hsl(83, 65%, 44%)" stroke-width="5.01"  transform="translate(69.0 92.8) rotate(358.0) scale(0.60 1.16)" />
<circle cx="4.1" cy="0.8" r="6.0" fill="hsl(322, 74%, 44%)" fill-opacity="0.99"  transform="translate(30.6 0.7) rotate(165.3) scale(1.51 0.79)" />
<path d="M 81.5 58.8 C 94.7 43.7, 19.5 1.5, 22.9 3.6 C 38.7 14.0, 30.5 52.3, 39.9 66.8 C 30.9 61.6, 95.7 29.6, 93.9 42.6 C 100.0 29.6, 54.9 13.6, 41.5 16.5 C 52.2 9.9, 37.0 29.8, 26.5 21.9 C 19.3 15.8, 36.0 38.6, 46.8 52.0 Z" fill="hsl(2, 82%, 55%)" fill-opacity="0.62" stroke="none" stroke-width="2.57" filter="url(#f1)" transform="translate(4.5 39.9) rotate(24.3) scale(0.79 1.73)" />
<circle cx="5.1" cy="11.0" r="10.7" fill="hsl(290, 83%, 63%)" fill-opacity="0.56" filter="url(#f1)" transform="translate(24.2 65.9) rotate(189.2) scale(1.28 1.81)" />
<path d="M 70.8 84.0 C 90.0 94.0, 44.1 67.9, 37.4 69.9 C 38.8 58.2, 32.2 53.3, 22.0 56.9 C 5.8 44.3, 100.0 0.0, 99.9 2.8 C 81.1 7.3, 80.0 11.3, 72.5 7.3 C 53.5 6.6, 87.9 52.3, 99.9 56.4 C 91.8 48.4, 45.6 78.5, 47.3 70.2 C 53.3 53.2, 55.4 42.1, 49.3 52.8 C 67.0 49.9, 100.0 27.4, 92.2 35.2 C 99.3 21.9, 65.8 1.9, 76.4 10.2 " fill="hsl(242, 72%, 49%)" fill-opacity="0.91" stroke="none" stroke-width="1.97"  transform="translate(45.4 76.2) rotate(137.6) scale(1.30 0.93)" />
<path d="M 95.5 21.7 C 88.1 39.3, 57.0 2.8, 47.4 13.4 C 37.1 6.1, 48.2 60.6, 53.3 53.5 C 34.7 68.5, 59.3 5.9, 55.8 16.6 C 52.0 0.0, 42.5 99.5, 55.4 97.8 C 72.5 80.7, 86.8 99.7, 96.6 90.9 C 82.2 81.8, 61.7 64.7, 56.1 75.5 C 73.4 78.6, 38.0 53.9, 52.8 63.5 C 70.5 56.2, 67.4 49.8, 77.2 57.6 C 85.1 57.0, 42.4 21.8, 51.2 9.3 Z" fill="hsl(183, 71%, 60%)" fill-opacity="0.87" stroke="none" stroke-width="4.31"  transform="translate(20.5 16.6) rotate(142.7) scale(0.52 1.40)" />
<path d="M 37.2 52.9 C 27.1 46.5, 85.0 34.5, 80.8 31.1 C 100.0 27.2, 0.0 92.4, 3.1 91.0 C 0.0 97.0, 47.2 32.6, 39.4 45.6 C 31.2 37.0, 30.6 35.0, 28.8 26.7 C 47.6 20.9, 14.1 64.3, 5.0 67.3 C 0.0 83.7, 48.6 65.8, 50.5 61.8 C 65.7 53.5, 81.3 52.9, 87.3 47.5 C 81.4 30.0, 17.7 0.3, 15.3 14.6 C 20.4 21.5, 100.0 56.2, 97.1 48.7 C 94.8 36.5, 45.8 71.0, 42.2 58.6 Z" fill="hsl(106, 75%, 59%)" fill-opacity="0.91" stroke="none" stroke-width="2.61"  transform="translate(12.9 95.9) rotate(72.0) scale(1.72 1.47)" />
<circle cx="87.2" cy="41.9" r="4.0" fill="url(#g2)" fill-opacity="0.91"  transform="translate(40.3 79.1) rotate(138.6) scale(0.61 1.34)" />
<path d="M 6.6 82.6 C 17.7 83.3, 44.0 61.5, 34.3 48.0 C 18.3 33.5, 90.4 23.0, 78.7 14.7 C 91.2 0.0, 32.3 100.0, 27.6 99.3 C 13.3 90.6, 56.0 51.7, 63.7 37.4 C 51.4 39.4, 40.2 11.6, 30.8 1.4 C 13.4 3.7, 18.5 73.8, 30.3 58.9 Z" fill="none" fill-opacity="0.39" stroke="hsl(104, 72%, 65%)" stroke-width="3.64"  transform="translate(42.1 13.9) rotate(116.9) scale(1.43 1.62)" />
<circle cx="3.8" cy="56.8" r="17.1" fill="hsl(86, 72%, 68%)" fill-opacity="0.97"  transform="translate(96.3 20.1) rotate(229.3) scale(0.75 0.65)" />
<rect x="34.7" y="39.1" width="38.0" height="34.4" rx="0" fill="hsl(40, 53%, 69%)" fill-opacity="0.65"   transform="translate(58.5 57.1) rotate(351.8) scale(0.57 1.23)" />
<circle cx="46.8" cy="86.1" r="16.7" fill="url(#g0)" fill-opacity="0.66"  transform="translate(85.5 99.2) rotate(177.9) scale(1.92 1.71)" />
<path d="M 17.8 13.0 C 2.4 0.0, 14.6 44.0, 22.6 39.6 C 22.7 50.2, 59.2 14.5, 72.8 13.4 C 76.7 30.2, 76.1 68.3, 85.3 80.5 C 76.9 71.9, 76.5 87.3, 87.5 77.5 C 75.7 58.3, 100.0 76.1, 92.7 70.9 C 79.0 66.5, 82.5 87.5, 73.7 84.0 Z" fill="hsl(106, 75%, 59%)" fill-opacity="0.61" stroke="none" stroke-width="1.63"  transform="translate(41.7 91.5) rotate(143.2) scale(1.46 1.88)" />
<path d="M 34.7 57.6 C 45.8 56.9, 56.6 41.8, 68.9 32.7 C 56.1 26.8, 100.0 100.0, 96.3 92.6 C 96.3 100.0, 27.7 89.3, 15.8 77.0 C 0.0 65.5, 100.0 73.8, 96.4 79.0 C 100.0 81.2, 38.5 83.7, 47.8 92.3 C 45.9 96.1, 26.4 80.8, 31.5 90.9 C 38.8 84.0, 50.0 28.0, 50.4 18.2 C 36.4 34.8, 42.6 98.8, 50.1 89.3 C 47.8 95.7, 20.0 34.8, 16.7 24.4 Z" fill="hsl(83, 65%, 44%)" fill-opacity="0.29" stroke="none" stroke-width="5.06"  transform="translate(91.2 26.5) rotate(38.2) scale(0.64 1.41)" />
<circle cx="18.2" cy="75.6" r="4.7" fill="hsl(290, 83%, 63%)" fill-opacity="0.70"  transform="translate(55.5 18.3) rotate(71.3) scale(0.76 1.47)" />
<circle cx="92.5" cy="22.0" r="9.4" fill="url(#g0)" fill-opacity="0.53"  transform="translate(30.0 86.1) rotate(5.6) scale(1.27 1.28)" />
<path d="M 82.9 80.5 C 94.4 72.0, 74.6 32.3, 88.2 18.4 C 73.3 33.2, 88.0 89.6, 78.5 77.8 C 90.3 74.8, 58.2 22.5, 49.3 19.1 C 52.4 11.1, 27.2 80.2, 16.7 69.3 C 20.5 59.9, 59.2 77.9, 57.7 85.8 C 38.3 98.2, 100.0 58.0, 90.8 50.7 C 80.4 69.5, 78.4 12.3, 92.1 20.3 C 76.3 15.4, 1.3 25.0, 15.3 16.8 C 0.0 23.2, 80.1 14.2, 69.6 13.6 C 49.6 28.6, 74.4 8.8, 86.2 19.0 Z" fill="hsl(83, 65%, 44%)" fill-opacity="0.72" stroke="none" stroke-width="4.30"  transform="translate(12.5 23.5) rotate(336.0) scale(1.21 1.63)" />
<rect x="5.8" y="10.9" width="21.2" height="35.2" rx="0" fill="hsl(40, 53%, 69%)" fill-opacity="0.81" stroke="hsl(40, 53%, 69%)" stroke-width="3.2"  transform="translate(6.8 8.4) rotate(180.8) scale(0.85 1.87)" />
<path d="M 53.7 72.8 C 47.1 78.8, 30.2 54.5, 34.4 40.4 C 46.8 40.5, 100.0 100.0, 96.1 97.7 C 100.0 94.7, 69.8 0.0, 55.6 0.4 C 64.4 10.9, 56.3 6.3, 53.9 15.7 C 35.2 27.9, 48.4 29.2, 47.4 30.4 C 29.6 23.3, 61.6 0.0, 51.3 3.3 C 37.9 4.4, 74.9 76.4, 69.3 64.1 C 72.8 70.8, 100.0 18.7, 99.0 20.4 C 100.0 6.5, 25.5 49.1, 24.2 37.6 " fill="none" fill-opacity="0.34" stroke="hsl(242, 72%, 49%)" stroke-width="3.79"  transform="translate(74.3 95.3) rotate(108.2) scale(1.19 1.27)" />
<circle cx="87.9" cy="14.6" r="0.5" fill="hsl(290, 83%, 63%)" fill-opacity="0.66"  transform="translate(70.6 38.8) rotate(144.8) scale(1.48 0.82)" />
<path d="M 5.0 48.7 C 9.4 53.9, 48.0 35.4, 52.3 43.0 C 38.1 55.8, 77.4 61.1, 66.5 52.2 C 54.6 68.3, 100.0 30.2, 92.2 42.3 C 97.5 29.2, 35.9 0.0, 40.1 0.3 C 47.1 4.9, 54.8 49.8, 44.3 61.8 C 37.9 71.5, 78.2 33.0, 71.2 43.0 C 66.3 56.6, 55.9 92.0, 41.2 84.0 Z" fill="none" fill-opacity="0.56" stroke="hsl(183, 71%, 60%)" stroke-width="1.38"  transform="translate(4.8 10.9) rotate(6.3) scale(0.77 1.34)" />
<rect x="50.1" y="49.0" width="37.7" height="37.8" rx="0" fill="none" fill-opacity="0.49"   transform="translate(87.9 64.7) rotate(81.1) scale(1.46 1.13)" />
<rect x="23.0" y="13.5" width="42.1" height="19.2" rx="5.0" fill="hsl(322, 74%, 44%)" fill-opacity="0.69" stroke="hsl(183, 71%, 60%)" stroke-width="1.3"  transform="translate(31.0 99.1) rotate(96.5) scale(1.45 1.84)" />
<rect x="34.8" y="12.8" width="41.0" height="12.8" rx="0" fill="none" fill-opacity="0.67"    />
<path d="M 65.2 11.6 C 85.1 6.8, 83.3 0.0, 73.7 5.3 C 58.4 0.0, 0.0 23.5, 9.6 22.7 C 4.3 41.6, 77.0 74.9, 68.0 78.3 C 81.4 87.5, 34.8 7.2, 20.9 8.2 C 28.2 9.6, 57.2 61.4, 65.2 63.7 C 51.6 79.4, 54.9 49.3, 62.0 40.5 C 78.4 45.8, 40.2 66.8, 53.0 55.4 C 58.7 48.3, 83.8 15.7, 83.6 26.4 C 95.5 31.2, 3.4 46.3, 8.8 56.8 Z" fill="hsl(86, 72%, 68%)" fill-opacity="0.64" stroke="none" stroke-width="3.00"  transform="translate(41.9 16.5) rotate(310.9) scale(1.46 0.83)" />
<path d="M 5.5 65.9 C 0.0 57.5, 19.6 44.1, 7.9 29.6 C 0.1 21.5, 34.7 52.9, 37.5 39.7 C 41.3 46.6, 0.0 22.9, 0.4 24.7 C 0.0 16.1, 67.7 62.7, 53.9 59.7 C 53.8 41.6, 99.9 8.6, 97.6 17.7 C 95.6 6.2, 21.5 45.7, 23.1 52.7 C 40.7 67.7, 76.4 73.3, 82.9 71.9 C 82.5 89.7, 60.2 40.4, 69.9 34.8 C 51.3 32.8, 43.4 9.8, 40.9 3.9 Z" fill="hsl(183, 71%, 60%)" fill-opacity="0.85" stroke="none" stroke-width="1.59"  transform="translate(12.7 86.8) rotate(132.7) scale(1.74 1.13)" />
<rect x="31.6" y="53.2" width="20.1" height="39.3" rx="15.0" fill="none" fill-opacity="0.94" stroke="hsl(322, 74%, 44%)" stroke-width="2.2"  transform="translate(94.4 93.9) rotate(334.8) scale(1.22 1.29)" />
<circle cx="83.2" cy="22.5" r="10.0" fill="url(#g2)" fill-opacity="0.56" filter="url(#f1)" transform="translate(26.8 97.8) rotate(297.5) scale(1.04 1.74)" />
<circle cx="13.9" cy="19.7" r="9.4" fill="url(#g2)" fill-opacity="0.84"  transform="translate(21.4 94.5) rotate(42.6) scale(1.72 0.67)" />
<rect x="26.8" y="68.1" width="40.3" height="24.5" rx="0" fill="none" fill-opacity="0.60" stroke="hsl(104, 72%, 65%)" stroke-width="3.7"  transform="translate(27.8 55.9) rotate(320.7) scale(0.89 1.75)" />
<rect x="67.9" y="28.0" width="27.3" height="25.4" rx="13.3" fill="none" fill-opacity="0.44" stroke="hsl(151, 70%, 62%)" stroke-width="2.4"  transform="translate(67.6 14.1) rotate(278.7) scale(0.73 1.65)" />
<path d="M 18.6 33.2 C 1.5 18.5, 37.5 80.5, 44.9 95.4 C 37.0 77.2, 50.6 60.1, 54.7 75.0 C 40.1 83.8, 65.6 87.1, 74.9 77.1 C 92.1 71.6, 12.5 55.8, 9.5 42.9 C 24.7 29.8, 97.3 60.1, 88.1 72.5 C 100.0 68.3, 85.6 45.0, 70.6 40.9 C 67.0 49.5, 61.1 11.9, 61.6 16.5 Z" fill="hsl(83, 65%, 44%)" fill-opacity="0.55" stroke="none" stroke-width="2.52" filter="url(#f1)" transform="translate(28.9 48.6) rotate(81.8) scale(1.19 1.06)" />
<path d="M 30.8 7.4 C 36.0 18.5, 42.8 72.8, 41.2 78.0 C 30.2 90.3, 74.7 57.6, 70.3 69.7 C 56.2 79.4, 91.7 100.0, 76.8 94.3 C 86.6 88.0, 34.0 95.5, 24.1 89.4 C 25.0 100.0, 81.6 88.5, 69.0 79.8 C 81.7 97.8, 45.6 48.5, 37.3 59.6 C 30.1 58.1, 27.1 87.5, 37.1 77.0 C 35.0 94.2, 20.1 21.0, 31.8 21.1 C 36.9 12.3, 47.2 69.9, 56.9 73.1 Z" fill="hsl(322, 74%, 44%)" fill-opacity="0.28" stroke="none" stroke-width="4.43"  transform="translate(59.2 28.0) rotate(40.1) scale(1.28 1.54)" />
<circle cx="43.9" cy="82.4" r="12.3" fill="hsl(40, 53%, 69%)" fill-opacity="0.42"  transform="translate(70.8 78.0) rotate(105.7) scale(1.87 1.61)" />
<rect x="48.8" y="40.5" width="46.6" height="26.4" rx="6.7" fill="hsl(183, 71%, 60%)" fill-opacity="0.70"   transform="translate(95.7 60.0) rotate(114.4) scale(1.92 1.67)" />
<circle cx="43.4" cy="51.5" r="2.8" fill="hsl(144, 86%, 72%)" fill-opacity="0.88"  transform="translate(94.8 99.4) rotate(55.5) scale(1.50 1.21)" />
<rect x="37.7" y="22.1" width="34.5" height="13.3" rx="0" fill="none" fill-opacity="0.47"    />
<rect x="12.3" y="35.4" width="42.0" height="10.7" rx="17.5" fill="hsl(106, 75%, 59%)" fill-opacity="0.58"   transform="translate(2.8 32.0) rotate(203.9) scale(0.80 1.04)" />
<rect x="59.4" y="53.0" width="22.7" height="24.0" rx="14.0" fill="none" fill-opacity="0.36"   transform="translate(79.1 89.2) rotate(263.2) scale(0.65 0.99)" />
<rect x="55.0" y="2.7" width="44.3" height="26.3" rx="0" fill="none" fill-opacity="0.32"  filter="url(#f1)" transform="translate(19.8 74.3) rotate(190.7) scale(1.99 1.17)" />
<circle cx="89.7" cy="20.4" r="0.7" fill="hsl(242, 72%, 49%)" fill-opacity="0.60"  transform="translate(37.6 85.7) rotate(216.4) scale(1.68 1.93)" />
<path d="M 76.3 66.0 C 84.2 74.5, 64.5 39.7, 63.8 46.8 C 46.6 42.0, 0.0 57.6, 3.2 44.7 C 1.8 59.5, 13.4 36.4, 3.2 51.1 C 21.0 62.1, 17.9 0.2, 22.9 8.3 C 12.5 0.0, 61.4 46.3, 57.8 52.1 C 52.6 68.5, 19.0 100.0, 31.3 98.4 C 50.2 82.0, 96.3 96.2, 97.6 97.8 C 100.0 79.2, 90.7 29.1, 79.5 24.6 Z" fill="none" fill-opacity="0.56" stroke="hsl(322, 74%, 44%)" stroke-width="4.46" filter="url(#f1)" transform="translate(30.4 66.3) rotate(343.4) scale(1.06 0.52)" />
<rect x="10.3" y="74.4" width="43.7" height="22.7" rx="17.5" fill="none" fill-opacity="0.90"   transform="translate(30.0 49.5) rotate(74.7) scale(1.60 1.67)" />
<circle cx="25.8" cy="99.1" r="8.3" fill="url(#g2)" fill-opacity="0.76"  transform="translate(56.9 4.1) rotate(27.6) scale(0.92 1.79)" />
<path d="M 62.3 64.6 C 45.7 63.6, 45.2 39.7, 46.9 46.7 C 55.8 56.2, 64.1 67.0, 59.2 53.7 C 57.6 42.8, 38.4 38.2, 53.3 37.9 C 65.6 45.1, 36.2 17.9, 26.0 6.9 C 42.6 18.6, 26.4 88.7, 23.1 90.2 C 6.7 79.5, 13.2 0.0, 19.6 10.8 C 22.6 0.0, 100.0 6.6, 99.8 10.9 Z" fill="hsl(183, 71%, 60%)" fill-opacity="0.60" stroke="none" stroke-width="1.32" filter="url(#f1)" transform="translate(86.7 15.3) rotate(235.6) scale(1.70 1.80)" />
<path d="M 18.2 73.7 C 9.2 58.5, 16.5 38.7, 4.7 44.0 C 7.1 63.1, 61.9 64.0, 70.0 66.2 C 53.8 48.0, 84.4 0.0, 90.6 5.7 C 73.1 21.3, 90.0 79.1, 75.0 75.9 C 66.5 69.2, 61.7 84.6, 62.7 89.0 C 66.2 99.3, 57.0 65.8, 54.5 73.5 C 74.1 77.1, 69.7 1.3, 60.9 6.8 C 74.9 0.0, 36.2 63.2, 22.8 62.1 C 4.9 66.8, 41.6 86.8, 28.0 74.1 Z" fill="hsl(322, 74%, 44%)" fill-opacity="0.78" stroke="none" stroke-width="4.37"  transform="translate(21.1 31.7) rotate(220.0) scale(1.16 1.19)" />
<rect x="19.4" y="40.5" width="32.2" height="22.3" rx="8.9" fill="none" fill-opacity="0.23"   transform="translate(37.0 85.4) rotate(211.0) scale(1.89 0.80)" />
<path d="M 60.7 79.3 C 65.3 94.4, 95.7 36.0, 90.4 31.2 C 100.0 48.4, 68.0 60.0, 64.8 60.8 C 58.2 58.1, 84.1 2.3, 96.1 10.7 C 100.0 30.2, 56.5 15.8, 54.6 17.0 C 62.5 0.0, 63.0 85.8, 62.0 89.7 C 59.6 84.7, 10.1 92.6, 19.1 86.8 C 33.0 80.8, 83.1 30.7, 87.4 18.4 C 69.0 17.1, 49.6 95.7, 48.0 95.9 C 41.8 100.0, 45.5 52.5, 38.2 62.0 Z" fill="hsl(144, 86%, 72%)" fill-opacity="0.33" stroke="none" stroke-width="4.29"  transform="translate(51.8 59.0) rotate(292.9) scale(1.18 1.97)" />
<path d="M 65.8 64.4 C 85.4 73.6, 94.1 40.2, 79.4 49.8 C 82.7 58.8, 50.6 91.0, 60.7 81.7 C 52.4 98.7, 19.7 95.2, 7.6 88.0 C 23.6 96.0, 54.8 27.0, 64.7 26.9 C 60.1 6.9, 76.7 10.9, 64.4 5.2 C 77.3 6.9, 43.0 75.2, 35.2 87.9 C 24.2 100.0, 26.5 44.8, 12.6 45.1 C 1.5 62.5, 100.0 80.4, 99.1 66.7 C 96.0 85.3, 54.8 71.1, 52.4 85.0 Z" fill="none" fill-opacity="0.34" stroke="hsl(104, 72%, 65%)" stroke-width="4.00"  transform="translate(12.1 41.8) rotate(195.6) scale(1.51 1.41)" />
<rect x="28.7" y="31.6" width="23.3" height="20.7" rx="0" fill="hsl(83, 65%, 44%)" fill-opacity="0.84"   transform="translate(27.9 12.2) rotate(255.4) scale(1.15 1.33)" />
<rect x="20.5" y="68.7" width="45.9" height="17.6" rx="14.0" fill="none" fill-opacity="0.75" stroke="hsl(83, 65%, 44%)" stroke-width="1.4"  transform="translate(56.9 29.8) rotate(229.4) scale(1.93 1.94)" />
<rect x="70.0" y="7.9" width="20.6" height="24.8" rx="3.3" fill="hsl(86, 72%, 68%)" fill-opacity="0.49"  filter="url(#f1)" transform="translate(36.8 84.4) rotate(156.4) scale(1.81 1.46)" />
<path d="M 0.6 19.8 C 7.1 22.2, 17.6 78.8, 14.9 74.6 C 26.2 84.8, 62.1 8.0, 74.3 21.4 C 78.5 7.2, 0.0 83.4, 2.4 81.5 C 0.0 74.9, 65.4 86.7, 57.1 90.2 C 60.9 78.9, 32.2 14.8, 42.1 15.2 C 35.1 0.0, 18.9 34.0, 32.5 38.2 C 47.2 42.3, 73.3 52.5, 81.2 38.5 C 80.0 52.4, 85.1 62.1, 80.8 61.0 Z" fill="hsl(86, 72%, 68%)" fill-opacity="0.35" stroke="none" stroke-width="1.32"  transform="translate(19.8 84.5) rotate(328.7) scale(1.07 0.64)" />
<path d="M 94.4 97.9 C 99.3 94.4, 27.1 15.8, 13.8 29.1 C 26.8 16.4, 7.8 38.2, 22.0 50.3 C 31.1 50.1, 89.1 0.0, 83.2 2.7 C 71.8 3.0, 35.9 29.6, 24.6 38.5 C 38.5 43.2, 68.5 80.9, 68.6 80.8 C 62.2 99.2, 11.8 84.3, 9.5 84.4 Z" fill="hsl(40, 53%, 69%)" fill-opacity="0.93" stroke="none" stroke-width="4.80"   />
<rect x="3.5" y="10.2" width="47.4" height="25.5" rx="0" fill="hsl(151, 70%, 62%)" fill-opacity="0.40" stroke="hsl(144, 86%, 72%)" stroke-width="2.0"  transform="translate(56.0 1.9) rotate(29.0) scale(1.46 1.44)" />
<circle cx="56.6" cy="28.9" r="9.0" fill="url(#g0)" fill-opacity="0.56" filter="url(#f1)" transform="translate(18.8 34.3) rotate(67.4) scale(0.54 0.69)" />
<path d="M 79.5 1.7 C 90.2 0.0, 45.1 54.6, 30.4 47.9 C 30.2 42.0, 90.5 84.0, 83.0 83.1 C 65.7 69.4, 14.5 59.2, 3.9 60.5 C 1.4 71.6, 12.6 10.6, 5.9 22.5 C 15.1 4.6, 54.1 79.8, 65.9 80.1 C 74.8 97.3, 100.0 70.4, 94.4 78.1 C 100.0 91.0, 86.7 18.4, 92.0 11.1 C 91.9 0.0, 48.0 100.0, 48.6 92.4 C 43.5 97.4, 71.6 100.0, 81.8 96.3 C 62.6 78.8, 60.1 80.4, 72.0 95.2 Z" fill="hsl(290, 83%, 63%)" fill-opacity="0.84" stroke="none" stroke-width="3.05"  transform="translate(25.0 70.3) rotate(354.9) scale(1.29 1.17)" />
<rect x="45.7" y="70.0" width="47.0" height="19.1" rx="0" fill="hsl(151, 70%, 62%)" fill-opacity="0.62"   transform="translate(73.0 7.3) rotate(330.5) scale(1.89 1.65)" />
<circle cx="39.3" cy="85.1" r="2.7" fill="url(#g1)" fill-opacity="0.52"  transform="translate(60.8 55.1) rotate(319.0) scale(1.88 0.78)" />
<path d="M 3.0 40.4 C 3.3 39.5, 34.2 86.8, 42.5 92.1 C 46.3 78.9, 5.1 57.5, 9.5 48.7 C 0.0 48.4, 88.8 93.4, 98.2 89.5 C 91.9 69.5, 49.4 45.8, 45.0 32.6 C 49.0 17.2, 47.6 100.0, 37.4 93.4 C 29.4 95.9, 73.8 0.0, 62.0 1.1 C 68.5 9.9, 9.1 21.9, 3.3 30.2 C 21.4 23.2, 82.5 38.4, 80.4 35.3 C 60.7 21.7, 82.6 26.7, 82.5 23.7 Z" fill="hsl(106, 75%, 59%)" fill-opacity="0.78" stroke="none" stroke-width="4.77"  transform="translate(73.8 89.3) rotate(79.1) scale(0.82 1.63)" />
<path d="M 8.7 88.3 C 7.1 84.6, 53.6 100.0, 45.8 93.1 C 26.0 100.0, 0.0 68.8, 2.1 62.0 C 14.0 45.5, 73.6 77.8, 81.1 84.1 C 93.3 85.4, 70.6 100.0, 84.2 98.5 C 85.3 100.0, 39.6 82.4, 47.2 92.0 C 49.2 100.0, 7.1 89.7, 12.5 85.5 C 26.3 94.1, 0.0 14.9, 11.5 27.3 " fill="none" fill-opacity="0.63" stroke="hsl(322, 74%, 44%)" stroke-width="4.86"  transform="translate(20.1 36.1) rotate(180.5) scale(0.61 1.44)" />
<circle cx="61.6" cy="79.3" r="4.6" fill="hsl(322, 74%, 44%)" fill-opacity="0.46"  transform="translate(58.1 55.4) rotate(358.2) scale(1.00 0.93)" />
<path d="M 64.8 26.8 C 53.0 40.2, 0.0 77.5, 8.3 90.5 C 0.0 77.5, 62.1 14.5, 69.8 20.2 C 63.8 14.8, 95.4 31.2, 99.5 38.1 C 89.0 49.1, 75.2 89.3, 78.2 96.8 C 78.7 100.0, 79.4 55.9, 72.1 52.9 C 74.7 60.6, 100.0 0.0, 85.5 7.3 Z" fill="none" fill-opacity="0.28" stroke="hsl(2, 82%, 55%)" stroke-width="2.94"  transform="translate(20.6 60.7) rotate(188.3) scale(1.88 1.42)" />
<path d="M 29.8 79.3 C 39.8 73.4, 86.7 0.0, 85.9 2.6 C 67.6 9.7, 10.9 18.2, 12.6 10.7 C 4.8 2.8, 45.5 49.0, 48.6 62.5 C 62.9 82.3, 24.2 96.7, 11.8 85.6 C 12.1 84.0, 83.1 39.7, 91.2 32.1 C 100.0 45.2, 70.5 12.5, 69.8 16.0 C 74.4 25.0, 74.5 72.0, 62.1 57.3 C 76.7 50.4, 21.0 64.8, 33.0 65.6 C 20.2 60.8, 33.1 0.8, 38.2 4.5 Z" fill="none" fill-opacity="0.96" stroke="hsl(83, 65%, 44%)" stroke-width="1.61"  transform="translate(26.8 78.2) rotate(287.1) scale(1.35 0.63)" />
<path d="M 3.5 76.9 C 21.2 62.8, 48.6 52.8, 63.0 41.2 C 45.7 48.1, 69.3 66.5, 56.2 81.1 C 53.1 83.9, 42.3 33.1, 55.4 18.8 C 45.0 35.3, 85.7 74.8, 77.8 83.4 C 61.7 92.7, 100.0 34.7, 92.1 43.4 C 97.7 44.5, 5.6 53.4, 1.1 62.9 Z" fill="hsl(86, 72%, 68%)" fill-opacity="0.88" stroke="none" stroke-width="5.05"  transform="translate(48.0 25.4) rotate(223.2) scale(0.64 1.91)" />
<path d="M 74.8 77.9 C 71.2 69.9, 45.4 46.4, 43.4 38.6 C 45.4 45.2, 44.6 59.5, 49.3 49.5 C 63.6 47.1, 8.6 90.7, 23.5 78.3 C 6.1 60.8, 33.8 0.0, 47.2 6.1 C 39.0 21.4, 35.3 96.0, 25.2 97.6 C 21.2 100.0, 37.7 58.0, 36.2 50.6 C 33.5 46.1, 45.1 52.4, 46.4 59.0 C 50.6 64.7, 64.1 62.0, 76.4 64.3 C 89.1 65.2, 55.6 5.1, 69.3 11.0 C 51.0 21.9, 90.3 55.6, 82.6 44.3 Z" fill="hsl(40, 53%, 69%)" fill-opacity="0.51" stroke="none" stroke-width="5.11"  transform="translate(51.3 66.8) rotate(170.7) scale(1.53 0.89)" />
<path d="M 49.3 42.4 C 60.4 37.5, 33.5 0.0, 31.9 0.2 C 22.0 7.8, 34.9 0.0, 41.9 5.5 C 52.5 13.4, 33.7 95.5, 35.2 86.2 C 33.9 73.2, 51.7 51.3, 44.2 39.3 C 32.0 55.8, 80.7 8.2, 75.1 21.0 C 68.0 38.3, 45.7 46.0, 49.0 35.8 C 64.4 22.7, 66.4 61.3, 76.2 47.9 C 81.6 66.7, 16.4 28.7, 8.1 21.0 Z" fill="hsl(86, 72%, 68%)" fill-opacity="0.42" stroke="none" stroke-width="3.83"  transform="translate(82.3 93.6) rotate(140.6) scale(1.89 1.96)" />
<rect x="7.8" y="21.2" width="44.8" height="38.3" rx="7.9" fill="none" fill-opacity="0.75"  filter="url(#f1)" transform="translate(54.0 30.3) rotate(345.6) scale(0.51 0.67)" />
<rect x="5.3" y="3.8" width="38.2" height="16.0" rx="0" fill="none" fill-opacity="0.35"   transform="translate(12.9 75.7) rotate(328.1) scale(1.98 0.94)" />
<path d="M 71.2 44.3 C 86.6 55.2, 51.8 14.6, 57.4 10.3 C 47.6 0.0, 68.9 65.6, 60.3 56.4 C 79.5 73.9, 81.9 0.0, 69.7 2.8 C 56.2 10.6, 6.3 86.5, 19.9 72.0 C 1.5 61.3, 57.6 58.1, 70.4 46.8 C 76.1 66.0, 46.6 18.8, 55.2 14.5 C 60.3 6.6, 72.2 0.0, 74.8 3.5 C 56.1 0.0, 14.5 38.1, 26.0 34.0 C 26.3 49.9, 25.4 78.1, 39.6 84.0 C 32.7 84.7, 94.1 85.3, 90.4 72.4 Z" fill="hsl(2, 82%, 55%)" fill-opacity="0.69" stroke="none" stroke-width="4.10"  transform="translate(28.5 95.7) rotate(189.9) scale(1.05 1.07)" />
<path d="M 40.6 23.2 C 22.6 27.9, 84.4 33.7, 95.5 42.6 C 99.1 23.1, 54.4 87.0, 41.2 99.2 C 26.4 82.0, 38.9 33.8, 25.9 27.8 C 42.4 16.4, 87.3 59.2, 80.6 51.1 C 86.3 60.8, 66.5 19.5, 63.1 24.1 C 45.7 29.1, 43.1 76.1, 30.1 73.8 Z" fill="hsl(86, 72%, 68%)" fill-opacity="0.71" stroke="none" stroke-width="2.77"   />
<rect x="12.7" y="8.4" width="24.0" height="37.7" rx="14.9" fill="none" fill-opacity="0.66"   transform="translate(18.7 58.4) rotate(353.3) scale(1.30 0.95)" />
<circle cx="5.7" cy="53.6" r="0.3" fill="url(#g1)" fill-opacity="0.76"  transform="translate(92.8 16.3) rotate(121.9) scale(1.92 0.91)" />
<rect x="11.7" y="18.9" width="29.5" height="24.5" rx="18.0" fill="none" fill-opacity="0.47"   transform="translate(76.3 38.0) rotate(187.4) scale(1.95 1.31)" />
<rect x="31.3" y="52.3" width="46.5" height="38.9" rx="0" fill="hsl(290, 83%, 63%)" fill-opacity="0.21" stroke="hsl(83, 65%, 44%)" stroke-width="4.3"  transform="translate(37.0 24.8) rotate(307.4) scale(1.39 1.10)" />
<path d="M 62.7 11.7 C 48.2 0.0, 16.7 9.4, 22.0 10.3 C 33.8 15.9, 0.0 42.8, 0.1 50.2 C 9.6 69.3, 44.0 85.7, 38.7 76.5 C 51.4 94.4, 26.9 52.4, 22.5 56.7 C 10.9 66.8, 10.4 60.8, 21.2 70.2 C 3.6 58.8, 90.4 54.0, 87.1 62.7 Z" fill="hsl(86, 72%, 68%)" fill-opacity="0.45" stroke="none" stroke-width="5.20"  transform="translate(7.8 95.3) rotate(350.1) scale(0.83 1.97)" />
<g opacity="0.064">
<rect x="0" y="0" width="1" height="100" fill="black" />
<rect x="22" y="0" width="1" height="100" fill="black" />
<rect x="44" y="0" width="1" height="100" fill="black" />
<rect x="66" y="0" width="1" height="100" fill="black" />
<rect x="88" y="0" width="1" height="100" fill="black" />
<rect x="0" y="0" width="100" height="1" fill="black" />
<rect x="0" y="22" width="100" height="1" fill="black" />
<rect x="0" y="44" width="100" height="1" fill="black" />
<rect x="0" y="66" width="100" height="1" fill="black" />
<rect x="0" y="88" width="100" height="1" fill="black" />
</g>

</svg>
