<?xml version="1.0" encoding="UTF-8"?>
<svg xmlns="http://www.w3.org/2000/svg" width="100" height="100" viewBox="0 0 100 100">
<defs>
<linearGradient id="g0" x1="0%" y1="0%" x2="100%" y2="100%">
<stop offset="0.0%" stop-color="hsl(106, 75%, 59%)" />
<stop offset="33.3%" stop-color="hsl(183, 71%, 60%)" />
<stop offset="66.7%" stop-color="hsl(242, 72%, 49%)" />
<stop offset="100.0%" stop-color="hsl(322, 74%, 44%)" />
</linearGradient>
<linearGradient id="g1" x1="0%" y1="0%" x2="100%" y2="100%">
<stop offset="0.0%" stop-color="hsl(290, 83%, 63%)" />
<stop offset="33.3%" stop-color="hsl(2, 82%, 55%)" />
<stop offset="66.7%" stop-color="hsl(86, 72%, 68%)" />
<stop offset="100.0%" stop-color="hsl(83, 65%, 44%)" />
</linearGradient>
<linearGradient id="g2" x1="0%" y1="0%" x2="100%" y2="100%">
<stop offset="0.0%" stop-color="hsl(40, 53%, 69%)" />
<stop offset="33.3%" stop-color="hsl(104, 72%, 65%)" />
<stop offset="66.7%" stop-color="hsl(144, 86%, 72%)" />
<stop offset="100.0%" stop-color="hsl(151, 70%, 62%)" />
</linearGradient>
<filter id="f1" x="-20%" y="-20%" width="140%" height="140%">
  <feGaussianBlur stdDeviation="1.3105010479524393" />
</filter>

</defs>

<path d="M 92.4 60.6 C 100.0 77.5, 91.0 10.4, 86.5 10.3 C 90.9 10.8, 34.1 86.1, 35.0 72.8 C 36.5 58.9, 14.9 29.7, 17.2 43.5 C 6.3 24.5, 28.6 66.6, 14.6 63.1 C 17.9 59.2, 30.5 53.0, 22.0 63.1 C 35.2 60.7, 48.4 17.5, 57.5 8.0 C 41.3 5.1, 9.8 100.0, 17.8 94.6 C 2.7 91.6, 10.3 57.4, 21.6 63.7 Z" fill="hsl(2, 82%, 55%)" fill-opacity="0.61" stroke="none" stroke-width="3.22"  transform="translate(5.4 40.0) rotate(321.4) scale(1.43 1.54)" />
<path d="M 42.3 69.6 C 47.4 50.2, 85.3 71.9, 82.6 75.0 C 96.4 86.3, 5.4 93.5, 16.5 99.5 C 35.2 79.6, 55.9 41.1, 55.0 44.0 C 62.0 32.6, 29.4 48.1, 40.1 45.7 C 50.1 32.0, 42.3 62.9, 36.7 69.8 C 55.0 86.3, 42.8 17.8, 49.3 15.8 C 50.9 0.0, 26.7 91.1, 24.9 76.9 C 28.8 90.4, 56.6 5.9, 50.6 11.0 Z" fill="none" fill-opacity="0.99" stroke="hsl(322, 74%, 44%)" stroke-width="2.80"  transform="translate(84.5 94.6) rotate(216.6) scale(0.82 1.32)" />
<circle cx="22.8" cy="63.9" r="9.5" fill="hsl(40, 53%, 69%)" fill-opacity="0.61"  transform="translate(30.0 40.8) rotate(17.9) scale(0.86 1.63)" />
<path d="M 66.9 81.6 C 66.6 100.0, 75.3 100.0, 75.0 93.4 C 74.7 82.8, 87.0 38.3, 75.8 42.7 C 73.3 34.4, 0.6 41.0, 7.6 45.2 C 0.5 26.9, 10.0 20.9, 12.0 7.1 C 0.8 21.0, 59.4 25.9, 47.1 24.8 C 32.5 38.6, 14.8 84.5, 21.9 85.9 C 4.6 79.7, 43.0 12.3, 48.8 17.8 Z" fill="hsl(144, 86%, 72%)" fill-opacity="0.79" stroke="none" stroke-width="5.01"  transform="translate(62.6 51.2) rotate(317.3) scale(1.52 1.21)" />
<path d="M 87.1 72.6 C 98.6 88.0, 20.0 0.0, 16.4 4.2 C 6.8 9.9, 35.8 28.1, 24.4 15.1 C 32.9 0.0, 6.4 15.3, 16.1 20.3 C 12.3 20.8, 100.0 90.0, 93.7 77.3 C 100.0 88.7, 77.6 51.9, 69.0 43.4 C 75.5 25.4, 77.8 77.8, 75.8 74.1 Z" fill="hsl(40, 53%, 69%)" fill-opacity="0.71" stroke="none" stroke-width="4.48" filter="url(#f1)" transform="translate(81.0 33.8) rotate(207.7) scale(1.79 1.20)" />
<circle cx="66.7" cy="39.2" r="3.1" fill="hsl(106, 75%, 59%)" fill-opacity="0.63"  transform="translate(99.3 4.7) rotate(334.7) scale(0.81 1.84)" />
<circle cx="11.4" cy="3.8" r="13.1" fill="hsl(322, 74%, 44%)" fill-opacity="0.67"  transform="translate(40.7 64.3) rotate(329.3) scale(0.95 1.42)" />
<rect x="22.0" y="24.0" width="23.9" height="18.6" rx="0" fill="none" fill-opacity="0.97" stroke="hsl(242, 72%, 49%)" stroke-width="4.2"   />
<circle cx="97.3" cy="31.7" r="1.3" fill="hsl(183, 71%, 60%)" fill-opacity="0.83"  transform="translate(59.1 49.5) rotate(78.6) scale(1.13 1.49)" />
<rect x="49.3" y="16.6" width="46.8" height="21.2" rx="5.0" fill="none" fill-opacity="0.54" stroke="hsl(40, 53%, 69%)" stroke-width="4.7"  transform="translate(7.9 29.8) rotate(295.7) scale(0.74 0.89)" />
<path d="M 44.4 62.1 C 29.0 47.0, 26.7 84.2, 36.8 74.6 C 46.7 91.9, 20.1 94.4, 27.6 85.0 C 39.0 76.1, 87.3 31.8, 88.0 25.4 C 84.0 33.4, 24.9 38.8, 27.8 37.5 C 11.1 57.0, 97.3 3.6, 91.4 11.8 C 77.2 0.0, 19.4 89.3, 32.8 93.5 C 51.0 94.3, 65.8 84.0, 60.9 79.0 Z" fill="hsl(86, 72%, 68%)" fill-opacity="0.42" stroke="none" stroke-width="1.86"  transform="translate(78.2 1.0) rotate(180.4) scale(1.77 0.73)" />
<rect x="51.5" y="32.9" width="46.5" height="18.6" rx="10.6" fill="none" fill-opacity="0.96"   transform="translate(90.7 92.0) rotate(98.8) scale(1.83 1.40)" />
<path d="M 37.8 43.6 C 18.6 49.2, 18.1 63.7, 22.5 71.5 C 24.1 52.8, 25.2 42.2, 34.1 33.3 C 23.2 31.8, 91.4 60.0, 94.8 45.8 C 100.0 26.3, 55.5 24.9, 60.5 12.5 C 63.7 2.2, 29.0 89.6, 16.3 84.7 C 21.2 100.0, 43.7 4.1, 49.2 0.1 C 36.0 0.0, 8.4 100.0, 22.1 98.8 C 31.9 92.0, 89.3 45.1, 98.6 41.4 " fill="none" fill-opacity="0.45" stroke="hsl(144, 86%, 72%)" stroke-width="2.04"  transform="translate(31.8 54.5) rotate(136.7) scale(1.38 2.00)" />
<path d="M 4.7 5.4 C 0.0 0.0, 61.1 81.3, 66.1 84.4 C 53.2 94.9, 14.7 13.6, 23.6 6.3 C 11.6 7.3, 54.1 58.8, 62.1 55.8 C 67.5 45.3, 27.0 71.7, 22.1 58.5 C 28.4 73.4, 34.4 58.1, 24.5 44.0 C 11.8 48.9, 52.4 13.8, 39.1 27.7 C 39.9 37.6, 53.4 8.2, 44.2 5.4 C 41.5 15.0, 89.4 18.5, 86.4 21.2 C 74.9 14.8, 39.4 71.2, 46.3 71.2 C 57.6 57.0, 39.1 46.0, 45.0 35.8 Z" fill="none" fill-opacity="0.88" stroke="hsl(183, 71%, 60%)" stroke-width="1.84"  transform="translate(14.9 0.2) rotate(248.2) scale(1.19 1.78)" />
<path d="M 54.1 8.4 C 36.3 0.0, 65.0 13.5, 77.5 7.8 C 80.3 2.2, 44.8 28.5, 31.5 40.8 C 44.7 30.9, 53.3 0.0, 61.0 11.0 C 66.6 30.6, 39.0 1.8, 48.2 15.4 C 29.1 0.0, 35.1 76.4, 20.7 86.0 C 6.3 69.6, 63.0 81.0, 76.0 73.4 C 63.1 54.0, 68.4 63.3, 61.6 49.1 C 64.2 41.7, 25.1 98.9, 19.9 97.9 " fill="none" fill-opacity="0.67" stroke="hsl(2, 82%, 55%)" stroke-width="3.01"  transform="translate(2.8 29.6) rotate(194.9) scale(1.37 1.81)" />
<circle cx="83.6" cy="16.5" r="1.4" fill="url(#g0)" fill-opacity="0.44"  transform="translate(78.7 61.2) rotate(149.2) scale(0.60 1.89)" />
<path d="M 2.8 77.6 C 13.6 62.7, 21.1 57.8, 21.2 71.0 C 16.4 73.8, 71.5 34.2, 67.8 21.3 C 72.9 23.0, 41.6 74.8, 28.5 79.7 C 33.5 82.8, 100.0 40.0, 99.1 53.9 C 100.0 58.1, 81.7 73.4, 80.7 88.0 C 83.1 80.7, 74.6 63.1, 82.1 66.5 C 65.6 65.1, 22.0 48.8, 21.4 47.3 C 24.7 51.2, 72.8 42.9, 79.4 28.8 C 85.1 29.8, 60.6 37.1, 48.1 26.1 C 61.8 30.5, 40.2 70.0, 25.5 72.7 Z" fill="none" fill-opacity="0.87" stroke="hsl(183, 71%, 60%)" stroke-width="2.52"  transform="translate(30.9 85.9) rotate(128.6) scale(1.15 0.84)" />
<rect x="7.9" y="80.0" width="39.7" height="17.1" rx="0" fill="hsl(106, 75%, 59%)" fill-opacity="0.33"   transform="translate(51.3 23.2) rotate(58.8) scale(1.41 1.06)" />
<rect x="68.7" y="67.1" width="22.3" height="32.2" rx="5.7" fill="hsl(2, 82%, 55%)" fill-opacity="0.44"   transform="translate(33.4 62.3) rotate(25.7) scale(1.63 1.00)" />
<circle cx="43.7" cy="27.6" r="4.9" fill="hsl(104, 72%, 65%)" fill-opacity="0.95" filter="url(#f1)" transform="translate(70.8 8.4) rotate(219.4) scale(1.61 1.36)" />
<path d="M 82.2 99.6 C 92.8 100.0, 21.8 64.6, 17.7 57.8 C 6.6 46.0, 8.4 25.3, 10.1 38.4 C 5.6 54.0, 35.3 100.0, 37.5 98.2 C 27.3 80.8, 33.4 32.8, 24.2 33.1 C 12.8 41.1, 33.1 44.7, 37.2 56.8 C 32.1 53.1, 35.0 45.5, 49.8 54.7 Z" fill="hsl(322, 74%, 44%)" fill-opacity="0.98" stroke="none" stroke-width="1.98"  transform="translate(51.2 79.8) rotate(168.0) scale(1.26 0.58)" />
<circle cx="76.8" cy="99.0" r="3.5" fill="hsl(106, 75%, 59%)" fill-opacity="0.87"  transform="translate(93.4 59.1) rotate(174.3) scale(1.39 0.75)" />
<circle cx="69.2" cy="39.8" r="7.8" fill="hsl(40, 53%, 69%)" fill-opacity="0.60"  transform="translate(36.5 42.6) rotate(53.4) scale(1.33 0.89)" />
<path d="M 22.0 44.8 C 36.8 25.8, 37.9 44.6, 37.7 42.8 C 45.9 38.4, 3.4 0.0, 8.4 11.3 C 5.8 10.1, 35.9 54.2, 50.6 41.6 C 64.2 21.8, 46.3 79.0, 58.1 86.8 C 67.0 83.2, 36.8 65.8, 39.6 78.1 C 45.8 59.5, 46.8 68.3, 40.1 69.9 Z" fill="hsl(242, 72%, 49%)" fill-opacity="0.50" stroke="none" stroke-width="4.97"  transform="translate(43.4 56.6) rotate(55.0) scale(1.38 1.53)" />
<path d="M 81.7 99.5 C 64.3 85.8, 69.7 69.4, 55.4 63.7 C 62.3 47.5, 100.0 57.7, 93.3 44.1 C 79.3 57.7, 47.9 61.0, 43.9 75.9 C 25.0 64.8, 95.2 65.5, 84.4 58.5 C 93.4 61.5, 58.9 0.4, 64.1 5.9 C 77.8 2.2, 3.2 72.8, 17.9 66.1 C 21.5 61.4, 17.9 100.0, 20.4 94.1 C 31.8 80.5, 24.1 65.6, 25.0 58.7 C 37.3 48.5, 2.1 56.5, 9.0 59.3 Z" fill="none" fill-opacity="0.32" stroke="hsl(242, 72%, 49%)" stroke-width="5.07"  transform="translate(8.6 55.6) rotate(349.3) scale(1.51 0.76)" />
<circle cx="76.4" cy="44.6" r="3.4" fill="hsl(151, 70%, 62%)" fill-opacity="0.48"  transform="translate(76.5 69.0) rotate(190.5) scale(0.57 1.57)" />
<rect x="2.5" y="55.1" width="42.5" height="10.2" rx="15.6" fill="none" fill-opacity="0.40" stroke="hsl(104, 72%, 65%)" stroke-width="1.0"  transform="translate(35.4 76.9) rotate(60.8) scale(1.37 1.41)" />
<path d="M 60.2 8.0 C 58.6 0.0, 17.7 100.0, 9.0 98.2 C 11.7 93.7, 24.3 69.6, 15.8 82.9 C 29.7 100.0, 48.9 55.9, 46.1 57.1 C 26.5 50.5, 100.0 59.2, 92.7 59.5 C 100.0 59.8, 64.0 61.7, 61.7 75.3 C 73.1 56.0, 5.8 0.0, 2.1 6.7 C 0.0 9.6, 59.9 21.9, 48.2 22.7 C 65.9 28.5, 21.0 45.2, 10.9 38.3 Z" fill="none" fill-opacity="0.90" stroke="hsl(86, 72%, 68%)" stroke-width="3.82"  transform="translate(55.3 89.6) rotate(207.9) scale(1.88 1.41)" />
<path d="M 46.6 91.6 C 32.4 88.6, 89.9 76.1, 92.0 64.4 C 100.0 79.7, 79.4 5.8, 82.9 8.9 C 88.9 0.0, 48.8 69.0, 58.2 74.8 C 78.1 62.8, 71.9 61.5, 63.7 47.3 C 53.3 58.2, 20.9 100.0, 34.6 98.2 C 17.3 87.7, 66.6 0.0, 76.5 2.2 C 80.4 4.0, 0.0 18.4, 10.5 14.9 C 27.9 0.0, 63.6 75.8, 65.7 63.7 C 52.7 43.8, 75.2 0.0, 66.7 3.6 Z" fill="hsl(290, 83%, 63%)" fill-opacity="0.44" stroke="none" stroke-width="4.25"   />
<circle cx="3.5" cy="19.5" r="14.8" fill="hsl(106, 75%, 59%)" fill-opacity="0.91"  transform="translate(71.4 11.5) rotate(92.3) scale(1.57 1.95)" />
<path d="M 14.4 96.6 C 9.6 100.0, 49.6 58.9, 61.3 59.8 C 62.1 52.2, 64.6 39.3, 78.2 53.7 C 68.2 33.8, 0.0 40.8, 7.9 48.6 C 5.0 31.2, 67.4 1.7, 66.9 15.3 C 55.4 16.0, 78.5 35.6, 79.9 35.4 C 62.3 18.2, 69.5 88.3, 72.2 82.0 Z" fill="none" fill-opacity="0.54" stroke="hsl(144, 86%, 72%)" stroke-width="2.53"  transform="translate(44.5 82.8) rotate(280.7) scale(0.52 0.58)" />
<path d="M 56.5 46.6 C 61.2 53.0, 22.5 62.9, 11.0 67.7 C 6.9 86.4, 62.3 43.5, 62.2 46.8 C 63.5 61.0, 52.8 36.8, 38.4 35.1 C 23.2 17.7, 14.6 50.2, 6.1 52.7 C 1.5 41.5, 19.7 50.0, 23.5 55.7 C 7.3 65.8, 18.3 51.5, 20.0 51.8 C 0.3 34.1, 26.3 27.2, 35.3 40.9 Z" fill="none" fill-opacity="0.71" stroke="hsl(86, 72%, 68%)" stroke-width="3.18"   />
<path d="M 8.1 40.7 C 20.5 22.5, 3.4 7.9, 3.9 7.0 C 13.7 0.0, 18.9 80.7, 33.9 70.3 C 30.0 75.8, 70.7 32.6, 58.6 33.5 C 55.7 50.8, 12.2 45.8, 2.5 33.8 C 14.8 44.4, 69.1 83.3, 73.5 94.8 C 68.6 97.5, 65.3 100.0, 69.9 92.4 C 77.1 92.2, 87.7 60.4, 83.9 49.2 C 99.2 41.9, 39.7 3.9, 46.2 14.8 C 55.9 31.2, 29.5 54.1, 29.5 54.3 Z" fill="none" fill-opacity="0.42" stroke="hsl(40, 53%, 69%)" stroke-width="1.27"  transform="translate(12.2 98.4) rotate(124.5) scale(1.90 1.76)" />
<path d="M 18.9 18.2 C 31.8 19.5, 12.1 30.5, 1.8 30.7 C 0.0 16.6, 34.0 41.1, 40.8 51.7 C 45.8 42.1, 80.0 57.4, 85.0 66.0 C 73.9 48.0, 47.9 73.2, 42.9 63.2 C 44.5 81.9, 55.4 61.7, 61.2 72.6 C 80.4 62.9, 36.9 46.7, 38.4 53.8 C 44.9 50.9, 21.6 10.0, 32.7 13.3 C 18.1 12.8, 83.2 33.1, 81.7 33.0 C 96.0 52.9, 18.1 58.2, 23.0 68.1 Z" fill="none" fill-opacity="0.60" stroke="hsl(83, 65%, 44%)" stroke-width="1.73"  transform="translate(54.9 46.9) rotate(82.9) scale(0.74 0.51)" />
<rect x="53.3" y="9.3" width="31.4" height="37.2" rx="12.8" fill="hsl(151, 70%, 62%)" fill-opacity="0.60"   transform="translate(95.3 91.3) rotate(143.7) scale(0.78 0.80)" />
<path d="M 59.9 81.9 C 59.0 62.1, 71.4 35.1, 58.1 40.1 C 60.9 40.5, 64.5 82.2, 65.9 94.0 C 84.7 98.2, 2.8 24.2, 6.4 18.4 C 10.6 29.3, 14.4 55.3, 26.1 61.5 C 6.6 43.1, 0.0 18.2, 9.2 11.1 C 0.0 0.0, 87.3 91.0, 89.7 80.7 C 73.8 81.1, 16.4 88.5, 26.9 88.2 C 24.3 76.0, 38.4 47.9, 39.3 36.5 C 22.0 45.8, 38.5 44.3, 39.2 35.0 C 29.5 47.3, 30.6 83.6, 45.0 98.3 Z" fill="hsl(144, 86%, 72%)" fill-opacity="0.85" stroke="none" stroke-width="4.93"   />
<path d="M 27.8 60.2 C 33.8 48.1, 41.8 9.5, 49.1 22.8 C 44.3 12.6, 81.6 44.1, 78.0 47.1 C 80.6 29.5, 75.4 22.7, 61.9 20.3 C 74.4 23.7, 14.2 40.0, 9.0 30.3 C 0.0 44.7, 89.9 87.9, 84.4 91.4 C 76.5 76.0, 61.5 93.2, 69.9 83.2 C 51.5 67.1, 65.9 41.6, 56.1 41.8 C 64.5 45.3, 29.1 51.3, 21.9 41.0 C 27.7 40.8, 22.8 77.3, 19.3 92.2 Z" fill="none" fill-opacity="0.61" stroke="hsl(86, 72%, 68%)" stroke-width="5.08"  transform="translate(10.9 97.6) rotate(172.5) scale(1.37 1.08)" />
<circle cx="42.2" cy="48.6" r="3.0" fill="url(#g1)" fill-opacity="0.54"  transform="translate(85.6 45.2) rotate(281.1) scale(1.47 1.40)" />
<path d="M 26.5 89.3 C 26.2 76.9, 75.1 40.5, 63.6 54.0 C 62.0 73.3, 68.9 82.2, 79.1 69.4 C 80.1 70.9, 87.5 87.5, 74.8 82.3 C 92.0 98.8, 59.7 60.0, 69.1 74.6 C 53.5 72.1, 84.3 0.0, 82.9 12.6 C 84.0 29.9, 87.6 77.8, 76.7 92.2 C 83.6 100.0, 59.6 63.5, 66.3 78.0 Z" fill="hsl(322, 74%, 44%)" fill-opacity="0.62" stroke="none" stroke-width="3.99"  transform="translate(20.5 54.1) rotate(343.8) scale(1.43 0.93)" />
<rect x="75.4" y="28.7" width="23.3" height="18.7" rx="0" fill="none" fill-opacity="0.44"   transform="translate(89.1 15.0) rotate(351.5) scale(1.79 1.14)" />
<circle cx="31.7" cy="24.1" r="8.5" fill="url(#g2)" fill-opacity="0.57" filter="url(#f1)" transform="translate(83.2 74.4) rotate(267.9) scale(1.83 0.85)" />
<path d="M 95.6 65.2 C 100.0 55.4, 66.6 26.4, 78.3 12.9 C 81.3 21.6, 44.2 43.6, 41.9 47.2 C 27.6 41.7, 3.1 19.5, 17.5 30.8 C 35.2 18.5, 19.6 56.7, 16.8 48.3 C 29.2 50.5, 23.3 3.6, 14.5 1.8 C 23.5 0.0, 100.0 90.5, 96.6 98.9 C 100.0 97.1, 86.2 37.0, 76.2 31.3 Z" fill="hsl(151, 70%, 62%)" fill-opacity="0.50" stroke="none" stroke-width="2.07"   />
<path d="M 97.3 76.2 C 97.7 66.2, 78.2 66.4, 73.2 68.4 C 59.6 74.2, 41.6 22.1, 55.3 12.3 C 50.0 28.1, 67.6 0.0, 76.8 0.3 C 79.0 0.0, 10.0 98.0, 14.6 97.2 C 20.0 100.0, 8.1 55.1, 10.5 63.2 C 0.2 50.8, 52.9 50.2, 46.2 37.7 C 43.7 44.0, 74.4 12.1, 60.7 9.7 C 61.4 12.9, 89.9 33.3, 99.9 38.1 C 100.0 38.1, 100.0 13.1, 99.5 20.5 Z" fill="hsl(40, 53%, 69%)" fill-opacity="0.73" stroke="none" stroke-width="5.22"  transform="translate(94.1 5.1) rotate(222.4) scale(1.61 0.92)" />
<rect x="57.7" y="0.8" width="29.9" height="18.5" rx="0" fill="none" fill-opacity="0.70"   transform="translate(3.0 86.2) rotate(256.9) scale(1.59 0.74)" />
<circle cx="28.6" cy="30.4" r="4.8" fill="url(#g1)" fill-opacity="0.49"  transform="translate(26.2 9.0) rotate(350.3) scale(1.62 0.89)" />
<rect x="58.6" y="35.0" width="39.4" height="36.3" rx="0" fill="none" fill-opacity="0.93"    />
<rect x="33.9" y="32.6" width="28.4" height="37.2" rx="19.4" fill="none" fill-opacity="0.89"  filter="url(#f1)" transform="translate(0.1 66.7) rotate(347.4) scale(0.80 1.07)" />
<path d="M 52.7 5.3 C 37.4 21.2, 39.1 48.4, 35.2 59.1 C 51.7 62.5, 15.6 53.6, 26.2 58.2 C 14.5 70.5, 59.5 0.0, 49.8 2.0 C 46.6 0.0, 95.3 55.8, 89.2 52.6 C 78.9 54.1, 42.9 63.4, 48.6 64.8 C 40.0 47.8, 100.0 71.7, 88.7 61.4 Z" fill="none" fill-opacity="0.53" stroke="hsl(106, 75%, 59%)" stroke-width="3.95"  transform="translate(13.1 15.4) rotate(14.0) scale(1.67 1.28)" />
<path d="M 50.3 13.0 C 36.5 12.5, 100.0 70.2, 94.2 82.7 C 100.0 89.5, 33.0 10.1, 43.4 22.6 C 45.4 34.9, 58.2 13.4, 69.8 12.2 C 74.9 23.7, 68.3 22.0, 56.0 19.5 C 73.1 31.7, 32.9 48.7, 19.2 39.4 C 13.4 31.6, 66.2 85.7, 70.5 99.4 C 80.0 94.6, 7.4 47.7, 4.7 46.5 Z" fill="hsl(151, 70%, 62%)" fill-opacity="0.36" stroke="none" stroke-width="3.40"  transform="translate(93.5 27.6) rotate(90.5) scale(1.27 0.88)" />
<rect x="23.1" y="5.1" width="23.3" height="19.4" rx="0" fill="hsl(183, 71%, 60%)" fill-opacity="0.61"  filter="url(#f1)" transform="translate(52.8 0.0) rotate(314.9) scale(0.82 1.37)" />
<circle cx="32.0" cy="73.0" r="2.9" fill="hsl(183, 71%, 60%)" fill-opacity="0.80"  transform="translate(19.0 99.5) rotate(303.9) scale(1.36 0.58)" />
<circle cx="96.2" cy="25.1" r="2.2" fill="url(#g0)" fill-opacity="0.56"  transform="translate(91.2 12.1) rotate(123.0) scale(1.65 1.37)" />
<path d="M 33.9 37.9 C 47.6 47.1, 10.5 0.0, 19.0 4.5 C 23.4 20.5, 4.9 37.7, 1.0 37.3 C 14.3 36.3, 65.4 89.0, 57.1 83.2 C 52.6 100.0, 37.9 42.1, 31.2 48.5 C 13.5 34.2, 41.0 43.6, 30.9 43.4 C 39.4 41.5, 19.3 100.0, 14.6 97.0 C 0.0 100.0, 47.8 71.3, 34.0 67.3 C 28.9 80.3, 44.0 45.1, 39.3 34.6 C 41.2 15.0, 32.3 89.8, 19.4 80.4 C 25.7 75.1, 53.8 83.7, 52.9 94.6 " fill="none" fill-opacity="0.50" stroke="hsl(2, 82%, 55%)" stroke-width="3.58"   />
<circle cx="7.7" cy="30.8" r="2.7" fill="url(#g0)" fill-opacity="0.60"  transform="translate(47.8 76.0) rotate(232.3) scale(0.82 1.87)" />
<rect x="32.1" y="40.7" width="23.0" height="22.9" rx="0" fill="hsl(322, 74%, 44%)" fill-opacity="0.27"    />
<circle cx="77.2" cy="18.4" r="5.5" fill="url(#g2)" fill-opacity="0.90"  transform="translate(45.0 32.7) rotate(329.3) scale(1.26 1.17)" />
<path d="M 48.7 71.8 C 44.1 63.4, 46.7 48.9, 49.8 49.6 C 60.4 67.6, 42.2 35.5, 32.0 50.3 C 39.8 63.1, 58.7 60.6, 73.2 57.0 C 55.3 55.1, 42.2 50.0, 50.1 58.8 C 42.6 76.0, 26.1 40.9, 18.4 40.6 C 32.6 56.3, 85.8 21.1, 73.5 33.8 C 73.6 33.6, 99.1 82.3, 98.6 68.4 C 100.0 68.2, 5.2 31.2, 20.1 18.6 Z" fill="hsl(2, 82%, 55%)" fill-opacity="0.77" stroke="none" stroke-width="1.97"  transform="translate(55.2 97.7) rotate(34.5) scale(1.56 0.76)" />
<circle cx="58.1" cy="23.4" r="9.6" fill="url(#g0)" fill-opacity="0.45"  transform="translate(89.9 33.4) rotate(107.6) scale(1.37 0.56)" />
<circle cx="1.3" cy="57.8" r="16.7" fill="hsl(144, 86%, 72%)" fill-opacity="0.88"  transform="translate(97.0 91.1) rotate(220.0) scale(0.87 1.76)" />
<path d="M 0.7 24.9 C 3.5 35.7, 66.2 50.9, 78.3 49.8 C 89.7 52.6, 93.7 51.2, 86.6 65.9 C 73.1 50.8, 24.9 77.5, 36.5 67.4 C 36.9 82.1, 34.9 93.4, 42.6 96.2 C 46.3 100.0, 99.4 53.5, 86.6 44.8 C 83.8 43.0, 100.0 61.7, 95.9 48.5 C 100.0 63.3, 48.6 19.3, 62.7 7.4 C 81.3 3.7, 28.2 79.8, 18.5 73.4 C 33.7 85.3, 6.9 90.4, 2.6 86.9 C 0.0 85.5, 77.3 66.9, 86.6 75.3 Z" fill="none" fill-opacity="0.44" stroke="hsl(151, 70%, 62%)" stroke-width="1.31"   />
<path d="M 64.7 89.4 C 62.4 83.3, 98.2 67.2, 87.8 61.6 C 72.6 41.9, 13.5 77.1, 2.9 81.4 C 13.4 83.4, 85.3 49.5, 76.1 44.7 C 74.3 50.8, 29.5 29.5, 38.5 44.2 C 31.0 60.7, 66.5 41.5, 54.9 28.3 C 71.5 30.7, 21.7 11.4, 14.6 25.1 C 7.9 25.5, 70.9 43.8, 69.6 54.1 C 62.3 54.2, 45.5 49.6, 53.7 37.6 C 68.8 24.8, 39.8 12.0, 35.2 10.6 Z" fill="none" fill-opacity="0.93" stroke="hsl(322, 74%, 44%)" stroke-width="4.15" filter="url(#f1)" transform="translate(85.1 54.7) rotate(86.7) scale(0.69 1.24)" />
<rect x="65.1" y="41.0" width="33.2" height="27.3" rx="7.1" fill="hsl(151, 70%, 62%)" fill-opacity="0.77"    />
<rect x="18.8" y="17.7" width="41.6" height="39.6" rx="0" fill="hsl(86, 72%, 68%)" fill-opacity="0.47"   transform="translate(71.2 34.1) rotate(239.7) scale(1.13 1.29)" />
<rect x="15.1" y="16.8" width="25.5" height="21.2" rx="0" fill="none" fill-opacity="0.39" stroke="hsl(83, 65%, 44%)" stroke-width="4.4"  transform="translate(93.4 12.9) rotate(58.0) scale(0.78 1.64)" />
<path d="M 96.9 80.5 C 84.4 86.6, 48.5 62.3, 59.9 66.9 C 40.5 75.3, 66.5 54.5, 70.6 45.6 C 55.4 27.6, 64.5 70.1, 51.2 60.8 C 51.4 80.7, 48.1 86.9, 46.0 87.2 C 33.2 72.5, 11.5 76.4, 1.6 84.8 C 0.0 71.9, 26.0 26.5, 21.4 29.3 C 24.4 30.5, 75.6 65.9, 76.7 63.7 C 68.3 63.6, 54.9 33.9, 60.7 46.2 C 62.6 55.7, 33.3 20.1, 28.9 22.4 C 13.9 8.1, 12.7 24.7, 20.7 26.5 Z" fill="hsl(104, 72%, 65%)" fill-opacity="0.67" stroke="none" stroke-width="2.85"  transform="translate(37.7 78.7) rotate(288.7) scale(1.35 0.71)" />
<path d="M 75.3 89.4 C 59.6 83.0, 64.9 85.4, 58.8 92.5 C 54.1 98.1, 0.3 81.9, 9.1 95.3 C 6.6 75.3, 54.6 58.4, 45.6 67.7 C 59.1 48.8, 72.4 68.7, 61.8 80.9 C 78.1 98.8, 86.5 35.8, 95.9 30.9 C 87.6 12.1, 73.1 0.0, 64.5 1.1 C 48.2 20.4, 96.3 73.3, 95.7 60.8 C 100.0 55.7, 21.8 25.6, 19.0 13.6 C 18.4 27.4, 27.3 51.5, 28.0 54.3 Z" fill="none" fill-opacity="0.93" stroke="hsl(322, 74%, 44%)" stroke-width="2.88"  transform="translate(49.5 36.2) rotate(98.6) scale(0.67 1.74)" />
<path d="M 48.7 59.1 C 45.8 45.2, 49.4 33.4, 45.7 27.3 C 57.8 45.7, 62.5 58.5, 49.4 61.2 C 41.8 69.7, 62.0 76.6, 63.9 71.5 C 62.6 73.0, 50.6 88.6, 47.1 90.9 C 36.9 81.8, 44.7 8.4, 45.0 10.2 C 58.5 29.1, 63.0 63.0, 52.4 64.0 C 66.2 49.7, 71.2 76.8, 80.0 88.9 " fill="hsl(83, 65%, 44%)" fill-opacity="0.89" stroke="none" stroke-width="3.97"  transform="translate(13.2 16.5) rotate(107.1) scale(0.59 1.01)" />
<path d="M 73.5 74.5 C 66.2 85.0, 21.7 47.4, 25.1 33.3 C 24.0 50.1, 64.1 11.2, 63.8 24.9 C 78.8 41.6, 49.1 13.0, 40.7 27.0 C 22.9 39.0, 78.2 68.4, 92.3 71.0 C 82.8 79.3, 46.8 67.0, 32.8 56.7 C 37.3 41.6, 23.4 66.0, 29.4 60.4 C 46.3 49.0, 39.2 16.9, 32.7 18.0 Z" fill="hsl(183, 71%, 60%)" fill-opacity="0.27" stroke="none" stroke-width="5.03" filter="url(#f1)"  />
<circle cx="21.4" cy="61.5" r="5.5" fill="hsl(106, 75%, 59%)" fill-opacity="0.42"  transform="translate(8.0 10.8) rotate(14.0) scale(0.87 1.88)" />
<path d="M 38.7 85.8 C 58.5 90.4, 45.1 48.0, 57.9 44.2 C 62.0 31.7, 58.6 7.4, 61.0 17.5 C 59.4 14.8, 40.8 100.0, 27.4 92.8 C 25.1 100.0, 81.3 37.9, 79.8 26.1 C 95.4 6.2, 8.6 51.1, 11.8 61.7 C 0.0 77.4, 12.8 19.8, 7.2 18.2 C 0.0 30.0, 77.5 10.9, 63.4 14.3 C 73.3 20.7, 100.0 32.7, 88.7 42.0 C 80.0 38.9, 89.3 26.2, 77.1 12.2 C 79.9 0.0, 17.3 52.4, 15.5 65.3 Z" fill="none" fill-opacity="0.40" stroke="hsl(40, 53%, 69%)" stroke-width="4.96" filter="url(#f1)" transform="translate(54.7 31.4) rotate(1.1) scale(0.69 1.59)" />
<path d="M 38.3 78.9 C 21.5 73.4, 56.0 24.5, 63.6 28.1 C 53.7 17.8, 58.3 40.3, 56.4 41.8 C 46.9 45.2, 80.1 75.6, 77.5 64.2 C 87.8 49.2, 29.8 61.5, 35.0 52.0 C 31.0 57.4, 51.7 42.6, 63.0 41.2 C 50.2 30.6, 68.9 80.6, 58.1 95.2 C 43.4 84.2, 80.8 69.3, 78.5 77.3 C 88.3 91.3, 68.6 83.8, 53.9 83.2 Z" fill="hsl(106, 75%, 59%)" fill-opacity="0.56" stroke="none" stroke-width="4.47"  transform="translate(40.5 16.9) rotate(258.5) scale(1.86 1.80)" />
<circle cx="31.0" cy="80.5" r="3.5" fill="hsl(151, 70%, 62%)" fill-opacity="0.86"  transform="translate(37.8 17.6) rotate(112.0) scale(1.44 0.58)" />
<path d="M 39.9 75.8 C 45.6 58.5, 9.5 46.2, 14.6 38.4 C 0.0 35.9, 65.2 28.2, 71.4 16.6 C 77.8 0.0, 98.1 48.4, 91.5 46.9 C 92.1 62.5, 40.6 53.5, 35.8 47.1 C 48.7 52.7, 97.9 28.0, 98.1 36.6 C 96.2 18.3, 52.0 98.7, 58.8 97.6 C 75.1 98.5, 54.2 34.6, 60.3 46.2 " fill="hsl(40, 53%, 69%)" fill-opacity="0.50" stroke="none" stroke-width="2.81"  transform="translate(51.8 21.5) rotate(249.3) scale(1.06 1.03)" />
<rect x="18.5" y="60.0" width="23.6" height="29.5" rx="0" fill="none" fill-opacity="0.36" stroke="hsl(290, 83%, 63%)" stroke-width="3.0"  transform="translate(12.3 43.1) rotate(105.9) scale(1.86 0.51)" />
<path d="M 74.5 78.9 C 77.7 72.8, 77.5 19.4, 67.2 20.5 C 49.5 39.7, 11.5 66.2, 16.8 77.4 C 29.0 74.4, 45.6 99.4, 46.3 98.6 C 41.4 100.0, 40.2 87.0, 41.0 82.3 C 31.4 75.6, 77.9 49.0, 80.2 53.8 C 81.9 36.3, 2.8 85.7, 0.1 73.2 Z" fill="none" fill-opacity="0.48" stroke="hsl(83, 65%, 44%)" stroke-width="1.98"  transform="translate(8.8 44.6) rotate(216.1) scale(1.45 1.63)" />
<circle cx="3.7" cy="86.0" r="7.2" fill="hsl(183, 71%, 60%)" fill-opacity="0.83"  transform="translate(36.9 80.7) rotate(253.7) scale(1.65 0.90)" />
<path d="M 28.6 48.5 C 43.6 29.4, 66.8 24.3, 56.4 26.6 C 49.5 19.6, 56.8 0.0, 52.3 0.2 C 36.7 11.9, 60.6 4.8, 53.5 11.9 C 61.8 1.9, 68.4 44.7, 63.5 41.6 C 45.9 49.6, 40.2 41.2, 28.6 42.6 C 40.1 28.3, 6.8 49.6, 4.9 41.9 C 0.0 46.9, 78.6 38.8, 76.3 45.6 C 80.5 40.6, 96.7 52.5, 83.1 59.8 C 70.3 45.9, 0.0 59.3, 1.2 63.6 C 13.8 57.2, 18.2 62.2, 29.0 47.4 Z" fill="hsl(40, 53%, 69%)" fill-opacity="0.78" stroke="none" stroke-width="4.33"  transform="translate(71.0 71.1) rotate(50.6) scale(1.21 1.11)" />
<path d="M 38.9 37.9 C 26.8 33.7, 85.6 44.5, 88.8 43.7 C 99.3 40.6, 88.6 16.1, 82.0 26.1 C 100.0 37.6, 0.0 100.0, 4.2 99.7 C 0.0 96.8, 82.8 15.8, 71.1 17.7 C 86.0 28.0, 40.6 34.6, 30.6 38.8 C 23.2 35.5, 40.5 47.9, 55.3 52.1 Z" fill="hsl(104, 72%, 65%)" fill-opacity="0.47" stroke="none" stroke-width="4.66"  transform="translate(47.8 68.5) rotate(92.6) scale(0.77 1.19)" />
<rect x="6.6" y="57.2" width="43.7" height="12.8" rx="0" fill="hsl(183, 71%, 60%)" fill-opacity="0.30" stroke="hsl(322, 74%, 44%)" stroke-width="2.4"  transform="translate(29.0 30.6) rotate(245.1) scale(1.93 1.99)" />
<rect x="51.1" y="86.5" width="48.9" height="10.5" rx="0" fill="hsl(322, 74%, 44%)" fill-opacity="0.92" stroke="hsl(322, 74%, 44%)" stroke-width="4.3"  transform="translate(64.5 21.9) rotate(259.4) scale(0.96 0.79)" />
<path d="M 13.9 61.3 C 29.3 73.1, 19.4 69.4, 7.6 70.7 C 0.0 86.2, 77.3 100.0, 66.6 98.5 C 84.9 100.0, 26.2 55.1, 16.0 67.5 C 3.7 59.7, 37.8 19.1, 43.9 10.6 C 62.7 1.6, 11.1 13.9, 0.6 22.0 C 0.0 36.5, 41.8 79.1, 53.7 93.3 C 66.6 77.9, 2.9 86.0, 8.1 81.2 C 17.6 71.2, 91.6 100.0, 87.8 94.8 C 100.0 100.0, 56.6 39.0, 52.6 41.3 C 52.4 52.2, 77.2 17.2, 88.8 26.0 Z" fill="none" fill-opacity="0.76" stroke="hsl(86, 72%, 68%)" stroke-width="2.03" filter="url(#f1)" transform="translate(77.8 17.8) rotate(146.0) scale(1.04 0.55)" />
<path d="M 33.5 57.9 C 48.7 55.8, 35.8 43.2, 25.3 54.6 C 31.6 35.5, 37.3 94.8, 43.0 94.4 C 39.2 100.0, 20.0 91.0, 6.5 83.1 C 16.4 93.5, 66.5 12.4, 79.5 8.9 C 75.7 8.3, 17.3 14.3, 10.1 8.5 C 21.0 13.4, 55.0 19.6, 68.9 16.1 C 59.9 2.0, 49.9 79.8, 41.6 74.6 C 49.3 92.7, 81.8 47.0, 88.6 53.1 C 94.0 58.3, 18.1 40.3, 10.7 46.6 C 7.3 28.7, 84.0 86.4, 93.9 89.9 Z" fill="none" fill-opacity="0.67" stroke="hsl(183, 71%, 60%)" stroke-width="4.17"  transform="translate(87.2 85.0) rotate(289.5) scale(0.73 1.67)" />
<circle cx="8.9" cy="20.5" r="10.9" fill="url(#g1)" fill-opacity="0.81"  transform="translate(70.4 98.5) rotate(239.2) scale(0.61 0.90)" />
<path d="M 24.6 94.8 C 25.4 87.0, 42.5 61.6, 49.4 46.9 C 44.8 49.0, 20.7 96.5, 12.7 85.2 C 2.4 89.9, 67.4 0.0, 63.5 7.4 C 68.3 12.3, 44.0 31.2, 52.6 28.5 C 41.0 26.9, 14.3 56.2, 13.1 46.2 C 4.0 59.0, 30.8 7.7, 25.7 2.8 C 11.9 0.0, 100.0 3.1, 93.0 1.4 C 81.2 0.4, 85.6 0.1, 76.8 14.4 C 71.7 8.5, 48.6 13.6, 46.7 24.6 Z" fill="hsl(144, 86%, 72%)" fill-opacity="0.76" stroke="none" stroke-width="2.07" filter="url(#f1)" transform="translate(94.7 98.4) rotate(144.7) scale(0.85 0.84)" />
<rect x="8.9" y="80.5" width="36.1" height="13.4" rx="1.7" fill="hsl(83, 65%, 44%)" fill-opacity="0.32"   transform="translate(6.1 3.2) rotate(62.3) scale(1.52 1.82)" />
<circle cx="22.9" cy="73.6" r="5.6" fill="url(#g0)" fill-opacity="0.74" filter="url(#f1)" transform="translate(89.2 91.4) rotate(265.7) scale(1.63 0.51)" />
<path d="M 87.8 63.6 C 74.8 75.7, 74.8 100.0, 84.5 97.7 C 67.8 98.2, 27.2 2.6, 16.0 10.9 C 29.7 0.0, 0.0 80.3, 9.6 67.3 C 5.4 83.9, 29.5 53.2, 42.8 42.6 C 25.4 29.1, 24.7 19.7, 20.4 19.2 C 4.5 0.0, 48.3 45.8, 48.0 58.5 C 31.2 43.9, 84.4 100.0, 75.1 89.9 C 75.6 83.0, 26.8 36.0, 11.8 48.6 C 0.0 51.8, 21.3 91.1, 10.7 87.9 Z" fill="hsl(83, 65%, 44%)" fill-opacity="0.93" stroke="none" stroke-width="0.80"  transform="translate(14.6 17.0) rotate(285.6) scale(0.95 1.11)" />
<circle cx="54.1" cy="13.5" r="16.5" fill="hsl(2, 82%, 55%)" fill-opacity="0.80" filter="url(#f1)" transform="translate(39.1 20.2) rotate(95.3) scale(1.60 1.20)" />
<path d="M 98.2 31.4 C 94.6 30.9, 50.1 74.0, 44.6 85.6 C 63.4 72.5, 46.0 34.7, 49.8 44.7 C 43.6 63.2, 25.8 71.9, 30.0 75.0 C 34.7 93.2, 13.1 24.0, 21.1 20.1 C 20.2 10.9, 100.0 100.0, 97.5 99.3 C 100.0 93.2, 45.2 100.0, 42.2 99.6 C 52.5 100.0, 45.8 100.0, 44.7 91.3 Z" fill="hsl(104, 72%, 65%)" fill-opacity="0.69" stroke="none" stroke-width="1.63" filter="url(#f1)" transform="translate(57.6 38.9) rotate(349.2) scale(1.29 1.47)" />
<path d="M 80.8 62.7 C 62.3 67.4, 86.1 95.1, 73.1 98.3 C 76.1 87.0, 4.2 19.8, 6.0 9.4 C 0.0 4.7, 0.0 38.9, 6.6 52.9 C 23.3 42.1, 70.9 18.2, 56.1 13.3 C 55.7 25.0, 65.0 14.6, 76.8 8.0 C 86.7 18.9, 11.9 45.6, 12.6 53.3 Z" fill="hsl(183, 71%, 60%)" fill-opacity="0.54" stroke="none" stroke-width="1.64"  transform="translate(86.4 48.6) rotate(242.7) scale(2.00 0.58)" />
<path d="M 10.8 25.1 C 5.6 13.3, 42.9 38.3, 46.2 48.8 C 65.0 55.1, 78.8 11.7, 81.4 24.9 C 66.5 21.7, 90.7 62.8, 77.9 53.3 C 82.6 35.5, 27.8 72.7, 30.3 64.8 C 31.1 54.0, 7.9 49.1, 16.4 41.5 C 16.2 38.4, 72.6 33.1, 61.3 43.4 C 58.7 34.3, 0.0 65.6, 12.5 72.4 Z" fill="hsl(2, 82%, 55%)" fill-opacity="0.65" stroke="none" stroke-width="4.38"  transform="translate(16.3 91.1) rotate(56.6) scale(1.37 2.00)" />
<circle cx="24.9" cy="78.0" r="4.7" fill="hsl(151, 70%, 62%)" fill-opacity="0.42"  transform="translate(12.7 88.4) rotate(47.7) scale(1.30 1.93)" />
<rect x="72.9" y="61.3" width="25.2" height="14.0" rx="0" fill="hsl(144, 86%, 72%)" fill-opacity="0.43" stroke="hsl(151, 70%, 62%)" stroke-width="1.5"  transform="translate(84.8 19.9) rotate(26.3) scale(0.62 0.66)" />
<path d="M 73.7 92.1 C 69.3 100.0, 49.9 32.5, 43.5 27.6 C 41.2 43.1, 74.1 35.1, 70.5 42.7 C 89.6 57.8, 88.6 81.9, 82.1 78.5 C 90.8 61.2, 23.1 60.6, 23.5 69.8 C 22.6 70.3, 54.7 94.9, 40.4 93.5 C 27.3 100.0, 75.7 13.3, 67.1 27.8 C 67.3 17.3, 44.3 39.8, 45.9 25.0 C 29.0 44.9, 59.9 68.5, 55.3 57.0 C 58.3 47.7, 21.1 26.4, 33.9 18.5 C 33.6 4.4, 15.0 97.7, 25.3 97.3 Z" fill="hsl(183, 71%, 60%)" fill-opacity="0.84" stroke="none" stroke-width="2.66"  transform="translate(69.0 22.5) rotate(144.5) scale(0.52 1.45)" />
<path d="M 44.2 69.3 C 36.2 80.0, 86.3 3.1, 94.3 15.6 C 100.0 33.4, 45.5 29.7, 54.1 17.3 C 65.6 34.6, 42.7 41.0, 55.9 52.8 C 36.9 65.0, 19.3 100.0, 32.1 93.6 C 47.5 100.0, 35.2 2.2, 31.5 5.8 C 49.3 0.0, 42.9 99.7, 57.3 87.6 C 73.1 91.7, 94.7 29.0, 86.2 33.5 C 96.5 52.1, 79.9 100.0, 84.8 97.5 C 75.0 100.0, 2.2 46.9, 9.0 59.3 Z" fill="none" fill-opacity="0.61" stroke="hsl(86, 72%, 68%)" stroke-width="2.90" filter="url(#f1)" transform="translate(88.3 97.3) rotate(253.7) scale(1.77 0.96)" />
<path d="M 14.7 23.8 C 26.8 21.1, 0.5 94.5, 14.8 96.5 C 5.8 100.0, 7.4 8.0, 9.8 8.5 C 14.4 6.7, 76.3 64.6, 64.6 68.7 C 79.1 85.8, 56.6 9.6, 71.2 14.4 C 62.3 18.0, 37.0 34.2, 33.4 27.1 C 21.2 21.7, 0.0 39.1, 5.5 40.9 C 14.3 42.5, 85.5 20.5, 88.3 18.7 C 100.0 0.6, 85.9 74.5, 78.6 86.0 C 91.1 91.9, 31.0 13.5, 21.6 3.2 C 14.8 0.0, 18.5 30.3, 31.3 33.7 Z" fill="hsl(183, 71%, 60%)" fill-opacity="0.78" stroke="none" stroke-width="4.29"  transform="translate(3.0 91.6) rotate(203.9) scale(1.90 1.50)" />
<circle cx="17.0" cy="17.1" r="12.5" fill="hsl(144, 86%, 72%)" fill-opacity="0.75"   />
<rect x="14.4" y="10.8" width="28.9" height="24.6" rx="11.2" fill="none" fill-opacity="0.56" stroke="hsl(104, 72%, 65%)" stroke-width="2.6"  transform="translate(39.6 49.0) rotate(240.0) scale(1.66 0.86)" />
<path d="M 86.7 54.7 C 88.3 51.4, 66.2 76.2, 79.3 76.4 C 94.9 83.6, 30.4 76.4, 31.8 69.4 C 29.3 71.1, 28.7 65.9, 15.7 78.0 C 28.1 80.1, 41.3 88.7, 30.0 79.1 C 26.5 66.2, 40.2 17.1, 37.4 31.4 C 23.7 29.0, 47.7 73.1, 45.8 86.5 C 45.9 96.7, 51.1 29.0, 40.0 40.4 C 20.9 57.5, 79.0 45.9, 72.1 59.7 C 56.0 75.4, 42.5 35.0, 49.9 48.0 C 32.5 43.9, 28.6 75.5, 15.5 85.3 Z" fill="none" fill-opacity="0.74" stroke="hsl(106, 75%, 59%)" stroke-width="5.13" filter="url(#f1)" transform="translate(32.2 32.3) rotate(249.1) scale(1.12 1.39)" />
<circle cx="92.7" cy="89.9" r="9.3" fill="hsl(104, 72%, 65%)" fill-opacity="0.88"  transform="translate(91.4 91.3) rotate(81.3) scale(0.81 1.94)" />
<circle cx="41.1" cy="28.7" r="17.5" fill="url(#g0)" fill-opacity="0.75"   />
<rect x="70.1" y="69.1" width="23.3" height="22.7" rx="18.9" fill="hsl(242, 72%, 49%)" fill-opacity="0.61"   transform="translate(67.2 31.7) rotate(152.9) scale(1.67 1.03)" />
<rect x="58.8" y="74.2" width="30.6" height="19.5" rx="18.7" fill="none" fill-opacity="0.22"   transform="translate(6.0 6.0) rotate(214.9) scale(0.77 0.99)" />
<path d="M 49.0 98.1 C 55.4 90.6, 72.7 39.0, 61.2 53.1 C 67.0 67.1, 100.0 88.0, 98.8 73.6 C 83.0 73.9, 6.2 19.6, 4.5 13.8 C 13.7 0.0, 29.2 66.6, 21.3 64.6 C 40.9 78.1, 41.6 2.7, 46.7 7.5 C 33.5 20.9, 31.5 43.3, 17.2 34.1 C 9.7 17.4, 87.3 51.6, 94.0 53.3 C 95.5 47.8, 90.2 44.5, 90.3 33.0 C 100.0 42.0, 70.9 55.9, 74.3 56.1 " fill="hsl(242, 72%, 49%)" fill-opacity="0.86" stroke="none" stroke-width="2.30"  transform="translate(12.9 35.1) rotate(18.2) scale(1.17 1.76)" />
<path d="M 99.3 19.8 C 100.0 36.8, 70.2 46.9, 79.3 49.8 C 72.0 66.0, 20.5 99.3, 30.5 89.5 C 33.0 100.0, 47.6 47.4, 35.5 40.4 C 46.1 54.8, 46.7 55.3, 43.1 69.9 C 54.8 71.5, 3.2 90.5, 7.9 90.1 C 0.0 71.8, 15.7 78.3, 16.3 79.2 C 19.3 97.5, 38.9 0.0, 32.4 7.5 C 39.7 0.0, 71.0 75.0, 84.4 80.7 C 100.0 74.3, 85.7 80.0, 85.1 82.5 Z" fill="none" fill-opacity="0.88" stroke="hsl(106, 75%, 59%)" stroke-width="1.33"  transform="translate(81.3 98.9) rotate(349.2) scale(1.73 1.44)" />
<circle cx="84.7" cy="78.3" r="6.8" fill="hsl(104, 72%, 65%)" fill-opacity="0.54"  transform="translate(75.2 90.7) rotate(207.6) scale(0.96 1.34)" />
<rect x="10.7" y="2.5" width="21.6" height="12.1" rx="0" fill="hsl(86, 72%, 68%)" fill-opacity="0.78"   transform="translate(48.0 26.6) rotate(143.9) scale(0.61 1.46)" />
<rect x="43.1" y="38.7" width="45.4" height="25.7" rx="5.7" fill="hsl(290, 83%, 63%)" fill-opacity="0.68"   transform="translate(6.6 16.1) rotate(93.1) scale(1.05 1.18)" />
<path d="M 23.7 13.0 C 29.8 0.0, 40.1 59.0, 38.9 55.5 C 52.2 63.4, 13.9 23.7, 10.2 25.0 C 23.5 36.2, 28.2 0.0, 19.7 2.5 C 5.7 0.0, 72.4 81.8, 78.9 73.8 C 93.9 67.2, 94.8 43.1, 86.5 56.1 C 72.2 41.0, 93.1 30.0, 87.4 17.0 Z" fill="none" fill-opacity="0.58" stroke="hsl(151, 70%, 62%)" stroke-width="1.09"  transform="translate(6.0 75.7) rotate(162.1) scale(1.57 1.28)" />
<rect x="47.3" y="38.3" width="45.4" height="39.9" rx="0.0" fill="hsl(242, 72%, 49%)" fill-opacity="0.29"   transform="translate(31.1 58.9) rotate(346.1) scale(0.78 0.52)" />
<g opacity="0.033">
<rect x="0" y="0" width="1" height="100" fill="black" />
<rect x="22" y="0" width="1" height="100" fill="black" />
<rect x="44" y="0" width="1" height="100" fill="black" />
<rect x="66" y="0" width="1" height="100" fill="black" />
<rect x="88" y="0" width="1" height="100" fill="black" />
<rect x="0" y="0" width="100" height="1" fill="black" />
<rect x="0" y="22" width="100" height="1" fill="black" />
<rect x="0" y="44" width="100" height="1" fill="black" />
<rect x="0" y="66" width="100" height="1" fill="black" />
<rect x="0" y="88" width="100" height="1" fill="black" />
</g>

</svg>
