<?xml version="1.0" encoding="UTF-8"?>
<svg xmlns="http://www.w3.org/2000/svg" width="100" height="100" viewBox="0 0 100 100">
<defs>
<linearGradient id="g0" x1="0%" y1="0%" x2="100%" y2="100%">
<stop offset="0.0%" stop-color="hsl(106, 75%, 59%)" />
<stop offset="33.3%" stop-color="hsl(183, 71%, 60%)" />
<stop offset="66.7%" stop-color="hsl(242, 72%, 49%)" />
<stop offset="100.0%" stop-color="hsl(322, 74%, 44%)" />
</linearGradient>
<linearGradient id="g1" x1="0%" y1="0%" x2="100%" y2="100%">
<stop offset="0.0%" stop-color="hsl(290, 83%, 63%)" />
<stop offset="33.3%" stop-color="hsl(2, 82%, 55%)" />
<stop offset="66.7%" stop-color="hsl(86, 72%, 68%)" />
<stop offset="100.0%" stop-color="hsl(83, 65%, 44%)" />
</linearGradient>
<linearGradient id="g2" x1="0%" y1="0%" x2="100%" y2="100%">
<stop offset="0.0%" stop-color="hsl(40, 53%, 69%)" />
<stop offset="33.3%" stop-color="hsl(104, 72%, 65%)" />
<stop offset="66.7%" stop-color="hsl(144, 86%, 72%)" />
<stop offset="100.0%" stop-color="hsl(151, 70%, 62%)" />
</linearGradient>
<filter id="f1" x="-20%" y="-20%" width="140%" height="140%">
  <feGaussianBlur stdDeviation="0.9786202033248013" />
</filter>

</defs>

<path d="M 10.3 93.5 C 12.0 99.0, 80.0 40.3, 83.3 50.4 C 64.0 32.7, 48.7 100.0, 57.4 94.3 C 55.4 82.9, 15.9 29.1, 14.0 37.9 C 0.0 57.4, 87.1 42.4, 91.1 27.7 C 84.9 10.5, 81.4 24.4, 69.4 13.4 C 79.3 22.5, 77.7 46.2, 64.3 41.1 C 59.6 37.8, 32.8 51.2, 27.5 51.7 Z" fill="hsl(183, 71%, 60%)" fill-opacity="0.30" stroke="none" stroke-width="3.18"  transform="translate(87.9 14.6) rotate(153.9) scale(0.91 1.06)" />
<path d="M 70.1 35.7 C 52.8 39.1, 49.4 79.8, 46.3 90.0 C 52.4 100.0, 0.0 68.2, 6.1 82.6 C 8.0 86.7, 89.1 82.4, 89.2 91.3 C 96.9 79.5, 21.8 40.0, 14.7 47.8 C 34.7 42.3, 24.9 25.3, 33.8 30.6 C 53.3 28.1, 23.2 87.5, 16.4 96.8 C 23.1 94.0, 28.1 70.2, 35.5 64.2 Z" fill="hsl(86, 72%, 68%)" fill-opacity="0.70" stroke="none" stroke-width="3.85" filter="url(#f1)"  />
<path d="M 84.1 95.0 C 71.9 92.0, 79.4 20.5, 71.0 13.1 C 85.2 12.7, 83.6 85.5, 83.2 90.9 C 85.5 85.7, 100.0 47.3, 99.7 37.8 C 98.6 24.8, 0.0 68.2, 4.1 74.1 C 0.0 54.1, 92.3 34.5, 93.3 35.6 C 100.0 46.1, 34.8 20.6, 19.9 7.1 C 35.1 0.0, 9.5 80.9, 2.8 93.6 C 3.9 78.3, 23.6 52.0, 14.2 37.8 Z" fill="hsl(151, 70%, 62%)" fill-opacity="0.84" stroke="none" stroke-width="3.11" filter="url(#f1)"  />
<path d="M 63.2 32.0 C 71.8 51.3, 44.8 15.1, 42.0 9.5 C 45.8 0.0, 52.3 0.0, 52.0 6.8 C 65.7 4.2, 29.8 90.1, 37.0 94.2 C 32.4 90.5, 76.3 89.3, 78.8 96.4 C 88.4 100.0, 12.8 23.2, 21.9 28.4 C 40.6 42.6, 81.2 55.9, 71.5 70.4 Z" fill="none" fill-opacity="0.45" stroke="hsl(322, 74%, 44%)" stroke-width="2.20"  transform="translate(10.0 32.0) rotate(127.5) scale(0.89 1.26)" />
<rect x="25.8" y="62.7" width="34.6" height="21.9" rx="0" fill="hsl(183, 71%, 60%)" fill-opacity="0.34"   transform="translate(44.2 66.7) rotate(16.0) scale(1.00 1.02)" />
<rect x="44.6" y="18.4" width="39.9" height="39.6" rx="0" fill="none" fill-opacity="0.76" stroke="hsl(151, 70%, 62%)" stroke-width="4.4"  transform="translate(87.2 15.0) rotate(225.6) scale(1.50 1.30)" />
<rect x="17.4" y="22.8" width="35.8" height="36.9" rx="10.8" fill="hsl(2, 82%, 55%)" fill-opacity="0.87"   transform="translate(15.9 57.1) rotate(123.2) scale(1.38 1.54)" />
<circle cx="32.5" cy="7.3" r="0.4" fill="url(#g2)" fill-opacity="0.99" filter="url(#f1)" transform="translate(85.5 72.7) rotate(98.2) scale(1.57 1.93)" />
<circle cx="81.9" cy="7.8" r="9.1" fill="hsl(183, 71%, 60%)" fill-opacity="0.81"  transform="translate(95.6 38.7) rotate(230.5) scale(1.19 0.51)" />
<path d="M 35.1 63.8 C 52.9 56.1, 26.1 13.9, 32.7 16.7 C 43.8 25.8, 52.8 88.9, 57.0 86.4 C 54.2 90.8, 55.1 20.1, 67.7 34.8 C 52.3 52.5, 56.6 67.7, 69.5 71.5 C 78.8 86.8, 0.0 37.8, 3.7 49.0 C 2.3 41.2, 11.3 81.0, 8.6 87.8 C 0.0 96.5, 15.2 73.0, 19.0 75.7 Z" fill="hsl(83, 65%, 44%)" fill-opacity="0.38" stroke="none" stroke-width="1.69"   />
<path d="M 87.8 12.1 C 79.0 0.0, 52.9 95.7, 39.8 88.4 C 50.9 79.0, 54.3 11.6, 42.0 26.0 C 38.9 24.8, 57.5 42.1, 63.8 45.1 C 77.0 33.6, 35.8 49.6, 46.5 41.9 C 45.4 27.9, 30.7 32.1, 29.2 22.2 C 47.2 8.8, 37.0 38.7, 47.7 45.1 C 51.1 54.7, 29.6 63.2, 35.8 73.7 C 52.6 81.4, 37.4 11.7, 27.4 18.1 C 14.3 10.9, 38.2 45.3, 45.8 48.1 " fill="none" fill-opacity="0.65" stroke="hsl(290, 83%, 63%)" stroke-width="1.24"  transform="translate(53.8 58.1) rotate(221.4) scale(1.78 1.64)" />
<path d="M 35.5 14.4 C 47.6 26.5, 9.8 0.5, 11.8 2.0 C 11.3 0.0, 56.2 75.8, 54.5 76.3 C 54.4 93.7, 12.8 0.0, 5.9 4.8 C 7.4 1.7, 76.1 26.9, 86.5 19.3 C 86.6 25.0, 55.0 20.6, 69.8 23.9 C 83.7 40.2, 67.1 56.6, 66.4 49.2 C 70.5 50.5, 57.1 16.4, 58.1 21.6 C 74.1 41.1, 84.6 7.3, 74.3 4.4 C 93.6 4.7, 24.7 54.1, 27.0 62.3 C 12.7 58.2, 15.1 56.5, 1.7 52.9 Z" fill="none" fill-opacity="0.54" stroke="hsl(290, 83%, 63%)" stroke-width="1.35" filter="url(#f1)" transform="translate(61.2 60.1) rotate(89.1) scale(1.20 0.50)" />
<rect x="55.8" y="59.9" width="44.0" height="28.7" rx="0" fill="hsl(2, 82%, 55%)" fill-opacity="0.97"   transform="translate(29.5 52.7) rotate(250.2) scale(1.25 1.07)" />
<path d="M 12.3 75.5 C 27.9 69.3, 35.1 37.2, 24.5 37.2 C 34.3 56.7, 100.0 26.6, 86.2 22.2 C 81.0 30.9, 92.2 42.4, 98.9 29.3 C 86.1 45.0, 11.2 77.4, 12.1 87.1 C 10.0 69.6, 13.5 54.8, 2.7 47.2 C 0.4 59.6, 77.3 35.5, 66.3 27.7 C 72.7 26.1, 23.4 35.4, 26.5 47.5 C 35.9 33.6, 25.6 47.8, 34.8 59.9 C 46.1 52.9, 74.1 70.7, 67.2 56.5 C 82.1 62.0, 50.0 33.9, 60.7 45.8 Z" fill="hsl(2, 82%, 55%)" fill-opacity="0.86" stroke="none" stroke-width="4.90"   />
<rect x="49.8" y="16.8" width="36.2" height="32.9" rx="0" fill="none" fill-opacity="0.72" stroke="hsl(144, 86%, 72%)" stroke-width="3.8"  transform="translate(8.5 76.1) rotate(1.2) scale(1.43 0.66)" />
<circle cx="50.6" cy="46.6" r="1.8" fill="hsl(2, 82%, 55%)" fill-opacity="0.61"   />
<rect x="12.9" y="16.3" width="36.0" height="30.8" rx="6.3" fill="hsl(144, 86%, 72%)" fill-opacity="0.37" stroke="hsl(144, 86%, 72%)" stroke-width="3.0"  transform="translate(31.1 31.2) rotate(116.4) scale(1.40 1.16)" />
<path d="M 58.1 97.1 C 62.0 100.0, 19.7 100.0, 13.6 89.6 C 0.0 74.2, 40.2 77.2, 26.0 81.3 C 44.7 61.9, 45.2 100.0, 36.5 95.4 C 36.5 81.0, 15.7 15.6, 10.2 9.4 C 24.2 26.1, 46.4 75.6, 54.1 71.3 C 37.1 60.7, 37.4 61.1, 42.0 73.3 C 38.8 71.4, 90.4 34.8, 77.8 40.2 C 79.7 39.6, 90.5 60.8, 90.9 46.5 Z" fill="hsl(86, 72%, 68%)" fill-opacity="0.43" stroke="none" stroke-width="2.05"   />
<path d="M 54.3 11.5 C 62.9 4.5, 80.1 95.5, 91.6 88.9 C 96.5 100.0, 62.3 77.4, 76.2 85.3 C 66.5 82.0, 50.6 75.0, 65.0 87.5 C 74.5 100.0, 7.2 26.9, 18.3 20.0 C 11.9 25.5, 31.5 52.8, 28.3 38.9 C 42.6 46.0, 40.3 41.9, 53.7 48.1 C 57.4 58.2, 46.9 56.0, 33.0 46.0 C 32.3 41.5, 100.0 75.8, 95.0 80.4 C 100.0 81.4, 100.0 30.4, 93.4 21.4 C 82.9 38.7, 68.8 28.5, 64.4 19.2 Z" fill="hsl(322, 74%, 44%)" fill-opacity="0.28" stroke="none" stroke-width="4.92"  transform="translate(69.8 29.7) rotate(353.1) scale(1.34 0.74)" />
<path d="M 46.3 96.1 C 29.1 88.5, 64.9 88.9, 55.7 93.3 C 58.0 88.3, 58.3 51.8, 59.7 49.4 C 53.9 62.1, 4.3 64.3, 2.7 52.9 C 21.5 51.4, 21.4 81.2, 35.5 70.3 C 21.1 67.6, 65.8 66.0, 70.1 58.9 C 69.1 70.6, 100.0 66.1, 98.5 54.3 C 81.9 50.4, 42.5 35.5, 42.8 30.3 Z" fill="none" fill-opacity="0.58" stroke="hsl(104, 72%, 65%)" stroke-width="4.38"  transform="translate(60.8 62.9) rotate(16.3) scale(1.17 0.87)" />
<rect x="20.0" y="19.1" width="22.9" height="31.3" rx="3.1" fill="none" fill-opacity="0.76"    />
<circle cx="37.7" cy="57.5" r="4.9" fill="url(#g1)" fill-opacity="0.92"  transform="translate(39.0 83.1) rotate(148.3) scale(1.53 1.95)" />
<rect x="36.8" y="3.4" width="31.3" height="19.4" rx="11.0" fill="hsl(104, 72%, 65%)" fill-opacity="0.66"  filter="url(#f1)" transform="translate(47.0 82.2) rotate(69.7) scale(1.08 1.40)" />
<path d="M 5.3 87.6 C 0.0 69.8, 34.1 87.3, 36.5 78.1 C 45.4 67.5, 73.3 74.4, 63.0 81.7 C 57.5 77.9, 52.7 25.1, 40.9 26.0 C 55.9 43.6, 52.4 47.0, 50.8 43.3 C 64.3 50.4, 33.8 82.6, 25.0 83.0 C 11.7 66.2, 72.4 77.9, 82.6 82.8 C 67.2 87.9, 27.3 49.9, 31.5 57.6 C 46.3 62.5, 34.8 24.1, 25.9 23.9 Z" fill="none" fill-opacity="0.39" stroke="hsl(104, 72%, 65%)" stroke-width="5.16" filter="url(#f1)" transform="translate(53.5 98.3) rotate(284.1) scale(1.71 1.98)" />
<path d="M 68.7 36.2 C 87.6 50.4, 49.3 87.5, 48.9 89.8 C 54.4 84.9, 63.9 73.1, 59.7 61.1 C 44.0 49.3, 7.8 77.1, 14.0 92.1 C 24.7 91.7, 94.5 43.1, 82.8 28.4 C 65.7 34.5, 61.0 8.2, 67.6 4.7 C 66.8 0.0, 30.3 47.7, 30.9 50.4 C 31.9 64.1, 30.1 7.7, 32.1 10.4 " fill="none" fill-opacity="0.36" stroke="hsl(144, 86%, 72%)" stroke-width="4.59"  transform="translate(41.7 2.0) rotate(246.2) scale(0.61 1.63)" />
<path d="M 19.8 3.3 C 5.7 0.0, 39.9 47.2, 41.9 51.5 C 32.7 32.1, 52.7 14.7, 41.6 10.1 C 49.0 27.3, 24.0 66.3, 25.9 55.8 C 42.5 53.9, 20.5 65.1, 24.6 55.6 C 42.7 70.3, 43.3 100.0, 45.2 99.5 C 41.8 82.8, 0.0 59.5, 2.8 59.9 C 21.9 78.2, 74.9 13.2, 60.6 5.3 Z" fill="hsl(106, 75%, 59%)" fill-opacity="0.91" stroke="none" stroke-width="2.05"  transform="translate(7.9 17.5) rotate(201.9) scale(1.54 1.71)" />
<path d="M 46.6 61.7 C 49.4 52.7, 0.0 86.4, 1.9 73.4 C 0.0 59.8, 41.3 91.2, 45.5 78.8 C 36.6 73.9, 32.0 58.2, 31.6 70.8 C 34.8 51.1, 33.3 14.0, 35.1 6.5 C 26.3 0.0, 61.6 43.0, 61.9 56.1 C 54.6 47.6, 83.7 95.6, 79.6 89.6 Z" fill="hsl(290, 83%, 63%)" fill-opacity="0.43" stroke="none" stroke-width="5.04" filter="url(#f1)" transform="translate(96.3 94.7) rotate(180.0) scale(1.14 1.19)" />
<path d="M 48.5 39.5 C 34.3 50.3, 0.0 66.7, 10.8 73.9 C 1.7 86.3, 2.2 26.7, 6.5 31.9 C 3.7 24.9, 12.9 95.1, 1.0 93.8 C 0.0 100.0, 0.0 78.3, 1.8 89.9 C 15.6 100.0, 62.3 94.4, 66.7 94.7 C 54.6 78.4, 79.3 47.1, 87.2 46.8 C 70.7 48.1, 73.8 42.7, 82.8 30.5 Z" fill="hsl(183, 71%, 60%)" fill-opacity="0.34" stroke="none" stroke-width="3.63"  transform="translate(90.2 37.5) rotate(273.3) scale(0.64 0.91)" />
<rect x="22.3" y="67.7" width="49.8" height="20.6" rx="0" fill="hsl(290, 83%, 63%)" fill-opacity="0.32"   transform="translate(63.6 65.3) rotate(188.1) scale(1.38 0.55)" />
<path d="M 72.5 70.8 C 54.2 55.8, 69.6 26.3, 81.3 41.3 C 100.0 47.6, 39.4 73.3, 44.4 86.3 C 38.0 96.2, 62.8 0.0, 51.2 8.8 C 56.5 26.0, 43.8 78.2, 36.8 66.0 C 30.7 63.9, 86.0 68.1, 86.4 78.7 C 75.4 79.5, 48.6 59.7, 54.9 68.8 " fill="none" fill-opacity="0.68" stroke="hsl(106, 75%, 59%)" stroke-width="4.31"  transform="translate(84.9 71.6) rotate(20.7) scale(1.70 1.96)" />
<path d="M 45.8 33.0 C 46.3 48.3, 0.0 91.3, 12.3 81.1 C 0.0 76.0, 0.0 51.0, 10.8 53.7 C 24.4 37.6, 0.0 25.5, 1.9 33.0 C 2.4 34.1, 54.0 69.4, 62.9 65.3 C 69.8 81.4, 60.3 67.9, 59.1 71.1 C 56.7 52.6, 59.9 56.3, 64.0 55.3 C 50.2 63.0, 45.7 58.4, 38.9 52.2 C 43.6 43.0, 75.8 37.5, 89.4 37.8 C 80.0 26.0, 100.0 93.8, 99.7 84.5 Z" fill="none" fill-opacity="0.84" stroke="hsl(322, 74%, 44%)" stroke-width="4.53"  transform="translate(68.4 87.4) rotate(320.0) scale(1.82 0.84)" />
<path d="M 30.5 48.7 C 29.4 46.8, 23.0 64.1, 21.2 67.7 C 18.5 64.4, 32.9 48.5, 19.3 35.0 C 21.3 22.4, 46.2 56.8, 44.8 51.9 C 47.1 40.1, 13.4 34.4, 10.1 42.4 C 29.9 48.2, 68.1 37.8, 60.8 24.4 C 64.6 33.2, 69.4 47.0, 67.2 37.6 C 84.2 30.0, 15.5 41.3, 2.6 31.4 C 0.0 26.1, 96.0 46.2, 83.7 48.6 C 70.5 58.4, 66.9 11.7, 60.7 24.3 C 77.1 39.3, 1.6 59.5, 12.1 73.5 Z" fill="none" fill-opacity="0.46" stroke="hsl(242, 72%, 49%)" stroke-width="1.27"  transform="translate(76.6 23.0) rotate(276.5) scale(1.32 0.56)" />
<path d="M 15.0 26.0 C 0.0 22.2, 25.5 51.4, 29.4 43.0 C 26.4 23.4, 78.7 17.5, 78.5 25.6 C 77.7 20.8, 68.0 100.0, 65.9 99.7 C 83.3 100.0, 100.0 76.6, 90.6 78.8 C 89.6 64.8, 17.2 26.1, 22.9 26.4 C 40.4 46.1, 30.4 16.2, 20.9 11.2 C 4.5 18.7, 61.9 31.9, 75.9 24.2 C 81.8 38.2, 65.2 12.2, 74.8 18.4 Z" fill="hsl(242, 72%, 49%)" fill-opacity="0.79" stroke="none" stroke-width="2.11"  transform="translate(56.0 24.3) rotate(98.2) scale(1.40 1.80)" />
<path d="M 63.5 31.9 C 78.9 34.0, 7.9 58.8, 11.4 64.7 C 21.1 52.3, 33.0 36.0, 30.3 45.5 C 34.8 46.8, 12.9 5.9, 9.4 17.8 C 28.6 35.2, 4.8 42.5, 16.9 35.3 C 35.9 17.7, 84.0 28.9, 86.1 36.4 C 98.7 55.7, 24.3 49.3, 12.0 64.1 Z" fill="none" fill-opacity="0.66" stroke="hsl(86, 72%, 68%)" stroke-width="2.94"  transform="translate(83.4 55.6) rotate(181.4) scale(1.96 1.44)" />
<rect x="34.8" y="13.4" width="21.4" height="34.8" rx="0" fill="hsl(151, 70%, 62%)" fill-opacity="0.36" stroke="hsl(151, 70%, 62%)" stroke-width="4.0"  transform="translate(97.6 32.3) rotate(67.0) scale(0.87 1.29)" />
<rect x="14.1" y="34.3" width="30.4" height="37.7" rx="0" fill="hsl(144, 86%, 72%)" fill-opacity="0.52"   transform="translate(93.5 21.6) rotate(140.4) scale(0.89 1.77)" />
<circle cx="26.5" cy="53.9" r="5.6" fill="hsl(144, 86%, 72%)" fill-opacity="0.75"  transform="translate(29.8 48.6) rotate(69.5) scale(1.02 1.44)" />
<path d="M 69.2 78.9 C 60.4 84.4, 66.9 73.4, 76.6 86.3 C 92.9 89.2, 44.5 60.2, 45.6 52.1 C 52.0 67.7, 21.1 90.4, 32.2 90.7 C 17.0 88.6, 43.8 51.9, 56.6 48.8 C 61.0 39.0, 75.7 0.0, 66.0 7.8 C 53.4 20.3, 55.0 72.0, 51.8 69.4 C 55.7 53.0, 37.4 67.5, 26.9 58.2 C 30.1 71.9, 72.4 42.9, 63.5 34.5 C 67.2 50.3, 65.9 85.4, 80.8 79.2 Z" fill="none" fill-opacity="0.73" stroke="hsl(151, 70%, 62%)" stroke-width="3.11"  transform="translate(51.9 27.9) rotate(133.9) scale(1.10 0.58)" />
<circle cx="20.4" cy="86.0" r="7.8" fill="hsl(104, 72%, 65%)" fill-opacity="0.45" filter="url(#f1)" transform="translate(3.8 36.7) rotate(297.0) scale(1.30 1.06)" />
<path d="M 4.8 74.6 C 18.2 69.6, 46.8 84.8, 54.8 94.5 C 56.5 100.0, 88.7 72.3, 77.6 76.3 C 71.0 93.9, 0.0 31.2, 6.0 39.7 C 17.1 22.0, 8.4 28.5, 10.9 33.2 C 19.0 46.8, 16.4 89.3, 16.0 93.4 C 33.4 83.7, 64.2 48.4, 57.9 36.0 C 42.1 41.7, 56.3 11.6, 52.0 24.1 C 44.3 43.5, 67.7 0.0, 59.3 5.3 Z" fill="hsl(104, 72%, 65%)" fill-opacity="0.26" stroke="none" stroke-width="4.46"  transform="translate(37.2 73.8) rotate(80.3) scale(0.67 1.84)" />
<circle cx="30.7" cy="29.9" r="0.5" fill="hsl(40, 53%, 69%)" fill-opacity="0.84"  transform="translate(91.7 46.2) rotate(99.3) scale(0.75 1.18)" />
<path d="M 30.4 29.8 C 14.5 27.1, 4.3 93.1, 9.0 94.2 C 14.0 93.9, 58.6 0.0, 49.5 2.5 C 58.8 9.6, 16.8 100.0, 19.4 93.8 C 7.0 94.1, 96.4 90.3, 93.0 79.4 C 100.0 74.6, 70.2 76.5, 60.2 89.6 C 42.8 89.3, 59.2 46.8, 53.8 31.9 C 44.6 24.9, 78.3 23.7, 86.7 29.1 C 81.4 46.3, 89.5 1.0, 83.2 1.0 C 66.3 15.6, 58.5 0.0, 53.0 8.5 C 56.6 3.5, 78.6 7.7, 88.9 18.0 Z" fill="none" fill-opacity="0.84" stroke="hsl(2, 82%, 55%)" stroke-width="1.11"  transform="translate(3.8 60.6) rotate(289.0) scale(1.39 1.84)" />
<rect x="13.1" y="59.3" width="23.3" height="17.2" rx="0" fill="hsl(40, 53%, 69%)" fill-opacity="0.31"   transform="translate(19.6 3.8) rotate(120.6) scale(1.94 1.44)" />
<path d="M 2.0 49.8 C 0.0 55.3, 63.2 56.3, 76.3 63.3 C 57.9 49.2, 0.0 26.7, 1.7 23.7 C 13.9 11.9, 19.0 58.3, 18.6 52.1 C 4.2 34.2, 63.0 11.5, 70.2 17.6 C 82.3 8.1, 36.6 43.8, 37.9 35.7 C 48.4 20.8, 0.0 1.0, 0.9 10.0 Z" fill="hsl(86, 72%, 68%)" fill-opacity="0.47" stroke="none" stroke-width="3.57"  transform="translate(69.7 78.6) rotate(300.7) scale(1.09 1.11)" />
<path d="M 56.0 36.2 C 37.0 33.4, 69.0 100.0, 76.6 98.7 C 57.1 100.0, 0.0 33.1, 3.6 36.3 C 19.7 30.2, 98.5 45.0, 98.3 59.6 C 100.0 50.9, 31.5 39.8, 21.1 40.1 C 41.0 59.3, 52.8 46.2, 48.4 41.5 C 35.6 61.1, 14.8 46.6, 22.2 49.0 C 34.1 32.9, 40.8 0.0, 31.9 6.4 C 19.3 7.8, 27.2 34.1, 24.2 31.9 C 27.2 30.5, 6.2 80.2, 9.7 77.5 C 0.0 63.6, 80.6 66.1, 94.0 78.0 Z" fill="hsl(242, 72%, 49%)" fill-opacity="0.81" stroke="none" stroke-width="4.37"  transform="translate(15.7 36.6) rotate(138.5) scale(2.00 0.96)" />
<rect x="42.4" y="23.9" width="30.6" height="22.3" rx="0" fill="none" fill-opacity="0.68"   transform="translate(53.4 88.0) rotate(322.8) scale(1.81 1.75)" />
<rect x="12.2" y="48.4" width="21.8" height="39.6" rx="14.0" fill="none" fill-opacity="0.27"   transform="translate(33.7 3.3) rotate(128.1) scale(1.84 1.93)" />
<path d="M 14.5 15.8 C 0.0 25.7, 54.9 36.7, 58.8 44.6 C 46.1 44.1, 56.2 69.1, 59.4 57.5 C 79.0 54.4, 0.0 0.0, 1.3 8.0 C 0.0 27.1, 17.8 50.4, 4.8 63.8 C 18.4 77.3, 72.0 11.5, 81.9 15.6 C 82.6 27.5, 0.0 48.0, 3.8 44.2 Z" fill="none" fill-opacity="0.95" stroke="hsl(290, 83%, 63%)" stroke-width="1.35"  transform="translate(7.1 90.8) rotate(47.9) scale(1.00 1.56)" />
<rect x="28.3" y="14.2" width="47.3" height="24.4" rx="18.0" fill="hsl(242, 72%, 49%)" fill-opacity="0.46"   transform="translate(11.0 50.3) rotate(156.2) scale(1.24 0.61)" />
<circle cx="18.6" cy="12.6" r="0.9" fill="url(#g0)" fill-opacity="0.89"  transform="translate(5.8 30.0) rotate(144.7) scale(1.97 0.68)" />
<path d="M 64.5 64.8 C 68.2 75.5, 20.0 64.4, 21.5 78.0 C 28.8 74.3, 12.1 78.3, 7.1 86.6 C 0.0 67.0, 100.0 69.8, 97.8 72.7 C 98.0 59.7, 63.9 100.0, 54.1 95.2 C 48.0 100.0, 98.3 83.6, 91.5 87.1 C 79.8 68.4, 32.6 33.1, 43.6 37.3 C 26.7 46.6, 42.6 48.5, 38.8 47.5 " fill="hsl(86, 72%, 68%)" fill-opacity="0.76" stroke="none" stroke-width="3.78"  transform="translate(52.6 32.2) rotate(4.2) scale(0.88 1.51)" />
<path d="M 17.0 37.9 C 26.7 35.0, 13.8 14.2, 17.3 4.6 C 10.3 23.6, 78.7 32.4, 92.5 33.3 C 85.1 52.9, 78.3 12.3, 80.1 16.1 C 97.5 35.9, 88.9 68.3, 97.5 80.9 C 100.0 99.5, 100.0 13.1, 99.1 15.6 C 79.8 4.3, 66.5 80.7, 75.1 89.8 C 76.2 100.0, 15.7 58.6, 16.5 57.4 C 21.3 56.7, 27.8 74.3, 36.3 62.0 C 42.3 77.9, 67.0 54.4, 75.6 61.7 Z" fill="none" fill-opacity="0.34" stroke="hsl(322, 74%, 44%)" stroke-width="3.23" filter="url(#f1)" transform="translate(6.7 77.2) rotate(182.0) scale(1.55 1.41)" />
<rect x="8.1" y="35.9" width="22.6" height="29.4" rx="0" fill="none" fill-opacity="0.63"   transform="translate(30.1 48.7) rotate(72.5) scale(0.65 1.35)" />
<path d="M 2.5 85.0 C 4.3 100.0, 18.7 2.6, 19.4 5.5 C 4.9 4.3, 0.0 14.7, 0.0 27.6 C 9.7 21.3, 9.7 100.0, 20.6 93.8 C 40.2 100.0, 0.0 89.0, 1.9 96.0 C 6.2 100.0, 98.6 73.3, 91.3 70.3 C 73.3 60.7, 88.0 7.0, 80.9 17.8 C 76.8 32.1, 10.1 81.3, 15.9 76.2 C 9.8 63.3, 65.0 38.3, 66.7 42.3 C 66.5 61.4, 0.0 87.9, 5.4 75.8 C 0.0 81.5, 70.3 15.4, 66.9 12.9 Z" fill="hsl(290, 83%, 63%)" fill-opacity="0.51" stroke="none" stroke-width="1.60" filter="url(#f1)" transform="translate(7.1 70.3) rotate(49.5) scale(0.60 1.27)" />
<rect x="45.8" y="71.9" width="48.8" height="17.5" rx="11.4" fill="none" fill-opacity="0.51"  filter="url(#f1)" transform="translate(36.0 38.4) rotate(197.8) scale(0.70 0.73)" />
<circle cx="31.3" cy="62.1" r="1.2" fill="hsl(83, 65%, 44%)" fill-opacity="0.94"  transform="translate(87.0 2.1) rotate(206.1) scale(0.68 0.64)" />
<path d="M 20.9 32.5 C 1.9 26.4, 23.0 67.0, 11.0 64.8 C 14.3 84.6, 24.0 84.2, 12.2 89.2 C 0.0 100.0, 22.0 61.6, 34.0 60.8 C 52.5 74.4, 29.5 84.1, 27.9 77.8 C 40.5 97.1, 100.0 88.4, 93.5 80.7 C 77.4 98.9, 90.1 97.3, 98.7 90.1 Z" fill="none" fill-opacity="0.99" stroke="hsl(106, 75%, 59%)" stroke-width="1.53" filter="url(#f1)" transform="translate(56.9 38.5) rotate(255.7) scale(0.60 1.24)" />
<rect x="33.0" y="70.3" width="24.6" height="14.7" rx="19.8" fill="hsl(106, 75%, 59%)" fill-opacity="0.53"   transform="translate(82.7 16.5) rotate(213.4) scale(1.85 2.00)" />
<rect x="6.8" y="15.7" width="28.8" height="35.7" rx="0" fill="none" fill-opacity="0.69" stroke="hsl(144, 86%, 72%)" stroke-width="2.4"  transform="translate(74.4 54.4) rotate(249.4) scale(1.56 1.42)" />
<circle cx="54.8" cy="30.1" r="3.8" fill="url(#g1)" fill-opacity="0.84"  transform="translate(83.4 85.4) rotate(154.5) scale(1.14 1.80)" />
<path d="M 16.1 78.5 C 27.8 67.3, 81.3 48.2, 82.2 51.1 C 68.7 50.8, 65.7 45.0, 76.8 43.6 C 61.5 34.5, 23.7 22.0, 34.1 18.5 C 48.9 33.1, 72.6 20.6, 64.8 33.1 C 72.4 35.6, 48.8 50.2, 44.3 42.4 C 29.7 38.9, 11.4 92.5, 20.4 93.8 C 27.6 94.3, 28.9 35.9, 16.1 42.0 C 5.1 40.0, 55.0 100.0, 51.2 93.2 C 36.1 100.0, 42.0 30.7, 56.0 42.0 Z" fill="hsl(104, 72%, 65%)" fill-opacity="0.96" stroke="none" stroke-width="2.91"  transform="translate(73.5 84.5) rotate(197.2) scale(1.47 1.22)" />
<rect x="39.4" y="34.3" width="32.1" height="32.9" rx="0" fill="none" fill-opacity="0.25"   transform="translate(36.6 55.9) rotate(99.9) scale(0.90 1.89)" />
<rect x="58.8" y="68.3" width="38.9" height="14.8" rx="4.5" fill="hsl(242, 72%, 49%)" fill-opacity="0.94"   transform="translate(54.8 81.6) rotate(5.5) scale(1.47 1.30)" />
<path d="M 93.2 97.7 C 100.0 79.1, 73.2 52.4, 83.5 60.7 C 66.6 77.8, 89.9 7.7, 95.5 5.6 C 88.1 2.3, 19.0 68.8, 22.7 78.1 C 18.8 74.2, 85.2 74.9, 83.0 66.8 C 95.0 54.3, 9.6 93.5, 19.7 93.0 C 35.3 100.0, 75.1 8.1, 84.9 18.5 C 68.5 12.3, 24.7 71.2, 21.9 71.2 Z" fill="none" fill-opacity="0.93" stroke="hsl(183, 71%, 60%)" stroke-width="0.96"  transform="translate(95.0 48.3) rotate(113.5) scale(1.94 0.95)" />
<rect x="18.7" y="34.1" width="29.8" height="39.0" rx="17.9" fill="hsl(183, 71%, 60%)" fill-opacity="0.62"   transform="translate(19.3 5.3) rotate(97.8) scale(1.56 1.56)" />
<rect x="42.9" y="36.4" width="42.3" height="36.5" rx="0" fill="hsl(183, 71%, 60%)" fill-opacity="0.26"   transform="translate(78.1 27.0) rotate(174.8) scale(0.72 1.13)" />
<path d="M 72.3 17.0 C 90.3 9.0, 82.2 68.1, 78.6 81.4 C 61.2 68.9, 0.5 95.1, 7.2 91.2 C 18.0 100.0, 50.1 0.0, 56.2 4.3 C 37.9 9.9, 61.2 69.4, 63.6 65.5 C 69.2 65.0, 0.0 53.3, 4.5 38.7 C 11.0 36.0, 28.1 26.4, 13.7 19.8 C 14.8 19.5, 61.3 93.9, 69.7 94.4 C 65.6 100.0, 74.9 40.5, 71.8 47.5 C 67.7 36.4, 70.0 54.4, 68.8 47.8 C 51.1 53.5, 78.0 36.2, 63.4 32.2 Z" fill="hsl(106, 75%, 59%)" fill-opacity="0.82" stroke="none" stroke-width="5.10"  transform="translate(23.0 19.5) rotate(299.3) scale(0.75 0.59)" />
<circle cx="5.6" cy="40.7" r="8.3" fill="hsl(86, 72%, 68%)" fill-opacity="0.41"  transform="translate(77.2 32.9) rotate(26.8) scale(1.23 1.95)" />
<circle cx="72.5" cy="76.0" r="2.8" fill="url(#g2)" fill-opacity="0.61"  transform="translate(21.0 7.3) rotate(241.1) scale(1.85 0.68)" />
<path d="M 75.3 79.0 C 78.5 87.5, 33.6 97.5, 27.6 83.6 C 15.7 99.9, 21.4 0.0, 35.1 6.3 C 42.9 18.6, 50.4 80.0, 49.7 77.2 C 56.3 61.7, 85.0 32.5, 93.9 41.6 C 93.9 38.4, 40.5 80.5, 53.5 78.3 C 61.2 60.5, 57.8 47.6, 67.6 32.7 C 65.8 38.0, 48.7 100.0, 40.0 93.0 C 48.2 83.0, 48.3 87.6, 51.7 93.0 Z" fill="none" fill-opacity="0.50" stroke="hsl(183, 71%, 60%)" stroke-width="1.56"  transform="translate(57.7 95.0) rotate(295.5) scale(0.94 1.21)" />
<path d="M 0.4 82.7 C 0.0 76.0, 75.3 12.2, 71.7 9.9 C 80.0 29.6, 100.0 98.7, 99.8 90.2 C 100.0 92.9, 21.7 29.5, 17.4 14.5 C 33.2 28.8, 39.0 61.8, 48.4 54.0 C 46.1 55.4, 42.3 47.2, 33.9 54.6 C 17.0 56.6, 94.0 49.6, 82.4 44.3 Z" fill="hsl(83, 65%, 44%)" fill-opacity="0.51" stroke="none" stroke-width="1.53"   />
<rect x="13.0" y="42.9" width="45.3" height="30.7" rx="16.0" fill="none" fill-opacity="0.60"  filter="url(#f1)" transform="translate(73.1 84.6) rotate(24.4) scale(1.81 1.79)" />
<path d="M 18.2 74.4 C 20.1 85.0, 64.1 48.9, 58.8 59.1 C 55.5 53.9, 100.0 12.8, 91.0 12.5 C 84.8 12.5, 54.0 31.8, 59.7 41.3 C 59.9 24.2, 0.0 97.8, 0.3 89.0 C 14.8 88.6, 74.5 100.0, 64.6 91.9 C 54.9 94.6, 13.9 0.0, 6.5 0.1 C 24.4 0.0, 100.0 0.9, 97.5 10.5 C 87.5 18.2, 97.6 50.9, 91.9 40.6 C 74.2 49.9, 48.6 38.5, 44.9 36.5 Z" fill="hsl(106, 75%, 59%)" fill-opacity="0.29" stroke="none" stroke-width="2.87"  transform="translate(18.5 77.7) rotate(27.9) scale(0.64 0.91)" />
<rect x="23.7" y="61.6" width="29.3" height="27.0" rx="9.6" fill="hsl(151, 70%, 62%)" fill-opacity="0.81"  filter="url(#f1)"  />
<path d="M 98.5 54.9 C 100.0 43.1, 79.8 69.7, 86.7 67.0 C 95.1 59.4, 21.5 58.9, 17.8 55.6 C 11.9 53.0, 89.7 46.3, 100.0 57.3 C 95.4 56.7, 20.8 17.0, 8.2 25.4 C 16.1 37.6, 83.6 16.4, 94.9 31.0 C 100.0 33.7, 45.6 52.5, 31.4 38.0 C 20.3 52.8, 59.2 27.6, 67.1 38.1 C 77.4 50.7, 29.2 100.0, 34.7 96.8 Z" fill="none" fill-opacity="0.44" stroke="hsl(183, 71%, 60%)" stroke-width="3.13" filter="url(#f1)" transform="translate(47.1 82.4) rotate(328.6) scale(1.89 1.75)" />
<path d="M 41.5 78.8 C 30.4 82.0, 33.8 41.2, 44.2 28.9 C 26.5 46.0, 52.6 0.0, 63.5 3.6 C 60.4 0.6, 13.2 69.4, 10.2 79.7 C 30.0 87.4, 36.2 22.0, 28.5 18.1 C 19.7 23.8, 69.3 14.8, 55.0 2.0 C 37.6 0.0, 94.4 15.2, 85.7 15.3 Z" fill="hsl(104, 72%, 65%)" fill-opacity="0.30" stroke="none" stroke-width="3.77"  transform="translate(85.6 41.5) rotate(29.6) scale(0.57 1.84)" />
<path d="M 3.0 84.3 C 0.0 69.7, 52.4 94.6, 48.4 87.3 C 44.9 97.9, 30.6 70.9, 21.3 72.1 C 26.8 53.8, 83.6 93.8, 91.2 98.6 C 75.5 100.0, 35.5 66.7, 22.3 55.4 C 31.4 52.4, 89.1 95.1, 77.9 94.3 C 80.2 95.3, 2.8 74.3, 3.1 63.0 Z" fill="hsl(83, 65%, 44%)" fill-opacity="0.64" stroke="none" stroke-width="1.01"  transform="translate(54.5 5.8) rotate(86.3) scale(1.73 1.08)" />
<circle cx="83.7" cy="7.5" r="3.8" fill="url(#g1)" fill-opacity="0.65"  transform="translate(68.5 39.0) rotate(83.5) scale(1.38 0.63)" />
<circle cx="99.7" cy="67.2" r="1.8" fill="url(#g2)" fill-opacity="0.46"   />
<path d="M 84.8 95.7 C 100.0 77.4, 40.8 38.3, 27.2 48.3 C 35.9 60.4, 40.8 75.3, 54.5 83.2 C 38.1 68.5, 24.3 98.8, 11.4 90.0 C 0.0 78.0, 30.8 81.3, 16.5 86.8 C 10.9 97.2, 67.9 44.8, 75.7 35.6 C 67.9 35.0, 37.7 2.0, 42.6 5.2 C 33.9 2.2, 75.9 7.1, 83.8 21.9 C 78.5 11.5, 0.0 71.0, 0.9 57.6 C 10.4 77.4, 82.6 100.0, 85.4 94.2 C 78.6 75.0, 57.2 67.0, 44.2 60.2 Z" fill="hsl(322, 74%, 44%)" fill-opacity="0.80" stroke="none" stroke-width="1.99"  transform="translate(10.4 19.3) rotate(298.3) scale(1.67 1.08)" />
<path d="M 69.9 59.1 C 75.8 60.7, 69.8 35.1, 63.2 20.7 C 77.5 26.3, 0.0 85.9, 2.5 90.3 C 8.0 88.2, 32.5 51.0, 40.2 61.8 C 54.0 72.1, 48.6 58.7, 46.7 62.1 C 55.9 70.7, 32.6 24.2, 43.5 25.8 C 60.0 35.0, 40.2 12.8, 54.0 25.8 C 34.8 41.3, 27.9 73.1, 29.4 86.6 C 16.1 88.1, 62.5 30.7, 53.4 26.5 C 58.7 19.7, 22.0 53.6, 17.3 44.0 Z" fill="none" fill-opacity="0.78" stroke="hsl(40, 53%, 69%)" stroke-width="3.71"   />
<path d="M 68.5 87.0 C 67.2 96.4, 16.9 62.6, 25.5 58.5 C 38.4 74.3, 19.5 24.9, 30.8 30.0 C 31.4 33.7, 55.3 0.0, 51.8 2.7 C 56.2 0.0, 71.3 83.2, 65.0 69.6 C 59.2 60.6, 80.0 65.6, 72.5 64.7 C 52.8 70.8, 37.0 78.5, 34.0 82.5 Z" fill="none" fill-opacity="0.52" stroke="hsl(242, 72%, 49%)" stroke-width="2.89"  transform="translate(71.5 91.4) rotate(350.7) scale(1.40 1.92)" />
<path d="M 54.5 36.6 C 51.6 54.8, 94.9 14.8, 99.4 2.2 C 100.0 15.5, 51.9 53.6, 47.3 43.3 C 41.9 26.9, 47.1 0.0, 54.7 3.6 C 50.9 0.0, 76.0 81.3, 69.5 82.7 C 69.9 71.5, 52.6 3.2, 37.7 8.0 C 54.4 13.7, 35.8 36.9, 27.0 32.9 C 14.3 41.3, 78.9 50.4, 82.5 43.2 C 74.4 56.4, 12.7 41.7, 12.7 33.6 C 1.3 33.7, 100.0 0.0, 90.1 3.3 C 78.6 0.0, 39.2 90.3, 50.7 75.4 Z" fill="none" fill-opacity="0.44" stroke="hsl(183, 71%, 60%)" stroke-width="1.09"   />
<path d="M 67.7 44.4 C 51.2 36.2, 0.0 65.6, 11.4 65.6 C 1.1 54.2, 64.4 24.1, 61.8 13.8 C 69.6 3.7, 99.2 19.1, 85.9 29.0 C 75.0 46.1, 79.3 10.2, 69.1 12.4 C 52.6 14.0, 57.4 82.2, 57.0 76.0 C 62.7 86.3, 77.0 79.4, 63.4 80.4 C 73.5 79.4, 50.8 67.2, 46.1 67.4 C 58.6 63.6, 33.3 57.9, 33.7 50.2 C 34.1 70.1, 25.1 82.3, 22.9 78.9 " fill="none" fill-opacity="0.73" stroke="hsl(40, 53%, 69%)" stroke-width="4.01" filter="url(#f1)" transform="translate(5.4 81.9) rotate(12.2) scale(1.79 0.82)" />
<path d="M 19.8 45.9 C 30.8 27.9, 42.6 8.8, 30.9 21.9 C 43.4 7.8, 59.9 62.5, 51.0 63.2 C 61.9 82.4, 45.8 67.7, 39.0 79.0 C 57.1 87.6, 32.9 73.1, 37.9 60.9 C 38.9 57.7, 75.7 12.4, 76.7 5.4 C 68.5 0.0, 87.8 15.0, 88.7 11.4 C 81.3 2.5, 98.3 28.0, 90.6 22.8 C 80.1 25.4, 70.5 87.0, 84.0 86.7 " fill="none" fill-opacity="0.52" stroke="hsl(144, 86%, 72%)" stroke-width="5.02"  transform="translate(31.0 15.4) rotate(140.2) scale(0.51 0.61)" />
<rect x="54.1" y="73.6" width="39.5" height="17.7" rx="0" fill="none" fill-opacity="0.44"   transform="translate(56.8 48.8) rotate(92.5) scale(1.71 0.99)" />
<rect x="4.0" y="42.5" width="47.4" height="33.0" rx="18.6" fill="hsl(144, 86%, 72%)" fill-opacity="0.85"   transform="translate(18.6 34.8) rotate(180.5) scale(0.93 1.06)" />
<rect x="5.9" y="1.7" width="46.6" height="28.0" rx="0" fill="none" fill-opacity="0.34" stroke="hsl(290, 83%, 63%)" stroke-width="4.2"  transform="translate(54.0 87.1) rotate(30.0) scale(1.30 1.92)" />
<circle cx="93.2" cy="99.7" r="3.8" fill="url(#g1)" fill-opacity="0.58"  transform="translate(15.8 44.2) rotate(23.5) scale(1.00 0.89)" />
<path d="M 51.5 68.7 C 70.9 72.8, 59.2 67.9, 67.9 72.5 C 71.6 82.6, 86.8 97.5, 81.1 83.1 C 69.1 69.0, 87.6 33.8, 85.4 43.2 C 67.0 37.9, 0.0 19.0, 3.8 10.9 C 0.0 23.2, 59.9 36.4, 58.2 30.5 C 63.3 21.4, 70.3 61.9, 69.7 70.6 Z" fill="hsl(183, 71%, 60%)" fill-opacity="0.80" stroke="none" stroke-width="1.21"  transform="translate(17.4 80.8) rotate(259.6) scale(1.99 1.22)" />
<path d="M 12.4 78.6 C 29.1 91.2, 84.5 96.6, 76.7 97.4 C 59.3 100.0, 0.0 88.7, 8.4 75.9 C 0.0 64.0, 38.9 47.1, 41.9 47.7 C 21.9 28.6, 40.0 55.0, 53.0 41.2 C 55.6 53.3, 86.7 3.3, 74.1 6.0 C 58.4 20.8, 75.9 60.3, 88.8 57.7 C 77.3 51.6, 79.3 5.8, 89.2 10.3 C 100.0 3.6, 68.0 1.3, 59.0 4.6 C 78.8 0.0, 39.0 18.3, 38.3 8.9 Z" fill="none" fill-opacity="0.62" stroke="hsl(290, 83%, 63%)" stroke-width="4.61" filter="url(#f1)" transform="translate(47.3 92.4) rotate(351.0) scale(1.08 1.26)" />
<path d="M 91.5 98.3 C 100.0 98.6, 21.2 86.2, 11.9 99.3 C 14.9 82.5, 15.1 39.0, 19.5 53.7 C 11.8 65.7, 13.1 12.0, 1.7 23.4 C 0.0 15.6, 58.7 38.4, 72.6 28.0 C 74.4 28.0, 75.4 81.2, 72.5 92.9 C 70.4 98.0, 89.2 14.9, 75.9 1.2 C 72.7 18.6, 22.8 61.2, 27.0 63.1 C 19.1 73.9, 0.0 68.1, 7.5 73.1 Z" fill="hsl(290, 83%, 63%)" fill-opacity="0.87" stroke="none" stroke-width="3.22"  transform="translate(24.7 27.6) rotate(86.8) scale(2.00 1.17)" />
<rect x="56.9" y="59.8" width="42.8" height="22.4" rx="0" fill="hsl(290, 83%, 63%)" fill-opacity="1.00"    />
<path d="M 13.5 68.6 C 15.1 78.9, 0.0 61.0, 3.8 65.9 C 0.0 81.4, 33.8 97.4, 32.3 89.8 C 27.2 100.0, 59.0 61.8, 58.5 55.6 C 48.9 67.9, 100.0 15.5, 97.3 15.0 C 99.2 32.0, 30.9 72.5, 29.0 87.0 C 26.8 85.4, 24.2 83.5, 29.9 88.1 " fill="none" fill-opacity="0.94" stroke="hsl(290, 83%, 63%)" stroke-width="4.64"  transform="translate(25.2 52.9) rotate(217.9) scale(0.63 0.73)" />
<path d="M 12.9 92.8 C 10.3 100.0, 75.2 100.0, 87.1 93.4 C 69.9 100.0, 62.7 21.6, 74.1 25.9 C 76.6 14.5, 26.2 5.0, 26.4 1.0 C 11.9 4.1, 16.2 77.0, 13.2 74.7 C 24.2 67.6, 100.0 55.1, 97.1 50.3 C 94.1 58.0, 59.3 22.9, 47.6 33.1 C 65.1 17.1, 12.9 79.0, 11.5 67.0 Z" fill="hsl(183, 71%, 60%)" fill-opacity="0.85" stroke="none" stroke-width="3.08"  transform="translate(82.4 86.3) rotate(147.6) scale(1.88 1.64)" />
<rect x="59.7" y="37.1" width="38.6" height="28.1" rx="0" fill="none" fill-opacity="0.82"  filter="url(#f1)" transform="translate(34.5 67.4) rotate(182.5) scale(1.18 1.33)" />
<rect x="59.7" y="60.4" width="26.2" height="29.5" rx="0" fill="hsl(290, 83%, 63%)" fill-opacity="0.80"   transform="translate(5.6 94.0) rotate(104.1) scale(1.32 0.53)" />
<path d="M 82.3 79.2 C 95.1 89.2, 85.0 75.1, 76.5 75.6 C 75.0 94.2, 48.6 48.3, 34.5 37.0 C 44.3 32.7, 1.5 27.1, 10.0 36.1 C 9.1 48.1, 2.2 76.4, 5.6 82.6 C 3.0 100.0, 67.9 39.3, 77.7 41.8 C 73.2 37.7, 11.7 52.4, 16.9 38.9 C 34.5 36.4, 61.7 45.9, 65.6 45.5 Z" fill="hsl(144, 86%, 72%)" fill-opacity="0.78" stroke="none" stroke-width="4.57"  transform="translate(84.7 77.4) rotate(116.0) scale(1.89 1.49)" />
<path d="M 69.8 40.3 C 78.1 44.0, 55.6 76.6, 52.6 84.1 C 52.4 96.4, 71.6 47.7, 66.2 42.7 C 51.7 33.8, 58.0 88.7, 43.7 87.0 C 46.3 71.5, 27.3 90.6, 14.0 97.6 C 16.7 98.0, 8.1 30.4, 3.9 36.5 C 0.0 43.4, 0.0 65.2, 4.1 69.7 Z" fill="hsl(290, 83%, 63%)" fill-opacity="0.56" stroke="none" stroke-width="4.58"  transform="translate(86.6 34.3) rotate(68.0) scale(1.66 1.37)" />
<rect x="8.8" y="48.7" width="32.6" height="22.2" rx="17.8" fill="none" fill-opacity="0.73"   transform="translate(42.0 77.8) rotate(358.1) scale(1.25 1.65)" />
<path d="M 92.2 36.5 C 79.3 24.7, 67.1 2.0, 58.5 8.9 C 50.3 0.0, 0.0 58.8, 4.6 58.8 C 0.0 49.9, 11.1 15.1, 16.9 11.1 C 23.3 25.9, 41.2 37.7, 34.5 49.5 C 35.5 55.3, 2.9 97.4, 0.8 89.1 C 0.0 87.4, 39.8 42.7, 52.3 32.6 C 44.0 23.3, 20.8 80.9, 15.6 79.2 C 18.8 90.1, 5.0 25.7, 6.8 19.7 " fill="none" fill-opacity="0.38" stroke="hsl(40, 53%, 69%)" stroke-width="2.01"  transform="translate(67.6 80.5) rotate(205.2) scale(0.51 1.14)" />
<path d="M 53.8 31.5 C 57.8 32.6, 73.8 33.5, 65.8 35.1 C 55.6 20.5, 8.8 85.8, 19.2 83.0 C 32.3 75.3, 7.6 10.9, 4.1 8.5 C 0.0 11.1, 44.9 48.4, 44.9 37.2 C 45.4 54.1, 70.8 100.0, 59.3 89.9 C 51.1 100.0, 24.4 42.2, 33.9 52.9 C 21.1 33.1, 11.0 93.3, 23.6 83.8 C 41.3 79.6, 67.0 85.8, 62.6 71.8 C 60.0 67.5, 40.6 58.7, 41.8 71.7 C 44.7 68.7, 50.4 10.2, 60.1 22.0 Z" fill="none" fill-opacity="0.57" stroke="hsl(104, 72%, 65%)" stroke-width="0.82"  transform="translate(9.6 93.0) rotate(94.7) scale(1.40 1.53)" />
<path d="M 99.9 34.8 C 100.0 52.4, 8.1 90.9, 11.4 82.3 C 19.7 82.6, 61.3 19.1, 71.3 15.6 C 78.7 12.0, 61.7 19.1, 54.7 5.9 C 67.5 0.0, 82.8 40.0, 80.6 42.0 C 61.9 60.8, 41.3 95.6, 27.4 83.9 C 26.8 100.0, 48.2 64.0, 52.8 77.1 C 65.0 84.1, 39.6 10.4, 47.6 22.6 C 36.4 6.4, 93.0 95.8, 85.3 81.0 C 70.8 94.9, 18.2 88.6, 23.0 95.1 C 32.8 97.9, 100.0 17.7, 87.5 24.0 Z" fill="hsl(104, 72%, 65%)" fill-opacity="0.26" stroke="none" stroke-width="1.15"  transform="translate(86.1 78.6) rotate(202.1) scale(1.38 1.91)" />
<path d="M 26.2 27.2 C 30.8 27.1, 19.4 0.0, 28.1 1.4 C 31.0 0.0, 31.2 84.1, 44.2 79.1 C 46.6 77.7, 3.6 72.6, 9.0 86.6 C 0.0 86.7, 30.2 14.9, 32.5 7.0 C 46.3 13.8, 50.1 68.9, 36.6 59.8 C 52.3 42.0, 90.5 100.0, 84.8 98.9 Z" fill="hsl(144, 86%, 72%)" fill-opacity="0.84" stroke="none" stroke-width="2.47"   />
<circle cx="24.9" cy="75.8" r="7.1" fill="hsl(83, 65%, 44%)" fill-opacity="0.48"  transform="translate(58.1 15.8) rotate(77.4) scale(1.49 1.00)" />
<rect x="47.1" y="50.7" width="40.5" height="17.8" rx="16.4" fill="none" fill-opacity="0.46"   transform="translate(5.0 13.4) rotate(194.6) scale(0.53 1.25)" />
<path d="M 5.5 95.0 C 0.0 90.8, 100.0 0.0, 89.0 4.1 C 71.9 0.0, 18.2 14.8, 4.8 21.0 C 17.1 11.3, 44.1 63.0, 58.5 76.1 C 71.0 87.4, 40.9 67.0, 32.1 58.3 C 43.2 58.9, 5.4 94.8, 11.0 83.3 C 19.6 70.0, 19.3 72.0, 31.2 60.3 C 32.1 56.6, 53.8 100.0, 45.9 92.7 C 55.9 85.3, 70.6 22.0, 69.5 12.2 Z" fill="hsl(83, 65%, 44%)" fill-opacity="0.28" stroke="none" stroke-width="1.61"   />
<circle cx="83.0" cy="84.6" r="8.6" fill="hsl(104, 72%, 65%)" fill-opacity="0.47"  transform="translate(21.5 70.0) rotate(211.0) scale(1.16 0.58)" />
<g opacity="0.065">
<rect x="0" y="0" width="1" height="100" fill="black" />
<rect x="22" y="0" width="1" height="100" fill="black" />
<rect x="44" y="0" width="1" height="100" fill="black" />
<rect x="66" y="0" width="1" height="100" fill="black" />
<rect x="88" y="0" width="1" height="100" fill="black" />
<rect x="0" y="0" width="100" height="1" fill="black" />
<rect x="0" y="22" width="100" height="1" fill="black" />
<rect x="0" y="44" width="100" height="1" fill="black" />
<rect x="0" y="66" width="100" height="1" fill="black" />
<rect x="0" y="88" width="100" height="1" fill="black" />
</g>

</svg>
