<?xml version="1.0" encoding="UTF-8"?>
<svg xmlns="http://www.w3.org/2000/svg" width="100" height="100" viewBox="0 0 100 100">
<defs>
<linearGradient id="g0" x1="0%" y1="0%" x2="100%" y2="100%">
<stop offset="0.0%" stop-color="hsl(106, 75%, 59%)" />
<stop offset="33.3%" stop-color="hsl(183, 71%, 60%)" />
<stop offset="66.7%" stop-color="hsl(242, 72%, 49%)" />
<stop offset="100.0%" stop-color="hsl(322, 74%, 44%)" />
</linearGradient>
<linearGradient id="g1" x1="0%" y1="0%" x2="100%" y2="100%">
<stop offset="0.0%" stop-color="hsl(290, 83%, 63%)" />
<stop offset="33.3%" stop-color="hsl(2, 82%, 55%)" />
<stop offset="66.7%" stop-color="hsl(86, 72%, 68%)" />
<stop offset="100.0%" stop-color="hsl(83, 65%, 44%)" />
</linearGradient>
<linearGradient id="g2" x1="0%" y1="0%" x2="100%" y2="100%">
<stop offset="0.0%" stop-color="hsl(40, 53%, 69%)" />
<stop offset="33.3%" stop-color="hsl(104, 72%, 65%)" />
<stop offset="66.7%" stop-color="hsl(144, 86%, 72%)" />
<stop offset="100.0%" stop-color="hsl(151, 70%, 62%)" />
</linearGradient>
</defs>

<path d="M 94.4 32.1 C 80.9 22.6, 99.1 0.0, 90.1 3.8 C 98.0 14.4, 14.1 47.2, 24.0 40.9 C 25.2 27.8, 22.3 84.5, 29.0 89.6 C 48.2 100.0, 77.2 33.1, 76.7 36.1 C 93.3 34.0, 57.3 55.0, 56.7 55.3 C 50.0 44.7, 83.5 32.1, 77.8 28.3 C 94.9 9.2, 57.3 22.6, 53.1 21.3 " fill="none" fill-opacity="0.84" stroke="hsl(322, 74%, 44%)" stroke-width="0.81"  transform="translate(92.4 95.8) rotate(211.3) scale(1.11 0.92)" />
<circle cx="95.2" cy="25.7" r="1.1" fill="hsl(183, 71%, 60%)" fill-opacity="0.65"   />
<rect x="35.4" y="38.9" width="46.4" height="38.0" rx="6.7" fill="none" fill-opacity="0.36" stroke="hsl(40, 53%, 69%)" stroke-width="2.3"  transform="translate(63.0 99.7) rotate(354.2) scale(1.40 1.09)" />
<rect x="40.6" y="24.0" width="37.9" height="21.8" rx="0" fill="none" fill-opacity="0.40"   transform="translate(20.9 39.5) rotate(130.5) scale(1.56 1.45)" />
<path d="M 45.0 4.1 C 53.4 23.5, 79.5 72.3, 84.4 87.0 C 73.3 71.4, 18.0 82.1, 12.4 67.7 C 22.6 49.2, 23.3 58.3, 20.9 57.3 C 38.3 39.9, 0.0 15.4, 5.5 1.7 C 2.7 12.1, 97.0 25.5, 98.6 21.9 " fill="hsl(104, 72%, 65%)" fill-opacity="0.82" stroke="none" stroke-width="0.84"  transform="translate(94.0 84.1) rotate(250.1) scale(1.76 1.98)" />
<rect x="60.9" y="16.8" width="26.1" height="13.2" rx="0" fill="hsl(290, 83%, 63%)" fill-opacity="0.75"    />
<rect x="22.9" y="27.7" width="48.5" height="29.4" rx="0" fill="none" fill-opacity="0.86"    />
<circle cx="44.6" cy="71.3" r="1.4" fill="hsl(322, 74%, 44%)" fill-opacity="0.44"   />
<path d="M 21.5 72.4 C 38.4 85.4, 38.4 27.0, 35.9 32.1 C 44.4 23.9, 15.3 51.5, 26.6 51.0 C 9.9 60.8, 17.1 1.5, 19.0 11.8 C 24.0 28.2, 27.3 70.2, 38.1 62.0 C 49.0 57.3, 0.0 75.5, 9.7 86.1 " fill="none" fill-opacity="0.85" stroke="hsl(86, 72%, 68%)" stroke-width="1.19"   />
<rect x="59.3" y="4.8" width="39.9" height="12.0" rx="0" fill="none" fill-opacity="0.28" stroke="hsl(106, 75%, 59%)" stroke-width="3.7"  transform="translate(85.9 11.9) rotate(47.3) scale(1.68 1.85)" />
<path d="M 3.4 30.3 C 0.0 49.4, 2.6 28.6, 4.7 38.2 C 0.0 18.7, 60.3 100.0, 71.6 99.5 C 60.3 85.9, 48.5 100.0, 57.1 98.3 " fill="none" fill-opacity="0.31" stroke="hsl(183, 71%, 60%)" stroke-width="1.15"   />
<path d="M 84.1 95.2 C 91.9 100.0, 52.9 99.8, 56.4 93.9 C 63.0 91.7, 89.6 87.6, 87.3 77.6 C 94.7 84.1, 74.0 77.8, 87.9 77.4 C 90.6 65.6, 16.2 61.0, 15.3 63.4 C 19.3 73.8, 86.1 32.7, 79.0 45.6 C 92.8 54.9, 73.2 9.9, 80.7 3.7 " fill="hsl(290, 83%, 63%)" fill-opacity="0.76" stroke="none" stroke-width="1.10"  transform="translate(11.3 16.4) rotate(15.9) scale(1.54 1.99)" />
<rect x="42.6" y="68.1" width="22.6" height="25.7" rx="1.1" fill="none" fill-opacity="0.86" stroke="hsl(106, 75%, 59%)" stroke-width="4.2"  transform="translate(21.1 98.7) rotate(202.8) scale(1.13 0.64)" />
<circle cx="92.5" cy="57.0" r="0.3" fill="hsl(104, 72%, 65%)" fill-opacity="0.84"  transform="translate(53.0 62.6) rotate(340.1) scale(1.70 1.64)" />
<path d="M 1.4 96.5 C 10.3 98.0, 91.5 4.4, 79.9 6.9 C 97.7 25.3, 55.5 61.2, 54.7 72.2 C 73.7 73.8, 47.4 57.9, 33.9 71.6 C 39.9 74.1, 37.4 63.2, 45.1 74.3 C 40.4 77.4, 86.0 51.5, 88.7 57.0 C 99.8 54.4, 11.2 19.4, 10.7 24.3 C 0.0 6.1, 0.0 3.8, 0.3 2.6 " fill="none" fill-opacity="0.80" stroke="hsl(106, 75%, 59%)" stroke-width="1.24"  transform="translate(5.3 53.5) rotate(187.3) scale(1.29 1.20)" />
<path d="M 77.9 90.8 C 77.4 82.6, 4.2 48.1, 1.2 52.1 C 14.4 71.7, 76.0 97.9, 72.9 89.5 C 90.0 100.0, 21.4 25.6, 21.4 29.2 C 1.9 13.4, 25.5 0.0, 13.0 4.4 " fill="none" fill-opacity="0.58" stroke="hsl(290, 83%, 63%)" stroke-width="0.97"  transform="translate(95.2 7.3) rotate(85.4) scale(1.41 0.95)" />
<rect x="53.3" y="28.7" width="34.4" height="22.2" rx="0" fill="hsl(106, 75%, 59%)" fill-opacity="0.38" stroke="hsl(183, 71%, 60%)" stroke-width="2.5"   />
<circle cx="98.3" cy="54.4" r="0.5" fill="hsl(242, 72%, 49%)" fill-opacity="0.75"   />
</svg>
