<?xml version="1.0" encoding="UTF-8"?>
<svg xmlns="http://www.w3.org/2000/svg" width="100" height="100" viewBox="0 0 100 100">
<defs>
<linearGradient id="g0" x1="0%" y1="0%" x2="100%" y2="100%">
<stop offset="0.0%" stop-color="hsl(106, 75%, 59%)" />
<stop offset="33.3%" stop-color="hsl(183, 71%, 60%)" />
<stop offset="66.7%" stop-color="hsl(242, 72%, 49%)" />
<stop offset="100.0%" stop-color="hsl(322, 74%, 44%)" />
</linearGradient>
<linearGradient id="g1" x1="0%" y1="0%" x2="100%" y2="100%">
<stop offset="0.0%" stop-color="hsl(290, 83%, 63%)" />
<stop offset="33.3%" stop-color="hsl(2, 82%, 55%)" />
<stop offset="66.7%" stop-color="hsl(86, 72%, 68%)" />
<stop offset="100.0%" stop-color="hsl(83, 65%, 44%)" />
</linearGradient>
<linearGradient id="g2" x1="0%" y1="0%" x2="100%" y2="100%">
<stop offset="0.0%" stop-color="hsl(40, 53%, 69%)" />
<stop offset="33.3%" stop-color="hsl(104, 72%, 65%)" />
<stop offset="66.7%" stop-color="hsl(144, 86%, 72%)" />
<stop offset="100.0%" stop-color="hsl(151, 70%, 62%)" />
</linearGradient>
</defs>

<path d="M 8.6 23.1 C 8.6 10.8, 71.1 87.4, 65.6 95.8 C 81.0 100.0, 5.2 8.6, 0.7 16.0 C 8.5 15.4, 30.6 76.9, 27.2 75.8 C 18.0 77.1, 62.2 28.9, 66.7 35.9 C 78.6 51.4, 98.7 73.6, 86.7 78.5 C 69.2 79.5, 67.3 79.4, 56.7 75.4 C 48.7 59.6, 47.6 25.6, 59.2 34.9 Z" fill="hsl(104, 72%, 65%)" fill-opacity="0.81" stroke="none" stroke-width="1.09"   />
<path d="M 64.1 18.1 C 60.4 19.5, 47.3 98.8, 57.4 94.4 C 71.3 78.7, 64.1 28.8, 56.9 43.0 C 49.5 57.7, 86.1 81.0, 86.1 94.3 " fill="hsl(151, 70%, 62%)" fill-opacity="0.68" stroke="none" stroke-width="1.20"  transform="translate(81.4 20.7) rotate(21.5) scale(1.34 1.37)" />
<path d="M 27.7 59.8 C 45.1 79.7, 1.5 47.5, 7.0 59.7 C 16.4 66.7, 50.6 8.5, 58.9 22.7 C 49.5 37.8, 95.2 50.5, 82.6 51.8 " fill="hsl(151, 70%, 62%)" fill-opacity="0.36" stroke="none" stroke-width="0.91"  transform="translate(43.4 76.7) rotate(93.4) scale(1.76 0.71)" />
<path d="M 29.1 56.3 C 46.8 41.4, 15.6 50.0, 20.3 38.9 C 38.1 30.6, 15.5 100.0, 8.5 98.6 C 17.2 94.7, 40.9 27.2, 42.8 41.0 C 57.3 39.9, 4.7 54.2, 17.7 47.4 C 24.5 62.9, 4.3 6.9, 9.0 15.9 C 27.4 22.1, 8.3 48.5, 18.2 55.9 Z" fill="hsl(242, 72%, 49%)" fill-opacity="0.93" stroke="none" stroke-width="1.17"  transform="translate(17.2 10.4) rotate(280.8) scale(1.61 1.87)" />
<rect x="35.6" y="0.0" width="31.1" height="16.4" rx="18.6" fill="none" fill-opacity="0.77"   transform="translate(74.0 76.6) rotate(189.4) scale(1.78 1.55)" />
<rect x="13.3" y="3.8" width="22.0" height="15.7" rx="0" fill="hsl(104, 72%, 65%)" fill-opacity="0.35"   transform="translate(39.3 22.4) rotate(23.7) scale(1.19 1.54)" />
<path d="M 48.0 1.8 C 30.2 0.0, 6.2 73.2, 12.1 68.2 C 5.5 55.9, 77.6 1.7, 76.1 4.3 C 84.9 9.3, 79.7 0.0, 65.7 3.7 " fill="hsl(322, 74%, 44%)" fill-opacity="0.51" stroke="none" stroke-width="1.17"  transform="translate(85.3 80.8) rotate(80.7) scale(0.54 0.87)" />
<path d="M 34.9 16.8 C 24.8 10.3, 3.2 100.0, 15.1 96.7 C 16.2 100.0, 80.9 80.1, 89.1 81.1 C 100.0 62.1, 9.5 77.4, 10.3 70.2 " fill="hsl(86, 72%, 68%)" fill-opacity="0.73" stroke="none" stroke-width="0.86"  transform="translate(6.4 34.7) rotate(54.4) scale(1.62 1.59)" />
<rect x="3.3" y="65.7" width="32.0" height="26.9" rx="0" fill="none" fill-opacity="0.76" stroke="hsl(322, 74%, 44%)" stroke-width="5.0"  transform="translate(82.8 79.9) rotate(146.9) scale(0.95 0.93)" />
<rect x="57.6" y="30.9" width="39.6" height="32.2" rx="10.2" fill="none" fill-opacity="0.56"   transform="translate(76.9 7.6) rotate(286.7) scale(1.93 1.97)" />
<path d="M 20.0 68.8 C 4.5 67.8, 90.7 34.7, 78.9 49.3 C 95.7 52.4, 29.7 81.0, 44.0 89.4 C 55.8 100.0, 37.9 24.9, 43.1 34.9 C 61.4 29.9, 100.0 34.8, 93.7 26.5 C 76.8 12.5, 14.1 13.3, 16.1 7.8 C 22.1 26.0, 97.0 27.2, 87.5 34.1 C 78.0 36.5, 97.4 46.9, 85.5 41.0 " fill="hsl(151, 70%, 62%)" fill-opacity="0.99" stroke="none" stroke-width="0.94"  transform="translate(2.6 72.3) rotate(349.5) scale(1.62 1.95)" />
<path d="M 35.3 77.2 C 18.5 90.2, 39.3 80.0, 27.5 66.7 C 46.5 53.7, 8.6 37.3, 5.7 44.6 C 17.7 57.0, 97.7 82.7, 93.4 94.1 C 100.0 86.9, 45.1 100.0, 59.8 92.6 C 60.1 93.9, 85.9 49.9, 76.3 51.7 Z" fill="none" fill-opacity="0.27" stroke="hsl(40, 53%, 69%)" stroke-width="1.22"   />
<circle cx="12.5" cy="80.5" r="0.8" fill="hsl(151, 70%, 62%)" fill-opacity="0.59"   />
<path d="M 3.6 98.8 C 1.6 79.3, 32.1 58.6, 39.5 55.0 C 41.0 73.5, 0.0 14.5, 3.3 15.0 C 13.4 4.1, 47.3 81.9, 36.0 91.6 C 55.7 99.8, 25.7 28.2, 32.1 37.0 " fill="none" fill-opacity="0.89" stroke="hsl(151, 70%, 62%)" stroke-width="1.14"   />
<path d="M 91.9 17.8 C 96.5 0.0, 53.3 8.2, 47.6 11.8 C 57.2 0.0, 80.6 73.6, 94.6 87.4 C 76.7 98.4, 79.9 94.0, 81.4 80.5 C 84.9 95.6, 100.0 31.2, 96.6 22.7 C 100.0 11.9, 75.4 32.4, 80.6 38.3 " fill="hsl(322, 74%, 44%)" fill-opacity="0.70" stroke="none" stroke-width="1.08"  transform="translate(57.0 24.5) rotate(184.9) scale(1.67 1.22)" />
</svg>
