<?xml version="1.0" encoding="UTF-8"?>
<svg xmlns="http://www.w3.org/2000/svg" width="100" height="100" viewBox="0 0 100 100">
<defs>
<linearGradient id="g0" x1="0%" y1="0%" x2="100%" y2="100%">
<stop offset="0.0%" stop-color="hsl(106, 75%, 59%)" />
<stop offset="33.3%" stop-color="hsl(183, 71%, 60%)" />
<stop offset="66.7%" stop-color="hsl(242, 72%, 49%)" />
<stop offset="100.0%" stop-color="hsl(322, 74%, 44%)" />
</linearGradient>
<linearGradient id="g1" x1="0%" y1="0%" x2="100%" y2="100%">
<stop offset="0.0%" stop-color="hsl(290, 83%, 63%)" />
<stop offset="33.3%" stop-color="hsl(2, 82%, 55%)" />
<stop offset="66.7%" stop-color="hsl(86, 72%, 68%)" />
<stop offset="100.0%" stop-color="hsl(83, 65%, 44%)" />
</linearGradient>
<linearGradient id="g2" x1="0%" y1="0%" x2="100%" y2="100%">
<stop offset="0.0%" stop-color="hsl(40, 53%, 69%)" />
<stop offset="33.3%" stop-color="hsl(104, 72%, 65%)" />
<stop offset="66.7%" stop-color="hsl(144, 86%, 72%)" />
<stop offset="100.0%" stop-color="hsl(151, 70%, 62%)" />
</linearGradient>
</defs>

<path d="M 97.4 6.1 C 98.9 11.6, 95.7 33.9, 98.7 35.4 C 100.0 52.6, 30.7 51.2, 37.0 49.8 C 31.7 62.0, 51.7 40.0, 57.7 32.7 C 41.0 45.9, 72.1 89.0, 58.1 74.5 C 44.5 87.3, 54.8 27.7, 51.2 42.5 C 63.7 38.2, 68.1 16.8, 68.0 12.2 C 72.4 8.8, 21.3 71.5, 6.7 73.8 " fill="none" fill-opacity="0.64" stroke="hsl(2, 82%, 55%)" stroke-width="0.99"  transform="translate(51.3 21.6) rotate(38.8) scale(0.81 1.47)" />
<rect x="32.3" y="50.8" width="42.1" height="32.8" rx="0" fill="hsl(290, 83%, 63%)" fill-opacity="0.81" stroke="hsl(2, 82%, 55%)" stroke-width="1.1"  transform="translate(19.7 30.8) rotate(181.1) scale(0.95 1.21)" />
<path d="M 63.2 9.4 C 60.4 29.2, 14.0 58.2, 8.7 72.7 C 0.0 77.8, 62.9 0.0, 53.0 0.3 C 61.7 0.0, 28.7 56.3, 32.2 58.5 C 32.5 68.8, 86.1 42.0, 99.5 31.8 C 99.3 30.4, 51.3 87.5, 40.3 90.3 " fill="hsl(106, 75%, 59%)" fill-opacity="0.70" stroke="none" stroke-width="0.89"  transform="translate(10.1 7.2) rotate(346.9) scale(1.28 1.14)" />
<path d="M 59.6 17.8 C 56.2 16.9, 84.0 74.9, 75.4 67.1 C 75.7 47.7, 30.6 0.0, 25.3 7.6 C 20.1 5.1, 21.4 87.7, 25.9 85.8 " fill="hsl(86, 72%, 68%)" fill-opacity="0.51" stroke="none" stroke-width="0.92"   />
<path d="M 19.9 10.1 C 26.3 29.2, 90.2 48.7, 79.1 33.8 C 83.1 27.0, 13.0 62.9, 1.5 65.4 C 0.0 69.0, 48.1 59.9, 55.7 71.3 C 45.7 52.5, 0.0 46.5, 0.2 40.2 " fill="hsl(106, 75%, 59%)" fill-opacity="0.39" stroke="none" stroke-width="1.16"  transform="translate(0.1 42.1) rotate(49.2) scale(1.20 0.78)" />
<circle cx="94.4" cy="98.2" r="1.0" fill="hsl(151, 70%, 62%)" fill-opacity="0.48"  transform="translate(59.0 48.2) rotate(132.5) scale(1.62 1.88)" />
<rect x="18.7" y="26.9" width="28.5" height="34.9" rx="0" fill="hsl(40, 53%, 69%)" fill-opacity="0.41"   transform="translate(98.4 11.6) rotate(332.5) scale(0.84 0.80)" />
<rect x="29.0" y="41.1" width="35.0" height="32.2" rx="7.4" fill="hsl(86, 72%, 68%)" fill-opacity="0.59"   transform="translate(84.6 15.5) rotate(79.3) scale(1.25 0.86)" />
<path d="M 74.5 6.8 C 88.3 25.3, 28.6 6.3, 40.8 15.1 C 51.7 14.4, 77.1 81.3, 79.4 95.5 C 75.0 95.2, 7.5 4.5, 9.0 2.3 C 0.0 0.0, 63.9 76.5, 54.6 82.8 C 38.9 71.8, 56.2 81.2, 54.6 90.3 Z" fill="none" fill-opacity="0.75" stroke="hsl(144, 86%, 72%)" stroke-width="1.22"  transform="translate(18.6 6.4) rotate(139.4) scale(1.20 1.60)" />
<path d="M 98.5 18.6 C 100.0 5.6, 27.0 41.5, 23.7 45.3 C 35.5 65.1, 82.7 30.5, 69.2 34.6 C 61.7 47.3, 47.2 97.8, 42.8 94.6 C 23.8 78.3, 0.0 8.0, 8.0 6.0 C 26.3 10.2, 58.7 74.2, 65.7 68.8 C 65.4 76.0, 25.4 100.0, 21.7 90.6 Z" fill="none" fill-opacity="0.28" stroke="hsl(322, 74%, 44%)" stroke-width="0.98"  transform="translate(37.0 41.0) rotate(246.9) scale(1.89 1.83)" />
</svg>
