<?xml version="1.0" encoding="UTF-8"?>
<svg xmlns="http://www.w3.org/2000/svg" width="100" height="100" viewBox="0 0 100 100">
<defs>
<linearGradient id="g0" x1="0%" y1="0%" x2="100%" y2="100%">
<stop offset="0.0%" stop-color="hsl(106, 75%, 59%)" />
<stop offset="33.3%" stop-color="hsl(183, 71%, 60%)" />
<stop offset="66.7%" stop-color="hsl(242, 72%, 49%)" />
<stop offset="100.0%" stop-color="hsl(322, 74%, 44%)" />
</linearGradient>
<linearGradient id="g1" x1="0%" y1="0%" x2="100%" y2="100%">
<stop offset="0.0%" stop-color="hsl(290, 83%, 63%)" />
<stop offset="33.3%" stop-color="hsl(2, 82%, 55%)" />
<stop offset="66.7%" stop-color="hsl(86, 72%, 68%)" />
<stop offset="100.0%" stop-color="hsl(83, 65%, 44%)" />
</linearGradient>
<linearGradient id="g2" x1="0%" y1="0%" x2="100%" y2="100%">
<stop offset="0.0%" stop-color="hsl(40, 53%, 69%)" />
<stop offset="33.3%" stop-color="hsl(104, 72%, 65%)" />
<stop offset="66.7%" stop-color="hsl(144, 86%, 72%)" />
<stop offset="100.0%" stop-color="hsl(151, 70%, 62%)" />
</linearGradient>
</defs>

<path d="M 15.0 58.7 C 14.1 53.0, 47.2 1.4, 38.4 10.3 C 58.2 10.0, 72.9 43.5, 68.2 46.0 C 88.0 53.8, 12.8 70.3, 14.3 69.4 C 11.0 59.8, 0.3 83.5, 10.7 94.1 C 17.0 100.0, 47.9 62.8, 61.9 54.3 Z" fill="hsl(242, 72%, 49%)" fill-opacity="0.53" stroke="none" stroke-width="1.01"   />
<path d="M 86.0 78.7 C 89.2 80.4, 43.6 24.5, 33.8 17.7 C 20.1 22.4, 72.8 58.2, 79.1 46.5 C 65.4 35.6, 51.8 42.5, 61.9 54.7 " fill="none" fill-opacity="0.83" stroke="hsl(86, 72%, 68%)" stroke-width="1.08"   />
<path d="M 64.3 82.1 C 67.5 90.6, 48.7 70.5, 58.2 74.3 C 69.0 70.9, 72.2 0.0, 65.6 8.4 C 53.9 0.0, 56.3 98.9, 46.9 86.5 C 53.9 100.0, 11.4 0.0, 1.5 0.7 C 10.4 0.0, 50.2 79.2, 48.9 89.7 C 35.9 75.0, 22.5 86.0, 23.0 91.4 " fill="hsl(151, 70%, 62%)" fill-opacity="0.44" stroke="none" stroke-width="1.22"   />
<rect x="8.8" y="33.7" width="43.8" height="36.8" rx="0" fill="hsl(144, 86%, 72%)" fill-opacity="0.74" stroke="hsl(144, 86%, 72%)" stroke-width="3.1"  transform="translate(93.0 40.3) rotate(27.5) scale(1.97 1.04)" />
<path d="M 89.1 99.5 C 93.0 85.5, 42.3 1.9, 47.5 1.9 C 49.5 16.5, 71.7 33.6, 79.4 28.5 C 83.1 26.9, 58.7 100.0, 66.4 93.5 Z" fill="hsl(104, 72%, 65%)" fill-opacity="0.92" stroke="none" stroke-width="1.27"  transform="translate(65.3 4.9) rotate(332.4) scale(2.00 1.54)" />
<path d="M 14.3 6.6 C 0.0 0.0, 39.7 52.4, 35.8 47.2 C 55.6 65.4, 14.4 30.3, 10.7 34.4 C 28.5 27.4, 77.1 100.0, 89.7 96.6 C 70.0 81.8, 4.5 70.5, 17.6 75.3 C 20.6 84.5, 16.5 40.7, 9.6 51.5 C 27.3 40.4, 39.7 62.6, 27.5 49.6 C 18.5 51.0, 96.8 58.7, 99.9 50.4 " fill="none" fill-opacity="0.49" stroke="hsl(40, 53%, 69%)" stroke-width="0.88"  transform="translate(80.3 87.1) rotate(204.7) scale(0.84 1.73)" />
<path d="M 72.8 67.1 C 60.8 47.5, 33.2 100.0, 42.3 90.4 C 32.4 92.2, 25.1 45.5, 34.2 37.8 C 50.3 38.8, 56.1 4.2, 55.0 2.8 C 56.2 12.2, 66.3 93.4, 51.9 87.6 C 39.2 72.1, 16.3 6.5, 6.0 10.6 C 25.4 0.0, 35.5 69.5, 43.0 61.9 C 47.0 55.9, 72.0 9.1, 76.3 1.8 " fill="hsl(2, 82%, 55%)" fill-opacity="0.91" stroke="none" stroke-width="0.87"  transform="translate(26.5 94.9) rotate(229.3) scale(1.13 1.65)" />
<rect x="31.5" y="24.1" width="33.8" height="30.0" rx="0" fill="none" fill-opacity="0.74" stroke="hsl(242, 72%, 49%)" stroke-width="1.6"  transform="translate(85.4 52.0) rotate(8.9) scale(0.91 1.66)" />
<path d="M 67.4 48.8 C 71.4 68.0, 73.7 81.3, 64.9 84.4 C 47.3 77.5, 97.0 0.8, 88.2 14.2 C 72.5 0.0, 64.8 11.5, 65.4 15.2 C 69.3 18.7, 15.7 40.0, 14.4 40.7 Z" fill="none" fill-opacity="0.87" stroke="hsl(40, 53%, 69%)" stroke-width="1.28"   />
</svg>
