<?xml version="1.0" encoding="UTF-8"?>
<svg xmlns="http://www.w3.org/2000/svg" width="100" height="100" viewBox="0 0 100 100">
<defs>
<linearGradient id="g0" x1="0%" y1="0%" x2="100%" y2="100%">
<stop offset="0.0%" stop-color="hsl(106, 75%, 59%)" />
<stop offset="33.3%" stop-color="hsl(183, 71%, 60%)" />
<stop offset="66.7%" stop-color="hsl(242, 72%, 49%)" />
<stop offset="100.0%" stop-color="hsl(322, 74%, 44%)" />
</linearGradient>
<linearGradient id="g1" x1="0%" y1="0%" x2="100%" y2="100%">
<stop offset="0.0%" stop-color="hsl(290, 83%, 63%)" />
<stop offset="33.3%" stop-color="hsl(2, 82%, 55%)" />
<stop offset="66.7%" stop-color="hsl(86, 72%, 68%)" />
<stop offset="100.0%" stop-color="hsl(83, 65%, 44%)" />
</linearGradient>
<linearGradient id="g2" x1="0%" y1="0%" x2="100%" y2="100%">
<stop offset="0.0%" stop-color="hsl(40, 53%, 69%)" />
<stop offset="33.3%" stop-color="hsl(104, 72%, 65%)" />
<stop offset="66.7%" stop-color="hsl(144, 86%, 72%)" />
<stop offset="100.0%" stop-color="hsl(151, 70%, 62%)" />
</linearGradient>
<filter id="f1" x="-20%" y="-20%" width="140%" height="140%">
  <feGaussianBlur stdDeviation="2.013343652899113" />
</filter>

</defs>

<path d="M 90.3 40.5 C 98.6 38.5, 47.3 82.1, 57.9 92.9 C 49.7 100.0, 37.4 88.2, 41.8 86.2 C 42.8 100.0, 40.6 17.5, 26.4 31.5 C 29.5 33.9, 95.8 100.0, 94.4 94.6 C 80.4 100.0, 71.9 69.3, 69.7 61.9 C 79.6 51.6, 14.1 50.1, 1.0 46.5 C 14.2 37.9, 94.4 78.5, 93.1 88.9 Z" fill="hsl(151, 70%, 62%)" fill-opacity="0.95" stroke="none" stroke-width="3.96"  transform="translate(32.0 27.9) rotate(170.4) scale(1.46 1.66)" />
<path d="M 99.1 79.8 C 81.0 84.2, 46.4 52.3, 43.4 43.4 C 36.6 24.5, 94.3 57.3, 84.3 52.6 C 71.8 68.0, 84.2 69.0, 86.4 60.7 C 80.5 67.8, 0.0 73.6, 9.9 74.3 C 16.2 90.7, 40.8 51.9, 41.1 51.3 C 33.1 66.7, 17.4 82.8, 22.8 69.9 C 4.9 66.5, 24.3 78.4, 26.1 79.9 Z" fill="hsl(104, 72%, 65%)" fill-opacity="0.79" stroke="none" stroke-width="2.82"  transform="translate(72.8 12.1) rotate(50.5) scale(1.75 0.57)" />
<rect x="12.9" y="11.1" width="37.5" height="39.2" rx="0" fill="hsl(86, 72%, 68%)" fill-opacity="0.51"   transform="translate(0.2 46.8) rotate(152.1) scale(1.99 0.98)" />
<rect x="19.6" y="14.3" width="34.7" height="28.5" rx="0" fill="none" fill-opacity="0.95"   transform="translate(37.1 48.6) rotate(153.1) scale(1.31 1.81)" />
<rect x="52.8" y="16.5" width="44.5" height="32.8" rx="13.4" fill="none" fill-opacity="0.62" stroke="hsl(104, 72%, 65%)" stroke-width="1.8"  transform="translate(13.7 72.1) rotate(188.9) scale(0.91 1.10)" />
<path d="M 73.8 53.2 C 68.6 59.4, 48.2 28.4, 41.8 28.7 C 37.2 19.4, 38.5 21.1, 50.7 6.6 C 34.6 22.2, 70.6 9.3, 81.5 18.0 C 75.4 24.8, 32.1 22.2, 42.4 37.0 C 60.5 17.7, 48.5 61.5, 34.4 71.9 C 32.1 80.2, 40.5 45.8, 33.8 31.2 C 22.5 35.0, 95.2 18.3, 83.5 5.8 C 91.5 0.0, 16.3 53.1, 22.7 61.2 Z" fill="none" fill-opacity="0.65" stroke="hsl(40, 53%, 69%)" stroke-width="1.28"  transform="translate(7.1 1.4) rotate(84.2) scale(1.42 0.82)" />
<path d="M 30.6 95.8 C 48.8 87.5, 28.1 59.3, 34.3 73.5 C 53.7 71.3, 10.7 22.0, 6.2 28.5 C 0.0 16.9, 60.0 22.8, 63.3 23.2 C 72.4 30.1, 13.0 80.6, 20.5 71.9 C 9.8 83.7, 56.0 37.4, 51.4 44.5 C 67.0 64.3, 79.0 100.0, 69.4 94.9 Z" fill="hsl(83, 65%, 44%)" fill-opacity="0.90" stroke="none" stroke-width="3.39"  transform="translate(39.6 57.3) rotate(65.3) scale(1.36 1.89)" />
<rect x="69.0" y="76.9" width="29.7" height="12.4" rx="0" fill="none" fill-opacity="0.30"   transform="translate(87.3 36.1) rotate(3.5) scale(1.33 0.78)" />
<rect x="54.7" y="71.9" width="24.3" height="21.8" rx="18.0" fill="none" fill-opacity="0.36"  filter="url(#f1)"  />
<path d="M 0.1 38.5 C 0.6 43.7, 65.9 79.0, 56.7 90.7 C 62.4 98.7, 2.3 22.9, 13.9 37.8 C 26.7 27.4, 61.8 78.5, 72.3 63.7 C 80.1 75.1, 35.1 36.3, 21.9 28.1 C 10.3 17.7, 6.3 29.2, 3.3 31.4 C 19.1 20.5, 43.1 48.7, 48.2 52.8 C 52.2 72.5, 44.1 80.0, 33.7 76.6 C 21.3 59.6, 1.3 76.8, 11.7 80.2 C 1.1 75.7, 77.3 85.7, 78.0 73.6 C 66.7 67.8, 72.7 42.4, 85.7 31.6 Z" fill="hsl(104, 72%, 65%)" fill-opacity="0.79" stroke="none" stroke-width="2.81"  transform="translate(32.1 94.1) rotate(136.4) scale(1.52 0.93)" />
<path d="M 41.9 74.4 C 54.4 84.4, 14.6 40.9, 2.0 40.4 C 14.1 23.6, 98.5 63.7, 91.0 68.6 C 78.2 61.7, 62.9 46.2, 66.2 50.4 C 79.1 60.7, 100.0 63.2, 89.2 66.0 C 78.1 51.6, 10.9 18.1, 5.4 27.7 C 0.0 47.2, 7.7 61.0, 14.4 72.4 C 6.4 56.4, 56.3 92.3, 50.6 89.5 Z" fill="hsl(83, 65%, 44%)" fill-opacity="0.76" stroke="none" stroke-width="1.38"  transform="translate(40.3 47.6) rotate(53.3) scale(1.66 1.26)" />
<path d="M 61.7 61.2 C 49.2 48.2, 86.8 72.6, 80.6 62.6 C 93.4 76.9, 41.2 74.1, 48.2 79.2 C 62.6 59.9, 70.2 45.4, 84.5 40.7 C 75.3 33.9, 0.5 49.1, 11.2 48.4 C 10.4 35.2, 68.0 17.6, 60.5 18.3 C 49.7 15.7, 1.3 14.7, 6.4 18.0 C 0.0 19.9, 51.8 46.3, 50.4 53.1 Z" fill="none" fill-opacity="0.74" stroke="hsl(290, 83%, 63%)" stroke-width="4.52"  transform="translate(22.7 22.6) rotate(317.7) scale(0.60 1.68)" />
<rect x="52.7" y="19.4" width="44.2" height="33.1" rx="0" fill="hsl(106, 75%, 59%)" fill-opacity="0.39"    />
<circle cx="56.2" cy="54.4" r="13.1" fill="url(#g2)" fill-opacity="0.42"  transform="translate(22.7 64.0) rotate(47.8) scale(0.85 1.21)" />
<path d="M 84.6 45.2 C 85.3 59.2, 79.2 28.5, 83.9 34.0 C 95.1 24.4, 56.5 15.9, 55.9 5.8 C 61.5 15.1, 58.4 59.3, 65.4 73.7 C 68.3 84.3, 24.2 62.4, 15.0 56.3 C 6.0 75.7, 60.2 84.3, 52.5 89.9 C 51.3 100.0, 55.8 32.4, 65.8 31.0 C 82.8 15.7, 5.4 98.3, 12.6 92.9 C 6.8 93.3, 68.8 66.6, 58.5 70.3 C 78.0 87.4, 15.0 58.3, 14.6 49.9 Z" fill="none" fill-opacity="0.34" stroke="hsl(104, 72%, 65%)" stroke-width="2.59"   />
<path d="M 36.9 60.8 C 43.5 71.9, 100.0 26.5, 95.2 39.8 C 78.9 42.4, 0.0 90.7, 2.9 96.9 C 19.0 100.0, 0.0 54.1, 1.8 63.2 C 4.9 75.0, 54.3 42.3, 58.8 52.8 C 45.1 45.9, 41.4 52.4, 55.9 42.0 C 42.0 41.9, 16.5 34.7, 12.2 48.6 C 0.0 59.7, 9.6 52.6, 1.8 38.8 C 20.1 21.2, 14.0 92.5, 8.2 78.8 C 5.9 65.9, 42.0 62.4, 34.7 51.1 Z" fill="none" fill-opacity="0.60" stroke="hsl(290, 83%, 63%)" stroke-width="4.52"  transform="translate(14.6 11.5) rotate(22.8) scale(1.10 1.35)" />
<path d="M 63.4 95.4 C 73.6 100.0, 19.9 71.1, 34.4 60.4 C 21.6 54.5, 52.2 18.8, 39.7 17.1 C 40.5 0.0, 28.6 66.0, 32.6 79.1 C 22.4 59.9, 39.5 1.5, 25.8 12.4 C 12.4 4.1, 55.3 82.8, 58.3 74.3 C 78.2 73.7, 44.8 13.3, 31.3 1.8 C 38.4 2.2, 71.7 54.0, 63.4 52.6 C 73.9 39.3, 91.8 50.7, 87.3 65.2 C 91.3 75.8, 76.5 67.9, 79.2 56.5 C 74.0 58.9, 100.0 12.8, 90.0 11.8 Z" fill="hsl(290, 83%, 63%)" fill-opacity="0.31" stroke="none" stroke-width="4.39"  transform="translate(12.3 67.6) rotate(260.8) scale(1.72 1.37)" />
<path d="M 67.0 11.3 C 49.8 13.6, 94.1 0.0, 98.8 7.9 C 100.0 0.5, 53.3 71.2, 41.0 70.9 C 48.5 53.3, 0.0 18.5, 3.5 19.9 C 20.4 35.6, 13.0 28.3, 5.6 37.2 C 0.0 41.6, 44.0 29.6, 40.4 22.0 C 24.5 9.1, 100.0 44.0, 99.0 30.4 C 100.0 41.0, 10.8 89.3, 5.0 80.7 Z" fill="none" fill-opacity="0.44" stroke="hsl(86, 72%, 68%)" stroke-width="1.66"  transform="translate(62.7 99.9) rotate(269.8) scale(1.24 1.47)" />
<circle cx="79.6" cy="3.9" r="2.2" fill="hsl(104, 72%, 65%)" fill-opacity="0.91"  transform="translate(49.5 64.5) rotate(273.3) scale(0.75 0.99)" />
<circle cx="78.8" cy="55.3" r="6.2" fill="url(#g1)" fill-opacity="0.68" filter="url(#f1)" transform="translate(41.4 85.3) rotate(236.0) scale(0.80 0.87)" />
<circle cx="53.9" cy="81.6" r="4.4" fill="hsl(40, 53%, 69%)" fill-opacity="0.79"  transform="translate(59.6 95.5) rotate(92.0) scale(1.78 1.63)" />
<circle cx="93.4" cy="29.7" r="0.1" fill="url(#g0)" fill-opacity="0.88"  transform="translate(40.6 94.4) rotate(189.3) scale(1.86 1.38)" />
<rect x="48.1" y="2.3" width="27.2" height="25.8" rx="11.3" fill="none" fill-opacity="0.73"   transform="translate(11.0 29.4) rotate(351.5) scale(0.71 1.61)" />
<circle cx="11.0" cy="39.5" r="0.8" fill="hsl(183, 71%, 60%)" fill-opacity="0.79"  transform="translate(53.1 27.5) rotate(313.9) scale(0.50 0.62)" />
<circle cx="50.0" cy="19.5" r="2.8" fill="hsl(104, 72%, 65%)" fill-opacity="0.45"   />
<circle cx="37.1" cy="15.7" r="0.6" fill="hsl(183, 71%, 60%)" fill-opacity="0.58"  transform="translate(89.3 30.3) rotate(28.4) scale(1.22 1.01)" />
<rect x="71.3" y="58.7" width="23.0" height="23.2" rx="0" fill="hsl(104, 72%, 65%)" fill-opacity="0.27" stroke="hsl(144, 86%, 72%)" stroke-width="1.1"  transform="translate(16.1 52.2) rotate(173.0) scale(1.36 1.45)" />
<circle cx="93.0" cy="22.8" r="1.2" fill="url(#g0)" fill-opacity="0.43" filter="url(#f1)" transform="translate(59.4 80.1) rotate(353.2) scale(1.67 1.91)" />
<rect x="62.3" y="20.7" width="23.6" height="16.3" rx="0" fill="hsl(322, 74%, 44%)" fill-opacity="0.88"   transform="translate(55.8 66.2) rotate(332.0) scale(0.58 1.10)" />
<rect x="8.7" y="56.7" width="30.3" height="34.5" rx="0" fill="hsl(106, 75%, 59%)" fill-opacity="0.61"   transform="translate(90.1 92.2) rotate(11.6) scale(0.99 1.64)" />
<circle cx="33.9" cy="39.4" r="1.5" fill="hsl(83, 65%, 44%)" fill-opacity="0.92"  transform="translate(40.3 44.9) rotate(271.3) scale(1.56 0.81)" />
<path d="M 41.0 44.5 C 51.9 25.9, 48.1 33.1, 45.2 40.5 C 26.9 22.0, 9.6 21.8, 1.8 22.1 C 20.8 38.6, 44.9 0.0, 38.3 4.1 C 52.3 16.8, 71.0 27.3, 74.4 38.6 C 93.8 45.6, 55.7 100.0, 60.8 95.8 C 62.3 95.6, 93.2 58.3, 99.0 48.7 C 99.7 53.9, 77.6 15.1, 75.7 14.3 C 81.5 0.0, 70.5 88.3, 66.9 86.4 Z" fill="none" fill-opacity="0.62" stroke="hsl(104, 72%, 65%)" stroke-width="1.88"  transform="translate(93.1 40.8) rotate(250.9) scale(1.29 1.28)" />
<rect x="37.1" y="35.1" width="39.2" height="34.7" rx="0" fill="hsl(83, 65%, 44%)" fill-opacity="0.40" stroke="hsl(290, 83%, 63%)" stroke-width="2.1" filter="url(#f1)" transform="translate(58.5 90.4) rotate(238.4) scale(1.96 1.25)" />
<path d="M 60.5 34.3 C 58.8 42.7, 21.2 52.7, 31.3 54.6 C 48.5 43.7, 77.5 51.8, 82.3 41.6 C 74.7 24.4, 33.5 56.4, 39.6 69.2 C 27.1 78.9, 74.0 47.9, 76.8 46.1 C 86.9 45.2, 33.7 63.4, 23.7 55.7 C 18.2 50.6, 42.9 80.2, 33.2 66.5 C 21.9 64.2, 84.4 59.1, 95.4 60.9 C 77.4 59.6, 55.2 42.8, 44.3 56.4 Z" fill="none" fill-opacity="0.42" stroke="hsl(144, 86%, 72%)" stroke-width="5.15" filter="url(#f1)" transform="translate(17.7 99.1) rotate(77.1) scale(1.81 0.86)" />
<rect x="20.8" y="71.6" width="42.9" height="26.4" rx="1.2" fill="hsl(322, 74%, 44%)" fill-opacity="0.84"   transform="translate(20.5 100.0) rotate(241.9) scale(1.52 1.76)" />
<path d="M 53.1 73.8 C 64.1 74.0, 0.6 37.8, 15.1 43.9 C 17.2 24.0, 28.3 79.4, 37.3 70.4 C 50.0 86.0, 56.0 29.5, 44.6 26.0 C 56.4 13.2, 7.3 24.3, 1.5 11.3 C 0.0 4.0, 37.3 22.2, 46.3 10.1 C 40.2 14.6, 86.8 15.8, 79.0 11.2 C 66.8 17.4, 38.4 43.3, 44.9 46.4 " fill="hsl(86, 72%, 68%)" fill-opacity="0.41" stroke="none" stroke-width="3.51"  transform="translate(5.8 5.0) rotate(218.6) scale(0.76 1.65)" />
<path d="M 30.2 62.0 C 37.5 56.9, 52.8 60.7, 58.9 62.6 C 60.5 72.1, 6.3 64.1, 11.5 78.3 C 14.1 95.7, 0.0 18.0, 7.5 10.7 C 0.0 0.0, 51.8 17.3, 57.9 7.8 C 68.0 0.0, 39.6 1.1, 27.0 4.6 C 40.8 0.0, 57.4 19.9, 70.7 20.7 " fill="none" fill-opacity="0.94" stroke="hsl(144, 86%, 72%)" stroke-width="2.82"  transform="translate(95.3 57.4) rotate(21.6) scale(1.26 1.18)" />
<path d="M 1.7 73.7 C 0.0 82.0, 33.8 54.2, 42.8 57.3 C 50.5 50.8, 34.3 20.2, 26.3 25.1 C 38.8 24.6, 33.6 45.5, 33.1 51.5 C 44.0 54.0, 53.5 75.9, 59.7 63.7 C 51.3 46.2, 21.1 54.9, 34.2 64.4 C 28.1 77.3, 37.7 57.1, 33.5 68.3 C 33.6 73.0, 54.6 47.6, 45.7 42.3 C 31.9 34.0, 31.7 57.9, 43.8 63.2 C 63.5 78.5, 58.8 42.3, 58.3 54.8 Z" fill="hsl(151, 70%, 62%)" fill-opacity="0.70" stroke="none" stroke-width="2.10"  transform="translate(60.3 95.6) rotate(169.2) scale(1.55 0.65)" />
<circle cx="60.6" cy="3.2" r="7.7" fill="url(#g0)" fill-opacity="0.75"  transform="translate(94.1 89.9) rotate(248.8) scale(1.91 0.79)" />
<rect x="50.4" y="16.7" width="42.6" height="21.4" rx="17.3" fill="none" fill-opacity="0.63" stroke="hsl(242, 72%, 49%)" stroke-width="3.4"  transform="translate(98.9 50.0) rotate(170.5) scale(0.91 0.52)" />
<path d="M 93.9 86.0 C 100.0 87.1, 42.8 81.1, 54.8 88.2 C 61.9 86.8, 32.7 36.0, 24.9 46.6 C 16.2 51.4, 75.3 14.9, 78.5 14.9 C 75.8 7.4, 96.0 26.7, 96.5 39.6 C 77.9 38.1, 69.3 25.3, 66.5 29.0 C 67.3 15.3, 68.3 27.0, 64.0 40.9 Z" fill="hsl(40, 53%, 69%)" fill-opacity="0.63" stroke="none" stroke-width="4.31"  transform="translate(37.7 20.3) rotate(47.2) scale(0.56 1.17)" />
<path d="M 41.5 49.3 C 38.1 40.8, 63.1 71.0, 61.6 62.1 C 43.3 71.4, 65.1 71.9, 69.5 70.6 C 61.5 90.0, 56.7 83.8, 45.9 76.3 C 44.3 65.6, 33.0 29.6, 29.8 42.5 C 34.4 47.0, 94.7 0.5, 91.9 9.9 C 100.0 22.1, 77.6 75.3, 73.0 85.0 Z" fill="hsl(86, 72%, 68%)" fill-opacity="0.57" stroke="none" stroke-width="1.45"   />
<path d="M 77.1 88.5 C 59.8 68.8, 27.9 18.6, 17.1 24.9 C 3.9 35.6, 12.6 10.2, 12.3 6.0 C 22.4 0.0, 57.6 100.0, 58.9 94.6 C 53.0 84.8, 35.6 0.0, 42.6 9.3 C 53.3 2.0, 14.9 20.3, 4.3 8.5 C 0.0 0.0, 32.6 26.3, 25.4 19.6 Z" fill="none" fill-opacity="0.62" stroke="hsl(2, 82%, 55%)" stroke-width="3.96"  transform="translate(50.7 60.1) rotate(298.9) scale(1.75 0.81)" />
<path d="M 56.6 71.9 C 72.6 64.4, 27.5 48.2, 24.2 55.9 C 8.6 63.2, 97.9 0.0, 89.2 9.7 C 73.2 17.5, 33.2 17.3, 30.2 20.6 C 21.0 28.2, 68.3 29.7, 80.3 34.0 C 67.0 37.6, 20.4 36.7, 29.3 36.5 C 19.3 25.0, 77.3 18.7, 83.8 26.2 C 69.2 37.1, 55.5 74.4, 51.4 67.5 C 39.9 79.2, 64.9 0.0, 52.2 13.0 C 68.9 9.5, 57.7 92.6, 55.4 80.9 Z" fill="none" fill-opacity="0.57" stroke="hsl(151, 70%, 62%)" stroke-width="3.83"  transform="translate(50.7 66.8) rotate(174.9) scale(1.68 1.21)" />
<path d="M 44.4 69.1 C 42.4 66.1, 87.4 26.5, 92.3 37.7 C 83.5 29.6, 66.0 49.2, 78.2 40.7 C 93.1 22.0, 100.0 59.6, 90.7 49.0 C 83.9 59.8, 84.4 12.5, 85.6 19.1 C 98.2 18.9, 40.3 48.9, 45.6 55.4 C 31.8 71.3, 71.1 87.6, 74.3 84.1 C 90.3 74.3, 75.2 58.7, 70.7 59.5 C 51.2 76.5, 37.4 0.0, 37.1 7.9 C 38.4 2.2, 12.3 39.3, 22.6 25.0 Z" fill="none" fill-opacity="0.27" stroke="hsl(242, 72%, 49%)" stroke-width="3.12"  transform="translate(44.0 22.3) rotate(196.4) scale(1.11 0.79)" />
<path d="M 52.1 47.9 C 52.1 38.6, 56.6 0.0, 56.7 6.0 C 60.0 0.0, 40.9 40.2, 34.9 49.3 C 18.4 56.9, 56.0 5.1, 44.0 1.4 C 38.1 1.4, 31.0 80.9, 37.8 76.0 C 42.2 89.7, 9.3 70.2, 16.8 79.7 C 3.7 95.1, 3.0 80.1, 12.6 76.7 C 0.0 69.1, 0.0 50.6, 5.8 40.0 C 11.1 24.5, 39.3 20.6, 40.1 23.9 Z" fill="hsl(242, 72%, 49%)" fill-opacity="0.47" stroke="none" stroke-width="3.91"  transform="translate(94.1 74.6) rotate(286.0) scale(1.96 0.81)" />
<rect x="50.9" y="37.8" width="34.2" height="36.0" rx="19.9" fill="none" fill-opacity="0.95"   transform="translate(45.2 34.8) rotate(59.1) scale(0.55 0.55)" />
<path d="M 18.8 28.3 C 16.0 22.4, 85.6 2.8, 86.9 7.1 C 97.3 13.8, 80.0 37.8, 92.5 33.6 C 79.8 23.5, 48.4 60.1, 57.7 70.1 C 66.6 77.2, 67.1 54.8, 71.8 59.8 C 74.8 75.2, 47.1 0.0, 48.3 6.6 C 45.4 0.0, 77.6 81.4, 70.6 94.8 C 56.7 88.9, 35.1 54.1, 49.8 63.5 C 35.3 46.5, 51.4 49.4, 42.9 41.6 Z" fill="hsl(104, 72%, 65%)" fill-opacity="0.49" stroke="none" stroke-width="1.82"  transform="translate(41.9 5.6) rotate(240.1) scale(1.47 0.87)" />
<circle cx="39.5" cy="29.8" r="11.3" fill="hsl(151, 70%, 62%)" fill-opacity="0.73"  transform="translate(16.6 42.5) rotate(38.8) scale(1.79 1.99)" />
<path d="M 81.6 49.6 C 91.5 33.5, 61.9 36.8, 47.5 37.1 C 37.4 40.9, 47.8 48.2, 53.3 44.0 C 44.0 25.3, 12.1 83.0, 14.2 96.2 C 16.9 81.5, 63.7 87.4, 62.4 91.8 C 46.8 100.0, 34.8 40.0, 49.0 33.6 C 54.2 24.0, 38.8 39.1, 49.1 25.4 C 67.2 35.9, 57.2 0.4, 48.1 0.3 C 43.4 8.5, 64.9 0.0, 68.2 1.6 C 63.1 0.0, 25.4 48.2, 20.8 38.8 C 26.1 32.9, 39.9 59.4, 50.7 71.8 Z" fill="hsl(290, 83%, 63%)" fill-opacity="0.41" stroke="none" stroke-width="1.49"  transform="translate(93.3 55.1) rotate(151.8) scale(0.78 1.59)" />
<rect x="0.5" y="17.2" width="31.9" height="18.3" rx="0" fill="hsl(104, 72%, 65%)" fill-opacity="0.26"    />
<rect x="63.1" y="80.8" width="36.7" height="16.8" rx="0" fill="none" fill-opacity="0.63"   transform="translate(55.3 43.3) rotate(90.2) scale(1.34 0.97)" />
<path d="M 17.1 96.7 C 28.5 100.0, 51.0 100.0, 40.4 99.1 C 58.2 100.0, 36.2 22.5, 41.5 12.0 C 32.5 19.3, 80.9 7.8, 69.3 12.9 C 67.6 5.0, 22.9 100.0, 35.4 96.0 C 40.5 100.0, 68.4 14.3, 54.7 19.0 C 59.2 3.9, 17.5 9.6, 21.0 12.2 C 9.9 5.4, 76.5 11.9, 81.4 17.5 C 74.9 11.1, 91.5 82.9, 79.5 81.3 C 89.9 74.7, 80.8 37.8, 77.0 45.3 Z" fill="hsl(86, 72%, 68%)" fill-opacity="0.99" stroke="none" stroke-width="1.19"  transform="translate(47.4 27.2) rotate(265.0) scale(0.68 0.95)" />
<rect x="33.9" y="55.1" width="48.1" height="28.4" rx="0" fill="none" fill-opacity="0.73"  filter="url(#f1)" transform="translate(3.6 41.9) rotate(300.6) scale(0.71 0.51)" />
<circle cx="75.4" cy="37.5" r="10.0" fill="hsl(322, 74%, 44%)" fill-opacity="0.60"  transform="translate(94.9 86.3) rotate(68.4) scale(1.88 1.68)" />
<rect x="18.4" y="2.3" width="44.1" height="24.9" rx="0" fill="hsl(83, 65%, 44%)" fill-opacity="0.41"   transform="translate(19.8 70.2) rotate(1.4) scale(1.66 1.10)" />
<path d="M 97.3 58.7 C 100.0 72.1, 90.8 100.0, 86.8 94.1 C 67.9 74.5, 90.0 5.4, 94.3 8.4 C 86.7 0.0, 77.7 66.5, 68.4 76.1 C 82.0 95.8, 11.5 94.6, 17.6 81.6 C 9.7 62.9, 0.0 37.7, 5.6 49.5 C 0.0 36.3, 54.0 58.6, 48.5 62.4 Z" fill="none" fill-opacity="0.63" stroke="hsl(104, 72%, 65%)" stroke-width="2.38"  transform="translate(60.9 8.7) rotate(152.7) scale(0.59 1.23)" />
<rect x="13.2" y="45.1" width="25.7" height="13.0" rx="8.5" fill="hsl(290, 83%, 63%)" fill-opacity="0.97"   transform="translate(77.3 20.2) rotate(5.5) scale(1.54 0.90)" />
<path d="M 20.6 7.5 C 30.0 13.5, 60.4 25.3, 57.6 12.4 C 45.4 12.1, 76.3 27.1, 78.1 23.1 C 63.9 37.1, 25.1 86.0, 35.5 98.6 C 38.9 100.0, 45.6 100.0, 36.0 93.4 C 37.4 88.4, 7.5 35.0, 4.7 27.1 C 14.9 45.7, 96.2 77.1, 90.4 68.9 C 100.0 70.7, 65.1 18.2, 54.5 31.5 C 74.4 24.1, 5.0 28.2, 13.9 26.5 C 19.9 42.8, 76.2 18.7, 68.2 15.2 C 57.9 18.9, 15.4 63.6, 17.4 76.4 Z" fill="hsl(242, 72%, 49%)" fill-opacity="0.58" stroke="none" stroke-width="4.59"   />
<circle cx="5.2" cy="38.9" r="5.7" fill="hsl(151, 70%, 62%)" fill-opacity="0.55"  transform="translate(37.6 10.8) rotate(99.5) scale(1.75 0.55)" />
<path d="M 55.0 85.5 C 50.1 87.4, 18.8 59.5, 6.0 69.2 C 5.5 74.0, 50.0 0.0, 62.6 3.0 C 64.7 18.0, 23.9 43.2, 28.2 57.4 C 21.3 68.5, 8.5 28.1, 20.4 38.4 C 13.3 51.7, 29.2 100.0, 35.9 99.6 C 23.0 86.6, 81.4 46.5, 83.0 38.3 C 75.9 38.6, 48.6 20.3, 40.5 19.5 C 29.7 31.4, 26.4 11.6, 26.6 16.0 C 18.1 0.0, 34.3 45.8, 37.3 49.4 Z" fill="none" fill-opacity="0.91" stroke="hsl(104, 72%, 65%)" stroke-width="4.03"  transform="translate(87.7 21.4) rotate(13.2) scale(0.62 1.69)" />
<path d="M 18.9 38.8 C 24.6 35.3, 83.1 90.0, 71.1 89.5 C 81.9 94.3, 9.7 0.0, 17.7 0.4 C 6.1 1.7, 82.4 100.0, 69.4 97.2 C 60.4 86.9, 54.5 10.5, 57.8 23.3 C 63.8 14.7, 52.9 50.6, 39.6 55.6 C 51.5 49.7, 73.9 31.7, 61.7 43.7 C 53.9 41.7, 62.1 83.0, 72.5 70.7 C 77.8 70.3, 35.9 87.4, 32.6 96.1 Z" fill="hsl(104, 72%, 65%)" fill-opacity="0.77" stroke="none" stroke-width="2.19"  transform="translate(96.0 45.2) rotate(10.3) scale(0.56 0.80)" />
<rect x="26.7" y="59.0" width="48.7" height="32.6" rx="5.6" fill="none" fill-opacity="0.36" stroke="hsl(242, 72%, 49%)" stroke-width="2.4"  transform="translate(57.9 41.4) rotate(234.1) scale(1.41 1.56)" />
<path d="M 0.1 46.2 C 0.0 31.4, 70.4 0.6, 84.0 1.1 C 82.6 15.6, 100.0 74.6, 96.2 62.9 C 88.0 74.6, 28.4 84.6, 17.6 93.4 C 3.3 100.0, 92.5 100.0, 91.8 94.5 C 100.0 100.0, 60.8 88.2, 69.8 74.1 C 64.0 93.8, 0.0 70.6, 8.1 82.0 Z" fill="hsl(151, 70%, 62%)" fill-opacity="0.85" stroke="none" stroke-width="2.03"   />
<path d="M 35.8 72.2 C 53.8 73.2, 80.3 34.2, 81.4 30.8 C 94.6 29.2, 26.7 7.8, 26.4 21.9 C 43.9 9.3, 83.6 23.4, 98.6 8.6 C 85.9 0.0, 32.7 95.0, 25.3 81.2 C 19.9 78.1, 0.0 31.9, 1.2 39.8 C 0.0 40.0, 100.0 41.1, 91.8 31.2 C 81.3 47.1, 95.4 0.0, 97.6 6.6 C 100.0 0.0, 44.1 46.5, 31.0 58.4 C 39.2 61.1, 24.8 0.0, 23.3 0.8 Z" fill="hsl(40, 53%, 69%)" fill-opacity="0.59" stroke="none" stroke-width="5.15"   />
<rect x="69.0" y="58.4" width="22.4" height="24.6" rx="0" fill="none" fill-opacity="0.41"   transform="translate(46.7 21.1) rotate(22.4) scale(1.92 1.62)" />
<path d="M 26.9 63.3 C 19.4 70.6, 76.7 54.4, 69.4 40.1 C 79.7 20.3, 75.9 75.9, 86.7 63.8 C 92.5 79.8, 100.0 17.1, 94.1 6.6 C 99.8 23.2, 86.1 18.3, 75.9 26.1 C 82.0 24.3, 48.4 91.4, 34.3 83.4 C 34.6 98.7, 40.3 69.4, 53.1 82.9 C 71.0 74.1, 31.7 56.1, 26.1 51.1 C 43.8 59.4, 32.2 51.5, 34.8 48.4 Z" fill="none" fill-opacity="0.88" stroke="hsl(104, 72%, 65%)" stroke-width="3.24"  transform="translate(94.7 1.2) rotate(49.8) scale(1.73 1.15)" />
<path d="M 86.8 61.0 C 100.0 55.1, 46.4 100.0, 50.0 94.8 C 40.7 81.3, 32.0 8.7, 31.2 4.9 C 29.2 17.7, 82.6 51.9, 82.3 57.7 C 65.9 71.5, 84.6 52.6, 99.4 58.2 C 100.0 67.2, 49.6 10.1, 60.8 2.8 C 51.8 0.0, 0.0 73.8, 6.1 74.5 C 11.2 76.3, 42.9 16.3, 56.6 9.4 C 57.4 19.3, 37.1 23.9, 40.1 14.3 Z" fill="none" fill-opacity="0.53" stroke="hsl(83, 65%, 44%)" stroke-width="2.38"  transform="translate(49.6 92.5) rotate(151.4) scale(0.77 0.65)" />
<circle cx="94.9" cy="98.3" r="14.3" fill="url(#g0)" fill-opacity="0.52"  transform="translate(47.8 66.7) rotate(107.8) scale(1.58 2.00)" />
<path d="M 26.4 81.8 C 33.6 86.2, 75.7 4.3, 82.7 8.9 C 88.8 0.0, 74.4 8.9, 76.8 12.7 C 87.8 0.0, 31.1 29.7, 33.8 16.6 C 23.9 29.5, 68.5 23.7, 70.6 38.5 C 61.8 50.2, 86.1 54.4, 92.4 68.8 C 80.8 56.6, 22.9 22.7, 37.5 28.2 C 32.7 39.4, 0.0 79.8, 7.8 76.6 Z" fill="hsl(104, 72%, 65%)" fill-opacity="0.77" stroke="none" stroke-width="2.15" filter="url(#f1)" transform="translate(11.0 74.4) rotate(170.4) scale(0.74 1.42)" />
<rect x="49.9" y="23.5" width="38.0" height="15.2" rx="0" fill="none" fill-opacity="0.23"    />
<path d="M 60.5 58.1 C 57.8 41.3, 25.8 5.6, 35.0 18.6 C 47.0 0.0, 51.7 83.5, 63.1 95.9 C 49.5 100.0, 66.5 15.4, 81.2 0.8 C 100.0 9.4, 39.1 59.6, 42.5 56.7 C 41.3 57.0, 15.4 44.9, 5.2 42.1 C 0.0 45.4, 14.0 5.1, 0.7 11.1 C 0.0 20.4, 79.1 35.9, 87.3 42.1 C 67.9 38.7, 20.2 12.3, 25.4 6.6 C 6.2 10.8, 58.5 80.9, 70.5 71.6 Z" fill="none" fill-opacity="0.98" stroke="hsl(242, 72%, 49%)" stroke-width="1.59"   />
<rect x="38.2" y="42.2" width="47.5" height="17.6" rx="2.1" fill="none" fill-opacity="0.97"   transform="translate(41.1 51.5) rotate(72.9) scale(0.82 1.10)" />
<circle cx="31.9" cy="35.0" r="7.4" fill="url(#g0)" fill-opacity="0.85"  transform="translate(36.8 81.3) rotate(324.3) scale(1.25 0.72)" />
<path d="M 69.3 94.7 C 74.8 78.2, 86.0 61.6, 98.7 60.3 C 100.0 74.8, 78.2 26.4, 68.1 16.0 C 60.1 20.9, 66.5 52.5, 74.8 45.5 C 82.3 33.5, 37.7 17.6, 52.0 26.0 C 34.8 18.6, 30.8 19.0, 24.7 31.7 C 37.8 12.8, 98.4 88.1, 97.7 83.1 C 100.0 71.2, 72.6 44.5, 77.8 45.3 C 70.3 50.4, 14.1 98.4, 8.6 92.8 C 0.0 85.6, 40.8 85.8, 33.1 74.2 " fill="none" fill-opacity="0.28" stroke="hsl(290, 83%, 63%)" stroke-width="3.46"  transform="translate(11.1 14.8) rotate(117.5) scale(0.99 1.12)" />
<path d="M 62.5 45.6 C 65.7 62.9, 16.3 72.2, 13.0 66.6 C 0.0 59.3, 93.6 74.5, 80.1 78.9 C 84.3 62.6, 15.3 17.8, 5.3 19.9 C 0.0 0.7, 90.9 9.2, 81.3 10.9 C 97.1 5.0, 100.0 73.0, 87.9 80.8 C 89.8 83.4, 38.3 95.6, 39.9 99.5 C 54.3 98.5, 85.0 73.4, 79.6 68.5 C 79.4 60.1, 86.9 37.0, 99.4 40.1 Z" fill="none" fill-opacity="0.45" stroke="hsl(2, 82%, 55%)" stroke-width="4.79"   />
<path d="M 39.4 24.3 C 35.9 16.4, 67.9 53.2, 74.4 53.2 C 57.5 36.9, 25.5 78.0, 21.7 91.4 C 37.5 77.9, 13.5 14.6, 8.5 8.2 C 8.5 7.7, 1.5 37.0, 3.0 46.3 C 0.0 30.9, 53.4 4.8, 54.3 1.4 C 49.0 0.0, 44.7 89.8, 50.6 96.0 C 63.6 88.1, 58.1 57.3, 49.8 43.5 Z" fill="hsl(242, 72%, 49%)" fill-opacity="0.90" stroke="none" stroke-width="5.19"  transform="translate(45.5 15.9) rotate(358.4) scale(1.98 1.85)" />
<path d="M 14.5 54.5 C 0.9 66.5, 49.7 33.5, 49.5 48.3 C 65.6 49.3, 66.1 65.6, 77.7 58.4 C 75.0 40.6, 97.9 35.2, 96.7 43.6 C 100.0 55.1, 71.6 21.7, 73.1 27.2 C 81.3 39.2, 14.9 53.4, 8.5 40.4 C 0.0 26.1, 99.1 37.2, 85.3 27.2 C 100.0 44.6, 21.7 31.7, 15.2 31.2 " fill="hsl(104, 72%, 65%)" fill-opacity="0.43" stroke="none" stroke-width="1.07" filter="url(#f1)" transform="translate(9.9 15.5) rotate(32.0) scale(1.88 0.71)" />
<rect x="40.7" y="39.5" width="24.0" height="22.4" rx="12.0" fill="hsl(40, 53%, 69%)" fill-opacity="0.23" stroke="hsl(144, 86%, 72%)" stroke-width="4.0" filter="url(#f1)" transform="translate(78.6 37.1) rotate(174.7) scale(1.31 0.95)" />
<path d="M 90.0 56.5 C 98.2 75.0, 100.0 52.0, 89.3 38.9 C 96.3 24.4, 66.7 100.0, 80.2 86.9 C 83.8 74.4, 10.3 39.8, 2.0 35.5 C 18.1 41.0, 15.5 63.7, 11.0 75.7 C 21.9 71.8, 96.0 20.6, 87.9 14.7 C 74.0 0.0, 28.4 27.7, 14.2 31.4 C 10.6 45.0, 34.3 94.7, 30.3 93.7 C 46.9 100.0, 42.8 32.9, 29.3 26.9 Z" fill="hsl(106, 75%, 59%)" fill-opacity="0.95" stroke="none" stroke-width="3.17"   />
<path d="M 39.8 56.1 C 54.3 36.1, 72.5 87.3, 76.5 73.0 C 66.1 82.5, 99.2 3.8, 91.3 2.5 C 80.6 0.0, 73.0 1.7, 78.4 11.1 C 78.4 0.0, 67.2 100.0, 69.1 96.5 C 72.7 99.9, 56.0 68.5, 66.9 63.7 C 53.6 59.6, 31.4 18.9, 43.9 5.2 C 44.8 13.3, 90.7 16.2, 95.7 6.4 C 100.0 7.4, 4.1 70.6, 10.2 71.3 C 17.8 62.2, 70.3 40.9, 72.2 26.5 C 88.4 17.3, 37.2 37.6, 30.1 49.3 Z" fill="none" fill-opacity="0.42" stroke="hsl(144, 86%, 72%)" stroke-width="4.47"  transform="translate(91.9 96.6) rotate(191.9) scale(1.06 1.01)" />
<rect x="0.1" y="55.5" width="48.1" height="36.2" rx="0" fill="hsl(104, 72%, 65%)" fill-opacity="0.20"   transform="translate(55.3 43.9) rotate(40.5) scale(1.83 1.86)" />
<g opacity="0.040">
<rect x="0" y="0" width="1" height="100" fill="black" />
<rect x="22" y="0" width="1" height="100" fill="black" />
<rect x="44" y="0" width="1" height="100" fill="black" />
<rect x="66" y="0" width="1" height="100" fill="black" />
<rect x="88" y="0" width="1" height="100" fill="black" />
<rect x="0" y="0" width="100" height="1" fill="black" />
<rect x="0" y="22" width="100" height="1" fill="black" />
<rect x="0" y="44" width="100" height="1" fill="black" />
<rect x="0" y="66" width="100" height="1" fill="black" />
<rect x="0" y="88" width="100" height="1" fill="black" />
</g>

</svg>
