<?xml version="1.0" encoding="UTF-8"?>
<svg xmlns="http://www.w3.org/2000/svg" width="100" height="100" viewBox="0 0 100 100">
<defs>
<linearGradient id="g0" x1="0%" y1="0%" x2="100%" y2="100%">
<stop offset="0.0%" stop-color="hsl(106, 75%, 59%)" />
<stop offset="33.3%" stop-color="hsl(183, 71%, 60%)" />
<stop offset="66.7%" stop-color="hsl(242, 72%, 49%)" />
<stop offset="100.0%" stop-color="hsl(322, 74%, 44%)" />
</linearGradient>
<linearGradient id="g1" x1="0%" y1="0%" x2="100%" y2="100%">
<stop offset="0.0%" stop-color="hsl(290, 83%, 63%)" />
<stop offset="33.3%" stop-color="hsl(2, 82%, 55%)" />
<stop offset="66.7%" stop-color="hsl(86, 72%, 68%)" />
<stop offset="100.0%" stop-color="hsl(83, 65%, 44%)" />
</linearGradient>
<linearGradient id="g2" x1="0%" y1="0%" x2="100%" y2="100%">
<stop offset="0.0%" stop-color="hsl(40, 53%, 69%)" />
<stop offset="33.3%" stop-color="hsl(104, 72%, 65%)" />
<stop offset="66.7%" stop-color="hsl(144, 86%, 72%)" />
<stop offset="100.0%" stop-color="hsl(151, 70%, 62%)" />
</linearGradient>
<filter id="f1" x="-20%" y="-20%" width="140%" height="140%">
  <feGaussianBlur stdDeviation="1.0696138935469237" />
</filter>

</defs>

<path d="M 25.2 96.5 C 23.9 77.3, 22.7 49.0, 8.8 58.1 C 12.2 71.2, 87.9 14.3, 93.2 28.2 C 89.5 34.0, 75.8 23.9, 64.7 18.2 C 64.3 24.1, 79.4 1.0, 83.6 11.7 C 86.7 0.0, 91.5 1.3, 81.6 12.2 C 61.9 27.9, 90.9 4.6, 78.5 3.9 Z" fill="hsl(183, 71%, 60%)" fill-opacity="0.81" stroke="none" stroke-width="1.27"  transform="translate(20.5 18.3) rotate(250.2) scale(0.79 1.12)" />
<path d="M 16.7 4.3 C 2.2 0.0, 0.0 83.3, 2.5 82.0 C 0.0 73.9, 21.2 70.5, 33.2 67.2 C 47.5 68.5, 76.6 92.6, 90.3 86.5 C 92.0 91.6, 17.9 31.4, 10.7 34.5 C 19.5 27.1, 53.1 52.1, 41.8 42.8 C 50.0 29.0, 0.7 55.9, 12.9 67.2 Z" fill="hsl(242, 72%, 49%)" fill-opacity="0.41" stroke="none" stroke-width="1.71"  transform="translate(68.8 35.5) rotate(220.3) scale(1.68 1.61)" />
<circle cx="54.1" cy="38.8" r="6.3" fill="hsl(242, 72%, 49%)" fill-opacity="0.97"  transform="translate(81.5 55.5) rotate(65.4) scale(1.60 1.38)" />
<path d="M 62.1 49.1 C 60.9 32.2, 34.6 78.5, 23.9 86.4 C 33.1 72.4, 27.2 40.6, 33.0 48.0 C 41.1 43.8, 55.9 8.5, 45.9 12.9 C 48.6 0.0, 74.6 14.8, 86.4 2.5 C 86.6 0.0, 14.1 48.1, 23.3 38.1 C 40.8 39.6, 34.9 3.0, 31.5 3.4 C 42.0 22.6, 82.9 19.0, 86.3 23.5 C 73.3 43.3, 54.4 2.3, 43.8 6.2 C 28.3 0.0, 82.6 42.5, 70.3 34.7 C 80.3 35.9, 1.2 46.4, 5.6 54.4 Z" fill="hsl(2, 82%, 55%)" fill-opacity="0.47" stroke="none" stroke-width="0.87"  transform="translate(43.6 99.0) rotate(256.4) scale(1.74 1.34)" />
<path d="M 20.8 67.4 C 14.3 52.2, 35.2 70.6, 49.3 81.2 C 32.9 88.9, 0.2 71.2, 12.0 67.0 C 0.0 57.5, 55.2 67.8, 67.1 58.7 C 58.9 67.8, 40.0 23.9, 51.2 25.5 C 52.8 30.0, 66.5 42.8, 64.2 32.1 C 73.2 24.5, 82.7 33.0, 93.0 45.3 C 73.1 46.8, 77.1 23.6, 89.9 25.1 C 100.0 22.3, 48.4 0.0, 55.0 1.6 C 70.9 0.0, 27.9 65.9, 38.3 51.9 C 50.9 48.7, 50.5 25.0, 39.1 14.7 Z" fill="hsl(183, 71%, 60%)" fill-opacity="0.34" stroke="none" stroke-width="2.96"  transform="translate(88.7 29.3) rotate(148.0) scale(1.85 0.65)" />
<path d="M 67.2 54.4 C 78.0 39.1, 18.0 22.0, 8.5 14.4 C 27.4 6.8, 55.5 30.0, 63.6 19.0 C 71.8 33.6, 83.2 62.0, 88.2 48.2 C 86.9 50.9, 68.2 8.6, 64.5 0.3 C 49.3 4.0, 25.8 24.0, 19.3 11.2 C 9.0 8.0, 89.0 67.3, 85.0 54.3 C 91.5 52.3, 77.1 60.6, 89.9 54.8 C 88.8 66.5, 40.0 74.5, 42.6 62.6 C 50.8 51.6, 0.0 34.2, 2.6 21.9 " fill="none" fill-opacity="0.35" stroke="hsl(322, 74%, 44%)" stroke-width="4.88" filter="url(#f1)" transform="translate(5.2 31.0) rotate(192.2) scale(0.83 0.50)" />
<path d="M 37.8 94.4 C 57.0 100.0, 66.6 33.2, 54.2 30.3 C 42.2 33.1, 99.6 96.6, 94.3 98.2 C 100.0 78.5, 26.3 61.6, 14.7 65.2 C 5.5 68.0, 11.9 58.3, 12.5 70.0 C 18.8 86.7, 56.8 62.0, 68.4 59.6 C 81.6 49.0, 27.4 90.8, 36.9 78.0 C 55.1 60.2, 79.7 75.1, 87.8 80.6 C 90.0 100.0, 31.5 48.7, 17.3 45.0 C 24.8 55.6, 100.0 54.4, 91.6 49.3 Z" fill="hsl(86, 72%, 68%)" fill-opacity="0.97" stroke="none" stroke-width="4.70"  transform="translate(3.8 77.8) rotate(105.9) scale(0.59 1.62)" />
<rect x="29.1" y="67.9" width="39.2" height="10.6" rx="1.5" fill="none" fill-opacity="0.28"  filter="url(#f1)" transform="translate(91.8 97.1) rotate(247.0) scale(1.70 1.71)" />
<path d="M 29.9 30.2 C 23.7 38.8, 9.2 15.6, 18.3 26.6 C 38.0 21.7, 17.5 40.6, 31.9 53.5 C 47.5 48.1, 0.0 0.0, 2.1 6.4 C 0.0 0.0, 86.2 35.8, 76.9 22.4 C 89.5 2.6, 3.9 55.3, 13.1 66.7 C 18.7 63.6, 51.7 16.1, 49.8 7.1 C 65.9 6.7, 44.7 5.1, 31.0 17.7 C 28.4 5.1, 71.2 63.2, 85.6 74.8 C 100.0 72.3, 43.0 100.0, 49.3 97.9 Z" fill="hsl(242, 72%, 49%)" fill-opacity="0.63" stroke="none" stroke-width="1.36" filter="url(#f1)"  />
<path d="M 68.7 49.0 C 60.1 39.0, 83.4 45.8, 91.0 59.6 C 71.5 60.3, 74.8 86.8, 69.3 75.6 C 86.7 90.2, 42.9 82.3, 33.7 81.1 C 37.9 95.2, 39.0 3.2, 37.9 8.5 C 26.3 11.7, 27.6 91.6, 33.8 84.7 C 20.1 82.3, 46.1 99.7, 45.7 91.5 C 36.4 97.2, 43.0 100.0, 42.4 95.7 C 30.5 77.4, 64.6 76.8, 64.5 90.1 C 70.4 84.3, 13.8 67.7, 4.7 54.7 Z" fill="hsl(40, 53%, 69%)" fill-opacity="0.80" stroke="none" stroke-width="3.37"  transform="translate(98.1 88.8) rotate(143.0) scale(1.17 1.72)" />
<rect x="47.1" y="24.0" width="23.2" height="18.1" rx="4.4" fill="hsl(322, 74%, 44%)" fill-opacity="0.82" stroke="hsl(183, 71%, 60%)" stroke-width="1.8"   />
<path d="M 13.5 3.7 C 19.2 0.0, 89.2 3.8, 90.1 5.8 C 100.0 0.0, 8.3 53.4, 8.4 51.7 C 18.7 62.0, 65.7 10.3, 61.0 15.3 C 42.4 29.8, 78.5 17.4, 66.4 23.9 C 79.4 33.8, 15.8 72.3, 20.0 66.6 C 13.7 64.3, 70.1 65.7, 57.8 77.4 C 74.0 93.6, 100.0 96.3, 87.8 83.7 C 71.7 100.0, 75.9 79.1, 81.5 73.5 Z" fill="hsl(144, 86%, 72%)" fill-opacity="0.50" stroke="none" stroke-width="5.17"  transform="translate(3.9 6.0) rotate(264.7) scale(0.80 1.03)" />
<circle cx="77.6" cy="82.6" r="19.1" fill="hsl(2, 82%, 55%)" fill-opacity="0.47" filter="url(#f1)" transform="translate(48.3 60.5) rotate(254.4) scale(1.45 1.75)" />
<path d="M 31.2 43.7 C 41.1 33.6, 67.3 98.0, 62.9 89.6 C 72.7 76.6, 100.0 36.5, 90.8 38.5 C 87.5 43.9, 4.1 84.9, 13.7 99.7 C 12.0 83.1, 28.9 61.0, 32.4 51.5 C 40.1 47.6, 100.0 25.3, 97.6 10.4 C 100.0 12.6, 7.1 90.6, 1.7 75.7 C 0.0 59.9, 58.1 28.4, 58.8 40.0 C 68.3 28.9, 61.2 100.0, 58.8 95.2 C 61.2 80.8, 56.3 84.5, 58.9 93.5 C 42.7 95.7, 53.4 30.3, 45.1 33.1 Z" fill="hsl(290, 83%, 63%)" fill-opacity="0.84" stroke="none" stroke-width="3.34"  transform="translate(77.9 55.1) rotate(272.0) scale(0.90 0.55)" />
<circle cx="96.6" cy="88.6" r="8.8" fill="url(#g0)" fill-opacity="0.67"  transform="translate(66.7 24.2) rotate(92.9) scale(0.79 0.68)" />
<path d="M 64.2 55.6 C 51.5 69.6, 30.9 0.0, 38.0 0.8 C 37.5 8.7, 82.1 77.9, 77.8 79.9 C 78.1 75.0, 37.2 100.0, 47.9 98.3 C 63.7 100.0, 83.2 4.1, 95.2 7.9 C 80.4 6.4, 43.3 17.2, 34.2 21.0 C 41.9 4.3, 88.8 40.1, 89.2 27.4 Z" fill="none" fill-opacity="0.84" stroke="hsl(40, 53%, 69%)" stroke-width="3.27" filter="url(#f1)" transform="translate(40.3 62.4) rotate(262.0) scale(1.07 1.88)" />
<path d="M 84.3 43.1 C 70.3 30.3, 15.4 90.1, 29.5 89.5 C 30.5 89.5, 69.5 82.0, 55.0 73.5 C 70.3 66.9, 78.3 97.4, 86.3 92.2 C 97.5 99.6, 96.3 38.1, 95.2 33.6 C 100.0 36.9, 89.6 61.4, 87.8 74.9 C 76.2 59.1, 2.0 52.8, 5.9 57.6 C 0.4 65.0, 73.4 44.1, 59.9 54.8 C 76.9 66.3, 34.0 94.8, 40.2 85.7 Z" fill="none" fill-opacity="0.38" stroke="hsl(183, 71%, 60%)" stroke-width="4.71"  transform="translate(94.8 63.8) rotate(169.0) scale(1.87 1.88)" />
<rect x="21.5" y="8.8" width="40.0" height="32.4" rx="17.8" fill="hsl(83, 65%, 44%)" fill-opacity="0.96" stroke="hsl(2, 82%, 55%)" stroke-width="2.2"  transform="translate(96.3 5.3) rotate(335.0) scale(1.31 0.70)" />
<circle cx="65.3" cy="33.6" r="13.1" fill="hsl(151, 70%, 62%)" fill-opacity="0.41"  transform="translate(66.6 36.6) rotate(179.6) scale(0.70 1.28)" />
<rect x="46.2" y="55.9" width="43.8" height="12.1" rx="9.1" fill="none" fill-opacity="0.66" stroke="hsl(290, 83%, 63%)" stroke-width="1.2"  transform="translate(76.5 53.8) rotate(135.6) scale(1.12 1.66)" />
<path d="M 27.1 87.0 C 34.6 96.9, 62.1 31.4, 52.1 22.5 C 35.0 8.2, 26.9 7.7, 23.6 0.0 C 22.7 13.9, 16.0 63.7, 3.5 62.1 C 0.0 69.8, 11.6 27.0, 16.6 36.0 C 1.4 19.8, 69.4 49.6, 76.4 35.6 C 88.6 44.9, 73.8 34.2, 60.9 19.9 C 65.0 22.3, 19.1 73.3, 8.3 69.5 Z" fill="none" fill-opacity="0.54" stroke="hsl(322, 74%, 44%)" stroke-width="5.11"  transform="translate(64.5 30.3) rotate(72.3) scale(1.29 1.08)" />
<path d="M 51.7 23.7 C 41.8 9.0, 28.9 93.9, 23.9 92.7 C 29.6 88.5, 33.7 9.4, 20.9 10.2 C 31.6 0.0, 50.8 42.6, 63.8 56.1 C 50.4 42.7, 63.3 54.5, 63.7 49.1 C 60.0 33.3, 62.0 90.6, 47.2 92.3 C 38.7 73.3, 60.8 73.5, 47.3 61.9 C 36.1 70.5, 90.4 46.6, 85.9 41.9 Z" fill="hsl(40, 53%, 69%)" fill-opacity="0.76" stroke="none" stroke-width="4.82"  transform="translate(17.9 64.4) rotate(153.5) scale(1.71 0.93)" />
<path d="M 94.4 50.8 C 94.1 44.3, 68.0 59.1, 81.6 53.2 C 100.0 57.6, 37.5 47.9, 39.7 38.2 C 52.3 31.8, 75.9 36.8, 77.2 47.0 C 86.8 65.4, 59.9 75.5, 56.9 71.8 C 42.5 62.3, 43.6 57.5, 51.2 69.3 C 56.2 58.6, 75.9 42.4, 74.4 37.7 C 57.4 41.7, 59.5 11.0, 47.6 21.5 C 52.9 24.5, 11.3 4.6, 22.2 18.9 C 22.5 22.0, 17.7 60.5, 7.0 56.2 C 1.5 60.3, 61.7 43.8, 67.4 52.3 Z" fill="hsl(151, 70%, 62%)" fill-opacity="0.70" stroke="none" stroke-width="1.31"  transform="translate(28.8 24.9) rotate(160.0) scale(1.98 0.69)" />
<path d="M 37.1 17.6 C 22.1 22.1, 59.3 95.0, 51.1 90.7 C 70.8 74.7, 62.5 73.0, 53.0 86.9 C 35.3 100.0, 32.7 37.2, 20.8 32.8 C 22.4 29.6, 12.6 21.0, 16.7 10.0 C 20.9 0.0, 55.6 37.9, 43.3 28.7 C 53.2 44.2, 100.0 0.7, 90.8 0.4 C 88.3 0.0, 40.3 17.3, 52.5 3.4 C 34.1 0.0, 95.1 34.3, 90.4 29.5 C 100.0 16.7, 63.0 75.3, 57.5 80.9 C 58.9 100.0, 51.7 0.0, 49.3 1.8 Z" fill="hsl(40, 53%, 69%)" fill-opacity="0.73" stroke="none" stroke-width="4.87"  transform="translate(96.2 63.3) rotate(203.7) scale(1.45 1.57)" />
<path d="M 98.9 22.9 C 100.0 18.8, 85.8 63.9, 84.9 75.9 C 100.0 93.4, 61.4 82.6, 65.3 89.1 C 61.0 100.0, 48.9 34.9, 50.9 46.0 C 65.4 30.7, 50.8 51.0, 41.7 50.5 C 35.4 59.7, 39.9 87.8, 26.3 77.6 C 29.8 79.2, 1.4 27.9, 4.2 41.6 C 4.9 24.6, 32.8 40.4, 44.8 34.9 Z" fill="hsl(183, 71%, 60%)" fill-opacity="0.34" stroke="none" stroke-width="0.93"  transform="translate(2.7 99.1) rotate(56.5) scale(1.49 0.87)" />
<path d="M 93.0 26.5 C 100.0 21.1, 47.0 48.6, 33.9 57.0 C 35.0 46.3, 85.9 10.3, 98.9 2.0 C 84.3 5.1, 67.6 15.1, 59.3 9.7 C 46.4 29.2, 0.0 55.1, 7.7 46.2 C 0.0 64.3, 41.3 16.0, 42.2 5.4 C 45.8 4.9, 17.7 4.1, 22.7 4.4 Z" fill="hsl(144, 86%, 72%)" fill-opacity="0.83" stroke="none" stroke-width="5.17" filter="url(#f1)" transform="translate(99.1 67.0) rotate(22.6) scale(1.02 1.14)" />
<path d="M 64.8 88.9 C 79.0 69.9, 28.6 69.4, 43.5 82.2 C 40.4 88.7, 55.1 26.8, 60.8 26.3 C 66.9 23.0, 84.7 6.4, 79.7 18.0 C 81.5 15.0, 75.7 22.7, 86.5 8.4 C 85.3 28.3, 39.7 27.4, 28.2 17.9 C 33.6 6.2, 34.5 75.6, 45.9 63.3 C 62.8 81.9, 43.2 14.1, 33.0 17.5 C 22.0 19.2, 78.1 15.4, 89.3 3.6 C 79.5 23.0, 78.8 29.1, 89.1 31.2 C 93.3 31.4, 30.3 39.1, 16.7 26.0 Z" fill="hsl(104, 72%, 65%)" fill-opacity="0.60" stroke="none" stroke-width="4.53"  transform="translate(55.3 96.6) rotate(92.4) scale(0.78 1.65)" />
<path d="M 21.9 27.1 C 36.5 17.2, 32.7 79.5, 34.7 91.7 C 35.6 100.0, 45.3 27.4, 34.4 39.8 C 39.4 33.3, 32.0 93.0, 30.6 90.0 C 28.9 91.3, 31.9 2.5, 28.3 2.3 C 35.4 20.5, 0.0 71.9, 11.0 77.3 C 17.2 77.8, 28.7 27.0, 40.6 40.0 C 56.0 48.0, 4.3 82.9, 8.5 93.9 C 16.1 94.4, 28.9 64.3, 14.3 74.8 C 32.1 82.7, 14.9 100.0, 21.6 91.6 C 40.3 85.8, 74.1 32.4, 85.3 37.0 " fill="none" fill-opacity="0.50" stroke="hsl(2, 82%, 55%)" stroke-width="5.24"   />
<circle cx="80.5" cy="13.3" r="18.2" fill="hsl(183, 71%, 60%)" fill-opacity="0.96"  transform="translate(82.5 50.9) rotate(59.7) scale(1.04 0.91)" />
<rect x="24.8" y="28.7" width="20.3" height="14.4" rx="0.6" fill="none" fill-opacity="0.77"    />
<path d="M 69.6 86.4 C 76.6 99.9, 25.8 42.1, 38.8 34.3 C 57.0 25.8, 69.5 14.7, 60.3 28.0 C 63.3 43.6, 36.4 35.0, 45.0 37.3 C 39.4 48.7, 35.6 81.4, 49.9 68.8 C 42.0 53.4, 41.1 55.1, 34.1 47.9 C 37.8 52.3, 38.4 84.3, 50.7 75.3 C 49.7 55.8, 42.4 20.7, 34.3 19.0 C 15.1 27.0, 95.2 99.2, 88.9 85.3 C 87.9 100.0, 40.3 1.2, 29.5 13.3 Z" fill="hsl(322, 74%, 44%)" fill-opacity="0.98" stroke="none" stroke-width="4.39"  transform="translate(43.2 98.5) rotate(182.2) scale(1.03 1.47)" />
<rect x="45.4" y="56.9" width="43.9" height="24.7" rx="16.7" fill="none" fill-opacity="0.37"   transform="translate(32.5 67.2) rotate(14.3) scale(1.16 0.92)" />
<path d="M 4.4 91.0 C 0.0 79.0, 11.2 34.4, 11.4 19.8 C 17.0 11.2, 76.7 78.9, 71.2 87.4 C 69.0 67.5, 60.3 28.2, 51.0 38.3 C 45.7 20.5, 66.9 40.6, 70.4 43.8 C 55.7 24.3, 68.8 1.5, 55.7 13.3 C 69.3 20.9, 28.1 9.4, 41.8 23.8 Z" fill="none" fill-opacity="0.41" stroke="hsl(144, 86%, 72%)" stroke-width="2.32"  transform="translate(84.1 37.5) rotate(27.9) scale(0.86 0.57)" />
<path d="M 79.5 3.6 C 62.0 15.4, 63.6 6.9, 58.9 17.1 C 53.3 29.3, 62.9 95.1, 54.3 89.9 C 40.6 79.5, 24.1 10.8, 9.6 4.2 C 27.1 17.0, 0.0 16.4, 3.6 2.8 C 0.0 0.0, 71.0 52.1, 62.2 58.3 C 62.0 61.1, 41.5 62.1, 46.1 75.2 C 49.7 61.9, 50.8 33.8, 56.0 32.4 C 48.0 25.1, 82.7 47.1, 74.1 45.3 C 83.4 54.4, 28.2 62.4, 33.8 59.8 C 35.9 57.6, 24.9 28.7, 30.8 36.3 Z" fill="none" fill-opacity="0.96" stroke="hsl(290, 83%, 63%)" stroke-width="4.88"  transform="translate(26.3 73.9) rotate(257.4) scale(1.39 0.73)" />
<path d="M 54.0 3.0 C 50.0 20.9, 66.9 18.4, 61.4 13.0 C 59.7 19.9, 25.4 3.6, 31.1 0.9 C 21.0 12.7, 36.3 63.6, 32.8 64.3 C 21.0 47.2, 36.4 30.5, 38.1 39.0 C 55.7 22.8, 76.2 0.0, 77.2 0.2 C 83.7 20.1, 25.0 2.2, 22.6 5.5 C 42.3 11.7, 71.9 15.2, 74.0 8.7 C 84.6 10.4, 77.0 59.2, 66.0 56.2 Z" fill="hsl(40, 53%, 69%)" fill-opacity="0.65" stroke="none" stroke-width="1.80" filter="url(#f1)" transform="translate(19.8 29.1) rotate(256.0) scale(1.63 1.08)" />
<rect x="38.2" y="66.7" width="48.6" height="27.0" rx="15.8" fill="hsl(106, 75%, 59%)" fill-opacity="0.55"   transform="translate(44.6 20.1) rotate(177.8) scale(1.91 1.73)" />
<rect x="8.3" y="0.9" width="29.3" height="35.6" rx="19.3" fill="hsl(104, 72%, 65%)" fill-opacity="0.29"    />
<rect x="5.0" y="17.8" width="23.9" height="16.2" rx="0" fill="hsl(242, 72%, 49%)" fill-opacity="0.70"   transform="translate(9.6 76.8) rotate(251.2) scale(0.99 0.94)" />
<rect x="27.0" y="4.1" width="41.8" height="31.9" rx="18.1" fill="hsl(86, 72%, 68%)" fill-opacity="0.64"    />
<rect x="7.1" y="21.4" width="35.4" height="32.0" rx="3.9" fill="hsl(83, 65%, 44%)" fill-opacity="0.73" stroke="hsl(86, 72%, 68%)" stroke-width="4.8"   />
<circle cx="15.0" cy="8.9" r="1.8" fill="hsl(242, 72%, 49%)" fill-opacity="0.99"  transform="translate(72.8 20.5) rotate(134.9) scale(1.30 0.54)" />
<path d="M 37.2 27.9 C 18.8 46.9, 95.1 65.5, 81.9 63.8 C 95.2 45.5, 90.4 77.9, 93.8 75.5 C 100.0 82.4, 87.1 71.1, 78.2 79.8 C 71.8 93.1, 13.6 56.6, 22.8 57.5 C 31.4 66.8, 10.5 57.3, 21.9 56.5 C 40.3 70.1, 46.7 24.9, 59.2 10.6 C 61.8 0.0, 7.6 69.7, 0.4 84.3 C 6.6 94.7, 72.4 17.3, 84.3 10.5 C 73.7 7.7, 63.8 27.6, 65.4 35.6 Z" fill="none" fill-opacity="0.82" stroke="hsl(151, 70%, 62%)" stroke-width="4.62"  transform="translate(78.7 35.0) rotate(226.7) scale(1.66 1.23)" />
<path d="M 97.9 91.0 C 85.8 83.6, 38.2 81.9, 27.6 76.6 C 36.1 84.4, 17.2 14.8, 19.6 28.5 C 32.7 26.5, 52.2 64.1, 55.1 65.2 C 71.2 45.6, 49.0 17.4, 39.8 29.9 C 34.5 38.3, 6.8 82.9, 9.1 68.8 C 25.2 57.5, 38.4 15.2, 29.0 14.5 C 42.9 31.3, 71.2 51.6, 62.9 61.2 C 51.2 57.8, 77.5 32.7, 82.6 26.6 C 81.9 45.4, 41.6 41.9, 31.9 51.8 C 35.7 59.1, 0.0 15.7, 1.9 11.9 Z" fill="hsl(106, 75%, 59%)" fill-opacity="0.77" stroke="none" stroke-width="2.73"  transform="translate(18.1 12.0) rotate(283.5) scale(1.74 1.51)" />
<circle cx="8.5" cy="51.9" r="1.2" fill="hsl(83, 65%, 44%)" fill-opacity="0.57"  transform="translate(96.5 55.1) rotate(43.0) scale(0.95 0.96)" />
<path d="M 20.2 96.5 C 3.7 82.6, 96.6 19.2, 90.0 11.1 C 99.2 0.0, 67.7 80.0, 59.5 84.6 C 73.4 97.1, 17.6 0.0, 25.1 9.4 C 33.8 4.2, 45.2 85.6, 34.2 90.0 C 52.2 77.7, 68.8 17.0, 63.9 14.1 C 44.5 25.7, 83.6 71.3, 77.7 78.4 C 87.9 91.1, 71.0 78.8, 73.4 89.7 C 70.3 81.2, 77.2 9.9, 70.0 3.8 C 59.6 0.0, 96.2 94.4, 94.1 92.3 Z" fill="hsl(86, 72%, 68%)" fill-opacity="0.38" stroke="none" stroke-width="4.54"   />
<path d="M 77.0 98.7 C 82.9 97.8, 73.1 37.1, 58.3 32.1 C 49.4 28.7, 83.7 75.5, 89.8 70.0 C 87.7 88.6, 58.6 5.7, 55.9 16.6 C 40.6 0.2, 74.6 94.1, 64.2 96.2 C 44.3 100.0, 21.1 74.1, 20.1 88.0 C 0.6 96.8, 29.6 33.8, 23.7 30.9 C 37.3 50.1, 84.1 16.0, 85.9 29.5 C 82.3 15.1, 8.7 2.3, 4.1 14.8 Z" fill="hsl(322, 74%, 44%)" fill-opacity="0.80" stroke="none" stroke-width="1.87"  transform="translate(3.0 49.2) rotate(312.3) scale(0.61 1.89)" />
<path d="M 72.8 95.8 C 69.0 95.3, 100.0 91.4, 96.4 96.8 C 85.0 100.0, 76.5 31.4, 83.2 36.5 C 90.8 48.6, 13.5 43.3, 13.2 28.5 C 20.2 39.0, 56.2 93.8, 65.3 91.6 C 73.1 78.7, 24.2 84.9, 18.7 76.2 C 24.8 92.8, 35.4 33.0, 20.7 23.4 C 26.9 4.7, 92.5 100.0, 85.5 93.4 C 72.5 84.9, 95.1 18.3, 89.7 3.4 C 83.5 0.0, 100.0 15.0, 92.9 0.9 C 100.0 10.2, 40.4 26.2, 35.5 38.0 Z" fill="hsl(144, 86%, 72%)" fill-opacity="0.64" stroke="none" stroke-width="2.85"  transform="translate(2.7 19.2) rotate(162.3) scale(1.01 0.75)" />
<circle cx="4.7" cy="18.7" r="3.3" fill="hsl(144, 86%, 72%)" fill-opacity="0.62"  transform="translate(82.4 76.7) rotate(217.3) scale(0.73 1.89)" />
<path d="M 3.2 53.9 C 14.8 44.2, 95.7 11.7, 87.4 8.6 C 94.9 3.2, 98.6 1.6, 85.9 8.5 C 84.0 1.7, 5.0 73.5, 17.5 81.1 C 8.1 100.0, 14.9 28.0, 12.6 24.4 C 10.6 23.8, 71.2 33.0, 70.5 22.5 C 85.5 17.8, 100.0 55.6, 96.6 59.9 C 100.0 53.9, 71.4 98.0, 57.8 98.7 C 44.7 80.5, 36.7 65.3, 51.4 66.8 C 57.7 54.0, 29.5 78.0, 43.3 91.6 Z" fill="hsl(104, 72%, 65%)" fill-opacity="0.54" stroke="none" stroke-width="3.75"  transform="translate(84.6 75.0) rotate(146.1) scale(0.69 0.59)" />
<path d="M 5.8 30.9 C 0.0 13.3, 38.7 38.0, 30.9 37.6 C 22.9 55.6, 62.9 78.2, 52.5 74.3 C 39.4 72.1, 100.0 55.3, 98.7 65.4 C 93.3 77.1, 30.6 27.2, 21.4 34.7 C 3.5 52.9, 80.5 58.1, 73.2 53.8 C 85.8 38.0, 63.4 72.8, 58.3 76.5 C 49.2 67.2, 38.6 33.7, 28.7 40.3 C 40.1 30.9, 69.6 25.6, 60.7 31.2 C 68.4 19.8, 100.0 79.5, 99.5 67.3 Z" fill="hsl(104, 72%, 65%)" fill-opacity="0.56" stroke="none" stroke-width="2.35"  transform="translate(51.2 32.6) rotate(248.5) scale(1.73 0.88)" />
<path d="M 15.6 25.9 C 0.0 45.2, 51.6 64.0, 41.4 70.2 C 60.6 57.6, 61.8 18.0, 75.6 17.7 C 82.3 10.1, 47.5 22.9, 55.8 9.5 C 46.2 16.5, 88.0 42.1, 92.3 30.8 C 100.0 50.8, 82.0 25.2, 70.2 39.5 C 89.1 50.3, 97.4 70.9, 92.6 72.3 C 81.8 56.6, 22.3 71.9, 36.2 78.1 C 24.4 68.1, 88.9 0.0, 76.8 2.3 C 89.1 16.1, 87.6 77.6, 77.2 76.9 Z" fill="hsl(106, 75%, 59%)" fill-opacity="0.36" stroke="none" stroke-width="2.97"  transform="translate(73.8 43.5) rotate(251.1) scale(1.43 1.84)" />
<circle cx="34.9" cy="19.7" r="13.8" fill="url(#g1)" fill-opacity="0.76"  transform="translate(14.2 45.6) rotate(237.9) scale(1.36 0.89)" />
<path d="M 93.8 35.1 C 100.0 44.0, 43.1 56.2, 57.4 67.2 C 54.0 58.0, 15.5 60.9, 20.8 56.6 C 38.7 39.1, 5.8 30.2, 12.9 44.5 C 31.5 30.9, 36.2 64.9, 39.9 64.9 C 33.2 54.9, 38.1 83.1, 32.3 80.1 C 19.3 79.9, 0.0 39.4, 1.7 53.9 C 0.4 69.1, 59.4 66.1, 48.8 59.3 C 29.2 58.5, 16.9 59.6, 6.9 55.3 C 13.7 71.4, 73.5 86.1, 81.6 85.9 C 94.3 66.9, 92.5 17.7, 90.8 24.1 Z" fill="none" fill-opacity="0.72" stroke="hsl(104, 72%, 65%)" stroke-width="1.70" filter="url(#f1)" transform="translate(99.2 63.9) rotate(302.9) scale(1.36 1.87)" />
<rect x="0.0" y="24.5" width="24.6" height="11.0" rx="0" fill="none" fill-opacity="0.60" stroke="hsl(104, 72%, 65%)" stroke-width="3.4"  transform="translate(15.0 69.8) rotate(338.3) scale(0.71 1.00)" />
<rect x="37.2" y="25.4" width="28.9" height="38.7" rx="0" fill="hsl(144, 86%, 72%)" fill-opacity="0.49"   transform="translate(75.6 38.5) rotate(201.8) scale(1.90 1.09)" />
<path d="M 35.8 57.8 C 46.2 40.1, 41.2 90.4, 35.5 91.8 C 34.6 89.9, 71.7 35.5, 70.5 24.8 C 75.6 43.7, 23.1 100.0, 18.1 98.5 C 0.0 89.5, 96.6 86.0, 96.7 72.6 C 100.0 86.6, 16.1 100.0, 24.6 98.2 C 43.1 95.3, 50.1 75.7, 42.8 67.7 C 27.2 56.3, 81.5 40.5, 82.9 43.4 C 65.8 29.7, 4.6 72.1, 2.2 63.4 Z" fill="none" fill-opacity="0.35" stroke="hsl(151, 70%, 62%)" stroke-width="1.47" filter="url(#f1)" transform="translate(46.0 0.3) rotate(236.3) scale(1.15 1.26)" />
<rect x="36.4" y="14.9" width="44.2" height="20.2" rx="11.1" fill="hsl(183, 71%, 60%)" fill-opacity="0.82"   transform="translate(64.2 54.8) rotate(331.3) scale(1.31 0.80)" />
<path d="M 67.0 62.1 C 74.6 74.5, 66.4 56.2, 76.0 41.5 C 87.5 51.8, 35.0 77.0, 34.9 73.9 C 28.6 73.3, 39.5 50.6, 53.4 64.9 C 67.5 50.0, 81.5 11.4, 69.6 13.8 C 88.7 33.0, 70.6 89.1, 83.3 85.0 C 75.7 80.9, 89.5 20.8, 80.7 11.5 C 89.4 0.0, 62.7 47.9, 62.9 41.3 Z" fill="hsl(2, 82%, 55%)" fill-opacity="0.57" stroke="none" stroke-width="4.77" filter="url(#f1)" transform="translate(74.2 65.2) rotate(117.1) scale(1.63 1.26)" />
<rect x="45.2" y="6.7" width="34.8" height="37.6" rx="18.4" fill="none" fill-opacity="0.30" stroke="hsl(86, 72%, 68%)" stroke-width="1.6"  transform="translate(14.7 15.0) rotate(358.3) scale(0.66 0.76)" />
<path d="M 57.5 52.8 C 53.9 40.4, 42.4 50.3, 49.6 51.7 C 63.9 32.5, 0.0 90.9, 12.6 80.6 C 4.7 69.4, 58.0 81.7, 61.5 81.0 C 49.2 66.8, 54.2 49.8, 46.6 36.4 C 61.2 55.2, 63.2 52.6, 55.8 55.5 C 38.3 44.0, 70.7 7.8, 72.8 0.8 C 71.7 11.8, 100.0 69.2, 98.3 59.3 Z" fill="hsl(144, 86%, 72%)" fill-opacity="0.34" stroke="none" stroke-width="2.06" filter="url(#f1)"  />
<path d="M 2.9 46.1 C 8.8 39.6, 21.5 30.9, 24.6 28.2 C 10.7 31.0, 44.3 49.7, 51.8 41.7 C 46.9 42.4, 63.7 20.1, 68.6 21.6 C 88.1 25.9, 62.8 18.9, 57.1 22.4 C 75.3 38.2, 63.0 3.1, 71.2 15.3 C 83.8 6.0, 51.9 17.7, 50.6 16.6 C 56.7 29.0, 6.3 50.8, 6.6 47.1 Z" fill="hsl(83, 65%, 44%)" fill-opacity="0.55" stroke="none" stroke-width="1.93"  transform="translate(26.8 85.1) rotate(3.1) scale(1.38 1.13)" />
<rect x="10.4" y="41.4" width="20.7" height="14.9" rx="0" fill="hsl(83, 65%, 44%)" fill-opacity="0.91" stroke="hsl(83, 65%, 44%)" stroke-width="4.5"  transform="translate(55.3 3.6) rotate(71.9) scale(0.75 0.78)" />
<path d="M 19.0 32.6 C 28.9 30.1, 60.2 42.4, 51.5 48.3 C 34.1 46.7, 46.2 32.8, 57.5 45.2 C 45.8 60.0, 45.8 100.0, 50.3 88.0 C 69.7 100.0, 0.0 7.9, 1.2 1.1 C 0.0 0.0, 31.5 65.8, 24.9 80.2 C 23.2 91.6, 56.6 71.5, 43.3 73.3 Z" fill="none" fill-opacity="0.51" stroke="hsl(104, 72%, 65%)" stroke-width="2.27"  transform="translate(98.4 24.5) rotate(207.4) scale(1.82 0.90)" />
<path d="M 37.1 3.1 C 52.4 0.0, 85.5 8.3, 77.4 19.6 C 78.0 10.5, 76.1 20.4, 87.3 13.4 C 96.1 12.6, 30.5 72.7, 32.6 87.1 C 48.1 100.0, 86.5 87.1, 86.8 75.4 C 72.7 88.4, 100.0 98.8, 96.5 85.2 C 80.1 91.4, 25.4 29.1, 37.5 20.7 Z" fill="hsl(106, 75%, 59%)" fill-opacity="0.75" stroke="none" stroke-width="3.71"  transform="translate(57.6 12.3) rotate(136.3) scale(1.61 1.51)" />
<path d="M 80.0 29.3 C 75.7 36.8, 64.5 21.4, 72.7 27.6 C 55.9 13.8, 44.0 46.6, 45.6 55.8 C 42.7 65.9, 80.7 81.7, 78.8 74.7 C 79.6 92.7, 27.4 38.5, 41.7 25.6 C 28.2 25.9, 18.9 16.9, 18.9 11.7 C 32.4 11.9, 78.0 16.2, 70.1 19.5 C 55.2 32.6, 53.5 34.4, 68.5 27.1 C 72.3 15.1, 66.8 19.4, 62.2 5.6 Z" fill="hsl(290, 83%, 63%)" fill-opacity="0.82" stroke="none" stroke-width="4.32"  transform="translate(82.3 42.6) rotate(330.3) scale(2.00 0.97)" />
<circle cx="57.1" cy="24.7" r="4.8" fill="url(#g2)" fill-opacity="0.63"  transform="translate(4.9 43.6) rotate(24.6) scale(0.84 1.44)" />
<path d="M 15.1 28.6 C 10.4 16.7, 6.9 80.0, 5.1 92.3 C 2.3 88.8, 52.8 46.0, 42.3 33.2 C 42.8 27.9, 96.2 4.5, 87.3 11.3 C 80.8 18.8, 76.9 76.3, 73.9 87.9 C 72.5 85.9, 19.6 15.9, 14.7 2.6 C 33.2 0.0, 75.4 24.0, 69.7 38.8 C 54.4 23.4, 73.2 22.7, 65.4 22.4 C 72.0 24.0, 41.1 63.4, 55.5 65.0 C 72.9 72.0, 7.6 53.6, 2.0 61.5 Z" fill="hsl(322, 74%, 44%)" fill-opacity="0.86" stroke="none" stroke-width="2.98" filter="url(#f1)" transform="translate(76.6 26.7) rotate(14.9) scale(1.04 1.73)" />
<path d="M 4.9 65.6 C 5.6 74.5, 10.0 30.0, 18.4 18.9 C 28.4 4.1, 87.2 0.0, 84.9 7.5 C 77.6 18.6, 51.5 38.3, 57.4 40.1 C 62.4 32.2, 100.0 21.0, 97.2 26.3 C 87.9 21.1, 86.1 24.9, 88.4 26.8 C 98.9 21.7, 84.4 32.6, 84.2 18.3 Z" fill="hsl(322, 74%, 44%)" fill-opacity="0.77" stroke="none" stroke-width="2.49"  transform="translate(4.3 43.4) rotate(272.3) scale(1.46 1.53)" />
<rect x="35.0" y="11.4" width="30.1" height="20.3" rx="9.2" fill="none" fill-opacity="0.38"  filter="url(#f1)" transform="translate(79.6 21.2) rotate(290.0) scale(1.17 1.03)" />
<path d="M 48.0 18.9 C 37.3 30.9, 23.2 4.0, 15.3 6.1 C 27.6 0.0, 41.6 93.7, 47.8 94.4 C 38.6 77.9, 100.0 42.5, 97.9 31.7 C 100.0 38.7, 0.7 52.5, 4.1 52.0 C 15.4 41.3, 100.0 100.0, 98.1 93.1 C 97.7 100.0, 78.8 60.8, 77.1 53.8 C 82.9 59.6, 38.9 31.3, 23.9 18.6 Z" fill="hsl(104, 72%, 65%)" fill-opacity="0.37" stroke="none" stroke-width="2.31"  transform="translate(37.6 92.3) rotate(215.9) scale(1.66 1.13)" />
<path d="M 29.4 9.6 C 28.8 23.2, 45.6 51.2, 32.8 41.0 C 46.4 49.6, 74.7 70.9, 68.1 76.9 C 70.0 77.3, 75.3 94.3, 86.5 88.0 C 100.0 70.7, 5.3 12.9, 11.4 22.4 C 0.0 23.1, 72.7 32.5, 73.0 44.4 C 77.8 32.9, 56.4 82.4, 61.5 82.2 Z" fill="hsl(242, 72%, 49%)" fill-opacity="0.26" stroke="none" stroke-width="2.87"  transform="translate(69.4 91.3) rotate(80.0) scale(1.99 0.65)" />
<path d="M 32.0 66.3 C 13.2 84.1, 71.7 23.7, 78.6 32.2 C 63.7 51.4, 46.7 71.7, 59.3 81.0 C 57.0 78.5, 62.3 76.4, 49.0 70.9 C 34.6 60.4, 25.3 55.3, 38.8 67.4 C 47.8 61.7, 77.7 54.0, 85.7 46.7 C 79.5 57.2, 61.1 14.3, 46.9 7.8 Z" fill="hsl(242, 72%, 49%)" fill-opacity="0.81" stroke="none" stroke-width="2.51"  transform="translate(21.9 16.2) rotate(135.9) scale(0.59 1.20)" />
<path d="M 56.6 86.2 C 50.8 92.4, 14.2 100.0, 24.3 99.1 C 31.5 83.1, 50.1 80.7, 37.7 87.9 C 27.8 100.0, 95.2 14.5, 96.8 1.1 C 100.0 0.0, 90.5 19.7, 81.0 32.5 C 80.2 24.0, 30.3 57.8, 16.6 68.1 C 35.1 73.5, 41.9 60.9, 46.8 75.4 C 32.4 82.7, 27.8 51.0, 28.1 59.1 C 13.0 68.2, 68.5 46.8, 61.4 32.0 C 49.9 43.0, 74.1 79.1, 76.8 93.7 Z" fill="none" fill-opacity="0.70" stroke="hsl(86, 72%, 68%)" stroke-width="5.06"  transform="translate(26.1 89.1) rotate(346.3) scale(1.00 1.26)" />
<path d="M 87.9 52.1 C 70.1 46.7, 92.3 74.0, 86.0 86.4 C 100.0 100.0, 18.7 9.4, 7.9 6.0 C 4.9 4.5, 100.0 96.5, 97.8 96.6 C 100.0 86.3, 23.7 99.5, 8.8 94.6 C 4.9 98.5, 45.9 9.5, 60.0 6.3 C 58.5 2.8, 60.0 41.9, 49.9 29.5 C 55.9 46.7, 0.0 58.8, 7.7 66.7 Z" fill="hsl(322, 74%, 44%)" fill-opacity="0.64" stroke="none" stroke-width="2.33"  transform="translate(72.6 58.0) rotate(353.1) scale(1.60 1.91)" />
<path d="M 88.4 97.5 C 86.5 98.2, 71.5 77.5, 74.0 73.6 C 57.3 79.7, 3.3 81.8, 5.6 77.0 C 25.1 78.7, 23.1 34.2, 22.8 36.7 C 30.5 53.3, 52.9 16.6, 49.0 15.8 C 65.2 12.8, 80.4 17.6, 87.6 14.2 C 69.5 2.8, 3.7 71.4, 11.7 81.7 Z" fill="none" fill-opacity="0.89" stroke="hsl(242, 72%, 49%)" stroke-width="2.51" filter="url(#f1)"  />
<path d="M 81.6 53.9 C 79.3 72.8, 51.7 78.8, 57.0 70.0 C 69.6 86.3, 38.7 100.0, 49.5 96.1 C 55.5 100.0, 57.0 20.1, 58.1 12.0 C 67.1 15.7, 65.7 35.9, 78.7 42.0 C 66.9 46.9, 92.4 15.8, 92.6 26.4 C 100.0 31.4, 100.0 32.2, 96.3 38.4 C 92.5 32.0, 76.9 0.0, 69.8 7.9 Z" fill="none" fill-opacity="0.54" stroke="hsl(106, 75%, 59%)" stroke-width="1.75"  transform="translate(48.7 64.2) rotate(119.7) scale(1.63 0.87)" />
<rect x="56.4" y="11.4" width="43.3" height="21.0" rx="0" fill="hsl(144, 86%, 72%)" fill-opacity="0.52"   transform="translate(48.1 3.7) rotate(171.7) scale(1.48 0.94)" />
<path d="M 66.2 40.0 C 54.7 40.1, 13.7 29.8, 22.8 43.4 C 20.2 28.8, 18.4 51.9, 30.2 62.1 C 45.2 49.1, 92.9 57.8, 85.5 46.4 C 100.0 56.3, 81.4 72.8, 92.6 61.5 C 90.5 75.9, 0.1 67.6, 1.2 70.2 C 18.4 83.4, 81.4 76.5, 93.6 71.9 C 98.3 61.9, 38.1 84.7, 50.2 90.3 C 45.1 100.0, 42.4 26.1, 40.7 36.3 C 24.6 35.9, 97.4 58.8, 92.0 57.4 C 98.5 76.0, 47.7 84.2, 39.4 94.0 Z" fill="none" fill-opacity="0.45" stroke="hsl(104, 72%, 65%)" stroke-width="1.83"  transform="translate(97.0 14.6) rotate(308.4) scale(1.90 1.59)" />
<circle cx="32.8" cy="93.1" r="11.1" fill="hsl(183, 71%, 60%)" fill-opacity="0.89"  transform="translate(23.2 3.6) rotate(138.4) scale(1.85 1.67)" />
<rect x="43.7" y="36.4" width="46.3" height="18.9" rx="0" fill="hsl(144, 86%, 72%)" fill-opacity="0.72"   transform="translate(99.9 53.6) rotate(197.6) scale(1.41 1.14)" />
<path d="M 34.6 88.1 C 17.2 73.8, 44.6 25.7, 32.6 19.3 C 27.0 18.4, 74.7 63.4, 66.6 65.2 C 49.0 80.7, 54.7 83.7, 50.1 92.3 C 64.5 82.9, 53.6 36.0, 66.4 44.6 C 72.4 33.1, 71.9 52.7, 74.6 65.1 C 77.7 61.9, 35.6 95.8, 43.2 95.2 C 47.9 91.2, 100.0 34.5, 95.2 21.0 C 86.8 11.2, 97.6 46.2, 84.0 44.3 Z" fill="hsl(2, 82%, 55%)" fill-opacity="0.29" stroke="none" stroke-width="2.48" filter="url(#f1)" transform="translate(74.2 4.8) rotate(347.8) scale(1.49 0.52)" />
<rect x="4.5" y="42.5" width="41.4" height="18.5" rx="8.2" fill="hsl(86, 72%, 68%)" fill-opacity="0.53"   transform="translate(54.0 32.4) rotate(102.0) scale(1.18 1.46)" />
<circle cx="18.3" cy="37.1" r="20.7" fill="hsl(2, 82%, 55%)" fill-opacity="0.95" filter="url(#f1)" transform="translate(10.0 75.1) rotate(129.4) scale(1.98 0.85)" />
<path d="M 3.5 31.1 C 21.6 46.6, 2.5 76.4, 11.4 64.5 C 30.7 56.9, 48.7 100.0, 36.7 91.5 C 41.0 98.5, 84.4 48.7, 80.6 51.2 C 80.8 55.8, 57.6 71.3, 62.8 73.4 C 53.3 87.1, 69.1 98.1, 63.8 91.8 C 44.4 100.0, 79.3 70.3, 85.6 81.7 C 92.3 91.8, 35.0 51.7, 37.7 38.2 Z" fill="none" fill-opacity="1.00" stroke="hsl(144, 86%, 72%)" stroke-width="4.60"  transform="translate(68.7 55.5) rotate(331.2) scale(1.69 1.19)" />
<path d="M 8.9 86.3 C 0.0 72.5, 7.9 52.5, 5.3 64.8 C 20.7 68.4, 89.3 48.3, 77.0 60.3 C 90.9 75.1, 25.8 97.8, 23.0 96.2 C 40.2 98.1, 27.8 83.4, 14.0 88.8 C 30.3 75.6, 41.5 81.8, 31.1 68.6 C 38.7 69.0, 47.3 63.2, 54.4 56.7 C 67.3 45.4, 43.0 94.7, 44.2 90.7 C 42.6 100.0, 34.0 71.2, 34.7 80.2 Z" fill="none" fill-opacity="0.97" stroke="hsl(2, 82%, 55%)" stroke-width="2.73"  transform="translate(33.7 65.1) rotate(190.6) scale(0.88 1.88)" />
<circle cx="9.0" cy="73.9" r="11.2" fill="url(#g2)" fill-opacity="0.58"  transform="translate(77.9 40.2) rotate(200.7) scale(1.37 1.39)" />
<path d="M 94.7 69.1 C 93.7 74.4, 24.3 31.7, 30.0 35.3 C 16.7 54.1, 55.5 69.6, 43.9 78.3 C 37.8 86.5, 9.9 91.3, 2.7 78.7 C 8.8 72.7, 81.9 49.5, 75.9 40.3 C 84.0 53.2, 49.1 20.5, 45.9 9.5 C 45.2 4.4, 22.1 100.0, 22.7 99.6 C 9.9 82.3, 99.0 69.8, 95.9 77.7 Z" fill="hsl(242, 72%, 49%)" fill-opacity="0.54" stroke="none" stroke-width="4.15"  transform="translate(44.6 26.1) rotate(225.7) scale(1.43 1.17)" />
<rect x="3.9" y="75.6" width="36.3" height="13.5" rx="0" fill="none" fill-opacity="0.49"   transform="translate(58.5 87.1) rotate(274.7) scale(0.66 1.78)" />
<circle cx="51.9" cy="14.9" r="3.4" fill="url(#g1)" fill-opacity="0.90"   />
<path d="M 23.6 73.0 C 42.7 90.3, 22.4 75.7, 13.4 64.1 C 0.0 56.3, 54.0 75.4, 54.2 77.6 C 40.4 92.0, 23.1 29.6, 13.9 34.7 C 2.3 43.9, 42.5 9.8, 36.7 16.6 C 51.1 0.0, 21.0 52.4, 28.1 55.6 C 15.2 66.6, 38.5 78.2, 25.0 85.4 C 29.2 69.1, 20.3 23.8, 33.7 17.3 C 52.8 37.1, 20.4 76.5, 14.1 62.0 Z" fill="none" fill-opacity="0.90" stroke="hsl(86, 72%, 68%)" stroke-width="5.01"  transform="translate(67.3 84.0) rotate(353.9) scale(1.25 0.79)" />
<path d="M 99.3 83.0 C 100.0 88.2, 16.7 64.8, 10.2 74.5 C 22.9 80.2, 10.0 74.9, 24.2 87.8 C 14.2 68.4, 69.0 57.7, 73.1 55.9 C 86.7 44.3, 50.9 67.0, 44.8 74.9 C 41.9 93.2, 29.1 0.0, 37.2 3.5 C 39.9 11.2, 70.4 12.0, 62.3 17.6 C 71.5 29.1, 19.7 11.8, 17.8 23.6 Z" fill="none" fill-opacity="0.36" stroke="hsl(322, 74%, 44%)" stroke-width="5.07"  transform="translate(29.2 67.0) rotate(89.6) scale(0.80 1.18)" />
<path d="M 21.6 22.4 C 30.7 30.4, 75.1 94.5, 72.6 84.1 C 69.5 68.7, 36.3 27.2, 23.0 37.4 C 19.8 47.8, 34.9 58.2, 28.0 47.0 C 47.7 46.3, 48.2 42.1, 49.6 33.1 C 60.3 16.3, 4.0 6.5, 17.4 5.9 C 15.9 13.9, 78.5 30.1, 76.9 20.7 C 85.4 13.8, 82.2 57.6, 75.5 67.6 C 89.3 65.1, 100.0 24.0, 90.7 30.5 C 100.0 24.1, 82.9 34.8, 85.3 27.8 C 77.5 43.0, 64.1 13.7, 56.3 22.5 Z" fill="none" fill-opacity="0.80" stroke="hsl(322, 74%, 44%)" stroke-width="2.15"  transform="translate(76.3 81.1) rotate(227.1) scale(2.00 1.83)" />
<path d="M 16.2 9.9 C 12.4 21.4, 68.4 18.5, 74.5 22.9 C 89.1 39.5, 12.7 75.8, 17.8 68.9 C 0.0 78.2, 49.8 34.1, 60.5 34.3 C 65.2 18.9, 76.3 12.6, 87.2 2.7 C 100.0 12.1, 17.5 36.7, 25.0 40.4 C 33.9 57.6, 78.6 1.7, 68.5 11.9 C 66.6 9.4, 56.6 80.1, 69.6 73.8 C 51.4 84.0, 58.6 34.7, 63.9 49.1 Z" fill="hsl(86, 72%, 68%)" fill-opacity="0.44" stroke="none" stroke-width="4.10"  transform="translate(91.1 25.9) rotate(0.3) scale(1.32 1.87)" />
<path d="M 15.5 64.5 C 5.1 65.6, 39.9 18.0, 28.4 21.2 C 35.2 30.5, 59.1 12.2, 49.3 10.6 C 40.3 13.2, 12.2 28.3, 15.8 32.0 C 3.3 26.0, 0.9 0.0, 3.1 4.6 C 7.9 15.5, 35.3 8.1, 50.2 11.8 C 34.1 9.0, 66.6 72.1, 71.5 85.8 C 55.8 83.0, 19.2 87.6, 6.2 90.5 C 25.5 96.4, 64.8 94.3, 78.5 83.0 C 65.3 69.7, 32.4 83.7, 38.1 91.6 Z" fill="hsl(151, 70%, 62%)" fill-opacity="0.62" stroke="none" stroke-width="1.60"  transform="translate(53.5 45.2) rotate(205.7) scale(1.50 1.41)" />
<path d="M 48.9 18.7 C 63.1 5.3, 87.6 27.1, 87.7 33.7 C 85.1 40.3, 77.3 28.9, 70.7 41.9 C 55.0 44.1, 95.3 0.0, 91.4 1.0 C 99.6 0.0, 74.1 27.8, 79.5 18.6 C 97.8 1.5, 91.2 36.2, 82.1 44.9 C 85.7 30.1, 14.1 89.9, 7.0 87.1 Z" fill="none" fill-opacity="0.56" stroke="hsl(183, 71%, 60%)" stroke-width="1.74"  transform="translate(49.1 21.8) rotate(101.8) scale(1.83 0.79)" />
<rect x="2.4" y="15.5" width="30.7" height="23.4" rx="0" fill="none" fill-opacity="0.52" stroke="hsl(83, 65%, 44%)" stroke-width="2.4"  transform="translate(8.7 3.6) rotate(45.8) scale(0.51 1.10)" />
<rect x="33.5" y="48.9" width="49.3" height="11.8" rx="0" fill="none" fill-opacity="0.49"   transform="translate(69.2 1.6) rotate(195.9) scale(0.85 1.61)" />
<path d="M 38.9 20.9 C 40.0 21.2, 56.5 70.4, 43.1 74.2 C 41.8 73.2, 25.0 50.3, 22.2 36.4 C 2.9 54.6, 95.9 23.6, 82.4 35.0 C 64.8 48.6, 90.9 36.5, 76.6 48.6 C 75.7 49.6, 55.4 42.7, 59.0 48.2 C 72.4 56.2, 98.0 92.1, 98.1 91.0 Z" fill="hsl(106, 75%, 59%)" fill-opacity="0.52" stroke="none" stroke-width="1.05"  transform="translate(74.1 73.0) rotate(202.0) scale(0.76 0.87)" />
<circle cx="12.4" cy="96.8" r="2.9" fill="url(#g0)" fill-opacity="0.90"  transform="translate(27.8 72.0) rotate(316.5) scale(1.64 1.28)" />
<circle cx="6.3" cy="41.9" r="10.1" fill="url(#g1)" fill-opacity="0.77"  transform="translate(49.1 37.2) rotate(190.6) scale(1.56 1.83)" />
<circle cx="15.1" cy="36.0" r="3.7" fill="hsl(183, 71%, 60%)" fill-opacity="0.54"  transform="translate(9.7 45.4) rotate(45.2) scale(0.62 1.99)" />
<path d="M 6.5 44.0 C 0.0 58.3, 47.2 54.9, 60.9 55.3 C 48.0 52.9, 47.4 8.2, 37.1 14.1 C 29.1 18.1, 90.6 52.8, 91.8 65.6 C 90.6 70.5, 79.8 100.0, 73.7 98.6 C 88.7 83.1, 0.0 98.2, 11.5 90.5 C 6.7 73.5, 84.4 30.0, 74.2 38.5 C 89.4 28.7, 23.0 8.4, 27.6 6.3 Z" fill="none" fill-opacity="0.89" stroke="hsl(106, 75%, 59%)" stroke-width="1.15"  transform="translate(41.0 77.9) rotate(142.7) scale(1.99 1.96)" />
<rect x="11.9" y="63.5" width="24.3" height="19.8" rx="0" fill="none" fill-opacity="0.70" stroke="hsl(2, 82%, 55%)" stroke-width="1.1" filter="url(#f1)" transform="translate(47.8 30.2) rotate(101.3) scale(1.81 0.68)" />
<rect x="12.1" y="42.6" width="33.3" height="17.5" rx="0" fill="none" fill-opacity="0.62" stroke="hsl(322, 74%, 44%)" stroke-width="4.1"  transform="translate(77.7 44.5) rotate(253.4) scale(1.10 0.86)" />
<path d="M 30.3 90.5 C 36.9 87.6, 70.7 98.7, 80.6 84.6 C 91.3 87.3, 24.9 11.5, 34.8 3.5 C 47.2 0.0, 47.5 19.5, 60.8 10.3 C 65.4 25.6, 57.2 54.0, 65.8 43.9 C 47.7 36.3, 70.6 78.0, 71.3 68.4 C 83.2 61.3, 21.6 0.0, 18.8 6.7 C 26.4 15.7, 64.8 49.5, 75.4 53.4 C 74.6 60.3, 79.3 3.3, 81.1 14.3 C 68.0 0.0, 15.4 76.4, 18.0 79.3 Z" fill="hsl(322, 74%, 44%)" fill-opacity="0.41" stroke="none" stroke-width="3.55"  transform="translate(16.9 32.9) rotate(165.3) scale(0.68 1.35)" />
<rect x="68.1" y="51.5" width="24.7" height="29.7" rx="13.5" fill="hsl(322, 74%, 44%)" fill-opacity="0.74" stroke="hsl(183, 71%, 60%)" stroke-width="2.4"  transform="translate(9.4 81.2) rotate(288.7) scale(0.93 1.79)" />
<circle cx="9.5" cy="40.1" r="5.1" fill="hsl(144, 86%, 72%)" fill-opacity="0.51"   />
<path d="M 16.7 98.6 C 10.8 100.0, 85.9 13.3, 72.9 13.2 C 86.0 2.6, 0.0 42.5, 2.7 38.4 C 13.1 21.5, 37.1 54.1, 26.5 58.5 C 17.0 47.7, 88.8 24.4, 87.5 11.4 C 96.2 0.0, 35.3 10.0, 21.3 23.5 C 30.0 27.9, 65.1 92.1, 53.7 79.6 Z" fill="none" fill-opacity="0.98" stroke="hsl(290, 83%, 63%)" stroke-width="0.83"  transform="translate(22.5 41.1) rotate(76.7) scale(1.13 1.64)" />
<path d="M 89.6 28.7 C 100.0 29.0, 95.3 0.0, 99.3 8.0 C 100.0 20.1, 34.2 86.0, 26.3 88.9 C 45.2 81.6, 32.0 81.7, 34.2 84.8 C 54.1 89.9, 41.4 81.3, 39.2 92.5 C 31.7 82.0, 60.6 62.2, 58.9 49.1 C 71.5 56.1, 100.0 41.8, 92.7 32.7 C 94.0 34.5, 58.4 54.1, 45.5 63.1 Z" fill="none" fill-opacity="0.34" stroke="hsl(2, 82%, 55%)" stroke-width="4.49" filter="url(#f1)"  />
<circle cx="95.7" cy="89.8" r="4.5" fill="url(#g1)" fill-opacity="0.66"  transform="translate(68.4 5.7) rotate(164.3) scale(1.94 1.29)" />
<circle cx="7.4" cy="27.1" r="0.6" fill="url(#g2)" fill-opacity="0.61"  transform="translate(49.7 5.8) rotate(160.7) scale(1.08 1.44)" />
<path d="M 60.4 80.8 C 45.9 75.0, 8.0 38.7, 2.7 25.1 C 16.7 7.5, 45.3 21.8, 53.3 23.6 C 33.5 10.7, 8.1 69.7, 10.6 76.8 C 9.7 77.0, 51.0 0.4, 39.5 15.3 C 22.9 11.1, 35.4 41.3, 30.1 31.7 C 11.0 24.7, 66.5 0.0, 70.9 2.7 Z" fill="none" fill-opacity="0.61" stroke="hsl(290, 83%, 63%)" stroke-width="1.65"  transform="translate(55.2 84.9) rotate(184.1) scale(0.70 0.70)" />
<circle cx="7.6" cy="16.7" r="1.1" fill="url(#g1)" fill-opacity="0.50"  transform="translate(47.9 30.9) rotate(54.0) scale(0.65 1.23)" />
<rect x="34.2" y="40.0" width="33.6" height="10.5" rx="0" fill="hsl(106, 75%, 59%)" fill-opacity="0.48" stroke="hsl(242, 72%, 49%)" stroke-width="2.3"  transform="translate(10.2 93.1) rotate(8.9) scale(1.54 0.85)" />
<rect x="69.5" y="15.2" width="21.4" height="37.1" rx="0" fill="none" fill-opacity="0.97" stroke="hsl(290, 83%, 63%)" stroke-width="3.3" filter="url(#f1)" transform="translate(26.1 78.2) rotate(126.5) scale(1.57 0.90)" />
<rect x="36.7" y="44.4" width="21.9" height="37.7" rx="0" fill="none" fill-opacity="0.20" stroke="hsl(83, 65%, 44%)" stroke-width="1.2"   />
<path d="M 91.2 61.6 C 89.8 59.0, 100.0 17.3, 97.5 7.0 C 100.0 2.1, 31.4 0.0, 25.2 4.7 C 30.6 0.0, 56.4 14.8, 59.6 7.2 C 70.3 25.2, 33.8 70.0, 23.3 56.1 C 35.0 50.3, 79.7 42.9, 69.4 49.9 C 64.4 43.8, 21.9 44.7, 12.4 58.9 Z" fill="none" fill-opacity="0.74" stroke="hsl(2, 82%, 55%)" stroke-width="1.54" filter="url(#f1)"  />
<rect x="32.8" y="6.2" width="29.4" height="39.5" rx="0" fill="none" fill-opacity="0.78"   transform="translate(22.0 60.2) rotate(256.9) scale(1.45 1.34)" />
<circle cx="55.8" cy="61.4" r="11.2" fill="url(#g0)" fill-opacity="0.44"  transform="translate(6.4 9.9) rotate(237.0) scale(1.64 1.90)" />
<circle cx="54.2" cy="28.0" r="2.0" fill="hsl(322, 74%, 44%)" fill-opacity="0.56"  transform="translate(66.9 31.4) rotate(301.5) scale(0.90 0.66)" />
<path d="M 44.9 46.0 C 35.6 47.7, 77.0 47.3, 74.6 44.8 C 80.0 47.3, 50.4 36.8, 57.4 24.6 C 52.3 42.3, 11.9 51.4, 26.6 65.7 C 8.0 55.1, 84.2 43.5, 93.8 52.1 C 83.1 48.3, 69.9 55.9, 74.9 54.2 C 61.7 71.0, 100.0 63.3, 90.0 60.3 C 96.3 44.3, 0.0 65.5, 3.8 61.1 Z" fill="hsl(151, 70%, 62%)" fill-opacity="0.94" stroke="none" stroke-width="2.97"  transform="translate(34.0 15.0) rotate(174.0) scale(1.21 1.35)" />
<path d="M 53.1 65.2 C 36.0 65.1, 84.9 58.8, 90.9 61.8 C 88.0 52.8, 42.4 60.7, 30.5 68.1 C 42.9 75.6, 59.5 75.7, 58.7 69.6 C 50.1 75.2, 33.4 22.0, 43.1 33.4 C 24.6 47.2, 36.6 82.2, 35.0 87.2 C 29.2 91.5, 82.7 17.1, 75.2 24.9 C 89.8 12.5, 41.7 52.3, 44.1 55.6 C 26.2 72.4, 41.0 0.0, 52.5 2.7 C 61.5 19.0, 30.2 13.4, 40.8 11.1 C 57.8 0.0, 55.2 0.0, 43.6 10.0 Z" fill="hsl(290, 83%, 63%)" fill-opacity="0.60" stroke="none" stroke-width="0.88"  transform="translate(44.9 23.2) rotate(307.7) scale(0.69 1.74)" />
<rect x="25.1" y="42.0" width="34.7" height="34.1" rx="0" fill="none" fill-opacity="0.87"  filter="url(#f1)" transform="translate(90.3 49.5) rotate(70.4) scale(1.79 1.64)" />
<rect x="47.2" y="1.2" width="48.4" height="31.0" rx="8.5" fill="hsl(151, 70%, 62%)" fill-opacity="0.92"   transform="translate(89.2 8.2) rotate(81.8) scale(1.00 0.58)" />
<path d="M 59.2 99.6 C 51.1 100.0, 0.0 94.4, 0.1 87.9 C 0.0 86.1, 7.5 50.1, 6.4 47.7 C 16.7 56.1, 30.0 63.3, 32.2 62.7 C 30.2 56.8, 61.9 68.2, 60.8 79.8 C 70.3 76.6, 86.0 35.8, 79.3 21.5 C 64.4 11.3, 11.2 76.2, 9.9 78.5 C 0.0 80.4, 20.4 54.4, 27.5 68.9 Z" fill="hsl(151, 70%, 62%)" fill-opacity="0.87" stroke="none" stroke-width="1.60"  transform="translate(30.8 37.8) rotate(85.7) scale(1.54 1.85)" />
<circle cx="21.6" cy="8.1" r="4.5" fill="url(#g0)" fill-opacity="0.46"  transform="translate(42.0 15.7) rotate(308.0) scale(1.49 0.58)" />
<path d="M 38.5 77.3 C 21.8 74.2, 0.8 78.7, 7.5 70.7 C 0.0 73.0, 84.8 51.8, 76.3 42.5 C 81.9 37.3, 84.7 42.2, 93.2 53.9 C 82.6 58.4, 50.6 26.2, 43.3 24.8 C 54.0 5.8, 13.4 20.4, 10.5 22.2 C 0.0 36.6, 51.8 47.6, 41.8 54.6 C 40.2 64.0, 0.0 0.0, 2.5 6.6 Z" fill="hsl(242, 72%, 49%)" fill-opacity="0.38" stroke="none" stroke-width="1.15"   />
<path d="M 77.9 42.7 C 79.2 60.6, 38.8 59.9, 34.8 66.4 C 31.2 55.1, 60.6 38.0, 55.4 49.2 C 51.4 36.1, 90.4 26.3, 92.8 33.4 C 73.7 14.8, 94.5 93.2, 98.2 93.3 C 100.0 100.0, 48.3 7.6, 44.1 3.4 C 60.0 10.7, 31.1 66.2, 17.1 67.3 C 3.3 84.6, 60.2 58.9, 59.9 53.1 " fill="none" fill-opacity="0.98" stroke="hsl(183, 71%, 60%)" stroke-width="4.97"  transform="translate(29.5 26.5) rotate(56.5) scale(1.96 0.59)" />
<rect x="59.8" y="76.6" width="31.3" height="17.0" rx="0" fill="hsl(40, 53%, 69%)" fill-opacity="0.98"   transform="translate(36.9 92.1) rotate(152.6) scale(1.79 1.57)" />
<path d="M 16.3 71.4 C 13.4 55.4, 72.6 13.1, 79.2 21.6 C 94.8 2.5, 37.6 45.9, 38.2 52.8 C 29.3 37.0, 100.0 35.3, 97.0 43.3 C 100.0 45.2, 53.2 23.0, 54.6 20.2 C 59.9 37.9, 44.4 0.0, 45.5 3.3 C 42.8 0.0, 39.7 88.2, 24.9 73.7 C 14.1 57.8, 74.9 95.1, 82.1 93.9 C 92.4 100.0, 41.8 69.5, 30.1 72.1 Z" fill="none" fill-opacity="0.29" stroke="hsl(86, 72%, 68%)" stroke-width="2.90"  transform="translate(37.5 73.5) rotate(5.6) scale(1.77 0.51)" />
<path d="M 55.5 78.7 C 43.8 93.5, 47.4 69.3, 42.7 71.7 C 42.5 63.9, 12.1 92.5, 13.5 94.4 C 28.6 91.5, 84.2 28.9, 93.4 42.3 C 100.0 23.4, 62.0 66.9, 62.8 77.3 C 66.2 81.4, 50.3 22.7, 61.7 8.5 C 78.7 0.0, 37.9 53.2, 41.2 46.7 C 42.9 32.7, 70.1 61.1, 83.0 67.4 C 72.6 67.3, 44.5 25.5, 48.8 38.6 C 68.2 37.8, 8.9 25.2, 14.9 19.4 " fill="hsl(86, 72%, 68%)" fill-opacity="0.89" stroke="none" stroke-width="4.86"  transform="translate(40.7 97.9) rotate(326.4) scale(1.31 1.19)" />
<path d="M 96.7 37.8 C 82.2 20.5, 61.3 72.9, 55.3 68.0 C 44.8 50.5, 17.0 77.0, 19.5 66.4 C 14.6 63.2, 69.6 35.2, 74.4 36.3 C 74.5 56.2, 18.6 84.0, 23.1 93.2 C 40.2 75.2, 2.8 77.4, 3.3 69.4 C 0.7 62.2, 80.5 64.2, 66.4 57.0 C 82.7 63.2, 88.8 65.5, 83.7 74.2 Z" fill="hsl(322, 74%, 44%)" fill-opacity="0.93" stroke="none" stroke-width="4.94" filter="url(#f1)" transform="translate(99.9 9.6) rotate(325.7) scale(1.92 1.75)" />
<path d="M 11.0 10.4 C 29.0 7.6, 80.5 12.2, 83.8 4.4 C 81.9 1.4, 0.0 29.3, 1.3 31.6 C 1.9 27.0, 69.9 60.9, 73.0 57.3 C 78.4 38.4, 20.3 100.0, 34.0 95.6 C 40.3 100.0, 68.9 4.9, 59.6 4.4 C 76.9 9.4, 7.3 17.7, 17.5 14.4 C 29.6 17.2, 73.9 100.0, 85.1 90.6 C 100.0 72.4, 98.2 85.9, 98.6 100.0 Z" fill="hsl(322, 74%, 44%)" fill-opacity="0.75" stroke="none" stroke-width="1.97"  transform="translate(68.7 83.9) rotate(95.1) scale(1.16 0.57)" />
<circle cx="85.4" cy="2.7" r="9.1" fill="hsl(2, 82%, 55%)" fill-opacity="0.83"  transform="translate(65.5 35.2) rotate(323.7) scale(1.85 1.86)" />
<path d="M 78.3 77.5 C 70.5 78.1, 64.3 56.8, 75.3 58.6 C 71.8 48.7, 62.4 75.9, 54.6 70.7 C 71.7 58.5, 45.8 100.0, 50.0 96.2 C 51.3 95.7, 5.2 100.0, 16.4 98.6 C 19.8 100.0, 91.7 0.6, 95.9 6.8 C 79.4 0.0, 19.6 89.9, 19.1 85.0 Z" fill="hsl(151, 70%, 62%)" fill-opacity="0.69" stroke="none" stroke-width="1.69"  transform="translate(29.0 39.0) rotate(151.9) scale(1.42 1.38)" />
<path d="M 7.1 37.8 C 15.6 40.5, 42.6 42.0, 35.4 43.4 C 48.1 37.1, 77.6 43.2, 79.0 54.0 C 60.8 59.2, 53.1 20.5, 39.7 12.6 C 31.3 17.9, 39.6 53.7, 54.1 42.6 C 70.1 36.3, 77.8 43.1, 82.8 41.7 C 75.1 45.0, 35.7 4.0, 22.8 0.0 C 13.7 3.0, 49.2 12.7, 58.0 13.9 C 75.2 29.6, 9.1 86.6, 7.4 73.2 Z" fill="hsl(83, 65%, 44%)" fill-opacity="0.67" stroke="none" stroke-width="3.63"  transform="translate(30.3 45.1) rotate(84.1) scale(1.45 1.53)" />
<path d="M 23.2 52.8 C 7.7 67.5, 5.2 30.4, 4.6 34.6 C 5.9 24.1, 34.5 91.9, 33.1 89.6 C 23.3 74.6, 97.6 34.4, 89.6 47.3 C 96.2 50.5, 62.9 61.2, 48.6 52.9 C 41.6 62.5, 94.1 99.2, 91.9 88.1 C 78.6 84.0, 89.5 74.6, 81.9 64.2 C 69.6 83.2, 49.0 86.1, 40.9 93.8 Z" fill="hsl(106, 75%, 59%)" fill-opacity="0.44" stroke="none" stroke-width="3.46"  transform="translate(46.4 16.5) rotate(63.5) scale(0.93 1.71)" />
<path d="M 4.2 39.0 C 0.0 36.9, 38.0 55.9, 52.5 44.8 C 53.4 36.1, 32.3 29.5, 20.5 42.5 C 6.0 53.4, 22.0 98.2, 29.5 97.0 C 38.8 100.0, 16.4 13.6, 4.7 25.6 C 23.6 16.1, 26.9 54.7, 27.0 65.1 C 45.5 53.0, 8.3 80.7, 13.8 85.4 C 32.4 97.5, 40.5 37.0, 39.2 37.3 C 36.8 19.8, 72.4 94.0, 59.4 92.2 C 45.4 99.4, 55.7 15.2, 66.0 7.4 Z" fill="none" fill-opacity="0.86" stroke="hsl(183, 71%, 60%)" stroke-width="3.22"  transform="translate(64.2 68.2) rotate(283.4) scale(1.60 1.64)" />
<rect x="48.3" y="74.6" width="40.5" height="19.6" rx="0" fill="none" fill-opacity="0.45"   transform="translate(81.9 34.8) rotate(141.1) scale(1.92 0.98)" />
<path d="M 15.3 62.5 C 14.9 72.0, 0.4 5.4, 14.8 19.7 C 20.5 33.5, 68.0 83.5, 55.4 89.8 C 66.4 99.0, 63.7 32.4, 76.9 31.8 C 89.4 22.8, 40.5 0.0, 42.5 10.6 C 49.9 19.4, 89.9 100.0, 79.2 96.3 C 60.6 89.3, 77.5 55.5, 80.8 50.8 C 96.3 53.5, 16.1 43.0, 14.7 57.3 C 0.0 52.8, 62.7 7.8, 55.0 18.9 C 42.1 6.6, 57.5 77.9, 56.8 84.7 Z" fill="none" fill-opacity="0.91" stroke="hsl(290, 83%, 63%)" stroke-width="2.61"  transform="translate(47.6 91.2) rotate(13.7) scale(1.60 1.56)" />
<circle cx="97.4" cy="48.0" r="3.5" fill="hsl(183, 71%, 60%)" fill-opacity="0.72" filter="url(#f1)" transform="translate(31.6 63.7) rotate(284.3) scale(1.73 1.86)" />
<circle cx="64.2" cy="92.1" r="1.7" fill="hsl(83, 65%, 44%)" fill-opacity="0.48"  transform="translate(43.2 54.5) rotate(285.5) scale(0.96 1.83)" />
<circle cx="6.1" cy="41.8" r="6.8" fill="url(#g0)" fill-opacity="0.58"  transform="translate(88.8 73.4) rotate(30.0) scale(0.95 1.06)" />
<circle cx="33.4" cy="27.3" r="5.1" fill="url(#g0)" fill-opacity="0.86"  transform="translate(6.2 18.2) rotate(129.8) scale(0.88 0.92)" />
<path d="M 24.2 33.8 C 37.1 21.8, 9.5 36.2, 7.4 50.6 C 22.1 37.1, 31.3 68.3, 40.8 61.5 C 39.0 80.9, 80.2 46.1, 90.2 58.6 C 75.5 60.9, 56.3 76.8, 50.5 87.3 C 55.8 80.2, 0.0 86.0, 3.2 85.1 C 12.8 100.0, 42.6 3.8, 35.3 14.2 C 30.3 29.2, 54.2 97.6, 59.5 93.3 C 44.3 100.0, 21.9 35.8, 19.5 36.0 C 3.9 27.3, 52.1 40.3, 39.4 52.0 C 41.2 62.8, 81.0 66.7, 84.1 58.6 Z" fill="none" fill-opacity="0.41" stroke="hsl(106, 75%, 59%)" stroke-width="1.24"  transform="translate(57.7 97.6) rotate(108.5) scale(1.32 1.38)" />
<path d="M 54.2 15.2 C 69.9 16.2, 54.5 100.0, 59.2 92.5 C 69.4 74.2, 33.4 86.7, 20.7 71.7 C 24.1 69.6, 24.1 24.0, 34.3 29.2 C 50.1 25.6, 55.1 86.9, 56.8 91.0 C 55.5 100.0, 27.0 38.8, 18.2 49.6 C 18.1 30.2, 28.5 15.7, 40.5 19.8 C 53.2 16.6, 15.6 14.8, 20.5 7.0 C 26.1 7.6, 41.4 41.2, 30.5 36.4 C 13.3 54.3, 1.7 46.2, 13.4 45.1 C 31.8 27.0, 86.2 63.6, 97.5 51.0 Z" fill="none" fill-opacity="0.29" stroke="hsl(151, 70%, 62%)" stroke-width="4.10"  transform="translate(5.5 88.0) rotate(277.8) scale(1.00 0.70)" />
<path d="M 61.4 66.2 C 75.8 56.6, 74.8 100.0, 73.6 99.5 C 69.3 100.0, 25.6 25.8, 38.5 26.4 C 29.1 39.8, 0.0 59.5, 5.3 64.1 C 20.7 65.1, 19.5 92.0, 7.0 93.2 C 25.1 75.1, 29.9 44.2, 35.7 53.7 C 43.8 54.5, 12.9 76.9, 16.2 86.1 C 13.1 89.6, 7.9 100.0, 3.7 90.4 C 21.7 87.9, 32.6 79.4, 36.9 89.6 C 44.8 100.0, 30.7 55.0, 20.6 63.9 C 30.4 71.1, 18.3 47.8, 5.5 38.2 " fill="none" fill-opacity="0.39" stroke="hsl(151, 70%, 62%)" stroke-width="1.06"  transform="translate(51.8 12.2) rotate(65.7) scale(0.54 1.84)" />
<path d="M 20.8 37.4 C 19.3 27.1, 67.9 69.9, 67.8 71.5 C 81.6 57.8, 13.4 5.0, 5.7 6.5 C 10.0 14.3, 13.6 51.4, 26.4 42.4 C 44.6 55.0, 60.2 72.2, 51.7 78.4 C 58.3 64.9, 14.9 97.9, 22.1 96.8 C 40.0 92.6, 95.0 64.0, 83.8 78.5 C 73.2 84.9, 7.8 0.0, 19.7 4.9 Z" fill="none" fill-opacity="0.80" stroke="hsl(322, 74%, 44%)" stroke-width="4.89"  transform="translate(56.2 86.1) rotate(251.9) scale(0.76 1.02)" />
<g opacity="0.059">
<rect x="0" y="0" width="1" height="100" fill="black" />
<rect x="22" y="0" width="1" height="100" fill="black" />
<rect x="44" y="0" width="1" height="100" fill="black" />
<rect x="66" y="0" width="1" height="100" fill="black" />
<rect x="88" y="0" width="1" height="100" fill="black" />
<rect x="0" y="0" width="100" height="1" fill="black" />
<rect x="0" y="22" width="100" height="1" fill="black" />
<rect x="0" y="44" width="100" height="1" fill="black" />
<rect x="0" y="66" width="100" height="1" fill="black" />
<rect x="0" y="88" width="100" height="1" fill="black" />
</g>

</svg>
