<?xml version="1.0" encoding="UTF-8"?>
<svg xmlns="http://www.w3.org/2000/svg" width="100" height="100" viewBox="0 0 100 100">
<defs>
<linearGradient id="g0" x1="0%" y1="0%" x2="100%" y2="100%">
<stop offset="0.0%" stop-color="hsl(106, 75%, 59%)" />
<stop offset="33.3%" stop-color="hsl(183, 71%, 60%)" />
<stop offset="66.7%" stop-color="hsl(242, 72%, 49%)" />
<stop offset="100.0%" stop-color="hsl(322, 74%, 44%)" />
</linearGradient>
<linearGradient id="g1" x1="0%" y1="0%" x2="100%" y2="100%">
<stop offset="0.0%" stop-color="hsl(290, 83%, 63%)" />
<stop offset="33.3%" stop-color="hsl(2, 82%, 55%)" />
<stop offset="66.7%" stop-color="hsl(86, 72%, 68%)" />
<stop offset="100.0%" stop-color="hsl(83, 65%, 44%)" />
</linearGradient>
<linearGradient id="g2" x1="0%" y1="0%" x2="100%" y2="100%">
<stop offset="0.0%" stop-color="hsl(40, 53%, 69%)" />
<stop offset="33.3%" stop-color="hsl(104, 72%, 65%)" />
<stop offset="66.7%" stop-color="hsl(144, 86%, 72%)" />
<stop offset="100.0%" stop-color="hsl(151, 70%, 62%)" />
</linearGradient>
<filter id="f1" x="-20%" y="-20%" width="140%" height="140%">
  <feGaussianBlur stdDeviation="1.821507334568318" />
</filter>

</defs>

<path d="M 19.0 51.9 C 9.5 61.7, 22.0 14.6, 10.6 7.8 C 22.0 0.0, 100.0 78.7, 86.2 85.1 C 93.2 82.6, 30.0 52.1, 37.9 40.2 C 28.5 29.3, 0.0 100.0, 7.3 98.6 C 0.0 100.0, 6.5 61.5, 11.7 56.6 C 17.3 54.3, 32.7 83.3, 37.6 82.8 C 47.7 64.0, 24.1 43.0, 11.7 29.1 Z" fill="hsl(322, 74%, 44%)" fill-opacity="0.81" stroke="none" stroke-width="1.15"   />
<path d="M 76.2 52.7 C 63.8 45.3, 11.8 22.2, 20.7 7.6 C 22.2 6.5, 83.4 90.0, 89.6 86.3 C 71.2 84.3, 31.6 71.2, 17.2 67.1 C 26.3 57.4, 16.5 69.9, 7.0 56.1 C 0.0 43.3, 22.0 85.8, 34.3 76.8 C 36.5 87.5, 14.3 59.2, 16.6 59.3 C 27.7 48.2, 86.7 100.0, 80.1 93.3 C 69.5 90.1, 90.1 76.0, 90.7 72.1 C 97.5 88.7, 29.1 0.0, 39.5 0.2 C 45.6 0.3, 53.1 35.5, 42.2 43.0 Z" fill="hsl(86, 72%, 68%)" fill-opacity="0.86" stroke="none" stroke-width="5.06"  transform="translate(3.1 8.6) rotate(115.5) scale(0.91 1.22)" />
<rect x="46.5" y="8.5" width="46.0" height="39.3" rx="11.5" fill="none" fill-opacity="0.71"   transform="translate(34.1 51.3) rotate(277.5) scale(1.24 0.64)" />
<path d="M 93.4 6.1 C 95.9 0.0, 86.3 0.9, 88.6 9.5 C 100.0 26.0, 26.6 54.3, 28.0 54.6 C 8.7 60.9, 27.8 50.5, 31.9 36.5 C 30.8 23.2, 58.3 91.0, 68.9 99.5 C 79.9 96.6, 19.8 0.0, 7.9 3.2 C 24.6 19.1, 8.8 21.0, 2.0 28.4 C 0.0 34.2, 0.0 7.4, 0.3 0.7 C 3.7 1.7, 30.3 100.0, 16.0 96.1 C 18.9 90.0, 86.1 40.8, 78.3 47.7 Z" fill="hsl(242, 72%, 49%)" fill-opacity="0.89" stroke="none" stroke-width="3.32"  transform="translate(8.5 60.2) rotate(283.6) scale(0.52 1.56)" />
<path d="M 7.9 8.6 C 14.3 15.6, 0.0 45.5, 8.8 31.4 C 10.5 30.1, 64.7 90.2, 61.4 75.2 C 76.3 58.4, 79.5 73.5, 90.1 62.9 C 91.6 57.5, 68.6 25.7, 75.9 23.4 C 81.3 24.3, 65.1 19.7, 75.7 17.5 C 90.8 3.1, 88.7 23.3, 90.5 15.8 Z" fill="hsl(290, 83%, 63%)" fill-opacity="0.60" stroke="none" stroke-width="5.02" filter="url(#f1)" transform="translate(88.3 45.5) rotate(336.7) scale(1.66 1.66)" />
<path d="M 22.9 14.5 C 35.7 18.5, 56.8 73.3, 60.2 73.6 C 52.0 78.6, 2.7 79.3, 0.4 68.6 C 0.0 56.2, 85.5 8.1, 79.3 8.5 C 97.3 14.0, 21.9 31.5, 9.1 43.7 C 0.0 58.0, 51.0 88.0, 50.1 87.6 C 31.2 75.5, 0.0 69.4, 5.6 71.6 C 20.0 63.2, 88.3 85.8, 79.6 94.8 C 94.5 91.0, 5.4 39.4, 18.7 40.3 C 18.7 36.2, 100.0 0.0, 93.6 0.7 C 93.0 0.0, 74.6 54.9, 74.5 60.0 Z" fill="hsl(322, 74%, 44%)" fill-opacity="0.34" stroke="none" stroke-width="3.77" filter="url(#f1)" transform="translate(74.9 41.4) rotate(116.1) scale(1.02 0.98)" />
<path d="M 93.5 53.8 C 100.0 39.6, 63.3 71.7, 73.4 76.1 C 67.4 86.9, 5.8 82.9, 3.3 83.6 C 0.2 78.4, 29.0 100.0, 22.2 97.7 C 4.3 82.6, 76.0 48.2, 71.6 45.5 C 73.3 37.4, 58.1 53.2, 72.3 67.1 C 88.1 58.4, 79.5 62.6, 68.4 58.1 C 82.8 76.5, 40.5 52.9, 28.8 47.8 C 29.8 34.8, 58.7 79.1, 51.0 66.4 Z" fill="none" fill-opacity="0.37" stroke="hsl(106, 75%, 59%)" stroke-width="3.92"  transform="translate(34.6 7.9) rotate(346.7) scale(1.92 1.86)" />
<path d="M 95.2 1.4 C 100.0 0.0, 59.2 34.8, 71.5 20.9 C 84.8 18.5, 26.1 98.0, 16.0 94.6 C 17.8 98.4, 45.3 79.7, 41.8 77.8 C 42.1 67.7, 70.1 0.0, 66.1 4.7 C 65.4 11.6, 69.3 58.0, 54.3 51.0 C 55.9 68.5, 18.5 82.4, 3.7 79.6 Z" fill="hsl(106, 75%, 59%)" fill-opacity="0.27" stroke="none" stroke-width="4.79" filter="url(#f1)" transform="translate(92.1 76.8) rotate(71.7) scale(1.70 1.05)" />
<path d="M 50.4 63.7 C 49.6 64.8, 78.2 17.7, 77.8 23.2 C 75.0 38.0, 55.1 39.7, 45.5 52.2 C 27.7 63.7, 82.0 28.2, 96.7 41.3 C 93.8 56.1, 27.1 48.9, 25.2 37.2 C 40.0 28.5, 0.0 57.4, 3.1 51.3 C 0.0 57.3, 5.6 100.0, 5.1 97.9 C 16.1 77.9, 86.9 14.9, 72.4 8.0 C 63.8 16.2, 29.7 74.6, 23.5 80.0 C 30.3 87.9, 21.1 39.1, 22.0 47.5 C 7.8 43.5, 65.3 37.4, 80.0 43.0 Z" fill="hsl(322, 74%, 44%)" fill-opacity="0.37" stroke="none" stroke-width="1.45"   />
<path d="M 87.0 14.5 C 100.0 25.3, 39.1 0.0, 47.7 12.1 C 53.5 0.0, 6.6 17.9, 20.4 22.3 C 25.1 3.8, 47.5 16.1, 33.7 6.4 C 23.9 12.7, 87.6 62.6, 85.1 74.8 C 90.0 81.4, 59.9 0.0, 68.5 0.3 C 72.0 0.0, 42.9 69.4, 39.0 64.9 C 40.7 49.9, 1.4 38.5, 2.4 26.8 C 0.0 43.7, 80.2 24.6, 71.3 31.7 C 77.4 26.7, 17.0 88.5, 9.6 87.5 Z" fill="none" fill-opacity="0.94" stroke="hsl(183, 71%, 60%)" stroke-width="2.68"  transform="translate(69.5 89.0) rotate(326.4) scale(0.63 1.81)" />
<circle cx="72.8" cy="61.2" r="10.8" fill="url(#g2)" fill-opacity="0.83"  transform="translate(86.2 44.1) rotate(324.5) scale(1.22 0.77)" />
<path d="M 69.1 89.6 C 69.3 84.4, 67.5 95.2, 77.9 80.6 C 94.9 91.4, 94.9 74.6, 99.6 60.4 C 89.5 60.5, 56.6 83.2, 46.3 96.9 C 26.7 83.0, 29.5 24.3, 43.1 15.1 C 46.7 28.2, 53.0 99.8, 41.2 87.6 C 43.6 94.1, 72.3 3.7, 69.4 16.0 C 88.8 4.2, 60.6 93.1, 59.4 84.6 C 72.5 100.0, 69.4 49.8, 67.2 47.3 Z" fill="hsl(104, 72%, 65%)" fill-opacity="0.64" stroke="none" stroke-width="4.01"  transform="translate(69.9 89.5) rotate(327.5) scale(1.77 0.79)" />
<path d="M 87.4 89.5 C 75.3 86.4, 43.3 81.0, 39.8 92.6 C 50.2 86.6, 26.9 13.1, 34.8 27.1 C 31.4 12.8, 92.8 37.9, 80.5 38.9 C 76.6 21.5, 17.6 46.7, 9.2 36.8 C 25.0 34.1, 11.9 32.5, 24.6 46.8 C 22.7 50.9, 46.9 37.3, 52.1 49.6 C 39.7 32.3, 60.4 85.7, 69.9 75.1 C 81.3 73.1, 37.2 48.6, 25.2 46.0 C 24.5 61.7, 23.3 15.1, 29.5 11.5 C 43.0 25.2, 100.0 77.3, 94.6 86.3 Z" fill="hsl(86, 72%, 68%)" fill-opacity="0.40" stroke="none" stroke-width="4.52"  transform="translate(87.7 38.2) rotate(42.2) scale(1.11 1.22)" />
<path d="M 1.2 39.8 C 0.0 38.7, 28.2 64.0, 35.4 51.9 C 19.3 59.8, 82.2 12.7, 74.3 20.7 C 68.5 13.3, 96.9 65.3, 84.4 65.2 C 67.4 64.8, 80.1 52.5, 69.9 55.2 C 82.1 44.2, 85.3 59.5, 99.8 72.6 C 98.8 63.4, 16.2 27.4, 5.1 24.4 C 0.0 35.4, 64.7 100.0, 53.7 91.6 C 60.7 73.7, 100.0 100.0, 96.7 92.1 Z" fill="none" fill-opacity="0.74" stroke="hsl(322, 74%, 44%)" stroke-width="2.51"   />
<path d="M 60.2 53.7 C 72.4 44.2, 50.9 37.7, 56.6 41.5 C 64.2 53.5, 10.1 38.0, 4.0 51.5 C 0.0 67.3, 83.3 14.6, 69.2 21.9 C 55.3 3.9, 0.0 16.3, 3.4 18.7 C 18.1 0.1, 20.7 29.4, 8.4 34.6 C 3.0 33.9, 48.5 31.7, 61.9 22.2 C 71.8 27.6, 57.6 8.1, 59.7 11.0 C 48.8 7.1, 79.7 46.4, 89.6 36.9 C 100.0 25.2, 45.6 35.1, 30.7 35.6 Z" fill="none" fill-opacity="0.70" stroke="hsl(2, 82%, 55%)" stroke-width="4.97"  transform="translate(88.6 56.5) rotate(184.0) scale(0.80 1.46)" />
<circle cx="55.0" cy="9.9" r="12.8" fill="hsl(242, 72%, 49%)" fill-opacity="0.58"  transform="translate(61.5 67.1) rotate(220.4) scale(1.31 0.71)" />
<rect x="64.4" y="88.3" width="20.4" height="11.0" rx="15.9" fill="none" fill-opacity="0.41" stroke="hsl(104, 72%, 65%)" stroke-width="1.9"  transform="translate(70.4 89.3) rotate(246.7) scale(1.53 1.67)" />
<path d="M 62.9 75.7 C 55.0 90.2, 20.4 48.1, 33.1 42.1 C 39.0 23.7, 72.9 12.6, 71.0 22.6 C 71.5 21.8, 22.0 56.9, 17.5 43.7 C 36.0 42.7, 46.1 53.3, 39.2 42.7 C 58.7 55.6, 38.5 63.4, 41.4 74.6 C 30.5 64.5, 0.0 0.1, 5.6 11.5 Z" fill="hsl(322, 74%, 44%)" fill-opacity="0.31" stroke="none" stroke-width="4.84"  transform="translate(34.2 10.6) rotate(33.7) scale(1.48 0.71)" />
<path d="M 75.6 95.4 C 82.5 95.7, 47.6 70.6, 44.0 63.6 C 41.6 65.3, 29.5 47.5, 37.8 42.3 C 26.9 55.0, 63.6 56.9, 53.2 53.2 C 64.3 56.1, 50.7 81.0, 43.3 74.6 C 40.3 65.2, 86.7 94.9, 88.6 90.2 C 81.5 100.0, 70.8 16.2, 72.1 14.4 C 52.6 4.4, 72.7 98.4, 58.0 90.2 C 72.0 100.0, 20.5 10.4, 10.6 7.4 Z" fill="hsl(86, 72%, 68%)" fill-opacity="0.31" stroke="none" stroke-width="3.89"  transform="translate(12.4 68.4) rotate(220.7) scale(0.85 1.49)" />
<rect x="69.3" y="61.6" width="29.6" height="10.6" rx="5.7" fill="none" fill-opacity="0.32"   transform="translate(58.9 64.8) rotate(319.2) scale(0.56 1.17)" />
<circle cx="30.0" cy="69.6" r="8.7" fill="hsl(322, 74%, 44%)" fill-opacity="0.98"  transform="translate(68.8 28.1) rotate(329.1) scale(1.21 1.25)" />
<circle cx="17.6" cy="73.4" r="10.4" fill="hsl(144, 86%, 72%)" fill-opacity="0.48"  transform="translate(2.7 16.2) rotate(359.8) scale(2.00 1.56)" />
<path d="M 44.1 66.0 C 33.3 75.8, 69.7 71.2, 83.8 80.5 C 82.6 95.7, 24.9 69.4, 22.7 60.7 C 10.7 67.0, 14.4 72.1, 3.8 64.3 C 0.0 74.4, 87.2 24.0, 85.4 13.8 C 88.4 1.1, 36.3 100.0, 47.3 93.8 C 38.6 75.2, 85.5 77.0, 87.2 72.3 C 90.4 54.0, 0.0 32.9, 9.0 30.8 C 0.0 44.7, 82.3 36.1, 96.5 21.2 C 98.6 26.3, 97.4 40.1, 92.0 48.3 C 73.1 58.1, 0.0 89.3, 2.2 98.8 Z" fill="none" fill-opacity="0.85" stroke="hsl(290, 83%, 63%)" stroke-width="4.47"  transform="translate(70.0 23.0) rotate(290.5) scale(1.64 0.66)" />
<path d="M 20.9 88.9 C 19.8 82.4, 23.6 57.8, 28.7 53.0 C 31.7 71.9, 44.7 31.2, 44.8 37.0 C 35.4 44.7, 50.2 70.2, 64.3 65.5 C 54.7 57.8, 46.7 0.9, 47.2 15.9 C 53.2 25.4, 56.2 45.2, 56.7 49.0 C 41.0 50.0, 100.0 21.3, 89.2 18.2 C 100.0 18.6, 84.6 75.6, 89.2 66.3 C 96.6 54.0, 100.0 38.9, 92.2 39.4 Z" fill="none" fill-opacity="0.67" stroke="hsl(144, 86%, 72%)" stroke-width="2.32" filter="url(#f1)" transform="translate(45.4 40.2) rotate(24.9) scale(1.94 1.06)" />
<path d="M 79.7 27.5 C 97.4 31.2, 53.9 61.3, 58.1 55.8 C 66.3 36.7, 100.0 96.8, 87.7 98.6 C 95.2 100.0, 40.6 95.1, 31.4 95.9 C 26.2 85.1, 92.4 87.3, 98.6 88.0 C 100.0 70.3, 25.8 89.1, 38.3 92.7 C 46.7 100.0, 37.8 58.5, 42.0 55.9 C 55.9 57.7, 68.6 85.0, 58.2 73.9 C 49.3 73.7, 68.9 79.4, 73.7 70.6 C 73.8 77.0, 63.9 33.7, 72.3 19.7 C 63.5 39.3, 11.2 10.9, 21.8 20.0 Z" fill="none" fill-opacity="0.68" stroke="hsl(322, 74%, 44%)" stroke-width="2.33"   />
<path d="M 62.1 82.8 C 45.1 93.7, 40.6 74.2, 44.2 84.7 C 37.3 84.0, 54.9 100.0, 67.5 99.6 C 73.9 100.0, 100.0 68.4, 97.6 63.1 C 94.1 59.6, 45.3 97.6, 60.1 87.0 C 75.6 100.0, 96.2 47.7, 98.0 56.0 C 93.3 38.9, 97.7 55.1, 97.5 42.5 C 90.9 42.4, 31.9 100.0, 18.4 94.4 C 27.2 100.0, 53.7 8.7, 65.8 15.7 C 61.4 23.0, 39.0 10.8, 49.5 2.6 C 61.8 0.0, 4.6 46.0, 8.5 46.1 Z" fill="none" fill-opacity="0.87" stroke="hsl(104, 72%, 65%)" stroke-width="4.87"  transform="translate(50.1 36.2) rotate(147.8) scale(1.93 1.58)" />
<path d="M 74.7 21.5 C 90.2 9.5, 23.8 23.3, 33.0 34.1 C 48.9 21.1, 0.0 51.5, 7.0 38.9 C 0.0 40.8, 38.2 72.4, 47.7 60.5 C 33.9 75.3, 64.2 5.0, 68.1 18.6 C 54.9 30.9, 23.9 7.7, 25.2 14.9 C 25.4 28.8, 80.3 24.3, 89.2 10.4 C 90.8 8.2, 35.7 48.2, 22.2 60.7 C 36.7 57.6, 29.2 47.2, 27.3 57.1 Z" fill="hsl(104, 72%, 65%)" fill-opacity="0.32" stroke="none" stroke-width="5.19"   />
<rect x="27.2" y="39.7" width="41.8" height="38.3" rx="0" fill="none" fill-opacity="0.49"  filter="url(#f1)" transform="translate(67.6 12.6) rotate(101.0) scale(1.29 1.23)" />
<rect x="24.6" y="64.3" width="42.7" height="24.5" rx="1.0" fill="hsl(242, 72%, 49%)" fill-opacity="0.33" stroke="hsl(106, 75%, 59%)" stroke-width="3.4"  transform="translate(30.1 48.2) rotate(235.9) scale(1.23 0.84)" />
<path d="M 89.0 99.3 C 73.2 96.2, 34.4 18.1, 48.9 31.0 C 36.6 38.3, 85.7 2.4, 99.7 7.6 C 99.9 5.4, 54.4 69.0, 48.8 71.4 C 39.3 90.7, 86.6 34.2, 82.0 36.2 C 92.0 16.8, 82.1 23.0, 86.6 22.6 C 82.1 30.3, 84.4 13.4, 70.2 21.5 C 51.7 17.2, 10.5 40.1, 15.8 43.4 C 26.7 41.5, 72.8 24.5, 78.1 36.6 C 80.4 21.4, 68.0 38.7, 63.0 26.6 C 56.7 36.0, 70.0 8.7, 77.8 4.4 Z" fill="hsl(106, 75%, 59%)" fill-opacity="0.30" stroke="none" stroke-width="1.31"   />
<circle cx="61.7" cy="34.4" r="4.2" fill="url(#g2)" fill-opacity="0.80"  transform="translate(88.4 75.0) rotate(208.2) scale(0.63 1.21)" />
<rect x="49.0" y="88.0" width="24.7" height="10.5" rx="13.8" fill="hsl(290, 83%, 63%)" fill-opacity="0.29"    />
<path d="M 67.8 35.6 C 64.3 43.8, 35.1 6.9, 30.9 1.9 C 24.1 0.0, 61.0 94.6, 75.8 79.7 C 95.3 64.3, 0.4 58.8, 5.2 56.9 C 0.0 75.8, 79.3 21.8, 89.0 29.6 C 93.4 37.5, 16.8 46.9, 13.5 56.3 C 8.5 48.4, 78.2 26.9, 65.5 39.5 Z" fill="hsl(40, 53%, 69%)" fill-opacity="0.92" stroke="none" stroke-width="3.54"  transform="translate(72.8 81.1) rotate(200.9) scale(1.75 1.37)" />
<path d="M 58.5 99.2 C 62.7 100.0, 33.8 40.1, 23.8 42.1 C 21.8 59.6, 0.0 81.5, 11.0 68.9 C 15.2 70.4, 73.7 44.2, 66.3 34.0 C 65.7 19.9, 50.8 70.2, 37.0 79.8 C 46.3 63.4, 48.7 75.2, 52.2 86.2 C 50.1 83.3, 100.0 97.1, 97.3 92.9 Z" fill="none" fill-opacity="0.60" stroke="hsl(83, 65%, 44%)" stroke-width="5.28" filter="url(#f1)" transform="translate(30.4 9.8) rotate(283.0) scale(1.02 1.91)" />
<rect x="18.5" y="39.0" width="45.1" height="35.9" rx="8.6" fill="none" fill-opacity="0.84"   transform="translate(71.6 28.2) rotate(302.3) scale(1.78 1.76)" />
<path d="M 35.6 54.4 C 52.2 49.5, 84.6 100.0, 91.7 94.6 C 100.0 100.0, 70.8 99.5, 56.0 99.8 C 53.8 100.0, 44.8 74.2, 41.6 74.8 C 40.3 81.2, 45.6 43.2, 32.1 38.5 C 29.0 43.1, 100.0 73.0, 92.2 61.2 C 83.5 54.1, 3.3 36.6, 10.0 44.7 C 7.3 61.3, 20.3 53.3, 16.8 41.4 C 22.3 39.4, 93.0 13.4, 84.2 13.3 Z" fill="none" fill-opacity="0.44" stroke="hsl(106, 75%, 59%)" stroke-width="3.24" filter="url(#f1)" transform="translate(30.3 58.7) rotate(269.6) scale(1.46 0.91)" />
<rect x="1.3" y="3.3" width="32.4" height="26.0" rx="0" fill="hsl(242, 72%, 49%)" fill-opacity="0.42"  filter="url(#f1)" transform="translate(97.5 6.8) rotate(47.6) scale(0.70 0.87)" />
<path d="M 52.5 81.5 C 51.0 67.8, 53.1 26.1, 38.6 14.1 C 31.7 5.3, 61.8 38.9, 50.7 45.5 C 48.8 53.7, 44.7 67.5, 35.7 70.0 C 40.4 69.7, 57.2 69.8, 64.4 56.3 C 47.7 74.3, 67.0 24.1, 64.3 29.1 C 53.4 45.9, 51.1 78.1, 40.7 92.5 C 28.6 100.0, 36.7 48.6, 45.5 37.1 " fill="hsl(322, 74%, 44%)" fill-opacity="0.51" stroke="none" stroke-width="1.81"  transform="translate(22.2 57.6) rotate(151.6) scale(1.08 0.85)" />
<rect x="47.8" y="34.4" width="34.4" height="34.6" rx="10.2" fill="hsl(290, 83%, 63%)" fill-opacity="0.39"   transform="translate(89.1 4.4) rotate(343.5) scale(1.69 0.67)" />
<rect x="10.5" y="16.8" width="22.3" height="25.5" rx="18.4" fill="hsl(86, 72%, 68%)" fill-opacity="0.87"   transform="translate(46.1 2.7) rotate(70.1) scale(1.87 1.37)" />
<rect x="28.3" y="70.7" width="40.7" height="18.2" rx="0" fill="none" fill-opacity="0.70"   transform="translate(72.1 90.5) rotate(114.9) scale(0.70 1.47)" />
<path d="M 60.3 85.6 C 64.8 100.0, 66.5 85.7, 58.5 80.4 C 58.1 78.9, 0.0 71.0, 0.7 85.5 C 2.2 75.3, 45.8 75.1, 38.1 74.3 C 35.8 54.9, 0.0 0.0, 4.4 6.2 C 0.0 13.8, 29.1 54.0, 35.6 67.8 C 28.0 57.6, 66.9 92.1, 78.4 85.0 C 68.4 84.9, 66.4 88.3, 72.4 75.8 Z" fill="none" fill-opacity="0.53" stroke="hsl(290, 83%, 63%)" stroke-width="1.32"  transform="translate(5.3 61.4) rotate(303.0) scale(1.77 1.34)" />
<circle cx="2.1" cy="96.3" r="9.4" fill="url(#g2)" fill-opacity="0.42"   />
<circle cx="4.9" cy="98.3" r="0.3" fill="hsl(290, 83%, 63%)" fill-opacity="0.79"  transform="translate(90.7 16.7) rotate(73.7) scale(0.91 1.39)" />
<path d="M 31.6 41.9 C 35.6 57.0, 39.3 7.0, 24.7 12.8 C 27.7 17.1, 8.7 34.2, 2.5 39.5 C 11.4 38.2, 39.4 55.9, 43.4 68.4 C 48.9 75.2, 13.9 18.8, 6.9 15.2 C 0.0 0.0, 81.6 51.7, 67.7 48.5 C 52.0 52.7, 64.3 29.5, 54.7 34.2 C 53.9 43.2, 24.3 19.9, 26.1 8.6 Z" fill="none" fill-opacity="0.76" stroke="hsl(104, 72%, 65%)" stroke-width="5.28"   />
<path d="M 20.0 43.5 C 9.2 49.3, 13.2 9.4, 9.4 11.4 C 20.5 28.2, 30.6 23.0, 16.7 11.6 C 35.4 0.0, 23.1 19.3, 19.4 5.9 C 29.7 0.0, 76.9 19.8, 64.5 16.6 C 65.2 20.4, 81.5 6.6, 69.0 18.7 C 77.2 27.0, 49.3 84.0, 56.3 74.6 C 41.3 58.7, 25.6 41.4, 28.1 32.7 C 45.9 30.6, 77.8 36.5, 90.3 51.1 C 76.6 50.5, 51.5 64.2, 49.7 78.4 C 50.3 74.6, 5.8 40.1, 10.2 51.5 Z" fill="hsl(2, 82%, 55%)" fill-opacity="0.53" stroke="none" stroke-width="4.19"   />
<path d="M 17.0 18.2 C 7.3 23.5, 49.1 44.0, 38.3 41.8 C 57.5 42.9, 80.7 16.1, 68.1 14.7 C 87.0 5.5, 33.3 52.0, 19.5 53.1 C 1.6 67.8, 100.0 62.7, 92.7 51.8 C 74.6 51.8, 48.9 10.0, 59.3 20.8 C 47.3 8.8, 43.2 24.1, 38.1 18.9 C 49.5 14.5, 65.2 29.2, 58.4 23.9 Z" fill="hsl(290, 83%, 63%)" fill-opacity="0.86" stroke="none" stroke-width="5.13"  transform="translate(45.5 86.8) rotate(225.1) scale(0.53 1.19)" />
<rect x="20.3" y="33.7" width="40.9" height="29.0" rx="0" fill="none" fill-opacity="0.30"   transform="translate(96.7 65.0) rotate(348.8) scale(0.61 1.82)" />
<path d="M 12.7 69.0 C 5.3 71.6, 38.6 48.5, 51.3 55.4 C 51.4 36.5, 82.4 37.1, 72.7 26.0 C 66.4 28.4, 24.7 6.8, 17.8 0.8 C 12.3 2.1, 21.5 2.1, 23.8 8.9 C 5.3 0.0, 30.6 30.7, 23.8 27.2 C 26.7 23.6, 18.0 11.7, 23.2 11.6 C 23.6 22.1, 28.2 66.1, 20.1 51.4 C 12.5 43.8, 100.0 92.7, 91.8 94.1 Z" fill="none" fill-opacity="0.77" stroke="hsl(242, 72%, 49%)" stroke-width="0.92"   />
<path d="M 95.9 84.4 C 100.0 78.5, 70.2 76.0, 65.9 89.1 C 85.4 82.9, 92.1 82.8, 91.5 80.0 C 100.0 61.8, 28.2 87.1, 33.7 80.4 C 15.6 74.3, 73.0 83.8, 78.9 97.4 C 67.9 82.8, 94.8 14.5, 88.3 27.9 C 83.1 32.4, 26.2 46.3, 20.3 57.9 C 39.5 75.9, 71.5 79.8, 76.9 88.0 C 85.1 96.0, 22.1 1.4, 34.7 13.7 Z" fill="hsl(104, 72%, 65%)" fill-opacity="0.87" stroke="none" stroke-width="4.69"  transform="translate(32.1 26.4) rotate(125.2) scale(0.52 1.29)" />
<rect x="31.1" y="72.6" width="37.6" height="23.7" rx="1.3" fill="hsl(86, 72%, 68%)" fill-opacity="0.51"   transform="translate(52.6 5.6) rotate(179.3) scale(1.77 1.98)" />
<path d="M 78.8 40.7 C 59.1 48.1, 100.0 22.9, 94.0 31.6 C 80.7 45.5, 5.3 13.3, 18.2 15.4 C 12.6 28.3, 80.8 25.2, 68.7 22.4 C 76.3 23.5, 99.6 45.3, 88.9 59.7 C 71.9 51.2, 51.5 41.7, 61.9 27.9 C 60.0 28.9, 20.0 7.9, 17.5 16.4 C 37.4 6.0, 31.6 12.3, 33.6 2.5 C 26.5 0.0, 24.6 70.8, 22.9 77.9 C 34.2 80.0, 86.5 0.0, 85.4 8.2 C 79.9 23.4, 90.4 55.6, 78.0 57.6 Z" fill="hsl(144, 86%, 72%)" fill-opacity="0.98" stroke="none" stroke-width="2.76"  transform="translate(51.4 41.6) rotate(126.1) scale(1.99 1.80)" />
<path d="M 74.1 88.4 C 59.7 74.9, 63.1 80.8, 54.1 76.2 C 68.7 79.7, 81.2 0.0, 78.3 2.1 C 74.8 4.9, 6.1 12.2, 1.3 9.9 C 17.9 18.6, 80.0 13.1, 88.3 17.3 C 98.8 23.1, 76.8 51.9, 75.0 44.3 C 91.2 43.3, 61.7 25.5, 68.4 34.5 C 82.8 19.9, 18.3 24.3, 12.4 36.2 C 26.2 42.2, 34.1 62.5, 36.2 69.5 " fill="none" fill-opacity="0.90" stroke="hsl(106, 75%, 59%)" stroke-width="2.64"  transform="translate(44.9 94.2) rotate(21.5) scale(1.59 1.44)" />
<path d="M 5.6 27.7 C 0.0 13.8, 85.4 94.6, 93.9 90.2 C 91.1 100.0, 19.3 37.0, 14.0 39.4 C 13.2 44.5, 30.2 61.3, 40.3 55.0 C 36.2 67.5, 68.6 66.6, 81.5 69.4 C 68.1 68.0, 88.2 2.3, 92.6 11.7 C 97.7 26.4, 39.3 67.0, 50.5 68.9 C 67.4 50.2, 55.7 47.0, 40.7 58.9 C 40.0 42.6, 35.1 7.2, 26.5 1.2 C 25.3 12.4, 9.7 33.2, 14.7 40.0 C 14.8 20.3, 80.2 11.0, 65.7 2.4 Z" fill="hsl(40, 53%, 69%)" fill-opacity="0.30" stroke="none" stroke-width="4.65"   />
<path d="M 10.8 33.6 C 29.8 37.2, 71.4 17.2, 65.5 26.5 C 51.9 15.5, 62.1 70.8, 69.4 68.0 C 73.6 64.7, 29.9 50.1, 19.3 57.8 C 12.0 38.8, 3.2 74.4, 12.3 76.6 C 11.9 81.7, 79.0 11.5, 91.8 9.0 C 100.0 11.2, 32.8 19.6, 30.1 5.3 C 45.5 11.1, 3.8 74.5, 16.5 66.2 C 22.8 54.2, 85.0 71.2, 75.2 70.2 Z" fill="hsl(183, 71%, 60%)" fill-opacity="0.37" stroke="none" stroke-width="4.45"  transform="translate(86.2 50.8) rotate(308.7) scale(0.56 1.74)" />
<circle cx="1.4" cy="69.8" r="1.2" fill="url(#g2)" fill-opacity="0.49"  transform="translate(90.3 4.9) rotate(204.4) scale(1.92 0.52)" />
<circle cx="15.7" cy="37.8" r="11.8" fill="url(#g0)" fill-opacity="0.56"   />
<circle cx="52.3" cy="58.2" r="1.2" fill="url(#g0)" fill-opacity="0.78"  transform="translate(50.5 66.2) rotate(111.1) scale(0.50 0.78)" />
<path d="M 55.4 90.5 C 70.5 74.0, 83.9 17.8, 83.9 5.6 C 97.9 5.8, 31.1 0.3, 19.9 14.8 C 39.1 6.8, 1.9 48.8, 7.5 51.8 C 14.5 41.8, 15.6 78.2, 27.2 68.6 C 23.9 82.1, 22.7 49.7, 14.7 35.0 C 0.7 22.3, 45.9 81.0, 37.1 89.3 Z" fill="none" fill-opacity="0.91" stroke="hsl(40, 53%, 69%)" stroke-width="4.41"  transform="translate(67.1 14.2) rotate(200.3) scale(1.19 1.06)" />
<circle cx="1.9" cy="55.2" r="0.5" fill="url(#g0)" fill-opacity="0.52"   />
<path d="M 8.5 97.8 C 0.0 100.0, 0.0 39.3, 0.2 33.6 C 8.2 19.6, 100.0 35.9, 98.8 36.1 C 97.8 47.7, 75.9 23.2, 73.6 9.1 C 86.5 9.3, 86.2 92.8, 71.2 82.4 C 87.0 84.3, 79.7 68.6, 88.7 53.9 C 100.0 38.7, 60.4 6.5, 45.6 1.9 Z" fill="none" fill-opacity="0.42" stroke="hsl(83, 65%, 44%)" stroke-width="4.69"  transform="translate(77.5 95.7) rotate(333.8) scale(1.11 0.67)" />
<path d="M 74.4 56.9 C 82.9 60.1, 6.0 5.5, 20.0 9.7 C 37.3 17.0, 33.2 6.4, 32.1 3.8 C 19.0 1.0, 89.3 39.8, 76.1 28.1 C 90.4 22.6, 24.0 44.5, 36.6 50.1 C 53.1 69.0, 55.3 43.0, 45.0 31.9 C 55.7 49.2, 73.9 47.8, 67.2 51.4 Z" fill="hsl(2, 82%, 55%)" fill-opacity="0.88" stroke="none" stroke-width="3.68" filter="url(#f1)" transform="translate(66.6 75.7) rotate(345.9) scale(0.86 1.30)" />
<path d="M 41.0 49.2 C 43.2 40.3, 98.7 44.3, 92.9 47.1 C 83.2 57.4, 81.6 0.0, 95.0 3.8 C 100.0 16.0, 29.5 25.9, 38.0 21.4 C 41.5 31.6, 24.3 16.8, 31.5 22.5 C 38.0 31.8, 100.0 58.1, 95.4 56.2 C 100.0 49.6, 45.9 8.0, 52.3 17.0 C 49.7 5.4, 0.0 35.6, 7.1 24.3 C 0.0 8.1, 35.3 88.0, 41.6 99.2 Z" fill="none" fill-opacity="0.54" stroke="hsl(322, 74%, 44%)" stroke-width="2.82" filter="url(#f1)" transform="translate(30.7 14.0) rotate(291.6) scale(1.31 1.98)" />
<rect x="18.7" y="42.4" width="30.1" height="39.5" rx="0" fill="none" fill-opacity="0.92"  filter="url(#f1)" transform="translate(16.5 49.6) rotate(221.8) scale(1.45 0.99)" />
<circle cx="38.9" cy="52.7" r="9.6" fill="url(#g1)" fill-opacity="0.49"  transform="translate(54.0 13.0) rotate(190.2) scale(1.36 0.77)" />
<path d="M 62.8 9.5 C 45.5 9.1, 81.4 30.2, 78.1 38.1 C 81.1 18.8, 32.6 0.0, 23.3 10.1 C 39.7 6.3, 91.7 57.9, 81.7 65.4 C 97.5 58.7, 85.1 16.5, 75.6 10.6 C 77.1 1.7, 81.9 79.9, 76.9 85.9 C 87.1 100.0, 100.0 41.2, 94.4 54.7 C 100.0 72.4, 54.7 71.4, 64.0 82.9 C 57.2 64.7, 59.4 1.9, 58.1 3.0 C 51.0 0.0, 51.3 0.3, 65.0 5.9 C 78.9 0.0, 94.0 90.5, 87.6 88.9 Z" fill="hsl(40, 53%, 69%)" fill-opacity="0.99" stroke="none" stroke-width="2.59"  transform="translate(54.6 21.6) rotate(222.9) scale(1.43 0.66)" />
<circle cx="58.6" cy="38.8" r="12.7" fill="hsl(104, 72%, 65%)" fill-opacity="0.65" filter="url(#f1)" transform="translate(72.9 55.0) rotate(125.8) scale(1.27 1.83)" />
<circle cx="52.2" cy="4.6" r="2.1" fill="hsl(242, 72%, 49%)" fill-opacity="0.77"  transform="translate(31.2 44.2) rotate(10.9) scale(1.39 1.93)" />
<path d="M 61.8 5.4 C 42.2 0.4, 39.7 77.6, 49.6 72.4 C 36.9 71.7, 80.7 74.9, 77.5 75.7 C 65.9 85.5, 96.3 84.3, 85.7 90.6 C 73.9 100.0, 57.7 36.9, 51.5 25.1 C 59.7 41.6, 89.8 93.6, 81.4 93.5 C 71.3 83.8, 60.4 72.6, 74.0 67.0 Z" fill="hsl(83, 65%, 44%)" fill-opacity="0.95" stroke="none" stroke-width="2.85" filter="url(#f1)" transform="translate(94.3 69.7) rotate(341.7) scale(0.98 1.16)" />
<path d="M 59.3 39.9 C 66.2 59.0, 82.9 85.5, 82.0 82.0 C 71.6 92.1, 95.3 31.2, 90.1 24.6 C 82.0 17.9, 80.9 76.0, 90.1 69.8 C 100.0 73.2, 77.7 15.1, 66.4 13.2 C 67.5 0.0, 13.3 100.0, 19.5 95.0 C 0.0 96.5, 83.8 15.4, 79.1 4.6 Z" fill="hsl(104, 72%, 65%)" fill-opacity="0.53" stroke="none" stroke-width="3.97"  transform="translate(20.5 70.2) rotate(35.0) scale(1.94 1.71)" />
<circle cx="1.8" cy="19.5" r="7.7" fill="url(#g1)" fill-opacity="0.85"  transform="translate(25.7 13.3) rotate(67.6) scale(1.87 1.68)" />
<circle cx="98.9" cy="60.2" r="9.2" fill="url(#g1)" fill-opacity="0.92"  transform="translate(29.4 6.2) rotate(55.7) scale(1.56 0.94)" />
<circle cx="12.4" cy="11.3" r="11.6" fill="hsl(83, 65%, 44%)" fill-opacity="0.97" filter="url(#f1)" transform="translate(58.0 45.1) rotate(136.1) scale(0.69 1.38)" />
<rect x="23.7" y="48.7" width="34.1" height="17.8" rx="0.6" fill="none" fill-opacity="0.69" stroke="hsl(83, 65%, 44%)" stroke-width="2.4" filter="url(#f1)" transform="translate(40.2 81.4) rotate(22.5) scale(1.71 1.88)" />
<path d="M 53.6 39.8 C 60.3 50.3, 94.4 29.2, 88.6 20.7 C 89.9 37.1, 85.2 82.7, 70.3 82.7 C 69.2 81.3, 47.4 86.5, 32.8 84.3 C 33.7 96.7, 55.7 10.3, 50.3 20.8 C 60.9 7.1, 88.1 75.0, 83.1 68.0 C 69.5 82.1, 49.9 74.0, 46.4 79.8 C 28.8 87.1, 1.2 68.2, 12.7 63.4 C 0.0 81.8, 11.4 61.8, 13.9 49.4 C 0.0 63.8, 74.9 66.0, 69.2 55.9 Z" fill="none" fill-opacity="0.91" stroke="hsl(83, 65%, 44%)" stroke-width="1.80"  transform="translate(90.0 33.8) rotate(218.5) scale(1.36 1.53)" />
<path d="M 48.7 78.3 C 56.3 93.8, 45.6 44.7, 32.7 32.0 C 19.2 41.6, 63.2 9.0, 52.7 8.2 C 71.3 15.3, 35.8 42.3, 47.2 41.3 C 58.5 51.0, 0.0 100.0, 0.7 87.8 C 19.3 92.1, 51.5 13.6, 62.3 13.2 C 78.6 18.2, 46.0 28.9, 45.2 19.3 C 26.3 15.7, 66.7 43.7, 73.3 57.2 C 89.8 65.5, 79.1 55.6, 93.3 69.6 Z" fill="hsl(83, 65%, 44%)" fill-opacity="0.70" stroke="none" stroke-width="0.88" filter="url(#f1)" transform="translate(46.1 91.2) rotate(303.2) scale(1.63 1.66)" />
<rect x="10.7" y="48.8" width="28.0" height="19.5" rx="0" fill="none" fill-opacity="0.46"   transform="translate(52.5 23.4) rotate(316.8) scale(1.47 0.58)" />
<path d="M 81.3 38.2 C 88.2 46.4, 70.5 72.4, 76.6 61.0 C 71.5 47.6, 18.0 31.5, 21.1 37.3 C 1.5 22.3, 88.6 43.6, 82.7 47.1 C 65.5 32.7, 44.7 100.0, 55.8 94.2 C 64.5 87.1, 85.0 91.1, 88.6 91.8 C 70.0 100.0, 13.9 27.4, 5.8 15.9 C 16.7 0.0, 23.2 100.0, 27.1 93.7 C 29.4 100.0, 63.6 66.3, 62.0 78.7 C 62.6 71.3, 85.6 100.0, 92.1 98.7 C 92.4 100.0, 6.4 32.5, 3.3 22.6 Z" fill="none" fill-opacity="0.67" stroke="hsl(290, 83%, 63%)" stroke-width="4.87"  transform="translate(1.3 50.8) rotate(30.0) scale(1.51 1.82)" />
<rect x="5.3" y="20.7" width="45.0" height="23.7" rx="0" fill="none" fill-opacity="0.83" stroke="hsl(151, 70%, 62%)" stroke-width="4.9"  transform="translate(33.6 22.5) rotate(25.1) scale(0.84 1.41)" />
<path d="M 76.7 92.6 C 57.9 95.4, 41.6 90.2, 48.3 99.7 C 64.6 100.0, 2.9 87.8, 13.9 93.8 C 32.7 85.7, 36.7 14.6, 44.9 3.3 C 34.6 10.2, 84.9 73.3, 76.7 76.8 C 86.0 57.8, 43.1 53.5, 53.7 48.4 C 49.8 51.0, 84.6 96.6, 75.8 85.5 C 63.1 70.7, 63.2 14.0, 56.9 26.5 Z" fill="none" fill-opacity="0.93" stroke="hsl(106, 75%, 59%)" stroke-width="4.73"  transform="translate(54.0 92.8) rotate(61.8) scale(1.87 0.85)" />
<path d="M 9.7 63.3 C 14.7 62.1, 11.8 34.2, 22.0 22.1 C 41.5 5.3, 72.4 62.9, 58.6 48.4 C 57.5 51.4, 13.3 23.6, 11.7 10.3 C 23.5 26.8, 57.3 47.1, 52.6 40.5 C 68.3 35.0, 28.9 20.3, 36.5 6.0 C 46.4 0.0, 97.1 82.3, 99.0 71.4 C 100.0 70.0, 9.5 38.0, 17.3 39.8 C 29.6 26.4, 33.0 76.2, 41.7 67.8 C 43.8 73.0, 44.2 100.0, 41.3 89.5 Z" fill="none" fill-opacity="0.80" stroke="hsl(322, 74%, 44%)" stroke-width="2.60" filter="url(#f1)" transform="translate(43.9 71.7) rotate(19.0) scale(0.62 1.46)" />
<path d="M 11.6 85.8 C 0.0 80.7, 100.0 22.9, 90.1 35.2 C 78.9 45.8, 21.1 82.2, 9.6 83.7 C 13.0 98.1, 98.1 80.5, 97.9 91.7 C 100.0 100.0, 73.8 96.8, 86.4 88.8 C 100.0 100.0, 42.4 30.0, 37.1 36.3 C 34.3 47.4, 77.5 100.0, 78.9 97.4 C 62.8 89.5, 49.3 93.6, 44.4 93.1 Z" fill="hsl(144, 86%, 72%)" fill-opacity="0.63" stroke="none" stroke-width="4.52"  transform="translate(89.5 17.5) rotate(259.9) scale(1.46 1.10)" />
<path d="M 79.1 34.0 C 87.9 29.5, 25.7 31.1, 22.5 35.3 C 22.9 54.4, 79.2 58.3, 73.4 70.6 C 85.2 83.1, 79.3 44.7, 89.9 49.6 C 71.9 51.5, 20.9 78.0, 25.2 73.4 C 30.1 60.6, 71.0 89.4, 74.1 77.2 C 54.4 57.9, 34.4 33.3, 21.8 38.4 C 27.9 26.1, 62.4 38.9, 53.6 44.5 Z" fill="hsl(2, 82%, 55%)" fill-opacity="0.37" stroke="none" stroke-width="4.54"  transform="translate(95.8 32.1) rotate(257.5) scale(0.66 1.71)" />
<path d="M 22.7 49.5 C 38.1 45.5, 98.7 91.3, 87.9 93.4 C 100.0 100.0, 60.2 15.0, 75.0 10.4 C 78.0 6.3, 38.6 64.5, 35.8 53.0 C 54.6 46.9, 69.5 95.8, 82.0 83.1 C 94.1 83.5, 13.2 41.4, 18.1 40.1 C 30.6 23.2, 78.7 76.1, 88.8 68.9 C 72.6 86.7, 15.9 66.4, 27.4 72.1 C 18.9 90.2, 46.6 64.8, 59.2 59.6 " fill="none" fill-opacity="0.99" stroke="hsl(322, 74%, 44%)" stroke-width="0.84"   />
<circle cx="26.7" cy="54.1" r="11.6" fill="url(#g0)" fill-opacity="0.60"   />
<rect x="9.0" y="60.5" width="43.8" height="14.0" rx="0" fill="none" fill-opacity="0.83" stroke="hsl(151, 70%, 62%)" stroke-width="3.4"  transform="translate(95.4 14.0) rotate(153.3) scale(0.58 1.55)" />
<circle cx="15.8" cy="68.4" r="1.8" fill="url(#g0)" fill-opacity="0.83"   />
<circle cx="63.3" cy="90.0" r="4.2" fill="hsl(144, 86%, 72%)" fill-opacity="0.95"  transform="translate(30.1 90.5) rotate(127.1) scale(0.99 1.32)" />
<rect x="37.6" y="59.2" width="23.1" height="31.6" rx="18.6" fill="hsl(106, 75%, 59%)" fill-opacity="0.93"   transform="translate(63.4 75.5) rotate(175.4) scale(1.26 0.51)" />
<rect x="37.9" y="39.3" width="43.0" height="18.5" rx="0" fill="hsl(104, 72%, 65%)" fill-opacity="0.24" stroke="hsl(104, 72%, 65%)" stroke-width="2.2"  transform="translate(47.3 38.3) rotate(262.0) scale(1.46 0.94)" />
<circle cx="61.6" cy="86.6" r="6.7" fill="hsl(242, 72%, 49%)" fill-opacity="0.78"  transform="translate(94.6 13.8) rotate(24.5) scale(1.87 0.61)" />
<rect x="67.1" y="7.8" width="25.0" height="21.8" rx="0" fill="none" fill-opacity="0.76"   transform="translate(83.0 76.2) rotate(90.1) scale(1.60 0.94)" />
<circle cx="96.9" cy="17.0" r="3.9" fill="hsl(2, 82%, 55%)" fill-opacity="0.88"  transform="translate(96.4 22.7) rotate(305.9) scale(1.46 1.41)" />
<path d="M 17.5 85.1 C 5.4 100.0, 29.2 80.4, 16.2 80.6 C 2.8 65.0, 24.5 34.7, 19.7 39.3 C 35.2 55.0, 99.5 56.7, 89.0 48.0 C 89.9 54.6, 55.6 25.1, 44.5 20.7 C 41.9 13.7, 53.0 57.0, 44.6 53.9 C 62.7 50.1, 40.6 81.7, 49.8 82.6 C 40.7 96.9, 60.1 70.9, 48.5 78.8 C 31.9 91.5, 89.3 74.6, 97.0 65.6 Z" fill="none" fill-opacity="0.41" stroke="hsl(106, 75%, 59%)" stroke-width="1.09"   />
<path d="M 26.1 98.0 C 25.4 100.0, 0.0 57.8, 6.3 54.4 C 0.0 64.9, 29.5 58.8, 21.8 44.6 C 32.8 27.0, 55.2 55.7, 43.8 58.4 C 42.4 55.7, 41.4 64.9, 31.1 66.7 C 45.8 62.8, 47.2 9.9, 50.2 16.6 C 31.8 18.7, 55.0 85.6, 53.8 83.5 C 49.2 85.2, 35.3 54.4, 27.1 41.1 C 30.0 28.0, 55.6 49.3, 64.5 60.3 C 73.6 74.6, 34.2 86.4, 40.5 84.7 C 32.3 78.4, 0.0 75.8, 3.9 79.3 Z" fill="hsl(242, 72%, 49%)" fill-opacity="0.79" stroke="none" stroke-width="3.78"   />
<circle cx="59.8" cy="5.7" r="2.8" fill="url(#g1)" fill-opacity="0.80" filter="url(#f1)" transform="translate(71.4 38.0) rotate(72.9) scale(1.02 1.07)" />
<path d="M 77.7 55.2 C 86.0 74.8, 96.1 51.1, 93.9 43.6 C 76.2 40.4, 100.0 10.0, 89.4 23.3 C 79.4 9.6, 83.2 100.0, 82.9 99.7 C 74.5 100.0, 40.1 41.7, 25.2 31.4 C 40.1 38.0, 9.4 7.8, 4.1 0.5 C 0.0 0.0, 63.5 51.4, 50.0 43.3 C 34.5 47.9, 60.5 59.6, 60.1 45.1 Z" fill="hsl(151, 70%, 62%)" fill-opacity="0.85" stroke="none" stroke-width="2.47"  transform="translate(93.7 37.2) rotate(134.3) scale(1.28 1.98)" />
<circle cx="8.2" cy="41.3" r="9.3" fill="url(#g2)" fill-opacity="0.70"  transform="translate(25.1 91.6) rotate(239.5) scale(1.83 0.72)" />
<rect x="56.5" y="37.6" width="24.8" height="22.7" rx="0" fill="hsl(106, 75%, 59%)" fill-opacity="0.44" stroke="hsl(242, 72%, 49%)" stroke-width="1.2"  transform="translate(88.7 78.0) rotate(298.9) scale(1.39 1.15)" />
<circle cx="35.1" cy="59.8" r="7.1" fill="hsl(2, 82%, 55%)" fill-opacity="0.92"  transform="translate(53.2 17.9) rotate(337.0) scale(1.25 1.80)" />
<path d="M 34.4 8.6 C 23.1 8.6, 31.3 85.4, 37.2 97.8 C 25.6 79.8, 70.4 74.6, 58.3 64.9 C 58.8 82.1, 29.7 15.1, 18.8 26.1 C 3.9 21.3, 39.6 71.9, 35.0 61.8 C 53.9 78.5, 58.4 5.3, 48.0 15.3 C 57.0 3.4, 81.8 5.5, 91.1 1.6 C 71.5 13.3, 28.9 100.0, 33.1 95.2 C 19.7 100.0, 93.8 68.1, 94.5 65.6 Z" fill="none" fill-opacity="0.53" stroke="hsl(183, 71%, 60%)" stroke-width="4.83"  transform="translate(96.6 50.4) rotate(143.6) scale(1.58 0.72)" />
<path d="M 62.4 6.3 C 67.4 6.2, 39.7 74.2, 41.4 59.3 C 25.6 40.1, 97.5 15.5, 99.5 21.7 C 97.7 23.6, 19.4 87.6, 23.1 96.2 C 19.2 87.2, 56.8 45.2, 54.5 58.1 C 53.5 74.1, 16.8 54.4, 31.4 68.9 C 43.4 53.8, 49.0 11.3, 60.3 6.1 C 59.6 1.3, 58.4 6.3, 72.4 5.4 Z" fill="hsl(290, 83%, 63%)" fill-opacity="0.97" stroke="none" stroke-width="1.38"  transform="translate(87.8 22.1) rotate(342.0) scale(1.78 1.65)" />
<path d="M 93.5 18.2 C 100.0 25.8, 54.5 48.0, 59.1 43.7 C 63.8 28.8, 60.7 42.9, 63.5 57.6 C 49.9 64.3, 27.7 89.2, 40.7 93.2 C 26.8 97.4, 46.3 29.3, 44.9 14.9 C 37.4 29.3, 66.8 86.5, 58.7 99.8 C 42.1 100.0, 20.7 100.0, 11.2 92.4 C 0.0 100.0, 42.9 7.0, 50.0 11.9 C 31.6 22.5, 72.5 50.3, 85.4 48.2 C 93.7 53.7, 14.8 56.2, 15.5 44.1 " fill="hsl(151, 70%, 62%)" fill-opacity="0.52" stroke="none" stroke-width="5.13"   />
<path d="M 97.8 10.7 C 100.0 0.8, 62.7 0.4, 49.7 11.2 C 39.6 0.0, 1.5 60.8, 7.3 62.8 C 3.1 72.1, 15.6 91.5, 25.4 81.1 C 33.9 90.6, 42.7 25.5, 35.3 24.0 C 21.4 31.2, 85.6 6.3, 85.8 11.6 C 70.1 18.5, 42.9 18.9, 56.9 9.0 Z" fill="hsl(242, 72%, 49%)" fill-opacity="0.66" stroke="none" stroke-width="0.96"  transform="translate(61.9 17.6) rotate(220.8) scale(1.78 0.95)" />
<path d="M 79.6 94.2 C 79.9 77.4, 42.1 45.6, 45.5 39.0 C 30.5 32.0, 46.3 22.5, 41.3 27.2 C 24.6 41.1, 87.6 65.8, 73.8 55.8 C 63.6 37.5, 76.3 44.3, 75.8 51.7 C 59.6 52.1, 88.3 29.4, 97.4 27.8 C 95.4 19.0, 11.9 59.4, 22.4 70.8 Z" fill="hsl(151, 70%, 62%)" fill-opacity="0.36" stroke="none" stroke-width="1.96"  transform="translate(61.4 14.2) rotate(178.5) scale(1.40 0.70)" />
<circle cx="44.5" cy="3.0" r="17.9" fill="hsl(104, 72%, 65%)" fill-opacity="0.55"  transform="translate(54.2 10.2) rotate(331.2) scale(0.65 1.50)" />
<path d="M 16.4 55.3 C 0.0 71.2, 36.5 88.9, 26.3 99.8 C 16.3 84.6, 14.9 28.7, 18.5 19.6 C 32.4 2.6, 86.1 60.1, 77.4 64.3 C 91.9 79.3, 40.3 66.7, 43.6 67.0 C 35.2 62.6, 12.9 23.0, 19.4 23.7 C 1.7 23.5, 83.4 9.6, 70.3 16.0 C 70.1 5.9, 15.2 45.9, 2.9 41.3 C 0.0 31.6, 54.5 94.6, 50.5 94.5 C 63.5 77.2, 28.9 28.4, 37.9 16.6 Z" fill="hsl(40, 53%, 69%)" fill-opacity="0.55" stroke="none" stroke-width="4.89"  transform="translate(84.0 15.3) rotate(98.2) scale(1.63 0.69)" />
<path d="M 53.8 56.3 C 64.1 62.2, 96.4 97.2, 82.9 87.4 C 100.0 76.7, 95.3 13.3, 99.9 2.9 C 80.8 0.0, 50.9 53.5, 36.2 52.6 C 33.1 36.0, 49.6 8.6, 52.6 21.0 C 57.5 22.5, 33.2 0.2, 41.5 2.3 C 34.5 0.0, 57.9 49.7, 60.3 37.0 C 49.2 40.5, 36.1 74.0, 39.8 71.7 Z" fill="none" fill-opacity="0.60" stroke="hsl(83, 65%, 44%)" stroke-width="3.35"  transform="translate(5.4 32.7) rotate(154.4) scale(0.85 0.83)" />
<rect x="60.1" y="28.8" width="32.7" height="26.0" rx="0" fill="hsl(106, 75%, 59%)" fill-opacity="0.64"    />
<circle cx="41.5" cy="23.8" r="2.7" fill="hsl(151, 70%, 62%)" fill-opacity="0.90"  transform="translate(36.7 75.6) rotate(27.6) scale(1.11 1.43)" />
<path d="M 34.1 86.1 C 49.5 96.7, 15.0 22.9, 1.4 30.3 C 0.0 13.4, 24.0 22.2, 15.4 15.9 C 16.6 12.1, 39.8 100.0, 32.3 99.4 C 13.7 100.0, 60.8 41.4, 60.3 46.1 C 46.6 57.6, 58.8 100.0, 66.9 91.5 C 51.2 86.6, 65.3 35.2, 74.7 44.3 C 63.9 54.9, 64.7 91.8, 56.7 78.8 Z" fill="none" fill-opacity="0.32" stroke="hsl(151, 70%, 62%)" stroke-width="3.62"  transform="translate(96.4 46.4) rotate(58.1) scale(0.98 1.56)" />
<path d="M 94.6 28.6 C 100.0 28.5, 85.5 100.0, 92.6 98.2 C 75.0 100.0, 89.2 61.8, 80.4 75.2 C 92.1 75.3, 70.3 67.1, 58.0 81.1 C 64.1 91.8, 98.2 57.8, 90.6 58.8 C 97.9 54.9, 32.0 82.2, 39.4 87.7 C 57.5 83.1, 85.4 28.4, 87.1 23.3 Z" fill="hsl(104, 72%, 65%)" fill-opacity="0.31" stroke="none" stroke-width="4.50"  transform="translate(87.5 89.1) rotate(267.9) scale(1.77 1.77)" />
<path d="M 94.2 39.2 C 81.5 47.0, 87.9 59.5, 75.7 66.7 C 67.0 67.2, 86.4 95.0, 76.7 84.4 C 83.3 100.0, 14.8 35.4, 25.1 39.5 C 42.2 27.9, 12.7 76.0, 2.2 63.9 C 0.0 44.6, 53.5 8.3, 66.5 12.6 C 49.7 0.0, 28.8 0.0, 39.4 7.3 C 37.2 0.0, 100.0 48.8, 94.5 38.4 C 78.9 42.0, 15.0 49.3, 10.7 54.1 C 11.3 36.0, 0.0 81.8, 5.2 94.6 Z" fill="none" fill-opacity="0.28" stroke="hsl(83, 65%, 44%)" stroke-width="3.33"  transform="translate(72.0 9.8) rotate(277.0) scale(1.25 0.55)" />
<path d="M 80.6 82.3 C 70.2 73.5, 64.3 83.6, 65.8 90.6 C 60.7 74.1, 6.1 54.6, 5.3 45.3 C 10.9 58.3, 84.9 59.9, 92.8 70.8 C 80.0 71.8, 7.1 25.9, 4.8 11.6 C 0.0 16.2, 18.0 42.9, 14.7 44.3 C 1.1 62.3, 86.3 60.5, 75.8 59.8 C 77.4 49.5, 41.0 98.9, 40.1 96.6 C 40.9 100.0, 30.8 60.0, 42.6 53.7 C 46.4 35.2, 35.9 42.2, 45.4 39.8 C 60.2 50.3, 58.2 87.0, 50.3 97.7 Z" fill="hsl(86, 72%, 68%)" fill-opacity="0.35" stroke="none" stroke-width="3.46"  transform="translate(39.4 41.2) rotate(306.2) scale(1.04 1.94)" />
<path d="M 83.4 65.5 C 100.0 81.2, 88.7 30.2, 82.3 32.5 C 95.5 40.4, 18.6 80.3, 33.1 79.8 C 36.7 93.3, 19.5 44.1, 20.2 32.6 C 15.1 38.4, 0.0 93.6, 4.0 88.1 C 23.9 74.8, 81.3 73.9, 88.5 60.3 C 100.0 64.0, 68.9 0.0, 82.6 8.2 Z" fill="hsl(83, 65%, 44%)" fill-opacity="0.90" stroke="none" stroke-width="5.20"  transform="translate(89.8 45.7) rotate(302.6) scale(0.64 1.39)" />
<path d="M 68.5 60.7 C 83.9 68.2, 58.2 34.1, 61.5 32.3 C 64.1 18.5, 50.2 53.7, 48.2 51.9 C 59.9 49.0, 0.0 34.2, 0.7 30.8 C 0.0 23.9, 39.9 47.0, 46.1 41.5 C 30.3 54.1, 0.0 23.8, 6.2 30.4 C 0.0 41.9, 97.6 55.1, 88.1 68.1 C 94.3 49.9, 20.8 13.1, 24.8 22.6 C 19.5 5.7, 34.7 31.0, 33.3 28.0 Z" fill="hsl(2, 82%, 55%)" fill-opacity="0.34" stroke="none" stroke-width="2.51"  transform="translate(91.6 54.4) rotate(344.6) scale(1.43 1.23)" />
<rect x="42.1" y="67.9" width="28.6" height="20.6" rx="0" fill="none" fill-opacity="0.59"   transform="translate(46.0 29.2) rotate(123.2) scale(0.87 1.86)" />
<path d="M 86.9 35.6 C 82.1 39.1, 45.2 54.0, 55.3 51.5 C 39.3 70.8, 86.5 7.6, 78.3 4.6 C 63.8 24.6, 0.0 44.1, 12.8 50.0 C 23.7 42.0, 90.7 29.6, 79.2 31.7 C 78.8 50.2, 0.0 30.6, 0.7 25.1 C 7.7 20.2, 15.2 58.6, 10.4 65.0 Z" fill="none" fill-opacity="0.38" stroke="hsl(151, 70%, 62%)" stroke-width="3.80"  transform="translate(66.2 31.3) rotate(348.5) scale(0.79 1.18)" />
<path d="M 12.2 40.8 C 0.0 26.7, 81.0 65.9, 95.9 65.2 C 95.5 66.6, 71.7 13.5, 71.6 27.8 C 67.1 21.8, 9.5 90.6, 17.4 81.4 C 20.9 63.4, 16.1 80.5, 11.1 90.2 C 13.9 93.9, 0.0 54.8, 3.5 65.7 C 0.0 74.8, 83.2 11.8, 95.8 16.7 C 100.0 10.5, 70.1 61.3, 77.4 67.7 C 73.6 79.7, 85.4 33.8, 71.3 25.9 C 86.2 24.0, 16.3 7.0, 30.5 4.8 " fill="hsl(151, 70%, 62%)" fill-opacity="0.29" stroke="none" stroke-width="1.68"   />
<path d="M 81.4 45.3 C 88.9 62.4, 47.6 66.8, 33.3 74.1 C 38.0 79.8, 10.0 63.2, 18.5 58.5 C 26.2 43.2, 45.2 27.3, 34.3 26.0 C 17.7 27.8, 87.7 47.5, 83.2 44.8 C 76.8 48.6, 5.8 29.5, 0.3 22.0 C 0.0 21.4, 36.4 82.5, 30.0 67.7 Z" fill="hsl(144, 86%, 72%)" fill-opacity="0.85" stroke="none" stroke-width="2.48"  transform="translate(82.7 32.4) rotate(255.1) scale(1.06 1.92)" />
<rect x="60.3" y="30.1" width="26.8" height="36.0" rx="0" fill="hsl(83, 65%, 44%)" fill-opacity="0.87"   transform="translate(89.0 35.0) rotate(279.8) scale(1.93 0.91)" />
<rect x="2.3" y="33.4" width="38.4" height="26.6" rx="2.1" fill="none" fill-opacity="0.30"   transform="translate(92.6 14.9) rotate(339.9) scale(1.21 0.95)" />
<circle cx="31.1" cy="52.5" r="2.3" fill="hsl(144, 86%, 72%)" fill-opacity="0.83"  transform="translate(49.6 96.0) rotate(79.5) scale(1.92 1.65)" />
<circle cx="14.1" cy="35.1" r="0.4" fill="hsl(322, 74%, 44%)" fill-opacity="0.70"  transform="translate(30.9 55.2) rotate(41.2) scale(1.62 1.96)" />
<path d="M 31.9 38.7 C 33.1 20.9, 46.0 100.0, 57.7 94.7 C 43.0 95.0, 34.1 78.1, 35.8 67.2 C 30.9 55.5, 2.3 17.7, 16.7 9.5 C 10.6 21.5, 89.1 93.0, 79.4 80.8 C 97.8 91.1, 0.0 42.1, 0.1 52.3 C 0.0 54.4, 99.0 77.7, 85.1 81.1 C 76.2 63.4, 73.8 12.1, 60.4 5.7 C 73.2 0.0, 15.0 68.8, 13.0 58.3 C 24.4 39.4, 53.4 100.0, 64.6 91.0 C 58.5 100.0, 22.5 70.2, 14.1 64.7 " fill="hsl(40, 53%, 69%)" fill-opacity="0.80" stroke="none" stroke-width="1.02"  transform="translate(95.2 30.6) rotate(92.0) scale(1.29 1.34)" />
<path d="M 26.5 11.8 C 37.7 11.9, 82.3 71.2, 96.6 62.4 C 92.7 52.0, 52.0 100.0, 50.1 89.6 C 31.8 92.2, 41.7 35.8, 43.5 23.2 C 43.6 17.6, 34.7 70.7, 36.2 59.5 C 46.7 56.3, 100.0 100.0, 98.7 90.6 C 100.0 94.3, 67.7 76.6, 79.1 62.7 C 67.5 50.8, 81.9 42.2, 90.5 38.5 Z" fill="hsl(144, 86%, 72%)" fill-opacity="0.50" stroke="none" stroke-width="3.11"  transform="translate(78.9 29.2) rotate(327.8) scale(1.22 1.44)" />
<path d="M 91.9 59.5 C 74.4 52.1, 41.4 85.1, 34.8 80.6 C 38.8 83.4, 6.5 68.3, 1.3 60.2 C 15.3 51.5, 85.5 100.0, 99.4 98.6 C 93.4 100.0, 64.0 49.2, 69.3 61.9 C 81.4 62.9, 3.5 66.5, 11.4 72.7 C 15.7 80.5, 46.7 6.6, 32.9 12.3 C 19.3 4.6, 43.2 61.1, 40.1 56.0 Z" fill="hsl(183, 71%, 60%)" fill-opacity="0.59" stroke="none" stroke-width="4.93"  transform="translate(78.9 83.8) rotate(129.3) scale(1.03 1.79)" />
<path d="M 3.9 47.1 C 0.0 59.4, 45.3 29.6, 42.9 42.4 C 52.5 61.0, 88.3 80.6, 91.1 79.5 C 96.6 64.1, 51.8 18.1, 58.0 32.5 C 54.2 45.0, 36.9 36.9, 31.8 25.9 C 47.0 11.2, 20.1 83.2, 35.0 90.8 C 54.4 100.0, 35.6 4.0, 28.5 7.1 Z" fill="none" fill-opacity="0.31" stroke="hsl(83, 65%, 44%)" stroke-width="3.93"  transform="translate(23.4 97.8) rotate(190.2) scale(1.65 0.78)" />
<path d="M 9.7 92.5 C 7.1 72.6, 85.4 53.6, 86.4 49.7 C 72.4 50.0, 37.1 0.0, 32.9 5.3 C 27.0 23.3, 88.1 19.8, 77.3 23.2 C 86.8 35.3, 13.9 29.9, 26.6 17.5 C 29.0 0.2, 42.1 68.3, 43.2 55.5 C 35.2 39.2, 63.6 30.0, 73.9 32.2 C 58.0 29.6, 65.9 86.5, 80.2 87.3 C 100.0 100.0, 17.1 55.6, 21.6 44.9 Z" fill="hsl(106, 75%, 59%)" fill-opacity="0.26" stroke="none" stroke-width="1.86"  transform="translate(42.4 70.6) rotate(159.0) scale(1.73 0.90)" />
<path d="M 69.6 46.7 C 50.0 38.0, 63.5 50.2, 75.7 39.2 C 63.5 32.4, 91.7 81.2, 78.8 78.0 C 97.0 70.1, 20.5 32.8, 17.3 25.0 C 31.2 14.8, 15.8 67.5, 23.1 79.1 C 29.6 81.2, 47.7 42.2, 53.5 46.6 C 72.2 60.0, 34.7 62.2, 48.8 73.4 C 49.1 54.5, 0.0 28.9, 13.0 42.6 C 0.0 25.5, 48.8 78.8, 47.3 91.2 C 32.5 75.2, 72.1 45.8, 69.2 60.1 Z" fill="hsl(242, 72%, 49%)" fill-opacity="0.36" stroke="none" stroke-width="1.20"  transform="translate(91.0 13.7) rotate(228.2) scale(0.92 1.86)" />
<path d="M 90.8 64.4 C 94.7 76.1, 55.0 27.3, 70.0 25.6 C 83.1 22.0, 100.0 29.2, 98.3 44.1 C 94.5 50.4, 81.6 100.0, 81.6 97.6 C 98.3 100.0, 97.4 20.4, 89.9 19.5 C 84.3 17.8, 75.3 91.2, 60.6 92.1 C 74.3 95.3, 0.0 54.2, 1.9 49.4 C 0.0 49.1, 94.9 39.2, 87.9 25.4 Z" fill="hsl(151, 70%, 62%)" fill-opacity="0.71" stroke="none" stroke-width="3.73"  transform="translate(50.9 32.4) rotate(259.7) scale(1.13 1.16)" />
<path d="M 35.3 78.6 C 42.7 98.6, 70.8 85.6, 73.0 78.7 C 83.3 88.7, 29.7 32.1, 20.0 28.4 C 22.4 26.6, 100.0 41.6, 91.3 26.7 C 71.6 17.2, 81.8 84.0, 87.6 73.2 C 71.9 55.0, 68.6 49.6, 71.9 41.2 C 86.0 46.3, 37.3 100.0, 42.3 90.2 C 29.4 97.6, 43.6 21.7, 52.1 19.6 C 39.1 6.3, 35.9 34.8, 39.5 21.5 C 47.2 20.6, 58.8 78.5, 66.9 72.5 C 77.1 61.4, 1.7 14.4, 2.5 5.1 Z" fill="hsl(40, 53%, 69%)" fill-opacity="0.49" stroke="none" stroke-width="3.88"  transform="translate(16.7 13.9) rotate(227.8) scale(0.73 0.83)" />
<rect x="63.4" y="84.5" width="30.3" height="10.5" rx="4.3" fill="none" fill-opacity="0.69"   transform="translate(44.6 53.7) rotate(315.8) scale(1.48 1.00)" />
<rect x="32.4" y="63.9" width="20.3" height="35.1" rx="1.7" fill="none" fill-opacity="0.90" stroke="hsl(183, 71%, 60%)" stroke-width="1.3"  transform="translate(40.1 58.8) rotate(160.8) scale(1.57 0.78)" />
<circle cx="67.6" cy="34.4" r="4.3" fill="url(#g1)" fill-opacity="0.55"  transform="translate(30.7 69.9) rotate(332.8) scale(1.08 1.43)" />
<g opacity="0.068">
<rect x="0" y="0" width="1" height="100" fill="black" />
<rect x="22" y="0" width="1" height="100" fill="black" />
<rect x="44" y="0" width="1" height="100" fill="black" />
<rect x="66" y="0" width="1" height="100" fill="black" />
<rect x="88" y="0" width="1" height="100" fill="black" />
<rect x="0" y="0" width="100" height="1" fill="black" />
<rect x="0" y="22" width="100" height="1" fill="black" />
<rect x="0" y="44" width="100" height="1" fill="black" />
<rect x="0" y="66" width="100" height="1" fill="black" />
<rect x="0" y="88" width="100" height="1" fill="black" />
</g>

</svg>
