<?xml version="1.0" encoding="UTF-8"?>
<svg xmlns="http://www.w3.org/2000/svg" width="100" height="100" viewBox="0 0 100 100">
<defs>
<linearGradient id="g0" x1="0%" y1="0%" x2="100%" y2="100%">
<stop offset="0.0%" stop-color="hsl(106, 75%, 59%)" />
<stop offset="33.3%" stop-color="hsl(183, 71%, 60%)" />
<stop offset="66.7%" stop-color="hsl(242, 72%, 49%)" />
<stop offset="100.0%" stop-color="hsl(322, 74%, 44%)" />
</linearGradient>
<linearGradient id="g1" x1="0%" y1="0%" x2="100%" y2="100%">
<stop offset="0.0%" stop-color="hsl(290, 83%, 63%)" />
<stop offset="33.3%" stop-color="hsl(2, 82%, 55%)" />
<stop offset="66.7%" stop-color="hsl(86, 72%, 68%)" />
<stop offset="100.0%" stop-color="hsl(83, 65%, 44%)" />
</linearGradient>
<linearGradient id="g2" x1="0%" y1="0%" x2="100%" y2="100%">
<stop offset="0.0%" stop-color="hsl(40, 53%, 69%)" />
<stop offset="33.3%" stop-color="hsl(104, 72%, 65%)" />
<stop offset="66.7%" stop-color="hsl(144, 86%, 72%)" />
<stop offset="100.0%" stop-color="hsl(151, 70%, 62%)" />
</linearGradient>
</defs>

<rect x="32.8" y="39.8" width="34.9" height="29.9" rx="0" fill="none" fill-opacity="0.38"   transform="translate(12.3 26.3) rotate(261.0) scale(1.93 0.92)" />
<path d="M 49.7 64.8 C 40.4 68.3, 92.1 27.5, 83.6 22.1 C 77.1 4.1, 28.0 50.4, 20.4 43.2 C 28.8 25.3, 0.0 80.7, 6.5 77.3 C 12.0 72.3, 94.4 98.6, 81.9 85.2 C 89.5 100.0, 100.0 27.4, 96.2 39.5 C 99.4 42.6, 83.6 57.5, 71.7 61.0 " fill="none" fill-opacity="0.59" stroke="hsl(106, 75%, 59%)" stroke-width="0.94"  transform="translate(49.4 79.7) rotate(205.3) scale(0.65 0.66)" />
<path d="M 59.1 14.6 C 42.7 34.1, 69.1 7.3, 74.8 21.6 C 55.1 39.1, 93.9 62.8, 82.5 72.9 C 81.2 87.4, 64.1 87.0, 72.5 86.9 C 80.4 71.9, 51.9 30.5, 61.5 16.3 C 43.6 31.5, 71.7 55.8, 81.6 53.2 C 70.1 63.0, 89.2 65.5, 95.4 78.7 Z" fill="hsl(106, 75%, 59%)" fill-opacity="0.69" stroke="none" stroke-width="0.90"   />
<path d="M 76.8 12.9 C 77.4 12.5, 27.0 57.1, 21.9 43.7 C 41.2 47.8, 45.0 75.1, 59.1 82.4 C 62.0 65.5, 75.7 48.3, 70.3 59.9 C 86.1 71.6, 33.3 76.2, 35.4 80.9 C 51.2 84.2, 45.5 60.3, 42.1 59.5 Z" fill="hsl(151, 70%, 62%)" fill-opacity="0.88" stroke="none" stroke-width="0.94"   />
<path d="M 56.3 99.3 C 65.5 100.0, 60.8 84.4, 64.3 81.0 C 82.6 93.4, 15.0 29.9, 20.7 15.5 C 34.9 24.5, 23.1 65.6, 11.4 61.7 Z" fill="hsl(83, 65%, 44%)" fill-opacity="0.85" stroke="none" stroke-width="0.86"  transform="translate(4.4 12.8) rotate(320.9) scale(0.95 1.99)" />
<circle cx="70.4" cy="63.4" r="0.8" fill="hsl(86, 72%, 68%)" fill-opacity="0.50"   />
<path d="M 12.5 16.0 C 2.4 34.3, 14.1 84.3, 19.7 97.3 C 23.3 81.7, 54.3 55.2, 65.8 43.9 C 79.6 58.1, 40.2 98.7, 41.9 94.2 " fill="none" fill-opacity="0.66" stroke="hsl(104, 72%, 65%)" stroke-width="0.94"   />
<path d="M 23.7 31.9 C 39.8 21.1, 0.0 98.8, 10.2 86.8 C 7.5 100.0, 36.4 66.8, 46.0 68.1 C 26.7 87.9, 67.0 72.1, 61.4 78.5 C 67.3 93.4, 32.4 37.6, 17.7 44.9 C 25.6 38.7, 38.1 33.9, 37.0 42.2 C 19.2 39.9, 72.9 94.7, 59.6 91.9 C 74.4 100.0, 97.2 42.9, 90.7 37.8 Z" fill="none" fill-opacity="0.66" stroke="hsl(104, 72%, 65%)" stroke-width="1.24"  transform="translate(80.6 28.5) rotate(146.3) scale(1.99 1.26)" />
<rect x="58.1" y="58.8" width="28.6" height="12.1" rx="0" fill="none" fill-opacity="0.60" stroke="hsl(2, 82%, 55%)" stroke-width="3.4"   />
<rect x="5.3" y="80.5" width="49.5" height="13.4" rx="13.0" fill="none" fill-opacity="0.76"   transform="translate(67.2 65.3) rotate(25.0) scale(1.33 1.35)" />
<rect x="49.5" y="68.6" width="49.3" height="23.1" rx="16.9" fill="none" fill-opacity="0.89"    />
<rect x="16.6" y="18.3" width="49.4" height="33.6" rx="17.3" fill="hsl(151, 70%, 62%)" fill-opacity="0.80" stroke="hsl(144, 86%, 72%)" stroke-width="3.3"  transform="translate(82.7 30.0) rotate(263.3) scale(1.08 1.19)" />
<path d="M 22.6 57.2 C 19.6 50.0, 23.9 90.1, 28.4 93.2 C 20.3 84.3, 42.2 60.6, 46.9 63.7 C 55.8 75.5, 53.0 27.8, 57.9 16.3 " fill="none" fill-opacity="0.57" stroke="hsl(144, 86%, 72%)" stroke-width="1.22"  transform="translate(96.3 1.6) rotate(356.3) scale(0.95 1.05)" />
<path d="M 32.9 100.0 C 25.8 100.0, 74.2 8.7, 70.1 23.2 C 64.0 33.9, 92.0 7.0, 89.0 18.2 C 91.5 10.3, 62.6 52.0, 66.8 64.8 C 66.5 54.4, 58.8 86.1, 69.3 94.7 C 54.0 100.0, 20.9 0.0, 7.4 6.0 C 0.0 0.0, 86.6 68.6, 95.2 69.4 Z" fill="hsl(151, 70%, 62%)" fill-opacity="0.92" stroke="none" stroke-width="0.93"  transform="translate(86.7 76.7) rotate(122.4) scale(1.47 1.96)" />
<rect x="49.2" y="57.0" width="47.5" height="30.9" rx="11.6" fill="none" fill-opacity="0.30"   transform="translate(72.5 83.6) rotate(330.5) scale(1.30 1.19)" />
<path d="M 14.9 51.7 C 26.2 44.7, 100.0 60.1, 92.9 72.0 C 75.1 52.9, 90.4 97.1, 95.7 95.8 C 92.4 76.2, 5.1 29.9, 18.0 26.2 C 13.1 9.2, 63.8 54.6, 75.8 61.1 " fill="none" fill-opacity="0.66" stroke="hsl(106, 75%, 59%)" stroke-width="1.22"   />
<path d="M 45.6 17.3 C 35.9 7.9, 57.9 71.6, 72.0 71.0 C 85.6 57.0, 2.7 3.1, 14.3 5.1 C 33.5 21.7, 78.4 9.9, 71.7 14.4 C 87.3 6.4, 23.2 51.8, 16.3 61.8 C 24.9 72.4, 37.9 21.7, 23.0 18.1 C 35.6 36.0, 59.4 54.3, 60.2 63.1 " fill="hsl(290, 83%, 63%)" fill-opacity="0.49" stroke="none" stroke-width="0.84"  transform="translate(38.1 84.1) rotate(19.7) scale(1.33 0.72)" />
</svg>
