<?xml version="1.0" encoding="UTF-8"?>
<svg xmlns="http://www.w3.org/2000/svg" width="100" height="100" viewBox="0 0 100 100">
<defs>
<linearGradient id="g0" x1="0%" y1="0%" x2="100%" y2="100%">
<stop offset="0.0%" stop-color="hsl(106, 75%, 59%)" />
<stop offset="33.3%" stop-color="hsl(183, 71%, 60%)" />
<stop offset="66.7%" stop-color="hsl(242, 72%, 49%)" />
<stop offset="100.0%" stop-color="hsl(322, 74%, 44%)" />
</linearGradient>
<linearGradient id="g1" x1="0%" y1="0%" x2="100%" y2="100%">
<stop offset="0.0%" stop-color="hsl(290, 83%, 63%)" />
<stop offset="33.3%" stop-color="hsl(2, 82%, 55%)" />
<stop offset="66.7%" stop-color="hsl(86, 72%, 68%)" />
<stop offset="100.0%" stop-color="hsl(83, 65%, 44%)" />
</linearGradient>
<linearGradient id="g2" x1="0%" y1="0%" x2="100%" y2="100%">
<stop offset="0.0%" stop-color="hsl(40, 53%, 69%)" />
<stop offset="33.3%" stop-color="hsl(104, 72%, 65%)" />
<stop offset="66.7%" stop-color="hsl(144, 86%, 72%)" />
<stop offset="100.0%" stop-color="hsl(151, 70%, 62%)" />
</linearGradient>
<filter id="f1" x="-20%" y="-20%" width="140%" height="140%">
  <feGaussianBlur stdDeviation="2.230991776565719" />
</filter>

</defs>

<path d="M 99.3 42.2 C 92.9 24.0, 0.0 91.1, 7.1 78.5 C 0.0 69.4, 32.8 47.4, 25.7 54.5 C 18.6 51.9, 35.4 68.5, 49.6 61.8 C 31.0 58.0, 10.8 84.4, 24.2 87.5 C 43.9 96.3, 74.3 93.0, 81.5 87.8 C 66.5 88.3, 85.3 69.1, 85.7 57.3 Z" fill="hsl(86, 72%, 68%)" fill-opacity="0.92" stroke="none" stroke-width="0.98"  transform="translate(85.7 2.6) rotate(350.7) scale(0.55 1.06)" />
<path d="M 54.8 17.4 C 56.0 12.5, 0.0 37.0, 6.4 50.1 C 10.4 50.4, 84.4 93.9, 91.8 99.9 C 90.3 100.0, 99.9 63.4, 96.2 54.8 C 88.4 63.9, 2.2 80.7, 10.6 71.2 C 8.0 61.3, 59.5 69.1, 50.0 75.4 C 66.9 92.9, 4.6 80.7, 10.6 72.2 C 18.2 67.3, 84.6 52.1, 89.3 63.2 C 100.0 47.9, 78.3 71.2, 66.4 85.0 Z" fill="hsl(290, 83%, 63%)" fill-opacity="0.63" stroke="none" stroke-width="4.94"  transform="translate(66.9 1.5) rotate(29.0) scale(1.76 1.81)" />
<path d="M 92.7 90.1 C 100.0 82.8, 47.8 93.3, 38.6 89.9 C 42.7 85.9, 5.1 47.6, 9.2 45.3 C 26.9 34.7, 11.4 21.1, 13.1 24.6 C 31.5 21.1, 70.0 3.3, 56.7 12.5 C 65.2 32.4, 42.6 68.1, 39.4 82.9 C 37.3 67.8, 0.8 65.0, 9.2 55.8 Z" fill="hsl(83, 65%, 44%)" fill-opacity="0.45" stroke="none" stroke-width="4.80"  transform="translate(70.6 40.1) rotate(274.6) scale(0.74 0.99)" />
<circle cx="5.6" cy="36.9" r="18.7" fill="hsl(86, 72%, 68%)" fill-opacity="0.91"  transform="translate(90.8 40.7) rotate(329.3) scale(0.69 1.76)" />
<path d="M 94.6 25.2 C 100.0 15.7, 6.5 33.1, 15.6 28.1 C 33.7 42.9, 80.7 49.1, 68.1 42.3 C 72.3 47.6, 100.0 23.7, 94.6 34.0 C 86.5 45.5, 60.1 73.0, 61.7 63.7 C 56.3 49.6, 52.1 88.4, 59.8 88.6 C 44.5 81.6, 42.9 44.2, 51.5 31.8 C 63.6 27.5, 0.0 36.1, 2.9 43.2 C 0.0 37.6, 31.6 14.3, 27.2 4.4 C 36.8 6.8, 32.0 1.4, 22.2 13.0 Z" fill="none" fill-opacity="0.91" stroke="hsl(40, 53%, 69%)" stroke-width="2.86"  transform="translate(34.8 11.3) rotate(70.0) scale(0.84 1.89)" />
<rect x="55.5" y="61.7" width="44.4" height="37.0" rx="0" fill="hsl(40, 53%, 69%)" fill-opacity="0.66"   transform="translate(73.2 27.9) rotate(146.7) scale(1.52 1.99)" />
<path d="M 31.3 76.7 C 17.8 62.4, 77.9 56.4, 72.9 68.9 C 85.8 63.2, 31.4 62.4, 23.1 61.6 C 10.2 53.9, 14.9 72.3, 7.6 62.3 C 25.8 53.2, 22.4 52.9, 12.1 47.1 C 6.9 59.3, 18.1 28.5, 31.4 41.8 C 30.6 42.5, 0.0 83.5, 1.8 88.1 C 0.9 81.6, 42.0 45.6, 47.4 32.6 C 37.1 20.5, 22.8 62.6, 13.3 67.1 Z" fill="hsl(322, 74%, 44%)" fill-opacity="0.69" stroke="none" stroke-width="3.65"  transform="translate(40.0 79.8) rotate(356.0) scale(0.53 0.67)" />
<path d="M 17.4 57.5 C 30.5 57.0, 36.9 2.4, 37.4 16.5 C 33.3 15.5, 6.7 28.6, 11.7 36.6 C 6.6 48.9, 23.6 93.2, 12.3 95.2 C 27.8 87.2, 86.4 42.4, 73.0 39.2 C 84.8 55.1, 100.0 14.2, 98.8 7.2 C 92.0 0.0, 39.9 15.4, 31.0 26.1 C 30.8 27.9, 4.6 69.5, 16.4 55.3 C 10.0 39.3, 32.9 49.7, 19.3 57.1 C 19.8 70.4, 43.4 100.0, 32.0 94.1 C 28.3 100.0, 97.6 35.3, 99.5 39.5 Z" fill="hsl(2, 82%, 55%)" fill-opacity="0.87" stroke="none" stroke-width="4.77" filter="url(#f1)" transform="translate(93.9 67.8) rotate(299.0) scale(1.68 1.36)" />
<path d="M 35.0 1.6 C 30.9 4.9, 77.9 34.8, 90.9 47.9 C 100.0 64.5, 33.3 53.6, 41.7 43.1 C 44.0 56.4, 86.3 80.7, 78.3 67.6 C 62.1 72.0, 85.6 12.7, 81.8 15.0 C 71.3 0.0, 8.2 75.4, 21.0 75.1 C 10.7 87.5, 63.7 48.8, 76.5 45.5 C 86.6 42.2, 43.5 6.9, 55.0 3.4 C 57.6 16.7, 55.0 100.0, 45.9 94.7 C 36.0 91.7, 97.3 25.7, 84.2 10.7 C 100.0 18.4, 34.8 99.4, 40.8 86.4 Z" fill="none" fill-opacity="0.72" stroke="hsl(83, 65%, 44%)" stroke-width="4.85" filter="url(#f1)" transform="translate(40.7 17.8) rotate(329.4) scale(1.29 1.95)" />
<path d="M 78.8 48.1 C 79.0 35.5, 39.0 48.3, 53.5 42.0 C 44.9 24.2, 7.1 69.7, 17.3 77.8 C 23.6 88.4, 86.7 8.6, 82.8 10.6 C 96.0 9.7, 97.0 29.0, 87.6 42.9 C 76.2 32.5, 21.0 31.3, 16.0 42.1 C 2.1 61.6, 13.6 59.2, 1.5 55.6 C 12.9 51.6, 41.8 50.7, 38.9 42.5 Z" fill="hsl(290, 83%, 63%)" fill-opacity="0.85" stroke="none" stroke-width="2.38"  transform="translate(13.2 15.2) rotate(97.3) scale(1.52 1.56)" />
<rect x="32.1" y="25.4" width="34.1" height="36.8" rx="0" fill="none" fill-opacity="0.46"   transform="translate(25.9 77.1) rotate(0.5) scale(1.84 0.51)" />
<path d="M 75.3 72.6 C 93.8 52.8, 62.7 77.3, 62.6 82.7 C 66.4 88.7, 41.2 44.9, 30.6 36.4 C 11.5 49.4, 65.3 21.8, 57.2 22.8 C 63.1 29.6, 100.0 41.9, 94.6 46.4 C 100.0 29.6, 19.7 25.2, 6.3 29.2 C 18.7 48.5, 96.2 46.2, 98.5 51.7 C 100.0 32.0, 79.4 3.5, 81.8 7.7 C 92.0 0.0, 6.2 100.0, 20.3 97.1 Z" fill="none" fill-opacity="0.26" stroke="hsl(290, 83%, 63%)" stroke-width="1.16" filter="url(#f1)" transform="translate(61.5 52.3) rotate(40.5) scale(0.89 1.50)" />
<path d="M 41.6 14.5 C 39.6 15.2, 32.1 17.9, 32.0 15.4 C 49.7 3.7, 31.8 21.4, 34.5 25.1 C 53.7 32.0, 73.3 75.9, 70.4 71.5 C 76.8 85.2, 0.7 14.6, 7.9 19.6 C 0.0 29.2, 100.0 99.8, 89.5 95.7 C 100.0 100.0, 16.4 93.0, 5.6 93.3 " fill="hsl(83, 65%, 44%)" fill-opacity="0.99" stroke="none" stroke-width="3.87"  transform="translate(5.4 18.8) rotate(208.0) scale(0.73 0.72)" />
<circle cx="53.0" cy="21.7" r="1.9" fill="url(#g2)" fill-opacity="0.76"   />
<rect x="36.9" y="46.2" width="28.6" height="26.6" rx="2.2" fill="hsl(151, 70%, 62%)" fill-opacity="0.91"   transform="translate(91.4 26.2) rotate(241.4) scale(0.93 1.29)" />
<path d="M 47.0 43.9 C 28.2 33.9, 19.0 11.6, 15.3 15.4 C 18.9 22.9, 4.8 70.1, 6.8 68.4 C 22.6 71.0, 37.2 57.6, 47.5 43.1 C 44.4 41.1, 74.9 39.6, 87.9 48.1 C 88.8 31.7, 100.0 0.0, 93.0 4.3 C 86.5 14.5, 100.0 26.8, 99.2 14.1 C 85.0 3.8, 77.9 56.2, 76.6 42.9 C 60.0 50.3, 100.0 33.4, 98.1 27.2 Z" fill="hsl(2, 82%, 55%)" fill-opacity="0.43" stroke="none" stroke-width="1.78"  transform="translate(53.2 99.8) rotate(163.9) scale(1.31 1.00)" />
<path d="M 45.7 29.4 C 45.0 36.4, 56.6 24.2, 49.4 17.2 C 43.0 18.7, 0.0 52.4, 2.3 56.5 C 6.5 57.8, 52.8 50.0, 55.4 60.9 C 64.8 62.6, 67.4 78.5, 63.2 73.0 C 63.7 59.8, 47.7 41.3, 33.0 50.4 C 20.3 49.4, 58.5 85.3, 60.3 75.4 C 72.5 88.4, 100.0 14.0, 88.0 7.8 C 92.6 8.7, 0.6 2.3, 4.2 6.6 C 0.0 0.0, 34.6 96.8, 19.9 90.2 Z" fill="hsl(183, 71%, 60%)" fill-opacity="0.73" stroke="none" stroke-width="4.18"  transform="translate(1.6 3.8) rotate(282.5) scale(1.28 1.59)" />
<path d="M 18.5 83.0 C 37.8 87.0, 9.9 35.5, 6.6 49.6 C 5.5 45.3, 0.0 97.3, 7.1 94.5 C 0.0 83.5, 0.0 54.5, 3.8 68.2 C 0.0 52.5, 9.9 36.1, 24.4 27.9 C 27.4 42.1, 40.7 14.7, 26.2 11.2 C 44.8 0.0, 0.0 54.9, 4.3 57.6 C 0.0 39.8, 17.7 78.8, 8.2 69.4 Z" fill="none" fill-opacity="0.32" stroke="hsl(83, 65%, 44%)" stroke-width="3.65"  transform="translate(85.6 61.4) rotate(249.1) scale(1.65 0.84)" />
<path d="M 33.6 80.8 C 29.5 80.9, 92.8 36.6, 80.5 31.5 C 70.4 45.9, 28.5 81.3, 15.7 86.6 C 12.0 100.0, 25.9 32.4, 39.3 31.8 C 48.9 19.1, 43.1 25.5, 42.5 27.5 C 34.9 46.4, 0.0 93.8, 4.2 83.4 C 14.2 90.6, 31.8 53.0, 26.2 53.3 C 21.4 49.9, 60.7 83.1, 72.8 81.2 C 54.0 87.8, 71.5 27.4, 81.7 16.1 C 76.8 0.0, 41.4 13.4, 52.7 10.6 C 40.6 0.0, 56.4 69.1, 46.4 65.9 Z" fill="none" fill-opacity="0.59" stroke="hsl(106, 75%, 59%)" stroke-width="5.20"  transform="translate(64.6 29.0) rotate(146.4) scale(0.96 0.92)" />
<path d="M 72.9 17.3 C 83.8 19.0, 9.4 8.1, 11.9 3.8 C 23.1 13.1, 90.4 64.3, 75.6 70.4 C 70.3 59.1, 72.8 36.1, 83.9 30.9 C 85.8 19.7, 64.9 53.2, 62.4 43.7 C 64.7 53.3, 28.8 17.4, 36.1 4.9 C 31.9 0.0, 78.3 67.7, 79.5 59.3 C 86.6 41.9, 80.5 40.5, 78.0 30.1 C 65.6 34.1, 0.6 71.0, 4.6 70.0 Z" fill="none" fill-opacity="0.45" stroke="hsl(106, 75%, 59%)" stroke-width="2.08" filter="url(#f1)" transform="translate(1.7 27.7) rotate(152.7) scale(1.31 1.84)" />
<path d="M 88.4 82.7 C 100.0 71.8, 99.0 89.5, 90.8 97.8 C 79.6 92.6, 61.5 11.1, 74.5 17.1 C 83.8 28.0, 11.1 42.7, 20.1 36.4 C 10.7 33.6, 52.1 22.8, 45.8 25.1 C 31.7 41.4, 73.9 0.0, 69.3 10.4 C 64.6 0.0, 51.5 31.1, 59.4 22.4 C 56.2 36.2, 39.8 29.3, 52.0 26.2 C 53.2 9.4, 21.7 52.8, 29.5 45.0 C 31.6 29.4, 6.5 39.8, 2.8 51.6 Z" fill="none" fill-opacity="0.90" stroke="hsl(183, 71%, 60%)" stroke-width="4.43"  transform="translate(68.0 39.6) rotate(133.8) scale(1.24 1.88)" />
<rect x="73.3" y="44.1" width="20.4" height="26.2" rx="0" fill="hsl(242, 72%, 49%)" fill-opacity="0.24" stroke="hsl(242, 72%, 49%)" stroke-width="1.8"  transform="translate(38.7 25.5) rotate(262.8) scale(1.14 1.97)" />
<path d="M 97.0 17.9 C 83.0 37.6, 37.4 51.3, 24.4 63.6 C 9.2 49.4, 63.4 10.6, 70.6 21.9 C 90.5 33.0, 25.6 42.5, 33.4 41.8 C 37.4 39.7, 28.7 72.4, 29.3 68.5 C 42.8 63.8, 50.8 98.3, 60.1 91.0 C 57.9 100.0, 57.6 57.0, 59.3 51.3 C 66.5 44.3, 63.4 42.7, 51.3 30.7 C 31.6 14.2, 22.4 55.9, 25.4 63.3 Z" fill="none" fill-opacity="0.78" stroke="hsl(183, 71%, 60%)" stroke-width="1.53"  transform="translate(33.5 73.2) rotate(348.8) scale(1.94 1.04)" />
<path d="M 1.1 90.1 C 0.0 72.4, 53.3 72.0, 57.5 73.3 C 41.6 62.2, 55.1 94.3, 60.4 80.7 C 57.4 96.4, 16.8 65.2, 24.7 74.0 C 33.4 77.3, 70.4 22.1, 69.1 12.4 C 57.4 6.6, 41.0 26.9, 40.7 21.9 C 53.6 41.1, 85.8 41.1, 83.1 37.9 Z" fill="none" fill-opacity="0.87" stroke="hsl(183, 71%, 60%)" stroke-width="2.76" filter="url(#f1)" transform="translate(35.9 84.1) rotate(195.1) scale(1.37 1.23)" />
<rect x="49.3" y="68.4" width="28.6" height="16.9" rx="0" fill="hsl(40, 53%, 69%)" fill-opacity="0.65"   transform="translate(81.9 99.5) rotate(68.5) scale(0.58 1.40)" />
<path d="M 97.8 75.1 C 80.6 59.5, 67.4 93.2, 58.1 89.7 C 48.4 100.0, 56.1 62.3, 46.4 59.2 C 61.0 78.3, 4.5 100.0, 14.9 87.7 C 26.8 68.3, 54.4 81.7, 55.5 88.7 C 58.6 100.0, 21.2 22.5, 15.0 16.9 C 9.3 13.3, 19.5 48.4, 24.0 38.4 C 24.3 31.7, 88.7 31.7, 84.5 43.4 C 78.9 35.3, 50.6 65.0, 52.2 78.3 C 71.1 71.8, 50.1 59.4, 63.9 54.0 Z" fill="none" fill-opacity="0.25" stroke="hsl(183, 71%, 60%)" stroke-width="3.12"  transform="translate(15.0 92.3) rotate(59.5) scale(1.19 1.03)" />
<path d="M 70.3 99.5 C 54.4 93.0, 55.2 45.4, 48.2 35.4 C 57.6 15.5, 45.8 56.5, 44.0 53.1 C 49.9 35.9, 37.8 100.0, 31.2 97.7 C 49.5 100.0, 56.4 0.0, 53.4 10.1 C 46.0 10.7, 65.3 77.2, 60.0 89.9 C 71.9 90.6, 58.4 12.7, 65.2 5.2 C 73.2 15.5, 72.7 68.0, 60.4 64.2 Z" fill="hsl(86, 72%, 68%)" fill-opacity="0.70" stroke="none" stroke-width="3.38"  transform="translate(94.7 81.5) rotate(110.6) scale(0.83 0.92)" />
<path d="M 80.5 40.2 C 92.3 42.0, 0.0 78.3, 0.6 65.3 C 0.0 53.9, 24.5 46.5, 12.4 50.5 C 7.6 31.6, 5.3 40.2, 17.7 39.9 C 24.3 39.3, 53.2 26.2, 58.6 21.1 C 42.8 13.7, 35.7 11.3, 37.9 2.3 C 28.8 11.0, 79.0 50.7, 87.0 61.9 C 85.5 49.1, 0.5 73.9, 10.2 84.8 C 28.9 100.0, 78.3 100.0, 68.2 93.2 C 48.7 100.0, 75.1 81.3, 89.0 87.0 C 94.3 73.6, 67.8 30.6, 60.3 28.3 Z" fill="none" fill-opacity="0.37" stroke="hsl(322, 74%, 44%)" stroke-width="1.96" filter="url(#f1)" transform="translate(91.1 51.7) rotate(188.2) scale(1.15 0.55)" />
<circle cx="41.3" cy="55.1" r="2.5" fill="hsl(106, 75%, 59%)" fill-opacity="0.69"   />
<path d="M 14.3 48.6 C 0.0 64.0, 4.4 42.2, 14.6 50.1 C 1.2 63.8, 32.7 65.0, 25.2 67.0 C 42.9 50.7, 25.9 0.0, 26.9 3.2 C 22.8 0.0, 82.1 82.0, 92.2 78.4 C 92.8 91.6, 85.6 50.9, 73.4 63.6 C 55.6 55.3, 16.4 39.1, 21.9 30.1 Z" fill="hsl(151, 70%, 62%)" fill-opacity="0.39" stroke="none" stroke-width="5.29"  transform="translate(49.3 90.1) rotate(23.7) scale(1.42 1.39)" />
<path d="M 16.4 14.9 C 30.8 0.0, 85.5 23.6, 88.0 30.1 C 89.5 40.7, 26.0 69.0, 30.8 67.9 C 24.8 50.9, 60.9 23.6, 74.6 31.3 C 74.9 45.0, 41.2 77.9, 35.4 67.1 C 27.3 78.1, 3.0 61.8, 17.9 68.8 C 19.5 50.6, 66.3 37.8, 65.7 42.5 C 70.4 44.0, 100.0 0.0, 90.7 11.8 C 74.6 0.0, 42.5 48.6, 31.1 41.7 C 18.9 45.7, 33.0 71.5, 44.4 60.2 C 43.2 53.9, 100.0 64.5, 87.1 57.1 Z" fill="none" fill-opacity="0.84" stroke="hsl(242, 72%, 49%)" stroke-width="2.62"  transform="translate(4.2 70.4) rotate(348.7) scale(1.40 1.70)" />
<path d="M 60.6 73.1 C 41.4 64.0, 92.5 14.0, 77.5 14.2 C 58.5 1.8, 75.9 75.4, 86.0 76.5 C 95.8 76.9, 60.8 50.0, 72.8 50.6 C 86.6 66.6, 40.3 68.2, 38.0 64.0 C 45.8 64.3, 54.6 27.2, 48.1 13.8 C 35.0 21.5, 100.0 80.8, 92.4 66.5 C 80.1 76.6, 56.8 95.4, 62.7 89.9 C 49.1 94.6, 87.4 74.7, 80.5 60.6 C 88.0 50.6, 5.6 42.6, 1.0 45.9 Z" fill="none" fill-opacity="0.35" stroke="hsl(40, 53%, 69%)" stroke-width="5.23"  transform="translate(1.4 49.4) rotate(71.8) scale(0.62 1.62)" />
<path d="M 67.6 97.4 C 82.7 78.6, 29.9 84.9, 44.7 87.6 C 51.9 89.2, 57.7 94.8, 59.4 87.2 C 53.7 80.4, 35.5 21.8, 48.1 10.5 C 54.0 30.1, 0.0 38.2, 0.7 23.6 C 9.1 41.6, 62.2 15.6, 55.3 7.8 C 59.8 13.2, 81.0 5.4, 67.6 18.1 C 57.6 2.7, 30.7 19.6, 32.8 19.9 C 24.1 9.1, 38.8 63.7, 40.2 58.1 C 53.3 69.3, 79.1 45.6, 80.1 40.1 C 74.7 28.7, 93.5 40.9, 100.0 43.1 Z" fill="hsl(106, 75%, 59%)" fill-opacity="0.64" stroke="none" stroke-width="3.69"  transform="translate(87.2 31.6) rotate(173.6) scale(1.51 1.80)" />
<circle cx="83.6" cy="45.0" r="8.7" fill="hsl(40, 53%, 69%)" fill-opacity="0.68"  transform="translate(22.4 2.9) rotate(16.1) scale(0.94 0.82)" />
<path d="M 34.7 7.4 C 28.8 3.0, 51.5 54.7, 57.8 62.2 C 53.5 79.0, 58.5 74.4, 58.4 59.8 C 57.3 44.7, 50.5 0.0, 40.3 8.0 C 47.0 21.0, 67.4 100.0, 57.8 92.8 C 40.8 100.0, 100.0 88.6, 99.3 82.0 C 96.8 81.8, 69.3 83.8, 65.9 92.5 C 62.4 84.2, 46.4 23.4, 40.9 29.4 Z" fill="hsl(104, 72%, 65%)" fill-opacity="0.77" stroke="none" stroke-width="3.55"  transform="translate(31.1 35.3) rotate(17.8) scale(1.04 1.77)" />
<rect x="52.9" y="52.8" width="44.2" height="20.3" rx="3.7" fill="none" fill-opacity="0.55"   transform="translate(92.2 78.4) rotate(53.0) scale(1.02 1.93)" />
<circle cx="12.8" cy="82.5" r="1.2" fill="hsl(2, 82%, 55%)" fill-opacity="0.58"  transform="translate(51.4 31.7) rotate(181.4) scale(1.66 0.83)" />
<path d="M 42.1 18.9 C 39.9 29.1, 13.9 0.0, 27.0 4.6 C 26.1 9.9, 60.4 100.0, 60.4 99.3 C 56.6 100.0, 27.6 80.8, 40.0 84.8 C 30.4 96.6, 37.9 68.8, 25.1 70.3 C 7.5 61.8, 58.5 69.8, 44.0 65.2 C 63.2 77.0, 9.4 11.8, 18.6 10.6 Z" fill="hsl(290, 83%, 63%)" fill-opacity="0.84" stroke="none" stroke-width="3.76"  transform="translate(14.5 84.9) rotate(135.6) scale(0.55 1.66)" />
<path d="M 15.9 72.1 C 26.1 86.1, 6.1 61.7, 5.9 70.2 C 6.3 63.5, 25.4 3.9, 12.5 10.3 C 19.2 0.0, 34.3 56.5, 45.9 63.1 C 61.5 47.9, 78.3 95.5, 75.2 86.7 C 72.0 99.4, 32.8 100.0, 34.2 99.9 C 14.6 100.0, 96.5 20.9, 92.0 25.5 Z" fill="none" fill-opacity="0.75" stroke="hsl(2, 82%, 55%)" stroke-width="2.60"   />
<rect x="34.4" y="51.6" width="42.7" height="30.7" rx="0" fill="hsl(104, 72%, 65%)" fill-opacity="0.68"   transform="translate(58.6 72.4) rotate(215.0) scale(1.67 0.82)" />
<rect x="48.9" y="40.4" width="26.6" height="36.8" rx="0" fill="none" fill-opacity="0.27"  filter="url(#f1)" transform="translate(56.7 31.9) rotate(73.2) scale(1.66 0.52)" />
<rect x="14.0" y="37.6" width="26.5" height="20.6" rx="14.6" fill="none" fill-opacity="0.39"  filter="url(#f1)" transform="translate(55.6 81.9) rotate(337.0) scale(1.64 1.64)" />
<path d="M 45.5 66.4 C 54.8 69.7, 23.5 0.9, 20.7 14.3 C 1.0 33.2, 88.8 84.8, 98.1 81.0 C 100.0 73.5, 81.3 40.3, 75.8 40.1 C 61.4 50.2, 47.6 66.6, 50.0 60.2 C 47.5 67.2, 54.8 2.9, 68.8 11.3 C 50.3 10.9, 8.1 51.0, 6.4 58.0 C 23.1 73.8, 47.3 72.0, 54.8 74.2 C 61.0 79.8, 89.5 17.6, 81.9 25.7 C 70.5 32.0, 56.8 84.1, 45.6 86.0 Z" fill="hsl(242, 72%, 49%)" fill-opacity="0.54" stroke="none" stroke-width="5.30"  transform="translate(28.7 98.9) rotate(1.2) scale(1.28 1.81)" />
<path d="M 83.5 72.7 C 80.5 89.6, 89.2 84.0, 82.1 95.5 C 79.2 97.8, 41.7 64.3, 51.3 74.0 C 37.9 65.3, 8.9 56.5, 21.6 71.0 C 12.1 82.0, 21.5 37.2, 13.5 46.0 C 28.6 32.1, 84.7 100.0, 75.8 87.7 C 82.3 100.0, 57.1 50.9, 50.3 41.5 C 52.9 32.1, 49.1 23.1, 35.4 14.4 C 49.3 9.4, 92.9 54.8, 86.3 56.8 C 74.4 58.3, 49.1 23.1, 62.1 13.2 Z" fill="hsl(2, 82%, 55%)" fill-opacity="0.55" stroke="none" stroke-width="1.80" filter="url(#f1)" transform="translate(57.5 66.7) rotate(211.0) scale(1.78 0.80)" />
<path d="M 51.6 16.9 C 36.1 35.2, 29.7 100.0, 16.2 90.1 C 0.0 77.3, 17.4 16.1, 32.0 20.3 C 36.0 2.7, 43.1 1.5, 33.2 6.9 C 41.5 18.2, 43.5 75.6, 38.2 78.9 C 49.7 93.4, 83.0 10.3, 71.2 9.6 C 81.8 21.7, 29.3 26.6, 15.4 24.3 C 32.6 4.4, 88.5 83.7, 82.4 69.1 C 98.6 67.1, 94.4 55.6, 83.0 50.9 C 77.6 56.3, 70.5 100.0, 63.9 88.7 Z" fill="hsl(2, 82%, 55%)" fill-opacity="0.87" stroke="none" stroke-width="3.91"  transform="translate(71.6 3.9) rotate(234.4) scale(0.98 0.98)" />
<path d="M 67.9 4.7 C 81.7 7.3, 25.9 79.9, 12.8 72.3 C 28.1 52.4, 51.9 51.1, 65.9 50.8 C 57.8 62.5, 23.6 27.5, 9.2 34.3 C 20.5 23.0, 93.8 75.6, 87.8 80.0 C 100.0 97.3, 100.0 26.7, 88.2 27.7 C 75.0 27.7, 91.4 93.5, 95.2 93.2 C 76.8 91.7, 94.8 40.2, 82.7 38.7 C 85.0 21.5, 54.0 24.4, 48.7 19.4 C 57.0 30.3, 67.5 58.7, 82.4 59.0 Z" fill="hsl(151, 70%, 62%)" fill-opacity="0.29" stroke="none" stroke-width="3.30" filter="url(#f1)" transform="translate(53.7 99.3) rotate(203.1) scale(1.99 0.67)" />
<path d="M 49.3 0.9 C 53.3 5.9, 88.4 82.1, 90.1 80.8 C 100.0 66.1, 95.4 89.8, 87.5 91.2 C 68.5 100.0, 85.5 18.8, 95.5 19.4 C 94.3 19.3, 68.3 1.3, 79.2 11.9 C 98.6 2.6, 29.0 26.8, 40.1 33.5 C 55.4 49.3, 70.5 18.3, 57.5 17.0 C 73.8 11.9, 84.4 44.1, 78.1 37.7 Z" fill="hsl(242, 72%, 49%)" fill-opacity="0.47" stroke="none" stroke-width="1.25" filter="url(#f1)"  />
<path d="M 26.8 11.7 C 22.3 14.8, 31.6 53.3, 28.7 50.6 C 39.3 42.8, 93.3 3.2, 85.5 6.3 C 74.6 0.0, 52.4 60.3, 47.7 69.0 C 44.6 87.3, 0.0 71.8, 8.9 86.5 C 26.2 99.7, 4.0 75.9, 12.7 75.6 C 0.0 75.7, 76.7 80.6, 78.0 70.8 C 86.0 80.3, 37.1 54.2, 46.9 62.1 C 59.1 58.8, 59.6 77.9, 53.4 75.2 C 36.2 67.9, 2.7 50.9, 9.2 37.2 C 15.2 27.2, 52.5 91.3, 41.4 99.3 " fill="none" fill-opacity="0.69" stroke="hsl(86, 72%, 68%)" stroke-width="3.52"  transform="translate(88.8 17.1) rotate(263.2) scale(0.83 1.96)" />
<path d="M 98.8 89.7 C 100.0 100.0, 10.0 28.8, 23.2 15.2 C 43.0 27.9, 24.5 11.8, 36.9 24.1 C 43.6 39.7, 0.0 44.9, 12.7 58.7 C 31.9 78.7, 33.2 66.9, 29.3 79.3 C 43.0 63.5, 84.8 56.8, 80.4 59.1 C 96.6 77.2, 38.6 30.7, 45.8 18.2 C 42.4 16.6, 46.4 69.3, 41.7 58.4 C 56.6 46.3, 51.1 26.4, 47.2 27.4 C 65.8 25.7, 95.9 87.8, 87.5 76.0 Z" fill="hsl(83, 65%, 44%)" fill-opacity="0.38" stroke="none" stroke-width="1.11"  transform="translate(65.1 5.9) rotate(116.4) scale(0.80 1.97)" />
<path d="M 19.6 88.4 C 36.9 76.9, 69.3 36.1, 80.6 47.7 C 64.3 44.6, 54.2 96.5, 48.6 83.0 C 45.1 77.9, 50.0 56.0, 43.2 47.5 C 52.3 60.0, 88.2 0.0, 75.5 3.9 C 89.6 0.0, 35.1 55.2, 40.6 59.7 C 42.2 65.9, 86.8 34.2, 85.7 42.9 C 94.7 48.9, 4.2 99.2, 4.4 92.1 C 7.8 78.5, 17.6 77.0, 2.9 71.1 C 11.7 64.4, 24.8 66.9, 16.0 78.9 Z" fill="none" fill-opacity="0.61" stroke="hsl(104, 72%, 65%)" stroke-width="5.01"  transform="translate(59.7 76.4) rotate(69.6) scale(0.93 0.53)" />
<rect x="71.7" y="74.2" width="26.1" height="16.7" rx="0" fill="none" fill-opacity="0.38"   transform="translate(60.8 96.1) rotate(150.7) scale(1.37 0.66)" />
<path d="M 87.9 62.9 C 81.7 60.5, 25.9 0.0, 26.3 3.6 C 26.5 6.9, 77.2 35.1, 64.0 42.4 C 76.3 29.8, 42.3 41.0, 40.6 46.6 C 59.5 38.0, 65.5 87.1, 60.8 78.9 C 74.2 94.4, 3.9 97.0, 0.8 84.6 C 0.0 94.4, 86.5 3.8, 95.0 7.2 C 100.0 0.0, 90.1 45.7, 77.8 42.1 Z" fill="none" fill-opacity="0.94" stroke="hsl(322, 74%, 44%)" stroke-width="3.21"  transform="translate(1.4 26.1) rotate(25.2) scale(0.93 1.33)" />
<path d="M 81.4 50.4 C 71.6 53.0, 57.4 53.8, 68.1 68.4 C 86.7 58.6, 28.9 4.3, 40.2 7.8 C 58.8 0.0, 44.8 10.1, 33.3 19.4 C 47.8 8.9, 58.5 25.3, 44.3 31.2 C 53.7 14.8, 63.8 6.2, 72.0 9.7 C 73.1 0.0, 65.0 6.1, 78.3 13.6 C 84.4 19.8, 0.0 93.2, 2.6 87.5 C 1.2 91.9, 13.7 68.9, 13.9 76.3 Z" fill="none" fill-opacity="0.80" stroke="hsl(290, 83%, 63%)" stroke-width="3.38"  transform="translate(86.1 25.4) rotate(333.0) scale(1.03 1.49)" />
<path d="M 99.7 17.5 C 99.9 26.4, 80.0 41.1, 72.5 42.2 C 53.3 54.3, 16.0 50.0, 1.3 40.0 C 7.7 36.2, 0.0 36.2, 7.8 34.0 C 14.2 43.0, 22.8 78.7, 26.1 89.0 C 6.2 73.2, 41.1 78.2, 37.3 63.2 C 56.5 47.2, 100.0 86.3, 94.1 81.2 C 90.6 74.3, 69.1 96.6, 67.1 93.1 C 82.5 95.5, 5.3 44.0, 3.2 53.8 Z" fill="none" fill-opacity="0.88" stroke="hsl(2, 82%, 55%)" stroke-width="4.31"  transform="translate(18.7 29.0) rotate(284.3) scale(1.09 0.83)" />
<path d="M 48.7 5.9 C 59.6 6.7, 32.9 12.8, 20.0 26.8 C 2.4 44.2, 87.3 36.9, 87.5 32.4 C 81.1 20.2, 15.8 15.5, 7.4 17.3 C 24.4 0.0, 23.4 86.5, 23.9 96.6 C 24.3 99.4, 15.9 25.2, 16.7 30.0 C 8.4 24.1, 0.0 34.4, 3.0 30.6 C 0.0 17.5, 82.5 11.4, 79.3 7.5 C 84.3 17.5, 37.0 57.8, 51.1 60.6 Z" fill="hsl(290, 83%, 63%)" fill-opacity="0.51" stroke="none" stroke-width="2.81"  transform="translate(53.2 75.0) rotate(141.0) scale(1.44 1.72)" />
<path d="M 36.5 23.2 C 24.1 35.0, 47.4 51.9, 50.1 47.1 C 58.9 34.8, 38.6 95.0, 49.1 80.8 C 38.4 86.7, 100.0 64.0, 90.6 66.4 C 73.5 81.4, 19.5 32.8, 30.0 37.5 C 31.2 34.9, 41.8 0.0, 52.7 0.9 C 47.1 8.2, 27.0 0.0, 29.1 4.2 Z" fill="none" fill-opacity="0.82" stroke="hsl(183, 71%, 60%)" stroke-width="1.51"  transform="translate(52.6 72.4) rotate(275.1) scale(0.61 1.93)" />
<rect x="58.0" y="69.9" width="24.0" height="15.8" rx="8.2" fill="hsl(151, 70%, 62%)" fill-opacity="0.61" stroke="hsl(144, 86%, 72%)" stroke-width="3.4"  transform="translate(75.5 57.7) rotate(239.8) scale(1.82 0.90)" />
<rect x="16.2" y="12.0" width="43.7" height="30.2" rx="0" fill="hsl(83, 65%, 44%)" fill-opacity="0.66"   transform="translate(94.7 55.4) rotate(304.9) scale(1.28 0.93)" />
<path d="M 30.3 51.1 C 36.3 66.7, 100.0 52.2, 97.0 49.3 C 92.0 33.0, 99.8 56.9, 99.6 67.8 C 100.0 79.2, 0.0 4.6, 9.7 3.0 C 4.9 0.0, 54.7 84.5, 54.2 82.7 C 45.0 100.0, 19.0 20.1, 17.0 35.0 C 29.3 45.9, 8.0 27.0, 15.1 34.5 C 32.7 37.9, 91.9 20.9, 85.6 26.2 C 76.2 31.5, 79.5 85.0, 68.5 71.3 C 80.4 67.5, 61.8 96.8, 52.4 94.4 Z" fill="none" fill-opacity="0.54" stroke="hsl(86, 72%, 68%)" stroke-width="3.33" filter="url(#f1)" transform="translate(45.9 14.3) rotate(37.1) scale(1.20 1.41)" />
<path d="M 80.0 95.3 C 90.8 75.9, 28.2 20.4, 27.4 31.3 C 26.8 46.0, 49.7 82.7, 64.5 79.1 C 77.2 98.7, 57.4 100.0, 68.8 98.4 C 70.1 100.0, 85.6 2.0, 78.7 1.3 C 95.7 8.4, 0.0 86.5, 2.1 93.0 C 0.0 100.0, 68.9 16.6, 70.2 19.8 C 81.6 11.9, 64.5 88.8, 60.7 88.3 Z" fill="hsl(151, 70%, 62%)" fill-opacity="0.88" stroke="none" stroke-width="4.99"  transform="translate(35.1 56.9) rotate(279.3) scale(0.73 1.20)" />
<circle cx="14.9" cy="13.5" r="8.2" fill="url(#g2)" fill-opacity="0.99"  transform="translate(37.5 75.3) rotate(78.7) scale(1.59 1.39)" />
<path d="M 17.1 94.5 C 23.5 93.6, 57.9 44.9, 49.9 29.9 C 61.2 48.1, 27.6 38.5, 24.6 40.6 C 27.2 36.0, 14.9 45.9, 9.6 54.1 C 10.2 59.1, 15.4 33.2, 23.3 30.8 C 20.8 48.9, 92.3 51.1, 93.9 54.1 C 96.5 50.7, 58.5 34.4, 57.3 32.5 Z" fill="none" fill-opacity="0.31" stroke="hsl(183, 71%, 60%)" stroke-width="2.33"  transform="translate(40.6 10.0) rotate(242.5) scale(1.26 1.13)" />
<path d="M 88.4 4.4 C 100.0 0.0, 77.1 33.3, 71.8 30.3 C 70.3 25.2, 61.2 76.4, 52.5 74.4 C 48.2 77.6, 54.5 100.0, 46.5 97.6 C 55.3 100.0, 18.1 25.1, 6.4 31.5 C 0.0 12.4, 94.6 16.0, 86.0 20.5 C 73.4 15.7, 28.9 9.1, 41.0 16.4 C 29.9 2.3, 42.4 8.4, 46.3 3.2 C 46.8 18.4, 50.2 64.4, 43.6 60.7 C 25.3 52.8, 50.7 33.2, 40.2 36.7 C 24.1 32.2, 56.3 79.3, 49.1 88.1 Z" fill="hsl(106, 75%, 59%)" fill-opacity="0.60" stroke="none" stroke-width="3.25"  transform="translate(25.7 22.2) rotate(18.9) scale(1.64 1.89)" />
<path d="M 80.9 45.2 C 82.8 25.6, 39.8 58.8, 46.9 71.7 C 46.0 68.3, 80.1 12.8, 84.7 19.6 C 71.1 35.9, 17.3 47.9, 14.6 46.2 C 0.0 31.3, 23.7 1.9, 14.9 3.5 C 22.7 3.2, 0.0 33.1, 10.3 43.6 C 24.1 38.3, 26.2 34.8, 16.2 21.4 C 28.3 39.8, 100.0 66.3, 99.6 75.5 " fill="hsl(151, 70%, 62%)" fill-opacity="0.76" stroke="none" stroke-width="2.90"  transform="translate(58.3 54.3) rotate(137.3) scale(0.67 0.56)" />
<rect x="19.2" y="67.9" width="45.6" height="23.0" rx="6.5" fill="none" fill-opacity="0.97"    />
<rect x="46.4" y="40.4" width="29.2" height="36.2" rx="9.4" fill="hsl(151, 70%, 62%)" fill-opacity="0.95" stroke="hsl(104, 72%, 65%)" stroke-width="4.0"  transform="translate(46.9 24.5) rotate(61.6) scale(1.18 1.77)" />
<path d="M 69.3 80.8 C 83.2 63.5, 36.7 38.9, 25.0 46.0 C 6.3 34.8, 25.0 84.8, 31.4 87.7 C 14.8 75.6, 93.1 7.2, 98.3 8.6 C 100.0 6.1, 10.7 100.0, 8.8 96.6 C 2.4 87.5, 33.7 92.7, 19.7 91.7 C 14.3 82.9, 25.7 86.1, 33.7 83.5 C 24.0 67.6, 63.5 64.8, 51.1 71.4 Z" fill="hsl(242, 72%, 49%)" fill-opacity="0.42" stroke="none" stroke-width="4.25"  transform="translate(52.0 46.3) rotate(10.6) scale(1.75 1.07)" />
<rect x="27.4" y="33.6" width="48.7" height="24.6" rx="0" fill="none" fill-opacity="0.82"  filter="url(#f1)" transform="translate(94.9 83.4) rotate(348.4) scale(1.36 0.73)" />
<circle cx="30.4" cy="64.0" r="0.3" fill="url(#g0)" fill-opacity="0.74"  transform="translate(92.4 73.1) rotate(136.4) scale(1.40 0.96)" />
<path d="M 37.0 64.7 C 50.6 53.8, 96.9 61.0, 85.1 54.6 C 93.9 70.5, 87.6 42.0, 98.0 49.2 C 93.0 59.1, 95.8 57.2, 82.2 50.2 C 89.9 47.6, 17.8 52.5, 23.5 39.8 C 15.7 52.0, 98.9 10.3, 89.4 16.2 C 100.0 9.7, 24.1 31.0, 29.0 30.2 C 34.2 42.7, 16.7 76.5, 10.9 65.0 C 0.3 50.1, 68.5 13.1, 55.9 17.8 C 66.1 37.5, 21.1 56.4, 29.2 52.2 Z" fill="none" fill-opacity="0.49" stroke="hsl(144, 86%, 72%)" stroke-width="2.58"  transform="translate(83.6 77.7) rotate(94.4) scale(1.68 1.96)" />
<rect x="33.5" y="53.3" width="32.4" height="12.7" rx="0" fill="none" fill-opacity="0.34"   transform="translate(23.8 52.1) rotate(109.5) scale(1.32 1.31)" />
<circle cx="0.5" cy="4.4" r="1.7" fill="hsl(104, 72%, 65%)" fill-opacity="0.63"  transform="translate(41.2 75.4) rotate(62.7) scale(0.57 1.67)" />
<path d="M 65.5 84.2 C 80.0 68.6, 13.9 89.4, 6.8 82.6 C 0.0 74.8, 78.2 15.2, 71.8 3.2 C 72.4 0.0, 31.1 33.8, 37.0 31.7 C 24.4 32.9, 15.1 30.2, 8.1 39.6 C 15.4 59.3, 63.3 0.0, 62.1 0.8 C 42.7 10.1, 89.8 42.8, 96.9 35.4 Z" fill="none" fill-opacity="0.56" stroke="hsl(183, 71%, 60%)" stroke-width="4.49"  transform="translate(92.4 33.6) rotate(284.5) scale(1.94 1.22)" />
<path d="M 43.8 0.0 C 34.2 0.0, 60.4 28.7, 48.3 38.1 C 45.3 30.5, 26.2 35.2, 12.5 47.5 C 10.6 52.8, 57.4 17.1, 54.1 10.7 C 73.2 23.1, 61.2 83.6, 63.1 94.9 C 48.6 100.0, 100.0 77.2, 99.4 67.8 C 100.0 67.1, 71.4 13.3, 79.2 13.1 C 79.5 0.0, 91.4 42.4, 85.6 49.8 C 74.8 33.8, 43.8 68.0, 36.7 70.7 C 55.4 72.1, 83.5 26.8, 88.3 16.3 Z" fill="none" fill-opacity="0.85" stroke="hsl(40, 53%, 69%)" stroke-width="3.76"  transform="translate(91.4 69.5) rotate(312.9) scale(1.70 1.00)" />
<path d="M 61.1 38.6 C 79.2 37.9, 87.2 11.6, 74.9 23.7 C 85.2 33.0, 15.4 80.8, 20.5 76.9 C 19.2 61.5, 1.7 0.0, 12.4 3.7 C 24.1 11.5, 63.8 22.7, 69.4 26.0 C 52.7 29.3, 10.1 6.4, 0.3 13.6 C 0.0 4.8, 76.1 9.1, 67.3 19.8 C 52.1 21.9, 15.4 9.4, 8.6 8.2 C 8.9 19.9, 77.1 63.6, 64.4 49.4 C 73.9 43.3, 80.6 36.1, 89.4 35.1 " fill="hsl(104, 72%, 65%)" fill-opacity="1.00" stroke="none" stroke-width="4.79"  transform="translate(7.9 37.1) rotate(228.8) scale(1.52 0.98)" />
<path d="M 8.8 67.7 C 3.0 57.4, 58.9 79.3, 65.9 66.5 C 57.9 81.5, 80.7 46.9, 86.4 53.8 C 79.7 59.1, 27.8 6.5, 32.8 4.5 C 24.5 0.0, 79.9 10.5, 85.9 15.8 C 97.5 15.9, 52.8 52.0, 52.2 39.4 C 55.0 26.4, 88.2 16.8, 76.6 17.0 C 59.6 30.6, 36.9 37.5, 32.0 43.1 C 23.8 29.2, 18.4 100.0, 15.5 93.1 C 3.1 77.7, 21.9 8.8, 9.8 5.6 Z" fill="hsl(144, 86%, 72%)" fill-opacity="0.38" stroke="none" stroke-width="1.94"  transform="translate(99.1 59.8) rotate(76.8) scale(1.04 1.47)" />
<circle cx="99.1" cy="35.3" r="0.3" fill="hsl(83, 65%, 44%)" fill-opacity="0.71"  transform="translate(56.9 52.6) rotate(191.7) scale(0.65 1.11)" />
<circle cx="70.9" cy="8.5" r="0.5" fill="url(#g2)" fill-opacity="0.42"  transform="translate(84.1 74.6) rotate(239.6) scale(1.38 1.50)" />
<path d="M 21.3 58.1 C 34.3 55.5, 10.2 58.4, 11.2 51.6 C 0.0 53.9, 64.0 0.0, 67.1 1.0 C 51.4 19.1, 43.9 32.3, 36.6 42.7 C 34.9 56.1, 17.2 37.0, 19.0 35.8 C 0.0 40.3, 51.2 42.5, 36.5 39.9 C 28.9 51.9, 16.6 42.2, 23.8 54.1 C 33.3 38.9, 35.6 43.8, 47.6 30.9 Z" fill="hsl(144, 86%, 72%)" fill-opacity="1.00" stroke="none" stroke-width="4.18"   />
<rect x="25.3" y="42.0" width="20.6" height="20.9" rx="6.3" fill="hsl(144, 86%, 72%)" fill-opacity="0.30"  filter="url(#f1)" transform="translate(7.6 55.7) rotate(349.2) scale(1.31 1.88)" />
<circle cx="90.7" cy="53.0" r="4.5" fill="url(#g0)" fill-opacity="0.53"  transform="translate(15.3 31.0) rotate(190.3) scale(1.62 0.98)" />
<rect x="57.2" y="32.6" width="41.8" height="37.3" rx="0" fill="hsl(40, 53%, 69%)" fill-opacity="0.31"   transform="translate(27.3 20.1) rotate(173.7) scale(1.83 0.87)" />
<rect x="29.1" y="30.4" width="33.7" height="34.2" rx="7.0" fill="hsl(322, 74%, 44%)" fill-opacity="0.62"   transform="translate(83.7 37.1) rotate(162.2) scale(1.78 0.95)" />
<circle cx="64.3" cy="68.6" r="17.6" fill="url(#g2)" fill-opacity="0.50"  transform="translate(12.8 93.4) rotate(189.4) scale(1.22 1.13)" />
<rect x="26.3" y="40.1" width="35.8" height="13.1" rx="8.9" fill="hsl(144, 86%, 72%)" fill-opacity="0.78"   transform="translate(65.5 79.5) rotate(119.7) scale(0.81 1.79)" />
<path d="M 72.1 53.1 C 74.0 49.8, 32.4 83.6, 41.0 83.0 C 33.6 69.1, 28.1 32.5, 24.0 30.5 C 10.9 38.7, 52.2 71.7, 52.9 80.2 C 61.7 95.9, 74.5 94.7, 78.2 95.8 C 87.9 100.0, 77.4 62.8, 75.4 59.4 C 58.5 39.8, 56.0 49.6, 53.3 38.8 Z" fill="hsl(290, 83%, 63%)" fill-opacity="0.35" stroke="none" stroke-width="3.28"  transform="translate(35.0 25.2) rotate(54.9) scale(1.85 0.78)" />
<circle cx="57.7" cy="32.4" r="10.9" fill="url(#g0)" fill-opacity="0.64"   />
<circle cx="18.1" cy="62.9" r="10.5" fill="hsl(2, 82%, 55%)" fill-opacity="0.52"   />
<rect x="73.8" y="42.6" width="23.5" height="34.3" rx="0" fill="none" fill-opacity="0.23" stroke="hsl(106, 75%, 59%)" stroke-width="2.2"  transform="translate(13.5 28.5) rotate(1.9) scale(1.33 1.97)" />
<circle cx="89.7" cy="42.2" r="1.9" fill="hsl(104, 72%, 65%)" fill-opacity="0.98"  transform="translate(95.2 48.1) rotate(131.3) scale(0.62 0.62)" />
<path d="M 36.0 48.4 C 26.3 64.6, 35.5 56.1, 43.0 65.4 C 51.1 50.3, 83.4 100.0, 69.2 96.8 C 85.2 100.0, 44.3 0.0, 35.0 0.0 C 33.2 0.0, 6.9 82.1, 15.9 86.9 C 4.8 91.5, 93.3 10.1, 94.8 25.0 C 78.2 8.0, 74.2 100.0, 83.5 97.3 C 90.5 100.0, 14.2 71.8, 26.9 74.9 C 44.0 67.8, 73.1 58.1, 67.3 68.6 C 74.1 59.4, 88.7 100.0, 92.7 93.4 " fill="hsl(86, 72%, 68%)" fill-opacity="0.99" stroke="none" stroke-width="0.89"  transform="translate(65.9 64.4) rotate(270.2) scale(1.07 1.47)" />
<rect x="36.3" y="43.7" width="46.1" height="33.9" rx="0" fill="none" fill-opacity="0.23" stroke="hsl(40, 53%, 69%)" stroke-width="1.9"  transform="translate(98.7 70.1) rotate(150.8) scale(1.44 1.45)" />
<circle cx="79.1" cy="28.0" r="4.3" fill="url(#g2)" fill-opacity="0.70"  transform="translate(59.1 23.4) rotate(46.6) scale(1.78 0.74)" />
<circle cx="48.7" cy="6.0" r="2.9" fill="url(#g1)" fill-opacity="0.49"  transform="translate(42.8 36.7) rotate(87.9) scale(1.25 0.93)" />
<circle cx="27.1" cy="49.6" r="7.6" fill="hsl(151, 70%, 62%)" fill-opacity="0.75"   />
<path d="M 97.9 30.6 C 100.0 20.6, 63.6 33.6, 72.8 47.8 C 63.6 44.9, 87.2 51.3, 83.9 53.5 C 69.0 65.2, 57.3 41.0, 50.9 47.0 C 46.7 27.1, 50.5 29.3, 45.4 43.1 C 39.4 51.0, 78.5 8.3, 89.1 3.4 C 77.8 17.9, 68.0 69.6, 61.0 65.6 C 47.6 82.9, 87.3 10.4, 98.3 12.1 C 100.0 17.8, 6.9 60.6, 3.0 54.2 Z" fill="none" fill-opacity="0.86" stroke="hsl(2, 82%, 55%)" stroke-width="2.78" filter="url(#f1)"  />
<rect x="49.9" y="24.6" width="39.0" height="21.9" rx="2.7" fill="hsl(290, 83%, 63%)" fill-opacity="0.33"  filter="url(#f1)" transform="translate(78.8 31.5) rotate(86.9) scale(1.91 0.97)" />
<rect x="36.2" y="57.8" width="47.3" height="39.9" rx="0" fill="hsl(322, 74%, 44%)" fill-opacity="0.52"  filter="url(#f1)" transform="translate(35.0 90.8) rotate(234.2) scale(0.58 0.80)" />
<path d="M 24.3 10.6 C 37.0 0.0, 23.1 61.9, 25.8 75.4 C 8.2 68.6, 54.7 63.5, 61.7 49.3 C 58.3 45.9, 37.4 98.1, 42.9 83.6 C 31.0 79.6, 41.9 13.5, 36.0 24.9 C 18.9 20.3, 96.8 34.4, 90.1 44.6 C 92.2 35.3, 0.0 48.4, 2.6 33.8 C 21.4 34.7, 32.0 39.8, 34.2 37.9 Z" fill="none" fill-opacity="0.69" stroke="hsl(144, 86%, 72%)" stroke-width="2.10"  transform="translate(61.9 86.7) rotate(250.9) scale(1.64 1.72)" />
<path d="M 38.7 64.6 C 35.9 81.0, 82.3 73.1, 72.5 62.2 C 66.3 45.3, 36.3 69.7, 31.9 70.3 C 32.2 60.6, 71.7 59.8, 61.8 53.3 C 59.4 43.9, 81.7 84.3, 86.3 70.9 C 90.2 87.1, 46.4 94.2, 56.0 87.6 C 54.2 69.1, 73.4 31.5, 62.1 42.2 C 78.6 40.4, 30.4 100.0, 26.1 95.9 C 24.4 100.0, 83.0 41.7, 87.7 37.5 C 100.0 31.3, 0.0 52.2, 3.5 44.1 Z" fill="none" fill-opacity="0.27" stroke="hsl(242, 72%, 49%)" stroke-width="2.90"  transform="translate(73.1 19.4) rotate(156.2) scale(1.50 0.52)" />
<rect x="1.6" y="75.2" width="34.7" height="12.4" rx="1.3" fill="none" fill-opacity="0.96"   transform="translate(73.2 95.4) rotate(41.2) scale(1.81 0.54)" />
<path d="M 60.6 78.0 C 77.3 81.3, 65.6 64.6, 71.3 57.7 C 62.2 49.7, 79.7 13.5, 74.7 23.7 C 63.5 13.4, 85.7 73.7, 96.2 61.3 C 78.0 59.7, 0.0 6.0, 3.0 19.1 C 11.4 10.2, 69.5 76.2, 82.9 64.8 C 97.4 65.3, 29.9 12.1, 31.2 2.6 C 43.8 0.0, 35.8 13.3, 44.8 4.5 C 45.6 0.0, 100.0 41.5, 85.2 51.2 C 75.0 34.5, 47.1 44.1, 49.1 33.5 Z" fill="hsl(104, 72%, 65%)" fill-opacity="0.94" stroke="none" stroke-width="1.58"   />
<path d="M 25.7 35.9 C 13.2 31.6, 26.1 78.5, 39.8 64.1 C 46.9 49.5, 10.5 56.5, 6.8 68.8 C 3.2 78.2, 43.3 9.7, 44.9 22.0 C 53.9 31.9, 44.9 43.0, 46.3 34.0 C 56.6 38.7, 2.5 100.0, 0.2 94.1 C 11.1 100.0, 40.6 63.7, 29.9 66.8 C 46.6 80.7, 60.3 61.6, 74.2 56.9 C 87.3 47.6, 15.1 73.6, 9.1 80.8 C 7.6 66.0, 69.0 99.9, 74.5 97.6 Z" fill="none" fill-opacity="0.89" stroke="hsl(151, 70%, 62%)" stroke-width="4.86"  transform="translate(85.4 8.5) rotate(358.0) scale(0.60 1.37)" />
<path d="M 88.0 43.8 C 95.2 31.5, 81.5 49.4, 85.1 59.6 C 99.3 69.8, 85.3 63.4, 80.0 61.6 C 63.2 45.9, 41.1 79.1, 38.7 76.6 C 20.0 61.4, 66.5 90.5, 79.1 84.4 C 70.2 77.7, 100.0 100.0, 99.5 95.1 C 82.1 100.0, 42.7 69.4, 46.2 70.0 C 60.9 90.0, 33.4 97.5, 20.8 94.9 Z" fill="hsl(183, 71%, 60%)" fill-opacity="0.94" stroke="none" stroke-width="1.07"   />
<rect x="65.2" y="39.3" width="20.6" height="37.5" rx="0" fill="none" fill-opacity="0.85"   transform="translate(60.2 25.9) rotate(325.7) scale(1.31 0.66)" />
<path d="M 89.7 23.6 C 84.6 31.0, 100.0 25.8, 95.0 33.9 C 98.3 22.0, 72.1 47.8, 77.4 33.2 C 91.0 46.0, 42.9 100.0, 36.6 97.8 C 48.0 81.7, 43.8 74.1, 41.2 77.6 C 35.3 65.3, 72.4 30.4, 73.7 37.6 C 68.2 20.2, 37.1 19.8, 37.5 6.7 C 54.4 12.4, 48.5 21.3, 51.0 19.0 C 50.3 0.0, 23.9 65.6, 27.9 76.9 Z" fill="none" fill-opacity="0.89" stroke="hsl(290, 83%, 63%)" stroke-width="4.30" filter="url(#f1)" transform="translate(90.4 85.7) rotate(171.0) scale(1.37 1.90)" />
<g opacity="0.057">
<rect x="0" y="0" width="1" height="100" fill="black" />
<rect x="22" y="0" width="1" height="100" fill="black" />
<rect x="44" y="0" width="1" height="100" fill="black" />
<rect x="66" y="0" width="1" height="100" fill="black" />
<rect x="88" y="0" width="1" height="100" fill="black" />
<rect x="0" y="0" width="100" height="1" fill="black" />
<rect x="0" y="22" width="100" height="1" fill="black" />
<rect x="0" y="44" width="100" height="1" fill="black" />
<rect x="0" y="66" width="100" height="1" fill="black" />
<rect x="0" y="88" width="100" height="1" fill="black" />
</g>

</svg>
