<?xml version="1.0" encoding="UTF-8"?>
<svg xmlns="http://www.w3.org/2000/svg" width="100" height="100" viewBox="0 0 100 100">
<defs>
<linearGradient id="g0" x1="0%" y1="0%" x2="100%" y2="100%">
<stop offset="0.0%" stop-color="hsl(106, 75%, 59%)" />
<stop offset="33.3%" stop-color="hsl(183, 71%, 60%)" />
<stop offset="66.7%" stop-color="hsl(242, 72%, 49%)" />
<stop offset="100.0%" stop-color="hsl(322, 74%, 44%)" />
</linearGradient>
<linearGradient id="g1" x1="0%" y1="0%" x2="100%" y2="100%">
<stop offset="0.0%" stop-color="hsl(290, 83%, 63%)" />
<stop offset="33.3%" stop-color="hsl(2, 82%, 55%)" />
<stop offset="66.7%" stop-color="hsl(86, 72%, 68%)" />
<stop offset="100.0%" stop-color="hsl(83, 65%, 44%)" />
</linearGradient>
<linearGradient id="g2" x1="0%" y1="0%" x2="100%" y2="100%">
<stop offset="0.0%" stop-color="hsl(40, 53%, 69%)" />
<stop offset="33.3%" stop-color="hsl(104, 72%, 65%)" />
<stop offset="66.7%" stop-color="hsl(144, 86%, 72%)" />
<stop offset="100.0%" stop-color="hsl(151, 70%, 62%)" />
</linearGradient>
<filter id="f1" x="-20%" y="-20%" width="140%" height="140%">
  <feGaussianBlur stdDeviation="2.341261274087511" />
</filter>

</defs>

<path d="M 22.2 15.3 C 29.6 0.0, 69.9 90.2, 76.1 89.0 C 79.7 95.2, 15.2 19.3, 15.2 25.1 C 0.0 28.6, 48.4 12.9, 57.8 5.6 C 53.2 23.6, 28.0 0.0, 34.0 8.5 C 43.2 27.5, 61.0 78.5, 73.0 68.8 C 62.2 68.6, 75.6 77.6, 76.3 84.2 C 88.7 67.1, 21.7 27.2, 24.5 33.3 C 13.6 43.9, 93.7 11.1, 81.5 13.6 Z" fill="none" fill-opacity="0.74" stroke="hsl(144, 86%, 72%)" stroke-width="3.23"  transform="translate(68.3 88.4) rotate(159.9) scale(1.64 1.85)" />
<rect x="53.3" y="61.3" width="21.3" height="30.8" rx="0" fill="hsl(290, 83%, 63%)" fill-opacity="0.27" stroke="hsl(2, 82%, 55%)" stroke-width="2.4" filter="url(#f1)" transform="translate(31.0 65.8) rotate(120.0) scale(1.04 1.19)" />
<path d="M 56.6 44.4 C 52.2 38.0, 72.6 0.0, 61.1 11.7 C 76.4 17.3, 95.9 15.9, 99.5 22.9 C 100.0 39.3, 81.1 6.0, 94.9 17.7 C 79.6 18.1, 50.3 64.0, 39.5 74.0 C 40.2 74.9, 27.7 26.0, 42.0 29.8 C 24.2 37.9, 14.8 59.0, 12.3 69.2 C 0.0 75.3, 33.7 70.6, 26.1 79.9 C 12.2 73.3, 76.4 100.0, 63.7 89.7 Z" fill="none" fill-opacity="0.30" stroke="hsl(2, 82%, 55%)" stroke-width="1.89"   />
<rect x="47.2" y="8.1" width="46.9" height="39.9" rx="0" fill="hsl(242, 72%, 49%)" fill-opacity="0.89"   transform="translate(49.8 39.9) rotate(284.0) scale(1.80 1.45)" />
<rect x="53.4" y="23.3" width="32.1" height="30.2" rx="0" fill="hsl(290, 83%, 63%)" fill-opacity="0.77" stroke="hsl(83, 65%, 44%)" stroke-width="4.7"  transform="translate(36.1 16.5) rotate(246.4) scale(1.30 1.31)" />
<rect x="37.1" y="18.3" width="23.0" height="16.2" rx="0" fill="hsl(242, 72%, 49%)" fill-opacity="0.75"  filter="url(#f1)"  />
<path d="M 28.8 69.5 C 28.5 86.6, 19.7 81.6, 21.0 68.6 C 9.8 75.3, 12.5 31.2, 4.0 37.2 C 13.1 17.5, 84.4 96.6, 98.8 97.8 C 100.0 100.0, 23.3 44.5, 34.0 46.8 C 22.7 53.3, 79.0 84.8, 85.5 91.6 C 85.2 95.7, 75.3 100.0, 86.2 97.1 C 95.0 95.9, 67.1 16.8, 74.2 4.5 C 80.4 0.0, 71.9 25.0, 66.1 17.1 C 84.5 36.1, 100.0 32.9, 99.6 24.8 Z" fill="hsl(322, 74%, 44%)" fill-opacity="0.77" stroke="none" stroke-width="1.70" filter="url(#f1)" transform="translate(98.8 35.9) rotate(38.7) scale(1.75 0.54)" />
<circle cx="51.1" cy="61.0" r="6.3" fill="hsl(290, 83%, 63%)" fill-opacity="0.86"  transform="translate(37.4 44.8) rotate(141.6) scale(1.75 1.40)" />
<path d="M 91.0 56.1 C 92.4 48.8, 5.7 14.9, 12.4 7.5 C 0.0 3.6, 84.6 60.1, 81.7 73.1 C 75.1 64.7, 69.1 57.3, 67.5 63.8 C 82.1 58.0, 54.3 38.5, 55.3 24.4 C 41.5 43.0, 12.3 48.8, 21.6 40.1 C 24.9 32.7, 96.1 12.6, 99.5 12.1 C 100.0 0.0, 40.6 74.2, 52.9 75.0 Z" fill="none" fill-opacity="0.82" stroke="hsl(183, 71%, 60%)" stroke-width="5.24"  transform="translate(26.8 70.5) rotate(120.8) scale(1.21 0.56)" />
<path d="M 65.1 79.9 C 81.6 63.1, 18.4 43.0, 8.9 41.9 C 4.3 40.0, 95.1 28.3, 91.6 33.3 C 73.1 21.8, 15.1 25.0, 21.6 13.0 C 20.8 21.9, 60.1 33.8, 55.5 33.3 C 39.5 42.4, 0.0 32.8, 1.9 26.2 C 2.4 40.6, 1.7 11.4, 8.3 21.4 Z" fill="hsl(242, 72%, 49%)" fill-opacity="0.49" stroke="none" stroke-width="2.60"  transform="translate(86.1 39.9) rotate(289.6) scale(1.68 1.61)" />
<circle cx="63.3" cy="93.7" r="2.0" fill="url(#g1)" fill-opacity="0.41"  transform="translate(52.9 18.4) rotate(74.3) scale(0.98 1.67)" />
<path d="M 51.9 36.4 C 64.4 44.1, 18.3 4.2, 3.7 2.7 C 14.2 1.0, 87.8 89.0, 80.1 75.3 C 68.4 80.4, 57.2 100.0, 55.3 86.4 C 53.8 70.5, 31.3 84.6, 30.6 97.1 C 16.3 82.4, 40.2 24.4, 53.0 38.0 C 65.0 42.5, 43.3 79.9, 49.7 76.9 C 67.0 92.8, 13.2 31.1, 7.2 16.3 Z" fill="none" fill-opacity="0.97" stroke="hsl(40, 53%, 69%)" stroke-width="1.47"  transform="translate(22.8 79.4) rotate(341.1) scale(1.34 1.89)" />
<circle cx="38.7" cy="54.0" r="12.9" fill="hsl(86, 72%, 68%)" fill-opacity="0.86" filter="url(#f1)" transform="translate(17.4 90.2) rotate(11.6) scale(0.92 1.72)" />
<path d="M 60.8 94.2 C 53.7 88.7, 27.7 27.9, 36.5 16.7 C 35.5 31.5, 26.5 0.0, 29.2 3.7 C 17.1 0.0, 52.6 54.0, 42.1 59.0 C 60.8 41.8, 68.6 83.3, 80.7 70.3 C 74.6 59.4, 62.2 65.4, 57.2 71.6 C 41.2 72.4, 1.6 63.4, 5.5 65.5 Z" fill="none" fill-opacity="0.75" stroke="hsl(83, 65%, 44%)" stroke-width="3.78"  transform="translate(88.9 38.5) rotate(183.3) scale(0.79 0.60)" />
<path d="M 11.9 3.4 C 1.1 20.8, 88.4 13.7, 96.0 24.0 C 100.0 25.0, 13.5 6.2, 24.8 6.8 C 33.4 7.0, 87.5 41.7, 76.9 31.4 C 80.8 39.7, 100.0 51.0, 98.8 37.5 C 83.4 47.3, 42.2 27.5, 28.6 24.4 C 16.8 16.6, 91.9 57.0, 82.8 45.8 C 70.3 38.1, 73.7 86.3, 82.8 91.8 C 72.2 75.8, 66.1 28.8, 51.1 33.8 Z" fill="none" fill-opacity="0.61" stroke="hsl(322, 74%, 44%)" stroke-width="4.59"  transform="translate(19.6 5.4) rotate(127.5) scale(1.36 0.87)" />
<circle cx="68.6" cy="19.3" r="17.0" fill="url(#g1)" fill-opacity="0.74"  transform="translate(80.7 32.1) rotate(111.3) scale(0.59 0.74)" />
<path d="M 9.6 51.6 C 6.3 58.2, 82.4 15.1, 96.9 3.7 C 100.0 19.8, 30.2 32.9, 32.7 26.4 C 45.4 8.6, 31.0 90.8, 16.0 81.7 C 4.7 76.4, 58.2 23.5, 44.6 22.8 C 59.3 10.3, 33.2 76.4, 29.6 80.5 C 12.3 74.0, 100.0 75.9, 92.5 65.8 C 100.0 60.9, 84.6 68.2, 92.6 68.1 C 92.6 50.0, 52.1 76.5, 45.0 63.4 C 41.6 48.3, 97.1 31.0, 95.0 23.9 C 100.0 30.3, 23.4 53.4, 24.6 54.4 Z" fill="hsl(104, 72%, 65%)" fill-opacity="0.76" stroke="none" stroke-width="5.15"  transform="translate(85.6 90.2) rotate(300.3) scale(1.55 0.71)" />
<path d="M 64.1 64.1 C 45.6 62.5, 0.0 61.0, 5.1 70.9 C 0.0 61.2, 66.7 93.4, 66.5 95.5 C 84.2 100.0, 14.7 73.9, 11.8 76.9 C 17.9 66.1, 4.3 26.0, 1.2 12.5 C 19.7 25.2, 15.1 48.3, 21.2 62.2 C 10.3 46.4, 37.9 16.0, 45.2 26.3 Z" fill="none" fill-opacity="0.64" stroke="hsl(290, 83%, 63%)" stroke-width="4.04"  transform="translate(83.6 94.4) rotate(66.7) scale(1.02 0.60)" />
<path d="M 62.0 41.6 C 58.6 37.4, 48.4 15.1, 57.9 2.8 C 62.5 0.0, 43.8 88.2, 53.8 99.3 C 66.7 80.0, 100.0 78.3, 99.8 78.7 C 100.0 95.5, 68.1 23.4, 60.6 27.0 C 62.3 39.7, 82.9 79.0, 70.6 68.5 C 85.0 75.9, 94.7 67.3, 82.3 57.5 C 80.2 71.8, 19.8 84.5, 19.7 97.0 C 4.2 77.5, 9.8 69.0, 14.6 72.3 C 18.6 70.9, 79.6 0.0, 81.5 4.7 C 71.8 7.1, 15.5 34.0, 30.4 35.0 Z" fill="hsl(106, 75%, 59%)" fill-opacity="0.26" stroke="none" stroke-width="1.83"  transform="translate(74.5 13.5) rotate(254.3) scale(0.57 1.31)" />
<rect x="37.0" y="67.0" width="47.1" height="14.0" rx="13.6" fill="none" fill-opacity="0.66"   transform="translate(6.3 12.7) rotate(348.5) scale(0.61 1.59)" />
<rect x="13.1" y="43.9" width="21.9" height="16.9" rx="0" fill="hsl(290, 83%, 63%)" fill-opacity="0.21"   transform="translate(84.8 42.8) rotate(113.7) scale(1.36 1.61)" />
<rect x="54.0" y="73.6" width="24.6" height="10.0" rx="13.5" fill="none" fill-opacity="0.99" stroke="hsl(86, 72%, 68%)" stroke-width="1.4"  transform="translate(25.5 32.9) rotate(190.9) scale(1.84 0.89)" />
<path d="M 27.0 27.8 C 9.0 23.2, 57.4 10.0, 45.6 18.5 C 47.8 31.7, 88.9 13.2, 75.0 23.0 C 74.8 20.4, 13.8 19.0, 26.9 6.4 C 17.4 9.5, 78.5 27.1, 91.7 22.1 C 100.0 23.7, 19.3 41.9, 29.4 46.4 C 38.3 51.9, 80.5 95.2, 82.4 86.7 C 91.8 100.0, 0.0 18.6, 2.2 30.8 C 0.0 23.4, 34.5 82.6, 23.3 82.3 C 25.0 88.4, 71.1 14.4, 78.0 10.5 C 62.0 8.9, 100.0 25.9, 93.0 30.8 " fill="hsl(86, 72%, 68%)" fill-opacity="0.71" stroke="none" stroke-width="1.96"   />
<path d="M 17.5 12.4 C 0.0 5.6, 35.4 47.3, 38.5 54.9 C 47.3 70.0, 36.0 36.3, 23.4 24.1 C 12.9 10.0, 52.2 12.0, 42.3 13.3 C 31.8 26.6, 60.3 76.9, 69.9 76.5 C 89.2 65.5, 92.8 56.1, 93.6 42.1 C 100.0 61.7, 23.6 100.0, 21.4 99.8 C 37.7 91.8, 58.6 56.2, 50.8 59.2 Z" fill="none" fill-opacity="0.33" stroke="hsl(106, 75%, 59%)" stroke-width="4.86"  transform="translate(39.0 88.2) rotate(339.8) scale(0.64 1.37)" />
<rect x="47.0" y="61.8" width="47.7" height="36.4" rx="0" fill="none" fill-opacity="0.65" stroke="hsl(104, 72%, 65%)" stroke-width="4.0"   />
<path d="M 88.8 0.7 C 76.5 0.0, 92.9 81.3, 78.1 80.5 C 86.3 99.1, 85.7 74.2, 89.8 61.6 C 99.5 67.4, 98.1 0.0, 83.7 2.5 C 64.8 1.8, 66.5 26.3, 55.9 18.4 C 66.2 1.0, 9.9 46.7, 0.6 49.7 C 3.5 61.3, 73.1 31.2, 61.3 37.0 C 73.3 50.9, 47.3 11.9, 33.5 14.3 C 51.9 25.1, 51.4 74.7, 37.2 80.2 C 49.9 93.8, 66.7 99.1, 64.9 98.4 C 75.9 100.0, 0.0 17.8, 1.8 19.8 Z" fill="hsl(40, 53%, 69%)" fill-opacity="0.93" stroke="none" stroke-width="5.10" filter="url(#f1)"  />
<path d="M 43.0 81.0 C 38.0 96.3, 18.0 4.3, 23.1 14.3 C 20.3 3.0, 90.7 15.5, 78.2 9.4 C 59.0 27.8, 72.9 20.4, 85.3 34.9 C 98.3 19.5, 0.3 84.1, 0.7 90.0 C 1.5 89.8, 87.4 49.8, 83.8 39.1 C 74.2 34.3, 19.1 26.1, 5.6 21.3 C 0.0 18.9, 0.0 8.1, 3.5 4.9 C 0.0 24.2, 100.0 33.0, 90.8 19.5 C 95.9 36.8, 100.0 60.8, 99.1 62.3 C 100.0 43.7, 21.7 4.2, 18.4 2.6 Z" fill="none" fill-opacity="0.31" stroke="hsl(151, 70%, 62%)" stroke-width="3.82"  transform="translate(15.2 3.0) rotate(91.4) scale(0.66 0.60)" />
<path d="M 1.3 55.5 C 0.0 37.3, 8.0 59.8, 0.9 45.0 C 0.0 60.8, 90.0 86.2, 81.0 85.2 C 73.9 78.1, 0.0 46.0, 4.9 59.6 C 0.0 76.3, 0.5 0.0, 6.5 12.8 C 0.0 3.0, 74.4 45.2, 86.1 45.1 C 97.5 44.8, 16.9 96.8, 30.1 87.9 C 43.1 98.1, 59.8 52.7, 45.0 56.2 Z" fill="none" fill-opacity="0.67" stroke="hsl(183, 71%, 60%)" stroke-width="3.81" filter="url(#f1)" transform="translate(40.5 53.9) rotate(24.4) scale(0.88 1.32)" />
<path d="M 9.4 90.0 C 0.0 99.5, 100.0 53.7, 95.6 39.6 C 100.0 48.7, 30.4 93.2, 41.5 86.8 C 23.1 74.6, 89.6 59.9, 75.9 60.9 C 85.0 64.0, 96.5 94.2, 89.0 94.8 C 73.9 76.6, 38.3 12.2, 51.8 19.1 C 59.4 35.0, 77.7 34.2, 73.0 35.5 C 78.9 47.0, 22.2 64.4, 27.7 76.9 C 46.4 73.5, 90.3 0.3, 96.7 6.0 Z" fill="none" fill-opacity="0.99" stroke="hsl(104, 72%, 65%)" stroke-width="4.49"  transform="translate(7.0 11.7) rotate(319.5) scale(1.03 1.77)" />
<rect x="27.1" y="14.6" width="21.3" height="30.8" rx="17.5" fill="hsl(183, 71%, 60%)" fill-opacity="0.20"   transform="translate(58.1 64.5) rotate(78.9) scale(0.56 1.07)" />
<circle cx="15.2" cy="55.9" r="15.3" fill="hsl(86, 72%, 68%)" fill-opacity="0.91"  transform="translate(73.3 45.8) rotate(315.7) scale(1.17 1.58)" />
<path d="M 64.7 70.7 C 56.4 54.0, 89.7 64.3, 98.8 57.2 C 100.0 75.0, 74.7 30.0, 67.4 42.3 C 76.8 48.5, 31.4 49.6, 30.9 62.2 C 18.8 70.3, 48.6 14.9, 59.9 9.6 C 67.1 24.5, 0.9 46.7, 3.4 40.9 C 18.9 59.4, 0.0 41.7, 0.4 51.7 C 0.0 45.4, 41.5 89.3, 43.1 75.4 C 44.9 69.2, 41.0 85.5, 49.3 87.7 C 37.1 99.5, 10.4 60.5, 22.5 50.0 Z" fill="hsl(83, 65%, 44%)" fill-opacity="0.63" stroke="none" stroke-width="4.29"  transform="translate(22.2 87.6) rotate(37.1) scale(0.90 0.68)" />
<path d="M 5.8 18.0 C 1.0 32.9, 72.1 55.1, 77.5 51.2 C 93.2 62.0, 49.6 84.9, 62.0 71.3 C 60.0 84.0, 29.1 95.3, 36.6 87.9 C 21.4 94.7, 88.9 73.2, 99.5 74.3 C 100.0 71.4, 74.8 64.8, 87.8 79.4 C 92.8 85.0, 87.8 62.4, 89.7 51.1 Z" fill="none" fill-opacity="0.38" stroke="hsl(183, 71%, 60%)" stroke-width="1.61"  transform="translate(8.4 73.9) rotate(240.7) scale(1.67 1.87)" />
<path d="M 96.1 69.4 C 100.0 80.1, 70.3 18.8, 57.3 12.5 C 51.6 23.2, 100.0 1.2, 93.2 6.7 C 99.8 0.0, 60.4 73.0, 67.0 72.7 C 82.5 91.5, 83.4 11.3, 78.2 14.1 C 75.0 26.8, 28.0 94.7, 30.2 84.7 C 25.7 79.1, 3.3 11.1, 14.6 8.7 C 20.1 4.6, 65.7 87.3, 77.0 77.3 Z" fill="none" fill-opacity="0.60" stroke="hsl(290, 83%, 63%)" stroke-width="1.61"  transform="translate(12.2 19.7) rotate(350.1) scale(0.62 1.93)" />
<path d="M 97.7 79.6 C 87.9 68.5, 52.1 86.3, 41.2 98.7 C 33.3 100.0, 25.0 14.6, 38.3 17.4 C 51.1 31.9, 55.6 54.4, 60.0 48.8 C 49.4 57.5, 58.1 80.1, 53.5 83.7 C 48.3 99.0, 54.1 13.7, 39.6 11.3 C 36.4 26.8, 38.6 93.4, 36.9 94.1 C 18.5 76.6, 24.7 0.0, 30.7 6.5 C 40.8 11.6, 75.1 77.8, 84.4 68.3 C 74.2 59.3, 19.3 24.7, 16.6 26.4 Z" fill="none" fill-opacity="0.72" stroke="hsl(2, 82%, 55%)" stroke-width="4.90"  transform="translate(33.3 76.2) rotate(82.5) scale(0.92 0.60)" />
<circle cx="71.4" cy="87.0" r="4.8" fill="url(#g2)" fill-opacity="0.73" filter="url(#f1)" transform="translate(37.0 22.7) rotate(190.1) scale(1.85 0.67)" />
<circle cx="88.4" cy="70.7" r="7.1" fill="hsl(144, 86%, 72%)" fill-opacity="0.58"  transform="translate(1.5 6.0) rotate(184.3) scale(1.43 0.72)" />
<path d="M 80.0 14.8 C 71.7 29.3, 59.3 83.4, 66.2 94.3 C 65.8 76.5, 100.0 72.7, 95.0 66.4 C 100.0 80.2, 31.8 30.4, 21.4 32.1 C 3.4 31.0, 22.6 66.4, 16.1 63.0 C 14.0 43.5, 91.1 98.9, 79.6 86.0 C 99.5 96.7, 81.3 33.1, 69.2 20.0 C 71.8 9.4, 22.8 100.0, 13.2 95.1 C 29.4 92.5, 62.8 16.2, 74.6 6.2 C 79.9 14.1, 37.1 79.6, 23.3 68.4 Z" fill="none" fill-opacity="0.48" stroke="hsl(144, 86%, 72%)" stroke-width="3.72"  transform="translate(62.1 49.4) rotate(26.7) scale(1.67 0.89)" />
<path d="M 9.4 18.0 C 7.2 10.5, 41.5 45.1, 32.8 39.3 C 38.7 26.9, 48.1 23.7, 56.6 31.8 C 74.9 22.9, 27.9 41.2, 13.9 30.0 C 0.0 22.1, 60.5 41.6, 68.7 54.8 C 85.5 36.7, 82.9 64.8, 73.1 54.7 C 68.5 71.2, 64.5 13.5, 75.4 14.6 C 80.3 0.0, 25.8 48.0, 22.2 40.2 C 18.7 33.3, 62.9 75.5, 49.1 78.6 C 58.8 77.3, 0.0 75.6, 1.1 77.3 " fill="none" fill-opacity="0.75" stroke="hsl(2, 82%, 55%)" stroke-width="4.81"   />
<rect x="63.2" y="72.9" width="27.8" height="25.0" rx="0" fill="hsl(242, 72%, 49%)" fill-opacity="0.62"  filter="url(#f1)" transform="translate(47.9 45.6) rotate(354.0) scale(1.40 1.72)" />
<rect x="55.7" y="45.5" width="38.8" height="11.0" rx="0" fill="hsl(104, 72%, 65%)" fill-opacity="0.43"   transform="translate(43.9 64.8) rotate(266.5) scale(1.30 1.52)" />
<circle cx="53.5" cy="50.9" r="8.3" fill="url(#g1)" fill-opacity="0.63"  transform="translate(66.9 18.2) rotate(153.0) scale(1.32 1.04)" />
<circle cx="57.6" cy="65.6" r="5.8" fill="url(#g1)" fill-opacity="0.96"  transform="translate(95.4 76.1) rotate(160.3) scale(0.62 1.54)" />
<path d="M 32.8 54.7 C 45.5 70.9, 84.6 60.9, 74.2 68.0 C 93.8 76.5, 17.2 34.9, 11.7 49.1 C 5.8 55.3, 91.0 81.0, 97.4 92.9 C 98.6 81.4, 12.5 78.2, 13.8 85.4 C 15.7 68.9, 13.4 1.7, 16.6 4.3 C 7.4 21.8, 59.0 18.0, 44.9 14.6 C 43.5 13.6, 56.1 87.1, 67.4 86.5 C 65.9 93.4, 37.8 54.3, 47.2 47.5 C 35.0 59.6, 100.0 98.1, 98.1 97.7 C 90.6 98.3, 18.7 14.5, 4.1 1.1 Z" fill="hsl(144, 86%, 72%)" fill-opacity="0.81" stroke="none" stroke-width="1.15"  transform="translate(61.3 62.3) rotate(20.2) scale(0.78 1.21)" />
<circle cx="27.6" cy="27.0" r="4.7" fill="url(#g0)" fill-opacity="0.57"  transform="translate(66.6 93.3) rotate(311.7) scale(1.27 1.46)" />
<path d="M 80.2 27.5 C 81.2 34.6, 57.9 5.9, 53.0 18.3 C 64.6 25.9, 66.0 94.8, 56.3 98.1 C 58.8 100.0, 9.8 99.2, 16.4 89.9 C 6.3 91.3, 10.3 62.4, 20.2 68.9 C 24.6 78.3, 62.4 15.5, 71.8 17.3 C 84.4 5.6, 53.4 50.9, 41.4 54.9 C 34.1 64.7, 30.6 19.0, 16.9 6.2 C 0.0 0.0, 48.8 16.0, 53.3 24.4 C 60.2 8.0, 88.7 16.5, 88.6 19.2 C 86.4 31.1, 50.4 80.9, 36.3 95.6 " fill="hsl(86, 72%, 68%)" fill-opacity="0.75" stroke="none" stroke-width="2.38"  transform="translate(50.6 97.4) rotate(81.3) scale(1.07 1.14)" />
<circle cx="20.8" cy="13.8" r="14.8" fill="hsl(83, 65%, 44%)" fill-opacity="0.52" filter="url(#f1)" transform="translate(48.5 81.4) rotate(50.8) scale(0.52 0.86)" />
<circle cx="89.0" cy="40.7" r="15.2" fill="url(#g2)" fill-opacity="0.99" filter="url(#f1)" transform="translate(7.6 28.6) rotate(44.7) scale(1.14 0.65)" />
<path d="M 37.9 17.8 C 22.2 2.1, 22.5 78.6, 34.8 78.4 C 50.8 64.7, 9.5 35.8, 9.1 35.7 C 0.0 41.2, 23.2 12.7, 14.2 3.2 C 34.2 0.0, 46.8 41.1, 42.2 42.7 C 51.7 28.4, 91.2 79.3, 96.8 64.6 C 79.2 71.2, 66.8 44.3, 63.6 41.6 C 48.5 31.5, 36.5 87.8, 30.9 80.7 Z" fill="hsl(144, 86%, 72%)" fill-opacity="0.25" stroke="none" stroke-width="5.22"  transform="translate(79.7 45.2) rotate(10.0) scale(1.31 0.93)" />
<path d="M 99.5 34.5 C 100.0 42.4, 35.4 48.2, 24.3 41.2 C 27.9 59.4, 62.8 35.5, 50.5 36.7 C 68.8 47.6, 37.5 60.8, 50.3 71.8 C 33.0 81.2, 14.2 77.4, 6.9 81.5 C 0.0 83.5, 68.8 78.1, 61.2 89.6 C 56.7 92.5, 63.1 99.3, 73.9 94.5 C 57.2 94.6, 5.9 76.9, 17.8 79.4 C 4.6 80.2, 19.9 16.2, 12.8 7.6 Z" fill="hsl(104, 72%, 65%)" fill-opacity="0.64" stroke="none" stroke-width="4.21"  transform="translate(27.0 12.6) rotate(292.4) scale(1.51 0.89)" />
<circle cx="30.2" cy="86.6" r="11.0" fill="hsl(183, 71%, 60%)" fill-opacity="0.84" filter="url(#f1)" transform="translate(14.8 95.5) rotate(75.6) scale(0.80 0.65)" />
<rect x="19.9" y="61.7" width="49.2" height="36.4" rx="19.6" fill="none" fill-opacity="0.64"   transform="translate(31.7 31.8) rotate(317.2) scale(1.45 1.73)" />
<path d="M 29.4 83.9 C 22.1 97.3, 60.4 52.8, 57.4 48.4 C 70.2 63.8, 86.6 14.1, 86.0 4.9 C 76.8 19.5, 96.8 19.2, 89.8 17.8 C 100.0 37.3, 6.1 87.1, 10.5 83.3 C 0.0 75.1, 18.8 100.0, 32.1 94.0 C 38.5 100.0, 23.0 16.3, 29.7 31.1 C 45.2 25.4, 70.6 60.0, 76.1 58.3 Z" fill="none" fill-opacity="0.44" stroke="hsl(183, 71%, 60%)" stroke-width="2.58"  transform="translate(9.5 23.2) rotate(221.9) scale(1.82 1.99)" />
<path d="M 97.1 2.0 C 100.0 0.0, 78.8 18.8, 72.3 15.8 C 64.6 0.0, 42.7 34.5, 27.8 25.0 C 26.2 41.7, 66.0 41.0, 67.9 29.7 C 56.6 41.0, 76.5 96.2, 78.5 85.5 C 74.7 100.0, 82.8 64.3, 70.2 54.4 C 52.0 69.0, 8.0 48.5, 20.1 37.9 C 23.1 46.6, 61.6 20.2, 67.8 29.2 C 70.6 41.9, 27.0 78.4, 40.2 64.7 C 30.2 69.9, 37.3 74.8, 36.8 83.9 C 37.5 97.5, 55.5 89.4, 64.4 92.0 " fill="hsl(144, 86%, 72%)" fill-opacity="0.79" stroke="none" stroke-width="4.44"  transform="translate(11.1 73.0) rotate(99.9) scale(1.81 1.40)" />
<circle cx="31.0" cy="86.3" r="4.6" fill="hsl(83, 65%, 44%)" fill-opacity="0.43"  transform="translate(52.0 52.7) rotate(292.3) scale(1.14 1.10)" />
<path d="M 20.0 29.6 C 28.2 26.1, 92.0 55.8, 80.8 41.6 C 87.1 50.2, 72.8 25.7, 60.2 23.2 C 65.2 7.8, 31.7 83.2, 41.1 77.2 C 28.4 61.8, 61.8 43.0, 65.7 46.0 C 72.8 53.0, 43.1 42.5, 39.3 38.3 C 53.2 46.5, 40.4 39.0, 52.6 35.9 C 51.2 37.8, 30.4 40.3, 16.3 39.1 C 35.1 50.1, 7.1 89.3, 13.5 75.7 C 0.0 91.2, 0.0 75.1, 2.2 82.1 Z" fill="none" fill-opacity="0.53" stroke="hsl(83, 65%, 44%)" stroke-width="2.70"  transform="translate(28.3 38.4) rotate(242.6) scale(0.53 1.77)" />
<rect x="52.3" y="3.0" width="24.3" height="11.7" rx="0" fill="hsl(83, 65%, 44%)" fill-opacity="0.28" stroke="hsl(83, 65%, 44%)" stroke-width="3.7"  transform="translate(35.2 32.4) rotate(239.8) scale(1.95 1.39)" />
<path d="M 69.8 46.3 C 80.7 52.0, 78.4 28.1, 79.9 41.2 C 65.0 27.7, 41.9 18.1, 45.0 15.9 C 43.0 21.4, 24.7 53.3, 16.4 65.6 C 12.2 78.4, 44.8 93.8, 58.9 80.8 C 46.2 78.7, 89.3 11.7, 76.8 2.6 C 61.8 7.9, 80.9 81.4, 76.4 70.9 C 92.8 79.8, 76.9 82.6, 85.6 82.2 Z" fill="none" fill-opacity="0.80" stroke="hsl(86, 72%, 68%)" stroke-width="3.66"  transform="translate(65.6 37.8) rotate(268.3) scale(1.84 0.77)" />
<rect x="25.6" y="61.4" width="31.4" height="11.8" rx="0" fill="none" fill-opacity="0.86"    />
<circle cx="82.8" cy="94.9" r="0.7" fill="url(#g0)" fill-opacity="0.94"  transform="translate(17.8 94.8) rotate(18.6) scale(1.40 0.53)" />
<path d="M 59.1 10.6 C 66.0 0.1, 100.0 86.6, 89.6 84.3 C 100.0 100.0, 0.2 100.0, 2.1 86.9 C 11.4 94.7, 37.8 31.3, 36.0 21.2 C 41.3 28.0, 44.8 92.1, 57.7 91.4 C 44.8 77.1, 100.0 52.6, 97.5 58.9 C 97.1 45.0, 51.6 52.9, 48.2 46.9 C 52.1 48.3, 81.9 0.7, 95.1 4.6 C 80.7 0.0, 56.9 92.4, 48.4 79.9 " fill="none" fill-opacity="0.45" stroke="hsl(40, 53%, 69%)" stroke-width="2.75"  transform="translate(65.5 39.3) rotate(245.3) scale(1.43 0.89)" />
<rect x="3.4" y="24.1" width="31.5" height="13.7" rx="13.7" fill="none" fill-opacity="0.65"    />
<path d="M 68.9 47.9 C 79.0 52.8, 0.0 54.0, 9.1 59.2 C 10.7 47.5, 52.6 64.4, 39.9 52.3 C 36.2 66.6, 58.1 27.5, 69.3 31.0 C 66.8 42.0, 87.0 21.8, 76.7 13.8 C 90.7 28.5, 31.0 27.3, 28.7 27.6 C 26.9 14.4, 58.4 0.4, 55.9 13.2 C 52.9 28.4, 79.8 48.3, 76.2 50.4 " fill="none" fill-opacity="0.28" stroke="hsl(322, 74%, 44%)" stroke-width="4.58"  transform="translate(40.2 71.9) rotate(327.2) scale(1.52 1.54)" />
<rect x="37.4" y="35.0" width="43.5" height="28.5" rx="7.1" fill="none" fill-opacity="0.98"   transform="translate(52.1 81.1) rotate(81.4) scale(1.13 1.02)" />
<rect x="61.8" y="51.4" width="32.5" height="20.6" rx="0" fill="hsl(83, 65%, 44%)" fill-opacity="0.59"   transform="translate(50.3 76.4) rotate(348.2) scale(1.60 1.77)" />
<circle cx="52.8" cy="49.9" r="2.9" fill="url(#g1)" fill-opacity="0.89"   />
<path d="M 58.2 51.9 C 49.6 46.0, 56.3 65.0, 65.4 60.5 C 70.9 61.4, 0.0 77.1, 2.6 72.4 C 5.4 57.4, 100.0 66.2, 96.0 57.0 C 100.0 53.3, 48.4 82.0, 48.4 73.9 C 37.0 69.2, 100.0 88.0, 96.5 97.2 C 91.1 77.4, 36.6 72.3, 27.7 86.6 C 8.9 80.7, 79.5 81.3, 70.3 75.7 C 75.4 83.4, 27.3 58.5, 27.5 44.5 C 9.8 60.1, 64.4 61.7, 57.9 63.5 C 61.4 52.6, 61.1 25.3, 46.3 23.4 Z" fill="none" fill-opacity="0.25" stroke="hsl(40, 53%, 69%)" stroke-width="1.28"  transform="translate(59.2 83.8) rotate(191.4) scale(0.96 1.52)" />
<rect x="68.0" y="1.1" width="26.1" height="28.0" rx="11.4" fill="hsl(2, 82%, 55%)" fill-opacity="0.55" stroke="hsl(290, 83%, 63%)" stroke-width="3.0"  transform="translate(71.7 55.5) rotate(252.8) scale(1.84 0.71)" />
<rect x="35.6" y="7.6" width="24.4" height="33.8" rx="4.6" fill="hsl(183, 71%, 60%)" fill-opacity="0.98"   transform="translate(60.0 40.6) rotate(81.8) scale(1.47 0.60)" />
<path d="M 63.8 93.2 C 46.0 100.0, 14.0 18.9, 24.0 29.5 C 29.5 29.8, 1.5 52.3, 4.0 65.1 C 6.8 84.8, 60.2 67.9, 71.9 81.4 C 58.8 86.4, 100.0 80.2, 92.3 66.0 C 83.7 75.7, 52.4 3.7, 47.2 7.6 C 27.8 7.7, 86.4 67.8, 77.1 76.1 C 84.2 57.0, 30.0 0.0, 17.2 0.9 C 8.3 15.9, 24.1 5.9, 30.6 17.9 C 33.5 16.8, 45.7 82.4, 59.3 97.0 C 51.8 95.9, 11.2 21.8, 11.7 9.8 Z" fill="none" fill-opacity="0.35" stroke="hsl(183, 71%, 60%)" stroke-width="4.44"  transform="translate(57.9 47.5) rotate(34.1) scale(0.68 1.09)" />
<rect x="60.2" y="13.4" width="23.6" height="29.2" rx="2.4" fill="hsl(322, 74%, 44%)" fill-opacity="0.54"   transform="translate(48.1 55.6) rotate(249.9) scale(1.69 1.82)" />
<path d="M 10.6 72.4 C 2.5 88.8, 52.8 6.5, 46.7 11.2 C 41.8 11.1, 19.2 35.3, 15.2 27.3 C 3.2 32.2, 95.6 7.7, 86.2 3.8 C 84.2 12.9, 66.9 46.2, 74.8 51.9 C 66.7 57.4, 54.6 71.0, 52.0 84.6 C 42.6 84.9, 67.5 66.5, 75.2 51.8 C 95.2 42.1, 100.0 88.6, 98.3 94.5 Z" fill="none" fill-opacity="0.53" stroke="hsl(322, 74%, 44%)" stroke-width="2.29"  transform="translate(20.8 59.3) rotate(75.9) scale(0.55 1.78)" />
<circle cx="44.5" cy="32.7" r="1.1" fill="url(#g1)" fill-opacity="0.70"  transform="translate(13.2 19.3) rotate(176.4) scale(0.84 1.85)" />
<circle cx="8.6" cy="49.9" r="10.4" fill="url(#g2)" fill-opacity="0.46"   />
<path d="M 39.2 5.7 C 47.7 0.0, 100.0 32.8, 88.2 43.3 C 82.6 37.3, 26.3 25.7, 29.7 13.8 C 45.0 0.0, 2.6 56.8, 15.5 61.8 C 17.2 61.7, 35.3 83.9, 31.2 93.0 C 15.5 87.2, 62.8 86.2, 75.1 80.1 C 56.4 93.2, 47.5 76.4, 37.7 76.4 C 52.9 84.9, 0.0 67.4, 7.5 70.1 C 20.3 74.8, 39.8 85.3, 51.0 89.6 C 59.4 88.2, 48.8 23.8, 49.6 10.8 C 36.0 18.5, 81.1 19.3, 90.3 9.0 Z" fill="hsl(242, 72%, 49%)" fill-opacity="0.49" stroke="none" stroke-width="4.55"  transform="translate(83.2 33.6) rotate(311.0) scale(1.18 1.45)" />
<rect x="50.0" y="0.5" width="20.2" height="23.0" rx="0" fill="none" fill-opacity="0.40" stroke="hsl(183, 71%, 60%)" stroke-width="2.6"   />
<path d="M 90.8 51.6 C 73.3 58.4, 100.0 45.0, 92.3 38.0 C 94.1 36.8, 85.4 34.8, 91.8 48.3 C 73.0 32.9, 35.1 53.1, 35.1 54.8 C 42.3 69.4, 70.8 0.0, 71.6 5.5 C 73.0 7.5, 0.0 70.6, 1.6 76.8 C 0.0 74.7, 100.0 40.2, 97.9 33.9 C 93.9 49.8, 16.6 64.1, 24.9 63.4 Z" fill="none" fill-opacity="0.88" stroke="hsl(290, 83%, 63%)" stroke-width="3.68"  transform="translate(61.5 85.7) rotate(10.2) scale(1.20 1.54)" />
<path d="M 54.8 71.0 C 65.1 63.4, 8.5 15.3, 20.4 25.0 C 18.0 41.8, 72.2 100.0, 60.0 94.8 C 72.3 100.0, 33.5 0.0, 43.2 9.7 C 35.7 7.2, 0.0 69.0, 0.3 67.2 C 0.0 70.4, 97.0 9.1, 94.8 5.7 C 100.0 20.5, 83.2 56.2, 85.6 65.6 Z" fill="none" fill-opacity="0.93" stroke="hsl(290, 83%, 63%)" stroke-width="4.34"  transform="translate(37.7 24.6) rotate(2.8) scale(0.83 1.58)" />
<path d="M 38.0 42.2 C 46.2 23.4, 64.8 75.0, 73.7 89.8 C 62.7 91.9, 83.4 72.7, 76.0 74.5 C 73.7 63.5, 51.9 50.4, 42.9 46.1 C 57.1 57.3, 12.3 12.7, 5.4 6.6 C 19.2 0.0, 60.9 86.3, 72.9 86.6 C 81.1 100.0, 1.7 18.3, 6.8 19.3 C 0.0 4.0, 21.8 80.3, 35.7 80.4 " fill="none" fill-opacity="0.63" stroke="hsl(151, 70%, 62%)" stroke-width="4.09"  transform="translate(43.7 26.9) rotate(150.4) scale(0.85 0.54)" />
<circle cx="42.3" cy="43.5" r="16.4" fill="url(#g2)" fill-opacity="0.52"  transform="translate(26.5 95.4) rotate(295.2) scale(1.12 0.84)" />
<path d="M 60.4 20.9 C 44.4 6.9, 86.5 77.1, 81.4 82.6 C 93.1 75.6, 34.4 99.5, 32.3 85.8 C 34.5 81.4, 36.3 21.6, 24.7 35.4 C 22.9 17.6, 97.2 42.9, 82.7 41.1 C 96.7 29.4, 58.0 11.2, 65.3 7.3 C 61.0 0.0, 0.0 20.1, 5.0 29.1 C 14.5 28.5, 19.4 0.0, 20.0 10.7 C 26.6 0.0, 23.6 45.8, 25.1 42.0 C 24.6 27.6, 0.0 62.4, 5.0 49.8 Z" fill="hsl(290, 83%, 63%)" fill-opacity="0.48" stroke="none" stroke-width="3.58"  transform="translate(83.2 80.4) rotate(186.2) scale(0.77 0.92)" />
<path d="M 67.6 70.4 C 75.8 61.4, 64.1 44.0, 55.7 35.9 C 58.5 44.4, 60.1 46.4, 48.8 41.9 C 47.7 27.1, 61.8 3.3, 54.3 15.1 C 40.0 0.0, 67.8 61.9, 77.6 65.6 C 97.3 80.1, 61.1 80.8, 54.0 83.6 C 42.5 100.0, 85.8 10.6, 84.4 2.4 C 75.2 6.8, 25.6 41.1, 26.3 41.5 Z" fill="hsl(290, 83%, 63%)" fill-opacity="0.61" stroke="none" stroke-width="4.73" filter="url(#f1)" transform="translate(76.3 21.6) rotate(310.5) scale(0.67 1.35)" />
<path d="M 12.9 0.4 C 31.1 0.0, 78.5 88.3, 86.5 87.6 C 100.0 70.1, 56.3 4.7, 53.4 11.1 C 38.6 9.8, 66.8 51.4, 80.6 58.2 C 65.6 52.9, 63.3 70.5, 59.2 73.7 C 44.5 62.1, 19.8 23.5, 19.9 16.5 C 7.9 10.0, 20.7 92.2, 7.9 94.2 Z" fill="none" fill-opacity="0.96" stroke="hsl(106, 75%, 59%)" stroke-width="2.94"   />
<path d="M 61.0 6.7 C 57.4 0.0, 27.2 16.9, 30.1 16.7 C 45.7 0.0, 92.2 59.1, 85.5 61.0 C 100.0 76.9, 48.4 62.9, 52.1 71.1 C 62.0 78.3, 53.4 67.2, 63.2 68.6 C 72.0 74.0, 42.5 97.1, 42.2 90.7 C 53.5 93.0, 31.5 6.4, 20.3 2.7 C 4.2 22.5, 45.2 0.0, 36.2 6.0 C 29.2 4.4, 66.1 0.0, 70.8 0.8 Z" fill="none" fill-opacity="0.36" stroke="hsl(290, 83%, 63%)" stroke-width="3.86"   />
<circle cx="11.8" cy="56.8" r="5.4" fill="url(#g0)" fill-opacity="0.53" filter="url(#f1)" transform="translate(87.4 35.5) rotate(321.1) scale(1.70 1.25)" />
<path d="M 71.9 17.8 C 64.2 17.1, 50.9 88.3, 55.6 94.2 C 73.0 100.0, 8.1 100.0, 2.2 91.9 C 14.6 100.0, 100.0 0.0, 98.8 3.6 C 100.0 3.4, 33.4 41.7, 25.0 52.1 C 43.4 71.1, 0.0 51.5, 12.1 38.6 C 28.8 52.1, 67.3 84.5, 65.1 90.6 C 56.3 94.0, 83.4 26.9, 71.2 35.0 C 87.7 18.8, 28.2 81.2, 37.8 74.6 Z" fill="hsl(322, 74%, 44%)" fill-opacity="0.33" stroke="none" stroke-width="5.01"  transform="translate(29.4 77.7) rotate(340.6) scale(1.10 1.87)" />
<circle cx="3.0" cy="81.1" r="4.4" fill="hsl(144, 86%, 72%)" fill-opacity="0.78"   />
<path d="M 28.8 47.2 C 27.4 42.1, 51.7 14.0, 65.8 10.8 C 78.5 25.5, 100.0 38.2, 93.2 45.7 C 93.1 57.1, 14.6 44.4, 24.6 58.7 C 39.4 41.3, 48.7 23.7, 39.3 10.4 C 59.2 7.0, 19.2 21.3, 29.8 26.5 C 26.0 40.9, 4.8 29.0, 17.4 29.4 C 28.7 39.0, 70.3 93.5, 80.4 83.2 C 99.6 100.0, 82.4 100.0, 77.6 100.0 C 67.1 84.9, 44.5 29.1, 58.8 16.7 Z" fill="hsl(242, 72%, 49%)" fill-opacity="0.54" stroke="none" stroke-width="3.17"  transform="translate(42.2 55.2) rotate(193.4) scale(1.96 0.83)" />
<circle cx="33.6" cy="74.4" r="10.0" fill="hsl(83, 65%, 44%)" fill-opacity="0.70"  transform="translate(72.9 10.6) rotate(188.1) scale(1.38 0.71)" />
<path d="M 81.3 37.3 C 74.1 54.7, 0.0 60.8, 0.3 74.4 C 0.0 74.5, 59.2 62.0, 71.5 65.5 C 63.4 66.3, 95.7 63.2, 91.6 62.9 C 94.8 53.8, 29.1 28.2, 43.4 22.1 C 51.6 26.1, 32.9 72.3, 46.7 68.4 C 57.0 51.3, 83.6 85.8, 84.6 93.5 C 95.9 100.0, 61.2 64.6, 52.6 63.6 C 41.5 50.5, 16.7 22.6, 23.9 34.8 C 8.4 39.3, 39.3 16.5, 40.3 10.0 Z" fill="hsl(83, 65%, 44%)" fill-opacity="0.81" stroke="none" stroke-width="5.15"  transform="translate(72.4 79.2) rotate(156.0) scale(0.86 0.51)" />
<circle cx="85.2" cy="59.5" r="0.7" fill="hsl(151, 70%, 62%)" fill-opacity="0.58"  transform="translate(40.4 71.1) rotate(120.5) scale(0.91 0.75)" />
<circle cx="48.4" cy="6.7" r="9.1" fill="hsl(144, 86%, 72%)" fill-opacity="0.78"  transform="translate(16.4 50.3) rotate(195.1) scale(0.88 0.53)" />
<rect x="22.5" y="69.2" width="30.9" height="11.4" rx="0" fill="hsl(322, 74%, 44%)" fill-opacity="0.41"   transform="translate(53.6 69.4) rotate(350.3) scale(1.39 0.89)" />
<rect x="52.6" y="59.4" width="34.0" height="35.8" rx="0.9" fill="none" fill-opacity="0.48"  filter="url(#f1)" transform="translate(98.7 77.3) rotate(205.2) scale(1.69 0.83)" />
<circle cx="52.9" cy="90.6" r="3.7" fill="url(#g1)" fill-opacity="0.88"  transform="translate(65.7 93.1) rotate(47.5) scale(0.73 1.78)" />
<path d="M 70.0 30.5 C 66.0 19.9, 41.2 89.6, 40.9 93.4 C 26.5 100.0, 20.8 73.4, 13.0 84.2 C 19.0 77.1, 25.8 92.4, 32.1 98.3 C 15.6 90.6, 76.9 1.9, 66.4 5.4 C 46.4 1.3, 0.0 65.3, 0.4 62.1 C 0.0 54.2, 16.9 89.3, 25.7 76.5 C 38.2 68.2, 50.5 28.9, 43.9 39.2 C 57.5 32.6, 18.1 70.7, 26.2 76.1 C 22.1 83.5, 29.3 0.0, 20.4 0.8 C 37.2 0.0, 52.7 17.6, 62.9 5.6 Z" fill="none" fill-opacity="1.00" stroke="hsl(144, 86%, 72%)" stroke-width="1.93" filter="url(#f1)"  />
<path d="M 77.5 48.5 C 79.3 38.0, 9.3 15.8, 6.9 13.4 C 0.0 0.0, 22.7 95.7, 24.2 86.4 C 11.6 89.2, 80.2 87.9, 65.9 88.8 C 67.9 83.4, 30.9 82.4, 20.0 79.1 C 16.9 93.1, 20.4 81.1, 9.6 92.1 C 21.5 84.0, 54.6 53.9, 63.4 42.5 C 62.5 43.0, 9.1 66.7, 23.4 74.7 C 16.1 84.3, 100.0 74.6, 97.9 70.1 Z" fill="hsl(322, 74%, 44%)" fill-opacity="0.71" stroke="none" stroke-width="2.52"  transform="translate(76.7 54.5) rotate(31.6) scale(0.74 0.66)" />
<circle cx="27.9" cy="55.9" r="5.7" fill="url(#g1)" fill-opacity="0.45"   />
<rect x="42.4" y="59.7" width="30.2" height="39.1" rx="5.0" fill="hsl(290, 83%, 63%)" fill-opacity="0.98"  filter="url(#f1)"  />
<rect x="22.5" y="76.6" width="22.9" height="22.9" rx="0" fill="none" fill-opacity="0.62" stroke="hsl(290, 83%, 63%)" stroke-width="4.7" filter="url(#f1)" transform="translate(44.6 33.9) rotate(330.7) scale(1.32 0.70)" />
<path d="M 65.1 34.0 C 54.1 19.3, 34.3 25.7, 39.5 17.1 C 29.0 14.2, 51.1 9.4, 37.0 6.6 C 29.3 0.0, 27.1 82.9, 18.0 81.6 C 30.0 86.9, 27.5 54.0, 34.5 62.9 C 46.7 61.7, 11.3 27.0, 2.1 14.9 C 0.0 32.7, 55.4 14.1, 55.7 11.9 C 53.1 12.7, 37.2 10.2, 29.3 18.9 Z" fill="hsl(104, 72%, 65%)" fill-opacity="0.37" stroke="none" stroke-width="1.49"  transform="translate(11.4 25.9) rotate(146.8) scale(1.72 1.30)" />
<circle cx="96.2" cy="44.5" r="1.0" fill="hsl(183, 71%, 60%)" fill-opacity="0.60"  transform="translate(63.5 56.5) rotate(191.7) scale(1.95 1.88)" />
<rect x="46.4" y="13.9" width="20.7" height="30.3" rx="0" fill="hsl(2, 82%, 55%)" fill-opacity="0.86"   transform="translate(37.0 16.4) rotate(235.1) scale(0.82 1.33)" />
<rect x="31.3" y="25.8" width="44.1" height="15.4" rx="0" fill="none" fill-opacity="0.79"   transform="translate(82.8 26.1) rotate(357.6) scale(0.84 0.81)" />
<path d="M 52.5 52.8 C 60.0 38.2, 10.0 44.0, 17.9 46.7 C 18.2 58.4, 77.2 15.6, 88.6 27.9 C 68.8 11.7, 28.7 20.9, 25.2 18.3 C 30.0 27.4, 68.7 16.0, 54.1 19.9 C 38.3 12.0, 59.1 43.5, 71.1 56.6 C 78.6 53.1, 57.2 100.0, 64.6 98.5 Z" fill="none" fill-opacity="0.67" stroke="hsl(242, 72%, 49%)" stroke-width="3.96" filter="url(#f1)" transform="translate(78.2 60.2) rotate(25.9) scale(0.93 0.97)" />
<path d="M 7.4 83.4 C 0.0 79.6, 4.4 66.3, 1.8 55.3 C 0.0 56.6, 22.6 24.3, 30.0 38.8 C 18.7 56.3, 23.9 27.1, 24.0 22.8 C 37.1 8.6, 81.2 31.3, 71.6 21.7 C 87.3 25.3, 42.7 45.6, 52.3 44.3 C 45.3 48.3, 38.9 53.3, 30.4 55.5 C 29.8 51.0, 19.6 86.9, 25.2 76.0 C 11.9 92.3, 2.3 41.9, 10.4 44.6 " fill="hsl(40, 53%, 69%)" fill-opacity="0.70" stroke="none" stroke-width="1.51"  transform="translate(73.1 53.0) rotate(244.6) scale(1.03 1.30)" />
<path d="M 66.2 32.1 C 69.3 35.0, 38.7 100.0, 50.5 93.3 C 55.3 100.0, 68.6 74.7, 82.8 75.4 C 100.0 60.2, 91.4 77.1, 86.1 68.4 C 71.8 71.1, 81.5 48.5, 89.6 37.5 C 90.5 44.9, 60.0 20.8, 53.1 7.1 C 66.0 21.4, 85.4 79.7, 96.6 86.3 C 96.3 86.6, 0.0 25.0, 0.9 33.5 C 6.5 24.6, 19.1 33.7, 10.7 41.6 Z" fill="hsl(86, 72%, 68%)" fill-opacity="0.46" stroke="none" stroke-width="4.77"  transform="translate(8.7 91.4) rotate(312.6) scale(1.09 1.97)" />
<path d="M 50.6 11.7 C 67.7 1.9, 40.7 35.7, 30.5 23.0 C 19.9 14.6, 20.2 14.2, 17.9 28.7 C 19.7 20.4, 17.0 22.0, 13.6 7.7 C 25.4 0.0, 74.0 44.8, 83.4 42.3 C 99.9 54.9, 97.1 54.0, 91.0 46.9 C 72.4 43.4, 57.4 34.2, 47.4 23.4 C 55.7 6.1, 3.6 91.3, 3.3 85.9 C 6.3 99.9, 69.9 23.4, 80.5 34.5 C 93.2 22.3, 47.9 34.0, 35.8 34.5 C 27.9 28.2, 52.9 54.7, 57.9 67.0 Z" fill="hsl(86, 72%, 68%)" fill-opacity="0.92" stroke="none" stroke-width="4.62"  transform="translate(95.5 64.6) rotate(320.3) scale(1.77 1.49)" />
<path d="M 98.8 35.9 C 100.0 24.8, 54.2 80.5, 50.8 95.0 C 33.4 88.3, 10.9 70.5, 23.8 55.8 C 29.9 62.8, 49.7 80.3, 39.1 94.1 C 48.6 100.0, 95.8 18.4, 83.5 29.4 C 71.1 49.2, 78.8 51.0, 72.2 61.9 C 52.9 65.3, 13.0 100.0, 7.3 87.0 C 19.5 94.2, 54.4 39.3, 68.0 49.2 C 61.7 44.7, 27.0 6.1, 16.0 18.1 C 35.2 10.8, 76.6 75.3, 69.8 84.0 Z" fill="hsl(83, 65%, 44%)" fill-opacity="0.82" stroke="none" stroke-width="1.80"  transform="translate(74.7 46.6) rotate(27.3) scale(1.42 1.01)" />
<path d="M 71.3 83.5 C 84.3 71.9, 4.0 100.0, 14.3 99.5 C 29.0 100.0, 35.5 18.9, 26.6 27.9 C 29.7 33.2, 79.5 42.0, 75.0 28.2 C 82.3 27.4, 63.6 49.2, 52.9 35.9 C 58.9 47.3, 47.5 15.0, 47.2 4.7 C 61.5 0.0, 10.0 12.5, 10.7 20.6 Z" fill="hsl(2, 82%, 55%)" fill-opacity="0.57" stroke="none" stroke-width="1.67" filter="url(#f1)"  />
<circle cx="1.8" cy="78.0" r="13.9" fill="url(#g0)" fill-opacity="0.64"  transform="translate(82.7 13.6) rotate(128.7) scale(0.88 1.37)" />
<path d="M 75.2 31.6 C 65.7 41.4, 15.0 78.8, 11.0 90.4 C 30.9 100.0, 81.5 79.8, 82.1 86.5 C 67.8 100.0, 26.5 81.7, 31.2 94.0 C 39.1 77.4, 80.6 19.9, 68.2 20.3 C 53.1 27.5, 16.4 73.1, 26.4 72.8 C 21.7 83.3, 22.3 0.6, 31.8 0.4 C 24.7 0.0, 0.2 98.1, 1.6 97.8 C 0.0 88.2, 39.3 16.0, 52.3 6.2 C 43.9 19.8, 48.1 42.1, 51.0 44.8 C 40.8 51.0, 87.4 88.3, 78.4 88.7 Z" fill="none" fill-opacity="0.93" stroke="hsl(144, 86%, 72%)" stroke-width="3.89" filter="url(#f1)" transform="translate(68.8 50.8) rotate(251.8) scale(1.40 1.35)" />
<circle cx="10.0" cy="2.4" r="14.8" fill="hsl(83, 65%, 44%)" fill-opacity="0.45"  transform="translate(16.1 42.8) rotate(14.1) scale(1.10 0.95)" />
<rect x="38.2" y="65.8" width="35.8" height="18.6" rx="11.0" fill="none" fill-opacity="0.91" stroke="hsl(290, 83%, 63%)" stroke-width="1.3"   />
<path d="M 84.9 49.6 C 100.0 62.4, 90.6 97.5, 80.0 84.2 C 87.5 95.1, 41.8 33.9, 53.4 26.8 C 34.5 16.5, 35.8 30.1, 35.7 17.3 C 29.1 1.1, 83.5 42.4, 78.2 38.9 C 64.1 22.2, 79.3 47.8, 89.0 44.5 C 97.7 45.3, 5.3 25.6, 17.7 20.2 C 14.5 3.7, 44.4 44.1, 47.0 33.0 Z" fill="hsl(104, 72%, 65%)" fill-opacity="0.27" stroke="none" stroke-width="0.85"  transform="translate(81.1 36.2) rotate(317.9) scale(1.34 0.82)" />
<path d="M 45.7 51.9 C 46.8 44.2, 38.1 66.3, 38.5 59.1 C 43.6 66.8, 23.2 52.1, 30.9 43.0 C 26.7 42.7, 0.0 8.4, 1.0 21.2 C 13.0 36.6, 100.0 8.5, 98.6 17.5 C 96.3 13.4, 27.7 44.4, 24.4 50.0 C 33.9 44.2, 99.2 93.6, 94.1 82.8 Z" fill="none" fill-opacity="0.55" stroke="hsl(104, 72%, 65%)" stroke-width="1.23"  transform="translate(68.5 12.9) rotate(336.5) scale(0.74 1.75)" />
<circle cx="37.3" cy="45.3" r="6.4" fill="url(#g2)" fill-opacity="0.67"  transform="translate(25.1 21.6) rotate(242.1) scale(1.67 1.29)" />
<circle cx="82.2" cy="56.5" r="10.4" fill="hsl(290, 83%, 63%)" fill-opacity="0.41"  transform="translate(8.7 88.1) rotate(104.3) scale(0.88 0.52)" />
<rect x="1.0" y="27.5" width="43.1" height="39.9" rx="0" fill="hsl(86, 72%, 68%)" fill-opacity="0.72"    />
<path d="M 97.3 73.0 C 79.3 55.1, 66.4 82.1, 79.2 69.6 C 59.4 71.3, 80.9 41.0, 84.7 46.1 C 95.0 63.7, 79.8 56.5, 91.7 55.4 C 73.1 41.3, 61.6 93.5, 61.3 93.0 C 77.2 95.5, 16.2 84.8, 22.4 71.2 C 5.7 84.5, 79.4 68.8, 85.9 83.7 C 82.1 70.2, 20.0 22.9, 20.3 26.4 C 14.7 16.6, 0.0 4.7, 2.8 18.1 C 2.7 23.4, 28.2 74.3, 27.9 74.8 C 22.9 57.3, 11.1 57.9, 8.2 46.9 Z" fill="none" fill-opacity="0.26" stroke="hsl(86, 72%, 68%)" stroke-width="2.28"  transform="translate(55.0 93.5) rotate(261.4) scale(1.44 1.41)" />
<path d="M 85.9 6.3 C 78.6 0.2, 66.5 91.3, 80.4 94.5 C 89.1 88.2, 63.2 47.3, 60.6 37.6 C 54.9 36.6, 29.2 54.0, 25.8 64.6 C 42.1 70.3, 18.6 11.0, 18.3 13.8 C 28.1 30.1, 64.3 24.1, 52.7 10.2 C 71.8 0.0, 58.1 98.7, 60.5 95.1 C 77.7 100.0, 74.2 30.6, 86.5 30.5 C 69.7 47.6, 25.8 100.0, 38.3 99.2 C 54.5 100.0, 19.8 50.7, 14.2 65.2 C 22.3 57.4, 100.0 4.8, 94.5 14.2 Z" fill="hsl(151, 70%, 62%)" fill-opacity="0.37" stroke="none" stroke-width="4.45"  transform="translate(24.8 71.7) rotate(7.9) scale(0.64 1.03)" />
<rect x="67.9" y="61.1" width="20.6" height="11.4" rx="14.4" fill="none" fill-opacity="0.29" stroke="hsl(40, 53%, 69%)" stroke-width="4.0"  transform="translate(30.1 29.7) rotate(72.2) scale(1.90 1.82)" />
<rect x="2.0" y="6.2" width="29.0" height="34.4" rx="9.0" fill="none" fill-opacity="0.62" stroke="hsl(290, 83%, 63%)" stroke-width="2.8"  transform="translate(73.9 95.2) rotate(232.8) scale(1.14 1.06)" />
<path d="M 0.9 47.3 C 3.1 51.1, 13.9 39.8, 17.2 50.6 C 23.1 69.3, 0.0 93.2, 0.4 99.8 C 3.4 100.0, 70.3 38.2, 66.2 36.0 C 70.7 35.3, 87.6 62.0, 89.3 58.3 C 86.7 60.6, 100.0 94.1, 97.2 96.1 C 95.5 94.2, 76.5 29.3, 80.4 20.3 C 73.9 8.8, 63.9 7.1, 62.1 20.6 C 54.6 24.6, 50.4 56.4, 36.7 49.3 Z" fill="none" fill-opacity="0.74" stroke="hsl(2, 82%, 55%)" stroke-width="0.93"  transform="translate(94.6 66.7) rotate(194.9) scale(1.19 1.77)" />
<path d="M 20.5 61.3 C 40.4 78.0, 41.0 17.2, 31.4 26.9 C 22.4 40.1, 68.4 98.9, 57.7 92.2 C 61.8 100.0, 21.1 73.7, 26.0 70.6 C 18.5 56.1, 9.2 64.4, 2.3 77.6 C 0.0 63.4, 9.0 24.9, 17.7 33.6 C 11.1 46.3, 67.7 52.8, 68.6 53.3 Z" fill="hsl(40, 53%, 69%)" fill-opacity="0.42" stroke="none" stroke-width="2.34"  transform="translate(26.3 33.1) rotate(10.3) scale(1.64 1.34)" />
<path d="M 70.5 35.1 C 69.0 51.1, 40.7 41.4, 54.9 41.4 C 56.5 44.5, 69.7 0.0, 68.1 6.5 C 73.5 0.0, 85.3 87.5, 81.3 76.1 C 72.2 70.5, 77.3 65.2, 90.3 79.5 C 100.0 70.1, 69.8 36.2, 72.7 26.5 C 86.3 7.2, 79.6 39.0, 93.8 49.5 Z" fill="none" fill-opacity="0.62" stroke="hsl(322, 74%, 44%)" stroke-width="0.95"  transform="translate(42.4 6.9) rotate(62.4) scale(1.05 1.07)" />
<path d="M 60.0 45.3 C 66.6 34.2, 87.7 20.6, 95.2 16.1 C 81.0 14.1, 66.6 64.1, 60.1 73.8 C 72.8 63.3, 9.0 69.6, 9.2 69.0 C 0.0 66.5, 100.0 61.8, 91.6 71.5 C 85.1 60.4, 29.8 74.2, 26.1 69.0 C 6.6 49.4, 13.3 60.0, 21.9 61.2 C 11.3 56.4, 72.8 40.9, 84.1 40.3 C 88.5 38.5, 22.1 88.9, 30.2 81.7 C 43.4 71.0, 32.5 32.7, 24.4 46.2 C 32.1 48.5, 73.2 79.1, 64.1 73.7 Z" fill="none" fill-opacity="0.38" stroke="hsl(144, 86%, 72%)" stroke-width="4.62"   />
<path d="M 16.9 84.4 C 6.9 100.0, 99.3 49.9, 88.5 40.6 C 72.5 45.8, 75.4 99.7, 76.1 86.4 C 72.9 90.6, 66.8 61.1, 78.8 73.8 C 68.6 56.4, 27.8 25.7, 34.5 38.7 C 18.8 28.6, 91.8 0.0, 77.1 0.4 C 78.7 10.4, 18.4 56.5, 31.2 64.3 C 26.8 83.3, 24.8 60.5, 20.0 47.1 C 19.8 48.2, 60.3 31.2, 71.0 28.5 C 72.5 36.6, 29.1 76.9, 23.1 78.4 C 24.9 68.9, 31.1 76.5, 44.9 65.6 " fill="none" fill-opacity="0.65" stroke="hsl(322, 74%, 44%)" stroke-width="3.02"   />
<rect x="8.1" y="7.9" width="43.0" height="16.7" rx="17.7" fill="hsl(2, 82%, 55%)" fill-opacity="0.88"   transform="translate(76.3 28.2) rotate(295.1) scale(1.28 1.01)" />
<path d="M 50.8 20.7 C 56.6 26.6, 57.6 52.8, 54.3 41.8 C 38.1 35.1, 92.9 54.5, 81.7 58.2 C 98.1 50.2, 16.3 4.8, 19.2 6.4 C 21.3 0.0, 35.3 35.7, 42.1 33.9 C 50.7 15.1, 97.1 10.3, 82.7 12.1 C 78.6 30.4, 51.7 46.9, 59.3 38.5 C 48.2 50.6, 67.9 83.8, 60.0 95.2 Z" fill="hsl(104, 72%, 65%)" fill-opacity="0.79" stroke="none" stroke-width="3.82" filter="url(#f1)" transform="translate(53.7 74.6) rotate(59.4) scale(1.71 1.87)" />
<path d="M 40.9 37.8 C 30.4 43.9, 64.7 0.0, 74.2 2.7 C 74.3 9.6, 47.7 23.4, 34.8 32.2 C 45.9 33.6, 33.6 6.3, 46.9 17.6 C 39.7 28.3, 68.1 69.1, 60.6 57.2 C 52.8 41.3, 9.5 0.0, 0.6 0.2 C 0.0 0.0, 43.7 8.5, 45.1 21.6 C 30.4 32.9, 62.1 26.7, 59.6 13.7 C 69.9 11.3, 54.8 31.5, 44.9 28.6 C 39.3 22.7, 36.2 96.8, 41.1 96.9 C 37.7 94.8, 44.2 69.0, 38.7 57.7 " fill="hsl(40, 53%, 69%)" fill-opacity="0.40" stroke="none" stroke-width="2.57"  transform="translate(61.5 75.2) rotate(240.4) scale(1.34 0.65)" />
<rect x="53.6" y="8.3" width="42.7" height="38.8" rx="0" fill="none" fill-opacity="0.43"   transform="translate(13.9 95.1) rotate(220.0) scale(1.04 1.27)" />
<path d="M 34.9 85.8 C 17.6 67.6, 43.5 46.5, 36.2 57.4 C 25.3 43.9, 74.8 64.3, 76.1 70.3 C 80.9 58.6, 83.4 72.4, 85.9 59.7 C 83.1 63.4, 80.5 100.0, 74.6 98.1 C 88.8 97.6, 69.8 22.6, 72.6 29.1 C 73.4 32.5, 76.2 0.8, 89.4 5.8 C 86.8 25.1, 100.0 19.4, 96.3 30.9 C 100.0 21.9, 48.5 81.4, 57.4 73.2 C 49.1 87.0, 13.9 30.3, 24.9 32.0 C 36.8 47.8, 50.3 66.1, 43.3 53.1 " fill="none" fill-opacity="0.80" stroke="hsl(290, 83%, 63%)" stroke-width="4.55"  transform="translate(69.5 81.1) rotate(343.6) scale(0.86 0.55)" />
<rect x="44.6" y="47.0" width="25.4" height="19.5" rx="0" fill="hsl(86, 72%, 68%)" fill-opacity="0.24" stroke="hsl(86, 72%, 68%)" stroke-width="4.6"  transform="translate(34.0 43.5) rotate(184.9) scale(0.57 1.98)" />
<path d="M 12.1 41.4 C 8.7 48.6, 27.4 85.1, 36.7 81.9 C 21.7 67.8, 62.5 90.4, 55.9 88.5 C 41.1 74.5, 89.7 75.1, 86.4 82.7 C 100.0 76.6, 59.3 26.2, 61.7 29.2 C 72.3 46.0, 2.3 33.3, 3.4 48.0 C 0.0 46.9, 0.0 76.8, 10.6 62.9 C 25.3 78.3, 100.0 100.0, 96.2 92.4 C 100.0 94.6, 86.2 77.2, 94.7 81.8 Z" fill="hsl(86, 72%, 68%)" fill-opacity="0.68" stroke="none" stroke-width="4.61"  transform="translate(86.6 74.8) rotate(92.4) scale(1.47 0.89)" />
<rect x="29.8" y="14.3" width="36.4" height="10.0" rx="0" fill="hsl(290, 83%, 63%)" fill-opacity="0.97" stroke="hsl(83, 65%, 44%)" stroke-width="4.5"  transform="translate(63.3 72.8) rotate(70.3) scale(0.98 1.84)" />
<rect x="15.4" y="5.2" width="37.7" height="11.7" rx="0" fill="hsl(322, 74%, 44%)" fill-opacity="0.74" stroke="hsl(242, 72%, 49%)" stroke-width="1.2"  transform="translate(78.9 99.7) rotate(101.0) scale(1.94 0.98)" />
<path d="M 8.5 33.1 C 0.0 52.8, 100.0 100.0, 99.8 91.5 C 100.0 79.7, 82.0 44.4, 93.9 40.0 C 94.5 45.7, 100.0 17.6, 93.8 15.0 C 100.0 0.0, 93.2 78.4, 94.7 76.3 C 85.8 75.5, 8.1 8.0, 14.2 1.4 C 0.0 0.0, 13.7 54.7, 11.6 49.4 C 22.6 65.1, 57.2 0.6, 43.5 2.3 C 42.1 21.3, 11.5 8.8, 15.3 10.3 Z" fill="none" fill-opacity="0.58" stroke="hsl(106, 75%, 59%)" stroke-width="3.95" filter="url(#f1)" transform="translate(72.8 25.1) rotate(149.6) scale(0.97 0.60)" />
<path d="M 76.4 38.8 C 96.2 32.7, 84.8 88.7, 97.9 76.0 C 79.5 83.3, 53.9 28.9, 56.5 32.3 C 43.9 14.0, 49.5 7.3, 43.0 7.0 C 62.9 14.0, 66.0 19.3, 58.3 5.9 C 73.7 0.0, 68.9 18.1, 69.0 10.4 C 84.9 10.2, 27.7 41.0, 34.4 43.4 " fill="hsl(104, 72%, 65%)" fill-opacity="0.86" stroke="none" stroke-width="1.23"   />
<rect x="58.0" y="38.7" width="33.0" height="30.9" rx="4.1" fill="none" fill-opacity="0.84"    />
<path d="M 46.2 89.9 C 57.5 76.8, 29.6 70.6, 16.2 60.3 C 20.2 76.0, 80.2 0.6, 72.5 3.2 C 58.2 1.1, 59.1 14.2, 68.4 7.7 C 77.1 0.0, 62.2 95.4, 72.2 92.8 C 76.3 100.0, 74.2 55.5, 70.4 53.6 C 57.2 49.0, 100.0 37.0, 97.0 29.8 C 82.8 35.3, 85.1 7.1, 82.2 18.6 C 86.4 13.1, 41.9 100.0, 34.8 97.1 C 45.6 81.7, 8.8 74.7, 20.3 74.9 " fill="hsl(2, 82%, 55%)" fill-opacity="0.91" stroke="none" stroke-width="3.06" filter="url(#f1)" transform="translate(37.6 67.7) rotate(79.0) scale(0.51 1.12)" />
<path d="M 67.4 11.7 C 59.0 27.0, 11.2 18.5, 5.4 15.4 C 24.1 24.1, 1.9 23.5, 11.2 9.4 C 26.8 0.0, 7.8 37.5, 21.0 44.5 C 22.9 54.8, 81.4 80.3, 84.5 86.5 C 67.6 79.8, 17.6 0.0, 15.7 6.4 C 20.0 17.8, 0.0 0.0, 1.8 7.4 Z" fill="none" fill-opacity="0.63" stroke="hsl(106, 75%, 59%)" stroke-width="1.67"  transform="translate(8.6 35.8) rotate(219.8) scale(1.10 0.81)" />
<path d="M 3.5 30.0 C 0.0 49.0, 44.2 95.7, 54.8 96.9 C 68.5 92.7, 54.3 58.2, 53.6 63.6 C 37.7 74.4, 38.7 52.3, 38.7 53.8 C 37.8 40.9, 96.6 79.3, 88.2 84.1 C 90.2 67.9, 82.3 29.3, 71.9 28.3 C 80.9 10.0, 76.5 95.7, 66.8 82.1 C 56.5 65.8, 94.5 20.9, 93.0 33.7 C 89.1 49.4, 65.1 25.8, 76.5 39.8 C 80.1 45.8, 97.4 18.2, 93.2 31.6 C 96.0 28.1, 29.3 48.6, 20.6 38.7 Z" fill="none" fill-opacity="0.34" stroke="hsl(40, 53%, 69%)" stroke-width="1.39"  transform="translate(82.5 60.2) rotate(150.7) scale(1.13 1.56)" />
<path d="M 77.6 16.0 C 95.4 6.9, 39.6 89.8, 26.3 82.2 C 35.3 65.0, 100.0 100.0, 92.9 90.6 C 81.6 95.9, 44.9 36.7, 37.5 41.8 C 54.8 51.5, 39.7 63.6, 33.3 69.7 C 41.5 55.0, 65.0 78.7, 50.6 85.4 C 42.3 100.0, 36.8 24.4, 35.0 18.2 C 50.7 1.5, 9.4 25.9, 5.2 36.1 C 0.0 50.1, 34.4 81.7, 27.1 94.3 C 20.8 83.1, 38.0 78.4, 23.5 91.7 C 15.5 80.0, 77.9 67.2, 88.8 73.8 Z" fill="none" fill-opacity="0.91" stroke="hsl(40, 53%, 69%)" stroke-width="1.24"  transform="translate(64.5 35.6) rotate(11.7) scale(0.73 0.56)" />
<path d="M 84.1 17.3 C 80.0 6.1, 32.1 49.4, 32.0 43.0 C 37.7 61.6, 41.3 75.1, 45.4 81.7 C 28.5 91.3, 28.2 70.8, 29.1 85.1 C 39.8 92.5, 87.6 73.9, 76.6 61.6 C 81.8 80.9, 90.4 38.0, 98.0 51.3 C 100.0 69.7, 49.9 78.8, 43.5 84.6 Z" fill="hsl(83, 65%, 44%)" fill-opacity="0.58" stroke="none" stroke-width="4.15"  transform="translate(64.1 30.3) rotate(55.5) scale(0.64 1.02)" />
<circle cx="61.0" cy="74.7" r="2.6" fill="hsl(144, 86%, 72%)" fill-opacity="0.53"  transform="translate(75.1 48.1) rotate(42.0) scale(0.78 1.33)" />
<path d="M 21.7 70.2 C 10.0 51.9, 47.4 6.0, 41.1 6.1 C 31.2 0.0, 45.0 55.5, 31.7 52.2 C 27.4 43.0, 47.7 43.0, 45.2 30.7 C 28.2 14.4, 28.6 93.2, 15.3 88.9 C 3.2 88.6, 2.6 60.3, 11.4 72.9 C 8.0 70.3, 47.8 83.8, 41.2 83.9 C 41.9 89.4, 59.7 82.4, 59.7 84.0 C 46.1 91.8, 43.6 13.7, 31.8 26.6 Z" fill="hsl(106, 75%, 59%)" fill-opacity="0.60" stroke="none" stroke-width="4.47"  transform="translate(71.3 92.4) rotate(204.3) scale(0.69 1.91)" />
<circle cx="75.7" cy="44.4" r="6.4" fill="url(#g1)" fill-opacity="0.57"  transform="translate(9.1 72.2) rotate(131.6) scale(1.07 0.68)" />
<circle cx="62.4" cy="98.2" r="8.9" fill="url(#g2)" fill-opacity="0.46" filter="url(#f1)" transform="translate(58.1 42.9) rotate(135.7) scale(1.10 1.55)" />
<rect x="25.6" y="1.4" width="34.5" height="13.8" rx="8.2" fill="hsl(290, 83%, 63%)" fill-opacity="0.95" stroke="hsl(290, 83%, 63%)" stroke-width="3.0"  transform="translate(87.6 99.7) rotate(104.6) scale(1.34 0.95)" />
<path d="M 55.5 12.1 C 64.6 16.0, 28.3 41.2, 32.2 52.2 C 42.7 53.3, 8.6 39.5, 13.4 26.7 C 19.2 18.3, 1.1 13.5, 7.8 27.5 C 0.0 40.1, 65.8 77.2, 76.9 87.5 C 91.2 91.5, 100.0 10.2, 99.5 10.0 C 100.0 3.9, 23.9 20.2, 32.3 6.0 C 30.2 1.9, 12.4 42.6, 19.9 32.7 Z" fill="none" fill-opacity="0.37" stroke="hsl(2, 82%, 55%)" stroke-width="0.91"  transform="translate(13.2 73.7) rotate(103.8) scale(1.93 0.59)" />
<rect x="30.5" y="61.8" width="43.8" height="18.6" rx="0" fill="none" fill-opacity="0.97"   transform="translate(60.0 54.6) rotate(95.0) scale(1.63 1.55)" />
<circle cx="69.0" cy="14.0" r="6.1" fill="url(#g1)" fill-opacity="0.95"  transform="translate(71.6 35.9) rotate(58.3) scale(1.27 1.95)" />
<rect x="28.3" y="52.5" width="42.8" height="17.7" rx="0.1" fill="hsl(2, 82%, 55%)" fill-opacity="0.20"    />
<circle cx="67.6" cy="21.9" r="4.6" fill="hsl(2, 82%, 55%)" fill-opacity="0.93" filter="url(#f1)" transform="translate(97.3 85.6) rotate(26.1) scale(1.41 1.28)" />
<path d="M 78.9 72.4 C 83.2 64.3, 100.0 6.2, 99.9 18.7 C 100.0 8.3, 36.4 43.3, 28.5 32.5 C 28.2 50.6, 21.5 0.0, 20.7 6.0 C 30.2 2.9, 22.1 0.0, 11.3 0.0 C 0.0 11.4, 29.7 51.3, 24.8 38.6 C 9.3 25.8, 84.3 75.0, 89.4 75.7 C 91.1 64.1, 61.7 36.1, 72.7 35.4 C 57.5 45.2, 41.7 39.5, 38.6 46.6 C 28.9 53.8, 72.7 23.7, 69.3 35.0 Z" fill="hsl(290, 83%, 63%)" fill-opacity="0.66" stroke="none" stroke-width="4.89"  transform="translate(96.9 97.1) rotate(353.7) scale(1.04 1.28)" />
<path d="M 45.1 64.9 C 37.5 79.2, 76.2 0.0, 88.6 12.8 C 81.1 0.0, 21.6 0.0, 20.3 9.9 C 34.7 10.2, 71.3 14.9, 57.1 2.0 C 68.8 0.0, 46.8 80.7, 52.9 90.6 C 71.4 98.3, 32.1 0.0, 45.8 1.7 C 31.4 16.0, 83.5 21.7, 71.0 23.1 C 83.6 30.5, 16.0 80.2, 12.6 90.5 Z" fill="none" fill-opacity="0.80" stroke="hsl(83, 65%, 44%)" stroke-width="1.18"  transform="translate(65.4 22.2) rotate(302.5) scale(0.71 1.15)" />
<circle cx="35.7" cy="12.7" r="5.3" fill="url(#g0)" fill-opacity="0.75"  transform="translate(31.6 43.1) rotate(22.0) scale(0.83 1.27)" />
<circle cx="1.0" cy="16.2" r="13.8" fill="hsl(40, 53%, 69%)" fill-opacity="0.69"   />
<rect x="0.5" y="16.9" width="49.2" height="15.8" rx="0" fill="hsl(151, 70%, 62%)" fill-opacity="0.83" stroke="hsl(144, 86%, 72%)" stroke-width="3.6"  transform="translate(30.6 87.0) rotate(328.8) scale(0.93 1.90)" />
<g opacity="0.058">
<rect x="0" y="0" width="1" height="100" fill="black" />
<rect x="22" y="0" width="1" height="100" fill="black" />
<rect x="44" y="0" width="1" height="100" fill="black" />
<rect x="66" y="0" width="1" height="100" fill="black" />
<rect x="88" y="0" width="1" height="100" fill="black" />
<rect x="0" y="0" width="100" height="1" fill="black" />
<rect x="0" y="22" width="100" height="1" fill="black" />
<rect x="0" y="44" width="100" height="1" fill="black" />
<rect x="0" y="66" width="100" height="1" fill="black" />
<rect x="0" y="88" width="100" height="1" fill="black" />
</g>

</svg>
