<?xml version="1.0" encoding="UTF-8"?>
<svg xmlns="http://www.w3.org/2000/svg" width="100" height="100" viewBox="0 0 100 100">
<defs>
<linearGradient id="g0" x1="0%" y1="0%" x2="100%" y2="100%">
<stop offset="0.0%" stop-color="hsl(106, 75%, 59%)" />
<stop offset="33.3%" stop-color="hsl(183, 71%, 60%)" />
<stop offset="66.7%" stop-color="hsl(242, 72%, 49%)" />
<stop offset="100.0%" stop-color="hsl(322, 74%, 44%)" />
</linearGradient>
<linearGradient id="g1" x1="0%" y1="0%" x2="100%" y2="100%">
<stop offset="0.0%" stop-color="hsl(290, 83%, 63%)" />
<stop offset="33.3%" stop-color="hsl(2, 82%, 55%)" />
<stop offset="66.7%" stop-color="hsl(86, 72%, 68%)" />
<stop offset="100.0%" stop-color="hsl(83, 65%, 44%)" />
</linearGradient>
<linearGradient id="g2" x1="0%" y1="0%" x2="100%" y2="100%">
<stop offset="0.0%" stop-color="hsl(40, 53%, 69%)" />
<stop offset="33.3%" stop-color="hsl(104, 72%, 65%)" />
<stop offset="66.7%" stop-color="hsl(144, 86%, 72%)" />
<stop offset="100.0%" stop-color="hsl(151, 70%, 62%)" />
</linearGradient>
</defs>

<path d="M 4.8 63.2 C 16.5 77.0, 6.3 43.2, 5.7 49.3 C 7.2 44.0, 60.5 15.1, 56.8 28.1 C 41.5 33.9, 56.2 61.4, 41.9 62.9 C 59.8 82.8, 82.7 19.4, 89.1 16.4 C 94.8 7.2, 14.8 83.6, 25.5 94.5 C 29.2 98.6, 97.6 0.0, 93.3 5.6 Z" fill="none" fill-opacity="0.36" stroke="hsl(151, 70%, 62%)" stroke-width="1.16"  transform="translate(43.1 63.4) rotate(213.0) scale(1.78 0.60)" />
<path d="M 71.9 68.0 C 73.4 85.8, 53.7 70.4, 45.8 71.0 C 33.3 76.8, 70.2 3.3, 60.0 8.8 C 79.5 17.4, 18.4 47.3, 27.2 41.0 C 21.0 37.6, 51.3 83.0, 41.9 69.6 C 29.7 83.3, 95.2 88.1, 88.5 90.5 C 94.2 71.6, 45.8 50.2, 51.2 60.9 " fill="hsl(2, 82%, 55%)" fill-opacity="0.32" stroke="none" stroke-width="1.17"  transform="translate(40.6 0.9) rotate(144.9) scale(1.39 1.45)" />
<path d="M 46.1 38.5 C 39.2 53.4, 87.3 19.5, 81.6 8.7 C 65.6 12.7, 22.3 2.6, 8.4 6.6 C 20.4 0.0, 42.3 64.5, 43.9 68.1 C 60.6 49.1, 0.1 46.5, 3.3 53.3 C 0.0 50.8, 17.4 23.3, 12.3 16.3 C 7.8 11.7, 6.5 45.6, 20.5 41.7 " fill="none" fill-opacity="0.77" stroke="hsl(242, 72%, 49%)" stroke-width="1.27"   />
<path d="M 67.0 89.5 C 55.7 96.5, 51.8 94.4, 58.8 95.7 C 77.3 95.5, 65.1 52.0, 65.7 63.1 C 77.6 76.1, 55.1 33.7, 68.2 25.5 Z" fill="hsl(86, 72%, 68%)" fill-opacity="0.80" stroke="none" stroke-width="1.22"  transform="translate(90.2 5.4) rotate(66.8) scale(1.77 0.72)" />
<rect x="59.7" y="11.9" width="21.2" height="32.7" rx="0" fill="hsl(144, 86%, 72%)" fill-opacity="0.76"    />
<circle cx="54.9" cy="63.5" r="0.4" fill="hsl(2, 82%, 55%)" fill-opacity="0.85"  transform="translate(6.0 10.0) rotate(179.1) scale(0.70 1.71)" />
<rect x="21.9" y="29.3" width="20.5" height="37.1" rx="17.4" fill="hsl(106, 75%, 59%)" fill-opacity="0.50"    />
<path d="M 34.2 15.1 C 40.8 12.5, 20.9 28.8, 33.4 21.6 C 45.2 16.4, 35.4 40.6, 25.9 49.5 C 26.9 56.0, 81.4 100.0, 89.0 89.6 C 87.9 85.8, 53.3 100.0, 48.7 93.9 Z" fill="none" fill-opacity="0.45" stroke="hsl(104, 72%, 65%)" stroke-width="0.95"   />
<path d="M 38.3 15.4 C 51.3 31.0, 61.2 14.2, 48.8 12.7 C 64.3 26.5, 0.0 88.3, 1.7 99.4 C 0.0 96.7, 61.8 66.3, 64.7 77.9 C 66.4 62.8, 13.2 33.3, 21.5 46.3 C 31.1 65.0, 31.3 47.7, 19.1 52.2 C 38.3 50.1, 29.6 69.2, 40.5 70.9 Z" fill="hsl(2, 82%, 55%)" fill-opacity="0.32" stroke="none" stroke-width="0.99"   />
<circle cx="36.5" cy="45.9" r="0.3" fill="hsl(290, 83%, 63%)" fill-opacity="0.93"   />
<path d="M 28.7 95.3 C 18.7 79.8, 37.1 34.3, 24.5 47.3 C 31.9 38.5, 100.0 59.7, 94.8 72.2 C 97.2 60.3, 0.0 71.6, 0.4 57.7 C 19.3 67.9, 48.2 13.6, 41.9 18.0 " fill="none" fill-opacity="0.56" stroke="hsl(183, 71%, 60%)" stroke-width="1.15"  transform="translate(47.6 28.2) rotate(34.5) scale(1.88 0.85)" />
<path d="M 20.7 81.0 C 29.5 66.5, 93.0 0.0, 91.0 3.6 C 73.1 12.6, 78.8 19.5, 81.2 29.0 C 80.3 17.4, 0.0 26.7, 2.2 29.2 C 0.2 9.3, 85.8 42.5, 76.4 48.3 C 66.7 38.0, 9.8 67.9, 3.5 65.7 C 16.5 48.4, 99.8 62.8, 93.7 57.2 C 98.6 50.0, 53.2 40.0, 53.5 36.8 Z" fill="none" fill-opacity="0.93" stroke="hsl(144, 86%, 72%)" stroke-width="0.95"  transform="translate(33.0 41.1) rotate(300.2) scale(1.84 1.33)" />
<circle cx="45.0" cy="35.3" r="1.4" fill="hsl(86, 72%, 68%)" fill-opacity="0.86"  transform="translate(59.0 70.1) rotate(351.6) scale(1.58 0.93)" />
<path d="M 93.8 12.4 C 88.9 2.5, 6.6 9.8, 15.6 0.0 C 28.5 0.0, 29.8 82.2, 42.7 73.2 C 60.7 91.1, 12.5 14.8, 14.1 6.9 C 4.9 0.0, 92.4 62.9, 87.7 58.2 C 94.6 67.9, 23.9 91.9, 36.6 83.4 " fill="none" fill-opacity="0.68" stroke="hsl(106, 75%, 59%)" stroke-width="0.94"   />
</svg>
