<?xml version="1.0" encoding="UTF-8"?>
<svg xmlns="http://www.w3.org/2000/svg" width="100" height="100" viewBox="0 0 100 100">
<defs>
<linearGradient id="g0" x1="0%" y1="0%" x2="100%" y2="100%">
<stop offset="0.0%" stop-color="hsl(106, 75%, 59%)" />
<stop offset="33.3%" stop-color="hsl(183, 71%, 60%)" />
<stop offset="66.7%" stop-color="hsl(242, 72%, 49%)" />
<stop offset="100.0%" stop-color="hsl(322, 74%, 44%)" />
</linearGradient>
<linearGradient id="g1" x1="0%" y1="0%" x2="100%" y2="100%">
<stop offset="0.0%" stop-color="hsl(290, 83%, 63%)" />
<stop offset="33.3%" stop-color="hsl(2, 82%, 55%)" />
<stop offset="66.7%" stop-color="hsl(86, 72%, 68%)" />
<stop offset="100.0%" stop-color="hsl(83, 65%, 44%)" />
</linearGradient>
<linearGradient id="g2" x1="0%" y1="0%" x2="100%" y2="100%">
<stop offset="0.0%" stop-color="hsl(40, 53%, 69%)" />
<stop offset="33.3%" stop-color="hsl(104, 72%, 65%)" />
<stop offset="66.7%" stop-color="hsl(144, 86%, 72%)" />
<stop offset="100.0%" stop-color="hsl(151, 70%, 62%)" />
</linearGradient>
<filter id="f1" x="-20%" y="-20%" width="140%" height="140%">
  <feGaussianBlur stdDeviation="0.9015580978946363" />
</filter>

</defs>

<circle cx="91.4" cy="50.7" r="3.3" fill="hsl(2, 82%, 55%)" fill-opacity="0.62" filter="url(#f1)" transform="translate(44.8 18.0) rotate(91.9) scale(1.40 1.21)" />
<circle cx="92.9" cy="17.7" r="4.9" fill="url(#g0)" fill-opacity="0.74"  transform="translate(63.8 94.1) rotate(193.8) scale(1.95 0.76)" />
<path d="M 45.6 44.9 C 51.3 43.7, 30.5 7.5, 43.7 5.1 C 62.4 0.0, 52.7 84.7, 43.8 89.4 C 45.4 83.1, 84.5 81.7, 73.3 89.0 C 92.2 69.4, 35.8 51.3, 40.2 53.5 C 36.5 67.6, 91.4 41.2, 83.2 33.8 C 95.1 29.7, 85.8 29.6, 86.6 22.7 C 83.0 13.1, 62.9 99.1, 56.5 87.2 C 53.2 93.3, 65.3 70.8, 56.4 68.4 Z" fill="none" fill-opacity="0.39" stroke="hsl(144, 86%, 72%)" stroke-width="4.53"  transform="translate(46.3 88.1) rotate(149.2) scale(0.54 0.91)" />
<path d="M 83.7 97.8 C 89.8 94.7, 26.2 80.2, 31.4 67.4 C 44.6 60.3, 81.0 29.8, 90.0 41.3 C 100.0 27.2, 42.9 94.4, 43.2 84.4 C 51.4 74.4, 60.4 50.5, 60.6 44.2 C 41.0 56.0, 8.3 32.7, 2.6 31.8 C 0.0 16.2, 53.4 0.0, 58.6 2.8 C 66.2 15.6, 99.0 86.1, 95.7 82.2 C 76.2 97.5, 88.9 94.7, 92.1 84.3 C 73.1 100.0, 20.9 56.7, 34.2 61.0 C 47.4 73.6, 25.1 36.1, 19.3 26.9 Z" fill="hsl(322, 74%, 44%)" fill-opacity="0.55" stroke="none" stroke-width="3.25"  transform="translate(42.3 93.5) rotate(229.4) scale(1.78 1.68)" />
<path d="M 91.5 7.2 C 94.0 14.3, 7.8 12.0, 19.5 4.9 C 11.9 0.0, 75.4 21.1, 71.9 25.5 C 70.4 10.1, 98.6 42.4, 96.5 33.3 C 96.8 24.9, 83.7 7.1, 85.6 7.3 C 95.6 2.4, 58.6 94.5, 45.1 92.3 C 34.7 80.0, 0.0 47.5, 3.7 49.1 C 23.0 58.8, 49.5 59.5, 63.7 56.3 C 70.8 50.5, 72.9 79.2, 77.9 90.0 C 92.9 100.0, 100.0 53.6, 95.9 67.8 C 81.5 75.5, 8.0 38.0, 4.1 39.1 Z" fill="none" fill-opacity="0.49" stroke="hsl(40, 53%, 69%)" stroke-width="3.65"  transform="translate(53.9 73.3) rotate(150.6) scale(1.01 0.53)" />
<rect x="6.4" y="57.7" width="37.8" height="16.2" rx="0" fill="none" fill-opacity="0.48" stroke="hsl(183, 71%, 60%)" stroke-width="4.0" filter="url(#f1)" transform="translate(40.2 20.8) rotate(96.7) scale(1.18 0.85)" />
<path d="M 35.4 53.2 C 52.3 73.1, 37.7 59.2, 32.4 67.7 C 36.2 48.4, 37.1 42.3, 42.8 41.5 C 53.8 42.6, 74.2 28.6, 81.9 17.7 C 62.8 1.0, 76.4 84.8, 86.5 95.3 C 87.3 80.5, 0.0 51.7, 1.4 43.2 C 0.0 32.7, 73.2 71.8, 58.7 74.7 " fill="hsl(104, 72%, 65%)" fill-opacity="0.52" stroke="none" stroke-width="2.97"   />
<circle cx="51.6" cy="40.4" r="4.2" fill="url(#g2)" fill-opacity="0.75"   />
<path d="M 30.0 80.9 C 11.6 78.1, 71.2 71.0, 72.6 65.1 C 53.8 60.6, 88.9 43.2, 82.1 49.0 C 91.2 45.0, 75.7 91.4, 86.2 86.9 C 72.6 90.5, 83.2 32.7, 78.1 41.2 C 70.0 44.8, 75.2 88.1, 77.3 86.5 C 84.4 91.2, 79.3 34.2, 71.0 38.4 C 74.7 46.5, 52.5 99.6, 38.6 85.9 C 47.3 94.7, 59.6 55.8, 53.9 63.4 C 40.0 80.5, 4.7 22.8, 12.6 33.6 C 9.6 34.1, 19.3 70.3, 5.6 57.1 Z" fill="none" fill-opacity="0.80" stroke="hsl(322, 74%, 44%)" stroke-width="3.15"  transform="translate(21.4 49.6) rotate(204.3) scale(1.61 1.26)" />
<path d="M 83.5 43.1 C 67.3 42.6, 88.2 18.9, 73.5 28.0 C 90.8 29.1, 86.0 87.6, 97.2 89.0 C 92.4 96.8, 32.1 17.7, 17.7 16.3 C 22.2 2.4, 9.9 93.6, 0.7 87.5 C 1.0 91.1, 27.4 59.2, 39.2 47.2 C 20.9 32.9, 88.6 85.5, 89.6 90.1 C 91.9 94.3, 69.8 73.7, 84.5 69.2 Z" fill="hsl(83, 65%, 44%)" fill-opacity="0.83" stroke="none" stroke-width="1.71"  transform="translate(30.4 88.3) rotate(83.5) scale(0.93 0.71)" />
<path d="M 66.6 47.4 C 63.7 58.7, 73.4 42.8, 72.8 39.1 C 63.0 27.2, 53.0 5.2, 66.4 11.3 C 50.8 16.3, 18.1 66.9, 32.0 73.9 C 41.9 78.4, 19.0 90.0, 5.9 82.0 C 4.8 92.8, 2.9 55.2, 13.5 41.6 C 0.0 44.6, 61.6 7.4, 52.4 18.6 C 53.5 19.5, 56.6 100.0, 62.9 99.5 Z" fill="hsl(104, 72%, 65%)" fill-opacity="0.82" stroke="none" stroke-width="3.71"  transform="translate(68.4 31.7) rotate(102.3) scale(1.36 1.52)" />
<rect x="11.2" y="34.0" width="38.1" height="33.5" rx="0" fill="hsl(86, 72%, 68%)" fill-opacity="0.26"   transform="translate(11.9 13.4) rotate(293.8) scale(0.82 0.80)" />
<path d="M 97.9 67.0 C 100.0 68.9, 55.1 86.0, 56.7 98.0 C 60.7 91.4, 68.3 81.0, 58.4 89.6 C 77.0 100.0, 64.5 70.2, 54.1 57.6 C 71.7 72.6, 3.2 68.3, 8.1 69.6 C 19.9 67.0, 43.8 73.4, 55.9 61.8 C 46.2 56.1, 26.1 23.1, 14.8 12.7 C 31.8 17.2, 64.8 65.7, 58.2 75.6 C 42.5 91.3, 65.9 39.7, 75.6 45.0 C 83.6 27.7, 22.3 27.6, 17.9 26.3 Z" fill="hsl(83, 65%, 44%)" fill-opacity="0.43" stroke="none" stroke-width="1.83"  transform="translate(7.9 12.8) rotate(287.7) scale(1.30 1.88)" />
<path d="M 98.7 24.6 C 79.3 40.7, 85.1 2.6, 73.0 1.7 C 87.5 0.0, 31.2 59.6, 30.6 71.9 C 20.2 84.4, 49.6 19.7, 59.3 30.7 C 42.1 36.5, 57.8 71.5, 61.0 60.1 C 62.7 52.8, 21.0 32.4, 30.4 18.3 C 24.8 22.1, 8.6 1.3, 23.3 6.5 C 20.7 16.7, 59.2 13.4, 52.9 28.2 C 38.8 36.0, 79.6 81.1, 66.7 78.0 Z" fill="none" fill-opacity="0.87" stroke="hsl(104, 72%, 65%)" stroke-width="1.51"  transform="translate(84.1 43.3) rotate(105.9) scale(1.75 0.74)" />
<path d="M 40.1 42.5 C 40.2 34.2, 8.0 33.5, 19.1 47.8 C 20.4 45.1, 6.6 62.7, 15.6 61.9 C 11.9 75.5, 3.5 67.2, 6.2 55.0 C 0.0 55.6, 100.0 82.5, 94.9 97.3 C 93.4 100.0, 100.0 33.0, 88.8 19.2 C 100.0 25.8, 3.4 45.5, 13.9 43.8 C 23.0 33.7, 55.2 72.6, 48.9 65.5 C 32.0 65.9, 15.1 4.0, 12.2 17.4 C 18.9 11.3, 24.3 34.2, 26.3 30.3 C 37.7 10.9, 32.1 68.2, 42.1 60.1 Z" fill="none" fill-opacity="1.00" stroke="hsl(106, 75%, 59%)" stroke-width="1.50"  transform="translate(50.1 55.0) rotate(194.1) scale(0.97 0.75)" />
<circle cx="4.9" cy="8.3" r="6.2" fill="hsl(83, 65%, 44%)" fill-opacity="0.90"  transform="translate(36.0 93.3) rotate(98.0) scale(1.10 1.13)" />
<rect x="18.5" y="48.1" width="41.1" height="23.2" rx="14.0" fill="hsl(151, 70%, 62%)" fill-opacity="0.95"   transform="translate(8.4 68.4) rotate(313.4) scale(0.97 0.55)" />
<circle cx="92.1" cy="43.3" r="9.0" fill="hsl(106, 75%, 59%)" fill-opacity="0.74"  transform="translate(54.3 19.4) rotate(301.2) scale(0.86 1.15)" />
<path d="M 58.0 4.4 C 51.0 0.0, 18.5 85.7, 21.9 83.7 C 7.1 85.0, 19.2 38.9, 10.6 36.2 C 25.8 16.6, 50.4 63.5, 48.8 63.0 C 33.8 73.7, 0.0 6.3, 7.4 14.4 C 12.4 14.4, 5.2 73.8, 1.1 68.8 C 17.6 79.5, 76.3 48.5, 66.6 48.8 C 82.2 33.2, 23.7 50.4, 32.3 42.4 Z" fill="none" fill-opacity="0.65" stroke="hsl(322, 74%, 44%)" stroke-width="2.48"  transform="translate(43.5 37.3) rotate(207.4) scale(1.66 1.74)" />
<path d="M 27.3 8.6 C 13.2 5.0, 46.5 69.2, 36.1 74.0 C 28.3 63.8, 55.5 25.1, 60.3 34.1 C 50.5 39.9, 41.1 30.5, 54.3 27.7 C 53.7 45.4, 100.0 39.9, 93.1 53.2 C 96.8 44.3, 94.9 15.7, 96.2 12.0 C 97.0 0.0, 52.1 12.3, 45.4 16.1 C 63.7 0.0, 40.0 48.2, 33.1 51.3 C 38.7 51.5, 7.2 44.1, 5.4 41.2 C 6.2 29.1, 53.9 12.6, 49.0 17.6 C 39.7 0.0, 17.5 88.3, 8.2 99.1 " fill="none" fill-opacity="0.93" stroke="hsl(86, 72%, 68%)" stroke-width="2.51"  transform="translate(28.7 26.2) rotate(90.3) scale(0.65 1.87)" />
<circle cx="34.3" cy="67.1" r="1.3" fill="hsl(40, 53%, 69%)" fill-opacity="0.82" filter="url(#f1)" transform="translate(40.0 10.6) rotate(231.9) scale(0.76 1.42)" />
<path d="M 69.8 10.5 C 75.6 11.3, 41.6 83.4, 27.2 71.8 C 19.4 85.2, 86.5 35.9, 89.4 30.9 C 98.0 14.5, 81.7 1.6, 76.5 2.5 C 77.0 11.3, 8.8 2.8, 15.9 1.0 C 15.1 0.0, 25.3 95.5, 23.5 84.6 C 13.2 71.8, 47.0 27.6, 35.7 38.2 " fill="hsl(83, 65%, 44%)" fill-opacity="0.61" stroke="none" stroke-width="4.53" filter="url(#f1)"  />
<path d="M 98.7 95.2 C 100.0 78.0, 47.8 72.8, 39.0 79.6 C 22.6 95.6, 69.1 30.6, 78.1 24.2 C 91.5 37.7, 51.6 32.9, 40.1 41.6 C 21.8 53.5, 26.1 91.4, 19.9 91.1 C 24.8 100.0, 45.2 22.3, 43.0 9.4 C 44.0 0.0, 36.9 37.5, 42.0 48.9 C 36.1 43.1, 8.8 43.9, 19.0 45.7 C 12.9 62.3, 82.7 100.0, 81.0 92.4 C 74.7 89.5, 11.5 17.0, 3.7 7.6 Z" fill="hsl(290, 83%, 63%)" fill-opacity="0.55" stroke="none" stroke-width="2.05"  transform="translate(5.3 79.2) rotate(309.5) scale(1.71 0.74)" />
<circle cx="23.6" cy="75.2" r="7.0" fill="url(#g1)" fill-opacity="0.46"  transform="translate(71.0 69.3) rotate(55.3) scale(1.52 0.72)" />
<circle cx="90.1" cy="46.9" r="14.2" fill="hsl(322, 74%, 44%)" fill-opacity="0.84"  transform="translate(52.4 2.2) rotate(334.4) scale(1.43 1.59)" />
<path d="M 25.7 22.9 C 13.1 29.1, 5.8 38.2, 3.7 41.8 C 1.0 39.0, 62.9 40.3, 58.5 47.9 C 38.6 65.4, 88.0 20.6, 97.9 33.9 C 92.6 48.5, 80.2 12.9, 73.0 11.6 C 70.9 0.0, 49.7 65.3, 41.4 54.6 C 50.1 34.9, 30.5 48.9, 17.7 35.7 C 20.9 35.3, 92.6 12.5, 85.8 18.5 C 69.4 36.5, 53.8 50.1, 62.7 46.0 C 49.2 36.8, 50.7 41.9, 38.9 35.5 Z" fill="hsl(104, 72%, 65%)" fill-opacity="0.88" stroke="none" stroke-width="2.42"  transform="translate(39.8 93.2) rotate(22.5) scale(1.15 1.06)" />
<circle cx="44.2" cy="75.5" r="1.1" fill="url(#g0)" fill-opacity="0.79"  transform="translate(12.5 53.2) rotate(107.4) scale(0.82 0.87)" />
<rect x="31.5" y="62.9" width="30.0" height="34.8" rx="0" fill="none" fill-opacity="0.75"    />
<path d="M 100.0 20.7 C 100.0 11.0, 92.7 39.5, 86.1 49.7 C 81.0 63.1, 0.0 86.0, 1.3 80.3 C 0.0 76.2, 55.3 46.4, 62.4 61.3 C 45.8 80.4, 32.5 98.6, 32.9 87.1 C 47.2 100.0, 79.2 31.8, 69.7 38.6 C 53.3 55.4, 53.5 86.9, 65.6 75.8 C 51.5 62.2, 83.0 27.0, 91.2 34.1 Z" fill="none" fill-opacity="0.67" stroke="hsl(40, 53%, 69%)" stroke-width="5.07" filter="url(#f1)" transform="translate(30.9 18.9) rotate(162.7) scale(0.90 1.47)" />
<rect x="23.3" y="27.1" width="22.7" height="27.2" rx="0" fill="hsl(104, 72%, 65%)" fill-opacity="0.71"   transform="translate(55.1 79.2) rotate(59.5) scale(1.62 0.62)" />
<path d="M 73.0 99.5 C 63.6 94.5, 97.9 25.0, 99.6 34.9 C 100.0 15.0, 37.8 0.0, 50.3 4.4 C 55.4 0.1, 89.0 76.1, 82.2 74.7 C 81.8 57.9, 14.6 93.4, 18.5 92.8 C 38.0 100.0, 81.4 74.8, 85.2 69.8 C 100.0 54.7, 48.8 18.6, 35.7 11.9 C 44.0 6.6, 31.6 63.1, 41.0 59.1 C 30.1 73.4, 14.8 26.2, 20.9 28.8 C 32.8 28.1, 48.7 100.0, 53.5 95.9 C 66.0 77.7, 7.0 60.4, 1.8 51.8 Z" fill="hsl(144, 86%, 72%)" fill-opacity="0.40" stroke="none" stroke-width="1.41"  transform="translate(0.5 33.7) rotate(304.4) scale(1.09 0.58)" />
<path d="M 31.5 37.6 C 14.3 21.4, 76.7 18.1, 75.4 13.4 C 88.7 14.6, 11.2 22.8, 15.7 18.3 C 8.1 8.6, 11.7 21.7, 25.5 22.6 C 33.4 38.7, 37.4 23.3, 40.6 12.3 C 34.8 26.2, 51.6 55.2, 59.2 46.2 C 46.6 45.2, 77.8 0.0, 89.5 5.3 C 87.6 23.5, 34.9 67.1, 29.1 66.2 C 37.5 82.2, 53.3 85.7, 48.5 78.5 C 58.6 76.7, 67.6 78.9, 58.6 79.7 Z" fill="hsl(40, 53%, 69%)" fill-opacity="0.99" stroke="none" stroke-width="1.80"   />
<rect x="11.1" y="17.8" width="28.3" height="21.7" rx="5.0" fill="none" fill-opacity="0.26" stroke="hsl(104, 72%, 65%)" stroke-width="4.5"  transform="translate(23.6 41.6) rotate(176.6) scale(0.57 0.54)" />
<rect x="49.5" y="65.7" width="46.6" height="22.7" rx="0" fill="hsl(151, 70%, 62%)" fill-opacity="0.38" stroke="hsl(151, 70%, 62%)" stroke-width="4.6"  transform="translate(34.6 4.3) rotate(151.1) scale(0.77 1.83)" />
<circle cx="77.6" cy="79.6" r="3.1" fill="url(#g0)" fill-opacity="0.44"  transform="translate(21.1 74.4) rotate(287.0) scale(1.75 0.70)" />
<rect x="73.0" y="70.3" width="21.1" height="19.4" rx="19.1" fill="hsl(144, 86%, 72%)" fill-opacity="0.54"   transform="translate(91.0 38.6) rotate(340.0) scale(0.91 1.94)" />
<path d="M 21.4 14.9 C 37.2 10.8, 14.3 49.3, 9.7 48.4 C 0.0 51.3, 16.6 54.6, 12.9 40.0 C 0.0 24.9, 74.0 63.1, 62.4 63.1 C 60.0 71.6, 58.2 81.1, 67.5 94.5 C 72.0 75.0, 67.9 71.0, 78.0 68.3 C 72.2 53.5, 56.4 16.4, 50.6 21.4 C 45.0 22.3, 2.5 21.2, 10.1 25.6 C 0.0 24.8, 72.8 40.5, 79.0 52.9 Z" fill="hsl(183, 71%, 60%)" fill-opacity="0.61" stroke="none" stroke-width="1.82"  transform="translate(40.9 38.3) rotate(347.1) scale(1.22 1.29)" />
<path d="M 86.1 67.7 C 83.8 47.8, 47.3 29.5, 58.2 24.9 C 51.5 36.8, 89.0 51.0, 87.0 49.3 C 100.0 40.6, 80.3 55.7, 91.0 65.1 C 89.3 55.3, 23.0 22.3, 31.7 9.1 C 36.8 0.0, 89.3 31.5, 93.3 19.4 C 100.0 1.2, 57.0 67.0, 63.7 57.4 C 65.5 42.6, 0.0 41.7, 5.5 55.4 C 0.0 71.4, 22.2 10.7, 14.2 13.7 C 2.6 2.9, 9.0 28.3, 16.4 30.9 C 17.7 27.0, 62.6 96.9, 53.6 84.1 Z" fill="none" fill-opacity="0.35" stroke="hsl(104, 72%, 65%)" stroke-width="4.29"  transform="translate(64.4 53.3) rotate(324.3) scale(1.62 0.91)" />
<path d="M 59.0 11.7 C 76.4 15.8, 64.4 46.4, 60.9 61.3 C 56.2 50.3, 60.8 92.3, 49.2 89.0 C 64.7 74.3, 48.8 88.1, 55.7 89.3 C 50.9 93.6, 100.0 24.5, 99.9 39.2 C 100.0 31.6, 0.0 12.3, 0.7 26.8 C 0.0 21.6, 88.0 87.6, 81.8 77.0 C 71.4 66.4, 21.0 26.6, 15.2 27.4 Z" fill="none" fill-opacity="0.63" stroke="hsl(104, 72%, 65%)" stroke-width="2.70"  transform="translate(57.8 28.4) rotate(82.7) scale(1.35 1.88)" />
<circle cx="80.8" cy="60.9" r="6.9" fill="url(#g2)" fill-opacity="0.53"  transform="translate(79.1 20.9) rotate(66.8) scale(1.87 1.68)" />
<path d="M 28.6 98.6 C 46.1 79.5, 0.0 30.9, 2.5 16.1 C 3.7 16.1, 74.8 72.0, 63.0 77.4 C 64.4 82.0, 36.3 95.0, 24.9 82.4 C 33.9 100.0, 92.1 79.5, 91.9 82.8 C 79.4 85.8, 25.0 93.8, 25.9 89.2 C 6.0 73.7, 60.7 72.9, 71.6 85.5 C 58.8 87.2, 26.0 14.7, 12.8 15.6 C 22.6 4.2, 34.9 29.2, 37.5 27.3 Z" fill="none" fill-opacity="0.56" stroke="hsl(242, 72%, 49%)" stroke-width="3.03" filter="url(#f1)" transform="translate(26.3 32.1) rotate(143.4) scale(0.86 1.70)" />
<path d="M 16.4 91.8 C 19.2 99.5, 96.6 26.0, 94.3 19.2 C 88.1 25.8, 79.5 90.8, 79.3 92.8 C 84.9 93.5, 15.1 90.2, 6.7 99.7 C 17.8 100.0, 14.3 43.3, 20.6 36.3 C 11.6 24.6, 89.3 25.7, 87.8 25.5 C 73.8 31.0, 29.2 40.3, 22.4 46.6 C 15.9 57.7, 52.2 31.2, 55.4 43.0 C 59.1 50.5, 75.1 0.0, 79.9 2.9 C 97.0 0.0, 47.3 71.6, 60.0 62.1 Z" fill="hsl(144, 86%, 72%)" fill-opacity="0.78" stroke="none" stroke-width="1.90"  transform="translate(81.7 69.3) rotate(294.4) scale(1.41 1.32)" />
<rect x="23.3" y="33.3" width="46.9" height="30.7" rx="2.8" fill="none" fill-opacity="0.81"    />
<path d="M 47.2 30.6 C 56.3 28.3, 60.4 44.7, 49.8 42.1 C 49.2 39.5, 54.9 16.1, 59.6 5.2 C 61.5 0.0, 17.0 83.1, 31.6 97.9 C 19.7 89.4, 21.3 42.6, 15.9 52.2 C 3.7 63.6, 57.5 1.6, 68.9 8.4 C 71.0 1.3, 45.4 25.0, 54.2 32.3 C 58.7 33.8, 58.7 9.6, 59.9 20.5 C 53.9 7.1, 87.9 57.6, 74.0 50.6 C 92.3 37.0, 71.5 93.1, 72.3 89.8 C 58.6 71.4, 72.9 81.8, 71.8 81.7 Z" fill="none" fill-opacity="0.61" stroke="hsl(322, 74%, 44%)" stroke-width="3.10"  transform="translate(5.0 57.3) rotate(40.5) scale(0.86 0.93)" />
<path d="M 9.4 68.8 C 24.5 69.5, 44.5 77.9, 35.3 73.6 C 15.3 62.2, 12.2 96.7, 24.5 86.3 C 13.6 94.9, 0.0 53.4, 0.4 62.3 C 0.0 50.9, 77.4 51.5, 86.0 62.9 C 96.6 49.6, 35.0 75.7, 23.4 67.3 C 27.4 70.1, 2.8 8.9, 8.1 20.1 Z" fill="hsl(151, 70%, 62%)" fill-opacity="0.85" stroke="none" stroke-width="3.47"   />
<path d="M 62.0 8.3 C 76.5 16.0, 27.1 11.5, 25.6 3.9 C 25.3 2.9, 52.9 35.7, 48.4 33.2 C 48.7 52.2, 58.5 52.5, 64.3 58.8 C 58.3 67.0, 18.2 77.5, 25.3 84.1 C 13.8 66.3, 72.1 9.3, 79.6 2.0 C 82.8 0.0, 20.1 60.3, 15.1 70.2 Z" fill="none" fill-opacity="0.57" stroke="hsl(144, 86%, 72%)" stroke-width="3.57"  transform="translate(17.4 17.7) rotate(63.8) scale(1.38 1.53)" />
<path d="M 3.4 0.7 C 13.3 6.6, 31.4 32.3, 40.0 23.6 C 56.9 18.5, 9.5 89.7, 22.0 97.2 C 40.6 100.0, 0.0 66.7, 7.9 55.9 C 9.2 44.9, 27.5 44.8, 17.3 53.2 C 13.3 51.9, 25.3 7.5, 11.7 19.0 C 17.5 14.7, 94.3 51.7, 90.3 36.8 C 90.6 48.4, 37.2 44.6, 31.4 53.7 Z" fill="hsl(2, 82%, 55%)" fill-opacity="0.26" stroke="none" stroke-width="2.70"   />
<rect x="55.4" y="35.7" width="35.9" height="19.2" rx="0" fill="hsl(40, 53%, 69%)" fill-opacity="0.59" stroke="hsl(144, 86%, 72%)" stroke-width="4.1"  transform="translate(66.6 82.4) rotate(346.7) scale(1.02 1.31)" />
<circle cx="81.6" cy="58.6" r="6.2" fill="url(#g0)" fill-opacity="0.89"  transform="translate(83.7 51.4) rotate(342.8) scale(1.69 1.75)" />
<rect x="14.0" y="51.8" width="22.4" height="16.0" rx="1.1" fill="none" fill-opacity="0.49"   transform="translate(16.7 44.0) rotate(13.8) scale(1.66 1.09)" />
<path d="M 92.9 88.9 C 100.0 93.5, 67.2 82.8, 69.3 96.5 C 70.5 100.0, 72.9 12.9, 59.8 20.6 C 65.0 37.8, 77.6 24.8, 84.9 17.7 C 66.5 16.8, 82.9 81.6, 77.5 77.8 C 84.4 78.5, 57.8 85.3, 57.3 93.8 C 66.7 100.0, 70.4 29.0, 65.8 22.4 C 82.9 41.9, 1.5 65.7, 5.9 66.8 Z" fill="hsl(83, 65%, 44%)" fill-opacity="0.53" stroke="none" stroke-width="1.61"  transform="translate(64.8 98.8) rotate(96.8) scale(0.79 1.41)" />
<rect x="54.5" y="22.9" width="20.8" height="35.4" rx="0" fill="none" fill-opacity="0.72"   transform="translate(44.1 96.3) rotate(198.1) scale(1.30 1.18)" />
<rect x="48.7" y="34.9" width="37.6" height="31.3" rx="5.5" fill="hsl(144, 86%, 72%)" fill-opacity="0.75"   transform="translate(1.1 46.5) rotate(134.7) scale(0.71 1.02)" />
<rect x="40.2" y="19.4" width="40.3" height="14.4" rx="1.9" fill="none" fill-opacity="0.80"   transform="translate(59.7 75.9) rotate(54.2) scale(0.98 1.97)" />
<circle cx="22.7" cy="21.8" r="4.3" fill="hsl(83, 65%, 44%)" fill-opacity="0.73"  transform="translate(34.6 21.3) rotate(193.9) scale(1.90 2.00)" />
<path d="M 17.4 90.5 C 26.2 89.1, 71.8 64.1, 65.0 59.8 C 72.7 42.7, 25.9 7.6, 13.5 17.8 C 17.2 31.8, 41.9 78.7, 53.8 73.4 C 45.8 63.0, 12.0 3.8, 17.9 18.3 C 10.0 13.1, 1.1 51.0, 14.2 38.3 C 15.6 33.6, 100.0 11.1, 95.0 14.5 C 100.0 24.2, 0.0 16.4, 2.2 22.5 C 8.4 31.9, 7.5 0.0, 1.0 7.0 Z" fill="none" fill-opacity="0.56" stroke="hsl(290, 83%, 63%)" stroke-width="1.22"  transform="translate(47.9 59.9) rotate(41.8) scale(0.90 0.75)" />
<path d="M 64.0 62.0 C 82.5 81.1, 9.5 46.4, 16.9 42.4 C 8.5 31.6, 75.8 6.1, 66.4 14.4 C 74.8 11.7, 56.7 39.0, 63.9 42.9 C 61.6 52.9, 19.1 0.0, 20.1 4.2 C 28.6 7.2, 25.2 49.0, 37.5 61.3 C 57.1 77.5, 53.2 36.2, 60.8 22.4 C 74.2 9.3, 72.2 82.8, 59.1 87.0 Z" fill="none" fill-opacity="0.32" stroke="hsl(151, 70%, 62%)" stroke-width="1.20"  transform="translate(34.9 6.9) rotate(258.5) scale(1.71 0.61)" />
<path d="M 69.5 53.3 C 60.3 37.9, 100.0 35.7, 91.6 24.6 C 88.6 9.7, 5.8 88.5, 18.9 94.3 C 35.1 87.8, 11.9 55.5, 14.2 65.6 C 12.2 58.8, 90.3 45.2, 94.6 53.2 C 93.7 57.1, 7.4 36.3, 2.1 38.2 C 0.0 21.4, 45.1 1.9, 55.2 12.5 C 44.2 26.5, 21.4 85.9, 33.0 82.6 Z" fill="hsl(322, 74%, 44%)" fill-opacity="0.97" stroke="none" stroke-width="1.94"  transform="translate(33.6 42.8) rotate(324.8) scale(1.26 1.77)" />
<circle cx="99.4" cy="33.8" r="9.7" fill="hsl(144, 86%, 72%)" fill-opacity="0.87"  transform="translate(68.1 38.0) rotate(210.3) scale(0.80 1.09)" />
<rect x="3.8" y="56.1" width="41.8" height="18.2" rx="0" fill="none" fill-opacity="0.59"    />
<rect x="14.5" y="21.1" width="47.8" height="13.0" rx="0" fill="hsl(106, 75%, 59%)" fill-opacity="0.47"   transform="translate(55.7 85.1) rotate(262.8) scale(1.21 1.13)" />
<path d="M 42.2 49.4 C 61.0 67.5, 75.4 58.2, 61.0 59.4 C 76.8 40.6, 13.8 42.3, 18.0 28.3 C 17.4 43.7, 33.7 55.1, 32.6 68.7 C 30.9 61.1, 90.1 68.4, 79.0 83.2 C 81.8 83.1, 16.7 98.1, 28.7 99.9 C 32.7 83.4, 48.9 0.0, 41.8 7.4 C 47.9 20.0, 63.3 70.1, 62.6 81.2 C 65.4 62.1, 13.4 24.0, 3.0 31.6 Z" fill="hsl(83, 65%, 44%)" fill-opacity="0.86" stroke="none" stroke-width="2.04"  transform="translate(65.1 38.0) rotate(197.2) scale(0.50 1.20)" />
<path d="M 84.3 69.2 C 100.0 83.4, 1.7 77.7, 10.7 73.0 C 0.0 66.9, 23.2 32.0, 24.5 46.4 C 22.7 34.8, 73.9 45.9, 61.0 57.5 C 77.4 63.9, 41.6 21.9, 47.6 32.9 C 37.2 47.2, 54.8 72.1, 58.1 80.2 C 56.1 79.3, 79.3 68.0, 72.2 66.2 C 52.6 57.6, 6.3 56.6, 9.7 55.3 C 14.1 39.6, 37.2 29.4, 40.8 18.8 Z" fill="hsl(290, 83%, 63%)" fill-opacity="0.49" stroke="none" stroke-width="4.25"  transform="translate(66.0 46.2) rotate(111.8) scale(1.04 0.92)" />
<path d="M 12.2 33.8 C 6.5 33.3, 41.4 38.1, 46.2 46.2 C 27.0 57.2, 90.6 2.8, 78.5 2.8 C 87.2 0.0, 50.7 23.2, 57.5 23.8 C 70.5 41.5, 73.3 86.7, 84.4 92.6 C 88.7 80.4, 59.1 85.3, 69.4 70.6 C 54.8 73.7, 53.1 33.3, 38.4 29.9 Z" fill="none" fill-opacity="0.45" stroke="hsl(2, 82%, 55%)" stroke-width="1.81"  transform="translate(81.3 57.5) rotate(106.6) scale(1.56 1.66)" />
<path d="M 38.1 99.7 C 57.9 100.0, 33.6 62.7, 28.3 76.8 C 44.6 78.5, 43.1 56.5, 39.5 45.7 C 47.6 44.5, 61.2 52.9, 50.1 57.6 C 53.0 43.4, 69.9 47.2, 69.9 54.2 C 79.8 52.4, 74.2 54.6, 68.6 57.3 C 57.5 47.2, 30.5 26.3, 45.2 13.4 C 35.6 7.4, 100.0 52.0, 96.9 40.6 Z" fill="hsl(2, 82%, 55%)" fill-opacity="0.55" stroke="none" stroke-width="2.48" filter="url(#f1)" transform="translate(89.2 44.4) rotate(295.7) scale(1.32 1.28)" />
<circle cx="39.6" cy="14.2" r="1.4" fill="hsl(106, 75%, 59%)" fill-opacity="0.64"  transform="translate(80.0 9.1) rotate(109.6) scale(1.74 1.58)" />
<rect x="32.6" y="29.3" width="34.4" height="35.7" rx="0" fill="none" fill-opacity="0.64"   transform="translate(0.6 91.2) rotate(331.1) scale(1.88 0.77)" />
<path d="M 21.4 15.8 C 38.4 34.0, 33.3 18.0, 40.5 16.6 C 46.1 14.7, 0.0 89.6, 2.5 90.8 C 0.0 80.6, 54.9 83.7, 52.0 75.4 C 62.3 83.2, 31.6 52.9, 44.8 54.0 C 63.6 59.3, 91.9 23.6, 92.8 25.5 C 100.0 40.5, 16.0 14.6, 14.8 2.2 Z" fill="none" fill-opacity="0.91" stroke="hsl(2, 82%, 55%)" stroke-width="2.48"  transform="translate(75.5 2.3) rotate(84.3) scale(1.70 1.19)" />
<path d="M 75.5 49.3 C 89.3 48.3, 85.2 38.0, 84.7 34.7 C 85.3 30.5, 34.0 79.2, 19.0 86.1 C 31.4 96.3, 32.5 59.1, 24.3 63.6 C 38.5 52.2, 0.0 45.4, 6.6 41.9 C 2.4 51.7, 40.2 68.2, 52.7 72.8 C 36.7 70.9, 53.4 79.4, 49.0 69.4 C 47.4 75.2, 15.7 21.0, 26.9 19.4 C 35.2 24.0, 32.5 55.0, 24.7 42.4 C 39.1 41.7, 38.9 9.6, 49.3 11.1 C 33.8 16.1, 94.2 8.1, 83.6 23.1 Z" fill="hsl(86, 72%, 68%)" fill-opacity="0.31" stroke="none" stroke-width="1.64"  transform="translate(81.2 1.7) rotate(276.7) scale(0.73 1.10)" />
<path d="M 61.6 13.7 C 51.7 1.0, 0.0 35.1, 0.6 24.1 C 9.2 21.1, 19.7 42.8, 25.6 53.3 C 12.8 68.4, 82.0 11.3, 77.3 22.0 C 72.7 4.1, 43.4 23.8, 56.1 13.8 C 55.3 5.9, 0.0 84.8, 1.3 85.9 C 14.0 66.1, 27.0 99.8, 27.5 98.2 C 30.5 100.0, 43.6 70.5, 38.9 59.4 Z" fill="none" fill-opacity="0.85" stroke="hsl(2, 82%, 55%)" stroke-width="4.27"  transform="translate(5.0 31.0) rotate(161.0) scale(1.39 0.75)" />
<path d="M 86.9 27.0 C 94.4 43.5, 86.7 84.4, 91.5 95.5 C 94.6 80.9, 19.7 35.7, 18.0 43.9 C 34.0 43.1, 92.1 74.9, 83.5 67.6 C 96.0 51.9, 41.6 38.6, 30.4 48.8 C 48.0 53.1, 53.4 58.7, 56.7 68.2 C 64.8 73.6, 46.6 0.0, 61.4 2.5 Z" fill="hsl(86, 72%, 68%)" fill-opacity="0.77" stroke="none" stroke-width="3.08"  transform="translate(51.9 42.5) rotate(31.8) scale(1.41 1.82)" />
<path d="M 79.6 48.9 C 59.8 44.4, 89.7 37.4, 76.6 32.1 C 87.7 30.0, 33.7 10.5, 29.5 18.8 C 36.2 3.1, 57.8 66.7, 68.4 78.5 C 65.7 81.8, 57.7 0.0, 70.0 0.9 C 61.2 0.0, 40.5 81.5, 48.1 86.8 C 41.7 95.7, 15.5 85.0, 26.2 77.3 C 33.7 95.0, 64.1 57.1, 59.8 47.6 Z" fill="hsl(86, 72%, 68%)" fill-opacity="0.89" stroke="none" stroke-width="3.61"  transform="translate(41.3 67.8) rotate(329.1) scale(0.69 0.85)" />
<path d="M 21.1 25.3 C 24.7 43.0, 67.8 12.8, 81.8 24.2 C 79.1 35.5, 3.0 41.1, 0.5 53.1 C 7.7 52.4, 17.6 83.9, 23.3 83.7 C 25.5 100.0, 85.8 80.1, 81.9 72.5 C 69.9 83.9, 8.2 53.5, 6.1 45.5 C 0.0 63.0, 19.1 69.0, 30.6 55.8 C 19.1 39.9, 84.1 52.0, 70.6 56.4 Z" fill="hsl(2, 82%, 55%)" fill-opacity="0.68" stroke="none" stroke-width="1.71"  transform="translate(31.0 83.6) rotate(39.4) scale(1.99 0.61)" />
<rect x="33.8" y="21.8" width="48.9" height="37.6" rx="0" fill="hsl(183, 71%, 60%)" fill-opacity="0.54"   transform="translate(32.6 72.3) rotate(272.2) scale(1.35 1.85)" />
<path d="M 18.7 51.6 C 31.6 36.9, 57.8 80.7, 46.6 79.1 C 61.4 64.9, 95.5 85.7, 98.6 96.9 C 100.0 92.0, 10.7 49.6, 3.2 60.2 C 15.1 52.1, 74.5 59.8, 72.2 73.9 C 80.2 64.2, 58.3 45.4, 60.5 53.8 C 69.1 34.6, 47.0 93.2, 34.7 87.8 C 46.1 97.0, 42.3 16.4, 49.4 12.4 Z" fill="none" fill-opacity="0.75" stroke="hsl(40, 53%, 69%)" stroke-width="3.50" filter="url(#f1)"  />
<path d="M 90.3 3.9 C 77.0 11.4, 98.7 100.0, 85.0 99.0 C 70.1 100.0, 47.0 1.6, 42.5 0.0 C 51.8 18.2, 40.8 69.4, 32.3 79.1 C 25.9 78.2, 16.7 0.0, 23.4 5.7 C 4.7 18.4, 91.2 84.5, 88.8 98.3 C 100.0 100.0, 74.3 64.7, 77.3 56.0 " fill="hsl(183, 71%, 60%)" fill-opacity="0.91" stroke="none" stroke-width="0.95"   />
<path d="M 19.0 39.7 C 7.8 55.3, 16.3 75.5, 6.9 72.1 C 0.0 81.9, 80.4 28.1, 65.7 24.7 C 82.4 32.8, 100.0 0.0, 98.0 2.0 C 91.6 0.0, 69.2 34.5, 76.7 42.0 C 68.5 32.0, 68.4 0.0, 63.2 3.3 C 65.1 0.0, 54.1 3.2, 44.4 16.2 C 53.0 0.5, 28.7 23.2, 32.1 34.6 " fill="hsl(242, 72%, 49%)" fill-opacity="0.60" stroke="none" stroke-width="3.62" filter="url(#f1)" transform="translate(24.8 20.6) rotate(215.1) scale(0.86 1.32)" />
<rect x="19.1" y="40.0" width="40.8" height="34.6" rx="10.0" fill="hsl(83, 65%, 44%)" fill-opacity="0.72"   transform="translate(10.3 13.1) rotate(5.1) scale(1.93 1.62)" />
<path d="M 1.1 90.3 C 20.6 100.0, 33.5 81.7, 37.0 78.7 C 34.9 75.4, 21.1 0.4, 13.7 13.4 C 15.4 15.1, 35.8 86.6, 26.1 77.9 C 12.1 61.6, 57.0 73.0, 67.4 72.2 C 82.1 82.1, 88.3 32.9, 88.9 37.9 C 100.0 31.5, 51.6 100.0, 62.0 93.0 C 62.3 96.6, 38.4 59.5, 51.6 60.8 C 42.8 71.1, 36.5 71.9, 21.6 65.5 C 38.8 67.1, 32.2 16.0, 28.1 25.0 Z" fill="none" fill-opacity="0.47" stroke="hsl(106, 75%, 59%)" stroke-width="4.01"  transform="translate(94.1 54.7) rotate(31.1) scale(1.19 0.68)" />
<path d="M 27.2 93.0 C 31.4 81.9, 0.0 18.5, 1.7 15.1 C 0.0 25.4, 52.8 44.4, 53.0 51.0 C 37.1 64.7, 47.0 68.8, 58.1 66.0 C 70.6 57.6, 25.3 80.1, 17.6 88.9 C 3.6 97.1, 93.5 6.2, 89.6 15.6 C 100.0 25.0, 91.7 46.7, 98.4 47.2 Z" fill="none" fill-opacity="0.56" stroke="hsl(83, 65%, 44%)" stroke-width="4.46"   />
<circle cx="94.9" cy="86.4" r="20.3" fill="hsl(322, 74%, 44%)" fill-opacity="0.89"  transform="translate(84.0 30.3) rotate(250.8) scale(1.15 0.68)" />
<path d="M 57.3 52.4 C 40.4 70.5, 30.3 65.2, 43.3 61.7 C 27.4 55.7, 62.2 85.6, 73.9 87.9 C 66.2 100.0, 67.8 88.2, 67.6 76.6 C 70.3 64.1, 72.7 98.3, 81.1 93.5 C 93.5 100.0, 39.3 39.6, 35.4 46.3 C 29.5 35.9, 26.6 94.4, 24.9 99.8 C 39.4 96.2, 38.5 38.9, 25.4 52.5 Z" fill="none" fill-opacity="0.80" stroke="hsl(151, 70%, 62%)" stroke-width="4.53"  transform="translate(44.8 89.0) rotate(266.6) scale(1.90 1.79)" />
<circle cx="74.6" cy="26.1" r="4.8" fill="hsl(183, 71%, 60%)" fill-opacity="0.98"  transform="translate(88.1 74.7) rotate(63.3) scale(0.60 0.96)" />
<rect x="56.6" y="37.4" width="36.3" height="21.3" rx="0" fill="hsl(83, 65%, 44%)" fill-opacity="0.35" stroke="hsl(86, 72%, 68%)" stroke-width="3.5"   />
<path d="M 65.3 41.1 C 78.2 60.2, 95.4 77.9, 93.4 72.4 C 100.0 54.4, 23.3 78.2, 14.8 70.4 C 0.0 83.1, 22.2 12.2, 20.3 21.4 C 5.9 37.7, 0.6 7.7, 1.6 9.1 C 0.0 0.0, 67.7 81.2, 78.6 79.8 C 58.8 97.1, 32.2 71.9, 36.4 57.1 C 28.0 57.9, 69.8 3.4, 64.4 16.8 C 80.5 28.0, 74.5 0.0, 80.1 5.7 C 70.6 0.0, 17.2 23.7, 14.4 25.9 Z" fill="none" fill-opacity="0.65" stroke="hsl(183, 71%, 60%)" stroke-width="5.17"   />
<rect x="1.4" y="13.9" width="39.3" height="37.5" rx="0" fill="none" fill-opacity="0.51" stroke="hsl(86, 72%, 68%)" stroke-width="1.9"  transform="translate(73.7 27.2) rotate(351.4) scale(1.69 1.14)" />
<rect x="35.2" y="54.1" width="32.5" height="22.4" rx="10.5" fill="hsl(290, 83%, 63%)" fill-opacity="0.20"   transform="translate(78.6 41.7) rotate(263.7) scale(0.74 1.22)" />
<rect x="52.5" y="74.9" width="29.7" height="21.1" rx="0" fill="hsl(83, 65%, 44%)" fill-opacity="0.36"   transform="translate(33.5 10.3) rotate(241.7) scale(1.14 1.82)" />
<path d="M 40.7 4.8 C 28.4 0.0, 62.9 18.4, 63.4 20.5 C 75.8 4.2, 74.2 16.8, 82.0 19.5 C 69.7 13.7, 66.3 82.5, 52.2 68.5 C 37.8 53.0, 0.0 67.6, 2.1 66.2 C 13.4 68.3, 18.5 41.0, 4.3 32.7 C 0.0 24.0, 31.9 42.3, 35.9 34.7 C 43.5 52.3, 64.5 41.2, 67.9 38.1 C 78.3 51.1, 77.5 5.0, 83.9 17.6 C 97.4 34.7, 72.9 58.3, 64.7 54.0 C 71.5 55.0, 45.8 46.7, 42.2 60.4 " fill="hsl(104, 72%, 65%)" fill-opacity="0.35" stroke="none" stroke-width="3.44"  transform="translate(41.9 40.6) rotate(211.1) scale(1.47 1.76)" />
<path d="M 64.3 18.5 C 47.1 15.1, 61.2 37.8, 55.6 41.5 C 72.6 37.9, 52.2 34.9, 63.5 47.8 C 48.4 31.3, 95.6 100.0, 99.4 96.5 C 94.0 100.0, 74.5 18.4, 69.8 27.3 C 65.3 14.4, 36.1 44.8, 37.4 49.1 C 21.0 49.3, 41.9 75.2, 28.5 73.3 C 30.7 83.5, 27.4 27.5, 35.3 31.2 C 16.4 20.4, 36.1 88.9, 38.2 84.7 Z" fill="hsl(106, 75%, 59%)" fill-opacity="0.92" stroke="none" stroke-width="3.54"  transform="translate(0.9 9.8) rotate(38.8) scale(1.75 1.82)" />
<path d="M 86.7 41.2 C 96.3 52.8, 85.8 28.0, 99.0 26.3 C 100.0 25.5, 78.0 61.2, 92.5 57.7 C 100.0 40.7, 17.5 37.2, 30.1 27.6 C 43.5 37.7, 0.0 85.7, 4.7 89.2 C 0.0 100.0, 73.5 42.4, 58.8 34.5 C 76.6 43.8, 25.2 67.6, 25.8 82.2 C 7.3 65.8, 49.6 69.6, 54.7 80.6 Z" fill="none" fill-opacity="0.72" stroke="hsl(104, 72%, 65%)" stroke-width="4.28"  transform="translate(50.7 67.7) rotate(210.0) scale(0.52 1.04)" />
<path d="M 32.3 76.5 C 20.4 91.1, 0.1 73.1, 10.1 78.0 C 0.0 60.7, 57.5 97.4, 59.8 83.1 C 42.7 67.2, 26.0 24.7, 28.5 30.8 C 41.5 44.2, 97.0 32.0, 89.3 44.7 C 97.4 62.4, 37.2 71.1, 48.9 63.4 C 42.5 52.8, 73.5 29.0, 82.5 21.0 C 89.7 20.8, 0.0 27.0, 0.6 27.9 C 0.0 8.8, 70.4 31.4, 67.5 29.4 Z" fill="none" fill-opacity="0.57" stroke="hsl(151, 70%, 62%)" stroke-width="0.92"  transform="translate(66.6 82.5) rotate(157.0) scale(0.60 1.84)" />
<path d="M 76.8 28.2 C 59.7 11.2, 32.9 6.1, 23.7 11.7 C 39.1 22.6, 18.5 53.4, 19.5 60.4 C 27.4 60.8, 3.2 47.2, 15.3 57.4 C 8.3 41.6, 95.8 34.1, 91.6 36.5 C 81.2 19.1, 22.9 68.5, 21.4 73.0 C 21.1 69.2, 58.3 4.2, 54.8 1.2 C 48.5 8.3, 37.1 44.3, 42.3 44.5 C 28.9 40.4, 8.6 41.8, 16.1 42.7 C 13.3 36.3, 58.0 16.1, 51.3 26.5 C 55.0 20.2, 34.5 54.7, 20.7 46.3 Z" fill="hsl(40, 53%, 69%)" fill-opacity="0.94" stroke="none" stroke-width="1.74"  transform="translate(55.9 45.4) rotate(242.3) scale(1.82 0.67)" />
<rect x="50.3" y="79.6" width="36.3" height="12.3" rx="0" fill="none" fill-opacity="0.65"   transform="translate(38.4 0.4) rotate(9.0) scale(0.73 1.70)" />
<path d="M 86.5 68.4 C 83.8 75.1, 0.0 88.0, 1.4 89.4 C 0.9 87.9, 30.8 4.1, 45.0 8.3 C 53.0 8.6, 71.6 34.0, 86.3 41.3 C 82.3 58.3, 51.3 6.0, 40.8 1.1 C 48.7 0.0, 51.4 16.0, 41.0 22.3 C 54.3 26.5, 59.2 41.3, 69.1 46.0 C 68.3 32.2, 98.5 12.0, 87.8 8.7 C 89.7 16.4, 30.5 73.1, 37.5 82.2 C 57.1 75.6, 40.6 48.4, 40.7 52.4 C 35.8 43.3, 34.9 46.7, 47.6 51.8 Z" fill="none" fill-opacity="0.85" stroke="hsl(40, 53%, 69%)" stroke-width="4.80" filter="url(#f1)"  />
<rect x="33.6" y="60.4" width="33.6" height="29.5" rx="0" fill="none" fill-opacity="0.42"   transform="translate(6.6 38.8) rotate(251.7) scale(1.60 1.02)" />
<circle cx="88.6" cy="51.5" r="2.7" fill="hsl(40, 53%, 69%)" fill-opacity="0.92"  transform="translate(25.3 90.2) rotate(0.4) scale(1.45 1.02)" />
<rect x="45.6" y="24.0" width="35.7" height="23.2" rx="0" fill="hsl(322, 74%, 44%)" fill-opacity="0.43" stroke="hsl(183, 71%, 60%)" stroke-width="4.6"  transform="translate(33.4 13.5) rotate(241.2) scale(0.61 1.35)" />
<path d="M 81.1 7.1 C 61.5 0.0, 19.3 87.3, 27.0 83.6 C 38.6 100.0, 93.4 87.3, 82.6 81.1 C 82.1 90.1, 22.7 47.1, 30.3 51.7 C 10.4 46.7, 16.3 47.8, 21.4 59.2 C 38.8 77.9, 10.1 60.8, 1.2 59.2 C 4.6 66.8, 12.2 61.9, 10.8 57.1 C 0.0 48.1, 100.0 61.9, 96.0 61.2 C 76.6 75.8, 0.0 28.7, 11.4 37.7 C 20.4 29.2, 77.6 94.1, 64.5 96.4 C 80.0 90.7, 11.4 73.2, 8.8 68.9 Z" fill="hsl(144, 86%, 72%)" fill-opacity="0.50" stroke="none" stroke-width="3.38"  transform="translate(61.4 1.6) rotate(130.5) scale(1.05 1.43)" />
<path d="M 47.6 49.7 C 61.9 55.4, 46.7 13.2, 34.2 20.3 C 16.1 37.8, 13.5 33.0, 3.6 22.9 C 10.4 8.6, 89.0 35.5, 93.8 24.4 C 100.0 25.8, 2.8 2.8, 15.4 13.4 C 1.2 18.6, 76.0 81.6, 63.4 91.8 C 76.2 100.0, 73.8 23.2, 67.6 18.5 C 74.2 36.4, 15.9 78.1, 23.1 70.0 C 32.2 81.4, 41.6 35.4, 50.6 26.1 Z" fill="hsl(86, 72%, 68%)" fill-opacity="0.49" stroke="none" stroke-width="4.63" filter="url(#f1)" transform="translate(96.4 61.8) rotate(283.3) scale(0.56 1.27)" />
<rect x="25.5" y="10.1" width="35.8" height="32.0" rx="13.7" fill="none" fill-opacity="0.22" stroke="hsl(290, 83%, 63%)" stroke-width="1.8"  transform="translate(87.0 57.8) rotate(27.8) scale(1.57 1.19)" />
<rect x="35.3" y="1.8" width="40.7" height="34.3" rx="0" fill="hsl(322, 74%, 44%)" fill-opacity="0.79" stroke="hsl(183, 71%, 60%)" stroke-width="3.2"  transform="translate(19.7 39.7) rotate(302.9) scale(1.85 1.41)" />
<rect x="29.2" y="35.6" width="41.9" height="25.9" rx="3.3" fill="hsl(40, 53%, 69%)" fill-opacity="0.63"   transform="translate(80.4 27.6) rotate(24.3) scale(1.96 1.09)" />
<path d="M 40.4 85.6 C 21.1 92.2, 89.1 53.3, 81.1 42.2 C 67.2 55.4, 19.3 38.2, 18.0 42.2 C 24.5 54.0, 51.0 78.5, 51.3 85.9 C 56.8 70.1, 17.3 14.0, 9.6 21.7 C 26.7 4.7, 100.0 0.0, 98.1 4.7 C 100.0 6.5, 61.0 92.9, 62.2 99.9 C 56.7 100.0, 100.0 33.2, 97.9 48.1 C 84.3 64.7, 25.5 8.9, 20.9 16.3 C 2.1 18.9, 94.3 52.7, 85.4 54.9 C 96.6 48.1, 31.2 79.9, 43.2 91.5 Z" fill="hsl(144, 86%, 72%)" fill-opacity="0.59" stroke="none" stroke-width="4.96"  transform="translate(73.5 78.7) rotate(98.0) scale(1.30 0.74)" />
<path d="M 28.2 22.8 C 17.5 4.8, 5.7 100.0, 2.9 92.0 C 9.1 91.6, 74.4 9.4, 85.1 14.5 C 66.0 17.0, 0.0 31.1, 2.6 20.0 C 0.0 21.7, 90.9 56.8, 92.7 64.3 C 100.0 53.0, 100.0 0.2, 91.1 5.5 C 100.0 18.1, 86.0 62.5, 77.5 65.5 C 93.7 71.0, 23.8 7.0, 15.3 4.9 C 19.5 0.0, 3.5 91.4, 3.4 89.5 Z" fill="none" fill-opacity="0.71" stroke="hsl(40, 53%, 69%)" stroke-width="2.52"  transform="translate(60.1 7.2) rotate(4.3) scale(1.03 1.73)" />
<path d="M 64.4 39.5 C 70.9 31.3, 39.4 36.6, 31.1 46.0 C 23.6 62.5, 82.9 15.6, 83.8 19.4 C 100.0 0.3, 85.5 36.2, 81.6 32.1 C 94.8 30.7, 57.9 14.1, 62.8 6.5 C 53.1 17.6, 9.6 93.5, 22.8 96.7 C 22.6 82.8, 24.6 53.4, 36.7 43.8 C 45.4 62.8, 36.2 72.3, 46.6 72.5 C 32.1 55.0, 58.6 2.9, 60.8 13.7 C 69.6 0.0, 64.0 0.0, 69.2 8.3 C 64.0 0.0, 57.0 26.9, 54.4 39.5 Z" fill="hsl(104, 72%, 65%)" fill-opacity="0.55" stroke="none" stroke-width="2.14" filter="url(#f1)" transform="translate(3.7 27.7) rotate(154.7) scale(1.75 0.62)" />
<circle cx="80.7" cy="42.1" r="8.7" fill="hsl(183, 71%, 60%)" fill-opacity="0.83"  transform="translate(61.9 2.1) rotate(247.4) scale(1.40 0.52)" />
<rect x="22.1" y="83.2" width="43.8" height="15.8" rx="0" fill="hsl(322, 74%, 44%)" fill-opacity="0.88" stroke="hsl(106, 75%, 59%)" stroke-width="3.0"  transform="translate(41.4 62.4) rotate(241.3) scale(0.80 0.59)" />
<path d="M 15.1 58.7 C 25.6 52.7, 22.4 10.3, 7.7 18.9 C 0.0 17.9, 47.2 100.0, 60.2 92.3 C 66.9 100.0, 7.8 29.0, 20.2 41.4 C 29.2 49.4, 42.2 65.3, 27.4 70.0 C 40.4 70.7, 21.4 63.4, 16.3 69.8 C 27.7 58.8, 24.5 49.8, 26.1 40.3 C 8.5 39.1, 35.7 0.0, 50.1 4.0 C 56.7 10.2, 100.0 46.1, 97.8 54.8 C 100.0 41.5, 0.0 6.1, 2.0 14.9 C 7.0 29.6, 92.1 88.8, 82.8 98.1 " fill="hsl(86, 72%, 68%)" fill-opacity="0.90" stroke="none" stroke-width="2.96"  transform="translate(87.1 34.7) rotate(287.4) scale(1.56 1.25)" />
<circle cx="43.8" cy="64.7" r="2.6" fill="url(#g0)" fill-opacity="0.54" filter="url(#f1)" transform="translate(38.1 46.4) rotate(156.5) scale(1.57 0.79)" />
<path d="M 78.3 78.2 C 84.8 86.4, 100.0 56.4, 98.6 68.0 C 87.6 80.4, 38.2 83.2, 37.1 74.6 C 28.1 94.4, 5.1 32.2, 6.9 23.1 C 0.9 28.7, 62.9 89.3, 71.4 97.4 C 57.3 81.3, 0.0 43.5, 1.0 53.2 C 17.5 48.9, 72.2 78.8, 68.6 70.2 C 55.7 77.4, 83.4 26.8, 72.2 15.6 Z" fill="none" fill-opacity="0.94" stroke="hsl(322, 74%, 44%)" stroke-width="1.46"  transform="translate(25.2 83.3) rotate(166.1) scale(1.55 1.46)" />
<rect x="30.8" y="43.7" width="27.2" height="20.6" rx="0" fill="none" fill-opacity="0.92"    />
<path d="M 80.9 7.6 C 91.8 5.9, 68.9 13.5, 60.3 8.3 C 66.2 20.9, 32.8 65.4, 36.5 57.8 C 40.6 50.3, 21.1 43.4, 14.8 40.6 C 0.1 54.5, 91.9 62.2, 78.3 69.5 C 90.9 76.1, 100.0 95.6, 92.8 97.2 C 93.2 91.3, 80.6 47.0, 93.8 61.7 C 91.8 61.4, 18.5 79.1, 7.4 76.9 C 0.0 85.0, 75.9 68.4, 73.4 68.1 Z" fill="none" fill-opacity="0.80" stroke="hsl(290, 83%, 63%)" stroke-width="4.58"  transform="translate(10.8 53.3) rotate(341.4) scale(0.56 1.18)" />
<path d="M 17.0 57.6 C 13.5 42.1, 31.9 64.4, 19.2 59.0 C 0.0 55.0, 28.2 78.5, 42.4 92.4 C 60.6 100.0, 68.2 7.7, 62.1 2.5 C 57.9 3.6, 91.1 29.4, 83.0 28.3 C 63.8 9.5, 91.6 22.0, 87.4 26.5 C 100.0 21.9, 76.0 2.2, 70.9 0.2 C 68.7 0.0, 3.5 78.1, 18.4 86.1 C 30.4 86.0, 59.4 31.4, 72.9 43.2 C 69.6 48.1, 22.7 46.6, 15.8 44.4 C 33.8 31.1, 63.1 0.0, 77.1 0.4 " fill="none" fill-opacity="0.26" stroke="hsl(104, 72%, 65%)" stroke-width="2.81"   />
<circle cx="14.8" cy="81.9" r="2.3" fill="hsl(290, 83%, 63%)" fill-opacity="0.59"  transform="translate(81.4 41.8) rotate(167.7) scale(1.30 1.56)" />
<circle cx="27.4" cy="2.4" r="4.4" fill="hsl(151, 70%, 62%)" fill-opacity="0.61"  transform="translate(48.9 8.0) rotate(278.2) scale(1.47 0.76)" />
<path d="M 69.3 22.4 C 75.7 33.0, 13.2 63.0, 11.7 65.5 C 3.2 76.1, 47.6 40.6, 61.7 31.0 C 52.7 23.2, 4.0 9.2, 7.6 12.3 C 8.5 0.0, 56.3 78.4, 42.7 77.3 C 26.3 73.8, 27.4 33.0, 36.2 30.3 C 41.7 31.4, 83.2 69.9, 92.9 76.6 C 100.0 92.4, 81.7 42.0, 93.7 40.5 C 82.9 28.8, 0.0 83.8, 5.0 84.5 C 9.7 73.0, 96.4 78.7, 87.0 80.6 C 100.0 81.8, 80.3 15.5, 79.8 6.5 Z" fill="hsl(183, 71%, 60%)" fill-opacity="0.54" stroke="none" stroke-width="3.22"  transform="translate(28.0 0.9) rotate(210.3) scale(0.95 1.11)" />
<path d="M 12.5 84.5 C 3.9 89.5, 76.2 63.6, 69.8 50.9 C 86.2 63.4, 88.1 13.8, 94.9 14.9 C 86.9 25.8, 10.7 40.8, 19.1 46.5 C 17.7 62.8, 78.6 59.0, 73.1 58.0 C 59.8 58.1, 98.8 54.2, 95.9 49.6 C 78.6 35.6, 58.9 51.7, 63.2 45.6 C 53.2 37.8, 61.0 78.4, 53.9 64.0 C 69.4 51.5, 37.1 72.5, 45.9 80.8 C 25.9 89.9, 78.7 99.8, 90.6 91.9 C 88.0 92.9, 75.0 57.2, 74.3 58.7 Z" fill="hsl(242, 72%, 49%)" fill-opacity="0.57" stroke="none" stroke-width="3.26"  transform="translate(69.6 45.4) rotate(156.5) scale(0.79 1.51)" />
<path d="M 4.4 42.1 C 13.2 36.5, 58.6 18.6, 64.9 18.3 C 60.8 23.7, 92.3 72.6, 97.7 76.0 C 100.0 72.4, 61.2 15.7, 52.0 6.5 C 71.2 0.0, 88.8 38.8, 94.6 42.5 C 94.3 53.3, 47.2 100.0, 45.1 93.3 C 56.6 100.0, 98.5 41.0, 89.7 52.7 C 83.7 68.2, 76.5 10.3, 81.7 2.3 C 89.3 6.6, 43.8 100.0, 30.1 99.9 Z" fill="hsl(322, 74%, 44%)" fill-opacity="0.74" stroke="none" stroke-width="2.89"   />
<path d="M 63.8 17.5 C 79.6 12.7, 63.1 33.0, 48.9 23.6 C 30.2 25.6, 71.3 26.6, 61.6 28.9 C 48.3 45.6, 66.9 69.4, 53.7 64.0 C 51.8 64.3, 87.8 65.7, 85.4 56.9 C 70.6 39.8, 0.0 25.3, 4.5 30.9 C 7.8 45.3, 45.3 79.8, 53.7 78.0 Z" fill="none" fill-opacity="0.93" stroke="hsl(40, 53%, 69%)" stroke-width="3.38"   />
<rect x="48.7" y="19.2" width="49.9" height="21.0" rx="0" fill="hsl(106, 75%, 59%)" fill-opacity="0.61" stroke="hsl(242, 72%, 49%)" stroke-width="4.1"  transform="translate(34.8 67.5) rotate(190.5) scale(1.78 1.97)" />
<circle cx="96.9" cy="88.7" r="3.8" fill="url(#g1)" fill-opacity="0.93"   />
<path d="M 64.1 10.8 C 47.1 0.6, 41.7 22.8, 39.9 24.1 C 43.0 25.8, 37.1 14.3, 37.5 1.6 C 50.0 1.4, 54.2 39.0, 57.7 48.4 C 40.1 35.9, 32.7 77.3, 37.1 67.9 C 38.5 53.5, 100.0 28.0, 93.9 34.4 C 95.3 24.8, 24.3 6.2, 19.7 0.9 C 32.1 0.0, 71.9 57.3, 58.9 51.0 Z" fill="none" fill-opacity="0.33" stroke="hsl(242, 72%, 49%)" stroke-width="3.69"  transform="translate(54.2 68.4) rotate(43.1) scale(1.41 1.57)" />
<circle cx="32.6" cy="49.1" r="2.0" fill="hsl(183, 71%, 60%)" fill-opacity="0.82"  transform="translate(41.9 69.1) rotate(118.8) scale(1.25 1.25)" />
<path d="M 69.4 41.4 C 51.8 52.5, 87.8 49.9, 79.5 37.6 C 86.2 38.1, 44.2 17.1, 52.1 10.8 C 44.7 3.6, 6.4 89.5, 9.8 78.4 C 0.0 80.9, 71.4 64.6, 58.0 73.1 C 67.5 58.9, 100.0 23.4, 98.6 34.3 C 89.9 15.8, 10.4 57.0, 17.0 58.1 C 31.4 74.2, 49.5 0.0, 45.8 2.4 C 45.8 0.0, 0.0 43.5, 6.3 48.8 Z" fill="hsl(290, 83%, 63%)" fill-opacity="0.84" stroke="none" stroke-width="2.82"  transform="translate(56.9 70.4) rotate(181.9) scale(1.02 1.13)" />
<path d="M 89.1 54.9 C 100.0 60.7, 31.5 0.0, 39.7 2.8 C 34.9 8.0, 13.7 44.7, 13.3 56.3 C 27.7 42.0, 96.3 26.4, 91.3 29.9 C 100.0 48.7, 54.0 88.1, 46.6 80.1 C 65.7 71.8, 28.8 66.6, 19.3 69.9 C 38.0 71.9, 58.3 19.6, 46.3 16.1 C 47.2 26.6, 54.9 94.1, 40.7 90.8 C 43.8 90.0, 14.7 23.1, 4.8 28.0 C 10.2 21.6, 91.0 50.7, 91.1 61.7 Z" fill="hsl(106, 75%, 59%)" fill-opacity="0.41" stroke="none" stroke-width="2.60"  transform="translate(50.1 41.1) rotate(188.2) scale(1.22 1.23)" />
<rect x="8.8" y="32.5" width="31.8" height="13.0" rx="0" fill="hsl(183, 71%, 60%)" fill-opacity="0.37"    />
<path d="M 44.7 18.0 C 58.1 0.0, 78.6 100.0, 71.2 95.9 C 83.7 100.0, 44.6 14.9, 37.0 1.8 C 28.7 5.6, 10.3 31.2, 21.1 38.4 C 24.1 24.5, 96.3 41.5, 92.4 52.2 C 77.2 33.0, 94.7 50.2, 88.8 38.7 C 86.7 57.8, 84.9 56.4, 85.6 59.1 C 87.3 48.0, 53.8 50.7, 40.6 58.8 C 24.8 60.3, 78.1 78.4, 65.2 64.3 Z" fill="hsl(106, 75%, 59%)" fill-opacity="0.67" stroke="none" stroke-width="4.74" filter="url(#f1)"  />
<path d="M 38.1 6.0 C 38.9 19.0, 62.8 45.7, 58.0 49.3 C 75.6 48.9, 100.0 40.6, 97.6 29.3 C 80.5 43.0, 79.8 19.6, 91.9 11.9 C 94.5 0.0, 43.1 24.2, 35.1 20.0 C 50.9 7.8, 37.7 92.0, 27.9 86.1 C 35.3 71.7, 7.3 28.8, 3.8 42.9 C 14.0 40.4, 30.5 62.1, 34.5 60.7 C 47.1 55.5, 41.3 31.5, 31.1 22.5 C 33.2 30.4, 85.8 61.8, 77.4 70.6 Z" fill="hsl(151, 70%, 62%)" fill-opacity="0.80" stroke="none" stroke-width="3.46"   />
<circle cx="47.0" cy="85.2" r="12.6" fill="hsl(290, 83%, 63%)" fill-opacity="0.92" filter="url(#f1)" transform="translate(45.7 46.1) rotate(141.7) scale(1.81 1.64)" />
<path d="M 62.0 34.1 C 81.5 33.1, 70.8 32.9, 62.2 18.0 C 72.7 0.1, 73.4 25.7, 75.9 37.7 C 66.1 36.6, 100.0 100.0, 90.2 92.0 C 98.1 100.0, 68.7 49.4, 68.1 39.9 C 82.0 31.7, 29.4 88.9, 23.6 99.4 C 9.3 100.0, 9.5 72.8, 23.8 69.8 Z" fill="none" fill-opacity="0.34" stroke="hsl(40, 53%, 69%)" stroke-width="0.96" filter="url(#f1)" transform="translate(46.3 2.0) rotate(184.5) scale(1.46 1.77)" />
<path d="M 55.8 3.9 C 70.0 8.2, 39.7 11.2, 49.3 13.8 C 35.0 2.9, 46.0 10.0, 59.8 16.6 C 67.9 32.2, 93.7 34.7, 92.0 27.9 C 80.8 43.9, 45.6 28.9, 33.4 28.3 C 28.2 23.6, 90.4 78.6, 97.5 90.4 C 100.0 90.1, 82.2 8.0, 85.5 10.0 C 75.6 2.5, 87.1 61.1, 73.1 54.1 C 73.0 42.1, 75.1 71.3, 66.5 57.8 C 81.2 39.4, 2.3 68.1, 3.9 53.2 Z" fill="hsl(322, 74%, 44%)" fill-opacity="0.96" stroke="none" stroke-width="2.06"  transform="translate(83.8 22.3) rotate(254.0) scale(1.17 0.64)" />
<rect x="21.8" y="30.9" width="25.0" height="38.0" rx="0" fill="none" fill-opacity="0.54"   transform="translate(47.7 52.6) rotate(39.7) scale(0.67 1.89)" />
<path d="M 96.3 57.8 C 87.6 59.2, 41.0 79.8, 52.0 84.1 C 48.8 71.5, 94.9 45.8, 93.2 34.6 C 100.0 23.3, 50.3 6.1, 42.0 11.7 C 38.1 3.7, 25.8 53.9, 37.5 58.7 C 32.0 71.2, 29.5 27.6, 15.3 16.4 C 27.0 10.9, 74.1 100.0, 59.7 87.3 Z" fill="hsl(242, 72%, 49%)" fill-opacity="0.86" stroke="none" stroke-width="0.83"  transform="translate(83.1 78.9) rotate(190.8) scale(1.85 0.82)" />
<path d="M 58.7 10.7 C 61.1 25.8, 41.6 13.5, 34.0 9.7 C 24.8 6.8, 100.0 100.0, 96.5 96.3 C 100.0 100.0, 40.5 14.4, 45.1 2.4 C 59.2 0.0, 78.2 36.5, 65.8 48.0 C 51.6 45.9, 85.9 100.0, 84.9 93.0 C 95.0 100.0, 100.0 49.9, 97.5 39.0 C 100.0 24.7, 87.8 50.9, 77.6 46.0 Z" fill="none" fill-opacity="0.78" stroke="hsl(83, 65%, 44%)" stroke-width="0.93" filter="url(#f1)"  />
<circle cx="31.8" cy="43.9" r="17.7" fill="hsl(242, 72%, 49%)" fill-opacity="0.40"  transform="translate(73.9 36.9) rotate(5.3) scale(0.84 0.91)" />
<rect x="30.9" y="54.4" width="20.4" height="37.2" rx="15.7" fill="hsl(151, 70%, 62%)" fill-opacity="0.64"   transform="translate(38.4 2.2) rotate(205.2) scale(1.72 1.23)" />
<path d="M 63.0 84.3 C 81.6 89.4, 19.2 56.7, 21.3 63.9 C 3.6 47.3, 38.4 52.5, 30.3 58.4 C 10.9 47.7, 59.7 84.9, 58.8 83.4 C 63.8 88.7, 44.4 100.0, 36.0 93.4 C 36.1 100.0, 75.4 69.6, 88.9 64.1 C 86.6 78.9, 32.2 87.3, 17.7 98.3 C 18.7 100.0, 59.5 58.1, 46.1 65.1 Z" fill="hsl(144, 86%, 72%)" fill-opacity="0.69" stroke="none" stroke-width="4.75"  transform="translate(20.5 60.6) rotate(194.9) scale(0.89 0.86)" />
<rect x="44.4" y="45.1" width="46.4" height="31.0" rx="5.6" fill="hsl(104, 72%, 65%)" fill-opacity="0.40" stroke="hsl(151, 70%, 62%)" stroke-width="3.2"  transform="translate(41.6 21.5) rotate(234.9) scale(0.80 1.81)" />
<path d="M 22.4 59.7 C 19.6 75.6, 20.0 80.8, 7.3 94.3 C 27.1 99.2, 40.8 87.8, 41.4 92.6 C 51.8 100.0, 13.1 10.3, 14.5 6.5 C 9.7 24.0, 41.1 4.2, 29.3 1.9 C 37.3 0.0, 0.0 4.1, 5.5 6.8 C 0.0 9.0, 30.8 100.0, 21.3 99.6 Z" fill="hsl(83, 65%, 44%)" fill-opacity="0.32" stroke="none" stroke-width="1.60"  transform="translate(90.5 26.1) rotate(205.2) scale(1.91 1.94)" />
<path d="M 34.2 82.6 C 47.0 74.9, 0.7 16.2, 1.1 4.0 C 0.0 0.0, 41.9 11.9, 41.3 25.8 C 54.7 8.2, 21.9 98.3, 28.4 98.4 C 14.1 82.1, 17.9 18.0, 21.7 11.1 C 6.4 0.0, 57.9 81.1, 68.3 77.6 C 60.3 65.7, 11.1 34.5, 10.9 20.6 C 18.7 13.7, 77.5 100.0, 89.2 92.5 " fill="none" fill-opacity="0.63" stroke="hsl(322, 74%, 44%)" stroke-width="0.95"  transform="translate(48.3 59.3) rotate(60.9) scale(1.15 1.83)" />
<path d="M 80.5 14.6 C 77.2 28.6, 53.8 0.0, 59.1 1.7 C 59.6 0.0, 25.6 54.6, 24.1 53.0 C 34.4 59.3, 2.2 56.8, 6.8 46.1 C 23.8 47.3, 84.6 62.6, 98.0 74.1 C 87.9 75.1, 44.9 46.4, 36.2 54.0 C 49.2 45.7, 33.1 79.1, 41.4 71.4 C 31.7 90.3, 7.3 74.0, 12.1 80.2 C 8.7 73.4, 27.8 48.3, 40.8 45.4 C 53.1 61.5, 26.7 9.2, 13.1 10.9 C 9.0 12.5, 70.5 12.2, 72.4 11.8 Z" fill="hsl(144, 86%, 72%)" fill-opacity="0.77" stroke="none" stroke-width="2.20" filter="url(#f1)" transform="translate(28.8 34.4) rotate(67.9) scale(1.24 1.75)" />
<path d="M 88.5 80.1 C 74.2 97.0, 89.5 50.3, 81.8 40.8 C 85.6 23.6, 30.6 79.8, 42.5 84.9 C 23.8 100.0, 3.8 59.0, 2.2 54.1 C 0.0 58.0, 53.8 88.9, 52.8 75.9 C 45.2 73.7, 75.0 87.6, 77.6 88.3 C 93.3 89.1, 14.2 58.4, 1.3 43.8 C 17.3 62.6, 27.2 37.8, 22.9 51.0 C 16.7 47.8, 55.4 77.2, 52.9 69.7 C 57.4 67.0, 6.2 2.9, 10.2 5.6 C 15.3 17.1, 64.2 33.5, 61.4 34.1 Z" fill="none" fill-opacity="0.88" stroke="hsl(144, 86%, 72%)" stroke-width="4.57"  transform="translate(15.9 15.7) rotate(195.8) scale(0.99 0.56)" />
<path d="M 80.3 33.8 C 88.8 27.2, 6.6 87.7, 6.7 96.3 C 15.8 100.0, 74.9 57.6, 81.3 63.9 C 97.3 60.8, 100.0 48.2, 88.0 62.5 C 81.7 71.2, 28.6 70.2, 19.5 61.7 C 37.9 43.4, 11.8 15.3, 13.2 29.2 C 15.7 33.7, 80.6 16.5, 89.2 22.0 Z" fill="hsl(290, 83%, 63%)" fill-opacity="0.58" stroke="none" stroke-width="0.82" filter="url(#f1)" transform="translate(4.2 93.6) rotate(143.6) scale(0.55 1.39)" />
<path d="M 41.4 20.8 C 61.3 26.4, 100.0 41.5, 93.3 55.3 C 100.0 63.1, 83.8 13.5, 93.9 17.1 C 91.5 3.0, 99.8 19.8, 99.1 22.5 C 92.9 31.4, 19.6 53.5, 11.6 52.2 C 3.1 63.2, 5.2 46.7, 18.6 44.7 C 23.6 26.8, 31.4 65.6, 18.4 71.2 C 36.6 83.3, 10.9 35.3, 4.1 31.9 Z" fill="none" fill-opacity="0.92" stroke="hsl(322, 74%, 44%)" stroke-width="4.38"   />
<g opacity="0.064">
<rect x="0" y="0" width="1" height="100" fill="black" />
<rect x="22" y="0" width="1" height="100" fill="black" />
<rect x="44" y="0" width="1" height="100" fill="black" />
<rect x="66" y="0" width="1" height="100" fill="black" />
<rect x="88" y="0" width="1" height="100" fill="black" />
<rect x="0" y="0" width="100" height="1" fill="black" />
<rect x="0" y="22" width="100" height="1" fill="black" />
<rect x="0" y="44" width="100" height="1" fill="black" />
<rect x="0" y="66" width="100" height="1" fill="black" />
<rect x="0" y="88" width="100" height="1" fill="black" />
</g>

</svg>
