<?xml version="1.0" encoding="UTF-8"?>
<svg xmlns="http://www.w3.org/2000/svg" width="100" height="100" viewBox="0 0 100 100">
<defs>
<linearGradient id="g0" x1="0%" y1="0%" x2="100%" y2="100%">
<stop offset="0.0%" stop-color="hsl(106, 75%, 59%)" />
<stop offset="33.3%" stop-color="hsl(183, 71%, 60%)" />
<stop offset="66.7%" stop-color="hsl(242, 72%, 49%)" />
<stop offset="100.0%" stop-color="hsl(322, 74%, 44%)" />
</linearGradient>
<linearGradient id="g1" x1="0%" y1="0%" x2="100%" y2="100%">
<stop offset="0.0%" stop-color="hsl(290, 83%, 63%)" />
<stop offset="33.3%" stop-color="hsl(2, 82%, 55%)" />
<stop offset="66.7%" stop-color="hsl(86, 72%, 68%)" />
<stop offset="100.0%" stop-color="hsl(83, 65%, 44%)" />
</linearGradient>
<linearGradient id="g2" x1="0%" y1="0%" x2="100%" y2="100%">
<stop offset="0.0%" stop-color="hsl(40, 53%, 69%)" />
<stop offset="33.3%" stop-color="hsl(104, 72%, 65%)" />
<stop offset="66.7%" stop-color="hsl(144, 86%, 72%)" />
<stop offset="100.0%" stop-color="hsl(151, 70%, 62%)" />
</linearGradient>
</defs>

<path d="M 9.7 7.8 C 14.2 1.8, 92.8 15.7, 95.6 9.5 C 76.9 22.4, 100.0 42.6, 96.4 53.1 C 87.5 71.5, 15.6 0.0, 19.2 9.1 " fill="hsl(83, 65%, 44%)" fill-opacity="0.97" stroke="none" stroke-width="1.14"   />
<rect x="12.5" y="72.6" width="40.1" height="22.4" rx="0" fill="hsl(106, 75%, 59%)" fill-opacity="0.54"   transform="translate(56.6 79.2) rotate(127.5) scale(1.82 1.22)" />
<path d="M 82.3 42.5 C 65.7 25.3, 18.1 48.9, 31.6 50.7 C 22.3 63.8, 0.0 92.3, 1.9 93.5 C 10.8 100.0, 48.3 80.8, 50.9 78.1 " fill="none" fill-opacity="0.86" stroke="hsl(144, 86%, 72%)" stroke-width="0.90"  transform="translate(47.5 79.6) rotate(89.0) scale(1.40 0.51)" />
<path d="M 38.0 25.8 C 31.4 20.1, 92.6 92.3, 94.7 91.4 C 77.8 90.1, 94.7 6.2, 90.3 1.6 C 100.0 0.0, 59.0 81.7, 55.1 81.2 Z" fill="hsl(322, 74%, 44%)" fill-opacity="0.52" stroke="none" stroke-width="0.88"  transform="translate(74.2 43.9) rotate(34.9) scale(1.68 1.72)" />
<path d="M 61.1 91.5 C 67.1 91.3, 63.7 77.9, 66.7 86.0 C 63.0 72.8, 9.1 44.4, 19.0 44.3 C 8.8 49.7, 21.3 28.2, 21.0 27.7 C 30.6 15.5, 26.2 87.7, 23.5 84.9 C 27.2 75.5, 19.6 51.4, 10.1 50.8 C 23.5 68.7, 66.8 25.1, 59.2 12.7 C 61.9 9.0, 86.6 30.3, 86.2 23.8 Z" fill="none" fill-opacity="0.71" stroke="hsl(144, 86%, 72%)" stroke-width="1.24"  transform="translate(38.5 11.0) rotate(90.8) scale(1.39 1.91)" />
<rect x="18.6" y="42.2" width="29.9" height="10.5" rx="0" fill="hsl(40, 53%, 69%)" fill-opacity="0.61"   transform="translate(23.6 76.1) rotate(332.1) scale(0.59 1.20)" />
<path d="M 45.3 80.3 C 55.1 75.7, 19.4 75.6, 24.7 83.8 C 27.8 88.2, 62.0 71.5, 71.6 82.4 C 84.4 100.0, 82.8 97.6, 78.3 98.8 C 74.1 90.1, 92.8 4.3, 88.5 6.2 C 70.7 12.4, 25.6 31.7, 35.6 31.6 " fill="hsl(106, 75%, 59%)" fill-opacity="0.26" stroke="none" stroke-width="0.96"  transform="translate(24.6 86.4) rotate(352.0) scale(0.55 0.77)" />
<path d="M 59.7 17.0 C 47.3 4.7, 26.0 68.4, 40.8 76.2 C 40.2 70.2, 3.1 86.9, 10.2 79.5 C 0.0 63.9, 8.2 100.0, 13.3 96.4 C 6.5 76.9, 46.4 76.9, 35.8 88.3 C 38.0 100.0, 69.9 14.5, 80.9 7.3 C 80.8 5.4, 29.4 22.9, 33.4 11.2 C 23.9 17.8, 15.4 73.5, 22.1 61.9 " fill="none" fill-opacity="0.75" stroke="hsl(290, 83%, 63%)" stroke-width="1.19"  transform="translate(80.0 84.0) rotate(330.7) scale(1.02 1.52)" />
<circle cx="29.8" cy="97.7" r="1.3" fill="hsl(104, 72%, 65%)" fill-opacity="0.85"  transform="translate(49.9 5.2) rotate(188.7) scale(0.90 1.07)" />
<path d="M 52.2 30.1 C 37.2 46.9, 83.3 10.6, 77.0 20.9 C 86.7 35.4, 60.5 92.7, 46.8 85.0 C 42.2 79.5, 29.8 60.8, 34.2 74.3 C 51.3 61.3, 87.3 78.2, 77.1 73.1 C 64.9 78.7, 49.0 56.2, 38.1 57.1 C 24.4 37.1, 95.8 90.1, 91.5 89.8 C 86.9 91.3, 98.1 59.4, 97.1 69.8 " fill="none" fill-opacity="0.96" stroke="hsl(322, 74%, 44%)" stroke-width="1.13"   />
<circle cx="28.9" cy="33.3" r="0.6" fill="hsl(322, 74%, 44%)" fill-opacity="0.70"  transform="translate(8.0 51.0) rotate(30.4) scale(0.99 1.83)" />
<rect x="2.8" y="27.0" width="46.6" height="26.9" rx="10.0" fill="hsl(151, 70%, 62%)" fill-opacity="0.99" stroke="hsl(144, 86%, 72%)" stroke-width="3.7"  transform="translate(59.4 14.8) rotate(297.6) scale(1.28 1.70)" />
</svg>
