<?xml version="1.0" encoding="UTF-8"?>
<svg xmlns="http://www.w3.org/2000/svg" width="100" height="100" viewBox="0 0 100 100">
<defs>
<linearGradient id="g0" x1="0%" y1="0%" x2="100%" y2="100%">
<stop offset="0.0%" stop-color="hsl(106, 75%, 59%)" />
<stop offset="33.3%" stop-color="hsl(183, 71%, 60%)" />
<stop offset="66.7%" stop-color="hsl(242, 72%, 49%)" />
<stop offset="100.0%" stop-color="hsl(322, 74%, 44%)" />
</linearGradient>
<linearGradient id="g1" x1="0%" y1="0%" x2="100%" y2="100%">
<stop offset="0.0%" stop-color="hsl(290, 83%, 63%)" />
<stop offset="33.3%" stop-color="hsl(2, 82%, 55%)" />
<stop offset="66.7%" stop-color="hsl(86, 72%, 68%)" />
<stop offset="100.0%" stop-color="hsl(83, 65%, 44%)" />
</linearGradient>
<linearGradient id="g2" x1="0%" y1="0%" x2="100%" y2="100%">
<stop offset="0.0%" stop-color="hsl(40, 53%, 69%)" />
<stop offset="33.3%" stop-color="hsl(104, 72%, 65%)" />
<stop offset="66.7%" stop-color="hsl(144, 86%, 72%)" />
<stop offset="100.0%" stop-color="hsl(151, 70%, 62%)" />
</linearGradient>
<filter id="f1" x="-20%" y="-20%" width="140%" height="140%">
  <feGaussianBlur stdDeviation="1.9947262787855364" />
</filter>

</defs>

<path d="M 89.3 70.6 C 78.1 75.1, 72.0 27.0, 80.1 37.2 C 81.7 43.6, 36.3 53.2, 44.1 46.8 C 34.2 65.9, 20.4 66.9, 15.9 69.6 C 9.7 87.7, 27.2 61.2, 19.1 48.1 C 12.3 45.2, 38.5 29.7, 51.4 33.7 C 64.0 48.7, 4.6 31.7, 15.4 42.1 C 24.2 38.0, 81.7 73.7, 79.2 68.4 " fill="none" fill-opacity="0.44" stroke="hsl(40, 53%, 69%)" stroke-width="2.91" filter="url(#f1)" transform="translate(80.0 55.9) rotate(156.5) scale(0.81 0.67)" />
<path d="M 43.5 75.9 C 43.2 92.7, 12.9 66.4, 22.1 66.6 C 33.8 71.2, 31.7 55.0, 19.5 53.3 C 24.9 36.2, 29.3 68.7, 38.6 53.9 C 20.4 42.4, 21.9 99.1, 34.5 89.5 C 29.4 100.0, 42.0 27.9, 43.9 17.0 C 28.2 20.8, 10.0 36.8, 3.6 31.5 C 0.0 45.6, 29.9 32.7, 38.8 46.5 Z" fill="hsl(2, 82%, 55%)" fill-opacity="0.41" stroke="none" stroke-width="3.07"  transform="translate(50.3 97.6) rotate(357.6) scale(1.56 1.49)" />
<rect x="23.8" y="15.2" width="48.2" height="18.9" rx="0" fill="hsl(40, 53%, 69%)" fill-opacity="0.94" stroke="hsl(104, 72%, 65%)" stroke-width="2.7"  transform="translate(67.4 25.0) rotate(108.5) scale(1.93 1.50)" />
<path d="M 83.8 90.2 C 64.0 76.0, 98.1 67.8, 94.3 74.3 C 87.4 71.7, 6.0 12.7, 2.3 22.4 C 9.8 29.8, 35.8 65.1, 49.0 79.2 C 54.7 60.3, 77.5 15.2, 87.0 15.6 C 86.6 35.5, 80.2 100.0, 83.2 87.4 C 92.5 89.6, 94.6 98.3, 91.6 93.1 Z" fill="none" fill-opacity="0.96" stroke="hsl(106, 75%, 59%)" stroke-width="0.94"  transform="translate(12.9 5.8) rotate(86.9) scale(1.99 0.52)" />
<path d="M 24.2 21.3 C 40.9 29.5, 47.0 39.2, 51.6 34.1 C 32.1 35.5, 35.4 24.0, 46.8 21.7 C 41.4 31.4, 88.4 39.7, 89.1 31.2 C 83.1 21.6, 3.8 63.8, 2.0 65.4 C 7.6 62.1, 79.2 28.9, 89.8 41.0 C 77.6 23.2, 34.6 70.8, 35.2 66.0 C 21.8 65.8, 92.1 52.3, 84.8 63.5 C 93.1 62.4, 85.6 6.3, 85.1 8.1 C 70.6 24.2, 91.1 96.2, 99.8 94.9 C 83.2 100.0, 36.5 35.0, 23.5 36.2 Z" fill="hsl(86, 72%, 68%)" fill-opacity="0.73" stroke="none" stroke-width="1.31"  transform="translate(50.2 35.8) rotate(356.6) scale(1.65 1.52)" />
<path d="M 10.4 53.8 C 15.5 48.2, 76.5 37.8, 85.5 35.8 C 80.5 32.1, 22.7 17.6, 12.3 30.4 C 2.1 19.2, 34.9 93.2, 44.9 85.7 C 37.8 75.4, 95.5 82.6, 80.6 84.9 C 71.4 84.1, 22.3 79.1, 34.4 84.2 C 53.6 75.1, 78.2 97.5, 83.6 86.4 C 98.0 82.8, 12.3 5.1, 4.8 3.2 Z" fill="hsl(144, 86%, 72%)" fill-opacity="0.27" stroke="none" stroke-width="4.86"  transform="translate(76.3 12.5) rotate(220.9) scale(1.13 1.15)" />
<path d="M 8.6 69.1 C 0.0 54.1, 37.7 99.0, 34.6 95.0 C 42.5 76.7, 64.2 74.4, 70.0 85.6 C 60.6 87.1, 85.5 8.9, 82.8 1.3 C 73.4 0.0, 20.8 11.7, 11.1 15.7 C 5.1 32.9, 35.4 99.5, 38.1 93.2 C 32.3 100.0, 0.0 51.3, 1.9 64.0 C 20.6 81.0, 100.0 67.7, 96.3 77.6 C 100.0 93.1, 78.9 13.5, 71.2 4.9 C 69.0 6.5, 46.3 0.0, 45.6 4.1 Z" fill="hsl(144, 86%, 72%)" fill-opacity="0.92" stroke="none" stroke-width="2.53"  transform="translate(81.6 8.3) rotate(46.3) scale(0.75 1.20)" />
<path d="M 33.3 75.1 C 21.6 83.9, 54.2 51.4, 64.0 60.8 C 63.2 61.4, 90.2 35.5, 92.2 21.7 C 100.0 4.3, 99.8 10.0, 89.7 8.5 C 86.4 12.4, 97.5 75.8, 94.3 80.0 C 89.9 74.4, 84.7 67.8, 78.3 72.8 C 77.4 91.4, 59.6 76.6, 59.7 84.7 C 58.6 88.5, 22.7 100.0, 18.2 91.4 C 22.6 100.0, 22.6 45.9, 24.8 52.3 Z" fill="none" fill-opacity="0.81" stroke="hsl(183, 71%, 60%)" stroke-width="4.02"  transform="translate(20.6 0.1) rotate(36.6) scale(0.93 1.42)" />
<path d="M 18.2 18.5 C 29.1 38.5, 30.5 38.7, 19.1 52.4 C 23.7 54.2, 1.6 23.8, 2.1 8.8 C 3.4 14.8, 30.6 39.2, 25.8 47.6 C 25.0 57.7, 48.8 2.9, 47.3 9.0 C 58.1 25.4, 72.7 37.9, 74.3 41.5 C 71.2 57.7, 29.6 11.1, 39.9 15.4 Z" fill="none" fill-opacity="0.55" stroke="hsl(86, 72%, 68%)" stroke-width="1.67"  transform="translate(86.8 65.9) rotate(337.2) scale(1.71 0.97)" />
<rect x="44.8" y="50.8" width="30.3" height="36.5" rx="5.7" fill="none" fill-opacity="0.53"   transform="translate(81.6 68.1) rotate(297.1) scale(0.71 1.82)" />
<path d="M 57.5 47.5 C 73.7 43.8, 42.7 86.6, 43.9 73.9 C 39.3 85.6, 24.4 99.8, 22.0 87.2 C 18.4 90.9, 37.5 100.0, 33.2 95.7 C 27.0 85.1, 72.7 72.6, 77.9 87.2 C 58.7 97.4, 100.0 0.0, 97.7 6.4 C 100.0 5.0, 34.1 82.7, 42.5 83.1 C 28.5 75.0, 79.4 16.9, 79.1 27.4 C 72.9 11.5, 11.6 27.6, 19.2 21.7 C 6.1 4.1, 27.4 76.7, 40.1 68.1 Z" fill="none" fill-opacity="0.44" stroke="hsl(40, 53%, 69%)" stroke-width="3.87"   />
<rect x="23.5" y="23.4" width="31.3" height="23.1" rx="0" fill="hsl(106, 75%, 59%)" fill-opacity="0.95"   transform="translate(41.7 22.9) rotate(161.6) scale(1.99 0.91)" />
<path d="M 66.6 12.7 C 53.7 30.9, 44.1 16.4, 30.0 28.8 C 49.2 9.4, 14.8 15.9, 6.4 1.2 C 26.3 0.0, 62.9 81.3, 49.7 78.4 C 49.2 69.4, 74.7 82.2, 70.9 67.7 C 85.3 52.5, 29.1 66.7, 37.4 52.6 C 34.0 39.5, 87.3 54.0, 91.7 47.2 C 78.5 28.5, 0.0 47.9, 1.9 35.1 C 12.7 18.4, 49.5 46.4, 57.1 51.9 Z" fill="none" fill-opacity="0.77" stroke="hsl(290, 83%, 63%)" stroke-width="2.74"  transform="translate(8.8 61.3) rotate(19.1) scale(1.59 0.93)" />
<rect x="21.0" y="68.9" width="42.1" height="16.2" rx="0" fill="none" fill-opacity="0.50"   transform="translate(98.3 42.4) rotate(296.6) scale(1.38 1.13)" />
<path d="M 83.0 21.6 C 73.8 14.6, 49.2 73.8, 35.4 84.3 C 26.1 93.3, 77.7 87.5, 71.3 82.6 C 67.2 86.3, 50.8 16.6, 55.0 17.2 C 47.7 18.0, 88.2 2.5, 96.5 13.9 C 88.5 26.3, 95.8 28.3, 96.1 16.2 C 83.2 24.1, 0.0 33.6, 3.5 29.7 C 20.2 41.2, 31.3 0.0, 26.2 8.0 Z" fill="hsl(104, 72%, 65%)" fill-opacity="0.93" stroke="none" stroke-width="1.18"  transform="translate(56.0 46.4) rotate(9.5) scale(0.60 0.72)" />
<path d="M 80.3 92.9 C 92.8 100.0, 73.9 21.0, 69.6 7.4 C 64.2 5.9, 83.8 58.5, 89.6 50.8 C 92.2 62.3, 20.5 22.0, 34.9 36.0 C 30.1 20.8, 61.2 68.6, 46.5 79.6 C 30.1 80.7, 22.0 93.6, 21.3 91.9 C 38.0 81.8, 20.5 48.6, 6.2 34.3 Z" fill="hsl(83, 65%, 44%)" fill-opacity="0.94" stroke="none" stroke-width="1.13"  transform="translate(21.7 57.2) rotate(73.4) scale(1.37 0.80)" />
<path d="M 25.9 91.3 C 7.1 75.2, 50.5 35.0, 53.5 48.3 C 48.2 54.0, 21.9 0.0, 36.2 0.2 C 42.5 0.0, 3.3 20.4, 3.0 21.7 C 14.5 34.2, 63.3 84.5, 59.4 87.7 C 66.9 72.5, 44.1 28.2, 52.9 14.0 C 64.0 26.1, 17.0 78.2, 20.5 80.7 C 2.5 88.0, 21.2 8.6, 33.1 0.7 C 37.9 0.0, 16.8 86.4, 27.6 86.8 " fill="none" fill-opacity="0.37" stroke="hsl(290, 83%, 63%)" stroke-width="2.61"  transform="translate(39.2 76.0) rotate(142.2) scale(0.91 0.99)" />
<path d="M 59.8 80.2 C 51.0 100.0, 100.0 77.3, 96.2 66.4 C 100.0 81.2, 15.1 64.0, 10.9 62.2 C 7.6 48.6, 47.7 45.8, 33.3 53.4 C 41.2 34.5, 40.7 17.2, 37.8 19.2 C 32.3 0.1, 100.0 58.9, 94.3 73.3 C 100.0 87.6, 74.9 0.0, 77.0 12.1 C 68.2 18.1, 97.3 22.5, 97.1 25.0 C 97.5 30.8, 34.0 20.4, 24.8 6.3 C 36.8 6.6, 0.0 53.1, 4.7 41.2 C 1.1 49.0, 80.3 80.9, 79.8 76.8 Z" fill="none" fill-opacity="0.93" stroke="hsl(290, 83%, 63%)" stroke-width="1.69"  transform="translate(45.0 74.5) rotate(123.5) scale(1.69 1.33)" />
<circle cx="94.5" cy="1.5" r="4.6" fill="url(#g2)" fill-opacity="0.81"  transform="translate(31.3 67.1) rotate(298.2) scale(1.89 0.58)" />
<rect x="20.7" y="77.6" width="37.8" height="15.0" rx="0" fill="none" fill-opacity="0.70"   transform="translate(59.1 8.4) rotate(327.9) scale(1.36 1.69)" />
<rect x="29.7" y="23.7" width="27.9" height="35.4" rx="11.1" fill="hsl(104, 72%, 65%)" fill-opacity="0.33"   transform="translate(72.1 99.5) rotate(243.7) scale(1.74 1.53)" />
<path d="M 3.3 77.8 C 0.0 68.4, 42.9 93.4, 38.5 90.6 C 23.4 72.7, 49.6 16.3, 45.3 15.6 C 61.7 23.8, 1.0 100.0, 5.8 94.2 C 0.0 87.8, 35.7 77.6, 33.5 67.6 C 14.4 80.7, 97.5 71.8, 90.9 72.0 C 100.0 72.7, 73.0 13.1, 87.9 17.5 C 100.0 0.0, 26.9 36.2, 40.9 38.7 C 34.3 56.5, 54.1 43.4, 45.0 43.6 C 25.1 25.7, 23.5 58.0, 21.8 63.2 Z" fill="hsl(86, 72%, 68%)" fill-opacity="0.92" stroke="none" stroke-width="3.76"   />
<rect x="37.1" y="13.1" width="36.3" height="29.3" rx="10.3" fill="none" fill-opacity="0.70"   transform="translate(75.6 42.6) rotate(159.1) scale(1.41 0.76)" />
<path d="M 7.2 8.8 C 16.9 19.8, 89.6 50.0, 82.3 63.7 C 85.0 61.7, 87.6 79.8, 77.4 81.7 C 70.2 79.7, 65.3 29.1, 71.1 38.4 C 67.1 57.8, 54.9 26.2, 64.1 36.2 C 64.1 37.7, 21.9 61.7, 25.7 62.5 C 38.7 78.5, 48.6 72.9, 35.3 87.2 C 44.1 85.8, 12.9 89.6, 2.5 91.1 C 0.0 80.9, 76.5 51.4, 86.7 63.1 Z" fill="hsl(322, 74%, 44%)" fill-opacity="0.43" stroke="none" stroke-width="1.69" filter="url(#f1)" transform="translate(2.0 82.4) rotate(268.8) scale(1.52 1.00)" />
<path d="M 16.7 58.7 C 7.5 54.0, 22.4 45.6, 22.8 53.1 C 16.3 55.0, 21.4 75.0, 10.9 77.4 C 30.2 70.9, 87.6 83.8, 91.1 88.8 C 78.2 75.1, 97.3 39.4, 91.6 49.3 C 100.0 59.8, 68.7 82.9, 68.9 95.5 C 75.1 86.4, 34.1 40.0, 41.2 50.4 Z" fill="hsl(83, 65%, 44%)" fill-opacity="0.83" stroke="none" stroke-width="3.23"   />
<circle cx="98.0" cy="63.2" r="3.7" fill="url(#g0)" fill-opacity="0.82"  transform="translate(86.0 36.4) rotate(5.4) scale(0.54 0.89)" />
<rect x="14.5" y="55.6" width="32.2" height="12.7" rx="0" fill="none" fill-opacity="0.79"    />
<rect x="33.3" y="36.0" width="28.7" height="12.4" rx="20.0" fill="hsl(104, 72%, 65%)" fill-opacity="0.43"    />
<path d="M 99.7 3.2 C 88.0 10.3, 100.0 7.9, 89.2 11.3 C 100.0 24.3, 100.0 61.2, 96.0 68.2 C 79.1 63.0, 46.3 0.0, 35.0 0.6 C 26.8 4.9, 51.1 43.2, 51.1 57.7 C 53.8 77.4, 71.1 83.2, 63.8 79.3 C 77.0 82.8, 65.7 45.2, 69.3 32.0 C 74.2 16.5, 54.4 22.3, 51.5 23.6 C 62.4 27.8, 53.0 100.0, 40.5 97.8 C 38.2 90.3, 12.0 44.8, 26.8 54.5 Z" fill="hsl(83, 65%, 44%)" fill-opacity="0.98" stroke="none" stroke-width="1.49" filter="url(#f1)" transform="translate(38.4 83.5) rotate(167.6) scale(0.50 0.57)" />
<path d="M 30.7 76.1 C 43.5 86.5, 0.0 82.0, 9.4 68.0 C 3.7 72.1, 57.6 65.3, 60.8 58.8 C 57.2 58.9, 51.2 72.0, 36.4 77.3 C 44.5 88.9, 86.0 0.0, 72.1 0.9 C 69.2 9.3, 92.4 35.7, 82.6 28.7 C 77.5 18.2, 29.7 34.0, 42.4 42.3 C 31.4 30.7, 48.4 43.5, 52.7 44.9 C 33.5 51.6, 36.3 63.0, 35.8 64.7 Z" fill="hsl(86, 72%, 68%)" fill-opacity="0.31" stroke="none" stroke-width="0.80"  transform="translate(73.3 84.4) rotate(251.4) scale(1.83 0.93)" />
<path d="M 39.4 77.1 C 29.7 86.4, 70.8 79.2, 81.2 83.4 C 72.3 77.2, 58.8 4.3, 62.0 18.5 C 78.1 16.6, 81.4 85.8, 78.9 94.9 C 80.2 77.3, 94.6 89.3, 90.0 89.4 C 100.0 94.4, 26.1 96.9, 26.1 97.7 C 38.3 95.3, 55.5 59.8, 69.8 54.6 Z" fill="hsl(242, 72%, 49%)" fill-opacity="0.70" stroke="none" stroke-width="2.04"  transform="translate(94.0 26.4) rotate(116.4) scale(0.54 1.22)" />
<rect x="21.8" y="31.1" width="47.7" height="34.4" rx="11.0" fill="none" fill-opacity="0.55"   transform="translate(3.3 62.2) rotate(9.1) scale(0.70 0.62)" />
<path d="M 44.5 15.6 C 44.2 4.2, 60.2 21.9, 56.2 27.0 C 49.1 43.4, 89.9 70.3, 95.0 56.0 C 93.7 53.5, 76.5 34.9, 85.4 36.8 C 76.0 56.8, 27.5 85.6, 24.3 80.9 C 23.3 91.0, 2.7 0.5, 14.2 4.1 C 25.5 16.1, 60.8 22.1, 53.5 23.9 C 69.0 38.3, 0.0 11.7, 12.8 7.1 " fill="none" fill-opacity="0.39" stroke="hsl(183, 71%, 60%)" stroke-width="3.10"   />
<rect x="72.1" y="8.0" width="27.8" height="21.3" rx="0" fill="none" fill-opacity="0.55"    />
<path d="M 2.2 98.1 C 0.3 100.0, 28.5 30.7, 18.8 15.9 C 18.0 28.6, 15.4 66.3, 9.5 76.3 C 10.7 85.7, 24.5 95.0, 13.3 99.6 C 29.7 96.1, 12.9 89.0, 12.3 93.9 C 12.6 78.6, 74.0 57.2, 79.0 69.4 C 79.7 55.9, 16.0 35.1, 25.9 20.3 C 40.2 13.2, 60.8 62.9, 75.3 62.3 C 73.2 67.3, 22.3 3.3, 32.7 13.1 C 35.6 6.6, 17.6 46.7, 13.7 59.3 C 24.1 75.7, 52.2 55.6, 57.3 49.2 Z" fill="none" fill-opacity="0.53" stroke="hsl(242, 72%, 49%)" stroke-width="2.14"  transform="translate(0.9 90.1) rotate(356.6) scale(1.60 0.96)" />
<path d="M 9.5 52.0 C 5.3 39.1, 58.9 97.3, 70.9 84.7 C 53.5 84.6, 95.4 78.7, 90.3 74.6 C 100.0 73.3, 24.6 76.5, 25.7 74.8 C 17.5 67.8, 80.6 16.6, 67.4 29.2 C 63.0 26.3, 18.6 42.9, 33.5 30.1 C 39.6 26.8, 100.0 79.2, 98.8 89.5 C 100.0 82.0, 73.3 93.4, 67.5 80.7 C 52.8 73.0, 82.6 44.6, 97.4 35.8 C 77.6 19.4, 45.4 92.4, 37.8 84.3 " fill="none" fill-opacity="0.71" stroke="hsl(83, 65%, 44%)" stroke-width="0.96" filter="url(#f1)" transform="translate(10.3 34.2) rotate(29.9) scale(1.85 1.55)" />
<path d="M 49.5 31.6 C 40.8 45.3, 0.0 20.5, 3.6 13.2 C 0.0 6.7, 60.3 57.4, 72.2 68.9 C 65.9 87.0, 66.5 95.5, 62.6 83.5 C 74.7 70.2, 65.0 59.7, 64.4 66.3 C 45.6 60.2, 0.0 86.3, 9.0 86.8 C 0.0 77.2, 42.4 7.8, 39.0 17.5 C 19.4 1.9, 43.6 80.9, 50.9 80.4 C 62.6 70.8, 20.3 58.5, 27.0 44.9 C 28.4 54.9, 78.6 38.5, 71.9 43.3 Z" fill="none" fill-opacity="0.59" stroke="hsl(290, 83%, 63%)" stroke-width="4.94" filter="url(#f1)" transform="translate(51.1 87.7) rotate(286.6) scale(0.63 1.90)" />
<path d="M 55.4 74.9 C 66.0 59.7, 62.1 31.2, 65.0 23.7 C 46.7 9.1, 91.0 30.2, 85.2 42.7 C 96.8 36.1, 82.0 85.4, 72.0 76.6 C 75.7 71.5, 27.8 83.5, 17.4 96.0 C 13.3 100.0, 27.8 96.9, 37.5 85.8 C 32.8 77.8, 14.9 29.1, 1.3 30.0 Z" fill="hsl(106, 75%, 59%)" fill-opacity="0.49" stroke="none" stroke-width="2.30" filter="url(#f1)" transform="translate(98.1 14.4) rotate(86.9) scale(1.45 1.71)" />
<path d="M 85.6 77.2 C 87.4 94.0, 79.4 12.8, 85.1 21.8 C 94.2 22.3, 70.0 100.0, 58.9 93.5 C 67.0 88.4, 78.4 53.2, 67.2 42.8 C 86.4 23.8, 53.4 71.0, 43.5 62.9 C 60.6 67.8, 56.2 64.2, 60.0 71.1 C 40.9 64.2, 36.2 88.5, 31.5 84.8 C 34.8 87.3, 21.7 34.4, 11.8 23.1 C 31.6 13.0, 73.3 50.0, 76.3 63.9 C 63.8 79.7, 67.3 55.8, 59.3 68.7 C 39.6 75.1, 89.7 25.6, 92.8 13.5 Z" fill="hsl(290, 83%, 63%)" fill-opacity="0.55" stroke="none" stroke-width="3.73"  transform="translate(18.7 50.9) rotate(158.7) scale(1.47 0.77)" />
<path d="M 27.6 48.6 C 19.8 68.3, 81.2 79.8, 90.2 76.1 C 77.5 71.3, 10.3 58.0, 7.0 72.6 C 0.0 87.7, 64.7 92.1, 77.2 96.7 C 65.1 94.0, 16.4 0.0, 31.2 9.6 C 31.2 0.0, 37.8 73.6, 38.8 64.4 C 32.6 63.6, 43.8 50.8, 30.5 62.8 C 46.4 80.1, 22.9 72.6, 34.9 70.1 C 36.4 82.5, 44.0 0.0, 39.7 3.8 Z" fill="hsl(290, 83%, 63%)" fill-opacity="0.70" stroke="none" stroke-width="2.41"  transform="translate(15.8 48.8) rotate(42.9) scale(1.73 0.57)" />
<rect x="42.1" y="2.0" width="43.8" height="20.6" rx="0" fill="none" fill-opacity="0.92"   transform="translate(22.6 81.9) rotate(14.9) scale(1.40 0.72)" />
<path d="M 4.6 37.3 C 24.1 42.6, 76.3 63.2, 65.5 74.6 C 73.0 88.5, 79.3 62.8, 84.7 53.3 C 97.0 70.9, 18.5 80.9, 8.3 79.9 C 0.0 92.8, 83.6 38.5, 93.2 30.4 C 73.3 48.0, 87.2 94.1, 74.7 93.6 C 68.3 100.0, 90.1 91.7, 76.0 78.6 C 77.7 71.6, 23.9 10.8, 17.1 24.2 Z" fill="none" fill-opacity="0.88" stroke="hsl(290, 83%, 63%)" stroke-width="5.26"   />
<path d="M 17.2 94.4 C 0.4 95.1, 25.0 62.3, 18.6 65.6 C 1.6 52.7, 39.2 37.6, 52.1 28.8 C 71.7 36.5, 18.8 69.7, 15.6 71.9 C 0.0 66.7, 76.6 82.6, 71.3 84.7 C 70.7 66.3, 28.6 91.9, 23.3 96.3 C 27.2 94.1, 24.4 3.8, 17.2 0.8 Z" fill="none" fill-opacity="0.89" stroke="hsl(322, 74%, 44%)" stroke-width="2.15"  transform="translate(13.7 42.6) rotate(355.8) scale(1.84 1.87)" />
<path d="M 58.9 40.8 C 49.6 28.2, 73.0 17.4, 82.0 24.1 C 86.5 16.3, 0.0 85.4, 9.8 75.8 C 0.0 78.9, 25.7 66.6, 31.2 62.2 C 17.4 43.8, 81.2 65.7, 82.7 61.7 C 87.3 49.2, 11.9 63.5, 17.1 50.8 C 0.1 61.4, 100.0 45.4, 97.3 34.6 C 100.0 24.0, 57.1 40.6, 56.1 41.9 C 52.2 30.4, 0.0 21.8, 4.0 33.7 Z" fill="hsl(40, 53%, 69%)" fill-opacity="0.31" stroke="none" stroke-width="3.17"  transform="translate(93.1 65.4) rotate(121.4) scale(0.98 1.56)" />
<path d="M 30.8 53.4 C 33.5 49.0, 21.6 100.0, 22.9 95.5 C 38.7 100.0, 89.3 88.5, 95.8 97.3 C 92.3 100.0, 48.8 90.6, 40.8 84.3 C 36.0 75.9, 87.0 36.6, 75.1 48.0 C 93.4 61.0, 29.0 79.1, 24.2 72.2 C 31.0 88.3, 12.1 90.8, 16.7 94.8 Z" fill="hsl(104, 72%, 65%)" fill-opacity="0.99" stroke="none" stroke-width="1.22"  transform="translate(26.3 7.8) rotate(36.5) scale(0.97 1.75)" />
<circle cx="32.7" cy="72.9" r="0.0" fill="url(#g2)" fill-opacity="0.68"   />
<rect x="13.7" y="53.0" width="21.5" height="29.1" rx="0" fill="hsl(2, 82%, 55%)" fill-opacity="0.79"   transform="translate(56.3 0.4) rotate(311.6) scale(1.56 0.76)" />
<path d="M 60.6 12.5 C 45.6 22.6, 36.0 69.0, 39.6 81.2 C 24.9 65.6, 12.9 19.4, 16.3 33.2 C 2.0 24.8, 58.9 50.4, 48.9 40.6 C 36.7 46.4, 71.0 65.4, 75.3 73.2 C 73.5 54.4, 13.3 88.4, 1.5 85.4 C 0.0 73.8, 46.5 86.9, 44.5 97.5 C 60.4 84.3, 33.0 51.1, 32.8 57.1 C 48.5 55.0, 20.0 85.6, 16.2 93.8 Z" fill="hsl(151, 70%, 62%)" fill-opacity="0.73" stroke="none" stroke-width="1.70"  transform="translate(6.7 99.8) rotate(324.7) scale(1.96 0.59)" />
<rect x="0.6" y="33.1" width="34.8" height="27.7" rx="3.7" fill="none" fill-opacity="0.79"   transform="translate(23.4 89.3) rotate(236.2) scale(0.71 1.46)" />
<path d="M 1.1 8.1 C 3.8 0.0, 100.0 32.0, 96.9 17.1 C 87.4 18.2, 77.6 100.0, 89.5 96.9 C 72.8 100.0, 72.6 4.9, 75.8 3.6 C 76.0 12.9, 2.9 48.7, 2.7 53.2 C 0.0 46.6, 72.8 32.8, 63.4 18.2 C 81.2 36.0, 87.6 8.7, 78.8 8.6 C 60.1 4.1, 81.5 8.4, 85.9 10.6 C 85.1 0.0, 100.0 69.9, 99.4 56.2 Z" fill="none" fill-opacity="0.28" stroke="hsl(104, 72%, 65%)" stroke-width="5.17"  transform="translate(44.6 29.2) rotate(43.3) scale(1.98 1.42)" />
<rect x="47.3" y="16.3" width="47.5" height="38.3" rx="17.1" fill="hsl(40, 53%, 69%)" fill-opacity="0.38"   transform="translate(22.1 45.8) rotate(65.4) scale(1.04 1.03)" />
<circle cx="31.2" cy="56.2" r="13.3" fill="url(#g0)" fill-opacity="0.76"  transform="translate(70.3 68.1) rotate(121.6) scale(0.82 0.75)" />
<path d="M 62.6 78.3 C 46.7 72.7, 15.3 96.7, 6.5 98.0 C 0.0 100.0, 14.5 4.5, 8.3 14.1 C 22.4 0.0, 28.0 26.6, 26.1 22.5 C 36.1 27.3, 32.5 5.2, 34.5 4.6 C 39.7 0.0, 18.4 18.2, 7.0 7.3 C 12.5 18.6, 82.2 0.0, 83.6 0.7 C 99.0 0.0, 96.4 37.0, 90.9 47.1 C 96.2 34.9, 34.0 37.7, 27.4 41.8 C 41.5 54.6, 43.9 66.9, 28.9 80.8 Z" fill="hsl(104, 72%, 65%)" fill-opacity="0.27" stroke="none" stroke-width="4.25"  transform="translate(7.8 83.0) rotate(310.3) scale(1.90 0.65)" />
<rect x="29.1" y="13.1" width="37.9" height="14.3" rx="19.9" fill="none" fill-opacity="0.53"   transform="translate(86.4 0.3) rotate(62.5) scale(1.25 1.16)" />
<rect x="28.7" y="75.7" width="41.2" height="21.8" rx="0" fill="hsl(151, 70%, 62%)" fill-opacity="0.29"   transform="translate(26.2 80.9) rotate(84.9) scale(0.85 1.59)" />
<path d="M 11.4 11.2 C 0.0 0.0, 33.4 62.9, 36.1 72.5 C 23.8 87.2, 3.2 85.7, 3.4 96.9 C 1.0 93.7, 70.8 33.7, 74.1 26.0 C 63.9 37.7, 66.4 95.6, 54.3 95.5 C 66.7 100.0, 86.6 33.3, 72.3 42.3 C 86.6 48.9, 87.1 62.2, 93.5 50.3 Z" fill="hsl(290, 83%, 63%)" fill-opacity="0.66" stroke="none" stroke-width="3.78"  transform="translate(66.9 61.0) rotate(162.3) scale(0.51 1.99)" />
<circle cx="61.4" cy="75.9" r="9.7" fill="hsl(40, 53%, 69%)" fill-opacity="0.80"  transform="translate(34.6 33.4) rotate(58.4) scale(0.77 1.02)" />
<circle cx="61.7" cy="92.7" r="15.6" fill="hsl(86, 72%, 68%)" fill-opacity="0.49"  transform="translate(58.0 79.9) rotate(74.6) scale(1.99 1.33)" />
<path d="M 8.2 77.4 C 22.6 79.1, 3.4 27.4, 7.2 15.4 C 0.0 26.8, 100.0 96.0, 91.8 89.9 C 98.7 100.0, 17.6 28.3, 16.8 36.6 C 1.2 52.2, 50.3 73.2, 52.1 80.1 C 32.6 83.1, 85.3 100.0, 92.6 98.6 C 100.0 79.7, 41.2 0.0, 32.6 2.9 Z" fill="none" fill-opacity="0.96" stroke="hsl(2, 82%, 55%)" stroke-width="4.38"  transform="translate(27.5 41.4) rotate(115.4) scale(0.89 1.90)" />
<path d="M 95.2 31.3 C 100.0 42.5, 26.3 48.4, 30.4 45.3 C 16.4 38.8, 69.9 91.5, 72.8 77.0 C 53.7 57.0, 42.5 18.4, 31.6 6.6 C 32.6 19.5, 51.9 27.1, 58.6 13.3 C 53.0 11.9, 51.2 16.0, 46.9 9.1 C 66.3 23.7, 90.9 26.0, 92.0 24.0 C 100.0 43.5, 52.1 62.9, 53.7 66.5 C 63.6 59.3, 29.8 94.4, 23.3 90.2 Z" fill="hsl(242, 72%, 49%)" fill-opacity="0.70" stroke="none" stroke-width="2.28"  transform="translate(96.9 29.5) rotate(307.4) scale(0.51 0.64)" />
<rect x="41.6" y="7.7" width="33.8" height="27.7" rx="0" fill="none" fill-opacity="0.76" stroke="hsl(2, 82%, 55%)" stroke-width="2.1"  transform="translate(45.2 8.1) rotate(188.1) scale(0.67 1.73)" />
<rect x="16.1" y="4.3" width="45.6" height="16.1" rx="4.3" fill="hsl(290, 83%, 63%)" fill-opacity="0.87" stroke="hsl(2, 82%, 55%)" stroke-width="4.8"  transform="translate(25.0 52.1) rotate(117.5) scale(1.10 1.91)" />
<rect x="29.5" y="12.0" width="34.2" height="39.1" rx="16.5" fill="hsl(144, 86%, 72%)" fill-opacity="0.51"   transform="translate(92.8 49.7) rotate(354.8) scale(1.31 0.60)" />
<circle cx="87.5" cy="64.9" r="1.2" fill="hsl(144, 86%, 72%)" fill-opacity="0.68"  transform="translate(48.1 36.5) rotate(253.9) scale(1.52 1.15)" />
<path d="M 64.9 18.9 C 69.7 0.0, 75.9 92.9, 66.7 100.0 C 73.9 100.0, 6.6 32.6, 17.4 33.3 C 36.4 45.9, 51.5 62.9, 48.9 51.8 C 54.2 39.6, 13.8 92.1, 6.7 81.0 C 3.4 66.8, 82.2 8.6, 68.4 14.5 C 66.9 18.4, 12.3 10.3, 14.5 1.5 C 0.0 10.3, 15.5 41.5, 8.1 53.5 C 0.0 42.7, 67.6 53.3, 81.5 39.4 C 79.1 49.4, 3.4 51.0, 5.9 61.6 C 0.0 79.3, 41.7 35.3, 45.6 27.1 Z" fill="hsl(322, 74%, 44%)" fill-opacity="0.65" stroke="none" stroke-width="2.54"  transform="translate(78.3 25.5) rotate(305.9) scale(1.98 1.48)" />
<rect x="6.7" y="28.3" width="30.6" height="23.2" rx="17.7" fill="none" fill-opacity="0.88" stroke="hsl(86, 72%, 68%)" stroke-width="2.1"  transform="translate(61.6 6.4) rotate(351.9) scale(1.47 1.63)" />
<circle cx="95.1" cy="11.3" r="2.1" fill="url(#g2)" fill-opacity="0.84"  transform="translate(79.0 15.8) rotate(259.5) scale(1.39 1.78)" />
<path d="M 61.6 11.1 C 68.9 0.0, 52.3 10.0, 63.4 2.9 C 74.4 0.0, 1.3 27.2, 16.1 29.6 C 24.6 49.0, 41.9 83.5, 29.6 88.5 C 15.2 75.1, 41.9 60.1, 34.9 73.1 C 36.4 54.8, 25.6 32.6, 35.6 25.1 C 34.1 27.7, 56.6 20.1, 68.1 9.6 C 67.8 19.9, 70.3 27.2, 59.1 34.7 Z" fill="none" fill-opacity="0.79" stroke="hsl(106, 75%, 59%)" stroke-width="2.62"  transform="translate(86.3 45.0) rotate(81.6) scale(1.42 0.71)" />
<rect x="20.7" y="70.0" width="41.0" height="20.7" rx="0" fill="hsl(183, 71%, 60%)" fill-opacity="0.97"  filter="url(#f1)" transform="translate(86.3 9.9) rotate(269.2) scale(0.62 1.42)" />
<path d="M 93.1 73.1 C 80.7 81.7, 18.5 9.9, 22.5 9.6 C 3.8 4.7, 85.2 55.3, 86.9 70.3 C 74.8 78.4, 19.9 100.0, 16.5 100.0 C 23.1 100.0, 0.0 57.5, 4.6 44.5 C 13.0 51.6, 29.7 48.0, 43.6 44.5 C 28.9 53.4, 26.4 39.3, 24.0 46.7 " fill="none" fill-opacity="0.86" stroke="hsl(106, 75%, 59%)" stroke-width="4.39"  transform="translate(6.1 61.9) rotate(318.9) scale(0.64 1.02)" />
<circle cx="98.5" cy="88.6" r="2.1" fill="url(#g2)" fill-opacity="0.84"  transform="translate(7.4 51.5) rotate(233.6) scale(0.81 0.80)" />
<circle cx="68.6" cy="82.9" r="17.3" fill="hsl(106, 75%, 59%)" fill-opacity="0.66"  transform="translate(92.9 81.0) rotate(138.0) scale(0.88 0.54)" />
<path d="M 1.9 8.2 C 7.8 6.3, 16.1 63.3, 7.2 58.6 C 0.0 44.0, 11.2 0.0, 2.5 3.7 C 3.6 0.0, 93.3 4.1, 96.9 15.1 C 100.0 9.4, 83.3 15.6, 96.7 17.8 C 100.0 29.4, 82.9 80.6, 73.0 85.9 C 60.3 100.0, 20.1 63.3, 18.8 49.2 C 36.3 37.2, 0.0 17.9, 6.6 24.0 C 0.0 23.4, 100.0 54.1, 99.8 46.9 C 100.0 55.5, 59.9 25.4, 49.1 28.3 Z" fill="hsl(106, 75%, 59%)" fill-opacity="0.87" stroke="none" stroke-width="3.24"  transform="translate(68.7 55.4) rotate(254.2) scale(0.62 1.68)" />
<path d="M 74.6 23.4 C 87.9 10.1, 75.4 21.8, 83.3 30.4 C 94.4 15.8, 72.5 33.4, 61.9 28.0 C 66.7 26.1, 48.4 0.0, 55.1 12.6 C 43.3 7.7, 64.9 71.9, 58.1 82.0 C 41.2 66.6, 88.0 8.9, 90.8 18.3 C 79.0 25.3, 74.8 78.8, 76.2 71.9 C 61.7 73.8, 63.9 69.0, 51.3 64.8 C 40.5 79.7, 30.3 100.0, 20.9 91.4 Z" fill="hsl(104, 72%, 65%)" fill-opacity="0.74" stroke="none" stroke-width="5.18"   />
<path d="M 78.1 64.3 C 76.1 82.5, 76.4 17.8, 83.8 22.2 C 82.0 15.6, 26.5 36.8, 21.3 28.9 C 27.0 44.7, 78.6 82.0, 88.2 69.9 C 96.5 64.8, 68.3 9.5, 63.2 15.5 C 66.4 21.9, 79.4 69.5, 86.7 81.3 C 86.7 74.4, 7.9 26.7, 22.4 17.8 C 22.5 16.4, 29.1 83.9, 31.9 78.4 C 21.2 70.1, 21.9 12.4, 24.9 0.0 Z" fill="hsl(290, 83%, 63%)" fill-opacity="0.29" stroke="none" stroke-width="4.39"  transform="translate(13.8 3.3) rotate(273.7) scale(1.42 1.09)" />
<g opacity="0.067">
<rect x="0" y="0" width="1" height="100" fill="black" />
<rect x="22" y="0" width="1" height="100" fill="black" />
<rect x="44" y="0" width="1" height="100" fill="black" />
<rect x="66" y="0" width="1" height="100" fill="black" />
<rect x="88" y="0" width="1" height="100" fill="black" />
<rect x="0" y="0" width="100" height="1" fill="black" />
<rect x="0" y="22" width="100" height="1" fill="black" />
<rect x="0" y="44" width="100" height="1" fill="black" />
<rect x="0" y="66" width="100" height="1" fill="black" />
<rect x="0" y="88" width="100" height="1" fill="black" />
</g>

</svg>
