<?xml version="1.0" encoding="UTF-8"?>
<svg xmlns="http://www.w3.org/2000/svg" width="100" height="100" viewBox="0 0 100 100">
<defs>
<linearGradient id="g0" x1="0%" y1="0%" x2="100%" y2="100%">
<stop offset="0.0%" stop-color="hsl(106, 75%, 59%)" />
<stop offset="33.3%" stop-color="hsl(183, 71%, 60%)" />
<stop offset="66.7%" stop-color="hsl(242, 72%, 49%)" />
<stop offset="100.0%" stop-color="hsl(322, 74%, 44%)" />
</linearGradient>
<linearGradient id="g1" x1="0%" y1="0%" x2="100%" y2="100%">
<stop offset="0.0%" stop-color="hsl(290, 83%, 63%)" />
<stop offset="33.3%" stop-color="hsl(2, 82%, 55%)" />
<stop offset="66.7%" stop-color="hsl(86, 72%, 68%)" />
<stop offset="100.0%" stop-color="hsl(83, 65%, 44%)" />
</linearGradient>
<linearGradient id="g2" x1="0%" y1="0%" x2="100%" y2="100%">
<stop offset="0.0%" stop-color="hsl(40, 53%, 69%)" />
<stop offset="33.3%" stop-color="hsl(104, 72%, 65%)" />
<stop offset="66.7%" stop-color="hsl(144, 86%, 72%)" />
<stop offset="100.0%" stop-color="hsl(151, 70%, 62%)" />
</linearGradient>
</defs>

<rect x="38.4" y="51.3" width="20.3" height="23.3" rx="0" fill="none" fill-opacity="0.90"    />
<path d="M 89.5 5.2 C 79.4 7.4, 19.2 21.8, 20.7 9.1 C 11.3 2.2, 92.7 69.1, 84.6 71.9 C 67.7 88.9, 51.1 52.6, 65.7 57.1 C 71.7 50.8, 73.2 80.7, 86.8 86.6 " fill="hsl(290, 83%, 63%)" fill-opacity="0.86" stroke="none" stroke-width="1.01"  transform="translate(5.6 9.8) rotate(242.0) scale(1.44 0.84)" />
<path d="M 49.6 11.6 C 69.4 16.4, 75.1 31.9, 76.3 37.4 C 60.5 55.6, 27.6 61.0, 33.1 57.2 C 20.7 58.9, 18.3 87.9, 13.4 86.8 C 0.0 83.0, 13.7 13.5, 21.9 25.1 C 12.8 9.6, 59.4 12.5, 70.4 6.9 C 74.0 0.0, 8.1 13.6, 5.3 0.5 C 20.0 7.0, 29.2 20.8, 15.2 9.8 Z" fill="none" fill-opacity="0.49" stroke="hsl(2, 82%, 55%)" stroke-width="1.11"   />
<path d="M 77.5 78.4 C 71.4 71.9, 54.9 58.3, 40.3 72.2 C 42.2 74.4, 63.4 98.5, 54.0 97.3 C 46.9 88.4, 46.7 16.5, 32.6 31.2 C 35.4 15.1, 49.2 73.1, 60.8 72.0 C 57.3 80.3, 54.7 25.6, 66.5 16.3 C 85.0 27.6, 50.4 30.7, 64.6 29.9 C 48.2 44.4, 29.9 56.6, 27.4 49.3 Z" fill="hsl(40, 53%, 69%)" fill-opacity="0.84" stroke="none" stroke-width="0.82"  transform="translate(55.3 62.2) rotate(310.3) scale(0.65 1.11)" />
<path d="M 45.7 33.9 C 54.4 14.8, 20.1 82.0, 11.8 85.4 C 14.0 92.0, 59.1 62.9, 69.4 54.4 C 83.2 58.1, 62.3 78.5, 52.3 79.4 C 48.4 76.8, 97.8 6.3, 87.1 5.5 C 100.0 25.1, 10.1 27.5, 5.3 36.6 C 20.4 34.8, 51.8 32.8, 42.9 41.7 C 53.7 23.5, 12.8 65.5, 25.6 77.9 " fill="hsl(290, 83%, 63%)" fill-opacity="0.54" stroke="none" stroke-width="1.02"   />
<rect x="41.7" y="17.6" width="33.9" height="27.3" rx="8.1" fill="none" fill-opacity="0.44"   transform="translate(46.5 49.8) rotate(172.5) scale(1.36 1.40)" />
<rect x="2.5" y="6.3" width="21.5" height="27.4" rx="18.1" fill="hsl(322, 74%, 44%)" fill-opacity="0.29"    />
<circle cx="20.4" cy="67.9" r="1.4" fill="hsl(144, 86%, 72%)" fill-opacity="0.62"  transform="translate(96.8 87.3) rotate(291.8) scale(1.37 1.98)" />
<rect x="6.8" y="32.2" width="46.2" height="20.6" rx="14.3" fill="hsl(290, 83%, 63%)" fill-opacity="0.26" stroke="hsl(290, 83%, 63%)" stroke-width="2.3"  transform="translate(77.5 97.2) rotate(117.8) scale(0.92 1.41)" />
<path d="M 91.1 22.9 C 93.0 20.1, 76.1 70.1, 72.5 59.6 C 90.2 42.0, 58.6 33.0, 58.1 30.2 C 62.1 26.1, 73.7 24.3, 62.1 19.7 C 48.9 3.8, 11.7 58.5, 16.7 62.8 C 4.2 60.9, 0.0 23.1, 2.5 25.4 Z" fill="none" fill-opacity="0.90" stroke="hsl(83, 65%, 44%)" stroke-width="0.89"   />
<rect x="52.9" y="51.9" width="43.1" height="21.4" rx="8.8" fill="hsl(2, 82%, 55%)" fill-opacity="0.96"    />
<path d="M 68.4 28.8 C 55.4 48.2, 16.5 68.3, 7.9 65.4 C 0.0 77.4, 48.2 83.3, 57.6 79.4 C 68.6 95.8, 35.3 81.6, 50.1 85.0 Z" fill="none" fill-opacity="0.70" stroke="hsl(144, 86%, 72%)" stroke-width="1.20"   />
<path d="M 47.7 13.5 C 30.4 26.4, 67.5 100.0, 82.2 96.9 C 88.8 97.4, 79.8 24.6, 70.6 23.7 C 55.1 6.3, 100.0 71.8, 92.3 73.7 C 79.8 91.1, 83.8 7.4, 92.0 20.4 C 99.8 26.0, 85.1 50.8, 76.8 52.0 C 89.9 45.8, 72.3 19.6, 63.7 7.1 C 44.1 0.0, 34.6 22.8, 40.7 15.6 " fill="hsl(40, 53%, 69%)" fill-opacity="0.56" stroke="none" stroke-width="1.11"   />
<rect x="69.3" y="35.0" width="29.1" height="17.6" rx="11.3" fill="none" fill-opacity="0.58"   transform="translate(89.5 31.4) rotate(13.8) scale(1.34 1.47)" />
<path d="M 42.6 75.8 C 32.8 90.0, 45.5 71.7, 34.8 67.2 C 48.3 69.5, 96.2 90.6, 85.9 98.9 C 78.9 100.0, 21.6 74.8, 17.7 75.3 C 2.8 61.8, 26.6 40.0, 34.3 44.9 C 38.0 32.6, 43.5 52.6, 51.1 38.0 Z" fill="hsl(183, 71%, 60%)" fill-opacity="0.76" stroke="none" stroke-width="1.20"   />
<circle cx="92.6" cy="66.0" r="1.4" fill="hsl(2, 82%, 55%)" fill-opacity="0.95"  transform="translate(95.2 19.1) rotate(240.3) scale(1.57 0.60)" />
<path d="M 19.4 88.6 C 22.1 69.6, 0.0 7.3, 5.9 11.9 C 22.7 22.3, 32.5 11.4, 37.9 1.8 C 18.7 21.3, 79.4 35.8, 89.3 41.8 C 93.3 31.6, 44.4 3.3, 39.5 13.7 " fill="hsl(106, 75%, 59%)" fill-opacity="0.91" stroke="none" stroke-width="1.29"   />
</svg>
