<?xml version="1.0" encoding="UTF-8"?>
<svg xmlns="http://www.w3.org/2000/svg" width="100" height="100" viewBox="0 0 100 100">
<defs>
<linearGradient id="g0" x1="0%" y1="0%" x2="100%" y2="100%">
<stop offset="0.0%" stop-color="hsl(106, 75%, 59%)" />
<stop offset="33.3%" stop-color="hsl(183, 71%, 60%)" />
<stop offset="66.7%" stop-color="hsl(242, 72%, 49%)" />
<stop offset="100.0%" stop-color="hsl(322, 74%, 44%)" />
</linearGradient>
<linearGradient id="g1" x1="0%" y1="0%" x2="100%" y2="100%">
<stop offset="0.0%" stop-color="hsl(290, 83%, 63%)" />
<stop offset="33.3%" stop-color="hsl(2, 82%, 55%)" />
<stop offset="66.7%" stop-color="hsl(86, 72%, 68%)" />
<stop offset="100.0%" stop-color="hsl(83, 65%, 44%)" />
</linearGradient>
<linearGradient id="g2" x1="0%" y1="0%" x2="100%" y2="100%">
<stop offset="0.0%" stop-color="hsl(40, 53%, 69%)" />
<stop offset="33.3%" stop-color="hsl(104, 72%, 65%)" />
<stop offset="66.7%" stop-color="hsl(144, 86%, 72%)" />
<stop offset="100.0%" stop-color="hsl(151, 70%, 62%)" />
</linearGradient>
</defs>

<path d="M 63.3 11.2 C 77.7 17.1, 70.3 28.2, 66.2 29.6 C 58.3 38.4, 72.4 73.8, 79.6 62.8 C 77.6 79.7, 97.2 0.0, 87.1 9.7 C 83.1 29.3, 6.3 68.4, 21.1 63.2 Z" fill="hsl(86, 72%, 68%)" fill-opacity="0.69" stroke="none" stroke-width="0.96"  transform="translate(40.3 8.2) rotate(200.4) scale(0.60 1.92)" />
<path d="M 55.6 9.2 C 47.7 27.1, 36.3 80.0, 45.4 76.1 C 37.2 83.4, 52.8 47.5, 63.2 52.8 C 59.6 63.2, 12.1 88.3, 23.9 87.5 C 42.5 74.2, 24.8 47.8, 37.6 34.8 C 37.6 21.4, 39.2 41.9, 27.4 27.7 " fill="hsl(2, 82%, 55%)" fill-opacity="0.54" stroke="none" stroke-width="1.26"  transform="translate(28.8 41.9) rotate(237.3) scale(0.91 1.99)" />
<path d="M 29.1 35.6 C 20.7 15.8, 54.8 85.1, 56.6 81.8 C 63.0 94.6, 72.9 61.7, 75.0 70.1 C 86.1 64.3, 47.6 26.6, 59.2 23.1 C 49.9 35.8, 64.9 8.3, 50.6 16.7 " fill="none" fill-opacity="1.00" stroke="hsl(183, 71%, 60%)" stroke-width="0.91"   />
<path d="M 15.6 85.7 C 2.5 82.3, 81.4 31.4, 66.9 35.2 C 85.9 43.1, 49.4 36.7, 58.5 32.9 C 75.4 16.4, 37.7 84.3, 29.7 99.1 C 13.2 94.4, 14.2 88.5, 11.8 78.0 Z" fill="hsl(290, 83%, 63%)" fill-opacity="0.50" stroke="none" stroke-width="0.92"  transform="translate(39.9 8.6) rotate(252.5) scale(1.66 0.77)" />
<rect x="22.8" y="12.2" width="20.3" height="15.1" rx="3.2" fill="none" fill-opacity="0.66" stroke="hsl(144, 86%, 72%)" stroke-width="2.6"  transform="translate(18.9 54.0) rotate(130.4) scale(1.09 1.43)" />
<path d="M 8.0 14.1 C 24.9 8.2, 83.8 0.8, 80.6 0.0 C 89.6 11.8, 83.5 88.8, 80.9 99.4 C 95.6 100.0, 51.1 27.5, 65.5 34.9 C 82.6 15.5, 62.0 14.2, 74.0 8.4 C 65.4 11.8, 57.9 47.2, 58.7 41.1 Z" fill="hsl(83, 65%, 44%)" fill-opacity="1.00" stroke="none" stroke-width="1.01"   />
<rect x="18.3" y="5.8" width="41.8" height="31.2" rx="12.5" fill="none" fill-opacity="0.58" stroke="hsl(151, 70%, 62%)" stroke-width="1.3"  transform="translate(50.0 4.0) rotate(307.0) scale(1.12 1.77)" />
<rect x="24.3" y="14.2" width="42.0" height="24.9" rx="11.2" fill="none" fill-opacity="0.51" stroke="hsl(106, 75%, 59%)" stroke-width="3.4"   />
<path d="M 99.1 79.1 C 100.0 82.0, 26.9 65.6, 33.7 51.1 C 22.2 53.2, 91.2 0.0, 80.3 7.2 C 82.9 6.3, 41.1 53.3, 30.1 49.2 C 46.7 43.4, 43.1 64.4, 56.8 58.1 Z" fill="hsl(86, 72%, 68%)" fill-opacity="0.95" stroke="none" stroke-width="1.04"  transform="translate(80.6 78.2) rotate(127.5) scale(1.88 1.35)" />
<path d="M 79.6 43.0 C 92.7 30.6, 33.7 100.0, 29.5 96.2 C 43.5 98.1, 40.7 52.7, 34.6 49.6 C 45.3 40.2, 61.3 34.6, 64.0 20.1 C 75.3 34.7, 100.0 62.9, 92.2 59.2 C 85.9 42.8, 72.3 69.7, 68.4 66.6 C 71.1 58.0, 61.7 13.5, 71.7 16.5 " fill="hsl(242, 72%, 49%)" fill-opacity="0.84" stroke="none" stroke-width="0.85"   />
<rect x="33.3" y="50.1" width="44.3" height="27.2" rx="8.0" fill="hsl(290, 83%, 63%)" fill-opacity="0.31"   transform="translate(77.9 21.8) rotate(170.4) scale(1.87 1.32)" />
<path d="M 70.1 30.2 C 78.3 45.6, 86.3 76.9, 96.4 73.2 C 100.0 92.1, 55.4 31.5, 45.2 41.3 C 57.0 33.7, 28.8 14.9, 29.7 25.0 C 25.3 39.2, 48.1 60.6, 49.7 57.1 C 29.8 64.6, 50.9 50.3, 65.8 60.2 Z" fill="none" fill-opacity="0.73" stroke="hsl(290, 83%, 63%)" stroke-width="0.81"   />
<circle cx="71.3" cy="31.0" r="0.1" fill="hsl(106, 75%, 59%)" fill-opacity="0.49"   />
<path d="M 68.7 80.9 C 81.8 81.5, 29.7 75.4, 31.5 61.2 C 45.9 59.7, 17.0 17.8, 12.9 15.8 C 5.2 0.0, 52.0 24.8, 43.4 21.2 C 33.1 36.5, 95.1 26.3, 97.8 32.9 C 80.0 47.6, 72.6 25.9, 59.6 39.7 " fill="none" fill-opacity="0.38" stroke="hsl(242, 72%, 49%)" stroke-width="0.99"  transform="translate(10.0 69.1) rotate(90.3) scale(1.32 0.78)" />
<circle cx="75.7" cy="25.1" r="1.7" fill="hsl(104, 72%, 65%)" fill-opacity="0.49"   />
<rect x="22.1" y="6.8" width="38.1" height="19.2" rx="4.0" fill="none" fill-opacity="0.44"    />
<path d="M 85.2 94.0 C 100.0 93.1, 8.7 67.8, 16.4 68.1 C 0.0 80.1, 31.3 12.9, 34.8 11.1 C 33.8 9.0, 62.7 80.7, 59.3 89.3 Z" fill="hsl(86, 72%, 68%)" fill-opacity="0.38" stroke="none" stroke-width="1.09"   />
</svg>
