<?xml version="1.0" encoding="UTF-8"?>
<svg xmlns="http://www.w3.org/2000/svg" width="100" height="100" viewBox="0 0 100 100">
<defs>
<linearGradient id="g0" x1="0%" y1="0%" x2="100%" y2="100%">
<stop offset="0.0%" stop-color="hsl(106, 75%, 59%)" />
<stop offset="33.3%" stop-color="hsl(183, 71%, 60%)" />
<stop offset="66.7%" stop-color="hsl(242, 72%, 49%)" />
<stop offset="100.0%" stop-color="hsl(322, 74%, 44%)" />
</linearGradient>
<linearGradient id="g1" x1="0%" y1="0%" x2="100%" y2="100%">
<stop offset="0.0%" stop-color="hsl(290, 83%, 63%)" />
<stop offset="33.3%" stop-color="hsl(2, 82%, 55%)" />
<stop offset="66.7%" stop-color="hsl(86, 72%, 68%)" />
<stop offset="100.0%" stop-color="hsl(83, 65%, 44%)" />
</linearGradient>
<linearGradient id="g2" x1="0%" y1="0%" x2="100%" y2="100%">
<stop offset="0.0%" stop-color="hsl(40, 53%, 69%)" />
<stop offset="33.3%" stop-color="hsl(104, 72%, 65%)" />
<stop offset="66.7%" stop-color="hsl(144, 86%, 72%)" />
<stop offset="100.0%" stop-color="hsl(151, 70%, 62%)" />
</linearGradient>
</defs>

<rect x="70.1" y="13.6" width="20.9" height="39.9" rx="0" fill="hsl(183, 71%, 60%)" fill-opacity="0.72" stroke="hsl(183, 71%, 60%)" stroke-width="4.5"   />
<path d="M 2.0 65.6 C 7.3 70.1, 31.6 9.9, 40.2 6.9 C 28.0 14.8, 34.7 22.0, 19.8 27.5 C 27.1 13.3, 19.7 24.2, 13.4 20.6 C 22.4 31.5, 93.4 25.6, 91.8 17.9 Z" fill="none" fill-opacity="0.65" stroke="hsl(322, 74%, 44%)" stroke-width="1.08"  transform="translate(21.6 31.2) rotate(156.8) scale(0.62 1.80)" />
<path d="M 47.9 61.2 C 40.8 51.8, 75.2 29.9, 64.9 21.3 C 54.6 34.8, 80.2 83.8, 71.3 85.4 C 59.8 88.3, 88.8 66.2, 92.0 60.6 C 89.3 46.5, 31.5 43.8, 27.3 47.9 C 10.0 28.3, 0.0 27.1, 4.9 35.3 " fill="none" fill-opacity="0.63" stroke="hsl(151, 70%, 62%)" stroke-width="0.83"   />
<path d="M 77.6 20.2 C 90.5 32.6, 34.9 0.0, 21.4 5.2 C 3.8 0.0, 81.1 3.0, 87.0 8.2 C 75.7 0.0, 0.0 25.4, 1.4 26.6 C 14.6 34.6, 33.9 17.7, 46.2 23.6 Z" fill="hsl(322, 74%, 44%)" fill-opacity="0.34" stroke="none" stroke-width="1.25"  transform="translate(53.2 5.2) rotate(320.8) scale(1.36 1.87)" />
<rect x="40.8" y="61.0" width="25.8" height="22.5" rx="0" fill="none" fill-opacity="0.72"    />
<circle cx="17.7" cy="61.1" r="1.8" fill="hsl(183, 71%, 60%)" fill-opacity="0.72"   />
<circle cx="17.6" cy="97.4" r="1.1" fill="hsl(290, 83%, 63%)" fill-opacity="0.81"   />
<path d="M 51.2 68.9 C 67.4 50.7, 85.5 44.2, 83.2 44.3 C 100.0 52.1, 8.9 77.2, 1.9 73.4 C 17.8 66.2, 59.9 34.0, 65.1 21.6 C 60.4 16.0, 15.2 22.9, 8.3 15.9 C 4.6 16.3, 22.7 24.5, 36.4 28.8 " fill="hsl(290, 83%, 63%)" fill-opacity="0.57" stroke="none" stroke-width="0.95"   />
<rect x="13.9" y="22.8" width="40.9" height="35.0" rx="0" fill="none" fill-opacity="0.56"    />
<circle cx="66.3" cy="65.9" r="1.0" fill="hsl(86, 72%, 68%)" fill-opacity="0.61"   />
<rect x="12.3" y="64.2" width="36.6" height="26.3" rx="18.7" fill="none" fill-opacity="0.86"    />
<circle cx="40.2" cy="58.2" r="0.0" fill="hsl(183, 71%, 60%)" fill-opacity="0.97"  transform="translate(96.2 60.3) rotate(1.8) scale(1.16 1.30)" />
<circle cx="56.8" cy="34.5" r="0.2" fill="hsl(144, 86%, 72%)" fill-opacity="0.68"  transform="translate(86.0 24.3) rotate(62.1) scale(0.76 1.50)" />
<path d="M 27.1 22.6 C 11.9 12.7, 80.5 20.1, 72.3 15.2 C 53.1 3.2, 56.2 0.0, 51.9 6.6 C 46.2 8.3, 68.0 27.0, 75.1 16.1 C 72.3 16.5, 2.1 98.9, 5.8 89.6 C 8.1 89.1, 100.0 15.4, 96.7 15.7 C 100.0 0.0, 68.2 26.1, 67.1 23.8 C 51.0 36.2, 49.6 0.0, 60.4 0.2 " fill="hsl(322, 74%, 44%)" fill-opacity="0.86" stroke="none" stroke-width="1.17"   />
<rect x="22.9" y="48.1" width="48.6" height="38.3" rx="0" fill="none" fill-opacity="0.29" stroke="hsl(242, 72%, 49%)" stroke-width="2.0"   />
<path d="M 91.4 9.7 C 76.4 2.3, 96.4 61.2, 98.0 76.2 C 100.0 78.7, 90.6 79.8, 86.9 90.8 C 86.0 88.4, 66.0 41.9, 80.5 46.4 C 69.2 65.8, 0.0 1.3, 0.4 4.2 Z" fill="hsl(104, 72%, 65%)" fill-opacity="0.95" stroke="none" stroke-width="1.04"  transform="translate(99.5 80.6) rotate(50.6) scale(0.91 1.41)" />
<path d="M 7.9 10.7 C 19.7 28.8, 0.3 54.0, 7.1 45.7 C 24.8 29.5, 32.9 66.6, 35.4 60.3 C 31.2 72.4, 77.9 57.5, 77.3 47.6 C 59.2 46.7, 0.0 9.6, 6.5 1.1 C 22.3 0.0, 94.2 74.9, 93.3 69.8 " fill="hsl(151, 70%, 62%)" fill-opacity="0.90" stroke="none" stroke-width="1.08"  transform="translate(55.0 90.4) rotate(170.4) scale(1.93 1.59)" />
</svg>
