<?xml version="1.0" encoding="UTF-8"?>
<svg xmlns="http://www.w3.org/2000/svg" width="100" height="100" viewBox="0 0 100 100">
<defs>
<linearGradient id="g0" x1="0%" y1="0%" x2="100%" y2="100%">
<stop offset="0.0%" stop-color="hsl(106, 75%, 59%)" />
<stop offset="33.3%" stop-color="hsl(183, 71%, 60%)" />
<stop offset="66.7%" stop-color="hsl(242, 72%, 49%)" />
<stop offset="100.0%" stop-color="hsl(322, 74%, 44%)" />
</linearGradient>
<linearGradient id="g1" x1="0%" y1="0%" x2="100%" y2="100%">
<stop offset="0.0%" stop-color="hsl(290, 83%, 63%)" />
<stop offset="33.3%" stop-color="hsl(2, 82%, 55%)" />
<stop offset="66.7%" stop-color="hsl(86, 72%, 68%)" />
<stop offset="100.0%" stop-color="hsl(83, 65%, 44%)" />
</linearGradient>
<linearGradient id="g2" x1="0%" y1="0%" x2="100%" y2="100%">
<stop offset="0.0%" stop-color="hsl(40, 53%, 69%)" />
<stop offset="33.3%" stop-color="hsl(104, 72%, 65%)" />
<stop offset="66.7%" stop-color="hsl(144, 86%, 72%)" />
<stop offset="100.0%" stop-color="hsl(151, 70%, 62%)" />
</linearGradient>
<filter id="f1" x="-20%" y="-20%" width="140%" height="140%">
  <feGaussianBlur stdDeviation="0.7865164033497178" />
</filter>

</defs>

<circle cx="62.2" cy="22.1" r="5.6" fill="hsl(151, 70%, 62%)" fill-opacity="0.74"   />
<rect x="27.2" y="76.2" width="46.8" height="14.0" rx="0" fill="none" fill-opacity="0.69"   transform="translate(8.1 38.8) rotate(186.4) scale(0.80 1.48)" />
<path d="M 31.4 9.0 C 43.3 8.3, 100.0 72.7, 95.9 64.1 C 97.5 73.3, 100.0 45.8, 92.2 43.9 C 72.2 62.7, 51.0 66.7, 47.5 55.4 C 56.5 48.7, 31.3 75.5, 20.1 65.2 C 31.1 64.1, 100.0 12.7, 86.5 10.4 C 83.1 0.0, 24.7 67.1, 11.4 76.9 C 15.3 93.0, 33.1 76.9, 47.4 80.2 C 65.1 62.8, 75.2 23.7, 62.4 18.6 Z" fill="none" fill-opacity="0.41" stroke="hsl(322, 74%, 44%)" stroke-width="5.29"   />
<path d="M 92.7 16.0 C 78.8 9.4, 31.6 84.5, 37.0 96.0 C 43.2 100.0, 71.9 74.7, 76.8 88.8 C 82.1 76.3, 89.2 50.9, 91.0 40.1 C 100.0 33.7, 58.1 37.8, 73.1 37.4 C 66.0 41.7, 100.0 10.8, 99.9 16.6 C 98.0 0.6, 90.7 38.6, 87.7 45.8 C 90.2 55.4, 27.0 8.6, 16.8 20.9 Z" fill="hsl(86, 72%, 68%)" fill-opacity="0.72" stroke="none" stroke-width="2.45"  transform="translate(65.9 19.4) rotate(176.8) scale(0.69 1.53)" />
<path d="M 44.2 26.3 C 52.3 45.9, 91.0 59.3, 95.3 47.8 C 77.0 60.4, 85.4 7.9, 100.0 10.9 C 84.1 29.5, 30.3 6.9, 16.6 20.4 C 11.8 31.1, 96.0 41.1, 85.5 46.5 C 66.9 28.2, 24.7 3.8, 36.0 9.0 C 32.4 22.0, 78.1 56.8, 82.1 68.2 C 82.3 87.7, 81.9 49.1, 87.0 56.7 C 83.3 62.2, 38.5 97.7, 41.8 87.0 C 38.4 70.8, 81.6 81.5, 74.3 85.2 C 90.9 95.7, 50.4 50.5, 62.1 59.1 Z" fill="none" fill-opacity="0.33" stroke="hsl(290, 83%, 63%)" stroke-width="3.47"  transform="translate(54.0 96.0) rotate(248.9) scale(1.52 1.19)" />
<path d="M 36.1 64.2 C 19.5 62.5, 34.6 46.3, 31.3 36.5 C 24.2 35.6, 44.3 65.0, 58.2 77.0 C 50.7 77.6, 52.7 21.0, 45.0 31.7 C 55.7 33.2, 0.0 0.0, 9.4 0.2 C 28.4 7.4, 41.8 82.1, 48.8 76.3 C 34.2 62.2, 50.2 34.7, 41.6 30.1 Z" fill="none" fill-opacity="0.84" stroke="hsl(104, 72%, 65%)" stroke-width="2.15"  transform="translate(35.8 90.0) rotate(78.4) scale(1.93 0.76)" />
<rect x="33.5" y="6.7" width="48.2" height="31.7" rx="0" fill="none" fill-opacity="0.86"   transform="translate(86.5 86.8) rotate(3.7) scale(0.55 1.20)" />
<rect x="9.8" y="68.3" width="28.8" height="12.8" rx="0" fill="none" fill-opacity="0.79"   transform="translate(15.5 51.6) rotate(153.6) scale(1.39 1.87)" />
<path d="M 5.7 9.3 C 7.5 10.0, 78.5 33.2, 64.0 41.1 C 66.5 29.2, 10.0 85.2, 7.5 88.3 C 0.0 100.0, 11.1 67.6, 10.3 59.6 C 11.9 49.8, 33.4 33.8, 32.9 40.7 C 39.8 22.3, 22.3 75.2, 27.0 83.6 C 8.5 74.6, 19.5 18.5, 12.5 31.8 C 28.1 22.5, 41.5 20.6, 35.5 25.1 C 35.0 27.4, 24.9 26.7, 31.9 18.4 Z" fill="hsl(106, 75%, 59%)" fill-opacity="0.36" stroke="none" stroke-width="4.72"  transform="translate(86.9 13.3) rotate(14.8) scale(1.85 0.75)" />
<circle cx="92.7" cy="59.0" r="2.7" fill="url(#g1)" fill-opacity="0.62"  transform="translate(64.2 83.8) rotate(235.6) scale(0.63 1.17)" />
<circle cx="33.7" cy="48.2" r="15.0" fill="hsl(83, 65%, 44%)" fill-opacity="0.93" filter="url(#f1)" transform="translate(41.6 88.3) rotate(26.7) scale(0.92 1.42)" />
<path d="M 2.0 96.6 C 3.5 100.0, 43.6 84.3, 31.5 96.5 C 12.9 97.9, 16.9 100.0, 25.4 96.0 C 11.9 100.0, 53.2 0.4, 54.1 15.3 C 60.7 29.4, 45.5 73.5, 33.2 79.2 C 26.6 80.2, 84.3 31.6, 95.3 36.5 C 94.7 26.4, 60.5 61.3, 49.2 68.3 C 51.7 55.7, 10.7 2.3, 12.5 16.3 C 9.3 11.9, 88.0 100.0, 79.7 88.4 C 64.7 96.8, 86.5 93.4, 93.8 84.8 C 92.3 87.9, 62.8 24.5, 62.2 37.7 " fill="none" fill-opacity="0.96" stroke="hsl(104, 72%, 65%)" stroke-width="2.39"  transform="translate(93.6 1.0) rotate(177.6) scale(0.54 0.69)" />
<path d="M 12.6 67.6 C 10.8 63.0, 100.0 100.0, 98.1 99.9 C 100.0 81.8, 52.5 29.3, 38.2 39.4 C 49.4 31.8, 66.9 60.3, 75.3 67.5 C 90.3 81.5, 100.0 99.0, 96.2 89.5 C 100.0 91.2, 43.2 70.3, 46.7 73.8 C 62.1 73.5, 3.3 81.2, 4.7 84.5 C 15.5 83.2, 20.8 76.7, 30.1 78.2 C 27.1 67.6, 24.0 55.3, 17.8 54.4 C 13.8 39.2, 89.7 14.9, 85.8 21.5 Z" fill="none" fill-opacity="0.54" stroke="hsl(86, 72%, 68%)" stroke-width="3.63"  transform="translate(93.1 47.3) rotate(294.1) scale(1.11 1.32)" />
<path d="M 12.8 52.6 C 18.5 65.7, 94.1 46.2, 80.6 59.2 C 97.0 69.8, 77.6 23.3, 92.4 21.1 C 82.8 17.4, 81.5 33.1, 82.7 24.6 C 63.9 17.4, 54.3 29.1, 65.2 25.7 C 58.8 9.3, 66.2 62.7, 80.5 56.2 C 92.5 53.1, 47.6 64.1, 35.0 62.9 Z" fill="hsl(104, 72%, 65%)" fill-opacity="0.46" stroke="none" stroke-width="1.11"   />
<circle cx="27.8" cy="79.2" r="1.6" fill="hsl(86, 72%, 68%)" fill-opacity="0.77" filter="url(#f1)" transform="translate(23.2 70.2) rotate(265.0) scale(0.61 1.90)" />
<rect x="44.1" y="0.4" width="44.1" height="17.2" rx="0" fill="hsl(104, 72%, 65%)" fill-opacity="0.45"    />
<circle cx="40.6" cy="85.2" r="2.4" fill="hsl(183, 71%, 60%)" fill-opacity="0.89" filter="url(#f1)"  />
<path d="M 8.0 32.1 C 23.0 42.4, 83.3 26.8, 72.1 27.1 C 70.3 19.8, 62.6 17.9, 59.7 6.8 C 54.5 0.0, 38.8 72.6, 25.4 69.2 C 9.1 68.4, 10.6 39.7, 10.6 29.8 C 16.2 26.9, 23.3 100.0, 12.7 93.4 C 4.0 92.2, 100.0 71.8, 92.1 83.3 C 95.4 67.8, 58.6 34.7, 58.6 48.6 Z" fill="none" fill-opacity="0.36" stroke="hsl(144, 86%, 72%)" stroke-width="5.02" filter="url(#f1)"  />
<circle cx="95.1" cy="47.8" r="2.4" fill="hsl(40, 53%, 69%)" fill-opacity="0.86"  transform="translate(97.8 90.2) rotate(317.0) scale(1.32 0.84)" />
<rect x="70.7" y="44.5" width="21.6" height="21.7" rx="2.2" fill="hsl(86, 72%, 68%)" fill-opacity="0.99"  filter="url(#f1)" transform="translate(35.5 38.2) rotate(336.8) scale(1.79 0.80)" />
<path d="M 92.3 37.4 C 74.0 23.1, 86.7 41.2, 96.1 30.1 C 95.6 23.0, 36.1 23.4, 50.4 23.5 C 58.0 22.1, 72.4 95.8, 75.9 97.0 C 57.3 100.0, 32.4 13.6, 25.0 25.7 C 25.4 11.4, 63.5 33.4, 60.6 19.8 C 55.9 20.4, 79.5 30.1, 70.3 30.7 C 64.4 35.7, 61.9 42.3, 51.9 41.9 C 54.3 29.6, 72.5 84.5, 80.1 76.8 C 80.4 66.0, 36.7 40.6, 51.6 30.7 Z" fill="hsl(322, 74%, 44%)" fill-opacity="0.62" stroke="none" stroke-width="1.39"  transform="translate(44.5 39.1) rotate(149.2) scale(0.92 1.68)" />
<path d="M 27.8 92.4 C 12.2 84.0, 84.3 73.4, 83.1 80.3 C 88.6 90.7, 78.5 67.2, 79.1 81.4 C 89.4 63.9, 100.0 0.5, 96.9 8.4 C 100.0 1.0, 59.1 28.6, 71.7 32.7 C 89.5 44.0, 42.5 43.2, 29.4 37.8 C 25.3 31.9, 87.0 58.5, 95.6 70.7 C 86.7 87.8, 81.3 6.7, 77.6 12.6 C 83.9 0.0, 20.2 50.8, 20.0 46.5 C 15.8 51.0, 25.7 20.1, 33.2 34.8 C 15.0 47.8, 70.3 76.8, 74.8 77.9 Z" fill="none" fill-opacity="0.98" stroke="hsl(86, 72%, 68%)" stroke-width="2.14"  transform="translate(43.1 11.0) rotate(284.6) scale(1.46 0.78)" />
<circle cx="12.7" cy="59.9" r="4.1" fill="url(#g1)" fill-opacity="0.51"  transform="translate(37.0 47.7) rotate(134.9) scale(1.13 1.22)" />
<rect x="20.8" y="68.2" width="48.9" height="19.2" rx="0" fill="hsl(151, 70%, 62%)" fill-opacity="0.93"    />
<circle cx="27.9" cy="51.3" r="0.9" fill="hsl(83, 65%, 44%)" fill-opacity="0.98" filter="url(#f1)" transform="translate(41.9 87.8) rotate(2.5) scale(1.98 1.35)" />
<path d="M 92.2 55.3 C 94.2 39.6, 88.3 2.8, 78.5 13.9 C 69.1 16.1, 22.8 7.7, 18.1 17.0 C 21.0 31.5, 22.4 75.5, 17.5 80.5 C 0.0 62.7, 8.4 94.3, 15.6 93.5 C 10.7 78.9, 52.3 100.0, 53.9 94.4 C 64.1 100.0, 21.6 10.1, 33.6 24.7 C 27.1 22.3, 89.8 16.9, 81.1 5.1 C 85.9 3.0, 100.0 1.2, 96.4 6.3 C 100.0 17.0, 56.5 69.2, 67.2 66.2 Z" fill="hsl(151, 70%, 62%)" fill-opacity="0.27" stroke="none" stroke-width="4.64"  transform="translate(74.4 91.0) rotate(291.7) scale(1.29 1.70)" />
<rect x="44.9" y="74.0" width="48.5" height="15.5" rx="0" fill="none" fill-opacity="0.46"   transform="translate(39.2 20.5) rotate(37.3) scale(0.68 1.69)" />
<rect x="56.4" y="4.0" width="38.5" height="20.7" rx="5.6" fill="none" fill-opacity="0.24"   transform="translate(99.9 40.8) rotate(245.0) scale(0.84 1.28)" />
<rect x="59.8" y="7.8" width="20.7" height="26.2" rx="0" fill="none" fill-opacity="0.43"    />
<circle cx="26.5" cy="40.7" r="11.9" fill="hsl(183, 71%, 60%)" fill-opacity="0.82"  transform="translate(80.9 57.9) rotate(100.0) scale(0.77 1.68)" />
<path d="M 42.8 61.4 C 46.9 57.4, 49.1 14.3, 61.8 1.0 C 77.3 8.0, 38.5 8.8, 27.5 13.4 C 40.3 17.1, 55.9 63.2, 60.8 50.1 C 71.8 50.8, 99.4 25.8, 96.1 36.2 C 100.0 31.3, 90.8 38.1, 81.5 38.8 C 87.2 57.6, 3.9 49.1, 2.8 62.2 C 2.9 53.2, 20.9 35.3, 18.5 48.0 C 14.6 45.4, 80.5 31.4, 86.0 22.8 C 94.8 38.5, 24.7 0.3, 11.1 12.0 " fill="none" fill-opacity="0.68" stroke="hsl(183, 71%, 60%)" stroke-width="4.92"  transform="translate(63.1 6.0) rotate(25.4) scale(1.13 1.71)" />
<path d="M 83.8 37.9 C 87.3 33.9, 7.6 46.8, 5.0 43.9 C 0.0 24.6, 47.8 85.8, 34.8 97.6 C 50.8 100.0, 50.8 12.9, 39.4 18.2 C 52.3 21.8, 9.2 63.0, 22.5 50.9 C 28.5 65.0, 32.7 95.7, 26.4 89.1 C 28.7 70.7, 4.5 17.4, 11.9 17.9 C 14.9 0.2, 83.3 48.8, 75.8 61.5 Z" fill="hsl(242, 72%, 49%)" fill-opacity="0.67" stroke="none" stroke-width="4.13"  transform="translate(77.5 89.6) rotate(118.5) scale(1.52 0.91)" />
<circle cx="35.4" cy="46.7" r="8.0" fill="url(#g2)" fill-opacity="0.45"  transform="translate(22.6 30.0) rotate(283.3) scale(1.40 1.09)" />
<rect x="52.5" y="6.6" width="23.5" height="37.5" rx="0" fill="none" fill-opacity="0.64" stroke="hsl(242, 72%, 49%)" stroke-width="2.9"  transform="translate(85.3 46.2) rotate(271.4) scale(1.14 1.30)" />
<circle cx="48.6" cy="99.0" r="4.9" fill="url(#g1)" fill-opacity="0.56"  transform="translate(93.9 72.8) rotate(121.8) scale(1.57 1.31)" />
<circle cx="58.9" cy="41.3" r="1.7" fill="hsl(322, 74%, 44%)" fill-opacity="0.71"   />
<path d="M 78.2 18.2 C 69.0 31.7, 0.0 28.5, 4.8 29.9 C 22.6 26.3, 0.0 77.4, 5.2 73.3 C 11.7 59.9, 100.0 74.8, 92.4 82.2 C 100.0 87.0, 72.3 53.3, 63.1 41.3 C 60.6 22.4, 28.6 17.0, 43.0 11.1 C 41.4 0.3, 65.8 68.7, 79.3 79.4 C 90.1 90.4, 93.8 50.7, 80.3 51.3 Z" fill="hsl(83, 65%, 44%)" fill-opacity="0.94" stroke="none" stroke-width="3.80"   />
<path d="M 98.6 2.9 C 94.6 0.1, 47.0 53.2, 47.1 42.1 C 49.2 45.7, 59.4 78.0, 48.5 87.7 C 45.4 89.7, 5.8 17.2, 5.1 24.2 C 12.9 28.7, 34.6 63.6, 42.5 59.3 C 30.3 60.7, 62.9 37.8, 57.6 45.9 C 68.1 47.0, 55.5 58.0, 54.9 53.5 C 39.8 57.7, 24.8 71.5, 16.2 57.7 Z" fill="hsl(104, 72%, 65%)" fill-opacity="0.53" stroke="none" stroke-width="4.53"  transform="translate(51.0 9.3) rotate(19.6) scale(0.81 0.80)" />
<path d="M 24.0 94.1 C 23.2 100.0, 55.7 68.1, 62.4 56.3 C 62.0 61.3, 40.7 27.5, 45.1 33.1 C 25.2 49.0, 32.3 79.2, 23.4 70.3 C 25.6 64.8, 61.2 100.0, 69.9 98.4 C 62.0 100.0, 28.3 99.2, 28.7 95.1 C 14.3 100.0, 7.2 93.2, 1.7 81.4 C 8.5 68.4, 60.6 76.0, 73.8 71.7 C 64.9 52.3, 60.6 9.6, 46.7 5.2 C 43.4 23.8, 100.0 48.6, 95.2 61.1 Z" fill="hsl(40, 53%, 69%)" fill-opacity="0.41" stroke="none" stroke-width="5.27"  transform="translate(22.4 56.8) rotate(276.0) scale(1.19 1.23)" />
<rect x="55.8" y="49.0" width="20.4" height="33.2" rx="3.6" fill="none" fill-opacity="0.92"   transform="translate(93.7 6.8) rotate(325.5) scale(1.02 1.23)" />
<path d="M 9.5 34.0 C 11.7 38.3, 31.3 29.8, 30.3 18.4 C 26.1 6.9, 45.1 0.0, 47.3 3.6 C 42.0 17.8, 32.8 88.4, 26.1 84.1 C 42.5 100.0, 87.4 68.4, 91.1 81.0 C 96.8 83.3, 40.6 61.7, 26.3 56.9 C 31.0 39.5, 96.7 82.4, 88.3 96.6 C 75.8 100.0, 96.8 65.8, 91.6 64.9 C 99.7 46.5, 6.0 33.9, 9.2 19.1 C 0.0 12.1, 14.1 85.7, 13.9 80.6 Z" fill="none" fill-opacity="0.96" stroke="hsl(40, 53%, 69%)" stroke-width="1.65"  transform="translate(65.8 5.7) rotate(208.1) scale(0.74 1.80)" />
<path d="M 25.0 41.2 C 17.7 58.3, 71.0 52.5, 74.0 48.2 C 85.3 42.5, 72.2 100.0, 78.0 94.8 C 76.5 95.3, 13.0 100.0, 0.7 99.7 C 0.0 100.0, 99.5 8.4, 91.3 18.2 C 92.9 0.0, 44.5 55.6, 38.8 48.7 C 53.7 64.0, 35.4 24.3, 40.8 38.0 C 57.9 49.0, 40.5 0.0, 45.5 4.1 C 50.8 0.0, 9.6 12.0, 22.0 14.4 C 6.5 29.3, 88.8 52.0, 77.2 45.3 C 77.3 59.5, 12.1 0.0, 7.7 2.5 Z" fill="none" fill-opacity="0.57" stroke="hsl(2, 82%, 55%)" stroke-width="2.93"  transform="translate(60.2 25.8) rotate(354.1) scale(1.84 0.78)" />
<circle cx="27.5" cy="62.2" r="1.1" fill="url(#g0)" fill-opacity="0.65"  transform="translate(4.0 96.6) rotate(221.6) scale(1.16 1.18)" />
<path d="M 56.9 42.8 C 67.2 48.3, 72.5 99.0, 64.4 87.4 C 47.2 100.0, 8.1 27.1, 21.0 17.9 C 40.0 11.4, 97.2 47.9, 91.7 34.0 C 100.0 48.4, 92.2 65.6, 83.4 63.8 C 68.0 57.2, 14.4 41.3, 22.5 44.6 C 20.7 53.5, 84.7 0.0, 94.9 10.5 C 84.9 8.9, 67.0 98.2, 57.9 92.3 C 61.2 73.6, 56.0 40.3, 68.3 40.7 Z" fill="hsl(106, 75%, 59%)" fill-opacity="0.33" stroke="none" stroke-width="2.26"  transform="translate(82.4 65.4) rotate(352.8) scale(1.23 1.49)" />
<rect x="14.7" y="6.4" width="35.2" height="12.9" rx="10.4" fill="none" fill-opacity="0.90" stroke="hsl(106, 75%, 59%)" stroke-width="3.7"  transform="translate(29.9 14.3) rotate(35.0) scale(0.94 0.96)" />
<rect x="3.3" y="34.9" width="35.6" height="28.8" rx="0" fill="hsl(144, 86%, 72%)" fill-opacity="0.35"   transform="translate(64.2 64.1) rotate(165.5) scale(1.97 1.52)" />
<path d="M 0.9 32.9 C 0.2 35.9, 64.3 17.7, 53.1 17.7 C 59.4 25.0, 62.9 88.0, 72.1 91.9 C 60.9 100.0, 0.7 79.8, 4.9 94.6 C 24.4 87.4, 71.6 23.1, 59.6 37.4 C 62.5 23.6, 24.9 19.2, 25.1 28.4 C 28.4 42.7, 69.3 0.4, 81.7 0.5 C 79.7 0.0, 75.2 8.1, 71.2 2.4 C 72.6 0.0, 13.3 80.3, 9.6 95.0 C 11.1 88.5, 80.6 6.0, 90.3 16.0 C 100.0 28.4, 66.9 27.7, 75.9 42.5 Z" fill="hsl(104, 72%, 65%)" fill-opacity="0.65" stroke="none" stroke-width="4.42"  transform="translate(6.7 9.3) rotate(174.9) scale(1.45 1.86)" />
<circle cx="95.6" cy="23.4" r="1.9" fill="url(#g2)" fill-opacity="0.51"  transform="translate(9.3 50.7) rotate(234.8) scale(1.32 1.84)" />
<path d="M 28.1 24.7 C 39.7 8.1, 35.7 28.9, 29.4 19.3 C 15.5 5.0, 85.0 22.4, 99.5 10.7 C 100.0 24.8, 70.5 3.9, 74.6 11.0 C 92.1 27.0, 21.0 54.1, 21.6 60.9 C 29.9 67.8, 22.9 73.9, 10.4 77.1 C 0.0 63.4, 46.4 92.8, 37.9 86.6 C 48.9 88.0, 47.7 81.4, 33.1 90.6 C 21.8 100.0, 35.7 84.9, 41.8 77.6 C 56.8 79.8, 29.2 0.0, 29.1 0.7 Z" fill="none" fill-opacity="0.48" stroke="hsl(106, 75%, 59%)" stroke-width="4.07"   />
<rect x="40.2" y="58.6" width="39.5" height="38.2" rx="0" fill="none" fill-opacity="0.84"    />
<path d="M 6.7 54.0 C 14.5 39.9, 0.3 97.6, 0.8 88.9 C 0.0 94.5, 11.7 100.0, 9.8 91.5 C 24.4 89.5, 44.6 88.8, 43.8 81.5 C 50.0 100.0, 13.3 21.0, 8.4 19.3 C 19.9 13.2, 92.3 0.0, 97.7 1.4 C 100.0 9.5, 88.9 41.5, 82.3 41.5 C 64.8 35.4, 88.9 36.1, 95.0 28.2 C 77.2 43.7, 72.6 38.6, 59.7 48.6 C 52.7 67.9, 100.0 59.2, 92.8 49.5 C 100.0 59.7, 15.2 44.6, 3.9 51.1 " fill="none" fill-opacity="0.25" stroke="hsl(322, 74%, 44%)" stroke-width="2.01"  transform="translate(56.7 45.1) rotate(97.8) scale(0.65 0.99)" />
<circle cx="35.6" cy="79.3" r="11.7" fill="url(#g2)" fill-opacity="0.99"   />
<path d="M 77.3 19.2 C 63.5 28.8, 65.2 26.2, 71.8 14.6 C 90.9 0.0, 83.2 86.0, 73.8 85.9 C 93.1 70.4, 58.3 61.5, 71.7 70.7 C 71.7 55.5, 69.5 20.8, 59.7 35.4 C 71.4 37.5, 89.6 22.5, 94.3 18.4 C 85.4 25.8, 77.4 95.0, 65.6 90.2 C 77.0 100.0, 15.4 32.3, 25.5 27.8 C 24.8 40.9, 23.9 89.4, 15.1 76.7 Z" fill="hsl(151, 70%, 62%)" fill-opacity="0.48" stroke="none" stroke-width="4.31"  transform="translate(31.8 4.4) rotate(94.8) scale(1.09 0.76)" />
<rect x="50.5" y="61.5" width="41.2" height="10.8" rx="13.8" fill="hsl(2, 82%, 55%)" fill-opacity="0.87"   transform="translate(88.2 56.4) rotate(202.8) scale(1.28 1.13)" />
<circle cx="96.1" cy="52.7" r="1.1" fill="hsl(40, 53%, 69%)" fill-opacity="0.61"  transform="translate(15.8 91.7) rotate(90.5) scale(0.97 1.44)" />
<path d="M 76.9 14.7 C 86.9 28.2, 10.8 92.1, 18.9 82.1 C 16.4 70.6, 88.4 67.1, 93.4 80.5 C 95.8 69.7, 8.8 89.7, 11.4 95.6 C 6.9 99.9, 60.7 44.2, 46.4 47.8 C 33.2 59.6, 19.6 0.0, 13.9 0.8 C 29.6 6.4, 18.3 91.1, 13.8 83.6 Z" fill="hsl(151, 70%, 62%)" fill-opacity="0.63" stroke="none" stroke-width="3.74"  transform="translate(1.9 20.6) rotate(14.0) scale(1.75 1.49)" />
<path d="M 14.7 67.2 C 24.5 65.3, 78.7 85.7, 88.6 78.2 C 92.8 73.7, 8.9 14.3, 13.3 3.5 C 20.5 2.9, 24.9 29.1, 28.4 39.5 C 43.9 28.1, 0.0 55.8, 9.8 58.4 C 0.0 72.9, 77.8 66.5, 79.0 54.9 C 96.1 46.7, 54.8 37.2, 58.5 28.4 Z" fill="none" fill-opacity="0.85" stroke="hsl(106, 75%, 59%)" stroke-width="2.43"  transform="translate(44.7 71.5) rotate(203.8) scale(1.31 1.48)" />
<path d="M 58.1 25.0 C 46.0 16.3, 64.3 27.6, 76.1 26.5 C 57.0 7.2, 40.4 28.2, 45.8 18.4 C 53.0 30.3, 77.6 71.2, 69.6 65.9 C 65.7 80.0, 99.5 100.0, 90.3 99.0 C 73.3 100.0, 40.8 52.0, 28.1 39.3 C 14.7 51.1, 77.0 26.0, 69.0 14.7 Z" fill="hsl(2, 82%, 55%)" fill-opacity="0.61" stroke="none" stroke-width="0.90"   />
<path d="M 11.2 98.7 C 3.7 87.1, 8.0 41.3, 3.8 53.1 C 11.7 66.5, 99.9 7.4, 88.7 20.6 C 100.0 27.0, 39.8 36.6, 45.8 46.3 C 62.4 30.0, 13.9 8.7, 6.2 7.5 C 23.2 7.6, 95.9 51.6, 86.5 63.3 C 99.9 48.0, 21.0 87.9, 25.3 78.1 C 29.5 64.1, 37.5 69.1, 30.2 79.8 C 14.2 77.1, 94.1 89.0, 93.5 94.6 C 96.6 100.0, 83.4 89.9, 97.0 80.2 Z" fill="none" fill-opacity="0.71" stroke="hsl(2, 82%, 55%)" stroke-width="3.62"  transform="translate(90.6 42.3) rotate(153.6) scale(0.61 1.47)" />
<circle cx="52.3" cy="30.0" r="12.4" fill="url(#g0)" fill-opacity="0.53"  transform="translate(80.1 23.5) rotate(84.6) scale(1.90 0.84)" />
<path d="M 92.1 35.7 C 100.0 49.5, 51.0 70.8, 38.7 59.8 C 50.0 67.3, 55.0 20.5, 67.1 26.0 C 79.3 18.1, 0.0 12.5, 4.4 18.4 C 3.6 16.6, 27.7 0.0, 41.8 11.1 C 44.0 0.0, 34.4 100.0, 48.0 99.5 C 40.5 94.3, 0.0 28.8, 2.6 39.1 C 0.0 53.4, 28.4 90.3, 36.1 87.3 Z" fill="none" fill-opacity="0.55" stroke="hsl(2, 82%, 55%)" stroke-width="3.13"  transform="translate(7.2 83.8) rotate(69.0) scale(1.64 1.41)" />
<circle cx="32.2" cy="44.7" r="3.3" fill="url(#g1)" fill-opacity="0.90"   />
<path d="M 31.9 14.7 C 24.1 3.6, 80.8 17.1, 93.8 13.9 C 100.0 0.0, 66.0 51.1, 55.2 59.9 C 64.5 64.8, 87.7 37.9, 93.0 49.9 C 98.7 45.0, 14.3 86.0, 19.5 88.8 C 28.3 81.9, 58.0 77.7, 68.7 91.6 C 75.3 92.7, 2.1 11.7, 8.5 14.8 C 15.9 10.5, 31.0 81.4, 21.4 70.8 C 5.1 80.3, 18.9 17.6, 25.8 7.2 C 9.1 0.0, 56.4 41.7, 50.7 29.9 Z" fill="hsl(183, 71%, 60%)" fill-opacity="0.59" stroke="none" stroke-width="1.31"  transform="translate(10.0 25.2) rotate(112.4) scale(1.73 1.34)" />
<path d="M 1.1 22.5 C 0.0 24.6, 20.0 31.4, 13.2 39.7 C 7.1 27.3, 14.6 100.0, 12.5 93.3 C 30.9 100.0, 35.7 20.9, 35.2 13.8 C 51.5 28.6, 42.5 47.6, 44.6 41.0 C 30.9 31.6, 15.2 9.5, 27.3 1.3 C 27.1 0.0, 19.4 89.0, 26.5 91.2 Z" fill="hsl(290, 83%, 63%)" fill-opacity="0.64" stroke="none" stroke-width="1.42"  transform="translate(68.0 73.7) rotate(41.0) scale(1.96 0.70)" />
<path d="M 89.0 56.0 C 82.2 44.2, 52.2 22.7, 66.4 11.9 C 64.3 24.1, 5.0 73.0, 15.2 68.6 C 5.4 79.0, 37.9 35.6, 40.6 33.6 C 44.5 34.0, 75.4 0.0, 64.0 10.2 C 61.3 0.0, 4.8 16.6, 6.2 22.3 C 13.9 40.0, 7.7 27.4, 18.0 41.0 Z" fill="hsl(151, 70%, 62%)" fill-opacity="0.77" stroke="none" stroke-width="3.34"  transform="translate(15.5 50.6) rotate(178.0) scale(0.92 1.47)" />
<path d="M 1.1 67.3 C 3.3 81.2, 79.4 76.2, 75.2 71.6 C 68.0 83.7, 43.5 37.0, 56.7 38.5 C 61.5 32.5, 35.3 73.9, 28.8 64.4 C 47.3 79.4, 0.0 16.0, 9.2 10.8 C 0.4 6.5, 5.3 87.8, 0.4 87.5 C 0.0 69.1, 20.1 64.7, 22.6 54.1 Z" fill="none" fill-opacity="0.97" stroke="hsl(183, 71%, 60%)" stroke-width="4.00"  transform="translate(73.9 61.0) rotate(75.5) scale(1.49 1.84)" />
<path d="M 4.1 79.8 C 1.6 76.5, 26.1 77.4, 38.0 71.7 C 49.8 58.7, 34.1 28.9, 26.2 28.3 C 19.6 18.8, 50.6 92.5, 55.0 98.9 C 67.7 100.0, 55.6 13.0, 65.8 16.3 C 82.2 18.9, 55.9 30.5, 58.0 40.9 C 60.4 53.4, 52.4 70.8, 44.2 67.8 C 54.4 85.5, 12.7 73.5, 19.8 83.6 C 14.2 100.0, 38.5 90.1, 37.0 88.6 Z" fill="hsl(151, 70%, 62%)" fill-opacity="0.30" stroke="none" stroke-width="2.02"  transform="translate(92.1 86.8) rotate(303.4) scale(1.48 0.58)" />
<rect x="9.5" y="57.7" width="25.9" height="20.6" rx="0" fill="hsl(83, 65%, 44%)" fill-opacity="0.30"   transform="translate(49.7 10.8) rotate(221.9) scale(1.30 1.05)" />
<rect x="12.3" y="42.8" width="39.1" height="38.3" rx="0" fill="hsl(2, 82%, 55%)" fill-opacity="0.54"   transform="translate(54.6 99.9) rotate(305.1) scale(1.01 0.86)" />
<path d="M 46.0 9.7 C 28.0 0.0, 48.5 61.7, 53.4 67.5 C 51.2 84.0, 26.3 0.0, 13.9 1.0 C 32.3 14.1, 75.5 30.1, 87.4 42.8 C 84.9 52.8, 62.2 30.6, 50.6 40.7 C 62.9 48.9, 33.9 90.7, 46.1 93.0 C 40.9 100.0, 22.5 81.3, 34.4 81.7 C 50.6 95.9, 31.5 78.7, 34.6 87.5 C 44.6 100.0, 25.1 47.1, 14.1 38.8 C 11.1 43.6, 81.1 12.5, 71.7 9.9 C 55.8 9.4, 76.7 75.1, 63.9 71.8 Z" fill="none" fill-opacity="0.70" stroke="hsl(183, 71%, 60%)" stroke-width="3.74" filter="url(#f1)"  />
<rect x="46.5" y="31.4" width="48.9" height="22.4" rx="9.3" fill="hsl(40, 53%, 69%)" fill-opacity="0.62"   transform="translate(15.1 0.1) rotate(212.8) scale(0.51 1.58)" />
<circle cx="30.9" cy="15.3" r="0.2" fill="url(#g2)" fill-opacity="0.45"  transform="translate(18.5 86.0) rotate(17.9) scale(0.94 1.65)" />
<path d="M 41.3 70.3 C 60.6 76.2, 63.3 0.0, 64.6 10.8 C 82.4 19.6, 21.1 0.0, 13.5 0.7 C 21.2 0.0, 42.5 77.3, 31.6 76.3 C 46.0 62.7, 45.2 9.2, 49.2 5.9 C 64.6 21.9, 46.5 32.9, 51.4 44.0 C 35.4 45.0, 67.4 52.8, 52.4 38.3 C 34.7 58.0, 99.2 37.0, 91.2 47.5 C 100.0 44.9, 83.1 59.4, 89.8 56.4 C 81.5 66.2, 9.7 75.9, 19.1 81.9 Z" fill="hsl(183, 71%, 60%)" fill-opacity="0.45" stroke="none" stroke-width="0.80"  transform="translate(61.4 89.5) rotate(16.9) scale(1.37 1.06)" />
<circle cx="7.1" cy="94.8" r="4.7" fill="url(#g2)" fill-opacity="0.76"  transform="translate(23.4 21.6) rotate(186.8) scale(0.90 1.88)" />
<path d="M 3.5 20.7 C 19.7 18.7, 57.3 41.1, 64.0 42.4 C 76.5 36.9, 83.2 73.8, 69.5 71.1 C 78.7 83.8, 81.7 38.3, 84.5 27.9 C 99.5 34.3, 93.3 59.9, 94.3 71.9 C 100.0 63.9, 64.0 90.2, 51.2 80.3 C 36.5 72.1, 61.5 40.2, 52.4 41.5 Z" fill="hsl(106, 75%, 59%)" fill-opacity="0.61" stroke="none" stroke-width="1.87"  transform="translate(52.3 78.3) rotate(341.8) scale(1.59 0.73)" />
<circle cx="21.5" cy="31.2" r="1.7" fill="hsl(290, 83%, 63%)" fill-opacity="0.87"  transform="translate(81.8 9.4) rotate(106.7) scale(0.69 1.46)" />
<path d="M 28.3 70.7 C 42.9 70.1, 25.1 9.0, 13.6 14.3 C 4.4 20.6, 10.4 58.8, 20.1 47.7 C 23.0 52.3, 28.5 60.7, 17.0 73.1 C 35.3 77.1, 24.7 53.1, 36.7 63.7 C 33.5 45.7, 53.7 0.0, 38.7 8.9 C 49.2 0.0, 2.7 56.2, 8.5 67.0 C 1.5 55.4, 96.6 0.0, 90.9 9.4 C 100.0 23.8, 70.2 94.0, 70.4 80.6 C 67.5 65.2, 45.2 40.4, 46.5 28.1 " fill="none" fill-opacity="0.96" stroke="hsl(106, 75%, 59%)" stroke-width="1.22"  transform="translate(16.0 4.2) rotate(2.9) scale(1.82 2.00)" />
<rect x="24.6" y="50.4" width="49.9" height="37.2" rx="0" fill="none" fill-opacity="0.34"   transform="translate(51.7 56.9) rotate(282.7) scale(1.15 1.51)" />
<rect x="27.0" y="30.0" width="36.2" height="15.4" rx="7.3" fill="hsl(106, 75%, 59%)" fill-opacity="0.37"    />
<path d="M 87.9 79.2 C 99.9 59.7, 35.1 40.8, 36.5 35.2 C 51.7 53.0, 41.5 83.9, 29.5 77.9 C 46.1 74.2, 49.6 11.9, 45.4 11.7 C 42.2 0.0, 31.3 85.6, 24.9 86.1 C 37.7 95.1, 78.0 0.0, 65.2 3.2 C 55.1 11.4, 100.0 83.0, 94.2 72.4 C 100.0 60.4, 79.8 15.2, 93.0 22.8 C 100.0 3.3, 90.1 41.0, 87.0 53.8 Z" fill="hsl(40, 53%, 69%)" fill-opacity="0.63" stroke="none" stroke-width="2.29"  transform="translate(0.1 40.3) rotate(144.9) scale(1.57 0.89)" />
<circle cx="65.8" cy="35.8" r="6.5" fill="hsl(144, 86%, 72%)" fill-opacity="0.68"  transform="translate(66.4 71.3) rotate(270.2) scale(1.95 1.14)" />
<path d="M 81.0 65.6 C 93.3 67.3, 10.6 47.0, 21.2 45.7 C 35.3 64.0, 24.6 73.3, 39.4 80.7 C 40.7 81.8, 49.8 9.5, 57.5 1.4 C 61.6 3.6, 100.0 4.2, 89.7 15.9 C 100.0 7.7, 28.2 0.0, 17.8 11.2 C 27.5 7.8, 78.4 58.6, 88.7 47.9 C 99.2 67.3, 43.0 53.6, 31.9 54.6 C 29.9 63.7, 34.2 52.0, 33.1 61.7 C 42.8 45.7, 58.1 40.6, 70.0 29.5 C 73.5 14.3, 9.2 77.9, 23.3 91.3 " fill="hsl(106, 75%, 59%)" fill-opacity="0.30" stroke="none" stroke-width="2.27"  transform="translate(2.7 97.1) rotate(318.3) scale(1.50 0.56)" />
<path d="M 70.3 89.9 C 85.3 87.7, 66.7 82.4, 81.3 68.8 C 66.4 75.0, 81.5 57.7, 78.7 57.2 C 79.3 65.9, 25.2 100.0, 24.7 85.9 C 39.1 73.8, 26.2 11.0, 29.6 20.8 C 25.0 14.4, 95.5 61.2, 97.7 53.8 C 100.0 60.8, 88.3 78.3, 89.8 75.8 C 95.7 72.4, 18.2 82.3, 6.8 71.8 C 0.0 82.9, 19.5 59.8, 24.8 45.7 Z" fill="none" fill-opacity="0.82" stroke="hsl(322, 74%, 44%)" stroke-width="2.17" filter="url(#f1)" transform="translate(42.7 98.4) rotate(331.0) scale(1.82 1.11)" />
<path d="M 74.3 60.6 C 83.1 70.0, 22.1 90.3, 28.2 83.9 C 34.7 84.2, 76.6 35.5, 68.0 42.9 C 83.5 53.8, 49.0 21.5, 41.2 34.7 C 24.7 45.2, 62.8 18.0, 56.4 23.9 C 37.5 25.5, 71.4 65.7, 81.4 63.8 C 86.0 57.0, 23.8 70.9, 25.0 74.6 C 41.5 89.0, 43.8 16.7, 39.1 29.4 C 33.4 11.6, 58.5 21.3, 53.9 8.4 C 35.1 24.6, 69.6 22.9, 78.8 15.2 Z" fill="hsl(242, 72%, 49%)" fill-opacity="0.67" stroke="none" stroke-width="1.44" filter="url(#f1)" transform="translate(66.9 79.3) rotate(54.5) scale(1.98 1.25)" />
<rect x="11.8" y="3.3" width="45.4" height="24.5" rx="1.6" fill="hsl(290, 83%, 63%)" fill-opacity="0.91"   transform="translate(18.1 2.9) rotate(257.0) scale(1.23 0.60)" />
<path d="M 20.8 58.3 C 27.8 70.7, 87.2 0.0, 99.4 7.4 C 85.3 17.8, 47.3 69.1, 57.9 79.0 C 40.0 82.7, 35.7 11.3, 43.2 25.0 C 42.3 34.8, 38.6 57.4, 34.4 67.2 C 24.7 74.7, 41.0 88.3, 51.4 82.1 C 42.8 99.7, 46.7 96.6, 34.9 87.2 C 38.3 75.2, 0.0 61.4, 4.5 57.2 C 0.0 39.5, 9.2 57.7, 10.5 62.6 C 28.7 48.0, 83.3 27.3, 78.5 14.9 Z" fill="hsl(83, 65%, 44%)" fill-opacity="0.50" stroke="none" stroke-width="4.28" filter="url(#f1)" transform="translate(96.9 88.8) rotate(108.6) scale(1.40 1.86)" />
<circle cx="77.1" cy="32.9" r="2.6" fill="url(#g1)" fill-opacity="0.79"   />
<path d="M 76.5 97.9 C 75.6 100.0, 100.0 37.7, 99.9 52.2 C 100.0 70.4, 55.0 52.4, 55.7 60.8 C 57.2 52.4, 67.2 48.2, 65.9 40.1 C 84.3 54.0, 39.0 78.3, 38.4 89.8 C 26.6 97.1, 11.4 70.3, 2.6 61.5 C 0.0 66.0, 7.9 85.3, 22.7 77.4 Z" fill="hsl(290, 83%, 63%)" fill-opacity="0.70" stroke="none" stroke-width="3.95"  transform="translate(35.1 99.4) rotate(244.4) scale(1.05 1.13)" />
<path d="M 29.1 12.2 C 36.4 21.3, 59.3 55.9, 52.4 57.9 C 50.6 53.9, 19.5 27.2, 16.7 26.0 C 35.0 23.7, 16.4 82.7, 18.6 77.2 C 7.7 78.0, 42.6 0.0, 46.6 12.9 C 62.9 3.5, 77.2 21.4, 65.6 14.1 C 51.9 29.9, 72.3 17.3, 75.4 27.2 C 87.0 28.8, 69.6 73.5, 57.8 78.8 C 47.6 74.3, 48.4 17.6, 61.9 16.4 C 42.7 14.1, 4.9 56.4, 7.3 52.9 C 0.0 67.5, 80.3 57.5, 77.7 60.5 Z" fill="none" fill-opacity="0.49" stroke="hsl(290, 83%, 63%)" stroke-width="4.23"  transform="translate(3.2 18.5) rotate(109.3) scale(1.93 1.05)" />
<path d="M 45.0 4.5 C 50.2 0.0, 28.1 37.5, 36.0 33.7 C 49.3 26.9, 55.1 23.0, 48.6 37.7 C 56.7 43.0, 15.1 67.8, 24.8 78.2 C 33.2 79.7, 1.7 59.0, 14.5 59.7 C 22.8 59.4, 70.8 57.5, 83.4 45.6 C 89.6 60.7, 32.8 69.8, 41.1 60.2 Z" fill="none" fill-opacity="0.98" stroke="hsl(106, 75%, 59%)" stroke-width="5.10"  transform="translate(53.0 85.1) rotate(236.1) scale(1.75 0.91)" />
<path d="M 17.8 30.4 C 20.8 23.8, 0.3 87.3, 6.0 84.7 C 9.3 67.0, 80.7 76.1, 84.5 69.3 C 90.6 74.7, 33.1 23.6, 47.3 20.0 C 60.2 10.2, 56.3 27.5, 43.5 35.6 C 40.0 20.1, 0.0 26.0, 1.0 29.9 C 0.0 21.0, 37.5 19.6, 42.1 15.0 C 38.6 15.9, 40.9 70.3, 54.6 83.5 C 56.4 100.0, 90.0 59.7, 88.9 72.2 C 96.3 70.8, 66.9 49.7, 79.3 53.4 Z" fill="none" fill-opacity="1.00" stroke="hsl(104, 72%, 65%)" stroke-width="4.71"   />
<path d="M 74.7 85.7 C 58.7 73.0, 31.6 78.5, 35.6 72.2 C 27.8 91.4, 57.3 33.5, 45.7 37.6 C 37.6 37.6, 26.0 76.1, 26.5 62.1 C 9.1 45.1, 79.3 24.1, 92.8 10.9 C 100.0 9.9, 53.2 39.0, 50.4 42.3 C 34.4 38.0, 93.5 15.5, 93.9 6.5 Z" fill="hsl(144, 86%, 72%)" fill-opacity="0.67" stroke="none" stroke-width="3.36"  transform="translate(36.9 53.0) rotate(106.5) scale(0.67 0.76)" />
<g opacity="0.077">
<rect x="0" y="0" width="1" height="100" fill="black" />
<rect x="22" y="0" width="1" height="100" fill="black" />
<rect x="44" y="0" width="1" height="100" fill="black" />
<rect x="66" y="0" width="1" height="100" fill="black" />
<rect x="88" y="0" width="1" height="100" fill="black" />
<rect x="0" y="0" width="100" height="1" fill="black" />
<rect x="0" y="22" width="100" height="1" fill="black" />
<rect x="0" y="44" width="100" height="1" fill="black" />
<rect x="0" y="66" width="100" height="1" fill="black" />
<rect x="0" y="88" width="100" height="1" fill="black" />
</g>

</svg>
