<?xml version="1.0" encoding="UTF-8"?>
<svg xmlns="http://www.w3.org/2000/svg" width="100" height="100" viewBox="0 0 100 100">
<defs>
<linearGradient id="g0" x1="0%" y1="0%" x2="100%" y2="100%">
<stop offset="0.0%" stop-color="hsl(106, 75%, 59%)" />
<stop offset="33.3%" stop-color="hsl(183, 71%, 60%)" />
<stop offset="66.7%" stop-color="hsl(242, 72%, 49%)" />
<stop offset="100.0%" stop-color="hsl(322, 74%, 44%)" />
</linearGradient>
<linearGradient id="g1" x1="0%" y1="0%" x2="100%" y2="100%">
<stop offset="0.0%" stop-color="hsl(290, 83%, 63%)" />
<stop offset="33.3%" stop-color="hsl(2, 82%, 55%)" />
<stop offset="66.7%" stop-color="hsl(86, 72%, 68%)" />
<stop offset="100.0%" stop-color="hsl(83, 65%, 44%)" />
</linearGradient>
<linearGradient id="g2" x1="0%" y1="0%" x2="100%" y2="100%">
<stop offset="0.0%" stop-color="hsl(40, 53%, 69%)" />
<stop offset="33.3%" stop-color="hsl(104, 72%, 65%)" />
<stop offset="66.7%" stop-color="hsl(144, 86%, 72%)" />
<stop offset="100.0%" stop-color="hsl(151, 70%, 62%)" />
</linearGradient>
<filter id="f1" x="-20%" y="-20%" width="140%" height="140%">
  <feGaussianBlur stdDeviation="2.079934103068881" />
</filter>

</defs>

<path d="M 84.7 93.9 C 75.2 74.4, 12.8 75.1, 13.2 79.0 C 24.3 83.8, 17.6 14.1, 27.0 2.4 C 8.7 0.0, 24.1 15.8, 21.6 7.0 C 24.0 6.0, 55.8 7.8, 56.7 19.4 C 51.8 0.3, 70.3 5.7, 60.0 12.0 C 61.3 0.0, 37.0 74.8, 39.6 86.5 Z" fill="none" fill-opacity="0.32" stroke="hsl(83, 65%, 44%)" stroke-width="3.82"  transform="translate(73.5 20.0) rotate(95.1) scale(0.93 1.21)" />
<rect x="29.6" y="58.4" width="20.4" height="39.7" rx="0" fill="hsl(151, 70%, 62%)" fill-opacity="0.70"   transform="translate(81.4 10.9) rotate(212.1) scale(1.42 1.95)" />
<path d="M 91.1 60.7 C 100.0 50.6, 35.5 67.1, 46.3 75.3 C 36.4 77.7, 82.5 0.0, 71.3 3.3 C 60.2 10.2, 23.0 78.5, 36.1 81.8 C 53.7 98.3, 69.7 58.4, 66.5 47.7 C 84.9 35.2, 91.0 50.4, 95.9 62.1 C 100.0 45.0, 0.0 44.5, 4.2 31.6 Z" fill="hsl(104, 72%, 65%)" fill-opacity="0.68" stroke="none" stroke-width="3.99"  transform="translate(28.5 21.8) rotate(75.3) scale(1.14 0.86)" />
<path d="M 94.6 30.3 C 86.9 37.5, 84.8 98.8, 78.7 91.6 C 80.1 84.4, 19.4 76.9, 11.4 88.2 C 19.4 87.5, 0.0 37.9, 5.1 30.8 C 0.0 39.5, 37.9 0.0, 36.5 12.4 C 23.4 8.5, 25.7 4.8, 14.3 7.2 C 30.6 21.2, 63.7 79.8, 49.6 85.4 C 69.3 82.7, 97.5 82.6, 93.1 85.8 C 90.6 67.8, 78.1 22.1, 89.6 35.7 C 74.2 18.5, 84.9 45.3, 91.5 53.4 Z" fill="none" fill-opacity="0.87" stroke="hsl(322, 74%, 44%)" stroke-width="2.83"  transform="translate(89.3 77.6) rotate(162.9) scale(1.80 0.86)" />
<rect x="50.2" y="12.1" width="29.4" height="24.2" rx="18.3" fill="none" fill-opacity="0.34"  filter="url(#f1)"  />
<path d="M 98.4 19.9 C 100.0 11.8, 45.6 11.2, 42.9 19.8 C 38.3 28.3, 65.9 72.5, 52.6 85.1 C 57.2 79.3, 61.3 100.0, 65.9 98.6 C 69.1 100.0, 0.0 93.0, 3.0 79.9 C 8.7 62.1, 0.0 100.0, 2.1 91.8 C 0.0 91.3, 83.5 30.5, 91.2 34.1 C 76.2 27.3, 29.6 78.0, 27.6 82.7 C 27.4 100.0, 52.0 36.5, 43.3 50.5 " fill="hsl(104, 72%, 65%)" fill-opacity="0.51" stroke="none" stroke-width="3.77"  transform="translate(0.8 11.5) rotate(181.8) scale(1.24 1.24)" />
<path d="M 90.3 78.3 C 79.6 91.1, 68.3 78.1, 70.0 69.2 C 67.5 59.7, 87.5 76.3, 80.6 72.8 C 70.2 71.6, 43.9 66.3, 30.4 65.4 C 35.6 45.7, 44.8 65.3, 31.2 66.2 C 47.3 58.0, 49.7 84.0, 59.2 87.3 C 77.8 67.7, 1.0 60.4, 1.2 73.3 C 2.3 67.4, 94.9 100.0, 92.1 93.9 C 99.2 81.6, 61.7 32.8, 72.1 29.0 C 69.6 34.1, 59.7 75.9, 72.6 67.8 C 90.8 78.5, 22.8 0.0, 17.3 7.5 Z" fill="hsl(104, 72%, 65%)" fill-opacity="0.91" stroke="none" stroke-width="3.86"  transform="translate(68.5 93.1) rotate(267.1) scale(0.62 0.74)" />
<path d="M 64.8 60.7 C 50.7 46.6, 16.7 27.9, 3.1 24.5 C 16.8 11.7, 54.5 90.5, 63.8 86.9 C 57.8 68.1, 48.0 68.8, 41.1 63.6 C 59.0 45.2, 59.4 36.7, 51.9 32.0 C 59.1 22.5, 21.4 88.7, 12.7 73.8 C 0.0 71.4, 46.1 34.2, 54.1 36.8 C 61.4 40.0, 38.5 24.7, 31.8 15.1 Z" fill="none" fill-opacity="0.27" stroke="hsl(242, 72%, 49%)" stroke-width="2.64"  transform="translate(8.0 50.7) rotate(316.0) scale(1.15 0.89)" />
<circle cx="52.6" cy="46.1" r="8.1" fill="url(#g2)" fill-opacity="0.88"  transform="translate(51.3 24.4) rotate(141.8) scale(1.33 0.82)" />
<path d="M 27.3 21.0 C 7.7 23.6, 31.3 92.1, 44.4 77.4 C 42.7 65.1, 61.9 11.6, 71.2 7.1 C 57.9 4.6, 80.6 100.0, 78.7 96.9 C 78.5 94.8, 82.9 83.4, 70.9 69.1 C 71.8 62.3, 0.0 25.5, 1.7 28.5 C 9.5 44.7, 44.6 53.7, 30.3 41.1 C 26.6 54.9, 18.3 31.6, 19.9 35.4 C 9.1 17.1, 30.2 28.5, 44.4 40.1 C 27.0 27.1, 10.2 33.2, 23.3 31.6 C 11.3 17.4, 6.7 59.0, 11.1 46.7 " fill="none" fill-opacity="0.88" stroke="hsl(2, 82%, 55%)" stroke-width="3.85"  transform="translate(46.0 68.2) rotate(132.6) scale(0.95 1.62)" />
<rect x="39.8" y="66.0" width="41.6" height="24.4" rx="0" fill="none" fill-opacity="0.65" stroke="hsl(106, 75%, 59%)" stroke-width="4.8"  transform="translate(36.8 26.9) rotate(329.0) scale(1.23 0.86)" />
<circle cx="27.7" cy="44.0" r="13.4" fill="url(#g0)" fill-opacity="0.82"  transform="translate(56.7 30.3) rotate(217.7) scale(1.21 1.12)" />
<path d="M 68.8 70.1 C 63.3 55.5, 93.6 34.4, 87.0 38.9 C 73.2 57.9, 30.6 73.4, 35.0 65.1 C 24.2 58.2, 14.9 42.4, 29.3 47.7 C 10.6 38.0, 44.7 100.0, 42.1 96.9 C 47.2 89.3, 21.0 0.0, 23.9 10.6 C 32.6 15.2, 97.7 28.9, 85.0 33.0 C 69.6 49.8, 30.4 40.6, 43.3 33.9 C 46.7 35.0, 85.4 56.3, 70.8 60.0 C 56.6 76.1, 8.9 69.0, 13.4 63.9 C 17.7 80.8, 33.1 90.5, 26.3 80.6 Z" fill="hsl(242, 72%, 49%)" fill-opacity="0.51" stroke="none" stroke-width="2.63" filter="url(#f1)" transform="translate(89.1 83.2) rotate(119.6) scale(0.58 1.68)" />
<path d="M 28.2 55.2 C 13.9 69.3, 21.4 12.9, 33.0 6.3 C 47.3 0.0, 16.8 76.7, 7.1 76.7 C 0.0 70.7, 35.6 100.0, 21.3 95.2 C 40.1 80.8, 100.0 24.6, 95.7 21.3 C 100.0 6.0, 45.6 58.6, 36.2 66.4 C 51.7 54.6, 100.0 56.4, 92.3 50.4 C 97.5 67.4, 14.2 0.0, 9.6 4.8 Z" fill="hsl(40, 53%, 69%)" fill-opacity="0.77" stroke="none" stroke-width="1.76"  transform="translate(66.3 49.4) rotate(233.9) scale(1.29 1.40)" />
<circle cx="69.0" cy="92.1" r="4.0" fill="hsl(83, 65%, 44%)" fill-opacity="0.68" filter="url(#f1)" transform="translate(79.7 29.3) rotate(255.6) scale(1.57 1.66)" />
<path d="M 67.0 18.4 C 80.2 20.1, 83.9 46.6, 89.2 35.9 C 82.9 37.6, 12.7 40.5, 22.9 33.8 C 36.7 25.7, 60.4 15.3, 71.8 1.3 C 85.2 19.5, 59.0 19.2, 72.4 5.0 C 72.5 15.0, 76.8 37.4, 65.5 35.8 C 56.0 44.7, 91.5 12.2, 98.9 19.5 C 81.2 2.0, 36.0 6.4, 49.5 1.9 Z" fill="hsl(290, 83%, 63%)" fill-opacity="0.99" stroke="none" stroke-width="2.85"  transform="translate(77.2 45.4) rotate(25.6) scale(0.53 0.50)" />
<path d="M 61.9 89.8 C 54.0 86.8, 24.5 97.3, 23.0 95.8 C 29.9 90.4, 69.1 79.2, 72.8 68.0 C 71.0 71.6, 83.7 44.0, 95.2 53.6 C 91.0 56.0, 99.5 61.9, 89.3 57.2 C 96.6 67.6, 25.3 70.8, 26.8 76.7 C 8.8 84.9, 26.4 72.8, 27.4 80.0 Z" fill="none" fill-opacity="0.26" stroke="hsl(322, 74%, 44%)" stroke-width="2.21"  transform="translate(23.2 73.1) rotate(144.9) scale(0.76 1.98)" />
<rect x="7.8" y="59.9" width="37.5" height="30.4" rx="0" fill="none" fill-opacity="0.95" stroke="hsl(104, 72%, 65%)" stroke-width="1.2" filter="url(#f1)"  />
<circle cx="43.4" cy="3.5" r="12.8" fill="url(#g1)" fill-opacity="0.94"  transform="translate(57.4 32.0) rotate(17.4) scale(1.26 1.23)" />
<rect x="43.0" y="32.6" width="29.7" height="31.1" rx="0" fill="none" fill-opacity="0.86"   transform="translate(97.0 41.4) rotate(274.7) scale(1.04 1.49)" />
<circle cx="48.3" cy="55.0" r="12.0" fill="url(#g1)" fill-opacity="0.67"  transform="translate(67.4 81.9) rotate(261.0) scale(0.73 1.23)" />
<rect x="10.0" y="41.7" width="39.2" height="26.1" rx="7.0" fill="hsl(290, 83%, 63%)" fill-opacity="0.56" stroke="hsl(86, 72%, 68%)" stroke-width="4.6"  transform="translate(37.9 26.1) rotate(320.1) scale(1.96 1.40)" />
<rect x="10.7" y="75.8" width="44.6" height="22.1" rx="10.4" fill="none" fill-opacity="0.65"    />
<rect x="29.1" y="29.5" width="40.9" height="10.4" rx="0" fill="none" fill-opacity="0.91"  filter="url(#f1)" transform="translate(40.1 92.2) rotate(118.4) scale(0.68 0.59)" />
<path d="M 42.4 67.0 C 25.2 68.8, 61.5 36.4, 63.1 38.2 C 65.3 21.4, 60.8 52.4, 57.3 51.3 C 55.6 48.0, 0.0 15.9, 13.4 14.3 C 8.6 0.0, 58.8 100.0, 45.2 98.1 C 58.2 100.0, 52.3 41.9, 37.5 43.2 C 34.9 63.0, 20.8 91.5, 11.4 83.3 C 29.8 96.3, 41.0 63.4, 48.9 57.1 C 56.3 60.6, 85.4 86.2, 88.3 81.1 C 100.0 89.9, 20.4 87.6, 27.0 85.0 C 8.5 77.2, 89.9 58.8, 85.7 64.4 " fill="none" fill-opacity="0.88" stroke="hsl(151, 70%, 62%)" stroke-width="1.84"  transform="translate(20.7 72.5) rotate(191.2) scale(1.03 0.53)" />
<circle cx="7.1" cy="56.4" r="7.9" fill="hsl(322, 74%, 44%)" fill-opacity="0.81"  transform="translate(73.2 68.6) rotate(200.2) scale(1.08 0.99)" />
<path d="M 33.0 18.4 C 37.5 17.0, 7.8 100.0, 3.9 93.5 C 15.6 80.4, 27.2 32.0, 15.7 38.1 C 16.5 51.5, 55.0 100.0, 57.8 95.2 C 42.9 83.7, 44.6 34.3, 54.8 40.4 C 70.8 51.5, 63.9 20.7, 59.0 22.1 C 60.2 22.7, 18.3 83.3, 7.7 97.5 C 0.5 96.5, 55.3 78.1, 42.7 76.9 Z" fill="hsl(144, 86%, 72%)" fill-opacity="0.84" stroke="none" stroke-width="4.11"   />
<path d="M 51.5 71.2 C 36.7 79.0, 53.9 65.3, 41.8 56.9 C 24.2 69.3, 85.7 58.7, 98.4 43.8 C 100.0 50.6, 53.8 38.9, 56.2 45.3 C 51.7 62.3, 10.3 90.9, 2.0 94.1 C 13.0 98.5, 16.3 95.7, 7.9 95.9 C 9.7 100.0, 3.3 86.4, 11.0 86.7 C 2.7 97.5, 15.8 100.0, 30.8 95.0 C 41.7 87.3, 0.0 47.4, 3.9 34.9 C 0.0 49.5, 94.3 64.6, 98.0 51.3 Z" fill="none" fill-opacity="0.68" stroke="hsl(86, 72%, 68%)" stroke-width="4.76"   />
<rect x="32.2" y="41.0" width="21.2" height="32.1" rx="10.9" fill="none" fill-opacity="0.89"   transform="translate(86.9 9.8) rotate(73.4) scale(0.85 1.26)" />
<path d="M 62.2 97.6 C 75.8 82.6, 71.8 41.5, 66.3 54.0 C 66.0 34.1, 44.5 31.2, 38.9 34.6 C 42.1 30.4, 6.6 10.3, 5.0 7.2 C 6.7 0.0, 99.4 50.3, 86.7 37.8 C 97.7 49.6, 56.5 66.8, 60.4 56.8 C 70.2 43.8, 52.4 89.5, 49.7 93.8 C 52.3 100.0, 75.1 80.5, 63.1 77.9 Z" fill="none" fill-opacity="0.34" stroke="hsl(144, 86%, 72%)" stroke-width="4.60"  transform="translate(40.8 74.4) rotate(248.9) scale(0.89 1.08)" />
<circle cx="87.4" cy="96.7" r="0.1" fill="url(#g0)" fill-opacity="0.70"  transform="translate(88.2 96.9) rotate(121.8) scale(0.67 1.21)" />
<path d="M 62.2 58.7 C 67.7 40.6, 33.2 70.6, 43.4 81.8 C 48.3 80.3, 86.9 39.2, 84.9 41.5 C 81.9 36.1, 43.1 100.0, 33.1 90.2 C 15.6 100.0, 92.1 44.1, 83.4 44.2 C 90.1 60.0, 62.6 14.9, 50.9 9.4 C 40.6 18.5, 55.7 17.6, 54.2 6.5 C 65.5 0.0, 64.2 47.2, 73.4 48.0 C 90.1 64.2, 0.0 17.1, 1.7 28.9 Z" fill="none" fill-opacity="0.93" stroke="hsl(290, 83%, 63%)" stroke-width="0.85"  transform="translate(52.7 13.3) rotate(51.8) scale(1.10 0.61)" />
<rect x="50.6" y="12.1" width="46.3" height="17.8" rx="12.1" fill="hsl(151, 70%, 62%)" fill-opacity="0.65" stroke="hsl(144, 86%, 72%)" stroke-width="3.2"  transform="translate(68.5 49.9) rotate(106.1) scale(0.56 1.02)" />
<path d="M 53.1 13.2 C 71.9 8.9, 84.7 93.4, 86.5 91.0 C 77.6 100.0, 23.3 35.4, 31.0 42.1 C 13.3 29.0, 98.0 26.1, 95.1 12.8 C 80.1 0.0, 57.0 71.0, 57.3 82.3 C 38.3 94.4, 0.0 53.7, 0.4 46.4 C 0.0 59.3, 94.8 17.9, 96.0 9.8 " fill="hsl(86, 72%, 68%)" fill-opacity="0.27" stroke="none" stroke-width="4.39"   />
<path d="M 25.6 98.9 C 40.1 94.4, 100.0 97.2, 100.0 84.4 C 89.1 79.1, 51.7 64.3, 63.8 79.2 C 65.4 77.2, 16.3 43.4, 29.4 51.6 C 16.6 59.1, 44.7 58.2, 57.9 47.5 C 63.8 45.4, 19.9 42.4, 31.3 50.3 C 43.9 49.0, 7.3 14.1, 12.6 25.9 Z" fill="hsl(322, 74%, 44%)" fill-opacity="0.34" stroke="none" stroke-width="3.69"  transform="translate(39.4 34.9) rotate(39.7) scale(1.34 1.51)" />
<rect x="66.0" y="58.0" width="20.3" height="36.2" rx="9.2" fill="hsl(144, 86%, 72%)" fill-opacity="0.49" stroke="hsl(104, 72%, 65%)" stroke-width="2.4"  transform="translate(92.1 82.9) rotate(189.1) scale(2.00 1.76)" />
<circle cx="28.0" cy="94.4" r="5.0" fill="hsl(242, 72%, 49%)" fill-opacity="0.79"  transform="translate(33.1 40.8) rotate(175.0) scale(1.24 1.46)" />
<circle cx="98.9" cy="16.5" r="1.0" fill="url(#g0)" fill-opacity="0.56"  transform="translate(49.0 1.1) rotate(201.8) scale(0.77 1.75)" />
<path d="M 51.5 49.9 C 55.0 58.6, 0.0 15.4, 3.7 7.0 C 0.0 13.4, 34.1 10.7, 23.5 23.0 C 4.8 30.0, 26.1 48.7, 30.0 35.5 C 45.3 33.0, 36.3 31.5, 35.1 19.7 C 40.5 35.0, 36.7 52.3, 36.8 51.4 C 41.5 39.9, 77.0 86.2, 85.4 85.2 C 83.3 100.0, 16.8 0.0, 12.7 5.4 C 12.7 0.0, 21.6 26.6, 11.4 33.0 C 21.7 41.1, 74.7 23.0, 86.9 24.8 C 93.1 11.2, 71.4 84.3, 58.2 99.2 " fill="hsl(322, 74%, 44%)" fill-opacity="0.88" stroke="none" stroke-width="3.24"  transform="translate(70.0 31.0) rotate(358.6) scale(1.33 1.37)" />
<path d="M 26.6 97.3 C 42.7 100.0, 56.8 34.4, 46.3 23.2 C 48.4 33.5, 39.9 23.8, 49.8 11.7 C 46.3 14.3, 28.6 6.5, 41.6 3.5 C 23.5 0.0, 34.9 78.3, 21.9 76.3 C 31.3 63.3, 80.4 19.0, 80.9 29.8 C 99.3 20.2, 100.0 10.0, 88.0 16.1 " fill="hsl(2, 82%, 55%)" fill-opacity="0.54" stroke="none" stroke-width="1.28"  transform="translate(60.1 25.5) rotate(36.5) scale(1.08 0.79)" />
<path d="M 9.5 45.9 C 8.5 27.4, 60.7 27.0, 48.8 20.9 C 36.6 40.8, 29.1 19.4, 25.4 32.3 C 28.4 19.3, 0.0 52.5, 6.9 57.6 C 0.0 66.9, 57.8 57.7, 66.8 71.3 C 86.3 80.1, 44.5 64.5, 52.7 69.5 C 55.1 88.9, 74.2 62.7, 75.6 76.0 Z" fill="none" fill-opacity="1.00" stroke="hsl(242, 72%, 49%)" stroke-width="3.79"  transform="translate(59.8 30.1) rotate(258.8) scale(1.72 1.18)" />
<rect x="36.3" y="22.1" width="38.9" height="17.9" rx="13.4" fill="hsl(104, 72%, 65%)" fill-opacity="0.46" stroke="hsl(40, 53%, 69%)" stroke-width="3.1" filter="url(#f1)" transform="translate(8.7 97.5) rotate(133.5) scale(1.68 0.50)" />
<path d="M 45.4 92.8 C 54.1 100.0, 77.6 51.2, 66.1 63.5 C 54.1 47.8, 27.9 80.5, 24.3 65.8 C 41.6 60.2, 73.1 67.2, 83.6 79.8 C 88.7 87.2, 5.6 21.6, 11.1 8.8 C 29.4 1.7, 19.2 16.2, 13.8 19.4 C 25.4 35.2, 25.8 27.2, 15.8 28.4 C 26.0 36.1, 1.1 99.3, 12.8 92.5 C 26.9 100.0, 89.5 82.3, 98.5 90.1 Z" fill="hsl(2, 82%, 55%)" fill-opacity="0.83" stroke="none" stroke-width="1.39"  transform="translate(7.8 19.0) rotate(47.1) scale(1.87 0.76)" />
<circle cx="44.6" cy="7.8" r="10.7" fill="url(#g0)" fill-opacity="0.77"  transform="translate(8.3 41.1) rotate(209.7) scale(1.88 1.35)" />
<path d="M 80.6 43.4 C 87.4 44.8, 65.2 9.6, 71.8 12.8 C 67.0 13.1, 29.9 43.0, 36.9 51.2 C 36.8 58.4, 9.3 27.7, 16.0 25.8 C 33.7 19.8, 100.0 16.4, 99.4 22.2 C 92.3 3.8, 42.5 0.0, 52.2 1.8 C 66.3 0.0, 36.5 31.9, 36.7 44.5 C 30.8 34.1, 35.0 32.2, 45.6 41.1 Z" fill="none" fill-opacity="0.66" stroke="hsl(183, 71%, 60%)" stroke-width="1.62"  transform="translate(15.6 10.1) rotate(329.2) scale(1.58 0.78)" />
<path d="M 21.4 43.6 C 38.9 59.4, 48.7 90.0, 56.0 82.4 C 44.7 65.7, 27.0 39.0, 22.1 46.8 C 9.3 55.9, 27.3 27.3, 32.5 14.4 C 25.1 0.0, 49.3 21.2, 48.4 7.1 C 64.5 14.2, 96.0 7.5, 99.3 4.4 C 92.5 23.6, 0.0 67.1, 3.1 54.6 " fill="hsl(242, 72%, 49%)" fill-opacity="0.42" stroke="none" stroke-width="2.62"  transform="translate(10.5 44.6) rotate(104.2) scale(1.16 0.58)" />
<path d="M 83.8 9.0 C 68.3 18.6, 7.0 100.0, 18.7 91.1 C 31.5 92.3, 64.8 37.2, 57.5 22.5 C 74.3 35.5, 20.9 81.7, 28.0 88.2 C 35.0 94.0, 62.3 3.9, 67.6 11.9 C 83.9 31.2, 69.3 98.6, 68.8 87.1 C 54.4 98.4, 91.5 82.5, 92.7 82.4 C 75.0 95.9, 89.5 50.5, 81.2 60.7 " fill="hsl(2, 82%, 55%)" fill-opacity="0.47" stroke="none" stroke-width="4.39"  transform="translate(0.0 93.6) rotate(217.0) scale(1.81 1.20)" />
<path d="M 58.0 83.0 C 38.8 72.1, 89.0 23.7, 89.0 23.3 C 100.0 25.9, 1.2 30.5, 0.0 23.0 C 2.9 13.4, 32.8 23.9, 22.1 20.7 C 10.4 2.5, 14.4 37.6, 20.4 32.5 C 11.5 13.4, 31.0 68.0, 38.4 72.4 C 51.9 71.3, 71.6 68.3, 68.2 74.4 C 75.2 55.2, 66.9 30.6, 60.3 41.3 C 68.8 48.7, 25.5 90.3, 25.8 92.0 " fill="hsl(2, 82%, 55%)" fill-opacity="0.63" stroke="none" stroke-width="1.66"   />
<path d="M 56.2 28.4 C 37.2 28.0, 73.8 100.0, 65.6 92.0 C 53.7 92.7, 75.1 63.0, 68.6 55.0 C 55.0 71.1, 32.2 49.0, 26.3 62.3 C 21.4 79.6, 79.4 62.0, 66.4 62.1 C 62.8 51.1, 83.5 46.8, 85.3 54.4 C 65.4 37.6, 20.3 61.3, 31.2 49.5 C 18.2 37.5, 46.5 0.0, 47.9 0.3 Z" fill="hsl(104, 72%, 65%)" fill-opacity="0.67" stroke="none" stroke-width="4.05"   />
<rect x="53.7" y="41.7" width="20.9" height="14.8" rx="0" fill="hsl(183, 71%, 60%)" fill-opacity="0.65"   transform="translate(44.6 52.1) rotate(22.8) scale(1.74 1.39)" />
<rect x="37.4" y="13.4" width="38.9" height="40.0" rx="2.6" fill="none" fill-opacity="0.34"   transform="translate(51.6 48.0) rotate(349.8) scale(1.03 0.99)" />
<path d="M 8.8 85.2 C 27.9 82.0, 74.2 81.0, 87.1 75.7 C 100.0 87.3, 12.3 93.7, 10.9 84.9 C 8.8 100.0, 83.2 57.9, 70.7 56.2 C 64.0 40.9, 69.3 23.6, 59.3 21.9 C 60.6 29.0, 90.0 82.8, 79.3 80.0 C 87.1 75.6, 64.9 82.2, 61.2 90.4 Z" fill="hsl(86, 72%, 68%)" fill-opacity="0.65" stroke="none" stroke-width="3.07"  transform="translate(68.1 3.5) rotate(277.5) scale(1.24 1.62)" />
<path d="M 59.0 84.1 C 70.9 91.0, 72.0 87.0, 63.4 74.0 C 82.2 73.0, 81.8 60.8, 69.8 49.3 C 68.3 51.6, 0.0 47.4, 6.1 55.1 C 0.0 38.7, 19.5 99.2, 19.8 86.5 C 28.7 95.1, 89.5 62.9, 88.5 71.1 C 89.4 59.0, 100.0 83.6, 99.3 77.7 Z" fill="none" fill-opacity="0.99" stroke="hsl(144, 86%, 72%)" stroke-width="1.20" filter="url(#f1)"  />
<path d="M 24.2 54.3 C 39.6 38.1, 6.5 59.2, 4.4 52.8 C 4.0 57.9, 11.6 100.0, 9.4 95.2 C 10.6 83.5, 37.5 83.0, 41.8 70.4 C 48.2 88.6, 23.6 17.1, 11.5 23.7 C 19.6 37.5, 100.0 85.9, 95.0 90.5 C 82.8 100.0, 14.1 77.0, 27.6 76.9 C 9.0 86.6, 94.7 67.4, 94.3 76.5 C 100.0 63.1, 37.8 83.6, 41.9 94.5 Z" fill="none" fill-opacity="0.70" stroke="hsl(83, 65%, 44%)" stroke-width="3.21"  transform="translate(8.8 96.7) rotate(322.7) scale(1.50 0.77)" />
<path d="M 10.9 35.0 C 20.6 35.4, 93.3 91.6, 95.2 85.7 C 78.9 92.5, 36.9 10.4, 32.9 20.0 C 29.5 16.7, 0.0 47.3, 0.0 58.4 C 0.0 50.6, 52.1 63.0, 63.5 77.7 C 49.6 73.2, 73.1 37.3, 63.0 47.3 C 45.1 38.5, 100.0 98.3, 95.9 97.7 C 84.1 87.0, 6.2 0.0, 20.9 1.3 C 19.5 3.8, 33.1 62.8, 46.6 50.1 C 55.2 47.1, 78.9 0.0, 73.0 3.0 Z" fill="hsl(86, 72%, 68%)" fill-opacity="0.44" stroke="none" stroke-width="3.69"  transform="translate(32.9 45.0) rotate(132.9) scale(1.97 1.11)" />
<path d="M 68.6 50.4 C 49.0 60.9, 47.4 100.0, 55.8 96.3 C 46.5 96.5, 37.4 56.5, 37.5 42.0 C 30.2 43.8, 40.3 67.5, 47.3 64.4 C 30.0 78.8, 38.5 100.0, 30.9 98.2 C 34.5 94.3, 24.3 21.0, 16.2 6.2 C 5.5 24.1, 5.2 34.7, 13.6 20.9 Z" fill="hsl(106, 75%, 59%)" fill-opacity="0.87" stroke="none" stroke-width="1.94"  transform="translate(86.4 51.8) rotate(95.3) scale(1.27 1.33)" />
<circle cx="12.2" cy="87.8" r="6.9" fill="hsl(144, 86%, 72%)" fill-opacity="0.90"  transform="translate(85.4 92.1) rotate(166.2) scale(1.72 1.03)" />
<rect x="61.8" y="5.9" width="35.4" height="38.4" rx="0" fill="hsl(40, 53%, 69%)" fill-opacity="0.84"   transform="translate(35.8 86.9) rotate(152.8) scale(1.01 1.24)" />
<path d="M 15.8 16.8 C 30.3 9.0, 100.0 70.7, 89.7 65.0 C 100.0 55.6, 15.9 0.0, 20.9 9.2 C 16.0 25.3, 41.3 51.3, 43.7 38.3 C 52.1 50.0, 36.6 71.5, 28.2 62.7 C 34.0 56.6, 0.1 88.9, 12.6 74.5 C 0.0 75.5, 43.1 0.0, 45.9 2.2 " fill="hsl(2, 82%, 55%)" fill-opacity="0.61" stroke="none" stroke-width="1.49"  transform="translate(27.0 98.4) rotate(24.1) scale(1.14 1.47)" />
<path d="M 66.4 12.2 C 53.1 3.8, 66.5 96.1, 63.0 86.4 C 80.1 78.1, 81.5 20.1, 90.8 20.4 C 90.7 2.3, 53.6 22.8, 56.6 32.8 C 53.7 33.1, 47.1 53.9, 55.6 43.7 C 48.6 52.4, 81.6 92.7, 95.5 83.9 C 100.0 93.6, 22.9 34.9, 28.1 36.3 C 39.5 54.7, 46.4 79.9, 60.7 65.6 C 56.0 63.4, 55.2 39.6, 48.9 31.0 C 47.7 39.3, 8.8 82.9, 3.1 87.0 C 0.0 77.5, 15.2 62.1, 3.2 55.4 Z" fill="hsl(242, 72%, 49%)" fill-opacity="0.63" stroke="none" stroke-width="5.05"  transform="translate(65.2 95.4) rotate(309.2) scale(0.76 1.87)" />
<path d="M 23.5 64.2 C 31.7 78.4, 4.5 91.2, 1.0 89.5 C 3.6 100.0, 72.9 71.3, 73.3 73.8 C 78.6 57.5, 15.4 63.9, 1.2 56.9 C 0.0 47.6, 80.1 93.6, 83.7 79.7 C 98.7 76.2, 77.1 24.0, 91.2 10.8 C 100.0 28.6, 5.5 56.2, 9.5 65.9 C 25.5 84.1, 100.0 25.7, 93.8 37.0 C 74.2 50.4, 18.5 41.2, 8.1 26.7 C 12.5 45.1, 22.0 37.5, 23.0 28.5 C 21.1 18.1, 22.8 57.9, 20.6 48.9 Z" fill="none" fill-opacity="0.97" stroke="hsl(144, 86%, 72%)" stroke-width="3.69"  transform="translate(77.3 89.3) rotate(138.8) scale(0.50 1.97)" />
<circle cx="82.2" cy="28.3" r="7.8" fill="url(#g2)" fill-opacity="0.46"  transform="translate(19.9 54.8) rotate(277.3) scale(0.85 0.84)" />
<rect x="4.9" y="47.1" width="36.8" height="37.7" rx="4.3" fill="hsl(144, 86%, 72%)" fill-opacity="0.24"   transform="translate(31.5 94.9) rotate(18.1) scale(0.78 1.14)" />
<circle cx="27.6" cy="56.9" r="12.0" fill="hsl(104, 72%, 65%)" fill-opacity="0.50"   />
<circle cx="86.3" cy="21.4" r="6.5" fill="url(#g1)" fill-opacity="0.47"   />
<path d="M 9.8 20.2 C 1.1 38.3, 0.0 8.5, 4.0 1.7 C 0.0 20.1, 0.0 42.1, 7.1 40.3 C 0.0 50.5, 16.6 8.8, 21.7 6.2 C 15.0 0.0, 93.5 28.1, 81.1 31.7 C 78.9 49.7, 25.0 26.8, 30.8 37.0 C 26.8 22.1, 29.9 68.2, 16.8 57.8 C 32.0 73.9, 3.0 100.0, 4.1 92.7 Z" fill="hsl(2, 82%, 55%)" fill-opacity="0.38" stroke="none" stroke-width="2.86"  transform="translate(98.8 36.9) rotate(215.6) scale(1.26 1.93)" />
<circle cx="82.0" cy="88.3" r="19.5" fill="url(#g1)" fill-opacity="0.58"   />
<path d="M 23.8 37.2 C 29.1 24.4, 33.6 0.0, 20.1 10.6 C 34.4 25.5, 32.1 75.3, 36.7 69.4 C 51.4 56.1, 33.1 54.8, 47.2 55.1 C 34.1 64.2, 80.0 68.9, 75.8 61.0 C 86.6 76.6, 85.1 37.2, 94.3 30.1 C 89.4 22.1, 37.9 11.8, 31.0 16.1 C 15.9 0.0, 66.9 56.9, 53.7 47.1 C 47.4 50.0, 77.0 77.2, 86.6 67.9 C 93.5 59.0, 100.0 33.9, 98.0 43.2 Z" fill="hsl(40, 53%, 69%)" fill-opacity="0.33" stroke="none" stroke-width="1.47"  transform="translate(94.1 31.4) rotate(260.9) scale(1.82 1.05)" />
<rect x="15.6" y="9.2" width="27.1" height="21.3" rx="0" fill="none" fill-opacity="0.50"   transform="translate(22.8 74.7) rotate(308.4) scale(1.65 0.59)" />
<circle cx="4.5" cy="9.3" r="6.6" fill="url(#g2)" fill-opacity="0.81" filter="url(#f1)"  />
<path d="M 63.9 51.2 C 73.5 57.6, 36.8 46.3, 40.5 34.1 C 28.4 21.7, 30.3 13.5, 42.5 2.0 C 57.1 18.4, 0.5 42.1, 10.2 39.2 C 5.3 31.4, 13.3 44.1, 1.9 34.1 C 0.0 23.2, 81.9 91.4, 71.2 93.6 C 75.5 100.0, 0.4 32.1, 12.6 22.6 C 15.9 18.1, 75.1 75.0, 73.6 66.7 C 84.2 79.0, 24.2 71.0, 36.6 62.1 C 22.7 80.7, 29.5 0.0, 15.4 7.0 C 10.6 0.0, 25.9 79.7, 27.4 87.4 " fill="hsl(183, 71%, 60%)" fill-opacity="0.46" stroke="none" stroke-width="5.04"  transform="translate(63.9 87.9) rotate(138.3) scale(0.92 1.51)" />
<path d="M 27.0 81.3 C 21.2 83.9, 51.1 77.2, 59.3 84.3 C 68.7 66.1, 35.3 39.9, 42.1 37.6 C 41.4 54.3, 50.7 2.7, 38.6 13.8 C 56.1 0.0, 54.9 100.0, 63.5 97.1 C 46.4 92.3, 0.0 38.3, 11.1 26.2 C 29.4 34.4, 71.6 13.3, 70.4 12.4 C 61.9 32.3, 68.9 57.2, 79.7 48.3 C 96.8 53.2, 40.3 15.4, 49.9 11.4 Z" fill="none" fill-opacity="0.75" stroke="hsl(86, 72%, 68%)" stroke-width="1.91"  transform="translate(35.0 12.4) rotate(311.4) scale(1.65 1.09)" />
<circle cx="37.3" cy="80.1" r="2.1" fill="hsl(183, 71%, 60%)" fill-opacity="0.99"  transform="translate(35.1 99.0) rotate(253.3) scale(0.90 1.34)" />
<rect x="42.3" y="14.7" width="20.8" height="13.1" rx="0" fill="hsl(86, 72%, 68%)" fill-opacity="0.28" stroke="hsl(290, 83%, 63%)" stroke-width="4.0"  transform="translate(91.7 43.7) rotate(90.4) scale(0.66 0.91)" />
<path d="M 99.7 9.8 C 99.2 7.7, 64.8 63.2, 57.1 58.0 C 63.9 47.3, 64.0 97.7, 54.2 87.0 C 66.4 76.6, 22.4 35.6, 28.3 44.8 C 33.7 61.1, 81.1 28.6, 89.0 32.2 C 100.0 39.4, 25.0 3.4, 19.2 15.6 C 25.7 28.5, 97.0 65.4, 93.8 62.6 C 96.2 59.0, 25.8 94.4, 36.7 92.5 C 27.7 75.4, 51.1 85.9, 52.0 79.4 C 43.1 59.8, 83.7 48.3, 95.2 58.6 Z" fill="hsl(40, 53%, 69%)" fill-opacity="0.89" stroke="none" stroke-width="3.58"  transform="translate(65.0 93.0) rotate(169.9) scale(1.60 1.81)" />
<circle cx="88.6" cy="80.2" r="8.8" fill="hsl(144, 86%, 72%)" fill-opacity="0.41"  transform="translate(28.9 62.8) rotate(15.4) scale(1.91 1.97)" />
<rect x="49.2" y="24.2" width="41.0" height="13.5" rx="0" fill="none" fill-opacity="0.85"   transform="translate(54.8 69.2) rotate(163.1) scale(1.96 1.08)" />
<path d="M 75.9 4.6 C 80.1 4.9, 60.9 78.3, 65.7 76.8 C 61.1 82.3, 81.8 0.0, 67.7 4.4 C 71.2 20.9, 58.2 93.9, 48.0 88.8 C 63.9 90.5, 36.7 80.6, 39.1 81.9 C 19.7 67.5, 50.1 100.0, 62.0 94.0 C 44.5 100.0, 16.6 70.2, 28.4 84.5 C 36.3 73.3, 14.3 54.2, 9.4 60.6 Z" fill="none" fill-opacity="0.69" stroke="hsl(290, 83%, 63%)" stroke-width="3.32"  transform="translate(72.3 92.8) rotate(206.2) scale(1.42 0.80)" />
<path d="M 82.9 59.4 C 74.4 49.6, 68.9 0.0, 77.0 5.9 C 76.7 8.3, 63.5 10.1, 54.4 12.8 C 66.4 25.5, 49.1 100.0, 45.8 98.4 C 60.3 100.0, 45.8 2.2, 51.0 13.3 C 35.0 3.2, 64.9 47.1, 73.8 59.4 C 77.9 75.3, 68.3 56.0, 58.5 51.9 C 44.8 71.2, 4.2 11.8, 9.4 8.8 C 0.0 0.5, 27.2 38.1, 22.8 37.5 Z" fill="none" fill-opacity="0.41" stroke="hsl(86, 72%, 68%)" stroke-width="3.09"  transform="translate(43.1 82.5) rotate(167.8) scale(1.80 0.85)" />
<rect x="67.8" y="58.6" width="24.0" height="24.6" rx="9.0" fill="hsl(104, 72%, 65%)" fill-opacity="0.97"   transform="translate(51.2 68.0) rotate(225.5) scale(1.03 0.69)" />
<path d="M 62.7 57.0 C 74.0 55.4, 77.7 66.4, 75.6 55.4 C 78.3 39.8, 0.0 16.6, 8.5 30.3 C 20.1 19.0, 20.0 61.6, 21.0 65.0 C 19.0 52.0, 9.5 2.0, 3.1 5.6 C 0.0 17.5, 44.2 66.6, 51.9 62.3 C 34.7 79.8, 64.3 32.4, 74.5 32.8 " fill="hsl(104, 72%, 65%)" fill-opacity="0.37" stroke="none" stroke-width="2.26"  transform="translate(53.5 73.5) rotate(100.4) scale(0.81 1.06)" />
<path d="M 80.6 91.6 C 94.1 99.2, 9.0 6.3, 14.0 0.0 C 17.5 0.0, 17.3 100.0, 4.1 92.4 C 10.6 90.9, 55.8 63.2, 58.6 77.3 C 44.7 86.4, 4.4 42.8, 15.5 45.7 C 16.7 44.8, 17.9 67.4, 9.3 69.5 C 2.2 59.1, 97.9 41.7, 95.5 35.8 C 82.0 22.2, 30.9 42.5, 35.9 56.6 C 35.5 51.9, 12.7 43.7, 6.2 55.2 Z" fill="hsl(86, 72%, 68%)" fill-opacity="0.42" stroke="none" stroke-width="4.14"  transform="translate(2.3 27.4) rotate(87.5) scale(1.76 1.78)" />
<path d="M 10.6 47.8 C 16.0 30.7, 43.4 54.3, 44.8 58.2 C 55.7 68.6, 15.9 57.2, 9.6 43.4 C 0.0 45.7, 0.0 56.7, 1.4 44.2 C 0.0 35.9, 86.1 62.4, 85.8 59.8 C 66.4 77.4, 80.5 81.8, 75.1 92.4 C 67.1 79.4, 38.2 0.0, 47.9 1.0 Z" fill="hsl(2, 82%, 55%)" fill-opacity="0.65" stroke="none" stroke-width="4.82"  transform="translate(40.9 87.3) rotate(47.3) scale(1.72 1.22)" />
<rect x="20.6" y="21.7" width="25.1" height="33.6" rx="18.7" fill="hsl(104, 72%, 65%)" fill-opacity="0.66" stroke="hsl(104, 72%, 65%)" stroke-width="3.2"  transform="translate(29.3 93.7) rotate(71.1) scale(1.56 0.87)" />
<path d="M 99.0 59.1 C 88.4 77.8, 17.0 51.6, 26.2 55.2 C 31.4 66.8, 72.8 91.6, 58.6 85.4 C 56.9 83.8, 66.5 88.7, 67.8 99.3 C 78.0 100.0, 91.3 86.5, 80.5 83.9 C 93.6 97.9, 50.8 25.5, 63.3 16.4 C 81.8 14.1, 20.6 59.0, 29.7 55.3 " fill="hsl(86, 72%, 68%)" fill-opacity="0.56" stroke="none" stroke-width="3.67"  transform="translate(18.0 79.5) rotate(290.5) scale(1.78 1.26)" />
<rect x="10.2" y="10.6" width="22.3" height="38.2" rx="0" fill="hsl(40, 53%, 69%)" fill-opacity="0.55" stroke="hsl(40, 53%, 69%)" stroke-width="4.3" filter="url(#f1)" transform="translate(70.7 64.6) rotate(90.0) scale(1.50 1.96)" />
<path d="M 53.8 55.8 C 45.8 60.5, 80.3 11.4, 85.9 20.2 C 88.9 35.1, 82.7 86.3, 70.5 86.4 C 83.9 100.0, 87.8 76.7, 87.6 80.9 C 96.8 78.7, 54.6 44.5, 62.7 47.1 C 71.7 37.1, 36.0 30.4, 31.4 34.5 C 37.8 36.3, 83.7 46.3, 75.0 37.6 C 93.3 27.3, 31.3 47.5, 31.4 44.2 C 20.6 53.7, 56.3 49.5, 49.9 47.4 C 56.0 63.2, 93.9 37.5, 81.0 49.2 " fill="none" fill-opacity="0.44" stroke="hsl(183, 71%, 60%)" stroke-width="2.74" filter="url(#f1)" transform="translate(83.6 51.8) rotate(34.4) scale(0.59 0.83)" />
<path d="M 10.6 99.0 C 6.4 97.8, 0.0 28.6, 1.0 35.9 C 0.0 32.8, 56.6 57.4, 46.7 47.8 C 64.7 38.7, 34.5 16.5, 48.9 11.2 C 66.6 5.5, 56.7 94.6, 63.2 93.3 C 62.8 78.7, 19.2 28.7, 17.5 27.1 C 21.2 42.4, 15.3 24.8, 18.0 24.2 C 26.0 6.2, 97.0 27.6, 92.9 17.7 C 100.0 9.9, 22.1 24.3, 16.5 23.0 Z" fill="hsl(183, 71%, 60%)" fill-opacity="0.47" stroke="none" stroke-width="1.86"  transform="translate(59.6 71.5) rotate(179.8) scale(1.17 1.18)" />
<path d="M 73.4 37.8 C 84.7 17.8, 4.7 55.1, 2.6 49.0 C 0.0 43.8, 86.5 90.9, 93.8 76.7 C 100.0 66.1, 30.9 38.0, 27.3 45.9 C 15.5 56.9, 96.8 21.1, 90.6 33.8 C 100.0 32.3, 78.8 100.0, 67.7 96.6 C 54.8 98.2, 33.2 47.7, 18.7 59.5 C 36.2 49.6, 27.4 40.3, 21.1 41.6 C 10.7 46.7, 8.7 24.9, 10.4 24.5 C 0.0 8.1, 17.5 53.0, 19.2 56.0 C 24.3 56.0, 25.6 87.3, 33.2 79.1 Z" fill="none" fill-opacity="0.66" stroke="hsl(322, 74%, 44%)" stroke-width="1.10"   />
<path d="M 37.5 44.3 C 20.8 29.2, 63.6 1.6, 70.2 2.6 C 73.4 1.2, 58.2 81.1, 60.3 66.3 C 50.7 54.3, 76.6 68.6, 63.4 58.3 C 54.0 46.3, 26.8 14.3, 29.6 28.2 C 14.8 16.7, 27.1 26.4, 22.6 12.3 C 17.0 13.7, 10.7 13.8, 8.9 0.1 C 10.8 14.0, 45.9 56.4, 31.8 60.8 C 32.2 55.2, 90.5 61.9, 99.3 58.3 C 100.0 71.6, 8.3 59.7, 17.9 48.3 C 24.9 36.9, 83.0 24.0, 87.7 22.5 Z" fill="hsl(2, 82%, 55%)" fill-opacity="0.34" stroke="none" stroke-width="4.94"  transform="translate(15.2 11.8) rotate(237.0) scale(0.87 1.18)" />
<rect x="57.8" y="58.7" width="41.1" height="31.2" rx="8.9" fill="none" fill-opacity="0.74"  filter="url(#f1)" transform="translate(32.3 17.1) rotate(356.5) scale(0.51 1.62)" />
<path d="M 76.9 14.4 C 93.4 28.6, 83.7 0.0, 72.5 7.7 C 83.1 8.3, 38.9 100.0, 49.7 96.4 C 43.0 100.0, 95.7 7.2, 89.6 11.2 C 90.6 14.6, 68.2 66.8, 56.1 67.4 C 54.4 78.3, 45.2 75.9, 49.8 73.3 C 30.7 72.6, 67.5 48.3, 56.0 55.8 C 55.8 75.0, 85.8 26.5, 75.6 30.7 Z" fill="none" fill-opacity="0.31" stroke="hsl(106, 75%, 59%)" stroke-width="3.10"  transform="translate(31.5 58.9) rotate(179.3) scale(0.51 1.56)" />
<circle cx="82.6" cy="1.3" r="6.2" fill="hsl(86, 72%, 68%)" fill-opacity="0.40"  transform="translate(13.2 46.3) rotate(147.5) scale(1.21 1.49)" />
<path d="M 56.1 0.7 C 37.1 0.0, 38.3 82.5, 50.2 87.3 C 57.3 70.3, 24.6 0.0, 17.4 1.5 C 23.6 17.3, 45.7 8.5, 35.2 4.9 C 23.7 15.3, 0.0 55.1, 3.0 57.9 C 22.9 46.9, 48.8 34.3, 54.6 31.5 C 36.1 28.6, 91.2 90.7, 98.5 83.2 Z" fill="hsl(144, 86%, 72%)" fill-opacity="0.88" stroke="none" stroke-width="2.90"  transform="translate(66.2 36.4) rotate(152.4) scale(1.33 0.81)" />
<path d="M 27.1 78.3 C 36.0 71.7, 96.0 51.9, 90.9 59.1 C 98.5 51.6, 11.3 57.1, 9.0 53.2 C 14.7 48.3, 65.2 100.0, 60.4 95.7 C 59.7 98.0, 79.8 32.4, 85.1 46.8 C 72.0 28.0, 3.8 73.4, 10.2 62.2 C 0.0 81.8, 26.9 67.9, 41.5 69.8 C 56.1 81.7, 76.6 83.5, 86.8 74.4 Z" fill="hsl(242, 72%, 49%)" fill-opacity="0.46" stroke="none" stroke-width="3.40"  transform="translate(46.3 29.5) rotate(167.6) scale(1.80 1.03)" />
<path d="M 41.1 84.9 C 49.0 81.8, 4.1 6.0, 19.1 1.6 C 18.9 0.0, 56.3 75.7, 59.4 83.5 C 56.0 75.5, 40.1 99.9, 37.4 89.8 C 35.5 100.0, 90.1 82.1, 75.1 96.6 C 81.9 96.0, 21.7 61.9, 13.8 50.3 C 1.2 50.4, 44.6 94.8, 30.9 93.4 C 26.4 96.5, 44.0 62.0, 48.1 65.8 C 39.9 77.6, 13.5 1.8, 0.4 6.4 Z" fill="hsl(144, 86%, 72%)" fill-opacity="0.77" stroke="none" stroke-width="3.60"   />
<rect x="7.2" y="49.7" width="37.1" height="32.5" rx="0" fill="none" fill-opacity="1.00"   transform="translate(27.3 93.5) rotate(314.0) scale(1.48 1.03)" />
<path d="M 99.6 63.9 C 100.0 52.7, 0.9 60.5, 4.9 53.7 C 13.0 57.6, 53.6 38.9, 67.1 25.4 C 68.5 23.0, 28.8 58.0, 24.2 46.7 C 15.6 41.1, 28.4 6.9, 38.9 14.0 C 25.3 21.0, 1.4 41.8, 2.1 46.6 C 18.0 38.3, 35.1 60.5, 36.1 54.5 Z" fill="hsl(183, 71%, 60%)" fill-opacity="0.45" stroke="none" stroke-width="1.41"   />
<rect x="51.7" y="69.4" width="43.5" height="28.4" rx="0" fill="none" fill-opacity="0.56"  filter="url(#f1)" transform="translate(6.0 16.1) rotate(119.1) scale(0.55 1.26)" />
<path d="M 4.7 90.7 C 13.8 100.0, 0.0 8.6, 13.6 8.9 C 29.9 23.8, 96.4 86.1, 95.1 84.4 C 82.6 67.6, 0.0 31.5, 10.9 27.5 C 21.8 37.8, 5.0 64.0, 12.3 52.2 C 8.1 69.2, 0.0 42.1, 3.8 47.2 C 4.4 27.6, 82.7 42.9, 83.1 57.7 C 83.9 71.5, 34.9 80.7, 27.5 88.8 C 19.0 82.6, 15.2 78.4, 5.0 81.2 C 14.2 75.9, 33.1 65.9, 30.4 63.0 C 26.4 67.8, 61.9 74.3, 47.6 72.4 Z" fill="none" fill-opacity="0.62" stroke="hsl(144, 86%, 72%)" stroke-width="2.99"  transform="translate(15.1 82.6) rotate(257.4) scale(0.60 1.57)" />
<path d="M 65.3 1.9 C 83.2 21.1, 75.7 62.7, 68.0 58.4 C 80.2 62.0, 64.7 48.5, 70.0 61.6 C 80.3 65.0, 21.8 64.3, 11.2 60.2 C 0.0 76.8, 23.1 42.9, 14.0 39.6 C 0.0 30.8, 74.2 53.7, 66.9 50.6 C 64.9 65.9, 54.6 38.5, 43.8 49.1 Z" fill="none" fill-opacity="0.64" stroke="hsl(322, 74%, 44%)" stroke-width="2.65"  transform="translate(16.2 81.3) rotate(324.4) scale(0.69 0.57)" />
<path d="M 88.3 6.8 C 77.8 0.0, 13.0 89.3, 16.5 87.1 C 0.0 88.1, 39.0 61.7, 42.1 59.1 C 31.7 41.4, 92.1 1.0, 82.1 12.2 C 97.3 1.6, 9.5 6.2, 15.9 1.0 C 23.0 9.1, 54.4 77.3, 61.8 74.0 C 53.8 71.4, 10.8 20.0, 18.4 14.7 C 16.3 1.7, 20.7 3.7, 9.9 6.1 Z" fill="hsl(322, 74%, 44%)" fill-opacity="0.39" stroke="none" stroke-width="2.85"  transform="translate(14.6 6.8) rotate(173.8) scale(1.81 0.99)" />
<circle cx="14.9" cy="98.7" r="11.7" fill="url(#g1)" fill-opacity="0.46" filter="url(#f1)" transform="translate(44.9 22.0) rotate(238.8) scale(1.94 0.93)" />
<path d="M 24.5 14.4 C 33.3 0.0, 70.6 22.5, 79.0 29.5 C 62.6 11.4, 14.7 35.2, 1.8 26.6 C 7.1 8.5, 37.7 61.3, 26.8 52.2 C 10.2 48.5, 52.8 93.3, 39.0 78.9 C 46.0 97.4, 81.0 92.5, 93.0 91.1 C 99.9 93.7, 86.2 55.8, 80.2 65.2 C 70.1 60.0, 65.8 69.5, 74.3 70.9 Z" fill="none" fill-opacity="0.55" stroke="hsl(40, 53%, 69%)" stroke-width="4.00"  transform="translate(39.3 97.1) rotate(42.6) scale(1.64 1.25)" />
<circle cx="42.9" cy="13.2" r="3.0" fill="url(#g1)" fill-opacity="0.92"  transform="translate(46.1 81.9) rotate(304.6) scale(0.55 1.14)" />
<path d="M 8.1 38.5 C 23.4 42.4, 67.9 25.0, 65.3 14.6 C 52.9 9.9, 67.0 3.1, 77.3 12.0 C 77.5 9.0, 40.6 14.3, 40.2 24.7 C 50.0 39.4, 79.2 69.5, 79.5 81.5 C 75.9 80.4, 17.6 35.5, 30.1 28.5 C 18.3 11.3, 52.3 64.5, 59.5 61.3 C 69.3 55.9, 29.1 100.0, 23.3 91.4 C 40.5 78.3, 78.3 70.2, 74.6 80.6 C 87.8 60.9, 18.9 60.2, 11.6 63.1 C 0.4 60.6, 24.7 82.4, 37.9 94.4 Z" fill="none" fill-opacity="0.80" stroke="hsl(86, 72%, 68%)" stroke-width="4.15"  transform="translate(44.1 41.8) rotate(197.6) scale(0.65 0.93)" />
<path d="M 4.7 7.0 C 22.3 0.0, 17.1 4.5, 22.7 18.3 C 42.3 20.4, 66.3 79.2, 65.3 77.1 C 47.3 70.6, 1.2 13.3, 15.8 12.4 C 33.8 0.0, 40.5 93.6, 31.6 84.4 C 26.0 69.0, 7.1 53.0, 17.5 51.6 C 9.9 46.1, 90.7 1.9, 97.6 1.2 Z" fill="hsl(40, 53%, 69%)" fill-opacity="0.53" stroke="none" stroke-width="5.23"  transform="translate(96.8 66.4) rotate(335.3) scale(1.16 1.09)" />
<path d="M 89.5 6.1 C 100.0 10.3, 62.5 7.9, 77.5 14.0 C 88.4 14.4, 76.0 17.6, 66.4 7.0 C 84.6 12.3, 75.3 37.7, 62.1 48.2 C 69.3 61.0, 26.9 54.0, 14.9 53.0 C 33.4 61.7, 82.2 85.7, 90.5 95.1 C 71.4 90.1, 42.6 27.4, 35.0 30.3 Z" fill="hsl(144, 86%, 72%)" fill-opacity="0.82" stroke="none" stroke-width="3.32"  transform="translate(79.4 92.3) rotate(19.1) scale(1.70 1.31)" />
<circle cx="73.2" cy="84.1" r="0.7" fill="hsl(183, 71%, 60%)" fill-opacity="0.49"   />
<path d="M 95.3 97.5 C 100.0 100.0, 40.7 81.3, 46.0 84.0 C 59.0 72.2, 75.4 68.0, 64.2 82.6 C 62.6 67.7, 66.5 9.1, 81.5 15.4 C 83.8 32.3, 83.3 41.4, 79.0 34.5 C 73.2 19.2, 21.5 30.0, 24.5 21.4 C 8.5 20.7, 31.2 85.0, 45.1 77.5 C 61.2 96.3, 78.2 27.4, 80.4 33.1 C 99.1 16.2, 47.0 64.5, 48.4 55.0 C 31.9 49.9, 21.1 72.4, 27.6 68.5 Z" fill="hsl(290, 83%, 63%)" fill-opacity="0.31" stroke="none" stroke-width="3.09"  transform="translate(5.1 13.2) rotate(265.1) scale(1.52 1.57)" />
<path d="M 11.1 78.5 C 23.5 90.9, 54.4 17.0, 67.4 28.5 C 83.2 23.5, 50.0 58.7, 51.4 55.2 C 57.6 36.4, 60.6 0.0, 67.8 2.1 C 53.3 0.0, 44.4 100.0, 54.8 93.4 C 50.0 80.1, 27.0 81.1, 40.3 67.1 C 52.7 61.3, 45.1 11.3, 56.9 9.2 C 51.3 0.0, 62.0 58.6, 48.6 59.0 C 42.0 47.9, 72.9 4.8, 68.5 18.5 C 78.7 35.7, 46.1 28.3, 40.8 30.5 Z" fill="hsl(322, 74%, 44%)" fill-opacity="0.82" stroke="none" stroke-width="2.90"  transform="translate(76.9 78.9) rotate(358.2) scale(0.98 1.11)" />
<path d="M 24.1 79.6 C 36.4 98.3, 28.6 24.8, 33.3 24.7 C 23.4 6.9, 12.8 38.4, 23.7 31.6 C 35.3 45.8, 38.9 17.4, 37.3 19.5 C 56.5 23.6, 18.8 45.7, 27.0 57.1 C 16.0 67.2, 49.5 59.9, 39.0 55.4 C 22.3 46.8, 32.7 3.9, 36.2 16.0 C 44.1 19.4, 100.0 15.7, 99.2 14.0 C 82.8 21.6, 66.6 76.6, 80.4 83.9 Z" fill="hsl(86, 72%, 68%)" fill-opacity="0.30" stroke="none" stroke-width="1.64"  transform="translate(45.9 34.2) rotate(100.7) scale(1.50 0.75)" />
<path d="M 78.6 85.5 C 62.4 100.0, 37.2 24.0, 37.3 22.6 C 34.6 10.8, 0.0 84.4, 4.8 81.5 C 5.3 64.8, 71.2 91.8, 60.0 90.5 C 52.3 81.6, 10.2 15.9, 11.3 2.1 C 0.0 14.4, 92.2 62.1, 83.3 58.7 C 73.3 43.4, 73.2 72.6, 62.9 77.9 C 75.9 85.0, 56.5 59.5, 54.1 55.5 Z" fill="none" fill-opacity="0.59" stroke="hsl(40, 53%, 69%)" stroke-width="4.33"  transform="translate(18.7 12.4) rotate(29.3) scale(1.44 1.76)" />
<rect x="46.6" y="13.8" width="26.0" height="22.9" rx="0" fill="hsl(40, 53%, 69%)" fill-opacity="0.50" stroke="hsl(104, 72%, 65%)" stroke-width="3.0" filter="url(#f1)" transform="translate(13.5 47.8) rotate(26.2) scale(1.65 1.93)" />
<path d="M 13.8 16.5 C 25.0 18.6, 74.8 100.0, 67.8 94.1 C 71.5 100.0, 90.7 22.4, 89.5 14.3 C 74.3 13.8, 15.1 94.7, 28.3 98.6 C 23.9 87.0, 27.7 60.3, 19.3 69.3 C 30.3 89.0, 46.5 61.5, 59.6 53.5 C 66.9 39.0, 59.3 60.5, 44.5 61.9 C 55.0 45.5, 11.7 40.6, 22.2 53.2 C 36.4 59.0, 75.5 64.4, 64.1 57.5 C 61.3 77.4, 34.8 52.2, 39.9 45.1 C 36.0 51.8, 31.8 32.0, 39.5 33.9 Z" fill="none" fill-opacity="0.30" stroke="hsl(86, 72%, 68%)" stroke-width="2.18"  transform="translate(60.3 4.8) rotate(181.0) scale(1.32 0.54)" />
<path d="M 4.3 35.1 C 0.0 39.0, 23.3 52.8, 29.1 66.3 C 27.9 74.3, 84.6 88.7, 89.6 82.4 C 78.4 63.9, 36.5 0.0, 34.0 3.1 C 28.4 2.0, 26.7 2.9, 37.5 4.8 C 31.1 19.6, 45.0 71.4, 59.7 73.1 C 70.3 55.6, 71.1 43.2, 83.3 32.6 C 74.8 42.3, 22.1 37.9, 21.3 37.3 C 26.4 46.3, 12.6 100.0, 13.9 97.9 C 22.8 100.0, 1.3 37.4, 13.9 33.1 Z" fill="none" fill-opacity="0.44" stroke="hsl(151, 70%, 62%)" stroke-width="2.80"  transform="translate(10.1 94.0) rotate(66.6) scale(0.81 1.81)" />
<rect x="35.1" y="13.2" width="36.1" height="38.5" rx="0" fill="none" fill-opacity="0.48"   transform="translate(47.7 21.0) rotate(168.6) scale(1.01 1.46)" />
<path d="M 20.6 96.1 C 5.2 100.0, 67.2 100.0, 75.9 98.8 C 73.3 85.9, 87.9 45.4, 94.1 40.6 C 99.3 47.4, 11.6 0.0, 13.6 7.3 C 10.2 22.7, 24.4 57.8, 30.3 69.9 C 21.2 51.1, 0.9 71.5, 14.7 62.4 C 33.2 58.3, 50.7 39.9, 63.8 31.9 Z" fill="hsl(144, 86%, 72%)" fill-opacity="0.46" stroke="none" stroke-width="3.72"  transform="translate(42.3 8.0) rotate(201.0) scale(1.54 1.71)" />
<circle cx="47.2" cy="45.7" r="4.3" fill="hsl(104, 72%, 65%)" fill-opacity="0.54"  transform="translate(29.8 71.6) rotate(100.9) scale(0.68 1.13)" />
<path d="M 91.2 36.2 C 100.0 46.9, 84.1 19.1, 76.0 32.8 C 74.7 19.9, 52.3 10.8, 61.0 15.4 C 48.3 12.8, 55.0 89.6, 59.6 93.0 C 65.3 94.7, 0.0 41.7, 5.6 37.0 C 12.7 38.1, 78.8 15.9, 78.7 27.9 C 91.0 17.4, 11.3 60.9, 4.4 54.9 C 1.0 56.9, 34.0 76.6, 35.5 75.6 C 28.0 84.4, 71.2 18.8, 63.0 11.5 C 61.8 20.5, 63.1 0.0, 57.3 3.6 C 64.9 0.0, 49.0 35.2, 41.7 37.8 Z" fill="none" fill-opacity="0.71" stroke="hsl(86, 72%, 68%)" stroke-width="5.10"  transform="translate(6.0 14.4) rotate(260.2) scale(1.92 0.83)" />
<path d="M 66.4 17.0 C 76.1 19.1, 98.9 22.9, 93.3 14.5 C 100.0 24.9, 46.3 40.1, 40.7 35.2 C 52.4 54.5, 66.4 99.8, 77.1 96.1 C 60.6 82.3, 56.0 83.7, 58.2 71.3 C 54.3 59.3, 58.0 23.0, 43.9 18.6 C 56.2 29.4, 59.0 48.3, 44.5 33.5 C 56.8 33.7, 35.1 26.9, 21.5 11.9 C 8.1 0.0, 96.1 65.1, 91.8 66.8 C 85.2 82.5, 93.8 30.9, 94.7 32.5 Z" fill="hsl(2, 82%, 55%)" fill-opacity="0.49" stroke="none" stroke-width="4.59"  transform="translate(26.7 19.4) rotate(274.1) scale(1.17 1.75)" />
<circle cx="55.8" cy="14.8" r="8.5" fill="hsl(106, 75%, 59%)" fill-opacity="0.93"  transform="translate(67.2 84.7) rotate(298.2) scale(1.33 1.63)" />
<circle cx="49.0" cy="92.5" r="7.5" fill="url(#g1)" fill-opacity="0.86"   />
<path d="M 31.2 50.4 C 39.8 35.6, 93.0 44.5, 88.5 33.3 C 90.9 38.3, 84.4 58.8, 69.7 64.4 C 64.4 68.1, 82.8 29.8, 70.3 19.3 C 87.2 37.0, 77.0 85.7, 85.9 77.0 C 90.5 66.5, 28.4 24.4, 38.1 38.9 C 41.0 47.6, 66.6 25.7, 56.4 27.5 C 43.2 7.7, 0.0 21.5, 1.8 29.5 C 0.0 22.8, 2.2 74.9, 3.0 79.7 C 0.0 73.8, 42.1 94.7, 44.9 91.1 C 61.8 99.6, 0.0 67.8, 2.6 55.9 Z" fill="none" fill-opacity="0.90" stroke="hsl(86, 72%, 68%)" stroke-width="4.29"  transform="translate(48.1 45.9) rotate(298.7) scale(1.62 1.53)" />
<path d="M 0.5 8.2 C 17.1 0.0, 74.7 40.2, 61.1 27.7 C 52.0 10.3, 34.6 7.8, 22.9 11.9 C 26.2 28.4, 17.5 74.2, 7.0 64.1 C 3.9 75.0, 89.0 0.0, 93.6 10.9 C 98.8 14.2, 55.2 86.8, 44.0 77.9 C 52.6 70.0, 100.0 85.1, 91.6 88.5 C 72.1 97.6, 24.5 43.2, 19.4 49.7 C 24.2 60.5, 0.0 45.2, 0.0 40.4 C 16.4 37.0, 95.4 45.2, 84.8 49.5 C 82.3 31.5, 20.7 4.5, 22.1 0.8 Z" fill="hsl(104, 72%, 65%)" fill-opacity="0.53" stroke="none" stroke-width="1.92"  transform="translate(83.4 51.3) rotate(38.3) scale(1.68 0.88)" />
<path d="M 78.9 48.4 C 82.4 32.3, 25.1 19.2, 15.2 22.9 C 17.6 41.3, 100.0 98.4, 94.7 97.0 C 81.7 100.0, 8.2 74.2, 12.6 59.6 C 9.4 61.3, 46.5 50.8, 38.5 65.6 C 53.2 82.2, 79.4 36.6, 74.7 37.8 C 56.9 34.9, 18.7 34.5, 28.0 41.5 C 39.4 49.6, 70.3 46.7, 70.1 59.3 C 55.9 70.5, 77.6 41.0, 82.8 45.2 C 71.4 51.2, 29.8 66.1, 38.3 69.5 Z" fill="hsl(183, 71%, 60%)" fill-opacity="0.60" stroke="none" stroke-width="1.13" filter="url(#f1)" transform="translate(51.2 69.6) rotate(257.9) scale(1.92 0.82)" />
<path d="M 22.1 55.7 C 4.4 52.9, 78.4 35.2, 68.1 31.4 C 58.0 32.2, 58.5 32.5, 57.1 18.0 C 48.3 0.0, 78.3 97.9, 66.5 86.4 C 61.5 66.8, 100.0 75.9, 98.0 75.4 C 86.2 93.6, 8.2 49.0, 16.9 57.6 C 18.9 57.3, 18.1 41.2, 13.4 54.2 C 14.0 54.0, 41.3 88.1, 52.8 93.0 C 57.0 93.3, 43.1 57.4, 32.5 50.7 C 26.4 62.9, 46.4 33.0, 50.7 29.6 C 38.1 47.8, 64.4 9.5, 59.0 14.0 Z" fill="none" fill-opacity="0.55" stroke="hsl(144, 86%, 72%)" stroke-width="4.76"  transform="translate(46.5 25.6) rotate(30.9) scale(1.71 1.44)" />
<circle cx="33.9" cy="63.3" r="11.5" fill="url(#g0)" fill-opacity="0.92"  transform="translate(97.3 1.4) rotate(207.1) scale(1.18 0.53)" />
<circle cx="28.2" cy="58.9" r="5.3" fill="hsl(290, 83%, 63%)" fill-opacity="0.99"  transform="translate(10.9 31.9) rotate(329.5) scale(0.61 0.82)" />
<path d="M 6.4 38.3 C 9.2 47.8, 19.9 82.4, 16.0 82.2 C 0.0 84.5, 15.9 100.0, 12.1 98.5 C 0.5 100.0, 57.0 79.1, 55.3 71.4 C 47.6 75.8, 59.3 33.0, 51.0 19.4 C 63.2 38.8, 88.6 91.9, 94.6 87.8 C 77.9 81.4, 4.7 58.3, 10.8 52.1 C 0.0 53.7, 58.1 54.5, 57.7 62.9 C 61.2 76.6, 49.7 19.3, 36.5 17.7 Z" fill="hsl(106, 75%, 59%)" fill-opacity="0.70" stroke="none" stroke-width="3.56"  transform="translate(55.3 83.8) rotate(336.7) scale(1.98 0.85)" />
<path d="M 78.1 60.6 C 75.6 77.6, 39.2 12.9, 48.2 10.4 C 47.8 19.9, 0.0 49.4, 5.5 47.9 C 23.9 63.5, 77.9 66.4, 88.0 58.5 C 88.0 53.3, 80.0 48.4, 77.6 33.9 C 57.7 22.9, 98.8 33.0, 85.1 36.0 C 89.0 33.4, 68.6 11.0, 54.5 6.5 Z" fill="hsl(86, 72%, 68%)" fill-opacity="0.53" stroke="none" stroke-width="4.83"  transform="translate(60.4 10.3) rotate(168.1) scale(1.55 1.59)" />
<path d="M 5.3 41.5 C 23.9 37.3, 90.1 92.8, 98.6 80.8 C 87.8 82.8, 38.7 74.3, 38.1 67.6 C 37.8 67.1, 30.3 83.2, 34.7 95.0 C 24.3 89.9, 19.3 85.4, 26.8 82.0 C 29.3 85.4, 16.5 100.0, 3.7 98.4 C 0.0 100.0, 0.8 93.2, 10.6 91.6 C 25.9 85.0, 61.4 42.8, 57.5 45.3 C 50.0 37.5, 70.1 31.9, 61.6 45.6 Z" fill="none" fill-opacity="0.91" stroke="hsl(106, 75%, 59%)" stroke-width="5.17"  transform="translate(90.9 89.5) rotate(252.3) scale(0.77 1.11)" />
<path d="M 18.5 99.3 C 23.4 100.0, 0.0 100.0, 5.0 90.9 C 4.6 95.0, 59.0 68.3, 50.5 73.5 C 36.4 85.9, 40.2 90.4, 40.3 87.1 C 56.8 95.2, 25.0 48.0, 15.5 45.5 C 32.6 36.3, 0.0 6.2, 3.1 10.6 C 5.7 10.4, 59.8 70.2, 71.4 58.1 C 52.2 71.2, 23.9 64.9, 28.6 61.1 Z" fill="hsl(183, 71%, 60%)" fill-opacity="0.49" stroke="none" stroke-width="1.36"   />
<path d="M 62.4 84.8 C 70.2 100.0, 48.8 61.1, 48.6 54.9 C 41.2 62.7, 66.4 61.4, 80.7 67.4 C 65.8 70.0, 100.0 42.3, 92.7 54.7 C 100.0 73.0, 90.9 67.3, 84.5 77.5 C 95.9 72.9, 46.1 71.4, 57.5 76.0 C 53.2 74.2, 68.9 92.6, 60.5 92.3 Z" fill="none" fill-opacity="0.36" stroke="hsl(242, 72%, 49%)" stroke-width="1.46"   />
<rect x="55.4" y="41.8" width="25.2" height="36.1" rx="5.5" fill="none" fill-opacity="0.43" stroke="hsl(104, 72%, 65%)" stroke-width="2.7"  transform="translate(73.6 23.1) rotate(97.7) scale(1.64 1.85)" />
<path d="M 58.0 9.0 C 46.0 0.0, 74.4 48.4, 76.8 54.3 C 75.8 60.4, 45.2 100.0, 57.8 95.3 C 42.9 93.4, 51.0 4.9, 36.0 17.0 C 27.8 20.2, 80.2 37.5, 81.8 50.6 C 96.3 58.5, 63.3 3.1, 60.8 11.5 C 68.9 15.5, 69.2 0.0, 72.3 0.7 C 73.4 19.9, 3.5 43.0, 7.3 49.4 C 24.6 55.3, 19.9 71.6, 16.5 74.5 C 34.8 80.7, 10.9 25.3, 22.7 13.6 C 11.5 11.8, 43.0 43.3, 57.5 30.7 Z" fill="hsl(322, 74%, 44%)" fill-opacity="0.26" stroke="none" stroke-width="2.93"   />
<path d="M 98.8 39.2 C 85.5 36.4, 84.7 0.0, 71.8 0.3 C 70.5 0.0, 95.6 0.0, 98.5 8.5 C 89.2 24.2, 37.0 92.6, 35.2 87.9 C 39.1 100.0, 37.1 0.0, 29.6 6.3 C 34.5 0.0, 42.1 80.2, 39.5 88.0 C 20.3 81.9, 91.4 18.7, 88.5 29.8 C 96.8 27.5, 70.2 100.0, 78.1 90.6 C 87.2 100.0, 48.4 42.8, 56.9 36.4 C 67.9 46.5, 0.0 26.3, 4.7 23.6 Z" fill="none" fill-opacity="0.84" stroke="hsl(86, 72%, 68%)" stroke-width="5.22"  transform="translate(45.9 11.0) rotate(89.9) scale(1.94 0.80)" />
<rect x="45.3" y="14.2" width="20.3" height="12.0" rx="9.2" fill="none" fill-opacity="0.31" stroke="hsl(322, 74%, 44%)" stroke-width="3.0"   />
<rect x="36.5" y="50.1" width="35.3" height="23.8" rx="0" fill="none" fill-opacity="0.88"   transform="translate(81.0 92.6) rotate(260.3) scale(2.00 0.74)" />
<path d="M 81.8 71.8 C 90.7 68.9, 23.5 98.1, 33.4 98.2 C 32.2 100.0, 21.1 1.2, 18.9 8.3 C 34.2 23.5, 67.7 23.5, 63.1 26.9 C 51.5 13.7, 63.5 91.6, 75.0 99.6 C 82.1 100.0, 64.3 4.2, 63.8 19.1 C 57.4 5.1, 9.5 0.0, 0.0 12.6 C 0.0 11.2, 33.1 9.5, 30.6 23.6 Z" fill="hsl(144, 86%, 72%)" fill-opacity="0.72" stroke="none" stroke-width="4.98"  transform="translate(34.1 78.0) rotate(106.5) scale(1.89 1.83)" />
<path d="M 87.7 80.5 C 70.7 87.9, 20.6 74.8, 26.9 68.8 C 35.9 71.3, 30.8 35.9, 17.9 41.1 C 34.1 40.5, 97.2 82.0, 93.5 93.0 C 100.0 79.1, 73.3 68.8, 79.5 64.9 C 80.9 49.7, 10.4 52.9, 17.7 45.4 C 12.8 36.3, 96.9 53.8, 91.6 62.6 C 100.0 70.6, 15.7 0.0, 2.0 9.9 C 12.1 12.7, 79.5 47.2, 81.5 50.2 C 67.0 54.2, 46.8 70.1, 42.0 77.7 C 24.9 70.7, 99.6 81.0, 95.3 91.9 " fill="none" fill-opacity="0.95" stroke="hsl(183, 71%, 60%)" stroke-width="2.93"  transform="translate(70.2 56.0) rotate(129.9) scale(0.78 0.54)" />
<circle cx="53.3" cy="56.8" r="2.8" fill="hsl(322, 74%, 44%)" fill-opacity="0.61" filter="url(#f1)" transform="translate(45.6 73.5) rotate(265.6) scale(1.78 1.98)" />
<path d="M 2.5 90.8 C 8.0 93.3, 6.2 82.4, 18.3 78.5 C 16.7 58.7, 77.0 9.1, 67.5 9.9 C 74.7 23.1, 59.3 61.0, 52.1 51.2 C 54.1 59.7, 100.0 37.1, 97.3 33.8 C 100.0 14.0, 92.2 17.0, 79.0 25.2 C 79.7 11.3, 23.7 24.5, 33.3 12.1 C 28.6 17.5, 75.1 13.8, 65.3 16.9 Z" fill="none" fill-opacity="0.76" stroke="hsl(242, 72%, 49%)" stroke-width="2.62"  transform="translate(35.0 67.8) rotate(293.1) scale(1.33 0.55)" />
<path d="M 25.6 51.2 C 40.5 52.8, 30.4 86.4, 34.2 90.6 C 48.5 98.2, 2.7 78.5, 14.2 93.1 C 0.0 76.8, 35.4 63.3, 48.5 54.5 C 37.9 63.9, 12.2 80.2, 26.4 80.9 C 16.7 63.8, 97.0 93.7, 89.5 89.3 C 84.5 100.0, 98.5 23.9, 85.7 33.3 C 77.6 14.3, 4.2 53.7, 10.3 46.7 " fill="none" fill-opacity="0.93" stroke="hsl(183, 71%, 60%)" stroke-width="0.83"  transform="translate(81.7 1.9) rotate(312.2) scale(1.86 1.15)" />
<rect x="5.5" y="14.7" width="43.8" height="16.0" rx="2.2" fill="none" fill-opacity="0.47" stroke="hsl(106, 75%, 59%)" stroke-width="1.7"  transform="translate(99.7 12.0) rotate(117.1) scale(1.21 0.72)" />
<path d="M 99.2 94.0 C 85.0 100.0, 49.4 10.6, 57.6 14.6 C 61.2 3.8, 0.0 83.2, 3.2 80.0 C 20.3 66.7, 57.1 0.0, 57.8 0.3 C 69.5 8.7, 65.1 67.9, 72.2 77.5 C 67.4 69.7, 86.2 80.1, 71.6 90.4 C 74.4 98.6, 0.0 100.0, 8.9 93.4 C 0.0 75.2, 47.7 36.9, 48.2 27.4 C 46.9 23.6, 10.2 59.9, 11.9 72.2 " fill="hsl(106, 75%, 59%)" fill-opacity="0.87" stroke="none" stroke-width="3.51"   />
<rect x="59.2" y="19.4" width="24.8" height="39.8" rx="3.9" fill="none" fill-opacity="0.28"   transform="translate(84.1 10.3) rotate(355.4) scale(1.80 0.83)" />
<rect x="13.6" y="16.0" width="41.8" height="14.7" rx="0" fill="none" fill-opacity="0.72"   transform="translate(3.8 49.4) rotate(10.2) scale(0.99 1.60)" />
<rect x="31.3" y="55.0" width="38.5" height="31.1" rx="0" fill="none" fill-opacity="0.59" stroke="hsl(322, 74%, 44%)" stroke-width="3.3"  transform="translate(24.3 7.7) rotate(266.7) scale(1.06 0.71)" />
<rect x="65.0" y="33.8" width="24.6" height="35.2" rx="0" fill="hsl(290, 83%, 63%)" fill-opacity="0.87" stroke="hsl(86, 72%, 68%)" stroke-width="2.8"  transform="translate(24.5 44.7) rotate(55.5) scale(1.86 0.73)" />
<circle cx="2.8" cy="59.3" r="7.7" fill="url(#g0)" fill-opacity="0.66"  transform="translate(25.4 92.8) rotate(223.7) scale(1.97 1.78)" />
<circle cx="77.6" cy="82.5" r="2.9" fill="url(#g2)" fill-opacity="0.70"  transform="translate(12.2 49.4) rotate(235.9) scale(0.66 1.69)" />
<path d="M 63.5 63.0 C 67.2 63.2, 49.3 38.5, 54.4 23.7 C 59.8 35.4, 28.3 62.7, 41.7 62.8 C 41.0 64.1, 42.6 4.9, 42.1 17.0 C 41.7 6.1, 52.7 23.9, 56.1 34.4 C 41.8 28.7, 29.5 43.8, 23.8 43.3 C 23.5 30.5, 16.7 94.8, 6.2 85.4 C 10.5 74.7, 52.6 33.0, 58.0 41.9 C 51.1 38.6, 12.7 30.1, 0.3 35.0 C 6.5 39.2, 81.8 75.6, 92.7 81.2 C 93.9 94.9, 34.4 14.6, 44.5 13.5 " fill="none" fill-opacity="0.71" stroke="hsl(183, 71%, 60%)" stroke-width="2.37"  transform="translate(51.7 91.1) rotate(65.0) scale(0.76 1.84)" />
<path d="M 93.7 30.3 C 98.9 43.9, 34.3 68.8, 21.2 75.4 C 7.8 73.9, 0.3 0.0, 6.4 7.1 C 4.5 0.0, 0.7 62.8, 15.4 67.7 C 15.6 71.7, 33.7 24.9, 23.8 39.0 C 42.1 40.2, 61.6 23.6, 68.0 9.0 C 52.0 0.0, 54.4 65.2, 56.5 73.6 Z" fill="hsl(104, 72%, 65%)" fill-opacity="0.63" stroke="none" stroke-width="1.32"  transform="translate(64.1 21.7) rotate(303.4) scale(1.80 0.96)" />
<path d="M 43.0 84.4 C 53.8 69.4, 49.7 100.0, 48.9 96.1 C 40.0 93.8, 82.0 69.8, 75.4 73.0 C 89.4 70.9, 25.5 56.8, 22.0 53.9 C 20.2 49.4, 40.1 39.8, 35.6 34.2 C 25.8 52.0, 86.2 14.6, 71.5 25.3 C 75.7 23.1, 36.5 46.4, 46.0 38.7 Z" fill="none" fill-opacity="0.67" stroke="hsl(290, 83%, 63%)" stroke-width="2.66"  transform="translate(23.3 21.0) rotate(68.8) scale(1.27 1.76)" />
<path d="M 61.0 95.9 C 48.6 89.8, 4.5 63.4, 18.6 74.1 C 24.7 64.9, 82.4 98.2, 92.8 95.0 C 100.0 76.1, 58.5 5.9, 46.3 9.1 C 65.6 6.1, 39.7 23.2, 36.1 13.8 C 21.6 9.9, 16.5 26.4, 16.8 32.3 C 5.3 14.9, 89.7 60.2, 82.6 57.1 C 83.7 39.3, 65.2 51.1, 77.4 54.7 C 79.8 35.5, 4.9 52.0, 8.9 59.4 Z" fill="hsl(83, 65%, 44%)" fill-opacity="0.98" stroke="none" stroke-width="3.31"  transform="translate(15.0 5.4) rotate(95.5) scale(0.90 1.95)" />
<circle cx="47.4" cy="81.5" r="5.5" fill="url(#g1)" fill-opacity="0.46" filter="url(#f1)"  />
<rect x="26.4" y="2.8" width="23.3" height="37.7" rx="18.9" fill="hsl(2, 82%, 55%)" fill-opacity="0.46"   transform="translate(74.7 56.9) rotate(84.8) scale(1.97 1.35)" />
<path d="M 3.4 42.3 C 0.0 49.4, 70.5 59.2, 65.1 48.5 C 64.1 35.2, 54.3 65.3, 56.4 78.2 C 66.1 69.3, 56.2 66.9, 42.2 67.1 C 45.4 50.3, 0.0 100.0, 4.3 98.0 C 0.0 84.3, 25.2 42.8, 12.2 32.9 C 26.6 15.2, 67.7 49.8, 61.0 57.0 C 63.2 69.2, 56.4 70.0, 41.9 64.1 C 59.8 58.9, 77.1 77.4, 83.1 73.7 " fill="hsl(106, 75%, 59%)" fill-opacity="0.52" stroke="none" stroke-width="4.83"   />
<path d="M 47.9 66.6 C 29.4 78.6, 70.7 52.9, 84.7 38.3 C 72.9 56.2, 5.7 16.9, 8.8 14.6 C 0.0 16.7, 70.6 11.5, 67.8 22.4 C 77.8 9.9, 56.4 91.8, 55.7 82.8 C 69.2 90.8, 22.2 35.5, 30.6 28.5 C 24.0 43.7, 15.7 46.6, 28.8 42.7 C 33.7 41.6, 19.9 43.3, 8.3 34.3 C 26.6 37.5, 55.5 70.2, 45.6 79.8 C 44.2 86.4, 0.0 62.7, 2.6 53.6 C 0.0 57.3, 7.0 100.0, 20.9 89.8 " fill="hsl(144, 86%, 72%)" fill-opacity="0.45" stroke="none" stroke-width="4.27" filter="url(#f1)" transform="translate(10.7 1.7) rotate(108.5) scale(1.04 0.81)" />
<path d="M 4.8 46.1 C 0.0 29.6, 68.5 17.3, 61.8 32.2 C 80.9 34.4, 79.6 75.9, 93.9 73.3 C 100.0 82.1, 28.4 51.5, 30.7 54.5 C 44.2 35.8, 82.9 8.3, 68.5 16.7 C 78.9 11.3, 84.2 50.9, 77.6 55.1 C 66.8 39.2, 16.1 16.3, 21.5 9.0 Z" fill="hsl(322, 74%, 44%)" fill-opacity="0.76" stroke="none" stroke-width="2.74"  transform="translate(82.8 87.9) rotate(344.6) scale(0.99 1.96)" />
<g opacity="0.050">
<rect x="0" y="0" width="1" height="100" fill="black" />
<rect x="22" y="0" width="1" height="100" fill="black" />
<rect x="44" y="0" width="1" height="100" fill="black" />
<rect x="66" y="0" width="1" height="100" fill="black" />
<rect x="88" y="0" width="1" height="100" fill="black" />
<rect x="0" y="0" width="100" height="1" fill="black" />
<rect x="0" y="22" width="100" height="1" fill="black" />
<rect x="0" y="44" width="100" height="1" fill="black" />
<rect x="0" y="66" width="100" height="1" fill="black" />
<rect x="0" y="88" width="100" height="1" fill="black" />
</g>

</svg>
