<?xml version="1.0" encoding="UTF-8"?>
<svg xmlns="http://www.w3.org/2000/svg" width="100" height="100" viewBox="0 0 100 100">
<defs>
<linearGradient id="g0" x1="0%" y1="0%" x2="100%" y2="100%">
<stop offset="0.0%" stop-color="hsl(106, 75%, 59%)" />
<stop offset="33.3%" stop-color="hsl(183, 71%, 60%)" />
<stop offset="66.7%" stop-color="hsl(242, 72%, 49%)" />
<stop offset="100.0%" stop-color="hsl(322, 74%, 44%)" />
</linearGradient>
<linearGradient id="g1" x1="0%" y1="0%" x2="100%" y2="100%">
<stop offset="0.0%" stop-color="hsl(290, 83%, 63%)" />
<stop offset="33.3%" stop-color="hsl(2, 82%, 55%)" />
<stop offset="66.7%" stop-color="hsl(86, 72%, 68%)" />
<stop offset="100.0%" stop-color="hsl(83, 65%, 44%)" />
</linearGradient>
<linearGradient id="g2" x1="0%" y1="0%" x2="100%" y2="100%">
<stop offset="0.0%" stop-color="hsl(40, 53%, 69%)" />
<stop offset="33.3%" stop-color="hsl(104, 72%, 65%)" />
<stop offset="66.7%" stop-color="hsl(144, 86%, 72%)" />
<stop offset="100.0%" stop-color="hsl(151, 70%, 62%)" />
</linearGradient>
</defs>

<circle cx="42.4" cy="19.3" r="0.3" fill="hsl(86, 72%, 68%)" fill-opacity="0.84"  transform="translate(37.9 73.3) rotate(315.2) scale(0.72 1.17)" />
<circle cx="66.9" cy="91.7" r="0.2" fill="hsl(86, 72%, 68%)" fill-opacity="0.92"   />
<path d="M 97.3 97.3 C 100.0 87.9, 97.0 32.7, 82.2 18.9 C 65.0 26.3, 99.7 3.2, 93.2 9.8 C 86.5 4.0, 63.8 43.3, 71.1 38.6 C 58.2 57.2, 100.0 87.4, 96.7 75.7 C 86.2 61.2, 90.3 20.0, 94.4 5.2 " fill="hsl(151, 70%, 62%)" fill-opacity="0.54" stroke="none" stroke-width="1.06"   />
<rect x="13.3" y="63.6" width="24.3" height="34.7" rx="19.5" fill="none" fill-opacity="0.57"   transform="translate(0.3 77.7) rotate(33.3) scale(1.90 1.91)" />
<path d="M 42.9 40.5 C 61.9 52.9, 57.3 63.2, 61.5 52.6 C 46.4 69.6, 5.0 10.3, 11.8 24.6 C 30.0 21.5, 87.1 42.1, 77.3 38.1 C 67.3 31.6, 18.1 45.6, 29.4 49.9 C 27.9 31.6, 7.5 11.7, 4.9 6.5 " fill="none" fill-opacity="0.47" stroke="hsl(290, 83%, 63%)" stroke-width="0.85"  transform="translate(89.4 7.6) rotate(259.7) scale(0.59 1.11)" />
<path d="M 26.3 85.2 C 43.1 78.2, 17.5 69.4, 23.7 66.7 C 12.3 48.6, 52.9 78.6, 67.0 70.7 C 77.2 60.9, 14.5 72.6, 16.0 73.0 C 30.7 61.4, 100.0 20.6, 98.7 13.3 C 97.2 25.9, 54.6 88.0, 56.0 89.5 " fill="none" fill-opacity="0.85" stroke="hsl(104, 72%, 65%)" stroke-width="0.92"  transform="translate(2.7 75.9) rotate(158.7) scale(1.93 1.76)" />
<rect x="1.4" y="31.1" width="37.9" height="36.4" rx="1.0" fill="none" fill-opacity="0.76"   transform="translate(62.6 38.0) rotate(111.2) scale(0.70 1.12)" />
<rect x="17.4" y="2.7" width="30.0" height="20.4" rx="16.9" fill="hsl(86, 72%, 68%)" fill-opacity="0.52"   transform="translate(26.3 64.1) rotate(321.2) scale(0.63 1.34)" />
<path d="M 5.3 81.7 C 0.0 90.8, 60.7 64.3, 55.6 71.1 C 73.0 90.9, 12.3 99.5, 10.9 86.6 C 28.4 77.1, 79.8 59.3, 90.9 71.7 C 86.1 91.7, 48.1 90.4, 43.6 81.3 C 40.3 92.6, 54.3 51.9, 60.3 65.5 C 77.7 51.9, 91.7 83.2, 86.0 91.0 " fill="hsl(40, 53%, 69%)" fill-opacity="0.78" stroke="none" stroke-width="0.84"  transform="translate(42.3 54.7) rotate(93.6) scale(1.76 2.00)" />
<rect x="63.8" y="7.9" width="24.2" height="36.0" rx="0" fill="hsl(2, 82%, 55%)" fill-opacity="0.38"    />
<rect x="45.5" y="60.6" width="39.2" height="21.8" rx="0" fill="hsl(106, 75%, 59%)" fill-opacity="0.81"    />
<path d="M 13.1 88.6 C 15.8 100.0, 44.4 48.3, 58.9 34.4 C 77.4 25.2, 29.8 40.9, 34.0 42.8 C 20.1 45.5, 41.0 34.2, 37.0 37.6 C 45.6 24.9, 49.6 58.2, 35.8 46.2 C 19.3 38.0, 68.0 100.0, 76.1 91.3 C 75.1 100.0, 47.9 12.0, 40.7 5.9 C 48.5 0.0, 34.1 100.0, 47.1 90.9 " fill="hsl(242, 72%, 49%)" fill-opacity="0.29" stroke="none" stroke-width="1.15"   />
<circle cx="88.2" cy="40.2" r="0.8" fill="hsl(242, 72%, 49%)" fill-opacity="0.63"  transform="translate(57.8 67.2) rotate(134.9) scale(0.68 0.65)" />
<path d="M 58.2 83.5 C 47.1 78.3, 23.6 20.9, 20.7 15.5 C 24.6 11.8, 32.7 14.2, 31.2 14.8 C 15.6 25.1, 69.4 90.9, 70.8 91.8 Z" fill="none" fill-opacity="1.00" stroke="hsl(106, 75%, 59%)" stroke-width="1.18"  transform="translate(79.7 71.0) rotate(17.4) scale(1.76 1.03)" />
<path d="M 57.2 67.5 C 48.0 77.5, 96.6 56.5, 84.1 51.6 C 72.0 70.1, 97.4 77.6, 95.7 63.3 C 84.2 72.1, 99.0 10.4, 98.3 4.6 " fill="none" fill-opacity="0.58" stroke="hsl(242, 72%, 49%)" stroke-width="0.88"   />
<rect x="46.7" y="15.7" width="34.3" height="12.8" rx="0" fill="hsl(290, 83%, 63%)" fill-opacity="0.50"   transform="translate(2.6 17.0) rotate(59.7) scale(1.90 1.29)" />
<path d="M 76.4 47.3 C 91.0 32.6, 89.2 40.4, 95.5 34.6 C 87.4 18.6, 49.1 22.6, 37.0 19.8 C 27.0 39.2, 27.7 28.6, 33.4 18.6 C 18.9 9.3, 53.9 61.5, 53.7 52.3 C 71.1 64.2, 7.1 27.7, 8.1 22.3 C 0.0 24.9, 0.0 33.5, 0.5 39.9 C 8.6 42.3, 52.1 0.0, 45.2 4.3 Z" fill="none" fill-opacity="0.70" stroke="hsl(83, 65%, 44%)" stroke-width="1.05"   />
</svg>
