<?xml version="1.0" encoding="UTF-8"?>
<svg xmlns="http://www.w3.org/2000/svg" width="100" height="100" viewBox="0 0 100 100">
<defs>
<linearGradient id="g0" x1="0%" y1="0%" x2="100%" y2="100%">
<stop offset="0.0%" stop-color="hsl(106, 75%, 59%)" />
<stop offset="33.3%" stop-color="hsl(183, 71%, 60%)" />
<stop offset="66.7%" stop-color="hsl(242, 72%, 49%)" />
<stop offset="100.0%" stop-color="hsl(322, 74%, 44%)" />
</linearGradient>
<linearGradient id="g1" x1="0%" y1="0%" x2="100%" y2="100%">
<stop offset="0.0%" stop-color="hsl(290, 83%, 63%)" />
<stop offset="33.3%" stop-color="hsl(2, 82%, 55%)" />
<stop offset="66.7%" stop-color="hsl(86, 72%, 68%)" />
<stop offset="100.0%" stop-color="hsl(83, 65%, 44%)" />
</linearGradient>
<linearGradient id="g2" x1="0%" y1="0%" x2="100%" y2="100%">
<stop offset="0.0%" stop-color="hsl(40, 53%, 69%)" />
<stop offset="33.3%" stop-color="hsl(104, 72%, 65%)" />
<stop offset="66.7%" stop-color="hsl(144, 86%, 72%)" />
<stop offset="100.0%" stop-color="hsl(151, 70%, 62%)" />
</linearGradient>
<filter id="f1" x="-20%" y="-20%" width="140%" height="140%">
  <feGaussianBlur stdDeviation="0.5252845739435452" />
</filter>

</defs>

<path d="M 71.9 47.5 C 71.4 49.3, 27.9 26.4, 22.4 33.9 C 39.8 31.1, 18.8 67.4, 22.8 55.3 C 25.8 65.6, 7.3 75.4, 12.4 77.4 C 31.5 72.5, 21.3 53.5, 14.9 45.9 C 29.4 63.3, 25.2 89.2, 32.0 89.8 C 25.5 100.0, 13.7 76.6, 2.3 85.5 Z" fill="hsl(2, 82%, 55%)" fill-opacity="0.86" stroke="none" stroke-width="3.02"  transform="translate(52.9 77.5) rotate(303.5) scale(1.92 1.91)" />
<rect x="31.2" y="44.0" width="25.6" height="23.0" rx="0" fill="hsl(242, 72%, 49%)" fill-opacity="0.95" stroke="hsl(322, 74%, 44%)" stroke-width="1.9"  transform="translate(76.1 77.6) rotate(141.9) scale(0.85 1.52)" />
<path d="M 73.9 76.5 C 57.3 58.1, 0.0 44.7, 2.8 31.7 C 14.8 40.6, 48.3 98.5, 41.7 98.7 C 47.2 93.6, 38.4 19.7, 25.8 33.2 C 22.7 43.4, 21.6 35.3, 26.9 27.3 C 12.3 23.5, 68.8 84.9, 63.0 73.1 C 43.2 53.5, 13.9 65.4, 6.2 72.6 C 0.0 82.0, 68.1 78.3, 70.2 71.7 Z" fill="none" fill-opacity="0.90" stroke="hsl(86, 72%, 68%)" stroke-width="2.01"  transform="translate(26.8 51.2) rotate(94.5) scale(1.28 1.51)" />
<circle cx="89.3" cy="59.6" r="3.4" fill="hsl(106, 75%, 59%)" fill-opacity="0.62"  transform="translate(96.3 3.7) rotate(319.4) scale(1.85 1.34)" />
<path d="M 31.9 41.3 C 12.4 48.7, 91.5 45.2, 78.4 59.0 C 96.4 65.9, 72.0 100.0, 59.9 96.5 C 79.4 100.0, 72.2 48.7, 82.6 61.5 C 99.9 58.9, 9.1 44.0, 16.0 34.2 C 0.0 21.4, 29.6 100.0, 28.9 98.3 C 32.4 97.0, 95.0 87.8, 98.1 94.6 C 100.0 90.7, 9.4 18.0, 23.2 11.1 C 14.8 3.9, 33.9 90.3, 21.1 96.9 C 18.2 85.1, 53.7 41.9, 44.6 42.8 Z" fill="hsl(183, 71%, 60%)" fill-opacity="0.78" stroke="none" stroke-width="1.16" filter="url(#f1)" transform="translate(96.9 61.9) rotate(5.1) scale(0.60 1.79)" />
<path d="M 17.2 21.8 C 15.5 22.3, 94.0 46.4, 84.9 59.3 C 65.3 63.3, 0.0 41.8, 7.1 51.3 C 0.0 36.2, 9.5 82.3, 2.8 72.8 C 0.0 56.3, 88.8 20.5, 76.1 11.0 C 62.3 19.4, 100.0 11.1, 94.9 19.3 C 100.0 7.1, 97.1 82.1, 82.7 76.3 C 95.5 57.7, 65.8 77.5, 61.9 76.3 C 64.4 68.0, 0.8 5.6, 15.8 10.7 C 28.1 28.4, 80.2 14.0, 87.7 22.8 C 100.0 36.0, 40.1 24.3, 50.7 23.4 Z" fill="hsl(86, 72%, 68%)" fill-opacity="0.84" stroke="none" stroke-width="4.16"  transform="translate(79.0 3.7) rotate(87.0) scale(1.75 1.10)" />
<rect x="25.4" y="61.8" width="30.3" height="13.6" rx="19.6" fill="none" fill-opacity="0.87"   transform="translate(52.9 96.1) rotate(76.9) scale(1.30 0.96)" />
<circle cx="9.3" cy="50.3" r="5.2" fill="hsl(86, 72%, 68%)" fill-opacity="0.99"  transform="translate(99.4 58.7) rotate(22.7) scale(0.73 1.36)" />
<path d="M 56.6 32.9 C 62.1 14.0, 100.0 72.6, 99.2 74.9 C 100.0 70.6, 41.9 87.9, 36.1 74.8 C 35.2 86.5, 33.4 91.1, 25.6 90.6 C 6.2 100.0, 47.9 88.3, 54.6 80.1 C 49.3 77.6, 11.4 0.0, 8.3 7.7 C 1.1 0.0, 26.4 41.0, 30.1 42.6 C 32.7 38.3, 13.9 0.5, 10.9 9.3 Z" fill="none" fill-opacity="0.93" stroke="hsl(2, 82%, 55%)" stroke-width="4.16"  transform="translate(28.8 75.3) rotate(9.0) scale(1.10 1.21)" />
<path d="M 21.7 1.1 C 30.8 4.2, 86.0 6.5, 79.7 17.1 C 75.9 26.5, 86.0 74.7, 72.6 68.6 C 84.8 61.1, 36.4 0.0, 41.0 0.8 C 34.0 0.6, 38.1 23.4, 45.4 29.5 C 30.6 31.1, 31.2 16.3, 40.5 22.2 C 42.9 10.2, 34.3 36.2, 47.9 31.1 C 49.2 42.7, 0.0 16.2, 11.2 22.8 C 24.8 25.5, 84.0 35.8, 78.1 29.4 Z" fill="none" fill-opacity="0.70" stroke="hsl(86, 72%, 68%)" stroke-width="4.24"  transform="translate(31.7 54.4) rotate(218.0) scale(1.60 1.39)" />
<path d="M 49.6 80.5 C 63.3 77.5, 74.6 72.6, 88.1 73.3 C 72.6 88.5, 40.0 75.6, 44.9 80.0 C 52.2 62.1, 27.9 51.0, 27.4 49.4 C 36.1 44.4, 42.9 31.6, 35.6 33.6 C 53.9 44.0, 21.8 5.2, 13.9 5.4 C 24.7 0.0, 65.7 0.0, 72.0 3.3 Z" fill="hsl(2, 82%, 55%)" fill-opacity="0.60" stroke="none" stroke-width="3.37"  transform="translate(84.3 71.7) rotate(57.5) scale(0.92 0.70)" />
<path d="M 22.3 21.0 C 7.1 38.3, 65.9 90.9, 58.9 93.9 C 74.9 79.6, 27.4 100.0, 19.6 96.3 C 5.3 96.2, 37.3 64.3, 34.4 56.7 C 39.7 41.0, 84.2 87.1, 89.4 93.1 C 100.0 88.1, 14.1 81.5, 9.7 75.9 C 24.1 57.9, 22.1 95.6, 32.8 87.7 C 17.8 100.0, 83.0 65.5, 76.2 51.5 C 93.4 71.4, 59.1 76.5, 61.8 64.6 C 53.8 54.8, 100.0 82.4, 96.4 76.1 C 91.0 79.3, 73.4 23.1, 74.8 32.3 Z" fill="hsl(144, 86%, 72%)" fill-opacity="0.56" stroke="none" stroke-width="3.96"  transform="translate(66.1 15.2) rotate(220.6) scale(1.18 0.91)" />
<rect x="32.9" y="40.6" width="42.2" height="23.2" rx="0" fill="none" fill-opacity="0.42"   transform="translate(28.1 98.9) rotate(220.2) scale(1.61 1.91)" />
<rect x="49.7" y="63.0" width="42.4" height="34.6" rx="3.1" fill="hsl(183, 71%, 60%)" fill-opacity="0.46"    />
<rect x="3.4" y="38.6" width="35.2" height="34.2" rx="0.3" fill="none" fill-opacity="0.85"   transform="translate(87.6 51.1) rotate(315.7) scale(1.56 1.61)" />
<path d="M 44.6 99.8 C 55.4 96.3, 44.8 72.3, 40.2 67.2 C 26.2 55.1, 41.3 34.1, 44.3 46.1 C 41.0 60.6, 94.3 40.6, 81.4 37.5 C 83.3 43.9, 23.1 52.2, 23.5 45.2 C 32.6 29.8, 39.9 54.4, 52.3 69.1 C 66.1 70.2, 61.7 33.2, 73.7 35.1 C 61.6 38.9, 86.0 54.0, 92.4 41.3 C 87.5 31.7, 37.3 26.3, 42.4 39.4 C 52.6 43.0, 55.8 100.0, 47.1 94.3 Z" fill="hsl(40, 53%, 69%)" fill-opacity="0.53" stroke="none" stroke-width="1.20"  transform="translate(13.4 55.4) rotate(186.4) scale(1.07 1.83)" />
<path d="M 29.2 93.5 C 13.6 100.0, 38.8 74.1, 45.1 83.7 C 30.4 87.3, 31.4 83.5, 29.0 76.2 C 22.7 66.1, 100.0 82.7, 93.4 92.9 C 96.9 77.0, 33.7 45.9, 43.1 51.2 C 61.0 51.0, 89.2 44.2, 87.1 50.7 C 99.6 54.3, 98.2 80.8, 85.3 82.2 C 73.8 98.0, 28.5 94.0, 25.7 97.2 " fill="hsl(290, 83%, 63%)" fill-opacity="0.88" stroke="none" stroke-width="2.40"  transform="translate(54.7 81.0) rotate(99.7) scale(1.25 0.77)" />
<path d="M 84.6 72.4 C 70.8 53.2, 10.3 10.5, 8.9 13.2 C 4.6 20.3, 87.9 15.4, 77.1 16.9 C 62.0 25.7, 69.9 19.8, 84.4 14.5 C 79.1 0.2, 45.7 86.7, 50.2 82.9 C 50.3 100.0, 71.0 46.7, 56.3 59.0 C 50.1 49.6, 68.4 100.0, 56.3 95.1 Z" fill="none" fill-opacity="0.41" stroke="hsl(106, 75%, 59%)" stroke-width="1.16"  transform="translate(8.5 22.4) rotate(74.7) scale(1.49 1.74)" />
<path d="M 53.8 63.2 C 67.0 56.8, 44.0 54.3, 52.5 52.6 C 37.5 39.5, 81.9 6.0, 91.9 9.5 C 100.0 14.2, 15.8 28.1, 26.2 13.5 C 12.9 0.0, 45.4 98.1, 37.8 90.6 C 34.6 100.0, 19.1 85.0, 9.8 85.2 C 18.3 99.0, 86.9 87.7, 90.7 89.3 C 73.8 70.1, 51.3 44.4, 36.9 46.8 C 45.3 60.4, 50.4 15.5, 56.8 13.0 C 46.3 0.0, 67.9 82.5, 76.5 72.5 C 82.1 59.4, 100.0 0.7, 92.4 10.8 Z" fill="hsl(86, 72%, 68%)" fill-opacity="0.54" stroke="none" stroke-width="5.29"  transform="translate(0.8 68.6) rotate(306.1) scale(0.50 1.59)" />
<circle cx="69.1" cy="5.0" r="9.1" fill="hsl(242, 72%, 49%)" fill-opacity="0.93"  transform="translate(53.0 7.1) rotate(184.9) scale(1.36 1.81)" />
<path d="M 87.0 5.9 C 68.1 21.9, 46.1 44.9, 57.4 43.3 C 48.7 49.0, 42.4 78.5, 42.2 75.0 C 48.5 71.8, 45.0 45.5, 51.0 36.1 C 34.4 44.7, 68.2 75.4, 82.2 67.2 C 66.8 63.9, 42.6 73.4, 30.9 74.0 C 15.5 71.2, 94.0 91.6, 83.2 77.8 C 78.8 67.0, 33.9 79.7, 43.4 88.0 C 36.1 99.4, 16.9 40.7, 7.1 26.3 C 0.0 41.6, 10.6 26.4, 11.3 22.1 C 26.4 26.9, 63.9 86.9, 66.5 86.0 Z" fill="hsl(86, 72%, 68%)" fill-opacity="0.41" stroke="none" stroke-width="2.69"  transform="translate(28.0 71.9) rotate(290.0) scale(1.47 1.97)" />
<path d="M 34.1 60.5 C 26.6 66.7, 2.7 83.7, 9.4 92.4 C 0.0 100.0, 97.9 9.0, 97.9 7.9 C 85.8 25.2, 96.6 97.8, 93.4 85.9 C 86.6 87.8, 81.1 33.1, 90.4 26.3 C 94.2 24.6, 98.9 39.4, 97.3 34.2 C 100.0 36.4, 10.8 48.5, 16.0 49.7 C 27.0 58.9, 44.8 86.5, 58.5 83.4 Z" fill="hsl(106, 75%, 59%)" fill-opacity="0.68" stroke="none" stroke-width="4.77" filter="url(#f1)" transform="translate(27.0 59.8) rotate(228.2) scale(0.52 0.81)" />
<path d="M 17.3 60.5 C 20.4 40.5, 22.7 74.2, 16.4 78.8 C 15.4 81.5, 73.0 71.3, 65.3 58.7 C 65.2 48.1, 64.4 45.9, 50.9 56.2 C 45.4 68.7, 11.1 64.1, 12.0 75.9 C 15.2 57.5, 77.4 8.8, 65.8 10.4 C 52.6 17.4, 60.4 19.9, 68.1 30.1 C 65.2 12.0, 27.2 100.0, 28.2 94.2 C 35.0 97.2, 0.0 56.5, 3.8 46.0 Z" fill="hsl(86, 72%, 68%)" fill-opacity="0.69" stroke="none" stroke-width="4.47"  transform="translate(16.8 16.6) rotate(109.4) scale(1.11 1.93)" />
<path d="M 75.4 0.4 C 74.0 8.9, 52.6 45.6, 54.0 39.0 C 56.8 45.5, 64.0 16.8, 62.2 19.9 C 63.0 38.3, 26.8 95.6, 18.6 86.7 C 30.9 79.5, 56.1 63.2, 60.8 68.4 C 64.4 86.0, 44.0 0.6, 40.7 3.1 C 34.6 0.0, 41.0 0.0, 35.4 5.7 C 15.8 0.0, 13.7 38.5, 2.1 52.1 C 7.0 39.2, 67.6 14.1, 74.5 4.6 C 73.5 0.0, 86.3 12.7, 94.3 7.8 C 82.0 19.7, 37.7 0.0, 50.3 3.2 Z" fill="none" fill-opacity="0.73" stroke="hsl(322, 74%, 44%)" stroke-width="5.12"   />
<circle cx="66.8" cy="58.0" r="3.3" fill="url(#g0)" fill-opacity="0.77"  transform="translate(75.3 16.9) rotate(298.0) scale(1.72 0.63)" />
<rect x="8.1" y="5.7" width="48.7" height="13.7" rx="0" fill="none" fill-opacity="0.57"  filter="url(#f1)" transform="translate(47.1 38.7) rotate(26.0) scale(1.21 0.73)" />
<path d="M 89.9 64.6 C 82.6 62.4, 30.3 70.2, 31.6 73.3 C 35.3 70.2, 77.9 25.7, 82.0 21.8 C 74.6 35.6, 19.9 19.2, 7.2 21.4 C 0.0 40.4, 59.1 0.6, 61.8 15.4 C 71.3 21.9, 65.0 84.9, 78.3 97.3 C 71.5 100.0, 40.2 33.4, 34.5 25.9 Z" fill="hsl(104, 72%, 65%)" fill-opacity="0.48" stroke="none" stroke-width="2.40"  transform="translate(67.9 72.1) rotate(251.0) scale(1.93 1.52)" />
<path d="M 51.9 29.1 C 41.0 43.9, 0.0 90.7, 1.7 77.1 C 8.8 75.1, 53.8 83.7, 48.3 82.6 C 49.0 86.5, 55.0 21.8, 60.5 11.7 C 58.0 30.6, 44.1 52.7, 55.9 47.7 C 38.6 55.1, 40.9 30.0, 49.3 27.3 C 57.4 12.7, 68.4 14.4, 76.6 8.8 C 67.5 0.0, 18.5 78.9, 26.1 78.9 C 42.6 86.8, 55.5 28.3, 52.4 31.3 C 71.7 42.8, 97.3 78.2, 90.3 68.2 Z" fill="none" fill-opacity="0.81" stroke="hsl(290, 83%, 63%)" stroke-width="3.02"  transform="translate(84.7 95.6) rotate(141.6) scale(0.78 1.60)" />
<circle cx="5.3" cy="82.6" r="0.5" fill="url(#g2)" fill-opacity="0.47"  transform="translate(38.6 52.4) rotate(352.9) scale(1.55 1.70)" />
<path d="M 62.4 78.9 C 49.8 67.7, 100.0 94.5, 94.7 82.3 C 99.4 98.0, 3.9 68.1, 17.0 63.3 C 3.5 61.4, 30.1 12.9, 36.4 20.6 C 43.6 17.7, 0.0 38.2, 8.2 52.7 C 0.0 57.1, 68.5 17.9, 63.4 5.8 C 80.9 18.0, 64.7 56.5, 60.1 59.7 C 78.1 57.9, 44.7 61.7, 48.5 60.9 C 54.4 63.5, 100.0 59.2, 89.7 45.8 Z" fill="hsl(242, 72%, 49%)" fill-opacity="0.41" stroke="none" stroke-width="3.19"  transform="translate(58.1 67.2) rotate(123.6) scale(1.86 0.87)" />
<path d="M 74.1 30.7 C 78.9 27.6, 48.1 54.9, 34.4 62.2 C 32.5 77.1, 42.4 38.9, 42.7 49.2 C 35.0 53.9, 22.2 66.2, 8.6 76.8 C 0.6 72.7, 100.0 76.4, 97.5 87.0 C 100.0 98.9, 69.2 23.5, 79.0 11.8 C 73.0 20.1, 28.2 99.6, 13.2 98.8 C 26.2 83.2, 56.0 1.6, 67.7 15.3 C 81.0 29.9, 66.2 46.7, 60.1 33.2 C 69.6 49.7, 58.2 9.8, 44.6 3.4 " fill="hsl(106, 75%, 59%)" fill-opacity="0.26" stroke="none" stroke-width="5.24"   />
<path d="M 73.0 19.1 C 86.2 35.8, 61.9 13.4, 53.5 11.5 C 68.9 21.5, 78.1 47.2, 75.9 47.1 C 75.7 37.4, 48.8 30.4, 59.3 29.3 C 57.4 29.1, 28.5 29.1, 41.2 20.5 C 34.6 25.1, 40.6 37.3, 27.9 49.0 C 46.6 37.1, 87.3 75.6, 74.1 63.0 C 80.7 80.3, 3.7 60.6, 6.2 61.1 C 0.0 44.8, 70.3 4.1, 66.1 8.8 C 53.6 6.0, 39.0 77.6, 51.5 71.2 C 39.5 89.4, 99.2 81.2, 88.8 86.8 Z" fill="hsl(104, 72%, 65%)" fill-opacity="0.94" stroke="none" stroke-width="2.99"   />
<path d="M 1.5 59.9 C 14.2 62.3, 97.5 34.1, 94.0 40.3 C 100.0 54.1, 63.4 98.1, 74.7 91.2 C 91.5 72.2, 31.4 17.1, 29.1 20.8 C 17.7 31.7, 97.6 4.6, 90.1 14.8 C 87.4 16.6, 76.5 61.6, 80.7 53.1 C 87.1 55.5, 37.5 20.4, 27.2 32.1 C 44.2 27.9, 66.0 32.3, 53.9 40.2 C 72.2 46.9, 83.7 32.2, 75.3 22.7 Z" fill="hsl(144, 86%, 72%)" fill-opacity="0.53" stroke="none" stroke-width="4.27"  transform="translate(97.9 77.4) rotate(157.7) scale(1.00 0.58)" />
<path d="M 71.5 94.1 C 80.9 77.5, 24.6 17.5, 26.0 12.9 C 14.3 30.5, 33.5 22.0, 33.3 22.4 C 51.0 14.4, 71.8 49.7, 63.4 45.6 C 82.3 45.7, 53.2 42.7, 49.6 28.6 C 29.9 18.7, 23.4 8.7, 36.0 10.1 C 29.3 0.0, 9.5 30.8, 0.7 25.0 Z" fill="none" fill-opacity="0.79" stroke="hsl(183, 71%, 60%)" stroke-width="2.02"   />
<path d="M 31.8 40.2 C 24.3 38.1, 0.0 23.7, 0.3 10.6 C 0.0 13.0, 50.0 55.4, 36.1 50.6 C 21.8 33.7, 74.7 82.1, 60.5 84.2 C 61.1 76.5, 65.6 82.3, 63.3 67.8 C 58.2 52.2, 53.6 32.0, 41.9 25.0 C 53.6 43.2, 62.2 48.5, 74.3 41.8 Z" fill="none" fill-opacity="0.33" stroke="hsl(242, 72%, 49%)" stroke-width="2.05" filter="url(#f1)" transform="translate(91.4 73.4) rotate(19.4) scale(1.82 1.90)" />
<path d="M 7.6 36.4 C 6.8 26.1, 90.6 0.0, 89.3 12.7 C 79.1 8.2, 78.4 23.5, 87.9 33.4 C 100.0 33.2, 100.0 12.3, 92.8 16.5 C 81.0 16.9, 23.5 22.0, 26.9 7.6 C 17.2 0.0, 26.2 41.3, 16.3 48.4 C 0.0 31.4, 71.9 69.8, 81.0 59.3 C 79.5 46.5, 78.0 31.8, 77.9 29.2 C 60.0 29.4, 36.7 27.7, 37.4 33.8 C 23.8 24.1, 7.4 57.8, 0.2 60.6 Z" fill="hsl(86, 72%, 68%)" fill-opacity="0.67" stroke="none" stroke-width="1.84"  transform="translate(34.2 30.8) rotate(113.8) scale(0.60 0.78)" />
<rect x="24.0" y="2.5" width="25.6" height="14.5" rx="0" fill="hsl(40, 53%, 69%)" fill-opacity="0.93"   transform="translate(39.0 12.2) rotate(241.5) scale(1.98 1.27)" />
<circle cx="61.7" cy="25.6" r="9.4" fill="url(#g0)" fill-opacity="0.56"  transform="translate(74.1 21.1) rotate(143.9) scale(1.17 1.42)" />
<rect x="44.2" y="36.1" width="23.6" height="11.9" rx="0" fill="hsl(2, 82%, 55%)" fill-opacity="0.92"   transform="translate(89.0 1.3) rotate(28.2) scale(1.85 1.76)" />
<rect x="16.8" y="54.7" width="29.8" height="10.3" rx="5.5" fill="hsl(242, 72%, 49%)" fill-opacity="0.56" stroke="hsl(242, 72%, 49%)" stroke-width="4.2"   />
<rect x="38.9" y="59.4" width="50.0" height="13.1" rx="9.0" fill="none" fill-opacity="0.54"   transform="translate(13.2 79.3) rotate(105.5) scale(1.17 1.94)" />
<rect x="31.8" y="37.9" width="22.5" height="17.9" rx="0" fill="hsl(151, 70%, 62%)" fill-opacity="0.66"   transform="translate(15.0 44.1) rotate(286.3) scale(1.23 0.77)" />
<path d="M 58.9 12.4 C 39.1 3.1, 74.2 35.1, 63.2 28.7 C 53.3 24.2, 89.4 24.7, 96.4 28.6 C 97.8 35.6, 36.6 18.3, 50.7 30.6 C 59.8 28.0, 59.6 22.2, 64.0 18.7 C 49.1 26.9, 63.1 69.3, 55.2 73.5 C 39.4 69.4, 86.6 86.9, 98.0 77.0 C 100.0 71.8, 44.2 38.4, 40.2 26.0 C 27.6 27.8, 32.5 27.5, 31.4 36.2 C 46.3 48.6, 81.2 50.1, 90.4 56.5 Z" fill="hsl(2, 82%, 55%)" fill-opacity="0.75" stroke="none" stroke-width="2.11"  transform="translate(68.0 69.9) rotate(153.1) scale(1.31 1.31)" />
<path d="M 34.2 56.7 C 49.9 59.1, 100.0 0.0, 95.4 0.5 C 79.0 15.5, 26.0 13.7, 32.1 1.3 C 47.1 15.6, 17.3 70.6, 8.0 81.1 C 0.0 96.3, 33.7 72.6, 43.7 82.3 C 42.8 95.9, 87.2 33.5, 95.7 48.5 C 100.0 32.7, 32.5 11.3, 18.1 1.5 C 28.3 0.0, 22.2 67.4, 34.1 66.2 C 24.2 71.4, 40.3 0.0, 40.3 1.9 C 55.8 7.1, 32.1 59.3, 33.7 53.4 Z" fill="none" fill-opacity="0.92" stroke="hsl(183, 71%, 60%)" stroke-width="1.22"  transform="translate(31.3 34.7) rotate(353.8) scale(1.53 1.71)" />
<path d="M 60.1 18.9 C 75.1 34.9, 82.3 50.8, 68.5 40.6 C 78.9 48.4, 100.0 49.8, 94.0 53.0 C 74.9 61.5, 0.0 68.1, 1.6 64.5 C 0.0 72.4, 67.6 38.8, 78.0 52.4 C 64.4 64.9, 61.1 48.2, 50.8 55.6 C 44.1 52.9, 50.9 69.2, 49.7 80.6 C 47.6 100.0, 56.7 39.8, 54.4 33.1 C 55.1 17.8, 17.9 82.7, 10.2 94.8 Z" fill="none" fill-opacity="0.87" stroke="hsl(83, 65%, 44%)" stroke-width="3.39"  transform="translate(88.8 20.1) rotate(67.3) scale(1.89 1.58)" />
<path d="M 46.0 79.9 C 58.0 82.3, 100.0 64.5, 91.9 67.5 C 80.5 80.9, 88.3 92.3, 98.3 99.8 C 100.0 85.0, 50.7 28.7, 65.5 14.3 C 58.9 23.4, 37.5 65.8, 43.5 75.9 C 50.1 68.7, 84.4 0.0, 92.4 8.6 C 82.6 14.6, 87.0 68.7, 98.9 81.8 Z" fill="hsl(40, 53%, 69%)" fill-opacity="0.81" stroke="none" stroke-width="1.17" filter="url(#f1)" transform="translate(29.1 25.9) rotate(310.4) scale(0.59 1.68)" />
<circle cx="78.2" cy="22.7" r="16.6" fill="url(#g0)" fill-opacity="0.47"  transform="translate(90.4 3.9) rotate(289.6) scale(0.64 1.02)" />
<path d="M 83.8 88.5 C 100.0 100.0, 43.9 34.4, 37.6 35.7 C 29.3 43.5, 79.8 28.7, 69.4 25.8 C 70.1 36.3, 82.5 52.3, 93.5 48.8 C 100.0 45.3, 85.8 9.0, 72.0 17.5 C 52.1 4.3, 31.3 37.9, 33.1 34.6 C 18.7 29.6, 100.0 26.0, 90.1 17.0 C 73.5 26.8, 24.4 60.4, 30.1 48.0 Z" fill="hsl(106, 75%, 59%)" fill-opacity="0.99" stroke="none" stroke-width="5.18"  transform="translate(85.1 41.8) rotate(205.8) scale(0.73 1.22)" />
<path d="M 26.0 55.0 C 20.0 52.5, 29.8 0.0, 40.3 4.3 C 60.2 0.0, 78.1 16.8, 86.3 11.1 C 87.9 7.7, 49.3 8.4, 45.9 22.1 C 35.6 19.8, 32.5 19.7, 29.0 23.3 C 18.6 7.0, 35.5 76.3, 26.5 82.1 C 38.0 81.3, 7.4 90.4, 5.5 98.6 C 20.1 86.5, 77.6 31.4, 80.4 32.6 Z" fill="hsl(86, 72%, 68%)" fill-opacity="0.78" stroke="none" stroke-width="1.85"  transform="translate(40.9 69.0) rotate(147.5) scale(0.65 0.86)" />
<rect x="25.7" y="14.4" width="47.4" height="39.8" rx="0" fill="hsl(106, 75%, 59%)" fill-opacity="0.93"    />
<path d="M 1.6 36.7 C 0.0 48.9, 39.7 18.3, 40.3 4.0 C 46.6 11.6, 64.7 52.3, 78.5 57.4 C 92.0 40.4, 29.5 90.7, 19.3 94.7 C 20.9 100.0, 8.4 74.0, 21.0 59.9 C 14.7 45.0, 42.9 10.4, 55.0 12.1 C 36.2 0.0, 33.8 70.1, 43.1 67.2 C 47.7 84.7, 45.3 53.9, 45.6 63.1 C 34.2 45.3, 73.4 33.0, 79.8 47.0 C 88.9 44.2, 21.2 76.0, 16.3 75.0 C 8.1 57.2, 14.8 17.9, 3.3 22.6 Z" fill="hsl(2, 82%, 55%)" fill-opacity="0.60" stroke="none" stroke-width="3.41"  transform="translate(12.1 55.5) rotate(223.6) scale(1.22 1.07)" />
<circle cx="81.7" cy="27.0" r="11.4" fill="url(#g0)" fill-opacity="0.97" filter="url(#f1)" transform="translate(41.3 76.9) rotate(295.2) scale(1.79 1.40)" />
<path d="M 19.2 48.6 C 9.6 39.4, 6.2 44.7, 16.8 37.5 C 3.1 20.7, 69.1 92.4, 74.7 89.7 C 92.0 95.7, 84.6 60.0, 98.1 75.0 C 100.0 65.8, 44.1 17.0, 43.9 14.7 C 27.4 9.7, 54.4 45.3, 62.5 36.8 C 59.6 31.0, 3.5 39.7, 12.0 53.7 C 12.2 36.3, 76.2 56.5, 75.4 64.5 C 80.4 70.9, 77.7 37.9, 86.9 45.2 Z" fill="hsl(40, 53%, 69%)" fill-opacity="0.29" stroke="none" stroke-width="2.65"  transform="translate(59.8 8.5) rotate(35.8) scale(1.24 1.88)" />
<rect x="39.6" y="58.0" width="21.2" height="18.8" rx="0" fill="none" fill-opacity="0.64"   transform="translate(21.0 2.2) rotate(35.2) scale(1.58 1.50)" />
<path d="M 44.3 64.8 C 28.4 72.8, 52.4 35.2, 56.1 45.0 C 66.5 29.8, 33.5 3.5, 26.1 0.1 C 17.0 10.7, 82.4 21.5, 69.1 9.4 C 57.8 6.1, 27.2 66.1, 28.5 72.7 C 20.5 62.3, 64.3 82.8, 61.6 88.6 C 60.1 74.5, 95.5 18.7, 93.4 29.2 C 77.3 49.0, 0.0 84.3, 4.6 71.6 " fill="none" fill-opacity="0.89" stroke="hsl(322, 74%, 44%)" stroke-width="5.12"  transform="translate(83.0 39.3) rotate(272.8) scale(0.52 0.55)" />
<rect x="26.8" y="35.8" width="39.6" height="30.9" rx="3.0" fill="hsl(290, 83%, 63%)" fill-opacity="0.25"   transform="translate(8.5 74.0) rotate(251.6) scale(1.50 1.17)" />
<rect x="4.6" y="5.7" width="30.3" height="14.0" rx="0" fill="none" fill-opacity="0.29"   transform="translate(63.4 48.6) rotate(327.8) scale(0.84 1.02)" />
<path d="M 44.8 58.9 C 40.9 66.4, 13.6 100.0, 0.0 90.0 C 14.5 97.0, 51.1 96.3, 57.5 97.8 C 46.8 93.1, 98.7 88.6, 84.8 77.3 C 66.2 89.7, 80.1 51.5, 69.2 57.2 C 86.8 51.1, 83.8 38.0, 81.0 33.8 C 98.0 31.1, 92.9 92.6, 95.7 89.9 Z" fill="none" fill-opacity="0.84" stroke="hsl(151, 70%, 62%)" stroke-width="2.26"  transform="translate(80.7 47.4) rotate(200.0) scale(1.88 1.16)" />
<circle cx="10.1" cy="86.2" r="17.8" fill="hsl(104, 72%, 65%)" fill-opacity="0.79"  transform="translate(82.7 64.1) rotate(97.8) scale(1.38 1.27)" />
<circle cx="32.6" cy="8.1" r="1.3" fill="url(#g2)" fill-opacity="0.83"  transform="translate(6.4 91.5) rotate(305.8) scale(1.77 0.80)" />
<rect x="42.1" y="12.3" width="49.3" height="35.2" rx="0" fill="hsl(83, 65%, 44%)" fill-opacity="0.96"   transform="translate(61.5 53.8) rotate(218.5) scale(0.50 1.36)" />
<path d="M 45.7 42.8 C 55.1 35.2, 88.3 97.9, 76.8 85.7 C 68.6 99.7, 83.4 100.0, 79.8 94.5 C 65.9 94.2, 72.4 0.0, 76.3 7.3 C 65.1 23.2, 100.0 94.5, 93.6 86.3 C 100.0 100.0, 78.3 16.9, 73.6 23.3 C 90.9 34.4, 53.9 4.5, 50.4 18.2 C 56.3 18.1, 68.1 89.0, 80.9 78.9 C 97.6 61.9, 89.7 8.2, 98.7 22.3 Z" fill="hsl(151, 70%, 62%)" fill-opacity="0.62" stroke="none" stroke-width="3.00"  transform="translate(33.1 77.7) rotate(347.7) scale(1.05 1.46)" />
<path d="M 89.4 7.5 C 100.0 15.5, 0.0 100.0, 3.7 96.1 C 20.6 85.2, 8.5 9.5, 14.1 2.7 C 0.0 0.0, 29.2 49.8, 20.5 40.3 C 6.9 42.0, 59.3 45.8, 45.4 50.8 C 63.0 51.9, 57.9 48.7, 51.6 53.2 C 68.1 57.3, 81.4 17.6, 93.0 5.2 C 99.8 0.0, 37.9 17.1, 47.3 11.9 Z" fill="hsl(144, 86%, 72%)" fill-opacity="0.93" stroke="none" stroke-width="3.02" filter="url(#f1)"  />
<path d="M 37.3 52.3 C 32.0 36.7, 18.4 37.8, 24.3 31.1 C 39.2 39.4, 75.2 34.6, 80.1 25.2 C 77.8 7.2, 76.5 36.1, 63.7 42.7 C 59.0 43.5, 76.9 11.6, 72.9 13.3 C 53.8 11.1, 41.4 89.3, 29.8 76.9 C 48.1 66.4, 97.4 37.1, 98.9 43.6 C 82.1 44.6, 67.6 94.9, 68.9 81.7 C 68.9 66.1, 92.6 75.9, 87.1 66.7 C 75.1 74.3, 100.0 50.9, 87.5 59.5 C 93.3 72.1, 30.8 21.7, 24.9 12.0 Z" fill="hsl(144, 86%, 72%)" fill-opacity="0.79" stroke="none" stroke-width="2.70" filter="url(#f1)" transform="translate(44.0 93.6) rotate(118.1) scale(0.53 1.97)" />
<path d="M 11.2 25.2 C 24.8 28.9, 79.7 38.3, 94.1 49.1 C 100.0 56.9, 84.0 63.8, 88.1 72.7 C 100.0 72.2, 36.9 26.2, 38.2 15.6 C 57.4 8.3, 55.5 23.1, 44.0 16.4 C 40.8 7.4, 56.3 45.6, 70.3 50.1 C 84.8 64.5, 0.0 55.8, 4.9 42.3 C 24.0 47.6, 33.0 29.4, 28.1 18.1 C 16.3 18.0, 37.0 51.4, 38.9 37.0 C 26.2 36.3, 19.9 10.9, 6.0 7.5 C 12.3 0.0, 62.3 85.8, 70.3 73.1 " fill="hsl(86, 72%, 68%)" fill-opacity="0.82" stroke="none" stroke-width="5.02"  transform="translate(89.7 13.2) rotate(326.7) scale(1.34 1.49)" />
<path d="M 77.7 69.7 C 81.8 81.5, 13.9 60.6, 24.5 55.0 C 25.6 36.2, 0.0 91.7, 8.6 93.1 C 16.1 100.0, 64.8 43.1, 63.4 35.4 C 48.2 19.0, 81.2 13.1, 85.7 1.9 C 100.0 19.5, 33.5 0.0, 43.6 5.3 C 58.5 25.0, 23.1 82.2, 22.0 71.4 C 35.3 52.4, 2.3 30.4, 2.6 27.1 Z" fill="hsl(2, 82%, 55%)" fill-opacity="0.55" stroke="none" stroke-width="4.70"  transform="translate(35.0 12.5) rotate(297.5) scale(1.49 0.68)" />
<path d="M 44.8 3.8 C 38.3 2.8, 32.8 100.0, 20.9 97.3 C 6.5 99.0, 25.3 29.1, 34.3 20.1 C 25.6 35.2, 39.0 45.7, 52.4 37.8 C 65.2 32.7, 83.7 93.2, 77.8 80.9 C 94.2 98.8, 87.9 49.1, 79.8 51.4 C 63.4 64.0, 78.1 0.0, 87.1 12.5 C 93.0 22.7, 98.2 65.7, 98.5 69.1 Z" fill="hsl(183, 71%, 60%)" fill-opacity="0.83" stroke="none" stroke-width="1.29"  transform="translate(46.6 14.6) rotate(229.5) scale(0.89 1.83)" />
<path d="M 73.1 8.7 C 91.0 17.1, 22.4 44.8, 21.7 56.8 C 23.0 75.6, 0.0 70.9, 1.8 71.4 C 10.9 67.9, 0.0 28.7, 6.5 37.3 C 23.4 42.5, 40.6 67.1, 44.7 75.2 C 54.3 86.7, 54.2 73.8, 67.3 69.6 C 54.6 73.6, 98.3 58.7, 90.0 49.7 C 74.7 65.4, 87.9 30.8, 86.3 42.4 C 99.4 51.2, 100.0 16.8, 95.8 17.1 " fill="hsl(86, 72%, 68%)" fill-opacity="0.55" stroke="none" stroke-width="2.41" filter="url(#f1)" transform="translate(61.8 5.0) rotate(243.7) scale(1.91 1.59)" />
<rect x="40.8" y="49.0" width="39.6" height="25.1" rx="3.5" fill="none" fill-opacity="0.53" stroke="hsl(86, 72%, 68%)" stroke-width="2.2"  transform="translate(98.6 90.8) rotate(223.1) scale(1.23 1.09)" />
<path d="M 27.3 85.6 C 15.1 99.2, 53.1 2.3, 55.6 11.9 C 43.3 26.2, 29.3 85.3, 37.3 86.3 C 26.5 83.2, 52.6 45.6, 50.3 36.5 C 51.5 43.7, 96.0 30.4, 84.6 44.1 C 100.0 48.9, 95.7 71.5, 95.3 71.5 C 93.4 81.5, 22.0 93.9, 34.5 88.4 Z" fill="hsl(2, 82%, 55%)" fill-opacity="0.75" stroke="none" stroke-width="3.19"  transform="translate(46.5 74.6) rotate(286.1) scale(1.74 1.53)" />
<rect x="21.8" y="57.0" width="44.5" height="36.9" rx="12.5" fill="none" fill-opacity="0.83"   transform="translate(91.9 91.4) rotate(337.8) scale(1.08 0.98)" />
<circle cx="42.7" cy="81.6" r="7.8" fill="hsl(322, 74%, 44%)" fill-opacity="0.56"  transform="translate(42.6 82.5) rotate(135.8) scale(0.56 0.50)" />
<rect x="12.3" y="4.9" width="48.5" height="31.9" rx="0" fill="none" fill-opacity="0.63"   transform="translate(51.0 0.4) rotate(155.9) scale(1.91 1.44)" />
<rect x="25.7" y="53.5" width="48.4" height="37.9" rx="4.2" fill="none" fill-opacity="0.23"   transform="translate(83.1 72.5) rotate(192.9) scale(1.14 1.65)" />
<rect x="27.7" y="37.3" width="29.0" height="24.7" rx="14.4" fill="none" fill-opacity="0.41"   transform="translate(36.8 98.7) rotate(64.5) scale(1.53 0.69)" />
<path d="M 92.2 85.9 C 100.0 93.7, 36.1 82.6, 30.4 83.4 C 39.1 70.4, 58.3 94.0, 61.0 97.4 C 64.1 100.0, 79.6 18.9, 69.7 15.4 C 84.7 3.2, 67.3 38.2, 63.0 37.3 C 63.7 33.1, 72.6 68.3, 80.4 73.2 C 94.8 77.8, 33.0 22.3, 31.1 12.9 C 43.8 12.7, 56.8 99.8, 53.7 87.1 Z" fill="none" fill-opacity="0.38" stroke="hsl(242, 72%, 49%)" stroke-width="3.19"  transform="translate(41.7 28.8) rotate(266.4) scale(0.78 0.77)" />
<rect x="14.9" y="53.3" width="49.0" height="14.3" rx="5.8" fill="none" fill-opacity="0.27"   transform="translate(52.2 81.9) rotate(240.6) scale(1.72 0.63)" />
<path d="M 4.4 27.1 C 0.0 21.2, 48.8 44.6, 44.2 52.1 C 60.2 32.9, 51.3 85.4, 55.2 84.3 C 53.4 100.0, 78.8 90.3, 78.7 95.8 C 68.8 79.4, 32.0 85.4, 44.0 70.4 C 45.1 79.1, 60.7 6.2, 74.2 16.1 C 80.4 26.5, 37.5 42.1, 28.6 50.3 C 39.1 49.1, 34.7 56.6, 27.7 44.4 C 31.2 39.5, 11.8 82.0, 19.8 95.6 C 29.6 100.0, 46.3 76.8, 41.4 74.7 C 42.8 68.1, 79.0 17.1, 74.9 23.9 Z" fill="hsl(151, 70%, 62%)" fill-opacity="0.57" stroke="none" stroke-width="4.83"  transform="translate(84.8 92.7) rotate(276.8) scale(1.45 1.21)" />
<path d="M 66.8 80.3 C 51.4 63.7, 82.9 0.0, 97.5 0.7 C 100.0 0.0, 21.9 37.2, 17.8 28.4 C 24.9 43.7, 46.8 100.0, 36.6 99.7 C 20.3 96.3, 43.5 23.9, 40.8 14.5 C 59.4 27.4, 22.4 85.8, 24.4 83.0 C 7.9 70.1, 12.5 100.0, 12.8 94.8 Z" fill="hsl(322, 74%, 44%)" fill-opacity="0.92" stroke="none" stroke-width="2.92"  transform="translate(93.5 1.3) rotate(38.0) scale(1.82 0.50)" />
<path d="M 14.1 5.3 C 0.0 19.9, 18.0 93.2, 28.6 83.2 C 35.0 82.9, 23.3 89.8, 37.5 92.6 C 24.2 72.8, 53.1 55.7, 51.5 49.7 C 35.1 47.8, 54.3 10.4, 46.8 20.4 C 45.3 9.0, 14.7 94.7, 18.9 80.6 C 26.1 96.5, 51.2 50.0, 40.6 52.4 C 56.7 49.4, 21.6 100.0, 30.7 93.5 C 36.9 80.7, 67.1 51.5, 75.7 66.2 Z" fill="none" fill-opacity="0.72" stroke="hsl(40, 53%, 69%)" stroke-width="2.64"  transform="translate(25.4 49.2) rotate(288.0) scale(0.95 0.90)" />
<rect x="45.9" y="19.1" width="44.5" height="31.3" rx="0" fill="none" fill-opacity="0.89"   transform="translate(81.0 28.3) rotate(40.2) scale(1.27 1.79)" />
<circle cx="39.2" cy="74.7" r="3.1" fill="url(#g2)" fill-opacity="0.52"  transform="translate(97.5 2.6) rotate(110.8) scale(1.65 1.34)" />
<path d="M 37.3 37.2 C 51.4 36.9, 44.6 30.3, 40.8 23.0 C 24.2 3.7, 100.0 18.3, 97.5 19.4 C 90.2 0.4, 23.2 44.6, 28.5 44.7 C 8.9 59.5, 56.1 8.1, 45.8 15.4 C 65.6 14.2, 4.9 80.7, 2.5 68.0 C 3.3 52.2, 58.1 78.7, 61.5 70.8 C 45.8 81.5, 53.3 34.0, 46.3 32.0 C 44.1 36.4, 0.0 31.7, 4.0 41.3 C 0.0 31.9, 76.2 89.7, 80.4 99.0 " fill="hsl(151, 70%, 62%)" fill-opacity="0.54" stroke="none" stroke-width="3.44"  transform="translate(41.6 60.4) rotate(229.0) scale(1.73 0.97)" />
<rect x="2.2" y="18.1" width="36.3" height="27.5" rx="0" fill="none" fill-opacity="0.25"   transform="translate(89.9 5.4) rotate(351.0) scale(1.43 0.64)" />
<rect x="44.6" y="20.5" width="30.9" height="23.2" rx="18.8" fill="none" fill-opacity="0.89"   transform="translate(10.4 81.3) rotate(308.0) scale(1.85 1.54)" />
<circle cx="42.4" cy="21.6" r="15.2" fill="url(#g1)" fill-opacity="0.86"   />
<path d="M 90.1 51.3 C 81.9 50.3, 12.6 29.2, 24.9 38.2 C 22.8 49.5, 45.6 45.7, 50.0 44.0 C 31.9 29.8, 0.0 72.8, 1.7 68.7 C 19.1 58.1, 48.0 84.9, 56.9 70.8 C 51.8 64.9, 12.6 67.5, 8.5 80.8 C 25.5 95.0, 88.0 70.7, 84.7 67.1 C 87.5 62.6, 96.5 86.1, 89.0 97.9 C 88.6 100.0, 68.4 12.8, 70.0 1.6 Z" fill="hsl(104, 72%, 65%)" fill-opacity="0.67" stroke="none" stroke-width="1.44"  transform="translate(26.6 62.7) rotate(156.5) scale(1.17 1.86)" />
<circle cx="1.6" cy="37.4" r="12.7" fill="url(#g2)" fill-opacity="0.76"  transform="translate(72.2 34.6) rotate(100.3) scale(1.85 1.45)" />
<rect x="51.1" y="26.2" width="35.9" height="36.2" rx="0" fill="none" fill-opacity="0.23"    />
<path d="M 0.4 6.3 C 14.1 6.8, 8.0 31.3, 16.0 16.8 C 33.7 1.2, 20.6 56.2, 9.3 54.2 C 2.4 40.4, 28.9 47.2, 25.5 36.8 C 7.6 23.9, 31.4 17.5, 28.1 30.1 C 21.5 45.2, 47.1 3.7, 59.2 1.6 C 52.5 0.0, 75.4 48.0, 85.2 40.7 C 92.0 23.5, 33.3 66.4, 19.1 66.2 C 8.4 64.4, 44.4 34.5, 59.4 39.3 C 67.8 48.0, 68.2 56.7, 68.1 66.1 Z" fill="hsl(40, 53%, 69%)" fill-opacity="0.80" stroke="none" stroke-width="4.54"  transform="translate(23.6 79.2) rotate(137.1) scale(1.61 1.92)" />
<rect x="32.6" y="35.8" width="46.7" height="27.2" rx="6.9" fill="none" fill-opacity="0.74"   transform="translate(69.1 17.5) rotate(70.4) scale(1.77 0.91)" />
<circle cx="50.8" cy="78.4" r="3.2" fill="url(#g0)" fill-opacity="0.72"  transform="translate(55.0 81.4) rotate(123.2) scale(0.80 1.95)" />
<rect x="38.1" y="0.8" width="40.9" height="12.9" rx="11.3" fill="hsl(242, 72%, 49%)" fill-opacity="0.48" stroke="hsl(106, 75%, 59%)" stroke-width="3.3"  transform="translate(27.7 69.9) rotate(272.8) scale(0.84 1.73)" />
<circle cx="53.0" cy="43.6" r="18.5" fill="hsl(86, 72%, 68%)" fill-opacity="0.99"   />
<circle cx="25.2" cy="26.7" r="1.7" fill="hsl(151, 70%, 62%)" fill-opacity="0.63"  transform="translate(69.6 74.6) rotate(308.8) scale(0.90 1.31)" />
<rect x="61.6" y="28.4" width="20.1" height="14.7" rx="17.5" fill="none" fill-opacity="0.76" stroke="hsl(151, 70%, 62%)" stroke-width="4.8"  transform="translate(75.8 98.3) rotate(46.5) scale(0.86 0.84)" />
<path d="M 44.1 64.8 C 51.7 45.4, 98.1 90.9, 96.0 96.5 C 91.3 100.0, 44.1 100.0, 55.9 99.6 C 60.3 100.0, 56.0 79.4, 43.5 69.9 C 29.7 80.9, 100.0 51.7, 95.0 41.1 C 100.0 21.5, 3.4 89.9, 16.4 76.4 C 5.6 89.4, 3.2 80.7, 5.0 87.2 C 0.0 91.0, 77.7 38.0, 79.3 42.9 C 97.5 62.7, 95.4 0.0, 93.2 11.2 Z" fill="hsl(2, 82%, 55%)" fill-opacity="0.44" stroke="none" stroke-width="4.24"   />
<path d="M 99.2 44.5 C 100.0 35.4, 23.2 17.0, 29.8 24.0 C 24.2 14.5, 55.9 49.1, 44.5 53.0 C 53.0 34.8, 88.6 86.8, 96.4 80.0 C 91.8 78.8, 75.6 31.6, 69.6 36.0 C 87.3 55.3, 60.5 56.7, 48.9 58.4 C 56.2 64.2, 29.0 66.4, 36.3 58.6 C 41.2 76.5, 85.4 100.0, 88.6 89.9 C 81.2 97.9, 85.0 62.6, 90.7 67.5 C 86.6 86.6, 56.5 100.0, 58.9 95.3 C 75.1 98.0, 46.5 77.7, 31.7 82.0 Z" fill="none" fill-opacity="0.46" stroke="hsl(104, 72%, 65%)" stroke-width="1.63"   />
<rect x="28.3" y="2.2" width="24.7" height="10.3" rx="0" fill="none" fill-opacity="0.46"   transform="translate(72.1 26.8) rotate(148.4) scale(1.75 0.57)" />
<path d="M 98.9 54.4 C 100.0 56.6, 46.7 87.5, 39.0 79.2 C 55.6 81.8, 100.0 28.9, 98.7 16.5 C 90.7 18.8, 30.2 88.5, 15.7 86.7 C 29.9 88.9, 75.9 31.3, 71.7 30.4 C 83.9 48.9, 76.8 100.0, 80.6 94.4 C 88.9 100.0, 85.0 27.4, 94.1 20.3 C 100.0 15.7, 30.5 43.2, 39.1 52.6 C 51.9 71.4, 41.8 45.2, 33.6 41.9 C 38.5 38.4, 87.4 16.2, 97.0 15.8 Z" fill="none" fill-opacity="0.50" stroke="hsl(104, 72%, 65%)" stroke-width="4.22"   />
<path d="M 36.5 29.4 C 45.5 27.2, 56.0 83.0, 45.5 77.4 C 50.1 79.5, 63.5 46.3, 75.2 50.3 C 83.2 68.5, 100.0 57.4, 91.8 53.8 C 100.0 45.7, 72.2 43.0, 71.0 42.1 C 79.0 58.1, 1.7 0.9, 1.9 11.9 C 11.8 12.9, 54.5 54.7, 52.2 41.5 Z" fill="hsl(104, 72%, 65%)" fill-opacity="0.33" stroke="none" stroke-width="4.19"  transform="translate(98.8 88.3) rotate(4.1) scale(0.93 0.86)" />
<rect x="50.8" y="8.0" width="34.2" height="35.4" rx="0" fill="hsl(183, 71%, 60%)" fill-opacity="0.94"  filter="url(#f1)" transform="translate(11.7 7.5) rotate(99.8) scale(1.02 1.24)" />
<path d="M 72.2 91.6 C 84.1 76.4, 62.8 90.1, 65.9 93.8 C 74.2 100.0, 22.6 32.9, 10.5 25.7 C 0.0 25.2, 53.8 62.2, 44.2 51.2 C 43.8 69.8, 75.3 21.1, 79.8 16.9 C 96.7 19.2, 45.6 7.5, 36.9 15.7 C 37.3 0.0, 60.3 45.7, 60.2 48.7 C 79.7 38.9, 37.6 100.0, 31.5 92.6 C 38.9 75.2, 53.3 28.1, 65.2 15.5 C 55.4 0.0, 100.0 96.7, 93.3 98.3 C 79.6 100.0, 15.2 48.5, 18.2 37.5 " fill="none" fill-opacity="0.47" stroke="hsl(104, 72%, 65%)" stroke-width="4.19"  transform="translate(25.6 69.1) rotate(309.0) scale(1.14 0.60)" />
<path d="M 90.1 21.7 C 100.0 20.6, 55.2 72.0, 46.5 78.8 C 30.0 74.5, 9.4 54.5, 7.5 46.1 C 7.0 49.3, 5.9 57.4, 14.5 60.7 C 27.7 69.4, 67.4 89.8, 56.2 91.5 C 62.7 72.2, 26.7 80.6, 25.0 71.8 C 41.4 65.5, 60.6 81.3, 57.1 94.9 C 58.6 100.0, 61.7 0.0, 61.4 0.3 C 66.5 0.1, 35.7 38.7, 24.4 46.8 C 25.5 44.9, 100.0 30.6, 97.5 31.7 Z" fill="hsl(183, 71%, 60%)" fill-opacity="0.71" stroke="none" stroke-width="1.16"  transform="translate(18.6 83.7) rotate(324.9) scale(1.71 1.52)" />
<rect x="6.5" y="53.3" width="45.6" height="14.6" rx="0" fill="none" fill-opacity="0.69"   transform="translate(21.4 27.7) rotate(154.2) scale(0.68 0.74)" />
<path d="M 42.0 46.6 C 53.5 53.4, 72.4 37.6, 75.7 50.4 C 59.6 33.4, 60.0 31.0, 64.2 25.2 C 58.9 42.2, 36.3 3.1, 49.1 2.4 C 45.3 0.0, 36.1 85.4, 44.4 99.1 C 48.8 80.1, 60.9 97.0, 66.1 84.3 C 63.1 100.0, 69.9 15.2, 56.7 14.0 C 61.3 14.9, 87.4 0.0, 94.5 5.1 " fill="none" fill-opacity="0.45" stroke="hsl(322, 74%, 44%)" stroke-width="4.86"  transform="translate(60.6 45.2) rotate(321.1) scale(1.07 0.53)" />
<rect x="26.7" y="38.9" width="24.6" height="15.5" rx="0" fill="hsl(144, 86%, 72%)" fill-opacity="0.93"   transform="translate(70.8 12.8) rotate(268.0) scale(1.17 1.23)" />
<path d="M 72.9 84.3 C 77.2 92.1, 19.5 53.5, 18.6 57.9 C 6.1 77.2, 66.6 41.9, 66.5 52.1 C 80.0 56.6, 13.9 25.4, 5.6 20.7 C 0.0 10.5, 78.0 0.0, 64.5 6.7 C 69.7 24.9, 43.7 38.1, 36.1 47.6 C 35.9 56.3, 6.1 82.9, 11.1 74.7 C 12.3 55.1, 70.3 85.2, 82.6 86.6 Z" fill="hsl(40, 53%, 69%)" fill-opacity="1.00" stroke="none" stroke-width="4.26"  transform="translate(24.4 73.9) rotate(176.3) scale(0.56 0.86)" />
<circle cx="34.1" cy="26.1" r="8.3" fill="hsl(242, 72%, 49%)" fill-opacity="0.97"   />
<path d="M 18.6 89.0 C 13.1 97.1, 100.0 19.6, 98.3 30.4 C 100.0 48.3, 45.8 36.3, 49.1 27.1 C 63.8 28.2, 0.0 58.9, 3.7 59.1 C 0.0 57.0, 20.8 89.7, 34.4 89.5 C 45.1 100.0, 93.2 21.8, 93.6 33.3 C 88.0 36.1, 13.4 71.6, 22.9 71.0 C 14.4 83.6, 58.9 66.0, 44.1 70.4 Z" fill="hsl(242, 72%, 49%)" fill-opacity="0.38" stroke="none" stroke-width="4.39"  transform="translate(53.3 76.0) rotate(167.7) scale(1.22 0.97)" />
<circle cx="69.1" cy="34.3" r="13.4" fill="url(#g2)" fill-opacity="0.43"  transform="translate(80.4 32.1) rotate(336.3) scale(1.49 1.44)" />
<path d="M 5.9 56.3 C 12.3 70.9, 0.0 87.7, 1.4 89.5 C 0.0 75.6, 29.1 26.1, 37.9 12.8 C 55.0 6.9, 31.4 54.7, 23.8 41.7 C 5.3 50.8, 48.9 10.0, 62.2 15.8 C 48.1 0.0, 47.3 92.2, 44.6 81.0 C 32.7 88.9, 78.8 15.9, 69.8 9.0 C 85.8 15.0, 74.6 13.4, 67.0 21.3 Z" fill="none" fill-opacity="0.75" stroke="hsl(290, 83%, 63%)" stroke-width="3.92" filter="url(#f1)" transform="translate(61.2 16.7) rotate(233.3) scale(0.83 0.84)" />
<path d="M 75.7 17.0 C 79.5 30.8, 61.8 21.5, 65.9 19.2 C 56.7 33.2, 45.5 28.2, 53.7 20.8 C 62.3 2.6, 87.0 44.1, 72.3 45.9 C 90.7 36.6, 55.7 76.2, 48.5 80.5 C 60.1 93.6, 6.8 7.0, 13.7 0.8 C 29.8 7.1, 2.9 80.9, 17.5 84.3 C 5.7 71.6, 100.0 26.2, 98.1 37.2 C 100.0 38.7, 46.1 84.6, 43.3 95.1 Z" fill="hsl(290, 83%, 63%)" fill-opacity="0.98" stroke="none" stroke-width="1.98"   />
<circle cx="85.5" cy="93.7" r="6.9" fill="url(#g2)" fill-opacity="0.68" filter="url(#f1)" transform="translate(79.0 91.0) rotate(15.4) scale(1.23 1.39)" />
<path d="M 98.0 51.2 C 100.0 49.8, 0.0 87.2, 0.2 75.1 C 0.0 73.5, 41.1 7.1, 30.8 12.1 C 13.6 22.0, 73.1 36.0, 71.2 28.8 C 52.0 45.6, 12.8 36.5, 17.7 29.5 C 37.2 41.3, 68.6 17.1, 66.5 8.8 C 53.9 21.7, 12.3 28.2, 10.7 22.8 C 0.0 34.5, 24.1 71.8, 33.2 66.6 C 32.9 61.1, 42.3 1.9, 39.8 11.5 C 44.2 6.8, 50.8 98.4, 63.6 93.5 C 80.4 100.0, 41.1 44.1, 31.8 31.1 Z" fill="none" fill-opacity="0.66" stroke="hsl(322, 74%, 44%)" stroke-width="2.81"  transform="translate(22.8 61.5) rotate(209.5) scale(0.99 0.73)" />
<circle cx="43.4" cy="65.9" r="6.5" fill="url(#g0)" fill-opacity="0.43"  transform="translate(79.8 19.5) rotate(50.3) scale(1.24 1.70)" />
<path d="M 5.3 56.8 C 0.0 70.7, 57.1 30.1, 44.8 42.6 C 35.6 48.8, 96.7 20.0, 93.0 32.7 C 100.0 20.6, 4.9 25.5, 18.0 29.2 C 29.9 45.5, 70.8 46.4, 77.9 60.3 C 78.1 60.7, 94.5 19.7, 94.6 10.5 C 100.0 25.5, 53.8 0.0, 58.4 1.8 C 54.9 1.1, 35.2 84.4, 33.1 89.1 Z" fill="hsl(322, 74%, 44%)" fill-opacity="0.51" stroke="none" stroke-width="1.00"  transform="translate(94.4 57.0) rotate(225.8) scale(0.62 1.26)" />
<rect x="68.7" y="81.9" width="29.5" height="10.6" rx="18.2" fill="hsl(104, 72%, 65%)" fill-opacity="0.36"   transform="translate(61.1 85.6) rotate(189.5) scale(1.14 0.71)" />
<path d="M 1.8 46.5 C 1.1 53.7, 72.3 41.0, 72.9 26.3 C 75.3 14.4, 14.7 71.8, 8.6 79.0 C 11.9 82.8, 50.6 100.0, 37.3 99.2 C 44.9 80.1, 10.4 80.2, 25.0 73.8 C 10.6 74.2, 35.2 85.6, 29.3 95.8 C 40.2 85.0, 74.2 43.0, 71.3 50.7 C 74.7 69.0, 80.7 85.7, 87.4 80.1 C 100.0 93.3, 26.0 0.0, 30.2 8.5 Z" fill="none" fill-opacity="0.87" stroke="hsl(144, 86%, 72%)" stroke-width="3.44"  transform="translate(70.2 49.6) rotate(180.2) scale(1.87 1.95)" />
<path d="M 25.7 20.3 C 38.9 40.1, 35.0 51.9, 30.9 44.8 C 37.5 52.0, 74.3 59.8, 62.8 56.6 C 51.7 48.1, 90.3 82.7, 77.0 86.5 C 60.7 69.8, 70.5 22.7, 63.3 17.0 C 56.1 3.0, 32.6 93.7, 35.4 96.2 C 26.9 100.0, 2.4 85.5, 11.3 93.6 C 11.3 98.4, 67.9 57.5, 59.7 59.4 C 75.3 53.9, 81.7 87.5, 92.6 73.2 C 100.0 86.1, 100.0 45.7, 97.9 42.2 C 100.0 45.0, 14.3 0.0, 23.3 4.0 Z" fill="none" fill-opacity="0.65" stroke="hsl(144, 86%, 72%)" stroke-width="1.92"  transform="translate(97.2 84.4) rotate(290.9) scale(1.28 1.54)" />
<circle cx="0.7" cy="78.3" r="5.2" fill="url(#g1)" fill-opacity="0.81"  transform="translate(54.2 27.8) rotate(141.4) scale(0.55 1.14)" />
<path d="M 76.7 47.0 C 82.2 32.8, 36.8 77.0, 32.7 89.5 C 48.7 99.7, 24.9 88.6, 14.8 78.6 C 33.8 77.6, 96.0 56.4, 96.1 43.6 C 77.9 59.8, 74.7 18.2, 73.6 23.3 C 72.1 31.6, 20.6 12.3, 21.7 16.6 C 33.4 8.4, 12.4 55.3, 27.2 51.3 C 10.1 63.1, 26.9 81.5, 15.5 79.8 Z" fill="hsl(83, 65%, 44%)" fill-opacity="0.60" stroke="none" stroke-width="2.37"  transform="translate(77.6 96.6) rotate(122.0) scale(0.79 0.61)" />
<path d="M 2.8 66.5 C 11.0 79.8, 64.1 67.9, 67.6 75.2 C 56.6 89.1, 82.1 62.6, 80.8 64.4 C 98.3 69.9, 79.3 0.0, 84.8 2.7 C 67.2 4.1, 65.4 100.0, 63.9 88.6 C 79.4 72.8, 58.1 92.9, 54.2 79.0 C 35.9 95.8, 43.7 5.6, 53.3 17.0 C 57.7 31.0, 45.1 24.2, 56.3 24.3 C 37.7 28.0, 64.7 93.8, 71.2 85.8 C 72.9 100.0, 56.9 64.5, 58.8 77.2 Z" fill="hsl(40, 53%, 69%)" fill-opacity="0.81" stroke="none" stroke-width="2.85"  transform="translate(36.3 18.3) rotate(146.4) scale(1.10 1.11)" />
<circle cx="79.8" cy="64.4" r="3.2" fill="hsl(144, 86%, 72%)" fill-opacity="0.89"  transform="translate(26.1 27.5) rotate(13.4) scale(1.11 0.87)" />
<rect x="54.4" y="24.1" width="21.7" height="28.6" rx="0" fill="hsl(144, 86%, 72%)" fill-opacity="0.77" stroke="hsl(151, 70%, 62%)" stroke-width="4.0"  transform="translate(15.0 42.4) rotate(77.5) scale(0.81 1.59)" />
<circle cx="3.4" cy="87.2" r="10.1" fill="url(#g2)" fill-opacity="0.54" filter="url(#f1)" transform="translate(94.3 98.8) rotate(101.5) scale(0.74 1.23)" />
<circle cx="24.3" cy="6.6" r="3.1" fill="hsl(2, 82%, 55%)" fill-opacity="0.77"  transform="translate(70.7 71.8) rotate(43.1) scale(0.98 1.02)" />
<rect x="22.6" y="0.5" width="23.9" height="31.6" rx="0" fill="none" fill-opacity="0.96"   transform="translate(20.4 96.3) rotate(36.8) scale(1.01 1.23)" />
<path d="M 47.1 68.1 C 44.5 66.6, 67.1 28.2, 73.6 20.2 C 88.0 17.4, 44.5 0.3, 47.2 14.0 C 52.2 24.6, 43.6 100.0, 35.7 100.0 C 22.5 99.6, 39.5 0.0, 31.9 1.5 C 38.0 9.2, 100.0 74.7, 97.6 84.7 C 94.6 78.5, 62.0 72.3, 58.9 86.6 C 66.7 70.8, 43.0 26.0, 49.8 25.2 C 47.9 41.3, 35.1 14.8, 34.0 28.0 C 32.3 32.2, 14.1 87.5, 25.3 96.8 Z" fill="none" fill-opacity="0.73" stroke="hsl(83, 65%, 44%)" stroke-width="2.35" filter="url(#f1)" transform="translate(70.0 36.6) rotate(319.6) scale(1.64 1.19)" />
<path d="M 50.2 75.1 C 66.3 64.8, 9.5 15.6, 20.0 29.9 C 19.4 24.8, 48.4 26.0, 54.4 22.4 C 62.2 32.6, 11.6 79.8, 9.3 89.9 C 0.0 93.9, 79.0 100.0, 67.8 99.1 C 51.0 100.0, 81.7 25.5, 76.8 16.8 C 77.5 12.2, 23.2 6.6, 27.3 15.5 C 33.2 29.2, 79.8 36.7, 85.8 34.6 C 100.0 43.0, 51.8 78.9, 47.0 71.6 C 49.3 59.6, 31.5 89.3, 20.1 74.4 C 13.0 81.1, 64.0 0.0, 53.0 0.2 Z" fill="hsl(104, 72%, 65%)" fill-opacity="0.87" stroke="none" stroke-width="4.93"  transform="translate(43.8 99.6) rotate(155.7) scale(1.72 1.09)" />
<circle cx="98.6" cy="15.7" r="7.5" fill="url(#g2)" fill-opacity="0.78"  transform="translate(62.5 49.3) rotate(314.0) scale(1.26 0.61)" />
<path d="M 31.0 93.4 C 49.8 80.0, 56.3 15.5, 58.1 26.9 C 50.6 17.4, 23.3 100.0, 9.5 96.6 C 9.8 85.2, 100.0 94.0, 89.6 84.4 C 100.0 100.0, 21.5 63.8, 35.5 62.3 C 49.3 69.7, 35.2 60.2, 49.2 52.1 C 48.7 54.9, 80.4 29.2, 95.2 26.4 C 88.5 18.8, 60.2 60.8, 51.3 50.3 Z" fill="hsl(2, 82%, 55%)" fill-opacity="0.72" stroke="none" stroke-width="4.68"  transform="translate(85.5 5.1) rotate(326.4) scale(1.55 0.96)" />
<path d="M 27.2 2.2 C 37.8 11.0, 79.3 25.0, 77.9 33.9 C 70.5 36.6, 72.5 77.9, 75.2 86.6 C 58.6 97.4, 43.3 20.8, 37.0 25.1 C 45.0 24.2, 28.4 18.5, 29.5 13.2 C 38.6 11.6, 98.7 74.4, 97.8 69.2 C 95.1 72.1, 51.3 3.3, 51.3 0.8 Z" fill="none" fill-opacity="0.91" stroke="hsl(322, 74%, 44%)" stroke-width="3.55"  transform="translate(74.3 77.1) rotate(338.4) scale(1.53 1.16)" />
<path d="M 75.7 43.2 C 73.9 56.6, 93.4 100.0, 82.4 85.4 C 83.7 97.3, 26.5 10.5, 30.5 24.8 C 13.9 20.0, 65.6 9.0, 79.4 16.0 C 66.4 21.7, 65.6 56.6, 67.8 69.0 C 72.6 65.1, 48.8 9.0, 46.4 12.7 C 57.2 10.5, 30.2 66.7, 31.1 72.8 C 14.3 82.1, 0.0 58.9, 0.6 70.3 C 0.0 63.7, 46.2 50.1, 51.7 38.2 Z" fill="hsl(242, 72%, 49%)" fill-opacity="0.95" stroke="none" stroke-width="1.73"  transform="translate(94.8 92.9) rotate(335.8) scale(1.78 0.55)" />
<circle cx="65.7" cy="5.4" r="2.5" fill="hsl(104, 72%, 65%)" fill-opacity="0.57"   />
<path d="M 69.4 88.3 C 50.1 92.9, 21.4 100.0, 9.1 98.0 C 22.8 100.0, 41.7 38.8, 42.4 29.1 C 33.2 28.9, 59.4 23.4, 56.1 28.2 C 55.6 46.4, 8.9 0.0, 20.6 1.4 C 37.5 0.0, 38.6 10.3, 39.5 14.8 C 29.4 19.7, 63.9 5.3, 67.6 8.8 Z" fill="none" fill-opacity="0.74" stroke="hsl(106, 75%, 59%)" stroke-width="2.00"   />
<path d="M 80.5 47.8 C 97.7 32.8, 59.9 55.1, 48.7 60.6 C 32.6 40.8, 56.9 8.0, 46.4 13.9 C 50.8 4.9, 14.5 0.2, 21.6 4.6 C 11.1 0.0, 30.3 85.2, 44.3 95.7 C 31.8 78.3, 83.3 17.4, 89.6 22.7 C 84.8 5.6, 81.7 100.0, 70.5 87.6 C 54.1 68.2, 18.9 53.6, 10.9 58.9 C 29.1 69.7, 62.1 51.0, 64.1 61.7 C 74.3 77.0, 41.2 15.6, 45.2 24.5 Z" fill="none" fill-opacity="0.26" stroke="hsl(86, 72%, 68%)" stroke-width="2.96"  transform="translate(31.1 65.0) rotate(92.3) scale(0.85 1.82)" />
<path d="M 30.5 37.5 C 21.3 44.0, 23.8 65.9, 15.6 56.2 C 0.0 46.3, 97.0 42.7, 90.0 36.7 C 71.5 47.4, 79.7 1.6, 71.5 0.7 C 71.5 0.0, 37.5 23.8, 29.5 35.1 C 36.0 37.9, 0.0 100.0, 7.8 94.3 C 1.7 96.3, 26.4 96.1, 21.6 96.3 C 2.5 93.4, 77.0 29.0, 79.8 14.9 C 92.0 34.0, 16.6 23.9, 10.3 38.3 C 15.7 50.9, 9.6 87.2, 16.0 90.1 C 29.1 74.4, 5.8 51.3, 17.2 57.3 Z" fill="hsl(86, 72%, 68%)" fill-opacity="0.71" stroke="none" stroke-width="2.15"   />
<circle cx="60.2" cy="57.8" r="2.8" fill="hsl(322, 74%, 44%)" fill-opacity="0.81"  transform="translate(55.9 25.2) rotate(10.7) scale(1.83 0.86)" />
<circle cx="46.9" cy="43.1" r="8.0" fill="url(#g1)" fill-opacity="0.41"  transform="translate(75.1 33.2) rotate(285.0) scale(1.55 1.54)" />
<path d="M 55.5 68.9 C 69.4 59.1, 68.8 90.9, 74.8 95.4 C 69.3 87.0, 100.0 60.3, 93.5 55.4 C 98.3 37.9, 70.0 92.7, 79.4 93.4 C 60.8 88.3, 22.7 67.3, 31.0 57.6 C 40.3 62.8, 46.2 66.7, 37.1 58.2 C 30.0 52.1, 100.0 52.8, 95.2 55.4 C 79.9 54.7, 38.7 56.9, 51.2 64.6 C 40.2 74.4, 87.8 56.1, 87.7 69.1 C 74.4 61.2, 0.0 45.2, 4.9 50.2 C 7.6 60.0, 58.6 71.6, 69.8 81.0 Z" fill="none" fill-opacity="0.39" stroke="hsl(86, 72%, 68%)" stroke-width="2.73" filter="url(#f1)" transform="translate(35.4 69.3) rotate(140.7) scale(1.93 1.19)" />
<path d="M 19.9 52.1 C 29.8 65.0, 52.8 100.0, 50.6 85.8 C 42.1 84.8, 70.5 47.4, 79.3 47.4 C 60.0 50.1, 100.0 26.0, 98.2 33.2 C 82.3 30.7, 39.9 29.8, 26.5 25.5 C 14.0 43.8, 74.5 64.5, 76.9 65.3 C 65.2 54.3, 48.2 0.0, 58.0 4.9 C 39.1 16.2, 80.9 10.9, 71.4 11.8 C 82.9 5.4, 26.7 55.2, 38.0 54.4 C 18.6 56.6, 59.0 33.1, 68.7 40.7 C 75.6 51.8, 28.1 2.9, 18.9 5.3 " fill="none" fill-opacity="0.93" stroke="hsl(151, 70%, 62%)" stroke-width="0.86"  transform="translate(30.5 34.9) rotate(172.0) scale(0.53 0.74)" />
<circle cx="68.7" cy="83.2" r="6.9" fill="hsl(322, 74%, 44%)" fill-opacity="0.73"  transform="translate(4.1 29.3) rotate(148.4) scale(1.44 0.77)" />
<rect x="18.2" y="16.1" width="46.9" height="23.8" rx="0" fill="none" fill-opacity="0.95" stroke="hsl(242, 72%, 49%)" stroke-width="1.2"  transform="translate(44.6 13.7) rotate(160.6) scale(1.64 1.32)" />
<path d="M 77.6 71.1 C 73.7 60.8, 25.9 29.9, 25.0 22.1 C 31.8 9.8, 15.6 50.6, 17.0 36.5 C 11.5 30.3, 26.0 55.1, 37.2 65.1 C 56.2 53.0, 78.9 90.1, 65.7 79.2 C 61.6 85.7, 39.5 25.8, 32.7 32.1 C 15.0 19.1, 1.8 43.1, 9.0 37.7 Z" fill="hsl(242, 72%, 49%)" fill-opacity="0.76" stroke="none" stroke-width="2.12" filter="url(#f1)" transform="translate(38.7 52.6) rotate(265.4) scale(0.75 1.21)" />
<circle cx="18.2" cy="49.7" r="5.8" fill="url(#g0)" fill-opacity="1.00"  transform="translate(38.7 28.9) rotate(241.5) scale(1.98 1.32)" />
<path d="M 41.6 76.8 C 36.3 73.9, 11.7 13.9, 8.6 28.6 C 0.0 32.8, 69.0 84.3, 83.4 74.8 C 100.0 89.8, 19.6 14.1, 10.7 4.7 C 10.0 12.2, 29.0 49.0, 27.0 48.0 C 27.2 59.3, 73.5 29.1, 61.3 34.7 C 45.8 46.0, 57.4 36.5, 64.1 24.2 C 60.5 20.1, 42.0 64.5, 27.1 61.5 C 27.8 73.6, 93.1 36.4, 80.5 38.2 Z" fill="hsl(183, 71%, 60%)" fill-opacity="0.25" stroke="none" stroke-width="4.20"  transform="translate(16.6 24.4) rotate(138.9) scale(1.21 1.89)" />
<g opacity="0.035">
<rect x="0" y="0" width="1" height="100" fill="black" />
<rect x="22" y="0" width="1" height="100" fill="black" />
<rect x="44" y="0" width="1" height="100" fill="black" />
<rect x="66" y="0" width="1" height="100" fill="black" />
<rect x="88" y="0" width="1" height="100" fill="black" />
<rect x="0" y="0" width="100" height="1" fill="black" />
<rect x="0" y="22" width="100" height="1" fill="black" />
<rect x="0" y="44" width="100" height="1" fill="black" />
<rect x="0" y="66" width="100" height="1" fill="black" />
<rect x="0" y="88" width="100" height="1" fill="black" />
</g>

</svg>
