<?xml version="1.0" encoding="UTF-8"?>
<svg xmlns="http://www.w3.org/2000/svg" width="100" height="100" viewBox="0 0 100 100">
<defs>
<linearGradient id="g0" x1="0%" y1="0%" x2="100%" y2="100%">
<stop offset="0.0%" stop-color="hsl(106, 75%, 59%)" />
<stop offset="33.3%" stop-color="hsl(183, 71%, 60%)" />
<stop offset="66.7%" stop-color="hsl(242, 72%, 49%)" />
<stop offset="100.0%" stop-color="hsl(322, 74%, 44%)" />
</linearGradient>
<linearGradient id="g1" x1="0%" y1="0%" x2="100%" y2="100%">
<stop offset="0.0%" stop-color="hsl(290, 83%, 63%)" />
<stop offset="33.3%" stop-color="hsl(2, 82%, 55%)" />
<stop offset="66.7%" stop-color="hsl(86, 72%, 68%)" />
<stop offset="100.0%" stop-color="hsl(83, 65%, 44%)" />
</linearGradient>
<linearGradient id="g2" x1="0%" y1="0%" x2="100%" y2="100%">
<stop offset="0.0%" stop-color="hsl(40, 53%, 69%)" />
<stop offset="33.3%" stop-color="hsl(104, 72%, 65%)" />
<stop offset="66.7%" stop-color="hsl(144, 86%, 72%)" />
<stop offset="100.0%" stop-color="hsl(151, 70%, 62%)" />
</linearGradient>
</defs>

<path d="M 46.7 12.9 C 61.1 25.2, 9.2 66.5, 2.8 59.6 C 2.6 54.8, 72.3 24.2, 69.9 30.5 C 85.0 44.6, 31.4 39.2, 43.3 32.2 C 25.2 46.6, 23.3 51.0, 33.0 50.7 " fill="none" fill-opacity="0.45" stroke="hsl(106, 75%, 59%)" stroke-width="1.27"   />
<rect x="61.2" y="21.1" width="25.0" height="27.2" rx="11.0" fill="none" fill-opacity="0.98" stroke="hsl(86, 72%, 68%)" stroke-width="3.2"   />
<path d="M 35.1 94.5 C 25.9 100.0, 68.6 43.0, 62.7 29.4 C 46.2 14.2, 45.8 99.5, 58.2 94.9 C 49.3 96.6, 32.6 48.9, 34.4 46.4 C 51.1 61.0, 22.2 78.6, 14.0 81.7 C 20.9 78.2, 47.1 100.0, 61.1 90.7 " fill="none" fill-opacity="0.77" stroke="hsl(106, 75%, 59%)" stroke-width="1.23"   />
<rect x="2.2" y="13.6" width="44.3" height="25.1" rx="0" fill="none" fill-opacity="0.84" stroke="hsl(242, 72%, 49%)" stroke-width="2.7"   />
<rect x="4.2" y="21.0" width="21.7" height="20.3" rx="0" fill="hsl(144, 86%, 72%)" fill-opacity="0.43"   transform="translate(9.5 52.3) rotate(99.0) scale(1.95 1.85)" />
<path d="M 62.8 68.8 C 58.2 51.2, 80.9 96.7, 85.4 93.8 C 85.8 80.9, 60.1 75.9, 59.5 78.3 C 71.5 72.9, 18.4 100.0, 28.1 86.2 C 14.0 75.7, 90.1 74.6, 94.8 62.0 C 100.0 77.2, 98.4 40.3, 92.7 51.2 C 93.0 36.7, 30.6 79.2, 30.6 64.7 Z" fill="none" fill-opacity="0.87" stroke="hsl(83, 65%, 44%)" stroke-width="1.13"   />
<path d="M 24.0 2.7 C 5.3 0.0, 100.0 76.9, 89.9 67.4 C 97.3 86.0, 10.8 28.5, 9.9 38.1 C 19.1 22.9, 20.6 22.9, 25.5 13.7 C 15.9 24.4, 81.3 50.0, 66.8 52.8 C 66.5 63.9, 3.2 80.7, 6.8 80.9 C 21.3 85.9, 7.6 5.3, 11.1 1.5 Z" fill="none" fill-opacity="0.53" stroke="hsl(83, 65%, 44%)" stroke-width="1.19"  transform="translate(33.9 5.4) rotate(14.8) scale(1.54 1.60)" />
<path d="M 57.7 85.0 C 44.9 90.1, 92.1 75.3, 81.2 89.2 C 96.2 89.0, 41.4 48.2, 43.9 33.2 C 31.8 18.6, 57.4 33.1, 67.8 43.1 C 66.4 34.8, 39.6 56.0, 45.5 45.2 C 55.3 52.0, 0.4 88.2, 15.3 83.5 C 3.7 88.8, 84.1 83.6, 80.8 72.9 " fill="none" fill-opacity="0.28" stroke="hsl(183, 71%, 60%)" stroke-width="0.82"  transform="translate(64.5 83.6) rotate(236.9) scale(1.72 0.82)" />
<path d="M 10.8 90.4 C 22.6 100.0, 33.3 100.0, 36.4 86.4 C 28.2 67.0, 45.3 88.2, 53.4 86.3 C 60.7 100.0, 39.6 26.4, 25.4 11.5 C 35.3 19.8, 88.3 14.7, 74.9 20.7 C 56.7 15.0, 60.7 86.9, 61.6 72.6 C 51.2 64.7, 83.5 63.2, 71.7 68.4 C 66.1 59.8, 79.2 27.7, 74.7 24.1 " fill="none" fill-opacity="0.64" stroke="hsl(2, 82%, 55%)" stroke-width="1.08"   />
</svg>
