<?xml version="1.0" encoding="UTF-8"?>
<svg xmlns="http://www.w3.org/2000/svg" width="100" height="100" viewBox="0 0 100 100">
<defs>
<linearGradient id="g0" x1="0%" y1="0%" x2="100%" y2="100%">
<stop offset="0.0%" stop-color="hsl(106, 75%, 59%)" />
<stop offset="33.3%" stop-color="hsl(183, 71%, 60%)" />
<stop offset="66.7%" stop-color="hsl(242, 72%, 49%)" />
<stop offset="100.0%" stop-color="hsl(322, 74%, 44%)" />
</linearGradient>
<linearGradient id="g1" x1="0%" y1="0%" x2="100%" y2="100%">
<stop offset="0.0%" stop-color="hsl(290, 83%, 63%)" />
<stop offset="33.3%" stop-color="hsl(2, 82%, 55%)" />
<stop offset="66.7%" stop-color="hsl(86, 72%, 68%)" />
<stop offset="100.0%" stop-color="hsl(83, 65%, 44%)" />
</linearGradient>
<linearGradient id="g2" x1="0%" y1="0%" x2="100%" y2="100%">
<stop offset="0.0%" stop-color="hsl(40, 53%, 69%)" />
<stop offset="33.3%" stop-color="hsl(104, 72%, 65%)" />
<stop offset="66.7%" stop-color="hsl(144, 86%, 72%)" />
<stop offset="100.0%" stop-color="hsl(151, 70%, 62%)" />
</linearGradient>
<filter id="f1" x="-20%" y="-20%" width="140%" height="140%">
  <feGaussianBlur stdDeviation="2.3293645289905673" />
</filter>

</defs>

<path d="M 64.3 69.7 C 58.7 82.7, 11.6 91.4, 4.0 96.5 C 2.8 98.6, 1.9 79.6, 7.6 85.5 C 11.8 98.2, 78.4 81.9, 64.4 88.0 C 67.0 89.9, 52.7 78.8, 63.7 89.8 C 63.3 77.1, 70.8 29.3, 59.7 28.9 C 60.7 25.9, 77.0 63.7, 62.1 61.2 C 45.7 76.4, 32.1 33.8, 41.0 41.3 C 31.9 31.6, 13.4 14.0, 10.1 11.3 C 0.0 0.0, 53.8 77.5, 66.8 62.6 C 67.9 77.7, 21.8 31.8, 30.0 40.5 Z" fill="none" fill-opacity="0.47" stroke="hsl(183, 71%, 60%)" stroke-width="2.17"  transform="translate(41.5 66.2) rotate(177.4) scale(1.23 1.49)" />
<circle cx="70.1" cy="10.8" r="6.1" fill="url(#g2)" fill-opacity="0.84"  transform="translate(17.8 57.1) rotate(198.4) scale(1.57 1.22)" />
<path d="M 1.1 59.5 C 0.0 75.5, 48.7 27.6, 57.6 35.2 C 46.1 18.0, 38.5 15.9, 44.3 30.8 C 55.5 49.4, 45.2 63.5, 44.9 70.5 C 36.9 62.1, 96.3 72.0, 84.4 82.4 C 74.7 82.3, 4.5 92.7, 8.1 91.4 C 28.0 85.0, 72.1 88.0, 71.9 95.1 C 56.3 79.9, 23.1 53.9, 26.7 61.7 C 39.2 59.7, 31.9 0.0, 19.7 8.0 C 34.2 8.3, 4.2 51.6, 16.1 42.4 Z" fill="hsl(86, 72%, 68%)" fill-opacity="0.63" stroke="none" stroke-width="2.65"  transform="translate(99.8 99.3) rotate(158.9) scale(1.94 1.13)" />
<path d="M 14.9 93.4 C 34.2 75.5, 90.3 69.8, 92.7 59.8 C 76.3 73.3, 77.7 26.6, 74.8 32.0 C 85.3 15.4, 89.4 29.3, 96.5 23.7 C 84.3 22.7, 10.1 41.7, 11.0 37.4 C 24.9 32.4, 80.7 32.5, 79.9 19.2 C 66.6 25.2, 57.3 35.6, 51.1 44.3 C 50.8 32.6, 100.0 82.3, 90.8 75.0 C 100.0 81.3, 63.9 100.0, 69.0 99.8 C 66.9 86.4, 30.7 33.5, 34.6 28.3 Z" fill="none" fill-opacity="0.26" stroke="hsl(40, 53%, 69%)" stroke-width="2.65"  transform="translate(60.1 94.5) rotate(204.4) scale(1.84 0.74)" />
<path d="M 77.9 10.0 C 66.9 16.7, 18.4 81.5, 11.6 79.5 C 17.6 96.1, 21.3 100.0, 35.5 92.7 C 38.4 78.0, 58.1 72.6, 59.5 58.0 C 77.8 55.0, 6.4 36.4, 16.8 43.9 C 30.1 54.9, 44.0 21.6, 45.0 12.1 C 57.6 10.8, 22.8 81.3, 24.3 76.2 Z" fill="none" fill-opacity="0.99" stroke="hsl(2, 82%, 55%)" stroke-width="3.51"  transform="translate(0.5 70.1) rotate(345.1) scale(1.93 1.99)" />
<path d="M 56.0 74.1 C 73.6 74.7, 36.4 68.9, 22.8 80.2 C 10.9 80.1, 58.9 46.7, 59.7 49.5 C 51.9 62.6, 29.8 80.8, 28.1 93.5 C 22.0 79.8, 19.9 68.7, 25.4 80.8 C 10.6 84.0, 82.9 38.9, 84.2 31.3 C 89.3 39.2, 62.2 76.9, 53.4 64.2 Z" fill="hsl(144, 86%, 72%)" fill-opacity="0.48" stroke="none" stroke-width="0.83"   />
<circle cx="98.8" cy="23.2" r="0.9" fill="hsl(104, 72%, 65%)" fill-opacity="0.94" filter="url(#f1)" transform="translate(97.4 46.7) rotate(74.0) scale(1.61 0.77)" />
<circle cx="5.8" cy="31.3" r="7.1" fill="hsl(86, 72%, 68%)" fill-opacity="0.70" filter="url(#f1)" transform="translate(17.3 6.3) rotate(63.8) scale(0.68 1.02)" />
<path d="M 8.7 34.0 C 27.3 45.7, 49.8 53.1, 51.9 43.4 C 63.0 56.9, 72.9 50.6, 70.4 38.2 C 54.0 55.9, 78.7 11.6, 70.8 23.4 C 86.1 39.9, 49.1 64.0, 56.1 64.3 C 36.3 48.6, 96.3 22.4, 91.1 12.4 C 94.7 21.2, 18.8 10.9, 4.3 9.9 C 9.2 20.8, 50.2 86.8, 45.0 72.3 C 28.3 61.2, 96.4 35.6, 99.5 26.1 Z" fill="none" fill-opacity="0.89" stroke="hsl(2, 82%, 55%)" stroke-width="3.79"  transform="translate(34.2 17.8) rotate(223.6) scale(0.74 1.20)" />
<path d="M 40.0 28.2 C 49.4 37.0, 59.9 62.1, 54.0 62.8 C 44.6 64.5, 21.5 54.2, 19.3 68.5 C 24.0 87.6, 0.0 65.0, 5.8 52.0 C 18.7 33.5, 100.0 98.0, 100.0 100.0 C 93.0 100.0, 61.9 23.7, 54.5 29.7 C 56.7 38.2, 26.7 1.1, 28.4 4.8 Z" fill="hsl(183, 71%, 60%)" fill-opacity="0.75" stroke="none" stroke-width="3.74"  transform="translate(5.4 83.2) rotate(126.8) scale(1.40 1.55)" />
<path d="M 39.3 68.4 C 47.4 63.2, 64.2 34.7, 64.8 21.9 C 74.3 12.1, 35.3 20.7, 25.7 18.3 C 34.0 19.0, 49.0 8.7, 49.2 11.1 C 37.0 18.8, 92.5 59.8, 96.3 56.5 C 97.0 49.6, 30.5 38.0, 32.5 29.7 C 43.9 15.0, 0.0 5.6, 5.6 9.8 C 0.0 27.6, 57.6 67.4, 64.8 54.9 C 64.5 63.7, 32.7 94.4, 26.7 80.0 C 37.1 86.3, 29.2 51.6, 18.4 37.5 Z" fill="hsl(290, 83%, 63%)" fill-opacity="0.61" stroke="none" stroke-width="5.29"  transform="translate(48.5 32.1) rotate(93.6) scale(1.88 0.67)" />
<path d="M 56.7 61.8 C 55.5 45.5, 69.1 61.0, 70.9 63.1 C 87.9 76.7, 8.9 42.6, 2.2 49.4 C 11.0 60.9, 29.7 41.8, 35.8 51.4 C 41.0 52.9, 75.4 47.1, 80.4 57.0 C 61.0 44.6, 0.0 44.7, 8.1 46.0 C 23.3 33.4, 61.2 93.8, 69.8 83.6 " fill="none" fill-opacity="0.92" stroke="hsl(322, 74%, 44%)" stroke-width="1.92"  transform="translate(80.1 4.1) rotate(69.1) scale(1.06 2.00)" />
<rect x="44.0" y="16.7" width="22.3" height="21.1" rx="3.9" fill="none" fill-opacity="0.28" stroke="hsl(290, 83%, 63%)" stroke-width="3.9"   />
<circle cx="60.4" cy="75.5" r="0.9" fill="url(#g2)" fill-opacity="0.51"  transform="translate(64.5 62.1) rotate(61.8) scale(1.39 0.68)" />
<rect x="46.7" y="14.4" width="31.4" height="34.0" rx="0" fill="none" fill-opacity="0.66" stroke="hsl(290, 83%, 63%)" stroke-width="3.2"  transform="translate(36.4 71.6) rotate(150.9) scale(0.99 1.74)" />
<path d="M 59.8 37.1 C 41.5 37.0, 43.1 34.6, 35.8 28.9 C 19.8 33.8, 20.4 37.0, 7.5 34.7 C 0.0 27.8, 68.3 59.6, 61.9 65.2 C 71.8 62.3, 34.9 40.5, 33.2 43.9 C 22.6 55.3, 45.9 45.0, 56.6 43.8 C 56.3 39.6, 76.5 0.0, 81.0 4.1 C 91.9 21.9, 57.2 9.5, 50.7 23.9 C 31.4 17.6, 79.4 4.2, 76.7 1.7 C 80.1 0.0, 31.1 15.3, 40.0 0.9 Z" fill="hsl(183, 71%, 60%)" fill-opacity="0.78" stroke="none" stroke-width="1.66" filter="url(#f1)" transform="translate(51.5 50.9) rotate(302.1) scale(1.32 0.51)" />
<circle cx="81.4" cy="6.9" r="3.8" fill="url(#g0)" fill-opacity="0.89"  transform="translate(78.6 51.4) rotate(325.7) scale(1.93 0.62)" />
<path d="M 98.1 35.1 C 100.0 47.4, 4.9 27.4, 12.6 27.6 C 5.1 15.7, 75.1 0.7, 74.6 15.4 C 92.4 18.9, 84.0 48.1, 89.8 51.1 C 84.0 64.6, 43.7 8.2, 51.1 18.1 C 43.5 0.0, 71.4 47.0, 64.0 56.5 C 69.9 48.7, 55.9 81.7, 53.3 71.8 C 36.1 78.1, 82.2 46.4, 80.1 45.5 C 67.1 29.7, 80.4 73.1, 74.5 59.6 Z" fill="none" fill-opacity="0.37" stroke="hsl(144, 86%, 72%)" stroke-width="5.08"  transform="translate(7.9 34.4) rotate(230.2) scale(0.78 1.40)" />
<path d="M 38.1 27.4 C 36.4 31.0, 86.5 12.1, 89.4 26.6 C 96.5 19.1, 83.9 66.8, 82.2 63.5 C 86.4 62.5, 74.6 25.6, 83.7 27.9 C 87.6 14.3, 17.7 25.3, 29.1 38.0 C 46.4 35.9, 86.3 93.6, 99.5 90.2 C 100.0 100.0, 43.5 38.0, 37.3 30.6 C 29.8 46.0, 60.0 62.4, 48.4 71.9 " fill="hsl(40, 53%, 69%)" fill-opacity="0.59" stroke="none" stroke-width="1.24" filter="url(#f1)" transform="translate(80.6 99.7) rotate(74.8) scale(1.55 1.35)" />
<rect x="18.1" y="24.6" width="27.3" height="39.0" rx="19.4" fill="hsl(151, 70%, 62%)" fill-opacity="0.99"    />
<path d="M 50.8 14.8 C 62.1 20.6, 54.1 92.4, 45.2 80.8 C 46.8 61.1, 76.5 100.0, 64.7 99.3 C 75.9 100.0, 91.9 100.0, 90.7 86.2 C 100.0 69.2, 91.8 41.2, 84.6 43.3 C 100.0 41.3, 65.8 18.0, 59.2 23.1 C 63.0 7.9, 64.0 28.3, 64.9 20.9 C 51.4 16.3, 51.8 60.3, 43.6 65.1 C 49.5 55.0, 32.0 47.5, 24.4 33.9 C 24.5 19.4, 50.0 50.5, 59.2 47.0 Z" fill="hsl(144, 86%, 72%)" fill-opacity="0.81" stroke="none" stroke-width="1.00"  transform="translate(20.0 62.6) rotate(329.7) scale(1.62 1.82)" />
<path d="M 91.7 1.1 C 99.9 7.8, 25.8 41.3, 39.6 37.4 C 52.4 29.3, 53.4 82.3, 68.4 91.4 C 67.9 76.6, 98.2 82.3, 93.9 90.6 C 100.0 73.7, 35.4 39.5, 33.2 25.4 C 53.0 8.3, 50.6 70.3, 57.6 67.1 C 41.5 55.5, 79.2 72.9, 90.3 76.1 C 89.8 86.2, 42.8 0.0, 30.8 5.7 C 33.2 0.0, 21.5 93.6, 19.5 91.1 C 17.0 92.0, 92.2 76.8, 91.5 72.0 Z" fill="hsl(2, 82%, 55%)" fill-opacity="0.76" stroke="none" stroke-width="4.77"  transform="translate(4.2 50.8) rotate(144.2) scale(1.55 1.59)" />
<path d="M 54.4 53.1 C 42.7 61.5, 74.9 100.0, 79.3 95.8 C 81.5 100.0, 59.9 4.1, 49.7 5.0 C 31.4 17.2, 22.2 11.0, 29.5 3.4 C 38.1 0.0, 37.9 5.5, 32.6 11.2 C 47.9 6.7, 62.4 76.4, 66.2 77.8 C 71.1 71.0, 1.1 81.8, 8.8 86.6 C 17.8 67.8, 69.8 0.0, 57.0 5.8 Z" fill="none" fill-opacity="0.31" stroke="hsl(322, 74%, 44%)" stroke-width="2.60"  transform="translate(85.1 53.8) rotate(36.7) scale(1.33 0.65)" />
<circle cx="38.9" cy="68.4" r="5.1" fill="url(#g1)" fill-opacity="0.58" filter="url(#f1)" transform="translate(56.7 87.4) rotate(321.3) scale(1.48 0.77)" />
<path d="M 39.8 77.0 C 22.0 75.8, 89.6 75.1, 78.7 60.8 C 59.0 78.4, 67.2 34.7, 79.9 48.1 C 90.4 57.1, 52.6 84.8, 46.0 89.7 C 59.8 100.0, 12.0 56.3, 17.5 59.7 C 20.0 65.7, 11.4 10.9, 5.3 21.1 C 0.0 1.5, 84.6 48.2, 95.0 45.8 C 100.0 47.4, 57.6 94.6, 48.9 99.2 C 60.8 82.3, 39.3 67.1, 27.1 66.1 Z" fill="hsl(144, 86%, 72%)" fill-opacity="0.97" stroke="none" stroke-width="2.82" filter="url(#f1)" transform="translate(17.7 23.0) rotate(210.9) scale(0.58 1.87)" />
<rect x="67.8" y="44.8" width="22.6" height="37.5" rx="0" fill="none" fill-opacity="0.25"   transform="translate(79.4 67.9) rotate(355.3) scale(0.70 0.80)" />
<path d="M 83.2 79.9 C 75.6 99.8, 100.0 44.4, 86.9 57.7 C 77.9 50.9, 50.3 93.3, 52.1 79.6 C 70.4 75.9, 62.1 0.0, 73.5 3.3 C 60.7 0.0, 29.7 83.2, 32.7 71.8 C 38.5 58.4, 26.2 83.2, 35.0 96.6 C 24.0 78.4, 56.6 78.3, 68.3 77.4 Z" fill="hsl(144, 86%, 72%)" fill-opacity="0.67" stroke="none" stroke-width="1.72"   />
<path d="M 21.4 17.8 C 30.0 37.2, 81.5 28.4, 69.4 42.4 C 67.3 47.6, 83.4 52.8, 77.2 38.3 C 70.0 36.1, 44.8 83.3, 48.8 75.8 C 35.2 61.5, 97.0 99.4, 85.6 99.3 C 100.0 85.9, 45.7 72.3, 54.1 77.9 C 40.0 95.5, 2.7 24.2, 10.1 26.4 C 27.9 32.8, 54.0 39.5, 45.4 40.8 C 40.0 22.3, 28.1 0.0, 27.7 0.5 C 38.0 0.0, 86.5 63.8, 75.5 71.9 Z" fill="hsl(322, 74%, 44%)" fill-opacity="0.66" stroke="none" stroke-width="2.19"  transform="translate(41.3 62.6) rotate(72.7) scale(1.51 1.99)" />
<path d="M 42.4 21.9 C 28.9 4.9, 42.5 13.4, 38.3 6.2 C 21.9 0.0, 25.1 8.6, 22.1 20.3 C 26.2 25.3, 14.5 43.0, 19.0 37.4 C 19.5 53.9, 80.4 100.0, 82.4 95.5 C 71.1 100.0, 9.7 6.4, 0.0 17.9 C 0.0 0.0, 73.1 94.1, 66.2 86.9 C 84.0 85.9, 28.0 68.8, 30.7 71.1 C 34.7 68.5, 76.6 44.6, 65.2 54.8 C 48.5 42.2, 10.8 6.3, 20.2 0.9 C 9.0 5.1, 42.8 37.9, 31.7 49.6 Z" fill="none" fill-opacity="0.61" stroke="hsl(104, 72%, 65%)" stroke-width="1.90"  transform="translate(64.5 0.0) rotate(77.5) scale(0.56 1.12)" />
<path d="M 95.9 75.5 C 100.0 71.8, 46.5 49.5, 50.1 36.0 C 63.2 41.8, 46.8 30.1, 44.4 43.1 C 49.7 44.0, 28.0 13.2, 26.0 5.9 C 25.9 2.0, 36.1 100.0, 41.5 95.3 C 50.7 83.7, 88.7 72.8, 85.8 63.5 C 68.8 48.9, 12.5 50.6, 23.5 47.6 Z" fill="hsl(2, 82%, 55%)" fill-opacity="0.37" stroke="none" stroke-width="4.47"  transform="translate(97.3 70.3) rotate(209.0) scale(1.81 1.77)" />
<path d="M 80.3 28.4 C 68.2 43.9, 15.0 18.9, 27.5 14.0 C 36.6 0.9, 81.2 57.0, 66.3 45.4 C 68.2 28.1, 23.0 94.6, 9.2 90.5 C 0.0 76.2, 37.5 72.6, 44.6 74.9 C 46.4 68.5, 36.7 48.2, 50.4 49.4 C 36.6 33.6, 27.6 53.9, 41.5 65.5 C 43.9 69.1, 49.4 28.7, 38.9 19.7 Z" fill="none" fill-opacity="0.85" stroke="hsl(83, 65%, 44%)" stroke-width="4.26"  transform="translate(11.5 20.7) rotate(339.9) scale(1.85 0.82)" />
<path d="M 75.4 63.2 C 60.5 67.8, 52.6 3.6, 63.4 3.2 C 45.4 0.0, 0.0 70.3, 5.1 72.1 C 17.2 52.6, 24.8 0.0, 15.7 3.6 C 8.0 1.5, 74.5 32.1, 77.3 38.2 C 57.7 37.2, 80.4 78.4, 82.2 93.1 C 100.0 93.5, 24.9 99.4, 12.0 93.3 C 25.5 77.7, 100.0 18.3, 91.0 30.2 C 97.9 18.3, 84.4 16.7, 73.3 5.0 C 73.7 0.0, 65.2 26.7, 57.3 20.0 C 39.5 15.8, 81.1 82.1, 76.7 80.3 Z" fill="none" fill-opacity="0.49" stroke="hsl(144, 86%, 72%)" stroke-width="4.71"  transform="translate(8.5 94.9) rotate(226.7) scale(1.78 1.85)" />
<path d="M 21.8 75.2 C 34.5 62.7, 7.8 70.3, 22.8 58.6 C 33.8 70.2, 100.0 97.7, 99.2 98.5 C 80.5 100.0, 25.9 44.1, 17.2 40.1 C 6.4 34.5, 36.3 35.6, 22.7 41.4 C 26.3 36.9, 85.7 59.7, 71.4 49.2 C 55.1 56.8, 42.4 32.3, 51.3 26.2 Z" fill="none" fill-opacity="0.97" stroke="hsl(183, 71%, 60%)" stroke-width="0.86"   />
<path d="M 74.4 13.8 C 54.6 23.0, 16.6 23.5, 23.6 19.1 C 4.8 6.6, 90.7 25.4, 90.0 22.1 C 100.0 40.0, 9.1 84.5, 23.4 75.3 C 13.7 86.6, 40.5 77.1, 39.0 86.1 C 19.5 100.0, 35.7 86.2, 25.0 72.1 C 44.1 85.0, 28.8 66.5, 16.8 70.8 Z" fill="none" fill-opacity="0.64" stroke="hsl(322, 74%, 44%)" stroke-width="2.22"  transform="translate(78.6 66.1) rotate(135.7) scale(1.10 1.71)" />
<rect x="53.7" y="55.6" width="37.7" height="32.4" rx="11.6" fill="none" fill-opacity="0.33"   transform="translate(63.6 65.9) rotate(358.2) scale(0.72 1.15)" />
<path d="M 60.7 49.1 C 52.5 42.6, 66.4 30.3, 70.7 18.9 C 55.3 33.6, 17.1 84.3, 22.3 72.1 C 3.7 82.1, 23.8 30.1, 27.4 42.3 C 30.9 38.9, 49.6 18.2, 62.0 14.7 C 75.6 27.1, 25.0 27.4, 12.2 22.7 C 0.0 24.7, 44.0 23.6, 55.6 14.8 C 45.7 8.2, 40.4 24.7, 28.0 31.0 C 31.4 32.7, 82.9 79.9, 69.3 80.2 C 60.3 64.8, 29.5 74.5, 23.1 64.3 C 21.2 57.2, 27.2 63.2, 30.5 50.3 Z" fill="none" fill-opacity="0.58" stroke="hsl(183, 71%, 60%)" stroke-width="1.32"  transform="translate(26.8 87.7) rotate(229.5) scale(1.61 1.74)" />
<rect x="28.5" y="14.2" width="24.0" height="19.8" rx="0" fill="none" fill-opacity="0.81"   transform="translate(59.3 62.7) rotate(63.6) scale(1.55 1.67)" />
<path d="M 60.7 75.8 C 58.4 88.7, 100.0 75.8, 96.0 74.0 C 78.6 77.0, 96.4 88.3, 94.7 74.3 C 92.5 80.9, 27.3 13.7, 37.1 24.3 C 21.6 31.4, 12.7 50.1, 24.9 46.1 C 10.6 58.1, 76.4 71.0, 83.7 57.1 C 83.8 46.2, 30.7 92.7, 35.1 80.6 C 16.1 86.2, 100.0 59.9, 97.4 45.3 Z" fill="hsl(183, 71%, 60%)" fill-opacity="0.51" stroke="none" stroke-width="3.22"  transform="translate(22.1 83.9) rotate(171.5) scale(1.38 1.23)" />
<rect x="47.2" y="6.5" width="44.1" height="27.2" rx="11.0" fill="hsl(151, 70%, 62%)" fill-opacity="0.79"    />
<path d="M 80.7 35.2 C 98.5 39.4, 59.3 15.3, 67.4 1.3 C 47.7 15.3, 60.7 100.0, 56.6 97.6 C 54.5 100.0, 91.8 19.0, 89.5 17.2 C 89.5 1.5, 66.3 77.9, 59.4 67.2 C 73.6 56.0, 3.0 34.0, 9.1 35.1 C 0.0 39.4, 50.7 92.7, 36.8 80.3 C 38.8 65.6, 86.4 92.9, 85.8 88.8 C 82.9 100.0, 84.6 88.3, 87.8 88.2 Z" fill="none" fill-opacity="0.64" stroke="hsl(104, 72%, 65%)" stroke-width="1.46"  transform="translate(62.5 11.9) rotate(6.3) scale(1.40 1.76)" />
<path d="M 39.3 77.4 C 33.1 58.4, 19.1 41.5, 19.0 31.9 C 35.8 18.8, 83.0 100.0, 78.5 99.0 C 70.4 100.0, 87.4 75.7, 75.7 78.8 C 87.4 78.4, 66.0 100.0, 53.3 93.4 C 54.3 90.7, 53.4 79.6, 47.3 66.2 C 34.3 80.2, 74.9 38.6, 67.8 53.4 Z" fill="hsl(83, 65%, 44%)" fill-opacity="0.75" stroke="none" stroke-width="3.97"  transform="translate(97.2 35.5) rotate(10.9) scale(1.54 1.72)" />
<path d="M 15.0 47.8 C 25.4 28.1, 24.4 44.7, 21.4 34.5 C 21.6 16.1, 52.5 49.6, 62.6 58.7 C 71.1 57.1, 76.0 57.0, 76.3 51.4 C 61.0 69.3, 92.6 31.2, 81.1 32.5 C 85.2 34.5, 43.9 77.9, 32.3 79.6 C 21.0 68.1, 70.9 37.7, 84.3 25.6 C 74.5 40.5, 76.0 94.3, 75.5 98.0 C 79.9 100.0, 38.0 0.0, 41.5 0.6 C 51.6 0.0, 48.7 38.3, 46.2 37.7 C 50.0 50.3, 4.3 100.0, 17.1 92.9 Z" fill="none" fill-opacity="0.57" stroke="hsl(83, 65%, 44%)" stroke-width="4.33"  transform="translate(70.2 36.8) rotate(292.2) scale(1.58 0.73)" />
<rect x="46.5" y="54.9" width="34.6" height="22.6" rx="0" fill="none" fill-opacity="0.34"   transform="translate(82.7 25.0) rotate(103.6) scale(1.92 1.41)" />
<rect x="53.6" y="30.0" width="29.6" height="17.6" rx="8.2" fill="hsl(151, 70%, 62%)" fill-opacity="0.60"   transform="translate(67.9 46.5) rotate(52.0) scale(1.76 1.29)" />
<path d="M 33.2 7.7 C 36.5 5.9, 100.0 81.5, 97.4 84.0 C 100.0 100.0, 63.4 58.1, 77.1 62.7 C 84.2 62.3, 92.4 59.3, 83.3 56.4 C 89.4 66.2, 73.5 58.7, 78.1 73.1 C 61.8 90.2, 100.0 75.4, 94.3 71.3 C 91.5 70.0, 33.4 43.8, 25.1 31.7 C 33.8 16.9, 29.2 90.1, 39.4 86.3 Z" fill="hsl(242, 72%, 49%)" fill-opacity="0.68" stroke="none" stroke-width="4.58"   />
<circle cx="84.8" cy="79.4" r="3.3" fill="url(#g0)" fill-opacity="0.91"  transform="translate(21.9 68.7) rotate(79.3) scale(1.39 1.33)" />
<path d="M 1.6 17.6 C 17.3 0.7, 96.9 74.6, 92.9 73.1 C 84.7 53.3, 63.8 72.3, 57.3 81.0 C 39.2 69.9, 80.4 5.3, 79.0 5.7 C 86.0 0.0, 12.3 59.6, 14.1 45.8 C 2.3 28.2, 17.2 91.6, 17.4 93.3 C 24.8 79.4, 100.0 10.2, 97.3 10.6 C 97.4 25.8, 43.8 88.2, 37.0 75.0 C 46.2 64.8, 52.5 61.9, 62.3 74.5 C 81.6 74.4, 38.1 68.4, 42.0 71.1 C 40.2 70.5, 36.4 39.9, 50.2 49.8 " fill="none" fill-opacity="0.38" stroke="hsl(144, 86%, 72%)" stroke-width="3.05"   />
<rect x="73.1" y="42.2" width="24.6" height="36.9" rx="1.4" fill="hsl(322, 74%, 44%)" fill-opacity="0.61"   transform="translate(39.7 1.2) rotate(276.4) scale(1.54 0.65)" />
<rect x="50.1" y="72.4" width="43.1" height="18.2" rx="0" fill="hsl(151, 70%, 62%)" fill-opacity="0.95"   transform="translate(12.6 26.2) rotate(51.8) scale(1.22 1.17)" />
<path d="M 0.0 14.5 C 0.0 13.2, 55.3 69.8, 52.6 73.2 C 36.4 59.6, 86.4 70.9, 96.6 60.2 C 78.7 64.8, 45.0 0.0, 44.2 2.0 C 44.7 0.0, 72.0 53.6, 68.5 60.4 C 76.3 60.0, 9.9 28.6, 10.7 31.9 C 28.4 13.9, 85.6 20.3, 75.2 32.7 C 55.5 32.9, 39.7 49.8, 39.8 37.6 Z" fill="hsl(144, 86%, 72%)" fill-opacity="0.89" stroke="none" stroke-width="2.92"  transform="translate(91.3 38.2) rotate(324.1) scale(1.91 1.84)" />
<path d="M 14.0 39.2 C 2.1 29.6, 80.7 32.9, 92.6 27.3 C 100.0 19.2, 65.1 83.1, 64.8 76.3 C 81.1 72.4, 8.6 82.2, 22.3 88.2 C 31.5 99.7, 56.3 1.2, 52.8 6.9 C 72.7 0.0, 76.0 0.0, 65.6 3.1 C 68.7 0.0, 90.5 13.2, 78.8 18.4 C 95.6 25.0, 71.8 25.7, 80.2 19.9 C 97.9 37.2, 11.4 61.9, 2.8 50.6 C 16.8 33.0, 6.4 100.0, 9.6 92.2 C 23.3 76.0, 77.0 44.5, 82.3 37.1 Z" fill="hsl(104, 72%, 65%)" fill-opacity="0.48" stroke="none" stroke-width="2.47"  transform="translate(100.0 50.8) rotate(134.1) scale(0.51 1.51)" />
<path d="M 57.0 17.3 C 55.7 6.5, 24.7 28.3, 14.0 25.8 C 7.3 38.6, 34.1 33.4, 40.4 43.6 C 31.5 56.4, 81.0 95.3, 86.0 83.0 C 67.4 64.2, 36.6 0.6, 27.3 0.3 C 9.3 7.5, 100.0 30.1, 92.8 18.6 C 100.0 33.0, 5.3 36.0, 13.1 33.5 C 24.7 41.0, 82.9 55.2, 67.9 64.3 C 81.1 60.1, 92.4 28.2, 93.2 17.8 C 83.8 10.0, 33.3 76.6, 47.7 61.8 C 52.5 72.1, 42.8 42.9, 47.8 48.4 Z" fill="none" fill-opacity="0.30" stroke="hsl(86, 72%, 68%)" stroke-width="2.61"   />
<path d="M 8.5 75.4 C 2.6 80.2, 92.2 91.4, 93.8 83.7 C 100.0 66.8, 0.0 67.3, 3.3 61.5 C 0.0 48.4, 6.7 49.4, 4.2 51.5 C 11.2 57.6, 40.9 92.9, 27.7 96.4 C 15.0 100.0, 26.6 74.4, 18.5 76.0 C 30.2 92.1, 7.9 81.0, 14.7 82.8 C 5.3 100.0, 73.4 56.3, 75.2 41.8 C 63.0 44.2, 56.6 16.0, 69.5 5.1 C 78.1 9.8, 68.3 80.0, 73.2 77.6 Z" fill="none" fill-opacity="0.72" stroke="hsl(104, 72%, 65%)" stroke-width="4.65"  transform="translate(60.6 20.3) rotate(189.0) scale(0.87 0.92)" />
<rect x="46.2" y="55.6" width="33.8" height="34.0" rx="11.0" fill="none" fill-opacity="0.58" stroke="hsl(242, 72%, 49%)" stroke-width="1.7"  transform="translate(66.2 11.6) rotate(41.2) scale(1.18 0.78)" />
<circle cx="75.1" cy="57.1" r="5.3" fill="hsl(183, 71%, 60%)" fill-opacity="0.76"  transform="translate(47.1 70.8) rotate(62.7) scale(1.39 0.59)" />
<path d="M 11.9 10.2 C 24.9 14.3, 58.8 0.0, 67.1 6.1 C 49.4 0.0, 13.3 88.5, 17.3 99.0 C 0.6 100.0, 64.2 100.0, 65.9 95.9 C 60.3 81.7, 16.4 78.8, 24.0 84.0 C 20.0 74.9, 56.3 37.8, 61.0 27.2 C 77.2 12.1, 23.3 29.4, 9.4 16.8 C 9.8 0.0, 5.4 0.0, 15.6 10.7 C 4.4 7.5, 98.6 86.7, 99.4 77.7 C 100.0 62.6, 42.6 70.1, 56.2 57.4 Z" fill="none" fill-opacity="0.49" stroke="hsl(40, 53%, 69%)" stroke-width="4.36"  transform="translate(35.9 52.2) rotate(319.5) scale(0.58 1.52)" />
<rect x="45.9" y="31.4" width="31.2" height="35.6" rx="0" fill="hsl(290, 83%, 63%)" fill-opacity="0.48"   transform="translate(45.1 69.6) rotate(343.9) scale(1.71 1.65)" />
<path d="M 62.5 68.4 C 66.3 66.7, 6.8 85.9, 7.2 75.1 C 2.4 78.6, 83.6 19.5, 85.5 34.4 C 100.0 25.2, 17.5 72.0, 19.5 84.5 C 24.4 79.8, 15.7 78.9, 30.5 75.0 C 49.2 64.3, 14.2 45.0, 22.9 46.5 C 18.4 57.7, 18.8 80.7, 29.2 94.3 Z" fill="hsl(183, 71%, 60%)" fill-opacity="0.97" stroke="none" stroke-width="2.21" filter="url(#f1)" transform="translate(12.8 79.0) rotate(301.0) scale(1.64 0.56)" />
<circle cx="42.5" cy="68.1" r="4.5" fill="hsl(40, 53%, 69%)" fill-opacity="0.80"  transform="translate(63.3 21.0) rotate(306.2) scale(1.63 1.74)" />
<path d="M 4.8 43.7 C 10.8 47.8, 31.9 60.1, 21.1 58.3 C 9.9 63.8, 59.9 100.0, 55.2 92.0 C 50.4 89.3, 81.4 2.7, 94.2 16.2 C 100.0 0.0, 41.4 78.8, 41.6 91.6 C 47.1 100.0, 77.6 72.5, 83.5 67.0 C 69.5 59.8, 94.6 1.7, 80.1 11.2 Z" fill="hsl(2, 82%, 55%)" fill-opacity="0.26" stroke="none" stroke-width="1.96"  transform="translate(93.8 44.3) rotate(176.3) scale(1.68 1.29)" />
<path d="M 56.9 54.7 C 49.1 41.5, 69.7 23.0, 60.5 37.7 C 53.4 50.8, 55.8 69.5, 49.2 64.6 C 36.7 54.5, 2.6 41.3, 3.6 28.7 C 0.0 48.2, 38.1 12.1, 47.5 4.4 C 52.0 0.0, 18.4 62.0, 27.2 67.5 C 26.3 52.1, 89.3 38.1, 83.9 37.7 C 94.3 28.8, 32.9 12.8, 35.0 22.3 C 20.3 24.5, 100.0 66.2, 91.9 60.0 C 100.0 48.5, 68.8 27.1, 54.8 25.1 C 62.0 38.2, 33.8 100.0, 39.5 96.5 Z" fill="hsl(83, 65%, 44%)" fill-opacity="0.43" stroke="none" stroke-width="2.33"  transform="translate(84.5 32.8) rotate(240.3) scale(1.25 0.51)" />
<rect x="6.6" y="60.5" width="47.6" height="28.9" rx="6.0" fill="hsl(183, 71%, 60%)" fill-opacity="0.70" stroke="hsl(242, 72%, 49%)" stroke-width="2.3"  transform="translate(38.8 87.2) rotate(123.2) scale(0.75 0.75)" />
<path d="M 13.9 4.4 C 10.6 1.6, 74.0 0.0, 72.9 0.5 C 81.6 4.8, 16.7 44.6, 3.6 42.7 C 15.0 43.4, 64.7 3.0, 62.2 0.4 C 67.1 0.0, 76.2 86.7, 80.4 72.4 C 67.8 67.1, 88.3 55.2, 73.3 67.8 C 55.2 78.3, 72.5 31.6, 71.0 18.6 C 70.6 32.9, 50.2 91.8, 37.0 85.7 C 48.1 79.3, 21.7 54.3, 19.3 48.0 C 15.0 32.5, 85.3 41.5, 95.2 27.7 C 91.0 42.3, 56.0 56.3, 48.0 63.0 Z" fill="hsl(151, 70%, 62%)" fill-opacity="0.59" stroke="none" stroke-width="2.72"  transform="translate(97.6 17.6) rotate(281.4) scale(0.58 0.58)" />
<rect x="42.3" y="20.8" width="42.6" height="35.8" rx="8.4" fill="none" fill-opacity="0.65"   transform="translate(59.8 94.6) rotate(128.1) scale(1.01 1.31)" />
<path d="M 56.4 86.1 C 74.9 100.0, 74.5 84.8, 87.6 71.2 C 77.3 60.6, 0.4 52.7, 15.1 49.3 C 19.6 68.2, 10.8 11.0, 24.1 4.4 C 32.6 7.2, 82.6 44.1, 77.1 29.7 C 77.9 31.3, 81.8 100.0, 71.2 90.9 C 74.3 88.1, 55.5 20.8, 57.7 19.0 Z" fill="none" fill-opacity="0.73" stroke="hsl(290, 83%, 63%)" stroke-width="2.28"  transform="translate(32.9 5.8) rotate(328.4) scale(1.81 1.21)" />
<path d="M 38.9 1.4 C 51.4 0.0, 19.3 18.9, 19.2 31.4 C 35.0 45.8, 3.3 90.9, 11.3 82.3 C 4.6 66.7, 23.7 35.3, 31.1 48.9 C 16.7 35.0, 95.6 17.1, 98.6 21.3 C 83.3 24.6, 84.8 54.6, 98.3 67.1 C 100.0 54.3, 74.8 80.3, 78.5 87.8 C 69.0 100.0, 37.6 66.4, 51.7 62.9 C 46.6 71.2, 76.2 40.0, 63.1 27.5 Z" fill="none" fill-opacity="0.57" stroke="hsl(242, 72%, 49%)" stroke-width="3.87"  transform="translate(67.0 99.1) rotate(171.6) scale(1.55 1.08)" />
<path d="M 24.0 60.9 C 16.7 79.1, 34.4 14.3, 23.2 10.2 C 37.1 0.0, 48.0 65.0, 50.6 73.6 C 59.7 69.1, 15.7 62.1, 22.7 55.8 C 34.7 43.0, 80.4 40.1, 83.1 46.3 C 68.1 55.8, 31.2 2.3, 37.3 15.8 C 57.3 15.1, 0.0 28.4, 6.3 41.2 C 0.0 57.8, 7.3 3.3, 18.9 2.8 Z" fill="hsl(106, 75%, 59%)" fill-opacity="0.45" stroke="none" stroke-width="4.41"  transform="translate(80.1 33.5) rotate(115.8) scale(1.06 1.13)" />
<path d="M 18.7 59.7 C 32.8 63.2, 11.6 57.6, 8.0 47.6 C 15.1 65.4, 90.3 67.7, 93.2 65.9 C 96.9 51.2, 89.4 13.3, 92.1 9.2 C 96.4 13.3, 16.2 40.9, 30.2 40.2 C 16.6 23.3, 11.5 79.0, 20.4 73.7 C 11.4 77.0, 81.0 73.1, 90.2 77.2 C 97.2 57.8, 73.9 58.5, 68.0 54.9 C 72.3 39.5, 96.1 53.6, 85.1 64.0 Z" fill="hsl(2, 82%, 55%)" fill-opacity="0.29" stroke="none" stroke-width="3.72"  transform="translate(51.4 7.2) rotate(98.6) scale(0.92 1.52)" />
<path d="M 15.3 15.5 C 20.2 28.2, 100.0 13.8, 93.8 18.4 C 92.0 14.6, 71.5 76.3, 74.3 80.3 C 92.5 98.0, 15.4 9.0, 9.6 13.1 C 0.0 25.1, 91.7 49.5, 99.1 59.1 C 100.0 77.1, 11.3 62.0, 5.6 55.2 C 0.0 35.8, 69.1 72.5, 60.1 59.4 C 50.1 71.5, 52.0 62.6, 47.0 54.6 C 27.2 72.3, 54.1 14.0, 60.0 6.6 C 60.5 0.0, 48.3 97.4, 58.6 88.4 Z" fill="hsl(290, 83%, 63%)" fill-opacity="0.79" stroke="none" stroke-width="5.10"  transform="translate(65.0 1.6) rotate(271.4) scale(0.60 1.68)" />
<circle cx="82.3" cy="84.3" r="8.5" fill="hsl(104, 72%, 65%)" fill-opacity="0.92"  transform="translate(30.5 48.3) rotate(293.6) scale(0.98 1.08)" />
<circle cx="15.3" cy="21.7" r="2.1" fill="url(#g1)" fill-opacity="0.52"  transform="translate(41.0 47.8) rotate(292.3) scale(0.68 1.73)" />
<rect x="55.6" y="45.4" width="31.0" height="30.0" rx="15.4" fill="none" fill-opacity="0.76" stroke="hsl(40, 53%, 69%)" stroke-width="3.1"  transform="translate(10.0 38.2) rotate(216.0) scale(0.74 0.71)" />
<rect x="45.8" y="77.5" width="43.9" height="16.8" rx="0.9" fill="hsl(40, 53%, 69%)" fill-opacity="0.62" stroke="hsl(104, 72%, 65%)" stroke-width="1.2"   />
<path d="M 7.9 1.9 C 6.0 0.4, 47.8 36.8, 42.2 27.1 C 45.6 35.0, 0.0 24.9, 5.2 32.1 C 0.0 17.6, 83.6 88.1, 95.9 73.8 C 84.0 91.9, 92.0 97.2, 89.0 89.8 C 100.0 79.6, 46.5 41.1, 56.8 49.8 C 68.7 33.7, 100.0 49.7, 94.3 56.0 C 80.2 63.7, 56.6 25.9, 65.9 35.9 Z" fill="hsl(40, 53%, 69%)" fill-opacity="0.84" stroke="none" stroke-width="0.99"   />
<rect x="66.3" y="28.9" width="31.7" height="37.0" rx="13.6" fill="hsl(151, 70%, 62%)" fill-opacity="0.73" stroke="hsl(144, 86%, 72%)" stroke-width="4.5"  transform="translate(20.1 29.8) rotate(333.3) scale(1.91 1.16)" />
<circle cx="80.0" cy="96.9" r="3.2" fill="hsl(104, 72%, 65%)" fill-opacity="0.73"  transform="translate(71.8 58.5) rotate(225.0) scale(0.71 1.18)" />
<rect x="29.0" y="7.5" width="27.0" height="21.2" rx="1.3" fill="none" fill-opacity="0.94" stroke="hsl(83, 65%, 44%)" stroke-width="2.9"  transform="translate(64.0 78.7) rotate(234.4) scale(1.51 1.93)" />
<rect x="51.8" y="74.7" width="32.8" height="16.7" rx="0" fill="hsl(106, 75%, 59%)" fill-opacity="0.26"   transform="translate(2.9 30.4) rotate(88.4) scale(1.11 0.59)" />
<path d="M 8.0 10.4 C 0.0 0.0, 33.1 54.7, 27.3 42.5 C 30.9 44.2, 97.7 100.0, 88.9 97.0 C 87.4 86.3, 96.6 24.0, 89.0 20.1 C 71.3 39.3, 35.2 26.8, 34.4 23.7 C 18.6 18.4, 80.3 75.4, 92.7 65.2 C 92.5 51.7, 44.4 62.4, 40.2 70.7 C 56.5 72.5, 40.0 34.8, 35.7 39.5 C 18.4 20.4, 35.4 55.2, 37.2 63.8 C 55.5 73.1, 25.1 88.6, 22.2 76.7 Z" fill="hsl(40, 53%, 69%)" fill-opacity="0.66" stroke="none" stroke-width="2.13"  transform="translate(75.4 18.9) rotate(262.7) scale(0.83 0.71)" />
<path d="M 91.9 45.2 C 88.7 59.3, 100.0 97.6, 96.8 96.0 C 100.0 97.4, 10.2 85.6, 3.7 98.1 C 17.5 100.0, 97.9 50.9, 86.4 43.4 C 100.0 55.3, 0.0 40.8, 4.6 40.0 C 23.1 47.8, 76.5 29.7, 71.0 28.0 C 90.9 32.5, 45.5 59.8, 48.5 65.6 Z" fill="hsl(242, 72%, 49%)" fill-opacity="0.30" stroke="none" stroke-width="0.91"  transform="translate(85.2 28.4) rotate(126.5) scale(1.92 0.76)" />
<rect x="70.2" y="7.8" width="28.9" height="39.6" rx="0" fill="none" fill-opacity="0.37"    />
<rect x="17.5" y="10.0" width="33.3" height="13.9" rx="4.1" fill="hsl(86, 72%, 68%)" fill-opacity="0.44" stroke="hsl(2, 82%, 55%)" stroke-width="1.0"  transform="translate(84.3 32.1) rotate(231.0) scale(0.97 0.66)" />
<rect x="46.9" y="27.6" width="36.4" height="33.5" rx="0.8" fill="hsl(151, 70%, 62%)" fill-opacity="0.99"   transform="translate(75.4 3.2) rotate(174.2) scale(1.20 0.95)" />
<path d="M 57.2 98.4 C 73.1 97.8, 27.7 22.6, 33.9 9.4 C 45.0 0.0, 18.7 89.3, 5.7 78.3 C 0.2 86.1, 20.0 76.4, 23.1 77.0 C 30.5 90.0, 0.0 36.7, 9.4 49.7 C 0.0 51.5, 8.7 21.6, 20.6 17.3 C 7.0 9.6, 29.2 40.9, 43.0 39.5 C 39.9 54.5, 14.1 76.2, 19.6 83.3 Z" fill="none" fill-opacity="0.33" stroke="hsl(2, 82%, 55%)" stroke-width="2.02"  transform="translate(54.1 62.9) rotate(282.6) scale(0.88 1.68)" />
<circle cx="12.5" cy="70.1" r="0.4" fill="url(#g1)" fill-opacity="0.70"  transform="translate(71.2 92.7) rotate(321.0) scale(1.93 1.02)" />
<rect x="1.0" y="46.0" width="38.2" height="38.3" rx="13.7" fill="none" fill-opacity="0.88"   transform="translate(90.1 78.1) rotate(131.4) scale(1.61 1.33)" />
<rect x="26.5" y="10.2" width="48.7" height="27.8" rx="0" fill="none" fill-opacity="0.55"   transform="translate(73.5 30.9) rotate(170.5) scale(1.16 2.00)" />
<rect x="41.4" y="50.4" width="20.6" height="19.8" rx="0" fill="none" fill-opacity="0.66" stroke="hsl(322, 74%, 44%)" stroke-width="1.6"  transform="translate(27.3 13.1) rotate(232.5) scale(1.41 1.96)" />
<path d="M 82.1 97.5 C 70.8 85.6, 87.3 20.5, 84.9 11.0 C 72.2 0.0, 89.9 74.9, 97.6 60.6 C 87.2 79.5, 98.2 72.7, 84.2 71.9 C 97.6 57.5, 20.7 0.0, 7.7 4.8 C 21.9 3.6, 28.3 36.2, 30.6 45.1 C 34.4 26.0, 29.1 44.9, 41.3 56.9 C 51.4 54.1, 0.0 76.9, 5.5 72.6 C 10.2 79.0, 72.0 34.4, 61.8 32.6 C 42.6 41.5, 74.2 20.7, 84.4 29.3 Z" fill="hsl(144, 86%, 72%)" fill-opacity="0.25" stroke="none" stroke-width="2.04"  transform="translate(59.2 38.8) rotate(106.4) scale(0.64 1.44)" />
<path d="M 51.8 40.7 C 71.4 29.0, 12.9 18.8, 10.6 27.5 C 12.2 9.6, 29.7 10.5, 32.6 23.5 C 39.2 41.1, 7.6 60.1, 12.9 66.4 C 26.3 59.2, 51.5 40.8, 49.9 26.4 C 52.7 23.8, 0.0 54.3, 7.0 67.9 C 13.3 59.7, 83.1 18.6, 74.2 11.6 C 60.3 2.9, 35.2 14.9, 29.2 8.8 C 25.8 6.3, 1.0 65.0, 4.9 63.8 Z" fill="hsl(83, 65%, 44%)" fill-opacity="0.53" stroke="none" stroke-width="2.25"  transform="translate(42.2 29.6) rotate(338.4) scale(1.75 1.48)" />
<path d="M 18.5 15.1 C 25.9 0.0, 65.7 44.6, 77.7 42.6 C 74.3 48.5, 35.7 98.5, 25.5 99.0 C 10.5 82.1, 24.4 1.7, 21.5 16.0 C 40.0 2.1, 44.3 49.4, 30.7 39.6 C 31.7 25.3, 7.7 81.3, 11.8 77.0 C 21.7 65.3, 98.9 92.2, 84.8 84.9 C 95.6 77.7, 77.0 76.0, 66.2 75.8 C 63.9 93.5, 90.8 100.0, 86.6 89.8 C 75.2 83.1, 48.0 62.1, 45.5 67.6 Z" fill="hsl(104, 72%, 65%)" fill-opacity="0.44" stroke="none" stroke-width="2.59"  transform="translate(74.3 78.4) rotate(273.5) scale(0.64 0.98)" />
<path d="M 63.7 80.3 C 51.9 87.9, 70.9 66.1, 58.4 57.6 C 43.2 67.5, 17.7 36.0, 4.6 42.2 C 22.6 59.9, 25.0 10.4, 15.5 16.8 C 27.2 33.8, 100.0 9.2, 97.1 13.3 C 97.1 3.0, 51.2 86.9, 62.7 91.6 C 48.5 100.0, 89.8 57.9, 96.4 53.0 C 82.1 39.3, 87.7 23.1, 79.1 21.4 C 74.7 36.3, 64.6 85.2, 66.8 81.6 C 78.4 98.6, 27.1 26.4, 34.7 38.0 Z" fill="hsl(290, 83%, 63%)" fill-opacity="0.54" stroke="none" stroke-width="1.67"   />
<path d="M 83.5 89.5 C 98.4 78.2, 86.0 19.9, 80.5 30.7 C 95.0 47.9, 71.3 38.0, 69.2 28.0 C 53.3 28.6, 70.2 85.9, 60.5 85.3 C 59.3 75.0, 31.7 8.4, 29.4 15.3 C 35.1 12.0, 81.5 73.7, 73.0 65.6 C 60.9 59.2, 52.6 15.8, 63.8 22.2 Z" fill="none" fill-opacity="0.75" stroke="hsl(40, 53%, 69%)" stroke-width="3.93"  transform="translate(52.3 54.5) rotate(134.6) scale(1.97 1.29)" />
<path d="M 2.8 81.4 C 17.7 71.1, 38.6 74.4, 29.8 86.6 C 26.7 100.0, 0.0 88.0, 11.2 94.2 C 23.7 93.1, 7.9 85.0, 17.9 98.9 C 20.7 100.0, 43.9 68.7, 35.3 61.5 C 51.6 75.7, 82.3 22.1, 92.2 11.2 C 93.0 1.0, 33.8 91.3, 26.6 83.0 C 41.0 75.7, 3.4 65.7, 0.5 71.6 C 14.5 70.8, 5.4 54.9, 17.9 42.7 Z" fill="none" fill-opacity="0.51" stroke="hsl(86, 72%, 68%)" stroke-width="1.35"  transform="translate(66.4 60.0) rotate(34.2) scale(1.35 1.92)" />
<path d="M 13.9 52.3 C 30.3 48.9, 16.8 10.8, 16.9 5.7 C 3.5 5.0, 58.6 40.0, 51.5 40.4 C 57.7 31.9, 28.7 77.0, 25.4 70.6 C 25.6 65.3, 84.7 24.3, 87.9 31.5 C 93.8 39.3, 64.5 12.8, 51.0 12.6 C 46.7 2.0, 0.0 77.6, 10.0 79.8 C 19.1 84.4, 23.4 86.1, 33.3 89.9 Z" fill="hsl(83, 65%, 44%)" fill-opacity="0.41" stroke="none" stroke-width="4.23"  transform="translate(75.8 87.6) rotate(73.9) scale(0.86 0.71)" />
<path d="M 8.7 33.9 C 25.6 34.6, 30.4 56.2, 32.1 65.6 C 49.4 64.3, 96.4 57.1, 84.5 48.9 C 82.1 51.1, 0.0 53.8, 4.3 39.9 C 0.0 31.2, 34.6 74.0, 34.4 62.2 C 25.8 60.4, 81.8 63.9, 85.7 68.2 C 66.0 81.1, 73.0 1.3, 74.8 5.9 C 83.2 0.0, 9.5 44.5, 15.8 53.3 " fill="none" fill-opacity="0.53" stroke="hsl(183, 71%, 60%)" stroke-width="2.81"  transform="translate(23.7 29.1) rotate(195.1) scale(0.85 1.67)" />
<path d="M 40.0 7.6 C 28.9 8.6, 33.0 63.0, 34.6 51.8 C 29.9 52.6, 75.5 64.1, 87.1 70.1 C 95.8 73.6, 56.4 38.7, 60.5 34.5 C 79.8 46.0, 92.5 31.8, 78.3 45.6 C 91.2 37.8, 27.2 70.4, 29.6 62.1 C 45.1 42.3, 38.4 63.4, 31.6 76.4 C 17.1 75.9, 100.0 55.4, 99.3 48.4 C 97.6 50.0, 64.3 74.3, 73.3 88.8 C 65.8 90.0, 51.5 49.2, 58.4 38.8 C 50.1 27.8, 62.7 29.4, 58.0 34.8 Z" fill="hsl(290, 83%, 63%)" fill-opacity="0.72" stroke="none" stroke-width="3.48"  transform="translate(94.7 27.4) rotate(174.7) scale(1.28 0.98)" />
<path d="M 98.8 32.8 C 100.0 48.7, 100.0 43.3, 95.8 36.8 C 100.0 36.6, 49.0 89.8, 50.9 78.6 C 66.8 71.9, 98.5 13.6, 84.9 5.6 C 78.6 23.0, 47.1 83.9, 41.7 98.3 C 58.0 85.2, 69.2 35.0, 59.9 33.3 C 41.8 24.5, 40.4 98.4, 27.8 94.1 C 27.0 100.0, 31.6 53.6, 22.1 46.2 C 26.5 31.9, 54.4 47.6, 46.2 34.3 C 29.8 29.4, 100.0 75.6, 96.1 89.9 Z" fill="hsl(242, 72%, 49%)" fill-opacity="0.41" stroke="none" stroke-width="4.84" filter="url(#f1)" transform="translate(42.6 80.5) rotate(335.3) scale(1.60 1.74)" />
<circle cx="94.3" cy="88.3" r="4.1" fill="url(#g0)" fill-opacity="0.58"  transform="translate(5.4 81.2) rotate(82.4) scale(1.60 1.92)" />
<path d="M 75.0 82.4 C 89.9 82.9, 46.4 46.7, 55.5 53.8 C 60.5 48.3, 6.5 90.5, 8.9 77.7 C 2.4 84.3, 13.5 31.9, 1.4 20.5 C 18.2 7.8, 20.8 32.1, 27.0 43.1 C 28.1 56.7, 29.6 62.1, 32.5 68.0 C 42.5 85.7, 52.4 71.8, 45.7 81.1 C 64.5 62.3, 26.6 19.8, 35.7 12.5 Z" fill="hsl(40, 53%, 69%)" fill-opacity="0.43" stroke="none" stroke-width="3.70"  transform="translate(18.1 71.4) rotate(324.8) scale(1.89 1.40)" />
<rect x="18.2" y="15.0" width="44.1" height="16.7" rx="17.8" fill="none" fill-opacity="0.64"   transform="translate(96.0 49.7) rotate(11.6) scale(1.10 1.39)" />
<path d="M 52.1 45.1 C 62.0 27.3, 97.4 86.5, 89.8 94.5 C 70.3 82.4, 52.3 41.1, 56.7 27.4 C 44.4 47.2, 0.8 99.2, 13.5 85.6 C 24.8 96.3, 8.7 21.0, 20.3 20.4 C 20.8 9.5, 100.0 0.0, 99.2 0.2 C 98.2 0.0, 99.5 80.8, 89.9 74.3 C 91.2 70.5, 30.4 25.1, 41.7 37.8 C 58.4 32.7, 27.7 56.3, 13.0 54.5 C 21.4 37.1, 62.9 5.5, 66.8 18.8 Z" fill="none" fill-opacity="0.75" stroke="hsl(2, 82%, 55%)" stroke-width="5.21"  transform="translate(76.9 5.4) rotate(337.4) scale(0.85 0.83)" />
<circle cx="11.3" cy="20.4" r="4.0" fill="hsl(2, 82%, 55%)" fill-opacity="0.69"  transform="translate(74.5 86.7) rotate(85.5) scale(0.66 0.82)" />
<rect x="63.2" y="58.7" width="36.1" height="12.5" rx="0" fill="none" fill-opacity="0.59" stroke="hsl(2, 82%, 55%)" stroke-width="1.7"  transform="translate(15.5 16.4) rotate(47.4) scale(0.60 1.81)" />
<path d="M 86.1 9.1 C 81.1 2.8, 85.9 47.4, 85.9 51.7 C 79.9 41.9, 7.8 0.0, 4.2 4.6 C 0.0 14.1, 76.0 4.1, 73.3 15.2 C 89.0 12.4, 42.5 8.9, 47.6 10.9 C 55.2 17.3, 0.0 94.7, 4.8 81.9 C 24.7 85.5, 89.0 55.6, 83.5 63.1 Z" fill="hsl(183, 71%, 60%)" fill-opacity="0.96" stroke="none" stroke-width="2.32"  transform="translate(5.0 65.3) rotate(104.1) scale(1.48 0.81)" />
<rect x="31.4" y="20.1" width="47.9" height="22.9" rx="13.0" fill="hsl(242, 72%, 49%)" fill-opacity="0.67" stroke="hsl(242, 72%, 49%)" stroke-width="4.5"  transform="translate(58.0 81.7) rotate(199.4) scale(1.01 1.89)" />
<path d="M 61.5 12.3 C 79.3 5.9, 70.0 51.4, 56.7 45.7 C 38.2 37.3, 5.2 28.6, 0.8 18.6 C 0.0 29.5, 48.1 77.7, 58.0 78.7 C 71.6 98.1, 35.7 59.9, 28.5 68.2 C 37.9 51.0, 39.1 43.9, 31.8 56.3 C 38.3 73.1, 48.8 58.5, 45.8 63.5 C 46.3 55.5, 32.0 40.9, 17.3 29.8 C 14.8 44.1, 82.7 38.9, 93.6 35.7 Z" fill="none" fill-opacity="0.73" stroke="hsl(183, 71%, 60%)" stroke-width="5.01"   />
<rect x="38.9" y="63.5" width="33.1" height="11.8" rx="0" fill="hsl(86, 72%, 68%)" fill-opacity="0.47"   transform="translate(33.1 68.9) rotate(46.2) scale(0.73 1.40)" />
<path d="M 55.9 63.0 C 63.3 60.4, 100.0 93.8, 95.3 90.4 C 100.0 93.4, 81.6 73.3, 85.3 87.7 C 90.1 100.0, 8.9 75.6, 1.7 87.2 C 0.0 84.9, 61.6 32.5, 51.9 33.1 C 48.0 27.0, 47.0 20.7, 35.8 19.5 C 49.5 15.6, 69.8 58.7, 61.7 64.7 C 77.6 46.2, 32.7 83.4, 41.7 68.6 C 59.6 81.1, 62.4 3.9, 76.6 3.7 C 79.5 11.5, 40.8 85.7, 46.4 89.5 " fill="none" fill-opacity="0.31" stroke="hsl(106, 75%, 59%)" stroke-width="3.15"  transform="translate(78.7 99.0) rotate(338.2) scale(1.68 0.69)" />
<circle cx="77.5" cy="43.1" r="11.2" fill="url(#g1)" fill-opacity="0.58"  transform="translate(18.2 42.9) rotate(37.5) scale(0.92 1.31)" />
<path d="M 11.2 32.8 C 0.0 25.6, 0.0 0.0, 9.7 4.1 C 10.5 0.0, 63.5 57.6, 59.9 55.8 C 64.2 58.1, 79.0 17.9, 91.9 5.0 C 100.0 0.0, 28.6 12.9, 37.8 2.1 C 26.7 0.0, 59.1 21.3, 57.1 29.8 C 54.6 24.0, 69.1 77.2, 66.4 84.4 C 53.7 75.4, 21.1 0.0, 8.1 9.4 C 2.1 28.5, 56.3 100.0, 53.5 99.8 Z" fill="hsl(183, 71%, 60%)" fill-opacity="0.27" stroke="none" stroke-width="1.26"  transform="translate(3.1 56.8) rotate(209.6) scale(0.63 1.91)" />
<path d="M 77.7 55.9 C 90.5 74.8, 100.0 34.9, 89.1 26.6 C 79.0 37.1, 40.1 82.1, 53.8 67.8 C 41.7 76.2, 44.5 98.7, 38.4 91.6 C 50.6 96.1, 74.2 54.8, 66.7 66.1 C 81.7 68.8, 51.1 59.0, 57.5 64.9 C 51.0 52.5, 70.9 5.4, 79.1 12.4 C 79.2 25.3, 0.0 98.0, 13.2 92.0 " fill="none" fill-opacity="0.56" stroke="hsl(242, 72%, 49%)" stroke-width="4.49"   />
<path d="M 36.6 80.3 C 24.4 77.7, 16.6 32.4, 24.7 41.4 C 6.5 32.4, 15.2 16.2, 23.3 14.0 C 32.7 5.9, 58.7 66.7, 44.2 66.4 C 57.4 61.8, 3.8 20.5, 0.7 14.5 C 0.0 24.6, 53.0 92.7, 40.4 79.3 C 32.2 93.1, 20.0 0.0, 17.2 0.6 C 21.0 0.0, 49.5 100.0, 37.9 99.9 C 53.4 100.0, 56.6 76.9, 50.5 82.8 C 66.4 69.7, 12.3 1.0, 15.8 10.2 C 17.1 12.5, 37.2 69.1, 22.8 58.4 Z" fill="hsl(104, 72%, 65%)" fill-opacity="0.66" stroke="none" stroke-width="1.00"  transform="translate(39.0 55.3) rotate(6.8) scale(1.23 1.19)" />
<path d="M 34.6 49.2 C 45.5 31.8, 44.8 0.0, 38.5 4.9 C 37.9 2.3, 69.0 2.1, 58.8 2.7 C 54.5 0.0, 5.7 85.2, 4.2 71.1 C 5.1 63.1, 0.0 89.1, 0.3 97.9 C 5.3 100.0, 14.7 82.3, 20.4 77.6 C 28.9 79.7, 77.9 62.1, 81.3 72.1 C 89.4 70.8, 87.7 84.8, 84.8 74.5 C 95.6 81.9, 16.0 27.5, 23.8 34.9 C 4.5 44.5, 32.1 73.3, 18.8 62.4 C 8.1 49.2, 74.4 43.0, 59.9 37.1 Z" fill="none" fill-opacity="0.86" stroke="hsl(322, 74%, 44%)" stroke-width="2.89"  transform="translate(1.6 50.8) rotate(57.8) scale(1.94 1.07)" />
<circle cx="53.8" cy="97.1" r="0.9" fill="hsl(183, 71%, 60%)" fill-opacity="0.47"  transform="translate(90.3 59.0) rotate(106.3) scale(1.06 1.09)" />
<rect x="4.3" y="34.7" width="24.3" height="29.2" rx="0" fill="hsl(104, 72%, 65%)" fill-opacity="0.60"   transform="translate(5.0 80.0) rotate(63.5) scale(0.86 1.29)" />
<rect x="64.5" y="51.1" width="30.5" height="23.4" rx="0" fill="none" fill-opacity="0.89" stroke="hsl(144, 86%, 72%)" stroke-width="4.2" filter="url(#f1)" transform="translate(69.2 44.5) rotate(271.4) scale(0.83 0.64)" />
<path d="M 3.2 31.4 C 2.7 23.2, 0.0 14.0, 2.5 18.6 C 13.7 20.4, 58.7 11.6, 70.8 6.7 C 57.1 12.4, 93.2 26.4, 79.6 31.4 C 81.0 28.3, 20.9 52.3, 19.4 40.0 C 12.1 51.6, 52.3 81.0, 39.4 82.0 C 25.3 98.9, 56.1 60.3, 48.6 58.6 C 47.8 48.9, 66.6 28.0, 75.0 35.7 C 64.6 37.8, 61.7 62.2, 65.0 60.6 C 74.6 61.1, 65.7 0.0, 66.0 2.7 C 63.3 6.5, 34.6 65.9, 43.0 73.2 " fill="hsl(83, 65%, 44%)" fill-opacity="0.49" stroke="none" stroke-width="3.54"  transform="translate(38.5 36.2) rotate(49.9) scale(0.77 1.00)" />
<path d="M 97.6 84.5 C 100.0 82.2, 77.1 8.9, 81.2 16.4 C 72.1 5.2, 78.8 70.0, 78.0 76.2 C 70.9 57.4, 23.4 54.6, 25.4 63.2 C 35.8 54.3, 84.2 11.8, 90.9 6.0 C 90.1 14.4, 77.6 63.2, 69.5 75.3 C 72.9 82.8, 0.0 2.8, 14.3 8.1 C 4.8 0.0, 11.3 4.6, 0.5 13.6 C 0.0 16.3, 100.0 21.9, 86.8 28.5 C 88.6 15.5, 70.2 38.7, 68.9 40.4 C 67.3 47.4, 90.7 90.0, 92.5 80.0 Z" fill="hsl(183, 71%, 60%)" fill-opacity="0.81" stroke="none" stroke-width="1.78"  transform="translate(58.3 15.3) rotate(296.2) scale(1.83 1.69)" />
<g opacity="0.034">
<rect x="0" y="0" width="1" height="100" fill="black" />
<rect x="22" y="0" width="1" height="100" fill="black" />
<rect x="44" y="0" width="1" height="100" fill="black" />
<rect x="66" y="0" width="1" height="100" fill="black" />
<rect x="88" y="0" width="1" height="100" fill="black" />
<rect x="0" y="0" width="100" height="1" fill="black" />
<rect x="0" y="22" width="100" height="1" fill="black" />
<rect x="0" y="44" width="100" height="1" fill="black" />
<rect x="0" y="66" width="100" height="1" fill="black" />
<rect x="0" y="88" width="100" height="1" fill="black" />
</g>

</svg>
