<?xml version="1.0" encoding="UTF-8"?>
<svg xmlns="http://www.w3.org/2000/svg" width="100" height="100" viewBox="0 0 100 100">
<defs>
<linearGradient id="g0" x1="0%" y1="0%" x2="100%" y2="100%">
<stop offset="0.0%" stop-color="hsl(106, 75%, 59%)" />
<stop offset="33.3%" stop-color="hsl(183, 71%, 60%)" />
<stop offset="66.7%" stop-color="hsl(242, 72%, 49%)" />
<stop offset="100.0%" stop-color="hsl(322, 74%, 44%)" />
</linearGradient>
<linearGradient id="g1" x1="0%" y1="0%" x2="100%" y2="100%">
<stop offset="0.0%" stop-color="hsl(290, 83%, 63%)" />
<stop offset="33.3%" stop-color="hsl(2, 82%, 55%)" />
<stop offset="66.7%" stop-color="hsl(86, 72%, 68%)" />
<stop offset="100.0%" stop-color="hsl(83, 65%, 44%)" />
</linearGradient>
<linearGradient id="g2" x1="0%" y1="0%" x2="100%" y2="100%">
<stop offset="0.0%" stop-color="hsl(40, 53%, 69%)" />
<stop offset="33.3%" stop-color="hsl(104, 72%, 65%)" />
<stop offset="66.7%" stop-color="hsl(144, 86%, 72%)" />
<stop offset="100.0%" stop-color="hsl(151, 70%, 62%)" />
</linearGradient>
</defs>

<path d="M 22.8 53.0 C 42.3 56.3, 35.9 62.3, 26.0 66.9 C 29.8 53.0, 76.0 14.7, 72.7 18.9 C 71.9 4.0, 68.6 0.0, 63.6 0.6 C 64.3 12.4, 61.0 1.3, 64.1 3.8 " fill="none" fill-opacity="0.76" stroke="hsl(151, 70%, 62%)" stroke-width="0.91"  transform="translate(14.5 58.7) rotate(189.4) scale(1.74 0.57)" />
<rect x="58.7" y="15.1" width="34.3" height="39.1" rx="0" fill="none" fill-opacity="0.79"   transform="translate(75.5 0.8) rotate(81.2) scale(1.40 1.60)" />
<rect x="26.9" y="39.0" width="40.3" height="36.3" rx="10.9" fill="hsl(86, 72%, 68%)" fill-opacity="0.48"   transform="translate(52.9 96.2) rotate(133.6) scale(1.20 0.51)" />
<rect x="16.1" y="23.7" width="49.4" height="13.6" rx="0" fill="none" fill-opacity="0.38"    />
<rect x="8.6" y="79.9" width="45.9" height="19.9" rx="0" fill="hsl(106, 75%, 59%)" fill-opacity="0.40"   transform="translate(89.9 99.2) rotate(74.2) scale(0.97 0.99)" />
<rect x="32.5" y="56.3" width="34.9" height="21.5" rx="0" fill="hsl(2, 82%, 55%)" fill-opacity="0.25" stroke="hsl(2, 82%, 55%)" stroke-width="4.3"  transform="translate(100.0 57.9) rotate(195.2) scale(0.79 1.30)" />
<circle cx="81.2" cy="44.0" r="1.6" fill="hsl(242, 72%, 49%)" fill-opacity="0.88"  transform="translate(55.6 48.1) rotate(68.8) scale(0.90 0.82)" />
<path d="M 82.7 75.0 C 97.6 81.6, 52.7 75.1, 40.6 78.1 C 26.9 64.2, 87.1 76.8, 96.5 64.3 C 100.0 50.1, 41.8 34.6, 33.8 41.3 C 53.3 49.3, 76.4 19.6, 74.5 11.5 C 81.3 21.6, 79.2 0.0, 66.2 1.2 Z" fill="hsl(40, 53%, 69%)" fill-opacity="0.36" stroke="none" stroke-width="0.90"   />
<rect x="32.9" y="11.4" width="32.3" height="38.5" rx="14.9" fill="none" fill-opacity="0.32"   transform="translate(66.8 66.1) rotate(267.7) scale(1.59 0.72)" />
<path d="M 19.0 81.0 C 17.4 68.6, 94.7 57.8, 83.2 63.1 C 82.8 80.2, 68.9 0.0, 64.1 6.5 C 71.0 0.0, 70.8 92.0, 63.7 84.4 C 59.4 100.0, 35.1 63.4, 34.4 55.3 C 35.5 46.9, 18.8 66.8, 32.8 74.7 C 22.0 83.9, 0.2 47.1, 4.8 43.8 C 12.9 40.9, 66.4 50.6, 63.7 51.8 Z" fill="none" fill-opacity="0.86" stroke="hsl(322, 74%, 44%)" stroke-width="1.15"   />
<circle cx="71.0" cy="63.2" r="0.5" fill="hsl(151, 70%, 62%)" fill-opacity="0.89"  transform="translate(48.2 97.7) rotate(246.5) scale(0.77 1.97)" />
<path d="M 33.7 76.3 C 27.8 74.8, 95.3 34.0, 83.0 24.9 C 100.0 39.8, 64.0 30.6, 49.2 40.0 C 38.7 27.9, 84.6 76.1, 83.0 64.0 C 95.5 58.2, 6.6 12.1, 17.4 1.3 C 5.0 0.0, 34.6 45.6, 44.2 49.5 " fill="hsl(83, 65%, 44%)" fill-opacity="0.27" stroke="none" stroke-width="1.17"   />
</svg>
