<?xml version="1.0" encoding="UTF-8"?>
<svg xmlns="http://www.w3.org/2000/svg" width="100" height="100" viewBox="0 0 100 100">
<defs>
<linearGradient id="g0" x1="0%" y1="0%" x2="100%" y2="100%">
<stop offset="0.0%" stop-color="hsl(106, 75%, 59%)" />
<stop offset="33.3%" stop-color="hsl(183, 71%, 60%)" />
<stop offset="66.7%" stop-color="hsl(242, 72%, 49%)" />
<stop offset="100.0%" stop-color="hsl(322, 74%, 44%)" />
</linearGradient>
<linearGradient id="g1" x1="0%" y1="0%" x2="100%" y2="100%">
<stop offset="0.0%" stop-color="hsl(290, 83%, 63%)" />
<stop offset="33.3%" stop-color="hsl(2, 82%, 55%)" />
<stop offset="66.7%" stop-color="hsl(86, 72%, 68%)" />
<stop offset="100.0%" stop-color="hsl(83, 65%, 44%)" />
</linearGradient>
<linearGradient id="g2" x1="0%" y1="0%" x2="100%" y2="100%">
<stop offset="0.0%" stop-color="hsl(40, 53%, 69%)" />
<stop offset="33.3%" stop-color="hsl(104, 72%, 65%)" />
<stop offset="66.7%" stop-color="hsl(144, 86%, 72%)" />
<stop offset="100.0%" stop-color="hsl(151, 70%, 62%)" />
</linearGradient>
</defs>

<circle cx="19.6" cy="6.6" r="1.8" fill="hsl(242, 72%, 49%)" fill-opacity="0.56"  transform="translate(45.1 94.1) rotate(60.7) scale(1.75 0.74)" />
<rect x="54.8" y="26.4" width="26.1" height="21.9" rx="0" fill="hsl(290, 83%, 63%)" fill-opacity="0.28" stroke="hsl(83, 65%, 44%)" stroke-width="3.4"   />
<path d="M 16.1 40.0 C 14.7 44.4, 76.6 58.4, 88.6 63.7 C 82.1 58.9, 30.1 13.0, 41.3 9.9 C 45.5 29.1, 23.2 5.0, 16.3 0.5 C 4.9 6.9, 53.8 0.0, 44.7 2.4 C 26.9 10.0, 58.3 59.7, 59.3 72.5 C 64.3 83.2, 89.4 67.4, 92.0 75.6 " fill="hsl(40, 53%, 69%)" fill-opacity="0.51" stroke="none" stroke-width="1.18"   />
<path d="M 56.6 98.7 C 61.5 86.5, 27.9 35.1, 24.6 38.4 C 10.8 43.3, 0.0 6.1, 5.5 19.6 C 10.7 0.1, 55.4 76.7, 50.0 79.0 C 68.5 82.9, 0.0 13.7, 4.0 27.2 C 5.3 31.7, 91.0 5.8, 76.9 18.8 Z" fill="none" fill-opacity="0.76" stroke="hsl(104, 72%, 65%)" stroke-width="1.04"  transform="translate(73.3 60.3) rotate(123.3) scale(1.75 1.98)" />
<rect x="65.1" y="33.6" width="33.6" height="31.5" rx="0" fill="none" fill-opacity="0.73" stroke="hsl(144, 86%, 72%)" stroke-width="2.7"   />
<circle cx="52.5" cy="89.9" r="1.7" fill="hsl(183, 71%, 60%)" fill-opacity="0.85"  transform="translate(64.7 55.8) rotate(350.0) scale(1.93 1.12)" />
<circle cx="3.8" cy="64.6" r="0.4" fill="hsl(322, 74%, 44%)" fill-opacity="0.64"   />
<circle cx="96.1" cy="34.5" r="0.3" fill="hsl(83, 65%, 44%)" fill-opacity="0.66"  transform="translate(67.9 53.6) rotate(184.5) scale(1.19 1.36)" />
<path d="M 90.0 1.2 C 93.4 8.3, 81.9 93.8, 71.9 95.6 C 91.0 100.0, 33.8 94.8, 34.2 85.0 C 24.1 73.7, 15.2 56.2, 3.2 68.7 Z" fill="none" fill-opacity="0.40" stroke="hsl(144, 86%, 72%)" stroke-width="1.21"   />
<circle cx="68.3" cy="22.0" r="0.8" fill="hsl(104, 72%, 65%)" fill-opacity="0.98"  transform="translate(83.3 69.6) rotate(179.7) scale(0.61 1.38)" />
<rect x="60.5" y="44.5" width="39.2" height="30.0" rx="19.6" fill="none" fill-opacity="0.50"    />
<path d="M 52.8 81.0 C 42.2 61.6, 0.0 11.8, 8.0 17.8 C 0.0 11.7, 77.1 82.4, 63.9 79.5 C 49.0 61.0, 0.0 92.3, 9.4 94.9 C 3.6 93.5, 56.7 97.6, 48.5 96.5 C 34.9 100.0, 87.5 57.1, 96.2 48.5 C 100.0 31.2, 10.1 85.5, 10.0 83.6 C 5.8 77.2, 45.9 32.6, 37.4 24.2 " fill="hsl(322, 74%, 44%)" fill-opacity="0.97" stroke="none" stroke-width="1.19"   />
<rect x="56.0" y="23.7" width="27.2" height="10.8" rx="0" fill="hsl(242, 72%, 49%)" fill-opacity="0.71"   transform="translate(55.1 30.1) rotate(138.3) scale(1.19 0.90)" />
<path d="M 79.3 35.7 C 91.0 22.8, 33.5 45.6, 46.8 54.4 C 32.4 58.0, 0.0 78.7, 2.3 70.1 C 0.0 55.4, 67.1 37.7, 55.2 32.1 C 73.2 14.8, 96.8 62.4, 90.5 71.4 Z" fill="hsl(83, 65%, 44%)" fill-opacity="0.99" stroke="none" stroke-width="0.82"   />
<path d="M 55.5 94.2 C 46.4 100.0, 52.2 89.3, 41.9 75.5 C 49.2 61.0, 14.2 91.7, 26.8 97.0 C 15.2 79.0, 64.3 80.7, 54.1 69.2 C 62.5 87.9, 85.0 94.1, 75.8 94.1 C 70.8 93.1, 56.1 36.1, 45.1 29.3 " fill="hsl(86, 72%, 68%)" fill-opacity="0.52" stroke="none" stroke-width="1.26"   />
</svg>
