<?xml version="1.0" encoding="UTF-8"?>
<svg xmlns="http://www.w3.org/2000/svg" width="100" height="100" viewBox="0 0 100 100">
<defs>
<linearGradient id="g0" x1="0%" y1="0%" x2="100%" y2="100%">
<stop offset="0.0%" stop-color="hsl(106, 75%, 59%)" />
<stop offset="33.3%" stop-color="hsl(183, 71%, 60%)" />
<stop offset="66.7%" stop-color="hsl(242, 72%, 49%)" />
<stop offset="100.0%" stop-color="hsl(322, 74%, 44%)" />
</linearGradient>
<linearGradient id="g1" x1="0%" y1="0%" x2="100%" y2="100%">
<stop offset="0.0%" stop-color="hsl(290, 83%, 63%)" />
<stop offset="33.3%" stop-color="hsl(2, 82%, 55%)" />
<stop offset="66.7%" stop-color="hsl(86, 72%, 68%)" />
<stop offset="100.0%" stop-color="hsl(83, 65%, 44%)" />
</linearGradient>
<linearGradient id="g2" x1="0%" y1="0%" x2="100%" y2="100%">
<stop offset="0.0%" stop-color="hsl(40, 53%, 69%)" />
<stop offset="33.3%" stop-color="hsl(104, 72%, 65%)" />
<stop offset="66.7%" stop-color="hsl(144, 86%, 72%)" />
<stop offset="100.0%" stop-color="hsl(151, 70%, 62%)" />
</linearGradient>
</defs>

<circle cx="57.1" cy="72.9" r="0.9" fill="hsl(83, 65%, 44%)" fill-opacity="0.46"  transform="translate(31.9 78.1) rotate(277.5) scale(1.07 1.16)" />
<circle cx="42.6" cy="23.2" r="1.3" fill="hsl(144, 86%, 72%)" fill-opacity="0.57"   />
<circle cx="49.5" cy="26.0" r="0.7" fill="hsl(106, 75%, 59%)" fill-opacity="0.62"   />
<path d="M 49.0 76.2 C 32.8 72.4, 93.5 91.2, 81.8 89.0 C 83.1 70.2, 18.5 67.2, 7.6 56.0 C 23.2 57.6, 2.7 62.4, 7.9 73.4 C 18.2 86.6, 47.2 77.4, 61.3 62.5 C 69.7 63.0, 94.0 34.1, 84.5 38.2 C 94.4 23.0, 4.1 13.1, 2.0 7.0 " fill="hsl(290, 83%, 63%)" fill-opacity="0.73" stroke="none" stroke-width="1.02"   />
<path d="M 6.3 55.6 C 0.0 36.1, 54.9 82.6, 64.4 90.0 C 57.2 79.2, 68.5 35.0, 80.7 35.4 C 89.3 44.7, 40.9 83.5, 39.0 89.1 C 38.3 100.0, 61.1 80.7, 50.6 76.5 C 53.2 75.7, 60.0 53.9, 72.3 64.8 C 75.9 49.4, 10.3 37.2, 22.1 30.0 Z" fill="none" fill-opacity="0.30" stroke="hsl(151, 70%, 62%)" stroke-width="1.22"  transform="translate(50.3 29.9) rotate(299.2) scale(0.51 1.87)" />
<path d="M 32.6 40.5 C 33.6 30.8, 55.9 100.0, 60.3 92.2 C 55.6 76.7, 14.3 59.5, 11.8 72.1 C 22.7 70.8, 10.2 71.8, 12.0 84.9 Z" fill="hsl(144, 86%, 72%)" fill-opacity="0.46" stroke="none" stroke-width="0.99"  transform="translate(21.5 52.5) rotate(153.5) scale(1.74 1.28)" />
<path d="M 84.2 98.7 C 64.5 100.0, 48.3 90.1, 63.2 75.3 C 73.7 66.9, 75.2 46.7, 67.8 61.0 C 67.0 48.1, 20.4 100.0, 9.7 89.1 C 0.0 89.7, 90.2 94.9, 95.0 96.7 C 94.9 83.3, 55.4 13.8, 68.1 23.5 C 83.7 31.0, 54.5 71.5, 49.1 75.1 C 32.7 66.7, 0.0 60.7, 4.6 72.0 Z" fill="hsl(290, 83%, 63%)" fill-opacity="0.97" stroke="none" stroke-width="0.91"  transform="translate(87.2 50.7) rotate(34.0) scale(1.00 0.64)" />
<path d="M 22.1 80.4 C 11.9 94.0, 15.5 50.8, 14.4 38.7 C 20.0 37.0, 54.7 88.3, 43.7 74.9 C 45.2 71.7, 65.7 78.5, 58.2 82.7 C 38.4 93.8, 6.0 4.2, 13.9 10.0 " fill="none" fill-opacity="0.97" stroke="hsl(242, 72%, 49%)" stroke-width="0.84"   />
<rect x="0.5" y="66.3" width="33.6" height="15.7" rx="0" fill="none" fill-opacity="0.69" stroke="hsl(86, 72%, 68%)" stroke-width="1.7"   />
</svg>
