<?xml version="1.0" encoding="UTF-8"?>
<svg xmlns="http://www.w3.org/2000/svg" width="100" height="100" viewBox="0 0 100 100">
<defs>
<linearGradient id="g0" x1="0%" y1="0%" x2="100%" y2="100%">
<stop offset="0.0%" stop-color="hsl(106, 75%, 59%)" />
<stop offset="33.3%" stop-color="hsl(183, 71%, 60%)" />
<stop offset="66.7%" stop-color="hsl(242, 72%, 49%)" />
<stop offset="100.0%" stop-color="hsl(322, 74%, 44%)" />
</linearGradient>
<linearGradient id="g1" x1="0%" y1="0%" x2="100%" y2="100%">
<stop offset="0.0%" stop-color="hsl(290, 83%, 63%)" />
<stop offset="33.3%" stop-color="hsl(2, 82%, 55%)" />
<stop offset="66.7%" stop-color="hsl(86, 72%, 68%)" />
<stop offset="100.0%" stop-color="hsl(83, 65%, 44%)" />
</linearGradient>
<linearGradient id="g2" x1="0%" y1="0%" x2="100%" y2="100%">
<stop offset="0.0%" stop-color="hsl(40, 53%, 69%)" />
<stop offset="33.3%" stop-color="hsl(104, 72%, 65%)" />
<stop offset="66.7%" stop-color="hsl(144, 86%, 72%)" />
<stop offset="100.0%" stop-color="hsl(151, 70%, 62%)" />
</linearGradient>
</defs>

<path d="M 20.2 66.1 C 17.5 56.0, 27.7 17.7, 30.5 18.4 C 26.0 8.5, 62.7 90.2, 58.9 89.4 C 51.1 81.2, 80.2 54.8, 76.3 46.1 C 91.3 49.5, 39.4 0.0, 29.9 11.6 C 31.3 13.5, 64.4 16.1, 53.5 7.2 C 57.5 22.5, 70.8 44.0, 71.8 31.5 C 73.4 13.0, 26.7 88.1, 14.6 80.9 Z" fill="none" fill-opacity="0.85" stroke="hsl(322, 74%, 44%)" stroke-width="0.83"   />
<circle cx="30.5" cy="60.1" r="0.5" fill="hsl(106, 75%, 59%)" fill-opacity="0.49"  transform="translate(23.0 50.4) rotate(54.5) scale(1.81 1.96)" />
<rect x="43.8" y="35.6" width="37.9" height="35.6" rx="0" fill="none" fill-opacity="0.78"   transform="translate(59.5 6.5) rotate(50.5) scale(1.00 1.72)" />
<path d="M 49.7 77.3 C 41.4 73.2, 16.2 41.4, 25.8 50.2 C 40.4 67.5, 52.1 45.3, 65.4 43.9 C 51.7 62.2, 39.6 53.9, 31.5 54.0 C 32.8 46.8, 67.7 17.2, 64.3 21.3 Z" fill="none" fill-opacity="0.61" stroke="hsl(2, 82%, 55%)" stroke-width="1.12"  transform="translate(31.6 58.1) rotate(293.5) scale(1.91 0.90)" />
<rect x="73.8" y="14.4" width="21.0" height="16.0" rx="16.4" fill="hsl(242, 72%, 49%)" fill-opacity="0.42"    />
<path d="M 9.2 98.7 C 0.0 83.9, 39.0 7.7, 49.3 0.6 C 49.3 0.0, 26.1 34.5, 16.2 29.8 C 0.0 20.7, 100.0 26.9, 95.4 29.7 " fill="hsl(104, 72%, 65%)" fill-opacity="0.34" stroke="none" stroke-width="0.94"   />
<rect x="48.2" y="16.0" width="49.1" height="35.4" rx="0" fill="none" fill-opacity="0.80" stroke="hsl(242, 72%, 49%)" stroke-width="3.7"   />
<circle cx="24.3" cy="13.0" r="1.2" fill="hsl(242, 72%, 49%)" fill-opacity="0.74"  transform="translate(39.3 77.9) rotate(235.2) scale(1.46 0.97)" />
<circle cx="72.5" cy="10.4" r="1.7" fill="hsl(183, 71%, 60%)" fill-opacity="0.77"   />
<path d="M 77.0 23.6 C 68.5 15.9, 0.0 32.5, 8.5 41.8 C 19.3 27.5, 64.4 0.0, 53.3 5.8 C 70.4 9.4, 40.0 58.5, 36.3 72.8 C 30.2 90.7, 76.1 1.1, 65.2 4.2 Z" fill="hsl(104, 72%, 65%)" fill-opacity="0.89" stroke="none" stroke-width="1.08"   />
<rect x="38.8" y="57.1" width="41.1" height="26.3" rx="17.4" fill="hsl(290, 83%, 63%)" fill-opacity="0.54"   transform="translate(40.2 46.2) rotate(99.1) scale(1.19 1.18)" />
<rect x="40.7" y="36.3" width="22.5" height="20.5" rx="7.2" fill="hsl(183, 71%, 60%)" fill-opacity="0.70" stroke="hsl(242, 72%, 49%)" stroke-width="2.7"   />
<path d="M 67.9 73.8 C 84.4 80.1, 36.0 40.9, 43.9 37.8 C 49.2 18.6, 64.8 100.0, 60.2 99.8 C 67.7 100.0, 9.9 49.2, 18.5 53.7 C 28.9 44.9, 66.2 50.8, 64.7 52.6 C 60.4 53.1, 34.6 6.9, 32.4 16.1 C 44.3 14.4, 62.6 75.1, 62.4 78.4 C 62.3 60.3, 65.4 61.1, 74.5 46.3 " fill="hsl(151, 70%, 62%)" fill-opacity="0.37" stroke="none" stroke-width="1.05"   />
<path d="M 66.5 82.5 C 65.6 67.3, 50.6 13.2, 36.0 0.2 C 45.1 18.6, 100.0 38.9, 99.9 41.1 C 80.8 48.8, 10.7 0.5, 10.9 1.3 C 0.2 20.2, 22.0 8.7, 7.5 8.4 " fill="hsl(106, 75%, 59%)" fill-opacity="0.26" stroke="none" stroke-width="1.20"  transform="translate(49.5 91.6) rotate(308.0) scale(0.96 0.94)" />
<path d="M 53.2 86.3 C 65.5 100.0, 1.5 52.5, 7.6 49.3 C 12.4 37.6, 27.2 99.8, 39.3 99.7 C 40.9 100.0, 17.2 65.7, 12.7 51.4 C 27.1 68.9, 4.3 10.0, 13.1 23.1 C 19.4 12.3, 41.0 90.8, 52.9 91.4 C 53.8 100.0, 21.8 66.2, 19.6 53.8 " fill="none" fill-opacity="0.34" stroke="hsl(83, 65%, 44%)" stroke-width="1.22"   />
<rect x="12.1" y="41.1" width="46.6" height="15.1" rx="0" fill="none" fill-opacity="0.89"   transform="translate(0.3 68.0) rotate(232.8) scale(0.73 1.69)" />
<rect x="33.4" y="40.4" width="37.2" height="27.6" rx="17.2" fill="hsl(322, 74%, 44%)" fill-opacity="0.55" stroke="hsl(183, 71%, 60%)" stroke-width="4.4"   />
</svg>
