<?xml version="1.0" encoding="UTF-8"?>
<svg xmlns="http://www.w3.org/2000/svg" width="100" height="100" viewBox="0 0 100 100">
<defs>
<linearGradient id="g0" x1="0%" y1="0%" x2="100%" y2="100%">
<stop offset="0.0%" stop-color="hsl(106, 75%, 59%)" />
<stop offset="33.3%" stop-color="hsl(183, 71%, 60%)" />
<stop offset="66.7%" stop-color="hsl(242, 72%, 49%)" />
<stop offset="100.0%" stop-color="hsl(322, 74%, 44%)" />
</linearGradient>
<linearGradient id="g1" x1="0%" y1="0%" x2="100%" y2="100%">
<stop offset="0.0%" stop-color="hsl(290, 83%, 63%)" />
<stop offset="33.3%" stop-color="hsl(2, 82%, 55%)" />
<stop offset="66.7%" stop-color="hsl(86, 72%, 68%)" />
<stop offset="100.0%" stop-color="hsl(83, 65%, 44%)" />
</linearGradient>
<linearGradient id="g2" x1="0%" y1="0%" x2="100%" y2="100%">
<stop offset="0.0%" stop-color="hsl(40, 53%, 69%)" />
<stop offset="33.3%" stop-color="hsl(104, 72%, 65%)" />
<stop offset="66.7%" stop-color="hsl(144, 86%, 72%)" />
<stop offset="100.0%" stop-color="hsl(151, 70%, 62%)" />
</linearGradient>
<filter id="f1" x="-20%" y="-20%" width="140%" height="140%">
  <feGaussianBlur stdDeviation="1.2197534141962594" />
</filter>

</defs>

<path d="M 92.2 60.0 C 100.0 49.7, 35.7 72.8, 26.8 66.0 C 21.3 52.7, 24.8 55.2, 35.3 68.9 C 49.9 57.9, 59.6 88.3, 53.7 76.1 C 50.1 95.6, 88.7 76.3, 78.7 68.5 C 66.5 62.0, 35.2 2.6, 31.0 3.2 C 31.2 17.1, 54.2 84.6, 48.6 75.6 C 35.7 88.4, 72.6 7.8, 72.9 1.4 C 67.4 5.9, 29.6 70.8, 41.8 58.1 Z" fill="none" fill-opacity="0.97" stroke="hsl(104, 72%, 65%)" stroke-width="1.12"   />
<path d="M 14.1 63.0 C 4.5 59.5, 39.4 26.2, 33.6 38.3 C 26.0 46.4, 54.1 73.1, 59.6 81.8 C 62.2 73.6, 0.0 85.0, 0.5 71.6 C 0.0 75.0, 75.8 68.4, 76.9 62.1 C 69.4 65.7, 75.9 1.6, 65.6 4.1 C 65.5 4.7, 26.5 100.0, 34.7 89.7 C 40.0 74.1, 66.4 45.2, 57.5 51.8 Z" fill="none" fill-opacity="0.93" stroke="hsl(242, 72%, 49%)" stroke-width="1.10"   />
<circle cx="97.2" cy="55.0" r="6.0" fill="url(#g1)" fill-opacity="0.62"  transform="translate(60.0 37.5) rotate(175.0) scale(1.46 1.33)" />
<rect x="7.8" y="31.4" width="33.8" height="20.2" rx="12.0" fill="hsl(2, 82%, 55%)" fill-opacity="0.98"  filter="url(#f1)" transform="translate(11.9 58.0) rotate(171.6) scale(1.34 1.99)" />
<rect x="52.2" y="33.7" width="41.1" height="26.5" rx="0" fill="none" fill-opacity="0.73"   transform="translate(76.4 10.8) rotate(295.0) scale(1.12 1.39)" />
<rect x="17.2" y="5.3" width="33.3" height="37.4" rx="9.7" fill="none" fill-opacity="0.72"   transform="translate(56.5 90.3) rotate(292.0) scale(0.52 1.91)" />
<circle cx="37.7" cy="70.3" r="9.2" fill="url(#g0)" fill-opacity="0.51"  transform="translate(99.5 38.2) rotate(89.9) scale(1.66 1.03)" />
<rect x="68.5" y="46.7" width="24.5" height="39.0" rx="0" fill="none" fill-opacity="0.89"    />
<rect x="21.6" y="40.5" width="46.8" height="19.6" rx="9.2" fill="hsl(104, 72%, 65%)" fill-opacity="0.23" stroke="hsl(104, 72%, 65%)" stroke-width="2.2"   />
<rect x="1.5" y="59.6" width="30.8" height="16.3" rx="0" fill="hsl(144, 86%, 72%)" fill-opacity="0.57"   transform="translate(86.7 41.7) rotate(228.3) scale(1.12 1.77)" />
<circle cx="37.5" cy="79.6" r="6.2" fill="url(#g2)" fill-opacity="0.40"  transform="translate(25.6 29.0) rotate(144.3) scale(1.28 1.95)" />
<path d="M 73.8 3.2 C 63.7 4.6, 82.7 23.2, 94.4 18.8 C 96.6 20.6, 34.0 29.9, 46.3 27.1 C 36.4 9.8, 85.4 54.8, 76.0 49.6 C 83.2 69.0, 12.2 34.0, 9.3 22.3 C 0.0 28.4, 60.7 100.0, 73.9 98.4 C 72.1 89.8, 92.9 34.4, 84.8 41.3 C 72.3 39.5, 48.9 20.6, 46.6 20.9 C 30.3 28.7, 6.9 27.7, 10.1 24.0 C 8.2 16.4, 12.9 17.2, 16.6 30.4 C 12.2 18.6, 82.8 65.3, 85.1 78.8 Z" fill="none" fill-opacity="0.63" stroke="hsl(144, 86%, 72%)" stroke-width="3.26"  transform="translate(83.8 25.3) rotate(272.4) scale(1.77 0.68)" />
<circle cx="0.5" cy="72.3" r="0.9" fill="url(#g0)" fill-opacity="0.76" filter="url(#f1)" transform="translate(57.6 71.7) rotate(81.1) scale(1.66 0.71)" />
<path d="M 48.7 41.2 C 38.2 25.6, 67.1 89.4, 60.6 89.0 C 61.3 75.7, 8.0 25.0, 4.8 27.9 C 18.4 26.9, 31.7 84.7, 17.8 96.7 C 20.0 97.8, 71.1 80.6, 71.0 85.2 C 78.3 67.0, 0.0 55.5, 4.4 56.9 C 11.0 37.4, 4.4 50.8, 2.2 46.5 C 17.9 52.3, 16.9 16.2, 14.3 10.1 C 0.0 0.0, 2.6 38.2, 8.1 48.3 Z" fill="none" fill-opacity="0.81" stroke="hsl(144, 86%, 72%)" stroke-width="1.10"  transform="translate(7.5 40.6) rotate(137.1) scale(1.21 1.80)" />
<path d="M 38.3 70.7 C 45.8 77.5, 53.8 70.0, 62.5 58.6 C 81.6 65.7, 67.9 12.6, 76.3 7.7 C 79.6 13.2, 53.0 65.0, 62.5 79.5 C 45.7 67.8, 73.8 48.2, 67.9 60.3 C 67.2 58.9, 83.0 74.2, 74.8 86.1 C 85.4 70.0, 35.7 27.3, 38.6 20.1 C 23.9 13.4, 0.0 20.2, 0.9 29.4 C 0.0 30.4, 49.8 61.6, 53.6 68.8 C 54.3 71.5, 81.0 22.0, 86.9 11.8 C 74.2 0.0, 45.4 49.5, 50.1 49.9 " fill="hsl(86, 72%, 68%)" fill-opacity="0.40" stroke="none" stroke-width="1.44"  transform="translate(55.9 10.5) rotate(268.8) scale(1.39 1.25)" />
<path d="M 30.9 44.9 C 42.4 55.4, 55.5 94.6, 70.2 93.3 C 72.4 83.4, 97.8 85.2, 97.5 97.5 C 91.2 100.0, 59.0 45.3, 55.2 48.2 C 49.8 43.1, 46.0 12.2, 54.7 15.1 C 61.0 19.9, 73.7 38.6, 77.0 45.7 C 67.0 33.0, 88.7 80.8, 96.3 93.6 C 99.2 99.4, 57.8 5.7, 54.8 14.3 C 68.4 11.6, 47.8 8.0, 36.3 11.9 C 41.3 20.2, 34.2 78.1, 38.8 76.4 C 32.5 89.7, 93.9 46.4, 80.5 54.7 Z" fill="none" fill-opacity="0.68" stroke="hsl(83, 65%, 44%)" stroke-width="2.18"  transform="translate(81.7 49.6) rotate(138.0) scale(1.29 1.95)" />
<path d="M 16.6 62.7 C 7.9 54.8, 22.7 100.0, 27.7 87.4 C 20.5 100.0, 68.9 100.0, 79.1 90.7 C 60.2 87.5, 70.4 6.2, 80.8 2.2 C 80.4 17.7, 33.1 94.8, 37.8 80.4 C 48.6 71.7, 94.6 71.3, 95.7 65.4 C 99.1 51.3, 26.6 20.2, 22.0 18.4 C 32.0 10.6, 74.2 58.4, 86.1 65.0 C 100.0 72.0, 86.4 13.9, 77.5 11.6 C 70.4 0.0, 81.2 74.8, 81.0 84.9 " fill="none" fill-opacity="0.36" stroke="hsl(151, 70%, 62%)" stroke-width="4.10"  transform="translate(4.5 53.7) rotate(107.1) scale(0.87 1.83)" />
<rect x="44.7" y="71.3" width="38.3" height="22.0" rx="13.8" fill="none" fill-opacity="0.28"    />
<path d="M 76.5 33.8 C 57.6 29.0, 62.0 36.1, 74.9 36.7 C 60.3 37.9, 51.9 53.7, 58.8 44.3 C 41.9 37.0, 58.4 20.5, 52.8 8.8 C 38.7 21.7, 79.7 83.2, 90.0 78.7 C 99.8 59.2, 41.9 63.7, 48.0 74.0 C 39.5 73.9, 3.9 27.0, 6.5 33.1 " fill="none" fill-opacity="0.57" stroke="hsl(83, 65%, 44%)" stroke-width="3.94"   />
<path d="M 8.0 36.7 C 17.6 18.3, 73.0 62.9, 76.3 68.8 C 82.6 55.1, 72.2 84.3, 77.1 90.3 C 65.6 100.0, 56.0 67.0, 42.9 75.1 C 28.5 66.2, 98.8 54.0, 94.5 65.9 C 100.0 46.2, 61.8 52.5, 51.7 66.9 C 60.8 58.7, 22.8 58.7, 19.3 52.6 Z" fill="none" fill-opacity="0.82" stroke="hsl(183, 71%, 60%)" stroke-width="1.04"  transform="translate(34.3 3.0) rotate(223.9) scale(1.18 1.03)" />
<path d="M 16.1 81.4 C 26.2 69.1, 22.3 59.8, 19.3 74.3 C 0.5 60.4, 82.7 25.8, 78.6 22.0 C 62.2 7.9, 100.0 51.8, 90.8 66.6 C 86.2 66.6, 22.4 41.0, 16.7 38.3 C 2.6 56.9, 45.1 86.4, 49.8 81.4 C 44.4 68.1, 51.9 67.8, 39.5 75.1 C 50.0 62.2, 89.2 99.0, 79.6 86.9 C 97.4 88.4, 53.2 9.7, 49.4 18.5 C 54.9 11.7, 86.6 100.0, 85.2 91.9 C 72.0 89.0, 93.7 82.7, 94.8 68.5 Z" fill="hsl(106, 75%, 59%)" fill-opacity="0.44" stroke="none" stroke-width="1.98" filter="url(#f1)" transform="translate(69.4 14.8) rotate(313.1) scale(0.83 0.68)" />
<circle cx="19.1" cy="38.0" r="0.7" fill="hsl(290, 83%, 63%)" fill-opacity="0.69"  transform="translate(85.4 81.5) rotate(90.6) scale(1.37 1.28)" />
<path d="M 62.9 82.2 C 59.5 80.8, 78.9 53.5, 78.4 39.4 C 73.2 54.1, 40.0 30.9, 50.5 42.3 C 63.8 35.1, 44.8 12.0, 29.9 6.6 C 24.7 5.9, 85.3 54.4, 81.0 68.3 C 73.7 82.1, 31.1 38.9, 45.6 36.7 C 33.7 33.6, 14.8 18.7, 6.3 8.5 C 26.0 10.9, 86.2 22.4, 97.5 31.5 C 100.0 22.5, 63.6 56.5, 49.2 51.9 Z" fill="hsl(104, 72%, 65%)" fill-opacity="0.44" stroke="none" stroke-width="3.86"  transform="translate(66.5 84.4) rotate(253.8) scale(1.27 1.45)" />
<path d="M 27.4 8.4 C 12.9 0.0, 36.0 37.3, 36.7 23.0 C 27.8 11.0, 25.6 67.7, 33.7 68.3 C 34.9 69.1, 39.2 18.9, 47.3 4.7 C 36.6 0.0, 97.9 99.1, 90.4 96.5 C 100.0 84.6, 67.8 28.6, 61.8 42.9 C 75.7 29.3, 0.0 84.7, 5.0 93.7 C 24.8 100.0, 41.8 77.7, 27.1 78.4 C 31.1 97.7, 100.0 34.1, 96.1 31.4 C 99.1 17.6, 39.7 53.5, 29.7 61.6 C 48.4 53.8, 86.0 24.4, 81.8 36.5 Z" fill="none" fill-opacity="0.71" stroke="hsl(322, 74%, 44%)" stroke-width="1.97"   />
<path d="M 30.9 82.2 C 44.5 73.5, 81.9 65.6, 72.7 62.3 C 60.5 78.8, 49.6 0.0, 36.3 3.8 C 30.8 18.9, 85.2 20.8, 87.1 32.8 C 100.0 52.8, 70.8 78.8, 73.3 83.2 C 93.2 70.4, 54.8 76.7, 52.8 82.3 C 52.0 100.0, 87.2 89.9, 76.9 91.7 C 86.7 94.2, 58.4 18.2, 72.3 25.2 C 60.3 29.8, 79.0 11.4, 75.4 17.4 C 79.2 2.3, 76.0 51.1, 61.6 38.7 C 64.2 33.3, 16.7 71.5, 12.3 80.6 Z" fill="none" fill-opacity="0.97" stroke="hsl(290, 83%, 63%)" stroke-width="4.45"  transform="translate(90.0 78.2) rotate(271.9) scale(1.42 1.98)" />
<path d="M 7.6 97.6 C 0.0 82.3, 41.5 40.1, 36.9 32.0 C 23.4 42.7, 62.9 80.3, 75.6 87.7 C 83.3 68.6, 13.8 31.4, 16.5 20.5 C 7.8 17.4, 64.1 60.6, 57.8 74.7 C 76.1 72.3, 29.4 70.1, 22.6 62.4 C 26.9 52.1, 91.4 63.8, 90.4 61.5 C 88.6 58.3, 40.7 14.5, 28.4 29.4 C 20.4 39.8, 78.6 80.0, 79.8 71.9 Z" fill="none" fill-opacity="0.85" stroke="hsl(106, 75%, 59%)" stroke-width="4.56"  transform="translate(29.7 60.1) rotate(76.0) scale(1.76 1.81)" />
<path d="M 31.2 14.7 C 46.8 11.8, 20.4 90.8, 25.5 85.0 C 19.7 77.8, 16.2 6.1, 5.1 9.0 C 15.6 8.2, 85.8 4.5, 86.9 7.3 C 73.8 0.0, 84.2 12.9, 83.8 15.6 C 90.6 7.4, 79.7 57.8, 89.1 71.4 C 93.0 64.7, 40.1 0.0, 30.7 8.8 C 36.2 27.9, 34.1 23.7, 43.8 30.8 C 31.7 46.3, 71.9 14.0, 57.1 17.7 C 49.8 37.4, 48.7 73.8, 41.1 72.8 Z" fill="hsl(144, 86%, 72%)" fill-opacity="0.92" stroke="none" stroke-width="2.57"  transform="translate(74.5 85.8) rotate(198.9) scale(1.75 1.23)" />
<circle cx="76.3" cy="49.8" r="2.3" fill="hsl(151, 70%, 62%)" fill-opacity="0.53" filter="url(#f1)" transform="translate(14.2 83.0) rotate(100.3) scale(1.04 1.58)" />
<circle cx="28.2" cy="48.7" r="8.7" fill="url(#g0)" fill-opacity="0.97"  transform="translate(60.8 23.5) rotate(331.9) scale(0.96 0.83)" />
<rect x="0.3" y="28.9" width="37.4" height="32.3" rx="0" fill="none" fill-opacity="0.34" stroke="hsl(151, 70%, 62%)" stroke-width="2.9"  transform="translate(94.1 16.7) rotate(24.4) scale(0.81 1.71)" />
<rect x="62.1" y="56.2" width="37.6" height="34.2" rx="0" fill="hsl(106, 75%, 59%)" fill-opacity="0.23" stroke="hsl(322, 74%, 44%)" stroke-width="3.4"  transform="translate(93.3 8.0) rotate(42.0) scale(1.79 0.96)" />
<circle cx="54.8" cy="68.2" r="0.3" fill="url(#g2)" fill-opacity="0.54"  transform="translate(63.3 82.9) rotate(308.0) scale(1.87 1.98)" />
<path d="M 39.0 90.4 C 48.2 77.3, 60.6 68.6, 67.7 67.2 C 60.3 61.4, 42.7 24.6, 39.8 30.9 C 21.3 32.1, 99.6 44.5, 96.2 37.9 C 96.9 32.7, 79.3 30.2, 92.2 33.4 C 76.6 22.7, 35.3 40.7, 26.3 35.8 C 21.2 22.1, 24.9 39.5, 18.6 51.2 C 3.2 49.6, 0.0 24.6, 6.4 21.2 C 22.9 26.6, 45.1 68.7, 44.5 65.7 Z" fill="none" fill-opacity="0.63" stroke="hsl(151, 70%, 62%)" stroke-width="0.93"   />
<circle cx="6.9" cy="89.8" r="1.4" fill="url(#g1)" fill-opacity="0.63"  transform="translate(26.4 82.4) rotate(258.8) scale(0.73 1.37)" />
<path d="M 43.9 76.7 C 56.8 82.3, 79.7 29.4, 85.2 26.5 C 78.0 26.7, 67.8 0.0, 78.0 11.1 C 70.8 19.3, 21.7 31.9, 10.0 19.5 C 25.4 35.7, 31.4 49.4, 38.3 63.7 C 37.3 63.2, 11.7 0.0, 4.0 0.7 C 0.0 15.0, 35.7 38.4, 48.4 33.0 Z" fill="hsl(40, 53%, 69%)" fill-opacity="0.75" stroke="none" stroke-width="3.21"  transform="translate(59.2 37.4) rotate(89.3) scale(1.29 0.77)" />
<circle cx="87.9" cy="63.0" r="7.2" fill="url(#g2)" fill-opacity="0.56" filter="url(#f1)" transform="translate(78.8 88.8) rotate(259.7) scale(1.33 1.96)" />
<rect x="41.5" y="63.3" width="40.0" height="19.4" rx="2.5" fill="hsl(40, 53%, 69%)" fill-opacity="0.45"   transform="translate(37.5 52.6) rotate(58.4) scale(0.51 0.52)" />
<path d="M 79.6 23.7 C 76.6 33.8, 20.9 42.0, 11.1 47.0 C 12.1 52.5, 100.0 81.7, 88.9 85.9 C 100.0 75.5, 22.9 27.9, 34.9 16.1 C 24.1 8.2, 52.9 23.4, 51.9 32.2 C 50.2 21.7, 17.6 21.3, 21.5 19.4 C 15.5 29.2, 45.2 82.4, 36.4 69.6 C 20.2 72.9, 18.3 0.0, 10.1 0.7 C 14.1 12.9, 32.0 16.5, 38.2 30.6 C 22.1 32.7, 26.1 67.6, 36.1 62.7 C 27.2 56.4, 23.3 0.0, 35.6 0.5 Z" fill="none" fill-opacity="0.99" stroke="hsl(151, 70%, 62%)" stroke-width="1.06"  transform="translate(13.5 45.4) rotate(123.7) scale(1.32 1.39)" />
<circle cx="22.8" cy="13.5" r="5.2" fill="hsl(290, 83%, 63%)" fill-opacity="0.85"  transform="translate(64.9 60.0) rotate(217.2) scale(1.35 1.85)" />
<rect x="29.7" y="58.1" width="21.0" height="31.3" rx="13.1" fill="none" fill-opacity="0.89"   transform="translate(15.4 5.5) rotate(265.2) scale(1.76 1.06)" />
<circle cx="1.7" cy="74.6" r="17.8" fill="hsl(104, 72%, 65%)" fill-opacity="0.82"  transform="translate(95.7 31.3) rotate(186.1) scale(0.92 1.95)" />
<path d="M 31.6 8.1 C 32.8 0.0, 19.3 84.7, 21.0 88.5 C 3.3 69.1, 56.3 11.6, 64.1 0.1 C 81.7 0.0, 97.9 39.4, 87.3 31.9 C 91.6 20.3, 48.1 64.3, 33.9 64.1 C 40.2 50.6, 34.8 24.0, 20.7 29.0 C 17.1 31.0, 66.6 58.2, 64.5 55.5 C 59.4 63.5, 80.9 3.0, 84.9 10.9 Z" fill="hsl(40, 53%, 69%)" fill-opacity="0.66" stroke="none" stroke-width="4.15"  transform="translate(19.3 85.3) rotate(97.4) scale(1.25 1.25)" />
<circle cx="41.4" cy="2.0" r="6.5" fill="url(#g0)" fill-opacity="0.88"  transform="translate(67.2 26.9) rotate(118.8) scale(0.53 1.32)" />
<circle cx="68.3" cy="58.8" r="2.8" fill="url(#g2)" fill-opacity="0.93"  transform="translate(66.0 29.1) rotate(213.5) scale(1.47 1.93)" />
<rect x="45.1" y="3.0" width="46.1" height="19.5" rx="14.0" fill="none" fill-opacity="0.99"   transform="translate(24.7 3.9) rotate(205.8) scale(1.63 1.87)" />
<circle cx="39.6" cy="51.2" r="9.9" fill="url(#g2)" fill-opacity="0.90"  transform="translate(41.3 28.2) rotate(350.1) scale(1.54 0.67)" />
<path d="M 83.1 84.3 C 99.2 96.6, 57.2 79.7, 61.3 93.8 C 41.5 82.7, 29.5 75.9, 35.8 87.1 C 40.1 83.3, 75.2 74.1, 76.4 85.2 C 87.1 84.0, 13.6 68.2, 9.9 74.3 C 7.8 76.9, 0.0 0.0, 0.8 7.1 C 10.8 0.0, 31.5 76.8, 32.1 90.2 C 21.2 98.7, 29.9 13.5, 25.2 4.2 Z" fill="hsl(151, 70%, 62%)" fill-opacity="0.33" stroke="none" stroke-width="0.91"  transform="translate(76.0 13.8) rotate(198.3) scale(1.94 1.03)" />
<circle cx="90.5" cy="94.7" r="0.8" fill="hsl(40, 53%, 69%)" fill-opacity="0.65"  transform="translate(60.8 1.4) rotate(91.3) scale(1.32 1.07)" />
<path d="M 66.1 45.0 C 74.6 37.0, 31.8 51.5, 39.1 59.5 C 31.2 70.1, 64.9 64.8, 55.8 76.6 C 48.7 64.3, 65.5 46.0, 74.9 37.7 C 92.4 28.3, 35.4 78.0, 39.0 74.8 C 25.1 81.6, 80.5 60.2, 93.8 74.3 C 75.7 77.6, 36.3 35.7, 37.2 47.9 C 25.9 42.4, 73.8 2.4, 59.0 2.2 Z" fill="hsl(83, 65%, 44%)" fill-opacity="0.37" stroke="none" stroke-width="2.10"  transform="translate(19.6 14.9) rotate(358.8) scale(1.27 1.66)" />
<rect x="51.9" y="5.8" width="34.5" height="11.3" rx="2.3" fill="hsl(151, 70%, 62%)" fill-opacity="0.98" stroke="hsl(151, 70%, 62%)" stroke-width="2.7"  transform="translate(35.7 28.8) rotate(272.3) scale(1.83 1.52)" />
<path d="M 22.3 18.1 C 6.7 0.4, 52.7 30.8, 65.1 38.7 C 76.2 23.8, 73.8 75.9, 65.5 82.7 C 68.2 82.7, 0.0 85.7, 3.7 99.1 C 15.4 100.0, 91.8 38.2, 83.9 34.5 C 98.0 45.5, 56.1 57.9, 63.2 59.7 C 70.3 57.4, 8.1 76.1, 23.0 65.3 Z" fill="hsl(322, 74%, 44%)" fill-opacity="0.97" stroke="none" stroke-width="2.84"   />
<circle cx="69.4" cy="23.9" r="0.4" fill="hsl(83, 65%, 44%)" fill-opacity="0.50"  transform="translate(60.2 10.7) rotate(298.6) scale(1.56 1.44)" />
<rect x="31.8" y="21.6" width="38.9" height="25.8" rx="2.2" fill="none" fill-opacity="0.67" stroke="hsl(83, 65%, 44%)" stroke-width="3.4"   />
<rect x="18.0" y="44.9" width="35.2" height="34.7" rx="10.3" fill="hsl(322, 74%, 44%)" fill-opacity="0.51" stroke="hsl(106, 75%, 59%)" stroke-width="4.3"  transform="translate(81.0 96.4) rotate(137.2) scale(0.51 1.93)" />
<circle cx="66.9" cy="60.1" r="14.5" fill="hsl(242, 72%, 49%)" fill-opacity="0.72"   />
<rect x="21.5" y="35.0" width="36.9" height="36.7" rx="0" fill="none" fill-opacity="0.99"   transform="translate(54.7 1.4) rotate(23.7) scale(1.36 1.25)" />
<path d="M 61.7 68.7 C 60.2 82.0, 73.8 8.5, 68.1 4.7 C 70.1 24.6, 52.3 78.5, 48.6 83.5 C 56.8 68.5, 25.9 62.3, 38.2 73.9 C 46.7 57.7, 61.2 54.6, 47.6 50.6 C 66.6 53.7, 40.0 100.0, 45.4 93.3 C 27.6 85.2, 15.9 88.2, 27.7 85.9 C 39.0 92.7, 94.1 7.7, 88.0 17.1 C 90.6 10.7, 47.0 67.7, 32.5 59.6 C 31.7 68.5, 73.3 13.7, 86.4 13.0 Z" fill="none" fill-opacity="0.68" stroke="hsl(2, 82%, 55%)" stroke-width="4.24"  transform="translate(34.6 24.7) rotate(305.0) scale(1.18 1.53)" />
<circle cx="23.7" cy="58.9" r="3.3" fill="hsl(104, 72%, 65%)" fill-opacity="0.90"   />
<path d="M 43.1 72.3 C 50.7 54.5, 89.7 2.3, 96.2 5.2 C 91.8 15.1, 25.1 86.1, 23.7 96.1 C 41.8 100.0, 81.4 59.0, 90.2 61.3 C 79.8 65.7, 21.1 79.3, 24.0 80.3 C 10.1 90.8, 67.2 68.3, 69.7 57.6 C 51.0 76.0, 32.2 47.0, 29.5 49.4 C 16.2 52.3, 99.4 77.1, 93.0 80.6 Z" fill="hsl(86, 72%, 68%)" fill-opacity="0.65" stroke="none" stroke-width="1.96"  transform="translate(12.8 40.1) rotate(339.1) scale(1.59 1.27)" />
<circle cx="56.6" cy="65.2" r="15.4" fill="hsl(106, 75%, 59%)" fill-opacity="0.76"  transform="translate(6.1 87.3) rotate(233.6) scale(1.97 1.89)" />
<path d="M 0.4 27.4 C 11.3 38.9, 0.0 6.4, 10.7 6.2 C 0.0 4.7, 47.6 40.1, 47.6 42.4 C 59.5 29.5, 9.0 40.8, 7.8 51.8 C 0.0 41.9, 40.2 70.9, 43.2 64.3 C 41.6 65.7, 68.5 0.0, 79.2 0.5 C 61.7 4.7, 86.6 87.1, 98.8 82.0 Z" fill="hsl(183, 71%, 60%)" fill-opacity="0.90" stroke="none" stroke-width="4.21"  transform="translate(93.5 29.2) rotate(299.7) scale(1.98 0.78)" />
<rect x="17.4" y="27.1" width="39.8" height="24.8" rx="4.0" fill="hsl(183, 71%, 60%)" fill-opacity="0.42"   transform="translate(98.1 85.0) rotate(332.1) scale(1.41 0.90)" />
<path d="M 80.5 4.9 C 100.0 0.0, 14.0 32.3, 6.0 30.0 C 22.2 20.9, 19.1 70.4, 15.2 74.3 C 0.0 79.8, 0.0 70.0, 3.0 76.0 C 10.2 80.9, 85.1 24.5, 89.0 19.2 C 71.4 21.5, 55.5 97.7, 63.0 90.2 C 58.8 87.2, 86.2 46.2, 83.1 55.7 C 68.4 65.5, 13.1 38.1, 12.6 41.4 Z" fill="none" fill-opacity="0.69" stroke="hsl(151, 70%, 62%)" stroke-width="3.13"  transform="translate(75.4 24.4) rotate(60.0) scale(1.19 1.84)" />
<circle cx="96.2" cy="18.7" r="1.7" fill="hsl(83, 65%, 44%)" fill-opacity="0.77"  transform="translate(31.6 35.4) rotate(204.3) scale(0.63 1.61)" />
<rect x="36.3" y="23.4" width="32.9" height="30.0" rx="0" fill="hsl(290, 83%, 63%)" fill-opacity="0.37"   transform="translate(37.8 26.4) rotate(342.7) scale(0.55 1.30)" />
<path d="M 18.1 30.0 C 6.0 12.3, 39.1 34.1, 53.1 28.1 C 66.2 47.3, 61.1 43.9, 52.7 48.0 C 49.3 35.5, 47.6 80.3, 49.6 79.4 C 45.4 78.6, 33.3 84.0, 38.4 71.3 C 55.2 74.6, 0.0 72.9, 9.7 63.8 C 0.0 69.5, 24.9 0.0, 20.2 0.2 C 6.8 0.0, 69.6 29.4, 60.0 36.1 C 77.9 25.6, 15.8 4.1, 30.8 13.7 Z" fill="none" fill-opacity="0.51" stroke="hsl(322, 74%, 44%)" stroke-width="4.78"  transform="translate(32.7 95.6) rotate(45.5) scale(1.97 0.74)" />
<path d="M 39.7 57.9 C 45.6 68.9, 35.1 90.0, 34.0 91.8 C 21.2 83.8, 55.9 62.2, 70.7 64.3 C 77.4 63.8, 81.9 88.3, 86.1 85.8 C 96.3 98.6, 0.0 46.9, 6.7 35.7 C 0.0 20.2, 85.2 47.2, 76.8 32.9 C 78.2 52.2, 81.8 77.8, 67.2 69.6 C 60.2 69.7, 68.2 20.6, 83.1 35.2 C 92.7 33.7, 28.5 81.7, 23.6 77.2 C 14.4 75.7, 60.7 26.9, 45.9 14.3 Z" fill="hsl(242, 72%, 49%)" fill-opacity="0.87" stroke="none" stroke-width="4.71"   />
<circle cx="86.9" cy="92.9" r="10.8" fill="hsl(106, 75%, 59%)" fill-opacity="0.90"  transform="translate(3.6 73.5) rotate(291.8) scale(1.70 1.84)" />
<path d="M 62.2 82.9 C 45.8 96.9, 26.7 72.6, 39.7 81.9 C 24.4 92.4, 17.7 76.2, 29.6 72.4 C 17.4 73.1, 15.8 35.7, 29.2 32.9 C 37.6 15.1, 58.6 0.0, 61.2 6.9 C 61.1 0.0, 39.9 46.2, 45.1 46.3 C 45.2 55.2, 60.5 4.9, 46.5 12.2 Z" fill="hsl(40, 53%, 69%)" fill-opacity="0.82" stroke="none" stroke-width="1.73"  transform="translate(80.0 74.8) rotate(269.8) scale(1.60 1.22)" />
<circle cx="52.5" cy="56.6" r="2.1" fill="url(#g1)" fill-opacity="0.42"   />
<rect x="11.1" y="7.2" width="32.4" height="20.4" rx="0" fill="hsl(2, 82%, 55%)" fill-opacity="0.62"  filter="url(#f1)" transform="translate(15.3 85.3) rotate(103.4) scale(1.45 1.66)" />
<path d="M 45.7 46.0 C 33.8 31.8, 23.6 34.5, 29.8 32.2 C 48.8 21.3, 16.8 47.9, 15.8 46.6 C 0.8 60.0, 67.1 37.0, 57.7 33.0 C 43.7 51.8, 18.9 9.2, 4.2 14.6 C 0.0 11.1, 56.6 38.3, 67.6 42.2 C 72.4 57.1, 38.5 38.8, 31.1 29.5 Z" fill="hsl(144, 86%, 72%)" fill-opacity="0.85" stroke="none" stroke-width="0.95"  transform="translate(21.5 90.9) rotate(33.7) scale(1.80 1.78)" />
<circle cx="3.6" cy="34.6" r="18.0" fill="url(#g2)" fill-opacity="0.87"   />
<path d="M 10.5 92.7 C 20.7 99.4, 32.1 36.4, 24.5 23.6 C 23.2 43.0, 100.0 93.2, 100.0 92.2 C 100.0 84.4, 37.2 12.4, 42.4 19.4 C 45.3 5.4, 40.7 97.1, 30.3 84.4 C 23.5 96.1, 27.9 0.0, 27.8 8.1 C 41.9 27.7, 34.4 70.2, 21.1 81.6 C 26.6 69.3, 23.0 7.1, 28.8 8.8 Z" fill="none" fill-opacity="0.53" stroke="hsl(106, 75%, 59%)" stroke-width="1.16"  transform="translate(82.1 81.9) rotate(157.5) scale(0.74 1.33)" />
<rect x="39.2" y="26.0" width="26.4" height="13.4" rx="0" fill="none" fill-opacity="0.42"   transform="translate(43.3 63.5) rotate(313.9) scale(1.81 1.06)" />
<rect x="3.2" y="23.7" width="45.8" height="12.0" rx="0" fill="hsl(151, 70%, 62%)" fill-opacity="0.76"   transform="translate(11.5 26.5) rotate(341.7) scale(1.79 0.76)" />
<path d="M 65.1 56.6 C 56.1 49.4, 9.5 36.6, 14.3 30.4 C 23.0 44.7, 83.7 23.2, 91.0 22.7 C 88.0 28.4, 83.7 28.5, 80.3 21.3 C 69.6 32.9, 59.2 73.6, 54.8 66.8 C 36.7 63.9, 65.0 34.3, 67.4 29.8 C 61.9 42.3, 22.4 55.6, 34.3 68.4 C 39.8 81.4, 60.6 99.6, 75.4 98.0 C 85.7 100.0, 29.6 86.0, 40.5 90.3 Z" fill="hsl(290, 83%, 63%)" fill-opacity="0.74" stroke="none" stroke-width="0.97"  transform="translate(58.9 15.9) rotate(217.3) scale(1.81 1.35)" />
<rect x="13.1" y="36.0" width="36.7" height="28.8" rx="0" fill="hsl(106, 75%, 59%)" fill-opacity="0.84"    />
<circle cx="75.2" cy="45.0" r="5.2" fill="url(#g1)" fill-opacity="0.47"  transform="translate(88.3 16.2) rotate(322.1) scale(0.58 0.91)" />
<path d="M 73.9 81.2 C 68.9 71.5, 21.8 37.2, 8.9 40.3 C 13.2 46.2, 66.3 49.1, 71.2 46.4 C 53.1 40.0, 84.8 87.6, 98.8 99.7 C 97.0 82.3, 48.8 80.2, 37.8 78.3 C 30.6 96.2, 62.0 19.6, 56.3 11.5 C 36.8 16.4, 76.0 92.2, 75.8 88.6 C 71.7 70.0, 57.3 50.4, 70.9 37.1 C 56.3 19.9, 36.2 95.7, 32.3 86.8 C 49.3 76.1, 22.1 36.6, 14.0 50.0 Z" fill="none" fill-opacity="0.83" stroke="hsl(183, 71%, 60%)" stroke-width="5.04"  transform="translate(52.7 55.6) rotate(31.7) scale(1.40 1.47)" />
<circle cx="38.6" cy="77.8" r="3.2" fill="url(#g0)" fill-opacity="0.60"  transform="translate(72.2 31.0) rotate(47.2) scale(1.35 1.61)" />
<rect x="1.6" y="17.2" width="24.4" height="19.8" rx="0" fill="hsl(144, 86%, 72%)" fill-opacity="0.35"   transform="translate(39.4 33.5) rotate(159.1) scale(1.50 0.76)" />
<path d="M 69.1 61.6 C 57.7 76.4, 19.5 11.4, 17.0 5.1 C 33.6 12.6, 90.9 40.0, 96.3 26.9 C 86.8 7.1, 25.7 58.2, 16.5 56.3 C 28.4 60.4, 0.0 100.0, 13.1 98.4 C 9.7 100.0, 18.0 39.8, 9.9 50.2 C 14.4 34.6, 41.1 9.8, 29.5 8.9 Z" fill="hsl(40, 53%, 69%)" fill-opacity="0.84" stroke="none" stroke-width="5.20"  transform="translate(6.1 5.7) rotate(67.9) scale(1.07 0.69)" />
<path d="M 30.6 6.8 C 28.5 0.0, 17.2 88.9, 23.0 99.5 C 17.1 82.8, 74.6 60.6, 76.0 65.9 C 58.8 68.3, 48.5 26.3, 53.4 21.1 C 41.9 29.5, 0.0 37.7, 7.1 29.3 C 18.2 15.4, 37.0 71.9, 42.6 77.1 C 49.8 84.0, 70.8 78.0, 59.7 69.4 Z" fill="none" fill-opacity="0.92" stroke="hsl(40, 53%, 69%)" stroke-width="2.56"  transform="translate(51.2 26.1) rotate(322.5) scale(1.58 1.94)" />
<path d="M 36.7 35.6 C 42.9 53.6, 0.0 14.5, 6.3 4.1 C 11.5 0.0, 0.0 58.4, 4.4 45.0 C 2.7 45.3, 100.0 61.0, 97.0 59.0 C 86.5 72.4, 70.0 93.8, 61.3 81.1 C 53.9 86.8, 37.0 63.6, 25.3 77.8 C 21.5 74.8, 86.9 22.8, 76.4 21.5 Z" fill="hsl(322, 74%, 44%)" fill-opacity="0.33" stroke="none" stroke-width="4.06"  transform="translate(31.5 36.8) rotate(56.5) scale(1.77 1.59)" />
<circle cx="40.3" cy="89.4" r="3.5" fill="hsl(144, 86%, 72%)" fill-opacity="0.43" filter="url(#f1)"  />
<rect x="37.6" y="55.4" width="47.0" height="11.1" rx="0" fill="hsl(151, 70%, 62%)" fill-opacity="0.64"   transform="translate(55.0 43.7) rotate(261.6) scale(1.09 1.09)" />
<path d="M 55.4 44.6 C 44.8 53.1, 100.0 6.8, 93.4 14.8 C 75.7 11.2, 19.2 93.2, 26.8 80.9 C 29.6 62.0, 81.2 52.4, 67.9 40.9 C 67.2 52.8, 54.7 26.2, 55.8 36.1 C 53.9 44.9, 11.7 20.8, 24.6 29.2 C 5.9 48.0, 27.7 43.1, 37.0 53.7 C 41.0 54.1, 17.9 35.7, 14.8 41.4 C 21.0 39.9, 23.3 40.8, 18.3 28.1 C 15.4 21.1, 77.6 44.0, 63.7 52.3 Z" fill="hsl(2, 82%, 55%)" fill-opacity="0.50" stroke="none" stroke-width="1.03"  transform="translate(23.9 77.0) rotate(186.3) scale(1.63 1.38)" />
<g opacity="0.063">
<rect x="0" y="0" width="1" height="100" fill="black" />
<rect x="22" y="0" width="1" height="100" fill="black" />
<rect x="44" y="0" width="1" height="100" fill="black" />
<rect x="66" y="0" width="1" height="100" fill="black" />
<rect x="88" y="0" width="1" height="100" fill="black" />
<rect x="0" y="0" width="100" height="1" fill="black" />
<rect x="0" y="22" width="100" height="1" fill="black" />
<rect x="0" y="44" width="100" height="1" fill="black" />
<rect x="0" y="66" width="100" height="1" fill="black" />
<rect x="0" y="88" width="100" height="1" fill="black" />
</g>

</svg>
