<?xml version="1.0" encoding="UTF-8"?>
<svg xmlns="http://www.w3.org/2000/svg" width="100" height="100" viewBox="0 0 100 100">
<defs>
<linearGradient id="g0" x1="0%" y1="0%" x2="100%" y2="100%">
<stop offset="0.0%" stop-color="hsl(106, 75%, 59%)" />
<stop offset="33.3%" stop-color="hsl(183, 71%, 60%)" />
<stop offset="66.7%" stop-color="hsl(242, 72%, 49%)" />
<stop offset="100.0%" stop-color="hsl(322, 74%, 44%)" />
</linearGradient>
<linearGradient id="g1" x1="0%" y1="0%" x2="100%" y2="100%">
<stop offset="0.0%" stop-color="hsl(290, 83%, 63%)" />
<stop offset="33.3%" stop-color="hsl(2, 82%, 55%)" />
<stop offset="66.7%" stop-color="hsl(86, 72%, 68%)" />
<stop offset="100.0%" stop-color="hsl(83, 65%, 44%)" />
</linearGradient>
<linearGradient id="g2" x1="0%" y1="0%" x2="100%" y2="100%">
<stop offset="0.0%" stop-color="hsl(40, 53%, 69%)" />
<stop offset="33.3%" stop-color="hsl(104, 72%, 65%)" />
<stop offset="66.7%" stop-color="hsl(144, 86%, 72%)" />
<stop offset="100.0%" stop-color="hsl(151, 70%, 62%)" />
</linearGradient>
<filter id="f1" x="-20%" y="-20%" width="140%" height="140%">
  <feGaussianBlur stdDeviation="1.5502369079262233" />
</filter>

</defs>

<circle cx="47.7" cy="94.6" r="2.6" fill="url(#g1)" fill-opacity="0.89"  transform="translate(23.2 62.7) rotate(7.3) scale(0.82 1.66)" />
<rect x="28.3" y="32.1" width="23.1" height="23.4" rx="7.2" fill="hsl(2, 82%, 55%)" fill-opacity="0.80"   transform="translate(50.9 17.0) rotate(86.2) scale(1.48 0.62)" />
<path d="M 79.4 52.6 C 63.4 39.3, 83.9 65.8, 69.0 55.4 C 65.3 43.7, 46.8 89.4, 59.3 82.3 C 61.8 84.7, 0.2 16.5, 2.0 23.8 C 0.0 21.6, 78.5 84.0, 65.1 75.9 C 83.2 95.2, 3.9 28.7, 9.8 38.5 C 28.5 30.5, 92.0 24.2, 97.3 33.7 C 100.0 53.2, 11.4 24.4, 24.8 25.8 C 38.9 25.1, 30.3 69.9, 27.2 70.7 Z" fill="hsl(144, 86%, 72%)" fill-opacity="0.65" stroke="none" stroke-width="2.74" filter="url(#f1)" transform="translate(64.9 17.5) rotate(254.0) scale(1.87 1.73)" />
<circle cx="3.0" cy="78.8" r="0.7" fill="url(#g0)" fill-opacity="0.83"  transform="translate(22.9 45.9) rotate(101.3) scale(1.94 1.45)" />
<rect x="53.4" y="32.8" width="21.8" height="13.2" rx="17.7" fill="hsl(242, 72%, 49%)" fill-opacity="0.32"    />
<path d="M 61.6 35.3 C 58.1 29.2, 22.7 73.8, 24.7 59.1 C 29.5 58.8, 61.1 100.0, 66.0 95.0 C 80.8 100.0, 80.2 57.1, 65.7 55.5 C 60.3 42.0, 88.0 36.2, 84.4 26.0 C 85.7 33.2, 0.0 0.0, 0.8 10.0 C 10.8 24.9, 87.0 99.0, 72.5 95.8 C 58.3 86.5, 82.6 51.3, 79.4 54.2 Z" fill="none" fill-opacity="0.81" stroke="hsl(2, 82%, 55%)" stroke-width="2.27"  transform="translate(10.0 80.5) rotate(212.6) scale(1.66 0.93)" />
<rect x="52.0" y="40.7" width="28.8" height="25.9" rx="2.9" fill="hsl(183, 71%, 60%)" fill-opacity="0.60" stroke="hsl(183, 71%, 60%)" stroke-width="4.0"  transform="translate(91.2 92.5) rotate(122.5) scale(0.53 1.98)" />
<path d="M 73.8 73.6 C 71.1 65.4, 75.2 80.6, 61.5 93.9 C 62.2 90.2, 84.4 52.6, 90.2 62.0 C 97.9 69.4, 86.5 5.1, 85.6 5.0 C 78.0 0.0, 73.3 91.9, 76.8 87.4 C 93.3 100.0, 51.4 64.6, 37.2 60.4 C 52.4 74.2, 100.0 1.0, 94.1 7.5 C 100.0 14.3, 85.5 14.5, 93.4 18.2 C 100.0 24.0, 65.0 51.5, 64.5 61.3 C 66.9 48.0, 61.3 17.7, 52.6 28.4 C 38.2 38.1, 39.0 0.0, 34.5 2.1 Z" fill="hsl(151, 70%, 62%)" fill-opacity="0.38" stroke="none" stroke-width="4.67" filter="url(#f1)" transform="translate(14.9 75.1) rotate(332.1) scale(1.78 1.95)" />
<circle cx="19.7" cy="40.8" r="4.0" fill="url(#g1)" fill-opacity="0.71"  transform="translate(47.9 1.2) rotate(252.2) scale(1.17 1.30)" />
<rect x="52.5" y="17.4" width="27.9" height="18.5" rx="11.1" fill="none" fill-opacity="0.57"   transform="translate(96.4 56.9) rotate(43.6) scale(1.27 0.86)" />
<path d="M 6.3 95.6 C 25.7 100.0, 33.1 91.8, 33.4 79.7 C 44.6 79.8, 79.6 33.3, 70.4 42.8 C 69.7 45.8, 79.5 67.2, 84.0 55.1 C 92.4 69.0, 29.7 100.0, 33.7 95.2 C 18.3 87.4, 21.4 46.5, 13.3 48.1 C 29.8 49.3, 0.0 65.4, 4.0 66.8 C 0.0 68.7, 55.3 25.0, 59.9 17.1 C 46.3 34.7, 43.2 39.5, 34.7 47.9 C 32.4 41.0, 82.9 36.4, 84.4 31.0 C 88.3 38.5, 19.2 52.9, 20.9 57.8 Z" fill="hsl(290, 83%, 63%)" fill-opacity="0.44" stroke="none" stroke-width="1.00"  transform="translate(97.5 67.9) rotate(342.7) scale(1.26 1.63)" />
<rect x="12.7" y="34.4" width="34.1" height="29.3" rx="14.6" fill="none" fill-opacity="0.68"   transform="translate(77.8 4.2) rotate(280.8) scale(1.37 1.58)" />
<rect x="35.9" y="65.2" width="41.9" height="11.5" rx="11.9" fill="hsl(290, 83%, 63%)" fill-opacity="0.77"   transform="translate(89.2 46.0) rotate(155.1) scale(0.77 1.36)" />
<path d="M 64.4 83.5 C 79.8 64.4, 37.6 18.8, 47.8 10.6 C 66.8 30.1, 79.6 0.0, 67.1 2.2 C 67.5 0.0, 8.2 75.1, 0.3 64.1 C 0.0 51.0, 99.0 45.4, 91.5 37.6 C 88.6 24.6, 30.4 100.0, 38.1 98.9 C 54.7 90.3, 83.2 13.6, 70.0 13.4 C 66.6 15.2, 23.6 19.8, 15.2 31.2 C 33.5 42.6, 52.5 61.3, 47.1 57.1 C 29.0 69.5, 0.0 50.3, 0.4 52.2 Z" fill="hsl(242, 72%, 49%)" fill-opacity="0.56" stroke="none" stroke-width="4.94"  transform="translate(75.6 16.1) rotate(77.6) scale(0.53 1.04)" />
<circle cx="28.8" cy="88.7" r="7.8" fill="hsl(322, 74%, 44%)" fill-opacity="0.58"  transform="translate(70.2 53.6) rotate(92.7) scale(1.74 1.74)" />
<path d="M 87.4 26.1 C 85.1 41.5, 19.9 65.0, 28.0 77.7 C 18.4 97.2, 36.0 21.1, 36.9 22.4 C 43.0 30.7, 72.5 47.1, 59.8 42.9 C 72.3 50.8, 84.2 84.1, 98.4 91.1 C 100.0 86.1, 26.7 57.8, 33.3 64.5 C 48.0 45.8, 84.8 13.4, 87.8 9.2 C 85.0 8.0, 25.1 24.1, 12.0 22.9 C 2.9 6.4, 30.4 35.8, 30.9 32.8 C 34.4 13.6, 47.9 33.6, 38.6 40.8 Z" fill="hsl(86, 72%, 68%)" fill-opacity="0.46" stroke="none" stroke-width="1.17"  transform="translate(91.5 39.7) rotate(83.8) scale(0.98 1.45)" />
<circle cx="0.5" cy="58.3" r="5.3" fill="url(#g1)" fill-opacity="0.59"  transform="translate(31.0 2.7) rotate(333.8) scale(1.33 1.97)" />
<path d="M 70.9 15.4 C 88.6 9.5, 32.3 89.9, 37.3 97.1 C 51.2 79.4, 12.1 82.1, 5.3 94.2 C 0.0 87.4, 64.0 31.3, 78.6 18.3 C 90.2 14.3, 93.7 39.9, 81.5 37.6 C 74.2 52.8, 94.7 12.0, 85.3 10.2 C 66.8 20.9, 19.4 29.5, 25.8 28.3 C 30.0 11.9, 85.6 23.7, 73.7 30.0 C 67.2 46.4, 48.2 13.7, 46.8 27.9 Z" fill="none" fill-opacity="0.48" stroke="hsl(151, 70%, 62%)" stroke-width="3.72"  transform="translate(89.3 6.0) rotate(108.2) scale(1.54 0.79)" />
<path d="M 17.6 46.2 C 10.2 38.1, 9.9 65.8, 11.4 78.4 C 28.5 86.3, 17.3 59.4, 28.5 73.8 C 32.4 55.2, 16.7 37.9, 28.7 26.3 C 12.8 16.9, 60.4 9.2, 56.1 6.7 C 63.4 5.4, 65.4 16.5, 78.9 24.5 C 95.6 30.2, 35.7 61.2, 31.1 48.9 C 14.8 66.0, 3.1 49.9, 0.6 58.4 Z" fill="none" fill-opacity="0.86" stroke="hsl(151, 70%, 62%)" stroke-width="0.95"   />
<circle cx="83.2" cy="63.9" r="0.0" fill="hsl(106, 75%, 59%)" fill-opacity="0.91"  transform="translate(10.9 15.9) rotate(271.5) scale(0.93 1.37)" />
<rect x="33.8" y="54.1" width="27.9" height="34.5" rx="0" fill="none" fill-opacity="0.92"   transform="translate(10.1 39.7) rotate(124.2) scale(1.01 0.88)" />
<circle cx="45.3" cy="64.4" r="0.8" fill="hsl(2, 82%, 55%)" fill-opacity="0.49"  transform="translate(57.7 61.5) rotate(352.5) scale(1.85 1.19)" />
<path d="M 90.7 93.7 C 100.0 100.0, 31.9 72.5, 18.5 79.3 C 35.7 73.4, 78.6 63.8, 79.6 78.4 C 83.8 94.6, 100.0 35.2, 98.0 31.2 C 91.5 35.4, 15.0 59.8, 28.7 48.1 C 25.6 50.8, 64.6 52.2, 60.4 57.8 C 52.9 54.8, 82.7 37.1, 84.6 42.6 C 70.8 54.5, 24.0 42.5, 15.0 37.0 Z" fill="none" fill-opacity="0.47" stroke="hsl(144, 86%, 72%)" stroke-width="2.44"  transform="translate(55.5 84.8) rotate(161.0) scale(1.07 1.79)" />
<rect x="39.2" y="13.4" width="22.1" height="15.3" rx="0.1" fill="none" fill-opacity="0.93" stroke="hsl(242, 72%, 49%)" stroke-width="4.1"   />
<circle cx="38.4" cy="30.1" r="13.3" fill="url(#g1)" fill-opacity="0.99"  transform="translate(35.4 5.6) rotate(345.3) scale(0.58 0.51)" />
<path d="M 62.7 54.9 C 63.1 57.2, 8.7 61.8, 11.1 48.1 C 15.7 40.8, 14.5 26.0, 12.1 39.2 C 8.0 25.7, 94.3 61.3, 91.8 59.1 C 85.2 48.3, 39.5 43.4, 43.1 48.3 C 62.0 59.9, 22.7 14.6, 29.1 1.2 C 34.8 14.0, 88.7 100.0, 81.7 99.6 C 94.4 94.4, 11.0 31.0, 16.1 29.9 C 8.3 42.7, 20.0 86.1, 9.3 93.1 Z" fill="hsl(86, 72%, 68%)" fill-opacity="0.86" stroke="none" stroke-width="2.34"  transform="translate(74.9 45.3) rotate(292.8) scale(1.85 0.50)" />
<circle cx="27.5" cy="56.1" r="0.4" fill="url(#g2)" fill-opacity="0.49"  transform="translate(64.9 24.2) rotate(317.4) scale(0.73 0.90)" />
<path d="M 19.7 34.2 C 24.2 43.4, 72.2 93.8, 62.8 84.2 C 61.2 100.0, 0.0 53.9, 0.3 53.6 C 9.9 38.0, 86.4 0.0, 71.4 10.2 C 59.4 27.4, 74.4 0.0, 87.0 8.8 C 67.7 0.0, 39.8 78.9, 41.3 90.7 C 58.4 71.6, 0.0 90.5, 6.1 77.2 C 7.3 87.2, 0.0 8.9, 9.3 4.9 C 20.2 19.4, 22.9 36.0, 17.7 21.3 Z" fill="none" fill-opacity="0.57" stroke="hsl(322, 74%, 44%)" stroke-width="1.19" filter="url(#f1)" transform="translate(85.5 48.0) rotate(143.8) scale(0.55 0.83)" />
<path d="M 59.0 49.1 C 69.3 35.9, 21.1 56.4, 27.5 59.5 C 17.7 73.6, 71.9 19.1, 83.1 33.1 C 80.9 21.6, 86.6 92.0, 73.9 95.3 C 83.2 82.2, 52.4 60.0, 43.5 59.0 C 34.1 51.5, 55.5 86.8, 59.7 94.8 C 66.2 100.0, 43.9 28.0, 34.7 33.3 C 33.0 17.9, 41.0 76.9, 27.7 81.6 Z" fill="none" fill-opacity="0.32" stroke="hsl(106, 75%, 59%)" stroke-width="2.08"   />
<circle cx="97.9" cy="49.5" r="3.3" fill="hsl(183, 71%, 60%)" fill-opacity="0.40"  transform="translate(99.8 45.3) rotate(155.0) scale(1.51 1.63)" />
<circle cx="44.2" cy="24.7" r="4.2" fill="url(#g2)" fill-opacity="0.70"  transform="translate(53.3 67.0) rotate(62.9) scale(1.61 1.72)" />
<rect x="53.7" y="10.0" width="29.4" height="17.4" rx="0" fill="hsl(40, 53%, 69%)" fill-opacity="0.39"    />
<path d="M 0.8 74.3 C 4.8 61.9, 100.0 76.4, 94.8 87.8 C 100.0 100.0, 70.7 75.0, 66.1 69.6 C 77.2 52.7, 62.3 100.0, 68.2 92.3 C 67.9 94.7, 3.3 27.9, 10.3 20.2 C 7.4 12.4, 21.8 36.5, 28.0 28.5 C 40.9 12.9, 80.3 68.0, 68.5 74.6 C 51.3 82.1, 53.2 35.8, 48.9 35.6 Z" fill="none" fill-opacity="0.33" stroke="hsl(144, 86%, 72%)" stroke-width="1.39"   />
<rect x="31.7" y="79.7" width="35.2" height="11.7" rx="0" fill="none" fill-opacity="0.92" stroke="hsl(2, 82%, 55%)" stroke-width="4.4"  transform="translate(89.0 4.0) rotate(278.3) scale(0.98 0.99)" />
<path d="M 70.9 26.1 C 52.4 15.9, 48.9 43.3, 36.4 34.8 C 55.0 30.5, 71.5 35.6, 73.9 42.2 C 89.1 36.5, 92.8 100.0, 94.3 96.0 C 100.0 88.1, 96.1 82.2, 93.6 86.4 C 83.0 97.9, 35.3 90.6, 44.8 89.2 C 34.6 87.3, 56.7 52.4, 47.8 57.1 C 57.3 51.1, 91.8 51.8, 96.4 43.1 C 80.5 62.0, 0.0 68.1, 3.5 82.6 Z" fill="none" fill-opacity="0.77" stroke="hsl(2, 82%, 55%)" stroke-width="4.44" filter="url(#f1)"  />
<rect x="39.6" y="49.6" width="31.6" height="38.6" rx="5.1" fill="hsl(40, 53%, 69%)" fill-opacity="0.26"   transform="translate(56.2 79.4) rotate(198.8) scale(1.21 1.68)" />
<path d="M 47.3 72.7 C 60.6 87.8, 81.9 79.4, 76.9 84.4 C 58.1 74.2, 29.0 43.4, 24.2 54.5 C 14.0 40.0, 49.6 34.0, 54.0 32.0 C 42.5 13.3, 27.1 33.7, 14.2 26.3 C 25.9 31.9, 61.8 40.5, 54.7 43.5 C 40.4 58.0, 49.5 13.2, 38.4 5.9 C 43.8 14.6, 61.5 66.0, 59.3 73.3 Z" fill="none" fill-opacity="0.37" stroke="hsl(40, 53%, 69%)" stroke-width="1.37"  transform="translate(13.2 42.7) rotate(165.6) scale(1.45 1.36)" />
<path d="M 16.8 8.3 C 2.6 10.2, 66.1 42.7, 71.5 54.6 C 91.3 56.4, 73.3 65.1, 61.5 78.6 C 74.6 67.7, 6.1 67.2, 18.7 66.1 C 20.3 65.5, 78.2 61.1, 83.5 54.8 C 84.9 43.3, 75.9 48.5, 64.1 45.0 C 47.6 44.1, 0.0 37.0, 7.7 49.8 C 0.0 67.2, 10.5 0.0, 2.8 8.6 C 0.0 0.0, 47.8 76.3, 32.9 77.1 C 21.0 68.0, 84.5 38.0, 73.2 50.0 Z" fill="hsl(322, 74%, 44%)" fill-opacity="0.44" stroke="none" stroke-width="2.42"  transform="translate(13.9 62.7) rotate(103.6) scale(1.87 1.27)" />
<path d="M 57.3 53.3 C 38.6 48.9, 7.0 61.0, 16.4 52.6 C 19.6 61.0, 30.3 50.2, 30.5 43.4 C 35.3 25.1, 87.9 74.3, 76.2 74.4 C 62.8 82.2, 52.5 49.8, 54.9 63.0 C 72.9 73.8, 63.7 58.6, 63.3 61.9 C 67.0 71.1, 58.3 37.4, 61.7 34.9 C 50.4 42.0, 63.5 0.0, 75.6 4.8 C 67.1 17.2, 89.4 21.9, 76.1 31.5 Z" fill="none" fill-opacity="0.60" stroke="hsl(290, 83%, 63%)" stroke-width="2.61"  transform="translate(77.4 54.9) rotate(237.6) scale(1.16 0.71)" />
<circle cx="68.7" cy="89.7" r="0.9" fill="hsl(183, 71%, 60%)" fill-opacity="0.42"  transform="translate(46.4 44.2) rotate(217.5) scale(1.73 1.11)" />
<circle cx="96.9" cy="37.3" r="2.5" fill="url(#g0)" fill-opacity="0.52"  transform="translate(83.0 24.6) rotate(219.5) scale(1.01 1.01)" />
<circle cx="77.6" cy="53.1" r="3.2" fill="hsl(106, 75%, 59%)" fill-opacity="0.70"  transform="translate(7.4 13.2) rotate(101.9) scale(1.81 1.18)" />
<path d="M 89.3 17.7 C 91.2 37.0, 48.9 30.8, 35.3 26.1 C 28.7 12.2, 78.9 23.1, 86.0 36.9 C 100.0 29.3, 26.4 20.2, 28.5 29.1 C 37.7 28.2, 50.2 61.8, 45.3 71.2 C 47.4 83.7, 80.2 64.8, 72.2 63.0 C 56.9 70.9, 37.6 97.8, 35.8 88.7 C 31.0 88.4, 33.9 39.0, 36.5 51.3 Z" fill="hsl(144, 86%, 72%)" fill-opacity="0.41" stroke="none" stroke-width="1.11"  transform="translate(59.3 14.1) rotate(148.4) scale(1.33 1.89)" />
<path d="M 39.3 83.0 C 51.8 95.1, 62.9 14.5, 52.7 10.2 C 57.1 27.3, 55.9 0.0, 49.7 4.0 C 67.6 0.0, 74.0 30.0, 60.1 27.9 C 41.0 21.3, 27.5 79.6, 29.0 66.3 C 30.5 60.4, 66.3 69.3, 72.3 79.5 C 90.4 72.0, 79.4 67.6, 81.9 73.1 C 78.9 59.3, 93.1 50.2, 90.7 37.5 C 75.9 55.0, 31.9 39.7, 35.5 42.4 C 36.5 41.8, 24.5 35.2, 38.0 26.5 C 34.1 20.1, 0.0 59.5, 0.9 65.0 Z" fill="none" fill-opacity="0.30" stroke="hsl(242, 72%, 49%)" stroke-width="3.08"  transform="translate(21.4 6.1) rotate(93.8) scale(0.83 1.73)" />
<rect x="52.2" y="20.5" width="37.0" height="33.9" rx="10.8" fill="hsl(2, 82%, 55%)" fill-opacity="0.39"   transform="translate(78.4 67.6) rotate(24.8) scale(1.32 1.03)" />
<path d="M 48.1 65.1 C 37.6 60.8, 91.0 21.9, 85.2 14.9 C 100.0 17.9, 54.4 46.9, 56.5 33.7 C 65.8 49.6, 66.3 100.0, 79.6 95.0 C 66.9 75.8, 51.7 73.2, 37.1 69.9 C 56.4 75.6, 83.6 74.6, 75.3 71.0 C 73.3 89.1, 60.2 69.8, 57.7 63.5 C 63.7 83.0, 48.4 92.7, 53.8 98.0 C 38.5 81.0, 47.0 18.7, 48.1 15.3 Z" fill="hsl(242, 72%, 49%)" fill-opacity="0.34" stroke="none" stroke-width="3.53"   />
<rect x="46.6" y="14.5" width="25.8" height="29.1" rx="6.8" fill="none" fill-opacity="1.00"   transform="translate(74.5 73.7) rotate(146.7) scale(1.71 1.33)" />
<rect x="60.9" y="41.9" width="26.7" height="38.1" rx="0" fill="hsl(106, 75%, 59%)" fill-opacity="0.96"    />
<circle cx="11.6" cy="50.1" r="4.7" fill="url(#g0)" fill-opacity="0.74"  transform="translate(22.1 84.9) rotate(203.9) scale(0.66 1.85)" />
<circle cx="34.4" cy="43.3" r="2.8" fill="hsl(144, 86%, 72%)" fill-opacity="0.53" filter="url(#f1)" transform="translate(96.3 25.9) rotate(88.9) scale(0.59 1.04)" />
<path d="M 12.5 14.3 C 14.7 0.0, 57.1 53.2, 51.2 58.4 C 56.2 39.4, 62.1 56.2, 51.4 66.4 C 56.6 75.3, 100.0 21.6, 95.7 6.7 C 100.0 18.7, 22.8 78.7, 26.3 76.6 C 17.1 73.2, 98.8 31.9, 96.9 41.2 C 81.6 46.3, 7.2 16.2, 0.0 25.7 Z" fill="hsl(183, 71%, 60%)" fill-opacity="0.74" stroke="none" stroke-width="4.57"  transform="translate(8.2 64.6) rotate(334.9) scale(1.89 1.42)" />
<rect x="18.4" y="0.6" width="22.4" height="15.0" rx="0" fill="hsl(151, 70%, 62%)" fill-opacity="0.67"   transform="translate(33.9 75.6) rotate(26.2) scale(1.03 1.65)" />
<rect x="37.0" y="8.8" width="25.2" height="39.6" rx="0" fill="hsl(86, 72%, 68%)" fill-opacity="0.95"  filter="url(#f1)" transform="translate(20.2 5.8) rotate(10.0) scale(0.83 1.59)" />
<path d="M 8.5 84.4 C 0.0 99.9, 15.2 52.2, 0.4 60.7 C 5.4 78.7, 97.0 94.4, 94.1 98.8 C 88.9 100.0, 18.5 76.6, 25.3 80.5 C 42.9 97.1, 74.1 44.2, 64.0 58.4 C 77.5 66.6, 96.0 12.5, 83.7 3.3 C 100.0 3.6, 21.3 71.8, 13.1 57.8 C 0.0 42.3, 76.0 30.6, 66.4 25.1 C 53.5 18.8, 40.2 68.1, 33.6 78.1 C 47.6 93.5, 37.0 95.9, 48.6 87.7 C 51.5 100.0, 75.6 34.4, 69.2 37.9 Z" fill="hsl(106, 75%, 59%)" fill-opacity="0.41" stroke="none" stroke-width="2.88"  transform="translate(78.0 46.1) rotate(254.0) scale(0.55 0.56)" />
<rect x="27.8" y="38.0" width="42.4" height="22.1" rx="2.8" fill="hsl(104, 72%, 65%)" fill-opacity="0.68"   transform="translate(30.3 50.4) rotate(278.5) scale(1.96 1.00)" />
<path d="M 12.5 38.0 C 18.4 23.5, 27.5 37.7, 35.3 39.3 C 21.9 54.3, 48.8 51.7, 39.0 49.2 C 26.7 38.4, 50.7 84.6, 36.6 84.2 C 46.2 65.9, 0.8 42.6, 9.5 37.6 C 8.3 47.0, 56.2 51.5, 68.3 56.5 C 64.2 57.8, 45.1 84.1, 35.4 70.4 Z" fill="hsl(290, 83%, 63%)" fill-opacity="0.34" stroke="none" stroke-width="2.85"  transform="translate(21.6 27.1) rotate(44.3) scale(1.40 1.79)" />
<path d="M 78.7 61.9 C 72.0 62.4, 23.1 47.9, 29.7 55.1 C 23.5 42.0, 68.9 56.7, 83.0 43.4 C 67.2 37.8, 23.7 32.5, 9.1 20.9 C 0.0 23.2, 31.2 52.5, 30.2 66.2 C 44.6 81.3, 49.4 75.5, 54.6 83.3 C 44.4 96.2, 6.6 3.2, 10.5 16.4 Z" fill="hsl(183, 71%, 60%)" fill-opacity="0.97" stroke="none" stroke-width="1.62"   />
<rect x="8.8" y="16.8" width="28.8" height="21.8" rx="0" fill="hsl(144, 86%, 72%)" fill-opacity="0.36"   transform="translate(12.1 79.8) rotate(94.8) scale(1.20 0.57)" />
<path d="M 76.6 30.5 C 86.0 15.5, 34.7 48.2, 45.0 44.5 C 58.3 28.6, 82.4 13.9, 91.1 24.3 C 97.3 17.2, 31.6 46.2, 44.5 41.0 C 61.0 26.1, 7.7 92.9, 10.2 91.9 C 7.4 76.9, 17.5 58.7, 11.5 64.5 C 0.0 51.6, 85.6 54.3, 97.8 57.4 Z" fill="hsl(322, 74%, 44%)" fill-opacity="0.26" stroke="none" stroke-width="1.86"  transform="translate(66.7 0.5) rotate(183.6) scale(1.24 1.37)" />
<rect x="0.5" y="51.8" width="48.3" height="32.2" rx="0" fill="none" fill-opacity="0.76" stroke="hsl(106, 75%, 59%)" stroke-width="3.9"  transform="translate(46.0 66.4) rotate(112.9) scale(1.12 0.67)" />
<path d="M 36.9 1.5 C 51.7 15.0, 31.1 60.0, 34.8 65.8 C 25.5 51.6, 26.8 97.9, 20.0 87.4 C 19.4 97.8, 53.9 57.1, 58.3 59.6 C 53.7 64.0, 65.7 48.1, 65.4 48.1 C 81.8 45.8, 0.8 93.8, 7.3 97.2 C 17.7 100.0, 7.0 61.2, 11.1 61.1 C 13.7 54.7, 82.2 47.1, 96.5 51.6 C 100.0 36.4, 37.9 12.5, 34.0 16.6 Z" fill="hsl(242, 72%, 49%)" fill-opacity="0.29" stroke="none" stroke-width="4.04"  transform="translate(26.1 60.5) rotate(253.2) scale(1.70 0.81)" />
<path d="M 99.8 70.8 C 100.0 74.4, 93.9 38.1, 84.6 53.0 C 81.5 47.5, 45.8 87.7, 60.1 95.7 C 76.3 100.0, 90.7 9.0, 87.1 5.4 C 99.6 19.3, 22.7 51.9, 37.1 65.3 C 38.9 77.9, 94.8 37.8, 90.3 39.1 C 95.6 45.9, 77.1 44.1, 77.1 47.7 C 87.7 33.0, 9.7 90.7, 16.6 97.8 C 14.2 100.0, 41.1 14.2, 38.8 6.6 C 27.4 17.2, 100.0 21.8, 89.6 15.0 Z" fill="none" fill-opacity="0.94" stroke="hsl(322, 74%, 44%)" stroke-width="4.10"  transform="translate(90.7 46.4) rotate(193.9) scale(1.98 1.19)" />
<path d="M 29.2 5.3 C 26.3 13.8, 50.6 54.7, 40.0 45.9 C 46.5 31.7, 13.1 2.6, 26.2 12.6 C 42.0 22.1, 58.6 20.6, 45.4 21.9 C 43.4 28.2, 100.0 98.9, 91.6 83.9 C 83.4 86.4, 26.3 10.5, 34.4 20.6 C 31.0 15.0, 46.6 18.9, 39.0 31.2 C 35.7 18.4, 47.0 26.6, 36.5 20.4 Z" fill="hsl(40, 53%, 69%)" fill-opacity="0.42" stroke="none" stroke-width="3.68"  transform="translate(25.1 22.6) rotate(233.1) scale(1.55 0.71)" />
<rect x="18.1" y="37.1" width="33.9" height="27.2" rx="0" fill="none" fill-opacity="0.41"   transform="translate(73.8 54.2) rotate(247.8) scale(1.40 1.58)" />
<rect x="11.2" y="58.5" width="27.4" height="37.7" rx="2.3" fill="hsl(86, 72%, 68%)" fill-opacity="0.22" stroke="hsl(83, 65%, 44%)" stroke-width="4.6"  transform="translate(39.9 61.6) rotate(119.2) scale(1.67 1.62)" />
<circle cx="3.5" cy="3.8" r="4.8" fill="url(#g1)" fill-opacity="0.72"   />
<circle cx="85.7" cy="16.7" r="2.5" fill="url(#g0)" fill-opacity="0.85"  transform="translate(41.4 63.2) rotate(191.5) scale(0.65 0.64)" />
<rect x="64.3" y="5.4" width="21.4" height="21.2" rx="15.1" fill="none" fill-opacity="0.90"  filter="url(#f1)" transform="translate(42.2 23.0) rotate(28.8) scale(1.16 1.94)" />
<path d="M 77.9 78.0 C 58.9 80.2, 64.9 92.4, 68.6 92.7 C 86.6 75.4, 37.3 7.8, 50.8 15.6 C 50.9 8.4, 100.0 100.0, 97.7 93.7 C 85.1 100.0, 45.6 60.2, 59.6 47.7 C 65.0 36.6, 30.3 2.7, 34.0 14.2 C 30.9 27.4, 82.4 21.2, 84.8 24.0 C 79.7 11.0, 59.5 84.7, 50.4 99.3 C 57.9 95.2, 61.6 36.5, 65.7 40.6 C 78.1 58.8, 94.4 73.9, 91.3 78.5 Z" fill="hsl(183, 71%, 60%)" fill-opacity="0.90" stroke="none" stroke-width="1.35"  transform="translate(2.4 59.9) rotate(281.0) scale(1.55 1.18)" />
<path d="M 56.9 42.4 C 65.1 34.0, 25.5 36.7, 17.9 27.1 C 25.1 45.3, 44.0 1.4, 36.4 9.5 C 37.6 12.2, 66.0 0.0, 60.2 5.8 C 55.0 0.0, 100.0 34.5, 98.1 46.3 C 100.0 52.0, 79.3 19.1, 64.6 22.7 C 78.7 27.8, 0.0 13.5, 2.0 12.9 C 0.0 22.2, 9.5 34.2, 17.2 37.6 C 30.9 52.8, 57.6 7.0, 62.8 10.3 C 54.7 17.8, 59.3 86.9, 53.8 88.2 C 56.5 73.2, 20.7 66.5, 13.4 73.0 Z" fill="hsl(322, 74%, 44%)" fill-opacity="0.90" stroke="none" stroke-width="4.85"  transform="translate(99.8 35.9) rotate(4.0) scale(1.98 1.38)" />
<path d="M 97.3 11.3 C 80.7 18.9, 100.0 47.4, 89.0 43.0 C 76.3 32.0, 29.6 15.6, 35.7 11.3 C 26.9 9.7, 22.7 32.8, 32.4 42.0 C 28.5 56.1, 18.7 83.5, 27.6 87.4 C 17.0 83.5, 100.0 77.7, 92.8 87.4 C 100.0 77.6, 48.4 42.2, 46.0 45.9 C 60.9 35.6, 46.5 9.1, 34.6 15.4 C 43.5 21.6, 70.0 59.3, 58.1 68.3 C 50.1 58.7, 53.6 90.2, 61.9 96.6 Z" fill="hsl(104, 72%, 65%)" fill-opacity="0.40" stroke="none" stroke-width="2.32"   />
<path d="M 84.8 28.1 C 87.8 36.9, 18.0 62.9, 32.9 65.6 C 42.3 59.6, 19.7 31.6, 12.8 28.8 C 0.6 34.5, 0.0 73.0, 5.1 70.6 C 6.2 61.5, 75.6 42.9, 78.8 52.2 C 87.8 51.9, 24.8 82.4, 27.9 94.7 C 39.7 81.4, 46.5 68.5, 34.8 76.3 Z" fill="hsl(83, 65%, 44%)" fill-opacity="0.52" stroke="none" stroke-width="4.18"  transform="translate(43.8 66.6) rotate(88.9) scale(1.63 0.91)" />
<path d="M 59.9 55.2 C 60.6 51.3, 47.5 82.2, 41.5 91.2 C 42.7 97.1, 45.6 85.6, 45.9 77.1 C 60.8 87.0, 22.2 66.2, 35.0 75.7 C 42.6 56.0, 20.9 71.0, 23.6 59.9 C 19.4 67.1, 100.0 90.4, 92.5 95.1 C 84.0 99.4, 6.6 96.7, 0.5 89.8 C 0.0 75.6, 22.9 75.5, 30.2 80.7 C 40.0 83.8, 44.4 7.8, 43.7 9.0 C 49.9 28.7, 91.1 91.7, 89.7 85.4 C 83.3 95.5, 15.9 8.2, 23.6 13.4 Z" fill="hsl(151, 70%, 62%)" fill-opacity="0.32" stroke="none" stroke-width="3.72"  transform="translate(93.0 20.5) rotate(343.0) scale(1.73 0.60)" />
<path d="M 75.1 51.8 C 91.7 61.6, 36.3 51.8, 41.6 58.3 C 42.3 62.8, 27.1 21.6, 18.6 9.5 C 21.5 17.4, 100.0 15.1, 98.6 3.7 C 79.5 0.0, 93.4 50.9, 84.1 39.3 C 96.7 44.1, 40.6 69.3, 29.5 56.9 C 20.9 61.9, 28.1 27.4, 31.1 22.3 C 44.1 15.9, 0.0 14.6, 0.5 26.6 C 14.3 19.2, 77.3 63.6, 84.4 56.9 C 100.0 63.0, 81.5 9.5, 77.3 14.8 " fill="hsl(144, 86%, 72%)" fill-opacity="0.61" stroke="none" stroke-width="3.85"  transform="translate(27.1 47.7) rotate(97.5) scale(1.92 1.19)" />
<path d="M 46.9 38.3 C 52.8 46.8, 29.5 0.0, 43.2 8.2 C 61.9 0.0, 85.2 88.8, 86.3 76.7 C 93.2 62.6, 95.0 95.2, 98.3 83.4 C 80.0 76.1, 25.7 30.6, 29.3 22.2 C 30.7 16.6, 81.8 39.1, 85.5 42.4 C 88.9 49.3, 48.3 88.8, 45.9 97.1 Z" fill="hsl(83, 65%, 44%)" fill-opacity="0.39" stroke="none" stroke-width="1.88"  transform="translate(48.7 37.2) rotate(313.7) scale(0.71 1.52)" />
<path d="M 47.9 65.2 C 47.0 82.8, 23.7 32.9, 18.1 22.4 C 34.2 38.7, 84.9 30.7, 89.0 31.6 C 86.3 50.8, 54.8 2.1, 50.2 3.3 C 58.6 0.0, 16.1 35.2, 1.9 42.8 C 0.0 47.5, 27.8 62.2, 30.0 72.5 C 44.6 53.5, 20.8 52.9, 8.9 44.6 C 0.0 35.1, 15.2 54.0, 28.9 65.3 C 40.3 76.1, 88.2 65.0, 85.0 61.0 C 81.3 69.4, 57.1 41.6, 52.3 52.4 C 49.8 61.1, 50.7 37.9, 62.5 47.4 Z" fill="none" fill-opacity="0.56" stroke="hsl(151, 70%, 62%)" stroke-width="3.65"  transform="translate(34.2 75.1) rotate(146.6) scale(1.97 1.84)" />
<path d="M 90.9 74.7 C 71.4 93.5, 60.5 82.6, 68.1 84.9 C 70.9 68.5, 39.3 25.2, 31.2 35.1 C 42.2 30.5, 0.0 42.1, 3.4 35.0 C 4.6 49.5, 85.3 2.7, 86.8 17.0 C 69.9 36.5, 64.9 82.4, 56.9 88.6 C 57.7 100.0, 66.8 40.3, 71.9 26.0 Z" fill="none" fill-opacity="0.74" stroke="hsl(144, 86%, 72%)" stroke-width="3.13"  transform="translate(25.4 17.3) rotate(53.6) scale(1.48 1.70)" />
<path d="M 53.0 11.0 C 43.0 0.0, 19.2 54.1, 21.1 40.9 C 37.3 39.2, 79.2 15.7, 65.8 29.2 C 73.1 13.0, 91.2 78.8, 91.9 90.3 C 100.0 87.8, 54.8 27.1, 64.9 29.2 C 48.4 28.4, 81.4 50.9, 77.4 40.8 C 62.9 55.1, 89.8 89.1, 80.3 80.6 C 68.7 99.8, 73.7 78.5, 83.0 68.1 C 97.3 62.4, 77.1 77.8, 79.9 69.8 C 71.1 54.4, 68.2 38.2, 63.1 47.8 " fill="hsl(151, 70%, 62%)" fill-opacity="0.79" stroke="none" stroke-width="3.92"  transform="translate(48.5 75.6) rotate(110.5) scale(0.60 1.14)" />
<rect x="43.4" y="41.8" width="34.2" height="20.2" rx="0" fill="hsl(322, 74%, 44%)" fill-opacity="0.28"   transform="translate(49.7 5.6) rotate(188.2) scale(1.50 1.84)" />
<path d="M 61.2 65.9 C 73.7 75.6, 78.4 18.5, 70.9 21.4 C 68.8 24.4, 34.5 28.7, 26.4 24.0 C 23.8 12.5, 1.0 83.3, 0.7 75.9 C 7.6 56.5, 0.0 78.3, 7.3 76.7 C 25.7 70.6, 9.2 3.9, 10.4 6.7 C 3.7 25.4, 71.1 0.0, 79.5 0.8 C 80.2 0.0, 68.7 100.0, 65.3 92.3 C 83.2 79.4, 61.3 39.7, 52.2 51.1 C 51.5 45.2, 88.2 94.5, 91.0 94.2 C 87.5 74.8, 74.3 16.6, 79.5 18.6 Z" fill="hsl(106, 75%, 59%)" fill-opacity="0.52" stroke="none" stroke-width="4.60"  transform="translate(25.0 96.9) rotate(66.3) scale(1.95 1.08)" />
<rect x="17.0" y="46.1" width="35.8" height="38.8" rx="1.1" fill="none" fill-opacity="0.90" stroke="hsl(183, 71%, 60%)" stroke-width="4.1"  transform="translate(3.5 56.0) rotate(254.7) scale(0.67 1.68)" />
<circle cx="60.3" cy="48.4" r="3.5" fill="url(#g0)" fill-opacity="0.72"  transform="translate(86.4 98.0) rotate(12.9) scale(0.99 1.01)" />
<path d="M 58.0 81.7 C 58.2 100.0, 61.4 100.0, 57.8 92.6 C 68.4 100.0, 4.7 9.6, 2.7 3.9 C 0.0 16.9, 9.8 62.7, 7.0 69.6 C 14.6 74.9, 82.0 7.4, 87.3 17.3 C 80.0 27.0, 79.0 0.0, 67.8 4.7 C 74.7 23.7, 64.3 48.0, 64.8 43.5 C 81.3 57.1, 25.8 68.9, 26.6 72.2 C 18.9 81.1, 84.4 40.6, 98.6 48.6 C 100.0 68.6, 0.0 50.2, 7.4 64.9 Z" fill="hsl(106, 75%, 59%)" fill-opacity="0.36" stroke="none" stroke-width="2.33" filter="url(#f1)"  />
<path d="M 85.6 59.0 C 96.9 57.8, 85.8 45.4, 97.0 56.8 C 94.9 55.0, 45.8 82.3, 58.5 79.5 C 68.7 96.9, 69.9 15.1, 67.4 28.1 C 58.3 31.7, 0.0 61.8, 5.7 62.4 C 0.0 57.2, 67.9 87.7, 69.3 96.7 C 54.8 86.2, 65.9 17.0, 68.8 27.6 C 79.6 46.3, 0.0 22.7, 8.4 26.6 C 26.4 39.0, 62.2 34.0, 66.3 28.1 C 54.8 29.8, 77.2 68.6, 87.0 57.8 C 77.5 51.0, 50.1 16.9, 45.3 3.0 Z" fill="hsl(183, 71%, 60%)" fill-opacity="0.44" stroke="none" stroke-width="3.74"  transform="translate(5.5 89.0) rotate(50.7) scale(0.62 1.97)" />
<path d="M 34.2 88.4 C 51.1 78.1, 23.7 32.3, 12.9 39.6 C 0.0 29.4, 24.4 17.7, 34.0 3.9 C 29.5 19.8, 63.5 16.1, 50.8 27.4 C 53.9 41.0, 62.6 11.5, 54.8 0.7 C 42.9 2.9, 17.9 87.0, 11.9 77.6 C 12.9 57.9, 13.9 86.7, 28.6 99.5 C 42.1 97.5, 40.8 34.6, 26.1 45.5 C 12.5 30.9, 2.5 70.3, 14.6 79.3 C 13.8 96.6, 26.9 81.3, 41.3 83.6 Z" fill="none" fill-opacity="0.36" stroke="hsl(322, 74%, 44%)" stroke-width="1.68"  transform="translate(65.9 88.0) rotate(204.9) scale(1.85 0.69)" />
<circle cx="79.6" cy="83.9" r="8.0" fill="hsl(290, 83%, 63%)" fill-opacity="0.55"  transform="translate(57.9 71.7) rotate(277.6) scale(1.90 1.32)" />
<path d="M 42.1 3.6 C 38.3 13.8, 72.8 32.1, 76.6 20.4 C 81.3 21.7, 20.8 50.3, 13.0 53.4 C 8.3 56.8, 8.9 59.8, 21.8 58.6 C 22.2 39.9, 41.9 8.9, 50.9 21.8 C 61.5 13.5, 49.8 15.5, 62.4 21.3 C 54.3 7.3, 73.8 47.7, 64.7 52.0 C 68.3 65.6, 10.8 76.8, 18.6 82.8 C 20.8 66.7, 42.7 71.5, 54.3 79.7 Z" fill="hsl(40, 53%, 69%)" fill-opacity="0.61" stroke="none" stroke-width="3.05"  transform="translate(70.1 68.4) rotate(86.6) scale(1.63 1.15)" />
<path d="M 92.8 89.8 C 74.2 89.5, 68.3 58.2, 55.0 61.4 C 68.5 64.3, 0.0 32.4, 0.1 30.6 C 7.4 40.3, 73.2 4.9, 67.6 14.2 C 50.3 32.7, 27.2 8.6, 36.0 3.4 C 36.7 13.3, 26.4 20.8, 12.6 23.1 C 5.0 16.9, 63.0 12.3, 65.5 8.1 C 68.2 14.5, 66.9 23.2, 81.6 23.9 C 82.3 6.4, 99.7 0.0, 97.4 12.3 Z" fill="hsl(183, 71%, 60%)" fill-opacity="0.27" stroke="none" stroke-width="2.90" filter="url(#f1)" transform="translate(56.0 0.5) rotate(110.6) scale(1.63 1.28)" />
<path d="M 72.2 72.1 C 72.9 76.2, 56.2 32.2, 60.3 20.4 C 41.4 32.2, 5.0 28.2, 6.1 31.0 C 0.9 21.5, 2.1 63.7, 13.5 51.4 C 19.7 42.7, 0.0 71.9, 7.2 70.0 C 0.0 73.6, 0.0 46.1, 12.7 33.6 C 20.9 28.3, 32.6 19.4, 33.1 9.5 C 45.0 25.1, 74.6 77.6, 87.3 67.4 C 70.2 52.8, 42.3 100.0, 51.5 95.7 Z" fill="hsl(242, 72%, 49%)" fill-opacity="0.78" stroke="none" stroke-width="2.16"   />
<circle cx="74.3" cy="25.7" r="0.6" fill="hsl(151, 70%, 62%)" fill-opacity="0.61"  transform="translate(72.4 91.4) rotate(342.5) scale(0.70 0.66)" />
<path d="M 2.4 31.9 C 2.2 50.3, 47.5 98.5, 52.9 89.1 C 39.4 77.6, 76.1 17.1, 61.8 18.5 C 59.9 24.2, 26.9 41.6, 28.9 26.8 C 26.5 29.5, 40.8 31.9, 26.0 24.0 C 43.2 22.3, 28.6 68.0, 37.2 62.6 C 27.9 81.4, 71.1 92.3, 65.1 80.8 C 72.0 95.8, 71.8 26.9, 79.0 17.4 C 88.4 0.0, 1.0 14.1, 8.8 9.5 C 0.0 4.0, 41.6 66.6, 37.3 79.6 C 38.9 90.7, 48.3 64.6, 52.4 65.8 Z" fill="none" fill-opacity="0.63" stroke="hsl(151, 70%, 62%)" stroke-width="0.93"  transform="translate(6.5 23.5) rotate(358.6) scale(0.91 0.95)" />
<path d="M 19.7 62.8 C 17.3 66.6, 35.1 63.5, 22.7 65.0 C 7.4 45.0, 5.2 0.8, 12.6 1.4 C 23.3 0.0, 75.8 32.8, 75.1 27.1 C 69.9 40.3, 68.7 2.7, 66.8 6.2 C 48.4 0.0, 87.9 0.0, 89.1 3.3 C 81.8 10.1, 94.1 17.8, 79.4 20.9 C 64.1 6.8, 18.4 64.6, 5.0 60.0 Z" fill="hsl(183, 71%, 60%)" fill-opacity="0.95" stroke="none" stroke-width="0.92"  transform="translate(61.5 77.2) rotate(54.7) scale(0.87 1.94)" />
<path d="M 11.1 51.2 C 20.9 33.1, 25.4 59.6, 25.3 62.1 C 10.3 47.8, 55.0 77.5, 62.1 87.7 C 64.6 100.0, 25.2 43.6, 23.7 53.6 C 27.3 38.2, 100.0 100.0, 93.2 96.0 C 100.0 80.8, 89.3 100.0, 95.6 93.1 C 83.8 100.0, 81.5 0.0, 91.4 1.2 C 100.0 0.0, 72.5 39.1, 83.3 29.8 C 63.6 45.7, 3.6 100.0, 17.9 91.8 Z" fill="hsl(242, 72%, 49%)" fill-opacity="0.36" stroke="none" stroke-width="4.13"  transform="translate(54.1 74.8) rotate(177.3) scale(1.82 0.66)" />
<path d="M 93.4 23.4 C 100.0 38.5, 77.8 86.0, 69.6 79.5 C 57.4 65.3, 53.0 65.2, 39.7 69.1 C 53.0 61.8, 17.4 13.1, 17.0 14.6 C 27.3 10.2, 32.6 50.7, 27.4 40.6 C 38.7 51.6, 24.8 90.6, 28.3 86.0 C 17.3 79.5, 85.7 89.6, 78.5 92.8 C 85.3 85.4, 46.5 24.0, 49.0 14.8 C 52.8 30.3, 95.7 64.6, 92.5 55.5 C 100.0 36.7, 59.1 45.0, 56.5 54.2 C 55.7 50.7, 57.5 68.8, 44.9 60.2 Z" fill="hsl(144, 86%, 72%)" fill-opacity="0.55" stroke="none" stroke-width="2.59"  transform="translate(99.4 93.1) rotate(263.3) scale(1.05 1.55)" />
<rect x="44.6" y="14.9" width="29.2" height="35.8" rx="0" fill="none" fill-opacity="0.65"   transform="translate(13.6 29.7) rotate(44.6) scale(0.80 1.19)" />
<path d="M 85.4 86.6 C 90.8 86.0, 22.6 99.0, 29.9 93.6 C 28.7 100.0, 1.9 42.1, 15.2 30.0 C 11.3 31.3, 23.5 59.8, 31.7 62.2 C 15.6 67.9, 20.0 37.0, 11.3 27.7 C 25.3 26.6, 25.2 32.4, 12.5 21.9 C 4.1 26.5, 68.9 31.8, 57.2 19.7 C 75.2 23.0, 81.3 89.9, 90.9 77.8 Z" fill="hsl(2, 82%, 55%)" fill-opacity="0.65" stroke="none" stroke-width="3.88"  transform="translate(36.6 42.3) rotate(156.1) scale(0.80 1.68)" />
<path d="M 46.7 57.5 C 28.2 57.2, 87.4 46.7, 96.5 55.7 C 100.0 37.2, 83.2 0.0, 76.0 6.9 C 69.8 22.5, 31.0 25.0, 31.4 12.1 C 12.7 23.3, 84.6 63.3, 75.5 62.2 C 61.6 46.9, 47.4 33.8, 62.1 26.0 C 44.7 12.8, 21.6 72.0, 31.4 72.4 Z" fill="none" fill-opacity="0.88" stroke="hsl(2, 82%, 55%)" stroke-width="1.88"  transform="translate(1.3 88.5) rotate(22.3) scale(1.31 1.14)" />
<path d="M 73.9 47.7 C 58.3 67.4, 62.4 48.9, 57.6 61.6 C 66.0 44.2, 9.9 19.2, 19.1 8.2 C 33.5 7.7, 85.6 43.1, 84.6 40.9 C 100.0 31.5, 67.1 25.9, 75.4 23.3 C 68.5 35.0, 79.6 87.0, 76.3 73.3 C 94.8 90.4, 21.8 0.0, 24.7 4.3 Z" fill="hsl(106, 75%, 59%)" fill-opacity="0.28" stroke="none" stroke-width="4.81"  transform="translate(13.5 5.1) rotate(311.8) scale(1.14 0.63)" />
<path d="M 94.7 96.7 C 78.7 84.7, 54.4 100.0, 44.5 89.5 C 50.5 94.0, 19.6 23.9, 18.1 14.0 C 26.8 4.1, 83.2 11.2, 73.5 22.2 C 66.9 8.5, 24.2 82.5, 17.1 88.3 C 13.6 74.1, 51.3 18.9, 46.4 5.9 C 37.4 22.3, 33.2 58.2, 20.3 51.0 C 21.2 34.5, 39.2 100.0, 31.5 98.0 C 31.6 100.0, 77.0 46.4, 67.3 41.2 Z" fill="hsl(86, 72%, 68%)" fill-opacity="0.46" stroke="none" stroke-width="2.37" filter="url(#f1)" transform="translate(75.1 21.8) rotate(158.2) scale(1.50 0.54)" />
<circle cx="72.3" cy="90.3" r="15.6" fill="url(#g1)" fill-opacity="0.51"  transform="translate(50.5 38.8) rotate(125.4) scale(0.66 0.96)" />
<rect x="17.4" y="30.8" width="35.6" height="22.2" rx="9.7" fill="hsl(104, 72%, 65%)" fill-opacity="0.83" stroke="hsl(144, 86%, 72%)" stroke-width="3.0"  transform="translate(58.8 59.3) rotate(87.6) scale(1.69 0.90)" />
<circle cx="12.5" cy="58.4" r="6.9" fill="hsl(242, 72%, 49%)" fill-opacity="0.93"  transform="translate(50.2 34.2) rotate(19.7) scale(1.87 1.56)" />
<circle cx="33.6" cy="80.5" r="4.1" fill="hsl(144, 86%, 72%)" fill-opacity="0.49"  transform="translate(26.4 71.4) rotate(64.2) scale(1.42 0.87)" />
<path d="M 32.0 25.2 C 49.5 8.0, 99.3 49.9, 95.2 61.1 C 79.5 71.7, 66.3 79.0, 57.7 68.8 C 71.6 77.6, 88.3 40.4, 85.5 39.0 C 69.3 43.9, 80.7 72.9, 91.5 63.2 C 93.6 65.6, 48.5 48.5, 46.7 52.1 C 54.9 59.9, 40.7 39.8, 33.7 40.6 Z" fill="none" fill-opacity="0.83" stroke="hsl(322, 74%, 44%)" stroke-width="1.11"  transform="translate(20.0 7.0) rotate(134.0) scale(1.65 0.56)" />
<path d="M 25.8 3.0 C 42.6 3.7, 43.2 85.0, 46.3 90.8 C 34.7 74.6, 39.0 44.6, 25.4 31.7 C 30.5 50.0, 68.2 86.8, 67.5 86.2 C 86.1 70.8, 23.5 83.6, 30.4 85.2 C 36.5 89.6, 90.4 37.2, 95.4 28.8 C 100.0 14.1, 50.9 76.9, 58.6 84.2 C 60.2 87.9, 72.3 78.6, 58.1 70.1 C 49.3 88.9, 48.3 98.5, 57.1 95.3 C 40.5 100.0, 32.6 100.0, 39.7 97.8 C 32.8 100.0, 96.3 45.5, 89.6 33.7 Z" fill="none" fill-opacity="0.73" stroke="hsl(106, 75%, 59%)" stroke-width="4.29"   />
<rect x="32.0" y="8.0" width="21.5" height="11.0" rx="3.7" fill="none" fill-opacity="0.87" stroke="hsl(242, 72%, 49%)" stroke-width="1.5" filter="url(#f1)" transform="translate(77.8 24.5) rotate(334.3) scale(1.46 0.73)" />
<path d="M 40.9 72.3 C 41.9 54.7, 11.3 54.7, 6.1 68.0 C 4.8 70.1, 91.0 23.7, 99.3 30.3 C 81.3 38.7, 16.4 33.8, 6.2 44.3 C 0.2 42.8, 48.0 58.9, 42.9 72.6 C 62.9 63.3, 40.3 9.6, 25.8 14.0 C 38.6 20.4, 6.2 77.7, 20.5 71.6 C 13.5 55.3, 94.6 62.3, 88.1 68.4 Z" fill="hsl(40, 53%, 69%)" fill-opacity="0.47" stroke="none" stroke-width="2.19"  transform="translate(10.7 27.5) rotate(215.8) scale(0.72 1.99)" />
<path d="M 59.8 64.6 C 66.1 47.7, 80.4 10.6, 70.1 17.5 C 67.9 36.3, 98.2 74.8, 89.6 76.4 C 74.4 63.6, 57.8 3.6, 64.5 13.5 C 48.1 15.6, 100.0 55.5, 99.4 60.6 C 100.0 70.6, 49.5 83.9, 59.3 96.4 C 43.0 92.3, 30.2 41.7, 16.9 48.3 C 36.1 44.5, 68.3 1.3, 76.6 12.5 C 89.7 31.6, 15.9 36.8, 4.3 41.4 Z" fill="none" fill-opacity="0.65" stroke="hsl(322, 74%, 44%)" stroke-width="4.09"  transform="translate(26.4 14.4) rotate(26.2) scale(0.80 1.74)" />
<path d="M 24.1 69.7 C 5.8 58.8, 10.7 16.5, 18.2 15.1 C 7.0 17.3, 30.4 0.0, 33.9 2.2 C 27.6 0.0, 7.7 100.0, 18.8 99.9 C 23.1 84.3, 17.0 84.9, 17.4 77.5 C 18.9 65.6, 1.7 88.9, 4.8 76.6 C 22.6 91.3, 55.5 61.2, 44.0 71.1 C 28.4 87.3, 88.9 90.5, 84.7 92.2 C 97.1 89.8, 81.2 89.6, 82.4 87.7 Z" fill="none" fill-opacity="0.92" stroke="hsl(2, 82%, 55%)" stroke-width="1.17"  transform="translate(64.1 99.5) rotate(193.4) scale(1.92 0.77)" />
<rect x="40.8" y="47.0" width="27.1" height="38.9" rx="0" fill="none" fill-opacity="0.82"   transform="translate(23.2 98.6) rotate(324.4) scale(0.66 1.27)" />
<path d="M 84.6 36.2 C 74.0 40.9, 54.4 45.0, 56.7 36.5 C 64.4 21.1, 75.3 47.7, 80.9 60.6 C 80.3 78.8, 32.7 91.3, 32.0 97.8 C 43.3 100.0, 39.2 52.1, 51.8 48.3 C 46.2 57.8, 99.1 0.0, 96.7 1.1 C 100.0 0.0, 68.0 75.0, 82.7 83.7 C 68.3 69.9, 25.8 99.2, 20.2 88.2 " fill="hsl(2, 82%, 55%)" fill-opacity="0.88" stroke="none" stroke-width="1.04"  transform="translate(63.2 22.3) rotate(59.3) scale(1.53 1.20)" />
<rect x="46.5" y="1.8" width="28.8" height="38.2" rx="8.7" fill="hsl(83, 65%, 44%)" fill-opacity="0.35"  filter="url(#f1)" transform="translate(23.4 27.0) rotate(147.7) scale(0.57 1.41)" />
<circle cx="95.0" cy="49.5" r="3.0" fill="hsl(83, 65%, 44%)" fill-opacity="0.98" filter="url(#f1)" transform="translate(62.5 89.6) rotate(304.0) scale(1.40 0.90)" />
<path d="M 38.1 30.0 C 45.1 16.5, 30.2 25.1, 37.9 20.8 C 18.5 34.8, 15.4 60.0, 1.5 47.2 C 0.0 28.0, 76.1 82.5, 89.4 68.3 C 90.8 72.7, 40.9 61.0, 50.6 73.3 C 67.3 53.8, 100.0 2.4, 97.6 4.8 C 97.3 16.7, 0.0 0.0, 9.5 10.7 C 1.8 29.7, 9.6 47.1, 15.0 54.4 Z" fill="hsl(83, 65%, 44%)" fill-opacity="0.69" stroke="none" stroke-width="1.48"  transform="translate(34.7 13.9) rotate(272.3) scale(1.34 1.93)" />
<path d="M 7.1 38.2 C 15.2 56.5, 50.0 18.6, 43.4 30.6 C 47.5 49.2, 30.8 50.3, 44.8 52.4 C 52.9 34.3, 15.9 20.8, 30.2 10.6 C 24.4 0.0, 72.8 25.3, 82.1 34.8 C 95.7 22.9, 0.0 11.7, 0.3 10.0 C 17.5 17.4, 25.0 24.0, 12.7 22.3 C 16.6 35.5, 48.0 0.0, 44.2 4.6 C 26.8 10.1, 98.6 17.9, 96.4 20.4 C 100.0 15.0, 75.3 87.6, 64.4 94.2 C 52.3 100.0, 91.9 12.9, 96.0 13.8 Z" fill="hsl(322, 74%, 44%)" fill-opacity="0.97" stroke="none" stroke-width="4.47"  transform="translate(38.5 75.9) rotate(339.6) scale(1.04 1.39)" />
<circle cx="46.3" cy="55.4" r="3.1" fill="url(#g0)" fill-opacity="0.56"   />
<path d="M 24.7 38.9 C 43.3 39.0, 20.6 0.6, 23.6 3.0 C 17.5 0.0, 31.0 96.4, 39.9 88.5 C 48.3 69.3, 51.6 29.1, 40.2 23.9 C 46.2 17.4, 26.8 6.3, 31.0 13.9 C 20.2 8.3, 57.5 15.3, 61.7 7.1 C 51.4 9.9, 66.3 0.0, 52.9 0.4 Z" fill="hsl(242, 72%, 49%)" fill-opacity="0.79" stroke="none" stroke-width="1.33"  transform="translate(49.6 3.6) rotate(24.9) scale(1.24 1.15)" />
<rect x="59.2" y="57.5" width="25.6" height="23.0" rx="0" fill="hsl(322, 74%, 44%)" fill-opacity="0.50"   transform="translate(18.5 36.3) rotate(351.9) scale(0.60 1.66)" />
<rect x="46.7" y="18.3" width="41.0" height="34.2" rx="0" fill="hsl(86, 72%, 68%)" fill-opacity="0.25"   transform="translate(51.7 60.6) rotate(53.5) scale(1.86 0.74)" />
<path d="M 54.0 82.1 C 40.7 89.0, 54.4 84.7, 49.3 71.9 C 41.0 67.1, 85.2 84.1, 94.2 79.0 C 100.0 78.3, 53.7 66.7, 59.8 63.9 C 45.5 76.6, 72.7 48.3, 64.7 57.9 C 74.8 43.9, 44.3 63.5, 58.4 74.2 C 44.1 60.3, 44.8 25.5, 44.7 40.4 C 27.1 30.8, 70.2 89.0, 76.7 87.7 C 82.7 75.1, 70.0 46.8, 72.7 37.9 C 62.2 44.4, 99.0 33.3, 91.2 34.0 Z" fill="none" fill-opacity="0.76" stroke="hsl(104, 72%, 65%)" stroke-width="4.63"  transform="translate(77.9 93.5) rotate(336.5) scale(0.95 0.62)" />
<circle cx="17.1" cy="63.4" r="20.3" fill="url(#g0)" fill-opacity="0.89"  transform="translate(52.3 93.4) rotate(48.9) scale(0.87 1.00)" />
<rect x="63.6" y="56.9" width="23.5" height="33.9" rx="0" fill="none" fill-opacity="0.89" stroke="hsl(106, 75%, 59%)" stroke-width="2.0"  transform="translate(0.4 55.2) rotate(19.4) scale(0.87 1.04)" />
<path d="M 4.6 84.4 C 18.8 96.1, 9.6 64.3, 0.3 57.5 C 17.2 38.5, 68.7 11.2, 59.9 22.2 C 46.7 25.5, 86.6 51.4, 84.9 57.9 C 97.3 74.2, 34.4 100.0, 30.4 92.0 C 14.7 100.0, 74.8 31.4, 61.1 34.8 C 52.9 35.5, 97.9 4.6, 98.4 8.7 C 90.0 0.0, 82.4 40.7, 95.5 34.0 C 96.8 24.0, 54.7 100.0, 41.4 98.9 C 44.9 100.0, 85.2 25.5, 86.2 35.1 C 68.1 37.0, 18.6 52.5, 6.3 43.4 " fill="hsl(83, 65%, 44%)" fill-opacity="0.44" stroke="none" stroke-width="3.11"   />
<path d="M 21.8 76.1 C 6.1 73.0, 51.4 41.4, 45.2 39.7 C 28.6 31.6, 18.4 66.2, 8.7 78.0 C 13.2 79.6, 58.0 67.0, 43.8 58.2 C 48.6 59.1, 24.8 11.3, 17.4 22.5 C 9.5 30.1, 28.0 0.0, 16.6 6.6 C 0.0 0.6, 84.8 100.0, 92.4 98.1 C 92.9 97.6, 25.0 28.1, 30.7 42.6 C 28.8 40.8, 34.3 41.2, 35.1 51.2 Z" fill="hsl(183, 71%, 60%)" fill-opacity="0.98" stroke="none" stroke-width="4.04"   />
<path d="M 97.0 41.5 C 100.0 35.7, 100.0 37.1, 97.0 40.6 C 83.7 25.2, 99.4 71.4, 92.4 74.8 C 100.0 63.5, 68.2 8.2, 77.0 22.8 C 82.6 34.3, 12.1 100.0, 18.5 93.5 C 22.8 82.6, 89.1 41.1, 89.6 38.2 C 86.0 47.3, 43.0 42.5, 55.8 43.8 C 61.7 42.9, 84.2 31.5, 88.4 25.7 C 79.6 39.8, 25.9 51.3, 30.8 37.5 Z" fill="hsl(183, 71%, 60%)" fill-opacity="0.83" stroke="none" stroke-width="3.08" filter="url(#f1)" transform="translate(31.3 92.7) rotate(135.1) scale(0.55 1.72)" />
<rect x="41.3" y="4.0" width="35.9" height="19.1" rx="0" fill="none" fill-opacity="0.76"  filter="url(#f1)" transform="translate(56.7 7.8) rotate(158.3) scale(1.37 0.60)" />
<rect x="30.5" y="74.6" width="21.8" height="15.2" rx="1.4" fill="hsl(83, 65%, 44%)" fill-opacity="0.96" stroke="hsl(86, 72%, 68%)" stroke-width="4.3"  transform="translate(3.8 49.7) rotate(342.5) scale(0.77 1.06)" />
<path d="M 75.7 13.1 C 70.8 0.0, 52.6 15.2, 48.2 19.8 C 36.2 38.7, 32.3 49.3, 34.3 52.7 C 26.4 51.8, 76.8 80.5, 75.4 79.4 C 76.1 67.6, 43.5 22.1, 49.3 27.2 C 36.5 44.6, 24.7 50.7, 20.4 50.1 C 13.3 47.4, 33.6 79.2, 42.8 83.0 C 33.8 77.8, 0.0 43.0, 1.3 47.9 C 0.0 60.3, 28.3 13.4, 41.3 27.2 C 52.1 27.1, 2.2 27.6, 1.6 16.5 C 0.0 32.3, 78.1 99.0, 87.9 95.5 Z" fill="none" fill-opacity="0.75" stroke="hsl(2, 82%, 55%)" stroke-width="4.65"  transform="translate(40.3 75.0) rotate(173.0) scale(0.97 1.24)" />
<path d="M 78.8 49.2 C 76.0 44.2, 61.0 9.4, 47.8 5.2 C 41.1 0.0, 95.7 91.2, 85.4 98.9 C 85.6 100.0, 15.3 25.1, 11.3 23.6 C 0.0 25.0, 43.5 97.8, 50.5 90.6 C 67.1 100.0, 66.7 87.4, 58.3 89.9 C 56.1 79.8, 15.5 64.2, 5.6 49.8 C 0.0 43.1, 77.0 4.0, 89.4 14.5 C 92.6 7.7, 90.7 88.1, 97.9 96.9 C 100.0 79.9, 57.1 67.3, 50.4 80.8 C 46.2 89.2, 87.1 0.0, 93.8 0.1 Z" fill="none" fill-opacity="0.67" stroke="hsl(151, 70%, 62%)" stroke-width="2.09"  transform="translate(71.8 93.8) rotate(339.5) scale(0.95 1.32)" />
<path d="M 47.8 38.8 C 34.3 48.4, 76.1 53.3, 78.5 58.9 C 70.0 76.4, 51.5 63.7, 40.5 62.2 C 42.1 50.6, 51.4 1.1, 46.4 15.2 C 43.6 0.0, 3.9 64.7, 18.6 69.8 C 37.6 57.7, 58.2 53.8, 64.9 63.6 C 84.6 65.4, 43.4 46.5, 40.8 57.7 Z" fill="none" fill-opacity="0.35" stroke="hsl(104, 72%, 65%)" stroke-width="3.28"  transform="translate(53.1 79.5) rotate(64.6) scale(1.04 1.75)" />
<path d="M 49.4 74.2 C 63.6 78.4, 78.2 19.6, 84.8 23.6 C 92.2 39.9, 68.6 73.6, 74.3 77.0 C 72.1 91.2, 91.8 71.5, 86.6 58.6 C 86.2 54.5, 2.0 96.2, 12.6 90.8 C 5.5 81.3, 87.9 18.8, 87.6 25.5 C 77.8 44.2, 0.0 67.3, 13.3 63.8 Z" fill="hsl(40, 53%, 69%)" fill-opacity="0.79" stroke="none" stroke-width="3.93" filter="url(#f1)" transform="translate(72.7 89.9) rotate(234.8) scale(1.68 1.40)" />
<path d="M 85.7 35.4 C 67.8 33.0, 77.3 67.9, 82.3 54.3 C 92.0 69.1, 26.4 75.9, 17.9 90.4 C 29.5 100.0, 44.5 16.2, 39.5 14.7 C 38.5 23.9, 100.0 90.2, 88.9 79.6 C 100.0 63.5, 68.1 50.2, 81.6 46.5 C 74.8 55.8, 50.6 6.2, 59.0 5.3 C 51.6 0.0, 100.0 9.6, 97.4 24.3 C 100.0 15.0, 23.6 55.5, 24.3 47.8 C 15.9 28.2, 19.9 0.0, 23.4 2.6 C 32.1 4.5, 60.4 80.3, 52.4 69.6 " fill="hsl(322, 74%, 44%)" fill-opacity="0.79" stroke="none" stroke-width="3.11"  transform="translate(6.7 72.7) rotate(309.2) scale(0.70 0.72)" />
<path d="M 69.8 71.3 C 69.5 70.4, 99.1 72.4, 90.7 87.4 C 96.4 78.2, 35.8 24.7, 40.5 28.7 C 40.7 38.7, 17.2 65.7, 17.5 52.0 C 20.5 63.5, 18.3 72.4, 27.2 75.5 C 16.2 75.2, 82.5 6.3, 69.9 9.0 C 71.3 17.0, 34.7 72.5, 31.9 81.6 C 15.0 68.3, 41.2 100.0, 42.9 91.8 Z" fill="hsl(40, 53%, 69%)" fill-opacity="0.70" stroke="none" stroke-width="2.31"  transform="translate(31.6 66.8) rotate(108.7) scale(0.71 0.92)" />
<path d="M 36.7 94.1 C 18.0 78.3, 76.6 52.9, 64.7 50.4 C 54.2 47.2, 100.0 32.8, 90.4 25.5 C 100.0 27.8, 65.1 21.8, 64.0 33.1 C 61.4 48.2, 60.1 19.8, 49.4 5.3 C 40.9 8.9, 40.1 26.0, 43.4 18.8 C 30.9 21.9, 0.0 53.5, 2.3 57.5 C 0.0 57.7, 53.2 45.9, 46.2 51.0 C 50.1 62.2, 73.9 67.5, 61.8 62.7 C 72.2 47.2, 17.6 15.9, 18.5 13.2 C 28.7 26.9, 59.0 85.5, 60.5 73.3 " fill="hsl(104, 72%, 65%)" fill-opacity="0.67" stroke="none" stroke-width="2.69"  transform="translate(62.7 69.2) rotate(193.8) scale(0.86 1.31)" />
<path d="M 18.6 77.4 C 29.1 95.5, 35.0 100.0, 24.3 93.4 C 40.0 100.0, 74.3 24.9, 67.0 9.9 C 75.4 0.0, 0.0 30.5, 3.1 35.8 C 0.0 20.3, 90.6 54.3, 83.6 54.5 C 65.9 74.2, 45.3 17.1, 59.1 30.6 C 46.1 17.8, 84.0 100.0, 80.6 86.0 Z" fill="none" fill-opacity="0.78" stroke="hsl(106, 75%, 59%)" stroke-width="2.74"  transform="translate(41.2 34.3) rotate(90.2) scale(1.24 1.76)" />
<path d="M 88.7 13.2 C 98.8 13.3, 27.2 68.0, 20.6 74.7 C 34.2 69.8, 68.0 100.0, 53.1 98.0 C 72.9 100.0, 39.8 92.5, 26.4 79.0 C 36.9 59.3, 8.1 37.7, 10.8 28.9 C 6.0 48.1, 91.2 51.4, 95.6 50.8 C 97.7 66.7, 3.0 44.7, 4.5 44.4 C 0.0 41.1, 77.6 72.1, 91.6 68.3 C 88.5 67.1, 71.2 91.2, 73.8 99.4 C 57.9 100.0, 28.9 5.2, 16.5 5.5 Z" fill="none" fill-opacity="0.33" stroke="hsl(290, 83%, 63%)" stroke-width="1.62"  transform="translate(33.4 56.5) rotate(168.8) scale(0.60 1.77)" />
<path d="M 21.9 94.3 C 14.3 100.0, 12.9 19.9, 19.5 21.8 C 29.5 16.2, 93.4 33.9, 98.0 38.3 C 100.0 29.1, 84.2 44.6, 79.9 41.2 C 95.4 40.9, 93.3 80.4, 87.1 88.9 C 67.7 100.0, 45.6 18.4, 53.2 25.4 C 35.4 10.0, 45.6 69.9, 39.8 83.7 C 46.1 78.2, 5.0 0.0, 15.0 10.6 C 16.9 0.0, 8.4 46.7, 14.8 51.7 Z" fill="none" fill-opacity="0.98" stroke="hsl(144, 86%, 72%)" stroke-width="4.57"  transform="translate(86.8 5.0) rotate(78.2) scale(0.70 0.52)" />
<path d="M 17.2 41.6 C 6.7 36.8, 0.0 87.5, 8.9 84.9 C 15.9 86.3, 75.7 86.4, 69.2 79.4 C 74.6 97.4, 76.1 39.3, 79.8 53.5 C 98.2 49.7, 55.9 91.4, 64.2 88.7 C 80.1 100.0, 44.0 68.3, 43.3 61.4 C 63.0 69.9, 30.2 7.4, 25.9 5.7 C 27.5 0.0, 39.8 28.1, 27.4 17.2 C 16.8 9.0, 16.7 68.4, 13.9 59.4 C 12.0 41.4, 66.3 100.0, 51.8 97.9 C 54.1 89.9, 71.5 67.8, 67.4 76.0 " fill="none" fill-opacity="0.45" stroke="hsl(86, 72%, 68%)" stroke-width="3.56"  transform="translate(59.1 11.8) rotate(179.7) scale(1.01 0.98)" />
<path d="M 28.3 59.6 C 21.3 59.4, 69.7 95.0, 78.8 94.2 C 88.8 81.2, 39.1 58.7, 43.3 47.1 C 54.2 49.3, 43.7 34.3, 40.7 45.3 C 22.0 57.7, 100.0 49.6, 100.0 34.6 C 99.3 53.0, 0.0 54.8, 10.3 56.8 C 22.1 66.8, 0.0 35.7, 6.5 25.4 C 23.6 42.4, 0.0 84.3, 1.1 74.4 C 12.3 59.7, 35.6 100.0, 29.9 91.7 Z" fill="hsl(83, 65%, 44%)" fill-opacity="0.53" stroke="none" stroke-width="0.91"   />
<rect x="11.6" y="48.1" width="40.6" height="25.9" rx="0" fill="none" fill-opacity="0.91"   transform="translate(80.0 58.1) rotate(61.0) scale(1.70 0.70)" />
<g opacity="0.071">
<rect x="0" y="0" width="1" height="100" fill="black" />
<rect x="22" y="0" width="1" height="100" fill="black" />
<rect x="44" y="0" width="1" height="100" fill="black" />
<rect x="66" y="0" width="1" height="100" fill="black" />
<rect x="88" y="0" width="1" height="100" fill="black" />
<rect x="0" y="0" width="100" height="1" fill="black" />
<rect x="0" y="22" width="100" height="1" fill="black" />
<rect x="0" y="44" width="100" height="1" fill="black" />
<rect x="0" y="66" width="100" height="1" fill="black" />
<rect x="0" y="88" width="100" height="1" fill="black" />
</g>

</svg>
