<?xml version="1.0" encoding="UTF-8"?>
<svg xmlns="http://www.w3.org/2000/svg" width="100" height="100" viewBox="0 0 100 100">
<defs>
<linearGradient id="g0" x1="0%" y1="0%" x2="100%" y2="100%">
<stop offset="0.0%" stop-color="hsl(106, 75%, 59%)" />
<stop offset="33.3%" stop-color="hsl(183, 71%, 60%)" />
<stop offset="66.7%" stop-color="hsl(242, 72%, 49%)" />
<stop offset="100.0%" stop-color="hsl(322, 74%, 44%)" />
</linearGradient>
<linearGradient id="g1" x1="0%" y1="0%" x2="100%" y2="100%">
<stop offset="0.0%" stop-color="hsl(290, 83%, 63%)" />
<stop offset="33.3%" stop-color="hsl(2, 82%, 55%)" />
<stop offset="66.7%" stop-color="hsl(86, 72%, 68%)" />
<stop offset="100.0%" stop-color="hsl(83, 65%, 44%)" />
</linearGradient>
<linearGradient id="g2" x1="0%" y1="0%" x2="100%" y2="100%">
<stop offset="0.0%" stop-color="hsl(40, 53%, 69%)" />
<stop offset="33.3%" stop-color="hsl(104, 72%, 65%)" />
<stop offset="66.7%" stop-color="hsl(144, 86%, 72%)" />
<stop offset="100.0%" stop-color="hsl(151, 70%, 62%)" />
</linearGradient>
</defs>

<path d="M 94.2 80.3 C 100.0 79.4, 63.3 89.9, 65.5 92.0 C 47.0 92.3, 52.8 34.0, 54.3 31.7 C 38.5 40.0, 60.0 32.6, 67.0 39.5 C 69.4 30.3, 45.9 7.9, 54.0 6.0 " fill="hsl(183, 71%, 60%)" fill-opacity="0.79" stroke="none" stroke-width="1.28"  transform="translate(68.6 31.0) rotate(46.7) scale(1.48 1.29)" />
<path d="M 35.1 16.0 C 15.5 13.3, 73.0 84.4, 75.8 92.8 C 92.4 100.0, 28.7 44.6, 41.9 38.1 C 27.1 45.2, 27.9 55.9, 40.3 49.9 " fill="hsl(144, 86%, 72%)" fill-opacity="0.56" stroke="none" stroke-width="0.82"   />
<rect x="0.4" y="52.7" width="38.9" height="26.8" rx="0.6" fill="hsl(104, 72%, 65%)" fill-opacity="0.56" stroke="hsl(151, 70%, 62%)" stroke-width="4.2"   />
<path d="M 9.5 59.6 C 24.5 72.3, 77.0 37.5, 76.3 25.2 C 63.6 14.2, 60.0 59.7, 57.0 49.4 C 49.0 64.9, 15.2 71.1, 26.2 68.3 " fill="hsl(83, 65%, 44%)" fill-opacity="0.44" stroke="none" stroke-width="1.10"  transform="translate(24.7 80.8) rotate(79.7) scale(0.66 1.89)" />
<path d="M 75.1 98.0 C 90.4 100.0, 45.7 72.3, 39.2 64.8 C 46.4 46.0, 41.5 0.8, 32.3 12.8 C 18.4 12.7, 79.2 100.0, 75.7 98.9 " fill="hsl(2, 82%, 55%)" fill-opacity="0.92" stroke="none" stroke-width="1.07"  transform="translate(1.8 19.8) rotate(164.9) scale(0.71 0.83)" />
<rect x="19.1" y="69.5" width="40.1" height="12.2" rx="0" fill="none" fill-opacity="0.84"   transform="translate(32.3 90.9) rotate(161.7) scale(1.01 1.37)" />
<rect x="60.9" y="6.4" width="33.6" height="12.0" rx="17.2" fill="none" fill-opacity="0.62"   transform="translate(51.9 84.1) rotate(146.7) scale(1.25 1.35)" />
<path d="M 12.8 36.5 C 12.9 28.3, 87.9 57.9, 94.6 71.8 C 96.3 84.1, 92.8 9.8, 88.0 0.6 C 98.9 14.8, 14.5 10.8, 25.6 18.4 C 21.0 28.7, 21.2 15.6, 21.5 15.3 C 4.2 17.0, 31.6 100.0, 28.2 99.4 C 42.4 100.0, 57.2 84.9, 56.4 90.0 C 38.6 81.3, 42.9 57.8, 36.8 67.6 " fill="none" fill-opacity="0.85" stroke="hsl(242, 72%, 49%)" stroke-width="1.04"   />
<circle cx="71.8" cy="19.0" r="0.3" fill="hsl(290, 83%, 63%)" fill-opacity="0.53"   />
<path d="M 58.3 83.1 C 54.6 75.5, 17.3 0.0, 18.9 6.5 C 22.9 25.5, 86.2 48.0, 92.8 43.3 C 100.0 39.7, 49.3 22.8, 58.4 10.0 C 74.4 0.0, 63.2 16.9, 68.7 18.3 C 66.1 34.1, 12.0 46.9, 12.6 58.5 C 1.4 73.8, 60.8 99.3, 54.4 91.3 " fill="hsl(106, 75%, 59%)" fill-opacity="0.59" stroke="none" stroke-width="0.98"   />
<path d="M 84.8 53.2 C 83.8 47.3, 65.3 63.7, 60.0 71.0 C 75.2 67.1, 58.7 58.4, 72.8 71.6 C 53.8 61.7, 100.0 76.8, 99.7 82.9 C 100.0 68.1, 15.0 42.5, 6.0 52.6 C 19.9 40.0, 76.7 77.1, 91.4 89.5 C 100.0 73.3, 49.9 99.0, 35.9 99.7 " fill="hsl(40, 53%, 69%)" fill-opacity="0.61" stroke="none" stroke-width="0.80"  transform="translate(62.9 42.5) rotate(246.9) scale(1.02 1.77)" />
<path d="M 95.1 73.2 C 91.0 68.2, 83.0 37.5, 90.3 28.2 C 97.5 30.4, 3.9 58.3, 14.7 49.1 C 6.6 58.9, 18.7 100.0, 25.6 96.0 C 17.0 100.0, 35.2 96.4, 42.1 95.4 C 58.5 92.3, 99.6 51.6, 85.0 54.8 Z" fill="hsl(86, 72%, 68%)" fill-opacity="0.73" stroke="none" stroke-width="1.00"  transform="translate(10.5 91.5) rotate(236.0) scale(0.68 1.74)" />
<path d="M 86.5 28.8 C 89.5 46.4, 34.6 71.6, 44.1 77.8 C 50.4 90.0, 21.8 73.4, 29.7 86.4 C 29.5 100.0, 95.2 40.7, 88.1 50.5 C 100.0 39.8, 83.0 49.8, 84.9 38.7 Z" fill="none" fill-opacity="0.49" stroke="hsl(151, 70%, 62%)" stroke-width="1.01"   />
<path d="M 99.3 7.0 C 96.2 7.4, 79.4 24.5, 88.2 29.0 C 93.7 15.0, 12.8 80.4, 7.0 66.2 C 2.1 60.2, 68.6 48.8, 59.6 39.6 C 60.9 51.3, 4.7 34.6, 10.5 23.0 Z" fill="none" fill-opacity="0.27" stroke="hsl(242, 72%, 49%)" stroke-width="1.11"   />
<rect x="13.0" y="1.2" width="35.9" height="36.8" rx="0.6" fill="hsl(40, 53%, 69%)" fill-opacity="0.57" stroke="hsl(144, 86%, 72%)" stroke-width="1.5"  transform="translate(12.3 49.1) rotate(300.3) scale(0.55 0.73)" />
<path d="M 57.5 38.7 C 41.0 34.6, 86.2 86.4, 93.0 89.0 C 100.0 79.3, 48.8 9.2, 48.5 13.4 C 49.7 0.0, 25.7 87.1, 29.8 80.4 Z" fill="none" fill-opacity="0.28" stroke="hsl(290, 83%, 63%)" stroke-width="0.88"  transform="translate(86.1 11.7) rotate(153.4) scale(1.99 0.93)" />
<path d="M 65.9 37.3 C 75.8 20.9, 40.7 34.8, 48.9 44.7 C 46.8 51.1, 31.6 37.1, 19.3 34.0 C 11.4 46.4, 0.0 0.0, 4.3 5.2 C 18.2 7.2, 94.5 83.8, 85.3 79.0 C 66.0 94.9, 52.7 91.0, 65.7 87.4 C 66.8 96.2, 80.6 99.4, 78.3 91.7 C 96.2 93.5, 73.3 10.1, 81.4 2.0 " fill="hsl(83, 65%, 44%)" fill-opacity="0.99" stroke="none" stroke-width="0.97"  transform="translate(54.4 59.6) rotate(58.6) scale(1.20 0.53)" />
</svg>
