<?xml version="1.0" encoding="UTF-8"?>
<svg xmlns="http://www.w3.org/2000/svg" width="100" height="100" viewBox="0 0 100 100">
<defs>
<linearGradient id="g0" x1="0%" y1="0%" x2="100%" y2="100%">
<stop offset="0.0%" stop-color="hsl(106, 75%, 59%)" />
<stop offset="33.3%" stop-color="hsl(183, 71%, 60%)" />
<stop offset="66.7%" stop-color="hsl(242, 72%, 49%)" />
<stop offset="100.0%" stop-color="hsl(322, 74%, 44%)" />
</linearGradient>
<linearGradient id="g1" x1="0%" y1="0%" x2="100%" y2="100%">
<stop offset="0.0%" stop-color="hsl(290, 83%, 63%)" />
<stop offset="33.3%" stop-color="hsl(2, 82%, 55%)" />
<stop offset="66.7%" stop-color="hsl(86, 72%, 68%)" />
<stop offset="100.0%" stop-color="hsl(83, 65%, 44%)" />
</linearGradient>
<linearGradient id="g2" x1="0%" y1="0%" x2="100%" y2="100%">
<stop offset="0.0%" stop-color="hsl(40, 53%, 69%)" />
<stop offset="33.3%" stop-color="hsl(104, 72%, 65%)" />
<stop offset="66.7%" stop-color="hsl(144, 86%, 72%)" />
<stop offset="100.0%" stop-color="hsl(151, 70%, 62%)" />
</linearGradient>
<filter id="f1" x="-20%" y="-20%" width="140%" height="140%">
  <feGaussianBlur stdDeviation="2.2397866789665977" />
</filter>

</defs>

<rect x="1.5" y="44.4" width="29.7" height="20.1" rx="0" fill="none" fill-opacity="0.27"   transform="translate(52.4 71.3) rotate(80.6) scale(1.59 1.49)" />
<path d="M 93.0 72.5 C 100.0 84.6, 1.1 54.1, 12.2 42.3 C 14.3 30.5, 21.6 72.7, 13.4 73.6 C 0.0 85.9, 84.3 75.4, 86.2 79.6 C 75.0 86.6, 35.1 46.8, 39.8 58.5 C 43.1 69.3, 3.4 73.5, 5.3 63.2 C 0.0 62.1, 57.1 20.9, 45.9 22.0 Z" fill="hsl(2, 82%, 55%)" fill-opacity="0.50" stroke="none" stroke-width="2.47"  transform="translate(82.0 39.0) rotate(138.3) scale(1.35 1.75)" />
<rect x="48.1" y="12.9" width="36.5" height="17.1" rx="5.7" fill="none" fill-opacity="0.39" stroke="hsl(151, 70%, 62%)" stroke-width="3.4"  transform="translate(56.7 61.2) rotate(215.8) scale(1.26 1.12)" />
<circle cx="26.6" cy="77.2" r="15.6" fill="hsl(290, 83%, 63%)" fill-opacity="0.41"  transform="translate(19.7 79.3) rotate(292.0) scale(1.97 1.82)" />
<circle cx="25.9" cy="96.6" r="3.2" fill="url(#g0)" fill-opacity="0.83" filter="url(#f1)" transform="translate(89.7 16.4) rotate(82.8) scale(0.52 1.30)" />
<path d="M 2.4 86.7 C 4.6 100.0, 94.8 22.4, 86.1 33.2 C 73.4 42.8, 62.0 50.4, 70.1 59.7 C 86.2 40.4, 64.4 88.7, 72.8 95.3 C 70.7 87.7, 36.5 15.1, 51.3 16.8 C 55.2 15.3, 38.0 41.8, 43.8 28.2 C 54.3 38.4, 17.8 68.8, 23.7 83.0 C 22.6 90.3, 83.2 27.6, 72.1 17.6 C 83.4 14.7, 100.0 49.7, 98.2 62.1 C 100.0 79.5, 15.4 3.3, 14.3 13.6 Z" fill="hsl(144, 86%, 72%)" fill-opacity="0.37" stroke="none" stroke-width="0.92" filter="url(#f1)" transform="translate(85.6 2.7) rotate(218.3) scale(1.54 1.85)" />
<path d="M 95.5 16.5 C 100.0 6.1, 14.8 17.8, 13.0 5.0 C 32.4 0.0, 37.7 100.0, 37.1 93.3 C 27.7 100.0, 40.6 24.2, 41.7 33.7 C 39.8 37.1, 34.4 29.2, 37.6 25.2 C 47.0 42.6, 22.4 66.5, 9.1 77.6 C 0.0 96.3, 93.0 33.9, 98.4 39.6 C 81.1 21.2, 9.0 39.4, 9.6 28.3 C 0.0 44.6, 47.1 67.4, 42.2 59.6 C 55.4 74.8, 41.6 53.9, 50.9 53.4 C 47.6 33.4, 8.0 61.1, 4.3 51.5 Z" fill="hsl(83, 65%, 44%)" fill-opacity="0.91" stroke="none" stroke-width="3.15"  transform="translate(77.9 9.2) rotate(27.6) scale(0.61 0.69)" />
<path d="M 62.8 37.6 C 60.5 22.6, 0.0 20.0, 9.5 19.3 C 16.1 5.4, 67.2 16.8, 67.1 31.0 C 75.3 16.4, 25.8 27.2, 37.9 21.5 C 30.4 14.3, 39.4 45.3, 28.6 34.7 C 25.7 15.6, 67.6 20.9, 64.9 7.2 C 62.3 1.3, 14.8 0.6, 17.5 9.0 Z" fill="none" fill-opacity="0.90" stroke="hsl(86, 72%, 68%)" stroke-width="5.13"  transform="translate(92.1 0.5) rotate(223.1) scale(1.57 1.16)" />
<path d="M 87.1 75.6 C 70.2 63.5, 13.3 34.9, 2.9 24.8 C 12.2 38.4, 85.6 53.9, 89.4 57.7 C 95.7 76.8, 16.6 17.5, 5.7 24.6 C 0.4 10.8, 84.1 55.1, 80.4 63.7 C 64.4 76.3, 67.5 9.2, 65.9 21.8 C 84.2 21.6, 48.2 22.5, 56.8 35.8 C 51.9 49.4, 15.0 22.6, 16.1 12.7 Z" fill="hsl(290, 83%, 63%)" fill-opacity="0.93" stroke="none" stroke-width="2.17"  transform="translate(62.3 89.8) rotate(327.1) scale(1.34 1.17)" />
<path d="M 7.0 78.0 C 4.1 78.1, 68.9 63.0, 57.9 75.4 C 76.3 91.9, 55.7 70.1, 50.3 58.8 C 31.5 77.8, 6.1 91.8, 20.2 82.3 C 32.8 81.4, 72.5 0.0, 69.9 3.0 C 79.5 3.6, 47.4 39.5, 37.1 27.2 C 21.4 8.1, 87.1 63.9, 94.4 61.9 C 97.6 44.4, 72.5 14.2, 64.4 10.8 C 56.6 16.3, 52.9 43.1, 54.3 43.8 C 36.0 54.4, 53.4 82.4, 43.9 79.9 C 36.8 62.5, 100.0 80.3, 91.7 81.1 Z" fill="none" fill-opacity="0.66" stroke="hsl(183, 71%, 60%)" stroke-width="3.72"  transform="translate(50.6 98.6) rotate(190.8) scale(1.22 0.63)" />
<path d="M 3.2 65.6 C 0.0 45.6, 100.0 0.0, 97.2 8.6 C 77.5 27.7, 67.3 60.1, 66.5 53.6 C 78.6 48.4, 27.9 78.4, 37.9 81.4 C 32.4 99.2, 64.3 73.8, 66.3 72.1 C 61.1 55.4, 49.8 100.0, 61.2 88.3 C 66.1 91.0, 78.5 51.7, 75.7 47.2 C 86.9 55.6, 97.5 36.6, 89.4 36.2 C 77.0 44.4, 57.5 79.5, 53.2 70.1 C 63.6 88.0, 80.6 22.7, 92.0 34.2 C 75.3 32.6, 86.2 95.6, 83.2 96.3 Z" fill="hsl(151, 70%, 62%)" fill-opacity="0.94" stroke="none" stroke-width="4.43"  transform="translate(69.1 81.6) rotate(212.1) scale(1.84 1.43)" />
<rect x="40.1" y="24.2" width="48.7" height="25.1" rx="0" fill="none" fill-opacity="0.41"   transform="translate(25.3 41.7) rotate(169.9) scale(0.78 0.56)" />
<rect x="66.7" y="76.2" width="25.5" height="10.3" rx="0" fill="none" fill-opacity="0.75"   transform="translate(94.9 45.2) rotate(268.2) scale(0.52 0.79)" />
<rect x="15.7" y="62.8" width="39.7" height="29.0" rx="0" fill="none" fill-opacity="0.82" stroke="hsl(144, 86%, 72%)" stroke-width="3.2"  transform="translate(8.8 26.8) rotate(158.5) scale(0.84 0.65)" />
<path d="M 51.6 8.9 C 54.0 0.0, 10.5 96.4, 21.2 98.0 C 8.7 94.9, 55.4 38.0, 58.2 39.0 C 71.2 24.6, 47.4 56.4, 46.3 46.5 C 26.7 65.5, 28.9 16.9, 15.5 7.9 C 15.8 10.0, 83.3 36.6, 94.2 39.6 C 100.0 35.3, 60.8 73.3, 46.9 63.4 Z" fill="hsl(86, 72%, 68%)" fill-opacity="0.56" stroke="none" stroke-width="4.65"   />
<rect x="54.5" y="29.5" width="26.3" height="30.8" rx="0" fill="none" fill-opacity="0.99"   transform="translate(61.1 95.3) rotate(313.7) scale(1.94 1.79)" />
<circle cx="57.9" cy="0.3" r="4.9" fill="url(#g1)" fill-opacity="0.52"  transform="translate(31.1 70.2) rotate(126.4) scale(1.60 0.96)" />
<circle cx="5.0" cy="17.9" r="11.3" fill="url(#g0)" fill-opacity="0.71"  transform="translate(91.9 29.7) rotate(115.7) scale(1.86 0.85)" />
<path d="M 92.8 76.2 C 100.0 57.8, 0.0 35.3, 11.7 27.3 C 0.0 25.7, 77.0 18.8, 76.2 30.0 C 68.0 26.3, 100.0 55.4, 92.7 59.6 C 82.9 70.0, 58.1 100.0, 55.4 96.8 C 42.8 78.6, 81.5 78.4, 91.5 78.5 C 84.0 81.9, 54.8 50.0, 67.8 46.1 C 74.8 65.6, 97.5 54.5, 89.9 61.7 C 79.0 65.8, 70.8 36.7, 80.7 31.5 C 99.6 24.3, 10.6 31.9, 22.7 44.8 Z" fill="hsl(144, 86%, 72%)" fill-opacity="0.68" stroke="none" stroke-width="1.47"  transform="translate(82.4 11.6) rotate(234.5) scale(1.13 1.71)" />
<rect x="17.1" y="61.2" width="43.5" height="12.8" rx="5.1" fill="none" fill-opacity="0.87" stroke="hsl(151, 70%, 62%)" stroke-width="3.2" filter="url(#f1)" transform="translate(42.1 20.6) rotate(272.6) scale(0.93 1.47)" />
<path d="M 93.2 77.6 C 99.7 92.5, 32.4 5.6, 23.5 15.2 C 21.1 2.2, 15.4 32.8, 20.2 19.8 C 38.5 7.7, 57.3 10.7, 65.8 23.1 C 69.4 26.8, 89.2 84.3, 98.1 95.3 C 100.0 100.0, 17.4 3.5, 20.4 15.4 C 19.7 21.9, 26.6 75.0, 29.8 61.2 C 45.8 63.2, 9.3 35.2, 10.2 35.0 C 12.4 21.6, 19.5 70.8, 9.0 83.2 Z" fill="none" fill-opacity="0.87" stroke="hsl(2, 82%, 55%)" stroke-width="4.51"   />
<rect x="58.6" y="42.0" width="31.6" height="24.2" rx="0" fill="none" fill-opacity="0.58"   transform="translate(60.5 5.3) rotate(239.0) scale(1.62 1.65)" />
<circle cx="9.0" cy="62.4" r="4.9" fill="hsl(104, 72%, 65%)" fill-opacity="0.44"  transform="translate(46.7 21.0) rotate(116.1) scale(0.62 1.48)" />
<circle cx="72.6" cy="88.8" r="13.7" fill="url(#g0)" fill-opacity="0.70"   />
<circle cx="49.7" cy="4.4" r="15.3" fill="url(#g1)" fill-opacity="0.96"  transform="translate(50.7 32.5) rotate(290.1) scale(1.08 0.81)" />
<circle cx="49.5" cy="47.4" r="7.8" fill="hsl(40, 53%, 69%)" fill-opacity="0.59"  transform="translate(45.1 17.8) rotate(342.5) scale(0.53 1.62)" />
<rect x="28.0" y="50.9" width="41.8" height="29.5" rx="0" fill="hsl(151, 70%, 62%)" fill-opacity="0.63"   transform="translate(46.8 31.7) rotate(258.5) scale(0.66 1.18)" />
<path d="M 70.2 40.0 C 82.9 49.0, 33.2 40.8, 47.7 31.2 C 28.3 43.1, 0.0 81.0, 0.4 92.2 C 0.1 100.0, 38.1 33.8, 41.0 36.9 C 58.5 46.6, 84.5 34.5, 76.4 19.6 C 86.8 18.5, 62.0 44.1, 63.0 50.7 C 74.6 57.1, 46.6 75.0, 58.0 86.9 C 39.5 84.2, 93.1 61.6, 87.5 67.4 C 80.2 85.7, 43.8 17.2, 38.6 15.9 C 35.7 13.7, 2.1 17.4, 13.2 5.2 Z" fill="hsl(290, 83%, 63%)" fill-opacity="0.79" stroke="none" stroke-width="1.38"  transform="translate(15.1 60.7) rotate(247.8) scale(1.28 1.43)" />
<path d="M 7.1 31.5 C 17.0 34.3, 71.2 70.7, 57.1 85.1 C 41.1 89.7, 15.9 14.9, 19.3 21.9 C 30.5 40.5, 81.8 78.4, 75.6 92.1 C 55.9 82.3, 0.0 61.4, 2.9 70.2 C 0.0 67.9, 72.7 35.4, 61.8 47.2 C 73.8 31.7, 7.5 80.6, 2.1 87.9 C 0.0 81.6, 33.7 100.0, 19.0 98.1 Z" fill="hsl(104, 72%, 65%)" fill-opacity="0.54" stroke="none" stroke-width="1.03"  transform="translate(30.0 72.2) rotate(110.2) scale(0.85 0.92)" />
<rect x="77.8" y="66.7" width="21.1" height="27.2" rx="8.5" fill="none" fill-opacity="0.91" stroke="hsl(40, 53%, 69%)" stroke-width="4.0"   />
<path d="M 21.1 81.0 C 36.6 98.2, 5.8 82.3, 10.0 92.4 C 24.7 90.5, 47.1 0.0, 52.5 3.4 C 35.8 0.0, 17.3 65.2, 15.8 66.9 C 25.7 76.7, 97.2 30.6, 98.7 20.5 C 100.0 37.6, 15.0 23.3, 20.3 8.6 C 23.1 25.4, 86.7 61.3, 99.8 58.5 C 100.0 54.5, 73.7 51.6, 86.6 40.9 C 100.0 44.6, 27.5 89.9, 20.4 83.7 C 5.4 74.0, 8.7 3.3, 2.8 1.2 C 2.3 15.8, 44.4 71.0, 36.0 69.1 Z" fill="hsl(40, 53%, 69%)" fill-opacity="0.33" stroke="none" stroke-width="2.96"  transform="translate(63.5 3.8) rotate(90.4) scale(1.15 1.57)" />
<circle cx="55.8" cy="90.2" r="1.5" fill="hsl(242, 72%, 49%)" fill-opacity="0.76"  transform="translate(53.0 90.2) rotate(177.6) scale(1.51 1.82)" />
<circle cx="20.1" cy="68.1" r="1.6" fill="url(#g1)" fill-opacity="0.62" filter="url(#f1)" transform="translate(99.6 32.2) rotate(106.5) scale(0.69 0.96)" />
<rect x="3.9" y="58.9" width="36.7" height="37.3" rx="19.9" fill="hsl(106, 75%, 59%)" fill-opacity="0.32"   transform="translate(68.3 98.0) rotate(257.1) scale(0.90 1.00)" />
<path d="M 38.4 60.5 C 42.7 67.9, 95.8 26.8, 83.6 31.7 C 100.0 48.9, 60.4 68.5, 57.7 57.0 C 38.1 54.6, 42.1 2.7, 39.8 16.6 C 40.6 1.1, 44.6 4.1, 38.8 4.9 C 21.7 4.3, 12.6 100.0, 10.8 91.4 C 12.3 100.0, 75.6 85.4, 61.9 100.0 C 57.8 96.8, 45.4 11.4, 48.5 17.4 C 58.8 27.4, 0.0 99.6, 0.9 97.0 Z" fill="hsl(83, 65%, 44%)" fill-opacity="0.58" stroke="none" stroke-width="2.29"  transform="translate(74.8 74.5) rotate(134.7) scale(1.17 1.44)" />
<circle cx="92.2" cy="80.0" r="12.6" fill="url(#g1)" fill-opacity="0.68" filter="url(#f1)" transform="translate(58.5 88.0) rotate(358.5) scale(0.55 1.16)" />
<circle cx="22.4" cy="76.4" r="6.1" fill="hsl(2, 82%, 55%)" fill-opacity="0.67"  transform="translate(77.8 50.9) rotate(311.8) scale(1.16 0.64)" />
<path d="M 78.0 88.9 C 90.6 81.6, 40.2 46.0, 38.1 37.5 C 48.4 46.8, 42.7 79.8, 49.2 66.0 C 34.5 84.7, 77.2 54.7, 62.8 55.7 C 60.8 67.0, 59.8 32.7, 58.0 25.3 C 39.8 33.6, 100.0 25.5, 96.0 11.3 C 96.0 0.0, 21.9 59.7, 19.6 55.6 C 1.2 72.8, 53.0 10.4, 57.4 17.4 C 58.1 29.0, 35.3 33.0, 24.5 26.3 C 34.1 9.3, 17.4 84.3, 11.3 76.2 Z" fill="none" fill-opacity="0.94" stroke="hsl(83, 65%, 44%)" stroke-width="5.21"  transform="translate(90.5 52.7) rotate(358.6) scale(1.52 0.89)" />
<rect x="52.9" y="57.7" width="40.6" height="34.8" rx="0" fill="none" fill-opacity="0.61"   transform="translate(78.7 73.3) rotate(352.5) scale(0.65 1.11)" />
<rect x="42.9" y="54.0" width="40.7" height="24.1" rx="0" fill="none" fill-opacity="0.46" stroke="hsl(2, 82%, 55%)" stroke-width="4.4"   />
<path d="M 40.1 78.7 C 52.6 73.9, 13.7 83.5, 5.4 92.9 C 21.5 100.0, 35.3 37.5, 22.5 26.8 C 6.5 13.4, 96.5 94.9, 84.9 92.7 C 92.2 100.0, 2.4 0.0, 3.5 8.7 C 18.1 0.0, 47.3 13.9, 38.9 8.7 C 24.4 0.0, 51.2 64.9, 56.1 76.8 C 44.3 93.0, 69.5 21.8, 54.8 16.7 C 58.3 28.4, 0.0 65.1, 2.5 70.7 Z" fill="hsl(183, 71%, 60%)" fill-opacity="0.54" stroke="none" stroke-width="4.92"  transform="translate(74.4 80.7) rotate(116.1) scale(1.44 1.85)" />
<path d="M 78.0 14.8 C 63.8 25.5, 22.8 17.3, 29.4 15.5 C 10.5 11.4, 98.2 89.2, 97.7 86.2 C 100.0 68.4, 48.5 19.4, 41.8 17.5 C 53.0 21.7, 100.0 99.9, 99.7 98.3 C 100.0 100.0, 26.7 31.2, 37.9 21.3 C 20.6 11.2, 47.3 94.5, 42.0 91.7 C 43.6 100.0, 34.8 74.2, 47.3 68.8 C 51.3 85.0, 14.1 25.7, 13.4 17.4 C 15.9 27.2, 0.0 17.2, 9.5 25.3 C 26.8 31.7, 25.3 66.3, 35.5 62.0 Z" fill="hsl(144, 86%, 72%)" fill-opacity="0.73" stroke="none" stroke-width="3.37" filter="url(#f1)" transform="translate(83.6 78.5) rotate(159.5) scale(1.80 1.59)" />
<circle cx="51.4" cy="55.5" r="4.0" fill="url(#g2)" fill-opacity="0.96"  transform="translate(89.6 92.7) rotate(142.8) scale(1.08 1.53)" />
<rect x="75.3" y="11.5" width="22.3" height="38.4" rx="16.8" fill="none" fill-opacity="0.58"   transform="translate(25.6 75.5) rotate(166.5) scale(0.86 1.75)" />
<rect x="74.7" y="40.3" width="24.4" height="11.7" rx="0" fill="hsl(83, 65%, 44%)" fill-opacity="0.59" stroke="hsl(2, 82%, 55%)" stroke-width="4.5"  transform="translate(1.2 26.3) rotate(308.2) scale(1.56 1.18)" />
<path d="M 58.4 55.7 C 74.5 74.2, 0.0 42.3, 3.8 57.0 C 0.0 51.1, 85.5 100.0, 77.4 95.7 C 62.5 94.2, 58.8 0.0, 72.0 10.8 C 77.6 0.0, 78.8 0.0, 81.3 5.1 C 84.5 0.0, 65.2 10.3, 66.1 2.7 C 72.1 0.7, 92.5 54.0, 89.0 63.3 C 95.5 69.0, 45.2 83.4, 36.8 84.1 C 47.4 64.4, 84.6 32.9, 91.6 31.5 C 82.7 50.3, 11.0 70.9, 4.2 69.2 Z" fill="none" fill-opacity="0.56" stroke="hsl(104, 72%, 65%)" stroke-width="3.91"   />
<rect x="1.2" y="58.0" width="38.1" height="32.9" rx="15.2" fill="none" fill-opacity="0.69" stroke="hsl(86, 72%, 68%)" stroke-width="4.6"   />
<rect x="50.2" y="35.8" width="48.7" height="15.4" rx="0" fill="hsl(144, 86%, 72%)" fill-opacity="0.33" stroke="hsl(104, 72%, 65%)" stroke-width="3.1"  transform="translate(55.6 57.4) rotate(348.6) scale(1.43 1.13)" />
<path d="M 52.3 69.6 C 33.2 83.0, 75.8 38.7, 81.5 38.9 C 96.5 48.6, 68.9 78.6, 74.0 77.1 C 89.4 77.5, 90.8 65.1, 88.4 54.9 C 100.0 54.7, 45.9 16.5, 42.1 22.2 C 44.0 19.9, 33.4 28.0, 45.6 36.5 C 52.1 34.9, 6.1 74.3, 1.5 64.4 C 0.0 44.6, 29.6 98.8, 22.4 92.8 C 33.4 73.1, 49.9 28.3, 57.4 37.8 C 39.9 36.6, 8.2 60.6, 4.5 64.0 C 9.7 81.7, 80.0 19.3, 68.4 27.5 Z" fill="none" fill-opacity="0.96" stroke="hsl(83, 65%, 44%)" stroke-width="1.14"  transform="translate(52.5 88.5) rotate(314.3) scale(0.56 1.50)" />
<path d="M 3.0 79.3 C 19.5 72.7, 24.4 13.7, 36.1 23.8 C 16.8 10.0, 94.9 3.9, 88.0 18.0 C 95.8 23.5, 14.8 67.6, 15.3 81.4 C 18.6 69.6, 22.3 56.3, 20.7 41.5 C 22.9 33.6, 64.9 19.6, 69.2 11.7 C 83.5 14.3, 88.2 36.1, 95.7 31.3 Z" fill="hsl(106, 75%, 59%)" fill-opacity="0.95" stroke="none" stroke-width="2.83"  transform="translate(87.6 76.8) rotate(98.3) scale(1.08 1.49)" />
<path d="M 48.5 41.1 C 35.5 36.2, 91.6 97.3, 90.7 87.9 C 86.8 72.3, 14.9 42.4, 13.9 33.6 C 27.9 21.6, 72.3 42.1, 72.1 43.0 C 88.7 47.8, 22.6 98.5, 12.9 94.2 C 4.3 97.3, 40.4 90.1, 46.1 98.8 C 41.7 100.0, 17.7 93.0, 5.3 86.2 C 0.0 100.0, 0.0 30.5, 7.1 38.2 Z" fill="hsl(104, 72%, 65%)" fill-opacity="0.60" stroke="none" stroke-width="1.95"  transform="translate(85.8 62.8) rotate(236.4) scale(1.85 1.29)" />
<rect x="48.9" y="6.7" width="37.7" height="28.7" rx="5.5" fill="hsl(144, 86%, 72%)" fill-opacity="0.24"  filter="url(#f1)" transform="translate(24.2 79.2) rotate(195.4) scale(1.13 1.48)" />
<rect x="37.1" y="32.7" width="39.8" height="31.7" rx="16.6" fill="hsl(106, 75%, 59%)" fill-opacity="0.82" stroke="hsl(322, 74%, 44%)" stroke-width="4.5" filter="url(#f1)" transform="translate(37.6 43.6) rotate(285.8) scale(0.97 1.92)" />
<circle cx="23.1" cy="82.4" r="10.7" fill="hsl(2, 82%, 55%)" fill-opacity="0.58"  transform="translate(34.6 1.5) rotate(316.7) scale(1.94 1.36)" />
<rect x="28.0" y="2.4" width="45.9" height="16.4" rx="0" fill="hsl(183, 71%, 60%)" fill-opacity="0.78"   transform="translate(63.8 49.3) rotate(37.5) scale(1.48 1.98)" />
<path d="M 33.7 65.0 C 15.0 54.9, 82.6 53.3, 73.6 52.3 C 72.7 45.9, 3.8 32.7, 1.9 43.0 C 0.0 30.4, 26.2 100.0, 13.5 90.4 C 30.7 79.4, 69.2 34.4, 69.0 43.4 C 80.8 28.8, 31.9 9.5, 33.9 16.5 C 53.1 13.2, 61.0 0.0, 54.0 9.0 C 52.4 11.1, 43.7 85.8, 37.1 82.7 C 37.9 72.8, 40.2 44.8, 54.5 59.3 Z" fill="none" fill-opacity="0.30" stroke="hsl(290, 83%, 63%)" stroke-width="2.08"  transform="translate(55.8 77.0) rotate(329.3) scale(1.28 1.20)" />
<path d="M 50.6 0.7 C 40.6 0.0, 47.5 77.0, 51.0 63.6 C 31.0 44.4, 84.1 60.7, 92.1 63.6 C 79.8 63.6, 86.2 40.5, 90.5 49.1 C 100.0 60.8, 47.0 74.3, 54.4 79.3 C 67.2 65.8, 75.4 50.9, 86.1 45.7 C 88.0 29.5, 65.3 66.1, 79.6 68.4 C 63.8 59.3, 1.7 3.7, 13.0 7.7 C 32.8 11.7, 26.0 86.7, 27.9 78.2 C 11.6 80.8, 93.1 11.1, 89.3 11.9 C 87.4 11.8, 75.6 31.1, 63.2 41.3 Z" fill="hsl(290, 83%, 63%)" fill-opacity="0.57" stroke="none" stroke-width="3.79"  transform="translate(25.7 78.9) rotate(47.5) scale(1.73 1.46)" />
<path d="M 95.4 10.0 C 78.3 0.0, 35.8 59.0, 24.2 48.2 C 39.2 53.8, 71.6 100.0, 78.7 94.7 C 80.3 87.2, 31.3 55.4, 42.1 58.0 C 43.2 75.0, 24.8 5.7, 38.7 4.9 C 54.6 12.7, 33.2 8.0, 22.3 8.3 C 19.7 9.0, 33.0 68.7, 31.6 56.4 Z" fill="hsl(290, 83%, 63%)" fill-opacity="0.82" stroke="none" stroke-width="4.97"  transform="translate(16.5 44.0) rotate(131.1) scale(1.31 0.57)" />
<path d="M 54.2 75.7 C 42.7 58.5, 64.7 82.3, 50.7 90.1 C 66.9 87.2, 62.0 66.3, 56.3 59.8 C 47.6 45.6, 0.6 95.1, 10.7 85.3 C 16.8 70.1, 0.0 9.6, 2.5 19.2 C 0.9 31.8, 5.4 45.9, 1.2 34.3 C 0.0 39.3, 73.1 80.5, 67.8 89.4 C 77.2 74.8, 9.4 72.5, 17.3 84.5 C 29.1 100.0, 98.9 44.0, 95.0 52.1 C 90.6 34.4, 43.4 84.2, 33.2 91.5 Z" fill="hsl(106, 75%, 59%)" fill-opacity="0.69" stroke="none" stroke-width="5.06"  transform="translate(12.1 48.8) rotate(32.6) scale(1.02 0.75)" />
<circle cx="47.0" cy="22.7" r="6.0" fill="url(#g0)" fill-opacity="0.72"   />
<circle cx="7.4" cy="32.5" r="5.8" fill="hsl(290, 83%, 63%)" fill-opacity="0.92"  transform="translate(72.8 5.2) rotate(242.8) scale(1.84 0.70)" />
<rect x="48.9" y="28.6" width="49.7" height="12.7" rx="0" fill="hsl(144, 86%, 72%)" fill-opacity="0.82"   transform="translate(68.0 32.7) rotate(210.8) scale(0.73 1.28)" />
<rect x="54.9" y="60.4" width="21.7" height="30.0" rx="1.4" fill="none" fill-opacity="0.81"   transform="translate(63.3 40.4) rotate(133.0) scale(1.06 0.53)" />
<rect x="3.3" y="11.7" width="38.4" height="23.1" rx="4.0" fill="none" fill-opacity="0.38" stroke="hsl(242, 72%, 49%)" stroke-width="1.5"  transform="translate(87.4 63.4) rotate(58.1) scale(1.00 0.60)" />
<path d="M 79.7 10.3 C 97.6 24.8, 65.7 10.4, 59.6 10.2 C 61.1 0.0, 63.9 21.1, 70.1 14.9 C 63.4 17.3, 39.9 41.5, 48.5 50.8 C 56.5 60.6, 75.1 100.0, 68.7 95.0 C 83.3 100.0, 22.3 72.9, 31.3 71.1 C 32.0 66.6, 35.4 6.2, 21.0 16.7 C 4.6 35.3, 40.7 30.6, 44.2 35.0 C 60.3 52.0, 75.2 70.9, 82.7 73.4 C 87.2 76.5, 1.8 14.2, 12.8 7.8 C 25.5 0.0, 64.8 65.0, 50.1 60.0 Z" fill="hsl(183, 71%, 60%)" fill-opacity="0.59" stroke="none" stroke-width="1.11"  transform="translate(16.4 8.0) rotate(163.9) scale(1.66 1.55)" />
<path d="M 39.4 65.8 C 48.3 55.5, 88.8 20.7, 99.6 12.9 C 100.0 20.2, 48.4 3.9, 43.3 1.0 C 31.3 0.0, 62.5 30.8, 57.4 22.0 C 63.3 32.9, 87.1 82.9, 83.0 83.3 C 70.8 94.2, 83.9 28.2, 86.7 15.2 C 71.5 4.5, 44.6 67.3, 36.3 70.9 C 48.8 67.4, 52.5 42.6, 56.4 38.0 C 39.7 39.5, 76.5 29.2, 88.6 28.3 C 100.0 27.4, 69.1 25.5, 74.7 17.6 C 57.7 0.6, 92.7 67.6, 99.4 54.1 Z" fill="none" fill-opacity="0.89" stroke="hsl(322, 74%, 44%)" stroke-width="3.08"  transform="translate(8.7 29.0) rotate(251.4) scale(1.63 1.75)" />
<path d="M 29.3 9.8 C 10.6 16.5, 50.4 70.3, 49.2 63.1 C 38.0 67.2, 0.0 71.0, 5.7 63.3 C 5.8 78.9, 66.0 92.7, 64.2 92.2 C 72.2 76.6, 21.9 100.0, 10.6 93.5 C 18.7 81.2, 49.3 91.9, 35.4 89.7 C 50.4 99.6, 95.7 9.8, 91.8 4.4 Z" fill="none" fill-opacity="0.38" stroke="hsl(86, 72%, 68%)" stroke-width="4.97"  transform="translate(22.9 52.0) rotate(0.4) scale(1.06 1.54)" />
<path d="M 92.6 39.6 C 100.0 44.3, 14.4 7.1, 23.5 17.3 C 33.3 8.7, 9.9 69.3, 4.0 82.1 C 19.8 75.9, 5.0 27.9, 10.7 19.6 C 0.6 20.0, 90.0 79.0, 79.2 84.4 C 77.6 100.0, 84.9 36.3, 79.7 40.6 C 63.8 35.2, 14.8 56.5, 25.3 44.7 C 23.0 36.1, 45.4 47.5, 53.0 58.3 C 64.8 41.0, 64.0 58.1, 50.0 63.2 C 45.4 81.7, 77.7 35.1, 71.4 28.9 C 90.9 27.0, 81.4 68.3, 73.3 57.3 Z" fill="hsl(40, 53%, 69%)" fill-opacity="0.35" stroke="none" stroke-width="3.00"  transform="translate(86.5 53.1) rotate(218.7) scale(1.59 1.62)" />
<path d="M 37.6 27.7 C 22.0 17.3, 23.1 31.2, 21.9 43.6 C 38.1 55.6, 69.5 89.7, 83.3 89.2 C 90.3 100.0, 82.2 83.3, 91.5 91.7 C 88.9 82.0, 38.5 35.4, 31.5 36.2 C 14.4 39.1, 52.4 67.5, 64.7 80.0 C 47.2 99.7, 94.2 56.9, 91.5 47.8 C 74.6 58.5, 53.2 25.4, 48.8 34.0 Z" fill="hsl(322, 74%, 44%)" fill-opacity="0.68" stroke="none" stroke-width="3.19"  transform="translate(97.1 88.1) rotate(267.5) scale(0.55 0.76)" />
<rect x="13.6" y="57.3" width="45.0" height="20.1" rx="0" fill="hsl(242, 72%, 49%)" fill-opacity="0.84"  filter="url(#f1)" transform="translate(46.0 48.9) rotate(34.3) scale(1.80 0.53)" />
<rect x="22.1" y="51.6" width="28.3" height="20.4" rx="0" fill="hsl(40, 53%, 69%)" fill-opacity="0.78"  filter="url(#f1)" transform="translate(48.0 19.9) rotate(188.9) scale(1.14 1.03)" />
<path d="M 41.7 53.7 C 41.3 61.3, 96.9 16.3, 85.9 22.9 C 80.8 33.7, 61.6 72.2, 57.8 72.8 C 51.4 61.6, 49.9 76.5, 57.9 69.5 C 68.2 82.1, 82.1 65.6, 82.2 73.8 C 77.6 88.9, 100.0 46.3, 94.8 49.6 C 100.0 65.4, 82.8 19.9, 90.7 8.1 Z" fill="none" fill-opacity="0.76" stroke="hsl(144, 86%, 72%)" stroke-width="1.21"  transform="translate(6.9 23.6) rotate(302.9) scale(1.49 1.38)" />
<rect x="49.1" y="33.7" width="48.2" height="37.2" rx="10.6" fill="none" fill-opacity="0.57"   transform="translate(33.9 48.4) rotate(270.2) scale(1.35 1.29)" />
<path d="M 96.7 59.5 C 100.0 79.3, 10.9 51.1, 13.6 58.4 C 4.4 63.9, 80.3 58.4, 67.5 65.4 C 61.8 76.2, 48.1 27.9, 44.4 21.2 C 35.1 5.8, 33.2 87.5, 35.7 84.1 C 42.8 72.3, 94.8 69.2, 96.7 59.3 C 83.0 41.1, 48.5 39.4, 46.8 39.9 C 55.4 39.2, 57.2 30.1, 70.7 32.6 Z" fill="none" fill-opacity="0.89" stroke="hsl(106, 75%, 59%)" stroke-width="1.95"   />
<rect x="5.4" y="31.4" width="47.3" height="26.8" rx="0" fill="hsl(106, 75%, 59%)" fill-opacity="0.30"   transform="translate(1.4 68.2) rotate(20.4) scale(0.85 0.81)" />
<path d="M 33.6 3.1 C 19.8 0.0, 91.2 54.3, 80.4 43.2 C 85.8 56.0, 74.6 37.3, 81.3 24.8 C 81.3 18.6, 89.7 33.3, 81.5 34.1 C 92.0 18.7, 55.7 63.3, 40.9 55.3 C 22.0 40.1, 92.0 78.2, 77.2 85.8 C 82.7 88.4, 56.1 15.7, 67.9 22.3 Z" fill="none" fill-opacity="0.33" stroke="hsl(83, 65%, 44%)" stroke-width="4.18"   />
<path d="M 85.7 54.8 C 99.8 52.3, 54.4 75.2, 60.9 89.5 C 53.5 100.0, 40.3 52.6, 41.6 65.3 C 28.1 56.5, 81.7 38.8, 66.8 50.5 C 77.9 68.7, 30.2 75.8, 37.0 71.4 C 38.0 57.8, 32.3 46.0, 45.7 54.8 C 60.5 67.5, 0.0 24.4, 0.2 24.1 C 0.0 34.6, 92.0 62.8, 89.5 58.0 C 86.4 50.5, 13.2 21.6, 5.3 21.2 Z" fill="hsl(106, 75%, 59%)" fill-opacity="0.42" stroke="none" stroke-width="3.11" filter="url(#f1)"  />
<path d="M 12.3 68.5 C 18.3 51.6, 95.9 83.3, 92.2 70.6 C 83.4 75.1, 62.3 19.1, 61.7 22.5 C 72.6 5.6, 62.5 97.4, 57.6 90.6 C 65.8 89.1, 71.6 37.2, 71.4 38.6 C 71.8 36.8, 39.9 89.4, 32.6 89.0 C 41.1 95.1, 37.0 93.5, 24.4 98.7 C 10.0 100.0, 50.6 17.3, 61.9 9.1 C 67.2 11.5, 100.0 52.2, 91.6 66.8 C 98.1 47.7, 90.5 8.2, 81.9 10.8 C 100.0 0.0, 32.7 75.8, 30.6 62.8 Z" fill="hsl(151, 70%, 62%)" fill-opacity="0.42" stroke="none" stroke-width="1.29"  transform="translate(66.5 26.4) rotate(215.0) scale(0.99 1.44)" />
<rect x="72.8" y="28.2" width="25.8" height="24.0" rx="7.4" fill="none" fill-opacity="0.74" stroke="hsl(242, 72%, 49%)" stroke-width="2.0"  transform="translate(2.8 43.2) rotate(238.0) scale(1.00 1.73)" />
<rect x="46.2" y="17.1" width="27.2" height="26.4" rx="10.7" fill="none" fill-opacity="0.67" stroke="hsl(290, 83%, 63%)" stroke-width="1.0"  transform="translate(59.4 12.3) rotate(106.2) scale(1.40 0.66)" />
<rect x="34.4" y="26.6" width="48.1" height="27.3" rx="0" fill="none" fill-opacity="0.94"   transform="translate(84.0 84.8) rotate(185.9) scale(1.98 1.19)" />
<path d="M 12.4 61.4 C 32.0 70.3, 10.2 10.0, 21.1 1.6 C 39.6 9.2, 39.0 8.7, 30.2 12.9 C 36.8 19.7, 61.5 55.0, 76.0 51.1 C 65.2 56.7, 51.7 100.0, 56.9 96.4 C 66.9 100.0, 97.4 95.6, 97.8 91.3 C 100.0 91.6, 99.9 48.5, 89.2 59.4 Z" fill="hsl(144, 86%, 72%)" fill-opacity="0.81" stroke="none" stroke-width="0.96"   />
<rect x="3.6" y="18.4" width="37.3" height="31.3" rx="0" fill="none" fill-opacity="0.58"    />
<path d="M 24.6 32.6 C 12.7 29.1, 62.9 65.2, 48.7 70.0 C 67.4 84.3, 83.2 39.4, 85.9 49.7 C 77.0 34.4, 50.9 8.3, 35.9 10.3 C 36.6 17.2, 61.1 27.9, 56.8 23.7 C 42.1 14.1, 65.7 0.0, 54.4 5.9 C 49.5 0.0, 0.0 38.0, 3.0 40.7 C 11.8 25.2, 36.1 59.7, 29.7 54.5 C 23.5 36.2, 95.7 85.1, 98.2 89.4 C 83.3 100.0, 9.3 27.1, 1.0 18.9 C 0.0 34.7, 58.7 43.6, 46.6 56.6 Z" fill="none" fill-opacity="0.62" stroke="hsl(83, 65%, 44%)" stroke-width="5.11"  transform="translate(32.8 3.4) rotate(82.7) scale(1.11 1.65)" />
<circle cx="81.9" cy="76.9" r="3.4" fill="hsl(86, 72%, 68%)" fill-opacity="0.89" filter="url(#f1)" transform="translate(12.3 91.2) rotate(131.2) scale(1.56 1.12)" />
<path d="M 35.2 92.2 C 24.0 87.8, 56.0 69.8, 43.8 69.1 C 59.6 66.3, 88.1 51.7, 98.6 45.1 C 100.0 49.3, 78.6 43.7, 72.2 55.6 C 75.6 39.0, 58.1 44.2, 51.6 33.1 C 50.1 44.1, 69.8 36.5, 76.3 44.9 C 61.6 26.0, 21.3 66.1, 31.1 57.9 C 30.8 64.6, 61.1 61.2, 59.1 58.5 C 76.5 40.3, 35.8 4.5, 49.3 2.2 C 59.1 3.3, 19.6 95.6, 4.8 85.4 C 17.1 93.7, 100.0 85.5, 87.9 96.2 Z" fill="none" fill-opacity="0.66" stroke="hsl(86, 72%, 68%)" stroke-width="5.24"  transform="translate(49.2 88.4) rotate(193.7) scale(1.93 1.12)" />
<rect x="9.0" y="53.1" width="40.8" height="29.3" rx="0" fill="hsl(40, 53%, 69%)" fill-opacity="0.34" stroke="hsl(104, 72%, 65%)" stroke-width="3.3" filter="url(#f1)" transform="translate(88.6 93.1) rotate(272.7) scale(0.76 0.53)" />
<path d="M 10.5 41.6 C 0.0 33.5, 48.0 32.2, 61.8 37.6 C 57.4 29.4, 36.0 17.9, 45.0 27.8 C 32.3 33.0, 7.5 12.8, 18.3 22.4 C 27.9 32.4, 41.9 42.5, 43.9 43.4 C 56.3 53.7, 60.4 78.6, 65.6 70.9 C 47.2 72.3, 72.3 63.9, 85.3 52.2 C 100.0 32.5, 55.0 86.0, 43.0 81.8 C 62.3 95.7, 68.9 9.2, 67.8 1.1 C 84.5 0.2, 39.8 50.8, 39.0 44.3 C 50.2 50.2, 100.0 73.3, 98.4 81.7 Z" fill="none" fill-opacity="0.95" stroke="hsl(322, 74%, 44%)" stroke-width="1.05"  transform="translate(81.9 45.8) rotate(271.9) scale(1.15 1.73)" />
<path d="M 57.6 63.8 C 49.0 53.8, 91.7 53.3, 94.4 48.4 C 100.0 66.2, 97.6 84.0, 94.0 86.5 C 99.3 85.5, 100.0 30.8, 94.1 33.9 C 100.0 33.4, 59.7 9.6, 45.3 12.6 C 29.5 15.2, 89.4 3.2, 80.4 7.2 C 90.7 0.0, 0.0 58.4, 1.9 47.0 C 3.9 57.3, 72.6 47.3, 65.0 57.6 C 73.9 40.1, 40.6 60.0, 27.9 70.4 C 32.7 88.8, 0.0 76.5, 1.1 79.9 C 7.9 72.9, 100.0 92.2, 97.9 99.0 Z" fill="none" fill-opacity="0.53" stroke="hsl(104, 72%, 65%)" stroke-width="4.98"   />
<rect x="50.6" y="48.7" width="35.4" height="24.3" rx="0" fill="none" fill-opacity="0.23"    />
<path d="M 86.2 62.9 C 99.2 50.9, 26.3 56.0, 26.9 45.9 C 7.0 57.0, 9.9 100.0, 10.4 93.7 C 25.7 100.0, 100.0 58.0, 94.1 67.3 C 100.0 67.1, 44.2 57.3, 35.4 64.6 C 51.5 83.9, 91.6 46.8, 89.2 54.9 C 99.0 36.3, 39.4 38.3, 46.7 26.0 C 46.7 9.4, 25.0 58.5, 29.8 63.7 C 16.7 53.5, 19.7 29.5, 12.8 15.5 Z" fill="hsl(106, 75%, 59%)" fill-opacity="0.37" stroke="none" stroke-width="2.24"   />
<path d="M 64.0 73.2 C 82.9 63.6, 5.3 24.6, 3.6 23.0 C 16.2 7.8, 13.1 38.2, 26.4 31.5 C 15.6 48.2, 98.6 47.7, 98.3 54.1 C 100.0 58.1, 52.1 41.6, 63.2 31.7 C 79.3 35.7, 74.0 25.4, 62.7 26.7 C 71.5 37.4, 81.8 79.9, 81.4 73.3 Z" fill="hsl(290, 83%, 63%)" fill-opacity="0.82" stroke="none" stroke-width="4.20" filter="url(#f1)" transform="translate(64.2 34.6) rotate(280.9) scale(0.96 0.82)" />
<rect x="46.7" y="17.6" width="36.8" height="37.5" rx="4.3" fill="none" fill-opacity="0.20"   transform="translate(97.6 43.1) rotate(175.8) scale(0.74 1.31)" />
<path d="M 42.0 0.3 C 40.3 19.9, 84.6 76.0, 92.7 72.6 C 100.0 90.2, 41.4 22.0, 43.5 16.7 C 56.1 32.5, 0.0 27.6, 5.4 29.3 C 15.9 36.3, 92.4 13.3, 90.1 3.7 C 100.0 6.9, 40.8 24.8, 32.5 12.9 C 41.7 12.1, 63.0 35.9, 74.6 34.9 C 84.5 19.0, 34.4 4.4, 24.4 2.2 C 29.4 0.0, 13.2 79.2, 20.4 93.7 Z" fill="none" fill-opacity="0.44" stroke="hsl(151, 70%, 62%)" stroke-width="3.89"   />
<circle cx="85.2" cy="26.3" r="14.7" fill="hsl(242, 72%, 49%)" fill-opacity="0.78"  transform="translate(24.2 94.8) rotate(170.2) scale(1.38 1.90)" />
<path d="M 96.0 27.1 C 100.0 38.1, 4.0 4.5, 4.4 4.7 C 0.0 16.3, 65.6 68.4, 79.5 69.8 C 71.7 76.6, 79.7 54.4, 67.4 47.2 C 61.6 61.0, 4.8 32.9, 9.1 46.9 C 17.9 62.9, 77.5 38.3, 65.0 27.3 C 78.2 31.8, 25.3 42.6, 22.8 32.1 C 37.7 12.7, 39.6 22.7, 43.6 18.7 C 45.1 20.5, 32.3 1.1, 33.6 2.8 C 51.4 0.0, 83.3 39.7, 85.4 47.2 Z" fill="hsl(151, 70%, 62%)" fill-opacity="0.38" stroke="none" stroke-width="2.41"  transform="translate(81.6 16.5) rotate(160.4) scale(1.58 0.55)" />
<path d="M 45.8 91.5 C 50.9 72.0, 67.8 37.9, 75.6 33.6 C 56.6 51.2, 65.9 81.1, 73.9 85.7 C 88.2 75.3, 17.7 33.9, 12.8 21.0 C 4.5 36.3, 55.5 0.0, 63.0 7.2 C 77.0 14.5, 63.9 2.9, 54.4 8.8 C 71.5 12.5, 14.6 91.8, 12.7 90.6 C 17.6 100.0, 89.0 67.8, 74.2 62.2 C 69.8 80.1, 67.4 21.7, 62.4 8.9 " fill="hsl(83, 65%, 44%)" fill-opacity="0.28" stroke="none" stroke-width="2.12"  transform="translate(96.1 55.6) rotate(326.4) scale(1.96 0.97)" />
<circle cx="40.4" cy="76.3" r="15.2" fill="hsl(86, 72%, 68%)" fill-opacity="0.46"  transform="translate(86.1 94.7) rotate(28.9) scale(0.56 1.01)" />
<rect x="54.2" y="70.8" width="33.3" height="11.7" rx="0" fill="none" fill-opacity="0.47" stroke="hsl(151, 70%, 62%)" stroke-width="1.3"  transform="translate(99.0 32.7) rotate(288.6) scale(1.73 1.84)" />
<path d="M 89.2 4.0 C 74.0 0.0, 87.2 0.0, 95.2 6.1 C 90.0 5.2, 91.2 87.1, 83.3 93.7 C 89.3 81.8, 46.6 49.0, 47.0 37.5 C 39.8 42.9, 63.1 29.9, 54.1 41.1 C 47.2 51.1, 28.6 71.0, 18.2 57.0 C 0.0 41.0, 48.1 79.6, 61.4 90.5 C 47.1 94.1, 47.6 63.0, 61.1 66.4 " fill="hsl(2, 82%, 55%)" fill-opacity="0.37" stroke="none" stroke-width="1.84"  transform="translate(88.1 91.3) rotate(84.9) scale(1.41 1.73)" />
<circle cx="80.3" cy="71.8" r="14.5" fill="hsl(83, 65%, 44%)" fill-opacity="0.81"  transform="translate(24.1 60.1) rotate(123.5) scale(1.62 1.27)" />
<circle cx="74.2" cy="94.0" r="6.4" fill="url(#g0)" fill-opacity="0.71" filter="url(#f1)" transform="translate(30.9 4.4) rotate(102.5) scale(1.68 0.59)" />
<circle cx="65.8" cy="5.9" r="3.3" fill="url(#g1)" fill-opacity="0.73" filter="url(#f1)" transform="translate(93.9 35.7) rotate(68.6) scale(0.75 1.94)" />
<path d="M 87.2 49.2 C 77.9 51.9, 45.9 30.1, 58.4 21.5 C 52.5 10.3, 49.8 100.0, 56.1 100.0 C 67.6 100.0, 30.8 41.0, 24.9 55.8 C 39.1 54.8, 20.6 32.5, 30.6 24.8 C 13.8 5.3, 58.7 0.0, 63.3 1.4 C 45.4 17.6, 18.9 88.9, 17.4 96.7 C 0.0 83.1, 31.5 10.7, 29.2 11.3 C 24.3 23.9, 60.0 12.3, 57.8 16.3 C 76.6 11.5, 98.3 43.5, 93.2 46.3 C 84.1 48.7, 43.3 78.7, 29.8 87.1 Z" fill="hsl(83, 65%, 44%)" fill-opacity="0.96" stroke="none" stroke-width="4.07"  transform="translate(92.8 73.7) rotate(322.0) scale(1.82 1.35)" />
<path d="M 16.6 93.0 C 19.0 100.0, 15.6 52.0, 15.5 43.8 C 33.6 32.7, 67.4 46.2, 63.9 38.9 C 73.5 43.2, 79.5 23.3, 79.0 18.4 C 60.3 8.6, 90.3 6.7, 75.7 8.3 C 75.1 16.4, 60.5 41.5, 65.1 44.4 C 66.2 40.4, 2.6 54.6, 6.8 47.7 Z" fill="none" fill-opacity="0.31" stroke="hsl(144, 86%, 72%)" stroke-width="3.57"  transform="translate(4.2 94.9) rotate(218.5) scale(1.26 0.92)" />
<circle cx="77.2" cy="2.2" r="2.6" fill="url(#g0)" fill-opacity="0.41"  transform="translate(93.3 69.8) rotate(304.8) scale(1.38 1.35)" />
<path d="M 3.8 30.8 C 0.0 35.8, 81.1 77.1, 83.4 67.5 C 73.9 50.2, 7.0 97.6, 21.5 99.4 C 32.5 92.4, 68.8 50.4, 57.3 36.3 C 73.7 56.2, 60.8 0.0, 63.3 4.0 C 46.3 0.0, 98.9 40.6, 93.2 33.1 C 73.4 32.5, 49.3 1.9, 58.3 8.7 " fill="hsl(86, 72%, 68%)" fill-opacity="0.79" stroke="none" stroke-width="4.38"   />
<rect x="55.3" y="42.1" width="40.5" height="28.7" rx="6.1" fill="hsl(151, 70%, 62%)" fill-opacity="0.32"    />
<path d="M 37.1 69.3 C 41.8 80.3, 34.3 4.5, 33.0 4.5 C 45.6 22.4, 13.7 63.6, 18.2 76.5 C 14.3 92.6, 47.8 20.0, 60.0 25.6 C 71.1 27.7, 59.4 86.9, 71.6 98.2 C 82.5 100.0, 29.6 48.9, 42.6 55.5 C 29.9 66.6, 63.5 61.9, 52.8 75.3 C 49.4 90.0, 39.2 36.3, 52.2 44.1 C 52.6 48.4, 11.0 100.0, 5.3 90.7 Z" fill="hsl(144, 86%, 72%)" fill-opacity="0.82" stroke="none" stroke-width="5.15"  transform="translate(91.5 17.0) rotate(291.0) scale(0.72 1.78)" />
<rect x="20.0" y="63.3" width="37.4" height="20.7" rx="6.2" fill="hsl(322, 74%, 44%)" fill-opacity="0.69"  filter="url(#f1)" transform="translate(81.4 59.4) rotate(349.6) scale(1.85 1.37)" />
<rect x="57.5" y="14.3" width="42.4" height="21.4" rx="7.8" fill="none" fill-opacity="0.85"   transform="translate(84.2 93.8) rotate(162.2) scale(0.84 0.69)" />
<path d="M 36.8 13.1 C 50.8 31.3, 38.4 90.5, 42.9 86.6 C 34.6 83.0, 35.6 81.8, 47.1 71.1 C 51.1 80.9, 61.6 7.2, 72.2 21.1 C 91.7 25.4, 61.7 31.8, 65.2 21.2 C 71.0 33.8, 12.6 82.9, 5.1 92.0 C 4.4 100.0, 54.6 0.0, 56.4 0.6 Z" fill="hsl(322, 74%, 44%)" fill-opacity="0.57" stroke="none" stroke-width="3.25"  transform="translate(10.6 43.8) rotate(355.4) scale(1.31 0.92)" />
<circle cx="48.6" cy="86.3" r="7.1" fill="hsl(290, 83%, 63%)" fill-opacity="0.53"  transform="translate(78.7 78.9) rotate(1.4) scale(1.35 1.82)" />
<path d="M 80.9 22.3 C 96.2 38.7, 94.3 7.8, 90.4 16.8 C 94.8 8.6, 0.0 63.7, 1.5 62.1 C 0.0 78.4, 34.0 36.2, 24.7 50.8 C 18.1 45.6, 61.5 63.3, 75.1 74.3 C 84.0 76.4, 0.0 76.8, 9.4 81.1 C 2.5 68.9, 69.5 21.7, 76.6 25.8 C 74.3 43.3, 58.7 13.0, 62.3 12.6 Z" fill="hsl(86, 72%, 68%)" fill-opacity="0.88" stroke="none" stroke-width="4.46" filter="url(#f1)" transform="translate(28.6 72.6) rotate(56.6) scale(1.01 1.96)" />
<path d="M 69.5 93.8 C 52.5 100.0, 65.5 12.6, 76.2 6.1 C 66.3 7.8, 11.9 81.1, 22.4 79.9 C 20.5 88.4, 36.0 0.0, 38.2 4.7 C 45.0 18.0, 9.7 0.0, 21.0 6.8 C 21.4 0.0, 0.4 22.4, 4.5 26.2 C 0.0 34.2, 1.6 43.5, 8.4 46.0 C 8.3 34.3, 49.7 12.2, 52.0 16.8 C 47.4 4.7, 27.7 17.9, 27.0 5.0 C 42.8 22.2, 100.0 50.8, 90.1 50.1 C 86.6 48.5, 67.1 52.8, 81.4 64.2 Z" fill="hsl(2, 82%, 55%)" fill-opacity="0.96" stroke="none" stroke-width="3.75"  transform="translate(48.6 41.8) rotate(159.3) scale(1.87 1.85)" />
<path d="M 44.0 4.6 C 47.0 10.6, 54.7 44.2, 68.1 58.5 C 74.1 45.8, 15.5 8.3, 1.3 16.0 C 21.1 31.2, 46.3 78.1, 36.7 79.2 C 36.8 75.7, 46.6 0.0, 40.0 6.2 C 56.8 0.0, 89.2 13.9, 84.9 27.0 C 75.7 32.0, 40.3 8.0, 52.5 13.6 C 48.5 12.9, 32.9 16.9, 46.4 11.3 C 26.8 3.6, 59.4 0.0, 63.2 6.9 C 48.0 0.0, 0.0 19.3, 5.7 24.4 Z" fill="none" fill-opacity="0.42" stroke="hsl(106, 75%, 59%)" stroke-width="4.03"  transform="translate(4.1 97.8) rotate(116.7) scale(0.56 0.75)" />
<path d="M 45.1 64.7 C 62.2 76.5, 31.9 4.9, 18.3 19.5 C 30.8 20.0, 7.3 61.1, 14.2 53.1 C 17.9 54.6, 76.5 83.4, 69.7 86.0 C 54.6 82.4, 5.1 90.8, 1.6 78.9 C 0.0 76.7, 100.0 25.9, 91.3 40.5 C 85.8 56.2, 77.6 76.4, 89.4 69.5 C 90.6 58.1, 51.1 9.2, 42.0 3.8 C 49.0 0.0, 100.0 15.6, 90.0 25.8 C 95.3 40.1, 33.1 56.6, 27.5 41.7 Z" fill="hsl(86, 72%, 68%)" fill-opacity="0.27" stroke="none" stroke-width="3.34"  transform="translate(4.9 44.5) rotate(239.3) scale(1.30 0.58)" />
<rect x="8.8" y="3.3" width="49.6" height="35.9" rx="6.8" fill="hsl(242, 72%, 49%)" fill-opacity="0.50"    />
<path d="M 68.9 86.1 C 69.7 74.6, 19.4 86.2, 8.3 88.1 C 0.0 74.2, 65.5 6.9, 78.9 19.1 C 76.9 6.5, 38.7 41.6, 49.9 43.4 C 31.8 26.0, 10.9 24.8, 19.0 13.7 C 11.3 27.5, 61.0 28.7, 63.7 33.1 C 52.4 38.0, 54.7 98.1, 59.4 87.4 C 44.9 72.9, 39.1 87.2, 33.5 74.5 C 45.1 64.1, 18.8 0.0, 4.1 2.7 C 14.4 2.6, 60.0 81.7, 51.6 96.5 Z" fill="none" fill-opacity="0.92" stroke="hsl(242, 72%, 49%)" stroke-width="1.45"  transform="translate(4.4 25.0) rotate(173.8) scale(0.70 1.07)" />
<path d="M 69.0 19.0 C 50.1 14.4, 4.6 23.2, 4.7 21.4 C 2.3 15.0, 55.4 43.7, 63.3 33.9 C 60.7 35.5, 100.0 82.4, 91.9 85.5 C 100.0 89.0, 20.2 96.8, 8.2 93.6 C 0.0 94.9, 49.4 92.1, 60.4 96.8 C 45.4 84.4, 59.2 12.1, 72.9 11.4 C 60.6 0.0, 53.7 70.3, 46.0 75.7 Z" fill="none" fill-opacity="0.92" stroke="hsl(322, 74%, 44%)" stroke-width="4.37"  transform="translate(32.1 8.4) rotate(185.0) scale(1.83 0.78)" />
<rect x="23.6" y="64.3" width="37.9" height="31.8" rx="0" fill="hsl(86, 72%, 68%)" fill-opacity="0.78" stroke="hsl(2, 82%, 55%)" stroke-width="1.3"  transform="translate(61.6 34.2) rotate(301.1) scale(0.81 0.74)" />
<rect x="49.8" y="18.0" width="48.9" height="34.1" rx="0" fill="none" fill-opacity="0.75" stroke="hsl(151, 70%, 62%)" stroke-width="1.2"   />
<circle cx="42.6" cy="4.3" r="5.9" fill="hsl(144, 86%, 72%)" fill-opacity="0.43"  transform="translate(67.5 7.8) rotate(234.8) scale(1.88 1.49)" />
<path d="M 37.3 54.0 C 54.6 51.3, 31.3 49.1, 22.6 49.2 C 17.6 62.3, 15.4 77.9, 8.6 66.7 C 18.9 58.2, 0.0 33.2, 12.1 30.6 C 14.3 43.9, 79.0 72.3, 68.4 64.5 C 75.7 61.8, 38.8 0.8, 50.9 11.0 C 52.2 0.0, 75.6 56.6, 89.6 64.0 C 77.6 49.9, 88.3 20.7, 99.5 23.5 C 91.2 10.5, 0.0 93.8, 1.7 98.6 Z" fill="none" fill-opacity="0.71" stroke="hsl(86, 72%, 68%)" stroke-width="4.74"  transform="translate(54.3 50.1) rotate(159.4) scale(1.95 0.59)" />
<path d="M 7.8 79.5 C 0.0 63.4, 33.0 87.1, 21.1 98.7 C 24.0 100.0, 60.3 89.4, 50.0 95.8 C 51.8 100.0, 52.3 68.4, 57.8 78.3 C 59.2 73.7, 75.5 22.8, 89.5 36.2 C 100.0 22.4, 87.5 40.4, 94.5 48.1 C 78.0 44.7, 3.1 92.8, 0.0 94.5 C 2.1 100.0, 0.0 69.2, 2.5 56.9 Z" fill="none" fill-opacity="0.66" stroke="hsl(106, 75%, 59%)" stroke-width="1.55"  transform="translate(89.5 65.6) rotate(264.2) scale(1.22 1.18)" />
<path d="M 47.8 57.3 C 31.5 62.9, 52.2 92.1, 50.6 82.0 C 60.3 63.6, 67.0 0.0, 53.8 2.4 C 58.4 0.3, 18.7 86.7, 28.7 92.7 C 17.7 86.4, 3.6 51.8, 2.4 65.2 C 0.0 76.6, 79.0 23.6, 78.2 26.7 C 66.9 6.8, 25.5 45.4, 13.1 39.0 C 12.3 31.8, 34.2 11.3, 48.4 7.8 C 39.1 0.0, 33.6 58.4, 47.2 46.1 C 33.6 59.7, 35.3 26.9, 43.9 28.2 C 63.7 43.4, 21.2 89.2, 10.6 92.8 Z" fill="hsl(104, 72%, 65%)" fill-opacity="0.66" stroke="none" stroke-width="2.60"  transform="translate(7.6 15.1) rotate(63.9) scale(1.24 1.29)" />
<circle cx="90.7" cy="19.8" r="3.9" fill="url(#g0)" fill-opacity="0.81" filter="url(#f1)" transform="translate(95.2 69.6) rotate(283.8) scale(0.93 0.91)" />
<circle cx="39.9" cy="0.4" r="0.6" fill="hsl(151, 70%, 62%)" fill-opacity="0.97"  transform="translate(89.0 65.5) rotate(352.5) scale(0.74 1.14)" />
<path d="M 12.4 83.8 C 3.8 74.3, 89.9 34.3, 91.6 29.2 C 94.1 16.3, 47.3 63.8, 50.8 59.1 C 42.5 57.5, 100.0 64.7, 99.5 71.9 C 100.0 91.6, 100.0 0.1, 96.3 14.6 C 100.0 7.1, 71.7 29.4, 78.5 44.1 C 88.6 57.2, 92.4 100.0, 95.9 96.1 C 100.0 80.3, 0.0 78.3, 0.8 84.2 C 0.0 96.6, 56.6 93.8, 52.2 99.4 C 48.8 81.3, 21.9 96.4, 11.9 97.6 C 31.6 83.3, 74.6 54.4, 87.8 49.6 Z" fill="none" fill-opacity="0.43" stroke="hsl(83, 65%, 44%)" stroke-width="2.83"  transform="translate(27.4 37.8) rotate(40.8) scale(1.31 1.19)" />
<path d="M 38.9 76.4 C 25.0 93.4, 49.0 77.1, 50.5 90.6 C 32.9 80.2, 47.6 39.0, 53.5 35.0 C 68.0 36.8, 100.0 76.8, 91.0 72.1 C 100.0 64.6, 34.4 94.8, 28.4 86.9 C 38.5 71.9, 40.6 18.1, 48.0 14.4 C 61.1 0.0, 37.5 0.0, 35.2 9.0 C 37.3 9.1, 68.4 28.0, 61.1 38.1 Z" fill="hsl(183, 71%, 60%)" fill-opacity="0.36" stroke="none" stroke-width="1.86" filter="url(#f1)" transform="translate(99.5 2.7) rotate(16.6) scale(1.16 1.89)" />
<rect x="70.2" y="8.9" width="20.3" height="15.8" rx="17.3" fill="none" fill-opacity="0.71"    />
<rect x="54.9" y="36.2" width="33.9" height="28.3" rx="0" fill="none" fill-opacity="0.43"   transform="translate(62.1 1.8) rotate(298.3) scale(1.65 1.35)" />
<rect x="37.5" y="4.0" width="39.9" height="23.2" rx="0" fill="none" fill-opacity="0.26"   transform="translate(59.6 14.4) rotate(130.0) scale(1.08 0.92)" />
<path d="M 87.6 48.4 C 70.9 56.5, 2.8 13.9, 9.0 16.2 C 0.0 1.4, 12.7 86.4, 10.9 91.6 C 14.6 100.0, 34.3 35.5, 34.6 46.9 C 44.0 38.3, 29.8 72.9, 23.2 80.9 C 12.9 95.6, 67.9 36.5, 58.1 43.8 C 71.5 29.4, 2.4 10.6, 8.6 19.8 C 8.5 31.3, 32.8 27.2, 41.6 29.1 Z" fill="hsl(83, 65%, 44%)" fill-opacity="0.59" stroke="none" stroke-width="4.11"  transform="translate(64.6 46.6) rotate(352.0) scale(0.74 0.76)" />
<path d="M 87.3 60.7 C 75.6 61.4, 5.9 1.5, 20.4 0.7 C 8.3 13.6, 28.4 12.8, 30.0 2.1 C 39.8 15.0, 57.9 27.5, 54.5 31.2 C 35.4 30.6, 78.4 62.8, 86.6 53.5 C 69.4 69.9, 94.8 47.0, 86.0 43.1 C 73.4 23.7, 88.0 68.2, 87.7 54.9 C 69.4 36.6, 48.4 81.0, 39.5 76.2 C 58.7 94.2, 30.0 16.1, 32.3 3.6 C 50.8 2.7, 32.4 12.4, 47.4 6.8 Z" fill="none" fill-opacity="0.99" stroke="hsl(144, 86%, 72%)" stroke-width="2.99" filter="url(#f1)"  />
<path d="M 66.5 37.5 C 83.6 48.3, 81.6 96.0, 91.5 81.5 C 78.8 65.7, 53.4 0.0, 47.7 0.4 C 59.0 0.0, 81.8 37.7, 94.3 47.3 C 100.0 43.3, 77.1 51.1, 72.5 40.3 C 73.1 23.5, 10.1 27.2, 6.7 14.3 C 0.0 6.2, 99.1 73.5, 85.3 60.1 C 68.8 72.4, 31.4 94.3, 20.6 80.8 C 24.7 62.2, 17.3 58.3, 18.5 50.4 C 38.3 35.0, 33.9 0.7, 37.6 10.8 Z" fill="hsl(144, 86%, 72%)" fill-opacity="0.85" stroke="none" stroke-width="2.94"  transform="translate(78.9 30.6) rotate(214.8) scale(1.41 0.52)" />
<g opacity="0.041">
<rect x="0" y="0" width="1" height="100" fill="black" />
<rect x="22" y="0" width="1" height="100" fill="black" />
<rect x="44" y="0" width="1" height="100" fill="black" />
<rect x="66" y="0" width="1" height="100" fill="black" />
<rect x="88" y="0" width="1" height="100" fill="black" />
<rect x="0" y="0" width="100" height="1" fill="black" />
<rect x="0" y="22" width="100" height="1" fill="black" />
<rect x="0" y="44" width="100" height="1" fill="black" />
<rect x="0" y="66" width="100" height="1" fill="black" />
<rect x="0" y="88" width="100" height="1" fill="black" />
</g>

</svg>
