<?xml version="1.0" encoding="UTF-8"?>
<svg xmlns="http://www.w3.org/2000/svg" width="100" height="100" viewBox="0 0 100 100">
<defs>
<linearGradient id="g0" x1="0%" y1="0%" x2="100%" y2="100%">
<stop offset="0.0%" stop-color="hsl(106, 75%, 59%)" />
<stop offset="33.3%" stop-color="hsl(183, 71%, 60%)" />
<stop offset="66.7%" stop-color="hsl(242, 72%, 49%)" />
<stop offset="100.0%" stop-color="hsl(322, 74%, 44%)" />
</linearGradient>
<linearGradient id="g1" x1="0%" y1="0%" x2="100%" y2="100%">
<stop offset="0.0%" stop-color="hsl(290, 83%, 63%)" />
<stop offset="33.3%" stop-color="hsl(2, 82%, 55%)" />
<stop offset="66.7%" stop-color="hsl(86, 72%, 68%)" />
<stop offset="100.0%" stop-color="hsl(83, 65%, 44%)" />
</linearGradient>
<linearGradient id="g2" x1="0%" y1="0%" x2="100%" y2="100%">
<stop offset="0.0%" stop-color="hsl(40, 53%, 69%)" />
<stop offset="33.3%" stop-color="hsl(104, 72%, 65%)" />
<stop offset="66.7%" stop-color="hsl(144, 86%, 72%)" />
<stop offset="100.0%" stop-color="hsl(151, 70%, 62%)" />
</linearGradient>
</defs>

<path d="M 54.5 85.2 C 35.5 94.9, 89.0 95.9, 78.1 87.9 C 59.3 88.5, 5.6 99.1, 15.1 94.5 C 3.5 98.4, 27.0 41.6, 26.1 49.9 C 44.6 35.0, 32.1 34.3, 43.0 31.8 " fill="none" fill-opacity="0.88" stroke="hsl(183, 71%, 60%)" stroke-width="1.23"  transform="translate(54.3 41.1) rotate(317.7) scale(0.88 1.92)" />
<path d="M 80.3 16.9 C 80.1 27.8, 73.6 79.7, 75.9 79.1 C 83.2 64.1, 58.1 34.9, 51.3 45.1 C 33.1 26.6, 0.7 56.2, 7.1 60.1 C 15.0 63.2, 81.0 33.6, 95.2 40.3 C 78.2 42.9, 68.0 94.2, 57.9 81.4 Z" fill="hsl(322, 74%, 44%)" fill-opacity="0.82" stroke="none" stroke-width="0.88"   />
<rect x="19.8" y="57.1" width="35.3" height="16.8" rx="0" fill="none" fill-opacity="0.40"   transform="translate(83.1 65.0) rotate(269.0) scale(0.69 1.09)" />
<circle cx="6.7" cy="14.3" r="0.5" fill="hsl(242, 72%, 49%)" fill-opacity="0.62"  transform="translate(45.6 34.6) rotate(8.4) scale(1.73 1.67)" />
<circle cx="48.9" cy="5.9" r="0.8" fill="hsl(242, 72%, 49%)" fill-opacity="0.79"  transform="translate(25.2 86.1) rotate(43.7) scale(1.99 1.02)" />
<path d="M 32.8 43.9 C 41.4 24.8, 14.0 32.2, 24.1 23.6 C 34.1 4.3, 8.3 11.4, 5.8 2.2 C 0.0 8.9, 100.0 18.7, 98.2 18.9 C 89.6 0.2, 69.2 22.5, 74.3 34.0 Z" fill="hsl(2, 82%, 55%)" fill-opacity="0.65" stroke="none" stroke-width="0.87"   />
<path d="M 64.7 17.0 C 64.9 27.8, 57.5 34.5, 43.1 38.2 C 27.0 30.9, 40.7 70.1, 25.9 74.0 C 41.6 73.8, 64.9 47.5, 50.7 44.6 C 63.7 53.8, 23.0 81.8, 16.0 80.7 C 18.8 81.0, 56.6 90.2, 48.5 82.0 C 42.8 72.0, 71.9 58.5, 80.9 46.6 " fill="hsl(86, 72%, 68%)" fill-opacity="0.41" stroke="none" stroke-width="1.23"   />
<path d="M 78.0 76.8 C 59.8 87.8, 44.8 0.0, 41.3 4.9 C 36.1 15.8, 32.0 52.0, 36.0 46.3 C 29.0 59.0, 47.4 75.4, 52.6 66.3 C 69.1 46.5, 57.6 76.7, 52.5 81.9 C 45.6 100.0, 8.3 93.0, 13.7 100.0 C 10.4 83.3, 37.4 31.2, 52.3 20.0 C 45.9 29.8, 93.5 82.7, 84.7 85.1 " fill="hsl(83, 65%, 44%)" fill-opacity="0.69" stroke="none" stroke-width="1.22"  transform="translate(50.2 58.5) rotate(241.5) scale(0.90 1.09)" />
<rect x="0.3" y="23.4" width="38.7" height="10.5" rx="0" fill="none" fill-opacity="0.22"    />
<circle cx="2.0" cy="5.4" r="1.4" fill="hsl(151, 70%, 62%)" fill-opacity="0.45"   />
<circle cx="30.4" cy="25.4" r="1.2" fill="hsl(83, 65%, 44%)" fill-opacity="0.48"   />
<path d="M 25.4 75.2 C 39.9 81.4, 59.0 8.7, 51.7 17.1 C 33.2 16.9, 42.3 58.2, 41.7 58.3 C 39.1 66.1, 25.4 22.1, 14.8 20.8 C 10.2 18.7, 97.2 0.0, 93.5 8.0 C 100.0 0.0, 84.3 25.4, 94.6 12.4 C 100.0 26.9, 83.9 27.5, 69.2 31.5 Z" fill="hsl(2, 82%, 55%)" fill-opacity="0.91" stroke="none" stroke-width="1.24"   />
<circle cx="2.8" cy="6.9" r="0.6" fill="hsl(242, 72%, 49%)" fill-opacity="0.69"  transform="translate(2.0 45.7) rotate(112.5) scale(1.07 1.14)" />
<path d="M 61.3 45.2 C 58.3 48.5, 92.2 50.3, 91.2 40.0 C 85.7 35.5, 31.7 28.1, 45.0 20.3 C 34.5 31.3, 19.3 48.5, 6.5 47.3 Z" fill="hsl(322, 74%, 44%)" fill-opacity="0.35" stroke="none" stroke-width="1.12"   />
<rect x="36.4" y="21.9" width="42.3" height="26.4" rx="0" fill="hsl(2, 82%, 55%)" fill-opacity="0.28"    />
<path d="M 18.0 6.2 C 23.4 0.0, 11.2 0.0, 17.2 9.4 C 14.7 0.0, 85.5 58.5, 78.7 68.4 C 72.4 71.4, 43.0 30.0, 48.4 30.2 C 40.1 42.6, 10.2 64.1, 0.5 68.9 C 0.0 66.2, 68.5 78.0, 64.3 83.5 C 75.3 87.9, 67.5 23.0, 76.8 37.5 " fill="none" fill-opacity="0.67" stroke="hsl(106, 75%, 59%)" stroke-width="1.26"   />
<path d="M 82.5 36.3 C 93.6 36.5, 76.3 40.9, 84.5 42.7 C 87.3 34.3, 69.7 23.0, 57.8 16.1 C 63.1 0.0, 73.8 3.4, 69.1 6.3 C 66.1 19.8, 5.8 21.8, 13.5 14.6 C 6.6 22.6, 22.9 0.0, 30.2 9.1 Z" fill="hsl(2, 82%, 55%)" fill-opacity="0.81" stroke="none" stroke-width="1.16"  transform="translate(53.0 48.9) rotate(127.6) scale(0.89 0.84)" />
<rect x="26.2" y="27.6" width="35.3" height="29.4" rx="5.2" fill="hsl(2, 82%, 55%)" fill-opacity="0.28"   transform="translate(74.5 97.6) rotate(306.6) scale(1.68 1.49)" />
</svg>
