<?xml version="1.0" encoding="UTF-8"?>
<svg xmlns="http://www.w3.org/2000/svg" width="100" height="100" viewBox="0 0 100 100">
<defs>
<linearGradient id="g0" x1="0%" y1="0%" x2="100%" y2="100%">
<stop offset="0.0%" stop-color="hsl(106, 75%, 59%)" />
<stop offset="33.3%" stop-color="hsl(183, 71%, 60%)" />
<stop offset="66.7%" stop-color="hsl(242, 72%, 49%)" />
<stop offset="100.0%" stop-color="hsl(322, 74%, 44%)" />
</linearGradient>
<linearGradient id="g1" x1="0%" y1="0%" x2="100%" y2="100%">
<stop offset="0.0%" stop-color="hsl(290, 83%, 63%)" />
<stop offset="33.3%" stop-color="hsl(2, 82%, 55%)" />
<stop offset="66.7%" stop-color="hsl(86, 72%, 68%)" />
<stop offset="100.0%" stop-color="hsl(83, 65%, 44%)" />
</linearGradient>
<linearGradient id="g2" x1="0%" y1="0%" x2="100%" y2="100%">
<stop offset="0.0%" stop-color="hsl(40, 53%, 69%)" />
<stop offset="33.3%" stop-color="hsl(104, 72%, 65%)" />
<stop offset="66.7%" stop-color="hsl(144, 86%, 72%)" />
<stop offset="100.0%" stop-color="hsl(151, 70%, 62%)" />
</linearGradient>
<filter id="f1" x="-20%" y="-20%" width="140%" height="140%">
  <feGaussianBlur stdDeviation="1.6944415508728219" />
</filter>

</defs>

<path d="M 73.8 30.1 C 92.5 42.3, 30.0 47.1, 32.1 52.6 C 39.1 58.7, 33.3 4.8, 18.9 18.3 C 26.7 10.7, 61.2 24.9, 74.0 38.2 C 85.9 42.9, 85.6 35.6, 98.1 44.5 C 100.0 60.4, 84.4 42.8, 88.7 45.2 C 94.5 26.4, 96.4 0.0, 93.9 1.5 C 78.3 0.0, 40.7 13.7, 26.8 5.3 C 45.0 0.0, 63.6 52.1, 64.2 44.1 C 64.6 32.8, 25.3 3.7, 18.8 16.2 Z" fill="none" fill-opacity="0.87" stroke="hsl(290, 83%, 63%)" stroke-width="0.86"  transform="translate(24.6 13.8) rotate(212.8) scale(0.67 0.66)" />
<path d="M 25.6 30.3 C 8.8 14.9, 53.4 65.9, 59.6 53.1 C 51.4 60.8, 1.3 89.8, 7.3 81.5 C 5.7 73.3, 10.4 28.4, 6.4 18.1 C 0.0 29.4, 33.6 51.9, 46.6 49.9 C 42.2 37.3, 94.5 89.4, 98.8 93.6 C 81.3 100.0, 0.9 37.1, 5.5 41.2 C 0.0 25.5, 14.3 25.9, 14.0 30.5 C 0.0 14.4, 91.8 49.1, 81.6 48.0 Z" fill="hsl(242, 72%, 49%)" fill-opacity="0.89" stroke="none" stroke-width="2.04"  transform="translate(11.6 10.6) rotate(109.1) scale(0.58 1.99)" />
<path d="M 94.2 51.5 C 100.0 42.1, 51.4 67.3, 46.0 73.2 C 37.8 85.5, 45.0 58.7, 42.1 68.5 C 39.7 55.8, 85.4 66.6, 89.4 67.2 C 100.0 78.2, 80.6 70.8, 66.1 70.6 C 63.1 77.6, 20.1 82.1, 22.8 87.9 C 11.2 73.3, 38.3 3.4, 40.4 6.6 Z" fill="hsl(104, 72%, 65%)" fill-opacity="0.71" stroke="none" stroke-width="3.53"   />
<path d="M 42.0 37.8 C 44.6 43.4, 64.2 56.2, 78.2 44.0 C 66.2 54.2, 82.0 87.7, 87.8 75.8 C 100.0 83.9, 12.3 77.1, 1.1 79.2 C 0.0 89.2, 80.6 60.2, 81.4 59.3 C 93.0 75.4, 23.4 13.8, 13.4 11.7 C 18.4 1.8, 60.4 60.2, 48.8 51.4 C 54.3 60.5, 51.9 11.6, 50.8 14.6 C 35.2 19.9, 68.0 91.6, 78.9 85.1 C 71.6 86.3, 81.7 78.1, 76.5 82.0 Z" fill="none" fill-opacity="0.76" stroke="hsl(83, 65%, 44%)" stroke-width="4.33"  transform="translate(51.2 34.5) rotate(292.2) scale(0.75 1.00)" />
<path d="M 72.3 74.6 C 73.0 88.9, 55.1 65.0, 40.7 69.7 C 55.4 84.9, 14.4 36.3, 7.8 32.4 C 0.0 45.3, 0.0 11.7, 2.6 4.2 C 0.0 0.8, 43.7 84.7, 28.8 93.8 C 24.0 94.0, 12.8 4.5, 18.3 9.6 C 32.4 15.7, 47.3 72.4, 33.8 77.6 C 33.0 90.4, 71.9 0.0, 78.7 3.9 C 94.6 0.0, 11.9 64.6, 24.5 50.5 C 42.8 70.3, 71.8 65.5, 85.7 74.0 C 100.0 84.4, 70.8 34.7, 78.5 22.3 Z" fill="none" fill-opacity="0.62" stroke="hsl(106, 75%, 59%)" stroke-width="4.11"   />
<path d="M 37.4 40.8 C 37.0 34.2, 50.9 59.9, 54.9 54.8 C 68.6 52.4, 0.0 22.0, 2.2 23.1 C 3.7 12.1, 58.3 96.4, 66.5 81.6 C 62.6 83.4, 82.1 65.4, 87.4 63.0 C 87.9 53.0, 39.8 18.4, 25.7 6.9 C 12.9 0.0, 70.9 49.1, 72.2 41.8 C 88.7 32.6, 79.7 79.7, 81.4 91.7 Z" fill="none" fill-opacity="0.65" stroke="hsl(104, 72%, 65%)" stroke-width="3.76" filter="url(#f1)" transform="translate(61.4 32.0) rotate(112.9) scale(1.34 1.34)" />
<path d="M 50.3 89.0 C 67.8 83.2, 88.6 93.2, 81.0 91.8 C 76.4 80.0, 24.2 0.0, 10.1 2.4 C 0.0 0.0, 0.0 24.3, 7.6 37.9 C 2.0 49.5, 71.3 58.7, 68.4 45.3 C 51.2 33.3, 0.0 50.9, 4.2 46.7 C 1.5 47.6, 43.4 0.0, 46.5 9.8 C 33.1 11.2, 100.0 77.2, 99.7 77.9 C 100.0 76.0, 16.1 36.3, 15.9 48.2 Z" fill="none" fill-opacity="0.53" stroke="hsl(290, 83%, 63%)" stroke-width="0.98"  transform="translate(72.7 14.7) rotate(78.0) scale(1.17 1.40)" />
<rect x="12.7" y="5.4" width="43.3" height="32.7" rx="17.1" fill="none" fill-opacity="0.68"  filter="url(#f1)" transform="translate(48.8 99.2) rotate(259.5) scale(0.96 1.10)" />
<path d="M 28.5 0.9 C 46.1 0.0, 26.4 100.0, 17.8 98.9 C 0.0 100.0, 47.5 0.0, 42.7 7.2 C 57.0 14.5, 32.2 53.4, 41.5 58.2 C 48.0 55.0, 19.3 81.8, 20.2 69.7 C 33.7 65.8, 94.9 46.1, 86.1 57.2 C 90.3 70.9, 39.8 21.3, 29.3 15.6 C 38.5 0.0, 8.0 31.3, 15.4 44.6 C 2.5 58.5, 14.3 69.3, 18.1 78.1 Z" fill="hsl(2, 82%, 55%)" fill-opacity="0.26" stroke="none" stroke-width="4.78"  transform="translate(7.2 29.1) rotate(225.4) scale(0.90 0.81)" />
<path d="M 3.2 91.6 C 0.0 93.5, 67.0 49.8, 70.0 45.8 C 69.1 60.2, 7.1 47.2, 6.0 62.0 C 14.4 57.4, 15.7 58.2, 5.7 43.5 C 22.1 38.0, 59.0 15.0, 60.2 28.6 C 46.7 34.0, 41.4 89.5, 40.6 87.4 C 51.4 100.0, 5.7 55.1, 3.1 43.1 Z" fill="hsl(2, 82%, 55%)" fill-opacity="0.47" stroke="none" stroke-width="5.01" filter="url(#f1)" transform="translate(68.8 4.4) rotate(70.5) scale(1.93 1.11)" />
<path d="M 63.6 54.8 C 55.8 37.4, 67.0 86.2, 72.9 77.5 C 57.5 79.3, 59.2 0.0, 62.7 4.7 C 66.5 0.0, 0.0 42.5, 0.5 54.3 C 0.0 63.9, 80.9 66.1, 75.3 67.2 C 71.5 75.0, 33.0 20.5, 43.0 25.0 C 54.9 33.7, 92.3 57.5, 96.3 59.4 C 78.1 63.7, 2.1 8.9, 11.1 0.5 C 7.7 0.0, 5.4 51.3, 13.5 42.3 " fill="none" fill-opacity="0.59" stroke="hsl(104, 72%, 65%)" stroke-width="4.95"   />
<path d="M 75.2 89.8 C 64.4 83.5, 80.6 10.4, 78.3 25.0 C 65.5 6.0, 10.7 50.8, 21.5 38.3 C 11.9 27.9, 22.0 1.3, 10.1 7.1 C 0.0 0.0, 66.3 0.0, 61.1 2.5 C 75.5 0.0, 3.7 36.4, 6.1 44.5 C 0.0 60.3, 85.0 63.6, 89.3 70.5 C 88.7 78.8, 58.6 56.9, 60.8 67.5 C 73.1 71.7, 19.4 23.1, 32.2 21.7 C 40.2 30.4, 71.8 67.5, 82.7 68.5 Z" fill="none" fill-opacity="0.67" stroke="hsl(40, 53%, 69%)" stroke-width="4.90"  transform="translate(16.4 98.6) rotate(260.0) scale(1.00 1.03)" />
<rect x="47.1" y="25.2" width="40.1" height="14.4" rx="0" fill="none" fill-opacity="0.35"  filter="url(#f1)"  />
<circle cx="50.2" cy="51.7" r="5.6" fill="hsl(242, 72%, 49%)" fill-opacity="0.95"  transform="translate(20.6 14.4) rotate(41.9) scale(1.24 0.59)" />
<rect x="38.2" y="2.3" width="30.1" height="20.0" rx="0.9" fill="none" fill-opacity="0.28" stroke="hsl(104, 72%, 65%)" stroke-width="3.8"  transform="translate(32.6 94.8) rotate(316.3) scale(1.23 1.53)" />
<path d="M 64.5 0.7 C 68.1 0.0, 27.8 63.8, 40.1 70.5 C 49.2 68.4, 49.7 42.1, 37.1 34.6 C 28.2 14.8, 55.4 0.0, 47.3 7.1 C 53.7 18.9, 89.9 15.8, 92.7 8.5 C 83.4 16.2, 42.0 23.6, 47.3 18.1 C 31.3 26.3, 56.3 80.4, 61.6 72.7 C 47.6 74.8, 13.1 63.1, 15.4 51.4 C 4.3 61.4, 68.7 51.5, 68.5 45.8 C 50.4 43.1, 100.0 93.6, 99.5 83.1 C 100.0 100.0, 31.9 66.0, 42.1 55.4 Z" fill="none" fill-opacity="0.86" stroke="hsl(40, 53%, 69%)" stroke-width="4.12"  transform="translate(9.4 2.9) rotate(181.6) scale(1.09 1.30)" />
<circle cx="83.2" cy="78.0" r="15.2" fill="hsl(106, 75%, 59%)" fill-opacity="0.78"  transform="translate(46.8 69.9) rotate(239.4) scale(0.95 1.32)" />
<path d="M 85.1 22.6 C 68.0 24.6, 96.8 87.7, 81.8 74.2 C 88.3 76.0, 87.2 100.0, 72.4 95.2 C 80.8 100.0, 40.2 60.3, 48.0 49.7 C 44.2 65.9, 69.9 5.1, 70.1 14.7 C 84.7 5.0, 40.1 43.3, 34.2 50.7 C 34.9 37.6, 93.0 0.0, 88.4 4.8 Z" fill="hsl(2, 82%, 55%)" fill-opacity="0.99" stroke="none" stroke-width="4.02"  transform="translate(86.0 86.5) rotate(351.8) scale(1.39 1.73)" />
<path d="M 75.4 83.5 C 72.5 65.6, 18.5 96.0, 12.9 89.0 C 2.1 100.0, 80.5 38.4, 82.9 33.8 C 79.6 26.2, 11.3 90.9, 7.6 94.9 C 7.0 100.0, 49.7 80.8, 58.2 78.1 C 40.7 68.9, 0.0 4.3, 3.7 2.4 C 22.4 0.0, 23.9 0.0, 25.1 11.3 C 27.7 2.6, 32.3 64.5, 18.2 67.6 " fill="hsl(242, 72%, 49%)" fill-opacity="0.26" stroke="none" stroke-width="2.94"  transform="translate(71.1 12.7) rotate(171.3) scale(1.30 0.89)" />
<rect x="25.9" y="3.0" width="37.0" height="32.5" rx="0" fill="hsl(40, 53%, 69%)" fill-opacity="0.79" stroke="hsl(104, 72%, 65%)" stroke-width="1.5"  transform="translate(53.5 14.5) rotate(29.2) scale(1.43 0.66)" />
<rect x="21.0" y="4.9" width="41.8" height="24.2" rx="10.7" fill="hsl(290, 83%, 63%)" fill-opacity="0.91"   transform="translate(34.5 39.5) rotate(268.2) scale(1.17 1.67)" />
<path d="M 82.7 50.3 C 98.3 45.9, 35.3 74.1, 46.2 86.6 C 28.1 100.0, 79.4 49.8, 66.4 50.5 C 64.4 36.5, 97.4 100.0, 94.4 98.7 C 76.8 96.6, 83.6 0.0, 76.1 10.6 C 69.4 5.5, 43.6 81.1, 35.3 80.4 C 16.8 87.7, 2.5 57.1, 11.6 42.2 C 8.4 39.3, 25.8 86.8, 22.1 99.8 C 19.1 100.0, 73.9 83.5, 71.6 69.8 Z" fill="hsl(322, 74%, 44%)" fill-opacity="0.43" stroke="none" stroke-width="4.32"   />
<path d="M 34.4 56.6 C 17.2 67.3, 6.2 56.8, 14.3 45.6 C 11.7 65.2, 87.8 91.6, 83.5 79.7 C 92.1 77.2, 23.1 98.7, 38.0 90.6 C 33.0 99.0, 74.3 19.4, 70.9 31.8 C 60.0 19.1, 59.8 100.0, 69.8 94.1 C 51.7 100.0, 21.8 32.3, 18.2 22.4 C 34.1 34.0, 0.3 5.6, 1.2 9.7 Z" fill="hsl(2, 82%, 55%)" fill-opacity="0.33" stroke="none" stroke-width="3.10"   />
<path d="M 89.5 12.8 C 100.0 13.1, 90.2 0.0, 96.1 1.8 C 77.2 9.6, 55.8 96.8, 65.9 92.6 C 56.4 95.0, 49.9 70.3, 36.5 70.0 C 55.4 63.1, 0.0 5.6, 1.5 12.3 C 0.0 31.5, 33.2 36.4, 25.0 28.7 C 36.3 33.3, 22.4 67.8, 11.5 74.5 C 25.0 55.7, 1.8 75.7, 13.4 82.1 Z" fill="hsl(106, 75%, 59%)" fill-opacity="0.56" stroke="none" stroke-width="3.40" filter="url(#f1)" transform="translate(63.4 3.7) rotate(313.6) scale(1.15 1.35)" />
<path d="M 41.8 45.2 C 53.2 30.7, 94.6 86.4, 86.3 92.9 C 99.9 92.5, 0.0 50.5, 6.0 64.3 C 25.5 64.2, 71.1 30.1, 70.5 22.3 C 89.1 39.5, 0.0 15.3, 0.9 29.4 C 0.0 42.8, 23.4 19.7, 38.4 7.5 C 55.7 15.3, 48.7 41.3, 51.6 27.0 C 53.5 21.7, 83.3 36.1, 88.2 23.6 C 100.0 4.4, 67.2 88.7, 82.1 85.4 C 65.7 77.7, 48.9 87.7, 63.3 86.2 Z" fill="none" fill-opacity="0.84" stroke="hsl(40, 53%, 69%)" stroke-width="2.88"  transform="translate(49.0 19.9) rotate(87.9) scale(1.49 1.99)" />
<path d="M 95.4 70.7 C 100.0 52.7, 100.0 71.8, 98.5 67.4 C 99.1 65.4, 11.2 88.2, 12.3 98.6 C 10.2 93.1, 42.3 92.4, 42.8 85.7 C 23.5 67.7, 90.9 39.7, 99.3 45.0 C 100.0 33.2, 21.4 44.5, 14.1 36.5 C 6.1 20.0, 84.1 65.5, 87.6 72.1 Z" fill="hsl(104, 72%, 65%)" fill-opacity="0.44" stroke="none" stroke-width="2.35" filter="url(#f1)" transform="translate(76.4 9.2) rotate(89.1) scale(1.00 1.65)" />
<rect x="21.8" y="79.0" width="34.7" height="18.5" rx="1.7" fill="none" fill-opacity="0.70"   transform="translate(32.2 49.7) rotate(8.5) scale(0.74 0.60)" />
<path d="M 37.2 53.6 C 22.4 54.3, 66.2 0.0, 54.9 6.9 C 36.7 0.0, 88.2 14.4, 80.3 12.2 C 89.0 3.8, 73.0 78.0, 87.7 73.2 C 79.9 92.0, 86.2 42.8, 94.3 51.9 C 86.4 45.8, 44.5 99.1, 51.0 84.6 C 44.4 79.2, 17.5 12.4, 3.2 8.9 C 4.2 0.0, 7.4 53.0, 18.7 63.2 C 29.5 66.9, 100.0 36.3, 86.3 48.9 C 89.3 34.1, 88.0 5.4, 93.6 3.1 C 83.6 8.5, 37.9 90.0, 28.4 81.7 Z" fill="none" fill-opacity="0.98" stroke="hsl(144, 86%, 72%)" stroke-width="3.47"  transform="translate(4.9 94.1) rotate(218.0) scale(0.89 1.59)" />
<circle cx="64.5" cy="55.4" r="2.3" fill="url(#g0)" fill-opacity="0.83"  transform="translate(60.7 99.1) rotate(115.7) scale(1.45 0.86)" />
<circle cx="18.7" cy="63.4" r="0.5" fill="url(#g2)" fill-opacity="0.72"  transform="translate(50.3 1.5) rotate(232.0) scale(1.06 0.93)" />
<circle cx="19.3" cy="76.9" r="8.9" fill="hsl(144, 86%, 72%)" fill-opacity="0.82"  transform="translate(38.1 94.3) rotate(246.5) scale(1.59 1.84)" />
<path d="M 35.0 45.2 C 43.4 43.8, 52.5 63.1, 50.7 55.9 C 33.8 47.8, 75.6 55.3, 61.0 44.2 C 71.7 47.3, 49.2 29.7, 51.6 35.5 C 50.2 38.0, 17.5 96.0, 6.6 87.2 C 0.0 72.6, 43.0 55.3, 34.0 49.9 C 30.0 53.0, 46.7 76.2, 36.5 89.2 C 25.4 100.0, 57.5 0.0, 44.4 4.2 " fill="none" fill-opacity="0.75" stroke="hsl(104, 72%, 65%)" stroke-width="4.09"   />
<path d="M 79.0 44.1 C 77.0 58.7, 13.4 25.5, 21.1 16.8 C 34.8 21.8, 85.5 37.9, 83.8 52.4 C 91.3 46.3, 85.9 58.3, 80.2 46.4 C 75.2 60.4, 75.8 44.3, 65.6 44.3 C 66.9 54.8, 14.4 0.0, 13.1 1.8 C 5.4 0.0, 25.7 71.3, 18.4 68.1 Z" fill="none" fill-opacity="0.52" stroke="hsl(151, 70%, 62%)" stroke-width="4.33"   />
<path d="M 15.9 91.4 C 0.7 78.2, 50.2 67.1, 55.4 55.8 C 53.2 45.3, 87.1 33.6, 75.8 22.7 C 90.6 12.8, 14.9 39.9, 15.3 46.7 C 10.1 65.9, 2.6 73.7, 13.4 72.9 C 29.6 89.0, 39.2 46.2, 38.6 42.0 C 25.8 46.9, 6.6 0.0, 20.8 4.2 Z" fill="hsl(106, 75%, 59%)" fill-opacity="0.88" stroke="none" stroke-width="1.18" filter="url(#f1)" transform="translate(78.1 24.4) rotate(231.8) scale(1.72 1.06)" />
<rect x="44.4" y="51.5" width="45.4" height="24.0" rx="0" fill="hsl(83, 65%, 44%)" fill-opacity="0.66" stroke="hsl(83, 65%, 44%)" stroke-width="3.6"  transform="translate(61.1 45.0) rotate(59.4) scale(1.79 0.76)" />
<rect x="66.9" y="0.7" width="21.4" height="24.1" rx="0" fill="hsl(2, 82%, 55%)" fill-opacity="0.27"   transform="translate(69.2 97.3) rotate(269.5) scale(1.15 0.96)" />
<rect x="17.0" y="60.3" width="36.9" height="18.3" rx="8.2" fill="none" fill-opacity="0.58"   transform="translate(12.1 62.3) rotate(38.4) scale(1.63 0.85)" />
<path d="M 90.6 77.5 C 97.8 68.8, 8.4 26.4, 17.3 23.5 C 28.2 9.3, 99.7 27.8, 84.7 24.9 C 78.4 24.0, 78.5 26.7, 80.2 38.8 C 68.4 48.9, 54.2 15.6, 68.9 14.7 C 87.5 1.0, 34.3 28.0, 40.0 42.7 C 55.7 32.7, 2.4 37.9, 7.1 39.7 C 10.9 30.3, 28.0 18.7, 40.1 24.0 C 44.8 30.2, 26.3 89.2, 28.9 76.3 " fill="none" fill-opacity="0.72" stroke="hsl(2, 82%, 55%)" stroke-width="5.04"  transform="translate(84.1 50.5) rotate(210.6) scale(0.90 1.51)" />
<path d="M 48.8 5.0 C 45.5 3.7, 88.5 76.0, 77.5 68.6 C 95.5 59.1, 84.7 86.8, 96.8 73.5 C 100.0 68.1, 91.8 95.5, 89.3 96.7 C 73.3 85.1, 41.2 88.4, 48.9 97.5 C 63.0 100.0, 80.7 63.9, 79.0 64.7 C 83.6 63.7, 99.3 100.0, 96.6 96.6 C 88.5 100.0, 67.6 27.6, 70.0 27.1 C 83.7 15.2, 19.3 10.8, 31.4 2.1 Z" fill="hsl(86, 72%, 68%)" fill-opacity="0.45" stroke="none" stroke-width="2.04"   />
<rect x="34.0" y="37.7" width="27.7" height="24.1" rx="12.4" fill="hsl(151, 70%, 62%)" fill-opacity="0.27"   transform="translate(28.3 32.3) rotate(299.7) scale(1.01 1.35)" />
<circle cx="4.1" cy="27.2" r="8.2" fill="url(#g2)" fill-opacity="0.85"  transform="translate(9.1 28.2) rotate(145.9) scale(1.65 0.75)" />
<path d="M 0.9 28.0 C 0.0 34.5, 100.0 48.5, 87.8 39.7 C 100.0 52.7, 65.1 60.7, 72.3 49.7 C 76.8 44.5, 65.4 31.5, 58.9 28.9 C 74.8 15.2, 15.3 65.6, 3.7 75.2 C 4.2 84.1, 42.7 86.2, 34.0 77.6 C 28.8 58.3, 87.0 25.7, 90.5 12.9 Z" fill="hsl(83, 65%, 44%)" fill-opacity="0.47" stroke="none" stroke-width="3.05"  transform="translate(4.3 21.5) rotate(132.5) scale(0.56 0.99)" />
<circle cx="55.5" cy="34.2" r="12.1" fill="url(#g0)" fill-opacity="0.49"   />
<path d="M 44.5 89.8 C 50.0 100.0, 100.0 70.1, 90.6 56.7 C 100.0 52.0, 43.8 35.6, 37.1 27.7 C 37.3 45.7, 18.8 58.9, 19.6 67.1 C 8.7 60.2, 69.0 27.6, 74.3 24.0 C 64.0 42.5, 95.8 49.2, 89.4 37.2 C 92.6 20.2, 20.5 79.3, 5.7 74.0 C 24.7 64.2, 35.1 93.0, 20.3 82.7 C 18.6 84.1, 62.6 86.5, 61.4 97.1 Z" fill="none" fill-opacity="0.35" stroke="hsl(183, 71%, 60%)" stroke-width="2.35"  transform="translate(62.7 30.9) rotate(319.1) scale(1.19 1.93)" />
<circle cx="15.9" cy="77.1" r="5.7" fill="hsl(40, 53%, 69%)" fill-opacity="0.89"  transform="translate(51.7 22.8) rotate(146.9) scale(1.42 1.25)" />
<rect x="36.5" y="41.5" width="22.3" height="14.3" rx="5.7" fill="hsl(2, 82%, 55%)" fill-opacity="0.60"   transform="translate(94.2 3.7) rotate(160.8) scale(1.61 1.96)" />
<rect x="64.2" y="67.8" width="28.2" height="31.4" rx="0" fill="hsl(83, 65%, 44%)" fill-opacity="0.37" stroke="hsl(2, 82%, 55%)" stroke-width="3.8"  transform="translate(1.1 13.8) rotate(157.3) scale(1.60 1.42)" />
<path d="M 0.7 58.2 C 0.0 77.5, 44.1 77.4, 34.3 74.7 C 14.4 91.4, 81.7 54.8, 89.3 42.1 C 71.4 29.5, 26.2 34.9, 20.0 30.8 C 21.1 44.6, 19.4 18.4, 18.8 21.0 C 23.5 6.4, 41.8 21.4, 27.5 21.3 C 45.8 21.0, 84.5 28.5, 84.4 29.0 C 71.0 20.4, 100.0 27.1, 93.7 39.6 C 75.4 33.5, 37.4 84.4, 41.0 76.9 C 30.9 93.5, 77.3 89.9, 91.3 82.6 Z" fill="hsl(144, 86%, 72%)" fill-opacity="0.92" stroke="none" stroke-width="4.66"  transform="translate(68.2 84.8) rotate(188.8) scale(0.69 1.38)" />
<path d="M 5.3 52.9 C 0.0 71.5, 69.9 84.9, 75.9 82.9 C 68.7 91.4, 76.9 43.2, 79.8 34.2 C 89.8 26.9, 51.8 83.7, 62.2 94.6 C 70.5 100.0, 89.8 50.6, 95.1 55.6 C 93.7 62.8, 21.6 15.0, 23.7 10.6 C 7.9 3.2, 1.0 22.7, 1.8 15.7 C 8.3 5.7, 84.0 42.3, 83.3 40.0 Z" fill="none" fill-opacity="0.41" stroke="hsl(86, 72%, 68%)" stroke-width="4.87"  transform="translate(25.5 61.6) rotate(66.9) scale(1.84 1.31)" />
<path d="M 87.1 21.9 C 93.0 20.1, 79.7 67.5, 65.1 81.6 C 68.9 72.8, 11.0 7.7, 11.6 7.5 C 14.9 0.8, 13.1 60.0, 26.9 60.0 C 40.0 53.8, 95.5 69.3, 86.4 68.7 C 99.7 49.8, 43.1 0.0, 47.2 7.1 C 39.4 5.7, 69.9 13.9, 76.5 1.9 C 63.7 0.0, 84.5 100.0, 89.3 99.5 Z" fill="hsl(242, 72%, 49%)" fill-opacity="0.33" stroke="none" stroke-width="3.83"  transform="translate(42.6 35.9) rotate(215.9) scale(1.49 1.61)" />
<circle cx="13.5" cy="94.5" r="4.6" fill="hsl(322, 74%, 44%)" fill-opacity="0.56"  transform="translate(20.2 90.3) rotate(81.4) scale(1.04 1.12)" />
<path d="M 58.8 68.3 C 61.4 70.2, 47.5 28.2, 33.3 24.1 C 17.8 33.6, 7.1 33.9, 10.1 42.7 C 11.8 42.1, 41.9 88.4, 38.4 74.1 C 52.1 75.2, 68.2 84.2, 58.6 75.6 C 74.1 92.3, 50.3 32.0, 43.3 34.9 C 58.6 15.8, 100.0 31.2, 98.3 41.6 C 86.7 58.4, 67.0 45.1, 77.7 38.6 C 84.0 25.6, 50.9 56.8, 39.2 64.9 C 24.5 53.7, 99.2 15.4, 88.2 14.4 Z" fill="hsl(83, 65%, 44%)" fill-opacity="0.39" stroke="none" stroke-width="4.37" filter="url(#f1)" transform="translate(27.5 7.5) rotate(7.7) scale(0.80 1.01)" />
<rect x="37.3" y="27.8" width="39.6" height="37.7" rx="8.1" fill="hsl(151, 70%, 62%)" fill-opacity="0.72"    />
<path d="M 72.0 65.9 C 90.1 80.7, 29.7 100.0, 26.5 90.7 C 8.9 73.4, 58.3 21.7, 68.2 7.1 C 62.3 18.5, 41.9 100.0, 55.9 90.3 C 60.3 100.0, 54.4 41.0, 51.3 45.2 C 71.1 43.9, 46.5 78.2, 55.4 72.1 C 48.7 56.7, 35.3 70.4, 21.6 62.5 C 16.3 59.5, 0.0 45.3, 2.8 36.8 C 0.0 32.4, 39.0 65.2, 36.7 63.9 C 47.9 57.5, 100.0 63.5, 93.5 65.1 C 91.3 70.3, 54.4 26.4, 42.9 11.9 Z" fill="none" fill-opacity="0.25" stroke="hsl(322, 74%, 44%)" stroke-width="4.74"   />
<path d="M 63.9 26.6 C 81.1 27.9, 11.9 14.4, 2.8 11.4 C 0.0 0.0, 78.8 79.2, 85.8 89.5 C 100.0 81.0, 38.2 0.0, 29.3 8.0 C 30.0 4.7, 76.1 31.2, 85.2 17.2 C 66.7 18.6, 32.7 76.9, 22.1 90.8 C 32.8 84.0, 7.5 76.6, 4.0 82.3 C 9.6 82.9, 71.6 31.2, 66.0 20.3 Z" fill="hsl(151, 70%, 62%)" fill-opacity="0.59" stroke="none" stroke-width="1.62" filter="url(#f1)"  />
<circle cx="64.7" cy="16.7" r="0.5" fill="hsl(183, 71%, 60%)" fill-opacity="0.54"   />
<path d="M 7.0 62.7 C 22.7 82.3, 13.8 82.9, 7.3 74.5 C 8.9 62.2, 67.6 57.8, 54.3 46.2 C 50.9 65.0, 71.0 30.5, 67.4 33.2 C 64.7 36.7, 93.4 35.1, 95.3 48.6 C 96.6 36.9, 88.4 0.0, 78.7 12.4 C 93.5 31.6, 19.1 97.7, 7.3 88.0 C 24.1 88.1, 84.8 63.0, 99.4 76.4 C 100.0 86.6, 71.2 6.4, 74.3 16.5 C 58.0 12.2, 32.9 76.5, 44.8 64.4 C 42.9 66.6, 32.1 46.3, 19.6 50.5 Z" fill="hsl(86, 72%, 68%)" fill-opacity="0.53" stroke="none" stroke-width="1.18" filter="url(#f1)" transform="translate(13.3 49.4) rotate(101.8) scale(1.38 0.85)" />
<rect x="34.3" y="61.3" width="37.1" height="15.0" rx="0" fill="none" fill-opacity="0.86"    />
<path d="M 15.1 87.9 C 23.5 78.4, 20.5 100.0, 32.6 98.4 C 12.9 79.2, 77.5 17.7, 81.9 9.5 C 87.8 0.0, 80.4 69.4, 77.9 69.4 C 95.6 51.0, 66.4 6.5, 68.0 21.4 C 54.1 15.4, 0.0 84.9, 2.4 91.9 C 11.2 95.1, 46.6 100.0, 37.4 98.8 C 28.0 100.0, 37.3 37.3, 25.5 38.7 C 5.6 20.6, 0.0 37.9, 8.4 52.4 C 22.3 47.5, 51.9 68.2, 43.8 54.1 C 31.9 73.5, 0.3 63.2, 9.5 51.4 Z" fill="hsl(151, 70%, 62%)" fill-opacity="0.97" stroke="none" stroke-width="5.07"  transform="translate(46.1 20.3) rotate(354.2) scale(1.80 1.44)" />
<path d="M 19.9 38.2 C 3.9 53.6, 25.1 93.7, 18.0 91.5 C 23.0 100.0, 24.9 16.1, 21.3 9.1 C 26.1 0.0, 76.6 13.9, 68.5 10.6 C 77.9 0.0, 44.4 0.0, 44.5 0.4 C 38.7 0.0, 0.0 27.0, 11.5 36.7 C 1.5 42.5, 84.9 10.3, 89.9 18.6 Z" fill="hsl(2, 82%, 55%)" fill-opacity="0.55" stroke="none" stroke-width="3.59"  transform="translate(36.5 19.8) rotate(104.5) scale(1.47 1.47)" />
<rect x="43.9" y="22.2" width="47.5" height="20.2" rx="16.5" fill="none" fill-opacity="0.21"  filter="url(#f1)" transform="translate(39.0 53.3) rotate(289.7) scale(1.09 0.53)" />
<circle cx="79.2" cy="84.2" r="0.7" fill="hsl(144, 86%, 72%)" fill-opacity="0.62"  transform="translate(80.4 79.1) rotate(324.7) scale(1.51 1.93)" />
<path d="M 43.2 60.0 C 42.4 46.0, 34.0 0.0, 40.0 7.2 C 22.4 0.0, 63.5 51.4, 72.7 37.6 C 80.1 41.0, 26.5 62.3, 37.2 58.2 C 23.6 55.6, 68.0 11.3, 72.0 13.9 C 76.7 18.3, 32.7 18.2, 25.9 6.1 C 17.6 15.8, 0.0 64.2, 4.5 52.0 C 0.0 36.1, 93.5 38.2, 79.1 41.9 C 88.7 33.3, 47.8 42.5, 42.1 28.4 Z" fill="none" fill-opacity="0.80" stroke="hsl(86, 72%, 68%)" stroke-width="3.30"  transform="translate(99.6 41.4) rotate(216.8) scale(1.84 1.09)" />
<path d="M 1.5 54.7 C 0.0 67.5, 5.0 77.6, 14.8 75.7 C 6.7 88.2, 14.6 7.4, 8.2 20.9 C 24.1 31.6, 19.6 87.4, 33.7 77.6 C 40.2 94.1, 24.3 77.3, 26.1 90.2 C 24.5 76.8, 23.9 70.4, 25.5 74.0 C 20.9 56.7, 52.0 19.7, 56.5 9.9 Z" fill="none" fill-opacity="0.36" stroke="hsl(106, 75%, 59%)" stroke-width="2.92"   />
<path d="M 56.8 88.7 C 59.7 96.3, 66.2 12.6, 65.7 27.6 C 74.5 45.0, 68.0 59.2, 67.7 56.1 C 60.5 42.0, 11.8 11.7, 15.1 23.7 C 26.3 23.1, 60.5 47.3, 55.0 57.8 C 54.1 56.3, 27.8 56.9, 29.1 59.9 C 13.1 46.8, 92.3 85.8, 94.4 97.4 C 100.0 100.0, 69.7 71.5, 61.1 57.5 C 72.5 69.0, 77.9 42.2, 86.6 47.1 C 100.0 27.1, 26.1 69.9, 18.7 56.3 C 20.1 55.8, 51.9 100.0, 64.3 98.4 Z" fill="none" fill-opacity="0.61" stroke="hsl(290, 83%, 63%)" stroke-width="4.03"  transform="translate(15.1 97.1) rotate(260.7) scale(1.81 1.76)" />
<path d="M 26.5 44.8 C 13.4 34.0, 4.7 98.6, 1.0 90.3 C 0.0 100.0, 30.0 81.3, 34.0 72.7 C 30.3 69.6, 54.9 13.1, 47.6 21.3 C 36.4 32.0, 20.5 24.7, 28.1 25.0 C 37.7 25.0, 89.8 43.2, 76.3 48.5 C 73.4 30.1, 100.0 81.4, 94.0 91.2 C 100.0 100.0, 48.2 49.1, 35.1 35.0 Z" fill="hsl(40, 53%, 69%)" fill-opacity="0.90" stroke="none" stroke-width="3.27"  transform="translate(14.3 41.2) rotate(311.4) scale(0.69 0.94)" />
<path d="M 8.4 38.1 C 11.4 36.0, 44.0 100.0, 32.0 99.1 C 18.3 100.0, 25.0 20.6, 36.5 24.5 C 45.2 8.1, 16.0 22.0, 25.1 13.3 C 22.6 0.0, 23.0 65.8, 9.2 54.4 C 24.2 64.7, 75.7 21.7, 80.2 17.5 C 81.2 1.7, 34.5 17.3, 24.6 4.1 C 35.7 8.4, 68.2 20.0, 57.2 19.6 C 75.2 25.5, 41.4 34.0, 44.3 46.5 C 52.7 49.5, 67.7 73.9, 70.1 82.1 Z" fill="hsl(104, 72%, 65%)" fill-opacity="0.98" stroke="none" stroke-width="2.06" filter="url(#f1)" transform="translate(2.4 41.9) rotate(120.9) scale(1.01 1.39)" />
<circle cx="86.2" cy="19.3" r="4.2" fill="url(#g1)" fill-opacity="0.59"  transform="translate(97.6 95.6) rotate(227.8) scale(0.91 1.92)" />
<path d="M 45.3 19.0 C 31.8 22.1, 56.0 19.8, 48.9 18.0 C 46.6 35.7, 71.7 24.6, 81.7 17.7 C 86.7 35.8, 23.5 18.4, 21.8 20.9 C 24.5 21.8, 10.1 20.7, 14.8 20.3 C 28.8 19.6, 9.8 17.2, 21.1 31.8 C 16.2 23.2, 46.7 69.2, 46.2 80.1 C 33.9 89.9, 23.6 2.7, 8.9 2.6 C 0.0 10.6, 16.4 76.4, 30.1 67.6 " fill="none" fill-opacity="0.46" stroke="hsl(104, 72%, 65%)" stroke-width="1.52"  transform="translate(12.4 78.3) rotate(269.8) scale(0.61 0.82)" />
<rect x="44.9" y="28.9" width="48.2" height="21.3" rx="0" fill="hsl(242, 72%, 49%)" fill-opacity="0.72"    />
<circle cx="64.1" cy="23.8" r="4.4" fill="url(#g2)" fill-opacity="0.68"  transform="translate(19.3 11.4) rotate(57.3) scale(0.51 1.25)" />
<circle cx="35.8" cy="29.9" r="5.0" fill="url(#g0)" fill-opacity="0.92"  transform="translate(98.4 92.4) rotate(149.0) scale(0.87 1.18)" />
<path d="M 90.4 29.2 C 83.2 33.6, 71.8 18.4, 61.4 4.2 C 67.5 5.9, 57.3 10.6, 51.2 21.2 C 43.9 25.7, 75.9 60.7, 68.8 74.4 C 81.2 71.7, 32.2 52.2, 37.1 61.8 C 50.3 54.3, 48.4 88.5, 60.9 77.9 C 66.8 92.7, 95.8 56.4, 95.9 63.0 C 100.0 73.9, 74.9 43.6, 85.7 48.3 C 80.2 37.3, 84.2 40.7, 86.6 26.5 C 89.6 9.9, 68.7 87.4, 60.4 99.5 Z" fill="none" fill-opacity="0.44" stroke="hsl(242, 72%, 49%)" stroke-width="1.22"  transform="translate(44.8 98.5) rotate(44.8) scale(0.88 0.85)" />
<path d="M 79.8 15.9 C 92.1 17.9, 82.8 52.6, 76.9 43.4 C 89.7 54.4, 93.1 74.0, 83.4 59.1 C 95.0 70.5, 29.6 28.8, 42.2 39.6 C 36.1 40.4, 88.2 42.1, 81.0 51.3 C 68.6 38.6, 28.6 48.8, 20.7 61.9 C 10.4 70.9, 19.1 79.5, 11.9 91.4 C 23.5 77.7, 78.4 33.5, 67.1 41.3 C 80.9 29.1, 44.0 64.3, 41.1 74.0 C 27.4 79.2, 75.6 99.9, 69.5 86.2 " fill="hsl(242, 72%, 49%)" fill-opacity="0.79" stroke="none" stroke-width="4.05"  transform="translate(91.7 2.9) rotate(112.5) scale(1.83 1.21)" />
<path d="M 59.0 65.7 C 41.7 47.7, 26.1 63.5, 38.1 57.9 C 19.7 42.3, 86.9 28.7, 71.9 17.3 C 65.3 7.7, 32.1 53.4, 37.3 57.0 C 33.7 70.1, 67.7 84.4, 71.8 98.9 C 85.5 86.8, 17.4 59.2, 29.6 59.4 C 27.3 59.6, 100.0 17.5, 90.6 4.5 C 100.0 18.5, 6.5 13.5, 0.7 0.9 C 0.0 0.0, 44.7 57.0, 47.0 69.9 C 54.7 82.8, 49.2 67.1, 53.6 66.3 Z" fill="none" fill-opacity="0.33" stroke="hsl(151, 70%, 62%)" stroke-width="3.65"  transform="translate(7.3 71.7) rotate(224.7) scale(1.27 1.25)" />
<path d="M 44.1 87.7 C 32.2 93.4, 41.3 50.1, 27.5 43.1 C 31.0 53.4, 17.4 0.0, 20.2 1.7 C 26.8 0.0, 85.8 65.2, 80.2 54.5 C 94.6 48.2, 88.3 43.0, 87.8 46.3 C 80.6 52.0, 3.4 50.1, 11.1 44.7 C 13.6 38.9, 3.7 23.6, 8.3 32.5 C 7.9 49.2, 73.4 16.2, 64.7 25.2 C 72.9 43.6, 87.4 20.2, 99.6 21.6 C 86.7 12.1, 71.5 65.9, 82.7 67.8 " fill="hsl(290, 83%, 63%)" fill-opacity="0.83" stroke="none" stroke-width="3.62"  transform="translate(3.2 87.9) rotate(89.7) scale(1.61 1.70)" />
<path d="M 53.5 48.3 C 54.1 50.4, 14.7 89.3, 28.6 91.6 C 25.5 72.7, 31.7 90.1, 31.9 99.6 C 26.2 82.4, 33.7 94.2, 25.3 94.4 C 10.7 85.2, 0.0 40.0, 9.2 36.1 C 23.3 45.2, 47.0 29.8, 43.8 40.2 C 45.6 53.0, 53.7 66.0, 43.7 59.1 C 47.1 67.8, 52.2 93.9, 52.2 85.1 Z" fill="hsl(242, 72%, 49%)" fill-opacity="0.66" stroke="none" stroke-width="4.17"  transform="translate(80.9 43.0) rotate(116.2) scale(0.56 2.00)" />
<rect x="23.1" y="5.7" width="26.7" height="27.2" rx="11.3" fill="none" fill-opacity="0.68"   transform="translate(38.5 6.7) rotate(51.0) scale(1.86 1.65)" />
<path d="M 45.2 51.3 C 46.2 36.6, 70.8 54.4, 75.6 52.3 C 91.4 51.4, 39.3 72.8, 47.5 82.6 C 60.9 70.0, 14.5 71.3, 9.1 65.2 C 0.0 55.6, 44.2 63.9, 33.1 66.2 C 32.1 68.5, 34.7 94.7, 36.0 91.4 C 44.3 79.0, 58.9 0.0, 69.8 1.6 C 71.4 19.3, 10.5 0.0, 3.4 3.2 Z" fill="hsl(144, 86%, 72%)" fill-opacity="0.90" stroke="none" stroke-width="2.50"  transform="translate(8.0 2.6) rotate(65.5) scale(1.57 1.82)" />
<path d="M 54.2 44.3 C 45.5 52.4, 94.6 59.1, 85.8 72.3 C 77.6 74.0, 86.0 19.6, 94.9 11.6 C 100.0 0.0, 12.3 29.4, 20.5 31.9 C 39.4 43.4, 7.6 82.9, 5.4 81.4 C 0.0 69.1, 85.9 14.5, 76.0 7.1 C 69.7 0.0, 50.5 37.2, 48.7 50.7 " fill="none" fill-opacity="0.50" stroke="hsl(104, 72%, 65%)" stroke-width="1.69"  transform="translate(48.1 32.6) rotate(59.6) scale(1.97 0.67)" />
<path d="M 56.5 43.1 C 57.6 30.4, 80.6 10.1, 81.5 20.6 C 92.9 13.1, 32.0 55.8, 41.0 41.2 C 33.6 52.3, 63.3 84.9, 48.7 96.0 C 51.0 97.1, 56.0 31.4, 67.3 22.4 C 84.3 30.9, 19.5 57.7, 9.6 66.7 C 8.3 57.1, 58.9 81.1, 72.8 83.3 Z" fill="none" fill-opacity="0.58" stroke="hsl(83, 65%, 44%)" stroke-width="1.50"  transform="translate(18.8 18.5) rotate(59.1) scale(0.68 1.40)" />
<path d="M 82.8 55.6 C 90.6 42.1, 47.2 22.2, 34.8 15.9 C 44.3 13.1, 20.0 38.5, 6.7 42.0 C 0.2 59.1, 26.2 39.0, 36.4 27.1 C 34.0 42.5, 21.5 73.3, 18.3 79.8 C 10.5 73.9, 74.4 19.2, 67.5 24.5 C 76.6 10.5, 46.0 68.9, 39.6 68.3 Z" fill="hsl(290, 83%, 63%)" fill-opacity="0.59" stroke="none" stroke-width="1.78"  transform="translate(91.8 87.9) rotate(349.7) scale(1.16 1.75)" />
<path d="M 44.5 63.8 C 37.9 67.2, 77.8 96.1, 82.6 82.9 C 79.9 100.0, 62.5 11.4, 67.1 7.2 C 81.3 20.8, 22.3 39.9, 11.6 30.1 C 0.0 48.1, 36.4 49.1, 44.1 61.1 C 35.7 63.2, 63.8 28.3, 58.6 32.3 C 44.1 37.4, 100.0 13.0, 98.2 17.3 C 96.9 1.7, 6.2 42.5, 16.3 50.0 Z" fill="none" fill-opacity="0.81" stroke="hsl(242, 72%, 49%)" stroke-width="2.97"  transform="translate(78.2 20.3) rotate(43.8) scale(1.51 1.27)" />
<path d="M 34.9 41.4 C 28.6 59.3, 100.0 86.3, 93.2 76.6 C 74.3 91.0, 72.4 18.0, 74.5 21.5 C 67.0 34.5, 39.6 19.2, 39.0 26.2 C 25.5 19.6, 86.6 18.7, 73.2 18.7 C 59.8 3.7, 94.5 25.1, 82.3 31.2 C 66.0 33.8, 77.5 75.7, 92.1 79.8 C 100.0 72.6, 6.4 69.6, 6.4 62.7 C 17.5 64.4, 91.4 40.1, 86.3 31.7 C 100.0 33.5, 35.7 0.0, 25.7 2.5 Z" fill="none" fill-opacity="0.46" stroke="hsl(242, 72%, 49%)" stroke-width="4.39"  transform="translate(10.7 88.9) rotate(53.3) scale(0.83 1.51)" />
<circle cx="58.9" cy="51.6" r="3.9" fill="hsl(2, 82%, 55%)" fill-opacity="0.61"  transform="translate(43.5 65.8) rotate(101.2) scale(0.83 1.04)" />
<circle cx="90.9" cy="79.7" r="4.2" fill="hsl(2, 82%, 55%)" fill-opacity="0.53"  transform="translate(83.1 81.6) rotate(63.9) scale(1.92 1.34)" />
<path d="M 1.2 19.8 C 0.0 5.6, 13.8 74.8, 14.7 75.6 C 20.4 87.8, 50.8 36.5, 57.3 24.7 C 71.0 42.3, 100.0 72.4, 95.2 85.8 C 87.8 70.8, 59.9 40.7, 58.8 55.1 C 55.9 42.9, 68.7 70.4, 68.1 63.0 C 87.0 70.0, 51.8 36.7, 37.1 38.2 C 29.7 30.0, 76.0 21.9, 61.0 11.8 C 50.4 25.4, 57.4 59.3, 67.4 56.5 C 61.2 75.3, 27.3 4.7, 31.9 3.0 C 35.2 0.0, 37.4 94.6, 39.4 90.6 Z" fill="hsl(144, 86%, 72%)" fill-opacity="0.31" stroke="none" stroke-width="4.65"  transform="translate(11.3 90.9) rotate(348.2) scale(1.73 0.80)" />
<path d="M 19.3 71.7 C 2.8 71.9, 64.0 43.5, 66.6 44.3 C 76.8 24.7, 20.2 1.8, 31.9 11.0 C 22.9 19.6, 68.4 43.7, 58.5 49.5 C 59.5 67.2, 30.7 46.4, 34.0 42.3 C 37.7 41.6, 65.0 75.8, 55.4 90.0 C 42.9 100.0, 19.8 42.2, 24.1 47.8 C 15.7 57.9, 85.0 90.3, 85.2 95.2 " fill="hsl(83, 65%, 44%)" fill-opacity="0.81" stroke="none" stroke-width="1.26" filter="url(#f1)" transform="translate(53.1 70.7) rotate(100.1) scale(1.03 1.43)" />
<rect x="2.4" y="58.4" width="24.2" height="34.0" rx="6.6" fill="none" fill-opacity="0.82"  filter="url(#f1)" transform="translate(95.6 63.2) rotate(233.9) scale(1.25 0.82)" />
<circle cx="55.2" cy="72.5" r="1.1" fill="hsl(104, 72%, 65%)" fill-opacity="0.71"  transform="translate(16.0 68.1) rotate(259.7) scale(0.80 1.25)" />
<path d="M 89.9 50.9 C 100.0 37.9, 97.0 13.6, 99.5 3.5 C 83.8 9.3, 70.5 22.6, 80.3 23.5 C 85.1 12.5, 100.0 37.6, 97.4 36.4 C 100.0 43.3, 100.0 57.1, 95.4 52.3 C 100.0 52.0, 10.2 45.4, 2.0 52.7 C 1.0 66.2, 100.0 100.0, 91.1 98.1 C 98.5 87.9, 65.7 12.4, 63.0 2.9 C 78.2 0.0, 74.8 73.6, 64.4 75.0 Z" fill="hsl(290, 83%, 63%)" fill-opacity="0.97" stroke="none" stroke-width="1.93"  transform="translate(42.4 36.6) rotate(177.9) scale(1.54 1.85)" />
<path d="M 73.2 12.3 C 76.6 3.6, 25.8 25.6, 39.9 21.5 C 28.3 8.4, 17.3 0.0, 16.7 2.8 C 15.8 7.1, 62.6 57.3, 62.9 50.7 C 64.3 47.1, 19.1 0.0, 22.9 11.2 C 9.1 0.0, 80.6 60.5, 94.1 56.7 C 95.7 66.3, 27.5 85.8, 19.4 96.2 C 8.1 77.9, 14.4 9.3, 21.1 20.7 C 14.4 29.4, 37.8 0.0, 44.4 0.2 C 37.7 18.2, 43.1 9.1, 30.4 0.2 Z" fill="none" fill-opacity="0.65" stroke="hsl(106, 75%, 59%)" stroke-width="3.56"   />
<path d="M 12.8 64.6 C 31.6 62.6, 24.0 91.4, 14.2 87.2 C 5.4 77.6, 100.0 23.0, 96.9 9.6 C 100.0 19.6, 14.9 43.7, 22.8 36.0 C 31.5 40.4, 8.8 64.6, 22.3 75.1 C 39.7 56.2, 71.4 59.4, 70.2 72.6 C 89.3 54.2, 45.9 24.2, 43.4 26.8 C 36.4 31.6, 43.0 86.6, 48.5 94.1 Z" fill="hsl(83, 65%, 44%)" fill-opacity="0.40" stroke="none" stroke-width="4.63"  transform="translate(54.7 69.9) rotate(232.1) scale(0.92 1.18)" />
<path d="M 1.8 1.0 C 0.0 18.8, 86.0 68.6, 94.3 55.9 C 100.0 71.8, 47.4 84.4, 55.0 81.8 C 56.4 88.0, 61.7 66.1, 63.3 57.9 C 66.3 67.9, 26.6 57.3, 32.9 50.7 C 21.2 40.0, 13.2 10.3, 3.2 11.4 C 6.9 28.9, 19.0 35.6, 27.9 44.6 C 15.8 59.2, 42.7 40.9, 41.3 44.9 C 22.3 57.2, 58.2 56.1, 72.3 46.4 Z" fill="none" fill-opacity="0.58" stroke="hsl(86, 72%, 68%)" stroke-width="2.98"  transform="translate(87.6 78.8) rotate(201.3) scale(0.55 1.98)" />
<rect x="59.1" y="60.9" width="39.0" height="31.0" rx="4.6" fill="none" fill-opacity="0.90"   transform="translate(57.2 23.8) rotate(206.1) scale(1.62 1.15)" />
<path d="M 53.0 58.1 C 38.3 58.5, 65.0 45.7, 55.1 60.0 C 36.9 45.4, 95.4 23.9, 90.0 37.8 C 77.7 38.8, 18.8 40.1, 6.4 38.8 C 19.5 40.6, 9.8 69.5, 10.0 79.1 C 8.7 92.0, 73.0 70.7, 74.7 81.3 C 84.0 65.6, 46.7 65.2, 51.9 62.3 C 35.1 64.9, 0.0 5.5, 4.6 2.1 C 0.0 6.7, 89.7 38.5, 75.8 43.0 C 78.9 29.3, 92.0 40.6, 95.6 33.0 Z" fill="none" fill-opacity="0.98" stroke="hsl(106, 75%, 59%)" stroke-width="3.30"   />
<path d="M 79.9 67.2 C 64.0 56.3, 27.7 70.1, 37.3 82.2 C 29.7 67.2, 52.0 99.5, 41.9 96.5 C 36.8 100.0, 25.0 5.2, 28.2 7.9 C 8.7 0.0, 11.9 15.0, 18.9 1.0 C 10.8 12.1, 22.6 14.6, 18.9 6.6 C 21.0 0.0, 80.9 100.0, 88.8 93.2 C 100.0 80.1, 46.5 31.0, 41.5 26.8 C 43.1 17.5, 12.1 18.4, 14.6 29.7 Z" fill="none" fill-opacity="0.31" stroke="hsl(86, 72%, 68%)" stroke-width="4.66"  transform="translate(54.6 9.0) rotate(109.6) scale(1.01 0.94)" />
<path d="M 5.4 77.1 C 3.5 74.5, 47.0 9.9, 50.1 13.8 C 38.3 26.4, 22.5 53.3, 28.4 66.7 C 24.3 62.1, 91.8 34.8, 98.1 30.6 C 100.0 22.1, 74.0 26.4, 71.3 18.1 C 51.7 23.4, 8.7 91.5, 18.6 84.9 C 20.8 70.9, 43.3 72.5, 40.9 86.9 C 28.6 100.0, 88.4 38.9, 81.5 51.9 C 96.2 53.5, 41.0 77.0, 55.1 91.2 Z" fill="hsl(144, 86%, 72%)" fill-opacity="0.57" stroke="none" stroke-width="1.83"  transform="translate(86.1 32.7) rotate(257.7) scale(0.82 0.50)" />
<path d="M 75.2 87.3 C 83.3 93.5, 58.9 44.3, 59.2 53.2 C 78.1 58.7, 39.0 43.3, 53.5 39.7 C 68.5 49.7, 23.2 82.7, 29.6 84.5 C 44.8 91.8, 65.1 52.3, 53.7 57.2 C 41.7 52.2, 61.3 87.7, 58.1 94.5 C 59.4 85.4, 2.5 57.3, 13.4 44.7 C 7.8 49.5, 100.0 11.9, 94.2 5.2 Z" fill="none" fill-opacity="1.00" stroke="hsl(183, 71%, 60%)" stroke-width="1.18"  transform="translate(10.5 57.5) rotate(277.5) scale(0.59 0.66)" />
<path d="M 82.7 53.1 C 89.8 33.5, 66.5 63.6, 63.7 62.5 C 81.3 80.5, 35.0 52.2, 49.4 44.9 C 33.6 28.6, 10.6 47.1, 7.8 39.2 C 7.2 32.4, 19.3 63.4, 19.2 65.2 C 27.2 55.8, 78.8 8.4, 86.4 2.7 C 71.4 19.3, 100.0 65.6, 89.8 60.0 C 100.0 55.4, 82.2 39.4, 77.8 48.9 C 70.3 61.1, 46.1 25.9, 53.0 12.3 Z" fill="hsl(104, 72%, 65%)" fill-opacity="0.84" stroke="none" stroke-width="3.41"   />
<path d="M 10.1 70.7 C 23.2 86.7, 34.4 66.8, 42.1 53.6 C 33.7 64.8, 56.9 57.7, 42.7 63.5 C 37.5 70.3, 20.3 46.3, 15.2 46.0 C 28.9 26.2, 55.9 21.1, 50.4 22.1 C 60.1 5.4, 14.5 0.0, 14.6 1.0 C 30.8 4.3, 64.8 85.8, 50.9 78.8 C 48.9 71.3, 0.6 56.3, 10.3 44.4 C 13.0 53.1, 62.3 82.9, 56.4 90.1 C 43.9 76.4, 57.2 79.8, 60.3 85.1 " fill="hsl(86, 72%, 68%)" fill-opacity="0.88" stroke="none" stroke-width="5.15"  transform="translate(39.2 95.6) rotate(246.6) scale(1.57 0.52)" />
<rect x="31.2" y="20.5" width="44.7" height="37.7" rx="2.5" fill="hsl(322, 74%, 44%)" fill-opacity="0.23"  filter="url(#f1)" transform="translate(32.2 38.8) rotate(267.4) scale(1.47 1.91)" />
<path d="M 55.3 42.4 C 57.9 58.7, 20.6 58.3, 19.1 68.5 C 5.3 61.1, 63.9 90.9, 63.9 77.8 C 62.8 71.2, 100.0 62.7, 97.6 77.5 C 91.5 63.3, 69.8 12.0, 72.1 0.2 C 91.0 0.0, 12.2 37.7, 11.0 41.3 C 30.2 40.0, 23.3 33.6, 24.4 40.4 Z" fill="none" fill-opacity="0.77" stroke="hsl(86, 72%, 68%)" stroke-width="4.27"   />
<path d="M 62.0 97.3 C 66.3 100.0, 100.0 39.4, 87.4 50.6 C 100.0 43.3, 98.6 30.2, 95.5 18.8 C 85.7 4.4, 0.5 62.0, 4.0 55.9 C 22.5 42.1, 4.0 74.5, 4.7 76.8 C 0.0 95.5, 14.9 32.2, 17.3 41.4 C 9.8 25.3, 97.4 30.1, 87.4 27.3 C 94.7 19.6, 66.2 15.9, 75.1 16.8 C 79.5 15.5, 10.4 18.5, 4.0 12.1 Z" fill="hsl(40, 53%, 69%)" fill-opacity="0.99" stroke="none" stroke-width="4.02"  transform="translate(9.4 85.2) rotate(221.2) scale(1.62 1.86)" />
<path d="M 5.6 95.9 C 23.9 93.3, 52.6 79.9, 43.1 81.7 C 56.9 90.6, 39.0 47.6, 51.9 43.9 C 48.1 41.6, 12.1 59.5, 18.9 48.3 C 8.0 49.8, 84.7 8.1, 97.8 13.2 C 83.3 32.3, 48.3 85.4, 44.9 78.2 C 40.4 66.0, 40.2 88.7, 36.8 96.4 " fill="none" fill-opacity="0.59" stroke="hsl(290, 83%, 63%)" stroke-width="1.89"  transform="translate(6.2 49.4) rotate(48.2) scale(1.64 1.19)" />
<path d="M 86.2 91.4 C 90.1 96.9, 34.3 24.1, 27.4 34.0 C 12.0 34.5, 73.0 68.7, 86.2 56.1 C 71.1 73.9, 82.9 74.9, 68.9 74.3 C 73.7 76.5, 53.1 35.8, 64.5 27.7 C 79.1 36.3, 18.3 83.8, 31.2 71.6 C 29.3 62.1, 59.4 71.1, 50.7 82.7 Z" fill="none" fill-opacity="0.95" stroke="hsl(322, 74%, 44%)" stroke-width="2.11"   />
<path d="M 25.1 45.3 C 14.2 50.0, 38.4 70.3, 28.2 74.2 C 18.8 83.7, 12.1 74.5, 26.3 74.1 C 31.2 73.0, 11.7 57.7, 6.1 43.4 C 0.0 46.8, 17.5 25.3, 22.9 14.8 C 4.1 1.8, 65.3 54.4, 74.0 49.6 C 73.0 63.5, 85.0 85.1, 93.0 89.7 C 100.0 98.4, 58.7 83.3, 63.7 85.5 C 46.3 74.2, 98.2 61.1, 85.1 55.2 C 78.0 39.9, 0.0 28.3, 2.1 35.2 " fill="hsl(40, 53%, 69%)" fill-opacity="0.29" stroke="none" stroke-width="4.02"  transform="translate(99.2 52.1) rotate(312.0) scale(1.71 0.98)" />
<path d="M 27.2 31.7 C 43.4 28.7, 77.0 3.5, 65.8 11.1 C 63.3 23.9, 77.9 73.5, 75.2 84.4 C 64.5 76.4, 22.1 78.8, 30.1 79.5 C 45.2 69.5, 65.7 6.6, 71.4 13.0 C 65.1 32.2, 8.1 39.8, 14.9 52.7 C 9.0 53.2, 16.7 68.0, 16.1 62.1 Z" fill="hsl(322, 74%, 44%)" fill-opacity="0.78" stroke="none" stroke-width="3.40"  transform="translate(53.3 65.4) rotate(206.3) scale(1.15 0.70)" />
<path d="M 75.9 0.6 C 81.0 0.0, 51.9 86.7, 44.6 83.4 C 44.3 74.1, 86.7 94.5, 76.8 95.8 C 64.7 94.7, 76.3 51.4, 88.7 66.2 C 100.0 76.8, 82.2 56.2, 83.2 45.4 C 83.2 27.0, 37.6 34.4, 25.6 41.5 C 36.5 43.9, 85.2 37.3, 84.2 29.6 Z" fill="hsl(106, 75%, 59%)" fill-opacity="0.42" stroke="none" stroke-width="3.32"  transform="translate(5.4 23.6) rotate(165.3) scale(0.90 1.02)" />
<circle cx="63.4" cy="60.1" r="4.9" fill="url(#g0)" fill-opacity="0.97" filter="url(#f1)" transform="translate(68.3 86.6) rotate(78.0) scale(0.73 1.63)" />
<circle cx="60.5" cy="52.3" r="1.4" fill="url(#g2)" fill-opacity="0.88"  transform="translate(14.3 51.2) rotate(311.3) scale(0.95 0.98)" />
<path d="M 34.2 35.1 C 23.0 31.6, 8.6 69.8, 0.1 70.5 C 0.0 84.2, 21.0 0.0, 29.7 10.8 C 42.4 22.0, 56.4 90.1, 67.4 89.5 C 86.4 86.9, 38.4 69.3, 39.0 54.3 C 35.6 70.7, 81.7 22.0, 86.2 26.7 C 87.6 25.6, 28.3 97.0, 35.6 92.6 C 27.8 92.5, 40.0 99.6, 29.5 92.5 C 36.2 79.5, 28.8 46.8, 27.0 45.1 C 23.4 38.2, 8.9 0.0, 1.5 0.4 Z" fill="hsl(242, 72%, 49%)" fill-opacity="0.37" stroke="none" stroke-width="3.93"  transform="translate(57.5 78.5) rotate(93.0) scale(0.77 0.78)" />
<rect x="19.3" y="68.6" width="47.6" height="10.1" rx="0" fill="none" fill-opacity="0.79"   transform="translate(42.0 50.8) rotate(272.6) scale(1.13 1.55)" />
<rect x="39.6" y="40.8" width="30.8" height="25.1" rx="16.2" fill="hsl(242, 72%, 49%)" fill-opacity="0.94"   transform="translate(87.5 4.0) rotate(95.6) scale(1.61 1.38)" />
<circle cx="35.4" cy="57.5" r="2.5" fill="url(#g2)" fill-opacity="0.60"  transform="translate(51.3 45.1) rotate(11.3) scale(0.54 1.85)" />
<path d="M 95.3 8.2 C 94.7 6.2, 63.3 2.1, 51.8 2.8 C 59.7 4.8, 24.7 24.7, 14.3 36.8 C 31.9 18.5, 3.8 78.9, 5.4 66.4 C 14.2 65.0, 30.9 19.2, 31.8 23.3 C 25.8 14.9, 51.9 70.4, 49.9 56.9 C 57.8 63.2, 84.5 29.1, 84.3 39.0 C 81.1 22.5, 18.7 26.6, 28.1 39.0 C 26.8 45.2, 75.0 8.8, 62.5 9.9 C 80.5 0.0, 23.6 68.1, 28.6 67.5 Z" fill="none" fill-opacity="0.49" stroke="hsl(83, 65%, 44%)" stroke-width="0.83"  transform="translate(73.0 27.3) rotate(12.3) scale(0.95 0.92)" />
<path d="M 64.9 69.1 C 53.0 80.1, 38.4 87.5, 27.4 85.1 C 15.8 86.5, 14.2 47.2, 22.6 47.0 C 29.8 28.9, 26.1 65.4, 33.7 79.3 C 19.6 81.1, 87.9 48.2, 92.1 45.4 C 91.9 39.7, 32.6 15.6, 30.2 11.2 C 31.1 10.3, 25.3 52.4, 26.4 54.5 C 43.5 47.8, 92.0 6.1, 98.2 17.3 C 100.0 1.8, 55.2 52.5, 59.8 43.8 C 51.3 32.0, 49.0 77.0, 61.7 86.7 Z" fill="hsl(2, 82%, 55%)" fill-opacity="0.80" stroke="none" stroke-width="1.77" filter="url(#f1)" transform="translate(9.4 88.5) rotate(120.6) scale(0.92 1.84)" />
<rect x="39.8" y="9.6" width="37.8" height="32.3" rx="0" fill="hsl(104, 72%, 65%)" fill-opacity="0.61" stroke="hsl(144, 86%, 72%)" stroke-width="4.3"  transform="translate(66.8 42.8) rotate(315.0) scale(1.51 1.75)" />
<path d="M 54.1 37.7 C 59.2 45.4, 100.0 94.5, 96.3 84.2 C 86.1 72.5, 49.7 15.2, 59.4 30.2 C 69.8 40.6, 0.0 85.3, 5.8 95.2 C 16.0 81.8, 73.5 0.0, 69.9 7.6 C 81.9 18.2, 100.0 32.3, 92.4 29.1 C 94.7 12.0, 43.3 77.3, 29.3 81.1 C 25.4 83.1, 21.5 18.6, 25.3 33.1 C 28.3 45.2, 74.5 7.6, 76.2 14.6 C 92.0 26.3, 28.1 95.3, 27.0 86.7 C 8.4 100.0, 0.0 45.4, 6.2 40.2 Z" fill="hsl(322, 74%, 44%)" fill-opacity="0.97" stroke="none" stroke-width="3.57" filter="url(#f1)" transform="translate(1.9 60.0) rotate(0.1) scale(1.27 1.67)" />
<path d="M 89.2 69.2 C 100.0 79.8, 96.6 6.3, 97.5 19.5 C 100.0 21.4, 39.3 89.7, 25.4 97.1 C 30.5 100.0, 44.3 86.8, 52.8 97.4 C 62.7 85.8, 39.6 58.4, 46.0 48.4 C 45.3 54.1, 45.2 19.5, 37.3 27.1 C 46.6 21.5, 69.4 41.0, 59.8 39.6 Z" fill="hsl(290, 83%, 63%)" fill-opacity="0.54" stroke="none" stroke-width="1.33"   />
<rect x="73.0" y="33.5" width="23.9" height="14.1" rx="0" fill="none" fill-opacity="0.75"   transform="translate(46.0 82.0) rotate(250.4) scale(1.64 1.26)" />
<path d="M 63.0 77.5 C 68.4 82.2, 2.7 16.4, 16.6 13.4 C 3.5 7.6, 74.0 83.1, 61.0 72.3 C 80.3 87.4, 56.3 19.0, 69.7 8.0 C 86.8 14.5, 27.6 10.0, 29.3 7.6 C 27.1 0.0, 18.1 84.5, 16.1 80.8 C 32.0 94.4, 20.8 8.1, 19.7 22.8 Z" fill="hsl(104, 72%, 65%)" fill-opacity="0.33" stroke="none" stroke-width="4.53"  transform="translate(66.6 95.9) rotate(355.0) scale(0.61 1.42)" />
<path d="M 12.1 15.3 C 0.0 14.1, 14.3 100.0, 7.3 87.8 C 15.4 100.0, 26.8 81.3, 36.1 96.0 C 22.5 77.0, 44.8 17.5, 33.5 23.1 C 39.3 14.4, 66.0 68.5, 58.8 56.2 C 75.6 36.6, 84.7 81.7, 72.3 95.3 C 72.0 99.0, 46.4 64.7, 35.4 78.7 C 33.0 87.7, 93.3 18.6, 95.4 20.5 C 100.0 27.7, 47.4 50.9, 58.1 49.3 C 59.7 40.5, 81.3 100.0, 88.6 88.4 C 86.4 100.0, 13.4 53.7, 19.8 53.3 Z" fill="hsl(106, 75%, 59%)" fill-opacity="0.62" stroke="none" stroke-width="0.97"  transform="translate(80.1 53.0) rotate(289.9) scale(0.91 1.77)" />
<path d="M 52.1 82.4 C 42.2 62.8, 67.8 58.4, 61.7 73.4 C 47.4 76.5, 100.0 0.2, 96.5 4.6 C 99.5 2.3, 48.9 12.3, 51.6 25.5 C 51.1 18.0, 0.0 93.3, 3.6 86.5 C 16.4 80.0, 80.4 62.9, 83.6 75.3 C 85.2 72.7, 87.2 29.2, 83.1 40.7 C 89.0 49.3, 9.4 61.3, 17.3 73.2 C 4.9 71.9, 7.5 22.9, 22.1 33.3 C 3.8 28.3, 34.2 72.0, 23.3 57.4 C 5.4 45.3, 58.7 4.3, 53.5 3.5 Z" fill="none" fill-opacity="0.39" stroke="hsl(183, 71%, 60%)" stroke-width="3.04"  transform="translate(69.9 56.8) rotate(291.8) scale(0.86 0.88)" />
<circle cx="46.5" cy="15.0" r="14.5" fill="url(#g0)" fill-opacity="0.92" filter="url(#f1)" transform="translate(14.5 49.9) rotate(272.7) scale(1.06 1.26)" />
<circle cx="76.2" cy="55.3" r="5.9" fill="hsl(40, 53%, 69%)" fill-opacity="0.97"   />
<path d="M 14.7 10.5 C 0.4 0.0, 35.5 2.7, 32.0 14.5 C 29.7 30.3, 0.0 92.6, 11.2 91.8 C 0.8 77.1, 22.9 93.9, 32.7 80.1 C 52.5 71.8, 18.5 36.1, 4.0 41.6 C 3.0 27.8, 92.9 81.0, 81.7 73.8 C 69.7 57.9, 19.9 83.4, 30.7 83.5 C 16.1 83.4, 2.2 77.8, 1.6 90.6 C 6.1 76.5, 43.7 92.0, 43.0 88.3 C 25.3 89.4, 75.1 88.4, 82.5 96.4 C 72.8 78.9, 72.5 88.4, 63.4 94.4 " fill="hsl(183, 71%, 60%)" fill-opacity="0.68" stroke="none" stroke-width="2.61"  transform="translate(33.2 31.3) rotate(66.4) scale(0.92 1.09)" />
<path d="M 52.0 18.3 C 53.2 16.7, 37.9 0.0, 49.3 0.2 C 45.3 4.6, 16.2 16.7, 2.2 2.2 C 0.0 0.0, 43.6 100.0, 47.8 96.2 C 67.4 85.3, 36.4 9.8, 27.7 20.7 C 17.6 14.6, 0.0 67.2, 0.8 80.8 C 5.9 97.5, 0.0 36.2, 4.3 41.7 C 5.5 25.4, 66.7 22.9, 53.2 31.2 C 42.6 48.7, 94.3 19.1, 90.3 12.5 Z" fill="none" fill-opacity="0.47" stroke="hsl(83, 65%, 44%)" stroke-width="1.79"   />
<rect x="59.3" y="27.2" width="33.2" height="28.6" rx="0" fill="none" fill-opacity="0.70"    />
<rect x="28.3" y="63.4" width="35.9" height="35.2" rx="11.8" fill="none" fill-opacity="0.56"   transform="translate(32.2 40.5) rotate(265.0) scale(1.02 1.86)" />
<path d="M 93.1 74.2 C 100.0 58.9, 91.2 47.4, 92.4 50.5 C 82.3 66.6, 65.0 23.9, 60.0 38.8 C 53.0 44.5, 89.1 59.8, 80.1 52.8 C 68.5 33.3, 50.3 85.8, 61.6 94.3 C 56.7 91.4, 46.0 95.8, 56.4 92.5 C 38.3 100.0, 5.0 78.2, 17.1 64.6 Z" fill="none" fill-opacity="0.40" stroke="hsl(86, 72%, 68%)" stroke-width="2.61"   />
<path d="M 45.1 84.0 C 57.5 78.5, 82.1 33.8, 90.2 42.9 C 73.7 52.6, 28.0 82.4, 29.3 85.6 C 27.2 78.8, 93.6 25.8, 91.5 31.5 C 71.9 28.0, 3.6 70.9, 4.5 79.9 C 18.9 91.0, 77.5 96.1, 90.9 82.5 C 82.6 73.9, 52.4 47.3, 49.4 35.3 " fill="none" fill-opacity="0.41" stroke="hsl(322, 74%, 44%)" stroke-width="1.21"  transform="translate(61.0 51.1) rotate(310.2) scale(0.58 1.16)" />
<path d="M 99.8 57.1 C 100.0 61.1, 77.5 12.5, 65.8 15.5 C 67.6 3.8, 16.7 67.6, 7.2 57.2 C 0.0 76.1, 24.2 80.9, 31.3 77.0 C 21.2 64.3, 54.5 97.0, 57.1 84.0 C 65.5 100.0, 86.4 72.6, 71.8 75.2 C 66.7 66.8, 83.4 73.1, 77.8 80.8 C 74.8 67.2, 90.3 28.6, 98.6 30.5 " fill="hsl(83, 65%, 44%)" fill-opacity="0.33" stroke="none" stroke-width="2.20"  transform="translate(74.3 28.4) rotate(259.1) scale(1.35 1.12)" />
<path d="M 2.0 11.2 C 0.0 24.5, 38.1 75.5, 38.9 89.6 C 25.0 74.5, 16.0 40.6, 4.7 38.5 C 3.7 44.0, 81.6 100.0, 93.0 95.9 C 91.9 100.0, 72.6 83.5, 85.6 94.6 C 70.5 96.6, 27.8 80.3, 33.9 71.5 C 40.2 65.2, 60.7 24.3, 73.5 12.0 " fill="hsl(183, 71%, 60%)" fill-opacity="0.72" stroke="none" stroke-width="2.44"  transform="translate(36.1 20.1) rotate(198.0) scale(1.73 1.70)" />
<path d="M 93.1 51.9 C 92.4 48.1, 91.3 22.1, 84.0 14.8 C 96.1 20.9, 49.5 59.8, 55.5 47.0 C 69.5 32.3, 47.4 45.8, 48.9 46.5 C 30.1 63.9, 24.9 65.7, 35.4 65.9 C 53.5 70.9, 93.3 55.9, 91.6 65.2 C 86.7 65.1, 38.3 44.8, 36.9 38.7 C 33.9 29.9, 58.2 93.6, 66.0 86.2 C 83.5 79.4, 57.1 100.0, 61.2 97.3 C 44.4 90.6, 21.2 0.0, 22.2 4.9 C 12.8 15.6, 59.5 13.3, 55.6 21.5 Z" fill="hsl(86, 72%, 68%)" fill-opacity="0.29" stroke="none" stroke-width="2.18"  transform="translate(46.6 72.3) rotate(19.2) scale(1.60 1.22)" />
<circle cx="82.7" cy="48.7" r="10.5" fill="url(#g2)" fill-opacity="0.81" filter="url(#f1)" transform="translate(24.3 53.0) rotate(320.3) scale(1.75 0.54)" />
<rect x="28.7" y="64.7" width="21.5" height="29.5" rx="19.9" fill="hsl(86, 72%, 68%)" fill-opacity="0.24" stroke="hsl(2, 82%, 55%)" stroke-width="1.2"  transform="translate(64.5 20.8) rotate(265.9) scale(1.27 1.63)" />
<path d="M 72.0 10.8 C 68.8 0.0, 99.2 35.2, 96.2 31.1 C 80.1 22.3, 95.1 11.9, 83.1 6.5 C 77.0 20.3, 67.6 35.7, 62.7 22.4 C 52.5 13.8, 95.1 40.5, 90.4 42.9 C 81.6 28.2, 34.9 8.1, 20.1 4.9 C 3.6 22.8, 80.6 100.0, 67.6 94.8 Z" fill="none" fill-opacity="0.45" stroke="hsl(40, 53%, 69%)" stroke-width="3.67"  transform="translate(36.6 32.3) rotate(36.9) scale(1.05 1.73)" />
<circle cx="60.4" cy="79.6" r="5.7" fill="url(#g0)" fill-opacity="0.87" filter="url(#f1)" transform="translate(50.5 33.5) rotate(152.5) scale(1.34 1.02)" />
<rect x="19.5" y="23.8" width="40.7" height="29.7" rx="0" fill="hsl(106, 75%, 59%)" fill-opacity="0.97" stroke="hsl(183, 71%, 60%)" stroke-width="3.9"  transform="translate(46.8 10.1) rotate(77.0) scale(1.60 1.26)" />
<rect x="20.2" y="12.0" width="33.9" height="34.7" rx="14.4" fill="hsl(104, 72%, 65%)" fill-opacity="0.33"   transform="translate(26.4 73.8) rotate(346.2) scale(0.58 0.91)" />
<path d="M 78.0 84.3 C 65.2 77.5, 62.5 86.7, 69.7 74.2 C 54.0 85.2, 52.1 59.5, 45.2 48.1 C 36.1 67.4, 1.5 42.1, 6.9 43.4 C 0.0 40.9, 15.9 12.6, 16.3 4.5 C 5.4 4.2, 10.9 48.0, 9.0 54.6 C 25.9 47.0, 48.6 28.4, 40.6 31.9 Z" fill="none" fill-opacity="0.43" stroke="hsl(40, 53%, 69%)" stroke-width="2.71"   />
<circle cx="18.6" cy="49.4" r="11.0" fill="hsl(322, 74%, 44%)" fill-opacity="0.63"  transform="translate(70.2 54.9) rotate(152.4) scale(1.15 1.13)" />
<circle cx="7.2" cy="30.3" r="0.9" fill="hsl(183, 71%, 60%)" fill-opacity="0.88"  transform="translate(87.8 33.6) rotate(239.1) scale(1.93 0.85)" />
<path d="M 100.0 60.5 C 89.8 67.9, 64.5 88.3, 52.4 74.8 C 40.0 89.2, 13.4 11.1, 0.8 9.9 C 7.6 3.9, 83.9 62.9, 71.9 76.1 C 63.8 67.9, 94.0 61.5, 92.6 47.5 C 100.0 51.0, 88.9 64.9, 98.0 66.6 C 100.0 84.1, 86.9 2.2, 87.2 4.5 C 68.3 0.0, 53.7 69.2, 62.5 80.5 C 68.1 64.9, 69.9 26.9, 64.6 18.1 C 81.4 1.6, 70.3 61.6, 58.3 51.0 Z" fill="hsl(106, 75%, 59%)" fill-opacity="0.49" stroke="none" stroke-width="3.58"  transform="translate(0.5 65.2) rotate(292.0) scale(1.81 1.77)" />
<path d="M 95.4 16.6 C 94.7 17.5, 12.8 2.6, 26.9 16.9 C 19.8 8.4, 71.5 69.3, 74.8 73.3 C 59.7 64.8, 13.4 41.8, 3.9 27.6 C 0.0 30.8, 27.2 3.0, 29.2 15.7 C 43.1 26.4, 62.7 8.1, 61.9 13.2 C 71.9 15.0, 23.8 10.5, 35.3 21.5 C 36.2 5.0, 34.2 24.5, 28.7 36.4 C 27.8 44.7, 57.7 13.7, 68.1 3.6 Z" fill="none" fill-opacity="0.95" stroke="hsl(183, 71%, 60%)" stroke-width="2.95"   />
<path d="M 55.0 0.4 C 49.4 0.0, 70.6 61.9, 66.7 59.8 C 84.3 50.2, 85.9 0.0, 79.5 5.8 C 74.1 20.8, 40.6 18.7, 40.1 17.4 C 59.0 25.6, 14.5 28.3, 24.1 41.0 C 42.1 30.4, 73.0 55.5, 78.4 64.6 C 82.5 47.3, 33.9 48.4, 25.5 42.4 C 36.9 49.8, 9.9 63.5, 22.7 74.0 C 17.5 83.7, 68.2 86.6, 58.3 95.7 C 61.4 90.4, 100.0 2.2, 88.6 7.3 Z" fill="none" fill-opacity="0.71" stroke="hsl(144, 86%, 72%)" stroke-width="3.74"  transform="translate(31.1 88.6) rotate(293.9) scale(1.34 1.47)" />
<circle cx="57.5" cy="89.7" r="3.4" fill="hsl(183, 71%, 60%)" fill-opacity="0.49"   />
<rect x="6.3" y="57.9" width="49.6" height="37.1" rx="0" fill="hsl(151, 70%, 62%)" fill-opacity="0.60"   transform="translate(73.4 9.8) rotate(68.6) scale(1.70 1.41)" />
<g opacity="0.044">
<rect x="0" y="0" width="1" height="100" fill="black" />
<rect x="22" y="0" width="1" height="100" fill="black" />
<rect x="44" y="0" width="1" height="100" fill="black" />
<rect x="66" y="0" width="1" height="100" fill="black" />
<rect x="88" y="0" width="1" height="100" fill="black" />
<rect x="0" y="0" width="100" height="1" fill="black" />
<rect x="0" y="22" width="100" height="1" fill="black" />
<rect x="0" y="44" width="100" height="1" fill="black" />
<rect x="0" y="66" width="100" height="1" fill="black" />
<rect x="0" y="88" width="100" height="1" fill="black" />
</g>

</svg>
