<?xml version="1.0" encoding="UTF-8"?>
<svg xmlns="http://www.w3.org/2000/svg" width="100" height="100" viewBox="0 0 100 100">
<defs>
<linearGradient id="g0" x1="0%" y1="0%" x2="100%" y2="100%">
<stop offset="0.0%" stop-color="hsl(106, 75%, 59%)" />
<stop offset="33.3%" stop-color="hsl(183, 71%, 60%)" />
<stop offset="66.7%" stop-color="hsl(242, 72%, 49%)" />
<stop offset="100.0%" stop-color="hsl(322, 74%, 44%)" />
</linearGradient>
<linearGradient id="g1" x1="0%" y1="0%" x2="100%" y2="100%">
<stop offset="0.0%" stop-color="hsl(290, 83%, 63%)" />
<stop offset="33.3%" stop-color="hsl(2, 82%, 55%)" />
<stop offset="66.7%" stop-color="hsl(86, 72%, 68%)" />
<stop offset="100.0%" stop-color="hsl(83, 65%, 44%)" />
</linearGradient>
<linearGradient id="g2" x1="0%" y1="0%" x2="100%" y2="100%">
<stop offset="0.0%" stop-color="hsl(40, 53%, 69%)" />
<stop offset="33.3%" stop-color="hsl(104, 72%, 65%)" />
<stop offset="66.7%" stop-color="hsl(144, 86%, 72%)" />
<stop offset="100.0%" stop-color="hsl(151, 70%, 62%)" />
</linearGradient>
</defs>

<path d="M 36.4 27.0 C 36.0 37.5, 2.8 36.2, 9.0 41.3 C 10.5 24.9, 39.9 81.7, 54.7 88.4 C 45.9 100.0, 75.8 10.3, 90.2 13.0 " fill="none" fill-opacity="0.70" stroke="hsl(183, 71%, 60%)" stroke-width="1.07"   />
<path d="M 64.1 4.8 C 45.7 2.9, 100.0 89.6, 92.4 83.1 C 75.6 84.7, 37.0 0.0, 49.1 11.2 C 48.7 23.1, 68.3 18.3, 78.1 13.7 " fill="hsl(83, 65%, 44%)" fill-opacity="0.87" stroke="none" stroke-width="1.24"  transform="translate(6.2 32.9) rotate(54.3) scale(1.69 1.47)" />
<circle cx="84.2" cy="54.7" r="0.3" fill="hsl(86, 72%, 68%)" fill-opacity="0.59"  transform="translate(54.8 64.3) rotate(268.0) scale(1.25 1.32)" />
<rect x="25.3" y="63.2" width="20.8" height="27.9" rx="0" fill="hsl(183, 71%, 60%)" fill-opacity="0.64"   transform="translate(0.4 71.6) rotate(137.3) scale(0.67 1.42)" />
<circle cx="7.3" cy="68.9" r="1.3" fill="hsl(83, 65%, 44%)" fill-opacity="0.57"  transform="translate(59.1 75.3) rotate(333.7) scale(1.96 1.43)" />
<circle cx="32.0" cy="89.2" r="0.4" fill="hsl(290, 83%, 63%)" fill-opacity="0.44"  transform="translate(95.8 41.0) rotate(108.7) scale(1.17 0.58)" />
<path d="M 32.5 49.5 C 28.1 64.5, 100.0 38.3, 93.4 33.7 C 100.0 43.8, 86.2 58.5, 86.5 65.3 C 99.4 68.8, 27.6 47.5, 16.2 39.7 C 0.0 56.8, 47.6 44.8, 40.3 37.2 C 41.6 41.5, 92.8 47.1, 98.2 58.7 C 91.5 59.9, 77.7 0.0, 72.8 7.2 " fill="hsl(144, 86%, 72%)" fill-opacity="0.97" stroke="none" stroke-width="1.00"  transform="translate(6.7 22.6) rotate(48.3) scale(1.86 1.86)" />
<path d="M 59.9 26.1 C 66.1 34.4, 0.2 100.0, 6.6 94.1 C 18.8 100.0, 57.4 0.0, 54.5 2.4 C 40.2 0.5, 0.0 69.9, 0.1 77.8 C 6.1 65.6, 70.4 37.1, 67.4 40.7 C 63.3 57.1, 43.4 78.4, 45.9 67.7 " fill="hsl(322, 74%, 44%)" fill-opacity="0.96" stroke="none" stroke-width="1.01"   />
<rect x="17.0" y="32.5" width="21.4" height="12.8" rx="0" fill="hsl(242, 72%, 49%)" fill-opacity="0.77"    />
<path d="M 84.9 38.0 C 75.5 32.9, 86.6 11.3, 91.7 1.5 C 100.0 15.4, 42.7 67.8, 41.6 62.8 C 44.2 72.4, 57.9 54.9, 46.6 66.3 C 50.4 64.2, 27.1 64.0, 38.4 61.1 C 20.6 65.9, 21.9 72.5, 12.9 69.0 Z" fill="hsl(83, 65%, 44%)" fill-opacity="0.71" stroke="none" stroke-width="0.84"   />
<rect x="49.3" y="33.3" width="21.8" height="38.8" rx="19.2" fill="none" fill-opacity="0.94"    />
<rect x="9.7" y="54.0" width="43.9" height="16.3" rx="5.2" fill="hsl(86, 72%, 68%)" fill-opacity="0.84"    />
<path d="M 50.2 76.4 C 46.1 61.5, 10.9 41.6, 8.9 31.1 C 1.3 37.9, 81.0 99.6, 71.6 92.4 C 73.3 92.5, 7.1 26.8, 16.0 30.0 " fill="hsl(183, 71%, 60%)" fill-opacity="0.82" stroke="none" stroke-width="0.89"  transform="translate(92.8 56.0) rotate(219.9) scale(1.74 0.81)" />
<path d="M 15.1 68.0 C 22.1 49.1, 49.1 82.6, 48.7 90.4 C 32.2 100.0, 64.9 84.4, 68.7 98.2 C 53.1 100.0, 69.0 100.0, 74.0 97.6 C 93.2 100.0, 26.0 100.0, 18.6 93.6 Z" fill="none" fill-opacity="0.43" stroke="hsl(2, 82%, 55%)" stroke-width="1.20"   />
<path d="M 89.4 11.9 C 96.8 0.0, 34.2 56.7, 33.4 66.6 C 18.1 81.9, 30.4 40.5, 39.1 29.5 C 31.1 31.3, 32.6 26.2, 24.0 14.1 C 39.5 0.0, 93.8 8.1, 86.3 5.7 " fill="hsl(144, 86%, 72%)" fill-opacity="0.79" stroke="none" stroke-width="0.80"  transform="translate(54.3 2.4) rotate(121.8) scale(1.53 0.77)" />
<circle cx="51.2" cy="98.5" r="0.2" fill="hsl(2, 82%, 55%)" fill-opacity="0.50"  transform="translate(59.3 36.5) rotate(256.2) scale(1.25 1.41)" />
<rect x="20.9" y="82.3" width="30.7" height="11.8" rx="0" fill="hsl(151, 70%, 62%)" fill-opacity="0.46"    />
</svg>
