<?xml version="1.0" encoding="UTF-8"?>
<svg xmlns="http://www.w3.org/2000/svg" width="100" height="100" viewBox="0 0 100 100">
<defs>
<linearGradient id="g0" x1="0%" y1="0%" x2="100%" y2="100%">
<stop offset="0.0%" stop-color="hsl(106, 75%, 59%)" />
<stop offset="33.3%" stop-color="hsl(183, 71%, 60%)" />
<stop offset="66.7%" stop-color="hsl(242, 72%, 49%)" />
<stop offset="100.0%" stop-color="hsl(322, 74%, 44%)" />
</linearGradient>
<linearGradient id="g1" x1="0%" y1="0%" x2="100%" y2="100%">
<stop offset="0.0%" stop-color="hsl(290, 83%, 63%)" />
<stop offset="33.3%" stop-color="hsl(2, 82%, 55%)" />
<stop offset="66.7%" stop-color="hsl(86, 72%, 68%)" />
<stop offset="100.0%" stop-color="hsl(83, 65%, 44%)" />
</linearGradient>
<linearGradient id="g2" x1="0%" y1="0%" x2="100%" y2="100%">
<stop offset="0.0%" stop-color="hsl(40, 53%, 69%)" />
<stop offset="33.3%" stop-color="hsl(104, 72%, 65%)" />
<stop offset="66.7%" stop-color="hsl(144, 86%, 72%)" />
<stop offset="100.0%" stop-color="hsl(151, 70%, 62%)" />
</linearGradient>
<filter id="f1" x="-20%" y="-20%" width="140%" height="140%">
  <feGaussianBlur stdDeviation="2.151931128136018" />
</filter>

</defs>

<path d="M 61.4 78.9 C 56.0 82.3, 49.5 84.6, 61.6 89.4 C 61.1 100.0, 76.3 0.0, 76.7 5.3 C 58.2 0.5, 100.0 0.0, 95.2 5.8 C 90.9 0.0, 64.5 68.5, 54.2 82.6 C 57.1 95.8, 32.5 63.9, 44.8 67.8 C 40.0 67.6, 56.3 57.4, 51.6 62.2 C 33.5 42.7, 22.4 69.0, 14.5 64.2 C 16.6 57.4, 71.8 78.8, 63.5 70.9 Z" fill="hsl(106, 75%, 59%)" fill-opacity="0.67" stroke="none" stroke-width="5.27"  transform="translate(72.8 35.8) rotate(306.3) scale(0.76 1.54)" />
<path d="M 7.1 65.3 C 26.5 82.3, 72.5 8.9, 78.5 5.2 C 78.5 0.0, 95.7 46.6, 92.4 46.4 C 86.1 33.3, 4.2 72.2, 12.3 83.4 C 0.0 89.1, 3.0 55.2, 6.1 65.5 C 20.1 74.9, 91.1 42.8, 99.8 28.0 C 100.0 18.5, 46.8 33.5, 50.1 44.2 Z" fill="none" fill-opacity="0.93" stroke="hsl(83, 65%, 44%)" stroke-width="3.39"  transform="translate(23.8 21.3) rotate(85.6) scale(1.87 0.92)" />
<circle cx="37.2" cy="14.1" r="13.0" fill="hsl(144, 86%, 72%)" fill-opacity="0.92"  transform="translate(52.0 18.6) rotate(77.3) scale(1.76 0.82)" />
<circle cx="87.5" cy="17.0" r="12.6" fill="hsl(242, 72%, 49%)" fill-opacity="0.79"  transform="translate(45.5 31.2) rotate(120.7) scale(1.99 1.79)" />
<rect x="25.6" y="23.8" width="39.0" height="12.6" rx="0.7" fill="hsl(86, 72%, 68%)" fill-opacity="0.35"  filter="url(#f1)" transform="translate(89.3 74.6) rotate(143.6) scale(1.03 1.69)" />
<path d="M 15.8 69.7 C 35.3 63.0, 31.3 12.7, 36.0 2.3 C 49.7 1.8, 25.1 52.8, 33.1 41.3 C 19.2 48.4, 26.8 16.5, 27.1 20.5 C 36.8 5.4, 73.2 28.5, 76.8 26.2 C 69.7 11.2, 32.8 7.1, 20.7 11.0 C 16.8 3.7, 37.9 52.8, 25.5 67.7 C 5.7 65.1, 34.5 75.8, 39.7 78.9 C 48.1 76.2, 23.2 49.0, 21.5 37.4 C 7.9 36.8, 93.1 24.9, 79.7 19.5 C 63.1 28.2, 61.6 29.2, 49.6 37.7 Z" fill="none" fill-opacity="0.33" stroke="hsl(104, 72%, 65%)" stroke-width="4.24"  transform="translate(41.2 7.3) rotate(172.8) scale(0.68 1.82)" />
<rect x="34.1" y="24.9" width="38.5" height="27.2" rx="9.7" fill="none" fill-opacity="0.28"    />
<path d="M 98.5 97.2 C 88.7 85.8, 30.8 86.5, 15.8 81.4 C 20.5 100.0, 100.0 74.1, 92.2 74.6 C 100.0 55.2, 23.5 39.3, 26.6 31.5 C 7.5 39.0, 29.5 71.5, 44.0 83.4 C 29.4 78.6, 100.0 59.6, 99.3 71.9 C 95.1 52.3, 6.7 49.2, 4.0 38.2 C 0.0 21.5, 69.1 67.0, 79.8 64.4 C 98.8 55.0, 68.6 78.6, 71.1 79.4 C 72.1 79.8, 0.0 92.0, 9.7 93.2 C 24.6 84.0, 93.7 30.4, 98.2 24.0 " fill="none" fill-opacity="0.85" stroke="hsl(106, 75%, 59%)" stroke-width="5.08"  transform="translate(89.8 48.0) rotate(234.4) scale(0.56 1.17)" />
<path d="M 37.7 90.6 C 39.0 95.9, 96.2 14.7, 81.9 24.9 C 69.8 5.0, 30.4 88.3, 21.4 87.2 C 6.1 67.7, 74.1 96.5, 79.8 92.7 C 88.5 88.7, 46.0 63.0, 39.3 68.4 C 33.5 60.7, 74.2 63.9, 73.9 73.2 C 88.8 82.1, 14.1 34.9, 25.6 49.2 C 10.2 60.9, 99.2 87.0, 84.2 79.9 C 89.2 88.7, 28.7 87.1, 29.0 99.8 C 41.4 95.7, 8.3 18.0, 3.3 19.3 Z" fill="hsl(144, 86%, 72%)" fill-opacity="0.85" stroke="none" stroke-width="1.28"  transform="translate(53.5 55.5) rotate(123.4) scale(1.41 1.64)" />
<path d="M 56.1 41.8 C 61.6 61.1, 15.2 45.5, 8.4 54.4 C 28.4 42.8, 100.0 13.3, 94.6 27.8 C 93.6 29.7, 0.1 100.0, 5.4 99.8 C 23.1 100.0, 76.6 9.6, 72.0 4.3 C 79.5 0.0, 0.0 2.6, 5.0 1.8 C 24.0 0.0, 86.3 86.3, 73.1 89.8 C 85.7 100.0, 24.6 7.7, 34.3 14.0 C 31.3 17.0, 79.1 22.7, 77.9 36.1 C 71.5 36.6, 0.5 1.1, 9.5 6.7 C 11.2 0.0, 5.9 79.6, 16.4 81.4 Z" fill="hsl(151, 70%, 62%)" fill-opacity="0.91" stroke="none" stroke-width="4.97"  transform="translate(64.7 54.6) rotate(265.3) scale(0.66 1.00)" />
<path d="M 26.5 34.3 C 26.0 37.6, 63.0 51.4, 52.7 54.2 C 66.7 34.7, 66.5 26.5, 64.2 12.4 C 70.2 24.8, 47.3 14.4, 41.1 24.5 C 60.1 16.2, 22.6 78.1, 23.0 82.1 C 13.7 71.4, 64.1 52.6, 67.8 50.9 C 68.8 63.9, 99.2 14.7, 86.0 4.2 Z" fill="hsl(183, 71%, 60%)" fill-opacity="0.57" stroke="none" stroke-width="1.08"  transform="translate(37.8 74.2) rotate(72.0) scale(1.75 1.46)" />
<path d="M 11.1 34.2 C 3.0 22.0, 61.7 0.0, 72.7 12.3 C 78.4 22.2, 41.3 19.2, 47.8 32.0 C 45.4 38.7, 62.3 12.1, 74.3 4.2 C 66.0 0.0, 60.0 64.7, 55.4 66.2 C 49.6 47.2, 81.8 54.9, 94.2 42.2 C 100.0 31.6, 28.8 8.6, 30.9 5.0 Z" fill="hsl(86, 72%, 68%)" fill-opacity="0.79" stroke="none" stroke-width="5.20"  transform="translate(91.6 26.9) rotate(240.2) scale(1.32 1.40)" />
<path d="M 19.2 80.1 C 37.6 89.3, 66.1 69.1, 71.5 60.5 C 64.0 70.2, 16.5 27.8, 22.8 34.1 C 7.9 29.4, 94.8 85.6, 88.1 71.6 C 93.2 63.1, 35.7 45.4, 23.8 44.1 C 13.0 52.2, 28.8 74.6, 36.2 86.4 C 16.9 87.3, 0.0 14.4, 0.4 8.1 Z" fill="none" fill-opacity="0.37" stroke="hsl(322, 74%, 44%)" stroke-width="4.65"  transform="translate(88.0 78.2) rotate(95.0) scale(1.32 1.48)" />
<circle cx="68.2" cy="39.4" r="4.9" fill="url(#g1)" fill-opacity="0.87"  transform="translate(92.3 75.2) rotate(99.2) scale(0.52 0.66)" />
<rect x="27.9" y="29.2" width="44.8" height="28.8" rx="19.0" fill="none" fill-opacity="0.82" stroke="hsl(144, 86%, 72%)" stroke-width="4.1"  transform="translate(26.0 59.8) rotate(306.6) scale(0.75 0.82)" />
<path d="M 20.7 25.1 C 31.7 10.3, 34.3 89.5, 43.7 88.4 C 28.2 87.2, 82.4 13.5, 83.3 13.5 C 94.3 22.5, 67.9 78.7, 78.3 76.7 C 94.2 79.6, 0.0 32.5, 5.1 41.0 C 17.5 53.6, 35.3 0.0, 46.9 4.9 C 34.0 20.0, 100.0 24.4, 98.7 26.0 C 100.0 26.0, 68.3 39.1, 58.0 50.3 Z" fill="hsl(86, 72%, 68%)" fill-opacity="0.86" stroke="none" stroke-width="0.82"  transform="translate(45.0 63.2) rotate(57.2) scale(1.17 1.55)" />
<rect x="48.7" y="47.1" width="38.8" height="11.5" rx="0" fill="hsl(83, 65%, 44%)" fill-opacity="0.74"   transform="translate(50.0 80.1) rotate(246.8) scale(1.00 1.98)" />
<circle cx="86.5" cy="25.7" r="7.6" fill="hsl(104, 72%, 65%)" fill-opacity="0.72"   />
<path d="M 69.8 62.0 C 81.8 55.4, 68.1 11.5, 62.0 10.2 C 48.8 4.1, 86.9 95.9, 86.2 96.0 C 69.6 78.0, 54.4 20.6, 49.6 28.0 C 60.3 33.2, 75.9 66.2, 76.7 78.7 C 92.3 95.5, 85.3 62.9, 70.7 71.2 C 54.2 68.8, 49.3 86.3, 36.0 93.1 C 40.3 98.6, 41.2 100.0, 44.3 91.3 C 59.6 100.0, 32.7 48.1, 23.3 56.5 C 10.7 67.7, 38.8 9.2, 44.6 11.6 Z" fill="none" fill-opacity="0.83" stroke="hsl(106, 75%, 59%)" stroke-width="4.21"  transform="translate(59.0 67.9) rotate(172.0) scale(1.51 0.65)" />
<path d="M 63.9 37.6 C 61.6 48.5, 82.6 35.0, 76.0 21.0 C 77.9 6.8, 65.9 80.2, 76.6 79.1 C 64.0 75.9, 53.0 0.0, 51.0 1.7 C 71.0 0.0, 7.5 36.0, 3.7 30.6 C 10.2 35.0, 70.1 80.0, 58.5 69.4 C 64.5 61.2, 41.7 16.7, 52.7 27.8 C 68.4 42.8, 27.4 89.5, 26.7 84.2 C 20.8 83.1, 65.8 47.8, 54.8 55.5 C 45.8 73.9, 55.2 53.1, 44.0 45.2 C 47.3 59.2, 41.3 97.3, 56.2 94.0 Z" fill="none" fill-opacity="0.38" stroke="hsl(151, 70%, 62%)" stroke-width="2.93"  transform="translate(88.8 14.5) rotate(121.6) scale(1.99 1.74)" />
<rect x="22.2" y="1.7" width="49.2" height="11.0" rx="11.7" fill="hsl(290, 83%, 63%)" fill-opacity="0.58" stroke="hsl(2, 82%, 55%)" stroke-width="4.4"  transform="translate(63.2 97.7) rotate(74.7) scale(0.74 1.79)" />
<path d="M 24.2 65.3 C 16.1 56.1, 67.8 47.7, 55.7 34.3 C 40.5 38.8, 30.4 44.5, 23.6 31.7 C 31.9 49.1, 32.7 31.9, 25.4 26.4 C 37.0 35.6, 21.4 71.5, 13.6 69.5 C 17.6 71.6, 53.6 42.6, 46.8 29.5 C 44.4 34.7, 47.2 5.6, 37.1 5.5 C 19.3 0.0, 92.8 82.8, 80.9 70.9 C 86.0 72.8, 81.9 88.5, 74.3 87.1 C 68.1 73.1, 19.4 54.1, 18.1 65.3 Z" fill="none" fill-opacity="0.86" stroke="hsl(86, 72%, 68%)" stroke-width="3.59"  transform="translate(49.1 44.8) rotate(103.2) scale(0.94 0.66)" />
<path d="M 77.3 86.5 C 74.4 99.7, 73.3 93.2, 87.8 84.1 C 73.9 99.6, 54.4 37.4, 69.2 30.2 C 76.5 28.0, 77.9 95.0, 82.9 82.5 C 69.2 82.6, 67.8 9.2, 59.7 19.2 C 76.0 5.1, 58.6 26.2, 65.1 23.1 C 67.4 26.5, 98.2 52.4, 91.2 39.5 C 73.8 33.8, 91.2 21.5, 84.4 19.3 C 84.8 2.7, 35.7 91.7, 46.1 87.0 C 41.2 85.9, 95.0 69.5, 95.7 65.6 C 100.0 78.4, 73.1 41.3, 73.5 45.1 Z" fill="hsl(290, 83%, 63%)" fill-opacity="0.28" stroke="none" stroke-width="1.01"   />
<path d="M 87.4 66.2 C 76.7 77.5, 80.6 100.0, 93.9 98.8 C 99.9 87.4, 79.5 90.4, 79.5 87.0 C 84.2 71.0, 92.0 59.0, 99.4 55.7 C 85.1 66.5, 82.1 2.7, 87.1 15.6 C 87.9 27.5, 30.4 69.0, 23.9 64.4 C 17.6 58.5, 94.3 72.9, 86.5 87.4 C 100.0 100.0, 46.0 53.6, 45.7 53.2 C 52.7 56.5, 69.8 0.0, 58.5 0.5 C 60.0 0.0, 36.9 23.8, 32.1 12.9 Z" fill="none" fill-opacity="0.88" stroke="hsl(2, 82%, 55%)" stroke-width="4.99" filter="url(#f1)" transform="translate(79.7 27.9) rotate(177.1) scale(1.76 1.49)" />
<path d="M 9.2 18.4 C 13.2 23.6, 19.5 10.4, 5.9 5.2 C 8.0 0.0, 31.9 22.6, 17.0 11.7 C 3.8 9.7, 64.2 37.2, 68.3 47.0 C 55.9 39.0, 75.3 0.0, 60.9 4.9 C 69.6 0.0, 19.2 79.3, 27.8 79.1 C 13.2 79.2, 28.8 87.8, 35.0 97.3 C 40.7 79.3, 70.0 79.7, 61.8 79.9 Z" fill="none" fill-opacity="0.77" stroke="hsl(242, 72%, 49%)" stroke-width="2.97"  transform="translate(83.5 20.4) rotate(342.6) scale(0.57 0.60)" />
<path d="M 48.0 79.7 C 48.1 96.2, 45.2 68.3, 41.4 62.8 C 38.1 61.9, 99.3 22.2, 92.4 25.7 C 94.0 38.7, 61.8 80.7, 73.4 89.0 C 90.0 100.0, 25.0 16.5, 19.0 25.9 C 30.8 35.3, 74.5 26.1, 84.5 18.9 C 81.4 19.3, 70.2 85.8, 76.7 87.0 C 96.6 85.3, 19.5 22.2, 20.0 18.1 Z" fill="none" fill-opacity="0.25" stroke="hsl(322, 74%, 44%)" stroke-width="1.41"  transform="translate(28.3 62.7) rotate(71.5) scale(1.38 1.08)" />
<rect x="45.2" y="62.0" width="27.7" height="15.0" rx="18.7" fill="hsl(83, 65%, 44%)" fill-opacity="0.79"   transform="translate(1.5 46.8) rotate(252.7) scale(1.05 0.65)" />
<path d="M 73.9 28.0 C 55.1 17.9, 0.0 10.0, 7.9 11.0 C 14.3 0.0, 25.3 12.3, 25.4 2.1 C 24.5 21.1, 31.1 29.0, 45.7 22.3 C 42.4 18.5, 41.6 39.0, 46.5 43.8 C 34.0 51.1, 98.4 41.3, 90.7 49.1 C 99.6 33.5, 43.8 71.0, 58.8 68.6 C 50.1 76.5, 75.2 90.5, 80.9 79.0 C 83.5 74.6, 27.7 64.2, 27.3 57.9 C 19.8 77.5, 43.4 71.6, 31.7 73.9 C 41.1 90.3, 17.3 84.9, 18.6 95.6 Z" fill="none" fill-opacity="0.58" stroke="hsl(106, 75%, 59%)" stroke-width="4.84" filter="url(#f1)" transform="translate(32.7 28.1) rotate(312.1) scale(1.94 0.92)" />
<rect x="66.6" y="13.5" width="30.9" height="12.1" rx="0" fill="none" fill-opacity="0.86"   transform="translate(98.6 48.9) rotate(129.0) scale(1.33 1.12)" />
<path d="M 33.8 25.3 C 53.4 6.9, 85.8 73.4, 75.4 73.6 C 94.8 89.5, 36.2 0.0, 48.6 6.8 C 65.5 14.7, 57.2 93.4, 70.9 83.1 C 63.4 75.2, 91.1 85.9, 79.8 87.6 C 71.1 71.3, 43.5 17.5, 37.6 15.9 C 36.8 27.8, 65.9 22.7, 76.3 20.6 Z" fill="none" fill-opacity="0.89" stroke="hsl(2, 82%, 55%)" stroke-width="1.82"  transform="translate(66.9 22.1) rotate(152.5) scale(0.76 0.53)" />
<circle cx="7.2" cy="58.0" r="12.8" fill="url(#g0)" fill-opacity="0.72"   />
<rect x="61.8" y="26.5" width="20.8" height="37.3" rx="0" fill="none" fill-opacity="0.79" stroke="hsl(290, 83%, 63%)" stroke-width="2.6"   />
<circle cx="22.5" cy="24.9" r="13.0" fill="hsl(106, 75%, 59%)" fill-opacity="0.93"  transform="translate(26.6 43.4) rotate(94.1) scale(1.84 1.01)" />
<path d="M 33.8 9.5 C 20.5 28.5, 11.5 60.4, 8.8 69.2 C 0.0 66.0, 86.7 43.0, 79.5 41.2 C 98.6 28.1, 93.8 73.1, 93.0 80.4 C 87.8 91.0, 0.0 71.9, 4.2 70.7 C 0.0 53.8, 17.4 58.0, 24.5 60.7 C 8.0 53.4, 60.9 61.7, 68.7 50.8 C 78.4 57.4, 23.4 42.4, 28.9 28.1 C 9.4 17.0, 47.8 91.7, 40.0 81.6 Z" fill="none" fill-opacity="0.85" stroke="hsl(86, 72%, 68%)" stroke-width="2.11"  transform="translate(71.7 38.9) rotate(74.5) scale(1.52 0.71)" />
<path d="M 12.2 44.5 C 2.9 56.0, 11.8 76.1, 17.2 71.3 C 3.0 80.6, 21.4 72.4, 10.6 87.2 C 9.6 86.6, 49.8 12.7, 51.6 2.4 C 40.9 7.4, 35.3 23.5, 48.3 31.9 C 45.5 38.5, 23.9 50.0, 27.8 40.1 C 8.5 26.2, 37.3 71.6, 38.4 73.4 C 25.0 62.2, 66.4 58.7, 74.5 65.4 C 84.5 70.4, 9.4 83.4, 21.8 78.5 C 24.7 77.4, 82.9 100.0, 90.6 98.6 C 77.2 78.8, 79.8 0.0, 79.3 6.6 Z" fill="hsl(104, 72%, 65%)" fill-opacity="0.64" stroke="none" stroke-width="1.07"   />
<path d="M 89.5 74.4 C 70.9 74.9, 42.7 48.3, 37.9 33.8 C 48.9 39.7, 6.9 76.9, 14.0 91.6 C 33.1 100.0, 71.5 60.1, 70.8 73.4 C 61.0 66.0, 64.4 98.4, 50.0 92.7 C 68.8 100.0, 5.2 0.0, 1.8 11.0 C 0.0 26.2, 25.1 49.0, 10.7 42.8 C 19.8 50.4, 52.8 81.0, 52.1 89.8 Z" fill="hsl(290, 83%, 63%)" fill-opacity="0.84" stroke="none" stroke-width="0.89"  transform="translate(25.1 62.9) rotate(289.2) scale(0.58 1.51)" />
<circle cx="97.8" cy="35.9" r="11.1" fill="url(#g2)" fill-opacity="0.74" filter="url(#f1)" transform="translate(26.4 26.0) rotate(38.2) scale(1.90 1.53)" />
<rect x="32.6" y="34.4" width="48.1" height="37.3" rx="0" fill="none" fill-opacity="0.43" stroke="hsl(83, 65%, 44%)" stroke-width="2.1"  transform="translate(44.8 51.4) rotate(308.0) scale(1.51 0.55)" />
<path d="M 54.9 27.3 C 51.1 40.0, 20.2 81.2, 8.4 86.2 C 7.6 98.8, 52.0 74.1, 58.4 76.3 C 64.2 57.6, 54.2 25.3, 48.3 34.8 C 33.1 37.2, 91.1 72.5, 98.2 57.7 C 86.3 66.6, 66.9 53.4, 52.0 46.6 C 59.9 39.9, 93.8 97.6, 93.0 94.4 C 100.0 75.6, 8.5 87.4, 23.1 75.6 Z" fill="none" fill-opacity="0.40" stroke="hsl(322, 74%, 44%)" stroke-width="1.27"  transform="translate(44.5 90.4) rotate(216.5) scale(1.53 0.59)" />
<circle cx="74.4" cy="74.2" r="12.6" fill="url(#g0)" fill-opacity="0.40"   />
<rect x="60.5" y="44.8" width="25.5" height="26.3" rx="14.8" fill="none" fill-opacity="0.40"   transform="translate(4.2 2.5) rotate(100.5) scale(1.79 1.70)" />
<circle cx="44.7" cy="22.2" r="8.7" fill="url(#g0)" fill-opacity="0.91" filter="url(#f1)"  />
<circle cx="71.8" cy="83.6" r="4.4" fill="hsl(86, 72%, 68%)" fill-opacity="0.93"  transform="translate(89.1 75.9) rotate(157.1) scale(1.42 0.62)" />
<circle cx="81.6" cy="65.4" r="5.1" fill="url(#g2)" fill-opacity="0.67"  transform="translate(31.0 91.4) rotate(12.8) scale(1.79 1.71)" />
<circle cx="12.5" cy="73.6" r="15.7" fill="url(#g2)" fill-opacity="0.45"  transform="translate(60.6 91.1) rotate(127.4) scale(1.24 0.64)" />
<circle cx="65.4" cy="93.5" r="7.8" fill="hsl(290, 83%, 63%)" fill-opacity="0.47" filter="url(#f1)" transform="translate(19.5 50.9) rotate(122.8) scale(0.66 1.86)" />
<path d="M 1.4 2.1 C 14.0 0.0, 44.2 68.0, 36.5 68.1 C 21.5 68.0, 43.4 24.4, 43.9 20.6 C 47.9 24.3, 25.4 96.4, 33.3 81.4 C 23.9 89.6, 54.1 78.7, 41.5 83.4 C 45.0 100.0, 86.9 82.9, 75.1 81.7 C 72.1 86.0, 88.1 49.5, 94.8 48.1 Z" fill="hsl(40, 53%, 69%)" fill-opacity="0.34" stroke="none" stroke-width="5.03"  transform="translate(96.1 14.3) rotate(296.5) scale(1.96 1.96)" />
<path d="M 0.7 98.2 C 0.0 100.0, 85.5 26.4, 70.9 16.3 C 83.0 28.5, 23.1 16.8, 26.7 13.0 C 42.4 13.8, 78.7 36.9, 85.6 49.8 C 68.3 33.7, 61.2 45.1, 67.6 37.9 C 65.1 48.1, 8.7 13.2, 6.7 11.4 C 24.4 17.4, 14.9 100.0, 11.1 98.8 Z" fill="none" fill-opacity="0.28" stroke="hsl(322, 74%, 44%)" stroke-width="4.94"  transform="translate(88.1 63.0) rotate(240.9) scale(1.07 0.98)" />
<circle cx="29.0" cy="12.1" r="2.7" fill="url(#g1)" fill-opacity="0.61"  transform="translate(55.8 37.0) rotate(232.7) scale(0.69 1.35)" />
<path d="M 89.7 33.7 C 78.1 23.5, 86.6 31.4, 80.3 19.8 C 68.4 20.4, 17.9 23.2, 19.5 26.5 C 33.9 25.2, 90.4 3.9, 95.3 3.9 C 100.0 12.1, 39.8 35.4, 46.0 27.7 C 49.1 20.5, 30.0 57.0, 31.2 62.4 C 20.6 69.7, 19.1 9.8, 23.3 19.3 C 18.6 34.4, 64.6 87.3, 62.2 82.4 C 46.7 69.3, 85.8 57.1, 98.2 43.2 C 100.0 46.1, 73.7 62.2, 64.5 69.1 Z" fill="hsl(104, 72%, 65%)" fill-opacity="0.69" stroke="none" stroke-width="3.99"  transform="translate(21.0 77.4) rotate(145.4) scale(0.90 1.87)" />
<path d="M 39.7 54.6 C 53.3 38.1, 82.4 61.9, 71.1 58.7 C 59.3 66.0, 87.9 88.4, 78.8 77.8 C 61.4 71.1, 100.0 3.2, 99.2 14.3 C 100.0 13.0, 82.0 46.9, 86.5 58.6 C 72.9 43.4, 46.2 26.1, 50.9 23.4 C 41.2 28.4, 6.3 82.5, 14.2 93.4 C 12.4 100.0, 26.3 12.9, 40.5 5.0 C 46.6 9.1, 6.5 73.6, 5.5 61.7 Z" fill="hsl(322, 74%, 44%)" fill-opacity="0.84" stroke="none" stroke-width="2.62"  transform="translate(72.9 21.5) rotate(223.7) scale(0.91 1.84)" />
<path d="M 74.2 48.4 C 71.3 50.6, 82.0 65.1, 94.1 56.2 C 100.0 75.7, 0.0 46.0, 2.7 44.5 C 0.0 26.4, 50.0 100.0, 47.2 97.5 C 50.5 100.0, 88.3 80.1, 81.8 82.6 C 99.9 87.0, 39.9 51.3, 53.7 41.7 C 34.2 48.1, 72.9 51.1, 73.8 48.5 C 83.5 31.7, 11.2 0.0, 21.9 2.2 C 37.2 19.1, 92.6 27.9, 94.8 28.5 C 100.0 27.7, 91.1 49.7, 77.9 49.2 C 77.0 49.7, 25.0 75.6, 23.2 86.0 Z" fill="none" fill-opacity="0.39" stroke="hsl(322, 74%, 44%)" stroke-width="4.97"   />
<path d="M 95.2 3.1 C 93.0 18.5, 35.6 32.0, 27.2 19.6 C 9.7 7.8, 49.7 3.5, 44.9 11.0 C 41.7 0.0, 100.0 18.4, 88.8 24.6 C 92.4 35.5, 75.5 6.1, 82.5 20.2 C 77.9 3.2, 81.6 84.8, 91.6 77.9 C 92.1 92.7, 100.0 88.7, 95.2 99.2 C 88.3 100.0, 34.2 35.4, 27.7 36.7 C 28.8 41.8, 96.0 93.6, 87.6 92.8 C 82.6 81.9, 71.1 0.3, 79.4 7.2 C 97.4 0.0, 64.9 70.8, 75.6 62.1 Z" fill="none" fill-opacity="0.27" stroke="hsl(40, 53%, 69%)" stroke-width="0.84"   />
<rect x="48.8" y="29.1" width="39.6" height="22.1" rx="8.6" fill="none" fill-opacity="0.23"   transform="translate(49.8 85.2) rotate(52.3) scale(1.48 1.31)" />
<rect x="20.3" y="67.2" width="39.7" height="24.1" rx="0" fill="hsl(104, 72%, 65%)" fill-opacity="0.74"   transform="translate(77.3 35.6) rotate(91.3) scale(0.54 0.75)" />
<circle cx="33.7" cy="43.1" r="8.7" fill="url(#g1)" fill-opacity="0.46"  transform="translate(29.8 54.7) rotate(107.2) scale(1.76 0.96)" />
<path d="M 15.7 4.1 C 1.4 9.8, 100.0 0.0, 89.3 4.8 C 93.4 0.0, 23.5 29.1, 29.2 43.6 C 34.5 23.6, 1.7 19.2, 3.7 9.1 C 0.0 21.1, 35.9 49.1, 25.0 40.2 C 15.4 23.9, 8.0 25.4, 22.5 29.0 C 14.4 25.1, 75.3 100.0, 86.3 98.1 C 92.8 91.2, 91.9 20.8, 83.9 17.0 C 100.0 19.3, 33.3 50.2, 34.3 61.3 Z" fill="none" fill-opacity="0.47" stroke="hsl(290, 83%, 63%)" stroke-width="1.80"  transform="translate(29.6 89.0) rotate(111.5) scale(0.94 1.23)" />
<circle cx="92.8" cy="36.0" r="0.4" fill="url(#g2)" fill-opacity="0.64"  transform="translate(88.5 4.2) rotate(102.0) scale(0.68 0.82)" />
<path d="M 62.1 35.7 C 57.1 23.2, 24.3 59.2, 37.9 65.8 C 49.0 79.9, 10.3 31.8, 16.6 36.9 C 19.1 35.7, 30.7 46.9, 35.1 43.1 C 33.0 31.1, 53.2 86.1, 51.4 87.5 C 63.5 75.7, 30.5 13.6, 17.3 24.9 C 35.9 35.4, 39.3 23.6, 30.2 23.0 C 48.8 26.1, 3.9 65.9, 12.8 76.6 C 28.3 83.3, 87.0 48.9, 84.0 47.7 C 98.4 47.6, 40.5 39.8, 46.9 32.2 Z" fill="none" fill-opacity="0.52" stroke="hsl(2, 82%, 55%)" stroke-width="2.75"  transform="translate(79.6 47.7) rotate(93.8) scale(0.94 1.41)" />
<path d="M 26.2 96.5 C 9.6 100.0, 19.1 100.0, 21.4 93.8 C 40.4 92.0, 46.9 14.3, 45.9 23.2 C 42.5 34.5, 12.5 30.9, 24.2 16.1 C 36.2 32.1, 92.1 76.1, 80.4 80.5 C 89.8 81.9, 68.1 46.6, 54.0 45.0 C 37.0 60.4, 33.6 65.4, 43.4 80.2 C 35.8 95.1, 50.3 64.9, 59.4 78.2 Z" fill="none" fill-opacity="0.41" stroke="hsl(86, 72%, 68%)" stroke-width="1.04"  transform="translate(9.0 56.6) rotate(298.5) scale(1.77 1.34)" />
<path d="M 52.7 82.7 C 51.8 66.5, 61.4 48.9, 60.5 59.6 C 72.0 50.1, 23.4 30.6, 37.9 20.4 C 56.2 39.0, 100.0 94.6, 89.7 93.9 C 76.4 100.0, 74.9 36.0, 72.7 39.7 C 52.9 45.7, 69.7 15.7, 56.2 19.8 C 63.9 37.4, 86.9 20.3, 86.2 32.4 C 100.0 44.4, 75.0 82.8, 65.7 72.8 C 50.4 64.8, 98.8 10.8, 92.0 20.7 C 81.0 22.8, 62.9 83.0, 53.2 71.4 Z" fill="none" fill-opacity="0.95" stroke="hsl(40, 53%, 69%)" stroke-width="2.48"  transform="translate(50.4 40.9) rotate(1.0) scale(1.12 0.95)" />
<rect x="24.4" y="17.8" width="38.9" height="18.1" rx="8.9" fill="none" fill-opacity="0.24" stroke="hsl(2, 82%, 55%)" stroke-width="1.1"  transform="translate(77.4 72.3) rotate(54.8) scale(1.50 0.93)" />
<path d="M 28.4 82.3 C 17.6 76.6, 57.7 2.3, 49.5 14.7 C 55.7 13.0, 30.4 73.7, 40.1 67.4 C 39.9 80.4, 0.0 100.0, 3.8 99.4 C 0.0 88.9, 81.3 33.3, 71.1 21.2 C 62.1 20.1, 80.4 60.2, 94.3 61.2 C 76.1 45.9, 55.1 61.2, 69.2 73.5 C 62.5 79.4, 84.7 3.4, 72.7 11.5 Z" fill="none" fill-opacity="0.41" stroke="hsl(40, 53%, 69%)" stroke-width="2.42"  transform="translate(8.1 87.1) rotate(129.8) scale(1.97 0.84)" />
<path d="M 68.0 3.5 C 55.4 2.8, 35.3 49.1, 44.4 49.2 C 63.5 41.2, 45.4 50.5, 32.6 40.1 C 20.7 56.2, 56.2 0.3, 62.8 2.1 C 78.0 10.3, 19.6 75.5, 13.7 76.5 C 12.0 58.5, 96.4 33.7, 86.3 24.9 C 74.5 44.3, 6.1 39.7, 7.6 26.6 C 3.0 18.2, 50.4 83.5, 39.0 85.3 C 45.6 77.0, 52.8 21.2, 64.9 24.6 Z" fill="hsl(40, 53%, 69%)" fill-opacity="0.89" stroke="none" stroke-width="2.20"  transform="translate(91.3 67.1) rotate(319.7) scale(1.47 0.56)" />
<circle cx="34.0" cy="33.8" r="5.0" fill="url(#g2)" fill-opacity="0.97"  transform="translate(33.0 33.4) rotate(101.0) scale(1.14 0.53)" />
<path d="M 65.7 81.5 C 47.5 96.9, 90.3 5.6, 77.2 8.6 C 76.3 9.2, 100.0 13.5, 98.1 9.9 C 90.7 5.1, 88.7 56.7, 85.5 71.3 C 84.4 55.2, 31.0 83.6, 26.1 82.1 C 19.3 90.9, 51.3 88.7, 52.8 83.7 C 56.4 88.6, 26.4 100.0, 37.6 96.6 Z" fill="none" fill-opacity="0.30" stroke="hsl(2, 82%, 55%)" stroke-width="2.50"  transform="translate(96.9 51.8) rotate(147.6) scale(1.26 1.05)" />
<circle cx="69.0" cy="85.2" r="8.8" fill="hsl(183, 71%, 60%)" fill-opacity="0.81"  transform="translate(57.6 73.4) rotate(49.5) scale(0.62 1.60)" />
<path d="M 16.2 83.5 C 4.8 74.9, 53.2 84.1, 54.1 77.7 C 41.7 67.0, 81.8 75.3, 67.9 88.9 C 53.5 96.1, 83.5 24.3, 83.9 13.5 C 71.6 13.4, 63.9 34.2, 63.4 38.3 C 53.7 44.4, 14.3 46.9, 7.3 60.3 C 0.0 72.9, 50.3 89.1, 49.3 94.9 C 44.3 98.6, 79.6 5.4, 79.2 16.0 C 62.4 4.3, 47.5 43.5, 42.1 44.6 Z" fill="none" fill-opacity="0.43" stroke="hsl(40, 53%, 69%)" stroke-width="2.05"  transform="translate(41.3 47.9) rotate(322.0) scale(1.77 1.56)" />
<path d="M 61.7 33.2 C 53.9 45.9, 73.0 25.4, 75.2 22.6 C 57.6 10.2, 36.2 4.4, 29.6 19.3 C 31.3 22.0, 36.7 21.1, 44.4 24.5 C 38.4 5.7, 25.7 81.7, 33.0 74.7 C 20.9 87.5, 82.7 16.5, 75.3 9.6 C 82.1 0.0, 53.9 46.9, 67.3 61.8 Z" fill="hsl(322, 74%, 44%)" fill-opacity="0.54" stroke="none" stroke-width="1.76"   />
<path d="M 17.1 93.6 C 25.9 100.0, 0.0 63.5, 7.3 71.3 C 17.5 58.0, 64.8 31.1, 71.1 18.1 C 75.0 14.7, 24.3 89.8, 34.3 77.1 C 27.8 82.8, 31.4 46.5, 36.5 47.6 C 52.4 54.8, 55.0 16.1, 59.0 16.3 C 56.9 27.6, 97.2 68.6, 82.8 60.0 C 84.4 40.4, 25.0 30.0, 35.7 22.9 C 26.8 25.6, 0.0 66.1, 6.8 54.0 C 1.4 46.6, 100.0 0.0, 98.3 8.7 Z" fill="hsl(86, 72%, 68%)" fill-opacity="0.69" stroke="none" stroke-width="3.20"  transform="translate(31.7 80.8) rotate(257.1) scale(1.21 1.99)" />
<rect x="54.7" y="52.6" width="38.0" height="22.3" rx="12.3" fill="hsl(2, 82%, 55%)" fill-opacity="0.58" stroke="hsl(83, 65%, 44%)" stroke-width="3.0"  transform="translate(21.3 87.6) rotate(182.5) scale(1.83 1.51)" />
<path d="M 43.3 82.4 C 55.8 82.7, 45.5 6.8, 32.7 3.9 C 52.1 0.0, 36.7 97.9, 45.2 88.5 C 59.9 95.4, 8.8 39.6, 13.6 34.8 C 0.0 32.3, 7.8 18.0, 5.6 20.4 C 0.0 20.1, 47.6 46.2, 54.4 42.8 C 66.8 58.3, 46.9 50.6, 58.1 55.1 C 49.6 55.0, 15.2 48.7, 9.4 46.7 Z" fill="none" fill-opacity="0.65" stroke="hsl(242, 72%, 49%)" stroke-width="4.57"   />
<path d="M 45.0 47.8 C 51.5 31.7, 64.4 53.3, 66.9 59.5 C 70.3 74.7, 58.4 62.9, 67.3 75.6 C 49.7 74.9, 32.0 10.7, 46.3 6.2 C 43.2 0.0, 54.2 77.0, 54.3 88.9 C 44.3 84.2, 80.1 14.4, 84.6 20.2 C 72.4 9.3, 56.0 85.8, 61.5 98.0 Z" fill="none" fill-opacity="0.50" stroke="hsl(86, 72%, 68%)" stroke-width="3.24"  transform="translate(64.6 10.5) rotate(41.0) scale(1.75 0.99)" />
<path d="M 66.3 56.7 C 50.5 62.9, 30.0 45.5, 24.6 43.8 C 9.1 58.2, 14.9 68.3, 9.0 79.2 C 16.1 85.7, 97.0 21.4, 89.6 21.6 C 92.4 30.7, 21.0 100.0, 21.1 97.0 C 6.4 100.0, 44.0 55.6, 37.5 50.6 C 20.4 31.7, 48.6 31.5, 34.7 28.5 Z" fill="hsl(242, 72%, 49%)" fill-opacity="0.64" stroke="none" stroke-width="1.42" filter="url(#f1)" transform="translate(51.8 66.2) rotate(97.2) scale(1.36 1.29)" />
<circle cx="13.4" cy="25.6" r="1.3" fill="url(#g0)" fill-opacity="0.61"  transform="translate(91.0 62.6) rotate(276.3) scale(1.58 0.79)" />
<circle cx="28.1" cy="6.1" r="2.8" fill="url(#g1)" fill-opacity="0.70"  transform="translate(14.8 28.1) rotate(312.7) scale(1.59 0.91)" />
<path d="M 31.1 45.4 C 18.2 42.0, 86.4 40.3, 91.4 32.8 C 100.0 49.8, 76.4 36.8, 69.1 34.1 C 85.4 30.0, 50.7 78.0, 35.9 66.5 C 47.2 76.2, 66.7 26.6, 67.2 28.0 C 79.2 38.5, 8.4 78.9, 8.6 85.2 C 0.0 96.0, 4.8 41.4, 9.9 48.0 C 15.4 29.4, 16.4 76.6, 13.2 68.0 C 11.7 49.5, 12.8 68.5, 26.1 79.2 C 30.5 59.4, 32.8 12.1, 22.2 3.1 Z" fill="hsl(290, 83%, 63%)" fill-opacity="0.60" stroke="none" stroke-width="1.79"  transform="translate(53.4 53.7) rotate(262.9) scale(1.81 1.71)" />
<path d="M 89.6 62.0 C 69.9 62.2, 65.6 79.3, 75.6 85.0 C 72.0 88.9, 92.3 73.5, 84.1 79.0 C 74.4 95.4, 73.8 0.0, 75.1 4.4 C 70.3 9.9, 36.4 8.4, 41.0 6.6 C 60.5 24.8, 34.5 67.0, 22.8 59.3 C 29.4 43.3, 74.8 27.7, 72.7 37.0 C 86.4 31.0, 3.2 54.0, 1.5 47.8 C 3.9 32.6, 88.3 46.9, 81.7 51.0 Z" fill="hsl(242, 72%, 49%)" fill-opacity="0.88" stroke="none" stroke-width="3.67"  transform="translate(49.0 69.3) rotate(244.2) scale(1.36 0.71)" />
<path d="M 18.7 92.1 C 21.4 88.0, 97.8 40.3, 97.0 46.8 C 100.0 42.0, 6.2 0.0, 3.0 3.9 C 6.9 0.3, 89.4 30.7, 76.5 27.6 C 89.2 16.5, 64.3 29.4, 74.7 43.8 C 69.4 29.8, 38.5 80.4, 35.1 90.0 C 48.9 100.0, 19.4 40.2, 16.9 41.6 C 36.4 58.8, 24.3 70.3, 35.8 57.9 Z" fill="none" fill-opacity="0.33" stroke="hsl(151, 70%, 62%)" stroke-width="2.17"  transform="translate(31.2 8.4) rotate(84.1) scale(1.97 1.57)" />
<rect x="4.0" y="8.1" width="35.0" height="19.2" rx="0" fill="hsl(151, 70%, 62%)" fill-opacity="0.58"  filter="url(#f1)" transform="translate(14.4 42.6) rotate(264.7) scale(1.03 0.51)" />
<path d="M 64.1 59.8 C 51.0 51.5, 81.5 27.0, 73.0 19.8 C 75.8 18.9, 98.8 60.2, 90.7 65.7 C 87.6 79.9, 85.7 68.2, 99.6 55.2 C 100.0 59.7, 53.2 30.6, 52.1 23.6 C 49.1 17.3, 4.6 38.1, 15.3 50.3 C 0.0 50.9, 100.0 89.3, 97.3 91.4 C 77.3 100.0, 25.9 76.7, 21.2 84.6 C 21.8 79.5, 72.7 85.0, 85.9 88.3 Z" fill="none" fill-opacity="0.30" stroke="hsl(40, 53%, 69%)" stroke-width="3.13"  transform="translate(78.6 78.6) rotate(132.2) scale(1.37 1.03)" />
<rect x="52.4" y="26.5" width="35.1" height="37.4" rx="0" fill="hsl(144, 86%, 72%)" fill-opacity="0.48" stroke="hsl(40, 53%, 69%)" stroke-width="2.3"  transform="translate(33.7 44.7) rotate(258.8) scale(1.87 1.85)" />
<rect x="15.4" y="53.5" width="31.6" height="10.3" rx="2.1" fill="none" fill-opacity="0.98" stroke="hsl(151, 70%, 62%)" stroke-width="1.9"   />
<rect x="55.5" y="37.7" width="20.5" height="23.2" rx="1.4" fill="hsl(242, 72%, 49%)" fill-opacity="0.53"   transform="translate(96.7 87.0) rotate(193.5) scale(1.75 0.84)" />
<rect x="21.1" y="56.0" width="29.0" height="28.2" rx="17.1" fill="none" fill-opacity="0.64" stroke="hsl(322, 74%, 44%)" stroke-width="3.1"  transform="translate(37.2 48.1) rotate(149.1) scale(1.52 1.25)" />
<path d="M 18.7 21.9 C 35.1 31.0, 83.8 63.3, 78.7 71.9 C 67.0 64.9, 29.6 10.9, 41.0 17.4 C 44.4 7.8, 94.6 32.3, 79.8 33.1 C 69.3 52.7, 2.2 64.5, 10.4 62.6 C 0.0 77.2, 21.8 89.2, 31.2 79.0 C 49.6 94.9, 22.2 43.3, 10.4 38.9 C 23.2 20.5, 0.9 23.8, 4.5 20.8 Z" fill="none" fill-opacity="0.59" stroke="hsl(83, 65%, 44%)" stroke-width="0.87"  transform="translate(60.7 44.0) rotate(129.1) scale(0.85 1.38)" />
<path d="M 98.8 68.4 C 95.3 52.6, 43.9 21.3, 42.3 31.3 C 54.5 16.6, 24.5 81.7, 24.5 91.8 C 5.6 72.0, 55.7 32.3, 50.9 21.9 C 54.0 41.0, 77.5 27.9, 86.0 15.7 C 100.0 6.4, 22.4 42.9, 17.0 28.6 C 20.5 26.8, 19.1 40.3, 13.6 29.5 C 1.7 26.9, 27.9 85.1, 15.3 78.1 C 32.0 93.0, 100.0 63.2, 88.7 51.3 " fill="hsl(322, 74%, 44%)" fill-opacity="0.54" stroke="none" stroke-width="2.60"  transform="translate(60.8 86.2) rotate(259.1) scale(1.03 1.25)" />
<path d="M 54.1 41.8 C 63.8 47.2, 93.9 95.9, 91.8 87.5 C 82.8 86.8, 54.0 62.9, 52.3 52.1 C 70.1 41.1, 47.7 66.7, 46.6 61.9 C 55.9 45.0, 7.4 76.4, 4.8 66.0 C 8.6 46.6, 25.1 61.0, 31.4 62.1 C 13.6 49.5, 0.0 56.3, 5.7 52.6 C 11.8 62.5, 100.0 18.8, 99.1 13.3 Z" fill="none" fill-opacity="0.44" stroke="hsl(322, 74%, 44%)" stroke-width="2.13"  transform="translate(76.4 59.7) rotate(208.4) scale(0.72 1.13)" />
<path d="M 40.7 16.3 C 22.5 28.1, 74.3 2.1, 73.2 3.2 C 70.1 0.0, 100.0 81.1, 90.8 80.0 C 100.0 70.4, 39.7 94.3, 31.2 84.6 C 30.6 86.3, 48.4 74.8, 44.7 68.7 C 52.8 71.2, 33.2 61.4, 48.2 55.5 C 51.7 71.9, 91.0 5.2, 92.9 8.6 C 77.9 21.9, 24.9 34.9, 17.9 23.2 " fill="none" fill-opacity="0.39" stroke="hsl(106, 75%, 59%)" stroke-width="2.73"  transform="translate(89.9 90.4) rotate(192.3) scale(1.73 1.15)" />
<path d="M 93.9 62.1 C 100.0 71.5, 39.8 0.0, 53.1 5.5 C 65.6 0.0, 57.5 25.3, 69.3 14.1 C 57.6 21.5, 53.4 100.0, 63.2 88.8 C 81.9 93.2, 29.5 30.4, 43.0 16.5 C 45.5 0.0, 29.4 0.0, 27.5 14.0 C 36.0 12.8, 50.7 52.7, 55.9 48.3 C 39.8 49.5, 27.1 29.4, 19.0 33.7 Z" fill="hsl(322, 74%, 44%)" fill-opacity="0.52" stroke="none" stroke-width="2.46"  transform="translate(85.0 41.3) rotate(192.5) scale(1.04 0.88)" />
<path d="M 99.7 30.1 C 88.2 12.8, 46.5 100.0, 45.0 97.1 C 55.1 81.8, 14.1 49.7, 3.2 58.8 C 0.0 46.7, 90.0 56.0, 89.9 70.0 C 83.4 73.7, 29.4 8.9, 39.2 15.9 C 56.2 26.3, 35.8 49.7, 46.4 50.4 C 43.8 52.9, 0.0 33.6, 6.9 36.6 C 4.7 46.9, 46.0 94.0, 47.2 89.3 C 54.5 77.7, 67.8 71.8, 68.3 80.7 C 67.9 83.3, 34.8 62.0, 41.1 52.9 C 53.1 57.8, 54.3 29.2, 43.2 14.8 " fill="hsl(290, 83%, 63%)" fill-opacity="0.82" stroke="none" stroke-width="1.84"  transform="translate(81.9 94.2) rotate(290.7) scale(1.97 0.57)" />
<rect x="70.3" y="54.3" width="28.5" height="26.1" rx="16.7" fill="hsl(83, 65%, 44%)" fill-opacity="0.42"   transform="translate(14.4 7.3) rotate(243.8) scale(0.81 0.50)" />
<circle cx="64.6" cy="44.6" r="0.3" fill="url(#g1)" fill-opacity="0.73"  transform="translate(30.3 92.9) rotate(134.2) scale(1.40 1.25)" />
<rect x="7.6" y="15.9" width="40.5" height="12.7" rx="0" fill="hsl(106, 75%, 59%)" fill-opacity="0.88"   transform="translate(41.1 83.8) rotate(126.7) scale(0.60 1.00)" />
<circle cx="24.1" cy="20.9" r="11.1" fill="hsl(183, 71%, 60%)" fill-opacity="0.57"  transform="translate(74.5 21.9) rotate(266.8) scale(1.71 1.94)" />
<path d="M 51.3 41.5 C 36.4 43.5, 20.0 46.6, 21.5 47.0 C 3.8 33.1, 16.0 74.5, 1.8 60.9 C 21.3 56.3, 96.5 87.0, 93.6 88.0 C 100.0 68.5, 89.0 0.0, 99.8 8.7 C 100.0 18.2, 10.5 30.2, 23.2 45.1 C 30.2 49.2, 97.3 27.5, 96.0 33.6 C 96.1 18.6, 91.3 36.1, 78.4 30.3 C 95.2 29.7, 41.8 65.3, 32.9 66.8 C 19.1 51.8, 25.6 96.1, 31.5 83.4 " fill="hsl(106, 75%, 59%)" fill-opacity="0.98" stroke="none" stroke-width="4.82"  transform="translate(15.5 8.4) rotate(354.7) scale(1.31 1.06)" />
<circle cx="9.4" cy="81.0" r="8.0" fill="url(#g1)" fill-opacity="0.60"  transform="translate(71.7 89.6) rotate(207.5) scale(0.96 0.77)" />
<path d="M 83.3 87.3 C 70.7 72.5, 76.2 82.6, 66.0 73.4 C 61.2 78.0, 48.0 40.5, 38.2 46.7 C 37.6 30.5, 100.0 100.0, 97.6 87.9 C 100.0 100.0, 0.0 18.9, 8.2 4.8 C 0.0 22.0, 76.3 4.9, 76.2 13.7 C 86.1 0.0, 97.9 32.6, 97.8 23.8 C 99.8 3.9, 71.1 75.0, 60.8 75.0 C 57.5 59.5, 43.0 80.8, 41.3 67.1 C 46.8 63.9, 28.0 39.9, 31.3 25.7 " fill="none" fill-opacity="0.58" stroke="hsl(86, 72%, 68%)" stroke-width="2.03" filter="url(#f1)"  />
<circle cx="33.7" cy="48.5" r="1.9" fill="hsl(290, 83%, 63%)" fill-opacity="0.70"  transform="translate(47.0 71.3) rotate(169.8) scale(1.10 1.60)" />
<rect x="15.0" y="29.6" width="41.4" height="27.1" rx="0" fill="none" fill-opacity="0.35"   transform="translate(74.8 50.5) rotate(260.2) scale(1.75 1.76)" />
<path d="M 37.6 34.9 C 53.7 27.2, 33.9 37.0, 27.1 49.3 C 19.7 32.1, 14.3 31.6, 16.1 40.8 C 10.9 36.8, 41.2 47.4, 38.6 57.3 C 42.7 59.8, 81.9 0.0, 71.2 3.5 C 90.7 0.0, 53.0 29.6, 56.7 35.3 C 43.2 31.6, 66.2 100.0, 68.4 96.1 Z" fill="hsl(183, 71%, 60%)" fill-opacity="0.39" stroke="none" stroke-width="1.76"  transform="translate(48.9 92.5) rotate(320.3) scale(1.80 1.69)" />
<rect x="6.0" y="46.2" width="39.9" height="15.7" rx="0" fill="hsl(83, 65%, 44%)" fill-opacity="0.92"   transform="translate(99.6 99.5) rotate(149.9) scale(1.48 0.51)" />
<path d="M 72.9 6.7 C 69.6 13.6, 28.3 32.8, 31.6 25.6 C 45.6 31.2, 52.6 16.3, 41.7 14.9 C 60.1 21.8, 32.9 3.7, 36.9 1.3 C 33.3 8.8, 32.9 60.3, 29.2 69.4 C 23.9 67.0, 79.2 76.2, 68.4 79.2 C 83.7 96.1, 67.4 0.0, 77.1 6.7 C 59.4 0.0, 4.5 81.6, 15.5 75.4 C 23.2 70.2, 62.0 93.2, 48.3 97.5 Z" fill="hsl(40, 53%, 69%)" fill-opacity="0.87" stroke="none" stroke-width="1.99"  transform="translate(38.2 19.9) rotate(112.0) scale(0.99 0.86)" />
<path d="M 81.4 79.2 C 94.7 71.8, 44.7 55.2, 42.3 55.5 C 52.7 68.5, 57.3 25.3, 70.5 11.3 C 71.1 20.0, 61.7 32.1, 49.4 46.2 C 68.6 30.6, 46.7 75.2, 56.4 87.2 C 72.9 100.0, 82.3 8.5, 86.8 3.0 C 90.9 0.0, 100.0 22.2, 97.5 23.3 Z" fill="hsl(106, 75%, 59%)" fill-opacity="0.72" stroke="none" stroke-width="3.99"  transform="translate(16.3 12.8) rotate(293.7) scale(1.27 0.68)" />
<circle cx="64.8" cy="62.2" r="9.0" fill="url(#g0)" fill-opacity="0.50" filter="url(#f1)" transform="translate(94.7 31.4) rotate(266.5) scale(1.88 0.56)" />
<circle cx="90.8" cy="2.9" r="8.5" fill="url(#g1)" fill-opacity="0.71" filter="url(#f1)" transform="translate(15.5 14.1) rotate(76.8) scale(1.94 1.64)" />
<path d="M 39.4 91.4 C 52.2 78.6, 32.7 100.0, 28.2 99.3 C 17.2 90.0, 62.2 3.6, 59.8 6.7 C 71.8 0.0, 74.9 45.8, 69.1 48.1 C 57.9 52.9, 56.8 100.0, 61.8 89.4 C 53.2 74.0, 40.2 61.2, 47.3 69.8 C 49.4 55.0, 46.4 64.8, 53.3 64.1 C 70.1 68.9, 95.2 0.0, 90.2 4.9 C 76.7 4.4, 44.3 100.0, 32.2 88.7 C 26.5 78.3, 8.3 71.0, 7.8 76.6 Z" fill="hsl(144, 86%, 72%)" fill-opacity="0.39" stroke="none" stroke-width="4.71"  transform="translate(9.1 76.7) rotate(24.2) scale(1.92 0.86)" />
<path d="M 15.1 77.1 C 0.0 97.0, 55.9 29.0, 54.3 42.0 C 67.9 40.8, 2.8 15.6, 10.2 8.6 C 1.7 5.0, 47.2 17.8, 41.5 20.0 C 38.5 39.9, 29.7 28.0, 37.3 27.4 C 43.1 30.3, 24.9 76.8, 11.5 63.4 C 1.9 53.3, 54.1 19.1, 51.7 9.7 C 31.9 5.0, 35.2 100.0, 39.2 95.9 C 55.3 100.0, 36.9 1.2, 44.1 7.6 C 54.3 0.0, 22.8 14.1, 10.7 1.6 C 11.9 0.0, 20.1 17.0, 26.5 9.5 " fill="hsl(104, 72%, 65%)" fill-opacity="0.53" stroke="none" stroke-width="0.82"  transform="translate(38.2 8.0) rotate(263.0) scale(0.95 1.22)" />
<path d="M 75.3 84.6 C 78.5 79.8, 66.9 83.0, 68.7 80.4 C 69.1 86.6, 89.4 73.0, 80.4 58.3 C 71.7 49.9, 1.5 98.9, 8.4 96.1 C 23.1 100.0, 1.2 0.0, 4.2 12.1 C 11.9 25.3, 30.5 6.7, 45.2 21.3 C 25.9 3.6, 20.3 9.4, 7.9 17.4 Z" fill="hsl(2, 82%, 55%)" fill-opacity="0.80" stroke="none" stroke-width="5.00"  transform="translate(27.7 68.8) rotate(243.7) scale(0.62 0.64)" />
<rect x="74.8" y="49.3" width="21.7" height="31.1" rx="0" fill="none" fill-opacity="0.90"   transform="translate(40.3 66.9) rotate(64.5) scale(1.54 1.57)" />
<path d="M 86.2 84.8 C 85.8 87.9, 47.1 20.5, 37.9 30.8 C 21.6 12.7, 62.3 50.5, 76.0 61.3 C 57.1 44.1, 26.1 48.9, 33.0 40.4 C 36.2 53.8, 65.2 51.2, 70.7 43.4 C 64.1 34.1, 42.2 15.6, 55.4 8.1 C 48.4 14.7, 78.1 22.7, 76.4 34.2 C 88.9 36.4, 28.5 37.9, 29.6 28.9 C 9.9 46.3, 43.0 67.2, 50.5 81.1 C 48.6 73.9, 23.9 68.6, 24.0 61.4 Z" fill="hsl(242, 72%, 49%)" fill-opacity="0.52" stroke="none" stroke-width="1.82" filter="url(#f1)" transform="translate(16.3 5.5) rotate(162.6) scale(1.61 1.48)" />
<rect x="7.3" y="25.1" width="48.0" height="14.9" rx="14.6" fill="hsl(106, 75%, 59%)" fill-opacity="0.80"   transform="translate(51.6 77.0) rotate(298.4) scale(1.16 1.91)" />
<path d="M 98.1 89.8 C 100.0 100.0, 68.6 47.9, 68.9 48.9 C 50.0 34.0, 20.0 83.7, 27.4 97.7 C 37.8 100.0, 45.4 31.6, 51.3 42.9 C 61.0 35.0, 78.4 75.5, 64.6 67.2 C 70.8 61.0, 0.4 63.9, 11.9 50.4 C 25.2 47.4, 36.0 86.2, 34.4 79.8 Z" fill="none" fill-opacity="0.70" stroke="hsl(83, 65%, 44%)" stroke-width="3.12" filter="url(#f1)" transform="translate(68.7 99.6) rotate(283.1) scale(1.62 0.91)" />
<path d="M 32.6 62.3 C 37.2 48.7, 51.0 44.6, 58.1 40.4 C 51.2 47.3, 33.3 0.0, 43.6 3.2 C 26.4 0.0, 66.2 53.5, 74.6 46.1 C 56.8 57.9, 55.0 71.0, 60.3 83.7 C 57.2 80.0, 13.0 23.2, 9.9 19.1 C 29.5 33.3, 72.6 82.0, 73.3 87.4 Z" fill="none" fill-opacity="0.84" stroke="hsl(86, 72%, 68%)" stroke-width="1.96"  transform="translate(67.2 19.0) rotate(210.7) scale(1.47 1.81)" />
<path d="M 77.2 14.0 C 89.6 22.3, 98.7 0.0, 89.7 7.6 C 77.3 8.4, 61.7 0.0, 61.7 1.9 C 75.4 0.0, 42.7 100.0, 51.1 92.6 C 70.5 79.8, 13.5 67.8, 6.2 57.9 C 23.3 58.7, 35.5 50.1, 37.8 38.7 C 33.9 35.2, 0.0 37.3, 6.5 31.3 C 0.0 27.9, 75.0 79.0, 85.6 89.6 C 82.5 88.3, 9.5 32.1, 17.4 18.3 C 11.5 22.9, 30.9 0.0, 44.4 1.8 C 31.2 0.0, 57.3 11.3, 56.1 6.2 Z" fill="none" fill-opacity="0.85" stroke="hsl(83, 65%, 44%)" stroke-width="4.47"  transform="translate(50.4 79.2) rotate(91.1) scale(1.31 1.61)" />
<path d="M 16.3 89.4 C 7.6 77.1, 82.0 23.0, 87.6 21.6 C 96.4 11.5, 75.0 33.1, 87.0 22.7 C 74.1 22.8, 32.0 89.3, 26.4 97.3 C 44.4 100.0, 90.1 23.2, 92.4 27.6 C 75.2 38.0, 9.5 100.0, 4.9 94.9 C 1.5 100.0, 80.6 29.6, 88.4 29.2 C 81.7 15.6, 68.5 6.5, 64.6 13.3 C 74.2 0.0, 91.7 8.8, 98.2 19.8 Z" fill="none" fill-opacity="0.87" stroke="hsl(2, 82%, 55%)" stroke-width="1.75"  transform="translate(37.8 63.4) rotate(135.3) scale(0.78 0.61)" />
<path d="M 25.8 60.8 C 37.6 53.6, 45.5 36.5, 60.3 37.2 C 52.0 48.9, 89.2 92.2, 83.1 79.4 C 81.8 74.2, 30.6 84.3, 32.4 98.3 C 41.0 100.0, 36.4 34.1, 36.3 38.9 C 52.4 53.1, 47.7 2.7, 53.3 6.8 C 69.3 20.2, 51.3 2.8, 60.5 14.1 C 58.1 0.0, 42.3 68.6, 52.5 56.0 C 50.2 68.9, 96.9 8.6, 96.6 8.4 C 100.0 2.1, 19.2 69.7, 21.1 57.8 C 2.4 42.6, 27.4 71.0, 36.9 59.8 Z" fill="none" fill-opacity="0.39" stroke="hsl(2, 82%, 55%)" stroke-width="2.57"  transform="translate(66.4 41.7) rotate(33.3) scale(1.83 1.76)" />
<path d="M 17.9 68.1 C 29.7 79.7, 76.9 73.9, 77.7 64.1 C 92.9 49.0, 13.7 54.1, 7.1 51.9 C 0.0 36.5, 21.5 59.0, 30.5 66.8 C 32.5 48.4, 72.1 93.2, 63.0 79.4 C 57.7 60.6, 41.6 41.6, 35.5 35.1 C 16.4 50.0, 0.0 68.1, 10.2 81.2 C 20.2 91.2, 100.0 38.2, 91.6 44.3 C 100.0 43.4, 14.0 72.7, 18.0 67.9 Z" fill="none" fill-opacity="0.36" stroke="hsl(322, 74%, 44%)" stroke-width="4.63" filter="url(#f1)"  />
<path d="M 78.9 42.4 C 65.9 44.0, 84.4 56.3, 97.5 58.2 C 91.5 70.8, 71.7 9.9, 76.5 19.8 C 89.4 24.5, 61.5 67.4, 48.0 63.0 C 33.2 72.9, 31.5 0.0, 27.8 11.1 C 23.6 24.3, 16.2 42.0, 27.6 41.8 C 9.4 52.8, 82.9 21.3, 81.7 22.6 Z" fill="none" fill-opacity="0.72" stroke="hsl(290, 83%, 63%)" stroke-width="4.06"   />
<rect x="0.3" y="1.2" width="27.5" height="23.7" rx="0.2" fill="none" fill-opacity="0.51"   transform="translate(24.3 42.3) rotate(189.6) scale(0.76 1.52)" />
<path d="M 70.3 17.5 C 64.4 25.6, 38.4 30.3, 35.3 44.7 C 34.3 40.7, 33.2 4.3, 32.9 11.1 C 25.3 0.0, 9.4 14.5, 20.1 5.1 C 17.5 0.0, 77.2 39.3, 78.3 27.0 C 76.9 29.4, 74.9 0.0, 78.2 11.9 C 89.3 20.5, 67.1 51.7, 59.4 65.1 C 64.6 80.6, 76.0 73.2, 71.6 82.4 C 70.8 98.5, 15.7 10.2, 12.3 2.6 C 19.4 21.6, 89.6 39.7, 87.3 41.2 C 92.7 58.3, 51.6 19.2, 40.5 23.6 Z" fill="hsl(144, 86%, 72%)" fill-opacity="0.68" stroke="none" stroke-width="3.59"  transform="translate(37.9 18.0) rotate(288.3) scale(0.91 1.66)" />
<path d="M 13.9 65.3 C 28.7 45.5, 32.3 34.9, 40.7 39.9 C 54.2 52.1, 38.8 51.6, 46.9 41.8 C 66.5 50.0, 0.0 82.4, 6.7 83.8 C 0.0 64.1, 52.0 89.6, 64.1 82.6 C 82.1 95.6, 4.6 38.2, 7.1 28.6 C 2.4 41.1, 16.5 100.0, 22.8 98.2 Z" fill="none" fill-opacity="0.89" stroke="hsl(86, 72%, 68%)" stroke-width="1.16"  transform="translate(47.2 69.4) rotate(291.2) scale(1.71 1.60)" />
<path d="M 82.5 96.2 C 76.3 82.4, 60.8 28.1, 58.7 35.5 C 42.6 19.9, 13.1 100.0, 18.6 92.7 C 30.4 100.0, 41.7 54.9, 46.8 41.0 C 58.8 39.2, 37.0 61.2, 43.6 68.6 C 45.6 87.9, 62.0 2.4, 55.0 4.9 C 37.1 0.0, 86.2 62.1, 80.2 70.8 C 88.2 85.3, 30.8 20.3, 16.8 6.6 C 10.0 17.2, 4.0 47.9, 11.8 54.4 C 4.3 42.6, 76.0 94.1, 72.7 93.9 C 69.0 93.0, 92.4 26.7, 93.5 31.0 Z" fill="hsl(290, 83%, 63%)" fill-opacity="0.31" stroke="none" stroke-width="1.92"  transform="translate(83.0 95.1) rotate(69.0) scale(1.32 1.29)" />
<circle cx="85.8" cy="92.6" r="4.6" fill="url(#g0)" fill-opacity="0.74"   />
<path d="M 72.3 96.8 C 59.0 96.3, 80.3 10.4, 81.3 11.8 C 92.6 26.8, 100.0 7.8, 92.9 13.0 C 99.0 24.3, 85.2 40.8, 77.9 37.3 C 90.4 18.4, 8.3 43.8, 3.7 37.2 C 6.9 42.9, 49.4 19.7, 61.2 7.2 C 52.2 0.0, 37.7 63.6, 27.5 71.0 C 15.9 56.3, 31.7 43.6, 45.3 32.4 C 55.0 26.2, 74.2 55.5, 78.6 49.5 Z" fill="hsl(183, 71%, 60%)" fill-opacity="0.77" stroke="none" stroke-width="2.79"  transform="translate(6.7 89.1) rotate(351.9) scale(0.76 1.93)" />
<rect x="46.5" y="41.7" width="43.9" height="29.3" rx="1.5" fill="none" fill-opacity="0.57"  filter="url(#f1)" transform="translate(41.2 40.1) rotate(273.5) scale(1.84 1.96)" />
<path d="M 11.3 7.6 C 0.0 13.0, 13.5 5.1, 10.7 19.1 C 5.4 0.7, 0.0 6.6, 6.3 14.0 C 0.0 10.0, 78.3 89.0, 92.2 86.8 C 75.7 86.9, 85.7 11.4, 87.2 21.1 C 80.4 14.3, 83.3 77.4, 95.1 65.8 C 95.9 70.5, 25.2 21.3, 24.4 35.6 C 21.7 49.4, 0.0 63.7, 5.1 72.2 C 3.2 86.6, 27.0 24.2, 18.1 25.4 C 7.9 14.5, 80.4 53.3, 92.7 40.4 C 100.0 58.5, 79.5 12.0, 64.7 21.3 Z" fill="none" fill-opacity="0.89" stroke="hsl(242, 72%, 49%)" stroke-width="2.33"  transform="translate(78.1 8.6) rotate(145.6) scale(1.28 1.51)" />
<path d="M 27.3 92.3 C 40.5 100.0, 27.3 14.1, 35.1 5.7 C 43.1 21.6, 71.5 50.3, 75.1 54.2 C 85.9 56.2, 71.4 94.1, 66.8 86.2 C 78.1 100.0, 16.2 18.7, 26.5 4.1 C 12.4 2.3, 17.8 1.1, 24.4 10.3 C 17.3 6.0, 10.2 17.5, 18.6 17.9 Z" fill="hsl(104, 72%, 65%)" fill-opacity="0.44" stroke="none" stroke-width="0.91"  transform="translate(1.4 34.4) rotate(162.5) scale(0.83 1.43)" />
<rect x="58.4" y="54.7" width="40.3" height="34.8" rx="13.0" fill="none" fill-opacity="0.84" stroke="hsl(322, 74%, 44%)" stroke-width="2.0"   />
<circle cx="11.8" cy="33.7" r="7.3" fill="hsl(322, 74%, 44%)" fill-opacity="0.44"  transform="translate(68.6 68.8) rotate(121.7) scale(0.69 1.52)" />
<circle cx="64.8" cy="36.1" r="3.0" fill="hsl(106, 75%, 59%)" fill-opacity="1.00"  transform="translate(44.3 90.3) rotate(135.8) scale(1.25 0.84)" />
<g opacity="0.062">
<rect x="0" y="0" width="1" height="100" fill="black" />
<rect x="22" y="0" width="1" height="100" fill="black" />
<rect x="44" y="0" width="1" height="100" fill="black" />
<rect x="66" y="0" width="1" height="100" fill="black" />
<rect x="88" y="0" width="1" height="100" fill="black" />
<rect x="0" y="0" width="100" height="1" fill="black" />
<rect x="0" y="22" width="100" height="1" fill="black" />
<rect x="0" y="44" width="100" height="1" fill="black" />
<rect x="0" y="66" width="100" height="1" fill="black" />
<rect x="0" y="88" width="100" height="1" fill="black" />
</g>

</svg>
