<?xml version="1.0" encoding="UTF-8"?>
<svg xmlns="http://www.w3.org/2000/svg" width="100" height="100" viewBox="0 0 100 100">
<defs>
<linearGradient id="g0" x1="0%" y1="0%" x2="100%" y2="100%">
<stop offset="0.0%" stop-color="hsl(106, 75%, 59%)" />
<stop offset="33.3%" stop-color="hsl(183, 71%, 60%)" />
<stop offset="66.7%" stop-color="hsl(242, 72%, 49%)" />
<stop offset="100.0%" stop-color="hsl(322, 74%, 44%)" />
</linearGradient>
<linearGradient id="g1" x1="0%" y1="0%" x2="100%" y2="100%">
<stop offset="0.0%" stop-color="hsl(290, 83%, 63%)" />
<stop offset="33.3%" stop-color="hsl(2, 82%, 55%)" />
<stop offset="66.7%" stop-color="hsl(86, 72%, 68%)" />
<stop offset="100.0%" stop-color="hsl(83, 65%, 44%)" />
</linearGradient>
<linearGradient id="g2" x1="0%" y1="0%" x2="100%" y2="100%">
<stop offset="0.0%" stop-color="hsl(40, 53%, 69%)" />
<stop offset="33.3%" stop-color="hsl(104, 72%, 65%)" />
<stop offset="66.7%" stop-color="hsl(144, 86%, 72%)" />
<stop offset="100.0%" stop-color="hsl(151, 70%, 62%)" />
</linearGradient>
</defs>

<circle cx="79.6" cy="95.5" r="1.1" fill="hsl(2, 82%, 55%)" fill-opacity="0.66"  transform="translate(97.5 49.1) rotate(66.2) scale(0.67 0.72)" />
<path d="M 53.5 56.5 C 59.4 46.7, 49.4 48.2, 60.7 38.9 C 65.7 32.6, 79.9 10.9, 71.1 2.8 C 67.6 0.0, 94.3 21.4, 87.2 32.1 C 91.5 19.0, 3.4 51.9, 15.3 49.9 C 5.4 31.8, 97.4 32.4, 93.9 41.7 Z" fill="hsl(242, 72%, 49%)" fill-opacity="0.51" stroke="none" stroke-width="0.90"  transform="translate(56.3 6.5) rotate(262.5) scale(1.47 1.80)" />
<path d="M 66.9 84.0 C 57.2 70.7, 1.4 17.6, 5.0 28.8 C 6.9 26.2, 33.5 100.0, 46.4 92.3 C 33.5 77.3, 72.9 59.6, 65.9 54.5 C 58.9 57.9, 32.1 36.8, 32.3 37.7 C 34.5 24.2, 13.9 43.7, 4.3 51.9 Z" fill="hsl(83, 65%, 44%)" fill-opacity="0.28" stroke="none" stroke-width="0.96"   />
<path d="M 79.3 17.4 C 72.4 13.3, 35.1 21.9, 27.7 24.4 C 15.7 33.2, 6.8 57.3, 8.2 42.6 C 10.2 47.5, 9.4 77.4, 14.1 69.7 C 11.7 67.7, 87.0 73.6, 72.4 76.9 C 78.6 96.8, 48.0 20.6, 51.9 30.2 " fill="none" fill-opacity="0.39" stroke="hsl(106, 75%, 59%)" stroke-width="1.04"   />
<rect x="70.7" y="24.2" width="25.1" height="14.1" rx="11.1" fill="none" fill-opacity="0.48"    />
<path d="M 78.7 26.7 C 73.1 18.1, 15.0 65.3, 10.6 54.4 C 8.1 37.9, 21.9 23.7, 19.4 15.7 C 5.4 3.7, 2.9 85.3, 6.1 81.7 C 0.3 93.8, 96.5 11.9, 93.1 22.7 " fill="hsl(151, 70%, 62%)" fill-opacity="0.30" stroke="none" stroke-width="1.23"   />
<path d="M 66.0 24.2 C 84.2 23.3, 8.5 21.3, 0.2 9.5 C 0.0 27.2, 68.7 17.1, 56.4 25.4 C 71.6 24.2, 46.3 0.0, 46.7 12.9 C 43.1 25.4, 31.4 99.6, 45.4 92.0 C 50.2 100.0, 39.6 56.5, 35.2 49.2 " fill="hsl(106, 75%, 59%)" fill-opacity="0.99" stroke="none" stroke-width="1.22"   />
<path d="M 79.3 22.2 C 61.6 37.5, 36.0 75.9, 49.3 84.3 C 64.6 95.1, 5.3 1.0, 11.7 5.3 C 0.0 0.0, 41.2 8.7, 31.0 8.3 C 20.6 0.0, 0.0 48.6, 11.2 49.3 C 0.0 54.0, 64.0 39.2, 71.0 35.5 C 88.0 42.7, 19.3 88.1, 10.9 78.3 C 0.0 86.3, 14.6 10.6, 27.5 20.6 Z" fill="hsl(144, 86%, 72%)" fill-opacity="0.51" stroke="none" stroke-width="0.96"  transform="translate(6.0 25.5) rotate(247.0) scale(0.73 1.96)" />
<path d="M 30.5 3.1 C 39.7 0.0, 38.2 10.8, 33.5 0.2 C 49.6 10.1, 47.9 92.2, 42.8 82.4 C 32.8 84.9, 0.0 86.6, 0.6 72.2 C 0.0 89.4, 76.9 62.1, 75.5 75.4 C 76.3 75.2, 32.7 8.1, 18.3 4.2 C 2.6 21.8, 86.6 0.0, 89.1 3.3 C 89.9 0.0, 88.4 80.0, 90.5 84.5 " fill="hsl(83, 65%, 44%)" fill-opacity="0.41" stroke="none" stroke-width="1.28"  transform="translate(48.1 47.9) rotate(318.2) scale(1.81 0.69)" />
<path d="M 15.6 33.9 C 27.5 27.8, 35.3 15.0, 32.6 2.4 C 30.6 7.0, 76.5 22.5, 65.2 35.9 C 81.0 23.8, 77.6 89.7, 72.2 80.3 " fill="hsl(106, 75%, 59%)" fill-opacity="0.98" stroke="none" stroke-width="1.27"  transform="translate(63.7 56.5) rotate(300.5) scale(1.06 1.29)" />
<circle cx="34.1" cy="37.6" r="1.3" fill="hsl(144, 86%, 72%)" fill-opacity="0.48"  transform="translate(65.8 63.3) rotate(334.3) scale(0.96 0.59)" />
<rect x="24.8" y="30.9" width="48.6" height="34.6" rx="2.5" fill="hsl(322, 74%, 44%)" fill-opacity="0.98"    />
<path d="M 33.7 50.8 C 28.1 54.4, 24.6 80.1, 23.8 84.5 C 20.6 82.2, 21.7 42.9, 26.9 39.3 C 37.8 44.6, 12.4 14.7, 2.0 15.0 C 0.0 19.7, 6.8 20.4, 0.3 13.6 " fill="hsl(290, 83%, 63%)" fill-opacity="0.62" stroke="none" stroke-width="1.03"  transform="translate(21.7 7.5) rotate(357.3) scale(1.37 1.94)" />
<path d="M 51.3 44.1 C 31.8 45.5, 32.2 35.4, 18.5 31.7 C 9.0 29.6, 64.3 84.2, 74.5 72.3 C 70.7 85.6, 49.8 66.6, 51.5 79.3 C 60.7 69.6, 21.6 64.6, 31.4 72.1 C 44.9 59.4, 44.5 0.0, 46.7 5.5 " fill="none" fill-opacity="0.96" stroke="hsl(144, 86%, 72%)" stroke-width="1.15"  transform="translate(69.6 82.1) rotate(290.8) scale(0.78 1.55)" />
<circle cx="49.7" cy="85.6" r="0.0" fill="hsl(40, 53%, 69%)" fill-opacity="0.82"  transform="translate(81.0 40.4) rotate(9.0) scale(1.79 0.68)" />
<rect x="32.0" y="31.8" width="38.9" height="33.3" rx="18.1" fill="hsl(40, 53%, 69%)" fill-opacity="0.49"    />
<circle cx="88.7" cy="68.1" r="1.2" fill="hsl(322, 74%, 44%)" fill-opacity="0.64"  transform="translate(21.5 89.2) rotate(268.3) scale(1.24 1.20)" />
</svg>
