<?xml version="1.0" encoding="UTF-8"?>
<svg xmlns="http://www.w3.org/2000/svg" width="100" height="100" viewBox="0 0 100 100">
<defs>
<linearGradient id="g0" x1="0%" y1="0%" x2="100%" y2="100%">
<stop offset="0.0%" stop-color="hsl(106, 75%, 59%)" />
<stop offset="33.3%" stop-color="hsl(183, 71%, 60%)" />
<stop offset="66.7%" stop-color="hsl(242, 72%, 49%)" />
<stop offset="100.0%" stop-color="hsl(322, 74%, 44%)" />
</linearGradient>
<linearGradient id="g1" x1="0%" y1="0%" x2="100%" y2="100%">
<stop offset="0.0%" stop-color="hsl(290, 83%, 63%)" />
<stop offset="33.3%" stop-color="hsl(2, 82%, 55%)" />
<stop offset="66.7%" stop-color="hsl(86, 72%, 68%)" />
<stop offset="100.0%" stop-color="hsl(83, 65%, 44%)" />
</linearGradient>
<linearGradient id="g2" x1="0%" y1="0%" x2="100%" y2="100%">
<stop offset="0.0%" stop-color="hsl(40, 53%, 69%)" />
<stop offset="33.3%" stop-color="hsl(104, 72%, 65%)" />
<stop offset="66.7%" stop-color="hsl(144, 86%, 72%)" />
<stop offset="100.0%" stop-color="hsl(151, 70%, 62%)" />
</linearGradient>
<filter id="f1" x="-20%" y="-20%" width="140%" height="140%">
  <feGaussianBlur stdDeviation="2.253490699399186" />
</filter>

</defs>

<circle cx="52.1" cy="12.9" r="4.3" fill="hsl(183, 71%, 60%)" fill-opacity="0.61"  transform="translate(0.1 68.0) rotate(165.8) scale(1.48 0.66)" />
<circle cx="41.1" cy="75.5" r="0.3" fill="url(#g0)" fill-opacity="0.45"  transform="translate(62.5 87.8) rotate(291.1) scale(1.38 1.53)" />
<path d="M 61.6 20.7 C 62.2 5.7, 81.4 79.5, 73.3 76.1 C 71.8 82.5, 74.9 64.5, 63.6 70.4 C 50.5 54.9, 41.2 16.6, 26.4 9.5 C 20.7 12.2, 20.8 7.7, 35.5 19.3 C 44.5 7.0, 75.0 30.7, 68.3 31.1 C 51.2 28.3, 23.6 100.0, 10.5 94.9 C 0.0 98.5, 30.1 99.5, 23.8 88.9 C 19.3 100.0, 88.9 65.5, 90.7 76.8 Z" fill="none" fill-opacity="0.41" stroke="hsl(83, 65%, 44%)" stroke-width="1.40"   />
<path d="M 17.8 33.4 C 24.5 43.0, 31.7 74.7, 32.9 72.1 C 28.8 89.0, 2.5 61.3, 12.2 62.3 C 0.0 44.3, 32.9 40.4, 34.5 43.9 C 36.3 60.0, 53.3 81.0, 67.7 73.4 C 68.5 70.2, 9.4 21.2, 15.7 32.4 C 13.5 30.7, 63.2 13.8, 75.3 12.0 C 59.8 27.4, 60.4 74.4, 64.6 79.8 Z" fill="none" fill-opacity="0.34" stroke="hsl(83, 65%, 44%)" stroke-width="2.85" filter="url(#f1)" transform="translate(1.0 8.0) rotate(324.9) scale(1.69 1.47)" />
<circle cx="41.2" cy="53.5" r="7.8" fill="hsl(290, 83%, 63%)" fill-opacity="0.79"  transform="translate(78.0 74.6) rotate(32.6) scale(0.86 1.40)" />
<rect x="24.1" y="58.8" width="28.6" height="15.2" rx="0" fill="hsl(106, 75%, 59%)" fill-opacity="0.82"  filter="url(#f1)" transform="translate(28.7 38.7) rotate(76.4) scale(1.08 1.73)" />
<circle cx="40.6" cy="30.7" r="11.2" fill="hsl(322, 74%, 44%)" fill-opacity="0.83"  transform="translate(91.0 71.1) rotate(33.2) scale(1.65 0.95)" />
<rect x="39.4" y="43.1" width="20.9" height="28.5" rx="7.0" fill="hsl(290, 83%, 63%)" fill-opacity="0.48"   transform="translate(54.3 97.8) rotate(156.2) scale(1.30 1.96)" />
<path d="M 74.1 67.4 C 58.6 75.0, 86.1 37.4, 96.9 43.7 C 100.0 47.0, 83.9 48.1, 89.2 53.3 C 82.6 72.1, 17.0 39.7, 18.3 46.4 C 8.4 31.0, 84.3 32.1, 95.9 27.4 C 100.0 21.7, 61.3 0.0, 52.1 6.0 C 44.0 18.2, 90.2 79.2, 83.7 67.0 Z" fill="hsl(40, 53%, 69%)" fill-opacity="0.99" stroke="none" stroke-width="3.64"  transform="translate(11.4 26.5) rotate(133.9) scale(1.48 0.92)" />
<path d="M 41.5 70.0 C 53.4 84.9, 82.3 2.0, 95.0 15.9 C 85.6 26.2, 78.6 77.2, 87.8 71.7 C 83.9 90.9, 66.7 84.1, 67.2 74.5 C 49.2 89.3, 18.8 84.2, 32.1 72.0 C 42.2 83.9, 60.3 45.0, 60.9 45.2 C 79.9 63.4, 87.2 11.4, 75.7 19.8 C 80.0 13.0, 14.5 42.3, 18.1 55.0 C 9.8 65.2, 59.6 48.1, 61.4 48.6 Z" fill="none" fill-opacity="0.63" stroke="hsl(183, 71%, 60%)" stroke-width="3.51"  transform="translate(51.2 0.8) rotate(38.8) scale(0.62 1.88)" />
<circle cx="76.9" cy="57.8" r="10.6" fill="hsl(322, 74%, 44%)" fill-opacity="0.98" filter="url(#f1)"  />
<rect x="38.2" y="48.0" width="27.8" height="23.5" rx="0.7" fill="hsl(242, 72%, 49%)" fill-opacity="0.94"   transform="translate(91.2 22.0) rotate(20.4) scale(1.97 1.00)" />
<path d="M 77.5 57.6 C 79.7 48.5, 62.9 0.0, 51.1 5.9 C 58.9 0.0, 45.5 14.4, 45.2 0.2 C 62.4 7.2, 0.0 22.1, 12.6 8.2 C 22.7 25.6, 5.0 90.8, 4.1 94.6 C 0.0 100.0, 52.3 33.6, 50.9 40.7 C 40.9 54.1, 0.0 17.9, 8.7 7.9 C 22.2 7.9, 44.7 37.3, 58.4 43.5 Z" fill="none" fill-opacity="0.45" stroke="hsl(151, 70%, 62%)" stroke-width="0.90"  transform="translate(70.3 51.2) rotate(70.6) scale(0.80 1.30)" />
<path d="M 69.7 37.5 C 61.6 39.7, 64.8 76.2, 77.7 83.1 C 77.4 69.8, 63.7 38.5, 62.1 43.6 C 53.3 55.8, 37.7 47.8, 34.3 59.2 C 22.7 71.4, 29.6 14.2, 33.8 5.0 C 42.7 15.0, 60.8 46.6, 57.9 48.0 C 42.3 35.7, 0.0 76.0, 5.6 82.2 C 0.0 64.7, 33.9 73.5, 47.5 70.8 Z" fill="none" fill-opacity="0.39" stroke="hsl(151, 70%, 62%)" stroke-width="2.12"  transform="translate(4.5 42.0) rotate(78.8) scale(1.56 0.78)" />
<path d="M 74.8 78.7 C 76.8 66.7, 91.8 21.0, 84.9 20.5 C 79.5 24.6, 12.5 74.0, 27.2 75.1 C 28.3 60.3, 78.8 8.6, 77.1 10.9 C 66.3 20.9, 62.7 68.3, 68.8 82.5 C 60.9 81.0, 49.9 59.9, 40.6 50.1 C 54.7 51.6, 76.8 96.6, 85.1 88.2 C 100.0 92.6, 79.9 61.2, 83.9 60.7 C 70.7 72.8, 0.0 83.0, 1.4 69.4 Z" fill="hsl(290, 83%, 63%)" fill-opacity="0.63" stroke="none" stroke-width="4.72"   />
<circle cx="40.8" cy="16.0" r="12.7" fill="url(#g2)" fill-opacity="0.93"  transform="translate(4.6 70.0) rotate(25.3) scale(1.38 0.76)" />
<rect x="27.1" y="34.1" width="41.6" height="20.0" rx="0" fill="none" fill-opacity="0.44" stroke="hsl(151, 70%, 62%)" stroke-width="4.8"  transform="translate(76.6 80.6) rotate(193.4) scale(0.86 0.68)" />
<rect x="30.9" y="15.3" width="35.3" height="13.3" rx="19.4" fill="none" fill-opacity="0.40" stroke="hsl(322, 74%, 44%)" stroke-width="2.0"  transform="translate(72.5 21.8) rotate(207.6) scale(1.67 0.99)" />
<path d="M 73.8 74.0 C 93.7 77.6, 80.3 43.1, 92.7 28.5 C 100.0 33.7, 1.9 1.1, 7.6 8.5 C 6.6 0.0, 12.1 53.5, 0.4 66.2 C 0.0 82.6, 66.0 26.4, 80.9 40.3 C 77.4 52.1, 90.6 58.0, 84.3 45.2 C 71.7 29.6, 16.7 40.7, 7.2 40.6 C 6.5 39.8, 83.3 81.0, 72.5 84.4 C 78.4 81.4, 93.7 65.0, 80.7 76.3 Z" fill="hsl(242, 72%, 49%)" fill-opacity="0.39" stroke="none" stroke-width="3.92"  transform="translate(12.9 73.7) rotate(202.3) scale(0.56 1.23)" />
<path d="M 0.6 18.1 C 11.8 8.2, 0.0 37.6, 7.0 31.5 C 13.5 36.0, 32.6 16.4, 31.4 28.2 C 47.1 42.9, 31.4 0.0, 44.8 2.2 C 54.3 8.6, 77.8 0.9, 83.7 8.2 C 81.7 8.7, 47.0 89.7, 47.4 83.5 C 28.8 80.6, 35.1 8.6, 44.1 5.6 C 44.8 0.9, 6.6 64.1, 10.5 56.2 Z" fill="none" fill-opacity="0.68" stroke="hsl(290, 83%, 63%)" stroke-width="4.61"  transform="translate(21.1 84.2) rotate(308.6) scale(0.95 1.04)" />
<path d="M 40.5 2.2 C 48.5 8.6, 79.9 31.1, 67.0 42.9 C 63.7 25.4, 42.4 93.1, 46.2 99.2 C 29.6 87.5, 85.4 43.4, 84.5 56.3 C 73.1 50.6, 7.2 50.0, 0.3 58.7 C 2.6 71.7, 27.6 84.1, 31.0 89.8 C 33.1 81.6, 44.0 52.0, 56.4 66.6 C 50.7 63.8, 62.4 43.5, 73.0 35.1 C 89.9 27.7, 82.5 82.1, 86.2 85.8 Z" fill="hsl(144, 86%, 72%)" fill-opacity="0.65" stroke="none" stroke-width="2.97"  transform="translate(72.2 47.2) rotate(344.3) scale(0.52 1.26)" />
<circle cx="41.2" cy="97.0" r="11.0" fill="hsl(322, 74%, 44%)" fill-opacity="0.41"  transform="translate(24.5 19.1) rotate(151.5) scale(1.67 1.64)" />
<rect x="27.8" y="28.3" width="42.7" height="28.7" rx="0" fill="hsl(104, 72%, 65%)" fill-opacity="0.92" stroke="hsl(40, 53%, 69%)" stroke-width="3.7"   />
<rect x="1.8" y="15.6" width="28.2" height="31.5" rx="0" fill="none" fill-opacity="0.41"   transform="translate(42.7 42.2) rotate(248.4) scale(0.58 1.00)" />
<path d="M 67.9 0.9 C 68.9 19.8, 63.3 30.6, 69.0 26.1 C 73.6 24.1, 40.6 77.9, 44.8 69.7 C 56.5 55.9, 72.5 100.0, 64.0 99.3 C 70.9 92.3, 79.2 61.5, 92.3 72.0 C 74.3 78.8, 89.3 12.4, 99.7 6.3 C 100.0 0.0, 29.2 37.7, 28.9 49.9 C 32.9 62.3, 84.1 20.4, 72.6 34.4 C 69.8 50.3, 88.5 8.7, 90.5 16.9 C 100.0 26.5, 60.8 27.6, 63.1 13.3 Z" fill="none" fill-opacity="0.97" stroke="hsl(106, 75%, 59%)" stroke-width="1.69"  transform="translate(50.4 33.6) rotate(155.1) scale(0.61 0.61)" />
<path d="M 63.6 11.7 C 46.9 0.1, 64.1 14.3, 57.7 13.8 C 42.5 13.9, 56.3 34.0, 66.8 48.2 C 82.9 64.0, 66.3 63.4, 70.1 64.8 C 55.9 75.0, 65.4 64.2, 80.3 55.0 C 62.7 38.8, 100.0 96.3, 93.5 81.8 C 100.0 78.8, 36.5 27.4, 32.3 21.5 C 24.2 40.2, 36.2 25.6, 38.6 19.0 C 26.1 1.5, 51.8 14.3, 47.0 18.0 C 52.0 24.2, 100.0 1.7, 96.5 6.9 C 100.0 0.0, 56.3 80.2, 70.6 83.9 Z" fill="none" fill-opacity="0.90" stroke="hsl(86, 72%, 68%)" stroke-width="1.55"  transform="translate(47.3 76.0) rotate(332.2) scale(1.42 0.75)" />
<path d="M 73.9 63.7 C 67.4 80.6, 55.5 82.8, 63.8 96.0 C 59.1 100.0, 46.1 86.8, 56.5 84.6 C 50.4 69.0, 22.2 16.7, 13.9 6.1 C 4.0 0.0, 82.5 37.4, 89.9 49.1 C 95.6 34.7, 38.9 53.6, 27.4 45.5 C 43.3 54.5, 33.1 63.1, 34.3 53.4 C 50.0 41.9, 0.8 31.9, 9.6 18.3 C 4.2 4.9, 98.6 82.4, 86.6 86.0 C 79.8 77.3, 58.4 77.5, 46.2 79.8 C 64.5 76.2, 0.9 58.6, 2.9 48.2 Z" fill="none" fill-opacity="0.97" stroke="hsl(151, 70%, 62%)" stroke-width="2.32"  transform="translate(17.4 67.7) rotate(60.6) scale(1.61 0.72)" />
<path d="M 18.5 20.1 C 16.9 36.2, 5.7 91.5, 4.2 77.4 C 17.1 89.9, 85.3 0.9, 71.1 13.3 C 57.7 0.0, 77.6 39.5, 81.7 44.7 C 85.6 48.8, 71.1 51.4, 71.4 49.2 C 75.0 52.9, 68.0 56.3, 69.6 58.6 C 82.0 53.2, 58.9 62.2, 46.6 54.8 C 64.4 50.0, 73.3 32.9, 63.7 45.8 C 80.2 26.2, 7.3 15.5, 12.0 9.9 " fill="hsl(83, 65%, 44%)" fill-opacity="0.63" stroke="none" stroke-width="3.54"  transform="translate(12.1 61.5) rotate(202.9) scale(0.80 1.89)" />
<path d="M 14.4 95.7 C 10.2 99.1, 46.0 23.1, 50.9 14.5 C 63.7 22.2, 47.9 76.2, 52.0 72.7 C 53.2 62.0, 41.6 21.2, 39.9 26.5 C 46.0 21.5, 6.9 43.2, 5.1 45.9 C 16.7 41.2, 99.1 74.2, 84.9 66.1 C 68.5 83.8, 64.7 89.9, 69.0 97.7 " fill="hsl(242, 72%, 49%)" fill-opacity="0.93" stroke="none" stroke-width="4.33"  transform="translate(71.4 67.2) rotate(51.2) scale(0.68 0.68)" />
<rect x="17.4" y="30.2" width="22.5" height="36.9" rx="0" fill="none" fill-opacity="0.84"   transform="translate(4.1 63.4) rotate(81.0) scale(1.84 1.61)" />
<path d="M 91.9 58.3 C 72.6 70.0, 6.6 100.0, 11.8 91.5 C 18.0 75.4, 79.2 79.5, 90.7 90.9 C 78.1 93.8, 55.3 53.5, 51.7 66.2 C 42.4 49.1, 24.4 58.3, 38.1 70.7 C 54.0 60.7, 9.8 62.9, 23.3 60.6 C 36.2 55.0, 23.8 25.9, 30.4 29.1 C 28.4 47.0, 13.2 29.6, 23.4 14.7 C 26.8 20.3, 68.7 100.0, 80.4 90.4 C 96.6 100.0, 37.0 41.7, 38.5 50.4 C 24.0 42.0, 17.0 19.5, 20.0 32.7 Z" fill="hsl(290, 83%, 63%)" fill-opacity="0.97" stroke="none" stroke-width="5.19"  transform="translate(11.1 15.9) rotate(185.9) scale(1.67 0.56)" />
<path d="M 62.2 89.3 C 79.6 100.0, 70.5 48.2, 80.3 35.8 C 81.2 20.1, 53.9 65.2, 39.9 59.9 C 26.9 49.9, 96.4 66.0, 86.5 66.9 C 96.5 86.7, 35.3 12.1, 33.4 12.1 C 14.1 0.0, 0.0 71.2, 5.4 74.5 C 3.6 77.8, 56.0 40.2, 54.9 35.2 C 69.7 15.5, 13.0 3.9, 17.1 17.0 C 11.9 27.9, 34.7 46.4, 21.0 39.1 C 9.8 48.8, 72.5 8.0, 69.7 13.3 Z" fill="none" fill-opacity="0.76" stroke="hsl(86, 72%, 68%)" stroke-width="2.32"   />
<path d="M 0.5 86.8 C 16.0 87.6, 0.0 27.6, 5.3 36.5 C 21.8 18.7, 51.7 33.1, 64.8 26.9 C 74.8 43.2, 85.7 48.6, 97.9 49.0 C 97.2 31.6, 20.6 69.8, 34.7 67.4 C 42.0 71.3, 0.0 7.3, 2.9 10.1 C 0.0 1.9, 0.0 82.2, 5.7 70.0 Z" fill="hsl(104, 72%, 65%)" fill-opacity="0.36" stroke="none" stroke-width="1.81"   />
<path d="M 94.5 85.0 C 92.5 77.5, 59.1 78.3, 67.3 75.1 C 86.6 92.8, 2.2 54.4, 5.9 47.2 C 0.0 58.4, 88.9 49.7, 78.1 54.5 C 65.0 54.6, 100.0 55.1, 99.8 56.7 C 90.2 37.2, 2.1 83.9, 0.8 93.6 C 17.8 100.0, 54.4 71.3, 43.2 81.4 C 25.7 94.5, 19.7 57.4, 15.3 67.1 C 17.4 58.1, 6.7 6.1, 14.9 15.7 C 6.4 17.8, 23.5 57.4, 30.6 47.9 C 49.3 55.6, 82.1 36.3, 90.3 45.6 Z" fill="hsl(242, 72%, 49%)" fill-opacity="0.85" stroke="none" stroke-width="5.10"  transform="translate(30.8 47.3) rotate(209.7) scale(1.18 1.89)" />
<path d="M 18.8 12.1 C 13.8 16.4, 50.8 55.7, 48.3 52.1 C 60.0 58.7, 10.8 100.0, 15.7 96.3 C 11.7 91.7, 42.9 49.9, 51.4 39.4 C 39.1 21.9, 22.8 33.8, 25.2 43.6 C 25.6 26.9, 37.1 17.8, 36.8 18.6 C 50.2 0.2, 30.8 47.4, 28.3 56.9 C 9.9 45.8, 41.5 32.5, 40.4 45.3 " fill="hsl(106, 75%, 59%)" fill-opacity="0.68" stroke="none" stroke-width="3.55"  transform="translate(5.3 88.1) rotate(92.0) scale(1.33 0.92)" />
<path d="M 7.0 53.6 C 23.9 38.5, 69.9 84.2, 63.6 81.0 C 78.2 89.1, 70.5 26.8, 84.3 19.5 C 85.4 13.8, 48.6 73.6, 51.4 73.6 C 60.4 65.2, 53.4 37.2, 43.6 34.1 C 25.1 32.4, 70.4 59.8, 55.7 72.8 C 57.4 59.7, 39.9 56.4, 32.4 61.0 C 33.6 53.5, 86.8 35.1, 88.0 27.5 C 80.5 39.6, 7.6 100.0, 15.2 90.9 " fill="none" fill-opacity="0.29" stroke="hsl(183, 71%, 60%)" stroke-width="3.99"  transform="translate(57.7 75.9) rotate(195.4) scale(1.93 1.59)" />
<rect x="44.2" y="81.5" width="36.0" height="14.7" rx="0" fill="hsl(144, 86%, 72%)" fill-opacity="0.81"   transform="translate(26.1 67.7) rotate(182.8) scale(1.66 0.95)" />
<path d="M 35.6 55.3 C 25.5 61.0, 0.0 8.2, 2.3 13.9 C 9.1 0.2, 88.5 38.3, 88.0 25.0 C 99.7 15.4, 49.1 85.4, 39.0 88.3 C 34.9 84.3, 94.1 81.1, 85.9 83.5 C 90.4 73.4, 87.2 93.9, 87.2 82.4 C 76.1 92.5, 71.6 34.8, 71.8 23.7 C 60.5 9.8, 52.5 63.5, 52.7 50.2 Z" fill="none" fill-opacity="0.35" stroke="hsl(322, 74%, 44%)" stroke-width="5.30"   />
<path d="M 24.0 5.3 C 32.2 9.5, 33.2 45.0, 24.0 52.5 C 34.7 39.1, 94.1 100.0, 79.7 99.9 C 88.3 83.0, 38.2 21.3, 43.6 20.9 C 61.3 40.9, 48.7 79.4, 35.4 86.1 C 42.6 78.6, 66.0 37.3, 69.7 50.4 C 51.8 38.4, 38.6 81.6, 32.7 93.8 C 14.1 96.3, 65.3 83.7, 68.3 73.2 C 70.3 62.9, 59.7 18.2, 53.2 12.4 C 61.7 22.0, 67.2 0.0, 60.2 10.5 Z" fill="none" fill-opacity="0.66" stroke="hsl(40, 53%, 69%)" stroke-width="2.61"  transform="translate(57.6 30.2) rotate(139.3) scale(0.95 1.81)" />
<path d="M 50.3 66.1 C 53.4 58.8, 74.4 72.3, 88.2 83.7 C 90.7 94.3, 75.3 23.9, 84.4 10.5 C 94.5 0.0, 78.8 84.7, 73.9 98.8 C 76.8 100.0, 100.0 66.9, 99.4 71.1 C 83.4 89.6, 40.8 49.2, 53.1 44.0 C 60.7 33.4, 85.4 11.1, 85.8 7.1 Z" fill="hsl(322, 74%, 44%)" fill-opacity="0.29" stroke="none" stroke-width="4.36"  transform="translate(76.9 73.4) rotate(100.5) scale(0.89 1.01)" />
<path d="M 26.4 46.9 C 44.1 64.8, 93.7 13.6, 89.7 15.8 C 81.7 0.0, 55.7 93.4, 68.8 83.0 C 55.1 76.2, 55.1 5.5, 61.8 10.8 C 67.0 14.8, 95.2 12.4, 93.3 16.9 C 79.8 13.6, 47.9 4.7, 57.1 3.1 C 41.9 0.0, 17.2 0.0, 18.6 0.7 C 24.7 0.0, 28.0 7.3, 41.2 7.4 C 59.2 20.3, 26.5 56.1, 36.1 60.1 C 26.2 70.8, 51.1 48.8, 49.0 40.5 Z" fill="hsl(322, 74%, 44%)" fill-opacity="0.40" stroke="none" stroke-width="2.45"  transform="translate(16.9 11.7) rotate(257.9) scale(0.65 1.64)" />
<rect x="9.6" y="55.6" width="33.4" height="17.3" rx="0" fill="hsl(242, 72%, 49%)" fill-opacity="0.41"   transform="translate(37.7 9.8) rotate(82.8) scale(0.85 1.34)" />
<rect x="22.3" y="17.2" width="39.1" height="29.4" rx="17.3" fill="hsl(83, 65%, 44%)" fill-opacity="0.22"   transform="translate(18.3 34.8) rotate(298.1) scale(1.70 1.75)" />
<rect x="32.0" y="20.4" width="27.8" height="19.5" rx="14.9" fill="hsl(183, 71%, 60%)" fill-opacity="0.93"  filter="url(#f1)" transform="translate(48.6 53.1) rotate(346.3) scale(0.96 1.53)" />
<path d="M 74.6 55.8 C 82.3 67.3, 100.0 13.9, 97.8 8.2 C 100.0 24.7, 51.7 93.6, 48.5 83.6 C 65.9 95.1, 0.0 83.2, 12.3 92.9 C 1.1 95.3, 60.1 80.7, 49.6 72.5 C 30.5 59.0, 73.3 14.7, 75.1 27.7 C 57.1 39.5, 18.5 75.3, 13.3 89.9 C 21.7 100.0, 90.6 59.9, 98.0 50.6 C 99.0 40.2, 7.2 67.7, 11.8 61.7 Z" fill="none" fill-opacity="0.75" stroke="hsl(86, 72%, 68%)" stroke-width="2.79" filter="url(#f1)" transform="translate(84.9 68.3) rotate(65.1) scale(1.32 1.25)" />
<path d="M 46.3 3.6 C 56.6 12.1, 46.3 55.4, 58.4 42.6 C 65.9 28.7, 82.1 100.0, 80.8 98.6 C 93.0 81.4, 51.2 62.9, 66.2 55.7 C 74.6 66.9, 98.5 12.0, 96.9 8.9 C 100.0 0.0, 56.6 40.8, 68.5 49.9 C 55.5 38.7, 54.0 78.8, 56.9 83.3 " fill="none" fill-opacity="0.80" stroke="hsl(242, 72%, 49%)" stroke-width="3.34"   />
<path d="M 46.0 10.4 C 28.4 14.3, 14.2 0.0, 7.8 2.6 C 0.0 6.8, 68.5 3.0, 80.8 4.5 C 71.5 0.4, 82.5 57.1, 74.7 52.3 C 94.1 44.3, 89.6 43.5, 93.7 58.5 C 74.7 75.9, 11.8 87.0, 26.7 78.4 C 22.5 90.2, 33.2 71.7, 24.1 84.4 C 26.6 93.7, 0.0 29.0, 9.5 33.4 C 20.4 52.0, 100.0 15.6, 96.5 4.9 Z" fill="hsl(290, 83%, 63%)" fill-opacity="0.78" stroke="none" stroke-width="4.19"  transform="translate(24.8 73.1) rotate(336.1) scale(0.57 1.62)" />
<path d="M 77.1 9.5 C 93.2 14.8, 56.9 53.3, 46.1 44.2 C 35.8 50.2, 84.5 74.0, 87.8 82.2 C 86.0 74.9, 72.3 12.0, 59.9 10.4 C 70.3 16.7, 86.5 87.4, 94.0 91.1 C 100.0 98.6, 63.5 42.0, 54.2 30.0 C 58.6 15.7, 52.8 76.9, 37.9 62.6 C 29.7 43.6, 12.7 100.0, 16.5 95.6 C 15.7 100.0, 78.4 27.2, 69.6 31.6 C 69.4 42.1, 82.3 18.8, 70.3 28.8 C 65.6 36.6, 12.7 91.4, 12.0 88.8 Z" fill="hsl(183, 71%, 60%)" fill-opacity="0.37" stroke="none" stroke-width="4.65"  transform="translate(79.9 61.8) rotate(127.4) scale(0.59 1.95)" />
<path d="M 42.9 77.3 C 42.2 62.8, 78.4 72.2, 86.0 72.1 C 77.4 67.5, 64.1 85.3, 63.2 78.0 C 47.6 63.0, 20.0 40.2, 31.9 47.4 C 20.0 52.4, 6.6 99.9, 11.0 99.4 C 0.9 100.0, 0.0 46.5, 0.3 56.8 C 0.0 48.1, 0.8 63.8, 2.5 66.5 C 0.0 55.2, 98.7 61.4, 99.4 61.0 C 86.8 70.3, 57.8 53.3, 54.6 67.8 C 44.0 80.8, 92.1 73.1, 77.2 85.6 C 90.3 65.7, 25.3 100.0, 36.5 93.6 Z" fill="hsl(104, 72%, 65%)" fill-opacity="0.28" stroke="none" stroke-width="4.70"  transform="translate(58.7 47.7) rotate(339.1) scale(0.96 0.86)" />
<path d="M 4.6 0.4 C 4.1 10.2, 65.2 57.0, 63.8 56.8 C 77.3 73.0, 100.0 68.6, 97.4 74.1 C 100.0 89.6, 31.4 11.8, 36.9 10.4 C 28.6 21.7, 71.6 87.0, 76.0 79.5 C 74.9 84.7, 39.9 8.1, 54.0 10.9 C 53.8 25.1, 79.8 42.2, 69.3 39.3 " fill="none" fill-opacity="0.70" stroke="hsl(83, 65%, 44%)" stroke-width="5.25"  transform="translate(86.0 65.2) rotate(258.4) scale(0.62 1.54)" />
<rect x="67.2" y="39.0" width="22.5" height="29.9" rx="0" fill="none" fill-opacity="0.83"   transform="translate(0.0 90.9) rotate(349.5) scale(0.83 1.39)" />
<path d="M 69.3 25.7 C 57.7 27.7, 80.2 1.2, 67.2 9.5 C 74.4 14.6, 76.3 83.9, 67.4 88.6 C 68.4 92.4, 49.8 67.4, 57.3 76.0 C 59.0 56.3, 33.3 72.5, 23.5 65.0 C 20.8 49.8, 63.0 89.2, 53.8 81.1 C 59.0 95.3, 53.7 45.3, 67.7 41.9 C 67.5 29.5, 66.5 18.9, 63.0 13.1 C 81.9 16.9, 28.0 22.8, 40.0 22.0 C 43.9 26.4, 7.5 0.0, 9.0 1.7 C 0.0 15.1, 73.2 70.7, 69.3 80.6 Z" fill="hsl(290, 83%, 63%)" fill-opacity="0.77" stroke="none" stroke-width="0.91"  transform="translate(65.7 92.3) rotate(355.8) scale(0.82 0.97)" />
<path d="M 87.1 8.4 C 93.8 3.9, 8.7 65.7, 19.0 64.3 C 33.6 78.9, 34.9 24.4, 35.5 33.1 C 18.8 40.6, 84.3 46.2, 83.0 33.0 C 84.6 19.4, 77.1 69.5, 86.0 67.9 C 66.5 81.1, 100.0 28.6, 90.1 14.5 C 100.0 0.0, 4.8 85.3, 13.1 86.8 " fill="hsl(144, 86%, 72%)" fill-opacity="0.80" stroke="none" stroke-width="2.22"  transform="translate(68.9 80.8) rotate(113.1) scale(1.68 0.96)" />
<path d="M 64.2 19.0 C 60.5 28.8, 64.8 51.0, 65.9 58.4 C 61.9 68.4, 51.1 92.6, 56.5 87.3 C 44.8 73.0, 26.4 38.7, 33.7 34.1 C 45.7 21.7, 71.0 24.7, 82.7 26.2 C 81.9 19.5, 97.6 91.0, 90.3 91.0 C 76.5 100.0, 85.9 28.5, 80.1 26.3 C 91.4 20.4, 26.6 93.2, 11.8 88.9 C 16.4 100.0, 34.3 56.0, 36.0 54.7 Z" fill="hsl(322, 74%, 44%)" fill-opacity="0.49" stroke="none" stroke-width="1.80" filter="url(#f1)" transform="translate(2.7 12.3) rotate(319.2) scale(1.84 1.36)" />
<path d="M 77.7 42.8 C 88.5 61.9, 52.7 7.6, 59.3 21.9 C 45.6 9.6, 3.3 21.1, 3.8 12.0 C 13.9 11.8, 99.7 100.0, 86.0 90.7 C 100.0 92.9, 76.1 26.3, 79.6 13.0 C 87.1 18.1, 61.6 32.2, 68.1 31.1 C 79.9 18.9, 28.4 48.1, 34.7 37.5 C 37.3 45.2, 35.3 32.5, 27.6 19.7 C 38.6 36.7, 37.5 75.7, 40.0 67.0 C 36.9 55.6, 0.0 63.7, 9.8 64.7 C 0.0 46.9, 65.1 10.0, 62.2 23.8 Z" fill="hsl(183, 71%, 60%)" fill-opacity="0.77" stroke="none" stroke-width="3.19" filter="url(#f1)" transform="translate(24.5 79.0) rotate(71.6) scale(0.69 1.64)" />
<circle cx="81.2" cy="80.4" r="5.9" fill="hsl(183, 71%, 60%)" fill-opacity="0.65"  transform="translate(29.8 63.2) rotate(19.0) scale(1.52 1.63)" />
<path d="M 94.4 91.6 C 87.3 84.3, 69.9 17.8, 80.7 21.6 C 82.9 39.9, 100.0 71.2, 95.2 65.5 C 100.0 74.3, 68.0 19.5, 66.7 16.0 C 54.7 25.3, 0.0 77.6, 5.8 79.3 C 20.6 77.5, 29.5 69.1, 30.2 79.7 C 11.0 74.6, 69.8 42.6, 57.1 44.5 Z" fill="none" fill-opacity="0.52" stroke="hsl(40, 53%, 69%)" stroke-width="1.97"  transform="translate(70.6 71.7) rotate(206.3) scale(0.98 1.19)" />
<rect x="4.6" y="36.5" width="31.6" height="18.5" rx="0" fill="none" fill-opacity="0.26"   transform="translate(91.9 99.1) rotate(319.7) scale(1.72 0.52)" />
<rect x="6.7" y="50.3" width="45.5" height="11.4" rx="0" fill="none" fill-opacity="0.21"   transform="translate(47.5 71.6) rotate(133.7) scale(1.13 0.94)" />
<circle cx="46.4" cy="65.2" r="6.7" fill="url(#g2)" fill-opacity="0.60" filter="url(#f1)" transform="translate(77.2 38.3) rotate(262.1) scale(1.53 0.94)" />
<rect x="25.7" y="36.5" width="42.8" height="13.1" rx="0" fill="hsl(322, 74%, 44%)" fill-opacity="0.84" stroke="hsl(106, 75%, 59%)" stroke-width="4.7"  transform="translate(91.7 88.6) rotate(141.8) scale(0.96 1.12)" />
<path d="M 78.4 89.8 C 94.5 90.3, 28.8 100.0, 31.2 95.0 C 32.6 100.0, 18.7 31.1, 14.7 21.2 C 9.0 28.1, 27.2 19.3, 26.4 12.3 C 42.0 7.6, 60.7 20.2, 68.2 9.9 C 50.0 4.4, 36.2 72.8, 32.7 66.7 C 18.2 79.9, 49.9 89.4, 50.3 85.4 C 34.6 66.3, 29.2 90.3, 16.2 79.3 Z" fill="hsl(144, 86%, 72%)" fill-opacity="0.37" stroke="none" stroke-width="4.38"  transform="translate(47.4 73.0) rotate(37.4) scale(0.81 0.95)" />
<rect x="63.3" y="58.1" width="20.5" height="19.4" rx="2.7" fill="hsl(40, 53%, 69%)" fill-opacity="0.94" stroke="hsl(40, 53%, 69%)" stroke-width="1.1"  transform="translate(21.2 26.1) rotate(352.3) scale(0.57 0.96)" />
<path d="M 24.7 11.3 C 42.8 27.8, 14.8 43.5, 21.9 30.7 C 10.8 40.5, 17.6 10.8, 24.3 10.4 C 42.3 24.9, 34.3 39.0, 41.2 35.7 C 36.4 49.1, 10.7 82.9, 9.3 78.0 C 0.0 83.2, 39.1 53.6, 35.3 49.0 C 33.7 60.2, 63.0 27.4, 55.0 15.7 Z" fill="hsl(151, 70%, 62%)" fill-opacity="0.63" stroke="none" stroke-width="3.74"  transform="translate(63.1 31.3) rotate(171.9) scale(0.86 1.51)" />
<circle cx="53.7" cy="34.6" r="0.5" fill="hsl(2, 82%, 55%)" fill-opacity="0.75"   />
<path d="M 58.6 86.8 C 52.7 81.2, 67.8 62.0, 66.3 49.0 C 49.1 30.2, 0.0 0.0, 5.3 2.7 C 0.0 0.0, 91.3 32.1, 95.8 24.3 C 100.0 21.6, 38.0 27.0, 45.7 20.8 C 28.4 38.6, 86.7 68.4, 73.6 68.0 C 57.9 50.7, 54.5 62.3, 51.1 71.6 C 58.2 59.5, 33.2 41.6, 34.2 31.8 C 32.8 49.8, 78.1 100.0, 71.2 99.8 C 60.4 93.1, 86.9 51.1, 75.3 52.9 C 79.8 40.5, 66.6 48.8, 70.8 35.4 Z" fill="hsl(290, 83%, 63%)" fill-opacity="0.48" stroke="none" stroke-width="2.08"  transform="translate(81.0 52.0) rotate(116.5) scale(0.91 1.08)" />
<circle cx="41.6" cy="2.9" r="10.7" fill="hsl(86, 72%, 68%)" fill-opacity="0.82"  transform="translate(18.1 7.4) rotate(0.4) scale(1.92 1.47)" />
<path d="M 55.7 34.0 C 57.1 23.3, 68.4 0.0, 66.5 4.4 C 47.2 9.4, 0.0 48.9, 3.3 47.3 C 0.0 31.1, 49.1 28.3, 44.3 14.7 C 44.6 33.0, 0.0 53.6, 0.1 60.0 C 0.0 48.0, 58.3 6.3, 64.1 7.6 C 45.0 10.3, 34.4 0.0, 32.0 5.5 C 48.3 0.0, 39.3 81.3, 42.8 78.4 C 55.4 92.2, 4.7 17.4, 10.2 31.4 C 9.9 19.7, 19.4 55.9, 15.9 62.9 C 23.8 81.7, 90.8 19.3, 90.8 7.0 " fill="hsl(104, 72%, 65%)" fill-opacity="0.41" stroke="none" stroke-width="1.62"  transform="translate(77.8 58.7) rotate(177.6) scale(1.24 1.77)" />
<rect x="50.5" y="13.1" width="44.0" height="22.2" rx="2.7" fill="hsl(106, 75%, 59%)" fill-opacity="0.28"   transform="translate(82.2 77.6) rotate(32.0) scale(1.35 0.52)" />
<path d="M 99.6 29.6 C 100.0 14.6, 47.4 64.2, 44.8 65.1 C 50.2 71.3, 80.1 62.7, 77.4 60.1 C 93.8 57.8, 43.7 45.8, 47.1 60.7 C 51.1 60.4, 58.6 59.6, 53.5 63.2 C 50.7 69.1, 46.6 79.1, 32.3 89.1 C 36.4 87.3, 73.0 62.1, 80.5 75.9 C 94.1 90.3, 87.2 14.7, 79.9 28.5 C 87.0 37.7, 63.2 44.2, 50.1 45.0 Z" fill="none" fill-opacity="0.87" stroke="hsl(183, 71%, 60%)" stroke-width="2.56"  transform="translate(9.6 42.4) rotate(65.3) scale(0.55 1.26)" />
<rect x="36.5" y="15.6" width="29.1" height="16.4" rx="0" fill="none" fill-opacity="0.60"   transform="translate(10.5 38.6) rotate(127.6) scale(1.56 1.75)" />
<path d="M 82.2 81.1 C 74.0 61.9, 48.0 20.1, 38.2 22.9 C 21.9 14.8, 60.2 7.8, 57.4 11.7 C 57.4 31.4, 77.6 100.0, 77.7 97.4 C 67.5 100.0, 50.3 41.5, 44.4 33.7 C 47.5 34.1, 40.1 70.2, 43.5 83.0 C 34.4 99.2, 4.5 15.9, 8.2 4.9 C 0.0 10.8, 72.8 79.5, 64.1 92.3 C 58.8 79.6, 58.8 25.8, 52.2 21.9 C 57.1 8.6, 43.6 77.1, 56.3 68.1 C 53.8 84.8, 88.8 73.4, 74.1 67.6 Z" fill="hsl(290, 83%, 63%)" fill-opacity="0.90" stroke="none" stroke-width="2.18"   />
<path d="M 22.1 3.8 C 4.4 8.2, 54.4 15.1, 41.9 8.5 C 24.1 0.0, 86.7 35.2, 81.6 24.5 C 74.1 13.2, 86.6 28.2, 73.2 38.4 C 57.5 28.1, 6.7 43.6, 2.8 42.5 C 1.1 31.4, 23.8 73.7, 38.1 78.3 C 51.5 79.4, 34.5 31.1, 28.2 37.6 C 21.5 37.3, 76.5 65.0, 85.3 66.4 C 90.0 80.0, 39.5 89.9, 33.3 84.7 C 38.3 86.8, 47.2 7.7, 40.3 0.2 " fill="none" fill-opacity="0.78" stroke="hsl(106, 75%, 59%)" stroke-width="2.77" filter="url(#f1)" transform="translate(95.6 48.5) rotate(96.1) scale(0.69 0.67)" />
<circle cx="69.8" cy="25.6" r="16.8" fill="url(#g1)" fill-opacity="0.79" filter="url(#f1)" transform="translate(97.3 94.4) rotate(220.0) scale(0.86 0.76)" />
<path d="M 63.2 10.1 C 68.2 19.6, 53.2 63.2, 58.5 77.8 C 61.3 67.7, 90.6 68.7, 87.5 79.6 C 97.1 66.8, 93.9 63.3, 84.1 49.2 C 87.3 48.5, 16.7 40.7, 13.2 55.5 C 4.0 41.1, 22.8 55.4, 18.2 54.6 C 0.0 47.1, 42.0 36.1, 37.5 47.5 C 26.0 53.0, 66.1 93.4, 65.6 86.5 Z" fill="hsl(86, 72%, 68%)" fill-opacity="0.63" stroke="none" stroke-width="2.87"  transform="translate(53.4 65.0) rotate(158.8) scale(0.77 0.62)" />
<rect x="26.5" y="12.6" width="37.7" height="20.1" rx="0" fill="hsl(322, 74%, 44%)" fill-opacity="0.36"  filter="url(#f1)" transform="translate(60.9 42.1) rotate(230.5) scale(0.63 1.12)" />
<circle cx="12.4" cy="61.2" r="4.6" fill="hsl(290, 83%, 63%)" fill-opacity="0.70"  transform="translate(17.2 1.5) rotate(284.5) scale(1.82 0.65)" />
<path d="M 65.5 36.6 C 47.1 24.7, 83.1 37.9, 74.6 35.6 C 86.7 21.1, 100.0 66.3, 96.7 61.9 C 82.0 63.2, 11.3 13.4, 20.4 21.6 C 33.7 37.9, 42.5 52.0, 44.6 37.7 C 44.5 40.1, 91.3 67.1, 87.9 72.7 C 67.9 86.0, 73.4 53.6, 69.9 67.2 C 79.7 81.7, 73.0 50.8, 59.4 43.0 Z" fill="none" fill-opacity="0.59" stroke="hsl(242, 72%, 49%)" stroke-width="4.82"  transform="translate(24.6 28.6) rotate(54.1) scale(1.88 1.65)" />
<path d="M 63.0 26.8 C 48.6 22.6, 0.0 8.1, 1.2 18.6 C 6.8 23.9, 21.6 28.2, 16.5 20.0 C 11.5 14.4, 33.2 45.6, 38.9 50.1 C 33.0 39.2, 0.0 36.1, 0.6 37.1 C 8.8 46.9, 45.4 62.2, 42.2 61.1 C 35.9 78.6, 44.2 21.0, 34.5 18.1 Z" fill="none" fill-opacity="0.74" stroke="hsl(290, 83%, 63%)" stroke-width="4.97"  transform="translate(35.8 69.2) rotate(248.1) scale(1.97 0.96)" />
<rect x="73.6" y="62.0" width="20.8" height="10.6" rx="0" fill="hsl(144, 86%, 72%)" fill-opacity="0.48" stroke="hsl(151, 70%, 62%)" stroke-width="1.5" filter="url(#f1)" transform="translate(40.6 37.8) rotate(236.3) scale(1.59 1.31)" />
<path d="M 42.6 51.4 C 33.3 40.0, 73.2 72.1, 66.5 59.1 C 79.4 53.2, 15.5 51.1, 5.6 57.2 C 12.1 76.1, 50.7 57.2, 50.7 49.2 C 68.0 47.4, 51.9 21.6, 49.5 10.4 C 33.3 8.5, 13.5 91.2, 1.1 86.6 C 5.9 97.4, 7.2 23.7, 13.0 24.2 C 8.6 14.1, 99.6 88.7, 91.0 79.5 Z" fill="none" fill-opacity="0.47" stroke="hsl(86, 72%, 68%)" stroke-width="5.02" filter="url(#f1)"  />
<path d="M 60.8 12.6 C 57.7 4.0, 81.8 44.1, 92.5 40.4 C 100.0 38.1, 89.2 67.6, 96.0 76.6 C 100.0 77.0, 42.0 24.5, 46.2 23.2 C 32.2 26.2, 47.5 47.1, 32.6 59.4 C 43.0 45.8, 72.8 73.4, 63.7 70.2 C 67.6 76.0, 10.4 86.8, 15.3 86.2 C 26.7 81.5, 33.4 34.0, 27.3 46.1 C 7.4 51.5, 65.0 99.6, 54.2 97.2 C 56.3 100.0, 28.4 15.9, 34.0 25.3 C 48.4 25.6, 48.9 21.6, 42.2 13.8 Z" fill="hsl(40, 53%, 69%)" fill-opacity="0.80" stroke="none" stroke-width="3.85"  transform="translate(49.2 91.5) rotate(122.6) scale(1.14 0.89)" />
<path d="M 65.5 78.6 C 63.7 95.6, 62.1 75.8, 65.4 63.7 C 70.2 76.7, 90.2 19.1, 96.5 22.6 C 100.0 14.3, 35.9 85.7, 50.3 71.5 C 65.4 82.3, 50.1 17.1, 64.3 15.5 C 58.4 2.4, 9.9 45.4, 23.1 42.4 C 31.8 29.4, 76.6 53.6, 67.7 56.7 Z" fill="hsl(83, 65%, 44%)" fill-opacity="0.33" stroke="none" stroke-width="2.72"  transform="translate(44.5 64.6) rotate(184.2) scale(1.01 1.45)" />
<circle cx="81.8" cy="30.8" r="4.7" fill="url(#g1)" fill-opacity="0.77" filter="url(#f1)"  />
<circle cx="99.9" cy="87.5" r="5.9" fill="url(#g2)" fill-opacity="0.67"  transform="translate(30.7 96.5) rotate(51.4) scale(0.85 1.38)" />
<path d="M 54.2 7.2 C 71.4 0.0, 26.6 83.2, 21.0 70.5 C 6.9 57.4, 11.0 17.8, 12.0 19.9 C 0.0 8.7, 5.6 58.1, 15.5 60.6 C 30.6 54.7, 77.3 15.4, 90.3 22.4 C 76.6 24.2, 8.8 51.5, 18.6 59.4 C 0.0 46.0, 35.4 55.5, 48.0 41.6 C 67.6 38.8, 50.2 48.3, 57.9 58.8 C 66.7 54.9, 23.3 63.2, 27.5 59.9 Z" fill="hsl(40, 53%, 69%)" fill-opacity="0.31" stroke="none" stroke-width="3.05"  transform="translate(51.4 79.9) rotate(112.0) scale(1.66 1.56)" />
<path d="M 38.5 50.8 C 19.4 48.9, 84.4 20.9, 81.6 6.4 C 75.0 7.1, 40.8 63.0, 41.3 49.6 C 55.1 56.4, 71.7 83.5, 82.0 91.0 C 71.0 98.6, 23.7 21.4, 34.7 10.1 C 53.7 26.5, 30.4 78.5, 36.8 82.5 C 42.9 99.5, 19.0 77.1, 23.6 91.8 C 21.1 82.6, 44.3 12.7, 29.4 16.3 C 14.6 0.0, 92.4 81.4, 88.8 84.6 C 85.1 87.4, 87.5 86.8, 83.9 86.9 Z" fill="none" fill-opacity="0.30" stroke="hsl(183, 71%, 60%)" stroke-width="0.94"  transform="translate(89.9 28.9) rotate(207.8) scale(1.64 1.43)" />
<path d="M 66.4 39.9 C 75.3 52.5, 59.5 70.7, 52.0 82.4 C 36.6 93.5, 45.0 82.9, 41.3 95.2 C 60.3 89.4, 100.0 32.5, 92.5 23.4 C 100.0 17.6, 39.9 43.2, 45.2 55.9 C 59.0 39.0, 0.0 72.6, 6.0 83.8 C 0.0 82.6, 3.5 74.1, 16.9 82.1 C 24.7 79.3, 75.9 10.9, 76.4 17.5 C 65.2 29.7, 77.8 35.1, 75.4 38.2 C 77.7 46.7, 82.7 9.3, 93.3 5.4 C 74.9 0.4, 2.4 0.0, 2.0 4.4 Z" fill="hsl(104, 72%, 65%)" fill-opacity="0.76" stroke="none" stroke-width="4.83"  transform="translate(18.7 50.3) rotate(154.8) scale(0.80 0.79)" />
<rect x="50.3" y="0.6" width="26.8" height="19.8" rx="0" fill="none" fill-opacity="0.36" stroke="hsl(144, 86%, 72%)" stroke-width="2.6"  transform="translate(54.4 60.3) rotate(229.3) scale(1.16 1.79)" />
<path d="M 49.9 32.3 C 55.8 33.8, 60.5 75.3, 61.1 72.1 C 49.4 52.4, 87.5 100.0, 82.3 94.5 C 97.9 84.7, 34.0 48.0, 19.8 55.4 C 14.2 56.7, 54.5 0.0, 61.0 10.8 C 46.9 0.0, 63.0 18.0, 60.5 25.2 C 76.3 25.4, 18.2 92.1, 8.2 78.5 C 0.0 83.1, 67.5 35.7, 73.8 27.5 C 67.0 35.9, 26.0 57.6, 29.0 45.4 C 12.1 25.5, 39.6 0.0, 36.3 3.0 C 54.2 5.0, 98.4 96.4, 87.0 97.8 Z" fill="hsl(144, 86%, 72%)" fill-opacity="0.46" stroke="none" stroke-width="4.90"  transform="translate(81.7 20.2) rotate(176.0) scale(1.68 1.00)" />
<path d="M 9.5 69.3 C 0.0 54.4, 9.5 74.8, 19.5 76.7 C 0.0 68.5, 39.3 43.3, 47.3 48.6 C 48.2 66.8, 59.7 25.5, 45.3 18.5 C 58.7 14.9, 34.1 27.3, 23.9 21.8 C 7.3 38.5, 37.7 73.1, 30.5 78.1 C 43.5 72.4, 87.2 69.7, 92.5 58.8 C 89.3 73.2, 18.5 62.7, 21.2 74.5 C 36.3 70.1, 0.5 30.9, 14.8 40.9 Z" fill="hsl(106, 75%, 59%)" fill-opacity="0.36" stroke="none" stroke-width="2.19"  transform="translate(25.8 29.0) rotate(78.6) scale(0.82 1.29)" />
<rect x="13.4" y="22.7" width="26.5" height="32.9" rx="0" fill="none" fill-opacity="0.63"  filter="url(#f1)" transform="translate(78.8 27.3) rotate(201.9) scale(1.55 1.02)" />
<rect x="45.1" y="11.1" width="33.6" height="14.4" rx="15.6" fill="hsl(106, 75%, 59%)" fill-opacity="0.98"   transform="translate(38.3 30.6) rotate(204.9) scale(1.28 0.74)" />
<circle cx="67.0" cy="80.1" r="1.4" fill="hsl(242, 72%, 49%)" fill-opacity="0.53"  transform="translate(86.3 44.4) rotate(260.6) scale(0.76 0.64)" />
<rect x="43.6" y="49.7" width="35.4" height="11.2" rx="0" fill="hsl(104, 72%, 65%)" fill-opacity="0.59"   transform="translate(73.9 74.6) rotate(358.1) scale(1.29 0.96)" />
<path d="M 29.6 36.9 C 49.2 36.5, 3.7 89.4, 9.4 83.5 C 0.0 91.6, 25.7 2.7, 20.0 14.4 C 23.5 23.1, 29.0 75.5, 21.9 68.7 C 14.5 86.4, 78.0 38.8, 69.7 34.7 C 61.5 28.6, 0.0 45.7, 2.0 56.8 C 0.0 53.8, 69.8 22.4, 67.6 10.0 " fill="hsl(2, 82%, 55%)" fill-opacity="0.83" stroke="none" stroke-width="3.06"  transform="translate(14.2 52.7) rotate(332.6) scale(1.49 1.19)" />
<path d="M 79.3 55.3 C 79.5 53.6, 45.8 87.8, 33.6 74.8 C 48.8 72.0, 85.4 0.0, 94.7 5.4 C 100.0 23.8, 38.8 84.5, 47.0 84.7 C 31.0 94.1, 42.7 23.5, 28.0 11.5 C 32.7 0.0, 22.2 1.2, 36.9 8.5 C 46.2 0.0, 32.4 19.0, 35.4 26.2 C 33.3 25.5, 71.4 61.7, 79.3 63.8 Z" fill="hsl(83, 65%, 44%)" fill-opacity="0.45" stroke="none" stroke-width="4.73"  transform="translate(99.4 77.9) rotate(317.2) scale(1.48 0.73)" />
<path d="M 83.5 29.4 C 86.2 12.5, 81.8 0.0, 76.8 1.1 C 77.3 0.1, 62.2 79.7, 76.7 74.8 C 94.2 88.6, 53.8 55.7, 57.3 54.7 C 44.5 41.2, 35.1 23.2, 27.9 25.3 C 43.3 6.7, 0.4 12.3, 3.6 1.3 C 13.8 12.5, 8.3 0.0, 22.8 4.9 C 4.2 1.6, 70.2 2.8, 60.9 16.8 C 65.3 20.1, 17.2 16.3, 3.7 4.7 C 12.7 1.6, 30.7 63.8, 30.7 53.0 C 23.0 36.8, 40.1 37.9, 28.8 52.3 Z" fill="none" fill-opacity="0.37" stroke="hsl(104, 72%, 65%)" stroke-width="2.38"  transform="translate(6.3 72.9) rotate(137.4) scale(0.58 0.77)" />
<path d="M 57.2 14.3 C 59.5 32.2, 83.2 94.9, 94.0 86.3 C 100.0 100.0, 86.4 38.9, 95.7 31.6 C 100.0 38.7, 62.6 14.0, 56.3 9.7 C 57.4 0.0, 76.1 79.8, 64.6 73.2 C 59.6 63.2, 53.1 0.0, 44.9 1.7 C 57.9 7.8, 70.2 0.2, 79.9 0.4 C 94.8 0.0, 90.7 84.3, 87.3 71.1 C 76.5 78.5, 54.4 26.9, 40.8 41.0 C 37.5 37.9, 36.1 61.0, 37.3 67.9 C 31.6 78.4, 86.0 76.6, 95.9 90.9 Z" fill="hsl(242, 72%, 49%)" fill-opacity="0.50" stroke="none" stroke-width="3.22"  transform="translate(48.3 49.4) rotate(246.4) scale(0.71 1.72)" />
<path d="M 59.1 67.4 C 72.7 68.7, 41.6 63.4, 35.5 50.3 C 48.2 42.7, 39.4 71.6, 45.5 74.3 C 39.4 67.8, 90.8 33.5, 83.3 27.1 C 85.1 42.7, 31.6 57.5, 45.6 55.1 C 61.8 55.0, 29.9 0.0, 21.4 0.3 C 12.7 0.0, 29.4 100.0, 15.8 95.6 C 0.0 97.8, 39.3 8.4, 48.9 14.8 Z" fill="hsl(104, 72%, 65%)" fill-opacity="0.97" stroke="none" stroke-width="3.73"  transform="translate(72.5 94.5) rotate(260.4) scale(1.91 0.89)" />
<circle cx="27.2" cy="16.7" r="6.8" fill="hsl(83, 65%, 44%)" fill-opacity="0.84"  transform="translate(20.5 73.0) rotate(51.0) scale(0.83 0.73)" />
<path d="M 32.1 42.0 C 16.5 22.7, 28.7 74.6, 33.6 79.6 C 21.2 85.6, 13.3 14.0, 4.8 7.3 C 0.0 0.0, 98.6 98.5, 93.0 91.2 C 100.0 95.6, 28.4 47.2, 24.1 40.5 C 43.7 51.7, 5.0 0.0, 7.9 9.2 C 0.0 28.8, 2.1 45.4, 0.6 32.0 C 7.8 41.6, 44.0 92.3, 49.1 79.6 C 48.2 88.2, 25.7 26.6, 28.7 12.4 Z" fill="none" fill-opacity="0.68" stroke="hsl(2, 82%, 55%)" stroke-width="3.74"  transform="translate(81.9 12.0) rotate(189.2) scale(1.10 0.77)" />
<path d="M 97.1 86.5 C 95.7 100.0, 56.8 29.3, 57.6 16.2 C 38.0 24.1, 60.8 39.9, 64.5 27.6 C 67.6 35.8, 46.4 18.1, 44.0 9.5 C 41.9 16.6, 53.5 28.5, 40.6 43.4 C 32.1 52.7, 13.6 66.8, 21.3 77.0 C 22.8 78.2, 62.3 73.5, 70.9 62.2 C 87.6 80.5, 58.7 52.1, 44.0 41.3 C 62.1 52.3, 33.7 23.0, 47.7 27.2 C 39.0 10.2, 85.7 74.1, 80.2 69.3 Z" fill="none" fill-opacity="0.96" stroke="hsl(83, 65%, 44%)" stroke-width="1.33"  transform="translate(2.5 62.8) rotate(214.4) scale(1.47 1.18)" />
<path d="M 22.0 1.8 C 27.0 13.3, 16.4 19.6, 27.4 17.1 C 40.8 33.5, 10.3 91.5, 15.9 94.2 C 0.0 100.0, 49.8 72.5, 59.2 81.7 C 42.1 92.4, 79.5 1.6, 78.3 8.2 C 97.9 4.1, 0.0 65.0, 4.4 56.9 C 0.0 44.3, 67.3 9.7, 78.3 19.5 C 65.4 19.7, 47.9 55.3, 44.0 48.6 C 48.4 62.3, 44.2 85.2, 52.1 78.1 C 62.6 75.1, 27.5 59.1, 33.0 49.8 Z" fill="none" fill-opacity="0.79" stroke="hsl(322, 74%, 44%)" stroke-width="2.15"   />
<rect x="33.4" y="59.2" width="27.1" height="11.8" rx="1.8" fill="hsl(151, 70%, 62%)" fill-opacity="0.68"   transform="translate(79.7 88.7) rotate(217.8) scale(0.93 0.78)" />
<rect x="5.6" y="88.4" width="32.9" height="10.6" rx="14.7" fill="none" fill-opacity="0.41"   transform="translate(82.9 27.4) rotate(103.1) scale(1.02 1.68)" />
<path d="M 28.4 37.8 C 24.0 19.4, 10.1 30.0, 15.7 34.6 C 10.7 45.3, 64.8 46.2, 66.8 49.1 C 78.8 55.5, 27.0 84.8, 35.7 89.5 C 42.3 92.3, 63.9 70.2, 64.3 81.3 C 74.7 93.6, 38.5 19.6, 51.4 33.0 C 52.1 44.8, 51.1 48.1, 58.8 43.6 Z" fill="hsl(2, 82%, 55%)" fill-opacity="0.81" stroke="none" stroke-width="4.62"  transform="translate(33.5 70.6) rotate(39.0) scale(0.53 1.87)" />
<path d="M 0.4 26.1 C 13.5 26.2, 63.4 40.5, 50.2 43.7 C 40.0 38.5, 29.2 63.3, 35.3 62.3 C 48.5 58.6, 5.3 16.8, 4.4 3.7 C 22.6 9.4, 24.0 1.5, 30.4 0.3 C 36.0 5.1, 4.8 33.6, 5.1 30.4 C 2.7 37.0, 46.2 100.0, 35.5 97.1 C 25.6 85.2, 38.7 4.1, 51.9 13.2 C 61.0 30.3, 85.1 80.4, 91.5 83.3 Z" fill="none" fill-opacity="0.76" stroke="hsl(40, 53%, 69%)" stroke-width="4.16"   />
<circle cx="70.1" cy="3.0" r="11.8" fill="url(#g2)" fill-opacity="0.96"  transform="translate(38.2 36.6) rotate(79.3) scale(1.73 1.69)" />
<path d="M 15.6 89.8 C 6.1 83.4, 42.3 0.0, 51.8 0.4 C 51.3 9.1, 59.9 18.1, 50.9 22.6 C 51.1 4.8, 29.7 16.8, 35.4 25.0 C 26.7 38.8, 70.5 16.4, 78.7 20.7 C 92.4 13.0, 0.0 14.5, 13.2 1.2 C 0.0 0.0, 50.4 100.0, 50.1 99.2 C 54.8 99.2, 28.9 97.1, 25.9 99.6 C 32.3 100.0, 82.3 75.6, 76.7 61.8 C 88.5 59.8, 16.4 77.2, 19.8 68.4 Z" fill="hsl(144, 86%, 72%)" fill-opacity="0.59" stroke="none" stroke-width="2.94" filter="url(#f1)" transform="translate(67.6 82.1) rotate(25.9) scale(1.05 1.50)" />
<rect x="43.8" y="45.3" width="40.9" height="37.8" rx="0" fill="none" fill-opacity="0.64"   transform="translate(64.4 82.3) rotate(150.1) scale(1.38 0.97)" />
<rect x="53.9" y="27.1" width="43.0" height="32.5" rx="0" fill="hsl(290, 83%, 63%)" fill-opacity="0.38" stroke="hsl(86, 72%, 68%)" stroke-width="3.2"  transform="translate(96.1 87.2) rotate(182.2) scale(0.80 1.90)" />
<circle cx="54.8" cy="69.7" r="12.5" fill="hsl(106, 75%, 59%)" fill-opacity="0.72"   />
<path d="M 15.8 39.1 C 4.7 20.0, 91.1 96.0, 99.3 99.8 C 99.0 100.0, 83.3 100.0, 80.9 97.9 C 89.6 100.0, 18.9 21.5, 33.9 18.0 C 35.8 17.5, 71.4 50.6, 78.7 52.9 C 83.8 42.9, 51.2 0.0, 44.1 6.3 C 62.2 14.1, 33.5 65.0, 47.4 68.2 Z" fill="hsl(86, 72%, 68%)" fill-opacity="0.60" stroke="none" stroke-width="2.49"  transform="translate(82.9 14.6) rotate(88.3) scale(1.86 1.41)" />
<circle cx="25.4" cy="65.5" r="9.1" fill="url(#g2)" fill-opacity="0.76"  transform="translate(98.8 54.5) rotate(158.8) scale(1.31 1.68)" />
<circle cx="61.5" cy="88.5" r="0.5" fill="hsl(322, 74%, 44%)" fill-opacity="0.78"  transform="translate(61.7 26.2) rotate(60.2) scale(1.50 1.64)" />
<rect x="32.5" y="37.8" width="35.0" height="13.7" rx="0" fill="hsl(86, 72%, 68%)" fill-opacity="0.74" stroke="hsl(86, 72%, 68%)" stroke-width="3.2" filter="url(#f1)"  />
<circle cx="73.2" cy="97.1" r="17.1" fill="url(#g0)" fill-opacity="0.62"  transform="translate(5.9 87.7) rotate(281.5) scale(1.76 0.59)" />
<rect x="24.9" y="38.0" width="48.4" height="35.7" rx="10.1" fill="none" fill-opacity="0.59"   transform="translate(7.4 20.6) rotate(60.9) scale(1.25 1.79)" />
<path d="M 27.3 22.5 C 35.8 6.1, 81.0 81.8, 70.6 75.7 C 69.7 72.0, 14.0 97.0, 20.1 92.6 C 19.1 100.0, 100.0 21.4, 99.3 35.8 C 100.0 47.9, 70.7 50.5, 68.4 48.1 C 63.3 66.1, 55.6 12.1, 44.3 13.1 C 57.4 3.7, 9.2 0.0, 17.7 0.1 C 0.6 0.0, 32.6 96.2, 47.0 95.4 Z" fill="hsl(290, 83%, 63%)" fill-opacity="0.29" stroke="none" stroke-width="1.53"  transform="translate(26.2 40.2) rotate(81.1) scale(0.97 1.17)" />
<circle cx="74.4" cy="35.9" r="5.8" fill="hsl(106, 75%, 59%)" fill-opacity="0.77"  transform="translate(7.5 70.2) rotate(4.3) scale(0.66 0.61)" />
<path d="M 77.0 15.7 C 96.6 10.1, 66.6 4.0, 60.6 15.3 C 57.9 6.2, 32.0 91.8, 40.2 93.3 C 33.5 82.7, 38.1 36.7, 29.3 37.3 C 30.1 36.5, 100.0 6.2, 91.6 4.4 C 74.5 13.2, 54.5 55.1, 66.6 44.1 C 47.1 28.0, 82.6 56.5, 82.5 49.8 C 78.9 53.4, 50.9 12.3, 59.0 27.0 " fill="none" fill-opacity="0.36" stroke="hsl(242, 72%, 49%)" stroke-width="1.86"  transform="translate(51.4 27.9) rotate(251.5) scale(1.58 1.90)" />
<path d="M 8.7 2.9 C 11.4 8.4, 16.0 61.1, 14.2 73.4 C 5.6 76.2, 48.2 29.0, 37.6 20.6 C 37.6 6.5, 57.6 55.7, 70.9 62.7 C 72.2 72.0, 12.7 92.2, 12.5 97.5 C 2.5 100.0, 70.3 92.0, 58.7 90.4 C 52.8 70.9, 23.8 28.7, 20.8 24.8 C 39.8 44.2, 19.5 48.7, 30.9 36.3 C 18.6 25.5, 31.2 32.8, 35.9 23.4 C 24.4 41.8, 100.0 37.0, 96.6 38.2 C 92.1 50.3, 72.3 46.7, 69.7 42.5 Z" fill="hsl(83, 65%, 44%)" fill-opacity="0.33" stroke="none" stroke-width="4.62"  transform="translate(17.5 80.3) rotate(308.1) scale(1.02 1.60)" />
<path d="M 13.2 97.7 C 17.8 79.7, 45.8 79.9, 58.9 77.0 C 62.6 67.5, 99.4 70.4, 99.1 59.2 C 92.9 70.8, 42.1 14.2, 47.3 0.6 C 60.4 0.0, 42.8 100.0, 50.1 97.0 C 63.6 83.9, 71.4 51.8, 62.5 60.3 C 43.7 41.9, 57.5 5.6, 43.9 8.3 Z" fill="none" fill-opacity="0.62" stroke="hsl(106, 75%, 59%)" stroke-width="1.47"  transform="translate(23.8 74.3) rotate(122.9) scale(0.81 1.13)" />
<circle cx="39.0" cy="70.6" r="9.6" fill="url(#g2)" fill-opacity="0.71"   />
<path d="M 58.2 70.1 C 74.8 66.7, 66.1 87.5, 54.2 93.0 C 72.5 100.0, 57.3 52.0, 67.1 45.3 C 50.7 60.8, 33.3 96.8, 36.5 88.0 C 21.0 100.0, 70.8 67.3, 75.0 64.6 C 91.9 56.5, 55.9 15.0, 62.5 20.8 C 69.9 36.1, 49.9 38.8, 48.4 38.5 C 53.5 23.0, 89.1 22.1, 83.7 30.9 C 65.6 18.8, 54.4 81.8, 51.3 74.7 C 70.6 87.3, 0.0 44.8, 2.3 48.3 C 0.0 67.4, 13.2 46.1, 6.3 43.7 Z" fill="none" fill-opacity="0.95" stroke="hsl(83, 65%, 44%)" stroke-width="2.56"  transform="translate(18.5 70.4) rotate(323.2) scale(1.04 0.52)" />
<rect x="24.7" y="16.7" width="41.1" height="33.4" rx="0.3" fill="hsl(40, 53%, 69%)" fill-opacity="0.72"   transform="translate(38.1 84.8) rotate(34.9) scale(1.35 0.82)" />
<path d="M 44.6 68.1 C 46.0 80.1, 100.0 0.3, 85.0 13.0 C 76.0 7.2, 57.8 91.0, 60.7 89.0 C 71.3 87.4, 42.0 0.2, 47.5 7.9 C 28.8 12.6, 82.6 100.0, 87.6 97.2 C 71.7 99.7, 80.0 45.2, 88.5 36.3 C 80.1 48.4, 97.0 34.9, 89.3 41.6 C 86.3 34.7, 76.1 82.2, 90.5 74.0 C 91.1 72.1, 83.7 36.1, 76.8 34.9 C 62.2 42.7, 82.0 61.0, 82.9 70.6 Z" fill="hsl(104, 72%, 65%)" fill-opacity="0.79" stroke="none" stroke-width="1.30"  transform="translate(57.4 60.0) rotate(326.1) scale(0.95 1.16)" />
<path d="M 46.4 4.9 C 31.6 18.7, 63.8 100.0, 65.8 97.4 C 62.9 100.0, 72.2 85.2, 83.7 83.2 C 100.0 88.8, 43.7 52.1, 42.0 39.4 C 45.1 38.2, 73.7 9.1, 78.0 22.8 C 63.1 5.9, 68.9 26.4, 62.3 30.6 C 79.4 19.0, 27.9 31.9, 37.0 36.1 C 26.7 33.9, 1.4 99.3, 8.0 97.9 C 21.9 91.9, 90.0 57.4, 94.0 60.2 C 90.9 41.7, 32.4 98.1, 41.2 98.3 Z" fill="hsl(86, 72%, 68%)" fill-opacity="0.61" stroke="none" stroke-width="4.63"  transform="translate(92.8 13.4) rotate(311.5) scale(1.61 0.57)" />
<path d="M 93.0 9.6 C 92.7 20.8, 66.4 20.4, 55.2 14.3 C 40.3 0.0, 74.5 6.2, 69.1 15.8 C 72.4 0.2, 0.0 15.9, 0.2 14.4 C 12.2 8.0, 6.2 17.1, 14.4 6.9 C 15.4 12.9, 41.5 0.7, 55.6 5.4 C 59.7 20.5, 68.1 38.1, 78.8 45.0 Z" fill="none" fill-opacity="0.94" stroke="hsl(106, 75%, 59%)" stroke-width="5.04"   />
<path d="M 20.0 34.4 C 35.2 25.9, 0.0 32.1, 4.6 35.4 C 0.0 54.8, 16.4 0.0, 27.6 5.5 C 20.6 20.7, 69.4 12.2, 63.5 3.5 C 79.6 12.0, 75.1 100.0, 76.5 99.9 C 96.0 100.0, 57.2 23.6, 57.1 32.8 C 48.3 47.2, 66.4 80.8, 73.6 74.7 C 63.4 91.0, 66.6 100.0, 79.3 90.7 C 79.2 88.7, 21.3 91.7, 27.0 96.6 C 43.3 83.8, 60.6 74.0, 65.7 85.8 C 67.2 98.8, 38.3 6.0, 37.4 17.7 " fill="hsl(106, 75%, 59%)" fill-opacity="0.29" stroke="none" stroke-width="3.40"  transform="translate(33.5 75.4) rotate(245.6) scale(0.68 1.58)" />
<path d="M 83.8 18.4 C 94.3 7.7, 82.1 33.1, 76.0 46.1 C 92.2 33.8, 65.9 34.0, 60.3 37.5 C 71.6 49.4, 65.0 66.4, 77.4 78.4 C 74.3 77.7, 39.8 35.0, 39.2 20.4 C 53.2 7.2, 100.0 8.1, 97.5 15.5 C 100.0 9.7, 29.8 58.9, 25.1 49.7 Z" fill="hsl(242, 72%, 49%)" fill-opacity="0.32" stroke="none" stroke-width="2.05"  transform="translate(75.7 70.0) rotate(216.6) scale(0.73 1.53)" />
<rect x="30.8" y="17.4" width="24.9" height="39.7" rx="0" fill="hsl(2, 82%, 55%)" fill-opacity="0.60"  filter="url(#f1)"  />
<path d="M 50.7 6.4 C 51.1 0.0, 63.5 22.5, 51.3 24.6 C 63.2 23.2, 25.6 89.7, 16.4 95.7 C 23.5 100.0, 3.5 32.4, 6.9 47.3 C 14.9 40.7, 60.5 22.8, 64.9 32.1 C 79.8 28.6, 85.9 34.7, 96.8 26.7 C 100.0 35.2, 35.0 59.7, 42.9 51.6 C 29.1 63.8, 72.8 26.2, 74.5 11.8 C 65.7 0.0, 60.6 68.1, 64.5 69.1 C 69.6 67.2, 73.2 13.2, 58.5 23.6 C 41.3 20.4, 60.2 86.6, 57.1 83.8 Z" fill="hsl(86, 72%, 68%)" fill-opacity="0.30" stroke="none" stroke-width="5.03"  transform="translate(64.9 30.8) rotate(159.6) scale(1.75 1.58)" />
<path d="M 98.1 6.4 C 91.4 0.0, 91.9 10.7, 88.6 13.2 C 100.0 14.7, 0.0 62.1, 12.8 57.4 C 15.4 42.1, 82.5 99.5, 73.2 95.1 C 80.2 100.0, 12.2 36.2, 23.4 30.1 C 33.4 39.1, 71.4 5.8, 78.1 13.0 C 83.6 21.8, 25.3 33.6, 11.2 41.2 " fill="hsl(104, 72%, 65%)" fill-opacity="0.60" stroke="none" stroke-width="4.30"  transform="translate(53.1 30.1) rotate(218.0) scale(0.61 1.17)" />
<rect x="10.0" y="38.5" width="39.9" height="19.5" rx="0" fill="none" fill-opacity="0.40" stroke="hsl(104, 72%, 65%)" stroke-width="3.6"  transform="translate(51.7 27.5) rotate(27.5) scale(1.59 1.31)" />
<path d="M 37.9 43.1 C 52.8 33.9, 23.2 60.8, 30.8 56.6 C 22.5 45.0, 84.6 85.1, 72.6 74.7 C 90.4 88.0, 100.0 29.2, 91.7 22.6 C 88.6 6.6, 37.0 13.7, 31.6 12.7 C 38.5 7.9, 22.7 26.6, 30.3 16.8 C 28.1 26.3, 89.6 98.5, 98.0 91.7 C 87.2 100.0, 13.5 59.2, 16.7 58.8 C 23.1 47.1, 66.9 61.2, 61.1 67.7 C 68.3 54.3, 35.0 44.8, 43.9 45.6 C 52.3 28.2, 55.1 50.9, 44.0 41.4 Z" fill="hsl(290, 83%, 63%)" fill-opacity="0.75" stroke="none" stroke-width="1.69"  transform="translate(41.7 85.4) rotate(241.6) scale(1.83 0.65)" />
<path d="M 97.3 75.2 C 95.7 88.5, 25.9 51.3, 13.0 54.9 C 3.9 68.1, 39.7 0.0, 38.1 3.9 C 18.7 14.1, 37.2 29.8, 30.7 36.1 C 36.5 23.5, 50.1 87.0, 43.4 90.9 C 58.7 100.0, 73.8 75.5, 80.0 64.6 C 87.2 58.2, 25.6 14.3, 36.0 14.4 C 29.7 26.5, 72.7 0.0, 72.4 13.6 C 90.4 18.0, 100.0 62.7, 98.8 50.9 C 90.6 68.3, 76.0 93.6, 68.5 96.8 Z" fill="none" fill-opacity="0.77" stroke="hsl(322, 74%, 44%)" stroke-width="5.05"  transform="translate(86.7 6.7) rotate(53.3) scale(1.05 0.67)" />
<path d="M 12.5 83.7 C 15.1 69.1, 44.0 16.7, 38.1 30.9 C 38.9 19.9, 9.6 100.0, 6.4 99.7 C 0.0 95.5, 36.8 50.5, 46.4 47.2 C 50.8 49.6, 67.6 46.2, 68.3 53.6 C 73.9 49.1, 19.3 74.6, 21.4 72.9 C 41.4 77.8, 35.7 80.8, 21.3 81.4 C 11.7 96.7, 82.9 21.7, 89.1 35.1 C 100.0 49.0, 86.2 17.1, 86.6 23.7 Z" fill="none" fill-opacity="0.36" stroke="hsl(86, 72%, 68%)" stroke-width="4.24"   />
<rect x="27.4" y="33.8" width="45.2" height="30.7" rx="2.0" fill="hsl(86, 72%, 68%)" fill-opacity="0.40"   transform="translate(84.3 74.9) rotate(120.5) scale(0.56 0.92)" />
<rect x="20.7" y="76.5" width="33.5" height="14.7" rx="5.4" fill="hsl(144, 86%, 72%)" fill-opacity="0.32"   transform="translate(71.6 80.3) rotate(306.6) scale(0.74 1.46)" />
<path d="M 63.5 24.6 C 62.4 15.4, 79.8 57.0, 88.9 70.5 C 77.8 72.4, 10.8 13.6, 23.9 23.0 C 18.0 28.5, 79.7 48.7, 85.2 37.0 C 100.0 23.6, 37.8 76.5, 23.9 68.1 C 14.2 84.7, 29.5 5.2, 42.4 14.9 C 50.7 29.7, 86.6 27.1, 83.3 32.8 C 84.7 30.1, 0.0 32.2, 6.9 22.1 C 23.4 7.6, 50.8 46.8, 40.9 44.8 Z" fill="hsl(322, 74%, 44%)" fill-opacity="0.48" stroke="none" stroke-width="3.91" filter="url(#f1)"  />
<path d="M 44.3 18.4 C 42.8 18.0, 29.8 100.0, 18.1 94.5 C 27.2 92.1, 66.3 50.6, 63.7 57.8 C 58.3 40.0, 95.0 3.1, 80.1 15.3 C 89.9 0.0, 55.4 10.1, 41.6 6.4 C 28.4 0.0, 0.9 9.9, 5.4 7.8 C 8.4 0.0, 48.7 3.3, 51.3 15.3 C 42.3 31.8, 34.6 50.4, 41.9 56.5 Z" fill="hsl(144, 86%, 72%)" fill-opacity="0.89" stroke="none" stroke-width="4.55"  transform="translate(15.3 18.5) rotate(316.8) scale(0.82 1.40)" />
<path d="M 50.6 2.3 C 60.2 10.8, 78.5 18.0, 93.4 27.9 C 81.8 42.0, 72.9 14.5, 70.3 8.3 C 77.1 2.6, 84.4 81.5, 84.2 73.7 C 87.1 70.2, 85.2 97.1, 86.1 86.9 C 74.0 96.0, 82.0 43.9, 70.0 44.4 C 69.4 29.1, 46.7 9.8, 58.8 24.4 Z" fill="hsl(151, 70%, 62%)" fill-opacity="0.61" stroke="none" stroke-width="2.67"  transform="translate(60.5 5.9) rotate(306.8) scale(0.79 1.90)" />
<path d="M 48.7 77.6 C 52.6 70.3, 22.3 29.1, 7.8 38.3 C 25.1 46.3, 13.2 44.0, 24.8 37.0 C 14.0 43.3, 39.1 87.3, 29.5 84.2 C 11.1 96.5, 34.7 56.3, 21.5 67.4 C 8.7 68.0, 56.5 79.7, 64.9 77.5 C 74.1 96.6, 37.8 32.4, 44.4 43.2 C 50.1 29.0, 68.1 89.3, 53.5 80.4 C 70.8 66.8, 100.0 88.9, 90.3 74.4 C 94.2 72.2, 15.4 71.6, 25.2 62.4 Z" fill="none" fill-opacity="0.92" stroke="hsl(183, 71%, 60%)" stroke-width="2.91"  transform="translate(3.9 1.3) rotate(11.5) scale(0.61 1.55)" />
<path d="M 52.3 6.6 C 53.8 2.9, 63.8 66.9, 63.1 79.6 C 83.1 80.8, 76.2 55.8, 90.6 51.5 C 100.0 64.1, 41.7 48.9, 56.2 57.1 C 49.4 62.7, 14.5 83.7, 3.8 98.2 C 0.0 81.0, 76.4 59.4, 73.2 49.4 C 59.5 35.7, 90.0 78.6, 84.8 85.9 Z" fill="hsl(86, 72%, 68%)" fill-opacity="0.52" stroke="none" stroke-width="3.18"  transform="translate(83.8 57.9) rotate(298.9) scale(0.81 0.96)" />
<path d="M 41.9 68.7 C 57.2 54.5, 74.8 31.2, 66.9 29.9 C 52.8 17.5, 96.4 48.1, 86.6 58.0 C 92.2 59.3, 27.2 16.2, 38.0 13.8 C 35.8 14.3, 42.3 19.2, 55.7 25.9 C 63.5 37.1, 55.9 32.1, 61.2 35.0 C 49.8 38.8, 100.0 14.7, 96.4 27.5 C 88.4 31.0, 28.5 71.2, 24.8 64.5 C 15.0 67.8, 17.5 42.9, 21.1 56.7 Z" fill="hsl(104, 72%, 65%)" fill-opacity="0.67" stroke="none" stroke-width="1.61"   />
<circle cx="93.8" cy="32.8" r="7.4" fill="url(#g2)" fill-opacity="0.44"  transform="translate(56.3 65.4) rotate(241.8) scale(1.83 1.64)" />
<path d="M 84.5 98.8 C 69.1 100.0, 22.8 27.3, 19.7 18.4 C 19.0 21.7, 77.2 86.7, 80.9 81.6 C 69.7 81.0, 71.3 0.0, 72.7 1.2 C 70.6 0.0, 0.0 100.0, 4.8 89.4 C 13.5 80.2, 38.0 75.9, 48.4 89.1 C 48.1 90.9, 71.2 17.1, 77.9 19.1 C 74.9 34.3, 86.0 93.6, 79.1 93.9 Z" fill="none" fill-opacity="0.71" stroke="hsl(106, 75%, 59%)" stroke-width="4.76"   />
<circle cx="64.7" cy="14.9" r="16.3" fill="hsl(86, 72%, 68%)" fill-opacity="0.84" filter="url(#f1)" transform="translate(26.7 5.8) rotate(8.5) scale(0.60 1.43)" />
<path d="M 80.2 66.9 C 71.5 53.7, 19.1 21.5, 20.7 13.5 C 34.5 0.0, 17.3 94.8, 14.9 84.4 C 21.4 91.6, 23.6 60.2, 21.4 69.2 C 4.4 63.7, 71.6 35.7, 83.4 30.1 C 76.5 24.6, 22.8 12.0, 15.8 4.2 C 7.4 0.1, 57.6 58.9, 45.8 50.0 C 52.7 31.5, 37.9 80.4, 28.4 72.6 Z" fill="hsl(83, 65%, 44%)" fill-opacity="0.71" stroke="none" stroke-width="4.67"  transform="translate(37.4 14.7) rotate(216.6) scale(0.88 1.96)" />
<path d="M 58.0 90.2 C 61.4 82.7, 58.1 97.9, 70.0 94.9 C 81.7 100.0, 20.1 4.2, 22.6 17.0 C 16.2 22.0, 41.2 42.3, 29.5 43.3 C 12.6 36.3, 58.8 33.5, 46.8 25.0 C 39.3 26.9, 7.4 46.4, 7.4 48.1 C 0.0 43.3, 37.2 38.1, 49.0 41.3 C 42.3 25.7, 53.1 94.2, 45.7 98.8 C 33.1 97.5, 6.1 79.0, 16.6 76.7 Z" fill="hsl(83, 65%, 44%)" fill-opacity="0.98" stroke="none" stroke-width="4.16"  transform="translate(6.4 2.9) rotate(147.2) scale(0.53 0.85)" />
<path d="M 86.2 5.6 C 82.5 0.0, 71.0 11.9, 83.6 17.5 C 81.3 27.9, 78.4 55.2, 88.3 68.9 C 92.3 81.6, 64.8 27.1, 63.4 19.5 C 69.8 28.3, 24.6 9.2, 9.8 3.9 C 26.2 0.7, 58.5 76.2, 61.8 86.6 C 52.4 93.9, 11.3 51.1, 1.3 50.4 Z" fill="hsl(106, 75%, 59%)" fill-opacity="0.52" stroke="none" stroke-width="3.20"  transform="translate(74.7 6.2) rotate(261.6) scale(1.26 1.64)" />
<path d="M 42.2 48.8 C 43.1 61.1, 30.8 63.2, 34.2 57.5 C 40.7 70.1, 95.3 48.8, 97.0 40.4 C 81.8 58.1, 36.6 85.4, 50.3 71.3 C 62.2 64.1, 47.4 8.4, 34.8 18.2 C 24.4 18.4, 17.0 52.7, 5.9 62.0 C 0.0 56.8, 7.6 10.6, 14.4 23.0 C 0.7 20.2, 76.3 84.9, 80.9 79.4 C 81.1 60.7, 81.1 34.7, 80.6 29.3 Z" fill="none" fill-opacity="0.50" stroke="hsl(40, 53%, 69%)" stroke-width="3.17"  transform="translate(4.9 55.3) rotate(134.6) scale(1.06 0.63)" />
<path d="M 48.1 66.7 C 37.1 60.9, 68.0 98.9, 67.5 84.0 C 66.4 87.7, 83.8 62.6, 72.5 56.4 C 77.4 58.6, 39.0 23.9, 52.9 26.4 C 42.6 32.4, 36.8 75.8, 40.7 87.4 C 36.5 100.0, 36.3 60.0, 35.4 56.2 C 51.8 75.6, 61.3 100.0, 73.3 95.7 C 64.4 100.0, 100.0 75.5, 95.9 85.4 Z" fill="hsl(106, 75%, 59%)" fill-opacity="0.71" stroke="none" stroke-width="1.72"  transform="translate(27.1 14.1) rotate(171.2) scale(0.58 1.27)" />
<g opacity="0.080">
<rect x="0" y="0" width="1" height="100" fill="black" />
<rect x="22" y="0" width="1" height="100" fill="black" />
<rect x="44" y="0" width="1" height="100" fill="black" />
<rect x="66" y="0" width="1" height="100" fill="black" />
<rect x="88" y="0" width="1" height="100" fill="black" />
<rect x="0" y="0" width="100" height="1" fill="black" />
<rect x="0" y="22" width="100" height="1" fill="black" />
<rect x="0" y="44" width="100" height="1" fill="black" />
<rect x="0" y="66" width="100" height="1" fill="black" />
<rect x="0" y="88" width="100" height="1" fill="black" />
</g>

</svg>
