<?xml version="1.0" encoding="UTF-8"?>
<svg xmlns="http://www.w3.org/2000/svg" width="100" height="100" viewBox="0 0 100 100">
<defs>
<linearGradient id="g0" x1="0%" y1="0%" x2="100%" y2="100%">
<stop offset="0.0%" stop-color="hsl(106, 75%, 59%)" />
<stop offset="33.3%" stop-color="hsl(183, 71%, 60%)" />
<stop offset="66.7%" stop-color="hsl(242, 72%, 49%)" />
<stop offset="100.0%" stop-color="hsl(322, 74%, 44%)" />
</linearGradient>
<linearGradient id="g1" x1="0%" y1="0%" x2="100%" y2="100%">
<stop offset="0.0%" stop-color="hsl(290, 83%, 63%)" />
<stop offset="33.3%" stop-color="hsl(2, 82%, 55%)" />
<stop offset="66.7%" stop-color="hsl(86, 72%, 68%)" />
<stop offset="100.0%" stop-color="hsl(83, 65%, 44%)" />
</linearGradient>
<linearGradient id="g2" x1="0%" y1="0%" x2="100%" y2="100%">
<stop offset="0.0%" stop-color="hsl(40, 53%, 69%)" />
<stop offset="33.3%" stop-color="hsl(104, 72%, 65%)" />
<stop offset="66.7%" stop-color="hsl(144, 86%, 72%)" />
<stop offset="100.0%" stop-color="hsl(151, 70%, 62%)" />
</linearGradient>
</defs>

<circle cx="17.9" cy="69.4" r="1.3" fill="hsl(322, 74%, 44%)" fill-opacity="0.83"  transform="translate(17.7 27.8) rotate(189.1) scale(1.75 1.25)" />
<rect x="2.8" y="45.7" width="42.7" height="10.5" rx="14.1" fill="none" fill-opacity="0.41" stroke="hsl(242, 72%, 49%)" stroke-width="4.1"  transform="translate(53.1 81.9) rotate(289.0) scale(1.73 0.78)" />
<rect x="72.4" y="20.1" width="27.3" height="31.6" rx="7.2" fill="hsl(40, 53%, 69%)" fill-opacity="0.51"   transform="translate(52.3 80.5) rotate(162.3) scale(1.22 1.82)" />
<path d="M 59.0 76.9 C 47.3 63.4, 32.0 50.1, 30.4 47.5 C 43.5 50.1, 63.0 66.3, 75.6 56.8 C 92.5 44.5, 43.1 61.6, 45.1 61.9 C 40.3 49.9, 14.1 58.9, 27.3 55.3 " fill="none" fill-opacity="0.98" stroke="hsl(151, 70%, 62%)" stroke-width="0.83"   />
<path d="M 32.8 2.6 C 29.8 9.1, 12.7 66.3, 5.3 56.7 C 13.0 45.2, 100.0 19.3, 95.8 16.1 C 80.7 30.9, 52.8 71.1, 56.6 63.1 C 67.5 64.3, 0.0 15.7, 3.1 11.5 C 8.7 14.6, 85.1 40.7, 79.4 28.6 C 73.5 17.1, 26.9 88.5, 22.8 98.6 C 39.1 100.0, 64.4 59.5, 69.5 51.1 Z" fill="none" fill-opacity="0.75" stroke="hsl(106, 75%, 59%)" stroke-width="0.87"  transform="translate(7.2 11.2) rotate(311.3) scale(1.37 0.59)" />
<circle cx="42.7" cy="4.6" r="0.0" fill="hsl(183, 71%, 60%)" fill-opacity="0.51"   />
<rect x="10.1" y="64.9" width="24.5" height="17.4" rx="0" fill="hsl(144, 86%, 72%)" fill-opacity="0.46"    />
<rect x="12.2" y="1.7" width="49.0" height="19.5" rx="14.1" fill="hsl(83, 65%, 44%)" fill-opacity="0.46"   transform="translate(41.5 91.8) rotate(166.2) scale(1.79 1.86)" />
<rect x="24.0" y="80.2" width="45.3" height="10.8" rx="7.8" fill="none" fill-opacity="0.35"   transform="translate(89.7 55.7) rotate(24.9) scale(1.83 1.44)" />
<path d="M 54.7 93.7 C 38.6 77.8, 10.7 76.9, 20.8 89.6 C 24.2 100.0, 26.7 54.5, 23.2 42.0 C 13.4 54.7, 2.7 100.0, 13.5 92.3 C 15.3 72.9, 46.4 48.7, 38.4 51.2 C 24.5 59.0, 90.0 18.2, 78.2 26.4 C 83.7 45.8, 15.4 77.7, 19.5 80.9 Z" fill="hsl(40, 53%, 69%)" fill-opacity="0.91" stroke="none" stroke-width="0.97"  transform="translate(53.9 8.9) rotate(66.6) scale(1.76 1.11)" />
<path d="M 11.9 86.8 C 0.0 69.7, 67.3 95.7, 59.1 87.6 C 78.1 75.7, 100.0 32.8, 99.3 41.4 C 100.0 40.9, 51.5 70.4, 56.0 83.2 C 74.5 86.1, 59.6 21.4, 56.4 29.2 C 46.2 36.4, 100.0 98.7, 99.7 94.0 C 100.0 95.4, 14.3 48.0, 27.0 43.5 " fill="hsl(86, 72%, 68%)" fill-opacity="0.70" stroke="none" stroke-width="1.07"   />
</svg>
