<?xml version="1.0" encoding="UTF-8"?>
<svg xmlns="http://www.w3.org/2000/svg" width="100" height="100" viewBox="0 0 100 100">
<defs>
<linearGradient id="g0" x1="0%" y1="0%" x2="100%" y2="100%">
<stop offset="0.0%" stop-color="hsl(106, 75%, 59%)" />
<stop offset="33.3%" stop-color="hsl(183, 71%, 60%)" />
<stop offset="66.7%" stop-color="hsl(242, 72%, 49%)" />
<stop offset="100.0%" stop-color="hsl(322, 74%, 44%)" />
</linearGradient>
<linearGradient id="g1" x1="0%" y1="0%" x2="100%" y2="100%">
<stop offset="0.0%" stop-color="hsl(290, 83%, 63%)" />
<stop offset="33.3%" stop-color="hsl(2, 82%, 55%)" />
<stop offset="66.7%" stop-color="hsl(86, 72%, 68%)" />
<stop offset="100.0%" stop-color="hsl(83, 65%, 44%)" />
</linearGradient>
<linearGradient id="g2" x1="0%" y1="0%" x2="100%" y2="100%">
<stop offset="0.0%" stop-color="hsl(40, 53%, 69%)" />
<stop offset="33.3%" stop-color="hsl(104, 72%, 65%)" />
<stop offset="66.7%" stop-color="hsl(144, 86%, 72%)" />
<stop offset="100.0%" stop-color="hsl(151, 70%, 62%)" />
</linearGradient>
<filter id="f1" x="-20%" y="-20%" width="140%" height="140%">
  <feGaussianBlur stdDeviation="0.980761142475145" />
</filter>

</defs>

<rect x="35.1" y="26.5" width="32.8" height="13.0" rx="0" fill="none" fill-opacity="0.70"   transform="translate(66.9 25.5) rotate(226.8) scale(0.98 1.11)" />
<rect x="31.9" y="56.7" width="25.4" height="26.1" rx="1.3" fill="hsl(144, 86%, 72%)" fill-opacity="0.66" stroke="hsl(144, 86%, 72%)" stroke-width="2.2"  transform="translate(16.2 90.0) rotate(279.4) scale(1.05 1.82)" />
<circle cx="32.5" cy="98.4" r="1.0" fill="hsl(183, 71%, 60%)" fill-opacity="0.74"   />
<circle cx="1.9" cy="47.9" r="7.1" fill="hsl(144, 86%, 72%)" fill-opacity="0.89"  transform="translate(34.2 65.7) rotate(217.6) scale(0.55 0.73)" />
<rect x="12.3" y="75.7" width="39.5" height="17.9" rx="5.5" fill="hsl(144, 86%, 72%)" fill-opacity="0.71"   transform="translate(20.7 66.9) rotate(12.5) scale(0.98 1.31)" />
<path d="M 40.7 57.1 C 51.3 73.0, 26.9 84.5, 37.0 89.4 C 52.9 85.8, 77.9 15.3, 77.5 11.9 C 89.5 17.9, 30.5 100.0, 35.3 95.3 C 54.0 88.3, 75.1 83.3, 83.3 88.2 C 66.9 100.0, 57.0 80.1, 59.3 93.3 C 55.7 100.0, 90.3 27.7, 87.2 24.4 C 92.4 30.1, 30.9 62.4, 33.7 57.6 Z" fill="none" fill-opacity="0.86" stroke="hsl(290, 83%, 63%)" stroke-width="3.88"  transform="translate(17.6 95.9) rotate(331.0) scale(1.77 1.27)" />
<rect x="41.2" y="22.7" width="40.1" height="31.3" rx="0" fill="hsl(242, 72%, 49%)" fill-opacity="0.98"   transform="translate(19.6 99.3) rotate(70.7) scale(1.79 1.09)" />
<rect x="35.3" y="21.3" width="40.5" height="10.8" rx="1.8" fill="hsl(86, 72%, 68%)" fill-opacity="0.39"   transform="translate(74.1 43.1) rotate(11.6) scale(1.58 0.92)" />
<circle cx="7.2" cy="8.0" r="10.8" fill="url(#g2)" fill-opacity="0.80" filter="url(#f1)" transform="translate(85.8 53.5) rotate(213.3) scale(0.61 0.68)" />
<path d="M 29.3 60.0 C 16.1 51.1, 6.7 0.0, 13.5 7.2 C 31.5 0.0, 37.2 100.0, 45.3 94.9 C 29.3 94.5, 0.0 95.5, 10.4 80.7 C 0.0 76.1, 71.7 84.1, 83.1 84.0 C 92.2 91.8, 59.4 6.0, 69.5 1.3 C 50.1 0.0, 62.8 75.1, 58.8 73.9 C 45.6 82.0, 26.3 31.5, 23.3 23.0 C 29.5 14.4, 53.8 0.0, 63.0 10.4 C 46.1 2.2, 25.6 100.0, 25.5 86.4 C 12.9 72.0, 25.8 55.9, 11.0 44.2 Z" fill="hsl(322, 74%, 44%)" fill-opacity="0.82" stroke="none" stroke-width="3.99"  transform="translate(94.1 61.8) rotate(166.5) scale(0.77 0.84)" />
<path d="M 84.3 84.2 C 72.5 100.0, 12.7 33.8, 8.2 19.3 C 16.2 26.4, 17.5 67.4, 4.6 62.5 C 17.1 58.3, 73.2 47.6, 81.6 55.6 C 83.4 38.4, 26.0 19.1, 35.1 20.7 C 49.2 28.1, 25.7 5.1, 32.4 10.0 C 30.0 0.5, 4.0 54.9, 18.2 53.5 C 9.4 70.2, 84.4 73.1, 92.9 78.4 Z" fill="hsl(242, 72%, 49%)" fill-opacity="0.62" stroke="none" stroke-width="3.27"  transform="translate(85.6 22.0) rotate(319.8) scale(1.45 0.91)" />
<path d="M 64.8 16.5 C 57.0 5.1, 94.8 27.9, 97.6 16.3 C 100.0 30.6, 45.0 89.7, 37.2 97.0 C 23.2 84.0, 26.6 10.6, 16.8 18.2 C 15.4 13.5, 77.4 61.4, 76.5 70.2 C 74.1 73.8, 73.9 0.0, 80.9 3.2 C 72.7 0.0, 98.9 59.3, 94.6 56.4 Z" fill="hsl(86, 72%, 68%)" fill-opacity="0.62" stroke="none" stroke-width="3.28"  transform="translate(86.5 50.3) rotate(287.5) scale(0.79 1.77)" />
<path d="M 82.1 97.1 C 100.0 100.0, 14.2 0.0, 15.6 0.2 C 17.7 0.0, 94.7 3.7, 92.9 6.9 C 78.7 8.1, 60.0 38.6, 47.1 31.8 C 41.7 18.9, 24.3 100.0, 21.8 99.1 C 7.0 97.5, 100.0 51.8, 87.9 54.6 C 81.4 53.5, 5.7 95.7, 18.4 99.2 C 33.6 100.0, 15.3 45.9, 25.6 56.0 Z" fill="none" fill-opacity="0.69" stroke="hsl(86, 72%, 68%)" stroke-width="1.09"  transform="translate(97.5 54.3) rotate(198.4) scale(1.52 0.93)" />
<circle cx="85.3" cy="68.6" r="7.2" fill="url(#g1)" fill-opacity="0.86"  transform="translate(73.4 58.9) rotate(242.1) scale(1.54 0.53)" />
<path d="M 36.8 82.0 C 34.8 63.6, 37.0 12.3, 46.1 3.5 C 38.0 14.8, 63.0 51.4, 74.7 47.9 C 67.6 51.0, 51.1 68.7, 48.7 63.2 C 55.2 81.0, 37.3 62.5, 32.3 61.2 C 42.3 52.5, 45.9 77.5, 52.8 75.9 C 35.5 71.6, 61.5 10.4, 70.7 4.4 C 82.9 14.6, 37.9 40.8, 25.7 33.3 Z" fill="none" fill-opacity="0.51" stroke="hsl(2, 82%, 55%)" stroke-width="4.14"  transform="translate(63.9 46.0) rotate(140.3) scale(1.69 1.04)" />
<path d="M 50.2 38.2 C 49.9 34.2, 67.7 26.5, 75.8 29.2 C 78.7 13.1, 95.6 10.6, 83.9 11.2 C 87.0 12.0, 43.2 58.1, 50.1 46.8 C 45.6 58.9, 32.7 100.0, 40.8 89.0 C 24.7 85.3, 63.1 65.1, 49.0 73.9 C 51.3 71.0, 100.0 20.5, 91.8 20.0 C 83.2 29.7, 100.0 40.6, 96.1 54.8 C 99.3 50.3, 72.6 100.0, 87.2 92.9 C 84.9 79.7, 29.0 33.7, 16.2 25.5 C 27.4 17.1, 40.6 90.7, 53.9 91.3 Z" fill="none" fill-opacity="0.34" stroke="hsl(86, 72%, 68%)" stroke-width="1.84"  transform="translate(84.6 36.7) rotate(354.2) scale(0.58 0.82)" />
<rect x="51.7" y="46.6" width="43.5" height="25.6" rx="0" fill="hsl(104, 72%, 65%)" fill-opacity="0.79"   transform="translate(94.5 30.5) rotate(348.1) scale(1.03 0.75)" />
<rect x="32.2" y="60.4" width="20.1" height="11.0" rx="12.9" fill="none" fill-opacity="0.94"   transform="translate(77.3 94.3) rotate(13.8) scale(1.26 1.93)" />
<path d="M 20.3 72.2 C 24.5 66.6, 8.2 17.8, 23.0 8.4 C 14.5 0.2, 70.9 20.0, 76.3 18.0 C 88.5 11.4, 82.7 100.0, 85.5 98.1 C 72.3 100.0, 61.1 0.0, 52.8 9.3 C 53.6 0.0, 38.0 77.7, 28.2 82.1 C 40.0 67.4, 84.1 63.0, 90.5 75.2 Z" fill="hsl(144, 86%, 72%)" fill-opacity="0.82" stroke="none" stroke-width="3.50"   />
<path d="M 92.6 69.3 C 92.4 54.1, 73.5 91.6, 61.4 89.8 C 46.9 83.6, 71.3 34.6, 74.3 40.6 C 64.6 24.7, 85.7 48.1, 75.8 61.6 C 57.3 65.0, 70.6 46.2, 71.4 56.8 C 79.2 47.4, 24.5 64.2, 20.2 54.5 C 6.0 47.5, 0.0 91.8, 4.5 77.4 " fill="none" fill-opacity="0.45" stroke="hsl(83, 65%, 44%)" stroke-width="2.62" filter="url(#f1)" transform="translate(77.9 87.8) rotate(289.9) scale(1.00 1.66)" />
<circle cx="93.9" cy="20.7" r="6.8" fill="url(#g1)" fill-opacity="0.74" filter="url(#f1)" transform="translate(34.4 66.6) rotate(0.1) scale(1.95 1.49)" />
<path d="M 59.1 64.7 C 77.8 60.1, 0.0 99.3, 4.8 93.7 C 3.9 88.6, 92.7 14.6, 99.1 23.2 C 83.7 15.6, 85.1 93.4, 83.0 78.5 C 64.0 65.9, 39.3 31.6, 36.4 45.3 C 46.6 63.3, 44.7 71.7, 50.7 67.5 C 59.4 65.5, 25.9 52.3, 35.5 43.8 C 51.2 40.7, 24.5 1.3, 29.9 12.4 C 45.8 19.5, 25.6 33.0, 23.0 44.3 Z" fill="none" fill-opacity="0.49" stroke="hsl(86, 72%, 68%)" stroke-width="4.36"  transform="translate(68.8 86.3) rotate(127.8) scale(1.93 1.78)" />
<path d="M 32.6 98.4 C 41.0 100.0, 42.7 65.3, 54.4 69.9 C 63.8 70.7, 98.6 15.0, 86.9 28.9 C 87.7 19.1, 6.4 75.6, 8.8 69.1 C 23.8 80.8, 54.5 0.0, 65.6 1.3 C 78.2 0.0, 82.0 39.0, 81.4 29.8 C 79.1 25.9, 45.6 33.3, 57.1 40.6 C 63.3 37.6, 41.6 43.1, 28.3 57.8 C 23.2 63.0, 44.0 66.4, 55.2 73.1 C 70.7 89.2, 27.1 81.6, 37.1 79.3 C 17.8 63.5, 62.9 19.2, 55.0 23.7 " fill="none" fill-opacity="0.83" stroke="hsl(2, 82%, 55%)" stroke-width="0.85"  transform="translate(44.7 66.0) rotate(315.4) scale(0.88 0.64)" />
<circle cx="54.8" cy="24.8" r="12.3" fill="url(#g2)" fill-opacity="0.49"  transform="translate(68.2 68.7) rotate(28.6) scale(0.87 1.48)" />
<path d="M 29.8 50.7 C 28.9 65.9, 81.9 13.8, 74.4 5.2 C 73.0 0.0, 8.4 57.8, 9.2 54.6 C 15.5 38.7, 76.8 46.0, 69.9 37.8 C 58.4 45.3, 98.3 7.4, 93.4 17.5 C 100.0 14.8, 53.1 100.0, 67.4 98.8 C 51.3 86.7, 9.8 62.5, 13.3 52.1 C 0.0 61.3, 46.7 52.3, 41.5 60.6 C 50.2 43.3, 82.0 38.1, 93.5 42.5 C 87.0 56.4, 3.6 21.9, 14.9 28.2 C 30.5 41.3, 78.8 100.0, 75.6 97.9 Z" fill="hsl(40, 53%, 69%)" fill-opacity="0.44" stroke="none" stroke-width="3.58"   />
<rect x="63.6" y="63.4" width="30.2" height="17.1" rx="0" fill="none" fill-opacity="0.85"   transform="translate(75.5 19.2) rotate(101.1) scale(0.69 0.81)" />
<path d="M 2.6 79.1 C 7.1 59.2, 76.4 98.6, 71.6 84.5 C 89.6 88.7, 77.3 20.1, 79.3 24.1 C 75.6 23.9, 49.9 75.2, 49.3 62.2 C 68.5 50.8, 0.0 0.0, 4.0 8.3 C 0.0 0.0, 72.8 34.4, 65.9 20.0 C 56.8 37.4, 28.0 54.1, 34.9 62.7 C 52.6 77.5, 95.1 37.3, 90.6 49.3 C 80.8 54.2, 100.0 48.9, 93.9 49.8 Z" fill="hsl(242, 72%, 49%)" fill-opacity="0.84" stroke="none" stroke-width="1.54"  transform="translate(63.2 85.7) rotate(95.5) scale(0.98 1.43)" />
<path d="M 5.6 97.5 C 16.4 89.1, 84.6 61.6, 81.5 57.7 C 85.4 70.4, 4.8 86.8, 9.4 99.6 C 19.2 92.6, 17.1 16.6, 25.0 23.1 C 9.2 8.3, 77.3 11.4, 80.5 23.1 C 86.0 31.8, 14.0 72.1, 18.0 66.2 C 0.0 48.4, 41.0 0.3, 48.8 13.5 C 61.4 10.7, 45.5 86.5, 54.8 72.1 C 44.7 55.6, 69.5 22.9, 81.8 35.8 C 85.8 29.2, 7.5 71.0, 16.2 77.7 C 13.5 69.0, 78.3 85.4, 63.9 99.3 Z" fill="none" fill-opacity="0.97" stroke="hsl(183, 71%, 60%)" stroke-width="4.84"  transform="translate(84.7 73.1) rotate(249.0) scale(0.68 1.91)" />
<path d="M 82.2 89.3 C 98.3 100.0, 14.4 17.6, 21.7 27.9 C 8.2 32.7, 96.1 22.9, 89.0 23.3 C 98.7 33.8, 73.3 41.0, 88.2 43.8 C 100.0 45.0, 35.7 66.5, 50.4 73.7 C 49.3 58.1, 93.4 52.7, 82.3 65.3 C 67.7 73.4, 11.0 31.2, 24.2 17.2 C 10.9 28.7, 36.5 65.2, 41.3 50.9 C 38.1 68.0, 33.9 100.0, 30.7 99.6 C 11.7 87.3, 78.0 69.1, 92.5 57.2 C 74.2 42.6, 67.2 87.3, 58.0 85.1 Z" fill="none" fill-opacity="0.67" stroke="hsl(144, 86%, 72%)" stroke-width="4.90"  transform="translate(10.0 89.8) rotate(130.5) scale(1.74 1.28)" />
<path d="M 72.0 1.6 C 67.2 6.8, 86.1 7.9, 90.5 21.9 C 99.0 13.8, 72.6 18.1, 62.8 25.7 C 43.0 38.6, 56.0 31.7, 66.8 38.0 C 50.7 31.4, 41.6 62.2, 38.9 50.7 C 39.1 58.2, 45.4 48.4, 58.9 43.7 C 60.0 24.4, 71.6 84.9, 82.8 86.9 C 68.7 68.3, 66.0 0.0, 57.4 2.3 Z" fill="hsl(151, 70%, 62%)" fill-opacity="0.29" stroke="none" stroke-width="1.85"  transform="translate(39.6 52.3) rotate(75.8) scale(0.83 1.45)" />
<path d="M 37.9 74.1 C 23.1 81.1, 63.4 100.0, 56.3 100.0 C 63.6 100.0, 50.5 36.8, 58.9 40.4 C 60.3 41.1, 10.3 41.5, 16.9 42.4 C 13.8 30.2, 47.5 45.1, 35.8 31.4 C 49.5 27.3, 16.8 79.7, 3.4 89.6 C 0.0 82.2, 55.9 72.9, 45.1 83.2 C 63.0 66.6, 65.4 16.2, 72.3 13.7 Z" fill="none" fill-opacity="0.94" stroke="hsl(86, 72%, 68%)" stroke-width="1.36"   />
<rect x="26.6" y="3.6" width="34.5" height="26.4" rx="7.3" fill="none" fill-opacity="0.81"   transform="translate(66.2 77.6) rotate(105.0) scale(1.80 0.55)" />
<circle cx="65.5" cy="51.8" r="20.5" fill="hsl(2, 82%, 55%)" fill-opacity="0.90"   />
<rect x="29.8" y="59.1" width="41.9" height="16.0" rx="17.2" fill="none" fill-opacity="0.46"   transform="translate(63.7 46.8) rotate(276.2) scale(0.57 1.00)" />
<path d="M 88.6 5.4 C 100.0 9.8, 54.1 100.0, 67.9 90.8 C 52.0 87.6, 68.1 3.3, 77.2 7.0 C 68.0 0.0, 33.9 43.4, 25.8 32.2 C 12.5 28.0, 16.4 68.5, 20.4 59.6 C 34.0 79.4, 24.5 85.0, 31.5 84.8 C 18.6 74.0, 62.1 79.9, 60.5 76.8 C 47.9 77.0, 97.8 73.8, 95.9 59.6 C 85.6 67.2, 44.8 32.4, 32.0 22.0 C 43.3 21.4, 35.6 56.7, 23.9 42.2 Z" fill="none" fill-opacity="0.51" stroke="hsl(151, 70%, 62%)" stroke-width="0.85" filter="url(#f1)" transform="translate(27.2 53.0) rotate(203.7) scale(1.33 0.85)" />
<path d="M 25.2 88.5 C 34.8 100.0, 39.1 46.6, 49.9 41.8 C 44.0 59.1, 74.1 21.5, 60.7 7.3 C 64.4 17.5, 71.6 2.0, 76.1 3.9 C 79.4 0.0, 37.7 13.8, 38.9 22.3 C 31.2 12.0, 14.8 62.6, 26.3 52.1 C 25.9 33.9, 69.6 90.2, 72.6 79.2 C 69.4 84.5, 82.4 33.3, 90.3 21.6 Z" fill="hsl(106, 75%, 59%)" fill-opacity="0.77" stroke="none" stroke-width="3.77" filter="url(#f1)" transform="translate(70.0 3.5) rotate(149.5) scale(1.42 1.71)" />
<circle cx="6.3" cy="15.3" r="3.6" fill="hsl(183, 71%, 60%)" fill-opacity="0.52"  transform="translate(94.4 47.4) rotate(109.0) scale(0.97 1.24)" />
<path d="M 30.8 63.0 C 48.6 56.4, 8.2 63.2, 22.0 52.5 C 11.6 44.0, 74.0 86.7, 63.4 78.4 C 61.1 89.8, 0.0 87.5, 2.1 73.4 C 0.0 81.6, 36.1 52.8, 44.8 60.6 C 25.7 74.4, 51.8 87.4, 60.8 87.6 C 48.5 100.0, 69.3 34.1, 60.3 35.5 C 56.2 21.4, 0.0 71.0, 11.5 59.8 Z" fill="hsl(242, 72%, 49%)" fill-opacity="0.91" stroke="none" stroke-width="3.10"  transform="translate(88.8 85.2) rotate(145.9) scale(1.84 0.97)" />
<circle cx="90.5" cy="29.1" r="11.8" fill="url(#g0)" fill-opacity="0.48"  transform="translate(89.3 18.3) rotate(189.8) scale(1.07 1.38)" />
<circle cx="71.3" cy="25.1" r="11.3" fill="url(#g0)" fill-opacity="0.66"  transform="translate(4.9 32.4) rotate(243.4) scale(0.93 1.45)" />
<path d="M 50.3 10.1 C 36.2 5.1, 30.6 79.4, 40.4 68.4 C 44.2 66.5, 12.5 30.5, 0.3 32.3 C 6.7 19.9, 11.1 24.8, 2.2 27.8 C 0.0 28.2, 100.0 19.8, 97.3 32.0 C 100.0 32.0, 61.0 70.6, 57.1 77.0 C 44.7 89.2, 51.2 37.8, 59.2 42.6 C 70.1 42.9, 42.2 48.0, 48.8 40.2 C 28.9 53.4, 45.9 20.7, 34.5 34.2 C 19.2 54.1, 61.6 25.4, 65.5 16.3 C 79.7 6.2, 19.2 78.7, 7.3 78.9 Z" fill="hsl(151, 70%, 62%)" fill-opacity="0.56" stroke="none" stroke-width="1.38"  transform="translate(6.7 8.3) rotate(87.9) scale(1.50 0.58)" />
<rect x="52.9" y="26.9" width="39.1" height="29.2" rx="0" fill="hsl(106, 75%, 59%)" fill-opacity="0.23"   transform="translate(88.3 56.6) rotate(217.3) scale(1.09 1.73)" />
<rect x="3.7" y="0.5" width="41.3" height="39.6" rx="16.7" fill="hsl(151, 70%, 62%)" fill-opacity="0.25"   transform="translate(67.5 0.8) rotate(281.1) scale(1.24 0.63)" />
<path d="M 23.9 46.6 C 16.1 39.1, 34.8 42.4, 22.2 27.5 C 23.1 30.7, 100.0 32.2, 97.8 17.8 C 86.2 27.8, 32.1 14.6, 37.0 2.5 C 18.0 10.0, 34.1 69.7, 33.4 81.3 C 23.5 82.8, 6.1 100.0, 0.8 99.1 C 18.0 91.4, 17.1 18.5, 13.5 19.9 C 0.0 28.1, 13.3 7.6, 11.7 11.6 C 9.3 3.7, 0.7 33.4, 13.3 44.4 Z" fill="none" fill-opacity="0.40" stroke="hsl(40, 53%, 69%)" stroke-width="3.18"  transform="translate(84.2 38.0) rotate(165.8) scale(0.86 0.68)" />
<circle cx="88.5" cy="56.4" r="4.2" fill="hsl(106, 75%, 59%)" fill-opacity="0.84"  transform="translate(56.0 2.5) rotate(226.7) scale(0.71 0.77)" />
<path d="M 64.0 68.4 C 81.8 78.4, 8.7 18.5, 8.8 23.8 C 19.5 9.0, 4.3 70.2, 12.9 84.6 C 0.0 90.0, 97.6 38.5, 93.9 31.9 C 81.8 21.1, 60.3 90.9, 70.0 78.9 C 63.8 64.5, 85.2 86.1, 87.2 71.4 C 74.2 76.9, 70.4 52.9, 69.8 50.0 C 86.9 31.4, 72.5 32.0, 62.8 21.1 C 66.7 7.0, 14.9 0.0, 0.2 3.3 C 0.0 0.0, 34.9 66.7, 34.7 53.0 C 38.7 54.1, 16.0 16.7, 30.5 13.8 Z" fill="none" fill-opacity="0.49" stroke="hsl(242, 72%, 49%)" stroke-width="2.88" filter="url(#f1)" transform="translate(26.2 94.6) rotate(1.9) scale(1.74 0.67)" />
<path d="M 74.9 72.4 C 72.9 61.0, 67.9 97.2, 66.0 94.9 C 61.4 100.0, 68.4 63.7, 77.7 53.9 C 93.4 59.6, 64.3 86.4, 74.0 91.6 C 73.6 95.6, 52.8 84.1, 38.3 81.8 C 31.8 95.2, 42.5 60.6, 41.6 71.8 C 41.3 80.3, 100.0 0.0, 99.4 4.7 C 100.0 0.0, 65.0 22.2, 57.6 36.0 C 49.7 25.2, 62.7 85.2, 55.7 83.5 Z" fill="hsl(183, 71%, 60%)" fill-opacity="0.59" stroke="none" stroke-width="3.67"   />
<path d="M 5.9 50.7 C 7.4 41.9, 0.0 60.2, 4.1 48.3 C 19.2 49.0, 44.6 2.5, 38.2 10.8 C 30.7 4.8, 19.5 70.3, 27.2 62.7 C 13.0 75.6, 64.6 10.1, 64.0 11.6 C 81.4 24.1, 84.0 0.0, 78.7 6.3 C 60.5 0.0, 94.0 12.8, 82.0 0.5 Z" fill="hsl(86, 72%, 68%)" fill-opacity="0.36" stroke="none" stroke-width="5.24"  transform="translate(55.7 76.5) rotate(91.6) scale(1.94 0.96)" />
<path d="M 55.0 64.4 C 36.2 51.4, 60.0 75.0, 73.3 81.8 C 54.7 81.1, 100.0 58.4, 99.9 47.0 C 89.5 45.3, 59.7 39.6, 50.3 41.5 C 68.1 45.8, 39.7 65.3, 53.9 78.5 C 73.6 79.9, 46.2 44.7, 43.6 55.3 C 36.1 67.9, 19.6 0.0, 4.9 12.6 C 0.0 1.9, 14.5 71.9, 3.2 68.8 C 15.4 88.3, 6.4 62.7, 6.4 62.7 C 0.0 80.4, 45.3 53.2, 42.2 63.8 C 30.6 74.0, 6.7 35.6, 19.6 38.0 Z" fill="none" fill-opacity="0.82" stroke="hsl(242, 72%, 49%)" stroke-width="3.86"  transform="translate(51.1 59.4) rotate(296.7) scale(1.09 1.80)" />
<path d="M 84.0 73.7 C 67.4 82.1, 100.0 0.0, 93.1 6.1 C 74.5 5.0, 22.6 68.9, 31.3 69.2 C 19.0 72.8, 82.1 73.7, 95.0 61.4 C 85.5 59.7, 77.4 61.3, 66.7 48.0 C 60.5 43.7, 46.5 62.8, 48.4 52.4 C 44.7 32.6, 96.5 77.2, 84.9 81.9 C 95.8 94.3, 45.8 39.1, 60.3 40.3 Z" fill="none" fill-opacity="0.89" stroke="hsl(242, 72%, 49%)" stroke-width="1.97" filter="url(#f1)"  />
<rect x="34.1" y="36.6" width="49.2" height="31.0" rx="3.2" fill="hsl(183, 71%, 60%)" fill-opacity="0.22"   transform="translate(29.4 86.0) rotate(219.6) scale(1.92 1.99)" />
<rect x="45.8" y="9.1" width="30.4" height="22.9" rx="0" fill="hsl(322, 74%, 44%)" fill-opacity="0.69" stroke="hsl(183, 71%, 60%)" stroke-width="4.1"  transform="translate(27.0 72.8) rotate(20.4) scale(1.48 1.72)" />
<path d="M 24.9 62.8 C 33.1 79.5, 60.4 23.9, 47.4 11.2 C 36.1 18.3, 17.2 0.0, 17.2 1.4 C 22.7 8.2, 44.0 85.2, 56.4 99.4 C 69.7 91.8, 55.4 30.0, 61.6 25.5 C 46.2 34.8, 11.4 38.9, 14.9 35.7 C 12.0 45.1, 11.0 41.7, 17.7 31.5 C 9.6 15.9, 66.9 33.9, 75.8 40.7 " fill="hsl(106, 75%, 59%)" fill-opacity="0.95" stroke="none" stroke-width="4.16"  transform="translate(99.9 21.7) rotate(43.8) scale(0.88 1.16)" />
<path d="M 31.2 59.8 C 39.2 42.7, 20.3 59.1, 15.7 50.2 C 2.4 60.6, 84.6 92.3, 83.7 88.2 C 87.5 74.9, 26.0 59.8, 34.7 55.6 C 45.1 64.2, 15.4 55.0, 4.0 63.1 C 18.5 67.6, 78.2 69.4, 63.6 60.4 C 50.1 62.1, 93.2 58.7, 98.7 72.1 Z" fill="hsl(242, 72%, 49%)" fill-opacity="0.88" stroke="none" stroke-width="4.90"  transform="translate(25.8 26.7) rotate(177.4) scale(1.13 1.56)" />
<path d="M 38.9 68.4 C 53.2 74.2, 28.7 77.5, 32.4 83.4 C 52.1 73.0, 74.4 42.4, 65.4 41.8 C 84.3 49.7, 60.2 35.1, 56.3 30.3 C 67.2 35.4, 33.2 15.5, 31.8 28.4 C 31.7 15.6, 74.3 58.1, 83.7 67.6 C 83.6 84.9, 39.0 97.9, 47.9 91.7 C 34.2 89.0, 6.8 42.4, 1.0 34.6 C 19.6 41.1, 27.1 62.6, 30.0 74.2 C 22.0 73.5, 2.9 63.3, 15.3 62.0 C 5.2 51.4, 100.0 66.2, 94.7 66.0 Z" fill="none" fill-opacity="0.99" stroke="hsl(40, 53%, 69%)" stroke-width="3.63"  transform="translate(45.5 0.2) rotate(137.0) scale(1.74 1.72)" />
<path d="M 91.4 92.0 C 100.0 97.8, 54.7 73.0, 50.7 69.9 C 56.0 88.2, 92.2 89.1, 98.6 82.3 C 94.7 97.1, 64.9 54.6, 53.3 64.7 C 49.8 77.7, 0.0 20.0, 1.1 21.2 C 0.0 37.1, 0.0 58.3, 7.2 63.4 C 26.2 50.0, 20.1 84.6, 16.8 91.7 C 12.3 79.2, 61.1 23.2, 71.5 38.0 " fill="hsl(144, 86%, 72%)" fill-opacity="0.77" stroke="none" stroke-width="0.95" filter="url(#f1)" transform="translate(29.1 52.4) rotate(251.5) scale(1.70 0.72)" />
<path d="M 88.4 32.2 C 100.0 22.1, 28.7 77.7, 19.6 91.6 C 24.8 100.0, 70.7 0.0, 77.2 6.7 C 72.1 1.3, 64.6 32.8, 67.5 28.9 C 60.3 14.8, 55.5 29.9, 56.7 16.6 C 44.3 23.5, 32.5 59.8, 18.3 72.0 C 28.4 69.0, 93.7 82.5, 83.3 67.9 C 65.9 59.5, 79.6 48.2, 67.0 39.0 Z" fill="hsl(144, 86%, 72%)" fill-opacity="1.00" stroke="none" stroke-width="5.00"  transform="translate(89.4 92.9) rotate(274.1) scale(0.97 1.36)" />
<path d="M 51.1 77.8 C 49.4 81.2, 19.1 8.6, 22.2 6.8 C 2.5 0.0, 45.8 100.0, 45.7 93.4 C 43.1 86.9, 74.3 61.7, 67.2 75.6 C 47.6 63.6, 63.2 99.9, 73.1 91.9 C 72.7 81.1, 56.0 0.0, 65.5 3.9 C 48.6 21.5, 41.5 78.4, 54.6 88.8 C 40.2 75.4, 91.3 64.9, 94.3 68.9 Z" fill="none" fill-opacity="0.83" stroke="hsl(104, 72%, 65%)" stroke-width="1.22"  transform="translate(21.5 73.0) rotate(339.7) scale(1.56 1.90)" />
<path d="M 77.2 12.4 C 60.8 23.7, 84.1 68.0, 74.0 74.0 C 60.8 57.7, 89.3 66.7, 95.1 53.0 C 76.9 57.1, 0.0 84.1, 5.9 80.6 C 19.0 88.2, 29.8 15.5, 16.2 20.0 C 21.3 25.9, 84.8 38.4, 98.6 46.6 C 78.8 61.1, 62.5 53.0, 58.2 60.9 C 43.9 72.7, 16.7 8.4, 20.9 3.4 C 22.2 0.0, 1.5 54.2, 14.9 67.1 C 17.1 78.1, 34.4 58.6, 42.8 71.4 Z" fill="hsl(290, 83%, 63%)" fill-opacity="0.44" stroke="none" stroke-width="1.66"  transform="translate(53.8 46.5) rotate(101.1) scale(1.59 1.19)" />
<path d="M 23.7 36.9 C 15.5 24.6, 63.0 97.0, 70.6 96.2 C 60.7 100.0, 83.3 3.4, 73.6 8.8 C 58.9 20.2, 100.0 91.1, 88.4 86.3 C 77.0 69.5, 61.3 31.8, 51.8 35.4 C 55.5 43.3, 66.2 68.8, 60.4 77.1 C 69.8 89.5, 35.1 41.2, 37.6 48.6 C 44.1 62.0, 31.6 28.2, 41.0 20.4 C 47.6 2.5, 52.4 41.2, 54.4 44.3 C 67.7 59.3, 80.5 43.3, 93.6 53.7 C 79.0 34.6, 21.6 46.1, 29.4 31.7 Z" fill="hsl(151, 70%, 62%)" fill-opacity="0.55" stroke="none" stroke-width="1.84" filter="url(#f1)" transform="translate(75.2 86.7) rotate(355.5) scale(0.83 1.47)" />
<circle cx="80.3" cy="16.0" r="7.6" fill="hsl(104, 72%, 65%)" fill-opacity="0.54"  transform="translate(65.3 95.5) rotate(292.0) scale(1.31 1.62)" />
<path d="M 75.2 69.1 C 63.8 56.1, 32.9 34.5, 27.0 22.0 C 20.5 4.6, 73.8 86.0, 65.6 90.6 C 56.8 97.1, 7.9 49.2, 7.0 57.7 C 0.0 61.0, 84.0 85.4, 79.3 95.9 C 98.7 78.5, 77.3 69.0, 65.2 82.3 C 49.0 100.0, 86.5 9.2, 74.9 4.2 C 86.1 9.6, 35.4 53.4, 27.8 62.2 C 19.6 81.5, 34.7 55.7, 24.1 49.5 Z" fill="hsl(242, 72%, 49%)" fill-opacity="0.75" stroke="none" stroke-width="1.45"  transform="translate(46.7 44.2) rotate(97.5) scale(1.30 1.77)" />
<path d="M 69.6 70.0 C 65.7 64.2, 99.8 0.0, 94.3 11.1 C 88.5 4.5, 95.1 98.6, 92.5 97.4 C 100.0 100.0, 0.0 100.0, 9.4 94.1 C 19.5 97.4, 77.6 91.4, 69.8 88.8 C 67.3 92.0, 85.0 18.2, 99.3 8.3 C 92.4 2.5, 100.0 60.5, 89.1 61.3 C 71.1 49.1, 100.0 24.8, 94.2 22.6 C 100.0 22.6, 45.3 84.2, 53.2 96.8 C 66.5 94.0, 36.3 7.2, 24.8 9.9 " fill="hsl(83, 65%, 44%)" fill-opacity="0.77" stroke="none" stroke-width="3.69"  transform="translate(37.9 83.9) rotate(70.7) scale(1.73 1.42)" />
<rect x="44.8" y="1.9" width="33.8" height="15.2" rx="0" fill="none" fill-opacity="0.48"   transform="translate(45.1 64.6) rotate(63.8) scale(0.75 0.51)" />
<path d="M 88.6 97.1 C 93.9 100.0, 71.1 66.4, 79.7 77.8 C 84.3 80.2, 51.1 37.5, 59.4 48.9 C 59.2 52.2, 0.3 79.8, 9.5 83.0 C 0.0 69.8, 89.2 61.4, 75.5 51.0 C 92.4 54.9, 96.5 79.9, 94.6 76.3 C 100.0 60.5, 48.5 51.5, 53.9 46.8 C 60.1 57.4, 62.6 17.3, 58.6 2.8 C 66.6 1.8, 44.5 70.0, 59.0 84.9 Z" fill="hsl(83, 65%, 44%)" fill-opacity="0.70" stroke="none" stroke-width="3.92" filter="url(#f1)" transform="translate(32.0 72.7) rotate(236.1) scale(1.90 1.23)" />
<path d="M 82.8 31.7 C 96.2 15.3, 0.0 1.2, 2.8 10.1 C 0.1 8.9, 77.5 45.8, 78.8 57.5 C 89.3 72.4, 38.8 39.0, 52.6 24.4 C 37.0 16.5, 75.9 73.7, 79.8 88.7 C 63.3 100.0, 75.9 0.0, 80.6 3.7 C 72.6 0.0, 34.1 78.2, 26.2 69.3 Z" fill="hsl(83, 65%, 44%)" fill-opacity="0.75" stroke="none" stroke-width="2.81" filter="url(#f1)"  />
<circle cx="61.7" cy="3.2" r="12.9" fill="url(#g1)" fill-opacity="0.63" filter="url(#f1)" transform="translate(55.6 43.9) rotate(216.1) scale(1.27 0.92)" />
<path d="M 70.6 69.2 C 85.3 65.4, 42.2 73.3, 28.2 76.5 C 13.9 82.6, 75.8 69.7, 77.1 75.4 C 78.4 68.8, 0.2 63.8, 12.6 54.9 C 25.4 69.7, 7.3 15.9, 10.1 19.6 C 0.5 10.8, 17.9 4.9, 17.4 7.6 C 33.6 0.0, 38.3 45.7, 41.2 36.5 Z" fill="hsl(104, 72%, 65%)" fill-opacity="0.48" stroke="none" stroke-width="4.37"  transform="translate(59.6 72.6) rotate(258.9) scale(1.39 1.78)" />
<path d="M 13.9 84.7 C 23.6 99.0, 17.9 42.0, 18.8 35.7 C 3.7 52.9, 25.7 63.9, 19.6 67.0 C 6.1 55.6, 44.2 89.2, 53.2 90.9 C 58.9 90.8, 14.7 14.1, 27.1 16.7 C 30.5 0.0, 55.4 68.4, 66.8 62.0 C 62.3 65.0, 74.0 87.3, 88.4 80.2 C 93.6 61.4, 0.0 27.8, 3.1 14.3 C 14.2 34.1, 65.7 51.2, 68.3 43.4 C 67.1 29.3, 0.0 12.5, 7.4 4.7 Z" fill="none" fill-opacity="0.49" stroke="hsl(144, 86%, 72%)" stroke-width="2.10"  transform="translate(27.9 92.5) rotate(35.8) scale(0.70 1.77)" />
<circle cx="95.9" cy="53.4" r="7.5" fill="url(#g0)" fill-opacity="0.60" filter="url(#f1)" transform="translate(17.9 9.8) rotate(97.9) scale(1.51 1.86)" />
<path d="M 93.2 77.2 C 95.1 81.0, 35.5 48.7, 30.5 45.1 C 23.0 41.2, 88.5 72.7, 90.6 77.0 C 91.9 81.7, 73.9 70.3, 62.0 57.7 C 67.2 41.5, 28.4 32.4, 30.9 44.1 C 40.4 30.3, 86.5 40.6, 78.8 43.1 C 92.3 51.5, 0.1 36.8, 7.0 28.3 C 7.9 28.4, 85.1 8.7, 71.1 12.6 C 75.9 24.5, 9.8 84.4, 22.2 72.7 C 8.8 91.1, 94.2 41.5, 92.6 35.9 Z" fill="hsl(83, 65%, 44%)" fill-opacity="0.38" stroke="none" stroke-width="4.60"  transform="translate(63.7 23.2) rotate(212.3) scale(0.94 1.68)" />
<rect x="1.9" y="60.7" width="31.9" height="30.9" rx="11.9" fill="hsl(104, 72%, 65%)" fill-opacity="0.68"   transform="translate(99.6 6.0) rotate(208.8) scale(1.73 1.54)" />
<path d="M 94.3 41.7 C 87.5 51.8, 7.7 45.3, 20.6 34.0 C 4.4 31.4, 25.2 65.7, 18.5 66.0 C 22.7 49.7, 57.8 65.1, 50.6 50.1 C 60.4 32.8, 19.5 58.0, 32.5 63.7 C 20.4 76.5, 24.4 35.0, 34.9 36.3 C 46.7 55.9, 44.5 47.9, 48.4 48.2 C 50.0 39.0, 6.7 65.3, 19.6 53.2 Z" fill="hsl(144, 86%, 72%)" fill-opacity="0.52" stroke="none" stroke-width="4.79"  transform="translate(65.8 11.6) rotate(17.0) scale(1.24 0.62)" />
<path d="M 84.6 24.2 C 92.0 33.3, 13.5 63.2, 21.2 50.5 C 26.2 55.8, 80.1 23.9, 77.7 38.2 C 82.4 24.5, 62.5 9.4, 72.5 19.5 C 53.6 16.3, 5.9 95.4, 2.1 83.1 C 0.0 87.3, 83.2 46.7, 92.5 36.9 C 84.2 56.7, 28.6 96.1, 16.4 91.9 Z" fill="hsl(2, 82%, 55%)" fill-opacity="0.35" stroke="none" stroke-width="2.41"  transform="translate(57.8 80.2) rotate(48.0) scale(1.63 0.94)" />
<path d="M 42.8 43.3 C 38.4 30.9, 13.9 46.9, 1.0 37.1 C 3.9 39.0, 18.9 88.3, 23.2 86.6 C 13.8 71.9, 48.3 71.7, 33.3 57.3 C 21.1 70.8, 26.8 79.7, 39.9 76.8 C 27.7 81.0, 38.2 89.7, 42.4 81.9 C 50.4 100.0, 84.1 24.5, 92.4 30.4 C 95.6 21.1, 47.2 100.0, 49.3 98.3 Z" fill="hsl(106, 75%, 59%)" fill-opacity="0.94" stroke="none" stroke-width="3.48"  transform="translate(17.0 73.4) rotate(321.7) scale(1.18 1.02)" />
<path d="M 41.9 28.0 C 47.4 24.3, 62.3 14.3, 58.2 12.4 C 66.5 0.0, 70.1 28.0, 65.9 41.6 C 70.1 57.2, 0.0 32.1, 9.5 18.3 C 18.9 11.6, 100.0 87.9, 92.1 84.4 C 97.7 81.5, 54.5 20.9, 47.3 18.4 C 51.7 34.3, 100.0 24.1, 89.4 36.4 C 100.0 44.5, 44.7 27.0, 58.0 25.5 C 56.3 15.8, 17.7 82.4, 31.9 68.1 C 39.6 64.8, 66.3 9.1, 77.3 5.3 C 61.1 11.3, 32.8 97.9, 19.5 96.9 Z" fill="none" fill-opacity="0.52" stroke="hsl(183, 71%, 60%)" stroke-width="3.69"  transform="translate(78.8 87.6) rotate(329.5) scale(0.69 1.82)" />
<circle cx="69.3" cy="73.9" r="6.4" fill="url(#g2)" fill-opacity="0.72"  transform="translate(62.5 31.8) rotate(248.8) scale(1.59 1.34)" />
<path d="M 99.9 44.0 C 100.0 60.4, 81.0 99.5, 85.3 92.2 C 99.0 99.3, 58.2 100.0, 67.5 98.6 C 77.1 100.0, 0.8 70.0, 7.2 71.0 C 10.2 64.3, 22.3 78.9, 33.5 79.8 C 29.1 72.8, 44.4 40.3, 34.2 55.1 C 14.6 37.8, 42.0 44.5, 40.9 29.8 C 23.2 20.2, 34.9 31.3, 24.5 20.6 Z" fill="none" fill-opacity="0.27" stroke="hsl(290, 83%, 63%)" stroke-width="1.11"   />
<path d="M 26.9 8.6 C 33.6 0.0, 31.9 33.3, 34.6 31.7 C 18.3 13.0, 26.4 63.1, 21.0 74.2 C 8.5 88.5, 13.3 14.4, 18.8 24.5 C 3.2 16.8, 100.0 49.4, 96.6 63.7 C 100.0 56.2, 63.2 78.2, 69.0 67.1 C 88.5 50.9, 28.8 16.5, 29.8 22.3 C 14.2 20.8, 22.5 100.0, 37.0 97.5 C 40.6 91.3, 93.2 100.0, 92.4 94.8 C 72.6 74.8, 18.0 83.2, 17.8 73.7 Z" fill="hsl(290, 83%, 63%)" fill-opacity="0.60" stroke="none" stroke-width="3.31"  transform="translate(66.9 84.2) rotate(42.4) scale(1.75 0.69)" />
<path d="M 12.7 31.9 C 0.0 26.2, 0.0 45.8, 6.7 55.8 C 0.0 54.7, 13.6 11.0, 6.1 16.5 C 0.0 29.1, 41.8 18.6, 29.9 32.6 C 37.0 37.9, 8.2 0.0, 3.9 3.4 C 0.0 0.7, 37.3 60.2, 37.9 61.2 C 51.9 55.1, 38.8 42.8, 28.0 36.9 Z" fill="hsl(290, 83%, 63%)" fill-opacity="0.76" stroke="none" stroke-width="3.75"  transform="translate(64.9 44.6) rotate(234.2) scale(1.78 1.54)" />
<path d="M 28.4 65.7 C 35.9 74.5, 100.0 5.8, 98.3 9.4 C 100.0 0.0, 32.8 96.1, 45.2 97.0 C 43.8 100.0, 45.4 46.6, 40.9 57.2 C 41.8 67.0, 60.8 40.9, 60.4 33.8 C 69.4 25.7, 86.9 98.0, 76.1 97.0 C 91.6 96.5, 0.0 60.5, 6.4 68.5 C 0.0 75.6, 71.2 28.9, 71.8 29.6 Z" fill="none" fill-opacity="0.37" stroke="hsl(290, 83%, 63%)" stroke-width="4.01"  transform="translate(27.7 40.6) rotate(5.4) scale(1.30 1.46)" />
<path d="M 77.9 70.6 C 89.0 75.1, 25.8 63.4, 27.4 67.8 C 33.5 70.8, 16.2 80.0, 6.5 74.4 C 11.4 63.8, 87.5 6.0, 99.6 20.8 C 100.0 33.0, 50.0 10.0, 64.2 13.7 C 53.7 17.7, 40.8 87.7, 37.6 81.6 C 42.1 91.9, 2.8 27.3, 3.9 29.0 C 8.7 23.8, 58.3 92.4, 63.7 92.0 C 47.2 78.1, 20.3 64.6, 31.3 74.9 C 35.0 78.6, 14.2 0.0, 11.8 0.8 C 2.4 19.6, 75.3 14.0, 87.2 24.5 Z" fill="hsl(83, 65%, 44%)" fill-opacity="0.88" stroke="none" stroke-width="4.83"  transform="translate(23.2 92.8) rotate(290.3) scale(1.98 1.68)" />
<circle cx="85.6" cy="7.3" r="3.4" fill="url(#g1)" fill-opacity="0.65"  transform="translate(66.2 38.4) rotate(2.9) scale(0.65 0.58)" />
<circle cx="61.3" cy="94.7" r="3.0" fill="hsl(104, 72%, 65%)" fill-opacity="0.87"  transform="translate(34.1 28.5) rotate(26.9) scale(1.14 0.88)" />
<rect x="22.6" y="5.5" width="40.2" height="12.6" rx="0" fill="hsl(40, 53%, 69%)" fill-opacity="0.62" stroke="hsl(144, 86%, 72%)" stroke-width="1.3"  transform="translate(47.1 92.3) rotate(234.5) scale(1.54 0.58)" />
<path d="M 58.7 36.2 C 67.3 46.5, 17.4 0.0, 3.5 6.0 C 0.0 24.3, 17.1 59.7, 19.9 63.2 C 17.2 76.4, 100.0 100.0, 98.4 92.8 C 100.0 95.9, 73.7 50.7, 75.4 56.5 C 65.9 45.4, 0.8 50.2, 7.8 48.4 C 10.4 68.2, 38.2 59.7, 52.7 53.9 C 62.2 41.4, 19.6 59.6, 12.9 63.3 C 15.7 64.0, 99.9 53.7, 98.1 47.2 C 79.9 66.3, 15.9 43.6, 16.7 41.8 C 32.6 54.8, 58.2 41.4, 59.0 54.3 Z" fill="hsl(40, 53%, 69%)" fill-opacity="0.64" stroke="none" stroke-width="4.80" filter="url(#f1)" transform="translate(91.3 25.8) rotate(173.5) scale(1.88 1.35)" />
<path d="M 70.1 38.2 C 72.8 55.8, 29.0 83.7, 29.4 92.4 C 16.9 95.1, 82.5 28.5, 73.6 16.4 C 86.4 15.5, 4.7 9.1, 18.5 11.4 C 35.9 6.5, 100.0 54.9, 97.3 57.6 C 86.8 51.9, 58.7 59.3, 49.4 55.6 C 33.4 54.1, 80.7 78.2, 81.5 85.6 C 84.3 95.5, 34.9 25.8, 41.4 16.6 Z" fill="hsl(86, 72%, 68%)" fill-opacity="0.88" stroke="none" stroke-width="3.92"  transform="translate(80.1 84.0) rotate(311.4) scale(1.29 0.84)" />
<path d="M 90.0 50.8 C 70.9 32.5, 9.6 38.5, 23.6 26.6 C 23.2 8.7, 79.1 53.1, 85.1 43.1 C 84.1 47.3, 11.9 41.6, 0.6 42.9 C 1.1 61.5, 28.3 62.9, 41.2 49.0 C 44.7 56.1, 38.0 80.8, 33.0 74.6 C 47.6 77.5, 40.6 26.3, 36.1 27.7 C 30.0 9.8, 81.7 85.4, 82.6 92.8 C 82.6 97.0, 32.9 9.8, 40.1 6.9 C 27.9 19.3, 14.6 100.0, 7.1 95.9 C 0.0 100.0, 68.3 100.0, 54.6 90.4 Z" fill="none" fill-opacity="0.60" stroke="hsl(290, 83%, 63%)" stroke-width="1.75"  transform="translate(22.6 77.8) rotate(5.6) scale(1.13 1.17)" />
<rect x="27.7" y="45.2" width="30.1" height="39.8" rx="1.8" fill="hsl(144, 86%, 72%)" fill-opacity="0.83" stroke="hsl(144, 86%, 72%)" stroke-width="1.5"  transform="translate(24.6 7.8) rotate(21.4) scale(1.89 1.96)" />
<circle cx="49.4" cy="55.8" r="2.8" fill="hsl(86, 72%, 68%)" fill-opacity="0.62"  transform="translate(77.9 95.3) rotate(192.1) scale(0.98 1.98)" />
<circle cx="22.4" cy="36.8" r="8.7" fill="hsl(322, 74%, 44%)" fill-opacity="0.90" filter="url(#f1)" transform="translate(22.4 65.7) rotate(7.3) scale(0.78 1.75)" />
<path d="M 35.4 71.5 C 29.1 61.9, 45.1 12.4, 51.8 4.4 C 38.0 0.0, 51.4 15.6, 55.6 12.2 C 63.6 5.2, 72.6 78.6, 84.6 74.8 C 97.1 72.1, 2.5 60.9, 3.6 61.0 C 5.2 52.6, 96.8 63.4, 93.3 75.4 C 80.3 58.0, 26.2 78.0, 33.4 72.4 " fill="hsl(2, 82%, 55%)" fill-opacity="0.46" stroke="none" stroke-width="2.42" filter="url(#f1)" transform="translate(56.4 17.6) rotate(112.4) scale(1.38 0.72)" />
<path d="M 19.4 29.2 C 10.5 44.7, 31.0 37.5, 42.6 43.0 C 34.7 60.1, 8.1 27.0, 8.5 18.1 C 0.0 2.8, 86.8 73.1, 73.4 64.0 C 76.9 81.4, 63.8 40.3, 67.7 25.4 C 84.6 13.1, 96.3 87.4, 85.3 74.1 C 78.7 82.4, 47.4 40.1, 45.2 39.3 C 31.8 50.6, 82.4 77.8, 86.8 70.7 C 100.0 72.2, 0.0 72.9, 9.0 82.7 C 23.6 64.0, 66.4 52.4, 59.1 48.9 Z" fill="hsl(104, 72%, 65%)" fill-opacity="0.28" stroke="none" stroke-width="3.47" filter="url(#f1)"  />
<path d="M 40.5 12.4 C 44.3 27.0, 18.8 32.4, 8.4 25.7 C 19.2 19.5, 32.4 99.5, 26.1 96.8 C 45.5 98.7, 85.7 40.6, 83.9 43.8 C 86.8 37.4, 76.2 62.8, 68.2 66.9 C 82.1 74.8, 40.1 78.8, 39.6 71.1 C 21.5 83.1, 85.6 0.0, 78.1 1.8 C 71.2 8.3, 30.4 88.8, 24.4 92.0 C 34.2 100.0, 38.2 100.0, 41.5 96.8 C 23.0 92.9, 78.4 84.5, 65.8 70.7 Z" fill="hsl(104, 72%, 65%)" fill-opacity="0.44" stroke="none" stroke-width="3.10"  transform="translate(51.6 55.0) rotate(75.8) scale(1.25 1.97)" />
<path d="M 43.7 35.0 C 63.4 31.0, 0.0 44.4, 1.9 41.7 C 0.0 32.7, 77.5 19.2, 91.6 25.7 C 100.0 27.3, 100.0 100.0, 92.0 99.2 C 97.1 97.6, 16.1 39.3, 30.1 35.1 C 37.4 42.7, 36.0 48.7, 34.2 49.6 C 52.3 44.6, 54.8 51.6, 69.3 37.6 Z" fill="hsl(106, 75%, 59%)" fill-opacity="0.42" stroke="none" stroke-width="3.05"  transform="translate(35.2 15.4) rotate(148.9) scale(1.40 1.04)" />
<circle cx="79.6" cy="49.2" r="2.5" fill="hsl(290, 83%, 63%)" fill-opacity="0.95"   />
<path d="M 23.5 6.3 C 39.9 0.0, 38.4 0.0, 46.5 6.6 C 52.1 1.5, 100.0 23.0, 91.4 37.2 C 98.8 28.1, 36.1 9.5, 39.3 1.9 C 29.6 11.4, 40.8 16.4, 26.5 4.7 C 34.5 0.0, 0.0 44.3, 15.0 30.9 C 7.1 18.5, 4.5 58.0, 7.3 62.3 C 2.0 58.8, 99.8 14.0, 99.3 6.5 C 100.0 15.9, 62.9 48.3, 61.3 57.1 C 72.4 39.9, 82.7 50.6, 79.5 51.5 Z" fill="none" fill-opacity="0.51" stroke="hsl(40, 53%, 69%)" stroke-width="2.90"  transform="translate(15.8 60.5) rotate(283.3) scale(1.79 0.75)" />
<path d="M 63.5 1.0 C 68.4 12.2, 88.8 85.1, 74.0 82.1 C 81.8 87.2, 38.4 48.6, 24.8 38.9 C 5.4 32.9, 16.2 0.0, 30.3 2.9 C 46.6 12.7, 63.4 66.1, 49.3 63.3 C 60.7 74.0, 0.0 48.4, 0.5 49.6 C 0.0 36.6, 64.3 72.7, 78.6 84.3 C 61.6 66.7, 83.6 29.9, 75.3 35.9 C 75.7 29.3, 58.5 35.9, 61.2 38.8 Z" fill="none" fill-opacity="0.69" stroke="hsl(104, 72%, 65%)" stroke-width="4.23"  transform="translate(98.7 28.3) rotate(248.9) scale(1.35 1.73)" />
<path d="M 50.2 57.9 C 31.2 47.8, 35.1 10.1, 43.3 17.8 C 61.2 11.4, 33.1 85.6, 47.2 74.1 C 65.4 85.3, 81.3 78.5, 69.4 83.1 C 81.7 100.0, 2.4 67.6, 8.2 53.4 C 26.5 70.4, 74.2 46.7, 78.5 59.9 C 78.0 72.4, 72.8 62.9, 77.0 72.5 C 83.6 78.4, 30.5 6.8, 43.6 10.6 C 57.6 0.0, 65.8 49.1, 68.6 49.9 C 67.4 69.0, 36.8 79.9, 42.8 68.5 C 51.9 51.0, 61.8 19.4, 53.7 32.7 " fill="hsl(290, 83%, 63%)" fill-opacity="0.38" stroke="none" stroke-width="1.92"  transform="translate(60.6 86.0) rotate(289.9) scale(1.93 1.92)" />
<circle cx="41.2" cy="4.7" r="3.0" fill="url(#g1)" fill-opacity="0.92"  transform="translate(49.0 83.7) rotate(255.0) scale(0.70 1.97)" />
<path d="M 90.2 35.1 C 94.5 24.1, 0.0 80.9, 1.7 87.7 C 15.1 100.0, 74.3 0.9, 63.7 13.0 C 64.6 29.6, 36.9 69.7, 26.3 55.3 C 18.0 71.9, 0.0 56.8, 5.3 65.7 C 0.0 84.0, 17.1 35.8, 29.8 23.4 C 31.1 41.2, 48.9 9.6, 50.7 16.6 C 45.5 20.4, 75.8 100.0, 63.1 91.6 Z" fill="hsl(322, 74%, 44%)" fill-opacity="0.82" stroke="none" stroke-width="0.98"  transform="translate(39.0 42.8) rotate(115.9) scale(1.87 0.68)" />
<path d="M 44.3 60.1 C 29.1 55.8, 55.2 55.2, 49.5 42.5 C 61.4 57.3, 88.5 0.0, 98.1 13.2 C 100.0 0.0, 84.4 86.4, 92.3 78.8 C 100.0 96.3, 10.1 64.1, 20.1 64.1 C 12.2 55.3, 92.4 31.0, 92.1 25.6 C 88.9 23.0, 41.7 87.9, 45.7 89.2 C 64.8 79.2, 2.4 100.0, 3.2 95.4 C 0.5 92.3, 93.9 0.0, 80.0 9.6 C 98.4 0.0, 43.2 93.2, 48.9 94.9 C 64.0 100.0, 30.8 98.2, 29.3 99.2 Z" fill="hsl(106, 75%, 59%)" fill-opacity="0.84" stroke="none" stroke-width="5.03"  transform="translate(15.6 99.4) rotate(120.5) scale(1.50 1.20)" />
<circle cx="47.4" cy="19.8" r="12.8" fill="url(#g1)" fill-opacity="0.82"  transform="translate(80.0 90.1) rotate(153.9) scale(0.86 1.29)" />
<path d="M 7.2 57.5 C 5.2 65.5, 93.3 0.0, 89.5 11.0 C 86.2 0.0, 24.7 26.2, 35.9 14.0 C 27.6 26.9, 6.3 100.0, 20.9 98.9 C 19.6 82.2, 58.7 25.6, 61.5 18.3 C 55.1 31.2, 92.1 31.6, 92.4 25.0 C 98.8 27.8, 79.6 74.0, 79.6 88.3 Z" fill="none" fill-opacity="0.59" stroke="hsl(104, 72%, 65%)" stroke-width="3.85"  transform="translate(91.4 48.3) rotate(265.7) scale(0.52 0.84)" />
<path d="M 18.0 27.4 C 17.3 45.1, 0.0 85.4, 2.7 76.8 C 0.0 74.0, 7.2 85.8, 16.8 80.9 C 16.3 64.6, 3.9 0.0, 2.1 3.4 C 0.0 7.0, 66.2 3.3, 75.9 5.6 C 87.4 0.0, 0.0 36.3, 0.7 27.8 C 0.0 47.1, 0.0 100.0, 5.2 99.9 C 7.1 100.0, 40.9 88.1, 49.4 78.6 " fill="hsl(106, 75%, 59%)" fill-opacity="0.56" stroke="none" stroke-width="4.03" filter="url(#f1)" transform="translate(33.1 86.2) rotate(255.7) scale(1.78 1.76)" />
<path d="M 46.7 8.4 C 49.5 21.5, 41.1 55.9, 40.8 42.3 C 22.9 43.1, 99.3 74.8, 93.1 63.8 C 87.7 69.7, 34.2 23.4, 43.8 24.0 C 33.2 43.4, 28.4 18.6, 35.9 30.5 C 23.6 12.3, 65.3 72.4, 57.5 77.6 C 46.4 75.3, 39.5 24.9, 26.3 20.5 C 21.9 16.9, 41.2 38.2, 29.1 43.9 C 26.8 56.4, 51.3 81.8, 59.0 81.5 Z" fill="hsl(106, 75%, 59%)" fill-opacity="0.36" stroke="none" stroke-width="3.12"  transform="translate(88.2 83.2) rotate(88.8) scale(0.81 1.27)" />
<path d="M 83.1 82.2 C 63.7 100.0, 70.0 100.0, 57.7 99.7 C 67.7 100.0, 72.4 50.4, 78.2 56.6 C 69.5 50.7, 57.1 31.4, 61.5 26.7 C 72.1 11.8, 83.0 69.1, 88.3 78.2 C 98.6 80.5, 33.9 60.8, 25.3 46.0 C 32.0 35.9, 6.2 19.6, 16.8 13.2 C 18.1 6.4, 86.5 81.6, 77.2 79.9 " fill="hsl(144, 86%, 72%)" fill-opacity="0.91" stroke="none" stroke-width="3.42"  transform="translate(52.5 32.8) rotate(139.4) scale(0.96 1.33)" />
<path d="M 58.6 83.9 C 61.2 100.0, 40.7 40.7, 32.2 46.4 C 32.9 36.4, 94.2 81.3, 85.3 80.2 C 78.1 72.6, 30.1 67.7, 37.7 61.1 C 44.1 54.6, 36.3 49.8, 46.5 54.0 C 51.0 66.9, 19.0 1.1, 31.8 11.7 C 35.4 9.8, 0.0 3.7, 7.0 10.0 C 4.1 17.3, 13.5 38.0, 1.7 43.6 Z" fill="hsl(2, 82%, 55%)" fill-opacity="0.49" stroke="none" stroke-width="1.06"  transform="translate(30.1 42.3) rotate(271.9) scale(1.21 1.75)" />
<circle cx="99.7" cy="46.1" r="4.8" fill="hsl(86, 72%, 68%)" fill-opacity="0.99"  transform="translate(30.9 83.0) rotate(320.4) scale(0.87 1.31)" />
<path d="M 24.8 90.1 C 28.2 100.0, 68.5 36.5, 78.7 48.5 C 79.4 30.3, 13.2 36.6, 1.2 32.7 C 13.3 40.8, 29.8 80.2, 25.8 67.4 C 8.7 57.4, 28.4 9.1, 40.7 11.1 C 37.6 26.7, 42.1 23.1, 35.4 24.6 C 26.6 7.6, 0.3 64.9, 9.6 51.1 C 9.0 44.9, 0.0 63.5, 6.7 64.7 C 6.1 75.6, 13.5 21.9, 19.3 20.9 C 12.1 6.5, 27.5 47.3, 30.6 48.2 Z" fill="none" fill-opacity="0.49" stroke="hsl(83, 65%, 44%)" stroke-width="0.82"  transform="translate(89.3 88.3) rotate(287.1) scale(1.86 1.71)" />
<rect x="10.4" y="60.4" width="46.2" height="23.3" rx="0" fill="hsl(104, 72%, 65%)" fill-opacity="0.88"   transform="translate(26.9 57.3) rotate(294.5) scale(1.38 1.62)" />
<path d="M 41.0 21.3 C 60.0 35.1, 55.1 73.3, 45.0 63.6 C 26.2 75.1, 88.7 84.0, 85.9 76.3 C 100.0 60.1, 23.3 69.5, 25.9 79.7 C 27.2 62.2, 100.0 28.3, 94.6 19.3 C 83.3 20.0, 41.1 99.6, 41.6 88.2 C 54.3 100.0, 13.3 44.0, 24.8 44.8 C 5.7 29.1, 1.8 72.7, 1.8 65.3 C 14.1 65.7, 3.4 82.3, 13.8 84.1 Z" fill="none" fill-opacity="0.81" stroke="hsl(183, 71%, 60%)" stroke-width="3.70" filter="url(#f1)" transform="translate(75.7 11.6) rotate(177.1) scale(0.73 0.59)" />
<path d="M 97.6 6.6 C 100.0 1.9, 72.6 61.6, 68.7 54.7 C 51.9 59.0, 100.0 82.8, 91.8 72.1 C 75.5 72.3, 41.8 32.1, 51.5 33.0 C 38.6 46.7, 50.5 20.2, 63.8 15.3 C 66.6 5.4, 86.9 29.6, 74.9 21.0 C 76.3 40.8, 34.1 23.6, 44.9 35.1 C 60.0 18.8, 38.8 39.0, 45.4 29.0 C 55.1 29.6, 100.0 11.7, 89.3 24.4 Z" fill="hsl(83, 65%, 44%)" fill-opacity="0.26" stroke="none" stroke-width="2.30"  transform="translate(92.5 52.5) rotate(188.5) scale(0.91 1.65)" />
<path d="M 3.5 9.3 C 0.0 18.9, 51.0 49.0, 57.7 55.0 C 38.6 46.0, 43.5 6.6, 46.7 11.7 C 52.9 5.4, 53.2 44.8, 67.0 56.3 C 76.6 66.3, 68.2 53.3, 65.1 66.3 C 74.4 60.9, 13.6 50.6, 18.8 64.1 C 1.8 50.4, 47.3 62.3, 54.0 51.1 C 63.9 48.1, 32.5 59.8, 40.0 60.5 C 44.4 62.5, 54.2 32.3, 49.5 17.9 C 59.4 0.0, 74.9 1.6, 65.8 8.4 C 59.9 0.0, 26.7 90.9, 25.1 85.6 Z" fill="hsl(2, 82%, 55%)" fill-opacity="0.54" stroke="none" stroke-width="4.36"  transform="translate(17.9 15.2) rotate(324.4) scale(0.90 0.62)" />
<rect x="17.8" y="41.3" width="20.3" height="37.3" rx="8.1" fill="none" fill-opacity="0.35" stroke="hsl(106, 75%, 59%)" stroke-width="3.2"  transform="translate(49.2 11.0) rotate(266.8) scale(1.93 1.61)" />
<path d="M 29.5 36.8 C 16.1 39.9, 25.9 70.9, 15.8 81.7 C 32.5 93.2, 52.8 90.9, 55.3 77.6 C 43.7 70.1, 17.2 100.0, 30.6 95.0 C 16.9 93.9, 38.1 14.8, 32.2 9.8 C 28.5 14.0, 6.5 8.4, 7.9 3.4 C 21.3 0.0, 56.8 55.1, 52.7 48.8 C 44.0 39.3, 28.1 63.6, 15.6 69.5 Z" fill="none" fill-opacity="0.42" stroke="hsl(183, 71%, 60%)" stroke-width="2.90"  transform="translate(74.1 70.1) rotate(299.1) scale(1.20 1.03)" />
<rect x="26.8" y="7.9" width="48.0" height="35.6" rx="4.8" fill="none" fill-opacity="0.33"   transform="translate(11.3 81.0) rotate(58.9) scale(1.01 1.53)" />
<path d="M 25.1 67.8 C 43.1 70.0, 45.7 50.3, 33.4 56.4 C 31.2 76.2, 0.0 21.3, 0.5 8.8 C 0.0 19.8, 77.0 27.0, 72.6 17.6 C 56.9 14.0, 78.4 55.0, 63.8 42.5 C 61.9 43.4, 63.2 66.1, 75.7 78.8 C 69.6 88.0, 20.0 67.7, 18.4 56.7 Z" fill="none" fill-opacity="0.93" stroke="hsl(290, 83%, 63%)" stroke-width="3.03"  transform="translate(26.6 97.8) rotate(34.0) scale(1.90 1.95)" />
<rect x="42.3" y="30.3" width="47.0" height="33.7" rx="0" fill="none" fill-opacity="0.84"   transform="translate(8.0 7.4) rotate(93.6) scale(1.41 0.97)" />
<path d="M 59.9 98.1 C 72.8 82.4, 45.8 100.0, 48.0 93.5 C 34.3 93.6, 85.1 29.6, 94.9 43.5 C 83.8 26.3, 49.5 74.0, 43.5 71.8 C 46.8 86.3, 97.9 22.8, 83.2 28.8 C 94.3 24.5, 49.2 100.0, 48.7 98.5 C 64.5 100.0, 56.8 52.3, 54.9 41.4 C 37.9 30.6, 77.6 5.1, 65.0 3.6 C 48.9 10.1, 95.3 81.0, 83.0 89.8 C 79.8 97.4, 69.8 21.9, 71.6 21.2 Z" fill="none" fill-opacity="0.53" stroke="hsl(144, 86%, 72%)" stroke-width="3.00"  transform="translate(32.5 36.8) rotate(262.3) scale(1.57 1.20)" />
<path d="M 52.5 60.7 C 49.6 64.1, 0.0 36.7, 1.7 46.8 C 0.0 29.4, 28.9 0.0, 39.6 6.6 C 36.1 1.2, 60.0 55.9, 57.6 70.3 C 74.1 82.6, 100.0 99.3, 99.7 91.5 C 86.3 79.1, 52.2 63.4, 39.8 50.4 C 41.0 34.7, 0.0 62.4, 0.1 50.9 Z" fill="none" fill-opacity="0.50" stroke="hsl(322, 74%, 44%)" stroke-width="3.72"   />
<path d="M 70.6 28.2 C 53.9 33.3, 42.8 74.2, 38.5 65.4 C 33.9 49.5, 0.2 44.5, 14.3 44.6 C 10.1 59.1, 79.2 69.5, 79.6 70.2 C 77.1 73.0, 53.4 9.2, 48.7 9.4 C 37.5 17.9, 100.0 28.6, 93.8 20.5 C 100.0 29.6, 15.3 58.2, 30.0 58.5 C 34.0 76.3, 25.4 0.0, 12.1 12.6 C 0.0 8.8, 17.1 64.3, 15.4 65.1 C 12.5 48.0, 95.4 56.5, 85.1 43.4 C 93.7 29.1, 100.0 81.3, 97.3 81.5 Z" fill="none" fill-opacity="0.56" stroke="hsl(83, 65%, 44%)" stroke-width="4.00"  transform="translate(62.2 32.8) rotate(12.9) scale(0.90 0.96)" />
<g opacity="0.053">
<rect x="0" y="0" width="1" height="100" fill="black" />
<rect x="22" y="0" width="1" height="100" fill="black" />
<rect x="44" y="0" width="1" height="100" fill="black" />
<rect x="66" y="0" width="1" height="100" fill="black" />
<rect x="88" y="0" width="1" height="100" fill="black" />
<rect x="0" y="0" width="100" height="1" fill="black" />
<rect x="0" y="22" width="100" height="1" fill="black" />
<rect x="0" y="44" width="100" height="1" fill="black" />
<rect x="0" y="66" width="100" height="1" fill="black" />
<rect x="0" y="88" width="100" height="1" fill="black" />
</g>

</svg>
