<?xml version="1.0" encoding="UTF-8"?>
<svg xmlns="http://www.w3.org/2000/svg" width="100" height="100" viewBox="0 0 100 100">
<defs>
<linearGradient id="g0" x1="0%" y1="0%" x2="100%" y2="100%">
<stop offset="0.0%" stop-color="hsl(106, 75%, 59%)" />
<stop offset="33.3%" stop-color="hsl(183, 71%, 60%)" />
<stop offset="66.7%" stop-color="hsl(242, 72%, 49%)" />
<stop offset="100.0%" stop-color="hsl(322, 74%, 44%)" />
</linearGradient>
<linearGradient id="g1" x1="0%" y1="0%" x2="100%" y2="100%">
<stop offset="0.0%" stop-color="hsl(290, 83%, 63%)" />
<stop offset="33.3%" stop-color="hsl(2, 82%, 55%)" />
<stop offset="66.7%" stop-color="hsl(86, 72%, 68%)" />
<stop offset="100.0%" stop-color="hsl(83, 65%, 44%)" />
</linearGradient>
<linearGradient id="g2" x1="0%" y1="0%" x2="100%" y2="100%">
<stop offset="0.0%" stop-color="hsl(40, 53%, 69%)" />
<stop offset="33.3%" stop-color="hsl(104, 72%, 65%)" />
<stop offset="66.7%" stop-color="hsl(144, 86%, 72%)" />
<stop offset="100.0%" stop-color="hsl(151, 70%, 62%)" />
</linearGradient>
</defs>

<path d="M 14.5 17.0 C 32.4 0.0, 100.0 67.6, 98.4 59.1 C 78.6 39.4, 11.1 2.4, 9.6 13.3 C 0.0 23.5, 2.4 14.9, 7.0 23.1 C 3.9 22.0, 21.4 29.3, 8.1 41.1 C 3.8 35.2, 8.7 13.2, 7.9 26.6 C 21.5 17.7, 35.0 93.3, 45.4 99.9 Z" fill="hsl(290, 83%, 63%)" fill-opacity="0.47" stroke="none" stroke-width="0.91"   />
<rect x="53.6" y="20.3" width="39.3" height="28.0" rx="16.3" fill="none" fill-opacity="0.88"    />
<path d="M 43.0 33.6 C 43.3 22.6, 86.3 18.0, 94.1 32.4 C 100.0 50.0, 31.9 17.2, 42.2 19.7 C 34.7 0.8, 24.6 27.1, 28.6 34.6 " fill="hsl(104, 72%, 65%)" fill-opacity="0.52" stroke="none" stroke-width="1.08"  transform="translate(90.7 85.2) rotate(185.8) scale(1.97 1.97)" />
<rect x="73.3" y="46.3" width="25.2" height="38.7" rx="2.3" fill="none" fill-opacity="0.49"   transform="translate(42.0 58.8) rotate(206.9) scale(1.29 1.89)" />
<path d="M 29.4 82.6 C 35.7 82.0, 75.0 71.1, 64.7 59.6 C 48.4 60.5, 30.2 80.6, 19.9 77.9 C 12.2 76.8, 40.2 97.8, 54.6 92.8 C 68.0 100.0, 78.7 65.5, 89.7 61.9 C 84.9 67.9, 52.6 53.0, 53.0 53.3 C 48.8 71.8, 4.6 77.8, 14.9 67.7 C 29.2 54.6, 15.0 87.9, 26.0 97.3 " fill="hsl(40, 53%, 69%)" fill-opacity="0.27" stroke="none" stroke-width="0.92"   />
<path d="M 70.9 77.8 C 81.5 66.3, 100.0 62.8, 93.3 61.0 C 78.3 70.1, 26.0 90.8, 35.8 85.1 C 36.3 87.2, 73.5 78.7, 86.8 86.7 C 86.4 99.8, 9.5 18.4, 5.0 4.4 C 13.5 13.2, 13.7 13.8, 21.1 26.2 C 32.1 38.6, 15.6 71.0, 15.8 57.0 C 3.2 56.1, 36.2 14.8, 43.3 7.5 Z" fill="none" fill-opacity="0.88" stroke="hsl(242, 72%, 49%)" stroke-width="1.19"   />
<circle cx="30.5" cy="3.1" r="0.7" fill="hsl(86, 72%, 68%)" fill-opacity="0.55"   />
<path d="M 20.0 30.1 C 22.0 38.5, 88.3 50.8, 88.3 53.2 C 80.9 44.6, 9.1 62.1, 17.5 51.1 C 3.3 51.9, 28.8 13.0, 18.6 21.5 C 18.7 4.1, 95.3 23.6, 87.5 17.0 C 100.0 0.0, 18.0 41.2, 8.3 28.2 C 10.1 11.7, 88.1 96.6, 94.7 82.7 C 100.0 73.4, 46.4 75.0, 34.4 84.4 " fill="none" fill-opacity="0.81" stroke="hsl(322, 74%, 44%)" stroke-width="1.25"  transform="translate(35.5 79.0) rotate(26.8) scale(1.78 1.51)" />
<path d="M 98.9 33.3 C 93.3 14.2, 44.6 84.3, 34.3 84.7 C 27.5 81.2, 13.1 93.9, 23.5 88.5 C 14.3 76.7, 56.5 25.3, 49.2 36.6 C 59.9 27.1, 32.8 46.6, 38.1 57.8 Z" fill="hsl(183, 71%, 60%)" fill-opacity="0.55" stroke="none" stroke-width="0.99"  transform="translate(25.5 67.7) rotate(329.1) scale(0.51 0.51)" />
<rect x="22.3" y="26.4" width="31.9" height="33.7" rx="0" fill="hsl(40, 53%, 69%)" fill-opacity="0.63"   transform="translate(69.0 60.6) rotate(217.0) scale(1.83 1.62)" />
<path d="M 8.5 71.8 C 8.4 66.8, 84.0 22.3, 90.1 21.8 C 90.1 32.4, 7.7 21.6, 10.3 34.4 C 9.5 19.1, 79.8 92.3, 87.8 88.8 " fill="hsl(290, 83%, 63%)" fill-opacity="0.50" stroke="none" stroke-width="0.89"  transform="translate(0.3 48.6) rotate(344.2) scale(1.73 1.95)" />
<rect x="52.8" y="13.8" width="44.0" height="19.7" rx="9.1" fill="none" fill-opacity="0.20"   transform="translate(59.2 53.6) rotate(50.7) scale(0.79 0.64)" />
<path d="M 31.5 39.7 C 41.9 20.5, 78.7 29.5, 68.7 44.0 C 52.9 29.4, 44.6 100.0, 38.0 99.3 C 21.6 95.1, 0.0 6.7, 0.9 4.0 " fill="none" fill-opacity="0.73" stroke="hsl(242, 72%, 49%)" stroke-width="1.20"  transform="translate(58.6 97.5) rotate(95.1) scale(1.57 1.69)" />
<rect x="33.6" y="7.2" width="34.2" height="25.8" rx="0" fill="none" fill-opacity="0.57"   transform="translate(98.2 24.0) rotate(126.5) scale(1.57 1.85)" />
<path d="M 65.3 7.3 C 61.8 10.1, 59.7 94.9, 51.1 81.5 C 34.5 68.3, 63.9 38.6, 51.7 37.7 C 57.1 50.4, 14.7 88.4, 24.9 97.5 C 5.0 86.1, 88.3 68.4, 87.2 79.8 C 67.7 91.7, 96.5 37.4, 92.7 30.9 C 88.7 26.6, 63.0 68.2, 68.4 72.5 C 60.7 82.1, 63.9 62.1, 73.2 50.9 " fill="hsl(151, 70%, 62%)" fill-opacity="0.27" stroke="none" stroke-width="0.86"  transform="translate(79.3 84.2) rotate(287.7) scale(2.00 1.61)" />
</svg>
