<?xml version="1.0" encoding="UTF-8"?>
<svg xmlns="http://www.w3.org/2000/svg" width="100" height="100" viewBox="0 0 100 100">
<defs>
<linearGradient id="g0" x1="0%" y1="0%" x2="100%" y2="100%">
<stop offset="0.0%" stop-color="hsl(106, 75%, 59%)" />
<stop offset="33.3%" stop-color="hsl(183, 71%, 60%)" />
<stop offset="66.7%" stop-color="hsl(242, 72%, 49%)" />
<stop offset="100.0%" stop-color="hsl(322, 74%, 44%)" />
</linearGradient>
<linearGradient id="g1" x1="0%" y1="0%" x2="100%" y2="100%">
<stop offset="0.0%" stop-color="hsl(290, 83%, 63%)" />
<stop offset="33.3%" stop-color="hsl(2, 82%, 55%)" />
<stop offset="66.7%" stop-color="hsl(86, 72%, 68%)" />
<stop offset="100.0%" stop-color="hsl(83, 65%, 44%)" />
</linearGradient>
<linearGradient id="g2" x1="0%" y1="0%" x2="100%" y2="100%">
<stop offset="0.0%" stop-color="hsl(40, 53%, 69%)" />
<stop offset="33.3%" stop-color="hsl(104, 72%, 65%)" />
<stop offset="66.7%" stop-color="hsl(144, 86%, 72%)" />
<stop offset="100.0%" stop-color="hsl(151, 70%, 62%)" />
</linearGradient>
<filter id="f1" x="-20%" y="-20%" width="140%" height="140%">
  <feGaussianBlur stdDeviation="1.6447766324243374" />
</filter>

</defs>

<rect x="9.3" y="38.9" width="47.2" height="15.8" rx="0" fill="none" fill-opacity="0.45" stroke="hsl(83, 65%, 44%)" stroke-width="4.5"   />
<circle cx="51.0" cy="89.3" r="19.8" fill="url(#g0)" fill-opacity="0.70" filter="url(#f1)" transform="translate(65.5 71.2) rotate(43.4) scale(0.99 1.64)" />
<path d="M 52.1 61.7 C 54.0 79.1, 96.0 31.9, 81.3 34.0 C 74.3 30.4, 26.5 66.1, 23.6 71.9 C 8.1 80.2, 46.9 100.0, 32.1 92.1 C 18.2 100.0, 66.4 6.7, 71.4 17.7 C 63.2 36.1, 10.4 36.1, 21.1 50.9 C 40.2 36.4, 0.3 21.4, 5.9 10.5 C 1.8 3.7, 65.7 8.7, 72.9 14.4 Z" fill="none" fill-opacity="0.93" stroke="hsl(183, 71%, 60%)" stroke-width="1.53"  transform="translate(15.4 52.6) rotate(125.4) scale(1.90 1.40)" />
<rect x="29.7" y="8.2" width="37.8" height="37.9" rx="11.6" fill="hsl(144, 86%, 72%)" fill-opacity="0.40" stroke="hsl(40, 53%, 69%)" stroke-width="2.7"  transform="translate(63.8 16.5) rotate(178.0) scale(1.91 1.11)" />
<path d="M 76.3 33.0 C 72.3 38.3, 75.4 47.0, 72.1 61.7 C 87.1 77.2, 63.6 33.1, 66.1 47.1 C 52.3 52.4, 65.7 43.7, 65.9 39.9 C 84.7 44.9, 5.6 64.4, 7.5 77.9 C 4.7 64.5, 34.5 80.6, 48.3 92.4 C 68.2 100.0, 93.2 87.9, 80.3 89.5 C 92.3 92.1, 79.2 13.1, 86.5 14.4 C 100.0 3.1, 43.3 27.5, 57.5 14.0 C 60.6 13.4, 93.3 68.4, 83.4 63.1 Z" fill="none" fill-opacity="0.98" stroke="hsl(151, 70%, 62%)" stroke-width="2.07"  transform="translate(12.4 30.1) rotate(343.3) scale(1.49 1.93)" />
<path d="M 55.8 33.3 C 73.8 21.6, 7.5 22.5, 22.2 26.4 C 17.6 36.3, 0.0 64.3, 7.3 65.4 C 15.5 55.6, 49.1 6.5, 47.4 18.3 C 35.7 32.3, 80.8 16.9, 79.0 13.8 C 82.4 9.3, 96.6 100.0, 90.5 96.4 C 91.6 100.0, 99.3 27.2, 91.5 21.8 Z" fill="hsl(322, 74%, 44%)" fill-opacity="0.69" stroke="none" stroke-width="1.81"  transform="translate(11.9 2.8) rotate(105.0) scale(1.63 0.64)" />
<circle cx="43.2" cy="49.6" r="6.5" fill="url(#g0)" fill-opacity="0.66"  transform="translate(94.9 30.7) rotate(43.2) scale(0.92 1.10)" />
<circle cx="57.3" cy="21.9" r="0.4" fill="hsl(104, 72%, 65%)" fill-opacity="0.53"  transform="translate(1.8 81.0) rotate(75.0) scale(0.85 1.77)" />
<rect x="3.0" y="28.2" width="47.7" height="39.5" rx="0" fill="none" fill-opacity="0.30"   transform="translate(64.9 80.2) rotate(0.1) scale(1.69 0.62)" />
<circle cx="81.1" cy="90.4" r="1.5" fill="url(#g1)" fill-opacity="0.54" filter="url(#f1)" transform="translate(54.7 85.2) rotate(330.7) scale(1.08 1.14)" />
<circle cx="37.7" cy="9.1" r="3.3" fill="url(#g1)" fill-opacity="0.81"   />
<path d="M 14.5 2.2 C 30.5 12.3, 5.8 83.4, 8.5 70.9 C 25.9 71.1, 67.4 69.6, 67.2 64.1 C 53.9 62.9, 32.6 91.1, 38.4 92.8 C 40.6 90.5, 77.7 100.0, 66.4 86.7 C 78.4 96.0, 14.9 26.5, 12.3 20.3 C 7.5 11.0, 43.9 40.0, 36.3 50.4 C 34.7 70.0, 75.4 21.4, 72.0 7.3 C 75.3 0.0, 53.0 56.4, 53.6 55.9 C 55.3 74.5, 86.2 77.3, 90.2 78.9 C 84.4 90.6, 35.6 98.1, 24.6 96.1 Z" fill="hsl(183, 71%, 60%)" fill-opacity="0.62" stroke="none" stroke-width="1.83" filter="url(#f1)"  />
<path d="M 65.2 4.7 C 79.3 0.0, 8.6 15.1, 5.9 24.8 C 7.5 26.8, 2.0 31.3, 15.6 38.7 C 0.0 55.7, 70.6 33.7, 66.4 36.4 C 81.1 20.9, 86.3 61.3, 92.7 72.7 C 91.9 77.3, 94.2 0.0, 87.9 10.1 C 90.3 0.0, 54.4 75.2, 40.8 87.3 C 45.8 78.9, 91.9 5.0, 89.1 16.2 C 100.0 0.0, 54.5 85.6, 62.4 97.9 " fill="hsl(104, 72%, 65%)" fill-opacity="0.39" stroke="none" stroke-width="1.62"  transform="translate(63.4 79.8) rotate(250.6) scale(1.83 1.30)" />
<circle cx="46.7" cy="84.1" r="1.8" fill="hsl(322, 74%, 44%)" fill-opacity="0.53"   />
<rect x="6.3" y="18.1" width="33.5" height="28.9" rx="7.2" fill="hsl(183, 71%, 60%)" fill-opacity="0.30"  filter="url(#f1)" transform="translate(21.0 45.1) rotate(0.8) scale(0.62 1.44)" />
<circle cx="26.9" cy="23.7" r="8.8" fill="hsl(106, 75%, 59%)" fill-opacity="0.89"  transform="translate(52.3 52.6) rotate(226.0) scale(1.28 1.41)" />
<path d="M 96.2 52.2 C 78.5 64.7, 88.4 22.4, 76.9 34.0 C 86.6 45.0, 72.6 87.7, 82.9 79.5 C 97.5 76.7, 11.3 0.0, 26.2 1.5 C 43.0 12.5, 87.4 20.4, 98.9 26.5 C 100.0 21.9, 56.2 46.8, 52.8 48.5 C 41.9 34.5, 22.7 38.8, 12.5 38.6 C 24.0 51.5, 58.1 58.2, 67.3 52.4 C 76.6 43.6, 55.3 50.4, 47.6 44.7 " fill="hsl(2, 82%, 55%)" fill-opacity="0.64" stroke="none" stroke-width="2.29"  transform="translate(45.3 16.9) rotate(70.7) scale(1.25 0.99)" />
<path d="M 59.6 21.2 C 47.0 9.1, 2.6 53.0, 13.3 43.2 C 6.9 47.0, 68.7 77.3, 67.7 63.3 C 79.7 50.0, 81.5 65.6, 70.9 73.6 C 72.5 62.6, 30.3 13.0, 22.8 2.0 C 21.4 6.9, 31.6 92.3, 38.7 92.4 C 34.1 90.3, 83.5 56.0, 74.2 49.7 C 87.4 46.6, 0.0 63.7, 11.1 53.2 Z" fill="hsl(106, 75%, 59%)" fill-opacity="0.43" stroke="none" stroke-width="2.98"  transform="translate(73.0 44.7) rotate(61.7) scale(0.86 1.08)" />
<rect x="3.4" y="1.8" width="26.2" height="35.5" rx="0" fill="none" fill-opacity="0.84" stroke="hsl(104, 72%, 65%)" stroke-width="3.6"  transform="translate(63.3 37.1) rotate(42.7) scale(0.54 1.55)" />
<path d="M 58.2 26.6 C 59.5 30.6, 63.1 18.2, 72.4 6.3 C 88.5 0.0, 90.2 92.6, 89.1 98.5 C 69.4 85.2, 1.9 44.4, 3.2 45.2 C 12.5 59.5, 31.0 35.8, 33.0 34.7 C 49.6 29.0, 32.2 69.5, 29.1 62.8 C 38.5 53.2, 85.3 31.2, 84.4 31.3 C 64.5 43.5, 65.9 81.5, 77.8 91.4 C 97.0 87.3, 100.0 61.9, 95.5 59.0 Z" fill="hsl(144, 86%, 72%)" fill-opacity="0.35" stroke="none" stroke-width="1.01"   />
<path d="M 34.0 60.9 C 17.6 50.2, 90.0 71.6, 80.7 71.1 C 66.1 76.2, 77.5 98.9, 69.4 85.8 C 69.4 92.8, 8.9 100.0, 23.3 96.7 C 13.5 100.0, 71.3 26.9, 78.6 13.3 C 89.6 15.8, 91.8 43.5, 96.9 34.5 C 80.9 27.6, 32.7 15.3, 22.1 23.4 C 32.5 23.2, 57.6 75.0, 49.5 60.1 C 34.8 65.4, 100.0 0.0, 93.9 4.1 C 100.0 12.7, 89.9 75.6, 81.6 85.3 C 99.6 85.0, 23.4 34.3, 21.6 33.9 Z" fill="none" fill-opacity="0.96" stroke="hsl(106, 75%, 59%)" stroke-width="3.37" filter="url(#f1)" transform="translate(35.0 31.8) rotate(15.3) scale(1.73 0.83)" />
<rect x="9.7" y="44.9" width="47.5" height="19.2" rx="3.2" fill="none" fill-opacity="0.43"  filter="url(#f1)" transform="translate(94.0 3.5) rotate(64.4) scale(1.68 0.61)" />
<rect x="7.6" y="29.9" width="46.6" height="33.0" rx="0" fill="none" fill-opacity="0.92"   transform="translate(30.6 65.8) rotate(102.1) scale(0.95 1.29)" />
<rect x="9.7" y="30.8" width="49.3" height="36.2" rx="0" fill="hsl(151, 70%, 62%)" fill-opacity="0.44" stroke="hsl(151, 70%, 62%)" stroke-width="2.9"  transform="translate(69.7 55.9) rotate(105.2) scale(1.44 1.49)" />
<path d="M 17.4 84.5 C 16.6 83.3, 100.0 18.9, 98.4 19.9 C 97.4 4.5, 0.0 85.9, 1.5 75.3 C 0.0 86.9, 38.0 5.5, 33.3 2.5 C 22.3 21.8, 25.4 3.3, 37.5 7.1 C 19.1 0.0, 54.6 29.1, 66.0 21.4 C 83.5 39.6, 8.1 85.4, 15.5 93.6 C 17.3 88.7, 86.3 56.6, 73.6 50.5 Z" fill="none" fill-opacity="0.93" stroke="hsl(322, 74%, 44%)" stroke-width="3.32"  transform="translate(74.8 29.8) rotate(357.2) scale(1.94 1.86)" />
<path d="M 33.2 84.2 C 26.7 72.1, 83.7 59.1, 75.5 55.4 C 94.2 43.2, 75.2 43.8, 67.9 30.1 C 57.1 14.5, 58.7 42.8, 64.7 31.6 C 63.7 51.0, 82.4 52.1, 79.5 41.2 C 76.9 59.3, 92.9 66.5, 90.6 75.7 C 79.5 71.2, 2.5 47.2, 12.8 47.7 C 3.3 44.0, 81.0 24.6, 83.2 23.9 C 100.0 24.9, 32.8 32.9, 30.9 23.3 C 22.6 34.6, 34.8 57.7, 43.0 53.8 C 34.3 44.0, 17.2 80.9, 31.0 95.0 Z" fill="hsl(2, 82%, 55%)" fill-opacity="0.66" stroke="none" stroke-width="1.07"  transform="translate(22.3 27.4) rotate(127.3) scale(1.95 0.60)" />
<rect x="24.7" y="51.2" width="48.0" height="36.9" rx="18.6" fill="none" fill-opacity="0.79"   transform="translate(57.2 65.3) rotate(34.5) scale(1.56 0.58)" />
<rect x="64.5" y="16.6" width="21.5" height="23.3" rx="16.3" fill="hsl(144, 86%, 72%)" fill-opacity="0.39"   transform="translate(73.0 78.3) rotate(213.2) scale(1.89 1.31)" />
<circle cx="64.3" cy="64.1" r="4.0" fill="hsl(106, 75%, 59%)" fill-opacity="0.82"  transform="translate(88.2 70.6) rotate(47.7) scale(1.56 0.53)" />
<rect x="12.3" y="63.8" width="36.9" height="28.7" rx="0" fill="none" fill-opacity="0.49"   transform="translate(90.0 24.1) rotate(334.0) scale(1.21 1.36)" />
<rect x="47.2" y="41.6" width="38.3" height="30.7" rx="0" fill="none" fill-opacity="0.63"   transform="translate(81.3 21.1) rotate(332.8) scale(1.04 1.04)" />
<rect x="16.2" y="49.5" width="23.3" height="25.8" rx="0" fill="hsl(106, 75%, 59%)" fill-opacity="0.90" stroke="hsl(106, 75%, 59%)" stroke-width="1.2" filter="url(#f1)" transform="translate(8.5 46.7) rotate(296.9) scale(0.58 1.42)" />
<circle cx="42.8" cy="86.9" r="4.0" fill="hsl(40, 53%, 69%)" fill-opacity="0.59"  transform="translate(5.7 13.7) rotate(184.1) scale(0.92 0.79)" />
<path d="M 97.1 99.1 C 100.0 95.7, 79.3 41.4, 66.9 45.5 C 67.3 41.5, 77.8 70.8, 83.5 74.4 C 83.9 83.0, 100.0 22.6, 96.4 33.9 C 93.0 40.7, 48.6 54.9, 44.9 63.5 C 59.5 63.5, 85.9 26.3, 94.5 31.9 C 100.0 16.9, 37.2 33.8, 50.0 24.0 C 68.1 28.2, 65.7 23.2, 71.6 34.1 C 83.0 31.9, 13.4 18.5, 5.5 30.1 C 17.0 15.8, 49.2 89.5, 59.4 76.7 Z" fill="hsl(151, 70%, 62%)" fill-opacity="0.49" stroke="none" stroke-width="2.41"  transform="translate(81.0 56.7) rotate(278.2) scale(1.48 1.62)" />
<circle cx="59.8" cy="26.2" r="5.2" fill="hsl(242, 72%, 49%)" fill-opacity="0.94"  transform="translate(70.1 43.7) rotate(333.4) scale(0.80 0.62)" />
<rect x="66.0" y="65.3" width="29.4" height="13.0" rx="0" fill="none" fill-opacity="0.68"   transform="translate(8.3 56.6) rotate(292.8) scale(0.84 1.02)" />
<path d="M 38.3 70.9 C 29.2 67.7, 15.2 8.5, 23.4 2.2 C 12.4 0.0, 76.1 8.7, 89.4 7.1 C 69.5 0.0, 19.0 0.0, 16.1 2.4 C 15.9 19.1, 41.6 52.1, 39.2 38.3 C 43.0 45.1, 18.3 14.2, 12.6 14.2 C 0.0 10.8, 0.0 58.7, 0.4 47.4 Z" fill="hsl(83, 65%, 44%)" fill-opacity="0.76" stroke="none" stroke-width="2.62"  transform="translate(6.3 98.4) rotate(54.2) scale(0.92 0.72)" />
<path d="M 8.7 58.4 C 8.0 61.0, 69.7 47.0, 67.2 37.0 C 63.8 22.6, 16.3 42.8, 21.8 32.4 C 23.5 23.0, 70.2 38.6, 67.4 25.7 C 49.6 19.0, 69.2 0.0, 60.0 12.0 C 67.5 24.6, 3.0 79.3, 3.4 65.4 C 0.0 57.4, 38.6 66.2, 29.8 59.4 C 37.8 68.4, 30.5 24.1, 37.9 22.5 C 26.1 22.0, 11.5 23.4, 2.1 36.4 C 0.0 50.8, 63.0 0.0, 71.0 3.2 " fill="hsl(242, 72%, 49%)" fill-opacity="0.65" stroke="none" stroke-width="4.24"   />
<path d="M 73.7 47.0 C 63.5 59.0, 84.7 46.0, 75.1 34.5 C 57.3 27.4, 45.4 78.5, 57.9 70.5 C 51.7 59.5, 32.6 0.0, 31.8 1.6 C 40.6 11.6, 97.1 31.1, 93.5 28.6 C 99.2 14.7, 0.0 84.5, 5.3 98.5 C 16.9 100.0, 38.2 28.0, 33.3 18.2 C 19.4 24.1, 62.6 60.7, 69.1 57.6 C 56.2 56.9, 29.5 44.2, 25.7 45.3 C 37.1 29.6, 28.6 21.5, 16.9 8.8 C 22.6 0.0, 61.6 65.5, 58.2 58.7 Z" fill="none" fill-opacity="0.70" stroke="hsl(144, 86%, 72%)" stroke-width="4.20"  transform="translate(12.1 23.2) rotate(133.4) scale(0.51 1.96)" />
<path d="M 56.8 98.3 C 39.6 80.3, 71.1 64.8, 61.9 66.9 C 45.4 72.9, 76.9 3.1, 62.8 14.1 C 65.9 18.8, 92.0 86.7, 99.8 74.5 C 100.0 84.5, 74.5 54.0, 84.2 54.6 C 75.6 37.7, 19.0 35.4, 33.5 38.0 C 25.9 26.5, 95.1 36.8, 94.1 22.9 C 100.0 17.0, 2.1 36.5, 2.2 22.1 Z" fill="hsl(83, 65%, 44%)" fill-opacity="0.81" stroke="none" stroke-width="1.89"  transform="translate(63.3 42.8) rotate(47.7) scale(1.06 1.38)" />
<path d="M 37.4 46.4 C 45.4 31.3, 5.6 78.6, 18.1 79.6 C 26.5 76.9, 0.0 78.5, 4.5 85.7 C 17.5 100.0, 74.0 6.1, 60.0 15.0 C 79.1 4.9, 56.2 50.9, 48.1 48.1 C 66.0 34.9, 3.0 74.5, 5.4 74.8 C 17.5 60.2, 21.6 48.4, 32.6 47.8 C 25.0 62.5, 87.5 22.4, 91.0 21.8 C 72.0 33.3, 87.2 28.8, 95.1 34.7 C 89.5 23.4, 44.5 97.2, 59.3 82.4 C 56.6 94.7, 57.4 14.6, 67.4 14.2 Z" fill="hsl(242, 72%, 49%)" fill-opacity="0.73" stroke="none" stroke-width="1.91"  transform="translate(10.9 28.7) rotate(342.8) scale(1.26 1.53)" />
<rect x="30.5" y="36.8" width="34.0" height="39.3" rx="0" fill="none" fill-opacity="0.54"   transform="translate(87.6 51.6) rotate(273.3) scale(1.12 1.86)" />
<path d="M 20.4 43.2 C 19.2 46.2, 0.0 6.0, 8.9 9.6 C 0.0 0.7, 25.5 23.6, 33.6 35.1 C 19.1 36.3, 38.3 27.9, 51.0 25.4 C 65.8 31.5, 64.5 50.7, 78.9 59.5 C 83.3 57.8, 11.8 29.0, 5.9 16.7 C 0.0 0.0, 88.5 53.6, 98.0 55.3 C 100.0 41.3, 76.7 69.1, 62.7 63.8 " fill="none" fill-opacity="0.70" stroke="hsl(40, 53%, 69%)" stroke-width="1.25"  transform="translate(39.9 70.0) rotate(60.3) scale(1.15 0.71)" />
<path d="M 40.9 84.2 C 51.4 96.6, 93.2 64.3, 87.1 78.6 C 87.4 95.5, 53.4 44.7, 59.9 42.1 C 76.8 40.0, 21.8 9.2, 29.9 8.2 C 22.5 0.0, 73.4 82.9, 76.9 78.4 C 79.5 87.8, 38.2 100.0, 38.5 87.6 C 39.5 85.2, 26.2 15.2, 18.9 14.2 C 12.3 10.6, 57.5 17.9, 44.1 12.2 C 59.0 0.0, 27.2 10.8, 18.0 0.8 C 0.0 10.2, 44.9 100.0, 40.3 95.7 C 32.1 91.1, 48.4 2.8, 61.7 9.0 Z" fill="none" fill-opacity="0.99" stroke="hsl(2, 82%, 55%)" stroke-width="3.59"  transform="translate(85.5 96.8) rotate(47.3) scale(1.27 1.15)" />
<path d="M 33.6 56.2 C 47.2 68.5, 36.8 0.0, 42.0 3.7 C 29.9 0.0, 8.5 35.9, 15.4 24.3 C 13.1 24.0, 51.4 56.3, 36.6 58.8 C 46.9 69.7, 69.5 73.5, 68.0 81.6 C 65.4 78.2, 98.0 92.1, 84.7 77.8 C 72.6 77.9, 26.1 81.0, 33.1 93.8 C 25.1 100.0, 4.4 5.8, 16.0 6.4 C 4.2 16.6, 44.1 36.4, 30.2 35.9 C 27.6 16.7, 66.5 82.6, 78.2 69.6 Z" fill="none" fill-opacity="0.35" stroke="hsl(83, 65%, 44%)" stroke-width="1.04"  transform="translate(71.2 82.3) rotate(129.5) scale(1.36 1.60)" />
<rect x="36.7" y="10.3" width="46.9" height="32.0" rx="0" fill="hsl(83, 65%, 44%)" fill-opacity="0.83" stroke="hsl(290, 83%, 63%)" stroke-width="2.0" filter="url(#f1)" transform="translate(8.9 28.3) rotate(292.3) scale(1.87 1.30)" />
<path d="M 21.5 93.5 C 25.2 100.0, 86.5 46.5, 78.5 41.2 C 72.0 50.2, 51.6 5.0, 36.8 18.2 C 37.7 28.6, 67.4 25.0, 69.8 10.1 C 84.3 0.0, 11.8 16.5, 16.0 13.2 C 32.7 0.0, 53.8 62.2, 39.5 55.2 C 28.4 58.9, 61.2 94.5, 53.9 97.9 C 36.4 100.0, 20.2 26.7, 29.2 21.1 Z" fill="hsl(144, 86%, 72%)" fill-opacity="0.82" stroke="none" stroke-width="3.32"  transform="translate(77.6 9.3) rotate(341.7) scale(1.70 1.64)" />
<path d="M 62.8 48.6 C 44.7 62.4, 31.4 49.7, 41.4 61.1 C 25.3 62.1, 26.8 34.0, 15.6 28.7 C 13.0 38.4, 37.2 80.6, 43.9 93.9 C 28.6 100.0, 91.6 10.9, 83.9 9.1 C 95.1 16.8, 22.5 34.9, 29.3 23.8 C 12.8 9.7, 43.7 97.6, 40.9 93.7 C 43.6 100.0, 47.7 12.6, 45.9 12.1 Z" fill="none" fill-opacity="0.42" stroke="hsl(2, 82%, 55%)" stroke-width="3.87"  transform="translate(12.1 14.6) rotate(310.8) scale(1.76 0.65)" />
<rect x="15.8" y="59.3" width="44.1" height="29.0" rx="0" fill="none" fill-opacity="1.00" stroke="hsl(83, 65%, 44%)" stroke-width="1.5"  transform="translate(67.7 85.5) rotate(275.0) scale(1.79 1.64)" />
<path d="M 5.0 94.4 C 19.3 100.0, 55.9 57.0, 61.6 42.1 C 67.0 30.4, 35.4 57.6, 38.3 63.2 C 22.3 44.6, 11.3 27.6, 22.1 12.8 C 33.4 12.5, 33.5 98.1, 26.7 83.6 C 34.5 76.2, 47.6 30.6, 50.1 27.9 C 34.8 23.4, 30.7 40.8, 26.2 36.5 C 24.0 35.4, 100.0 92.5, 91.4 88.4 C 100.0 88.2, 5.9 59.7, 12.4 49.2 C 5.8 39.3, 39.8 65.5, 35.3 54.2 C 40.3 50.0, 83.9 53.3, 83.4 45.3 Z" fill="none" fill-opacity="0.46" stroke="hsl(106, 75%, 59%)" stroke-width="1.27"   />
<path d="M 57.0 1.2 C 44.7 19.0, 23.1 30.5, 24.6 29.3 C 17.3 30.5, 41.6 54.5, 30.0 49.7 C 23.1 51.0, 77.6 52.8, 73.2 66.6 C 86.9 53.6, 100.0 80.7, 95.8 73.1 C 100.0 91.5, 20.5 56.6, 27.2 56.4 C 24.0 68.1, 19.0 96.4, 9.1 97.6 Z" fill="hsl(183, 71%, 60%)" fill-opacity="0.67" stroke="none" stroke-width="4.14"  transform="translate(20.4 28.8) rotate(258.1) scale(1.37 1.81)" />
<path d="M 45.1 13.7 C 41.4 5.8, 85.9 13.2, 75.3 16.4 C 65.8 17.5, 28.1 18.1, 26.9 32.7 C 41.9 13.1, 78.0 8.9, 63.8 21.1 C 62.8 34.4, 99.8 6.7, 94.0 2.3 C 92.8 0.5, 42.1 22.9, 51.0 15.9 C 61.1 29.7, 80.4 60.0, 72.1 72.2 C 89.7 83.9, 4.9 52.4, 16.5 66.0 C 25.3 84.2, 27.9 98.8, 29.2 83.8 Z" fill="hsl(86, 72%, 68%)" fill-opacity="0.71" stroke="none" stroke-width="1.31"  transform="translate(78.1 34.4) rotate(314.0) scale(1.31 1.13)" />
<circle cx="4.9" cy="50.7" r="3.8" fill="url(#g0)" fill-opacity="0.55"  transform="translate(88.1 20.7) rotate(108.0) scale(1.87 1.94)" />
<rect x="17.0" y="73.4" width="44.4" height="18.2" rx="0" fill="none" fill-opacity="0.32"   transform="translate(84.1 47.2) rotate(9.5) scale(0.81 0.57)" />
<path d="M 28.7 36.8 C 37.2 44.4, 50.3 66.5, 62.2 71.8 C 58.0 75.2, 68.6 44.0, 83.4 45.2 C 69.1 38.1, 100.0 28.7, 93.6 21.2 C 96.9 36.0, 35.7 51.5, 28.9 45.8 C 48.1 58.3, 99.2 27.7, 85.4 32.6 C 87.1 23.3, 20.6 37.0, 21.9 38.3 C 29.2 28.9, 14.0 0.0, 27.1 0.9 C 38.6 0.0, 14.1 100.0, 11.8 99.2 C 16.8 96.3, 51.3 93.9, 52.1 91.8 Z" fill="none" fill-opacity="0.86" stroke="hsl(183, 71%, 60%)" stroke-width="3.05"  transform="translate(31.9 51.5) rotate(24.5) scale(0.96 1.51)" />
<path d="M 31.0 14.6 C 35.8 19.3, 62.1 95.6, 62.8 81.1 C 62.6 89.1, 29.4 95.7, 36.6 89.6 C 27.0 86.3, 57.2 42.0, 67.4 55.4 C 53.6 51.2, 84.4 69.1, 73.8 64.4 C 54.8 73.0, 100.0 94.2, 98.7 94.7 C 81.9 95.5, 71.4 100.0, 72.5 87.5 C 73.5 100.0, 45.1 19.9, 30.6 14.4 C 34.7 2.3, 53.7 25.5, 48.4 13.3 C 49.2 13.5, 66.6 89.9, 78.9 86.2 Z" fill="none" fill-opacity="0.45" stroke="hsl(144, 86%, 72%)" stroke-width="1.88" filter="url(#f1)" transform="translate(82.0 50.6) rotate(222.1) scale(1.22 0.99)" />
<path d="M 85.0 73.9 C 96.6 72.5, 85.3 14.1, 82.1 16.3 C 64.6 23.1, 0.0 22.9, 2.4 36.2 C 14.1 46.9, 43.7 39.2, 57.3 48.8 C 64.8 45.1, 64.1 52.5, 60.3 62.7 C 51.9 79.3, 100.0 69.9, 95.8 57.3 C 100.0 66.7, 48.9 83.3, 59.0 96.4 C 64.2 100.0, 68.7 78.5, 66.5 84.2 C 59.2 100.0, 60.2 35.0, 56.4 29.3 C 57.8 34.3, 93.6 92.7, 99.2 85.4 Z" fill="none" fill-opacity="0.27" stroke="hsl(144, 86%, 72%)" stroke-width="1.05"  transform="translate(12.7 45.3) rotate(229.4) scale(1.80 1.26)" />
<rect x="49.8" y="16.8" width="44.0" height="13.9" rx="0" fill="hsl(322, 74%, 44%)" fill-opacity="0.97" stroke="hsl(183, 71%, 60%)" stroke-width="2.0"  transform="translate(6.6 68.0) rotate(271.8) scale(1.54 0.73)" />
<path d="M 12.9 29.8 C 27.0 22.5, 37.4 15.2, 40.5 21.7 C 42.9 34.9, 0.0 44.5, 5.1 34.8 C 6.3 50.5, 83.9 15.5, 75.7 10.6 C 55.7 12.3, 48.3 86.2, 37.8 72.6 C 25.7 67.4, 14.9 16.7, 11.2 22.7 C 0.0 37.3, 77.2 92.2, 91.4 81.0 C 71.7 100.0, 38.2 53.4, 32.7 63.5 C 17.2 60.6, 1.1 8.5, 13.4 13.0 " fill="hsl(151, 70%, 62%)" fill-opacity="0.59" stroke="none" stroke-width="2.67"  transform="translate(67.9 9.3) rotate(269.8) scale(0.69 1.24)" />
<path d="M 4.8 13.4 C 0.0 15.0, 42.0 90.4, 48.4 86.5 C 38.9 79.6, 46.7 86.4, 43.4 96.9 C 31.1 92.9, 67.1 76.7, 68.0 81.0 C 48.1 66.8, 100.0 54.7, 90.3 40.4 C 73.2 35.3, 95.2 100.0, 89.6 96.5 C 70.3 100.0, 30.2 82.4, 27.3 84.1 C 31.6 80.9, 29.2 59.9, 29.5 48.1 C 19.2 50.7, 4.9 23.8, 19.6 32.1 " fill="none" fill-opacity="0.48" stroke="hsl(86, 72%, 68%)" stroke-width="3.23"  transform="translate(18.3 23.7) rotate(85.8) scale(1.72 1.79)" />
<path d="M 69.0 25.6 C 58.3 29.8, 67.5 20.7, 78.3 23.3 C 74.3 29.1, 100.0 80.7, 88.7 80.9 C 90.4 62.2, 66.3 8.7, 62.2 13.4 C 64.7 22.9, 83.1 93.3, 91.9 92.2 C 76.3 76.4, 18.5 0.0, 14.9 10.4 C 34.6 0.0, 80.4 50.9, 91.0 44.8 C 100.0 35.3, 13.4 57.2, 10.7 54.7 C 7.7 53.8, 59.8 57.5, 61.6 49.2 C 69.1 68.2, 32.9 100.0, 19.7 91.9 C 27.5 74.6, 45.9 36.0, 34.1 21.6 Z" fill="none" fill-opacity="0.72" stroke="hsl(83, 65%, 44%)" stroke-width="1.54"  transform="translate(53.8 37.6) rotate(33.1) scale(0.81 0.75)" />
<circle cx="50.9" cy="23.2" r="4.0" fill="url(#g0)" fill-opacity="0.53"  transform="translate(87.7 51.8) rotate(34.0) scale(0.53 0.66)" />
<path d="M 89.3 43.0 C 76.4 45.6, 49.6 54.0, 39.0 64.1 C 28.1 47.6, 7.3 19.6, 10.1 12.8 C 27.6 13.2, 78.1 64.1, 72.4 53.6 C 87.0 36.9, 100.0 24.8, 98.9 25.4 C 86.4 28.9, 86.5 54.2, 79.8 58.1 C 93.4 56.7, 58.9 57.3, 72.9 56.0 Z" fill="hsl(104, 72%, 65%)" fill-opacity="0.37" stroke="none" stroke-width="5.30" filter="url(#f1)" transform="translate(92.7 51.1) rotate(104.4) scale(1.52 1.68)" />
<circle cx="72.9" cy="71.8" r="1.9" fill="hsl(242, 72%, 49%)" fill-opacity="0.71"  transform="translate(3.9 73.9) rotate(83.6) scale(0.61 0.86)" />
<circle cx="24.1" cy="55.2" r="2.3" fill="url(#g0)" fill-opacity="0.88"  transform="translate(54.7 22.2) rotate(313.9) scale(0.87 1.24)" />
<rect x="42.0" y="79.7" width="26.6" height="14.8" rx="0.4" fill="none" fill-opacity="0.87"   transform="translate(44.0 44.0) rotate(123.3) scale(0.93 1.37)" />
<path d="M 47.1 34.0 C 33.0 49.1, 79.8 6.6, 88.2 13.7 C 80.0 0.0, 23.5 11.6, 21.7 26.4 C 13.9 7.8, 80.0 56.9, 88.9 66.6 C 100.0 61.8, 36.1 22.5, 34.6 27.2 C 46.6 36.9, 0.6 100.0, 1.8 91.9 C 0.0 100.0, 87.8 84.3, 80.7 96.2 C 96.2 97.1, 100.0 21.4, 98.2 34.6 Z" fill="hsl(106, 75%, 59%)" fill-opacity="0.38" stroke="none" stroke-width="2.69"  transform="translate(63.9 48.4) rotate(239.6) scale(1.03 1.43)" />
<rect x="7.5" y="49.0" width="49.9" height="30.0" rx="0" fill="none" fill-opacity="0.58" stroke="hsl(83, 65%, 44%)" stroke-width="4.0"  transform="translate(29.5 72.2) rotate(55.5) scale(1.79 0.72)" />
<circle cx="60.6" cy="42.1" r="4.4" fill="url(#g2)" fill-opacity="0.86"  transform="translate(64.8 5.3) rotate(131.9) scale(0.68 0.80)" />
<path d="M 40.2 61.4 C 30.3 73.7, 87.6 61.3, 93.3 62.2 C 82.7 55.9, 22.5 77.5, 30.4 80.6 C 43.2 67.4, 37.2 63.9, 27.3 62.2 C 20.9 59.8, 74.6 14.1, 67.4 25.6 C 67.5 16.3, 23.2 68.4, 15.1 74.0 C 10.0 63.2, 100.0 14.9, 99.4 20.3 Z" fill="hsl(86, 72%, 68%)" fill-opacity="0.96" stroke="none" stroke-width="2.99"  transform="translate(16.5 61.5) rotate(235.3) scale(0.77 1.23)" />
<circle cx="91.3" cy="10.3" r="6.1" fill="url(#g2)" fill-opacity="0.98" filter="url(#f1)" transform="translate(39.4 96.6) rotate(223.9) scale(1.13 1.03)" />
<circle cx="92.5" cy="20.6" r="2.9" fill="url(#g2)" fill-opacity="0.54" filter="url(#f1)"  />
<circle cx="21.0" cy="29.8" r="1.6" fill="url(#g1)" fill-opacity="0.69"   />
<circle cx="69.6" cy="31.1" r="1.7" fill="url(#g0)" fill-opacity="0.66"  transform="translate(63.9 36.2) rotate(333.2) scale(1.87 1.03)" />
<path d="M 76.0 63.2 C 58.7 75.8, 45.1 55.6, 37.4 41.4 C 35.6 57.0, 46.5 77.2, 58.0 81.7 C 77.4 74.7, 88.7 90.8, 96.5 97.2 C 78.2 100.0, 42.0 100.0, 33.7 99.6 C 46.3 86.1, 46.0 84.9, 35.9 85.0 C 51.1 94.5, 92.4 73.6, 87.0 75.2 C 82.4 56.9, 59.0 51.9, 71.6 41.3 C 86.5 46.7, 93.3 26.6, 90.4 19.6 C 87.3 36.4, 31.9 73.8, 43.5 82.7 C 39.6 89.8, 82.9 49.8, 81.3 36.1 " fill="hsl(242, 72%, 49%)" fill-opacity="0.52" stroke="none" stroke-width="1.66"  transform="translate(13.4 1.4) rotate(34.6) scale(1.31 0.68)" />
<g opacity="0.079">
<rect x="0" y="0" width="1" height="100" fill="black" />
<rect x="22" y="0" width="1" height="100" fill="black" />
<rect x="44" y="0" width="1" height="100" fill="black" />
<rect x="66" y="0" width="1" height="100" fill="black" />
<rect x="88" y="0" width="1" height="100" fill="black" />
<rect x="0" y="0" width="100" height="1" fill="black" />
<rect x="0" y="22" width="100" height="1" fill="black" />
<rect x="0" y="44" width="100" height="1" fill="black" />
<rect x="0" y="66" width="100" height="1" fill="black" />
<rect x="0" y="88" width="100" height="1" fill="black" />
</g>

</svg>
