<?xml version="1.0" encoding="UTF-8"?>
<svg xmlns="http://www.w3.org/2000/svg" width="100" height="100" viewBox="0 0 100 100">
<defs>
<linearGradient id="g0" x1="0%" y1="0%" x2="100%" y2="100%">
<stop offset="0.0%" stop-color="hsl(106, 75%, 59%)" />
<stop offset="33.3%" stop-color="hsl(183, 71%, 60%)" />
<stop offset="66.7%" stop-color="hsl(242, 72%, 49%)" />
<stop offset="100.0%" stop-color="hsl(322, 74%, 44%)" />
</linearGradient>
<linearGradient id="g1" x1="0%" y1="0%" x2="100%" y2="100%">
<stop offset="0.0%" stop-color="hsl(290, 83%, 63%)" />
<stop offset="33.3%" stop-color="hsl(2, 82%, 55%)" />
<stop offset="66.7%" stop-color="hsl(86, 72%, 68%)" />
<stop offset="100.0%" stop-color="hsl(83, 65%, 44%)" />
</linearGradient>
<linearGradient id="g2" x1="0%" y1="0%" x2="100%" y2="100%">
<stop offset="0.0%" stop-color="hsl(40, 53%, 69%)" />
<stop offset="33.3%" stop-color="hsl(104, 72%, 65%)" />
<stop offset="66.7%" stop-color="hsl(144, 86%, 72%)" />
<stop offset="100.0%" stop-color="hsl(151, 70%, 62%)" />
</linearGradient>
<filter id="f1" x="-20%" y="-20%" width="140%" height="140%">
  <feGaussianBlur stdDeviation="0.5106338895374785" />
</filter>

</defs>

<rect x="23.3" y="19.3" width="35.1" height="14.8" rx="0" fill="none" fill-opacity="0.92"   transform="translate(2.4 15.1) rotate(101.8) scale(0.65 2.00)" />
<circle cx="22.5" cy="91.9" r="7.0" fill="hsl(40, 53%, 69%)" fill-opacity="0.97"  transform="translate(66.3 44.5) rotate(169.4) scale(0.51 0.68)" />
<circle cx="64.2" cy="26.1" r="5.0" fill="url(#g1)" fill-opacity="0.58"  transform="translate(23.4 64.4) rotate(39.1) scale(1.66 0.72)" />
<rect x="34.9" y="5.7" width="21.9" height="28.3" rx="7.0" fill="none" fill-opacity="0.79"   transform="translate(66.0 80.1) rotate(200.7) scale(1.88 0.54)" />
<rect x="29.3" y="33.2" width="45.4" height="17.1" rx="10.2" fill="hsl(40, 53%, 69%)" fill-opacity="0.76" stroke="hsl(104, 72%, 65%)" stroke-width="4.4"  transform="translate(48.7 70.5) rotate(43.1) scale(1.40 1.94)" />
<path d="M 16.3 68.8 C 21.2 87.4, 84.4 57.5, 85.1 46.1 C 100.0 27.7, 21.8 6.5, 9.8 7.8 C 27.4 0.0, 0.0 63.9, 6.3 68.8 C 3.0 67.4, 89.3 38.6, 98.8 34.8 C 100.0 53.1, 39.9 28.9, 34.6 41.0 C 40.8 22.0, 57.7 6.5, 46.3 18.8 C 54.7 30.2, 15.1 18.2, 24.3 6.9 Z" fill="none" fill-opacity="0.88" stroke="hsl(183, 71%, 60%)" stroke-width="3.65"  transform="translate(86.8 9.9) rotate(273.9) scale(1.57 1.31)" />
<path d="M 28.3 59.7 C 42.6 57.2, 83.7 91.6, 89.8 86.9 C 100.0 78.3, 64.4 53.5, 54.5 52.3 C 74.1 63.5, 0.9 41.4, 11.8 55.8 C 10.1 48.5, 53.9 29.3, 48.8 24.5 C 37.9 37.0, 89.3 38.3, 80.1 26.2 C 72.4 36.4, 1.5 19.7, 0.4 8.6 C 13.2 16.0, 72.1 58.6, 85.2 47.9 C 78.4 50.2, 85.8 70.6, 98.2 73.7 C 96.0 93.2, 46.8 91.5, 53.4 78.8 Z" fill="hsl(290, 83%, 63%)" fill-opacity="0.45" stroke="none" stroke-width="4.72"  transform="translate(84.0 27.5) rotate(26.0) scale(1.10 0.53)" />
<path d="M 1.0 27.3 C 0.0 28.2, 51.0 41.1, 38.1 42.2 C 25.1 42.2, 56.6 2.9, 61.8 0.9 C 70.7 0.0, 78.0 62.1, 80.3 58.6 C 92.4 40.5, 3.5 29.2, 5.3 41.6 C 7.9 48.9, 92.1 26.2, 96.2 15.2 C 100.0 1.2, 23.5 80.2, 12.6 89.9 C 2.3 76.4, 50.1 45.0, 47.7 39.1 C 61.8 40.5, 99.5 96.7, 87.5 83.5 Z" fill="hsl(290, 83%, 63%)" fill-opacity="0.77" stroke="none" stroke-width="4.79"  transform="translate(60.2 15.7) rotate(127.2) scale(0.91 1.29)" />
<rect x="57.9" y="68.7" width="22.6" height="12.4" rx="11.8" fill="none" fill-opacity="0.37"   transform="translate(54.8 79.7) rotate(259.0) scale(1.99 1.23)" />
<circle cx="45.9" cy="0.9" r="9.7" fill="hsl(2, 82%, 55%)" fill-opacity="0.61"  transform="translate(85.2 66.6) rotate(65.4) scale(1.27 1.14)" />
<rect x="5.9" y="3.0" width="25.7" height="33.7" rx="0" fill="none" fill-opacity="0.20"   transform="translate(35.8 64.9) rotate(307.3) scale(1.80 0.53)" />
<path d="M 21.2 94.0 C 12.6 85.1, 7.6 52.5, 4.0 42.2 C 4.0 49.2, 54.4 35.5, 42.4 30.0 C 57.7 31.8, 30.6 13.1, 41.6 12.6 C 38.5 32.4, 60.2 11.3, 68.6 23.9 C 83.5 6.2, 2.2 22.8, 4.2 15.3 C 10.5 18.6, 0.0 67.4, 1.8 60.5 C 13.1 78.6, 51.0 21.7, 45.0 11.8 Z" fill="hsl(106, 75%, 59%)" fill-opacity="0.85" stroke="none" stroke-width="4.54"  transform="translate(16.7 98.4) rotate(177.7) scale(1.35 0.55)" />
<path d="M 37.7 54.5 C 56.1 61.7, 66.6 100.0, 75.6 98.0 C 59.8 100.0, 100.0 7.2, 98.0 14.3 C 100.0 22.1, 20.3 13.2, 17.0 6.9 C 19.2 12.8, 10.0 15.0, 16.4 16.8 C 8.6 24.4, 63.0 6.5, 61.5 4.7 C 45.9 18.3, 20.5 30.5, 31.8 29.2 C 40.6 9.7, 43.0 19.3, 53.7 28.9 C 72.8 28.6, 0.7 51.6, 8.6 60.4 C 27.0 77.6, 75.2 45.8, 79.8 49.8 C 86.9 69.6, 65.7 55.7, 62.7 53.9 Z" fill="hsl(290, 83%, 63%)" fill-opacity="1.00" stroke="none" stroke-width="2.38"  transform="translate(71.1 43.0) rotate(279.6) scale(1.55 1.90)" />
<circle cx="12.6" cy="50.2" r="2.4" fill="url(#g2)" fill-opacity="0.61" filter="url(#f1)" transform="translate(99.9 48.5) rotate(56.4) scale(1.03 0.76)" />
<circle cx="51.9" cy="38.8" r="0.7" fill="hsl(40, 53%, 69%)" fill-opacity="0.48"  transform="translate(77.8 78.6) rotate(219.0) scale(1.54 0.66)" />
<path d="M 0.2 93.7 C 0.0 91.3, 59.7 49.8, 71.3 46.9 C 58.0 40.7, 37.6 0.0, 43.1 2.6 C 62.5 11.8, 83.4 6.8, 87.7 16.2 C 72.1 2.3, 45.3 0.0, 45.9 8.0 C 30.7 14.8, 85.2 65.4, 83.9 58.9 C 77.9 47.2, 18.3 52.2, 7.4 55.5 C 12.8 65.9, 55.1 44.1, 63.4 58.2 C 64.7 74.2, 51.6 68.1, 53.3 58.0 C 53.7 54.8, 92.8 61.3, 94.3 52.6 Z" fill="hsl(40, 53%, 69%)" fill-opacity="0.73" stroke="none" stroke-width="1.72"   />
<circle cx="31.6" cy="48.9" r="7.7" fill="url(#g0)" fill-opacity="0.79"  transform="translate(52.0 3.9) rotate(13.6) scale(0.63 1.77)" />
<rect x="48.7" y="68.3" width="46.5" height="12.5" rx="9.4" fill="hsl(144, 86%, 72%)" fill-opacity="0.86"   transform="translate(28.8 97.8) rotate(67.2) scale(1.74 1.48)" />
<path d="M 40.3 61.7 C 20.5 46.2, 60.0 0.0, 53.6 9.5 C 42.5 21.9, 64.5 5.7, 77.7 5.1 C 90.6 3.6, 57.6 4.3, 50.2 12.2 C 57.3 5.3, 94.2 81.9, 87.0 77.7 C 67.5 72.0, 20.3 47.6, 13.7 47.6 C 2.4 53.6, 87.9 53.5, 94.4 60.5 C 97.3 75.1, 36.8 42.5, 47.8 30.7 C 56.3 17.4, 63.9 24.7, 62.4 20.0 C 43.3 37.0, 48.5 35.1, 60.2 42.1 " fill="hsl(183, 71%, 60%)" fill-opacity="0.83" stroke="none" stroke-width="1.13" filter="url(#f1)" transform="translate(15.9 30.1) rotate(27.3) scale(1.88 0.69)" />
<path d="M 59.2 40.3 C 62.3 48.1, 14.2 89.3, 9.7 92.7 C 1.9 80.5, 67.5 67.1, 58.2 72.9 C 60.4 81.3, 83.0 8.2, 77.9 21.7 C 76.1 4.5, 39.1 85.4, 42.7 78.2 C 45.0 88.4, 75.9 33.1, 75.8 36.2 C 94.3 21.3, 95.6 63.8, 99.0 73.4 C 82.2 91.5, 55.4 38.5, 53.8 39.6 Z" fill="hsl(290, 83%, 63%)" fill-opacity="0.68" stroke="none" stroke-width="0.96" filter="url(#f1)" transform="translate(17.9 25.3) rotate(187.5) scale(0.84 0.59)" />
<path d="M 91.5 28.8 C 83.6 12.1, 60.2 38.4, 45.9 37.8 C 63.8 52.7, 9.0 89.5, 21.6 97.3 C 33.1 91.8, 22.6 49.9, 26.7 46.5 C 14.6 36.2, 44.1 40.5, 35.6 42.5 C 17.7 28.1, 44.2 0.0, 36.1 7.0 C 31.9 9.2, 68.3 77.2, 71.6 74.1 C 89.6 59.7, 56.0 38.8, 42.1 25.8 C 50.6 17.8, 81.5 30.8, 93.4 39.8 C 100.0 47.3, 34.7 99.6, 22.5 87.1 " fill="hsl(151, 70%, 62%)" fill-opacity="0.97" stroke="none" stroke-width="2.56"  transform="translate(25.5 10.9) rotate(5.1) scale(1.53 0.53)" />
<rect x="11.8" y="40.3" width="40.5" height="24.9" rx="7.8" fill="none" fill-opacity="0.88" stroke="hsl(144, 86%, 72%)" stroke-width="3.4"  transform="translate(21.5 29.7) rotate(330.2) scale(1.74 0.64)" />
<circle cx="87.1" cy="49.4" r="3.6" fill="url(#g1)" fill-opacity="0.90" filter="url(#f1)" transform="translate(33.1 59.7) rotate(185.6) scale(1.18 1.51)" />
<path d="M 71.8 43.9 C 60.0 61.0, 4.5 21.1, 16.4 24.0 C 12.5 31.5, 83.5 68.1, 89.1 60.8 C 95.1 49.4, 19.5 83.4, 31.9 79.0 C 16.4 97.5, 91.7 84.8, 93.0 89.0 C 88.8 69.0, 74.5 10.2, 68.4 10.4 C 63.3 3.2, 65.9 58.8, 57.2 60.0 C 60.8 52.4, 49.1 26.1, 55.6 38.4 C 55.4 45.2, 29.4 85.9, 32.5 97.3 C 30.7 83.0, 17.1 100.0, 29.9 93.4 Z" fill="none" fill-opacity="0.35" stroke="hsl(83, 65%, 44%)" stroke-width="3.42"  transform="translate(54.3 46.5) rotate(109.1) scale(0.96 1.30)" />
<path d="M 36.7 26.4 C 36.4 21.4, 86.4 74.1, 83.5 63.6 C 94.0 73.0, 76.4 37.0, 71.4 33.8 C 76.7 39.7, 0.0 56.5, 8.9 59.8 C 22.3 68.2, 0.7 51.3, 3.6 57.3 C 0.0 40.9, 60.3 65.1, 72.7 64.2 C 79.3 50.8, 76.2 3.9, 74.9 11.7 C 56.4 1.7, 78.4 40.9, 70.6 41.8 C 66.9 40.5, 96.3 30.2, 91.5 31.1 Z" fill="hsl(86, 72%, 68%)" fill-opacity="0.86" stroke="none" stroke-width="4.44"   />
<path d="M 81.6 27.0 C 88.4 7.8, 41.1 17.8, 53.1 10.3 C 67.6 19.2, 100.0 22.8, 93.6 37.1 C 83.1 50.5, 68.0 60.4, 71.6 69.5 C 86.7 56.6, 13.5 30.7, 19.8 40.7 C 10.9 55.5, 93.4 55.7, 94.7 41.9 C 86.4 44.5, 47.7 82.8, 53.4 75.1 C 47.1 64.7, 79.0 0.0, 78.3 1.5 C 77.1 19.5, 45.1 51.1, 37.3 59.1 C 52.8 51.5, 20.7 0.0, 27.2 0.7 C 12.8 10.5, 27.0 49.6, 40.9 50.4 Z" fill="none" fill-opacity="0.87" stroke="hsl(86, 72%, 68%)" stroke-width="4.48"  transform="translate(2.3 89.1) rotate(33.8) scale(1.50 1.55)" />
<path d="M 28.0 8.7 C 37.3 2.8, 71.6 98.7, 57.2 85.4 C 44.1 100.0, 90.3 20.3, 84.9 12.1 C 100.0 26.9, 58.0 57.2, 72.8 56.4 C 92.5 45.0, 73.8 34.9, 60.3 45.2 C 74.3 27.5, 38.4 40.4, 38.2 41.0 C 44.3 39.2, 41.8 68.5, 28.6 69.2 C 41.8 50.0, 88.9 83.5, 99.4 95.3 C 98.7 100.0, 92.0 58.5, 79.2 65.8 Z" fill="hsl(322, 74%, 44%)" fill-opacity="0.75" stroke="none" stroke-width="4.89"  transform="translate(99.6 96.8) rotate(163.8) scale(1.60 1.13)" />
<path d="M 16.1 56.7 C 29.2 75.5, 0.0 62.9, 9.5 52.4 C 22.4 61.3, 4.9 35.6, 8.5 40.1 C 12.4 29.0, 73.1 59.8, 69.2 56.6 C 85.6 38.1, 5.6 50.7, 7.7 47.5 C 19.2 36.2, 34.6 56.6, 20.7 52.8 C 3.6 35.0, 45.4 16.3, 41.7 10.1 C 59.8 15.0, 94.1 98.5, 84.7 95.0 C 73.6 100.0, 8.7 39.8, 21.0 38.3 C 40.1 30.8, 45.8 25.8, 43.5 38.1 Z" fill="hsl(151, 70%, 62%)" fill-opacity="0.32" stroke="none" stroke-width="3.12" filter="url(#f1)" transform="translate(73.1 90.0) rotate(10.5) scale(1.60 1.38)" />
<rect x="8.3" y="47.0" width="47.2" height="40.0" rx="12.4" fill="none" fill-opacity="0.80"   transform="translate(46.6 79.9) rotate(57.9) scale(1.57 1.87)" />
<rect x="33.4" y="30.0" width="24.8" height="22.0" rx="0" fill="none" fill-opacity="0.58"   transform="translate(58.9 55.7) rotate(42.6) scale(1.26 1.66)" />
<rect x="52.1" y="7.7" width="21.1" height="33.2" rx="0" fill="hsl(106, 75%, 59%)" fill-opacity="0.41"  filter="url(#f1)" transform="translate(97.1 64.2) rotate(294.0) scale(1.94 0.61)" />
<path d="M 18.8 16.7 C 1.3 26.7, 49.2 56.1, 64.1 63.3 C 52.8 58.5, 10.2 0.0, 18.2 2.5 C 16.3 22.1, 21.9 42.4, 35.7 32.2 C 41.9 43.5, 13.2 49.4, 25.0 55.2 C 15.5 74.9, 78.1 97.3, 69.6 97.4 C 88.1 83.6, 92.1 15.1, 85.9 6.9 Z" fill="hsl(40, 53%, 69%)" fill-opacity="0.50" stroke="none" stroke-width="0.80"   />
<rect x="58.6" y="42.7" width="23.0" height="19.6" rx="0" fill="none" fill-opacity="0.71"   transform="translate(56.3 29.9) rotate(161.9) scale(0.76 0.67)" />
<path d="M 82.6 80.5 C 64.8 80.4, 84.6 93.3, 74.1 85.0 C 71.7 77.8, 10.9 90.1, 24.1 99.9 C 33.9 86.9, 65.1 91.4, 78.0 96.1 C 83.7 88.8, 22.4 84.9, 18.6 81.2 C 33.1 77.5, 26.7 65.9, 13.1 74.7 C 7.0 62.8, 40.6 51.2, 36.8 62.9 Z" fill="hsl(242, 72%, 49%)" fill-opacity="0.70" stroke="none" stroke-width="1.60"  transform="translate(68.1 86.5) rotate(325.5) scale(0.68 1.89)" />
<rect x="9.8" y="17.4" width="29.6" height="11.3" rx="0" fill="none" fill-opacity="0.36"   transform="translate(58.3 5.4) rotate(28.9) scale(1.44 0.75)" />
<path d="M 17.0 95.1 C 20.9 76.1, 35.3 0.0, 24.7 9.6 C 28.4 16.4, 9.6 95.3, 0.3 89.1 C 18.3 100.0, 53.8 100.0, 66.6 97.3 C 62.5 87.9, 57.0 41.7, 50.6 47.8 C 32.2 63.5, 91.8 34.6, 82.5 21.1 C 67.6 14.0, 81.1 100.0, 82.6 89.1 C 85.9 98.2, 2.2 77.6, 3.9 91.7 " fill="hsl(144, 86%, 72%)" fill-opacity="0.60" stroke="none" stroke-width="2.92"   />
<rect x="18.0" y="46.1" width="44.7" height="25.1" rx="0" fill="none" fill-opacity="0.48"   transform="translate(77.2 58.0) rotate(322.1) scale(1.79 0.68)" />
<rect x="54.9" y="1.1" width="37.7" height="36.5" rx="0.0" fill="hsl(290, 83%, 63%)" fill-opacity="0.69" stroke="hsl(86, 72%, 68%)" stroke-width="3.1"  transform="translate(79.4 88.3) rotate(113.0) scale(1.25 0.94)" />
<path d="M 0.2 90.4 C 0.0 86.9, 25.3 38.7, 20.6 38.8 C 40.3 35.2, 5.1 60.5, 18.1 71.6 C 21.0 66.5, 83.5 99.0, 82.6 99.2 C 67.9 83.5, 0.0 15.2, 1.0 18.5 C 0.0 31.7, 58.8 58.5, 51.4 69.2 C 51.2 67.0, 14.3 0.0, 11.2 4.0 C 0.0 14.8, 59.5 22.6, 64.6 30.1 C 62.6 35.8, 87.1 26.1, 95.3 16.7 " fill="hsl(242, 72%, 49%)" fill-opacity="0.67" stroke="none" stroke-width="1.67"   />
<circle cx="7.1" cy="4.3" r="9.0" fill="hsl(104, 72%, 65%)" fill-opacity="0.74"  transform="translate(51.8 95.0) rotate(251.1) scale(1.74 1.13)" />
<path d="M 13.3 69.9 C 29.0 84.9, 75.9 84.5, 71.6 91.3 C 54.6 86.2, 82.7 36.5, 79.8 32.5 C 95.2 19.0, 14.1 64.5, 6.9 62.3 C 9.2 80.6, 85.3 60.2, 83.9 67.4 C 85.9 61.0, 87.3 62.2, 78.4 63.1 C 73.0 56.7, 51.0 30.2, 49.0 19.4 C 54.2 7.2, 63.5 36.4, 66.7 44.9 C 48.9 41.1, 100.0 56.0, 94.2 43.8 C 92.6 41.4, 3.3 76.2, 11.8 61.3 C 0.0 62.1, 18.2 17.1, 22.3 15.1 Z" fill="hsl(106, 75%, 59%)" fill-opacity="0.82" stroke="none" stroke-width="1.61"   />
<circle cx="64.6" cy="42.0" r="2.1" fill="url(#g2)" fill-opacity="0.50"  transform="translate(45.7 86.3) rotate(293.8) scale(1.60 1.16)" />
<path d="M 37.8 56.0 C 35.0 72.9, 56.6 100.0, 49.2 93.8 C 30.8 99.1, 0.0 61.6, 9.5 58.7 C 14.0 45.1, 46.2 5.6, 40.7 1.3 C 58.1 14.6, 47.0 8.8, 35.7 8.0 C 48.3 0.0, 97.3 42.9, 97.0 29.3 C 100.0 10.8, 58.9 37.5, 45.7 31.7 C 32.2 34.4, 92.6 78.3, 98.0 81.2 Z" fill="hsl(151, 70%, 62%)" fill-opacity="0.49" stroke="none" stroke-width="3.56"  transform="translate(3.4 0.6) rotate(107.3) scale(0.73 1.08)" />
<path d="M 65.2 9.8 C 65.5 21.4, 24.9 5.2, 11.8 7.5 C 10.0 15.7, 46.1 48.7, 35.5 54.5 C 41.4 38.5, 21.4 47.9, 24.9 60.5 C 24.1 76.5, 61.4 60.5, 51.8 74.1 C 69.4 77.5, 5.7 13.2, 10.8 8.2 C 0.0 8.9, 96.4 39.8, 86.0 30.7 C 80.7 38.5, 67.5 53.0, 79.5 62.8 C 69.9 64.3, 59.3 27.7, 63.1 25.0 C 43.7 24.4, 1.3 100.0, 0.8 94.1 Z" fill="hsl(322, 74%, 44%)" fill-opacity="0.85" stroke="none" stroke-width="0.95" filter="url(#f1)" transform="translate(56.1 99.9) rotate(45.1) scale(1.05 1.38)" />
<path d="M 90.4 35.8 C 100.0 33.7, 67.3 99.8, 76.0 96.8 C 74.6 86.2, 0.0 79.6, 3.4 71.5 C 16.0 87.4, 100.0 40.0, 93.8 45.4 C 88.2 34.1, 0.0 69.9, 2.6 63.3 C 20.4 74.8, 75.4 12.9, 76.5 7.2 C 59.9 25.3, 11.0 86.0, 8.1 89.0 C 15.0 69.9, 80.9 19.8, 75.6 10.8 C 73.9 25.3, 31.9 89.5, 16.9 97.5 Z" fill="hsl(144, 86%, 72%)" fill-opacity="0.46" stroke="none" stroke-width="0.99" filter="url(#f1)" transform="translate(27.0 80.2) rotate(136.1) scale(0.63 1.54)" />
<path d="M 31.5 37.0 C 42.2 18.7, 44.7 15.5, 58.7 14.3 C 48.1 22.3, 92.8 40.5, 95.1 40.0 C 100.0 30.1, 89.7 28.6, 81.3 25.7 C 69.5 39.8, 58.5 6.8, 44.0 11.7 C 24.9 6.8, 45.0 59.3, 56.3 66.0 C 37.5 68.4, 33.2 58.9, 41.2 58.5 C 34.7 43.4, 0.6 43.5, 3.9 32.7 C 21.4 47.8, 85.8 44.4, 85.4 51.4 C 94.6 38.0, 29.9 59.8, 40.1 61.2 C 58.6 61.6, 15.7 31.1, 29.2 26.5 Z" fill="hsl(290, 83%, 63%)" fill-opacity="0.86" stroke="none" stroke-width="4.51" filter="url(#f1)" transform="translate(14.4 98.8) rotate(233.0) scale(0.58 1.33)" />
<path d="M 24.1 65.3 C 8.0 76.2, 19.1 14.5, 28.4 3.5 C 14.2 0.0, 34.8 5.4, 43.7 19.8 C 34.4 22.1, 0.0 5.9, 4.9 5.3 C 0.0 5.7, 48.0 19.9, 44.5 22.2 C 36.4 27.5, 38.3 68.8, 50.4 77.2 C 38.3 69.9, 94.7 49.8, 89.3 53.1 C 100.0 46.3, 25.3 78.4, 32.0 87.2 C 30.1 99.9, 5.2 37.2, 11.5 49.1 C 0.0 51.0, 25.5 80.1, 17.7 89.4 Z" fill="none" fill-opacity="0.81" stroke="hsl(86, 72%, 68%)" stroke-width="2.82"  transform="translate(44.8 32.4) rotate(56.9) scale(0.74 1.89)" />
<path d="M 20.8 7.2 C 2.3 1.8, 15.7 51.1, 12.8 59.2 C 6.3 39.2, 65.7 52.8, 59.4 39.7 C 75.2 56.4, 81.2 88.9, 90.1 90.5 C 87.8 80.2, 13.3 48.4, 24.4 53.3 C 19.4 54.4, 37.3 38.4, 35.4 49.8 C 17.7 35.6, 74.9 73.2, 64.2 59.8 C 58.2 63.8, 41.2 17.0, 41.3 18.0 C 51.6 33.7, 79.0 87.0, 68.6 87.0 C 63.2 76.1, 13.9 86.8, 23.9 96.0 C 16.4 100.0, 93.5 12.8, 83.1 15.8 Z" fill="none" fill-opacity="0.30" stroke="hsl(290, 83%, 63%)" stroke-width="2.30"  transform="translate(75.7 26.1) rotate(302.6) scale(0.95 1.32)" />
<rect x="41.1" y="47.8" width="39.4" height="14.0" rx="7.9" fill="none" fill-opacity="0.53"    />
<rect x="71.8" y="18.5" width="21.2" height="23.4" rx="1.6" fill="none" fill-opacity="0.69"  filter="url(#f1)" transform="translate(29.3 50.9) rotate(286.7) scale(0.59 0.82)" />
<rect x="36.4" y="51.5" width="33.5" height="14.5" rx="0" fill="hsl(104, 72%, 65%)" fill-opacity="0.96"   transform="translate(51.7 66.9) rotate(221.1) scale(0.57 1.11)" />
<path d="M 24.8 65.2 C 37.6 65.8, 49.8 74.8, 63.1 67.4 C 50.1 78.8, 39.6 78.3, 37.9 88.9 C 49.2 100.0, 78.0 32.9, 75.3 33.1 C 76.9 42.3, 57.4 51.3, 43.5 44.4 C 35.6 27.6, 72.2 42.2, 83.0 49.2 C 80.2 58.3, 15.2 65.3, 20.4 51.2 C 13.8 33.5, 83.8 50.2, 78.3 64.3 C 83.3 54.6, 35.5 85.1, 43.5 91.0 C 61.6 77.5, 79.6 71.2, 80.5 71.9 Z" fill="hsl(104, 72%, 65%)" fill-opacity="0.60" stroke="none" stroke-width="3.15"  transform="translate(11.4 25.0) rotate(45.4) scale(1.26 1.10)" />
<path d="M 2.7 19.6 C 12.7 13.8, 71.6 80.5, 63.6 76.5 C 55.8 79.7, 99.7 45.7, 90.3 36.5 C 80.9 18.1, 85.7 97.7, 99.4 95.5 C 81.7 100.0, 20.7 95.6, 11.2 88.5 C 20.7 77.6, 75.5 69.3, 64.9 58.4 C 52.5 66.8, 72.6 4.0, 71.5 16.5 C 84.9 30.2, 28.3 0.0, 35.2 6.9 C 51.1 0.0, 51.8 24.5, 52.2 36.0 C 36.2 35.4, 28.6 38.4, 42.9 31.3 Z" fill="hsl(183, 71%, 60%)" fill-opacity="0.57" stroke="none" stroke-width="0.81"  transform="translate(25.5 30.0) rotate(355.2) scale(1.70 0.86)" />
<path d="M 66.0 90.3 C 46.8 100.0, 86.5 57.9, 91.3 60.7 C 100.0 72.2, 59.6 15.4, 51.8 20.8 C 55.9 10.0, 45.8 79.5, 40.0 80.8 C 37.0 75.4, 3.7 57.7, 9.2 72.2 C 7.8 73.4, 77.9 83.8, 82.6 88.3 C 73.6 79.7, 41.5 93.8, 52.2 99.2 C 66.2 100.0, 100.0 25.6, 92.1 39.4 C 78.7 55.6, 83.2 53.1, 73.1 47.3 C 69.6 39.9, 89.9 14.3, 91.3 5.9 C 100.0 2.9, 54.1 34.1, 56.2 26.5 " fill="hsl(151, 70%, 62%)" fill-opacity="0.45" stroke="none" stroke-width="4.39"  transform="translate(51.8 1.2) rotate(269.4) scale(1.02 1.70)" />
<rect x="39.6" y="29.8" width="34.1" height="34.2" rx="6.4" fill="hsl(40, 53%, 69%)" fill-opacity="0.37"  filter="url(#f1)" transform="translate(4.5 69.5) rotate(275.0) scale(0.70 1.99)" />
<path d="M 78.3 23.3 C 70.8 6.4, 45.3 44.6, 47.7 51.2 C 67.4 34.3, 72.7 76.4, 79.8 82.6 C 73.5 97.7, 19.3 56.2, 9.9 56.0 C 4.3 69.5, 80.2 63.2, 78.1 75.6 C 81.4 65.5, 53.7 99.3, 39.3 85.9 C 31.5 75.6, 91.0 36.9, 84.5 47.5 C 73.8 50.0, 43.7 83.2, 31.3 86.5 C 33.2 70.6, 97.5 58.2, 84.2 67.5 " fill="hsl(322, 74%, 44%)" fill-opacity="0.75" stroke="none" stroke-width="4.07"  transform="translate(62.3 70.8) rotate(6.4) scale(0.85 0.96)" />
<path d="M 90.2 37.4 C 89.3 33.6, 38.0 73.9, 31.1 86.5 C 19.9 68.8, 66.9 41.8, 78.8 27.5 C 62.5 21.8, 81.6 21.7, 71.7 23.4 C 67.0 18.5, 37.5 0.0, 44.7 0.7 C 52.3 0.0, 12.5 9.4, 19.9 6.6 C 36.9 21.4, 26.6 82.1, 28.5 70.7 Z" fill="hsl(290, 83%, 63%)" fill-opacity="0.89" stroke="none" stroke-width="2.00"  transform="translate(3.2 44.5) rotate(23.5) scale(1.82 0.75)" />
<rect x="41.9" y="1.6" width="47.1" height="18.1" rx="10.9" fill="none" fill-opacity="0.96"  filter="url(#f1)" transform="translate(76.4 0.1) rotate(45.4) scale(1.49 1.86)" />
<circle cx="28.2" cy="7.1" r="9.4" fill="hsl(86, 72%, 68%)" fill-opacity="0.97" filter="url(#f1)" transform="translate(20.8 31.8) rotate(62.4) scale(0.79 1.64)" />
<rect x="25.5" y="30.7" width="47.0" height="36.2" rx="0" fill="hsl(83, 65%, 44%)" fill-opacity="0.59"  filter="url(#f1)" transform="translate(18.5 11.5) rotate(318.6) scale(0.63 1.29)" />
<circle cx="20.2" cy="91.5" r="2.0" fill="url(#g1)" fill-opacity="0.89"  transform="translate(75.5 97.5) rotate(239.1) scale(0.84 1.06)" />
<path d="M 21.6 72.4 C 26.7 58.2, 0.0 75.0, 8.6 60.2 C 1.1 72.6, 62.8 56.3, 49.9 54.9 C 33.2 39.1, 74.5 32.8, 61.9 47.5 C 78.8 56.7, 16.4 7.5, 27.7 14.2 C 47.5 4.3, 36.4 37.1, 46.1 36.1 C 57.3 24.8, 84.1 66.5, 77.6 77.3 C 78.4 64.7, 29.9 49.7, 34.2 62.0 C 40.5 55.7, 18.7 46.8, 26.6 33.6 C 8.6 25.3, 83.5 19.8, 95.8 25.1 " fill="hsl(144, 86%, 72%)" fill-opacity="0.33" stroke="none" stroke-width="1.26"  transform="translate(94.9 91.8) rotate(309.7) scale(1.74 1.39)" />
<path d="M 99.0 14.1 C 99.4 31.3, 12.1 26.4, 25.4 28.2 C 37.9 27.2, 66.1 88.1, 63.0 84.9 C 67.8 98.7, 35.5 0.7, 49.0 15.4 C 54.2 6.2, 15.4 38.4, 16.4 47.4 C 2.4 39.1, 100.0 29.8, 94.5 22.1 C 95.6 9.6, 15.1 46.3, 4.8 34.9 " fill="none" fill-opacity="0.89" stroke="hsl(2, 82%, 55%)" stroke-width="4.89"  transform="translate(9.2 59.3) rotate(112.4) scale(1.43 0.88)" />
<path d="M 17.8 26.9 C 17.6 24.0, 51.6 37.1, 50.0 27.1 C 54.7 30.6, 18.7 47.3, 8.4 47.2 C 0.0 61.7, 40.3 4.1, 45.0 12.5 C 61.2 32.2, 69.0 53.7, 64.7 50.0 C 50.5 37.1, 55.7 37.1, 55.0 48.9 C 42.3 39.4, 88.9 49.8, 83.3 49.4 C 100.0 61.0, 53.9 21.3, 55.5 22.1 C 44.4 19.9, 100.0 91.8, 93.6 76.9 C 96.8 77.3, 74.0 0.0, 66.7 8.0 " fill="hsl(183, 71%, 60%)" fill-opacity="1.00" stroke="none" stroke-width="4.63"  transform="translate(21.4 0.7) rotate(131.9) scale(1.86 0.59)" />
<path d="M 53.7 13.7 C 36.7 21.4, 69.4 67.3, 69.4 79.5 C 67.4 93.5, 46.1 47.2, 52.2 58.1 C 48.5 59.2, 99.1 50.4, 91.0 45.2 C 100.0 56.9, 32.8 51.2, 45.5 63.2 C 43.9 45.4, 59.0 48.1, 50.0 39.6 C 36.9 27.2, 78.1 19.0, 91.2 12.0 C 80.0 22.0, 28.6 59.8, 43.1 55.5 C 48.0 56.2, 100.0 53.4, 98.5 39.6 C 86.8 27.8, 0.0 56.0, 4.2 68.9 Z" fill="hsl(83, 65%, 44%)" fill-opacity="0.84" stroke="none" stroke-width="2.54"   />
<circle cx="59.1" cy="68.6" r="0.3" fill="url(#g2)" fill-opacity="0.84"  transform="translate(75.7 17.6) rotate(170.4) scale(0.67 1.49)" />
<path d="M 16.4 78.2 C 32.4 71.7, 100.0 0.0, 97.1 5.6 C 100.0 0.0, 43.7 75.4, 52.9 78.8 C 41.6 67.3, 59.0 87.6, 45.3 84.8 C 26.4 96.8, 89.0 87.2, 77.7 86.1 C 91.2 100.0, 98.1 85.5, 95.0 83.6 C 92.3 100.0, 47.5 19.9, 49.0 24.0 C 38.3 15.5, 96.6 34.4, 88.0 29.9 Z" fill="hsl(104, 72%, 65%)" fill-opacity="0.36" stroke="none" stroke-width="3.50"  transform="translate(33.1 78.3) rotate(28.2) scale(1.86 0.78)" />
<rect x="54.0" y="29.9" width="36.8" height="24.0" rx="7.1" fill="none" fill-opacity="0.68"    />
<path d="M 75.6 11.4 C 87.8 0.0, 30.3 88.6, 36.7 86.1 C 52.3 66.2, 62.7 83.6, 57.0 80.3 C 75.4 65.5, 3.4 100.0, 2.4 93.2 C 14.5 100.0, 7.7 6.2, 5.7 17.8 C 10.4 21.9, 100.0 78.2, 96.4 68.6 C 80.7 77.2, 31.9 22.6, 35.3 21.8 C 35.0 5.7, 64.4 41.4, 55.1 48.8 C 74.6 51.9, 63.1 47.6, 60.4 57.9 Z" fill="none" fill-opacity="0.39" stroke="hsl(104, 72%, 65%)" stroke-width="3.76"  transform="translate(6.9 69.1) rotate(87.6) scale(1.91 0.79)" />
<circle cx="25.2" cy="39.4" r="3.5" fill="hsl(151, 70%, 62%)" fill-opacity="0.96"  transform="translate(96.7 80.1) rotate(211.6) scale(0.81 1.12)" />
<rect x="47.7" y="25.9" width="36.3" height="39.8" rx="0" fill="hsl(144, 86%, 72%)" fill-opacity="0.43" stroke="hsl(40, 53%, 69%)" stroke-width="5.0" filter="url(#f1)" transform="translate(83.9 21.1) rotate(278.3) scale(1.00 0.97)" />
<rect x="39.7" y="1.8" width="37.2" height="28.5" rx="12.1" fill="hsl(106, 75%, 59%)" fill-opacity="0.22"   transform="translate(77.5 74.0) rotate(155.3) scale(1.78 1.39)" />
<path d="M 27.6 28.2 C 18.8 15.9, 47.8 52.6, 41.9 61.1 C 55.6 63.8, 77.4 41.2, 74.5 27.8 C 92.1 14.2, 61.0 0.0, 49.7 3.7 C 35.7 0.0, 68.8 74.7, 68.2 81.3 C 78.0 83.1, 57.0 0.0, 54.3 0.4 C 46.9 1.9, 28.8 69.7, 38.9 75.8 Z" fill="hsl(2, 82%, 55%)" fill-opacity="0.64" stroke="none" stroke-width="0.86"  transform="translate(7.9 45.1) rotate(306.7) scale(0.66 0.79)" />
<path d="M 63.9 46.7 C 44.4 34.7, 90.0 61.9, 79.3 53.9 C 65.8 62.1, 48.1 0.0, 42.1 1.6 C 57.4 9.6, 16.1 62.5, 21.9 59.1 C 3.2 50.6, 52.5 50.7, 48.4 62.7 C 53.3 79.4, 85.1 39.9, 78.8 27.4 C 73.3 24.8, 79.6 63.6, 90.5 68.9 C 100.0 84.0, 43.4 34.0, 35.0 36.1 Z" fill="hsl(322, 74%, 44%)" fill-opacity="0.80" stroke="none" stroke-width="3.85"  transform="translate(55.4 80.8) rotate(357.4) scale(1.94 1.92)" />
<path d="M 45.7 47.1 C 39.4 56.5, 40.3 93.6, 33.6 94.7 C 17.2 100.0, 70.6 48.7, 67.3 41.1 C 65.1 46.8, 8.3 57.1, 6.4 68.5 C 5.7 85.4, 61.5 33.8, 73.7 47.5 C 64.0 41.6, 41.7 47.5, 36.7 35.5 C 24.2 35.0, 0.0 62.8, 9.7 51.6 C 0.0 51.8, 78.3 100.0, 88.0 99.2 C 91.9 100.0, 14.9 41.1, 5.0 29.1 C 20.2 31.2, 65.7 89.0, 67.8 84.9 C 63.3 90.0, 72.0 91.8, 69.7 90.4 Z" fill="hsl(86, 72%, 68%)" fill-opacity="0.60" stroke="none" stroke-width="0.89"  transform="translate(34.6 24.4) rotate(65.0) scale(0.92 0.90)" />
<path d="M 25.1 35.0 C 31.3 53.2, 39.6 0.0, 39.0 7.3 C 45.7 16.4, 33.4 25.5, 43.5 30.0 C 30.4 32.1, 95.5 93.2, 83.6 78.2 C 81.0 80.2, 66.1 1.8, 59.2 0.0 C 50.5 0.0, 77.4 26.4, 75.4 22.4 C 89.5 28.6, 66.1 38.1, 74.4 40.6 C 59.6 36.4, 73.8 21.7, 83.8 15.4 Z" fill="hsl(144, 86%, 72%)" fill-opacity="0.84" stroke="none" stroke-width="2.46"  transform="translate(35.7 97.7) rotate(207.2) scale(1.34 0.81)" />
<path d="M 93.0 71.4 C 82.3 86.2, 62.7 16.4, 72.4 5.0 C 77.9 17.1, 84.8 60.3, 75.0 51.7 C 85.0 33.3, 75.1 11.0, 87.3 22.2 C 83.1 18.1, 57.6 58.1, 72.0 71.7 C 87.2 86.1, 88.8 90.1, 80.0 83.7 C 96.4 83.4, 51.1 44.8, 38.3 56.4 C 31.5 73.2, 50.2 56.0, 55.2 51.1 C 59.0 55.5, 0.0 16.0, 4.3 8.9 C 0.0 28.2, 13.4 51.5, 20.6 36.6 C 7.5 24.0, 29.3 63.5, 31.6 62.2 Z" fill="hsl(183, 71%, 60%)" fill-opacity="0.94" stroke="none" stroke-width="2.79"  transform="translate(7.9 70.9) rotate(324.0) scale(1.90 1.56)" />
<path d="M 28.7 45.6 C 30.4 39.7, 81.0 24.9, 75.3 33.7 C 72.9 14.3, 65.8 16.9, 59.6 7.5 C 40.9 8.6, 18.9 46.5, 30.9 51.1 C 22.1 69.6, 44.3 100.0, 59.2 97.4 C 77.4 100.0, 70.7 18.6, 73.1 15.6 C 78.0 3.4, 5.6 27.7, 13.6 20.0 C 12.4 31.6, 25.6 91.3, 22.3 76.5 Z" fill="hsl(83, 65%, 44%)" fill-opacity="0.57" stroke="none" stroke-width="3.20"  transform="translate(25.2 35.7) rotate(337.7) scale(0.98 1.17)" />
<path d="M 10.9 67.0 C 0.0 81.4, 63.2 49.3, 66.7 48.4 C 79.7 59.8, 88.9 33.6, 91.7 27.4 C 91.7 12.7, 59.2 70.1, 70.0 64.6 C 82.7 51.6, 11.9 100.0, 0.4 95.5 C 0.0 84.6, 64.4 85.0, 58.5 90.2 C 67.5 100.0, 63.5 7.1, 49.4 6.3 Z" fill="hsl(104, 72%, 65%)" fill-opacity="0.68" stroke="none" stroke-width="3.20"  transform="translate(97.6 97.9) rotate(103.7) scale(1.32 1.16)" />
<path d="M 16.8 98.6 C 7.9 81.4, 29.9 26.3, 43.3 39.3 C 44.4 38.5, 78.8 20.6, 88.8 16.8 C 91.9 25.9, 37.2 40.8, 37.8 26.4 C 42.5 9.6, 57.8 70.4, 72.7 61.2 C 66.3 67.0, 1.5 2.3, 15.7 5.7 C 31.7 0.0, 82.8 46.9, 71.1 48.6 C 73.4 43.7, 35.6 60.7, 48.6 55.7 C 36.1 69.6, 88.0 100.0, 78.3 86.2 " fill="hsl(40, 53%, 69%)" fill-opacity="0.43" stroke="none" stroke-width="1.37"  transform="translate(12.9 81.3) rotate(90.6) scale(1.39 1.88)" />
<path d="M 96.9 88.7 C 93.9 79.0, 91.9 92.4, 78.7 99.6 C 84.9 100.0, 55.2 31.8, 58.3 37.7 C 40.7 36.0, 27.2 44.7, 30.6 47.7 C 26.1 50.8, 62.5 23.3, 53.9 38.2 C 51.9 47.6, 76.2 96.1, 76.2 98.1 C 71.2 100.0, 27.5 10.4, 33.1 18.2 C 18.4 34.1, 40.5 36.4, 47.9 33.4 C 36.0 52.7, 49.9 71.6, 39.3 64.1 C 29.7 67.3, 71.4 25.2, 72.9 32.2 C 92.4 21.2, 35.4 26.5, 31.1 33.9 Z" fill="none" fill-opacity="0.99" stroke="hsl(104, 72%, 65%)" stroke-width="4.46"  transform="translate(48.9 34.2) rotate(5.3) scale(1.01 1.11)" />
<rect x="4.7" y="47.5" width="31.9" height="39.4" rx="0" fill="none" fill-opacity="0.28"   transform="translate(66.7 23.8) rotate(149.0) scale(1.66 1.85)" />
<rect x="14.6" y="59.3" width="40.4" height="25.8" rx="0" fill="none" fill-opacity="0.94"  filter="url(#f1)" transform="translate(97.7 20.4) rotate(88.1) scale(1.57 0.95)" />
<circle cx="21.4" cy="90.7" r="4.6" fill="url(#g1)" fill-opacity="0.97"  transform="translate(12.1 73.6) rotate(218.5) scale(1.00 0.52)" />
<rect x="48.1" y="33.2" width="32.1" height="23.0" rx="0" fill="hsl(104, 72%, 65%)" fill-opacity="0.94"  filter="url(#f1)" transform="translate(61.5 40.8) rotate(14.4) scale(0.60 1.87)" />
<rect x="29.8" y="71.6" width="49.2" height="26.5" rx="0" fill="hsl(322, 74%, 44%)" fill-opacity="0.84"   transform="translate(4.3 35.8) rotate(241.7) scale(0.79 1.60)" />
<circle cx="14.3" cy="16.9" r="3.3" fill="hsl(106, 75%, 59%)" fill-opacity="0.72" filter="url(#f1)"  />
<rect x="12.9" y="61.5" width="33.9" height="20.2" rx="0" fill="none" fill-opacity="0.46" stroke="hsl(86, 72%, 68%)" stroke-width="2.7"  transform="translate(56.9 72.1) rotate(128.2) scale(0.73 1.50)" />
<path d="M 89.2 4.4 C 70.0 0.0, 30.6 49.6, 33.4 50.0 C 25.6 66.9, 14.4 46.6, 15.2 32.8 C 11.2 31.1, 23.1 47.1, 13.1 61.9 C 14.8 77.0, 50.3 87.0, 62.7 84.5 C 54.6 96.3, 28.5 41.6, 38.8 41.5 C 53.5 29.5, 30.9 94.8, 35.2 93.5 Z" fill="hsl(144, 86%, 72%)" fill-opacity="0.70" stroke="none" stroke-width="4.52"  transform="translate(25.9 63.2) rotate(283.7) scale(1.92 1.56)" />
<path d="M 95.3 96.0 C 100.0 85.0, 38.3 29.9, 24.7 36.1 C 23.8 41.0, 31.5 49.2, 39.5 49.7 C 26.3 39.5, 34.2 40.0, 30.2 49.7 C 29.6 48.4, 34.4 83.6, 35.3 80.2 C 37.7 87.8, 47.6 17.4, 34.9 28.9 C 46.3 16.5, 32.3 19.2, 23.3 25.5 C 37.5 41.0, 100.0 48.6, 99.9 34.0 C 100.0 37.0, 26.8 69.1, 30.8 68.2 C 44.0 78.7, 38.4 36.9, 45.7 48.3 Z" fill="hsl(104, 72%, 65%)" fill-opacity="0.29" stroke="none" stroke-width="5.03"  transform="translate(17.4 69.8) rotate(67.4) scale(1.01 0.76)" />
<path d="M 29.9 33.3 C 42.6 33.9, 72.7 20.7, 82.1 18.7 C 76.4 20.8, 19.8 28.9, 26.5 31.7 C 46.5 35.2, 99.8 0.0, 97.7 1.3 C 96.3 0.0, 21.4 65.6, 24.5 70.6 C 19.1 86.2, 19.4 54.6, 17.8 45.0 C 0.0 27.5, 24.8 76.9, 35.8 81.6 C 43.8 65.5, 16.4 33.2, 25.0 32.1 C 21.1 49.7, 65.4 47.4, 60.3 53.2 C 46.7 59.3, 7.5 59.0, 22.2 46.0 Z" fill="hsl(290, 83%, 63%)" fill-opacity="0.32" stroke="none" stroke-width="2.66"  transform="translate(6.5 36.9) rotate(191.1) scale(0.71 1.63)" />
<rect x="30.5" y="39.0" width="36.6" height="27.1" rx="0" fill="hsl(144, 86%, 72%)" fill-opacity="0.71" stroke="hsl(151, 70%, 62%)" stroke-width="3.7"  transform="translate(61.8 54.7) rotate(157.2) scale(1.42 1.21)" />
<rect x="25.5" y="1.7" width="30.8" height="34.2" rx="6.4" fill="none" fill-opacity="0.37"    />
<circle cx="49.7" cy="36.2" r="4.0" fill="url(#g0)" fill-opacity="0.79"  transform="translate(71.1 17.6) rotate(9.7) scale(1.54 1.42)" />
<rect x="43.8" y="36.8" width="25.2" height="31.5" rx="9.1" fill="none" fill-opacity="0.85"   transform="translate(1.7 45.2) rotate(116.8) scale(0.53 1.27)" />
<path d="M 22.0 36.9 C 36.3 38.5, 89.0 70.7, 79.8 61.3 C 71.4 73.5, 80.3 73.0, 80.4 77.8 C 61.8 64.2, 75.0 37.8, 83.4 50.9 C 100.0 53.7, 11.2 28.4, 5.6 36.8 C 18.1 40.4, 7.2 12.9, 20.2 24.3 C 35.6 27.0, 31.6 41.3, 22.6 47.9 C 7.8 66.0, 66.3 68.5, 75.8 60.6 C 76.7 64.0, 85.1 81.9, 84.5 74.0 Z" fill="hsl(183, 71%, 60%)" fill-opacity="0.45" stroke="none" stroke-width="1.97"  transform="translate(19.8 55.8) rotate(217.8) scale(0.78 1.68)" />
<circle cx="21.1" cy="55.8" r="9.5" fill="url(#g2)" fill-opacity="0.67" filter="url(#f1)" transform="translate(19.2 64.1) rotate(92.0) scale(1.63 1.51)" />
<circle cx="97.2" cy="6.2" r="4.5" fill="url(#g0)" fill-opacity="0.75"  transform="translate(83.9 60.5) rotate(341.1) scale(1.56 0.62)" />
<circle cx="5.0" cy="78.6" r="1.1" fill="url(#g0)" fill-opacity="0.83"  transform="translate(52.1 62.8) rotate(223.2) scale(1.33 1.10)" />
<path d="M 6.4 97.3 C 18.7 77.7, 78.2 64.9, 78.8 68.3 C 85.6 52.0, 72.7 72.5, 59.6 63.4 C 71.7 46.9, 78.8 76.3, 86.6 84.9 C 98.8 86.7, 62.7 88.9, 54.9 93.9 C 62.8 97.5, 66.8 90.9, 58.7 94.0 C 58.9 95.0, 55.4 43.7, 66.0 42.3 C 52.9 47.8, 40.9 28.5, 46.2 20.4 C 35.7 2.9, 100.0 83.6, 93.2 89.5 C 100.0 70.0, 33.7 75.9, 47.1 74.7 Z" fill="hsl(242, 72%, 49%)" fill-opacity="0.98" stroke="none" stroke-width="1.75"   />
<path d="M 34.8 50.6 C 15.0 52.0, 11.2 40.6, 18.8 32.3 C 34.2 44.9, 21.6 54.3, 35.8 50.5 C 21.5 66.0, 92.4 68.2, 93.5 78.6 C 100.0 96.4, 16.0 46.2, 21.8 58.8 C 14.3 77.0, 77.9 12.4, 86.6 25.2 C 91.5 34.9, 21.9 64.7, 17.9 76.7 C 0.0 70.6, 31.2 53.8, 25.7 40.1 C 33.6 52.8, 60.5 13.8, 75.4 20.1 C 60.8 38.8, 59.1 14.0, 47.1 25.5 C 50.3 18.7, 0.0 74.3, 8.2 65.0 Z" fill="hsl(183, 71%, 60%)" fill-opacity="0.82" stroke="none" stroke-width="1.66"  transform="translate(91.2 71.8) rotate(200.3) scale(0.54 1.54)" />
<rect x="21.2" y="39.2" width="46.8" height="38.6" rx="6.7" fill="none" fill-opacity="0.64" stroke="hsl(83, 65%, 44%)" stroke-width="3.1"  transform="translate(38.7 93.7) rotate(118.2) scale(0.99 1.90)" />
<rect x="40.2" y="16.1" width="25.9" height="22.2" rx="10.9" fill="hsl(183, 71%, 60%)" fill-opacity="0.59"   transform="translate(89.1 93.9) rotate(325.8) scale(0.87 1.19)" />
<path d="M 10.6 91.9 C 15.9 100.0, 44.4 71.6, 50.4 84.5 C 68.0 66.8, 68.5 29.4, 54.3 26.2 C 60.6 17.1, 99.5 54.8, 94.2 46.3 C 100.0 38.7, 70.5 49.6, 63.6 39.7 C 75.2 45.8, 90.7 24.5, 80.0 12.6 C 67.0 0.0, 47.6 44.5, 41.7 37.5 C 46.1 41.8, 24.1 100.0, 36.0 97.1 C 35.0 100.0, 11.9 80.4, 3.9 80.0 Z" fill="none" fill-opacity="0.46" stroke="hsl(322, 74%, 44%)" stroke-width="4.77"  transform="translate(30.6 1.4) rotate(240.4) scale(1.24 1.99)" />
<path d="M 40.7 18.9 C 48.2 9.8, 65.8 63.8, 77.3 71.9 C 71.0 83.7, 19.2 9.3, 4.4 12.6 C 0.0 0.0, 0.0 73.4, 0.2 68.1 C 0.0 52.3, 66.0 0.0, 52.6 10.9 C 58.6 21.6, 99.0 51.5, 97.6 42.6 C 91.1 60.1, 11.2 75.8, 1.3 75.9 C 3.4 60.3, 40.6 19.7, 32.6 13.3 C 47.5 24.0, 84.0 73.2, 89.8 64.5 Z" fill="hsl(86, 72%, 68%)" fill-opacity="0.46" stroke="none" stroke-width="2.70" filter="url(#f1)"  />
<path d="M 59.4 27.4 C 51.3 10.9, 13.8 57.4, 4.0 64.7 C 19.2 70.7, 30.3 70.1, 44.3 61.9 C 62.2 71.8, 71.6 62.7, 80.0 54.1 C 64.4 43.5, 38.1 41.2, 23.8 33.9 C 4.0 36.7, 65.6 40.9, 76.8 32.9 C 72.2 13.0, 37.8 0.0, 38.3 0.9 Z" fill="none" fill-opacity="0.46" stroke="hsl(106, 75%, 59%)" stroke-width="4.53"  transform="translate(99.4 35.9) rotate(304.3) scale(1.07 0.86)" />
<path d="M 29.2 60.4 C 9.2 66.2, 21.9 49.9, 17.3 46.5 C 26.0 45.4, 55.1 70.0, 68.0 82.5 C 76.1 63.5, 24.4 60.8, 19.3 73.0 C 4.3 68.7, 0.0 22.0, 3.0 16.1 C 18.7 12.1, 34.2 70.3, 43.9 71.1 C 31.2 83.7, 34.7 74.7, 21.0 87.4 C 16.1 100.0, 82.7 70.7, 82.2 76.6 Z" fill="hsl(144, 86%, 72%)" fill-opacity="0.80" stroke="none" stroke-width="2.35"  transform="translate(79.5 53.9) rotate(277.3) scale(1.70 0.91)" />
<rect x="24.0" y="5.4" width="28.8" height="22.8" rx="18.9" fill="none" fill-opacity="0.21"   transform="translate(64.7 96.4) rotate(61.5) scale(0.55 1.07)" />
<rect x="8.0" y="69.8" width="23.1" height="30.2" rx="0.8" fill="hsl(242, 72%, 49%)" fill-opacity="0.62" stroke="hsl(322, 74%, 44%)" stroke-width="3.4"  transform="translate(26.2 31.0) rotate(27.3) scale(0.88 0.67)" />
<path d="M 5.4 69.1 C 13.3 89.1, 29.4 45.8, 41.5 58.4 C 44.4 76.6, 84.6 22.4, 83.7 22.5 C 71.3 15.0, 98.2 45.9, 89.7 42.0 C 90.9 31.4, 25.1 91.4, 22.8 79.1 C 35.7 68.2, 62.8 64.5, 75.2 57.7 C 87.3 55.0, 28.3 34.5, 37.1 24.8 C 30.8 31.5, 94.6 86.5, 92.6 84.6 Z" fill="hsl(290, 83%, 63%)" fill-opacity="0.89" stroke="none" stroke-width="4.54"  transform="translate(12.7 77.4) rotate(185.3) scale(0.65 1.79)" />
<rect x="18.5" y="68.5" width="24.2" height="18.8" rx="4.6" fill="none" fill-opacity="0.90" stroke="hsl(106, 75%, 59%)" stroke-width="4.7"  transform="translate(39.5 17.1) rotate(39.9) scale(0.77 0.99)" />
<rect x="34.7" y="13.9" width="38.9" height="14.6" rx="0" fill="hsl(151, 70%, 62%)" fill-opacity="0.88" stroke="hsl(151, 70%, 62%)" stroke-width="2.3"  transform="translate(24.9 40.2) rotate(232.5) scale(1.54 1.00)" />
<g opacity="0.030">
<rect x="0" y="0" width="1" height="100" fill="black" />
<rect x="22" y="0" width="1" height="100" fill="black" />
<rect x="44" y="0" width="1" height="100" fill="black" />
<rect x="66" y="0" width="1" height="100" fill="black" />
<rect x="88" y="0" width="1" height="100" fill="black" />
<rect x="0" y="0" width="100" height="1" fill="black" />
<rect x="0" y="22" width="100" height="1" fill="black" />
<rect x="0" y="44" width="100" height="1" fill="black" />
<rect x="0" y="66" width="100" height="1" fill="black" />
<rect x="0" y="88" width="100" height="1" fill="black" />
</g>

</svg>
