<?xml version="1.0" encoding="UTF-8"?>
<svg xmlns="http://www.w3.org/2000/svg" width="100" height="100" viewBox="0 0 100 100">
<defs>
<linearGradient id="g0" x1="0%" y1="0%" x2="100%" y2="100%">
<stop offset="0.0%" stop-color="hsl(106, 75%, 59%)" />
<stop offset="33.3%" stop-color="hsl(183, 71%, 60%)" />
<stop offset="66.7%" stop-color="hsl(242, 72%, 49%)" />
<stop offset="100.0%" stop-color="hsl(322, 74%, 44%)" />
</linearGradient>
<linearGradient id="g1" x1="0%" y1="0%" x2="100%" y2="100%">
<stop offset="0.0%" stop-color="hsl(290, 83%, 63%)" />
<stop offset="33.3%" stop-color="hsl(2, 82%, 55%)" />
<stop offset="66.7%" stop-color="hsl(86, 72%, 68%)" />
<stop offset="100.0%" stop-color="hsl(83, 65%, 44%)" />
</linearGradient>
<linearGradient id="g2" x1="0%" y1="0%" x2="100%" y2="100%">
<stop offset="0.0%" stop-color="hsl(40, 53%, 69%)" />
<stop offset="33.3%" stop-color="hsl(104, 72%, 65%)" />
<stop offset="66.7%" stop-color="hsl(144, 86%, 72%)" />
<stop offset="100.0%" stop-color="hsl(151, 70%, 62%)" />
</linearGradient>
<filter id="f1" x="-20%" y="-20%" width="140%" height="140%">
  <feGaussianBlur stdDeviation="1.0157175961213512" />
</filter>

</defs>

<rect x="17.1" y="62.7" width="49.8" height="16.7" rx="0" fill="none" fill-opacity="0.57"   transform="translate(89.7 93.8) rotate(6.9) scale(1.37 0.52)" />
<circle cx="0.6" cy="81.0" r="2.7" fill="url(#g0)" fill-opacity="0.79"  transform="translate(30.9 52.1) rotate(36.9) scale(1.23 1.28)" />
<rect x="59.9" y="38.8" width="33.4" height="22.9" rx="10.5" fill="none" fill-opacity="0.58"   transform="translate(33.1 9.2) rotate(139.2) scale(1.93 1.00)" />
<rect x="27.8" y="23.9" width="40.2" height="14.9" rx="4.3" fill="none" fill-opacity="0.96"   transform="translate(64.7 10.7) rotate(350.2) scale(1.86 0.74)" />
<path d="M 2.7 40.1 C 0.0 41.6, 2.2 47.1, 2.9 57.9 C 9.3 53.6, 40.6 41.6, 25.9 30.1 C 35.3 42.3, 62.0 0.0, 75.3 5.6 C 78.3 0.0, 32.0 91.5, 35.2 90.4 C 39.1 92.8, 3.8 51.1, 7.9 52.6 C 8.3 55.8, 59.3 58.6, 58.5 59.3 C 42.1 49.2, 43.8 80.3, 52.6 84.7 Z" fill="none" fill-opacity="0.54" stroke="hsl(144, 86%, 72%)" stroke-width="1.18"  transform="translate(31.1 80.8) rotate(74.6) scale(1.59 1.66)" />
<path d="M 0.1 34.9 C 0.0 45.9, 33.2 44.5, 37.0 44.6 C 21.7 25.0, 29.1 45.7, 41.8 36.5 C 44.5 22.3, 53.0 85.4, 44.3 85.1 C 29.2 70.2, 90.1 51.3, 90.6 51.6 C 81.7 36.3, 28.7 90.7, 30.2 87.1 C 29.3 73.0, 10.0 1.6, 13.3 4.3 C 0.7 0.0, 15.4 60.0, 20.0 72.0 C 9.6 54.3, 8.7 4.9, 15.9 2.2 C 5.8 10.4, 76.5 2.6, 87.3 0.4 C 100.0 16.1, 31.5 52.5, 38.4 49.7 Z" fill="hsl(104, 72%, 65%)" fill-opacity="0.70" stroke="none" stroke-width="0.93"  transform="translate(57.2 69.6) rotate(14.4) scale(0.99 1.64)" />
<rect x="19.8" y="54.2" width="21.2" height="38.1" rx="0" fill="hsl(290, 83%, 63%)" fill-opacity="0.71"   transform="translate(90.0 37.6) rotate(24.3) scale(0.58 1.71)" />
<path d="M 0.4 57.0 C 0.0 41.6, 28.7 67.4, 36.7 59.0 C 19.2 39.2, 34.0 100.0, 22.1 95.6 C 20.9 100.0, 49.7 0.0, 51.6 1.8 C 32.9 0.0, 95.0 96.4, 98.1 92.5 C 99.4 78.2, 49.9 29.2, 50.1 30.1 C 39.2 29.5, 35.3 19.8, 40.5 20.2 C 47.6 12.9, 4.2 59.4, 19.0 72.9 C 25.8 83.0, 66.4 79.9, 58.1 88.3 C 44.5 75.5, 55.1 19.5, 51.4 22.1 Z" fill="none" fill-opacity="0.97" stroke="hsl(40, 53%, 69%)" stroke-width="3.50"  transform="translate(17.1 10.4) rotate(174.0) scale(0.95 1.89)" />
<rect x="49.9" y="24.5" width="33.6" height="23.7" rx="0" fill="none" fill-opacity="0.74"   transform="translate(31.9 11.9) rotate(69.5) scale(1.81 1.79)" />
<path d="M 6.6 58.0 C 10.4 70.6, 44.9 54.6, 36.2 61.5 C 27.9 80.5, 100.0 0.0, 95.8 3.1 C 100.0 1.0, 82.3 10.2, 73.3 4.6 C 59.2 12.4, 74.2 96.4, 64.5 98.7 C 56.2 85.0, 19.8 93.8, 13.0 84.6 C 21.1 95.8, 40.7 90.9, 42.9 88.6 C 32.1 77.5, 77.9 41.5, 81.4 31.5 C 86.3 30.3, 100.0 59.9, 93.8 66.8 C 100.0 61.7, 31.7 100.0, 25.4 98.5 C 29.3 85.2, 76.6 22.1, 72.4 15.9 Z" fill="hsl(242, 72%, 49%)" fill-opacity="0.71" stroke="none" stroke-width="1.99"  transform="translate(17.0 62.7) rotate(152.5) scale(1.05 1.87)" />
<path d="M 3.3 43.5 C 8.8 43.2, 66.0 72.3, 75.3 80.4 C 82.7 84.7, 16.5 0.0, 14.6 1.7 C 33.8 3.2, 88.3 44.2, 99.6 31.7 C 100.0 45.9, 32.2 83.8, 19.4 93.2 C 11.5 100.0, 76.3 64.7, 66.1 56.2 C 74.3 43.9, 52.3 72.7, 63.6 68.6 C 67.2 62.5, 69.6 45.6, 56.1 31.3 Z" fill="hsl(104, 72%, 65%)" fill-opacity="0.47" stroke="none" stroke-width="1.04"  transform="translate(27.7 71.4) rotate(318.7) scale(0.57 1.78)" />
<rect x="1.4" y="12.1" width="44.9" height="16.6" rx="12.4" fill="none" fill-opacity="0.50"    />
<path d="M 73.3 77.0 C 91.7 79.3, 100.0 75.4, 99.0 70.7 C 95.0 85.3, 26.9 47.9, 32.0 42.3 C 42.9 46.4, 94.0 22.3, 96.2 30.1 C 78.0 41.3, 10.6 71.6, 3.2 79.9 C 3.8 73.7, 92.0 42.2, 84.7 40.8 C 91.2 53.9, 23.9 30.6, 34.8 19.8 C 38.8 9.1, 0.0 42.6, 0.2 53.5 C 0.0 37.2, 77.2 80.4, 68.2 75.4 Z" fill="none" fill-opacity="0.36" stroke="hsl(40, 53%, 69%)" stroke-width="3.62"  transform="translate(74.3 6.5) rotate(235.5) scale(0.96 1.90)" />
<rect x="19.6" y="13.1" width="22.7" height="40.0" rx="0" fill="hsl(322, 74%, 44%)" fill-opacity="0.29"   transform="translate(20.5 64.9) rotate(83.7) scale(1.19 0.70)" />
<path d="M 64.1 46.7 C 48.8 66.2, 30.3 98.6, 29.4 86.9 C 49.3 82.6, 32.7 27.3, 23.6 32.1 C 11.8 32.7, 16.3 97.0, 20.0 86.2 C 6.8 89.9, 12.8 100.0, 25.4 95.8 C 44.9 89.6, 81.5 43.6, 96.3 46.1 C 92.6 59.6, 53.4 76.9, 39.5 83.6 C 45.9 80.4, 54.2 0.0, 62.7 0.9 C 80.5 9.9, 23.0 43.5, 21.2 49.6 Z" fill="none" fill-opacity="0.72" stroke="hsl(151, 70%, 62%)" stroke-width="2.07"  transform="translate(39.3 50.0) rotate(172.0) scale(1.20 1.99)" />
<path d="M 84.0 13.7 C 98.6 0.0, 11.7 25.1, 17.3 33.9 C 33.4 35.4, 92.0 6.9, 83.1 12.0 C 81.5 0.0, 86.5 63.4, 91.0 62.3 C 93.0 62.0, 2.5 84.9, 0.4 72.3 C 0.0 68.2, 80.5 43.3, 91.1 50.1 C 80.9 36.2, 59.7 87.7, 68.7 82.9 C 64.9 90.5, 100.0 21.8, 91.9 10.8 " fill="hsl(151, 70%, 62%)" fill-opacity="0.65" stroke="none" stroke-width="3.44"   />
<rect x="13.2" y="54.2" width="34.1" height="18.9" rx="0" fill="none" fill-opacity="0.63"   transform="translate(26.1 61.5) rotate(276.4) scale(1.80 0.71)" />
<rect x="11.8" y="21.5" width="36.5" height="34.6" rx="17.7" fill="hsl(106, 75%, 59%)" fill-opacity="0.79"   transform="translate(86.1 8.6) rotate(185.3) scale(1.80 0.99)" />
<path d="M 61.2 56.0 C 72.5 58.8, 20.7 95.7, 29.3 95.3 C 20.8 98.6, 0.0 54.8, 10.7 46.8 C 0.0 27.5, 76.9 78.5, 77.6 77.2 C 72.9 62.1, 89.4 0.0, 95.3 4.4 C 80.3 0.8, 51.7 54.1, 65.0 54.5 C 78.6 38.7, 21.7 74.1, 18.0 79.7 Z" fill="hsl(322, 74%, 44%)" fill-opacity="0.43" stroke="none" stroke-width="3.27"  transform="translate(36.2 64.4) rotate(327.1) scale(1.44 0.66)" />
<path d="M 14.2 29.1 C 16.7 26.6, 48.6 26.9, 59.7 32.9 C 58.1 30.9, 14.7 4.9, 23.3 10.1 C 22.5 0.0, 61.8 51.3, 68.8 62.8 C 50.6 54.8, 4.5 49.7, 13.1 58.3 C 23.8 42.0, 20.0 79.5, 21.1 70.5 C 38.8 51.0, 88.3 38.4, 78.2 32.5 Z" fill="hsl(322, 74%, 44%)" fill-opacity="0.71" stroke="none" stroke-width="4.54"  transform="translate(45.2 87.5) rotate(87.6) scale(0.59 0.77)" />
<rect x="22.5" y="44.8" width="35.4" height="29.9" rx="5.6" fill="hsl(86, 72%, 68%)" fill-opacity="0.51"  filter="url(#f1)" transform="translate(93.6 34.8) rotate(18.7) scale(1.86 0.83)" />
<rect x="31.1" y="11.7" width="31.2" height="23.3" rx="11.1" fill="none" fill-opacity="0.48"   transform="translate(66.8 86.8) rotate(47.3) scale(0.97 1.22)" />
<circle cx="47.7" cy="94.5" r="3.4" fill="url(#g1)" fill-opacity="0.68"  transform="translate(56.1 48.0) rotate(205.7) scale(1.03 1.74)" />
<rect x="32.2" y="39.8" width="20.1" height="25.3" rx="1.2" fill="hsl(322, 74%, 44%)" fill-opacity="0.24" stroke="hsl(242, 72%, 49%)" stroke-width="1.1"  transform="translate(18.9 75.6) rotate(94.4) scale(0.69 0.73)" />
<circle cx="24.8" cy="44.0" r="4.1" fill="url(#g2)" fill-opacity="0.94"  transform="translate(57.6 3.8) rotate(269.7) scale(0.56 1.93)" />
<rect x="45.4" y="52.3" width="40.5" height="20.0" rx="1.0" fill="none" fill-opacity="0.86"   transform="translate(55.6 22.4) rotate(118.6) scale(1.38 1.64)" />
<rect x="47.0" y="28.9" width="43.1" height="13.6" rx="0" fill="none" fill-opacity="0.46"   transform="translate(13.4 92.6) rotate(185.3) scale(0.79 1.96)" />
<path d="M 29.6 3.1 C 12.5 7.5, 73.3 38.8, 86.4 48.4 C 94.1 63.1, 70.7 21.3, 80.6 8.2 C 77.9 0.0, 51.5 43.1, 40.2 45.4 C 24.5 46.4, 79.3 98.2, 73.8 92.6 C 81.3 100.0, 67.3 72.8, 81.6 78.7 C 72.6 60.1, 39.1 48.5, 42.6 52.2 C 22.6 53.6, 1.3 73.6, 11.2 63.6 C 0.0 65.2, 14.1 0.0, 16.5 6.2 C 24.1 13.2, 7.0 100.0, 10.0 94.0 Z" fill="none" fill-opacity="0.44" stroke="hsl(40, 53%, 69%)" stroke-width="1.29"  transform="translate(33.5 55.7) rotate(270.0) scale(1.81 1.45)" />
<path d="M 26.9 17.6 C 31.6 6.9, 60.9 14.4, 51.0 8.9 C 35.8 0.0, 76.9 36.2, 78.6 36.6 C 89.8 30.4, 78.7 42.3, 92.7 43.7 C 82.3 34.5, 18.7 67.0, 6.9 56.8 C 21.3 72.0, 97.2 4.0, 92.2 11.8 C 72.9 0.0, 41.4 91.3, 31.2 84.8 C 29.1 70.1, 28.2 31.8, 37.2 30.9 C 49.3 39.3, 94.4 38.9, 79.8 43.3 C 78.0 60.3, 43.1 59.1, 53.9 63.0 Z" fill="hsl(322, 74%, 44%)" fill-opacity="0.35" stroke="none" stroke-width="4.03"  transform="translate(34.0 68.3) rotate(263.2) scale(0.85 0.51)" />
<path d="M 9.5 90.0 C 19.4 88.9, 55.5 76.9, 49.0 70.0 C 44.7 81.0, 53.9 10.0, 63.1 10.2 C 47.5 0.0, 32.4 17.9, 45.8 27.5 C 45.8 26.9, 69.9 81.1, 66.0 77.2 C 80.0 71.1, 0.0 21.4, 0.1 17.2 C 0.0 2.1, 68.8 100.0, 78.9 92.9 C 93.8 87.5, 7.5 89.0, 20.6 77.5 Z" fill="hsl(83, 65%, 44%)" fill-opacity="0.35" stroke="none" stroke-width="5.00" filter="url(#f1)" transform="translate(20.7 79.1) rotate(14.1) scale(0.56 1.80)" />
<rect x="46.9" y="42.6" width="41.5" height="24.8" rx="0" fill="none" fill-opacity="0.80"   transform="translate(58.0 29.4) rotate(225.1) scale(1.68 0.88)" />
<rect x="48.9" y="66.1" width="23.8" height="13.6" rx="16.2" fill="hsl(242, 72%, 49%)" fill-opacity="0.72" stroke="hsl(106, 75%, 59%)" stroke-width="4.2"  transform="translate(9.3 63.1) rotate(234.3) scale(1.52 1.66)" />
<path d="M 27.4 28.4 C 33.9 17.9, 33.9 18.5, 35.9 28.2 C 44.2 13.1, 69.3 100.0, 56.6 99.9 C 68.9 81.8, 98.6 12.0, 87.5 17.0 C 100.0 8.7, 50.6 36.4, 51.7 28.7 C 67.6 45.9, 74.0 100.0, 79.5 94.9 C 66.1 100.0, 0.0 47.6, 7.3 36.1 C 0.0 42.0, 37.3 0.0, 45.7 7.8 C 60.4 19.0, 76.4 26.0, 66.8 20.7 C 48.6 31.8, 9.4 50.0, 3.8 47.8 C 18.1 47.9, 85.6 59.8, 89.0 48.6 Z" fill="hsl(151, 70%, 62%)" fill-opacity="0.60" stroke="none" stroke-width="0.81" filter="url(#f1)" transform="translate(33.7 97.6) rotate(152.0) scale(1.95 0.97)" />
<path d="M 46.0 50.8 C 48.4 55.6, 46.4 44.3, 46.6 49.1 C 31.8 49.6, 7.9 52.7, 7.9 56.8 C 0.0 65.8, 90.8 98.6, 76.4 88.3 C 91.0 100.0, 30.9 54.2, 44.4 54.2 C 45.0 58.4, 36.7 96.4, 34.8 89.0 C 22.4 86.0, 3.2 19.0, 1.8 19.6 C 17.0 28.6, 18.3 73.2, 27.7 60.0 Z" fill="hsl(40, 53%, 69%)" fill-opacity="0.96" stroke="none" stroke-width="3.59"  transform="translate(23.9 19.3) rotate(213.9) scale(1.80 0.98)" />
<path d="M 52.3 92.1 C 45.4 92.8, 14.8 86.4, 28.0 74.2 C 37.4 75.4, 91.4 94.1, 95.0 94.7 C 100.0 100.0, 100.0 38.0, 93.0 25.6 C 100.0 8.5, 74.4 45.6, 74.6 57.1 C 75.5 44.1, 4.4 25.6, 17.4 17.4 C 23.0 4.4, 81.7 70.0, 68.9 71.4 C 82.4 80.6, 32.3 49.9, 19.5 61.0 C 27.1 80.6, 66.5 3.2, 57.5 0.4 C 66.2 8.4, 78.0 73.1, 69.4 84.1 Z" fill="none" fill-opacity="0.98" stroke="hsl(242, 72%, 49%)" stroke-width="3.81"  transform="translate(22.9 10.1) rotate(11.2) scale(0.75 0.60)" />
<path d="M 80.9 34.4 C 79.2 17.0, 55.9 77.8, 60.1 67.4 C 43.4 65.7, 72.3 58.6, 80.9 72.4 C 61.6 73.9, 52.1 41.8, 49.0 49.0 C 47.9 37.4, 27.0 0.2, 28.4 10.9 C 45.5 20.0, 50.9 18.8, 52.7 26.3 C 39.6 11.3, 100.0 64.1, 99.7 73.0 Z" fill="none" fill-opacity="0.70" stroke="hsl(144, 86%, 72%)" stroke-width="5.10"  transform="translate(21.3 95.5) rotate(46.6) scale(1.35 1.24)" />
<path d="M 49.2 20.3 C 53.2 18.3, 38.5 87.6, 32.2 74.5 C 34.6 57.1, 46.8 45.7, 48.9 41.0 C 45.0 39.3, 69.4 55.9, 71.2 59.9 C 89.9 46.7, 47.7 13.0, 39.7 2.6 C 31.1 0.0, 17.0 93.9, 2.6 86.5 C 5.1 82.7, 70.5 58.5, 57.4 57.5 C 39.1 57.7, 79.8 79.7, 71.8 81.8 Z" fill="hsl(183, 71%, 60%)" fill-opacity="0.30" stroke="none" stroke-width="3.14"  transform="translate(97.0 76.3) rotate(330.7) scale(1.87 1.14)" />
<path d="M 20.0 32.9 C 1.8 14.7, 66.7 53.4, 60.2 40.8 C 68.8 40.0, 89.7 34.5, 99.2 30.1 C 87.7 29.8, 25.5 55.4, 22.8 53.1 C 7.1 35.2, 40.9 99.8, 41.1 95.6 C 30.6 82.4, 30.0 16.8, 35.0 15.6 C 44.8 3.1, 59.8 18.6, 51.6 29.6 C 40.5 33.2, 5.7 58.6, 14.4 43.9 C 19.7 43.9, 30.7 6.5, 31.4 15.0 Z" fill="hsl(322, 74%, 44%)" fill-opacity="0.45" stroke="none" stroke-width="0.84"  transform="translate(13.3 6.3) rotate(213.3) scale(1.52 0.87)" />
<path d="M 82.3 7.0 C 79.9 13.9, 54.9 39.2, 63.4 49.1 C 78.6 56.7, 27.7 22.9, 18.6 9.2 C 15.0 6.5, 78.8 9.8, 69.1 22.8 C 80.7 31.4, 15.4 7.0, 13.5 16.1 C 0.5 10.6, 89.2 65.3, 99.7 66.3 C 100.0 60.6, 11.7 54.4, 3.4 62.6 Z" fill="hsl(322, 74%, 44%)" fill-opacity="0.32" stroke="none" stroke-width="1.97"  transform="translate(51.9 19.0) rotate(325.9) scale(0.58 0.66)" />
<circle cx="0.2" cy="38.8" r="1.1" fill="url(#g2)" fill-opacity="0.92"  transform="translate(72.9 77.6) rotate(240.1) scale(1.09 1.72)" />
<rect x="10.8" y="6.1" width="43.0" height="13.5" rx="0" fill="hsl(151, 70%, 62%)" fill-opacity="0.23"   transform="translate(64.9 76.5) rotate(167.4) scale(1.74 1.30)" />
<path d="M 74.5 4.5 C 82.8 13.1, 61.3 55.7, 51.3 53.6 C 42.0 68.5, 70.8 45.8, 75.1 60.8 C 89.6 78.1, 68.9 74.1, 69.3 82.3 C 76.3 87.7, 94.0 87.0, 86.5 92.2 C 98.6 93.5, 10.1 2.5, 0.4 11.9 C 0.0 19.1, 95.3 34.3, 96.9 36.6 C 90.0 31.8, 49.0 46.4, 40.1 51.3 Z" fill="none" fill-opacity="0.75" stroke="hsl(151, 70%, 62%)" stroke-width="3.45"  transform="translate(88.2 30.1) rotate(200.9) scale(1.12 1.51)" />
<circle cx="27.2" cy="81.5" r="3.5" fill="hsl(83, 65%, 44%)" fill-opacity="0.93"  transform="translate(23.3 6.7) rotate(50.3) scale(0.71 1.97)" />
<path d="M 58.8 72.4 C 74.9 60.9, 99.9 53.4, 85.6 61.1 C 80.7 57.0, 15.8 97.3, 20.3 91.1 C 38.3 100.0, 68.8 91.8, 68.8 98.3 C 84.6 92.1, 65.1 13.7, 68.3 3.2 C 65.0 1.8, 77.7 21.0, 75.2 20.1 C 58.4 33.3, 53.0 52.0, 43.8 42.0 C 37.7 23.3, 33.6 61.0, 31.4 62.6 C 11.9 69.0, 9.6 99.8, 6.9 91.5 C 15.1 73.7, 55.3 100.0, 42.0 93.4 C 56.7 91.8, 69.1 53.3, 74.4 41.8 " fill="hsl(40, 53%, 69%)" fill-opacity="0.72" stroke="none" stroke-width="3.44"  transform="translate(93.7 38.0) rotate(292.7) scale(1.80 0.67)" />
<path d="M 87.9 5.6 C 99.8 3.2, 74.2 35.2, 59.3 40.1 C 45.1 22.1, 19.0 13.9, 33.2 21.5 C 32.9 16.3, 58.9 36.9, 65.1 36.3 C 75.8 42.7, 16.6 67.4, 24.0 65.5 C 42.9 61.1, 77.9 57.0, 70.4 42.5 C 64.0 37.8, 85.5 16.0, 89.2 8.0 C 86.1 11.7, 5.5 66.9, 2.5 54.9 C 0.0 45.8, 54.6 92.4, 65.9 82.9 C 64.6 64.7, 92.5 6.1, 92.5 14.5 Z" fill="hsl(86, 72%, 68%)" fill-opacity="0.30" stroke="none" stroke-width="2.18" filter="url(#f1)" transform="translate(80.6 55.2) rotate(169.6) scale(1.51 1.30)" />
<circle cx="29.3" cy="41.5" r="11.9" fill="url(#g2)" fill-opacity="0.94" filter="url(#f1)" transform="translate(76.7 19.2) rotate(34.3) scale(0.57 1.14)" />
<path d="M 6.7 11.6 C 24.6 3.6, 89.2 69.1, 97.2 56.5 C 85.4 61.2, 78.5 77.6, 73.1 85.0 C 90.0 68.0, 53.1 27.4, 61.1 17.2 C 64.5 11.5, 91.0 8.0, 92.7 9.0 C 95.0 0.0, 20.0 14.1, 20.6 1.9 C 30.5 0.0, 39.8 86.7, 27.5 87.3 Z" fill="hsl(40, 53%, 69%)" fill-opacity="0.71" stroke="none" stroke-width="3.05"   />
<path d="M 19.9 80.6 C 24.6 61.6, 51.3 33.6, 56.9 25.3 C 71.2 36.7, 9.8 50.0, 20.8 51.5 C 20.5 71.2, 68.0 19.9, 77.1 26.7 C 86.1 33.7, 85.7 69.7, 99.5 67.2 C 91.8 81.5, 82.8 65.3, 82.9 74.1 C 67.6 66.8, 29.1 25.5, 39.0 28.2 Z" fill="hsl(83, 65%, 44%)" fill-opacity="0.28" stroke="none" stroke-width="1.90"  transform="translate(55.5 14.4) rotate(147.3) scale(1.05 0.71)" />
<path d="M 74.2 59.8 C 78.1 66.7, 89.8 86.6, 79.1 96.0 C 71.7 78.1, 15.1 16.3, 11.2 15.1 C 28.2 0.0, 10.9 17.4, 6.0 26.5 C 8.4 29.8, 16.9 71.1, 13.0 80.4 C 22.8 89.8, 75.3 69.0, 61.7 63.0 C 70.8 77.6, 0.7 21.8, 12.5 26.1 C 29.9 9.6, 72.2 95.4, 70.1 83.6 C 74.0 68.2, 84.6 50.9, 74.2 49.8 Z" fill="none" fill-opacity="0.66" stroke="hsl(151, 70%, 62%)" stroke-width="3.69" filter="url(#f1)" transform="translate(93.8 17.7) rotate(166.6) scale(1.43 1.80)" />
<path d="M 24.5 18.2 C 38.3 7.1, 100.0 74.6, 97.3 73.5 C 100.0 69.7, 56.9 41.6, 51.7 40.2 C 61.1 27.0, 100.0 55.3, 87.3 54.8 C 100.0 72.1, 66.4 24.0, 63.3 23.1 C 82.4 16.8, 62.1 43.9, 61.0 46.8 C 74.3 34.7, 67.4 69.4, 69.0 59.1 C 61.8 48.1, 65.8 60.6, 57.7 50.9 C 59.4 53.3, 55.2 58.7, 52.9 61.0 C 66.3 65.2, 0.0 30.1, 9.3 29.3 C 20.6 18.1, 63.9 100.0, 52.2 99.9 Z" fill="none" fill-opacity="0.43" stroke="hsl(86, 72%, 68%)" stroke-width="2.92"  transform="translate(38.0 86.6) rotate(226.0) scale(1.32 1.96)" />
<circle cx="94.6" cy="34.4" r="16.2" fill="url(#g2)" fill-opacity="0.85"  transform="translate(39.9 61.2) rotate(109.1) scale(1.66 0.96)" />
<rect x="32.0" y="86.9" width="37.6" height="10.8" rx="8.4" fill="hsl(86, 72%, 68%)" fill-opacity="0.88"   transform="translate(20.9 26.2) rotate(60.1) scale(0.97 1.98)" />
<path d="M 55.0 99.8 C 72.5 100.0, 31.8 42.0, 28.4 51.9 C 22.1 49.1, 2.9 52.4, 7.6 66.8 C 0.0 47.5, 44.0 42.6, 35.1 38.7 C 23.1 38.0, 59.4 75.4, 65.9 78.2 C 83.6 68.9, 43.6 80.8, 58.4 93.8 C 52.0 91.4, 0.0 50.1, 0.4 51.5 C 2.7 45.4, 93.8 64.6, 87.8 49.8 C 97.7 40.2, 24.3 7.1, 10.9 17.4 C 24.5 19.7, 79.0 65.3, 81.9 73.0 Z" fill="none" fill-opacity="0.40" stroke="hsl(322, 74%, 44%)" stroke-width="3.03"  transform="translate(49.5 83.5) rotate(316.1) scale(0.98 1.97)" />
<path d="M 27.2 68.1 C 15.5 69.5, 91.9 26.7, 93.8 19.6 C 100.0 17.4, 81.8 64.3, 75.2 70.1 C 82.5 56.0, 19.0 20.7, 7.0 21.4 C 2.5 30.6, 37.4 91.2, 29.6 99.9 C 23.8 100.0, 82.7 85.0, 76.3 72.9 C 73.3 63.3, 82.8 28.8, 89.3 20.2 C 71.5 10.0, 7.7 79.2, 7.5 73.5 C 22.2 71.1, 42.0 53.7, 37.1 45.6 C 18.3 33.3, 66.9 100.0, 77.7 95.8 Z" fill="none" fill-opacity="0.44" stroke="hsl(322, 74%, 44%)" stroke-width="2.09"  transform="translate(43.9 27.9) rotate(39.2) scale(1.25 0.74)" />
<path d="M 22.6 3.0 C 42.5 0.0, 80.9 8.1, 69.8 16.1 C 67.4 30.5, 13.9 20.0, 27.4 34.1 C 32.5 17.7, 100.0 26.3, 95.1 19.2 C 100.0 28.9, 64.4 77.3, 60.7 77.9 C 46.1 60.5, 20.4 61.9, 28.5 47.6 C 17.2 27.8, 30.5 63.0, 41.8 67.5 C 37.0 60.5, 0.4 16.6, 1.4 7.7 C 0.0 0.0, 60.7 15.9, 66.3 5.2 C 85.0 4.9, 0.0 78.2, 12.8 87.0 Z" fill="hsl(144, 86%, 72%)" fill-opacity="0.63" stroke="none" stroke-width="3.17"  transform="translate(7.9 39.5) rotate(261.8) scale(1.20 0.92)" />
<path d="M 83.7 3.4 C 91.7 0.0, 54.4 45.6, 50.3 36.5 C 67.2 27.2, 89.0 30.7, 86.9 24.3 C 76.3 18.1, 29.2 0.0, 18.6 8.6 C 26.0 3.1, 34.4 19.4, 36.5 13.8 C 20.9 10.7, 4.0 55.8, 11.2 47.8 C 11.9 55.5, 100.0 94.0, 95.9 80.2 C 100.0 71.2, 76.5 62.5, 84.7 62.8 C 75.0 54.9, 36.1 90.1, 33.6 97.4 Z" fill="hsl(2, 82%, 55%)" fill-opacity="0.73" stroke="none" stroke-width="2.04"  transform="translate(74.2 88.0) rotate(348.3) scale(1.59 1.51)" />
<rect x="9.1" y="49.7" width="20.1" height="29.7" rx="4.0" fill="none" fill-opacity="0.71"  filter="url(#f1)" transform="translate(93.9 84.5) rotate(105.7) scale(1.71 1.04)" />
<path d="M 68.0 29.9 C 82.3 17.6, 80.2 79.7, 81.7 81.2 C 98.4 93.7, 25.7 100.0, 17.5 89.1 C 30.7 69.2, 87.2 44.6, 98.6 53.6 C 83.1 46.7, 92.9 45.2, 78.1 35.0 C 72.8 22.6, 68.5 56.9, 74.5 69.7 C 56.1 81.0, 66.8 6.1, 66.0 9.2 C 75.0 16.9, 95.0 54.3, 85.0 62.1 Z" fill="hsl(83, 65%, 44%)" fill-opacity="0.55" stroke="none" stroke-width="4.87"   />
<path d="M 4.1 15.9 C 1.6 8.0, 16.5 91.5, 19.0 93.5 C 27.0 97.6, 75.5 65.2, 68.1 70.9 C 63.0 81.5, 23.7 40.7, 23.5 42.2 C 11.7 48.8, 35.7 38.6, 32.8 36.7 C 43.2 33.6, 91.6 18.0, 93.8 26.1 C 74.9 40.3, 0.0 54.2, 5.0 46.1 C 0.0 61.7, 22.9 62.1, 11.6 75.5 C 7.5 73.3, 6.4 40.6, 12.7 52.2 C 0.0 55.0, 34.4 43.3, 48.9 30.1 Z" fill="none" fill-opacity="0.70" stroke="hsl(106, 75%, 59%)" stroke-width="4.89"  transform="translate(77.0 75.6) rotate(145.7) scale(1.83 1.26)" />
<circle cx="95.4" cy="20.0" r="7.5" fill="hsl(83, 65%, 44%)" fill-opacity="0.99"  transform="translate(97.6 56.5) rotate(14.8) scale(0.96 0.95)" />
<circle cx="93.2" cy="34.5" r="6.8" fill="url(#g2)" fill-opacity="0.58"  transform="translate(89.1 44.9) rotate(264.6) scale(0.98 0.51)" />
<circle cx="45.6" cy="70.2" r="8.2" fill="hsl(40, 53%, 69%)" fill-opacity="0.84" filter="url(#f1)" transform="translate(8.7 7.4) rotate(106.5) scale(1.20 0.65)" />
<path d="M 20.8 18.0 C 10.7 33.2, 94.7 64.4, 98.9 53.0 C 79.4 38.2, 72.6 15.7, 58.4 6.5 C 58.3 24.2, 69.9 79.2, 55.8 81.5 C 35.8 97.8, 11.2 38.6, 19.8 39.1 C 5.9 41.3, 73.9 72.8, 83.3 74.4 C 82.9 57.9, 71.4 40.4, 59.9 34.4 Z" fill="hsl(106, 75%, 59%)" fill-opacity="0.31" stroke="none" stroke-width="1.08"  transform="translate(94.2 11.2) rotate(87.0) scale(1.59 0.72)" />
<circle cx="1.0" cy="62.3" r="8.8" fill="url(#g2)" fill-opacity="0.83"  transform="translate(23.0 56.8) rotate(103.7) scale(1.66 1.83)" />
<path d="M 64.7 6.6 C 57.2 19.0, 2.7 48.9, 15.5 41.6 C 23.2 57.4, 34.0 65.0, 42.6 73.3 C 56.4 92.3, 45.6 46.1, 33.9 55.7 C 34.0 43.5, 8.4 82.3, 9.1 92.1 C 0.0 78.9, 100.0 74.4, 96.7 68.6 C 91.1 87.1, 28.4 24.5, 36.6 26.7 C 54.8 45.3, 58.8 81.5, 43.9 84.8 Z" fill="hsl(322, 74%, 44%)" fill-opacity="0.64" stroke="none" stroke-width="1.43"  transform="translate(63.3 25.0) rotate(99.5) scale(0.69 0.61)" />
<path d="M 16.4 27.3 C 3.2 8.4, 58.0 48.6, 49.3 33.8 C 68.0 51.6, 54.3 90.1, 50.9 81.6 C 62.9 72.4, 74.1 27.0, 88.3 24.2 C 89.6 15.0, 1.2 79.3, 0.4 66.8 C 0.0 57.7, 20.4 12.7, 15.1 21.4 C 23.3 41.1, 68.0 65.3, 61.4 65.7 C 75.2 78.5, 65.2 91.3, 63.4 94.4 C 58.7 100.0, 67.8 14.5, 66.1 20.8 C 81.7 1.8, 30.6 57.7, 37.0 54.0 Z" fill="none" fill-opacity="0.83" stroke="hsl(290, 83%, 63%)" stroke-width="0.88"  transform="translate(53.5 7.1) rotate(164.0) scale(1.05 1.68)" />
<rect x="53.5" y="45.1" width="22.1" height="15.3" rx="0" fill="none" fill-opacity="0.35"   transform="translate(30.3 16.1) rotate(24.2) scale(1.49 0.67)" />
<rect x="54.3" y="42.3" width="28.6" height="18.2" rx="14.3" fill="hsl(290, 83%, 63%)" fill-opacity="0.73"    />
<rect x="61.1" y="68.2" width="32.6" height="15.3" rx="13.0" fill="none" fill-opacity="0.76"   transform="translate(31.4 52.0) rotate(231.8) scale(1.41 1.89)" />
<path d="M 74.7 74.7 C 69.2 92.9, 13.6 27.5, 26.9 37.0 C 45.0 45.2, 9.1 32.3, 1.0 26.1 C 0.7 9.9, 0.0 28.3, 2.0 18.2 C 0.3 34.3, 79.2 6.0, 93.6 18.9 C 100.0 19.1, 25.4 23.6, 24.1 21.9 C 18.5 21.2, 6.4 31.6, 3.1 33.1 C 0.0 42.4, 55.7 81.7, 69.9 84.1 C 80.5 77.2, 28.0 76.8, 24.2 73.2 C 39.1 90.7, 20.5 45.7, 24.0 42.6 C 7.0 48.2, 27.1 98.5, 16.1 88.3 Z" fill="none" fill-opacity="0.66" stroke="hsl(86, 72%, 68%)" stroke-width="4.97"   />
<circle cx="56.9" cy="34.9" r="4.2" fill="hsl(104, 72%, 65%)" fill-opacity="0.52"  transform="translate(11.5 51.5) rotate(267.5) scale(1.65 1.19)" />
<path d="M 42.8 2.9 C 47.6 22.0, 74.9 8.0, 76.6 13.4 C 65.3 0.0, 96.1 64.6, 88.2 78.0 C 68.8 96.2, 62.6 25.9, 56.5 39.4 C 48.4 30.4, 27.3 70.6, 34.2 73.5 C 48.0 76.9, 40.7 7.6, 36.5 14.2 C 40.1 14.7, 0.0 32.1, 10.5 28.0 Z" fill="hsl(322, 74%, 44%)" fill-opacity="0.33" stroke="none" stroke-width="1.61"  transform="translate(19.9 94.3) rotate(235.9) scale(1.92 1.80)" />
<rect x="17.1" y="7.1" width="39.1" height="35.3" rx="9.9" fill="none" fill-opacity="0.22"  filter="url(#f1)" transform="translate(32.7 24.7) rotate(287.5) scale(1.12 1.78)" />
<rect x="4.6" y="8.6" width="28.7" height="22.5" rx="17.3" fill="hsl(290, 83%, 63%)" fill-opacity="0.53"   transform="translate(13.5 47.0) rotate(96.3) scale(1.64 0.88)" />
<path d="M 81.5 29.8 C 63.6 18.0, 75.1 13.2, 63.7 18.1 C 55.5 19.1, 40.6 69.6, 53.3 61.5 C 59.5 73.7, 65.8 92.9, 68.5 83.0 C 76.6 63.9, 43.6 86.1, 57.4 90.2 C 39.2 89.8, 26.2 38.2, 20.4 31.2 C 35.9 40.6, 18.9 100.0, 23.7 92.4 C 16.6 100.0, 26.4 28.9, 30.7 39.7 C 36.5 49.4, 11.8 3.9, 16.4 10.7 Z" fill="hsl(2, 82%, 55%)" fill-opacity="0.66" stroke="none" stroke-width="2.88"  transform="translate(15.0 52.4) rotate(16.9) scale(1.67 1.62)" />
<path d="M 37.6 85.7 C 35.4 100.0, 33.4 31.1, 42.1 38.7 C 32.6 42.1, 9.8 87.3, 14.7 84.0 C 0.0 77.3, 100.0 84.7, 99.2 92.5 C 94.0 100.0, 56.0 40.0, 50.3 45.9 C 38.1 31.2, 31.8 61.8, 21.3 54.9 C 36.1 41.9, 55.9 17.9, 42.7 11.1 C 31.3 14.7, 15.1 32.7, 12.9 18.6 C 31.4 31.2, 23.3 56.3, 9.2 66.4 C 0.0 59.5, 42.0 44.7, 32.8 30.5 C 23.6 50.1, 59.6 100.0, 54.3 94.8 Z" fill="hsl(183, 71%, 60%)" fill-opacity="0.96" stroke="none" stroke-width="2.41"  transform="translate(67.9 60.1) rotate(48.4) scale(1.13 1.16)" />
<path d="M 46.6 25.3 C 26.8 33.3, 22.7 54.6, 18.6 61.1 C 10.1 47.8, 58.8 19.1, 56.6 23.1 C 49.6 40.6, 41.5 22.7, 54.4 10.7 C 52.7 0.0, 88.3 79.9, 84.1 75.5 C 93.1 61.8, 74.6 0.0, 64.1 7.1 C 46.0 3.1, 64.3 37.5, 62.7 43.1 C 66.5 27.6, 49.5 38.5, 61.6 24.6 C 72.5 29.8, 63.5 48.0, 60.9 62.9 C 47.6 46.1, 50.4 16.0, 59.9 29.9 C 40.0 23.8, 40.8 67.3, 47.0 71.6 Z" fill="none" fill-opacity="0.70" stroke="hsl(40, 53%, 69%)" stroke-width="1.67"  transform="translate(36.9 70.8) rotate(302.3) scale(0.59 1.88)" />
<path d="M 64.6 99.3 C 76.7 97.6, 63.5 89.0, 54.2 92.2 C 73.8 95.7, 40.9 13.8, 40.0 10.7 C 43.4 14.0, 24.8 38.4, 13.4 42.8 C 2.8 58.3, 55.7 53.7, 61.8 59.9 C 61.9 66.0, 56.1 42.1, 62.3 51.1 C 71.8 53.4, 21.8 93.4, 16.0 88.5 C 0.0 100.0, 97.5 3.5, 94.2 1.9 C 100.0 5.6, 18.3 83.8, 23.5 96.1 C 19.1 100.0, 20.0 85.7, 33.4 84.6 Z" fill="hsl(151, 70%, 62%)" fill-opacity="0.78" stroke="none" stroke-width="1.88"  transform="translate(55.6 10.8) rotate(61.3) scale(1.98 1.23)" />
<path d="M 4.0 75.0 C 21.7 75.3, 57.2 43.9, 64.5 38.9 C 53.2 30.5, 73.7 62.7, 74.5 52.2 C 65.9 70.5, 72.2 17.3, 70.4 31.0 C 82.0 15.0, 52.1 81.2, 47.4 73.6 C 48.7 69.0, 83.6 48.2, 83.3 48.3 C 97.2 59.3, 15.0 40.7, 24.5 29.6 C 29.8 26.5, 10.2 88.3, 24.0 89.7 C 41.2 75.7, 76.9 28.3, 91.6 31.6 C 100.0 34.6, 91.6 56.8, 80.5 58.2 C 62.1 53.5, 61.4 84.5, 60.2 75.6 Z" fill="hsl(242, 72%, 49%)" fill-opacity="0.37" stroke="none" stroke-width="2.94"  transform="translate(89.5 0.1) rotate(83.6) scale(0.91 1.00)" />
<path d="M 72.5 18.7 C 58.8 20.6, 31.2 52.2, 42.3 47.3 C 50.6 57.2, 73.2 52.4, 58.7 67.1 C 41.5 61.7, 52.8 32.4, 61.3 27.5 C 49.1 17.0, 77.1 28.8, 67.2 16.6 C 70.8 22.2, 22.0 0.0, 34.1 3.2 C 43.1 5.2, 100.0 97.9, 99.7 88.7 C 99.2 75.9, 31.6 88.1, 32.2 78.7 C 13.1 71.7, 80.7 100.0, 90.1 90.8 C 79.7 78.6, 36.5 86.2, 35.3 86.4 C 48.4 99.5, 50.2 58.1, 41.6 70.9 Z" fill="none" fill-opacity="0.26" stroke="hsl(322, 74%, 44%)" stroke-width="3.40"  transform="translate(88.4 37.9) rotate(142.6) scale(1.28 0.98)" />
<circle cx="34.5" cy="80.7" r="11.2" fill="hsl(322, 74%, 44%)" fill-opacity="0.71"   />
<path d="M 12.3 55.4 C 19.0 37.7, 36.7 42.2, 41.1 34.4 C 60.2 17.3, 44.4 0.0, 51.4 2.7 C 49.5 0.0, 61.3 88.6, 71.1 86.9 C 51.6 88.0, 100.0 0.0, 90.0 1.5 C 99.0 0.0, 67.4 49.6, 64.6 60.4 C 74.3 58.2, 37.2 75.7, 31.5 72.1 C 30.9 71.0, 11.4 40.3, 1.5 34.9 C 0.0 36.3, 86.0 12.8, 98.3 17.2 Z" fill="hsl(83, 65%, 44%)" fill-opacity="0.79" stroke="none" stroke-width="3.69"  transform="translate(17.9 11.9) rotate(69.1) scale(1.69 1.08)" />
<path d="M 41.8 78.8 C 53.7 78.6, 60.4 45.7, 48.1 49.2 C 37.0 57.4, 19.0 67.7, 15.3 68.5 C 0.0 74.4, 91.0 11.9, 83.9 10.7 C 88.3 27.0, 16.9 48.1, 16.3 51.2 C 35.3 41.1, 83.3 94.4, 79.2 92.7 C 87.6 77.4, 18.5 42.1, 30.1 35.5 Z" fill="none" fill-opacity="0.31" stroke="hsl(106, 75%, 59%)" stroke-width="2.67"  transform="translate(75.5 29.0) rotate(48.9) scale(0.60 1.71)" />
<path d="M 69.8 73.0 C 54.6 60.4, 78.0 46.1, 75.2 54.3 C 64.8 67.7, 97.8 22.5, 89.0 23.4 C 78.3 16.0, 46.3 63.7, 51.8 71.7 C 56.7 77.0, 66.2 39.5, 66.2 53.8 C 59.1 70.2, 83.5 96.4, 80.6 87.9 C 91.9 78.2, 70.5 70.8, 61.2 77.5 C 56.4 59.0, 40.1 15.5, 53.6 2.1 C 65.5 16.0, 64.5 82.0, 70.6 77.1 C 84.7 73.9, 13.4 35.7, 15.5 20.8 C 18.8 25.9, 12.9 68.8, 27.5 57.4 Z" fill="none" fill-opacity="0.85" stroke="hsl(86, 72%, 68%)" stroke-width="1.93"  transform="translate(1.1 92.4) rotate(142.4) scale(1.92 0.70)" />
<path d="M 65.8 36.1 C 51.0 26.4, 100.0 58.7, 97.4 66.8 C 80.3 72.6, 31.6 79.6, 33.2 65.5 C 22.9 51.8, 76.0 60.0, 86.8 57.6 C 100.0 72.1, 100.0 90.8, 90.0 79.2 C 72.2 98.8, 59.2 0.0, 50.1 2.9 C 62.5 0.0, 28.9 57.6, 23.1 42.8 C 27.3 52.5, 69.7 88.3, 55.7 92.0 Z" fill="none" fill-opacity="0.81" stroke="hsl(144, 86%, 72%)" stroke-width="4.69"  transform="translate(61.8 81.6) rotate(284.1) scale(1.62 1.07)" />
<path d="M 29.0 8.0 C 9.6 0.0, 19.3 1.2, 19.0 13.2 C 32.2 19.1, 0.0 21.5, 1.4 13.5 C 0.0 0.0, 4.7 97.7, 14.0 83.0 C 12.0 80.1, 61.0 47.6, 67.2 58.1 C 67.2 39.4, 39.7 18.1, 30.7 20.4 C 13.6 8.0, 100.0 14.3, 88.5 5.0 C 75.6 0.7, 84.3 11.8, 80.5 8.0 C 98.3 21.8, 13.2 17.7, 9.3 27.2 Z" fill="none" fill-opacity="0.43" stroke="hsl(83, 65%, 44%)" stroke-width="2.91"  transform="translate(63.9 11.9) rotate(107.6) scale(0.63 0.81)" />
<circle cx="67.3" cy="76.1" r="14.7" fill="hsl(144, 86%, 72%)" fill-opacity="0.93" filter="url(#f1)" transform="translate(85.9 55.5) rotate(96.6) scale(0.63 0.66)" />
<circle cx="54.6" cy="95.5" r="12.5" fill="hsl(86, 72%, 68%)" fill-opacity="0.71"  transform="translate(27.9 37.0) rotate(104.3) scale(1.03 1.17)" />
<path d="M 88.0 24.3 C 82.6 18.4, 49.3 96.9, 56.1 99.2 C 50.7 95.4, 50.4 26.1, 50.4 38.3 C 53.0 54.8, 63.2 42.2, 73.3 28.7 C 58.7 18.5, 48.1 18.8, 49.5 16.1 C 38.9 20.6, 11.6 98.5, 2.7 90.5 C 10.5 95.6, 76.0 68.2, 81.5 72.5 C 62.7 55.5, 14.0 89.4, 26.1 86.5 C 45.6 86.1, 0.0 100.0, 12.8 97.8 " fill="none" fill-opacity="0.75" stroke="hsl(83, 65%, 44%)" stroke-width="3.24"  transform="translate(67.2 79.0) rotate(348.6) scale(1.19 1.70)" />
<circle cx="76.5" cy="43.7" r="3.4" fill="url(#g2)" fill-opacity="0.96"  transform="translate(47.5 93.9) rotate(229.1) scale(0.83 0.79)" />
<path d="M 75.1 26.4 C 58.7 44.0, 62.8 34.3, 60.6 23.7 C 61.9 43.5, 44.6 79.8, 47.6 69.8 C 38.0 56.9, 82.6 82.6, 71.5 97.2 C 67.2 79.2, 26.9 57.3, 34.9 63.4 C 41.7 69.1, 100.0 61.4, 96.3 70.2 C 81.1 56.4, 82.1 59.1, 87.2 66.9 C 72.8 60.3, 79.5 16.1, 69.4 26.6 " fill="none" fill-opacity="0.35" stroke="hsl(104, 72%, 65%)" stroke-width="3.39"  transform="translate(37.8 21.5) rotate(345.8) scale(1.83 0.70)" />
<circle cx="77.5" cy="77.2" r="2.6" fill="hsl(2, 82%, 55%)" fill-opacity="0.40"  transform="translate(94.9 91.0) rotate(289.5) scale(2.00 0.51)" />
<path d="M 39.8 10.2 C 46.5 18.9, 45.4 0.0, 43.0 4.6 C 33.9 6.7, 81.0 72.2, 70.7 77.1 C 70.0 96.7, 37.8 79.5, 35.2 87.6 C 54.5 97.8, 37.0 72.6, 36.3 73.5 C 38.7 85.2, 91.3 100.0, 88.0 87.1 C 97.3 84.6, 51.1 8.0, 54.1 4.8 C 50.5 1.5, 47.8 82.2, 58.6 91.3 Z" fill="hsl(151, 70%, 62%)" fill-opacity="0.32" stroke="none" stroke-width="2.56"  transform="translate(58.8 8.5) rotate(84.8) scale(1.69 0.85)" />
<path d="M 72.5 25.1 C 74.7 14.3, 47.9 25.4, 45.2 23.7 C 45.5 15.8, 37.8 45.9, 30.6 49.2 C 40.3 61.7, 85.3 96.3, 94.7 88.0 C 100.0 87.7, 64.2 32.4, 50.0 23.5 C 43.2 20.6, 68.0 19.7, 80.3 31.1 C 88.7 22.6, 28.9 100.0, 41.7 96.4 Z" fill="hsl(151, 70%, 62%)" fill-opacity="0.40" stroke="none" stroke-width="1.25"  transform="translate(23.7 82.1) rotate(161.5) scale(1.47 1.80)" />
<circle cx="16.2" cy="39.2" r="10.6" fill="url(#g1)" fill-opacity="0.79"  transform="translate(26.2 35.2) rotate(76.5) scale(1.03 1.45)" />
<path d="M 15.8 33.9 C 25.2 18.4, 67.5 13.4, 66.8 16.2 C 84.9 26.1, 0.0 39.0, 8.9 37.0 C 25.9 31.1, 23.2 75.9, 13.2 78.0 C 31.9 86.0, 24.2 44.9, 19.3 31.5 C 35.4 28.2, 18.2 16.0, 16.9 7.1 C 25.1 24.3, 29.5 67.8, 16.1 76.1 C 22.5 59.5, 69.7 79.4, 79.7 90.7 C 87.9 84.6, 100.0 99.7, 94.3 96.6 C 92.7 100.0, 80.8 96.9, 80.6 94.0 Z" fill="none" fill-opacity="0.55" stroke="hsl(242, 72%, 49%)" stroke-width="1.73"   />
<path d="M 68.6 41.3 C 63.0 44.1, 21.8 63.2, 11.1 50.6 C 30.3 65.2, 69.9 59.6, 78.1 56.9 C 76.9 72.6, 35.6 44.0, 38.5 42.3 C 19.0 44.7, 4.9 11.7, 19.7 23.4 C 1.4 19.2, 78.5 61.7, 89.9 54.3 C 73.8 61.5, 87.4 6.5, 80.9 1.6 Z" fill="none" fill-opacity="0.72" stroke="hsl(242, 72%, 49%)" stroke-width="1.66"  transform="translate(38.2 15.6) rotate(277.6) scale(0.77 0.69)" />
<circle cx="96.6" cy="34.1" r="10.7" fill="hsl(322, 74%, 44%)" fill-opacity="0.82"  transform="translate(83.3 54.1) rotate(224.4) scale(1.94 1.64)" />
<path d="M 83.2 57.2 C 70.9 37.7, 21.8 40.0, 21.9 38.7 C 13.3 44.1, 17.7 82.1, 32.1 68.7 C 40.2 71.9, 41.0 44.5, 30.1 32.1 C 27.9 22.2, 17.7 37.1, 4.1 49.2 C 14.0 44.5, 70.6 80.0, 73.5 85.5 C 90.0 95.6, 64.2 75.9, 76.5 71.3 C 82.3 90.7, 59.6 57.3, 55.7 64.2 C 40.9 69.1, 70.2 2.9, 76.9 5.0 C 61.3 2.5, 25.3 0.0, 23.3 2.4 C 31.1 0.0, 30.9 19.4, 25.7 27.4 Z" fill="none" fill-opacity="0.99" stroke="hsl(106, 75%, 59%)" stroke-width="1.09"  transform="translate(50.4 66.8) rotate(315.5) scale(0.59 0.68)" />
<circle cx="20.1" cy="12.5" r="7.2" fill="url(#g1)" fill-opacity="0.78" filter="url(#f1)" transform="translate(86.1 64.5) rotate(350.4) scale(1.04 1.02)" />
<path d="M 82.8 62.3 C 71.2 76.0, 87.5 100.0, 85.5 97.9 C 83.1 100.0, 32.6 50.1, 21.1 62.9 C 8.3 55.4, 4.6 72.6, 9.5 65.8 C 10.6 67.6, 57.7 88.0, 59.2 97.5 C 39.6 91.3, 69.1 100.0, 71.5 92.4 C 82.2 94.6, 65.2 46.6, 58.7 42.5 C 49.9 25.1, 28.9 76.8, 41.3 73.3 C 24.0 87.9, 48.1 71.5, 57.1 76.4 C 55.0 74.9, 76.9 100.0, 84.7 97.0 " fill="hsl(151, 70%, 62%)" fill-opacity="1.00" stroke="none" stroke-width="4.99" filter="url(#f1)" transform="translate(44.2 83.6) rotate(106.0) scale(0.82 1.44)" />
<path d="M 50.3 48.6 C 34.6 45.3, 39.1 100.0, 47.5 96.2 C 28.6 88.4, 63.3 46.0, 52.0 55.9 C 51.9 44.0, 46.8 78.5, 40.0 66.0 C 57.7 60.7, 28.7 44.4, 15.0 43.6 C 11.4 24.1, 29.2 56.7, 32.8 45.3 C 44.4 62.4, 77.5 37.8, 70.8 24.7 C 77.8 44.3, 44.6 78.8, 56.2 84.0 C 48.5 100.0, 38.8 35.6, 45.5 50.4 C 50.5 36.6, 98.9 100.0, 84.3 98.3 C 92.9 100.0, 5.7 84.5, 11.4 75.7 Z" fill="none" fill-opacity="0.26" stroke="hsl(144, 86%, 72%)" stroke-width="3.19"  transform="translate(38.1 34.2) rotate(62.6) scale(0.79 1.09)" />
<circle cx="84.5" cy="23.0" r="5.1" fill="hsl(106, 75%, 59%)" fill-opacity="0.99"  transform="translate(60.3 37.2) rotate(354.4) scale(0.53 1.40)" />
<path d="M 87.2 56.6 C 96.9 59.0, 35.2 100.0, 41.7 93.4 C 44.6 90.1, 32.5 73.8, 21.7 69.5 C 9.1 85.0, 24.2 25.8, 32.5 35.1 C 36.4 29.8, 40.4 11.2, 41.2 22.6 C 61.0 39.0, 62.4 0.0, 51.1 1.3 C 69.6 0.0, 0.0 58.9, 6.6 69.4 C 17.7 77.8, 100.0 100.0, 91.8 99.2 C 80.9 84.1, 8.4 53.4, 11.0 57.2 C 0.0 76.3, 36.4 24.4, 24.2 17.1 C 12.5 6.3, 25.8 96.0, 25.9 99.7 Z" fill="none" fill-opacity="0.69" stroke="hsl(83, 65%, 44%)" stroke-width="4.55"  transform="translate(2.7 54.4) rotate(149.4) scale(0.90 1.63)" />
<circle cx="35.7" cy="91.1" r="15.8" fill="hsl(40, 53%, 69%)" fill-opacity="0.98"  transform="translate(47.0 51.1) rotate(98.8) scale(1.46 1.66)" />
<path d="M 68.3 61.7 C 86.2 45.7, 82.8 30.7, 97.0 43.8 C 90.4 48.4, 55.0 0.0, 69.6 8.1 C 88.9 21.0, 59.3 21.9, 57.3 15.2 C 50.6 2.4, 40.5 97.2, 27.0 98.4 C 34.3 87.8, 89.9 54.4, 88.4 56.0 C 84.0 57.5, 83.6 72.9, 96.6 61.0 C 100.0 55.6, 77.1 0.0, 70.8 0.8 C 56.6 17.8, 82.8 39.3, 82.4 41.6 Z" fill="hsl(2, 82%, 55%)" fill-opacity="0.49" stroke="none" stroke-width="5.23"  transform="translate(53.9 14.5) rotate(165.7) scale(1.75 1.75)" />
<path d="M 99.2 7.2 C 100.0 0.0, 96.8 17.0, 92.6 6.3 C 100.0 18.1, 0.0 100.0, 1.0 94.5 C 13.9 100.0, 45.8 5.3, 34.8 18.9 C 28.7 7.2, 27.2 77.1, 24.8 79.4 C 44.1 78.4, 88.0 2.3, 87.8 2.9 C 100.0 4.0, 35.7 24.1, 38.0 11.5 C 56.2 12.5, 59.4 49.9, 47.0 54.4 C 49.8 71.2, 73.1 84.0, 65.7 82.6 C 46.8 62.9, 97.4 80.7, 94.4 74.9 C 89.1 77.1, 85.3 29.8, 99.7 15.0 Z" fill="hsl(2, 82%, 55%)" fill-opacity="0.66" stroke="none" stroke-width="4.24"   />
<rect x="44.6" y="36.4" width="45.9" height="24.5" rx="17.3" fill="none" fill-opacity="0.81"   transform="translate(9.3 41.2) rotate(44.0) scale(1.71 0.54)" />
<circle cx="23.9" cy="15.3" r="7.9" fill="url(#g1)" fill-opacity="0.89"   />
<circle cx="82.3" cy="12.0" r="6.8" fill="hsl(83, 65%, 44%)" fill-opacity="0.75"  transform="translate(96.7 82.3) rotate(105.4) scale(1.19 1.28)" />
<path d="M 51.6 16.8 C 53.6 16.2, 1.0 96.4, 1.4 84.6 C 0.0 87.5, 29.2 2.3, 18.3 9.3 C 10.4 0.0, 12.4 11.4, 17.6 6.6 C 7.0 16.9, 100.0 100.0, 89.4 99.6 C 86.3 79.8, 76.0 100.0, 65.6 96.3 C 53.9 100.0, 74.9 42.8, 83.4 48.2 C 98.2 29.1, 11.0 50.0, 3.2 48.5 Z" fill="none" fill-opacity="0.70" stroke="hsl(242, 72%, 49%)" stroke-width="1.01"  transform="translate(62.4 55.6) rotate(188.8) scale(0.91 1.29)" />
<path d="M 11.4 91.4 C 0.0 100.0, 64.5 0.0, 74.5 7.7 C 77.3 0.0, 31.0 62.7, 45.9 55.5 C 36.3 54.2, 63.9 54.2, 73.2 65.7 C 65.0 60.0, 5.2 55.7, 6.8 56.1 C 18.4 56.2, 7.0 59.5, 1.2 65.7 C 0.0 51.4, 86.6 20.0, 92.9 28.1 C 100.0 38.3, 12.4 75.5, 11.7 76.9 C 4.2 83.0, 68.6 46.9, 67.8 61.8 " fill="hsl(104, 72%, 65%)" fill-opacity="0.96" stroke="none" stroke-width="5.29"  transform="translate(93.0 32.3) rotate(266.8) scale(0.95 1.96)" />
<circle cx="97.9" cy="24.0" r="9.3" fill="url(#g2)" fill-opacity="0.88"  transform="translate(22.3 79.4) rotate(31.7) scale(1.69 0.93)" />
<circle cx="62.4" cy="96.3" r="0.8" fill="url(#g1)" fill-opacity="0.57"  transform="translate(91.5 89.9) rotate(47.2) scale(0.63 1.48)" />
<circle cx="74.9" cy="75.7" r="7.4" fill="hsl(104, 72%, 65%)" fill-opacity="0.41"  transform="translate(88.0 64.7) rotate(229.0) scale(1.02 1.75)" />
<path d="M 83.2 87.9 C 93.1 80.8, 53.6 100.0, 56.5 96.9 C 37.0 100.0, 46.9 46.7, 49.4 41.9 C 40.4 46.0, 83.1 27.9, 76.3 16.8 C 91.1 5.7, 59.5 15.5, 74.3 26.4 C 55.4 6.8, 21.5 52.6, 29.8 47.3 C 40.4 43.8, 74.1 75.9, 85.9 69.8 C 68.8 87.5, 80.7 0.0, 81.1 4.0 C 91.2 22.6, 94.8 100.0, 87.8 96.7 C 72.5 100.0, 11.1 56.0, 4.1 66.3 C 0.0 64.0, 0.0 92.5, 3.9 88.4 Z" fill="hsl(322, 74%, 44%)" fill-opacity="0.30" stroke="none" stroke-width="4.64"  transform="translate(9.1 65.7) rotate(133.1) scale(0.74 1.27)" />
<circle cx="9.8" cy="77.0" r="5.8" fill="hsl(151, 70%, 62%)" fill-opacity="0.86"   />
<rect x="33.0" y="16.1" width="20.8" height="19.2" rx="5.2" fill="hsl(40, 53%, 69%)" fill-opacity="0.58" stroke="hsl(144, 86%, 72%)" stroke-width="4.8"  transform="translate(1.3 26.2) rotate(330.0) scale(1.86 1.51)" />
<path d="M 65.5 96.0 C 51.5 90.5, 8.2 11.2, 11.9 21.2 C 9.2 16.1, 50.6 50.5, 53.1 51.4 C 54.9 60.0, 14.7 59.2, 25.8 55.2 C 31.2 60.6, 27.4 67.0, 19.0 76.5 C 19.7 88.6, 87.6 8.9, 73.7 20.4 C 62.8 4.2, 0.0 44.8, 11.0 49.4 Z" fill="hsl(322, 74%, 44%)" fill-opacity="0.70" stroke="none" stroke-width="2.13"  transform="translate(30.0 71.5) rotate(13.2) scale(0.60 0.85)" />
<path d="M 33.3 60.9 C 49.3 44.3, 24.7 100.0, 26.0 98.7 C 25.0 100.0, 65.9 70.1, 56.2 74.8 C 58.7 72.4, 52.2 18.5, 44.4 11.0 C 52.7 0.0, 53.4 77.7, 66.6 77.4 C 46.9 73.0, 62.7 85.8, 47.8 98.7 C 35.0 88.9, 35.8 90.1, 42.3 92.0 Z" fill="hsl(83, 65%, 44%)" fill-opacity="0.88" stroke="none" stroke-width="3.81"  transform="translate(71.3 47.1) rotate(347.8) scale(1.46 1.32)" />
<rect x="44.3" y="0.2" width="29.4" height="37.4" rx="13.4" fill="hsl(83, 65%, 44%)" fill-opacity="0.25"   transform="translate(44.0 1.0) rotate(50.6) scale(1.53 1.86)" />
<circle cx="89.4" cy="93.2" r="4.8" fill="url(#g1)" fill-opacity="0.87"  transform="translate(33.1 62.2) rotate(195.7) scale(1.58 0.79)" />
<path d="M 24.3 16.5 C 5.9 19.4, 95.8 31.8, 90.9 40.2 C 100.0 23.1, 18.7 16.1, 15.1 11.2 C 5.6 0.0, 34.0 0.0, 41.2 2.5 C 25.3 18.3, 37.1 65.1, 31.3 52.8 C 50.0 46.4, 29.3 27.5, 33.6 41.6 C 20.9 39.2, 36.9 28.1, 32.3 17.2 C 31.0 0.0, 66.7 44.2, 53.9 51.7 C 41.3 61.7, 100.0 50.6, 98.7 62.7 " fill="hsl(106, 75%, 59%)" fill-opacity="0.47" stroke="none" stroke-width="0.92"  transform="translate(55.7 46.1) rotate(283.2) scale(0.56 0.98)" />
<circle cx="97.9" cy="96.4" r="1.9" fill="hsl(86, 72%, 68%)" fill-opacity="0.68"  transform="translate(82.8 90.6) rotate(178.3) scale(1.53 1.49)" />
<rect x="7.1" y="10.1" width="46.3" height="28.1" rx="0" fill="none" fill-opacity="0.91"   transform="translate(1.9 8.0) rotate(28.2) scale(0.98 1.67)" />
<circle cx="55.9" cy="30.1" r="3.2" fill="hsl(242, 72%, 49%)" fill-opacity="0.74"   />
<path d="M 54.6 56.1 C 43.4 58.0, 37.0 24.3, 24.8 23.2 C 11.3 38.6, 71.0 73.6, 71.9 74.6 C 88.8 63.0, 42.8 0.0, 54.6 8.8 C 61.8 23.2, 83.1 84.9, 75.7 70.9 C 68.7 60.3, 91.6 33.0, 85.4 20.4 C 79.0 35.3, 27.5 94.3, 24.3 99.8 Z" fill="hsl(83, 65%, 44%)" fill-opacity="0.89" stroke="none" stroke-width="3.44"  transform="translate(96.1 38.0) rotate(36.2) scale(1.03 0.92)" />
<rect x="16.0" y="55.8" width="20.5" height="32.4" rx="12.2" fill="hsl(83, 65%, 44%)" fill-opacity="0.85" stroke="hsl(86, 72%, 68%)" stroke-width="3.2"  transform="translate(98.5 48.0) rotate(20.2) scale(1.87 1.06)" />
<circle cx="77.3" cy="32.2" r="1.6" fill="url(#g2)" fill-opacity="0.49"  transform="translate(61.9 77.6) rotate(356.8) scale(1.09 1.04)" />
<circle cx="93.7" cy="33.2" r="0.4" fill="url(#g2)" fill-opacity="0.67"  transform="translate(70.8 61.3) rotate(99.2) scale(1.35 1.53)" />
<path d="M 75.8 5.7 C 58.4 10.2, 55.1 11.9, 58.0 3.7 C 46.3 0.0, 100.0 44.3, 91.5 57.2 C 100.0 37.9, 60.9 100.0, 50.4 91.5 C 59.0 71.7, 26.2 35.9, 14.4 40.2 C 3.6 35.4, 68.7 6.8, 55.8 10.3 C 43.2 0.0, 37.4 36.1, 34.3 26.8 C 28.0 32.8, 59.0 29.1, 70.7 22.5 C 88.6 24.8, 20.2 84.5, 13.6 98.7 C 6.4 93.1, 47.6 40.0, 37.1 49.7 Z" fill="hsl(290, 83%, 63%)" fill-opacity="0.96" stroke="none" stroke-width="4.43"  transform="translate(95.9 11.1) rotate(43.5) scale(1.78 0.91)" />
<path d="M 20.0 81.9 C 30.4 74.5, 23.8 100.0, 9.3 96.1 C 21.0 81.7, 63.0 16.2, 62.1 9.1 C 63.2 0.0, 40.5 19.9, 26.4 34.8 C 38.0 52.7, 20.5 91.8, 12.8 87.6 C 12.7 71.7, 90.6 52.4, 81.5 46.5 C 61.8 63.2, 29.7 69.1, 19.1 74.9 Z" fill="hsl(290, 83%, 63%)" fill-opacity="0.46" stroke="none" stroke-width="3.68"  transform="translate(65.4 91.7) rotate(97.1) scale(1.04 1.00)" />
<rect x="76.1" y="57.7" width="22.6" height="11.3" rx="9.8" fill="none" fill-opacity="0.73" stroke="hsl(144, 86%, 72%)" stroke-width="3.6"  transform="translate(8.9 2.6) rotate(117.6) scale(1.24 0.57)" />
<g opacity="0.080">
<rect x="0" y="0" width="1" height="100" fill="black" />
<rect x="22" y="0" width="1" height="100" fill="black" />
<rect x="44" y="0" width="1" height="100" fill="black" />
<rect x="66" y="0" width="1" height="100" fill="black" />
<rect x="88" y="0" width="1" height="100" fill="black" />
<rect x="0" y="0" width="100" height="1" fill="black" />
<rect x="0" y="22" width="100" height="1" fill="black" />
<rect x="0" y="44" width="100" height="1" fill="black" />
<rect x="0" y="66" width="100" height="1" fill="black" />
<rect x="0" y="88" width="100" height="1" fill="black" />
</g>

</svg>
