<?xml version="1.0" encoding="UTF-8"?>
<svg xmlns="http://www.w3.org/2000/svg" width="100" height="100" viewBox="0 0 100 100">
<defs>
<linearGradient id="g0" x1="0%" y1="0%" x2="100%" y2="100%">
<stop offset="0.0%" stop-color="hsl(106, 75%, 59%)" />
<stop offset="33.3%" stop-color="hsl(183, 71%, 60%)" />
<stop offset="66.7%" stop-color="hsl(242, 72%, 49%)" />
<stop offset="100.0%" stop-color="hsl(322, 74%, 44%)" />
</linearGradient>
<linearGradient id="g1" x1="0%" y1="0%" x2="100%" y2="100%">
<stop offset="0.0%" stop-color="hsl(290, 83%, 63%)" />
<stop offset="33.3%" stop-color="hsl(2, 82%, 55%)" />
<stop offset="66.7%" stop-color="hsl(86, 72%, 68%)" />
<stop offset="100.0%" stop-color="hsl(83, 65%, 44%)" />
</linearGradient>
<linearGradient id="g2" x1="0%" y1="0%" x2="100%" y2="100%">
<stop offset="0.0%" stop-color="hsl(40, 53%, 69%)" />
<stop offset="33.3%" stop-color="hsl(104, 72%, 65%)" />
<stop offset="66.7%" stop-color="hsl(144, 86%, 72%)" />
<stop offset="100.0%" stop-color="hsl(151, 70%, 62%)" />
</linearGradient>
</defs>

<circle cx="60.6" cy="94.0" r="0.7" fill="hsl(144, 86%, 72%)" fill-opacity="0.60"   />
<path d="M 17.0 90.5 C 18.4 88.3, 100.0 94.2, 93.5 90.0 C 76.6 87.1, 8.8 46.1, 21.7 32.4 C 10.7 16.6, 100.0 0.0, 99.0 6.5 C 99.4 25.2, 30.5 9.5, 16.5 6.6 C 22.6 0.0, 52.9 0.0, 62.8 5.0 C 46.9 0.0, 21.7 88.4, 8.0 86.4 " fill="none" fill-opacity="0.71" stroke="hsl(144, 86%, 72%)" stroke-width="0.88"  transform="translate(98.1 46.2) rotate(247.8) scale(0.64 0.93)" />
<circle cx="3.6" cy="8.6" r="0.6" fill="hsl(183, 71%, 60%)" fill-opacity="0.58"  transform="translate(24.2 92.8) rotate(62.1) scale(1.18 0.83)" />
<circle cx="17.7" cy="15.7" r="1.5" fill="hsl(183, 71%, 60%)" fill-opacity="0.80"  transform="translate(16.9 18.4) rotate(355.5) scale(1.36 1.55)" />
<path d="M 97.3 97.4 C 100.0 100.0, 34.1 61.8, 46.0 56.3 C 34.1 46.6, 75.3 81.1, 63.9 87.6 C 77.0 100.0, 24.4 9.1, 11.5 20.0 C 2.2 12.5, 6.2 25.8, 20.6 14.5 Z" fill="hsl(83, 65%, 44%)" fill-opacity="0.40" stroke="none" stroke-width="1.17"   />
<rect x="12.9" y="35.6" width="24.5" height="25.8" rx="0" fill="none" fill-opacity="0.71" stroke="hsl(242, 72%, 49%)" stroke-width="4.2"   />
<path d="M 62.6 22.9 C 58.6 34.1, 46.9 100.0, 43.9 93.0 C 48.3 100.0, 40.2 26.5, 34.4 24.8 C 47.9 20.1, 49.5 95.9, 49.5 98.9 C 39.7 100.0, 3.6 100.0, 13.1 93.9 C 26.2 98.9, 55.9 34.7, 60.0 24.7 Z" fill="hsl(183, 71%, 60%)" fill-opacity="0.96" stroke="none" stroke-width="1.03"  transform="translate(14.1 54.5) rotate(173.1) scale(0.62 0.78)" />
<path d="M 97.1 63.7 C 100.0 43.8, 28.6 22.0, 14.8 11.5 C 18.4 15.9, 12.2 33.8, 24.9 47.5 C 32.9 42.2, 0.0 24.0, 9.1 18.2 C 16.6 4.4, 10.1 58.6, 7.9 62.9 " fill="hsl(40, 53%, 69%)" fill-opacity="0.80" stroke="none" stroke-width="0.94"   />
<rect x="7.9" y="66.4" width="35.5" height="12.8" rx="0" fill="hsl(83, 65%, 44%)" fill-opacity="0.98"   transform="translate(95.9 52.1) rotate(324.9) scale(1.67 0.65)" />
<path d="M 67.9 51.3 C 62.2 65.8, 56.0 100.0, 42.4 94.8 C 50.7 100.0, 36.4 84.0, 36.6 96.0 C 55.0 100.0, 5.4 38.5, 7.0 50.9 C 0.0 34.5, 5.9 66.0, 12.1 54.9 C 0.0 40.8, 89.6 84.2, 81.9 86.9 C 89.4 92.0, 72.4 80.2, 67.9 69.6 C 53.6 58.2, 38.0 17.0, 30.9 16.5 " fill="hsl(290, 83%, 63%)" fill-opacity="0.29" stroke="none" stroke-width="1.10"  transform="translate(90.6 27.8) rotate(99.9) scale(1.35 0.81)" />
<rect x="38.9" y="38.2" width="23.4" height="38.0" rx="15.1" fill="none" fill-opacity="0.40"   transform="translate(85.0 98.3) rotate(356.3) scale(1.45 1.63)" />
<path d="M 63.8 75.9 C 82.3 64.1, 0.8 78.8, 8.3 88.1 C 0.0 68.7, 10.4 83.0, 13.2 90.4 C 0.0 85.2, 78.3 68.2, 89.5 69.1 C 100.0 51.8, 80.9 45.4, 75.9 32.2 C 67.3 23.4, 43.4 100.0, 49.7 93.5 C 53.9 80.9, 17.5 100.0, 27.4 96.8 " fill="none" fill-opacity="0.91" stroke="hsl(106, 75%, 59%)" stroke-width="1.13"  transform="translate(2.5 84.1) rotate(277.7) scale(1.56 1.78)" />
<path d="M 26.1 58.3 C 13.4 54.6, 43.0 28.7, 48.9 16.6 C 51.8 0.0, 77.9 84.4, 81.9 96.2 C 87.9 100.0, 43.6 99.9, 55.8 90.4 C 56.3 100.0, 42.5 100.0, 55.2 93.3 C 51.0 87.8, 11.1 31.6, 20.2 42.1 Z" fill="hsl(83, 65%, 44%)" fill-opacity="0.67" stroke="none" stroke-width="1.16"  transform="translate(78.2 23.4) rotate(13.6) scale(0.83 1.86)" />
<path d="M 43.1 3.0 C 26.8 11.4, 9.5 78.4, 22.1 67.0 C 42.0 59.0, 96.8 12.1, 82.8 16.0 C 86.4 1.6, 59.6 18.5, 51.1 5.9 C 42.5 22.6, 58.3 81.8, 64.2 74.7 C 75.2 58.2, 16.3 67.1, 20.1 76.5 C 23.6 57.5, 51.9 66.5, 42.0 60.9 C 38.6 53.8, 76.6 68.3, 62.6 67.4 " fill="none" fill-opacity="0.96" stroke="hsl(290, 83%, 63%)" stroke-width="1.11"   />
<circle cx="87.7" cy="35.8" r="0.5" fill="hsl(144, 86%, 72%)" fill-opacity="0.45"   />
</svg>
