<?xml version="1.0" encoding="UTF-8"?>
<svg xmlns="http://www.w3.org/2000/svg" width="100" height="100" viewBox="0 0 100 100">
<defs>
<linearGradient id="g0" x1="0%" y1="0%" x2="100%" y2="100%">
<stop offset="0.0%" stop-color="hsl(106, 75%, 59%)" />
<stop offset="33.3%" stop-color="hsl(183, 71%, 60%)" />
<stop offset="66.7%" stop-color="hsl(242, 72%, 49%)" />
<stop offset="100.0%" stop-color="hsl(322, 74%, 44%)" />
</linearGradient>
<linearGradient id="g1" x1="0%" y1="0%" x2="100%" y2="100%">
<stop offset="0.0%" stop-color="hsl(290, 83%, 63%)" />
<stop offset="33.3%" stop-color="hsl(2, 82%, 55%)" />
<stop offset="66.7%" stop-color="hsl(86, 72%, 68%)" />
<stop offset="100.0%" stop-color="hsl(83, 65%, 44%)" />
</linearGradient>
<linearGradient id="g2" x1="0%" y1="0%" x2="100%" y2="100%">
<stop offset="0.0%" stop-color="hsl(40, 53%, 69%)" />
<stop offset="33.3%" stop-color="hsl(104, 72%, 65%)" />
<stop offset="66.7%" stop-color="hsl(144, 86%, 72%)" />
<stop offset="100.0%" stop-color="hsl(151, 70%, 62%)" />
</linearGradient>
</defs>

<rect x="16.2" y="79.4" width="23.8" height="10.3" rx="0" fill="none" fill-opacity="0.65" stroke="hsl(322, 74%, 44%)" stroke-width="1.7"  transform="translate(33.5 87.9) rotate(322.2) scale(1.81 0.66)" />
<path d="M 83.3 27.1 C 81.9 29.7, 90.3 6.2, 91.7 16.5 C 100.0 7.7, 37.6 100.0, 43.1 95.9 C 54.3 100.0, 57.9 48.5, 72.4 43.2 C 75.6 61.0, 96.3 91.0, 90.8 96.7 C 100.0 90.5, 83.1 61.4, 76.7 59.8 C 75.7 65.4, 41.4 20.9, 33.7 6.6 " fill="none" fill-opacity="0.94" stroke="hsl(86, 72%, 68%)" stroke-width="0.90"   />
<path d="M 53.5 7.6 C 44.6 20.3, 51.6 40.8, 41.6 47.5 C 37.7 53.3, 61.9 39.7, 74.2 35.5 C 76.9 15.8, 25.7 0.8, 36.9 7.3 C 32.5 0.0, 15.1 49.2, 2.7 51.5 C 17.0 67.9, 30.0 68.2, 36.9 73.2 C 25.3 64.0, 0.0 100.0, 11.3 99.2 " fill="hsl(322, 74%, 44%)" fill-opacity="0.65" stroke="none" stroke-width="1.23"  transform="translate(16.2 34.0) rotate(285.7) scale(0.66 1.97)" />
<circle cx="62.6" cy="33.9" r="0.5" fill="hsl(144, 86%, 72%)" fill-opacity="0.67"  transform="translate(57.0 5.0) rotate(72.9) scale(0.70 0.89)" />
<path d="M 10.6 36.3 C 0.1 52.1, 53.6 33.2, 63.5 22.9 C 58.1 6.9, 71.0 59.0, 60.5 63.1 C 45.3 75.9, 29.9 57.9, 20.5 61.2 C 35.7 66.2, 71.9 0.0, 73.8 0.1 C 89.9 0.0, 78.1 76.1, 77.2 69.5 C 66.1 82.7, 29.1 69.2, 25.7 77.9 Z" fill="hsl(144, 86%, 72%)" fill-opacity="0.44" stroke="none" stroke-width="1.21"   />
<rect x="36.2" y="77.2" width="34.2" height="13.5" rx="8.9" fill="none" fill-opacity="0.20"   transform="translate(76.5 74.8) rotate(147.0) scale(1.76 0.94)" />
<path d="M 90.8 79.1 C 75.9 83.9, 93.5 55.4, 97.4 57.6 C 100.0 77.0, 5.6 100.0, 9.7 97.6 C 16.3 100.0, 0.0 68.8, 12.0 75.6 C 11.2 81.3, 52.5 20.7, 59.2 25.0 C 69.1 23.6, 76.7 0.0, 71.3 0.8 " fill="none" fill-opacity="0.73" stroke="hsl(144, 86%, 72%)" stroke-width="1.12"   />
<rect x="17.7" y="83.7" width="38.8" height="15.5" rx="15.4" fill="none" fill-opacity="0.25" stroke="hsl(322, 74%, 44%)" stroke-width="2.0"   />
<path d="M 37.9 65.2 C 23.2 83.8, 28.1 100.0, 27.6 94.5 C 47.0 79.8, 40.6 42.2, 55.0 42.9 C 50.3 35.2, 25.5 57.3, 33.9 43.1 Z" fill="hsl(2, 82%, 55%)" fill-opacity="0.40" stroke="none" stroke-width="0.83"  transform="translate(16.3 79.1) rotate(171.0) scale(1.19 1.46)" />
<rect x="26.6" y="11.2" width="43.6" height="26.1" rx="0" fill="hsl(83, 65%, 44%)" fill-opacity="0.63"   transform="translate(15.9 66.0) rotate(122.2) scale(2.00 1.10)" />
<rect x="26.9" y="67.7" width="40.5" height="22.2" rx="0" fill="none" fill-opacity="0.96" stroke="hsl(104, 72%, 65%)" stroke-width="1.2"  transform="translate(85.0 84.0) rotate(246.2) scale(1.38 0.92)" />
<path d="M 74.9 55.1 C 68.6 56.5, 18.5 42.0, 16.3 34.2 C 36.3 29.3, 48.0 62.0, 60.9 53.2 C 71.5 33.9, 4.5 0.0, 5.8 4.3 C 0.0 13.6, 24.2 72.6, 17.2 71.7 C 25.4 61.2, 18.4 50.6, 10.1 60.4 " fill="hsl(83, 65%, 44%)" fill-opacity="0.51" stroke="none" stroke-width="0.99"  transform="translate(20.4 74.7) rotate(37.5) scale(1.39 1.06)" />
<circle cx="50.1" cy="79.4" r="0.9" fill="hsl(183, 71%, 60%)" fill-opacity="0.50"  transform="translate(55.3 43.1) rotate(21.1) scale(1.98 1.75)" />
<path d="M 25.9 68.6 C 40.5 82.0, 57.7 78.2, 67.3 78.9 C 62.0 66.9, 96.1 54.2, 83.9 67.5 C 69.7 49.5, 3.2 83.8, 9.3 70.8 C 0.5 60.1, 74.8 22.0, 78.2 12.4 C 69.8 4.7, 69.7 6.8, 82.6 2.5 C 83.7 0.0, 40.3 100.0, 32.2 94.0 " fill="none" fill-opacity="0.76" stroke="hsl(2, 82%, 55%)" stroke-width="0.91"  transform="translate(41.0 62.7) rotate(347.5) scale(1.06 0.54)" />
<path d="M 30.1 1.5 C 24.5 1.2, 84.4 91.6, 95.0 84.3 C 78.3 66.1, 57.4 20.6, 69.0 6.3 C 75.2 12.1, 35.2 64.6, 30.5 62.9 C 21.2 44.0, 61.4 55.4, 53.7 58.2 " fill="hsl(2, 82%, 55%)" fill-opacity="0.30" stroke="none" stroke-width="1.28"   />
<path d="M 67.2 9.0 C 63.0 0.0, 46.3 0.8, 44.3 9.5 C 49.3 12.6, 79.4 71.7, 93.1 86.2 C 96.4 92.3, 54.0 28.2, 63.9 26.4 C 72.7 19.1, 15.7 75.5, 29.8 85.4 C 42.0 88.0, 38.1 29.0, 48.2 14.3 C 43.9 27.1, 90.0 60.1, 96.5 64.7 " fill="hsl(104, 72%, 65%)" fill-opacity="0.99" stroke="none" stroke-width="0.96"   />
</svg>
