<?xml version="1.0" encoding="UTF-8"?>
<svg xmlns="http://www.w3.org/2000/svg" width="100" height="100" viewBox="0 0 100 100">
<defs>
<linearGradient id="g0" x1="0%" y1="0%" x2="100%" y2="100%">
<stop offset="0.0%" stop-color="hsl(106, 75%, 59%)" />
<stop offset="33.3%" stop-color="hsl(183, 71%, 60%)" />
<stop offset="66.7%" stop-color="hsl(242, 72%, 49%)" />
<stop offset="100.0%" stop-color="hsl(322, 74%, 44%)" />
</linearGradient>
<linearGradient id="g1" x1="0%" y1="0%" x2="100%" y2="100%">
<stop offset="0.0%" stop-color="hsl(290, 83%, 63%)" />
<stop offset="33.3%" stop-color="hsl(2, 82%, 55%)" />
<stop offset="66.7%" stop-color="hsl(86, 72%, 68%)" />
<stop offset="100.0%" stop-color="hsl(83, 65%, 44%)" />
</linearGradient>
<linearGradient id="g2" x1="0%" y1="0%" x2="100%" y2="100%">
<stop offset="0.0%" stop-color="hsl(40, 53%, 69%)" />
<stop offset="33.3%" stop-color="hsl(104, 72%, 65%)" />
<stop offset="66.7%" stop-color="hsl(144, 86%, 72%)" />
<stop offset="100.0%" stop-color="hsl(151, 70%, 62%)" />
</linearGradient>
</defs>

<path d="M 20.1 47.3 C 18.4 42.9, 73.6 9.2, 66.4 23.5 C 53.9 10.2, 65.8 45.3, 62.3 40.1 C 61.2 45.9, 28.8 93.9, 21.0 99.8 C 19.7 100.0, 19.7 58.9, 7.3 44.9 C 15.4 38.5, 69.7 12.4, 75.4 20.4 Z" fill="hsl(144, 86%, 72%)" fill-opacity="0.35" stroke="none" stroke-width="1.05"  transform="translate(52.5 29.0) rotate(67.5) scale(0.74 0.88)" />
<circle cx="64.6" cy="78.7" r="0.6" fill="hsl(242, 72%, 49%)" fill-opacity="0.42"  transform="translate(24.2 60.1) rotate(82.0) scale(0.82 0.92)" />
<path d="M 33.8 66.1 C 26.5 85.3, 7.1 32.6, 17.9 20.3 C 17.4 13.7, 43.8 50.8, 29.9 51.9 C 17.5 42.5, 66.1 16.0, 55.5 16.9 C 73.5 18.3, 54.8 44.7, 44.6 59.5 C 37.1 47.0, 0.0 35.6, 0.6 27.6 C 0.0 15.4, 82.2 72.6, 94.7 81.0 " fill="none" fill-opacity="0.45" stroke="hsl(106, 75%, 59%)" stroke-width="0.88"   />
<circle cx="29.8" cy="99.1" r="0.4" fill="hsl(322, 74%, 44%)" fill-opacity="0.57"  transform="translate(53.0 45.3) rotate(358.5) scale(1.27 1.35)" />
<rect x="59.0" y="6.1" width="35.1" height="17.4" rx="8.4" fill="none" fill-opacity="0.35"   transform="translate(32.3 1.0) rotate(169.0) scale(1.39 1.74)" />
<path d="M 5.9 41.2 C 1.8 25.9, 70.5 25.7, 81.6 22.8 C 66.1 37.0, 100.0 14.3, 99.5 12.7 C 100.0 32.7, 83.6 58.4, 97.4 45.8 C 80.0 46.7, 19.6 40.8, 8.1 39.0 C 22.8 54.6, 86.5 74.1, 77.9 85.7 C 71.2 100.0, 47.5 59.2, 46.6 51.8 C 53.9 41.8, 13.1 98.0, 22.7 91.9 " fill="none" fill-opacity="0.57" stroke="hsl(151, 70%, 62%)" stroke-width="1.06"  transform="translate(42.2 49.2) rotate(165.1) scale(1.87 0.58)" />
<rect x="11.8" y="71.0" width="42.8" height="27.3" rx="0" fill="none" fill-opacity="0.82"   transform="translate(91.8 39.6) rotate(106.1) scale(0.83 0.98)" />
<rect x="12.2" y="72.3" width="25.8" height="10.3" rx="17.4" fill="hsl(151, 70%, 62%)" fill-opacity="0.79" stroke="hsl(151, 70%, 62%)" stroke-width="2.9"   />
<path d="M 21.4 3.9 C 26.8 18.7, 43.1 80.8, 38.3 81.9 C 23.6 94.2, 6.9 34.2, 7.5 42.1 C 5.8 61.0, 41.1 60.0, 33.6 56.3 " fill="none" fill-opacity="0.63" stroke="hsl(322, 74%, 44%)" stroke-width="0.81"  transform="translate(70.2 45.4) rotate(264.5) scale(1.90 0.96)" />
<path d="M 67.9 86.2 C 62.3 99.0, 47.2 15.8, 53.3 22.1 C 68.8 6.2, 37.9 66.5, 27.3 62.0 C 27.4 49.9, 41.0 97.9, 38.9 85.8 Z" fill="none" fill-opacity="0.63" stroke="hsl(290, 83%, 63%)" stroke-width="1.16"   />
<path d="M 62.5 30.6 C 79.3 22.6, 78.1 24.7, 78.3 27.6 C 90.5 33.4, 37.4 83.0, 50.6 94.3 C 59.8 100.0, 75.4 100.0, 77.7 96.3 C 75.0 83.9, 75.3 53.4, 61.5 59.4 " fill="none" fill-opacity="0.87" stroke="hsl(322, 74%, 44%)" stroke-width="0.82"  transform="translate(12.9 43.4) rotate(123.0) scale(1.68 1.30)" />
<circle cx="96.0" cy="38.5" r="1.8" fill="hsl(40, 53%, 69%)" fill-opacity="0.93"  transform="translate(22.6 70.4) rotate(145.4) scale(1.79 1.56)" />
<rect x="58.8" y="41.6" width="25.8" height="16.1" rx="12.4" fill="none" fill-opacity="0.92"    />
<path d="M 93.0 79.9 C 100.0 88.2, 93.8 15.8, 91.8 20.2 C 100.0 35.7, 0.0 33.8, 2.6 47.7 C 0.0 48.1, 60.2 57.1, 69.7 45.0 " fill="none" fill-opacity="0.45" stroke="hsl(83, 65%, 44%)" stroke-width="0.82"   />
<rect x="7.9" y="35.4" width="36.4" height="25.3" rx="2.6" fill="none" fill-opacity="0.61" stroke="hsl(86, 72%, 68%)" stroke-width="3.1"   />
<path d="M 29.2 17.2 C 43.8 22.1, 0.0 93.5, 2.2 91.9 C 1.5 100.0, 66.1 27.1, 64.9 26.5 C 55.2 9.7, 31.6 68.2, 42.8 55.1 C 48.4 45.8, 7.0 37.3, 13.7 36.2 C 25.6 52.7, 22.6 0.0, 32.3 5.9 " fill="none" fill-opacity="0.94" stroke="hsl(183, 71%, 60%)" stroke-width="0.93"  transform="translate(76.3 50.5) rotate(237.8) scale(1.61 1.22)" />
</svg>
