<?xml version="1.0" encoding="UTF-8"?>
<svg xmlns="http://www.w3.org/2000/svg" width="100" height="100" viewBox="0 0 100 100">
<defs>
<linearGradient id="g0" x1="0%" y1="0%" x2="100%" y2="100%">
<stop offset="0.0%" stop-color="hsl(106, 75%, 59%)" />
<stop offset="33.3%" stop-color="hsl(183, 71%, 60%)" />
<stop offset="66.7%" stop-color="hsl(242, 72%, 49%)" />
<stop offset="100.0%" stop-color="hsl(322, 74%, 44%)" />
</linearGradient>
<linearGradient id="g1" x1="0%" y1="0%" x2="100%" y2="100%">
<stop offset="0.0%" stop-color="hsl(290, 83%, 63%)" />
<stop offset="33.3%" stop-color="hsl(2, 82%, 55%)" />
<stop offset="66.7%" stop-color="hsl(86, 72%, 68%)" />
<stop offset="100.0%" stop-color="hsl(83, 65%, 44%)" />
</linearGradient>
<linearGradient id="g2" x1="0%" y1="0%" x2="100%" y2="100%">
<stop offset="0.0%" stop-color="hsl(40, 53%, 69%)" />
<stop offset="33.3%" stop-color="hsl(104, 72%, 65%)" />
<stop offset="66.7%" stop-color="hsl(144, 86%, 72%)" />
<stop offset="100.0%" stop-color="hsl(151, 70%, 62%)" />
</linearGradient>
<filter id="f1" x="-20%" y="-20%" width="140%" height="140%">
  <feGaussianBlur stdDeviation="1.2755794645944292" />
</filter>

</defs>

<path d="M 85.9 85.6 C 100.0 66.4, 41.4 0.0, 37.3 0.1 C 22.9 0.0, 26.7 45.9, 41.0 44.7 C 38.0 43.9, 100.0 11.3, 91.3 17.4 C 82.1 10.7, 8.9 86.2, 14.1 78.3 C 17.9 70.9, 100.0 73.6, 96.7 86.6 C 100.0 82.1, 36.8 6.6, 34.7 12.7 C 46.8 18.2, 36.1 0.0, 43.2 3.9 C 52.5 16.9, 57.7 28.7, 58.7 17.8 Z" fill="none" fill-opacity="0.66" stroke="hsl(242, 72%, 49%)" stroke-width="2.20"  transform="translate(39.6 96.8) rotate(341.1) scale(1.87 0.64)" />
<path d="M 87.5 33.1 C 100.0 31.7, 16.8 36.3, 10.0 42.3 C 6.6 26.5, 61.8 44.2, 69.8 50.7 C 51.8 40.6, 28.4 31.0, 38.9 30.4 C 25.7 21.4, 77.0 100.0, 80.0 90.0 C 89.8 100.0, 91.4 83.2, 94.5 74.0 C 93.4 90.0, 52.3 19.0, 41.9 15.3 C 34.4 7.1, 89.7 100.0, 77.2 97.3 Z" fill="none" fill-opacity="0.34" stroke="hsl(104, 72%, 65%)" stroke-width="2.36"  transform="translate(28.7 86.9) rotate(103.0) scale(1.51 1.51)" />
<circle cx="41.7" cy="48.6" r="8.6" fill="hsl(151, 70%, 62%)" fill-opacity="0.58" filter="url(#f1)" transform="translate(29.2 85.2) rotate(234.6) scale(1.89 1.35)" />
<rect x="27.8" y="45.5" width="31.1" height="33.2" rx="11.7" fill="hsl(242, 72%, 49%)" fill-opacity="0.30"    />
<path d="M 31.6 43.7 C 21.5 57.4, 22.6 27.2, 30.1 27.4 C 10.4 8.8, 100.0 66.8, 94.1 77.8 C 76.1 75.4, 77.1 83.8, 65.9 92.7 C 81.2 88.6, 80.3 0.0, 67.7 1.9 C 80.5 19.2, 28.3 83.6, 13.4 69.9 C 19.0 79.9, 72.7 23.6, 68.8 30.4 Z" fill="none" fill-opacity="0.44" stroke="hsl(290, 83%, 63%)" stroke-width="1.55"  transform="translate(54.4 4.6) rotate(227.6) scale(1.23 0.52)" />
<rect x="20.6" y="44.9" width="49.2" height="24.5" rx="0" fill="none" fill-opacity="0.77"   transform="translate(5.1 15.8) rotate(150.0) scale(1.66 1.58)" />
<rect x="15.1" y="9.4" width="36.1" height="37.8" rx="19.1" fill="none" fill-opacity="0.23"   transform="translate(19.9 4.6) rotate(220.0) scale(1.18 1.60)" />
<path d="M 96.2 2.4 C 93.5 2.3, 23.6 44.4, 22.8 34.5 C 28.2 33.3, 72.3 76.5, 80.9 73.3 C 90.9 79.2, 78.5 24.2, 77.4 28.9 C 59.9 21.5, 98.8 36.9, 90.2 34.7 C 95.6 31.5, 80.2 76.7, 88.3 67.9 C 95.9 59.5, 51.1 24.2, 49.9 37.7 C 60.0 34.6, 76.7 79.1, 91.3 86.7 C 86.6 80.3, 69.0 91.6, 57.7 83.9 Z" fill="none" fill-opacity="0.71" stroke="hsl(183, 71%, 60%)" stroke-width="3.29"  transform="translate(5.1 3.3) rotate(64.4) scale(1.70 0.93)" />
<path d="M 69.7 55.3 C 74.0 45.4, 77.7 17.7, 68.5 7.5 C 53.6 0.0, 100.0 7.0, 99.1 18.4 C 99.1 16.6, 90.9 57.5, 94.5 72.4 C 100.0 53.1, 64.1 54.6, 55.2 67.3 C 72.9 57.8, 36.3 89.4, 37.4 91.0 C 32.0 100.0, 30.2 41.6, 29.9 47.7 C 31.5 59.6, 94.4 51.2, 92.7 62.3 C 76.0 46.6, 97.6 85.0, 84.9 91.1 C 90.2 82.6, 91.7 48.4, 95.1 40.7 Z" fill="hsl(242, 72%, 49%)" fill-opacity="0.55" stroke="none" stroke-width="2.67"  transform="translate(85.6 55.6) rotate(188.0) scale(1.37 1.24)" />
<circle cx="77.4" cy="85.3" r="19.3" fill="hsl(86, 72%, 68%)" fill-opacity="0.48"  transform="translate(34.6 68.2) rotate(357.5) scale(1.31 1.63)" />
<path d="M 30.5 86.8 C 30.7 76.3, 32.4 68.6, 17.5 67.3 C 21.3 68.2, 80.8 41.9, 80.3 44.7 C 79.9 44.8, 100.0 100.0, 97.3 95.4 C 100.0 100.0, 29.4 85.0, 42.4 94.8 C 22.6 94.3, 90.2 49.3, 78.8 61.6 C 77.6 55.5, 7.5 46.0, 13.7 34.0 C 15.5 38.3, 57.2 31.2, 54.8 42.8 C 35.8 59.9, 87.0 5.1, 87.8 3.5 Z" fill="none" fill-opacity="0.99" stroke="hsl(106, 75%, 59%)" stroke-width="1.22" filter="url(#f1)" transform="translate(25.3 43.9) rotate(161.5) scale(0.54 0.71)" />
<circle cx="6.9" cy="5.8" r="0.8" fill="url(#g0)" fill-opacity="0.75"   />
<path d="M 87.7 91.9 C 95.4 75.0, 57.7 52.0, 62.6 65.8 C 64.1 56.0, 0.0 19.5, 3.8 17.6 C 12.8 0.2, 46.5 52.7, 39.5 57.6 C 49.5 51.4, 43.1 18.5, 36.0 10.2 C 54.2 0.0, 91.4 100.0, 95.5 92.4 C 93.5 95.0, 6.4 85.2, 9.8 92.6 C 0.0 99.4, 25.7 66.9, 23.2 62.0 C 4.0 66.9, 96.2 39.6, 99.6 48.4 C 100.0 30.2, 50.1 57.4, 46.8 70.1 C 42.6 79.8, 50.1 93.9, 44.7 93.7 Z" fill="hsl(2, 82%, 55%)" fill-opacity="0.54" stroke="none" stroke-width="0.90"   />
<path d="M 48.2 44.8 C 56.6 32.6, 23.1 93.7, 8.8 91.7 C 4.5 92.8, 44.8 12.1, 43.5 21.8 C 61.1 12.9, 94.7 94.4, 84.6 98.8 C 100.0 100.0, 100.0 1.1, 91.6 15.2 C 100.0 1.8, 78.3 1.9, 79.5 14.2 C 74.0 20.7, 55.1 7.3, 55.6 11.8 C 42.7 23.3, 42.7 41.5, 29.8 36.4 C 48.2 17.9, 37.9 84.9, 44.3 77.2 C 53.7 92.0, 41.0 92.2, 54.3 80.6 " fill="none" fill-opacity="0.60" stroke="hsl(40, 53%, 69%)" stroke-width="1.66"  transform="translate(73.1 54.7) rotate(328.0) scale(1.35 0.71)" />
<circle cx="36.6" cy="24.9" r="15.5" fill="hsl(83, 65%, 44%)" fill-opacity="0.56"  transform="translate(35.1 91.5) rotate(352.9) scale(1.50 1.35)" />
<path d="M 79.1 95.0 C 98.5 78.5, 23.1 70.3, 21.6 67.1 C 16.7 56.6, 28.0 89.6, 16.0 89.9 C 9.8 100.0, 72.8 76.0, 63.5 74.3 C 82.7 56.0, 17.1 72.2, 31.1 62.2 C 21.3 49.2, 68.9 49.1, 67.9 55.3 C 68.6 51.0, 71.5 89.0, 71.0 91.1 C 82.5 100.0, 89.1 14.9, 77.8 7.7 C 58.8 21.4, 62.4 77.6, 73.0 91.1 C 89.8 75.0, 83.4 59.9, 96.5 52.9 C 85.5 38.8, 52.6 80.9, 42.0 87.6 Z" fill="hsl(40, 53%, 69%)" fill-opacity="0.26" stroke="none" stroke-width="3.47"  transform="translate(35.4 35.0) rotate(229.6) scale(1.20 1.23)" />
<rect x="30.4" y="54.3" width="39.9" height="37.2" rx="9.7" fill="none" fill-opacity="0.57"    />
<path d="M 86.9 84.2 C 94.8 69.2, 89.4 36.8, 80.2 36.9 C 84.8 45.0, 9.5 30.5, 5.6 42.5 C 1.1 35.2, 32.3 5.6, 36.1 16.0 C 56.0 0.0, 48.6 47.3, 55.9 46.1 C 60.2 32.5, 84.4 87.9, 70.3 88.9 C 89.6 99.3, 78.6 63.8, 76.9 60.0 C 96.2 56.8, 61.8 60.8, 67.4 60.7 C 68.6 64.7, 14.4 0.0, 25.9 0.6 C 6.1 0.2, 0.0 24.8, 2.9 23.4 Z" fill="hsl(83, 65%, 44%)" fill-opacity="0.83" stroke="none" stroke-width="1.53"  transform="translate(43.1 36.4) rotate(144.4) scale(0.80 1.65)" />
<circle cx="47.3" cy="42.8" r="7.6" fill="url(#g1)" fill-opacity="0.83"  transform="translate(49.7 22.1) rotate(170.6) scale(1.17 1.22)" />
<circle cx="69.6" cy="75.8" r="15.3" fill="hsl(104, 72%, 65%)" fill-opacity="0.49"  transform="translate(52.7 61.4) rotate(82.3) scale(0.58 1.92)" />
<circle cx="31.3" cy="12.2" r="5.5" fill="url(#g0)" fill-opacity="0.65"  transform="translate(72.1 94.4) rotate(126.5) scale(1.16 1.35)" />
<rect x="62.8" y="15.5" width="26.1" height="16.4" rx="0" fill="hsl(322, 74%, 44%)" fill-opacity="0.25"  filter="url(#f1)" transform="translate(37.7 44.5) rotate(141.6) scale(0.98 0.72)" />
<path d="M 34.6 46.6 C 28.3 48.2, 57.7 15.4, 68.3 2.1 C 54.6 2.6, 72.7 77.6, 66.9 64.1 C 71.1 54.5, 36.8 97.1, 35.1 98.6 C 40.5 100.0, 48.1 45.1, 49.0 40.2 C 65.7 27.1, 0.0 19.9, 2.5 11.2 C 0.0 10.7, 75.9 45.4, 61.3 43.3 C 50.0 58.0, 30.3 48.4, 25.2 59.4 C 21.6 56.3, 72.8 16.9, 78.6 29.3 " fill="none" fill-opacity="0.26" stroke="hsl(40, 53%, 69%)" stroke-width="1.27"  transform="translate(51.9 35.4) rotate(147.3) scale(0.89 1.50)" />
<rect x="32.9" y="13.5" width="28.1" height="18.6" rx="14.9" fill="none" fill-opacity="0.97"   transform="translate(91.1 86.3) rotate(103.7) scale(0.95 1.15)" />
<rect x="18.3" y="32.3" width="31.1" height="36.1" rx="9.0" fill="none" fill-opacity="0.86"   transform="translate(66.2 30.1) rotate(117.8) scale(1.96 1.07)" />
<path d="M 73.9 76.7 C 66.3 58.6, 64.7 41.5, 76.8 28.0 C 90.2 23.5, 27.4 72.3, 25.6 68.5 C 23.1 61.5, 50.0 59.3, 38.9 73.9 C 55.8 55.5, 54.8 85.8, 67.9 83.0 C 61.4 65.9, 4.9 14.0, 0.7 12.0 C 0.0 21.5, 49.3 66.0, 59.1 65.6 C 61.4 72.7, 46.5 65.0, 38.8 64.9 C 21.2 70.8, 53.6 63.0, 50.7 49.1 C 58.9 37.3, 31.0 66.4, 16.9 60.8 Z" fill="hsl(151, 70%, 62%)" fill-opacity="0.80" stroke="none" stroke-width="4.99"  transform="translate(50.3 41.0) rotate(352.5) scale(1.76 1.73)" />
<rect x="13.1" y="18.8" width="46.6" height="23.3" rx="0" fill="none" fill-opacity="0.63"   transform="translate(65.1 94.1) rotate(282.1) scale(1.12 1.37)" />
<rect x="2.9" y="4.1" width="41.7" height="30.2" rx="0" fill="hsl(2, 82%, 55%)" fill-opacity="0.50"  filter="url(#f1)" transform="translate(91.0 38.3) rotate(260.3) scale(0.81 1.63)" />
<path d="M 74.4 41.2 C 59.4 60.1, 18.9 51.3, 25.4 62.3 C 25.8 59.0, 79.0 93.6, 71.3 91.3 C 57.3 100.0, 80.4 55.9, 74.2 56.9 C 88.7 61.2, 100.0 70.1, 99.6 64.1 C 99.6 65.9, 12.0 38.8, 26.8 45.4 C 43.8 50.5, 84.2 19.8, 86.6 4.8 C 95.6 7.1, 24.3 19.0, 14.6 12.6 C 33.7 8.8, 39.8 0.0, 43.6 4.5 C 39.4 16.9, 71.8 81.8, 73.2 83.2 C 85.6 63.6, 55.2 61.7, 67.5 54.3 Z" fill="hsl(290, 83%, 63%)" fill-opacity="0.98" stroke="none" stroke-width="3.70"  transform="translate(57.2 42.2) rotate(260.7) scale(1.69 1.44)" />
<path d="M 13.3 65.3 C 30.7 62.7, 100.0 83.4, 98.5 96.7 C 100.0 99.1, 58.8 39.8, 65.0 26.3 C 63.8 44.4, 51.4 48.1, 36.9 58.3 C 47.0 61.6, 32.8 92.6, 38.5 99.4 C 22.0 100.0, 92.0 88.3, 83.1 96.0 C 98.1 96.8, 66.1 48.0, 63.0 35.8 C 76.3 44.8, 100.0 77.4, 96.6 72.7 C 88.8 84.2, 76.4 74.4, 87.2 70.5 Z" fill="hsl(183, 71%, 60%)" fill-opacity="0.57" stroke="none" stroke-width="4.35"  transform="translate(71.2 16.8) rotate(125.1) scale(0.98 1.40)" />
<path d="M 15.2 3.5 C 11.6 0.0, 33.7 57.4, 34.9 53.4 C 49.7 36.8, 82.3 48.9, 92.7 50.3 C 100.0 63.1, 4.3 54.3, 11.1 68.7 C 19.7 83.1, 33.4 18.2, 34.9 8.8 C 51.4 15.8, 87.8 26.5, 92.2 25.0 C 100.0 39.0, 51.4 78.8, 65.8 76.1 C 70.8 87.1, 90.9 100.0, 96.6 99.6 C 100.0 80.6, 41.3 0.0, 47.8 13.3 Z" fill="none" fill-opacity="0.60" stroke="hsl(151, 70%, 62%)" stroke-width="5.18"  transform="translate(37.4 27.8) rotate(188.6) scale(1.83 0.89)" />
<rect x="15.9" y="0.1" width="36.8" height="23.7" rx="0" fill="none" fill-opacity="0.97"   transform="translate(36.7 52.6) rotate(313.1) scale(1.73 1.07)" />
<rect x="41.6" y="78.2" width="40.1" height="21.3" rx="1.3" fill="hsl(83, 65%, 44%)" fill-opacity="0.44"    />
<path d="M 75.4 20.0 C 61.2 25.7, 84.5 71.3, 88.3 85.6 C 95.1 100.0, 84.8 100.0, 89.7 96.2 C 89.4 89.7, 62.2 63.7, 56.8 56.9 C 71.7 59.8, 0.3 70.1, 11.7 61.2 C 0.0 69.9, 40.1 89.0, 38.3 78.4 C 33.5 62.7, 0.0 62.1, 13.7 47.5 C 8.9 41.1, 43.3 96.4, 54.1 97.9 C 43.6 97.5, 61.9 47.3, 75.9 36.4 C 65.0 46.2, 91.0 8.4, 91.4 19.0 C 76.6 17.5, 33.8 77.6, 19.9 65.7 Z" fill="hsl(2, 82%, 55%)" fill-opacity="0.84" stroke="none" stroke-width="1.16"  transform="translate(25.1 22.7) rotate(310.3) scale(1.15 0.99)" />
<rect x="27.2" y="8.0" width="40.8" height="35.1" rx="0" fill="hsl(86, 72%, 68%)" fill-opacity="0.37"   transform="translate(70.2 79.8) rotate(195.0) scale(1.51 0.59)" />
<path d="M 2.3 40.2 C 0.0 40.4, 28.9 91.2, 40.0 90.9 C 39.6 90.9, 87.7 91.3, 81.5 97.7 C 77.5 98.2, 78.7 96.8, 92.8 90.2 C 82.0 98.9, 1.3 55.6, 4.0 66.1 C 2.8 53.2, 72.9 40.5, 65.6 41.4 C 52.4 47.9, 68.9 27.4, 60.6 29.5 C 59.4 48.6, 34.1 0.0, 24.8 2.5 " fill="hsl(183, 71%, 60%)" fill-opacity="0.53" stroke="none" stroke-width="5.06"   />
<path d="M 70.9 36.0 C 59.1 29.5, 5.1 0.0, 19.2 1.7 C 37.3 21.5, 98.8 0.0, 89.6 4.7 C 89.8 11.6, 66.9 9.7, 71.7 20.6 C 72.3 18.7, 16.9 100.0, 20.7 98.3 C 14.2 89.6, 89.3 7.8, 78.2 10.4 C 60.7 0.0, 20.0 92.7, 24.4 99.1 C 7.0 100.0, 43.4 33.7, 35.6 23.8 C 19.4 23.3, 45.0 60.1, 53.8 71.0 C 60.9 57.2, 36.3 23.9, 33.3 27.2 C 38.9 29.4, 45.0 93.8, 32.3 90.6 Z" fill="hsl(83, 65%, 44%)" fill-opacity="0.87" stroke="none" stroke-width="1.48"  transform="translate(0.8 79.0) rotate(315.4) scale(1.58 1.14)" />
<path d="M 56.8 90.7 C 65.7 95.0, 34.1 27.8, 28.0 35.7 C 32.8 51.6, 56.2 32.7, 59.1 28.2 C 64.5 24.6, 66.6 0.0, 77.0 2.5 C 75.3 16.8, 91.9 16.3, 81.1 11.4 C 75.0 0.0, 25.1 70.6, 16.5 76.1 C 14.8 86.2, 27.4 98.7, 36.8 92.3 C 35.6 73.0, 38.3 57.0, 51.4 66.8 C 38.5 77.3, 36.7 16.2, 31.8 7.4 C 50.3 11.2, 50.4 35.0, 53.2 32.1 Z" fill="none" fill-opacity="0.29" stroke="hsl(242, 72%, 49%)" stroke-width="3.15"  transform="translate(32.3 59.4) rotate(173.0) scale(1.00 0.56)" />
<path d="M 1.5 1.3 C 13.4 7.7, 44.5 70.1, 41.2 80.6 C 24.1 83.0, 78.1 71.9, 88.8 84.4 C 100.0 70.2, 9.6 58.6, 1.8 72.8 C 0.0 56.9, 23.3 52.8, 22.0 44.4 C 8.9 43.7, 26.7 85.2, 19.4 98.0 C 33.3 91.8, 49.9 49.1, 63.0 43.3 Z" fill="hsl(144, 86%, 72%)" fill-opacity="0.64" stroke="none" stroke-width="3.90"  transform="translate(8.5 45.0) rotate(2.3) scale(1.60 0.68)" />
<rect x="22.1" y="15.0" width="45.8" height="24.8" rx="19.5" fill="none" fill-opacity="0.44" stroke="hsl(2, 82%, 55%)" stroke-width="3.7"  transform="translate(66.0 83.5) rotate(89.9) scale(0.82 0.73)" />
<circle cx="89.4" cy="9.2" r="15.2" fill="hsl(40, 53%, 69%)" fill-opacity="0.47"  transform="translate(62.2 66.8) rotate(272.0) scale(1.58 1.46)" />
<path d="M 65.6 61.0 C 81.3 45.9, 5.5 26.0, 5.1 11.6 C 0.0 7.8, 66.4 0.0, 73.3 12.9 C 69.6 30.5, 93.0 18.8, 97.5 9.1 C 86.1 12.7, 76.4 69.6, 69.1 66.9 C 66.2 82.9, 3.4 42.9, 9.7 32.0 C 14.8 42.7, 83.3 39.5, 93.9 33.7 C 77.4 23.7, 41.4 58.9, 54.3 55.3 Z" fill="none" fill-opacity="0.67" stroke="hsl(83, 65%, 44%)" stroke-width="5.06"  transform="translate(21.9 17.0) rotate(246.1) scale(1.20 0.58)" />
<path d="M 74.6 89.1 C 72.3 100.0, 81.5 53.8, 79.0 64.1 C 93.3 55.5, 41.8 100.0, 47.4 99.5 C 33.7 100.0, 56.6 67.2, 48.7 53.0 C 58.9 54.7, 0.0 40.0, 0.8 35.7 C 20.7 35.4, 2.6 34.4, 12.6 27.0 C 2.0 41.8, 56.1 2.4, 42.7 1.8 C 44.9 0.0, 19.3 89.8, 27.0 95.0 Z" fill="hsl(290, 83%, 63%)" fill-opacity="0.97" stroke="none" stroke-width="3.94" filter="url(#f1)" transform="translate(23.3 59.2) rotate(309.7) scale(0.66 1.14)" />
<rect x="59.4" y="46.5" width="33.0" height="39.4" rx="8.5" fill="none" fill-opacity="0.58"   transform="translate(44.3 2.7) rotate(332.8) scale(1.00 1.40)" />
<circle cx="40.3" cy="86.4" r="3.9" fill="url(#g0)" fill-opacity="0.84"   />
<circle cx="65.1" cy="49.7" r="8.8" fill="hsl(242, 72%, 49%)" fill-opacity="0.89"  transform="translate(30.0 85.6) rotate(286.1) scale(0.69 1.72)" />
<rect x="26.1" y="87.8" width="37.6" height="11.4" rx="0" fill="none" fill-opacity="0.50"   transform="translate(32.1 92.7) rotate(173.3) scale(0.98 1.45)" />
<rect x="8.0" y="4.8" width="43.0" height="22.3" rx="10.3" fill="none" fill-opacity="0.67"  filter="url(#f1)" transform="translate(92.6 69.6) rotate(296.5) scale(0.87 1.80)" />
<path d="M 30.5 33.6 C 36.5 30.3, 43.4 59.7, 29.7 51.4 C 18.3 37.9, 40.6 94.4, 35.9 93.8 C 19.1 75.1, 71.7 54.1, 57.6 48.1 C 65.9 65.5, 41.5 53.7, 46.4 47.2 C 27.2 66.6, 31.1 28.8, 42.8 17.0 C 58.7 13.7, 84.4 71.9, 97.6 66.4 Z" fill="hsl(86, 72%, 68%)" fill-opacity="0.87" stroke="none" stroke-width="4.33"  transform="translate(65.3 37.5) rotate(258.9) scale(0.66 1.25)" />
<circle cx="83.7" cy="47.3" r="11.6" fill="hsl(290, 83%, 63%)" fill-opacity="0.44"  transform="translate(18.0 34.5) rotate(55.5) scale(1.31 1.12)" />
<circle cx="59.4" cy="32.7" r="2.4" fill="url(#g2)" fill-opacity="0.66"  transform="translate(55.4 53.0) rotate(309.0) scale(0.68 1.54)" />
<path d="M 92.8 16.5 C 97.7 13.9, 0.0 30.4, 11.7 35.7 C 28.2 16.3, 35.4 82.7, 49.2 76.3 C 60.7 94.5, 60.6 24.0, 62.3 37.7 C 72.1 23.6, 11.0 25.2, 19.9 25.3 C 8.3 34.1, 63.1 15.3, 77.2 25.1 C 79.1 40.8, 33.4 95.4, 22.0 89.8 Z" fill="hsl(290, 83%, 63%)" fill-opacity="0.85" stroke="none" stroke-width="0.96"  transform="translate(17.0 58.6) rotate(307.7) scale(0.81 1.45)" />
<circle cx="13.3" cy="33.8" r="3.6" fill="hsl(2, 82%, 55%)" fill-opacity="0.97" filter="url(#f1)" transform="translate(35.1 58.5) rotate(171.3) scale(0.63 0.54)" />
<path d="M 66.7 45.6 C 86.2 30.5, 65.9 29.2, 56.3 41.5 C 69.6 60.1, 57.8 29.3, 69.5 24.0 C 49.9 5.8, 76.4 52.3, 80.7 62.1 C 88.4 57.3, 8.8 37.6, 5.2 33.7 C 2.0 22.2, 100.0 69.9, 89.4 71.2 C 78.8 72.4, 76.7 29.8, 63.7 42.2 C 56.2 58.9, 98.9 66.1, 91.1 58.0 Z" fill="none" fill-opacity="0.98" stroke="hsl(40, 53%, 69%)" stroke-width="1.70"  transform="translate(39.2 12.7) rotate(230.5) scale(1.03 1.00)" />
<circle cx="70.9" cy="19.1" r="3.5" fill="hsl(290, 83%, 63%)" fill-opacity="0.65" filter="url(#f1)" transform="translate(12.6 3.6) rotate(120.8) scale(1.29 1.43)" />
<rect x="18.2" y="64.6" width="46.9" height="31.0" rx="0" fill="hsl(290, 83%, 63%)" fill-opacity="0.68"   transform="translate(16.3 55.6) rotate(213.4) scale(0.59 0.97)" />
<rect x="41.6" y="44.3" width="22.4" height="22.8" rx="2.2" fill="hsl(106, 75%, 59%)" fill-opacity="0.84"   transform="translate(19.6 97.5) rotate(26.2) scale(1.15 1.24)" />
<circle cx="59.4" cy="60.7" r="1.4" fill="hsl(2, 82%, 55%)" fill-opacity="0.99"  transform="translate(85.6 35.4) rotate(282.7) scale(1.21 0.97)" />
<circle cx="70.6" cy="31.6" r="11.6" fill="hsl(106, 75%, 59%)" fill-opacity="0.59"  transform="translate(82.7 67.9) rotate(153.6) scale(0.53 0.67)" />
<rect x="17.1" y="46.9" width="36.5" height="27.4" rx="4.1" fill="none" fill-opacity="0.23"   transform="translate(73.1 3.6) rotate(168.2) scale(1.30 1.32)" />
<rect x="22.3" y="4.8" width="40.9" height="36.2" rx="3.3" fill="none" fill-opacity="0.75" stroke="hsl(322, 74%, 44%)" stroke-width="4.1"   />
<path d="M 36.0 38.7 C 55.6 50.9, 100.0 92.4, 96.0 82.8 C 90.0 89.2, 40.6 97.3, 32.8 93.0 C 49.8 76.8, 61.0 60.1, 69.2 65.6 C 52.5 81.2, 77.6 87.2, 87.1 96.2 C 100.0 91.6, 67.5 25.1, 72.6 37.6 C 61.6 54.1, 20.8 17.1, 20.9 18.2 C 8.4 0.0, 36.2 85.3, 36.4 93.9 Z" fill="none" fill-opacity="0.85" stroke="hsl(86, 72%, 68%)" stroke-width="1.19" filter="url(#f1)" transform="translate(19.1 57.5) rotate(264.4) scale(1.36 0.91)" />
<circle cx="48.0" cy="15.7" r="4.2" fill="hsl(86, 72%, 68%)" fill-opacity="0.96"  transform="translate(13.6 85.4) rotate(250.9) scale(1.08 0.76)" />
<path d="M 65.4 74.5 C 84.6 82.1, 39.9 0.0, 44.3 8.0 C 49.1 0.0, 88.0 81.4, 85.8 84.2 C 75.4 67.7, 12.2 84.5, 12.0 89.9 C 28.9 72.1, 82.2 90.2, 70.8 96.0 C 58.8 76.9, 72.3 40.1, 59.6 25.9 C 56.8 29.8, 22.3 85.4, 15.5 93.3 Z" fill="hsl(106, 75%, 59%)" fill-opacity="0.27" stroke="none" stroke-width="3.37"  transform="translate(13.6 56.0) rotate(278.1) scale(1.47 0.86)" />
<path d="M 11.3 58.8 C 21.1 46.6, 24.9 73.0, 14.9 74.1 C 22.9 62.8, 68.3 34.0, 72.6 24.9 C 80.5 39.2, 56.2 8.4, 67.6 6.6 C 67.5 0.0, 35.6 13.9, 29.6 13.6 C 27.3 9.1, 79.4 74.1, 72.4 70.8 C 92.1 75.1, 30.6 43.4, 19.4 51.0 C 35.4 33.5, 20.8 69.9, 14.6 76.0 Z" fill="hsl(290, 83%, 63%)" fill-opacity="0.96" stroke="none" stroke-width="4.50"  transform="translate(17.9 70.2) rotate(220.3) scale(1.54 1.69)" />
<rect x="57.9" y="3.2" width="36.4" height="37.2" rx="7.0" fill="none" fill-opacity="0.32" stroke="hsl(83, 65%, 44%)" stroke-width="1.3"  transform="translate(17.0 5.2) rotate(82.9) scale(1.60 0.98)" />
<rect x="42.2" y="58.2" width="31.6" height="31.1" rx="0" fill="hsl(322, 74%, 44%)" fill-opacity="0.41"    />
<rect x="35.9" y="22.2" width="22.5" height="16.8" rx="9.8" fill="hsl(322, 74%, 44%)" fill-opacity="0.73"   transform="translate(45.8 4.2) rotate(226.2) scale(0.89 1.59)" />
<circle cx="44.6" cy="62.6" r="6.0" fill="url(#g1)" fill-opacity="0.76" filter="url(#f1)" transform="translate(95.8 4.9) rotate(214.1) scale(1.09 1.91)" />
<rect x="16.3" y="4.5" width="36.9" height="29.5" rx="0" fill="hsl(183, 71%, 60%)" fill-opacity="0.42" stroke="hsl(242, 72%, 49%)" stroke-width="2.8"  transform="translate(48.5 57.0) rotate(331.6) scale(1.80 1.67)" />
<path d="M 28.1 36.4 C 43.3 38.8, 3.2 75.6, 10.9 74.7 C 12.6 84.8, 98.9 82.8, 84.3 71.5 C 66.9 83.0, 36.8 66.7, 27.1 78.6 C 42.6 96.5, 74.4 40.9, 83.8 31.8 C 92.7 44.4, 41.3 100.0, 52.0 98.9 C 48.8 100.0, 17.9 66.5, 16.1 76.9 Z" fill="hsl(106, 75%, 59%)" fill-opacity="0.87" stroke="none" stroke-width="3.02"  transform="translate(29.7 40.8) rotate(350.0) scale(0.67 1.92)" />
<rect x="12.6" y="31.8" width="30.4" height="25.8" rx="0" fill="none" fill-opacity="0.61" stroke="hsl(106, 75%, 59%)" stroke-width="3.9"  transform="translate(30.5 66.5) rotate(262.6) scale(1.45 1.46)" />
<rect x="56.6" y="57.8" width="36.9" height="23.7" rx="7.9" fill="hsl(183, 71%, 60%)" fill-opacity="0.75"   transform="translate(21.0 34.6) rotate(135.8) scale(0.62 1.85)" />
<path d="M 23.4 55.8 C 19.5 64.9, 43.4 56.4, 37.1 58.9 C 44.1 72.1, 69.7 50.2, 71.6 60.9 C 61.8 49.1, 24.7 96.8, 26.2 88.6 C 26.5 69.9, 43.6 32.4, 55.7 42.7 C 64.2 27.9, 17.7 94.0, 24.9 91.3 C 26.3 97.2, 30.9 100.0, 40.3 88.3 C 29.5 100.0, 38.0 86.3, 37.1 93.4 Z" fill="hsl(144, 86%, 72%)" fill-opacity="0.34" stroke="none" stroke-width="4.34"  transform="translate(4.6 20.3) rotate(34.2) scale(1.03 1.49)" />
<path d="M 71.3 16.1 C 80.2 36.0, 87.7 29.5, 99.4 25.4 C 100.0 7.3, 92.7 43.9, 84.1 45.3 C 74.2 27.6, 76.2 100.0, 70.8 89.2 C 82.1 86.8, 44.9 21.5, 34.3 20.0 C 42.5 16.9, 18.3 49.2, 15.1 57.9 C 21.1 76.5, 74.5 44.2, 79.0 48.8 C 87.6 40.7, 71.1 30.4, 59.9 44.2 C 55.6 29.9, 52.8 50.3, 58.6 51.2 Z" fill="none" fill-opacity="0.91" stroke="hsl(322, 74%, 44%)" stroke-width="4.80"  transform="translate(72.1 3.8) rotate(48.3) scale(1.25 1.55)" />
<path d="M 58.1 38.2 C 73.5 56.9, 70.5 66.5, 85.2 80.9 C 95.3 74.3, 59.8 26.5, 60.4 17.5 C 72.7 27.6, 39.6 78.7, 29.0 65.8 C 35.5 64.2, 19.1 14.3, 10.0 17.2 C 17.1 3.9, 43.4 91.3, 46.9 91.7 C 49.1 100.0, 35.3 1.2, 43.8 10.4 C 25.4 19.1, 74.1 73.6, 69.7 86.1 C 59.7 80.4, 92.5 15.5, 80.7 14.9 Z" fill="none" fill-opacity="0.68" stroke="hsl(104, 72%, 65%)" stroke-width="2.41"  transform="translate(48.3 99.9) rotate(240.5) scale(1.54 1.71)" />
<circle cx="19.4" cy="32.5" r="4.4" fill="hsl(83, 65%, 44%)" fill-opacity="0.43"  transform="translate(42.9 22.0) rotate(19.2) scale(1.12 1.91)" />
<circle cx="80.6" cy="1.7" r="4.1" fill="url(#g0)" fill-opacity="0.73"  transform="translate(61.4 14.5) rotate(116.7) scale(0.79 0.51)" />
<rect x="7.2" y="22.0" width="43.4" height="20.3" rx="8.9" fill="none" fill-opacity="0.59"   transform="translate(98.7 40.8) rotate(352.6) scale(0.88 1.30)" />
<path d="M 70.2 60.5 C 57.7 76.8, 71.7 76.6, 75.5 63.3 C 57.6 57.4, 0.0 64.4, 6.6 71.6 C 0.0 67.6, 39.7 68.9, 34.8 79.7 C 20.4 91.9, 10.3 11.3, 6.5 6.0 C 13.5 6.9, 64.4 12.5, 59.9 24.7 C 64.3 42.6, 52.5 49.3, 45.0 59.6 C 42.6 50.6, 36.1 50.2, 41.8 58.4 C 49.1 70.1, 93.4 70.9, 79.3 82.8 C 68.8 71.9, 11.3 31.4, 24.3 22.7 C 37.2 20.0, 59.2 4.0, 45.0 8.5 Z" fill="hsl(104, 72%, 65%)" fill-opacity="0.84" stroke="none" stroke-width="4.70"  transform="translate(25.1 95.5) rotate(113.3) scale(1.84 1.27)" />
<path d="M 38.3 49.1 C 37.7 29.4, 58.0 40.0, 51.0 32.5 C 32.1 21.6, 20.8 81.7, 32.7 73.2 C 27.4 91.4, 84.2 61.5, 95.1 64.6 C 100.0 47.9, 29.0 69.6, 15.8 69.9 C 27.5 55.0, 41.9 0.0, 38.4 3.2 C 32.4 0.0, 17.7 60.1, 3.4 54.8 C 13.4 46.1, 11.5 28.5, 4.8 26.0 C 7.5 42.0, 67.6 26.6, 79.3 12.3 Z" fill="hsl(183, 71%, 60%)" fill-opacity="0.38" stroke="none" stroke-width="2.13" filter="url(#f1)" transform="translate(24.8 45.6) rotate(275.0) scale(0.94 1.54)" />
<rect x="44.0" y="22.1" width="44.9" height="30.3" rx="0" fill="none" fill-opacity="0.44"   transform="translate(53.3 87.9) rotate(306.2) scale(0.74 1.34)" />
<circle cx="62.8" cy="96.4" r="14.1" fill="url(#g2)" fill-opacity="0.98"   />
<rect x="17.4" y="20.4" width="40.9" height="28.8" rx="1.2" fill="hsl(86, 72%, 68%)" fill-opacity="0.36" stroke="hsl(290, 83%, 63%)" stroke-width="1.1"  transform="translate(91.0 11.4) rotate(161.5) scale(1.37 1.74)" />
<rect x="67.2" y="54.1" width="32.1" height="12.7" rx="0" fill="none" fill-opacity="0.78"   transform="translate(35.1 44.3) rotate(206.7) scale(1.13 0.71)" />
<path d="M 43.7 31.0 C 38.2 49.4, 78.4 100.0, 82.2 94.0 C 71.1 100.0, 100.0 88.4, 98.4 87.6 C 100.0 100.0, 11.1 56.5, 3.7 43.4 C 9.9 38.9, 72.3 2.9, 80.7 7.3 C 64.7 3.5, 49.1 54.7, 61.2 56.6 C 53.9 48.5, 45.8 70.8, 31.6 57.0 C 39.6 43.9, 28.3 20.7, 23.6 30.7 C 6.7 37.3, 60.3 22.6, 71.3 14.3 Z" fill="hsl(151, 70%, 62%)" fill-opacity="0.69" stroke="none" stroke-width="2.58" filter="url(#f1)" transform="translate(89.4 96.8) rotate(24.9) scale(1.75 0.85)" />
<path d="M 90.0 10.2 C 86.4 26.0, 5.6 13.6, 15.8 23.7 C 35.1 37.3, 39.9 94.8, 53.6 93.2 C 51.0 88.7, 3.4 66.0, 12.8 60.6 C 6.9 41.9, 30.6 59.8, 42.2 56.0 C 41.9 50.7, 83.6 57.0, 94.4 45.4 C 100.0 27.9, 14.2 38.6, 22.4 45.6 C 2.4 56.7, 0.0 87.9, 4.6 74.8 C 0.0 74.0, 71.2 75.3, 65.8 82.1 Z" fill="hsl(106, 75%, 59%)" fill-opacity="0.64" stroke="none" stroke-width="5.11"  transform="translate(25.6 8.0) rotate(157.3) scale(1.20 1.64)" />
<path d="M 65.1 36.3 C 46.8 53.0, 53.8 26.1, 39.6 24.0 C 49.7 13.7, 1.1 86.5, 1.4 98.7 C 16.1 94.2, 100.0 30.2, 96.9 44.7 C 83.1 60.5, 62.0 26.5, 60.2 37.4 C 44.3 48.3, 49.2 44.2, 38.5 46.3 C 42.1 41.2, 61.3 25.7, 55.0 18.2 C 37.0 18.0, 98.6 67.6, 93.9 81.0 C 93.0 89.6, 71.2 100.0, 83.1 98.9 C 84.9 100.0, 16.2 68.8, 12.2 79.7 Z" fill="hsl(322, 74%, 44%)" fill-opacity="0.36" stroke="none" stroke-width="1.82"  transform="translate(29.2 46.1) rotate(311.1) scale(1.67 1.00)" />
<rect x="57.8" y="55.9" width="31.2" height="25.3" rx="0" fill="hsl(144, 86%, 72%)" fill-opacity="0.56"    />
<rect x="6.0" y="25.9" width="24.7" height="16.5" rx="0" fill="hsl(106, 75%, 59%)" fill-opacity="0.36" stroke="hsl(106, 75%, 59%)" stroke-width="3.7"  transform="translate(49.4 28.8) rotate(245.7) scale(1.57 1.25)" />
<path d="M 19.1 73.8 C 26.5 84.4, 84.7 18.3, 91.4 24.8 C 77.7 12.7, 13.6 52.5, 11.1 42.9 C 17.3 38.9, 66.5 71.0, 62.0 59.1 C 63.2 49.9, 0.0 41.8, 9.1 45.3 C 2.1 43.0, 33.4 85.9, 33.3 92.5 C 45.6 100.0, 26.3 50.9, 12.4 42.1 C 28.1 46.4, 2.6 23.1, 6.5 29.2 C 0.0 15.7, 59.5 21.6, 71.4 18.6 C 70.2 29.0, 31.0 56.3, 27.7 62.3 C 37.4 69.5, 16.5 66.7, 26.2 79.9 Z" fill="hsl(86, 72%, 68%)" fill-opacity="0.55" stroke="none" stroke-width="3.35"  transform="translate(67.5 52.9) rotate(220.9) scale(1.96 1.31)" />
<rect x="31.6" y="7.4" width="24.4" height="32.9" rx="5.4" fill="hsl(183, 71%, 60%)" fill-opacity="0.91"   transform="translate(83.0 17.1) rotate(335.5) scale(0.54 0.55)" />
<path d="M 75.6 8.2 C 64.4 7.3, 60.9 60.0, 74.2 52.9 C 57.8 47.4, 27.8 30.7, 34.2 42.5 C 45.8 50.6, 73.0 24.0, 85.0 21.3 C 90.8 23.7, 55.4 34.1, 55.6 48.7 C 52.3 54.2, 2.1 38.0, 1.4 41.1 C 20.5 44.6, 45.0 58.9, 57.6 57.3 Z" fill="none" fill-opacity="0.42" stroke="hsl(322, 74%, 44%)" stroke-width="1.92"  transform="translate(25.5 82.4) rotate(320.3) scale(2.00 0.93)" />
<path d="M 50.6 82.2 C 52.4 77.6, 16.1 0.0, 10.1 7.1 C 8.6 18.7, 7.9 29.6, 19.2 43.5 C 7.3 50.6, 67.0 0.0, 59.5 5.0 C 54.4 0.0, 66.5 49.9, 63.2 49.1 C 54.7 53.5, 45.5 78.1, 42.2 68.3 C 29.6 73.2, 78.0 18.2, 79.4 4.5 Z" fill="none" fill-opacity="0.41" stroke="hsl(104, 72%, 65%)" stroke-width="5.07"  transform="translate(27.2 81.1) rotate(342.2) scale(1.40 1.34)" />
<path d="M 68.1 64.3 C 78.1 46.3, 42.7 0.0, 51.1 9.8 C 34.8 0.0, 60.3 53.7, 72.5 65.7 C 54.2 66.7, 85.9 0.4, 71.3 12.2 C 51.7 16.3, 15.8 33.9, 5.6 27.8 C 0.0 15.8, 6.8 71.7, 7.1 74.1 C 2.4 65.4, 54.8 10.0, 50.4 13.1 Z" fill="none" fill-opacity="0.77" stroke="hsl(106, 75%, 59%)" stroke-width="2.01"  transform="translate(55.1 58.6) rotate(154.2) scale(0.52 1.95)" />
<circle cx="65.4" cy="18.4" r="13.4" fill="hsl(290, 83%, 63%)" fill-opacity="0.94" filter="url(#f1)" transform="translate(9.9 26.0) rotate(267.6) scale(0.88 0.99)" />
<circle cx="88.4" cy="22.8" r="12.3" fill="hsl(151, 70%, 62%)" fill-opacity="0.99"  transform="translate(56.3 12.5) rotate(355.8) scale(1.79 1.49)" />
<rect x="38.8" y="33.7" width="28.7" height="37.1" rx="3.9" fill="none" fill-opacity="0.39"   transform="translate(30.8 97.3) rotate(233.0) scale(1.50 1.68)" />
<rect x="56.1" y="74.3" width="24.5" height="16.2" rx="0" fill="hsl(104, 72%, 65%)" fill-opacity="0.98"   transform="translate(58.7 59.1) rotate(73.6) scale(0.86 1.49)" />
<rect x="29.7" y="40.0" width="34.7" height="21.5" rx="4.5" fill="hsl(83, 65%, 44%)" fill-opacity="0.68" stroke="hsl(2, 82%, 55%)" stroke-width="2.0" filter="url(#f1)" transform="translate(12.2 82.6) rotate(157.1) scale(1.81 1.70)" />
<path d="M 52.0 7.9 C 41.9 22.1, 43.5 0.0, 50.1 6.2 C 45.2 19.9, 55.4 79.0, 41.4 77.5 C 51.4 69.2, 56.4 69.0, 59.9 62.1 C 56.6 49.3, 94.2 80.7, 99.1 73.9 C 100.0 67.0, 36.9 79.7, 44.1 67.1 C 62.0 85.9, 81.7 4.2, 67.7 0.9 Z" fill="hsl(106, 75%, 59%)" fill-opacity="0.93" stroke="none" stroke-width="4.32"  transform="translate(12.8 39.3) rotate(162.0) scale(1.29 0.54)" />
<rect x="4.4" y="24.1" width="48.6" height="16.3" rx="0" fill="hsl(106, 75%, 59%)" fill-opacity="0.41"   transform="translate(33.1 74.8) rotate(331.2) scale(1.61 1.22)" />
<path d="M 22.7 77.8 C 14.4 75.2, 17.0 36.3, 27.5 36.6 C 44.5 28.7, 65.6 8.4, 65.7 22.4 C 51.8 20.4, 33.4 32.9, 41.7 33.6 C 37.2 45.9, 51.3 100.0, 44.2 96.2 C 49.6 90.6, 78.3 39.9, 81.7 38.4 C 73.7 45.9, 85.8 30.3, 91.9 16.1 Z" fill="none" fill-opacity="0.70" stroke="hsl(2, 82%, 55%)" stroke-width="4.58" filter="url(#f1)"  />
<path d="M 6.4 87.5 C 0.0 99.9, 75.6 88.7, 77.8 87.4 C 84.8 76.5, 0.0 51.0, 3.3 51.2 C 0.0 46.2, 48.8 11.1, 62.3 12.5 C 81.6 0.0, 64.7 99.2, 77.9 95.6 C 61.7 86.2, 10.9 38.2, 4.3 37.4 C 8.5 31.3, 100.0 42.0, 95.8 51.3 C 100.0 36.2, 42.5 50.9, 32.5 42.1 C 38.0 28.9, 60.3 0.0, 73.8 3.0 C 68.6 1.8, 53.6 93.1, 59.3 94.6 Z" fill="hsl(86, 72%, 68%)" fill-opacity="0.90" stroke="none" stroke-width="5.17"  transform="translate(6.6 37.3) rotate(95.8) scale(1.23 0.85)" />
<circle cx="40.3" cy="25.8" r="1.2" fill="hsl(183, 71%, 60%)" fill-opacity="0.74"  transform="translate(58.0 29.8) rotate(321.4) scale(0.95 1.49)" />
<circle cx="40.6" cy="23.2" r="5.1" fill="hsl(322, 74%, 44%)" fill-opacity="0.68" filter="url(#f1)" transform="translate(86.8 83.9) rotate(39.0) scale(1.49 0.70)" />
<circle cx="76.5" cy="60.7" r="4.7" fill="hsl(144, 86%, 72%)" fill-opacity="0.89"  transform="translate(36.6 13.9) rotate(306.3) scale(0.99 0.94)" />
<path d="M 96.0 80.5 C 97.0 93.1, 25.6 17.0, 36.2 28.5 C 48.1 15.6, 9.9 56.0, 18.4 62.5 C 31.4 46.1, 68.8 76.2, 66.5 62.8 C 52.5 78.2, 94.7 11.8, 93.7 3.9 C 100.0 9.8, 20.2 19.4, 10.6 10.5 C 0.0 0.0, 28.1 25.3, 22.0 27.5 C 16.0 46.7, 65.8 86.1, 57.5 71.8 C 38.8 58.4, 57.6 67.3, 66.8 67.2 Z" fill="none" fill-opacity="0.89" stroke="hsl(322, 74%, 44%)" stroke-width="2.81"  transform="translate(79.9 34.4) rotate(29.9) scale(1.48 1.14)" />
<path d="M 21.4 76.1 C 13.7 68.0, 20.3 83.1, 26.1 71.1 C 9.4 90.4, 79.2 47.2, 81.1 32.7 C 98.2 17.6, 58.8 97.0, 56.3 84.4 C 37.4 97.9, 52.9 48.1, 59.7 47.7 C 68.4 28.8, 0.0 45.1, 1.2 41.5 C 0.0 45.9, 3.8 35.6, 4.0 49.5 C 18.0 40.3, 1.7 87.7, 10.1 96.6 C 22.3 100.0, 74.3 4.6, 71.4 4.2 C 86.6 8.8, 96.8 79.5, 92.1 87.4 Z" fill="none" fill-opacity="0.81" stroke="hsl(322, 74%, 44%)" stroke-width="2.70"  transform="translate(71.3 41.0) rotate(276.4) scale(1.59 1.08)" />
<rect x="34.7" y="7.6" width="25.1" height="17.8" rx="4.9" fill="hsl(151, 70%, 62%)" fill-opacity="0.54"   transform="translate(84.3 96.0) rotate(58.4) scale(1.03 1.57)" />
<path d="M 38.4 77.9 C 57.4 74.1, 10.9 20.4, 19.0 29.8 C 8.4 27.4, 94.1 6.8, 94.9 2.9 C 100.0 0.0, 16.4 92.7, 8.5 87.7 C 23.0 78.6, 32.7 17.3, 23.0 9.9 C 39.9 23.3, 72.3 81.9, 60.5 74.2 C 41.7 67.3, 80.0 69.5, 73.5 63.9 C 82.3 81.8, 71.4 57.3, 58.5 60.9 C 56.5 73.2, 45.6 15.1, 51.5 25.2 C 44.3 22.7, 98.0 89.4, 98.7 78.4 Z" fill="none" fill-opacity="0.88" stroke="hsl(104, 72%, 65%)" stroke-width="2.26"  transform="translate(82.6 18.3) rotate(156.2) scale(0.74 1.01)" />
<rect x="20.3" y="11.7" width="35.7" height="13.2" rx="0" fill="none" fill-opacity="0.25" stroke="hsl(86, 72%, 68%)" stroke-width="1.1"   />
<rect x="47.9" y="83.1" width="38.5" height="16.0" rx="0" fill="none" fill-opacity="0.94" stroke="hsl(83, 65%, 44%)" stroke-width="3.1"  transform="translate(9.3 22.7) rotate(131.5) scale(0.96 1.37)" />
<circle cx="28.4" cy="20.9" r="1.8" fill="url(#g2)" fill-opacity="0.90"  transform="translate(13.2 81.0) rotate(47.6) scale(1.94 1.05)" />
<circle cx="59.3" cy="39.1" r="8.0" fill="url(#g2)" fill-opacity="0.91"  transform="translate(45.3 82.2) rotate(297.0) scale(1.06 1.12)" />
<rect x="58.0" y="8.2" width="31.7" height="37.7" rx="0" fill="none" fill-opacity="0.56" stroke="hsl(144, 86%, 72%)" stroke-width="3.0"  transform="translate(47.8 8.1) rotate(261.6) scale(1.48 0.76)" />
<path d="M 78.6 74.9 C 85.3 93.7, 100.0 57.1, 91.5 43.5 C 100.0 29.8, 69.9 61.6, 69.6 54.5 C 55.1 66.4, 49.7 93.0, 35.0 89.6 C 44.1 100.0, 84.8 1.4, 72.6 10.0 C 53.8 12.4, 49.1 31.0, 51.9 29.7 C 45.8 34.0, 0.0 47.3, 6.1 52.4 C 0.0 50.1, 9.2 40.6, 6.9 49.4 Z" fill="none" fill-opacity="0.73" stroke="hsl(144, 86%, 72%)" stroke-width="4.93"  transform="translate(43.0 92.3) rotate(353.2) scale(1.26 0.58)" />
<path d="M 38.7 92.4 C 42.5 74.8, 32.7 19.9, 30.2 30.8 C 34.5 45.4, 40.2 64.3, 37.0 64.6 C 50.0 58.1, 33.8 63.3, 31.9 71.7 C 47.4 63.4, 79.9 68.6, 68.9 63.4 C 73.8 46.6, 86.2 16.3, 85.9 3.8 C 80.0 0.0, 9.0 38.5, 9.6 40.3 C 18.3 20.8, 100.0 84.0, 90.4 75.8 C 98.6 89.0, 66.6 25.6, 55.7 25.0 Z" fill="hsl(151, 70%, 62%)" fill-opacity="0.49" stroke="none" stroke-width="2.25"  transform="translate(35.6 80.1) rotate(310.1) scale(1.05 1.03)" />
<path d="M 87.8 80.9 C 98.4 81.9, 35.1 7.8, 22.3 2.0 C 10.7 7.3, 86.1 15.8, 94.4 24.1 C 99.7 42.2, 37.8 89.1, 44.7 76.5 C 30.6 86.8, 19.0 76.0, 22.6 64.9 C 32.5 82.0, 49.3 59.4, 50.3 61.6 C 66.0 55.1, 52.5 31.6, 64.0 33.4 C 61.9 39.1, 55.7 34.0, 57.2 48.1 Z" fill="none" fill-opacity="0.80" stroke="hsl(86, 72%, 68%)" stroke-width="2.75"  transform="translate(1.6 26.8) rotate(125.2) scale(1.56 1.43)" />
<path d="M 3.6 45.6 C 5.5 51.7, 64.6 18.7, 70.8 31.2 C 56.9 15.1, 24.1 23.8, 33.3 32.3 C 34.6 52.1, 66.7 44.3, 64.4 42.9 C 63.3 23.5, 65.0 38.8, 52.9 40.8 C 61.7 25.4, 26.6 100.0, 17.2 92.6 C 35.6 100.0, 10.0 1.3, 21.2 13.3 C 1.5 18.4, 33.6 28.4, 35.4 31.8 C 31.1 50.5, 28.6 22.1, 21.3 11.9 C 18.2 0.0, 72.7 85.6, 62.5 74.0 Z" fill="hsl(40, 53%, 69%)" fill-opacity="0.89" stroke="none" stroke-width="5.26"  transform="translate(61.6 81.7) rotate(79.3) scale(1.55 1.26)" />
<path d="M 97.1 73.6 C 81.2 81.7, 21.2 0.0, 7.2 7.2 C 0.0 0.0, 87.0 77.5, 94.4 74.5 C 83.6 60.0, 1.1 30.5, 8.0 29.9 C 5.3 38.3, 57.7 58.0, 71.5 44.6 C 76.3 25.2, 50.4 98.0, 54.6 93.5 C 61.4 78.4, 71.5 38.8, 72.2 52.4 C 58.5 58.8, 77.8 70.2, 63.7 73.0 C 49.0 67.2, 0.0 37.4, 7.4 47.1 C 10.1 56.6, 86.9 36.5, 74.7 36.8 Z" fill="hsl(86, 72%, 68%)" fill-opacity="0.81" stroke="none" stroke-width="4.22"  transform="translate(48.3 56.0) rotate(183.6) scale(1.86 1.84)" />
<rect x="18.1" y="21.1" width="39.0" height="24.7" rx="0" fill="none" fill-opacity="0.71"    />
<rect x="46.7" y="18.8" width="21.3" height="35.0" rx="0.5" fill="none" fill-opacity="0.25"   transform="translate(28.0 71.5) rotate(142.1) scale(1.84 1.54)" />
<circle cx="85.3" cy="4.2" r="4.5" fill="url(#g1)" fill-opacity="0.53"  transform="translate(84.7 44.8) rotate(243.0) scale(1.74 1.02)" />
<rect x="40.1" y="20.5" width="47.1" height="10.2" rx="14.4" fill="none" fill-opacity="0.22" stroke="hsl(290, 83%, 63%)" stroke-width="2.0"  transform="translate(57.5 37.3) rotate(200.0) scale(1.74 0.94)" />
<rect x="37.8" y="58.5" width="27.7" height="38.0" rx="0" fill="none" fill-opacity="1.00"   transform="translate(34.8 41.0) rotate(254.1) scale(1.10 1.81)" />
<path d="M 52.6 7.8 C 50.8 0.0, 55.0 16.8, 45.7 6.8 C 36.6 0.6, 60.9 57.9, 59.9 61.7 C 66.5 56.3, 48.0 89.9, 60.7 93.4 C 53.2 84.1, 77.5 74.4, 68.4 65.8 C 76.9 66.7, 60.1 17.3, 61.5 29.3 C 58.3 33.1, 100.0 72.7, 96.4 74.2 C 99.6 58.6, 83.7 92.1, 77.6 98.0 C 81.7 84.5, 89.2 58.4, 86.0 56.7 Z" fill="hsl(242, 72%, 49%)" fill-opacity="0.94" stroke="none" stroke-width="4.38"   />
<circle cx="72.9" cy="39.5" r="5.9" fill="url(#g1)" fill-opacity="0.73"  transform="translate(55.0 96.2) rotate(216.1) scale(1.88 0.79)" />
<circle cx="5.4" cy="48.7" r="8.1" fill="hsl(322, 74%, 44%)" fill-opacity="0.41"   />
<circle cx="67.0" cy="53.8" r="4.3" fill="hsl(40, 53%, 69%)" fill-opacity="0.55"  transform="translate(95.6 5.4) rotate(68.1) scale(0.65 0.71)" />
<circle cx="62.0" cy="30.4" r="3.2" fill="hsl(242, 72%, 49%)" fill-opacity="0.57"   />
<rect x="57.5" y="9.7" width="34.9" height="30.8" rx="10.4" fill="none" fill-opacity="0.84"   transform="translate(11.5 45.0) rotate(17.6) scale(1.95 0.78)" />
<rect x="34.9" y="67.7" width="43.6" height="24.8" rx="2.4" fill="none" fill-opacity="0.59"   transform="translate(97.2 72.7) rotate(345.3) scale(1.06 0.75)" />
<rect x="23.2" y="67.4" width="46.6" height="24.5" rx="0" fill="hsl(151, 70%, 62%)" fill-opacity="0.31"  filter="url(#f1)" transform="translate(45.4 60.7) rotate(350.2) scale(0.58 1.30)" />
<path d="M 76.6 22.8 C 81.4 28.2, 5.1 80.7, 9.0 71.7 C 12.0 83.1, 88.2 49.7, 85.2 58.7 C 82.4 61.8, 67.7 53.8, 79.9 48.4 C 95.4 60.0, 72.6 25.5, 62.6 19.4 C 50.5 29.1, 60.6 32.7, 49.1 21.0 C 48.5 15.2, 65.3 47.8, 64.0 49.0 C 44.7 60.0, 54.5 29.0, 42.5 29.9 C 38.9 34.9, 90.9 56.6, 90.2 52.3 Z" fill="hsl(183, 71%, 60%)" fill-opacity="0.73" stroke="none" stroke-width="3.23"  transform="translate(46.9 96.9) rotate(79.7) scale(1.29 1.91)" />
<path d="M 70.8 30.7 C 84.1 49.6, 60.1 10.6, 61.4 8.7 C 45.4 10.0, 3.8 77.0, 1.1 87.4 C 0.0 93.7, 76.5 29.0, 77.2 21.6 C 58.7 18.3, 76.8 100.0, 87.0 91.4 C 100.0 100.0, 53.8 79.5, 45.4 83.9 C 31.4 95.2, 58.9 84.2, 47.5 69.7 Z" fill="none" fill-opacity="0.66" stroke="hsl(242, 72%, 49%)" stroke-width="3.59"   />
<path d="M 39.7 54.7 C 47.7 69.7, 5.9 6.1, 9.1 13.7 C 0.0 10.8, 64.6 36.9, 76.8 39.7 C 86.0 44.6, 50.4 7.6, 49.2 22.0 C 50.1 20.3, 12.1 15.1, 12.6 10.4 C 0.5 25.1, 88.9 50.4, 96.6 50.2 C 76.6 32.1, 93.3 91.3, 87.2 96.6 C 88.9 84.5, 35.3 62.1, 35.5 63.2 C 23.3 77.3, 44.8 71.5, 33.2 85.3 C 22.1 100.0, 48.9 86.9, 56.2 91.0 C 40.6 80.8, 75.2 24.4, 70.7 13.0 Z" fill="hsl(183, 71%, 60%)" fill-opacity="0.67" stroke="none" stroke-width="2.55"  transform="translate(7.6 35.2) rotate(40.4) scale(1.87 1.19)" />
<path d="M 61.2 62.0 C 59.2 48.4, 0.0 41.9, 0.8 39.0 C 7.8 21.4, 41.3 47.7, 40.8 58.6 C 41.3 55.5, 0.0 55.1, 2.0 57.4 C 15.1 47.3, 38.4 61.1, 46.9 64.5 C 44.8 73.9, 34.8 81.3, 26.0 91.6 C 14.8 83.0, 20.3 30.6, 12.9 35.1 Z" fill="hsl(242, 72%, 49%)" fill-opacity="0.83" stroke="none" stroke-width="2.75"  transform="translate(0.7 51.0) rotate(244.7) scale(1.00 1.97)" />
<circle cx="17.3" cy="32.3" r="0.4" fill="url(#g2)" fill-opacity="0.61"  transform="translate(76.2 74.5) rotate(63.1) scale(1.26 1.07)" />
<rect x="4.3" y="65.2" width="44.2" height="23.2" rx="0" fill="hsl(322, 74%, 44%)" fill-opacity="0.51" stroke="hsl(322, 74%, 44%)" stroke-width="1.8"  transform="translate(68.9 38.6) rotate(140.2) scale(1.39 1.53)" />
<path d="M 11.8 70.2 C 0.0 78.1, 69.6 46.3, 59.5 56.8 C 42.3 76.6, 83.9 62.4, 89.7 48.3 C 100.0 33.2, 92.1 16.8, 83.2 13.4 C 80.1 23.8, 59.1 80.1, 62.9 68.3 C 65.0 50.4, 8.9 60.1, 13.0 70.7 C 5.0 89.7, 91.8 28.2, 78.9 15.4 C 84.0 16.3, 29.5 61.3, 22.4 59.4 Z" fill="hsl(242, 72%, 49%)" fill-opacity="0.49" stroke="none" stroke-width="2.48"  transform="translate(37.0 69.1) rotate(278.7) scale(0.81 1.92)" />
<rect x="10.6" y="49.9" width="25.0" height="39.9" rx="11.7" fill="hsl(40, 53%, 69%)" fill-opacity="0.40"   transform="translate(65.3 37.8) rotate(36.8) scale(1.92 0.92)" />
<path d="M 73.2 46.7 C 75.9 65.2, 78.5 47.9, 72.9 48.2 C 86.9 41.2, 65.6 79.2, 62.9 75.0 C 76.9 75.8, 62.5 14.3, 61.4 27.8 C 41.5 47.5, 0.0 65.5, 3.0 65.7 C 1.5 50.2, 7.7 1.9, 16.0 6.2 C 0.0 0.0, 97.7 95.6, 86.4 97.3 Z" fill="none" fill-opacity="0.93" stroke="hsl(86, 72%, 68%)" stroke-width="4.47"  transform="translate(10.0 68.3) rotate(44.2) scale(0.70 0.61)" />
<rect x="52.7" y="16.7" width="44.1" height="29.2" rx="0" fill="hsl(322, 74%, 44%)" fill-opacity="0.93"   transform="translate(43.2 29.3) rotate(28.3) scale(1.09 1.27)" />
<rect x="7.2" y="36.3" width="22.8" height="34.4" rx="0" fill="none" fill-opacity="0.96" stroke="hsl(183, 71%, 60%)" stroke-width="4.7"  transform="translate(58.2 94.7) rotate(18.2) scale(0.99 0.81)" />
<path d="M 64.4 51.7 C 59.9 33.5, 46.3 61.9, 32.5 59.6 C 14.2 53.4, 0.0 24.4, 0.9 29.2 C 14.7 39.4, 76.6 39.7, 85.8 37.8 C 99.5 45.2, 41.4 85.3, 28.4 90.8 C 17.2 82.2, 90.6 38.4, 79.4 43.0 C 68.6 45.1, 20.2 59.6, 34.6 46.8 Z" fill="hsl(290, 83%, 63%)" fill-opacity="0.82" stroke="none" stroke-width="3.47"  transform="translate(15.5 84.4) rotate(213.3) scale(1.44 1.61)" />
<path d="M 27.9 15.3 C 20.9 0.0, 74.0 22.4, 85.2 19.3 C 69.5 38.3, 88.5 18.8, 82.1 22.8 C 97.7 17.7, 42.2 12.4, 48.6 14.8 C 51.2 29.9, 35.3 59.8, 30.9 56.5 C 11.9 60.3, 61.1 23.8, 63.7 32.0 C 71.3 24.5, 59.8 56.8, 46.3 55.5 C 66.2 50.4, 82.3 25.4, 88.2 36.6 C 74.2 37.6, 43.7 66.6, 37.6 52.2 C 49.8 52.6, 13.0 49.1, 23.6 40.5 C 13.6 34.5, 24.3 64.1, 14.2 75.7 Z" fill="none" fill-opacity="0.25" stroke="hsl(106, 75%, 59%)" stroke-width="2.69"  transform="translate(99.2 75.6) rotate(27.0) scale(0.63 0.82)" />
<circle cx="32.2" cy="50.1" r="16.9" fill="hsl(106, 75%, 59%)" fill-opacity="0.86"  transform="translate(97.2 85.9) rotate(255.3) scale(1.56 1.90)" />
<circle cx="56.6" cy="43.7" r="5.5" fill="hsl(106, 75%, 59%)" fill-opacity="0.99"  transform="translate(17.1 97.9) rotate(354.7) scale(1.41 1.90)" />
<rect x="14.9" y="11.9" width="20.5" height="16.8" rx="0" fill="none" fill-opacity="0.71" stroke="hsl(144, 86%, 72%)" stroke-width="1.8"  transform="translate(78.9 30.3) rotate(312.6) scale(1.55 1.01)" />
<path d="M 5.3 34.1 C 5.8 28.5, 48.2 71.2, 35.4 76.6 C 22.0 78.8, 62.6 76.6, 57.1 78.9 C 66.7 88.4, 37.6 47.4, 43.2 44.1 C 38.6 48.2, 51.4 63.3, 61.9 53.2 C 45.8 39.5, 13.4 75.2, 27.8 64.5 C 34.9 66.1, 100.0 81.2, 94.5 94.9 C 98.5 85.2, 58.9 11.1, 62.4 5.4 C 55.4 0.0, 58.8 65.6, 66.3 54.6 C 78.8 74.2, 74.3 66.3, 71.1 77.7 Z" fill="hsl(144, 86%, 72%)" fill-opacity="0.59" stroke="none" stroke-width="4.46"   />
<rect x="42.0" y="7.6" width="39.7" height="13.1" rx="9.3" fill="hsl(40, 53%, 69%)" fill-opacity="0.89"    />
<path d="M 61.4 20.4 C 74.0 34.3, 54.2 46.4, 47.0 53.1 C 37.1 60.3, 43.0 0.0, 33.0 0.2 C 42.6 0.0, 15.9 70.6, 3.7 64.2 C 10.8 73.9, 61.1 97.7, 46.4 94.9 C 65.6 100.0, 81.7 60.2, 89.9 51.8 C 89.9 46.5, 96.8 64.4, 92.8 67.4 C 73.1 72.2, 40.5 39.4, 51.6 43.3 C 33.1 47.1, 88.6 63.0, 91.4 52.7 C 88.0 48.2, 75.3 90.1, 82.5 75.5 C 87.0 60.1, 36.9 58.2, 50.6 44.7 Z" fill="none" fill-opacity="0.52" stroke="hsl(322, 74%, 44%)" stroke-width="4.64" filter="url(#f1)" transform="translate(93.8 15.3) rotate(209.6) scale(0.58 1.60)" />
<path d="M 51.2 17.9 C 33.6 12.5, 41.6 0.0, 50.5 2.4 C 42.9 4.0, 44.1 89.1, 40.4 88.3 C 43.6 71.6, 49.5 37.4, 64.0 49.9 C 80.8 34.7, 51.8 72.4, 39.7 58.9 C 23.1 54.2, 7.8 5.5, 13.5 12.8 C 26.2 1.5, 26.6 0.0, 16.8 9.1 C 13.4 6.4, 67.8 0.5, 61.4 0.4 C 47.6 0.0, 14.3 0.0, 18.4 0.1 C 21.6 3.0, 55.6 89.0, 48.0 76.3 C 32.6 92.6, 83.4 10.7, 75.9 21.5 Z" fill="hsl(86, 72%, 68%)" fill-opacity="0.61" stroke="none" stroke-width="4.63"   />
<path d="M 60.3 21.3 C 47.2 38.9, 75.1 55.1, 76.0 52.9 C 67.5 34.7, 44.6 80.6, 47.5 79.0 C 67.5 90.0, 17.5 89.3, 4.2 95.8 C 0.0 100.0, 95.8 60.2, 93.0 63.8 C 76.7 82.0, 32.2 0.0, 39.8 7.0 C 29.1 0.0, 94.2 22.0, 90.6 24.2 " fill="hsl(106, 75%, 59%)" fill-opacity="0.51" stroke="none" stroke-width="3.63"  transform="translate(46.2 95.2) rotate(102.2) scale(1.79 1.75)" />
<g opacity="0.071">
<rect x="0" y="0" width="1" height="100" fill="black" />
<rect x="22" y="0" width="1" height="100" fill="black" />
<rect x="44" y="0" width="1" height="100" fill="black" />
<rect x="66" y="0" width="1" height="100" fill="black" />
<rect x="88" y="0" width="1" height="100" fill="black" />
<rect x="0" y="0" width="100" height="1" fill="black" />
<rect x="0" y="22" width="100" height="1" fill="black" />
<rect x="0" y="44" width="100" height="1" fill="black" />
<rect x="0" y="66" width="100" height="1" fill="black" />
<rect x="0" y="88" width="100" height="1" fill="black" />
</g>

</svg>
