<?xml version="1.0" encoding="UTF-8"?>
<svg xmlns="http://www.w3.org/2000/svg" width="100" height="100" viewBox="0 0 100 100">
<defs>
<linearGradient id="g0" x1="0%" y1="0%" x2="100%" y2="100%">
<stop offset="0.0%" stop-color="hsl(106, 75%, 59%)" />
<stop offset="33.3%" stop-color="hsl(183, 71%, 60%)" />
<stop offset="66.7%" stop-color="hsl(242, 72%, 49%)" />
<stop offset="100.0%" stop-color="hsl(322, 74%, 44%)" />
</linearGradient>
<linearGradient id="g1" x1="0%" y1="0%" x2="100%" y2="100%">
<stop offset="0.0%" stop-color="hsl(290, 83%, 63%)" />
<stop offset="33.3%" stop-color="hsl(2, 82%, 55%)" />
<stop offset="66.7%" stop-color="hsl(86, 72%, 68%)" />
<stop offset="100.0%" stop-color="hsl(83, 65%, 44%)" />
</linearGradient>
<linearGradient id="g2" x1="0%" y1="0%" x2="100%" y2="100%">
<stop offset="0.0%" stop-color="hsl(40, 53%, 69%)" />
<stop offset="33.3%" stop-color="hsl(104, 72%, 65%)" />
<stop offset="66.7%" stop-color="hsl(144, 86%, 72%)" />
<stop offset="100.0%" stop-color="hsl(151, 70%, 62%)" />
</linearGradient>
<filter id="f1" x="-20%" y="-20%" width="140%" height="140%">
  <feGaussianBlur stdDeviation="2.206553826450861" />
</filter>

</defs>

<path d="M 49.2 77.7 C 66.7 93.0, 22.8 23.2, 34.4 26.2 C 33.3 25.1, 57.1 56.8, 52.5 64.0 C 61.5 74.8, 84.9 5.1, 88.0 12.8 C 96.1 0.0, 76.9 60.5, 83.7 56.2 C 84.6 36.4, 61.7 32.8, 48.7 21.3 C 40.3 22.3, 14.8 48.9, 20.4 54.9 C 33.1 35.7, 31.3 42.3, 18.0 40.2 C 0.0 53.8, 17.5 49.4, 13.3 57.9 Z" fill="none" fill-opacity="0.82" stroke="hsl(40, 53%, 69%)" stroke-width="3.44"   />
<rect x="24.2" y="5.2" width="37.1" height="31.7" rx="19.4" fill="hsl(83, 65%, 44%)" fill-opacity="0.84"    />
<path d="M 70.2 24.1 C 71.8 12.4, 61.1 26.2, 76.0 31.5 C 79.5 27.2, 12.1 89.5, 21.8 83.4 C 23.3 71.7, 2.4 1.8, 15.7 10.7 C 26.8 21.4, 51.8 84.6, 49.4 86.0 C 54.1 100.0, 13.5 1.4, 2.1 15.4 C 12.9 32.9, 67.6 87.5, 69.1 86.3 C 49.4 81.6, 14.4 26.9, 6.1 22.9 C 4.4 4.5, 18.9 15.0, 31.3 5.6 Z" fill="none" fill-opacity="0.76" stroke="hsl(144, 86%, 72%)" stroke-width="5.03"  transform="translate(68.2 36.8) rotate(196.4) scale(1.64 1.87)" />
<rect x="31.1" y="27.2" width="30.0" height="15.8" rx="5.0" fill="hsl(144, 86%, 72%)" fill-opacity="0.66" stroke="hsl(151, 70%, 62%)" stroke-width="3.9"  transform="translate(11.5 5.8) rotate(133.2) scale(1.29 0.91)" />
<rect x="41.0" y="69.1" width="34.7" height="21.8" rx="0" fill="hsl(322, 74%, 44%)" fill-opacity="0.70" stroke="hsl(322, 74%, 44%)" stroke-width="4.4"  transform="translate(21.8 5.6) rotate(137.1) scale(1.37 0.67)" />
<path d="M 9.2 75.0 C 14.5 94.4, 53.2 34.9, 46.5 30.4 C 51.1 37.0, 19.9 71.0, 16.6 78.8 C 19.7 90.0, 99.4 29.1, 97.9 35.6 C 100.0 54.1, 100.0 48.5, 97.5 41.4 C 100.0 29.6, 93.5 39.9, 90.4 27.6 C 81.9 26.9, 67.0 41.7, 66.0 45.3 Z" fill="hsl(151, 70%, 62%)" fill-opacity="0.54" stroke="none" stroke-width="3.90"  transform="translate(90.8 28.4) rotate(43.2) scale(1.21 1.88)" />
<path d="M 44.0 73.9 C 42.1 70.7, 94.2 100.0, 90.2 93.3 C 100.0 100.0, 75.9 71.0, 63.0 61.8 C 61.4 65.0, 10.7 72.9, 24.3 60.1 C 34.8 73.9, 60.1 39.6, 52.4 53.6 C 47.3 38.6, 83.4 75.7, 75.4 69.7 C 65.3 69.3, 14.5 39.1, 2.1 24.6 C 15.4 33.7, 47.1 35.5, 33.8 36.4 C 50.0 41.6, 0.0 86.0, 13.6 82.4 C 30.9 100.0, 61.9 73.1, 65.7 81.7 " fill="none" fill-opacity="0.83" stroke="hsl(144, 86%, 72%)" stroke-width="4.04"   />
<rect x="13.0" y="52.5" width="22.6" height="30.9" rx="0.2" fill="none" fill-opacity="0.55"   transform="translate(63.7 61.9) rotate(336.2) scale(1.84 1.64)" />
<path d="M 100.0 52.8 C 80.6 37.9, 64.4 35.6, 52.7 36.5 C 59.8 45.2, 89.8 2.9, 98.3 4.1 C 100.0 0.0, 54.1 12.5, 55.5 20.0 C 42.8 14.1, 20.4 41.7, 18.1 31.3 C 7.6 49.8, 61.3 100.0, 67.4 97.0 C 76.5 90.7, 50.1 12.9, 58.2 8.0 C 68.3 21.6, 23.6 10.7, 28.2 10.4 Z" fill="none" fill-opacity="0.79" stroke="hsl(151, 70%, 62%)" stroke-width="5.19" filter="url(#f1)"  />
<path d="M 48.1 38.1 C 40.5 36.7, 16.7 22.4, 5.9 14.2 C 0.0 31.2, 23.2 0.0, 31.1 0.1 C 35.9 0.0, 86.4 80.1, 72.0 77.1 C 60.2 73.9, 49.5 3.2, 40.6 11.0 C 54.3 10.7, 73.4 65.9, 62.5 67.5 C 65.0 54.0, 100.0 11.6, 99.1 2.3 C 96.3 6.5, 12.5 31.2, 16.6 41.9 C 35.3 26.1, 82.4 69.9, 68.9 83.3 C 70.2 80.2, 33.2 18.7, 28.0 30.2 Z" fill="none" fill-opacity="0.93" stroke="hsl(104, 72%, 65%)" stroke-width="1.09"   />
<rect x="46.7" y="28.7" width="26.7" height="33.2" rx="12.9" fill="hsl(144, 86%, 72%)" fill-opacity="0.41"   transform="translate(28.5 99.1) rotate(343.4) scale(1.60 0.66)" />
<path d="M 62.7 38.1 C 43.3 34.6, 86.6 91.6, 81.3 93.7 C 93.3 87.5, 61.6 9.3, 50.0 10.5 C 37.9 7.2, 59.1 11.9, 56.4 1.4 C 74.8 15.4, 47.2 58.1, 60.6 67.6 C 51.9 83.7, 55.8 12.2, 68.2 7.1 C 86.6 4.1, 29.2 62.1, 26.4 73.9 C 28.1 54.5, 59.0 95.2, 47.1 90.2 C 43.7 76.8, 69.6 14.3, 58.2 16.9 Z" fill="none" fill-opacity="0.37" stroke="hsl(86, 72%, 68%)" stroke-width="3.95"  transform="translate(87.0 43.0) rotate(270.8) scale(0.70 1.35)" />
<circle cx="86.2" cy="63.0" r="10.9" fill="url(#g0)" fill-opacity="0.60"  transform="translate(67.2 34.1) rotate(84.2) scale(1.59 1.65)" />
<circle cx="90.1" cy="74.3" r="16.9" fill="url(#g1)" fill-opacity="0.57"  transform="translate(95.0 50.9) rotate(248.1) scale(1.76 0.97)" />
<path d="M 65.7 91.8 C 77.7 77.2, 59.9 67.3, 65.9 80.3 C 60.9 98.9, 60.8 94.1, 47.0 82.5 C 34.1 79.2, 0.0 39.7, 10.0 39.5 C 9.6 30.7, 35.0 14.2, 37.8 15.1 C 39.7 0.0, 21.3 69.6, 9.1 65.5 C 15.0 79.6, 84.9 18.5, 85.0 31.8 Z" fill="hsl(83, 65%, 44%)" fill-opacity="0.81" stroke="none" stroke-width="2.37"  transform="translate(41.8 64.0) rotate(81.5) scale(0.66 1.75)" />
<path d="M 3.0 58.1 C 3.0 57.8, 0.0 54.6, 4.0 65.2 C 0.0 69.3, 87.7 77.3, 79.1 69.2 C 64.7 58.9, 89.2 54.8, 84.0 56.7 C 73.5 71.0, 77.9 39.7, 66.4 29.8 C 80.1 39.8, 74.5 77.0, 61.7 73.7 C 74.9 89.5, 77.6 96.1, 78.0 98.7 C 89.1 89.2, 44.4 23.5, 43.1 8.9 C 45.8 5.1, 73.2 39.1, 81.6 38.1 Z" fill="none" fill-opacity="0.49" stroke="hsl(86, 72%, 68%)" stroke-width="1.96"  transform="translate(43.9 90.5) rotate(154.8) scale(1.91 1.81)" />
<path d="M 0.6 36.4 C 0.0 35.8, 56.8 50.5, 59.2 63.8 C 63.4 74.5, 50.4 16.2, 59.2 28.1 C 65.5 17.3, 19.5 1.0, 13.8 13.3 C 0.0 26.4, 77.6 88.5, 72.6 73.8 C 92.0 71.7, 100.0 51.0, 98.5 39.2 C 100.0 22.9, 83.4 65.8, 97.8 65.5 C 95.9 74.5, 43.5 48.7, 50.5 44.7 C 45.7 55.5, 91.4 18.4, 76.9 32.7 C 83.5 43.8, 29.9 0.6, 16.0 13.9 C 1.1 10.8, 87.4 85.8, 75.5 74.5 Z" fill="hsl(104, 72%, 65%)" fill-opacity="0.54" stroke="none" stroke-width="1.33"  transform="translate(81.5 20.9) rotate(36.8) scale(1.27 0.89)" />
<path d="M 89.5 86.2 C 94.8 79.0, 40.7 25.9, 50.4 29.8 C 35.3 31.7, 95.1 3.6, 95.8 13.4 C 82.4 22.2, 10.9 100.0, 25.9 96.4 C 35.0 100.0, 61.4 28.2, 65.3 22.1 C 74.4 13.8, 21.9 100.0, 13.9 93.9 C 9.3 76.1, 0.0 78.1, 10.6 66.0 C 21.6 56.0, 90.3 15.3, 89.4 8.0 C 75.5 1.7, 64.6 74.8, 73.8 60.2 C 72.5 60.2, 22.0 23.5, 28.6 22.8 Z" fill="none" fill-opacity="0.37" stroke="hsl(322, 74%, 44%)" stroke-width="2.30"  transform="translate(58.0 31.0) rotate(287.8) scale(1.97 1.85)" />
<path d="M 22.4 5.9 C 26.5 0.0, 13.7 69.9, 13.9 60.2 C 0.0 46.0, 10.3 90.8, 3.2 92.5 C 0.0 77.7, 41.7 45.5, 35.7 42.5 C 26.0 47.9, 0.0 98.7, 1.3 88.8 C 5.2 86.1, 12.6 86.6, 11.9 79.1 C 15.5 66.8, 75.2 81.7, 66.2 83.0 C 63.9 85.5, 26.3 9.1, 13.9 6.5 C 32.5 0.0, 1.9 75.5, 8.8 82.4 Z" fill="none" fill-opacity="0.64" stroke="hsl(106, 75%, 59%)" stroke-width="1.54"  transform="translate(46.4 15.9) rotate(80.1) scale(0.78 1.52)" />
<rect x="70.6" y="23.7" width="21.1" height="26.8" rx="0" fill="hsl(144, 86%, 72%)" fill-opacity="0.23"   transform="translate(17.8 67.1) rotate(14.9) scale(0.56 1.73)" />
<path d="M 59.1 36.0 C 40.2 16.6, 68.6 60.8, 55.2 60.0 C 54.8 73.8, 37.4 87.3, 36.7 84.0 C 19.5 65.7, 84.3 48.7, 88.9 45.1 C 100.0 48.1, 21.3 57.8, 22.8 60.6 C 29.9 49.5, 51.8 67.4, 39.0 58.1 C 45.6 53.4, 77.6 89.4, 69.5 90.4 C 53.3 98.7, 84.8 55.3, 70.8 65.1 C 69.2 67.9, 26.0 0.6, 18.0 6.4 C 0.0 17.5, 100.0 10.6, 93.1 1.0 Z" fill="hsl(290, 83%, 63%)" fill-opacity="0.97" stroke="none" stroke-width="3.22"   />
<circle cx="71.6" cy="68.6" r="4.8" fill="url(#g0)" fill-opacity="0.49"  transform="translate(5.1 20.4) rotate(314.3) scale(0.94 1.01)" />
<path d="M 59.4 78.2 C 61.7 68.2, 51.0 21.3, 57.1 22.0 C 63.4 5.5, 100.0 70.8, 98.0 74.3 C 100.0 62.4, 100.0 39.5, 95.5 27.2 C 75.5 37.3, 76.3 45.0, 64.9 39.8 C 58.3 57.8, 31.8 89.1, 33.4 85.6 C 49.8 67.2, 32.2 26.3, 40.5 13.7 C 21.0 10.2, 30.8 42.1, 38.5 52.0 Z" fill="none" fill-opacity="0.43" stroke="hsl(144, 86%, 72%)" stroke-width="1.19"   />
<rect x="73.3" y="8.0" width="22.5" height="33.5" rx="15.0" fill="none" fill-opacity="0.81"   transform="translate(57.0 33.6) rotate(292.0) scale(1.62 0.92)" />
<rect x="1.9" y="41.3" width="29.4" height="29.6" rx="0" fill="hsl(290, 83%, 63%)" fill-opacity="0.83"   transform="translate(21.3 51.0) rotate(156.1) scale(0.59 0.51)" />
<path d="M 34.4 38.8 C 30.7 35.4, 4.3 16.8, 7.7 10.1 C 21.5 0.0, 37.8 21.9, 47.2 16.5 C 65.8 27.5, 16.3 38.1, 11.3 30.8 C 8.8 16.1, 81.8 17.4, 68.7 32.1 C 77.7 15.4, 87.2 56.9, 86.1 50.6 C 98.2 60.9, 3.2 100.0, 16.5 90.9 C 20.0 100.0, 36.6 16.9, 37.3 27.0 " fill="hsl(104, 72%, 65%)" fill-opacity="0.36" stroke="none" stroke-width="1.92"   />
<rect x="32.7" y="62.2" width="34.0" height="33.2" rx="14.9" fill="none" fill-opacity="0.69"   transform="translate(70.3 86.1) rotate(331.9) scale(0.78 1.75)" />
<path d="M 75.1 23.7 C 69.0 23.5, 64.6 48.9, 62.0 60.4 C 49.8 57.9, 92.8 9.7, 85.1 3.2 C 98.0 0.0, 74.6 77.8, 87.1 92.0 C 82.9 79.8, 100.0 93.1, 94.7 88.8 C 89.9 70.9, 14.9 25.0, 8.2 16.4 C 0.0 36.4, 21.6 75.7, 18.8 71.7 C 0.8 71.0, 20.5 81.3, 15.8 67.9 C 11.8 81.1, 20.5 62.9, 11.8 49.0 C 9.5 68.2, 30.2 90.6, 19.7 92.3 C 33.2 80.1, 71.9 46.4, 61.3 37.0 Z" fill="none" fill-opacity="0.63" stroke="hsl(322, 74%, 44%)" stroke-width="3.56"  transform="translate(33.8 69.7) rotate(345.5) scale(1.27 1.54)" />
<path d="M 68.1 19.5 C 58.0 22.7, 98.9 80.6, 93.9 77.9 C 91.0 77.0, 0.0 0.0, 9.0 6.2 C 15.7 0.0, 56.9 0.5, 50.7 9.6 C 56.4 2.5, 2.0 26.2, 5.1 38.9 C 16.9 35.2, 44.3 45.3, 33.3 32.0 C 41.5 22.2, 18.3 61.9, 32.3 70.7 Z" fill="hsl(242, 72%, 49%)" fill-opacity="0.47" stroke="none" stroke-width="2.65"  transform="translate(37.3 91.5) rotate(154.5) scale(1.66 1.41)" />
<path d="M 68.7 37.8 C 57.3 42.5, 37.1 72.3, 42.4 61.0 C 30.9 55.8, 81.1 27.1, 69.4 23.8 C 58.5 23.0, 69.2 62.2, 56.4 54.7 C 48.1 64.3, 54.4 51.0, 66.5 50.5 C 83.8 51.2, 59.4 13.9, 46.4 28.7 C 48.2 45.6, 11.6 81.2, 12.8 85.9 C 23.9 69.3, 8.8 48.2, 10.7 53.4 C 17.8 33.8, 55.5 53.3, 66.8 56.6 C 76.1 55.4, 0.0 16.1, 11.2 5.5 Z" fill="hsl(242, 72%, 49%)" fill-opacity="0.75" stroke="none" stroke-width="1.55"  transform="translate(19.2 43.7) rotate(222.2) scale(1.31 2.00)" />
<circle cx="48.4" cy="27.2" r="15.6" fill="hsl(242, 72%, 49%)" fill-opacity="0.85"  transform="translate(87.5 94.5) rotate(346.6) scale(1.77 1.29)" />
<path d="M 7.4 84.9 C 14.7 93.7, 52.8 32.6, 56.4 28.4 C 48.5 21.0, 64.3 69.6, 65.1 62.7 C 65.3 63.0, 0.0 45.7, 11.5 47.4 C 28.1 49.4, 0.5 7.0, 14.4 1.9 C 15.6 0.0, 37.3 15.8, 46.5 19.2 C 46.8 37.4, 75.7 81.2, 66.2 69.2 C 72.7 58.8, 32.0 43.8, 23.6 30.2 C 11.4 44.7, 82.5 91.7, 75.1 83.3 Z" fill="none" fill-opacity="0.29" stroke="hsl(104, 72%, 65%)" stroke-width="1.44"  transform="translate(96.6 23.3) rotate(40.5) scale(1.99 0.89)" />
<rect x="52.9" y="41.6" width="35.3" height="35.4" rx="16.6" fill="none" fill-opacity="0.28" stroke="hsl(2, 82%, 55%)" stroke-width="1.1"   />
<path d="M 61.1 5.6 C 75.5 3.8, 92.1 45.5, 83.8 59.9 C 64.0 43.4, 15.3 59.5, 2.1 65.2 C 0.0 77.4, 0.0 33.7, 14.3 37.3 C 5.7 45.9, 45.2 28.9, 49.7 24.9 C 49.8 5.6, 0.0 8.8, 5.3 1.4 C 8.2 7.3, 47.7 58.0, 38.0 72.1 Z" fill="none" fill-opacity="0.58" stroke="hsl(2, 82%, 55%)" stroke-width="4.29"  transform="translate(48.9 46.8) rotate(215.6) scale(1.87 0.51)" />
<rect x="23.7" y="44.5" width="39.3" height="30.5" rx="0" fill="hsl(144, 86%, 72%)" fill-opacity="0.65" stroke="hsl(151, 70%, 62%)" stroke-width="2.7" filter="url(#f1)" transform="translate(96.6 16.7) rotate(94.4) scale(0.84 1.69)" />
<circle cx="49.5" cy="82.5" r="4.7" fill="url(#g0)" fill-opacity="0.64"  transform="translate(85.1 70.0) rotate(20.8) scale(1.82 0.61)" />
<path d="M 44.4 30.3 C 27.3 23.7, 27.1 53.8, 16.3 67.7 C 4.9 62.2, 29.4 12.4, 43.8 18.0 C 62.6 37.0, 100.0 60.4, 98.7 67.6 C 100.0 72.2, 84.8 44.7, 97.2 38.6 C 84.1 24.3, 78.2 86.1, 63.5 87.9 C 57.5 80.9, 61.4 35.4, 52.5 28.4 C 53.3 26.8, 90.2 63.3, 88.9 55.1 C 100.0 67.3, 18.6 25.3, 6.9 32.5 C 16.5 48.9, 0.4 54.6, 5.2 41.8 C 0.0 34.5, 41.4 20.4, 55.4 20.2 Z" fill="none" fill-opacity="0.43" stroke="hsl(86, 72%, 68%)" stroke-width="3.94"  transform="translate(34.6 99.9) rotate(94.3) scale(1.26 1.58)" />
<path d="M 21.6 68.3 C 26.3 86.0, 11.2 87.5, 2.5 84.4 C 5.2 73.9, 94.7 35.3, 88.1 20.8 C 100.0 24.2, 15.3 0.0, 25.7 13.9 C 38.6 20.9, 11.2 84.3, 24.1 71.2 C 23.5 77.6, 6.8 44.6, 13.9 44.6 C 0.0 35.1, 100.0 13.0, 95.4 10.4 C 82.5 8.4, 13.3 10.9, 3.4 23.5 C 0.1 29.9, 40.4 24.5, 32.1 38.3 Z" fill="hsl(290, 83%, 63%)" fill-opacity="0.51" stroke="none" stroke-width="2.00"  transform="translate(3.2 86.3) rotate(120.0) scale(0.91 1.33)" />
<path d="M 5.9 67.6 C 19.8 74.3, 25.5 100.0, 22.9 96.3 C 21.2 87.7, 30.8 52.1, 18.8 42.9 C 0.0 26.0, 33.5 100.0, 18.9 99.7 C 32.7 82.3, 48.5 66.8, 49.7 72.7 C 62.2 63.3, 6.0 21.6, 13.2 7.2 C 30.2 2.0, 37.4 86.0, 26.0 86.2 C 23.0 77.0, 12.7 44.0, 19.0 40.1 C 28.6 55.4, 6.9 0.0, 3.7 4.4 C 16.2 22.4, 2.6 11.5, 13.4 15.5 Z" fill="hsl(151, 70%, 62%)" fill-opacity="0.34" stroke="none" stroke-width="3.34"  transform="translate(22.7 92.2) rotate(260.9) scale(0.56 2.00)" />
<path d="M 38.6 51.0 C 28.4 44.9, 46.7 98.3, 40.5 85.5 C 25.2 100.0, 45.1 88.8, 42.3 75.3 C 25.4 55.5, 40.6 9.9, 29.3 20.9 C 25.6 26.6, 83.5 70.8, 96.5 84.8 C 92.2 76.9, 79.8 33.0, 84.9 24.1 C 90.4 23.4, 29.8 4.4, 23.3 10.5 C 15.1 0.4, 65.9 67.4, 59.9 56.9 C 51.3 50.0, 74.9 23.0, 81.3 28.1 C 69.1 17.7, 23.9 73.8, 25.2 68.5 C 36.1 56.5, 67.6 8.1, 65.1 12.3 Z" fill="hsl(290, 83%, 63%)" fill-opacity="0.51" stroke="none" stroke-width="1.74"  transform="translate(18.5 32.7) rotate(104.3) scale(1.16 1.06)" />
<rect x="30.6" y="25.2" width="27.3" height="17.7" rx="0" fill="hsl(104, 72%, 65%)" fill-opacity="0.52" stroke="hsl(144, 86%, 72%)" stroke-width="1.1"  transform="translate(48.9 62.1) rotate(226.5) scale(2.00 1.70)" />
<circle cx="10.6" cy="99.9" r="2.6" fill="hsl(40, 53%, 69%)" fill-opacity="0.45"  transform="translate(56.0 8.2) rotate(216.2) scale(1.01 1.06)" />
<path d="M 96.0 27.3 C 87.6 30.1, 82.0 64.0, 91.0 59.1 C 71.2 70.5, 98.0 57.9, 92.6 71.8 C 95.0 69.0, 60.4 72.7, 72.8 63.3 C 63.9 77.0, 23.1 24.1, 36.7 31.1 C 48.5 38.7, 62.7 56.3, 53.0 54.6 C 49.8 74.5, 44.6 63.4, 31.9 69.0 C 45.1 70.0, 60.7 29.4, 72.1 28.7 C 57.7 36.0, 61.8 52.0, 61.8 42.3 Z" fill="none" fill-opacity="0.97" stroke="hsl(106, 75%, 59%)" stroke-width="1.74"   />
<path d="M 8.8 92.9 C 14.2 100.0, 22.7 27.1, 36.3 22.6 C 16.3 21.1, 64.0 75.0, 65.5 67.3 C 53.4 82.5, 4.4 13.6, 17.9 4.8 C 24.0 13.4, 42.9 15.0, 37.0 6.0 C 41.2 0.0, 64.4 97.4, 66.1 99.0 C 63.1 100.0, 100.0 89.5, 97.4 89.2 Z" fill="none" fill-opacity="0.52" stroke="hsl(242, 72%, 49%)" stroke-width="2.49"  transform="translate(44.0 4.9) rotate(29.2) scale(1.88 0.84)" />
<path d="M 81.5 93.0 C 84.7 80.9, 100.0 24.5, 90.6 17.5 C 89.5 0.0, 4.8 88.4, 19.7 82.2 C 15.8 64.3, 50.6 30.4, 64.7 22.8 C 50.8 27.6, 83.1 78.4, 96.6 86.3 C 100.0 79.3, 97.2 58.5, 83.7 45.3 C 89.1 62.8, 49.2 75.4, 51.2 77.5 C 39.0 72.5, 9.2 17.9, 12.2 27.3 C 10.2 26.1, 100.0 98.3, 94.5 85.0 Z" fill="hsl(144, 86%, 72%)" fill-opacity="0.95" stroke="none" stroke-width="2.80" filter="url(#f1)" transform="translate(0.8 14.2) rotate(60.4) scale(1.65 0.94)" />
<path d="M 23.2 31.9 C 34.7 22.6, 78.2 34.6, 78.8 33.5 C 65.9 22.7, 66.9 67.3, 79.1 69.8 C 65.4 73.0, 69.0 83.7, 79.6 87.9 C 81.7 100.0, 26.5 63.3, 16.6 60.3 C 34.8 58.0, 44.9 26.7, 52.8 16.7 C 57.5 36.2, 100.0 12.2, 99.5 4.6 C 98.4 0.0, 34.2 66.5, 28.5 64.2 C 13.2 44.3, 0.0 71.5, 7.7 69.5 C 17.8 65.1, 89.9 80.8, 92.1 74.3 C 100.0 77.4, 89.7 90.2, 76.8 77.8 Z" fill="hsl(144, 86%, 72%)" fill-opacity="0.85" stroke="none" stroke-width="2.73"  transform="translate(16.6 95.5) rotate(151.5) scale(0.72 0.77)" />
<path d="M 44.6 76.4 C 31.1 62.3, 89.9 65.0, 76.2 77.1 C 87.3 58.1, 54.2 86.0, 66.9 90.7 C 47.6 95.4, 0.0 32.0, 3.6 37.5 C 0.0 29.5, 46.8 69.7, 48.8 63.6 C 29.3 77.0, 51.0 27.7, 54.0 23.7 C 39.3 13.9, 20.0 79.1, 5.8 90.8 C 0.0 87.8, 84.3 80.3, 70.6 73.9 C 82.7 60.5, 57.6 26.8, 43.4 36.0 C 57.4 29.4, 48.5 12.2, 52.9 24.7 C 69.7 4.9, 51.7 83.3, 44.6 92.8 Z" fill="none" fill-opacity="0.96" stroke="hsl(151, 70%, 62%)" stroke-width="3.26"  transform="translate(57.7 23.8) rotate(59.0) scale(0.79 0.75)" />
<path d="M 76.5 77.0 C 74.7 84.1, 88.8 57.8, 80.7 61.1 C 80.9 79.3, 35.0 52.9, 43.6 58.9 C 53.7 74.7, 10.3 85.7, 20.4 96.9 C 35.2 100.0, 66.0 30.2, 71.5 25.6 C 57.8 45.0, 17.6 43.0, 19.2 33.7 C 26.4 42.1, 39.8 44.4, 40.1 30.4 C 58.1 24.7, 11.1 42.7, 24.1 36.8 C 15.3 28.0, 56.2 54.0, 64.8 67.4 C 51.9 63.1, 77.4 3.7, 68.0 9.9 Z" fill="none" fill-opacity="0.85" stroke="hsl(104, 72%, 65%)" stroke-width="4.77"  transform="translate(81.8 10.7) rotate(55.1) scale(1.83 1.68)" />
<path d="M 64.9 0.6 C 56.4 0.0, 44.9 88.6, 43.6 73.7 C 39.7 91.6, 87.8 16.6, 95.0 30.8 C 86.5 48.9, 19.9 3.4, 33.0 17.3 C 30.9 13.2, 0.0 0.0, 0.8 6.6 C 20.1 24.5, 9.2 45.6, 2.5 42.9 C 0.0 47.9, 98.9 47.7, 92.8 53.7 C 100.0 34.7, 0.0 7.4, 5.0 11.8 " fill="hsl(144, 86%, 72%)" fill-opacity="0.73" stroke="none" stroke-width="4.19" filter="url(#f1)"  />
<rect x="13.8" y="65.7" width="20.1" height="22.1" rx="0" fill="hsl(40, 53%, 69%)" fill-opacity="1.00" stroke="hsl(144, 86%, 72%)" stroke-width="1.7"  transform="translate(71.9 6.7) rotate(245.0) scale(1.70 1.85)" />
<path d="M 45.7 69.4 C 48.1 86.4, 27.7 14.0, 33.0 19.5 C 53.0 27.5, 70.0 0.0, 78.9 5.2 C 79.4 8.0, 26.1 36.3, 16.9 46.1 C 8.8 47.2, 44.2 61.2, 31.6 52.8 C 41.8 63.3, 40.9 42.5, 52.3 34.3 C 64.8 20.7, 31.2 56.9, 34.7 50.5 C 43.2 46.4, 23.3 9.9, 28.7 5.8 C 34.3 12.5, 82.1 53.3, 68.2 51.6 C 71.5 70.8, 30.7 76.1, 32.7 74.0 C 16.3 57.5, 90.4 97.7, 85.0 91.2 Z" fill="none" fill-opacity="0.61" stroke="hsl(151, 70%, 62%)" stroke-width="4.77"  transform="translate(71.2 44.8) rotate(97.4) scale(0.94 0.65)" />
<path d="M 74.5 77.6 C 61.0 69.2, 65.0 0.0, 79.3 1.4 C 75.4 4.7, 43.0 41.6, 55.1 50.2 C 67.3 36.0, 45.7 10.7, 60.5 3.3 C 52.4 0.0, 85.2 25.4, 89.0 16.1 C 86.6 31.4, 100.0 84.4, 96.3 90.1 C 78.2 88.7, 10.8 85.1, 3.4 80.6 C 4.0 100.0, 17.4 0.0, 23.0 0.1 C 5.0 17.5, 14.7 40.9, 27.3 30.0 C 18.2 13.3, 58.6 32.0, 65.1 17.8 Z" fill="none" fill-opacity="0.46" stroke="hsl(86, 72%, 68%)" stroke-width="3.04"  transform="translate(25.4 71.7) rotate(116.5) scale(1.89 1.90)" />
<path d="M 20.4 24.6 C 23.2 10.7, 30.8 43.5, 44.1 29.8 C 25.2 42.9, 34.5 75.2, 20.7 75.0 C 15.3 70.9, 100.0 87.5, 95.2 83.4 C 93.7 100.0, 1.0 53.6, 12.8 65.7 C 29.8 62.8, 51.9 71.7, 40.6 82.1 C 26.6 96.0, 93.8 72.3, 93.3 68.7 C 100.0 82.9, 0.0 34.7, 1.6 38.8 C 0.0 57.7, 34.0 31.7, 19.7 44.4 C 24.5 41.0, 61.1 98.0, 73.9 93.7 Z" fill="hsl(183, 71%, 60%)" fill-opacity="0.25" stroke="none" stroke-width="3.60"  transform="translate(95.7 27.1) rotate(351.3) scale(0.56 0.99)" />
<path d="M 52.5 46.2 C 42.6 59.9, 22.2 82.8, 14.0 90.1 C 27.6 83.7, 48.8 45.9, 48.3 51.8 C 56.2 50.3, 5.6 19.9, 6.3 11.3 C 15.5 8.7, 100.0 60.4, 99.7 57.1 C 87.6 61.9, 89.7 57.6, 83.7 68.6 C 95.2 57.9, 93.9 96.5, 85.0 93.5 C 71.9 100.0, 50.6 50.0, 39.9 36.2 C 57.3 26.1, 50.2 19.2, 60.0 11.3 C 52.0 18.8, 42.9 56.8, 47.9 54.6 C 53.7 45.9, 65.1 10.9, 72.2 8.4 Z" fill="none" fill-opacity="0.42" stroke="hsl(2, 82%, 55%)" stroke-width="1.54"  transform="translate(6.7 5.3) rotate(7.1) scale(1.56 1.99)" />
<path d="M 15.6 98.0 C 18.1 85.2, 60.8 84.3, 69.5 71.6 C 50.8 70.2, 30.7 67.4, 33.1 56.1 C 22.6 56.6, 80.7 34.3, 67.9 25.0 C 65.7 43.0, 65.3 62.4, 67.9 50.0 C 54.9 47.5, 34.4 65.5, 34.2 78.5 C 17.6 88.7, 73.5 28.9, 79.3 23.5 " fill="hsl(2, 82%, 55%)" fill-opacity="0.79" stroke="none" stroke-width="1.94"   />
<path d="M 67.9 95.0 C 56.4 87.0, 30.8 59.9, 24.8 57.3 C 10.6 44.3, 22.1 28.8, 26.0 40.3 C 32.1 37.4, 71.1 84.7, 81.1 97.8 C 68.5 100.0, 44.5 19.7, 50.9 14.8 C 34.9 0.0, 72.9 39.6, 58.8 28.5 C 39.0 17.5, 52.6 21.8, 55.6 10.7 C 72.4 23.7, 7.9 17.5, 1.7 23.5 Z" fill="hsl(2, 82%, 55%)" fill-opacity="0.55" stroke="none" stroke-width="1.64"  transform="translate(17.3 74.1) rotate(317.2) scale(2.00 1.61)" />
<path d="M 60.8 63.8 C 52.4 61.4, 50.8 82.7, 41.7 85.5 C 44.1 89.4, 34.4 25.3, 45.2 17.4 C 40.9 17.9, 50.8 68.6, 59.5 75.4 C 75.4 57.2, 34.9 95.6, 30.4 86.2 C 41.7 100.0, 53.3 81.9, 67.6 71.0 C 52.8 65.4, 13.6 38.1, 4.3 25.0 C 11.9 11.0, 62.3 50.1, 63.0 52.3 C 60.1 58.2, 32.5 48.5, 22.5 37.0 C 23.6 46.5, 47.1 35.5, 59.9 50.4 C 72.9 49.2, 94.0 59.7, 86.3 70.2 Z" fill="hsl(322, 74%, 44%)" fill-opacity="0.75" stroke="none" stroke-width="1.26"  transform="translate(62.7 17.6) rotate(160.6) scale(1.98 1.58)" />
<circle cx="21.7" cy="87.8" r="5.0" fill="url(#g1)" fill-opacity="0.74"  transform="translate(3.8 41.2) rotate(312.0) scale(1.18 0.93)" />
<circle cx="51.6" cy="24.3" r="9.0" fill="hsl(242, 72%, 49%)" fill-opacity="0.74"  transform="translate(99.8 23.2) rotate(198.7) scale(1.39 1.55)" />
<path d="M 65.0 76.5 C 68.1 62.3, 18.6 29.6, 23.9 36.1 C 32.3 55.3, 55.2 41.3, 42.3 41.5 C 41.6 48.0, 54.4 0.0, 60.5 6.3 C 40.6 0.0, 77.9 68.9, 76.2 71.3 C 73.0 90.3, 85.7 25.7, 73.8 31.9 C 75.0 15.5, 47.3 43.0, 35.6 31.0 C 54.6 32.1, 16.1 12.9, 11.0 27.6 C 24.2 17.0, 19.9 61.3, 7.5 59.6 Z" fill="none" fill-opacity="0.29" stroke="hsl(106, 75%, 59%)" stroke-width="1.20"  transform="translate(56.1 64.4) rotate(73.0) scale(0.95 1.86)" />
<path d="M 44.0 89.8 C 48.1 100.0, 0.0 23.1, 9.7 12.5 C 24.2 3.8, 71.4 100.0, 59.0 99.7 C 47.7 100.0, 100.0 70.9, 99.1 72.3 C 82.9 59.9, 64.1 72.9, 76.2 77.3 C 73.1 66.9, 34.4 65.7, 39.4 69.0 C 30.4 80.2, 29.1 73.9, 39.1 66.4 C 29.4 72.8, 11.0 12.4, 15.1 19.1 C 18.7 0.9, 20.0 50.0, 7.0 45.1 C 19.9 26.2, 42.1 52.7, 36.3 54.7 C 27.1 45.5, 0.0 88.5, 1.8 99.2 Z" fill="hsl(151, 70%, 62%)" fill-opacity="0.62" stroke="none" stroke-width="2.94" filter="url(#f1)"  />
<path d="M 39.2 4.0 C 46.0 22.1, 0.0 63.9, 6.5 73.5 C 0.0 85.1, 8.5 59.9, 19.9 70.7 C 18.2 64.0, 44.3 38.9, 32.7 37.1 C 12.9 20.7, 20.5 30.4, 32.0 42.3 C 36.0 57.6, 47.1 87.9, 53.5 93.5 C 42.7 96.7, 58.4 74.4, 47.1 81.8 Z" fill="hsl(86, 72%, 68%)" fill-opacity="0.77" stroke="none" stroke-width="2.10"  transform="translate(82.8 74.5) rotate(32.0) scale(1.29 1.31)" />
<path d="M 69.0 70.3 C 64.0 59.6, 28.4 76.1, 21.8 81.6 C 28.2 73.8, 15.0 31.9, 15.7 46.6 C 15.4 49.7, 22.4 89.5, 19.1 94.1 C 4.8 98.4, 45.6 89.9, 45.0 87.0 C 56.0 71.9, 56.4 44.3, 62.7 59.1 C 64.0 50.1, 46.7 48.6, 56.8 33.9 C 45.8 44.7, 39.0 67.2, 48.2 79.9 Z" fill="none" fill-opacity="0.56" stroke="hsl(83, 65%, 44%)" stroke-width="1.95"  transform="translate(10.8 1.4) rotate(253.3) scale(1.67 0.99)" />
<rect x="2.2" y="11.9" width="39.1" height="29.8" rx="0" fill="none" fill-opacity="0.24" stroke="hsl(151, 70%, 62%)" stroke-width="2.0"  transform="translate(87.1 59.1) rotate(265.8) scale(1.87 1.95)" />
<circle cx="72.6" cy="44.0" r="2.3" fill="hsl(242, 72%, 49%)" fill-opacity="0.67"  transform="translate(69.4 77.3) rotate(216.7) scale(0.80 1.30)" />
<path d="M 54.3 80.5 C 74.2 74.4, 61.8 28.8, 55.3 43.3 C 38.1 57.7, 90.3 82.4, 82.8 82.0 C 99.7 99.9, 12.1 46.6, 11.9 55.9 C 2.5 56.9, 56.6 0.0, 57.8 0.2 C 43.9 17.3, 14.5 71.6, 22.9 86.1 C 16.6 100.0, 23.3 39.3, 18.4 29.7 Z" fill="hsl(322, 74%, 44%)" fill-opacity="0.56" stroke="none" stroke-width="4.41"  transform="translate(14.1 33.0) rotate(37.4) scale(1.54 1.59)" />
<rect x="11.4" y="67.5" width="49.9" height="21.2" rx="0" fill="hsl(144, 86%, 72%)" fill-opacity="0.54"   transform="translate(20.1 0.1) rotate(173.0) scale(1.63 0.94)" />
<path d="M 47.6 25.0 C 41.3 12.0, 0.0 50.8, 3.7 46.2 C 0.0 57.1, 73.4 45.9, 88.1 59.2 C 79.0 66.2, 51.6 39.9, 46.3 42.3 C 45.4 40.0, 13.6 22.2, 4.2 28.1 C 23.3 34.0, 37.8 60.2, 47.5 57.8 C 30.4 57.2, 89.8 88.1, 79.9 89.3 Z" fill="none" fill-opacity="0.32" stroke="hsl(144, 86%, 72%)" stroke-width="4.59"  transform="translate(44.0 28.1) rotate(3.9) scale(0.53 1.82)" />
<path d="M 88.1 85.1 C 75.5 78.9, 82.4 61.2, 90.8 64.7 C 91.9 72.7, 29.7 64.4, 32.5 66.6 C 12.9 55.1, 0.0 48.1, 5.6 51.2 C 0.0 36.5, 28.2 66.6, 16.8 72.5 C 25.9 72.8, 36.6 34.7, 48.3 20.2 C 63.0 28.4, 11.5 58.1, 14.4 55.5 C 18.6 72.3, 53.8 21.6, 47.8 18.6 C 39.3 33.1, 18.7 0.0, 32.3 6.3 Z" fill="hsl(2, 82%, 55%)" fill-opacity="0.42" stroke="none" stroke-width="4.63" filter="url(#f1)" transform="translate(5.8 11.4) rotate(133.4) scale(0.61 0.89)" />
<circle cx="28.8" cy="68.5" r="6.0" fill="url(#g0)" fill-opacity="0.48"   />
<circle cx="17.6" cy="14.3" r="1.6" fill="url(#g0)" fill-opacity="0.40"  transform="translate(33.8 7.2) rotate(168.0) scale(0.50 0.58)" />
<path d="M 69.4 17.8 C 72.4 6.0, 50.4 21.9, 62.1 20.5 C 79.9 30.1, 0.0 67.2, 3.0 78.0 C 0.0 82.6, 47.3 66.8, 59.9 77.0 C 77.5 81.6, 56.6 0.0, 63.2 0.8 C 56.2 0.0, 86.4 39.8, 93.2 30.0 C 100.0 33.7, 44.5 27.7, 57.3 33.6 C 71.6 46.5, 90.1 100.0, 84.6 93.9 C 100.0 83.8, 45.2 48.7, 59.9 46.5 C 57.6 64.9, 55.3 48.7, 43.1 61.6 C 32.4 42.6, 33.2 3.3, 19.1 6.4 Z" fill="hsl(40, 53%, 69%)" fill-opacity="0.92" stroke="none" stroke-width="1.02"  transform="translate(40.9 19.7) rotate(54.4) scale(0.98 1.98)" />
<path d="M 7.4 5.9 C 23.1 16.7, 100.0 0.0, 93.4 10.1 C 83.3 21.4, 61.3 87.8, 65.0 98.2 C 74.4 94.4, 10.6 76.8, 12.8 70.9 C 12.5 52.2, 52.8 38.7, 57.7 37.2 C 65.6 32.7, 20.6 30.2, 18.6 25.5 C 16.3 36.1, 47.8 68.3, 37.3 71.3 Z" fill="none" fill-opacity="0.76" stroke="hsl(151, 70%, 62%)" stroke-width="4.16"   />
<rect x="38.8" y="15.5" width="27.7" height="27.9" rx="0" fill="hsl(290, 83%, 63%)" fill-opacity="0.47"   transform="translate(95.1 4.0) rotate(322.2) scale(0.90 0.55)" />
<path d="M 61.5 99.7 C 42.7 94.1, 59.7 58.7, 61.0 48.2 C 74.2 56.2, 9.3 58.5, 4.6 53.8 C 11.0 73.1, 87.7 47.0, 77.0 45.5 C 79.9 44.2, 55.4 2.8, 57.5 2.5 C 38.8 0.0, 94.3 98.4, 86.0 93.5 C 96.3 88.8, 60.6 81.7, 61.3 91.2 C 65.6 100.0, 71.1 85.5, 62.4 75.4 C 65.5 79.6, 78.0 32.8, 64.1 29.5 C 72.5 12.5, 27.8 88.8, 27.9 86.5 Z" fill="none" fill-opacity="0.27" stroke="hsl(151, 70%, 62%)" stroke-width="0.94"  transform="translate(15.7 57.8) rotate(29.2) scale(1.82 0.53)" />
<circle cx="96.9" cy="13.3" r="12.3" fill="url(#g0)" fill-opacity="0.42"  transform="translate(65.9 87.0) rotate(218.2) scale(1.80 1.48)" />
<path d="M 93.6 10.4 C 75.4 0.0, 48.6 60.8, 37.3 71.3 C 35.1 76.4, 37.6 53.9, 30.9 56.4 C 38.3 38.5, 23.8 33.3, 22.2 21.2 C 35.6 38.1, 37.5 59.9, 46.2 69.5 C 35.7 54.0, 60.6 80.7, 70.9 68.7 C 74.8 61.6, 16.7 62.8, 16.0 70.6 C 26.9 59.6, 26.8 3.1, 17.7 14.1 C 33.7 27.4, 76.1 55.2, 79.6 54.4 C 65.0 62.0, 83.5 14.4, 84.2 25.4 C 69.4 44.7, 23.1 93.8, 12.4 99.0 Z" fill="none" fill-opacity="0.89" stroke="hsl(322, 74%, 44%)" stroke-width="3.31" filter="url(#f1)" transform="translate(13.5 75.5) rotate(129.6) scale(1.85 1.56)" />
<circle cx="68.6" cy="90.5" r="10.2" fill="hsl(86, 72%, 68%)" fill-opacity="0.45"  transform="translate(98.8 73.2) rotate(126.7) scale(0.88 1.32)" />
<path d="M 79.9 68.6 C 77.6 49.9, 18.7 20.4, 28.5 29.3 C 35.8 37.9, 52.0 52.7, 63.5 53.2 C 83.2 34.3, 92.0 60.2, 87.4 72.0 C 100.0 63.6, 85.9 36.2, 94.8 37.8 C 96.1 47.2, 57.3 84.1, 53.0 78.3 C 67.9 74.0, 13.6 37.0, 25.9 22.1 C 6.7 16.6, 66.1 62.6, 59.9 72.9 C 57.9 78.2, 38.1 94.0, 35.5 95.1 Z" fill="hsl(322, 74%, 44%)" fill-opacity="0.45" stroke="none" stroke-width="1.44"  transform="translate(63.4 26.2) rotate(338.1) scale(0.97 1.05)" />
<path d="M 90.4 73.3 C 100.0 73.9, 29.1 62.3, 36.3 55.4 C 54.7 45.8, 44.9 17.1, 50.1 30.4 C 64.3 29.0, 43.6 14.5, 29.0 20.8 C 45.5 33.1, 100.0 96.6, 98.7 97.4 C 93.9 100.0, 68.7 46.9, 73.0 54.3 C 85.8 42.4, 5.8 100.0, 18.5 96.2 C 30.5 86.6, 32.2 13.3, 45.4 24.3 C 57.6 24.8, 7.6 60.4, 1.8 46.3 Z" fill="hsl(144, 86%, 72%)" fill-opacity="0.91" stroke="none" stroke-width="4.47"  transform="translate(91.8 59.0) rotate(75.1) scale(0.73 1.32)" />
<rect x="26.3" y="65.5" width="25.5" height="12.1" rx="0" fill="none" fill-opacity="0.69"   transform="translate(99.7 17.1) rotate(240.0) scale(1.56 1.86)" />
<path d="M 72.5 68.7 C 84.3 56.5, 75.7 74.8, 89.7 83.3 C 76.5 80.2, 0.0 22.2, 0.8 32.1 C 0.0 12.6, 60.8 8.2, 48.9 4.3 C 62.4 15.9, 65.0 30.6, 53.0 41.9 C 58.4 35.3, 76.3 12.2, 85.8 12.6 C 74.3 29.6, 86.2 2.9, 84.5 16.5 C 77.7 0.0, 72.9 28.5, 63.4 20.6 C 80.3 38.3, 90.0 9.1, 99.7 3.2 Z" fill="none" fill-opacity="0.89" stroke="hsl(151, 70%, 62%)" stroke-width="2.76"  transform="translate(43.9 62.5) rotate(213.3) scale(1.52 1.82)" />
<path d="M 37.0 41.7 C 39.2 37.6, 0.0 72.8, 0.8 58.9 C 13.0 60.3, 14.2 26.0, 8.6 24.3 C 23.3 28.8, 82.2 0.0, 80.1 9.3 C 64.2 0.0, 29.7 33.8, 36.8 25.5 C 41.8 12.7, 100.0 10.0, 95.6 15.7 C 77.3 28.8, 50.8 95.6, 50.6 89.2 C 55.6 87.2, 100.0 69.7, 97.4 71.2 C 97.6 72.4, 47.0 32.9, 60.3 46.3 Z" fill="hsl(106, 75%, 59%)" fill-opacity="0.62" stroke="none" stroke-width="4.61"  transform="translate(63.6 97.8) rotate(208.8) scale(1.38 0.55)" />
<path d="M 77.1 89.3 C 86.2 89.2, 80.6 69.9, 76.0 80.9 C 64.1 89.6, 38.0 30.0, 33.8 43.8 C 28.7 45.7, 94.8 70.4, 87.3 63.4 C 70.9 71.0, 54.3 50.2, 42.2 44.3 C 31.9 59.2, 46.9 54.2, 46.9 61.1 C 62.6 73.8, 59.2 18.1, 55.2 11.2 C 71.4 30.2, 70.7 59.9, 64.2 46.7 Z" fill="none" fill-opacity="0.33" stroke="hsl(83, 65%, 44%)" stroke-width="4.33"  transform="translate(11.8 44.4) rotate(196.8) scale(1.37 1.38)" />
<rect x="35.2" y="29.0" width="22.4" height="38.6" rx="12.6" fill="none" fill-opacity="0.35" stroke="hsl(242, 72%, 49%)" stroke-width="3.8"  transform="translate(23.1 44.1) rotate(73.7) scale(0.58 0.58)" />
<path d="M 35.8 92.8 C 33.0 100.0, 94.3 5.1, 82.4 3.1 C 100.0 16.2, 22.7 61.0, 31.4 47.0 C 20.8 52.4, 18.5 55.4, 26.5 51.0 C 7.8 39.0, 87.4 45.8, 81.8 48.3 C 96.5 40.3, 78.4 88.0, 82.4 89.2 C 98.5 85.0, 89.9 41.7, 80.3 38.4 C 69.1 22.6, 28.2 4.2, 27.5 6.9 C 12.8 4.6, 95.8 92.3, 86.7 86.0 Z" fill="hsl(242, 72%, 49%)" fill-opacity="0.51" stroke="none" stroke-width="3.59"   />
<path d="M 21.6 83.0 C 26.8 79.0, 33.8 7.4, 32.8 19.6 C 42.3 16.1, 36.0 48.4, 34.2 57.5 C 36.8 37.7, 49.4 50.3, 49.7 61.9 C 49.3 56.7, 58.4 43.2, 66.6 46.8 C 74.2 42.7, 79.5 4.8, 83.8 8.8 C 89.4 0.0, 74.3 37.1, 62.7 28.4 C 75.8 24.5, 79.9 8.0, 71.7 15.8 C 90.7 17.9, 79.9 9.8, 83.8 11.7 Z" fill="none" fill-opacity="0.36" stroke="hsl(151, 70%, 62%)" stroke-width="2.93" filter="url(#f1)" transform="translate(13.6 36.8) rotate(186.8) scale(1.42 0.86)" />
<rect x="40.9" y="42.1" width="33.7" height="27.4" rx="10.1" fill="none" fill-opacity="0.41"    />
<path d="M 81.2 64.7 C 69.4 50.9, 91.1 81.9, 89.3 86.1 C 100.0 73.8, 61.0 59.2, 57.4 70.9 C 49.8 69.3, 79.8 40.9, 67.6 35.3 C 50.2 29.1, 39.4 79.5, 26.0 70.0 C 27.7 50.1, 99.9 8.0, 98.5 5.2 C 100.0 0.0, 16.9 55.7, 10.2 69.7 C 0.0 87.5, 53.4 51.2, 42.0 56.4 C 47.2 70.1, 88.1 61.7, 73.5 65.4 Z" fill="hsl(290, 83%, 63%)" fill-opacity="0.51" stroke="none" stroke-width="1.74"  transform="translate(36.3 24.0) rotate(286.3) scale(1.81 1.30)" />
<circle cx="4.0" cy="41.4" r="2.6" fill="url(#g2)" fill-opacity="0.43"  transform="translate(22.8 4.5) rotate(198.5) scale(0.92 1.75)" />
<circle cx="32.3" cy="2.7" r="2.5" fill="url(#g0)" fill-opacity="0.58"  transform="translate(62.3 33.5) rotate(85.6) scale(1.99 1.30)" />
<path d="M 24.1 21.3 C 37.4 3.2, 22.6 0.0, 23.8 14.5 C 36.1 13.5, 74.4 100.0, 61.4 98.5 C 72.3 100.0, 18.0 68.5, 16.9 65.2 C 1.9 84.8, 43.2 18.0, 48.9 32.5 C 47.4 29.7, 44.8 80.9, 53.6 78.2 C 55.8 90.2, 22.9 52.1, 37.7 54.4 C 55.4 39.3, 35.7 21.6, 47.8 9.1 C 37.6 0.0, 13.9 31.0, 15.4 24.1 Z" fill="hsl(104, 72%, 65%)" fill-opacity="0.59" stroke="none" stroke-width="4.55"  transform="translate(62.6 78.1) rotate(297.3) scale(1.46 1.34)" />
<rect x="12.3" y="59.0" width="38.3" height="24.9" rx="19.0" fill="none" fill-opacity="0.63"   transform="translate(58.7 63.9) rotate(95.6) scale(1.76 1.76)" />
<circle cx="45.3" cy="12.4" r="2.4" fill="url(#g2)" fill-opacity="0.99" filter="url(#f1)" transform="translate(1.7 43.9) rotate(104.9) scale(0.77 1.44)" />
<g opacity="0.077">
<rect x="0" y="0" width="1" height="100" fill="black" />
<rect x="22" y="0" width="1" height="100" fill="black" />
<rect x="44" y="0" width="1" height="100" fill="black" />
<rect x="66" y="0" width="1" height="100" fill="black" />
<rect x="88" y="0" width="1" height="100" fill="black" />
<rect x="0" y="0" width="100" height="1" fill="black" />
<rect x="0" y="22" width="100" height="1" fill="black" />
<rect x="0" y="44" width="100" height="1" fill="black" />
<rect x="0" y="66" width="100" height="1" fill="black" />
<rect x="0" y="88" width="100" height="1" fill="black" />
</g>

</svg>
