<?xml version="1.0" encoding="UTF-8"?>
<svg xmlns="http://www.w3.org/2000/svg" width="100" height="100" viewBox="0 0 100 100">
<defs>
<linearGradient id="g0" x1="0%" y1="0%" x2="100%" y2="100%">
<stop offset="0.0%" stop-color="hsl(106, 75%, 59%)" />
<stop offset="33.3%" stop-color="hsl(183, 71%, 60%)" />
<stop offset="66.7%" stop-color="hsl(242, 72%, 49%)" />
<stop offset="100.0%" stop-color="hsl(322, 74%, 44%)" />
</linearGradient>
<linearGradient id="g1" x1="0%" y1="0%" x2="100%" y2="100%">
<stop offset="0.0%" stop-color="hsl(290, 83%, 63%)" />
<stop offset="33.3%" stop-color="hsl(2, 82%, 55%)" />
<stop offset="66.7%" stop-color="hsl(86, 72%, 68%)" />
<stop offset="100.0%" stop-color="hsl(83, 65%, 44%)" />
</linearGradient>
<linearGradient id="g2" x1="0%" y1="0%" x2="100%" y2="100%">
<stop offset="0.0%" stop-color="hsl(40, 53%, 69%)" />
<stop offset="33.3%" stop-color="hsl(104, 72%, 65%)" />
<stop offset="66.7%" stop-color="hsl(144, 86%, 72%)" />
<stop offset="100.0%" stop-color="hsl(151, 70%, 62%)" />
</linearGradient>
<filter id="f1" x="-20%" y="-20%" width="140%" height="140%">
  <feGaussianBlur stdDeviation="1.9408682426600201" />
</filter>

</defs>

<rect x="54.1" y="11.7" width="35.2" height="37.4" rx="0" fill="hsl(322, 74%, 44%)" fill-opacity="0.56"  filter="url(#f1)" transform="translate(20.4 71.0) rotate(279.3) scale(0.77 0.73)" />
<path d="M 4.7 88.3 C 15.4 97.4, 14.0 28.4, 25.2 23.4 C 38.5 42.1, 74.9 63.3, 74.1 48.8 C 60.7 32.0, 13.4 78.6, 0.8 77.0 C 0.0 59.4, 72.8 15.5, 81.2 13.2 C 100.0 27.5, 40.7 53.9, 33.5 51.4 C 42.6 34.0, 47.2 68.1, 57.3 57.6 C 58.4 41.7, 25.4 47.7, 22.8 60.1 C 42.5 41.8, 46.4 37.1, 51.0 27.8 C 64.4 14.8, 62.9 71.0, 47.9 64.8 C 59.9 72.7, 47.1 94.9, 55.9 85.4 " fill="hsl(86, 72%, 68%)" fill-opacity="0.84" stroke="none" stroke-width="4.82" filter="url(#f1)" transform="translate(8.7 25.5) rotate(177.7) scale(1.60 0.64)" />
<path d="M 54.4 41.6 C 41.4 52.8, 80.5 0.0, 71.9 7.9 C 87.0 0.0, 81.3 100.0, 80.3 92.7 C 88.5 84.7, 51.9 47.6, 41.3 61.8 C 47.1 49.7, 6.7 9.2, 7.3 3.3 C 18.1 0.0, 100.0 76.0, 95.1 77.7 C 88.2 62.4, 100.0 28.9, 92.5 30.0 C 100.0 32.7, 52.0 36.2, 56.3 24.7 Z" fill="none" fill-opacity="0.86" stroke="hsl(106, 75%, 59%)" stroke-width="4.07"  transform="translate(18.4 41.0) rotate(148.0) scale(0.75 0.68)" />
<path d="M 5.2 45.2 C 19.0 27.5, 33.4 0.0, 46.7 9.4 C 46.0 27.9, 100.0 35.9, 97.3 50.9 C 100.0 62.5, 50.5 33.5, 47.0 37.2 C 39.1 50.1, 74.4 66.5, 61.3 77.8 C 67.9 59.5, 13.6 39.2, 26.8 28.1 C 13.7 16.0, 32.4 95.9, 35.2 99.7 C 27.5 81.9, 52.4 63.1, 39.3 76.0 C 43.2 67.8, 44.9 27.8, 43.1 29.0 Z" fill="none" fill-opacity="0.92" stroke="hsl(144, 86%, 72%)" stroke-width="3.06"  transform="translate(75.5 32.9) rotate(155.6) scale(1.04 1.48)" />
<circle cx="50.8" cy="60.3" r="2.9" fill="hsl(242, 72%, 49%)" fill-opacity="0.85"  transform="translate(18.4 4.2) rotate(253.5) scale(1.06 1.19)" />
<path d="M 98.0 76.4 C 100.0 59.8, 29.3 13.1, 36.2 13.8 C 20.7 17.9, 34.3 63.2, 35.0 54.1 C 43.4 38.0, 72.3 97.6, 81.9 94.9 C 83.9 92.8, 100.0 9.0, 96.8 17.2 C 100.0 33.9, 59.2 17.9, 58.0 16.4 C 46.2 21.4, 40.8 49.9, 36.0 60.0 C 39.4 45.0, 100.0 53.6, 99.1 48.6 " fill="hsl(40, 53%, 69%)" fill-opacity="0.34" stroke="none" stroke-width="2.01" filter="url(#f1)" transform="translate(53.6 58.1) rotate(163.4) scale(1.81 1.94)" />
<path d="M 60.2 59.3 C 69.1 56.4, 22.5 33.7, 25.7 29.1 C 25.8 48.7, 60.5 6.7, 46.1 16.2 C 64.1 11.8, 8.2 100.0, 18.7 90.1 C 16.0 100.0, 100.0 82.7, 90.3 80.8 C 80.8 81.7, 58.6 74.1, 47.5 87.8 C 41.6 100.0, 95.1 20.2, 90.5 23.7 C 73.0 8.8, 80.0 15.1, 67.4 4.1 C 57.5 16.7, 15.2 86.0, 4.6 98.0 C 0.0 91.3, 83.7 30.0, 91.1 26.8 Z" fill="none" fill-opacity="0.31" stroke="hsl(86, 72%, 68%)" stroke-width="3.06"  transform="translate(97.3 86.9) rotate(16.0) scale(1.31 1.69)" />
<circle cx="25.1" cy="22.0" r="3.2" fill="url(#g0)" fill-opacity="0.90"  transform="translate(70.3 11.3) rotate(287.9) scale(0.83 1.09)" />
<circle cx="41.0" cy="50.1" r="9.1" fill="hsl(106, 75%, 59%)" fill-opacity="0.90"  transform="translate(77.0 32.6) rotate(228.1) scale(1.96 1.97)" />
<rect x="37.6" y="1.6" width="32.7" height="37.0" rx="0" fill="none" fill-opacity="0.55"    />
<path d="M 38.9 95.6 C 50.2 89.9, 41.8 37.2, 31.2 33.9 C 30.0 24.1, 22.3 20.3, 33.7 31.6 C 35.8 29.0, 16.5 38.6, 29.1 45.5 C 16.2 27.9, 79.8 32.0, 74.1 24.6 C 73.2 43.0, 81.5 73.9, 88.3 78.9 C 70.8 87.2, 27.9 12.9, 39.5 23.0 C 39.8 37.4, 31.4 10.6, 32.9 0.7 C 16.0 0.0, 95.0 65.5, 90.0 50.9 Z" fill="hsl(86, 72%, 68%)" fill-opacity="0.80" stroke="none" stroke-width="1.70"  transform="translate(64.8 97.8) rotate(329.8) scale(1.84 0.97)" />
<path d="M 98.9 20.5 C 88.2 20.1, 8.7 45.5, 11.0 60.4 C 13.5 68.7, 5.2 80.0, 4.9 82.0 C 13.7 87.3, 100.0 82.8, 93.5 91.0 C 99.2 72.2, 37.0 33.3, 31.8 32.7 C 50.3 29.7, 56.2 12.6, 54.6 16.5 C 59.0 21.3, 38.0 13.0, 52.4 27.6 C 39.6 46.7, 16.7 58.3, 17.7 56.8 C 23.5 44.3, 82.3 55.8, 78.9 46.0 Z" fill="hsl(242, 72%, 49%)" fill-opacity="0.26" stroke="none" stroke-width="4.68"  transform="translate(32.7 5.3) rotate(274.3) scale(0.98 1.82)" />
<rect x="39.5" y="53.2" width="23.8" height="32.9" rx="0" fill="hsl(183, 71%, 60%)" fill-opacity="0.48" stroke="hsl(183, 71%, 60%)" stroke-width="1.5"  transform="translate(79.2 44.9) rotate(84.7) scale(1.74 1.95)" />
<rect x="42.2" y="5.3" width="25.1" height="18.7" rx="0" fill="hsl(104, 72%, 65%)" fill-opacity="0.41" stroke="hsl(40, 53%, 69%)" stroke-width="3.8"  transform="translate(97.6 9.1) rotate(320.6) scale(1.27 1.06)" />
<circle cx="92.6" cy="20.2" r="6.4" fill="url(#g2)" fill-opacity="0.50" filter="url(#f1)" transform="translate(33.8 80.5) rotate(196.1) scale(0.86 1.96)" />
<path d="M 38.5 67.0 C 28.7 54.1, 27.0 21.5, 29.4 15.8 C 11.0 21.5, 74.5 59.2, 88.9 45.7 C 73.4 29.0, 93.4 12.2, 90.8 1.8 C 85.8 0.0, 97.9 64.7, 95.2 51.3 C 96.1 55.1, 24.8 56.2, 39.4 53.1 C 54.7 33.1, 100.0 51.5, 90.2 53.6 C 100.0 58.2, 79.9 11.8, 71.3 0.5 C 61.2 0.0, 75.0 64.8, 85.1 66.2 Z" fill="hsl(183, 71%, 60%)" fill-opacity="0.95" stroke="none" stroke-width="4.55"  transform="translate(30.9 57.9) rotate(333.0) scale(1.17 1.09)" />
<circle cx="56.7" cy="69.7" r="1.0" fill="hsl(144, 86%, 72%)" fill-opacity="0.47"  transform="translate(42.3 13.5) rotate(306.8) scale(1.72 0.73)" />
<path d="M 4.1 26.5 C 0.0 44.5, 16.3 91.1, 5.1 94.2 C 13.8 93.9, 100.0 32.8, 97.0 28.4 C 100.0 15.3, 1.8 68.9, 14.8 58.8 C 25.9 41.7, 84.5 94.1, 70.3 93.4 C 62.6 84.0, 83.8 82.1, 82.6 93.2 C 83.7 97.6, 79.2 27.1, 79.0 39.2 Z" fill="none" fill-opacity="0.49" stroke="hsl(83, 65%, 44%)" stroke-width="1.73"   />
<circle cx="92.8" cy="61.7" r="9.4" fill="url(#g0)" fill-opacity="0.98"  transform="translate(88.1 28.6) rotate(6.3) scale(0.95 0.54)" />
<path d="M 91.5 84.2 C 100.0 73.1, 3.5 78.3, 0.2 69.4 C 0.0 51.9, 88.6 100.0, 88.6 99.7 C 84.3 100.0, 50.2 100.0, 36.3 93.4 C 35.4 76.8, 35.2 100.0, 25.2 91.3 C 35.2 73.8, 71.2 0.0, 60.6 9.5 C 77.1 0.0, 31.9 18.7, 35.5 9.1 C 50.2 6.7, 66.2 95.0, 81.1 90.6 C 73.1 100.0, 66.6 67.8, 64.4 67.3 C 45.9 70.8, 16.7 55.7, 16.5 43.3 Z" fill="hsl(40, 53%, 69%)" fill-opacity="0.44" stroke="none" stroke-width="3.31"  transform="translate(51.8 64.5) rotate(119.9) scale(0.51 1.56)" />
<circle cx="39.9" cy="0.3" r="9.3" fill="hsl(106, 75%, 59%)" fill-opacity="0.84"   />
<circle cx="81.7" cy="64.5" r="10.1" fill="url(#g0)" fill-opacity="0.64"   />
<path d="M 87.6 76.8 C 100.0 89.6, 85.0 28.2, 78.0 26.7 C 83.7 45.1, 12.5 26.1, 11.0 36.6 C 0.0 38.4, 66.8 29.4, 73.6 41.4 C 80.1 50.0, 13.8 80.0, 9.6 87.1 C 1.1 97.7, 88.7 50.3, 99.3 62.4 C 100.0 55.2, 20.4 29.1, 16.4 35.3 Z" fill="hsl(242, 72%, 49%)" fill-opacity="0.93" stroke="none" stroke-width="1.68"  transform="translate(44.1 86.8) rotate(305.5) scale(1.53 1.56)" />
<path d="M 24.2 9.9 C 34.8 0.0, 6.6 31.3, 13.7 23.6 C 24.6 34.0, 21.5 27.9, 13.9 37.4 C 0.0 45.9, 43.3 97.0, 42.6 98.8 C 38.3 87.2, 76.4 20.9, 63.4 33.8 C 80.6 41.0, 69.5 83.4, 81.8 81.8 C 97.9 73.4, 99.6 39.2, 97.0 37.7 C 83.5 39.2, 43.0 22.0, 40.0 19.0 Z" fill="none" fill-opacity="0.99" stroke="hsl(40, 53%, 69%)" stroke-width="5.23"  transform="translate(35.8 65.9) rotate(216.2) scale(1.48 0.75)" />
<path d="M 30.4 21.2 C 17.1 40.0, 63.5 85.1, 50.5 75.2 C 67.1 61.0, 21.2 100.0, 24.5 88.0 C 31.0 70.8, 8.8 53.0, 17.9 49.5 C 16.4 45.8, 6.6 18.1, 11.6 23.8 C 2.3 36.2, 31.7 66.9, 46.5 52.0 C 39.2 51.9, 82.6 83.6, 81.7 89.6 C 93.7 71.5, 86.1 4.5, 85.9 3.5 Z" fill="none" fill-opacity="0.45" stroke="hsl(290, 83%, 63%)" stroke-width="4.67"  transform="translate(47.7 50.4) rotate(242.0) scale(1.11 0.67)" />
<path d="M 96.9 1.9 C 98.4 0.0, 83.8 51.4, 87.0 61.0 C 99.5 70.7, 51.4 76.1, 63.4 67.6 C 76.7 64.2, 86.6 5.8, 86.6 4.9 C 76.9 0.0, 2.4 64.4, 3.0 56.8 C 0.0 75.0, 83.2 85.4, 85.3 72.9 C 65.8 83.9, 90.1 21.4, 82.5 18.5 C 98.9 36.2, 12.1 29.6, 4.2 34.9 C 14.2 51.4, 38.7 91.9, 48.4 85.9 C 45.2 84.5, 69.7 65.8, 71.5 55.1 Z" fill="hsl(183, 71%, 60%)" fill-opacity="0.92" stroke="none" stroke-width="2.49"  transform="translate(70.0 0.1) rotate(235.9) scale(0.79 1.61)" />
<path d="M 99.1 55.0 C 79.2 61.4, 53.8 33.5, 42.8 28.8 C 25.6 19.1, 44.9 55.9, 56.6 63.1 C 58.8 81.4, 0.0 90.1, 0.0 98.0 C 13.3 88.8, 14.0 8.8, 19.7 3.5 C 2.1 9.4, 0.0 0.0, 0.3 0.2 C 0.0 0.0, 14.7 37.1, 13.6 43.8 C 7.0 47.1, 12.9 46.1, 21.4 53.7 Z" fill="none" fill-opacity="0.53" stroke="hsl(183, 71%, 60%)" stroke-width="5.22"  transform="translate(93.7 92.4) rotate(44.5) scale(0.82 1.48)" />
<path d="M 26.7 56.1 C 25.6 38.0, 36.2 14.6, 23.0 24.0 C 9.4 24.2, 27.6 78.4, 32.0 78.1 C 44.6 71.5, 50.7 73.1, 65.1 67.6 C 57.5 80.0, 53.3 22.6, 62.6 17.0 C 77.9 18.9, 64.4 62.5, 73.1 62.0 C 60.8 72.9, 55.8 18.7, 58.2 27.4 Z" fill="hsl(83, 65%, 44%)" fill-opacity="0.66" stroke="none" stroke-width="4.79"  transform="translate(73.1 55.3) rotate(105.9) scale(1.69 1.86)" />
<path d="M 86.0 15.4 C 88.9 13.7, 81.6 23.2, 72.6 25.9 C 90.9 35.2, 16.0 53.1, 16.6 52.7 C 25.6 45.4, 62.3 18.7, 62.6 12.4 C 52.4 30.5, 81.2 79.0, 84.5 72.4 C 79.4 84.2, 23.3 73.3, 10.6 81.9 C 4.4 72.3, 99.3 75.4, 84.3 72.6 C 91.8 56.2, 52.8 26.9, 38.4 19.8 " fill="hsl(144, 86%, 72%)" fill-opacity="0.89" stroke="none" stroke-width="3.05"   />
<path d="M 69.1 39.9 C 67.8 59.1, 78.8 13.9, 66.2 17.0 C 46.5 7.3, 30.9 15.4, 32.6 17.3 C 26.3 26.2, 16.6 6.2, 26.1 2.7 C 13.5 16.1, 23.7 87.7, 36.6 74.5 C 34.4 55.9, 50.3 45.5, 61.0 36.9 C 66.5 34.1, 13.6 31.8, 22.9 36.1 C 19.3 26.4, 98.1 100.0, 93.9 94.8 C 96.9 94.2, 72.1 27.1, 81.4 37.9 Z" fill="hsl(2, 82%, 55%)" fill-opacity="0.69" stroke="none" stroke-width="4.74"   />
<circle cx="99.9" cy="14.3" r="8.8" fill="hsl(86, 72%, 68%)" fill-opacity="0.85"  transform="translate(33.6 6.7) rotate(289.4) scale(0.54 1.69)" />
<circle cx="98.2" cy="10.4" r="5.4" fill="hsl(40, 53%, 69%)" fill-opacity="0.60"  transform="translate(75.6 40.5) rotate(232.6) scale(0.61 1.89)" />
<path d="M 10.0 57.2 C 14.9 48.8, 20.4 83.4, 18.1 90.5 C 20.8 100.0, 48.4 46.6, 62.8 46.4 C 56.4 41.6, 91.5 2.2, 77.4 15.8 C 57.8 2.7, 86.2 65.6, 83.1 73.1 C 74.7 86.6, 21.6 58.1, 12.4 58.0 C 7.5 72.2, 23.2 71.4, 29.1 80.8 C 26.7 76.8, 46.9 100.0, 32.1 93.9 C 34.8 100.0, 62.4 31.2, 55.7 24.8 C 70.4 23.8, 15.0 76.9, 3.0 75.3 Z" fill="hsl(151, 70%, 62%)" fill-opacity="0.48" stroke="none" stroke-width="3.85"  transform="translate(15.2 26.8) rotate(65.7) scale(1.43 1.16)" />
<path d="M 97.1 0.6 C 100.0 14.7, 33.9 14.9, 27.0 29.7 C 35.7 40.8, 39.9 100.0, 35.7 99.0 C 44.9 92.6, 44.9 22.9, 34.7 22.2 C 29.7 8.2, 33.6 34.0, 44.5 21.4 C 59.7 33.4, 49.7 100.0, 60.7 99.8 C 76.3 88.9, 56.6 21.4, 58.5 9.8 C 66.0 0.0, 0.8 100.0, 12.3 98.4 Z" fill="hsl(104, 72%, 65%)" fill-opacity="0.66" stroke="none" stroke-width="3.58" filter="url(#f1)" transform="translate(29.9 43.3) rotate(294.5) scale(0.94 1.92)" />
<path d="M 16.6 41.5 C 3.8 37.3, 27.6 21.7, 32.5 8.8 C 15.3 17.2, 96.8 100.0, 82.4 98.0 C 65.5 79.2, 47.3 80.2, 59.8 91.3 C 70.8 88.1, 36.6 98.2, 33.5 96.3 C 41.1 100.0, 68.2 29.3, 67.6 16.6 C 50.1 20.9, 38.6 0.0, 51.7 8.1 C 48.3 18.7, 64.5 3.1, 75.0 9.2 C 68.7 19.9, 75.8 25.8, 78.4 35.8 C 75.5 44.4, 15.3 20.4, 2.8 30.7 Z" fill="hsl(2, 82%, 55%)" fill-opacity="0.69" stroke="none" stroke-width="4.95"  transform="translate(71.2 73.9) rotate(331.3) scale(1.96 1.01)" />
<circle cx="48.7" cy="90.8" r="0.3" fill="url(#g2)" fill-opacity="0.67"  transform="translate(75.0 22.0) rotate(235.7) scale(0.67 1.06)" />
<circle cx="91.8" cy="62.2" r="5.2" fill="hsl(151, 70%, 62%)" fill-opacity="0.95" filter="url(#f1)" transform="translate(51.8 30.9) rotate(108.8) scale(0.73 1.10)" />
<path d="M 33.8 19.7 C 22.2 24.4, 7.3 84.4, 21.4 70.6 C 9.1 58.2, 45.5 18.7, 42.2 33.3 C 34.4 21.2, 100.0 90.8, 92.0 91.4 C 81.7 74.0, 50.3 81.7, 41.1 68.9 C 24.6 68.4, 13.1 32.7, 19.5 20.7 C 16.0 26.1, 75.7 61.1, 71.4 64.3 C 78.6 60.1, 50.9 63.2, 38.1 71.5 C 52.5 77.5, 70.4 19.1, 75.4 10.3 C 74.8 21.6, 38.0 89.8, 51.3 77.4 C 58.6 58.0, 84.4 100.0, 77.0 95.3 Z" fill="hsl(183, 71%, 60%)" fill-opacity="0.43" stroke="none" stroke-width="1.77"  transform="translate(38.9 97.2) rotate(85.0) scale(1.91 0.50)" />
<path d="M 15.5 42.9 C 0.2 30.4, 4.8 13.7, 10.8 1.6 C 17.8 4.2, 87.5 3.4, 99.7 15.0 C 89.0 6.7, 54.9 37.0, 54.3 42.0 C 56.8 59.9, 85.4 64.8, 77.8 65.3 C 73.4 56.7, 17.2 0.0, 19.3 3.0 C 32.7 0.0, 27.3 68.9, 33.2 80.4 C 16.9 96.3, 4.9 75.1, 13.3 80.0 Z" fill="hsl(86, 72%, 68%)" fill-opacity="0.74" stroke="none" stroke-width="1.41"  transform="translate(61.5 62.9) rotate(36.9) scale(0.82 1.30)" />
<path d="M 50.7 98.6 C 48.1 85.4, 26.6 21.8, 34.7 22.2 C 42.8 30.4, 23.9 38.2, 11.3 23.3 C 6.4 42.5, 0.0 51.4, 8.8 56.2 C 0.0 46.7, 26.4 73.6, 24.9 76.2 C 28.8 58.4, 94.0 83.1, 79.2 78.7 C 62.3 83.4, 52.5 79.7, 65.3 84.3 C 64.1 85.0, 7.2 0.0, 19.2 0.4 C 1.7 0.0, 67.6 32.7, 73.2 33.2 " fill="none" fill-opacity="0.93" stroke="hsl(242, 72%, 49%)" stroke-width="3.57"  transform="translate(27.2 60.8) rotate(333.9) scale(0.68 1.84)" />
<rect x="74.1" y="49.0" width="25.1" height="22.8" rx="0" fill="none" fill-opacity="0.50"   transform="translate(9.0 95.5) rotate(188.9) scale(1.90 0.69)" />
<path d="M 26.5 66.8 C 40.5 58.4, 62.5 49.5, 59.3 55.5 C 59.5 37.0, 92.5 78.8, 88.0 69.6 C 85.9 72.9, 23.8 84.2, 26.3 71.8 C 31.3 76.5, 96.4 24.1, 89.0 10.8 C 100.0 24.2, 79.7 81.1, 88.6 66.7 C 100.0 62.8, 17.5 53.7, 18.8 54.5 C 35.4 40.7, 63.9 18.6, 60.2 12.4 Z" fill="none" fill-opacity="0.38" stroke="hsl(151, 70%, 62%)" stroke-width="2.51"  transform="translate(3.3 48.9) rotate(196.2) scale(1.08 0.55)" />
<rect x="9.7" y="22.0" width="44.7" height="33.5" rx="0" fill="none" fill-opacity="0.21" stroke="hsl(86, 72%, 68%)" stroke-width="1.0"  transform="translate(15.2 57.6) rotate(25.2) scale(1.79 1.00)" />
<circle cx="10.1" cy="86.9" r="2.6" fill="hsl(106, 75%, 59%)" fill-opacity="0.96"  transform="translate(73.7 31.9) rotate(248.9) scale(1.32 0.93)" />
<rect x="46.2" y="20.3" width="21.7" height="29.5" rx="0" fill="none" fill-opacity="0.74"   transform="translate(40.3 27.2) rotate(205.9) scale(0.94 1.12)" />
<path d="M 2.2 77.5 C 15.5 97.2, 67.6 61.8, 56.6 75.2 C 41.8 82.6, 77.2 17.1, 64.4 2.8 C 48.0 0.0, 29.5 5.4, 30.4 11.8 C 31.8 14.3, 32.6 23.7, 25.2 11.6 C 29.7 26.2, 25.0 30.4, 37.9 33.7 C 35.5 37.0, 95.6 13.7, 87.2 19.0 C 93.1 29.3, 0.0 67.8, 1.1 60.0 C 14.1 62.2, 39.0 43.1, 52.4 48.5 C 52.5 68.4, 68.8 13.5, 71.6 8.5 Z" fill="hsl(106, 75%, 59%)" fill-opacity="0.66" stroke="none" stroke-width="5.08"  transform="translate(47.7 7.8) rotate(178.0) scale(0.58 1.39)" />
<path d="M 71.4 77.8 C 68.9 73.6, 42.3 100.0, 31.4 99.5 C 21.2 98.4, 80.9 75.2, 94.1 81.5 C 100.0 79.5, 72.9 98.0, 58.9 89.2 C 57.4 93.3, 57.1 6.0, 68.1 0.8 C 83.8 19.0, 58.5 100.0, 57.9 97.3 C 51.1 100.0, 95.3 40.9, 96.1 45.1 C 100.0 56.1, 100.0 62.6, 97.8 65.6 C 94.9 50.2, 15.6 6.2, 25.9 7.9 Z" fill="none" fill-opacity="0.63" stroke="hsl(86, 72%, 68%)" stroke-width="3.42"  transform="translate(40.4 41.5) rotate(127.5) scale(1.76 1.03)" />
<rect x="0.9" y="49.1" width="36.4" height="33.4" rx="11.2" fill="hsl(106, 75%, 59%)" fill-opacity="0.73" stroke="hsl(183, 71%, 60%)" stroke-width="4.9"  transform="translate(82.7 88.6) rotate(288.1) scale(1.35 1.64)" />
<rect x="40.0" y="73.0" width="25.7" height="26.9" rx="14.8" fill="none" fill-opacity="0.68"   transform="translate(93.0 17.3) rotate(108.9) scale(0.70 1.84)" />
<path d="M 74.8 80.0 C 55.1 72.5, 45.6 46.0, 40.3 36.7 C 50.4 17.9, 92.2 100.0, 98.2 90.4 C 99.6 96.6, 18.0 68.4, 22.2 79.8 C 37.2 77.1, 14.9 46.2, 9.3 39.1 C 0.0 19.3, 55.4 36.3, 48.8 39.5 C 61.8 52.1, 63.8 55.3, 53.2 51.7 C 53.4 66.4, 5.0 19.8, 15.6 31.6 Z" fill="hsl(106, 75%, 59%)" fill-opacity="0.86" stroke="none" stroke-width="3.69" filter="url(#f1)" transform="translate(23.9 57.9) rotate(347.1) scale(1.54 0.93)" />
<rect x="23.5" y="21.8" width="29.4" height="19.4" rx="14.8" fill="none" fill-opacity="0.29"  filter="url(#f1)" transform="translate(43.0 33.6) rotate(294.4) scale(0.66 1.71)" />
<path d="M 52.5 48.3 C 67.7 44.5, 46.0 5.9, 53.8 3.4 C 58.0 14.5, 28.1 29.3, 39.0 29.3 C 41.1 32.4, 39.4 71.8, 40.1 62.5 C 20.2 53.9, 18.7 61.9, 7.3 61.7 C 0.0 59.2, 79.3 56.3, 91.2 59.9 C 78.2 47.8, 72.0 72.0, 58.6 77.2 Z" fill="hsl(104, 72%, 65%)" fill-opacity="0.60" stroke="none" stroke-width="4.61"  transform="translate(36.4 11.7) rotate(125.7) scale(1.67 0.50)" />
<rect x="30.2" y="64.7" width="34.6" height="22.2" rx="7.8" fill="none" fill-opacity="0.40"   transform="translate(82.1 29.4) rotate(350.7) scale(1.09 0.68)" />
<rect x="45.0" y="63.9" width="25.3" height="21.4" rx="20.0" fill="hsl(83, 65%, 44%)" fill-opacity="0.94" stroke="hsl(290, 83%, 63%)" stroke-width="4.4"  transform="translate(70.8 75.5) rotate(260.5) scale(0.89 1.68)" />
<path d="M 16.2 84.8 C 1.9 69.3, 80.9 52.2, 81.8 45.7 C 83.5 51.9, 10.6 35.9, 24.1 42.0 C 10.1 44.0, 71.6 94.6, 76.5 93.5 C 65.0 100.0, 47.7 58.7, 48.2 53.6 C 60.2 66.8, 93.5 25.8, 82.3 21.2 C 89.9 17.7, 4.1 87.4, 12.9 75.2 C 16.4 55.7, 73.1 75.8, 68.6 80.3 C 80.0 97.1, 19.5 89.5, 14.3 85.7 C 28.1 100.0, 25.3 21.9, 18.9 32.1 Z" fill="none" fill-opacity="0.70" stroke="hsl(2, 82%, 55%)" stroke-width="4.73" filter="url(#f1)"  />
<rect x="59.3" y="9.9" width="27.7" height="20.2" rx="0" fill="none" fill-opacity="0.62"   transform="translate(56.3 31.3) rotate(38.4) scale(0.61 1.52)" />
<rect x="19.0" y="38.3" width="35.2" height="20.1" rx="13.8" fill="hsl(290, 83%, 63%)" fill-opacity="0.58"   transform="translate(88.4 26.5) rotate(249.1) scale(1.62 1.96)" />
<circle cx="1.8" cy="70.5" r="4.4" fill="hsl(104, 72%, 65%)" fill-opacity="0.49"  transform="translate(7.1 19.8) rotate(248.3) scale(0.71 1.81)" />
<path d="M 48.5 18.0 C 58.8 6.8, 50.6 64.0, 44.7 67.4 C 55.6 68.2, 45.1 100.0, 30.6 93.0 C 36.0 100.0, 84.8 11.0, 78.8 21.4 C 71.4 25.0, 81.1 0.0, 66.6 2.1 C 49.5 14.6, 68.8 21.1, 68.5 15.7 C 74.0 27.4, 76.3 90.3, 82.5 76.0 C 72.7 66.1, 100.0 24.6, 95.2 21.8 Z" fill="none" fill-opacity="0.89" stroke="hsl(183, 71%, 60%)" stroke-width="0.91"  transform="translate(64.5 18.9) rotate(352.3) scale(1.89 1.24)" />
<circle cx="53.9" cy="27.2" r="2.1" fill="url(#g2)" fill-opacity="0.68"  transform="translate(77.6 63.1) rotate(6.9) scale(0.97 1.85)" />
<path d="M 45.8 14.6 C 29.0 1.6, 86.7 1.4, 80.3 14.5 C 62.5 20.2, 28.1 84.0, 42.7 80.0 C 56.3 69.7, 31.9 100.0, 39.0 93.6 C 49.8 95.2, 0.0 17.0, 2.8 20.0 C 0.0 31.8, 0.0 23.0, 3.6 36.1 C 17.7 38.7, 61.0 3.2, 70.3 13.7 Z" fill="hsl(106, 75%, 59%)" fill-opacity="0.43" stroke="none" stroke-width="3.29"  transform="translate(37.5 97.9) rotate(192.3) scale(0.53 1.66)" />
<path d="M 60.6 45.4 C 62.9 46.1, 79.3 100.0, 66.6 88.8 C 60.6 77.9, 35.3 81.5, 47.7 66.8 C 38.9 68.1, 55.8 40.5, 42.5 43.8 C 60.6 46.6, 83.7 0.0, 80.5 1.1 C 77.4 9.9, 99.3 36.6, 92.8 29.8 C 100.0 22.7, 88.2 29.5, 73.5 33.3 Z" fill="hsl(183, 71%, 60%)" fill-opacity="0.46" stroke="none" stroke-width="2.32"  transform="translate(2.2 34.1) rotate(256.0) scale(1.91 1.14)" />
<rect x="18.7" y="59.1" width="48.9" height="10.2" rx="4.0" fill="hsl(144, 86%, 72%)" fill-opacity="0.53"    />
<rect x="28.7" y="51.1" width="38.5" height="10.4" rx="2.9" fill="hsl(242, 72%, 49%)" fill-opacity="0.36"  filter="url(#f1)" transform="translate(29.6 7.2) rotate(290.2) scale(0.63 1.56)" />
<path d="M 82.5 71.9 C 86.9 78.6, 57.6 40.5, 67.5 51.3 C 78.5 43.8, 71.6 83.6, 64.5 86.3 C 56.6 91.4, 66.6 51.5, 78.5 37.7 C 88.1 55.5, 25.9 17.5, 37.5 9.6 C 45.4 0.0, 28.1 38.0, 42.6 39.8 C 48.3 53.9, 63.2 100.0, 57.6 95.6 C 45.4 84.0, 58.1 84.8, 48.9 77.2 Z" fill="hsl(40, 53%, 69%)" fill-opacity="0.53" stroke="none" stroke-width="4.16" filter="url(#f1)"  />
<path d="M 60.3 98.4 C 40.4 100.0, 100.0 0.0, 95.4 5.9 C 76.9 0.0, 100.0 11.5, 93.5 5.3 C 74.5 16.7, 84.8 11.0, 95.7 2.0 C 76.2 16.8, 66.0 0.9, 51.3 5.5 C 51.8 0.0, 17.0 25.2, 9.7 19.1 C 27.0 34.2, 0.0 83.8, 7.7 81.6 C 4.9 100.0, 57.2 27.4, 70.7 26.1 Z" fill="hsl(83, 65%, 44%)" fill-opacity="0.97" stroke="none" stroke-width="2.91"  transform="translate(69.2 68.9) rotate(20.4) scale(1.94 1.46)" />
<rect x="52.7" y="65.2" width="37.3" height="31.4" rx="0" fill="none" fill-opacity="0.38" stroke="hsl(151, 70%, 62%)" stroke-width="2.7"  transform="translate(32.0 25.3) rotate(185.3) scale(0.81 0.84)" />
<path d="M 64.5 17.3 C 76.5 5.2, 45.9 83.9, 36.1 83.5 C 52.6 67.4, 100.0 97.8, 89.8 90.0 C 100.0 86.3, 54.4 31.8, 58.1 27.7 C 54.4 43.0, 93.0 29.9, 89.1 34.7 C 94.0 41.4, 71.1 30.2, 76.6 38.6 C 67.6 31.9, 9.3 29.5, 14.3 38.0 C 9.2 26.3, 51.4 85.4, 36.6 85.5 C 32.3 95.9, 27.9 4.9, 39.0 2.7 C 27.6 2.1, 75.0 100.0, 83.9 95.9 C 94.0 95.9, 0.9 38.1, 11.1 27.3 Z" fill="none" fill-opacity="0.57" stroke="hsl(242, 72%, 49%)" stroke-width="2.30"   />
<circle cx="57.3" cy="55.6" r="8.9" fill="url(#g2)" fill-opacity="0.78" filter="url(#f1)" transform="translate(21.9 76.9) rotate(290.8) scale(0.96 1.74)" />
<path d="M 80.0 19.2 C 72.0 30.3, 0.0 98.4, 0.7 97.5 C 16.3 100.0, 72.8 40.7, 84.6 36.7 C 86.6 17.0, 32.6 39.5, 19.8 49.2 C 7.3 30.3, 26.1 51.8, 38.1 38.8 C 30.4 50.8, 0.0 94.5, 3.8 96.0 C 0.7 89.2, 58.2 71.7, 49.1 66.1 C 41.2 61.7, 88.2 39.0, 83.0 35.6 C 74.7 47.4, 47.1 64.1, 40.1 79.1 Z" fill="hsl(86, 72%, 68%)" fill-opacity="0.57" stroke="none" stroke-width="3.59"  transform="translate(50.8 12.8) rotate(357.9) scale(0.56 0.77)" />
<circle cx="90.4" cy="50.8" r="14.0" fill="hsl(2, 82%, 55%)" fill-opacity="0.72" filter="url(#f1)" transform="translate(21.0 68.9) rotate(125.6) scale(1.42 1.58)" />
<path d="M 83.7 20.5 C 92.0 18.3, 47.0 28.9, 55.1 28.2 C 51.0 45.9, 22.1 70.5, 26.2 79.6 C 33.7 74.6, 85.8 50.7, 84.4 52.5 C 73.0 49.5, 0.0 100.0, 7.8 98.2 C 0.0 87.0, 32.3 33.6, 19.5 40.0 C 23.5 33.6, 49.6 31.0, 47.6 42.3 C 40.4 31.7, 81.8 0.0, 80.9 2.3 C 94.9 1.3, 17.8 91.7, 20.4 89.0 C 26.2 89.3, 62.0 78.5, 75.0 90.2 Z" fill="hsl(242, 72%, 49%)" fill-opacity="0.57" stroke="none" stroke-width="1.79" filter="url(#f1)" transform="translate(33.1 95.8) rotate(127.1) scale(1.98 1.43)" />
<rect x="27.1" y="45.8" width="25.6" height="28.9" rx="0" fill="hsl(86, 72%, 68%)" fill-opacity="0.26"   transform="translate(90.4 68.7) rotate(64.9) scale(1.13 0.64)" />
<circle cx="34.7" cy="51.1" r="0.9" fill="hsl(83, 65%, 44%)" fill-opacity="0.41"  transform="translate(39.2 93.7) rotate(129.8) scale(0.83 1.55)" />
<circle cx="5.7" cy="37.3" r="9.8" fill="hsl(86, 72%, 68%)" fill-opacity="0.53"  transform="translate(22.9 91.5) rotate(219.5) scale(1.16 1.82)" />
<path d="M 25.8 93.2 C 15.7 80.8, 43.3 89.5, 39.6 95.2 C 26.3 100.0, 85.7 31.9, 81.9 44.8 C 92.6 28.6, 49.5 92.8, 56.0 88.9 C 40.6 80.0, 70.3 62.4, 67.6 57.9 C 56.8 50.2, 77.6 34.8, 63.6 43.9 C 65.8 44.9, 0.0 33.5, 5.9 38.5 Z" fill="hsl(183, 71%, 60%)" fill-opacity="0.40" stroke="none" stroke-width="4.67"  transform="translate(91.6 23.8) rotate(147.4) scale(1.28 1.27)" />
<path d="M 71.0 79.4 C 81.6 82.9, 20.5 20.8, 17.1 22.8 C 14.6 40.9, 13.2 9.8, 11.7 22.7 C 24.4 39.2, 76.8 27.8, 88.7 35.0 C 100.0 31.1, 0.0 31.6, 3.6 33.4 C 11.4 45.5, 16.0 24.2, 4.0 37.7 C 17.0 41.8, 44.4 80.5, 46.7 76.5 C 49.9 69.4, 90.4 73.5, 76.8 69.2 C 71.2 57.4, 6.0 46.2, 1.7 39.7 C 3.7 34.3, 50.5 38.1, 37.7 26.8 C 24.2 23.4, 69.9 69.4, 80.6 57.8 Z" fill="none" fill-opacity="0.58" stroke="hsl(151, 70%, 62%)" stroke-width="2.45" filter="url(#f1)" transform="translate(17.4 90.4) rotate(19.7) scale(1.61 0.82)" />
<path d="M 67.3 58.4 C 84.5 52.6, 96.1 57.4, 89.9 43.5 C 83.2 34.7, 41.3 24.8, 31.7 22.8 C 48.6 21.5, 80.0 27.9, 83.0 40.9 C 74.3 22.9, 98.6 79.5, 99.3 90.3 C 100.0 100.0, 25.5 100.0, 23.4 98.2 C 32.8 96.6, 47.1 48.9, 52.5 54.1 C 40.1 34.8, 16.1 59.6, 1.9 50.2 C 16.4 66.3, 97.5 53.3, 99.2 58.1 C 100.0 65.7, 47.6 46.0, 45.9 31.4 C 45.2 46.4, 65.1 21.0, 51.8 35.9 Z" fill="none" fill-opacity="0.34" stroke="hsl(104, 72%, 65%)" stroke-width="3.89"  transform="translate(79.4 52.8) rotate(310.7) scale(1.44 0.90)" />
<path d="M 76.5 6.8 C 88.3 0.0, 100.0 68.9, 91.3 76.3 C 100.0 71.1, 100.0 26.5, 93.2 11.9 C 86.9 0.0, 100.0 30.3, 93.1 30.8 C 99.9 12.5, 41.8 9.4, 41.9 10.7 C 33.5 28.1, 49.9 25.1, 44.2 32.4 C 56.6 47.2, 28.7 73.9, 35.0 72.8 Z" fill="none" fill-opacity="0.85" stroke="hsl(183, 71%, 60%)" stroke-width="3.45"  transform="translate(35.9 53.6) rotate(185.3) scale(0.88 1.53)" />
<rect x="11.1" y="19.2" width="40.9" height="11.3" rx="2.6" fill="none" fill-opacity="0.37" stroke="hsl(106, 75%, 59%)" stroke-width="3.3"  transform="translate(82.5 51.0) rotate(291.7) scale(0.93 0.67)" />
<rect x="52.8" y="37.5" width="31.2" height="34.4" rx="5.6" fill="hsl(104, 72%, 65%)" fill-opacity="0.93" stroke="hsl(40, 53%, 69%)" stroke-width="2.8"  transform="translate(33.0 87.2) rotate(20.1) scale(1.16 1.27)" />
<circle cx="93.3" cy="23.3" r="5.1" fill="hsl(86, 72%, 68%)" fill-opacity="0.68"  transform="translate(26.9 54.5) rotate(148.8) scale(1.30 0.68)" />
<rect x="1.2" y="55.9" width="45.1" height="33.7" rx="19.9" fill="none" fill-opacity="0.32"   transform="translate(18.6 56.9) rotate(178.0) scale(1.16 1.46)" />
<path d="M 37.7 68.9 C 18.7 84.8, 50.3 95.7, 46.1 87.7 C 28.0 96.3, 22.1 92.7, 10.6 87.2 C 0.0 91.8, 61.6 30.0, 48.2 43.6 C 31.6 45.8, 71.7 2.3, 63.8 6.2 C 59.1 0.0, 21.0 12.1, 21.0 12.8 C 1.1 31.9, 35.9 45.8, 24.4 47.0 C 38.4 46.1, 44.7 17.2, 33.3 28.3 C 53.0 20.3, 50.0 29.7, 54.0 44.6 C 69.2 60.4, 85.7 81.8, 82.6 71.3 C 100.0 60.4, 23.1 70.6, 15.3 69.2 Z" fill="hsl(104, 72%, 65%)" fill-opacity="0.33" stroke="none" stroke-width="4.27"   />
<circle cx="43.9" cy="93.5" r="3.2" fill="url(#g1)" fill-opacity="0.83"  transform="translate(63.0 22.0) rotate(322.1) scale(1.70 0.56)" />
<rect x="53.1" y="14.3" width="24.3" height="28.5" rx="0" fill="none" fill-opacity="0.26"   transform="translate(78.1 51.2) rotate(206.9) scale(1.27 0.54)" />
<g opacity="0.048">
<rect x="0" y="0" width="1" height="100" fill="black" />
<rect x="22" y="0" width="1" height="100" fill="black" />
<rect x="44" y="0" width="1" height="100" fill="black" />
<rect x="66" y="0" width="1" height="100" fill="black" />
<rect x="88" y="0" width="1" height="100" fill="black" />
<rect x="0" y="0" width="100" height="1" fill="black" />
<rect x="0" y="22" width="100" height="1" fill="black" />
<rect x="0" y="44" width="100" height="1" fill="black" />
<rect x="0" y="66" width="100" height="1" fill="black" />
<rect x="0" y="88" width="100" height="1" fill="black" />
</g>

</svg>
