<?xml version="1.0" encoding="UTF-8"?>
<svg xmlns="http://www.w3.org/2000/svg" width="100" height="100" viewBox="0 0 100 100">
<defs>
<linearGradient id="g0" x1="0%" y1="0%" x2="100%" y2="100%">
<stop offset="0.0%" stop-color="hsl(106, 75%, 59%)" />
<stop offset="33.3%" stop-color="hsl(183, 71%, 60%)" />
<stop offset="66.7%" stop-color="hsl(242, 72%, 49%)" />
<stop offset="100.0%" stop-color="hsl(322, 74%, 44%)" />
</linearGradient>
<linearGradient id="g1" x1="0%" y1="0%" x2="100%" y2="100%">
<stop offset="0.0%" stop-color="hsl(290, 83%, 63%)" />
<stop offset="33.3%" stop-color="hsl(2, 82%, 55%)" />
<stop offset="66.7%" stop-color="hsl(86, 72%, 68%)" />
<stop offset="100.0%" stop-color="hsl(83, 65%, 44%)" />
</linearGradient>
<linearGradient id="g2" x1="0%" y1="0%" x2="100%" y2="100%">
<stop offset="0.0%" stop-color="hsl(40, 53%, 69%)" />
<stop offset="33.3%" stop-color="hsl(104, 72%, 65%)" />
<stop offset="66.7%" stop-color="hsl(144, 86%, 72%)" />
<stop offset="100.0%" stop-color="hsl(151, 70%, 62%)" />
</linearGradient>
</defs>

<path d="M 98.4 90.8 C 85.0 93.6, 7.4 0.0, 7.6 3.1 C 0.0 13.7, 0.0 53.7, 7.7 62.5 C 18.9 76.6, 22.4 97.0, 29.7 97.0 C 20.1 96.4, 54.8 42.0, 49.9 53.2 C 58.8 34.1, 63.0 16.2, 50.7 9.8 C 60.3 0.0, 24.9 33.0, 34.9 47.2 C 42.9 61.0, 68.7 48.2, 72.4 57.7 " fill="hsl(40, 53%, 69%)" fill-opacity="0.47" stroke="none" stroke-width="1.28"   />
<path d="M 47.6 42.4 C 49.2 34.0, 85.0 0.0, 91.1 11.8 C 96.0 20.5, 80.9 48.6, 67.2 51.6 C 62.4 43.4, 93.4 68.9, 93.4 83.5 C 100.0 67.1, 71.1 26.2, 83.1 39.7 C 65.1 59.0, 23.9 15.6, 19.9 16.9 C 20.1 8.4, 11.8 25.5, 21.2 21.3 " fill="none" fill-opacity="0.86" stroke="hsl(83, 65%, 44%)" stroke-width="1.19"   />
<circle cx="67.2" cy="70.4" r="1.9" fill="hsl(2, 82%, 55%)" fill-opacity="0.66"  transform="translate(38.6 36.5) rotate(289.2) scale(0.89 1.79)" />
<path d="M 32.0 1.5 C 26.1 0.0, 29.3 19.2, 20.6 5.6 C 12.3 19.3, 57.8 73.7, 50.2 58.8 C 58.3 39.8, 35.2 6.9, 46.3 5.5 C 37.7 24.2, 88.9 57.9, 79.8 62.9 C 98.8 74.9, 100.0 23.4, 94.8 13.0 C 100.0 8.6, 48.7 18.2, 34.3 28.8 Z" fill="hsl(86, 72%, 68%)" fill-opacity="0.64" stroke="none" stroke-width="1.13"  transform="translate(90.3 61.7) rotate(113.4) scale(1.04 0.75)" />
<circle cx="58.4" cy="42.8" r="1.3" fill="hsl(290, 83%, 63%)" fill-opacity="0.65"  transform="translate(97.4 76.0) rotate(227.2) scale(1.83 1.91)" />
<path d="M 67.5 67.1 C 77.7 54.4, 75.8 33.9, 82.8 43.5 C 89.5 33.2, 59.0 62.7, 66.9 74.8 C 66.8 86.7, 38.6 1.2, 51.1 3.7 C 39.7 0.0, 84.4 22.0, 94.8 13.9 C 94.3 20.2, 48.3 93.1, 58.3 84.8 " fill="hsl(183, 71%, 60%)" fill-opacity="0.84" stroke="none" stroke-width="1.11"  transform="translate(36.3 40.8) rotate(336.4) scale(1.35 0.86)" />
<circle cx="40.0" cy="19.3" r="1.5" fill="hsl(183, 71%, 60%)" fill-opacity="0.62"   />
<path d="M 82.1 82.7 C 98.4 89.5, 100.0 52.3, 98.4 47.6 C 98.6 67.5, 52.5 23.4, 49.4 31.2 C 55.0 13.6, 12.9 57.9, 15.9 72.7 C 31.1 88.3, 100.0 25.9, 91.1 14.9 C 100.0 18.3, 50.0 92.7, 41.6 96.5 C 35.6 100.0, 40.3 65.7, 42.8 64.9 Z" fill="hsl(104, 72%, 65%)" fill-opacity="0.92" stroke="none" stroke-width="1.19"  transform="translate(57.4 68.5) rotate(181.3) scale(1.19 1.46)" />
<circle cx="81.2" cy="29.4" r="0.9" fill="hsl(104, 72%, 65%)" fill-opacity="0.81"   />
<path d="M 27.1 1.5 C 30.6 2.8, 24.9 11.9, 38.5 10.8 C 40.0 0.0, 17.9 14.3, 22.9 24.9 C 14.4 35.9, 33.3 0.6, 43.5 14.0 " fill="none" fill-opacity="0.28" stroke="hsl(322, 74%, 44%)" stroke-width="1.23"   />
<path d="M 3.3 10.9 C 11.3 22.7, 46.0 12.5, 59.7 6.9 C 79.0 2.1, 55.3 71.1, 46.8 71.4 C 49.1 63.2, 15.1 36.9, 4.8 46.5 C 0.7 56.6, 50.7 0.0, 52.6 0.8 C 45.2 17.6, 11.0 72.1, 8.3 64.9 C 4.7 64.7, 88.0 50.1, 83.1 52.6 C 73.2 63.1, 27.0 67.8, 30.4 59.4 " fill="hsl(151, 70%, 62%)" fill-opacity="0.85" stroke="none" stroke-width="1.10"   />
</svg>
