<?xml version="1.0" encoding="UTF-8"?>
<svg xmlns="http://www.w3.org/2000/svg" width="100" height="100" viewBox="0 0 100 100">
<defs>
<linearGradient id="g0" x1="0%" y1="0%" x2="100%" y2="100%">
<stop offset="0.0%" stop-color="hsl(106, 75%, 59%)" />
<stop offset="33.3%" stop-color="hsl(183, 71%, 60%)" />
<stop offset="66.7%" stop-color="hsl(242, 72%, 49%)" />
<stop offset="100.0%" stop-color="hsl(322, 74%, 44%)" />
</linearGradient>
<linearGradient id="g1" x1="0%" y1="0%" x2="100%" y2="100%">
<stop offset="0.0%" stop-color="hsl(290, 83%, 63%)" />
<stop offset="33.3%" stop-color="hsl(2, 82%, 55%)" />
<stop offset="66.7%" stop-color="hsl(86, 72%, 68%)" />
<stop offset="100.0%" stop-color="hsl(83, 65%, 44%)" />
</linearGradient>
<linearGradient id="g2" x1="0%" y1="0%" x2="100%" y2="100%">
<stop offset="0.0%" stop-color="hsl(40, 53%, 69%)" />
<stop offset="33.3%" stop-color="hsl(104, 72%, 65%)" />
<stop offset="66.7%" stop-color="hsl(144, 86%, 72%)" />
<stop offset="100.0%" stop-color="hsl(151, 70%, 62%)" />
</linearGradient>
</defs>

<circle cx="84.6" cy="75.1" r="0.7" fill="hsl(242, 72%, 49%)" fill-opacity="0.85"   />
<rect x="18.2" y="46.0" width="30.0" height="17.0" rx="0" fill="none" fill-opacity="0.45"   transform="translate(99.5 15.7) rotate(27.4) scale(1.21 0.78)" />
<path d="M 78.0 14.4 C 78.5 15.3, 68.8 8.3, 68.6 21.2 C 71.3 26.0, 6.5 66.2, 9.7 80.1 C 12.5 95.8, 25.4 8.6, 38.7 15.1 C 33.0 6.2, 87.8 28.8, 97.0 38.4 C 91.4 34.6, 61.1 85.2, 50.8 95.8 C 39.4 100.0, 71.0 80.8, 76.1 78.9 C 57.1 86.7, 36.8 94.7, 33.4 91.9 " fill="hsl(86, 72%, 68%)" fill-opacity="0.92" stroke="none" stroke-width="1.03"  transform="translate(40.8 12.5) rotate(240.7) scale(1.29 1.63)" />
<path d="M 31.6 4.3 C 28.9 13.7, 28.6 69.0, 33.3 78.5 C 35.7 85.3, 21.6 35.1, 16.1 32.6 C 19.3 29.9, 49.3 64.4, 57.6 60.9 C 76.5 65.0, 50.7 84.1, 52.1 70.5 " fill="hsl(183, 71%, 60%)" fill-opacity="0.84" stroke="none" stroke-width="0.86"  transform="translate(2.1 12.9) rotate(289.0) scale(1.34 1.17)" />
<rect x="27.8" y="47.8" width="38.7" height="21.4" rx="0" fill="hsl(183, 71%, 60%)" fill-opacity="0.57"   transform="translate(17.5 67.0) rotate(322.9) scale(1.59 1.68)" />
<path d="M 90.2 45.3 C 99.0 64.3, 77.0 46.2, 84.2 55.6 C 80.4 54.7, 21.8 69.0, 17.7 70.1 C 18.4 58.4, 58.9 81.2, 66.7 86.3 C 85.5 100.0, 78.0 1.9, 74.3 16.3 C 85.4 13.9, 60.9 30.8, 55.8 45.6 C 41.0 47.6, 14.2 91.0, 1.6 86.3 Z" fill="hsl(183, 71%, 60%)" fill-opacity="0.70" stroke="none" stroke-width="1.10"  transform="translate(7.8 64.9) rotate(171.0) scale(0.97 1.05)" />
<path d="M 1.3 85.0 C 3.6 89.0, 98.7 42.6, 86.0 48.5 C 92.6 47.8, 100.0 26.0, 97.7 17.9 C 93.1 11.2, 26.6 65.9, 27.7 78.1 C 14.4 76.5, 64.2 16.6, 53.8 19.9 C 39.2 37.8, 60.1 85.9, 73.1 71.4 C 64.7 58.9, 15.6 29.5, 15.0 33.6 " fill="hsl(106, 75%, 59%)" fill-opacity="0.95" stroke="none" stroke-width="1.08"  transform="translate(83.3 51.6) rotate(95.4) scale(1.27 1.88)" />
<circle cx="21.5" cy="89.6" r="0.7" fill="hsl(151, 70%, 62%)" fill-opacity="0.88"  transform="translate(46.2 91.2) rotate(188.5) scale(1.79 0.96)" />
<rect x="54.3" y="61.3" width="26.7" height="38.0" rx="0" fill="none" fill-opacity="0.74"    />
<path d="M 68.1 95.2 C 60.6 85.2, 9.4 14.5, 8.6 7.6 C 11.5 4.0, 0.0 78.4, 7.8 76.8 C 10.4 91.4, 36.9 0.0, 23.6 10.8 " fill="hsl(290, 83%, 63%)" fill-opacity="0.75" stroke="none" stroke-width="0.88"  transform="translate(81.6 2.0) rotate(191.7) scale(1.61 0.70)" />
<rect x="33.2" y="60.7" width="27.1" height="33.5" rx="0" fill="hsl(183, 71%, 60%)" fill-opacity="0.65"    />
<circle cx="8.5" cy="7.8" r="0.3" fill="hsl(104, 72%, 65%)" fill-opacity="0.71"  transform="translate(74.7 39.4) rotate(153.1) scale(1.89 1.80)" />
<path d="M 25.8 29.0 C 23.6 42.5, 66.9 33.9, 65.9 24.6 C 60.8 43.1, 0.0 3.2, 0.3 3.9 C 10.1 13.8, 59.7 24.6, 56.4 25.7 C 60.1 6.4, 34.7 72.5, 47.1 67.0 C 58.2 66.7, 100.0 53.3, 99.0 57.0 Z" fill="none" fill-opacity="0.51" stroke="hsl(83, 65%, 44%)" stroke-width="1.28"   />
<rect x="40.7" y="62.6" width="27.4" height="11.3" rx="0" fill="hsl(2, 82%, 55%)" fill-opacity="0.85" stroke="hsl(86, 72%, 68%)" stroke-width="4.1"   />
<rect x="63.5" y="43.7" width="28.7" height="15.1" rx="14.1" fill="none" fill-opacity="0.21"   transform="translate(78.3 89.7) rotate(20.4) scale(1.05 0.64)" />
<path d="M 29.3 16.3 C 38.8 0.0, 3.2 0.0, 5.8 4.3 C 11.9 0.0, 29.9 53.6, 35.4 47.1 C 29.5 52.3, 80.3 33.6, 70.9 40.5 C 80.1 47.1, 14.4 53.2, 12.3 48.5 C 19.5 30.0, 41.1 15.2, 33.0 3.1 C 31.6 7.9, 89.8 35.3, 90.2 32.9 " fill="hsl(83, 65%, 44%)" fill-opacity="0.86" stroke="none" stroke-width="1.06"   />
<path d="M 41.1 60.5 C 24.1 47.2, 28.1 27.8, 23.1 36.0 C 36.8 34.5, 18.9 62.3, 11.5 61.4 C 19.9 62.1, 60.3 65.7, 56.9 77.0 " fill="hsl(40, 53%, 69%)" fill-opacity="0.44" stroke="none" stroke-width="0.88"  transform="translate(58.2 4.1) rotate(272.7) scale(1.20 0.76)" />
<rect x="47.3" y="58.3" width="33.1" height="26.7" rx="18.0" fill="hsl(2, 82%, 55%)" fill-opacity="0.34"    />
</svg>
