<?xml version="1.0" encoding="UTF-8"?>
<svg xmlns="http://www.w3.org/2000/svg" width="100" height="100" viewBox="0 0 100 100">
<defs>
<linearGradient id="g0" x1="0%" y1="0%" x2="100%" y2="100%">
<stop offset="0.0%" stop-color="hsl(106, 75%, 59%)" />
<stop offset="33.3%" stop-color="hsl(183, 71%, 60%)" />
<stop offset="66.7%" stop-color="hsl(242, 72%, 49%)" />
<stop offset="100.0%" stop-color="hsl(322, 74%, 44%)" />
</linearGradient>
<linearGradient id="g1" x1="0%" y1="0%" x2="100%" y2="100%">
<stop offset="0.0%" stop-color="hsl(290, 83%, 63%)" />
<stop offset="33.3%" stop-color="hsl(2, 82%, 55%)" />
<stop offset="66.7%" stop-color="hsl(86, 72%, 68%)" />
<stop offset="100.0%" stop-color="hsl(83, 65%, 44%)" />
</linearGradient>
<linearGradient id="g2" x1="0%" y1="0%" x2="100%" y2="100%">
<stop offset="0.0%" stop-color="hsl(40, 53%, 69%)" />
<stop offset="33.3%" stop-color="hsl(104, 72%, 65%)" />
<stop offset="66.7%" stop-color="hsl(144, 86%, 72%)" />
<stop offset="100.0%" stop-color="hsl(151, 70%, 62%)" />
</linearGradient>
<filter id="f1" x="-20%" y="-20%" width="140%" height="140%">
  <feGaussianBlur stdDeviation="0.5906952664194465" />
</filter>

</defs>

<path d="M 12.7 98.0 C 29.1 98.5, 80.8 45.6, 91.9 31.3 C 100.0 25.8, 9.0 89.5, 3.6 76.4 C 0.0 74.3, 73.2 66.6, 87.6 53.4 C 100.0 65.7, 54.1 0.0, 49.9 10.2 C 52.2 6.0, 72.3 58.6, 81.1 64.6 C 100.0 54.0, 41.3 99.2, 50.6 95.4 C 49.2 86.2, 74.7 32.1, 60.9 39.4 C 56.3 40.4, 51.7 75.0, 58.4 78.1 C 67.1 78.3, 58.0 50.7, 72.3 39.6 Z" fill="hsl(2, 82%, 55%)" fill-opacity="0.33" stroke="none" stroke-width="1.89"  transform="translate(84.9 90.0) rotate(169.7) scale(1.09 1.49)" />
<path d="M 32.7 64.1 C 51.8 69.8, 48.5 6.1, 41.6 8.5 C 56.8 0.0, 34.6 10.7, 47.3 6.5 C 51.0 11.0, 82.4 82.6, 76.6 90.8 C 66.0 100.0, 88.3 36.0, 79.4 49.1 C 62.7 38.1, 8.8 32.9, 1.9 37.2 C 17.6 40.7, 19.1 25.3, 21.1 18.2 C 27.5 12.1, 47.1 61.1, 56.6 71.9 C 52.9 91.3, 74.5 50.5, 72.4 35.6 Z" fill="hsl(104, 72%, 65%)" fill-opacity="0.29" stroke="none" stroke-width="2.33"  transform="translate(3.6 14.2) rotate(167.5) scale(0.75 0.79)" />
<path d="M 22.6 74.6 C 36.6 71.0, 79.4 70.5, 81.4 65.7 C 100.0 68.5, 35.3 64.1, 48.2 52.9 C 65.8 52.5, 81.8 73.7, 68.4 80.6 C 66.8 80.8, 4.2 52.7, 14.2 51.3 C 13.9 41.2, 47.6 17.7, 50.7 20.6 C 50.4 40.2, 46.2 32.9, 49.9 43.7 Z" fill="hsl(40, 53%, 69%)" fill-opacity="0.73" stroke="none" stroke-width="2.19"  transform="translate(84.2 81.7) rotate(80.2) scale(0.88 1.75)" />
<circle cx="49.1" cy="21.9" r="3.3" fill="url(#g1)" fill-opacity="0.53"  transform="translate(30.5 48.5) rotate(268.4) scale(0.60 0.93)" />
<path d="M 27.7 99.8 C 28.7 100.0, 50.8 100.0, 42.5 90.6 C 38.4 74.9, 24.1 20.8, 35.8 11.9 C 16.1 13.8, 19.7 30.1, 18.7 43.9 C 19.9 31.5, 85.4 41.4, 99.0 53.2 C 83.1 35.6, 56.7 52.5, 45.4 38.6 C 63.8 35.2, 62.7 58.6, 75.4 65.7 C 78.4 69.2, 100.0 75.2, 90.8 80.3 Z" fill="none" fill-opacity="0.47" stroke="hsl(2, 82%, 55%)" stroke-width="3.62"  transform="translate(4.7 34.5) rotate(45.3) scale(0.57 0.74)" />
<path d="M 57.9 30.5 C 66.6 48.8, 26.8 67.0, 24.6 54.2 C 32.4 72.4, 40.2 66.3, 31.4 65.9 C 31.5 61.1, 45.7 51.5, 51.6 38.1 C 50.4 34.5, 63.0 19.2, 71.1 12.1 C 61.7 29.7, 15.9 74.5, 7.9 76.3 C 0.0 76.0, 20.6 65.9, 27.5 63.3 Z" fill="none" fill-opacity="0.29" stroke="hsl(106, 75%, 59%)" stroke-width="5.29"  transform="translate(53.8 17.1) rotate(57.5) scale(1.05 0.56)" />
<path d="M 13.7 95.1 C 23.3 96.3, 20.8 33.1, 19.3 43.1 C 32.3 31.7, 26.4 15.6, 24.2 10.5 C 35.7 0.0, 41.6 62.2, 28.0 49.4 C 13.3 54.6, 46.7 40.9, 56.7 34.8 C 37.0 50.9, 53.5 68.0, 40.4 70.9 C 43.6 54.0, 100.0 71.6, 92.5 79.9 C 93.4 81.9, 59.4 24.4, 46.2 9.4 C 52.1 0.0, 69.8 1.3, 70.9 12.2 Z" fill="hsl(83, 65%, 44%)" fill-opacity="0.26" stroke="none" stroke-width="2.40"   />
<rect x="50.1" y="19.9" width="27.5" height="35.0" rx="14.6" fill="none" fill-opacity="0.26"   transform="translate(43.0 13.8) rotate(144.3) scale(0.55 1.77)" />
<circle cx="63.7" cy="59.7" r="11.5" fill="hsl(322, 74%, 44%)" fill-opacity="0.43"  transform="translate(62.9 16.0) rotate(156.5) scale(1.51 1.74)" />
<rect x="9.6" y="77.4" width="44.0" height="16.9" rx="7.7" fill="hsl(86, 72%, 68%)" fill-opacity="0.80"   transform="translate(54.0 41.9) rotate(328.1) scale(1.41 1.22)" />
<rect x="21.4" y="60.1" width="28.7" height="17.8" rx="0" fill="hsl(290, 83%, 63%)" fill-opacity="0.49" stroke="hsl(86, 72%, 68%)" stroke-width="5.0"  transform="translate(87.5 21.4) rotate(96.0) scale(1.47 0.99)" />
<path d="M 59.8 30.1 C 73.8 26.1, 0.0 48.2, 7.1 56.2 C 10.7 47.8, 44.2 80.7, 44.1 72.6 C 45.5 81.4, 51.4 39.0, 41.3 28.5 C 23.3 36.2, 4.0 74.6, 4.0 70.9 C 0.0 85.4, 37.9 15.4, 37.1 27.8 C 56.4 35.2, 11.7 100.0, 21.4 98.7 C 23.0 99.2, 85.6 1.2, 76.5 8.1 C 94.4 0.0, 23.7 64.2, 29.0 71.6 C 39.7 85.6, 31.3 19.7, 44.0 18.7 " fill="hsl(83, 65%, 44%)" fill-opacity="0.63" stroke="none" stroke-width="1.94"  transform="translate(97.5 21.3) rotate(264.1) scale(0.58 1.74)" />
<path d="M 40.7 97.2 C 42.0 82.6, 76.3 93.7, 89.3 91.5 C 100.0 74.7, 60.9 35.4, 46.9 31.6 C 44.5 20.9, 51.0 30.7, 39.6 45.0 C 50.6 58.5, 90.1 31.6, 79.8 17.4 C 83.0 37.1, 21.7 82.7, 14.3 94.4 C 14.5 100.0, 63.7 12.8, 64.8 0.1 C 46.3 0.2, 6.4 32.0, 20.9 22.0 C 11.0 23.7, 45.2 76.4, 48.0 78.9 C 38.4 80.1, 72.4 19.9, 82.3 5.5 C 79.9 13.6, 84.9 100.0, 74.3 99.5 " fill="none" fill-opacity="0.62" stroke="hsl(104, 72%, 65%)" stroke-width="2.37"  transform="translate(87.3 38.7) rotate(82.0) scale(1.34 0.90)" />
<rect x="53.4" y="23.5" width="23.1" height="18.5" rx="0" fill="none" fill-opacity="0.47" stroke="hsl(40, 53%, 69%)" stroke-width="2.7"   />
<circle cx="81.4" cy="0.5" r="7.6" fill="hsl(290, 83%, 63%)" fill-opacity="0.55"  transform="translate(84.8 2.3) rotate(118.3) scale(1.21 1.08)" />
<path d="M 66.0 53.9 C 72.7 49.4, 93.5 37.9, 88.5 33.4 C 76.4 35.5, 34.2 45.6, 40.4 41.2 C 34.4 26.9, 66.7 34.1, 73.2 41.3 C 59.0 34.1, 12.8 67.4, 4.3 62.4 C 17.7 75.6, 93.6 63.8, 79.6 73.3 C 79.5 66.8, 78.8 44.0, 72.6 42.0 C 90.2 37.3, 55.7 17.2, 54.1 28.8 Z" fill="hsl(322, 74%, 44%)" fill-opacity="0.40" stroke="none" stroke-width="1.15" filter="url(#f1)"  />
<path d="M 4.3 21.0 C 21.1 22.1, 65.0 52.2, 59.5 49.0 C 73.1 59.6, 34.7 69.7, 41.2 67.8 C 55.2 62.7, 13.2 68.5, 2.8 63.1 C 20.5 75.1, 79.5 20.0, 70.5 19.9 C 78.8 23.5, 5.1 37.7, 7.3 24.5 C 19.7 38.2, 72.1 71.2, 70.8 72.8 C 69.4 71.0, 62.3 48.5, 68.6 61.4 C 83.5 62.9, 94.2 85.7, 81.7 98.3 C 80.4 100.0, 28.0 1.5, 39.7 9.4 Z" fill="none" fill-opacity="0.69" stroke="hsl(104, 72%, 65%)" stroke-width="3.40"  transform="translate(70.1 22.9) rotate(103.5) scale(1.03 1.03)" />
<rect x="9.1" y="67.9" width="26.8" height="25.8" rx="0.9" fill="none" fill-opacity="0.96" stroke="hsl(86, 72%, 68%)" stroke-width="4.9"  transform="translate(8.0 52.6) rotate(153.6) scale(0.53 1.53)" />
<path d="M 34.0 10.7 C 46.8 26.0, 85.7 41.6, 77.3 40.9 C 80.5 59.4, 44.4 2.7, 42.3 13.9 C 26.2 18.1, 44.9 26.7, 36.5 24.5 C 30.8 24.2, 100.0 13.1, 95.9 18.9 C 100.0 3.7, 77.8 2.9, 89.9 12.0 C 80.2 12.6, 14.4 95.1, 6.2 94.5 C 0.0 96.3, 0.0 69.7, 6.7 70.7 Z" fill="hsl(151, 70%, 62%)" fill-opacity="0.94" stroke="none" stroke-width="4.77"  transform="translate(24.0 12.7) rotate(287.5) scale(1.73 0.65)" />
<circle cx="83.9" cy="49.5" r="4.7" fill="url(#g0)" fill-opacity="0.85"  transform="translate(47.6 1.2) rotate(358.8) scale(1.75 0.78)" />
<path d="M 96.5 31.6 C 100.0 29.8, 64.2 96.2, 59.0 91.8 C 50.0 84.6, 24.7 32.0, 17.0 44.9 C 30.9 44.3, 61.6 1.7, 76.2 11.0 C 71.5 30.2, 99.6 13.5, 93.0 15.5 C 100.0 31.1, 19.8 3.7, 10.8 14.8 C 27.8 13.1, 84.6 77.5, 95.2 75.3 C 100.0 67.5, 92.8 31.5, 92.9 34.1 C 80.9 14.6, 20.6 69.4, 22.9 74.5 C 36.1 65.7, 37.5 68.5, 41.9 78.2 C 39.5 72.2, 74.3 45.9, 89.3 36.6 Z" fill="none" fill-opacity="0.85" stroke="hsl(183, 71%, 60%)" stroke-width="1.04"  transform="translate(13.7 43.4) rotate(288.5) scale(0.76 0.77)" />
<path d="M 76.8 67.9 C 58.3 65.1, 34.2 65.6, 31.9 66.6 C 38.7 60.1, 3.8 97.4, 6.4 83.4 C 25.6 63.5, 61.1 23.9, 50.0 9.4 C 35.4 1.2, 29.3 46.3, 17.3 43.7 C 7.8 24.1, 71.0 28.5, 76.7 25.9 C 92.4 9.5, 29.8 65.4, 24.2 78.7 Z" fill="none" fill-opacity="0.92" stroke="hsl(151, 70%, 62%)" stroke-width="3.69"  transform="translate(57.5 39.0) rotate(107.0) scale(1.45 0.54)" />
<rect x="22.9" y="46.9" width="25.2" height="13.7" rx="0" fill="hsl(106, 75%, 59%)" fill-opacity="0.97"   transform="translate(22.7 81.8) rotate(278.8) scale(1.44 1.40)" />
<rect x="26.1" y="12.2" width="38.4" height="16.2" rx="7.0" fill="hsl(86, 72%, 68%)" fill-opacity="0.80"   transform="translate(72.9 62.9) rotate(339.8) scale(1.03 0.82)" />
<circle cx="1.1" cy="37.6" r="4.8" fill="hsl(151, 70%, 62%)" fill-opacity="0.63"  transform="translate(45.7 85.6) rotate(321.3) scale(0.92 1.75)" />
<path d="M 76.2 81.2 C 91.1 63.5, 64.7 42.6, 75.4 33.2 C 68.7 44.0, 48.4 95.2, 59.6 90.5 C 73.9 73.0, 51.6 83.6, 43.6 68.9 C 26.2 70.8, 61.6 85.0, 55.1 81.4 C 59.5 79.1, 93.3 9.5, 94.4 16.5 C 76.1 18.6, 85.6 88.0, 81.0 81.5 Z" fill="hsl(86, 72%, 68%)" fill-opacity="0.53" stroke="none" stroke-width="4.72"  transform="translate(45.8 96.9) rotate(66.5) scale(1.21 1.51)" />
<rect x="42.3" y="65.9" width="26.4" height="13.5" rx="0" fill="hsl(40, 53%, 69%)" fill-opacity="0.72"   transform="translate(10.0 98.1) rotate(351.8) scale(0.75 1.36)" />
<path d="M 28.8 95.2 C 35.1 92.4, 79.5 60.1, 64.8 55.1 C 54.9 60.3, 59.0 55.6, 62.3 70.3 C 65.7 75.9, 80.1 84.4, 90.3 85.0 C 76.3 70.7, 8.2 62.9, 15.3 69.7 C 8.5 85.3, 77.4 20.2, 76.6 29.2 C 90.9 30.1, 37.4 85.2, 43.6 73.1 Z" fill="none" fill-opacity="0.66" stroke="hsl(183, 71%, 60%)" stroke-width="2.20"  transform="translate(52.3 76.2) rotate(60.1) scale(1.64 1.15)" />
<path d="M 41.7 71.6 C 44.7 82.7, 36.2 74.2, 34.0 72.5 C 20.9 77.3, 79.4 20.9, 89.4 30.0 C 100.0 11.0, 37.0 43.9, 22.1 40.4 C 35.5 20.8, 0.0 71.4, 0.2 61.5 C 4.0 57.3, 42.8 20.6, 54.5 11.0 C 36.5 0.0, 68.7 36.9, 64.1 43.2 C 75.0 49.1, 62.2 18.7, 49.0 5.3 C 41.1 24.0, 65.2 68.6, 64.4 55.9 Z" fill="hsl(83, 65%, 44%)" fill-opacity="0.25" stroke="none" stroke-width="4.72" filter="url(#f1)" transform="translate(97.0 43.9) rotate(324.4) scale(1.44 1.52)" />
<path d="M 97.1 11.6 C 100.0 5.8, 45.2 73.5, 36.6 58.6 C 49.3 40.8, 67.7 89.9, 76.3 87.6 C 70.2 100.0, 60.9 13.6, 46.1 17.8 C 42.7 26.4, 14.8 94.6, 5.2 89.2 C 0.0 69.7, 73.9 25.9, 84.7 31.1 C 90.0 33.4, 10.5 85.2, 18.2 91.5 " fill="hsl(322, 74%, 44%)" fill-opacity="0.85" stroke="none" stroke-width="2.61"  transform="translate(33.4 14.6) rotate(256.9) scale(1.44 0.79)" />
<path d="M 45.5 52.5 C 28.3 38.6, 37.9 24.8, 28.0 11.5 C 10.6 11.5, 51.6 100.0, 45.3 98.6 C 28.1 98.4, 63.6 85.4, 63.2 95.8 C 66.4 87.0, 55.0 72.9, 61.9 76.8 C 53.8 94.0, 84.4 61.2, 99.2 75.3 C 90.8 82.4, 82.3 50.0, 86.8 59.5 C 100.0 51.2, 23.5 37.9, 10.3 37.3 C 20.6 22.0, 41.5 97.6, 51.6 90.2 C 69.4 95.0, 26.8 19.3, 19.7 31.4 Z" fill="none" fill-opacity="0.97" stroke="hsl(151, 70%, 62%)" stroke-width="3.88"  transform="translate(21.7 74.5) rotate(337.2) scale(0.90 0.68)" />
<path d="M 56.6 79.4 C 61.6 74.9, 21.0 84.5, 34.7 94.8 C 15.9 96.4, 32.2 57.8, 33.3 66.9 C 39.6 68.5, 76.4 51.8, 62.6 62.7 C 43.2 65.4, 68.5 54.0, 68.6 59.8 C 65.3 57.2, 100.0 39.4, 94.5 42.4 C 100.0 46.9, 11.2 4.7, 4.8 9.2 Z" fill="none" fill-opacity="0.39" stroke="hsl(183, 71%, 60%)" stroke-width="2.54" filter="url(#f1)" transform="translate(66.4 13.0) rotate(59.3) scale(1.05 0.81)" />
<path d="M 55.4 27.5 C 54.0 30.7, 58.6 93.2, 45.7 86.5 C 36.6 77.2, 94.7 66.4, 96.5 71.1 C 100.0 58.6, 0.0 72.1, 10.7 72.0 C 5.8 90.8, 16.9 30.1, 11.0 19.0 C 20.8 33.4, 18.2 60.5, 29.5 51.9 C 39.3 48.9, 60.8 19.5, 45.9 22.6 C 63.6 7.7, 76.1 43.5, 88.6 44.2 C 71.6 29.2, 82.9 100.0, 80.3 94.7 C 62.0 100.0, 59.2 75.5, 53.3 69.0 C 44.6 75.1, 76.9 65.4, 86.6 72.7 Z" fill="hsl(2, 82%, 55%)" fill-opacity="0.96" stroke="none" stroke-width="4.14"  transform="translate(35.8 89.1) rotate(197.2) scale(0.62 1.90)" />
<path d="M 69.1 30.6 C 51.8 39.9, 32.7 51.8, 35.1 45.8 C 28.1 60.3, 63.7 69.4, 54.8 62.4 C 50.5 64.2, 12.4 20.4, 14.8 22.0 C 18.1 26.2, 18.9 54.5, 22.6 66.4 C 20.1 64.9, 24.9 77.8, 22.1 73.1 C 8.2 61.1, 80.1 21.9, 81.0 31.9 C 79.3 19.8, 52.3 54.1, 52.3 62.1 " fill="hsl(83, 65%, 44%)" fill-opacity="0.47" stroke="none" stroke-width="4.00"  transform="translate(23.5 80.5) rotate(82.5) scale(1.72 0.60)" />
<path d="M 8.6 68.9 C 5.2 77.4, 40.5 59.9, 29.3 59.9 C 32.6 63.8, 25.3 82.0, 25.4 91.3 C 8.9 89.1, 68.0 46.4, 78.6 58.7 C 78.5 53.7, 18.7 40.4, 28.9 33.3 C 32.9 16.5, 28.1 0.0, 25.6 8.7 C 34.8 11.0, 61.3 27.1, 54.9 17.1 C 59.5 3.3, 59.4 79.0, 66.3 80.6 C 80.1 69.2, 62.5 100.0, 73.7 98.5 C 91.9 100.0, 8.1 0.0, 21.7 1.4 C 40.8 0.0, 51.2 77.2, 57.2 72.1 Z" fill="none" fill-opacity="0.70" stroke="hsl(290, 83%, 63%)" stroke-width="3.55"  transform="translate(79.6 31.9) rotate(111.8) scale(1.85 1.47)" />
<rect x="36.4" y="66.5" width="45.8" height="15.1" rx="0" fill="none" fill-opacity="0.58" stroke="hsl(242, 72%, 49%)" stroke-width="2.1" filter="url(#f1)" transform="translate(16.1 77.2) rotate(61.4) scale(1.65 0.51)" />
<path d="M 66.7 29.6 C 52.2 22.6, 48.6 51.3, 45.4 47.1 C 29.1 62.1, 38.3 100.0, 25.3 95.8 C 25.4 100.0, 14.4 20.2, 7.7 34.7 C 0.0 31.8, 74.9 0.0, 87.3 6.3 C 100.0 10.5, 31.6 64.5, 21.4 79.0 C 1.8 98.2, 56.4 47.9, 43.4 54.6 C 58.5 57.3, 20.0 83.3, 32.9 81.9 C 38.8 88.3, 100.0 13.2, 92.5 1.1 C 100.0 0.0, 83.6 65.1, 77.9 77.4 C 88.6 89.2, 25.5 86.9, 34.9 80.6 Z" fill="none" fill-opacity="0.79" stroke="hsl(151, 70%, 62%)" stroke-width="1.44"  transform="translate(62.7 10.3) rotate(152.8) scale(1.16 1.33)" />
<path d="M 78.1 91.8 C 80.4 100.0, 40.8 83.9, 33.6 98.6 C 45.6 100.0, 33.3 76.2, 27.2 89.6 C 28.5 99.7, 62.6 20.2, 70.6 11.4 C 80.8 2.6, 78.8 85.0, 81.6 83.8 C 67.2 64.0, 52.7 12.6, 65.6 6.4 C 64.0 0.0, 19.7 5.2, 16.4 11.4 C 35.8 17.1, 69.5 100.0, 70.7 95.6 C 67.6 94.6, 67.2 29.7, 64.7 16.8 C 61.3 5.5, 33.2 79.3, 37.6 73.7 C 34.2 78.6, 57.6 83.6, 63.8 96.1 Z" fill="hsl(40, 53%, 69%)" fill-opacity="0.33" stroke="none" stroke-width="2.86"  transform="translate(17.6 77.1) rotate(255.6) scale(1.02 1.30)" />
<path d="M 36.8 84.7 C 24.0 84.9, 100.0 27.7, 98.5 13.1 C 100.0 28.3, 100.0 65.5, 99.2 74.4 C 93.7 82.5, 48.2 19.9, 39.8 12.3 C 57.5 7.6, 8.6 88.7, 17.7 96.5 C 28.0 96.0, 63.3 100.0, 71.6 96.9 C 79.6 100.0, 100.0 69.0, 89.0 62.7 C 99.8 82.7, 85.2 97.5, 91.6 85.5 Z" fill="none" fill-opacity="0.50" stroke="hsl(290, 83%, 63%)" stroke-width="4.53"   />
<circle cx="73.2" cy="47.8" r="16.4" fill="hsl(290, 83%, 63%)" fill-opacity="0.59"   />
<path d="M 25.2 45.0 C 6.9 31.1, 24.6 21.3, 22.3 10.7 C 37.6 18.2, 91.5 73.6, 81.5 67.6 C 88.8 56.5, 3.7 29.4, 0.6 34.6 C 0.0 44.9, 30.5 83.4, 35.3 92.9 C 47.0 86.8, 1.0 30.1, 0.1 32.5 C 0.0 26.7, 63.2 78.1, 51.9 92.9 C 66.3 77.3, 47.1 43.2, 42.3 33.1 C 59.8 44.2, 10.0 0.5, 16.2 4.3 C 8.0 0.0, 100.0 100.0, 94.1 96.8 Z" fill="hsl(183, 71%, 60%)" fill-opacity="0.31" stroke="none" stroke-width="2.29"  transform="translate(50.5 40.3) rotate(42.4) scale(0.65 1.92)" />
<circle cx="29.1" cy="46.8" r="0.8" fill="url(#g0)" fill-opacity="0.47"  transform="translate(68.9 47.2) rotate(142.2) scale(1.20 1.54)" />
<rect x="20.7" y="50.6" width="24.0" height="37.6" rx="0" fill="none" fill-opacity="0.55"   transform="translate(4.4 100.0) rotate(33.2) scale(0.82 0.79)" />
<circle cx="37.1" cy="3.3" r="6.3" fill="url(#g0)" fill-opacity="0.44"  transform="translate(49.5 56.2) rotate(78.1) scale(1.83 1.84)" />
<circle cx="19.2" cy="31.2" r="7.8" fill="hsl(322, 74%, 44%)" fill-opacity="0.56"  transform="translate(85.7 39.5) rotate(149.0) scale(1.17 0.96)" />
<path d="M 92.0 82.6 C 78.5 82.2, 18.2 12.5, 13.8 21.4 C 0.0 14.0, 68.8 74.5, 60.6 64.1 C 73.0 60.8, 1.3 92.5, 10.5 84.3 C 0.0 98.1, 10.8 36.1, 12.6 39.3 C 31.4 29.5, 26.6 0.0, 23.4 2.4 C 28.7 0.0, 56.2 57.1, 68.1 42.8 C 78.8 32.6, 50.6 78.8, 39.0 78.6 C 29.2 77.7, 28.0 0.0, 23.0 10.8 Z" fill="none" fill-opacity="0.87" stroke="hsl(151, 70%, 62%)" stroke-width="3.83"  transform="translate(29.7 37.6) rotate(233.1) scale(1.33 0.66)" />
<rect x="8.4" y="19.1" width="44.5" height="18.4" rx="0" fill="none" fill-opacity="0.28" stroke="hsl(106, 75%, 59%)" stroke-width="4.7"  transform="translate(36.1 24.1) rotate(48.9) scale(1.06 0.66)" />
<rect x="36.5" y="3.2" width="45.1" height="28.5" rx="17.1" fill="none" fill-opacity="0.21"   transform="translate(8.5 53.9) rotate(241.2) scale(1.39 1.80)" />
<path d="M 26.7 53.9 C 35.1 50.8, 80.8 84.2, 72.6 78.7 C 52.9 73.8, 100.0 94.6, 89.3 85.4 C 100.0 100.0, 31.8 4.4, 22.9 8.8 C 23.2 14.8, 26.2 0.0, 24.3 6.8 C 7.1 23.6, 74.2 14.8, 78.6 0.8 C 66.6 15.2, 40.5 45.1, 40.5 56.5 C 60.1 60.7, 9.1 8.6, 8.6 18.7 C 25.3 23.7, 61.0 47.4, 74.4 54.7 Z" fill="none" fill-opacity="0.29" stroke="hsl(322, 74%, 44%)" stroke-width="1.73" filter="url(#f1)"  />
<path d="M 52.2 88.8 C 61.2 70.0, 58.9 79.1, 48.9 83.1 C 63.1 65.4, 71.2 100.0, 69.6 96.9 C 89.3 90.7, 100.0 40.7, 99.4 39.0 C 87.6 23.7, 58.0 84.7, 55.7 76.7 C 51.5 93.0, 47.3 21.0, 43.4 25.7 C 57.9 13.7, 39.8 93.5, 31.9 91.5 Z" fill="hsl(2, 82%, 55%)" fill-opacity="0.55" stroke="none" stroke-width="5.29"  transform="translate(16.8 62.9) rotate(10.0) scale(1.30 1.72)" />
<path d="M 42.6 2.3 C 36.8 20.5, 65.2 13.1, 62.4 14.8 C 72.9 13.3, 58.3 78.6, 62.9 92.8 C 60.7 100.0, 68.4 29.9, 68.8 30.1 C 77.0 48.8, 75.9 34.4, 86.3 36.1 C 75.3 51.2, 59.8 24.2, 49.7 16.2 C 41.1 3.2, 21.8 34.5, 36.2 26.6 C 47.5 14.5, 15.6 22.4, 25.4 34.4 C 18.9 41.6, 53.1 18.5, 52.4 27.9 Z" fill="none" fill-opacity="0.48" stroke="hsl(86, 72%, 68%)" stroke-width="0.97"  transform="translate(94.9 66.4) rotate(309.2) scale(0.83 0.85)" />
<path d="M 82.5 65.1 C 83.0 78.2, 0.1 93.3, 10.5 86.8 C 5.9 84.0, 23.9 27.4, 13.3 35.8 C 32.4 47.7, 10.1 92.4, 13.0 88.1 C 28.1 71.9, 0.0 95.2, 0.3 96.9 C 17.4 100.0, 94.3 87.4, 81.8 77.5 C 92.7 93.5, 0.0 1.1, 1.4 3.8 C 0.0 0.0, 66.6 97.7, 53.6 97.3 C 36.2 100.0, 100.0 42.1, 91.0 33.2 Z" fill="hsl(242, 72%, 49%)" fill-opacity="0.32" stroke="none" stroke-width="3.74"  transform="translate(36.8 31.8) rotate(1.4) scale(0.59 1.20)" />
<rect x="54.4" y="31.1" width="42.5" height="31.3" rx="0" fill="hsl(183, 71%, 60%)" fill-opacity="0.68" stroke="hsl(183, 71%, 60%)" stroke-width="3.5"  transform="translate(36.8 48.9) rotate(43.8) scale(0.62 0.84)" />
<path d="M 45.8 80.3 C 40.1 66.4, 24.0 63.0, 22.6 66.5 C 26.6 78.2, 48.4 96.2, 54.5 81.2 C 69.6 75.3, 18.2 6.3, 6.8 0.6 C 0.0 18.9, 0.0 16.6, 0.5 8.2 C 0.0 7.4, 64.7 80.6, 78.6 66.2 C 70.7 67.9, 17.9 0.0, 13.5 0.1 C 31.3 0.0, 39.1 61.6, 33.7 59.8 C 35.2 70.1, 100.0 25.3, 97.7 25.2 C 100.0 33.0, 97.9 88.4, 92.3 89.9 C 82.0 81.7, 100.0 12.2, 94.5 16.2 Z" fill="hsl(83, 65%, 44%)" fill-opacity="0.31" stroke="none" stroke-width="5.16"  transform="translate(67.4 99.6) rotate(57.7) scale(1.52 0.76)" />
<circle cx="27.5" cy="74.8" r="5.7" fill="hsl(151, 70%, 62%)" fill-opacity="0.72"  transform="translate(12.0 97.4) rotate(76.6) scale(1.29 1.38)" />
<path d="M 3.2 88.8 C 0.0 87.9, 77.0 86.7, 62.8 90.7 C 55.9 76.6, 28.9 87.2, 31.9 90.6 C 44.4 100.0, 3.5 22.4, 11.1 34.9 C 10.2 39.6, 80.9 58.6, 81.3 44.5 C 71.4 29.5, 22.2 61.8, 26.3 60.2 C 41.6 55.4, 84.7 33.4, 78.6 39.9 Z" fill="hsl(40, 53%, 69%)" fill-opacity="0.32" stroke="none" stroke-width="4.40"  transform="translate(93.8 83.2) rotate(235.7) scale(1.40 1.91)" />
<path d="M 72.2 82.1 C 84.8 99.0, 65.0 40.4, 78.8 41.6 C 63.8 57.3, 64.7 46.9, 73.5 44.5 C 79.9 41.7, 30.0 44.5, 44.7 53.0 C 56.4 41.0, 26.1 32.1, 26.9 33.7 C 32.3 22.6, 21.9 100.0, 27.8 98.9 C 8.3 100.0, 78.8 0.0, 74.0 6.1 C 56.5 0.0, 9.2 25.6, 5.8 18.1 Z" fill="none" fill-opacity="0.87" stroke="hsl(104, 72%, 65%)" stroke-width="4.19"  transform="translate(60.8 58.0) rotate(292.9) scale(1.83 1.65)" />
<path d="M 7.9 57.2 C 4.0 69.4, 53.9 62.8, 40.1 49.8 C 49.5 46.0, 13.3 72.0, 15.4 77.1 C 10.7 61.8, 69.3 14.3, 71.6 20.8 C 73.3 9.2, 11.8 8.9, 1.1 17.0 C 6.4 28.0, 61.1 57.0, 52.0 50.0 C 60.5 45.8, 79.4 2.9, 80.0 1.7 C 88.6 6.6, 13.9 87.0, 14.2 75.0 C 21.8 87.4, 31.5 86.5, 45.9 86.3 C 44.3 90.9, 0.0 0.7, 1.8 1.0 C 0.0 11.7, 88.4 75.9, 94.8 77.6 Z" fill="hsl(106, 75%, 59%)" fill-opacity="0.57" stroke="none" stroke-width="2.69" filter="url(#f1)" transform="translate(45.1 37.0) rotate(342.8) scale(1.21 0.63)" />
<path d="M 8.2 12.6 C 23.8 4.7, 42.9 21.8, 52.0 20.4 C 65.1 7.2, 41.3 68.8, 53.6 83.3 C 54.1 91.7, 44.1 0.0, 55.0 11.8 C 35.0 8.0, 8.1 20.7, 12.8 10.0 C 28.0 26.2, 62.9 45.2, 71.5 33.6 C 63.6 49.2, 6.9 5.8, 6.0 15.3 C 9.4 17.8, 72.2 61.9, 71.6 57.0 C 84.0 49.0, 74.0 0.0, 75.1 6.3 C 57.2 0.0, 90.0 0.0, 96.4 2.4 C 100.0 0.0, 67.1 33.6, 71.2 21.0 Z" fill="hsl(322, 74%, 44%)" fill-opacity="0.40" stroke="none" stroke-width="3.98"  transform="translate(55.8 43.8) rotate(224.3) scale(1.39 0.74)" />
<path d="M 94.6 37.9 C 84.0 32.3, 47.1 16.6, 34.6 17.8 C 32.4 9.8, 27.6 94.7, 35.4 84.4 C 19.8 99.8, 75.8 97.4, 69.4 88.6 C 76.5 100.0, 26.4 100.0, 21.7 97.3 C 2.2 91.8, 44.3 22.1, 58.7 30.1 C 50.1 40.2, 83.3 14.1, 70.6 25.2 C 68.1 16.3, 45.7 20.7, 39.1 16.1 Z" fill="none" fill-opacity="0.84" stroke="hsl(2, 82%, 55%)" stroke-width="3.27"  transform="translate(61.2 87.8) rotate(58.1) scale(1.58 1.36)" />
<path d="M 36.9 22.6 C 56.2 32.8, 72.2 98.2, 76.6 97.2 C 57.6 93.2, 76.9 100.0, 64.4 93.5 C 52.1 100.0, 52.5 44.2, 45.1 44.2 C 65.1 34.1, 70.8 21.7, 56.3 7.0 C 57.3 2.3, 38.2 19.5, 45.1 27.7 C 26.1 44.2, 33.0 31.2, 36.4 26.1 Z" fill="none" fill-opacity="0.60" stroke="hsl(40, 53%, 69%)" stroke-width="5.24"  transform="translate(12.1 41.5) rotate(155.8) scale(1.32 1.86)" />
<circle cx="5.4" cy="94.8" r="16.5" fill="url(#g1)" fill-opacity="0.45"  transform="translate(43.5 95.0) rotate(128.2) scale(0.82 0.88)" />
<path d="M 17.6 89.2 C 4.0 100.0, 77.6 75.7, 76.5 78.9 C 70.9 65.2, 34.0 81.7, 33.0 81.1 C 27.2 97.5, 77.3 44.7, 66.6 40.4 C 55.4 53.7, 27.7 43.5, 30.5 46.7 C 36.0 66.7, 28.0 100.0, 32.2 97.0 C 20.7 100.0, 43.3 100.0, 31.0 99.7 C 50.5 100.0, 3.8 34.4, 16.7 24.2 C 11.6 9.4, 71.4 34.3, 83.4 36.1 C 96.5 40.3, 100.0 53.8, 99.7 43.6 C 100.0 40.1, 14.8 43.0, 9.2 38.2 Z" fill="hsl(104, 72%, 65%)" fill-opacity="0.48" stroke="none" stroke-width="4.62"   />
<circle cx="14.1" cy="47.3" r="6.3" fill="hsl(290, 83%, 63%)" fill-opacity="0.93"  transform="translate(68.4 12.9) rotate(147.5) scale(0.52 0.62)" />
<path d="M 33.6 74.8 C 46.0 64.9, 90.2 90.4, 84.6 87.3 C 77.1 86.0, 42.5 98.7, 39.8 89.2 C 27.0 80.3, 22.5 66.1, 32.2 73.7 C 34.8 76.7, 8.4 0.0, 10.8 13.9 C 17.1 0.0, 54.8 9.6, 54.7 23.4 C 72.3 6.3, 85.1 100.0, 87.1 97.2 C 90.2 88.8, 29.2 48.1, 22.1 45.9 Z" fill="hsl(183, 71%, 60%)" fill-opacity="0.35" stroke="none" stroke-width="0.99" filter="url(#f1)" transform="translate(21.2 18.7) rotate(55.3) scale(0.66 1.30)" />
<circle cx="85.8" cy="31.4" r="9.8" fill="url(#g1)" fill-opacity="0.54"  transform="translate(18.9 94.6) rotate(136.9) scale(0.79 1.93)" />
<path d="M 62.6 78.2 C 49.7 88.1, 9.9 3.4, 13.2 9.7 C 27.1 0.0, 47.4 50.2, 46.4 41.1 C 66.1 46.7, 63.1 78.8, 64.3 91.6 C 66.1 100.0, 75.8 41.3, 65.1 29.3 C 82.5 9.7, 0.0 65.3, 2.6 75.9 C 0.0 69.5, 0.0 56.5, 10.8 45.4 Z" fill="hsl(151, 70%, 62%)" fill-opacity="0.43" stroke="none" stroke-width="4.86"   />
<path d="M 81.3 60.1 C 91.8 80.0, 0.0 72.8, 1.6 80.7 C 11.8 61.2, 95.0 69.8, 92.1 67.3 C 83.1 84.9, 17.4 20.8, 30.2 33.3 C 39.6 50.1, 20.8 93.6, 31.7 79.9 C 28.6 76.0, 78.8 77.2, 82.4 74.6 C 66.8 91.5, 40.2 10.4, 44.8 12.0 C 40.8 6.9, 9.3 53.7, 0.7 62.8 Z" fill="hsl(40, 53%, 69%)" fill-opacity="0.90" stroke="none" stroke-width="1.60"  transform="translate(56.5 94.0) rotate(325.4) scale(0.96 1.93)" />
<path d="M 77.1 84.4 C 62.0 85.5, 14.5 21.9, 17.4 31.0 C 27.4 39.5, 23.2 38.6, 33.8 53.5 C 45.7 46.8, 32.9 39.5, 20.8 42.9 C 30.1 41.2, 21.5 91.0, 12.8 97.7 C 18.9 100.0, 23.5 80.5, 15.8 93.0 C 9.8 89.6, 33.3 92.0, 22.5 87.2 C 9.3 100.0, 0.0 47.1, 9.0 54.6 C 0.0 39.3, 94.7 74.8, 83.8 74.6 C 86.9 86.8, 45.2 36.4, 37.3 30.1 C 34.4 34.6, 47.8 1.5, 38.2 6.9 Z" fill="none" fill-opacity="0.63" stroke="hsl(144, 86%, 72%)" stroke-width="4.11"  transform="translate(29.1 60.4) rotate(80.4) scale(1.42 1.65)" />
<circle cx="58.4" cy="21.6" r="1.7" fill="hsl(322, 74%, 44%)" fill-opacity="0.82" filter="url(#f1)" transform="translate(30.9 23.7) rotate(181.2) scale(1.03 0.81)" />
<circle cx="42.7" cy="69.9" r="14.5" fill="hsl(290, 83%, 63%)" fill-opacity="0.77"  transform="translate(67.0 72.0) rotate(338.3) scale(1.28 1.28)" />
<path d="M 92.0 67.9 C 85.6 67.9, 72.9 53.4, 87.8 54.4 C 81.8 65.1, 52.4 48.6, 43.4 47.1 C 46.4 28.6, 36.0 85.0, 21.7 77.1 C 31.2 83.3, 87.9 93.7, 90.0 95.7 C 93.2 100.0, 100.0 26.6, 98.6 18.7 C 100.0 22.5, 34.7 1.5, 33.0 9.6 C 22.4 12.5, 61.3 30.6, 72.9 36.6 C 74.9 33.6, 6.5 64.8, 8.2 61.8 Z" fill="hsl(144, 86%, 72%)" fill-opacity="0.99" stroke="none" stroke-width="4.81"  transform="translate(80.8 72.5) rotate(194.7) scale(1.73 1.54)" />
<circle cx="31.7" cy="30.7" r="14.4" fill="url(#g1)" fill-opacity="0.72" filter="url(#f1)"  />
<path d="M 84.0 86.1 C 75.2 99.9, 76.8 67.8, 83.3 78.2 C 74.0 78.1, 49.1 32.1, 52.7 23.4 C 33.0 37.3, 63.9 58.0, 63.7 53.6 C 48.9 35.8, 60.0 11.9, 49.5 15.1 C 48.8 26.8, 100.0 89.1, 91.7 84.2 C 76.9 83.7, 76.7 65.4, 62.0 54.8 C 43.7 56.0, 59.3 40.4, 69.8 45.4 C 51.0 62.8, 49.1 58.9, 39.0 55.8 Z" fill="hsl(106, 75%, 59%)" fill-opacity="0.30" stroke="none" stroke-width="4.83" filter="url(#f1)" transform="translate(90.6 2.1) rotate(188.8) scale(1.68 0.58)" />
<path d="M 40.6 25.5 C 46.9 33.0, 79.8 18.9, 74.2 24.0 C 77.7 15.8, 60.3 86.2, 52.2 97.7 C 37.3 92.5, 39.8 91.3, 53.6 84.6 C 45.9 66.5, 48.9 76.0, 36.2 74.4 C 26.2 57.2, 46.9 94.0, 54.9 87.2 C 38.8 70.2, 82.1 32.4, 96.6 20.9 C 84.5 34.6, 7.9 38.5, 4.1 51.4 C 0.0 41.3, 19.6 87.0, 30.2 84.7 C 38.0 92.3, 76.6 12.1, 85.3 26.9 Z" fill="none" fill-opacity="0.64" stroke="hsl(40, 53%, 69%)" stroke-width="3.58"  transform="translate(44.1 30.7) rotate(143.8) scale(1.31 1.21)" />
<path d="M 74.8 77.5 C 92.7 57.8, 0.0 91.9, 7.6 99.8 C 0.0 89.8, 39.5 61.4, 25.0 72.4 C 15.7 74.8, 55.6 43.2, 69.8 38.3 C 82.8 20.9, 70.1 0.0, 77.1 11.0 C 81.9 18.1, 75.5 61.0, 75.6 75.9 C 81.0 60.2, 60.4 9.3, 68.7 21.4 C 68.4 4.9, 76.9 45.7, 88.5 45.2 C 95.0 25.5, 48.8 48.1, 36.1 45.1 C 16.5 46.8, 24.8 13.5, 11.8 0.5 Z" fill="none" fill-opacity="0.41" stroke="hsl(183, 71%, 60%)" stroke-width="1.06"  transform="translate(93.5 73.6) rotate(183.0) scale(0.68 1.59)" />
<path d="M 56.7 93.3 C 68.4 82.8, 65.8 0.0, 71.9 4.5 C 85.6 10.2, 63.6 42.2, 50.0 29.4 C 32.2 38.8, 56.9 10.4, 53.4 19.6 C 51.8 25.5, 78.5 99.0, 75.2 98.9 C 92.9 81.3, 40.2 25.9, 51.3 37.1 C 39.5 44.0, 95.7 98.8, 89.2 99.6 C 74.5 100.0, 66.6 41.8, 69.7 27.5 C 71.2 42.4, 91.7 23.9, 93.0 14.6 C 77.0 24.1, 74.5 67.4, 81.9 72.7 " fill="none" fill-opacity="0.54" stroke="hsl(242, 72%, 49%)" stroke-width="2.67"  transform="translate(6.4 66.6) rotate(302.8) scale(0.62 1.49)" />
<path d="M 31.9 62.5 C 35.3 77.9, 21.5 12.1, 7.9 19.8 C 6.6 4.9, 29.1 58.4, 36.0 46.9 C 17.1 33.3, 37.3 85.3, 33.5 92.8 C 19.8 100.0, 21.8 29.8, 33.2 17.3 C 17.4 25.1, 90.0 44.6, 80.1 46.2 C 70.1 53.2, 36.5 52.4, 50.3 55.3 Z" fill="none" fill-opacity="0.74" stroke="hsl(322, 74%, 44%)" stroke-width="1.48"  transform="translate(68.3 30.7) rotate(83.5) scale(1.55 1.41)" />
<path d="M 70.4 12.7 C 80.0 22.8, 29.6 55.9, 39.5 59.0 C 38.0 50.3, 68.3 12.9, 58.4 21.4 C 77.3 28.5, 16.0 51.8, 19.1 47.8 C 27.2 63.9, 24.1 25.6, 12.2 13.2 C 31.0 0.0, 26.5 86.8, 22.0 85.0 C 17.3 91.6, 21.5 32.2, 13.0 30.6 Z" fill="hsl(40, 53%, 69%)" fill-opacity="0.65" stroke="none" stroke-width="4.85"  transform="translate(0.3 85.4) rotate(163.2) scale(0.91 0.67)" />
<rect x="10.3" y="14.6" width="39.4" height="20.6" rx="4.2" fill="hsl(183, 71%, 60%)" fill-opacity="0.87"   transform="translate(63.9 94.6) rotate(34.1) scale(0.77 1.21)" />
<path d="M 13.2 95.0 C 17.9 100.0, 0.0 92.7, 3.1 96.9 C 0.0 100.0, 24.6 55.5, 13.0 66.2 C 17.2 61.8, 32.7 34.7, 37.8 45.0 C 19.4 54.0, 16.9 97.5, 5.9 94.6 C 13.0 91.8, 64.2 72.4, 58.1 57.9 C 77.3 64.0, 18.9 2.0, 6.1 4.7 C 24.1 3.2, 78.8 46.3, 79.9 55.4 C 69.8 65.7, 100.0 66.6, 90.0 78.4 C 100.0 65.4, 0.0 100.0, 9.2 97.8 C 3.3 96.7, 48.5 54.3, 59.6 39.5 Z" fill="hsl(106, 75%, 59%)" fill-opacity="0.92" stroke="none" stroke-width="2.13"  transform="translate(35.6 81.6) rotate(205.7) scale(1.98 1.94)" />
<circle cx="35.3" cy="60.2" r="0.4" fill="url(#g2)" fill-opacity="0.54"  transform="translate(14.3 37.3) rotate(187.1) scale(0.82 0.87)" />
<path d="M 19.2 22.6 C 32.5 29.9, 22.0 73.9, 27.1 66.1 C 44.3 75.0, 37.8 64.2, 45.7 57.2 C 60.3 50.7, 87.9 63.9, 86.5 69.9 C 70.6 89.0, 46.9 5.3, 54.6 7.6 C 56.9 20.8, 81.9 73.1, 74.5 69.5 C 79.4 80.8, 60.1 36.6, 67.8 40.4 C 81.0 30.1, 78.7 65.9, 64.3 64.4 C 60.5 77.6, 46.5 54.4, 46.0 53.6 Z" fill="hsl(106, 75%, 59%)" fill-opacity="0.79" stroke="none" stroke-width="4.15" filter="url(#f1)" transform="translate(94.2 46.9) rotate(37.3) scale(0.72 1.15)" />
<path d="M 68.8 56.7 C 69.6 43.0, 0.0 52.4, 0.6 48.3 C 0.0 39.7, 80.7 47.6, 77.9 41.9 C 74.2 53.8, 22.3 74.9, 8.0 80.5 C 8.3 97.7, 36.8 41.5, 25.7 50.6 C 35.1 38.6, 15.7 22.7, 1.3 27.2 C 11.5 12.3, 12.0 95.9, 7.7 88.0 C 6.1 83.3, 37.4 73.3, 26.5 59.3 C 26.1 63.2, 0.0 79.0, 7.7 77.5 C 0.0 89.8, 50.5 26.5, 56.4 23.0 Z" fill="hsl(83, 65%, 44%)" fill-opacity="0.67" stroke="none" stroke-width="4.24"  transform="translate(72.8 51.4) rotate(207.9) scale(0.79 1.02)" />
<path d="M 36.5 93.8 C 47.8 100.0, 41.9 43.3, 32.4 56.4 C 34.0 46.8, 0.0 35.0, 1.4 46.3 C 10.8 43.5, 85.3 78.8, 77.8 93.4 C 81.6 88.2, 12.4 100.0, 24.3 90.2 C 19.7 84.6, 93.8 23.4, 91.6 20.1 C 97.6 24.4, 2.7 64.8, 2.4 58.9 C 0.0 40.4, 14.5 20.3, 17.8 17.1 C 5.5 15.2, 44.8 97.5, 31.5 91.8 C 43.3 88.4, 92.7 90.2, 93.9 86.7 Z" fill="none" fill-opacity="0.88" stroke="hsl(242, 72%, 49%)" stroke-width="1.94"   />
<path d="M 67.7 41.3 C 79.4 28.7, 10.2 2.5, 19.9 16.8 C 17.4 9.3, 69.9 37.5, 58.3 30.5 C 69.4 32.8, 50.2 12.5, 57.5 10.2 C 67.0 0.0, 100.0 4.1, 96.8 0.2 C 84.9 0.0, 12.6 21.4, 18.5 34.3 C 24.8 21.3, 68.6 19.1, 69.5 19.9 C 67.3 23.6, 61.3 19.4, 59.3 33.7 C 62.2 52.0, 0.2 26.5, 14.4 28.5 C 14.7 35.4, 41.0 82.6, 49.6 76.3 C 31.8 88.6, 99.0 21.4, 89.2 12.0 Z" fill="hsl(144, 86%, 72%)" fill-opacity="0.89" stroke="none" stroke-width="2.71"  transform="translate(10.6 11.5) rotate(250.8) scale(1.28 1.22)" />
<rect x="29.3" y="34.6" width="25.8" height="35.9" rx="0" fill="hsl(2, 82%, 55%)" fill-opacity="0.30"   transform="translate(40.5 75.9) rotate(101.3) scale(1.89 1.89)" />
<path d="M 33.6 42.9 C 38.7 43.6, 78.0 93.5, 91.6 80.9 C 74.4 96.6, 45.4 4.2, 49.0 1.7 C 46.8 21.0, 72.1 30.3, 80.7 18.4 C 91.7 9.2, 0.0 31.9, 2.4 22.0 C 16.1 2.1, 79.9 44.3, 75.2 45.1 C 87.4 49.2, 0.0 61.7, 11.6 67.3 C 13.6 49.5, 68.7 76.8, 67.1 68.0 C 64.7 52.1, 62.6 11.7, 71.0 14.6 C 78.2 6.1, 89.9 23.1, 84.6 27.5 Z" fill="hsl(40, 53%, 69%)" fill-opacity="0.81" stroke="none" stroke-width="4.40"  transform="translate(24.1 93.9) rotate(198.9) scale(1.23 0.91)" />
<path d="M 98.7 44.3 C 85.0 39.6, 66.1 50.2, 63.5 52.9 C 68.6 44.5, 62.1 52.3, 56.8 61.8 C 48.3 43.3, 83.2 14.7, 75.9 17.0 C 83.1 10.4, 81.4 41.7, 76.3 28.0 C 89.8 27.5, 78.0 54.4, 68.4 61.2 C 87.4 47.4, 13.1 89.1, 2.0 84.3 C 7.2 88.0, 74.5 42.6, 87.3 57.2 Z" fill="hsl(290, 83%, 63%)" fill-opacity="0.81" stroke="none" stroke-width="3.57"  transform="translate(61.6 68.7) rotate(23.8) scale(0.57 0.55)" />
<circle cx="27.0" cy="89.5" r="0.8" fill="hsl(322, 74%, 44%)" fill-opacity="0.82"  transform="translate(30.8 70.4) rotate(116.4) scale(0.85 1.39)" />
<path d="M 56.1 0.4 C 44.6 0.0, 17.3 82.0, 17.6 94.7 C 6.3 98.5, 4.9 96.4, 14.6 99.8 C 0.0 100.0, 45.1 54.3, 45.6 42.7 C 36.7 61.8, 17.0 2.9, 25.2 15.5 C 17.3 18.0, 34.4 58.4, 33.9 62.5 C 46.5 56.0, 44.6 54.2, 45.1 64.3 Z" fill="hsl(183, 71%, 60%)" fill-opacity="0.73" stroke="none" stroke-width="2.93"  transform="translate(15.9 3.9) rotate(165.6) scale(0.92 0.89)" />
<rect x="38.7" y="12.5" width="42.6" height="39.6" rx="0" fill="hsl(106, 75%, 59%)" fill-opacity="0.69"    />
<rect x="43.2" y="16.2" width="49.1" height="26.4" rx="0" fill="none" fill-opacity="0.39" stroke="hsl(106, 75%, 59%)" stroke-width="4.1" filter="url(#f1)" transform="translate(1.7 60.3) rotate(42.5) scale(0.50 1.51)" />
<rect x="8.4" y="31.7" width="25.5" height="23.3" rx="8.7" fill="none" fill-opacity="0.91"    />
<circle cx="83.7" cy="32.4" r="2.5" fill="hsl(242, 72%, 49%)" fill-opacity="0.81"  transform="translate(50.1 87.4) rotate(5.2) scale(0.91 1.40)" />
<path d="M 73.4 83.8 C 71.8 88.7, 90.3 76.5, 78.4 69.0 C 93.8 68.3, 0.0 0.0, 5.4 11.9 C 0.4 3.2, 0.0 59.3, 5.0 68.2 C 0.0 49.3, 24.8 5.9, 21.2 11.8 C 18.1 28.4, 49.1 8.2, 43.9 9.4 C 52.8 0.0, 89.3 67.8, 83.2 81.2 C 88.0 90.4, 88.4 67.9, 76.7 53.6 C 68.9 65.3, 69.8 86.9, 65.3 80.1 C 54.0 70.6, 63.4 50.6, 52.3 40.0 C 66.4 31.5, 14.4 5.4, 10.7 0.3 Z" fill="none" fill-opacity="0.43" stroke="hsl(322, 74%, 44%)" stroke-width="0.83"  transform="translate(43.6 23.3) rotate(130.6) scale(0.59 1.65)" />
<rect x="71.8" y="6.0" width="20.8" height="28.8" rx="0" fill="hsl(86, 72%, 68%)" fill-opacity="0.32"   transform="translate(68.6 44.5) rotate(232.6) scale(0.66 1.43)" />
<path d="M 47.5 9.6 C 53.7 0.9, 34.1 49.5, 48.4 55.9 C 55.5 54.9, 44.0 8.0, 29.0 12.1 C 11.8 29.5, 59.0 16.2, 45.5 1.4 C 46.6 0.0, 79.5 23.6, 81.7 11.0 C 98.2 0.0, 72.1 57.2, 84.4 48.8 C 74.2 63.8, 21.5 0.0, 14.0 5.1 C 10.8 20.6, 72.3 92.9, 86.1 78.5 Z" fill="none" fill-opacity="0.69" stroke="hsl(242, 72%, 49%)" stroke-width="3.74"  transform="translate(92.4 64.8) rotate(48.4) scale(1.60 1.55)" />
<path d="M 64.7 46.1 C 80.1 66.1, 86.0 81.3, 73.9 82.5 C 56.4 89.8, 52.8 92.6, 51.5 78.2 C 61.6 96.5, 48.0 38.3, 61.7 48.9 C 57.5 68.5, 82.3 70.0, 82.7 58.2 C 85.9 66.0, 79.7 17.5, 80.1 17.2 C 78.9 36.3, 12.9 80.9, 11.1 81.6 C 15.8 98.5, 94.5 65.0, 83.2 78.3 C 72.3 70.5, 43.2 62.4, 37.4 76.8 Z" fill="none" fill-opacity="0.61" stroke="hsl(183, 71%, 60%)" stroke-width="3.75"  transform="translate(50.0 86.7) rotate(92.9) scale(0.57 1.27)" />
<rect x="40.7" y="14.2" width="42.9" height="38.0" rx="0" fill="hsl(183, 71%, 60%)" fill-opacity="0.61" stroke="hsl(322, 74%, 44%)" stroke-width="3.1"   />
<rect x="71.3" y="74.4" width="27.6" height="22.0" rx="0" fill="hsl(2, 82%, 55%)" fill-opacity="0.92"   transform="translate(74.2 88.5) rotate(11.2) scale(1.62 1.08)" />
<rect x="35.6" y="49.7" width="30.6" height="13.3" rx="0" fill="none" fill-opacity="0.43"   transform="translate(99.2 19.2) rotate(332.5) scale(1.20 1.61)" />
<path d="M 27.7 79.0 C 22.5 78.1, 34.5 0.0, 46.1 5.9 C 29.3 21.6, 54.3 88.9, 67.5 87.0 C 72.6 84.1, 0.0 32.3, 5.7 17.7 C 0.3 26.2, 73.1 8.4, 58.8 16.7 C 49.6 6.4, 24.7 61.0, 34.2 61.7 C 18.2 66.5, 13.9 66.9, 23.5 64.5 C 20.7 83.8, 61.7 21.5, 59.3 35.7 C 57.8 30.4, 70.7 69.3, 59.6 70.1 Z" fill="hsl(290, 83%, 63%)" fill-opacity="0.40" stroke="none" stroke-width="1.78"  transform="translate(63.4 39.2) rotate(158.1) scale(0.98 1.19)" />
<path d="M 12.1 91.2 C 13.5 84.4, 86.9 28.0, 85.7 15.3 C 71.6 3.5, 76.3 40.5, 68.9 46.8 C 83.2 55.9, 40.4 81.9, 35.7 75.2 C 49.2 73.6, 30.8 69.6, 27.2 66.2 C 21.2 78.8, 7.5 64.4, 15.3 77.2 C 26.4 93.7, 34.4 71.3, 37.3 67.2 C 57.1 53.5, 41.1 73.5, 38.7 64.1 C 53.7 77.2, 35.8 40.8, 30.5 49.4 C 33.0 43.6, 74.5 41.6, 83.1 46.6 Z" fill="hsl(83, 65%, 44%)" fill-opacity="0.41" stroke="none" stroke-width="3.12"  transform="translate(29.4 6.8) rotate(285.0) scale(0.95 0.72)" />
<path d="M 86.5 86.4 C 99.0 100.0, 52.3 43.1, 39.3 33.9 C 31.8 42.5, 81.2 54.7, 84.4 41.3 C 86.5 46.8, 100.0 15.4, 99.2 29.5 C 100.0 45.5, 54.4 83.7, 44.4 96.2 C 44.3 87.8, 17.1 47.4, 27.6 36.3 C 11.6 29.7, 14.1 80.8, 26.4 67.8 C 23.8 54.1, 0.0 56.8, 13.5 53.7 C 15.0 43.6, 79.7 0.7, 94.6 13.6 C 83.0 0.0, 63.2 84.3, 65.7 70.2 " fill="hsl(144, 86%, 72%)" fill-opacity="0.70" stroke="none" stroke-width="1.33"  transform="translate(73.7 95.9) rotate(62.2) scale(0.91 1.95)" />
<path d="M 26.9 16.8 C 35.0 20.9, 20.4 95.5, 30.5 93.4 C 25.5 100.0, 57.7 7.7, 58.7 10.4 C 69.8 13.1, 50.4 66.1, 63.0 69.0 C 67.1 72.1, 58.5 19.3, 49.1 13.8 C 32.2 21.1, 48.7 24.2, 41.0 22.1 C 40.1 33.6, 12.1 21.3, 15.6 23.6 Z" fill="hsl(290, 83%, 63%)" fill-opacity="0.30" stroke="none" stroke-width="1.54"  transform="translate(94.0 90.3) rotate(320.5) scale(0.86 0.62)" />
<path d="M 56.0 81.3 C 49.3 83.9, 51.4 80.0, 59.9 84.0 C 69.8 92.9, 81.7 49.5, 91.0 38.3 C 98.3 45.2, 77.9 33.7, 71.6 28.7 C 82.6 43.5, 100.0 82.1, 93.3 76.8 C 76.3 90.2, 54.3 47.5, 51.8 57.5 C 65.0 50.3, 100.0 98.8, 90.3 85.2 C 87.1 86.8, 96.9 52.3, 93.1 63.0 Z" fill="hsl(83, 65%, 44%)" fill-opacity="0.73" stroke="none" stroke-width="5.24"  transform="translate(86.5 66.3) rotate(173.6) scale(1.14 1.42)" />
<rect x="11.7" y="26.1" width="37.6" height="34.8" rx="0" fill="hsl(151, 70%, 62%)" fill-opacity="0.46"  filter="url(#f1)" transform="translate(9.1 86.2) rotate(67.4) scale(1.00 0.62)" />
<path d="M 84.8 95.5 C 68.2 78.6, 93.9 24.5, 93.6 12.6 C 96.7 6.8, 72.1 74.0, 82.1 82.7 C 70.0 89.8, 25.2 24.6, 21.2 10.0 C 31.7 0.7, 85.0 63.8, 87.3 73.7 C 80.6 86.6, 23.5 77.9, 11.0 70.5 C 4.8 50.8, 0.0 68.3, 7.8 82.4 C 6.2 81.7, 54.6 72.5, 41.2 77.7 C 36.7 62.1, 50.8 37.4, 48.7 29.7 C 68.7 39.8, 77.6 43.9, 77.0 52.7 Z" fill="hsl(242, 72%, 49%)" fill-opacity="0.42" stroke="none" stroke-width="0.80"  transform="translate(95.0 72.7) rotate(171.0) scale(1.64 1.50)" />
<rect x="7.9" y="24.8" width="30.7" height="39.1" rx="7.8" fill="none" fill-opacity="0.67"   transform="translate(26.9 5.9) rotate(234.5) scale(1.80 1.64)" />
<rect x="1.0" y="47.0" width="45.7" height="32.8" rx="0" fill="none" fill-opacity="0.44" stroke="hsl(83, 65%, 44%)" stroke-width="1.2"  transform="translate(14.7 87.4) rotate(121.3) scale(1.12 1.37)" />
<path d="M 33.4 60.5 C 50.8 60.2, 9.5 0.9, 4.7 5.0 C 10.3 15.6, 92.6 78.3, 86.7 77.9 C 72.8 92.8, 54.4 45.6, 51.5 42.9 C 69.2 51.6, 87.3 36.2, 73.9 38.8 C 61.5 54.9, 0.0 33.7, 2.0 40.2 C 0.0 23.6, 87.0 48.3, 97.1 55.0 C 90.7 71.3, 44.7 62.7, 39.9 59.8 Z" fill="hsl(144, 86%, 72%)" fill-opacity="0.34" stroke="none" stroke-width="4.42"  transform="translate(11.1 26.2) rotate(316.7) scale(1.09 1.18)" />
<path d="M 68.9 49.8 C 69.9 66.6, 77.8 73.3, 92.1 87.0 C 100.0 97.1, 1.3 84.6, 0.0 75.4 C 11.1 62.3, 20.0 70.4, 17.1 70.8 C 3.2 71.0, 8.0 49.3, 6.6 53.2 C 12.9 38.2, 83.9 81.0, 80.7 86.9 C 76.4 67.0, 41.6 24.3, 37.3 16.5 C 49.6 27.6, 31.8 81.5, 38.1 90.9 C 33.8 74.6, 4.5 52.6, 13.1 39.5 C 0.6 45.3, 53.1 50.2, 44.6 43.6 Z" fill="hsl(40, 53%, 69%)" fill-opacity="0.61" stroke="none" stroke-width="1.20"  transform="translate(43.9 81.3) rotate(192.5) scale(0.69 0.86)" />
<path d="M 44.2 53.3 C 46.4 44.6, 40.0 70.0, 37.3 73.9 C 56.4 78.6, 11.9 34.1, 0.6 38.0 C 5.6 52.0, 49.4 56.0, 34.5 45.3 C 20.7 30.6, 85.3 82.9, 79.5 76.6 C 61.4 64.8, 77.7 34.9, 66.8 30.5 C 58.1 42.5, 66.1 79.8, 72.4 76.1 C 88.2 87.3, 77.4 79.4, 89.4 89.1 " fill="hsl(83, 65%, 44%)" fill-opacity="0.31" stroke="none" stroke-width="5.16"  transform="translate(47.3 20.1) rotate(7.3) scale(1.44 1.87)" />
<path d="M 97.2 64.6 C 100.0 51.1, 32.8 42.1, 37.7 56.0 C 35.6 66.3, 84.9 40.4, 77.3 37.1 C 81.2 39.7, 23.6 0.0, 10.4 0.9 C 16.5 0.0, 23.1 13.3, 20.8 21.9 C 39.9 5.2, 80.7 5.1, 77.1 19.8 C 85.6 14.2, 35.1 90.7, 44.5 78.7 C 36.2 64.0, 61.8 14.5, 63.4 26.1 C 68.7 15.1, 48.2 97.9, 41.6 86.2 C 37.7 87.0, 35.4 76.2, 39.5 68.7 " fill="hsl(151, 70%, 62%)" fill-opacity="0.35" stroke="none" stroke-width="3.16"  transform="translate(15.5 45.9) rotate(67.5) scale(1.97 0.64)" />
<path d="M 84.4 38.5 C 94.3 53.8, 80.2 12.3, 88.8 26.7 C 78.5 13.5, 82.0 21.3, 86.6 8.8 C 72.2 5.7, 11.9 72.3, 24.7 70.8 C 21.9 89.3, 46.6 31.0, 38.5 37.5 C 52.9 56.9, 13.1 70.2, 23.2 75.6 C 19.4 76.0, 51.1 68.7, 37.9 75.4 Z" fill="hsl(83, 65%, 44%)" fill-opacity="0.39" stroke="none" stroke-width="0.86"  transform="translate(76.4 75.7) rotate(308.9) scale(0.83 1.87)" />
<circle cx="40.5" cy="73.9" r="8.4" fill="url(#g2)" fill-opacity="0.61"  transform="translate(71.0 87.0) rotate(154.2) scale(1.74 1.19)" />
<path d="M 59.2 79.1 C 74.9 67.2, 19.2 15.7, 14.0 22.4 C 19.7 34.2, 12.1 61.6, 23.7 52.4 C 30.1 57.9, 42.7 11.4, 57.7 12.3 C 46.6 0.1, 45.8 0.0, 37.7 0.9 C 39.0 7.4, 0.2 73.9, 2.8 72.0 C 9.6 82.9, 50.2 76.7, 58.8 63.8 Z" fill="hsl(151, 70%, 62%)" fill-opacity="0.82" stroke="none" stroke-width="3.21"  transform="translate(6.7 2.5) rotate(130.6) scale(1.50 1.73)" />
<path d="M 39.0 94.3 C 41.7 100.0, 14.0 58.1, 14.7 66.5 C 21.9 72.6, 64.3 15.9, 76.9 12.8 C 89.1 16.4, 18.3 11.4, 21.2 13.6 C 3.2 0.0, 32.9 60.2, 29.3 72.6 C 47.1 81.3, 7.7 33.2, 7.1 39.3 C 18.0 44.8, 46.7 88.5, 36.0 92.6 C 55.7 100.0, 18.6 33.1, 30.8 29.3 Z" fill="hsl(86, 72%, 68%)" fill-opacity="0.63" stroke="none" stroke-width="3.53"  transform="translate(65.2 29.0) rotate(0.6) scale(1.82 1.65)" />
<path d="M 63.7 7.4 C 45.7 15.7, 38.1 78.5, 48.6 84.2 C 43.2 71.2, 21.0 66.1, 11.6 58.0 C 8.5 40.8, 68.1 13.2, 65.3 7.7 C 64.3 27.3, 88.2 81.1, 92.8 91.6 C 100.0 72.4, 10.0 26.9, 17.0 35.4 C 10.0 36.5, 32.8 10.5, 46.0 21.4 Z" fill="none" fill-opacity="0.54" stroke="hsl(183, 71%, 60%)" stroke-width="3.16" filter="url(#f1)" transform="translate(95.9 14.4) rotate(101.6) scale(0.63 0.83)" />
<rect x="17.3" y="9.6" width="27.1" height="16.4" rx="0" fill="none" fill-opacity="0.88"   transform="translate(75.7 32.9) rotate(217.8) scale(1.66 0.51)" />
<path d="M 98.5 1.8 C 100.0 9.1, 88.1 3.1, 87.8 5.7 C 97.4 6.9, 0.0 15.2, 3.8 1.0 C 11.4 13.1, 27.7 2.5, 20.2 15.6 C 24.7 11.8, 22.1 82.8, 36.6 68.9 C 44.4 58.8, 58.2 71.9, 43.4 81.6 C 50.9 70.2, 64.3 32.4, 60.6 44.2 C 45.8 62.4, 42.3 92.9, 36.2 79.8 C 21.1 77.5, 69.3 21.9, 57.1 20.7 C 66.6 40.6, 10.0 29.2, 7.2 14.4 C 15.9 9.7, 51.3 12.7, 45.9 17.2 Z" fill="none" fill-opacity="0.65" stroke="hsl(40, 53%, 69%)" stroke-width="1.54"   />
<path d="M 62.4 60.1 C 59.3 41.6, 100.0 100.0, 99.9 94.9 C 90.7 100.0, 92.2 55.5, 87.0 40.7 C 77.8 32.1, 13.2 83.8, 27.2 82.6 C 25.3 92.0, 100.0 21.1, 98.8 20.8 C 100.0 28.9, 59.4 100.0, 72.9 100.0 C 90.1 93.3, 72.4 77.2, 57.7 85.5 C 66.9 94.8, 5.1 47.5, 14.6 41.5 C 24.3 53.6, 32.6 54.2, 31.3 67.2 " fill="none" fill-opacity="0.77" stroke="hsl(242, 72%, 49%)" stroke-width="0.98"  transform="translate(56.4 48.4) rotate(217.2) scale(1.19 1.03)" />
<rect x="31.2" y="39.2" width="37.0" height="23.1" rx="0" fill="hsl(40, 53%, 69%)" fill-opacity="0.65"   transform="translate(9.5 94.9) rotate(76.8) scale(1.65 0.56)" />
<path d="M 24.6 0.6 C 7.0 0.0, 64.4 15.5, 64.3 21.8 C 66.3 37.7, 15.6 32.8, 9.0 23.3 C 23.5 6.7, 60.2 21.3, 57.6 30.7 C 53.1 27.4, 61.6 86.5, 50.2 78.8 C 50.8 77.5, 78.6 60.3, 76.0 68.9 C 76.0 79.1, 0.3 47.2, 5.0 41.8 C 0.5 50.0, 36.4 33.2, 36.4 45.6 C 38.1 26.8, 25.3 62.3, 15.7 76.9 Z" fill="hsl(322, 74%, 44%)" fill-opacity="0.45" stroke="none" stroke-width="1.94"  transform="translate(19.9 30.8) rotate(275.5) scale(1.07 1.71)" />
<circle cx="39.4" cy="87.1" r="4.6" fill="hsl(290, 83%, 63%)" fill-opacity="0.65"  transform="translate(13.4 78.1) rotate(309.5) scale(1.37 1.13)" />
<circle cx="3.5" cy="45.8" r="2.2" fill="hsl(322, 74%, 44%)" fill-opacity="0.61"  transform="translate(46.2 72.3) rotate(26.6) scale(0.75 1.25)" />
<circle cx="53.6" cy="49.3" r="0.9" fill="hsl(104, 72%, 65%)" fill-opacity="0.85"  transform="translate(0.5 20.0) rotate(358.8) scale(1.23 1.35)" />
<circle cx="68.7" cy="88.5" r="7.3" fill="hsl(183, 71%, 60%)" fill-opacity="0.44"  transform="translate(40.7 62.1) rotate(179.9) scale(1.15 1.88)" />
<circle cx="30.5" cy="62.2" r="5.3" fill="url(#g0)" fill-opacity="0.58"  transform="translate(31.1 2.9) rotate(111.8) scale(1.24 1.37)" />
<rect x="19.4" y="49.8" width="40.1" height="21.2" rx="0" fill="none" fill-opacity="0.35" stroke="hsl(290, 83%, 63%)" stroke-width="1.1"  transform="translate(98.8 26.5) rotate(273.1) scale(0.77 0.53)" />
<path d="M 21.4 43.5 C 16.3 25.7, 93.5 70.6, 84.9 84.8 C 93.0 92.1, 36.9 22.9, 27.1 33.0 C 16.6 26.9, 69.4 68.1, 78.8 80.6 C 65.9 63.7, 40.3 17.9, 41.3 13.4 C 39.6 0.0, 30.0 61.3, 26.9 55.5 C 31.1 59.7, 67.9 93.7, 78.5 82.6 Z" fill="hsl(86, 72%, 68%)" fill-opacity="1.00" stroke="none" stroke-width="2.90"  transform="translate(0.5 5.3) rotate(137.4) scale(1.66 0.54)" />
<rect x="33.8" y="26.2" width="38.5" height="20.7" rx="0" fill="none" fill-opacity="0.56" stroke="hsl(104, 72%, 65%)" stroke-width="2.0"  transform="translate(24.2 81.9) rotate(18.4) scale(1.38 0.75)" />
<circle cx="61.8" cy="72.6" r="7.5" fill="url(#g2)" fill-opacity="0.49"  transform="translate(30.6 48.2) rotate(313.6) scale(1.13 0.53)" />
<rect x="32.9" y="75.1" width="32.9" height="21.5" rx="11.9" fill="none" fill-opacity="0.57" stroke="hsl(144, 86%, 72%)" stroke-width="1.4" filter="url(#f1)" transform="translate(40.7 39.8) rotate(121.0) scale(0.75 1.48)" />
<path d="M 26.5 0.8 C 8.0 0.0, 38.9 55.8, 46.1 55.1 C 31.6 63.1, 13.4 28.0, 7.7 39.1 C 24.1 19.7, 24.8 57.9, 36.4 51.6 C 21.4 34.0, 87.6 66.4, 85.3 77.4 C 80.5 59.8, 66.7 70.0, 52.6 71.3 C 69.1 71.8, 42.5 0.0, 28.5 1.4 C 13.4 3.7, 12.5 33.4, 26.6 34.7 C 43.7 54.7, 51.0 41.3, 51.6 27.3 C 40.3 15.6, 4.6 28.5, 4.4 30.0 C 11.3 48.3, 3.3 100.0, 17.9 99.1 Z" fill="hsl(106, 75%, 59%)" fill-opacity="0.25" stroke="none" stroke-width="3.87"  transform="translate(73.7 41.2) rotate(148.5) scale(1.70 1.67)" />
<path d="M 88.3 96.1 C 85.1 82.5, 57.3 67.0, 62.7 62.6 C 43.5 81.7, 68.8 17.5, 64.2 22.7 C 59.6 22.2, 45.2 49.9, 54.8 51.5 C 61.5 57.0, 35.5 80.1, 31.3 94.2 C 45.7 100.0, 42.5 58.3, 28.9 51.7 C 28.1 62.9, 67.0 38.8, 57.1 32.9 C 72.1 39.0, 2.7 69.2, 16.4 62.2 Z" fill="none" fill-opacity="0.98" stroke="hsl(242, 72%, 49%)" stroke-width="4.41"  transform="translate(50.4 52.3) rotate(15.8) scale(1.92 1.53)" />
<circle cx="46.9" cy="58.5" r="3.6" fill="url(#g0)" fill-opacity="0.75" filter="url(#f1)" transform="translate(97.9 25.2) rotate(60.2) scale(1.36 0.96)" />
<g opacity="0.073">
<rect x="0" y="0" width="1" height="100" fill="black" />
<rect x="22" y="0" width="1" height="100" fill="black" />
<rect x="44" y="0" width="1" height="100" fill="black" />
<rect x="66" y="0" width="1" height="100" fill="black" />
<rect x="88" y="0" width="1" height="100" fill="black" />
<rect x="0" y="0" width="100" height="1" fill="black" />
<rect x="0" y="22" width="100" height="1" fill="black" />
<rect x="0" y="44" width="100" height="1" fill="black" />
<rect x="0" y="66" width="100" height="1" fill="black" />
<rect x="0" y="88" width="100" height="1" fill="black" />
</g>

</svg>
