<?xml version="1.0" encoding="UTF-8"?>
<svg xmlns="http://www.w3.org/2000/svg" width="100" height="100" viewBox="0 0 100 100">
<defs>
<linearGradient id="g0" x1="0%" y1="0%" x2="100%" y2="100%">
<stop offset="0.0%" stop-color="hsl(106, 75%, 59%)" />
<stop offset="33.3%" stop-color="hsl(183, 71%, 60%)" />
<stop offset="66.7%" stop-color="hsl(242, 72%, 49%)" />
<stop offset="100.0%" stop-color="hsl(322, 74%, 44%)" />
</linearGradient>
<linearGradient id="g1" x1="0%" y1="0%" x2="100%" y2="100%">
<stop offset="0.0%" stop-color="hsl(290, 83%, 63%)" />
<stop offset="33.3%" stop-color="hsl(2, 82%, 55%)" />
<stop offset="66.7%" stop-color="hsl(86, 72%, 68%)" />
<stop offset="100.0%" stop-color="hsl(83, 65%, 44%)" />
</linearGradient>
<linearGradient id="g2" x1="0%" y1="0%" x2="100%" y2="100%">
<stop offset="0.0%" stop-color="hsl(40, 53%, 69%)" />
<stop offset="33.3%" stop-color="hsl(104, 72%, 65%)" />
<stop offset="66.7%" stop-color="hsl(144, 86%, 72%)" />
<stop offset="100.0%" stop-color="hsl(151, 70%, 62%)" />
</linearGradient>
<filter id="f1" x="-20%" y="-20%" width="140%" height="140%">
  <feGaussianBlur stdDeviation="2.3695779105551162" />
</filter>

</defs>

<path d="M 43.5 42.2 C 53.0 30.3, 75.3 59.1, 68.9 46.2 C 54.6 56.2, 45.4 27.6, 44.1 29.6 C 31.9 39.9, 96.3 87.6, 94.4 96.2 C 100.0 96.1, 76.4 13.9, 83.3 8.4 C 75.5 24.8, 70.2 38.7, 84.2 50.5 C 76.5 60.1, 53.2 80.4, 42.9 95.0 C 30.2 100.0, 18.7 95.8, 6.3 90.6 C 14.0 70.9, 37.9 79.1, 46.4 89.3 Z" fill="none" fill-opacity="0.91" stroke="hsl(183, 71%, 60%)" stroke-width="2.57"  transform="translate(64.5 92.9) rotate(257.8) scale(1.20 0.92)" />
<path d="M 9.4 89.2 C 17.4 80.5, 50.4 2.2, 37.2 9.5 C 18.3 7.2, 81.9 55.8, 70.7 49.1 C 73.3 67.1, 52.0 51.7, 53.0 51.8 C 35.7 41.2, 28.1 100.0, 16.2 94.1 C 17.0 100.0, 19.9 83.7, 29.7 80.4 C 31.3 81.5, 63.0 59.3, 71.6 51.7 Z" fill="hsl(151, 70%, 62%)" fill-opacity="0.81" stroke="none" stroke-width="1.25"  transform="translate(26.9 37.4) rotate(227.0) scale(0.63 1.95)" />
<path d="M 67.4 27.7 C 74.3 29.3, 51.8 48.9, 43.8 48.0 C 53.5 39.8, 6.6 61.6, 0.5 64.8 C 0.0 68.4, 91.0 85.7, 91.8 81.9 C 99.6 90.9, 43.8 4.4, 50.5 17.9 C 66.6 5.0, 86.1 13.5, 77.2 27.3 C 90.9 39.2, 81.3 70.0, 90.1 82.1 C 96.0 64.3, 100.0 46.3, 92.7 58.0 C 100.0 44.0, 34.1 59.9, 22.2 72.5 C 10.2 55.1, 81.3 17.4, 88.8 7.0 " fill="hsl(40, 53%, 69%)" fill-opacity="0.66" stroke="none" stroke-width="4.79"  transform="translate(15.4 12.2) rotate(328.1) scale(0.90 1.14)" />
<path d="M 72.7 30.4 C 92.3 17.8, 0.0 21.3, 11.6 22.0 C 16.8 23.1, 99.6 0.0, 91.5 7.6 C 88.3 19.0, 53.5 27.9, 47.4 25.1 C 46.4 22.7, 19.3 69.0, 19.8 71.1 C 26.8 82.6, 12.9 1.6, 8.8 6.2 C 3.6 15.9, 37.4 8.2, 30.3 11.7 C 44.1 20.9, 12.9 37.9, 3.3 23.7 Z" fill="hsl(322, 74%, 44%)" fill-opacity="0.53" stroke="none" stroke-width="2.86"  transform="translate(13.2 39.8) rotate(79.8) scale(1.46 1.65)" />
<path d="M 82.3 61.1 C 66.1 67.0, 16.2 40.7, 9.2 33.6 C 0.0 52.0, 0.0 36.0, 9.0 25.1 C 0.0 28.2, 11.6 28.2, 2.7 39.1 C 21.8 23.2, 8.6 62.5, 14.4 68.5 C 7.3 65.4, 59.4 40.2, 49.8 51.4 C 61.3 51.7, 24.7 59.9, 30.8 52.2 C 45.8 46.6, 36.9 100.0, 31.8 86.7 C 21.6 67.7, 75.0 58.1, 63.7 52.5 C 44.0 48.4, 81.8 53.2, 69.0 54.8 Z" fill="none" fill-opacity="0.97" stroke="hsl(104, 72%, 65%)" stroke-width="4.21"  transform="translate(38.7 1.9) rotate(346.0) scale(0.83 0.88)" />
<circle cx="16.7" cy="21.9" r="2.3" fill="hsl(151, 70%, 62%)" fill-opacity="0.65"  transform="translate(93.4 6.3) rotate(46.7) scale(0.63 1.30)" />
<rect x="38.6" y="83.6" width="41.0" height="16.1" rx="8.2" fill="none" fill-opacity="0.22"   transform="translate(92.3 81.0) rotate(192.3) scale(0.56 0.94)" />
<path d="M 16.6 18.1 C 15.7 3.7, 69.4 81.6, 73.0 94.6 C 64.3 100.0, 0.9 39.3, 8.5 48.0 C 9.8 50.0, 11.8 100.0, 19.2 88.2 C 7.4 98.3, 6.2 10.7, 6.3 21.1 C 1.0 18.2, 23.7 80.2, 15.3 76.0 C 19.0 95.8, 64.0 48.1, 69.4 50.1 C 54.7 34.3, 98.6 16.8, 90.1 23.1 Z" fill="none" fill-opacity="0.51" stroke="hsl(322, 74%, 44%)" stroke-width="1.14"  transform="translate(78.3 18.0) rotate(97.7) scale(1.10 1.06)" />
<path d="M 86.6 94.4 C 74.9 79.5, 72.2 60.0, 67.2 58.5 C 64.2 60.8, 34.1 100.0, 41.4 99.6 C 60.3 100.0, 82.0 52.0, 95.3 57.5 C 100.0 64.5, 15.9 93.5, 7.2 98.5 C 10.4 82.6, 21.4 51.3, 25.4 61.2 C 23.0 50.9, 29.2 33.3, 14.2 25.8 Z" fill="none" fill-opacity="0.51" stroke="hsl(183, 71%, 60%)" stroke-width="4.22"  transform="translate(72.2 6.2) rotate(240.9) scale(1.13 0.58)" />
<path d="M 52.1 93.7 C 64.5 100.0, 11.6 67.3, 9.6 66.9 C 0.0 47.7, 72.5 85.6, 78.9 95.5 C 63.4 81.5, 54.6 85.2, 45.3 97.8 C 34.4 79.9, 12.2 61.4, 8.7 61.5 C 23.6 69.4, 22.2 36.6, 35.8 28.5 C 27.9 27.2, 66.1 76.7, 79.7 68.7 C 59.8 65.5, 23.3 27.0, 14.4 15.2 C 33.8 26.5, 0.0 39.6, 7.5 38.5 C 14.7 23.0, 77.0 61.9, 83.0 66.6 Z" fill="hsl(2, 82%, 55%)" fill-opacity="0.95" stroke="none" stroke-width="2.13"   />
<circle cx="61.2" cy="80.2" r="2.7" fill="hsl(106, 75%, 59%)" fill-opacity="0.75"  transform="translate(37.4 5.4) rotate(342.9) scale(1.69 1.59)" />
<path d="M 18.6 48.2 C 8.5 40.0, 90.0 64.6, 89.0 70.2 C 92.5 77.6, 24.0 32.8, 9.2 36.5 C 11.8 52.5, 67.6 100.0, 64.8 97.9 C 50.6 99.6, 61.6 95.9, 63.3 93.0 C 82.3 100.0, 92.1 58.8, 96.4 44.6 C 89.7 62.1, 26.9 17.1, 30.3 16.3 C 49.7 12.9, 82.4 6.6, 85.2 19.3 Z" fill="hsl(183, 71%, 60%)" fill-opacity="0.83" stroke="none" stroke-width="4.58"   />
<path d="M 66.1 20.2 C 69.3 21.2, 78.1 66.4, 66.4 75.5 C 81.3 62.2, 39.3 0.0, 50.2 6.1 C 31.3 0.9, 63.6 48.9, 65.9 62.3 C 47.2 63.6, 23.8 85.7, 18.4 93.2 C 16.5 100.0, 8.2 56.8, 4.3 42.8 C 5.6 58.0, 1.7 7.6, 3.2 17.1 Z" fill="hsl(106, 75%, 59%)" fill-opacity="0.82" stroke="none" stroke-width="2.71"  transform="translate(55.8 46.0) rotate(260.1) scale(0.73 0.97)" />
<rect x="11.2" y="35.3" width="41.4" height="26.5" rx="19.3" fill="hsl(322, 74%, 44%)" fill-opacity="0.52" stroke="hsl(242, 72%, 49%)" stroke-width="4.9"  transform="translate(48.1 91.3) rotate(89.0) scale(1.92 0.83)" />
<rect x="54.4" y="68.8" width="45.0" height="12.6" rx="0" fill="none" fill-opacity="0.72"   transform="translate(97.8 30.9) rotate(351.3) scale(0.57 0.90)" />
<path d="M 43.2 16.0 C 37.8 34.6, 92.5 45.7, 77.9 50.9 C 60.5 40.5, 2.6 33.2, 4.0 38.7 C 0.0 51.7, 14.2 37.5, 26.1 39.8 C 35.5 47.7, 18.9 12.6, 19.8 23.1 C 33.4 35.1, 80.2 58.9, 85.6 54.7 C 79.0 59.0, 55.9 0.0, 57.8 12.1 C 65.2 22.9, 52.7 16.4, 40.6 13.3 C 30.0 11.3, 10.7 22.8, 22.3 25.0 Z" fill="hsl(242, 72%, 49%)" fill-opacity="0.77" stroke="none" stroke-width="1.55" filter="url(#f1)" transform="translate(90.6 8.7) rotate(250.5) scale(0.53 1.28)" />
<circle cx="0.8" cy="82.5" r="3.8" fill="url(#g0)" fill-opacity="1.00"   />
<path d="M 11.3 71.8 C 15.7 54.7, 59.6 100.0, 51.8 93.6 C 49.9 74.4, 27.0 79.0, 19.1 80.5 C 12.9 88.0, 100.0 8.7, 97.1 17.1 C 100.0 23.0, 71.9 0.0, 62.2 0.9 C 67.7 17.6, 68.2 13.2, 78.6 27.4 C 92.1 10.8, 32.9 34.7, 26.4 43.4 Z" fill="none" fill-opacity="0.72" stroke="hsl(183, 71%, 60%)" stroke-width="2.91"  transform="translate(12.1 73.6) rotate(104.2) scale(1.03 1.45)" />
<path d="M 1.2 13.8 C 0.0 25.3, 15.9 5.4, 25.7 10.3 C 31.7 18.4, 50.7 99.1, 38.7 96.7 C 57.3 98.1, 37.5 40.9, 34.9 29.9 C 44.4 14.8, 89.5 61.2, 90.8 53.4 C 78.5 51.4, 64.6 2.2, 58.4 11.3 C 67.5 0.0, 78.6 61.8, 68.5 73.7 C 58.3 83.5, 90.9 43.6, 96.8 54.5 C 100.0 53.4, 12.8 23.8, 18.4 15.4 C 13.1 30.0, 62.0 44.6, 53.8 51.5 C 60.5 43.3, 48.0 47.7, 41.3 48.3 Z" fill="hsl(151, 70%, 62%)" fill-opacity="0.72" stroke="none" stroke-width="2.20"   />
<path d="M 31.6 33.2 C 23.0 28.6, 74.5 59.3, 63.7 58.7 C 70.3 68.3, 70.5 93.0, 73.9 97.1 C 89.4 78.2, 36.2 44.4, 23.1 38.1 C 11.3 55.5, 100.0 58.3, 95.0 59.1 C 97.8 74.5, 17.9 6.1, 26.3 12.5 C 20.3 0.0, 46.3 48.1, 38.0 34.6 C 54.6 20.5, 0.4 78.5, 15.2 72.5 C 5.3 86.2, 57.9 15.8, 66.3 25.3 C 77.4 31.6, 79.1 100.0, 86.1 99.6 C 88.7 96.6, 79.9 98.0, 74.3 86.2 Z" fill="hsl(183, 71%, 60%)" fill-opacity="0.91" stroke="none" stroke-width="4.36" filter="url(#f1)" transform="translate(91.2 88.8) rotate(262.0) scale(0.89 0.68)" />
<path d="M 29.6 65.4 C 42.8 72.0, 80.0 72.2, 93.2 79.2 C 94.5 91.6, 58.1 5.7, 51.2 1.0 C 47.8 3.8, 23.9 100.0, 11.0 92.2 C 1.7 91.4, 85.2 55.1, 80.6 49.2 C 67.4 29.6, 72.1 44.2, 79.5 39.1 C 77.5 51.7, 28.4 3.0, 25.0 17.2 C 18.8 1.9, 77.9 66.1, 86.7 67.2 Z" fill="hsl(290, 83%, 63%)" fill-opacity="0.54" stroke="none" stroke-width="1.25"   />
<rect x="67.6" y="19.6" width="27.9" height="38.8" rx="0" fill="hsl(144, 86%, 72%)" fill-opacity="0.66" stroke="hsl(104, 72%, 65%)" stroke-width="2.5"  transform="translate(99.9 80.7) rotate(10.4) scale(1.74 1.83)" />
<path d="M 70.1 15.8 C 60.9 7.0, 67.1 42.7, 68.5 52.7 C 77.0 66.6, 18.8 26.4, 19.1 14.0 C 9.4 3.2, 55.5 30.5, 58.4 29.5 C 76.1 28.5, 54.8 72.3, 43.4 86.7 C 53.1 100.0, 16.2 93.5, 1.3 85.9 C 0.0 100.0, 83.0 71.1, 80.1 61.6 Z" fill="none" fill-opacity="0.28" stroke="hsl(2, 82%, 55%)" stroke-width="3.79"  transform="translate(26.0 12.3) rotate(156.4) scale(1.06 1.63)" />
<circle cx="61.8" cy="87.2" r="6.3" fill="hsl(83, 65%, 44%)" fill-opacity="0.56"  transform="translate(81.5 77.9) rotate(167.9) scale(1.12 0.59)" />
<path d="M 60.8 52.4 C 72.6 61.7, 87.3 36.0, 75.7 40.9 C 92.5 53.9, 99.2 0.0, 98.3 7.8 C 97.5 22.1, 80.7 76.0, 84.2 67.8 C 67.4 55.8, 51.8 77.3, 65.3 81.1 C 58.9 98.0, 27.9 1.7, 14.9 12.1 C 22.0 11.9, 93.2 75.3, 78.2 75.0 Z" fill="hsl(242, 72%, 49%)" fill-opacity="0.83" stroke="none" stroke-width="2.88"  transform="translate(16.8 40.4) rotate(266.9) scale(1.53 1.89)" />
<rect x="26.6" y="0.9" width="43.6" height="35.4" rx="14.6" fill="hsl(2, 82%, 55%)" fill-opacity="0.83"   transform="translate(43.7 49.7) rotate(116.5) scale(1.48 0.68)" />
<path d="M 58.0 80.2 C 77.0 64.0, 24.3 43.7, 39.1 48.3 C 57.2 53.4, 100.0 44.8, 95.3 58.6 C 100.0 48.5, 100.0 22.9, 87.1 37.8 C 84.2 18.9, 58.9 0.0, 46.1 6.6 C 52.8 0.0, 100.0 87.9, 98.9 91.0 C 88.1 87.4, 10.2 88.3, 10.8 99.0 Z" fill="none" fill-opacity="0.94" stroke="hsl(2, 82%, 55%)" stroke-width="4.91"  transform="translate(18.7 61.4) rotate(252.8) scale(1.18 1.50)" />
<rect x="52.3" y="52.9" width="30.6" height="37.3" rx="5.3" fill="hsl(183, 71%, 60%)" fill-opacity="0.89"  filter="url(#f1)"  />
<path d="M 61.4 92.5 C 61.5 93.8, 31.0 32.9, 34.4 23.7 C 19.5 8.2, 64.2 27.1, 77.0 29.2 C 89.7 48.6, 1.8 4.2, 14.5 18.6 C 10.5 19.6, 0.0 6.6, 8.5 1.7 C 14.5 19.8, 53.3 42.9, 52.5 30.5 C 48.9 31.9, 78.1 71.6, 82.6 79.0 C 98.3 92.9, 26.2 46.9, 18.5 40.3 Z" fill="hsl(86, 72%, 68%)" fill-opacity="0.31" stroke="none" stroke-width="2.26"  transform="translate(29.6 45.0) rotate(156.3) scale(1.66 1.53)" />
<rect x="16.1" y="62.4" width="44.5" height="37.6" rx="0" fill="none" fill-opacity="0.75"   transform="translate(56.3 7.8) rotate(167.5) scale(1.13 1.91)" />
<rect x="67.0" y="55.9" width="26.7" height="18.8" rx="0.8" fill="hsl(144, 86%, 72%)" fill-opacity="0.81"    />
<rect x="14.6" y="43.0" width="31.9" height="27.5" rx="0" fill="none" fill-opacity="0.80"   transform="translate(79.4 88.6) rotate(29.0) scale(1.58 1.07)" />
<circle cx="46.9" cy="53.6" r="4.9" fill="url(#g0)" fill-opacity="0.75" filter="url(#f1)" transform="translate(30.1 98.8) rotate(323.0) scale(1.26 1.89)" />
<path d="M 65.9 34.1 C 54.4 44.2, 28.4 69.7, 32.9 79.7 C 23.4 90.2, 21.1 59.0, 19.9 70.5 C 26.0 61.6, 69.0 86.7, 75.9 90.5 C 64.3 94.8, 26.3 29.2, 25.4 35.0 C 25.0 42.7, 7.9 32.2, 0.0 17.3 C 7.6 24.3, 26.4 58.4, 37.4 61.4 C 55.3 76.0, 86.2 30.6, 73.2 24.4 C 81.1 10.3, 17.9 45.1, 21.6 52.3 C 10.7 34.1, 62.5 30.8, 67.4 45.2 Z" fill="hsl(290, 83%, 63%)" fill-opacity="0.99" stroke="none" stroke-width="5.14"  transform="translate(62.3 77.9) rotate(128.6) scale(0.74 0.99)" />
<circle cx="75.5" cy="58.2" r="10.0" fill="url(#g0)" fill-opacity="0.80"  transform="translate(95.0 57.7) rotate(342.9) scale(1.92 1.70)" />
<path d="M 62.8 0.5 C 80.2 0.0, 51.6 22.7, 38.5 17.8 C 23.6 0.8, 91.8 35.4, 81.1 31.8 C 75.4 44.3, 32.9 27.4, 21.7 21.2 C 41.7 20.3, 96.6 56.2, 92.7 58.9 C 95.6 70.3, 35.5 0.0, 31.1 0.4 C 35.5 4.0, 31.3 89.5, 22.5 94.8 C 2.6 75.4, 43.2 0.0, 39.3 5.4 C 42.6 19.8, 79.6 36.5, 85.5 36.8 C 85.2 47.8, 19.7 55.6, 22.2 42.9 C 26.4 29.6, 17.2 54.7, 20.3 55.2 Z" fill="hsl(104, 72%, 65%)" fill-opacity="0.65" stroke="none" stroke-width="4.68" filter="url(#f1)"  />
<rect x="32.6" y="58.3" width="22.4" height="39.5" rx="0.3" fill="none" fill-opacity="0.88"   transform="translate(58.1 14.2) rotate(237.6) scale(1.47 1.52)" />
<path d="M 35.3 52.2 C 52.7 68.3, 88.8 46.1, 84.7 42.6 C 100.0 29.6, 56.2 88.2, 62.4 74.4 C 52.2 70.8, 34.9 0.3, 47.9 5.8 C 38.0 5.1, 30.4 40.8, 20.1 44.8 C 14.8 39.5, 16.4 70.4, 28.1 65.3 C 27.6 56.2, 64.1 24.9, 64.2 18.1 C 61.0 18.0, 16.3 54.6, 18.5 44.7 Z" fill="hsl(144, 86%, 72%)" fill-opacity="0.71" stroke="none" stroke-width="4.93"  transform="translate(33.7 12.5) rotate(197.0) scale(0.60 1.85)" />
<path d="M 19.8 9.0 C 38.8 20.3, 40.8 54.4, 53.9 65.4 C 46.5 77.2, 27.2 22.3, 16.2 18.0 C 15.8 2.1, 40.0 36.0, 29.5 42.5 C 11.3 34.7, 20.4 11.3, 12.8 12.6 C 22.1 25.8, 98.4 52.4, 90.2 52.2 C 91.0 46.0, 99.0 59.9, 87.9 63.7 C 100.0 65.8, 84.9 18.4, 78.4 18.1 C 97.2 0.6, 44.2 48.6, 46.4 54.3 C 52.5 51.9, 25.2 5.9, 22.2 3.5 C 36.5 0.0, 98.8 58.9, 85.6 66.5 Z" fill="none" fill-opacity="0.64" stroke="hsl(144, 86%, 72%)" stroke-width="3.45" filter="url(#f1)" transform="translate(93.9 34.8) rotate(113.6) scale(1.32 0.62)" />
<rect x="24.8" y="15.8" width="22.6" height="32.8" rx="11.7" fill="hsl(183, 71%, 60%)" fill-opacity="0.59"   transform="translate(7.7 72.7) rotate(132.8) scale(0.51 0.93)" />
<path d="M 88.2 99.4 C 88.6 86.5, 45.9 84.0, 41.0 92.2 C 30.0 100.0, 71.1 64.7, 71.1 66.6 C 59.5 82.5, 0.0 25.0, 9.0 19.5 C 14.9 7.1, 59.3 60.3, 50.7 69.3 C 55.6 50.5, 79.3 71.8, 91.0 84.0 C 77.6 77.1, 1.6 0.0, 15.4 9.5 C 2.4 9.7, 45.7 41.9, 53.2 28.6 C 65.6 9.2, 69.1 51.1, 83.8 40.8 C 100.0 35.2, 19.0 11.6, 9.9 11.7 C 0.0 4.5, 0.0 58.4, 0.3 51.4 Z" fill="hsl(86, 72%, 68%)" fill-opacity="0.39" stroke="none" stroke-width="2.43"  transform="translate(90.6 3.2) rotate(1.2) scale(1.01 1.47)" />
<rect x="55.2" y="9.5" width="36.0" height="19.9" rx="10.0" fill="hsl(83, 65%, 44%)" fill-opacity="0.21" stroke="hsl(86, 72%, 68%)" stroke-width="2.5"  transform="translate(92.9 57.1) rotate(182.0) scale(1.80 1.08)" />
<path d="M 74.7 78.8 C 72.7 95.3, 42.8 2.8, 41.0 3.5 C 26.7 0.0, 19.7 0.0, 6.5 1.1 C 0.0 0.0, 99.6 5.8, 88.8 1.5 C 94.1 6.0, 66.5 0.0, 80.1 8.9 C 83.9 1.7, 32.8 32.6, 22.7 39.5 C 15.4 32.8, 51.1 70.4, 40.5 79.0 C 22.9 81.9, 70.1 86.1, 62.1 82.6 Z" fill="hsl(183, 71%, 60%)" fill-opacity="0.73" stroke="none" stroke-width="3.05"  transform="translate(27.2 15.0) rotate(272.3) scale(1.83 1.79)" />
<rect x="55.5" y="25.7" width="23.1" height="34.7" rx="10.3" fill="hsl(322, 74%, 44%)" fill-opacity="0.91" stroke="hsl(183, 71%, 60%)" stroke-width="2.4"  transform="translate(16.6 79.8) rotate(51.2) scale(1.39 1.13)" />
<rect x="24.4" y="23.0" width="23.5" height="22.1" rx="14.6" fill="none" fill-opacity="0.73"   transform="translate(60.3 19.6) rotate(95.3) scale(1.32 1.79)" />
<rect x="23.2" y="60.4" width="38.0" height="20.9" rx="0" fill="none" fill-opacity="0.74"   transform="translate(71.3 63.2) rotate(245.9) scale(0.98 1.08)" />
<path d="M 41.2 35.3 C 58.9 26.0, 57.7 92.1, 69.4 97.8 C 59.3 86.6, 19.4 86.3, 12.5 79.1 C 8.2 93.3, 0.0 95.6, 0.5 94.0 C 20.2 76.9, 11.4 52.0, 19.4 42.0 C 2.7 50.5, 14.8 20.4, 29.1 17.7 C 35.3 11.8, 54.4 74.4, 57.7 79.4 Z" fill="none" fill-opacity="0.47" stroke="hsl(86, 72%, 68%)" stroke-width="4.52"  transform="translate(76.5 75.9) rotate(148.7) scale(1.37 1.50)" />
<path d="M 79.1 62.2 C 85.5 45.7, 42.0 49.2, 40.1 42.0 C 34.1 23.8, 0.0 26.7, 10.9 34.0 C 7.3 35.0, 30.4 0.0, 27.7 1.0 C 39.9 18.0, 63.7 12.7, 78.0 26.3 C 71.3 46.0, 27.7 24.9, 30.2 18.9 C 36.3 3.7, 71.3 27.7, 70.0 42.1 Z" fill="hsl(40, 53%, 69%)" fill-opacity="0.75" stroke="none" stroke-width="2.48"  transform="translate(25.3 36.8) rotate(330.4) scale(1.46 1.12)" />
<path d="M 15.2 93.5 C 24.2 87.0, 70.4 29.2, 77.0 23.7 C 57.7 20.4, 98.7 46.8, 90.7 39.5 C 92.8 21.8, 9.0 56.7, 11.7 50.0 C 16.4 60.7, 82.9 23.7, 93.9 20.2 C 100.0 39.0, 64.4 94.2, 67.3 98.0 C 84.6 88.3, 55.0 31.0, 41.0 33.4 C 60.4 47.5, 99.2 46.2, 98.7 37.7 Z" fill="none" fill-opacity="0.92" stroke="hsl(290, 83%, 63%)" stroke-width="4.51"  transform="translate(3.7 79.2) rotate(310.3) scale(0.93 0.98)" />
<rect x="16.3" y="2.1" width="38.4" height="35.9" rx="12.0" fill="hsl(83, 65%, 44%)" fill-opacity="0.39" stroke="hsl(86, 72%, 68%)" stroke-width="4.3"  transform="translate(70.9 2.3) rotate(309.1) scale(0.89 0.89)" />
<circle cx="86.3" cy="82.2" r="8.0" fill="hsl(144, 86%, 72%)" fill-opacity="0.41"  transform="translate(73.8 87.7) rotate(0.1) scale(1.69 1.71)" />
<path d="M 47.8 36.9 C 34.3 19.5, 21.4 34.9, 13.5 43.7 C 21.6 61.7, 71.2 100.0, 62.1 89.3 C 77.1 100.0, 94.4 100.0, 85.6 90.1 C 94.0 92.3, 56.5 97.2, 44.4 88.1 C 58.6 100.0, 100.0 80.1, 99.4 93.1 C 100.0 100.0, 48.4 30.8, 48.2 29.7 C 55.0 18.1, 71.0 38.7, 58.9 36.4 C 61.5 50.2, 100.0 89.3, 97.6 98.8 C 87.3 85.6, 68.0 49.0, 71.8 52.7 C 67.4 64.8, 44.2 37.4, 52.1 49.6 Z" fill="hsl(144, 86%, 72%)" fill-opacity="0.90" stroke="none" stroke-width="2.26"  transform="translate(75.0 81.7) rotate(37.5) scale(1.25 1.29)" />
<rect x="22.5" y="51.8" width="42.2" height="17.3" rx="10.2" fill="hsl(290, 83%, 63%)" fill-opacity="0.21"   transform="translate(57.1 32.8) rotate(335.7) scale(1.95 1.64)" />
<rect x="16.3" y="24.9" width="24.5" height="15.2" rx="7.5" fill="hsl(40, 53%, 69%)" fill-opacity="0.30" stroke="hsl(40, 53%, 69%)" stroke-width="4.4"  transform="translate(13.0 38.7) rotate(270.5) scale(0.70 1.47)" />
<path d="M 7.4 13.7 C 3.7 7.1, 55.4 6.7, 54.8 11.3 C 43.7 6.9, 40.6 2.9, 34.3 16.1 C 46.0 18.2, 52.4 46.1, 56.0 39.8 C 53.2 22.1, 46.4 50.5, 50.5 42.5 C 63.6 25.4, 70.5 59.3, 58.7 52.6 C 65.7 51.6, 65.6 69.2, 77.9 83.4 C 87.3 100.0, 2.8 65.0, 2.9 60.6 Z" fill="none" fill-opacity="0.76" stroke="hsl(183, 71%, 60%)" stroke-width="0.84"  transform="translate(87.4 82.7) rotate(357.4) scale(1.53 1.05)" />
<path d="M 17.5 12.1 C 0.0 1.5, 75.3 86.6, 65.9 93.4 C 74.7 100.0, 69.1 36.2, 60.6 22.8 C 64.8 30.1, 15.9 100.0, 23.7 91.7 C 9.3 96.0, 38.8 19.1, 34.7 29.3 C 18.3 28.8, 7.3 0.0, 20.9 2.8 C 2.7 0.0, 48.3 86.2, 62.5 80.2 C 81.9 81.7, 52.8 0.8, 44.7 3.2 C 25.4 0.0, 98.8 35.5, 85.1 23.3 Z" fill="none" fill-opacity="0.99" stroke="hsl(290, 83%, 63%)" stroke-width="3.77" filter="url(#f1)" transform="translate(61.0 60.0) rotate(348.2) scale(1.12 0.75)" />
<path d="M 25.0 17.3 C 14.3 7.8, 3.9 78.2, 1.1 74.0 C 0.0 87.9, 84.9 27.1, 85.1 21.1 C 72.9 17.2, 93.9 17.1, 83.3 10.8 C 80.4 13.3, 88.1 8.6, 73.7 7.3 C 73.7 0.0, 99.5 69.8, 98.7 74.4 C 89.2 56.6, 84.9 4.5, 73.5 17.2 C 61.2 1.5, 16.0 74.9, 3.1 89.6 C 11.8 73.2, 96.2 95.7, 93.9 88.1 C 100.0 99.0, 6.3 79.0, 6.6 87.1 C 11.4 99.1, 63.6 44.1, 63.2 31.3 Z" fill="hsl(144, 86%, 72%)" fill-opacity="0.74" stroke="none" stroke-width="4.38" filter="url(#f1)" transform="translate(14.9 47.0) rotate(152.2) scale(0.64 1.09)" />
<path d="M 43.4 7.9 C 50.4 0.0, 49.3 15.9, 48.4 12.7 C 46.8 13.2, 73.4 8.1, 77.5 13.5 C 57.8 28.4, 100.0 66.2, 89.0 70.4 C 99.9 76.7, 7.4 83.2, 22.0 82.1 C 17.4 76.8, 30.3 17.0, 25.2 14.4 C 6.3 25.3, 81.4 5.6, 94.1 17.8 C 93.4 26.3, 42.7 55.7, 44.8 67.1 C 31.8 59.2, 56.9 46.3, 55.0 37.5 C 42.2 46.5, 41.5 61.3, 33.3 52.7 Z" fill="none" fill-opacity="0.71" stroke="hsl(144, 86%, 72%)" stroke-width="2.27"   />
<path d="M 34.7 5.6 C 39.6 22.0, 82.5 76.5, 89.0 75.2 C 88.6 88.4, 21.4 90.0, 24.4 83.8 C 35.3 95.6, 81.4 71.9, 87.2 83.8 C 91.7 66.9, 33.1 45.0, 46.7 37.9 C 30.0 19.1, 70.6 0.0, 68.9 9.9 C 88.6 29.5, 49.0 78.0, 47.1 81.0 C 33.3 89.6, 96.1 89.9, 94.8 79.3 C 100.0 95.0, 36.4 66.8, 44.8 59.3 C 52.1 63.8, 62.1 72.5, 57.5 59.6 C 47.0 59.6, 23.8 0.0, 15.6 1.1 Z" fill="hsl(183, 71%, 60%)" fill-opacity="0.85" stroke="none" stroke-width="1.79"  transform="translate(59.6 92.3) rotate(324.1) scale(1.16 1.83)" />
<path d="M 78.7 52.9 C 58.8 44.4, 46.8 25.3, 61.0 15.4 C 45.8 25.6, 34.9 6.4, 39.3 8.3 C 44.3 14.3, 43.4 27.2, 36.7 18.9 C 19.5 27.0, 45.2 91.8, 32.6 81.3 C 24.2 73.1, 68.7 77.0, 78.1 91.5 C 71.2 97.2, 92.8 20.9, 86.0 9.7 Z" fill="none" fill-opacity="0.27" stroke="hsl(104, 72%, 65%)" stroke-width="1.58" filter="url(#f1)" transform="translate(45.2 65.3) rotate(283.9) scale(1.81 1.83)" />
<rect x="53.0" y="2.0" width="26.2" height="18.2" rx="12.0" fill="hsl(183, 71%, 60%)" fill-opacity="0.58"   transform="translate(97.4 55.1) rotate(133.9) scale(1.93 0.62)" />
<path d="M 98.4 66.2 C 95.3 55.8, 66.7 55.0, 72.3 48.4 C 85.7 30.8, 57.6 54.0, 61.7 61.7 C 44.6 68.8, 54.9 38.3, 42.0 49.4 C 40.1 48.6, 64.9 32.6, 61.0 34.6 C 75.0 49.8, 26.0 72.4, 35.9 83.7 C 43.2 96.6, 45.9 17.1, 32.3 3.9 C 51.9 0.0, 71.9 15.2, 60.3 19.9 C 42.5 6.5, 68.0 53.6, 59.8 67.9 C 60.0 55.4, 71.1 46.0, 73.1 59.6 C 56.2 72.8, 47.9 62.8, 62.0 70.2 Z" fill="hsl(290, 83%, 63%)" fill-opacity="0.72" stroke="none" stroke-width="2.32"  transform="translate(15.4 5.3) rotate(176.3) scale(1.08 0.92)" />
<rect x="46.5" y="20.9" width="47.2" height="24.3" rx="0" fill="none" fill-opacity="0.32"   transform="translate(31.3 66.9) rotate(180.5) scale(0.68 1.41)" />
<circle cx="88.0" cy="16.1" r="4.8" fill="hsl(86, 72%, 68%)" fill-opacity="0.87"  transform="translate(87.4 66.3) rotate(166.1) scale(0.76 0.68)" />
<path d="M 64.5 13.0 C 81.9 21.7, 56.9 56.6, 45.2 54.0 C 26.4 42.9, 64.0 0.0, 68.0 7.7 C 65.7 16.8, 100.0 85.5, 91.5 76.3 C 100.0 75.9, 27.1 74.7, 21.8 63.9 C 17.9 70.6, 64.0 84.2, 60.4 80.8 C 59.0 73.6, 65.0 38.7, 72.6 25.8 C 59.5 35.1, 53.4 3.0, 63.2 6.0 C 66.4 25.8, 17.7 37.7, 16.1 44.4 C 18.3 58.8, 100.0 90.4, 95.7 94.6 C 80.9 100.0, 88.5 53.4, 90.2 49.4 Z" fill="none" fill-opacity="0.25" stroke="hsl(83, 65%, 44%)" stroke-width="0.98"  transform="translate(12.1 75.4) rotate(210.0) scale(0.70 0.96)" />
<path d="M 44.2 60.0 C 51.5 42.6, 84.9 29.2, 86.2 39.5 C 100.0 27.2, 7.0 15.0, 17.3 10.6 C 14.2 0.0, 42.5 36.5, 53.1 26.5 C 47.1 38.6, 90.2 34.3, 89.4 20.4 C 70.1 34.5, 53.2 25.7, 45.4 39.4 C 41.7 45.1, 0.0 38.3, 1.0 51.6 C 0.0 40.7, 51.2 90.0, 42.9 99.8 C 45.6 81.0, 63.6 53.9, 74.4 67.3 C 80.4 72.2, 87.8 67.1, 89.0 60.6 C 76.1 79.7, 37.2 63.6, 35.0 77.6 Z" fill="hsl(183, 71%, 60%)" fill-opacity="0.50" stroke="none" stroke-width="0.87"  transform="translate(80.8 36.5) rotate(32.7) scale(1.25 1.92)" />
<rect x="74.9" y="66.2" width="24.7" height="11.3" rx="0" fill="none" fill-opacity="0.99" stroke="hsl(144, 86%, 72%)" stroke-width="2.5"  transform="translate(70.5 2.0) rotate(123.9) scale(0.84 1.09)" />
<circle cx="30.4" cy="32.4" r="1.4" fill="url(#g1)" fill-opacity="0.95"  transform="translate(99.1 63.8) rotate(140.7) scale(1.35 1.39)" />
<rect x="50.7" y="56.4" width="32.1" height="34.1" rx="13.7" fill="none" fill-opacity="0.48"   transform="translate(66.8 56.3) rotate(126.4) scale(1.60 0.59)" />
<path d="M 85.6 24.5 C 65.8 29.7, 76.1 54.0, 72.4 51.2 C 77.3 41.4, 31.1 35.0, 30.3 31.9 C 24.2 32.4, 51.5 3.3, 60.5 12.0 C 70.1 0.0, 38.1 0.0, 43.9 1.1 C 30.6 0.0, 49.8 85.0, 60.3 86.9 C 64.0 97.6, 0.0 77.5, 3.4 76.5 Z" fill="hsl(322, 74%, 44%)" fill-opacity="0.43" stroke="none" stroke-width="4.09" filter="url(#f1)" transform="translate(55.9 65.3) rotate(33.4) scale(1.92 1.04)" />
<rect x="35.7" y="42.3" width="48.9" height="11.5" rx="17.4" fill="hsl(106, 75%, 59%)" fill-opacity="0.28" stroke="hsl(106, 75%, 59%)" stroke-width="3.9"  transform="translate(31.9 67.3) rotate(93.6) scale(0.73 1.41)" />
<rect x="5.7" y="61.0" width="35.0" height="29.5" rx="0" fill="none" fill-opacity="0.82" stroke="hsl(322, 74%, 44%)" stroke-width="1.8"  transform="translate(61.9 8.3) rotate(226.3) scale(1.56 1.08)" />
<path d="M 4.0 27.8 C 15.0 17.3, 100.0 46.3, 85.7 47.6 C 99.5 52.7, 100.0 67.7, 99.9 73.2 C 81.1 68.4, 13.8 80.6, 19.5 94.6 C 22.7 100.0, 7.2 14.5, 8.6 26.1 C 23.4 29.0, 15.1 4.4, 2.1 1.8 C 0.0 0.0, 46.8 47.8, 53.0 48.7 Z" fill="none" fill-opacity="0.95" stroke="hsl(144, 86%, 72%)" stroke-width="3.46"  transform="translate(61.8 27.8) rotate(253.6) scale(1.79 1.80)" />
<circle cx="76.9" cy="38.0" r="1.6" fill="url(#g2)" fill-opacity="0.60" filter="url(#f1)" transform="translate(88.1 96.1) rotate(317.7) scale(1.97 1.73)" />
<path d="M 96.4 11.3 C 100.0 10.0, 32.7 23.0, 21.8 34.0 C 36.1 25.7, 27.2 52.1, 29.7 52.6 C 33.7 56.6, 22.6 87.3, 28.8 89.1 C 29.2 83.4, 0.0 41.0, 0.8 33.6 C 17.0 36.2, 89.7 90.6, 79.6 81.0 C 88.2 90.5, 42.9 15.3, 47.3 10.8 Z" fill="hsl(144, 86%, 72%)" fill-opacity="0.86" stroke="none" stroke-width="1.55"  transform="translate(7.5 43.1) rotate(304.4) scale(0.91 0.82)" />
<path d="M 81.1 23.1 C 89.5 41.4, 50.4 0.0, 52.9 11.7 C 53.0 2.7, 29.8 62.4, 26.4 61.8 C 20.7 73.3, 38.8 100.0, 30.8 98.4 C 33.6 88.3, 100.0 92.3, 98.3 80.8 C 87.4 95.4, 91.6 79.7, 89.4 66.8 C 96.5 79.4, 35.9 89.5, 38.4 80.7 " fill="hsl(83, 65%, 44%)" fill-opacity="0.81" stroke="none" stroke-width="4.54"  transform="translate(36.0 73.0) rotate(81.0) scale(0.75 1.73)" />
<rect x="22.1" y="2.1" width="37.4" height="34.8" rx="0" fill="none" fill-opacity="0.45"    />
<rect x="5.3" y="20.1" width="31.5" height="28.1" rx="0" fill="none" fill-opacity="0.91"   transform="translate(49.4 71.6) rotate(128.6) scale(1.36 1.82)" />
<path d="M 37.2 67.3 C 40.7 84.9, 46.9 5.9, 41.6 8.7 C 46.9 9.8, 31.2 26.1, 23.2 35.6 C 17.6 42.9, 0.0 18.6, 13.4 8.5 C 3.0 5.3, 80.7 6.9, 84.5 15.6 C 97.8 25.8, 45.1 25.5, 35.7 18.8 C 34.2 26.5, 6.3 87.3, 4.1 97.1 C 17.4 85.1, 60.2 32.8, 58.4 21.2 C 49.0 30.4, 19.8 5.3, 31.8 11.0 C 14.0 2.5, 67.8 60.0, 75.9 57.8 Z" fill="hsl(144, 86%, 72%)" fill-opacity="0.26" stroke="none" stroke-width="1.54"  transform="translate(2.1 1.2) rotate(257.9) scale(1.57 1.81)" />
<path d="M 31.8 22.3 C 42.0 29.1, 8.8 65.4, 20.2 51.3 C 1.1 38.7, 14.3 9.5, 3.4 15.4 C 0.0 1.0, 62.6 9.1, 67.8 3.4 C 57.4 0.0, 63.8 66.2, 49.2 65.4 C 43.6 67.8, 21.7 93.7, 10.3 88.0 C 20.9 68.4, 54.8 19.0, 59.5 29.0 C 58.3 40.9, 47.4 42.7, 46.4 38.9 C 30.7 46.2, 50.0 29.4, 35.8 21.9 C 26.6 40.8, 94.3 76.7, 96.4 75.9 " fill="hsl(242, 72%, 49%)" fill-opacity="0.48" stroke="none" stroke-width="1.65"  transform="translate(47.5 43.4) rotate(230.9) scale(0.74 0.56)" />
<path d="M 20.7 62.2 C 18.1 74.5, 100.0 22.4, 90.7 22.6 C 97.5 3.7, 92.6 79.7, 95.6 74.3 C 100.0 83.4, 45.9 26.9, 42.0 31.1 C 28.0 18.4, 63.1 17.6, 73.0 30.5 C 61.4 26.7, 60.0 69.7, 60.6 78.3 C 42.5 61.1, 48.4 100.0, 49.0 95.9 " fill="hsl(322, 74%, 44%)" fill-opacity="0.36" stroke="none" stroke-width="1.28"  transform="translate(63.3 59.1) rotate(51.7) scale(1.63 1.72)" />
<path d="M 37.2 90.1 C 38.6 100.0, 6.1 74.8, 15.8 89.3 C 33.0 77.3, 85.9 37.3, 92.5 33.8 C 100.0 27.3, 21.7 95.1, 28.5 95.4 C 44.7 100.0, 11.2 57.9, 25.9 60.6 C 26.0 60.6, 87.7 50.7, 81.6 64.3 C 85.8 56.8, 83.7 26.8, 88.6 17.5 C 91.7 36.7, 33.5 64.9, 36.4 75.6 C 52.7 92.1, 61.4 29.3, 48.2 34.4 C 66.1 28.1, 55.2 56.7, 58.3 66.0 Z" fill="hsl(104, 72%, 65%)" fill-opacity="0.77" stroke="none" stroke-width="2.94"  transform="translate(32.8 57.9) rotate(260.6) scale(0.53 1.08)" />
<circle cx="32.2" cy="89.2" r="4.0" fill="url(#g0)" fill-opacity="0.57"  transform="translate(19.9 16.2) rotate(178.3) scale(1.91 1.46)" />
<path d="M 64.4 68.6 C 71.1 61.1, 68.1 20.3, 76.8 24.3 C 57.9 30.7, 19.9 36.7, 19.2 34.7 C 9.9 18.4, 100.0 41.5, 94.9 39.2 C 94.7 26.0, 54.6 34.7, 53.2 30.2 C 49.3 50.0, 70.5 66.6, 62.1 55.1 C 80.9 62.4, 33.4 98.5, 41.9 89.5 " fill="hsl(104, 72%, 65%)" fill-opacity="0.35" stroke="none" stroke-width="3.13" filter="url(#f1)" transform="translate(18.8 58.0) rotate(165.7) scale(1.43 1.81)" />
<path d="M 41.4 33.8 C 44.2 28.9, 25.8 44.5, 25.1 34.6 C 9.2 48.6, 100.0 99.8, 95.8 88.5 C 99.2 79.1, 19.5 43.0, 26.8 51.9 C 13.4 65.7, 100.0 37.7, 90.7 43.4 C 95.3 31.8, 0.0 45.0, 3.5 50.4 C 7.5 42.9, 45.5 69.1, 33.9 59.2 C 53.7 47.9, 53.5 16.6, 68.4 23.9 C 79.5 25.9, 52.5 63.3, 47.6 75.5 Z" fill="hsl(104, 72%, 65%)" fill-opacity="0.86" stroke="none" stroke-width="2.96"   />
<path d="M 67.9 50.9 C 63.6 70.7, 54.2 82.6, 64.5 79.5 C 50.8 69.2, 45.0 14.6, 46.0 0.8 C 36.0 5.9, 100.0 43.0, 92.7 43.1 C 98.2 51.6, 55.0 25.0, 61.0 33.7 C 65.0 48.2, 92.6 38.0, 84.8 39.9 C 98.8 58.7, 57.0 54.8, 67.6 40.4 C 64.4 42.8, 91.3 34.8, 79.8 46.6 C 94.3 44.3, 36.5 12.4, 51.0 12.7 C 70.9 31.5, 39.5 12.2, 42.2 16.4 C 45.9 36.1, 9.6 57.1, 11.0 61.5 Z" fill="none" fill-opacity="0.36" stroke="hsl(144, 86%, 72%)" stroke-width="4.56"  transform="translate(5.3 43.5) rotate(180.6) scale(1.54 1.11)" />
<path d="M 32.6 55.9 C 27.4 54.4, 78.9 91.4, 87.3 89.4 C 97.3 71.5, 44.7 20.2, 51.0 29.9 C 48.8 27.5, 42.0 6.3, 51.3 10.3 C 54.6 13.9, 100.0 57.4, 94.2 46.3 C 99.3 44.1, 86.0 1.7, 90.7 3.6 C 94.9 15.0, 25.2 21.6, 18.3 24.5 C 5.5 7.2, 46.7 81.6, 48.1 76.1 Z" fill="hsl(2, 82%, 55%)" fill-opacity="0.96" stroke="none" stroke-width="1.07"  transform="translate(70.2 25.0) rotate(32.0) scale(1.24 1.02)" />
<path d="M 19.0 79.8 C 20.6 76.9, 87.6 16.8, 73.0 28.4 C 60.8 31.3, 23.6 88.6, 19.1 82.8 C 33.0 76.0, 0.9 42.0, 12.2 50.0 C 19.1 41.5, 24.8 60.0, 22.7 51.1 C 21.5 68.0, 26.0 15.1, 21.1 16.4 C 40.6 25.7, 56.5 86.8, 46.4 84.6 C 30.4 94.0, 34.1 80.4, 21.6 77.9 C 32.6 90.3, 12.6 61.2, 8.2 66.9 " fill="hsl(86, 72%, 68%)" fill-opacity="0.27" stroke="none" stroke-width="1.82"  transform="translate(17.6 29.7) rotate(353.5) scale(1.37 1.81)" />
<rect x="26.8" y="83.3" width="38.5" height="14.5" rx="10.5" fill="none" fill-opacity="0.86" stroke="hsl(144, 86%, 72%)" stroke-width="3.5"  transform="translate(31.1 60.3) rotate(230.7) scale(1.25 1.23)" />
<path d="M 0.8 9.4 C 0.0 2.5, 85.5 15.2, 84.4 8.4 C 70.9 0.0, 82.7 99.5, 75.2 89.3 C 92.5 97.2, 7.7 46.0, 16.7 53.6 C 16.4 36.9, 100.0 79.2, 94.8 83.7 C 94.8 75.9, 0.0 63.0, 1.5 73.1 C 0.0 53.3, 92.5 53.6, 86.4 41.5 C 69.6 53.2, 23.6 18.8, 15.0 25.0 C 28.2 13.4, 68.6 82.0, 76.0 69.9 C 80.1 71.6, 60.3 40.1, 49.5 49.5 Z" fill="none" fill-opacity="0.77" stroke="hsl(86, 72%, 68%)" stroke-width="3.57"  transform="translate(90.2 81.2) rotate(79.9) scale(1.79 0.86)" />
<path d="M 53.4 92.8 C 70.5 85.0, 70.9 78.3, 72.3 83.6 C 52.7 75.5, 88.1 35.2, 89.1 39.8 C 88.1 38.0, 20.9 70.0, 18.4 78.9 C 19.2 84.3, 36.8 23.0, 25.1 28.1 C 41.0 22.1, 36.4 92.5, 47.9 95.6 C 29.9 100.0, 53.9 2.9, 51.6 0.6 C 34.3 18.7, 41.7 60.1, 37.7 69.9 Z" fill="hsl(86, 72%, 68%)" fill-opacity="0.26" stroke="none" stroke-width="0.91"  transform="translate(68.7 23.9) rotate(105.7) scale(1.17 1.30)" />
<rect x="23.7" y="14.5" width="42.6" height="16.2" rx="0" fill="none" fill-opacity="0.31"  filter="url(#f1)" transform="translate(29.8 44.5) rotate(75.5) scale(0.80 1.34)" />
<path d="M 61.6 47.3 C 54.0 63.9, 41.7 37.2, 48.4 37.7 C 30.9 52.2, 92.4 62.1, 92.0 67.3 C 81.5 65.1, 98.5 23.5, 95.0 31.6 C 77.0 34.3, 79.7 70.6, 80.8 84.6 C 93.9 73.0, 64.4 39.6, 69.5 40.0 C 58.8 32.5, 67.1 15.7, 68.3 19.9 C 75.7 18.6, 0.0 50.2, 8.0 62.9 C 12.6 70.6, 21.6 58.5, 13.7 58.5 C 15.1 77.9, 0.0 39.0, 4.5 53.9 C 5.6 41.4, 3.6 1.5, 7.7 4.1 Z" fill="hsl(106, 75%, 59%)" fill-opacity="0.48" stroke="none" stroke-width="2.25"  transform="translate(87.2 65.7) rotate(46.8) scale(1.20 1.89)" />
<rect x="37.6" y="55.1" width="47.2" height="12.0" rx="0" fill="none" fill-opacity="0.38"   transform="translate(21.4 95.5) rotate(296.6) scale(1.47 1.41)" />
<path d="M 9.9 85.3 C 26.6 72.1, 43.4 90.8, 46.8 90.7 C 46.9 88.5, 6.8 23.9, 1.1 23.2 C 4.0 24.1, 66.3 91.9, 61.5 83.0 C 41.6 90.6, 12.7 85.6, 8.5 96.2 C 18.9 100.0, 24.5 80.4, 24.4 94.9 C 21.9 82.1, 100.0 60.9, 88.4 70.3 C 97.4 54.0, 74.7 52.0, 80.0 48.5 C 64.5 47.3, 18.7 29.6, 11.0 21.7 C 0.0 19.5, 57.5 48.3, 65.3 39.8 Z" fill="none" fill-opacity="0.54" stroke="hsl(183, 71%, 60%)" stroke-width="0.91"  transform="translate(70.1 38.0) rotate(325.2) scale(0.55 0.63)" />
<path d="M 17.2 66.1 C 14.2 58.7, 49.3 0.0, 53.9 4.1 C 53.9 16.6, 74.2 59.9, 73.6 59.5 C 54.0 58.2, 31.6 89.3, 17.2 88.9 C 13.6 88.2, 78.4 73.2, 91.0 77.3 C 92.6 66.7, 39.0 77.2, 46.9 85.5 C 41.0 100.0, 7.2 17.8, 15.6 24.8 C 33.4 6.3, 28.4 34.4, 27.4 37.7 C 38.8 43.7, 57.8 14.9, 66.9 28.7 Z" fill="hsl(151, 70%, 62%)" fill-opacity="0.35" stroke="none" stroke-width="3.52"  transform="translate(56.3 69.4) rotate(189.7) scale(1.13 1.63)" />
<path d="M 85.5 89.5 C 76.8 92.0, 64.9 0.0, 77.9 13.5 C 96.2 14.1, 28.1 25.4, 27.1 16.8 C 27.6 12.5, 49.4 91.1, 35.3 97.9 C 33.1 100.0, 16.3 60.5, 15.8 70.0 C 9.0 74.9, 7.6 62.3, 19.0 61.9 C 21.2 46.0, 95.3 85.8, 86.1 94.2 C 79.8 88.4, 78.5 89.2, 65.2 91.5 C 70.4 100.0, 26.7 52.4, 30.3 54.4 C 50.2 57.0, 32.5 14.7, 21.1 24.1 Z" fill="hsl(242, 72%, 49%)" fill-opacity="0.90" stroke="none" stroke-width="3.41"  transform="translate(73.6 61.5) rotate(120.7) scale(1.88 1.73)" />
<path d="M 54.7 24.2 C 54.9 12.0, 2.6 19.8, 1.5 33.5 C 0.0 47.0, 94.0 56.8, 88.8 56.2 C 75.5 55.4, 59.9 32.4, 49.2 44.9 C 39.0 26.2, 74.0 29.5, 75.3 39.4 C 86.0 21.3, 33.8 45.2, 28.6 48.3 C 34.2 54.3, 56.0 4.0, 47.7 1.3 Z" fill="none" fill-opacity="0.54" stroke="hsl(151, 70%, 62%)" stroke-width="4.84"  transform="translate(56.3 26.9) rotate(298.4) scale(1.22 1.73)" />
<path d="M 79.9 14.9 C 67.0 28.1, 55.2 25.0, 58.3 33.6 C 52.6 47.2, 55.1 16.5, 46.7 17.1 C 45.7 0.0, 7.0 47.8, 0.9 34.7 C 8.9 45.8, 28.7 20.5, 32.7 21.5 C 15.3 34.2, 83.2 51.8, 71.7 38.0 C 70.6 49.5, 19.7 68.9, 24.9 80.0 C 8.1 61.0, 29.1 61.8, 18.0 72.0 C 35.1 69.3, 15.9 61.5, 3.9 75.8 " fill="none" fill-opacity="0.57" stroke="hsl(322, 74%, 44%)" stroke-width="4.48" filter="url(#f1)" transform="translate(97.0 13.7) rotate(59.0) scale(1.14 0.72)" />
<path d="M 70.5 23.4 C 73.1 19.2, 73.3 21.1, 75.4 26.4 C 59.9 33.7, 56.7 73.4, 58.2 68.1 C 64.3 62.8, 84.9 92.3, 80.2 81.5 C 82.6 64.2, 85.2 9.4, 75.4 14.6 C 82.9 25.8, 9.2 62.3, 9.1 77.2 C 8.4 72.2, 73.7 11.7, 81.1 7.5 C 84.7 8.9, 42.2 4.9, 51.2 4.4 C 67.8 20.8, 47.1 68.8, 36.6 54.3 C 50.6 68.4, 58.9 62.0, 72.0 71.5 Z" fill="hsl(83, 65%, 44%)" fill-opacity="0.70" stroke="none" stroke-width="1.56"  transform="translate(86.2 8.4) rotate(113.4) scale(1.56 1.01)" />
<path d="M 97.2 18.0 C 90.2 37.3, 17.2 87.8, 12.8 81.7 C 27.5 100.0, 26.2 96.7, 17.5 94.3 C 2.9 100.0, 84.0 38.0, 78.4 36.0 C 66.7 51.5, 58.1 70.7, 55.9 64.7 C 67.2 75.4, 85.0 21.6, 93.5 18.2 C 100.0 10.1, 15.3 66.2, 3.6 51.7 C 17.6 69.6, 68.6 68.6, 77.6 69.1 C 94.0 64.9, 70.0 43.0, 71.8 44.4 " fill="hsl(2, 82%, 55%)" fill-opacity="0.87" stroke="none" stroke-width="1.90"  transform="translate(26.9 95.7) rotate(329.7) scale(1.19 0.93)" />
<path d="M 71.9 31.4 C 71.4 22.3, 0.0 26.5, 11.2 32.7 C 0.0 19.9, 81.1 80.7, 83.8 70.5 C 83.7 51.8, 61.3 21.6, 56.9 22.9 C 49.6 8.1, 4.8 100.0, 0.1 94.1 C 0.0 90.1, 13.1 58.8, 20.9 66.4 C 36.3 53.9, 18.1 49.5, 7.7 47.9 C 14.9 59.6, 0.0 8.7, 1.0 3.2 Z" fill="none" fill-opacity="0.69" stroke="hsl(322, 74%, 44%)" stroke-width="3.79"  transform="translate(0.6 75.5) rotate(322.1) scale(1.27 1.54)" />
<circle cx="61.5" cy="53.8" r="2.3" fill="hsl(2, 82%, 55%)" fill-opacity="0.76"  transform="translate(3.2 18.5) rotate(309.2) scale(1.24 1.30)" />
<rect x="14.6" y="35.7" width="49.7" height="10.7" rx="0" fill="none" fill-opacity="0.76" stroke="hsl(40, 53%, 69%)" stroke-width="1.3"  transform="translate(60.0 24.8) rotate(224.5) scale(1.58 0.68)" />
<g opacity="0.042">
<rect x="0" y="0" width="1" height="100" fill="black" />
<rect x="22" y="0" width="1" height="100" fill="black" />
<rect x="44" y="0" width="1" height="100" fill="black" />
<rect x="66" y="0" width="1" height="100" fill="black" />
<rect x="88" y="0" width="1" height="100" fill="black" />
<rect x="0" y="0" width="100" height="1" fill="black" />
<rect x="0" y="22" width="100" height="1" fill="black" />
<rect x="0" y="44" width="100" height="1" fill="black" />
<rect x="0" y="66" width="100" height="1" fill="black" />
<rect x="0" y="88" width="100" height="1" fill="black" />
</g>

</svg>
