<?xml version="1.0" encoding="UTF-8"?>
<svg xmlns="http://www.w3.org/2000/svg" width="100" height="100" viewBox="0 0 100 100">
<defs>
<linearGradient id="g0" x1="0%" y1="0%" x2="100%" y2="100%">
<stop offset="0.0%" stop-color="hsl(106, 75%, 59%)" />
<stop offset="33.3%" stop-color="hsl(183, 71%, 60%)" />
<stop offset="66.7%" stop-color="hsl(242, 72%, 49%)" />
<stop offset="100.0%" stop-color="hsl(322, 74%, 44%)" />
</linearGradient>
<linearGradient id="g1" x1="0%" y1="0%" x2="100%" y2="100%">
<stop offset="0.0%" stop-color="hsl(290, 83%, 63%)" />
<stop offset="33.3%" stop-color="hsl(2, 82%, 55%)" />
<stop offset="66.7%" stop-color="hsl(86, 72%, 68%)" />
<stop offset="100.0%" stop-color="hsl(83, 65%, 44%)" />
</linearGradient>
<linearGradient id="g2" x1="0%" y1="0%" x2="100%" y2="100%">
<stop offset="0.0%" stop-color="hsl(40, 53%, 69%)" />
<stop offset="33.3%" stop-color="hsl(104, 72%, 65%)" />
<stop offset="66.7%" stop-color="hsl(144, 86%, 72%)" />
<stop offset="100.0%" stop-color="hsl(151, 70%, 62%)" />
</linearGradient>
<filter id="f1" x="-20%" y="-20%" width="140%" height="140%">
  <feGaussianBlur stdDeviation="0.8550365922936694" />
</filter>

</defs>

<path d="M 3.4 79.2 C 0.5 73.6, 28.6 13.7, 29.3 24.5 C 36.2 35.2, 71.0 95.8, 59.4 96.3 C 43.9 90.6, 79.7 6.6, 79.0 11.2 C 72.8 18.7, 69.0 59.3, 83.2 73.4 C 89.9 66.8, 64.3 36.1, 78.1 38.4 C 97.2 36.0, 15.0 81.6, 8.8 86.0 C 14.5 81.5, 78.7 84.0, 69.7 72.5 Z" fill="none" fill-opacity="0.25" stroke="hsl(83, 65%, 44%)" stroke-width="3.91"  transform="translate(21.0 10.3) rotate(180.2) scale(0.53 1.85)" />
<rect x="34.8" y="9.2" width="26.4" height="32.1" rx="0" fill="none" fill-opacity="0.47"   transform="translate(49.1 14.9) rotate(310.9) scale(0.55 1.83)" />
<path d="M 97.9 52.0 C 87.3 41.9, 32.1 38.2, 38.5 25.6 C 57.1 32.6, 12.3 94.7, 16.1 85.4 C 19.9 82.4, 50.6 70.5, 48.2 74.1 C 30.7 79.4, 80.6 43.8, 76.5 54.6 C 92.8 64.8, 78.3 67.7, 82.1 62.4 C 98.1 81.5, 68.9 31.0, 63.8 42.4 C 82.4 53.2, 62.1 55.9, 59.8 65.9 Z" fill="hsl(322, 74%, 44%)" fill-opacity="0.86" stroke="none" stroke-width="3.26"  transform="translate(43.5 2.0) rotate(236.1) scale(0.53 0.86)" />
<path d="M 55.8 79.1 C 41.7 84.5, 41.9 60.1, 43.7 47.6 C 55.4 58.3, 75.5 97.3, 78.8 94.8 C 98.3 77.2, 67.0 12.5, 69.8 13.2 C 89.3 19.1, 27.6 32.7, 28.9 38.0 C 41.1 36.7, 18.7 18.2, 33.3 32.8 C 26.3 28.9, 25.3 99.1, 24.6 95.8 C 7.2 81.3, 47.1 100.0, 42.6 95.5 Z" fill="hsl(106, 75%, 59%)" fill-opacity="0.25" stroke="none" stroke-width="1.10"   />
<circle cx="85.7" cy="50.3" r="6.9" fill="hsl(322, 74%, 44%)" fill-opacity="0.78"  transform="translate(0.5 97.6) rotate(23.2) scale(0.80 1.95)" />
<rect x="29.5" y="59.4" width="46.7" height="37.2" rx="13.1" fill="hsl(86, 72%, 68%)" fill-opacity="0.73"   transform="translate(22.2 70.1) rotate(270.5) scale(1.33 1.60)" />
<rect x="21.1" y="17.9" width="26.3" height="24.8" rx="0" fill="hsl(242, 72%, 49%)" fill-opacity="0.25"   transform="translate(76.7 82.7) rotate(265.7) scale(1.95 1.81)" />
<path d="M 85.5 68.1 C 71.1 61.2, 4.9 89.9, 15.2 82.6 C 30.3 84.4, 71.1 64.6, 62.1 71.2 C 64.0 57.8, 26.3 56.4, 28.0 64.8 C 38.9 67.5, 68.5 100.0, 63.9 92.9 C 58.0 75.6, 3.5 7.7, 14.3 18.0 C 0.0 13.1, 43.0 81.4, 56.8 92.4 Z" fill="hsl(322, 74%, 44%)" fill-opacity="0.91" stroke="none" stroke-width="4.18"  transform="translate(32.5 25.1) rotate(292.2) scale(1.89 1.08)" />
<path d="M 72.0 68.6 C 73.0 51.2, 43.4 59.6, 44.0 53.7 C 63.2 37.7, 50.8 97.2, 50.8 92.8 C 50.8 73.8, 46.8 82.6, 36.2 80.0 C 40.8 85.2, 0.0 24.6, 5.4 26.3 C 8.9 27.1, 40.1 59.9, 27.7 58.2 C 41.1 72.8, 38.7 40.3, 39.6 46.7 C 22.0 53.6, 62.4 0.0, 61.5 10.1 C 46.8 13.4, 41.4 0.0, 51.5 9.2 Z" fill="hsl(144, 86%, 72%)" fill-opacity="0.71" stroke="none" stroke-width="2.09"   />
<path d="M 65.1 48.5 C 74.3 45.5, 80.8 64.4, 88.1 52.5 C 81.5 43.7, 93.8 66.8, 96.7 73.2 C 95.5 89.6, 39.2 49.2, 43.0 52.3 C 23.2 65.4, 71.6 96.3, 76.3 89.5 C 71.9 70.9, 18.5 51.3, 28.7 51.5 C 24.5 32.4, 92.6 73.0, 98.7 60.9 Z" fill="hsl(86, 72%, 68%)" fill-opacity="0.44" stroke="none" stroke-width="5.07"  transform="translate(31.3 24.8) rotate(86.6) scale(1.05 0.81)" />
<circle cx="94.3" cy="82.8" r="0.1" fill="hsl(322, 74%, 44%)" fill-opacity="0.60"  transform="translate(77.0 13.8) rotate(314.4) scale(1.41 1.90)" />
<path d="M 38.8 93.8 C 43.5 92.1, 26.0 33.6, 19.4 37.8 C 35.4 23.5, 98.6 81.4, 88.6 69.1 C 85.7 75.3, 13.6 63.9, 27.4 56.2 C 21.0 56.0, 14.8 43.2, 6.6 43.0 C 10.4 57.8, 88.9 100.0, 74.0 96.5 C 75.4 100.0, 48.4 49.0, 51.7 52.9 C 36.6 52.6, 69.0 69.7, 58.7 68.0 Z" fill="none" fill-opacity="0.95" stroke="hsl(242, 72%, 49%)" stroke-width="3.07"  transform="translate(67.0 76.5) rotate(95.2) scale(1.99 1.28)" />
<path d="M 62.1 55.5 C 53.0 57.2, 100.0 86.2, 94.3 89.1 C 100.0 99.5, 65.9 83.1, 63.6 79.5 C 49.0 70.9, 73.3 60.6, 83.9 49.5 C 71.4 68.9, 47.4 38.2, 58.5 42.6 C 43.1 46.3, 83.9 0.0, 72.6 3.1 C 90.2 0.0, 38.8 69.8, 34.7 67.7 Z" fill="none" fill-opacity="0.41" stroke="hsl(83, 65%, 44%)" stroke-width="3.66"   />
<path d="M 12.7 74.4 C 12.1 81.2, 49.3 87.8, 39.0 94.3 C 30.5 84.3, 55.3 69.8, 66.8 65.7 C 57.8 61.7, 71.5 43.5, 57.3 43.7 C 49.2 32.6, 20.1 44.0, 25.7 59.0 C 15.7 67.8, 42.7 87.4, 34.9 91.8 C 36.0 98.5, 47.9 36.4, 59.0 46.8 C 62.9 29.7, 84.0 37.3, 70.0 33.3 Z" fill="hsl(183, 71%, 60%)" fill-opacity="0.63" stroke="none" stroke-width="1.31"  transform="translate(9.6 88.6) rotate(332.6) scale(0.74 1.35)" />
<circle cx="80.8" cy="90.0" r="4.6" fill="hsl(290, 83%, 63%)" fill-opacity="0.70"  transform="translate(64.4 56.5) rotate(216.1) scale(1.09 1.86)" />
<circle cx="59.6" cy="56.0" r="2.0" fill="url(#g2)" fill-opacity="0.95"  transform="translate(33.9 55.8) rotate(239.1) scale(0.52 1.55)" />
<rect x="57.7" y="50.4" width="30.7" height="21.0" rx="14.7" fill="hsl(83, 65%, 44%)" fill-opacity="0.80"   transform="translate(82.6 28.6) rotate(339.2) scale(0.71 1.67)" />
<path d="M 21.8 20.2 C 28.4 4.9, 84.2 95.7, 86.4 93.9 C 100.0 76.6, 100.0 62.0, 94.8 76.6 C 81.8 82.6, 89.7 0.2, 89.3 9.2 C 74.1 14.2, 72.5 11.0, 84.3 11.7 C 94.6 15.1, 43.5 72.8, 55.1 62.7 C 53.3 60.1, 10.3 99.8, 20.3 93.2 C 34.5 75.0, 92.4 46.3, 82.7 34.4 C 90.2 21.9, 38.0 9.7, 38.2 15.2 C 33.0 17.3, 52.8 100.0, 54.9 92.6 C 53.5 96.8, 87.4 0.0, 91.4 1.0 Z" fill="hsl(242, 72%, 49%)" fill-opacity="0.29" stroke="none" stroke-width="4.23"  transform="translate(54.8 6.1) rotate(215.3) scale(1.62 1.45)" />
<circle cx="15.6" cy="26.4" r="1.7" fill="url(#g0)" fill-opacity="0.73"   />
<circle cx="58.6" cy="27.2" r="4.2" fill="hsl(144, 86%, 72%)" fill-opacity="0.52"  transform="translate(29.0 94.7) rotate(340.7) scale(1.42 1.74)" />
<rect x="37.5" y="34.6" width="28.5" height="29.2" rx="0" fill="none" fill-opacity="0.58" stroke="hsl(144, 86%, 72%)" stroke-width="4.0"  transform="translate(72.9 1.3) rotate(299.6) scale(0.71 1.01)" />
<path d="M 50.2 97.6 C 32.8 100.0, 92.0 8.9, 88.9 1.4 C 92.9 19.2, 55.2 68.2, 51.0 63.2 C 50.5 64.0, 88.0 0.0, 86.1 2.5 C 85.5 0.0, 43.0 6.8, 35.0 19.3 C 34.0 17.1, 68.4 87.8, 56.6 85.3 C 57.0 81.2, 45.5 30.1, 32.4 41.0 C 37.7 29.7, 75.6 79.5, 83.9 81.1 C 94.8 93.7, 29.4 100.0, 34.0 97.9 Z" fill="hsl(290, 83%, 63%)" fill-opacity="0.41" stroke="none" stroke-width="2.43"  transform="translate(15.4 90.4) rotate(285.8) scale(1.29 0.91)" />
<path d="M 85.0 89.7 C 99.1 86.9, 39.5 68.7, 41.0 55.6 C 52.0 62.3, 55.4 3.7, 52.9 8.1 C 39.6 0.0, 17.4 22.5, 15.6 34.7 C 1.9 19.7, 89.6 74.0, 92.7 60.2 C 88.0 74.0, 18.6 24.7, 14.9 25.9 C 30.8 27.2, 26.8 20.8, 40.0 33.0 Z" fill="hsl(144, 86%, 72%)" fill-opacity="0.63" stroke="none" stroke-width="2.54"  transform="translate(42.5 41.3) rotate(278.7) scale(1.24 1.97)" />
<path d="M 16.7 68.7 C 5.4 74.5, 28.4 41.9, 26.5 53.5 C 36.8 40.2, 99.0 73.1, 99.4 81.9 C 88.1 78.5, 38.1 59.4, 49.7 49.5 C 31.8 55.4, 18.3 82.9, 25.8 82.4 C 30.8 79.8, 52.6 100.0, 55.6 94.2 C 51.3 95.3, 85.7 94.2, 94.2 82.5 C 100.0 83.4, 71.9 77.8, 65.1 86.0 Z" fill="none" fill-opacity="0.92" stroke="hsl(86, 72%, 68%)" stroke-width="2.77"  transform="translate(53.4 32.9) rotate(171.9) scale(0.62 1.42)" />
<path d="M 4.4 71.2 C 7.1 75.5, 95.9 53.5, 87.5 43.5 C 96.4 30.0, 37.7 41.9, 36.0 41.4 C 17.9 55.5, 62.8 61.2, 72.1 49.3 C 76.4 48.4, 38.4 73.2, 41.9 80.6 C 41.7 62.1, 19.8 49.8, 11.6 61.8 C 20.9 43.4, 48.6 83.0, 49.7 88.1 C 45.2 100.0, 43.8 80.0, 41.1 76.7 C 31.2 68.5, 58.8 10.6, 61.2 15.1 Z" fill="none" fill-opacity="0.46" stroke="hsl(104, 72%, 65%)" stroke-width="2.01"  transform="translate(31.9 7.8) rotate(17.6) scale(1.14 1.00)" />
<path d="M 98.9 93.5 C 100.0 100.0, 91.6 86.4, 77.8 85.3 C 74.2 89.4, 28.5 9.4, 14.8 10.8 C 0.0 6.9, 42.5 20.4, 42.7 12.1 C 36.1 7.6, 76.1 52.0, 87.6 62.6 C 73.7 78.0, 4.0 6.2, 11.3 14.9 C 21.5 0.0, 91.5 0.0, 81.0 3.8 C 75.4 0.0, 0.0 43.3, 3.5 39.7 C 13.6 48.1, 98.2 7.9, 88.5 20.2 C 100.0 18.7, 91.0 5.4, 81.0 1.3 Z" fill="hsl(290, 83%, 63%)" fill-opacity="0.79" stroke="none" stroke-width="4.71"  transform="translate(84.9 58.0) rotate(157.0) scale(1.69 0.99)" />
<path d="M 56.7 49.8 C 47.9 52.1, 55.6 47.4, 47.6 33.0 C 64.6 32.0, 48.6 20.7, 44.4 18.8 C 36.4 13.8, 98.4 0.0, 83.9 6.9 C 91.1 19.4, 77.7 28.8, 86.4 27.5 C 80.4 13.8, 100.0 100.0, 95.6 96.0 C 86.5 100.0, 0.0 69.1, 7.8 66.9 C 6.9 77.2, 0.0 47.3, 0.7 53.2 Z" fill="none" fill-opacity="0.87" stroke="hsl(2, 82%, 55%)" stroke-width="4.17"  transform="translate(53.8 71.4) rotate(174.1) scale(1.77 1.74)" />
<path d="M 46.9 10.4 C 65.1 4.3, 82.9 100.0, 74.6 94.6 C 80.9 97.3, 16.1 55.5, 14.4 58.8 C 6.5 50.7, 43.0 18.8, 29.6 9.3 C 25.2 17.8, 56.2 0.0, 45.5 4.8 C 51.7 0.0, 44.5 79.6, 45.2 85.5 C 30.9 91.0, 57.1 88.2, 70.2 76.0 C 73.1 57.2, 85.8 54.1, 95.7 52.4 C 91.0 64.7, 75.6 45.2, 80.0 52.0 C 75.6 59.1, 85.6 43.2, 77.6 30.4 C 83.5 26.8, 64.1 58.1, 54.6 65.8 Z" fill="hsl(183, 71%, 60%)" fill-opacity="0.41" stroke="none" stroke-width="1.32"   />
<circle cx="21.2" cy="40.7" r="7.9" fill="url(#g2)" fill-opacity="0.57"  transform="translate(62.4 46.4) rotate(211.0) scale(0.67 0.67)" />
<path d="M 60.0 27.6 C 52.8 32.3, 60.8 59.5, 51.6 55.0 C 33.3 74.2, 32.6 15.9, 19.3 11.0 C 32.1 14.5, 36.3 11.6, 31.3 10.9 C 43.7 23.7, 33.8 90.7, 34.4 83.1 C 45.8 89.2, 59.9 25.7, 46.5 21.0 C 60.1 3.0, 29.5 29.2, 24.1 14.2 C 7.8 0.0, 76.4 79.4, 74.4 75.2 C 90.1 95.2, 100.0 61.6, 97.0 53.2 C 100.0 48.1, 85.3 0.0, 80.3 2.3 C 86.5 0.0, 41.7 50.4, 48.3 60.5 Z" fill="hsl(86, 72%, 68%)" fill-opacity="0.91" stroke="none" stroke-width="2.10"  transform="translate(53.4 74.9) rotate(345.8) scale(0.65 1.35)" />
<rect x="41.9" y="16.8" width="49.5" height="26.8" rx="14.6" fill="none" fill-opacity="0.55"   transform="translate(17.3 24.8) rotate(166.6) scale(1.16 1.54)" />
<path d="M 3.5 65.6 C 0.0 57.8, 42.2 95.3, 43.8 86.8 C 43.4 74.8, 30.1 42.4, 18.8 43.3 C 26.7 55.8, 17.5 42.9, 30.9 46.6 C 30.9 60.6, 77.7 37.2, 66.7 26.5 C 83.7 12.1, 94.6 30.7, 94.1 31.6 C 87.9 41.9, 37.4 89.4, 49.4 83.2 C 41.4 73.6, 28.2 95.1, 19.6 85.4 C 23.7 91.6, 26.2 0.0, 35.7 5.0 C 16.8 12.3, 94.6 10.4, 95.4 12.7 Z" fill="hsl(144, 86%, 72%)" fill-opacity="0.95" stroke="none" stroke-width="4.68"   />
<path d="M 27.1 28.5 C 19.1 8.8, 100.0 0.0, 99.9 3.2 C 80.5 15.2, 0.0 46.9, 0.4 44.3 C 19.2 53.0, 66.3 65.0, 65.4 54.4 C 69.8 35.8, 22.2 6.2, 27.3 8.7 C 18.7 11.9, 82.9 59.6, 91.4 60.2 C 96.2 63.4, 38.3 53.4, 24.2 43.3 Z" fill="hsl(83, 65%, 44%)" fill-opacity="0.53" stroke="none" stroke-width="2.18"  transform="translate(35.5 24.5) rotate(225.1) scale(0.85 1.32)" />
<circle cx="66.4" cy="60.7" r="4.7" fill="url(#g1)" fill-opacity="0.46"  transform="translate(12.2 66.6) rotate(64.0) scale(1.70 1.97)" />
<path d="M 97.9 50.3 C 90.0 52.0, 57.7 87.3, 46.3 76.5 C 50.6 69.1, 69.6 92.6, 72.2 94.9 C 59.3 100.0, 38.2 62.0, 28.0 58.6 C 46.4 73.4, 100.0 52.8, 96.2 53.0 C 100.0 33.5, 79.1 19.9, 81.7 22.0 C 100.0 8.1, 39.4 16.7, 29.2 6.2 C 33.2 5.2, 94.3 4.2, 97.3 2.0 C 90.9 12.3, 16.6 24.5, 24.5 37.9 C 35.5 55.3, 28.1 27.6, 24.3 13.1 C 42.3 4.4, 87.8 18.9, 76.1 29.1 Z" fill="none" fill-opacity="0.37" stroke="hsl(290, 83%, 63%)" stroke-width="1.28"  transform="translate(33.6 78.3) rotate(196.9) scale(0.78 0.73)" />
<path d="M 17.0 41.2 C 16.9 37.1, 72.4 25.7, 86.1 24.6 C 86.2 40.7, 35.3 29.5, 43.7 39.1 C 27.3 23.9, 82.4 30.7, 72.1 35.4 C 70.4 49.6, 19.4 48.2, 28.5 42.1 C 20.4 51.7, 100.0 95.3, 96.8 90.0 C 85.9 93.4, 50.0 9.6, 56.1 3.7 C 75.3 21.4, 99.1 95.0, 85.0 98.6 C 88.5 80.1, 42.8 47.6, 35.1 43.0 C 38.4 45.0, 15.5 75.2, 14.9 83.4 Z" fill="hsl(83, 65%, 44%)" fill-opacity="0.60" stroke="none" stroke-width="3.43"  transform="translate(68.4 85.1) rotate(274.2) scale(0.69 1.13)" />
<circle cx="100.0" cy="71.0" r="2.6" fill="url(#g0)" fill-opacity="0.71"   />
<rect x="33.1" y="56.4" width="21.3" height="10.5" rx="17.5" fill="hsl(40, 53%, 69%)" fill-opacity="0.23"   transform="translate(14.7 76.9) rotate(151.1) scale(1.21 0.80)" />
<path d="M 43.2 41.1 C 58.8 40.1, 76.3 11.4, 72.5 24.5 C 73.3 15.8, 25.4 91.4, 35.8 85.3 C 32.7 73.0, 66.3 88.2, 51.8 81.2 C 68.1 95.9, 39.4 45.6, 53.7 31.6 C 36.6 40.1, 92.2 51.0, 94.0 50.6 C 80.5 53.2, 50.3 16.2, 37.9 1.6 Z" fill="none" fill-opacity="0.96" stroke="hsl(106, 75%, 59%)" stroke-width="2.80"  transform="translate(4.8 62.0) rotate(217.0) scale(1.29 1.91)" />
<path d="M 45.5 33.7 C 30.1 26.5, 98.9 91.5, 92.1 78.0 C 100.0 89.5, 65.2 88.6, 59.1 87.9 C 63.0 80.4, 65.7 19.5, 60.6 11.3 C 41.8 18.9, 65.6 10.5, 67.6 10.3 C 54.2 9.0, 67.1 44.4, 66.1 32.4 C 82.3 46.0, 56.7 58.5, 48.3 69.6 C 47.2 55.7, 8.9 80.6, 21.2 72.3 C 12.2 70.9, 51.3 37.7, 61.9 44.7 C 53.1 36.2, 10.6 56.2, 15.8 61.8 Z" fill="hsl(104, 72%, 65%)" fill-opacity="0.29" stroke="none" stroke-width="3.29"  transform="translate(83.2 60.8) rotate(150.7) scale(1.03 1.09)" />
<rect x="8.4" y="64.9" width="23.6" height="30.9" rx="19.9" fill="hsl(83, 65%, 44%)" fill-opacity="0.51" stroke="hsl(86, 72%, 68%)" stroke-width="1.6"  transform="translate(81.6 21.2) rotate(166.1) scale(0.96 0.66)" />
<rect x="53.6" y="11.7" width="26.9" height="34.1" rx="0" fill="hsl(183, 71%, 60%)" fill-opacity="0.37" stroke="hsl(183, 71%, 60%)" stroke-width="1.5"  transform="translate(80.5 51.0) rotate(144.6) scale(1.19 1.71)" />
<path d="M 31.1 65.4 C 47.7 49.9, 41.4 93.2, 39.5 98.6 C 37.5 100.0, 44.7 86.5, 34.3 92.8 C 39.7 82.9, 89.7 45.8, 78.9 46.6 C 69.4 58.5, 95.4 61.6, 91.8 48.5 C 72.5 68.4, 81.3 82.9, 84.5 94.4 C 73.9 77.7, 77.2 29.2, 84.3 22.3 C 97.6 4.8, 30.7 44.7, 34.6 30.6 " fill="none" fill-opacity="0.30" stroke="hsl(242, 72%, 49%)" stroke-width="4.69" filter="url(#f1)" transform="translate(15.3 76.1) rotate(358.4) scale(0.54 0.85)" />
<path d="M 0.2 66.3 C 7.0 50.1, 14.5 83.2, 12.1 96.4 C 0.0 100.0, 54.2 52.9, 45.2 64.2 C 61.0 68.9, 2.0 27.1, 9.7 39.9 C 13.3 24.5, 83.1 46.5, 71.7 32.8 C 54.3 36.6, 76.6 62.2, 62.8 51.0 C 43.0 33.5, 72.5 4.3, 64.6 3.1 C 62.9 15.3, 38.4 71.0, 30.4 66.1 C 26.7 50.6, 53.0 63.2, 53.9 63.8 C 67.1 78.7, 26.8 46.4, 17.5 57.1 C 32.3 60.5, 43.5 35.9, 32.0 44.8 Z" fill="hsl(106, 75%, 59%)" fill-opacity="0.80" stroke="none" stroke-width="3.85" filter="url(#f1)" transform="translate(5.4 70.3) rotate(285.5) scale(1.81 0.90)" />
<path d="M 58.5 48.2 C 57.9 52.0, 73.8 50.4, 82.8 45.0 C 90.7 33.3, 69.0 69.9, 74.3 63.2 C 93.9 79.9, 66.1 22.6, 51.1 11.5 C 32.9 23.0, 54.6 100.0, 65.4 98.2 C 65.8 79.6, 78.1 33.3, 85.7 37.2 C 86.5 24.7, 75.4 17.2, 62.6 23.6 C 79.8 14.0, 77.2 77.5, 68.7 77.3 C 49.8 63.1, 11.5 67.0, 7.0 57.2 Z" fill="hsl(144, 86%, 72%)" fill-opacity="0.86" stroke="none" stroke-width="4.23"  transform="translate(25.0 40.8) rotate(171.2) scale(1.97 1.36)" />
<circle cx="16.9" cy="7.3" r="4.9" fill="hsl(151, 70%, 62%)" fill-opacity="0.59" filter="url(#f1)" transform="translate(87.3 32.6) rotate(205.1) scale(0.76 1.98)" />
<circle cx="64.0" cy="85.7" r="1.4" fill="url(#g2)" fill-opacity="0.60"   />
<circle cx="48.5" cy="56.9" r="0.1" fill="hsl(151, 70%, 62%)" fill-opacity="0.98"  transform="translate(25.7 42.4) rotate(96.1) scale(1.52 0.89)" />
<path d="M 5.1 69.2 C 16.5 79.6, 34.5 53.1, 46.9 49.7 C 58.9 54.2, 83.6 31.1, 74.4 17.2 C 55.9 20.8, 71.0 41.1, 59.8 32.9 C 45.8 41.1, 80.2 89.4, 91.8 89.2 C 77.2 89.4, 95.5 65.3, 86.1 56.2 C 99.0 36.7, 5.4 64.9, 19.1 61.0 Z" fill="none" fill-opacity="0.62" stroke="hsl(183, 71%, 60%)" stroke-width="3.77"  transform="translate(92.1 20.0) rotate(253.2) scale(0.90 0.61)" />
<rect x="0.3" y="58.1" width="30.0" height="29.7" rx="0" fill="hsl(86, 72%, 68%)" fill-opacity="0.74" stroke="hsl(2, 82%, 55%)" stroke-width="3.1"   />
<path d="M 76.7 5.3 C 80.0 9.5, 45.9 0.0, 38.0 3.6 C 19.9 0.0, 94.8 51.3, 95.0 59.0 C 81.7 79.0, 10.8 41.9, 7.4 27.2 C 5.4 23.2, 72.9 69.3, 62.1 79.1 C 64.7 85.6, 0.0 84.6, 6.6 95.1 C 24.1 100.0, 93.6 25.0, 94.8 14.4 Z" fill="none" fill-opacity="0.30" stroke="hsl(290, 83%, 63%)" stroke-width="2.43"  transform="translate(63.5 71.2) rotate(152.6) scale(1.58 1.51)" />
<rect x="19.2" y="25.3" width="44.1" height="13.1" rx="3.6" fill="none" fill-opacity="0.97"  filter="url(#f1)" transform="translate(18.5 18.6) rotate(27.8) scale(0.75 0.63)" />
<circle cx="90.6" cy="61.5" r="6.2" fill="url(#g1)" fill-opacity="0.72"  transform="translate(99.2 15.5) rotate(309.0) scale(1.96 0.65)" />
<rect x="8.5" y="19.5" width="42.0" height="23.1" rx="4.5" fill="hsl(151, 70%, 62%)" fill-opacity="0.38"    />
<path d="M 96.5 52.1 C 100.0 37.3, 30.3 93.0, 43.9 83.5 C 41.7 95.2, 10.2 44.4, 9.8 41.6 C 21.7 57.7, 0.0 83.9, 0.1 91.6 C 0.0 100.0, 75.7 86.6, 69.3 81.9 C 85.3 69.3, 72.3 96.9, 64.4 83.9 C 70.6 74.5, 76.1 30.6, 66.9 20.4 C 84.9 34.8, 72.0 0.0, 85.9 2.3 C 83.5 9.2, 0.0 85.9, 10.1 79.5 Z" fill="hsl(290, 83%, 63%)" fill-opacity="0.45" stroke="none" stroke-width="2.38"   />
<path d="M 95.2 7.6 C 100.0 0.0, 44.5 65.6, 54.0 60.9 C 44.5 77.0, 31.8 42.4, 30.7 56.7 C 46.9 75.4, 54.5 51.0, 52.9 50.1 C 60.2 61.4, 0.0 30.5, 10.4 27.8 C 19.1 47.7, 0.0 46.7, 6.7 54.9 C 11.3 63.0, 10.2 7.8, 19.5 9.5 C 19.8 17.3, 80.3 54.6, 94.5 52.6 Z" fill="hsl(106, 75%, 59%)" fill-opacity="0.83" stroke="none" stroke-width="3.04"  transform="translate(90.1 54.9) rotate(349.7) scale(0.83 1.20)" />
<path d="M 66.1 56.2 C 59.6 55.9, 84.8 68.0, 95.2 65.4 C 77.6 65.3, 77.7 44.9, 84.7 35.9 C 68.6 29.4, 95.2 29.4, 96.4 28.0 C 79.3 42.5, 59.8 27.9, 68.0 13.0 C 64.0 25.3, 83.4 58.9, 89.5 48.5 C 100.0 51.6, 76.9 11.3, 75.1 5.5 C 63.1 7.6, 34.3 21.7, 41.2 31.1 C 44.4 41.6, 17.2 7.2, 13.8 16.4 C 11.9 6.2, 36.9 72.0, 23.2 70.8 Z" fill="none" fill-opacity="0.93" stroke="hsl(83, 65%, 44%)" stroke-width="4.41"  transform="translate(28.6 4.6) rotate(54.2) scale(0.75 1.00)" />
<path d="M 92.1 78.1 C 86.6 83.3, 17.5 63.8, 31.1 49.1 C 28.9 66.7, 70.2 0.0, 72.6 0.3 C 83.6 0.0, 51.6 17.1, 56.4 3.0 C 69.4 3.5, 32.6 18.8, 20.3 23.7 C 27.4 20.9, 54.7 57.6, 67.9 61.4 C 67.4 57.8, 97.6 73.1, 92.3 66.8 C 97.5 83.0, 20.7 75.0, 30.6 83.0 Z" fill="none" fill-opacity="0.40" stroke="hsl(40, 53%, 69%)" stroke-width="3.87"  transform="translate(37.3 7.0) rotate(188.3) scale(1.26 1.36)" />
<rect x="26.3" y="73.2" width="24.1" height="12.1" rx="2.6" fill="none" fill-opacity="0.91"   transform="translate(18.5 78.8) rotate(143.4) scale(1.36 1.05)" />
<path d="M 80.6 22.1 C 91.9 30.5, 12.2 41.9, 0.3 42.2 C 0.0 59.0, 100.0 52.5, 99.1 54.3 C 85.1 70.7, 25.3 1.6, 28.0 7.2 C 10.1 0.0, 31.6 76.2, 20.9 72.8 C 8.5 70.2, 39.4 13.3, 32.4 27.2 C 14.6 10.1, 52.9 58.6, 44.5 56.1 Z" fill="hsl(290, 83%, 63%)" fill-opacity="0.56" stroke="none" stroke-width="2.51"  transform="translate(20.6 63.5) rotate(214.8) scale(1.93 1.78)" />
<rect x="44.2" y="79.6" width="34.1" height="13.9" rx="5.3" fill="none" fill-opacity="0.82" stroke="hsl(183, 71%, 60%)" stroke-width="1.7"  transform="translate(32.0 53.2) rotate(74.2) scale(1.74 1.66)" />
<path d="M 36.4 89.2 C 37.5 87.1, 100.0 71.7, 96.7 86.2 C 100.0 67.6, 32.9 59.7, 20.8 67.7 C 11.2 72.9, 17.6 62.7, 26.7 66.7 C 13.2 63.6, 98.5 22.0, 98.1 23.7 C 100.0 36.6, 26.9 9.7, 16.2 24.4 C 33.5 30.1, 77.6 47.4, 70.6 40.5 Z" fill="hsl(242, 72%, 49%)" fill-opacity="0.29" stroke="none" stroke-width="4.04"   />
<path d="M 77.0 30.8 C 90.3 29.9, 91.0 26.4, 83.7 36.9 C 76.9 37.6, 31.0 30.0, 32.7 18.4 C 38.2 27.7, 77.8 45.6, 70.7 38.7 C 86.4 51.1, 48.0 18.7, 52.9 14.2 C 37.7 8.2, 40.9 100.0, 36.2 98.4 C 34.8 97.6, 100.0 83.4, 96.3 85.9 Z" fill="none" fill-opacity="0.35" stroke="hsl(83, 65%, 44%)" stroke-width="2.85"  transform="translate(35.7 22.0) rotate(60.5) scale(0.98 1.85)" />
<path d="M 13.5 55.2 C 25.3 71.3, 57.6 66.8, 57.6 65.2 C 66.6 64.4, 18.3 94.6, 30.9 90.9 C 18.3 87.4, 8.2 8.3, 0.9 7.2 C 0.0 17.6, 21.3 22.1, 23.7 16.7 C 34.4 0.0, 7.2 22.8, 12.8 19.8 C 21.3 29.6, 11.7 90.3, 8.1 75.5 C 4.4 65.9, 36.4 54.7, 23.5 67.9 C 18.4 75.1, 0.8 94.7, 13.9 81.4 C 24.3 78.6, 16.9 100.0, 19.8 98.3 C 16.5 96.6, 50.5 25.3, 60.7 39.3 Z" fill="hsl(144, 86%, 72%)" fill-opacity="0.82" stroke="none" stroke-width="1.96" filter="url(#f1)"  />
<path d="M 80.7 32.6 C 86.3 29.8, 45.2 77.0, 36.9 65.1 C 37.4 70.8, 26.9 13.1, 22.6 25.2 C 31.6 32.8, 68.1 17.6, 54.7 25.7 C 73.2 38.0, 87.0 16.8, 84.7 16.5 C 75.9 0.0, 94.5 0.0, 98.7 11.5 C 81.0 0.0, 49.1 96.3, 43.9 98.2 C 52.9 85.4, 65.8 60.2, 59.9 55.2 C 68.9 63.0, 73.4 0.5, 63.3 10.2 Z" fill="none" fill-opacity="0.97" stroke="hsl(290, 83%, 63%)" stroke-width="1.10"   />
<path d="M 28.8 70.0 C 28.7 51.4, 56.8 44.6, 56.9 32.3 C 44.0 34.9, 79.7 27.9, 94.5 25.7 C 90.4 16.4, 80.6 91.0, 66.2 94.1 C 84.3 80.6, 65.2 29.7, 64.3 41.2 C 62.5 33.3, 42.9 40.0, 55.4 44.6 C 60.6 44.6, 28.2 78.7, 34.0 69.1 Z" fill="none" fill-opacity="0.35" stroke="hsl(242, 72%, 49%)" stroke-width="2.00"   />
<path d="M 76.8 2.0 C 90.0 15.4, 58.4 77.1, 68.7 88.6 C 70.8 100.0, 51.5 0.0, 38.7 6.6 C 47.3 14.2, 82.3 44.3, 91.8 47.7 C 100.0 31.1, 53.1 85.6, 61.7 89.5 C 65.4 86.1, 40.4 50.8, 41.2 38.2 C 30.5 39.7, 3.8 67.6, 0.1 63.5 Z" fill="hsl(104, 72%, 65%)" fill-opacity="0.60" stroke="none" stroke-width="4.09"  transform="translate(98.2 10.8) rotate(7.3) scale(0.92 1.06)" />
<path d="M 52.5 71.0 C 62.0 54.6, 75.8 89.3, 81.1 74.6 C 74.1 56.9, 30.2 21.2, 28.8 24.0 C 33.6 25.1, 6.8 66.3, 5.1 65.3 C 0.0 53.7, 59.5 97.4, 59.0 91.7 C 52.2 86.3, 64.3 12.1, 58.5 22.6 C 39.7 41.1, 14.4 4.6, 6.9 19.5 C 7.0 11.9, 64.1 38.3, 53.2 30.2 C 71.5 18.8, 65.3 78.6, 59.9 70.7 " fill="none" fill-opacity="0.38" stroke="hsl(83, 65%, 44%)" stroke-width="5.27"  transform="translate(65.3 92.8) rotate(126.0) scale(1.15 1.54)" />
<path d="M 38.7 0.0 C 44.9 0.0, 51.9 79.7, 40.5 82.8 C 41.1 81.1, 90.3 73.8, 79.1 73.3 C 66.7 61.7, 26.6 0.0, 34.2 3.3 C 49.7 8.7, 10.5 57.5, 23.9 71.4 C 7.3 85.3, 74.5 93.5, 81.0 87.2 C 93.2 86.1, 39.3 39.7, 33.9 34.5 Z" fill="hsl(104, 72%, 65%)" fill-opacity="0.80" stroke="none" stroke-width="3.87" filter="url(#f1)" transform="translate(81.3 85.2) rotate(257.4) scale(1.36 1.85)" />
<rect x="36.2" y="0.1" width="49.3" height="33.9" rx="0.3" fill="none" fill-opacity="0.43"   transform="translate(68.0 91.4) rotate(207.8) scale(0.62 0.62)" />
<path d="M 9.9 84.3 C 7.9 96.1, 42.1 77.9, 38.6 87.8 C 34.7 85.2, 10.1 40.0, 22.9 46.6 C 12.8 44.8, 22.3 28.1, 17.4 22.0 C 21.7 33.2, 14.1 2.9, 22.2 16.2 C 11.2 34.5, 94.8 66.1, 96.2 73.5 C 86.6 89.6, 22.5 18.6, 17.5 22.4 C 36.1 2.9, 23.6 69.8, 12.4 79.4 C 18.1 95.6, 17.5 100.0, 5.6 92.5 C 18.7 82.8, 34.8 48.9, 19.9 43.7 Z" fill="none" fill-opacity="0.63" stroke="hsl(86, 72%, 68%)" stroke-width="4.57"  transform="translate(83.3 44.9) rotate(243.9) scale(0.68 1.00)" />
<path d="M 99.8 82.2 C 92.3 96.2, 77.3 76.4, 85.6 90.0 C 83.7 85.3, 46.5 74.6, 41.6 82.6 C 22.9 65.3, 13.8 47.0, 11.9 56.8 C 0.0 64.2, 91.8 85.5, 83.4 90.1 C 100.0 100.0, 71.1 100.0, 72.2 91.8 C 89.5 76.6, 39.8 2.0, 51.1 7.0 C 51.5 0.0, 95.4 83.3, 97.3 75.0 C 88.9 62.0, 31.2 24.7, 40.1 21.7 C 28.0 24.3, 8.5 50.9, 9.9 50.0 " fill="hsl(83, 65%, 44%)" fill-opacity="0.88" stroke="none" stroke-width="0.86"   />
<rect x="9.3" y="56.3" width="29.1" height="40.0" rx="0" fill="hsl(144, 86%, 72%)" fill-opacity="0.41"   transform="translate(84.1 93.2) rotate(246.1) scale(0.99 1.78)" />
<path d="M 72.0 22.0 C 60.2 34.3, 0.0 0.4, 3.3 6.4 C 8.3 2.6, 74.2 5.2, 62.1 13.0 C 70.2 6.7, 93.8 92.2, 85.2 82.1 C 96.1 87.0, 96.5 0.0, 87.6 7.3 C 92.4 27.0, 77.9 17.4, 75.0 5.2 C 57.2 7.6, 11.6 0.0, 16.1 5.9 C 29.1 16.1, 12.2 70.7, 16.3 56.7 Z" fill="hsl(322, 74%, 44%)" fill-opacity="0.84" stroke="none" stroke-width="1.43"  transform="translate(58.0 96.2) rotate(89.3) scale(1.17 0.80)" />
<circle cx="72.0" cy="67.3" r="7.1" fill="hsl(144, 86%, 72%)" fill-opacity="0.80" filter="url(#f1)" transform="translate(31.6 14.9) rotate(290.1) scale(1.08 0.96)" />
<path d="M 76.3 32.5 C 95.3 36.0, 70.3 37.4, 83.9 31.8 C 92.5 24.5, 95.2 83.3, 92.9 77.0 C 100.0 70.9, 68.8 50.4, 75.1 64.2 C 79.8 60.3, 26.7 59.7, 41.5 53.5 C 34.1 67.7, 75.0 59.3, 82.7 68.3 C 73.5 54.9, 46.4 30.8, 49.3 36.9 C 37.2 49.3, 72.1 12.9, 83.8 26.7 C 95.5 21.3, 0.0 15.9, 0.2 23.9 Z" fill="hsl(40, 53%, 69%)" fill-opacity="1.00" stroke="none" stroke-width="4.75"   />
<path d="M 38.5 55.9 C 28.9 46.4, 89.9 62.8, 82.4 61.2 C 65.1 80.5, 87.2 91.3, 93.8 95.8 C 99.4 95.4, 75.8 100.0, 87.0 91.9 C 67.1 93.8, 78.3 49.2, 84.9 43.0 C 70.3 36.0, 23.6 30.3, 27.6 40.8 C 15.3 48.9, 57.3 99.3, 48.5 97.3 C 62.2 100.0, 13.3 46.6, 11.3 47.3 C 4.1 53.7, 50.8 72.1, 63.3 61.6 C 80.6 45.4, 19.1 8.7, 10.0 14.7 C 28.2 23.9, 13.7 91.3, 3.7 83.0 Z" fill="hsl(183, 71%, 60%)" fill-opacity="0.55" stroke="none" stroke-width="3.32"  transform="translate(23.9 87.9) rotate(145.4) scale(1.55 0.51)" />
<path d="M 28.4 51.0 C 27.7 61.9, 25.9 53.0, 12.3 49.3 C 22.8 49.3, 46.0 96.5, 45.7 96.6 C 51.0 89.5, 28.9 28.9, 29.1 34.4 C 46.1 16.2, 90.0 89.8, 87.1 89.9 C 88.1 97.0, 25.0 4.9, 12.7 9.0 C 0.0 0.0, 4.3 37.1, 8.2 49.6 C 0.0 52.4, 48.6 76.3, 35.0 69.1 C 42.4 87.6, 95.6 86.4, 98.5 77.0 Z" fill="hsl(2, 82%, 55%)" fill-opacity="0.87" stroke="none" stroke-width="1.17"  transform="translate(2.6 1.1) rotate(189.3) scale(1.49 1.25)" />
<rect x="28.2" y="49.7" width="46.1" height="24.5" rx="14.9" fill="hsl(290, 83%, 63%)" fill-opacity="0.54" stroke="hsl(83, 65%, 44%)" stroke-width="1.4"   />
<path d="M 91.2 89.9 C 97.4 77.6, 12.0 74.1, 19.2 66.1 C 36.0 53.5, 57.4 62.6, 50.7 51.5 C 40.9 66.5, 39.7 50.7, 48.6 60.3 C 28.8 52.6, 97.1 67.6, 89.2 80.5 C 86.9 75.6, 44.8 39.1, 51.5 41.5 C 61.6 55.7, 72.6 39.6, 71.3 40.2 Z" fill="none" fill-opacity="0.89" stroke="hsl(183, 71%, 60%)" stroke-width="4.56"   />
<circle cx="43.3" cy="27.4" r="0.3" fill="url(#g1)" fill-opacity="0.97"  transform="translate(60.6 48.0) rotate(15.9) scale(1.99 0.69)" />
<path d="M 99.5 31.5 C 80.2 43.4, 79.0 42.5, 82.0 48.2 C 97.4 56.0, 83.5 62.6, 90.1 70.0 C 100.0 50.4, 52.8 8.5, 56.9 10.9 C 51.3 0.9, 18.1 56.9, 28.8 54.7 C 45.7 70.2, 70.8 19.9, 76.1 30.0 C 79.7 13.6, 81.1 81.5, 69.6 79.4 C 63.7 84.0, 56.0 77.7, 49.1 88.1 C 57.3 100.0, 16.2 0.0, 12.2 7.8 C 6.2 0.0, 65.0 0.0, 54.6 1.7 Z" fill="hsl(86, 72%, 68%)" fill-opacity="0.90" stroke="none" stroke-width="3.22"  transform="translate(71.6 88.1) rotate(29.2) scale(0.63 1.87)" />
<circle cx="67.8" cy="93.3" r="15.3" fill="url(#g2)" fill-opacity="0.79" filter="url(#f1)" transform="translate(29.4 36.1) rotate(115.6) scale(1.60 0.95)" />
<rect x="0.8" y="17.0" width="25.8" height="38.0" rx="0" fill="none" fill-opacity="1.00"   transform="translate(98.0 96.4) rotate(142.6) scale(0.51 1.08)" />
<rect x="28.0" y="44.5" width="41.2" height="17.3" rx="0" fill="none" fill-opacity="0.95"    />
<path d="M 18.2 50.9 C 36.4 49.1, 64.0 21.5, 68.6 11.1 C 72.6 2.8, 68.8 23.2, 55.5 36.0 C 57.6 25.4, 49.2 68.4, 59.3 67.2 C 61.0 83.0, 33.4 90.6, 42.4 81.7 C 40.8 94.9, 87.5 36.1, 77.0 23.9 C 76.7 5.5, 77.9 42.2, 67.3 27.9 C 75.7 17.3, 31.1 34.6, 20.1 46.8 C 28.1 60.5, 38.8 88.1, 32.0 93.3 C 46.0 95.7, 99.8 5.9, 93.1 8.1 Z" fill="none" fill-opacity="0.92" stroke="hsl(40, 53%, 69%)" stroke-width="5.09"  transform="translate(34.7 80.7) rotate(321.6) scale(0.55 1.64)" />
<rect x="65.7" y="28.5" width="27.3" height="33.0" rx="0" fill="none" fill-opacity="0.32" stroke="hsl(183, 71%, 60%)" stroke-width="4.7"  transform="translate(26.7 66.7) rotate(108.1) scale(1.35 1.41)" />
<path d="M 17.4 46.4 C 25.4 64.6, 57.6 17.4, 66.5 23.7 C 53.6 15.9, 64.5 54.7, 49.8 46.2 C 54.1 28.8, 67.2 58.2, 77.2 65.7 C 74.5 76.2, 67.3 85.5, 73.8 79.0 C 75.6 61.6, 66.5 86.1, 59.9 73.5 C 41.2 71.2, 100.0 98.7, 98.8 93.3 Z" fill="hsl(144, 86%, 72%)" fill-opacity="0.35" stroke="none" stroke-width="2.05"  transform="translate(43.7 42.3) rotate(75.5) scale(1.18 0.79)" />
<path d="M 59.5 15.8 C 67.1 19.8, 93.1 70.6, 93.3 68.8 C 79.6 51.5, 47.9 40.8, 44.8 38.1 C 53.1 43.4, 44.0 18.1, 33.0 13.3 C 13.4 0.0, 89.2 0.0, 90.1 5.1 C 96.3 8.0, 89.6 55.1, 80.6 62.9 C 64.4 67.3, 32.9 36.0, 29.0 35.0 C 9.4 41.6, 12.5 29.0, 17.8 24.9 C 34.2 12.3, 21.7 76.2, 18.3 73.7 C 0.0 92.8, 43.5 54.9, 45.5 48.2 C 31.7 47.8, 72.1 74.9, 70.0 70.4 " fill="hsl(183, 71%, 60%)" fill-opacity="0.32" stroke="none" stroke-width="3.66"  transform="translate(26.2 49.4) rotate(109.3) scale(1.57 1.21)" />
<circle cx="73.9" cy="87.2" r="1.2" fill="hsl(86, 72%, 68%)" fill-opacity="0.44"   />
<rect x="12.7" y="54.7" width="40.6" height="22.7" rx="0.4" fill="hsl(322, 74%, 44%)" fill-opacity="0.46"   transform="translate(51.3 82.9) rotate(100.9) scale(0.95 1.60)" />
<path d="M 78.1 96.2 C 81.1 100.0, 53.2 10.8, 39.2 16.6 C 41.1 17.2, 86.4 33.8, 74.0 42.6 C 60.2 39.8, 78.2 88.1, 80.7 75.1 C 84.0 67.9, 22.6 38.8, 19.5 41.4 C 24.6 47.2, 41.8 11.9, 55.1 18.8 C 74.2 17.9, 55.5 7.7, 49.7 10.9 C 69.5 21.8, 50.3 62.2, 50.7 66.9 C 39.2 82.3, 65.8 91.5, 79.1 87.6 C 85.1 94.3, 31.3 60.7, 35.1 71.2 Z" fill="hsl(106, 75%, 59%)" fill-opacity="0.51" stroke="none" stroke-width="1.07"  transform="translate(74.6 6.1) rotate(72.3) scale(1.42 0.62)" />
<path d="M 40.9 45.6 C 29.2 43.5, 25.8 29.8, 13.9 32.3 C 12.5 38.4, 93.4 77.7, 91.9 65.4 C 100.0 64.6, 36.0 45.0, 24.5 59.1 C 22.2 75.5, 9.4 78.6, 8.5 89.9 C 9.4 87.3, 23.5 27.8, 24.1 23.6 C 40.6 8.8, 53.7 80.0, 63.5 68.1 C 68.0 82.4, 41.3 20.3, 42.2 23.9 C 26.3 31.3, 66.9 3.0, 77.4 3.0 " fill="hsl(151, 70%, 62%)" fill-opacity="0.33" stroke="none" stroke-width="3.32"  transform="translate(97.1 78.5) rotate(79.9) scale(0.59 1.71)" />
<circle cx="6.4" cy="6.0" r="2.1" fill="hsl(290, 83%, 63%)" fill-opacity="0.48"   />
<path d="M 97.4 25.0 C 95.2 34.9, 41.3 15.7, 37.9 21.5 C 57.3 40.6, 40.1 49.8, 26.2 61.1 C 35.1 53.2, 16.3 34.7, 11.2 29.6 C 0.0 17.2, 30.0 61.3, 19.5 49.6 C 5.3 44.4, 81.9 34.6, 67.3 47.6 C 76.8 67.4, 54.6 25.7, 56.4 23.3 C 57.4 42.2, 0.0 74.2, 14.0 88.1 C 18.3 77.5, 48.2 63.1, 34.9 63.5 C 19.0 81.5, 85.0 87.4, 88.0 82.4 Z" fill="none" fill-opacity="0.27" stroke="hsl(322, 74%, 44%)" stroke-width="4.06"  transform="translate(81.5 43.8) rotate(241.3) scale(0.64 1.00)" />
<path d="M 95.8 73.9 C 100.0 67.6, 67.4 85.7, 60.7 82.0 C 46.0 97.3, 35.3 20.2, 37.6 27.6 C 37.6 30.6, 62.0 5.1, 62.0 10.1 C 53.1 1.0, 33.7 23.9, 36.7 13.9 C 56.6 23.9, 20.5 28.2, 11.9 29.5 C 23.1 37.3, 0.0 30.4, 2.9 19.1 C 13.8 8.1, 0.0 84.0, 9.5 78.6 C 24.1 96.1, 66.7 69.9, 76.9 77.6 C 86.0 67.3, 64.6 63.7, 74.2 61.7 Z" fill="hsl(242, 72%, 49%)" fill-opacity="0.60" stroke="none" stroke-width="1.08"  transform="translate(50.1 45.9) rotate(86.1) scale(1.73 1.14)" />
<path d="M 97.6 16.4 C 90.3 14.7, 77.2 48.9, 83.5 38.3 C 71.9 50.0, 44.7 60.6, 56.5 64.6 C 43.1 66.9, 36.7 81.1, 38.2 74.5 C 19.3 92.1, 3.8 91.6, 17.6 82.8 C 22.7 66.6, 56.4 56.6, 47.7 42.7 C 34.9 26.6, 100.0 71.8, 89.4 77.4 C 88.8 96.8, 45.7 75.8, 54.9 87.5 Z" fill="hsl(144, 86%, 72%)" fill-opacity="0.77" stroke="none" stroke-width="1.97"  transform="translate(7.6 73.9) rotate(270.1) scale(1.46 1.34)" />
<path d="M 77.4 56.2 C 88.0 40.1, 53.6 22.3, 54.5 21.0 C 68.3 29.9, 71.3 4.3, 80.2 8.7 C 67.8 11.1, 74.3 54.4, 64.0 47.3 C 56.0 62.3, 85.3 54.3, 79.8 40.9 C 70.7 43.7, 88.4 37.2, 85.7 42.7 C 93.9 23.6, 42.7 76.6, 41.8 91.1 C 32.1 79.0, 34.7 27.7, 29.2 30.7 Z" fill="hsl(40, 53%, 69%)" fill-opacity="0.94" stroke="none" stroke-width="4.69"  transform="translate(7.0 28.8) rotate(70.8) scale(0.72 1.37)" />
<rect x="36.8" y="13.0" width="29.5" height="33.9" rx="12.9" fill="hsl(2, 82%, 55%)" fill-opacity="0.63"   transform="translate(49.5 45.6) rotate(19.9) scale(1.30 1.88)" />
<rect x="41.4" y="19.6" width="39.5" height="18.0" rx="0" fill="none" fill-opacity="0.66"   transform="translate(11.3 17.5) rotate(28.2) scale(0.98 1.55)" />
<path d="M 90.5 80.7 C 75.5 64.9, 79.3 3.7, 86.5 11.9 C 90.7 18.0, 59.6 57.5, 68.7 63.5 C 78.8 78.1, 20.7 67.7, 31.3 53.5 C 51.0 42.0, 84.1 25.4, 77.9 20.8 C 90.0 27.3, 50.9 93.5, 41.4 96.7 C 25.1 100.0, 45.3 94.8, 36.6 97.9 C 30.3 91.4, 4.6 36.4, 17.9 30.7 C 29.3 40.7, 56.5 57.3, 51.9 51.6 Z" fill="hsl(151, 70%, 62%)" fill-opacity="0.55" stroke="none" stroke-width="3.01" filter="url(#f1)" transform="translate(12.0 56.1) rotate(327.3) scale(1.98 0.55)" />
<circle cx="40.0" cy="29.1" r="13.5" fill="url(#g1)" fill-opacity="0.91"  transform="translate(2.7 48.5) rotate(161.9) scale(0.93 1.63)" />
<path d="M 75.5 31.2 C 83.2 44.2, 5.8 16.8, 9.2 12.0 C 0.0 19.1, 38.7 100.0, 31.6 86.9 C 24.5 98.9, 93.5 39.7, 81.8 30.8 C 92.9 34.8, 63.0 73.7, 57.0 76.5 C 47.6 71.6, 40.1 32.3, 38.9 45.9 C 22.5 62.9, 27.6 56.1, 14.4 42.8 Z" fill="hsl(104, 72%, 65%)" fill-opacity="0.53" stroke="none" stroke-width="4.46"  transform="translate(76.7 88.4) rotate(106.8) scale(0.86 1.56)" />
<rect x="38.1" y="44.3" width="42.6" height="30.8" rx="17.3" fill="hsl(83, 65%, 44%)" fill-opacity="0.50" stroke="hsl(83, 65%, 44%)" stroke-width="1.6"  transform="translate(90.3 60.4) rotate(40.5) scale(0.73 1.11)" />
<rect x="47.6" y="40.2" width="38.2" height="10.7" rx="17.5" fill="none" fill-opacity="0.77"   transform="translate(64.4 39.9) rotate(255.9) scale(0.56 0.87)" />
<circle cx="12.1" cy="65.2" r="0.6" fill="url(#g1)" fill-opacity="0.97" filter="url(#f1)" transform="translate(4.9 65.3) rotate(299.3) scale(1.91 0.77)" />
<circle cx="66.7" cy="42.6" r="19.8" fill="hsl(290, 83%, 63%)" fill-opacity="0.87"  transform="translate(23.1 41.4) rotate(79.7) scale(1.23 1.10)" />
<rect x="18.1" y="15.9" width="24.6" height="27.1" rx="0" fill="none" fill-opacity="0.27"   transform="translate(23.3 36.6) rotate(263.8) scale(0.95 1.16)" />
<rect x="50.3" y="43.3" width="49.5" height="16.4" rx="16.5" fill="none" fill-opacity="0.53"   transform="translate(83.5 12.5) rotate(352.8) scale(1.72 0.86)" />
<path d="M 33.2 40.1 C 37.2 33.2, 51.9 27.5, 63.2 42.1 C 50.1 39.1, 23.5 68.5, 27.9 74.6 C 46.1 60.5, 0.0 57.1, 2.3 57.9 C 9.9 38.8, 95.9 29.5, 95.3 43.4 C 100.0 60.3, 0.0 70.3, 6.6 80.6 C 0.0 66.8, 56.2 12.9, 45.5 2.9 C 52.8 0.0, 13.8 36.7, 4.6 39.4 C 22.7 47.1, 86.0 0.1, 75.5 9.8 Z" fill="hsl(290, 83%, 63%)" fill-opacity="0.52" stroke="none" stroke-width="3.02"   />
<path d="M 17.9 67.8 C 14.7 62.4, 81.1 7.1, 85.0 11.5 C 90.1 15.5, 41.7 71.7, 45.8 85.8 C 58.1 92.6, 66.1 67.4, 63.9 72.7 C 47.0 67.8, 100.0 67.2, 97.1 73.5 C 100.0 87.2, 54.2 49.6, 62.6 49.1 C 67.7 67.5, 53.9 0.0, 55.9 3.3 C 48.2 6.9, 56.8 0.0, 62.0 1.3 C 51.6 0.0, 31.9 64.4, 21.8 52.7 C 6.7 56.7, 27.9 0.0, 32.6 5.7 Z" fill="hsl(151, 70%, 62%)" fill-opacity="0.40" stroke="none" stroke-width="1.31"  transform="translate(53.1 48.8) rotate(172.8) scale(0.83 1.30)" />
<rect x="4.6" y="33.9" width="37.0" height="34.0" rx="0" fill="none" fill-opacity="0.38" stroke="hsl(2, 82%, 55%)" stroke-width="2.4"  transform="translate(87.9 2.8) rotate(232.3) scale(1.97 0.53)" />
<path d="M 15.8 92.4 C 28.5 100.0, 79.9 29.9, 65.5 34.3 C 66.9 42.5, 12.3 77.4, 13.0 68.5 C 4.9 50.6, 1.6 77.7, 13.4 68.8 C 29.2 61.9, 50.8 25.1, 63.1 17.6 C 77.2 27.2, 47.1 73.5, 39.1 59.5 C 25.6 44.9, 0.0 95.2, 0.7 88.8 C 0.0 82.8, 50.4 53.5, 64.0 44.3 C 70.1 61.7, 82.4 95.2, 68.1 81.9 C 55.1 83.4, 43.3 46.6, 50.8 58.0 Z" fill="hsl(40, 53%, 69%)" fill-opacity="0.57" stroke="none" stroke-width="1.26"   />
<path d="M 87.2 6.7 C 84.4 0.0, 59.8 81.0, 68.1 69.5 C 55.4 69.8, 68.7 41.3, 79.1 55.7 C 84.3 49.1, 76.3 14.6, 64.4 9.3 C 55.8 0.0, 16.1 45.7, 22.6 57.7 C 14.2 63.8, 87.4 33.7, 80.4 31.1 C 96.4 19.7, 17.1 84.6, 6.1 98.4 C 6.3 85.8, 63.2 100.0, 69.9 99.5 C 79.8 95.6, 83.2 94.4, 83.5 96.4 C 67.8 82.3, 64.2 57.8, 71.0 72.0 C 74.1 74.6, 30.2 85.4, 35.9 89.3 Z" fill="hsl(322, 74%, 44%)" fill-opacity="0.75" stroke="none" stroke-width="4.27"  transform="translate(49.8 69.6) rotate(125.7) scale(1.89 0.77)" />
<path d="M 39.0 78.4 C 44.6 72.8, 42.6 29.6, 41.2 15.1 C 34.2 22.0, 65.7 21.0, 54.0 35.9 C 63.5 41.6, 71.4 69.3, 59.8 80.4 C 57.2 94.9, 80.6 71.2, 81.0 62.4 C 99.9 48.0, 82.6 66.5, 74.9 73.6 C 83.0 54.0, 0.0 22.1, 0.5 32.0 C 0.0 37.3, 85.4 95.3, 94.1 85.1 C 94.7 92.6, 59.6 18.7, 57.4 12.2 C 59.4 1.5, 80.6 90.3, 66.6 80.7 C 53.4 74.4, 90.8 40.6, 76.4 42.7 " fill="none" fill-opacity="0.80" stroke="hsl(106, 75%, 59%)" stroke-width="0.95"  transform="translate(12.9 55.4) rotate(351.6) scale(0.76 0.52)" />
<g opacity="0.063">
<rect x="0" y="0" width="1" height="100" fill="black" />
<rect x="22" y="0" width="1" height="100" fill="black" />
<rect x="44" y="0" width="1" height="100" fill="black" />
<rect x="66" y="0" width="1" height="100" fill="black" />
<rect x="88" y="0" width="1" height="100" fill="black" />
<rect x="0" y="0" width="100" height="1" fill="black" />
<rect x="0" y="22" width="100" height="1" fill="black" />
<rect x="0" y="44" width="100" height="1" fill="black" />
<rect x="0" y="66" width="100" height="1" fill="black" />
<rect x="0" y="88" width="100" height="1" fill="black" />
</g>

</svg>
