<?xml version="1.0" encoding="UTF-8"?>
<svg xmlns="http://www.w3.org/2000/svg" width="100" height="100" viewBox="0 0 100 100">
<defs>
<linearGradient id="g0" x1="0%" y1="0%" x2="100%" y2="100%">
<stop offset="0.0%" stop-color="hsl(106, 75%, 59%)" />
<stop offset="33.3%" stop-color="hsl(183, 71%, 60%)" />
<stop offset="66.7%" stop-color="hsl(242, 72%, 49%)" />
<stop offset="100.0%" stop-color="hsl(322, 74%, 44%)" />
</linearGradient>
<linearGradient id="g1" x1="0%" y1="0%" x2="100%" y2="100%">
<stop offset="0.0%" stop-color="hsl(290, 83%, 63%)" />
<stop offset="33.3%" stop-color="hsl(2, 82%, 55%)" />
<stop offset="66.7%" stop-color="hsl(86, 72%, 68%)" />
<stop offset="100.0%" stop-color="hsl(83, 65%, 44%)" />
</linearGradient>
<linearGradient id="g2" x1="0%" y1="0%" x2="100%" y2="100%">
<stop offset="0.0%" stop-color="hsl(40, 53%, 69%)" />
<stop offset="33.3%" stop-color="hsl(104, 72%, 65%)" />
<stop offset="66.7%" stop-color="hsl(144, 86%, 72%)" />
<stop offset="100.0%" stop-color="hsl(151, 70%, 62%)" />
</linearGradient>
</defs>

<circle cx="22.3" cy="65.4" r="1.8" fill="hsl(322, 74%, 44%)" fill-opacity="0.67"   />
<circle cx="12.4" cy="2.6" r="0.3" fill="hsl(151, 70%, 62%)" fill-opacity="0.41"   />
<rect x="10.1" y="5.7" width="46.8" height="36.6" rx="12.2" fill="hsl(83, 65%, 44%)" fill-opacity="0.86"    />
<circle cx="36.9" cy="13.1" r="0.5" fill="hsl(183, 71%, 60%)" fill-opacity="0.71"   />
<path d="M 66.5 43.6 C 79.3 31.1, 8.0 74.3, 10.2 63.4 C 9.2 82.0, 51.0 77.4, 52.5 73.6 C 48.4 77.2, 85.1 69.7, 75.8 63.8 C 74.3 58.9, 10.3 80.8, 12.5 70.8 C 28.3 72.6, 46.3 24.5, 50.9 25.8 Z" fill="hsl(151, 70%, 62%)" fill-opacity="0.97" stroke="none" stroke-width="1.27"   />
<rect x="14.7" y="45.0" width="46.1" height="28.7" rx="0" fill="hsl(242, 72%, 49%)" fill-opacity="0.68"    />
<path d="M 22.3 16.5 C 34.8 25.2, 28.1 27.4, 32.9 36.6 C 47.4 52.4, 0.0 4.8, 2.6 1.5 C 19.1 1.2, 23.5 47.7, 28.8 36.8 C 16.4 22.7, 3.1 67.1, 3.4 59.1 C 0.0 72.3, 53.9 39.4, 63.0 37.5 C 72.3 49.6, 62.9 87.9, 72.4 84.9 C 84.7 100.0, 48.1 82.0, 47.9 73.8 " fill="hsl(106, 75%, 59%)" fill-opacity="0.86" stroke="none" stroke-width="0.90"  transform="translate(16.2 28.9) rotate(295.3) scale(1.06 0.71)" />
<circle cx="61.9" cy="33.2" r="0.6" fill="hsl(86, 72%, 68%)" fill-opacity="0.61"   />
<path d="M 64.9 23.3 C 48.7 37.1, 78.1 88.2, 73.3 97.0 C 68.0 100.0, 19.3 85.9, 12.6 80.0 C 26.3 94.0, 14.7 16.5, 5.4 6.3 C 20.8 11.6, 48.3 71.9, 51.9 64.0 C 63.2 72.6, 74.7 11.6, 68.3 12.8 C 78.2 26.4, 25.9 96.4, 18.7 90.9 C 12.6 88.7, 68.4 94.0, 63.4 87.4 " fill="none" fill-opacity="0.33" stroke="hsl(242, 72%, 49%)" stroke-width="0.83"  transform="translate(54.5 76.2) rotate(69.8) scale(1.31 1.91)" />
<rect x="23.5" y="16.7" width="25.9" height="15.2" rx="4.0" fill="hsl(322, 74%, 44%)" fill-opacity="0.92"   transform="translate(41.9 31.0) rotate(43.9) scale(1.58 0.81)" />
<rect x="58.1" y="24.7" width="29.5" height="34.9" rx="0" fill="none" fill-opacity="0.94" stroke="hsl(83, 65%, 44%)" stroke-width="4.5"   />
<path d="M 59.0 10.7 C 60.1 7.8, 78.4 86.0, 81.4 80.1 C 82.6 71.2, 33.8 0.1, 38.5 13.3 C 25.6 5.4, 25.2 43.7, 25.0 54.9 C 34.7 48.8, 100.0 12.0, 90.8 17.8 C 81.8 19.2, 18.1 56.0, 4.4 58.4 C 0.0 50.4, 94.6 17.8, 99.7 10.3 Z" fill="hsl(151, 70%, 62%)" fill-opacity="0.72" stroke="none" stroke-width="0.88"   />
<path d="M 95.2 90.8 C 92.2 87.6, 20.7 69.0, 35.2 66.3 C 37.9 68.5, 61.9 21.2, 58.4 27.1 C 58.7 19.9, 58.1 41.9, 44.7 45.2 " fill="none" fill-opacity="0.74" stroke="hsl(104, 72%, 65%)" stroke-width="1.25"  transform="translate(37.2 76.8) rotate(99.2) scale(0.83 1.76)" />
</svg>
