<?xml version="1.0" encoding="UTF-8"?>
<svg xmlns="http://www.w3.org/2000/svg" width="100" height="100" viewBox="0 0 100 100">
<defs>
<linearGradient id="g0" x1="0%" y1="0%" x2="100%" y2="100%">
<stop offset="0.0%" stop-color="hsl(106, 75%, 59%)" />
<stop offset="33.3%" stop-color="hsl(183, 71%, 60%)" />
<stop offset="66.7%" stop-color="hsl(242, 72%, 49%)" />
<stop offset="100.0%" stop-color="hsl(322, 74%, 44%)" />
</linearGradient>
<linearGradient id="g1" x1="0%" y1="0%" x2="100%" y2="100%">
<stop offset="0.0%" stop-color="hsl(290, 83%, 63%)" />
<stop offset="33.3%" stop-color="hsl(2, 82%, 55%)" />
<stop offset="66.7%" stop-color="hsl(86, 72%, 68%)" />
<stop offset="100.0%" stop-color="hsl(83, 65%, 44%)" />
</linearGradient>
<linearGradient id="g2" x1="0%" y1="0%" x2="100%" y2="100%">
<stop offset="0.0%" stop-color="hsl(40, 53%, 69%)" />
<stop offset="33.3%" stop-color="hsl(104, 72%, 65%)" />
<stop offset="66.7%" stop-color="hsl(144, 86%, 72%)" />
<stop offset="100.0%" stop-color="hsl(151, 70%, 62%)" />
</linearGradient>
</defs>

<circle cx="46.7" cy="6.9" r="1.8" fill="hsl(83, 65%, 44%)" fill-opacity="0.61"   />
<circle cx="87.9" cy="78.1" r="0.9" fill="hsl(40, 53%, 69%)" fill-opacity="0.92"  transform="translate(94.7 80.3) rotate(354.3) scale(1.25 1.81)" />
<path d="M 99.7 42.5 C 96.9 51.8, 100.0 34.9, 99.4 35.6 C 91.2 52.8, 11.4 65.4, 10.9 75.2 C 22.2 73.8, 0.0 54.5, 12.3 43.2 " fill="none" fill-opacity="0.73" stroke="hsl(83, 65%, 44%)" stroke-width="0.97"   />
<path d="M 99.5 72.0 C 100.0 58.0, 31.8 84.8, 25.7 87.2 C 25.4 72.8, 28.0 7.8, 15.3 5.1 C 18.4 3.4, 49.3 100.0, 64.1 91.3 " fill="none" fill-opacity="0.42" stroke="hsl(86, 72%, 68%)" stroke-width="1.17"   />
<path d="M 88.4 4.0 C 80.3 0.0, 47.2 66.1, 58.5 69.7 C 40.3 63.6, 15.2 5.1, 14.1 2.3 C 33.9 0.0, 46.8 53.9, 49.1 43.1 Z" fill="hsl(183, 71%, 60%)" fill-opacity="0.60" stroke="none" stroke-width="0.93"  transform="translate(5.7 85.1) rotate(220.7) scale(1.58 1.57)" />
<rect x="1.1" y="80.5" width="23.3" height="14.5" rx="0" fill="hsl(242, 72%, 49%)" fill-opacity="0.32"   transform="translate(16.8 89.6) rotate(356.2) scale(1.30 0.85)" />
<path d="M 7.9 80.0 C 25.5 85.1, 28.4 100.0, 38.3 97.2 C 42.5 100.0, 96.8 0.0, 85.3 4.0 C 98.3 0.0, 97.4 8.6, 98.4 1.4 C 100.0 0.0, 79.7 44.3, 86.5 51.6 C 100.0 31.8, 7.7 84.8, 10.8 83.1 Z" fill="hsl(290, 83%, 63%)" fill-opacity="0.74" stroke="none" stroke-width="1.10"  transform="translate(51.8 13.0) rotate(109.6) scale(1.36 1.10)" />
<path d="M 13.8 1.3 C 18.0 17.4, 79.5 0.0, 73.1 0.4 C 91.2 12.4, 84.2 23.9, 74.0 18.2 C 54.1 35.3, 40.6 57.3, 28.6 47.4 C 28.6 36.5, 94.3 22.3, 88.4 14.2 C 88.8 14.8, 40.6 22.6, 27.2 36.7 C 41.0 37.8, 48.7 91.5, 58.3 87.9 C 48.2 72.8, 46.6 41.3, 36.8 51.3 " fill="hsl(151, 70%, 62%)" fill-opacity="0.43" stroke="none" stroke-width="0.98"  transform="translate(52.6 51.6) rotate(133.6) scale(0.81 1.67)" />
<path d="M 45.2 62.6 C 36.1 82.1, 60.2 92.2, 58.7 85.8 C 64.5 80.0, 95.6 100.0, 82.5 96.0 C 79.6 90.4, 84.4 43.7, 94.9 33.7 " fill="hsl(2, 82%, 55%)" fill-opacity="0.71" stroke="none" stroke-width="1.22"   />
<rect x="30.4" y="12.4" width="43.0" height="36.1" rx="8.6" fill="hsl(242, 72%, 49%)" fill-opacity="0.78" stroke="hsl(322, 74%, 44%)" stroke-width="2.0"  transform="translate(67.4 98.1) rotate(330.7) scale(0.85 1.39)" />
<rect x="40.5" y="84.4" width="46.1" height="10.0" rx="3.1" fill="none" fill-opacity="0.63" stroke="hsl(83, 65%, 44%)" stroke-width="2.2"   />
<path d="M 20.8 53.9 C 38.6 72.4, 7.0 76.4, 12.3 91.1 C 0.0 100.0, 53.1 59.3, 45.6 71.7 C 42.2 82.6, 55.4 71.1, 44.7 65.9 C 30.7 75.8, 77.9 87.5, 78.4 78.3 C 59.1 81.6, 41.6 47.4, 42.9 45.4 C 48.7 63.9, 72.5 68.8, 74.4 60.3 Z" fill="none" fill-opacity="0.27" stroke="hsl(290, 83%, 63%)" stroke-width="1.28"  transform="translate(42.1 27.5) rotate(51.9) scale(1.58 1.64)" />
<circle cx="97.5" cy="77.2" r="0.2" fill="hsl(83, 65%, 44%)" fill-opacity="0.75"  transform="translate(82.2 98.5) rotate(93.9) scale(0.78 0.98)" />
<rect x="13.8" y="25.8" width="46.3" height="32.2" rx="0" fill="hsl(106, 75%, 59%)" fill-opacity="0.73"   transform="translate(35.2 31.0) rotate(224.9) scale(0.54 0.92)" />
</svg>
