<?xml version="1.0" encoding="UTF-8"?>
<svg xmlns="http://www.w3.org/2000/svg" width="100" height="100" viewBox="0 0 100 100">
<defs>
<linearGradient id="g0" x1="0%" y1="0%" x2="100%" y2="100%">
<stop offset="0.0%" stop-color="hsl(106, 75%, 59%)" />
<stop offset="33.3%" stop-color="hsl(183, 71%, 60%)" />
<stop offset="66.7%" stop-color="hsl(242, 72%, 49%)" />
<stop offset="100.0%" stop-color="hsl(322, 74%, 44%)" />
</linearGradient>
<linearGradient id="g1" x1="0%" y1="0%" x2="100%" y2="100%">
<stop offset="0.0%" stop-color="hsl(290, 83%, 63%)" />
<stop offset="33.3%" stop-color="hsl(2, 82%, 55%)" />
<stop offset="66.7%" stop-color="hsl(86, 72%, 68%)" />
<stop offset="100.0%" stop-color="hsl(83, 65%, 44%)" />
</linearGradient>
<linearGradient id="g2" x1="0%" y1="0%" x2="100%" y2="100%">
<stop offset="0.0%" stop-color="hsl(40, 53%, 69%)" />
<stop offset="33.3%" stop-color="hsl(104, 72%, 65%)" />
<stop offset="66.7%" stop-color="hsl(144, 86%, 72%)" />
<stop offset="100.0%" stop-color="hsl(151, 70%, 62%)" />
</linearGradient>
</defs>

<circle cx="93.7" cy="68.7" r="1.8" fill="hsl(144, 86%, 72%)" fill-opacity="0.61"  transform="translate(26.7 43.2) rotate(339.3) scale(1.74 1.97)" />
<circle cx="70.5" cy="11.6" r="0.5" fill="hsl(2, 82%, 55%)" fill-opacity="0.68"   />
<rect x="34.4" y="58.4" width="23.2" height="28.6" rx="0" fill="hsl(106, 75%, 59%)" fill-opacity="0.26"    />
<path d="M 18.9 95.6 C 3.3 85.7, 100.0 8.1, 95.9 9.8 C 80.0 0.0, 24.6 62.9, 19.7 64.0 C 7.0 81.8, 0.7 69.9, 10.4 82.5 Z" fill="hsl(144, 86%, 72%)" fill-opacity="0.72" stroke="none" stroke-width="1.08"  transform="translate(0.1 18.4) rotate(233.1) scale(1.30 0.90)" />
<rect x="38.3" y="41.2" width="38.2" height="11.0" rx="16.2" fill="none" fill-opacity="0.85" stroke="hsl(242, 72%, 49%)" stroke-width="2.2"   />
<rect x="42.6" y="1.9" width="34.4" height="21.7" rx="0" fill="none" fill-opacity="0.32"   transform="translate(10.8 7.7) rotate(89.1) scale(0.69 1.73)" />
<rect x="35.8" y="63.3" width="22.2" height="33.9" rx="3.2" fill="none" fill-opacity="0.56" stroke="hsl(290, 83%, 63%)" stroke-width="2.0"  transform="translate(6.9 77.3) rotate(72.8) scale(0.59 0.87)" />
<path d="M 31.0 14.7 C 25.9 34.7, 95.4 82.1, 91.8 71.0 C 95.6 82.1, 20.5 35.1, 33.7 36.0 C 35.3 46.9, 0.0 63.1, 2.8 62.4 C 0.0 78.1, 70.4 97.9, 69.1 87.5 C 60.2 97.7, 31.6 70.3, 37.0 67.2 Z" fill="hsl(183, 71%, 60%)" fill-opacity="0.57" stroke="none" stroke-width="1.27"  transform="translate(45.7 12.7) rotate(341.3) scale(0.72 0.92)" />
<path d="M 78.3 61.6 C 97.0 74.5, 69.3 0.0, 69.6 2.9 C 50.5 0.0, 63.7 63.5, 52.3 53.7 C 39.8 35.5, 37.9 90.6, 49.6 95.3 Z" fill="none" fill-opacity="0.42" stroke="hsl(151, 70%, 62%)" stroke-width="1.14"  transform="translate(44.0 60.4) rotate(82.5) scale(1.83 1.79)" />
<rect x="38.6" y="9.5" width="20.4" height="31.4" rx="10.3" fill="none" fill-opacity="0.22"    />
</svg>
