<?xml version="1.0" encoding="UTF-8"?>
<svg xmlns="http://www.w3.org/2000/svg" width="100" height="100" viewBox="0 0 100 100">
<defs>
<linearGradient id="g0" x1="0%" y1="0%" x2="100%" y2="100%">
<stop offset="0.0%" stop-color="hsl(106, 75%, 59%)" />
<stop offset="33.3%" stop-color="hsl(183, 71%, 60%)" />
<stop offset="66.7%" stop-color="hsl(242, 72%, 49%)" />
<stop offset="100.0%" stop-color="hsl(322, 74%, 44%)" />
</linearGradient>
<linearGradient id="g1" x1="0%" y1="0%" x2="100%" y2="100%">
<stop offset="0.0%" stop-color="hsl(290, 83%, 63%)" />
<stop offset="33.3%" stop-color="hsl(2, 82%, 55%)" />
<stop offset="66.7%" stop-color="hsl(86, 72%, 68%)" />
<stop offset="100.0%" stop-color="hsl(83, 65%, 44%)" />
</linearGradient>
<linearGradient id="g2" x1="0%" y1="0%" x2="100%" y2="100%">
<stop offset="0.0%" stop-color="hsl(40, 53%, 69%)" />
<stop offset="33.3%" stop-color="hsl(104, 72%, 65%)" />
<stop offset="66.7%" stop-color="hsl(144, 86%, 72%)" />
<stop offset="100.0%" stop-color="hsl(151, 70%, 62%)" />
</linearGradient>
<filter id="f1" x="-20%" y="-20%" width="140%" height="140%">
  <feGaussianBlur stdDeviation="1.784546911519702" />
</filter>

</defs>

<rect x="36.1" y="66.2" width="46.4" height="25.6" rx="5.7" fill="none" fill-opacity="0.95"   transform="translate(51.0 98.3) rotate(310.3) scale(0.51 0.76)" />
<path d="M 46.4 55.6 C 56.8 40.5, 0.0 12.7, 0.7 16.6 C 0.0 34.1, 25.1 54.5, 20.3 56.1 C 26.8 52.6, 23.1 53.8, 37.7 54.1 C 37.4 43.9, 58.5 54.0, 52.1 66.5 C 36.7 55.4, 10.6 44.8, 23.0 43.0 C 26.1 33.1, 75.7 81.5, 80.0 92.2 " fill="hsl(144, 86%, 72%)" fill-opacity="0.76" stroke="none" stroke-width="4.50"  transform="translate(12.2 89.6) rotate(259.2) scale(0.78 1.95)" />
<rect x="31.2" y="41.0" width="42.5" height="39.7" rx="12.1" fill="hsl(104, 72%, 65%)" fill-opacity="0.73" stroke="hsl(40, 53%, 69%)" stroke-width="2.0"  transform="translate(22.4 36.8) rotate(212.4) scale(1.08 1.73)" />
<path d="M 14.8 57.5 C 24.6 50.6, 87.4 49.9, 90.1 58.9 C 100.0 48.7, 16.2 99.9, 12.0 98.6 C 15.8 87.8, 72.6 56.6, 66.3 51.9 C 54.6 40.7, 85.7 17.5, 78.3 5.1 C 75.1 0.0, 100.0 83.7, 94.5 70.1 C 78.4 85.2, 0.0 0.0, 2.1 7.5 C 8.6 0.0, 10.5 95.7, 24.8 95.4 Z" fill="none" fill-opacity="0.40" stroke="hsl(86, 72%, 68%)" stroke-width="1.91"  transform="translate(34.5 68.4) rotate(273.3) scale(1.61 0.51)" />
<path d="M 56.9 98.8 C 52.1 100.0, 31.9 28.3, 34.9 22.1 C 30.6 6.6, 73.7 40.5, 77.3 35.4 C 60.6 49.7, 30.1 10.7, 36.0 3.3 C 34.2 0.0, 76.0 0.0, 87.2 2.5 C 96.0 16.2, 48.3 29.5, 39.1 20.6 C 33.7 37.9, 89.3 47.4, 89.7 45.2 Z" fill="hsl(242, 72%, 49%)" fill-opacity="0.89" stroke="none" stroke-width="4.32"  transform="translate(52.7 75.3) rotate(343.9) scale(0.53 0.80)" />
<circle cx="13.6" cy="5.3" r="4.6" fill="hsl(144, 86%, 72%)" fill-opacity="0.63"  transform="translate(27.7 78.7) rotate(210.2) scale(1.14 1.92)" />
<path d="M 16.4 58.1 C 1.5 40.7, 36.0 12.6, 31.5 21.3 C 38.2 30.3, 96.4 100.0, 83.0 95.1 C 70.7 94.4, 50.9 31.1, 55.2 19.1 C 63.2 38.8, 34.1 26.6, 34.2 36.8 C 52.2 51.3, 67.1 17.9, 64.8 5.8 C 69.8 0.0, 2.9 46.3, 5.6 56.1 C 7.1 66.5, 49.8 13.7, 59.9 12.3 Z" fill="hsl(242, 72%, 49%)" fill-opacity="0.33" stroke="none" stroke-width="5.01"  transform="translate(55.4 91.1) rotate(290.4) scale(1.13 1.73)" />
<path d="M 25.5 7.7 C 39.1 0.0, 40.1 36.8, 39.0 42.5 C 28.1 54.3, 48.8 10.0, 49.0 24.9 C 29.6 29.1, 80.1 3.8, 89.0 14.3 C 100.0 3.2, 48.1 100.0, 33.9 97.7 C 30.1 78.3, 23.8 35.8, 15.3 39.2 C 25.9 53.4, 50.5 87.4, 52.5 88.7 C 72.2 74.1, 58.0 31.1, 64.5 27.0 C 65.9 21.8, 39.3 98.5, 30.4 97.7 C 32.0 100.0, 66.4 0.0, 58.6 6.8 Z" fill="hsl(242, 72%, 49%)" fill-opacity="0.62" stroke="none" stroke-width="5.28"   />
<circle cx="53.4" cy="37.0" r="5.7" fill="hsl(242, 72%, 49%)" fill-opacity="0.72"  transform="translate(11.4 55.0) rotate(165.5) scale(1.82 1.43)" />
<path d="M 2.8 30.2 C 0.0 33.1, 99.9 29.2, 93.8 26.2 C 82.3 15.0, 82.3 42.1, 74.0 56.3 C 83.0 51.0, 48.4 20.0, 62.0 32.6 C 42.1 38.0, 20.7 16.2, 17.4 12.7 C 3.5 30.3, 87.4 64.4, 92.0 55.7 C 100.0 65.3, 13.6 0.0, 22.2 3.5 C 2.8 18.2, 31.1 53.9, 34.2 47.7 C 41.4 46.8, 35.3 94.4, 24.1 92.1 C 33.4 78.9, 25.8 58.5, 12.3 45.7 C 0.0 47.8, 95.9 74.7, 91.2 82.2 Z" fill="hsl(86, 72%, 68%)" fill-opacity="0.47" stroke="none" stroke-width="2.15"  transform="translate(17.4 96.8) rotate(152.5) scale(0.62 0.95)" />
<path d="M 10.6 58.3 C 11.8 46.7, 47.5 59.4, 59.4 71.8 C 72.6 74.2, 43.9 63.3, 36.2 67.3 C 51.6 52.4, 37.8 73.9, 46.3 83.9 C 27.8 100.0, 100.0 69.2, 88.5 64.6 C 100.0 65.0, 42.2 88.6, 45.2 74.6 C 56.2 64.0, 100.0 10.3, 92.0 21.0 Z" fill="hsl(106, 75%, 59%)" fill-opacity="0.76" stroke="none" stroke-width="3.94"  transform="translate(87.9 76.8) rotate(195.4) scale(1.47 1.45)" />
<circle cx="68.0" cy="61.8" r="1.9" fill="hsl(144, 86%, 72%)" fill-opacity="0.83"  transform="translate(16.9 91.7) rotate(56.9) scale(1.32 0.64)" />
<rect x="15.5" y="14.4" width="29.9" height="32.4" rx="1.4" fill="hsl(40, 53%, 69%)" fill-opacity="0.68"   transform="translate(35.0 19.6) rotate(269.4) scale(0.85 1.48)" />
<path d="M 14.3 96.3 C 8.3 77.2, 74.2 37.3, 67.4 24.2 C 82.4 18.2, 45.8 62.0, 46.2 61.9 C 38.9 50.0, 87.1 0.0, 94.0 3.0 C 98.4 0.0, 32.2 41.6, 19.7 43.9 C 31.7 41.7, 88.4 98.8, 97.3 96.9 C 100.0 100.0, 72.9 83.0, 76.2 80.9 C 56.8 93.9, 15.4 99.2, 21.1 93.0 Z" fill="none" fill-opacity="0.91" stroke="hsl(106, 75%, 59%)" stroke-width="2.05"  transform="translate(79.4 48.9) rotate(261.5) scale(1.63 0.73)" />
<rect x="19.7" y="71.7" width="28.0" height="12.5" rx="4.0" fill="none" fill-opacity="0.27" stroke="hsl(83, 65%, 44%)" stroke-width="2.3"  transform="translate(62.9 46.4) rotate(113.3) scale(0.63 1.55)" />
<path d="M 48.3 39.8 C 60.9 21.8, 67.8 75.6, 79.9 72.3 C 96.5 67.3, 69.4 95.3, 76.3 81.5 C 91.6 94.8, 45.0 49.6, 53.2 50.9 C 43.3 44.1, 35.1 28.8, 23.3 22.9 C 43.3 8.0, 14.3 76.2, 4.1 79.1 C 0.0 95.5, 79.5 11.7, 86.2 9.4 C 80.7 18.4, 98.2 56.5, 94.0 43.7 C 93.5 25.6, 59.3 68.8, 54.1 61.4 " fill="hsl(242, 72%, 49%)" fill-opacity="0.33" stroke="none" stroke-width="4.88"  transform="translate(20.1 47.1) rotate(128.5) scale(0.89 1.86)" />
<rect x="52.4" y="24.9" width="28.7" height="29.0" rx="0" fill="hsl(83, 65%, 44%)" fill-opacity="0.42"   transform="translate(95.5 29.5) rotate(84.3) scale(1.17 0.95)" />
<path d="M 12.6 61.1 C 10.8 71.4, 89.3 20.9, 83.6 31.3 C 67.8 43.7, 0.0 97.1, 9.6 83.7 C 0.0 75.7, 14.8 17.4, 5.9 30.5 C 18.9 27.8, 57.6 3.1, 48.2 2.4 C 40.8 7.0, 72.2 33.7, 76.4 25.5 C 72.0 24.6, 82.1 63.0, 76.2 76.4 Z" fill="none" fill-opacity="0.26" stroke="hsl(322, 74%, 44%)" stroke-width="2.19"  transform="translate(92.5 20.1) rotate(176.1) scale(1.20 1.92)" />
<circle cx="58.6" cy="60.2" r="6.1" fill="url(#g2)" fill-opacity="0.76"  transform="translate(33.1 5.0) rotate(139.0) scale(1.52 1.85)" />
<path d="M 59.4 17.4 C 51.0 13.1, 0.0 54.4, 5.0 63.3 C 18.3 63.8, 65.7 87.8, 51.6 75.2 C 51.3 76.1, 81.3 37.2, 81.8 44.6 C 65.7 26.1, 40.8 28.7, 29.0 26.4 C 47.7 20.2, 73.9 28.9, 75.6 34.4 C 79.4 51.7, 35.3 83.8, 23.1 70.8 Z" fill="none" fill-opacity="0.32" stroke="hsl(40, 53%, 69%)" stroke-width="4.35"  transform="translate(65.9 95.2) rotate(218.0) scale(1.16 0.56)" />
<rect x="11.4" y="76.8" width="48.8" height="19.3" rx="0" fill="none" fill-opacity="0.65"   transform="translate(32.3 45.6) rotate(68.5) scale(1.05 0.70)" />
<rect x="5.4" y="34.0" width="22.7" height="25.2" rx="13.6" fill="hsl(83, 65%, 44%)" fill-opacity="0.78" stroke="hsl(2, 82%, 55%)" stroke-width="2.2"  transform="translate(16.9 44.2) rotate(104.2) scale(1.75 1.68)" />
<rect x="7.3" y="30.8" width="23.4" height="20.2" rx="11.2" fill="none" fill-opacity="0.25"  filter="url(#f1)" transform="translate(41.4 74.5) rotate(33.1) scale(0.87 1.36)" />
<path d="M 29.9 4.2 C 49.5 16.8, 5.6 31.5, 7.9 36.6 C 1.4 22.3, 0.0 28.3, 0.7 28.3 C 0.0 26.1, 67.8 1.1, 56.0 2.9 C 52.5 8.3, 35.3 92.6, 40.6 80.1 C 38.5 96.6, 67.0 43.4, 68.2 35.1 C 64.0 21.2, 78.3 43.2, 80.7 40.6 Z" fill="hsl(104, 72%, 65%)" fill-opacity="0.42" stroke="none" stroke-width="3.79"  transform="translate(6.7 34.1) rotate(339.4) scale(0.87 0.78)" />
<rect x="43.5" y="0.7" width="30.9" height="11.1" rx="1.8" fill="none" fill-opacity="0.21" stroke="hsl(104, 72%, 65%)" stroke-width="3.2"  transform="translate(93.2 70.2) rotate(112.8) scale(1.08 0.79)" />
<rect x="42.2" y="58.8" width="32.0" height="10.1" rx="2.3" fill="none" fill-opacity="0.40"   transform="translate(24.2 75.4) rotate(323.5) scale(1.51 0.68)" />
<path d="M 71.8 77.2 C 63.4 96.0, 86.2 55.0, 90.9 56.0 C 100.0 64.1, 92.6 68.3, 80.1 66.6 C 68.4 67.4, 63.5 24.9, 68.1 34.1 C 60.1 35.6, 52.7 19.8, 50.1 34.8 C 66.8 35.8, 27.1 84.0, 41.6 69.8 C 50.5 75.6, 36.9 93.6, 23.8 81.2 C 22.7 93.9, 81.3 17.4, 95.4 2.8 C 93.8 20.6, 10.2 71.1, 17.5 59.7 C 22.0 62.1, 0.0 77.7, 1.1 70.3 C 0.0 77.1, 71.4 83.1, 62.7 95.6 Z" fill="hsl(144, 86%, 72%)" fill-opacity="0.77" stroke="none" stroke-width="0.81"  transform="translate(63.2 50.5) rotate(83.2) scale(1.19 0.84)" />
<path d="M 39.0 10.1 C 25.8 26.5, 7.3 82.5, 2.0 87.3 C 2.3 96.1, 0.0 57.5, 11.7 70.5 C 1.3 59.6, 40.4 88.3, 37.7 93.9 C 48.4 100.0, 12.2 18.1, 25.8 30.3 C 8.3 29.4, 87.4 35.3, 92.5 32.0 C 80.5 20.3, 17.8 23.0, 21.0 27.5 C 36.3 29.2, 17.0 9.1, 8.3 20.5 C 0.0 3.6, 6.0 84.4, 9.1 73.4 C 1.1 92.3, 92.0 45.3, 94.4 35.5 " fill="hsl(104, 72%, 65%)" fill-opacity="0.43" stroke="none" stroke-width="3.13" filter="url(#f1)" transform="translate(47.6 11.0) rotate(140.2) scale(1.54 0.84)" />
<path d="M 24.8 78.3 C 31.9 68.9, 12.2 57.1, 6.8 50.7 C 0.0 35.8, 33.2 40.3, 31.5 54.9 C 26.0 73.9, 100.0 25.1, 98.1 20.9 C 100.0 2.8, 91.4 72.5, 99.8 63.2 C 100.0 67.7, 77.5 18.9, 69.3 8.3 C 81.8 1.1, 81.1 87.9, 67.0 89.5 C 66.4 85.1, 17.4 58.8, 6.6 54.7 C 0.0 73.3, 0.0 73.1, 4.1 69.1 C 16.9 84.6, 47.3 29.2, 32.8 25.5 Z" fill="none" fill-opacity="0.37" stroke="hsl(86, 72%, 68%)" stroke-width="0.85"  transform="translate(77.7 56.2) rotate(229.6) scale(1.20 0.88)" />
<path d="M 74.0 86.2 C 72.8 100.0, 40.5 20.7, 48.5 6.9 C 44.6 0.0, 65.5 24.3, 53.9 37.8 C 46.4 56.1, 62.5 18.1, 71.6 24.5 C 68.3 12.9, 55.3 37.9, 60.2 43.4 C 78.1 39.7, 35.1 55.4, 43.2 69.5 C 57.6 64.2, 67.6 6.5, 81.0 16.9 C 61.5 17.6, 12.1 91.3, 17.8 84.2 Z" fill="hsl(151, 70%, 62%)" fill-opacity="0.25" stroke="none" stroke-width="2.71"  transform="translate(14.4 73.5) rotate(329.7) scale(0.73 0.93)" />
<circle cx="41.7" cy="49.0" r="0.4" fill="url(#g0)" fill-opacity="0.94"  transform="translate(7.7 2.3) rotate(239.3) scale(1.69 1.52)" />
<path d="M 46.3 88.6 C 46.0 100.0, 56.6 25.5, 69.8 38.3 C 52.2 32.5, 49.4 73.1, 55.4 87.6 C 75.1 79.2, 8.4 67.2, 0.4 63.6 C 5.3 66.0, 92.1 78.0, 78.3 82.0 C 83.2 66.8, 78.8 29.2, 70.6 24.9 C 73.9 26.9, 6.8 49.6, 14.1 57.0 C 12.5 69.8, 45.0 92.8, 53.5 99.3 Z" fill="none" fill-opacity="0.65" stroke="hsl(322, 74%, 44%)" stroke-width="1.11"   />
<rect x="16.0" y="71.7" width="41.4" height="11.3" rx="0" fill="none" fill-opacity="0.96"   transform="translate(41.9 68.4) rotate(229.0) scale(0.87 1.92)" />
<circle cx="66.0" cy="32.6" r="2.8" fill="hsl(242, 72%, 49%)" fill-opacity="0.49"   />
<rect x="40.7" y="74.4" width="21.7" height="20.6" rx="17.5" fill="hsl(242, 72%, 49%)" fill-opacity="0.43"   transform="translate(42.1 93.8) rotate(127.0) scale(1.18 1.71)" />
<path d="M 13.8 96.2 C 13.1 93.2, 25.2 20.7, 38.2 7.4 C 20.5 7.7, 69.2 2.3, 59.5 6.9 C 58.4 25.1, 85.7 28.5, 83.6 28.9 C 80.2 20.6, 85.5 64.0, 86.6 69.7 C 70.9 63.3, 35.1 92.4, 43.0 95.2 C 43.8 96.9, 79.8 62.7, 68.9 70.7 C 76.1 51.3, 88.3 69.9, 78.9 77.5 Z" fill="hsl(322, 74%, 44%)" fill-opacity="0.42" stroke="none" stroke-width="3.02"  transform="translate(0.3 62.9) rotate(315.2) scale(0.51 1.95)" />
<circle cx="70.4" cy="27.6" r="9.3" fill="hsl(322, 74%, 44%)" fill-opacity="0.56"  transform="translate(17.2 71.3) rotate(181.3) scale(0.77 0.89)" />
<circle cx="44.8" cy="20.3" r="15.2" fill="hsl(86, 72%, 68%)" fill-opacity="0.52"  transform="translate(29.0 77.5) rotate(305.5) scale(0.73 0.56)" />
<circle cx="89.6" cy="32.7" r="2.3" fill="url(#g2)" fill-opacity="0.94"  transform="translate(93.4 99.7) rotate(141.6) scale(0.59 1.81)" />
<path d="M 11.2 92.8 C 0.0 100.0, 20.3 94.9, 14.7 89.1 C 24.7 100.0, 15.6 76.0, 5.9 66.1 C 11.1 76.1, 79.5 96.1, 70.4 96.0 C 64.1 100.0, 60.3 0.0, 46.6 12.2 C 43.3 28.2, 17.5 68.9, 15.7 76.4 C 27.2 77.7, 75.0 85.4, 79.8 89.6 C 82.4 100.0, 47.1 45.9, 57.9 47.6 C 69.6 28.7, 86.6 33.2, 93.9 47.3 C 100.0 62.4, 89.7 58.4, 86.4 71.0 Z" fill="hsl(151, 70%, 62%)" fill-opacity="0.64" stroke="none" stroke-width="4.46"  transform="translate(66.0 23.1) rotate(44.5) scale(1.21 0.86)" />
<path d="M 54.7 72.4 C 46.1 66.7, 13.1 53.2, 13.7 64.2 C 0.0 54.5, 28.9 67.6, 34.7 59.1 C 54.6 59.0, 12.6 88.6, 18.0 92.4 C 31.3 90.6, 30.8 100.0, 35.1 96.7 C 42.7 91.6, 78.1 17.3, 86.5 21.3 C 95.0 14.0, 4.5 14.1, 17.3 11.8 C 35.9 7.4, 29.7 97.8, 29.1 97.3 C 32.0 95.2, 44.0 100.0, 44.7 95.0 C 33.4 79.1, 50.0 84.7, 53.7 77.9 Z" fill="hsl(86, 72%, 68%)" fill-opacity="0.91" stroke="none" stroke-width="2.43"   />
<path d="M 27.5 83.3 C 26.8 69.9, 85.9 80.2, 85.8 72.9 C 88.5 87.5, 54.7 65.1, 46.2 74.0 C 55.2 59.8, 86.3 58.8, 82.8 53.8 C 64.7 34.3, 89.9 18.0, 87.9 22.5 C 69.9 7.0, 75.5 98.4, 65.1 92.7 C 62.1 87.8, 34.8 16.1, 46.1 23.1 C 60.3 10.5, 18.4 95.4, 21.5 89.9 C 5.2 89.5, 100.0 100.0, 90.6 88.8 C 80.5 72.2, 51.4 97.7, 55.0 100.0 C 73.8 100.0, 9.7 7.7, 17.8 22.6 " fill="none" fill-opacity="0.90" stroke="hsl(183, 71%, 60%)" stroke-width="2.95"  transform="translate(7.2 53.8) rotate(16.0) scale(1.83 1.16)" />
<path d="M 3.2 89.7 C 16.9 79.4, 40.8 84.9, 43.3 97.2 C 44.2 100.0, 12.5 68.4, 6.5 60.9 C 0.0 66.1, 63.7 68.9, 72.3 58.6 C 90.3 59.9, 40.3 94.2, 38.5 93.9 C 47.6 81.1, 100.0 4.7, 91.2 2.7 C 100.0 4.8, 14.8 77.6, 19.2 92.2 C 11.6 97.5, 37.8 58.8, 26.7 53.8 C 40.6 70.4, 49.8 2.2, 63.3 5.0 C 69.6 3.9, 12.4 2.6, 0.1 4.2 Z" fill="hsl(86, 72%, 68%)" fill-opacity="0.26" stroke="none" stroke-width="2.69"  transform="translate(91.9 71.2) rotate(78.0) scale(1.83 0.92)" />
<path d="M 22.9 31.8 C 27.3 32.9, 66.8 8.4, 79.2 6.4 C 60.1 21.6, 53.4 87.0, 53.0 86.6 C 54.1 67.5, 85.6 100.0, 72.0 98.6 C 52.5 100.0, 31.5 28.9, 38.1 33.9 C 50.0 23.8, 52.1 32.4, 49.5 46.3 C 45.7 32.4, 58.1 57.2, 59.8 59.8 C 78.2 41.0, 76.7 31.9, 61.8 36.9 Z" fill="hsl(290, 83%, 63%)" fill-opacity="0.61" stroke="none" stroke-width="3.02"  transform="translate(33.3 99.1) rotate(7.6) scale(1.69 1.66)" />
<path d="M 47.4 26.3 C 31.5 22.6, 68.2 64.9, 59.8 64.5 C 42.1 65.5, 54.8 38.5, 69.2 48.7 C 51.3 39.5, 65.0 78.7, 54.6 68.3 C 63.2 57.2, 18.2 1.4, 4.0 10.1 C 5.5 0.0, 88.6 37.2, 80.0 44.5 C 76.4 58.8, 84.2 91.4, 76.3 88.1 C 73.3 72.7, 49.0 15.2, 50.9 25.5 C 35.0 27.1, 94.2 57.3, 81.7 51.8 C 64.4 33.5, 46.8 11.4, 54.2 16.5 Z" fill="hsl(106, 75%, 59%)" fill-opacity="0.72" stroke="none" stroke-width="5.24"  transform="translate(59.4 82.6) rotate(65.9) scale(0.86 1.63)" />
<rect x="51.5" y="60.6" width="39.9" height="20.7" rx="14.9" fill="hsl(183, 71%, 60%)" fill-opacity="0.34" stroke="hsl(322, 74%, 44%)" stroke-width="1.7"  transform="translate(6.0 4.5) rotate(71.1) scale(1.96 1.28)" />
<rect x="70.6" y="10.0" width="23.6" height="21.7" rx="12.9" fill="none" fill-opacity="0.67"   transform="translate(30.4 68.4) rotate(20.9) scale(1.17 1.72)" />
<circle cx="2.9" cy="72.6" r="7.5" fill="hsl(104, 72%, 65%)" fill-opacity="0.81"  transform="translate(25.1 56.1) rotate(188.1) scale(1.27 1.28)" />
<path d="M 25.8 98.9 C 9.7 92.1, 55.8 20.3, 49.4 9.0 C 39.4 14.3, 32.0 48.9, 23.2 50.4 C 29.8 63.3, 28.1 99.2, 42.2 90.0 C 25.3 73.5, 60.8 77.6, 46.8 87.9 C 47.2 73.0, 25.0 53.7, 19.0 67.5 C 23.1 80.5, 87.8 46.5, 72.9 52.1 C 80.8 63.0, 100.0 25.8, 89.8 37.4 C 80.6 40.2, 97.8 50.6, 82.8 37.1 C 81.3 32.4, 28.4 30.1, 38.1 44.4 Z" fill="hsl(183, 71%, 60%)" fill-opacity="1.00" stroke="none" stroke-width="2.59"  transform="translate(22.6 1.3) rotate(105.0) scale(1.36 1.67)" />
<rect x="13.6" y="79.7" width="42.5" height="20.0" rx="0" fill="none" fill-opacity="0.99" stroke="hsl(2, 82%, 55%)" stroke-width="3.9"  transform="translate(90.8 88.9) rotate(231.2) scale(1.98 1.19)" />
<path d="M 48.0 76.5 C 61.2 66.9, 10.4 51.9, 13.5 43.5 C 30.3 58.6, 17.1 52.5, 25.6 41.4 C 39.5 39.3, 47.0 59.7, 53.2 70.4 C 61.9 73.6, 100.0 80.4, 95.5 85.3 C 100.0 82.9, 71.6 51.0, 74.4 37.1 C 78.2 40.3, 88.8 24.0, 80.3 17.2 C 75.5 27.0, 29.0 52.5, 15.0 55.7 C 19.3 73.6, 9.9 38.4, 14.0 49.3 Z" fill="hsl(2, 82%, 55%)" fill-opacity="0.57" stroke="none" stroke-width="2.46"  transform="translate(65.9 10.5) rotate(23.5) scale(1.25 0.55)" />
<path d="M 48.5 76.8 C 64.1 85.5, 39.5 63.7, 32.2 61.3 C 50.6 54.3, 71.5 83.7, 66.6 93.7 C 49.9 95.0, 87.7 6.4, 95.7 2.9 C 87.7 17.8, 94.1 83.5, 89.9 79.5 C 80.4 79.2, 99.0 73.4, 89.5 65.1 C 74.1 83.2, 34.4 58.5, 28.8 44.0 Z" fill="none" fill-opacity="0.90" stroke="hsl(242, 72%, 49%)" stroke-width="4.65"  transform="translate(81.2 18.7) rotate(275.6) scale(1.45 0.78)" />
<path d="M 43.9 8.7 C 25.7 19.4, 16.0 51.5, 24.1 56.1 C 35.3 67.2, 57.0 0.0, 45.0 1.1 C 62.9 2.7, 82.2 84.2, 67.4 76.6 C 66.9 69.1, 75.2 57.2, 62.3 44.6 C 75.1 41.8, 11.3 63.8, 24.6 69.9 C 5.8 81.5, 72.6 100.0, 67.7 94.1 C 86.1 79.8, 96.1 92.7, 93.7 99.4 C 100.0 97.8, 100.0 65.6, 94.0 71.2 Z" fill="none" fill-opacity="0.57" stroke="hsl(151, 70%, 62%)" stroke-width="2.22"  transform="translate(10.0 71.8) rotate(343.0) scale(0.82 1.39)" />
<path d="M 82.3 30.4 C 87.2 48.0, 97.7 36.3, 98.4 37.4 C 81.6 56.0, 58.7 15.6, 55.4 7.2 C 38.4 0.0, 53.9 44.9, 54.1 36.0 C 51.7 19.2, 26.2 34.9, 28.3 26.9 C 44.0 38.9, 95.1 0.0, 84.0 13.1 C 99.8 19.7, 84.7 44.6, 99.3 40.3 C 90.6 60.0, 41.9 92.8, 52.9 99.1 C 40.5 100.0, 72.1 66.8, 66.5 76.3 C 65.5 80.6, 35.5 26.2, 46.7 40.0 C 58.3 38.8, 31.9 49.8, 30.4 36.4 Z" fill="none" fill-opacity="0.34" stroke="hsl(322, 74%, 44%)" stroke-width="4.15"  transform="translate(20.7 35.9) rotate(350.1) scale(0.51 0.76)" />
<path d="M 57.1 42.5 C 40.0 41.5, 12.5 43.2, 5.2 52.1 C 8.5 68.7, 25.5 51.8, 29.3 63.6 C 39.7 45.1, 63.1 50.6, 76.4 60.7 C 72.8 43.7, 12.4 64.7, 26.6 65.3 C 35.0 79.8, 71.8 98.1, 68.0 98.2 C 59.8 100.0, 23.5 44.0, 18.5 58.2 Z" fill="none" fill-opacity="0.74" stroke="hsl(40, 53%, 69%)" stroke-width="2.76"  transform="translate(11.7 64.3) rotate(351.4) scale(0.71 0.71)" />
<path d="M 95.6 56.9 C 96.3 65.6, 91.6 94.8, 91.0 92.3 C 100.0 78.9, 18.4 23.0, 4.6 11.9 C 0.0 17.2, 5.3 58.9, 13.1 51.2 C 4.5 62.3, 24.5 84.8, 13.4 83.2 C 15.5 72.0, 0.0 74.0, 9.9 79.9 C 24.9 98.0, 0.0 7.0, 2.4 16.7 C 19.5 8.7, 12.7 10.0, 7.5 12.6 C 10.2 30.8, 42.0 31.4, 35.5 33.1 C 30.9 15.9, 47.8 80.9, 44.5 76.3 C 40.3 92.7, 56.0 100.0, 48.4 93.9 Z" fill="hsl(2, 82%, 55%)" fill-opacity="0.94" stroke="none" stroke-width="2.75"   />
<path d="M 75.8 52.9 C 73.5 55.1, 7.4 18.1, 20.0 28.7 C 2.1 25.9, 44.0 100.0, 54.8 99.3 C 69.5 89.2, 77.6 70.1, 79.3 78.1 C 95.9 88.9, 16.8 83.7, 15.5 71.0 C 27.8 87.1, 51.4 45.5, 65.1 37.5 C 81.8 30.2, 58.1 29.6, 49.0 28.8 C 56.1 24.6, 22.0 86.2, 13.3 75.7 C 0.0 95.3, 9.2 65.5, 17.9 66.1 C 29.8 55.4, 79.0 0.0, 68.1 7.0 Z" fill="hsl(183, 71%, 60%)" fill-opacity="0.88" stroke="none" stroke-width="1.13"  transform="translate(49.0 13.0) rotate(359.0) scale(1.98 0.84)" />
<rect x="55.1" y="82.2" width="33.8" height="14.2" rx="4.7" fill="none" fill-opacity="0.38" stroke="hsl(290, 83%, 63%)" stroke-width="4.3"  transform="translate(36.1 86.8) rotate(242.2) scale(2.00 1.55)" />
<circle cx="64.4" cy="32.0" r="1.2" fill="url(#g0)" fill-opacity="0.53"  transform="translate(2.3 66.5) rotate(359.7) scale(1.15 0.52)" />
<circle cx="67.5" cy="95.5" r="2.8" fill="url(#g2)" fill-opacity="0.90"  transform="translate(20.7 35.0) rotate(51.2) scale(0.69 1.91)" />
<path d="M 80.6 68.9 C 78.3 57.3, 100.0 23.4, 99.2 36.4 C 84.0 45.2, 3.3 30.8, 11.2 37.5 C 5.1 45.7, 44.3 77.0, 55.8 66.5 C 37.4 59.8, 14.8 72.3, 6.9 78.8 C 0.0 92.9, 17.8 47.4, 23.8 37.0 C 41.5 31.1, 36.3 92.8, 38.5 95.9 C 38.5 93.8, 88.0 79.3, 94.8 67.7 Z" fill="none" fill-opacity="0.63" stroke="hsl(151, 70%, 62%)" stroke-width="4.91"  transform="translate(74.8 0.6) rotate(354.2) scale(1.90 1.73)" />
<rect x="26.3" y="17.0" width="35.2" height="30.7" rx="0" fill="hsl(151, 70%, 62%)" fill-opacity="0.83" stroke="hsl(40, 53%, 69%)" stroke-width="1.5"   />
<path d="M 96.4 71.1 C 85.9 54.7, 9.4 94.6, 0.2 96.6 C 0.0 87.4, 91.4 46.3, 98.4 43.7 C 85.8 59.7, 54.5 38.0, 65.9 48.2 C 51.7 66.8, 16.4 50.3, 20.8 62.6 C 29.7 60.8, 5.8 28.5, 10.2 35.2 C 23.6 20.1, 59.3 59.4, 48.9 61.3 C 57.7 56.9, 9.7 78.8, 8.3 92.2 C 0.0 75.9, 26.0 45.0, 28.7 42.0 C 10.2 23.8, 73.5 13.0, 82.2 26.9 Z" fill="hsl(106, 75%, 59%)" fill-opacity="0.28" stroke="none" stroke-width="3.99"  transform="translate(56.9 30.2) rotate(63.4) scale(1.20 0.86)" />
<circle cx="35.7" cy="83.2" r="3.6" fill="hsl(144, 86%, 72%)" fill-opacity="0.51"  transform="translate(95.7 93.4) rotate(215.7) scale(0.58 1.71)" />
<path d="M 43.3 87.3 C 59.1 77.7, 86.0 38.7, 94.7 32.4 C 81.8 44.8, 79.3 97.7, 88.6 98.2 C 100.0 100.0, 21.8 47.5, 7.8 50.8 C 0.0 51.7, 89.7 25.6, 83.9 40.5 C 72.8 31.1, 59.6 100.0, 45.4 94.2 C 52.5 100.0, 42.1 0.0, 53.7 0.8 C 41.3 0.0, 77.3 72.1, 86.0 63.2 Z" fill="hsl(104, 72%, 65%)" fill-opacity="0.89" stroke="none" stroke-width="4.81" filter="url(#f1)" transform="translate(40.6 62.6) rotate(293.5) scale(1.11 0.66)" />
<rect x="31.7" y="5.3" width="38.1" height="19.5" rx="14.6" fill="none" fill-opacity="0.32"   transform="translate(56.7 6.0) rotate(245.9) scale(0.57 1.00)" />
<rect x="34.0" y="27.2" width="47.0" height="30.1" rx="5.2" fill="hsl(106, 75%, 59%)" fill-opacity="0.66"    />
<circle cx="63.4" cy="13.7" r="17.4" fill="hsl(2, 82%, 55%)" fill-opacity="0.43"   />
<path d="M 11.6 12.5 C 1.4 10.3, 96.4 23.2, 91.8 34.8 C 75.8 49.1, 61.0 58.7, 66.2 61.0 C 48.2 60.5, 64.2 31.8, 68.8 24.9 C 85.6 30.5, 16.4 0.0, 23.5 2.6 C 20.1 17.7, 100.0 49.7, 96.7 64.0 C 100.0 58.5, 43.3 70.5, 32.2 78.9 C 42.0 79.7, 36.8 12.9, 41.9 4.7 C 56.0 2.6, 0.0 36.8, 1.5 46.8 Z" fill="none" fill-opacity="0.91" stroke="hsl(151, 70%, 62%)" stroke-width="2.13"  transform="translate(73.6 78.3) rotate(321.8) scale(1.12 1.87)" />
<path d="M 28.9 19.6 C 43.2 11.1, 33.7 29.1, 43.5 31.2 C 31.4 49.2, 92.1 82.2, 89.6 68.7 C 96.4 85.6, 56.0 54.9, 48.5 54.5 C 54.5 54.2, 23.0 8.3, 20.5 17.7 C 34.6 0.0, 37.1 14.7, 40.7 0.5 C 30.4 14.8, 16.2 63.4, 27.7 58.7 C 31.6 46.9, 49.4 62.9, 47.4 69.7 Z" fill="hsl(322, 74%, 44%)" fill-opacity="0.62" stroke="none" stroke-width="3.69"  transform="translate(82.8 1.2) rotate(24.8) scale(1.29 1.01)" />
<path d="M 68.1 79.3 C 75.1 65.0, 9.4 28.6, 14.3 15.5 C 15.2 0.0, 12.3 0.0, 19.9 4.0 C 0.0 0.0, 70.2 22.4, 66.3 18.2 C 46.4 17.6, 34.4 16.7, 42.3 14.1 C 36.4 0.0, 34.6 39.5, 24.5 54.2 C 11.2 54.2, 33.1 0.0, 40.1 6.5 C 59.8 0.0, 49.8 29.6, 64.5 38.0 C 65.2 30.5, 80.4 55.4, 66.2 53.8 Z" fill="none" fill-opacity="0.80" stroke="hsl(242, 72%, 49%)" stroke-width="3.67"  transform="translate(59.5 92.4) rotate(319.0) scale(0.66 1.83)" />
<path d="M 32.4 10.4 C 21.3 0.0, 15.0 36.5, 9.1 36.1 C 0.0 24.2, 48.0 12.6, 62.4 24.7 C 56.2 29.8, 100.0 87.9, 89.1 93.9 C 100.0 100.0, 29.3 67.2, 19.8 71.2 C 38.1 68.5, 6.2 84.2, 3.8 76.0 C 8.7 59.1, 43.7 98.5, 37.7 99.6 C 49.6 100.0, 15.0 36.6, 6.9 24.7 C 11.1 7.3, 77.0 28.8, 72.5 25.3 C 77.4 30.4, 0.0 100.0, 1.4 90.1 C 21.1 88.0, 70.2 25.9, 62.8 40.7 Z" fill="hsl(144, 86%, 72%)" fill-opacity="0.99" stroke="none" stroke-width="3.71"   />
<circle cx="11.8" cy="54.1" r="7.3" fill="url(#g0)" fill-opacity="0.84"  transform="translate(97.8 39.4) rotate(31.3) scale(1.52 0.81)" />
<rect x="10.8" y="76.2" width="32.0" height="22.2" rx="0" fill="none" fill-opacity="0.35" stroke="hsl(290, 83%, 63%)" stroke-width="4.7" filter="url(#f1)" transform="translate(71.2 62.4) rotate(49.8) scale(0.60 1.77)" />
<circle cx="31.2" cy="82.6" r="3.8" fill="url(#g0)" fill-opacity="0.52"  transform="translate(67.8 29.5) rotate(120.8) scale(1.71 1.93)" />
<path d="M 70.3 71.4 C 80.4 77.0, 70.9 95.0, 65.1 86.1 C 78.1 91.0, 89.0 16.6, 92.2 3.9 C 100.0 12.7, 33.6 42.8, 39.8 43.6 C 46.4 56.6, 79.5 36.2, 68.7 41.7 C 55.3 57.0, 57.1 46.8, 48.5 53.1 C 55.9 53.6, 62.7 20.6, 64.3 21.4 C 78.6 4.0, 60.8 31.3, 68.4 22.8 C 68.4 36.2, 97.8 62.3, 99.9 66.2 Z" fill="none" fill-opacity="0.30" stroke="hsl(322, 74%, 44%)" stroke-width="2.96"  transform="translate(55.3 83.2) rotate(66.4) scale(0.68 1.00)" />
<path d="M 34.4 17.6 C 36.6 32.3, 66.1 87.5, 53.8 76.7 C 66.0 74.0, 32.9 81.3, 20.3 84.6 C 19.6 74.0, 49.6 87.3, 44.6 88.5 C 42.0 76.2, 52.9 68.9, 63.7 56.9 C 73.4 57.9, 17.0 78.4, 7.5 90.3 C 0.0 91.0, 79.8 47.4, 71.6 38.4 C 54.6 50.3, 100.0 46.0, 94.9 42.4 C 79.1 29.7, 75.5 46.4, 69.5 44.0 Z" fill="none" fill-opacity="0.89" stroke="hsl(290, 83%, 63%)" stroke-width="3.08"  transform="translate(40.4 89.4) rotate(69.8) scale(1.05 1.17)" />
<path d="M 27.8 40.6 C 42.4 41.0, 5.3 62.1, 15.2 60.9 C 0.0 72.1, 87.1 99.0, 75.3 87.9 C 90.0 100.0, 71.1 26.5, 81.2 32.8 C 83.0 29.5, 30.7 100.0, 36.5 94.9 C 24.2 75.5, 10.9 42.5, 23.2 46.9 C 9.2 57.5, 15.9 0.0, 23.0 9.6 C 33.2 28.6, 94.8 72.5, 86.6 61.4 Z" fill="hsl(104, 72%, 65%)" fill-opacity="0.96" stroke="none" stroke-width="4.61"  transform="translate(89.4 43.8) rotate(71.6) scale(1.78 1.18)" />
<circle cx="79.7" cy="29.9" r="6.2" fill="url(#g1)" fill-opacity="0.96"  transform="translate(84.8 53.3) rotate(348.6) scale(1.35 0.74)" />
<path d="M 55.5 68.9 C 44.8 83.7, 74.4 11.3, 65.6 13.1 C 64.1 0.1, 2.6 85.2, 1.5 86.6 C 13.6 91.2, 75.8 6.0, 83.5 11.6 C 100.0 7.8, 70.1 15.3, 80.6 13.4 C 77.6 0.0, 5.5 42.0, 17.4 34.3 C 0.0 33.2, 74.2 63.6, 73.6 70.7 Z" fill="hsl(242, 72%, 49%)" fill-opacity="0.74" stroke="none" stroke-width="3.05"  transform="translate(27.2 59.4) rotate(304.4) scale(0.94 0.86)" />
<circle cx="17.8" cy="91.8" r="7.2" fill="url(#g2)" fill-opacity="0.78"  transform="translate(25.0 21.8) rotate(142.2) scale(1.61 1.56)" />
<circle cx="82.9" cy="4.5" r="3.4" fill="url(#g0)" fill-opacity="0.75"  transform="translate(50.6 84.6) rotate(154.4) scale(1.18 0.92)" />
<rect x="45.2" y="4.5" width="39.7" height="10.2" rx="0" fill="hsl(290, 83%, 63%)" fill-opacity="0.73"    />
<rect x="19.3" y="62.5" width="32.4" height="22.0" rx="4.8" fill="none" fill-opacity="0.55"   transform="translate(69.8 11.4) rotate(225.4) scale(0.89 1.29)" />
<rect x="55.1" y="29.5" width="44.8" height="21.0" rx="16.9" fill="hsl(144, 86%, 72%)" fill-opacity="0.88"  filter="url(#f1)" transform="translate(60.1 22.6) rotate(161.7) scale(0.82 0.54)" />
<path d="M 80.0 41.9 C 71.5 30.5, 38.1 34.9, 43.6 38.0 C 33.7 21.4, 0.0 23.9, 8.6 9.5 C 9.0 20.5, 52.5 65.9, 49.9 70.5 C 35.9 84.4, 74.6 71.0, 83.1 73.7 C 99.0 68.7, 43.0 88.6, 29.3 98.0 C 38.4 100.0, 52.6 100.0, 59.1 90.2 C 72.0 93.5, 12.4 100.0, 1.3 96.9 " fill="hsl(106, 75%, 59%)" fill-opacity="0.78" stroke="none" stroke-width="4.80"   />
<circle cx="84.1" cy="85.3" r="2.3" fill="url(#g0)" fill-opacity="0.92"  transform="translate(99.9 3.7) rotate(322.4) scale(0.59 1.90)" />
<path d="M 66.1 30.8 C 65.1 44.9, 19.1 13.3, 18.3 27.9 C 28.6 46.5, 89.3 93.5, 81.2 87.1 C 94.1 76.9, 32.6 32.6, 22.6 43.7 C 33.8 30.6, 70.3 74.2, 67.8 72.6 C 67.0 73.7, 77.3 63.2, 82.1 72.0 C 74.2 91.3, 72.2 55.5, 67.8 53.4 " fill="hsl(2, 82%, 55%)" fill-opacity="0.33" stroke="none" stroke-width="2.97"  transform="translate(25.1 52.3) rotate(49.6) scale(1.91 1.60)" />
<rect x="56.9" y="56.0" width="22.5" height="36.6" rx="0" fill="none" fill-opacity="0.85" stroke="hsl(144, 86%, 72%)" stroke-width="3.3"   />
<path d="M 89.0 50.2 C 82.7 65.1, 17.9 15.4, 15.3 5.8 C 11.2 9.6, 0.0 11.0, 0.6 6.7 C 0.0 0.0, 44.6 39.9, 54.5 27.4 C 55.8 37.2, 84.7 46.2, 92.7 56.4 C 100.0 37.0, 34.3 2.5, 37.9 15.6 C 25.2 27.2, 61.2 38.2, 72.3 34.5 C 63.3 51.1, 22.8 55.6, 11.5 66.5 C 3.5 51.6, 95.5 14.8, 81.3 3.6 C 94.4 4.9, 28.7 1.6, 43.1 0.9 Z" fill="hsl(144, 86%, 72%)" fill-opacity="0.50" stroke="none" stroke-width="2.80"  transform="translate(11.7 33.0) rotate(249.2) scale(1.02 0.79)" />
<path d="M 75.0 46.8 C 88.8 42.4, 46.3 26.7, 31.6 26.8 C 29.5 29.4, 92.3 63.7, 89.4 77.5 C 84.5 95.6, 59.6 84.8, 50.2 89.7 C 66.5 98.9, 77.1 78.3, 82.2 71.4 C 92.3 80.9, 49.3 41.6, 39.7 45.6 C 55.9 64.7, 93.4 57.6, 86.7 52.1 C 92.9 38.4, 86.9 4.8, 84.0 6.9 C 83.4 22.7, 58.3 16.9, 48.0 11.4 C 40.2 28.8, 58.3 96.4, 52.6 85.5 C 43.2 99.6, 15.0 36.6, 20.1 23.2 " fill="hsl(106, 75%, 59%)" fill-opacity="0.85" stroke="none" stroke-width="4.36"  transform="translate(64.8 54.3) rotate(44.0) scale(1.46 1.99)" />
<path d="M 21.2 94.6 C 4.9 77.9, 95.6 20.7, 99.3 28.3 C 88.8 20.1, 24.4 85.7, 20.7 90.7 C 39.3 85.3, 12.2 82.8, 4.0 68.7 C 0.2 55.1, 36.1 56.8, 33.6 55.5 C 30.8 67.4, 45.6 69.9, 37.0 55.8 C 36.5 38.6, 70.9 56.9, 71.2 63.1 C 83.9 65.1, 0.0 23.6, 3.2 26.1 C 8.2 8.8, 31.0 2.7, 28.4 15.6 C 10.8 25.2, 35.2 0.6, 28.6 9.0 C 47.1 8.7, 8.4 49.5, 2.6 44.0 Z" fill="hsl(183, 71%, 60%)" fill-opacity="0.75" stroke="none" stroke-width="0.92"  transform="translate(46.5 5.7) rotate(279.1) scale(0.97 1.85)" />
<path d="M 48.8 38.7 C 60.3 55.6, 94.0 93.8, 96.7 78.9 C 100.0 81.4, 90.8 77.1, 85.9 78.8 C 96.8 73.0, 100.0 41.9, 93.5 42.1 C 100.0 57.9, 56.0 22.5, 49.6 15.1 C 32.8 0.2, 20.8 58.9, 34.8 53.4 C 28.1 35.7, 57.1 30.1, 53.0 40.3 C 36.7 59.5, 78.8 94.2, 81.8 90.8 C 98.2 98.7, 47.2 81.7, 40.1 70.1 C 44.1 71.1, 8.6 67.3, 3.7 56.3 C 10.2 65.4, 100.0 23.1, 99.1 17.9 Z" fill="none" fill-opacity="0.29" stroke="hsl(151, 70%, 62%)" stroke-width="1.67"  transform="translate(31.7 41.0) rotate(313.4) scale(1.14 1.59)" />
<rect x="25.4" y="19.8" width="45.5" height="30.0" rx="4.9" fill="hsl(2, 82%, 55%)" fill-opacity="0.87"    />
<rect x="67.9" y="64.3" width="20.2" height="33.8" rx="0" fill="hsl(86, 72%, 68%)" fill-opacity="0.98"   transform="translate(65.2 60.0) rotate(177.2) scale(0.70 1.17)" />
<rect x="6.5" y="29.8" width="23.0" height="27.0" rx="0" fill="none" fill-opacity="0.71"    />
<path d="M 54.5 19.7 C 55.7 7.8, 0.0 56.8, 11.7 55.8 C 16.6 61.2, 65.5 85.8, 57.5 94.1 C 76.0 99.2, 47.3 11.5, 51.1 14.3 C 32.0 3.0, 34.0 79.2, 41.4 92.6 C 60.5 74.4, 83.3 32.0, 73.3 35.2 C 71.4 44.2, 31.3 45.6, 46.2 58.5 C 35.8 45.6, 88.7 95.6, 85.5 94.0 Z" fill="none" fill-opacity="0.61" stroke="hsl(83, 65%, 44%)" stroke-width="1.30"  transform="translate(0.6 47.4) rotate(92.1) scale(0.73 1.34)" />
<rect x="43.8" y="16.6" width="22.0" height="14.2" rx="7.4" fill="none" fill-opacity="0.27"   transform="translate(70.9 4.8) rotate(156.0) scale(0.54 1.91)" />
<circle cx="69.4" cy="18.7" r="10.9" fill="hsl(183, 71%, 60%)" fill-opacity="0.66"  transform="translate(22.0 89.6) rotate(162.8) scale(1.62 1.75)" />
<path d="M 88.7 23.5 C 95.7 28.9, 87.3 22.5, 80.8 22.1 C 76.0 11.4, 15.7 98.8, 16.8 84.0 C 11.3 91.4, 67.8 19.6, 59.6 13.6 C 44.6 27.9, 38.2 22.2, 30.3 21.1 C 23.9 20.0, 51.4 93.6, 48.1 80.9 C 57.3 88.5, 74.8 36.9, 80.5 40.1 C 90.4 27.4, 42.0 0.0, 55.5 0.6 C 64.6 0.0, 56.2 29.0, 68.7 35.6 C 78.2 18.1, 50.8 29.5, 54.3 33.5 C 47.8 52.7, 71.5 33.3, 62.9 32.8 Z" fill="none" fill-opacity="0.56" stroke="hsl(322, 74%, 44%)" stroke-width="3.93"   />
<path d="M 49.0 41.7 C 48.9 26.0, 89.6 28.3, 85.4 37.6 C 86.2 26.8, 78.7 86.6, 86.9 81.5 C 100.0 99.7, 9.1 68.6, 8.5 70.8 C 27.3 66.9, 100.0 65.9, 98.6 62.4 C 98.8 45.7, 77.2 0.0, 83.2 9.7 C 82.5 15.9, 70.3 80.5, 62.0 94.4 C 70.4 96.4, 3.0 53.4, 0.3 47.9 C 12.5 63.0, 33.4 0.6, 33.2 4.5 C 15.3 0.0, 16.0 62.8, 18.0 70.2 C 29.0 54.3, 86.5 44.5, 85.3 52.2 Z" fill="hsl(86, 72%, 68%)" fill-opacity="0.59" stroke="none" stroke-width="4.87"  transform="translate(35.6 77.2) rotate(40.2) scale(0.55 1.21)" />
<path d="M 63.7 86.6 C 52.1 73.3, 41.9 55.0, 29.8 44.4 C 29.5 28.1, 55.8 74.4, 52.4 81.8 C 60.3 77.5, 70.9 51.7, 79.4 44.7 C 97.7 55.8, 29.3 48.9, 30.6 49.4 C 45.6 34.4, 42.7 75.5, 49.7 84.9 C 62.3 80.8, 83.3 42.7, 94.3 39.5 C 81.7 34.2, 53.2 12.7, 58.4 16.5 C 54.2 24.2, 73.0 21.5, 65.5 30.7 C 62.2 43.2, 19.1 27.3, 29.5 24.4 C 43.6 38.0, 61.7 13.3, 64.3 21.7 Z" fill="hsl(86, 72%, 68%)" fill-opacity="0.93" stroke="none" stroke-width="4.61" filter="url(#f1)" transform="translate(18.4 86.5) rotate(137.6) scale(0.73 1.32)" />
<rect x="25.1" y="41.2" width="46.0" height="28.5" rx="19.2" fill="hsl(151, 70%, 62%)" fill-opacity="0.92" stroke="hsl(151, 70%, 62%)" stroke-width="3.4" filter="url(#f1)" transform="translate(32.1 13.5) rotate(307.8) scale(1.61 0.73)" />
<path d="M 8.5 85.6 C 0.0 97.7, 33.8 48.2, 24.1 44.3 C 22.5 42.2, 85.9 57.4, 83.3 65.7 C 87.9 83.2, 96.6 98.6, 92.1 85.6 C 88.3 68.0, 50.0 17.5, 52.6 9.1 C 48.6 0.0, 35.4 48.5, 36.9 58.9 C 23.2 53.4, 87.8 26.8, 94.4 23.4 C 100.0 24.7, 21.4 38.2, 8.1 43.3 " fill="hsl(86, 72%, 68%)" fill-opacity="0.91" stroke="none" stroke-width="2.96"  transform="translate(58.0 89.7) rotate(192.6) scale(1.99 1.15)" />
<path d="M 27.8 53.2 C 22.2 63.2, 8.1 27.6, 2.2 37.1 C 15.2 18.6, 100.0 78.0, 93.3 64.8 C 100.0 46.5, 36.2 67.6, 37.2 77.5 C 23.5 96.0, 73.9 18.8, 84.3 11.2 C 75.4 14.6, 47.6 0.9, 52.0 1.2 C 43.9 13.2, 7.4 57.7, 21.5 70.8 Z" fill="hsl(40, 53%, 69%)" fill-opacity="0.92" stroke="none" stroke-width="1.77" filter="url(#f1)" transform="translate(14.6 82.4) rotate(27.0) scale(1.86 0.71)" />
<path d="M 13.3 96.5 C 0.0 100.0, 21.9 46.0, 12.1 45.8 C 21.4 43.8, 85.3 0.0, 76.1 2.0 C 65.4 1.7, 0.0 13.0, 4.0 27.4 C 19.6 40.9, 15.5 12.8, 11.9 10.9 C 0.0 10.9, 47.9 0.0, 44.7 8.4 C 42.7 1.7, 70.1 17.2, 81.6 27.2 C 100.0 24.3, 25.4 43.7, 14.3 33.3 Z" fill="hsl(144, 86%, 72%)" fill-opacity="0.79" stroke="none" stroke-width="2.07" filter="url(#f1)" transform="translate(75.6 20.8) rotate(143.2) scale(1.76 1.01)" />
<path d="M 19.7 97.1 C 24.1 100.0, 1.3 7.2, 14.3 17.0 C 0.9 8.1, 54.0 59.8, 41.9 55.1 C 38.1 67.6, 59.2 13.7, 60.8 1.7 C 78.4 8.4, 73.5 72.4, 73.6 77.4 C 78.5 75.8, 71.7 77.9, 62.0 74.8 C 81.0 86.5, 70.4 60.6, 70.9 49.1 C 73.6 55.6, 17.5 71.3, 26.8 73.1 Z" fill="hsl(151, 70%, 62%)" fill-opacity="0.82" stroke="none" stroke-width="4.66"  transform="translate(75.2 68.5) rotate(143.9) scale(1.55 1.75)" />
<circle cx="42.3" cy="69.2" r="1.7" fill="url(#g2)" fill-opacity="0.56"  transform="translate(8.3 76.8) rotate(348.6) scale(1.82 1.80)" />
<circle cx="98.4" cy="12.2" r="0.3" fill="hsl(40, 53%, 69%)" fill-opacity="0.49"  transform="translate(5.6 92.8) rotate(328.4) scale(0.59 1.05)" />
<path d="M 28.4 37.1 C 13.4 22.5, 19.8 25.8, 9.9 16.8 C 27.3 32.2, 0.0 62.5, 10.7 59.5 C 26.6 49.8, 59.4 42.1, 46.9 52.6 C 28.7 53.0, 98.2 56.7, 96.3 42.7 C 100.0 57.7, 18.9 44.7, 14.5 52.3 C 6.5 61.6, 0.0 6.6, 13.2 20.6 C 0.0 34.6, 91.4 98.8, 90.6 87.5 C 70.7 100.0, 22.0 20.0, 19.8 35.0 C 38.2 21.6, 78.5 7.4, 84.3 3.1 " fill="hsl(151, 70%, 62%)" fill-opacity="0.39" stroke="none" stroke-width="4.85"  transform="translate(27.5 42.0) rotate(285.8) scale(1.34 0.78)" />
<rect x="39.9" y="33.4" width="41.0" height="27.4" rx="0" fill="none" fill-opacity="0.60"   transform="translate(84.3 94.2) rotate(129.3) scale(1.27 1.19)" />
<rect x="42.0" y="34.0" width="44.4" height="34.7" rx="18.6" fill="hsl(106, 75%, 59%)" fill-opacity="0.63"   transform="translate(74.6 37.4) rotate(347.0) scale(1.21 0.66)" />
<path d="M 88.0 9.5 C 86.8 11.6, 0.0 59.6, 7.4 59.2 C 17.7 55.2, 26.0 43.9, 23.3 48.9 C 27.8 68.9, 45.5 11.7, 58.6 23.4 C 45.3 37.0, 51.8 20.9, 44.1 10.9 C 38.8 1.7, 49.8 11.7, 58.5 15.7 C 53.2 33.7, 24.4 89.5, 20.9 90.7 C 16.5 85.7, 76.5 45.7, 82.9 48.9 Z" fill="hsl(106, 75%, 59%)" fill-opacity="0.66" stroke="none" stroke-width="1.40" filter="url(#f1)" transform="translate(25.8 44.0) rotate(20.0) scale(1.50 1.83)" />
<path d="M 9.2 45.9 C 28.8 57.9, 35.0 100.0, 47.3 96.5 C 29.3 89.0, 65.4 27.3, 75.0 30.1 C 61.7 25.2, 83.8 27.9, 85.3 32.1 C 73.4 16.8, 92.9 39.1, 83.0 24.9 C 93.0 6.6, 76.6 71.8, 62.3 80.7 C 66.3 85.0, 41.0 12.0, 35.7 1.3 C 29.6 0.0, 100.0 77.9, 98.2 77.2 C 100.0 57.6, 80.3 67.0, 80.9 53.1 Z" fill="none" fill-opacity="0.75" stroke="hsl(144, 86%, 72%)" stroke-width="0.95"  transform="translate(29.8 18.6) rotate(13.8) scale(0.86 1.46)" />
<path d="M 95.6 25.3 C 96.5 44.6, 40.6 19.5, 25.8 20.1 C 31.8 6.0, 100.0 87.8, 97.6 93.3 C 79.1 81.2, 16.5 54.4, 29.9 47.9 C 46.9 33.2, 61.4 1.1, 71.9 4.1 C 91.9 21.8, 13.5 47.6, 19.2 46.2 C 38.2 50.5, 40.5 84.5, 55.1 82.5 Z" fill="none" fill-opacity="0.45" stroke="hsl(40, 53%, 69%)" stroke-width="0.99"  transform="translate(86.3 34.1) rotate(190.0) scale(0.64 1.28)" />
<rect x="42.6" y="76.0" width="26.4" height="15.8" rx="0" fill="none" fill-opacity="0.71"   transform="translate(81.1 93.3) rotate(213.2) scale(0.62 0.68)" />
<circle cx="6.4" cy="20.6" r="3.9" fill="hsl(183, 71%, 60%)" fill-opacity="0.83"  transform="translate(40.5 4.3) rotate(218.6) scale(1.41 0.86)" />
<path d="M 20.1 92.7 C 12.4 79.3, 17.5 75.9, 18.4 66.9 C 5.9 83.3, 69.6 14.0, 82.1 28.1 C 83.2 24.9, 37.2 73.2, 31.9 79.2 C 24.8 76.9, 37.9 77.6, 24.3 63.1 C 30.0 64.8, 99.7 29.5, 92.0 32.4 C 89.3 29.9, 100.0 86.3, 94.3 98.7 Z" fill="hsl(151, 70%, 62%)" fill-opacity="0.46" stroke="none" stroke-width="4.93"  transform="translate(97.7 16.6) rotate(134.7) scale(1.16 0.58)" />
<path d="M 5.6 64.1 C 23.4 83.8, 0.0 0.0, 7.3 7.3 C 17.4 5.3, 95.6 38.1, 95.4 42.5 C 100.0 53.0, 89.2 67.1, 94.1 81.8 C 100.0 63.7, 72.2 9.8, 84.0 24.3 C 69.2 33.5, 82.7 100.0, 96.9 93.7 C 93.0 94.7, 3.9 41.2, 7.2 54.2 C 0.0 36.0, 86.8 58.2, 94.8 43.4 C 91.4 26.6, 82.2 29.0, 85.5 42.3 C 98.5 30.7, 75.1 80.5, 83.1 79.6 C 79.2 67.6, 47.1 49.0, 45.1 54.5 Z" fill="hsl(83, 65%, 44%)" fill-opacity="0.53" stroke="none" stroke-width="2.41"  transform="translate(5.1 72.9) rotate(4.1) scale(1.21 0.63)" />
<path d="M 50.1 33.5 C 63.7 13.5, 93.2 69.5, 81.7 73.8 C 75.8 84.5, 59.5 62.3, 74.4 49.6 C 84.8 53.2, 51.5 4.7, 59.7 15.4 C 70.0 10.5, 93.2 77.6, 81.9 63.7 C 62.6 72.5, 91.4 77.3, 78.4 87.4 C 68.4 97.5, 76.3 20.0, 74.9 9.6 C 84.7 5.9, 100.0 78.4, 94.3 86.4 C 76.9 90.1, 34.3 84.6, 25.2 92.3 C 21.1 100.0, 93.7 20.5, 79.6 5.9 Z" fill="hsl(290, 83%, 63%)" fill-opacity="0.73" stroke="none" stroke-width="3.63"  transform="translate(84.8 9.8) rotate(348.2) scale(1.72 1.79)" />
<path d="M 76.5 64.2 C 58.2 62.9, 41.9 68.2, 53.8 58.1 C 57.6 71.4, 17.4 69.6, 11.3 64.5 C 10.9 84.2, 80.7 39.3, 77.5 54.2 C 87.2 54.5, 92.8 35.2, 94.3 21.1 C 80.3 35.0, 27.3 82.8, 36.1 75.7 C 40.3 56.6, 30.9 88.1, 32.5 97.2 C 15.0 100.0, 74.6 100.0, 73.4 99.7 C 87.2 86.9, 69.8 29.6, 76.1 36.5 Z" fill="hsl(290, 83%, 63%)" fill-opacity="0.38" stroke="none" stroke-width="2.33"  transform="translate(27.6 80.8) rotate(60.6) scale(0.81 0.61)" />
<rect x="52.2" y="39.1" width="43.2" height="18.0" rx="0" fill="none" fill-opacity="0.90"   transform="translate(16.1 30.0) rotate(187.9) scale(1.58 1.83)" />
<circle cx="48.8" cy="73.1" r="1.1" fill="hsl(151, 70%, 62%)" fill-opacity="0.70" filter="url(#f1)" transform="translate(43.0 91.6) rotate(164.0) scale(1.11 1.14)" />
<rect x="10.8" y="57.8" width="47.3" height="25.3" rx="7.1" fill="none" fill-opacity="0.88"   transform="translate(27.9 61.5) rotate(51.4) scale(1.89 1.69)" />
<rect x="4.2" y="32.5" width="33.7" height="25.9" rx="4.2" fill="none" fill-opacity="0.59"   transform="translate(71.3 7.6) rotate(23.4) scale(1.08 0.91)" />
<path d="M 53.0 59.3 C 66.2 62.6, 82.2 61.8, 76.1 62.1 C 89.0 60.4, 68.3 37.9, 55.3 40.0 C 48.9 23.9, 65.5 87.0, 67.4 99.9 C 56.4 100.0, 36.6 40.6, 23.7 32.3 C 39.3 24.3, 64.9 65.7, 72.7 63.4 C 89.0 63.5, 35.4 21.9, 46.9 28.5 C 27.4 38.0, 69.8 0.0, 72.2 10.7 C 83.9 2.6, 80.4 62.8, 88.2 54.7 C 100.0 47.0, 87.3 54.7, 75.3 55.6 " fill="none" fill-opacity="0.74" stroke="hsl(104, 72%, 65%)" stroke-width="4.10"  transform="translate(51.2 50.0) rotate(227.1) scale(1.48 1.91)" />
<circle cx="56.1" cy="45.1" r="11.7" fill="url(#g2)" fill-opacity="0.67"  transform="translate(44.1 33.4) rotate(359.0) scale(1.26 1.74)" />
<circle cx="82.3" cy="88.7" r="2.9" fill="url(#g0)" fill-opacity="0.56"  transform="translate(78.8 87.5) rotate(99.3) scale(1.67 1.22)" />
<rect x="16.6" y="58.1" width="48.5" height="15.5" rx="5.0" fill="none" fill-opacity="0.63"   transform="translate(40.4 52.7) rotate(8.1) scale(0.95 1.61)" />
<circle cx="90.3" cy="91.6" r="15.2" fill="hsl(322, 74%, 44%)" fill-opacity="0.88"  transform="translate(0.6 93.3) rotate(72.3) scale(1.98 1.92)" />
<circle cx="19.4" cy="41.8" r="6.2" fill="url(#g1)" fill-opacity="0.86"  transform="translate(70.9 8.0) rotate(188.5) scale(0.87 1.57)" />
<rect x="39.2" y="7.3" width="45.2" height="37.2" rx="0" fill="none" fill-opacity="0.73"   transform="translate(33.7 47.6) rotate(50.5) scale(0.62 1.20)" />
<circle cx="46.7" cy="38.4" r="8.9" fill="url(#g1)" fill-opacity="0.87"  transform="translate(60.4 15.4) rotate(65.0) scale(1.32 1.46)" />
<path d="M 66.5 25.3 C 58.6 28.3, 46.2 9.9, 51.5 15.7 C 51.4 34.1, 61.9 76.7, 58.3 66.3 C 42.1 66.0, 62.7 46.1, 67.4 38.6 C 86.6 47.1, 17.4 44.5, 22.8 46.2 C 25.7 64.0, 26.5 19.0, 15.0 29.5 C 14.0 42.8, 29.9 87.0, 17.0 73.1 C 14.2 62.6, 99.9 94.9, 94.3 97.6 C 79.4 88.9, 49.8 39.1, 63.8 32.5 C 80.4 44.8, 83.3 42.3, 86.7 41.8 Z" fill="hsl(242, 72%, 49%)" fill-opacity="0.95" stroke="none" stroke-width="5.11"  transform="translate(51.1 87.1) rotate(151.0) scale(1.86 1.09)" />
<path d="M 4.9 86.5 C 5.4 81.9, 62.1 98.5, 73.0 91.3 C 68.7 90.9, 3.4 76.5, 13.8 89.0 C 33.5 100.0, 81.2 57.4, 74.5 50.4 C 67.8 66.1, 31.9 23.3, 28.5 36.9 C 21.8 35.8, 50.4 86.1, 38.6 81.5 C 42.5 93.9, 85.3 62.7, 98.5 58.2 C 93.8 61.6, 58.9 32.8, 63.2 32.9 C 48.2 29.2, 75.3 66.8, 85.2 59.1 Z" fill="none" fill-opacity="0.33" stroke="hsl(2, 82%, 55%)" stroke-width="3.97"  transform="translate(95.6 17.0) rotate(285.6) scale(1.23 0.86)" />
<rect x="57.8" y="47.7" width="38.8" height="21.1" rx="8.7" fill="none" fill-opacity="0.27"   transform="translate(1.7 84.8) rotate(167.1) scale(0.87 0.79)" />
<circle cx="86.4" cy="99.9" r="3.9" fill="url(#g1)" fill-opacity="0.95"  transform="translate(39.6 35.6) rotate(3.3) scale(1.12 1.19)" />
<circle cx="53.2" cy="22.9" r="3.9" fill="hsl(104, 72%, 65%)" fill-opacity="0.59"  transform="translate(15.6 84.4) rotate(52.5) scale(0.56 1.38)" />
<rect x="5.5" y="63.8" width="49.9" height="33.7" rx="19.1" fill="none" fill-opacity="0.36" stroke="hsl(183, 71%, 60%)" stroke-width="2.0"  transform="translate(36.5 5.6) rotate(53.7) scale(1.89 1.74)" />
<path d="M 20.5 66.1 C 20.3 54.5, 8.7 50.1, 20.8 47.1 C 6.9 46.2, 91.1 8.3, 85.7 14.4 C 72.3 18.8, 69.2 0.0, 81.3 10.4 C 82.1 28.9, 33.8 0.0, 39.0 6.5 C 48.2 4.4, 6.3 42.8, 5.9 42.3 C 19.6 31.8, 0.1 19.2, 15.1 14.4 C 15.2 11.0, 22.2 29.5, 23.5 20.3 C 31.6 37.8, 68.9 32.0, 73.0 30.4 C 76.6 48.7, 57.7 47.3, 66.0 59.2 Z" fill="hsl(106, 75%, 59%)" fill-opacity="0.92" stroke="none" stroke-width="3.64" filter="url(#f1)" transform="translate(26.3 15.3) rotate(105.7) scale(0.66 0.81)" />
<circle cx="83.6" cy="49.5" r="11.4" fill="url(#g0)" fill-opacity="0.93" filter="url(#f1)" transform="translate(51.8 21.7) rotate(274.2) scale(1.46 1.66)" />
<path d="M 74.6 76.7 C 90.6 94.6, 31.2 25.3, 29.3 37.9 C 29.5 19.0, 48.6 87.7, 47.3 88.6 C 31.6 81.5, 35.5 95.9, 26.4 97.4 C 24.7 86.7, 83.1 59.9, 89.4 48.0 C 94.0 28.8, 36.9 49.1, 32.3 38.1 C 19.6 48.3, 22.3 57.3, 25.8 66.6 Z" fill="hsl(242, 72%, 49%)" fill-opacity="0.28" stroke="none" stroke-width="1.60"   />
<path d="M 47.7 71.7 C 35.4 53.3, 95.6 52.7, 82.1 51.9 C 70.4 48.0, 88.3 63.3, 73.5 61.1 C 64.8 42.9, 57.9 83.7, 71.0 87.9 C 68.7 100.0, 43.2 86.5, 56.6 81.6 C 40.7 84.1, 82.0 41.8, 89.3 54.2 C 87.2 47.3, 55.2 53.8, 54.6 41.1 C 72.9 42.8, 71.5 66.7, 85.9 64.5 C 70.7 61.4, 49.3 90.9, 43.5 76.2 Z" fill="hsl(322, 74%, 44%)" fill-opacity="0.72" stroke="none" stroke-width="2.61"  transform="translate(44.5 66.5) rotate(309.8) scale(1.12 1.04)" />
<rect x="42.0" y="16.3" width="22.5" height="14.9" rx="12.3" fill="hsl(290, 83%, 63%)" fill-opacity="0.39" stroke="hsl(290, 83%, 63%)" stroke-width="3.6"   />
<path d="M 96.0 28.8 C 95.1 47.9, 36.6 52.5, 29.5 54.6 C 46.2 66.1, 0.0 76.9, 4.6 75.1 C 22.6 73.7, 22.6 38.9, 28.9 35.7 C 45.2 16.2, 41.2 52.1, 33.7 61.6 C 45.8 79.3, 52.9 24.6, 53.3 37.1 C 37.7 26.4, 50.2 58.4, 60.5 47.6 Z" fill="hsl(86, 72%, 68%)" fill-opacity="0.63" stroke="none" stroke-width="1.27" filter="url(#f1)"  />
<g opacity="0.072">
<rect x="0" y="0" width="1" height="100" fill="black" />
<rect x="22" y="0" width="1" height="100" fill="black" />
<rect x="44" y="0" width="1" height="100" fill="black" />
<rect x="66" y="0" width="1" height="100" fill="black" />
<rect x="88" y="0" width="1" height="100" fill="black" />
<rect x="0" y="0" width="100" height="1" fill="black" />
<rect x="0" y="22" width="100" height="1" fill="black" />
<rect x="0" y="44" width="100" height="1" fill="black" />
<rect x="0" y="66" width="100" height="1" fill="black" />
<rect x="0" y="88" width="100" height="1" fill="black" />
</g>

</svg>
