<?xml version="1.0" encoding="UTF-8"?>
<svg xmlns="http://www.w3.org/2000/svg" width="100" height="100" viewBox="0 0 100 100">
<defs>
<linearGradient id="g0" x1="0%" y1="0%" x2="100%" y2="100%">
<stop offset="0.0%" stop-color="hsl(106, 75%, 59%)" />
<stop offset="33.3%" stop-color="hsl(183, 71%, 60%)" />
<stop offset="66.7%" stop-color="hsl(242, 72%, 49%)" />
<stop offset="100.0%" stop-color="hsl(322, 74%, 44%)" />
</linearGradient>
<linearGradient id="g1" x1="0%" y1="0%" x2="100%" y2="100%">
<stop offset="0.0%" stop-color="hsl(290, 83%, 63%)" />
<stop offset="33.3%" stop-color="hsl(2, 82%, 55%)" />
<stop offset="66.7%" stop-color="hsl(86, 72%, 68%)" />
<stop offset="100.0%" stop-color="hsl(83, 65%, 44%)" />
</linearGradient>
<linearGradient id="g2" x1="0%" y1="0%" x2="100%" y2="100%">
<stop offset="0.0%" stop-color="hsl(40, 53%, 69%)" />
<stop offset="33.3%" stop-color="hsl(104, 72%, 65%)" />
<stop offset="66.7%" stop-color="hsl(144, 86%, 72%)" />
<stop offset="100.0%" stop-color="hsl(151, 70%, 62%)" />
</linearGradient>
<filter id="f1" x="-20%" y="-20%" width="140%" height="140%">
  <feGaussianBlur stdDeviation="2.062636832312889" />
</filter>

</defs>

<path d="M 1.4 63.9 C 4.5 62.4, 40.2 67.9, 45.1 74.4 C 42.6 63.5, 0.0 74.3, 0.3 78.9 C 0.8 85.1, 36.5 86.4, 48.1 91.4 C 45.4 80.3, 100.0 40.5, 86.1 31.0 C 100.0 42.4, 81.9 23.4, 86.2 15.3 C 89.1 0.0, 23.2 0.0, 8.6 10.3 C 17.7 0.0, 69.6 59.4, 80.0 69.9 C 95.6 66.2, 13.6 87.2, 7.2 76.9 Z" fill="none" fill-opacity="0.48" stroke="hsl(322, 74%, 44%)" stroke-width="1.63" filter="url(#f1)" transform="translate(35.6 63.3) rotate(133.9) scale(1.97 0.50)" />
<path d="M 33.0 39.0 C 28.3 39.7, 91.3 40.7, 82.1 44.4 C 82.5 55.2, 42.9 96.4, 51.3 91.6 C 61.6 100.0, 84.1 100.0, 69.9 92.3 C 69.7 75.3, 34.5 20.9, 23.5 11.7 C 26.4 23.9, 64.1 58.3, 67.0 51.1 C 74.9 54.6, 7.3 44.6, 18.9 47.5 Z" fill="hsl(106, 75%, 59%)" fill-opacity="0.40" stroke="none" stroke-width="3.08"  transform="translate(38.8 26.7) rotate(31.4) scale(1.87 0.61)" />
<rect x="45.6" y="9.4" width="36.4" height="34.3" rx="14.8" fill="hsl(151, 70%, 62%)" fill-opacity="0.55"   transform="translate(64.7 5.5) rotate(116.6) scale(0.71 0.83)" />
<path d="M 70.5 88.0 C 81.7 87.7, 59.9 59.4, 51.0 65.0 C 45.0 66.4, 64.5 100.0, 58.2 87.2 C 48.4 77.9, 83.1 58.4, 94.2 61.6 C 80.7 72.1, 50.8 76.2, 46.7 88.7 C 32.3 100.0, 95.8 62.7, 90.0 61.6 C 80.1 79.3, 48.2 67.9, 45.4 57.5 Z" fill="none" fill-opacity="0.75" stroke="hsl(322, 74%, 44%)" stroke-width="1.41"  transform="translate(44.2 65.3) rotate(322.2) scale(0.97 0.96)" />
<path d="M 29.7 3.1 C 42.5 0.0, 34.5 78.1, 30.4 84.9 C 34.8 100.0, 0.0 99.5, 2.4 90.3 C 22.2 75.5, 51.3 84.2, 62.5 90.1 C 49.4 86.2, 22.9 10.4, 15.9 24.7 C 0.0 44.4, 53.3 100.0, 60.1 92.9 C 74.5 97.1, 73.8 8.5, 69.2 15.5 C 74.0 22.4, 20.7 79.8, 8.3 88.6 Z" fill="hsl(104, 72%, 65%)" fill-opacity="0.52" stroke="none" stroke-width="0.82"  transform="translate(90.3 7.3) rotate(248.4) scale(1.85 1.37)" />
<circle cx="85.9" cy="65.0" r="1.0" fill="hsl(183, 71%, 60%)" fill-opacity="0.59"   />
<path d="M 81.4 0.5 C 84.5 2.7, 32.3 64.3, 38.1 57.2 C 39.3 42.0, 66.4 51.5, 65.8 62.2 C 84.7 63.6, 20.2 76.4, 15.7 84.0 C 5.9 64.1, 13.4 42.6, 13.8 40.0 C 26.0 40.7, 46.4 0.0, 59.1 4.1 C 68.3 3.6, 30.7 34.8, 29.5 22.0 Z" fill="hsl(144, 86%, 72%)" fill-opacity="0.77" stroke="none" stroke-width="1.46"  transform="translate(17.6 87.3) rotate(101.1) scale(0.81 1.01)" />
<path d="M 11.9 46.4 C 9.7 37.3, 6.4 85.4, 6.4 85.8 C 0.0 75.1, 72.8 55.6, 59.0 61.4 C 39.8 68.8, 59.3 1.7, 63.3 8.1 C 44.2 7.4, 21.4 52.6, 11.0 51.4 C 0.5 45.9, 94.5 82.9, 87.1 88.5 C 70.8 77.7, 0.0 100.0, 5.3 98.3 " fill="none" fill-opacity="0.66" stroke="hsl(106, 75%, 59%)" stroke-width="0.84"  transform="translate(71.1 59.2) rotate(101.1) scale(0.65 1.82)" />
<rect x="36.6" y="41.4" width="27.1" height="26.9" rx="0" fill="hsl(2, 82%, 55%)" fill-opacity="0.67"   transform="translate(65.1 48.8) rotate(228.9) scale(1.77 0.97)" />
<circle cx="32.8" cy="88.0" r="0.2" fill="url(#g0)" fill-opacity="0.88"  transform="translate(39.2 76.1) rotate(272.8) scale(0.86 1.65)" />
<path d="M 18.3 22.3 C 0.8 23.3, 61.2 20.0, 60.9 23.6 C 65.4 20.7, 81.4 74.8, 88.7 78.0 C 100.0 90.5, 90.6 88.9, 85.4 90.6 C 90.5 100.0, 100.0 32.0, 94.9 32.1 C 86.2 28.6, 73.3 28.9, 65.9 27.9 C 59.8 8.2, 90.4 20.9, 92.5 19.7 C 85.9 8.6, 44.1 52.6, 53.6 62.0 " fill="hsl(290, 83%, 63%)" fill-opacity="0.62" stroke="none" stroke-width="3.78"  transform="translate(9.5 54.7) rotate(132.3) scale(1.90 1.80)" />
<circle cx="11.0" cy="42.3" r="8.0" fill="url(#g0)" fill-opacity="0.85" filter="url(#f1)"  />
<path d="M 81.3 74.4 C 80.6 69.2, 49.3 75.1, 48.1 82.4 C 39.0 72.3, 53.3 11.2, 44.5 4.3 C 63.9 0.0, 78.4 65.8, 87.4 80.6 C 95.6 77.6, 23.6 66.2, 14.0 61.2 C 11.9 43.4, 40.6 24.8, 48.1 21.5 C 45.3 2.7, 66.6 37.5, 58.8 29.2 C 48.5 16.7, 61.8 100.0, 73.5 94.6 C 62.1 100.0, 26.7 0.0, 24.9 4.6 Z" fill="none" fill-opacity="0.87" stroke="hsl(86, 72%, 68%)" stroke-width="1.80"  transform="translate(88.1 14.8) rotate(294.1) scale(1.28 0.82)" />
<path d="M 68.6 64.5 C 85.2 72.0, 0.0 58.9, 6.7 54.7 C 12.9 45.0, 75.5 61.2, 76.8 50.1 C 64.1 42.5, 83.6 68.1, 89.4 68.8 C 100.0 75.4, 51.7 71.1, 59.0 85.0 C 77.9 99.1, 0.8 38.0, 0.2 29.9 C 8.1 44.6, 16.0 50.5, 4.6 40.2 C 1.2 58.4, 66.5 17.7, 74.0 7.6 C 77.9 23.9, 0.0 30.6, 8.0 43.6 C 0.0 27.2, 14.0 27.4, 17.1 37.5 Z" fill="none" fill-opacity="0.90" stroke="hsl(40, 53%, 69%)" stroke-width="1.64"  transform="translate(9.5 18.2) rotate(255.5) scale(1.72 1.49)" />
<rect x="31.6" y="50.4" width="47.8" height="25.6" rx="12.9" fill="hsl(104, 72%, 65%)" fill-opacity="0.90" stroke="hsl(151, 70%, 62%)" stroke-width="4.2"  transform="translate(35.3 44.4) rotate(273.6) scale(1.85 0.84)" />
<path d="M 84.1 39.4 C 76.9 23.4, 35.2 55.4, 45.1 43.3 C 64.7 54.2, 46.3 35.3, 52.6 36.5 C 46.4 33.4, 24.3 61.1, 28.2 47.1 C 28.4 48.1, 90.0 27.9, 81.7 30.3 C 91.8 11.5, 100.0 0.0, 89.1 0.4 C 98.5 0.0, 67.4 78.3, 63.3 78.7 C 77.2 78.1, 10.8 11.4, 1.2 7.8 Z" fill="hsl(151, 70%, 62%)" fill-opacity="0.35" stroke="none" stroke-width="2.11"  transform="translate(54.6 34.1) rotate(212.6) scale(1.48 0.73)" />
<circle cx="70.3" cy="10.0" r="0.9" fill="hsl(40, 53%, 69%)" fill-opacity="0.77" filter="url(#f1)" transform="translate(43.1 92.1) rotate(202.4) scale(1.52 1.25)" />
<path d="M 87.1 89.8 C 92.2 91.8, 82.1 52.0, 92.8 39.0 C 97.0 49.1, 51.0 16.8, 53.1 30.3 C 62.5 34.9, 96.1 89.2, 83.0 96.8 C 83.8 100.0, 83.1 90.6, 74.5 81.7 C 87.2 90.9, 66.5 84.1, 57.8 70.3 C 65.6 58.0, 1.2 9.5, 14.4 6.0 C 0.0 0.0, 78.5 23.2, 89.0 36.7 C 94.0 24.5, 70.4 69.2, 79.4 58.8 C 99.2 49.2, 78.4 71.1, 85.6 85.7 C 97.8 75.0, 68.1 87.1, 55.6 89.1 Z" fill="hsl(40, 53%, 69%)" fill-opacity="0.74" stroke="none" stroke-width="2.85"  transform="translate(34.6 67.0) rotate(234.2) scale(1.14 0.59)" />
<path d="M 51.3 0.4 C 63.5 17.0, 52.9 42.7, 43.0 51.9 C 30.1 40.6, 100.0 95.1, 96.7 86.0 C 100.0 90.7, 11.0 24.0, 21.1 21.2 C 13.8 32.1, 65.9 74.6, 68.6 65.2 C 82.2 52.8, 67.7 100.0, 81.6 92.3 C 73.7 76.9, 32.1 51.2, 42.9 60.4 Z" fill="hsl(104, 72%, 65%)" fill-opacity="0.46" stroke="none" stroke-width="4.86"   />
<path d="M 28.2 33.9 C 45.7 28.7, 27.3 24.5, 32.6 18.6 C 13.9 25.0, 100.0 12.3, 92.1 18.7 C 100.0 8.2, 87.4 15.9, 84.7 10.0 C 98.5 1.8, 70.0 11.3, 58.9 13.6 C 40.2 3.4, 97.1 32.4, 91.4 25.5 C 100.0 43.7, 54.7 100.0, 69.7 99.8 C 56.5 100.0, 73.3 12.2, 80.3 5.5 C 92.2 0.0, 88.5 13.2, 86.2 14.6 C 84.3 1.8, 0.0 94.5, 9.3 98.7 C 0.4 95.4, 78.2 0.0, 86.7 12.8 Z" fill="none" fill-opacity="0.66" stroke="hsl(151, 70%, 62%)" stroke-width="3.98"  transform="translate(14.6 1.8) rotate(23.8) scale(1.38 0.52)" />
<circle cx="86.7" cy="61.6" r="1.7" fill="hsl(322, 74%, 44%)" fill-opacity="0.97"  transform="translate(81.6 66.2) rotate(236.9) scale(1.64 1.41)" />
<circle cx="27.8" cy="69.2" r="2.3" fill="url(#g1)" fill-opacity="0.54"  transform="translate(57.5 37.2) rotate(9.2) scale(0.90 1.07)" />
<rect x="48.8" y="15.0" width="29.6" height="39.3" rx="15.3" fill="hsl(290, 83%, 63%)" fill-opacity="1.00"  filter="url(#f1)" transform="translate(94.7 8.3) rotate(164.2) scale(1.58 0.92)" />
<path d="M 85.4 9.5 C 100.0 0.0, 34.5 56.3, 27.4 48.5 C 24.0 36.7, 54.0 89.2, 40.9 97.1 C 33.2 100.0, 55.3 22.3, 62.9 13.5 C 69.5 0.0, 17.3 46.6, 21.2 40.1 C 17.0 43.0, 35.3 50.1, 35.5 54.4 C 48.2 57.8, 15.5 51.8, 8.2 54.4 C 19.6 61.1, 80.0 12.0, 65.7 13.5 C 65.1 20.3, 57.8 62.2, 70.2 61.0 Z" fill="none" fill-opacity="0.28" stroke="hsl(144, 86%, 72%)" stroke-width="0.85"  transform="translate(48.6 70.1) rotate(28.0) scale(0.74 0.75)" />
<rect x="10.3" y="66.9" width="46.1" height="11.6" rx="0" fill="hsl(290, 83%, 63%)" fill-opacity="0.37" stroke="hsl(83, 65%, 44%)" stroke-width="2.5"  transform="translate(69.0 48.6) rotate(158.1) scale(1.10 0.95)" />
<path d="M 22.3 84.3 C 10.3 78.0, 76.6 28.2, 63.4 16.6 C 72.5 13.4, 24.7 46.8, 34.1 46.1 C 47.8 66.0, 30.0 64.9, 24.9 58.1 C 27.7 44.2, 85.7 50.0, 88.1 49.6 C 100.0 42.0, 56.2 68.2, 67.4 62.9 C 54.1 78.4, 92.4 0.0, 95.5 7.9 C 79.3 24.7, 23.4 30.1, 30.3 36.7 C 35.7 17.2, 38.2 70.7, 36.9 75.8 Z" fill="hsl(242, 72%, 49%)" fill-opacity="0.39" stroke="none" stroke-width="4.45"  transform="translate(79.0 58.9) rotate(74.1) scale(1.43 1.38)" />
<rect x="53.4" y="24.5" width="43.6" height="37.4" rx="3.2" fill="none" fill-opacity="0.48"   transform="translate(75.6 63.8) rotate(129.3) scale(1.51 0.65)" />
<rect x="16.2" y="28.0" width="29.6" height="33.3" rx="9.1" fill="hsl(106, 75%, 59%)" fill-opacity="1.00" stroke="hsl(242, 72%, 49%)" stroke-width="1.1" filter="url(#f1)" transform="translate(25.2 27.4) rotate(88.9) scale(1.65 1.79)" />
<path d="M 90.2 0.7 C 76.1 0.0, 65.6 58.5, 72.6 71.0 C 86.8 82.6, 100.0 89.5, 91.7 79.1 C 73.9 90.4, 3.9 91.2, 5.9 89.0 C 4.4 70.3, 78.8 34.8, 78.7 46.3 C 91.9 34.4, 25.8 86.6, 40.0 90.9 C 52.5 100.0, 27.6 99.8, 24.9 98.8 C 14.0 98.3, 33.0 57.2, 42.1 61.9 Z" fill="hsl(183, 71%, 60%)" fill-opacity="0.34" stroke="none" stroke-width="3.76"  transform="translate(19.4 68.1) rotate(341.0) scale(0.77 1.14)" />
<path d="M 90.5 54.1 C 100.0 62.4, 17.6 19.5, 28.1 19.2 C 10.3 39.0, 72.1 100.0, 61.7 95.7 C 50.3 100.0, 34.2 98.1, 41.2 90.9 C 45.7 100.0, 100.0 12.3, 97.9 22.2 C 81.4 6.3, 17.2 70.6, 26.9 67.6 C 37.9 65.4, 87.2 49.6, 84.0 63.3 C 79.1 73.9, 23.4 37.5, 32.7 31.8 C 39.1 49.3, 30.7 45.0, 34.9 55.1 C 32.8 44.5, 80.4 81.0, 72.4 68.0 C 82.9 71.4, 61.6 75.7, 55.9 61.6 Z" fill="none" fill-opacity="0.37" stroke="hsl(290, 83%, 63%)" stroke-width="4.95"  transform="translate(59.6 18.5) rotate(88.7) scale(1.43 1.13)" />
<circle cx="38.4" cy="93.9" r="2.4" fill="hsl(86, 72%, 68%)" fill-opacity="0.71"  transform="translate(44.0 42.9) rotate(57.8) scale(1.30 0.80)" />
<path d="M 88.7 54.9 C 94.8 68.6, 48.9 86.6, 63.9 95.5 C 81.3 96.9, 32.9 52.3, 37.1 40.6 C 38.2 50.3, 66.3 57.9, 66.4 69.2 C 74.5 69.9, 29.2 28.7, 43.9 33.0 C 27.9 13.8, 78.0 100.0, 73.2 94.1 C 82.2 89.4, 75.1 21.2, 72.0 14.1 C 89.4 27.5, 22.2 85.4, 16.3 91.9 C 0.0 81.6, 82.5 31.1, 90.6 42.8 C 72.7 25.0, 61.8 57.5, 59.9 48.1 Z" fill="none" fill-opacity="0.64" stroke="hsl(322, 74%, 44%)" stroke-width="2.22" filter="url(#f1)" transform="translate(30.6 52.4) rotate(131.4) scale(1.39 1.05)" />
<rect x="21.5" y="30.6" width="34.1" height="23.4" rx="0" fill="none" fill-opacity="0.75"   transform="translate(41.7 10.7) rotate(11.1) scale(1.74 1.21)" />
<path d="M 14.1 98.3 C 21.3 91.5, 83.5 28.8, 74.2 34.3 C 74.7 53.9, 80.1 4.5, 84.3 7.3 C 85.3 0.0, 87.0 46.2, 96.8 36.7 C 80.8 27.9, 96.7 14.6, 90.4 21.0 C 78.1 39.2, 76.5 64.8, 63.9 59.2 C 64.1 71.3, 13.4 73.2, 0.6 75.2 C 10.2 59.8, 53.9 27.1, 49.8 19.2 C 53.4 18.2, 100.0 40.4, 97.3 41.2 Z" fill="hsl(2, 82%, 55%)" fill-opacity="0.74" stroke="none" stroke-width="3.24"   />
<path d="M 28.4 99.1 C 21.8 80.0, 78.3 2.4, 65.8 3.9 C 58.9 10.5, 64.6 23.2, 55.2 27.2 C 40.9 21.4, 18.8 12.3, 22.5 3.8 C 26.8 0.0, 38.7 3.8, 42.3 12.6 C 59.1 31.2, 92.8 86.5, 80.7 78.7 C 79.5 62.7, 82.1 85.5, 92.6 81.6 C 99.2 66.0, 0.0 78.6, 11.5 72.4 C 0.0 90.4, 15.4 18.6, 14.1 27.6 C 23.4 42.2, 28.7 9.0, 36.3 10.3 Z" fill="hsl(242, 72%, 49%)" fill-opacity="0.52" stroke="none" stroke-width="3.34"  transform="translate(39.5 19.5) rotate(175.3) scale(1.80 0.88)" />
<path d="M 76.9 69.6 C 95.9 57.7, 85.9 44.1, 98.2 53.8 C 100.0 39.4, 81.2 36.6, 71.2 41.0 C 76.0 34.6, 28.0 96.9, 33.0 94.4 C 47.2 87.7, 50.3 65.1, 57.9 50.4 C 68.4 58.4, 8.3 59.0, 15.5 68.4 C 0.0 81.1, 67.0 4.0, 71.4 8.7 C 71.7 20.8, 0.0 16.7, 0.5 17.7 C 8.8 0.0, 58.7 52.6, 62.1 60.5 Z" fill="none" fill-opacity="0.76" stroke="hsl(86, 72%, 68%)" stroke-width="0.91"  transform="translate(25.5 43.6) rotate(175.8) scale(0.90 1.16)" />
<path d="M 24.6 26.3 C 28.0 10.0, 49.2 52.0, 35.7 59.5 C 48.6 71.2, 21.2 45.9, 32.1 48.4 C 45.6 67.8, 63.6 24.0, 56.0 25.9 C 45.1 42.7, 20.2 41.4, 19.0 28.3 C 0.5 25.1, 100.0 70.7, 96.3 56.8 C 100.0 62.8, 96.6 7.2, 84.3 8.3 Z" fill="none" fill-opacity="0.61" stroke="hsl(322, 74%, 44%)" stroke-width="0.82"  transform="translate(79.0 61.1) rotate(42.1) scale(1.56 0.99)" />
<path d="M 12.7 90.8 C 26.9 100.0, 72.6 65.7, 63.4 72.8 C 64.8 84.2, 48.0 76.4, 40.4 79.5 C 21.7 70.3, 14.5 28.6, 17.8 35.6 C 25.3 45.2, 29.0 53.9, 40.8 61.0 C 26.0 80.1, 87.9 33.7, 78.5 18.9 C 95.6 37.2, 4.9 34.7, 10.2 38.2 C 18.6 38.9, 17.6 59.4, 15.9 60.6 C 17.2 42.5, 68.6 95.4, 65.7 97.3 C 79.2 91.5, 36.7 10.7, 45.8 21.3 Z" fill="none" fill-opacity="0.51" stroke="hsl(106, 75%, 59%)" stroke-width="3.78"  transform="translate(34.0 32.1) rotate(4.8) scale(1.84 1.17)" />
<path d="M 69.3 87.5 C 70.5 67.6, 67.9 70.8, 61.4 76.2 C 43.7 66.3, 58.3 71.8, 59.6 85.3 C 70.5 100.0, 94.8 45.9, 84.9 53.6 C 76.1 55.2, 86.5 24.6, 98.4 25.8 C 91.0 12.6, 51.5 67.2, 51.9 67.6 C 48.8 55.1, 26.9 51.6, 18.5 57.0 C 0.5 45.9, 16.7 59.4, 17.2 51.3 C 30.7 39.5, 9.7 62.7, 3.8 49.7 Z" fill="none" fill-opacity="0.58" stroke="hsl(2, 82%, 55%)" stroke-width="4.54"  transform="translate(59.1 99.0) rotate(84.4) scale(1.97 1.86)" />
<circle cx="6.1" cy="5.6" r="2.6" fill="hsl(2, 82%, 55%)" fill-opacity="0.88"  transform="translate(2.4 72.2) rotate(286.0) scale(1.97 1.74)" />
<path d="M 87.2 89.0 C 87.8 89.2, 45.7 73.8, 53.9 60.7 C 72.8 66.1, 99.3 75.6, 97.1 66.6 C 80.2 56.9, 83.8 72.6, 77.0 81.0 C 81.9 84.4, 25.1 81.1, 29.8 70.2 C 30.9 52.4, 79.0 61.8, 64.1 61.3 C 53.0 57.7, 2.9 61.5, 0.4 65.6 C 0.0 57.5, 11.4 73.6, 10.1 63.3 C 29.3 74.2, 39.1 48.8, 52.0 45.2 Z" fill="hsl(83, 65%, 44%)" fill-opacity="0.92" stroke="none" stroke-width="2.26"  transform="translate(92.8 87.4) rotate(160.5) scale(1.52 1.56)" />
<path d="M 61.8 75.8 C 66.1 57.7, 100.0 62.6, 93.6 74.9 C 100.0 59.6, 61.1 5.5, 47.3 6.6 C 48.1 11.2, 33.1 71.0, 19.9 74.5 C 34.8 66.3, 12.8 51.2, 14.5 40.9 C 26.0 39.8, 55.7 30.3, 43.3 32.9 C 45.1 20.6, 43.4 93.1, 33.6 80.5 " fill="none" fill-opacity="0.62" stroke="hsl(104, 72%, 65%)" stroke-width="4.92"  transform="translate(95.6 80.5) rotate(299.7) scale(1.20 1.78)" />
<path d="M 8.3 70.0 C 3.5 58.8, 94.4 85.8, 82.6 88.3 C 77.1 100.0, 11.2 57.8, 21.5 65.0 C 20.2 59.0, 29.8 17.9, 33.7 24.8 C 44.1 33.4, 87.4 77.8, 94.5 83.7 C 87.6 65.1, 36.2 62.6, 22.3 59.7 C 5.3 56.7, 21.1 27.8, 25.6 37.4 C 24.7 52.2, 51.7 57.2, 36.8 61.7 C 52.3 77.3, 89.1 55.3, 83.7 48.4 C 100.0 31.5, 37.8 82.4, 33.3 70.8 C 48.4 85.5, 70.3 81.0, 67.2 78.5 Z" fill="hsl(290, 83%, 63%)" fill-opacity="0.45" stroke="none" stroke-width="4.95"  transform="translate(27.9 31.8) rotate(57.7) scale(1.44 1.75)" />
<path d="M 75.7 66.1 C 79.0 72.1, 0.0 12.9, 3.5 18.6 C 15.4 18.7, 30.9 0.9, 18.6 5.6 C 21.6 22.3, 6.8 78.9, 20.2 64.0 C 34.5 51.9, 56.9 4.7, 63.9 13.4 C 61.3 0.0, 23.7 34.1, 34.7 22.7 C 27.1 39.0, 64.6 0.0, 69.6 0.8 C 66.3 4.9, 4.3 85.0, 3.9 83.1 Z" fill="none" fill-opacity="0.63" stroke="hsl(106, 75%, 59%)" stroke-width="2.09"  transform="translate(4.1 70.4) rotate(299.5) scale(0.79 1.61)" />
<path d="M 60.4 57.0 C 59.0 59.3, 40.8 16.7, 37.3 25.8 C 21.8 11.5, 43.0 33.4, 57.8 46.2 C 71.7 36.8, 35.3 63.1, 41.2 74.1 C 38.8 91.5, 24.9 41.7, 14.6 42.5 C 33.9 57.7, 36.3 65.2, 25.6 61.2 C 33.0 79.0, 53.4 45.2, 55.1 33.8 C 57.2 14.9, 12.4 57.5, 26.7 49.7 C 44.5 39.4, 50.9 24.9, 55.8 39.4 " fill="hsl(290, 83%, 63%)" fill-opacity="0.99" stroke="none" stroke-width="3.64"  transform="translate(23.8 27.0) rotate(178.2) scale(1.36 0.99)" />
<path d="M 77.4 82.9 C 65.1 84.8, 36.5 66.0, 35.5 57.2 C 36.5 62.2, 59.1 64.0, 51.7 60.2 C 32.7 49.2, 25.6 2.3, 23.7 3.8 C 18.0 4.7, 66.4 37.9, 55.4 43.9 C 37.0 35.4, 16.1 26.6, 8.9 13.7 C 21.6 6.8, 23.1 58.9, 23.1 73.9 C 5.3 74.6, 45.1 26.9, 57.3 25.6 Z" fill="hsl(290, 83%, 63%)" fill-opacity="0.31" stroke="none" stroke-width="4.84"  transform="translate(50.3 87.6) rotate(109.7) scale(1.50 1.11)" />
<rect x="31.8" y="85.8" width="33.3" height="12.7" rx="16.9" fill="hsl(2, 82%, 55%)" fill-opacity="0.79"  filter="url(#f1)" transform="translate(30.9 77.9) rotate(278.0) scale(0.82 1.44)" />
<path d="M 93.9 26.8 C 100.0 20.6, 37.2 100.0, 36.8 86.6 C 17.6 78.4, 60.6 23.0, 64.9 14.9 C 61.2 16.1, 0.0 5.3, 6.8 9.9 C 15.0 0.0, 88.3 29.2, 84.6 26.8 C 98.3 31.7, 56.9 67.5, 55.1 75.6 C 44.1 83.0, 28.7 59.4, 27.6 54.7 C 18.2 59.4, 46.6 22.4, 34.3 25.7 Z" fill="hsl(151, 70%, 62%)" fill-opacity="0.92" stroke="none" stroke-width="4.19"   />
<path d="M 51.8 19.5 C 65.1 13.8, 99.9 12.1, 98.7 1.0 C 86.9 0.0, 84.8 36.5, 82.1 31.0 C 91.6 45.8, 20.0 21.9, 31.7 15.7 C 36.8 16.7, 98.3 20.7, 84.4 26.8 C 84.7 46.5, 44.3 84.5, 57.3 86.3 C 66.3 75.0, 63.5 28.1, 50.1 23.9 C 43.7 26.7, 80.9 92.1, 76.7 92.5 Z" fill="none" fill-opacity="0.34" stroke="hsl(106, 75%, 59%)" stroke-width="4.47"  transform="translate(76.6 56.7) rotate(291.8) scale(0.50 1.86)" />
<path d="M 78.0 82.1 C 77.3 100.0, 21.1 38.1, 29.4 32.8 C 43.2 32.4, 55.1 58.5, 68.6 67.8 C 85.5 52.3, 61.8 100.0, 58.6 95.8 C 63.2 100.0, 30.0 71.9, 15.9 71.1 C 35.4 74.3, 75.7 30.6, 62.9 43.0 C 68.9 29.9, 38.1 17.7, 40.4 17.4 C 32.5 30.4, 0.0 16.6, 7.8 28.7 C 11.3 47.5, 60.3 87.3, 55.2 80.3 C 63.8 99.7, 61.1 59.8, 67.0 70.3 Z" fill="hsl(151, 70%, 62%)" fill-opacity="0.43" stroke="none" stroke-width="2.03"  transform="translate(16.7 71.3) rotate(124.8) scale(1.88 1.38)" />
<path d="M 97.1 96.1 C 87.9 95.3, 100.0 91.8, 99.4 78.7 C 80.0 71.9, 2.9 5.4, 4.3 16.9 C 19.0 17.2, 76.4 19.3, 82.3 18.7 C 93.8 0.0, 13.5 0.0, 24.4 8.4 C 5.3 8.8, 51.8 81.3, 64.6 94.4 C 53.3 100.0, 64.5 34.8, 77.1 40.7 C 67.3 23.5, 93.6 1.7, 86.1 9.2 C 91.7 14.1, 22.0 0.0, 26.8 0.9 Z" fill="hsl(322, 74%, 44%)" fill-opacity="0.90" stroke="none" stroke-width="3.15"  transform="translate(90.5 26.2) rotate(16.6) scale(1.42 0.59)" />
<path d="M 97.9 87.4 C 78.1 93.0, 13.4 17.9, 7.1 28.9 C 0.0 38.3, 71.9 44.2, 84.2 39.7 C 71.5 24.5, 77.6 82.9, 91.5 85.9 C 89.7 75.7, 57.9 84.4, 56.9 77.2 C 73.5 89.7, 85.7 20.6, 80.1 8.2 C 72.3 25.7, 56.6 64.8, 53.2 67.0 C 62.6 69.6, 55.0 73.7, 55.6 73.2 C 45.8 66.0, 88.9 1.5, 84.8 6.6 Z" fill="hsl(290, 83%, 63%)" fill-opacity="0.93" stroke="none" stroke-width="4.31" filter="url(#f1)" transform="translate(12.1 19.4) rotate(243.2) scale(1.10 1.48)" />
<path d="M 9.5 39.7 C 21.7 46.3, 20.8 85.0, 27.6 82.5 C 43.1 88.1, 21.7 72.1, 35.1 86.4 C 46.6 100.0, 46.9 65.4, 57.6 52.2 C 59.5 34.8, 71.1 20.3, 80.1 12.8 C 75.5 2.1, 89.8 74.5, 94.8 79.3 C 85.1 61.4, 0.4 43.4, 13.1 41.8 C 20.5 35.2, 31.0 90.4, 16.2 79.4 C 9.1 85.5, 15.8 10.9, 9.6 14.4 C 20.0 29.5, 42.4 0.0, 33.4 9.5 Z" fill="hsl(242, 72%, 49%)" fill-opacity="0.68" stroke="none" stroke-width="3.44"  transform="translate(50.6 77.2) rotate(314.3) scale(1.87 0.99)" />
<path d="M 58.3 4.8 C 77.5 19.7, 0.0 85.0, 0.1 89.0 C 3.4 73.7, 80.1 98.7, 78.7 84.8 C 77.7 77.6, 95.9 97.0, 93.0 88.7 C 75.8 83.0, 11.5 35.0, 14.9 25.5 C 33.5 23.0, 45.2 27.2, 41.1 28.9 C 35.2 14.9, 56.0 19.2, 52.6 20.9 Z" fill="none" fill-opacity="0.81" stroke="hsl(40, 53%, 69%)" stroke-width="3.74"  transform="translate(81.4 50.0) rotate(6.0) scale(1.36 1.94)" />
<path d="M 11.7 28.9 C 17.9 10.8, 89.1 74.9, 85.1 67.5 C 81.1 65.0, 19.9 68.1, 21.5 58.0 C 5.0 38.2, 93.1 69.9, 86.0 77.9 C 100.0 71.1, 29.1 11.0, 29.4 20.7 C 28.1 35.3, 51.4 95.0, 45.9 91.2 C 39.0 100.0, 100.0 66.6, 93.8 79.0 C 100.0 70.2, 56.5 93.5, 65.2 96.5 C 73.0 100.0, 85.7 59.3, 78.4 46.1 Z" fill="hsl(104, 72%, 65%)" fill-opacity="0.32" stroke="none" stroke-width="3.93"  transform="translate(44.5 21.9) rotate(275.5) scale(1.91 1.06)" />
<path d="M 75.1 24.0 C 88.8 37.3, 42.5 71.4, 39.1 76.3 C 47.8 82.2, 1.1 95.8, 13.5 92.8 C 3.9 79.6, 13.7 100.0, 22.5 98.4 C 8.5 90.6, 11.2 69.1, 18.4 77.3 C 9.7 86.2, 40.1 70.7, 43.4 60.1 C 39.8 44.5, 69.0 95.5, 67.4 86.1 C 70.1 67.7, 66.2 67.8, 78.6 55.5 Z" fill="hsl(86, 72%, 68%)" fill-opacity="0.90" stroke="none" stroke-width="4.69"  transform="translate(48.5 85.0) rotate(279.3) scale(1.09 1.32)" />
<path d="M 89.3 55.2 C 91.7 47.3, 43.3 40.7, 44.0 54.3 C 49.5 44.2, 40.5 16.3, 26.5 20.9 C 38.6 8.4, 14.1 100.0, 22.8 97.0 C 42.5 77.3, 61.5 85.5, 51.7 83.2 C 37.1 64.6, 83.8 82.9, 73.3 77.0 C 80.4 94.4, 21.4 57.8, 19.7 69.0 C 9.6 55.6, 58.2 0.0, 66.0 0.3 " fill="none" fill-opacity="0.39" stroke="hsl(104, 72%, 65%)" stroke-width="3.41"  transform="translate(65.1 94.8) rotate(3.8) scale(1.60 1.79)" />
<rect x="2.9" y="64.1" width="41.7" height="24.2" rx="0" fill="none" fill-opacity="0.65"   transform="translate(5.4 84.5) rotate(205.0) scale(1.07 1.74)" />
<rect x="4.5" y="56.5" width="36.4" height="31.7" rx="7.7" fill="none" fill-opacity="0.39"   transform="translate(41.7 78.0) rotate(348.2) scale(1.81 1.33)" />
<circle cx="59.0" cy="93.5" r="0.7" fill="hsl(40, 53%, 69%)" fill-opacity="0.75"  transform="translate(15.9 10.7) rotate(300.1) scale(1.65 0.85)" />
<path d="M 5.7 12.0 C 0.9 1.2, 50.4 45.9, 42.4 37.9 C 52.3 54.6, 64.6 81.7, 54.6 69.3 C 44.7 59.1, 60.6 73.2, 53.0 65.4 C 44.6 81.5, 63.6 41.4, 72.4 28.7 C 63.3 16.5, 20.1 99.0, 17.4 99.9 C 4.2 100.0, 0.7 69.8, 14.9 72.6 C 11.6 53.9, 24.4 94.6, 23.4 98.6 C 12.1 87.8, 20.1 90.1, 8.5 80.5 C 0.0 75.9, 0.0 4.7, 2.4 1.5 Z" fill="hsl(83, 65%, 44%)" fill-opacity="0.88" stroke="none" stroke-width="3.13"  transform="translate(83.3 51.6) rotate(307.0) scale(0.51 1.01)" />
<rect x="9.9" y="67.7" width="46.3" height="20.5" rx="0" fill="hsl(2, 82%, 55%)" fill-opacity="0.44"   transform="translate(28.5 94.6) rotate(11.0) scale(1.09 0.95)" />
<path d="M 66.8 81.7 C 76.5 67.4, 71.6 56.9, 84.8 51.3 C 95.7 38.2, 6.8 62.6, 15.6 51.0 C 0.0 35.9, 43.5 75.0, 40.2 74.8 C 29.2 71.8, 10.7 31.2, 10.6 22.3 C 0.0 20.5, 73.6 30.3, 70.6 24.1 C 64.5 27.7, 39.3 11.9, 38.6 16.8 C 50.5 26.1, 11.5 99.0, 4.7 86.1 C 0.0 73.1, 85.7 15.6, 71.3 5.3 Z" fill="hsl(151, 70%, 62%)" fill-opacity="0.41" stroke="none" stroke-width="3.03" filter="url(#f1)"  />
<path d="M 81.6 31.3 C 92.1 38.3, 14.8 66.6, 7.4 76.3 C 17.3 88.1, 50.7 24.6, 46.9 12.8 C 37.3 14.5, 39.5 75.2, 27.0 66.9 C 15.7 77.1, 80.6 85.1, 75.1 72.0 C 74.1 79.5, 8.2 10.6, 12.1 12.3 C 0.0 10.9, 2.8 21.9, 7.3 32.1 C 0.0 36.7, 17.9 71.2, 23.8 78.2 " fill="hsl(104, 72%, 65%)" fill-opacity="1.00" stroke="none" stroke-width="2.45"  transform="translate(25.3 79.9) rotate(113.0) scale(1.98 1.17)" />
<rect x="1.4" y="6.5" width="45.2" height="28.2" rx="8.0" fill="hsl(83, 65%, 44%)" fill-opacity="0.62"   transform="translate(26.0 2.9) rotate(184.6) scale(1.97 1.90)" />
<path d="M 49.9 31.7 C 68.9 22.9, 77.1 58.1, 90.0 55.5 C 83.9 65.1, 66.8 68.6, 70.6 61.6 C 56.3 44.6, 34.6 38.6, 25.8 39.4 C 38.2 21.9, 86.2 47.0, 72.3 35.0 C 86.1 28.9, 75.9 23.6, 85.7 37.4 C 65.7 56.7, 11.9 48.7, 0.4 40.8 C 0.0 53.4, 13.3 16.1, 17.9 4.1 " fill="none" fill-opacity="0.56" stroke="hsl(151, 70%, 62%)" stroke-width="4.25" filter="url(#f1)" transform="translate(84.2 87.2) rotate(13.1) scale(0.91 1.93)" />
<path d="M 50.6 74.9 C 59.9 56.7, 61.9 0.0, 54.9 6.8 C 50.8 20.9, 12.5 66.1, 15.7 76.3 C 11.4 80.1, 91.7 74.6, 91.8 67.2 C 87.5 51.2, 78.5 52.6, 89.1 41.8 C 87.8 23.7, 54.7 84.8, 53.1 73.8 C 67.7 56.0, 27.2 64.6, 16.5 51.2 C 32.8 58.3, 80.8 35.5, 87.7 43.0 C 88.7 29.0, 83.9 50.7, 96.3 36.3 Z" fill="none" fill-opacity="0.55" stroke="hsl(290, 83%, 63%)" stroke-width="2.65" filter="url(#f1)"  />
<circle cx="57.8" cy="63.4" r="3.1" fill="hsl(2, 82%, 55%)" fill-opacity="0.88"  transform="translate(11.8 21.3) rotate(77.0) scale(1.63 1.80)" />
<circle cx="2.9" cy="8.3" r="3.8" fill="hsl(86, 72%, 68%)" fill-opacity="0.86" filter="url(#f1)" transform="translate(66.9 24.1) rotate(56.2) scale(0.74 1.16)" />
<path d="M 50.7 50.8 C 52.2 37.2, 83.5 51.3, 91.4 60.5 C 100.0 54.5, 13.2 31.3, 24.1 23.4 C 18.5 17.2, 24.7 80.9, 19.7 88.9 C 14.3 71.5, 88.1 19.9, 80.0 25.0 C 72.8 9.2, 36.5 14.9, 31.5 3.4 C 17.6 0.8, 21.4 79.6, 9.5 64.9 C 19.4 49.3, 80.2 97.6, 73.6 87.4 C 62.4 100.0, 73.1 65.8, 75.9 55.5 C 81.6 59.4, 88.3 16.7, 94.9 26.6 Z" fill="hsl(151, 70%, 62%)" fill-opacity="0.93" stroke="none" stroke-width="5.10"  transform="translate(56.6 38.5) rotate(264.4) scale(1.95 1.24)" />
<circle cx="39.3" cy="71.6" r="0.3" fill="url(#g0)" fill-opacity="0.86"  transform="translate(50.1 64.0) rotate(295.5) scale(1.97 0.50)" />
<path d="M 88.5 95.7 C 93.1 100.0, 74.5 10.3, 75.9 17.6 C 71.2 0.2, 38.6 22.1, 44.9 24.1 C 58.3 15.5, 36.0 21.0, 44.9 17.9 C 31.6 18.3, 2.4 51.0, 15.3 55.1 C 20.9 36.3, 76.4 99.1, 67.6 92.4 C 71.0 86.2, 9.1 26.6, 23.4 20.1 C 8.2 20.9, 100.0 19.5, 89.5 30.2 C 72.3 41.5, 36.4 87.2, 25.4 97.4 C 16.9 100.0, 15.2 30.2, 12.3 34.6 C 0.0 49.2, 63.7 19.6, 71.1 29.8 " fill="hsl(106, 75%, 59%)" fill-opacity="0.50" stroke="none" stroke-width="2.34"  transform="translate(51.4 30.0) rotate(117.9) scale(0.61 1.56)" />
<rect x="39.9" y="11.4" width="48.3" height="28.1" rx="13.4" fill="hsl(151, 70%, 62%)" fill-opacity="0.99"   transform="translate(90.9 96.5) rotate(340.8) scale(1.27 1.58)" />
<path d="M 90.3 41.2 C 100.0 37.9, 41.3 9.0, 52.0 1.9 C 59.0 7.7, 16.4 64.0, 27.3 57.9 C 7.6 76.1, 22.2 63.6, 25.1 72.1 C 20.2 61.9, 12.4 20.8, 15.3 14.6 C 30.8 17.2, 9.8 67.5, 12.3 81.9 C 5.0 97.1, 94.0 83.1, 82.4 83.0 C 93.4 90.8, 26.3 81.1, 12.3 74.1 C 28.2 81.6, 60.2 37.6, 75.1 36.5 Z" fill="none" fill-opacity="0.62" stroke="hsl(290, 83%, 63%)" stroke-width="1.02"  transform="translate(67.2 58.1) rotate(125.1) scale(0.97 1.82)" />
<rect x="13.7" y="12.8" width="43.0" height="31.1" rx="5.6" fill="hsl(104, 72%, 65%)" fill-opacity="0.74"   transform="translate(98.0 5.3) rotate(287.6) scale(0.59 1.61)" />
<rect x="70.4" y="70.1" width="21.6" height="21.4" rx="0" fill="none" fill-opacity="0.58" stroke="hsl(106, 75%, 59%)" stroke-width="2.5"   />
<path d="M 77.7 38.1 C 70.5 35.1, 30.2 84.7, 19.1 96.0 C 25.1 100.0, 95.0 21.4, 83.3 13.3 C 70.0 8.8, 67.6 33.8, 58.3 29.2 C 50.5 15.2, 72.6 20.1, 68.7 32.6 C 51.7 22.0, 7.2 22.9, 4.8 28.0 C 5.7 14.3, 61.3 85.7, 66.3 71.7 C 66.1 56.4, 87.8 73.7, 87.4 64.0 C 98.1 80.9, 24.9 28.7, 36.8 40.6 Z" fill="hsl(86, 72%, 68%)" fill-opacity="0.96" stroke="none" stroke-width="5.17"  transform="translate(39.3 55.8) rotate(189.4) scale(1.93 1.74)" />
<path d="M 48.9 49.3 C 50.1 55.0, 58.7 52.2, 47.3 61.1 C 49.4 53.4, 56.7 66.6, 57.1 66.6 C 61.5 60.2, 100.0 59.9, 94.1 53.2 C 93.1 44.9, 74.8 63.7, 82.6 52.8 C 92.8 39.2, 0.0 90.1, 4.3 95.7 C 9.2 100.0, 78.8 26.0, 88.2 20.7 C 86.2 3.2, 52.2 100.0, 41.7 98.1 C 55.7 100.0, 24.0 12.9, 34.8 11.5 C 42.2 21.6, 71.9 48.0, 66.7 34.6 C 80.1 15.3, 0.5 70.4, 12.5 80.6 " fill="hsl(144, 86%, 72%)" fill-opacity="0.70" stroke="none" stroke-width="4.72"  transform="translate(13.7 11.3) rotate(274.5) scale(1.23 0.52)" />
<path d="M 79.1 64.2 C 61.4 82.3, 12.7 100.0, 27.7 98.4 C 47.0 100.0, 65.0 29.6, 52.1 35.0 C 69.0 19.2, 72.7 94.8, 74.4 99.6 C 93.3 99.9, 74.8 97.3, 82.2 93.1 C 88.9 83.7, 51.2 13.0, 51.0 13.1 C 64.6 12.9, 48.0 43.7, 42.5 36.3 C 44.6 34.8, 71.4 99.4, 65.8 89.8 C 84.1 96.5, 82.7 29.7, 79.7 16.7 C 93.4 13.4, 64.2 8.8, 66.8 11.1 Z" fill="hsl(104, 72%, 65%)" fill-opacity="0.68" stroke="none" stroke-width="4.57"  transform="translate(37.2 31.3) rotate(25.3) scale(1.89 1.17)" />
<rect x="12.3" y="9.0" width="26.5" height="12.7" rx="0" fill="none" fill-opacity="0.79" stroke="hsl(106, 75%, 59%)" stroke-width="4.5"  transform="translate(9.5 13.7) rotate(315.2) scale(0.65 1.24)" />
<path d="M 62.7 87.0 C 69.5 78.1, 13.8 14.3, 14.8 13.1 C 24.8 25.9, 45.8 84.2, 33.5 86.9 C 25.0 99.7, 36.8 57.5, 29.9 51.6 C 18.6 36.1, 19.6 29.4, 25.6 34.8 C 25.6 30.5, 56.3 39.8, 55.6 36.9 C 37.6 50.8, 78.8 27.8, 85.8 39.2 C 85.1 27.0, 100.0 50.0, 95.4 61.8 Z" fill="hsl(290, 83%, 63%)" fill-opacity="0.93" stroke="none" stroke-width="3.11"  transform="translate(87.9 97.1) rotate(20.8) scale(1.84 1.40)" />
<path d="M 10.3 16.8 C 25.0 0.0, 0.4 99.7, 7.2 89.8 C 26.0 100.0, 12.5 60.0, 23.9 67.0 C 15.2 73.6, 56.7 46.0, 46.9 48.4 C 50.6 40.6, 14.5 24.0, 25.5 23.4 C 34.6 37.0, 30.4 86.4, 18.4 81.4 C 26.7 73.6, 33.6 40.5, 44.0 33.7 C 25.9 46.1, 17.2 100.0, 23.2 98.2 Z" fill="hsl(83, 65%, 44%)" fill-opacity="0.93" stroke="none" stroke-width="1.89" filter="url(#f1)" transform="translate(53.1 95.3) rotate(0.6) scale(1.69 1.82)" />
<path d="M 6.8 15.3 C 17.3 30.4, 82.2 31.8, 72.9 38.7 C 62.0 49.6, 14.9 8.0, 11.3 15.3 C 15.1 0.0, 35.3 35.7, 33.6 21.1 C 14.2 33.4, 88.1 79.7, 78.0 76.4 C 69.5 58.3, 23.3 69.3, 30.8 80.1 C 36.7 70.6, 54.0 71.8, 39.8 60.8 C 51.5 74.7, 38.1 21.6, 37.6 10.5 Z" fill="none" fill-opacity="0.66" stroke="hsl(2, 82%, 55%)" stroke-width="3.87"  transform="translate(92.9 34.9) rotate(45.3) scale(1.58 1.10)" />
<rect x="15.3" y="5.0" width="32.9" height="38.4" rx="0" fill="hsl(322, 74%, 44%)" fill-opacity="0.59" stroke="hsl(106, 75%, 59%)" stroke-width="2.0"   />
<rect x="31.7" y="12.0" width="25.5" height="12.4" rx="0.4" fill="hsl(290, 83%, 63%)" fill-opacity="0.63"   transform="translate(58.1 33.3) rotate(292.3) scale(0.80 1.39)" />
<path d="M 56.2 81.2 C 43.4 68.5, 58.6 84.6, 47.8 83.4 C 49.4 92.7, 15.3 98.4, 4.4 93.5 C 10.8 75.8, 19.5 67.7, 9.5 72.4 C 17.6 73.6, 11.0 99.4, 20.9 96.9 C 10.6 100.0, 35.0 17.1, 21.2 13.2 C 36.7 5.1, 36.3 89.8, 49.9 94.1 C 35.6 89.5, 76.3 21.2, 89.2 15.0 C 78.9 23.4, 83.8 28.6, 83.6 27.8 C 63.9 37.0, 45.5 100.0, 33.4 94.8 C 51.7 86.3, 75.2 58.5, 65.9 70.8 Z" fill="none" fill-opacity="0.46" stroke="hsl(2, 82%, 55%)" stroke-width="4.97"   />
<path d="M 8.4 41.4 C 1.2 57.6, 51.9 40.8, 53.7 34.3 C 56.7 28.3, 39.7 0.0, 52.1 6.2 C 43.4 20.7, 63.3 79.9, 58.8 91.3 C 70.8 72.7, 58.5 53.1, 43.6 54.1 C 63.4 69.0, 32.6 100.0, 22.6 89.4 C 25.5 86.6, 75.7 96.3, 83.4 85.9 C 95.3 95.8, 0.0 52.4, 5.8 64.4 C 0.0 71.1, 89.1 3.4, 90.9 7.3 Z" fill="none" fill-opacity="0.72" stroke="hsl(104, 72%, 65%)" stroke-width="2.67"  transform="translate(88.7 91.1) rotate(166.4) scale(1.39 1.98)" />
<path d="M 1.5 93.1 C 5.4 86.2, 91.6 2.2, 96.0 6.3 C 84.1 0.0, 96.7 59.2, 91.2 56.4 C 100.0 60.2, 97.0 57.0, 97.8 63.4 C 100.0 69.9, 35.5 94.9, 45.1 87.4 C 48.2 100.0, 70.4 18.2, 84.3 32.2 C 79.2 26.0, 49.1 28.3, 42.1 13.8 C 60.1 19.7, 8.8 27.1, 6.0 22.5 C 0.0 33.5, 31.3 89.6, 28.3 81.0 C 11.5 79.8, 3.3 16.8, 11.6 14.7 C 24.9 2.1, 44.2 25.2, 40.2 12.7 Z" fill="none" fill-opacity="0.67" stroke="hsl(183, 71%, 60%)" stroke-width="4.96"  transform="translate(81.8 74.7) rotate(84.7) scale(0.85 1.49)" />
<circle cx="94.4" cy="33.1" r="5.0" fill="url(#g0)" fill-opacity="0.79"  transform="translate(80.4 30.7) rotate(26.9) scale(1.96 1.10)" />
<path d="M 58.5 85.5 C 59.5 84.6, 15.8 15.7, 26.7 1.6 C 45.4 0.0, 42.7 26.0, 32.4 27.0 C 43.4 17.8, 95.2 87.6, 89.4 75.7 C 83.2 82.1, 68.2 71.4, 60.3 85.5 C 50.5 92.9, 20.9 29.8, 19.3 26.2 C 23.2 26.6, 16.6 76.9, 29.4 63.2 Z" fill="hsl(104, 72%, 65%)" fill-opacity="0.60" stroke="none" stroke-width="2.49"  transform="translate(12.9 53.4) rotate(63.2) scale(1.21 0.69)" />
<circle cx="58.1" cy="62.6" r="1.9" fill="hsl(290, 83%, 63%)" fill-opacity="0.56"  transform="translate(99.0 6.8) rotate(275.9) scale(1.62 0.93)" />
<rect x="4.1" y="30.0" width="45.1" height="12.4" rx="14.2" fill="hsl(322, 74%, 44%)" fill-opacity="0.92"   transform="translate(23.6 14.6) rotate(337.3) scale(1.12 1.48)" />
<rect x="4.4" y="15.0" width="47.2" height="15.4" rx="18.7" fill="hsl(322, 74%, 44%)" fill-opacity="0.92" stroke="hsl(242, 72%, 49%)" stroke-width="3.7"  transform="translate(22.8 36.9) rotate(15.8) scale(1.33 0.73)" />
<path d="M 98.0 89.7 C 100.0 100.0, 69.0 45.4, 57.7 57.9 C 69.6 44.5, 16.1 60.6, 6.6 71.2 C 0.0 85.6, 84.6 75.8, 88.4 67.7 C 88.1 56.8, 19.5 44.6, 23.5 44.2 C 26.2 24.3, 71.4 0.0, 75.7 2.8 C 58.0 9.9, 0.0 60.7, 5.1 70.0 C 18.6 50.6, 45.9 81.6, 41.9 82.1 Z" fill="none" fill-opacity="0.77" stroke="hsl(242, 72%, 49%)" stroke-width="1.49"  transform="translate(43.5 84.7) rotate(21.0) scale(1.33 1.41)" />
<path d="M 64.9 43.6 C 47.3 31.4, 43.1 34.4, 35.1 36.4 C 46.7 21.9, 100.0 98.3, 98.2 85.0 C 83.4 68.8, 76.5 79.2, 67.1 67.9 C 47.4 74.8, 51.7 21.3, 39.8 16.7 C 58.5 2.9, 68.5 70.7, 77.5 60.8 C 79.5 67.0, 66.7 100.0, 60.1 87.7 C 64.8 100.0, 52.6 35.2, 39.6 20.3 C 55.5 0.6, 0.0 100.0, 1.4 96.9 C 1.3 100.0, 34.1 39.9, 24.5 54.6 Z" fill="hsl(104, 72%, 65%)" fill-opacity="0.88" stroke="none" stroke-width="3.65" filter="url(#f1)" transform="translate(13.1 17.2) rotate(70.2) scale(1.75 1.69)" />
<path d="M 40.7 98.5 C 59.6 100.0, 20.2 37.0, 22.8 37.9 C 17.9 49.9, 92.1 55.8, 91.7 50.8 C 100.0 55.9, 59.0 51.4, 71.1 64.8 C 85.4 72.0, 97.2 52.7, 92.1 55.1 C 75.9 51.7, 21.2 50.3, 12.9 59.6 C 4.5 53.8, 26.7 0.0, 31.1 12.6 C 22.1 18.2, 100.0 30.3, 91.9 15.8 Z" fill="none" fill-opacity="0.93" stroke="hsl(104, 72%, 65%)" stroke-width="1.35"  transform="translate(76.8 16.5) rotate(265.0) scale(1.94 1.86)" />
<path d="M 85.9 90.1 C 87.9 100.0, 64.5 35.0, 68.5 23.7 C 64.6 20.5, 23.7 77.9, 29.9 72.0 C 34.2 86.5, 0.0 49.8, 6.2 48.7 C 1.6 64.4, 10.2 44.2, 16.9 32.4 C 0.9 37.6, 54.8 56.7, 50.4 43.9 C 62.5 50.6, 54.5 68.3, 51.5 64.2 C 55.6 79.5, 46.5 55.4, 33.7 51.7 C 39.2 53.7, 27.6 31.1, 34.0 41.4 C 41.5 44.8, 13.2 63.5, 27.4 68.9 Z" fill="hsl(104, 72%, 65%)" fill-opacity="0.49" stroke="none" stroke-width="3.33"  transform="translate(16.0 34.8) rotate(232.7) scale(1.59 1.68)" />
<path d="M 64.7 81.2 C 66.0 87.3, 54.0 79.7, 66.5 80.3 C 48.3 98.0, 41.0 76.2, 34.0 84.2 C 15.2 100.0, 35.8 56.2, 40.3 58.5 C 33.2 74.9, 10.5 79.1, 0.6 93.2 C 0.0 100.0, 52.3 73.3, 42.1 85.0 C 30.4 83.6, 42.2 12.9, 45.1 11.8 Z" fill="hsl(104, 72%, 65%)" fill-opacity="0.44" stroke="none" stroke-width="4.08"  transform="translate(61.7 14.0) rotate(150.1) scale(0.66 1.75)" />
<path d="M 53.0 59.3 C 54.0 68.3, 79.0 19.9, 67.3 11.0 C 66.5 10.8, 100.0 51.4, 95.8 41.9 C 76.5 61.4, 68.4 10.3, 77.6 8.6 C 60.9 0.0, 68.9 79.8, 77.9 84.0 C 66.6 79.5, 28.6 43.1, 34.5 53.9 C 15.2 53.7, 13.4 85.2, 6.8 70.3 " fill="none" fill-opacity="0.27" stroke="hsl(104, 72%, 65%)" stroke-width="3.17"  transform="translate(43.2 15.6) rotate(128.3) scale(1.76 1.42)" />
<rect x="22.3" y="14.6" width="36.6" height="37.9" rx="15.8" fill="none" fill-opacity="0.55"   transform="translate(74.8 66.9) rotate(187.4) scale(1.41 1.19)" />
<rect x="79.5" y="48.5" width="20.2" height="22.8" rx="0" fill="none" fill-opacity="0.37"   transform="translate(87.9 67.5) rotate(158.2) scale(1.30 1.55)" />
<rect x="21.2" y="4.4" width="37.9" height="24.3" rx="0" fill="hsl(83, 65%, 44%)" fill-opacity="0.85"  filter="url(#f1)" transform="translate(75.5 25.4) rotate(127.1) scale(1.13 1.00)" />
<path d="M 33.6 68.6 C 20.6 78.4, 64.0 50.6, 73.5 51.5 C 74.0 69.3, 83.2 26.1, 83.4 16.9 C 68.3 16.0, 22.0 36.1, 22.0 26.6 C 39.1 32.7, 70.2 38.3, 71.7 33.0 C 58.6 22.0, 86.0 0.0, 88.6 1.4 C 80.1 6.7, 6.4 57.0, 9.5 45.7 C 15.6 28.9, 8.8 34.5, 14.7 43.8 C 0.0 29.9, 46.7 66.5, 53.3 61.2 Z" fill="hsl(104, 72%, 65%)" fill-opacity="0.96" stroke="none" stroke-width="4.97"  transform="translate(56.8 87.0) rotate(131.4) scale(1.19 1.45)" />
<path d="M 76.2 96.7 C 78.2 100.0, 20.7 28.3, 31.3 24.4 C 45.5 22.2, 57.7 20.4, 61.4 26.8 C 80.5 28.4, 51.1 33.8, 50.0 24.3 C 67.1 36.6, 100.0 88.8, 99.5 100.0 C 84.0 81.8, 0.0 55.9, 2.5 41.4 C 7.5 55.3, 80.2 100.0, 84.2 99.3 C 98.5 86.8, 53.7 40.4, 66.4 38.8 C 81.1 54.0, 10.6 69.2, 15.2 74.3 C 33.8 72.1, 75.7 15.7, 74.1 29.8 Z" fill="hsl(2, 82%, 55%)" fill-opacity="0.58" stroke="none" stroke-width="0.89"  transform="translate(37.1 62.2) rotate(76.8) scale(0.88 0.71)" />
<rect x="3.0" y="64.8" width="21.8" height="21.0" rx="0" fill="none" fill-opacity="0.81"   transform="translate(23.4 59.7) rotate(205.8) scale(1.28 0.83)" />
<path d="M 36.9 15.0 C 30.1 33.6, 77.3 84.6, 68.5 94.1 C 50.7 87.7, 23.1 0.0, 28.0 6.1 C 35.7 0.0, 38.4 95.1, 43.8 85.5 C 51.4 68.7, 65.5 57.1, 69.9 64.5 C 84.2 52.1, 38.2 91.3, 34.1 78.7 C 50.2 59.6, 71.3 88.2, 83.8 94.0 C 98.1 79.8, 78.8 90.3, 88.6 82.5 Z" fill="hsl(290, 83%, 63%)" fill-opacity="0.55" stroke="none" stroke-width="5.18"  transform="translate(79.9 45.6) rotate(49.5) scale(1.53 1.86)" />
<rect x="22.4" y="18.2" width="48.1" height="13.7" rx="0" fill="none" fill-opacity="0.96"  filter="url(#f1)"  />
<path d="M 30.9 28.2 C 44.8 8.7, 81.4 31.3, 94.7 40.7 C 91.5 46.2, 72.6 14.0, 76.7 27.7 C 66.2 45.8, 44.7 43.3, 32.8 41.5 C 46.6 50.2, 65.6 0.0, 78.2 7.1 C 65.7 4.4, 44.3 21.3, 55.3 19.6 C 66.3 15.0, 96.6 65.3, 93.8 65.8 Z" fill="hsl(40, 53%, 69%)" fill-opacity="0.98" stroke="none" stroke-width="1.31"  transform="translate(76.3 66.1) rotate(319.5) scale(1.81 0.77)" />
<circle cx="73.2" cy="76.6" r="8.7" fill="url(#g0)" fill-opacity="0.79"  transform="translate(79.8 58.0) rotate(199.2) scale(0.78 0.64)" />
<circle cx="66.5" cy="88.3" r="1.1" fill="hsl(40, 53%, 69%)" fill-opacity="0.52"  transform="translate(2.9 12.4) rotate(217.1) scale(1.97 0.79)" />
<path d="M 55.6 21.5 C 66.9 39.6, 0.0 57.8, 7.6 72.3 C 6.9 54.0, 11.2 10.6, 6.5 16.7 C 10.3 15.9, 88.2 94.6, 94.0 88.1 C 87.1 100.0, 77.0 69.2, 75.9 74.7 C 90.0 87.4, 31.5 32.2, 39.1 20.8 C 47.5 22.9, 78.5 51.8, 88.1 64.5 C 76.0 70.5, 97.7 55.3, 83.5 48.8 Z" fill="none" fill-opacity="0.44" stroke="hsl(40, 53%, 69%)" stroke-width="3.57"   />
<path d="M 65.9 34.8 C 56.2 15.2, 26.9 62.5, 18.9 51.1 C 30.4 51.4, 61.5 60.5, 68.5 53.5 C 49.3 56.2, 67.0 65.2, 77.8 65.4 C 85.9 68.6, 46.1 20.6, 31.9 29.6 C 42.4 39.6, 76.5 0.0, 87.6 0.8 C 100.0 2.6, 0.0 79.9, 1.9 69.9 C 11.3 82.1, 27.1 59.0, 33.0 60.4 C 23.6 75.3, 25.7 100.0, 35.5 94.8 C 35.9 99.9, 4.2 58.7, 5.5 51.2 Z" fill="hsl(104, 72%, 65%)" fill-opacity="0.27" stroke="none" stroke-width="1.28"  transform="translate(59.9 38.6) rotate(344.8) scale(0.96 1.59)" />
<path d="M 47.9 39.7 C 45.0 58.3, 25.6 93.8, 29.6 99.6 C 27.4 100.0, 47.2 98.0, 56.0 95.6 C 46.1 99.0, 73.5 0.0, 62.2 7.3 C 62.6 18.5, 59.3 35.8, 64.4 42.7 C 79.6 39.0, 55.3 9.7, 57.7 15.3 C 58.3 5.4, 95.0 94.2, 89.7 99.4 " fill="hsl(2, 82%, 55%)" fill-opacity="0.73" stroke="none" stroke-width="3.52"  transform="translate(40.0 37.2) rotate(353.7) scale(1.03 0.51)" />
<rect x="34.5" y="41.1" width="39.1" height="24.2" rx="0" fill="none" fill-opacity="0.83" stroke="hsl(40, 53%, 69%)" stroke-width="3.5"  transform="translate(56.8 36.5) rotate(205.0) scale(0.69 1.70)" />
<path d="M 25.1 62.8 C 18.4 57.0, 66.1 29.8, 58.1 27.9 C 69.8 35.2, 93.2 15.3, 82.8 23.3 C 63.4 29.3, 20.2 83.4, 15.6 83.5 C 35.4 71.5, 43.6 13.2, 50.8 21.0 C 49.3 20.7, 0.0 39.6, 1.3 39.0 C 5.7 19.8, 42.3 82.6, 54.3 84.2 C 37.4 80.2, 22.3 34.8, 28.8 30.8 C 32.8 16.6, 11.3 0.0, 24.9 7.7 Z" fill="hsl(151, 70%, 62%)" fill-opacity="0.44" stroke="none" stroke-width="3.27"  transform="translate(94.7 37.4) rotate(221.3) scale(1.65 0.83)" />
<path d="M 60.8 16.2 C 69.1 3.0, 62.8 69.7, 63.5 77.7 C 75.6 84.6, 100.0 49.5, 86.9 56.3 C 75.1 37.2, 13.9 91.7, 16.2 85.2 C 5.1 97.8, 0.0 72.6, 6.4 87.3 C 9.1 95.8, 45.9 39.3, 34.4 49.8 C 47.0 61.8, 50.0 88.1, 56.4 97.2 C 55.4 98.9, 29.1 28.9, 37.8 40.4 C 31.0 50.9, 89.5 45.7, 88.6 39.7 C 88.6 44.2, 60.4 62.5, 51.1 58.5 Z" fill="hsl(86, 72%, 68%)" fill-opacity="0.44" stroke="none" stroke-width="3.59"  transform="translate(24.2 68.5) rotate(287.8) scale(0.53 1.12)" />
<circle cx="87.2" cy="14.5" r="2.2" fill="url(#g2)" fill-opacity="0.44"  transform="translate(84.1 82.7) rotate(233.6) scale(1.25 1.20)" />
<path d="M 49.1 55.9 C 56.6 48.3, 37.8 48.3, 42.1 43.6 C 54.2 59.0, 53.6 99.5, 57.1 92.5 C 45.0 85.3, 88.6 16.4, 80.9 6.1 C 61.9 0.9, 79.6 20.6, 84.9 31.4 C 72.5 17.5, 29.0 83.9, 29.0 69.1 C 35.1 85.8, 0.0 85.6, 3.1 77.4 C 20.1 84.5, 57.7 88.4, 48.5 81.1 C 59.1 75.3, 33.2 11.0, 23.7 4.1 C 7.4 0.0, 48.0 23.9, 60.9 27.3 Z" fill="hsl(40, 53%, 69%)" fill-opacity="0.55" stroke="none" stroke-width="2.72"  transform="translate(98.2 63.9) rotate(306.3) scale(0.91 1.76)" />
<path d="M 24.2 35.2 C 38.2 35.3, 32.9 89.5, 22.4 78.6 C 15.8 64.6, 39.9 58.7, 34.1 44.1 C 20.2 30.8, 59.1 42.4, 50.5 36.9 C 65.2 34.6, 4.9 98.9, 8.3 94.7 C 7.6 88.0, 72.5 45.8, 84.5 51.3 C 83.4 55.7, 16.1 11.3, 30.0 5.6 C 13.9 0.0, 84.0 64.8, 83.1 74.9 C 73.0 94.8, 26.3 82.4, 15.4 95.9 Z" fill="none" fill-opacity="0.75" stroke="hsl(290, 83%, 63%)" stroke-width="1.77"  transform="translate(96.1 67.7) rotate(99.5) scale(1.05 1.61)" />
<path d="M 71.4 33.5 C 70.2 51.5, 45.8 3.4, 57.3 11.1 C 72.0 0.0, 90.6 75.3, 80.8 69.2 C 81.2 68.4, 36.4 94.5, 34.4 87.6 C 41.6 72.5, 100.0 22.9, 89.2 24.7 C 97.8 37.5, 60.3 56.8, 63.0 55.9 C 58.1 56.1, 11.7 0.4, 19.5 5.9 C 25.3 0.0, 22.1 30.0, 15.8 33.5 C 30.3 17.9, 98.7 37.8, 93.3 46.9 Z" fill="none" fill-opacity="0.45" stroke="hsl(86, 72%, 68%)" stroke-width="2.97"  transform="translate(34.8 40.7) rotate(345.4) scale(0.50 0.76)" />
<path d="M 95.6 40.8 C 100.0 32.0, 37.9 87.9, 24.5 78.6 C 8.7 82.1, 55.0 38.1, 67.3 39.8 C 73.8 58.7, 100.0 7.5, 98.4 6.6 C 100.0 0.0, 30.4 33.9, 24.5 32.6 C 27.2 48.4, 31.3 31.3, 42.8 34.6 C 29.4 45.0, 100.0 69.4, 87.9 81.5 C 77.6 90.6, 76.5 98.4, 90.8 94.7 C 100.0 95.6, 60.4 36.0, 56.2 39.7 " fill="none" fill-opacity="0.76" stroke="hsl(2, 82%, 55%)" stroke-width="1.66"  transform="translate(56.3 26.6) rotate(266.8) scale(1.77 1.43)" />
<path d="M 24.4 91.1 C 26.3 83.0, 33.6 84.7, 20.4 80.8 C 31.7 61.7, 69.9 75.4, 70.6 81.2 C 83.1 80.2, 99.5 100.0, 94.0 97.8 C 93.5 78.4, 35.6 95.1, 33.0 81.5 C 14.1 78.9, 0.8 34.7, 14.3 22.7 C 0.0 21.1, 61.7 89.2, 55.8 91.5 C 69.4 100.0, 40.9 33.1, 45.6 36.5 Z" fill="hsl(322, 74%, 44%)" fill-opacity="0.56" stroke="none" stroke-width="1.84"  transform="translate(12.2 22.8) rotate(81.5) scale(1.69 1.91)" />
<path d="M 17.1 13.9 C 4.3 20.1, 54.3 7.6, 42.7 19.1 C 60.2 35.7, 83.3 63.0, 73.3 53.4 C 59.1 45.3, 60.4 83.2, 47.2 70.0 C 28.8 66.8, 65.5 29.6, 63.2 43.4 C 49.7 35.1, 0.1 93.0, 6.5 78.5 C 0.0 94.8, 9.3 90.6, 16.7 86.2 Z" fill="none" fill-opacity="0.66" stroke="hsl(2, 82%, 55%)" stroke-width="1.40"  transform="translate(63.7 44.7) rotate(140.0) scale(1.04 0.61)" />
<path d="M 60.1 15.3 C 73.5 27.2, 70.0 0.0, 55.8 6.9 C 68.2 7.2, 79.3 33.3, 88.5 38.9 C 100.0 30.2, 0.0 83.8, 11.6 83.6 C 18.9 80.7, 61.8 73.5, 72.3 84.6 C 84.3 79.4, 33.7 40.3, 47.7 31.5 C 44.2 13.2, 35.9 3.6, 29.5 2.0 C 45.0 0.0, 18.3 37.1, 18.3 34.5 C 3.9 38.6, 53.8 31.8, 41.8 21.0 C 34.2 5.6, 43.5 0.0, 30.0 0.1 C 42.5 0.0, 68.1 77.8, 65.9 67.4 Z" fill="none" fill-opacity="0.35" stroke="hsl(83, 65%, 44%)" stroke-width="3.64"  transform="translate(18.0 30.7) rotate(247.9) scale(1.04 0.88)" />
<path d="M 36.6 56.1 C 48.5 63.1, 50.9 84.6, 55.2 88.7 C 56.5 100.0, 0.0 22.0, 6.0 35.1 C 3.3 48.8, 73.6 35.8, 70.3 42.4 C 53.2 51.4, 66.5 0.0, 61.9 1.4 C 57.6 4.2, 51.8 0.0, 59.9 3.4 C 66.6 13.2, 40.9 0.0, 51.6 4.3 Z" fill="hsl(83, 65%, 44%)" fill-opacity="0.38" stroke="none" stroke-width="1.30"   />
<path d="M 32.1 31.1 C 30.3 21.4, 99.7 16.4, 86.4 8.2 C 100.0 0.0, 38.2 31.5, 37.9 20.8 C 41.2 34.7, 66.7 76.1, 70.8 88.2 C 67.8 92.9, 15.4 95.7, 18.7 93.2 C 23.9 100.0, 45.6 43.8, 50.9 45.9 C 53.1 54.5, 46.4 14.6, 46.5 13.2 C 57.3 18.4, 8.1 28.2, 4.3 35.2 C 0.0 48.1, 42.2 32.4, 45.4 41.8 C 26.9 46.9, 27.2 15.0, 32.2 1.2 Z" fill="none" fill-opacity="0.91" stroke="hsl(322, 74%, 44%)" stroke-width="3.68"  transform="translate(61.1 78.3) rotate(43.7) scale(0.64 0.85)" />
<circle cx="75.1" cy="66.1" r="17.3" fill="url(#g2)" fill-opacity="0.44" filter="url(#f1)" transform="translate(34.2 33.5) rotate(25.9) scale(0.91 1.60)" />
<path d="M 41.9 88.3 C 39.6 87.8, 0.6 76.4, 10.2 67.5 C 28.7 85.9, 66.6 56.3, 70.3 43.3 C 66.5 37.0, 16.6 26.4, 14.6 19.2 C 19.7 37.0, 8.5 18.9, 18.3 7.2 C 1.7 0.0, 75.8 89.8, 80.9 91.7 C 61.0 74.4, 2.1 26.4, 13.5 11.5 C 24.3 0.0, 35.0 71.7, 23.0 83.8 C 10.2 89.8, 17.1 47.1, 21.0 39.0 C 21.7 20.0, 57.3 39.2, 45.6 26.8 Z" fill="none" fill-opacity="0.87" stroke="hsl(242, 72%, 49%)" stroke-width="5.01"   />
<circle cx="86.2" cy="58.8" r="8.6" fill="hsl(144, 86%, 72%)" fill-opacity="0.99"  transform="translate(62.2 89.6) rotate(318.9) scale(1.84 1.42)" />
<rect x="35.4" y="4.7" width="46.3" height="17.8" rx="9.6" fill="hsl(2, 82%, 55%)" fill-opacity="0.35"    />
<path d="M 51.6 95.9 C 32.3 95.8, 42.8 44.9, 51.8 51.7 C 63.8 35.3, 38.0 19.3, 42.0 30.3 C 51.4 23.5, 68.3 60.9, 64.4 47.8 C 76.7 30.7, 15.4 39.9, 20.9 45.3 C 38.7 47.5, 63.0 15.6, 73.6 12.4 C 86.6 0.0, 1.6 16.1, 15.5 4.3 C 1.9 21.4, 0.0 46.7, 0.3 45.8 Z" fill="none" fill-opacity="0.58" stroke="hsl(290, 83%, 63%)" stroke-width="0.92"  transform="translate(95.9 95.5) rotate(75.5) scale(0.60 1.37)" />
<rect x="15.4" y="43.5" width="35.3" height="30.3" rx="0" fill="hsl(144, 86%, 72%)" fill-opacity="0.56" stroke="hsl(40, 53%, 69%)" stroke-width="2.0"  transform="translate(19.9 12.3) rotate(129.2) scale(1.86 1.84)" />
<path d="M 93.7 67.1 C 99.8 62.6, 59.6 35.0, 47.8 40.6 C 41.6 42.0, 44.3 53.6, 53.8 61.5 C 36.2 71.4, 7.8 29.3, 12.8 40.7 C 7.7 50.7, 90.8 47.7, 76.1 53.8 C 66.7 71.0, 32.3 25.7, 44.7 35.5 C 55.4 35.1, 34.3 94.7, 41.0 82.4 Z" fill="hsl(242, 72%, 49%)" fill-opacity="0.43" stroke="none" stroke-width="1.50"  transform="translate(5.8 14.7) rotate(31.4) scale(0.60 1.33)" />
<path d="M 91.7 61.5 C 97.6 63.5, 48.1 83.4, 48.0 78.7 C 37.0 97.8, 16.9 35.5, 28.6 41.8 C 37.9 57.0, 66.2 18.2, 66.3 16.9 C 65.3 17.8, 92.9 24.6, 94.0 17.2 C 100.0 29.4, 14.2 18.3, 15.6 22.6 C 22.7 30.9, 63.3 43.2, 62.8 41.0 Z" fill="hsl(106, 75%, 59%)" fill-opacity="0.43" stroke="none" stroke-width="4.72"  transform="translate(21.4 89.6) rotate(115.8) scale(0.77 0.71)" />
<circle cx="83.7" cy="91.7" r="2.8" fill="url(#g1)" fill-opacity="0.56"  transform="translate(95.5 86.1) rotate(306.8) scale(1.85 1.44)" />
<path d="M 62.1 28.2 C 70.7 47.4, 100.0 20.3, 95.7 34.5 C 100.0 43.4, 12.8 16.4, 18.6 15.0 C 31.3 14.7, 50.8 28.6, 44.2 40.1 C 46.2 29.8, 31.3 82.4, 23.6 70.0 C 22.6 52.3, 28.1 46.7, 40.7 32.9 C 37.7 46.1, 17.9 95.9, 20.6 91.2 C 25.0 92.0, 42.4 85.8, 27.7 97.7 C 28.4 93.9, 54.8 84.8, 65.6 87.8 C 59.3 94.7, 100.0 23.2, 88.6 23.8 C 81.5 10.1, 31.7 1.9, 38.7 0.9 Z" fill="none" fill-opacity="0.70" stroke="hsl(2, 82%, 55%)" stroke-width="1.13" filter="url(#f1)" transform="translate(38.3 37.0) rotate(300.8) scale(1.58 1.12)" />
<rect x="35.9" y="58.4" width="25.6" height="38.6" rx="0" fill="none" fill-opacity="0.99"   transform="translate(72.0 73.7) rotate(16.1) scale(0.63 1.75)" />
<rect x="7.5" y="23.2" width="42.5" height="18.3" rx="0" fill="hsl(104, 72%, 65%)" fill-opacity="0.47"   transform="translate(41.7 50.2) rotate(25.5) scale(0.76 1.44)" />
<rect x="20.0" y="73.9" width="26.2" height="21.4" rx="0" fill="hsl(83, 65%, 44%)" fill-opacity="0.71" stroke="hsl(86, 72%, 68%)" stroke-width="3.7"  transform="translate(49.7 90.2) rotate(336.4) scale(1.92 0.66)" />
<path d="M 99.9 90.7 C 100.0 100.0, 9.4 62.4, 23.2 72.4 C 21.3 60.7, 97.1 81.8, 84.4 71.0 C 92.1 76.3, 79.4 15.0, 67.3 26.7 C 84.8 36.1, 0.0 39.3, 2.6 29.2 C 6.0 17.0, 100.0 24.9, 98.9 26.4 C 100.0 17.3, 58.5 68.5, 49.4 80.9 Z" fill="none" fill-opacity="0.98" stroke="hsl(290, 83%, 63%)" stroke-width="0.97" filter="url(#f1)" transform="translate(10.7 23.1) rotate(238.2) scale(1.91 0.67)" />
<path d="M 3.5 59.1 C 0.0 63.4, 67.7 64.1, 72.8 78.0 C 83.6 82.2, 14.2 22.8, 13.5 18.7 C 0.0 17.0, 72.6 71.3, 62.8 67.0 C 44.0 50.6, 94.8 100.0, 92.0 96.1 C 100.0 100.0, 21.6 31.1, 33.1 21.2 C 17.6 26.2, 95.7 63.9, 93.0 49.8 Z" fill="hsl(86, 72%, 68%)" fill-opacity="0.25" stroke="none" stroke-width="4.61"   />
<path d="M 79.8 79.1 C 80.0 62.5, 66.8 0.0, 55.3 5.2 C 69.5 6.5, 90.1 67.4, 93.9 74.5 C 99.0 65.7, 0.8 66.6, 11.4 55.4 C 0.0 68.5, 93.1 88.8, 90.5 89.2 C 72.6 87.3, 33.7 64.5, 34.1 73.6 C 22.1 72.8, 57.3 69.3, 56.9 69.4 C 48.8 60.9, 18.6 39.7, 29.5 52.5 Z" fill="hsl(183, 71%, 60%)" fill-opacity="0.94" stroke="none" stroke-width="2.71"  transform="translate(88.6 70.7) rotate(279.8) scale(0.51 1.63)" />
<path d="M 2.8 48.8 C 13.1 65.3, 45.8 83.2, 53.3 80.3 C 39.5 90.0, 82.3 50.8, 84.7 64.6 C 84.5 49.0, 93.4 51.9, 85.2 55.5 C 94.2 64.2, 45.6 46.9, 51.7 46.7 C 54.1 32.7, 25.5 38.6, 39.4 53.1 C 19.5 39.7, 63.9 35.0, 77.7 45.0 C 59.8 60.3, 78.7 66.7, 73.1 81.4 C 87.2 62.2, 95.3 77.6, 88.0 74.3 C 78.6 77.3, 95.3 22.7, 87.0 8.5 C 98.6 21.8, 35.8 79.2, 22.6 80.1 " fill="none" fill-opacity="0.45" stroke="hsl(40, 53%, 69%)" stroke-width="3.07"  transform="translate(16.7 88.1) rotate(126.2) scale(0.57 0.61)" />
<path d="M 62.9 76.2 C 69.2 85.9, 70.1 59.5, 71.6 71.7 C 51.7 89.5, 5.1 95.6, 14.9 95.2 C 28.4 88.5, 27.2 60.5, 15.7 69.4 C 11.0 57.1, 80.5 52.6, 88.5 46.4 C 88.5 62.0, 0.0 20.7, 2.1 17.7 C 18.1 35.2, 10.1 22.2, 5.9 32.4 Z" fill="none" fill-opacity="0.43" stroke="hsl(86, 72%, 68%)" stroke-width="4.96"  transform="translate(73.3 20.8) rotate(26.4) scale(1.22 1.10)" />
<path d="M 36.7 38.6 C 24.1 25.6, 68.8 90.9, 77.8 92.4 C 86.3 90.1, 84.7 67.8, 85.9 73.0 C 92.3 87.5, 49.0 30.2, 57.4 32.0 C 59.0 16.8, 45.5 46.3, 52.8 34.8 C 43.0 17.3, 93.4 100.0, 95.6 89.2 C 100.0 84.2, 99.0 57.0, 86.1 57.5 C 95.9 43.6, 29.0 61.4, 35.2 53.5 C 16.2 72.8, 22.9 6.8, 32.0 16.8 C 23.3 0.8, 98.2 19.2, 93.1 14.0 C 100.0 18.1, 49.7 76.6, 49.0 69.7 Z" fill="hsl(151, 70%, 62%)" fill-opacity="0.78" stroke="none" stroke-width="5.08"  transform="translate(73.7 85.1) rotate(242.4) scale(1.57 0.67)" />
<rect x="3.1" y="7.2" width="32.7" height="28.1" rx="19.9" fill="hsl(2, 82%, 55%)" fill-opacity="0.64"   transform="translate(7.2 40.6) rotate(317.9) scale(1.72 1.57)" />
<rect x="61.6" y="48.5" width="21.6" height="22.9" rx="14.9" fill="none" fill-opacity="0.77"   transform="translate(48.1 35.8) rotate(116.4) scale(1.14 1.25)" />
<circle cx="48.2" cy="24.4" r="4.7" fill="url(#g1)" fill-opacity="0.71" filter="url(#f1)"  />
<circle cx="75.2" cy="73.9" r="20.1" fill="hsl(106, 75%, 59%)" fill-opacity="0.73"   />
<path d="M 37.3 81.5 C 57.1 86.5, 53.5 13.0, 40.3 18.3 C 23.8 0.0, 15.8 73.9, 30.7 82.9 C 42.1 67.5, 35.8 37.3, 21.4 47.7 C 31.1 52.8, 95.8 47.7, 99.3 59.7 C 91.9 77.7, 0.0 90.7, 1.4 96.9 C 0.0 100.0, 16.5 53.3, 28.2 47.2 C 44.7 40.5, 69.8 53.0, 81.0 38.5 " fill="hsl(290, 83%, 63%)" fill-opacity="0.39" stroke="none" stroke-width="1.94"  transform="translate(6.7 21.2) rotate(19.5) scale(1.33 1.99)" />
<path d="M 79.9 79.9 C 94.3 95.7, 0.0 100.0, 4.8 94.6 C 23.4 85.1, 59.7 49.7, 53.8 56.0 C 57.5 45.0, 42.6 73.2, 31.4 78.1 C 21.1 79.3, 53.6 49.5, 46.6 43.1 C 42.1 54.0, 75.8 69.5, 81.7 65.8 C 72.7 83.2, 0.0 97.0, 2.4 85.5 C 0.0 96.1, 34.8 46.1, 28.6 57.9 C 30.9 43.4, 81.2 41.1, 72.8 43.9 C 82.7 40.3, 44.7 42.2, 47.3 48.2 C 63.0 46.0, 74.2 62.2, 83.9 48.5 Z" fill="hsl(183, 71%, 60%)" fill-opacity="0.65" stroke="none" stroke-width="5.19"  transform="translate(42.3 73.4) rotate(268.3) scale(1.10 0.76)" />
<path d="M 92.1 62.8 C 100.0 55.0, 57.5 1.1, 68.3 14.7 C 65.7 0.0, 55.8 29.7, 42.6 29.3 C 32.9 16.1, 18.1 70.2, 20.5 61.9 C 34.8 77.5, 43.7 11.6, 48.8 2.9 C 31.0 6.3, 84.3 69.3, 70.5 61.8 C 58.6 42.8, 39.3 54.0, 29.8 65.5 Z" fill="hsl(183, 71%, 60%)" fill-opacity="0.57" stroke="none" stroke-width="3.26"   />
<path d="M 75.5 38.6 C 85.7 56.3, 54.9 0.0, 63.6 12.5 C 67.1 27.4, 14.1 100.0, 27.4 89.0 C 34.2 92.6, 85.2 22.5, 89.1 23.0 C 75.7 40.1, 65.9 99.5, 55.0 85.9 C 61.0 88.6, 37.7 43.6, 30.1 54.3 C 49.3 72.3, 47.8 0.0, 58.7 1.0 C 75.2 16.0, 46.1 97.0, 32.7 98.6 C 36.0 100.0, 63.7 78.3, 71.4 91.0 C 87.3 97.6, 12.6 3.3, 19.5 18.3 C 8.3 10.8, 45.3 7.1, 59.2 6.6 Z" fill="none" fill-opacity="0.94" stroke="hsl(183, 71%, 60%)" stroke-width="3.68"  transform="translate(85.3 27.5) rotate(44.7) scale(1.38 0.84)" />
<path d="M 81.5 7.3 C 66.9 0.0, 73.2 94.3, 68.6 99.5 C 63.6 84.6, 63.3 18.4, 58.8 9.1 C 67.3 12.2, 58.2 40.9, 64.6 28.0 C 47.0 23.6, 8.8 54.7, 9.0 67.5 C 14.7 61.0, 74.8 21.9, 72.5 23.2 C 77.5 6.1, 66.5 34.4, 74.2 27.6 C 91.0 11.5, 75.8 81.4, 60.8 87.2 C 56.8 77.9, 61.3 85.6, 50.0 81.5 C 62.4 81.7, 96.1 82.2, 94.1 87.5 Z" fill="hsl(83, 65%, 44%)" fill-opacity="0.33" stroke="none" stroke-width="3.73" filter="url(#f1)" transform="translate(54.4 2.7) rotate(36.1) scale(1.73 1.14)" />
<path d="M 73.8 74.5 C 69.3 55.1, 40.1 17.4, 32.8 29.3 C 18.6 13.2, 35.7 50.7, 50.0 37.5 C 35.1 42.3, 10.7 11.3, 23.0 11.5 C 31.3 18.6, 77.0 4.6, 68.5 6.0 C 64.0 16.7, 23.1 59.3, 35.7 46.0 C 22.0 63.6, 89.0 95.9, 87.5 91.2 C 88.7 95.1, 7.6 95.1, 19.7 89.1 Z" fill="none" fill-opacity="0.90" stroke="hsl(106, 75%, 59%)" stroke-width="3.92"  transform="translate(63.8 30.5) rotate(72.9) scale(0.95 0.89)" />
<path d="M 48.6 63.8 C 56.8 64.3, 44.8 50.6, 31.7 37.5 C 44.0 50.2, 36.9 72.6, 24.8 72.1 C 18.3 65.6, 57.1 92.9, 63.0 82.5 C 55.1 81.3, 26.6 37.1, 35.5 22.4 C 44.7 11.2, 26.6 68.9, 33.2 59.1 C 20.8 73.0, 57.2 26.1, 49.3 16.8 C 63.9 4.1, 92.8 0.0, 91.1 2.0 C 75.6 0.4, 94.3 58.8, 92.1 55.9 C 90.5 41.6, 31.5 48.8, 44.2 58.2 C 62.2 45.1, 92.7 60.2, 86.0 49.8 Z" fill="none" fill-opacity="0.95" stroke="hsl(183, 71%, 60%)" stroke-width="2.23"   />
<circle cx="10.9" cy="66.9" r="4.1" fill="url(#g0)" fill-opacity="0.60"  transform="translate(50.1 50.6) rotate(180.7) scale(0.78 1.12)" />
<path d="M 45.9 94.1 C 26.1 100.0, 16.1 11.7, 17.0 12.1 C 27.9 26.1, 100.0 42.1, 93.6 32.4 C 90.2 36.1, 93.0 15.3, 97.9 12.7 C 100.0 8.4, 0.0 83.1, 1.0 93.9 C 0.0 87.9, 62.1 64.1, 54.5 64.7 C 69.2 75.0, 64.4 66.8, 55.3 69.9 C 59.4 70.4, 16.5 79.0, 9.3 66.6 Z" fill="hsl(151, 70%, 62%)" fill-opacity="0.30" stroke="none" stroke-width="3.26"  transform="translate(96.6 31.4) rotate(267.2) scale(1.55 0.92)" />
<g opacity="0.048">
<rect x="0" y="0" width="1" height="100" fill="black" />
<rect x="22" y="0" width="1" height="100" fill="black" />
<rect x="44" y="0" width="1" height="100" fill="black" />
<rect x="66" y="0" width="1" height="100" fill="black" />
<rect x="88" y="0" width="1" height="100" fill="black" />
<rect x="0" y="0" width="100" height="1" fill="black" />
<rect x="0" y="22" width="100" height="1" fill="black" />
<rect x="0" y="44" width="100" height="1" fill="black" />
<rect x="0" y="66" width="100" height="1" fill="black" />
<rect x="0" y="88" width="100" height="1" fill="black" />
</g>

</svg>
