<?xml version="1.0" encoding="UTF-8"?>
<svg xmlns="http://www.w3.org/2000/svg" width="100" height="100" viewBox="0 0 100 100">
<defs>
<linearGradient id="g0" x1="0%" y1="0%" x2="100%" y2="100%">
<stop offset="0.0%" stop-color="hsl(106, 75%, 59%)" />
<stop offset="33.3%" stop-color="hsl(183, 71%, 60%)" />
<stop offset="66.7%" stop-color="hsl(242, 72%, 49%)" />
<stop offset="100.0%" stop-color="hsl(322, 74%, 44%)" />
</linearGradient>
<linearGradient id="g1" x1="0%" y1="0%" x2="100%" y2="100%">
<stop offset="0.0%" stop-color="hsl(290, 83%, 63%)" />
<stop offset="33.3%" stop-color="hsl(2, 82%, 55%)" />
<stop offset="66.7%" stop-color="hsl(86, 72%, 68%)" />
<stop offset="100.0%" stop-color="hsl(83, 65%, 44%)" />
</linearGradient>
<linearGradient id="g2" x1="0%" y1="0%" x2="100%" y2="100%">
<stop offset="0.0%" stop-color="hsl(40, 53%, 69%)" />
<stop offset="33.3%" stop-color="hsl(104, 72%, 65%)" />
<stop offset="66.7%" stop-color="hsl(144, 86%, 72%)" />
<stop offset="100.0%" stop-color="hsl(151, 70%, 62%)" />
</linearGradient>
</defs>

<rect x="14.7" y="31.5" width="40.9" height="18.3" rx="0" fill="hsl(86, 72%, 68%)" fill-opacity="0.91"    />
<rect x="17.3" y="30.3" width="38.0" height="36.9" rx="12.1" fill="none" fill-opacity="0.71" stroke="hsl(2, 82%, 55%)" stroke-width="4.7"  transform="translate(91.3 77.7) rotate(204.3) scale(1.03 1.98)" />
<circle cx="87.5" cy="30.1" r="2.2" fill="hsl(242, 72%, 49%)" fill-opacity="0.91"   />
<path d="M 8.9 73.3 C 3.7 73.5, 52.7 84.8, 42.0 94.6 C 56.7 90.7, 42.2 56.4, 49.0 42.5 C 46.7 30.6, 67.9 0.0, 64.4 9.9 C 56.5 19.7, 94.0 90.0, 83.6 81.7 C 100.0 78.5, 84.3 56.0, 92.8 66.6 C 99.1 72.2, 98.1 58.5, 96.3 50.3 C 92.3 36.3, 86.3 66.4, 85.9 74.9 Z" fill="hsl(83, 65%, 44%)" fill-opacity="0.27" stroke="none" stroke-width="1.26"  transform="translate(63.0 92.4) rotate(115.0) scale(0.78 0.80)" />
<rect x="19.6" y="52.8" width="49.5" height="39.1" rx="8.0" fill="hsl(242, 72%, 49%)" fill-opacity="0.65"   transform="translate(85.7 68.4) rotate(164.9) scale(1.32 0.78)" />
<path d="M 18.3 7.9 C 1.4 14.9, 60.0 45.2, 69.4 51.9 C 54.2 51.1, 58.3 27.5, 64.9 37.7 C 47.7 42.9, 97.6 44.2, 84.2 44.3 " fill="none" fill-opacity="0.31" stroke="hsl(151, 70%, 62%)" stroke-width="1.15"   />
<path d="M 5.1 49.6 C 0.0 50.2, 15.8 6.5, 1.7 9.5 C 15.1 13.4, 82.0 72.1, 87.4 67.6 C 97.9 72.8, 6.1 73.2, 18.7 63.0 C 17.8 62.4, 31.9 95.2, 26.1 91.0 C 10.7 91.5, 50.3 48.3, 62.8 49.2 C 52.7 47.5, 79.4 44.1, 75.4 57.6 Z" fill="hsl(290, 83%, 63%)" fill-opacity="0.76" stroke="none" stroke-width="0.84"  transform="translate(28.6 32.6) rotate(224.7) scale(1.02 0.52)" />
<path d="M 65.5 52.0 C 71.5 40.0, 75.9 39.6, 85.0 32.0 C 85.4 21.0, 26.1 92.3, 28.9 84.8 C 41.9 88.1, 55.0 84.5, 50.5 69.6 C 42.4 63.5, 36.3 88.9, 33.0 80.3 C 33.6 76.1, 69.7 45.6, 73.4 36.7 Z" fill="hsl(183, 71%, 60%)" fill-opacity="0.40" stroke="none" stroke-width="1.00"   />
<rect x="57.2" y="42.3" width="41.3" height="18.5" rx="11.2" fill="none" fill-opacity="0.67" stroke="hsl(106, 75%, 59%)" stroke-width="2.8"   />
<path d="M 5.8 91.7 C 2.1 100.0, 13.0 97.9, 25.3 84.4 C 40.2 71.8, 16.5 7.8, 23.6 19.0 C 40.9 24.9, 35.7 29.4, 25.3 43.5 C 16.5 29.1, 65.8 87.7, 76.0 98.4 C 90.0 83.3, 82.5 50.5, 73.8 42.9 Z" fill="hsl(183, 71%, 60%)" fill-opacity="0.95" stroke="none" stroke-width="0.97"   />
<path d="M 5.4 28.5 C 11.7 35.9, 13.7 65.4, 13.3 75.3 C 2.0 68.9, 84.9 85.0, 86.4 72.3 C 76.3 72.8, 90.6 70.6, 89.9 78.1 C 70.6 88.0, 58.7 61.4, 70.9 49.6 Z" fill="hsl(290, 83%, 63%)" fill-opacity="0.39" stroke="none" stroke-width="1.28"   />
<path d="M 99.8 25.6 C 90.9 6.4, 35.8 21.5, 24.5 24.7 C 11.0 35.2, 1.2 48.9, 0.5 47.6 C 4.7 53.1, 100.0 62.0, 95.9 57.6 C 76.7 43.7, 53.2 39.8, 38.2 54.7 " fill="none" fill-opacity="0.69" stroke="hsl(106, 75%, 59%)" stroke-width="1.13"   />
<path d="M 60.3 40.1 C 55.0 54.1, 66.1 36.1, 54.9 23.5 C 72.0 42.8, 85.0 73.0, 86.1 74.8 C 70.2 90.6, 20.5 23.8, 16.8 14.3 C 23.7 6.4, 83.3 34.9, 79.4 25.8 C 71.8 7.2, 57.8 8.7, 63.2 20.4 C 65.8 28.0, 100.0 39.4, 90.6 51.6 C 100.0 44.1, 57.0 46.9, 58.7 45.2 Z" fill="hsl(40, 53%, 69%)" fill-opacity="0.49" stroke="none" stroke-width="1.23"  transform="translate(96.8 90.5) rotate(155.0) scale(1.33 0.67)" />
</svg>
