<?xml version="1.0" encoding="UTF-8"?>
<svg xmlns="http://www.w3.org/2000/svg" width="100" height="100" viewBox="0 0 100 100">
<defs>
<linearGradient id="g0" x1="0%" y1="0%" x2="100%" y2="100%">
<stop offset="0.0%" stop-color="hsl(106, 75%, 59%)" />
<stop offset="33.3%" stop-color="hsl(183, 71%, 60%)" />
<stop offset="66.7%" stop-color="hsl(242, 72%, 49%)" />
<stop offset="100.0%" stop-color="hsl(322, 74%, 44%)" />
</linearGradient>
<linearGradient id="g1" x1="0%" y1="0%" x2="100%" y2="100%">
<stop offset="0.0%" stop-color="hsl(290, 83%, 63%)" />
<stop offset="33.3%" stop-color="hsl(2, 82%, 55%)" />
<stop offset="66.7%" stop-color="hsl(86, 72%, 68%)" />
<stop offset="100.0%" stop-color="hsl(83, 65%, 44%)" />
</linearGradient>
<linearGradient id="g2" x1="0%" y1="0%" x2="100%" y2="100%">
<stop offset="0.0%" stop-color="hsl(40, 53%, 69%)" />
<stop offset="33.3%" stop-color="hsl(104, 72%, 65%)" />
<stop offset="66.7%" stop-color="hsl(144, 86%, 72%)" />
<stop offset="100.0%" stop-color="hsl(151, 70%, 62%)" />
</linearGradient>
</defs>

<circle cx="46.6" cy="89.3" r="1.7" fill="hsl(86, 72%, 68%)" fill-opacity="0.71"  transform="translate(39.4 87.3) rotate(111.8) scale(1.83 0.82)" />
<path d="M 43.9 59.1 C 36.6 52.8, 56.9 43.9, 57.9 52.8 C 61.8 41.7, 63.0 78.7, 74.8 92.1 C 78.8 100.0, 48.2 85.5, 35.4 91.5 C 21.9 77.0, 67.3 11.8, 80.3 24.8 C 75.6 10.2, 45.7 83.5, 33.3 87.8 Z" fill="none" fill-opacity="0.53" stroke="hsl(40, 53%, 69%)" stroke-width="1.30"  transform="translate(28.1 33.9) rotate(167.3) scale(1.30 0.86)" />
<rect x="26.4" y="21.2" width="41.5" height="16.1" rx="0" fill="hsl(144, 86%, 72%)" fill-opacity="0.76" stroke="hsl(40, 53%, 69%)" stroke-width="3.2"   />
<rect x="32.8" y="24.1" width="47.1" height="24.8" rx="0" fill="none" fill-opacity="0.51" stroke="hsl(183, 71%, 60%)" stroke-width="1.9"  transform="translate(29.9 99.1) rotate(234.1) scale(0.71 1.76)" />
<path d="M 64.2 4.9 C 75.1 0.0, 74.9 87.2, 87.1 76.6 C 100.0 73.9, 30.5 45.0, 34.1 42.7 C 50.9 60.7, 30.3 100.0, 41.2 91.2 C 21.5 80.8, 37.4 62.5, 46.0 50.4 Z" fill="none" fill-opacity="0.79" stroke="hsl(2, 82%, 55%)" stroke-width="1.29"   />
<path d="M 24.6 45.0 C 38.9 45.4, 19.0 100.0, 11.5 96.9 C 27.6 100.0, 0.0 68.3, 3.2 70.5 C 19.0 64.1, 66.1 20.9, 57.3 14.9 " fill="none" fill-opacity="0.31" stroke="hsl(242, 72%, 49%)" stroke-width="1.08"  transform="translate(46.9 90.0) rotate(76.4) scale(0.54 0.70)" />
<path d="M 85.5 2.3 C 99.7 0.0, 55.7 12.9, 41.7 1.8 C 32.0 1.0, 38.5 87.7, 42.1 88.3 C 41.3 68.4, 33.8 47.0, 48.4 47.4 C 45.4 34.3, 49.9 34.3, 54.7 40.9 C 39.8 52.2, 41.5 70.0, 34.2 83.3 C 36.5 87.7, 76.5 62.0, 91.4 59.6 Z" fill="hsl(106, 75%, 59%)" fill-opacity="0.94" stroke="none" stroke-width="0.97"   />
<circle cx="52.3" cy="95.4" r="0.4" fill="hsl(86, 72%, 68%)" fill-opacity="0.97"  transform="translate(52.1 91.6) rotate(94.8) scale(0.80 1.06)" />
<path d="M 37.4 40.8 C 56.8 32.8, 6.8 44.1, 12.1 57.6 C 0.0 58.8, 20.0 35.7, 29.8 42.2 C 44.5 58.2, 73.6 73.8, 65.9 64.6 " fill="hsl(40, 53%, 69%)" fill-opacity="0.81" stroke="none" stroke-width="1.29"  transform="translate(48.6 69.4) rotate(338.4) scale(1.94 1.35)" />
<circle cx="44.2" cy="72.0" r="0.4" fill="hsl(2, 82%, 55%)" fill-opacity="0.47"  transform="translate(87.1 81.9) rotate(346.5) scale(1.53 1.73)" />
<rect x="60.8" y="35.4" width="29.3" height="31.9" rx="10.4" fill="none" fill-opacity="0.40" stroke="hsl(183, 71%, 60%)" stroke-width="1.3"  transform="translate(63.1 30.3) rotate(328.6) scale(1.69 1.25)" />
<rect x="29.8" y="8.3" width="38.7" height="33.1" rx="0" fill="hsl(2, 82%, 55%)" fill-opacity="0.89"    />
<path d="M 67.2 62.0 C 49.0 59.8, 65.1 27.3, 61.7 20.9 C 48.5 13.8, 74.1 43.6, 66.2 47.7 C 85.2 44.8, 89.7 30.4, 95.9 31.2 C 77.2 42.4, 26.3 46.8, 13.2 42.1 C 16.7 35.8, 86.2 51.6, 88.4 60.8 " fill="none" fill-opacity="0.51" stroke="hsl(2, 82%, 55%)" stroke-width="0.98"  transform="translate(27.2 35.5) rotate(256.1) scale(0.93 1.75)" />
<path d="M 51.8 33.0 C 45.7 34.8, 35.9 14.4, 21.9 29.3 C 32.1 47.2, 95.7 52.4, 90.8 43.9 C 86.2 44.5, 69.6 96.5, 71.7 93.7 C 85.2 84.1, 35.8 0.0, 33.1 0.3 C 26.9 0.0, 73.0 23.8, 67.0 35.6 " fill="hsl(144, 86%, 72%)" fill-opacity="0.82" stroke="none" stroke-width="1.02"  transform="translate(47.0 23.4) rotate(20.4) scale(1.90 1.98)" />
<rect x="17.3" y="38.5" width="22.2" height="34.5" rx="0" fill="hsl(322, 74%, 44%)" fill-opacity="0.21"    />
</svg>
