<?xml version="1.0" encoding="UTF-8"?>
<svg xmlns="http://www.w3.org/2000/svg" width="100" height="100" viewBox="0 0 100 100">
<defs>
<linearGradient id="g0" x1="0%" y1="0%" x2="100%" y2="100%">
<stop offset="0.0%" stop-color="hsl(106, 75%, 59%)" />
<stop offset="33.3%" stop-color="hsl(183, 71%, 60%)" />
<stop offset="66.7%" stop-color="hsl(242, 72%, 49%)" />
<stop offset="100.0%" stop-color="hsl(322, 74%, 44%)" />
</linearGradient>
<linearGradient id="g1" x1="0%" y1="0%" x2="100%" y2="100%">
<stop offset="0.0%" stop-color="hsl(290, 83%, 63%)" />
<stop offset="33.3%" stop-color="hsl(2, 82%, 55%)" />
<stop offset="66.7%" stop-color="hsl(86, 72%, 68%)" />
<stop offset="100.0%" stop-color="hsl(83, 65%, 44%)" />
</linearGradient>
<linearGradient id="g2" x1="0%" y1="0%" x2="100%" y2="100%">
<stop offset="0.0%" stop-color="hsl(40, 53%, 69%)" />
<stop offset="33.3%" stop-color="hsl(104, 72%, 65%)" />
<stop offset="66.7%" stop-color="hsl(144, 86%, 72%)" />
<stop offset="100.0%" stop-color="hsl(151, 70%, 62%)" />
</linearGradient>
</defs>

<path d="M 90.5 47.1 C 83.9 62.2, 91.3 55.8, 78.9 47.9 C 64.7 44.9, 58.8 21.5, 73.5 35.3 C 87.4 46.7, 24.5 36.6, 24.0 46.6 C 12.0 54.0, 15.7 80.1, 25.5 74.5 C 27.7 83.9, 82.1 53.5, 80.9 39.3 C 85.6 35.5, 26.8 41.8, 38.5 34.0 " fill="hsl(83, 65%, 44%)" fill-opacity="0.72" stroke="none" stroke-width="1.14"  transform="translate(77.3 69.6) rotate(315.6) scale(1.63 1.73)" />
<path d="M 91.4 67.1 C 88.6 47.1, 94.1 25.9, 83.7 21.2 C 73.2 21.8, 48.7 72.7, 37.2 85.9 C 32.9 75.1, 44.4 48.3, 43.9 61.2 C 32.7 72.6, 80.9 32.2, 78.6 36.7 Z" fill="none" fill-opacity="0.86" stroke="hsl(40, 53%, 69%)" stroke-width="1.26"  transform="translate(88.4 56.7) rotate(118.5) scale(1.45 1.03)" />
<path d="M 92.4 54.6 C 100.0 62.7, 21.4 56.3, 16.9 50.3 C 28.2 37.6, 47.2 7.8, 60.2 12.1 C 57.8 31.3, 51.5 5.1, 37.7 10.5 Z" fill="none" fill-opacity="0.62" stroke="hsl(290, 83%, 63%)" stroke-width="1.15"  transform="translate(82.0 15.4) rotate(241.1) scale(1.73 0.95)" />
<path d="M 87.0 53.7 C 100.0 42.7, 66.4 23.7, 72.4 20.5 C 64.3 31.7, 4.1 48.6, 3.4 63.4 C 8.8 56.2, 80.0 66.8, 71.7 60.6 C 80.8 46.2, 19.1 7.3, 29.4 16.7 Z" fill="hsl(322, 74%, 44%)" fill-opacity="0.79" stroke="none" stroke-width="1.19"   />
<rect x="30.3" y="14.0" width="26.2" height="19.8" rx="0" fill="hsl(2, 82%, 55%)" fill-opacity="0.67"   transform="translate(14.8 70.7) rotate(342.2) scale(1.62 0.76)" />
<path d="M 22.8 56.4 C 10.4 71.0, 21.8 89.2, 31.2 79.0 C 49.6 94.9, 22.2 43.3, 10.4 38.9 C 23.2 20.5, 0.9 23.8, 4.5 20.8 C 0.0 25.7, 59.7 0.0, 60.9 1.6 C 65.2 0.0, 38.6 36.7, 35.9 23.5 C 37.0 38.5, 13.4 42.7, 21.8 36.4 C 7.8 51.8, 52.6 57.0, 59.4 67.0 " fill="hsl(106, 75%, 59%)" fill-opacity="0.64" stroke="none" stroke-width="1.18"   />
<path d="M 66.0 84.6 C 69.1 100.0, 77.5 27.9, 86.0 15.7 C 100.0 6.4, 22.4 42.9, 17.0 28.6 C 20.5 26.8, 19.1 40.3, 13.6 29.5 C 1.7 26.9, 27.9 85.1, 15.3 78.1 C 32.0 93.0, 100.0 63.2, 88.7 51.3 C 100.0 69.4, 77.9 43.5, 81.2 40.1 C 85.5 54.6, 71.9 38.3, 72.0 35.1 " fill="hsl(40, 53%, 69%)" fill-opacity="0.42" stroke="none" stroke-width="1.11"  transform="translate(88.8 63.2) rotate(145.2) scale(0.71 1.25)" />
<path d="M 52.1 55.6 C 66.5 73.4, 26.1 47.7, 22.5 46.6 C 28.9 55.9, 12.6 7.4, 7.8 4.8 C 21.7 8.6, 5.0 25.1, 1.4 31.4 C 0.0 13.6, 19.3 0.0, 18.5 5.7 C 23.4 11.8, 63.9 100.0, 74.9 99.1 " fill="none" fill-opacity="0.47" stroke="hsl(290, 83%, 63%)" stroke-width="1.05"  transform="translate(17.6 76.4) rotate(214.9) scale(1.37 0.72)" />
<rect x="40.5" y="16.1" width="32.0" height="34.8" rx="0" fill="hsl(40, 53%, 69%)" fill-opacity="0.66" stroke="hsl(40, 53%, 69%)" stroke-width="4.1"  transform="translate(15.2 91.3) rotate(328.2) scale(1.01 1.13)" />
<path d="M 25.9 31.2 C 39.7 42.5, 83.6 46.8, 82.3 48.4 C 89.8 53.3, 72.1 69.8, 70.3 70.3 C 72.5 50.4, 82.1 71.6, 69.8 58.7 C 53.2 56.2, 48.6 3.0, 38.6 12.6 C 27.9 21.9, 100.0 100.0, 89.0 91.8 C 86.1 79.5, 68.7 90.9, 56.6 89.9 " fill="hsl(290, 83%, 63%)" fill-opacity="0.33" stroke="none" stroke-width="1.09"   />
<path d="M 73.4 53.1 C 55.6 35.3, 13.3 87.0, 23.0 81.2 C 8.7 65.4, 92.7 24.8, 87.2 20.8 C 100.0 7.8, 96.6 94.8, 93.3 96.9 C 79.9 78.9, 83.5 49.6, 96.4 56.4 C 82.0 58.9, 0.0 73.0, 0.9 71.2 " fill="hsl(86, 72%, 68%)" fill-opacity="0.65" stroke="none" stroke-width="0.85"  transform="translate(33.7 76.9) rotate(127.9) scale(1.36 0.80)" />
<rect x="20.6" y="67.4" width="31.0" height="20.7" rx="7.3" fill="none" fill-opacity="0.49"    />
</svg>
