<?xml version="1.0" encoding="UTF-8"?>
<svg xmlns="http://www.w3.org/2000/svg" width="100" height="100" viewBox="0 0 100 100">
<defs>
<linearGradient id="g0" x1="0%" y1="0%" x2="100%" y2="100%">
<stop offset="0.0%" stop-color="hsl(106, 75%, 59%)" />
<stop offset="33.3%" stop-color="hsl(183, 71%, 60%)" />
<stop offset="66.7%" stop-color="hsl(242, 72%, 49%)" />
<stop offset="100.0%" stop-color="hsl(322, 74%, 44%)" />
</linearGradient>
<linearGradient id="g1" x1="0%" y1="0%" x2="100%" y2="100%">
<stop offset="0.0%" stop-color="hsl(290, 83%, 63%)" />
<stop offset="33.3%" stop-color="hsl(2, 82%, 55%)" />
<stop offset="66.7%" stop-color="hsl(86, 72%, 68%)" />
<stop offset="100.0%" stop-color="hsl(83, 65%, 44%)" />
</linearGradient>
<linearGradient id="g2" x1="0%" y1="0%" x2="100%" y2="100%">
<stop offset="0.0%" stop-color="hsl(40, 53%, 69%)" />
<stop offset="33.3%" stop-color="hsl(104, 72%, 65%)" />
<stop offset="66.7%" stop-color="hsl(144, 86%, 72%)" />
<stop offset="100.0%" stop-color="hsl(151, 70%, 62%)" />
</linearGradient>
</defs>

<rect x="31.2" y="17.9" width="42.3" height="16.4" rx="5.8" fill="none" fill-opacity="0.94"    />
<path d="M 74.6 33.9 C 88.9 29.2, 100.0 36.5, 91.3 37.6 C 90.9 36.6, 40.1 2.6, 31.8 15.5 C 40.0 0.0, 95.2 20.7, 88.7 32.2 C 86.2 32.5, 71.9 79.3, 69.5 90.9 C 83.8 76.4, 33.6 32.1, 25.4 17.7 Z" fill="none" fill-opacity="0.75" stroke="hsl(40, 53%, 69%)" stroke-width="1.11"   />
<rect x="2.2" y="26.9" width="28.6" height="23.6" rx="0" fill="hsl(83, 65%, 44%)" fill-opacity="0.74"    />
<rect x="43.4" y="9.3" width="31.2" height="29.1" rx="7.2" fill="hsl(322, 74%, 44%)" fill-opacity="0.72" stroke="hsl(322, 74%, 44%)" stroke-width="3.4"   />
<rect x="27.1" y="60.2" width="38.6" height="15.2" rx="18.7" fill="hsl(183, 71%, 60%)" fill-opacity="0.33"    />
<path d="M 74.7 16.6 C 56.9 33.4, 20.7 81.6, 11.7 93.4 C 8.2 93.0, 75.3 24.2, 78.1 27.2 C 90.6 24.7, 51.7 100.0, 59.5 95.9 C 60.3 100.0, 44.6 68.7, 45.2 68.6 C 42.8 69.0, 93.6 38.9, 93.1 34.8 C 87.3 49.8, 56.3 68.9, 55.9 80.0 C 75.5 61.8, 79.7 4.7, 70.9 14.4 Z" fill="hsl(290, 83%, 63%)" fill-opacity="0.56" stroke="none" stroke-width="0.97"   />
<circle cx="22.3" cy="37.1" r="0.7" fill="hsl(106, 75%, 59%)" fill-opacity="0.48"   />
<path d="M 15.9 75.8 C 0.0 67.9, 35.6 76.8, 29.0 71.3 C 31.8 72.0, 64.9 86.0, 57.7 78.8 C 63.2 65.4, 60.2 20.2, 50.8 33.4 C 43.8 48.6, 73.0 34.7, 81.9 24.0 C 70.2 7.1, 44.3 12.0, 41.4 24.4 C 58.6 32.0, 74.0 34.8, 79.1 47.1 Z" fill="hsl(290, 83%, 63%)" fill-opacity="0.66" stroke="none" stroke-width="1.21"  transform="translate(58.7 83.2) rotate(212.4) scale(1.49 1.24)" />
<path d="M 53.8 57.4 C 41.7 71.3, 87.2 6.4, 72.7 17.6 C 81.7 6.5, 37.3 100.0, 43.0 97.4 C 38.1 100.0, 73.1 52.0, 69.0 37.7 " fill="none" fill-opacity="0.81" stroke="hsl(2, 82%, 55%)" stroke-width="1.05"   />
<rect x="10.0" y="7.8" width="37.5" height="29.8" rx="0" fill="hsl(290, 83%, 63%)" fill-opacity="0.78"   transform="translate(68.8 15.8) rotate(126.7) scale(0.93 0.76)" />
<circle cx="88.1" cy="8.8" r="0.6" fill="hsl(144, 86%, 72%)" fill-opacity="0.68"   />
<path d="M 59.6 84.6 C 40.5 75.4, 17.0 16.2, 22.2 18.7 C 37.0 20.3, 13.4 68.7, 25.3 66.7 C 41.2 65.1, 85.5 31.1, 97.2 32.3 C 100.0 17.0, 11.3 14.9, 10.2 22.7 C 11.9 5.6, 55.2 57.8, 66.4 45.2 C 84.3 33.9, 21.7 17.6, 32.8 15.7 C 34.2 13.3, 12.0 74.8, 2.0 83.1 " fill="none" fill-opacity="0.46" stroke="hsl(40, 53%, 69%)" stroke-width="0.93"   />
<rect x="35.0" y="51.3" width="35.1" height="25.1" rx="2.9" fill="none" fill-opacity="0.34"    />
<circle cx="89.2" cy="24.7" r="0.2" fill="hsl(86, 72%, 68%)" fill-opacity="0.82"  transform="translate(52.3 6.9) rotate(278.2) scale(0.65 1.36)" />
<path d="M 46.1 1.6 C 64.6 0.0, 24.2 47.6, 36.7 43.9 C 29.3 33.1, 75.6 46.5, 67.6 38.3 C 86.3 50.4, 66.7 52.6, 65.0 52.8 C 82.4 38.5, 97.7 96.2, 93.3 86.4 C 100.0 84.0, 85.5 82.0, 92.2 92.9 C 100.0 83.1, 93.5 75.8, 92.2 61.8 C 74.0 79.3, 91.5 81.6, 99.7 91.9 Z" fill="none" fill-opacity="0.64" stroke="hsl(183, 71%, 60%)" stroke-width="0.96"   />
<path d="M 53.4 24.0 C 69.7 21.1, 57.7 92.0, 57.2 84.1 C 47.2 100.0, 100.0 79.6, 98.9 77.6 C 100.0 78.9, 14.8 48.2, 2.1 49.1 C 0.0 43.7, 54.7 31.4, 44.7 29.2 C 55.4 43.3, 14.9 0.0, 4.2 7.0 C 17.9 0.0, 32.8 55.0, 29.1 62.5 C 11.1 62.3, 88.0 28.0, 73.8 31.2 " fill="hsl(104, 72%, 65%)" fill-opacity="0.80" stroke="none" stroke-width="1.28"   />
<circle cx="86.6" cy="60.2" r="0.8" fill="hsl(106, 75%, 59%)" fill-opacity="0.54"   />
<path d="M 54.7 32.0 C 37.3 47.8, 58.3 45.2, 68.7 34.1 C 57.1 24.1, 64.9 82.5, 56.3 89.7 C 45.8 84.4, 100.0 100.0, 90.3 95.5 C 70.8 100.0, 7.6 25.8, 15.5 34.1 C 10.3 26.5, 85.5 58.5, 75.4 47.4 C 69.6 37.7, 13.3 59.1, 20.3 50.0 Z" fill="hsl(183, 71%, 60%)" fill-opacity="0.94" stroke="none" stroke-width="1.14"   />
</svg>
