<?xml version="1.0" encoding="UTF-8"?>
<svg xmlns="http://www.w3.org/2000/svg" width="100" height="100" viewBox="0 0 100 100">
<defs>
<linearGradient id="g0" x1="0%" y1="0%" x2="100%" y2="100%">
<stop offset="0.0%" stop-color="hsl(106, 75%, 59%)" />
<stop offset="33.3%" stop-color="hsl(183, 71%, 60%)" />
<stop offset="66.7%" stop-color="hsl(242, 72%, 49%)" />
<stop offset="100.0%" stop-color="hsl(322, 74%, 44%)" />
</linearGradient>
<linearGradient id="g1" x1="0%" y1="0%" x2="100%" y2="100%">
<stop offset="0.0%" stop-color="hsl(290, 83%, 63%)" />
<stop offset="33.3%" stop-color="hsl(2, 82%, 55%)" />
<stop offset="66.7%" stop-color="hsl(86, 72%, 68%)" />
<stop offset="100.0%" stop-color="hsl(83, 65%, 44%)" />
</linearGradient>
<linearGradient id="g2" x1="0%" y1="0%" x2="100%" y2="100%">
<stop offset="0.0%" stop-color="hsl(40, 53%, 69%)" />
<stop offset="33.3%" stop-color="hsl(104, 72%, 65%)" />
<stop offset="66.7%" stop-color="hsl(144, 86%, 72%)" />
<stop offset="100.0%" stop-color="hsl(151, 70%, 62%)" />
</linearGradient>
</defs>

<rect x="38.4" y="15.8" width="32.4" height="18.2" rx="16.4" fill="hsl(151, 70%, 62%)" fill-opacity="0.38"   transform="translate(36.8 6.0) rotate(252.3) scale(0.86 1.15)" />
<path d="M 56.5 36.4 C 54.7 27.4, 42.4 76.1, 52.4 74.8 C 64.2 76.4, 30.4 0.0, 30.8 5.1 C 38.6 0.8, 0.0 72.4, 8.7 69.6 " fill="none" fill-opacity="0.94" stroke="hsl(106, 75%, 59%)" stroke-width="1.29"  transform="translate(80.9 92.0) rotate(283.4) scale(0.55 0.84)" />
<rect x="7.2" y="30.9" width="31.3" height="15.7" rx="0" fill="none" fill-opacity="0.65"   transform="translate(74.9 21.1) rotate(267.9) scale(1.79 0.95)" />
<rect x="20.3" y="47.2" width="36.7" height="37.7" rx="0" fill="hsl(151, 70%, 62%)" fill-opacity="0.60"   transform="translate(78.6 84.5) rotate(77.4) scale(2.00 0.88)" />
<path d="M 14.0 68.1 C 19.1 61.8, 97.4 27.8, 93.0 28.2 C 73.8 44.5, 90.8 62.2, 76.0 60.4 C 71.1 47.8, 37.9 87.1, 37.6 98.6 C 18.2 100.0, 100.0 18.5, 88.6 7.8 C 100.0 0.0, 39.1 15.7, 46.8 3.4 C 36.5 1.1, 20.6 91.1, 11.1 76.6 " fill="hsl(151, 70%, 62%)" fill-opacity="0.66" stroke="none" stroke-width="1.09"   />
<path d="M 33.1 7.2 C 32.1 0.0, 73.3 35.6, 71.7 48.8 C 64.6 37.1, 68.3 10.2, 71.1 23.1 C 73.3 19.6, 59.6 3.2, 57.5 10.7 C 59.7 23.1, 4.1 98.2, 8.3 84.3 " fill="none" fill-opacity="0.61" stroke="hsl(83, 65%, 44%)" stroke-width="1.08"  transform="translate(47.7 97.7) rotate(83.7) scale(0.65 1.92)" />
<circle cx="16.8" cy="28.5" r="0.6" fill="hsl(2, 82%, 55%)" fill-opacity="0.77"   />
<rect x="41.1" y="16.7" width="20.9" height="30.6" rx="7.0" fill="hsl(144, 86%, 72%)" fill-opacity="0.29" stroke="hsl(40, 53%, 69%)" stroke-width="2.5"   />
<circle cx="17.7" cy="62.2" r="0.2" fill="hsl(183, 71%, 60%)" fill-opacity="0.68"  transform="translate(52.3 94.8) rotate(57.8) scale(1.92 1.33)" />
<circle cx="11.8" cy="92.5" r="0.9" fill="hsl(86, 72%, 68%)" fill-opacity="0.60"   />
<path d="M 88.5 8.3 C 78.7 0.0, 50.7 85.2, 65.7 98.1 C 60.9 100.0, 96.2 14.2, 91.1 22.6 C 100.0 25.1, 63.0 34.5, 76.0 37.1 C 86.6 27.4, 47.2 38.0, 40.6 45.0 Z" fill="hsl(106, 75%, 59%)" fill-opacity="0.97" stroke="none" stroke-width="1.19"   />
<path d="M 60.8 87.7 C 71.6 79.5, 32.0 39.9, 37.2 27.7 C 44.9 42.1, 15.6 17.8, 22.3 17.4 C 36.3 9.6, 70.2 75.8, 83.1 69.2 C 64.8 51.2, 27.3 100.0, 36.9 98.3 C 27.7 99.7, 78.6 65.7, 89.0 76.5 Z" fill="hsl(2, 82%, 55%)" fill-opacity="0.73" stroke="none" stroke-width="1.03"   />
<rect x="42.5" y="57.8" width="47.1" height="15.0" rx="0" fill="hsl(290, 83%, 63%)" fill-opacity="0.47"   transform="translate(85.0 5.8) rotate(80.8) scale(0.87 1.82)" />
<path d="M 27.2 21.8 C 26.8 25.7, 11.5 85.6, 3.5 76.2 C 0.0 86.0, 100.0 32.1, 97.8 45.5 C 100.0 53.7, 63.1 26.4, 55.9 22.8 C 48.5 4.1, 7.4 54.2, 18.8 63.6 C 31.0 47.2, 60.6 66.0, 59.9 60.0 Z" fill="hsl(183, 71%, 60%)" fill-opacity="0.97" stroke="none" stroke-width="1.01"  transform="translate(98.9 18.5) rotate(189.8) scale(1.83 1.34)" />
</svg>
