<?xml version="1.0" encoding="UTF-8"?>
<svg xmlns="http://www.w3.org/2000/svg" width="100" height="100" viewBox="0 0 100 100">
<defs>
<linearGradient id="g0" x1="0%" y1="0%" x2="100%" y2="100%">
<stop offset="0.0%" stop-color="hsl(106, 75%, 59%)" />
<stop offset="33.3%" stop-color="hsl(183, 71%, 60%)" />
<stop offset="66.7%" stop-color="hsl(242, 72%, 49%)" />
<stop offset="100.0%" stop-color="hsl(322, 74%, 44%)" />
</linearGradient>
<linearGradient id="g1" x1="0%" y1="0%" x2="100%" y2="100%">
<stop offset="0.0%" stop-color="hsl(290, 83%, 63%)" />
<stop offset="33.3%" stop-color="hsl(2, 82%, 55%)" />
<stop offset="66.7%" stop-color="hsl(86, 72%, 68%)" />
<stop offset="100.0%" stop-color="hsl(83, 65%, 44%)" />
</linearGradient>
<linearGradient id="g2" x1="0%" y1="0%" x2="100%" y2="100%">
<stop offset="0.0%" stop-color="hsl(40, 53%, 69%)" />
<stop offset="33.3%" stop-color="hsl(104, 72%, 65%)" />
<stop offset="66.7%" stop-color="hsl(144, 86%, 72%)" />
<stop offset="100.0%" stop-color="hsl(151, 70%, 62%)" />
</linearGradient>
<filter id="f1" x="-20%" y="-20%" width="140%" height="140%">
  <feGaussianBlur stdDeviation="0.7058644362863895" />
</filter>

</defs>

<rect x="55.9" y="50.2" width="22.8" height="25.8" rx="6.5" fill="hsl(144, 86%, 72%)" fill-opacity="0.35"   transform="translate(80.3 76.7) rotate(36.8) scale(1.95 0.89)" />
<path d="M 29.4 21.0 C 46.1 15.5, 96.4 51.1, 94.8 49.8 C 95.9 49.0, 85.2 65.7, 79.3 65.9 C 94.8 47.2, 69.7 94.4, 64.0 97.9 C 66.7 100.0, 76.1 6.9, 88.3 8.4 C 83.1 8.9, 49.9 85.0, 54.7 92.6 C 35.0 100.0, 58.4 58.7, 71.2 72.7 C 67.8 57.0, 26.1 30.4, 30.7 32.2 Z" fill="none" fill-opacity="0.43" stroke="hsl(2, 82%, 55%)" stroke-width="1.68"  transform="translate(13.0 34.3) rotate(147.2) scale(1.62 0.66)" />
<path d="M 81.4 48.6 C 81.2 38.7, 44.3 64.9, 31.1 60.0 C 35.3 67.5, 12.6 80.2, 9.8 68.5 C 21.7 68.9, 63.9 76.0, 57.1 76.4 C 48.3 58.8, 2.2 61.8, 2.9 47.6 C 10.1 50.0, 4.1 53.9, 12.4 53.0 C 5.3 38.8, 14.4 18.8, 11.5 29.1 Z" fill="none" fill-opacity="0.86" stroke="hsl(183, 71%, 60%)" stroke-width="4.68"  transform="translate(61.9 22.3) rotate(189.3) scale(1.03 1.59)" />
<circle cx="16.5" cy="19.9" r="10.7" fill="url(#g0)" fill-opacity="0.85"  transform="translate(53.2 57.3) rotate(268.1) scale(1.62 0.87)" />
<path d="M 35.0 16.4 C 44.9 13.8, 100.0 69.8, 93.5 56.8 C 75.8 71.2, 59.8 36.0, 61.3 42.7 C 45.5 49.0, 15.8 34.6, 4.1 39.2 C 3.6 41.3, 66.8 63.7, 80.3 75.2 C 81.1 94.3, 93.8 70.2, 91.8 79.7 C 90.3 87.4, 12.7 52.5, 11.1 62.5 C 11.5 42.9, 4.2 74.0, 15.4 79.9 C 8.0 71.2, 0.0 54.5, 3.9 59.9 C 2.7 78.0, 12.0 94.0, 26.9 89.4 C 9.9 97.4, 28.4 8.7, 42.7 16.2 Z" fill="hsl(322, 74%, 44%)" fill-opacity="0.35" stroke="none" stroke-width="4.63"   />
<rect x="6.9" y="70.4" width="49.9" height="10.4" rx="7.1" fill="none" fill-opacity="0.20"   transform="translate(83.8 5.8) rotate(218.9) scale(1.44 0.94)" />
<rect x="23.2" y="44.8" width="27.9" height="36.1" rx="0" fill="hsl(290, 83%, 63%)" fill-opacity="0.58" stroke="hsl(83, 65%, 44%)" stroke-width="2.5" filter="url(#f1)" transform="translate(36.2 68.2) rotate(336.9) scale(1.52 1.99)" />
<circle cx="7.6" cy="15.9" r="9.0" fill="hsl(242, 72%, 49%)" fill-opacity="0.42"   />
<circle cx="50.7" cy="40.1" r="0.4" fill="hsl(242, 72%, 49%)" fill-opacity="0.61"   />
<path d="M 11.4 26.1 C 12.7 29.6, 54.5 92.4, 44.6 88.0 C 28.1 100.0, 39.8 34.0, 45.9 46.7 C 42.6 41.3, 74.7 46.6, 79.8 55.2 C 90.5 62.9, 67.8 38.7, 55.9 35.6 C 72.3 31.9, 8.4 22.7, 10.8 36.1 C 23.9 43.9, 89.6 7.4, 93.1 17.8 C 80.8 8.5, 20.4 82.4, 32.0 67.7 C 12.8 71.3, 48.8 34.5, 38.0 19.7 C 36.5 7.6, 89.0 0.0, 95.2 12.2 Z" fill="none" fill-opacity="0.98" stroke="hsl(86, 72%, 68%)" stroke-width="2.77"  transform="translate(5.3 30.8) rotate(55.7) scale(0.77 1.85)" />
<circle cx="21.0" cy="79.9" r="5.9" fill="url(#g0)" fill-opacity="0.94"  transform="translate(11.1 92.7) rotate(71.2) scale(1.68 1.55)" />
<path d="M 26.9 28.5 C 36.9 10.2, 64.4 51.0, 53.5 39.5 C 34.7 33.4, 30.1 100.0, 36.4 91.0 C 36.3 88.2, 16.9 30.1, 2.3 44.6 C 0.0 37.5, 53.2 93.0, 61.6 88.1 C 45.2 100.0, 95.3 66.8, 87.8 81.3 C 86.1 93.3, 81.5 55.1, 76.9 51.5 C 88.2 62.2, 47.8 88.2, 59.4 75.7 C 50.3 87.0, 15.7 33.5, 18.7 47.1 C 25.7 36.7, 100.0 44.5, 91.4 40.1 Z" fill="hsl(242, 72%, 49%)" fill-opacity="0.53" stroke="none" stroke-width="1.60"  transform="translate(0.7 13.1) rotate(355.9) scale(1.32 0.57)" />
<rect x="51.3" y="68.2" width="24.8" height="16.0" rx="16.7" fill="none" fill-opacity="0.83"  filter="url(#f1)" transform="translate(64.0 60.9) rotate(163.5) scale(0.76 0.77)" />
<path d="M 65.5 85.7 C 52.8 94.7, 100.0 46.0, 96.6 56.6 C 100.0 55.5, 20.8 76.7, 15.4 86.4 C 0.0 88.1, 4.3 68.1, 5.9 79.7 C 0.0 88.0, 54.4 62.7, 42.8 77.3 C 61.1 85.6, 57.9 56.5, 71.4 64.3 C 60.9 58.8, 64.9 1.5, 64.9 15.4 C 70.7 21.3, 0.0 12.4, 2.5 3.7 C 0.0 0.6, 100.0 69.8, 99.0 68.5 C 88.5 85.8, 35.0 91.1, 20.6 89.8 Z" fill="hsl(242, 72%, 49%)" fill-opacity="0.73" stroke="none" stroke-width="2.22"   />
<path d="M 97.6 88.3 C 98.7 95.5, 27.8 69.7, 39.1 57.9 C 25.3 43.5, 43.1 72.4, 30.3 62.2 C 21.5 69.0, 29.0 51.4, 18.9 38.2 C 19.7 55.9, 49.8 76.9, 57.1 67.6 C 68.2 81.2, 90.1 30.7, 95.2 41.5 C 86.0 52.7, 64.0 100.0, 76.5 94.1 C 80.9 75.3, 19.2 78.5, 19.6 78.6 C 39.2 69.3, 41.1 78.3, 45.2 87.2 C 48.5 97.2, 97.2 14.3, 97.2 24.3 Z" fill="none" fill-opacity="0.51" stroke="hsl(83, 65%, 44%)" stroke-width="2.81"  transform="translate(64.3 38.4) rotate(189.4) scale(1.33 1.88)" />
<path d="M 24.6 68.3 C 17.1 70.4, 57.7 37.9, 69.3 24.5 C 79.4 20.2, 44.2 90.9, 35.6 96.0 C 47.1 100.0, 35.7 100.0, 27.8 88.2 C 27.9 68.5, 83.2 75.5, 84.1 84.7 C 100.0 73.8, 59.4 8.2, 73.5 1.0 C 57.8 0.0, 88.9 50.6, 81.3 45.4 C 98.0 53.7, 92.1 17.6, 83.7 27.1 C 80.1 41.4, 4.6 1.1, 16.4 8.0 C 31.3 0.0, 33.4 93.8, 36.6 98.5 C 44.1 80.9, 24.3 47.8, 11.4 33.5 Z" fill="none" fill-opacity="0.50" stroke="hsl(106, 75%, 59%)" stroke-width="1.74"  transform="translate(44.7 78.0) rotate(209.2) scale(1.28 1.73)" />
<circle cx="18.0" cy="68.6" r="11.8" fill="url(#g0)" fill-opacity="0.74"   />
<rect x="13.7" y="26.5" width="44.0" height="32.0" rx="0" fill="hsl(151, 70%, 62%)" fill-opacity="0.70"   transform="translate(89.2 79.1) rotate(229.2) scale(1.50 1.59)" />
<path d="M 82.4 91.3 C 75.2 74.7, 67.2 100.0, 80.5 97.1 C 92.4 91.4, 54.3 47.9, 68.9 42.5 C 55.3 55.9, 15.3 40.5, 2.5 51.6 C 0.0 56.3, 33.0 82.4, 39.0 90.4 C 51.0 89.4, 61.5 44.7, 58.2 35.3 C 53.6 39.1, 68.1 17.0, 76.9 13.3 C 66.1 29.8, 0.0 66.0, 0.6 73.0 C 5.8 57.3, 10.0 77.1, 5.3 65.9 C 22.4 63.1, 9.5 35.4, 22.0 27.3 Z" fill="none" fill-opacity="0.27" stroke="hsl(2, 82%, 55%)" stroke-width="1.03"  transform="translate(61.4 22.5) rotate(141.6) scale(1.17 1.55)" />
<rect x="21.6" y="7.3" width="46.1" height="39.2" rx="0" fill="none" fill-opacity="0.76" stroke="hsl(40, 53%, 69%)" stroke-width="2.1"  transform="translate(27.6 79.4) rotate(307.9) scale(0.77 1.30)" />
<rect x="59.9" y="38.9" width="27.6" height="14.2" rx="0" fill="hsl(151, 70%, 62%)" fill-opacity="0.80"   transform="translate(9.4 39.4) rotate(35.3) scale(1.85 0.62)" />
<circle cx="9.9" cy="49.9" r="0.8" fill="url(#g1)" fill-opacity="0.67" filter="url(#f1)" transform="translate(40.1 26.9) rotate(124.8) scale(1.10 1.51)" />
<path d="M 33.2 86.5 C 14.7 93.2, 7.2 41.2, 7.7 34.4 C 3.3 36.6, 16.6 55.0, 29.5 69.1 C 38.5 81.0, 87.4 78.7, 98.4 70.7 C 98.9 90.2, 0.0 69.9, 5.0 56.2 C 0.0 52.5, 19.7 48.6, 6.1 61.0 C 4.3 76.2, 82.6 1.6, 91.0 11.8 C 100.0 19.4, 0.0 27.4, 3.1 16.3 C 7.0 0.0, 10.1 100.0, 4.4 92.4 C 15.5 92.9, 63.1 15.7, 75.4 23.9 " fill="none" fill-opacity="0.77" stroke="hsl(144, 86%, 72%)" stroke-width="2.58"  transform="translate(86.8 52.2) rotate(40.1) scale(1.44 1.19)" />
<rect x="52.1" y="70.6" width="38.5" height="13.0" rx="0" fill="none" fill-opacity="0.50"   transform="translate(81.1 83.6) rotate(199.4) scale(1.37 0.77)" />
<rect x="55.1" y="59.6" width="41.0" height="33.2" rx="19.2" fill="hsl(2, 82%, 55%)" fill-opacity="0.26"   transform="translate(7.9 44.5) rotate(178.6) scale(1.00 1.74)" />
<path d="M 34.4 91.5 C 28.8 83.8, 51.0 45.3, 42.4 42.7 C 31.8 51.0, 66.1 58.7, 56.1 57.3 C 50.2 54.5, 12.8 6.7, 12.5 11.6 C 11.3 0.6, 28.5 42.1, 31.1 44.8 C 14.5 57.2, 88.5 76.6, 75.2 66.0 C 91.1 51.4, 15.0 100.0, 6.6 92.7 C 0.0 77.7, 66.3 64.6, 67.6 72.0 C 87.6 56.1, 0.0 44.7, 1.1 36.7 C 0.0 36.4, 18.8 30.3, 19.0 42.2 Z" fill="none" fill-opacity="0.82" stroke="hsl(151, 70%, 62%)" stroke-width="4.17"  transform="translate(65.8 26.4) rotate(167.2) scale(1.84 1.99)" />
<path d="M 55.2 57.5 C 37.3 50.1, 86.3 41.7, 93.2 39.2 C 88.5 23.6, 52.8 61.4, 48.7 58.5 C 57.7 42.4, 79.3 49.3, 90.0 40.6 C 76.6 46.2, 28.5 38.2, 23.7 24.2 C 18.3 26.2, 67.6 63.6, 79.3 49.9 C 61.2 47.3, 42.5 63.0, 57.4 69.3 C 40.8 66.3, 0.0 80.0, 1.8 79.0 C 0.0 72.7, 16.2 16.9, 3.6 18.2 C 0.0 18.1, 36.3 78.3, 21.4 72.0 " fill="hsl(106, 75%, 59%)" fill-opacity="0.46" stroke="none" stroke-width="2.41"  transform="translate(43.5 74.0) rotate(129.9) scale(0.90 1.14)" />
<path d="M 73.8 87.9 C 80.9 75.9, 44.7 32.5, 45.1 29.0 C 55.5 33.7, 47.7 67.3, 53.9 60.8 C 56.1 57.0, 100.0 49.1, 97.6 39.1 C 100.0 52.3, 88.4 20.2, 75.9 21.9 C 89.9 10.1, 42.9 96.4, 43.3 97.7 C 30.5 100.0, 30.8 57.4, 18.7 71.0 C 36.3 70.3, 31.4 28.4, 35.1 38.7 C 43.2 47.7, 67.4 9.8, 58.3 0.3 Z" fill="hsl(183, 71%, 60%)" fill-opacity="0.67" stroke="none" stroke-width="1.78"  transform="translate(30.9 74.8) rotate(223.5) scale(1.16 1.19)" />
<path d="M 67.4 59.0 C 73.1 67.2, 0.9 31.9, 15.3 43.7 C 2.8 27.5, 18.8 0.0, 24.6 2.2 C 37.2 19.9, 40.6 34.4, 54.4 47.3 C 42.9 53.7, 34.7 100.0, 41.8 91.9 C 23.9 75.6, 36.0 61.1, 50.4 62.7 C 66.3 55.7, 97.2 40.0, 91.7 30.4 C 80.2 17.5, 34.4 37.2, 33.6 31.7 C 42.2 25.9, 49.8 14.4, 42.5 14.4 C 43.8 22.7, 32.4 92.4, 23.1 85.3 C 5.1 66.8, 64.8 6.2, 64.0 17.9 Z" fill="hsl(104, 72%, 65%)" fill-opacity="0.51" stroke="none" stroke-width="3.46"  transform="translate(45.2 6.5) rotate(211.4) scale(1.58 1.04)" />
<rect x="45.6" y="8.3" width="23.1" height="33.6" rx="0" fill="none" fill-opacity="0.30"   transform="translate(60.7 24.5) rotate(58.3) scale(1.77 1.50)" />
<rect x="14.2" y="53.3" width="48.8" height="38.4" rx="2.7" fill="none" fill-opacity="0.63" stroke="hsl(2, 82%, 55%)" stroke-width="1.7"  transform="translate(95.2 60.4) rotate(195.9) scale(0.62 1.48)" />
<path d="M 37.2 54.5 C 23.3 61.4, 64.5 84.5, 51.1 96.3 C 62.7 100.0, 16.7 18.3, 20.5 30.0 C 10.9 30.5, 9.9 35.0, 11.0 41.3 C 6.6 58.3, 90.9 56.2, 90.3 66.1 C 75.5 80.1, 57.0 18.5, 50.1 24.2 C 30.3 6.8, 71.8 77.4, 65.4 79.1 Z" fill="hsl(104, 72%, 65%)" fill-opacity="0.65" stroke="none" stroke-width="1.86" filter="url(#f1)" transform="translate(97.7 37.6) rotate(178.9) scale(1.66 1.56)" />
<rect x="48.4" y="77.1" width="28.9" height="13.3" rx="11.3" fill="hsl(40, 53%, 69%)" fill-opacity="0.98"  filter="url(#f1)" transform="translate(35.3 16.0) rotate(298.5) scale(1.88 1.46)" />
<rect x="44.0" y="34.6" width="26.5" height="38.9" rx="0" fill="none" fill-opacity="0.43"   transform="translate(96.1 72.4) rotate(249.0) scale(1.89 1.18)" />
<path d="M 29.2 1.7 C 30.5 0.0, 66.9 40.8, 60.6 26.8 C 62.2 41.0, 51.8 19.0, 44.8 16.2 C 59.4 23.6, 61.6 88.7, 66.6 95.8 C 76.7 78.3, 80.0 42.9, 83.4 55.0 C 94.7 59.8, 36.9 51.8, 34.0 61.7 C 44.4 64.9, 14.5 66.5, 23.5 54.7 C 13.6 59.4, 78.2 0.0, 82.0 6.5 C 62.9 20.6, 72.3 49.8, 61.2 51.2 C 59.5 56.2, 27.4 8.0, 13.4 18.6 C 0.0 32.8, 19.5 63.7, 28.3 67.8 Z" fill="hsl(322, 74%, 44%)" fill-opacity="0.76" stroke="none" stroke-width="1.15"  transform="translate(95.8 70.2) rotate(135.5) scale(1.27 1.70)" />
<circle cx="90.0" cy="57.2" r="13.3" fill="hsl(104, 72%, 65%)" fill-opacity="0.72" filter="url(#f1)" transform="translate(5.4 4.5) rotate(107.1) scale(1.65 0.88)" />
<path d="M 2.1 68.3 C 0.0 49.3, 76.0 100.0, 87.2 99.0 C 95.7 98.2, 47.0 39.7, 35.6 27.2 C 39.8 46.1, 100.0 67.9, 90.1 68.1 C 100.0 65.4, 65.5 54.8, 51.3 49.0 C 34.5 64.1, 42.5 17.7, 39.0 29.7 C 48.1 42.2, 0.0 81.0, 8.5 68.4 Z" fill="none" fill-opacity="0.35" stroke="hsl(322, 74%, 44%)" stroke-width="3.43"  transform="translate(99.1 16.0) rotate(71.8) scale(1.07 1.14)" />
<rect x="17.2" y="64.2" width="43.3" height="31.0" rx="0" fill="none" fill-opacity="0.79"   transform="translate(36.5 84.7) rotate(185.3) scale(1.94 1.76)" />
<path d="M 86.2 13.2 C 88.5 22.6, 76.0 57.7, 62.9 64.8 C 57.0 65.7, 38.8 51.4, 25.7 53.0 C 42.3 53.0, 0.0 42.1, 1.3 55.6 C 0.0 38.9, 17.7 55.4, 11.9 59.3 C 18.6 74.9, 61.2 55.3, 67.1 65.4 C 64.8 65.3, 5.0 96.9, 15.1 87.9 C 3.9 88.9, 79.8 65.4, 88.4 65.5 Z" fill="hsl(86, 72%, 68%)" fill-opacity="0.28" stroke="none" stroke-width="1.42"  transform="translate(99.2 44.9) rotate(161.4) scale(0.83 0.93)" />
<rect x="11.6" y="3.5" width="46.6" height="17.1" rx="15.4" fill="hsl(242, 72%, 49%)" fill-opacity="0.54"   transform="translate(49.6 44.6) rotate(42.7) scale(0.57 1.45)" />
<path d="M 39.0 16.4 C 25.7 31.2, 74.4 19.4, 87.9 20.2 C 81.4 5.2, 78.8 27.9, 86.0 37.9 C 100.0 52.7, 44.7 25.2, 38.4 36.1 C 36.7 21.7, 47.6 18.5, 44.5 3.8 C 62.4 21.9, 0.0 68.6, 6.9 62.1 C 0.0 61.1, 54.0 84.6, 53.9 77.7 Z" fill="hsl(290, 83%, 63%)" fill-opacity="0.34" stroke="none" stroke-width="4.86"  transform="translate(62.5 82.8) rotate(36.5) scale(1.73 1.80)" />
<path d="M 95.2 26.3 C 100.0 34.3, 49.2 35.5, 43.4 35.9 C 24.4 33.7, 47.3 61.5, 47.0 55.5 C 61.8 52.7, 93.4 0.0, 87.8 1.4 C 78.4 0.0, 70.6 0.0, 72.5 0.8 C 57.0 0.0, 77.3 1.4, 68.1 9.8 C 62.7 0.0, 93.3 61.4, 81.0 60.5 C 85.3 59.9, 52.7 62.9, 47.6 74.3 Z" fill="hsl(106, 75%, 59%)" fill-opacity="0.28" stroke="none" stroke-width="4.22"  transform="translate(7.5 49.6) rotate(156.6) scale(0.58 1.08)" />
<circle cx="14.4" cy="60.0" r="0.2" fill="hsl(144, 86%, 72%)" fill-opacity="0.92" filter="url(#f1)" transform="translate(94.0 65.8) rotate(137.6) scale(0.84 0.79)" />
<path d="M 52.0 62.3 C 37.5 66.0, 26.8 29.8, 14.0 22.8 C 33.2 21.5, 67.1 73.5, 70.0 88.3 C 59.8 95.9, 29.0 73.9, 16.8 60.2 C 19.5 42.3, 13.8 48.4, 26.1 42.0 C 8.7 24.1, 77.9 80.5, 69.1 69.0 C 67.3 80.2, 69.2 100.0, 83.7 95.9 C 70.4 78.2, 85.0 4.7, 74.7 18.4 C 71.4 23.5, 58.2 85.2, 61.3 80.2 Z" fill="none" fill-opacity="0.40" stroke="hsl(242, 72%, 49%)" stroke-width="5.23"  transform="translate(16.6 28.0) rotate(123.9) scale(0.57 1.08)" />
<path d="M 10.2 68.2 C 16.0 75.5, 46.6 82.5, 31.8 78.5 C 41.1 94.0, 100.0 12.6, 96.2 10.8 C 100.0 0.0, 37.3 39.9, 27.0 38.0 C 36.3 55.8, 16.6 5.9, 7.3 13.2 C 0.0 10.2, 14.3 62.1, 7.3 66.8 C 19.2 86.2, 83.8 69.5, 95.9 80.8 C 100.0 95.6, 34.5 26.7, 31.3 36.6 Z" fill="hsl(86, 72%, 68%)" fill-opacity="0.89" stroke="none" stroke-width="2.63" filter="url(#f1)" transform="translate(19.0 15.0) rotate(214.5) scale(0.97 1.92)" />
<path d="M 58.1 12.5 C 68.8 23.6, 87.7 28.4, 82.0 33.2 C 65.9 30.2, 8.7 66.2, 14.3 74.3 C 0.6 55.5, 100.0 83.7, 94.9 79.5 C 74.9 62.2, 68.3 16.3, 54.0 25.1 C 63.8 28.1, 45.8 38.0, 48.7 28.9 C 56.4 35.3, 73.1 24.4, 64.6 17.7 C 62.0 33.9, 71.1 25.7, 60.1 16.4 Z" fill="none" fill-opacity="0.78" stroke="hsl(86, 72%, 68%)" stroke-width="2.03"  transform="translate(79.2 40.9) rotate(31.8) scale(1.56 1.77)" />
<path d="M 26.5 71.3 C 14.1 55.2, 31.8 78.2, 18.5 72.4 C 32.7 89.4, 31.2 100.0, 22.7 99.8 C 22.0 97.1, 69.3 87.5, 61.4 93.3 C 74.0 96.7, 64.2 26.7, 60.8 22.3 C 80.6 41.0, 33.7 91.1, 45.3 76.4 C 47.5 65.2, 0.0 63.7, 10.9 71.6 Z" fill="none" fill-opacity="0.69" stroke="hsl(151, 70%, 62%)" stroke-width="4.91" filter="url(#f1)" transform="translate(65.1 29.7) rotate(288.2) scale(0.66 0.65)" />
<path d="M 88.2 71.3 C 88.9 73.3, 71.2 25.6, 64.7 34.3 C 47.9 54.0, 75.2 73.3, 66.0 75.5 C 49.4 63.7, 73.3 38.9, 86.1 35.5 C 68.2 23.5, 41.4 30.7, 47.9 33.9 C 56.3 31.5, 77.5 16.9, 79.9 7.5 C 83.0 19.7, 20.9 96.4, 18.1 82.7 C 26.0 64.4, 87.8 61.8, 87.3 68.1 C 100.0 86.0, 48.0 34.5, 58.1 36.4 C 74.8 28.3, 95.8 78.7, 88.1 90.5 Z" fill="hsl(144, 86%, 72%)" fill-opacity="0.52" stroke="none" stroke-width="5.18"  transform="translate(24.8 15.3) rotate(138.7) scale(1.68 0.81)" />
<rect x="22.0" y="63.7" width="30.0" height="31.5" rx="0" fill="hsl(104, 72%, 65%)" fill-opacity="0.94"   transform="translate(81.2 53.3) rotate(207.8) scale(0.64 0.80)" />
<rect x="43.1" y="56.3" width="24.7" height="20.9" rx="14.0" fill="none" fill-opacity="0.56"  filter="url(#f1)" transform="translate(92.7 79.3) rotate(168.5) scale(1.08 1.10)" />
<rect x="67.1" y="47.8" width="20.6" height="39.8" rx="18.8" fill="hsl(322, 74%, 44%)" fill-opacity="0.64" stroke="hsl(183, 71%, 60%)" stroke-width="4.4" filter="url(#f1)" transform="translate(59.9 87.6) rotate(272.0) scale(1.79 1.76)" />
<path d="M 78.1 83.7 C 71.3 76.7, 6.3 37.1, 11.0 29.6 C 24.2 30.9, 3.5 23.5, 10.4 22.5 C 17.7 35.2, 58.8 11.9, 47.7 4.4 C 55.9 0.0, 91.0 61.6, 76.9 68.9 C 92.4 54.0, 34.0 63.0, 34.3 75.5 C 39.6 70.2, 51.2 77.2, 47.5 82.1 C 38.3 76.8, 25.4 24.3, 25.2 39.1 C 36.7 43.8, 52.4 42.1, 45.6 37.5 C 38.6 32.6, 89.3 37.3, 80.9 35.8 Z" fill="hsl(40, 53%, 69%)" fill-opacity="0.79" stroke="none" stroke-width="1.09"  transform="translate(42.9 95.0) rotate(279.0) scale(0.92 1.95)" />
<path d="M 25.3 40.8 C 22.6 37.9, 77.8 100.0, 82.0 93.1 C 80.2 83.1, 15.4 17.7, 6.5 22.6 C 13.2 19.5, 39.4 63.9, 40.7 65.7 C 42.2 68.9, 53.4 63.3, 43.2 56.0 C 39.4 45.1, 63.9 0.0, 54.2 5.8 C 40.3 23.9, 84.8 21.1, 85.1 31.5 C 88.3 43.3, 62.4 9.2, 62.4 20.8 Z" fill="hsl(151, 70%, 62%)" fill-opacity="0.41" stroke="none" stroke-width="1.55"  transform="translate(9.8 39.1) rotate(352.0) scale(1.59 1.09)" />
<path d="M 35.4 62.5 C 25.4 75.3, 44.0 85.4, 51.5 92.1 C 57.8 80.6, 17.6 22.4, 21.6 25.6 C 23.6 40.4, 16.5 31.8, 30.1 35.0 C 14.4 36.7, 38.8 65.0, 39.4 65.0 C 35.3 64.1, 10.0 70.1, 14.1 74.7 C 21.8 92.4, 54.8 91.2, 56.4 82.3 C 73.5 83.0, 0.0 82.5, 2.0 84.3 C 0.0 95.1, 22.0 97.8, 19.4 95.1 C 24.4 79.8, 12.8 11.8, 4.7 25.2 Z" fill="none" fill-opacity="0.72" stroke="hsl(86, 72%, 68%)" stroke-width="4.61"  transform="translate(18.4 83.0) rotate(50.9) scale(1.17 1.34)" />
<path d="M 14.3 55.5 C 6.6 67.0, 4.4 39.5, 18.9 28.4 C 12.4 12.1, 23.7 66.1, 36.3 63.3 C 22.6 69.3, 92.8 10.5, 93.7 20.2 C 100.0 20.9, 21.5 56.7, 16.0 67.2 C 24.2 56.1, 87.6 60.8, 81.5 51.0 C 85.2 55.1, 35.0 100.0, 20.2 95.3 C 22.7 100.0, 16.5 12.0, 18.6 25.1 C 27.5 38.4, 100.0 33.8, 94.7 23.2 Z" fill="hsl(151, 70%, 62%)" fill-opacity="0.62" stroke="none" stroke-width="1.79"  transform="translate(89.3 26.3) rotate(214.6) scale(1.10 1.95)" />
<path d="M 11.1 42.2 C 4.0 59.0, 81.5 37.3, 66.6 44.1 C 48.7 59.5, 98.6 99.5, 85.3 93.7 C 86.1 77.5, 21.2 43.1, 24.3 50.4 C 25.0 41.6, 0.0 31.0, 7.3 32.7 C 25.3 50.9, 80.0 23.4, 82.2 13.5 C 75.2 0.3, 89.8 24.1, 86.0 29.0 C 89.4 24.4, 29.0 86.8, 20.3 87.8 C 15.8 69.0, 57.4 61.6, 54.3 49.0 C 36.7 67.7, 71.5 0.9, 67.9 7.2 Z" fill="none" fill-opacity="0.70" stroke="hsl(183, 71%, 60%)" stroke-width="4.24"  transform="translate(50.9 15.5) rotate(80.0) scale(0.50 1.23)" />
<path d="M 97.4 53.2 C 95.6 42.6, 97.3 84.0, 83.6 69.4 C 93.4 57.5, 46.3 29.3, 59.8 28.5 C 71.9 11.1, 80.7 21.7, 95.0 20.9 C 78.9 38.9, 48.1 39.1, 45.0 44.5 C 37.1 26.3, 92.0 38.9, 95.5 27.6 C 100.0 15.1, 65.2 79.1, 53.8 75.4 C 54.9 90.4, 82.9 0.4, 96.2 5.2 C 100.0 0.0, 40.6 62.5, 34.1 73.6 C 23.9 59.5, 69.3 93.5, 70.1 97.9 Z" fill="hsl(2, 82%, 55%)" fill-opacity="0.97" stroke="none" stroke-width="2.55"  transform="translate(34.3 50.9) rotate(118.3) scale(0.92 1.38)" />
<circle cx="97.8" cy="71.8" r="3.3" fill="url(#g0)" fill-opacity="0.67"  transform="translate(99.4 53.1) rotate(274.9) scale(1.26 0.51)" />
<rect x="12.4" y="74.8" width="47.7" height="13.4" rx="1.5" fill="none" fill-opacity="0.60"   transform="translate(99.4 2.6) rotate(259.1) scale(0.93 1.29)" />
<path d="M 75.8 66.9 C 86.2 83.0, 40.8 43.5, 32.6 28.7 C 27.8 15.5, 32.6 89.9, 31.6 78.4 C 46.5 97.8, 47.7 49.7, 38.6 48.4 C 44.9 59.3, 87.6 90.6, 79.7 93.7 C 79.8 79.9, 20.4 94.9, 7.2 91.0 C 0.0 89.2, 89.0 100.0, 76.0 93.4 Z" fill="hsl(144, 86%, 72%)" fill-opacity="0.49" stroke="none" stroke-width="1.91"  transform="translate(74.4 91.0) rotate(268.7) scale(0.91 0.93)" />
<circle cx="2.7" cy="62.0" r="2.5" fill="url(#g2)" fill-opacity="0.92"  transform="translate(17.2 8.2) rotate(84.1) scale(1.15 1.62)" />
<circle cx="89.8" cy="41.9" r="2.0" fill="url(#g0)" fill-opacity="1.00"  transform="translate(71.8 45.7) rotate(134.8) scale(1.68 1.01)" />
<path d="M 68.3 9.3 C 81.2 19.3, 0.0 0.0, 0.2 0.9 C 0.0 0.0, 78.0 14.1, 66.7 10.3 C 76.7 29.9, 40.7 97.9, 29.8 88.1 C 41.9 70.4, 56.2 99.7, 60.2 98.5 C 75.9 100.0, 3.4 38.6, 12.7 47.8 C 18.0 64.0, 26.3 83.5, 22.7 79.5 C 26.5 93.4, 72.3 100.0, 59.3 98.8 C 73.0 100.0, 60.3 70.3, 61.6 83.6 C 66.2 100.0, 30.6 27.0, 23.0 18.1 " fill="none" fill-opacity="0.88" stroke="hsl(83, 65%, 44%)" stroke-width="2.16"  transform="translate(50.5 94.6) rotate(82.2) scale(0.76 0.95)" />
<path d="M 63.9 99.2 C 63.8 100.0, 19.7 26.0, 31.2 14.7 C 11.6 10.2, 97.7 59.9, 98.6 64.1 C 100.0 75.3, 100.0 32.1, 92.2 38.4 C 82.3 57.2, 75.9 63.6, 76.9 54.2 C 68.8 69.1, 96.8 100.0, 99.1 91.4 C 100.0 94.2, 77.1 16.0, 77.4 3.0 C 90.6 18.3, 66.9 7.1, 58.9 4.2 C 55.1 2.0, 83.1 27.3, 75.8 18.5 C 65.5 24.5, 34.3 18.8, 38.9 21.0 Z" fill="hsl(242, 72%, 49%)" fill-opacity="0.85" stroke="none" stroke-width="2.84"  transform="translate(41.8 23.9) rotate(334.8) scale(0.81 0.54)" />
<circle cx="79.1" cy="6.3" r="2.8" fill="url(#g2)" fill-opacity="0.41"  transform="translate(32.9 38.8) rotate(72.8) scale(0.78 1.39)" />
<circle cx="30.4" cy="59.7" r="5.0" fill="hsl(290, 83%, 63%)" fill-opacity="0.41"  transform="translate(51.2 7.9) rotate(109.1) scale(0.83 0.94)" />
<path d="M 17.6 47.8 C 22.7 60.3, 64.5 48.5, 70.0 44.3 C 66.1 34.2, 16.1 9.4, 25.6 5.8 C 14.6 0.0, 15.1 100.0, 17.8 93.7 C 23.8 82.9, 81.4 51.3, 67.0 45.2 C 64.7 37.3, 72.6 0.0, 75.6 2.0 C 61.1 5.4, 44.4 45.5, 37.0 45.2 C 28.3 62.9, 71.3 25.0, 80.1 10.7 C 85.6 5.9, 0.0 49.6, 3.9 53.9 Z" fill="none" fill-opacity="0.36" stroke="hsl(2, 82%, 55%)" stroke-width="4.41"  transform="translate(19.0 0.0) rotate(319.4) scale(0.79 1.31)" />
<circle cx="2.9" cy="16.7" r="9.5" fill="hsl(106, 75%, 59%)" fill-opacity="0.60"  transform="translate(99.9 9.4) rotate(343.9) scale(1.21 1.33)" />
<path d="M 31.2 27.5 C 23.4 8.9, 40.0 97.6, 51.3 85.7 C 42.8 66.9, 3.8 69.6, 0.1 61.6 C 8.2 60.5, 87.0 62.1, 83.6 71.4 C 87.5 60.9, 98.6 50.0, 86.0 57.8 C 72.9 40.2, 57.7 1.2, 44.1 14.7 C 46.2 27.6, 29.7 89.4, 21.2 84.6 C 9.6 93.9, 45.1 88.6, 39.0 75.6 C 43.1 60.0, 4.1 0.0, 0.9 5.8 C 14.0 21.8, 30.7 82.2, 19.4 72.5 C 30.5 69.3, 51.7 44.4, 57.3 53.4 Z" fill="hsl(83, 65%, 44%)" fill-opacity="0.41" stroke="none" stroke-width="2.43"  transform="translate(94.3 49.1) rotate(48.1) scale(0.93 1.18)" />
<path d="M 33.3 71.4 C 42.2 75.6, 43.0 18.5, 56.9 30.2 C 64.4 45.9, 30.0 95.3, 37.1 86.7 C 38.6 70.4, 24.9 14.8, 31.6 0.5 C 27.0 0.0, 100.0 10.7, 97.8 14.4 C 100.0 22.5, 0.0 76.1, 4.2 73.3 C 10.6 82.6, 58.1 18.2, 49.3 23.4 C 46.8 21.5, 17.1 62.4, 32.1 49.3 C 25.8 64.3, 16.7 96.0, 23.1 83.5 C 41.9 75.4, 42.0 58.3, 55.7 56.1 C 60.8 42.0, 33.8 33.2, 34.3 21.4 Z" fill="none" fill-opacity="0.44" stroke="hsl(242, 72%, 49%)" stroke-width="4.47"  transform="translate(75.8 68.7) rotate(335.9) scale(1.20 1.50)" />
<path d="M 4.0 39.5 C 0.0 20.9, 35.8 2.9, 33.3 12.2 C 49.3 9.0, 65.8 72.3, 66.0 68.1 C 54.7 78.0, 13.0 9.8, 1.2 14.8 C 0.0 24.6, 40.1 37.2, 45.1 46.9 C 39.9 38.2, 17.0 100.0, 3.5 95.0 C 0.0 85.1, 73.5 25.4, 63.7 35.0 C 55.8 46.3, 83.9 49.4, 83.7 57.7 C 93.1 54.1, 10.5 78.1, 5.0 87.7 C 0.0 74.0, 82.6 24.3, 78.3 20.5 C 61.2 18.5, 54.6 73.1, 48.4 67.2 Z" fill="hsl(322, 74%, 44%)" fill-opacity="0.46" stroke="none" stroke-width="1.43"  transform="translate(18.2 65.0) rotate(351.2) scale(1.82 0.51)" />
<rect x="15.0" y="41.5" width="40.2" height="17.3" rx="4.6" fill="none" fill-opacity="0.89" stroke="hsl(86, 72%, 68%)" stroke-width="4.9"   />
<g opacity="0.036">
<rect x="0" y="0" width="1" height="100" fill="black" />
<rect x="22" y="0" width="1" height="100" fill="black" />
<rect x="44" y="0" width="1" height="100" fill="black" />
<rect x="66" y="0" width="1" height="100" fill="black" />
<rect x="88" y="0" width="1" height="100" fill="black" />
<rect x="0" y="0" width="100" height="1" fill="black" />
<rect x="0" y="22" width="100" height="1" fill="black" />
<rect x="0" y="44" width="100" height="1" fill="black" />
<rect x="0" y="66" width="100" height="1" fill="black" />
<rect x="0" y="88" width="100" height="1" fill="black" />
</g>

</svg>
