<?xml version="1.0" encoding="UTF-8"?>
<svg xmlns="http://www.w3.org/2000/svg" width="100" height="100" viewBox="0 0 100 100">
<defs>
<linearGradient id="g0" x1="0%" y1="0%" x2="100%" y2="100%">
<stop offset="0.0%" stop-color="hsl(106, 75%, 59%)" />
<stop offset="33.3%" stop-color="hsl(183, 71%, 60%)" />
<stop offset="66.7%" stop-color="hsl(242, 72%, 49%)" />
<stop offset="100.0%" stop-color="hsl(322, 74%, 44%)" />
</linearGradient>
<linearGradient id="g1" x1="0%" y1="0%" x2="100%" y2="100%">
<stop offset="0.0%" stop-color="hsl(290, 83%, 63%)" />
<stop offset="33.3%" stop-color="hsl(2, 82%, 55%)" />
<stop offset="66.7%" stop-color="hsl(86, 72%, 68%)" />
<stop offset="100.0%" stop-color="hsl(83, 65%, 44%)" />
</linearGradient>
<linearGradient id="g2" x1="0%" y1="0%" x2="100%" y2="100%">
<stop offset="0.0%" stop-color="hsl(40, 53%, 69%)" />
<stop offset="33.3%" stop-color="hsl(104, 72%, 65%)" />
<stop offset="66.7%" stop-color="hsl(144, 86%, 72%)" />
<stop offset="100.0%" stop-color="hsl(151, 70%, 62%)" />
</linearGradient>
<filter id="f1" x="-20%" y="-20%" width="140%" height="140%">
  <feGaussianBlur stdDeviation="0.6800760466512583" />
</filter>

</defs>

<path d="M 29.4 64.6 C 13.4 67.6, 23.8 100.0, 27.8 98.8 C 20.0 95.8, 7.8 29.8, 17.6 40.9 C 15.2 34.8, 84.9 10.9, 77.5 13.0 C 67.9 23.6, 38.0 46.2, 23.6 51.3 C 19.7 48.2, 40.8 11.6, 51.4 12.5 C 56.3 1.2, 99.2 31.1, 97.0 24.5 Z" fill="hsl(322, 74%, 44%)" fill-opacity="0.38" stroke="none" stroke-width="1.18"   />
<circle cx="25.5" cy="96.2" r="5.5" fill="url(#g1)" fill-opacity="0.98" filter="url(#f1)" transform="translate(43.8 53.9) rotate(190.7) scale(1.38 1.06)" />
<path d="M 7.3 74.5 C 0.0 67.8, 28.0 38.5, 24.9 26.4 C 37.1 17.9, 72.6 83.7, 81.5 83.4 C 76.7 86.1, 34.1 61.8, 48.9 72.5 C 37.5 91.9, 53.9 74.3, 60.3 72.1 C 50.7 61.1, 92.2 78.2, 89.9 84.7 C 88.4 66.4, 0.9 41.6, 13.7 32.2 Z" fill="hsl(106, 75%, 59%)" fill-opacity="0.42" stroke="none" stroke-width="5.16"   />
<path d="M 60.1 17.4 C 58.3 14.8, 87.7 2.3, 84.4 11.7 C 71.5 21.0, 74.2 54.8, 65.1 41.0 C 67.9 21.8, 95.4 38.1, 84.5 27.4 C 86.1 11.6, 48.2 100.0, 37.0 97.6 C 30.8 87.0, 16.6 58.9, 20.8 56.4 C 22.5 57.6, 0.0 10.5, 2.5 6.7 C 11.3 0.0, 16.5 61.4, 23.0 47.3 C 31.9 47.4, 70.7 38.6, 55.8 41.9 C 55.2 47.4, 71.9 35.2, 63.6 20.8 Z" fill="none" fill-opacity="0.63" stroke="hsl(83, 65%, 44%)" stroke-width="5.04"  transform="translate(70.0 33.5) rotate(18.8) scale(1.17 0.76)" />
<circle cx="14.3" cy="44.5" r="3.4" fill="hsl(290, 83%, 63%)" fill-opacity="0.62" filter="url(#f1)" transform="translate(18.9 50.2) rotate(26.0) scale(1.47 0.83)" />
<path d="M 2.1 2.2 C 10.6 19.8, 23.8 76.8, 38.7 90.3 C 35.4 91.7, 55.5 99.3, 60.1 99.7 C 69.9 84.7, 85.2 17.3, 78.9 13.7 C 67.7 15.2, 0.0 79.0, 10.8 72.7 C 0.0 59.5, 52.8 26.4, 63.8 22.6 C 81.3 33.6, 9.4 54.3, 21.2 64.5 C 19.6 52.9, 52.3 99.3, 50.1 90.5 Z" fill="none" fill-opacity="0.90" stroke="hsl(2, 82%, 55%)" stroke-width="2.42"  transform="translate(55.2 41.7) rotate(249.7) scale(1.72 0.71)" />
<path d="M 85.3 12.7 C 71.1 31.8, 27.8 97.9, 16.1 93.1 C 4.5 78.0, 16.7 55.8, 26.8 51.5 C 18.2 52.7, 24.6 33.0, 32.8 28.2 C 31.6 14.2, 25.4 46.6, 27.1 48.0 C 40.9 33.6, 100.0 50.6, 95.6 64.3 C 100.0 60.5, 39.6 70.2, 28.3 72.7 C 34.1 61.0, 38.5 33.8, 41.7 47.9 C 40.7 31.1, 96.1 96.2, 95.6 87.2 C 100.0 68.5, 22.3 67.9, 21.8 78.7 C 34.4 90.3, 0.2 27.0, 3.5 26.4 " fill="hsl(83, 65%, 44%)" fill-opacity="0.68" stroke="none" stroke-width="1.69"   />
<circle cx="71.2" cy="34.6" r="15.7" fill="url(#g2)" fill-opacity="0.83" filter="url(#f1)" transform="translate(64.4 82.5) rotate(187.4) scale(1.22 0.57)" />
<rect x="41.4" y="31.9" width="22.8" height="34.2" rx="0" fill="none" fill-opacity="0.74" stroke="hsl(40, 53%, 69%)" stroke-width="3.0"  transform="translate(23.6 72.7) rotate(42.2) scale(1.38 1.13)" />
<path d="M 45.6 68.8 C 38.8 53.1, 48.4 56.9, 49.6 62.8 C 36.0 63.2, 69.5 25.6, 57.6 38.9 C 69.9 45.7, 39.4 10.6, 26.7 17.0 C 18.7 6.1, 14.5 100.0, 28.1 95.4 C 16.4 100.0, 56.0 3.8, 48.3 12.4 C 49.7 0.0, 53.9 30.5, 55.4 34.5 Z" fill="hsl(104, 72%, 65%)" fill-opacity="0.72" stroke="none" stroke-width="3.22" filter="url(#f1)" transform="translate(24.1 93.4) rotate(242.0) scale(1.30 0.88)" />
<path d="M 72.8 58.6 C 80.3 70.4, 0.0 0.0, 2.1 1.8 C 5.6 5.0, 96.9 76.4, 92.8 71.6 C 84.4 70.2, 55.3 15.8, 56.8 14.1 C 72.7 0.0, 14.1 13.8, 11.0 23.5 C 6.9 9.9, 47.2 81.9, 58.3 80.6 C 49.8 75.1, 97.8 83.6, 89.5 71.1 C 81.2 70.2, 54.9 94.5, 68.0 92.3 C 82.7 98.0, 71.9 70.8, 86.0 75.6 C 77.6 93.1, 67.6 39.8, 62.7 35.2 Z" fill="hsl(183, 71%, 60%)" fill-opacity="0.81" stroke="none" stroke-width="3.76"  transform="translate(43.2 75.3) rotate(260.4) scale(1.12 1.24)" />
<path d="M 62.2 12.5 C 81.5 5.9, 14.8 69.3, 13.1 54.3 C 8.3 69.0, 16.0 78.3, 28.9 77.4 C 42.3 86.2, 41.3 21.3, 38.7 13.1 C 33.9 25.7, 92.5 71.3, 98.3 78.9 C 99.9 75.9, 67.8 58.5, 80.5 55.5 C 76.9 49.8, 54.7 90.3, 40.1 85.3 C 46.4 82.3, 49.6 12.4, 45.4 7.8 Z" fill="hsl(322, 74%, 44%)" fill-opacity="0.66" stroke="none" stroke-width="1.01"  transform="translate(98.2 37.5) rotate(320.7) scale(1.45 1.47)" />
<rect x="29.6" y="26.4" width="29.3" height="25.1" rx="0" fill="none" fill-opacity="0.41" stroke="hsl(83, 65%, 44%)" stroke-width="1.3"  transform="translate(26.0 28.7) rotate(28.0) scale(1.68 1.40)" />
<path d="M 45.3 3.0 C 64.3 19.2, 84.0 11.0, 70.9 10.9 C 76.0 4.1, 19.0 66.0, 11.0 73.6 C 1.4 57.3, 34.0 17.7, 34.8 14.3 C 17.5 0.0, 23.1 0.0, 23.7 3.2 C 21.8 13.0, 100.0 65.2, 93.1 51.1 C 77.5 33.3, 37.9 98.6, 23.8 87.5 C 21.0 97.5, 50.4 35.8, 44.8 42.1 Z" fill="none" fill-opacity="0.85" stroke="hsl(290, 83%, 63%)" stroke-width="2.57"  transform="translate(42.5 89.7) rotate(92.9) scale(1.41 0.82)" />
<rect x="10.4" y="24.7" width="42.5" height="28.1" rx="9.2" fill="none" fill-opacity="0.39" stroke="hsl(183, 71%, 60%)" stroke-width="1.3" filter="url(#f1)" transform="translate(9.5 5.8) rotate(0.7) scale(1.28 1.88)" />
<circle cx="39.7" cy="67.2" r="9.8" fill="url(#g2)" fill-opacity="0.80"  transform="translate(87.9 86.3) rotate(271.0) scale(0.72 1.71)" />
<path d="M 57.2 34.9 C 67.4 30.2, 60.8 100.0, 67.7 99.1 C 52.8 96.0, 29.0 80.4, 40.5 81.0 C 21.9 95.0, 95.5 97.9, 86.6 96.2 C 100.0 100.0, 20.1 48.5, 15.9 41.5 C 4.6 55.3, 83.8 48.5, 73.6 58.0 C 53.9 48.2, 2.3 33.7, 6.6 37.4 C 0.0 44.0, 100.0 52.5, 91.0 59.4 Z" fill="none" fill-opacity="0.41" stroke="hsl(106, 75%, 59%)" stroke-width="2.02"  transform="translate(47.8 24.6) rotate(322.0) scale(1.66 0.89)" />
<path d="M 75.4 15.5 C 74.9 10.2, 53.4 51.9, 44.7 52.6 C 47.6 66.7, 37.4 38.4, 25.6 38.5 C 13.3 51.2, 63.2 36.1, 53.9 34.7 C 54.7 40.7, 27.2 61.8, 29.9 73.0 C 12.8 58.5, 90.9 86.2, 87.2 98.5 C 91.8 100.0, 41.2 0.0, 39.8 0.2 Z" fill="hsl(151, 70%, 62%)" fill-opacity="0.94" stroke="none" stroke-width="1.86"   />
<path d="M 26.5 25.5 C 16.0 8.3, 10.6 38.3, 19.1 37.6 C 36.7 40.0, 83.3 57.5, 80.9 63.7 C 82.4 66.6, 38.4 23.3, 31.9 35.0 C 16.2 47.5, 93.1 5.2, 85.9 13.2 C 76.4 1.7, 88.5 13.6, 83.0 17.3 C 100.0 35.8, 29.5 83.8, 21.7 68.8 Z" fill="none" fill-opacity="0.71" stroke="hsl(2, 82%, 55%)" stroke-width="3.65" filter="url(#f1)" transform="translate(13.7 24.1) rotate(56.6) scale(1.74 0.51)" />
<path d="M 32.9 9.7 C 49.3 0.0, 90.7 90.5, 79.6 85.6 C 73.3 85.3, 5.7 14.9, 19.4 12.9 C 11.5 18.7, 78.0 87.9, 89.0 96.3 C 77.7 100.0, 73.6 73.1, 77.8 71.4 C 74.0 67.7, 14.2 70.4, 17.2 83.5 C 0.5 67.5, 26.5 81.5, 22.3 73.6 " fill="hsl(183, 71%, 60%)" fill-opacity="0.51" stroke="none" stroke-width="3.28"  transform="translate(17.0 37.0) rotate(4.2) scale(1.52 0.94)" />
<path d="M 31.3 27.8 C 16.6 29.8, 47.1 8.5, 48.0 6.1 C 54.5 0.0, 77.3 0.0, 63.5 5.1 C 52.3 0.0, 63.5 96.7, 73.8 92.2 C 70.8 99.4, 0.0 26.6, 7.2 17.6 C 0.0 7.0, 56.5 64.9, 59.8 55.3 C 68.3 38.6, 51.8 85.0, 61.3 78.4 C 44.1 80.1, 0.0 63.8, 6.1 70.1 C 17.1 79.6, 61.5 69.2, 47.3 74.4 C 31.1 72.0, 100.0 7.4, 93.6 14.7 Z" fill="none" fill-opacity="0.98" stroke="hsl(290, 83%, 63%)" stroke-width="3.05"  transform="translate(46.0 0.6) rotate(341.2) scale(1.06 1.10)" />
<circle cx="20.5" cy="38.6" r="12.2" fill="url(#g0)" fill-opacity="0.99"  transform="translate(40.3 94.0) rotate(155.3) scale(1.96 0.95)" />
<path d="M 14.6 61.6 C 14.2 72.7, 85.7 75.4, 90.1 81.2 C 100.0 95.3, 61.5 54.4, 68.0 62.1 C 74.0 73.1, 0.5 7.7, 11.6 2.9 C 11.1 19.2, 76.3 50.4, 86.7 62.3 C 100.0 46.0, 50.3 39.6, 58.1 51.2 C 45.4 56.3, 98.9 90.8, 85.2 83.8 Z" fill="none" fill-opacity="0.33" stroke="hsl(86, 72%, 68%)" stroke-width="4.79"  transform="translate(38.6 55.8) rotate(61.3) scale(1.22 0.69)" />
<circle cx="0.1" cy="59.2" r="16.4" fill="hsl(86, 72%, 68%)" fill-opacity="0.85"  transform="translate(35.5 69.8) rotate(203.8) scale(1.69 0.81)" />
<circle cx="69.6" cy="47.5" r="7.7" fill="url(#g1)" fill-opacity="0.75"  transform="translate(66.6 46.9) rotate(60.5) scale(1.74 1.72)" />
<circle cx="10.8" cy="84.1" r="9.9" fill="hsl(242, 72%, 49%)" fill-opacity="0.83"  transform="translate(82.3 80.6) rotate(239.1) scale(1.43 1.63)" />
<path d="M 2.2 92.7 C 3.3 86.4, 56.8 21.4, 45.9 11.9 C 27.9 26.4, 17.5 13.2, 7.5 22.7 C 0.0 4.9, 90.9 75.1, 81.5 62.2 C 91.4 74.0, 25.8 26.5, 28.9 24.4 C 42.0 42.8, 0.0 85.9, 8.0 88.9 C 16.5 77.9, 73.4 29.2, 64.8 18.3 Z" fill="hsl(151, 70%, 62%)" fill-opacity="0.77" stroke="none" stroke-width="5.00" filter="url(#f1)" transform="translate(12.0 75.0) rotate(183.4) scale(1.69 1.86)" />
<path d="M 24.9 45.5 C 19.2 28.5, 81.7 59.0, 88.1 67.1 C 77.8 47.9, 69.0 63.0, 80.0 57.3 C 70.1 45.1, 100.0 68.7, 92.1 63.5 C 100.0 77.8, 54.1 86.9, 54.0 98.9 C 52.5 89.1, 37.4 79.1, 30.9 74.5 C 46.1 89.9, 72.9 87.2, 71.0 85.2 Z" fill="hsl(322, 74%, 44%)" fill-opacity="0.78" stroke="none" stroke-width="5.27"  transform="translate(15.1 12.9) rotate(171.9) scale(1.66 1.90)" />
<path d="M 47.4 88.9 C 56.4 79.7, 15.2 44.7, 0.4 55.0 C 12.2 57.7, 13.1 56.8, 13.3 63.5 C 0.0 44.9, 5.3 6.7, 15.9 15.0 C 22.1 13.8, 52.3 7.2, 50.6 13.4 C 59.8 5.3, 95.5 18.2, 83.7 5.8 C 84.8 8.7, 31.8 16.5, 46.7 21.4 C 43.3 13.9, 42.5 97.1, 39.0 85.1 Z" fill="none" fill-opacity="0.29" stroke="hsl(83, 65%, 44%)" stroke-width="1.22"  transform="translate(15.1 84.8) rotate(169.7) scale(0.58 1.68)" />
<path d="M 45.8 5.0 C 64.9 0.0, 82.1 79.1, 68.4 69.5 C 68.3 79.3, 0.0 88.1, 11.4 83.0 C 30.9 70.0, 57.9 49.0, 63.6 53.3 C 52.0 55.2, 80.9 80.3, 82.1 72.3 C 76.0 73.5, 11.2 91.0, 1.0 76.7 C 18.8 83.0, 97.8 47.6, 89.4 56.0 C 75.7 39.2, 62.7 40.4, 63.6 51.4 C 78.8 65.0, 77.8 41.0, 76.1 47.5 C 92.2 50.6, 68.1 97.6, 77.5 84.1 C 66.9 92.7, 57.4 64.1, 66.0 74.7 Z" fill="hsl(290, 83%, 63%)" fill-opacity="0.99" stroke="none" stroke-width="3.39"  transform="translate(26.7 85.7) rotate(238.8) scale(1.91 1.74)" />
<rect x="31.5" y="61.5" width="31.8" height="12.6" rx="0" fill="none" fill-opacity="0.31" stroke="hsl(290, 83%, 63%)" stroke-width="3.0"  transform="translate(48.0 7.8) rotate(8.9) scale(1.94 1.94)" />
<path d="M 52.2 7.7 C 62.8 0.0, 29.0 44.4, 21.2 49.5 C 11.9 59.8, 86.6 24.4, 77.7 38.7 C 97.6 29.6, 76.0 8.9, 85.8 22.1 C 78.3 6.8, 58.9 25.7, 67.6 35.8 C 75.2 54.8, 31.1 68.2, 37.1 58.8 C 53.6 76.1, 1.0 11.3, 13.6 14.7 Z" fill="none" fill-opacity="0.48" stroke="hsl(106, 75%, 59%)" stroke-width="0.95"  transform="translate(71.5 42.6) rotate(106.6) scale(1.94 0.70)" />
<circle cx="36.4" cy="40.8" r="17.6" fill="url(#g0)" fill-opacity="0.79"  transform="translate(94.9 2.0) rotate(145.4) scale(1.94 0.50)" />
<path d="M 15.5 5.7 C 23.2 19.0, 35.0 89.0, 35.0 94.4 C 27.9 100.0, 40.0 40.9, 34.4 38.8 C 39.3 22.0, 4.2 62.4, 16.6 49.6 C 31.1 46.2, 100.0 100.0, 98.2 99.7 C 99.0 87.7, 78.1 9.1, 92.8 2.9 C 99.3 10.9, 65.3 64.0, 76.8 75.4 C 66.5 88.2, 50.7 27.2, 53.7 27.7 C 61.7 28.9, 52.6 29.7, 42.3 37.8 Z" fill="none" fill-opacity="0.76" stroke="hsl(322, 74%, 44%)" stroke-width="4.14"  transform="translate(72.1 68.1) rotate(76.4) scale(1.64 0.77)" />
<circle cx="3.2" cy="37.4" r="4.6" fill="url(#g2)" fill-opacity="0.53"  transform="translate(93.5 19.3) rotate(312.4) scale(1.81 0.92)" />
<circle cx="20.1" cy="31.5" r="15.7" fill="url(#g2)" fill-opacity="0.53"  transform="translate(37.3 91.7) rotate(338.5) scale(1.16 0.93)" />
<rect x="62.5" y="42.4" width="30.0" height="18.3" rx="0" fill="hsl(2, 82%, 55%)" fill-opacity="0.83"   transform="translate(94.7 42.8) rotate(247.3) scale(0.95 1.00)" />
<path d="M 31.7 29.1 C 36.2 33.8, 47.3 100.0, 36.3 87.5 C 27.5 100.0, 0.0 17.1, 2.9 4.8 C 12.8 17.6, 59.9 18.6, 46.3 5.9 C 57.9 0.0, 95.4 44.1, 81.9 34.2 C 95.4 34.3, 28.7 16.1, 16.5 21.1 C 22.5 2.7, 31.6 0.0, 44.2 5.5 Z" fill="none" fill-opacity="0.69" stroke="hsl(322, 74%, 44%)" stroke-width="4.87"  transform="translate(65.8 69.8) rotate(254.7) scale(1.06 1.19)" />
<path d="M 14.1 5.7 C 29.7 0.0, 82.3 70.1, 70.9 76.8 C 69.4 78.3, 66.9 7.9, 52.5 1.5 C 42.7 14.6, 41.5 83.6, 37.1 92.2 C 28.3 79.4, 34.1 22.0, 34.2 10.4 C 31.3 18.1, 25.7 48.5, 19.8 42.9 C 24.8 47.9, 27.2 56.5, 25.0 65.1 C 22.3 72.5, 69.4 58.0, 77.4 70.2 C 77.4 64.6, 6.0 37.8, 15.0 23.7 C 23.4 32.5, 69.6 17.3, 58.9 17.2 Z" fill="hsl(183, 71%, 60%)" fill-opacity="0.95" stroke="none" stroke-width="3.92"  transform="translate(82.5 67.9) rotate(152.9) scale(1.10 1.92)" />
<path d="M 58.3 43.0 C 61.4 35.0, 4.5 71.3, 3.8 59.9 C 19.7 47.6, 46.3 53.0, 47.8 47.2 C 60.9 45.4, 84.1 29.8, 96.3 18.8 C 100.0 0.1, 74.9 30.5, 71.6 42.9 C 80.1 31.3, 1.0 45.7, 8.4 31.1 C 26.8 14.2, 83.1 72.4, 71.6 61.3 C 60.3 66.2, 100.0 21.1, 97.0 33.7 C 77.7 23.1, 48.6 66.4, 53.3 81.4 C 47.3 62.0, 66.8 30.4, 65.0 43.8 C 56.7 58.3, 21.7 33.5, 21.6 35.2 Z" fill="hsl(83, 65%, 44%)" fill-opacity="0.96" stroke="none" stroke-width="2.22"   />
<path d="M 55.6 49.2 C 63.2 37.3, 88.3 65.8, 79.3 69.9 C 89.0 64.5, 67.3 67.7, 69.6 74.4 C 51.2 74.7, 36.3 16.8, 49.0 14.7 C 61.9 0.0, 20.0 11.0, 10.1 12.6 C 16.3 32.5, 40.1 86.0, 37.2 84.1 C 38.7 75.5, 24.7 80.9, 31.1 93.7 C 32.2 100.0, 100.0 65.6, 95.2 55.8 C 77.4 55.7, 94.0 16.5, 87.3 4.0 C 100.0 16.2, 57.6 27.3, 47.4 37.6 C 60.5 57.0, 36.1 23.2, 47.1 29.6 Z" fill="none" fill-opacity="0.88" stroke="hsl(86, 72%, 68%)" stroke-width="3.11"   />
<path d="M 43.1 40.4 C 54.3 29.7, 34.0 52.9, 21.3 44.1 C 3.8 35.7, 26.2 23.3, 21.6 17.2 C 3.2 6.7, 86.6 19.4, 77.4 23.4 C 94.2 26.7, 39.0 4.4, 48.8 12.5 C 51.9 30.9, 42.0 38.6, 27.2 46.6 C 42.7 50.1, 95.7 94.0, 92.9 95.5 C 73.8 82.2, 100.0 0.0, 89.7 9.6 C 100.0 2.1, 51.1 54.4, 63.5 61.3 Z" fill="none" fill-opacity="0.62" stroke="hsl(290, 83%, 63%)" stroke-width="3.24"  transform="translate(74.2 29.5) rotate(342.1) scale(1.28 1.80)" />
<path d="M 52.9 63.1 C 68.4 72.5, 24.2 56.9, 37.7 60.4 C 34.6 51.0, 40.1 0.0, 38.2 0.4 C 43.9 0.0, 74.0 69.1, 66.9 58.5 C 71.6 48.8, 59.0 90.3, 54.4 87.5 C 59.0 82.9, 16.0 95.2, 7.1 83.8 C 0.0 91.7, 85.5 18.4, 78.7 10.0 C 62.8 13.3, 28.5 83.3, 33.6 93.8 C 27.0 100.0, 98.3 8.3, 94.4 15.0 C 94.6 28.0, 11.2 34.1, 13.1 33.2 Z" fill="hsl(242, 72%, 49%)" fill-opacity="0.94" stroke="none" stroke-width="3.68"   />
<path d="M 40.2 37.5 C 24.8 21.2, 24.6 97.5, 19.1 85.6 C 15.4 74.8, 72.2 88.9, 64.0 99.2 C 72.9 100.0, 23.1 38.1, 27.0 51.3 C 15.7 57.7, 40.4 45.0, 35.1 56.4 C 25.7 54.1, 62.5 83.1, 54.4 77.9 C 45.9 66.6, 81.6 32.5, 84.7 27.0 Z" fill="hsl(2, 82%, 55%)" fill-opacity="0.60" stroke="none" stroke-width="2.93"  transform="translate(61.0 21.5) rotate(175.3) scale(0.85 0.80)" />
<path d="M 43.6 49.7 C 23.9 32.9, 11.6 59.8, 18.8 45.8 C 15.5 36.2, 30.7 0.0, 23.1 1.8 C 3.1 0.0, 32.7 89.7, 38.0 89.9 C 57.4 74.5, 18.5 7.5, 9.4 1.4 C 9.0 0.0, 17.0 63.2, 10.5 50.2 C 0.0 33.9, 78.1 32.6, 78.0 42.1 C 70.3 57.5, 88.9 100.0, 74.2 96.5 C 91.0 92.5, 33.2 58.4, 44.8 63.9 C 30.9 50.4, 3.3 78.0, 1.1 92.2 C 13.1 96.8, 16.3 45.2, 19.3 31.3 Z" fill="hsl(104, 72%, 65%)" fill-opacity="0.68" stroke="none" stroke-width="2.21"  transform="translate(65.6 6.3) rotate(265.8) scale(0.90 0.59)" />
<rect x="54.8" y="38.2" width="32.0" height="39.3" rx="0" fill="none" fill-opacity="0.48"   transform="translate(94.3 63.0) rotate(228.5) scale(1.52 0.94)" />
<rect x="23.5" y="12.4" width="42.3" height="17.0" rx="17.4" fill="hsl(151, 70%, 62%)" fill-opacity="0.82"   transform="translate(54.7 2.1) rotate(117.7) scale(1.84 1.56)" />
<circle cx="95.8" cy="38.6" r="0.6" fill="hsl(40, 53%, 69%)" fill-opacity="0.46"  transform="translate(54.0 42.0) rotate(280.6) scale(1.52 1.64)" />
<circle cx="80.3" cy="45.7" r="5.8" fill="hsl(183, 71%, 60%)" fill-opacity="0.93"  transform="translate(51.5 19.9) rotate(187.6) scale(0.98 1.05)" />
<rect x="18.7" y="39.9" width="39.5" height="15.1" rx="1.0" fill="hsl(183, 71%, 60%)" fill-opacity="0.25"   transform="translate(36.1 66.8) rotate(112.2) scale(1.16 0.80)" />
<path d="M 49.4 45.1 C 58.5 49.3, 6.4 52.8, 4.7 65.4 C 16.3 73.4, 77.1 73.1, 84.5 77.6 C 93.5 70.3, 79.1 28.2, 75.8 42.6 C 86.8 51.0, 96.6 9.1, 85.2 21.3 C 88.2 27.9, 29.2 82.4, 20.2 74.5 C 23.3 65.0, 100.0 85.8, 96.8 78.0 C 97.4 59.6, 75.5 70.7, 75.8 69.4 Z" fill="none" fill-opacity="0.45" stroke="hsl(242, 72%, 49%)" stroke-width="0.93" filter="url(#f1)"  />
<rect x="56.8" y="38.3" width="40.0" height="25.6" rx="0" fill="hsl(104, 72%, 65%)" fill-opacity="0.38"   transform="translate(78.2 98.7) rotate(171.3) scale(1.23 0.69)" />
<path d="M 63.8 16.6 C 53.3 21.8, 97.7 79.0, 98.1 86.0 C 91.4 100.0, 20.3 31.9, 10.9 43.9 C 6.1 50.0, 78.6 30.7, 76.4 25.1 C 66.6 40.5, 94.8 40.1, 81.6 49.1 C 100.0 42.0, 71.3 66.4, 85.9 64.3 C 74.9 60.7, 57.1 9.5, 47.7 11.0 C 33.3 27.8, 100.0 34.7, 99.7 37.1 C 100.0 54.6, 47.5 19.4, 49.4 8.2 C 63.1 0.0, 71.2 88.9, 75.8 74.1 C 64.1 75.0, 29.4 12.7, 39.1 10.1 Z" fill="none" fill-opacity="0.60" stroke="hsl(322, 74%, 44%)" stroke-width="1.84"  transform="translate(88.1 90.5) rotate(54.4) scale(1.25 1.72)" />
<path d="M 29.0 52.4 C 15.1 45.9, 34.6 72.4, 45.7 64.6 C 65.2 62.4, 23.1 92.6, 20.7 90.0 C 5.8 74.8, 18.4 58.8, 11.4 64.8 C 7.9 50.4, 50.1 0.0, 50.3 9.1 C 56.5 15.4, 81.3 82.4, 79.7 86.6 C 97.1 99.4, 23.6 62.9, 35.6 58.3 C 18.8 54.7, 29.9 23.2, 29.3 18.5 C 18.4 25.3, 40.9 22.9, 30.6 31.1 C 45.0 24.3, 99.4 3.1, 92.1 1.0 Z" fill="none" fill-opacity="0.99" stroke="hsl(40, 53%, 69%)" stroke-width="4.44" filter="url(#f1)" transform="translate(85.7 97.1) rotate(214.5) scale(1.68 1.49)" />
<path d="M 88.3 98.3 C 82.0 100.0, 22.1 13.6, 26.8 27.5 C 45.9 28.1, 54.4 75.3, 52.9 73.2 C 47.3 74.7, 16.3 22.4, 3.9 33.4 C 23.0 25.7, 34.6 74.2, 42.8 69.6 C 59.3 88.8, 90.4 1.2, 80.1 1.5 C 63.0 18.0, 1.6 59.3, 0.3 55.6 C 0.0 68.6, 53.5 73.1, 40.2 68.6 C 28.9 58.5, 84.4 5.2, 78.2 1.9 C 70.8 19.8, 75.6 86.2, 76.8 85.9 C 60.2 97.3, 36.3 67.6, 39.4 72.9 Z" fill="hsl(106, 75%, 59%)" fill-opacity="0.94" stroke="none" stroke-width="2.71"  transform="translate(39.2 85.7) rotate(183.7) scale(1.77 0.60)" />
<rect x="39.6" y="28.2" width="46.6" height="17.4" rx="0" fill="hsl(242, 72%, 49%)" fill-opacity="0.53"   transform="translate(73.4 57.2) rotate(113.1) scale(0.72 1.54)" />
<path d="M 35.0 7.1 C 43.5 3.4, 19.0 79.1, 32.5 82.5 C 42.2 100.0, 28.9 52.8, 17.6 56.7 C 37.1 36.8, 21.0 69.4, 12.1 82.2 C 22.4 79.7, 85.2 11.7, 77.1 16.1 C 93.9 24.0, 49.4 43.4, 36.7 43.9 C 42.3 45.3, 88.7 38.8, 91.5 45.9 Z" fill="hsl(86, 72%, 68%)" fill-opacity="0.27" stroke="none" stroke-width="2.88"  transform="translate(8.2 49.6) rotate(87.3) scale(1.86 1.02)" />
<circle cx="47.0" cy="50.1" r="1.3" fill="hsl(151, 70%, 62%)" fill-opacity="0.77"  transform="translate(75.7 79.6) rotate(335.4) scale(1.94 0.79)" />
<path d="M 31.3 38.1 C 26.5 45.0, 69.3 76.5, 55.3 76.8 C 49.7 57.3, 33.2 98.4, 39.6 84.7 C 44.4 71.2, 26.5 58.4, 20.9 65.3 C 28.5 70.5, 57.9 64.8, 43.1 59.4 C 25.3 68.4, 61.6 100.0, 53.6 94.7 C 59.2 88.1, 96.0 54.8, 88.1 58.6 C 91.6 40.5, 88.7 37.2, 85.3 34.9 C 88.7 22.3, 82.0 67.2, 81.3 78.0 C 92.6 82.7, 57.8 13.4, 44.7 26.3 C 62.6 41.4, 85.1 81.4, 72.2 78.9 Z" fill="none" fill-opacity="0.56" stroke="hsl(83, 65%, 44%)" stroke-width="4.25"  transform="translate(18.9 60.6) rotate(324.7) scale(1.07 0.51)" />
<rect x="66.2" y="55.5" width="31.8" height="12.1" rx="9.3" fill="hsl(183, 71%, 60%)" fill-opacity="0.48" stroke="hsl(183, 71%, 60%)" stroke-width="1.8"  transform="translate(46.1 8.9) rotate(306.3) scale(0.85 1.79)" />
<path d="M 49.6 87.6 C 60.1 100.0, 94.1 11.9, 81.6 19.9 C 66.8 37.2, 12.5 64.7, 5.9 76.1 C 20.4 83.3, 0.0 88.3, 5.4 87.2 C 12.3 71.9, 53.5 80.5, 40.2 89.3 C 56.5 90.6, 93.4 46.8, 86.0 32.7 C 99.5 50.2, 78.2 8.0, 78.3 0.6 C 85.4 0.0, 51.5 57.0, 60.9 69.4 Z" fill="none" fill-opacity="0.61" stroke="hsl(40, 53%, 69%)" stroke-width="2.29"  transform="translate(53.8 53.9) rotate(14.6) scale(1.27 1.19)" />
<path d="M 96.5 99.0 C 83.2 88.1, 16.1 84.9, 22.5 77.0 C 30.8 78.2, 33.4 0.0, 38.1 9.3 C 32.9 14.1, 45.6 32.0, 48.7 30.3 C 38.6 22.7, 99.2 31.0, 90.3 20.4 C 81.4 11.2, 56.4 36.8, 44.1 44.6 C 36.6 27.7, 82.8 15.2, 79.9 20.4 C 66.2 27.6, 58.5 44.4, 49.5 55.6 Z" fill="hsl(183, 71%, 60%)" fill-opacity="0.81" stroke="none" stroke-width="4.35"   />
<path d="M 73.7 78.7 C 65.1 82.8, 84.2 91.4, 95.5 80.2 C 95.7 86.0, 100.0 14.0, 94.6 21.2 C 99.2 17.6, 43.1 35.9, 52.0 40.5 C 51.0 39.4, 73.6 0.0, 73.4 3.7 C 66.6 21.8, 15.3 38.2, 11.6 49.3 C 17.9 34.8, 12.3 31.7, 19.9 32.0 C 24.4 15.1, 25.5 79.0, 34.9 73.3 Z" fill="hsl(183, 71%, 60%)" fill-opacity="0.99" stroke="none" stroke-width="2.10"  transform="translate(22.5 40.2) rotate(242.4) scale(1.85 1.96)" />
<path d="M 25.5 60.0 C 28.0 54.1, 15.6 100.0, 4.1 98.5 C 9.8 98.5, 40.4 75.7, 36.8 88.4 C 18.7 93.4, 0.0 43.8, 1.5 31.4 C 2.8 32.0, 12.6 20.9, 17.8 17.7 C 0.6 32.6, 57.7 68.0, 53.9 82.9 C 61.9 97.3, 62.0 22.6, 53.8 8.6 C 63.3 4.8, 11.7 70.0, 15.7 79.7 C 19.8 72.9, 0.5 32.8, 0.1 22.5 C 0.0 29.3, 0.0 14.5, 12.7 14.5 C 23.8 4.7, 44.1 100.0, 45.8 97.7 Z" fill="none" fill-opacity="0.85" stroke="hsl(183, 71%, 60%)" stroke-width="4.69" filter="url(#f1)"  />
<path d="M 34.2 67.1 C 28.1 83.5, 61.2 51.3, 62.8 58.8 C 65.2 60.0, 56.8 49.8, 57.9 37.5 C 38.5 25.3, 47.9 60.5, 57.6 67.4 C 65.6 62.9, 44.4 19.1, 50.5 6.1 C 57.2 0.2, 0.5 36.5, 11.1 47.1 C 23.2 31.0, 10.5 39.0, 17.8 52.2 C 8.3 44.3, 77.6 65.1, 87.5 73.5 C 100.0 81.6, 85.9 41.1, 96.9 33.5 C 85.4 22.7, 20.2 19.7, 20.2 26.0 C 14.0 14.8, 69.2 32.7, 71.2 39.3 Z" fill="hsl(2, 82%, 55%)" fill-opacity="0.68" stroke="none" stroke-width="3.17"  transform="translate(90.8 7.5) rotate(169.0) scale(1.81 1.68)" />
<path d="M 13.2 92.6 C 19.9 96.5, 66.3 12.2, 77.2 19.0 C 96.7 25.3, 32.4 18.3, 36.9 11.8 C 44.3 6.3, 62.5 4.5, 51.7 19.1 C 67.6 30.3, 100.0 31.3, 99.4 21.7 C 100.0 17.9, 45.1 81.7, 41.8 85.3 C 24.4 81.7, 36.6 28.1, 30.6 34.1 C 47.6 44.9, 43.5 71.2, 47.6 85.6 C 43.2 97.7, 64.3 35.2, 61.3 27.5 C 73.3 37.5, 69.7 100.0, 70.3 98.0 Z" fill="hsl(40, 53%, 69%)" fill-opacity="0.52" stroke="none" stroke-width="3.38"  transform="translate(32.7 61.0) rotate(98.3) scale(1.88 1.61)" />
<rect x="17.9" y="59.3" width="22.7" height="37.8" rx="0" fill="none" fill-opacity="0.86" stroke="hsl(183, 71%, 60%)" stroke-width="4.6"   />
<rect x="24.2" y="19.9" width="21.9" height="27.6" rx="0" fill="none" fill-opacity="0.23" stroke="hsl(83, 65%, 44%)" stroke-width="4.0"  transform="translate(59.0 24.9) rotate(21.6) scale(0.79 0.82)" />
<path d="M 70.0 24.0 C 70.9 36.5, 78.7 17.7, 82.6 23.8 C 86.0 43.1, 92.3 58.8, 90.6 57.3 C 77.9 44.5, 71.3 81.0, 60.0 75.3 C 72.8 92.9, 16.7 35.9, 26.6 24.2 C 40.2 28.3, 36.5 85.3, 37.1 71.0 C 47.4 53.4, 89.1 31.5, 83.7 38.8 C 71.6 28.9, 25.1 45.1, 37.1 51.0 C 25.2 45.4, 17.9 16.5, 11.8 27.8 C 20.0 36.7, 8.7 90.3, 3.5 77.6 C 1.1 77.2, 12.9 37.4, 27.7 48.6 Z" fill="none" fill-opacity="0.46" stroke="hsl(290, 83%, 63%)" stroke-width="5.11"  transform="translate(61.5 49.5) rotate(176.2) scale(1.25 1.69)" />
<path d="M 47.1 73.4 C 65.4 84.9, 100.0 73.3, 92.6 85.5 C 86.2 87.4, 42.5 84.4, 35.9 70.6 C 28.2 70.6, 23.0 82.1, 14.5 76.2 C 1.5 94.9, 87.0 57.3, 73.1 51.7 C 58.0 70.0, 18.7 89.1, 26.1 78.5 C 10.0 75.4, 56.8 58.6, 54.9 59.6 C 45.6 70.5, 100.0 11.1, 97.8 11.4 C 100.0 25.0, 53.4 77.3, 51.8 70.9 C 37.5 64.9, 61.4 40.7, 57.7 30.3 C 57.6 50.1, 44.5 35.1, 35.4 38.2 Z" fill="hsl(322, 74%, 44%)" fill-opacity="0.46" stroke="none" stroke-width="4.43"   />
<path d="M 78.3 59.6 C 85.7 44.3, 95.6 89.3, 87.7 81.5 C 70.2 61.7, 41.1 60.3, 29.9 71.6 C 28.1 56.3, 10.5 47.2, 6.0 34.5 C 5.2 14.8, 47.6 96.9, 52.3 94.5 C 67.4 97.0, 60.8 59.3, 55.2 70.8 C 39.8 55.8, 54.5 98.6, 67.3 88.9 C 67.6 70.4, 70.7 56.0, 78.8 47.3 C 67.1 49.7, 81.3 8.7, 83.4 5.0 C 84.3 21.4, 28.2 95.1, 28.4 90.7 C 25.5 93.9, 55.2 11.7, 55.5 24.4 Z" fill="hsl(40, 53%, 69%)" fill-opacity="0.25" stroke="none" stroke-width="4.83"  transform="translate(39.0 89.8) rotate(271.3) scale(1.67 1.34)" />
<rect x="16.4" y="73.6" width="49.9" height="17.8" rx="14.6" fill="none" fill-opacity="0.21"   transform="translate(29.6 69.5) rotate(339.7) scale(1.04 1.31)" />
<rect x="39.0" y="42.4" width="30.8" height="11.6" rx="17.2" fill="none" fill-opacity="0.54"   transform="translate(52.3 17.3) rotate(318.7) scale(1.97 1.74)" />
<path d="M 40.2 28.9 C 28.3 28.6, 100.0 0.0, 96.0 2.7 C 100.0 0.0, 12.9 52.7, 13.1 45.1 C 20.4 64.1, 20.0 88.0, 18.8 79.7 C 0.7 97.8, 21.8 25.6, 11.4 25.1 C 10.8 22.6, 0.0 37.5, 0.9 35.6 C 5.8 26.4, 33.5 82.7, 24.0 71.1 C 24.9 70.3, 22.6 23.8, 33.2 35.3 C 18.0 35.5, 6.0 51.6, 7.7 49.2 C 0.0 63.0, 16.4 47.0, 6.9 33.9 C 25.2 20.3, 12.2 99.8, 14.3 95.9 Z" fill="none" fill-opacity="0.46" stroke="hsl(242, 72%, 49%)" stroke-width="2.18"  transform="translate(67.3 39.9) rotate(316.1) scale(1.74 1.02)" />
<circle cx="6.5" cy="20.2" r="4.9" fill="url(#g1)" fill-opacity="0.83" filter="url(#f1)" transform="translate(80.7 60.9) rotate(24.6) scale(1.74 0.79)" />
<path d="M 48.0 29.5 C 32.0 41.5, 55.0 7.9, 46.4 17.4 C 34.5 23.9, 66.3 65.6, 70.6 77.0 C 53.3 88.7, 68.9 24.9, 81.5 36.5 C 79.7 31.8, 31.6 75.6, 18.4 74.5 C 7.4 60.5, 72.8 14.6, 87.1 8.8 C 86.9 26.3, 28.4 31.0, 35.4 27.0 C 53.5 21.9, 15.1 42.1, 0.7 28.9 C 0.0 39.8, 4.0 50.3, 17.6 61.8 C 0.0 48.6, 0.0 77.1, 0.1 80.8 " fill="hsl(290, 83%, 63%)" fill-opacity="0.57" stroke="none" stroke-width="4.32"  transform="translate(37.2 5.9) rotate(286.0) scale(1.35 1.51)" />
<path d="M 14.0 52.3 C 1.6 43.6, 61.9 74.5, 62.9 69.0 C 55.9 56.4, 56.2 48.0, 60.9 34.2 C 51.4 25.3, 33.3 12.1, 30.5 17.6 C 45.6 16.2, 47.2 55.6, 54.9 51.2 C 43.4 46.5, 96.9 28.0, 84.8 30.3 C 76.4 25.2, 66.2 24.8, 79.9 23.9 C 85.3 18.1, 100.0 68.5, 95.3 80.7 C 81.8 70.8, 12.3 85.4, 12.1 79.2 C 0.0 77.2, 81.8 7.9, 84.8 17.6 C 66.1 37.1, 97.1 62.3, 93.9 67.7 Z" fill="hsl(242, 72%, 49%)" fill-opacity="0.86" stroke="none" stroke-width="1.00"  transform="translate(51.1 23.8) rotate(65.1) scale(1.71 0.56)" />
<path d="M 65.2 20.1 C 64.5 14.7, 27.4 19.8, 20.4 29.2 C 5.5 37.7, 29.1 10.5, 37.3 17.4 C 39.1 19.3, 57.2 36.9, 56.0 30.3 C 45.6 15.0, 14.0 34.8, 12.0 44.5 C 16.2 37.3, 58.7 100.0, 66.6 94.4 C 65.0 91.3, 45.6 60.4, 35.2 53.1 C 36.1 36.9, 85.2 33.3, 99.5 42.8 C 87.6 50.4, 8.8 73.9, 20.6 76.4 Z" fill="hsl(290, 83%, 63%)" fill-opacity="0.69" stroke="none" stroke-width="5.16"  transform="translate(22.5 18.3) rotate(157.0) scale(0.94 1.77)" />
<rect x="37.4" y="55.1" width="30.6" height="25.3" rx="0" fill="none" fill-opacity="0.85" stroke="hsl(40, 53%, 69%)" stroke-width="1.8"  transform="translate(93.0 78.1) rotate(50.1) scale(1.48 1.31)" />
<rect x="47.8" y="54.9" width="45.7" height="28.6" rx="10.7" fill="none" fill-opacity="0.61" stroke="hsl(86, 72%, 68%)" stroke-width="3.2" filter="url(#f1)" transform="translate(31.2 85.6) rotate(325.1) scale(1.32 1.55)" />
<path d="M 17.8 57.9 C 29.9 49.5, 53.6 3.4, 38.7 7.1 C 25.0 0.0, 96.1 79.6, 86.7 65.2 C 69.8 77.5, 6.2 0.0, 13.3 5.5 C 10.7 3.8, 34.6 72.1, 44.9 59.9 C 57.5 74.5, 53.5 35.6, 45.6 24.7 C 47.2 18.3, 73.3 62.4, 71.3 72.4 C 90.1 57.5, 95.3 6.6, 93.1 16.6 C 100.0 26.0, 10.4 87.7, 8.2 88.1 C 27.7 71.1, 37.6 40.4, 35.1 29.7 Z" fill="hsl(40, 53%, 69%)" fill-opacity="0.82" stroke="none" stroke-width="1.50"   />
<path d="M 7.5 76.9 C 16.2 79.3, 81.3 59.7, 69.6 50.1 C 89.1 40.7, 53.9 56.0, 65.8 68.5 C 48.5 54.4, 21.9 6.2, 26.8 15.0 C 39.5 30.0, 84.0 37.3, 71.1 47.6 C 77.5 34.1, 83.4 79.4, 72.5 80.8 C 57.6 86.4, 63.5 100.0, 52.1 98.6 " fill="hsl(86, 72%, 68%)" fill-opacity="0.61" stroke="none" stroke-width="4.02" filter="url(#f1)" transform="translate(21.9 63.5) rotate(250.5) scale(1.79 0.67)" />
<circle cx="33.5" cy="5.5" r="11.6" fill="hsl(104, 72%, 65%)" fill-opacity="0.91"  transform="translate(41.5 67.4) rotate(201.8) scale(1.82 1.31)" />
<path d="M 58.4 75.0 C 49.5 84.1, 78.7 100.0, 93.7 95.0 C 100.0 90.6, 17.1 19.6, 30.9 6.3 C 13.7 7.1, 53.5 57.4, 60.4 55.1 C 66.6 39.8, 49.2 51.4, 57.9 40.4 C 71.6 41.7, 54.4 65.7, 41.7 69.2 C 31.6 88.3, 72.2 74.9, 76.8 76.1 C 83.7 83.7, 78.9 77.8, 70.9 87.9 C 66.3 100.0, 5.5 25.8, 1.8 20.0 Z" fill="hsl(183, 71%, 60%)" fill-opacity="0.57" stroke="none" stroke-width="3.47"  transform="translate(10.4 47.5) rotate(165.1) scale(0.59 0.91)" />
<path d="M 91.9 45.2 C 100.0 46.7, 38.4 16.1, 52.6 17.0 C 54.2 3.6, 49.4 80.1, 49.2 65.7 C 42.9 80.8, 1.9 44.8, 10.8 38.2 C 22.6 45.5, 46.5 85.5, 47.4 94.3 C 47.9 82.8, 20.4 29.9, 15.4 17.1 C 8.6 17.1, 33.8 35.3, 36.9 42.7 C 27.3 61.2, 6.4 89.9, 5.8 97.6 Z" fill="hsl(83, 65%, 44%)" fill-opacity="0.71" stroke="none" stroke-width="4.24"  transform="translate(80.7 31.8) rotate(357.9) scale(1.94 1.19)" />
<rect x="30.4" y="69.7" width="29.6" height="10.5" rx="1.8" fill="hsl(86, 72%, 68%)" fill-opacity="0.89" stroke="hsl(2, 82%, 55%)" stroke-width="2.2"  transform="translate(85.1 99.6) rotate(43.1) scale(1.25 0.96)" />
<circle cx="19.0" cy="35.6" r="0.8" fill="url(#g0)" fill-opacity="0.56"  transform="translate(70.4 2.9) rotate(219.7) scale(1.21 1.58)" />
<path d="M 82.2 82.8 C 84.6 72.6, 69.3 12.4, 71.5 17.6 C 84.4 16.2, 76.2 100.0, 63.1 93.0 C 74.8 100.0, 84.3 63.6, 93.6 58.0 C 82.1 48.6, 40.3 59.5, 31.5 67.8 C 16.4 84.1, 90.6 0.2, 98.2 3.3 C 93.6 0.0, 20.8 93.4, 33.9 84.4 C 18.9 99.1, 65.6 23.4, 63.2 35.7 C 69.1 29.3, 72.2 81.8, 75.5 78.9 C 88.1 71.1, 9.1 93.1, 20.7 93.8 C 23.1 89.3, 100.0 76.2, 90.7 79.9 Z" fill="hsl(144, 86%, 72%)" fill-opacity="0.28" stroke="none" stroke-width="3.78"  transform="translate(39.3 47.8) rotate(306.8) scale(1.73 1.05)" />
<path d="M 1.2 66.8 C 17.1 53.2, 29.2 83.9, 40.2 98.1 C 25.0 100.0, 10.1 3.6, 17.6 7.6 C 6.5 5.1, 69.6 100.0, 72.7 97.3 C 53.7 100.0, 47.2 31.1, 37.1 25.2 C 53.6 11.3, 30.5 15.6, 19.6 5.7 C 7.9 19.0, 90.5 1.9, 84.8 8.4 " fill="hsl(86, 72%, 68%)" fill-opacity="0.83" stroke="none" stroke-width="5.04"  transform="translate(26.4 74.8) rotate(81.0) scale(1.89 1.04)" />
<path d="M 61.5 85.8 C 45.7 85.5, 1.4 51.0, 11.6 59.6 C 0.0 51.7, 0.0 23.3, 5.9 17.8 C 7.5 12.6, 68.9 33.0, 73.8 31.5 C 91.7 40.5, 90.7 60.0, 80.7 51.7 C 98.3 34.3, 81.0 0.0, 94.9 0.3 C 82.9 1.2, 46.7 82.2, 33.1 93.8 Z" fill="hsl(83, 65%, 44%)" fill-opacity="0.58" stroke="none" stroke-width="2.98"  transform="translate(86.3 85.6) rotate(140.8) scale(1.52 1.95)" />
<path d="M 85.7 9.1 C 96.0 0.0, 83.9 100.0, 94.9 97.4 C 100.0 98.4, 54.6 81.2, 61.2 75.6 C 68.7 62.0, 56.0 73.3, 60.2 75.6 C 41.7 86.6, 26.1 55.4, 27.7 62.9 C 44.8 43.0, 16.4 26.3, 6.0 31.9 C 0.0 33.0, 29.6 4.4, 14.9 8.9 Z" fill="none" fill-opacity="0.56" stroke="hsl(40, 53%, 69%)" stroke-width="1.82"  transform="translate(32.0 18.3) rotate(308.2) scale(1.89 1.29)" />
<circle cx="64.9" cy="32.4" r="1.5" fill="url(#g1)" fill-opacity="0.59"   />
<rect x="47.4" y="35.1" width="33.5" height="34.5" rx="4.1" fill="hsl(2, 82%, 55%)" fill-opacity="0.81"   transform="translate(11.8 48.6) rotate(96.5) scale(1.72 1.74)" />
<rect x="11.0" y="32.7" width="39.0" height="18.8" rx="0" fill="hsl(104, 72%, 65%)" fill-opacity="0.48"   transform="translate(39.6 78.5) rotate(135.4) scale(0.99 1.26)" />
<circle cx="26.6" cy="31.2" r="6.8" fill="hsl(144, 86%, 72%)" fill-opacity="0.67" filter="url(#f1)" transform="translate(48.4 38.9) rotate(4.1) scale(1.11 1.78)" />
<path d="M 4.3 94.1 C 0.0 87.3, 15.0 84.6, 7.7 97.1 C 11.4 87.4, 22.8 75.5, 19.8 78.0 C 0.1 74.3, 99.2 7.5, 85.8 2.9 C 66.3 18.7, 44.8 24.1, 48.5 25.3 C 65.5 20.3, 40.9 35.4, 38.9 21.7 C 30.8 25.0, 82.0 34.0, 84.1 28.6 C 84.2 44.5, 22.0 87.9, 16.0 83.5 Z" fill="hsl(86, 72%, 68%)" fill-opacity="0.92" stroke="none" stroke-width="3.40"  transform="translate(77.6 73.5) rotate(196.0) scale(1.15 0.89)" />
<circle cx="41.4" cy="70.8" r="6.7" fill="url(#g0)" fill-opacity="0.95"  transform="translate(78.1 63.8) rotate(38.1) scale(1.90 0.59)" />
<path d="M 91.9 89.6 C 80.4 71.7, 24.9 27.2, 21.1 18.0 C 7.5 7.9, 12.4 99.8, 26.7 92.2 C 19.4 100.0, 17.6 33.7, 8.2 24.3 C 10.6 35.9, 26.3 8.4, 35.9 4.7 C 27.2 0.0, 37.1 79.4, 35.6 83.1 C 37.5 92.0, 12.8 95.2, 21.6 82.9 C 39.4 97.4, 21.4 46.0, 16.2 39.4 C 11.2 47.8, 44.8 56.0, 55.9 41.2 Z" fill="none" fill-opacity="0.62" stroke="hsl(242, 72%, 49%)" stroke-width="3.59"  transform="translate(28.9 18.6) rotate(32.9) scale(0.56 1.18)" />
<path d="M 31.6 58.2 C 36.4 73.2, 18.3 81.0, 12.5 80.8 C 25.4 94.2, 74.9 11.8, 77.8 14.3 C 73.1 28.3, 46.2 4.7, 41.3 5.0 C 23.8 4.8, 56.5 79.2, 51.0 73.5 C 60.2 89.9, 73.8 41.1, 70.6 43.6 C 68.3 51.6, 47.8 47.1, 38.7 42.6 C 24.7 39.2, 67.9 19.6, 72.6 26.0 C 71.7 25.9, 32.0 100.0, 23.1 97.4 Z" fill="none" fill-opacity="0.85" stroke="hsl(86, 72%, 68%)" stroke-width="1.95" filter="url(#f1)" transform="translate(87.9 86.7) rotate(258.6) scale(1.90 0.79)" />
<path d="M 91.0 31.5 C 93.1 43.5, 0.0 0.0, 4.3 2.0 C 10.5 11.9, 33.8 0.0, 22.4 5.5 C 17.3 3.7, 100.0 100.0, 90.1 94.4 C 85.0 81.2, 93.7 1.5, 96.4 9.1 C 76.6 21.3, 71.0 82.2, 57.5 68.1 C 41.7 49.4, 16.9 3.3, 5.4 15.5 Z" fill="none" fill-opacity="0.85" stroke="hsl(183, 71%, 60%)" stroke-width="2.43"  transform="translate(98.5 57.1) rotate(160.0) scale(1.90 1.01)" />
<path d="M 36.5 29.4 C 20.2 19.2, 20.9 44.3, 17.1 34.3 C 11.7 33.6, 100.0 19.2, 93.1 12.1 C 81.2 18.4, 77.5 32.2, 92.3 35.4 C 100.0 50.5, 58.9 17.5, 45.5 11.1 C 47.5 18.0, 80.8 45.8, 66.6 37.0 C 81.0 32.5, 57.1 45.3, 56.2 31.1 Z" fill="hsl(83, 65%, 44%)" fill-opacity="0.77" stroke="none" stroke-width="4.81"  transform="translate(59.5 61.6) rotate(33.6) scale(1.60 0.60)" />
<circle cx="73.5" cy="50.3" r="1.6" fill="hsl(104, 72%, 65%)" fill-opacity="0.50"  transform="translate(20.2 38.4) rotate(217.4) scale(1.38 1.30)" />
<path d="M 36.3 64.5 C 55.4 58.6, 30.8 8.5, 38.4 19.0 C 37.2 5.8, 88.7 25.6, 78.3 26.9 C 92.5 21.6, 37.6 10.2, 40.8 8.4 C 24.8 17.7, 26.2 14.6, 37.3 13.4 C 55.3 11.4, 26.3 32.3, 28.2 22.3 C 28.9 4.8, 20.4 27.6, 16.9 18.2 C 9.2 11.9, 100.0 51.3, 99.8 55.3 C 92.8 42.3, 99.1 43.1, 98.2 48.3 Z" fill="none" fill-opacity="0.48" stroke="hsl(86, 72%, 68%)" stroke-width="2.53"  transform="translate(71.4 9.8) rotate(301.7) scale(1.66 1.49)" />
<path d="M 38.2 78.6 C 25.1 92.3, 48.3 25.7, 41.2 30.2 C 25.2 11.6, 68.4 68.2, 70.3 60.4 C 61.1 47.4, 6.4 4.7, 2.9 13.4 C 2.2 12.5, 39.3 39.0, 38.9 31.0 C 25.6 24.6, 56.8 82.6, 44.5 84.7 C 37.3 85.0, 36.5 12.8, 35.9 24.0 C 39.1 29.8, 44.6 49.5, 33.0 44.1 C 44.4 60.9, 64.2 63.6, 56.4 58.2 C 52.6 62.6, 30.6 89.5, 27.7 90.9 C 33.5 71.6, 83.9 62.8, 77.2 68.1 " fill="none" fill-opacity="0.58" stroke="hsl(86, 72%, 68%)" stroke-width="5.04"   />
<path d="M 28.0 85.9 C 41.0 87.1, 34.1 100.0, 42.2 89.2 C 46.5 100.0, 63.4 51.1, 76.4 44.3 C 85.9 57.2, 100.0 92.1, 95.6 82.5 C 97.9 77.0, 15.6 82.5, 4.6 86.0 C 0.0 82.9, 54.7 53.3, 57.5 52.0 C 64.3 32.3, 38.9 77.0, 46.4 78.6 C 30.1 77.7, 72.6 91.2, 59.0 89.8 C 54.5 71.0, 36.8 5.5, 38.1 3.5 C 53.1 0.0, 37.2 88.0, 41.8 96.8 Z" fill="none" fill-opacity="0.86" stroke="hsl(151, 70%, 62%)" stroke-width="1.15"  transform="translate(73.4 70.2) rotate(187.6) scale(0.51 0.95)" />
<path d="M 92.5 18.6 C 76.3 9.7, 50.2 83.3, 58.0 72.3 C 55.8 81.3, 85.8 34.5, 81.9 32.0 C 65.4 32.8, 32.0 15.4, 17.9 22.7 C 19.7 19.4, 96.0 21.9, 88.4 12.5 C 69.0 28.8, 62.1 7.8, 56.8 12.7 C 50.8 0.0, 71.9 12.3, 67.1 14.2 C 75.1 32.4, 86.1 69.9, 80.9 56.1 Z" fill="hsl(106, 75%, 59%)" fill-opacity="0.89" stroke="none" stroke-width="2.56"  transform="translate(53.7 66.6) rotate(96.4) scale(1.77 0.63)" />
<circle cx="9.7" cy="49.2" r="4.4" fill="url(#g1)" fill-opacity="0.81"   />
<circle cx="21.7" cy="56.8" r="2.5" fill="url(#g0)" fill-opacity="0.96" filter="url(#f1)" transform="translate(46.2 17.2) rotate(157.5) scale(0.99 0.82)" />
<path d="M 86.6 88.8 C 69.4 91.8, 34.7 57.2, 24.2 44.4 C 19.8 38.9, 68.7 28.4, 60.8 41.8 C 74.7 53.6, 90.5 56.2, 85.7 48.4 C 86.3 64.9, 0.0 83.0, 12.0 69.8 C 5.4 86.0, 0.0 82.2, 0.2 82.6 C 0.0 86.9, 38.1 84.2, 31.7 86.9 C 18.6 100.0, 98.6 0.0, 89.9 6.3 C 75.2 0.0, 64.0 68.4, 55.5 57.2 C 63.1 67.9, 59.0 75.2, 56.8 87.7 C 57.9 93.9, 6.0 86.2, 5.5 78.7 Z" fill="hsl(86, 72%, 68%)" fill-opacity="0.50" stroke="none" stroke-width="1.70" filter="url(#f1)" transform="translate(72.0 71.9) rotate(134.6) scale(1.49 1.58)" />
<g opacity="0.061">
<rect x="0" y="0" width="1" height="100" fill="black" />
<rect x="22" y="0" width="1" height="100" fill="black" />
<rect x="44" y="0" width="1" height="100" fill="black" />
<rect x="66" y="0" width="1" height="100" fill="black" />
<rect x="88" y="0" width="1" height="100" fill="black" />
<rect x="0" y="0" width="100" height="1" fill="black" />
<rect x="0" y="22" width="100" height="1" fill="black" />
<rect x="0" y="44" width="100" height="1" fill="black" />
<rect x="0" y="66" width="100" height="1" fill="black" />
<rect x="0" y="88" width="100" height="1" fill="black" />
</g>

</svg>
