<?xml version="1.0" encoding="UTF-8"?>
<svg xmlns="http://www.w3.org/2000/svg" width="100" height="100" viewBox="0 0 100 100">
<defs>
<linearGradient id="g0" x1="0%" y1="0%" x2="100%" y2="100%">
<stop offset="0.0%" stop-color="hsl(106, 75%, 59%)" />
<stop offset="33.3%" stop-color="hsl(183, 71%, 60%)" />
<stop offset="66.7%" stop-color="hsl(242, 72%, 49%)" />
<stop offset="100.0%" stop-color="hsl(322, 74%, 44%)" />
</linearGradient>
<linearGradient id="g1" x1="0%" y1="0%" x2="100%" y2="100%">
<stop offset="0.0%" stop-color="hsl(290, 83%, 63%)" />
<stop offset="33.3%" stop-color="hsl(2, 82%, 55%)" />
<stop offset="66.7%" stop-color="hsl(86, 72%, 68%)" />
<stop offset="100.0%" stop-color="hsl(83, 65%, 44%)" />
</linearGradient>
<linearGradient id="g2" x1="0%" y1="0%" x2="100%" y2="100%">
<stop offset="0.0%" stop-color="hsl(40, 53%, 69%)" />
<stop offset="33.3%" stop-color="hsl(104, 72%, 65%)" />
<stop offset="66.7%" stop-color="hsl(144, 86%, 72%)" />
<stop offset="100.0%" stop-color="hsl(151, 70%, 62%)" />
</linearGradient>
<filter id="f1" x="-20%" y="-20%" width="140%" height="140%">
  <feGaussianBlur stdDeviation="1.841721615097347" />
</filter>

</defs>

<rect x="60.0" y="10.0" width="35.9" height="12.3" rx="0" fill="hsl(106, 75%, 59%)" fill-opacity="1.00"   transform="translate(58.6 41.6) rotate(116.9) scale(0.60 0.81)" />
<path d="M 33.2 47.4 C 23.6 61.7, 41.6 75.7, 37.4 74.9 C 25.3 78.2, 30.5 79.1, 38.5 81.6 C 25.0 100.0, 29.4 77.1, 16.3 85.5 C 9.2 86.4, 29.4 25.3, 29.2 22.4 C 27.9 36.1, 50.2 100.0, 36.8 88.7 C 19.1 95.0, 4.2 14.8, 10.3 9.5 C 12.3 9.2, 96.0 75.9, 98.6 79.1 C 87.9 97.6, 33.2 21.7, 31.3 13.6 C 24.5 9.8, 88.4 34.6, 84.2 23.4 Z" fill="hsl(83, 65%, 44%)" fill-opacity="0.75" stroke="none" stroke-width="0.98"  transform="translate(60.0 45.6) rotate(197.7) scale(1.76 1.38)" />
<path d="M 50.4 43.4 C 42.9 47.3, 28.3 24.1, 40.7 9.6 C 48.3 26.8, 11.7 51.5, 21.5 43.6 C 16.6 47.6, 42.3 6.8, 56.8 6.0 C 74.0 17.3, 63.3 41.9, 53.9 27.3 C 54.1 31.5, 29.4 49.4, 33.5 54.0 C 39.7 38.4, 10.3 10.4, 6.4 5.6 C 20.0 23.8, 71.1 0.0, 71.0 7.6 C 79.4 17.1, 42.1 43.4, 46.3 29.7 C 36.2 41.8, 73.1 71.3, 64.4 66.3 C 45.8 53.8, 34.4 42.8, 42.0 49.3 Z" fill="hsl(40, 53%, 69%)" fill-opacity="0.71" stroke="none" stroke-width="2.89"  transform="translate(84.0 22.6) rotate(1.6) scale(1.91 1.48)" />
<path d="M 43.2 67.7 C 46.3 70.5, 40.1 54.3, 30.6 61.8 C 24.0 57.1, 84.1 74.5, 74.8 67.4 C 79.1 71.4, 68.6 19.1, 54.5 31.1 C 54.4 19.9, 3.2 57.8, 5.5 56.8 C 8.0 70.1, 42.0 37.0, 27.8 41.9 C 32.5 55.6, 70.6 34.7, 67.7 24.1 C 76.8 42.3, 10.0 52.9, 18.6 50.8 C 36.0 31.3, 61.3 10.4, 46.5 15.0 C 29.2 25.0, 7.1 12.3, 20.1 5.8 Z" fill="hsl(83, 65%, 44%)" fill-opacity="0.30" stroke="none" stroke-width="2.09"  transform="translate(26.4 56.0) rotate(212.7) scale(0.78 1.90)" />
<path d="M 8.8 62.2 C 0.0 59.8, 71.7 19.8, 70.2 25.6 C 78.7 8.9, 42.2 30.4, 57.2 16.7 C 44.3 13.2, 67.1 37.7, 67.9 38.4 C 73.7 28.5, 75.0 2.1, 78.5 9.9 C 76.6 25.1, 53.8 89.7, 39.3 87.2 C 48.9 73.5, 6.5 20.9, 9.0 33.7 C 23.9 33.8, 39.8 10.4, 42.0 3.5 " fill="none" fill-opacity="0.53" stroke="hsl(40, 53%, 69%)" stroke-width="0.99" filter="url(#f1)" transform="translate(1.8 72.9) rotate(296.9) scale(1.91 1.85)" />
<path d="M 21.7 57.6 C 14.3 65.6, 86.0 77.2, 89.1 88.3 C 76.4 74.2, 20.3 0.0, 25.0 3.7 C 21.0 11.2, 22.4 79.4, 33.0 86.0 C 31.6 100.0, 2.5 62.2, 16.4 65.4 C 18.4 65.4, 4.4 38.6, 2.4 53.2 C 11.6 63.0, 68.7 93.9, 63.7 99.6 C 62.2 100.0, 69.6 50.2, 57.8 50.9 C 39.5 40.6, 82.5 35.0, 82.6 47.5 C 69.6 28.0, 89.2 97.8, 83.9 87.9 C 70.2 96.9, 80.2 73.4, 88.8 77.0 Z" fill="hsl(86, 72%, 68%)" fill-opacity="0.52" stroke="none" stroke-width="3.34"  transform="translate(51.5 44.3) rotate(75.5) scale(0.86 1.18)" />
<rect x="47.5" y="10.7" width="27.8" height="31.9" rx="0" fill="hsl(83, 65%, 44%)" fill-opacity="0.26"   transform="translate(70.1 72.7) rotate(267.2) scale(0.86 0.55)" />
<path d="M 54.1 75.3 C 47.8 60.8, 42.9 26.8, 33.7 28.8 C 40.5 18.5, 82.4 37.9, 86.5 25.2 C 100.0 35.7, 2.1 28.7, 10.5 39.3 C 0.0 56.0, 38.9 55.4, 50.6 43.4 C 43.4 50.5, 4.2 83.7, 13.1 68.8 C 19.1 79.1, 18.4 20.5, 32.3 22.3 Z" fill="none" fill-opacity="0.27" stroke="hsl(322, 74%, 44%)" stroke-width="4.69"  transform="translate(68.2 53.2) rotate(82.7) scale(1.86 1.64)" />
<path d="M 29.0 16.2 C 29.8 13.5, 37.2 100.0, 43.4 92.3 C 46.6 100.0, 0.4 43.5, 13.8 49.8 C 4.4 42.3, 79.4 47.7, 71.1 39.8 C 88.9 26.2, 20.2 46.9, 20.9 59.4 C 16.1 62.4, 73.6 9.8, 84.8 15.0 C 79.8 0.0, 43.2 26.7, 42.5 27.5 C 34.4 44.5, 72.5 57.7, 63.8 54.5 C 77.7 71.8, 25.3 46.6, 22.0 51.1 Z" fill="none" fill-opacity="0.53" stroke="hsl(183, 71%, 60%)" stroke-width="2.82"  transform="translate(38.2 35.8) rotate(27.8) scale(1.88 0.95)" />
<path d="M 47.7 75.6 C 58.3 75.2, 48.3 12.8, 46.7 20.8 C 57.0 38.0, 52.1 58.2, 56.1 46.5 C 40.7 41.6, 35.1 10.9, 40.4 9.9 C 28.0 14.9, 86.9 23.1, 94.6 20.2 C 93.7 34.2, 28.9 7.3, 19.3 16.0 C 1.5 0.0, 38.3 52.9, 30.4 40.9 C 31.6 42.2, 74.1 12.4, 61.8 4.9 C 75.8 0.0, 26.8 56.6, 41.7 69.6 C 23.8 65.8, 0.0 60.8, 10.2 69.9 Z" fill="hsl(2, 82%, 55%)" fill-opacity="0.53" stroke="none" stroke-width="1.06"   />
<circle cx="82.7" cy="82.3" r="3.3" fill="url(#g1)" fill-opacity="0.48"   />
<path d="M 60.3 13.1 C 47.3 27.8, 30.0 10.6, 45.0 23.5 C 53.0 32.2, 78.4 58.0, 71.2 56.6 C 88.0 39.8, 74.0 93.4, 75.3 91.3 C 68.1 93.7, 73.5 78.4, 72.8 91.0 C 90.8 78.8, 40.2 27.4, 31.2 26.1 C 32.4 34.9, 13.4 6.3, 8.1 17.3 C 0.5 16.2, 51.8 65.2, 45.9 54.9 C 45.2 39.8, 58.8 80.6, 51.1 92.4 Z" fill="none" fill-opacity="0.82" stroke="hsl(144, 86%, 72%)" stroke-width="2.88"   />
<path d="M 24.1 21.5 C 36.9 39.6, 63.2 69.1, 75.5 75.7 C 84.2 61.3, 0.0 43.1, 3.9 54.0 C 4.2 50.4, 95.1 63.6, 94.7 70.3 C 81.7 63.6, 59.2 31.0, 63.0 16.3 C 79.7 10.7, 85.1 67.1, 82.4 63.8 C 70.1 80.7, 1.6 53.4, 6.2 40.7 " fill="hsl(106, 75%, 59%)" fill-opacity="0.93" stroke="none" stroke-width="4.56"  transform="translate(21.2 57.4) rotate(224.5) scale(1.97 1.06)" />
<circle cx="36.5" cy="0.8" r="7.1" fill="hsl(242, 72%, 49%)" fill-opacity="0.91"  transform="translate(73.6 67.0) rotate(165.2) scale(0.78 0.69)" />
<path d="M 71.1 34.0 C 56.5 21.8, 85.2 25.0, 78.3 15.7 C 76.8 31.4, 99.5 62.8, 97.9 54.7 C 92.5 57.9, 94.0 1.5, 87.1 7.7 C 95.7 17.7, 92.2 56.1, 95.1 51.4 C 100.0 53.5, 22.0 22.7, 14.2 37.4 C 12.3 29.0, 11.8 46.4, 22.0 38.1 Z" fill="none" fill-opacity="0.40" stroke="hsl(242, 72%, 49%)" stroke-width="0.92"  transform="translate(36.5 97.1) rotate(250.8) scale(1.56 1.63)" />
<rect x="41.1" y="42.6" width="42.2" height="24.4" rx="5.0" fill="hsl(144, 86%, 72%)" fill-opacity="0.83"   transform="translate(18.2 44.7) rotate(256.4) scale(0.54 1.87)" />
<path d="M 89.7 10.6 C 100.0 27.7, 33.9 27.0, 43.3 12.2 C 48.1 7.4, 53.2 87.0, 45.4 92.8 C 44.4 100.0, 0.0 30.8, 13.0 33.3 C 27.3 17.0, 88.3 4.7, 80.4 13.9 C 78.5 0.0, 51.5 25.3, 37.2 11.9 C 21.1 12.0, 49.6 48.8, 37.1 43.9 C 45.7 56.1, 79.4 43.5, 71.6 40.1 C 86.9 37.7, 16.9 77.8, 30.2 86.1 C 37.2 100.0, 31.8 25.0, 37.0 35.3 C 38.7 43.2, 63.3 46.7, 53.9 57.5 Z" fill="hsl(86, 72%, 68%)" fill-opacity="0.55" stroke="none" stroke-width="1.31"  transform="translate(75.7 29.0) rotate(253.9) scale(0.59 1.72)" />
<rect x="12.8" y="81.7" width="24.1" height="17.4" rx="19.6" fill="hsl(151, 70%, 62%)" fill-opacity="0.38"   transform="translate(85.0 67.0) rotate(39.1) scale(1.33 1.89)" />
<path d="M 85.9 93.5 C 78.6 86.8, 6.4 47.8, 11.5 49.1 C 1.8 58.9, 93.1 47.6, 88.8 36.0 C 100.0 33.7, 4.2 93.2, 7.8 82.9 C 8.6 76.5, 0.0 26.1, 0.4 26.7 C 11.7 36.0, 73.3 89.4, 83.3 88.0 C 96.2 93.2, 73.2 59.3, 64.6 71.5 C 45.8 72.8, 100.0 58.5, 89.0 57.9 Z" fill="hsl(83, 65%, 44%)" fill-opacity="0.63" stroke="none" stroke-width="4.77"  transform="translate(92.3 91.0) rotate(66.1) scale(1.07 1.58)" />
<circle cx="56.7" cy="18.5" r="13.9" fill="url(#g1)" fill-opacity="0.61" filter="url(#f1)" transform="translate(29.0 34.0) rotate(138.9) scale(0.74 1.24)" />
<path d="M 76.7 25.9 C 72.0 38.7, 5.7 93.0, 5.9 96.1 C 3.7 100.0, 44.0 64.9, 54.1 55.8 C 53.6 44.4, 13.2 3.6, 26.3 10.9 C 36.2 7.2, 69.8 50.4, 57.4 39.3 C 55.1 59.3, 52.7 3.4, 46.5 14.1 C 30.9 2.9, 28.4 25.7, 40.2 14.6 C 52.4 18.8, 90.3 100.0, 78.0 96.6 C 61.2 100.0, 29.7 27.0, 34.6 29.3 C 31.6 33.6, 31.7 68.0, 28.2 62.7 C 38.8 46.1, 19.6 62.7, 12.9 68.2 Z" fill="hsl(83, 65%, 44%)" fill-opacity="0.71" stroke="none" stroke-width="1.31"  transform="translate(53.5 92.6) rotate(245.9) scale(1.99 1.65)" />
<path d="M 53.3 11.2 C 68.4 3.2, 96.4 71.9, 91.1 71.3 C 81.8 80.9, 77.4 36.3, 89.7 21.9 C 75.7 23.0, 0.0 10.0, 13.0 9.2 C 5.0 20.3, 0.0 70.2, 1.1 56.7 C 10.3 48.8, 14.8 24.1, 21.8 12.9 C 12.3 9.9, 71.1 41.9, 59.4 53.6 Z" fill="hsl(242, 72%, 49%)" fill-opacity="0.84" stroke="none" stroke-width="5.27"   />
<path d="M 20.8 41.5 C 1.7 44.6, 61.8 50.1, 61.9 41.9 C 65.6 44.9, 33.7 32.6, 30.8 37.6 C 17.9 57.4, 44.3 38.8, 37.0 41.5 C 44.6 34.8, 71.4 35.3, 58.7 46.8 C 49.0 32.7, 53.6 78.7, 60.7 73.5 C 73.1 85.6, 85.0 100.0, 80.8 89.3 C 71.9 89.8, 32.9 100.0, 19.5 89.1 C 35.6 69.4, 30.9 0.0, 32.2 13.0 C 12.4 3.7, 53.7 100.0, 65.4 98.2 " fill="hsl(144, 86%, 72%)" fill-opacity="0.33" stroke="none" stroke-width="1.22"  transform="translate(45.0 7.6) rotate(17.2) scale(1.32 1.66)" />
<rect x="43.4" y="40.4" width="42.8" height="38.0" rx="0" fill="hsl(104, 72%, 65%)" fill-opacity="0.74" stroke="hsl(144, 86%, 72%)" stroke-width="1.1"  transform="translate(84.9 48.2) rotate(244.7) scale(1.61 0.95)" />
<path d="M 35.9 25.2 C 40.7 14.0, 23.1 30.8, 20.2 35.8 C 27.2 43.2, 26.7 24.6, 29.8 33.7 C 37.7 50.0, 24.3 86.0, 27.2 99.6 C 30.1 92.3, 54.5 30.4, 43.7 37.5 C 62.3 47.8, 22.8 34.3, 12.5 26.0 C 0.0 11.1, 66.0 43.6, 64.2 40.3 C 65.4 49.1, 19.2 43.4, 30.0 55.0 C 41.6 47.8, 13.3 19.6, 1.8 24.3 C 15.8 12.4, 100.0 59.2, 90.3 46.1 C 100.0 43.6, 48.6 99.5, 49.5 99.7 Z" fill="hsl(86, 72%, 68%)" fill-opacity="0.52" stroke="none" stroke-width="3.31"   />
<path d="M 31.4 2.3 C 50.9 18.9, 92.8 18.0, 92.7 31.9 C 99.9 43.0, 52.9 25.2, 57.9 36.3 C 70.0 52.7, 23.7 76.8, 38.6 70.8 C 32.1 56.7, 8.4 51.7, 17.3 51.8 C 0.0 40.6, 35.6 59.5, 31.6 56.5 C 33.9 71.0, 93.7 48.6, 87.5 54.2 C 75.1 41.8, 30.1 67.1, 37.9 59.8 " fill="none" fill-opacity="0.46" stroke="hsl(40, 53%, 69%)" stroke-width="4.04"  transform="translate(2.6 88.4) rotate(73.3) scale(1.00 0.88)" />
<rect x="3.0" y="26.7" width="36.9" height="39.2" rx="0" fill="none" fill-opacity="0.62" stroke="hsl(104, 72%, 65%)" stroke-width="4.6"  transform="translate(1.5 82.9) rotate(297.1) scale(1.93 1.88)" />
<path d="M 88.2 4.8 C 93.6 0.0, 4.0 67.9, 3.5 54.1 C 13.9 52.3, 54.2 15.2, 63.1 8.0 C 68.2 20.5, 26.2 42.6, 28.3 38.3 C 34.2 37.9, 0.0 76.6, 4.5 67.9 C 6.4 49.6, 11.3 72.3, 13.8 57.8 C 26.7 76.5, 55.7 3.8, 69.5 9.1 Z" fill="hsl(290, 83%, 63%)" fill-opacity="0.90" stroke="none" stroke-width="4.07"  transform="translate(91.5 71.0) rotate(108.3) scale(1.03 0.66)" />
<rect x="66.2" y="68.3" width="20.3" height="11.0" rx="0" fill="hsl(144, 86%, 72%)" fill-opacity="0.58"   transform="translate(89.6 25.2) rotate(129.8) scale(1.35 1.24)" />
<circle cx="69.9" cy="14.7" r="0.3" fill="url(#g2)" fill-opacity="0.66" filter="url(#f1)" transform="translate(45.2 7.6) rotate(202.7) scale(0.62 1.40)" />
<rect x="60.5" y="35.0" width="26.6" height="13.1" rx="0" fill="none" fill-opacity="0.55" stroke="hsl(40, 53%, 69%)" stroke-width="4.1"  transform="translate(13.1 22.9) rotate(351.3) scale(2.00 1.46)" />
<path d="M 51.9 58.6 C 34.7 41.1, 50.3 92.8, 44.0 93.8 C 62.6 81.8, 33.5 91.6, 38.9 86.4 C 22.1 94.8, 95.7 63.5, 87.1 72.2 C 89.0 76.2, 63.0 100.0, 49.6 97.6 C 62.8 95.2, 45.9 64.1, 42.2 58.4 C 61.2 47.9, 39.6 46.9, 32.6 46.0 C 16.7 34.1, 33.0 8.6, 19.6 21.6 Z" fill="hsl(83, 65%, 44%)" fill-opacity="0.41" stroke="none" stroke-width="5.17"  transform="translate(29.9 2.7) rotate(221.2) scale(1.37 1.33)" />
<path d="M 14.9 16.0 C 18.9 19.2, 3.2 48.0, 0.9 48.5 C 0.0 31.4, 39.0 13.5, 49.3 8.7 C 32.4 0.0, 60.1 11.6, 45.7 26.0 C 44.8 12.8, 78.2 27.2, 66.9 33.4 C 50.9 21.5, 77.3 17.4, 73.8 6.7 C 57.3 19.9, 77.5 87.2, 82.1 77.5 C 93.0 61.4, 35.2 37.9, 26.5 26.1 C 22.7 30.4, 77.4 28.7, 75.9 20.1 C 60.7 16.5, 69.3 6.3, 57.5 7.2 C 38.9 0.0, 88.6 43.6, 95.0 52.6 Z" fill="none" fill-opacity="0.35" stroke="hsl(242, 72%, 49%)" stroke-width="3.36"  transform="translate(45.8 86.7) rotate(135.3) scale(1.01 1.20)" />
<rect x="25.7" y="6.2" width="47.5" height="11.8" rx="0" fill="none" fill-opacity="0.83"  filter="url(#f1)" transform="translate(45.1 87.7) rotate(203.4) scale(1.31 1.55)" />
<path d="M 3.1 59.0 C 14.3 69.9, 42.2 84.1, 31.7 91.4 C 46.1 87.7, 55.8 12.0, 59.6 1.9 C 65.1 5.3, 100.0 57.2, 95.3 62.9 C 83.7 64.4, 29.5 6.1, 15.5 4.9 C 33.1 0.0, 17.2 68.1, 8.2 73.5 C 5.0 73.8, 25.4 67.2, 35.9 73.3 Z" fill="none" fill-opacity="0.74" stroke="hsl(104, 72%, 65%)" stroke-width="0.83"  transform="translate(50.8 5.9) rotate(275.7) scale(1.08 1.01)" />
<path d="M 28.8 57.5 C 10.8 67.4, 97.3 69.6, 85.5 55.1 C 100.0 39.3, 46.6 61.1, 35.7 56.9 C 45.4 69.2, 12.2 96.7, 1.6 91.9 C 12.1 92.5, 17.3 45.5, 11.7 36.3 C 16.5 43.3, 73.9 67.8, 74.4 57.8 C 91.8 43.0, 74.7 49.5, 59.7 42.3 Z" fill="hsl(144, 86%, 72%)" fill-opacity="0.70" stroke="none" stroke-width="2.45"  transform="translate(48.5 33.0) rotate(204.9) scale(1.27 1.03)" />
<rect x="38.1" y="32.5" width="20.3" height="33.5" rx="0" fill="hsl(151, 70%, 62%)" fill-opacity="0.76"   transform="translate(100.0 88.8) rotate(358.6) scale(0.95 0.98)" />
<path d="M 57.9 80.6 C 76.0 61.7, 22.3 0.0, 8.1 3.0 C 16.8 21.8, 50.9 0.0, 38.6 8.4 C 25.4 2.7, 37.8 47.2, 39.4 44.8 C 35.2 45.6, 42.3 71.4, 50.7 68.8 C 59.3 77.9, 49.3 42.5, 55.4 32.0 C 64.5 22.6, 100.0 100.0, 90.5 93.9 C 100.0 100.0, 69.5 13.7, 79.2 28.2 C 73.5 9.4, 85.4 37.4, 98.7 45.3 C 100.0 56.9, 87.0 75.0, 87.9 70.3 Z" fill="hsl(106, 75%, 59%)" fill-opacity="0.53" stroke="none" stroke-width="2.02"  transform="translate(23.3 64.3) rotate(334.9) scale(1.52 1.30)" />
<path d="M 7.7 96.9 C 0.0 100.0, 42.1 100.0, 51.8 98.4 C 61.4 100.0, 26.7 6.7, 21.2 8.8 C 14.4 0.0, 10.5 75.7, 11.3 60.8 C 9.2 64.4, 51.7 43.4, 57.6 36.1 C 60.4 41.3, 78.3 8.5, 88.3 22.8 C 76.4 23.6, 38.0 92.1, 25.5 79.4 Z" fill="none" fill-opacity="0.91" stroke="hsl(83, 65%, 44%)" stroke-width="5.22"   />
<path d="M 26.4 29.6 C 37.5 18.6, 70.6 40.9, 65.3 50.2 C 80.3 35.9, 69.9 68.3, 75.1 75.1 C 76.0 94.8, 100.0 70.1, 90.3 80.7 C 72.3 73.3, 77.9 29.8, 91.1 38.0 C 87.1 47.7, 18.6 73.5, 24.1 59.8 C 5.7 60.1, 35.1 37.8, 43.7 40.8 C 60.9 44.4, 100.0 5.6, 94.9 4.2 Z" fill="none" fill-opacity="0.92" stroke="hsl(242, 72%, 49%)" stroke-width="1.58"  transform="translate(94.1 72.1) rotate(238.7) scale(1.42 1.82)" />
<path d="M 95.1 49.8 C 79.4 67.2, 90.6 62.7, 87.8 61.4 C 69.6 78.6, 28.9 85.3, 16.5 77.1 C 20.7 90.5, 14.3 80.9, 27.1 79.6 C 34.1 83.4, 56.3 91.7, 50.1 89.5 C 51.7 100.0, 43.3 94.5, 44.5 87.2 C 47.4 90.4, 22.7 35.3, 36.8 33.0 C 24.5 37.6, 80.4 36.0, 74.7 45.2 C 81.0 29.6, 71.5 35.8, 77.3 26.6 C 93.7 28.8, 3.4 74.6, 10.4 72.4 Z" fill="hsl(106, 75%, 59%)" fill-opacity="0.64" stroke="none" stroke-width="1.01"   />
<path d="M 98.8 2.6 C 100.0 0.0, 76.8 65.2, 68.6 79.1 C 72.7 77.8, 15.0 27.0, 8.9 16.5 C 23.5 28.2, 0.0 21.4, 10.5 27.9 C 0.9 26.7, 100.0 92.3, 95.1 80.8 C 76.3 66.0, 37.2 15.4, 29.8 29.2 C 18.6 15.9, 10.2 61.0, 22.8 72.2 C 31.8 90.5, 69.0 60.9, 75.6 60.6 C 76.7 44.6, 43.9 77.4, 35.7 82.4 C 52.0 91.5, 88.5 84.0, 79.1 75.4 Z" fill="none" fill-opacity="0.72" stroke="hsl(106, 75%, 59%)" stroke-width="2.38"  transform="translate(2.5 38.3) rotate(235.5) scale(1.13 1.82)" />
<circle cx="14.3" cy="1.7" r="9.4" fill="url(#g1)" fill-opacity="1.00"  transform="translate(73.2 88.8) rotate(86.0) scale(0.88 0.78)" />
<path d="M 98.4 39.0 C 93.9 48.4, 28.4 22.3, 41.6 26.4 C 55.6 13.7, 45.1 55.4, 34.8 51.0 C 52.4 35.9, 32.0 39.6, 36.2 29.5 C 19.3 10.5, 97.5 69.8, 89.9 84.0 C 82.1 72.7, 93.1 0.0, 96.7 2.7 C 99.2 0.0, 9.4 6.9, 13.0 9.6 C 0.0 14.7, 94.1 54.5, 92.5 54.5 C 81.8 71.4, 17.9 58.3, 14.4 60.0 C 18.2 51.3, 44.5 16.2, 51.6 1.9 Z" fill="none" fill-opacity="0.94" stroke="hsl(242, 72%, 49%)" stroke-width="2.19"  transform="translate(23.6 26.2) rotate(10.4) scale(1.30 1.90)" />
<path d="M 58.1 60.7 C 58.5 65.6, 48.7 66.3, 46.1 54.8 C 28.2 42.4, 95.4 46.0, 90.3 33.9 C 85.3 16.5, 0.0 9.6, 8.8 12.5 C 27.2 20.4, 61.9 15.2, 53.7 16.0 C 43.2 18.0, 87.3 2.3, 81.7 4.2 C 62.4 0.0, 89.7 87.3, 89.1 92.8 C 89.4 99.6, 38.3 61.3, 49.9 70.0 Z" fill="hsl(183, 71%, 60%)" fill-opacity="0.81" stroke="none" stroke-width="2.41"   />
<path d="M 15.7 23.9 C 17.7 23.1, 25.2 84.9, 29.1 72.9 C 39.9 69.9, 89.8 58.2, 88.5 55.2 C 98.2 71.2, 38.2 86.4, 29.8 77.9 C 10.3 95.1, 31.3 42.8, 31.0 40.2 C 48.0 20.8, 36.3 5.8, 33.7 5.9 C 25.2 0.0, 44.7 18.7, 30.8 33.1 C 27.9 46.8, 80.1 56.2, 77.3 67.0 C 73.2 69.0, 0.0 57.4, 0.3 61.7 C 0.0 50.8, 12.4 83.5, 7.1 80.2 Z" fill="hsl(322, 74%, 44%)" fill-opacity="0.67" stroke="none" stroke-width="1.03"  transform="translate(42.7 65.2) rotate(121.0) scale(1.62 0.78)" />
<path d="M 84.8 7.3 C 100.0 0.0, 33.5 0.0, 34.4 3.7 C 26.5 0.0, 78.8 5.4, 75.8 10.5 C 76.7 3.7, 1.6 57.9, 6.1 71.3 C 0.0 72.2, 27.3 30.4, 19.6 36.5 C 3.6 53.5, 18.2 77.3, 26.7 68.4 C 44.2 64.8, 71.5 6.9, 65.0 14.8 Z" fill="hsl(151, 70%, 62%)" fill-opacity="0.53" stroke="none" stroke-width="4.34"  transform="translate(96.4 93.1) rotate(60.9) scale(0.98 1.14)" />
<rect x="29.3" y="69.9" width="46.6" height="29.4" rx="0" fill="hsl(106, 75%, 59%)" fill-opacity="0.35"   transform="translate(59.0 93.7) rotate(277.0) scale(1.85 1.33)" />
<rect x="9.5" y="78.2" width="45.8" height="12.1" rx="0" fill="none" fill-opacity="0.28" stroke="hsl(2, 82%, 55%)" stroke-width="5.0"  transform="translate(26.1 37.7) rotate(74.0) scale(1.19 1.35)" />
<circle cx="15.0" cy="57.7" r="7.5" fill="hsl(290, 83%, 63%)" fill-opacity="0.91"  transform="translate(28.3 68.4) rotate(147.8) scale(1.13 1.95)" />
<path d="M 67.1 67.2 C 68.3 85.8, 13.3 75.2, 12.9 85.1 C 0.2 66.2, 75.4 67.0, 66.1 79.8 C 63.3 79.3, 76.4 65.7, 81.9 59.1 C 71.7 66.2, 27.0 45.6, 20.4 39.9 C 38.6 33.5, 2.0 55.4, 10.1 64.5 C 29.3 53.8, 86.3 94.2, 97.7 88.3 C 85.6 100.0, 5.2 34.4, 10.6 39.2 C 0.0 48.5, 70.5 100.0, 69.7 91.5 C 89.2 100.0, 77.1 12.8, 73.9 8.7 Z" fill="none" fill-opacity="0.51" stroke="hsl(242, 72%, 49%)" stroke-width="2.61"  transform="translate(82.5 13.3) rotate(67.9) scale(1.79 1.59)" />
<path d="M 84.7 36.4 C 96.0 51.7, 22.5 81.6, 17.5 70.8 C 29.8 77.5, 57.0 0.0, 57.2 2.7 C 38.0 0.0, 55.0 17.6, 67.8 4.1 C 78.1 12.2, 47.1 61.7, 55.9 47.4 C 57.1 34.4, 0.0 31.4, 3.6 25.8 C 0.0 35.5, 80.9 15.5, 89.0 11.8 C 100.0 5.2, 50.8 15.6, 52.6 11.5 C 41.8 25.5, 73.7 58.0, 69.8 47.6 Z" fill="none" fill-opacity="0.88" stroke="hsl(83, 65%, 44%)" stroke-width="3.76"  transform="translate(29.5 39.5) rotate(314.2) scale(1.35 1.25)" />
<rect x="39.7" y="37.5" width="42.5" height="15.6" rx="12.3" fill="none" fill-opacity="0.60"   transform="translate(85.8 88.8) rotate(298.9) scale(0.91 1.50)" />
<rect x="62.6" y="9.8" width="31.5" height="39.4" rx="12.9" fill="none" fill-opacity="0.32"   transform="translate(9.7 66.0) rotate(113.2) scale(1.69 1.01)" />
<path d="M 50.9 6.1 C 37.9 0.0, 87.5 24.8, 78.1 15.4 C 71.4 25.7, 39.6 16.3, 33.3 6.9 C 37.8 17.2, 0.0 84.5, 8.8 95.2 C 0.9 100.0, 38.6 90.1, 48.0 84.8 C 66.8 79.8, 75.2 78.3, 71.0 79.2 C 83.8 94.1, 44.0 62.5, 40.3 54.8 C 48.3 65.9, 82.6 59.6, 88.2 74.3 C 74.4 57.9, 24.0 23.6, 15.3 26.3 C 15.2 39.4, 41.3 16.1, 43.9 3.7 Z" fill="hsl(242, 72%, 49%)" fill-opacity="0.93" stroke="none" stroke-width="2.71"   />
<path d="M 68.0 48.0 C 71.8 67.5, 8.5 70.6, 16.2 80.2 C 5.5 76.0, 59.3 62.2, 72.1 51.2 C 70.7 42.7, 25.9 80.0, 40.5 85.6 C 53.9 100.0, 1.0 61.6, 0.5 65.4 C 3.3 62.8, 22.3 4.5, 24.1 2.4 C 4.8 0.0, 4.4 3.0, 10.2 4.4 C 0.0 0.0, 46.9 4.1, 34.1 0.2 Z" fill="hsl(322, 74%, 44%)" fill-opacity="1.00" stroke="none" stroke-width="2.77"  transform="translate(35.9 65.8) rotate(267.2) scale(1.51 1.68)" />
<path d="M 42.6 36.9 C 49.2 26.7, 93.5 15.3, 94.6 10.8 C 93.9 0.0, 26.2 15.0, 37.0 25.2 C 55.8 19.6, 53.9 70.4, 44.4 79.3 C 62.5 68.1, 20.1 30.0, 12.1 20.7 C 0.0 26.3, 27.6 92.6, 27.5 81.9 C 20.1 87.5, 18.4 15.7, 19.0 23.7 C 28.7 28.3, 87.0 78.5, 91.0 81.7 C 97.3 81.9, 80.6 15.3, 65.9 27.8 C 59.3 20.6, 24.5 100.0, 28.8 99.0 C 12.2 99.1, 17.5 0.0, 5.4 11.4 Z" fill="hsl(40, 53%, 69%)" fill-opacity="0.33" stroke="none" stroke-width="1.04"  transform="translate(92.6 50.1) rotate(322.1) scale(1.74 0.64)" />
<circle cx="83.8" cy="42.3" r="3.9" fill="url(#g2)" fill-opacity="0.40"  transform="translate(17.5 83.1) rotate(48.3) scale(1.78 1.79)" />
<path d="M 26.0 97.5 C 16.0 100.0, 17.4 83.8, 4.2 87.1 C 0.0 74.7, 71.6 62.5, 86.1 54.8 C 71.2 37.4, 94.0 63.6, 81.4 53.7 C 91.0 39.0, 25.0 86.8, 22.3 85.1 C 17.4 79.5, 71.8 26.1, 58.8 25.7 C 76.5 43.2, 15.3 24.8, 8.0 15.1 C 0.0 6.1, 84.5 73.9, 84.7 77.7 Z" fill="none" fill-opacity="0.36" stroke="hsl(290, 83%, 63%)" stroke-width="2.67"  transform="translate(10.0 66.6) rotate(232.8) scale(0.75 0.73)" />
<path d="M 8.1 35.4 C 10.2 29.9, 40.0 56.8, 47.6 50.0 C 31.6 40.2, 53.5 49.0, 60.8 60.1 C 68.1 55.7, 94.0 43.5, 79.5 50.3 C 69.4 45.3, 2.0 28.2, 16.4 33.2 C 8.8 36.2, 57.9 25.2, 44.1 35.7 C 56.9 46.9, 76.0 27.8, 66.4 27.5 C 82.5 41.0, 32.5 76.5, 28.3 76.1 C 32.6 77.3, 0.3 35.2, 10.9 42.4 C 7.9 33.4, 61.2 27.3, 47.2 16.2 Z" fill="none" fill-opacity="0.76" stroke="hsl(151, 70%, 62%)" stroke-width="2.06"  transform="translate(49.4 82.4) rotate(343.7) scale(1.51 0.68)" />
<rect x="20.2" y="33.3" width="27.2" height="13.7" rx="0" fill="none" fill-opacity="0.91"   transform="translate(50.4 82.1) rotate(259.3) scale(0.80 1.70)" />
<circle cx="40.6" cy="17.4" r="0.4" fill="hsl(2, 82%, 55%)" fill-opacity="0.78"   />
<circle cx="17.7" cy="36.5" r="6.7" fill="url(#g2)" fill-opacity="0.94"  transform="translate(92.0 72.0) rotate(19.3) scale(1.27 1.06)" />
<rect x="45.7" y="52.2" width="33.1" height="32.1" rx="0" fill="none" fill-opacity="0.67"   transform="translate(64.8 30.3) rotate(14.5) scale(0.91 1.89)" />
<path d="M 26.3 93.9 C 32.8 80.9, 48.7 0.0, 56.5 9.0 C 38.4 26.6, 55.0 0.0, 64.0 14.0 C 53.7 8.2, 91.9 83.4, 90.4 91.2 C 99.0 83.5, 86.1 21.6, 81.1 36.4 C 97.3 50.5, 6.3 21.3, 18.5 20.6 C 38.1 27.0, 92.3 15.3, 81.7 17.2 C 70.8 0.0, 100.0 21.8, 88.5 25.1 C 93.7 43.1, 64.4 32.1, 68.3 45.1 Z" fill="hsl(2, 82%, 55%)" fill-opacity="0.54" stroke="none" stroke-width="3.20"  transform="translate(18.4 90.2) rotate(101.9) scale(1.53 0.92)" />
<rect x="5.7" y="21.3" width="32.4" height="10.2" rx="0" fill="hsl(106, 75%, 59%)" fill-opacity="0.48"   transform="translate(54.9 82.5) rotate(311.6) scale(1.17 1.24)" />
<circle cx="11.1" cy="95.1" r="4.9" fill="hsl(83, 65%, 44%)" fill-opacity="0.45" filter="url(#f1)" transform="translate(26.2 2.4) rotate(51.1) scale(1.52 1.48)" />
<path d="M 0.5 14.1 C 19.3 13.0, 94.8 88.4, 96.1 78.6 C 88.0 75.9, 57.6 59.7, 44.8 50.5 C 28.9 41.2, 96.3 44.8, 92.9 51.0 C 82.3 49.6, 44.2 61.0, 55.1 50.9 C 39.2 70.5, 75.1 15.0, 87.9 4.5 C 94.9 3.2, 84.2 56.0, 80.4 43.2 C 83.5 34.2, 18.4 0.0, 24.8 13.7 C 34.0 12.7, 19.8 89.1, 33.8 89.1 C 16.8 82.5, 27.3 29.1, 35.3 28.7 C 43.5 41.6, 6.0 69.0, 2.0 65.6 Z" fill="hsl(40, 53%, 69%)" fill-opacity="0.40" stroke="none" stroke-width="3.51"  transform="translate(19.8 27.5) rotate(359.0) scale(0.97 1.52)" />
<circle cx="20.6" cy="71.1" r="10.3" fill="hsl(104, 72%, 65%)" fill-opacity="0.84" filter="url(#f1)" transform="translate(39.4 65.6) rotate(354.7) scale(0.58 1.52)" />
<rect x="19.0" y="41.9" width="38.5" height="21.7" rx="0" fill="hsl(144, 86%, 72%)" fill-opacity="0.74"   transform="translate(11.3 31.1) rotate(176.2) scale(1.83 1.38)" />
<path d="M 71.3 85.4 C 83.2 83.3, 33.8 60.5, 21.2 57.3 C 16.9 64.8, 36.3 14.1, 43.1 14.7 C 48.7 9.2, 0.0 0.0, 6.6 1.0 C 0.0 0.0, 89.3 61.2, 92.6 74.5 C 92.8 90.8, 73.9 90.9, 73.1 95.0 C 83.9 84.0, 87.6 12.6, 74.3 3.2 C 73.5 8.9, 67.9 99.9, 76.8 95.5 C 90.9 100.0, 44.0 70.8, 44.1 58.7 C 43.6 65.9, 74.5 33.9, 77.5 25.3 " fill="hsl(144, 86%, 72%)" fill-opacity="0.44" stroke="none" stroke-width="2.59"  transform="translate(60.4 17.5) rotate(298.5) scale(1.15 0.60)" />
<path d="M 55.0 78.7 C 68.7 67.6, 68.4 51.1, 64.7 65.5 C 51.8 70.0, 95.2 75.0, 84.8 84.8 C 99.0 100.0, 57.5 73.6, 65.6 79.0 C 60.9 94.0, 80.2 71.6, 68.3 71.7 C 80.7 52.4, 67.1 100.0, 81.0 98.8 C 69.4 100.0, 50.7 18.0, 41.4 17.4 C 29.1 21.3, 16.4 29.3, 1.5 43.4 C 15.2 43.4, 72.2 12.4, 61.2 26.6 " fill="hsl(322, 74%, 44%)" fill-opacity="0.79" stroke="none" stroke-width="4.32"  transform="translate(72.7 97.0) rotate(344.5) scale(1.73 1.41)" />
<path d="M 23.0 69.5 C 36.4 58.9, 23.8 11.0, 35.1 12.5 C 50.3 22.7, 14.8 69.7, 10.0 66.3 C 15.3 72.6, 70.1 100.0, 67.3 100.0 C 71.5 95.7, 29.7 48.5, 15.4 60.9 C 17.1 59.1, 81.2 32.8, 74.9 21.5 C 75.0 3.8, 81.4 78.0, 67.9 92.1 " fill="none" fill-opacity="0.65" stroke="hsl(40, 53%, 69%)" stroke-width="2.78"  transform="translate(56.8 34.5) rotate(76.9) scale(0.86 1.26)" />
<rect x="70.9" y="68.4" width="27.3" height="29.3" rx="0" fill="hsl(104, 72%, 65%)" fill-opacity="0.91"   transform="translate(56.3 43.9) rotate(343.8) scale(1.67 1.88)" />
<rect x="7.1" y="51.5" width="42.0" height="27.9" rx="5.3" fill="hsl(183, 71%, 60%)" fill-opacity="0.80"    />
<path d="M 77.6 15.6 C 72.4 18.6, 61.2 85.9, 59.6 96.7 C 62.9 100.0, 68.6 1.5, 64.0 1.7 C 69.1 16.4, 78.7 0.0, 91.4 7.1 C 100.0 0.0, 68.9 69.7, 57.7 62.5 C 44.3 78.4, 0.0 7.0, 1.1 6.2 C 0.0 0.0, 4.6 46.6, 16.4 34.0 C 22.9 38.4, 75.0 95.6, 72.3 89.9 C 78.9 84.2, 30.3 0.0, 38.1 7.7 C 53.1 0.0, 27.3 28.9, 33.5 21.8 C 32.1 10.2, 100.0 17.2, 93.1 22.1 " fill="none" fill-opacity="0.90" stroke="hsl(40, 53%, 69%)" stroke-width="2.23"  transform="translate(57.2 61.2) rotate(301.1) scale(1.59 1.00)" />
<path d="M 27.6 60.6 C 31.3 44.5, 18.6 94.4, 8.3 81.7 C 5.6 84.1, 5.3 12.4, 8.8 6.4 C 0.0 0.0, 28.4 27.0, 25.8 15.9 C 30.4 33.5, 62.6 9.3, 51.6 18.4 C 65.7 3.3, 10.3 59.9, 2.7 50.4 C 11.7 58.6, 75.8 19.1, 68.2 15.8 C 77.2 9.2, 60.1 0.0, 71.6 3.6 Z" fill="hsl(40, 53%, 69%)" fill-opacity="0.75" stroke="none" stroke-width="4.71"  transform="translate(88.6 5.2) rotate(259.9) scale(0.86 0.98)" />
<path d="M 35.9 59.7 C 40.6 48.1, 72.0 18.9, 68.7 9.4 C 74.6 0.0, 39.3 84.8, 43.9 97.6 C 57.5 95.9, 7.0 100.0, 20.6 98.9 C 13.6 100.0, 2.5 81.1, 10.2 73.2 C 7.0 54.1, 40.6 54.2, 55.0 39.7 C 67.0 40.0, 8.0 45.9, 18.9 31.5 C 4.3 47.0, 65.1 65.4, 78.7 63.1 C 62.8 78.3, 37.3 6.4, 28.9 21.2 C 41.5 32.1, 75.1 93.1, 80.4 99.0 C 90.1 93.0, 42.1 16.0, 35.9 23.3 Z" fill="none" fill-opacity="0.69" stroke="hsl(40, 53%, 69%)" stroke-width="3.32"  transform="translate(15.3 51.9) rotate(327.0) scale(1.45 1.45)" />
<path d="M 61.7 64.1 C 44.4 74.4, 27.6 69.9, 22.5 82.4 C 37.0 100.0, 88.8 34.5, 97.7 31.8 C 93.1 44.5, 88.0 18.5, 78.8 7.9 C 79.8 0.0, 100.0 65.5, 91.0 64.6 C 90.5 47.4, 50.1 85.5, 64.6 96.9 C 76.5 94.3, 16.8 53.3, 31.2 49.7 C 27.0 60.1, 16.8 1.9, 17.0 4.1 Z" fill="none" fill-opacity="0.42" stroke="hsl(242, 72%, 49%)" stroke-width="4.68"  transform="translate(97.6 77.5) rotate(44.5) scale(1.98 1.42)" />
<rect x="23.8" y="3.4" width="49.5" height="29.8" rx="0" fill="none" fill-opacity="0.65" stroke="hsl(2, 82%, 55%)" stroke-width="1.4" filter="url(#f1)" transform="translate(23.1 97.2) rotate(53.3) scale(2.00 1.53)" />
<rect x="59.2" y="65.3" width="29.4" height="23.4" rx="7.9" fill="hsl(83, 65%, 44%)" fill-opacity="0.80"   transform="translate(47.7 37.5) rotate(246.0) scale(0.52 1.55)" />
<path d="M 74.5 58.2 C 79.3 72.9, 62.8 5.6, 55.0 1.3 C 57.0 0.0, 42.0 9.6, 47.3 16.3 C 27.5 11.9, 83.1 38.9, 73.1 53.7 C 54.0 62.3, 15.9 66.1, 3.9 51.2 C 0.0 58.4, 9.8 92.2, 20.8 89.4 C 19.8 82.1, 41.5 78.6, 29.1 76.0 C 13.2 89.9, 17.5 52.3, 31.2 46.5 C 50.8 44.4, 58.6 50.0, 57.9 49.2 C 64.8 54.3, 82.2 7.9, 85.7 9.4 C 97.2 13.4, 33.1 15.8, 18.8 23.7 Z" fill="none" fill-opacity="0.36" stroke="hsl(151, 70%, 62%)" stroke-width="4.94"   />
<rect x="43.5" y="70.5" width="25.1" height="21.0" rx="11.9" fill="hsl(151, 70%, 62%)" fill-opacity="0.99"   transform="translate(2.2 72.2) rotate(279.0) scale(0.55 1.20)" />
<path d="M 39.6 71.8 C 48.1 69.4, 100.0 33.8, 92.2 43.9 C 94.9 43.7, 30.9 13.6, 16.0 6.4 C 20.9 15.7, 63.9 18.6, 62.6 5.8 C 63.1 24.5, 71.2 87.9, 72.2 98.7 C 63.9 90.6, 70.9 6.4, 66.8 19.9 C 81.1 1.0, 65.8 14.2, 64.6 16.4 C 71.8 33.4, 7.6 59.7, 11.2 48.0 C 4.2 36.6, 22.1 77.2, 8.6 89.9 Z" fill="hsl(2, 82%, 55%)" fill-opacity="0.87" stroke="none" stroke-width="3.32"  transform="translate(43.7 4.4) rotate(146.3) scale(0.87 1.01)" />
<path d="M 20.4 41.6 C 5.6 57.5, 59.7 75.0, 48.8 76.8 C 49.8 59.1, 5.3 43.5, 11.3 57.6 C 12.9 74.8, 7.1 71.8, 13.8 77.0 C 30.4 67.1, 62.6 23.0, 66.6 12.3 C 56.7 12.5, 80.8 0.0, 68.7 1.6 C 83.8 18.6, 53.6 48.6, 51.5 35.3 C 71.5 41.4, 14.5 54.7, 15.8 43.9 C 21.6 62.0, 35.5 93.5, 30.9 80.8 Z" fill="none" fill-opacity="0.26" stroke="hsl(86, 72%, 68%)" stroke-width="3.79"  transform="translate(13.0 16.6) rotate(135.3) scale(0.52 1.12)" />
<path d="M 4.9 86.0 C 24.5 100.0, 9.1 100.0, 15.0 96.2 C 17.8 79.1, 52.3 79.0, 48.4 78.5 C 41.2 65.2, 100.0 43.9, 96.5 38.7 C 100.0 48.5, 63.5 71.1, 53.3 76.8 C 55.6 95.0, 69.0 88.0, 54.2 77.1 C 71.3 66.5, 57.0 22.7, 52.7 24.3 C 71.6 35.4, 52.6 80.2, 59.7 72.8 C 48.6 63.8, 22.9 78.4, 27.1 85.7 C 35.1 97.7, 93.0 47.3, 78.2 40.1 Z" fill="hsl(106, 75%, 59%)" fill-opacity="0.26" stroke="none" stroke-width="2.41"  transform="translate(20.8 82.9) rotate(162.0) scale(1.79 1.49)" />
<path d="M 23.1 1.9 C 19.9 19.9, 81.9 0.0, 73.3 9.4 C 62.0 8.9, 56.3 77.5, 58.8 88.3 C 53.8 75.5, 84.8 79.3, 85.3 70.0 C 84.7 70.7, 39.9 19.9, 50.1 17.7 C 39.6 11.8, 66.8 66.0, 68.5 53.9 C 57.2 67.2, 43.4 27.8, 38.2 35.7 C 40.3 24.1, 55.2 71.1, 68.2 57.9 Z" fill="hsl(86, 72%, 68%)" fill-opacity="0.62" stroke="none" stroke-width="2.99"  transform="translate(93.0 9.6) rotate(140.6) scale(1.30 1.50)" />
<circle cx="94.3" cy="21.0" r="10.7" fill="url(#g0)" fill-opacity="0.46"   />
<circle cx="65.1" cy="56.0" r="6.7" fill="hsl(242, 72%, 49%)" fill-opacity="0.46"  transform="translate(12.4 47.3) rotate(110.5) scale(1.61 1.74)" />
<circle cx="69.7" cy="99.7" r="1.0" fill="url(#g0)" fill-opacity="0.65"  transform="translate(9.6 55.9) rotate(152.3) scale(0.95 1.03)" />
<path d="M 89.8 36.6 C 100.0 17.8, 80.8 62.0, 86.0 76.0 C 91.6 71.2, 44.0 57.0, 30.9 61.7 C 34.7 75.8, 77.8 69.9, 87.4 67.3 C 81.4 47.4, 72.4 58.3, 83.5 53.8 C 69.6 45.0, 16.2 88.7, 24.7 97.0 C 15.4 100.0, 13.0 5.8, 21.7 12.8 C 34.8 23.5, 100.0 24.3, 90.3 37.7 C 72.5 46.0, 15.3 83.6, 6.3 79.8 Z" fill="hsl(183, 71%, 60%)" fill-opacity="0.91" stroke="none" stroke-width="4.38"  transform="translate(90.7 53.3) rotate(223.7) scale(1.66 0.63)" />
<circle cx="97.4" cy="16.3" r="8.4" fill="hsl(2, 82%, 55%)" fill-opacity="1.00"  transform="translate(72.8 38.7) rotate(159.0) scale(1.07 1.99)" />
<circle cx="77.7" cy="55.4" r="14.3" fill="url(#g0)" fill-opacity="0.56"  transform="translate(26.6 9.3) rotate(76.2) scale(0.61 0.61)" />
<path d="M 73.5 31.1 C 84.1 34.2, 52.7 34.1, 39.2 34.9 C 40.1 37.8, 48.0 9.2, 40.3 18.7 C 60.2 30.3, 57.5 86.1, 50.5 77.6 C 54.3 64.7, 59.0 6.4, 45.8 11.8 C 38.7 29.4, 82.5 66.0, 70.3 77.9 C 50.4 85.4, 31.4 17.5, 23.7 9.1 Z" fill="hsl(151, 70%, 62%)" fill-opacity="0.65" stroke="none" stroke-width="2.53"  transform="translate(48.3 2.4) rotate(338.4) scale(1.55 1.60)" />
<path d="M 76.3 15.0 C 86.9 0.0, 66.4 56.8, 61.8 60.7 C 71.4 63.1, 76.8 1.6, 80.6 11.5 C 96.1 2.5, 47.9 70.6, 49.7 76.0 C 60.0 68.1, 57.2 61.5, 47.6 66.3 C 38.7 72.3, 14.5 52.3, 10.5 57.1 C 22.3 47.0, 45.6 42.1, 48.8 41.5 C 62.8 23.1, 52.3 90.8, 55.2 91.7 C 61.3 85.2, 100.0 55.8, 94.3 62.5 C 100.0 72.6, 24.5 39.9, 30.1 35.4 " fill="hsl(106, 75%, 59%)" fill-opacity="0.77" stroke="none" stroke-width="4.13"  transform="translate(41.1 57.3) rotate(21.6) scale(1.16 1.04)" />
<path d="M 41.3 63.9 C 28.8 78.0, 0.0 77.2, 3.7 81.5 C 14.3 62.5, 19.0 0.0, 30.9 9.8 C 28.4 29.8, 61.7 8.7, 56.5 9.0 C 71.9 0.0, 74.0 84.0, 75.2 86.1 C 70.8 69.6, 28.4 83.6, 31.1 91.0 C 21.1 82.3, 59.1 9.2, 65.0 9.1 C 62.0 0.0, 99.6 37.7, 93.3 22.9 C 96.2 20.8, 14.2 36.8, 28.3 50.2 C 18.0 60.8, 1.7 9.9, 2.8 3.4 C 0.0 0.0, 16.7 39.2, 24.5 24.4 Z" fill="hsl(183, 71%, 60%)" fill-opacity="0.86" stroke="none" stroke-width="1.31"  transform="translate(90.7 91.1) rotate(304.7) scale(1.41 1.53)" />
<rect x="0.1" y="60.9" width="20.9" height="36.3" rx="2.4" fill="hsl(242, 72%, 49%)" fill-opacity="0.34"   transform="translate(42.1 23.4) rotate(92.7) scale(0.68 1.94)" />
<path d="M 48.0 93.9 C 51.8 84.9, 45.9 59.9, 31.0 62.6 C 12.0 57.0, 87.9 85.0, 89.7 70.4 C 72.9 77.7, 55.1 91.0, 47.4 82.6 C 66.5 90.2, 88.5 34.7, 93.0 49.3 C 100.0 66.2, 68.8 70.6, 64.5 77.6 C 75.5 95.2, 68.3 50.4, 55.5 57.4 Z" fill="hsl(106, 75%, 59%)" fill-opacity="0.50" stroke="none" stroke-width="3.41" filter="url(#f1)" transform="translate(40.9 99.9) rotate(106.6) scale(1.50 1.34)" />
<path d="M 64.1 99.8 C 50.1 98.9, 9.3 0.0, 1.9 10.0 C 6.7 7.5, 41.7 23.7, 50.6 10.4 C 31.3 17.7, 17.8 56.9, 21.9 44.3 C 14.2 62.9, 31.6 5.9, 20.7 11.6 C 36.5 0.0, 64.8 80.3, 63.2 75.1 C 46.4 91.0, 32.3 99.6, 19.2 98.9 C 24.3 97.1, 26.9 83.8, 28.1 91.0 C 35.4 74.0, 100.0 32.8, 99.5 33.2 Z" fill="hsl(322, 74%, 44%)" fill-opacity="0.95" stroke="none" stroke-width="1.22"  transform="translate(44.2 48.7) rotate(99.4) scale(0.92 0.79)" />
<rect x="44.8" y="39.6" width="24.6" height="34.5" rx="18.1" fill="hsl(322, 74%, 44%)" fill-opacity="0.94"   transform="translate(94.6 45.5) rotate(322.6) scale(1.42 1.55)" />
<rect x="2.1" y="36.6" width="42.0" height="30.1" rx="17.8" fill="hsl(183, 71%, 60%)" fill-opacity="0.43"    />
<path d="M 13.4 61.7 C 19.9 75.3, 89.6 53.4, 88.3 53.1 C 75.4 64.0, 66.1 87.4, 63.5 74.0 C 46.8 69.5, 37.2 26.1, 32.6 32.0 C 45.6 23.6, 71.3 14.1, 63.7 6.1 C 78.1 0.0, 29.8 14.7, 27.8 2.8 C 39.9 9.4, 34.3 43.5, 41.4 31.0 C 22.0 20.1, 90.5 70.4, 82.8 78.8 C 85.9 75.0, 41.3 9.3, 27.9 13.4 C 46.8 6.8, 55.9 33.7, 69.7 19.7 Z" fill="none" fill-opacity="0.57" stroke="hsl(290, 83%, 63%)" stroke-width="4.76"  transform="translate(22.8 91.1) rotate(235.2) scale(1.28 0.65)" />
<circle cx="44.3" cy="99.8" r="1.5" fill="hsl(183, 71%, 60%)" fill-opacity="0.93"  transform="translate(78.5 6.2) rotate(188.8) scale(0.61 1.85)" />
<rect x="41.7" y="55.3" width="49.1" height="18.8" rx="1.0" fill="hsl(86, 72%, 68%)" fill-opacity="0.61"   transform="translate(13.6 13.6) rotate(54.1) scale(0.66 0.64)" />
<circle cx="21.9" cy="24.9" r="8.4" fill="url(#g2)" fill-opacity="0.88"  transform="translate(44.9 85.9) rotate(37.7) scale(1.77 0.77)" />
<path d="M 94.1 46.7 C 92.1 48.1, 76.5 59.8, 71.2 66.0 C 57.2 74.8, 71.9 25.2, 68.3 22.5 C 49.5 6.6, 26.2 69.9, 35.5 80.6 C 44.6 68.3, 91.1 45.1, 96.5 31.7 C 88.0 39.4, 93.4 17.8, 88.3 17.5 C 100.0 24.2, 75.4 42.1, 72.4 30.2 C 63.6 29.4, 78.5 41.3, 65.7 46.5 Z" fill="hsl(104, 72%, 65%)" fill-opacity="0.75" stroke="none" stroke-width="3.41"  transform="translate(59.6 24.5) rotate(50.8) scale(1.12 1.55)" />
<circle cx="24.0" cy="58.9" r="12.6" fill="hsl(2, 82%, 55%)" fill-opacity="0.45"  transform="translate(36.9 50.6) rotate(151.4) scale(1.92 1.78)" />
<path d="M 74.1 2.8 C 65.0 0.0, 12.0 74.6, 1.4 76.7 C 13.9 92.3, 37.6 6.4, 38.7 4.5 C 31.0 14.8, 17.5 86.0, 25.7 74.7 C 42.2 73.2, 59.5 26.4, 53.8 20.0 C 60.9 37.7, 78.6 65.2, 76.8 63.6 C 94.7 73.8, 12.3 15.5, 7.3 19.7 C 22.4 29.0, 71.0 10.7, 82.0 4.8 C 99.8 19.4, 16.0 85.1, 10.6 95.0 Z" fill="none" fill-opacity="0.53" stroke="hsl(86, 72%, 68%)" stroke-width="3.35"  transform="translate(51.7 85.7) rotate(246.3) scale(1.19 1.32)" />
<path d="M 18.3 7.9 C 1.4 14.9, 60.0 45.2, 69.4 51.9 C 54.2 51.1, 58.3 27.5, 64.9 37.7 C 47.7 42.9, 97.6 44.2, 84.2 44.3 C 93.0 41.2, 11.8 79.1, 24.4 70.2 C 41.1 59.7, 93.6 59.5, 90.4 49.6 C 89.0 40.1, 59.0 90.9, 63.5 78.4 " fill="none" fill-opacity="0.84" stroke="hsl(183, 71%, 60%)" stroke-width="2.61"  transform="translate(50.7 34.8) rotate(125.5) scale(0.97 1.32)" />
<circle cx="20.5" cy="72.1" r="3.1" fill="hsl(2, 82%, 55%)" fill-opacity="0.69"  transform="translate(46.9 24.8) rotate(164.6) scale(1.63 1.36)" />
<circle cx="27.5" cy="38.7" r="3.6" fill="url(#g2)" fill-opacity="0.58"  transform="translate(52.5 58.6) rotate(79.6) scale(0.95 1.61)" />
<path d="M 24.9 23.9 C 26.7 39.8, 1.8 58.9, 16.0 51.9 C 33.9 59.4, 93.6 89.4, 96.7 88.1 C 83.8 70.9, 42.7 100.0, 53.7 98.9 C 65.5 98.8, 70.0 11.5, 57.9 11.5 C 50.9 0.0, 27.0 41.5, 18.4 37.5 C 28.7 21.0, 52.4 82.5, 60.8 69.6 C 46.5 68.4, 56.5 0.0, 43.8 0.0 C 47.2 0.0, 69.4 70.4, 56.1 78.9 C 43.2 59.9, 60.6 88.4, 66.4 77.4 Z" fill="hsl(322, 74%, 44%)" fill-opacity="0.56" stroke="none" stroke-width="4.21"  transform="translate(96.0 55.7) rotate(190.0) scale(1.89 0.80)" />
<rect x="37.7" y="38.4" width="39.6" height="38.3" rx="0" fill="none" fill-opacity="0.30" stroke="hsl(144, 86%, 72%)" stroke-width="1.5"  transform="translate(78.9 75.3) rotate(118.3) scale(0.80 1.56)" />
<path d="M 49.1 87.9 C 31.3 79.4, 54.7 75.9, 65.7 68.3 C 66.2 55.2, 32.5 40.6, 21.6 33.9 C 19.6 50.8, 36.7 59.7, 24.7 51.3 C 25.7 41.4, 7.9 74.6, 1.6 74.7 C 0.0 90.4, 19.8 47.0, 12.3 33.1 C 0.0 40.9, 80.8 100.0, 74.4 88.2 C 63.5 83.1, 100.0 64.8, 90.0 54.4 C 100.0 48.1, 69.1 26.2, 57.0 16.2 C 50.7 34.1, 81.4 68.9, 69.5 59.2 C 67.8 63.1, 11.8 71.3, 4.8 62.9 Z" fill="hsl(322, 74%, 44%)" fill-opacity="0.97" stroke="none" stroke-width="2.39"  transform="translate(22.9 60.3) rotate(144.3) scale(1.05 1.78)" />
<rect x="50.0" y="61.3" width="46.2" height="37.6" rx="2.1" fill="none" fill-opacity="0.57"    />
<circle cx="62.2" cy="81.5" r="6.1" fill="url(#g2)" fill-opacity="0.95"  transform="translate(67.2 65.0) rotate(31.2) scale(1.70 1.31)" />
<path d="M 69.1 90.6 C 69.7 100.0, 3.7 91.7, 9.3 89.1 C 7.4 86.8, 63.5 47.9, 55.7 40.1 C 70.4 33.0, 16.1 94.7, 4.0 96.8 C 6.1 81.5, 46.4 11.8, 59.1 17.4 C 50.4 9.2, 44.7 60.7, 36.7 72.2 C 29.1 87.7, 94.0 41.1, 96.6 42.2 C 100.0 28.4, 100.0 61.9, 93.0 63.2 C 85.0 50.7, 36.5 30.3, 47.9 42.4 C 67.0 46.1, 39.8 6.6, 34.8 18.0 C 41.7 27.0, 69.9 78.6, 70.8 76.6 Z" fill="hsl(144, 86%, 72%)" fill-opacity="0.27" stroke="none" stroke-width="4.07"   />
<circle cx="9.5" cy="9.6" r="17.2" fill="hsl(242, 72%, 49%)" fill-opacity="0.97"  transform="translate(78.3 3.4) rotate(195.1) scale(0.80 0.51)" />
<circle cx="34.6" cy="36.7" r="7.1" fill="hsl(144, 86%, 72%)" fill-opacity="0.54"  transform="translate(57.2 45.7) rotate(241.3) scale(1.85 1.15)" />
<path d="M 48.0 79.1 C 60.0 60.2, 45.1 90.1, 51.9 97.3 C 53.1 86.9, 34.4 18.6, 44.2 27.6 C 49.3 31.8, 0.0 46.4, 1.1 59.9 C 9.2 66.2, 0.5 7.0, 4.5 16.5 C 13.3 19.7, 67.1 49.9, 74.0 48.1 C 90.9 52.3, 84.2 45.0, 79.2 43.5 C 68.1 51.3, 35.4 41.4, 46.2 33.4 C 55.9 48.9, 28.6 0.3, 30.3 2.4 Z" fill="hsl(290, 83%, 63%)" fill-opacity="0.86" stroke="none" stroke-width="2.96"  transform="translate(27.7 56.8) rotate(331.0) scale(0.70 1.74)" />
<rect x="1.3" y="67.1" width="23.1" height="20.9" rx="0" fill="none" fill-opacity="0.62"   transform="translate(29.7 14.3) rotate(133.6) scale(1.49 0.61)" />
<path d="M 77.3 52.4 C 96.8 37.1, 26.7 11.9, 36.0 26.5 C 41.4 12.1, 34.5 20.2, 27.1 28.1 C 32.4 11.0, 100.0 58.8, 97.2 58.7 C 83.1 67.0, 78.0 10.3, 85.2 9.1 C 65.9 19.5, 97.6 7.2, 92.6 13.7 C 100.0 2.2, 33.5 16.9, 32.8 20.6 C 30.3 17.3, 58.5 2.0, 63.6 8.8 C 76.3 0.9, 3.6 100.0, 12.5 93.2 Z" fill="hsl(242, 72%, 49%)" fill-opacity="0.49" stroke="none" stroke-width="2.70"  transform="translate(65.3 9.8) rotate(117.3) scale(1.10 1.95)" />
<circle cx="65.3" cy="64.1" r="2.0" fill="url(#g2)" fill-opacity="0.90"  transform="translate(96.5 19.4) rotate(265.3) scale(1.60 0.60)" />
<g opacity="0.032">
<rect x="0" y="0" width="1" height="100" fill="black" />
<rect x="22" y="0" width="1" height="100" fill="black" />
<rect x="44" y="0" width="1" height="100" fill="black" />
<rect x="66" y="0" width="1" height="100" fill="black" />
<rect x="88" y="0" width="1" height="100" fill="black" />
<rect x="0" y="0" width="100" height="1" fill="black" />
<rect x="0" y="22" width="100" height="1" fill="black" />
<rect x="0" y="44" width="100" height="1" fill="black" />
<rect x="0" y="66" width="100" height="1" fill="black" />
<rect x="0" y="88" width="100" height="1" fill="black" />
</g>

</svg>
