<?xml version="1.0" encoding="UTF-8"?>
<svg xmlns="http://www.w3.org/2000/svg" width="100" height="100" viewBox="0 0 100 100">
<defs>
<linearGradient id="g0" x1="0%" y1="0%" x2="100%" y2="100%">
<stop offset="0.0%" stop-color="hsl(106, 75%, 59%)" />
<stop offset="33.3%" stop-color="hsl(183, 71%, 60%)" />
<stop offset="66.7%" stop-color="hsl(242, 72%, 49%)" />
<stop offset="100.0%" stop-color="hsl(322, 74%, 44%)" />
</linearGradient>
<linearGradient id="g1" x1="0%" y1="0%" x2="100%" y2="100%">
<stop offset="0.0%" stop-color="hsl(290, 83%, 63%)" />
<stop offset="33.3%" stop-color="hsl(2, 82%, 55%)" />
<stop offset="66.7%" stop-color="hsl(86, 72%, 68%)" />
<stop offset="100.0%" stop-color="hsl(83, 65%, 44%)" />
</linearGradient>
<linearGradient id="g2" x1="0%" y1="0%" x2="100%" y2="100%">
<stop offset="0.0%" stop-color="hsl(40, 53%, 69%)" />
<stop offset="33.3%" stop-color="hsl(104, 72%, 65%)" />
<stop offset="66.7%" stop-color="hsl(144, 86%, 72%)" />
<stop offset="100.0%" stop-color="hsl(151, 70%, 62%)" />
</linearGradient>
</defs>

<path d="M 47.3 60.6 C 45.5 61.2, 29.2 86.9, 14.5 94.8 C 0.0 90.0, 38.7 84.6, 23.8 89.6 C 17.9 78.9, 88.3 87.0, 92.0 82.5 C 100.0 71.0, 46.7 17.7, 61.5 31.8 C 59.3 25.8, 14.8 7.3, 14.5 0.4 " fill="none" fill-opacity="0.79" stroke="hsl(144, 86%, 72%)" stroke-width="0.94"  transform="translate(14.1 39.6) rotate(58.9) scale(0.81 1.10)" />
<path d="M 76.6 4.8 C 62.6 0.0, 78.8 36.6, 91.2 24.6 C 84.8 22.7, 43.0 0.0, 33.3 0.6 C 50.0 0.0, 61.9 85.7, 59.0 73.2 C 70.0 78.4, 0.0 39.0, 7.1 29.0 C 0.0 12.7, 88.5 81.7, 81.7 84.7 Z" fill="none" fill-opacity="0.49" stroke="hsl(151, 70%, 62%)" stroke-width="0.90"   />
<path d="M 24.6 94.7 C 43.0 92.4, 71.5 80.6, 84.3 92.2 C 80.4 88.6, 15.6 7.3, 4.7 7.2 C 0.4 12.8, 0.0 70.5, 7.2 80.9 C 0.0 93.5, 9.9 72.7, 17.2 61.1 " fill="none" fill-opacity="0.30" stroke="hsl(151, 70%, 62%)" stroke-width="0.92"   />
<rect x="61.9" y="67.9" width="37.2" height="26.4" rx="0" fill="hsl(242, 72%, 49%)" fill-opacity="0.25"    />
<circle cx="12.6" cy="1.3" r="0.5" fill="hsl(151, 70%, 62%)" fill-opacity="0.67"  transform="translate(15.1 23.2) rotate(247.6) scale(1.71 1.50)" />
<path d="M 25.8 5.3 C 38.8 5.5, 52.1 71.9, 37.9 70.1 C 38.9 79.8, 47.4 73.0, 39.1 85.8 C 40.1 67.1, 6.5 29.8, 13.9 16.7 C 0.0 32.2, 5.0 26.1, 0.3 16.0 Z" fill="hsl(106, 75%, 59%)" fill-opacity="0.91" stroke="none" stroke-width="0.97"   />
<rect x="36.4" y="46.0" width="32.7" height="31.3" rx="10.6" fill="none" fill-opacity="0.85"   transform="translate(62.6 98.6) rotate(257.8) scale(0.99 0.68)" />
<rect x="0.7" y="28.6" width="45.8" height="25.8" rx="0" fill="none" fill-opacity="0.87"    />
<rect x="37.9" y="87.9" width="38.1" height="10.2" rx="17.4" fill="hsl(183, 71%, 60%)" fill-opacity="0.94"    />
<rect x="40.7" y="58.1" width="21.8" height="17.8" rx="0" fill="hsl(106, 75%, 59%)" fill-opacity="0.22"   transform="translate(72.0 86.2) rotate(304.4) scale(1.75 1.49)" />
<circle cx="14.3" cy="96.4" r="1.3" fill="hsl(83, 65%, 44%)" fill-opacity="0.47"  transform="translate(46.4 35.6) rotate(333.6) scale(1.45 1.34)" />
<rect x="53.8" y="46.6" width="41.3" height="19.5" rx="1.7" fill="hsl(86, 72%, 68%)" fill-opacity="0.33" stroke="hsl(2, 82%, 55%)" stroke-width="2.5"   />
<path d="M 92.3 91.9 C 94.8 100.0, 25.8 61.9, 37.9 65.5 C 26.8 85.2, 26.3 0.0, 37.1 2.4 C 40.0 10.7, 36.0 41.1, 35.9 39.4 C 21.8 49.2, 86.9 44.2, 75.4 42.4 C 67.0 23.3, 64.3 39.7, 72.2 31.8 C 78.8 48.4, 16.4 0.0, 20.9 8.0 Z" fill="hsl(183, 71%, 60%)" fill-opacity="0.73" stroke="none" stroke-width="1.13"   />
</svg>
