<?xml version="1.0" encoding="UTF-8"?>
<svg xmlns="http://www.w3.org/2000/svg" width="100" height="100" viewBox="0 0 100 100">
<defs>
<linearGradient id="g0" x1="0%" y1="0%" x2="100%" y2="100%">
<stop offset="0.0%" stop-color="hsl(106, 75%, 59%)" />
<stop offset="33.3%" stop-color="hsl(183, 71%, 60%)" />
<stop offset="66.7%" stop-color="hsl(242, 72%, 49%)" />
<stop offset="100.0%" stop-color="hsl(322, 74%, 44%)" />
</linearGradient>
<linearGradient id="g1" x1="0%" y1="0%" x2="100%" y2="100%">
<stop offset="0.0%" stop-color="hsl(290, 83%, 63%)" />
<stop offset="33.3%" stop-color="hsl(2, 82%, 55%)" />
<stop offset="66.7%" stop-color="hsl(86, 72%, 68%)" />
<stop offset="100.0%" stop-color="hsl(83, 65%, 44%)" />
</linearGradient>
<linearGradient id="g2" x1="0%" y1="0%" x2="100%" y2="100%">
<stop offset="0.0%" stop-color="hsl(40, 53%, 69%)" />
<stop offset="33.3%" stop-color="hsl(104, 72%, 65%)" />
<stop offset="66.7%" stop-color="hsl(144, 86%, 72%)" />
<stop offset="100.0%" stop-color="hsl(151, 70%, 62%)" />
</linearGradient>
</defs>

<rect x="8.8" y="44.4" width="32.5" height="39.0" rx="0" fill="hsl(104, 72%, 65%)" fill-opacity="0.45"   transform="translate(3.6 0.9) rotate(211.3) scale(0.59 0.60)" />
<path d="M 71.3 49.6 C 78.7 58.1, 63.7 48.9, 69.7 42.1 C 72.6 30.8, 62.1 63.3, 74.5 51.3 C 55.9 58.0, 75.3 13.1, 85.0 6.0 C 92.3 20.5, 50.1 40.4, 53.8 44.3 C 43.1 48.4, 52.7 53.1, 51.2 43.7 " fill="none" fill-opacity="0.49" stroke="hsl(322, 74%, 44%)" stroke-width="1.09"   />
<rect x="30.5" y="66.5" width="23.9" height="23.4" rx="12.7" fill="none" fill-opacity="0.21"   transform="translate(24.8 37.1) rotate(176.3) scale(1.47 0.99)" />
<path d="M 20.3 15.1 C 21.8 4.6, 27.5 35.1, 31.5 36.1 C 12.2 33.0, 65.4 81.5, 65.7 80.9 C 62.8 81.2, 0.0 68.9, 13.3 83.8 C 2.5 90.3, 40.4 65.7, 44.1 65.4 " fill="none" fill-opacity="0.66" stroke="hsl(290, 83%, 63%)" stroke-width="1.25"   />
<rect x="52.7" y="17.9" width="24.5" height="26.1" rx="0" fill="none" fill-opacity="0.83"    />
<path d="M 34.8 13.0 C 32.1 15.0, 29.5 2.3, 39.8 9.7 C 22.7 0.0, 36.9 36.1, 48.8 31.7 C 58.0 20.2, 2.5 68.1, 9.1 70.3 C 9.9 61.6, 42.8 88.6, 56.1 86.6 C 50.3 79.0, 18.3 21.7, 12.7 35.7 Z" fill="hsl(151, 70%, 62%)" fill-opacity="0.99" stroke="none" stroke-width="1.02"   />
<rect x="31.3" y="45.7" width="38.2" height="34.6" rx="8.7" fill="hsl(322, 74%, 44%)" fill-opacity="0.41" stroke="hsl(322, 74%, 44%)" stroke-width="2.5"  transform="translate(52.5 51.7) rotate(96.6) scale(0.57 1.68)" />
<path d="M 82.8 86.1 C 96.6 75.9, 23.5 53.7, 29.1 43.2 C 33.9 53.1, 84.3 34.1, 78.0 32.4 C 84.4 24.4, 52.3 25.2, 63.4 36.9 C 57.7 22.3, 32.9 77.4, 39.1 82.9 C 50.7 97.9, 80.1 71.1, 81.7 69.1 C 94.0 80.0, 21.2 76.2, 20.6 89.7 C 5.6 100.0, 61.6 50.4, 74.7 38.9 Z" fill="hsl(83, 65%, 44%)" fill-opacity="0.56" stroke="none" stroke-width="0.91"   />
<circle cx="62.6" cy="93.5" r="0.3" fill="hsl(322, 74%, 44%)" fill-opacity="0.74"  transform="translate(92.2 64.1) rotate(71.4) scale(1.67 0.67)" />
</svg>
