<?xml version="1.0" encoding="UTF-8"?>
<svg xmlns="http://www.w3.org/2000/svg" width="100" height="100" viewBox="0 0 100 100">
<defs>
<linearGradient id="g0" x1="0%" y1="0%" x2="100%" y2="100%">
<stop offset="0.0%" stop-color="hsl(106, 75%, 59%)" />
<stop offset="33.3%" stop-color="hsl(183, 71%, 60%)" />
<stop offset="66.7%" stop-color="hsl(242, 72%, 49%)" />
<stop offset="100.0%" stop-color="hsl(322, 74%, 44%)" />
</linearGradient>
<linearGradient id="g1" x1="0%" y1="0%" x2="100%" y2="100%">
<stop offset="0.0%" stop-color="hsl(290, 83%, 63%)" />
<stop offset="33.3%" stop-color="hsl(2, 82%, 55%)" />
<stop offset="66.7%" stop-color="hsl(86, 72%, 68%)" />
<stop offset="100.0%" stop-color="hsl(83, 65%, 44%)" />
</linearGradient>
<linearGradient id="g2" x1="0%" y1="0%" x2="100%" y2="100%">
<stop offset="0.0%" stop-color="hsl(40, 53%, 69%)" />
<stop offset="33.3%" stop-color="hsl(104, 72%, 65%)" />
<stop offset="66.7%" stop-color="hsl(144, 86%, 72%)" />
<stop offset="100.0%" stop-color="hsl(151, 70%, 62%)" />
</linearGradient>
</defs>

<path d="M 34.1 37.8 C 51.5 36.4, 7.6 93.9, 6.3 84.1 C 0.0 93.9, 4.1 96.1, 3.1 96.9 C 1.2 84.0, 12.2 12.5, 15.8 3.3 C 27.4 15.8, 30.0 83.0, 28.9 71.1 C 48.5 90.7, 67.3 5.9, 74.7 11.7 C 88.9 16.8, 60.7 0.0, 74.3 11.1 C 81.8 29.9, 100.0 19.4, 94.3 16.7 " fill="hsl(290, 83%, 63%)" fill-opacity="0.64" stroke="none" stroke-width="1.17"  transform="translate(42.4 72.9) rotate(162.5) scale(0.84 0.54)" />
<circle cx="0.2" cy="50.9" r="0.1" fill="hsl(144, 86%, 72%)" fill-opacity="0.93"  transform="translate(45.3 12.6) rotate(245.7) scale(1.56 1.49)" />
<path d="M 31.4 35.9 C 24.9 41.9, 63.2 40.4, 60.1 37.0 C 50.6 37.9, 100.0 99.5, 94.1 99.7 C 90.2 100.0, 48.1 68.8, 61.6 75.2 C 65.0 93.4, 67.9 21.5, 70.7 21.6 C 70.5 18.7, 65.8 59.6, 52.1 60.7 C 67.1 72.1, 15.1 12.1, 9.5 26.6 " fill="none" fill-opacity="0.58" stroke="hsl(290, 83%, 63%)" stroke-width="1.01"  transform="translate(71.1 33.6) rotate(350.7) scale(0.69 1.83)" />
<rect x="3.9" y="51.8" width="41.4" height="23.0" rx="0" fill="hsl(104, 72%, 65%)" fill-opacity="0.99"   transform="translate(52.4 41.0) rotate(216.5) scale(1.87 0.79)" />
<path d="M 90.0 62.3 C 74.0 81.0, 50.7 23.5, 40.6 29.0 C 58.7 11.8, 87.2 46.4, 98.0 45.1 C 89.8 39.3, 69.8 75.1, 75.6 61.9 C 61.2 43.3, 66.1 67.8, 79.2 75.8 C 82.4 64.4, 88.1 30.6, 81.9 35.8 Z" fill="none" fill-opacity="0.52" stroke="hsl(40, 53%, 69%)" stroke-width="1.22"  transform="translate(69.8 44.6) rotate(240.0) scale(1.08 1.27)" />
<path d="M 32.7 3.4 C 44.9 8.6, 6.4 24.8, 11.6 33.5 C 23.6 18.0, 100.0 52.0, 95.9 38.3 C 76.2 24.5, 96.0 34.5, 88.4 37.0 C 83.0 21.0, 41.4 76.2, 34.3 88.2 C 31.6 100.0, 52.0 96.6, 41.3 95.9 Z" fill="hsl(322, 74%, 44%)" fill-opacity="0.52" stroke="none" stroke-width="1.26"  transform="translate(45.0 67.0) rotate(201.2) scale(1.75 1.40)" />
<path d="M 66.3 38.2 C 69.5 45.9, 54.4 60.7, 52.2 54.1 C 61.0 42.9, 33.4 99.1, 43.0 96.0 C 39.1 100.0, 59.9 81.1, 49.4 88.6 " fill="hsl(322, 74%, 44%)" fill-opacity="0.58" stroke="none" stroke-width="1.12"  transform="translate(50.7 70.0) rotate(275.6) scale(0.58 0.93)" />
<path d="M 97.6 67.0 C 100.0 86.7, 0.0 1.4, 0.5 2.2 C 0.0 9.5, 57.5 28.2, 45.2 43.1 C 46.0 61.1, 0.0 60.0, 4.6 46.7 C 0.0 45.3, 12.0 84.0, 3.2 81.7 Z" fill="none" fill-opacity="0.99" stroke="hsl(151, 70%, 62%)" stroke-width="1.06"  transform="translate(16.8 22.4) rotate(239.3) scale(1.15 0.84)" />
<rect x="9.3" y="66.3" width="39.9" height="23.8" rx="12.4" fill="hsl(106, 75%, 59%)" fill-opacity="0.27" stroke="hsl(183, 71%, 60%)" stroke-width="4.8"   />
<rect x="27.5" y="31.3" width="36.3" height="13.8" rx="19.9" fill="hsl(151, 70%, 62%)" fill-opacity="0.70" stroke="hsl(151, 70%, 62%)" stroke-width="3.8"   />
<rect x="49.7" y="13.5" width="48.8" height="39.6" rx="6.6" fill="none" fill-opacity="0.44" stroke="hsl(40, 53%, 69%)" stroke-width="1.1"  transform="translate(93.1 0.9) rotate(257.1) scale(1.02 1.25)" />
<rect x="12.5" y="4.8" width="35.0" height="25.5" rx="0" fill="none" fill-opacity="0.63"   transform="translate(42.3 70.5) rotate(281.9) scale(1.61 1.03)" />
<path d="M 85.9 50.6 C 68.1 46.0, 82.3 100.0, 71.8 94.8 C 81.4 90.0, 18.6 34.7, 30.3 23.4 C 43.9 6.7, 76.7 16.7, 75.9 13.0 C 93.3 3.1, 30.6 35.7, 33.2 37.6 C 28.4 56.5, 81.2 91.2, 66.6 80.4 C 71.2 88.2, 36.8 100.0, 31.2 100.0 C 20.3 100.0, 78.3 60.9, 73.9 74.9 Z" fill="none" fill-opacity="0.77" stroke="hsl(104, 72%, 65%)" stroke-width="0.90"  transform="translate(28.1 61.0) rotate(291.7) scale(1.70 0.54)" />
</svg>
