<?xml version="1.0" encoding="UTF-8"?>
<svg xmlns="http://www.w3.org/2000/svg" width="100" height="100" viewBox="0 0 100 100">
<defs>
<linearGradient id="g0" x1="0%" y1="0%" x2="100%" y2="100%">
<stop offset="0.0%" stop-color="hsl(106, 75%, 59%)" />
<stop offset="33.3%" stop-color="hsl(183, 71%, 60%)" />
<stop offset="66.7%" stop-color="hsl(242, 72%, 49%)" />
<stop offset="100.0%" stop-color="hsl(322, 74%, 44%)" />
</linearGradient>
<linearGradient id="g1" x1="0%" y1="0%" x2="100%" y2="100%">
<stop offset="0.0%" stop-color="hsl(290, 83%, 63%)" />
<stop offset="33.3%" stop-color="hsl(2, 82%, 55%)" />
<stop offset="66.7%" stop-color="hsl(86, 72%, 68%)" />
<stop offset="100.0%" stop-color="hsl(83, 65%, 44%)" />
</linearGradient>
<linearGradient id="g2" x1="0%" y1="0%" x2="100%" y2="100%">
<stop offset="0.0%" stop-color="hsl(40, 53%, 69%)" />
<stop offset="33.3%" stop-color="hsl(104, 72%, 65%)" />
<stop offset="66.7%" stop-color="hsl(144, 86%, 72%)" />
<stop offset="100.0%" stop-color="hsl(151, 70%, 62%)" />
</linearGradient>
<filter id="f1" x="-20%" y="-20%" width="140%" height="140%">
  <feGaussianBlur stdDeviation="1.793061321840315" />
</filter>

</defs>

<path d="M 0.5 56.3 C 5.3 67.4, 82.3 38.8, 97.2 41.5 C 81.0 26.7, 67.9 0.0, 63.0 12.5 C 50.6 14.6, 2.7 53.9, 11.4 41.3 C 19.4 51.4, 68.3 9.8, 75.1 15.7 C 55.5 9.4, 83.4 21.0, 96.7 25.5 C 100.0 43.1, 8.5 88.9, 11.9 94.3 C 12.7 100.0, 13.8 26.8, 13.3 27.2 " fill="hsl(290, 83%, 63%)" fill-opacity="0.99" stroke="none" stroke-width="3.41"  transform="translate(28.9 45.9) rotate(280.1) scale(1.97 1.89)" />
<rect x="21.5" y="6.2" width="44.5" height="38.4" rx="0" fill="none" fill-opacity="0.63" stroke="hsl(183, 71%, 60%)" stroke-width="3.8"   />
<circle cx="30.2" cy="61.6" r="14.4" fill="url(#g2)" fill-opacity="0.59"  transform="translate(5.5 60.7) rotate(218.8) scale(1.00 1.31)" />
<path d="M 85.1 73.9 C 75.1 60.1, 42.8 76.4, 38.4 73.1 C 42.3 64.8, 32.7 33.7, 18.2 47.0 C 32.2 57.5, 40.2 72.1, 45.3 59.6 C 30.9 52.8, 21.8 37.2, 14.9 30.7 C 0.0 19.1, 32.2 3.8, 20.4 15.7 C 34.5 3.9, 46.2 57.2, 54.2 67.0 C 47.0 74.8, 47.9 100.0, 36.3 92.0 C 35.3 76.9, 27.9 21.2, 33.8 23.6 C 31.7 35.9, 50.2 79.6, 41.6 65.9 C 55.4 53.0, 81.2 70.6, 91.5 84.2 Z" fill="hsl(144, 86%, 72%)" fill-opacity="0.84" stroke="none" stroke-width="2.99"  transform="translate(21.9 97.0) rotate(124.0) scale(1.82 1.18)" />
<circle cx="87.6" cy="75.4" r="6.6" fill="hsl(290, 83%, 63%)" fill-opacity="0.88"  transform="translate(55.3 46.6) rotate(237.0) scale(1.11 1.74)" />
<path d="M 35.4 22.3 C 53.4 41.3, 71.1 70.9, 70.6 68.6 C 61.8 67.5, 42.1 86.6, 34.0 84.4 C 51.5 73.6, 5.5 20.8, 3.5 19.8 C 22.1 33.6, 36.8 91.0, 31.5 93.5 C 19.6 88.3, 99.1 0.0, 93.8 9.9 C 100.0 12.4, 18.0 52.2, 12.2 66.0 C 28.6 52.1, 55.8 0.0, 68.9 3.2 C 58.2 0.0, 13.6 67.5, 3.5 80.6 C 4.7 85.0, 55.0 56.3, 67.9 46.2 C 87.3 43.5, 29.1 73.6, 35.1 67.7 Z" fill="none" fill-opacity="0.50" stroke="hsl(183, 71%, 60%)" stroke-width="1.84"  transform="translate(67.6 84.5) rotate(121.6) scale(1.79 1.08)" />
<path d="M 84.3 93.9 C 90.6 76.7, 6.8 89.5, 7.1 76.4 C 20.6 88.7, 0.0 75.3, 10.1 88.2 C 3.3 82.0, 19.5 30.7, 24.1 44.5 C 14.5 59.9, 10.4 25.7, 4.9 25.3 C 0.0 38.8, 21.3 40.9, 13.1 34.4 C 13.9 50.7, 0.7 0.0, 3.5 6.2 " fill="hsl(86, 72%, 68%)" fill-opacity="0.43" stroke="none" stroke-width="3.13"  transform="translate(39.0 87.9) rotate(77.5) scale(0.65 1.99)" />
<path d="M 1.8 8.9 C 0.0 3.0, 41.1 12.7, 28.2 12.2 C 16.4 22.3, 98.8 88.8, 93.5 91.9 C 86.7 84.9, 96.4 13.6, 92.0 24.9 C 74.4 31.5, 79.1 87.9, 74.5 77.0 C 69.3 80.9, 17.5 0.0, 27.7 3.4 C 37.0 0.0, 89.8 95.9, 83.0 97.0 C 90.9 100.0, 59.7 71.2, 55.9 75.6 " fill="none" fill-opacity="0.30" stroke="hsl(151, 70%, 62%)" stroke-width="1.86"  transform="translate(2.6 17.1) rotate(72.1) scale(1.99 1.69)" />
<path d="M 9.7 61.2 C 23.2 59.4, 18.9 98.7, 3.9 95.9 C 0.0 100.0, 22.3 16.2, 10.4 20.2 C 14.7 1.2, 39.3 15.4, 36.9 12.7 C 26.4 12.0, 58.4 0.0, 62.2 8.4 C 52.0 27.6, 32.2 20.6, 35.7 27.0 C 46.8 35.9, 78.2 56.3, 67.9 53.4 C 49.9 51.9, 35.1 28.7, 28.1 35.1 C 38.2 34.8, 56.5 92.9, 49.0 86.0 C 55.2 83.8, 2.0 51.5, 0.8 47.8 C 0.0 57.6, 19.2 16.1, 8.3 8.8 Z" fill="hsl(183, 71%, 60%)" fill-opacity="0.32" stroke="none" stroke-width="3.79"   />
<rect x="45.7" y="58.1" width="46.4" height="32.7" rx="0" fill="none" fill-opacity="0.93"   transform="translate(16.3 31.8) rotate(285.2) scale(0.82 0.83)" />
<rect x="13.5" y="22.8" width="44.7" height="27.0" rx="0" fill="none" fill-opacity="0.79"   transform="translate(27.9 11.0) rotate(266.2) scale(1.61 1.85)" />
<path d="M 89.5 43.8 C 96.1 44.7, 53.6 86.5, 66.2 84.5 C 60.9 73.8, 45.4 77.9, 56.5 77.0 C 69.0 72.3, 12.7 93.6, 23.6 79.3 C 10.9 74.0, 14.9 74.4, 2.8 67.4 C 0.0 55.1, 61.5 65.2, 52.8 55.3 C 44.3 71.7, 25.8 25.9, 39.9 38.0 Z" fill="hsl(242, 72%, 49%)" fill-opacity="0.81" stroke="none" stroke-width="2.31"  transform="translate(91.5 9.3) rotate(190.9) scale(1.10 1.61)" />
<path d="M 75.8 82.7 C 91.0 66.5, 12.2 20.6, 15.3 32.6 C 24.4 31.5, 18.7 37.2, 7.3 37.9 C 13.7 50.7, 48.8 84.1, 51.6 97.7 C 38.4 100.0, 35.9 79.2, 34.4 93.9 C 52.7 100.0, 36.6 36.2, 37.4 26.1 C 56.2 26.2, 100.0 63.4, 98.9 52.0 C 79.2 38.4, 38.5 94.2, 27.6 87.5 C 32.5 68.0, 23.4 83.8, 17.7 84.6 C 1.5 91.7, 83.6 4.8, 79.1 19.3 Z" fill="hsl(290, 83%, 63%)" fill-opacity="0.64" stroke="none" stroke-width="1.95"   />
<path d="M 76.5 22.0 C 63.8 38.5, 22.9 31.5, 29.4 35.6 C 44.6 25.6, 3.1 60.1, 10.2 50.5 C 20.0 51.8, 75.8 79.0, 69.8 69.6 C 77.8 50.1, 41.9 27.9, 49.4 39.6 C 60.9 58.6, 19.2 84.7, 21.4 80.2 C 38.5 82.7, 81.1 14.5, 93.6 24.8 C 92.9 8.2, 16.5 72.5, 5.9 66.8 Z" fill="hsl(2, 82%, 55%)" fill-opacity="0.81" stroke="none" stroke-width="4.12"   />
<path d="M 64.2 87.8 C 50.5 96.7, 25.2 32.1, 37.2 37.0 C 19.4 52.0, 8.6 14.9, 3.2 1.2 C 0.0 0.0, 82.2 47.7, 90.0 55.9 C 100.0 66.5, 23.2 9.2, 34.7 22.4 C 23.5 15.2, 89.2 30.4, 78.3 41.5 C 70.8 29.5, 65.2 2.3, 61.7 4.8 C 54.7 0.0, 49.0 85.6, 51.6 99.2 Z" fill="hsl(183, 71%, 60%)" fill-opacity="0.38" stroke="none" stroke-width="3.44"  transform="translate(76.1 81.5) rotate(318.7) scale(0.89 1.99)" />
<circle cx="9.1" cy="98.3" r="8.0" fill="url(#g0)" fill-opacity="1.00"  transform="translate(90.9 33.4) rotate(3.2) scale(1.39 1.32)" />
<path d="M 4.9 68.3 C 0.0 65.4, 0.0 39.2, 1.7 25.3 C 0.0 39.4, 74.1 64.4, 86.5 50.1 C 74.6 58.0, 22.6 61.8, 34.0 48.0 C 35.1 33.1, 46.6 29.4, 53.9 37.9 C 52.8 55.7, 23.9 97.3, 37.0 93.4 C 29.1 100.0, 65.5 50.8, 52.1 53.8 C 42.1 36.0, 14.4 14.9, 24.6 26.2 Z" fill="none" fill-opacity="0.78" stroke="hsl(290, 83%, 63%)" stroke-width="4.42"  transform="translate(12.4 32.9) rotate(42.1) scale(1.11 1.55)" />
<path d="M 48.3 85.8 C 29.1 73.7, 93.3 10.6, 89.5 1.6 C 73.2 0.0, 59.1 100.0, 60.9 98.2 C 54.1 87.6, 27.5 7.3, 13.1 22.2 C 2.6 23.9, 84.5 6.9, 98.4 20.4 C 87.0 35.1, 58.1 68.4, 49.1 75.6 C 61.6 85.5, 65.0 77.0, 58.8 65.9 C 61.4 72.0, 32.8 88.0, 35.4 84.7 C 40.6 89.0, 10.9 38.4, 0.9 37.3 C 8.5 54.4, 74.2 47.6, 69.7 35.8 C 77.1 53.5, 23.7 79.4, 29.0 77.3 Z" fill="hsl(290, 83%, 63%)" fill-opacity="0.31" stroke="none" stroke-width="1.47"   />
<circle cx="17.8" cy="7.6" r="4.0" fill="url(#g0)" fill-opacity="0.98"  transform="translate(84.8 13.0) rotate(56.9) scale(0.83 0.79)" />
<circle cx="57.8" cy="54.9" r="3.8" fill="url(#g1)" fill-opacity="0.44"   />
<rect x="9.3" y="27.3" width="32.8" height="32.3" rx="0" fill="none" fill-opacity="0.39"   transform="translate(49.2 68.4) rotate(5.8) scale(1.68 0.82)" />
<circle cx="97.5" cy="88.1" r="1.2" fill="hsl(322, 74%, 44%)" fill-opacity="0.59"  transform="translate(82.7 34.9) rotate(36.1) scale(1.89 1.00)" />
<path d="M 91.2 54.2 C 82.3 55.6, 100.0 0.0, 100.0 0.5 C 100.0 0.0, 29.3 98.5, 42.8 92.1 C 32.9 100.0, 20.9 55.9, 30.4 54.7 C 24.7 50.1, 56.5 18.3, 69.7 12.6 C 82.7 8.5, 77.7 37.6, 78.2 24.8 C 58.9 36.2, 28.7 42.2, 31.5 36.7 C 47.2 33.7, 48.0 59.2, 47.6 60.5 C 56.0 62.0, 77.3 73.2, 92.3 75.2 C 100.0 84.4, 87.7 36.6, 73.0 33.9 C 91.8 33.6, 45.5 61.7, 55.6 59.2 Z" fill="hsl(144, 86%, 72%)" fill-opacity="0.34" stroke="none" stroke-width="1.34" filter="url(#f1)" transform="translate(91.6 63.4) rotate(169.9) scale(1.84 1.82)" />
<path d="M 88.1 97.2 C 96.7 89.2, 19.8 90.6, 33.1 98.5 C 46.2 94.5, 37.0 22.3, 23.5 17.3 C 29.4 10.9, 0.0 18.9, 5.5 20.0 C 0.0 37.4, 1.9 31.0, 6.3 23.7 C 15.9 16.5, 65.7 58.7, 61.7 45.5 C 55.6 35.2, 81.2 56.2, 69.4 61.0 Z" fill="hsl(144, 86%, 72%)" fill-opacity="0.45" stroke="none" stroke-width="1.92"   />
<rect x="29.3" y="62.3" width="49.2" height="18.8" rx="10.1" fill="none" fill-opacity="0.90"   transform="translate(57.2 34.3) rotate(66.9) scale(0.52 1.49)" />
<rect x="4.4" y="40.2" width="41.7" height="22.9" rx="17.1" fill="none" fill-opacity="0.20"   transform="translate(25.3 26.2) rotate(200.4) scale(1.81 1.18)" />
<circle cx="89.9" cy="38.9" r="8.5" fill="url(#g2)" fill-opacity="0.72" filter="url(#f1)" transform="translate(21.4 71.8) rotate(38.3) scale(0.92 0.67)" />
<circle cx="88.9" cy="67.1" r="3.1" fill="url(#g1)" fill-opacity="0.93"  transform="translate(13.7 15.7) rotate(18.7) scale(1.85 0.82)" />
<path d="M 31.9 28.5 C 51.2 25.0, 61.8 83.5, 49.3 76.8 C 49.9 86.2, 77.0 74.6, 62.5 72.8 C 80.7 54.6, 77.8 73.7, 67.8 76.4 C 51.8 76.9, 73.9 41.6, 76.2 28.6 C 62.8 16.5, 63.6 4.9, 78.2 19.9 C 70.7 4.5, 58.7 58.3, 67.6 72.2 C 86.1 56.8, 3.7 93.6, 14.1 87.5 C 10.0 74.3, 89.1 80.0, 89.7 75.9 C 100.0 78.2, 99.6 91.4, 99.1 80.0 C 93.8 60.4, 14.5 7.2, 1.5 10.5 Z" fill="none" fill-opacity="0.32" stroke="hsl(104, 72%, 65%)" stroke-width="3.00"  transform="translate(27.2 40.5) rotate(196.5) scale(1.33 1.56)" />
<circle cx="43.7" cy="60.3" r="7.9" fill="hsl(104, 72%, 65%)" fill-opacity="0.56" filter="url(#f1)" transform="translate(17.5 63.8) rotate(130.2) scale(1.11 1.63)" />
<rect x="24.9" y="49.5" width="32.6" height="22.2" rx="0" fill="none" fill-opacity="0.36"   transform="translate(32.4 78.7) rotate(341.3) scale(1.16 1.65)" />
<circle cx="92.1" cy="82.4" r="1.3" fill="url(#g2)" fill-opacity="0.42"  transform="translate(6.8 4.7) rotate(202.9) scale(1.60 1.32)" />
<circle cx="69.5" cy="27.3" r="4.4" fill="hsl(151, 70%, 62%)" fill-opacity="0.58"  transform="translate(95.1 99.4) rotate(102.1) scale(1.73 0.67)" />
<path d="M 58.1 83.9 C 51.2 86.2, 14.1 48.0, 7.4 35.7 C 6.6 48.6, 12.4 32.0, 23.7 25.6 C 20.9 26.4, 55.4 25.2, 65.7 24.1 C 56.5 9.9, 50.1 20.4, 51.5 32.9 C 56.7 43.3, 86.0 96.2, 89.9 82.4 C 95.4 83.8, 0.0 98.4, 0.7 84.5 C 11.7 71.6, 24.4 63.0, 12.3 52.3 C 30.2 55.2, 44.9 36.4, 36.0 29.1 Z" fill="hsl(183, 71%, 60%)" fill-opacity="0.70" stroke="none" stroke-width="4.73"  transform="translate(79.8 66.2) rotate(107.4) scale(1.40 1.60)" />
<path d="M 85.2 41.0 C 69.1 39.0, 63.1 14.5, 71.4 12.9 C 86.0 13.0, 19.6 32.9, 7.7 34.6 C 25.6 50.3, 12.4 49.4, 24.1 39.1 C 11.1 27.7, 55.9 100.0, 46.9 98.6 C 49.5 100.0, 8.8 74.3, 19.0 88.2 C 8.4 85.3, 77.2 93.8, 62.9 87.2 C 75.0 100.0, 89.7 29.8, 79.6 37.9 C 70.2 54.3, 77.0 13.5, 90.0 2.5 Z" fill="none" fill-opacity="0.51" stroke="hsl(151, 70%, 62%)" stroke-width="2.73"  transform="translate(46.5 65.8) rotate(19.5) scale(1.43 1.30)" />
<path d="M 6.8 55.3 C 0.0 44.7, 21.0 9.6, 13.4 6.6 C 23.0 2.1, 59.2 67.9, 48.5 77.9 C 28.9 77.7, 0.5 23.5, 8.0 13.0 C 0.0 28.6, 35.8 14.6, 37.3 5.9 C 18.8 22.3, 35.1 68.8, 33.4 56.0 C 51.3 41.8, 73.8 28.1, 80.8 24.6 C 100.0 38.2, 42.5 89.6, 33.2 98.9 C 28.0 80.6, 47.6 61.7, 59.7 71.8 C 73.5 76.3, 5.7 20.7, 17.7 13.8 Z" fill="hsl(40, 53%, 69%)" fill-opacity="0.62" stroke="none" stroke-width="3.81"  transform="translate(86.6 36.1) rotate(217.1) scale(0.94 1.89)" />
<path d="M 75.3 18.4 C 75.9 27.3, 11.8 25.0, 14.2 16.4 C 1.7 7.3, 100.0 88.4, 88.8 86.3 C 75.6 70.2, 70.6 94.4, 84.2 90.6 C 66.3 95.3, 83.0 85.4, 95.9 77.9 C 100.0 94.9, 26.6 57.2, 23.9 69.2 C 5.5 82.0, 43.4 100.0, 33.0 97.7 C 13.9 85.1, 27.5 6.2, 33.8 11.8 C 28.3 11.8, 49.3 96.6, 62.5 99.9 C 76.8 90.6, 2.3 33.1, 7.5 43.4 Z" fill="none" fill-opacity="0.67" stroke="hsl(2, 82%, 55%)" stroke-width="4.35" filter="url(#f1)" transform="translate(28.9 81.2) rotate(75.7) scale(1.33 1.24)" />
<path d="M 65.8 14.8 C 52.7 13.1, 88.7 28.6, 84.8 42.5 C 73.1 32.5, 77.1 0.0, 69.7 1.2 C 88.9 5.7, 75.4 83.9, 76.4 92.9 C 81.2 96.5, 82.3 42.7, 69.8 55.2 C 77.1 38.8, 100.0 95.3, 87.6 94.8 C 93.8 77.9, 46.5 26.3, 53.2 34.5 C 62.5 27.8, 33.9 63.3, 38.0 68.3 C 49.9 63.5, 40.0 7.1, 47.9 10.8 Z" fill="none" fill-opacity="0.32" stroke="hsl(151, 70%, 62%)" stroke-width="4.52"  transform="translate(93.3 91.6) rotate(272.3) scale(1.30 1.02)" />
<path d="M 82.6 23.2 C 100.0 34.1, 43.6 60.3, 50.3 48.2 C 67.0 57.9, 68.9 28.5, 68.1 17.4 C 58.7 28.9, 81.9 12.2, 92.3 19.1 C 100.0 16.2, 72.8 37.8, 72.1 38.6 C 81.4 39.3, 6.8 21.6, 7.1 14.7 C 6.1 0.0, 11.9 47.0, 20.1 52.8 C 16.8 46.1, 18.0 96.9, 9.0 87.7 C 25.6 91.7, 66.8 10.2, 68.7 22.9 C 64.2 19.8, 39.7 39.9, 43.8 38.3 C 49.4 41.4, 20.5 45.7, 25.9 35.1 Z" fill="none" fill-opacity="0.44" stroke="hsl(106, 75%, 59%)" stroke-width="2.68"  transform="translate(7.8 29.6) rotate(144.2) scale(1.64 1.38)" />
<rect x="20.5" y="67.5" width="45.1" height="23.9" rx="0" fill="none" fill-opacity="0.33"  filter="url(#f1)" transform="translate(58.3 26.6) rotate(135.0) scale(1.37 0.94)" />
<circle cx="61.4" cy="73.7" r="9.1" fill="url(#g0)" fill-opacity="0.85" filter="url(#f1)" transform="translate(30.1 13.8) rotate(6.3) scale(1.99 1.44)" />
<path d="M 39.9 7.4 C 50.6 16.6, 20.8 16.8, 10.4 4.9 C 0.0 7.8, 48.0 100.0, 52.9 98.1 C 56.9 100.0, 55.2 53.6, 60.5 63.6 C 61.3 53.1, 31.6 76.8, 25.6 65.2 C 36.9 49.5, 97.0 25.8, 86.6 34.7 C 97.4 37.8, 88.3 41.3, 78.0 26.5 C 62.9 15.2, 30.2 93.8, 32.0 81.5 C 17.4 65.1, 15.8 75.1, 4.7 76.3 C 0.0 92.0, 65.3 51.2, 54.3 52.3 Z" fill="hsl(290, 83%, 63%)" fill-opacity="0.32" stroke="none" stroke-width="3.22" filter="url(#f1)"  />
<rect x="44.8" y="67.9" width="49.4" height="30.0" rx="0" fill="none" fill-opacity="0.35"   transform="translate(54.8 45.9) rotate(132.1) scale(1.99 1.89)" />
<circle cx="42.2" cy="23.7" r="3.5" fill="hsl(106, 75%, 59%)" fill-opacity="0.63"  transform="translate(47.9 19.3) rotate(165.9) scale(1.78 1.25)" />
<path d="M 73.8 91.8 C 63.9 89.3, 11.9 39.7, 19.5 27.1 C 12.2 22.0, 23.7 72.1, 29.4 82.1 C 10.9 95.9, 28.4 2.4, 24.3 7.8 C 35.4 5.4, 55.1 63.5, 54.8 78.2 C 49.8 65.3, 7.9 41.5, 19.7 29.5 C 14.4 34.2, 71.2 37.6, 69.8 25.5 C 57.2 40.4, 23.0 50.8, 18.9 58.1 C 21.3 53.2, 15.5 86.4, 21.7 77.1 C 19.5 64.2, 14.8 85.5, 18.4 93.5 C 1.2 100.0, 33.2 73.3, 45.8 86.4 Z" fill="hsl(183, 71%, 60%)" fill-opacity="0.51" stroke="none" stroke-width="2.06"  transform="translate(1.5 4.1) rotate(285.2) scale(1.18 0.88)" />
<rect x="47.4" y="42.7" width="31.6" height="17.0" rx="17.5" fill="hsl(151, 70%, 62%)" fill-opacity="0.28"    />
<path d="M 95.1 37.7 C 94.1 38.2, 45.3 52.6, 38.0 46.7 C 31.8 64.2, 94.6 4.9, 82.4 4.7 C 75.4 17.0, 81.3 92.8, 79.9 84.5 C 90.7 89.3, 3.2 100.0, 1.3 99.2 C 0.0 80.3, 72.2 64.5, 72.8 72.2 C 71.1 61.2, 59.3 52.0, 63.5 62.0 C 77.1 47.4, 57.1 60.0, 42.4 60.5 C 60.9 69.4, 65.2 22.9, 71.1 37.4 C 60.3 56.5, 86.1 76.4, 80.3 62.2 Z" fill="hsl(322, 74%, 44%)" fill-opacity="0.27" stroke="none" stroke-width="4.50"  transform="translate(87.2 24.5) rotate(178.6) scale(0.66 1.62)" />
<rect x="49.0" y="51.6" width="42.6" height="22.9" rx="2.8" fill="hsl(290, 83%, 63%)" fill-opacity="0.97"    />
<path d="M 8.4 92.9 C 0.0 100.0, 81.1 48.2, 75.3 54.7 C 65.1 49.6, 12.4 69.0, 4.3 72.7 C 0.0 92.2, 68.9 79.3, 60.9 88.8 C 73.8 91.0, 41.1 68.3, 48.3 61.3 C 60.0 56.4, 62.1 82.9, 60.3 73.2 C 48.6 65.4, 43.2 51.9, 32.1 60.2 C 31.9 61.0, 55.9 34.1, 56.1 27.6 C 65.9 21.1, 54.6 50.4, 69.1 51.9 C 82.4 49.3, 30.1 86.3, 22.9 78.1 Z" fill="none" fill-opacity="0.33" stroke="hsl(144, 86%, 72%)" stroke-width="2.29"  transform="translate(13.5 54.6) rotate(316.7) scale(1.65 1.86)" />
<circle cx="42.0" cy="69.6" r="9.2" fill="hsl(104, 72%, 65%)" fill-opacity="0.64"  transform="translate(48.9 35.6) rotate(188.1) scale(1.32 0.93)" />
<path d="M 70.0 94.6 C 52.3 100.0, 60.4 27.5, 69.8 26.0 C 66.7 17.6, 36.4 17.8, 24.4 5.1 C 39.8 6.7, 59.7 47.2, 49.5 61.7 C 64.8 68.9, 75.2 71.0, 68.5 72.6 C 68.5 90.4, 14.7 2.3, 15.0 0.0 C 24.5 5.1, 73.8 26.6, 85.3 21.4 C 83.7 14.4, 53.3 43.5, 40.5 46.7 Z" fill="none" fill-opacity="0.30" stroke="hsl(40, 53%, 69%)" stroke-width="1.46"  transform="translate(73.2 79.8) rotate(342.0) scale(0.61 1.66)" />
<path d="M 91.3 22.5 C 97.5 25.5, 38.6 25.5, 37.9 26.3 C 39.3 25.6, 77.1 15.6, 70.1 29.4 C 57.5 29.2, 57.7 49.1, 61.1 35.6 C 42.6 28.8, 55.4 100.0, 70.0 97.3 C 74.3 100.0, 61.2 8.6, 55.0 5.1 C 55.5 23.0, 92.5 12.1, 81.1 1.0 C 94.3 0.0, 94.2 55.9, 100.0 55.2 C 100.0 36.7, 52.5 19.7, 65.6 30.4 C 58.0 24.0, 63.9 51.6, 57.4 48.8 C 49.8 40.0, 26.0 22.4, 15.4 35.5 Z" fill="hsl(183, 71%, 60%)" fill-opacity="0.97" stroke="none" stroke-width="1.47"  transform="translate(1.8 7.3) rotate(102.2) scale(0.88 0.68)" />
<path d="M 42.0 28.5 C 22.2 42.2, 67.3 96.6, 78.3 83.7 C 64.4 68.2, 28.9 29.2, 17.1 35.8 C 4.0 48.5, 98.4 20.9, 94.3 17.4 C 100.0 0.0, 54.4 48.7, 67.9 54.8 C 76.9 60.8, 24.4 73.9, 19.8 87.3 C 38.1 95.7, 64.2 38.4, 58.5 36.8 C 39.5 29.0, 66.2 32.9, 76.4 20.5 C 92.5 1.0, 21.2 76.1, 33.5 86.5 C 23.5 100.0, 29.0 63.0, 24.7 57.4 C 35.5 42.6, 63.9 80.1, 62.9 88.2 Z" fill="none" fill-opacity="0.81" stroke="hsl(144, 86%, 72%)" stroke-width="1.48"  transform="translate(40.7 41.7) rotate(351.5) scale(0.68 1.08)" />
<path d="M 34.3 43.9 C 40.5 57.8, 1.0 6.6, 6.3 0.8 C 0.0 6.8, 67.0 7.4, 66.6 8.2 C 64.7 0.0, 60.8 11.7, 61.3 21.2 C 47.4 5.7, 15.3 64.3, 22.0 75.0 C 6.5 77.5, 41.3 84.8, 27.0 97.7 C 27.8 100.0, 86.2 59.6, 98.7 58.3 C 86.7 38.5, 69.7 8.8, 76.9 1.0 C 60.5 17.4, 80.5 19.5, 77.3 14.3 C 88.0 19.1, 34.7 56.3, 31.1 65.6 Z" fill="none" fill-opacity="0.60" stroke="hsl(322, 74%, 44%)" stroke-width="1.65"   />
<path d="M 62.8 22.3 C 56.8 36.6, 6.8 73.0, 12.4 86.8 C 0.0 67.3, 75.3 15.6, 86.9 30.5 C 96.3 18.9, 26.1 43.3, 16.7 51.0 C 14.6 61.1, 98.9 57.0, 84.3 43.8 C 64.4 59.9, 37.2 80.9, 33.0 81.2 C 48.9 93.8, 69.6 50.1, 76.1 48.1 C 77.4 55.7, 0.0 93.2, 0.9 89.2 C 0.0 92.3, 10.8 69.5, 21.1 61.0 C 37.0 64.4, 44.9 70.3, 45.1 55.8 Z" fill="none" fill-opacity="0.32" stroke="hsl(83, 65%, 44%)" stroke-width="2.98"  transform="translate(87.1 97.5) rotate(279.8) scale(1.95 1.82)" />
<circle cx="84.1" cy="69.7" r="2.2" fill="url(#g2)" fill-opacity="0.67"  transform="translate(57.4 19.2) rotate(253.4) scale(0.73 1.75)" />
<circle cx="42.3" cy="48.7" r="3.9" fill="url(#g2)" fill-opacity="0.93"  transform="translate(51.7 98.7) rotate(220.0) scale(1.50 0.81)" />
<path d="M 23.6 69.1 C 27.1 64.3, 81.3 14.9, 69.4 9.5 C 59.0 14.6, 79.0 65.7, 79.4 69.2 C 63.5 69.6, 80.6 16.4, 89.4 6.1 C 96.5 11.3, 71.2 46.6, 78.1 41.4 C 82.7 43.5, 75.3 84.1, 69.7 72.4 C 81.6 58.5, 12.4 56.9, 12.9 53.6 C 18.3 38.5, 76.3 85.2, 76.1 73.3 C 61.0 65.4, 5.0 73.0, 8.6 75.1 C 0.0 73.6, 70.5 41.4, 83.1 42.7 Z" fill="none" fill-opacity="0.59" stroke="hsl(106, 75%, 59%)" stroke-width="1.06"  transform="translate(64.8 59.1) rotate(120.9) scale(0.97 0.82)" />
<path d="M 30.1 95.4 C 30.4 100.0, 7.5 42.6, 1.3 44.0 C 0.0 35.0, 26.1 32.6, 13.4 29.6 C 10.7 34.1, 18.6 34.7, 25.0 39.2 C 39.1 56.5, 50.9 22.2, 52.3 27.2 C 42.6 38.9, 35.0 47.9, 37.6 55.1 C 17.7 64.6, 19.2 39.3, 7.2 48.6 C 10.0 66.2, 36.6 22.7, 45.5 34.1 Z" fill="none" fill-opacity="0.64" stroke="hsl(290, 83%, 63%)" stroke-width="3.65"  transform="translate(38.7 4.5) rotate(139.4) scale(0.53 1.71)" />
<path d="M 26.9 66.5 C 21.4 47.3, 100.0 39.1, 93.5 27.0 C 84.4 30.5, 83.0 80.1, 72.6 66.1 C 84.4 69.8, 0.0 98.2, 11.1 92.1 C 30.3 80.0, 74.2 13.0, 77.6 9.1 C 75.0 13.9, 26.0 2.9, 28.2 12.5 C 33.0 0.0, 95.5 20.9, 94.6 33.4 C 100.0 23.2, 55.5 0.0, 51.4 8.2 C 33.6 22.0, 30.1 83.8, 20.7 93.8 C 37.6 73.8, 90.2 83.8, 83.9 95.8 Z" fill="none" fill-opacity="0.76" stroke="hsl(290, 83%, 63%)" stroke-width="3.37"  transform="translate(62.5 64.5) rotate(183.0) scale(1.49 1.40)" />
<path d="M 55.4 13.6 C 41.1 7.6, 56.6 58.8, 68.2 46.4 C 48.3 40.9, 10.0 20.0, 2.8 9.8 C 0.0 14.1, 18.4 75.3, 25.1 76.5 C 36.5 85.4, 59.6 63.4, 70.6 72.5 C 72.6 65.2, 78.7 74.0, 64.1 77.6 C 56.1 81.7, 54.4 27.4, 41.4 28.1 C 27.4 27.5, 62.4 74.2, 52.1 81.3 Z" fill="hsl(242, 72%, 49%)" fill-opacity="0.47" stroke="none" stroke-width="1.68" filter="url(#f1)" transform="translate(54.9 40.9) rotate(329.8) scale(1.40 1.80)" />
<rect x="0.7" y="55.6" width="48.5" height="29.3" rx="0.2" fill="none" fill-opacity="0.41" stroke="hsl(83, 65%, 44%)" stroke-width="2.6"  transform="translate(88.9 11.6) rotate(145.8) scale(0.91 0.92)" />
<path d="M 54.5 72.2 C 45.8 77.5, 1.4 16.9, 12.9 22.3 C 3.4 16.6, 88.9 18.0, 79.2 30.4 C 85.7 26.1, 46.3 87.8, 35.9 87.0 C 16.7 94.1, 55.2 75.0, 62.2 77.1 C 79.8 83.3, 84.7 77.7, 78.5 64.9 C 83.5 68.4, 77.5 5.4, 63.7 9.9 C 67.3 6.9, 30.4 31.3, 31.5 24.7 C 11.9 14.1, 67.9 30.3, 57.7 16.5 C 68.0 26.0, 15.4 70.4, 18.2 58.5 " fill="hsl(322, 74%, 44%)" fill-opacity="0.75" stroke="none" stroke-width="4.79"  transform="translate(39.0 17.0) rotate(54.6) scale(1.82 0.88)" />
<path d="M 56.0 1.3 C 42.8 0.1, 41.0 58.0, 34.9 71.7 C 36.5 91.3, 60.3 46.6, 61.6 58.9 C 61.1 52.9, 80.4 31.8, 84.8 28.2 C 73.0 30.4, 8.4 53.6, 13.3 61.7 C 20.5 46.6, 45.3 85.7, 49.9 74.0 C 41.6 77.0, 82.6 19.8, 68.7 31.8 C 80.7 48.5, 33.5 11.0, 33.5 8.3 C 46.9 13.1, 46.9 38.2, 56.7 39.1 C 61.7 56.8, 73.5 100.0, 65.8 92.1 " fill="none" fill-opacity="0.71" stroke="hsl(106, 75%, 59%)" stroke-width="5.22"  transform="translate(87.3 53.3) rotate(77.3) scale(1.14 1.76)" />
<path d="M 81.8 5.3 C 85.2 0.0, 14.9 71.0, 9.4 79.8 C 18.3 70.7, 75.1 44.7, 60.8 44.5 C 68.5 42.4, 56.5 13.6, 45.8 19.7 C 58.3 29.4, 59.1 46.6, 44.6 48.1 C 41.4 52.4, 58.4 31.8, 61.0 45.1 C 59.6 54.2, 19.3 76.9, 5.3 87.9 Z" fill="hsl(322, 74%, 44%)" fill-opacity="0.97" stroke="none" stroke-width="0.85"  transform="translate(70.8 27.5) rotate(155.3) scale(1.01 0.74)" />
<circle cx="37.9" cy="77.0" r="14.2" fill="url(#g2)" fill-opacity="0.50"  transform="translate(73.4 16.5) rotate(335.2) scale(1.80 1.59)" />
<rect x="46.2" y="20.3" width="39.9" height="31.5" rx="0" fill="none" fill-opacity="0.88"    />
<path d="M 81.6 49.8 C 66.9 34.9, 58.3 48.8, 69.1 34.0 C 55.7 32.6, 28.0 6.7, 26.3 2.7 C 6.3 10.6, 33.3 55.4, 29.3 56.5 C 17.8 61.9, 42.6 76.7, 34.7 83.8 C 34.1 70.1, 49.2 95.0, 63.4 94.0 C 56.1 100.0, 31.4 39.4, 38.3 28.3 C 49.2 45.8, 0.0 9.4, 3.7 19.0 C 14.0 28.9, 20.6 82.6, 29.2 87.6 C 41.7 81.5, 36.8 96.8, 31.1 84.5 Z" fill="hsl(242, 72%, 49%)" fill-opacity="0.42" stroke="none" stroke-width="2.52"  transform="translate(29.8 72.1) rotate(223.1) scale(1.89 1.83)" />
<rect x="6.3" y="60.3" width="49.3" height="39.1" rx="13.6" fill="hsl(40, 53%, 69%)" fill-opacity="0.25"    />
<rect x="54.5" y="9.6" width="21.3" height="22.7" rx="8.6" fill="hsl(2, 82%, 55%)" fill-opacity="0.42"   transform="translate(92.6 78.0) rotate(67.0) scale(1.03 1.17)" />
<rect x="27.2" y="9.3" width="46.5" height="34.5" rx="0" fill="none" fill-opacity="0.30"   transform="translate(87.4 68.7) rotate(1.8) scale(0.58 1.54)" />
<path d="M 74.8 90.0 C 88.2 99.2, 60.3 83.9, 51.1 94.6 C 35.9 85.7, 86.5 83.5, 75.1 85.3 C 92.1 89.8, 80.8 15.1, 95.5 22.8 C 100.0 7.9, 37.5 67.2, 26.3 76.7 C 38.3 58.9, 42.5 6.6, 35.3 1.0 C 52.6 5.8, 39.1 95.8, 42.7 95.8 C 50.5 89.1, 72.2 83.5, 67.6 74.7 Z" fill="none" fill-opacity="0.28" stroke="hsl(2, 82%, 55%)" stroke-width="1.82"   />
<path d="M 6.6 17.4 C 17.3 8.8, 75.2 100.0, 73.7 90.8 C 64.4 100.0, 79.9 43.3, 71.4 45.0 C 67.8 25.7, 0.7 68.5, 15.6 82.8 C 13.5 95.6, 12.5 16.7, 18.5 16.0 C 21.7 31.0, 43.6 69.3, 41.0 79.7 C 21.2 79.4, 72.8 75.4, 87.2 60.8 Z" fill="hsl(104, 72%, 65%)" fill-opacity="0.82" stroke="none" stroke-width="3.94"  transform="translate(33.1 55.3) rotate(258.8) scale(1.69 1.57)" />
<circle cx="64.3" cy="42.3" r="3.0" fill="hsl(104, 72%, 65%)" fill-opacity="0.51"  transform="translate(73.2 91.6) rotate(56.8) scale(1.11 1.68)" />
<path d="M 57.7 40.8 C 70.4 43.9, 38.9 70.4, 42.3 80.0 C 53.1 75.1, 95.5 80.7, 85.2 86.3 C 87.9 98.5, 59.7 86.3, 69.2 97.2 C 72.7 100.0, 65.6 30.3, 77.7 26.6 C 84.3 14.9, 43.6 1.9, 32.1 0.8 C 44.1 19.3, 15.5 29.4, 5.0 15.6 C 0.0 17.1, 65.1 38.7, 55.4 50.4 Z" fill="none" fill-opacity="0.66" stroke="hsl(322, 74%, 44%)" stroke-width="4.12"  transform="translate(32.6 78.0) rotate(217.7) scale(0.75 1.55)" />
<circle cx="31.5" cy="73.5" r="1.7" fill="url(#g1)" fill-opacity="0.95"   />
<circle cx="3.5" cy="90.1" r="2.9" fill="hsl(104, 72%, 65%)" fill-opacity="0.50"  transform="translate(57.9 88.9) rotate(51.7) scale(1.28 0.91)" />
<path d="M 78.9 98.2 C 61.9 100.0, 28.7 80.5, 28.6 69.5 C 44.6 69.0, 100.0 89.2, 98.5 81.5 C 100.0 85.9, 78.3 0.0, 64.0 6.3 C 58.7 0.0, 26.4 99.0, 14.6 96.6 C 14.9 85.9, 28.1 63.9, 27.4 56.4 C 21.8 55.0, 12.9 74.0, 18.6 87.5 C 19.4 68.4, 21.1 63.9, 32.7 74.9 C 42.7 81.1, 54.7 100.0, 68.0 97.1 C 62.8 100.0, 84.4 77.6, 95.7 86.8 C 93.4 91.6, 94.0 53.6, 99.4 47.8 Z" fill="hsl(290, 83%, 63%)" fill-opacity="0.73" stroke="none" stroke-width="1.66" filter="url(#f1)" transform="translate(73.6 53.0) rotate(344.5) scale(1.18 1.29)" />
<path d="M 42.2 83.1 C 60.9 100.0, 12.5 77.4, 18.5 69.0 C 5.3 58.9, 54.8 41.9, 40.0 28.7 C 46.5 30.7, 37.9 57.3, 40.8 51.5 C 33.5 55.4, 87.7 32.2, 91.4 36.3 C 100.0 24.2, 51.9 54.2, 39.1 65.8 C 56.5 80.2, 33.1 55.7, 39.0 66.6 C 25.5 58.1, 14.2 26.6, 17.6 27.0 Z" fill="none" fill-opacity="0.97" stroke="hsl(242, 72%, 49%)" stroke-width="2.57" filter="url(#f1)"  />
<path d="M 84.1 35.0 C 72.3 15.1, 18.7 62.6, 11.5 50.7 C 19.9 64.3, 73.7 37.5, 85.0 52.0 C 100.0 32.2, 16.8 73.5, 4.6 63.3 C 16.8 62.0, 83.8 38.0, 81.8 25.8 C 89.5 16.4, 52.3 57.8, 46.0 71.1 C 60.7 58.4, 0.7 14.8, 12.2 0.5 Z" fill="hsl(106, 75%, 59%)" fill-opacity="0.29" stroke="none" stroke-width="1.07" filter="url(#f1)"  />
<circle cx="86.7" cy="98.9" r="9.3" fill="url(#g2)" fill-opacity="0.95"  transform="translate(13.1 57.0) rotate(306.7) scale(0.57 1.02)" />
<path d="M 11.4 89.4 C 0.0 100.0, 65.3 20.0, 64.9 5.1 C 48.0 0.0, 0.0 14.6, 10.1 15.4 C 0.0 32.8, 81.8 63.3, 91.8 55.1 C 97.2 55.6, 70.4 73.3, 59.8 58.6 C 50.7 53.7, 8.3 69.1, 22.4 80.6 C 32.5 63.6, 33.2 37.1, 40.8 28.3 Z" fill="none" fill-opacity="0.46" stroke="hsl(144, 86%, 72%)" stroke-width="5.06"  transform="translate(73.7 27.5) rotate(266.2) scale(1.99 1.97)" />
<rect x="65.7" y="64.8" width="28.0" height="29.3" rx="18.3" fill="hsl(151, 70%, 62%)" fill-opacity="0.30"   transform="translate(89.3 27.0) rotate(79.2) scale(1.00 1.20)" />
<rect x="53.5" y="31.1" width="27.9" height="38.1" rx="0" fill="hsl(104, 72%, 65%)" fill-opacity="0.25"   transform="translate(99.0 29.3) rotate(109.0) scale(1.38 1.61)" />
<rect x="39.2" y="61.0" width="33.0" height="16.1" rx="4.0" fill="none" fill-opacity="0.93"   transform="translate(66.3 16.7) rotate(162.7) scale(0.92 1.22)" />
<circle cx="63.3" cy="89.6" r="1.8" fill="hsl(144, 86%, 72%)" fill-opacity="0.57"  transform="translate(12.5 93.3) rotate(269.0) scale(1.54 1.01)" />
<circle cx="25.6" cy="59.7" r="1.5" fill="url(#g0)" fill-opacity="0.66" filter="url(#f1)" transform="translate(48.2 70.8) rotate(293.4) scale(0.63 1.58)" />
<rect x="11.3" y="44.1" width="38.1" height="25.6" rx="19.4" fill="hsl(86, 72%, 68%)" fill-opacity="0.61" stroke="hsl(290, 83%, 63%)" stroke-width="2.0"  transform="translate(93.5 41.7) rotate(38.0) scale(0.67 0.71)" />
<path d="M 47.3 26.7 C 65.5 19.3, 52.3 53.1, 41.9 46.4 C 53.7 45.3, 15.3 70.8, 9.8 68.4 C 0.0 75.1, 16.0 57.9, 29.9 65.9 C 41.1 80.4, 100.0 43.9, 89.9 48.1 C 100.0 60.3, 27.1 11.3, 23.8 23.9 C 31.8 32.3, 55.5 25.1, 52.4 35.0 C 65.0 21.1, 27.6 100.0, 28.9 97.2 C 36.6 88.2, 2.2 0.8, 10.8 9.3 C 0.0 11.7, 68.3 36.4, 73.4 26.0 C 67.9 32.6, 35.1 95.1, 37.9 98.5 Z" fill="hsl(86, 72%, 68%)" fill-opacity="0.39" stroke="none" stroke-width="4.44"  transform="translate(57.0 6.9) rotate(156.3) scale(1.88 1.55)" />
<rect x="76.0" y="76.9" width="22.1" height="14.6" rx="0" fill="hsl(183, 71%, 60%)" fill-opacity="0.88"  filter="url(#f1)"  />
<rect x="0.9" y="31.5" width="22.6" height="13.1" rx="13.7" fill="hsl(2, 82%, 55%)" fill-opacity="0.46"    />
<path d="M 63.4 10.4 C 69.1 14.5, 94.9 55.0, 86.8 67.1 C 87.9 69.9, 13.7 74.8, 1.1 78.9 C 0.0 94.1, 14.1 9.5, 0.7 2.5 C 8.7 0.0, 47.9 33.1, 44.9 47.8 C 42.4 54.1, 40.8 31.1, 38.4 35.6 C 43.8 45.5, 37.0 83.8, 45.8 84.3 C 44.0 81.1, 33.4 44.3, 20.6 52.6 C 1.1 70.5, 47.3 95.8, 55.1 82.3 Z" fill="hsl(2, 82%, 55%)" fill-opacity="0.86" stroke="none" stroke-width="1.73"   />
<path d="M 95.9 83.4 C 98.6 80.1, 13.0 27.9, 8.8 22.5 C 18.2 27.3, 79.8 66.2, 87.1 73.6 C 98.7 66.3, 35.6 87.4, 40.5 88.4 C 50.0 100.0, 3.2 71.7, 13.5 76.2 C 7.7 71.0, 32.7 0.0, 38.9 9.0 C 44.4 13.1, 10.3 42.0, 4.9 49.4 C 16.2 33.1, 0.0 21.8, 0.4 17.0 C 13.5 24.0, 93.9 100.0, 92.5 91.2 C 77.8 81.8, 87.2 37.9, 95.8 27.2 C 80.9 40.9, 4.5 15.4, 18.2 4.4 Z" fill="none" fill-opacity="0.62" stroke="hsl(83, 65%, 44%)" stroke-width="4.45"  transform="translate(9.1 79.0) rotate(201.4) scale(1.77 1.05)" />
<rect x="31.9" y="14.8" width="44.1" height="33.3" rx="16.3" fill="none" fill-opacity="0.76"   transform="translate(72.9 62.4) rotate(74.8) scale(0.70 1.94)" />
<path d="M 32.6 37.7 C 49.4 50.0, 17.7 25.5, 6.5 16.1 C 0.0 21.6, 15.7 87.2, 15.3 87.5 C 7.5 95.2, 12.7 97.8, 18.2 96.5 C 17.6 85.9, 0.0 15.7, 9.1 17.2 C 0.0 13.3, 0.0 92.4, 1.8 99.7 C 0.0 89.5, 57.3 58.9, 58.1 56.0 C 40.4 51.8, 16.0 45.1, 10.3 43.6 C 1.4 46.4, 88.3 94.3, 95.8 84.7 Z" fill="none" fill-opacity="0.27" stroke="hsl(86, 72%, 68%)" stroke-width="1.52"  transform="translate(16.9 34.9) rotate(275.8) scale(1.46 0.55)" />
<path d="M 38.0 34.9 C 55.5 18.8, 62.2 74.7, 73.8 87.5 C 71.1 68.1, 53.4 64.9, 61.6 54.3 C 67.7 35.1, 9.8 48.1, 14.3 41.1 C 32.1 26.2, 42.5 57.0, 37.6 42.3 C 56.1 48.5, 68.3 81.1, 79.5 84.4 C 64.8 74.1, 72.1 36.6, 68.0 51.4 Z" fill="none" fill-opacity="0.39" stroke="hsl(144, 86%, 72%)" stroke-width="3.07"  transform="translate(70.9 69.0) rotate(228.6) scale(1.56 1.97)" />
<circle cx="32.1" cy="44.8" r="4.8" fill="hsl(322, 74%, 44%)" fill-opacity="1.00"  transform="translate(5.2 42.2) rotate(149.9) scale(0.88 1.28)" />
<path d="M 28.0 32.7 C 17.1 30.2, 92.3 10.7, 77.8 23.9 C 68.8 40.7, 69.0 30.3, 55.1 34.9 C 53.6 24.6, 74.5 70.0, 72.7 79.7 C 55.0 84.1, 19.5 89.3, 5.1 92.8 C 0.0 79.1, 49.2 30.1, 54.1 37.5 C 53.6 25.3, 63.6 38.9, 75.8 38.5 C 77.1 43.1, 60.6 67.2, 56.8 79.7 C 57.2 60.0, 93.2 17.6, 90.8 28.3 C 100.0 23.2, 87.6 83.5, 82.6 94.5 C 86.9 89.0, 75.7 63.6, 73.5 56.9 Z" fill="none" fill-opacity="0.98" stroke="hsl(40, 53%, 69%)" stroke-width="1.54" filter="url(#f1)" transform="translate(10.8 25.0) rotate(269.2) scale(1.58 1.83)" />
<rect x="25.3" y="57.4" width="43.7" height="39.8" rx="12.3" fill="hsl(104, 72%, 65%)" fill-opacity="0.38"   transform="translate(28.6 48.2) rotate(6.4) scale(1.93 1.72)" />
<path d="M 2.0 20.1 C 9.0 28.8, 66.5 41.5, 51.6 33.2 C 48.2 27.0, 9.6 41.9, 12.8 29.3 C 0.0 12.6, 41.0 65.1, 44.0 73.6 C 36.6 67.9, 35.4 66.2, 22.5 79.4 C 18.9 87.7, 37.5 55.0, 43.6 45.5 C 34.1 35.6, 61.3 31.9, 69.4 24.5 C 85.1 10.7, 20.0 40.3, 6.4 44.5 C 26.2 49.0, 46.5 49.2, 46.7 36.8 C 65.3 46.0, 12.3 74.5, 17.0 72.3 C 6.7 75.5, 48.4 18.1, 59.1 6.2 Z" fill="hsl(144, 86%, 72%)" fill-opacity="0.66" stroke="none" stroke-width="1.69"  transform="translate(18.5 87.0) rotate(236.2) scale(1.79 1.50)" />
<path d="M 95.4 81.9 C 100.0 81.5, 79.6 15.7, 82.0 0.8 C 74.1 19.7, 25.5 0.0, 32.5 5.3 C 27.9 0.4, 75.9 22.9, 87.1 8.1 C 100.0 19.8, 53.0 100.0, 40.1 99.1 C 30.9 91.2, 28.7 41.4, 28.1 39.5 C 17.6 30.4, 8.9 40.5, 21.8 52.1 C 11.7 42.5, 81.4 52.6, 74.9 64.5 Z" fill="hsl(86, 72%, 68%)" fill-opacity="0.99" stroke="none" stroke-width="4.21"  transform="translate(55.0 99.1) rotate(78.5) scale(1.41 1.97)" />
<path d="M 52.8 8.5 C 63.7 17.8, 22.5 53.9, 14.0 42.3 C 13.9 40.8, 31.5 31.4, 43.6 45.9 C 62.5 29.4, 58.9 20.3, 53.0 20.9 C 53.8 21.5, 53.6 27.1, 57.2 13.0 C 43.1 6.0, 50.1 100.0, 61.3 98.3 C 71.4 100.0, 96.0 65.3, 99.5 51.9 C 100.0 68.7, 100.0 56.4, 96.4 42.7 C 89.3 38.4, 2.9 40.7, 11.9 38.1 C 5.1 28.0, 4.2 26.3, 0.5 16.2 " fill="none" fill-opacity="0.71" stroke="hsl(144, 86%, 72%)" stroke-width="0.85"   />
<rect x="41.9" y="37.6" width="44.2" height="38.5" rx="12.2" fill="none" fill-opacity="0.94" stroke="hsl(40, 53%, 69%)" stroke-width="3.7" filter="url(#f1)" transform="translate(32.3 13.8) rotate(308.1) scale(1.89 0.75)" />
<rect x="15.2" y="66.5" width="49.1" height="13.3" rx="0" fill="hsl(183, 71%, 60%)" fill-opacity="0.31"   transform="translate(11.5 77.5) rotate(147.6) scale(1.52 1.78)" />
<path d="M 58.4 16.9 C 46.0 20.0, 100.0 86.0, 98.1 88.4 C 100.0 91.4, 83.4 65.2, 84.1 72.8 C 86.7 79.0, 15.8 100.0, 11.2 93.7 C 28.4 80.8, 45.9 100.0, 59.3 94.8 C 49.6 87.2, 48.3 0.0, 45.9 5.2 C 30.8 20.1, 78.8 12.3, 87.2 23.0 C 93.0 22.3, 91.4 76.2, 83.1 65.6 Z" fill="hsl(151, 70%, 62%)" fill-opacity="0.94" stroke="none" stroke-width="3.10"  transform="translate(29.8 62.1) rotate(65.2) scale(1.23 0.75)" />
<rect x="33.1" y="38.3" width="34.3" height="32.4" rx="9.4" fill="hsl(40, 53%, 69%)" fill-opacity="0.71"  filter="url(#f1)"  />
<path d="M 9.4 90.3 C 0.0 78.0, 71.3 29.7, 58.0 23.0 C 47.6 42.7, 18.8 0.0, 21.7 4.9 C 24.9 0.0, 59.3 78.9, 61.6 90.9 C 45.0 74.1, 17.3 31.6, 9.2 31.9 C 26.1 41.4, 30.3 47.1, 24.4 49.0 C 25.0 67.2, 37.2 24.5, 24.4 28.7 C 37.5 25.0, 4.8 65.2, 17.2 67.0 C 12.7 68.8, 0.0 100.0, 7.1 89.3 C 0.0 80.3, 71.4 29.9, 59.4 41.4 Z" fill="none" fill-opacity="0.26" stroke="hsl(290, 83%, 63%)" stroke-width="4.10"   />
<circle cx="82.2" cy="26.7" r="9.8" fill="hsl(144, 86%, 72%)" fill-opacity="0.89" filter="url(#f1)" transform="translate(69.3 33.5) rotate(125.9) scale(1.55 1.44)" />
<rect x="10.6" y="22.2" width="25.6" height="34.6" rx="0" fill="none" fill-opacity="0.90" stroke="hsl(86, 72%, 68%)" stroke-width="3.7"  transform="translate(96.9 59.3) rotate(259.8) scale(1.57 1.44)" />
<path d="M 70.5 11.5 C 73.6 19.1, 12.4 37.4, 11.0 49.3 C 15.9 68.0, 54.6 10.1, 62.6 1.6 C 58.1 0.0, 2.2 91.6, 8.7 81.1 C 0.0 85.9, 21.9 80.2, 26.2 86.8 C 7.7 98.4, 10.2 68.0, 9.3 57.6 C 15.6 58.1, 88.6 93.6, 96.4 79.1 C 100.0 60.4, 22.5 82.6, 24.3 76.1 C 38.6 69.4, 24.4 42.5, 23.6 41.0 C 8.5 57.8, 84.2 39.2, 97.6 40.4 Z" fill="hsl(322, 74%, 44%)" fill-opacity="0.76" stroke="none" stroke-width="5.15"  transform="translate(41.8 47.7) rotate(264.6) scale(0.74 0.54)" />
<rect x="7.1" y="82.5" width="47.7" height="16.0" rx="0" fill="hsl(86, 72%, 68%)" fill-opacity="0.76"  filter="url(#f1)" transform="translate(71.0 32.0) rotate(18.8) scale(1.00 1.95)" />
<circle cx="49.3" cy="14.1" r="0.3" fill="hsl(151, 70%, 62%)" fill-opacity="0.50"  transform="translate(31.8 80.3) rotate(65.4) scale(1.98 1.74)" />
<path d="M 87.3 82.7 C 68.3 62.9, 38.8 100.0, 46.9 93.3 C 53.9 85.3, 16.0 45.7, 9.0 56.5 C 5.6 45.2, 64.9 92.3, 64.3 90.3 C 47.3 86.7, 97.8 47.8, 82.9 43.7 C 67.8 32.7, 63.0 22.0, 54.6 10.1 C 61.0 0.0, 0.0 40.5, 10.5 41.0 C 0.0 33.9, 86.9 84.5, 85.4 78.5 C 74.6 65.3, 4.2 45.0, 5.8 32.6 Z" fill="hsl(104, 72%, 65%)" fill-opacity="0.38" stroke="none" stroke-width="3.35"  transform="translate(50.0 97.7) rotate(26.7) scale(0.56 1.40)" />
<path d="M 70.5 55.3 C 70.8 62.9, 21.3 29.1, 21.7 21.5 C 11.4 30.7, 46.8 2.7, 45.9 10.5 C 62.1 29.7, 60.9 73.0, 72.9 59.4 C 69.8 64.8, 88.1 44.7, 74.9 40.3 C 67.8 59.6, 56.6 33.4, 48.6 38.9 C 29.8 42.1, 82.7 98.0, 82.8 88.6 C 72.8 98.2, 52.0 79.9, 46.6 79.3 C 30.2 91.6, 47.3 10.1, 55.6 16.7 " fill="none" fill-opacity="0.52" stroke="hsl(2, 82%, 55%)" stroke-width="3.21"  transform="translate(0.7 1.6) rotate(128.8) scale(1.03 1.99)" />
<path d="M 0.6 32.0 C 20.6 34.9, 75.3 72.6, 67.3 78.1 C 60.0 82.8, 87.2 70.2, 92.5 69.3 C 90.6 78.8, 64.3 82.3, 65.6 67.7 C 84.5 70.5, 18.4 8.4, 10.1 23.0 C 0.0 3.6, 66.8 24.2, 52.0 17.8 C 60.9 1.5, 38.5 64.1, 50.8 74.5 Z" fill="none" fill-opacity="0.29" stroke="hsl(86, 72%, 68%)" stroke-width="1.99"  transform="translate(16.0 38.5) rotate(301.6) scale(1.09 0.84)" />
<path d="M 10.0 7.5 C 10.1 3.9, 53.7 6.2, 67.6 0.5 C 66.7 0.0, 80.6 41.4, 78.3 46.5 C 61.4 42.9, 68.3 9.7, 73.1 17.4 C 86.5 29.4, 87.3 34.8, 81.3 35.9 C 78.9 25.6, 44.4 77.7, 55.2 83.6 C 41.6 81.9, 35.9 85.8, 30.4 96.5 Z" fill="hsl(106, 75%, 59%)" fill-opacity="0.35" stroke="none" stroke-width="4.05"  transform="translate(3.1 72.7) rotate(51.2) scale(1.15 1.42)" />
<path d="M 49.1 67.1 C 45.5 62.4, 77.3 88.9, 86.3 73.9 C 81.3 93.0, 100.0 79.3, 91.8 88.8 C 100.0 100.0, 32.1 33.9, 40.5 47.0 C 26.4 34.9, 30.9 0.0, 35.4 1.1 C 33.4 0.0, 51.8 84.1, 54.3 85.1 C 35.8 69.1, 3.8 100.0, 13.5 95.6 C 11.0 100.0, 75.2 34.2, 66.7 22.2 C 53.4 30.6, 83.2 56.1, 89.3 63.9 Z" fill="hsl(86, 72%, 68%)" fill-opacity="0.52" stroke="none" stroke-width="4.94" filter="url(#f1)" transform="translate(86.0 85.6) rotate(162.4) scale(0.91 1.12)" />
<rect x="64.8" y="4.6" width="35.0" height="15.5" rx="0" fill="none" fill-opacity="0.60"    />
<circle cx="22.5" cy="32.9" r="14.6" fill="url(#g0)" fill-opacity="0.70" filter="url(#f1)" transform="translate(61.1 90.6) rotate(294.4) scale(1.85 1.17)" />
<g opacity="0.049">
<rect x="0" y="0" width="1" height="100" fill="black" />
<rect x="22" y="0" width="1" height="100" fill="black" />
<rect x="44" y="0" width="1" height="100" fill="black" />
<rect x="66" y="0" width="1" height="100" fill="black" />
<rect x="88" y="0" width="1" height="100" fill="black" />
<rect x="0" y="0" width="100" height="1" fill="black" />
<rect x="0" y="22" width="100" height="1" fill="black" />
<rect x="0" y="44" width="100" height="1" fill="black" />
<rect x="0" y="66" width="100" height="1" fill="black" />
<rect x="0" y="88" width="100" height="1" fill="black" />
</g>

</svg>
