<?xml version="1.0" encoding="UTF-8"?>
<svg xmlns="http://www.w3.org/2000/svg" width="100" height="100" viewBox="0 0 100 100">
<defs>
<linearGradient id="g0" x1="0%" y1="0%" x2="100%" y2="100%">
<stop offset="0.0%" stop-color="hsl(106, 75%, 59%)" />
<stop offset="33.3%" stop-color="hsl(183, 71%, 60%)" />
<stop offset="66.7%" stop-color="hsl(242, 72%, 49%)" />
<stop offset="100.0%" stop-color="hsl(322, 74%, 44%)" />
</linearGradient>
<linearGradient id="g1" x1="0%" y1="0%" x2="100%" y2="100%">
<stop offset="0.0%" stop-color="hsl(290, 83%, 63%)" />
<stop offset="33.3%" stop-color="hsl(2, 82%, 55%)" />
<stop offset="66.7%" stop-color="hsl(86, 72%, 68%)" />
<stop offset="100.0%" stop-color="hsl(83, 65%, 44%)" />
</linearGradient>
<linearGradient id="g2" x1="0%" y1="0%" x2="100%" y2="100%">
<stop offset="0.0%" stop-color="hsl(40, 53%, 69%)" />
<stop offset="33.3%" stop-color="hsl(104, 72%, 65%)" />
<stop offset="66.7%" stop-color="hsl(144, 86%, 72%)" />
<stop offset="100.0%" stop-color="hsl(151, 70%, 62%)" />
</linearGradient>
<filter id="f1" x="-20%" y="-20%" width="140%" height="140%">
  <feGaussianBlur stdDeviation="1.316815370757046" />
</filter>

</defs>

<path d="M 42.5 9.3 C 60.2 18.7, 43.2 85.1, 42.0 87.4 C 23.6 93.9, 44.4 65.3, 51.1 69.6 C 42.0 80.1, 32.1 44.9, 42.0 43.9 C 53.1 39.1, 53.1 14.4, 53.4 11.3 C 58.3 0.0, 60.1 0.0, 64.1 9.0 C 80.9 25.1, 65.4 63.0, 75.2 71.1 C 79.3 67.6, 12.3 0.0, 23.1 6.7 C 8.0 22.8, 42.5 100.0, 42.6 91.0 C 58.2 74.3, 3.1 36.7, 17.2 36.5 Z" fill="none" fill-opacity="0.61" stroke="hsl(183, 71%, 60%)" stroke-width="4.93"  transform="translate(39.6 62.1) rotate(11.9) scale(0.67 0.73)" />
<circle cx="99.2" cy="21.7" r="3.2" fill="url(#g0)" fill-opacity="0.92"  transform="translate(21.2 65.3) rotate(66.4) scale(1.40 1.40)" />
<path d="M 97.1 43.3 C 99.1 27.7, 86.4 26.9, 93.0 26.4 C 100.0 44.1, 84.8 78.5, 85.2 74.7 C 76.3 87.0, 73.9 100.0, 59.6 98.9 C 41.2 100.0, 84.4 23.4, 74.2 20.3 C 66.1 16.3, 10.9 53.6, 6.4 45.1 C 25.5 60.5, 89.2 100.0, 93.6 87.8 C 88.4 90.2, 58.3 47.8, 52.9 33.9 C 43.2 34.0, 6.5 21.6, 18.3 24.3 Z" fill="hsl(322, 74%, 44%)" fill-opacity="0.82" stroke="none" stroke-width="3.93"  transform="translate(13.8 38.4) rotate(188.8) scale(0.67 1.37)" />
<rect x="11.3" y="9.8" width="46.1" height="20.0" rx="0.5" fill="none" fill-opacity="0.83" stroke="hsl(106, 75%, 59%)" stroke-width="3.2"  transform="translate(22.9 34.5) rotate(69.7) scale(1.76 1.23)" />
<circle cx="53.2" cy="22.1" r="13.3" fill="url(#g2)" fill-opacity="0.89"  transform="translate(48.7 35.8) rotate(344.9) scale(1.00 0.91)" />
<path d="M 81.3 24.7 C 100.0 20.8, 69.6 25.7, 66.6 11.7 C 60.1 15.9, 74.6 72.7, 61.3 62.2 C 51.4 68.3, 3.1 69.2, 2.3 65.4 C 0.0 49.2, 100.0 83.1, 96.6 97.3 C 100.0 97.5, 46.7 80.1, 38.1 65.9 C 35.0 80.4, 0.0 93.0, 1.4 94.1 C 5.2 100.0, 18.5 57.4, 30.2 51.9 C 12.9 62.5, 66.6 77.1, 70.6 88.0 C 61.4 100.0, 32.3 12.2, 27.2 23.0 C 21.0 41.9, 46.2 38.2, 32.9 35.7 Z" fill="none" fill-opacity="0.87" stroke="hsl(183, 71%, 60%)" stroke-width="2.96"  transform="translate(99.2 12.4) rotate(85.4) scale(1.16 1.33)" />
<circle cx="93.4" cy="81.4" r="4.5" fill="hsl(242, 72%, 49%)" fill-opacity="0.89"  transform="translate(66.4 29.6) rotate(323.9) scale(1.14 1.87)" />
<circle cx="92.8" cy="66.5" r="7.0" fill="url(#g1)" fill-opacity="0.47"  transform="translate(10.6 44.7) rotate(233.4) scale(1.40 1.28)" />
<path d="M 21.1 3.4 C 39.5 0.0, 4.8 55.6, 8.1 68.5 C 27.3 83.7, 54.0 32.9, 61.1 47.6 C 59.0 50.6, 56.5 84.7, 67.4 89.5 C 74.9 100.0, 35.0 36.5, 42.0 27.6 C 23.0 10.6, 72.3 39.4, 66.4 29.7 C 68.9 14.4, 95.7 90.6, 92.6 89.4 C 97.3 92.9, 79.0 72.7, 83.5 84.8 C 64.1 85.0, 48.5 12.9, 51.6 14.0 C 65.5 29.5, 15.5 56.8, 9.7 48.1 C 0.0 37.6, 27.1 18.3, 35.1 31.4 Z" fill="none" fill-opacity="0.62" stroke="hsl(322, 74%, 44%)" stroke-width="3.66"  transform="translate(80.1 97.3) rotate(126.8) scale(1.47 1.99)" />
<path d="M 16.4 72.0 C 0.0 53.5, 73.1 32.7, 81.2 47.2 C 77.3 57.4, 14.1 6.7, 17.6 13.9 C 30.3 20.0, 18.5 92.0, 3.8 94.4 C 6.4 100.0, 56.7 95.8, 59.9 96.2 C 52.1 100.0, 47.5 8.9, 44.0 18.6 C 27.8 12.2, 20.7 71.7, 26.8 81.6 C 15.1 86.7, 45.1 59.0, 33.8 55.6 Z" fill="hsl(242, 72%, 49%)" fill-opacity="0.90" stroke="none" stroke-width="2.20"   />
<path d="M 64.6 19.5 C 56.6 6.2, 100.0 65.8, 98.7 69.8 C 100.0 82.1, 33.3 93.5, 18.6 85.4 C 13.1 100.0, 60.4 83.4, 66.6 96.7 C 63.6 92.2, 95.2 80.1, 90.5 65.6 C 79.4 71.2, 56.0 49.3, 59.7 61.3 C 68.6 44.0, 0.0 14.2, 2.0 27.5 C 6.4 37.1, 15.0 27.9, 2.8 14.4 C 15.7 2.3, 68.7 95.2, 54.2 86.0 C 50.8 81.0, 67.2 78.0, 80.8 88.5 C 61.1 100.0, 0.0 12.2, 2.7 19.9 Z" fill="none" fill-opacity="0.46" stroke="hsl(2, 82%, 55%)" stroke-width="4.75"  transform="translate(72.2 75.0) rotate(113.1) scale(1.36 1.80)" />
<circle cx="94.3" cy="32.1" r="5.0" fill="url(#g0)" fill-opacity="0.59"  transform="translate(41.4 55.1) rotate(60.0) scale(1.78 0.81)" />
<rect x="27.3" y="22.8" width="36.4" height="19.4" rx="0" fill="hsl(86, 72%, 68%)" fill-opacity="0.76"   transform="translate(81.8 97.1) rotate(303.3) scale(0.66 1.79)" />
<path d="M 9.0 34.9 C 23.7 35.7, 43.5 75.1, 31.2 82.8 C 39.2 74.4, 87.1 56.0, 83.0 50.5 C 68.7 59.9, 28.0 97.1, 34.8 89.5 C 28.5 100.0, 55.2 55.8, 45.3 48.7 C 33.4 41.3, 58.0 75.7, 65.0 64.5 C 84.9 50.6, 46.8 69.5, 34.5 81.4 C 21.1 85.0, 83.1 93.3, 77.3 85.4 Z" fill="none" fill-opacity="0.32" stroke="hsl(183, 71%, 60%)" stroke-width="3.95"  transform="translate(27.1 53.2) rotate(55.6) scale(1.78 1.26)" />
<path d="M 82.8 50.1 C 65.3 52.5, 60.7 17.0, 51.7 24.6 C 38.7 15.6, 16.1 84.9, 11.8 90.4 C 15.1 88.9, 53.6 35.0, 40.7 40.5 C 42.0 39.9, 38.1 40.9, 31.9 43.2 C 32.0 26.2, 60.2 56.4, 48.0 61.6 C 49.7 67.3, 35.1 75.9, 25.7 71.6 Z" fill="hsl(104, 72%, 65%)" fill-opacity="0.54" stroke="none" stroke-width="0.83"  transform="translate(40.2 92.2) rotate(133.1) scale(0.59 0.64)" />
<path d="M 93.0 67.1 C 79.0 56.7, 52.4 28.0, 51.8 13.6 C 33.9 27.8, 24.7 37.3, 39.4 38.6 C 30.5 51.6, 86.8 85.5, 98.0 98.7 C 92.4 88.4, 17.2 22.0, 22.9 17.2 C 37.5 15.3, 56.3 10.1, 69.5 3.4 C 51.3 0.0, 63.6 79.0, 62.1 77.2 C 43.8 78.3, 46.6 100.0, 58.6 98.9 " fill="none" fill-opacity="0.84" stroke="hsl(40, 53%, 69%)" stroke-width="1.20"   />
<circle cx="78.1" cy="68.3" r="12.6" fill="hsl(151, 70%, 62%)" fill-opacity="0.56" filter="url(#f1)" transform="translate(24.7 8.1) rotate(10.1) scale(1.46 1.62)" />
<circle cx="25.1" cy="48.7" r="2.4" fill="url(#g0)" fill-opacity="0.76"  transform="translate(69.0 28.4) rotate(138.1) scale(1.48 1.48)" />
<rect x="41.5" y="66.0" width="32.2" height="32.6" rx="0" fill="none" fill-opacity="0.82"   transform="translate(30.1 34.3) rotate(237.4) scale(0.91 0.69)" />
<path d="M 61.0 68.4 C 43.1 58.4, 29.1 59.4, 21.1 60.1 C 16.0 60.9, 28.5 13.1, 21.5 18.9 C 15.5 16.4, 15.9 69.1, 5.5 64.6 C 11.1 55.0, 76.5 32.4, 73.5 44.7 C 70.5 30.7, 25.0 63.4, 25.3 61.5 C 43.0 71.6, 18.7 74.9, 33.4 88.2 C 45.8 76.6, 34.0 78.1, 47.4 89.8 C 28.0 100.0, 56.4 100.0, 41.7 93.2 C 42.7 85.9, 87.6 90.3, 97.4 98.9 C 92.5 100.0, 16.7 31.6, 9.8 42.0 " fill="hsl(322, 74%, 44%)" fill-opacity="0.74" stroke="none" stroke-width="1.08"  transform="translate(20.2 44.1) rotate(248.5) scale(1.14 0.97)" />
<path d="M 36.8 80.5 C 20.9 95.6, 19.2 92.4, 31.0 94.7 C 23.8 96.7, 36.6 18.7, 22.7 19.3 C 28.6 14.7, 34.7 22.1, 40.4 9.2 C 36.4 5.5, 92.4 78.5, 84.1 72.2 C 68.8 64.6, 16.7 89.7, 19.0 86.4 C 31.9 73.5, 40.6 2.5, 30.1 14.0 Z" fill="none" fill-opacity="0.61" stroke="hsl(104, 72%, 65%)" stroke-width="4.52"  transform="translate(45.1 52.1) rotate(227.4) scale(1.83 0.86)" />
<path d="M 94.4 9.6 C 100.0 0.0, 50.7 18.0, 41.3 11.4 C 41.4 13.0, 0.0 23.8, 0.6 12.2 C 5.0 6.6, 89.7 13.4, 80.2 3.6 C 65.4 11.6, 99.7 98.8, 95.8 85.1 C 93.7 100.0, 86.0 26.4, 94.1 21.2 C 100.0 39.6, 28.9 72.6, 33.9 83.2 C 28.0 93.3, 36.0 81.7, 33.1 75.9 C 29.0 85.3, 53.6 92.3, 56.5 80.7 Z" fill="hsl(83, 65%, 44%)" fill-opacity="0.52" stroke="none" stroke-width="4.31"  transform="translate(18.0 94.9) rotate(122.1) scale(1.15 1.88)" />
<path d="M 43.5 92.6 C 24.0 95.7, 0.0 46.2, 10.3 39.6 C 24.5 30.7, 25.3 18.0, 15.6 8.6 C 18.4 0.8, 36.5 28.3, 44.5 24.3 C 26.0 38.3, 100.0 9.9, 97.4 12.9 C 99.3 18.4, 95.3 55.6, 98.8 57.4 C 85.7 48.0, 38.3 28.3, 34.1 36.1 C 34.0 29.8, 75.6 8.0, 77.7 3.2 Z" fill="none" fill-opacity="0.49" stroke="hsl(322, 74%, 44%)" stroke-width="3.99"  transform="translate(11.0 27.8) rotate(31.4) scale(1.10 1.43)" />
<path d="M 3.6 2.4 C 8.8 0.0, 12.1 69.7, 21.7 59.8 C 29.6 54.0, 50.6 0.0, 49.9 3.6 C 30.7 13.6, 40.3 68.7, 30.4 63.1 C 48.4 65.1, 99.0 61.5, 98.6 74.0 C 100.0 69.1, 50.4 67.1, 44.6 62.2 C 51.4 77.7, 54.8 73.1, 48.9 58.1 Z" fill="hsl(40, 53%, 69%)" fill-opacity="0.47" stroke="none" stroke-width="4.20"  transform="translate(1.6 87.8) rotate(231.8) scale(0.79 0.61)" />
<path d="M 92.3 20.4 C 100.0 7.9, 47.9 31.3, 58.1 24.1 C 51.5 28.8, 58.2 0.0, 62.3 1.9 C 48.2 0.0, 37.7 100.0, 39.1 94.6 C 53.9 87.1, 3.5 40.4, 14.2 30.1 C 4.7 37.3, 66.2 80.9, 67.9 82.1 C 69.5 89.6, 18.2 0.0, 18.4 6.2 C 0.5 2.0, 70.1 26.0, 66.2 17.1 Z" fill="hsl(144, 86%, 72%)" fill-opacity="0.47" stroke="none" stroke-width="4.21"  transform="translate(89.3 63.6) rotate(239.4) scale(1.63 1.04)" />
<path d="M 82.1 98.4 C 90.1 100.0, 0.0 78.3, 0.0 76.4 C 0.0 72.4, 57.8 53.4, 57.6 43.7 C 43.9 26.0, 57.2 49.7, 60.0 59.0 C 48.9 45.9, 53.3 11.3, 48.8 4.6 C 48.1 23.1, 44.2 100.0, 51.6 95.6 C 58.6 84.3, 62.3 70.2, 70.7 57.3 C 84.1 67.0, 100.0 33.6, 88.2 31.6 C 72.8 23.1, 26.2 56.6, 34.2 52.5 C 39.9 48.1, 62.5 20.6, 70.3 25.9 Z" fill="hsl(86, 72%, 68%)" fill-opacity="0.91" stroke="none" stroke-width="2.75"  transform="translate(78.9 59.9) rotate(286.2) scale(1.45 1.48)" />
<path d="M 39.0 51.7 C 25.4 69.0, 84.7 59.8, 95.6 72.9 C 100.0 58.3, 55.9 34.1, 56.0 46.8 C 68.9 35.8, 13.3 83.0, 26.7 96.0 C 28.6 79.3, 46.7 83.5, 43.1 70.1 C 29.2 73.7, 1.2 17.6, 0.7 13.0 C 0.0 11.4, 100.0 59.7, 88.7 70.3 C 96.6 59.0, 78.2 56.4, 66.3 48.5 Z" fill="hsl(151, 70%, 62%)" fill-opacity="0.99" stroke="none" stroke-width="1.88"  transform="translate(88.0 88.1) rotate(60.8) scale(1.86 1.12)" />
<path d="M 97.2 24.3 C 90.3 23.5, 80.1 35.7, 81.7 44.7 C 82.6 24.8, 82.5 68.1, 76.3 82.3 C 70.9 95.1, 93.1 71.1, 78.3 79.7 C 65.6 75.0, 54.8 65.1, 67.2 69.2 C 54.9 84.1, 18.2 42.3, 10.3 42.8 C 0.0 40.5, 33.9 76.6, 19.9 81.6 C 20.8 96.1, 68.8 58.2, 79.2 55.7 C 82.9 68.9, 14.2 12.2, 2.0 17.7 C 0.0 13.1, 0.0 30.4, 0.5 34.0 Z" fill="none" fill-opacity="0.57" stroke="hsl(322, 74%, 44%)" stroke-width="3.97"  transform="translate(10.4 61.1) rotate(8.4) scale(1.78 0.97)" />
<path d="M 69.2 90.4 C 86.6 100.0, 66.6 91.4, 64.0 82.8 C 60.4 100.0, 30.3 24.2, 32.7 12.9 C 24.3 0.0, 77.8 40.5, 76.6 29.6 C 84.8 43.0, 20.0 56.4, 8.2 50.6 C 28.1 68.6, 9.8 50.8, 21.4 63.4 C 19.7 68.1, 51.9 63.0, 42.9 51.6 C 30.8 51.8, 39.4 36.1, 27.9 32.2 Z" fill="none" fill-opacity="0.44" stroke="hsl(290, 83%, 63%)" stroke-width="3.67"  transform="translate(11.0 83.9) rotate(40.1) scale(0.55 0.70)" />
<path d="M 37.7 6.1 C 47.2 0.0, 35.9 17.2, 26.1 12.7 C 43.0 28.0, 50.6 4.1, 57.1 8.9 C 49.4 0.0, 78.2 23.1, 68.3 15.3 C 67.9 19.0, 18.0 15.0, 13.0 17.0 C 22.9 18.7, 74.4 40.3, 89.3 55.1 C 73.0 52.0, 50.3 85.3, 47.4 72.5 Z" fill="hsl(106, 75%, 59%)" fill-opacity="0.58" stroke="none" stroke-width="2.32" filter="url(#f1)" transform="translate(91.0 99.5) rotate(84.0) scale(0.96 0.90)" />
<path d="M 49.9 62.2 C 46.2 48.7, 46.8 37.3, 39.9 43.8 C 39.5 39.7, 38.5 12.2, 42.3 5.3 C 29.0 0.0, 14.3 98.7, 14.1 97.6 C 14.0 95.3, 37.9 20.6, 32.8 27.5 C 21.2 28.0, 30.9 40.6, 39.0 49.9 C 55.7 69.8, 7.0 38.3, 2.8 42.4 C 0.0 23.6, 51.4 74.6, 48.5 72.8 C 65.5 57.8, 67.3 35.1, 59.5 28.3 Z" fill="hsl(144, 86%, 72%)" fill-opacity="0.26" stroke="none" stroke-width="3.46"  transform="translate(48.5 88.8) rotate(150.0) scale(1.63 1.31)" />
<path d="M 72.3 8.2 C 63.9 0.0, 0.0 87.0, 4.6 78.2 C 21.0 91.2, 46.4 11.7, 50.3 26.2 C 41.7 32.6, 88.3 87.7, 87.3 85.6 C 72.0 67.2, 0.0 63.8, 1.5 72.2 C 0.0 88.0, 19.6 91.3, 29.9 90.9 C 13.4 75.8, 18.8 2.4, 32.3 5.8 C 35.8 0.0, 73.5 95.3, 68.7 94.2 C 82.7 100.0, 89.0 34.3, 92.8 19.3 Z" fill="none" fill-opacity="0.35" stroke="hsl(83, 65%, 44%)" stroke-width="4.97"  transform="translate(90.0 96.3) rotate(126.3) scale(0.71 0.75)" />
<rect x="54.0" y="45.9" width="38.1" height="18.8" rx="3.2" fill="none" fill-opacity="0.30"  filter="url(#f1)" transform="translate(90.4 70.8) rotate(32.5) scale(0.66 0.95)" />
<path d="M 32.4 40.9 C 44.5 53.4, 61.5 76.5, 63.1 89.7 C 47.7 98.1, 100.0 95.4, 98.9 96.9 C 100.0 95.5, 64.0 46.3, 57.2 57.7 C 50.4 60.7, 97.4 37.8, 86.3 39.4 C 100.0 55.5, 34.2 86.5, 26.3 99.1 C 29.0 100.0, 27.6 16.2, 29.6 10.5 C 15.3 17.7, 25.6 98.1, 27.1 89.1 C 11.4 95.8, 100.0 69.9, 99.6 66.7 C 100.0 55.6, 30.7 29.0, 23.9 36.6 C 16.4 37.9, 45.6 0.0, 48.4 6.4 Z" fill="hsl(2, 82%, 55%)" fill-opacity="0.99" stroke="none" stroke-width="4.89"  transform="translate(42.3 45.8) rotate(85.7) scale(0.77 0.73)" />
<rect x="19.5" y="70.7" width="38.6" height="20.5" rx="0" fill="hsl(322, 74%, 44%)" fill-opacity="0.82"   transform="translate(46.1 94.4) rotate(134.2) scale(0.51 1.87)" />
<path d="M 75.1 86.7 C 87.0 93.7, 20.8 97.4, 8.4 96.4 C 14.7 83.2, 44.6 58.9, 30.1 71.8 C 49.1 87.8, 94.0 31.9, 91.3 37.6 C 83.1 26.7, 100.0 30.1, 95.1 16.3 C 100.0 21.9, 53.3 30.7, 60.5 44.6 C 42.7 59.4, 73.5 34.5, 68.1 38.5 Z" fill="hsl(83, 65%, 44%)" fill-opacity="0.59" stroke="none" stroke-width="4.60"  transform="translate(64.5 31.6) rotate(149.3) scale(1.38 1.53)" />
<path d="M 82.6 49.2 C 88.7 30.4, 96.5 75.8, 86.8 80.3 C 72.6 78.4, 100.0 44.2, 97.9 50.9 C 78.9 35.3, 59.3 37.8, 44.6 31.8 C 49.0 26.9, 72.6 93.0, 71.0 86.4 C 87.6 71.7, 100.0 73.6, 93.6 76.5 C 100.0 61.5, 3.6 35.6, 11.5 34.9 C 2.1 45.2, 23.7 74.8, 28.7 67.7 C 11.0 81.2, 26.4 24.9, 22.8 31.8 C 15.9 17.1, 0.0 89.7, 3.8 98.8 C 2.1 100.0, 12.9 60.4, 10.9 65.8 Z" fill="none" fill-opacity="0.73" stroke="hsl(242, 72%, 49%)" stroke-width="3.27"  transform="translate(80.2 6.0) rotate(20.4) scale(1.08 0.74)" />
<rect x="44.5" y="31.6" width="31.6" height="13.8" rx="15.3" fill="hsl(290, 83%, 63%)" fill-opacity="0.32"   transform="translate(66.2 41.6) rotate(214.8) scale(1.99 1.18)" />
<path d="M 53.7 19.4 C 37.2 16.0, 45.1 45.4, 58.7 35.4 C 76.5 40.5, 22.6 77.3, 26.1 72.9 C 8.3 80.2, 66.9 80.7, 63.6 70.6 C 53.4 79.2, 13.8 0.0, 24.3 6.2 C 19.6 14.1, 60.1 79.4, 59.0 88.1 C 60.3 97.9, 60.5 20.4, 68.6 31.9 C 73.9 17.2, 83.6 11.9, 80.7 18.2 " fill="none" fill-opacity="0.94" stroke="hsl(83, 65%, 44%)" stroke-width="2.46"  transform="translate(8.7 28.8) rotate(51.2) scale(1.29 0.74)" />
<path d="M 72.0 9.4 C 69.4 23.7, 70.7 24.4, 85.7 34.5 C 93.6 42.1, 72.7 74.9, 61.8 60.7 C 64.2 41.0, 44.2 64.6, 32.1 64.2 C 22.9 48.9, 67.7 100.0, 82.3 97.7 C 69.3 100.0, 72.5 4.1, 85.5 7.5 C 98.9 14.1, 1.4 27.8, 1.9 14.3 " fill="hsl(322, 74%, 44%)" fill-opacity="0.82" stroke="none" stroke-width="3.02"  transform="translate(0.6 94.3) rotate(36.3) scale(1.60 0.60)" />
<rect x="1.2" y="63.4" width="37.2" height="10.4" rx="8.2" fill="hsl(2, 82%, 55%)" fill-opacity="0.44"   transform="translate(62.6 64.6) rotate(84.8) scale(1.44 1.17)" />
<rect x="31.2" y="54.4" width="42.7" height="18.7" rx="0" fill="hsl(2, 82%, 55%)" fill-opacity="0.57"  filter="url(#f1)" transform="translate(46.5 70.0) rotate(292.5) scale(1.50 1.54)" />
<path d="M 6.0 68.3 C 4.4 74.7, 87.9 24.0, 77.4 26.5 C 75.1 23.3, 40.3 53.2, 37.3 49.7 C 42.3 67.0, 50.3 19.6, 43.8 17.7 C 51.4 0.3, 75.7 90.3, 78.8 92.7 C 75.1 88.7, 64.5 60.3, 71.0 52.5 C 70.2 50.1, 0.0 74.6, 2.9 85.7 C 20.5 100.0, 24.3 79.9, 16.6 92.9 Z" fill="hsl(322, 74%, 44%)" fill-opacity="0.89" stroke="none" stroke-width="4.44"   />
<circle cx="24.8" cy="22.6" r="3.5" fill="url(#g2)" fill-opacity="0.98"  transform="translate(62.3 35.5) rotate(108.3) scale(1.51 1.54)" />
<path d="M 53.2 81.3 C 68.8 90.6, 29.7 93.7, 33.6 95.1 C 40.0 98.1, 62.9 20.9, 61.3 32.7 C 53.3 43.1, 48.0 27.4, 60.3 27.7 C 48.3 31.1, 79.9 71.5, 92.7 62.3 C 100.0 53.0, 20.0 14.4, 8.4 22.3 C 16.2 30.5, 84.1 5.3, 82.7 13.9 Z" fill="none" fill-opacity="0.82" stroke="hsl(106, 75%, 59%)" stroke-width="1.28"  transform="translate(28.8 98.6) rotate(286.1) scale(1.42 1.21)" />
<path d="M 68.7 67.1 C 70.0 54.4, 50.2 43.2, 51.9 39.0 C 66.4 20.5, 22.1 74.1, 31.6 69.4 C 20.7 82.8, 100.0 15.2, 94.2 18.7 C 99.0 26.8, 40.4 65.6, 37.4 69.6 C 48.1 69.1, 87.1 100.0, 77.5 92.4 C 58.7 100.0, 20.5 35.4, 17.8 45.7 C 21.6 60.0, 0.0 85.4, 6.2 84.8 C 8.9 86.0, 18.5 52.4, 27.7 56.0 C 43.0 37.4, 6.2 55.3, 0.2 53.3 Z" fill="none" fill-opacity="0.74" stroke="hsl(83, 65%, 44%)" stroke-width="2.61"  transform="translate(39.9 53.5) rotate(60.5) scale(1.75 1.04)" />
<path d="M 68.0 29.8 C 64.3 28.0, 0.0 26.4, 4.5 41.2 C 18.8 31.7, 38.4 41.6, 43.3 33.1 C 60.5 17.8, 52.9 94.9, 53.3 98.0 C 44.5 100.0, 87.1 0.0, 85.4 5.7 C 68.7 15.0, 91.8 13.9, 98.0 5.2 C 91.6 0.0, 73.0 25.7, 72.3 20.8 C 70.8 13.5, 55.3 100.0, 62.8 93.8 C 65.9 89.9, 56.1 57.8, 43.8 51.1 C 38.0 51.9, 30.1 86.0, 27.9 74.1 C 18.8 82.9, 1.1 45.0, 7.4 32.9 " fill="hsl(242, 72%, 49%)" fill-opacity="0.41" stroke="none" stroke-width="1.60"  transform="translate(41.4 58.7) rotate(319.4) scale(0.92 0.81)" />
<path d="M 13.3 16.7 C 25.3 34.6, 0.0 85.1, 14.0 82.8 C 9.4 96.5, 89.9 41.9, 88.7 45.9 C 77.2 35.0, 1.9 37.8, 11.8 22.9 C 21.4 21.1, 88.5 52.2, 73.7 62.3 C 69.2 43.8, 73.2 25.7, 85.3 17.8 C 84.6 26.5, 20.1 23.0, 22.2 9.0 C 14.9 0.0, 92.3 13.6, 92.0 12.8 C 92.5 29.5, 48.4 100.0, 37.4 98.1 C 46.6 95.7, 22.8 28.8, 8.7 39.0 Z" fill="hsl(144, 86%, 72%)" fill-opacity="0.93" stroke="none" stroke-width="2.76"  transform="translate(61.3 39.2) rotate(73.3) scale(0.95 1.27)" />
<path d="M 33.6 48.4 C 32.5 45.6, 56.7 79.5, 54.7 92.0 C 59.8 100.0, 27.5 75.3, 19.7 84.8 C 14.9 69.7, 10.1 72.7, 21.6 78.9 C 35.0 65.6, 96.4 55.3, 85.4 43.3 C 77.1 52.8, 54.0 80.9, 53.6 91.1 C 50.8 100.0, 51.7 0.0, 43.9 5.3 C 24.1 5.3, 44.9 22.0, 59.9 15.1 Z" fill="none" fill-opacity="0.62" stroke="hsl(86, 72%, 68%)" stroke-width="3.40" filter="url(#f1)" transform="translate(7.2 57.8) rotate(174.8) scale(1.75 0.54)" />
<path d="M 80.4 90.8 C 76.2 91.2, 59.6 0.0, 51.8 4.2 C 32.1 3.6, 97.2 39.3, 89.9 36.2 C 86.7 19.6, 95.9 2.2, 89.6 4.7 C 98.9 23.3, 74.5 39.3, 69.2 44.1 C 63.1 45.4, 20.8 97.3, 34.3 86.0 C 44.8 71.5, 74.1 27.1, 65.9 23.1 Z" fill="none" fill-opacity="0.72" stroke="hsl(104, 72%, 65%)" stroke-width="1.58" filter="url(#f1)" transform="translate(5.9 33.0) rotate(262.3) scale(1.57 1.19)" />
<rect x="16.2" y="50.6" width="45.4" height="26.1" rx="0" fill="none" fill-opacity="0.84"    />
<rect x="0.8" y="58.2" width="26.5" height="21.9" rx="0" fill="hsl(242, 72%, 49%)" fill-opacity="0.40" stroke="hsl(183, 71%, 60%)" stroke-width="3.1"  transform="translate(7.4 13.0) rotate(14.9) scale(1.25 2.00)" />
<rect x="54.2" y="24.2" width="34.3" height="36.2" rx="13.6" fill="hsl(183, 71%, 60%)" fill-opacity="0.34"  filter="url(#f1)" transform="translate(58.2 87.3) rotate(337.3) scale(0.51 1.82)" />
<path d="M 12.4 95.2 C 8.1 89.9, 96.9 27.3, 89.9 20.4 C 86.0 21.4, 42.6 83.4, 55.4 81.9 C 53.4 78.4, 84.3 35.2, 73.2 44.8 C 90.4 44.5, 92.6 57.4, 79.7 71.5 C 91.0 54.7, 40.6 85.4, 46.6 79.4 C 56.5 69.6, 56.0 27.0, 41.2 39.0 C 27.2 44.2, 88.9 33.1, 89.3 22.9 Z" fill="hsl(151, 70%, 62%)" fill-opacity="0.33" stroke="none" stroke-width="3.44"  transform="translate(51.4 60.0) rotate(274.2) scale(0.79 0.59)" />
<circle cx="68.8" cy="9.9" r="8.7" fill="hsl(83, 65%, 44%)" fill-opacity="0.52"  transform="translate(74.1 5.6) rotate(69.4) scale(0.66 0.91)" />
<path d="M 97.9 30.8 C 90.3 45.2, 100.0 52.1, 97.2 39.2 C 98.5 54.8, 33.9 51.7, 20.1 44.5 C 36.9 38.8, 9.1 38.0, 19.1 45.7 C 3.8 47.4, 28.8 40.3, 28.1 41.7 C 32.8 39.6, 83.2 59.4, 86.0 45.8 C 70.7 44.0, 51.8 1.7, 54.7 14.3 C 64.5 22.5, 15.3 53.3, 2.1 47.1 C 13.5 57.9, 86.6 18.5, 98.7 8.4 C 100.0 13.7, 1.9 43.4, 2.2 35.3 Z" fill="hsl(104, 72%, 65%)" fill-opacity="0.88" stroke="none" stroke-width="2.30"  transform="translate(42.8 59.8) rotate(115.6) scale(0.72 1.13)" />
<path d="M 1.0 87.9 C 0.0 70.5, 94.4 98.5, 95.5 87.0 C 90.1 89.8, 91.0 35.2, 87.1 33.6 C 100.0 39.1, 19.3 22.7, 20.9 25.2 C 39.2 8.1, 44.2 14.6, 47.9 27.5 C 55.6 14.8, 76.3 42.2, 73.6 54.3 C 57.7 72.5, 95.1 43.6, 88.5 42.2 Z" fill="none" fill-opacity="0.64" stroke="hsl(322, 74%, 44%)" stroke-width="3.07"  transform="translate(48.3 83.3) rotate(242.7) scale(1.09 1.75)" />
<path d="M 48.0 99.3 C 32.9 81.5, 26.8 15.8, 13.8 16.0 C 0.3 16.1, 23.3 46.9, 13.4 56.7 C 31.0 46.0, 52.9 3.0, 57.5 10.4 C 55.4 1.2, 80.1 34.4, 82.3 36.1 C 64.9 26.7, 64.1 36.7, 66.5 39.5 C 49.5 24.6, 0.0 99.6, 6.6 89.1 C 0.0 71.4, 79.1 31.5, 65.1 23.7 C 49.2 5.3, 94.1 73.2, 89.3 61.7 " fill="hsl(242, 72%, 49%)" fill-opacity="0.75" stroke="none" stroke-width="1.70"  transform="translate(4.7 94.3) rotate(161.6) scale(1.89 1.18)" />
<path d="M 28.3 58.1 C 27.9 51.6, 15.5 96.3, 17.6 89.7 C 5.9 96.3, 14.5 53.4, 21.1 63.3 C 30.6 69.6, 72.5 84.7, 74.2 73.8 C 88.8 66.8, 40.8 86.8, 31.2 83.1 C 22.4 73.1, 74.1 43.1, 65.0 33.4 C 50.6 49.9, 8.5 87.7, 12.7 79.9 C 18.4 70.4, 93.5 60.2, 86.7 58.7 Z" fill="none" fill-opacity="0.85" stroke="hsl(83, 65%, 44%)" stroke-width="4.18"  transform="translate(10.2 97.4) rotate(109.6) scale(1.54 1.41)" />
<path d="M 31.9 87.5 C 15.0 100.0, 87.9 14.3, 82.5 15.2 C 71.7 3.0, 34.8 37.0, 22.4 41.6 C 30.9 26.9, 81.9 17.6, 80.7 10.3 C 81.0 0.0, 76.4 100.0, 89.8 91.2 C 100.0 100.0, 38.2 39.8, 38.5 53.9 C 42.8 42.9, 7.2 60.4, 17.5 50.6 C 23.3 37.5, 35.1 64.9, 22.0 61.1 C 37.6 75.8, 75.2 49.8, 71.4 51.6 Z" fill="none" fill-opacity="0.87" stroke="hsl(151, 70%, 62%)" stroke-width="4.93"  transform="translate(38.4 78.8) rotate(24.3) scale(0.89 1.04)" />
<path d="M 98.0 74.1 C 100.0 72.2, 11.8 61.5, 21.1 71.8 C 11.4 80.7, 50.6 100.0, 57.0 92.5 C 40.0 89.6, 85.9 14.6, 86.4 21.6 C 78.9 5.7, 43.9 50.6, 47.2 44.0 C 45.8 45.5, 67.0 46.0, 77.9 43.3 C 76.8 29.7, 28.0 85.8, 15.3 92.4 C 12.0 91.2, 26.5 33.9, 12.7 22.1 C 0.0 7.7, 79.0 15.4, 83.9 7.6 C 75.2 16.7, 96.5 12.3, 89.5 18.6 Z" fill="none" fill-opacity="0.27" stroke="hsl(106, 75%, 59%)" stroke-width="4.35"   />
<rect x="26.0" y="55.3" width="41.0" height="30.3" rx="0" fill="hsl(183, 71%, 60%)" fill-opacity="0.55"   transform="translate(37.3 46.2) rotate(178.8) scale(1.31 1.51)" />
<path d="M 49.4 49.0 C 60.2 66.1, 15.1 37.7, 3.5 28.9 C 8.4 26.2, 75.9 49.2, 77.7 55.9 C 84.4 67.5, 42.3 14.9, 39.0 12.8 C 54.1 31.0, 7.9 2.7, 11.1 4.5 C 16.0 0.0, 42.2 43.5, 31.3 48.4 C 41.3 35.6, 31.9 60.1, 35.8 69.2 C 34.5 58.9, 14.7 0.0, 3.8 4.5 C 0.0 15.7, 28.6 27.8, 24.9 36.3 C 32.1 33.1, 5.2 31.4, 12.2 43.1 C 6.5 24.5, 14.9 81.0, 0.1 74.2 Z" fill="none" fill-opacity="0.53" stroke="hsl(106, 75%, 59%)" stroke-width="4.46" filter="url(#f1)" transform="translate(83.7 47.7) rotate(141.6) scale(1.91 0.85)" />
<path d="M 68.0 34.1 C 82.9 18.6, 62.7 0.0, 63.6 11.8 C 58.2 0.0, 20.7 54.5, 8.2 63.8 C 6.1 68.9, 81.3 0.0, 72.7 5.6 C 82.7 9.1, 26.9 62.4, 17.3 55.3 C 25.3 52.2, 45.0 51.1, 45.1 42.4 C 60.7 38.1, 62.4 86.7, 49.7 77.3 C 43.3 66.0, 90.0 19.0, 83.9 27.9 C 72.5 30.1, 85.4 33.3, 85.9 25.6 Z" fill="hsl(83, 65%, 44%)" fill-opacity="0.67" stroke="none" stroke-width="4.19"  transform="translate(23.6 28.6) rotate(201.1) scale(0.63 1.39)" />
<rect x="70.3" y="79.1" width="23.7" height="10.3" rx="0" fill="none" fill-opacity="0.32"   transform="translate(49.0 95.2) rotate(75.5) scale(1.80 1.29)" />
<rect x="4.9" y="45.5" width="28.1" height="19.9" rx="12.5" fill="hsl(144, 86%, 72%)" fill-opacity="0.98"   transform="translate(15.1 43.7) rotate(263.1) scale(0.70 1.01)" />
<circle cx="30.1" cy="65.1" r="2.0" fill="url(#g2)" fill-opacity="0.40"   />
<path d="M 83.2 78.4 C 86.1 72.0, 54.4 57.4, 43.3 56.3 C 45.8 75.5, 61.4 9.4, 75.9 6.1 C 94.6 14.7, 46.9 79.1, 37.0 92.0 C 27.6 89.9, 45.1 68.3, 42.3 57.5 C 42.5 76.0, 72.9 73.6, 74.1 63.4 C 65.9 78.6, 15.4 13.4, 1.4 28.2 C 19.6 45.7, 96.6 63.6, 99.7 70.2 C 89.9 56.6, 40.8 88.6, 43.5 75.0 C 60.6 73.9, 6.7 52.5, 9.0 60.2 Z" fill="none" fill-opacity="0.84" stroke="hsl(322, 74%, 44%)" stroke-width="1.44"  transform="translate(24.5 16.0) rotate(242.0) scale(0.97 0.70)" />
<path d="M 75.9 81.2 C 58.5 74.6, 56.5 25.5, 52.3 17.0 C 55.5 19.8, 11.8 47.6, 1.2 61.7 C 4.4 72.0, 40.4 22.0, 36.8 26.3 C 43.4 26.7, 12.3 76.1, 12.0 70.9 C 22.0 58.9, 58.0 39.6, 56.2 50.6 C 60.5 31.1, 30.0 38.3, 24.1 48.4 C 28.8 50.8, 76.9 30.2, 81.8 36.8 C 89.6 22.4, 82.5 71.5, 68.0 62.3 C 78.4 72.8, 81.1 71.6, 85.3 67.2 C 69.8 70.7, 57.4 38.1, 48.6 41.4 Z" fill="hsl(242, 72%, 49%)" fill-opacity="0.35" stroke="none" stroke-width="3.08"  transform="translate(66.1 50.1) rotate(157.5) scale(1.37 1.31)" />
<path d="M 95.5 0.7 C 84.7 3.5, 100.0 62.9, 97.2 59.9 C 91.7 79.7, 59.4 21.5, 52.9 14.2 C 68.0 4.8, 92.9 8.0, 80.2 5.5 C 83.7 0.0, 45.8 65.1, 31.1 52.8 C 41.5 49.2, 78.6 82.6, 80.9 77.1 C 78.0 75.0, 64.1 25.4, 68.3 19.3 C 71.2 13.9, 91.1 84.3, 94.0 79.6 Z" fill="none" fill-opacity="0.37" stroke="hsl(242, 72%, 49%)" stroke-width="2.12"  transform="translate(19.4 58.4) rotate(33.6) scale(1.98 1.46)" />
<rect x="60.5" y="3.1" width="36.3" height="18.8" rx="14.7" fill="none" fill-opacity="0.64"   transform="translate(63.6 69.1) rotate(281.9) scale(1.28 1.79)" />
<path d="M 62.1 80.1 C 59.4 92.8, 46.0 4.7, 44.6 17.8 C 55.6 25.5, 89.2 63.2, 92.9 55.3 C 97.8 38.8, 36.5 80.2, 39.2 94.8 C 42.9 100.0, 88.6 75.8, 75.4 74.8 C 67.2 62.8, 52.7 25.6, 61.2 32.8 C 64.5 14.8, 10.5 61.8, 18.3 50.2 C 2.7 63.5, 100.0 70.3, 97.8 58.6 " fill="hsl(183, 71%, 60%)" fill-opacity="0.83" stroke="none" stroke-width="4.83"  transform="translate(0.7 39.4) rotate(200.7) scale(0.90 1.11)" />
<path d="M 63.9 79.5 C 52.5 72.4, 21.7 45.1, 32.5 57.3 C 49.0 60.7, 55.8 91.8, 59.4 93.2 C 54.5 100.0, 0.0 100.0, 2.6 96.6 C 0.0 84.6, 24.3 27.3, 23.3 18.5 C 23.6 36.6, 75.2 76.2, 62.1 75.0 C 80.3 71.1, 0.0 100.0, 3.2 98.0 C 3.5 100.0, 0.0 100.0, 1.4 98.1 C 0.0 92.5, 94.3 100.0, 83.8 88.2 Z" fill="hsl(2, 82%, 55%)" fill-opacity="0.56" stroke="none" stroke-width="2.64"  transform="translate(71.5 12.0) rotate(335.1) scale(1.76 0.94)" />
<path d="M 35.1 63.9 C 19.7 62.3, 51.2 23.2, 51.1 32.9 C 70.9 31.0, 17.7 92.0, 24.4 80.0 C 31.9 71.9, 39.5 60.2, 43.7 71.7 C 60.7 90.2, 13.9 61.3, 15.8 73.5 C 25.4 83.7, 0.4 29.6, 8.5 30.5 C 23.1 21.9, 17.4 89.8, 15.4 98.1 C 10.8 100.0, 36.8 19.8, 45.6 17.5 C 28.8 5.7, 44.8 19.6, 47.9 8.1 Z" fill="hsl(242, 72%, 49%)" fill-opacity="0.41" stroke="none" stroke-width="4.77"  transform="translate(3.3 86.6) rotate(336.1) scale(0.85 0.71)" />
<path d="M 80.8 52.9 C 85.4 40.2, 72.1 49.7, 86.0 43.9 C 74.7 40.1, 96.3 34.4, 97.3 42.8 C 97.1 28.0, 95.3 86.5, 88.9 92.9 C 99.2 93.6, 76.6 82.5, 90.3 85.2 C 98.7 88.0, 88.2 8.0, 88.2 8.2 C 100.0 18.0, 39.5 76.7, 32.7 80.5 C 28.0 84.9, 81.0 0.0, 66.8 2.6 C 50.0 13.7, 66.9 38.8, 54.7 38.3 C 61.3 20.8, 74.3 94.6, 64.5 86.9 Z" fill="none" fill-opacity="0.87" stroke="hsl(290, 83%, 63%)" stroke-width="5.21"  transform="translate(28.4 77.1) rotate(1.8) scale(1.71 1.24)" />
<circle cx="30.7" cy="64.0" r="7.3" fill="hsl(104, 72%, 65%)" fill-opacity="0.60" filter="url(#f1)" transform="translate(17.2 73.3) rotate(329.8) scale(0.81 1.87)" />
<rect x="28.6" y="44.1" width="23.5" height="38.0" rx="0" fill="hsl(151, 70%, 62%)" fill-opacity="0.59"   transform="translate(40.7 8.3) rotate(139.7) scale(1.81 1.63)" />
<rect x="39.5" y="3.5" width="46.2" height="15.1" rx="0" fill="none" fill-opacity="0.38"    />
<rect x="35.1" y="39.5" width="26.5" height="26.0" rx="18.3" fill="none" fill-opacity="0.83"   transform="translate(6.9 53.2) rotate(192.1) scale(1.67 0.99)" />
<rect x="19.5" y="62.5" width="47.0" height="12.3" rx="0" fill="hsl(2, 82%, 55%)" fill-opacity="0.51"   transform="translate(38.3 88.8) rotate(108.7) scale(1.29 1.47)" />
<path d="M 32.0 37.1 C 47.6 51.5, 87.4 0.0, 81.5 4.5 C 93.6 16.2, 38.2 75.1, 40.4 63.0 C 47.4 75.5, 40.7 74.8, 53.5 81.4 C 50.2 84.0, 41.9 0.0, 43.7 5.5 C 53.6 0.0, 87.8 34.3, 87.0 21.0 C 73.7 38.9, 14.0 91.8, 13.8 78.4 C 12.1 67.9, 75.6 42.6, 68.4 27.7 C 82.2 37.2, 78.9 81.8, 78.3 73.2 C 76.1 62.4, 54.7 13.7, 55.0 2.8 Z" fill="hsl(290, 83%, 63%)" fill-opacity="0.42" stroke="none" stroke-width="4.03"  transform="translate(79.7 84.5) rotate(65.2) scale(1.34 1.52)" />
<path d="M 60.1 99.8 C 74.9 91.6, 91.3 0.0, 99.9 1.3 C 96.2 0.0, 52.8 31.6, 42.8 42.8 C 59.6 24.7, 62.0 100.0, 67.3 99.3 C 71.4 100.0, 9.1 84.4, 19.7 83.6 C 3.6 76.4, 0.0 74.0, 6.9 87.2 C 9.7 83.6, 75.6 80.4, 76.9 82.6 C 92.7 78.2, 43.2 65.4, 52.7 76.8 C 55.9 87.6, 27.4 0.0, 33.3 4.4 C 28.6 7.0, 47.9 0.0, 45.1 12.2 Z" fill="hsl(290, 83%, 63%)" fill-opacity="0.55" stroke="none" stroke-width="2.89"  transform="translate(27.1 22.7) rotate(330.6) scale(1.78 1.42)" />
<path d="M 67.3 24.5 C 82.2 5.9, 16.5 25.4, 14.0 21.3 C 0.0 34.1, 21.8 52.4, 27.6 43.6 C 37.8 43.7, 87.1 44.8, 86.7 49.9 C 100.0 59.8, 78.6 17.7, 67.3 12.8 C 56.4 0.5, 60.7 36.7, 67.5 34.6 C 70.1 21.9, 64.4 76.6, 70.9 64.6 C 67.2 64.9, 38.9 0.0, 39.9 5.4 C 54.0 0.0, 90.0 0.0, 92.0 6.7 C 81.8 23.2, 66.8 94.3, 61.9 88.4 C 63.0 72.5, 5.0 11.6, 9.3 22.9 " fill="hsl(151, 70%, 62%)" fill-opacity="0.68" stroke="none" stroke-width="1.74"  transform="translate(81.3 86.9) rotate(208.6) scale(1.78 0.95)" />
<path d="M 97.2 38.2 C 81.0 31.9, 40.7 65.7, 29.5 70.8 C 45.9 71.6, 0.0 14.2, 1.3 7.0 C 0.0 9.6, 0.0 0.0, 10.0 3.2 C 0.0 0.0, 50.9 81.4, 57.4 69.9 C 48.9 67.2, 21.4 13.5, 24.4 3.2 C 41.3 6.0, 18.1 66.7, 14.0 66.5 C 4.5 68.4, 72.8 49.5, 71.9 45.1 C 76.8 42.4, 61.1 57.1, 62.0 61.8 Z" fill="none" fill-opacity="0.29" stroke="hsl(40, 53%, 69%)" stroke-width="1.51"  transform="translate(30.6 69.3) rotate(324.6) scale(1.19 0.80)" />
<path d="M 44.5 36.3 C 29.6 50.6, 20.6 77.3, 29.7 88.0 C 15.1 96.5, 72.7 24.7, 83.2 12.5 C 83.2 0.0, 95.6 21.5, 81.2 18.2 C 67.1 37.2, 64.7 3.0, 54.7 0.9 C 39.4 20.6, 42.4 30.4, 50.9 15.7 C 39.0 10.0, 14.5 63.3, 21.5 67.9 C 31.3 83.6, 28.1 61.0, 36.5 55.0 C 31.2 52.1, 4.8 57.6, 6.2 64.3 Z" fill="hsl(144, 86%, 72%)" fill-opacity="0.95" stroke="none" stroke-width="4.40"  transform="translate(21.7 68.4) rotate(119.8) scale(1.66 0.75)" />
<path d="M 6.4 78.6 C 23.8 72.4, 97.8 34.7, 93.9 44.2 C 100.0 58.9, 62.4 13.1, 56.6 24.9 C 41.1 34.5, 87.3 100.0, 83.5 96.0 C 67.5 80.8, 0.0 32.5, 4.8 45.5 C 7.8 28.7, 0.0 29.0, 2.6 32.0 C 7.8 19.5, 78.1 98.5, 90.7 95.5 C 100.0 98.5, 60.4 65.9, 73.3 72.8 C 91.8 59.0, 65.6 97.0, 72.9 97.2 C 90.7 91.4, 56.0 49.9, 59.5 39.2 C 47.5 49.5, 26.2 76.2, 41.2 80.5 Z" fill="hsl(183, 71%, 60%)" fill-opacity="0.46" stroke="none" stroke-width="1.53"   />
<g opacity="0.078">
<rect x="0" y="0" width="1" height="100" fill="black" />
<rect x="22" y="0" width="1" height="100" fill="black" />
<rect x="44" y="0" width="1" height="100" fill="black" />
<rect x="66" y="0" width="1" height="100" fill="black" />
<rect x="88" y="0" width="1" height="100" fill="black" />
<rect x="0" y="0" width="100" height="1" fill="black" />
<rect x="0" y="22" width="100" height="1" fill="black" />
<rect x="0" y="44" width="100" height="1" fill="black" />
<rect x="0" y="66" width="100" height="1" fill="black" />
<rect x="0" y="88" width="100" height="1" fill="black" />
</g>

</svg>
