<?xml version="1.0" encoding="UTF-8"?>
<svg xmlns="http://www.w3.org/2000/svg" width="100" height="100" viewBox="0 0 100 100">
<defs>
<linearGradient id="g0" x1="0%" y1="0%" x2="100%" y2="100%">
<stop offset="0.0%" stop-color="hsl(106, 75%, 59%)" />
<stop offset="33.3%" stop-color="hsl(183, 71%, 60%)" />
<stop offset="66.7%" stop-color="hsl(242, 72%, 49%)" />
<stop offset="100.0%" stop-color="hsl(322, 74%, 44%)" />
</linearGradient>
<linearGradient id="g1" x1="0%" y1="0%" x2="100%" y2="100%">
<stop offset="0.0%" stop-color="hsl(290, 83%, 63%)" />
<stop offset="33.3%" stop-color="hsl(2, 82%, 55%)" />
<stop offset="66.7%" stop-color="hsl(86, 72%, 68%)" />
<stop offset="100.0%" stop-color="hsl(83, 65%, 44%)" />
</linearGradient>
<linearGradient id="g2" x1="0%" y1="0%" x2="100%" y2="100%">
<stop offset="0.0%" stop-color="hsl(40, 53%, 69%)" />
<stop offset="33.3%" stop-color="hsl(104, 72%, 65%)" />
<stop offset="66.7%" stop-color="hsl(144, 86%, 72%)" />
<stop offset="100.0%" stop-color="hsl(151, 70%, 62%)" />
</linearGradient>
<filter id="f1" x="-20%" y="-20%" width="140%" height="140%">
  <feGaussianBlur stdDeviation="1.6051985869623728" />
</filter>

</defs>

<path d="M 54.0 98.4 C 39.2 100.0, 40.3 15.5, 49.6 20.2 C 29.8 31.2, 21.0 35.3, 7.1 28.9 C 2.3 48.4, 68.9 8.6, 57.6 5.7 C 74.2 13.6, 44.9 31.3, 56.2 30.9 C 43.1 41.4, 13.4 28.5, 14.7 18.5 C 12.2 25.1, 89.2 44.1, 75.8 29.6 C 69.5 44.1, 42.4 18.4, 43.3 29.6 Z" fill="none" fill-opacity="0.25" stroke="hsl(151, 70%, 62%)" stroke-width="4.44"   />
<path d="M 88.5 54.6 C 100.0 67.7, 84.4 27.6, 89.2 41.1 C 70.7 24.2, 34.2 17.0, 32.7 2.7 C 19.9 11.4, 63.8 100.0, 51.3 97.0 C 46.9 85.4, 52.6 45.8, 57.8 32.0 C 42.7 42.5, 15.8 100.0, 28.6 86.2 C 19.5 94.4, 26.4 69.6, 16.2 71.3 C 1.9 70.0, 45.7 17.7, 36.8 29.6 C 38.6 20.5, 0.0 26.2, 2.5 31.3 C 16.1 42.3, 52.2 70.8, 37.5 74.3 Z" fill="hsl(290, 83%, 63%)" fill-opacity="0.63" stroke="none" stroke-width="5.24"   />
<circle cx="3.8" cy="23.5" r="11.2" fill="url(#g2)" fill-opacity="0.90"   />
<path d="M 51.4 40.8 C 50.6 41.6, 69.9 2.1, 72.1 10.4 C 83.6 23.0, 100.0 77.7, 92.2 77.7 C 85.6 68.2, 70.6 19.1, 57.4 22.8 C 50.6 27.9, 38.5 44.5, 23.7 43.7 C 39.0 45.0, 60.9 91.4, 66.9 89.7 C 57.9 76.1, 36.1 25.3, 22.7 15.5 C 24.7 10.9, 66.2 62.5, 77.3 70.0 C 68.2 53.2, 16.4 58.7, 13.2 46.0 C 27.0 51.4, 75.7 37.2, 87.2 48.2 Z" fill="hsl(151, 70%, 62%)" fill-opacity="0.94" stroke="none" stroke-width="3.73"  transform="translate(36.8 7.4) rotate(75.0) scale(1.72 1.12)" />
<circle cx="24.7" cy="53.3" r="3.7" fill="hsl(40, 53%, 69%)" fill-opacity="0.53"  transform="translate(54.3 95.7) rotate(272.3) scale(0.58 0.51)" />
<circle cx="2.5" cy="62.6" r="1.6" fill="hsl(40, 53%, 69%)" fill-opacity="0.74"  transform="translate(95.3 46.8) rotate(93.4) scale(1.04 0.85)" />
<circle cx="75.9" cy="40.8" r="18.3" fill="url(#g0)" fill-opacity="0.81"  transform="translate(55.3 36.6) rotate(29.2) scale(0.90 1.05)" />
<path d="M 37.0 84.2 C 21.5 65.2, 64.5 19.6, 79.2 7.5 C 71.4 10.9, 61.0 59.8, 64.8 69.0 C 76.4 69.3, 54.9 0.0, 41.7 8.4 C 48.9 7.2, 46.8 77.0, 60.7 82.0 C 64.3 84.4, 76.5 18.5, 75.2 3.9 C 85.4 0.0, 41.8 16.8, 46.5 20.2 Z" fill="hsl(83, 65%, 44%)" fill-opacity="0.84" stroke="none" stroke-width="5.27"  transform="translate(90.2 27.6) rotate(149.8) scale(0.61 1.29)" />
<path d="M 51.1 11.0 C 37.2 27.9, 27.8 15.2, 16.6 18.7 C 3.7 27.8, 50.5 60.6, 63.9 56.2 C 62.3 54.4, 100.0 54.9, 87.3 67.1 C 82.2 64.3, 61.5 19.5, 58.5 10.3 C 73.3 16.2, 84.1 63.4, 87.0 58.2 C 100.0 77.0, 56.4 22.2, 50.0 27.5 C 48.7 27.3, 50.0 51.5, 48.9 52.9 " fill="none" fill-opacity="0.46" stroke="hsl(322, 74%, 44%)" stroke-width="2.12"   />
<rect x="3.2" y="51.1" width="31.1" height="34.5" rx="0" fill="hsl(183, 71%, 60%)" fill-opacity="0.22" stroke="hsl(242, 72%, 49%)" stroke-width="3.3"  transform="translate(44.4 76.9) rotate(262.1) scale(1.06 1.75)" />
<path d="M 95.4 53.5 C 78.3 43.7, 20.7 59.8, 22.9 46.5 C 25.9 55.9, 76.0 8.2, 81.0 2.5 C 92.8 0.0, 73.3 100.0, 60.2 98.7 C 54.6 90.2, 94.9 83.5, 91.4 84.6 C 84.7 78.4, 62.0 87.2, 62.4 85.4 C 69.4 79.5, 59.1 92.0, 46.3 94.6 C 62.5 100.0, 3.3 35.1, 12.7 40.3 C 12.5 55.0, 51.5 88.2, 58.6 73.7 C 68.3 54.4, 20.3 65.5, 24.1 75.7 Z" fill="hsl(83, 65%, 44%)" fill-opacity="0.98" stroke="none" stroke-width="0.83"  transform="translate(45.6 27.5) rotate(266.7) scale(1.56 1.79)" />
<rect x="59.4" y="71.2" width="37.2" height="19.7" rx="0" fill="none" fill-opacity="0.58" stroke="hsl(2, 82%, 55%)" stroke-width="2.6"  transform="translate(84.4 98.3) rotate(159.2) scale(1.89 0.89)" />
<path d="M 3.9 60.1 C 4.5 73.5, 33.6 59.5, 38.2 46.1 C 25.4 35.0, 70.9 83.9, 84.9 71.4 C 87.2 59.0, 78.1 0.0, 83.0 4.6 C 87.3 3.0, 60.2 97.4, 52.1 88.4 C 68.1 82.2, 0.0 42.9, 4.5 30.8 C 0.0 17.2, 22.9 68.6, 8.1 77.4 C 0.0 80.0, 51.6 78.2, 49.1 92.1 C 34.4 100.0, 5.8 40.1, 10.8 25.3 C 29.2 24.4, 23.1 77.8, 12.7 90.6 Z" fill="hsl(151, 70%, 62%)" fill-opacity="0.57" stroke="none" stroke-width="0.88"  transform="translate(98.7 71.8) rotate(205.7) scale(0.89 0.61)" />
<circle cx="2.6" cy="13.1" r="7.2" fill="url(#g0)" fill-opacity="0.78"  transform="translate(42.5 35.7) rotate(332.0) scale(0.63 0.71)" />
<circle cx="58.7" cy="90.4" r="2.2" fill="url(#g0)" fill-opacity="0.76" filter="url(#f1)" transform="translate(67.2 84.6) rotate(259.0) scale(0.79 0.61)" />
<circle cx="86.2" cy="20.5" r="5.3" fill="hsl(83, 65%, 44%)" fill-opacity="0.70"   />
<circle cx="83.2" cy="61.7" r="5.5" fill="hsl(144, 86%, 72%)" fill-opacity="0.81" filter="url(#f1)" transform="translate(63.6 51.9) rotate(112.1) scale(0.63 0.78)" />
<path d="M 28.7 91.8 C 32.2 76.4, 57.8 31.9, 50.1 36.6 C 56.1 45.1, 84.8 78.4, 78.2 78.2 C 81.2 66.2, 99.4 23.7, 85.2 37.3 C 100.0 37.9, 58.2 85.5, 52.8 91.0 C 45.9 100.0, 27.9 0.0, 15.3 7.5 C 35.0 3.8, 37.0 76.4, 25.1 78.2 C 36.9 92.1, 42.0 20.5, 44.1 32.9 C 28.7 27.4, 81.2 27.0, 89.8 20.7 C 100.0 16.4, 72.8 37.6, 74.5 47.9 Z" fill="hsl(322, 74%, 44%)" fill-opacity="0.51" stroke="none" stroke-width="4.58"  transform="translate(88.6 71.6) rotate(135.7) scale(1.54 1.81)" />
<path d="M 39.1 80.6 C 53.1 82.9, 33.1 68.0, 22.1 64.0 C 22.7 78.7, 82.7 28.5, 92.7 35.3 C 81.2 22.8, 0.0 73.2, 12.0 82.2 C 6.6 75.0, 24.6 100.0, 11.4 92.6 C 0.0 93.2, 70.9 43.2, 73.8 46.4 C 60.1 27.2, 18.3 31.6, 6.3 39.3 C 23.8 54.5, 58.5 4.4, 50.8 10.3 C 33.8 1.4, 82.3 61.0, 87.8 61.0 Z" fill="hsl(2, 82%, 55%)" fill-opacity="0.46" stroke="none" stroke-width="3.32"  transform="translate(81.9 5.4) rotate(4.8) scale(0.77 1.73)" />
<path d="M 24.1 89.5 C 23.3 100.0, 66.5 11.2, 77.0 3.4 C 60.2 0.0, 88.6 9.5, 99.2 17.0 C 99.8 17.6, 64.0 13.3, 65.8 24.7 C 85.4 23.3, 82.7 62.1, 74.5 68.4 C 93.4 78.6, 75.9 38.8, 87.6 50.1 C 72.9 51.0, 47.3 34.7, 52.5 46.8 Z" fill="hsl(106, 75%, 59%)" fill-opacity="0.82" stroke="none" stroke-width="2.07"  transform="translate(15.4 43.1) rotate(6.4) scale(1.05 0.56)" />
<rect x="61.0" y="60.0" width="21.8" height="24.3" rx="0" fill="hsl(242, 72%, 49%)" fill-opacity="0.49" stroke="hsl(183, 71%, 60%)" stroke-width="1.2" filter="url(#f1)" transform="translate(89.4 68.1) rotate(163.1) scale(1.97 1.21)" />
<rect x="53.1" y="73.8" width="34.3" height="17.9" rx="0.6" fill="hsl(290, 83%, 63%)" fill-opacity="0.80"    />
<circle cx="47.3" cy="41.1" r="0.5" fill="url(#g2)" fill-opacity="0.59"  transform="translate(16.6 27.0) rotate(64.8) scale(1.83 1.88)" />
<circle cx="51.1" cy="55.0" r="8.3" fill="hsl(104, 72%, 65%)" fill-opacity="0.56"  transform="translate(81.9 68.0) rotate(13.6) scale(1.62 1.39)" />
<circle cx="56.4" cy="55.4" r="10.4" fill="hsl(242, 72%, 49%)" fill-opacity="0.78"  transform="translate(13.8 59.6) rotate(261.9) scale(1.41 0.98)" />
<path d="M 37.9 78.1 C 25.0 60.7, 10.1 88.2, 10.3 91.5 C 23.5 100.0, 50.2 16.5, 57.3 9.6 C 58.9 8.9, 16.0 20.5, 13.2 5.5 C 24.8 20.8, 15.7 41.7, 27.6 39.0 C 46.4 54.1, 70.0 18.8, 60.1 25.2 C 65.2 17.8, 91.5 48.0, 89.9 57.3 C 97.8 66.0, 48.7 59.0, 59.3 49.1 C 49.5 56.1, 61.8 0.0, 59.9 4.4 C 56.7 16.8, 16.8 57.5, 24.3 69.6 C 20.7 67.0, 19.9 43.9, 25.0 32.7 Z" fill="hsl(290, 83%, 63%)" fill-opacity="0.35" stroke="none" stroke-width="5.22"  transform="translate(43.1 82.7) rotate(221.8) scale(1.80 1.27)" />
<path d="M 67.6 94.9 C 58.6 100.0, 0.0 40.9, 0.1 55.2 C 3.4 72.9, 53.7 50.0, 40.3 41.1 C 58.7 47.4, 6.5 57.9, 7.9 51.8 C 0.0 43.3, 56.6 0.8, 47.3 14.1 C 55.8 30.6, 37.7 8.6, 42.4 10.5 C 53.2 27.9, 35.0 19.6, 49.0 9.8 C 48.8 29.0, 75.0 100.0, 79.5 93.1 Z" fill="hsl(86, 72%, 68%)" fill-opacity="0.47" stroke="none" stroke-width="4.89"  transform="translate(28.1 73.3) rotate(130.9) scale(1.16 1.78)" />
<path d="M 4.0 30.1 C 0.0 30.4, 55.5 100.0, 69.8 93.6 C 80.3 100.0, 45.8 85.8, 41.0 82.4 C 59.7 90.7, 95.6 93.0, 90.1 86.3 C 88.2 87.3, 20.0 23.7, 7.4 36.5 C 1.6 56.4, 19.6 10.0, 14.6 17.1 C 4.1 12.6, 18.1 35.3, 17.1 21.4 Z" fill="hsl(104, 72%, 65%)" fill-opacity="0.48" stroke="none" stroke-width="4.67"  transform="translate(85.8 87.9) rotate(59.4) scale(1.58 1.66)" />
<path d="M 64.6 15.2 C 62.2 19.3, 25.3 25.9, 26.1 39.4 C 11.6 28.7, 73.2 0.0, 71.6 3.4 C 80.4 0.0, 0.0 62.9, 3.9 64.5 C 3.1 55.4, 62.8 15.9, 64.8 15.9 C 80.7 30.5, 23.1 59.8, 26.7 58.8 C 23.0 72.0, 85.7 60.4, 73.3 53.3 Z" fill="hsl(242, 72%, 49%)" fill-opacity="0.93" stroke="none" stroke-width="3.24"  transform="translate(99.8 13.1) rotate(24.7) scale(1.87 1.02)" />
<circle cx="52.3" cy="98.8" r="1.3" fill="url(#g1)" fill-opacity="0.84"  transform="translate(94.8 96.0) rotate(44.2) scale(0.64 1.62)" />
<rect x="5.4" y="67.8" width="41.9" height="21.0" rx="13.7" fill="hsl(151, 70%, 62%)" fill-opacity="0.31"   transform="translate(68.5 80.6) rotate(235.5) scale(1.14 1.55)" />
<path d="M 26.9 89.4 C 27.5 93.0, 17.5 30.8, 30.2 38.5 C 12.2 22.6, 70.5 29.5, 66.9 41.9 C 63.8 51.8, 10.5 74.0, 8.1 68.6 C 22.9 51.6, 93.1 83.7, 80.1 95.3 C 100.0 85.6, 45.8 67.6, 58.5 63.0 C 74.7 43.4, 26.2 100.0, 26.6 96.1 C 21.4 96.5, 100.0 37.4, 97.2 22.5 C 86.8 37.6, 1.1 54.7, 12.0 66.4 Z" fill="hsl(86, 72%, 68%)" fill-opacity="0.84" stroke="none" stroke-width="1.43"   />
<rect x="3.3" y="23.3" width="22.7" height="11.6" rx="11.1" fill="none" fill-opacity="0.42"  filter="url(#f1)" transform="translate(22.4 4.3) rotate(205.0) scale(0.94 1.19)" />
<path d="M 45.5 10.9 C 64.4 2.1, 65.5 32.9, 55.8 33.0 C 36.6 41.4, 20.2 21.7, 29.3 23.5 C 17.3 24.6, 0.0 87.6, 2.1 82.5 C 10.9 95.9, 71.9 78.2, 71.8 68.8 C 72.9 50.8, 0.0 59.2, 1.4 56.6 C 0.0 72.6, 30.7 67.8, 23.9 71.2 C 35.2 58.5, 95.6 81.4, 86.2 72.8 C 100.0 60.6, 90.8 38.5, 83.2 41.8 C 74.7 31.8, 49.2 18.4, 51.5 18.4 C 50.5 37.4, 51.5 100.0, 59.2 87.8 Z" fill="hsl(242, 72%, 49%)" fill-opacity="0.61" stroke="none" stroke-width="1.13"  transform="translate(16.5 30.0) rotate(111.6) scale(1.25 1.32)" />
<circle cx="82.3" cy="74.0" r="3.9" fill="hsl(322, 74%, 44%)" fill-opacity="0.86"  transform="translate(29.6 84.8) rotate(139.8) scale(1.29 1.66)" />
<path d="M 82.5 27.9 C 80.1 44.5, 28.8 86.8, 43.3 85.8 C 61.8 85.4, 64.2 27.5, 53.6 35.7 C 40.1 25.9, 10.4 22.6, 14.9 20.6 C 12.9 10.8, 71.8 55.2, 79.7 47.7 C 80.1 52.9, 77.6 78.4, 92.6 84.7 C 95.0 80.0, 96.5 19.4, 88.3 14.4 C 100.0 22.3, 38.6 26.4, 37.2 18.5 C 39.7 8.1, 34.4 68.4, 32.9 54.4 Z" fill="hsl(106, 75%, 59%)" fill-opacity="0.29" stroke="none" stroke-width="0.86"  transform="translate(25.0 3.5) rotate(99.5) scale(1.81 1.37)" />
<path d="M 2.8 70.6 C 0.0 75.4, 22.8 100.0, 22.2 99.2 C 5.6 96.8, 62.6 0.8, 50.0 10.7 C 60.9 7.9, 5.0 29.1, 2.1 23.5 C 0.0 4.2, 7.6 66.3, 19.9 79.0 C 24.8 65.8, 73.1 13.8, 61.6 16.5 C 56.0 27.4, 17.2 76.5, 10.6 84.8 C 27.0 72.7, 19.6 39.6, 5.8 24.6 " fill="none" fill-opacity="0.61" stroke="hsl(242, 72%, 49%)" stroke-width="2.26"  transform="translate(53.1 57.3) rotate(180.3) scale(1.48 1.37)" />
<path d="M 14.1 27.7 C 2.1 36.1, 7.8 67.4, 3.3 72.3 C 8.9 91.6, 56.4 0.0, 62.3 0.1 C 63.8 0.0, 82.1 48.3, 80.0 47.5 C 83.6 31.3, 100.0 23.8, 93.1 35.6 C 74.9 25.7, 74.3 58.9, 64.6 61.2 C 67.4 75.3, 44.0 60.7, 47.4 75.0 C 27.7 81.1, 80.7 42.5, 92.9 28.6 Z" fill="hsl(2, 82%, 55%)" fill-opacity="0.60" stroke="none" stroke-width="3.70"  transform="translate(60.2 68.6) rotate(131.5) scale(1.67 1.68)" />
<path d="M 74.5 85.6 C 86.1 83.6, 100.0 44.8, 99.0 35.8 C 84.3 30.6, 30.4 0.0, 19.7 11.2 C 26.5 3.0, 53.6 81.2, 40.8 89.7 C 39.4 99.8, 39.1 33.3, 41.3 40.0 C 30.1 20.5, 69.9 35.3, 69.5 28.3 C 50.7 36.0, 77.4 12.9, 86.9 10.6 C 83.1 0.0, 88.5 44.3, 87.4 33.2 C 83.8 31.6, 22.5 21.9, 29.9 13.6 C 18.8 30.0, 56.5 35.3, 61.4 37.0 C 53.6 41.5, 49.0 67.5, 42.1 57.8 " fill="none" fill-opacity="0.52" stroke="hsl(86, 72%, 68%)" stroke-width="4.93"  transform="translate(37.7 69.6) rotate(241.1) scale(1.80 1.32)" />
<path d="M 66.0 0.9 C 72.2 0.0, 86.4 37.0, 86.7 32.8 C 71.7 13.0, 32.3 66.9, 45.4 73.2 C 39.7 70.7, 100.0 17.4, 96.1 31.2 C 95.4 51.2, 100.0 63.9, 98.9 51.7 C 100.0 63.4, 11.4 88.6, 1.9 82.7 C 20.9 75.9, 9.3 9.5, 21.6 9.3 Z" fill="hsl(242, 72%, 49%)" fill-opacity="0.57" stroke="none" stroke-width="2.14"  transform="translate(72.2 96.4) rotate(131.4) scale(1.70 1.30)" />
<path d="M 18.9 87.6 C 18.9 69.3, 12.2 25.9, 24.0 18.3 C 8.1 26.0, 73.1 10.0, 79.0 7.2 C 98.3 0.0, 18.3 68.9, 24.0 71.1 C 19.5 69.0, 63.0 0.0, 51.6 1.2 C 56.4 0.0, 16.0 76.9, 20.9 68.7 C 34.0 77.3, 63.5 70.7, 59.9 85.0 C 79.3 95.1, 78.8 67.7, 64.0 64.0 C 80.1 64.6, 53.5 12.1, 42.0 24.6 C 58.4 32.4, 82.5 29.5, 94.9 42.7 C 80.2 58.7, 31.8 22.4, 42.8 13.6 " fill="hsl(106, 75%, 59%)" fill-opacity="0.94" stroke="none" stroke-width="4.58"  transform="translate(61.5 19.9) rotate(68.9) scale(0.82 0.93)" />
<rect x="6.4" y="49.1" width="20.7" height="32.0" rx="0" fill="none" fill-opacity="0.84"   transform="translate(29.0 35.9) rotate(291.3) scale(1.41 0.90)" />
<path d="M 5.6 13.0 C 1.7 8.3, 72.5 95.3, 86.7 97.5 C 100.0 78.8, 90.9 31.4, 92.9 17.6 C 76.1 8.2, 93.8 61.3, 88.3 67.7 C 89.0 82.8, 37.0 86.9, 42.4 92.9 C 54.0 94.0, 26.2 58.2, 19.8 63.1 C 10.8 50.2, 35.8 54.8, 34.8 64.9 C 51.6 81.4, 85.4 73.7, 88.4 68.8 C 100.0 71.0, 48.7 68.4, 62.3 55.2 C 65.8 42.8, 12.5 71.1, 3.1 58.5 C 6.9 65.8, 74.5 71.3, 84.5 71.0 Z" fill="hsl(104, 72%, 65%)" fill-opacity="0.52" stroke="none" stroke-width="2.78" filter="url(#f1)" transform="translate(53.1 57.9) rotate(190.1) scale(1.37 1.57)" />
<rect x="2.8" y="72.3" width="35.6" height="23.0" rx="0" fill="none" fill-opacity="0.21"   transform="translate(47.6 23.2) rotate(264.2) scale(1.35 1.56)" />
<rect x="60.7" y="9.5" width="29.9" height="39.8" rx="3.1" fill="hsl(322, 74%, 44%)" fill-opacity="0.68"   transform="translate(69.1 52.8) rotate(181.4) scale(1.93 0.78)" />
<rect x="54.8" y="21.3" width="36.9" height="13.0" rx="0" fill="none" fill-opacity="0.98"  filter="url(#f1)" transform="translate(33.4 16.9) rotate(256.6) scale(1.80 0.89)" />
<path d="M 46.3 70.7 C 44.0 74.7, 27.5 85.3, 22.4 98.4 C 14.0 95.3, 9.0 73.3, 22.4 78.5 C 2.9 60.8, 21.8 79.3, 23.5 66.1 C 19.9 58.0, 41.6 58.9, 50.4 70.9 C 54.5 75.5, 15.2 12.3, 9.8 8.8 C 4.1 0.0, 63.3 86.8, 68.7 89.8 C 86.0 76.3, 72.7 100.0, 81.8 93.2 C 97.9 78.6, 3.7 57.6, 16.7 43.0 C 7.7 45.4, 36.1 67.5, 43.4 67.5 C 45.6 51.4, 75.0 37.4, 66.9 43.9 Z" fill="hsl(104, 72%, 65%)" fill-opacity="0.58" stroke="none" stroke-width="2.96"  transform="translate(17.7 78.7) rotate(85.7) scale(1.86 1.65)" />
<path d="M 93.3 38.0 C 87.7 52.1, 64.0 14.0, 53.1 22.7 C 35.7 38.1, 55.5 64.8, 50.7 60.1 C 38.3 68.6, 98.1 34.0, 91.1 44.5 C 92.8 57.0, 11.7 29.9, 1.0 23.9 C 18.6 28.3, 100.0 69.3, 91.8 70.0 C 85.0 74.0, 37.6 69.9, 26.9 76.2 C 36.1 66.4, 59.7 51.0, 58.9 38.1 Z" fill="hsl(242, 72%, 49%)" fill-opacity="0.56" stroke="none" stroke-width="3.80"  transform="translate(39.5 15.8) rotate(58.6) scale(1.69 0.94)" />
<path d="M 74.6 83.8 C 83.9 69.4, 16.9 76.7, 17.0 74.4 C 24.1 83.9, 38.1 20.8, 48.5 19.2 C 40.4 20.4, 0.0 78.3, 2.6 66.2 C 0.0 46.9, 69.4 49.7, 72.8 47.2 C 73.7 50.0, 99.8 68.4, 94.8 57.1 C 87.2 62.0, 14.9 28.6, 2.6 32.7 C 6.0 38.4, 97.8 74.8, 99.2 76.5 Z" fill="none" fill-opacity="0.65" stroke="hsl(322, 74%, 44%)" stroke-width="1.68"  transform="translate(42.6 6.2) rotate(351.1) scale(1.74 1.12)" />
<path d="M 67.2 32.1 C 75.0 13.4, 33.7 60.7, 25.0 75.3 C 34.8 72.7, 18.9 42.7, 14.4 39.1 C 0.0 44.3, 83.2 18.1, 70.1 20.7 C 68.8 31.7, 61.9 44.5, 54.8 45.7 C 37.9 58.7, 86.8 21.7, 76.6 25.0 C 91.9 8.1, 95.6 60.6, 85.8 54.5 Z" fill="none" fill-opacity="0.91" stroke="hsl(2, 82%, 55%)" stroke-width="3.37"  transform="translate(15.1 10.4) rotate(353.8) scale(1.62 1.69)" />
<rect x="46.1" y="2.2" width="22.5" height="29.5" rx="17.3" fill="none" fill-opacity="0.45"   transform="translate(10.2 17.6) rotate(98.8) scale(0.70 1.68)" />
<circle cx="26.8" cy="82.9" r="13.1" fill="url(#g1)" fill-opacity="0.52"  transform="translate(56.5 90.7) rotate(150.0) scale(1.29 0.63)" />
<rect x="50.2" y="50.6" width="34.8" height="34.6" rx="0" fill="hsl(144, 86%, 72%)" fill-opacity="0.75"   transform="translate(93.3 36.5) rotate(28.6) scale(0.93 1.57)" />
<circle cx="51.3" cy="5.0" r="0.8" fill="hsl(104, 72%, 65%)" fill-opacity="0.68"  transform="translate(99.1 74.0) rotate(276.8) scale(0.92 1.40)" />
<path d="M 27.6 73.5 C 9.8 91.6, 10.4 17.1, 22.2 9.9 C 11.5 18.0, 75.1 8.9, 82.7 21.7 C 94.9 10.4, 32.7 39.6, 25.7 50.7 C 9.0 47.0, 80.7 15.3, 67.7 3.3 C 79.4 8.5, 34.4 37.0, 30.6 42.6 C 41.1 60.2, 46.6 7.2, 42.3 22.1 C 32.7 7.2, 56.9 60.6, 67.7 50.8 C 77.7 34.4, 24.8 18.2, 20.3 20.8 Z" fill="hsl(86, 72%, 68%)" fill-opacity="0.40" stroke="none" stroke-width="1.64"  transform="translate(94.3 40.6) rotate(307.8) scale(0.62 0.57)" />
<path d="M 7.6 22.0 C 6.4 18.6, 66.6 30.7, 67.6 45.6 C 84.3 31.5, 9.5 60.9, 7.0 62.3 C 13.7 81.2, 62.4 55.1, 70.8 51.3 C 84.4 44.4, 42.3 69.2, 53.7 79.9 C 49.9 76.0, 91.5 25.2, 97.7 26.1 C 100.0 36.3, 44.9 0.0, 50.4 1.2 C 59.4 0.0, 51.1 87.5, 56.0 86.5 C 38.6 80.3, 79.9 81.6, 69.3 84.7 C 83.9 79.7, 46.9 88.5, 34.3 77.7 " fill="hsl(106, 75%, 59%)" fill-opacity="0.91" stroke="none" stroke-width="4.57"  transform="translate(39.7 11.7) rotate(78.4) scale(1.83 1.87)" />
<path d="M 31.8 66.7 C 40.8 71.3, 9.4 18.2, 15.6 28.2 C 32.4 17.4, 43.2 0.0, 28.3 13.2 C 37.1 9.8, 100.0 100.0, 94.6 98.9 C 80.0 81.5, 34.5 59.5, 21.0 56.9 C 29.7 46.9, 85.7 84.5, 74.3 93.3 C 77.7 75.3, 8.8 73.2, 22.5 81.6 C 14.3 72.3, 100.0 88.7, 89.8 94.9 C 80.5 75.2, 81.4 22.0, 71.8 35.6 C 80.6 32.1, 21.0 96.7, 31.8 91.1 C 28.0 100.0, 99.9 32.3, 95.5 22.8 Z" fill="hsl(106, 75%, 59%)" fill-opacity="0.93" stroke="none" stroke-width="1.50"  transform="translate(73.7 3.5) rotate(145.1) scale(1.89 0.71)" />
<path d="M 56.5 5.1 C 69.9 0.0, 80.0 54.2, 86.5 46.6 C 73.6 59.7, 86.2 54.5, 85.9 62.9 C 75.3 44.1, 41.2 49.9, 30.5 53.6 C 47.7 64.0, 10.2 59.7, 3.9 50.6 C 16.8 36.1, 85.6 72.0, 98.2 62.4 C 100.0 58.6, 51.6 83.9, 39.7 98.2 C 55.0 100.0, 2.8 93.0, 6.5 89.5 C 22.6 100.0, 59.1 0.0, 53.5 5.4 Z" fill="hsl(183, 71%, 60%)" fill-opacity="0.39" stroke="none" stroke-width="3.07"  transform="translate(98.6 31.2) rotate(269.5) scale(1.26 1.40)" />
<path d="M 0.2 99.1 C 5.9 97.1, 95.1 8.2, 92.5 19.7 C 100.0 5.7, 92.7 31.1, 93.4 23.1 C 77.0 40.8, 28.9 50.1, 27.3 42.1 C 17.0 52.6, 48.7 87.1, 52.6 94.7 C 46.7 95.5, 16.2 18.0, 5.4 5.3 C 14.2 0.0, 60.5 89.9, 72.7 85.7 Z" fill="hsl(183, 71%, 60%)" fill-opacity="0.32" stroke="none" stroke-width="1.05" filter="url(#f1)" transform="translate(77.1 15.7) rotate(135.4) scale(1.50 1.55)" />
<rect x="0.3" y="49.1" width="23.9" height="17.1" rx="0" fill="none" fill-opacity="0.22"   transform="translate(92.3 69.2) rotate(349.0) scale(0.58 0.82)" />
<circle cx="78.6" cy="93.0" r="8.5" fill="hsl(290, 83%, 63%)" fill-opacity="0.97"  transform="translate(59.1 91.8) rotate(313.4) scale(0.57 0.73)" />
<rect x="34.2" y="25.0" width="41.5" height="36.7" rx="4.4" fill="hsl(86, 72%, 68%)" fill-opacity="0.50"   transform="translate(51.9 61.1) rotate(65.8) scale(0.86 1.51)" />
<path d="M 19.8 32.9 C 21.7 26.3, 45.7 56.5, 33.8 43.5 C 18.6 33.5, 53.9 64.7, 60.4 78.9 C 64.8 88.8, 4.2 29.3, 17.9 30.3 C 0.0 47.7, 54.8 88.1, 60.2 76.8 C 53.6 89.8, 53.9 100.0, 39.0 89.0 C 31.4 87.9, 72.8 34.2, 63.8 29.4 Z" fill="hsl(144, 86%, 72%)" fill-opacity="0.60" stroke="none" stroke-width="1.90"  transform="translate(53.7 14.2) rotate(338.2) scale(1.63 1.02)" />
<path d="M 61.0 53.6 C 70.9 35.1, 90.5 78.5, 81.4 88.9 C 99.7 86.4, 9.8 46.2, 23.3 37.7 C 12.8 49.5, 85.0 7.2, 73.5 18.7 C 64.1 36.3, 10.0 30.6, 8.4 19.9 C 24.7 14.8, 12.9 27.0, 6.3 30.1 C 10.7 37.4, 100.0 28.5, 86.4 17.0 Z" fill="hsl(242, 72%, 49%)" fill-opacity="0.39" stroke="none" stroke-width="4.16"   />
<path d="M 50.0 84.8 C 46.1 73.6, 52.3 100.0, 57.5 97.4 C 64.2 80.7, 73.8 27.5, 61.6 19.5 C 70.5 1.5, 100.0 75.8, 96.4 73.3 C 100.0 71.8, 28.5 47.7, 30.1 60.0 C 10.1 64.6, 53.9 31.1, 48.2 42.2 C 58.8 59.2, 73.6 82.5, 63.8 91.4 C 70.4 100.0, 0.0 77.6, 5.7 69.8 C 19.7 88.8, 76.5 95.4, 86.3 99.1 C 75.6 99.4, 18.1 45.6, 30.3 32.0 Z" fill="hsl(40, 53%, 69%)" fill-opacity="0.79" stroke="none" stroke-width="4.40"  transform="translate(1.3 80.9) rotate(158.9) scale(1.30 1.09)" />
<path d="M 37.3 54.0 C 18.2 51.0, 48.7 75.4, 43.1 79.4 C 32.3 92.4, 40.3 100.0, 37.0 91.4 C 42.1 93.6, 11.1 0.0, 24.4 3.2 C 28.7 0.0, 67.4 21.0, 72.0 26.6 C 87.5 11.1, 19.1 47.7, 20.8 33.0 C 38.0 23.0, 55.5 39.7, 70.4 49.9 C 54.5 37.5, 64.2 59.7, 59.0 60.4 C 52.3 73.0, 74.3 21.1, 73.7 34.7 Z" fill="none" fill-opacity="0.84" stroke="hsl(242, 72%, 49%)" stroke-width="4.37"  transform="translate(52.7 99.4) rotate(116.6) scale(1.00 0.66)" />
<rect x="30.4" y="43.4" width="33.2" height="10.8" rx="15.6" fill="none" fill-opacity="0.54"   transform="translate(73.0 16.4) rotate(95.4) scale(0.54 1.90)" />
<path d="M 2.5 21.4 C 5.3 38.8, 82.5 51.2, 83.5 56.8 C 86.9 57.1, 36.9 86.7, 48.4 88.2 C 31.1 95.8, 37.3 65.4, 37.0 57.6 C 21.3 71.1, 65.7 35.8, 55.1 40.3 C 59.0 59.2, 71.0 62.3, 81.6 61.2 C 93.5 66.4, 84.8 90.3, 82.3 90.9 C 91.4 84.4, 92.2 35.2, 98.4 28.1 C 94.8 35.5, 30.2 2.2, 16.7 14.4 C 1.6 32.7, 33.6 53.1, 22.9 41.5 Z" fill="hsl(242, 72%, 49%)" fill-opacity="0.95" stroke="none" stroke-width="3.86"  transform="translate(28.4 44.2) rotate(77.9) scale(0.78 0.58)" />
<path d="M 26.8 48.3 C 34.9 56.8, 7.0 94.5, 2.8 95.5 C 0.0 100.0, 43.8 10.3, 28.9 0.4 C 28.6 0.0, 0.0 53.8, 4.9 44.1 C 0.0 46.0, 36.2 0.0, 34.0 1.4 C 16.5 11.4, 100.0 72.8, 96.2 80.6 C 93.8 92.5, 77.9 0.0, 64.8 0.6 C 56.7 0.0, 96.0 84.8, 99.7 84.5 C 100.0 95.6, 20.0 27.0, 13.6 25.9 C 0.0 19.7, 48.7 83.7, 55.6 92.9 Z" fill="hsl(242, 72%, 49%)" fill-opacity="0.31" stroke="none" stroke-width="4.71"  transform="translate(21.0 78.3) rotate(346.6) scale(0.63 1.41)" />
<path d="M 45.9 2.3 C 32.1 9.2, 91.5 41.9, 81.5 29.0 C 74.2 37.8, 100.0 47.4, 86.0 53.4 C 97.3 65.8, 41.5 99.8, 48.6 99.6 C 39.5 93.0, 98.2 58.1, 83.9 56.9 C 100.0 57.3, 100.0 5.1, 93.0 11.3 C 89.0 25.1, 70.4 77.9, 70.3 67.6 C 73.8 79.8, 85.5 88.4, 87.2 97.6 C 100.0 100.0, 27.6 42.3, 26.5 29.4 Z" fill="none" fill-opacity="0.98" stroke="hsl(83, 65%, 44%)" stroke-width="4.46"   />
<rect x="53.1" y="20.8" width="35.9" height="18.1" rx="5.9" fill="none" fill-opacity="0.28"   transform="translate(3.4 98.8) rotate(168.8) scale(0.88 1.07)" />
<path d="M 79.4 83.6 C 86.6 76.5, 34.9 60.3, 39.3 67.9 C 56.8 83.5, 80.9 26.2, 79.8 29.2 C 75.7 41.9, 53.1 100.0, 58.8 94.0 C 76.0 94.5, 17.8 61.9, 25.6 65.0 C 31.8 67.7, 40.7 43.3, 53.8 46.5 C 71.5 28.5, 69.3 50.6, 75.6 60.0 C 92.1 67.0, 63.0 74.5, 48.2 73.4 C 34.3 69.6, 23.2 47.2, 37.7 54.8 C 19.0 35.6, 88.8 20.6, 97.1 18.7 C 91.4 10.7, 40.7 10.1, 40.9 22.9 Z" fill="none" fill-opacity="0.95" stroke="hsl(83, 65%, 44%)" stroke-width="3.88" filter="url(#f1)" transform="translate(34.5 95.1) rotate(294.0) scale(1.69 1.68)" />
<path d="M 66.0 36.5 C 59.9 41.1, 31.7 93.9, 38.0 83.7 C 26.4 94.7, 100.0 32.3, 90.4 24.9 C 88.9 13.4, 54.2 83.7, 41.9 86.7 C 32.5 80.7, 54.7 79.3, 55.3 84.5 C 36.8 100.0, 15.4 26.5, 17.1 14.9 C 8.5 8.8, 8.9 0.0, 6.6 11.2 C 22.5 7.7, 62.8 95.8, 61.9 82.5 Z" fill="hsl(144, 86%, 72%)" fill-opacity="0.45" stroke="none" stroke-width="4.00"   />
<path d="M 72.1 38.1 C 53.5 28.5, 85.8 80.3, 75.4 92.6 C 64.7 86.2, 82.5 50.3, 92.3 39.0 C 100.0 55.2, 70.8 21.5, 72.8 18.8 C 82.5 34.2, 85.3 9.0, 98.9 18.0 C 87.4 10.4, 56.4 27.2, 45.8 41.2 C 50.0 23.5, 100.0 86.2, 91.9 97.7 C 78.9 78.7, 16.3 76.1, 25.6 75.9 C 34.9 87.8, 69.2 99.2, 66.9 98.0 C 48.5 88.4, 90.0 82.2, 96.7 70.7 Z" fill="none" fill-opacity="0.50" stroke="hsl(144, 86%, 72%)" stroke-width="4.67"  transform="translate(72.5 27.2) rotate(129.2) scale(1.95 1.89)" />
<circle cx="60.0" cy="26.6" r="1.1" fill="url(#g0)" fill-opacity="0.93" filter="url(#f1)" transform="translate(66.1 22.2) rotate(157.3) scale(1.21 1.18)" />
<circle cx="5.2" cy="40.0" r="3.7" fill="hsl(106, 75%, 59%)" fill-opacity="0.49"  transform="translate(56.4 25.6) rotate(163.8) scale(1.16 1.57)" />
<circle cx="60.6" cy="23.8" r="0.3" fill="url(#g2)" fill-opacity="0.77"  transform="translate(61.5 93.3) rotate(240.9) scale(0.62 0.89)" />
<path d="M 25.9 84.3 C 44.1 100.0, 0.0 84.8, 0.7 73.1 C 0.0 54.9, 94.5 72.0, 86.2 76.4 C 100.0 68.8, 14.6 80.7, 4.5 83.0 C 14.6 97.6, 88.4 20.4, 97.6 19.9 C 100.0 1.6, 62.3 21.7, 69.5 16.9 C 72.9 24.6, 85.4 8.7, 72.4 21.9 C 91.3 39.8, 4.6 69.9, 1.9 62.3 C 16.9 63.1, 30.9 97.7, 38.7 94.8 C 26.5 82.2, 43.5 40.5, 35.4 42.5 C 53.5 29.1, 57.0 34.8, 42.5 38.5 " fill="hsl(290, 83%, 63%)" fill-opacity="0.34" stroke="none" stroke-width="4.00"  transform="translate(71.6 64.2) rotate(210.6) scale(1.43 1.39)" />
<circle cx="74.6" cy="24.7" r="13.7" fill="hsl(106, 75%, 59%)" fill-opacity="0.51"  transform="translate(39.8 70.6) rotate(2.7) scale(0.78 1.17)" />
<path d="M 72.6 22.3 C 61.8 18.1, 34.5 62.3, 25.0 75.5 C 44.8 67.6, 28.9 30.4, 16.1 42.7 C 27.8 54.4, 64.6 32.4, 58.7 45.2 C 48.8 53.3, 73.5 24.0, 86.5 26.1 C 76.0 8.3, 28.9 18.1, 31.4 32.8 C 24.4 33.4, 75.7 53.6, 67.9 59.1 C 78.1 68.9, 45.4 15.1, 34.4 23.9 C 32.6 9.9, 70.4 35.4, 69.8 27.6 Z" fill="hsl(242, 72%, 49%)" fill-opacity="0.35" stroke="none" stroke-width="2.34"  transform="translate(14.5 23.0) rotate(280.2) scale(1.31 1.50)" />
<path d="M 93.0 74.6 C 95.3 65.1, 24.4 0.0, 11.3 6.3 C 0.0 0.0, 12.2 1.9, 4.8 8.6 C 16.1 24.1, 36.8 45.9, 48.8 39.2 C 58.4 32.5, 99.5 36.2, 97.3 34.7 C 100.0 24.6, 2.1 32.6, 13.6 36.1 C 18.9 52.7, 95.5 87.2, 97.7 88.4 C 84.3 69.7, 37.9 78.8, 27.5 68.1 Z" fill="hsl(322, 74%, 44%)" fill-opacity="0.95" stroke="none" stroke-width="3.04"  transform="translate(73.0 55.4) rotate(220.9) scale(0.64 1.63)" />
<path d="M 27.6 50.9 C 47.0 65.4, 42.1 43.8, 35.3 37.8 C 51.3 54.4, 81.3 27.7, 93.5 24.6 C 100.0 19.6, 41.7 29.1, 37.9 37.1 C 45.9 24.9, 58.8 74.6, 52.0 67.0 C 39.9 51.0, 11.8 73.2, 25.5 82.3 C 39.9 94.6, 0.0 36.8, 0.7 26.8 Z" fill="hsl(2, 82%, 55%)" fill-opacity="0.57" stroke="none" stroke-width="4.68"   />
<path d="M 37.9 1.0 C 34.3 13.2, 10.7 87.2, 4.3 81.9 C 15.4 94.8, 56.2 88.6, 54.7 77.2 C 55.4 95.7, 47.8 49.6, 35.6 43.7 C 21.4 58.7, 34.7 12.3, 38.9 1.0 C 37.4 1.7, 39.0 60.1, 52.2 73.3 C 66.5 90.7, 51.0 78.7, 46.3 79.9 C 46.7 97.0, 51.3 46.2, 48.3 52.3 C 67.1 70.3, 42.8 78.2, 51.7 66.5 Z" fill="hsl(242, 72%, 49%)" fill-opacity="0.87" stroke="none" stroke-width="3.73"  transform="translate(94.9 9.8) rotate(100.5) scale(0.76 1.37)" />
<circle cx="8.7" cy="27.1" r="6.8" fill="url(#g2)" fill-opacity="0.61"  transform="translate(51.2 98.8) rotate(55.4) scale(1.12 1.63)" />
<path d="M 55.0 5.3 C 46.5 9.4, 90.8 40.2, 90.7 32.5 C 92.2 48.6, 47.6 41.1, 60.4 43.2 C 75.7 35.8, 40.4 49.8, 53.1 57.3 C 61.2 51.4, 14.4 63.4, 20.3 59.9 C 6.7 70.0, 30.1 81.1, 23.4 76.1 C 24.7 86.9, 83.0 51.9, 90.9 51.4 C 89.9 59.1, 27.1 96.4, 21.1 86.6 C 16.7 100.0, 28.9 55.4, 35.7 48.6 C 22.8 52.5, 79.4 73.7, 82.3 74.2 Z" fill="none" fill-opacity="0.56" stroke="hsl(86, 72%, 68%)" stroke-width="5.06"  transform="translate(81.2 1.3) rotate(162.6) scale(1.20 1.84)" />
<path d="M 58.9 83.0 C 55.5 83.9, 34.8 96.6, 47.0 88.6 C 34.4 87.0, 59.0 15.9, 70.0 17.3 C 64.9 31.7, 45.2 0.0, 41.5 7.7 C 41.3 0.0, 63.0 6.6, 49.3 15.8 C 38.8 2.1, 18.8 66.0, 29.3 66.1 C 46.3 53.4, 24.4 0.0, 18.5 6.4 C 0.2 25.6, 58.7 22.8, 59.0 8.3 C 49.3 0.0, 96.5 73.4, 82.9 79.0 C 73.1 81.6, 13.4 0.0, 2.9 3.8 Z" fill="none" fill-opacity="0.49" stroke="hsl(144, 86%, 72%)" stroke-width="4.45"  transform="translate(35.8 79.6) rotate(158.4) scale(1.15 1.28)" />
<path d="M 99.6 69.7 C 90.3 51.6, 17.3 98.9, 23.1 87.9 C 17.9 74.7, 85.3 100.0, 81.8 92.3 C 94.5 79.4, 45.7 34.3, 33.9 21.0 C 38.6 5.9, 2.1 27.8, 3.8 36.8 C 15.2 22.5, 57.5 61.3, 54.4 63.6 C 73.6 80.3, 10.3 36.0, 2.1 41.8 C 5.9 38.7, 53.5 41.0, 61.3 32.4 C 59.4 40.6, 87.0 68.9, 87.8 74.3 C 77.1 75.5, 14.8 84.9, 11.1 95.9 Z" fill="none" fill-opacity="0.47" stroke="hsl(322, 74%, 44%)" stroke-width="1.48"  transform="translate(84.1 58.9) rotate(32.3) scale(1.52 1.08)" />
<path d="M 38.2 5.2 C 39.0 0.9, 58.0 90.1, 50.9 98.4 C 63.4 100.0, 80.7 60.2, 83.8 53.7 C 64.2 61.1, 26.3 71.6, 14.5 80.3 C 31.3 62.4, 47.2 81.6, 53.1 85.2 C 35.1 88.4, 37.7 50.8, 40.4 40.1 C 39.0 30.5, 31.9 85.0, 30.5 94.6 C 13.2 95.2, 97.0 33.0, 82.6 26.2 C 86.4 6.4, 27.5 33.0, 13.1 35.8 C 23.2 53.7, 52.0 100.0, 65.6 92.5 Z" fill="hsl(322, 74%, 44%)" fill-opacity="0.33" stroke="none" stroke-width="2.97"  transform="translate(14.8 77.3) rotate(338.7) scale(0.62 0.91)" />
<rect x="13.2" y="11.7" width="37.7" height="39.8" rx="0" fill="hsl(322, 74%, 44%)" fill-opacity="0.71" stroke="hsl(322, 74%, 44%)" stroke-width="1.2"  transform="translate(4.5 81.7) rotate(87.4) scale(1.27 1.42)" />
<path d="M 83.4 10.3 C 76.9 0.0, 69.3 20.9, 82.4 26.6 C 93.9 28.9, 71.8 28.9, 59.3 17.6 C 48.1 15.4, 89.7 62.3, 89.7 50.4 C 78.7 43.0, 63.2 83.3, 72.5 84.3 C 77.7 65.2, 9.6 78.9, 2.9 73.8 C 1.1 81.6, 94.3 17.2, 96.1 30.6 C 100.0 48.6, 1.4 14.0, 7.3 2.3 Z" fill="hsl(151, 70%, 62%)" fill-opacity="0.84" stroke="none" stroke-width="1.64"  transform="translate(87.2 70.0) rotate(357.2) scale(1.59 1.11)" />
<path d="M 60.4 36.9 C 65.7 55.1, 92.3 74.4, 87.2 74.1 C 94.0 77.5, 33.9 0.0, 33.2 1.9 C 31.8 0.0, 23.0 76.5, 31.1 76.4 C 34.3 58.5, 47.7 0.0, 62.2 8.9 C 78.8 8.9, 23.6 46.4, 12.0 36.1 C 22.2 16.4, 54.6 18.6, 52.9 12.8 " fill="none" fill-opacity="0.32" stroke="hsl(106, 75%, 59%)" stroke-width="1.63" filter="url(#f1)" transform="translate(7.0 48.7) rotate(217.5) scale(1.23 1.19)" />
<path d="M 8.6 84.6 C 0.0 75.1, 8.1 26.5, 13.1 23.5 C 19.8 13.4, 7.5 20.2, 16.5 34.3 C 27.5 39.8, 65.3 38.9, 75.6 30.5 C 81.9 36.3, 54.3 59.1, 39.4 56.7 C 40.8 57.7, 31.2 51.7, 33.3 51.8 C 17.9 49.9, 25.7 12.4, 18.3 4.9 C 31.7 0.0, 13.7 17.9, 15.4 14.1 C 25.1 5.7, 50.6 82.0, 62.2 74.1 Z" fill="hsl(106, 75%, 59%)" fill-opacity="0.59" stroke="none" stroke-width="2.39"  transform="translate(20.5 70.5) rotate(210.2) scale(1.59 1.00)" />
<rect x="56.1" y="8.8" width="40.0" height="33.4" rx="0" fill="hsl(183, 71%, 60%)" fill-opacity="0.88"    />
<path d="M 86.2 74.1 C 66.4 60.1, 82.8 3.8, 93.4 8.3 C 80.3 0.0, 74.7 27.4, 70.4 30.4 C 59.3 34.8, 2.6 66.0, 2.2 68.5 C 8.6 82.3, 44.3 12.9, 42.2 27.2 C 58.9 16.7, 16.0 0.0, 19.1 0.9 C 3.8 19.3, 21.2 87.1, 22.7 96.6 Z" fill="hsl(322, 74%, 44%)" fill-opacity="0.70" stroke="none" stroke-width="2.82"  transform="translate(78.5 64.4) rotate(32.6) scale(1.95 1.42)" />
<path d="M 21.9 29.1 C 3.5 42.7, 8.6 90.9, 8.6 89.5 C 16.9 95.4, 3.5 28.1, 15.8 24.4 C 10.5 22.2, 35.1 59.6, 49.6 47.7 C 58.6 29.4, 43.8 31.8, 42.4 28.7 C 56.2 37.7, 33.2 10.4, 29.2 15.5 C 40.8 30.2, 89.0 37.5, 89.2 27.0 C 79.5 20.5, 68.9 88.1, 75.8 92.8 Z" fill="none" fill-opacity="0.69" stroke="hsl(86, 72%, 68%)" stroke-width="3.27"   />
<path d="M 98.8 18.0 C 100.0 9.5, 100.0 37.3, 95.3 50.8 C 98.9 41.7, 59.6 87.4, 60.3 100.0 C 42.6 100.0, 73.4 12.7, 83.7 19.8 C 67.6 1.1, 50.2 7.9, 52.7 14.3 C 33.1 20.1, 60.2 51.8, 60.7 64.2 C 65.5 78.3, 1.9 77.9, 8.2 68.6 C 0.0 51.1, 64.7 1.8, 51.4 14.2 C 63.8 2.4, 52.6 69.9, 44.2 79.2 C 46.3 88.3, 66.5 94.3, 61.7 94.4 " fill="none" fill-opacity="0.82" stroke="hsl(106, 75%, 59%)" stroke-width="4.33"   />
<rect x="39.6" y="47.0" width="38.7" height="23.1" rx="0" fill="none" fill-opacity="0.82"   transform="translate(80.2 16.0) rotate(185.8) scale(0.56 0.75)" />
<path d="M 60.5 5.1 C 54.0 24.8, 86.9 56.5, 91.0 50.8 C 88.7 68.6, 61.5 24.9, 66.8 30.1 C 59.9 34.0, 47.6 22.9, 50.1 34.2 C 33.7 51.3, 80.0 25.9, 69.1 24.0 C 76.3 4.9, 51.7 65.3, 42.8 79.5 C 51.6 65.5, 84.1 44.9, 95.0 58.7 C 85.9 59.8, 7.2 40.4, 3.6 43.0 C 14.7 32.2, 13.4 77.7, 19.0 72.0 C 28.5 56.9, 5.0 39.7, 2.0 42.5 C 3.0 42.4, 13.8 11.2, 15.8 12.2 Z" fill="hsl(144, 86%, 72%)" fill-opacity="0.26" stroke="none" stroke-width="4.54"  transform="translate(18.0 87.8) rotate(311.8) scale(1.64 1.27)" />
<rect x="22.9" y="22.2" width="23.2" height="18.5" rx="0" fill="none" fill-opacity="0.72"   transform="translate(67.5 19.9) rotate(256.2) scale(0.58 1.13)" />
<path d="M 47.3 22.0 C 64.8 30.5, 47.4 80.4, 35.7 90.6 C 44.9 100.0, 65.5 56.9, 62.1 63.3 C 66.1 67.1, 72.3 8.5, 67.2 11.9 C 63.8 0.0, 31.0 86.7, 23.9 72.9 C 14.9 85.0, 46.8 81.4, 39.7 91.6 C 33.6 84.6, 0.0 63.2, 3.8 75.7 Z" fill="hsl(151, 70%, 62%)" fill-opacity="0.75" stroke="none" stroke-width="3.46"  transform="translate(83.4 98.7) rotate(218.7) scale(1.78 1.96)" />
<circle cx="58.8" cy="91.4" r="18.3" fill="url(#g2)" fill-opacity="0.44" filter="url(#f1)" transform="translate(17.8 97.2) rotate(224.6) scale(0.58 1.74)" />
<path d="M 28.4 71.6 C 26.8 62.9, 87.0 45.4, 90.3 51.1 C 100.0 51.2, 10.4 71.6, 23.9 62.4 C 15.1 66.8, 10.7 73.5, 15.1 74.2 C 32.9 93.4, 79.5 63.8, 86.1 52.3 C 78.2 59.9, 50.3 48.4, 63.2 55.6 C 48.2 69.1, 84.2 100.0, 92.6 94.4 Z" fill="none" fill-opacity="0.75" stroke="hsl(2, 82%, 55%)" stroke-width="1.33"  transform="translate(56.1 14.8) rotate(134.6) scale(1.05 1.87)" />
<path d="M 21.3 53.7 C 29.2 71.6, 56.1 78.9, 61.5 64.4 C 52.1 54.1, 0.0 89.2, 13.3 81.4 C 30.7 77.8, 36.4 34.5, 25.3 23.9 C 20.3 18.0, 75.4 39.8, 74.7 36.7 C 76.8 34.3, 64.2 10.8, 78.2 9.0 C 87.2 7.0, 67.9 77.8, 74.4 75.5 C 67.5 88.7, 90.2 45.3, 75.3 53.0 C 73.5 40.5, 76.7 19.4, 80.5 13.8 Z" fill="hsl(151, 70%, 62%)" fill-opacity="0.49" stroke="none" stroke-width="3.03"  transform="translate(7.1 86.5) rotate(235.1) scale(0.60 1.14)" />
<path d="M 35.1 31.0 C 16.2 12.5, 88.1 54.3, 73.2 68.9 C 92.2 67.8, 69.1 57.4, 63.2 52.4 C 63.6 72.0, 77.8 20.1, 82.5 10.3 C 74.9 0.0, 44.2 95.9, 31.7 91.3 C 12.0 89.5, 4.7 100.0, 3.4 96.8 C 2.3 99.7, 90.5 38.5, 80.8 40.6 C 75.7 26.8, 9.9 26.1, 24.7 19.9 C 21.1 39.6, 44.9 57.5, 36.8 46.4 C 40.9 32.7, 47.6 44.7, 58.6 36.9 " fill="none" fill-opacity="0.59" stroke="hsl(290, 83%, 63%)" stroke-width="4.57"  transform="translate(45.6 36.2) rotate(309.4) scale(1.69 1.16)" />
<circle cx="52.1" cy="54.6" r="13.8" fill="hsl(40, 53%, 69%)" fill-opacity="0.61"  transform="translate(90.8 76.3) rotate(82.7) scale(1.11 1.89)" />
<path d="M 57.3 22.7 C 54.9 28.9, 49.8 94.9, 49.2 96.3 C 36.4 77.0, 64.9 5.8, 50.2 15.6 C 50.3 3.8, 69.1 30.3, 77.4 34.7 C 82.8 30.3, 0.0 45.4, 2.8 34.1 C 0.0 40.0, 53.1 61.7, 43.6 61.3 C 42.1 54.7, 100.0 67.2, 88.4 81.3 C 100.0 77.0, 3.3 92.0, 5.6 86.2 C 1.3 73.9, 2.0 48.8, 5.6 59.4 C 3.7 54.6, 26.8 79.7, 12.2 75.0 C 10.1 62.2, 48.3 55.4, 51.4 45.9 " fill="none" fill-opacity="0.42" stroke="hsl(144, 86%, 72%)" stroke-width="3.79"  transform="translate(67.9 81.3) rotate(273.0) scale(0.83 0.57)" />
<path d="M 1.0 92.8 C 0.0 86.3, 27.9 40.4, 14.2 28.0 C 4.4 34.5, 97.2 50.9, 82.8 52.2 C 74.4 59.1, 28.5 76.2, 33.0 83.6 C 48.0 89.5, 0.0 55.9, 2.5 51.6 C 2.2 35.9, 100.0 89.6, 93.5 89.3 C 91.9 100.0, 80.4 73.6, 79.8 80.3 C 88.3 76.6, 78.9 48.9, 65.1 57.8 Z" fill="hsl(106, 75%, 59%)" fill-opacity="0.41" stroke="none" stroke-width="4.48"  transform="translate(82.3 40.1) rotate(22.5) scale(1.06 1.38)" />
<rect x="12.3" y="53.8" width="28.0" height="12.7" rx="8.2" fill="none" fill-opacity="0.29"  filter="url(#f1)" transform="translate(45.7 64.1) rotate(192.2) scale(0.65 1.94)" />
<rect x="10.0" y="52.8" width="46.6" height="37.3" rx="0" fill="none" fill-opacity="0.75" stroke="hsl(40, 53%, 69%)" stroke-width="2.4"  transform="translate(99.6 20.8) rotate(284.7) scale(1.24 0.75)" />
<rect x="16.8" y="32.8" width="23.2" height="14.9" rx="1.3" fill="none" fill-opacity="0.28"   transform="translate(51.1 61.4) rotate(173.1) scale(1.82 1.08)" />
<path d="M 24.3 85.0 C 43.5 98.5, 63.7 71.1, 75.7 80.1 C 56.4 83.6, 94.1 74.4, 87.7 69.5 C 75.6 88.9, 67.0 68.2, 57.9 69.7 C 76.3 64.0, 100.0 58.1, 97.5 54.0 C 94.2 52.2, 5.3 49.4, 9.1 49.0 C 27.7 56.6, 100.0 43.7, 96.7 55.2 C 100.0 54.6, 28.5 79.6, 39.7 71.2 C 51.3 76.1, 31.7 44.7, 21.9 44.4 C 25.7 46.9, 79.8 46.2, 88.8 32.2 Z" fill="hsl(86, 72%, 68%)" fill-opacity="0.55" stroke="none" stroke-width="4.36"  transform="translate(46.3 42.1) rotate(126.8) scale(1.27 1.61)" />
<circle cx="96.7" cy="4.9" r="13.0" fill="hsl(183, 71%, 60%)" fill-opacity="0.42"   />
<rect x="34.8" y="41.2" width="42.2" height="21.5" rx="13.8" fill="none" fill-opacity="0.47"   transform="translate(38.2 17.1) rotate(318.9) scale(1.88 1.39)" />
<rect x="7.4" y="77.7" width="49.3" height="11.6" rx="0" fill="hsl(106, 75%, 59%)" fill-opacity="0.45"    />
<rect x="16.3" y="49.6" width="42.3" height="20.6" rx="2.6" fill="none" fill-opacity="0.90" stroke="hsl(86, 72%, 68%)" stroke-width="3.2"  transform="translate(53.5 51.9) rotate(218.3) scale(0.61 1.16)" />
<path d="M 49.1 85.1 C 45.0 86.9, 47.2 11.8, 56.3 4.8 C 37.1 13.6, 38.1 63.1, 34.0 64.9 C 42.3 79.5, 67.5 76.9, 55.0 73.5 C 65.8 73.8, 17.1 48.0, 16.1 58.8 C 33.2 44.8, 60.6 31.1, 60.6 27.2 C 51.7 21.5, 21.7 58.3, 36.2 47.0 Z" fill="hsl(2, 82%, 55%)" fill-opacity="0.28" stroke="none" stroke-width="2.94" filter="url(#f1)" transform="translate(25.0 92.3) rotate(197.6) scale(1.26 0.87)" />
<circle cx="19.6" cy="78.9" r="6.6" fill="hsl(104, 72%, 65%)" fill-opacity="0.98"  transform="translate(98.8 65.2) rotate(321.9) scale(1.86 0.88)" />
<path d="M 92.2 91.6 C 88.9 100.0, 13.4 66.4, 19.1 69.9 C 5.5 62.9, 21.9 25.7, 21.1 22.3 C 3.6 13.9, 88.1 0.0, 82.4 3.0 C 68.4 0.0, 100.0 100.0, 98.7 94.6 C 86.3 88.3, 10.5 14.8, 19.3 19.3 C 24.6 9.9, 67.8 75.7, 69.2 75.3 C 80.1 59.2, 27.1 35.5, 33.1 41.5 C 35.6 40.7, 85.0 76.9, 76.9 68.5 C 82.1 82.8, 51.8 37.7, 43.8 39.9 Z" fill="hsl(40, 53%, 69%)" fill-opacity="0.27" stroke="none" stroke-width="1.73"  transform="translate(98.4 13.7) rotate(139.2) scale(0.71 1.66)" />
<circle cx="44.9" cy="39.4" r="0.8" fill="url(#g0)" fill-opacity="0.46"  transform="translate(77.6 78.5) rotate(230.3) scale(0.76 0.66)" />
<path d="M 16.5 30.3 C 28.0 32.4, 21.1 24.5, 12.8 21.2 C 12.9 19.7, 23.1 91.2, 15.1 91.4 C 14.1 84.8, 77.2 65.5, 84.2 54.4 C 92.4 44.1, 64.9 65.5, 59.6 67.5 C 67.3 66.5, 79.3 78.1, 87.2 87.8 C 99.4 92.2, 10.7 38.0, 0.8 44.6 C 6.6 29.1, 35.3 0.0, 41.4 9.3 C 43.0 17.8, 24.0 24.2, 12.1 29.0 Z" fill="hsl(104, 72%, 65%)" fill-opacity="0.45" stroke="none" stroke-width="4.18"  transform="translate(23.7 95.4) rotate(169.8) scale(1.49 1.08)" />
<path d="M 48.0 66.0 C 48.7 73.8, 27.0 74.1, 18.1 86.6 C 33.0 70.8, 95.2 8.0, 92.9 2.0 C 100.0 0.0, 77.1 44.5, 64.8 45.1 C 74.1 53.5, 83.9 83.1, 85.2 92.2 C 95.5 86.8, 7.0 53.2, 7.9 39.1 C 10.4 53.7, 3.0 36.9, 1.0 35.4 C 0.0 26.2, 61.3 74.5, 61.9 77.0 C 81.0 85.9, 69.8 62.2, 69.5 76.9 C 75.3 96.3, 79.2 87.5, 73.0 91.5 C 80.3 82.0, 77.4 73.1, 68.1 81.3 Z" fill="hsl(104, 72%, 65%)" fill-opacity="0.79" stroke="none" stroke-width="4.03"   />
<circle cx="51.7" cy="54.3" r="11.1" fill="hsl(2, 82%, 55%)" fill-opacity="0.61"  transform="translate(6.3 66.9) rotate(291.3) scale(1.79 1.17)" />
<path d="M 87.7 47.7 C 76.2 31.2, 78.4 0.0, 67.0 2.2 C 77.7 10.8, 20.7 65.6, 21.6 59.4 C 21.1 58.4, 0.0 80.0, 8.8 81.8 C 1.3 66.7, 21.9 84.3, 23.6 71.2 C 3.9 65.5, 35.7 37.1, 48.4 37.9 C 34.2 46.8, 88.3 74.0, 96.6 79.2 C 100.0 95.6, 81.3 78.8, 77.3 92.1 C 82.5 80.3, 5.9 84.3, 3.2 79.5 C 0.0 75.8, 1.2 22.7, 9.9 33.3 Z" fill="none" fill-opacity="0.91" stroke="hsl(151, 70%, 62%)" stroke-width="3.17"  transform="translate(9.0 64.9) rotate(219.2) scale(1.47 0.91)" />
<rect x="41.1" y="18.6" width="32.4" height="28.7" rx="11.1" fill="none" fill-opacity="0.35"   transform="translate(47.6 69.8) rotate(146.2) scale(1.17 0.87)" />
<rect x="39.6" y="17.7" width="25.7" height="27.6" rx="0" fill="hsl(40, 53%, 69%)" fill-opacity="0.25"  filter="url(#f1)"  />
<rect x="57.2" y="42.4" width="26.7" height="18.9" rx="12.8" fill="none" fill-opacity="0.49"    />
<g opacity="0.071">
<rect x="0" y="0" width="1" height="100" fill="black" />
<rect x="22" y="0" width="1" height="100" fill="black" />
<rect x="44" y="0" width="1" height="100" fill="black" />
<rect x="66" y="0" width="1" height="100" fill="black" />
<rect x="88" y="0" width="1" height="100" fill="black" />
<rect x="0" y="0" width="100" height="1" fill="black" />
<rect x="0" y="22" width="100" height="1" fill="black" />
<rect x="0" y="44" width="100" height="1" fill="black" />
<rect x="0" y="66" width="100" height="1" fill="black" />
<rect x="0" y="88" width="100" height="1" fill="black" />
</g>

</svg>
