<?xml version="1.0" encoding="UTF-8"?>
<svg xmlns="http://www.w3.org/2000/svg" width="100" height="100" viewBox="0 0 100 100">
<defs>
<linearGradient id="g0" x1="0%" y1="0%" x2="100%" y2="100%">
<stop offset="0.0%" stop-color="hsl(106, 75%, 59%)" />
<stop offset="33.3%" stop-color="hsl(183, 71%, 60%)" />
<stop offset="66.7%" stop-color="hsl(242, 72%, 49%)" />
<stop offset="100.0%" stop-color="hsl(322, 74%, 44%)" />
</linearGradient>
<linearGradient id="g1" x1="0%" y1="0%" x2="100%" y2="100%">
<stop offset="0.0%" stop-color="hsl(290, 83%, 63%)" />
<stop offset="33.3%" stop-color="hsl(2, 82%, 55%)" />
<stop offset="66.7%" stop-color="hsl(86, 72%, 68%)" />
<stop offset="100.0%" stop-color="hsl(83, 65%, 44%)" />
</linearGradient>
<linearGradient id="g2" x1="0%" y1="0%" x2="100%" y2="100%">
<stop offset="0.0%" stop-color="hsl(40, 53%, 69%)" />
<stop offset="33.3%" stop-color="hsl(104, 72%, 65%)" />
<stop offset="66.7%" stop-color="hsl(144, 86%, 72%)" />
<stop offset="100.0%" stop-color="hsl(151, 70%, 62%)" />
</linearGradient>
<filter id="f1" x="-20%" y="-20%" width="140%" height="140%">
  <feGaussianBlur stdDeviation="1.3708090002690472" />
</filter>

</defs>

<circle cx="96.1" cy="13.9" r="20.7" fill="url(#g2)" fill-opacity="0.95"   />
<path d="M 87.0 36.4 C 83.7 50.7, 85.2 96.8, 76.8 83.5 C 77.2 100.0, 37.5 90.2, 26.2 98.3 C 10.9 100.0, 82.1 76.6, 76.3 79.9 C 78.6 95.3, 100.0 25.4, 94.4 40.1 C 81.1 20.3, 12.0 86.8, 15.8 96.3 C 23.7 99.9, 34.6 88.1, 41.6 85.9 C 59.0 70.1, 35.1 48.0, 35.5 61.9 C 23.1 79.2, 40.6 10.4, 37.8 25.0 Z" fill="hsl(322, 74%, 44%)" fill-opacity="0.52" stroke="none" stroke-width="1.88"  transform="translate(54.9 48.2) rotate(202.9) scale(1.60 1.11)" />
<rect x="1.4" y="67.2" width="43.3" height="28.6" rx="3.3" fill="none" fill-opacity="0.65"   transform="translate(5.5 15.6) rotate(342.3) scale(1.00 1.88)" />
<path d="M 9.6 77.4 C 29.0 75.5, 90.5 79.4, 93.8 94.4 C 100.0 89.2, 21.8 90.8, 15.5 85.6 C 15.2 67.2, 25.6 53.7, 13.8 40.7 C 28.9 55.0, 17.7 45.1, 11.3 39.0 C 2.7 57.5, 18.0 56.2, 6.6 45.0 C 0.0 56.6, 72.3 60.5, 67.2 69.6 C 81.3 55.6, 58.6 51.8, 57.0 40.6 C 41.0 39.9, 25.2 0.0, 26.7 0.4 Z" fill="hsl(290, 83%, 63%)" fill-opacity="0.27" stroke="none" stroke-width="5.22"  transform="translate(26.0 93.3) rotate(186.4) scale(0.90 1.02)" />
<rect x="27.5" y="2.5" width="30.2" height="35.3" rx="18.2" fill="none" fill-opacity="0.31" stroke="hsl(40, 53%, 69%)" stroke-width="1.8"   />
<path d="M 11.2 17.3 C 12.0 36.8, 25.2 21.4, 33.0 34.8 C 23.1 28.9, 14.7 48.1, 21.1 47.2 C 38.2 49.0, 94.0 33.1, 80.5 34.9 C 78.2 47.0, 56.6 89.3, 71.2 84.4 C 81.6 79.2, 31.1 88.9, 40.7 82.6 C 52.9 95.9, 75.2 87.1, 79.9 84.4 Z" fill="hsl(183, 71%, 60%)" fill-opacity="1.00" stroke="none" stroke-width="3.09"  transform="translate(58.9 5.7) rotate(307.2) scale(1.55 1.35)" />
<rect x="55.6" y="36.8" width="30.5" height="29.5" rx="0" fill="none" fill-opacity="0.38"   transform="translate(57.2 68.1) rotate(320.5) scale(1.59 1.03)" />
<circle cx="97.6" cy="13.5" r="1.2" fill="url(#g0)" fill-opacity="0.84"   />
<rect x="62.5" y="38.7" width="22.9" height="34.2" rx="5.1" fill="hsl(40, 53%, 69%)" fill-opacity="0.91"    />
<path d="M 29.1 63.4 C 21.4 64.8, 15.4 70.7, 17.6 69.5 C 19.2 55.0, 40.9 90.9, 32.9 92.5 C 13.3 87.3, 29.4 86.1, 43.3 87.0 C 54.8 91.9, 52.6 13.8, 59.2 6.0 C 78.8 24.8, 17.8 49.1, 29.0 46.8 C 38.5 56.0, 59.8 95.7, 48.8 95.2 C 51.0 80.5, 100.0 75.1, 91.8 68.6 C 73.5 74.1, 88.2 30.5, 86.6 29.7 C 90.4 31.2, 60.7 89.6, 47.3 80.8 C 47.6 61.2, 57.2 100.0, 51.8 93.8 Z" fill="none" fill-opacity="1.00" stroke="hsl(83, 65%, 44%)" stroke-width="5.28"  transform="translate(28.4 17.5) rotate(1.9) scale(0.84 1.54)" />
<path d="M 57.4 93.4 C 54.6 75.1, 78.4 30.5, 65.8 16.4 C 58.8 19.2, 73.9 60.0, 83.3 61.2 C 79.3 52.6, 39.4 20.1, 44.8 7.8 C 43.2 8.0, 25.0 32.6, 30.4 34.1 C 23.1 40.8, 77.6 100.0, 74.5 93.5 C 87.3 77.2, 18.7 1.7, 33.5 7.6 C 33.8 10.8, 80.1 26.3, 66.3 27.2 C 51.0 8.2, 56.0 42.9, 67.9 56.3 Z" fill="hsl(83, 65%, 44%)" fill-opacity="0.70" stroke="none" stroke-width="3.04"  transform="translate(20.6 3.8) rotate(197.7) scale(1.77 0.71)" />
<circle cx="27.3" cy="83.7" r="2.4" fill="hsl(106, 75%, 59%)" fill-opacity="0.45"  transform="translate(48.6 35.3) rotate(6.1) scale(1.72 0.99)" />
<path d="M 19.5 51.2 C 9.9 55.2, 59.6 52.5, 69.4 40.1 C 78.5 58.7, 77.0 98.3, 78.8 96.6 C 67.6 77.4, 49.2 55.9, 34.8 44.5 C 54.1 62.4, 88.0 48.3, 98.3 38.6 C 100.0 54.9, 0.0 65.4, 5.0 67.2 C 19.0 73.6, 51.1 70.6, 60.6 63.5 C 56.5 61.9, 100.0 10.6, 89.5 0.6 Z" fill="none" fill-opacity="0.47" stroke="hsl(104, 72%, 65%)" stroke-width="3.68"   />
<circle cx="38.2" cy="92.7" r="12.0" fill="url(#g1)" fill-opacity="0.68"  transform="translate(74.4 17.3) rotate(19.7) scale(1.83 1.01)" />
<rect x="60.9" y="48.2" width="23.0" height="29.2" rx="16.2" fill="hsl(183, 71%, 60%)" fill-opacity="0.43"   transform="translate(6.2 52.3) rotate(75.7) scale(1.79 0.99)" />
<rect x="66.7" y="41.5" width="29.0" height="11.2" rx="14.9" fill="hsl(322, 74%, 44%)" fill-opacity="0.49"  filter="url(#f1)" transform="translate(69.7 12.9) rotate(217.9) scale(1.94 0.64)" />
<rect x="11.7" y="35.3" width="49.7" height="35.6" rx="0" fill="hsl(242, 72%, 49%)" fill-opacity="0.80"  filter="url(#f1)" transform="translate(59.5 59.3) rotate(1.0) scale(1.01 1.37)" />
<rect x="54.5" y="16.5" width="45.1" height="34.0" rx="3.5" fill="none" fill-opacity="0.54"   transform="translate(82.3 27.5) rotate(157.9) scale(1.89 1.94)" />
<rect x="42.7" y="63.6" width="48.3" height="27.6" rx="12.1" fill="hsl(86, 72%, 68%)" fill-opacity="0.54" stroke="hsl(83, 65%, 44%)" stroke-width="2.3"  transform="translate(74.5 41.1) rotate(110.7) scale(0.63 1.25)" />
<path d="M 56.9 1.8 C 40.2 8.6, 44.9 51.0, 30.9 53.0 C 19.5 68.0, 24.1 56.0, 29.7 65.3 C 48.1 80.7, 35.7 20.5, 43.8 13.6 C 24.7 12.8, 15.1 76.0, 15.0 73.3 C 0.0 88.8, 24.0 54.3, 35.2 61.4 C 49.2 51.5, 100.0 77.6, 90.3 79.4 C 93.2 85.7, 4.0 48.7, 10.5 46.1 C 1.6 62.3, 73.7 72.8, 87.6 73.2 C 74.8 61.6, 68.1 26.2, 76.2 27.3 C 67.3 25.5, 23.7 32.7, 22.6 46.8 Z" fill="none" fill-opacity="0.62" stroke="hsl(322, 74%, 44%)" stroke-width="4.76"  transform="translate(5.7 51.7) rotate(87.7) scale(0.74 1.74)" />
<circle cx="44.9" cy="81.3" r="11.0" fill="url(#g1)" fill-opacity="0.86"   />
<path d="M 51.5 4.2 C 43.2 5.1, 79.0 62.0, 92.1 67.9 C 100.0 85.9, 65.9 26.7, 76.5 29.0 C 83.9 45.5, 53.6 30.3, 64.3 18.5 C 62.2 1.0, 69.3 88.3, 73.7 89.0 C 64.9 77.4, 50.1 30.4, 53.6 21.6 C 69.9 15.9, 21.8 100.0, 20.5 97.6 C 3.0 94.6, 59.9 9.3, 45.9 22.8 C 37.2 6.9, 83.8 59.4, 80.1 50.4 C 87.3 56.6, 84.4 69.6, 84.3 68.5 Z" fill="hsl(144, 86%, 72%)" fill-opacity="0.59" stroke="none" stroke-width="4.88"  transform="translate(93.0 56.3) rotate(149.3) scale(1.12 1.91)" />
<circle cx="46.2" cy="29.7" r="2.9" fill="url(#g0)" fill-opacity="0.85" filter="url(#f1)" transform="translate(32.3 52.3) rotate(44.6) scale(0.97 0.87)" />
<rect x="55.7" y="41.6" width="22.9" height="32.5" rx="3.2" fill="none" fill-opacity="0.29"   transform="translate(6.7 11.1) rotate(169.8) scale(0.96 1.05)" />
<rect x="60.9" y="37.0" width="23.5" height="30.7" rx="8.3" fill="none" fill-opacity="0.22"   transform="translate(74.7 4.1) rotate(358.3) scale(0.97 1.31)" />
<path d="M 80.2 18.4 C 74.0 1.0, 66.7 86.0, 55.2 76.0 C 57.8 56.4, 44.3 88.5, 53.0 74.2 C 68.3 72.8, 73.7 0.0, 86.9 6.6 C 95.5 7.9, 74.1 30.7, 83.2 33.6 C 67.6 34.2, 62.6 42.6, 53.9 30.4 C 58.4 19.9, 96.7 0.0, 87.2 0.9 C 83.9 4.5, 18.6 19.1, 30.9 5.5 Z" fill="hsl(86, 72%, 68%)" fill-opacity="0.87" stroke="none" stroke-width="2.46"  transform="translate(38.6 8.6) rotate(47.0) scale(1.90 0.97)" />
<rect x="0.1" y="39.7" width="43.2" height="10.7" rx="0" fill="hsl(106, 75%, 59%)" fill-opacity="0.98"   transform="translate(14.5 24.4) rotate(243.6) scale(0.80 1.01)" />
<path d="M 4.7 60.5 C 7.0 74.2, 29.9 2.1, 26.1 5.7 C 14.5 19.0, 34.3 0.0, 26.5 3.1 C 12.8 3.0, 47.8 1.9, 61.8 11.0 C 57.1 6.3, 32.6 20.3, 44.5 17.3 C 28.3 10.6, 75.2 13.7, 62.4 5.4 C 76.8 14.8, 41.2 60.4, 26.7 51.4 C 17.4 51.5, 24.6 66.8, 33.7 56.7 Z" fill="hsl(242, 72%, 49%)" fill-opacity="0.88" stroke="none" stroke-width="1.57"  transform="translate(51.2 25.1) rotate(343.9) scale(1.11 1.36)" />
<path d="M 41.4 41.3 C 23.1 56.1, 64.9 57.6, 60.9 58.9 C 58.8 62.4, 12.1 32.4, 25.4 41.8 C 7.2 57.1, 82.0 41.6, 67.2 36.8 C 60.8 17.1, 68.2 52.1, 82.2 64.6 C 88.3 65.9, 45.3 3.1, 34.0 3.6 C 33.7 10.3, 23.5 4.7, 31.3 2.6 C 41.2 0.0, 31.9 84.1, 19.4 70.4 C 3.8 57.8, 15.8 81.0, 2.5 76.2 Z" fill="none" fill-opacity="0.28" stroke="hsl(106, 75%, 59%)" stroke-width="4.79"  transform="translate(78.9 59.6) rotate(311.3) scale(0.93 1.00)" />
<path d="M 98.4 23.2 C 97.2 17.1, 0.0 19.1, 0.4 10.1 C 3.4 19.8, 76.6 15.4, 71.8 19.7 C 84.2 6.6, 25.3 65.5, 31.3 61.0 C 32.7 43.7, 84.8 93.3, 85.6 91.1 C 66.5 100.0, 0.0 25.3, 8.3 14.3 C 9.8 22.2, 52.3 91.7, 63.3 92.8 C 76.1 100.0, 17.8 23.2, 29.3 25.4 C 9.7 6.5, 22.7 21.2, 24.7 16.3 C 34.1 2.7, 19.5 76.4, 27.3 72.9 C 10.1 74.3, 17.7 71.8, 7.6 77.5 Z" fill="hsl(144, 86%, 72%)" fill-opacity="0.50" stroke="none" stroke-width="1.40"  transform="translate(89.1 80.9) rotate(335.7) scale(1.52 1.05)" />
<path d="M 83.6 8.8 C 76.7 0.0, 65.3 38.3, 73.6 29.9 C 53.8 14.7, 43.3 89.3, 35.2 81.9 C 35.3 82.6, 64.0 95.7, 50.1 81.9 C 43.0 79.8, 57.6 35.5, 60.7 23.6 C 43.6 22.3, 73.6 67.5, 68.2 60.7 C 51.8 79.5, 40.8 0.0, 36.6 3.5 C 32.4 0.0, 12.0 83.3, 12.9 71.8 C 6.1 72.5, 28.4 31.5, 21.2 43.3 Z" fill="hsl(290, 83%, 63%)" fill-opacity="0.29" stroke="none" stroke-width="5.22"  transform="translate(61.9 69.2) rotate(343.6) scale(1.94 0.50)" />
<circle cx="46.3" cy="45.2" r="0.9" fill="url(#g1)" fill-opacity="0.55"  transform="translate(24.6 93.8) rotate(284.8) scale(1.13 1.82)" />
<rect x="7.1" y="48.7" width="20.6" height="21.9" rx="18.7" fill="hsl(322, 74%, 44%)" fill-opacity="0.26" stroke="hsl(183, 71%, 60%)" stroke-width="3.2"  transform="translate(70.2 41.3) rotate(323.1) scale(1.07 1.92)" />
<path d="M 12.4 38.1 C 13.2 54.7, 33.2 60.7, 25.5 53.7 C 22.8 49.7, 88.9 46.2, 74.4 60.0 C 85.2 45.2, 68.3 6.2, 76.3 7.8 C 59.7 23.6, 0.0 27.4, 0.6 39.5 C 0.0 59.5, 90.4 50.1, 89.7 37.4 C 83.4 27.7, 0.6 35.9, 11.7 25.0 Z" fill="none" fill-opacity="0.46" stroke="hsl(322, 74%, 44%)" stroke-width="4.17"  transform="translate(34.5 76.9) rotate(263.7) scale(1.67 1.43)" />
<path d="M 17.9 74.2 C 37.6 80.2, 47.2 82.1, 34.5 95.8 C 38.6 92.2, 98.4 51.8, 83.5 40.2 C 83.4 36.5, 28.5 79.6, 33.7 75.0 C 46.7 77.5, 23.9 57.7, 27.3 47.2 C 39.6 47.6, 88.8 42.4, 85.2 32.7 C 92.5 27.7, 93.1 64.5, 92.6 53.7 C 90.2 64.2, 1.3 9.4, 6.6 1.0 C 0.0 12.3, 86.5 74.7, 86.2 75.5 Z" fill="hsl(86, 72%, 68%)" fill-opacity="0.29" stroke="none" stroke-width="1.71"  transform="translate(88.0 40.6) rotate(197.5) scale(1.66 1.65)" />
<path d="M 27.2 83.4 C 31.9 99.9, 36.1 91.7, 50.6 99.8 C 70.1 88.2, 51.9 62.4, 44.7 63.4 C 47.5 70.7, 49.0 96.7, 41.3 90.4 C 50.7 100.0, 73.0 31.3, 59.2 29.1 C 39.9 43.7, 63.2 83.0, 61.9 77.8 C 64.6 88.9, 14.7 25.1, 22.2 32.9 C 34.1 36.3, 10.3 11.9, 6.4 10.1 C 12.0 7.5, 1.8 35.5, 8.5 42.2 Z" fill="hsl(290, 83%, 63%)" fill-opacity="0.59" stroke="none" stroke-width="3.06"  transform="translate(14.1 26.2) rotate(19.9) scale(1.83 0.78)" />
<path d="M 42.0 74.3 C 60.8 89.5, 71.7 72.4, 78.1 84.5 C 92.9 75.8, 99.2 3.2, 93.2 12.4 C 96.1 0.0, 68.6 80.1, 58.1 90.2 C 56.1 100.0, 13.5 13.3, 7.9 17.1 C 0.0 17.4, 100.0 69.3, 99.0 81.4 C 92.7 85.1, 10.3 71.9, 1.7 81.6 C 0.0 66.8, 74.0 16.3, 67.6 8.8 C 65.7 15.1, 59.0 51.2, 52.9 56.8 C 49.3 70.3, 54.2 85.6, 39.8 93.1 Z" fill="hsl(151, 70%, 62%)" fill-opacity="0.85" stroke="none" stroke-width="1.93"  transform="translate(66.1 12.3) rotate(210.8) scale(0.55 1.75)" />
<circle cx="36.7" cy="22.1" r="0.0" fill="url(#g1)" fill-opacity="1.00"  transform="translate(93.3 11.9) rotate(247.8) scale(1.72 1.26)" />
<path d="M 91.3 55.0 C 97.8 43.1, 66.5 46.8, 65.6 60.6 C 74.9 74.0, 0.0 69.2, 1.4 60.2 C 0.0 73.3, 98.0 37.8, 86.8 35.2 C 100.0 39.1, 35.9 6.6, 23.6 18.7 C 4.6 9.8, 41.1 21.0, 45.2 19.1 C 38.9 15.2, 57.6 32.0, 51.3 23.7 C 33.4 27.1, 64.5 100.0, 62.2 94.9 Z" fill="hsl(151, 70%, 62%)" fill-opacity="0.82" stroke="none" stroke-width="4.18"   />
<circle cx="5.3" cy="23.9" r="1.3" fill="hsl(322, 74%, 44%)" fill-opacity="0.96"  transform="translate(79.1 52.5) rotate(108.9) scale(0.52 1.12)" />
<path d="M 56.8 2.0 C 53.6 12.2, 49.6 100.0, 55.8 91.8 C 62.8 85.0, 25.1 21.9, 30.2 23.6 C 34.8 40.0, 55.1 55.9, 69.7 57.3 C 54.8 67.2, 70.2 48.9, 70.4 52.1 C 79.2 65.0, 13.0 0.0, 3.4 10.4 C 3.8 5.5, 38.1 71.6, 38.2 61.2 Z" fill="hsl(83, 65%, 44%)" fill-opacity="0.52" stroke="none" stroke-width="2.47"  transform="translate(16.7 41.2) rotate(279.2) scale(0.63 1.03)" />
<path d="M 21.8 28.4 C 31.1 22.8, 87.5 46.4, 76.9 35.1 C 76.9 53.8, 31.2 65.6, 37.9 67.1 C 32.7 68.8, 28.1 39.1, 31.3 40.3 C 48.0 40.8, 42.2 71.4, 37.3 60.5 C 44.3 78.0, 56.4 39.7, 69.8 27.3 C 61.2 26.1, 80.1 2.0, 87.0 15.7 C 96.3 25.0, 15.0 89.1, 28.1 76.2 C 10.4 58.2, 56.0 28.3, 53.7 31.7 C 44.4 29.0, 61.2 86.1, 52.2 83.7 Z" fill="hsl(104, 72%, 65%)" fill-opacity="0.71" stroke="none" stroke-width="4.90" filter="url(#f1)" transform="translate(82.0 57.6) rotate(281.8) scale(1.28 1.75)" />
<path d="M 16.8 5.7 C 0.0 0.0, 71.1 0.0, 67.8 0.8 C 55.3 0.0, 74.0 74.0, 75.9 82.7 C 92.2 79.1, 68.5 11.2, 75.7 21.9 C 73.3 2.9, 6.8 77.0, 11.5 66.3 C 22.2 46.6, 78.2 69.8, 88.8 71.0 C 83.6 87.8, 45.6 9.5, 31.1 22.1 C 20.6 36.4, 93.8 45.2, 98.7 54.9 C 100.0 43.3, 66.4 62.1, 65.3 61.0 Z" fill="hsl(40, 53%, 69%)" fill-opacity="0.32" stroke="none" stroke-width="3.49"  transform="translate(27.9 66.3) rotate(74.0) scale(1.98 0.97)" />
<rect x="32.6" y="15.3" width="38.5" height="23.4" rx="0" fill="none" fill-opacity="0.42"   transform="translate(78.5 96.7) rotate(58.9) scale(1.17 0.72)" />
<path d="M 15.9 32.5 C 16.3 19.2, 20.6 0.0, 13.4 1.8 C 13.0 6.5, 7.9 78.9, 17.2 81.1 C 5.4 79.0, 14.6 46.2, 27.1 57.0 C 8.7 63.3, 40.4 57.7, 30.1 51.0 C 11.5 61.4, 61.1 95.3, 70.6 87.9 C 53.8 94.4, 86.1 32.5, 89.4 45.6 C 90.6 30.5, 9.6 15.4, 2.6 13.8 C 11.0 6.6, 96.9 20.2, 89.7 31.0 Z" fill="none" fill-opacity="0.61" stroke="hsl(40, 53%, 69%)" stroke-width="4.30" filter="url(#f1)" transform="translate(36.0 82.7) rotate(80.1) scale(1.47 0.65)" />
<path d="M 57.2 88.7 C 74.3 82.5, 100.0 59.1, 95.6 47.2 C 78.2 57.2, 41.2 18.6, 41.5 14.0 C 38.2 11.1, 49.1 27.4, 44.1 39.9 C 42.0 22.5, 82.0 87.2, 85.9 98.6 C 96.7 100.0, 83.3 91.9, 95.8 78.8 C 100.0 65.4, 73.2 60.7, 84.2 62.9 C 68.0 68.9, 34.7 71.7, 30.9 70.6 C 33.3 74.3, 95.8 7.9, 97.4 16.8 " fill="none" fill-opacity="0.86" stroke="hsl(322, 74%, 44%)" stroke-width="4.52"   />
<rect x="52.3" y="72.9" width="42.1" height="14.0" rx="0" fill="hsl(2, 82%, 55%)" fill-opacity="0.33"   transform="translate(46.2 60.0) rotate(157.2) scale(1.28 0.93)" />
<circle cx="1.1" cy="76.4" r="6.2" fill="url(#g0)" fill-opacity="0.69"  transform="translate(2.3 46.7) rotate(119.3) scale(0.50 1.97)" />
<rect x="2.4" y="30.7" width="46.3" height="19.7" rx="0" fill="hsl(2, 82%, 55%)" fill-opacity="0.63" stroke="hsl(2, 82%, 55%)" stroke-width="1.1"  transform="translate(50.4 53.9) rotate(264.2) scale(0.51 0.89)" />
<path d="M 48.5 27.2 C 60.2 29.9, 21.1 53.6, 34.5 48.4 C 34.3 55.7, 48.7 91.3, 58.5 91.3 C 59.1 74.0, 6.1 36.9, 15.4 24.9 C 5.5 41.7, 28.8 68.9, 25.0 62.2 C 7.3 67.2, 26.1 70.7, 20.4 69.8 C 13.8 88.1, 8.6 25.9, 1.4 25.3 C 0.0 35.4, 100.0 30.7, 99.3 45.3 C 100.0 29.3, 61.9 26.5, 75.1 37.9 C 86.7 38.5, 61.9 60.1, 52.5 61.1 C 69.4 45.4, 66.3 45.2, 67.2 40.3 Z" fill="none" fill-opacity="0.44" stroke="hsl(151, 70%, 62%)" stroke-width="3.36"   />
<rect x="29.9" y="41.3" width="48.1" height="27.5" rx="0" fill="none" fill-opacity="0.20" stroke="hsl(151, 70%, 62%)" stroke-width="3.4"  transform="translate(57.7 70.0) rotate(235.4) scale(1.90 0.81)" />
<path d="M 16.2 33.3 C 2.4 25.2, 43.0 0.0, 41.6 3.0 C 33.7 18.1, 84.7 61.4, 88.6 50.8 C 86.1 47.8, 49.6 52.5, 60.1 66.9 C 40.4 84.3, 86.5 45.0, 82.0 37.3 C 73.9 43.1, 17.7 20.9, 16.1 7.2 C 23.6 26.6, 100.0 68.1, 94.9 74.6 C 87.0 76.2, 16.7 76.2, 31.4 75.1 C 40.4 71.8, 0.0 75.3, 2.1 81.9 C 20.7 93.9, 11.0 88.0, 5.2 92.3 C 0.0 100.0, 46.0 57.8, 53.7 64.5 Z" fill="hsl(183, 71%, 60%)" fill-opacity="0.28" stroke="none" stroke-width="3.61"   />
<path d="M 35.1 11.6 C 51.9 9.8, 15.1 16.3, 1.9 9.0 C 11.9 18.1, 65.5 25.8, 71.1 11.6 C 69.0 1.2, 37.3 0.0, 36.7 2.3 C 28.7 0.0, 2.3 4.9, 11.4 10.4 C 0.0 0.0, 76.4 98.1, 79.1 94.3 C 85.5 100.0, 61.4 61.5, 74.6 62.3 C 93.4 77.3, 70.6 14.0, 67.9 24.3 C 66.4 7.8, 32.3 23.1, 42.2 24.7 C 22.5 24.5, 100.0 51.4, 97.7 56.3 Z" fill="hsl(183, 71%, 60%)" fill-opacity="0.87" stroke="none" stroke-width="1.51"  transform="translate(69.8 13.0) rotate(38.7) scale(1.92 1.09)" />
<rect x="48.8" y="10.6" width="20.4" height="16.3" rx="0" fill="hsl(83, 65%, 44%)" fill-opacity="0.97" stroke="hsl(86, 72%, 68%)" stroke-width="4.4"  transform="translate(20.8 62.4) rotate(322.7) scale(1.36 0.52)" />
<path d="M 39.4 3.6 C 23.8 8.1, 49.6 76.9, 46.3 89.6 C 40.2 86.8, 0.0 82.2, 6.0 68.6 C 9.1 54.5, 32.6 28.3, 46.6 41.6 C 52.8 36.2, 65.8 65.7, 79.6 70.2 C 92.4 68.2, 90.6 71.2, 79.4 62.1 C 65.9 49.8, 48.3 54.3, 61.0 58.3 C 56.8 71.9, 63.4 36.5, 60.2 38.1 Z" fill="hsl(290, 83%, 63%)" fill-opacity="0.63" stroke="none" stroke-width="0.99"  transform="translate(51.1 29.6) rotate(240.2) scale(1.68 0.93)" />
<path d="M 40.5 74.3 C 25.4 89.9, 7.8 62.0, 1.2 54.2 C 0.4 38.6, 73.1 62.4, 60.0 52.4 C 44.9 41.7, 39.9 0.2, 36.6 13.9 C 21.2 30.3, 65.9 66.7, 69.8 54.0 C 54.7 55.3, 35.4 42.5, 44.9 33.4 C 61.0 41.9, 18.4 59.1, 12.9 56.5 Z" fill="none" fill-opacity="0.64" stroke="hsl(86, 72%, 68%)" stroke-width="1.74"  transform="translate(26.4 12.8) rotate(180.6) scale(1.81 0.51)" />
<circle cx="96.6" cy="39.8" r="8.5" fill="hsl(83, 65%, 44%)" fill-opacity="0.88"   />
<path d="M 71.1 76.7 C 65.7 79.0, 66.6 11.0, 53.5 20.2 C 48.8 24.0, 65.4 4.4, 75.3 8.1 C 62.7 22.1, 68.8 54.8, 58.6 64.3 C 56.8 80.1, 19.5 29.4, 13.0 29.5 C 1.1 44.1, 94.4 0.0, 88.0 4.5 C 100.0 10.4, 77.9 17.2, 70.3 20.4 Z" fill="hsl(322, 74%, 44%)" fill-opacity="0.77" stroke="none" stroke-width="4.81"  transform="translate(71.7 43.2) rotate(47.7) scale(1.15 1.35)" />
<path d="M 72.1 66.9 C 67.1 70.7, 0.0 15.7, 5.3 2.8 C 0.0 0.0, 19.3 81.6, 31.5 83.5 C 29.4 93.5, 17.4 61.9, 22.2 57.3 C 26.3 66.0, 57.5 70.3, 67.3 78.2 C 72.5 86.9, 44.0 83.9, 42.6 68.9 C 27.7 78.0, 57.1 100.0, 64.7 93.2 C 44.8 95.4, 94.9 49.8, 81.7 45.3 C 92.4 31.7, 49.8 91.3, 51.4 90.7 C 41.0 85.3, 32.3 69.1, 39.5 62.0 Z" fill="hsl(40, 53%, 69%)" fill-opacity="0.52" stroke="none" stroke-width="3.97"   />
<circle cx="98.5" cy="70.9" r="6.7" fill="url(#g0)" fill-opacity="0.89"  transform="translate(4.3 54.7) rotate(236.0) scale(1.08 1.62)" />
<path d="M 11.2 18.6 C 24.2 22.3, 42.5 19.2, 43.3 18.9 C 46.4 19.5, 64.3 17.2, 76.1 13.4 C 81.3 1.8, 84.5 79.0, 87.0 73.7 C 67.2 56.8, 0.0 39.9, 10.4 33.8 C 0.7 17.7, 47.6 38.9, 40.1 39.6 C 58.3 23.0, 37.6 0.0, 27.3 2.4 C 30.6 0.0, 3.2 44.3, 2.9 42.6 C 0.0 62.4, 59.6 34.4, 65.3 28.4 C 59.8 33.8, 50.1 20.9, 49.5 31.3 C 55.8 20.6, 61.2 60.7, 54.6 67.8 Z" fill="hsl(242, 72%, 49%)" fill-opacity="0.77" stroke="none" stroke-width="1.36"  transform="translate(92.1 81.5) rotate(65.3) scale(0.89 1.92)" />
<path d="M 80.2 47.8 C 73.0 34.7, 19.2 57.1, 26.7 68.4 C 30.8 67.3, 95.9 27.8, 82.3 30.7 C 80.3 38.8, 69.2 24.3, 79.1 16.7 C 96.0 15.8, 89.6 70.0, 76.8 60.4 C 73.7 61.2, 47.9 38.9, 44.6 42.5 C 31.6 54.9, 44.2 52.9, 31.5 63.2 C 21.9 48.6, 58.3 23.6, 68.1 28.1 C 81.2 37.5, 3.6 26.0, 12.8 38.2 Z" fill="none" fill-opacity="0.47" stroke="hsl(104, 72%, 65%)" stroke-width="4.87"  transform="translate(16.9 78.2) rotate(29.3) scale(0.69 1.43)" />
<rect x="30.5" y="33.3" width="26.1" height="37.7" rx="9.2" fill="hsl(183, 71%, 60%)" fill-opacity="0.87" stroke="hsl(242, 72%, 49%)" stroke-width="4.7"  transform="translate(89.3 77.1) rotate(154.3) scale(0.88 1.47)" />
<path d="M 69.9 13.1 C 54.3 0.0, 92.2 22.6, 99.0 35.3 C 90.5 38.8, 85.4 65.3, 89.7 66.1 C 73.7 66.6, 74.0 21.5, 80.6 12.5 C 98.8 27.5, 97.6 78.5, 90.1 63.9 C 74.1 52.3, 100.0 27.3, 97.4 19.1 C 100.0 9.7, 22.1 35.6, 22.2 47.7 Z" fill="none" fill-opacity="0.36" stroke="hsl(83, 65%, 44%)" stroke-width="1.33"  transform="translate(12.9 61.2) rotate(215.3) scale(1.07 1.63)" />
<path d="M 27.6 75.5 C 19.8 91.8, 42.9 42.2, 53.6 29.6 C 46.6 16.6, 27.7 0.0, 35.7 0.1 C 17.9 0.0, 38.6 66.6, 50.9 53.8 C 61.6 49.4, 27.1 24.7, 15.3 23.9 C 11.8 33.3, 71.3 69.0, 70.1 58.6 C 71.3 71.2, 2.3 42.3, 11.2 50.3 C 6.8 33.8, 38.4 91.5, 29.6 77.5 C 45.7 73.2, 24.6 77.5, 13.3 85.6 C 15.7 100.0, 78.4 57.6, 72.6 57.6 C 85.6 72.0, 3.2 54.9, 16.3 66.8 Z" fill="none" fill-opacity="0.54" stroke="hsl(290, 83%, 63%)" stroke-width="4.30"  transform="translate(72.5 61.2) rotate(272.6) scale(1.06 1.41)" />
<rect x="55.0" y="52.1" width="25.3" height="28.9" rx="13.6" fill="none" fill-opacity="0.99"   transform="translate(42.2 52.3) rotate(239.6) scale(0.71 1.33)" />
<circle cx="29.7" cy="14.7" r="2.3" fill="hsl(322, 74%, 44%)" fill-opacity="0.86"  transform="translate(24.3 5.3) rotate(104.0) scale(1.78 1.60)" />
<rect x="29.6" y="32.1" width="43.4" height="29.8" rx="12.8" fill="none" fill-opacity="0.88"   transform="translate(24.9 33.7) rotate(181.3) scale(1.28 1.58)" />
<path d="M 34.2 35.5 C 41.2 31.2, 90.6 35.6, 77.8 43.9 C 74.5 54.7, 100.0 32.2, 99.3 34.8 C 86.9 54.5, 59.3 21.3, 66.2 19.3 C 66.0 2.8, 95.3 96.5, 99.5 95.4 C 98.2 79.4, 53.8 81.6, 59.5 71.4 C 50.2 84.7, 48.1 75.7, 36.9 69.1 C 45.8 71.5, 64.9 19.5, 68.5 33.3 Z" fill="hsl(144, 86%, 72%)" fill-opacity="0.91" stroke="none" stroke-width="3.47" filter="url(#f1)" transform="translate(20.6 24.2) rotate(328.3) scale(1.99 1.15)" />
<circle cx="19.6" cy="4.6" r="3.1" fill="hsl(104, 72%, 65%)" fill-opacity="0.99" filter="url(#f1)" transform="translate(36.9 18.0) rotate(37.0) scale(0.64 0.66)" />
<path d="M 11.0 23.0 C 2.2 7.1, 90.2 62.4, 75.9 58.9 C 80.9 54.4, 43.2 40.4, 37.2 25.6 C 55.8 10.4, 43.6 67.3, 53.7 62.5 C 41.9 62.9, 8.0 86.2, 12.4 72.7 C 6.4 59.7, 86.4 72.3, 93.7 81.2 C 100.0 66.6, 62.4 67.2, 71.6 80.3 C 65.6 63.7, 70.6 44.2, 56.4 49.8 C 74.2 64.0, 26.0 82.0, 25.1 80.6 C 24.0 83.5, 47.0 33.1, 55.9 34.4 Z" fill="hsl(183, 71%, 60%)" fill-opacity="0.39" stroke="none" stroke-width="2.28"   />
<circle cx="5.9" cy="43.2" r="2.6" fill="url(#g1)" fill-opacity="0.81"  transform="translate(88.2 62.7) rotate(198.1) scale(1.10 1.97)" />
<path d="M 86.0 85.8 C 72.4 80.2, 43.5 24.6, 49.2 21.4 C 67.7 25.1, 58.3 31.3, 49.8 27.7 C 38.6 14.1, 37.4 33.0, 39.4 31.6 C 56.2 12.4, 20.1 51.7, 22.3 47.4 C 22.4 51.8, 70.5 15.4, 63.9 4.0 C 80.3 21.8, 61.0 0.0, 59.3 4.9 C 61.1 18.9, 95.0 43.8, 91.5 41.7 C 89.8 60.1, 83.8 28.6, 91.6 28.0 C 72.0 25.2, 24.2 81.2, 26.5 80.4 Z" fill="hsl(144, 86%, 72%)" fill-opacity="0.86" stroke="none" stroke-width="2.54"  transform="translate(56.0 95.4) rotate(171.3) scale(1.59 1.62)" />
<circle cx="14.2" cy="34.1" r="4.9" fill="hsl(242, 72%, 49%)" fill-opacity="0.53"  transform="translate(83.3 49.5) rotate(254.5) scale(0.92 1.72)" />
<circle cx="80.2" cy="22.7" r="1.1" fill="hsl(106, 75%, 59%)" fill-opacity="0.81"  transform="translate(19.4 91.6) rotate(158.3) scale(0.96 1.40)" />
<path d="M 16.4 72.8 C 32.9 60.7, 0.0 15.6, 9.9 2.5 C 13.5 0.0, 49.5 41.0, 42.7 31.6 C 31.8 21.0, 96.9 77.5, 90.3 86.4 C 95.7 73.3, 52.1 45.4, 43.3 44.3 C 58.2 29.5, 7.6 43.2, 10.1 45.5 C 0.0 31.4, 100.0 40.4, 97.2 35.8 C 100.0 19.5, 69.5 65.7, 63.0 64.4 C 62.4 46.3, 0.0 42.8, 2.5 41.0 Z" fill="hsl(106, 75%, 59%)" fill-opacity="0.87" stroke="none" stroke-width="3.68"  transform="translate(82.0 90.9) rotate(179.5) scale(1.46 1.62)" />
<path d="M 93.9 44.0 C 92.6 29.7, 51.5 81.0, 62.5 69.8 C 75.5 87.0, 30.4 50.2, 27.9 42.4 C 25.8 27.6, 49.6 76.2, 40.0 75.8 C 25.0 79.7, 74.9 100.0, 81.3 91.7 C 65.9 96.7, 56.1 21.2, 62.4 20.4 C 43.8 8.9, 100.0 52.1, 96.7 56.8 C 100.0 70.8, 41.5 56.3, 48.9 64.6 Z" fill="hsl(104, 72%, 65%)" fill-opacity="0.53" stroke="none" stroke-width="1.39"  transform="translate(54.3 93.5) rotate(173.2) scale(1.86 1.14)" />
<path d="M 28.5 11.4 C 15.5 2.3, 53.7 48.9, 66.1 35.9 C 48.8 55.4, 24.3 29.8, 23.6 37.5 C 12.8 49.1, 56.4 94.4, 47.9 87.0 C 32.4 100.0, 68.4 86.1, 81.3 71.9 C 89.7 71.3, 59.4 32.5, 62.3 25.9 C 79.7 27.3, 8.5 96.2, 13.8 86.2 C 21.8 70.2, 27.5 73.4, 25.7 79.4 Z" fill="none" fill-opacity="0.47" stroke="hsl(183, 71%, 60%)" stroke-width="3.94"  transform="translate(50.4 32.0) rotate(61.0) scale(1.79 0.86)" />
<circle cx="20.7" cy="39.9" r="3.7" fill="hsl(242, 72%, 49%)" fill-opacity="0.55"   />
<path d="M 31.4 29.2 C 48.2 23.3, 73.3 83.2, 65.7 85.1 C 53.2 86.1, 12.1 21.9, 5.0 21.4 C 3.2 25.2, 73.8 85.7, 61.4 89.1 C 75.6 100.0, 66.1 71.5, 75.2 81.1 C 90.4 75.9, 21.7 77.2, 9.3 91.8 C 0.0 90.6, 57.8 81.7, 52.7 83.3 C 43.0 82.0, 26.3 61.5, 27.1 64.2 C 28.4 82.1, 23.0 40.6, 9.7 30.1 Z" fill="none" fill-opacity="0.44" stroke="hsl(144, 86%, 72%)" stroke-width="4.36"  transform="translate(37.7 89.2) rotate(275.0) scale(1.30 1.06)" />
<path d="M 24.3 50.2 C 32.5 33.6, 87.7 1.0, 89.4 5.8 C 100.0 10.4, 41.2 91.9, 45.7 80.0 C 37.6 89.6, 12.5 79.9, 17.1 90.8 C 14.7 73.2, 64.7 42.3, 50.5 54.9 C 62.0 52.7, 89.0 82.5, 82.1 86.2 C 91.5 96.4, 30.5 89.0, 19.6 87.2 C 17.3 100.0, 11.1 61.7, 22.4 47.6 Z" fill="hsl(106, 75%, 59%)" fill-opacity="0.61" stroke="none" stroke-width="4.33"  transform="translate(17.3 36.6) rotate(335.3) scale(1.60 1.54)" />
<path d="M 65.3 39.6 C 60.2 57.0, 47.0 9.4, 58.2 3.9 C 71.6 11.5, 94.2 69.0, 92.3 75.9 C 100.0 92.0, 70.3 39.7, 82.4 30.4 C 76.6 35.1, 16.9 27.9, 29.3 26.6 C 40.9 32.4, 25.9 75.1, 14.5 67.6 C 12.3 68.3, 56.0 67.0, 53.4 55.3 C 57.2 63.1, 52.1 79.4, 38.1 94.2 C 27.6 75.8, 96.6 63.4, 97.3 68.5 C 100.0 63.9, 53.1 24.2, 57.7 20.1 Z" fill="hsl(104, 72%, 65%)" fill-opacity="0.30" stroke="none" stroke-width="1.29"  transform="translate(90.2 73.4) rotate(37.3) scale(1.21 1.22)" />
<rect x="64.8" y="38.3" width="31.6" height="27.8" rx="7.9" fill="none" fill-opacity="0.56" stroke="hsl(144, 86%, 72%)" stroke-width="4.2"  transform="translate(43.1 86.0) rotate(128.4) scale(1.49 0.53)" />
<path d="M 14.2 6.6 C 8.6 3.0, 67.4 31.2, 63.1 44.8 C 71.9 28.5, 96.5 0.0, 83.5 5.7 C 90.6 0.0, 75.9 13.9, 86.1 11.8 C 97.6 19.4, 59.7 29.4, 73.3 18.1 C 87.9 14.7, 44.6 72.0, 57.5 73.9 C 72.8 80.0, 93.5 54.4, 99.0 50.2 C 98.4 32.4, 39.5 72.5, 31.0 78.7 C 24.3 94.5, 84.8 98.1, 83.9 87.6 C 71.4 94.3, 67.2 100.0, 65.5 99.2 Z" fill="hsl(183, 71%, 60%)" fill-opacity="0.91" stroke="none" stroke-width="2.61"  transform="translate(52.6 70.9) rotate(228.6) scale(1.90 1.29)" />
<path d="M 28.1 53.8 C 38.0 39.6, 42.7 45.3, 38.1 36.6 C 37.2 21.3, 75.9 94.9, 62.2 86.4 C 72.4 94.5, 56.0 84.4, 42.7 92.5 C 31.0 86.0, 11.7 41.0, 15.1 37.3 C 16.3 54.3, 0.0 19.5, 1.9 4.5 C 0.0 0.0, 25.6 35.7, 14.6 41.2 C 12.0 57.2, 16.9 49.5, 16.2 61.8 C 10.6 81.3, 76.6 35.1, 72.8 33.1 C 66.1 47.3, 64.9 58.1, 78.1 72.5 C 88.9 72.0, 16.5 1.9, 28.7 4.6 Z" fill="hsl(151, 70%, 62%)" fill-opacity="0.88" stroke="none" stroke-width="4.22"  transform="translate(12.8 3.6) rotate(20.0) scale(0.55 0.51)" />
<rect x="21.9" y="11.3" width="49.2" height="29.8" rx="10.1" fill="hsl(151, 70%, 62%)" fill-opacity="0.60"   transform="translate(87.3 73.8) rotate(217.7) scale(0.61 0.73)" />
<path d="M 65.5 99.0 C 46.9 86.6, 53.0 59.1, 42.4 68.4 C 49.2 48.6, 99.2 75.5, 96.7 78.0 C 93.7 78.6, 0.9 75.9, 11.5 76.9 C 7.6 94.3, 9.2 40.5, 20.0 26.3 C 8.6 29.4, 74.9 33.8, 88.5 32.8 C 81.8 48.1, 46.8 31.6, 59.0 23.0 C 61.0 39.1, 57.6 67.0, 66.7 80.2 C 68.2 95.5, 37.4 47.8, 25.5 36.2 C 29.9 47.6, 14.6 5.6, 9.3 20.1 Z" fill="none" fill-opacity="0.79" stroke="hsl(83, 65%, 44%)" stroke-width="2.64" filter="url(#f1)" transform="translate(26.5 67.2) rotate(36.5) scale(1.88 0.87)" />
<path d="M 97.1 66.6 C 94.7 54.1, 42.4 75.4, 45.9 78.8 C 34.4 61.7, 66.3 53.9, 63.7 56.0 C 74.4 63.4, 70.4 62.9, 59.6 64.8 C 59.5 63.6, 75.8 34.6, 68.4 39.3 C 54.4 22.6, 83.6 49.1, 80.0 47.5 C 71.1 64.1, 75.0 14.4, 85.2 29.0 C 100.0 31.9, 86.6 28.0, 73.1 42.7 C 68.8 55.9, 7.6 49.1, 8.8 40.3 C 21.2 23.5, 76.9 68.9, 62.3 61.9 Z" fill="hsl(83, 65%, 44%)" fill-opacity="0.67" stroke="none" stroke-width="3.67"  transform="translate(70.6 51.5) rotate(37.1) scale(1.37 1.10)" />
<rect x="64.7" y="72.6" width="21.8" height="26.9" rx="0.5" fill="hsl(322, 74%, 44%)" fill-opacity="0.66"   transform="translate(40.2 25.9) rotate(168.1) scale(1.05 1.85)" />
<rect x="11.9" y="51.5" width="40.0" height="11.0" rx="0" fill="hsl(106, 75%, 59%)" fill-opacity="0.39" stroke="hsl(183, 71%, 60%)" stroke-width="2.1"  transform="translate(90.3 75.2) rotate(131.0) scale(0.93 0.86)" />
<path d="M 14.4 90.1 C 21.2 100.0, 98.1 87.2, 86.1 92.9 C 91.6 100.0, 3.7 72.9, 14.4 86.8 C 2.2 74.4, 43.2 95.6, 36.9 83.6 C 46.0 66.2, 10.0 98.7, 8.7 91.0 C 6.1 100.0, 23.0 44.6, 12.4 52.2 C 9.5 62.2, 28.1 39.0, 25.5 25.3 Z" fill="none" fill-opacity="0.66" stroke="hsl(104, 72%, 65%)" stroke-width="3.83"  transform="translate(66.2 50.3) rotate(294.4) scale(1.26 1.36)" />
<circle cx="99.8" cy="48.1" r="3.1" fill="url(#g0)" fill-opacity="0.88"  transform="translate(3.0 89.4) rotate(185.2) scale(1.37 1.99)" />
<path d="M 33.0 22.7 C 46.2 40.4, 82.0 14.4, 72.9 2.7 C 81.4 0.0, 83.7 81.1, 80.9 80.0 C 77.2 92.9, 30.8 56.7, 33.9 49.9 C 48.9 57.4, 5.6 18.4, 13.5 19.9 C 13.1 39.2, 50.8 86.9, 47.3 89.1 C 39.1 84.5, 31.8 95.9, 36.7 95.2 C 35.2 79.2, 77.0 65.5, 86.1 68.4 C 97.1 79.2, 21.0 92.1, 6.4 87.0 C 12.9 82.8, 53.4 22.6, 45.2 14.6 C 47.9 30.9, 96.7 86.8, 82.0 84.0 Z" fill="none" fill-opacity="0.93" stroke="hsl(242, 72%, 49%)" stroke-width="3.56"  transform="translate(94.0 48.9) rotate(183.4) scale(0.66 1.92)" />
<rect x="50.4" y="46.1" width="42.9" height="16.5" rx="0" fill="hsl(242, 72%, 49%)" fill-opacity="0.26" stroke="hsl(106, 75%, 59%)" stroke-width="2.2"  transform="translate(6.4 78.1) rotate(190.1) scale(0.53 1.80)" />
<circle cx="74.5" cy="19.9" r="8.6" fill="hsl(183, 71%, 60%)" fill-opacity="0.64"  transform="translate(92.4 86.9) rotate(174.2) scale(1.17 0.58)" />
<path d="M 68.8 25.1 C 59.0 18.0, 23.9 21.8, 14.5 27.8 C 0.7 12.9, 74.7 12.9, 65.8 27.1 C 82.1 44.6, 50.9 36.0, 44.2 32.6 C 32.0 17.5, 18.7 65.6, 5.9 79.1 C 7.7 94.1, 7.1 46.9, 4.5 43.3 C 0.0 52.6, 30.0 73.8, 18.9 87.8 Z" fill="none" fill-opacity="0.28" stroke="hsl(322, 74%, 44%)" stroke-width="3.34"  transform="translate(60.0 19.4) rotate(343.4) scale(1.03 0.78)" />
<rect x="29.9" y="9.6" width="32.5" height="22.9" rx="0" fill="hsl(183, 71%, 60%)" fill-opacity="0.97"  filter="url(#f1)" transform="translate(97.0 57.0) rotate(337.3) scale(1.88 0.68)" />
<path d="M 74.5 32.5 C 67.3 38.2, 17.1 56.4, 6.7 51.5 C 18.8 37.5, 64.8 38.6, 69.7 38.4 C 55.2 57.5, 51.0 23.8, 46.8 35.9 C 48.0 24.5, 21.9 7.5, 31.3 14.6 C 26.0 3.9, 90.3 95.3, 92.6 97.1 C 100.0 100.0, 48.8 31.5, 50.9 20.0 Z" fill="hsl(40, 53%, 69%)" fill-opacity="0.95" stroke="none" stroke-width="1.64"   />
<path d="M 64.5 18.1 C 49.0 20.7, 35.9 26.6, 41.8 15.1 C 25.6 7.9, 83.1 100.0, 90.9 97.4 C 83.4 79.1, 0.0 76.2, 10.5 89.0 C 30.4 78.1, 0.8 66.0, 7.2 63.7 C 1.8 44.6, 4.1 39.7, 12.4 53.0 C 0.0 60.7, 29.9 53.5, 41.8 50.4 C 30.9 63.9, 72.0 24.7, 81.4 30.8 C 88.5 11.6, 75.8 26.7, 77.9 14.9 C 67.1 0.0, 83.9 75.7, 76.5 75.4 Z" fill="none" fill-opacity="0.58" stroke="hsl(144, 86%, 72%)" stroke-width="4.41"  transform="translate(85.5 67.1) rotate(225.6) scale(1.44 1.87)" />
<rect x="36.7" y="15.4" width="39.0" height="14.6" rx="9.5" fill="none" fill-opacity="0.23"    />
<circle cx="36.6" cy="99.3" r="10.8" fill="url(#g0)" fill-opacity="0.90"  transform="translate(81.8 64.0) rotate(297.3) scale(0.70 1.40)" />
<circle cx="83.8" cy="60.7" r="7.9" fill="url(#g0)" fill-opacity="0.78"  transform="translate(59.5 67.5) rotate(45.5) scale(1.66 1.38)" />
<path d="M 18.4 32.4 C 17.5 37.7, 44.2 30.8, 42.5 33.8 C 62.3 41.3, 97.5 79.8, 89.7 76.9 C 76.9 58.6, 65.6 100.0, 74.0 99.6 C 56.5 99.9, 86.3 86.4, 75.3 98.1 C 92.1 100.0, 54.7 4.3, 56.1 17.1 C 70.6 11.5, 28.9 11.0, 21.3 16.4 C 37.6 0.0, 22.9 0.0, 13.1 2.1 C 24.2 0.0, 11.6 59.2, 5.2 47.9 C 13.8 30.0, 70.0 2.4, 78.0 8.8 Z" fill="none" fill-opacity="0.65" stroke="hsl(242, 72%, 49%)" stroke-width="2.34"  transform="translate(71.2 25.2) rotate(114.8) scale(0.86 0.94)" />
<path d="M 16.8 66.4 C 1.9 58.4, 79.0 93.9, 67.5 91.5 C 73.7 88.2, 79.5 40.6, 82.4 34.2 C 74.4 24.4, 100.0 24.5, 93.0 38.2 C 100.0 37.1, 82.4 77.0, 79.5 69.4 C 84.2 87.7, 7.7 63.0, 20.6 65.7 C 30.9 67.6, 72.7 32.2, 84.9 39.2 C 68.0 54.0, 70.0 73.7, 60.2 63.1 C 59.8 49.3, 27.1 98.9, 12.2 88.3 C 1.0 77.1, 66.6 17.8, 71.1 27.0 Z" fill="none" fill-opacity="0.29" stroke="hsl(242, 72%, 49%)" stroke-width="3.38"  transform="translate(1.5 35.8) rotate(246.1) scale(1.06 0.87)" />
<path d="M 0.4 30.9 C 17.2 31.9, 72.9 8.9, 59.5 17.0 C 64.5 36.8, 52.0 5.3, 58.1 17.0 C 43.3 6.4, 82.6 56.3, 71.1 44.7 C 80.7 52.5, 57.6 91.6, 44.3 81.2 C 54.0 72.1, 80.3 15.3, 92.8 10.6 C 82.0 25.2, 29.5 38.5, 31.9 36.7 C 38.9 35.4, 100.0 22.9, 98.5 10.7 C 90.0 21.8, 1.1 27.1, 6.2 23.1 C 14.0 32.7, 58.4 43.1, 67.4 34.1 C 85.6 31.9, 57.6 12.1, 62.3 4.3 Z" fill="hsl(144, 86%, 72%)" fill-opacity="0.81" stroke="none" stroke-width="1.12"  transform="translate(68.4 84.6) rotate(269.1) scale(0.97 0.67)" />
<path d="M 19.3 29.3 C 16.6 46.7, 8.1 56.7, 10.1 52.1 C 21.2 64.6, 26.6 82.2, 13.4 67.5 C 17.4 86.7, 29.0 47.2, 26.5 35.7 C 16.0 35.9, 45.1 36.9, 54.1 42.9 C 39.0 55.1, 42.6 0.0, 43.2 0.0 C 32.3 0.0, 44.7 0.0, 48.6 2.2 C 58.6 0.0, 23.9 83.2, 34.0 76.3 C 29.0 75.0, 72.4 49.7, 75.3 37.9 C 83.4 21.3, 9.8 25.2, 7.2 32.0 C 3.9 21.8, 46.2 41.6, 45.9 30.2 " fill="hsl(2, 82%, 55%)" fill-opacity="0.28" stroke="none" stroke-width="5.01"   />
<circle cx="89.1" cy="28.6" r="4.0" fill="url(#g1)" fill-opacity="0.83"  transform="translate(13.1 24.3) rotate(296.6) scale(1.40 1.07)" />
<path d="M 28.6 48.4 C 29.2 51.9, 61.5 39.2, 50.1 52.6 C 55.3 72.3, 100.0 83.6, 96.5 73.2 C 100.0 92.8, 62.9 95.4, 64.6 90.7 C 62.1 71.9, 33.2 40.9, 25.1 30.1 C 35.2 39.0, 12.0 56.2, 16.2 43.8 C 24.3 53.3, 64.4 40.5, 50.3 46.5 C 67.7 33.2, 31.2 32.4, 29.4 46.5 C 45.6 61.4, 16.6 36.4, 26.6 30.3 C 32.0 12.3, 96.6 15.4, 88.2 4.6 C 94.8 17.1, 9.4 40.9, 8.8 41.3 Z" fill="hsl(183, 71%, 60%)" fill-opacity="0.55" stroke="none" stroke-width="2.36"  transform="translate(58.4 2.8) rotate(226.3) scale(1.30 1.58)" />
<path d="M 83.9 77.9 C 90.9 96.4, 70.9 54.9, 85.4 41.6 C 99.5 59.2, 29.2 31.6, 31.3 46.4 C 50.0 39.0, 31.9 31.5, 24.1 37.3 C 10.9 33.0, 12.4 9.1, 14.0 9.9 C 23.8 7.9, 23.4 10.8, 32.2 23.8 C 32.5 30.3, 87.8 67.9, 87.8 60.0 Z" fill="none" fill-opacity="0.82" stroke="hsl(144, 86%, 72%)" stroke-width="1.76"  transform="translate(74.7 33.2) rotate(207.2) scale(0.86 0.84)" />
<rect x="59.0" y="54.2" width="28.6" height="35.3" rx="1.7" fill="hsl(86, 72%, 68%)" fill-opacity="0.71"  filter="url(#f1)" transform="translate(96.6 32.0) rotate(313.1) scale(1.25 1.86)" />
<path d="M 3.0 60.2 C 9.2 48.9, 34.2 1.6, 27.6 3.5 C 26.1 1.6, 92.4 85.3, 79.5 91.9 C 75.3 96.6, 15.6 4.3, 15.6 15.5 C 9.9 31.4, 68.1 14.7, 81.3 15.3 C 75.6 2.7, 86.2 23.2, 76.1 12.2 C 58.5 17.6, 19.7 85.3, 7.4 85.1 C 3.8 78.7, 100.0 25.2, 87.8 31.2 C 99.0 41.9, 62.5 82.3, 54.1 90.1 Z" fill="hsl(290, 83%, 63%)" fill-opacity="0.86" stroke="none" stroke-width="1.89"  transform="translate(29.0 2.4) rotate(231.8) scale(0.60 0.63)" />
<path d="M 26.4 35.9 C 22.2 49.7, 4.2 37.1, 16.6 33.9 C 19.1 46.1, 16.1 27.5, 25.4 29.8 C 6.4 27.6, 34.1 87.3, 36.6 90.1 C 24.5 100.0, 82.3 73.9, 88.7 64.7 C 73.0 55.6, 66.8 45.0, 54.4 50.7 C 49.9 62.8, 60.0 21.1, 53.2 21.7 Z" fill="hsl(104, 72%, 65%)" fill-opacity="0.48" stroke="none" stroke-width="1.81"  transform="translate(89.2 76.5) rotate(240.2) scale(1.76 1.09)" />
<path d="M 65.8 43.1 C 47.9 50.7, 14.9 28.9, 14.4 20.5 C 25.7 9.1, 12.6 100.0, 26.9 97.0 C 14.8 100.0, 36.3 28.1, 37.2 21.6 C 29.5 32.8, 19.2 79.7, 11.7 68.5 C 0.0 78.0, 73.3 34.9, 79.5 48.9 C 75.0 53.9, 46.4 100.0, 59.4 97.4 C 69.2 89.5, 5.9 90.5, 1.5 89.0 C 0.0 100.0, 26.4 53.5, 40.2 68.2 Z" fill="hsl(183, 71%, 60%)" fill-opacity="0.29" stroke="none" stroke-width="4.68"  transform="translate(92.0 44.6) rotate(224.3) scale(1.66 1.87)" />
<path d="M 91.1 45.3 C 100.0 62.0, 100.0 11.2, 87.8 22.0 C 76.9 15.2, 100.0 34.4, 87.8 21.5 C 77.1 3.1, 30.7 0.0, 29.6 11.1 C 49.3 24.1, 73.4 66.6, 69.8 55.7 C 63.0 36.0, 14.4 64.0, 4.7 59.3 C 12.6 39.6, 70.9 77.3, 60.1 79.0 C 66.2 86.4, 20.1 80.4, 25.9 90.9 Z" fill="none" fill-opacity="0.90" stroke="hsl(104, 72%, 65%)" stroke-width="1.69"  transform="translate(91.3 4.2) rotate(212.8) scale(1.12 1.86)" />
<path d="M 5.2 83.7 C 0.0 76.5, 52.5 70.9, 63.2 85.5 C 70.8 67.2, 16.9 88.7, 14.4 96.2 C 17.7 100.0, 70.3 17.2, 75.2 13.0 C 86.6 32.0, 77.1 40.7, 72.5 37.1 C 58.1 43.5, 34.8 45.6, 45.9 42.2 C 30.4 32.6, 33.3 100.0, 29.5 96.5 Z" fill="none" fill-opacity="0.26" stroke="hsl(40, 53%, 69%)" stroke-width="2.00"  transform="translate(27.6 39.9) rotate(150.0) scale(1.01 1.44)" />
<circle cx="99.4" cy="38.4" r="10.1" fill="hsl(290, 83%, 63%)" fill-opacity="0.65"  transform="translate(47.3 60.3) rotate(267.4) scale(1.40 1.64)" />
<path d="M 87.9 62.3 C 82.0 73.7, 47.4 59.9, 43.0 46.1 C 42.2 29.7, 78.7 37.5, 88.5 23.4 C 94.9 41.5, 93.3 5.9, 98.4 18.1 C 81.0 37.8, 79.1 9.7, 64.8 22.7 C 47.5 19.6, 51.7 61.9, 60.7 47.5 C 61.0 48.2, 85.8 21.1, 76.6 15.4 Z" fill="hsl(40, 53%, 69%)" fill-opacity="0.84" stroke="none" stroke-width="1.08"  transform="translate(70.4 12.2) rotate(127.1) scale(0.74 0.89)" />
<path d="M 20.6 42.5 C 6.6 31.9, 16.0 35.3, 10.1 49.6 C 11.5 54.0, 72.1 100.0, 80.3 88.9 C 63.2 79.3, 100.0 81.9, 92.4 85.4 C 100.0 85.3, 22.6 95.5, 31.4 91.9 C 37.4 100.0, 57.3 97.7, 60.3 88.3 C 53.4 73.2, 12.4 8.6, 4.8 12.8 Z" fill="none" fill-opacity="0.78" stroke="hsl(242, 72%, 49%)" stroke-width="4.11"  transform="translate(27.3 22.0) rotate(234.1) scale(0.99 1.72)" />
<path d="M 92.0 91.2 C 93.6 75.4, 79.8 13.7, 68.6 12.8 C 54.7 31.1, 24.8 74.3, 37.6 68.9 C 56.8 82.9, 11.6 96.9, 17.4 84.7 C 35.4 99.9, 57.0 44.0, 68.2 56.3 C 55.6 71.2, 19.3 80.3, 9.7 79.8 C 9.0 60.7, 82.4 49.2, 83.8 49.6 Z" fill="hsl(83, 65%, 44%)" fill-opacity="0.93" stroke="none" stroke-width="4.46"  transform="translate(97.8 42.2) rotate(78.4) scale(1.64 1.61)" />
<circle cx="57.7" cy="41.2" r="10.3" fill="hsl(151, 70%, 62%)" fill-opacity="0.62"  transform="translate(2.6 87.0) rotate(237.9) scale(0.93 1.13)" />
<path d="M 75.4 62.0 C 81.3 55.0, 43.6 51.0, 39.9 45.8 C 33.3 28.9, 60.9 69.3, 48.1 72.5 C 57.6 65.5, 58.2 42.5, 65.0 37.6 C 54.8 39.0, 66.8 2.0, 67.4 11.7 C 49.8 27.3, 79.4 88.8, 84.0 93.5 C 96.8 100.0, 18.8 1.4, 20.7 0.0 C 20.5 12.1, 51.4 8.5, 43.6 14.7 Z" fill="hsl(40, 53%, 69%)" fill-opacity="0.55" stroke="none" stroke-width="5.08" filter="url(#f1)" transform="translate(80.2 44.7) rotate(221.7) scale(1.52 1.42)" />
<rect x="4.3" y="42.4" width="30.9" height="37.3" rx="0" fill="hsl(144, 86%, 72%)" fill-opacity="0.35"   transform="translate(52.0 15.5) rotate(74.7) scale(0.61 1.99)" />
<path d="M 34.4 68.6 C 49.5 82.1, 24.2 17.6, 12.6 23.1 C 29.8 25.7, 11.3 83.6, 13.3 95.5 C 11.7 100.0, 85.9 39.6, 76.5 36.7 C 61.5 33.7, 57.2 91.6, 71.5 95.7 C 73.8 100.0, 69.9 71.2, 82.5 85.2 C 69.5 66.6, 72.1 21.4, 85.1 35.5 C 95.0 32.9, 73.5 90.2, 71.1 81.5 C 85.9 64.3, 66.7 34.9, 53.5 49.7 C 58.8 36.3, 69.1 35.4, 71.8 47.6 Z" fill="none" fill-opacity="0.58" stroke="hsl(106, 75%, 59%)" stroke-width="5.02"  transform="translate(44.1 87.1) rotate(248.1) scale(1.50 1.74)" />
<path d="M 86.9 59.9 C 82.3 61.3, 100.0 89.9, 98.8 96.8 C 100.0 100.0, 35.8 43.5, 42.6 31.3 C 49.9 30.9, 11.1 83.0, 8.7 86.3 C 8.1 80.1, 22.3 20.6, 15.2 35.1 C 6.5 46.0, 34.0 64.5, 42.0 54.7 C 44.0 65.2, 38.2 15.5, 41.0 15.6 C 47.4 8.6, 16.6 0.0, 20.7 11.6 C 23.9 29.2, 70.4 30.9, 84.6 43.1 C 100.0 37.4, 15.8 59.0, 20.1 52.9 C 33.3 37.4, 5.6 34.5, 14.0 25.5 Z" fill="none" fill-opacity="0.89" stroke="hsl(83, 65%, 44%)" stroke-width="3.54"  transform="translate(19.4 55.6) rotate(297.4) scale(0.97 1.04)" />
<rect x="34.4" y="56.4" width="21.8" height="39.7" rx="0" fill="none" fill-opacity="0.44"   transform="translate(54.0 18.5) rotate(146.1) scale(0.77 1.97)" />
<path d="M 31.6 95.2 C 50.4 100.0, 48.4 54.2, 60.5 52.3 C 74.6 52.1, 70.5 9.7, 60.2 24.1 C 68.1 6.0, 100.0 9.0, 95.3 14.0 C 86.4 26.2, 89.7 2.6, 92.5 4.5 C 92.0 6.4, 43.1 80.9, 55.0 74.5 C 52.6 86.9, 34.7 80.0, 33.4 69.1 Z" fill="hsl(2, 82%, 55%)" fill-opacity="0.85" stroke="none" stroke-width="2.16"  transform="translate(7.2 72.3) rotate(113.8) scale(1.62 0.54)" />
<rect x="57.5" y="54.7" width="29.7" height="30.4" rx="0" fill="hsl(151, 70%, 62%)" fill-opacity="0.48" stroke="hsl(104, 72%, 65%)" stroke-width="4.1"  transform="translate(89.6 61.2) rotate(302.7) scale(1.28 0.54)" />
<path d="M 45.0 1.1 C 52.0 18.0, 100.0 59.6, 86.5 64.1 C 95.6 48.7, 54.5 100.0, 44.6 99.7 C 55.5 83.4, 12.3 88.0, 14.6 80.9 C 31.6 76.3, 85.7 90.1, 86.9 88.8 C 98.2 76.7, 95.3 22.3, 86.2 23.4 C 99.9 28.3, 14.5 54.9, 6.1 59.9 Z" fill="hsl(104, 72%, 65%)" fill-opacity="0.47" stroke="none" stroke-width="4.95"  transform="translate(19.7 59.5) rotate(164.6) scale(0.65 1.44)" />
<path d="M 25.6 76.2 C 19.4 70.7, 39.5 86.2, 25.5 91.6 C 6.2 76.8, 100.0 19.9, 94.2 34.2 C 95.6 36.2, 5.3 27.5, 14.5 35.9 C 4.5 46.2, 56.7 13.9, 62.3 26.3 C 53.5 18.5, 30.5 30.4, 18.2 16.4 C 27.9 22.4, 5.1 40.0, 8.3 36.9 C 0.0 23.8, 34.0 31.4, 42.8 28.3 C 55.1 14.1, 84.9 99.0, 97.1 91.0 C 100.0 97.4, 87.8 63.8, 73.0 55.3 C 88.3 39.8, 35.8 56.7, 33.4 65.8 Z" fill="hsl(144, 86%, 72%)" fill-opacity="0.85" stroke="none" stroke-width="1.17"  transform="translate(39.3 18.3) rotate(45.0) scale(1.07 0.98)" />
<path d="M 82.0 50.6 C 100.0 40.7, 21.6 100.0, 8.6 99.8 C 27.4 100.0, 63.6 59.5, 52.2 53.9 C 63.5 44.8, 84.0 82.0, 95.4 80.6 C 100.0 96.8, 98.9 25.6, 91.5 39.2 C 94.8 38.3, 18.5 37.9, 25.8 35.3 C 45.0 38.0, 92.1 92.2, 84.6 79.1 C 65.6 75.6, 52.7 75.5, 40.9 83.8 " fill="none" fill-opacity="0.89" stroke="hsl(40, 53%, 69%)" stroke-width="4.40"  transform="translate(17.1 6.5) rotate(146.0) scale(1.66 1.55)" />
<rect x="17.9" y="2.1" width="39.5" height="10.3" rx="0" fill="hsl(183, 71%, 60%)" fill-opacity="0.53"   transform="translate(85.8 99.4) rotate(19.7) scale(0.75 0.80)" />
<path d="M 68.2 14.7 C 76.0 0.0, 52.6 61.1, 55.0 75.5 C 42.1 89.1, 25.5 100.0, 19.6 95.0 C 24.9 100.0, 80.1 82.8, 67.5 78.2 C 74.1 77.8, 45.4 8.8, 52.8 19.6 C 45.9 20.1, 86.2 6.6, 99.6 8.0 C 100.0 3.7, 85.1 60.0, 72.9 45.7 Z" fill="hsl(86, 72%, 68%)" fill-opacity="0.98" stroke="none" stroke-width="4.35"  transform="translate(1.7 91.9) rotate(205.0) scale(0.59 1.67)" />
<path d="M 23.2 44.8 C 17.2 37.6, 87.4 0.0, 78.0 11.6 C 71.0 5.2, 21.9 26.1, 28.5 32.6 C 11.9 46.2, 57.3 95.0, 49.9 86.2 C 59.9 76.5, 49.6 53.3, 34.6 48.6 C 49.2 36.3, 29.5 47.6, 28.8 46.3 C 42.3 34.9, 96.9 4.1, 98.8 13.3 Z" fill="none" fill-opacity="0.88" stroke="hsl(151, 70%, 62%)" stroke-width="2.34"  transform="translate(96.3 79.6) rotate(269.9) scale(1.03 1.34)" />
<path d="M 41.8 37.4 C 49.7 37.8, 5.0 65.0, 9.5 56.4 C 0.0 39.3, 24.0 12.7, 14.5 20.5 C 0.0 8.2, 33.5 21.9, 35.2 23.9 C 23.9 14.7, 42.9 37.9, 48.1 49.0 C 54.6 55.4, 85.5 38.2, 96.7 47.4 C 100.0 57.5, 17.9 78.1, 9.3 84.5 C 0.0 99.8, 94.4 0.0, 97.7 10.5 C 100.0 0.0, 84.0 19.2, 70.0 15.0 C 78.6 1.0, 55.8 80.4, 47.1 84.5 C 34.1 100.0, 100.0 48.4, 94.0 47.0 Z" fill="none" fill-opacity="0.48" stroke="hsl(183, 71%, 60%)" stroke-width="0.91"  transform="translate(16.6 60.6) rotate(359.6) scale(0.79 2.00)" />
<path d="M 94.3 8.7 C 100.0 0.0, 90.6 71.6, 95.4 63.6 C 83.3 74.6, 38.2 91.1, 44.7 86.5 C 52.5 66.9, 19.9 80.1, 14.0 68.1 C 23.3 59.7, 67.5 8.7, 78.1 16.0 C 67.3 7.7, 77.4 50.6, 87.4 41.6 C 99.7 24.8, 38.2 77.4, 45.8 71.7 C 32.1 87.1, 100.0 21.0, 95.5 17.8 Z" fill="hsl(104, 72%, 65%)" fill-opacity="0.91" stroke="none" stroke-width="1.76"  transform="translate(96.9 15.0) rotate(179.4) scale(1.81 0.62)" />
<circle cx="63.3" cy="50.2" r="16.6" fill="url(#g1)" fill-opacity="0.91"  transform="translate(11.2 97.2) rotate(123.4) scale(0.66 1.23)" />
<path d="M 21.6 40.0 C 23.4 24.1, 79.0 65.2, 91.7 67.8 C 96.5 72.2, 18.6 11.6, 17.6 0.0 C 33.4 0.0, 54.3 27.3, 60.5 18.7 C 79.0 13.5, 79.7 28.9, 89.8 30.8 C 96.2 37.9, 55.6 18.0, 44.5 18.6 C 34.0 18.0, 91.1 1.9, 95.3 10.0 C 100.0 6.5, 0.0 84.1, 10.9 97.9 C 9.7 79.7, 73.7 77.8, 82.7 78.5 C 97.5 67.7, 55.2 6.6, 42.5 0.9 C 28.0 10.2, 75.8 20.3, 77.5 27.9 Z" fill="hsl(83, 65%, 44%)" fill-opacity="0.40" stroke="none" stroke-width="0.97"  transform="translate(53.9 36.4) rotate(103.3) scale(1.59 1.26)" />
<path d="M 65.0 80.4 C 68.5 69.7, 3.7 32.6, 14.0 37.5 C 0.0 41.1, 46.7 55.5, 61.3 49.8 C 60.9 35.1, 66.8 23.6, 68.0 26.9 C 48.9 33.9, 20.7 39.0, 27.7 38.4 C 15.5 34.6, 14.5 58.1, 6.3 48.8 C 8.4 59.8, 82.9 7.8, 84.7 0.6 C 94.8 10.8, 31.8 26.5, 29.3 30.4 C 35.3 31.7, 0.0 75.8, 6.6 72.4 Z" fill="hsl(322, 74%, 44%)" fill-opacity="0.34" stroke="none" stroke-width="1.78"  transform="translate(67.7 83.0) rotate(291.5) scale(0.94 1.36)" />
<path d="M 85.7 67.9 C 70.9 70.9, 60.6 33.4, 62.5 38.2 C 81.1 18.6, 84.3 57.8, 92.0 69.6 C 81.6 51.6, 0.0 52.3, 5.9 55.0 C 8.9 68.4, 60.6 75.9, 61.4 76.8 C 78.5 75.5, 67.3 40.5, 68.4 37.9 C 63.0 19.1, 41.6 94.9, 33.3 91.3 C 46.0 80.5, 43.6 53.9, 54.5 51.8 C 55.9 61.7, 24.3 36.9, 11.9 22.3 C 0.0 15.3, 36.2 34.0, 36.0 46.1 C 39.0 36.0, 53.4 9.6, 55.0 19.8 " fill="none" fill-opacity="0.86" stroke="hsl(242, 72%, 49%)" stroke-width="1.28"  transform="translate(90.1 32.2) rotate(280.7) scale(0.92 1.83)" />
<path d="M 70.6 9.4 C 89.4 23.9, 0.0 36.2, 1.2 45.4 C 1.2 53.0, 58.2 47.6, 56.9 51.6 C 43.6 45.5, 75.3 39.6, 84.2 35.7 C 78.1 46.7, 23.4 80.9, 38.0 93.8 C 56.6 100.0, 0.3 68.6, 11.3 57.6 C 14.4 37.8, 60.1 83.1, 46.8 94.2 C 58.8 93.3, 41.5 15.0, 47.0 21.6 C 51.3 7.2, 41.3 78.1, 38.6 66.0 C 28.5 65.6, 96.3 17.5, 81.4 19.0 C 66.5 36.8, 94.6 52.6, 84.5 60.9 Z" fill="hsl(322, 74%, 44%)" fill-opacity="0.30" stroke="none" stroke-width="1.71" filter="url(#f1)" transform="translate(94.4 84.9) rotate(63.7) scale(1.23 1.56)" />
<path d="M 84.5 26.0 C 83.1 36.7, 22.7 51.7, 19.4 50.4 C 0.0 60.2, 20.9 32.8, 29.7 41.5 C 13.1 30.2, 6.1 85.1, 10.0 97.1 C 3.8 81.8, 28.2 82.9, 14.3 86.6 C 23.9 84.5, 91.9 47.4, 94.9 58.4 C 78.0 63.1, 50.2 68.6, 37.5 80.3 C 22.4 67.0, 98.7 89.4, 95.8 83.2 Z" fill="hsl(106, 75%, 59%)" fill-opacity="0.53" stroke="none" stroke-width="3.50"  transform="translate(50.3 83.3) rotate(268.4) scale(1.11 1.97)" />
<path d="M 0.4 65.5 C 4.8 77.0, 100.0 80.9, 91.1 89.8 C 94.8 76.6, 28.0 62.3, 18.9 53.9 C 24.0 40.5, 73.2 64.1, 81.9 65.9 C 62.5 66.6, 0.0 94.0, 5.6 83.7 C 12.6 72.6, 30.0 79.7, 43.0 90.3 C 56.7 83.4, 57.8 89.1, 55.9 98.9 C 75.6 100.0, 86.8 100.0, 81.5 96.4 C 98.8 100.0, 59.4 0.7, 45.3 8.6 C 58.0 0.0, 9.9 100.0, 3.4 95.0 C 6.2 100.0, 59.0 57.3, 53.2 43.4 Z" fill="hsl(2, 82%, 55%)" fill-opacity="0.62" stroke="none" stroke-width="2.22"  transform="translate(89.7 97.2) rotate(271.1) scale(1.64 1.69)" />
<path d="M 18.3 99.2 C 0.0 94.4, 50.8 44.1, 45.0 52.7 C 42.5 70.6, 85.0 38.8, 85.4 36.9 C 100.0 31.6, 24.9 60.1, 26.5 74.3 C 39.1 57.2, 8.5 0.0, 8.8 3.8 C 8.2 0.2, 71.7 26.7, 67.1 30.1 C 72.9 16.3, 73.7 34.5, 67.6 45.5 C 83.2 34.7, 73.8 92.1, 84.2 86.5 C 100.0 87.6, 63.2 63.8, 62.6 57.9 " fill="none" fill-opacity="0.72" stroke="hsl(83, 65%, 44%)" stroke-width="3.59"   />
<circle cx="52.8" cy="65.4" r="2.8" fill="url(#g1)" fill-opacity="0.63"  transform="translate(33.4 16.5) rotate(218.9) scale(1.03 1.67)" />
<rect x="6.9" y="23.4" width="46.1" height="26.1" rx="8.3" fill="none" fill-opacity="0.58" stroke="hsl(183, 71%, 60%)" stroke-width="3.2"  transform="translate(7.2 3.4) rotate(281.0) scale(1.00 1.29)" />
<path d="M 23.8 33.7 C 20.2 27.9, 100.0 60.9, 89.1 49.7 C 74.5 48.4, 3.0 66.9, 12.6 52.9 C 0.5 57.3, 16.4 80.0, 4.7 92.1 C 6.8 82.1, 40.8 0.0, 48.9 10.6 C 63.1 0.0, 49.4 4.4, 35.1 14.8 C 53.3 8.4, 100.0 37.7, 99.0 33.8 C 90.7 52.1, 31.9 12.4, 46.4 10.3 C 45.1 16.1, 71.9 35.5, 66.8 49.2 " fill="none" fill-opacity="0.85" stroke="hsl(2, 82%, 55%)" stroke-width="4.76"  transform="translate(88.5 8.8) rotate(114.7) scale(0.52 1.49)" />
<path d="M 57.5 60.1 C 76.3 73.9, 57.9 46.2, 56.1 33.4 C 36.4 45.4, 85.8 0.0, 91.8 0.3 C 77.1 0.0, 100.0 17.8, 92.4 13.8 C 96.3 1.4, 72.5 3.6, 81.9 14.1 C 62.0 24.2, 43.6 25.4, 34.9 28.4 C 34.9 18.5, 64.2 98.9, 53.6 93.1 " fill="hsl(151, 70%, 62%)" fill-opacity="0.57" stroke="none" stroke-width="3.40" filter="url(#f1)" transform="translate(45.3 96.6) rotate(41.7) scale(1.33 1.04)" />
<path d="M 40.1 37.6 C 35.7 39.6, 17.9 32.4, 20.6 18.1 C 5.8 5.9, 78.5 68.6, 80.3 69.4 C 80.9 72.0, 31.9 32.6, 18.3 20.2 C 33.1 37.4, 55.7 65.2, 50.7 67.6 C 43.5 69.5, 47.5 73.6, 36.8 81.2 C 51.3 62.6, 99.4 48.5, 88.2 60.4 C 77.9 44.0, 11.5 21.6, 11.4 11.4 Z" fill="hsl(290, 83%, 63%)" fill-opacity="0.38" stroke="none" stroke-width="0.80"  transform="translate(20.0 99.6) rotate(356.6) scale(1.08 1.21)" />
<path d="M 17.5 67.8 C 37.3 48.2, 26.2 0.0, 31.4 3.9 C 30.8 17.2, 12.0 81.5, 22.1 71.3 C 17.0 84.0, 61.2 26.9, 53.5 13.6 C 38.1 9.8, 89.4 34.4, 96.2 44.8 C 82.9 41.2, 14.5 61.7, 29.2 64.4 C 22.1 60.9, 56.7 97.1, 63.2 96.8 C 79.9 100.0, 33.0 17.6, 23.4 12.8 C 31.9 3.0, 40.5 66.2, 47.8 79.2 C 58.3 94.5, 90.6 62.7, 94.1 68.4 C 100.0 66.3, 40.0 66.2, 33.2 51.4 Z" fill="hsl(83, 65%, 44%)" fill-opacity="0.73" stroke="none" stroke-width="2.49"   />
<path d="M 9.5 71.3 C 18.2 69.6, 76.7 16.3, 90.4 14.4 C 95.1 15.2, 37.8 88.6, 46.8 74.3 C 62.1 62.6, 86.3 9.8, 85.0 4.3 C 94.2 0.0, 92.0 94.7, 82.1 92.3 C 96.8 82.3, 75.5 58.6, 70.3 48.3 C 77.0 49.7, 26.3 2.2, 23.6 14.5 C 7.9 2.4, 79.6 87.4, 83.0 81.9 C 90.5 99.9, 29.6 53.8, 37.6 41.5 C 27.8 26.6, 33.8 2.9, 40.2 10.7 C 42.7 24.4, 59.9 26.3, 69.4 20.9 " fill="hsl(183, 71%, 60%)" fill-opacity="0.47" stroke="none" stroke-width="2.33"  transform="translate(10.2 70.2) rotate(278.8) scale(0.85 1.45)" />
<rect x="35.7" y="61.2" width="28.8" height="27.3" rx="19.3" fill="none" fill-opacity="0.83"   transform="translate(76.1 57.8) rotate(178.6) scale(1.53 1.30)" />
<path d="M 29.4 0.1 C 31.4 6.0, 35.3 21.0, 46.1 17.9 C 41.9 28.3, 25.8 17.6, 33.4 28.6 C 29.8 46.2, 10.9 49.6, 22.8 58.3 C 31.2 50.8, 44.3 26.5, 35.8 28.9 C 33.5 40.6, 20.5 51.8, 14.4 61.1 C 0.4 80.6, 65.6 2.4, 73.1 8.0 Z" fill="hsl(144, 86%, 72%)" fill-opacity="0.61" stroke="none" stroke-width="2.29"  transform="translate(12.3 86.6) rotate(248.0) scale(1.37 1.31)" />
<g opacity="0.079">
<rect x="0" y="0" width="1" height="100" fill="black" />
<rect x="22" y="0" width="1" height="100" fill="black" />
<rect x="44" y="0" width="1" height="100" fill="black" />
<rect x="66" y="0" width="1" height="100" fill="black" />
<rect x="88" y="0" width="1" height="100" fill="black" />
<rect x="0" y="0" width="100" height="1" fill="black" />
<rect x="0" y="22" width="100" height="1" fill="black" />
<rect x="0" y="44" width="100" height="1" fill="black" />
<rect x="0" y="66" width="100" height="1" fill="black" />
<rect x="0" y="88" width="100" height="1" fill="black" />
</g>

</svg>
