<?xml version="1.0" encoding="UTF-8"?>
<svg xmlns="http://www.w3.org/2000/svg" width="100" height="100" viewBox="0 0 100 100">
<defs>
<linearGradient id="g0" x1="0%" y1="0%" x2="100%" y2="100%">
<stop offset="0.0%" stop-color="hsl(106, 75%, 59%)" />
<stop offset="33.3%" stop-color="hsl(183, 71%, 60%)" />
<stop offset="66.7%" stop-color="hsl(242, 72%, 49%)" />
<stop offset="100.0%" stop-color="hsl(322, 74%, 44%)" />
</linearGradient>
<linearGradient id="g1" x1="0%" y1="0%" x2="100%" y2="100%">
<stop offset="0.0%" stop-color="hsl(290, 83%, 63%)" />
<stop offset="33.3%" stop-color="hsl(2, 82%, 55%)" />
<stop offset="66.7%" stop-color="hsl(86, 72%, 68%)" />
<stop offset="100.0%" stop-color="hsl(83, 65%, 44%)" />
</linearGradient>
<linearGradient id="g2" x1="0%" y1="0%" x2="100%" y2="100%">
<stop offset="0.0%" stop-color="hsl(40, 53%, 69%)" />
<stop offset="33.3%" stop-color="hsl(104, 72%, 65%)" />
<stop offset="66.7%" stop-color="hsl(144, 86%, 72%)" />
<stop offset="100.0%" stop-color="hsl(151, 70%, 62%)" />
</linearGradient>
</defs>

<rect x="54.5" y="17.2" width="36.7" height="38.5" rx="7.1" fill="hsl(2, 82%, 55%)" fill-opacity="0.43"   transform="translate(90.5 0.6) rotate(163.6) scale(1.16 1.48)" />
<rect x="0.4" y="26.3" width="26.5" height="27.0" rx="0.5" fill="none" fill-opacity="0.85" stroke="hsl(40, 53%, 69%)" stroke-width="4.0"  transform="translate(43.1 51.6) rotate(239.5) scale(1.92 1.37)" />
<circle cx="9.3" cy="77.6" r="0.1" fill="hsl(40, 53%, 69%)" fill-opacity="0.53"   />
<circle cx="77.0" cy="86.0" r="1.0" fill="hsl(104, 72%, 65%)" fill-opacity="0.49"  transform="translate(98.6 45.1) rotate(254.7) scale(1.06 1.06)" />
<rect x="31.7" y="37.1" width="49.8" height="18.7" rx="14.4" fill="none" fill-opacity="0.83"    />
<circle cx="3.5" cy="58.6" r="0.6" fill="hsl(104, 72%, 65%)" fill-opacity="0.55"  transform="translate(79.8 89.5) rotate(271.1) scale(1.98 1.76)" />
<path d="M 36.4 6.2 C 51.2 0.0, 9.1 5.7, 2.8 17.3 C 2.0 25.2, 53.3 17.6, 52.6 31.0 C 34.4 13.0, 38.5 97.0, 51.2 86.2 C 42.4 75.9, 77.9 21.8, 83.5 10.0 Z" fill="none" fill-opacity="0.74" stroke="hsl(322, 74%, 44%)" stroke-width="1.11"   />
<circle cx="36.0" cy="59.9" r="0.5" fill="hsl(106, 75%, 59%)" fill-opacity="0.96"  transform="translate(19.9 45.9) rotate(275.2) scale(1.91 1.29)" />
<path d="M 32.8 89.4 C 46.9 69.9, 22.6 86.2, 33.5 85.4 C 29.9 99.3, 22.2 8.4, 17.2 2.5 C 4.2 0.0, 100.0 17.1, 94.5 10.8 C 75.2 12.4, 91.8 100.0, 95.1 97.6 C 76.4 100.0, 78.9 82.3, 89.5 77.2 " fill="none" fill-opacity="0.30" stroke="hsl(104, 72%, 65%)" stroke-width="1.06"  transform="translate(12.2 33.4) rotate(327.5) scale(0.66 1.59)" />
</svg>
