<?xml version="1.0" encoding="UTF-8"?>
<svg xmlns="http://www.w3.org/2000/svg" width="100" height="100" viewBox="0 0 100 100">
<defs>
<linearGradient id="g0" x1="0%" y1="0%" x2="100%" y2="100%">
<stop offset="0.0%" stop-color="hsl(106, 75%, 59%)" />
<stop offset="33.3%" stop-color="hsl(183, 71%, 60%)" />
<stop offset="66.7%" stop-color="hsl(242, 72%, 49%)" />
<stop offset="100.0%" stop-color="hsl(322, 74%, 44%)" />
</linearGradient>
<linearGradient id="g1" x1="0%" y1="0%" x2="100%" y2="100%">
<stop offset="0.0%" stop-color="hsl(290, 83%, 63%)" />
<stop offset="33.3%" stop-color="hsl(2, 82%, 55%)" />
<stop offset="66.7%" stop-color="hsl(86, 72%, 68%)" />
<stop offset="100.0%" stop-color="hsl(83, 65%, 44%)" />
</linearGradient>
<linearGradient id="g2" x1="0%" y1="0%" x2="100%" y2="100%">
<stop offset="0.0%" stop-color="hsl(40, 53%, 69%)" />
<stop offset="33.3%" stop-color="hsl(104, 72%, 65%)" />
<stop offset="66.7%" stop-color="hsl(144, 86%, 72%)" />
<stop offset="100.0%" stop-color="hsl(151, 70%, 62%)" />
</linearGradient>
</defs>

<rect x="27.2" y="8.5" width="28.4" height="30.8" rx="0" fill="hsl(151, 70%, 62%)" fill-opacity="0.97" stroke="hsl(144, 86%, 72%)" stroke-width="4.1"   />
<path d="M 20.4 36.5 C 27.7 51.7, 91.1 60.8, 77.9 59.5 C 84.6 60.5, 16.8 68.9, 8.3 66.6 C 7.7 84.0, 55.8 51.8, 43.0 43.3 Z" fill="none" fill-opacity="0.73" stroke="hsl(2, 82%, 55%)" stroke-width="0.97"   />
<circle cx="90.3" cy="80.9" r="0.6" fill="hsl(290, 83%, 63%)" fill-opacity="0.58"   />
<path d="M 17.5 63.0 C 33.7 62.9, 70.9 69.5, 57.9 75.0 C 47.2 91.9, 85.2 37.4, 75.6 46.0 C 67.3 55.9, 55.2 4.5, 46.4 2.3 C 33.7 13.0, 27.9 42.6, 40.1 50.5 C 33.8 42.7, 72.7 100.0, 78.7 94.5 C 89.7 79.0, 31.8 53.2, 33.6 63.2 C 32.8 60.3, 92.0 79.1, 86.3 72.3 Z" fill="hsl(86, 72%, 68%)" fill-opacity="0.35" stroke="none" stroke-width="1.09"  transform="translate(79.1 98.5) rotate(275.1) scale(0.86 1.33)" />
<rect x="44.0" y="1.7" width="40.0" height="23.8" rx="0" fill="none" fill-opacity="0.54"   transform="translate(80.3 86.9) rotate(148.8) scale(1.21 0.91)" />
<path d="M 83.9 7.5 C 71.7 6.4, 81.3 90.9, 67.9 91.8 C 75.2 92.0, 29.0 67.1, 21.1 74.6 C 5.9 71.5, 90.1 50.9, 98.9 42.4 C 95.9 43.4, 84.6 72.9, 81.3 83.1 C 100.0 90.5, 79.6 8.3, 65.8 10.3 C 56.0 10.4, 7.8 76.7, 9.9 86.6 " fill="hsl(86, 72%, 68%)" fill-opacity="0.27" stroke="none" stroke-width="1.05"   />
<path d="M 82.2 95.5 C 63.0 93.7, 27.7 68.8, 13.1 65.1 C 23.9 59.9, 12.9 9.2, 8.9 13.6 C 0.0 0.0, 54.3 50.0, 68.2 64.5 " fill="hsl(144, 86%, 72%)" fill-opacity="0.67" stroke="none" stroke-width="1.04"   />
<path d="M 58.2 77.5 C 70.8 73.6, 33.3 90.3, 41.2 78.7 C 47.3 75.1, 51.5 19.3, 54.3 23.0 C 50.3 14.3, 43.0 5.2, 40.1 17.9 C 32.0 30.3, 87.1 57.6, 76.6 69.3 C 70.9 78.5, 91.6 62.5, 77.0 66.7 C 68.7 86.6, 44.0 57.5, 57.4 53.3 C 52.2 39.7, 41.0 71.8, 55.2 58.8 Z" fill="hsl(290, 83%, 63%)" fill-opacity="0.52" stroke="none" stroke-width="1.18"  transform="translate(93.5 20.9) rotate(284.4) scale(0.51 1.90)" />
<path d="M 66.1 77.3 C 58.8 66.5, 9.4 10.2, 3.8 9.0 C 0.0 14.3, 63.6 51.0, 74.0 45.7 C 77.7 53.5, 14.1 58.9, 2.9 69.6 C 0.0 66.4, 6.9 29.3, 3.3 20.6 Z" fill="none" fill-opacity="0.64" stroke="hsl(151, 70%, 62%)" stroke-width="1.12"  transform="translate(3.7 46.4) rotate(145.2) scale(1.58 0.56)" />
<path d="M 85.9 86.5 C 86.8 71.2, 13.2 55.2, 6.4 64.3 C 0.0 60.9, 64.2 66.4, 74.8 68.1 C 68.0 75.5, 28.8 41.7, 15.5 39.6 " fill="hsl(106, 75%, 59%)" fill-opacity="0.27" stroke="none" stroke-width="0.83"  transform="translate(73.5 65.1) rotate(342.3) scale(1.76 1.34)" />
<path d="M 0.7 53.1 C 0.0 66.3, 19.4 47.1, 28.7 41.5 C 16.8 35.9, 11.1 16.1, 3.9 4.8 C 7.0 4.8, 41.9 94.6, 41.7 94.4 C 46.7 100.0, 69.9 86.2, 75.6 98.8 C 56.3 100.0, 37.4 82.4, 32.8 82.0 " fill="none" fill-opacity="0.89" stroke="hsl(40, 53%, 69%)" stroke-width="1.24"   />
<path d="M 87.6 54.3 C 68.8 66.9, 81.3 55.7, 93.1 41.8 C 88.1 59.3, 26.4 0.0, 35.7 6.6 C 29.5 3.1, 48.0 20.2, 63.0 11.2 Z" fill="hsl(106, 75%, 59%)" fill-opacity="0.42" stroke="none" stroke-width="0.88"   />
<circle cx="1.5" cy="13.3" r="1.1" fill="hsl(2, 82%, 55%)" fill-opacity="0.71"  transform="translate(3.5 39.5) rotate(163.2) scale(1.34 1.00)" />
<rect x="43.6" y="32.7" width="28.9" height="22.7" rx="20.0" fill="hsl(151, 70%, 62%)" fill-opacity="0.29"   transform="translate(8.9 89.0) rotate(354.3) scale(1.43 0.55)" />
<rect x="50.1" y="8.1" width="24.4" height="19.0" rx="0" fill="hsl(290, 83%, 63%)" fill-opacity="0.55" stroke="hsl(290, 83%, 63%)" stroke-width="3.2"  transform="translate(67.5 37.7) rotate(77.9) scale(1.28 0.94)" />
</svg>
