<?xml version="1.0" encoding="UTF-8"?>
<svg xmlns="http://www.w3.org/2000/svg" width="100" height="100" viewBox="0 0 100 100">
<defs>
<linearGradient id="g0" x1="0%" y1="0%" x2="100%" y2="100%">
<stop offset="0.0%" stop-color="hsl(106, 75%, 59%)" />
<stop offset="33.3%" stop-color="hsl(183, 71%, 60%)" />
<stop offset="66.7%" stop-color="hsl(242, 72%, 49%)" />
<stop offset="100.0%" stop-color="hsl(322, 74%, 44%)" />
</linearGradient>
<linearGradient id="g1" x1="0%" y1="0%" x2="100%" y2="100%">
<stop offset="0.0%" stop-color="hsl(290, 83%, 63%)" />
<stop offset="33.3%" stop-color="hsl(2, 82%, 55%)" />
<stop offset="66.7%" stop-color="hsl(86, 72%, 68%)" />
<stop offset="100.0%" stop-color="hsl(83, 65%, 44%)" />
</linearGradient>
<linearGradient id="g2" x1="0%" y1="0%" x2="100%" y2="100%">
<stop offset="0.0%" stop-color="hsl(40, 53%, 69%)" />
<stop offset="33.3%" stop-color="hsl(104, 72%, 65%)" />
<stop offset="66.7%" stop-color="hsl(144, 86%, 72%)" />
<stop offset="100.0%" stop-color="hsl(151, 70%, 62%)" />
</linearGradient>
</defs>

<path d="M 71.1 5.7 C 74.5 0.0, 3.0 79.6, 6.0 87.4 C 24.5 84.6, 29.4 0.0, 35.7 0.0 C 42.0 12.5, 69.2 60.5, 83.8 74.5 C 100.0 70.9, 7.7 90.5, 14.3 93.9 " fill="none" fill-opacity="0.44" stroke="hsl(106, 75%, 59%)" stroke-width="1.29"  transform="translate(1.9 20.4) rotate(94.8) scale(1.54 0.85)" />
<rect x="7.0" y="42.4" width="32.0" height="24.5" rx="0" fill="hsl(322, 74%, 44%)" fill-opacity="0.35" stroke="hsl(106, 75%, 59%)" stroke-width="2.8"   />
<path d="M 29.8 96.4 C 38.0 100.0, 41.2 17.1, 32.4 12.1 C 45.6 16.0, 94.9 0.0, 85.1 5.2 C 89.0 1.3, 34.8 92.0, 30.8 98.2 C 13.3 100.0, 80.7 0.0, 85.2 9.3 C 92.6 0.0, 7.7 62.1, 2.9 49.4 C 9.9 44.6, 69.6 86.7, 64.4 81.5 C 75.7 72.9, 75.7 25.4, 84.4 34.4 " fill="none" fill-opacity="0.76" stroke="hsl(144, 86%, 72%)" stroke-width="1.26"  transform="translate(66.6 56.2) rotate(214.3) scale(1.68 0.72)" />
<path d="M 91.2 38.4 C 86.6 32.6, 45.2 89.4, 37.8 97.3 C 45.4 88.3, 70.2 63.5, 75.1 77.7 C 74.2 75.8, 18.8 24.5, 4.6 37.0 C 14.6 23.5, 73.0 0.0, 72.7 4.2 C 69.6 3.1, 86.5 41.5, 99.1 31.4 " fill="none" fill-opacity="0.77" stroke="hsl(86, 72%, 68%)" stroke-width="1.27"  transform="translate(66.5 3.0) rotate(87.7) scale(0.98 1.45)" />
<path d="M 29.6 75.6 C 39.6 89.1, 53.3 80.7, 61.4 76.7 C 53.1 62.1, 82.0 70.2, 86.7 68.1 C 100.0 57.6, 80.4 27.1, 77.9 21.3 C 64.0 27.7, 81.0 25.0, 84.6 35.9 C 90.0 28.4, 12.5 69.3, 3.9 65.2 Z" fill="hsl(83, 65%, 44%)" fill-opacity="0.98" stroke="none" stroke-width="0.84"   />
<path d="M 47.5 82.4 C 45.1 91.3, 21.5 49.6, 35.4 34.7 C 25.4 30.7, 31.6 72.3, 40.3 81.9 C 29.6 99.8, 78.3 57.1, 64.8 71.2 C 52.8 52.9, 84.4 53.8, 80.6 54.3 C 92.3 36.1, 43.7 100.0, 40.8 99.0 C 48.4 93.7, 37.0 54.1, 45.5 47.4 C 59.1 59.5, 57.1 3.6, 59.5 6.1 " fill="none" fill-opacity="0.30" stroke="hsl(40, 53%, 69%)" stroke-width="0.93"   />
<path d="M 47.2 85.0 C 56.2 68.2, 78.6 32.6, 82.8 31.6 C 74.4 44.1, 64.8 13.8, 66.9 10.7 C 78.7 10.9, 82.7 36.1, 93.6 24.6 C 91.5 37.5, 36.8 25.3, 38.3 31.2 C 41.3 37.3, 3.7 44.4, 4.0 56.9 C 0.0 64.4, 44.4 53.0, 52.4 56.6 " fill="hsl(104, 72%, 65%)" fill-opacity="0.90" stroke="none" stroke-width="1.00"  transform="translate(12.9 13.3) rotate(37.5) scale(0.56 0.80)" />
<rect x="9.9" y="7.7" width="29.1" height="10.2" rx="0" fill="hsl(151, 70%, 62%)" fill-opacity="0.37" stroke="hsl(40, 53%, 69%)" stroke-width="4.5"   />
</svg>
