<?xml version="1.0" encoding="UTF-8"?>
<svg xmlns="http://www.w3.org/2000/svg" width="100" height="100" viewBox="0 0 100 100">
<defs>
<linearGradient id="g0" x1="0%" y1="0%" x2="100%" y2="100%">
<stop offset="0.0%" stop-color="hsl(106, 75%, 59%)" />
<stop offset="33.3%" stop-color="hsl(183, 71%, 60%)" />
<stop offset="66.7%" stop-color="hsl(242, 72%, 49%)" />
<stop offset="100.0%" stop-color="hsl(322, 74%, 44%)" />
</linearGradient>
<linearGradient id="g1" x1="0%" y1="0%" x2="100%" y2="100%">
<stop offset="0.0%" stop-color="hsl(290, 83%, 63%)" />
<stop offset="33.3%" stop-color="hsl(2, 82%, 55%)" />
<stop offset="66.7%" stop-color="hsl(86, 72%, 68%)" />
<stop offset="100.0%" stop-color="hsl(83, 65%, 44%)" />
</linearGradient>
<linearGradient id="g2" x1="0%" y1="0%" x2="100%" y2="100%">
<stop offset="0.0%" stop-color="hsl(40, 53%, 69%)" />
<stop offset="33.3%" stop-color="hsl(104, 72%, 65%)" />
<stop offset="66.7%" stop-color="hsl(144, 86%, 72%)" />
<stop offset="100.0%" stop-color="hsl(151, 70%, 62%)" />
</linearGradient>
</defs>

<path d="M 77.8 49.4 C 81.5 41.9, 7.0 11.1, 3.8 0.7 C 2.9 2.3, 43.6 100.0, 48.1 94.0 C 46.7 100.0, 13.3 5.0, 22.8 11.2 C 34.6 7.7, 24.5 41.7, 21.3 28.0 C 38.2 40.8, 29.4 76.3, 19.6 77.3 " fill="hsl(104, 72%, 65%)" fill-opacity="0.77" stroke="none" stroke-width="1.00"   />
<rect x="34.6" y="3.8" width="37.3" height="27.5" rx="11.8" fill="hsl(322, 74%, 44%)" fill-opacity="0.82" stroke="hsl(322, 74%, 44%)" stroke-width="3.0"  transform="translate(94.8 38.7) rotate(146.2) scale(0.68 0.78)" />
<rect x="41.4" y="19.6" width="29.1" height="13.6" rx="0" fill="none" fill-opacity="0.33" stroke="hsl(183, 71%, 60%)" stroke-width="3.6"   />
<path d="M 69.6 25.4 C 56.4 26.8, 45.8 82.3, 43.7 69.6 C 41.1 73.0, 50.5 31.5, 52.9 36.7 C 43.9 29.9, 27.6 31.1, 24.7 25.6 C 22.0 23.8, 21.3 5.3, 21.2 5.5 C 8.1 0.0, 0.0 67.2, 2.5 66.4 C 0.0 81.3, 42.3 60.3, 51.0 46.4 " fill="none" fill-opacity="0.97" stroke="hsl(83, 65%, 44%)" stroke-width="0.99"  transform="translate(60.8 61.5) rotate(215.4) scale(0.68 1.75)" />
<path d="M 79.0 19.1 C 87.0 8.7, 83.1 87.4, 83.8 98.0 C 100.0 90.7, 34.1 16.3, 37.7 5.2 C 26.9 0.0, 92.3 98.3, 95.9 96.9 C 79.5 96.3, 91.3 79.3, 78.7 81.4 C 66.7 63.2, 58.0 55.2, 66.5 50.7 C 74.1 50.6, 100.0 95.9, 97.6 91.4 C 97.1 86.1, 74.1 4.2, 86.0 5.4 Z" fill="hsl(151, 70%, 62%)" fill-opacity="0.63" stroke="none" stroke-width="1.14"   />
<path d="M 71.2 28.1 C 70.0 11.4, 75.2 17.2, 61.8 21.2 C 46.3 24.6, 25.1 68.2, 19.9 57.4 C 18.1 64.2, 81.2 64.6, 74.0 73.5 C 69.4 89.4, 80.5 62.7, 94.6 58.0 C 100.0 68.9, 92.8 71.2, 81.8 57.4 " fill="none" fill-opacity="0.59" stroke="hsl(83, 65%, 44%)" stroke-width="0.88"  transform="translate(79.2 21.6) rotate(62.9) scale(1.66 0.75)" />
<path d="M 74.3 5.3 C 59.3 0.0, 39.9 93.1, 51.8 84.8 C 37.3 65.2, 0.0 13.5, 11.1 8.1 C 0.0 0.0, 88.6 96.5, 90.0 99.5 C 86.4 100.0, 23.5 83.0, 32.0 93.8 C 15.8 78.2, 0.0 61.4, 9.4 68.2 C 5.3 55.0, 74.5 0.0, 82.7 1.5 C 99.8 4.1, 82.2 52.3, 94.4 67.2 " fill="none" fill-opacity="0.58" stroke="hsl(106, 75%, 59%)" stroke-width="0.93"  transform="translate(35.7 7.5) rotate(335.2) scale(1.15 1.91)" />
<path d="M 76.6 11.8 C 71.7 5.0, 22.6 75.7, 12.2 75.2 C 28.5 59.3, 24.0 58.9, 37.6 62.0 C 49.9 59.9, 93.9 75.9, 80.8 60.9 C 73.6 59.3, 66.6 54.7, 52.8 50.6 C 33.4 37.2, 50.1 44.7, 42.0 46.5 C 34.7 39.5, 42.7 95.8, 39.4 84.9 C 20.8 86.9, 46.5 0.0, 32.0 0.1 Z" fill="none" fill-opacity="0.88" stroke="hsl(86, 72%, 68%)" stroke-width="0.80"   />
<rect x="28.7" y="54.7" width="21.5" height="26.1" rx="17.2" fill="hsl(144, 86%, 72%)" fill-opacity="0.81" stroke="hsl(104, 72%, 65%)" stroke-width="3.8"  transform="translate(12.3 92.4) rotate(15.2) scale(0.83 0.85)" />
<rect x="8.8" y="43.3" width="43.7" height="34.7" rx="0" fill="none" fill-opacity="0.56" stroke="hsl(104, 72%, 65%)" stroke-width="4.7"   />
<circle cx="14.5" cy="88.1" r="0.8" fill="hsl(106, 75%, 59%)" fill-opacity="0.88"   />
<rect x="55.4" y="52.0" width="42.4" height="33.6" rx="0" fill="none" fill-opacity="0.68" stroke="hsl(40, 53%, 69%)" stroke-width="2.5"   />
<path d="M 14.5 6.3 C 23.6 0.0, 15.9 56.6, 30.5 71.0 C 46.4 84.4, 63.2 12.0, 48.4 14.7 C 52.0 14.3, 20.7 70.0, 35.3 84.2 C 53.8 93.3, 3.9 79.2, 2.1 73.1 C 0.0 65.0, 45.4 44.3, 38.4 39.4 C 21.8 41.6, 60.2 12.5, 53.8 9.4 C 53.2 0.0, 89.1 59.2, 98.8 50.7 " fill="none" fill-opacity="0.43" stroke="hsl(151, 70%, 62%)" stroke-width="0.81"  transform="translate(96.4 8.6) rotate(22.4) scale(0.73 0.53)" />
<rect x="52.7" y="54.2" width="40.3" height="12.6" rx="11.9" fill="none" fill-opacity="0.41" stroke="hsl(40, 53%, 69%)" stroke-width="4.3"  transform="translate(3.1 27.7) rotate(335.3) scale(1.41 1.85)" />
<path d="M 98.7 65.4 C 98.6 64.9, 64.2 7.0, 78.9 6.5 C 83.4 0.0, 81.9 73.9, 75.0 79.3 C 74.6 94.1, 95.1 79.4, 85.1 80.5 C 74.1 63.9, 46.2 0.0, 51.3 3.3 " fill="none" fill-opacity="0.74" stroke="hsl(83, 65%, 44%)" stroke-width="1.16"  transform="translate(2.3 13.0) rotate(134.4) scale(1.15 1.32)" />
</svg>
