<?xml version="1.0" encoding="UTF-8"?>
<svg xmlns="http://www.w3.org/2000/svg" width="100" height="100" viewBox="0 0 100 100">
<defs>
<linearGradient id="g0" x1="0%" y1="0%" x2="100%" y2="100%">
<stop offset="0.0%" stop-color="hsl(106, 75%, 59%)" />
<stop offset="33.3%" stop-color="hsl(183, 71%, 60%)" />
<stop offset="66.7%" stop-color="hsl(242, 72%, 49%)" />
<stop offset="100.0%" stop-color="hsl(322, 74%, 44%)" />
</linearGradient>
<linearGradient id="g1" x1="0%" y1="0%" x2="100%" y2="100%">
<stop offset="0.0%" stop-color="hsl(290, 83%, 63%)" />
<stop offset="33.3%" stop-color="hsl(2, 82%, 55%)" />
<stop offset="66.7%" stop-color="hsl(86, 72%, 68%)" />
<stop offset="100.0%" stop-color="hsl(83, 65%, 44%)" />
</linearGradient>
<linearGradient id="g2" x1="0%" y1="0%" x2="100%" y2="100%">
<stop offset="0.0%" stop-color="hsl(40, 53%, 69%)" />
<stop offset="33.3%" stop-color="hsl(104, 72%, 65%)" />
<stop offset="66.7%" stop-color="hsl(144, 86%, 72%)" />
<stop offset="100.0%" stop-color="hsl(151, 70%, 62%)" />
</linearGradient>
</defs>

<path d="M 54.2 15.5 C 53.4 25.3, 98.6 48.7, 97.0 59.7 C 100.0 53.8, 42.2 77.2, 33.2 63.7 C 13.9 49.5, 16.3 30.5, 24.0 28.3 Z" fill="none" fill-opacity="0.36" stroke="hsl(183, 71%, 60%)" stroke-width="1.07"  transform="translate(59.5 92.8) rotate(152.3) scale(1.83 1.08)" />
<rect x="16.4" y="3.0" width="48.9" height="29.1" rx="0" fill="hsl(183, 71%, 60%)" fill-opacity="0.58"    />
<rect x="8.8" y="30.2" width="27.5" height="34.5" rx="1.2" fill="none" fill-opacity="0.33"    />
<rect x="8.9" y="74.0" width="37.2" height="12.8" rx="0" fill="none" fill-opacity="0.74" stroke="hsl(40, 53%, 69%)" stroke-width="1.9"  transform="translate(15.3 44.0) rotate(47.0) scale(0.84 0.86)" />
<circle cx="28.2" cy="22.7" r="1.3" fill="hsl(104, 72%, 65%)" fill-opacity="0.97"   />
<path d="M 5.9 45.6 C 15.4 63.9, 0.0 69.5, 8.6 60.7 C 27.0 79.3, 100.0 64.9, 96.4 73.4 C 88.5 73.9, 45.5 32.6, 56.4 19.1 C 73.1 11.6, 53.4 84.1, 52.3 98.1 C 33.0 100.0, 24.0 70.3, 20.2 67.0 C 24.4 63.1, 77.1 82.3, 81.9 80.4 Z" fill="hsl(144, 86%, 72%)" fill-opacity="0.48" stroke="none" stroke-width="1.13"  transform="translate(13.0 47.5) rotate(203.7) scale(1.42 1.95)" />
<path d="M 93.8 37.3 C 100.0 48.2, 61.6 21.0, 65.3 7.9 C 58.3 21.4, 64.8 79.7, 74.7 81.3 C 78.4 66.0, 52.6 31.3, 43.9 45.7 C 31.1 30.3, 68.3 17.9, 81.5 12.9 C 72.8 0.7, 13.7 66.3, 20.2 64.1 C 11.4 55.2, 26.3 35.3, 18.5 45.9 C 3.9 55.8, 56.7 28.5, 54.0 33.3 " fill="none" fill-opacity="0.83" stroke="hsl(40, 53%, 69%)" stroke-width="1.18"   />
<path d="M 60.0 71.9 C 55.9 68.7, 21.2 77.5, 20.1 71.6 C 8.7 74.2, 79.6 65.2, 70.3 73.1 C 78.6 90.0, 66.8 98.4, 69.1 99.4 C 82.9 89.7, 93.0 8.5, 83.6 22.4 C 93.2 33.8, 54.8 30.5, 54.8 33.7 C 34.9 20.6, 17.2 87.4, 4.0 78.6 Z" fill="hsl(144, 86%, 72%)" fill-opacity="0.64" stroke="none" stroke-width="0.87"  transform="translate(89.6 77.0) rotate(194.5) scale(1.62 1.74)" />
<circle cx="79.8" cy="25.6" r="0.8" fill="hsl(86, 72%, 68%)" fill-opacity="0.92"   />
<path d="M 5.7 61.3 C 0.0 70.7, 0.0 42.1, 5.7 34.8 C 20.7 46.5, 32.2 57.4, 44.8 46.3 C 25.7 36.6, 20.1 83.1, 8.3 77.1 C 0.9 78.5, 97.2 73.1, 98.4 62.8 Z" fill="hsl(322, 74%, 44%)" fill-opacity="0.60" stroke="none" stroke-width="0.93"   />
<path d="M 71.2 60.4 C 76.4 62.8, 100.0 0.0, 99.7 9.6 C 100.0 17.7, 69.1 74.2, 70.7 64.6 C 80.9 53.5, 28.2 41.1, 39.1 33.9 C 48.3 39.2, 61.4 100.0, 60.5 98.2 " fill="none" fill-opacity="0.49" stroke="hsl(183, 71%, 60%)" stroke-width="0.99"   />
<path d="M 42.7 38.1 C 59.1 50.9, 66.0 6.1, 80.1 5.4 C 75.4 19.0, 47.1 28.8, 36.7 40.7 C 32.5 43.4, 33.8 73.6, 20.1 80.5 C 7.4 70.1, 94.6 40.9, 91.9 40.5 C 97.0 54.5, 84.9 40.7, 83.5 49.8 Z" fill="none" fill-opacity="0.52" stroke="hsl(242, 72%, 49%)" stroke-width="1.05"  transform="translate(23.6 48.0) rotate(198.0) scale(1.47 1.12)" />
</svg>
