<?xml version="1.0" encoding="UTF-8"?>
<svg xmlns="http://www.w3.org/2000/svg" width="100" height="100" viewBox="0 0 100 100">
<defs>
<linearGradient id="g0" x1="0%" y1="0%" x2="100%" y2="100%">
<stop offset="0.0%" stop-color="hsl(106, 75%, 59%)" />
<stop offset="33.3%" stop-color="hsl(183, 71%, 60%)" />
<stop offset="66.7%" stop-color="hsl(242, 72%, 49%)" />
<stop offset="100.0%" stop-color="hsl(322, 74%, 44%)" />
</linearGradient>
<linearGradient id="g1" x1="0%" y1="0%" x2="100%" y2="100%">
<stop offset="0.0%" stop-color="hsl(290, 83%, 63%)" />
<stop offset="33.3%" stop-color="hsl(2, 82%, 55%)" />
<stop offset="66.7%" stop-color="hsl(86, 72%, 68%)" />
<stop offset="100.0%" stop-color="hsl(83, 65%, 44%)" />
</linearGradient>
<linearGradient id="g2" x1="0%" y1="0%" x2="100%" y2="100%">
<stop offset="0.0%" stop-color="hsl(40, 53%, 69%)" />
<stop offset="33.3%" stop-color="hsl(104, 72%, 65%)" />
<stop offset="66.7%" stop-color="hsl(144, 86%, 72%)" />
<stop offset="100.0%" stop-color="hsl(151, 70%, 62%)" />
</linearGradient>
<filter id="f1" x="-20%" y="-20%" width="140%" height="140%">
  <feGaussianBlur stdDeviation="1.3664029239777349" />
</filter>

</defs>

<path d="M 79.0 98.0 C 72.8 100.0, 69.7 10.7, 75.3 4.7 C 74.9 9.1, 25.3 100.0, 30.2 99.4 C 21.5 82.5, 80.7 55.4, 95.3 57.3 C 81.7 50.8, 40.6 96.4, 30.5 91.0 C 19.0 83.5, 98.2 0.0, 96.2 9.0 C 77.6 20.2, 100.0 25.8, 90.9 28.2 C 94.4 40.2, 79.3 30.5, 71.8 31.2 Z" fill="hsl(104, 72%, 65%)" fill-opacity="0.43" stroke="none" stroke-width="4.61"  transform="translate(75.8 96.5) rotate(284.8) scale(1.13 1.01)" />
<circle cx="82.5" cy="61.7" r="5.8" fill="url(#g0)" fill-opacity="0.54"  transform="translate(48.6 4.0) rotate(65.2) scale(1.78 0.63)" />
<path d="M 25.1 32.0 C 37.3 48.5, 11.4 30.1, 3.5 24.0 C 0.0 32.2, 37.7 98.6, 51.5 88.2 C 35.9 91.5, 46.4 73.5, 53.2 79.2 C 61.1 88.9, 17.6 11.1, 10.9 25.0 C 18.3 9.3, 15.1 80.3, 12.4 73.3 C 0.0 64.3, 42.6 67.9, 30.1 72.4 C 28.2 83.7, 0.0 45.2, 2.3 49.8 C 0.0 62.3, 55.4 43.0, 60.2 36.0 C 59.0 28.1, 1.5 82.8, 10.5 68.7 C 0.0 52.8, 97.2 0.0, 95.1 12.1 Z" fill="hsl(86, 72%, 68%)" fill-opacity="0.83" stroke="none" stroke-width="1.02"  transform="translate(93.7 87.0) rotate(38.6) scale(0.72 1.16)" />
<path d="M 20.8 21.2 C 10.2 6.1, 58.1 50.5, 63.7 45.3 C 69.7 51.7, 100.0 82.1, 87.1 69.5 C 90.3 68.9, 39.7 36.2, 38.9 41.3 C 31.1 56.9, 28.4 39.7, 31.9 25.5 C 12.8 33.4, 24.6 81.4, 12.5 78.5 C 17.4 70.2, 100.0 37.8, 96.2 34.2 C 100.0 23.5, 54.2 62.8, 43.9 67.9 C 56.4 60.6, 33.3 47.7, 30.3 42.9 " fill="hsl(290, 83%, 63%)" fill-opacity="0.66" stroke="none" stroke-width="3.93"  transform="translate(50.1 34.2) rotate(253.1) scale(1.93 1.10)" />
<path d="M 32.8 79.0 C 21.2 87.3, 87.0 98.2, 77.4 85.8 C 91.7 100.0, 20.0 69.1, 16.0 63.2 C 8.9 58.7, 7.3 59.5, 12.2 69.1 C 27.7 88.5, 92.7 88.7, 97.0 85.2 C 78.4 67.8, 55.4 47.0, 50.7 47.1 C 33.3 29.2, 95.6 15.5, 81.3 22.1 Z" fill="hsl(151, 70%, 62%)" fill-opacity="0.53" stroke="none" stroke-width="2.80"  transform="translate(44.5 74.5) rotate(291.7) scale(1.45 1.75)" />
<rect x="13.7" y="53.6" width="32.3" height="26.9" rx="0" fill="none" fill-opacity="0.87"   transform="translate(40.0 96.9) rotate(23.5) scale(1.73 1.68)" />
<path d="M 24.5 2.7 C 22.9 0.0, 23.1 0.0, 9.7 1.5 C 29.0 0.0, 24.5 67.1, 25.4 53.8 C 26.4 71.7, 66.2 54.1, 53.7 51.1 C 44.4 41.9, 82.8 100.0, 95.5 93.1 C 83.9 79.5, 24.5 55.3, 26.6 43.2 C 24.5 30.5, 9.5 40.4, 23.7 51.3 C 12.2 63.7, 53.8 87.3, 62.1 72.8 C 66.4 68.8, 15.0 83.2, 20.0 96.0 C 8.3 98.8, 90.6 60.3, 91.7 63.0 Z" fill="hsl(290, 83%, 63%)" fill-opacity="0.55" stroke="none" stroke-width="2.03"   />
<rect x="1.7" y="8.3" width="37.8" height="18.1" rx="5.3" fill="none" fill-opacity="0.81" stroke="hsl(106, 75%, 59%)" stroke-width="4.9"   />
<path d="M 1.7 41.4 C 5.1 33.3, 79.9 44.9, 88.6 49.2 C 92.8 64.0, 91.6 94.3, 79.6 98.1 C 93.7 81.6, 86.9 37.0, 92.0 37.1 C 100.0 40.9, 75.6 35.2, 83.3 48.3 C 93.5 62.6, 22.3 44.9, 32.1 34.0 C 42.6 19.1, 74.0 82.0, 75.3 81.7 C 81.1 74.5, 10.5 9.9, 21.2 0.4 C 40.3 1.1, 67.0 32.8, 64.0 46.4 C 78.9 46.7, 26.3 21.8, 21.8 28.2 C 7.7 10.2, 43.4 33.2, 53.8 41.3 Z" fill="hsl(106, 75%, 59%)" fill-opacity="0.86" stroke="none" stroke-width="3.14"   />
<rect x="2.7" y="45.5" width="20.8" height="15.8" rx="0" fill="hsl(104, 72%, 65%)" fill-opacity="0.83"   transform="translate(82.8 50.6) rotate(148.8) scale(0.50 1.93)" />
<path d="M 48.5 46.9 C 67.7 64.7, 72.2 36.2, 74.1 23.4 C 61.9 38.2, 79.4 18.0, 74.9 14.8 C 79.1 34.6, 0.0 27.3, 7.9 16.0 C 22.3 23.4, 88.6 99.3, 87.8 89.6 C 95.5 100.0, 28.9 21.1, 15.1 27.0 C 34.2 12.7, 77.6 25.2, 80.5 22.2 C 81.2 14.8, 17.4 5.9, 7.1 9.7 C 23.2 0.0, 92.4 80.5, 98.4 88.0 Z" fill="hsl(183, 71%, 60%)" fill-opacity="0.56" stroke="none" stroke-width="2.75"  transform="translate(25.3 15.4) rotate(148.1) scale(1.44 1.21)" />
<circle cx="51.7" cy="91.1" r="1.5" fill="url(#g2)" fill-opacity="0.59"  transform="translate(56.7 55.3) rotate(359.2) scale(1.35 1.22)" />
<path d="M 28.6 19.8 C 11.7 2.1, 69.8 2.0, 70.1 9.9 C 66.9 20.1, 100.0 16.3, 93.9 20.5 C 78.3 19.6, 8.0 65.5, 17.3 75.0 C 14.5 81.9, 80.9 26.1, 78.7 33.6 C 86.9 21.0, 93.8 31.5, 91.2 23.8 C 83.3 23.6, 76.6 53.9, 64.7 63.2 Z" fill="hsl(86, 72%, 68%)" fill-opacity="0.91" stroke="none" stroke-width="3.91"  transform="translate(24.1 95.0) rotate(134.1) scale(1.44 0.82)" />
<rect x="35.6" y="33.0" width="21.8" height="22.8" rx="4.7" fill="none" fill-opacity="0.70"   transform="translate(77.2 23.4) rotate(125.0) scale(1.51 1.96)" />
<circle cx="23.8" cy="6.5" r="8.9" fill="url(#g2)" fill-opacity="0.48"  transform="translate(51.4 99.0) rotate(55.1) scale(1.90 1.93)" />
<rect x="30.0" y="36.2" width="34.9" height="15.5" rx="0" fill="none" fill-opacity="0.41" stroke="hsl(183, 71%, 60%)" stroke-width="4.2"  transform="translate(44.5 23.6) rotate(177.4) scale(1.97 1.92)" />
<path d="M 15.5 6.6 C 6.6 18.2, 84.6 34.3, 90.9 19.9 C 100.0 38.6, 73.2 0.0, 76.1 6.3 C 60.8 0.0, 51.1 84.9, 39.5 91.3 C 41.1 100.0, 61.8 85.2, 50.1 74.3 C 45.6 67.1, 39.7 84.5, 37.0 94.8 C 23.3 81.0, 77.4 97.5, 64.8 93.5 C 83.1 100.0, 8.2 100.0, 13.3 98.7 Z" fill="none" fill-opacity="0.91" stroke="hsl(151, 70%, 62%)" stroke-width="3.74"  transform="translate(64.1 68.3) rotate(34.0) scale(0.58 1.27)" />
<circle cx="61.0" cy="3.3" r="0.5" fill="url(#g0)" fill-opacity="0.87"  transform="translate(60.2 5.0) rotate(273.9) scale(1.47 1.34)" />
<rect x="46.3" y="18.6" width="25.0" height="30.1" rx="0" fill="hsl(151, 70%, 62%)" fill-opacity="0.47"   transform="translate(32.4 88.9) rotate(61.4) scale(1.00 1.83)" />
<circle cx="59.7" cy="6.8" r="3.0" fill="hsl(322, 74%, 44%)" fill-opacity="0.52" filter="url(#f1)" transform="translate(42.0 78.0) rotate(69.2) scale(0.69 0.97)" />
<path d="M 43.4 10.5 C 33.4 0.0, 58.2 43.6, 64.1 32.5 C 61.7 35.1, 8.5 100.0, 12.5 95.0 C 28.5 87.8, 5.8 49.6, 18.4 49.2 C 13.3 62.4, 32.1 77.0, 22.4 90.5 C 33.3 100.0, 74.7 73.9, 86.7 74.6 C 87.9 84.9, 63.6 59.2, 49.4 54.3 C 55.7 74.1, 5.4 74.6, 8.9 85.1 Z" fill="hsl(151, 70%, 62%)" fill-opacity="0.53" stroke="none" stroke-width="2.15"  transform="translate(62.0 66.4) rotate(266.8) scale(1.97 1.01)" />
<path d="M 66.2 1.8 C 69.4 17.5, 31.9 32.8, 17.0 32.3 C 1.4 19.5, 37.0 4.7, 27.6 1.7 C 29.8 0.0, 12.6 91.7, 6.5 87.1 C 22.1 89.4, 59.9 97.1, 46.7 83.4 C 53.6 87.1, 75.3 87.6, 84.8 97.3 C 89.6 98.0, 37.2 24.3, 52.0 20.6 C 53.7 22.0, 49.9 23.7, 45.0 32.5 C 47.9 44.2, 75.2 31.4, 80.0 40.2 Z" fill="hsl(40, 53%, 69%)" fill-opacity="0.98" stroke="none" stroke-width="4.68"  transform="translate(66.5 98.4) rotate(125.7) scale(0.84 0.65)" />
<circle cx="71.0" cy="26.0" r="6.9" fill="hsl(106, 75%, 59%)" fill-opacity="0.84"   />
<rect x="42.5" y="13.8" width="22.5" height="22.6" rx="10.2" fill="none" fill-opacity="0.87"  filter="url(#f1)" transform="translate(97.0 38.4) rotate(308.1) scale(0.81 0.96)" />
<rect x="16.4" y="42.9" width="37.3" height="16.5" rx="13.2" fill="hsl(40, 53%, 69%)" fill-opacity="0.67"   transform="translate(47.0 92.1) rotate(222.2) scale(0.89 1.64)" />
<path d="M 53.0 24.3 C 58.6 24.0, 36.9 61.0, 50.0 68.9 C 46.7 70.4, 32.3 82.2, 24.4 71.1 C 4.6 67.4, 50.0 84.8, 55.0 84.0 C 62.8 74.5, 71.1 55.8, 68.7 55.7 C 60.0 51.1, 65.8 19.3, 72.6 21.3 C 71.7 30.6, 77.8 44.9, 83.4 33.5 C 99.8 35.9, 39.6 73.2, 29.4 76.8 Z" fill="none" fill-opacity="0.35" stroke="hsl(322, 74%, 44%)" stroke-width="1.33"  transform="translate(96.3 93.6) rotate(293.5) scale(0.84 1.41)" />
<rect x="9.4" y="27.9" width="35.0" height="27.3" rx="12.7" fill="hsl(290, 83%, 63%)" fill-opacity="0.23" stroke="hsl(290, 83%, 63%)" stroke-width="2.0"  transform="translate(19.5 62.4) rotate(17.2) scale(1.85 1.84)" />
<rect x="34.3" y="27.1" width="45.3" height="33.2" rx="1.3" fill="hsl(242, 72%, 49%)" fill-opacity="0.87"   transform="translate(45.1 39.5) rotate(3.8) scale(1.33 1.12)" />
<circle cx="27.5" cy="24.8" r="3.6" fill="hsl(86, 72%, 68%)" fill-opacity="0.59"  transform="translate(27.7 8.3) rotate(149.9) scale(1.54 1.83)" />
<path d="M 74.7 80.0 C 87.5 73.2, 8.5 63.0, 20.8 78.0 C 10.7 73.5, 27.1 10.9, 41.0 20.2 C 34.7 31.9, 9.8 96.5, 15.0 92.7 C 5.9 85.9, 55.4 75.3, 47.3 60.8 C 46.9 80.7, 33.3 54.1, 37.4 48.1 C 56.4 56.1, 24.5 75.0, 13.0 84.8 C 23.8 75.4, 92.2 73.7, 97.1 88.4 C 85.9 100.0, 26.3 32.3, 34.0 21.6 C 37.9 21.1, 82.7 81.9, 84.8 84.2 C 80.9 68.4, 0.0 78.6, 1.6 91.3 Z" fill="hsl(322, 74%, 44%)" fill-opacity="0.87" stroke="none" stroke-width="5.18"  transform="translate(69.8 65.4) rotate(149.8) scale(1.45 1.05)" />
<rect x="47.2" y="37.1" width="31.5" height="20.8" rx="0" fill="none" fill-opacity="0.65"   transform="translate(71.1 77.2) rotate(25.6) scale(0.83 1.08)" />
<path d="M 26.2 21.5 C 25.5 36.1, 43.5 6.2, 56.2 19.0 C 73.3 5.4, 81.6 53.6, 66.6 58.6 C 59.3 66.7, 66.2 26.0, 70.3 20.9 C 67.0 17.9, 23.2 8.5, 36.3 13.8 C 38.6 11.6, 24.0 71.0, 33.9 77.5 C 37.5 83.4, 23.6 100.0, 36.3 88.9 C 24.3 100.0, 41.5 64.2, 28.0 77.5 C 17.3 91.2, 83.7 34.6, 89.9 22.2 C 91.0 12.4, 20.9 28.3, 15.7 37.6 C 31.1 47.5, 59.5 80.9, 73.9 86.6 Z" fill="none" fill-opacity="0.44" stroke="hsl(144, 86%, 72%)" stroke-width="1.05"  transform="translate(43.2 59.8) rotate(284.2) scale(0.69 0.55)" />
<path d="M 80.3 83.3 C 62.8 64.4, 99.9 14.3, 98.1 25.1 C 100.0 43.3, 86.2 0.0, 76.6 2.9 C 58.1 0.0, 0.0 32.7, 1.8 39.0 C 0.0 32.4, 11.9 27.7, 7.2 33.3 C 13.9 20.9, 17.2 87.4, 16.6 92.1 C 13.6 100.0, 44.2 19.0, 58.3 5.1 C 68.7 8.1, 100.0 57.5, 91.7 43.7 " fill="hsl(2, 82%, 55%)" fill-opacity="0.81" stroke="none" stroke-width="3.18"  transform="translate(74.3 26.0) rotate(358.3) scale(1.46 1.59)" />
<rect x="0.7" y="5.1" width="35.7" height="22.3" rx="1.0" fill="none" fill-opacity="0.91"   transform="translate(90.9 96.2) rotate(346.9) scale(1.02 1.65)" />
<circle cx="65.6" cy="58.8" r="4.0" fill="hsl(183, 71%, 60%)" fill-opacity="0.84"  transform="translate(21.8 17.5) rotate(295.6) scale(1.28 0.92)" />
<path d="M 72.9 4.1 C 78.3 0.0, 62.8 0.0, 70.7 6.4 C 79.6 0.0, 0.0 45.8, 1.2 39.7 C 7.6 27.9, 60.7 69.7, 51.6 56.7 C 65.1 53.0, 45.4 64.7, 47.7 66.5 C 41.6 53.5, 0.0 84.6, 2.3 83.6 C 3.8 97.9, 28.0 16.6, 28.2 23.9 C 36.2 32.9, 44.3 64.4, 57.5 73.4 C 42.7 80.3, 62.6 47.1, 63.5 42.0 C 48.1 53.3, 87.0 21.4, 94.4 30.5 Z" fill="hsl(104, 72%, 65%)" fill-opacity="0.96" stroke="none" stroke-width="5.07" filter="url(#f1)" transform="translate(96.5 30.5) rotate(307.7) scale(1.25 0.56)" />
<rect x="19.0" y="74.9" width="32.4" height="20.1" rx="4.3" fill="hsl(290, 83%, 63%)" fill-opacity="0.32"   transform="translate(88.2 16.2) rotate(311.2) scale(1.33 1.44)" />
<circle cx="91.6" cy="96.3" r="5.7" fill="hsl(151, 70%, 62%)" fill-opacity="0.49"  transform="translate(73.5 73.5) rotate(258.9) scale(1.20 0.53)" />
<path d="M 36.2 77.8 C 28.0 65.1, 46.3 28.4, 35.9 25.9 C 22.2 31.0, 89.6 29.0, 95.9 41.7 C 100.0 54.2, 80.2 24.5, 83.0 31.6 C 70.2 49.2, 0.0 69.9, 1.3 77.4 C 0.0 70.3, 0.0 61.4, 2.1 59.1 C 5.4 62.9, 49.9 25.8, 44.1 22.6 C 32.8 29.8, 7.6 10.3, 4.1 6.5 C 3.3 18.4, 87.1 14.2, 98.4 24.5 C 100.0 39.0, 53.4 66.2, 53.8 77.3 C 58.1 60.1, 69.1 81.8, 70.6 67.6 Z" fill="hsl(290, 83%, 63%)" fill-opacity="0.61" stroke="none" stroke-width="3.12"  transform="translate(83.1 6.2) rotate(284.0) scale(1.46 1.37)" />
<path d="M 27.3 99.0 C 7.6 100.0, 100.0 12.1, 90.1 7.3 C 83.8 12.6, 62.3 83.1, 52.0 97.9 C 34.0 91.6, 12.1 27.2, 27.0 25.6 C 32.4 38.9, 68.3 0.0, 67.0 4.1 C 76.4 0.0, 7.9 43.5, 15.1 48.9 C 6.9 40.0, 97.5 14.8, 90.9 17.7 C 95.4 13.7, 43.8 35.3, 34.4 36.5 C 33.5 35.6, 35.4 93.9, 21.8 92.7 Z" fill="hsl(2, 82%, 55%)" fill-opacity="0.54" stroke="none" stroke-width="2.26"   />
<circle cx="20.1" cy="26.9" r="7.5" fill="hsl(151, 70%, 62%)" fill-opacity="0.54"  transform="translate(24.0 24.7) rotate(100.9) scale(1.86 1.55)" />
<path d="M 81.4 22.5 C 79.8 32.3, 82.1 12.3, 94.5 11.0 C 82.2 21.9, 16.4 51.7, 2.4 37.3 C 0.0 31.1, 85.5 0.0, 90.6 1.5 C 76.6 0.2, 21.0 58.4, 27.2 62.6 C 17.6 73.5, 47.2 5.0, 52.0 18.4 C 42.5 1.6, 0.0 90.4, 0.3 91.4 C 0.0 79.0, 17.4 72.4, 23.6 82.3 Z" fill="none" fill-opacity="0.54" stroke="hsl(104, 72%, 65%)" stroke-width="1.80"  transform="translate(88.5 25.9) rotate(101.4) scale(1.16 1.14)" />
<path d="M 85.3 24.2 C 73.7 26.4, 0.0 81.3, 4.5 96.2 C 16.9 100.0, 44.7 34.0, 52.2 19.5 C 70.7 11.2, 77.9 25.2, 89.0 34.2 C 91.6 24.2, 7.1 61.8, 11.7 73.3 C 0.0 89.2, 56.1 11.0, 45.5 21.9 C 48.3 3.8, 61.9 40.1, 67.1 25.1 C 66.4 25.0, 32.2 74.0, 45.6 80.3 C 61.9 78.3, 82.7 21.2, 71.4 16.3 Z" fill="hsl(242, 72%, 49%)" fill-opacity="0.41" stroke="none" stroke-width="2.47"  transform="translate(57.6 44.4) rotate(152.3) scale(2.00 1.39)" />
<path d="M 63.1 30.0 C 62.5 22.0, 0.0 26.0, 1.3 27.2 C 0.0 36.4, 76.3 21.3, 79.2 32.3 C 98.1 16.7, 46.8 20.5, 34.2 31.1 C 46.5 47.2, 1.9 44.0, 15.0 49.4 C 0.0 42.8, 86.3 82.9, 87.0 87.4 C 95.2 84.9, 98.0 57.5, 98.8 56.8 C 95.5 48.2, 38.4 71.5, 40.9 60.7 " fill="none" fill-opacity="0.57" stroke="hsl(104, 72%, 65%)" stroke-width="5.19"  transform="translate(29.4 99.1) rotate(78.9) scale(1.70 0.50)" />
<path d="M 79.0 17.3 C 97.8 27.5, 25.8 23.3, 30.3 38.2 C 37.2 28.2, 90.8 68.4, 96.7 65.3 C 90.2 66.0, 61.4 99.8, 50.5 96.2 C 58.0 91.9, 97.1 1.5, 91.2 3.0 C 99.3 0.0, 2.7 65.8, 9.6 54.5 C 4.3 35.9, 100.0 13.8, 97.5 11.9 C 83.8 14.2, 4.8 54.3, 2.9 46.6 C 14.2 34.0, 77.0 27.9, 84.0 26.5 C 100.0 14.2, 86.6 46.8, 85.5 53.5 C 65.8 38.6, 59.6 65.9, 74.0 65.6 Z" fill="hsl(183, 71%, 60%)" fill-opacity="0.47" stroke="none" stroke-width="0.83" filter="url(#f1)" transform="translate(44.7 21.7) rotate(176.7) scale(0.65 1.46)" />
<path d="M 0.4 28.2 C 15.3 36.8, 31.8 44.0, 39.5 39.3 C 49.9 53.6, 68.3 81.2, 69.6 70.2 C 63.9 77.1, 28.5 2.2, 36.8 4.6 C 28.4 13.5, 25.0 9.1, 25.7 17.3 C 27.1 5.4, 30.1 2.0, 43.7 10.1 C 44.8 0.0, 2.9 56.1, 0.0 67.2 C 17.5 65.7, 28.1 40.0, 41.4 40.7 C 24.4 28.3, 70.1 82.8, 75.8 94.2 C 74.0 98.3, 58.0 32.9, 54.3 20.7 C 54.7 37.0, 68.8 83.0, 69.4 88.3 Z" fill="hsl(144, 86%, 72%)" fill-opacity="0.79" stroke="none" stroke-width="2.72"   />
<path d="M 21.1 27.8 C 11.3 27.1, 42.6 23.7, 40.9 23.8 C 27.3 20.9, 86.8 50.9, 74.4 48.5 C 77.2 58.8, 74.7 9.6, 85.4 8.9 C 77.0 12.2, 12.8 85.7, 24.2 89.3 C 26.6 100.0, 79.4 73.7, 70.6 75.3 C 76.8 64.6, 16.7 26.7, 12.5 28.9 C 0.0 26.9, 35.6 74.2, 31.6 67.1 C 22.5 61.1, 76.4 100.0, 71.0 93.9 C 81.2 100.0, 58.2 6.3, 50.9 5.7 C 59.1 5.0, 0.7 81.2, 6.6 86.3 Z" fill="hsl(290, 83%, 63%)" fill-opacity="0.37" stroke="none" stroke-width="1.14"  transform="translate(59.5 84.9) rotate(269.9) scale(1.17 1.57)" />
<path d="M 92.5 41.1 C 78.2 44.3, 16.8 0.0, 3.0 8.0 C 18.9 15.3, 75.5 3.4, 86.0 8.8 C 82.0 11.1, 40.5 91.9, 46.3 86.8 C 46.5 67.9, 35.1 46.1, 22.6 38.0 C 41.3 39.0, 91.6 0.0, 78.5 2.2 C 91.6 0.0, 23.4 15.3, 35.8 20.2 C 55.4 3.6, 19.3 0.0, 13.1 1.3 C 1.3 1.5, 52.8 58.0, 65.7 68.1 C 61.2 59.5, 95.7 0.0, 98.7 2.0 C 90.4 0.8, 15.5 87.1, 29.8 88.8 Z" fill="hsl(144, 86%, 72%)" fill-opacity="0.34" stroke="none" stroke-width="1.69"  transform="translate(64.0 43.3) rotate(45.6) scale(0.70 1.99)" />
<path d="M 12.1 1.9 C 17.6 10.6, 69.3 64.0, 75.8 49.8 C 90.9 53.3, 6.8 41.3, 14.7 35.5 C 7.6 44.7, 7.6 17.3, 18.9 13.6 C 6.0 12.6, 6.8 9.6, 9.9 18.3 C 9.6 12.1, 80.4 0.0, 94.7 5.7 C 100.0 5.4, 0.0 57.6, 1.4 63.7 C 7.4 72.6, 83.5 69.7, 79.2 84.6 Z" fill="hsl(104, 72%, 65%)" fill-opacity="0.31" stroke="none" stroke-width="1.65"  transform="translate(53.9 70.7) rotate(320.8) scale(1.48 1.88)" />
<path d="M 4.3 45.7 C 0.0 56.3, 70.2 10.8, 59.4 23.6 C 68.2 21.8, 100.0 0.0, 100.0 5.6 C 100.0 0.0, 100.0 43.0, 99.2 28.5 C 100.0 13.6, 0.0 54.8, 0.1 66.7 C 0.0 64.3, 56.1 100.0, 50.8 93.6 C 65.9 86.0, 92.2 55.6, 96.5 62.4 C 100.0 70.5, 14.4 11.1, 25.2 3.8 C 31.5 0.0, 83.2 79.0, 69.8 71.4 C 55.4 84.1, 30.2 62.7, 33.8 73.1 Z" fill="hsl(322, 74%, 44%)" fill-opacity="0.89" stroke="none" stroke-width="3.12"  transform="translate(93.1 68.3) rotate(288.1) scale(1.83 0.98)" />
<path d="M 10.4 16.1 C 21.6 32.1, 73.2 26.9, 84.1 12.1 C 97.4 10.0, 42.5 58.5, 28.5 46.7 C 36.3 27.5, 69.4 14.0, 66.9 25.3 C 56.4 40.6, 100.0 79.8, 89.9 78.5 C 81.9 91.5, 76.7 49.0, 69.7 42.6 C 81.9 31.1, 2.6 34.9, 2.6 22.3 C 4.4 35.1, 28.8 58.7, 38.5 54.5 " fill="hsl(40, 53%, 69%)" fill-opacity="0.41" stroke="none" stroke-width="4.44"  transform="translate(95.8 72.6) rotate(125.4) scale(1.70 1.22)" />
<rect x="45.6" y="30.7" width="24.4" height="36.0" rx="6.1" fill="hsl(40, 53%, 69%)" fill-opacity="0.38"   transform="translate(98.2 4.7) rotate(96.5) scale(1.77 1.97)" />
<path d="M 84.2 26.6 C 72.7 39.9, 24.4 25.2, 26.1 37.4 C 43.4 48.5, 66.0 65.4, 62.0 71.4 C 62.1 83.4, 69.6 36.1, 55.2 28.1 C 62.8 36.9, 76.3 60.3, 88.0 59.9 C 100.0 64.1, 72.9 47.7, 80.7 58.1 C 89.8 75.1, 71.7 89.3, 67.5 82.0 C 64.1 63.6, 77.2 66.6, 77.9 67.2 C 84.5 58.7, 99.2 32.6, 96.7 40.6 C 100.0 44.6, 0.0 26.4, 2.7 27.9 C 5.1 11.2, 56.0 70.3, 62.1 55.7 Z" fill="none" fill-opacity="0.76" stroke="hsl(104, 72%, 65%)" stroke-width="0.87"  transform="translate(37.7 99.1) rotate(155.6) scale(0.91 1.78)" />
<path d="M 29.3 79.0 C 49.3 71.2, 80.2 57.6, 76.9 60.3 C 80.9 59.2, 58.2 52.3, 72.4 60.5 C 89.5 67.9, 84.1 16.6, 80.0 10.5 C 90.9 24.5, 58.8 81.8, 49.4 70.3 C 35.3 51.6, 100.0 43.7, 95.5 47.4 C 100.0 51.5, 67.1 51.3, 71.4 59.7 C 83.9 58.8, 84.2 39.2, 81.6 37.5 C 94.1 40.3, 12.4 6.5, 23.5 11.8 C 16.1 4.9, 49.0 65.4, 41.0 79.1 Z" fill="hsl(40, 53%, 69%)" fill-opacity="0.95" stroke="none" stroke-width="3.21"  transform="translate(23.1 4.5) rotate(173.9) scale(1.92 1.95)" />
<rect x="44.5" y="42.7" width="35.2" height="13.2" rx="0" fill="none" fill-opacity="0.61"   transform="translate(44.5 39.2) rotate(115.6) scale(0.92 0.68)" />
<path d="M 98.9 22.9 C 86.5 3.9, 0.0 72.2, 6.8 61.1 C 7.7 59.8, 15.7 70.8, 8.0 70.5 C 0.0 80.2, 100.0 10.4, 94.7 11.6 C 80.1 0.0, 82.3 22.7, 72.1 33.5 C 85.9 50.7, 52.3 37.1, 50.0 48.0 C 63.7 30.1, 34.3 13.8, 22.2 1.0 Z" fill="hsl(86, 72%, 68%)" fill-opacity="0.32" stroke="none" stroke-width="4.63"  transform="translate(73.3 53.6) rotate(230.8) scale(1.40 0.51)" />
<rect x="70.6" y="22.4" width="26.4" height="29.8" rx="4.4" fill="hsl(242, 72%, 49%)" fill-opacity="0.53"  filter="url(#f1)" transform="translate(45.3 15.9) rotate(342.2) scale(0.97 1.48)" />
<path d="M 58.1 62.7 C 74.3 45.1, 87.5 9.8, 78.9 5.2 C 70.5 1.5, 13.6 0.0, 25.4 9.2 C 14.0 25.9, 53.8 70.7, 57.7 80.1 C 58.5 80.7, 29.7 46.5, 14.7 37.8 C 33.9 52.9, 85.2 7.2, 90.5 16.1 C 93.5 20.0, 27.5 83.2, 18.1 78.6 C 15.9 66.1, 67.9 69.4, 77.5 84.3 Z" fill="hsl(290, 83%, 63%)" fill-opacity="0.97" stroke="none" stroke-width="3.92" filter="url(#f1)" transform="translate(16.7 32.1) rotate(89.7) scale(0.74 0.55)" />
<rect x="37.7" y="19.3" width="20.0" height="10.6" rx="16.2" fill="hsl(106, 75%, 59%)" fill-opacity="0.42" stroke="hsl(183, 71%, 60%)" stroke-width="4.5"   />
<path d="M 45.2 93.7 C 47.9 86.1, 52.4 77.7, 63.5 79.4 C 64.7 74.3, 86.0 2.4, 74.2 16.9 C 82.4 4.6, 29.4 41.6, 20.7 43.0 C 38.7 23.0, 77.1 96.1, 86.3 99.7 C 66.5 93.4, 37.8 24.4, 27.2 32.9 C 30.8 24.4, 0.0 54.1, 8.6 59.4 C 13.1 49.8, 42.5 17.1, 30.1 22.2 C 23.7 12.0, 37.4 25.7, 34.5 28.2 C 48.6 40.2, 88.4 99.7, 81.8 92.0 " fill="hsl(290, 83%, 63%)" fill-opacity="0.85" stroke="none" stroke-width="4.28" filter="url(#f1)" transform="translate(7.0 68.4) rotate(258.2) scale(0.69 1.74)" />
<path d="M 56.1 65.9 C 39.2 47.1, 73.8 39.4, 72.0 39.7 C 81.0 27.8, 50.7 89.7, 61.5 87.8 C 47.5 77.9, 5.6 75.3, 16.1 62.8 C 21.9 55.3, 62.7 91.6, 63.8 86.5 C 66.2 93.5, 54.6 42.9, 56.9 41.7 C 72.5 56.4, 55.0 90.8, 50.2 93.4 C 53.2 83.2, 95.3 87.7, 87.1 73.0 Z" fill="none" fill-opacity="0.63" stroke="hsl(151, 70%, 62%)" stroke-width="2.26" filter="url(#f1)" transform="translate(43.1 62.8) rotate(307.3) scale(1.54 1.08)" />
<rect x="35.8" y="52.0" width="24.9" height="34.9" rx="0" fill="hsl(151, 70%, 62%)" fill-opacity="0.46"   transform="translate(76.0 6.8) rotate(48.3) scale(0.82 0.59)" />
<rect x="2.4" y="24.6" width="49.5" height="35.8" rx="12.4" fill="none" fill-opacity="0.72" stroke="hsl(322, 74%, 44%)" stroke-width="2.1" filter="url(#f1)" transform="translate(78.3 94.9) rotate(30.6) scale(1.82 1.45)" />
<path d="M 28.3 32.1 C 42.0 41.9, 87.8 49.8, 75.3 44.8 C 56.9 41.5, 37.4 58.4, 26.1 67.5 C 45.3 70.1, 33.7 0.0, 38.5 13.3 C 20.0 16.7, 27.3 65.0, 36.4 59.3 C 20.7 72.3, 21.7 71.0, 27.2 62.1 C 35.4 56.2, 100.0 65.9, 89.7 80.6 Z" fill="hsl(106, 75%, 59%)" fill-opacity="0.79" stroke="none" stroke-width="1.72"   />
<rect x="46.1" y="60.7" width="49.6" height="19.8" rx="0" fill="none" fill-opacity="0.89" stroke="hsl(83, 65%, 44%)" stroke-width="1.5"  transform="translate(30.3 27.0) rotate(330.9) scale(1.37 1.22)" />
<rect x="58.4" y="52.3" width="30.0" height="25.3" rx="19.5" fill="hsl(106, 75%, 59%)" fill-opacity="0.77" stroke="hsl(322, 74%, 44%)" stroke-width="3.0"  transform="translate(31.1 5.7) rotate(335.7) scale(1.05 1.46)" />
<rect x="59.4" y="42.3" width="36.1" height="39.7" rx="14.9" fill="hsl(290, 83%, 63%)" fill-opacity="0.75"   transform="translate(68.7 88.3) rotate(240.5) scale(1.42 1.91)" />
<path d="M 46.3 12.9 C 63.6 5.4, 35.4 90.4, 45.6 81.7 C 50.8 64.5, 63.7 70.2, 68.4 70.9 C 65.2 57.6, 61.8 8.0, 71.5 18.8 C 87.7 19.6, 98.0 33.8, 98.4 38.8 C 100.0 30.1, 100.0 74.5, 89.3 63.2 C 70.3 53.4, 36.4 100.0, 33.0 93.4 C 38.3 73.6, 75.4 43.1, 83.5 41.4 C 95.8 31.9, 77.8 64.9, 62.9 77.4 C 64.7 72.6, 6.7 21.1, 11.9 24.5 C 0.0 30.9, 83.0 30.4, 87.9 20.9 Z" fill="hsl(86, 72%, 68%)" fill-opacity="0.58" stroke="none" stroke-width="1.38" filter="url(#f1)" transform="translate(38.4 39.0) rotate(261.9) scale(1.03 1.62)" />
<path d="M 94.9 82.7 C 97.3 100.0, 37.5 26.2, 35.7 27.7 C 33.6 12.2, 26.6 42.5, 20.5 46.6 C 36.6 43.1, 9.8 28.6, 12.1 20.2 C 14.4 14.8, 91.5 74.9, 77.4 73.0 C 67.0 85.2, 82.5 9.8, 94.7 4.5 C 100.0 0.0, 14.7 36.8, 1.9 45.1 C 3.7 39.6, 84.0 23.7, 73.8 33.3 C 56.0 20.6, 77.5 88.5, 66.9 79.3 Z" fill="none" fill-opacity="0.56" stroke="hsl(144, 86%, 72%)" stroke-width="4.33"   />
<path d="M 86.8 9.2 C 86.4 0.0, 27.8 77.7, 20.6 76.6 C 36.9 65.1, 0.6 65.4, 15.4 74.0 C 23.1 63.9, 16.8 49.7, 5.3 39.5 C 14.7 33.9, 71.7 89.5, 76.9 76.8 C 78.5 72.5, 61.9 38.0, 73.7 23.8 C 69.8 36.3, 49.6 44.7, 48.5 33.6 C 31.7 47.3, 10.9 12.9, 6.2 16.6 Z" fill="none" fill-opacity="0.29" stroke="hsl(86, 72%, 68%)" stroke-width="2.42"   />
<path d="M 57.5 65.1 C 54.7 84.2, 2.2 100.0, 3.9 97.1 C 6.1 81.9, 51.5 34.2, 65.9 45.1 C 49.5 56.4, 3.0 36.4, 11.8 45.8 C 4.7 48.2, 60.3 66.2, 56.1 72.3 C 64.0 53.8, 13.7 27.3, 26.0 15.2 C 42.2 14.1, 47.3 42.9, 42.3 38.0 " fill="hsl(86, 72%, 68%)" fill-opacity="0.59" stroke="none" stroke-width="1.51"   />
<path d="M 94.7 43.3 C 79.3 51.4, 56.6 96.6, 54.4 87.0 C 42.7 87.5, 4.7 23.4, 0.6 15.3 C 0.0 29.5, 34.3 90.5, 46.8 83.0 C 39.6 67.7, 94.4 100.0, 82.4 95.3 C 100.0 100.0, 21.6 75.0, 25.8 72.5 C 18.8 71.5, 50.8 9.7, 45.3 15.2 C 57.5 20.3, 0.0 3.6, 3.8 9.8 C 8.3 0.0, 84.9 2.1, 79.7 1.1 C 76.3 0.0, 48.9 51.6, 45.1 62.9 C 49.9 66.0, 49.9 30.2, 47.2 27.6 Z" fill="hsl(86, 72%, 68%)" fill-opacity="0.54" stroke="none" stroke-width="0.88"   />
<rect x="24.5" y="41.1" width="49.2" height="20.6" rx="0" fill="hsl(183, 71%, 60%)" fill-opacity="0.78"   transform="translate(18.3 20.7) rotate(302.9) scale(1.99 1.77)" />
<path d="M 19.8 85.4 C 2.8 77.5, 72.1 55.5, 79.2 66.7 C 85.8 83.5, 25.0 52.0, 27.7 44.7 C 16.8 30.8, 6.2 16.5, 1.5 16.3 C 0.0 23.7, 34.4 16.8, 35.4 17.9 C 33.3 3.6, 36.5 0.0, 41.0 4.6 C 28.0 6.0, 80.3 84.5, 68.6 92.1 C 64.9 96.5, 40.1 10.0, 50.5 18.1 C 68.9 16.1, 100.0 63.2, 92.2 66.4 C 94.5 52.2, 87.2 39.0, 91.4 27.9 Z" fill="hsl(322, 74%, 44%)" fill-opacity="0.74" stroke="none" stroke-width="1.59" filter="url(#f1)" transform="translate(78.9 67.1) rotate(142.6) scale(1.14 0.78)" />
<rect x="42.7" y="36.1" width="45.7" height="16.3" rx="0" fill="none" fill-opacity="0.59"  filter="url(#f1)" transform="translate(75.1 94.7) rotate(45.1) scale(1.75 0.74)" />
<path d="M 47.5 0.4 C 29.4 7.3, 89.1 50.1, 87.4 62.4 C 97.6 65.1, 7.0 81.1, 4.5 73.3 C 12.3 74.0, 4.3 88.7, 15.6 81.4 C 27.8 93.7, 67.2 61.4, 54.6 50.0 C 44.5 63.1, 60.2 14.1, 52.3 21.5 C 67.2 17.8, 2.8 86.9, 6.7 77.1 C 4.3 65.1, 85.9 63.5, 95.5 71.0 C 100.0 74.0, 40.2 55.5, 38.1 44.8 C 55.0 59.4, 64.0 62.8, 57.8 48.8 Z" fill="none" fill-opacity="0.38" stroke="hsl(322, 74%, 44%)" stroke-width="3.75"  transform="translate(76.0 34.5) rotate(359.5) scale(0.55 0.68)" />
<circle cx="31.1" cy="18.4" r="8.8" fill="url(#g1)" fill-opacity="0.63"   />
<path d="M 53.1 68.7 C 59.1 82.6, 98.9 56.2, 99.7 48.3 C 100.0 61.1, 75.6 23.5, 73.4 28.5 C 55.5 36.7, 100.0 60.8, 95.7 56.2 C 96.8 36.5, 30.4 17.8, 39.4 24.1 C 38.8 28.7, 30.1 51.1, 22.4 45.1 C 29.8 41.1, 0.9 12.4, 14.6 1.9 C 26.0 0.0, 63.9 25.3, 73.8 33.2 C 74.9 37.4, 33.8 63.4, 21.4 50.0 " fill="none" fill-opacity="0.73" stroke="hsl(104, 72%, 65%)" stroke-width="5.10"  transform="translate(67.5 41.2) rotate(296.6) scale(0.70 1.02)" />
<path d="M 0.2 24.3 C 0.0 35.3, 53.5 56.6, 48.0 57.7 C 35.8 68.5, 38.6 100.0, 50.9 98.1 C 62.6 83.3, 79.9 44.8, 73.3 43.0 C 70.5 38.7, 55.7 60.0, 55.6 58.2 C 48.7 41.0, 53.4 79.5, 53.5 92.8 C 63.1 97.3, 17.5 58.6, 19.0 60.0 C 30.6 68.8, 79.3 0.0, 77.5 0.2 C 79.3 15.5, 79.7 39.9, 71.4 35.5 C 63.9 16.0, 65.7 19.7, 76.1 26.0 C 94.2 20.1, 98.0 33.5, 86.6 40.4 Z" fill="hsl(106, 75%, 59%)" fill-opacity="0.45" stroke="none" stroke-width="4.78"  transform="translate(72.2 23.6) rotate(148.8) scale(1.90 0.64)" />
<rect x="18.8" y="39.7" width="35.5" height="23.9" rx="17.0" fill="none" fill-opacity="0.59"  filter="url(#f1)" transform="translate(25.8 61.0) rotate(239.2) scale(1.39 1.52)" />
<path d="M 18.3 53.5 C 22.9 48.1, 89.4 97.7, 81.0 89.4 C 81.2 75.9, 90.5 92.3, 87.9 94.3 C 100.0 100.0, 60.8 24.3, 49.7 14.6 C 59.8 1.1, 45.4 68.2, 51.2 65.5 C 49.0 47.5, 47.8 20.4, 33.0 19.1 C 16.2 22.9, 5.4 85.3, 18.4 90.0 C 9.0 94.8, 60.1 14.7, 47.5 1.8 C 29.1 6.8, 10.2 40.1, 15.3 49.8 C 22.5 57.5, 28.4 31.4, 30.7 40.6 Z" fill="hsl(2, 82%, 55%)" fill-opacity="0.90" stroke="none" stroke-width="1.89"  transform="translate(43.8 17.4) rotate(111.5) scale(1.98 1.37)" />
<path d="M 88.0 33.1 C 100.0 51.1, 94.8 99.5, 83.4 99.2 C 77.7 84.0, 38.7 68.5, 40.8 54.1 C 40.2 69.7, 32.7 29.1, 26.9 30.0 C 9.1 29.5, 24.1 22.6, 38.8 27.1 C 38.4 18.9, 69.2 80.1, 78.0 94.1 C 95.8 90.4, 4.1 90.1, 15.7 88.0 C 21.4 89.3, 85.7 56.4, 80.3 62.9 C 60.5 76.1, 50.1 59.4, 47.0 69.3 C 51.2 86.0, 38.2 18.0, 45.5 24.0 C 41.9 40.0, 45.5 5.1, 49.5 5.7 Z" fill="hsl(86, 72%, 68%)" fill-opacity="0.89" stroke="none" stroke-width="1.57"  transform="translate(59.9 86.8) rotate(152.5) scale(1.19 1.30)" />
<path d="M 7.8 53.8 C 26.1 61.8, 6.9 27.3, 2.4 18.4 C 0.0 29.2, 18.3 77.2, 16.7 81.6 C 0.0 97.4, 2.0 41.2, 5.4 42.3 C 6.9 37.9, 89.0 91.7, 99.6 98.8 C 87.0 88.5, 20.4 76.3, 18.9 70.4 C 3.1 80.9, 78.4 44.6, 63.9 51.2 Z" fill="none" fill-opacity="0.47" stroke="hsl(40, 53%, 69%)" stroke-width="3.27"  transform="translate(56.1 77.4) rotate(297.7) scale(0.67 1.66)" />
<path d="M 37.3 3.1 C 18.3 0.0, 82.9 24.0, 75.0 34.8 C 55.6 50.9, 96.4 65.3, 100.0 70.0 C 93.2 86.1, 8.0 66.6, 8.2 61.6 C 9.7 56.5, 28.0 64.9, 16.2 62.7 C 35.6 51.0, 5.3 100.0, 11.6 85.6 C 16.3 98.4, 77.9 14.4, 91.7 20.4 C 90.7 12.5, 12.9 42.1, 7.5 48.4 C 7.9 34.6, 82.0 55.1, 94.9 65.2 C 100.0 51.6, 89.4 51.1, 96.0 53.5 C 81.7 66.0, 58.5 76.4, 53.1 78.6 " fill="hsl(86, 72%, 68%)" fill-opacity="0.66" stroke="none" stroke-width="4.10"  transform="translate(49.4 22.7) rotate(358.0) scale(1.14 1.13)" />
<g opacity="0.030">
<rect x="0" y="0" width="1" height="100" fill="black" />
<rect x="22" y="0" width="1" height="100" fill="black" />
<rect x="44" y="0" width="1" height="100" fill="black" />
<rect x="66" y="0" width="1" height="100" fill="black" />
<rect x="88" y="0" width="1" height="100" fill="black" />
<rect x="0" y="0" width="100" height="1" fill="black" />
<rect x="0" y="22" width="100" height="1" fill="black" />
<rect x="0" y="44" width="100" height="1" fill="black" />
<rect x="0" y="66" width="100" height="1" fill="black" />
<rect x="0" y="88" width="100" height="1" fill="black" />
</g>

</svg>
