<?xml version="1.0" encoding="UTF-8"?>
<svg xmlns="http://www.w3.org/2000/svg" width="100" height="100" viewBox="0 0 100 100">
<defs>
<linearGradient id="g0" x1="0%" y1="0%" x2="100%" y2="100%">
<stop offset="0.0%" stop-color="hsl(106, 75%, 59%)" />
<stop offset="33.3%" stop-color="hsl(183, 71%, 60%)" />
<stop offset="66.7%" stop-color="hsl(242, 72%, 49%)" />
<stop offset="100.0%" stop-color="hsl(322, 74%, 44%)" />
</linearGradient>
<linearGradient id="g1" x1="0%" y1="0%" x2="100%" y2="100%">
<stop offset="0.0%" stop-color="hsl(290, 83%, 63%)" />
<stop offset="33.3%" stop-color="hsl(2, 82%, 55%)" />
<stop offset="66.7%" stop-color="hsl(86, 72%, 68%)" />
<stop offset="100.0%" stop-color="hsl(83, 65%, 44%)" />
</linearGradient>
<linearGradient id="g2" x1="0%" y1="0%" x2="100%" y2="100%">
<stop offset="0.0%" stop-color="hsl(40, 53%, 69%)" />
<stop offset="33.3%" stop-color="hsl(104, 72%, 65%)" />
<stop offset="66.7%" stop-color="hsl(144, 86%, 72%)" />
<stop offset="100.0%" stop-color="hsl(151, 70%, 62%)" />
</linearGradient>
</defs>

<circle cx="7.6" cy="31.3" r="0.3" fill="hsl(242, 72%, 49%)" fill-opacity="0.95"  transform="translate(8.6 35.2) rotate(93.1) scale(1.55 0.71)" />
<circle cx="79.1" cy="22.6" r="0.8" fill="hsl(2, 82%, 55%)" fill-opacity="0.67"  transform="translate(18.6 47.9) rotate(152.6) scale(0.68 0.65)" />
<path d="M 33.6 32.3 C 16.9 16.6, 0.0 0.0, 7.9 3.2 C 9.4 15.6, 100.0 78.5, 99.2 90.6 C 82.2 74.8, 86.1 3.8, 78.2 14.2 " fill="hsl(106, 75%, 59%)" fill-opacity="0.96" stroke="none" stroke-width="0.97"  transform="translate(78.3 3.4) rotate(195.1) scale(0.80 0.51)" />
<rect x="28.5" y="74.5" width="22.2" height="20.4" rx="0" fill="none" fill-opacity="0.30"    />
<circle cx="59.0" cy="56.8" r="1.0" fill="hsl(322, 74%, 44%)" fill-opacity="0.90"  transform="translate(74.2 43.6) rotate(121.6) scale(1.40 1.44)" />
<path d="M 53.0 24.1 C 50.7 15.1, 21.1 23.1, 17.3 20.0 C 0.0 24.0, 42.2 9.7, 36.1 5.0 C 17.9 0.0, 43.4 20.7, 36.8 18.3 C 46.4 17.5, 39.7 59.1, 27.0 56.0 C 38.7 53.4, 58.3 60.9, 66.7 55.0 C 65.2 48.4, 21.3 88.2, 14.1 76.6 C 6.2 57.5, 32.9 53.7, 44.3 42.9 " fill="hsl(151, 70%, 62%)" fill-opacity="0.46" stroke="none" stroke-width="0.92"   />
<path d="M 75.7 74.4 C 81.7 69.8, 30.9 70.9, 38.4 75.7 C 39.7 79.3, 13.5 56.1, 10.7 46.2 C 23.3 59.6, 72.1 10.1, 77.4 22.8 C 88.3 23.8, 94.5 4.6, 98.7 11.7 C 86.3 0.0, 56.6 7.5, 63.5 14.1 " fill="hsl(83, 65%, 44%)" fill-opacity="0.98" stroke="none" stroke-width="0.84"   />
<path d="M 53.7 93.5 C 33.7 100.0, 77.8 63.5, 76.7 77.2 C 64.8 75.7, 44.6 38.6, 34.8 26.1 C 16.9 24.6, 31.5 8.6, 36.0 22.2 Z" fill="none" fill-opacity="0.61" stroke="hsl(106, 75%, 59%)" stroke-width="0.85"   />
<circle cx="52.0" cy="89.5" r="0.5" fill="hsl(2, 82%, 55%)" fill-opacity="0.56"  transform="translate(32.4 36.6) rotate(235.1) scale(0.65 0.99)" />
<rect x="5.8" y="51.6" width="49.0" height="21.0" rx="16.6" fill="hsl(144, 86%, 72%)" fill-opacity="0.75"    />
<path d="M 91.5 75.6 C 74.9 86.8, 73.9 95.3, 77.7 87.2 C 86.9 99.3, 77.8 21.0, 91.9 35.4 C 97.1 54.7, 31.3 34.4, 45.8 23.7 C 53.5 14.6, 46.9 0.0, 50.1 11.1 C 46.6 0.0, 93.8 48.5, 82.1 47.0 " fill="hsl(86, 72%, 68%)" fill-opacity="0.66" stroke="none" stroke-width="1.07"   />
<path d="M 89.0 69.3 C 92.5 62.6, 64.7 97.2, 60.5 86.9 C 77.8 85.3, 59.3 17.2, 48.2 5.7 C 63.8 0.4, 7.5 2.8, 17.0 14.5 C 0.0 21.3, 0.6 94.4, 4.5 88.8 C 0.0 71.8, 73.2 10.3, 85.8 18.2 C 78.9 0.0, 96.0 87.3, 85.4 85.1 Z" fill="hsl(151, 70%, 62%)" fill-opacity="0.85" stroke="none" stroke-width="1.02"  transform="translate(14.4 38.4) rotate(170.3) scale(1.93 0.94)" />
<rect x="27.0" y="22.4" width="20.3" height="22.4" rx="5.0" fill="hsl(144, 86%, 72%)" fill-opacity="0.20"    />
<rect x="5.0" y="49.2" width="41.5" height="19.9" rx="0" fill="hsl(2, 82%, 55%)" fill-opacity="0.90"   transform="translate(73.7 82.4) rotate(179.8) scale(1.72 1.59)" />
</svg>
