<?xml version="1.0" encoding="UTF-8"?>
<svg xmlns="http://www.w3.org/2000/svg" width="100" height="100" viewBox="0 0 100 100">
<defs>
<linearGradient id="g0" x1="0%" y1="0%" x2="100%" y2="100%">
<stop offset="0.0%" stop-color="hsl(106, 75%, 59%)" />
<stop offset="33.3%" stop-color="hsl(183, 71%, 60%)" />
<stop offset="66.7%" stop-color="hsl(242, 72%, 49%)" />
<stop offset="100.0%" stop-color="hsl(322, 74%, 44%)" />
</linearGradient>
<linearGradient id="g1" x1="0%" y1="0%" x2="100%" y2="100%">
<stop offset="0.0%" stop-color="hsl(290, 83%, 63%)" />
<stop offset="33.3%" stop-color="hsl(2, 82%, 55%)" />
<stop offset="66.7%" stop-color="hsl(86, 72%, 68%)" />
<stop offset="100.0%" stop-color="hsl(83, 65%, 44%)" />
</linearGradient>
<linearGradient id="g2" x1="0%" y1="0%" x2="100%" y2="100%">
<stop offset="0.0%" stop-color="hsl(40, 53%, 69%)" />
<stop offset="33.3%" stop-color="hsl(104, 72%, 65%)" />
<stop offset="66.7%" stop-color="hsl(144, 86%, 72%)" />
<stop offset="100.0%" stop-color="hsl(151, 70%, 62%)" />
</linearGradient>
</defs>

<rect x="11.5" y="23.7" width="39.3" height="36.1" rx="0" fill="none" fill-opacity="0.43"   transform="translate(57.8 96.1) rotate(158.3) scale(1.65 0.51)" />
<path d="M 23.7 68.7 C 19.3 79.6, 81.6 67.4, 91.1 63.5 C 84.0 62.1, 57.1 0.0, 65.5 6.0 C 75.4 0.0, 29.4 19.7, 26.7 17.9 " fill="none" fill-opacity="0.49" stroke="hsl(83, 65%, 44%)" stroke-width="0.99"   />
<rect x="12.4" y="47.0" width="45.5" height="14.3" rx="0" fill="hsl(106, 75%, 59%)" fill-opacity="0.25"   transform="translate(8.2 0.3) rotate(295.2) scale(1.70 1.01)" />
<rect x="29.9" y="80.8" width="27.8" height="12.2" rx="0" fill="hsl(242, 72%, 49%)" fill-opacity="0.68"   transform="translate(4.1 75.4) rotate(173.1) scale(1.34 1.35)" />
<path d="M 29.9 53.6 C 25.3 56.2, 33.2 87.0, 46.8 94.6 C 31.2 82.4, 75.6 40.9, 63.3 50.0 C 69.9 53.3, 96.8 97.8, 85.6 87.3 C 74.0 100.0, 43.6 26.5, 42.2 36.2 " fill="hsl(242, 72%, 49%)" fill-opacity="0.82" stroke="none" stroke-width="1.00"  transform="translate(49.6 52.4) rotate(348.4) scale(1.66 1.99)" />
<circle cx="24.9" cy="88.3" r="0.4" fill="hsl(290, 83%, 63%)" fill-opacity="0.67"   />
<path d="M 89.3 50.9 C 93.7 40.3, 82.6 74.2, 81.6 65.0 C 98.2 71.9, 84.8 14.3, 78.9 9.9 C 85.8 1.0, 82.0 66.4, 67.1 73.2 C 71.4 84.6, 61.1 40.6, 70.5 29.2 C 74.9 16.8, 0.0 41.8, 9.0 31.6 C 0.0 39.3, 68.5 48.8, 55.8 47.7 Z" fill="hsl(40, 53%, 69%)" fill-opacity="0.78" stroke="none" stroke-width="1.16"   />
<rect x="2.8" y="42.4" width="31.8" height="27.4" rx="5.2" fill="none" fill-opacity="0.30" stroke="hsl(144, 86%, 72%)" stroke-width="3.2"  transform="translate(28.5 10.5) rotate(302.1) scale(1.37 1.67)" />
<path d="M 20.2 20.8 C 19.7 6.8, 88.1 81.0, 86.4 76.8 C 75.1 93.5, 43.0 63.5, 30.0 78.2 C 14.3 93.0, 15.2 11.3, 19.7 20.7 C 34.3 25.1, 100.0 29.2, 98.2 30.4 " fill="hsl(86, 72%, 68%)" fill-opacity="0.68" stroke="none" stroke-width="0.87"  transform="translate(53.1 5.5) rotate(222.8) scale(1.86 0.87)" />
<circle cx="20.0" cy="58.2" r="1.0" fill="hsl(322, 74%, 44%)" fill-opacity="0.72"  transform="translate(63.2 91.7) rotate(41.4) scale(0.52 0.94)" />
<rect x="42.3" y="62.5" width="37.7" height="23.4" rx="2.7" fill="hsl(83, 65%, 44%)" fill-opacity="0.73"   transform="translate(90.4 57.7) rotate(211.1) scale(1.50 0.75)" />
</svg>
