<?xml version="1.0" encoding="UTF-8"?>
<svg xmlns="http://www.w3.org/2000/svg" width="100" height="100" viewBox="0 0 100 100">
<defs>
<linearGradient id="g0" x1="0%" y1="0%" x2="100%" y2="100%">
<stop offset="0.0%" stop-color="hsl(106, 75%, 59%)" />
<stop offset="33.3%" stop-color="hsl(183, 71%, 60%)" />
<stop offset="66.7%" stop-color="hsl(242, 72%, 49%)" />
<stop offset="100.0%" stop-color="hsl(322, 74%, 44%)" />
</linearGradient>
<linearGradient id="g1" x1="0%" y1="0%" x2="100%" y2="100%">
<stop offset="0.0%" stop-color="hsl(290, 83%, 63%)" />
<stop offset="33.3%" stop-color="hsl(2, 82%, 55%)" />
<stop offset="66.7%" stop-color="hsl(86, 72%, 68%)" />
<stop offset="100.0%" stop-color="hsl(83, 65%, 44%)" />
</linearGradient>
<linearGradient id="g2" x1="0%" y1="0%" x2="100%" y2="100%">
<stop offset="0.0%" stop-color="hsl(40, 53%, 69%)" />
<stop offset="33.3%" stop-color="hsl(104, 72%, 65%)" />
<stop offset="66.7%" stop-color="hsl(144, 86%, 72%)" />
<stop offset="100.0%" stop-color="hsl(151, 70%, 62%)" />
</linearGradient>
<filter id="f1" x="-20%" y="-20%" width="140%" height="140%">
  <feGaussianBlur stdDeviation="1.3030574271148545" />
</filter>

</defs>

<rect x="2.1" y="16.0" width="26.8" height="13.7" rx="18.5" fill="hsl(151, 70%, 62%)" fill-opacity="0.65"  filter="url(#f1)" transform="translate(6.4 63.3) rotate(117.4) scale(1.77 0.50)" />
<rect x="10.9" y="14.1" width="39.9" height="39.5" rx="0" fill="none" fill-opacity="0.81"   transform="translate(61.0 87.0) rotate(169.5) scale(1.28 0.93)" />
<circle cx="18.1" cy="38.8" r="3.2" fill="hsl(322, 74%, 44%)" fill-opacity="0.98" filter="url(#f1)" transform="translate(24.7 12.9) rotate(199.3) scale(1.42 1.92)" />
<path d="M 28.9 84.0 C 25.1 83.7, 26.2 75.4, 24.8 81.1 C 28.8 61.9, 29.9 92.1, 42.5 81.4 C 30.3 64.2, 2.5 52.7, 14.2 39.8 C 15.5 41.2, 53.1 49.8, 64.7 60.4 C 63.9 58.5, 22.9 53.0, 9.3 52.1 C 14.0 42.6, 100.0 73.0, 96.1 65.4 Z" fill="hsl(86, 72%, 68%)" fill-opacity="0.81" stroke="none" stroke-width="3.49"  transform="translate(97.6 37.1) rotate(28.1) scale(1.31 1.32)" />
<circle cx="55.9" cy="27.6" r="12.3" fill="hsl(86, 72%, 68%)" fill-opacity="0.57"  transform="translate(57.8 16.4) rotate(240.4) scale(1.40 1.80)" />
<circle cx="90.2" cy="10.8" r="17.5" fill="hsl(290, 83%, 63%)" fill-opacity="0.99"   />
<path d="M 59.7 56.8 C 71.5 71.4, 13.5 52.7, 17.3 65.7 C 5.2 54.2, 0.0 29.6, 0.4 35.3 C 0.0 16.7, 100.0 34.7, 90.2 33.7 C 73.2 35.2, 71.4 100.0, 58.9 99.3 C 72.0 87.7, 86.6 8.1, 82.2 18.6 C 100.0 25.6, 75.7 79.9, 66.6 88.6 C 66.5 78.7, 32.4 80.9, 30.7 76.1 Z" fill="hsl(83, 65%, 44%)" fill-opacity="0.31" stroke="none" stroke-width="2.95"  transform="translate(29.8 57.7) rotate(80.4) scale(0.99 1.73)" />
<circle cx="38.2" cy="84.2" r="4.4" fill="hsl(86, 72%, 68%)" fill-opacity="0.55"  transform="translate(0.3 43.8) rotate(1.8) scale(0.67 1.32)" />
<path d="M 42.2 56.3 C 47.4 52.0, 88.9 53.8, 97.1 57.9 C 88.7 49.4, 100.0 76.6, 98.3 77.9 C 87.9 86.4, 51.9 16.9, 58.2 9.4 C 58.0 4.1, 84.0 9.3, 98.8 24.0 C 100.0 41.9, 85.9 83.2, 90.3 81.1 C 86.6 83.5, 26.6 13.0, 14.6 14.5 C 10.5 21.7, 74.1 16.9, 61.0 16.5 C 50.4 5.8, 27.2 91.1, 26.5 94.1 C 34.7 90.6, 54.7 27.6, 51.3 32.5 C 31.4 27.2, 0.0 50.7, 4.6 49.6 " fill="hsl(104, 72%, 65%)" fill-opacity="0.66" stroke="none" stroke-width="2.43"  transform="translate(74.7 73.2) rotate(274.0) scale(1.71 1.16)" />
<path d="M 98.1 75.6 C 87.8 72.4, 0.6 70.9, 15.5 81.1 C 22.8 61.4, 38.9 99.7, 29.7 93.9 C 14.4 100.0, 31.9 91.0, 20.2 82.4 C 29.1 79.9, 12.2 20.1, 20.9 35.1 C 9.8 18.6, 22.1 5.4, 24.1 17.6 C 16.5 32.8, 75.0 88.9, 63.6 79.3 C 55.0 74.9, 23.6 62.3, 10.7 66.5 C 4.2 52.6, 57.3 29.3, 70.9 17.7 Z" fill="hsl(106, 75%, 59%)" fill-opacity="0.87" stroke="none" stroke-width="1.44"   />
<path d="M 4.5 56.5 C 0.0 59.8, 18.2 77.1, 28.2 70.3 C 29.5 58.3, 69.3 38.8, 80.9 51.2 C 93.0 43.7, 36.0 62.8, 43.5 75.0 C 25.8 58.5, 68.0 5.7, 80.3 13.8 C 80.9 21.3, 0.4 54.3, 6.4 41.8 C 3.2 45.7, 43.3 40.1, 48.2 45.8 C 42.9 61.2, 8.2 56.6, 20.1 63.6 C 5.5 45.7, 85.5 59.2, 90.0 62.4 C 100.0 43.8, 2.8 46.8, 15.5 56.5 Z" fill="none" fill-opacity="0.63" stroke="hsl(290, 83%, 63%)" stroke-width="1.31"  transform="translate(71.1 40.4) rotate(262.3) scale(1.52 1.09)" />
<path d="M 85.8 20.0 C 66.2 11.7, 53.1 44.8, 55.0 56.5 C 38.0 56.9, 94.2 80.4, 85.7 76.6 C 100.0 72.8, 47.3 100.0, 41.2 96.7 C 33.7 100.0, 62.5 28.3, 64.2 17.2 C 70.6 24.7, 25.6 68.4, 25.5 56.9 C 29.5 39.3, 50.8 100.0, 45.7 97.6 Z" fill="hsl(2, 82%, 55%)" fill-opacity="0.70" stroke="none" stroke-width="2.66" filter="url(#f1)"  />
<path d="M 19.2 86.3 C 21.9 98.7, 33.0 86.9, 35.3 98.3 C 37.3 95.5, 85.1 35.2, 76.8 32.0 C 69.9 50.5, 75.9 4.1, 68.4 4.6 C 80.9 10.8, 8.7 42.8, 0.1 28.5 C 8.3 42.0, 100.0 73.1, 99.7 60.0 C 100.0 44.4, 68.6 86.2, 64.5 87.1 C 51.3 97.2, 55.1 76.7, 61.8 64.8 C 71.5 70.0, 63.4 55.0, 65.5 44.0 C 61.7 31.5, 62.9 8.6, 56.1 16.4 C 56.4 33.7, 25.0 20.0, 33.2 28.7 Z" fill="hsl(322, 74%, 44%)" fill-opacity="0.78" stroke="none" stroke-width="1.09"  transform="translate(24.8 88.0) rotate(248.3) scale(1.86 1.08)" />
<path d="M 74.0 75.7 C 70.2 95.4, 29.6 49.1, 39.4 40.7 C 58.3 39.2, 28.8 40.5, 18.0 35.8 C 5.7 24.9, 90.2 46.7, 84.9 34.6 C 80.8 20.9, 28.0 43.4, 15.6 33.4 C 13.1 40.3, 41.3 32.9, 34.4 31.1 C 14.7 47.0, 53.9 13.9, 67.7 13.7 C 55.3 19.1, 14.0 49.7, 4.3 45.7 C 0.0 58.6, 25.8 54.4, 28.6 46.0 Z" fill="none" fill-opacity="0.77" stroke="hsl(322, 74%, 44%)" stroke-width="2.84"  transform="translate(60.6 44.1) rotate(6.0) scale(1.98 0.53)" />
<path d="M 29.2 94.9 C 40.2 100.0, 100.0 20.3, 99.3 23.7 C 91.1 9.4, 33.8 21.4, 28.0 9.2 C 12.2 8.4, 66.3 75.7, 56.8 80.4 C 55.2 65.9, 95.3 0.0, 99.9 3.6 C 100.0 0.0, 48.3 45.5, 36.9 31.1 C 52.1 27.6, 76.7 71.4, 85.3 62.0 C 76.9 45.3, 67.8 85.7, 72.3 79.5 Z" fill="hsl(242, 72%, 49%)" fill-opacity="0.44" stroke="none" stroke-width="3.57" filter="url(#f1)"  />
<path d="M 0.0 92.1 C 1.4 85.8, 17.3 32.7, 4.2 44.1 C 14.9 52.5, 47.1 66.7, 53.3 76.6 C 64.3 92.8, 0.0 12.7, 6.7 3.0 C 19.0 0.0, 81.9 57.4, 96.5 57.4 C 100.0 65.5, 74.7 0.0, 87.1 8.0 C 67.3 0.0, 44.2 82.5, 51.3 91.0 C 37.3 72.8, 13.6 78.2, 12.9 88.2 C 9.9 79.6, 63.8 83.9, 52.8 80.4 C 59.9 69.0, 45.1 1.6, 44.5 11.1 " fill="hsl(40, 53%, 69%)" fill-opacity="0.98" stroke="none" stroke-width="3.60"  transform="translate(9.4 95.2) rotate(223.7) scale(1.31 1.77)" />
<rect x="61.0" y="74.9" width="35.1" height="14.2" rx="0" fill="none" fill-opacity="0.65"   transform="translate(60.5 52.9) rotate(120.9) scale(0.61 1.41)" />
<path d="M 38.1 81.9 C 26.5 82.7, 0.0 81.6, 6.7 69.4 C 15.1 78.6, 69.2 78.1, 57.8 74.6 C 51.1 56.7, 47.0 26.8, 49.7 14.1 C 68.2 5.9, 26.9 47.3, 36.0 56.2 C 53.3 45.6, 50.9 76.2, 49.3 75.7 C 59.4 63.2, 22.7 100.0, 16.1 99.2 Z" fill="hsl(106, 75%, 59%)" fill-opacity="0.74" stroke="none" stroke-width="5.06"  transform="translate(85.0 24.0) rotate(157.5) scale(1.68 0.71)" />
<path d="M 37.2 17.2 C 19.2 2.7, 66.7 14.4, 78.5 27.4 C 63.2 29.7, 26.9 41.5, 33.9 55.6 C 36.6 52.7, 0.0 1.2, 4.0 14.8 C 15.4 24.7, 80.1 75.5, 71.9 61.2 C 86.0 49.5, 100.0 7.5, 95.8 18.5 C 84.6 22.1, 0.0 92.9, 0.6 89.3 C 0.0 100.0, 65.3 32.0, 61.7 39.6 Z" fill="hsl(83, 65%, 44%)" fill-opacity="0.95" stroke="none" stroke-width="3.99"  transform="translate(86.3 69.7) rotate(44.8) scale(0.96 0.66)" />
<path d="M 0.8 53.9 C 10.5 42.3, 11.5 58.8, 16.6 63.3 C 9.9 55.3, 90.9 17.3, 80.3 3.7 C 91.9 19.4, 67.4 38.0, 54.8 44.2 C 42.5 38.6, 33.9 14.4, 45.9 27.1 C 43.0 31.6, 51.6 61.3, 48.5 57.2 C 58.8 73.1, 60.0 87.4, 47.1 90.4 Z" fill="hsl(106, 75%, 59%)" fill-opacity="0.96" stroke="none" stroke-width="4.34"   />
<path d="M 22.4 71.5 C 39.9 67.6, 36.1 27.5, 28.6 38.8 C 38.0 43.7, 60.0 83.8, 49.5 72.0 C 59.8 67.5, 85.0 61.8, 78.0 47.5 C 79.6 62.6, 27.1 93.9, 26.4 93.5 C 45.3 95.8, 3.3 99.2, 3.1 89.3 C 0.0 94.3, 17.1 79.4, 19.4 76.4 C 3.3 72.0, 12.7 42.7, 4.6 49.6 C 0.0 67.3, 77.5 70.8, 69.0 67.4 Z" fill="none" fill-opacity="0.80" stroke="hsl(290, 83%, 63%)" stroke-width="4.98"  transform="translate(53.6 55.5) rotate(234.1) scale(1.77 0.97)" />
<rect x="13.7" y="26.9" width="26.8" height="25.4" rx="0" fill="hsl(86, 72%, 68%)" fill-opacity="0.60"   transform="translate(19.2 48.9) rotate(28.3) scale(0.97 1.94)" />
<path d="M 96.8 60.5 C 97.9 55.9, 93.8 82.7, 80.8 92.4 C 72.1 74.8, 32.8 5.9, 42.6 15.8 C 30.9 10.1, 82.3 77.8, 67.4 79.4 C 53.3 66.2, 1.9 78.3, 3.3 75.2 C 6.4 93.3, 54.5 91.9, 64.3 96.7 C 66.0 98.8, 98.5 81.7, 91.4 81.7 C 85.6 71.0, 5.6 16.2, 10.9 29.6 Z" fill="none" fill-opacity="0.67" stroke="hsl(242, 72%, 49%)" stroke-width="4.24"  transform="translate(78.5 16.1) rotate(286.2) scale(1.70 1.95)" />
<path d="M 32.8 25.5 C 37.3 34.0, 10.6 88.8, 15.3 97.1 C 33.2 90.8, 67.4 88.8, 56.8 83.4 C 76.5 84.4, 1.9 44.7, 13.5 42.5 C 31.4 60.0, 56.1 38.5, 58.5 45.3 C 56.5 40.4, 89.1 48.1, 98.4 45.5 C 94.1 34.0, 56.4 100.0, 54.5 97.2 C 67.7 100.0, 41.7 13.8, 34.4 27.3 Z" fill="none" fill-opacity="0.31" stroke="hsl(2, 82%, 55%)" stroke-width="3.49"  transform="translate(55.6 31.8) rotate(70.1) scale(0.99 1.33)" />
<path d="M 0.2 58.9 C 0.0 52.7, 82.4 94.2, 93.8 91.6 C 89.3 100.0, 16.9 62.2, 14.2 63.1 C 19.6 63.1, 72.2 29.6, 72.4 21.9 C 78.8 23.1, 42.5 60.9, 29.1 55.4 C 36.1 41.5, 59.8 83.5, 65.8 84.6 C 48.2 84.0, 100.0 71.2, 98.4 79.8 Z" fill="hsl(242, 72%, 49%)" fill-opacity="0.70" stroke="none" stroke-width="4.54" filter="url(#f1)" transform="translate(68.5 13.4) rotate(254.5) scale(1.54 0.86)" />
<path d="M 50.1 14.2 C 37.5 21.0, 5.9 70.2, 2.3 68.7 C 13.7 72.3, 47.9 7.2, 56.8 5.4 C 63.1 0.0, 38.2 47.6, 41.5 52.7 C 21.8 53.5, 0.0 0.0, 3.3 12.0 C 1.2 0.0, 55.4 84.2, 52.3 82.0 C 39.0 85.9, 26.9 32.2, 12.7 42.1 C 21.5 25.9, 43.4 74.5, 49.1 59.7 C 48.9 56.8, 38.7 2.0, 24.2 8.7 Z" fill="none" fill-opacity="0.50" stroke="hsl(144, 86%, 72%)" stroke-width="4.72"  transform="translate(3.1 14.4) rotate(266.1) scale(1.51 1.72)" />
<circle cx="52.9" cy="82.3" r="0.7" fill="hsl(151, 70%, 62%)" fill-opacity="0.55" filter="url(#f1)" transform="translate(74.1 35.4) rotate(204.2) scale(1.73 0.85)" />
<circle cx="78.4" cy="89.0" r="4.3" fill="url(#g1)" fill-opacity="0.49" filter="url(#f1)" transform="translate(25.8 65.5) rotate(49.4) scale(1.91 1.23)" />
<rect x="18.5" y="51.0" width="44.9" height="27.7" rx="5.8" fill="hsl(106, 75%, 59%)" fill-opacity="0.50"   transform="translate(61.6 77.9) rotate(84.0) scale(0.55 0.96)" />
<rect x="34.4" y="0.3" width="38.0" height="18.8" rx="7.8" fill="none" fill-opacity="0.41"    />
<path d="M 11.1 29.6 C 13.7 26.8, 37.8 44.4, 45.3 41.3 C 50.6 56.8, 10.2 83.2, 24.4 94.8 C 43.1 100.0, 44.6 34.2, 37.9 33.4 C 31.6 15.6, 7.8 78.7, 10.8 80.9 C 23.1 79.3, 77.0 28.1, 87.9 19.7 C 83.3 0.0, 33.2 100.0, 36.2 88.9 C 20.3 73.3, 5.7 0.0, 2.1 4.5 C 5.1 12.1, 79.3 38.7, 92.0 43.2 C 93.9 44.5, 99.0 15.5, 93.3 19.9 C 100.0 19.6, 71.9 29.5, 61.5 32.6 " fill="hsl(183, 71%, 60%)" fill-opacity="0.50" stroke="none" stroke-width="3.36"  transform="translate(13.1 97.0) rotate(206.2) scale(0.79 1.57)" />
<path d="M 28.8 43.5 C 39.6 28.7, 52.9 50.6, 52.7 50.1 C 36.3 65.5, 81.9 96.6, 67.1 81.6 C 54.7 99.0, 6.4 84.5, 20.8 70.3 C 33.9 68.9, 78.1 9.3, 69.9 12.8 C 58.8 14.0, 39.7 24.7, 51.9 27.1 C 58.9 38.5, 71.8 64.4, 58.5 63.5 C 48.3 83.3, 0.6 34.6, 10.9 43.9 C 0.0 28.1, 51.6 77.2, 37.9 63.4 C 18.1 64.1, 0.0 62.4, 9.1 53.1 C 28.3 42.4, 23.2 69.0, 33.0 72.8 Z" fill="none" fill-opacity="0.74" stroke="hsl(83, 65%, 44%)" stroke-width="1.17"  transform="translate(84.4 95.2) rotate(140.6) scale(0.68 1.69)" />
<path d="M 81.7 94.0 C 65.9 100.0, 83.6 91.4, 89.8 89.8 C 97.2 92.0, 41.5 57.8, 33.7 57.6 C 40.5 71.9, 65.3 55.5, 78.2 66.0 C 61.8 67.5, 36.4 41.8, 41.8 34.2 C 37.5 17.2, 0.0 59.2, 6.1 67.1 C 6.0 71.8, 34.5 58.8, 37.3 60.0 C 30.5 46.7, 55.1 100.0, 69.5 93.9 C 83.4 100.0, 14.3 14.8, 20.9 25.8 C 2.2 23.6, 40.0 99.2, 30.7 85.5 C 18.9 97.9, 11.7 65.7, 21.3 51.2 Z" fill="hsl(144, 86%, 72%)" fill-opacity="0.85" stroke="none" stroke-width="3.04"  transform="translate(34.7 79.1) rotate(317.8) scale(1.23 1.48)" />
<rect x="11.9" y="22.5" width="24.3" height="33.3" rx="15.5" fill="hsl(40, 53%, 69%)" fill-opacity="0.24"  filter="url(#f1)" transform="translate(23.1 76.1) rotate(79.2) scale(0.73 1.19)" />
<path d="M 26.5 9.9 C 31.9 25.3, 24.4 89.2, 16.4 74.6 C 29.6 80.1, 26.2 64.2, 26.4 57.4 C 10.5 46.3, 28.0 70.6, 42.1 70.8 C 54.1 65.8, 11.3 23.1, 22.5 30.5 C 30.3 30.8, 100.0 98.7, 98.8 92.3 C 100.0 100.0, 100.0 63.8, 98.3 51.9 " fill="none" fill-opacity="0.37" stroke="hsl(151, 70%, 62%)" stroke-width="5.24"  transform="translate(10.7 43.7) rotate(157.5) scale(0.69 1.97)" />
<rect x="38.7" y="10.9" width="39.4" height="15.0" rx="0" fill="hsl(2, 82%, 55%)" fill-opacity="0.84"  filter="url(#f1)" transform="translate(80.8 23.7) rotate(171.2) scale(1.77 0.92)" />
<path d="M 82.9 9.9 C 76.4 0.0, 36.9 20.5, 33.3 33.6 C 29.3 22.1, 18.7 48.1, 27.9 60.4 C 27.6 78.3, 45.8 46.9, 33.6 52.1 C 39.8 51.6, 84.9 33.6, 94.2 21.0 C 85.5 31.4, 77.7 100.0, 68.5 90.5 C 66.1 73.8, 93.3 69.7, 89.6 66.6 C 82.2 86.3, 72.1 67.5, 80.5 66.7 C 69.8 56.4, 1.7 46.4, 7.9 56.7 " fill="none" fill-opacity="0.73" stroke="hsl(104, 72%, 65%)" stroke-width="1.60"  transform="translate(47.2 37.7) rotate(125.6) scale(0.60 0.97)" />
<circle cx="81.0" cy="62.2" r="3.1" fill="url(#g2)" fill-opacity="0.63"  transform="translate(88.4 75.9) rotate(172.4) scale(0.60 1.82)" />
<path d="M 12.6 75.5 C 8.2 84.2, 69.5 47.9, 66.4 44.4 C 67.8 25.6, 73.5 16.3, 60.6 27.0 C 42.5 20.5, 93.8 75.1, 80.6 82.5 C 79.3 100.0, 55.5 96.8, 62.9 94.4 C 73.6 75.6, 68.8 74.4, 69.7 87.1 C 71.2 98.7, 85.2 0.0, 88.8 0.2 C 93.0 18.6, 59.0 42.4, 56.3 46.2 Z" fill="none" fill-opacity="0.61" stroke="hsl(290, 83%, 63%)" stroke-width="4.97" filter="url(#f1)" transform="translate(21.1 21.1) rotate(48.8) scale(1.84 0.65)" />
<path d="M 35.8 51.7 C 23.2 44.9, 51.7 53.9, 57.5 40.7 C 58.3 53.4, 74.5 42.0, 85.8 32.0 C 76.7 39.2, 56.8 28.0, 53.5 34.2 C 38.6 25.5, 9.2 98.7, 14.7 85.0 C 8.8 98.4, 0.0 29.7, 1.0 26.8 C 0.0 42.0, 54.0 79.8, 67.2 74.0 C 79.3 83.5, 34.9 27.5, 27.4 21.1 C 33.2 17.8, 100.0 2.6, 97.7 10.2 C 95.1 5.6, 80.8 0.0, 92.1 12.1 C 100.0 12.0, 55.2 77.8, 45.1 79.8 Z" fill="hsl(83, 65%, 44%)" fill-opacity="0.58" stroke="none" stroke-width="4.59" filter="url(#f1)" transform="translate(21.7 15.5) rotate(285.6) scale(1.42 1.99)" />
<path d="M 27.5 64.7 C 9.4 71.3, 15.8 76.7, 20.0 88.1 C 11.5 100.0, 57.5 8.7, 59.3 21.2 C 45.6 13.4, 88.5 97.9, 91.2 83.0 C 100.0 100.0, 9.4 30.0, 0.3 22.5 C 3.4 22.5, 58.6 25.8, 63.7 19.6 C 73.2 28.1, 70.0 50.4, 72.1 38.9 Z" fill="none" fill-opacity="0.95" stroke="hsl(322, 74%, 44%)" stroke-width="2.65" filter="url(#f1)" transform="translate(24.0 66.5) rotate(173.1) scale(0.76 0.94)" />
<path d="M 52.2 92.5 C 55.0 87.5, 21.8 63.1, 16.3 76.1 C 7.6 77.1, 48.8 31.7, 41.7 43.5 C 30.8 62.6, 29.7 45.2, 16.9 54.4 C 1.5 53.5, 10.6 15.5, 7.9 28.6 C 4.2 39.0, 81.8 0.0, 78.1 0.1 C 85.0 0.0, 0.9 55.6, 4.1 41.1 C 0.0 25.4, 9.9 1.8, 9.1 2.9 C 4.6 0.0, 100.0 17.9, 92.1 4.8 C 75.2 21.9, 100.0 59.9, 93.7 61.5 C 85.2 58.5, 0.0 54.0, 0.2 54.7 Z" fill="none" fill-opacity="0.35" stroke="hsl(2, 82%, 55%)" stroke-width="2.05"  transform="translate(64.7 30.0) rotate(346.6) scale(1.24 1.70)" />
<path d="M 53.9 69.3 C 43.5 62.4, 27.9 37.8, 18.2 31.3 C 25.3 48.6, 39.8 90.1, 33.9 76.9 C 27.4 79.1, 100.0 78.9, 95.4 89.0 C 92.3 100.0, 76.3 87.0, 66.1 79.6 C 49.2 61.3, 29.0 9.2, 40.1 19.6 C 30.6 16.5, 62.2 68.0, 66.8 68.5 " fill="none" fill-opacity="0.72" stroke="hsl(40, 53%, 69%)" stroke-width="1.93"  transform="translate(37.4 80.9) rotate(60.8) scale(1.48 1.47)" />
<path d="M 85.4 28.5 C 93.0 37.5, 86.9 14.0, 72.6 24.7 C 86.7 19.5, 86.8 18.3, 74.2 3.9 C 60.5 8.9, 63.7 0.0, 58.3 1.6 C 51.0 0.0, 36.7 75.2, 35.6 81.0 C 17.5 96.0, 53.2 100.0, 46.0 95.1 C 29.9 87.2, 95.8 100.0, 97.2 95.3 C 94.4 92.3, 59.8 52.2, 50.1 44.5 C 51.2 31.8, 71.9 34.1, 77.5 30.7 C 70.1 13.6, 63.3 79.2, 77.9 78.4 C 80.5 91.8, 12.1 8.7, 7.6 18.7 Z" fill="hsl(106, 75%, 59%)" fill-opacity="0.38" stroke="none" stroke-width="5.29"  transform="translate(2.6 20.0) rotate(221.7) scale(1.96 0.64)" />
<path d="M 39.4 46.0 C 35.3 40.0, 94.5 39.3, 99.8 39.4 C 100.0 34.8, 22.2 11.3, 35.7 10.5 C 36.0 24.8, 72.1 28.8, 59.5 21.9 C 54.2 23.7, 78.6 30.6, 65.6 18.3 C 68.4 19.8, 53.7 60.4, 48.0 61.7 C 47.1 69.6, 95.5 65.3, 83.7 63.0 C 78.1 74.4, 16.9 14.2, 15.0 26.3 C 21.7 23.6, 29.9 38.0, 34.3 31.4 C 41.7 42.1, 91.6 88.5, 84.8 89.4 C 91.4 82.7, 16.3 59.9, 8.7 63.7 Z" fill="none" fill-opacity="0.88" stroke="hsl(242, 72%, 49%)" stroke-width="2.70"  transform="translate(96.2 27.3) rotate(289.8) scale(2.00 1.89)" />
<path d="M 33.2 0.5 C 24.8 0.0, 39.1 59.5, 52.3 47.7 C 62.3 52.3, 74.4 24.4, 64.9 25.2 C 50.1 31.7, 65.0 67.5, 65.4 67.3 C 76.7 75.4, 35.1 22.7, 38.0 12.0 C 42.7 12.9, 26.0 45.4, 12.5 41.4 C 15.3 48.0, 83.1 85.6, 77.6 86.5 C 91.9 98.0, 74.7 0.0, 86.9 5.0 C 70.3 16.4, 74.9 39.3, 89.8 31.1 C 77.8 42.1, 84.0 39.3, 83.5 52.9 C 94.6 45.8, 43.5 29.5, 49.4 26.4 Z" fill="hsl(106, 75%, 59%)" fill-opacity="0.50" stroke="none" stroke-width="2.83"  transform="translate(19.1 40.9) rotate(10.9) scale(0.81 1.12)" />
<rect x="49.7" y="65.8" width="44.9" height="19.0" rx="0" fill="none" fill-opacity="0.79"   transform="translate(13.9 3.1) rotate(100.5) scale(1.43 1.58)" />
<rect x="40.1" y="48.0" width="48.0" height="32.2" rx="0" fill="none" fill-opacity="0.85"   transform="translate(13.1 94.9) rotate(143.2) scale(0.55 0.62)" />
<rect x="20.5" y="55.6" width="43.9" height="10.5" rx="0" fill="hsl(151, 70%, 62%)" fill-opacity="0.32"   transform="translate(82.8 41.8) rotate(297.2) scale(0.70 1.90)" />
<circle cx="76.3" cy="13.1" r="9.7" fill="hsl(290, 83%, 63%)" fill-opacity="0.52"  transform="translate(84.5 60.9) rotate(27.2) scale(1.98 0.63)" />
<rect x="59.0" y="44.0" width="38.7" height="13.2" rx="15.5" fill="hsl(40, 53%, 69%)" fill-opacity="0.72"   transform="translate(60.3 1.2) rotate(163.6) scale(0.59 1.22)" />
<rect x="3.4" y="20.1" width="45.6" height="32.3" rx="0" fill="none" fill-opacity="0.38"   transform="translate(47.9 20.9) rotate(252.2) scale(1.58 1.19)" />
<circle cx="8.7" cy="48.1" r="0.3" fill="url(#g0)" fill-opacity="0.50"  transform="translate(77.6 32.6) rotate(1.7) scale(1.69 0.71)" />
<path d="M 6.5 56.7 C 17.1 70.7, 79.8 24.4, 78.3 22.5 C 64.2 22.9, 58.0 40.6, 68.9 44.6 C 51.2 61.2, 62.7 43.6, 51.5 55.5 C 48.1 43.1, 92.0 35.8, 93.5 31.4 C 98.5 34.1, 36.5 51.2, 22.3 37.5 C 37.8 52.9, 68.2 15.5, 68.3 4.1 C 75.4 18.7, 59.2 31.7, 47.3 27.3 Z" fill="none" fill-opacity="0.73" stroke="hsl(144, 86%, 72%)" stroke-width="2.85"  transform="translate(82.5 67.4) rotate(235.7) scale(0.57 1.56)" />
<path d="M 12.8 18.7 C 0.0 25.1, 30.7 55.9, 26.1 42.8 C 10.6 54.4, 31.7 86.4, 46.6 80.6 C 39.2 68.3, 100.0 30.8, 89.4 24.1 C 70.4 24.2, 42.4 50.9, 41.3 45.0 C 49.7 41.5, 0.0 14.3, 2.1 5.6 C 15.0 0.0, 71.5 60.9, 69.8 63.6 Z" fill="none" fill-opacity="0.60" stroke="hsl(322, 74%, 44%)" stroke-width="3.85"   />
<rect x="1.7" y="12.9" width="41.8" height="33.1" rx="0" fill="none" fill-opacity="0.71" stroke="hsl(40, 53%, 69%)" stroke-width="3.7"  transform="translate(48.0 1.5) rotate(341.8) scale(0.87 0.95)" />
<rect x="39.3" y="0.6" width="36.3" height="39.5" rx="0" fill="none" fill-opacity="0.68"   transform="translate(0.8 39.9) rotate(44.3) scale(1.57 1.67)" />
<path d="M 26.1 19.1 C 23.9 31.7, 89.5 43.0, 90.1 53.9 C 100.0 60.1, 76.3 29.3, 78.5 19.0 C 70.6 11.6, 43.6 41.8, 52.4 50.7 C 54.9 64.2, 0.0 100.0, 3.5 96.5 C 10.6 81.8, 38.5 52.8, 50.6 48.4 C 57.9 33.2, 21.0 82.5, 19.3 68.1 Z" fill="hsl(183, 71%, 60%)" fill-opacity="0.50" stroke="none" stroke-width="4.89"  transform="translate(58.9 75.8) rotate(132.1) scale(1.01 1.93)" />
<path d="M 42.4 97.2 C 57.1 82.6, 23.6 43.5, 21.3 53.6 C 8.6 39.3, 50.5 19.9, 63.1 32.6 C 44.1 37.0, 25.3 66.0, 32.2 75.0 C 28.3 72.4, 13.9 22.0, 8.0 20.7 C 0.0 36.1, 8.8 23.0, 13.7 8.3 C 0.0 0.1, 100.0 94.9, 99.1 87.4 Z" fill="hsl(144, 86%, 72%)" fill-opacity="0.58" stroke="none" stroke-width="4.36"  transform="translate(23.3 76.1) rotate(1.7) scale(1.07 1.17)" />
<rect x="3.6" y="43.8" width="38.9" height="32.8" rx="8.7" fill="hsl(2, 82%, 55%)" fill-opacity="0.49"   transform="translate(56.7 78.4) rotate(338.3) scale(0.66 1.95)" />
<circle cx="21.9" cy="67.4" r="0.5" fill="url(#g2)" fill-opacity="0.80"  transform="translate(9.9 12.6) rotate(183.4) scale(1.97 0.80)" />
<path d="M 78.4 27.8 C 84.7 40.4, 0.0 14.5, 3.2 17.6 C 0.0 35.5, 70.1 31.0, 68.8 43.0 C 81.6 27.1, 82.1 1.6, 92.3 10.0 C 100.0 11.7, 20.9 47.1, 19.6 33.0 C 22.3 35.9, 5.2 100.0, 1.2 97.2 C 0.0 99.8, 100.0 78.0, 96.4 88.8 Z" fill="hsl(144, 86%, 72%)" fill-opacity="0.42" stroke="none" stroke-width="2.87"   />
<path d="M 91.1 89.2 C 100.0 80.3, 2.8 2.5, 0.3 9.1 C 15.1 0.0, 50.6 84.0, 41.3 93.0 C 24.4 94.6, 50.6 91.6, 63.4 84.3 C 76.2 88.8, 30.8 20.4, 34.1 34.5 C 21.0 39.9, 68.1 24.7, 57.2 19.4 C 73.0 11.3, 90.6 89.2, 94.2 91.6 C 100.0 82.7, 76.5 39.9, 65.5 25.7 C 48.7 31.0, 15.5 45.3, 2.8 59.4 C 8.4 47.5, 68.0 87.0, 71.5 86.0 C 61.1 90.2, 7.0 80.5, 20.4 87.2 Z" fill="hsl(242, 72%, 49%)" fill-opacity="0.27" stroke="none" stroke-width="4.38"  transform="translate(37.6 77.3) rotate(228.3) scale(1.15 0.75)" />
<path d="M 43.3 5.4 C 34.6 0.0, 34.5 53.1, 33.1 51.9 C 43.0 54.6, 44.6 92.8, 58.6 81.1 C 77.9 74.2, 58.1 72.4, 55.6 65.4 C 38.2 48.5, 56.7 77.2, 46.4 67.6 C 35.1 54.0, 51.1 89.4, 54.1 80.0 C 39.8 85.1, 4.4 88.3, 14.8 95.7 Z" fill="hsl(183, 71%, 60%)" fill-opacity="0.35" stroke="none" stroke-width="3.18"  transform="translate(74.9 40.9) rotate(36.2) scale(1.68 0.57)" />
<path d="M 93.0 20.6 C 100.0 8.0, 51.6 6.3, 53.7 4.2 C 49.4 0.0, 10.4 48.6, 19.4 34.9 C 24.2 35.2, 83.3 43.9, 86.5 32.2 C 66.9 51.7, 36.5 36.7, 50.9 36.9 C 42.0 47.0, 89.9 57.9, 92.1 49.4 C 79.3 61.3, 69.7 29.4, 58.0 38.1 C 66.0 26.3, 20.1 51.3, 24.5 47.5 C 29.5 50.1, 28.3 88.6, 42.1 76.4 Z" fill="hsl(151, 70%, 62%)" fill-opacity="0.40" stroke="none" stroke-width="2.60"   />
<path d="M 22.4 59.6 C 22.3 47.5, 87.7 30.3, 80.6 39.6 C 92.1 31.6, 56.3 16.5, 57.7 29.1 C 68.1 24.4, 79.7 67.2, 92.6 72.7 C 82.3 82.7, 40.6 100.0, 37.2 85.7 C 19.9 73.6, 31.0 28.6, 23.8 34.0 C 41.0 27.6, 19.8 58.4, 9.5 66.6 C 0.9 55.5, 0.0 3.5, 11.2 13.2 C 27.1 15.1, 1.2 70.7, 7.6 67.2 C 11.2 52.1, 62.6 73.4, 77.1 69.5 Z" fill="hsl(290, 83%, 63%)" fill-opacity="0.41" stroke="none" stroke-width="1.29"  transform="translate(36.8 76.5) rotate(192.9) scale(0.72 1.77)" />
<rect x="41.9" y="50.3" width="47.5" height="39.2" rx="0" fill="none" fill-opacity="0.64" stroke="hsl(151, 70%, 62%)" stroke-width="1.5"  transform="translate(60.7 2.4) rotate(342.8) scale(1.40 1.86)" />
<rect x="40.5" y="46.4" width="47.9" height="39.3" rx="0" fill="hsl(290, 83%, 63%)" fill-opacity="0.67"   transform="translate(14.1 5.7) rotate(324.3) scale(1.12 0.70)" />
<path d="M 3.4 56.0 C 17.7 58.3, 67.6 87.5, 54.6 72.5 C 53.9 53.8, 50.3 61.5, 42.9 56.3 C 43.4 39.0, 59.3 0.0, 57.0 5.4 C 43.9 5.9, 66.7 24.9, 62.4 19.0 C 80.7 32.3, 25.0 27.4, 12.7 29.6 C 11.0 20.4, 16.4 14.7, 21.9 21.7 C 26.2 28.7, 98.9 0.0, 84.3 6.1 " fill="hsl(83, 65%, 44%)" fill-opacity="0.28" stroke="none" stroke-width="1.64"  transform="translate(59.4 3.7) rotate(163.3) scale(1.17 1.19)" />
<path d="M 10.1 29.1 C 0.0 28.3, 43.5 88.2, 34.7 79.4 C 50.3 95.0, 61.7 78.5, 53.3 82.2 C 55.7 68.1, 58.4 20.7, 59.9 32.8 C 53.3 22.0, 56.5 84.3, 71.4 96.1 C 69.5 84.3, 47.6 69.0, 42.0 83.4 C 56.9 92.8, 100.0 43.4, 89.8 45.3 " fill="hsl(183, 71%, 60%)" fill-opacity="0.53" stroke="none" stroke-width="3.71"  transform="translate(24.9 90.3) rotate(131.9) scale(0.83 1.75)" />
<circle cx="30.6" cy="77.6" r="2.5" fill="hsl(242, 72%, 49%)" fill-opacity="0.91" filter="url(#f1)" transform="translate(50.4 94.1) rotate(220.7) scale(1.52 1.92)" />
<rect x="12.9" y="83.7" width="42.0" height="10.1" rx="8.9" fill="none" fill-opacity="0.58" stroke="hsl(86, 72%, 68%)" stroke-width="3.4"  transform="translate(78.1 17.3) rotate(264.2) scale(1.34 0.84)" />
<circle cx="38.7" cy="87.6" r="1.9" fill="url(#g1)" fill-opacity="0.73"  transform="translate(2.2 36.9) rotate(323.2) scale(1.41 0.96)" />
<rect x="57.2" y="55.9" width="40.3" height="18.7" rx="5.5" fill="hsl(83, 65%, 44%)" fill-opacity="0.97" stroke="hsl(86, 72%, 68%)" stroke-width="1.1"  transform="translate(74.4 22.8) rotate(162.4) scale(1.54 1.00)" />
<path d="M 69.6 82.5 C 53.2 88.3, 60.6 64.0, 60.5 72.6 C 49.1 82.6, 100.0 43.1, 98.2 55.2 C 78.7 55.5, 68.0 83.5, 72.3 79.8 C 57.8 95.4, 10.5 100.0, 12.6 95.4 C 13.4 79.0, 0.0 35.8, 12.4 26.6 C 1.4 34.1, 85.2 35.9, 87.7 36.7 Z" fill="hsl(242, 72%, 49%)" fill-opacity="0.30" stroke="none" stroke-width="2.41"  transform="translate(32.4 37.7) rotate(7.9) scale(1.14 1.52)" />
<path d="M 68.1 61.5 C 49.8 67.6, 41.8 64.8, 33.8 54.6 C 35.5 68.0, 34.1 59.5, 48.1 63.4 C 43.3 76.9, 100.0 76.3, 93.4 68.8 C 100.0 54.4, 49.2 50.5, 54.9 36.8 C 42.7 33.2, 100.0 13.0, 97.2 26.5 C 89.9 18.2, 0.0 80.2, 5.9 87.9 C 10.4 100.0, 23.0 45.5, 8.4 46.0 C 25.5 46.7, 60.5 0.8, 67.0 8.1 Z" fill="none" fill-opacity="0.60" stroke="hsl(151, 70%, 62%)" stroke-width="0.99"  transform="translate(77.4 86.1) rotate(289.6) scale(1.36 1.96)" />
<rect x="48.6" y="9.1" width="43.6" height="21.9" rx="0" fill="none" fill-opacity="0.42"    />
<circle cx="94.6" cy="98.0" r="11.8" fill="hsl(83, 65%, 44%)" fill-opacity="0.59"  transform="translate(44.5 49.7) rotate(285.8) scale(1.73 1.87)" />
<rect x="40.3" y="11.1" width="49.2" height="19.1" rx="0" fill="none" fill-opacity="0.49" stroke="hsl(83, 65%, 44%)" stroke-width="2.8"   />
<path d="M 67.6 42.5 C 50.1 60.8, 0.0 55.7, 5.7 70.0 C 4.4 68.2, 79.0 57.1, 65.7 45.8 C 56.4 58.3, 29.2 15.7, 19.7 18.1 C 4.1 21.8, 27.7 52.1, 36.9 55.0 C 18.3 37.5, 75.4 0.0, 66.8 11.4 C 85.2 24.4, 10.0 39.7, 1.6 37.2 C 19.8 30.1, 30.4 41.4, 29.9 53.9 C 43.2 50.3, 23.5 38.1, 12.7 47.1 Z" fill="hsl(144, 86%, 72%)" fill-opacity="0.72" stroke="none" stroke-width="0.92"   />
<path d="M 76.5 28.3 C 94.8 28.2, 16.8 31.4, 14.7 29.5 C 13.2 45.8, 10.1 40.6, 2.5 33.3 C 0.0 40.1, 11.1 22.6, 18.4 12.0 C 23.9 10.4, 77.9 13.0, 63.0 15.8 C 81.4 25.4, 20.6 97.5, 11.5 92.6 C 14.2 82.8, 12.2 97.4, 12.8 82.6 C 20.4 66.6, 1.7 100.0, 13.5 90.1 C 24.8 95.7, 95.6 46.5, 93.1 58.2 Z" fill="none" fill-opacity="0.58" stroke="hsl(290, 83%, 63%)" stroke-width="3.75"  transform="translate(70.5 15.8) rotate(1.2) scale(0.80 0.83)" />
<path d="M 94.3 87.0 C 100.0 97.7, 60.4 72.4, 59.2 84.7 C 66.7 93.2, 22.1 86.8, 33.2 90.5 C 23.3 93.6, 29.6 79.9, 14.7 93.0 C 15.6 79.0, 87.4 37.4, 81.7 33.6 C 84.0 53.5, 25.8 33.2, 28.7 25.7 C 42.6 44.9, 38.2 41.0, 27.0 29.4 C 30.2 40.2, 36.2 85.2, 28.0 95.3 C 19.3 82.7, 25.5 33.2, 27.0 18.2 C 17.3 17.4, 13.9 37.7, 24.3 23.4 C 12.2 27.5, 46.5 21.5, 37.9 15.2 Z" fill="hsl(290, 83%, 63%)" fill-opacity="0.28" stroke="none" stroke-width="3.08"  transform="translate(54.6 32.0) rotate(256.3) scale(1.52 0.92)" />
<rect x="17.3" y="27.4" width="24.3" height="19.7" rx="18.8" fill="none" fill-opacity="0.66"  filter="url(#f1)" transform="translate(3.8 78.6) rotate(113.9) scale(0.96 1.76)" />
<path d="M 50.0 37.0 C 65.3 22.8, 49.4 32.7, 49.6 32.1 C 47.6 28.8, 19.2 4.3, 31.0 13.6 C 42.1 13.1, 15.3 51.5, 21.2 61.6 C 40.0 48.3, 73.6 58.8, 74.1 52.7 C 78.0 45.2, 26.9 53.0, 28.5 40.3 C 45.9 59.5, 78.8 34.2, 74.6 29.0 C 72.6 33.2, 28.9 0.0, 21.8 12.0 C 25.3 20.6, 73.1 89.1, 73.5 85.9 C 79.9 77.4, 17.5 64.8, 19.6 53.1 C 32.2 47.6, 96.3 83.2, 89.6 71.0 Z" fill="hsl(183, 71%, 60%)" fill-opacity="0.49" stroke="none" stroke-width="4.05"  transform="translate(93.6 16.4) rotate(209.4) scale(1.39 1.83)" />
<path d="M 55.6 37.3 C 40.6 24.4, 49.1 84.7, 54.4 78.9 C 57.6 90.4, 77.2 67.0, 67.5 71.0 C 60.7 66.2, 90.5 56.7, 84.8 42.1 C 89.5 33.5, 62.6 56.8, 50.5 44.6 C 69.6 41.8, 71.7 78.9, 73.8 92.4 C 61.9 72.5, 86.7 0.0, 95.2 6.9 C 85.6 24.1, 57.7 30.9, 67.3 27.5 C 65.9 20.5, 38.5 44.6, 23.9 38.3 C 6.0 53.6, 81.7 45.8, 92.6 53.9 C 100.0 69.8, 38.9 84.2, 43.8 77.4 Z" fill="hsl(83, 65%, 44%)" fill-opacity="0.60" stroke="none" stroke-width="4.55"  transform="translate(13.0 92.9) rotate(143.7) scale(0.97 0.54)" />
<path d="M 77.0 91.7 C 96.9 100.0, 76.1 35.9, 74.6 30.3 C 68.9 39.3, 70.7 0.0, 66.1 6.2 C 71.4 8.6, 89.7 90.9, 93.9 95.6 C 78.7 93.7, 13.9 81.6, 2.7 95.3 C 3.1 97.9, 66.2 39.2, 57.5 29.4 C 41.4 33.6, 61.4 92.0, 71.0 94.9 C 62.6 100.0, 1.2 60.4, 10.9 46.6 C 4.2 36.9, 95.3 29.9, 99.6 35.1 C 84.3 30.1, 40.5 41.6, 39.5 26.7 C 50.6 21.7, 57.3 26.3, 63.9 40.2 Z" fill="none" fill-opacity="0.63" stroke="hsl(106, 75%, 59%)" stroke-width="0.88" filter="url(#f1)" transform="translate(35.3 16.6) rotate(76.6) scale(0.61 0.83)" />
<path d="M 42.9 43.8 C 24.3 55.8, 22.2 28.9, 19.2 22.4 C 12.0 11.2, 34.2 0.0, 43.0 7.1 C 30.5 15.5, 80.2 43.4, 69.2 32.3 C 52.0 30.1, 87.8 93.1, 81.8 79.4 C 75.9 98.6, 38.5 72.3, 37.7 60.1 C 52.1 55.1, 100.0 64.0, 91.3 78.0 C 97.4 66.9, 10.1 14.7, 1.8 3.0 C 12.1 2.8, 82.8 89.6, 82.7 88.0 C 97.5 97.2, 28.0 92.6, 17.1 81.9 C 27.0 75.8, 100.0 72.9, 99.1 87.6 Z" fill="none" fill-opacity="0.27" stroke="hsl(104, 72%, 65%)" stroke-width="1.35"  transform="translate(59.8 44.4) rotate(234.4) scale(1.37 1.29)" />
<rect x="2.1" y="81.0" width="44.4" height="18.9" rx="0" fill="hsl(106, 75%, 59%)" fill-opacity="0.70"   transform="translate(63.5 12.1) rotate(122.3) scale(1.46 0.67)" />
<path d="M 42.9 12.0 C 33.7 14.9, 10.3 81.7, 15.1 76.0 C 0.0 73.6, 41.2 56.7, 51.3 58.3 C 53.4 74.8, 21.7 0.0, 33.5 1.3 C 47.7 0.0, 84.0 32.1, 72.2 40.7 C 67.5 42.6, 98.7 33.8, 96.2 47.9 C 100.0 58.6, 14.2 100.0, 27.1 98.3 C 24.1 86.6, 6.9 0.0, 11.8 6.5 Z" fill="hsl(290, 83%, 63%)" fill-opacity="0.49" stroke="none" stroke-width="4.65"  transform="translate(68.4 40.1) rotate(248.7) scale(1.51 0.65)" />
<circle cx="45.3" cy="45.9" r="1.2" fill="hsl(183, 71%, 60%)" fill-opacity="0.70"  transform="translate(21.9 14.7) rotate(246.8) scale(0.77 1.69)" />
<circle cx="32.8" cy="77.3" r="9.0" fill="hsl(40, 53%, 69%)" fill-opacity="0.87"   />
<path d="M 87.0 43.1 C 75.4 32.6, 51.2 67.0, 48.2 58.7 C 60.1 61.8, 24.9 100.0, 35.7 93.6 C 42.1 88.5, 62.1 10.0, 68.8 13.5 C 53.8 24.6, 100.0 27.6, 97.5 21.6 C 95.6 31.3, 14.5 0.0, 25.6 8.3 C 29.3 0.0, 14.5 18.3, 28.5 11.4 Z" fill="none" fill-opacity="0.83" stroke="hsl(106, 75%, 59%)" stroke-width="2.75"  transform="translate(41.6 64.2) rotate(67.1) scale(1.83 1.23)" />
<circle cx="67.1" cy="84.3" r="8.3" fill="hsl(242, 72%, 49%)" fill-opacity="0.66"  transform="translate(55.4 45.8) rotate(245.8) scale(0.71 1.35)" />
<path d="M 39.6 89.8 C 55.1 77.0, 26.6 49.9, 31.3 44.0 C 18.2 29.7, 45.5 25.2, 37.7 30.4 C 51.6 25.5, 39.8 2.0, 32.3 16.5 C 22.0 28.5, 38.1 63.8, 38.6 78.2 C 41.3 63.1, 80.7 42.3, 70.5 29.4 C 76.1 17.2, 16.0 5.8, 28.2 6.7 C 38.7 21.1, 69.2 41.5, 60.8 38.3 Z" fill="none" fill-opacity="0.98" stroke="hsl(2, 82%, 55%)" stroke-width="1.85"  transform="translate(37.2 21.6) rotate(216.1) scale(1.68 1.36)" />
<rect x="37.1" y="15.2" width="38.3" height="39.9" rx="0" fill="hsl(183, 71%, 60%)" fill-opacity="0.78"   transform="translate(60.5 21.4) rotate(285.2) scale(1.06 1.41)" />
<circle cx="48.6" cy="63.1" r="3.5" fill="url(#g0)" fill-opacity="0.98"  transform="translate(73.4 80.4) rotate(22.7) scale(1.19 1.81)" />
<path d="M 81.7 51.3 C 85.5 65.8, 37.4 0.0, 28.7 7.2 C 36.9 17.6, 43.3 74.2, 38.4 75.4 C 19.0 64.7, 12.4 71.9, 3.0 71.1 C 23.0 70.5, 43.5 0.0, 46.1 3.8 C 51.9 1.5, 12.1 41.5, 23.0 35.5 C 15.7 27.3, 55.3 45.6, 48.2 45.5 C 36.6 57.3, 86.8 72.0, 90.7 86.1 Z" fill="hsl(106, 75%, 59%)" fill-opacity="0.68" stroke="none" stroke-width="4.65"  transform="translate(74.0 1.9) rotate(255.8) scale(1.76 0.67)" />
<path d="M 13.1 12.2 C 14.8 16.4, 11.3 81.9, 0.2 79.9 C 0.0 68.1, 87.6 4.4, 83.6 4.1 C 85.8 6.7, 87.7 15.1, 90.2 22.6 C 75.4 25.4, 24.5 0.0, 11.7 4.6 C 7.4 10.3, 28.4 27.0, 36.3 17.4 C 42.0 0.0, 68.0 76.3, 60.6 86.8 C 55.1 95.9, 12.7 44.6, 8.5 31.8 C 16.5 47.3, 10.9 48.8, 5.2 55.3 C 8.5 49.6, 40.6 85.0, 27.7 91.9 C 31.4 100.0, 70.8 26.3, 56.9 30.9 Z" fill="hsl(242, 72%, 49%)" fill-opacity="0.37" stroke="none" stroke-width="5.22"   />
<path d="M 63.5 46.1 C 57.5 33.0, 68.9 82.2, 71.8 71.0 C 71.7 65.9, 55.2 42.5, 41.3 38.9 C 33.0 25.8, 22.3 78.4, 34.9 82.3 C 37.1 94.3, 18.4 100.0, 12.4 93.0 C 0.0 97.1, 0.0 10.0, 5.6 23.5 C 0.0 36.9, 40.1 25.7, 32.6 25.4 C 25.6 42.4, 36.7 88.0, 26.7 83.7 C 39.1 88.0, 0.0 55.1, 7.3 43.2 C 12.2 53.5, 60.9 39.4, 74.2 52.3 Z" fill="none" fill-opacity="0.31" stroke="hsl(290, 83%, 63%)" stroke-width="3.53"   />
<path d="M 0.9 26.1 C 0.0 22.0, 76.1 34.4, 86.8 40.4 C 95.5 42.3, 7.2 54.2, 19.9 49.8 C 23.5 68.7, 0.0 78.0, 8.4 75.4 C 0.0 88.0, 52.3 47.6, 45.8 49.4 C 65.2 56.6, 41.3 6.7, 27.7 13.0 C 34.8 7.0, 59.7 90.8, 45.5 77.7 C 64.5 75.0, 38.6 73.1, 53.0 84.6 Z" fill="hsl(151, 70%, 62%)" fill-opacity="0.51" stroke="none" stroke-width="4.29"  transform="translate(90.3 78.5) rotate(225.8) scale(1.41 1.88)" />
<circle cx="14.5" cy="5.0" r="6.6" fill="hsl(322, 74%, 44%)" fill-opacity="0.86"  transform="translate(51.4 8.5) rotate(40.7) scale(1.09 1.78)" />
<path d="M 63.1 4.7 C 58.6 22.0, 87.0 49.1, 73.9 55.6 C 60.2 45.9, 31.4 28.3, 40.4 29.0 C 44.2 36.0, 67.5 12.5, 62.3 7.2 C 43.7 0.0, 71.6 27.1, 72.3 26.9 C 84.3 9.8, 42.5 100.0, 48.2 96.8 C 43.0 100.0, 88.3 88.2, 87.3 83.9 Z" fill="hsl(40, 53%, 69%)" fill-opacity="0.37" stroke="none" stroke-width="1.64"  transform="translate(58.8 37.0) rotate(9.0) scale(0.65 1.75)" />
<rect x="3.3" y="13.3" width="38.7" height="19.0" rx="14.8" fill="none" fill-opacity="0.20"   transform="translate(82.3 3.8) rotate(109.0) scale(1.58 1.29)" />
<circle cx="26.4" cy="5.0" r="2.3" fill="url(#g2)" fill-opacity="0.52"  transform="translate(90.5 85.6) rotate(328.9) scale(0.81 1.07)" />
<path d="M 16.2 49.8 C 21.3 39.2, 46.4 25.3, 44.9 23.5 C 50.0 5.6, 45.0 35.7, 31.8 21.0 C 24.3 1.9, 65.8 65.1, 60.5 76.6 C 49.5 80.5, 72.9 92.4, 69.9 78.6 C 87.7 73.3, 37.4 18.8, 32.2 11.5 C 48.7 8.2, 65.6 40.5, 70.9 25.8 C 78.3 36.2, 52.1 28.0, 38.2 35.0 Z" fill="hsl(2, 82%, 55%)" fill-opacity="1.00" stroke="none" stroke-width="4.32"  transform="translate(22.6 72.4) rotate(61.6) scale(1.17 1.33)" />
<circle cx="5.9" cy="51.9" r="11.2" fill="hsl(83, 65%, 44%)" fill-opacity="0.58"  transform="translate(75.3 23.1) rotate(107.7) scale(1.23 1.54)" />
<path d="M 32.4 66.9 C 14.8 62.3, 2.8 57.4, 16.7 58.9 C 18.4 65.4, 18.2 46.9, 11.4 59.7 C 13.0 59.5, 16.7 34.2, 28.0 44.9 C 11.5 36.9, 65.4 57.0, 60.3 54.3 C 79.5 45.6, 10.2 91.7, 10.5 97.9 C 7.6 90.3, 0.0 100.0, 0.7 95.1 C 0.0 94.8, 18.4 16.0, 26.8 15.6 C 7.5 19.4, 75.4 20.8, 68.1 9.0 C 48.2 19.7, 47.6 65.5, 50.7 55.5 Z" fill="none" fill-opacity="0.28" stroke="hsl(2, 82%, 55%)" stroke-width="4.14"  transform="translate(87.0 45.4) rotate(136.6) scale(1.32 1.90)" />
<circle cx="39.2" cy="99.6" r="3.1" fill="url(#g0)" fill-opacity="0.62"  transform="translate(36.8 96.4) rotate(252.1) scale(1.70 1.07)" />
<path d="M 50.4 99.6 C 31.7 100.0, 84.5 91.1, 97.7 80.5 C 100.0 97.6, 89.2 55.5, 77.0 50.0 C 80.3 68.2, 53.4 26.2, 50.2 18.6 C 60.1 37.9, 55.8 53.7, 42.1 61.2 C 27.0 52.7, 79.3 74.3, 94.1 63.1 C 84.6 56.3, 29.6 13.8, 42.4 16.7 C 33.9 9.9, 77.1 39.3, 83.6 31.6 C 63.9 50.1, 75.9 46.2, 73.4 51.9 Z" fill="hsl(106, 75%, 59%)" fill-opacity="0.26" stroke="none" stroke-width="3.19"  transform="translate(17.1 59.4) rotate(113.9) scale(0.51 1.56)" />
<path d="M 13.9 51.3 C 24.2 61.4, 47.0 49.8, 38.3 50.9 C 48.2 53.3, 1.3 56.8, 14.5 46.5 C 20.5 58.4, 30.2 74.3, 17.5 62.2 C 30.1 72.4, 30.1 70.4, 26.1 61.1 C 39.4 48.0, 10.6 43.3, 20.6 31.3 C 4.9 50.4, 53.3 16.1, 45.1 26.7 Z" fill="hsl(242, 72%, 49%)" fill-opacity="0.90" stroke="none" stroke-width="3.73"  transform="translate(86.1 68.5) rotate(341.1) scale(0.90 0.92)" />
<rect x="33.5" y="2.0" width="31.0" height="24.0" rx="0" fill="none" fill-opacity="0.70" stroke="hsl(40, 53%, 69%)" stroke-width="3.7"  transform="translate(59.9 99.6) rotate(169.6) scale(1.36 0.51)" />
<path d="M 36.2 78.8 C 49.4 87.3, 63.3 100.0, 65.9 98.7 C 73.2 100.0, 67.4 83.1, 57.5 92.8 C 39.9 96.4, 54.5 36.5, 53.1 24.8 C 54.3 13.5, 97.2 59.4, 91.8 71.3 C 100.0 72.0, 46.3 62.8, 40.0 68.0 C 59.6 61.6, 34.4 38.2, 35.5 38.9 C 39.0 35.1, 43.2 4.6, 54.4 16.1 C 46.1 9.3, 37.0 74.4, 51.7 72.1 C 59.6 52.4, 100.0 67.2, 95.7 56.1 C 100.0 45.5, 30.8 100.0, 28.4 97.5 Z" fill="hsl(290, 83%, 63%)" fill-opacity="0.80" stroke="none" stroke-width="2.12"   />
<rect x="6.2" y="9.8" width="38.7" height="12.3" rx="0" fill="none" fill-opacity="0.68"   transform="translate(16.2 77.0) rotate(52.4) scale(0.61 1.29)" />
<path d="M 79.9 9.9 C 75.6 29.9, 90.3 20.5, 80.6 18.0 C 94.4 36.3, 0.0 95.9, 5.4 84.2 C 5.9 100.0, 89.6 63.3, 78.2 75.6 C 79.6 67.3, 91.3 1.2, 99.1 15.0 C 88.3 17.2, 52.1 98.1, 51.9 89.9 C 64.2 89.2, 82.5 3.5, 76.1 6.1 C 73.1 15.5, 36.5 28.2, 35.9 42.3 Z" fill="none" fill-opacity="0.66" stroke="hsl(106, 75%, 59%)" stroke-width="5.07"  transform="translate(78.9 18.2) rotate(128.8) scale(1.36 0.66)" />
<circle cx="39.4" cy="70.2" r="2.4" fill="url(#g1)" fill-opacity="0.58"   />
<path d="M 23.6 72.4 C 31.2 76.3, 74.3 75.3, 65.1 89.4 C 66.7 78.6, 98.3 3.4, 86.4 12.5 C 85.5 28.9, 66.6 42.9, 73.6 46.6 C 73.6 59.1, 78.5 81.0, 68.0 81.5 C 49.5 71.8, 33.3 69.8, 45.6 70.1 C 47.8 79.9, 66.8 77.0, 70.7 72.3 Z" fill="hsl(40, 53%, 69%)" fill-opacity="0.76" stroke="none" stroke-width="2.61"  transform="translate(21.2 44.7) rotate(203.3) scale(1.15 1.29)" />
<rect x="24.6" y="56.7" width="47.2" height="14.1" rx="0" fill="none" fill-opacity="0.92"    />
<path d="M 33.8 6.0 C 19.7 18.7, 32.4 17.8, 36.0 21.4 C 36.0 1.5, 72.0 100.0, 63.9 99.0 C 80.8 100.0, 87.0 53.8, 91.2 41.5 C 90.1 29.1, 94.7 83.6, 93.8 84.9 C 83.0 76.3, 43.2 9.4, 50.5 23.4 C 44.1 7.1, 48.8 0.0, 49.1 8.0 C 60.5 1.6, 100.0 55.8, 90.3 44.0 C 86.9 36.8, 54.7 82.1, 59.3 79.2 C 61.7 70.8, 50.6 33.9, 36.9 43.8 Z" fill="hsl(83, 65%, 44%)" fill-opacity="0.50" stroke="none" stroke-width="1.83"  transform="translate(63.5 63.8) rotate(280.4) scale(0.74 1.88)" />
<circle cx="24.1" cy="16.6" r="3.4" fill="url(#g2)" fill-opacity="0.84"  transform="translate(29.1 36.2) rotate(39.7) scale(0.99 1.50)" />
<rect x="49.6" y="35.0" width="45.1" height="11.6" rx="0" fill="hsl(83, 65%, 44%)" fill-opacity="0.84"  filter="url(#f1)" transform="translate(65.8 94.0) rotate(252.5) scale(1.52 1.57)" />
<path d="M 76.9 37.0 C 79.6 32.6, 72.3 0.0, 83.7 6.9 C 83.6 19.8, 39.4 73.3, 24.8 79.9 C 6.8 94.3, 31.7 7.9, 18.5 1.5 C 13.4 0.0, 15.3 100.0, 11.2 96.8 C 0.0 100.0, 14.4 17.5, 13.5 31.8 C 15.6 14.2, 83.8 74.4, 88.6 62.8 C 85.9 59.6, 28.9 41.4, 25.3 45.8 C 12.5 29.5, 9.6 11.0, 15.0 7.7 C 33.0 20.0, 1.1 95.6, 3.2 84.0 C 0.0 71.2, 90.2 29.4, 87.6 17.3 Z" fill="hsl(144, 86%, 72%)" fill-opacity="0.28" stroke="none" stroke-width="2.24"  transform="translate(25.5 2.6) rotate(229.8) scale(1.71 0.72)" />
<path d="M 58.9 61.4 C 66.7 54.8, 48.7 26.9, 47.0 27.0 C 35.2 9.6, 63.7 22.8, 56.2 22.9 C 67.0 12.4, 68.3 8.3, 71.4 4.9 C 59.7 5.3, 76.7 81.0, 87.3 80.2 C 79.5 88.2, 23.3 32.7, 32.0 47.6 C 22.4 56.6, 33.8 96.2, 21.1 93.5 C 2.5 93.7, 98.9 77.3, 94.0 88.1 C 87.5 100.0, 68.2 39.5, 54.8 27.9 C 61.9 28.5, 28.6 44.4, 22.3 44.6 Z" fill="none" fill-opacity="0.60" stroke="hsl(183, 71%, 60%)" stroke-width="1.57"  transform="translate(54.5 7.8) rotate(140.2) scale(0.74 0.89)" />
<rect x="1.8" y="38.2" width="35.4" height="14.7" rx="4.1" fill="hsl(290, 83%, 63%)" fill-opacity="0.25"    />
<rect x="32.2" y="76.7" width="41.0" height="22.2" rx="0" fill="hsl(106, 75%, 59%)" fill-opacity="0.96"   transform="translate(99.5 29.4) rotate(358.2) scale(1.45 1.44)" />
<path d="M 89.0 47.4 C 100.0 56.8, 39.7 4.1, 38.9 3.1 C 51.7 12.3, 87.7 24.0, 74.2 26.1 C 57.1 31.9, 29.4 59.5, 33.5 46.3 C 47.1 34.6, 51.6 57.7, 59.8 47.6 C 75.3 34.9, 72.8 36.0, 74.4 43.0 C 88.6 29.9, 9.4 100.0, 7.0 96.4 C 24.4 84.8, 91.3 0.0, 85.3 4.6 C 87.9 0.0, 32.5 21.4, 27.2 29.8 C 38.6 14.0, 100.0 96.4, 94.8 89.4 C 100.0 85.0, 22.4 14.8, 29.3 5.6 Z" fill="hsl(322, 74%, 44%)" fill-opacity="0.56" stroke="none" stroke-width="3.77"   />
<circle cx="86.8" cy="64.2" r="5.1" fill="url(#g0)" fill-opacity="0.73"  transform="translate(69.9 30.0) rotate(178.5) scale(1.11 1.58)" />
<path d="M 37.4 24.7 C 46.3 13.2, 35.2 86.4, 24.6 91.7 C 29.8 85.2, 31.2 28.5, 36.4 33.0 C 17.3 13.7, 5.2 34.9, 0.4 31.7 C 17.6 16.4, 29.6 71.4, 40.5 84.5 C 36.5 65.5, 100.0 12.7, 89.9 14.4 C 88.6 22.2, 60.4 31.7, 53.2 27.1 Z" fill="hsl(106, 75%, 59%)" fill-opacity="0.63" stroke="none" stroke-width="5.30"  transform="translate(69.1 7.5) rotate(14.5) scale(1.98 1.25)" />
<path d="M 85.0 79.8 C 85.1 97.8, 50.6 100.0, 48.3 91.5 C 45.8 78.7, 24.2 67.3, 16.8 69.4 C 0.7 68.2, 87.6 96.3, 81.1 98.9 C 96.2 84.5, 100.0 97.6, 99.2 96.2 C 100.0 100.0, 20.0 93.8, 13.9 97.5 C 15.4 100.0, 32.1 82.4, 38.0 96.0 C 35.5 92.4, 25.8 31.4, 24.2 27.9 C 27.2 47.1, 0.0 100.0, 5.4 99.0 C 0.0 97.9, 100.0 100.0, 93.8 95.6 Z" fill="hsl(322, 74%, 44%)" fill-opacity="0.93" stroke="none" stroke-width="3.47" filter="url(#f1)" transform="translate(0.5 82.7) rotate(189.4) scale(1.84 1.44)" />
<path d="M 53.7 40.1 C 41.4 55.5, 88.7 81.6, 75.4 80.2 C 87.6 62.7, 51.9 78.6, 47.3 67.0 C 30.3 74.9, 22.5 97.0, 15.5 97.4 C 6.9 100.0, 68.1 87.2, 66.8 88.6 C 53.1 75.5, 40.9 16.9, 52.5 26.7 C 42.5 45.8, 7.1 15.2, 7.2 23.8 C 0.0 31.3, 68.2 62.9, 71.6 73.9 Z" fill="hsl(322, 74%, 44%)" fill-opacity="0.51" stroke="none" stroke-width="5.01"  transform="translate(3.7 51.1) rotate(260.1) scale(1.51 1.72)" />
<rect x="18.1" y="68.6" width="49.5" height="16.6" rx="5.3" fill="hsl(322, 74%, 44%)" fill-opacity="0.32"   transform="translate(47.5 23.9) rotate(77.2) scale(0.86 0.83)" />
<path d="M 27.2 95.7 C 33.2 100.0, 86.6 41.2, 85.9 38.9 C 89.3 54.9, 71.5 72.1, 77.0 84.6 C 79.7 73.9, 58.7 0.0, 49.2 0.9 C 32.6 0.0, 82.4 24.4, 78.6 26.9 C 63.0 36.3, 4.1 67.7, 6.3 79.0 C 0.0 89.1, 49.0 20.9, 57.0 25.6 C 44.4 8.8, 90.1 55.6, 94.0 47.4 C 79.1 59.0, 84.9 9.1, 87.3 2.5 C 100.0 11.3, 36.3 59.5, 36.4 47.6 C 36.9 44.9, 0.0 49.4, 2.2 50.7 Z" fill="hsl(83, 65%, 44%)" fill-opacity="0.53" stroke="none" stroke-width="3.67"  transform="translate(64.7 75.7) rotate(350.9) scale(1.86 1.70)" />
<path d="M 55.7 81.8 C 73.1 100.0, 27.6 94.2, 38.1 93.7 C 18.3 86.0, 11.9 77.6, 3.2 70.7 C 12.8 88.1, 10.3 66.2, 0.1 61.1 C 0.0 44.3, 0.0 94.8, 5.8 89.6 C 0.0 100.0, 48.8 37.3, 47.5 32.2 C 33.7 24.4, 58.0 10.5, 65.9 7.5 C 82.6 7.7, 60.6 58.0, 60.4 66.4 C 77.3 69.0, 71.4 18.1, 58.0 13.4 C 72.6 0.0, 89.3 92.3, 93.7 78.0 C 100.0 68.6, 21.7 14.6, 18.3 21.3 Z" fill="none" fill-opacity="0.54" stroke="hsl(151, 70%, 62%)" stroke-width="2.36"  transform="translate(79.1 17.9) rotate(89.6) scale(0.65 1.83)" />
<path d="M 75.3 40.2 C 89.9 44.0, 6.1 40.9, 3.7 35.1 C 9.2 48.5, 81.1 63.7, 90.5 58.2 C 81.7 77.0, 76.7 62.8, 88.7 65.8 C 75.7 70.1, 75.4 0.0, 61.0 10.9 C 73.5 29.1, 53.3 45.1, 44.9 32.6 C 35.2 22.6, 66.7 21.5, 57.1 27.5 C 68.7 35.3, 30.9 29.0, 17.5 35.2 C 7.3 26.9, 92.5 56.9, 85.0 55.9 C 90.8 44.7, 84.0 100.0, 75.4 95.1 Z" fill="none" fill-opacity="0.42" stroke="hsl(290, 83%, 63%)" stroke-width="1.42" filter="url(#f1)" transform="translate(99.3 80.0) rotate(183.3) scale(1.50 1.19)" />
<rect x="46.1" y="43.9" width="48.1" height="33.6" rx="0" fill="hsl(2, 82%, 55%)" fill-opacity="0.98"   transform="translate(27.2 65.3) rotate(116.5) scale(0.98 0.73)" />
<circle cx="50.2" cy="59.3" r="4.4" fill="url(#g2)" fill-opacity="0.67"   />
<g opacity="0.045">
<rect x="0" y="0" width="1" height="100" fill="black" />
<rect x="22" y="0" width="1" height="100" fill="black" />
<rect x="44" y="0" width="1" height="100" fill="black" />
<rect x="66" y="0" width="1" height="100" fill="black" />
<rect x="88" y="0" width="1" height="100" fill="black" />
<rect x="0" y="0" width="100" height="1" fill="black" />
<rect x="0" y="22" width="100" height="1" fill="black" />
<rect x="0" y="44" width="100" height="1" fill="black" />
<rect x="0" y="66" width="100" height="1" fill="black" />
<rect x="0" y="88" width="100" height="1" fill="black" />
</g>

</svg>
