<?xml version="1.0" encoding="UTF-8"?>
<svg xmlns="http://www.w3.org/2000/svg" width="100" height="100" viewBox="0 0 100 100">
<defs>
<linearGradient id="g0" x1="0%" y1="0%" x2="100%" y2="100%">
<stop offset="0.0%" stop-color="hsl(106, 75%, 59%)" />
<stop offset="33.3%" stop-color="hsl(183, 71%, 60%)" />
<stop offset="66.7%" stop-color="hsl(242, 72%, 49%)" />
<stop offset="100.0%" stop-color="hsl(322, 74%, 44%)" />
</linearGradient>
<linearGradient id="g1" x1="0%" y1="0%" x2="100%" y2="100%">
<stop offset="0.0%" stop-color="hsl(290, 83%, 63%)" />
<stop offset="33.3%" stop-color="hsl(2, 82%, 55%)" />
<stop offset="66.7%" stop-color="hsl(86, 72%, 68%)" />
<stop offset="100.0%" stop-color="hsl(83, 65%, 44%)" />
</linearGradient>
<linearGradient id="g2" x1="0%" y1="0%" x2="100%" y2="100%">
<stop offset="0.0%" stop-color="hsl(40, 53%, 69%)" />
<stop offset="33.3%" stop-color="hsl(104, 72%, 65%)" />
<stop offset="66.7%" stop-color="hsl(144, 86%, 72%)" />
<stop offset="100.0%" stop-color="hsl(151, 70%, 62%)" />
</linearGradient>
</defs>

<circle cx="96.4" cy="65.7" r="0.1" fill="hsl(322, 74%, 44%)" fill-opacity="0.50"   />
<path d="M 91.9 23.3 C 100.0 28.9, 100.0 24.7, 93.6 16.8 C 80.2 4.6, 86.4 2.6, 89.5 2.3 C 70.2 0.0, 85.6 70.6, 85.2 77.5 C 78.8 89.4, 46.3 37.7, 43.2 24.8 C 41.0 18.6, 79.3 47.0, 80.1 61.3 C 60.3 77.2, 41.3 68.5, 47.5 82.0 C 62.6 81.7, 29.7 56.1, 33.6 67.4 " fill="none" fill-opacity="0.51" stroke="hsl(242, 72%, 49%)" stroke-width="0.98"   />
<path d="M 91.5 7.5 C 76.9 8.2, 86.0 0.2, 97.7 12.2 C 96.9 24.1, 41.5 32.8, 48.5 31.0 C 31.9 41.1, 44.2 11.9, 35.2 14.7 C 32.6 34.6, 33.2 3.7, 42.0 3.8 " fill="none" fill-opacity="0.32" stroke="hsl(151, 70%, 62%)" stroke-width="1.26"   />
<rect x="46.5" y="79.1" width="36.6" height="10.7" rx="0" fill="hsl(86, 72%, 68%)" fill-opacity="0.49" stroke="hsl(86, 72%, 68%)" stroke-width="2.6"  transform="translate(36.5 66.3) rotate(208.4) scale(1.80 1.01)" />
<path d="M 82.1 5.3 C 70.1 0.0, 23.4 86.6, 38.0 84.2 C 43.7 92.3, 40.5 56.4, 45.2 47.1 C 45.8 51.2, 48.3 100.0, 58.5 95.9 C 62.4 100.0, 7.2 43.6, 12.2 58.4 " fill="hsl(144, 86%, 72%)" fill-opacity="0.74" stroke="none" stroke-width="1.20"  transform="translate(85.5 43.3) rotate(249.1) scale(1.14 1.49)" />
<path d="M 35.6 56.8 C 18.0 51.7, 48.2 0.0, 51.1 3.6 C 31.5 0.0, 59.1 65.3, 45.4 52.7 C 55.5 37.3, 98.8 79.7, 84.0 92.8 C 77.2 100.0, 0.0 100.0, 3.7 97.0 C 0.0 100.0, 37.4 0.0, 38.2 7.3 " fill="hsl(2, 82%, 55%)" fill-opacity="0.47" stroke="none" stroke-width="0.92"   />
<path d="M 3.7 52.6 C 1.7 51.9, 95.5 48.6, 95.8 46.7 C 77.2 31.6, 72.8 60.0, 62.6 48.9 C 55.9 30.9, 1.4 37.8, 3.4 31.2 C 22.4 50.9, 53.3 66.5, 64.1 57.3 C 61.7 71.2, 48.6 36.2, 43.5 42.0 Z" fill="none" fill-opacity="0.54" stroke="hsl(322, 74%, 44%)" stroke-width="1.02"   />
<path d="M 85.5 83.8 C 93.0 75.8, 90.4 30.7, 82.4 41.7 C 88.7 52.3, 0.6 8.9, 8.8 16.1 C 0.0 35.8, 56.1 51.1, 41.8 56.8 C 23.5 60.9, 81.8 56.7, 76.9 61.3 C 66.5 45.1, 1.0 51.6, 0.6 44.9 C 0.0 33.4, 70.6 0.0, 57.9 10.2 C 53.5 0.0, 92.9 37.4, 100.0 23.9 " fill="none" fill-opacity="0.87" stroke="hsl(2, 82%, 55%)" stroke-width="0.92"  transform="translate(27.2 42.3) rotate(44.8) scale(1.19 1.88)" />
</svg>
