<?xml version="1.0" encoding="UTF-8"?>
<svg xmlns="http://www.w3.org/2000/svg" width="100" height="100" viewBox="0 0 100 100">
<defs>
<linearGradient id="g0" x1="0%" y1="0%" x2="100%" y2="100%">
<stop offset="0.0%" stop-color="hsl(106, 75%, 59%)" />
<stop offset="33.3%" stop-color="hsl(183, 71%, 60%)" />
<stop offset="66.7%" stop-color="hsl(242, 72%, 49%)" />
<stop offset="100.0%" stop-color="hsl(322, 74%, 44%)" />
</linearGradient>
<linearGradient id="g1" x1="0%" y1="0%" x2="100%" y2="100%">
<stop offset="0.0%" stop-color="hsl(290, 83%, 63%)" />
<stop offset="33.3%" stop-color="hsl(2, 82%, 55%)" />
<stop offset="66.7%" stop-color="hsl(86, 72%, 68%)" />
<stop offset="100.0%" stop-color="hsl(83, 65%, 44%)" />
</linearGradient>
<linearGradient id="g2" x1="0%" y1="0%" x2="100%" y2="100%">
<stop offset="0.0%" stop-color="hsl(40, 53%, 69%)" />
<stop offset="33.3%" stop-color="hsl(104, 72%, 65%)" />
<stop offset="66.7%" stop-color="hsl(144, 86%, 72%)" />
<stop offset="100.0%" stop-color="hsl(151, 70%, 62%)" />
</linearGradient>
</defs>

<rect x="26.9" y="54.2" width="46.2" height="22.8" rx="0" fill="none" fill-opacity="0.68" stroke="hsl(86, 72%, 68%)" stroke-width="1.0"  transform="translate(41.3 31.3) rotate(19.0) scale(1.84 0.95)" />
<path d="M 22.3 12.1 C 3.5 15.7, 28.4 95.1, 23.2 97.8 C 37.3 100.0, 22.2 53.3, 30.4 50.4 C 24.0 33.2, 63.0 31.0, 73.3 18.9 C 65.8 21.8, 91.6 61.8, 77.6 61.2 C 59.7 63.6, 36.2 34.2, 44.8 19.2 C 36.2 35.0, 32.9 85.3, 38.6 88.7 C 45.9 100.0, 42.6 70.2, 37.1 55.4 " fill="none" fill-opacity="0.56" stroke="hsl(2, 82%, 55%)" stroke-width="1.17"  transform="translate(75.5 8.5) rotate(95.8) scale(0.83 0.72)" />
<path d="M 37.0 31.9 C 31.3 12.9, 86.4 40.6, 98.2 46.6 C 83.2 32.8, 55.2 53.8, 42.0 63.5 C 32.3 55.6, 81.2 22.2, 87.9 19.6 C 89.7 33.7, 83.4 16.2, 78.4 23.5 C 81.8 35.3, 50.1 86.5, 36.9 72.9 C 25.1 61.5, 17.3 18.2, 25.8 17.0 " fill="hsl(104, 72%, 65%)" fill-opacity="0.54" stroke="none" stroke-width="1.18"  transform="translate(11.0 64.3) rotate(43.4) scale(1.16 1.34)" />
<rect x="49.9" y="55.1" width="35.1" height="34.9" rx="2.2" fill="hsl(290, 83%, 63%)" fill-opacity="0.58"    />
<rect x="8.7" y="70.2" width="42.5" height="12.1" rx="2.1" fill="none" fill-opacity="0.56"   transform="translate(68.4 92.5) rotate(349.7) scale(1.81 0.74)" />
<path d="M 55.7 14.2 C 62.2 18.1, 0.0 6.0, 0.5 9.8 C 1.6 5.8, 44.3 51.2, 55.2 64.3 C 35.9 68.0, 19.9 5.4, 22.6 0.2 C 36.5 12.9, 75.1 47.1, 87.4 57.5 C 100.0 65.0, 88.0 55.5, 99.2 50.7 C 100.0 60.0, 20.2 67.3, 19.6 58.4 C 32.8 51.2, 68.8 63.3, 65.0 75.1 " fill="none" fill-opacity="0.53" stroke="hsl(144, 86%, 72%)" stroke-width="0.86"  transform="translate(34.4 30.6) rotate(327.3) scale(1.65 0.79)" />
<rect x="28.2" y="67.8" width="25.7" height="30.8" rx="0" fill="none" fill-opacity="0.32"    />
<path d="M 38.4 65.4 C 24.6 61.4, 53.4 98.9, 64.9 91.4 C 57.9 72.9, 17.0 39.4, 16.4 47.0 C 27.1 66.3, 66.9 79.8, 54.7 89.6 C 55.2 94.8, 46.1 94.3, 51.8 86.4 " fill="hsl(2, 82%, 55%)" fill-opacity="0.66" stroke="none" stroke-width="1.18"  transform="translate(84.3 90.1) rotate(351.3) scale(0.67 1.45)" />
<circle cx="25.0" cy="73.9" r="1.6" fill="hsl(322, 74%, 44%)" fill-opacity="0.50"   />
<path d="M 48.4 50.8 C 36.1 46.1, 67.7 33.0, 69.7 21.2 C 68.4 35.1, 44.0 5.6, 58.6 16.9 C 50.1 26.7, 12.1 72.0, 26.7 83.2 C 20.9 91.1, 29.5 45.2, 38.2 48.0 C 50.3 43.7, 17.2 18.5, 14.8 22.0 C 4.4 10.5, 92.8 100.0, 82.4 89.9 C 85.2 93.3, 13.1 20.9, 15.8 9.4 " fill="hsl(144, 86%, 72%)" fill-opacity="0.70" stroke="none" stroke-width="1.21"  transform="translate(11.5 51.8) rotate(348.4) scale(0.55 0.89)" />
</svg>
