<?xml version="1.0" encoding="UTF-8"?>
<svg xmlns="http://www.w3.org/2000/svg" width="100" height="100" viewBox="0 0 100 100">
<defs>
<linearGradient id="g0" x1="0%" y1="0%" x2="100%" y2="100%">
<stop offset="0.0%" stop-color="hsl(106, 75%, 59%)" />
<stop offset="33.3%" stop-color="hsl(183, 71%, 60%)" />
<stop offset="66.7%" stop-color="hsl(242, 72%, 49%)" />
<stop offset="100.0%" stop-color="hsl(322, 74%, 44%)" />
</linearGradient>
<linearGradient id="g1" x1="0%" y1="0%" x2="100%" y2="100%">
<stop offset="0.0%" stop-color="hsl(290, 83%, 63%)" />
<stop offset="33.3%" stop-color="hsl(2, 82%, 55%)" />
<stop offset="66.7%" stop-color="hsl(86, 72%, 68%)" />
<stop offset="100.0%" stop-color="hsl(83, 65%, 44%)" />
</linearGradient>
<linearGradient id="g2" x1="0%" y1="0%" x2="100%" y2="100%">
<stop offset="0.0%" stop-color="hsl(40, 53%, 69%)" />
<stop offset="33.3%" stop-color="hsl(104, 72%, 65%)" />
<stop offset="66.7%" stop-color="hsl(144, 86%, 72%)" />
<stop offset="100.0%" stop-color="hsl(151, 70%, 62%)" />
</linearGradient>
</defs>

<rect x="15.1" y="80.3" width="45.9" height="18.8" rx="18.1" fill="hsl(290, 83%, 63%)" fill-opacity="0.62"   transform="translate(57.7 37.0) rotate(193.1) scale(1.32 0.72)" />
<rect x="21.3" y="76.4" width="32.7" height="14.9" rx="10.4" fill="none" fill-opacity="0.49" stroke="hsl(144, 86%, 72%)" stroke-width="3.2"   />
<path d="M 51.0 71.1 C 67.8 61.9, 58.5 49.8, 66.3 54.8 C 75.2 58.0, 84.8 81.9, 99.6 77.0 C 99.3 63.4, 45.0 74.5, 56.5 68.5 C 61.0 82.5, 67.3 12.1, 58.1 4.2 C 42.9 14.3, 32.7 64.4, 40.9 58.9 Z" fill="hsl(86, 72%, 68%)" fill-opacity="0.47" stroke="none" stroke-width="1.07"  transform="translate(6.3 85.8) rotate(37.0) scale(1.17 1.92)" />
<circle cx="19.8" cy="96.4" r="1.6" fill="hsl(40, 53%, 69%)" fill-opacity="0.64"   />
<path d="M 49.0 18.7 C 38.3 19.9, 38.8 75.8, 49.6 80.6 C 58.5 75.2, 13.1 3.6, 18.5 11.8 C 25.1 0.0, 2.5 0.0, 1.4 2.6 C 0.0 15.7, 78.2 19.6, 93.1 8.8 C 86.5 20.5, 90.2 23.8, 76.5 27.8 C 83.8 18.9, 100.0 49.9, 94.8 50.6 Z" fill="hsl(106, 75%, 59%)" fill-opacity="0.62" stroke="none" stroke-width="1.10"  transform="translate(89.7 42.0) rotate(90.9) scale(1.09 1.89)" />
<circle cx="34.9" cy="71.6" r="1.1" fill="hsl(83, 65%, 44%)" fill-opacity="0.63"   />
<circle cx="92.7" cy="72.1" r="0.3" fill="hsl(2, 82%, 55%)" fill-opacity="0.81"   />
<path d="M 99.1 89.5 C 100.0 84.6, 17.7 46.3, 14.1 32.8 C 0.0 17.3, 72.5 84.1, 67.6 83.0 C 73.3 89.1, 20.5 22.3, 8.6 34.4 C 26.0 33.9, 66.3 41.1, 67.1 40.2 " fill="none" fill-opacity="0.89" stroke="hsl(2, 82%, 55%)" stroke-width="1.04"   />
<rect x="26.3" y="4.6" width="46.0" height="22.2" rx="0" fill="hsl(104, 72%, 65%)" fill-opacity="0.79"    />
<path d="M 59.3 9.9 C 66.4 17.9, 44.5 39.4, 39.5 53.2 C 42.1 64.4, 89.2 92.0, 96.8 93.4 C 100.0 85.9, 77.2 72.1, 85.5 64.8 C 73.4 74.6, 65.9 21.5, 68.6 32.0 C 88.6 47.3, 26.4 5.4, 31.4 2.6 C 34.5 20.0, 71.0 37.8, 76.9 40.6 Z" fill="hsl(322, 74%, 44%)" fill-opacity="0.87" stroke="none" stroke-width="0.95"   />
<rect x="14.1" y="41.2" width="30.4" height="39.6" rx="0" fill="hsl(104, 72%, 65%)" fill-opacity="0.59"    />
<path d="M 14.7 5.0 C 5.0 2.2, 52.9 78.7, 46.1 91.6 C 32.9 100.0, 23.5 100.0, 19.4 92.7 C 14.1 79.4, 93.2 27.6, 83.2 21.1 C 73.7 32.2, 100.0 74.9, 99.1 81.0 C 100.0 89.0, 68.7 87.4, 54.9 87.4 C 71.2 100.0, 41.4 100.0, 37.7 96.7 " fill="none" fill-opacity="0.65" stroke="hsl(151, 70%, 62%)" stroke-width="1.11"  transform="translate(0.7 50.5) rotate(208.3) scale(0.97 1.83)" />
<path d="M 87.4 33.6 C 75.4 53.4, 64.7 92.7, 62.3 94.6 C 49.6 79.5, 27.0 44.1, 17.7 45.7 C 32.4 28.5, 61.8 4.0, 74.1 15.5 C 68.4 19.6, 20.3 35.9, 28.2 33.8 Z" fill="hsl(290, 83%, 63%)" fill-opacity="0.96" stroke="none" stroke-width="1.19"   />
<rect x="42.9" y="2.6" width="25.2" height="18.6" rx="0" fill="hsl(2, 82%, 55%)" fill-opacity="0.34"    />
<rect x="0.9" y="21.7" width="25.2" height="15.8" rx="0" fill="none" fill-opacity="0.85"    />
<rect x="50.4" y="38.6" width="38.7" height="30.5" rx="0" fill="hsl(151, 70%, 62%)" fill-opacity="0.65" stroke="hsl(104, 72%, 65%)" stroke-width="3.7"   />
</svg>
