<?xml version="1.0" encoding="UTF-8"?>
<svg xmlns="http://www.w3.org/2000/svg" width="100" height="100" viewBox="0 0 100 100">
<defs>
<linearGradient id="g0" x1="0%" y1="0%" x2="100%" y2="100%">
<stop offset="0.0%" stop-color="hsl(106, 75%, 59%)" />
<stop offset="33.3%" stop-color="hsl(183, 71%, 60%)" />
<stop offset="66.7%" stop-color="hsl(242, 72%, 49%)" />
<stop offset="100.0%" stop-color="hsl(322, 74%, 44%)" />
</linearGradient>
<linearGradient id="g1" x1="0%" y1="0%" x2="100%" y2="100%">
<stop offset="0.0%" stop-color="hsl(290, 83%, 63%)" />
<stop offset="33.3%" stop-color="hsl(2, 82%, 55%)" />
<stop offset="66.7%" stop-color="hsl(86, 72%, 68%)" />
<stop offset="100.0%" stop-color="hsl(83, 65%, 44%)" />
</linearGradient>
<linearGradient id="g2" x1="0%" y1="0%" x2="100%" y2="100%">
<stop offset="0.0%" stop-color="hsl(40, 53%, 69%)" />
<stop offset="33.3%" stop-color="hsl(104, 72%, 65%)" />
<stop offset="66.7%" stop-color="hsl(144, 86%, 72%)" />
<stop offset="100.0%" stop-color="hsl(151, 70%, 62%)" />
</linearGradient>
<filter id="f1" x="-20%" y="-20%" width="140%" height="140%">
  <feGaussianBlur stdDeviation="1.905281735408621" />
</filter>

</defs>

<circle cx="48.0" cy="18.9" r="1.4" fill="hsl(242, 72%, 49%)" fill-opacity="0.93"  transform="translate(6.9 2.1) rotate(30.8) scale(0.89 1.28)" />
<circle cx="86.3" cy="88.5" r="7.3" fill="url(#g1)" fill-opacity="0.98" filter="url(#f1)"  />
<rect x="51.0" y="13.9" width="45.7" height="25.6" rx="2.7" fill="hsl(2, 82%, 55%)" fill-opacity="0.74"   transform="translate(70.6 100.0) rotate(153.1) scale(0.75 1.25)" />
<rect x="9.5" y="34.9" width="25.9" height="20.1" rx="3.6" fill="hsl(322, 74%, 44%)" fill-opacity="0.51"  filter="url(#f1)" transform="translate(60.6 59.0) rotate(306.0) scale(0.80 1.17)" />
<rect x="57.3" y="10.1" width="37.3" height="25.8" rx="5.7" fill="none" fill-opacity="0.84"   transform="translate(0.6 61.5) rotate(180.2) scale(0.96 0.80)" />
<rect x="50.8" y="82.8" width="41.0" height="10.7" rx="12.9" fill="hsl(290, 83%, 63%)" fill-opacity="0.66" stroke="hsl(290, 83%, 63%)" stroke-width="1.3"  transform="translate(40.4 10.9) rotate(22.6) scale(0.55 0.57)" />
<rect x="49.7" y="5.3" width="31.4" height="23.8" rx="0" fill="hsl(242, 72%, 49%)" fill-opacity="0.40"   transform="translate(86.9 85.8) rotate(329.4) scale(1.91 1.18)" />
<path d="M 66.2 88.9 C 60.5 100.0, 33.9 49.0, 41.6 36.4 C 54.9 43.6, 24.0 35.8, 33.6 30.7 C 46.4 32.2, 87.5 23.1, 88.7 10.3 C 73.3 21.5, 64.3 81.7, 54.6 73.4 C 43.2 72.2, 64.7 83.8, 59.8 84.5 C 75.5 95.2, 28.1 38.0, 23.3 29.4 C 16.3 42.6, 98.5 80.6, 85.7 67.9 Z" fill="hsl(183, 71%, 60%)" fill-opacity="0.82" stroke="none" stroke-width="1.42"   />
<path d="M 46.9 75.0 C 31.9 55.1, 76.0 67.8, 78.0 68.9 C 60.4 54.7, 61.3 72.1, 58.9 80.9 C 44.4 100.0, 50.8 13.1, 51.0 26.1 C 66.1 17.5, 45.8 70.6, 51.2 77.4 C 50.7 71.5, 100.0 66.9, 91.1 56.7 C 90.5 51.6, 16.0 52.4, 26.3 49.7 C 20.8 47.6, 77.4 49.5, 87.2 49.6 C 95.2 37.0, 13.8 61.6, 25.1 70.4 Z" fill="hsl(104, 72%, 65%)" fill-opacity="0.52" stroke="none" stroke-width="5.29"  transform="translate(87.3 4.4) rotate(57.9) scale(1.08 1.50)" />
<rect x="66.8" y="9.4" width="27.1" height="37.3" rx="8.4" fill="none" fill-opacity="0.68"  filter="url(#f1)"  />
<path d="M 40.6 10.5 C 30.7 23.3, 42.5 0.0, 28.9 5.6 C 37.4 0.0, 21.9 61.4, 17.9 65.3 C 17.8 68.9, 20.1 33.4, 17.8 23.4 C 7.5 22.9, 27.9 63.5, 41.2 63.9 C 53.0 76.2, 54.0 24.9, 42.9 30.5 C 43.6 33.6, 81.5 77.5, 81.9 72.5 C 100.0 52.9, 0.0 8.3, 1.3 18.2 C 0.0 5.3, 72.8 70.4, 69.5 83.9 C 83.5 72.8, 100.0 12.8, 92.3 22.5 Z" fill="hsl(104, 72%, 65%)" fill-opacity="0.50" stroke="none" stroke-width="1.92"  transform="translate(9.1 15.8) rotate(93.9) scale(1.89 1.60)" />
<path d="M 0.5 52.0 C 16.8 47.8, 28.8 14.2, 14.3 23.0 C 32.6 34.0, 37.3 92.8, 51.2 99.3 C 42.1 100.0, 47.9 5.0, 47.2 15.6 C 66.6 5.4, 17.2 31.3, 24.9 24.7 C 26.1 41.2, 85.7 70.4, 81.2 85.0 C 64.4 97.0, 53.6 84.0, 58.3 71.9 C 64.1 54.1, 7.3 53.3, 19.8 39.8 Z" fill="hsl(104, 72%, 65%)" fill-opacity="0.69" stroke="none" stroke-width="3.09"  transform="translate(35.5 35.3) rotate(181.5) scale(1.62 0.92)" />
<rect x="37.7" y="39.4" width="22.0" height="25.9" rx="0" fill="none" fill-opacity="0.25" stroke="hsl(106, 75%, 59%)" stroke-width="4.6"  transform="translate(86.4 81.6) rotate(315.5) scale(1.35 1.59)" />
<circle cx="48.4" cy="98.5" r="9.0" fill="url(#g0)" fill-opacity="0.71"  transform="translate(5.5 38.6) rotate(173.6) scale(1.16 1.95)" />
<circle cx="64.6" cy="97.3" r="2.8" fill="hsl(151, 70%, 62%)" fill-opacity="0.86"  transform="translate(56.9 19.5) rotate(173.5) scale(0.71 1.46)" />
<path d="M 72.8 14.1 C 81.3 2.9, 100.0 5.6, 98.4 2.6 C 100.0 19.1, 58.3 72.8, 60.6 65.1 C 57.2 69.1, 88.0 41.0, 79.4 51.3 C 64.7 49.3, 77.4 28.8, 73.4 13.8 C 80.6 0.0, 62.2 7.2, 68.5 6.6 C 67.6 0.0, 35.1 14.9, 29.7 19.4 C 34.9 18.6, 47.1 59.1, 36.8 61.1 C 34.8 50.7, 74.6 73.6, 80.9 76.6 C 69.5 84.0, 23.0 49.8, 31.7 48.6 C 18.6 35.1, 30.2 22.5, 18.0 16.3 Z" fill="none" fill-opacity="0.28" stroke="hsl(106, 75%, 59%)" stroke-width="1.06"  transform="translate(26.0 39.3) rotate(195.2) scale(1.76 1.50)" />
<path d="M 90.5 99.6 C 95.7 100.0, 1.4 77.0, 10.6 78.9 C 28.3 88.3, 3.7 29.5, 8.4 39.7 C 6.1 35.2, 12.0 80.6, 13.2 79.0 C 12.8 75.2, 16.9 95.6, 3.6 84.3 C 18.3 93.3, 75.1 0.0, 65.8 0.0 C 54.5 0.7, 15.0 81.3, 8.7 93.3 C 3.8 75.7, 78.9 87.5, 67.3 73.7 Z" fill="hsl(86, 72%, 68%)" fill-opacity="0.59" stroke="none" stroke-width="1.98"  transform="translate(0.3 10.9) rotate(181.1) scale(1.39 0.89)" />
<rect x="47.3" y="57.8" width="37.2" height="22.9" rx="2.3" fill="hsl(40, 53%, 69%)" fill-opacity="0.71" stroke="hsl(151, 70%, 62%)" stroke-width="4.8"   />
<path d="M 13.0 56.1 C 22.3 55.6, 40.5 48.9, 34.7 39.6 C 35.5 21.7, 61.7 3.7, 74.2 17.2 C 71.1 20.9, 76.1 90.1, 74.0 85.5 C 64.2 100.0, 26.6 95.4, 37.9 91.4 C 43.0 82.8, 50.5 85.6, 49.3 73.8 C 48.2 90.2, 20.6 29.2, 25.0 43.9 C 7.9 26.7, 53.3 33.7, 58.1 33.6 C 43.4 34.4, 2.8 83.8, 4.3 92.2 C 5.3 84.9, 28.2 14.3, 42.2 12.0 C 56.6 19.3, 0.0 56.6, 13.0 61.0 " fill="hsl(322, 74%, 44%)" fill-opacity="0.64" stroke="none" stroke-width="4.23"  transform="translate(82.2 14.5) rotate(255.7) scale(1.40 1.06)" />
<circle cx="21.5" cy="39.3" r="17.6" fill="hsl(2, 82%, 55%)" fill-opacity="0.75"  transform="translate(5.1 89.8) rotate(261.3) scale(1.07 1.73)" />
<rect x="54.5" y="73.9" width="40.1" height="15.1" rx="0" fill="none" fill-opacity="0.70" stroke="hsl(40, 53%, 69%)" stroke-width="1.9"  transform="translate(28.9 20.1) rotate(211.6) scale(1.23 1.78)" />
<path d="M 85.2 30.3 C 68.8 27.2, 80.0 37.0, 86.2 49.1 C 82.2 29.8, 76.1 13.4, 68.8 1.6 C 73.7 0.0, 30.6 62.4, 23.2 62.2 C 35.7 43.9, 68.9 72.5, 66.3 74.8 C 69.4 71.3, 31.4 75.2, 21.1 67.5 C 29.8 62.9, 71.9 77.8, 69.4 81.5 C 86.5 93.9, 31.5 25.4, 34.2 38.9 C 15.2 29.6, 82.4 0.0, 67.5 1.4 Z" fill="hsl(86, 72%, 68%)" fill-opacity="0.61" stroke="none" stroke-width="4.76"  transform="translate(8.8 72.9) rotate(240.1) scale(1.58 1.71)" />
<rect x="19.5" y="80.2" width="31.8" height="11.7" rx="19.4" fill="hsl(151, 70%, 62%)" fill-opacity="0.62"    />
<rect x="2.9" y="51.7" width="25.9" height="21.9" rx="0" fill="hsl(183, 71%, 60%)" fill-opacity="0.77"   transform="translate(57.6 28.0) rotate(35.8) scale(1.06 1.40)" />
<path d="M 25.5 47.0 C 15.4 36.8, 52.0 66.1, 47.9 65.7 C 53.8 85.6, 33.8 9.7, 29.4 9.6 C 15.8 8.8, 9.4 53.9, 1.2 40.8 C 6.3 39.1, 75.1 49.1, 61.2 36.8 C 53.5 30.6, 0.9 78.2, 4.9 81.0 C 0.0 86.3, 6.6 0.0, 4.3 4.0 C 13.5 10.9, 72.0 89.2, 57.7 91.3 C 60.7 100.0, 22.5 41.2, 22.1 28.2 Z" fill="none" fill-opacity="0.52" stroke="hsl(104, 72%, 65%)" stroke-width="1.83"  transform="translate(11.6 31.8) rotate(219.6) scale(1.11 0.90)" />
<path d="M 27.1 40.4 C 24.1 49.3, 57.5 14.9, 61.0 24.9 C 73.9 23.8, 83.2 0.0, 70.9 7.4 C 89.1 0.4, 82.9 36.3, 77.3 37.4 C 90.1 17.7, 72.1 33.8, 64.2 38.7 C 59.4 38.3, 48.1 11.4, 33.8 10.8 C 51.5 19.5, 24.0 58.1, 29.6 71.7 C 38.8 68.5, 64.2 10.4, 62.4 14.0 C 75.0 2.5, 70.0 72.4, 68.6 86.5 C 88.1 71.3, 5.6 43.2, 10.9 35.1 C 0.0 51.9, 46.5 100.0, 51.4 90.6 Z" fill="none" fill-opacity="0.62" stroke="hsl(2, 82%, 55%)" stroke-width="2.69"  transform="translate(96.2 25.3) rotate(59.6) scale(0.99 1.33)" />
<circle cx="26.5" cy="5.5" r="9.5" fill="url(#g0)" fill-opacity="0.49"  transform="translate(23.8 82.8) rotate(241.6) scale(1.83 1.88)" />
<path d="M 77.7 4.9 C 89.3 0.0, 86.3 78.9, 96.0 73.9 C 100.0 82.9, 86.3 35.4, 94.4 37.6 C 86.7 23.5, 0.0 71.4, 0.6 80.2 C 0.0 74.5, 61.7 33.4, 57.2 45.7 C 66.8 51.6, 57.6 25.9, 49.3 31.8 C 36.7 48.6, 21.9 4.3, 32.2 14.2 C 13.0 6.9, 47.1 100.0, 35.6 97.2 C 54.5 100.0, 2.1 59.3, 10.6 67.7 C 5.0 82.7, 74.0 31.0, 62.1 23.6 C 64.7 42.5, 8.6 23.6, 6.8 12.6 Z" fill="hsl(242, 72%, 49%)" fill-opacity="0.29" stroke="none" stroke-width="1.66"  transform="translate(66.0 56.4) rotate(336.2) scale(1.37 1.95)" />
<circle cx="74.3" cy="63.3" r="7.6" fill="url(#g2)" fill-opacity="0.52" filter="url(#f1)" transform="translate(26.7 14.4) rotate(59.1) scale(0.74 1.87)" />
<circle cx="79.0" cy="37.4" r="0.7" fill="hsl(40, 53%, 69%)" fill-opacity="0.79"  transform="translate(96.4 87.5) rotate(180.4) scale(1.13 1.69)" />
<circle cx="89.6" cy="77.4" r="9.3" fill="hsl(151, 70%, 62%)" fill-opacity="0.60"   />
<rect x="43.6" y="5.8" width="43.5" height="26.5" rx="0" fill="none" fill-opacity="0.87" stroke="hsl(144, 86%, 72%)" stroke-width="4.4"  transform="translate(34.0 12.8) rotate(319.3) scale(0.81 0.67)" />
<path d="M 63.9 65.8 C 46.5 60.5, 16.0 0.0, 18.1 8.6 C 5.7 0.0, 65.5 15.3, 51.5 4.2 C 43.9 1.5, 82.6 80.5, 73.4 67.0 C 56.9 67.5, 39.6 97.5, 34.5 96.7 C 48.0 85.3, 86.9 51.8, 74.8 65.0 C 73.1 49.3, 23.7 55.9, 21.6 41.8 C 23.0 34.2, 15.6 97.5, 25.4 93.7 Z" fill="none" fill-opacity="0.29" stroke="hsl(2, 82%, 55%)" stroke-width="2.11"  transform="translate(61.5 70.4) rotate(166.4) scale(1.05 0.81)" />
<path d="M 40.0 2.8 C 48.4 0.0, 58.9 78.6, 73.6 81.1 C 59.4 73.8, 100.0 77.2, 95.3 79.6 C 100.0 76.3, 25.7 0.0, 31.1 9.8 C 34.8 4.9, 13.8 100.0, 22.3 98.3 C 2.8 81.0, 74.9 15.2, 63.9 30.2 C 56.3 33.6, 0.0 3.9, 0.2 6.9 C 10.8 22.5, 57.1 13.1, 46.2 8.9 Z" fill="none" fill-opacity="0.86" stroke="hsl(242, 72%, 49%)" stroke-width="3.92"  transform="translate(19.0 63.5) rotate(96.2) scale(1.32 1.94)" />
<path d="M 16.0 1.1 C 27.3 0.0, 67.9 46.2, 76.4 60.2 C 85.0 53.9, 69.8 32.4, 80.7 38.1 C 95.4 41.2, 5.7 67.5, 0.6 79.0 C 1.4 71.8, 82.3 4.8, 93.1 17.8 C 73.1 27.7, 0.0 72.7, 3.0 82.7 C 0.0 78.2, 97.7 45.7, 96.2 35.2 C 100.0 32.0, 55.4 77.3, 63.8 88.0 Z" fill="hsl(242, 72%, 49%)" fill-opacity="0.73" stroke="none" stroke-width="1.75"  transform="translate(80.6 95.7) rotate(263.4) scale(1.97 1.81)" />
<circle cx="75.4" cy="36.7" r="2.0" fill="hsl(144, 86%, 72%)" fill-opacity="0.97"  transform="translate(23.7 8.2) rotate(273.7) scale(1.20 1.16)" />
<rect x="61.4" y="59.1" width="25.8" height="32.8" rx="0" fill="hsl(183, 71%, 60%)" fill-opacity="0.72"   transform="translate(46.4 8.3) rotate(266.8) scale(1.43 1.82)" />
<path d="M 73.3 5.5 C 78.5 0.0, 65.5 5.8, 79.8 17.6 C 99.0 12.3, 97.4 69.7, 96.8 71.1 C 100.0 88.1, 6.3 92.0, 17.2 87.7 C 0.0 87.1, 58.8 31.3, 73.3 19.9 C 54.2 4.1, 51.3 69.6, 60.0 57.1 C 51.6 54.0, 78.0 95.9, 66.3 97.5 C 48.7 85.4, 51.6 32.0, 49.0 27.1 Z" fill="hsl(290, 83%, 63%)" fill-opacity="0.43" stroke="none" stroke-width="1.76"  transform="translate(70.2 38.6) rotate(239.2) scale(1.28 0.60)" />
<path d="M 45.5 66.1 C 56.1 72.1, 78.5 42.2, 76.8 56.2 C 86.7 53.0, 0.0 75.9, 6.0 77.0 C 0.0 71.9, 42.6 14.2, 30.3 7.5 C 33.7 21.9, 0.0 61.5, 9.0 68.0 C 13.5 56.0, 17.3 23.9, 12.2 9.9 C 1.2 20.4, 67.4 100.0, 64.4 92.9 C 83.1 80.6, 82.1 100.0, 68.5 99.6 Z" fill="hsl(183, 71%, 60%)" fill-opacity="0.79" stroke="none" stroke-width="4.16"  transform="translate(16.2 79.8) rotate(48.4) scale(1.91 1.29)" />
<circle cx="19.8" cy="5.1" r="7.3" fill="url(#g0)" fill-opacity="0.91"  transform="translate(81.4 39.1) rotate(18.1) scale(0.71 1.19)" />
<path d="M 1.7 70.5 C 0.0 89.2, 79.6 62.0, 75.7 55.2 C 81.2 64.9, 13.5 78.3, 25.5 83.5 C 33.7 81.2, 0.0 63.2, 8.8 71.0 C 0.0 57.4, 33.9 68.2, 38.3 78.9 C 42.6 92.8, 24.6 48.6, 22.5 57.9 C 20.3 74.1, 16.0 47.2, 23.6 38.2 C 27.0 54.6, 28.4 36.6, 32.9 46.4 " fill="hsl(322, 74%, 44%)" fill-opacity="0.47" stroke="none" stroke-width="2.63" filter="url(#f1)" transform="translate(11.7 8.0) rotate(172.4) scale(1.23 1.62)" />
<circle cx="92.2" cy="69.6" r="2.6" fill="url(#g1)" fill-opacity="0.96"  transform="translate(15.0 46.1) rotate(121.8) scale(1.36 1.15)" />
<path d="M 37.0 42.2 C 39.2 50.7, 100.0 62.8, 92.2 65.2 C 100.0 76.9, 79.5 17.3, 79.3 14.7 C 75.3 0.0, 38.8 59.9, 34.5 57.1 C 48.0 48.0, 28.6 44.0, 34.6 35.2 C 25.8 19.0, 64.0 41.9, 54.2 39.1 C 37.0 53.9, 38.2 95.3, 32.4 81.8 Z" fill="hsl(183, 71%, 60%)" fill-opacity="0.50" stroke="none" stroke-width="2.92"  transform="translate(33.9 48.1) rotate(46.8) scale(1.10 1.85)" />
<path d="M 72.2 50.1 C 79.8 57.8, 45.2 13.5, 59.8 28.5 C 63.5 46.4, 54.6 47.9, 67.2 35.0 C 72.7 48.4, 30.0 50.2, 44.3 38.6 C 36.2 43.0, 15.0 84.9, 23.2 79.4 C 3.9 70.1, 43.6 34.2, 41.3 28.7 C 50.0 27.1, 23.2 49.7, 36.1 48.6 C 22.1 34.2, 42.1 84.6, 45.4 79.7 C 27.8 98.1, 6.1 84.3, 3.6 95.5 C 8.3 100.0, 97.7 67.9, 95.8 66.0 Z" fill="hsl(290, 83%, 63%)" fill-opacity="0.68" stroke="none" stroke-width="2.64"  transform="translate(23.6 39.1) rotate(257.7) scale(1.33 1.02)" />
<path d="M 81.2 44.3 C 96.6 58.3, 100.0 16.9, 99.0 19.7 C 96.5 30.1, 0.0 90.4, 11.0 82.6 C 5.8 77.2, 69.0 55.6, 70.2 45.1 C 64.2 64.7, 47.7 86.1, 46.3 74.3 C 50.9 56.8, 70.0 22.9, 81.5 36.3 C 95.6 38.8, 97.9 38.7, 89.3 53.1 C 84.9 45.0, 92.2 4.4, 86.6 3.0 C 85.6 0.0, 48.9 92.7, 61.3 89.4 Z" fill="hsl(144, 86%, 72%)" fill-opacity="0.53" stroke="none" stroke-width="0.89"  transform="translate(50.7 5.0) rotate(235.1) scale(1.74 1.66)" />
<path d="M 51.5 81.3 C 51.0 78.1, 80.7 30.0, 84.1 26.9 C 95.2 45.8, 46.1 84.6, 54.3 84.5 C 65.7 65.8, 37.4 15.1, 28.5 13.7 C 21.5 27.3, 80.1 46.1, 86.4 40.8 C 100.0 56.2, 50.6 79.0, 52.8 88.6 C 36.0 68.6, 78.3 43.1, 83.9 57.6 C 76.5 48.6, 1.7 21.8, 4.6 32.5 Z" fill="hsl(106, 75%, 59%)" fill-opacity="0.60" stroke="none" stroke-width="3.58"   />
<path d="M 79.1 16.4 C 95.4 13.5, 36.1 39.9, 29.9 29.5 C 49.7 22.0, 69.5 56.5, 60.7 45.6 C 47.6 59.8, 27.1 100.0, 34.3 87.7 C 17.2 69.8, 2.1 61.5, 14.3 70.3 C 31.7 76.9, 68.2 84.8, 65.9 71.3 C 81.8 78.2, 23.2 70.4, 32.2 72.9 C 14.9 91.5, 69.5 66.8, 68.6 52.9 C 80.8 34.5, 10.4 21.2, 4.9 31.2 C 14.1 25.0, 46.2 94.5, 47.8 99.4 Z" fill="hsl(242, 72%, 49%)" fill-opacity="0.82" stroke="none" stroke-width="1.73"  transform="translate(30.0 35.8) rotate(32.0) scale(1.55 1.37)" />
<path d="M 23.0 74.3 C 33.8 86.4, 77.6 20.0, 67.9 21.8 C 57.2 40.6, 26.6 66.4, 12.3 81.3 C 25.2 61.4, 14.8 98.5, 6.8 92.5 C 1.0 92.8, 49.4 37.8, 37.2 42.4 C 39.4 41.8, 21.1 20.9, 16.9 8.1 C 13.0 25.2, 28.3 14.6, 34.4 1.3 Z" fill="none" fill-opacity="0.36" stroke="hsl(2, 82%, 55%)" stroke-width="3.33"   />
<circle cx="29.6" cy="52.1" r="9.2" fill="hsl(2, 82%, 55%)" fill-opacity="0.45"   />
<path d="M 42.0 49.9 C 22.1 35.3, 75.2 17.2, 66.5 26.4 C 50.1 41.4, 25.3 32.6, 38.3 34.9 C 48.6 44.5, 83.3 41.7, 88.8 32.9 C 71.5 32.3, 0.0 22.0, 5.5 24.2 C 6.5 20.7, 16.8 53.4, 27.9 61.4 C 14.2 44.7, 7.1 67.8, 12.0 74.5 C 0.0 82.1, 51.4 58.4, 54.4 48.2 C 47.7 41.3, 47.6 94.1, 37.3 87.8 C 24.8 100.0, 0.5 25.6, 12.0 34.5 Z" fill="none" fill-opacity="0.94" stroke="hsl(2, 82%, 55%)" stroke-width="3.85"  transform="translate(75.8 2.3) rotate(168.4) scale(0.88 1.03)" />
<path d="M 67.2 57.2 C 83.2 37.5, 43.5 32.4, 31.2 43.4 C 31.7 30.8, 69.6 27.9, 82.2 33.4 C 82.2 46.0, 15.2 90.0, 28.9 80.2 C 16.7 88.8, 58.0 32.7, 46.9 28.3 C 59.4 21.1, 16.7 40.9, 6.1 35.6 C 21.4 24.3, 57.9 13.6, 45.1 12.7 Z" fill="none" fill-opacity="0.34" stroke="hsl(151, 70%, 62%)" stroke-width="4.02"  transform="translate(4.6 59.5) rotate(283.7) scale(0.59 0.70)" />
<path d="M 81.9 76.7 C 90.6 62.9, 71.9 80.3, 84.9 80.3 C 94.2 87.9, 16.3 36.6, 8.9 33.1 C 0.0 20.8, 65.8 19.6, 54.6 22.5 C 39.5 27.7, 29.8 33.3, 25.0 38.8 C 23.0 44.4, 93.1 20.0, 97.6 5.8 C 100.0 22.6, 74.8 0.0, 64.3 1.3 C 78.9 14.2, 13.7 40.2, 18.6 43.9 Z" fill="none" fill-opacity="0.69" stroke="hsl(242, 72%, 49%)" stroke-width="3.13"  transform="translate(30.6 16.9) rotate(43.6) scale(0.85 1.72)" />
<rect x="34.6" y="1.0" width="38.8" height="10.6" rx="7.3" fill="none" fill-opacity="0.31"   transform="translate(72.7 66.0) rotate(94.1) scale(0.51 0.99)" />
<rect x="7.2" y="41.3" width="35.9" height="20.7" rx="2.9" fill="none" fill-opacity="0.54"  filter="url(#f1)" transform="translate(81.4 79.5) rotate(241.0) scale(1.37 1.56)" />
<rect x="16.5" y="17.1" width="38.6" height="28.3" rx="0" fill="none" fill-opacity="0.42" stroke="hsl(2, 82%, 55%)" stroke-width="3.9"  transform="translate(8.2 31.5) rotate(231.9) scale(1.58 1.51)" />
<circle cx="13.7" cy="45.1" r="1.6" fill="hsl(83, 65%, 44%)" fill-opacity="0.43"  transform="translate(34.3 9.3) rotate(315.4) scale(1.42 1.61)" />
<rect x="21.6" y="42.8" width="40.3" height="24.5" rx="15.4" fill="none" fill-opacity="0.96"   transform="translate(24.4 71.1) rotate(275.0) scale(0.76 0.56)" />
<path d="M 59.8 41.8 C 54.0 61.2, 41.9 11.2, 56.0 16.4 C 39.7 2.9, 60.3 62.9, 59.1 52.7 C 44.1 40.6, 92.1 48.5, 87.8 61.3 C 93.7 66.3, 74.3 72.5, 71.1 69.4 C 81.0 58.8, 31.8 55.4, 44.2 53.7 C 53.2 70.6, 14.2 0.0, 12.4 6.4 C 28.2 0.0, 95.3 71.9, 96.5 76.4 C 99.5 93.2, 95.3 50.1, 95.6 38.5 C 98.9 40.8, 100.0 30.7, 94.3 39.0 C 93.8 45.1, 74.3 62.0, 70.2 70.1 " fill="hsl(2, 82%, 55%)" fill-opacity="0.48" stroke="none" stroke-width="3.44"  transform="translate(96.7 93.3) rotate(211.1) scale(0.83 1.77)" />
<rect x="38.6" y="45.9" width="49.5" height="20.3" rx="6.3" fill="none" fill-opacity="0.98"   transform="translate(80.1 76.5) rotate(29.0) scale(0.58 0.95)" />
<circle cx="96.9" cy="28.2" r="4.5" fill="url(#g0)" fill-opacity="0.60" filter="url(#f1)"  />
<path d="M 36.5 92.3 C 39.2 100.0, 71.5 69.6, 73.4 69.0 C 70.7 69.0, 17.2 12.2, 15.5 0.2 C 26.7 0.0, 72.6 70.8, 81.4 77.5 C 81.8 89.5, 45.3 100.0, 49.5 89.7 C 58.7 88.1, 61.8 38.8, 51.4 44.4 C 63.3 25.2, 16.3 20.9, 18.0 18.1 C 22.0 33.1, 34.2 100.0, 45.6 98.6 C 33.6 82.4, 95.3 73.2, 81.9 81.7 C 62.1 63.7, 61.2 85.8, 46.7 73.3 C 30.6 92.7, 62.0 100.0, 50.7 90.9 Z" fill="hsl(290, 83%, 63%)" fill-opacity="0.80" stroke="none" stroke-width="3.83" filter="url(#f1)" transform="translate(5.1 22.4) rotate(358.8) scale(1.61 1.40)" />
<rect x="58.3" y="32.1" width="31.6" height="34.5" rx="19.2" fill="none" fill-opacity="0.54"   transform="translate(28.8 69.1) rotate(241.3) scale(1.07 1.59)" />
<path d="M 83.0 55.1 C 74.0 45.4, 0.0 81.7, 2.9 71.2 C 1.6 85.9, 73.9 35.5, 77.6 28.6 C 60.1 11.5, 20.4 34.2, 34.3 38.1 C 31.5 44.2, 100.0 0.0, 93.9 4.4 C 75.6 1.9, 42.9 100.0, 47.7 90.8 C 33.0 100.0, 14.1 67.7, 27.4 79.8 C 24.6 96.8, 97.6 38.4, 87.7 24.7 C 72.0 37.0, 2.8 35.8, 11.1 31.7 C 0.0 35.0, 59.1 76.5, 50.6 88.1 Z" fill="none" fill-opacity="0.49" stroke="hsl(86, 72%, 68%)" stroke-width="2.24"  transform="translate(24.2 70.5) rotate(280.0) scale(0.73 1.84)" />
<rect x="55.2" y="59.7" width="32.9" height="17.9" rx="6.2" fill="hsl(86, 72%, 68%)" fill-opacity="0.41"   transform="translate(69.4 84.1) rotate(268.1) scale(0.69 0.91)" />
<path d="M 83.2 72.8 C 66.4 89.4, 24.7 57.5, 29.8 48.8 C 35.3 48.4, 31.1 96.8, 38.5 87.9 C 57.3 93.4, 95.3 13.1, 90.4 0.5 C 100.0 12.1, 19.6 68.9, 24.2 78.3 C 35.7 79.0, 84.0 50.6, 82.4 52.4 C 84.0 49.6, 73.3 18.9, 87.6 17.7 Z" fill="none" fill-opacity="0.34" stroke="hsl(151, 70%, 62%)" stroke-width="4.42"  transform="translate(3.7 1.4) rotate(80.4) scale(1.82 1.78)" />
<rect x="15.0" y="27.2" width="33.7" height="34.1" rx="0" fill="none" fill-opacity="0.99"   transform="translate(31.6 81.4) rotate(282.9) scale(1.69 0.99)" />
<path d="M 96.5 7.4 C 100.0 10.5, 89.0 87.5, 88.5 96.5 C 89.6 81.7, 52.4 88.8, 52.2 76.2 C 65.9 85.2, 44.0 36.3, 52.9 36.3 C 32.9 23.1, 9.4 81.0, 3.3 88.5 C 4.3 90.9, 87.2 16.6, 77.9 28.5 C 85.7 22.3, 8.9 36.8, 17.2 45.4 C 0.0 59.2, 14.4 69.4, 1.1 68.8 C 1.8 68.7, 13.8 13.4, 19.6 6.9 Z" fill="hsl(83, 65%, 44%)" fill-opacity="0.63" stroke="none" stroke-width="4.87"  transform="translate(31.8 91.9) rotate(307.4) scale(0.53 1.00)" />
<path d="M 59.5 60.6 C 58.2 58.8, 78.5 54.7, 68.4 53.8 C 52.7 39.6, 60.7 23.7, 69.0 17.3 C 83.6 18.1, 50.6 28.8, 63.1 22.9 C 80.5 18.5, 28.0 15.3, 28.0 10.4 C 23.7 11.5, 59.3 94.7, 55.2 89.5 C 37.8 100.0, 39.4 82.4, 24.5 86.9 C 26.6 70.5, 10.1 63.0, 4.6 76.8 C 7.4 75.5, 77.6 91.5, 87.4 88.7 Z" fill="none" fill-opacity="0.96" stroke="hsl(290, 83%, 63%)" stroke-width="2.53"   />
<circle cx="20.7" cy="20.6" r="2.5" fill="url(#g1)" fill-opacity="0.69"   />
<path d="M 8.5 7.5 C 0.0 24.5, 35.3 79.2, 47.2 65.2 C 28.1 76.5, 8.5 88.9, 8.6 75.8 C 0.0 77.1, 85.9 38.8, 79.6 47.4 C 96.2 47.2, 100.0 80.4, 96.7 74.1 C 90.9 67.8, 57.5 46.8, 53.1 41.6 C 58.9 31.4, 22.7 67.3, 18.1 80.5 C 13.1 89.8, 78.0 70.4, 76.3 73.4 " fill="hsl(106, 75%, 59%)" fill-opacity="0.65" stroke="none" stroke-width="3.16"  transform="translate(17.7 84.8) rotate(69.4) scale(1.85 1.27)" />
<rect x="66.0" y="33.2" width="24.0" height="17.3" rx="0" fill="none" fill-opacity="0.71"   transform="translate(56.4 84.2) rotate(127.1) scale(1.86 1.91)" />
<circle cx="18.8" cy="81.2" r="2.8" fill="url(#g1)" fill-opacity="0.74"  transform="translate(93.3 87.9) rotate(196.4) scale(1.43 1.64)" />
<path d="M 13.7 36.5 C 2.6 52.3, 3.1 42.9, 15.8 31.9 C 0.0 15.4, 58.5 100.0, 54.9 96.3 C 56.6 95.6, 94.1 9.8, 80.0 18.4 C 68.3 36.6, 15.4 14.5, 14.8 7.9 C 16.6 9.2, 13.2 0.0, 19.6 4.3 C 1.1 17.1, 100.0 0.0, 87.9 1.5 Z" fill="none" fill-opacity="0.62" stroke="hsl(183, 71%, 60%)" stroke-width="4.21"   />
<rect x="19.7" y="14.8" width="28.3" height="25.3" rx="7.6" fill="hsl(144, 86%, 72%)" fill-opacity="0.77"   transform="translate(58.1 83.0) rotate(265.9) scale(0.86 0.91)" />
<g opacity="0.066">
<rect x="0" y="0" width="1" height="100" fill="black" />
<rect x="22" y="0" width="1" height="100" fill="black" />
<rect x="44" y="0" width="1" height="100" fill="black" />
<rect x="66" y="0" width="1" height="100" fill="black" />
<rect x="88" y="0" width="1" height="100" fill="black" />
<rect x="0" y="0" width="100" height="1" fill="black" />
<rect x="0" y="22" width="100" height="1" fill="black" />
<rect x="0" y="44" width="100" height="1" fill="black" />
<rect x="0" y="66" width="100" height="1" fill="black" />
<rect x="0" y="88" width="100" height="1" fill="black" />
</g>

</svg>
