<?xml version="1.0" encoding="UTF-8"?>
<svg xmlns="http://www.w3.org/2000/svg" width="100" height="100" viewBox="0 0 100 100">
<defs>
<linearGradient id="g0" x1="0%" y1="0%" x2="100%" y2="100%">
<stop offset="0.0%" stop-color="hsl(106, 75%, 59%)" />
<stop offset="33.3%" stop-color="hsl(183, 71%, 60%)" />
<stop offset="66.7%" stop-color="hsl(242, 72%, 49%)" />
<stop offset="100.0%" stop-color="hsl(322, 74%, 44%)" />
</linearGradient>
<linearGradient id="g1" x1="0%" y1="0%" x2="100%" y2="100%">
<stop offset="0.0%" stop-color="hsl(290, 83%, 63%)" />
<stop offset="33.3%" stop-color="hsl(2, 82%, 55%)" />
<stop offset="66.7%" stop-color="hsl(86, 72%, 68%)" />
<stop offset="100.0%" stop-color="hsl(83, 65%, 44%)" />
</linearGradient>
<linearGradient id="g2" x1="0%" y1="0%" x2="100%" y2="100%">
<stop offset="0.0%" stop-color="hsl(40, 53%, 69%)" />
<stop offset="33.3%" stop-color="hsl(104, 72%, 65%)" />
<stop offset="66.7%" stop-color="hsl(144, 86%, 72%)" />
<stop offset="100.0%" stop-color="hsl(151, 70%, 62%)" />
</linearGradient>
</defs>

<path d="M 47.3 24.4 C 60.1 16.2, 22.0 14.7, 23.4 22.6 C 42.2 13.5, 38.1 100.0, 35.8 92.7 C 22.0 73.7, 100.0 0.0, 86.6 8.7 C 100.0 13.8, 81.2 55.6, 67.9 50.2 C 57.0 62.2, 78.6 100.0, 80.5 89.2 C 70.3 86.7, 43.9 5.0, 50.4 18.6 " fill="none" fill-opacity="0.75" stroke="hsl(86, 72%, 68%)" stroke-width="1.28"  transform="translate(52.2 57.7) rotate(137.4) scale(1.33 0.88)" />
<rect x="30.5" y="51.4" width="32.3" height="35.6" rx="0" fill="none" fill-opacity="0.96"    />
<path d="M 44.4 50.4 C 50.2 62.4, 40.2 71.1, 52.0 80.4 C 50.9 60.5, 18.2 91.2, 15.8 97.8 C 28.4 82.9, 56.9 29.2, 69.4 44.1 C 88.8 54.4, 61.2 65.5, 63.9 59.6 C 66.5 61.6, 76.9 79.6, 76.5 76.8 C 86.3 77.6, 12.1 90.1, 8.8 91.5 C 0.0 83.4, 83.5 58.1, 83.2 66.1 " fill="none" fill-opacity="0.65" stroke="hsl(40, 53%, 69%)" stroke-width="1.21"  transform="translate(63.0 64.2) rotate(242.0) scale(1.09 1.27)" />
<path d="M 83.7 30.2 C 86.0 40.5, 87.5 79.2, 92.4 75.4 C 100.0 82.5, 73.7 24.4, 60.7 33.2 C 56.8 35.3, 100.0 32.0, 94.8 19.6 Z" fill="hsl(83, 65%, 44%)" fill-opacity="0.46" stroke="none" stroke-width="0.86"  transform="translate(31.3 93.1) rotate(310.0) scale(1.01 1.33)" />
<path d="M 23.4 45.3 C 9.6 47.8, 38.9 87.0, 34.9 74.7 C 16.0 94.7, 55.8 100.0, 57.4 98.5 C 71.6 96.9, 67.1 0.0, 79.1 6.9 C 81.6 19.6, 18.5 21.9, 3.9 22.9 C 17.7 15.0, 100.0 38.7, 90.5 29.5 C 71.9 28.2, 43.7 24.3, 35.0 30.5 C 44.1 33.7, 79.0 31.8, 67.1 20.9 Z" fill="hsl(83, 65%, 44%)" fill-opacity="0.91" stroke="none" stroke-width="1.04"  transform="translate(65.1 82.4) rotate(86.4) scale(1.35 1.84)" />
<rect x="54.8" y="40.9" width="25.3" height="19.0" rx="18.7" fill="none" fill-opacity="0.41"   transform="translate(95.8 59.7) rotate(324.9) scale(1.66 0.85)" />
<path d="M 21.4 56.9 C 17.8 50.1, 8.8 77.9, 17.0 90.4 C 3.6 71.7, 97.5 32.4, 85.2 40.6 C 68.0 52.6, 34.8 53.4, 39.6 42.3 C 30.9 48.3, 37.2 35.2, 31.2 34.8 " fill="hsl(106, 75%, 59%)" fill-opacity="0.80" stroke="none" stroke-width="1.14"   />
<rect x="15.2" y="47.9" width="38.4" height="17.0" rx="14.4" fill="hsl(86, 72%, 68%)" fill-opacity="0.67"   transform="translate(6.5 9.9) rotate(142.6) scale(1.05 0.63)" />
<circle cx="1.9" cy="32.7" r="0.8" fill="hsl(106, 75%, 59%)" fill-opacity="0.60"  transform="translate(48.0 61.5) rotate(277.5) scale(1.31 1.92)" />
<path d="M 77.9 60.1 C 95.2 52.9, 14.7 18.4, 5.0 20.0 C 8.1 17.5, 28.9 0.0, 35.6 6.8 C 21.2 0.0, 36.3 85.5, 34.2 96.4 C 36.6 100.0, 67.8 99.9, 64.0 98.2 Z" fill="hsl(144, 86%, 72%)" fill-opacity="0.83" stroke="none" stroke-width="0.99"  transform="translate(85.9 7.3) rotate(245.6) scale(1.67 1.52)" />
</svg>
