<?xml version="1.0" encoding="UTF-8"?>
<svg xmlns="http://www.w3.org/2000/svg" width="100" height="100" viewBox="0 0 100 100">
<defs>
<linearGradient id="g0" x1="0%" y1="0%" x2="100%" y2="100%">
<stop offset="0.0%" stop-color="hsl(106, 75%, 59%)" />
<stop offset="33.3%" stop-color="hsl(183, 71%, 60%)" />
<stop offset="66.7%" stop-color="hsl(242, 72%, 49%)" />
<stop offset="100.0%" stop-color="hsl(322, 74%, 44%)" />
</linearGradient>
<linearGradient id="g1" x1="0%" y1="0%" x2="100%" y2="100%">
<stop offset="0.0%" stop-color="hsl(290, 83%, 63%)" />
<stop offset="33.3%" stop-color="hsl(2, 82%, 55%)" />
<stop offset="66.7%" stop-color="hsl(86, 72%, 68%)" />
<stop offset="100.0%" stop-color="hsl(83, 65%, 44%)" />
</linearGradient>
<linearGradient id="g2" x1="0%" y1="0%" x2="100%" y2="100%">
<stop offset="0.0%" stop-color="hsl(40, 53%, 69%)" />
<stop offset="33.3%" stop-color="hsl(104, 72%, 65%)" />
<stop offset="66.7%" stop-color="hsl(144, 86%, 72%)" />
<stop offset="100.0%" stop-color="hsl(151, 70%, 62%)" />
</linearGradient>
</defs>

<rect x="11.8" y="48.2" width="23.5" height="25.0" rx="10.8" fill="hsl(183, 71%, 60%)" fill-opacity="0.35"   transform="translate(75.3 97.1) rotate(260.3) scale(1.46 1.60)" />
<rect x="63.8" y="56.1" width="30.8" height="24.7" rx="6.0" fill="hsl(106, 75%, 59%)" fill-opacity="0.54"   transform="translate(27.5 60.9) rotate(164.1) scale(1.90 1.88)" />
<circle cx="45.3" cy="26.1" r="0.4" fill="hsl(86, 72%, 68%)" fill-opacity="0.95"   />
<circle cx="26.1" cy="43.4" r="1.3" fill="hsl(104, 72%, 65%)" fill-opacity="0.79"  transform="translate(37.6 24.1) rotate(283.6) scale(1.48 0.82)" />
<rect x="35.2" y="58.4" width="29.8" height="12.1" rx="0" fill="none" fill-opacity="0.74" stroke="hsl(144, 86%, 72%)" stroke-width="1.4"  transform="translate(74.6 20.0) rotate(312.5) scale(1.63 1.49)" />
<circle cx="29.3" cy="22.1" r="1.6" fill="hsl(290, 83%, 63%)" fill-opacity="0.57"  transform="translate(94.1 49.3) rotate(7.7) scale(1.90 0.76)" />
<path d="M 98.4 86.0 C 78.5 77.4, 73.0 56.9, 78.7 48.4 C 71.5 37.9, 82.9 32.7, 95.4 35.0 C 90.1 18.4, 47.1 59.4, 45.6 53.1 Z" fill="none" fill-opacity="0.34" stroke="hsl(242, 72%, 49%)" stroke-width="1.29"  transform="translate(24.3 81.9) rotate(134.7) scale(1.92 0.60)" />
<rect x="15.8" y="28.2" width="21.5" height="23.9" rx="0" fill="none" fill-opacity="0.32" stroke="hsl(106, 75%, 59%)" stroke-width="3.7"   />
<circle cx="42.9" cy="11.7" r="1.0" fill="hsl(104, 72%, 65%)" fill-opacity="0.79"  transform="translate(78.9 51.9) rotate(57.7) scale(0.96 1.74)" />
<path d="M 87.0 98.7 C 89.7 100.0, 64.2 45.5, 61.2 34.0 C 53.9 43.6, 91.8 64.1, 93.7 71.2 C 88.7 59.4, 28.0 57.5, 25.1 64.2 C 7.0 76.3, 0.0 89.2, 4.3 95.3 C 0.0 79.9, 50.1 14.5, 48.3 0.3 Z" fill="hsl(151, 70%, 62%)" fill-opacity="0.96" stroke="none" stroke-width="0.88"  transform="translate(90.8 64.8) rotate(320.9) scale(1.62 0.84)" />
<path d="M 1.3 79.7 C 4.0 99.0, 7.3 79.0, 9.1 76.8 C 10.9 63.4, 11.0 7.6, 23.6 11.6 C 5.2 14.2, 92.9 87.6, 80.4 94.1 Z" fill="hsl(86, 72%, 68%)" fill-opacity="0.80" stroke="none" stroke-width="1.26"   />
<rect x="30.1" y="4.1" width="39.1" height="37.7" rx="0" fill="none" fill-opacity="0.42"    />
<path d="M 21.2 26.2 C 31.1 12.5, 61.7 0.0, 55.4 1.7 C 70.8 0.0, 74.0 10.1, 74.2 11.2 C 71.4 0.0, 30.1 50.7, 38.9 64.2 C 53.5 73.0, 16.8 21.4, 12.7 20.7 Z" fill="hsl(290, 83%, 63%)" fill-opacity="0.66" stroke="none" stroke-width="1.12"   />
</svg>
