<?xml version="1.0" encoding="UTF-8"?>
<svg xmlns="http://www.w3.org/2000/svg" width="100" height="100" viewBox="0 0 100 100">
<defs>
<linearGradient id="g0" x1="0%" y1="0%" x2="100%" y2="100%">
<stop offset="0.0%" stop-color="hsl(106, 75%, 59%)" />
<stop offset="33.3%" stop-color="hsl(183, 71%, 60%)" />
<stop offset="66.7%" stop-color="hsl(242, 72%, 49%)" />
<stop offset="100.0%" stop-color="hsl(322, 74%, 44%)" />
</linearGradient>
<linearGradient id="g1" x1="0%" y1="0%" x2="100%" y2="100%">
<stop offset="0.0%" stop-color="hsl(290, 83%, 63%)" />
<stop offset="33.3%" stop-color="hsl(2, 82%, 55%)" />
<stop offset="66.7%" stop-color="hsl(86, 72%, 68%)" />
<stop offset="100.0%" stop-color="hsl(83, 65%, 44%)" />
</linearGradient>
<linearGradient id="g2" x1="0%" y1="0%" x2="100%" y2="100%">
<stop offset="0.0%" stop-color="hsl(40, 53%, 69%)" />
<stop offset="33.3%" stop-color="hsl(104, 72%, 65%)" />
<stop offset="66.7%" stop-color="hsl(144, 86%, 72%)" />
<stop offset="100.0%" stop-color="hsl(151, 70%, 62%)" />
</linearGradient>
<filter id="f1" x="-20%" y="-20%" width="140%" height="140%">
  <feGaussianBlur stdDeviation="0.5022710861976345" />
</filter>

</defs>

<path d="M 68.4 30.6 C 70.5 17.5, 69.7 17.6, 59.0 22.3 C 68.4 32.6, 75.7 91.8, 60.9 91.1 C 61.1 100.0, 63.4 64.9, 62.2 62.9 C 57.1 46.3, 73.7 39.9, 68.9 37.9 C 68.9 32.4, 21.6 40.1, 24.0 35.8 C 41.1 20.9, 85.6 15.3, 95.6 19.0 Z" fill="none" fill-opacity="1.00" stroke="hsl(242, 72%, 49%)" stroke-width="2.65"  transform="translate(41.1 21.7) rotate(344.2) scale(0.62 1.10)" />
<rect x="50.7" y="19.8" width="41.1" height="29.4" rx="0" fill="none" fill-opacity="0.35" stroke="hsl(86, 72%, 68%)" stroke-width="3.9"  transform="translate(92.7 15.7) rotate(348.1) scale(1.00 1.68)" />
<path d="M 54.9 45.2 C 52.8 46.7, 4.8 84.9, 4.9 80.0 C 0.0 87.5, 55.3 88.7, 50.2 92.3 C 68.1 100.0, 38.5 8.1, 47.8 22.6 C 58.6 40.2, 34.5 12.7, 37.6 19.0 C 46.8 0.4, 3.1 30.6, 7.8 35.9 C 15.2 25.5, 75.3 18.2, 77.9 23.1 C 76.4 3.8, 59.9 95.4, 70.2 81.0 C 90.0 80.1, 0.0 37.7, 4.8 28.7 C 4.0 11.3, 86.1 80.6, 98.0 81.2 C 80.7 67.4, 18.3 9.4, 28.9 21.5 Z" fill="hsl(290, 83%, 63%)" fill-opacity="0.75" stroke="none" stroke-width="4.33"  transform="translate(89.2 19.8) rotate(147.8) scale(1.54 1.90)" />
<path d="M 3.3 19.2 C 0.0 38.4, 1.0 72.5, 16.0 69.8 C 0.7 52.0, 89.7 97.4, 87.0 88.7 C 83.4 80.4, 85.2 38.0, 90.5 47.8 C 72.4 43.3, 17.4 100.0, 21.3 98.8 C 16.3 100.0, 27.7 12.8, 42.4 22.4 C 49.9 2.7, 23.2 49.2, 18.6 47.8 C 38.1 54.5, 45.4 0.0, 48.6 11.6 C 53.1 17.9, 21.2 42.2, 19.1 39.9 C 10.8 33.4, 88.8 79.7, 95.1 66.0 Z" fill="hsl(151, 70%, 62%)" fill-opacity="0.49" stroke="none" stroke-width="3.20"  transform="translate(25.7 36.0) rotate(74.9) scale(1.42 1.33)" />
<path d="M 27.1 59.9 C 37.1 78.0, 48.7 23.6, 62.8 13.4 C 70.5 0.0, 97.5 30.7, 91.5 24.3 C 95.4 35.7, 75.2 42.8, 70.1 50.2 C 83.9 44.2, 17.0 30.5, 12.5 22.5 C 23.1 5.3, 27.8 88.9, 18.4 82.0 C 12.9 92.9, 100.0 82.6, 98.2 92.0 C 100.0 92.9, 91.3 24.8, 85.9 18.9 C 100.0 31.3, 89.0 35.2, 89.1 39.4 C 100.0 34.9, 65.4 0.0, 51.1 3.8 C 38.0 0.0, 78.4 29.9, 92.8 37.9 Z" fill="hsl(83, 65%, 44%)" fill-opacity="0.64" stroke="none" stroke-width="2.05"   />
<path d="M 60.7 25.0 C 49.6 20.7, 13.1 47.3, 24.0 36.0 C 42.4 23.6, 93.8 37.7, 99.5 49.3 C 81.2 67.7, 78.0 38.7, 69.8 45.2 C 65.9 46.8, 95.8 22.0, 91.2 32.4 C 100.0 25.3, 42.5 70.7, 29.0 70.8 C 26.1 80.5, 46.4 41.1, 36.1 50.3 C 48.0 35.5, 81.3 13.5, 86.7 26.8 C 73.0 41.8, 72.9 100.0, 80.3 97.0 Z" fill="none" fill-opacity="0.82" stroke="hsl(106, 75%, 59%)" stroke-width="1.30" filter="url(#f1)" transform="translate(88.7 9.6) rotate(165.2) scale(1.54 0.63)" />
<path d="M 64.7 32.2 C 77.7 23.9, 55.5 72.5, 63.3 84.6 C 65.6 66.1, 5.4 77.3, 19.7 79.5 C 3.5 82.6, 0.2 80.7, 4.0 93.0 C 0.0 74.3, 90.9 50.9, 82.9 45.8 C 95.7 48.1, 19.7 83.4, 7.9 90.4 C 8.0 79.4, 73.1 76.0, 80.5 88.3 C 69.1 76.6, 53.8 47.4, 49.6 51.1 C 29.6 64.8, 67.3 39.1, 76.6 27.0 C 67.0 20.0, 70.6 65.7, 73.3 80.3 C 89.5 87.7, 35.6 12.4, 40.4 6.1 Z" fill="none" fill-opacity="0.94" stroke="hsl(144, 86%, 72%)" stroke-width="4.72"   />
<circle cx="20.0" cy="0.9" r="8.6" fill="url(#g2)" fill-opacity="0.94" filter="url(#f1)" transform="translate(69.5 79.1) rotate(193.9) scale(0.71 1.45)" />
<path d="M 1.2 7.3 C 0.0 0.0, 70.7 87.7, 60.2 87.4 C 78.2 76.3, 44.1 72.7, 30.7 74.1 C 27.4 71.4, 68.1 91.9, 66.3 86.5 C 74.4 69.9, 0.0 41.9, 3.8 40.0 C 5.7 46.0, 9.8 91.0, 10.4 87.1 C 15.0 75.0, 38.5 36.7, 36.6 50.1 Z" fill="none" fill-opacity="0.36" stroke="hsl(242, 72%, 49%)" stroke-width="5.21"  transform="translate(78.7 1.0) rotate(114.5) scale(1.66 1.60)" />
<rect x="39.2" y="50.0" width="42.1" height="37.5" rx="0" fill="hsl(242, 72%, 49%)" fill-opacity="0.56"   transform="translate(93.8 91.2) rotate(309.4) scale(1.49 0.51)" />
<path d="M 18.5 60.5 C 24.6 64.1, 43.8 2.3, 49.6 12.8 C 46.2 25.4, 27.8 14.7, 20.6 0.4 C 34.6 0.0, 46.8 75.9, 56.6 79.1 C 75.9 70.1, 83.6 37.6, 88.6 48.0 C 95.5 36.0, 4.0 100.0, 9.8 99.6 C 29.6 100.0, 19.9 29.7, 20.2 35.0 Z" fill="hsl(2, 82%, 55%)" fill-opacity="0.93" stroke="none" stroke-width="4.17"   />
<path d="M 19.3 64.0 C 10.8 58.9, 71.7 80.2, 77.5 66.7 C 81.5 80.7, 42.0 13.4, 27.5 12.5 C 10.2 0.0, 59.2 87.2, 60.7 96.0 C 52.0 100.0, 26.0 32.4, 28.0 19.2 C 18.8 20.2, 48.4 37.0, 36.4 33.4 C 42.0 46.3, 30.4 42.9, 24.0 41.3 C 18.1 43.4, 0.0 24.3, 2.2 21.5 C 17.2 40.4, 69.3 65.9, 66.9 63.4 C 63.9 48.9, 31.4 74.5, 32.0 71.7 " fill="none" fill-opacity="0.88" stroke="hsl(106, 75%, 59%)" stroke-width="3.28"   />
<rect x="12.6" y="63.1" width="37.7" height="36.4" rx="12.7" fill="none" fill-opacity="0.52" stroke="hsl(144, 86%, 72%)" stroke-width="2.6"  transform="translate(31.8 45.8) rotate(76.4) scale(0.97 1.67)" />
<rect x="25.7" y="42.9" width="36.4" height="12.2" rx="3.3" fill="hsl(322, 74%, 44%)" fill-opacity="0.95" stroke="hsl(242, 72%, 49%)" stroke-width="3.7"  transform="translate(0.2 10.1) rotate(4.1) scale(1.58 1.96)" />
<rect x="41.1" y="48.2" width="40.4" height="38.5" rx="3.9" fill="none" fill-opacity="0.79"   transform="translate(49.0 74.4) rotate(224.1) scale(1.30 0.58)" />
<path d="M 43.3 92.7 C 41.8 79.0, 80.0 76.7, 73.3 72.7 C 53.4 83.5, 57.7 10.0, 63.0 10.9 C 48.1 0.0, 39.1 5.4, 26.1 12.8 C 22.1 0.0, 78.8 89.3, 73.2 98.9 C 56.9 100.0, 31.1 85.5, 44.3 88.2 C 28.7 100.0, 24.3 21.3, 18.2 9.8 C 21.8 16.7, 39.9 2.7, 26.6 15.6 C 8.6 1.9, 68.2 39.1, 82.8 32.1 C 100.0 42.2, 0.0 35.3, 1.9 44.5 C 0.0 25.4, 39.9 35.4, 28.0 47.4 Z" fill="hsl(144, 86%, 72%)" fill-opacity="0.78" stroke="none" stroke-width="1.63"  transform="translate(32.1 41.6) rotate(209.9) scale(0.61 1.87)" />
<circle cx="83.2" cy="7.4" r="17.1" fill="url(#g0)" fill-opacity="0.75"  transform="translate(5.0 38.9) rotate(96.5) scale(1.60 1.75)" />
<path d="M 34.8 80.9 C 27.2 79.8, 77.4 7.1, 81.2 12.6 C 83.4 0.7, 30.8 28.0, 42.8 37.7 C 45.7 35.0, 100.0 37.1, 90.2 47.4 C 84.8 42.2, 42.3 96.2, 50.2 86.1 C 35.2 70.7, 98.7 90.4, 92.5 96.1 C 94.0 100.0, 34.0 0.0, 22.2 8.3 C 13.5 3.1, 94.6 54.8, 93.5 40.9 C 100.0 37.3, 15.8 32.1, 4.3 34.9 Z" fill="hsl(322, 74%, 44%)" fill-opacity="0.34" stroke="none" stroke-width="1.15"  transform="translate(18.5 54.2) rotate(260.3) scale(1.99 0.56)" />
<rect x="6.6" y="61.1" width="21.3" height="30.0" rx="0" fill="none" fill-opacity="0.80" stroke="hsl(322, 74%, 44%)" stroke-width="1.5"  transform="translate(45.7 5.3) rotate(117.5) scale(1.73 1.84)" />
<circle cx="64.0" cy="84.9" r="8.1" fill="hsl(106, 75%, 59%)" fill-opacity="0.49" filter="url(#f1)" transform="translate(34.7 38.7) rotate(70.8) scale(1.04 0.55)" />
<rect x="57.0" y="65.8" width="26.3" height="32.5" rx="11.5" fill="none" fill-opacity="0.25"   transform="translate(63.5 22.7) rotate(174.0) scale(1.20 1.58)" />
<rect x="43.1" y="56.7" width="38.2" height="12.3" rx="0" fill="hsl(242, 72%, 49%)" fill-opacity="0.75"    />
<path d="M 49.5 32.3 C 48.7 24.3, 46.6 100.0, 34.6 89.1 C 28.4 69.2, 71.2 100.0, 85.7 90.7 C 87.0 72.5, 91.8 94.1, 93.6 90.4 C 100.0 95.4, 95.3 83.0, 97.7 96.2 C 80.7 99.6, 64.0 79.0, 78.7 85.1 C 97.2 96.0, 39.1 86.5, 38.7 87.2 C 36.8 80.2, 100.0 20.1, 87.3 22.4 C 73.5 13.9, 0.0 32.6, 1.1 47.5 C 0.0 27.8, 18.2 76.9, 33.2 89.2 Z" fill="hsl(2, 82%, 55%)" fill-opacity="0.52" stroke="none" stroke-width="4.76" filter="url(#f1)" transform="translate(82.8 53.2) rotate(50.2) scale(0.78 1.80)" />
<rect x="45.7" y="27.8" width="22.2" height="13.1" rx="16.6" fill="none" fill-opacity="0.54"   transform="translate(24.1 20.0) rotate(319.8) scale(0.65 0.66)" />
<path d="M 78.9 2.2 C 78.1 0.0, 69.7 100.0, 79.0 96.9 C 59.7 91.6, 90.0 50.1, 78.7 45.1 C 98.3 39.2, 82.6 23.8, 73.7 12.0 C 71.7 24.9, 44.6 72.9, 57.6 69.6 C 44.1 76.4, 55.5 16.1, 63.4 2.5 C 61.0 0.0, 17.5 55.7, 20.1 65.3 C 35.5 47.4, 89.9 84.7, 82.5 76.5 C 98.3 93.6, 54.1 72.7, 50.4 87.5 " fill="hsl(106, 75%, 59%)" fill-opacity="0.70" stroke="none" stroke-width="5.02"  transform="translate(10.6 12.6) rotate(83.5) scale(1.20 1.32)" />
<circle cx="82.7" cy="80.5" r="2.8" fill="hsl(183, 71%, 60%)" fill-opacity="0.68"  transform="translate(81.1 52.8) rotate(338.7) scale(1.35 1.96)" />
<path d="M 4.3 10.2 C 0.0 17.4, 40.7 77.3, 45.7 86.0 C 30.8 85.1, 43.9 63.3, 36.1 74.8 C 44.9 72.5, 87.3 96.4, 91.5 91.4 C 92.2 86.4, 45.6 86.2, 45.4 89.9 C 33.8 92.3, 69.1 42.0, 63.4 35.3 C 77.6 39.6, 18.3 75.4, 23.9 79.7 C 5.7 67.3, 71.6 11.6, 62.6 7.9 C 64.8 9.8, 77.7 85.8, 87.1 93.4 Z" fill="hsl(106, 75%, 59%)" fill-opacity="0.81" stroke="none" stroke-width="5.02"  transform="translate(72.9 49.0) rotate(188.9) scale(0.76 0.80)" />
<rect x="70.9" y="22.6" width="24.4" height="37.3" rx="0" fill="hsl(151, 70%, 62%)" fill-opacity="0.54"    />
<path d="M 49.2 44.9 C 52.9 29.9, 35.9 0.0, 45.0 7.8 C 44.5 0.0, 26.4 76.4, 29.6 64.1 C 28.4 50.7, 60.2 77.8, 53.5 85.8 C 64.6 71.9, 6.8 80.4, 17.9 81.7 C 27.2 77.9, 53.0 87.5, 40.6 76.7 C 55.4 90.6, 78.1 77.6, 73.0 92.2 C 81.1 100.0, 20.1 64.8, 21.8 73.7 Z" fill="hsl(183, 71%, 60%)" fill-opacity="0.89" stroke="none" stroke-width="4.01"  transform="translate(19.1 92.1) rotate(332.8) scale(1.18 1.95)" />
<rect x="77.3" y="10.0" width="22.7" height="36.7" rx="0" fill="hsl(144, 86%, 72%)" fill-opacity="0.53"   transform="translate(53.6 79.9) rotate(129.9) scale(1.80 0.65)" />
<circle cx="81.0" cy="17.7" r="3.3" fill="hsl(86, 72%, 68%)" fill-opacity="0.69"  transform="translate(20.7 50.8) rotate(32.3) scale(1.32 1.51)" />
<path d="M 14.9 20.2 C 16.0 13.3, 81.1 51.4, 91.6 65.6 C 81.2 52.9, 55.7 89.9, 64.5 95.4 C 67.1 100.0, 100.0 59.9, 98.6 68.9 C 100.0 60.4, 64.7 0.0, 56.0 3.5 C 65.0 0.0, 90.2 100.0, 80.0 97.7 C 81.8 100.0, 44.7 46.0, 31.8 34.7 Z" fill="hsl(40, 53%, 69%)" fill-opacity="0.76" stroke="none" stroke-width="0.98"   />
<path d="M 18.5 85.6 C 28.6 95.5, 34.9 18.1, 41.4 10.1 C 48.3 22.1, 75.5 60.3, 72.2 65.0 C 81.0 57.3, 81.6 21.0, 96.5 20.7 C 79.1 37.6, 51.3 76.5, 47.0 71.4 C 57.3 66.7, 1.9 28.9, 2.5 25.4 C 0.0 19.9, 47.7 9.3, 39.1 9.7 Z" fill="none" fill-opacity="0.97" stroke="hsl(106, 75%, 59%)" stroke-width="1.16"  transform="translate(45.7 26.3) rotate(142.5) scale(1.58 0.51)" />
<path d="M 91.2 11.0 C 79.1 16.8, 50.5 45.3, 46.3 34.8 C 51.1 48.9, 69.0 88.0, 56.6 80.5 C 54.4 78.3, 93.6 89.3, 86.8 88.7 C 78.3 100.0, 98.3 26.9, 87.4 36.9 C 70.1 40.2, 86.0 37.4, 93.0 45.6 C 74.6 37.6, 75.6 69.0, 69.8 80.4 C 58.5 97.3, 21.3 30.1, 32.9 15.7 C 45.9 27.1, 73.6 69.3, 69.0 71.2 Z" fill="hsl(290, 83%, 63%)" fill-opacity="0.57" stroke="none" stroke-width="4.90"  transform="translate(52.5 45.9) rotate(78.8) scale(1.68 1.38)" />
<path d="M 22.7 88.9 C 5.9 71.9, 54.8 76.7, 42.8 84.1 C 47.3 100.0, 55.1 68.9, 68.7 54.4 C 57.2 42.5, 70.8 28.2, 66.5 35.0 C 47.5 30.7, 99.4 53.7, 92.0 43.6 C 81.0 47.0, 100.0 65.2, 95.9 63.0 C 87.7 54.6, 48.4 47.2, 45.7 52.1 C 62.3 32.3, 6.2 19.5, 0.4 33.1 C 0.0 29.0, 18.4 86.4, 4.8 90.0 C 0.0 76.3, 86.0 21.2, 81.8 33.0 C 78.7 20.2, 84.7 48.9, 95.4 58.0 Z" fill="hsl(290, 83%, 63%)" fill-opacity="0.83" stroke="none" stroke-width="4.34"  transform="translate(5.8 85.9) rotate(231.8) scale(0.88 1.17)" />
<circle cx="12.8" cy="51.8" r="15.2" fill="url(#g2)" fill-opacity="0.78"  transform="translate(82.8 77.9) rotate(112.5) scale(0.96 1.50)" />
<circle cx="0.3" cy="9.1" r="3.7" fill="hsl(2, 82%, 55%)" fill-opacity="0.46"  transform="translate(24.6 38.5) rotate(141.7) scale(0.54 1.92)" />
<path d="M 66.6 92.9 C 66.2 82.0, 88.4 4.8, 91.3 1.3 C 71.7 0.0, 13.7 51.6, 7.2 42.8 C 7.7 33.7, 14.5 81.6, 7.0 82.0 C 1.9 100.0, 77.7 84.5, 85.8 87.8 C 82.8 100.0, 66.9 77.3, 77.7 64.7 C 68.4 53.9, 34.1 88.8, 38.1 82.1 C 29.8 88.2, 67.9 48.2, 79.8 33.6 Z" fill="hsl(86, 72%, 68%)" fill-opacity="0.49" stroke="none" stroke-width="4.56" filter="url(#f1)" transform="translate(48.2 88.5) rotate(259.5) scale(1.37 1.00)" />
<path d="M 40.5 32.1 C 43.8 17.4, 85.5 55.4, 77.6 49.6 C 74.3 56.3, 60.6 12.2, 53.2 22.4 C 61.9 7.4, 23.1 25.3, 31.7 13.1 C 12.3 5.9, 26.9 9.8, 15.3 21.9 C 34.7 32.2, 16.7 62.9, 23.2 59.0 C 34.0 48.6, 37.8 80.7, 32.0 91.7 C 20.6 77.7, 97.0 91.5, 91.9 85.3 C 76.6 68.3, 24.4 50.6, 19.7 52.6 C 14.6 50.2, 87.8 82.1, 77.4 90.2 Z" fill="none" fill-opacity="0.59" stroke="hsl(2, 82%, 55%)" stroke-width="4.50"  transform="translate(15.8 44.5) rotate(238.1) scale(1.09 1.68)" />
<rect x="12.5" y="68.4" width="40.8" height="22.0" rx="0" fill="hsl(183, 71%, 60%)" fill-opacity="0.50"   transform="translate(91.0 79.3) rotate(333.6) scale(1.39 1.55)" />
<rect x="30.4" y="71.7" width="48.5" height="12.9" rx="0" fill="none" fill-opacity="0.81"   transform="translate(23.2 49.0) rotate(79.2) scale(0.58 0.64)" />
<rect x="52.9" y="49.9" width="38.6" height="34.6" rx="0" fill="none" fill-opacity="0.35" stroke="hsl(106, 75%, 59%)" stroke-width="2.1"  transform="translate(65.1 37.4) rotate(123.5) scale(1.60 1.35)" />
<path d="M 77.5 31.7 C 66.0 15.1, 51.9 23.2, 65.7 10.6 C 63.1 20.9, 70.1 56.3, 82.5 63.5 C 97.0 69.0, 18.2 80.1, 21.9 76.2 C 7.8 66.9, 46.7 27.6, 48.7 32.4 C 63.7 15.2, 5.8 68.3, 6.7 78.3 C 14.9 71.9, 12.2 0.0, 1.7 2.5 C 3.0 0.0, 7.8 100.0, 20.4 98.2 C 1.4 95.7, 45.9 41.3, 60.4 43.6 C 59.7 52.9, 66.1 59.2, 70.5 68.1 Z" fill="hsl(83, 65%, 44%)" fill-opacity="0.60" stroke="none" stroke-width="1.54"   />
<path d="M 12.2 33.8 C 19.7 22.7, 48.7 100.0, 38.5 99.0 C 21.8 100.0, 19.5 25.5, 32.3 18.8 C 17.8 13.1, 29.9 81.4, 29.2 79.8 C 19.4 82.9, 17.1 6.4, 6.5 19.1 C 22.0 32.0, 25.4 58.1, 16.6 56.4 C 3.2 54.9, 65.0 9.6, 74.5 21.9 C 80.6 18.3, 34.4 8.2, 39.3 2.3 " fill="hsl(183, 71%, 60%)" fill-opacity="0.38" stroke="none" stroke-width="4.86"   />
<path d="M 38.6 54.1 C 42.6 36.9, 49.6 90.1, 35.3 90.3 C 22.6 70.9, 15.9 70.8, 7.0 71.8 C 6.9 70.8, 46.4 9.0, 52.8 3.9 C 68.6 5.0, 100.0 79.9, 99.6 68.7 C 99.5 71.9, 57.3 100.0, 67.8 89.1 C 53.3 76.0, 65.6 64.6, 68.0 51.4 C 51.0 70.5, 89.2 74.5, 79.9 79.7 C 64.3 86.9, 58.2 49.0, 51.3 61.7 Z" fill="hsl(40, 53%, 69%)" fill-opacity="0.83" stroke="none" stroke-width="2.72"  transform="translate(19.8 90.0) rotate(39.4) scale(1.17 1.52)" />
<path d="M 18.4 11.5 C 5.6 0.0, 26.5 81.6, 22.9 81.0 C 37.6 96.6, 23.7 75.8, 12.9 67.9 C 6.7 52.7, 0.0 13.3, 9.2 12.2 C 8.7 0.0, 84.1 19.7, 74.7 24.4 C 62.9 41.5, 30.7 42.5, 27.9 40.0 C 23.3 47.7, 92.7 45.2, 79.2 37.7 C 88.3 20.5, 61.0 0.0, 59.9 1.8 Z" fill="none" fill-opacity="0.54" stroke="hsl(183, 71%, 60%)" stroke-width="3.29"   />
<path d="M 27.1 65.8 C 32.7 47.8, 80.0 67.0, 66.2 72.3 C 53.8 67.2, 79.3 100.0, 75.0 97.8 C 75.6 100.0, 100.0 36.0, 90.7 40.4 C 81.1 31.4, 92.9 100.0, 79.1 92.9 C 59.6 81.7, 53.6 83.1, 48.6 79.9 C 34.6 61.2, 22.3 53.3, 15.2 68.3 C 4.3 64.7, 78.4 80.9, 79.9 74.7 C 79.9 59.1, 46.3 12.7, 38.6 27.2 Z" fill="hsl(290, 83%, 63%)" fill-opacity="0.72" stroke="none" stroke-width="2.35"   />
<circle cx="26.9" cy="71.3" r="5.8" fill="url(#g1)" fill-opacity="0.40"  transform="translate(87.4 9.2) rotate(286.6) scale(1.28 0.72)" />
<path d="M 2.1 11.8 C 0.0 14.7, 68.0 100.0, 61.6 90.7 C 74.1 100.0, 40.8 45.7, 49.8 41.8 C 50.8 55.3, 4.5 100.0, 1.0 99.9 C 0.0 100.0, 51.3 73.1, 53.7 65.0 C 38.4 60.6, 3.7 18.8, 13.0 21.1 C 0.0 14.1, 79.7 100.0, 79.0 92.8 C 65.3 100.0, 48.3 28.3, 62.1 33.6 C 69.7 50.2, 100.0 30.6, 96.2 16.7 C 100.0 5.4, 31.4 62.8, 35.1 59.6 Z" fill="none" fill-opacity="0.72" stroke="hsl(86, 72%, 68%)" stroke-width="1.24"  transform="translate(74.5 51.1) rotate(96.3) scale(1.92 1.87)" />
<path d="M 20.2 40.1 C 14.9 35.7, 86.7 60.6, 86.1 58.6 C 97.0 46.2, 45.4 32.9, 32.8 24.8 C 15.4 6.3, 15.2 51.0, 10.5 63.8 C 4.3 48.3, 54.7 77.9, 55.1 70.8 C 44.5 61.3, 6.2 83.0, 12.5 92.8 C 0.0 86.6, 50.2 29.1, 54.3 30.8 C 56.0 17.5, 32.8 75.7, 47.2 73.7 C 45.9 56.8, 79.4 67.2, 64.5 81.2 Z" fill="hsl(83, 65%, 44%)" fill-opacity="0.36" stroke="none" stroke-width="3.42"  transform="translate(29.0 16.5) rotate(115.0) scale(1.95 1.75)" />
<path d="M 81.6 44.7 C 99.5 39.7, 8.1 73.9, 9.9 60.5 C 27.8 77.7, 83.3 53.0, 88.4 61.4 C 85.5 79.0, 80.8 58.2, 89.0 72.3 C 74.1 55.9, 59.8 92.3, 64.2 91.9 C 73.7 94.9, 99.9 94.4, 94.4 97.6 C 82.1 78.5, 61.2 16.8, 67.2 17.8 C 76.8 8.6, 63.6 0.0, 68.3 5.1 C 88.0 2.8, 93.4 62.1, 87.0 65.7 Z" fill="none" fill-opacity="0.84" stroke="hsl(86, 72%, 68%)" stroke-width="1.03"  transform="translate(52.0 97.7) rotate(212.4) scale(0.84 0.51)" />
<path d="M 32.5 17.4 C 37.9 13.0, 50.8 55.1, 36.4 42.8 C 21.6 60.3, 82.8 10.4, 69.2 6.8 C 51.7 0.0, 73.1 66.1, 69.2 61.3 C 87.4 60.5, 38.3 98.2, 42.6 86.7 C 53.0 81.0, 75.3 62.2, 68.3 58.7 C 74.8 49.7, 99.7 87.4, 89.5 72.8 C 100.0 72.8, 6.9 13.2, 14.4 19.3 C 4.8 30.3, 0.0 81.5, 3.6 85.5 C 6.8 99.9, 60.5 88.2, 51.5 79.8 Z" fill="hsl(290, 83%, 63%)" fill-opacity="0.92" stroke="none" stroke-width="1.25"  transform="translate(2.1 8.3) rotate(236.7) scale(0.82 1.58)" />
<path d="M 0.6 69.9 C 5.2 57.2, 58.2 68.1, 64.6 56.8 C 48.4 50.6, 89.6 83.2, 79.7 82.5 C 78.0 96.6, 83.6 20.5, 82.9 32.4 C 100.0 36.3, 60.3 32.0, 62.8 31.9 C 72.6 25.9, 11.2 56.7, 24.8 47.4 C 37.9 48.8, 19.2 21.6, 17.9 27.2 C 7.6 23.2, 90.0 93.7, 95.7 93.1 C 100.0 99.7, 99.6 49.4, 86.9 57.4 Z" fill="none" fill-opacity="0.61" stroke="hsl(83, 65%, 44%)" stroke-width="3.07"  transform="translate(39.5 72.0) rotate(200.6) scale(1.45 1.16)" />
<path d="M 33.6 20.5 C 14.8 20.3, 65.3 58.5, 76.4 60.9 C 58.1 61.0, 0.0 40.0, 4.1 40.2 C 0.0 25.8, 52.7 1.7, 57.9 2.7 C 55.4 16.4, 68.7 35.5, 64.0 25.7 C 66.9 38.3, 30.3 70.0, 19.8 65.7 C 15.4 77.8, 24.6 68.0, 27.7 56.0 C 19.7 65.6, 80.1 25.5, 79.3 38.9 C 79.5 45.1, 7.1 71.2, 18.4 64.8 C 0.0 55.7, 63.7 71.4, 72.9 65.6 Z" fill="none" fill-opacity="0.92" stroke="hsl(322, 74%, 44%)" stroke-width="4.07"  transform="translate(85.9 68.1) rotate(208.0) scale(1.33 1.33)" />
<path d="M 56.8 81.7 C 75.8 75.5, 62.3 11.8, 48.8 22.8 C 40.8 14.9, 83.7 61.9, 81.6 69.7 C 62.4 81.9, 87.7 17.7, 90.1 18.1 C 75.4 10.5, 73.1 23.2, 77.0 29.8 C 76.4 30.7, 48.5 74.0, 52.5 77.7 C 52.8 79.5, 49.9 39.4, 60.0 51.9 C 58.3 58.6, 11.9 23.4, 23.5 33.7 Z" fill="hsl(104, 72%, 65%)" fill-opacity="0.76" stroke="none" stroke-width="2.88"  transform="translate(6.7 65.0) rotate(108.1) scale(1.56 0.97)" />
<path d="M 73.3 24.1 C 65.0 23.9, 90.3 0.0, 95.6 6.1 C 100.0 0.0, 70.7 28.9, 70.9 16.9 C 68.4 3.1, 14.6 65.5, 27.5 73.0 C 24.8 72.7, 76.5 51.2, 85.2 64.3 C 78.3 67.3, 27.3 91.2, 31.9 81.4 C 14.6 79.9, 90.7 72.7, 97.2 71.2 C 100.0 51.8, 51.0 77.2, 47.4 82.7 C 64.2 99.2, 83.6 37.2, 80.0 49.3 C 99.1 40.6, 0.0 20.9, 4.6 23.0 Z" fill="hsl(40, 53%, 69%)" fill-opacity="0.37" stroke="none" stroke-width="1.15"  transform="translate(20.4 2.7) rotate(321.3) scale(1.79 0.69)" />
<path d="M 65.1 93.6 C 66.7 100.0, 91.7 49.7, 94.7 38.2 C 76.2 54.1, 22.4 42.9, 27.8 43.5 C 32.5 52.0, 18.3 24.1, 26.5 15.5 C 31.6 27.4, 63.7 69.0, 59.5 81.3 C 76.3 96.9, 87.2 0.0, 94.5 10.0 C 88.6 24.3, 100.0 69.3, 95.9 78.0 C 81.6 73.9, 71.8 25.7, 73.5 24.2 C 71.5 43.7, 81.3 93.3, 71.9 93.2 Z" fill="hsl(104, 72%, 65%)" fill-opacity="0.37" stroke="none" stroke-width="1.48"  transform="translate(94.7 86.8) rotate(117.8) scale(1.07 0.52)" />
<circle cx="84.6" cy="4.9" r="8.8" fill="hsl(290, 83%, 63%)" fill-opacity="0.60"   />
<rect x="51.3" y="11.1" width="48.5" height="14.5" rx="0" fill="hsl(242, 72%, 49%)" fill-opacity="0.44"  filter="url(#f1)" transform="translate(4.0 1.8) rotate(219.8) scale(1.19 0.51)" />
<rect x="11.7" y="6.0" width="49.3" height="19.9" rx="9.2" fill="hsl(144, 86%, 72%)" fill-opacity="0.89" stroke="hsl(144, 86%, 72%)" stroke-width="4.2"  transform="translate(64.7 32.2) rotate(256.1) scale(1.60 1.93)" />
<circle cx="71.3" cy="82.3" r="13.8" fill="url(#g2)" fill-opacity="0.67" filter="url(#f1)" transform="translate(13.5 15.9) rotate(359.3) scale(1.16 0.50)" />
<path d="M 45.2 58.6 C 64.4 78.1, 19.2 79.0, 25.5 85.4 C 14.0 89.3, 81.7 66.8, 86.4 73.0 C 99.2 71.8, 100.0 17.1, 95.5 24.5 C 84.2 9.8, 56.4 67.2, 65.4 66.9 C 59.9 61.9, 71.0 58.0, 69.8 64.4 C 80.3 44.9, 29.3 80.1, 35.6 68.3 C 26.4 70.5, 24.4 79.6, 20.1 91.0 C 30.2 87.4, 75.9 1.5, 70.9 14.0 C 76.3 0.4, 8.9 0.0, 7.1 2.2 C 3.1 18.4, 61.4 19.7, 69.3 21.6 Z" fill="hsl(106, 75%, 59%)" fill-opacity="0.78" stroke="none" stroke-width="1.21"  transform="translate(8.0 95.6) rotate(88.3) scale(1.22 1.38)" />
<path d="M 56.0 89.0 C 64.3 79.1, 9.4 44.5, 22.8 36.6 C 3.5 55.5, 14.9 43.5, 28.0 53.4 C 9.1 52.2, 52.4 25.4, 65.3 25.0 C 48.2 29.0, 25.4 91.6, 26.0 99.1 C 14.7 100.0, 72.8 2.7, 83.7 12.7 C 87.4 3.4, 98.4 5.1, 94.4 5.5 C 100.0 14.1, 11.4 36.1, 9.2 45.8 C 26.6 47.5, 30.5 100.0, 39.1 98.4 C 35.4 100.0, 87.4 75.7, 94.6 84.7 Z" fill="hsl(106, 75%, 59%)" fill-opacity="0.66" stroke="none" stroke-width="4.65" filter="url(#f1)" transform="translate(28.4 72.2) rotate(1.0) scale(0.59 1.10)" />
<path d="M 24.8 28.7 C 44.2 30.9, 34.6 81.2, 48.8 73.8 C 51.8 60.3, 22.4 28.1, 20.3 37.0 C 9.3 27.3, 42.3 71.2, 35.2 76.4 C 52.7 60.7, 62.7 47.0, 52.1 40.2 C 66.0 54.2, 19.1 60.6, 11.5 65.5 C 18.6 74.1, 41.8 100.0, 56.4 99.2 C 56.7 85.4, 40.7 66.2, 54.2 51.4 C 72.6 61.9, 40.9 56.6, 32.0 42.2 C 39.7 23.3, 9.8 84.1, 6.2 78.2 C 0.0 67.2, 0.4 61.3, 13.7 65.1 Z" fill="hsl(290, 83%, 63%)" fill-opacity="0.95" stroke="none" stroke-width="2.81"  transform="translate(40.3 99.4) rotate(286.4) scale(1.45 0.85)" />
<rect x="25.0" y="74.8" width="27.3" height="16.5" rx="0" fill="none" fill-opacity="0.60"    />
<path d="M 21.2 42.2 C 28.3 46.2, 24.3 96.4, 36.8 90.7 C 49.7 87.3, 96.2 63.4, 94.1 59.8 C 99.4 53.1, 83.7 68.9, 94.7 74.1 C 100.0 55.8, 84.8 68.6, 89.0 77.4 C 80.4 69.2, 61.4 75.8, 67.0 77.0 C 81.3 65.5, 95.1 73.1, 89.4 60.7 C 72.9 59.3, 92.3 67.4, 88.5 55.0 C 83.2 49.9, 23.8 0.0, 36.4 0.4 C 27.9 0.0, 68.9 30.6, 82.2 24.8 C 80.2 7.0, 81.9 0.0, 94.9 4.5 Z" fill="none" fill-opacity="0.58" stroke="hsl(83, 65%, 44%)" stroke-width="4.22"  transform="translate(25.7 31.8) rotate(291.3) scale(0.92 1.97)" />
<path d="M 22.6 21.2 C 31.4 24.8, 13.1 67.4, 20.5 58.3 C 2.3 66.0, 2.7 68.1, 17.6 53.3 C 1.7 52.3, 7.4 83.4, 12.4 79.8 C 0.0 70.4, 100.0 86.5, 91.4 90.8 C 100.0 84.4, 2.4 19.9, 12.8 21.3 C 6.0 31.3, 84.0 27.1, 84.8 27.0 " fill="hsl(104, 72%, 65%)" fill-opacity="0.61" stroke="none" stroke-width="2.51"  transform="translate(20.9 64.4) rotate(158.3) scale(1.16 1.88)" />
<path d="M 41.4 2.5 C 36.3 2.3, 28.4 100.0, 39.3 98.2 C 41.9 88.6, 55.9 14.4, 50.1 19.5 C 32.5 10.9, 74.9 43.7, 62.0 36.0 C 65.7 32.6, 29.5 54.9, 37.6 67.3 C 28.7 65.4, 42.1 53.5, 30.5 65.6 C 12.3 54.0, 81.8 50.5, 87.9 54.3 C 89.4 67.7, 33.6 0.0, 28.5 3.3 Z" fill="hsl(104, 72%, 65%)" fill-opacity="0.31" stroke="none" stroke-width="1.66"  transform="translate(62.0 4.3) rotate(27.9) scale(0.53 1.91)" />
<path d="M 9.0 46.9 C 0.0 28.2, 54.5 47.7, 52.0 59.9 C 60.4 65.0, 42.0 17.0, 39.6 19.6 C 47.3 11.3, 26.8 48.5, 20.1 43.8 C 23.0 53.3, 76.3 25.3, 74.9 25.8 C 76.7 37.8, 54.3 0.0, 67.0 9.3 C 54.7 18.6, 57.4 51.2, 46.0 40.0 C 43.8 38.6, 88.7 5.9, 93.6 0.1 C 100.0 7.9, 31.8 42.1, 24.7 30.6 Z" fill="none" fill-opacity="0.85" stroke="hsl(322, 74%, 44%)" stroke-width="3.36" filter="url(#f1)" transform="translate(7.2 8.0) rotate(342.9) scale(1.15 0.52)" />
<path d="M 4.4 68.5 C 15.3 70.6, 87.5 17.2, 74.0 14.8 C 73.4 2.7, 0.0 13.4, 3.1 12.1 C 0.0 8.7, 42.5 57.3, 50.2 52.4 C 49.4 69.8, 45.2 76.5, 52.4 70.9 C 33.0 57.7, 27.2 78.6, 17.8 70.8 C 27.2 75.1, 95.0 46.9, 91.5 56.8 " fill="none" fill-opacity="0.33" stroke="hsl(151, 70%, 62%)" stroke-width="4.68"  transform="translate(32.3 76.3) rotate(353.6) scale(1.73 0.59)" />
<rect x="55.9" y="6.0" width="21.6" height="34.8" rx="7.7" fill="none" fill-opacity="0.47"   transform="translate(74.8 56.0) rotate(287.7) scale(0.64 0.73)" />
<path d="M 10.3 94.8 C 0.0 100.0, 91.8 6.0, 95.9 3.2 C 97.9 0.0, 80.3 58.2, 87.3 66.3 C 93.9 68.6, 84.1 32.0, 85.0 36.9 C 77.7 46.5, 51.4 15.5, 64.1 15.6 C 67.4 31.3, 59.1 64.0, 70.1 49.8 C 68.5 30.8, 8.5 53.7, 4.8 52.6 C 15.2 51.7, 94.6 25.2, 99.8 29.2 C 100.0 26.7, 88.6 39.4, 99.5 42.8 C 79.7 48.7, 75.3 72.1, 89.0 73.1 Z" fill="hsl(151, 70%, 62%)" fill-opacity="0.33" stroke="none" stroke-width="2.81"  transform="translate(18.9 61.0) rotate(199.8) scale(1.48 2.00)" />
<path d="M 13.8 33.3 C 0.0 28.0, 51.8 13.5, 44.8 9.5 C 46.4 13.8, 63.2 77.0, 52.3 79.4 C 59.4 67.6, 25.9 74.2, 38.9 79.3 C 29.1 72.6, 60.8 48.9, 49.9 36.3 C 57.6 42.2, 23.2 100.0, 37.3 94.7 C 26.0 76.4, 64.0 75.8, 53.7 73.8 C 34.3 63.7, 0.8 47.7, 9.3 51.7 C 10.8 67.6, 89.2 13.8, 89.3 6.4 C 100.0 14.0, 59.7 31.7, 54.5 22.6 C 57.2 20.3, 20.7 83.5, 30.6 76.3 Z" fill="none" fill-opacity="0.57" stroke="hsl(151, 70%, 62%)" stroke-width="2.35"  transform="translate(29.4 72.7) rotate(334.1) scale(1.72 1.22)" />
<rect x="66.4" y="43.0" width="28.4" height="37.5" rx="6.1" fill="hsl(83, 65%, 44%)" fill-opacity="0.21"   transform="translate(45.5 82.5) rotate(175.8) scale(1.52 1.77)" />
<path d="M 80.9 98.4 C 78.5 79.5, 23.5 91.3, 36.8 99.7 C 47.8 84.8, 50.7 58.0, 41.3 69.1 C 23.3 53.5, 100.0 89.8, 98.9 83.1 C 100.0 94.8, 6.9 79.4, 18.6 92.0 C 2.8 77.2, 93.7 49.0, 88.0 54.8 C 94.1 42.1, 89.1 58.4, 81.0 57.8 C 68.2 75.9, 25.7 77.0, 24.4 81.5 C 17.6 78.8, 3.0 18.2, 10.7 12.4 C 0.0 16.6, 25.7 0.0, 33.1 4.9 C 33.4 21.6, 60.6 8.8, 68.5 5.4 Z" fill="none" fill-opacity="0.72" stroke="hsl(242, 72%, 49%)" stroke-width="1.48"  transform="translate(4.9 6.9) rotate(276.7) scale(0.69 1.84)" />
<circle cx="48.4" cy="12.1" r="7.6" fill="hsl(151, 70%, 62%)" fill-opacity="0.70"   />
<path d="M 76.2 13.6 C 74.0 4.6, 32.7 45.1, 23.4 45.5 C 27.9 48.9, 100.0 52.2, 95.7 51.6 C 86.6 31.8, 88.9 33.5, 76.1 36.6 C 59.9 34.6, 30.3 0.0, 26.5 1.0 C 6.6 3.3, 39.5 21.8, 54.0 15.9 C 38.3 28.9, 48.5 0.0, 47.4 3.2 C 29.5 0.0, 54.4 25.5, 60.9 38.3 C 51.3 54.7, 82.9 31.7, 71.6 35.2 C 65.1 35.0, 0.0 13.6, 3.6 13.5 Z" fill="hsl(144, 86%, 72%)" fill-opacity="0.58" stroke="none" stroke-width="2.95"  transform="translate(20.2 25.2) rotate(10.5) scale(1.74 1.48)" />
<path d="M 54.0 52.3 C 37.5 36.2, 93.9 100.0, 93.6 91.6 C 98.5 83.5, 74.3 77.8, 65.8 92.4 C 84.9 98.8, 48.0 26.2, 48.6 11.3 C 56.0 25.8, 13.0 74.3, 1.6 86.1 C 0.0 93.7, 91.5 14.7, 91.7 15.7 C 100.0 7.5, 32.5 21.1, 41.6 18.3 C 46.8 18.6, 76.6 100.0, 77.2 88.5 C 81.4 100.0, 99.0 31.9, 97.2 39.9 Z" fill="none" fill-opacity="0.94" stroke="hsl(106, 75%, 59%)" stroke-width="4.49"   />
<path d="M 98.4 92.2 C 100.0 100.0, 86.8 16.9, 97.6 28.2 C 79.6 39.8, 58.9 53.8, 49.1 59.8 C 45.3 41.5, 36.2 16.1, 45.1 23.9 C 29.8 32.0, 65.8 33.3, 56.7 42.9 C 50.9 27.1, 12.8 34.7, 15.0 26.5 C 5.3 11.4, 39.4 36.0, 47.7 49.7 C 49.2 31.6, 16.6 91.1, 31.1 81.1 C 30.2 64.1, 14.1 13.9, 26.6 27.4 C 16.4 13.4, 73.9 86.0, 68.3 91.1 Z" fill="hsl(2, 82%, 55%)" fill-opacity="0.76" stroke="none" stroke-width="2.18"   />
<path d="M 94.3 18.3 C 100.0 23.6, 16.4 21.6, 11.9 30.1 C 0.0 44.2, 32.0 20.7, 32.3 15.1 C 42.0 13.4, 91.8 10.5, 80.2 18.2 C 99.7 28.3, 81.7 77.3, 85.8 80.5 C 90.9 80.3, 36.3 81.6, 28.8 80.3 C 22.0 90.1, 41.4 22.7, 53.6 17.4 C 67.3 25.4, 26.2 53.5, 24.9 58.0 C 22.1 71.9, 58.6 86.6, 59.3 98.8 C 48.3 100.0, 50.0 48.7, 62.6 50.8 C 52.4 56.1, 44.8 23.1, 59.4 8.8 Z" fill="hsl(242, 72%, 49%)" fill-opacity="0.55" stroke="none" stroke-width="1.43"  transform="translate(19.7 95.4) rotate(337.3) scale(1.59 1.12)" />
<path d="M 67.8 50.2 C 50.4 57.1, 14.5 24.9, 6.4 31.3 C 4.5 36.7, 78.9 0.0, 74.8 1.0 C 79.0 18.6, 56.9 81.5, 44.6 78.0 C 26.8 82.2, 42.7 56.6, 53.1 56.3 C 54.4 39.6, 28.4 11.9, 14.6 16.5 C 7.0 9.2, 0.0 72.3, 2.3 77.1 C 4.7 92.0, 83.9 57.9, 89.4 50.9 C 71.4 46.0, 70.6 72.0, 73.6 83.9 C 92.3 100.0, 52.2 1.1, 52.3 15.6 C 41.4 0.0, 19.8 72.5, 25.7 66.4 Z" fill="none" fill-opacity="0.74" stroke="hsl(106, 75%, 59%)" stroke-width="2.29"   />
<path d="M 13.7 13.4 C 3.8 7.7, 0.0 51.4, 2.8 52.7 C 5.9 47.1, 64.8 8.9, 59.0 13.9 C 68.8 22.3, 71.4 12.1, 82.3 0.9 C 77.3 6.0, 65.9 26.7, 61.6 14.0 C 47.7 0.0, 28.3 71.8, 35.3 77.1 C 48.4 57.2, 93.4 63.5, 98.5 54.0 " fill="hsl(151, 70%, 62%)" fill-opacity="0.31" stroke="none" stroke-width="0.92"  transform="translate(91.7 65.1) rotate(137.0) scale(1.35 1.29)" />
<rect x="15.0" y="16.8" width="36.3" height="24.9" rx="2.2" fill="none" fill-opacity="0.93" stroke="hsl(151, 70%, 62%)" stroke-width="1.3" filter="url(#f1)" transform="translate(2.4 50.4) rotate(326.6) scale(0.53 1.79)" />
<circle cx="31.1" cy="79.9" r="7.8" fill="hsl(2, 82%, 55%)" fill-opacity="0.48"  transform="translate(61.7 76.3) rotate(245.9) scale(1.10 0.81)" />
<path d="M 21.5 60.7 C 7.5 75.8, 87.4 34.5, 74.1 27.6 C 86.8 28.5, 86.5 40.9, 84.8 55.6 C 76.5 60.6, 0.6 21.5, 4.0 8.9 C 17.0 24.8, 0.0 80.6, 7.8 65.9 C 12.3 64.7, 97.6 81.7, 87.0 80.7 C 81.6 88.2, 5.9 61.2, 16.2 49.7 C 22.1 59.5, 54.4 50.6, 45.1 47.3 C 43.5 36.8, 85.5 50.6, 93.0 44.1 Z" fill="hsl(290, 83%, 63%)" fill-opacity="0.77" stroke="none" stroke-width="4.70"   />
<path d="M 19.8 39.8 C 2.5 47.5, 60.7 8.2, 54.8 22.9 C 43.3 35.0, 100.0 56.7, 95.7 54.9 C 86.7 44.8, 17.7 82.2, 6.8 93.5 C 13.5 85.8, 16.8 41.7, 4.7 44.5 C 18.3 38.6, 79.8 60.7, 91.5 66.0 C 97.3 54.5, 42.2 17.2, 39.0 11.0 C 44.9 30.4, 84.5 62.1, 92.3 66.7 C 83.8 46.8, 63.4 3.7, 68.5 9.2 C 82.0 0.0, 61.4 35.9, 63.7 47.3 C 76.6 43.4, 100.0 0.0, 95.2 6.6 Z" fill="hsl(2, 82%, 55%)" fill-opacity="0.27" stroke="none" stroke-width="0.93"  transform="translate(7.4 27.2) rotate(225.4) scale(0.64 0.95)" />
<path d="M 42.8 34.8 C 24.2 27.4, 33.8 35.1, 23.0 46.6 C 38.9 50.8, 83.1 88.1, 71.6 89.2 C 83.3 100.0, 100.0 22.6, 97.7 25.9 C 89.2 17.1, 52.1 0.0, 48.1 2.6 C 48.6 16.9, 78.8 14.2, 83.5 12.8 C 89.8 30.3, 16.8 79.6, 19.8 71.1 C 39.6 72.7, 19.2 50.0, 12.4 41.2 Z" fill="hsl(290, 83%, 63%)" fill-opacity="0.67" stroke="none" stroke-width="4.13"  transform="translate(99.3 61.6) rotate(249.8) scale(1.35 0.90)" />
<path d="M 57.9 9.4 C 48.5 14.2, 88.3 56.4, 85.8 70.2 C 76.7 69.1, 31.4 17.8, 28.9 28.3 C 13.2 45.6, 78.8 88.3, 75.9 85.8 C 93.8 72.4, 64.6 52.3, 65.3 56.2 C 50.7 39.1, 92.7 70.0, 81.3 75.7 C 84.1 89.8, 16.9 32.9, 10.7 25.5 C 29.7 14.7, 29.9 36.0, 16.3 26.0 Z" fill="hsl(322, 74%, 44%)" fill-opacity="0.81" stroke="none" stroke-width="3.16"  transform="translate(19.5 11.7) rotate(300.3) scale(0.72 0.55)" />
<path d="M 61.2 68.0 C 49.8 80.5, 100.0 67.9, 95.4 78.6 C 100.0 91.3, 33.3 82.6, 28.4 81.7 C 48.1 84.5, 43.9 59.5, 38.7 46.6 C 50.8 62.2, 20.3 37.4, 34.3 23.1 C 53.0 19.0, 43.8 95.6, 41.6 87.4 C 54.2 99.8, 29.0 77.8, 18.5 85.8 Z" fill="none" fill-opacity="0.95" stroke="hsl(322, 74%, 44%)" stroke-width="2.39"  transform="translate(39.5 0.8) rotate(194.6) scale(0.71 0.59)" />
<rect x="21.9" y="8.8" width="29.2" height="29.9" rx="15.9" fill="none" fill-opacity="0.70"   transform="translate(60.7 23.2) rotate(209.8) scale(1.01 1.09)" />
<path d="M 98.3 93.9 C 96.0 82.0, 26.8 13.6, 22.3 12.1 C 30.1 7.4, 25.2 18.6, 20.4 19.3 C 29.7 34.4, 24.1 38.6, 15.9 39.1 C 18.7 43.6, 81.7 59.9, 73.1 45.3 C 59.6 43.2, 43.8 58.7, 57.8 52.1 C 66.1 54.1, 70.8 69.0, 72.8 68.6 C 74.8 73.8, 31.4 98.5, 28.0 90.2 C 40.2 99.5, 10.0 90.9, 16.6 76.6 C 0.9 63.2, 16.2 7.3, 3.9 5.2 Z" fill="hsl(2, 82%, 55%)" fill-opacity="0.73" stroke="none" stroke-width="4.95" filter="url(#f1)" transform="translate(85.9 95.3) rotate(54.2) scale(1.54 1.54)" />
<path d="M 50.9 44.4 C 36.3 57.6, 95.2 76.2, 82.2 69.0 C 96.0 58.6, 68.2 30.7, 76.7 41.7 C 57.2 49.9, 29.8 13.2, 44.2 8.3 C 45.5 3.3, 82.0 21.0, 88.3 35.7 C 97.7 33.4, 55.0 99.2, 60.2 98.8 C 45.0 90.5, 81.3 84.0, 71.3 85.4 Z" fill="none" fill-opacity="0.95" stroke="hsl(144, 86%, 72%)" stroke-width="3.62"  transform="translate(87.1 31.6) rotate(66.4) scale(0.54 0.94)" />
<rect x="40.5" y="55.0" width="34.6" height="29.1" rx="7.6" fill="hsl(2, 82%, 55%)" fill-opacity="0.70"    />
<path d="M 30.8 23.2 C 42.8 4.5, 63.5 66.3, 64.5 68.7 C 66.4 49.1, 54.1 51.9, 68.0 46.9 C 76.7 49.0, 67.9 2.7, 55.7 13.2 C 56.5 10.1, 16.5 56.4, 1.6 42.6 C 4.8 38.7, 66.2 49.1, 78.0 59.7 C 80.9 47.1, 33.9 57.5, 46.1 50.9 C 54.9 56.6, 66.7 5.7, 63.6 8.9 Z" fill="none" fill-opacity="0.41" stroke="hsl(144, 86%, 72%)" stroke-width="2.33"  transform="translate(48.1 32.0) rotate(292.3) scale(0.94 0.78)" />
<rect x="33.9" y="52.1" width="39.1" height="24.8" rx="8.4" fill="none" fill-opacity="0.22" stroke="hsl(83, 65%, 44%)" stroke-width="1.7"  transform="translate(38.1 73.6) rotate(125.0) scale(1.39 0.77)" />
<path d="M 37.8 8.6 C 38.9 0.0, 67.1 69.2, 56.6 64.3 C 58.5 66.5, 28.0 77.6, 41.8 87.5 C 53.5 96.7, 42.5 45.1, 47.5 53.5 C 28.4 50.7, 6.5 36.9, 6.6 33.9 C 5.3 43.5, 57.7 66.0, 72.5 76.1 C 91.8 90.3, 12.1 14.6, 25.8 1.1 C 20.0 0.0, 14.7 65.6, 2.7 74.9 C 14.3 89.0, 37.4 0.0, 50.9 3.8 C 58.1 15.7, 74.8 80.5, 82.0 67.6 Z" fill="hsl(183, 71%, 60%)" fill-opacity="0.49" stroke="none" stroke-width="2.77"  transform="translate(13.9 40.8) rotate(220.9) scale(1.93 0.97)" />
<path d="M 99.3 46.0 C 100.0 28.3, 86.3 59.2, 74.5 53.2 C 68.2 37.3, 60.6 49.7, 46.6 46.5 C 38.7 35.2, 59.7 27.8, 57.0 27.3 C 70.4 43.3, 40.4 75.2, 45.1 62.5 C 26.4 62.3, 23.2 82.8, 9.2 75.9 C 21.3 93.9, 41.9 36.6, 39.2 49.7 Z" fill="none" fill-opacity="0.50" stroke="hsl(144, 86%, 72%)" stroke-width="1.88"  transform="translate(47.6 53.4) rotate(193.9) scale(1.31 0.60)" />
<rect x="55.7" y="18.1" width="39.4" height="33.8" rx="7.0" fill="hsl(86, 72%, 68%)" fill-opacity="0.34" stroke="hsl(290, 83%, 63%)" stroke-width="1.8"  transform="translate(56.2 59.6) rotate(195.7) scale(1.01 1.38)" />
<path d="M 32.2 24.5 C 40.5 36.2, 6.1 0.0, 7.6 1.4 C 0.0 0.0, 37.8 71.9, 44.6 71.6 C 25.1 57.2, 19.5 27.4, 24.1 19.5 C 5.7 25.1, 59.1 75.3, 60.2 64.0 C 56.0 44.8, 23.1 5.9, 12.7 18.9 C 15.9 28.9, 37.2 45.9, 50.6 34.9 Z" fill="hsl(242, 72%, 49%)" fill-opacity="0.54" stroke="none" stroke-width="1.10"  transform="translate(43.4 30.4) rotate(355.8) scale(0.70 1.50)" />
<rect x="64.8" y="2.0" width="20.8" height="10.0" rx="0" fill="hsl(290, 83%, 63%)" fill-opacity="0.94"   transform="translate(9.7 95.9) rotate(13.3) scale(1.10 1.82)" />
<path d="M 61.1 10.0 C 55.7 0.0, 81.0 100.0, 68.2 87.3 C 67.0 96.2, 88.5 92.2, 87.7 92.5 C 88.9 100.0, 56.7 14.7, 45.1 7.4 C 58.4 0.0, 4.5 13.7, 16.8 20.8 C 33.4 3.5, 94.7 20.8, 83.1 29.1 C 63.9 37.3, 84.5 1.8, 90.8 6.5 C 88.8 14.4, 62.5 74.4, 69.2 69.7 C 65.9 75.8, 28.4 0.0, 39.8 3.5 C 21.9 0.0, 65.2 41.4, 58.9 46.2 Z" fill="hsl(183, 71%, 60%)" fill-opacity="0.59" stroke="none" stroke-width="1.95" filter="url(#f1)" transform="translate(76.1 9.8) rotate(209.3) scale(0.82 0.64)" />
<path d="M 12.0 67.0 C 0.0 86.0, 47.3 18.3, 46.5 5.6 C 34.6 12.1, 10.8 98.9, 1.3 90.1 C 0.0 75.2, 13.1 63.0, 19.0 72.3 C 36.9 84.2, 96.6 100.0, 89.3 92.3 C 71.1 95.9, 50.1 75.6, 52.6 63.9 C 67.6 54.9, 77.9 16.3, 67.2 17.4 C 55.9 0.0, 0.0 47.1, 5.0 41.8 Z" fill="none" fill-opacity="0.56" stroke="hsl(86, 72%, 68%)" stroke-width="3.81"  transform="translate(98.9 2.7) rotate(36.5) scale(1.56 1.23)" />
<path d="M 33.8 41.7 C 42.5 60.0, 4.3 90.2, 7.9 92.0 C 0.0 100.0, 79.6 51.4, 84.7 54.0 C 67.9 73.0, 74.8 0.0, 61.6 7.5 C 41.9 0.0, 73.2 80.4, 79.3 86.6 C 72.3 85.3, 18.5 47.6, 8.5 33.0 C 0.0 27.8, 71.1 41.9, 79.1 55.5 C 75.3 38.9, 86.3 44.9, 71.4 30.2 Z" fill="hsl(151, 70%, 62%)" fill-opacity="0.42" stroke="none" stroke-width="1.37"  transform="translate(6.7 34.4) rotate(276.1) scale(1.78 0.51)" />
<rect x="56.8" y="51.3" width="39.9" height="11.5" rx="5.2" fill="none" fill-opacity="0.41"   transform="translate(4.9 53.0) rotate(143.8) scale(0.76 1.11)" />
<rect x="11.6" y="40.1" width="34.4" height="35.6" rx="0" fill="none" fill-opacity="0.41"   transform="translate(19.7 63.2) rotate(40.1) scale(1.27 1.47)" />
<rect x="25.9" y="17.6" width="49.1" height="19.7" rx="0" fill="none" fill-opacity="0.73" stroke="hsl(242, 72%, 49%)" stroke-width="1.5"  transform="translate(72.3 39.5) rotate(149.3) scale(0.66 1.75)" />
<circle cx="18.3" cy="62.2" r="5.2" fill="url(#g0)" fill-opacity="0.80"  transform="translate(99.6 60.8) rotate(206.1) scale(1.33 1.60)" />
<path d="M 75.5 9.0 C 77.5 0.0, 10.9 40.0, 9.8 47.6 C 15.5 62.6, 36.3 54.6, 37.9 56.1 C 56.3 63.2, 47.6 100.0, 38.7 94.2 C 27.4 100.0, 3.6 37.8, 3.8 25.1 C 1.1 36.3, 91.7 13.6, 81.1 27.4 C 80.9 12.6, 18.0 85.3, 11.0 92.5 C 0.9 100.0, 67.8 50.5, 61.0 37.1 C 53.3 48.9, 49.5 97.0, 61.6 88.9 Z" fill="none" fill-opacity="0.55" stroke="hsl(144, 86%, 72%)" stroke-width="4.15"  transform="translate(47.6 45.0) rotate(63.7) scale(0.53 0.70)" />
<path d="M 35.5 55.1 C 36.5 67.9, 61.1 22.2, 57.2 16.6 C 49.1 34.2, 69.2 26.2, 61.0 16.5 C 59.1 2.9, 55.7 78.8, 50.3 73.6 C 45.0 84.2, 57.8 14.9, 62.5 16.7 C 78.8 24.8, 20.0 75.6, 8.2 65.4 C 23.4 84.5, 48.4 28.3, 57.4 42.2 C 74.5 44.0, 42.5 31.6, 48.1 21.2 C 52.8 7.3, 88.5 68.4, 81.2 68.6 Z" fill="none" fill-opacity="0.56" stroke="hsl(322, 74%, 44%)" stroke-width="4.21"  transform="translate(15.8 78.5) rotate(44.5) scale(1.93 0.81)" />
<path d="M 19.3 69.1 C 22.5 57.2, 68.4 73.0, 64.6 59.1 C 58.9 49.7, 62.4 17.2, 59.3 31.2 C 41.7 15.2, 100.0 47.6, 97.7 54.5 C 94.2 51.6, 13.2 61.6, 19.3 52.8 C 27.1 68.1, 18.5 21.6, 32.0 33.6 C 41.1 17.9, 81.4 71.2, 81.3 84.2 C 72.5 85.1, 0.0 96.4, 7.0 84.6 C 22.7 69.7, 83.4 86.4, 69.9 95.3 C 51.5 77.2, 82.4 44.3, 84.1 58.9 Z" fill="hsl(151, 70%, 62%)" fill-opacity="0.83" stroke="none" stroke-width="3.49"  transform="translate(57.8 85.7) rotate(112.0) scale(1.18 0.83)" />
<path d="M 55.3 7.5 C 57.3 0.3, 0.0 46.4, 0.1 57.9 C 12.5 44.0, 10.4 36.6, 3.9 34.0 C 9.3 43.8, 19.6 25.5, 25.1 28.6 C 13.5 48.4, 39.3 51.0, 30.6 52.5 C 33.1 37.7, 100.0 44.4, 86.7 43.6 C 86.1 25.9, 79.0 38.0, 74.4 26.4 Z" fill="hsl(104, 72%, 65%)" fill-opacity="0.57" stroke="none" stroke-width="4.05"  transform="translate(50.4 31.1) rotate(169.9) scale(1.15 1.29)" />
<rect x="50.6" y="13.9" width="43.0" height="38.3" rx="17.0" fill="hsl(106, 75%, 59%)" fill-opacity="0.69"   transform="translate(83.5 57.5) rotate(309.7) scale(1.70 0.93)" />
<path d="M 24.3 58.2 C 19.4 43.9, 0.0 17.0, 6.6 26.7 C 15.5 37.9, 40.1 67.8, 37.3 75.3 C 44.2 68.0, 40.3 3.7, 26.2 4.4 C 25.9 0.0, 33.3 90.5, 25.8 98.9 C 11.8 100.0, 28.7 7.2, 33.4 18.1 C 49.1 1.3, 10.9 35.0, 24.2 27.1 C 32.5 34.9, 11.2 71.0, 21.4 58.6 C 20.3 65.9, 57.4 49.9, 48.2 39.9 C 29.5 21.6, 6.2 71.7, 4.8 57.5 Z" fill="hsl(151, 70%, 62%)" fill-opacity="0.87" stroke="none" stroke-width="2.95" filter="url(#f1)" transform="translate(14.5 58.6) rotate(308.4) scale(1.63 1.59)" />
<path d="M 12.1 61.4 C 18.8 72.7, 0.0 32.1, 10.3 17.4 C 1.6 35.1, 12.3 84.3, 2.8 97.9 C 8.2 100.0, 88.2 77.9, 81.9 88.4 C 88.5 80.5, 32.6 33.0, 43.4 35.8 C 59.3 21.0, 67.2 2.7, 59.5 7.8 C 41.7 11.0, 73.9 78.9, 72.6 85.7 C 61.5 72.4, 81.2 78.5, 69.6 69.7 C 64.1 60.7, 16.3 76.0, 8.9 88.4 C 8.2 94.8, 65.3 0.0, 60.7 0.1 Z" fill="hsl(183, 71%, 60%)" fill-opacity="0.65" stroke="none" stroke-width="2.70"   />
<path d="M 7.1 22.0 C 9.2 32.6, 26.1 39.6, 36.4 39.3 C 20.9 57.2, 4.0 50.7, 12.4 49.7 C 0.0 36.0, 31.8 87.4, 23.9 96.0 C 23.7 100.0, 35.2 32.4, 25.8 38.9 C 27.1 37.2, 19.4 39.1, 19.3 31.4 C 1.0 25.1, 27.2 32.7, 26.9 36.3 C 12.1 38.1, 56.8 26.4, 51.1 25.6 C 55.3 17.9, 98.7 10.9, 94.6 22.9 C 94.4 36.6, 86.1 80.0, 73.0 67.3 C 74.3 47.3, 28.1 53.8, 34.5 41.4 Z" fill="hsl(242, 72%, 49%)" fill-opacity="0.93" stroke="none" stroke-width="2.83"  transform="translate(73.9 85.1) rotate(338.8) scale(1.66 1.74)" />
<rect x="56.2" y="13.9" width="24.0" height="20.1" rx="17.4" fill="hsl(2, 82%, 55%)" fill-opacity="0.47" stroke="hsl(86, 72%, 68%)" stroke-width="3.8"  transform="translate(66.3 77.0) rotate(203.9) scale(1.13 0.94)" />
<circle cx="40.3" cy="86.4" r="17.5" fill="hsl(40, 53%, 69%)" fill-opacity="0.99"  transform="translate(61.5 63.6) rotate(88.3) scale(1.42 1.82)" />
<circle cx="26.0" cy="28.1" r="0.6" fill="hsl(83, 65%, 44%)" fill-opacity="0.77"  transform="translate(65.7 27.8) rotate(354.5) scale(1.85 0.82)" />
<path d="M 1.4 49.3 C 19.6 54.5, 37.2 19.6, 34.5 30.2 C 21.1 39.1, 0.0 31.8, 2.6 44.9 C 0.0 29.4, 67.7 91.1, 77.8 93.7 C 89.5 93.8, 18.9 50.7, 14.0 48.6 C 0.0 37.1, 7.6 86.7, 8.2 85.9 C 0.0 100.0, 44.7 2.2, 40.1 15.9 C 56.2 0.2, 42.2 80.0, 48.5 86.5 C 52.9 100.0, 84.9 57.3, 75.4 57.9 Z" fill="none" fill-opacity="0.49" stroke="hsl(2, 82%, 55%)" stroke-width="3.15"  transform="translate(38.6 49.5) rotate(257.8) scale(0.82 1.70)" />
<path d="M 88.5 98.3 C 96.8 94.2, 70.3 2.0, 61.5 16.3 C 52.7 32.0, 86.5 54.0, 96.7 52.7 C 100.0 40.2, 66.9 39.0, 77.6 48.8 C 76.5 57.4, 96.1 13.2, 92.1 13.0 C 98.3 12.9, 76.0 58.3, 84.7 45.1 C 71.9 46.0, 25.1 60.8, 28.4 55.2 Z" fill="none" fill-opacity="0.44" stroke="hsl(144, 86%, 72%)" stroke-width="1.06" filter="url(#f1)" transform="translate(46.6 47.6) rotate(253.2) scale(0.90 0.85)" />
<rect x="13.1" y="9.3" width="47.4" height="22.4" rx="6.9" fill="none" fill-opacity="0.27" stroke="hsl(2, 82%, 55%)" stroke-width="3.1" filter="url(#f1)" transform="translate(69.2 94.1) rotate(326.7) scale(1.01 1.78)" />
<path d="M 36.6 76.6 C 31.9 90.5, 31.8 89.1, 20.9 83.1 C 22.2 79.5, 27.2 54.0, 13.4 52.8 C 6.6 42.1, 5.2 69.9, 8.2 64.4 C 26.2 68.6, 11.2 24.3, 0.6 16.4 C 9.9 19.6, 74.1 87.5, 77.7 97.7 C 70.5 100.0, 23.4 59.7, 24.3 66.4 C 40.2 85.7, 25.9 98.8, 14.1 94.4 C 29.2 96.2, 40.4 27.8, 35.5 14.8 Z" fill="hsl(2, 82%, 55%)" fill-opacity="0.89" stroke="none" stroke-width="2.75"  transform="translate(76.4 35.0) rotate(80.1) scale(1.23 1.38)" />
<rect x="26.4" y="5.7" width="26.5" height="39.5" rx="0" fill="hsl(144, 86%, 72%)" fill-opacity="0.28"  filter="url(#f1)" transform="translate(63.3 67.4) rotate(216.5) scale(0.54 1.06)" />
<path d="M 6.5 53.5 C 16.9 50.3, 85.9 33.1, 82.0 28.8 C 67.3 24.8, 74.3 0.0, 84.5 1.2 C 84.8 0.0, 7.3 9.1, 16.6 2.7 C 1.1 14.6, 35.1 30.9, 47.1 22.4 C 42.1 17.1, 21.7 57.1, 32.8 62.2 C 19.1 75.3, 0.0 86.4, 6.7 72.7 C 24.2 87.6, 33.9 61.0, 23.0 72.3 C 35.3 65.8, 100.0 24.9, 93.7 35.2 C 100.0 17.7, 62.0 56.4, 67.1 63.7 Z" fill="none" fill-opacity="0.81" stroke="hsl(40, 53%, 69%)" stroke-width="3.22"  transform="translate(72.7 37.6) rotate(247.4) scale(0.88 1.88)" />
<path d="M 38.5 57.2 C 46.4 45.7, 12.4 37.2, 23.8 42.3 C 9.1 47.6, 53.9 1.7, 49.1 11.2 C 60.7 23.0, 55.9 94.7, 56.6 84.0 C 54.1 65.3, 90.2 64.9, 98.0 67.4 C 83.4 68.7, 9.3 64.1, 12.6 64.2 C 14.6 49.7, 37.3 30.2, 40.2 34.4 C 47.7 17.5, 54.6 35.6, 60.3 40.5 C 57.0 24.8, 0.0 28.0, 7.3 21.7 Z" fill="hsl(106, 75%, 59%)" fill-opacity="0.85" stroke="none" stroke-width="4.30"  transform="translate(41.7 33.2) rotate(121.9) scale(1.73 1.34)" />
<path d="M 68.1 57.8 C 75.8 58.8, 54.1 2.6, 55.4 0.4 C 51.2 0.0, 13.8 24.9, 3.1 11.8 C 0.0 9.4, 52.3 96.2, 42.9 98.1 C 54.1 92.6, 9.1 42.9, 10.0 55.5 C 0.0 44.1, 63.7 7.8, 49.1 2.5 C 40.4 8.2, 14.2 38.2, 26.9 40.6 " fill="none" fill-opacity="0.31" stroke="hsl(40, 53%, 69%)" stroke-width="3.22"  transform="translate(50.5 81.7) rotate(98.5) scale(1.61 1.44)" />
<circle cx="76.9" cy="86.4" r="3.0" fill="hsl(2, 82%, 55%)" fill-opacity="0.61" filter="url(#f1)" transform="translate(17.1 17.5) rotate(246.2) scale(1.46 1.26)" />
<path d="M 98.2 3.4 C 96.5 17.9, 82.0 11.1, 90.5 12.7 C 92.9 10.2, 20.8 68.2, 22.9 74.1 C 26.4 85.3, 41.6 58.8, 41.0 55.4 C 47.9 46.9, 79.4 90.3, 79.7 97.5 C 89.9 95.6, 38.9 47.0, 29.9 46.9 C 17.6 35.9, 27.4 71.1, 14.7 59.3 Z" fill="hsl(104, 72%, 65%)" fill-opacity="0.77" stroke="none" stroke-width="4.03"   />
<rect x="50.2" y="4.6" width="48.1" height="39.5" rx="0" fill="hsl(40, 53%, 69%)" fill-opacity="0.51"    />
<rect x="21.1" y="15.9" width="47.9" height="31.3" rx="15.5" fill="hsl(322, 74%, 44%)" fill-opacity="0.41"   transform="translate(19.7 19.4) rotate(4.4) scale(1.50 1.42)" />
<path d="M 51.6 80.4 C 50.8 62.9, 2.3 6.9, 13.6 20.6 C 18.8 21.7, 7.7 47.1, 6.9 35.3 C 17.5 48.1, 64.9 50.0, 68.3 35.3 C 64.1 47.6, 57.2 59.0, 45.3 46.7 C 51.6 60.4, 54.3 85.4, 56.5 81.9 C 59.7 77.4, 92.3 21.7, 84.0 29.6 C 94.1 37.4, 44.6 76.7, 29.7 88.5 C 41.4 100.0, 22.4 42.4, 27.5 27.5 Z" fill="none" fill-opacity="0.67" stroke="hsl(2, 82%, 55%)" stroke-width="1.31"   />
<path d="M 87.7 37.6 C 93.8 47.0, 100.0 35.3, 87.4 20.7 C 85.7 27.2, 13.9 22.3, 27.8 36.9 C 18.4 37.6, 6.2 10.3, 13.0 5.0 C 29.4 14.2, 84.9 75.8, 91.9 76.7 C 81.8 71.9, 19.2 99.4, 16.9 94.0 C 36.8 79.4, 90.8 40.5, 86.4 26.5 C 100.0 17.7, 83.4 46.9, 70.1 43.4 Z" fill="hsl(183, 71%, 60%)" fill-opacity="0.54" stroke="none" stroke-width="4.33"  transform="translate(90.4 8.7) rotate(358.4) scale(1.04 1.03)" />
<circle cx="10.3" cy="11.8" r="4.5" fill="hsl(40, 53%, 69%)" fill-opacity="0.83"  transform="translate(22.7 1.0) rotate(34.3) scale(1.72 1.80)" />
<rect x="47.5" y="19.2" width="26.7" height="36.6" rx="10.1" fill="hsl(290, 83%, 63%)" fill-opacity="0.62"   transform="translate(30.9 2.5) rotate(52.7) scale(1.91 1.14)" />
<circle cx="9.8" cy="95.2" r="12.5" fill="hsl(144, 86%, 72%)" fill-opacity="0.72"  transform="translate(63.9 32.8) rotate(269.5) scale(0.63 0.52)" />
<circle cx="53.7" cy="38.5" r="1.7" fill="url(#g0)" fill-opacity="0.70"   />
<path d="M 8.0 54.0 C 5.2 50.3, 12.7 87.8, 20.2 90.1 C 6.3 98.7, 27.6 24.9, 40.1 29.2 C 26.4 16.3, 2.6 71.3, 16.9 71.0 C 5.7 74.4, 86.4 79.7, 79.5 65.6 C 91.3 74.7, 24.8 73.3, 33.8 70.8 C 37.4 54.4, 67.7 97.0, 62.9 97.6 C 54.4 90.2, 3.7 13.3, 11.9 12.5 C 12.0 21.6, 40.3 70.6, 29.2 57.4 " fill="none" fill-opacity="0.98" stroke="hsl(104, 72%, 65%)" stroke-width="2.17"   />
<path d="M 38.1 13.6 C 55.5 2.6, 24.1 79.1, 22.1 91.0 C 29.0 83.0, 77.9 32.9, 82.9 45.8 C 77.9 48.8, 46.1 100.0, 50.0 98.8 C 57.4 100.0, 45.7 51.9, 48.3 44.2 C 51.1 25.6, 14.4 83.5, 10.8 83.5 C 12.3 80.8, 80.5 55.8, 78.0 46.8 C 92.0 35.0, 68.8 21.0, 75.1 21.1 C 85.1 26.1, 3.2 53.4, 7.6 41.0 C 7.1 35.3, 59.1 4.3, 62.7 10.1 C 43.7 0.0, 14.3 36.7, 10.5 48.4 Z" fill="hsl(104, 72%, 65%)" fill-opacity="0.71" stroke="none" stroke-width="4.19"  transform="translate(27.7 16.4) rotate(271.7) scale(0.85 1.56)" />
<path d="M 97.0 72.5 C 82.2 63.4, 37.3 34.7, 48.5 32.9 C 38.9 24.0, 100.0 100.0, 95.3 95.9 C 92.5 92.5, 59.0 73.4, 72.6 79.8 C 74.2 72.1, 60.7 86.6, 46.6 72.2 C 43.4 90.3, 34.5 5.7, 29.1 19.1 C 40.5 4.2, 24.8 76.9, 25.0 66.9 C 12.8 50.4, 86.6 14.0, 84.8 23.0 C 100.0 8.5, 11.3 63.2, 5.0 65.9 C 2.3 64.1, 19.6 28.1, 13.3 24.3 Z" fill="none" fill-opacity="0.33" stroke="hsl(83, 65%, 44%)" stroke-width="5.17"  transform="translate(18.7 35.2) rotate(6.6) scale(0.75 1.94)" />
<rect x="15.0" y="45.4" width="48.9" height="38.8" rx="0" fill="hsl(290, 83%, 63%)" fill-opacity="0.41" stroke="hsl(83, 65%, 44%)" stroke-width="2.3" filter="url(#f1)"  />
<g opacity="0.031">
<rect x="0" y="0" width="1" height="100" fill="black" />
<rect x="22" y="0" width="1" height="100" fill="black" />
<rect x="44" y="0" width="1" height="100" fill="black" />
<rect x="66" y="0" width="1" height="100" fill="black" />
<rect x="88" y="0" width="1" height="100" fill="black" />
<rect x="0" y="0" width="100" height="1" fill="black" />
<rect x="0" y="22" width="100" height="1" fill="black" />
<rect x="0" y="44" width="100" height="1" fill="black" />
<rect x="0" y="66" width="100" height="1" fill="black" />
<rect x="0" y="88" width="100" height="1" fill="black" />
</g>

</svg>
