<?xml version="1.0" encoding="UTF-8"?>
<svg xmlns="http://www.w3.org/2000/svg" width="100" height="100" viewBox="0 0 100 100">
<defs>
<linearGradient id="g0" x1="0%" y1="0%" x2="100%" y2="100%">
<stop offset="0.0%" stop-color="hsl(106, 75%, 59%)" />
<stop offset="33.3%" stop-color="hsl(183, 71%, 60%)" />
<stop offset="66.7%" stop-color="hsl(242, 72%, 49%)" />
<stop offset="100.0%" stop-color="hsl(322, 74%, 44%)" />
</linearGradient>
<linearGradient id="g1" x1="0%" y1="0%" x2="100%" y2="100%">
<stop offset="0.0%" stop-color="hsl(290, 83%, 63%)" />
<stop offset="33.3%" stop-color="hsl(2, 82%, 55%)" />
<stop offset="66.7%" stop-color="hsl(86, 72%, 68%)" />
<stop offset="100.0%" stop-color="hsl(83, 65%, 44%)" />
</linearGradient>
<linearGradient id="g2" x1="0%" y1="0%" x2="100%" y2="100%">
<stop offset="0.0%" stop-color="hsl(40, 53%, 69%)" />
<stop offset="33.3%" stop-color="hsl(104, 72%, 65%)" />
<stop offset="66.7%" stop-color="hsl(144, 86%, 72%)" />
<stop offset="100.0%" stop-color="hsl(151, 70%, 62%)" />
</linearGradient>
<filter id="f1" x="-20%" y="-20%" width="140%" height="140%">
  <feGaussianBlur stdDeviation="2.287895211209381" />
</filter>

</defs>

<circle cx="40.0" cy="35.4" r="10.3" fill="url(#g2)" fill-opacity="0.41"  transform="translate(72.1 83.1) rotate(359.5) scale(0.90 1.88)" />
<rect x="37.8" y="13.3" width="27.1" height="19.1" rx="0" fill="none" fill-opacity="0.81"  filter="url(#f1)" transform="translate(1.9 12.7) rotate(242.2) scale(1.89 0.78)" />
<path d="M 43.6 91.6 C 51.5 100.0, 34.9 88.0, 29.0 98.7 C 43.7 100.0, 98.6 40.1, 86.8 30.1 C 100.0 42.0, 47.4 33.8, 37.8 25.5 C 45.3 35.3, 100.0 3.1, 92.5 16.8 C 80.1 26.3, 72.0 13.9, 75.5 8.0 C 58.8 2.5, 81.3 15.5, 81.9 4.0 Z" fill="none" fill-opacity="0.51" stroke="hsl(86, 72%, 68%)" stroke-width="4.34"  transform="translate(21.8 50.3) rotate(324.1) scale(1.71 1.63)" />
<path d="M 17.9 11.0 C 37.5 31.0, 60.1 50.3, 56.8 38.5 C 55.6 39.9, 42.6 23.6, 46.6 24.9 C 29.5 18.2, 52.4 39.9, 40.9 40.6 C 40.7 24.7, 37.1 73.3, 29.6 73.0 C 17.1 76.8, 71.8 58.8, 72.7 54.2 C 87.9 47.4, 100.0 29.7, 91.7 23.6 C 85.6 20.4, 62.7 48.2, 61.3 60.7 C 70.6 62.6, 0.0 88.4, 7.6 77.0 " fill="none" fill-opacity="0.43" stroke="hsl(322, 74%, 44%)" stroke-width="4.38"  transform="translate(52.8 45.7) rotate(91.6) scale(1.25 1.78)" />
<rect x="56.5" y="62.3" width="36.5" height="25.6" rx="3.5" fill="hsl(2, 82%, 55%)" fill-opacity="0.89"    />
<path d="M 7.6 48.6 C 23.6 31.9, 0.0 53.1, 9.2 62.7 C 0.0 48.2, 83.6 71.0, 81.5 68.6 C 73.2 85.8, 13.4 28.1, 20.6 19.1 C 39.2 2.5, 7.8 50.3, 0.9 53.3 C 17.7 41.6, 90.3 34.0, 80.8 43.4 C 93.1 40.4, 82.4 32.3, 87.8 37.7 C 78.3 46.9, 29.4 27.2, 24.7 16.2 C 38.9 30.3, 28.3 63.4, 31.8 52.7 C 31.7 70.4, 81.9 100.0, 75.8 90.5 C 56.1 88.2, 84.5 89.1, 82.7 88.0 Z" fill="none" fill-opacity="0.88" stroke="hsl(322, 74%, 44%)" stroke-width="4.13"  transform="translate(21.4 39.4) rotate(307.7) scale(0.75 1.76)" />
<rect x="16.6" y="64.5" width="33.5" height="23.2" rx="0" fill="hsl(83, 65%, 44%)" fill-opacity="0.31"   transform="translate(59.7 32.6) rotate(307.8) scale(1.61 0.57)" />
<path d="M 68.5 68.0 C 62.7 82.7, 43.3 12.1, 46.8 4.7 C 53.7 18.6, 56.3 68.7, 71.0 61.4 C 65.4 70.7, 52.8 61.1, 37.9 75.2 C 27.9 74.3, 47.5 65.3, 43.3 50.6 C 42.5 34.5, 26.6 25.9, 33.4 27.7 C 52.6 33.5, 13.9 26.6, 17.7 26.0 C 30.9 46.0, 78.2 100.0, 66.4 93.4 C 51.5 100.0, 100.0 0.0, 94.0 2.3 Z" fill="none" fill-opacity="0.66" stroke="hsl(86, 72%, 68%)" stroke-width="2.45"  transform="translate(0.1 71.0) rotate(319.2) scale(1.50 1.81)" />
<rect x="14.0" y="61.8" width="22.2" height="30.4" rx="11.1" fill="none" fill-opacity="0.69"  filter="url(#f1)" transform="translate(28.4 22.8) rotate(253.1) scale(0.98 0.64)" />
<path d="M 67.4 46.9 C 62.0 28.7, 7.4 59.9, 9.5 67.7 C 15.3 76.7, 44.6 54.1, 33.4 42.3 C 45.7 53.7, 40.5 84.4, 49.5 84.1 C 38.0 85.8, 94.3 37.9, 97.0 37.5 C 100.0 53.9, 1.3 77.2, 0.8 63.8 C 17.7 51.8, 71.0 91.6, 69.8 94.1 C 74.5 99.1, 82.3 100.0, 71.1 99.9 C 81.2 100.0, 69.4 69.4, 75.5 57.5 Z" fill="none" fill-opacity="0.61" stroke="hsl(86, 72%, 68%)" stroke-width="3.21"  transform="translate(98.4 82.0) rotate(112.4) scale(0.76 1.13)" />
<rect x="23.0" y="25.2" width="23.6" height="37.9" rx="0" fill="none" fill-opacity="0.96"   transform="translate(81.0 64.6) rotate(215.6) scale(1.78 1.36)" />
<rect x="8.2" y="28.7" width="31.4" height="14.0" rx="0" fill="none" fill-opacity="0.51" stroke="hsl(183, 71%, 60%)" stroke-width="3.0"  transform="translate(91.1 89.4) rotate(131.7) scale(1.62 1.06)" />
<path d="M 62.1 81.2 C 71.0 61.8, 88.7 22.7, 90.4 9.4 C 90.6 23.6, 38.9 93.4, 31.9 86.2 C 40.4 100.0, 66.1 57.2, 72.8 68.5 C 88.3 55.4, 54.7 29.1, 57.8 28.1 C 54.4 39.8, 56.4 10.6, 58.1 20.3 C 38.5 34.3, 39.4 40.3, 31.5 32.8 C 14.4 47.1, 12.8 28.2, 15.2 38.6 C 19.1 42.6, 64.5 77.9, 55.2 74.4 C 52.6 60.4, 53.0 38.9, 52.1 51.8 Z" fill="hsl(144, 86%, 72%)" fill-opacity="0.39" stroke="none" stroke-width="2.41"  transform="translate(49.4 62.7) rotate(175.8) scale(1.98 1.01)" />
<path d="M 67.1 45.9 C 57.3 54.4, 46.8 78.2, 56.7 74.9 C 72.6 73.0, 29.2 100.0, 40.8 91.0 C 35.1 100.0, 70.9 39.4, 65.3 52.7 C 61.5 49.2, 22.9 95.2, 26.2 97.3 C 35.1 99.5, 90.8 58.8, 92.8 55.4 C 100.0 52.5, 38.2 64.9, 52.5 71.5 C 47.5 85.5, 15.0 25.6, 28.7 12.5 C 28.9 18.7, 65.6 0.0, 71.0 5.4 Z" fill="hsl(86, 72%, 68%)" fill-opacity="0.32" stroke="none" stroke-width="3.65" filter="url(#f1)" transform="translate(85.9 0.6) rotate(189.5) scale(0.90 1.26)" />
<circle cx="93.3" cy="37.4" r="6.3" fill="url(#g0)" fill-opacity="0.43"   />
<circle cx="39.0" cy="65.2" r="13.6" fill="hsl(86, 72%, 68%)" fill-opacity="0.85"  transform="translate(75.2 4.7) rotate(297.0) scale(0.70 0.53)" />
<path d="M 73.5 74.5 C 54.7 86.6, 100.0 2.5, 95.0 5.3 C 78.2 18.6, 55.2 48.2, 62.7 57.4 C 67.6 69.9, 68.3 19.2, 63.3 25.5 C 56.8 27.6, 62.6 55.2, 73.3 45.3 C 54.8 54.8, 75.5 11.1, 69.2 25.0 C 53.3 12.1, 60.2 39.0, 47.0 32.9 C 64.0 47.0, 5.7 33.5, 5.0 27.6 Z" fill="none" fill-opacity="0.41" stroke="hsl(151, 70%, 62%)" stroke-width="4.50"  transform="translate(62.9 79.6) rotate(335.2) scale(0.52 1.17)" />
<rect x="70.3" y="7.4" width="21.8" height="33.3" rx="17.5" fill="hsl(104, 72%, 65%)" fill-opacity="0.94"   transform="translate(29.6 67.6) rotate(22.8) scale(0.53 0.94)" />
<rect x="2.3" y="39.4" width="43.0" height="35.4" rx="0" fill="none" fill-opacity="0.87" stroke="hsl(151, 70%, 62%)" stroke-width="2.9" filter="url(#f1)" transform="translate(86.1 96.7) rotate(102.7) scale(1.60 0.91)" />
<path d="M 14.5 75.4 C 17.8 68.5, 50.1 56.5, 42.4 46.0 C 60.2 36.6, 29.1 42.5, 38.2 36.6 C 49.7 30.3, 48.4 24.1, 55.4 33.8 C 49.9 29.9, 100.0 47.2, 99.2 54.0 C 92.2 60.7, 28.6 37.4, 39.4 23.5 C 44.1 7.5, 13.0 24.2, 20.7 21.1 C 32.3 29.0, 13.9 32.2, 23.6 20.5 Z" fill="none" fill-opacity="0.68" stroke="hsl(322, 74%, 44%)" stroke-width="5.06"  transform="translate(4.2 54.8) rotate(18.9) scale(1.26 1.48)" />
<circle cx="49.6" cy="48.3" r="5.6" fill="url(#g0)" fill-opacity="0.40"  transform="translate(1.6 49.6) rotate(137.5) scale(0.93 0.56)" />
<rect x="41.6" y="59.7" width="33.8" height="11.8" rx="0" fill="hsl(183, 71%, 60%)" fill-opacity="0.66"   transform="translate(29.6 34.8) rotate(218.8) scale(0.92 1.61)" />
<rect x="72.7" y="34.0" width="20.7" height="17.8" rx="0" fill="none" fill-opacity="0.65"   transform="translate(43.6 48.2) rotate(69.3) scale(1.99 1.48)" />
<circle cx="28.9" cy="76.1" r="8.2" fill="hsl(104, 72%, 65%)" fill-opacity="0.61"  transform="translate(22.9 26.1) rotate(203.8) scale(0.57 0.89)" />
<circle cx="8.9" cy="79.4" r="5.9" fill="url(#g1)" fill-opacity="0.66"   />
<circle cx="63.2" cy="68.0" r="14.0" fill="hsl(151, 70%, 62%)" fill-opacity="0.82"  transform="translate(57.4 47.5) rotate(123.3) scale(1.82 1.32)" />
<rect x="51.4" y="3.6" width="41.6" height="10.6" rx="0" fill="none" fill-opacity="0.89" stroke="hsl(242, 72%, 49%)" stroke-width="2.0"   />
<path d="M 1.6 61.4 C 0.0 53.5, 79.0 0.0, 71.1 4.9 C 64.4 0.0, 51.5 56.5, 44.8 48.0 C 51.6 49.2, 85.7 62.5, 82.8 64.7 C 100.0 71.5, 98.5 58.7, 99.3 47.9 C 100.0 32.2, 49.4 20.1, 37.1 14.2 C 27.7 11.4, 82.8 22.8, 71.7 9.1 C 55.3 5.7, 100.0 22.7, 99.8 11.6 C 92.5 15.0, 20.6 70.2, 5.8 82.2 C 8.3 84.6, 84.5 67.5, 95.8 60.2 Z" fill="none" fill-opacity="0.60" stroke="hsl(144, 86%, 72%)" stroke-width="0.92"   />
<rect x="11.7" y="50.4" width="40.8" height="10.3" rx="9.5" fill="none" fill-opacity="0.74" stroke="hsl(40, 53%, 69%)" stroke-width="4.4" filter="url(#f1)" transform="translate(4.3 20.9) rotate(271.8) scale(0.64 0.77)" />
<path d="M 66.9 59.6 C 58.5 43.1, 21.7 21.3, 33.6 33.2 C 33.7 22.5, 75.3 100.0, 64.0 91.9 C 58.4 81.8, 5.4 85.7, 9.4 89.5 C 7.9 91.6, 12.7 47.3, 2.4 45.9 C 0.0 29.3, 22.4 26.0, 17.9 31.4 C 32.5 30.6, 72.9 61.7, 69.3 73.2 C 68.0 53.3, 54.6 36.8, 62.4 36.9 C 66.2 35.6, 54.0 3.0, 55.3 4.1 " fill="none" fill-opacity="0.45" stroke="hsl(183, 71%, 60%)" stroke-width="3.85"  transform="translate(21.6 41.1) rotate(290.3) scale(1.22 1.55)" />
<path d="M 13.1 37.3 C 30.6 53.6, 66.4 5.9, 73.3 13.7 C 66.8 0.0, 33.1 60.2, 32.1 74.6 C 15.6 56.2, 99.3 15.5, 98.5 4.8 C 90.0 1.8, 24.9 56.9, 26.2 71.3 C 16.4 80.7, 55.4 83.9, 66.3 80.9 C 82.8 76.5, 43.3 31.4, 54.4 26.3 C 44.5 28.9, 19.2 46.7, 21.9 40.1 Z" fill="hsl(40, 53%, 69%)" fill-opacity="0.32" stroke="none" stroke-width="3.52"  transform="translate(0.6 91.2) rotate(60.2) scale(1.41 0.82)" />
<circle cx="14.4" cy="44.5" r="2.5" fill="hsl(83, 65%, 44%)" fill-opacity="0.99"  transform="translate(83.2 81.3) rotate(241.5) scale(1.68 0.52)" />
<circle cx="28.4" cy="90.2" r="8.7" fill="hsl(104, 72%, 65%)" fill-opacity="0.59"  transform="translate(52.9 80.0) rotate(129.0) scale(0.98 1.59)" />
<path d="M 65.4 7.5 C 64.5 15.5, 81.3 6.7, 79.2 2.2 C 83.6 10.2, 86.3 6.8, 82.2 4.9 C 74.4 0.0, 53.3 72.0, 62.9 60.2 C 77.1 51.2, 0.3 64.2, 1.7 49.6 C 0.0 30.1, 38.5 92.7, 24.6 87.4 C 20.2 99.6, 27.5 62.4, 24.5 71.7 C 44.4 76.5, 8.3 80.8, 18.3 87.3 Z" fill="none" fill-opacity="0.44" stroke="hsl(242, 72%, 49%)" stroke-width="5.28"  transform="translate(15.9 72.3) rotate(84.9) scale(1.46 1.66)" />
<path d="M 49.4 56.6 C 30.2 74.5, 20.0 58.0, 33.5 47.7 C 26.9 48.9, 31.2 100.0, 31.0 97.2 C 22.4 93.1, 100.0 24.9, 96.6 14.9 C 100.0 29.8, 79.7 76.0, 65.7 63.1 C 61.4 70.3, 83.1 74.3, 72.3 79.7 C 64.2 68.3, 75.7 80.6, 88.5 76.7 C 71.5 87.0, 89.0 37.4, 92.7 37.8 C 90.0 48.0, 21.8 53.5, 28.2 44.6 C 29.1 53.1, 29.4 0.7, 32.8 15.3 Z" fill="hsl(242, 72%, 49%)" fill-opacity="0.44" stroke="none" stroke-width="3.47"  transform="translate(0.9 15.5) rotate(329.2) scale(1.95 0.97)" />
<path d="M 89.8 56.6 C 84.2 50.2, 19.8 77.2, 28.8 64.4 C 27.4 79.2, 78.7 77.3, 91.3 62.6 C 80.3 70.2, 56.3 95.3, 55.5 92.1 C 45.3 89.5, 51.5 65.1, 56.6 71.8 C 61.8 82.8, 38.4 58.5, 35.6 70.9 C 55.1 70.0, 40.9 11.2, 48.1 8.2 C 61.5 0.0, 16.7 10.7, 24.6 25.5 C 4.9 10.0, 33.2 34.9, 26.3 44.0 C 43.6 35.1, 94.1 87.8, 95.5 89.3 C 84.7 96.6, 0.0 22.2, 10.7 9.6 Z" fill="hsl(106, 75%, 59%)" fill-opacity="0.72" stroke="none" stroke-width="3.79" filter="url(#f1)" transform="translate(84.9 3.3) rotate(34.2) scale(0.52 1.02)" />
<path d="M 42.6 85.1 C 24.5 75.3, 25.4 27.5, 32.4 39.4 C 17.7 30.7, 68.3 67.0, 54.9 62.3 C 43.5 59.5, 40.1 45.1, 50.7 45.0 C 62.8 51.5, 88.8 35.2, 80.9 40.5 C 76.4 42.7, 32.3 47.6, 23.5 35.8 C 34.8 28.4, 37.5 100.0, 34.0 87.6 C 15.9 100.0, 56.6 4.2, 58.5 15.4 C 70.0 0.0, 28.3 70.0, 30.0 82.6 Z" fill="hsl(144, 86%, 72%)" fill-opacity="0.85" stroke="none" stroke-width="2.26"  transform="translate(83.2 2.5) rotate(276.8) scale(0.58 1.29)" />
<rect x="27.6" y="63.0" width="46.7" height="28.5" rx="0" fill="hsl(106, 75%, 59%)" fill-opacity="0.84"    />
<rect x="67.3" y="50.7" width="20.6" height="28.5" rx="0" fill="none" fill-opacity="0.28"    />
<rect x="42.0" y="36.7" width="41.5" height="33.7" rx="17.8" fill="none" fill-opacity="0.34" stroke="hsl(83, 65%, 44%)" stroke-width="1.4" filter="url(#f1)"  />
<path d="M 65.2 65.2 C 47.4 70.9, 40.6 47.6, 41.9 54.2 C 26.1 53.2, 32.3 30.2, 21.7 20.7 C 2.1 16.0, 70.7 52.1, 83.0 61.4 C 87.6 56.5, 100.0 19.1, 99.8 18.0 C 100.0 34.7, 30.6 77.1, 20.3 62.2 C 7.0 57.1, 66.3 64.7, 80.2 52.6 C 67.6 70.6, 62.8 75.6, 77.5 81.1 C 75.4 100.0, 42.5 66.7, 41.5 78.8 C 48.4 61.5, 23.7 60.6, 26.9 47.3 C 10.6 37.7, 73.4 15.9, 63.7 17.2 Z" fill="none" fill-opacity="0.60" stroke="hsl(40, 53%, 69%)" stroke-width="3.80" filter="url(#f1)" transform="translate(7.2 8.9) rotate(258.7) scale(0.91 1.52)" />
<path d="M 35.0 66.4 C 35.9 68.2, 34.0 95.9, 32.3 96.6 C 51.4 94.3, 7.6 70.0, 4.4 69.1 C 9.7 62.6, 57.7 83.1, 42.8 83.3 C 52.2 85.4, 23.3 10.6, 12.5 19.2 C 11.9 34.2, 100.0 20.6, 91.6 34.9 C 81.4 40.7, 79.3 20.8, 93.0 31.2 C 97.1 14.6, 19.5 57.9, 8.7 67.9 C 0.0 79.1, 73.6 66.9, 66.7 64.7 C 69.1 46.9, 39.0 36.7, 34.7 27.2 Z" fill="hsl(104, 72%, 65%)" fill-opacity="0.89" stroke="none" stroke-width="3.48" filter="url(#f1)" transform="translate(74.9 17.8) rotate(121.4) scale(1.50 1.20)" />
<path d="M 19.1 92.6 C 4.7 96.6, 93.9 68.8, 89.8 80.3 C 98.6 73.4, 0.0 63.2, 5.2 50.1 C 23.5 46.9, 66.4 49.5, 66.7 54.3 C 74.1 40.8, 0.0 0.0, 1.5 10.5 C 0.0 0.0, 27.1 59.0, 36.4 63.2 C 45.5 76.4, 83.8 84.5, 92.7 78.3 C 77.6 98.3, 51.3 44.2, 41.4 43.7 C 48.3 24.5, 18.6 75.2, 22.2 61.7 C 6.5 44.7, 80.3 11.0, 75.4 16.2 Z" fill="hsl(106, 75%, 59%)" fill-opacity="0.49" stroke="none" stroke-width="2.89"  transform="translate(30.2 24.4) rotate(142.3) scale(0.64 0.51)" />
<path d="M 14.4 71.6 C 23.6 73.8, 24.2 35.0, 34.5 35.2 C 31.5 50.8, 35.8 34.4, 22.6 37.4 C 27.4 42.8, 70.5 51.7, 58.7 45.3 C 41.4 49.2, 16.9 8.8, 5.3 18.4 C 12.2 2.4, 71.9 78.8, 65.6 92.6 C 61.1 98.7, 45.6 44.9, 55.6 50.0 C 57.2 54.3, 7.8 32.9, 19.0 35.1 Z" fill="hsl(151, 70%, 62%)" fill-opacity="0.74" stroke="none" stroke-width="2.72"   />
<rect x="22.1" y="79.0" width="47.7" height="14.8" rx="0.0" fill="none" fill-opacity="0.85"   transform="translate(13.3 91.1) rotate(270.5) scale(0.74 0.76)" />
<path d="M 48.4 24.0 C 53.7 12.3, 72.5 51.7, 62.4 49.1 C 47.2 40.2, 37.9 73.0, 43.8 80.5 C 33.5 73.4, 86.1 12.4, 81.8 18.8 C 97.5 20.5, 53.2 20.6, 50.4 5.9 C 47.4 24.2, 100.0 15.9, 96.1 13.7 C 78.9 15.4, 7.9 2.2, 21.8 6.4 C 25.9 9.2, 36.3 1.5, 43.3 16.2 C 55.9 35.6, 79.7 68.2, 93.9 75.7 C 82.0 68.7, 100.0 46.0, 90.7 32.8 Z" fill="none" fill-opacity="0.69" stroke="hsl(183, 71%, 60%)" stroke-width="4.26"  transform="translate(88.6 56.8) rotate(271.4) scale(1.64 1.67)" />
<rect x="18.8" y="0.9" width="30.3" height="11.8" rx="0" fill="hsl(183, 71%, 60%)" fill-opacity="0.51"   transform="translate(52.2 2.4) rotate(82.3) scale(0.79 1.55)" />
<circle cx="33.3" cy="84.2" r="0.9" fill="hsl(2, 82%, 55%)" fill-opacity="0.40" filter="url(#f1)" transform="translate(99.4 82.5) rotate(55.3) scale(0.85 1.99)" />
<rect x="15.5" y="57.6" width="49.1" height="26.7" rx="0" fill="none" fill-opacity="0.26"  filter="url(#f1)" transform="translate(28.3 58.4) rotate(277.8) scale(1.21 0.53)" />
<path d="M 56.9 22.0 C 47.4 26.0, 100.0 66.1, 99.4 79.1 C 90.0 98.7, 60.6 100.0, 54.8 93.9 C 68.7 87.9, 27.1 72.2, 32.9 68.4 C 17.3 63.0, 74.6 80.8, 78.4 77.0 C 73.5 64.9, 45.6 66.6, 31.8 65.1 C 18.8 51.6, 25.4 46.1, 24.8 57.4 C 7.8 60.2, 10.7 21.9, 16.7 22.4 C 26.3 14.0, 49.7 25.3, 45.3 35.3 C 59.3 36.4, 65.2 62.4, 76.6 56.4 Z" fill="none" fill-opacity="0.92" stroke="hsl(242, 72%, 49%)" stroke-width="2.70"  transform="translate(90.9 25.7) rotate(173.2) scale(1.08 1.02)" />
<path d="M 53.8 36.0 C 68.3 38.6, 99.7 37.2, 91.2 36.8 C 100.0 19.8, 64.2 64.3, 64.1 58.5 C 83.4 68.4, 28.0 32.7, 28.8 22.5 C 34.5 36.2, 28.9 15.6, 43.8 14.9 C 49.1 25.4, 42.1 62.4, 30.4 56.7 C 32.9 38.2, 16.1 2.8, 18.3 0.3 C 32.0 4.3, 60.0 5.8, 53.5 18.8 C 62.2 29.4, 51.2 92.3, 54.1 97.9 C 57.0 100.0, 6.5 66.6, 8.6 67.6 C 15.0 50.3, 42.4 88.0, 40.2 87.3 " fill="hsl(2, 82%, 55%)" fill-opacity="0.34" stroke="none" stroke-width="3.81"  transform="translate(89.9 50.2) rotate(298.8) scale(1.63 0.69)" />
<rect x="10.0" y="63.7" width="27.4" height="31.4" rx="8.4" fill="hsl(106, 75%, 59%)" fill-opacity="0.67"  filter="url(#f1)" transform="translate(18.3 19.2) rotate(319.0) scale(1.33 0.62)" />
<circle cx="47.1" cy="38.6" r="2.5" fill="hsl(83, 65%, 44%)" fill-opacity="0.52"  transform="translate(75.6 42.4) rotate(282.6) scale(1.03 1.23)" />
<rect x="23.0" y="67.4" width="40.2" height="12.4" rx="0" fill="hsl(322, 74%, 44%)" fill-opacity="0.37" stroke="hsl(183, 71%, 60%)" stroke-width="4.4"  transform="translate(38.8 96.1) rotate(8.2) scale(1.40 1.81)" />
<circle cx="40.8" cy="92.2" r="4.7" fill="hsl(106, 75%, 59%)" fill-opacity="0.86"   />
<path d="M 71.6 82.5 C 65.9 71.2, 6.3 59.6, 18.7 71.0 C 1.3 87.3, 50.2 92.6, 42.9 85.2 C 52.1 100.0, 58.6 72.2, 52.4 68.3 C 70.7 76.8, 70.8 43.5, 60.3 47.2 C 50.5 60.2, 27.0 68.2, 22.3 77.6 C 22.3 58.4, 43.3 46.1, 38.9 51.6 C 43.0 60.7, 80.0 85.6, 68.9 89.2 C 64.0 92.9, 61.4 66.6, 71.8 59.1 Z" fill="hsl(106, 75%, 59%)" fill-opacity="0.45" stroke="none" stroke-width="4.37"  transform="translate(79.0 83.7) rotate(332.6) scale(0.56 0.57)" />
<path d="M 32.1 21.8 C 19.3 36.6, 67.0 66.9, 58.5 56.6 C 56.5 69.0, 0.0 39.8, 8.3 53.5 C 25.2 41.9, 42.0 43.3, 56.6 57.2 C 44.6 56.7, 100.0 14.0, 97.2 13.8 C 81.4 2.8, 36.1 97.4, 35.1 99.0 C 30.7 100.0, 20.4 67.7, 7.4 65.3 C 0.0 74.1, 31.1 85.0, 44.1 76.5 C 34.0 65.0, 4.8 19.6, 16.4 20.4 C 30.2 31.4, 100.0 35.7, 94.8 29.8 Z" fill="none" fill-opacity="0.65" stroke="hsl(151, 70%, 62%)" stroke-width="5.28"  transform="translate(33.8 46.7) rotate(202.2) scale(0.97 0.72)" />
<path d="M 42.1 39.4 C 60.7 35.3, 34.9 92.9, 35.3 86.0 C 43.0 100.0, 59.7 44.2, 49.3 30.7 C 66.8 19.7, 22.2 24.4, 10.6 24.0 C 21.2 38.9, 80.5 61.4, 74.6 64.2 C 82.8 72.2, 47.1 78.3, 44.0 75.4 C 33.0 92.0, 58.3 100.0, 47.1 98.5 Z" fill="none" fill-opacity="0.60" stroke="hsl(183, 71%, 60%)" stroke-width="2.22"  transform="translate(94.7 15.8) rotate(337.2) scale(1.77 0.93)" />
<path d="M 61.4 60.8 C 53.4 53.6, 75.0 86.7, 76.4 72.4 C 68.8 90.9, 8.0 80.7, 13.5 82.0 C 30.3 62.8, 24.3 44.9, 30.8 51.1 C 34.5 62.6, 27.7 36.3, 22.9 40.0 C 10.7 31.2, 28.7 96.2, 31.8 94.0 C 29.5 100.0, 0.0 32.8, 9.5 36.3 C 1.0 49.1, 85.7 56.3, 85.2 69.4 C 98.4 80.6, 0.0 19.7, 3.0 20.5 C 3.8 23.5, 8.4 33.0, 1.3 30.0 Z" fill="none" fill-opacity="0.94" stroke="hsl(86, 72%, 68%)" stroke-width="0.88"  transform="translate(22.8 81.3) rotate(88.5) scale(1.79 0.83)" />
<path d="M 58.6 81.1 C 50.9 75.4, 36.1 91.7, 36.5 79.1 C 31.5 97.6, 93.0 4.1, 81.8 17.1 C 97.8 7.5, 100.0 34.8, 94.9 24.9 C 100.0 21.2, 51.7 17.6, 41.3 15.4 C 46.8 0.0, 97.9 38.8, 91.0 46.1 C 78.5 53.8, 83.0 61.8, 70.9 61.7 C 66.2 45.3, 40.0 21.2, 33.8 8.3 C 15.8 0.0, 51.0 77.4, 53.4 85.4 Z" fill="hsl(83, 65%, 44%)" fill-opacity="0.84" stroke="none" stroke-width="1.74"  transform="translate(82.8 67.2) rotate(160.7) scale(0.98 1.32)" />
<path d="M 99.4 89.1 C 100.0 93.6, 100.0 29.7, 93.7 18.2 C 89.9 32.4, 53.0 48.4, 56.1 35.7 C 44.9 32.5, 0.0 77.2, 3.7 68.6 C 17.9 81.4, 61.7 70.3, 67.2 62.4 C 69.6 76.4, 41.8 23.7, 48.6 38.0 C 38.9 24.9, 29.1 22.0, 20.5 33.1 Z" fill="hsl(104, 72%, 65%)" fill-opacity="0.56" stroke="none" stroke-width="3.90" filter="url(#f1)" transform="translate(83.5 59.1) rotate(38.3) scale(1.16 0.60)" />
<path d="M 15.8 50.9 C 24.6 66.7, 46.4 75.9, 45.7 62.8 C 51.1 80.3, 83.7 14.7, 79.1 9.4 C 87.1 0.0, 93.2 69.9, 82.1 57.9 C 100.0 42.0, 12.6 54.1, 24.1 64.3 C 10.9 53.4, 70.0 62.7, 56.7 67.7 C 69.9 87.4, 93.9 33.4, 93.4 45.0 Z" fill="none" fill-opacity="0.35" stroke="hsl(242, 72%, 49%)" stroke-width="4.75" filter="url(#f1)" transform="translate(19.6 96.6) rotate(132.0) scale(0.54 0.84)" />
<circle cx="25.3" cy="67.1" r="7.2" fill="url(#g2)" fill-opacity="0.48" filter="url(#f1)" transform="translate(78.3 52.8) rotate(298.9) scale(1.24 1.98)" />
<path d="M 58.5 58.4 C 74.8 49.5, 34.4 82.0, 35.4 96.0 C 30.6 100.0, 41.5 71.4, 41.2 76.8 C 38.4 76.3, 96.7 67.6, 87.9 80.4 C 94.4 84.4, 89.9 53.7, 85.7 44.8 C 78.0 36.5, 31.8 3.0, 39.9 14.7 C 57.0 12.3, 62.9 22.8, 66.8 36.2 Z" fill="hsl(86, 72%, 68%)" fill-opacity="0.65" stroke="none" stroke-width="5.03"  transform="translate(39.1 4.1) rotate(60.0) scale(1.95 0.92)" />
<rect x="9.7" y="6.8" width="26.1" height="33.1" rx="11.9" fill="hsl(151, 70%, 62%)" fill-opacity="0.89" stroke="hsl(151, 70%, 62%)" stroke-width="2.6"  transform="translate(16.0 7.1) rotate(140.8) scale(1.24 1.66)" />
<rect x="2.7" y="35.2" width="43.5" height="11.6" rx="16.9" fill="hsl(2, 82%, 55%)" fill-opacity="0.22"   transform="translate(99.0 12.7) rotate(116.2) scale(0.54 0.99)" />
<path d="M 98.4 63.6 C 100.0 58.2, 18.9 94.8, 15.4 91.1 C 10.8 79.3, 12.0 19.6, 19.8 15.1 C 7.4 0.0, 45.5 85.5, 60.1 85.0 C 63.6 88.8, 20.6 23.5, 24.7 19.7 C 23.4 28.6, 9.8 100.0, 18.5 96.4 C 22.4 100.0, 76.3 86.1, 68.4 97.1 C 62.6 87.0, 69.7 71.0, 61.7 72.4 Z" fill="none" fill-opacity="0.34" stroke="hsl(2, 82%, 55%)" stroke-width="3.35" filter="url(#f1)" transform="translate(98.1 3.8) rotate(209.3) scale(1.53 1.15)" />
<path d="M 42.8 4.1 C 45.4 17.0, 16.1 100.0, 17.8 90.2 C 6.0 99.2, 50.4 46.4, 53.4 36.8 C 47.1 47.4, 17.1 8.6, 17.4 21.9 C 12.3 36.7, 44.6 87.9, 34.9 89.7 C 51.4 100.0, 9.3 0.0, 16.6 7.8 C 34.4 0.4, 39.1 16.7, 25.0 6.8 C 11.4 0.9, 28.0 0.0, 35.0 4.2 C 34.3 0.0, 72.2 10.8, 62.9 25.7 Z" fill="hsl(106, 75%, 59%)" fill-opacity="0.70" stroke="none" stroke-width="5.07"   />
<circle cx="19.0" cy="22.6" r="8.1" fill="url(#g0)" fill-opacity="0.87"   />
<rect x="51.0" y="52.7" width="37.5" height="24.5" rx="8.9" fill="hsl(144, 86%, 72%)" fill-opacity="0.86" stroke="hsl(144, 86%, 72%)" stroke-width="4.4"   />
<path d="M 60.5 30.6 C 73.5 21.1, 41.4 60.2, 41.3 63.5 C 34.3 81.1, 94.0 26.6, 90.6 38.7 C 93.4 22.8, 27.1 73.2, 41.2 62.7 C 39.4 80.5, 65.2 78.3, 78.9 71.3 C 76.4 89.0, 78.1 25.7, 72.5 38.0 C 76.0 37.7, 22.1 12.9, 24.5 14.8 " fill="hsl(144, 86%, 72%)" fill-opacity="0.26" stroke="none" stroke-width="1.54" filter="url(#f1)" transform="translate(4.4 30.7) rotate(332.4) scale(0.74 0.60)" />
<circle cx="84.6" cy="8.2" r="9.1" fill="url(#g1)" fill-opacity="0.84"  transform="translate(37.7 41.9) rotate(98.3) scale(1.93 0.55)" />
<path d="M 73.6 58.2 C 56.0 47.5, 59.8 95.0, 68.6 82.7 C 56.0 99.9, 70.5 76.4, 57.9 88.6 C 65.6 87.8, 43.9 11.8, 33.6 19.8 C 38.8 35.5, 15.0 25.8, 14.8 30.1 C 23.6 15.1, 36.8 0.4, 39.8 14.2 C 42.2 30.8, 88.2 9.6, 84.9 9.3 C 78.0 15.6, 29.7 79.4, 25.9 91.5 Z" fill="hsl(83, 65%, 44%)" fill-opacity="0.73" stroke="none" stroke-width="4.76"   />
<path d="M 50.6 22.0 C 32.4 40.5, 32.2 49.9, 31.4 54.8 C 40.2 45.2, 14.0 38.5, 18.8 41.2 C 0.0 54.3, 12.3 82.7, 11.1 95.1 C 0.0 99.5, 95.5 68.3, 96.8 63.1 C 100.0 70.9, 71.6 63.0, 58.4 55.0 C 56.7 43.2, 64.7 27.3, 58.7 41.0 C 75.1 44.6, 80.0 0.0, 79.1 2.6 C 60.5 4.0, 52.2 10.2, 63.6 10.6 Z" fill="hsl(2, 82%, 55%)" fill-opacity="0.49" stroke="none" stroke-width="4.09" filter="url(#f1)" transform="translate(36.9 32.3) rotate(69.0) scale(1.79 1.75)" />
<path d="M 93.8 61.9 C 92.2 51.4, 0.0 16.6, 2.6 6.3 C 13.2 4.8, 53.8 16.3, 43.8 28.2 C 54.3 26.3, 21.3 45.1, 20.7 50.2 C 32.1 56.7, 0.0 91.5, 2.4 79.9 C 0.0 86.7, 66.4 5.2, 78.4 19.6 C 75.4 18.5, 14.6 93.1, 13.8 98.8 C 23.7 84.5, 43.0 15.5, 47.9 9.2 C 33.0 23.2, 39.7 25.0, 25.5 28.2 C 43.3 31.7, 85.6 16.6, 97.0 7.2 Z" fill="hsl(322, 74%, 44%)" fill-opacity="0.28" stroke="none" stroke-width="3.90"  transform="translate(59.3 94.6) rotate(16.1) scale(0.91 1.81)" />
<circle cx="7.0" cy="47.8" r="6.7" fill="hsl(183, 71%, 60%)" fill-opacity="0.92"  transform="translate(71.2 65.4) rotate(185.5) scale(0.61 1.29)" />
<path d="M 82.0 11.4 C 72.1 5.1, 10.1 42.0, 25.0 35.5 C 9.5 45.3, 81.5 45.1, 86.5 45.6 C 100.0 32.5, 20.9 0.0, 26.5 1.2 C 20.7 10.8, 37.0 100.0, 28.5 96.8 C 9.9 81.8, 0.0 85.4, 4.1 84.2 C 0.0 70.7, 33.2 89.7, 21.0 97.8 Z" fill="hsl(183, 71%, 60%)" fill-opacity="0.98" stroke="none" stroke-width="3.51"  transform="translate(74.0 3.3) rotate(83.2) scale(1.72 0.91)" />
<rect x="23.7" y="36.1" width="39.0" height="27.3" rx="18.9" fill="hsl(104, 72%, 65%)" fill-opacity="0.27"   transform="translate(46.2 74.7) rotate(147.2) scale(0.80 1.13)" />
<rect x="71.1" y="49.1" width="21.6" height="12.5" rx="0" fill="hsl(86, 72%, 68%)" fill-opacity="0.64" stroke="hsl(86, 72%, 68%)" stroke-width="1.5" filter="url(#f1)" transform="translate(81.2 14.8) rotate(90.5) scale(0.71 0.66)" />
<path d="M 21.7 53.5 C 39.3 46.1, 35.5 53.1, 27.7 49.5 C 34.1 53.2, 38.3 86.0, 32.0 72.1 C 50.1 89.2, 93.5 15.2, 99.2 29.6 C 100.0 18.4, 88.3 68.0, 84.6 64.4 C 92.6 63.7, 27.5 66.0, 37.8 77.1 C 42.2 86.8, 28.6 94.6, 25.4 88.9 " fill="hsl(40, 53%, 69%)" fill-opacity="0.85" stroke="none" stroke-width="4.09"  transform="translate(99.8 45.2) rotate(8.3) scale(0.80 0.93)" />
<path d="M 71.2 25.9 C 78.8 10.6, 67.6 49.5, 65.3 39.1 C 67.0 48.8, 53.1 21.3, 46.6 12.9 C 65.6 26.7, 27.7 62.0, 28.6 51.4 C 43.1 38.3, 17.5 23.6, 25.1 26.8 C 31.1 21.4, 46.1 55.2, 55.5 66.0 C 61.3 83.3, 12.0 0.0, 23.2 4.5 C 20.8 0.0, 76.7 44.6, 70.5 30.2 C 57.5 44.5, 89.2 0.3, 74.9 7.9 Z" fill="none" fill-opacity="0.79" stroke="hsl(242, 72%, 49%)" stroke-width="4.20"  transform="translate(79.9 27.0) rotate(110.6) scale(1.26 1.75)" />
<circle cx="69.4" cy="1.7" r="8.8" fill="hsl(106, 75%, 59%)" fill-opacity="0.85"  transform="translate(0.5 16.0) rotate(98.4) scale(0.73 1.71)" />
<path d="M 53.1 19.8 C 68.2 26.6, 67.1 17.2, 74.0 4.6 C 76.5 24.2, 100.0 88.9, 86.9 78.0 C 87.5 84.5, 43.1 17.5, 47.0 20.7 C 54.0 24.9, 35.2 29.5, 45.2 39.8 C 37.3 49.4, 48.8 73.2, 48.6 72.1 C 31.9 71.6, 61.1 28.3, 60.9 36.0 C 71.9 45.4, 71.4 56.6, 57.0 53.0 C 59.4 55.7, 29.2 53.6, 26.2 47.4 Z" fill="none" fill-opacity="0.79" stroke="hsl(83, 65%, 44%)" stroke-width="4.66"  transform="translate(4.5 25.5) rotate(306.7) scale(1.45 1.11)" />
<rect x="59.9" y="74.5" width="22.0" height="13.9" rx="0" fill="hsl(242, 72%, 49%)" fill-opacity="0.95"  filter="url(#f1)" transform="translate(86.6 43.8) rotate(176.4) scale(1.44 1.90)" />
<circle cx="75.0" cy="57.7" r="6.7" fill="hsl(183, 71%, 60%)" fill-opacity="0.75"  transform="translate(23.1 44.4) rotate(0.6) scale(0.67 1.48)" />
<rect x="53.0" y="21.3" width="37.6" height="36.8" rx="13.4" fill="hsl(242, 72%, 49%)" fill-opacity="0.97" stroke="hsl(242, 72%, 49%)" stroke-width="4.5" filter="url(#f1)" transform="translate(21.0 47.7) rotate(195.6) scale(1.08 1.79)" />
<path d="M 21.6 85.1 C 11.0 80.4, 81.6 13.5, 85.1 0.5 C 77.2 13.3, 25.8 38.1, 38.1 38.9 C 23.2 23.8, 65.1 76.7, 68.9 87.2 C 50.6 99.1, 14.1 69.6, 17.1 63.1 C 12.5 81.1, 90.9 9.6, 84.8 10.9 C 96.1 10.3, 53.4 97.3, 38.7 97.0 Z" fill="none" fill-opacity="0.26" stroke="hsl(106, 75%, 59%)" stroke-width="1.43" filter="url(#f1)" transform="translate(49.3 37.2) rotate(28.0) scale(0.76 1.57)" />
<g opacity="0.044">
<rect x="0" y="0" width="1" height="100" fill="black" />
<rect x="22" y="0" width="1" height="100" fill="black" />
<rect x="44" y="0" width="1" height="100" fill="black" />
<rect x="66" y="0" width="1" height="100" fill="black" />
<rect x="88" y="0" width="1" height="100" fill="black" />
<rect x="0" y="0" width="100" height="1" fill="black" />
<rect x="0" y="22" width="100" height="1" fill="black" />
<rect x="0" y="44" width="100" height="1" fill="black" />
<rect x="0" y="66" width="100" height="1" fill="black" />
<rect x="0" y="88" width="100" height="1" fill="black" />
</g>

</svg>
