<?xml version="1.0" encoding="UTF-8"?>
<svg xmlns="http://www.w3.org/2000/svg" width="100" height="100" viewBox="0 0 100 100">
<defs>
<linearGradient id="g0" x1="0%" y1="0%" x2="100%" y2="100%">
<stop offset="0.0%" stop-color="hsl(106, 75%, 59%)" />
<stop offset="33.3%" stop-color="hsl(183, 71%, 60%)" />
<stop offset="66.7%" stop-color="hsl(242, 72%, 49%)" />
<stop offset="100.0%" stop-color="hsl(322, 74%, 44%)" />
</linearGradient>
<linearGradient id="g1" x1="0%" y1="0%" x2="100%" y2="100%">
<stop offset="0.0%" stop-color="hsl(290, 83%, 63%)" />
<stop offset="33.3%" stop-color="hsl(2, 82%, 55%)" />
<stop offset="66.7%" stop-color="hsl(86, 72%, 68%)" />
<stop offset="100.0%" stop-color="hsl(83, 65%, 44%)" />
</linearGradient>
<linearGradient id="g2" x1="0%" y1="0%" x2="100%" y2="100%">
<stop offset="0.0%" stop-color="hsl(40, 53%, 69%)" />
<stop offset="33.3%" stop-color="hsl(104, 72%, 65%)" />
<stop offset="66.7%" stop-color="hsl(144, 86%, 72%)" />
<stop offset="100.0%" stop-color="hsl(151, 70%, 62%)" />
</linearGradient>
<filter id="f1" x="-20%" y="-20%" width="140%" height="140%">
  <feGaussianBlur stdDeviation="2.4637066936391356" />
</filter>

</defs>

<path d="M 98.0 91.6 C 98.2 100.0, 3.0 48.0, 9.2 59.4 C 6.1 50.3, 24.1 0.0, 31.4 0.7 C 26.6 13.6, 45.9 33.0, 55.0 43.2 C 72.9 27.5, 17.8 100.0, 18.2 89.7 C 14.3 100.0, 35.4 32.1, 41.9 20.2 C 50.7 7.9, 12.9 23.0, 19.8 20.8 Z" fill="none" fill-opacity="0.33" stroke="hsl(2, 82%, 55%)" stroke-width="1.48"   />
<rect x="30.9" y="46.3" width="31.0" height="14.3" rx="5.4" fill="none" fill-opacity="0.74" stroke="hsl(322, 74%, 44%)" stroke-width="1.2"  transform="translate(77.4 57.0) rotate(271.4) scale(1.85 1.50)" />
<path d="M 22.0 91.0 C 26.7 73.7, 75.3 37.2, 64.0 46.0 C 73.7 50.4, 17.0 22.1, 6.1 37.1 C 0.0 36.1, 86.6 34.5, 90.9 47.5 C 100.0 63.1, 73.7 20.5, 80.5 30.6 C 81.5 31.0, 97.7 2.3, 94.0 12.6 C 86.8 28.7, 79.3 48.5, 75.0 35.3 Z" fill="hsl(40, 53%, 69%)" fill-opacity="0.72" stroke="none" stroke-width="4.53"  transform="translate(40.4 7.8) rotate(174.6) scale(1.55 1.97)" />
<rect x="20.5" y="16.0" width="35.6" height="20.1" rx="3.8" fill="hsl(242, 72%, 49%)" fill-opacity="0.45" stroke="hsl(322, 74%, 44%)" stroke-width="4.2"   />
<path d="M 72.6 35.5 C 78.9 25.2, 87.4 87.4, 73.3 93.9 C 83.9 100.0, 80.1 59.2, 76.0 61.8 C 71.0 63.3, 10.1 9.9, 8.0 8.8 C 27.9 20.1, 66.1 33.3, 71.6 41.4 C 81.8 23.0, 55.0 24.2, 42.7 37.5 C 43.1 33.9, 88.7 85.0, 77.7 89.4 C 67.4 82.6, 27.2 55.4, 15.3 62.7 C 11.7 46.0, 62.0 80.7, 67.2 73.6 C 62.6 68.6, 81.0 97.9, 69.3 84.9 C 64.5 100.0, 56.7 54.5, 43.8 50.1 Z" fill="none" fill-opacity="0.91" stroke="hsl(83, 65%, 44%)" stroke-width="3.26"  transform="translate(34.9 34.2) rotate(92.9) scale(1.03 1.87)" />
<path d="M 47.3 80.2 C 48.8 87.2, 13.4 100.0, 18.3 98.5 C 0.2 100.0, 15.5 72.5, 8.8 78.7 C 12.5 84.9, 55.0 32.6, 55.1 46.0 C 62.6 59.3, 39.7 30.7, 34.0 32.4 C 40.8 16.6, 23.7 31.3, 23.5 17.1 C 28.6 2.4, 16.4 66.6, 24.4 67.6 C 22.9 69.4, 67.1 34.8, 63.7 42.6 C 56.4 56.9, 68.5 80.2, 77.4 68.0 Z" fill="hsl(183, 71%, 60%)" fill-opacity="0.84" stroke="none" stroke-width="0.84"  transform="translate(98.0 71.7) rotate(72.5) scale(1.42 0.76)" />
<path d="M 34.6 80.5 C 40.4 67.5, 36.8 100.0, 40.4 99.8 C 32.1 98.6, 74.9 88.6, 81.6 97.9 C 84.4 100.0, 65.7 51.8, 70.9 50.6 C 73.1 41.0, 45.6 0.0, 59.6 1.8 C 71.9 0.0, 49.9 81.4, 60.6 70.4 C 43.2 88.9, 61.8 47.5, 52.4 33.1 Z" fill="none" fill-opacity="0.93" stroke="hsl(290, 83%, 63%)" stroke-width="4.49"  transform="translate(9.6 69.5) rotate(64.0) scale(1.01 0.90)" />
<path d="M 48.5 5.9 C 43.6 13.5, 71.0 17.7, 62.6 32.0 C 50.2 37.7, 71.9 0.0, 79.8 2.1 C 99.2 21.0, 31.8 75.9, 36.7 76.7 C 55.1 76.2, 46.8 57.6, 56.4 69.6 C 65.4 56.0, 47.9 58.8, 53.2 46.0 C 69.3 26.7, 16.4 76.4, 17.3 66.4 C 0.0 60.1, 0.0 14.3, 9.4 6.3 C 0.0 0.0, 42.0 71.2, 28.7 74.4 C 46.2 70.4, 70.6 62.6, 79.0 53.7 C 68.9 61.2, 25.9 54.6, 20.2 43.6 " fill="none" fill-opacity="0.29" stroke="hsl(242, 72%, 49%)" stroke-width="4.40"  transform="translate(57.8 1.8) rotate(317.5) scale(1.41 1.06)" />
<rect x="8.0" y="10.5" width="42.2" height="20.2" rx="0" fill="none" fill-opacity="0.46"   transform="translate(56.8 55.5) rotate(351.7) scale(0.89 1.30)" />
<path d="M 20.9 43.7 C 32.7 47.8, 25.4 76.4, 16.7 64.8 C 2.3 57.3, 33.4 15.9, 25.9 20.5 C 6.7 29.5, 82.5 33.5, 75.3 35.7 C 87.5 21.8, 69.2 0.0, 56.3 4.3 C 37.5 16.1, 42.0 92.0, 53.3 82.1 C 57.0 83.8, 98.8 49.9, 88.9 42.2 C 78.9 26.5, 15.3 100.0, 18.5 91.9 C 34.8 100.0, 65.9 80.6, 60.3 85.3 C 71.2 75.5, 39.1 70.7, 25.0 68.5 " fill="hsl(183, 71%, 60%)" fill-opacity="0.99" stroke="none" stroke-width="4.41"  transform="translate(36.9 95.5) rotate(51.1) scale(1.19 1.15)" />
<path d="M 11.2 84.1 C 26.3 67.3, 23.0 24.6, 10.6 27.7 C 0.1 37.7, 56.7 89.3, 67.2 88.5 C 52.6 92.0, 89.4 69.7, 74.6 57.3 C 61.0 40.5, 15.8 89.6, 2.5 99.1 C 9.1 93.1, 100.0 73.4, 90.9 77.9 C 100.0 75.7, 8.8 73.4, 19.1 58.8 C 20.5 63.4, 9.2 44.0, 5.2 57.8 C 24.7 50.8, 51.7 77.9, 58.5 82.2 C 66.9 86.9, 0.0 0.0, 1.5 7.2 Z" fill="hsl(106, 75%, 59%)" fill-opacity="0.87" stroke="none" stroke-width="1.46"  transform="translate(53.1 99.7) rotate(33.7) scale(0.86 0.81)" />
<rect x="59.1" y="33.6" width="37.4" height="33.6" rx="0" fill="none" fill-opacity="0.22"   transform="translate(81.2 80.1) rotate(271.3) scale(1.84 1.01)" />
<path d="M 69.8 43.2 C 61.5 24.8, 9.8 89.2, 12.5 74.7 C 10.1 67.5, 0.0 95.6, 6.5 84.3 C 4.2 78.5, 75.2 49.5, 71.2 54.2 C 84.8 47.4, 0.9 55.9, 8.3 56.3 C 0.0 50.5, 84.8 72.1, 73.4 86.9 C 58.2 67.5, 0.0 43.3, 3.5 41.8 C 4.5 28.8, 75.7 4.0, 63.4 2.6 C 77.0 0.0, 0.0 10.2, 11.0 9.0 C 17.8 21.6, 8.4 79.6, 20.7 84.4 Z" fill="hsl(104, 72%, 65%)" fill-opacity="0.65" stroke="none" stroke-width="2.98"  transform="translate(63.0 26.0) rotate(271.6) scale(1.74 1.27)" />
<rect x="14.3" y="68.6" width="29.8" height="17.4" rx="0" fill="hsl(183, 71%, 60%)" fill-opacity="0.34"   transform="translate(7.7 69.8) rotate(277.4) scale(1.34 1.02)" />
<circle cx="8.8" cy="72.5" r="6.4" fill="hsl(83, 65%, 44%)" fill-opacity="0.62"   />
<path d="M 86.3 82.7 C 98.5 98.0, 32.9 81.3, 34.4 68.8 C 45.3 53.8, 18.5 53.4, 24.7 60.8 C 14.3 48.0, 100.0 45.3, 97.9 43.9 C 100.0 57.7, 23.5 14.0, 25.3 12.7 C 23.2 22.0, 100.0 97.4, 87.2 98.8 C 85.1 85.6, 34.8 94.3, 47.0 97.0 " fill="hsl(144, 86%, 72%)" fill-opacity="0.29" stroke="none" stroke-width="1.25"  transform="translate(52.4 80.5) rotate(259.2) scale(1.02 1.47)" />
<path d="M 9.8 32.5 C 1.9 48.3, 40.0 10.1, 39.0 12.3 C 25.9 6.4, 28.5 92.4, 20.9 91.3 C 24.2 94.8, 75.7 68.9, 86.5 59.1 C 90.0 47.7, 13.1 100.0, 20.5 96.1 C 20.8 87.4, 33.5 43.8, 38.7 44.9 C 40.0 60.1, 30.7 91.2, 35.2 95.4 C 20.3 93.3, 97.0 64.1, 82.4 49.5 Z" fill="hsl(104, 72%, 65%)" fill-opacity="0.91" stroke="none" stroke-width="1.20"  transform="translate(67.2 26.2) rotate(348.7) scale(1.20 1.20)" />
<circle cx="22.4" cy="33.2" r="2.0" fill="hsl(86, 72%, 68%)" fill-opacity="0.65" filter="url(#f1)" transform="translate(47.0 80.9) rotate(168.6) scale(1.16 1.30)" />
<rect x="0.9" y="52.2" width="43.2" height="22.4" rx="0" fill="hsl(86, 72%, 68%)" fill-opacity="0.84" stroke="hsl(83, 65%, 44%)" stroke-width="2.6"  transform="translate(78.6 13.2) rotate(195.0) scale(1.29 1.43)" />
<path d="M 11.1 95.7 C 8.6 99.7, 91.7 75.2, 89.5 82.2 C 74.5 80.7, 89.0 10.8, 90.3 4.3 C 76.9 0.0, 20.7 88.8, 16.0 84.2 C 7.0 97.7, 96.4 30.7, 93.7 27.9 C 89.5 46.5, 22.8 94.8, 22.1 88.2 C 10.9 76.6, 42.3 52.1, 38.1 39.3 C 27.1 56.4, 12.6 23.2, 9.1 18.6 C 3.3 10.3, 89.9 35.0, 79.3 48.3 C 97.1 56.2, 46.9 17.6, 59.5 24.8 Z" fill="hsl(322, 74%, 44%)" fill-opacity="0.76" stroke="none" stroke-width="4.71"  transform="translate(31.7 2.4) rotate(215.5) scale(0.85 0.97)" />
<path d="M 75.1 42.4 C 58.8 51.3, 61.1 45.1, 59.9 40.0 C 59.1 50.5, 46.3 88.4, 36.9 95.0 C 17.4 99.6, 21.2 39.7, 30.9 46.1 C 24.8 30.5, 83.7 92.1, 88.3 93.6 C 81.5 100.0, 88.0 28.1, 93.4 13.2 C 74.0 3.2, 85.9 63.7, 92.6 74.3 C 100.0 94.3, 26.0 13.3, 23.6 10.5 C 9.3 18.1, 16.6 92.7, 2.3 87.4 C 2.4 89.1, 64.7 65.7, 71.7 64.6 C 56.1 45.5, 73.3 0.0, 59.3 1.8 Z" fill="hsl(2, 82%, 55%)" fill-opacity="0.49" stroke="none" stroke-width="2.07"  transform="translate(27.8 77.7) rotate(223.7) scale(0.84 1.22)" />
<rect x="27.6" y="56.4" width="36.8" height="20.1" rx="18.4" fill="hsl(83, 65%, 44%)" fill-opacity="0.45" stroke="hsl(2, 82%, 55%)" stroke-width="2.8"  transform="translate(41.4 29.9) rotate(303.3) scale(1.47 0.78)" />
<rect x="3.6" y="49.7" width="25.2" height="34.4" rx="14.6" fill="hsl(151, 70%, 62%)" fill-opacity="0.50" stroke="hsl(104, 72%, 65%)" stroke-width="4.2" filter="url(#f1)" transform="translate(27.4 99.2) rotate(156.4) scale(0.50 1.80)" />
<rect x="48.3" y="34.8" width="40.1" height="15.5" rx="0" fill="none" fill-opacity="0.98" stroke="hsl(2, 82%, 55%)" stroke-width="3.7"  transform="translate(43.6 31.3) rotate(221.4) scale(1.55 1.33)" />
<path d="M 15.2 97.6 C 15.6 91.3, 92.2 34.1, 82.5 35.3 C 65.7 20.1, 42.5 48.3, 27.7 41.6 C 32.3 47.8, 3.9 84.9, 18.3 93.1 C 24.9 100.0, 98.5 59.3, 95.0 66.8 C 98.6 75.9, 26.4 65.5, 23.2 62.0 C 22.7 68.6, 22.7 95.5, 11.4 84.3 C 17.4 82.7, 29.8 7.6, 37.3 4.6 Z" fill="hsl(40, 53%, 69%)" fill-opacity="0.61" stroke="none" stroke-width="1.41" filter="url(#f1)" transform="translate(7.2 83.6) rotate(186.4) scale(1.91 1.58)" />
<circle cx="45.6" cy="27.3" r="3.1" fill="url(#g0)" fill-opacity="0.75"  transform="translate(82.8 49.1) rotate(6.7) scale(1.31 1.14)" />
<path d="M 59.8 20.9 C 43.8 5.0, 35.1 0.5, 41.0 1.7 C 32.5 18.1, 49.4 67.7, 38.5 71.4 C 28.0 84.5, 82.6 18.1, 80.2 13.7 C 81.1 33.5, 19.1 39.5, 12.9 45.7 C 8.5 44.6, 22.2 100.0, 10.6 98.4 C 1.1 81.3, 27.4 44.8, 30.6 30.6 Z" fill="hsl(104, 72%, 65%)" fill-opacity="0.74" stroke="none" stroke-width="2.93"  transform="translate(91.1 62.0) rotate(220.6) scale(1.35 0.57)" />
<path d="M 23.8 28.0 C 15.8 12.6, 13.8 53.0, 15.3 61.6 C 24.6 44.5, 0.0 31.4, 6.6 28.3 C 0.0 47.8, 89.3 80.0, 89.7 65.5 C 70.8 53.4, 84.8 58.2, 86.2 65.0 C 100.0 84.7, 54.8 86.7, 67.0 84.9 C 66.1 94.6, 69.7 20.4, 79.5 32.5 C 90.5 44.7, 6.9 78.4, 6.2 74.7 C 0.0 72.9, 50.0 83.1, 58.3 83.3 C 56.9 100.0, 77.5 43.9, 71.1 33.8 C 53.0 14.7, 2.5 33.1, 0.2 31.9 " fill="hsl(183, 71%, 60%)" fill-opacity="0.68" stroke="none" stroke-width="3.00"   />
<rect x="53.8" y="18.5" width="20.9" height="38.0" rx="0" fill="none" fill-opacity="0.95"   transform="translate(67.9 47.2) rotate(342.7) scale(1.30 1.11)" />
<path d="M 43.8 61.0 C 63.5 76.0, 49.2 0.0, 48.2 7.7 C 58.0 15.0, 24.0 64.0, 32.8 73.3 C 35.2 58.3, 39.3 50.5, 27.6 47.4 C 32.2 28.6, 69.1 91.9, 70.2 90.9 C 53.1 95.5, 36.5 100.0, 34.8 86.7 C 20.4 88.8, 34.8 49.8, 31.1 36.9 C 29.8 29.7, 18.2 41.8, 23.7 44.3 C 40.4 32.4, 77.4 55.1, 83.9 41.4 C 100.0 49.7, 73.7 5.9, 66.9 13.0 C 86.2 0.0, 47.3 44.8, 33.9 34.3 Z" fill="none" fill-opacity="0.66" stroke="hsl(2, 82%, 55%)" stroke-width="1.25"  transform="translate(68.4 34.4) rotate(303.3) scale(1.01 1.94)" />
<path d="M 34.5 9.1 C 22.7 13.2, 15.2 20.1, 26.6 6.2 C 34.6 12.0, 15.7 50.1, 27.4 52.8 C 19.2 34.7, 20.5 12.4, 5.6 18.7 C 0.0 7.4, 83.2 71.0, 72.8 82.3 C 67.3 98.1, 56.1 0.0, 61.4 1.8 C 58.9 0.0, 40.7 32.3, 33.7 24.6 C 34.5 19.2, 11.8 100.0, 26.0 97.9 C 29.5 85.7, 59.2 53.8, 60.4 58.4 C 53.7 61.3, 63.3 42.3, 64.4 29.9 Z" fill="hsl(322, 74%, 44%)" fill-opacity="0.99" stroke="none" stroke-width="2.18"   />
<circle cx="16.6" cy="57.1" r="2.0" fill="hsl(151, 70%, 62%)" fill-opacity="0.57"  transform="translate(15.3 19.6) rotate(156.1) scale(1.99 1.21)" />
<circle cx="96.7" cy="22.5" r="4.7" fill="hsl(83, 65%, 44%)" fill-opacity="0.49"   />
<circle cx="53.0" cy="96.3" r="4.7" fill="url(#g1)" fill-opacity="0.51"  transform="translate(30.3 79.5) rotate(155.0) scale(0.63 1.32)" />
<path d="M 49.9 55.6 C 39.7 53.7, 81.6 75.3, 75.2 75.8 C 70.5 64.7, 13.1 100.0, 16.6 96.5 C 13.5 81.4, 16.1 56.5, 8.1 47.0 C 0.0 50.5, 82.9 59.7, 91.9 59.2 C 75.4 76.6, 2.5 24.9, 15.8 33.5 C 16.8 24.3, 0.6 69.1, 15.4 57.6 C 31.2 39.1, 25.2 48.1, 31.5 55.6 Z" fill="hsl(2, 82%, 55%)" fill-opacity="0.62" stroke="none" stroke-width="4.85"  transform="translate(7.2 83.3) rotate(153.0) scale(1.98 1.48)" />
<path d="M 12.7 8.3 C 1.2 14.0, 30.8 31.8, 39.1 28.7 C 39.5 43.9, 31.3 35.7, 32.4 32.6 C 31.2 38.4, 82.2 10.3, 84.3 4.7 C 79.3 0.0, 58.0 55.7, 48.0 60.1 C 47.8 74.8, 54.5 17.5, 51.4 15.0 C 63.1 33.2, 61.8 32.7, 57.8 19.1 C 39.7 4.9, 77.2 16.7, 63.2 28.9 " fill="none" fill-opacity="0.37" stroke="hsl(106, 75%, 59%)" stroke-width="3.67"  transform="translate(82.4 44.6) rotate(28.9) scale(0.74 1.45)" />
<path d="M 9.0 79.4 C 1.9 60.0, 84.6 49.1, 80.2 48.0 C 64.1 55.7, 97.1 74.9, 84.6 66.7 C 100.0 49.1, 78.8 0.0, 85.4 2.5 C 95.3 0.0, 96.7 100.0, 82.0 93.0 C 71.1 100.0, 16.9 25.9, 29.9 16.7 C 29.6 7.4, 17.1 87.2, 14.2 93.9 C 16.9 100.0, 1.7 6.9, 0.9 6.2 Z" fill="hsl(83, 65%, 44%)" fill-opacity="0.47" stroke="none" stroke-width="2.01"  transform="translate(5.1 83.9) rotate(264.8) scale(0.81 1.63)" />
<path d="M 8.2 74.2 C 2.1 81.5, 1.5 79.0, 7.4 93.4 C 5.9 81.7, 46.8 40.1, 59.6 32.9 C 68.1 51.6, 80.5 56.4, 83.8 43.2 C 80.0 48.6, 87.8 45.8, 90.5 46.4 C 81.8 59.2, 24.6 41.3, 32.6 43.6 C 47.9 28.7, 95.4 62.0, 91.0 64.8 C 77.6 82.2, 87.4 76.7, 94.8 72.9 Z" fill="hsl(183, 71%, 60%)" fill-opacity="0.99" stroke="none" stroke-width="4.28"  transform="translate(55.2 11.0) rotate(292.5) scale(1.40 0.80)" />
<circle cx="91.5" cy="13.1" r="3.2" fill="url(#g0)" fill-opacity="0.93" filter="url(#f1)" transform="translate(41.3 80.0) rotate(72.1) scale(1.26 1.81)" />
<circle cx="57.1" cy="53.0" r="4.0" fill="hsl(40, 53%, 69%)" fill-opacity="0.91"  transform="translate(30.5 64.7) rotate(321.3) scale(1.37 1.29)" />
<rect x="15.3" y="71.1" width="45.1" height="12.3" rx="0" fill="hsl(86, 72%, 68%)" fill-opacity="0.44"   transform="translate(70.1 93.5) rotate(247.0) scale(0.52 0.84)" />
<path d="M 61.5 1.6 C 43.3 15.7, 43.8 12.7, 35.0 17.7 C 49.6 30.0, 22.5 49.5, 37.2 45.1 C 34.6 57.1, 54.2 0.0, 66.2 9.3 C 68.3 11.9, 77.5 15.3, 76.7 22.7 C 72.9 39.9, 22.1 0.0, 23.6 6.3 C 21.7 23.0, 6.4 48.9, 8.7 54.9 C 0.0 45.2, 95.2 88.9, 84.3 81.8 C 98.5 82.8, 52.1 8.1, 42.7 18.7 Z" fill="none" fill-opacity="0.62" stroke="hsl(242, 72%, 49%)" stroke-width="1.94"  transform="translate(59.1 82.6) rotate(125.4) scale(0.57 1.28)" />
<rect x="31.2" y="56.0" width="49.9" height="12.0" rx="0" fill="none" fill-opacity="0.62" stroke="hsl(40, 53%, 69%)" stroke-width="1.4"  transform="translate(43.9 60.1) rotate(340.2) scale(1.56 1.14)" />
<circle cx="66.2" cy="39.2" r="6.6" fill="hsl(183, 71%, 60%)" fill-opacity="0.43"  transform="translate(49.3 11.9) rotate(155.0) scale(0.83 1.73)" />
<path d="M 40.5 52.0 C 43.5 57.8, 100.0 50.3, 98.8 62.3 C 89.7 66.2, 0.0 0.0, 5.7 9.3 C 24.2 28.3, 91.3 70.0, 97.7 75.6 C 80.0 57.1, 37.5 82.7, 35.6 71.5 C 51.4 61.4, 83.5 77.8, 86.4 81.4 C 81.5 93.5, 83.5 25.8, 73.2 35.3 C 64.4 36.8, 0.0 26.0, 1.2 38.3 C 0.0 39.8, 47.7 100.0, 54.3 95.1 C 52.2 86.5, 0.0 71.8, 1.2 58.0 Z" fill="none" fill-opacity="0.65" stroke="hsl(106, 75%, 59%)" stroke-width="1.56"  transform="translate(61.6 98.2) rotate(35.4) scale(1.98 0.78)" />
<path d="M 33.6 94.6 C 48.2 79.2, 20.1 62.6, 23.4 63.8 C 33.8 56.1, 60.4 48.4, 73.9 58.5 C 59.9 63.8, 79.4 54.9, 73.6 46.5 C 91.7 49.7, 36.8 40.3, 29.7 46.1 C 16.2 28.4, 0.0 2.8, 5.7 13.8 C 20.8 5.6, 89.8 45.9, 88.5 51.9 C 69.7 40.9, 43.5 72.0, 51.7 81.7 C 34.2 91.7, 100.0 70.3, 94.8 73.1 C 78.6 91.9, 35.9 100.0, 46.4 95.5 Z" fill="hsl(183, 71%, 60%)" fill-opacity="0.58" stroke="none" stroke-width="3.49"  transform="translate(46.0 13.9) rotate(107.9) scale(0.67 1.73)" />
<path d="M 52.1 92.6 C 42.1 78.1, 17.1 20.8, 18.5 34.0 C 5.4 38.1, 52.2 49.6, 55.2 58.0 C 43.0 75.9, 92.6 11.6, 83.5 8.6 C 97.9 16.7, 72.5 78.8, 61.5 65.5 C 50.8 55.3, 39.3 97.7, 38.2 95.5 C 44.7 85.7, 69.3 58.2, 80.0 45.0 C 99.4 62.2, 0.0 60.0, 10.2 54.7 C 16.6 42.9, 22.3 69.9, 7.9 59.5 C 0.0 55.7, 34.1 0.0, 29.3 10.3 Z" fill="hsl(322, 74%, 44%)" fill-opacity="0.47" stroke="none" stroke-width="1.03" filter="url(#f1)" transform="translate(25.2 9.2) rotate(337.5) scale(1.70 1.04)" />
<path d="M 85.2 66.6 C 99.0 80.8, 0.0 10.7, 2.0 23.6 C 7.6 40.3, 70.2 85.5, 67.1 92.8 C 65.1 96.4, 12.5 29.9, 17.3 20.8 C 12.5 34.4, 23.9 60.5, 17.6 55.7 C 23.3 73.8, 54.3 58.0, 66.8 53.4 C 67.5 62.7, 68.4 67.7, 60.9 70.5 C 67.6 82.3, 17.3 58.2, 8.7 66.4 C 0.0 68.5, 22.6 48.2, 16.4 59.4 Z" fill="none" fill-opacity="0.38" stroke="hsl(151, 70%, 62%)" stroke-width="4.41"  transform="translate(93.5 54.6) rotate(199.5) scale(0.69 1.95)" />
<path d="M 81.9 65.4 C 84.0 75.5, 66.2 78.2, 70.0 81.7 C 65.0 82.4, 49.6 43.9, 60.8 29.8 C 59.6 47.8, 65.5 44.7, 53.5 49.1 C 62.7 56.8, 36.4 96.5, 30.0 97.7 C 43.0 97.0, 51.8 59.8, 57.7 56.9 C 56.5 45.3, 3.3 71.5, 6.5 56.8 C 0.0 44.5, 100.0 80.1, 96.5 67.6 C 100.0 68.9, 70.5 28.3, 63.6 15.7 C 53.6 29.7, 18.3 89.1, 25.7 82.0 Z" fill="none" fill-opacity="0.30" stroke="hsl(2, 82%, 55%)" stroke-width="4.17"  transform="translate(53.6 55.6) rotate(66.5) scale(1.25 0.53)" />
<rect x="24.6" y="20.1" width="22.0" height="10.3" rx="0.2" fill="hsl(40, 53%, 69%)" fill-opacity="0.60"   transform="translate(20.1 56.7) rotate(46.0) scale(1.10 1.83)" />
<rect x="15.8" y="42.6" width="35.0" height="22.0" rx="0" fill="none" fill-opacity="0.30"   transform="translate(17.6 19.2) rotate(250.0) scale(1.80 1.85)" />
<rect x="10.3" y="41.2" width="40.6" height="29.1" rx="0" fill="hsl(86, 72%, 68%)" fill-opacity="0.77" stroke="hsl(86, 72%, 68%)" stroke-width="3.8"  transform="translate(33.4 85.3) rotate(306.9) scale(0.98 0.94)" />
<path d="M 4.6 51.9 C 3.4 41.9, 8.8 28.5, 0.2 41.6 C 13.8 59.2, 0.0 78.5, 1.7 93.5 C 6.7 85.0, 49.8 36.2, 47.7 39.3 C 63.5 31.7, 48.0 79.6, 47.5 83.3 C 48.5 64.9, 67.6 67.4, 61.5 80.6 C 59.3 94.8, 77.2 28.6, 91.6 23.2 Z" fill="none" fill-opacity="0.53" stroke="hsl(106, 75%, 59%)" stroke-width="4.89"  transform="translate(90.5 57.7) rotate(187.4) scale(1.74 0.65)" />
<rect x="33.6" y="28.4" width="30.0" height="30.4" rx="16.3" fill="none" fill-opacity="0.61"   transform="translate(1.2 34.1) rotate(237.1) scale(1.01 0.57)" />
<path d="M 98.5 98.3 C 100.0 80.3, 100.0 26.0, 95.5 34.2 C 100.0 19.0, 35.8 0.0, 41.1 0.1 C 45.0 16.6, 59.6 21.7, 62.8 20.7 C 57.6 15.2, 56.8 87.3, 51.1 89.3 C 32.8 74.5, 41.0 75.9, 47.5 73.8 C 43.4 63.4, 86.2 75.9, 89.6 80.0 C 90.8 70.6, 56.2 53.8, 65.3 63.4 C 58.4 67.6, 62.1 34.1, 56.2 47.1 C 55.0 32.7, 39.1 71.8, 47.3 71.4 C 33.2 57.2, 90.3 55.9, 98.7 41.5 Z" fill="none" fill-opacity="0.56" stroke="hsl(2, 82%, 55%)" stroke-width="2.50"  transform="translate(16.0 85.7) rotate(238.5) scale(1.81 1.12)" />
<circle cx="84.8" cy="27.1" r="2.8" fill="hsl(322, 74%, 44%)" fill-opacity="0.57"  transform="translate(37.0 88.7) rotate(193.4) scale(0.83 0.87)" />
<path d="M 70.8 7.5 C 51.6 12.5, 22.3 40.3, 33.1 45.2 C 24.2 59.0, 84.1 74.5, 95.6 67.2 C 100.0 52.0, 44.5 94.5, 48.0 89.6 C 28.7 75.5, 85.8 16.6, 95.3 14.9 C 87.6 23.1, 75.6 52.8, 61.7 51.1 C 47.4 71.0, 72.7 32.0, 64.6 34.1 C 60.8 37.1, 47.9 82.8, 35.4 90.2 " fill="hsl(144, 86%, 72%)" fill-opacity="0.92" stroke="none" stroke-width="1.14" filter="url(#f1)" transform="translate(23.2 95.1) rotate(48.2) scale(0.71 1.63)" />
<rect x="36.2" y="28.2" width="38.9" height="26.5" rx="1.0" fill="hsl(144, 86%, 72%)" fill-opacity="0.37"    />
<circle cx="84.3" cy="4.6" r="6.4" fill="url(#g2)" fill-opacity="0.50"  transform="translate(67.8 75.6) rotate(207.8) scale(1.36 1.57)" />
<path d="M 59.2 37.7 C 68.5 25.6, 64.0 9.0, 72.2 8.6 C 54.8 18.6, 57.2 51.3, 69.1 55.3 C 73.1 64.0, 50.2 10.3, 43.8 5.7 C 31.4 22.3, 61.6 58.5, 75.7 73.2 C 61.4 78.2, 49.7 100.0, 56.9 92.2 C 55.1 95.3, 78.0 30.3, 87.1 29.2 Z" fill="none" fill-opacity="0.64" stroke="hsl(104, 72%, 65%)" stroke-width="2.48"  transform="translate(78.1 56.5) rotate(193.4) scale(1.76 0.71)" />
<circle cx="76.7" cy="0.4" r="10.0" fill="url(#g0)" fill-opacity="0.77" filter="url(#f1)" transform="translate(13.5 27.3) rotate(138.5) scale(0.89 0.78)" />
<path d="M 68.4 88.8 C 70.9 86.5, 92.7 79.2, 87.4 88.5 C 98.8 100.0, 89.1 53.4, 75.1 40.6 C 86.6 26.8, 73.9 45.5, 77.9 32.9 C 58.6 43.3, 24.2 81.2, 31.8 84.1 C 16.0 100.0, 90.4 49.6, 99.2 60.2 C 100.0 69.3, 48.9 56.4, 51.6 62.9 C 50.0 54.7, 87.5 76.4, 93.1 74.0 C 73.2 82.7, 74.3 14.0, 85.4 6.2 C 71.8 19.5, 16.5 39.0, 15.6 53.1 C 24.7 72.4, 26.3 1.0, 23.7 1.1 " fill="hsl(183, 71%, 60%)" fill-opacity="0.39" stroke="none" stroke-width="2.82"  transform="translate(72.8 56.7) rotate(257.1) scale(0.92 0.88)" />
<path d="M 51.0 98.9 C 50.8 84.3, 76.1 15.6, 65.2 20.1 C 57.6 8.9, 62.2 46.4, 71.8 34.5 C 65.0 34.8, 86.4 11.0, 73.9 21.4 C 87.9 37.8, 21.5 48.8, 31.7 36.3 C 34.2 46.0, 88.4 43.1, 80.3 50.9 C 74.2 58.2, 41.8 5.0, 37.2 7.2 Z" fill="none" fill-opacity="0.27" stroke="hsl(2, 82%, 55%)" stroke-width="4.78"  transform="translate(88.6 17.9) rotate(61.4) scale(0.96 1.80)" />
<path d="M 49.8 25.7 C 61.5 43.2, 80.5 14.2, 72.6 10.9 C 59.1 13.9, 95.0 20.7, 86.7 32.8 C 74.1 49.3, 80.5 22.5, 69.4 23.4 C 87.4 22.5, 63.6 37.4, 51.6 26.9 C 41.0 24.4, 21.4 75.3, 29.3 70.5 C 17.9 52.3, 45.0 45.0, 56.2 43.5 C 57.4 47.5, 100.0 16.2, 99.8 22.6 Z" fill="hsl(83, 65%, 44%)" fill-opacity="0.98" stroke="none" stroke-width="4.01"  transform="translate(28.8 50.4) rotate(46.2) scale(1.92 1.71)" />
<path d="M 83.2 10.1 C 86.0 16.4, 56.5 41.1, 51.7 55.7 C 69.1 71.3, 97.7 6.0, 91.4 13.5 C 78.3 0.0, 51.7 67.2, 51.4 67.5 C 40.0 52.8, 27.8 28.2, 21.4 35.2 C 35.2 36.4, 20.1 17.8, 11.3 31.9 C 26.0 35.6, 56.0 13.2, 43.3 13.4 C 33.1 0.0, 17.5 98.0, 22.9 96.7 C 15.8 95.3, 94.3 82.5, 99.1 77.2 C 82.3 76.2, 32.5 11.1, 22.4 18.1 C 40.4 7.6, 99.2 3.5, 95.2 4.9 Z" fill="hsl(322, 74%, 44%)" fill-opacity="0.78" stroke="none" stroke-width="2.74" filter="url(#f1)"  />
<path d="M 73.9 90.1 C 75.4 90.9, 48.5 70.4, 49.6 72.3 C 35.1 55.7, 97.3 18.2, 86.0 15.1 C 85.2 0.0, 93.9 86.2, 93.2 71.7 C 83.2 77.9, 65.8 91.8, 62.6 88.4 C 69.5 98.6, 28.2 61.0, 38.4 54.2 C 21.1 65.2, 92.3 34.0, 89.2 34.7 C 97.8 29.7, 32.7 30.5, 22.4 27.8 Z" fill="none" fill-opacity="0.92" stroke="hsl(183, 71%, 60%)" stroke-width="2.44"  transform="translate(33.3 98.2) rotate(57.5) scale(0.94 0.69)" />
<path d="M 57.6 99.3 C 67.4 100.0, 70.8 43.3, 82.4 50.5 C 87.4 45.8, 24.9 12.5, 28.3 2.6 C 24.1 16.6, 60.7 83.1, 48.0 93.6 C 63.8 100.0, 53.4 4.8, 57.6 16.5 C 45.4 5.3, 5.4 0.0, 16.7 3.5 C 13.1 0.0, 36.3 42.3, 49.5 39.4 C 53.4 32.6, 85.9 66.4, 90.8 53.3 C 78.6 45.0, 74.4 88.0, 60.3 80.0 C 64.4 89.8, 25.1 44.3, 36.0 40.6 C 16.9 40.0, 23.9 21.9, 9.4 33.9 Z" fill="hsl(144, 86%, 72%)" fill-opacity="0.57" stroke="none" stroke-width="4.95"  transform="translate(35.1 38.7) rotate(334.0) scale(0.94 1.34)" />
<rect x="72.0" y="27.4" width="24.7" height="39.4" rx="9.3" fill="none" fill-opacity="0.81" stroke="hsl(290, 83%, 63%)" stroke-width="2.6"  transform="translate(68.3 59.7) rotate(237.6) scale(1.84 0.71)" />
<rect x="17.8" y="77.4" width="29.7" height="13.8" rx="2.6" fill="none" fill-opacity="0.89" stroke="hsl(86, 72%, 68%)" stroke-width="1.6"  transform="translate(74.8 46.6) rotate(279.1) scale(0.57 0.75)" />
<path d="M 27.8 28.7 C 12.4 27.6, 78.0 36.3, 92.9 49.9 C 98.9 47.5, 92.0 52.8, 96.0 39.2 C 100.0 50.7, 88.9 43.8, 82.6 57.0 C 65.4 73.7, 14.4 33.0, 4.8 26.2 C 11.1 6.2, 76.7 43.0, 68.7 51.7 C 61.4 34.7, 100.0 88.5, 97.6 85.3 C 100.0 100.0, 83.9 2.7, 71.7 6.3 C 63.8 14.4, 0.0 0.0, 7.0 3.9 C 0.0 15.8, 84.6 38.3, 70.0 27.3 Z" fill="none" fill-opacity="0.25" stroke="hsl(322, 74%, 44%)" stroke-width="4.22"  transform="translate(61.0 0.4) rotate(267.5) scale(0.87 1.43)" />
<circle cx="54.5" cy="49.4" r="5.3" fill="hsl(290, 83%, 63%)" fill-opacity="0.76"  transform="translate(34.6 94.0) rotate(162.2) scale(1.92 0.84)" />
<path d="M 11.1 47.6 C 7.0 60.6, 100.0 91.7, 99.9 99.3 C 80.1 84.9, 61.6 76.9, 47.1 62.5 C 53.3 49.1, 74.9 27.9, 79.9 42.6 C 96.8 30.5, 100.0 59.1, 97.9 46.7 C 91.9 61.6, 100.0 52.7, 96.5 43.8 C 100.0 35.1, 0.0 75.2, 1.9 83.4 C 21.8 86.7, 51.0 79.4, 59.5 75.1 C 72.4 87.9, 13.0 81.0, 15.0 76.3 C 15.8 66.0, 86.1 47.7, 95.2 55.2 Z" fill="hsl(83, 65%, 44%)" fill-opacity="0.68" stroke="none" stroke-width="1.17"  transform="translate(51.6 28.6) rotate(136.9) scale(0.59 1.31)" />
<path d="M 99.5 96.6 C 93.7 100.0, 84.0 76.8, 95.9 71.5 C 100.0 84.9, 10.8 17.8, 6.3 26.2 C 0.0 21.8, 86.5 39.1, 76.4 24.4 C 83.7 31.0, 18.5 39.7, 24.1 30.6 C 6.8 46.5, 100.0 35.0, 95.5 23.2 C 100.0 18.6, 88.2 80.6, 91.0 92.1 C 100.0 100.0, 0.0 69.0, 2.6 82.0 C 14.2 77.5, 97.7 58.8, 96.0 72.4 Z" fill="hsl(86, 72%, 68%)" fill-opacity="0.93" stroke="none" stroke-width="1.78"  transform="translate(83.8 84.4) rotate(129.0) scale(1.87 1.60)" />
<path d="M 60.0 57.4 C 70.3 40.9, 0.0 0.0, 2.4 9.4 C 18.0 23.1, 100.0 55.7, 98.8 50.9 C 84.0 47.2, 46.3 79.1, 32.2 78.7 C 45.8 72.7, 68.7 34.3, 53.9 31.6 C 43.3 13.1, 0.0 14.9, 10.5 11.9 C 0.0 29.8, 47.3 34.1, 58.7 36.1 C 41.0 35.6, 34.0 48.4, 33.7 49.9 C 25.1 64.3, 23.2 43.6, 25.7 30.4 C 39.7 25.0, 33.6 81.9, 37.2 90.2 " fill="none" fill-opacity="0.88" stroke="hsl(290, 83%, 63%)" stroke-width="5.12"  transform="translate(37.6 8.2) rotate(337.4) scale(1.43 1.43)" />
<path d="M 22.3 49.3 C 6.1 47.1, 17.5 86.1, 17.1 92.3 C 35.2 81.6, 23.0 20.9, 19.5 21.2 C 5.1 26.8, 41.2 67.4, 37.7 76.7 C 30.8 78.9, 8.0 75.9, 21.2 84.5 C 20.1 73.1, 89.0 72.5, 82.3 75.7 C 70.9 75.4, 65.3 61.3, 59.7 54.1 C 62.5 69.7, 49.6 10.8, 49.4 9.1 C 58.9 0.0, 86.4 10.5, 74.1 0.9 C 76.5 0.0, 74.9 15.1, 89.5 2.4 C 80.5 0.0, 47.1 32.5, 51.7 32.1 Z" fill="hsl(144, 86%, 72%)" fill-opacity="0.87" stroke="none" stroke-width="4.39"  transform="translate(23.4 76.9) rotate(193.6) scale(1.81 0.92)" />
<circle cx="42.2" cy="67.5" r="5.4" fill="url(#g0)" fill-opacity="0.57"  transform="translate(53.8 7.9) rotate(165.3) scale(1.36 1.57)" />
<path d="M 25.9 11.2 C 11.7 1.5, 30.8 24.8, 18.5 38.8 C 34.7 29.5, 94.6 58.8, 94.2 45.9 C 100.0 28.1, 15.9 96.5, 30.3 83.1 C 20.3 72.5, 20.5 17.8, 19.3 8.5 C 9.0 0.0, 56.6 41.5, 51.8 34.5 C 33.4 20.7, 18.9 95.0, 31.0 94.0 C 22.5 100.0, 4.8 15.7, 6.0 12.8 C 14.2 9.1, 79.1 71.1, 85.6 73.0 C 88.2 63.4, 14.2 61.2, 2.3 54.2 C 21.2 63.1, 39.6 52.2, 40.6 45.5 Z" fill="hsl(86, 72%, 68%)" fill-opacity="0.33" stroke="none" stroke-width="2.18" filter="url(#f1)" transform="translate(93.9 3.1) rotate(166.6) scale(1.96 1.03)" />
<path d="M 89.5 57.6 C 93.9 73.9, 10.9 23.8, 25.1 18.4 C 28.6 10.7, 92.1 88.8, 77.7 77.6 C 86.6 78.1, 3.9 52.4, 18.5 47.9 C 21.8 61.2, 55.3 26.8, 59.3 39.8 C 43.8 46.2, 80.2 95.4, 89.9 96.3 C 100.0 100.0, 33.7 93.5, 40.4 88.9 C 21.8 77.5, 42.3 56.4, 43.7 51.2 C 53.1 38.9, 77.5 100.0, 77.5 90.4 C 83.6 98.2, 81.3 23.4, 74.4 29.9 Z" fill="none" fill-opacity="0.69" stroke="hsl(151, 70%, 62%)" stroke-width="4.05"  transform="translate(1.2 35.6) rotate(207.9) scale(1.22 0.61)" />
<path d="M 77.2 58.0 C 85.2 76.0, 84.4 35.8, 75.4 26.3 C 63.7 14.5, 82.8 87.0, 77.9 86.6 C 68.1 100.0, 11.7 93.3, 5.9 94.6 C 0.0 93.9, 70.8 19.7, 76.8 14.1 C 57.4 30.7, 79.7 16.2, 66.1 2.6 C 71.8 0.0, 15.4 46.2, 3.4 36.4 C 9.3 24.3, 42.4 29.4, 34.9 23.0 C 52.8 7.8, 10.6 33.0, 23.3 39.4 C 41.6 48.7, 69.3 91.6, 76.8 91.5 C 78.9 94.5, 46.9 3.6, 58.5 9.0 Z" fill="hsl(151, 70%, 62%)" fill-opacity="0.50" stroke="none" stroke-width="2.98"  transform="translate(36.0 17.5) rotate(46.8) scale(1.45 1.99)" />
<circle cx="60.0" cy="55.7" r="16.7" fill="hsl(86, 72%, 68%)" fill-opacity="0.62"  transform="translate(73.7 10.8) rotate(312.4) scale(1.02 1.85)" />
<circle cx="51.0" cy="33.9" r="0.2" fill="url(#g0)" fill-opacity="0.42" filter="url(#f1)" transform="translate(73.5 78.1) rotate(305.2) scale(0.61 0.85)" />
<path d="M 6.7 18.5 C 0.4 26.3, 7.5 80.7, 21.7 94.1 C 36.2 100.0, 36.0 3.2, 32.4 0.6 C 38.3 0.0, 51.1 0.0, 51.2 0.4 C 44.2 15.6, 85.6 67.6, 90.3 56.5 C 81.0 53.9, 42.6 94.2, 40.4 80.0 C 36.0 98.5, 73.8 53.7, 64.9 46.3 C 59.7 41.7, 92.8 20.7, 96.3 6.5 C 87.1 0.0, 35.2 9.3, 20.5 15.8 C 30.4 35.7, 32.6 31.6, 28.1 37.8 Z" fill="hsl(183, 71%, 60%)" fill-opacity="0.92" stroke="none" stroke-width="0.88"  transform="translate(43.2 99.8) rotate(188.3) scale(0.51 1.68)" />
<path d="M 80.3 94.3 C 61.7 95.8, 54.6 50.7, 57.8 65.0 C 39.8 51.8, 43.2 9.5, 52.1 15.3 C 46.4 0.0, 44.8 22.9, 44.6 25.6 C 64.4 16.3, 58.4 100.0, 51.8 96.9 C 66.6 89.8, 45.5 65.5, 44.1 77.7 C 51.1 61.7, 80.5 0.0, 81.7 12.4 C 68.0 18.3, 58.6 10.6, 52.5 20.2 C 53.3 29.8, 35.6 76.0, 36.7 75.6 C 52.9 85.5, 72.8 20.1, 64.6 27.4 Z" fill="none" fill-opacity="0.64" stroke="hsl(151, 70%, 62%)" stroke-width="1.72"  transform="translate(56.5 49.2) rotate(321.4) scale(1.27 1.74)" />
<path d="M 81.2 55.6 C 69.8 42.2, 16.8 7.7, 27.3 22.6 C 33.6 41.2, 49.6 35.9, 47.9 36.9 C 64.5 39.8, 60.9 22.8, 48.9 31.2 C 43.1 29.7, 48.1 28.7, 48.7 22.2 C 31.6 7.0, 62.5 96.0, 64.5 91.6 C 47.0 100.0, 80.8 16.4, 82.6 30.4 C 98.0 30.7, 12.4 61.1, 18.7 74.2 C 23.9 58.1, 60.0 69.4, 50.2 80.3 C 47.5 94.6, 3.0 85.8, 8.0 88.2 Z" fill="hsl(83, 65%, 44%)" fill-opacity="0.68" stroke="none" stroke-width="2.60"  transform="translate(18.2 64.8) rotate(148.0) scale(1.48 0.81)" />
<circle cx="20.3" cy="78.3" r="3.3" fill="hsl(151, 70%, 62%)" fill-opacity="0.95"  transform="translate(17.3 31.0) rotate(348.3) scale(1.70 1.76)" />
<rect x="55.8" y="41.2" width="36.2" height="35.7" rx="5.1" fill="none" fill-opacity="0.55"   transform="translate(82.3 67.8) rotate(285.7) scale(0.95 1.00)" />
<path d="M 56.5 19.3 C 54.3 20.1, 70.2 65.2, 65.2 68.8 C 68.1 63.9, 72.6 44.5, 84.1 30.7 C 67.9 28.9, 97.7 11.3, 89.8 3.4 C 80.0 0.0, 55.9 98.2, 51.1 87.9 C 66.4 83.9, 91.7 7.2, 98.4 10.4 C 83.7 23.0, 18.3 9.5, 18.2 19.4 C 36.7 16.3, 62.3 54.4, 72.9 55.9 Z" fill="hsl(86, 72%, 68%)" fill-opacity="0.29" stroke="none" stroke-width="3.12"  transform="translate(70.9 28.4) rotate(227.3) scale(1.09 1.17)" />
<path d="M 65.7 80.8 C 50.1 96.2, 36.9 49.5, 47.8 40.4 C 43.0 22.5, 9.8 46.6, 1.3 44.8 C 0.0 45.2, 0.0 15.6, 10.8 15.5 C 27.6 27.9, 47.1 27.8, 52.1 23.2 C 55.0 42.8, 62.8 61.4, 63.5 56.7 C 44.4 46.1, 53.3 58.5, 62.2 67.1 C 73.0 72.1, 22.5 39.8, 12.3 51.9 C 7.4 41.2, 67.7 50.2, 64.9 58.1 C 58.0 69.4, 0.0 95.1, 1.9 85.1 Z" fill="none" fill-opacity="0.82" stroke="hsl(322, 74%, 44%)" stroke-width="4.07"  transform="translate(85.4 14.7) rotate(134.3) scale(1.50 1.10)" />
<circle cx="86.4" cy="80.1" r="5.0" fill="hsl(322, 74%, 44%)" fill-opacity="0.71"  transform="translate(58.2 53.2) rotate(32.1) scale(1.45 0.63)" />
<rect x="14.4" y="33.2" width="45.7" height="37.5" rx="7.5" fill="hsl(322, 74%, 44%)" fill-opacity="0.24" stroke="hsl(242, 72%, 49%)" stroke-width="3.9"  transform="translate(83.8 30.5) rotate(1.3) scale(1.75 0.94)" />
<circle cx="65.5" cy="55.0" r="12.2" fill="url(#g0)" fill-opacity="0.40"  transform="translate(2.0 23.2) rotate(23.2) scale(1.40 1.11)" />
<path d="M 89.0 19.8 C 82.4 15.4, 48.4 7.5, 40.9 2.5 C 52.6 0.0, 64.1 89.1, 66.4 75.2 C 84.3 56.1, 24.5 19.0, 36.3 20.4 C 48.4 39.5, 0.0 20.7, 9.9 16.0 C 25.3 16.2, 14.2 50.8, 28.6 63.1 C 26.6 48.5, 71.7 21.9, 66.4 17.8 C 62.7 8.8, 0.9 39.4, 9.6 25.7 C 0.0 28.6, 7.1 33.2, 5.6 45.9 C 20.6 35.5, 0.5 93.0, 2.4 96.5 C 0.0 100.0, 78.9 100.0, 88.3 93.2 Z" fill="hsl(106, 75%, 59%)" fill-opacity="0.96" stroke="none" stroke-width="4.15"  transform="translate(72.2 61.6) rotate(46.9) scale(0.72 0.95)" />
<path d="M 2.1 17.0 C 11.8 28.8, 78.2 78.3, 74.7 77.8 C 94.2 72.2, 7.0 44.2, 10.8 38.2 C 0.0 31.0, 11.5 29.2, 18.3 37.7 C 19.5 52.7, 0.0 27.7, 8.4 26.6 C 11.1 39.2, 97.3 100.0, 83.4 92.3 C 100.0 94.1, 69.6 13.4, 84.2 5.9 C 78.5 0.0, 78.6 69.7, 70.0 84.3 C 87.1 70.6, 91.7 48.7, 96.3 44.7 Z" fill="none" fill-opacity="0.69" stroke="hsl(151, 70%, 62%)" stroke-width="2.48"   />
<circle cx="8.7" cy="31.4" r="11.2" fill="url(#g0)" fill-opacity="0.97"   />
<rect x="44.1" y="22.7" width="28.2" height="36.7" rx="0" fill="hsl(2, 82%, 55%)" fill-opacity="0.40" stroke="hsl(2, 82%, 55%)" stroke-width="1.6"  transform="translate(55.8 83.5) rotate(44.5) scale(1.01 1.10)" />
<circle cx="61.7" cy="17.9" r="12.7" fill="hsl(83, 65%, 44%)" fill-opacity="0.61"  transform="translate(61.5 89.4) rotate(15.1) scale(1.26 1.76)" />
<circle cx="37.7" cy="74.3" r="1.2" fill="hsl(106, 75%, 59%)" fill-opacity="0.80" filter="url(#f1)"  />
<path d="M 74.9 73.4 C 72.0 73.5, 53.9 69.2, 64.8 62.3 C 82.2 44.6, 56.5 47.3, 50.2 46.4 C 40.0 62.2, 78.8 7.1, 74.2 16.5 C 73.1 22.3, 22.3 30.2, 11.9 18.4 C 0.0 33.2, 23.8 27.1, 17.2 33.7 C 28.2 40.3, 87.1 38.6, 77.2 49.4 Z" fill="none" fill-opacity="0.98" stroke="hsl(83, 65%, 44%)" stroke-width="1.50"  transform="translate(70.9 80.4) rotate(8.9) scale(1.92 1.30)" />
<path d="M 13.9 80.4 C 1.3 97.5, 52.8 41.9, 46.3 41.2 C 35.5 37.2, 12.3 33.5, 0.1 35.5 C 0.0 45.5, 18.8 78.6, 8.3 74.0 C 28.1 79.4, 30.9 100.0, 42.0 91.9 C 48.9 78.7, 76.4 1.3, 68.6 15.9 C 51.1 13.2, 19.0 88.4, 20.4 79.9 C 8.9 85.1, 52.7 58.0, 51.0 63.2 Z" fill="hsl(290, 83%, 63%)" fill-opacity="0.76" stroke="none" stroke-width="5.14" filter="url(#f1)" transform="translate(3.8 88.8) rotate(101.7) scale(1.57 1.74)" />
<rect x="49.2" y="46.3" width="43.0" height="36.7" rx="9.3" fill="hsl(290, 83%, 63%)" fill-opacity="0.99"  filter="url(#f1)" transform="translate(69.4 86.8) rotate(85.0) scale(1.38 1.35)" />
<path d="M 67.9 7.6 C 82.2 0.0, 6.8 80.9, 14.7 93.9 C 4.2 77.9, 36.7 24.6, 32.1 29.0 C 49.8 36.0, 9.1 0.0, 21.1 4.7 C 7.7 11.3, 8.0 18.0, 10.6 15.8 C 11.3 10.8, 42.3 33.8, 39.7 37.7 C 41.6 20.5, 58.8 7.3, 59.7 10.8 C 66.1 21.9, 2.4 77.4, 4.6 89.0 Z" fill="hsl(40, 53%, 69%)" fill-opacity="0.94" stroke="none" stroke-width="3.43"  transform="translate(34.7 98.0) rotate(143.6) scale(0.94 0.57)" />
<path d="M 81.4 35.1 C 82.3 42.6, 41.3 25.9, 41.8 13.3 C 28.5 9.0, 20.7 25.3, 19.0 32.2 C 1.3 26.4, 100.0 7.1, 98.9 18.9 C 89.4 36.9, 96.5 26.2, 93.9 21.5 C 100.0 11.8, 53.4 85.9, 60.7 74.5 C 76.6 89.9, 67.5 3.4, 78.2 17.6 C 82.9 21.5, 100.0 2.7, 90.2 5.7 Z" fill="hsl(242, 72%, 49%)" fill-opacity="0.77" stroke="none" stroke-width="2.82"  transform="translate(0.5 71.8) rotate(92.1) scale(1.88 0.92)" />
<path d="M 31.6 67.2 C 28.3 53.2, 10.8 17.9, 3.5 19.8 C 3.2 24.8, 64.0 92.0, 74.7 98.0 C 83.9 100.0, 7.3 100.0, 15.9 92.2 C 33.0 100.0, 52.9 12.0, 49.0 10.1 C 61.2 0.0, 47.2 17.7, 52.3 29.1 C 42.6 11.8, 89.5 60.2, 82.8 50.5 C 67.8 54.8, 23.7 11.9, 23.0 25.2 C 32.9 14.6, 54.4 64.6, 57.7 61.0 C 73.7 68.0, 11.0 100.0, 8.4 97.6 C 24.9 100.0, 55.6 40.1, 44.1 28.3 Z" fill="hsl(104, 72%, 65%)" fill-opacity="0.31" stroke="none" stroke-width="1.86"  transform="translate(91.8 92.9) rotate(142.9) scale(0.68 1.82)" />
<path d="M 41.8 9.4 C 58.9 27.3, 58.6 37.2, 71.1 45.7 C 86.4 37.6, 89.9 79.4, 92.3 86.6 C 100.0 74.7, 0.0 73.0, 1.2 68.1 C 4.0 69.9, 63.1 41.8, 76.8 49.1 C 57.9 34.7, 63.1 24.6, 59.3 18.8 C 60.0 26.3, 0.0 46.4, 9.7 49.1 Z" fill="none" fill-opacity="0.40" stroke="hsl(83, 65%, 44%)" stroke-width="4.96"  transform="translate(89.7 78.6) rotate(149.0) scale(1.82 1.87)" />
<rect x="31.4" y="11.9" width="37.1" height="24.9" rx="0" fill="hsl(104, 72%, 65%)" fill-opacity="0.84"   transform="translate(0.2 40.7) rotate(239.5) scale(1.67 1.68)" />
<path d="M 53.5 3.6 C 66.7 0.0, 41.1 90.5, 49.0 93.7 C 39.8 94.5, 50.6 89.8, 47.0 97.0 C 37.2 99.4, 65.9 28.2, 70.9 27.6 C 57.1 31.3, 59.0 88.8, 68.0 79.6 C 55.0 97.5, 55.7 85.4, 49.4 97.9 C 38.4 82.7, 25.2 13.7, 24.5 7.8 Z" fill="hsl(144, 86%, 72%)" fill-opacity="0.78" stroke="none" stroke-width="2.00"  transform="translate(45.4 22.0) rotate(285.9) scale(0.61 1.49)" />
<circle cx="50.6" cy="84.1" r="9.9" fill="hsl(104, 72%, 65%)" fill-opacity="0.42"  transform="translate(84.4 84.0) rotate(174.5) scale(1.78 1.63)" />
<rect x="6.9" y="32.3" width="34.2" height="17.3" rx="15.0" fill="none" fill-opacity="0.64"    />
<circle cx="99.3" cy="81.5" r="4.3" fill="hsl(144, 86%, 72%)" fill-opacity="0.98"  transform="translate(97.8 79.4) rotate(45.0) scale(1.71 1.22)" />
<path d="M 65.5 65.4 C 61.3 60.2, 66.1 51.3, 59.3 45.8 C 77.5 44.1, 66.2 42.2, 61.9 31.3 C 56.4 41.6, 17.5 48.1, 30.7 48.6 C 34.6 30.0, 85.1 13.7, 73.2 20.5 C 81.0 1.8, 10.6 30.2, 24.8 44.0 C 20.0 34.6, 47.6 84.5, 45.1 84.4 C 61.5 99.6, 21.7 51.2, 29.3 59.6 C 37.9 77.4, 40.7 59.4, 54.7 48.6 C 40.4 29.1, 99.5 21.8, 85.2 17.1 C 87.4 24.9, 0.0 35.4, 0.5 29.3 Z" fill="none" fill-opacity="0.38" stroke="hsl(2, 82%, 55%)" stroke-width="3.67"  transform="translate(60.6 45.0) rotate(325.4) scale(1.93 1.04)" />
<circle cx="74.7" cy="15.2" r="4.7" fill="hsl(106, 75%, 59%)" fill-opacity="0.74" filter="url(#f1)"  />
<rect x="14.6" y="62.9" width="49.6" height="31.1" rx="0" fill="none" fill-opacity="0.49"  filter="url(#f1)" transform="translate(3.0 98.3) rotate(152.6) scale(1.56 0.94)" />
<circle cx="49.8" cy="24.4" r="4.6" fill="url(#g0)" fill-opacity="0.86"   />
<circle cx="48.5" cy="56.6" r="0.7" fill="hsl(106, 75%, 59%)" fill-opacity="0.84"  transform="translate(70.4 26.3) rotate(230.6) scale(0.81 0.51)" />
<path d="M 10.9 45.6 C 11.1 45.9, 40.2 50.5, 44.3 50.7 C 56.0 39.0, 47.9 49.4, 44.3 48.4 C 60.8 52.7, 50.5 24.2, 62.7 17.6 C 59.1 11.4, 26.2 49.0, 13.3 61.1 C 18.0 61.6, 15.1 45.9, 8.1 46.6 C 11.1 44.3, 97.6 76.1, 99.0 64.8 C 96.8 75.5, 79.9 56.7, 74.6 68.1 C 89.1 66.3, 52.9 59.0, 65.5 73.4 " fill="none" fill-opacity="0.94" stroke="hsl(106, 75%, 59%)" stroke-width="3.14" filter="url(#f1)" transform="translate(44.2 49.1) rotate(59.4) scale(1.39 0.90)" />
<rect x="23.2" y="55.3" width="22.6" height="31.3" rx="0" fill="hsl(40, 53%, 69%)" fill-opacity="0.77"    />
<rect x="57.6" y="29.3" width="39.8" height="37.4" rx="12.0" fill="hsl(183, 71%, 60%)" fill-opacity="0.75"    />
<path d="M 64.1 97.1 C 63.4 100.0, 56.9 4.4, 47.0 2.1 C 28.0 15.7, 20.1 0.0, 21.7 5.5 C 18.0 1.1, 30.1 0.0, 25.5 1.6 C 37.1 16.2, 75.8 100.0, 71.5 99.2 C 83.3 100.0, 47.3 24.7, 58.8 22.9 C 44.4 18.0, 71.2 92.1, 83.3 88.8 C 85.4 79.7, 100.0 12.1, 87.1 10.0 C 70.5 21.0, 94.1 25.4, 98.6 26.0 Z" fill="none" fill-opacity="0.75" stroke="hsl(106, 75%, 59%)" stroke-width="3.03"  transform="translate(80.0 99.1) rotate(289.0) scale(1.51 0.66)" />
<rect x="31.6" y="5.7" width="47.2" height="25.0" rx="15.1" fill="hsl(151, 70%, 62%)" fill-opacity="0.63"   transform="translate(21.5 6.0) rotate(348.3) scale(1.06 0.58)" />
<circle cx="30.0" cy="56.3" r="11.9" fill="url(#g0)" fill-opacity="0.93"  transform="translate(90.1 63.4) rotate(344.3) scale(1.54 1.52)" />
<circle cx="36.0" cy="23.4" r="10.8" fill="hsl(2, 82%, 55%)" fill-opacity="0.62"  transform="translate(61.7 25.3) rotate(317.3) scale(1.38 1.50)" />
<rect x="51.8" y="60.7" width="29.2" height="13.8" rx="0" fill="hsl(86, 72%, 68%)" fill-opacity="0.81"    />
<path d="M 76.2 45.9 C 65.0 65.0, 90.8 28.2, 99.6 13.9 C 100.0 8.1, 73.3 74.9, 83.2 66.5 C 92.6 51.7, 19.1 45.0, 10.9 57.0 C 0.0 74.4, 94.8 71.4, 92.3 83.8 C 76.5 70.9, 17.7 1.4, 15.3 3.4 C 10.9 0.0, 23.7 8.0, 18.5 20.6 C 38.2 38.1, 82.7 78.9, 82.7 67.5 C 67.5 61.9, 100.0 100.0, 93.2 89.8 C 88.4 100.0, 0.0 93.2, 4.5 94.8 C 3.6 74.9, 85.1 14.6, 73.8 16.6 Z" fill="none" fill-opacity="0.53" stroke="hsl(106, 75%, 59%)" stroke-width="4.59"  transform="translate(36.1 38.5) rotate(347.2) scale(1.76 0.53)" />
<circle cx="12.8" cy="55.0" r="5.5" fill="url(#g1)" fill-opacity="0.60"   />
<circle cx="11.9" cy="21.8" r="0.3" fill="url(#g0)" fill-opacity="0.56"   />
<rect x="18.0" y="0.7" width="47.4" height="25.2" rx="9.8" fill="hsl(40, 53%, 69%)" fill-opacity="0.68"   transform="translate(59.8 46.3) rotate(50.3) scale(1.48 0.96)" />
<circle cx="89.8" cy="13.3" r="4.6" fill="hsl(151, 70%, 62%)" fill-opacity="0.67"  transform="translate(34.3 22.1) rotate(57.0) scale(1.61 1.72)" />
<path d="M 17.8 53.7 C 4.2 65.1, 0.7 11.2, 11.6 1.7 C 15.2 0.0, 70.2 5.9, 59.3 7.8 C 46.9 8.8, 36.4 43.9, 45.5 56.2 C 31.9 73.3, 8.2 80.7, 15.1 72.7 C 9.9 62.4, 49.7 41.1, 44.2 30.6 C 35.0 35.1, 33.3 72.0, 37.6 70.0 C 55.5 69.9, 54.0 82.0, 55.5 85.3 C 71.9 85.8, 77.5 56.5, 88.3 47.9 Z" fill="none" fill-opacity="0.69" stroke="hsl(83, 65%, 44%)" stroke-width="1.20"  transform="translate(75.2 48.6) rotate(318.7) scale(0.97 1.16)" />
<circle cx="89.1" cy="67.0" r="16.0" fill="url(#g1)" fill-opacity="0.73"  transform="translate(18.7 95.3) rotate(18.0) scale(1.26 1.20)" />
<path d="M 15.1 40.3 C 24.4 59.5, 60.3 61.3, 68.1 52.8 C 66.7 63.3, 49.3 59.6, 36.3 58.5 C 54.4 63.3, 58.5 38.0, 49.5 30.3 C 35.7 29.0, 29.1 5.8, 26.5 7.6 C 27.6 13.7, 77.3 68.3, 65.8 75.7 C 55.6 90.3, 10.0 53.4, 4.1 53.0 Z" fill="hsl(322, 74%, 44%)" fill-opacity="0.35" stroke="none" stroke-width="5.02" filter="url(#f1)" transform="translate(38.6 95.7) rotate(136.3) scale(0.82 1.20)" />
<path d="M 17.1 23.8 C 22.2 40.2, 67.6 75.4, 60.0 77.2 C 42.5 87.4, 31.8 100.0, 22.3 97.5 C 22.1 98.2, 22.3 60.6, 17.5 69.8 C 17.0 65.3, 67.3 52.5, 55.6 40.9 C 74.8 21.8, 38.1 93.1, 51.9 81.7 C 64.3 69.5, 58.2 98.6, 55.6 84.6 C 41.5 96.0, 40.6 60.3, 51.8 55.8 C 38.5 62.6, 99.2 59.6, 98.8 47.9 C 86.3 55.5, 56.0 48.7, 43.6 44.1 C 40.9 25.5, 67.1 57.7, 61.0 43.4 Z" fill="hsl(242, 72%, 49%)" fill-opacity="0.39" stroke="none" stroke-width="2.46"   />
<path d="M 82.6 27.0 C 96.5 10.6, 100.0 1.6, 91.0 12.7 C 98.7 16.8, 30.2 0.0, 22.7 5.9 C 34.9 5.0, 91.8 81.5, 89.3 80.6 C 83.4 86.4, 26.7 29.8, 15.4 24.1 C 22.0 18.8, 17.7 18.0, 31.4 14.3 C 48.4 4.3, 70.8 11.1, 56.3 20.6 C 44.9 16.0, 30.8 97.5, 42.0 84.2 C 40.6 93.8, 90.6 91.5, 97.3 84.1 C 79.9 100.0, 19.3 0.0, 33.0 3.5 C 13.9 22.9, 39.6 100.0, 33.1 96.5 Z" fill="none" fill-opacity="0.75" stroke="hsl(104, 72%, 65%)" stroke-width="0.92"  transform="translate(65.6 52.4) rotate(178.3) scale(1.01 0.62)" />
<path d="M 28.2 2.7 C 35.0 13.0, 32.6 56.9, 17.9 58.5 C 18.5 68.1, 51.0 37.8, 53.8 40.5 C 49.4 33.0, 30.8 8.3, 28.2 17.7 C 15.2 25.8, 80.6 34.8, 91.1 31.5 C 96.5 35.6, 0.0 18.0, 3.5 29.9 C 0.0 13.6, 66.8 63.5, 61.7 58.0 C 69.1 77.5, 44.6 100.0, 41.2 95.3 C 43.4 100.0, 3.9 40.2, 8.1 46.1 C 7.7 48.2, 14.0 93.8, 16.2 98.9 " fill="none" fill-opacity="0.83" stroke="hsl(322, 74%, 44%)" stroke-width="1.32"   />
<path d="M 14.8 34.1 C 33.6 31.8, 37.8 69.8, 42.8 63.4 C 40.8 78.2, 100.0 3.2, 99.0 7.3 C 86.4 4.3, 83.9 49.8, 85.9 60.6 C 77.2 42.6, 62.8 100.0, 74.2 99.9 C 90.7 100.0, 47.4 44.4, 33.2 42.7 C 44.5 27.5, 38.2 90.2, 49.3 95.7 C 64.8 85.9, 0.0 31.4, 6.4 45.4 C 0.0 59.5, 58.8 25.2, 44.7 13.7 C 38.5 5.7, 33.6 68.8, 41.6 63.2 Z" fill="none" fill-opacity="0.61" stroke="hsl(144, 86%, 72%)" stroke-width="4.71"  transform="translate(79.7 38.1) rotate(204.5) scale(1.32 1.88)" />
<circle cx="28.4" cy="82.5" r="2.3" fill="hsl(144, 86%, 72%)" fill-opacity="0.83"  transform="translate(55.9 93.9) rotate(39.9) scale(1.09 1.35)" />
<path d="M 25.9 13.1 C 12.1 21.5, 41.6 0.0, 50.5 3.4 C 54.7 0.0, 49.3 50.4, 41.1 46.4 C 58.3 49.0, 62.3 22.6, 75.3 22.1 C 84.5 14.0, 51.6 100.0, 66.5 87.5 C 47.0 83.2, 9.1 30.0, 17.2 31.8 C 17.7 42.3, 9.5 100.0, 13.4 89.3 C 18.5 83.0, 37.5 100.0, 49.7 93.1 Z" fill="hsl(2, 82%, 55%)" fill-opacity="0.59" stroke="none" stroke-width="2.28"  transform="translate(36.7 27.5) rotate(190.5) scale(1.31 0.99)" />
<path d="M 57.2 96.2 C 69.5 100.0, 70.6 24.4, 76.5 19.6 C 78.8 1.6, 4.6 96.2, 8.8 99.7 C 14.0 100.0, 60.7 66.8, 60.6 65.5 C 55.1 80.0, 57.9 3.7, 59.1 13.4 C 52.9 23.1, 67.8 27.5, 54.3 42.5 C 49.0 40.8, 20.9 100.0, 11.0 89.8 C 28.5 100.0, 66.9 79.0, 67.2 86.8 C 76.7 94.2, 43.9 64.3, 58.7 50.9 " fill="hsl(290, 83%, 63%)" fill-opacity="0.27" stroke="none" stroke-width="3.44"  transform="translate(51.1 16.2) rotate(291.7) scale(1.61 1.23)" />
<rect x="77.3" y="19.9" width="22.4" height="26.3" rx="2.4" fill="hsl(151, 70%, 62%)" fill-opacity="0.34"   transform="translate(68.0 44.9) rotate(93.7) scale(1.82 1.23)" />
<rect x="20.9" y="17.6" width="23.3" height="25.3" rx="6.3" fill="hsl(106, 75%, 59%)" fill-opacity="0.95" stroke="hsl(242, 72%, 49%)" stroke-width="1.5"  transform="translate(79.3 67.3) rotate(219.0) scale(1.05 1.51)" />
<path d="M 2.1 97.8 C 0.0 100.0, 27.0 65.8, 37.0 72.7 C 17.2 65.1, 11.0 50.4, 4.2 39.1 C 0.0 26.1, 20.3 11.7, 21.1 9.9 C 32.2 23.9, 59.4 11.7, 48.8 13.2 C 31.4 32.7, 60.9 76.4, 47.8 71.3 C 43.3 62.6, 0.0 6.2, 6.8 9.5 C 23.1 18.6, 93.4 63.1, 98.5 61.5 C 100.0 49.1, 51.0 69.2, 43.8 56.0 C 36.7 74.3, 22.8 25.4, 30.1 18.3 C 10.9 14.5, 68.2 100.0, 64.3 89.4 " fill="hsl(322, 74%, 44%)" fill-opacity="0.97" stroke="none" stroke-width="2.93"   />
<circle cx="98.4" cy="77.2" r="9.8" fill="url(#g0)" fill-opacity="0.40"  transform="translate(35.1 9.4) rotate(353.9) scale(0.81 1.10)" />
<path d="M 53.7 88.6 C 45.4 69.2, 62.9 36.5, 50.2 26.6 C 62.2 27.8, 26.4 27.0, 38.2 23.8 C 43.9 30.1, 9.2 39.8, 20.6 45.2 C 21.4 39.8, 33.2 4.5, 20.6 13.7 C 40.0 3.4, 83.4 79.4, 97.3 90.2 C 100.0 76.8, 47.3 48.3, 49.0 56.6 C 44.5 61.8, 77.0 72.7, 67.6 78.9 C 59.0 87.1, 55.8 24.0, 53.2 32.1 C 50.0 52.0, 96.2 53.1, 89.9 45.2 C 81.5 55.4, 44.0 66.8, 42.5 80.0 Z" fill="none" fill-opacity="0.72" stroke="hsl(2, 82%, 55%)" stroke-width="1.29"  transform="translate(4.9 98.3) rotate(222.1) scale(0.67 1.32)" />
<path d="M 33.6 38.6 C 47.8 41.5, 31.8 88.0, 37.4 80.3 C 40.8 79.5, 15.7 50.3, 3.4 39.6 C 5.8 58.5, 57.8 34.9, 43.3 33.0 C 47.1 16.7, 48.4 26.6, 40.9 16.7 C 46.9 10.6, 42.1 11.8, 29.4 7.3 C 29.5 0.0, 27.3 54.7, 20.0 60.9 C 18.3 66.9, 100.0 42.9, 97.5 49.1 Z" fill="hsl(83, 65%, 44%)" fill-opacity="0.71" stroke="none" stroke-width="4.54" filter="url(#f1)" transform="translate(90.4 0.8) rotate(360.0) scale(1.37 0.86)" />
<circle cx="27.7" cy="0.1" r="8.4" fill="hsl(104, 72%, 65%)" fill-opacity="0.67" filter="url(#f1)" transform="translate(61.0 56.4) rotate(0.6) scale(1.61 0.83)" />
<path d="M 34.7 39.9 C 30.9 53.8, 34.3 100.0, 25.1 95.4 C 8.9 91.3, 60.7 12.1, 52.4 8.3 C 47.7 0.0, 63.7 17.2, 59.3 4.2 C 64.0 19.2, 52.2 65.2, 47.0 50.7 C 59.4 31.4, 26.3 36.8, 29.0 28.3 C 32.3 13.2, 18.0 71.7, 21.8 68.2 C 39.6 78.8, 29.5 82.1, 20.1 90.0 C 21.7 100.0, 5.0 15.1, 16.2 0.4 C 31.4 0.9, 66.9 90.0, 52.0 95.8 C 61.4 98.0, 42.0 86.3, 32.9 86.1 Z" fill="none" fill-opacity="0.32" stroke="hsl(104, 72%, 65%)" stroke-width="2.86"  transform="translate(37.9 9.3) rotate(131.9) scale(0.86 1.86)" />
<rect x="14.6" y="18.4" width="41.2" height="14.2" rx="10.8" fill="hsl(83, 65%, 44%)" fill-opacity="0.38"   transform="translate(65.8 46.4) rotate(103.7) scale(1.37 0.66)" />
<path d="M 30.8 14.8 C 21.2 23.5, 27.9 18.3, 33.2 10.9 C 48.7 0.0, 60.7 11.0, 74.8 4.4 C 91.3 11.9, 86.6 48.3, 77.4 38.7 C 77.9 21.5, 61.6 30.4, 55.1 37.2 C 52.6 43.4, 15.7 47.4, 29.8 58.2 C 32.8 51.6, 60.5 32.7, 53.9 32.6 C 60.2 14.3, 16.2 85.6, 25.8 94.5 C 37.0 78.1, 36.5 23.2, 29.7 23.7 C 25.4 23.0, 84.4 45.7, 88.8 54.4 C 97.2 56.8, 49.2 89.2, 56.9 91.9 Z" fill="hsl(106, 75%, 59%)" fill-opacity="0.64" stroke="none" stroke-width="5.19"  transform="translate(89.7 12.7) rotate(263.8) scale(0.81 1.22)" />
<rect x="10.2" y="15.1" width="21.9" height="14.3" rx="0" fill="none" fill-opacity="0.25"   transform="translate(33.2 90.0) rotate(17.7) scale(0.59 1.09)" />
<path d="M 43.9 3.5 C 30.0 0.0, 65.3 0.0, 66.9 1.6 C 58.6 12.0, 7.8 82.7, 11.0 76.5 C 26.3 69.0, 19.6 80.5, 34.6 67.5 C 18.8 85.0, 60.8 55.4, 54.7 64.3 C 72.6 75.6, 0.3 7.6, 13.1 15.4 C 14.6 23.7, 81.9 18.1, 88.7 7.6 C 89.9 15.6, 33.5 38.9, 34.1 39.3 Z" fill="none" fill-opacity="0.76" stroke="hsl(83, 65%, 44%)" stroke-width="2.35"  transform="translate(5.0 55.4) rotate(224.7) scale(0.82 1.88)" />
<path d="M 33.8 28.1 C 44.1 24.8, 100.0 98.6, 98.3 85.2 C 97.3 82.2, 79.1 85.2, 74.1 90.3 C 58.2 81.6, 88.0 51.0, 95.3 47.8 C 78.6 34.5, 5.8 0.0, 0.3 2.2 C 8.2 0.7, 43.2 78.5, 48.9 70.9 C 38.6 67.4, 55.4 33.6, 57.8 47.6 C 56.8 38.7, 0.0 33.9, 1.6 19.8 C 10.3 19.6, 33.3 61.2, 20.1 50.0 " fill="hsl(2, 82%, 55%)" fill-opacity="0.43" stroke="none" stroke-width="4.68" filter="url(#f1)" transform="translate(1.8 27.8) rotate(93.1) scale(0.61 0.74)" />
<path d="M 64.0 40.1 C 69.0 51.0, 26.0 15.7, 37.1 5.4 C 22.1 0.0, 99.9 15.1, 87.9 16.0 C 83.0 0.9, 77.8 80.3, 82.4 67.8 C 94.5 52.9, 25.4 90.8, 37.5 87.8 C 17.7 82.2, 87.5 39.3, 73.5 41.6 C 90.0 44.4, 49.2 13.5, 55.0 3.8 C 37.5 15.8, 40.1 31.5, 42.6 23.3 Z" fill="hsl(40, 53%, 69%)" fill-opacity="0.75" stroke="none" stroke-width="4.21"  transform="translate(44.4 93.0) rotate(242.0) scale(1.06 1.52)" />
<circle cx="94.7" cy="30.6" r="4.9" fill="url(#g0)" fill-opacity="0.42"   />
<circle cx="28.8" cy="59.8" r="0.7" fill="url(#g1)" fill-opacity="0.86"  transform="translate(65.7 16.2) rotate(52.6) scale(1.57 0.64)" />
<circle cx="69.9" cy="18.2" r="9.1" fill="hsl(83, 65%, 44%)" fill-opacity="0.95"  transform="translate(38.7 16.2) rotate(282.0) scale(1.72 0.85)" />
<g opacity="0.044">
<rect x="0" y="0" width="1" height="100" fill="black" />
<rect x="22" y="0" width="1" height="100" fill="black" />
<rect x="44" y="0" width="1" height="100" fill="black" />
<rect x="66" y="0" width="1" height="100" fill="black" />
<rect x="88" y="0" width="1" height="100" fill="black" />
<rect x="0" y="0" width="100" height="1" fill="black" />
<rect x="0" y="22" width="100" height="1" fill="black" />
<rect x="0" y="44" width="100" height="1" fill="black" />
<rect x="0" y="66" width="100" height="1" fill="black" />
<rect x="0" y="88" width="100" height="1" fill="black" />
</g>

</svg>
