<?xml version="1.0" encoding="UTF-8"?>
<svg xmlns="http://www.w3.org/2000/svg" width="100" height="100" viewBox="0 0 100 100">
<defs>
<linearGradient id="g0" x1="0%" y1="0%" x2="100%" y2="100%">
<stop offset="0.0%" stop-color="hsl(106, 75%, 59%)" />
<stop offset="33.3%" stop-color="hsl(183, 71%, 60%)" />
<stop offset="66.7%" stop-color="hsl(242, 72%, 49%)" />
<stop offset="100.0%" stop-color="hsl(322, 74%, 44%)" />
</linearGradient>
<linearGradient id="g1" x1="0%" y1="0%" x2="100%" y2="100%">
<stop offset="0.0%" stop-color="hsl(290, 83%, 63%)" />
<stop offset="33.3%" stop-color="hsl(2, 82%, 55%)" />
<stop offset="66.7%" stop-color="hsl(86, 72%, 68%)" />
<stop offset="100.0%" stop-color="hsl(83, 65%, 44%)" />
</linearGradient>
<linearGradient id="g2" x1="0%" y1="0%" x2="100%" y2="100%">
<stop offset="0.0%" stop-color="hsl(40, 53%, 69%)" />
<stop offset="33.3%" stop-color="hsl(104, 72%, 65%)" />
<stop offset="66.7%" stop-color="hsl(144, 86%, 72%)" />
<stop offset="100.0%" stop-color="hsl(151, 70%, 62%)" />
</linearGradient>
</defs>

<circle cx="55.4" cy="15.8" r="0.2" fill="hsl(290, 83%, 63%)" fill-opacity="0.72"  transform="translate(61.5 5.4) rotate(335.7) scale(1.91 1.52)" />
<rect x="40.2" y="57.2" width="37.5" height="21.2" rx="12.3" fill="hsl(106, 75%, 59%)" fill-opacity="0.69"   transform="translate(67.1 25.9) rotate(188.8) scale(0.94 0.88)" />
<path d="M 46.4 32.7 C 58.2 18.2, 81.6 96.6, 78.1 96.0 C 83.2 79.0, 50.6 84.1, 57.4 84.3 C 52.7 75.9, 8.8 91.4, 5.2 78.7 C 25.0 97.0, 49.6 1.0, 35.1 7.6 C 38.2 6.4, 16.8 79.7, 26.4 85.2 C 14.5 66.9, 43.9 63.0, 44.5 77.5 Z" fill="hsl(322, 74%, 44%)" fill-opacity="0.93" stroke="none" stroke-width="1.17"   />
<circle cx="82.4" cy="38.4" r="0.6" fill="hsl(2, 82%, 55%)" fill-opacity="0.61"   />
<path d="M 74.1 54.2 C 60.1 43.5, 66.8 35.6, 57.0 28.9 C 69.2 46.3, 47.0 0.0, 35.6 7.9 C 49.8 24.6, 43.1 86.1, 30.0 97.7 C 26.7 100.0, 43.7 70.6, 41.3 66.9 C 40.4 74.7, 96.3 14.8, 99.0 8.2 C 93.4 25.1, 86.5 6.2, 79.6 2.0 C 77.3 0.0, 16.3 53.6, 17.8 65.7 " fill="hsl(106, 75%, 59%)" fill-opacity="0.74" stroke="none" stroke-width="1.05"   />
<path d="M 41.3 33.7 C 28.2 45.5, 46.4 97.8, 38.5 95.7 C 54.3 100.0, 91.1 46.2, 80.5 36.2 C 69.5 40.8, 34.3 13.5, 28.5 8.5 C 16.1 15.9, 76.6 28.1, 70.1 40.0 " fill="none" fill-opacity="0.55" stroke="hsl(322, 74%, 44%)" stroke-width="1.06"  transform="translate(6.0 52.2) rotate(246.4) scale(0.67 1.31)" />
<path d="M 30.7 70.6 C 49.6 64.4, 100.0 74.1, 99.7 69.3 C 82.6 69.5, 44.1 37.9, 40.6 52.7 C 26.5 39.9, 78.9 26.8, 78.9 32.4 " fill="none" fill-opacity="0.52" stroke="hsl(322, 74%, 44%)" stroke-width="1.01"  transform="translate(5.7 19.3) rotate(155.2) scale(1.72 0.63)" />
<path d="M 30.3 34.0 C 35.8 31.8, 48.5 86.5, 43.2 89.0 C 62.1 86.6, 3.4 52.6, 15.3 63.4 C 28.7 82.7, 76.1 30.5, 69.7 23.4 C 59.3 5.3, 65.2 93.4, 66.4 79.4 C 64.4 82.0, 17.6 67.7, 31.7 73.7 C 34.2 54.8, 99.0 63.8, 99.0 74.7 C 100.0 74.4, 8.8 45.8, 3.3 46.1 " fill="hsl(144, 86%, 72%)" fill-opacity="0.84" stroke="none" stroke-width="0.80"  transform="translate(14.9 8.5) rotate(108.8) scale(1.93 1.60)" />
<rect x="57.7" y="56.1" width="32.5" height="18.3" rx="16.3" fill="none" fill-opacity="0.85"   transform="translate(13.3 58.8) rotate(350.6) scale(1.90 0.69)" />
<path d="M 67.4 60.1 C 75.9 45.8, 16.9 27.7, 26.8 31.6 C 13.5 31.4, 24.5 83.6, 37.0 79.9 C 27.3 64.5, 42.3 45.1, 42.5 50.8 " fill="hsl(86, 72%, 68%)" fill-opacity="0.84" stroke="none" stroke-width="0.98"   />
<circle cx="94.7" cy="9.6" r="0.4" fill="hsl(104, 72%, 65%)" fill-opacity="0.85"  transform="translate(80.5 86.6) rotate(37.6) scale(1.40 1.89)" />
<path d="M 19.0 16.8 C 29.6 2.6, 57.9 23.4, 61.3 15.5 C 57.4 3.0, 9.1 75.7, 1.7 88.7 C 15.1 73.4, 30.5 41.2, 35.1 55.5 C 42.3 45.6, 56.2 91.4, 63.5 82.0 C 80.1 90.1, 68.7 89.4, 74.5 90.6 " fill="hsl(40, 53%, 69%)" fill-opacity="0.72" stroke="none" stroke-width="1.06"  transform="translate(48.1 72.4) rotate(214.6) scale(1.12 1.06)" />
<rect x="38.2" y="54.0" width="30.4" height="25.0" rx="0" fill="hsl(151, 70%, 62%)" fill-opacity="0.58" stroke="hsl(40, 53%, 69%)" stroke-width="3.6"  transform="translate(98.0 65.6) rotate(331.7) scale(0.51 1.57)" />
<path d="M 9.1 96.8 C 0.0 80.1, 100.0 94.0, 85.9 82.7 C 67.0 79.7, 78.0 86.6, 77.1 85.6 C 96.2 99.8, 49.1 96.9, 44.7 90.3 C 52.1 75.3, 100.0 71.5, 97.5 76.4 C 82.8 78.6, 35.6 60.0, 22.8 71.4 C 39.2 58.7, 0.8 76.5, 2.7 63.2 Z" fill="hsl(86, 72%, 68%)" fill-opacity="0.77" stroke="none" stroke-width="1.20"   />
<path d="M 67.4 75.4 C 51.0 59.5, 25.0 32.1, 20.0 47.0 C 30.7 33.2, 71.7 84.8, 59.9 99.3 C 52.3 100.0, 94.1 54.8, 80.6 56.3 Z" fill="none" fill-opacity="0.90" stroke="hsl(40, 53%, 69%)" stroke-width="1.20"  transform="translate(72.4 96.9) rotate(177.8) scale(0.67 0.54)" />
<rect x="32.3" y="4.3" width="42.3" height="27.0" rx="2.1" fill="none" fill-opacity="0.66" stroke="hsl(83, 65%, 44%)" stroke-width="2.3"  transform="translate(22.3 14.0) rotate(276.8) scale(1.45 1.37)" />
</svg>
