<?xml version="1.0" encoding="UTF-8"?>
<svg xmlns="http://www.w3.org/2000/svg" width="100" height="100" viewBox="0 0 100 100">
<defs>
<linearGradient id="g0" x1="0%" y1="0%" x2="100%" y2="100%">
<stop offset="0.0%" stop-color="hsl(106, 75%, 59%)" />
<stop offset="33.3%" stop-color="hsl(183, 71%, 60%)" />
<stop offset="66.7%" stop-color="hsl(242, 72%, 49%)" />
<stop offset="100.0%" stop-color="hsl(322, 74%, 44%)" />
</linearGradient>
<linearGradient id="g1" x1="0%" y1="0%" x2="100%" y2="100%">
<stop offset="0.0%" stop-color="hsl(290, 83%, 63%)" />
<stop offset="33.3%" stop-color="hsl(2, 82%, 55%)" />
<stop offset="66.7%" stop-color="hsl(86, 72%, 68%)" />
<stop offset="100.0%" stop-color="hsl(83, 65%, 44%)" />
</linearGradient>
<linearGradient id="g2" x1="0%" y1="0%" x2="100%" y2="100%">
<stop offset="0.0%" stop-color="hsl(40, 53%, 69%)" />
<stop offset="33.3%" stop-color="hsl(104, 72%, 65%)" />
<stop offset="66.7%" stop-color="hsl(144, 86%, 72%)" />
<stop offset="100.0%" stop-color="hsl(151, 70%, 62%)" />
</linearGradient>
<filter id="f1" x="-20%" y="-20%" width="140%" height="140%">
  <feGaussianBlur stdDeviation="1.3724912274755876" />
</filter>

</defs>

<circle cx="54.0" cy="18.3" r="0.0" fill="hsl(83, 65%, 44%)" fill-opacity="0.97"  transform="translate(75.0 18.5) rotate(177.1) scale(0.88 1.07)" />
<rect x="48.2" y="24.6" width="32.5" height="39.5" rx="18.0" fill="hsl(104, 72%, 65%)" fill-opacity="0.41"   transform="translate(22.2 35.8) rotate(327.0) scale(0.57 1.84)" />
<path d="M 17.1 1.7 C 23.5 0.0, 0.0 98.8, 1.3 99.2 C 7.5 100.0, 50.6 94.4, 36.8 98.8 C 26.4 100.0, 60.2 44.8, 45.6 39.5 C 56.1 48.3, 49.2 28.1, 48.1 20.4 C 33.5 40.3, 33.1 5.0, 19.0 9.6 C 12.1 13.5, 70.3 84.0, 70.3 91.1 Z" fill="none" fill-opacity="0.70" stroke="hsl(2, 82%, 55%)" stroke-width="2.56"  transform="translate(25.3 90.5) rotate(342.4) scale(1.45 1.17)" />
<path d="M 77.0 80.5 C 88.4 75.3, 100.0 9.4, 99.6 9.5 C 100.0 7.9, 46.6 69.0, 51.4 64.8 C 67.4 78.5, 18.0 32.5, 29.8 17.5 C 43.7 7.0, 39.8 18.5, 39.4 13.9 C 23.8 4.6, 56.9 3.8, 66.3 5.3 C 51.2 3.1, 20.3 24.1, 16.5 29.2 Z" fill="hsl(144, 86%, 72%)" fill-opacity="0.35" stroke="none" stroke-width="0.99"  transform="translate(63.9 50.6) rotate(245.7) scale(1.54 1.43)" />
<path d="M 60.5 60.2 C 47.4 57.7, 12.1 20.8, 26.9 16.2 C 14.1 0.0, 40.3 73.3, 48.0 63.2 C 33.4 80.3, 30.8 50.0, 33.2 61.8 C 44.1 52.5, 45.6 100.0, 42.2 99.5 C 51.3 95.3, 92.8 88.9, 88.1 98.1 C 82.9 100.0, 24.7 93.2, 12.6 85.0 Z" fill="hsl(83, 65%, 44%)" fill-opacity="0.54" stroke="none" stroke-width="3.28"  transform="translate(41.9 28.1) rotate(195.8) scale(0.76 1.18)" />
<circle cx="1.4" cy="65.2" r="9.3" fill="hsl(104, 72%, 65%)" fill-opacity="0.49"  transform="translate(15.7 79.7) rotate(332.7) scale(0.74 1.35)" />
<path d="M 65.0 48.5 C 59.9 62.1, 83.9 50.7, 73.3 58.1 C 68.2 72.0, 74.9 54.4, 82.5 48.4 C 64.5 58.0, 87.4 57.1, 79.8 68.9 C 87.3 57.8, 4.8 51.4, 16.8 38.1 C 0.0 41.1, 23.7 34.4, 30.4 35.9 C 45.8 17.7, 51.4 76.0, 65.4 61.9 C 54.4 54.9, 67.7 27.7, 69.6 23.9 C 72.5 16.6, 27.0 91.7, 38.1 87.2 C 47.2 100.0, 53.1 22.8, 42.8 37.4 C 57.9 49.6, 7.3 57.0, 7.3 44.9 Z" fill="hsl(40, 53%, 69%)" fill-opacity="0.32" stroke="none" stroke-width="2.03"  transform="translate(79.5 10.8) rotate(215.7) scale(1.48 0.55)" />
<path d="M 39.0 48.3 C 33.5 35.5, 95.8 53.6, 99.8 65.4 C 80.3 61.8, 26.0 63.4, 25.5 64.2 C 41.4 82.5, 20.7 17.1, 7.7 2.4 C 2.1 3.7, 42.4 74.0, 37.8 70.8 C 25.5 88.6, 53.0 87.9, 51.5 95.0 C 32.7 100.0, 38.8 66.6, 41.9 77.0 Z" fill="none" fill-opacity="0.81" stroke="hsl(2, 82%, 55%)" stroke-width="4.54"  transform="translate(79.2 5.6) rotate(330.8) scale(1.46 1.96)" />
<path d="M 32.5 4.0 C 32.4 0.0, 90.2 0.0, 90.1 5.5 C 100.0 0.0, 15.4 13.3, 28.4 24.3 C 15.3 14.8, 70.9 34.7, 77.2 22.2 C 78.2 24.7, 55.2 100.0, 42.6 95.9 C 57.3 95.6, 81.8 100.0, 92.1 88.5 C 87.1 82.6, 74.7 14.7, 80.8 18.4 C 69.5 28.7, 60.1 96.5, 62.3 99.8 C 66.8 88.2, 7.0 91.1, 11.4 82.2 C 16.7 76.1, 75.1 60.6, 71.3 64.7 Z" fill="hsl(144, 86%, 72%)" fill-opacity="0.53" stroke="none" stroke-width="3.20"  transform="translate(61.0 64.9) rotate(191.7) scale(0.54 0.77)" />
<path d="M 40.7 87.6 C 37.5 95.5, 35.8 75.6, 48.3 85.5 C 66.1 100.0, 90.1 2.6, 84.0 8.1 C 78.9 19.0, 19.5 27.2, 15.2 30.9 C 25.5 28.7, 24.5 22.8, 29.9 11.4 C 33.7 0.0, 83.3 65.6, 91.8 59.3 C 77.2 51.4, 63.4 65.1, 56.6 78.0 C 37.7 89.9, 86.3 24.8, 98.5 27.4 C 85.2 38.8, 17.3 30.2, 20.5 35.9 C 14.5 26.7, 84.8 39.1, 77.4 47.6 Z" fill="hsl(106, 75%, 59%)" fill-opacity="0.79" stroke="none" stroke-width="0.95"  transform="translate(95.5 61.1) rotate(171.6) scale(1.42 1.69)" />
<path d="M 65.4 23.3 C 73.5 30.4, 14.0 16.0, 16.1 16.7 C 13.3 21.9, 37.8 18.3, 45.5 15.3 C 60.8 8.3, 43.7 45.6, 29.5 58.4 C 32.1 63.7, 20.9 35.3, 26.1 36.7 C 42.4 25.6, 50.8 36.8, 43.7 37.2 C 42.7 38.9, 66.2 2.8, 63.1 2.8 C 58.5 3.7, 21.2 7.6, 35.1 6.4 C 27.6 0.0, 19.0 31.5, 26.4 38.2 C 22.6 43.3, 47.9 28.8, 39.0 14.5 C 29.9 21.4, 86.3 27.5, 97.7 42.0 Z" fill="hsl(144, 86%, 72%)" fill-opacity="0.57" stroke="none" stroke-width="2.82"  transform="translate(84.3 6.9) rotate(16.0) scale(1.45 0.54)" />
<path d="M 1.5 26.0 C 0.0 42.6, 49.9 51.5, 64.3 60.7 C 55.5 57.6, 76.6 37.6, 66.8 28.9 C 50.7 15.1, 43.2 48.9, 34.2 50.0 C 39.3 52.8, 41.8 66.0, 38.9 56.1 C 50.4 71.1, 77.5 84.8, 89.0 72.6 C 75.7 86.6, 74.9 91.4, 69.3 89.2 C 77.6 76.8, 58.3 27.2, 62.0 39.6 C 65.1 31.3, 90.6 87.9, 89.7 89.1 C 78.7 100.0, 23.0 58.9, 17.8 63.6 Z" fill="none" fill-opacity="0.92" stroke="hsl(83, 65%, 44%)" stroke-width="4.22"  transform="translate(88.9 98.9) rotate(152.0) scale(1.28 1.40)" />
<rect x="50.6" y="42.0" width="39.9" height="11.2" rx="0" fill="none" fill-opacity="0.69" stroke="hsl(290, 83%, 63%)" stroke-width="1.2"  transform="translate(26.4 72.8) rotate(245.1) scale(1.47 1.58)" />
<rect x="65.5" y="47.6" width="31.8" height="22.7" rx="9.1" fill="none" fill-opacity="0.45"   transform="translate(32.9 14.6) rotate(284.9) scale(1.63 0.59)" />
<path d="M 95.3 48.7 C 85.5 53.5, 52.4 63.7, 40.7 69.0 C 25.6 82.1, 41.4 65.4, 28.0 77.5 C 37.1 65.2, 21.0 53.9, 22.5 45.0 C 17.3 51.3, 52.4 19.0, 42.6 29.6 C 57.0 29.7, 80.3 77.3, 94.4 63.4 C 100.0 64.1, 46.3 49.6, 49.8 46.6 C 33.6 40.0, 78.4 16.4, 66.4 2.6 Z" fill="none" fill-opacity="0.79" stroke="hsl(151, 70%, 62%)" stroke-width="1.02" filter="url(#f1)" transform="translate(80.2 29.1) rotate(299.2) scale(1.56 0.51)" />
<circle cx="46.2" cy="39.8" r="6.5" fill="url(#g1)" fill-opacity="0.86" filter="url(#f1)" transform="translate(36.7 77.6) rotate(192.5) scale(1.87 1.63)" />
<path d="M 29.2 2.5 C 20.2 5.7, 25.7 79.4, 20.9 91.0 C 37.5 100.0, 81.2 35.7, 91.3 49.1 C 100.0 60.3, 65.9 49.3, 74.5 61.0 C 89.0 65.1, 84.2 68.5, 87.1 54.2 C 88.7 38.5, 60.1 76.6, 60.1 71.4 C 71.3 86.6, 86.5 31.8, 81.3 32.5 Z" fill="hsl(242, 72%, 49%)" fill-opacity="0.31" stroke="none" stroke-width="4.00"   />
<rect x="40.0" y="62.6" width="40.3" height="25.4" rx="0" fill="none" fill-opacity="0.25" stroke="hsl(322, 74%, 44%)" stroke-width="1.9"  transform="translate(62.1 27.0) rotate(242.9) scale(0.90 1.75)" />
<path d="M 36.6 34.2 C 25.3 41.8, 33.9 91.6, 38.0 95.1 C 56.4 100.0, 30.7 100.0, 29.0 95.7 C 11.4 83.1, 35.0 43.6, 36.4 44.9 C 29.5 38.0, 24.8 10.0, 16.7 23.1 C 0.0 4.9, 23.3 94.7, 36.5 82.4 C 32.7 84.2, 51.1 56.2, 43.1 42.4 C 54.8 44.0, 89.2 50.8, 78.8 37.8 Z" fill="hsl(290, 83%, 63%)" fill-opacity="0.75" stroke="none" stroke-width="1.17"  transform="translate(6.0 12.0) rotate(135.3) scale(1.03 1.20)" />
<circle cx="55.0" cy="38.0" r="8.1" fill="url(#g0)" fill-opacity="0.90"   />
<path d="M 51.7 55.4 C 37.1 58.0, 51.1 51.3, 38.9 53.6 C 44.4 40.4, 42.3 97.8, 41.3 90.0 C 58.7 70.8, 81.5 84.3, 85.1 94.8 C 97.6 100.0, 23.2 80.0, 17.0 68.0 C 17.2 56.4, 0.0 38.1, 2.4 47.1 C 17.5 38.8, 54.6 87.9, 53.9 94.4 C 49.5 100.0, 91.9 35.3, 98.4 45.8 C 100.0 51.2, 46.6 80.6, 55.0 70.7 C 50.7 77.3, 72.2 59.1, 82.5 53.0 C 98.0 34.5, 85.3 80.0, 87.2 91.0 Z" fill="hsl(2, 82%, 55%)" fill-opacity="0.64" stroke="none" stroke-width="1.36"  transform="translate(45.1 39.7) rotate(168.8) scale(0.96 1.64)" />
<circle cx="65.2" cy="99.9" r="5.9" fill="url(#g2)" fill-opacity="0.44"  transform="translate(35.9 72.6) rotate(162.6) scale(1.29 1.01)" />
<rect x="35.7" y="3.2" width="40.1" height="16.5" rx="0" fill="none" fill-opacity="0.92"   transform="translate(65.2 59.0) rotate(209.9) scale(2.00 0.86)" />
<path d="M 24.0 72.9 C 27.8 79.9, 39.8 48.1, 48.1 61.4 C 66.4 50.5, 44.6 64.7, 35.7 58.8 C 25.3 39.9, 84.4 71.4, 85.2 65.9 C 72.3 75.2, 0.8 73.8, 14.9 79.5 C 5.2 85.6, 84.3 97.7, 74.9 88.5 C 76.3 97.8, 66.6 94.8, 67.8 89.4 C 84.0 84.4, 60.2 61.2, 54.6 62.6 " fill="hsl(290, 83%, 63%)" fill-opacity="0.42" stroke="none" stroke-width="4.53"  transform="translate(4.6 43.4) rotate(296.1) scale(0.71 0.71)" />
<rect x="17.0" y="57.8" width="41.1" height="29.7" rx="0" fill="none" fill-opacity="0.98"   transform="translate(55.8 96.4) rotate(143.8) scale(0.66 0.81)" />
<rect x="19.1" y="17.9" width="43.5" height="35.6" rx="0" fill="none" fill-opacity="0.83"   transform="translate(13.2 66.7) rotate(184.2) scale(1.60 0.97)" />
<rect x="41.3" y="6.7" width="32.3" height="24.5" rx="4.8" fill="hsl(183, 71%, 60%)" fill-opacity="0.39"    />
<circle cx="67.8" cy="60.6" r="9.6" fill="hsl(144, 86%, 72%)" fill-opacity="0.75"  transform="translate(13.2 88.4) rotate(246.6) scale(1.24 0.80)" />
<rect x="17.5" y="56.2" width="47.4" height="25.4" rx="5.2" fill="hsl(242, 72%, 49%)" fill-opacity="0.98" stroke="hsl(183, 71%, 60%)" stroke-width="4.1"   />
<rect x="40.4" y="37.5" width="35.9" height="18.6" rx="11.9" fill="hsl(40, 53%, 69%)" fill-opacity="0.61"   transform="translate(46.8 68.5) rotate(199.1) scale(1.40 0.89)" />
<path d="M 32.4 4.8 C 37.0 0.0, 72.0 89.6, 73.9 90.5 C 86.5 77.1, 42.8 9.4, 48.7 16.5 C 41.9 10.5, 30.1 21.5, 41.1 31.0 C 46.7 22.3, 34.7 28.8, 20.4 36.9 C 31.1 23.5, 52.3 44.8, 53.3 36.1 C 49.6 43.8, 67.4 86.0, 53.5 93.2 C 52.4 100.0, 51.1 59.8, 43.4 64.2 Z" fill="hsl(242, 72%, 49%)" fill-opacity="0.90" stroke="none" stroke-width="3.43"  transform="translate(36.8 52.0) rotate(349.8) scale(1.22 1.25)" />
<rect x="55.3" y="49.7" width="20.0" height="35.3" rx="0" fill="none" fill-opacity="0.70"   transform="translate(70.6 78.7) rotate(37.9) scale(1.73 1.30)" />
<rect x="46.1" y="11.9" width="46.7" height="32.2" rx="0" fill="hsl(86, 72%, 68%)" fill-opacity="0.21"   transform="translate(86.5 23.7) rotate(33.7) scale(0.70 0.82)" />
<circle cx="71.7" cy="50.7" r="2.4" fill="url(#g0)" fill-opacity="0.97"  transform="translate(95.5 51.1) rotate(92.0) scale(1.83 0.82)" />
<path d="M 60.2 51.0 C 43.4 37.0, 99.1 45.6, 85.1 36.7 C 100.0 26.2, 1.1 81.1, 14.5 84.1 C 27.2 68.5, 14.9 65.2, 22.9 68.1 C 31.7 69.9, 23.6 19.3, 23.7 15.1 C 8.6 0.0, 81.8 50.4, 88.4 36.9 C 80.1 55.4, 36.8 75.5, 47.2 78.4 C 49.6 60.9, 88.6 72.7, 95.8 74.7 C 100.0 77.3, 2.5 47.1, 9.9 54.0 C 10.3 45.5, 81.5 57.1, 69.8 43.1 C 50.0 42.2, 38.1 71.1, 38.0 67.2 Z" fill="hsl(322, 74%, 44%)" fill-opacity="0.82" stroke="none" stroke-width="3.71" filter="url(#f1)" transform="translate(29.8 42.9) rotate(122.7) scale(1.26 1.60)" />
<path d="M 3.7 16.0 C 14.6 25.3, 44.9 75.9, 47.2 73.9 C 62.3 88.0, 5.5 61.6, 13.0 58.4 C 29.3 74.3, 32.6 50.1, 24.1 48.2 C 36.1 39.1, 22.6 36.1, 16.4 42.1 C 29.7 33.8, 80.6 82.2, 94.7 83.1 C 87.4 70.1, 13.8 36.7, 15.4 51.0 C 0.0 67.3, 86.1 1.6, 92.0 0.8 C 83.3 0.0, 13.9 18.8, 1.6 29.8 Z" fill="none" fill-opacity="0.43" stroke="hsl(83, 65%, 44%)" stroke-width="1.27"  transform="translate(70.3 1.0) rotate(165.4) scale(1.12 0.89)" />
<rect x="20.9" y="53.6" width="38.3" height="23.4" rx="1.4" fill="none" fill-opacity="0.86"    />
<rect x="57.5" y="2.4" width="36.4" height="38.8" rx="0" fill="hsl(242, 72%, 49%)" fill-opacity="0.47" stroke="hsl(183, 71%, 60%)" stroke-width="3.4"  transform="translate(70.7 93.8) rotate(113.0) scale(0.96 1.86)" />
<path d="M 46.5 51.1 C 48.3 55.6, 26.4 85.5, 36.1 95.6 C 33.1 90.6, 75.2 60.2, 88.7 73.7 C 100.0 91.2, 76.7 17.2, 65.4 25.5 C 58.9 42.0, 35.2 44.9, 37.4 46.8 C 28.0 40.5, 10.0 18.4, 9.9 29.7 C 18.3 33.8, 20.5 63.3, 24.9 49.4 " fill="hsl(2, 82%, 55%)" fill-opacity="0.37" stroke="none" stroke-width="2.17"  transform="translate(80.8 31.7) rotate(168.9) scale(1.41 1.76)" />
<rect x="2.0" y="3.7" width="24.9" height="36.8" rx="0" fill="hsl(86, 72%, 68%)" fill-opacity="0.65"   transform="translate(42.2 49.3) rotate(36.3) scale(1.56 1.28)" />
<path d="M 23.2 34.8 C 15.2 33.2, 0.0 65.3, 0.2 65.5 C 0.0 48.6, 100.0 38.0, 99.0 49.6 C 100.0 53.2, 0.0 88.7, 11.1 97.2 C 15.1 79.5, 9.4 100.0, 20.9 94.1 C 29.8 99.0, 13.9 27.2, 0.5 28.0 C 9.1 44.8, 12.2 59.4, 16.9 65.0 C 23.8 80.2, 0.0 50.5, 7.5 37.0 C 0.0 49.7, 70.3 82.1, 60.6 89.9 C 42.2 89.9, 89.8 66.5, 85.1 73.0 C 86.6 74.6, 91.9 3.8, 77.3 9.2 Z" fill="hsl(86, 72%, 68%)" fill-opacity="0.62" stroke="none" stroke-width="0.93"  transform="translate(3.1 24.5) rotate(258.4) scale(0.98 1.95)" />
<path d="M 78.0 43.8 C 78.5 41.6, 76.9 81.9, 66.4 87.1 C 85.6 90.7, 83.9 81.4, 93.9 70.4 C 100.0 82.0, 65.7 91.8, 79.7 79.9 C 82.6 79.8, 63.2 29.2, 59.8 20.5 C 45.9 14.0, 56.6 0.0, 45.3 4.7 C 63.5 19.1, 59.3 70.1, 46.1 80.8 C 57.9 76.2, 0.0 45.8, 2.2 48.0 C 0.0 64.0, 89.1 36.1, 81.5 26.8 C 62.7 43.6, 4.8 31.0, 9.9 37.9 Z" fill="none" fill-opacity="0.84" stroke="hsl(151, 70%, 62%)" stroke-width="2.00"  transform="translate(29.5 24.5) rotate(328.0) scale(1.05 0.65)" />
<circle cx="73.4" cy="68.8" r="5.8" fill="url(#g2)" fill-opacity="0.52"  transform="translate(22.2 7.9) rotate(109.2) scale(1.86 1.26)" />
<rect x="21.0" y="87.5" width="46.1" height="12.4" rx="0" fill="hsl(322, 74%, 44%)" fill-opacity="0.74"   transform="translate(51.5 68.6) rotate(27.9) scale(0.51 1.50)" />
<path d="M 89.9 30.1 C 78.5 17.0, 45.4 28.9, 31.3 21.5 C 38.9 31.9, 14.4 0.0, 28.5 10.8 C 18.4 0.0, 76.4 32.3, 68.1 38.0 C 57.4 26.8, 46.0 47.3, 36.5 59.4 C 27.0 75.6, 19.1 41.2, 27.8 31.7 C 11.6 26.1, 5.8 79.6, 9.3 93.6 C 14.5 84.2, 32.5 72.5, 36.0 60.9 C 42.9 43.3, 44.6 59.3, 30.8 46.2 " fill="hsl(151, 70%, 62%)" fill-opacity="0.53" stroke="none" stroke-width="0.80"  transform="translate(36.6 32.1) rotate(228.4) scale(0.86 1.86)" />
<path d="M 5.0 98.5 C 5.5 91.9, 69.2 0.0, 56.8 7.5 C 64.1 24.2, 68.5 27.4, 72.9 42.1 C 67.9 32.8, 4.6 9.9, 6.8 16.4 C 0.0 22.2, 91.6 51.5, 94.3 58.1 C 82.8 39.2, 14.4 92.1, 18.0 80.5 C 5.1 84.3, 11.6 8.0, 20.0 22.9 C 23.2 15.6, 96.4 43.9, 95.6 33.2 C 100.0 27.7, 83.5 66.7, 90.6 69.0 C 73.7 54.5, 78.6 13.3, 89.8 19.9 Z" fill="none" fill-opacity="0.89" stroke="hsl(144, 86%, 72%)" stroke-width="1.01"  transform="translate(40.1 37.0) rotate(83.0) scale(0.67 1.09)" />
<circle cx="40.3" cy="20.8" r="0.5" fill="hsl(183, 71%, 60%)" fill-opacity="0.66"   />
<path d="M 39.6 14.0 C 24.4 3.6, 87.6 100.0, 82.0 88.7 C 83.8 74.6, 72.7 62.9, 69.9 66.8 C 82.0 84.0, 61.9 74.3, 48.4 84.1 C 30.4 65.9, 0.0 70.8, 7.3 84.7 C 0.0 100.0, 89.3 80.2, 92.4 68.6 C 76.6 72.6, 2.4 100.0, 16.5 99.9 Z" fill="none" fill-opacity="0.38" stroke="hsl(151, 70%, 62%)" stroke-width="1.63"   />
<path d="M 13.7 75.4 C 21.7 82.9, 1.0 83.1, 7.7 82.3 C 22.4 69.9, 76.5 46.5, 67.7 37.3 C 81.7 23.5, 0.0 41.8, 3.2 56.0 C 0.0 63.7, 95.6 51.6, 89.3 41.0 C 72.3 28.3, 65.1 16.9, 59.1 30.6 C 45.9 31.7, 100.0 100.0, 99.9 96.6 C 94.7 100.0, 26.6 52.6, 25.9 39.1 C 22.8 29.9, 17.6 30.2, 9.9 35.8 Z" fill="hsl(144, 86%, 72%)" fill-opacity="0.28" stroke="none" stroke-width="1.83"  transform="translate(41.5 38.3) rotate(80.1) scale(1.93 1.01)" />
<path d="M 15.2 38.4 C 8.4 48.3, 45.2 65.9, 32.2 79.7 C 21.7 85.9, 27.6 41.6, 27.7 52.2 C 40.1 34.8, 62.8 0.0, 71.7 10.5 C 82.0 19.6, 62.3 94.1, 47.7 81.1 C 49.4 63.7, 64.8 100.0, 76.4 92.2 C 90.4 77.7, 0.0 42.8, 0.3 33.6 Z" fill="hsl(83, 65%, 44%)" fill-opacity="0.84" stroke="none" stroke-width="2.98"  transform="translate(35.9 34.1) rotate(121.0) scale(0.81 0.76)" />
<rect x="34.7" y="22.1" width="48.5" height="18.2" rx="13.6" fill="none" fill-opacity="0.29"   transform="translate(39.1 74.7) rotate(330.8) scale(1.37 0.89)" />
<rect x="44.3" y="82.0" width="29.4" height="10.2" rx="10.1" fill="none" fill-opacity="0.99"    />
<path d="M 17.2 14.6 C 4.1 24.7, 10.7 70.0, 15.7 81.6 C 15.2 70.0, 70.9 36.5, 79.8 38.0 C 87.7 29.4, 49.2 39.2, 58.1 49.2 C 65.9 52.4, 72.1 45.5, 71.6 53.2 C 73.9 44.8, 1.7 99.5, 13.2 90.6 C 7.0 98.6, 57.4 38.1, 69.2 39.9 C 61.8 56.5, 86.4 76.9, 82.9 62.6 C 75.0 53.6, 31.7 99.1, 19.8 85.9 C 26.7 77.1, 26.0 27.6, 25.8 31.4 C 34.1 28.7, 43.4 48.2, 55.4 58.4 Z" fill="hsl(40, 53%, 69%)" fill-opacity="0.62" stroke="none" stroke-width="2.36" filter="url(#f1)" transform="translate(87.8 26.7) rotate(97.0) scale(1.17 1.90)" />
<path d="M 4.6 23.2 C 15.7 5.1, 33.3 80.6, 33.3 67.9 C 37.3 64.3, 58.3 50.1, 68.4 37.7 C 54.0 50.1, 44.9 22.4, 33.9 16.9 C 37.7 26.8, 69.9 62.7, 71.9 67.4 C 53.8 62.4, 23.7 38.2, 36.2 46.6 C 41.6 46.8, 38.4 44.9, 40.9 55.0 C 34.7 63.9, 72.3 100.0, 62.1 98.9 C 49.0 88.6, 100.0 56.0, 98.2 69.5 C 90.8 64.0, 67.9 79.3, 61.4 84.9 Z" fill="hsl(144, 86%, 72%)" fill-opacity="0.41" stroke="none" stroke-width="1.80"  transform="translate(15.6 92.1) rotate(6.2) scale(1.70 1.43)" />
<rect x="0.8" y="64.5" width="29.1" height="16.2" rx="0" fill="hsl(151, 70%, 62%)" fill-opacity="0.87" stroke="hsl(144, 86%, 72%)" stroke-width="2.8"  transform="translate(92.7 78.9) rotate(147.1) scale(1.46 0.70)" />
<rect x="0.5" y="82.3" width="46.9" height="16.7" rx="5.3" fill="hsl(86, 72%, 68%)" fill-opacity="0.51"   transform="translate(73.0 57.1) rotate(235.6) scale(1.99 1.86)" />
<circle cx="68.8" cy="62.3" r="18.2" fill="url(#g2)" fill-opacity="0.64"  transform="translate(69.3 80.8) rotate(38.2) scale(0.58 1.23)" />
<path d="M 41.5 71.7 C 55.5 65.0, 15.0 66.7, 8.9 61.0 C 0.0 55.7, 32.5 75.0, 39.3 72.8 C 20.4 73.8, 85.8 41.8, 97.7 38.8 C 93.7 25.4, 71.2 51.4, 73.4 51.7 C 87.5 47.9, 61.8 92.2, 65.2 91.1 C 81.7 84.7, 28.2 66.2, 32.5 60.5 C 33.6 48.5, 69.5 29.8, 66.0 17.2 C 60.0 0.5, 50.4 11.3, 39.7 6.8 C 57.7 12.9, 59.4 100.0, 54.1 87.9 Z" fill="hsl(322, 74%, 44%)" fill-opacity="0.31" stroke="none" stroke-width="3.51" filter="url(#f1)" transform="translate(21.9 50.1) rotate(124.8) scale(1.90 1.11)" />
<path d="M 47.0 24.0 C 66.2 15.9, 24.0 69.0, 23.9 72.7 C 10.8 80.0, 25.6 23.1, 30.8 37.4 C 18.9 51.3, 49.8 86.5, 62.8 92.5 C 68.8 79.6, 81.4 49.2, 86.8 43.6 C 79.7 42.2, 41.1 27.1, 51.0 37.7 C 37.5 19.7, 21.7 97.3, 10.7 85.4 C 5.9 76.5, 44.1 0.0, 43.0 7.1 Z" fill="hsl(183, 71%, 60%)" fill-opacity="0.83" stroke="none" stroke-width="2.17"  transform="translate(38.4 9.4) rotate(144.4) scale(1.14 0.58)" />
<path d="M 30.6 61.2 C 13.4 59.9, 70.9 64.9, 83.2 72.4 C 75.6 55.1, 9.6 3.2, 22.4 2.7 C 13.4 5.7, 100.0 51.3, 97.8 46.2 C 100.0 28.2, 55.4 48.8, 57.0 38.9 C 71.3 24.3, 81.6 80.6, 80.7 72.9 C 70.8 75.7, 97.6 50.9, 96.6 60.5 C 92.5 57.7, 91.6 47.6, 88.3 56.9 Z" fill="hsl(322, 74%, 44%)" fill-opacity="0.74" stroke="none" stroke-width="1.75"  transform="translate(98.9 90.4) rotate(98.8) scale(1.88 1.16)" />
<circle cx="97.7" cy="69.2" r="8.1" fill="hsl(106, 75%, 59%)" fill-opacity="0.86"  transform="translate(87.9 14.1) rotate(227.9) scale(0.79 1.51)" />
<circle cx="84.4" cy="38.5" r="20.5" fill="hsl(290, 83%, 63%)" fill-opacity="0.87"   />
<path d="M 3.1 76.8 C 0.0 70.9, 64.9 18.1, 60.3 17.6 C 49.0 13.4, 52.4 14.8, 42.9 2.0 C 53.8 0.0, 0.0 54.4, 4.4 56.6 C 5.2 42.3, 39.8 10.2, 48.1 4.8 C 62.7 22.2, 28.8 73.7, 18.6 85.2 C 7.4 100.0, 89.7 70.5, 91.8 81.2 Z" fill="hsl(151, 70%, 62%)" fill-opacity="0.78" stroke="none" stroke-width="4.08"  transform="translate(85.1 16.1) rotate(123.6) scale(1.17 1.88)" />
<rect x="56.9" y="81.7" width="23.9" height="16.2" rx="5.5" fill="hsl(290, 83%, 63%)" fill-opacity="0.25"    />
<rect x="37.3" y="11.7" width="41.9" height="35.4" rx="2.7" fill="hsl(86, 72%, 68%)" fill-opacity="0.23"  filter="url(#f1)"  />
<circle cx="72.8" cy="84.9" r="2.9" fill="url(#g1)" fill-opacity="0.55"  transform="translate(15.5 37.6) rotate(275.0) scale(1.87 0.86)" />
<path d="M 21.0 65.3 C 39.1 64.5, 73.2 100.0, 81.0 97.1 C 72.5 100.0, 10.6 47.7, 7.1 55.9 C 6.7 41.3, 28.1 38.3, 29.5 47.6 C 21.1 32.4, 41.1 75.9, 28.8 64.8 C 12.1 56.1, 35.4 35.0, 22.0 43.1 C 3.7 32.1, 49.4 52.9, 57.0 64.1 C 67.5 66.5, 87.6 57.9, 82.4 44.3 C 86.0 34.6, 15.9 55.8, 26.2 63.8 Z" fill="hsl(86, 72%, 68%)" fill-opacity="0.41" stroke="none" stroke-width="5.16"  transform="translate(87.8 13.5) rotate(237.1) scale(1.77 1.51)" />
<circle cx="71.1" cy="65.1" r="4.5" fill="url(#g1)" fill-opacity="0.97"  transform="translate(43.1 53.8) rotate(19.0) scale(0.69 0.86)" />
<circle cx="74.6" cy="88.5" r="6.7" fill="url(#g1)" fill-opacity="0.94"  transform="translate(11.9 30.8) rotate(258.0) scale(1.81 1.70)" />
<circle cx="54.0" cy="81.8" r="17.7" fill="hsl(40, 53%, 69%)" fill-opacity="0.77"  transform="translate(47.1 37.3) rotate(46.7) scale(1.98 1.14)" />
<path d="M 37.9 66.6 C 45.9 50.9, 99.6 70.3, 99.6 58.6 C 91.7 50.4, 90.1 60.6, 90.2 61.7 C 96.3 45.9, 33.8 16.9, 22.8 19.0 C 2.9 29.7, 81.8 100.0, 89.3 93.6 C 72.5 100.0, 93.9 24.6, 91.1 30.3 C 97.8 46.9, 86.3 100.0, 81.2 99.2 C 74.2 81.5, 1.6 56.7, 3.2 43.8 " fill="hsl(322, 74%, 44%)" fill-opacity="0.47" stroke="none" stroke-width="3.23"  transform="translate(9.2 58.7) rotate(312.4) scale(0.99 0.62)" />
<path d="M 29.0 87.0 C 42.2 100.0, 25.7 53.2, 22.8 63.6 C 21.8 47.0, 93.1 12.3, 92.5 7.0 C 78.2 17.5, 23.2 14.9, 33.6 3.5 C 47.7 16.6, 48.9 88.4, 38.0 87.9 C 30.5 100.0, 54.8 0.0, 47.2 5.4 C 44.7 8.1, 10.7 76.8, 14.6 83.5 Z" fill="none" fill-opacity="0.55" stroke="hsl(106, 75%, 59%)" stroke-width="1.82"  transform="translate(37.5 85.0) rotate(226.2) scale(0.63 1.95)" />
<path d="M 79.3 97.6 C 65.4 79.3, 66.4 16.0, 78.1 8.8 C 73.7 11.0, 78.1 6.1, 70.3 2.7 C 78.6 8.3, 49.4 60.5, 58.9 59.7 C 76.3 72.3, 0.0 79.6, 5.0 87.6 C 0.0 69.8, 74.8 43.6, 64.5 44.5 C 82.2 62.9, 11.8 10.3, 2.0 11.9 C 8.0 6.1, 32.1 99.7, 41.0 88.7 Z" fill="none" fill-opacity="0.54" stroke="hsl(242, 72%, 49%)" stroke-width="1.95"  transform="translate(83.1 79.1) rotate(96.3) scale(0.63 1.68)" />
<path d="M 92.1 58.1 C 74.0 61.6, 67.5 98.9, 59.3 87.6 C 60.7 100.0, 23.3 27.7, 31.4 32.6 C 39.3 48.1, 11.1 7.7, 16.0 1.8 C 5.4 9.7, 72.4 91.0, 65.2 94.6 C 74.5 82.1, 57.5 0.0, 43.2 6.2 C 54.2 25.7, 30.0 26.0, 22.3 32.2 C 29.6 32.8, 12.2 91.3, 3.3 82.8 " fill="none" fill-opacity="0.43" stroke="hsl(290, 83%, 63%)" stroke-width="1.74"  transform="translate(27.0 86.8) rotate(34.7) scale(1.11 0.62)" />
<path d="M 44.5 49.9 C 47.9 44.8, 79.4 86.5, 66.1 82.8 C 55.0 75.4, 68.6 0.0, 83.4 1.6 C 85.1 20.3, 7.9 80.0, 12.0 65.6 C 9.5 47.4, 89.6 16.3, 93.0 21.5 C 87.6 16.7, 49.6 67.0, 57.4 68.3 C 66.0 50.5, 13.0 50.1, 22.0 52.1 C 31.7 37.3, 0.0 37.2, 2.7 50.4 C 0.0 47.7, 100.0 21.6, 98.9 24.3 C 99.1 43.1, 97.4 95.1, 96.9 90.7 Z" fill="hsl(144, 86%, 72%)" fill-opacity="0.82" stroke="none" stroke-width="3.09"  transform="translate(44.8 97.9) rotate(178.5) scale(1.65 1.68)" />
<path d="M 26.7 60.4 C 14.6 61.6, 80.2 84.1, 83.4 77.3 C 81.5 66.4, 31.8 28.7, 26.7 30.0 C 43.6 14.5, 16.7 67.9, 3.9 72.7 C 0.0 61.1, 74.5 60.2, 61.8 46.8 C 78.0 28.9, 65.1 90.2, 64.6 94.5 C 77.5 93.0, 59.6 72.9, 66.0 80.3 Z" fill="none" fill-opacity="0.78" stroke="hsl(2, 82%, 55%)" stroke-width="4.77" filter="url(#f1)"  />
<rect x="53.4" y="30.4" width="33.0" height="31.7" rx="14.3" fill="hsl(322, 74%, 44%)" fill-opacity="0.51"   transform="translate(34.3 65.7) rotate(240.8) scale(1.42 1.18)" />
<path d="M 24.2 81.9 C 37.3 71.3, 65.2 92.6, 77.6 83.7 C 83.7 70.3, 76.5 56.2, 65.6 46.1 C 46.0 53.4, 51.1 76.9, 41.1 79.6 C 25.2 67.7, 57.6 66.6, 50.1 67.0 C 43.9 56.7, 85.5 7.4, 86.3 8.5 C 100.0 25.5, 38.7 63.5, 27.6 60.5 C 14.3 55.3, 14.1 44.2, 7.4 42.0 Z" fill="none" fill-opacity="0.35" stroke="hsl(144, 86%, 72%)" stroke-width="2.56" filter="url(#f1)"  />
<rect x="35.8" y="6.9" width="36.4" height="37.2" rx="0" fill="hsl(106, 75%, 59%)" fill-opacity="0.78"   transform="translate(56.0 8.7) rotate(152.2) scale(0.83 1.24)" />
<rect x="29.1" y="28.0" width="20.5" height="17.9" rx="0" fill="hsl(40, 53%, 69%)" fill-opacity="0.24"   transform="translate(62.0 28.3) rotate(131.3) scale(1.00 0.62)" />
<path d="M 69.0 41.8 C 62.0 57.0, 83.6 67.6, 74.2 65.2 C 67.3 70.8, 62.7 89.8, 60.3 90.6 C 46.8 100.0, 14.4 13.1, 4.8 17.0 C 9.0 21.6, 60.8 18.3, 69.7 8.0 C 60.0 0.0, 21.9 50.0, 7.5 55.4 C 2.6 46.2, 55.4 26.7, 58.1 37.4 C 61.2 18.6, 48.4 86.0, 41.0 97.9 Z" fill="none" fill-opacity="0.96" stroke="hsl(83, 65%, 44%)" stroke-width="3.11"   />
<path d="M 2.8 83.2 C 20.8 70.2, 52.2 74.3, 44.3 61.3 C 32.5 81.1, 99.0 26.2, 97.1 26.3 C 99.7 25.7, 72.3 12.0, 72.5 17.3 C 66.8 22.7, 97.3 42.2, 84.0 28.3 C 96.4 45.1, 84.5 74.6, 69.6 68.8 C 59.6 79.7, 59.6 0.0, 49.7 0.1 Z" fill="none" fill-opacity="0.96" stroke="hsl(104, 72%, 65%)" stroke-width="3.54"  transform="translate(43.3 80.2) rotate(190.9) scale(1.86 1.36)" />
<path d="M 44.2 10.3 C 60.5 20.7, 12.4 62.2, 9.8 56.1 C 0.0 75.1, 82.4 16.5, 87.9 23.1 C 72.1 35.9, 73.3 0.5, 83.0 14.4 C 99.0 22.7, 48.8 79.9, 56.8 91.1 C 53.7 76.0, 85.5 76.1, 95.7 85.6 C 76.0 78.8, 47.4 32.1, 39.9 30.0 C 42.8 23.8, 79.6 87.2, 70.5 95.1 C 86.8 96.0, 15.0 99.0, 0.7 94.4 C 0.0 100.0, 35.4 92.6, 41.3 91.6 C 35.1 81.1, 78.6 35.9, 86.2 22.3 Z" fill="hsl(290, 83%, 63%)" fill-opacity="0.36" stroke="none" stroke-width="4.78"  transform="translate(18.8 21.9) rotate(72.6) scale(0.70 1.78)" />
<path d="M 90.2 2.1 C 84.9 3.0, 40.7 31.5, 52.8 18.9 C 49.2 7.2, 86.4 15.1, 74.1 24.7 C 87.7 9.1, 0.0 50.5, 2.4 37.4 C 0.6 46.6, 24.1 72.0, 23.5 57.8 C 35.0 61.6, 90.5 39.8, 79.9 54.3 C 71.0 38.6, 26.0 89.4, 36.1 99.7 C 26.7 100.0, 60.0 31.7, 71.5 32.8 C 81.6 35.1, 0.0 66.8, 1.4 63.2 C 10.9 73.4, 35.8 0.0, 21.4 6.7 C 36.2 0.0, 85.4 54.0, 80.7 48.2 Z" fill="hsl(144, 86%, 72%)" fill-opacity="0.88" stroke="none" stroke-width="3.00"  transform="translate(79.4 99.2) rotate(199.6) scale(1.53 0.58)" />
<circle cx="49.3" cy="17.2" r="13.4" fill="url(#g0)" fill-opacity="0.45"   />
<rect x="26.1" y="66.1" width="23.1" height="16.5" rx="0" fill="none" fill-opacity="0.21"   transform="translate(17.6 12.7) rotate(278.8) scale(1.65 1.18)" />
<rect x="58.1" y="69.2" width="37.3" height="20.4" rx="0" fill="none" fill-opacity="0.74"  filter="url(#f1)" transform="translate(21.4 13.7) rotate(247.5) scale(1.35 1.79)" />
<circle cx="17.9" cy="51.4" r="3.2" fill="url(#g0)" fill-opacity="0.72"  transform="translate(16.5 15.0) rotate(44.8) scale(1.44 1.50)" />
<rect x="12.7" y="32.6" width="38.1" height="13.1" rx="17.0" fill="hsl(106, 75%, 59%)" fill-opacity="0.60"   transform="translate(22.9 8.9) rotate(92.3) scale(0.92 1.59)" />
<path d="M 15.9 21.6 C 0.0 17.1, 36.1 44.1, 28.9 45.5 C 9.6 58.0, 27.0 20.8, 38.5 28.6 C 50.6 20.5, 40.9 79.8, 51.9 86.8 C 46.4 67.5, 45.4 59.2, 46.6 49.9 C 32.3 40.8, 51.9 44.0, 47.5 51.0 C 30.9 52.0, 19.8 52.6, 10.2 41.1 C 0.0 41.5, 50.1 56.8, 51.5 47.2 C 45.3 49.6, 20.3 33.4, 11.9 23.6 C 17.0 35.2, 58.3 13.2, 47.3 3.8 C 28.9 0.0, 11.3 67.9, 20.1 71.8 Z" fill="none" fill-opacity="0.90" stroke="hsl(2, 82%, 55%)" stroke-width="3.21"  transform="translate(71.9 82.1) rotate(218.7) scale(0.79 1.61)" />
<path d="M 51.9 6.9 C 67.1 21.1, 75.8 49.3, 83.2 62.6 C 67.0 68.3, 35.7 0.0, 27.4 4.2 C 11.1 6.0, 44.3 40.0, 44.8 42.4 C 26.2 37.2, 72.3 72.3, 86.7 58.7 C 84.2 47.0, 39.5 71.0, 29.3 73.0 C 22.4 74.5, 29.7 67.1, 27.9 75.4 C 45.8 77.5, 50.8 50.6, 38.6 40.4 Z" fill="hsl(183, 71%, 60%)" fill-opacity="0.39" stroke="none" stroke-width="4.49" filter="url(#f1)" transform="translate(65.0 39.9) rotate(6.0) scale(1.35 1.64)" />
<path d="M 68.6 78.9 C 77.1 68.9, 86.9 26.1, 80.2 31.9 C 100.0 48.9, 94.6 33.6, 87.4 45.2 C 81.0 43.4, 6.5 47.8, 13.6 36.8 C 2.7 47.8, 57.6 98.3, 63.9 91.7 C 51.9 89.3, 61.6 73.8, 55.6 64.4 C 58.1 49.9, 50.5 36.2, 43.1 37.9 C 30.3 34.2, 26.8 72.0, 36.1 71.9 Z" fill="hsl(183, 71%, 60%)" fill-opacity="0.53" stroke="none" stroke-width="1.41" filter="url(#f1)"  />
<rect x="62.1" y="59.5" width="31.7" height="29.2" rx="0" fill="none" fill-opacity="0.27" stroke="hsl(144, 86%, 72%)" stroke-width="2.9" filter="url(#f1)" transform="translate(93.9 93.8) rotate(142.9) scale(0.84 1.43)" />
<rect x="31.0" y="7.0" width="46.8" height="17.7" rx="11.0" fill="hsl(2, 82%, 55%)" fill-opacity="0.72"   transform="translate(58.5 65.4) rotate(147.8) scale(1.19 1.13)" />
<path d="M 32.7 72.9 C 31.5 68.4, 15.2 14.4, 0.9 13.9 C 20.8 24.3, 70.5 90.0, 72.3 84.6 C 86.5 73.6, 52.3 0.0, 53.4 4.6 C 51.4 1.6, 69.7 50.9, 82.7 47.0 C 64.4 47.4, 100.0 9.1, 89.6 3.8 C 74.9 0.0, 47.3 54.6, 45.6 60.5 C 36.0 63.6, 23.0 36.4, 34.9 39.7 C 39.3 49.6, 0.6 30.5, 10.8 21.9 C 15.7 32.9, 14.4 96.2, 6.8 92.5 Z" fill="none" fill-opacity="0.99" stroke="hsl(106, 75%, 59%)" stroke-width="2.01"  transform="translate(49.9 2.2) rotate(46.5) scale(1.83 1.52)" />
<path d="M 42.7 39.6 C 55.3 33.7, 66.9 26.4, 62.1 13.5 C 60.7 8.6, 48.7 12.9, 50.9 6.7 C 49.6 10.9, 52.0 61.8, 38.0 62.5 C 46.5 61.0, 0.0 85.2, 6.0 95.0 C 0.0 78.7, 73.3 42.0, 69.9 48.7 C 78.7 66.2, 98.8 84.5, 95.6 78.7 C 100.0 68.7, 63.6 100.0, 63.8 98.2 C 63.1 87.8, 12.3 91.6, 3.8 79.9 Z" fill="none" fill-opacity="0.32" stroke="hsl(83, 65%, 44%)" stroke-width="1.09"  transform="translate(21.8 7.8) rotate(48.6) scale(1.10 1.24)" />
<circle cx="76.5" cy="32.5" r="8.2" fill="url(#g0)" fill-opacity="0.95"  transform="translate(42.0 86.7) rotate(245.9) scale(1.51 1.51)" />
<circle cx="29.0" cy="61.8" r="4.7" fill="hsl(104, 72%, 65%)" fill-opacity="0.57"   />
<rect x="10.0" y="14.3" width="22.1" height="15.4" rx="0" fill="none" fill-opacity="0.25"   transform="translate(53.4 95.2) rotate(99.9) scale(0.75 1.90)" />
<path d="M 11.0 77.5 C 22.5 60.0, 59.3 53.1, 54.0 43.0 C 63.1 37.0, 46.3 83.0, 48.6 70.4 C 34.5 67.1, 72.2 31.9, 61.9 41.1 C 65.6 27.2, 0.0 42.2, 6.1 57.1 C 13.8 39.6, 21.6 83.9, 6.7 78.5 C 0.0 80.9, 30.6 21.5, 29.0 6.7 C 21.3 25.0, 36.8 58.1, 34.0 63.0 C 31.5 76.4, 82.9 69.7, 93.5 58.2 C 76.3 74.6, 56.4 81.4, 69.7 72.4 C 67.8 86.3, 87.3 62.8, 83.5 75.7 Z" fill="hsl(183, 71%, 60%)" fill-opacity="0.48" stroke="none" stroke-width="3.34"  transform="translate(93.4 39.8) rotate(187.8) scale(1.18 1.50)" />
<path d="M 61.6 48.6 C 76.1 55.9, 33.3 2.5, 28.7 16.1 C 10.2 0.0, 16.3 81.3, 3.8 87.8 C 4.6 100.0, 56.7 85.8, 70.6 96.7 C 65.1 99.0, 35.4 31.9, 26.2 28.7 C 21.5 34.2, 90.8 4.5, 94.2 9.3 C 90.7 11.4, 63.6 77.0, 64.0 74.9 C 83.3 74.6, 56.5 1.4, 61.1 10.5 " fill="hsl(151, 70%, 62%)" fill-opacity="0.59" stroke="none" stroke-width="1.76"  transform="translate(54.3 30.8) rotate(305.7) scale(1.78 1.27)" />
<path d="M 38.3 20.9 C 54.7 35.8, 16.8 69.1, 4.7 67.0 C 15.0 86.7, 13.6 66.9, 16.5 54.8 C 20.7 48.4, 100.0 100.0, 95.7 96.5 C 100.0 98.5, 0.0 90.1, 1.8 80.9 C 18.8 86.1, 31.2 18.7, 25.8 6.1 C 27.4 24.4, 38.6 87.0, 42.8 86.4 C 52.1 80.8, 0.0 87.3, 12.8 85.5 C 10.8 79.9, 45.3 92.2, 42.7 78.4 C 30.1 71.6, 88.6 42.4, 79.8 48.7 C 61.0 56.5, 100.0 91.1, 90.2 88.4 Z" fill="hsl(83, 65%, 44%)" fill-opacity="0.96" stroke="none" stroke-width="3.59"  transform="translate(76.1 90.3) rotate(157.8) scale(1.95 1.12)" />
<path d="M 52.6 27.8 C 40.0 11.9, 22.7 0.0, 11.9 0.9 C 12.3 0.0, 46.2 7.4, 41.2 3.7 C 31.5 16.7, 88.8 43.7, 95.8 57.6 C 100.0 63.7, 67.4 23.8, 62.1 35.8 C 81.4 34.9, 0.1 20.6, 4.4 30.6 C 18.2 41.6, 0.0 89.7, 12.2 83.0 C 27.1 77.5, 62.5 69.8, 51.3 82.1 Z" fill="none" fill-opacity="0.33" stroke="hsl(83, 65%, 44%)" stroke-width="1.98" filter="url(#f1)" transform="translate(77.5 2.6) rotate(121.6) scale(0.69 1.35)" />
<rect x="33.9" y="21.1" width="43.7" height="33.7" rx="13.9" fill="none" fill-opacity="0.49" stroke="hsl(151, 70%, 62%)" stroke-width="1.1"   />
<g opacity="0.080">
<rect x="0" y="0" width="1" height="100" fill="black" />
<rect x="22" y="0" width="1" height="100" fill="black" />
<rect x="44" y="0" width="1" height="100" fill="black" />
<rect x="66" y="0" width="1" height="100" fill="black" />
<rect x="88" y="0" width="1" height="100" fill="black" />
<rect x="0" y="0" width="100" height="1" fill="black" />
<rect x="0" y="22" width="100" height="1" fill="black" />
<rect x="0" y="44" width="100" height="1" fill="black" />
<rect x="0" y="66" width="100" height="1" fill="black" />
<rect x="0" y="88" width="100" height="1" fill="black" />
</g>

</svg>
