<?xml version="1.0" encoding="UTF-8"?>
<svg xmlns="http://www.w3.org/2000/svg" width="100" height="100" viewBox="0 0 100 100">
<defs>
<linearGradient id="g0" x1="0%" y1="0%" x2="100%" y2="100%">
<stop offset="0.0%" stop-color="hsl(106, 75%, 59%)" />
<stop offset="33.3%" stop-color="hsl(183, 71%, 60%)" />
<stop offset="66.7%" stop-color="hsl(242, 72%, 49%)" />
<stop offset="100.0%" stop-color="hsl(322, 74%, 44%)" />
</linearGradient>
<linearGradient id="g1" x1="0%" y1="0%" x2="100%" y2="100%">
<stop offset="0.0%" stop-color="hsl(290, 83%, 63%)" />
<stop offset="33.3%" stop-color="hsl(2, 82%, 55%)" />
<stop offset="66.7%" stop-color="hsl(86, 72%, 68%)" />
<stop offset="100.0%" stop-color="hsl(83, 65%, 44%)" />
</linearGradient>
<linearGradient id="g2" x1="0%" y1="0%" x2="100%" y2="100%">
<stop offset="0.0%" stop-color="hsl(40, 53%, 69%)" />
<stop offset="33.3%" stop-color="hsl(104, 72%, 65%)" />
<stop offset="66.7%" stop-color="hsl(144, 86%, 72%)" />
<stop offset="100.0%" stop-color="hsl(151, 70%, 62%)" />
</linearGradient>
</defs>

<path d="M 4.3 53.7 C 1.6 44.9, 58.3 83.7, 53.4 88.1 C 54.0 69.1, 100.0 11.7, 92.8 10.4 C 86.7 0.0, 55.6 16.2, 50.2 13.4 C 68.3 0.0, 93.0 86.1, 82.2 98.9 " fill="hsl(104, 72%, 65%)" fill-opacity="0.37" stroke="none" stroke-width="1.24"   />
<rect x="53.3" y="38.0" width="28.4" height="15.2" rx="17.2" fill="none" fill-opacity="0.26"    />
<path d="M 35.6 82.6 C 54.0 95.2, 43.0 70.4, 55.3 62.8 C 70.3 52.1, 9.9 0.0, 7.4 2.0 C 4.2 17.5, 73.3 100.0, 62.7 93.3 C 77.3 91.5, 27.1 42.0, 25.7 32.0 C 20.8 12.7, 65.4 76.3, 62.4 71.4 " fill="hsl(144, 86%, 72%)" fill-opacity="0.99" stroke="none" stroke-width="0.89"   />
<circle cx="14.8" cy="45.0" r="0.7" fill="hsl(144, 86%, 72%)" fill-opacity="0.40"  transform="translate(23.5 89.9) rotate(95.7) scale(1.79 0.91)" />
<rect x="54.4" y="18.3" width="34.0" height="17.0" rx="11.0" fill="hsl(242, 72%, 49%)" fill-opacity="0.49"   transform="translate(24.0 7.7) rotate(71.4) scale(1.13 0.96)" />
<path d="M 78.5 62.9 C 80.3 72.1, 49.8 15.1, 43.0 8.8 C 49.7 3.4, 31.7 21.7, 21.2 24.3 C 4.2 37.9, 69.6 44.8, 74.6 56.2 C 65.0 46.8, 38.1 0.0, 28.5 1.4 C 17.9 16.9, 75.0 92.4, 61.5 78.8 C 76.0 66.4, 95.7 26.7, 87.2 26.0 Z" fill="none" fill-opacity="0.79" stroke="hsl(290, 83%, 63%)" stroke-width="1.23"  transform="translate(38.0 21.8) rotate(247.6) scale(0.78 1.08)" />
<rect x="62.2" y="36.3" width="33.7" height="38.3" rx="0" fill="none" fill-opacity="0.56"   transform="translate(9.3 60.0) rotate(244.6) scale(0.96 1.39)" />
<path d="M 81.0 94.2 C 78.0 100.0, 54.9 81.7, 58.3 79.2 C 47.1 61.1, 35.5 23.2, 21.3 35.7 C 5.7 31.9, 90.0 0.0, 85.9 7.3 C 97.7 25.7, 80.8 70.5, 67.2 75.0 C 57.0 62.6, 82.7 42.5, 74.8 37.9 C 81.9 20.0, 100.0 28.4, 93.5 21.6 " fill="hsl(40, 53%, 69%)" fill-opacity="0.52" stroke="none" stroke-width="1.01"  transform="translate(47.7 45.3) rotate(154.0) scale(1.42 0.74)" />
<path d="M 67.3 3.2 C 68.2 0.0, 26.5 48.4, 29.9 37.9 C 48.1 36.8, 50.0 12.5, 48.1 3.6 C 48.7 1.7, 70.2 14.8, 72.1 22.2 C 53.2 20.1, 11.0 99.7, 6.3 97.4 C 0.0 77.9, 65.5 0.0, 55.8 5.1 " fill="none" fill-opacity="0.78" stroke="hsl(83, 65%, 44%)" stroke-width="0.84"   />
<path d="M 39.5 56.1 C 30.1 66.2, 86.8 73.8, 92.8 88.5 C 100.0 100.0, 60.8 77.8, 51.2 63.6 C 35.7 67.1, 63.0 26.9, 71.8 19.7 C 55.5 8.8, 72.6 67.3, 67.8 71.4 C 69.8 90.6, 57.7 4.7, 71.8 9.0 C 78.2 1.1, 100.0 15.2, 98.3 24.4 Z" fill="hsl(144, 86%, 72%)" fill-opacity="0.33" stroke="none" stroke-width="0.96"  transform="translate(27.5 0.6) rotate(47.1) scale(1.74 1.89)" />
<rect x="47.3" y="14.5" width="42.4" height="30.0" rx="0" fill="hsl(242, 72%, 49%)" fill-opacity="0.48" stroke="hsl(322, 74%, 44%)" stroke-width="2.6"  transform="translate(38.7 91.4) rotate(7.0) scale(1.71 1.80)" />
<path d="M 62.3 41.2 C 59.4 51.0, 13.9 21.2, 14.5 13.8 C 14.7 3.5, 47.2 23.0, 51.4 23.9 C 63.0 38.6, 0.0 88.5, 0.7 85.1 C 13.6 93.8, 0.0 12.4, 3.5 16.1 C 22.8 30.8, 14.0 69.1, 10.8 67.3 " fill="none" fill-opacity="0.94" stroke="hsl(2, 82%, 55%)" stroke-width="1.00"   />
<rect x="32.8" y="66.1" width="49.8" height="15.0" rx="0" fill="none" fill-opacity="0.24"   transform="translate(8.6 35.7) rotate(34.7) scale(0.76 0.53)" />
<path d="M 66.7 34.3 C 57.9 47.4, 36.7 52.2, 40.4 48.9 C 24.0 33.2, 9.6 84.4, 23.6 76.6 C 9.5 68.0, 0.0 82.9, 3.0 82.2 C 0.0 92.2, 90.0 86.1, 82.7 98.4 C 78.8 100.0, 79.6 41.4, 90.4 48.8 " fill="hsl(106, 75%, 59%)" fill-opacity="0.73" stroke="none" stroke-width="0.93"   />
</svg>
