<?xml version="1.0" encoding="UTF-8"?>
<svg xmlns="http://www.w3.org/2000/svg" width="100" height="100" viewBox="0 0 100 100">
<defs>
<linearGradient id="g0" x1="0%" y1="0%" x2="100%" y2="100%">
<stop offset="0.0%" stop-color="hsl(106, 75%, 59%)" />
<stop offset="33.3%" stop-color="hsl(183, 71%, 60%)" />
<stop offset="66.7%" stop-color="hsl(242, 72%, 49%)" />
<stop offset="100.0%" stop-color="hsl(322, 74%, 44%)" />
</linearGradient>
<linearGradient id="g1" x1="0%" y1="0%" x2="100%" y2="100%">
<stop offset="0.0%" stop-color="hsl(290, 83%, 63%)" />
<stop offset="33.3%" stop-color="hsl(2, 82%, 55%)" />
<stop offset="66.7%" stop-color="hsl(86, 72%, 68%)" />
<stop offset="100.0%" stop-color="hsl(83, 65%, 44%)" />
</linearGradient>
<linearGradient id="g2" x1="0%" y1="0%" x2="100%" y2="100%">
<stop offset="0.0%" stop-color="hsl(40, 53%, 69%)" />
<stop offset="33.3%" stop-color="hsl(104, 72%, 65%)" />
<stop offset="66.7%" stop-color="hsl(144, 86%, 72%)" />
<stop offset="100.0%" stop-color="hsl(151, 70%, 62%)" />
</linearGradient>
</defs>

<path d="M 35.9 52.5 C 38.2 50.7, 53.3 87.4, 55.0 95.7 C 44.5 100.0, 8.8 9.3, 22.4 16.7 C 36.5 5.3, 0.0 11.6, 3.4 6.5 C 0.0 14.5, 58.7 3.1, 66.2 10.2 C 57.6 17.3, 13.4 78.1, 20.6 85.2 C 11.3 74.6, 100.0 50.4, 95.8 64.6 C 77.3 74.5, 51.7 51.3, 65.8 49.1 " fill="hsl(104, 72%, 65%)" fill-opacity="0.72" stroke="none" stroke-width="1.00"  transform="translate(46.7 40.7) rotate(327.9) scale(0.99 1.57)" />
<rect x="44.3" y="53.5" width="29.7" height="15.6" rx="13.7" fill="hsl(40, 53%, 69%)" fill-opacity="0.77"    />
<circle cx="39.3" cy="1.1" r="1.8" fill="hsl(2, 82%, 55%)" fill-opacity="0.72"   />
<rect x="4.6" y="6.6" width="49.9" height="16.6" rx="0" fill="hsl(322, 74%, 44%)" fill-opacity="0.34"   transform="translate(32.8 47.0) rotate(141.9) scale(1.47 1.51)" />
<circle cx="42.8" cy="59.4" r="0.1" fill="hsl(183, 71%, 60%)" fill-opacity="0.65"   />
<path d="M 59.4 63.7 C 47.8 76.0, 80.4 10.1, 66.9 19.5 C 60.7 39.0, 62.0 88.5, 72.5 93.7 C 78.0 85.0, 5.7 36.4, 15.3 21.6 C 12.0 31.0, 24.7 76.7, 12.8 80.9 C 10.4 80.4, 9.5 45.7, 22.9 49.8 Z" fill="hsl(151, 70%, 62%)" fill-opacity="0.76" stroke="none" stroke-width="0.80"   />
<path d="M 82.8 17.8 C 84.9 0.0, 47.0 74.5, 53.8 62.9 C 58.3 67.9, 71.8 76.5, 73.8 69.6 C 84.0 85.2, 99.6 89.6, 86.7 79.7 C 70.0 94.5, 31.4 17.2, 25.8 19.4 " fill="hsl(183, 71%, 60%)" fill-opacity="0.27" stroke="none" stroke-width="1.14"   />
<rect x="11.3" y="73.1" width="40.7" height="13.8" rx="0" fill="none" fill-opacity="0.26"    />
<rect x="8.5" y="26.8" width="34.8" height="37.1" rx="17.0" fill="hsl(183, 71%, 60%)" fill-opacity="0.86" stroke="hsl(322, 74%, 44%)" stroke-width="4.5"  transform="translate(41.3 51.0) rotate(270.1) scale(0.71 1.20)" />
<rect x="1.8" y="13.1" width="33.5" height="34.4" rx="0" fill="hsl(86, 72%, 68%)" fill-opacity="0.64"   transform="translate(57.7 10.0) rotate(244.1) scale(0.59 0.92)" />
<path d="M 6.9 59.9 C 18.6 43.7, 32.1 35.5, 25.0 48.7 C 32.6 55.1, 21.3 28.8, 28.1 24.9 C 20.2 17.8, 100.0 10.5, 95.9 17.1 C 95.1 25.2, 18.5 88.1, 10.5 98.3 Z" fill="hsl(2, 82%, 55%)" fill-opacity="0.35" stroke="none" stroke-width="1.08"  transform="translate(16.0 75.2) rotate(300.6) scale(1.21 1.65)" />
</svg>
