<?xml version="1.0" encoding="UTF-8"?>
<svg xmlns="http://www.w3.org/2000/svg" width="100" height="100" viewBox="0 0 100 100">
<defs>
<linearGradient id="g0" x1="0%" y1="0%" x2="100%" y2="100%">
<stop offset="0.0%" stop-color="hsl(106, 75%, 59%)" />
<stop offset="33.3%" stop-color="hsl(183, 71%, 60%)" />
<stop offset="66.7%" stop-color="hsl(242, 72%, 49%)" />
<stop offset="100.0%" stop-color="hsl(322, 74%, 44%)" />
</linearGradient>
<linearGradient id="g1" x1="0%" y1="0%" x2="100%" y2="100%">
<stop offset="0.0%" stop-color="hsl(290, 83%, 63%)" />
<stop offset="33.3%" stop-color="hsl(2, 82%, 55%)" />
<stop offset="66.7%" stop-color="hsl(86, 72%, 68%)" />
<stop offset="100.0%" stop-color="hsl(83, 65%, 44%)" />
</linearGradient>
<linearGradient id="g2" x1="0%" y1="0%" x2="100%" y2="100%">
<stop offset="0.0%" stop-color="hsl(40, 53%, 69%)" />
<stop offset="33.3%" stop-color="hsl(104, 72%, 65%)" />
<stop offset="66.7%" stop-color="hsl(144, 86%, 72%)" />
<stop offset="100.0%" stop-color="hsl(151, 70%, 62%)" />
</linearGradient>
</defs>

<path d="M 3.2 87.6 C 0.0 93.6, 13.4 59.5, 21.1 57.1 C 32.3 49.6, 90.6 57.9, 83.7 62.5 C 88.6 63.3, 21.8 84.6, 18.0 91.0 C 26.6 96.3, 30.6 60.3, 16.8 47.8 C 30.6 41.5, 15.1 100.0, 7.9 90.5 C 24.0 74.2, 71.5 52.2, 79.5 41.2 C 69.4 26.0, 45.3 19.0, 55.7 27.9 Z" fill="none" fill-opacity="0.65" stroke="hsl(86, 72%, 68%)" stroke-width="0.95"  transform="translate(78.2 29.8) rotate(146.8) scale(0.68 1.89)" />
<rect x="44.6" y="3.5" width="34.2" height="36.8" rx="0" fill="hsl(144, 86%, 72%)" fill-opacity="0.82"   transform="translate(73.8 99.6) rotate(175.5) scale(1.93 0.67)" />
<path d="M 76.1 14.1 C 56.9 34.0, 100.0 68.6, 93.0 59.9 C 79.7 65.7, 36.2 79.4, 43.7 70.9 C 53.4 86.8, 16.3 23.6, 9.4 24.4 " fill="hsl(86, 72%, 68%)" fill-opacity="0.40" stroke="none" stroke-width="1.01"   />
<circle cx="75.6" cy="47.4" r="0.5" fill="hsl(144, 86%, 72%)" fill-opacity="0.81"  transform="translate(54.2 28.8) rotate(68.9) scale(1.08 1.60)" />
<path d="M 24.3 32.1 C 43.0 21.1, 63.6 10.4, 55.0 9.7 C 74.3 11.3, 13.7 0.0, 28.2 4.1 C 13.5 0.6, 20.2 100.0, 27.1 96.1 C 36.0 100.0, 36.9 19.3, 40.7 11.5 C 36.6 25.7, 93.9 17.8, 96.8 29.3 C 79.7 24.5, 42.8 98.9, 43.4 85.7 " fill="hsl(83, 65%, 44%)" fill-opacity="0.39" stroke="none" stroke-width="1.14"   />
<path d="M 50.5 35.7 C 36.9 43.8, 10.9 77.1, 1.4 66.4 C 0.0 52.3, 54.4 68.8, 68.5 70.8 C 81.0 55.2, 31.7 98.2, 27.9 89.2 C 15.0 76.4, 100.0 17.7, 92.6 5.5 C 74.5 7.4, 18.9 5.3, 12.5 19.0 " fill="hsl(106, 75%, 59%)" fill-opacity="0.74" stroke="none" stroke-width="1.27"  transform="translate(7.1 53.8) rotate(330.9) scale(1.61 1.10)" />
<rect x="56.2" y="15.5" width="30.8" height="38.6" rx="7.0" fill="hsl(322, 74%, 44%)" fill-opacity="0.97"    />
<rect x="21.2" y="35.1" width="46.1" height="23.1" rx="0" fill="none" fill-opacity="0.51"   transform="translate(14.5 65.7) rotate(337.4) scale(1.13 0.96)" />
<circle cx="49.5" cy="64.1" r="0.8" fill="hsl(322, 74%, 44%)" fill-opacity="0.70"  transform="translate(44.9 73.7) rotate(106.3) scale(1.25 0.63)" />
</svg>
