<?xml version="1.0" encoding="UTF-8"?>
<svg xmlns="http://www.w3.org/2000/svg" width="100" height="100" viewBox="0 0 100 100">
<defs>
<linearGradient id="g0" x1="0%" y1="0%" x2="100%" y2="100%">
<stop offset="0.0%" stop-color="hsl(106, 75%, 59%)" />
<stop offset="33.3%" stop-color="hsl(183, 71%, 60%)" />
<stop offset="66.7%" stop-color="hsl(242, 72%, 49%)" />
<stop offset="100.0%" stop-color="hsl(322, 74%, 44%)" />
</linearGradient>
<linearGradient id="g1" x1="0%" y1="0%" x2="100%" y2="100%">
<stop offset="0.0%" stop-color="hsl(290, 83%, 63%)" />
<stop offset="33.3%" stop-color="hsl(2, 82%, 55%)" />
<stop offset="66.7%" stop-color="hsl(86, 72%, 68%)" />
<stop offset="100.0%" stop-color="hsl(83, 65%, 44%)" />
</linearGradient>
<linearGradient id="g2" x1="0%" y1="0%" x2="100%" y2="100%">
<stop offset="0.0%" stop-color="hsl(40, 53%, 69%)" />
<stop offset="33.3%" stop-color="hsl(104, 72%, 65%)" />
<stop offset="66.7%" stop-color="hsl(144, 86%, 72%)" />
<stop offset="100.0%" stop-color="hsl(151, 70%, 62%)" />
</linearGradient>
<filter id="f1" x="-20%" y="-20%" width="140%" height="140%">
  <feGaussianBlur stdDeviation="0.9755609329164912" />
</filter>

</defs>

<rect x="29.3" y="41.8" width="34.3" height="39.6" rx="12.0" fill="hsl(290, 83%, 63%)" fill-opacity="0.39"   transform="translate(71.7 38.9) rotate(60.8) scale(0.67 1.51)" />
<rect x="58.4" y="24.5" width="38.4" height="18.6" rx="8.6" fill="none" fill-opacity="0.88"   transform="translate(27.6 9.9) rotate(186.2) scale(0.61 1.52)" />
<path d="M 44.2 23.1 C 54.9 14.9, 100.0 76.2, 97.0 90.5 C 94.2 81.9, 0.0 100.0, 0.9 88.7 C 0.8 96.9, 69.9 16.2, 81.5 16.3 C 90.8 16.5, 100.0 95.8, 97.8 85.9 C 80.4 100.0, 25.3 64.0, 36.9 74.5 C 45.9 83.5, 25.9 48.2, 15.4 36.9 C 13.4 39.5, 49.7 54.5, 41.1 40.4 C 47.0 33.6, 59.7 21.4, 63.1 19.5 C 71.0 37.8, 42.5 4.3, 47.6 15.7 Z" fill="hsl(144, 86%, 72%)" fill-opacity="0.47" stroke="none" stroke-width="4.17"  transform="translate(88.3 50.4) rotate(139.2) scale(1.65 0.98)" />
<path d="M 33.2 8.8 C 32.8 0.0, 2.5 29.1, 1.4 25.5 C 14.2 29.9, 53.9 71.4, 59.8 85.1 C 59.8 100.0, 31.3 81.7, 26.9 71.6 C 18.9 68.1, 10.5 85.2, 2.6 88.7 C 0.0 72.3, 64.9 33.0, 79.8 45.1 C 61.9 41.7, 37.2 23.3, 31.8 20.7 C 33.7 29.4, 53.6 11.6, 38.6 23.8 C 26.9 38.4, 97.1 95.2, 91.2 84.5 Z" fill="none" fill-opacity="0.41" stroke="hsl(40, 53%, 69%)" stroke-width="1.91"  transform="translate(33.9 46.3) rotate(147.6) scale(0.56 1.90)" />
<path d="M 96.8 82.3 C 100.0 91.8, 52.7 46.5, 65.7 33.3 C 51.1 26.8, 55.3 5.7, 50.8 20.5 C 61.0 18.2, 69.7 94.6, 70.2 93.5 C 57.5 81.4, 58.5 95.2, 60.5 98.7 C 58.7 94.3, 1.6 68.4, 4.8 72.6 C 2.3 59.4, 71.3 88.8, 82.7 99.1 C 86.8 97.5, 87.8 35.7, 92.8 42.8 C 88.2 32.1, 55.6 83.4, 43.0 94.5 C 47.1 100.0, 10.5 14.5, 12.3 16.3 C 26.0 35.9, 37.3 49.4, 26.4 50.7 Z" fill="none" fill-opacity="0.87" stroke="hsl(104, 72%, 65%)" stroke-width="0.86" filter="url(#f1)" transform="translate(48.2 17.0) rotate(278.4) scale(0.53 1.16)" />
<path d="M 34.7 65.9 C 29.2 51.1, 17.9 46.5, 12.6 56.8 C 0.0 56.6, 39.3 10.8, 35.7 24.9 C 34.1 21.2, 46.9 23.6, 44.6 19.8 C 61.7 24.9, 17.0 18.8, 18.1 15.6 C 5.7 31.9, 76.8 8.3, 64.7 3.0 C 72.6 0.0, 47.6 87.1, 35.5 78.8 C 36.5 67.4, 57.2 0.0, 70.9 1.6 C 53.0 0.0, 47.0 100.0, 42.1 88.5 Z" fill="none" fill-opacity="0.70" stroke="hsl(322, 74%, 44%)" stroke-width="2.61"  transform="translate(44.1 88.3) rotate(198.3) scale(1.05 1.48)" />
<rect x="25.7" y="67.7" width="36.5" height="27.5" rx="0" fill="none" fill-opacity="0.98" stroke="hsl(40, 53%, 69%)" stroke-width="4.8"  transform="translate(49.4 95.6) rotate(359.2) scale(0.65 1.32)" />
<path d="M 86.1 48.9 C 99.3 35.7, 66.4 19.0, 57.3 24.8 C 55.8 6.8, 32.3 27.2, 43.0 22.3 C 26.7 18.3, 32.8 84.2, 31.7 70.2 C 26.2 56.7, 71.2 64.0, 60.5 52.6 C 80.1 41.3, 54.7 11.6, 52.8 0.4 C 64.5 16.4, 33.9 8.0, 29.6 1.0 C 22.1 11.8, 64.8 87.0, 58.8 78.8 C 46.8 90.9, 13.0 84.8, 8.1 82.6 C 0.0 80.2, 100.0 23.2, 97.4 34.4 C 91.9 38.4, 49.2 67.4, 57.2 53.6 Z" fill="hsl(104, 72%, 65%)" fill-opacity="0.88" stroke="none" stroke-width="3.10"  transform="translate(36.7 7.7) rotate(245.2) scale(1.19 1.46)" />
<path d="M 8.6 28.4 C 0.7 18.9, 15.3 70.7, 14.3 79.0 C 0.0 87.0, 80.6 28.0, 91.6 21.7 C 76.1 7.6, 47.8 21.4, 39.9 19.3 C 29.2 8.5, 68.1 23.9, 71.1 16.7 C 67.9 34.9, 10.3 100.0, 4.5 88.3 C 15.1 100.0, 34.1 48.3, 34.3 37.1 Z" fill="hsl(86, 72%, 68%)" fill-opacity="0.26" stroke="none" stroke-width="2.72"  transform="translate(82.3 0.8) rotate(320.2) scale(0.59 1.57)" />
<path d="M 81.2 98.4 C 89.4 100.0, 83.0 46.1, 75.2 59.6 C 59.8 53.1, 12.3 42.1, 10.6 40.5 C 13.2 33.1, 16.3 77.8, 15.5 77.2 C 2.1 94.5, 77.8 33.8, 64.9 22.3 C 64.1 36.3, 75.2 72.8, 67.8 76.7 C 51.2 77.9, 92.4 32.6, 98.3 27.5 C 82.8 15.0, 58.5 85.7, 48.8 80.5 C 68.2 98.5, 45.7 92.5, 53.4 88.4 C 39.3 88.7, 3.0 34.1, 0.6 47.4 C 0.0 55.1, 20.3 95.5, 17.3 86.3 Z" fill="none" fill-opacity="0.75" stroke="hsl(106, 75%, 59%)" stroke-width="1.69"  transform="translate(66.4 50.9) rotate(104.6) scale(0.71 0.94)" />
<circle cx="90.0" cy="63.6" r="2.1" fill="url(#g0)" fill-opacity="0.46"  transform="translate(43.6 37.7) rotate(59.8) scale(0.94 1.69)" />
<circle cx="51.4" cy="27.2" r="4.0" fill="hsl(290, 83%, 63%)" fill-opacity="0.53"  transform="translate(30.8 67.3) rotate(181.1) scale(1.45 1.88)" />
<path d="M 36.8 74.5 C 24.7 71.6, 19.6 50.0, 17.8 63.7 C 15.5 44.8, 23.8 52.9, 14.4 67.1 C 14.7 61.7, 48.9 33.2, 40.2 37.3 C 26.7 34.0, 100.0 21.2, 90.1 31.0 C 73.0 26.6, 36.2 47.2, 26.7 59.4 C 20.4 77.1, 0.0 65.7, 4.8 61.8 Z" fill="none" fill-opacity="0.35" stroke="hsl(144, 86%, 72%)" stroke-width="1.94"  transform="translate(85.3 47.5) rotate(193.4) scale(1.73 0.86)" />
<path d="M 46.4 86.6 C 48.3 95.0, 4.8 18.3, 9.1 3.5 C 0.0 14.7, 89.2 29.7, 93.4 15.7 C 91.8 27.4, 18.8 40.9, 25.3 37.6 C 17.4 46.2, 36.3 100.0, 26.6 98.0 C 22.3 100.0, 33.4 24.3, 45.6 33.7 C 53.2 35.4, 83.6 9.7, 71.1 2.2 C 61.6 8.8, 28.4 92.3, 35.5 83.1 C 48.9 72.3, 37.0 0.0, 23.1 3.8 C 10.5 19.8, 89.5 73.9, 75.6 79.7 Z" fill="hsl(151, 70%, 62%)" fill-opacity="0.91" stroke="none" stroke-width="2.78"  transform="translate(5.5 34.9) rotate(85.4) scale(1.96 1.70)" />
<circle cx="63.4" cy="46.3" r="4.2" fill="url(#g0)" fill-opacity="0.55" filter="url(#f1)"  />
<path d="M 78.2 86.8 C 85.8 70.0, 86.1 36.2, 71.7 47.2 C 79.0 41.6, 58.8 98.1, 71.5 95.0 C 65.6 78.8, 81.1 95.8, 74.3 88.6 C 57.2 81.5, 43.7 30.4, 56.6 43.8 C 74.3 61.9, 45.9 74.0, 55.5 85.5 C 75.1 99.8, 64.3 60.3, 51.5 66.9 C 65.9 75.9, 50.4 55.0, 60.4 69.2 C 40.7 79.0, 63.6 33.6, 63.0 33.3 Z" fill="hsl(86, 72%, 68%)" fill-opacity="0.72" stroke="none" stroke-width="1.07"  transform="translate(78.7 87.2) rotate(149.1) scale(1.44 0.92)" />
<rect x="0.9" y="72.7" width="27.4" height="14.2" rx="4.2" fill="hsl(151, 70%, 62%)" fill-opacity="0.56"   transform="translate(38.3 95.3) rotate(276.0) scale(1.50 1.66)" />
<rect x="15.4" y="43.9" width="31.0" height="12.9" rx="11.0" fill="none" fill-opacity="0.29"   transform="translate(95.4 45.7) rotate(99.1) scale(1.40 1.57)" />
<path d="M 77.6 71.7 C 86.5 56.9, 28.4 38.7, 35.3 38.8 C 45.5 28.5, 83.8 80.3, 73.1 68.4 C 65.7 60.9, 53.5 38.9, 51.8 27.2 C 65.4 15.4, 29.6 93.5, 29.0 92.0 C 37.7 92.6, 50.6 55.0, 35.8 49.2 C 46.2 31.0, 13.1 6.0, 11.1 10.2 C 20.6 0.0, 42.4 4.1, 41.3 14.1 C 43.5 1.6, 29.6 68.4, 29.8 61.1 Z" fill="hsl(86, 72%, 68%)" fill-opacity="0.94" stroke="none" stroke-width="4.93"  transform="translate(77.4 4.6) rotate(263.7) scale(1.12 1.68)" />
<rect x="2.9" y="41.1" width="20.1" height="33.5" rx="16.8" fill="none" fill-opacity="0.92"   transform="translate(35.6 34.6) rotate(277.1) scale(1.30 1.45)" />
<circle cx="73.2" cy="71.0" r="10.2" fill="url(#g1)" fill-opacity="0.47"  transform="translate(89.5 82.7) rotate(252.7) scale(1.17 1.39)" />
<rect x="42.8" y="22.7" width="31.9" height="36.1" rx="12.9" fill="hsl(183, 71%, 60%)" fill-opacity="0.51"   transform="translate(45.3 54.8) rotate(248.5) scale(1.23 1.29)" />
<path d="M 65.5 92.9 C 68.3 100.0, 11.2 1.8, 1.9 3.5 C 0.0 0.0, 88.1 41.9, 86.6 48.6 C 100.0 65.0, 98.9 29.5, 85.6 37.7 C 75.5 25.4, 43.7 63.7, 34.8 59.9 C 35.9 69.3, 46.4 1.1, 57.1 15.4 C 70.8 5.7, 74.5 48.5, 75.7 47.4 C 80.5 38.3, 57.8 100.0, 63.0 94.8 C 72.0 93.5, 57.4 76.0, 67.4 83.5 C 71.6 77.8, 64.6 69.4, 49.9 80.3 C 30.3 61.3, 74.3 74.9, 70.6 62.9 Z" fill="none" fill-opacity="0.94" stroke="hsl(144, 86%, 72%)" stroke-width="1.94"  transform="translate(34.3 10.0) rotate(205.7) scale(0.68 1.71)" />
<rect x="32.1" y="37.1" width="26.2" height="24.9" rx="2.1" fill="none" fill-opacity="0.38" stroke="hsl(2, 82%, 55%)" stroke-width="3.2"  transform="translate(80.6 73.5) rotate(147.2) scale(0.88 0.94)" />
<path d="M 53.4 51.2 C 37.0 69.1, 59.0 69.7, 73.4 68.4 C 86.1 83.3, 89.9 17.6, 88.8 6.4 C 100.0 0.0, 12.7 33.0, 7.1 32.0 C 20.1 46.3, 44.5 23.5, 59.0 24.7 C 68.2 8.8, 72.0 52.0, 64.6 49.3 C 66.3 53.3, 100.0 100.0, 96.5 88.4 C 98.7 70.1, 26.7 60.7, 17.0 65.1 C 22.4 52.3, 94.5 62.9, 99.7 60.6 C 81.7 44.8, 10.4 72.2, 5.9 68.2 C 0.0 68.5, 64.3 66.1, 77.5 68.5 Z" fill="none" fill-opacity="0.60" stroke="hsl(322, 74%, 44%)" stroke-width="3.78" filter="url(#f1)" transform="translate(71.1 26.1) rotate(96.9) scale(0.51 1.37)" />
<rect x="25.3" y="13.1" width="30.2" height="19.6" rx="0" fill="none" fill-opacity="0.76"  filter="url(#f1)" transform="translate(19.1 65.0) rotate(230.9) scale(1.78 1.45)" />
<path d="M 47.7 43.4 C 40.4 53.5, 57.6 84.8, 57.8 78.7 C 71.3 84.8, 49.1 48.7, 35.2 38.2 C 19.0 20.2, 56.9 0.8, 56.9 4.4 C 67.3 5.9, 76.4 46.3, 64.1 60.9 C 44.3 52.8, 36.6 84.5, 31.9 82.2 C 36.9 87.4, 63.0 18.4, 75.5 21.7 C 65.7 17.8, 97.9 6.5, 94.3 14.4 C 100.0 1.3, 59.2 72.4, 65.2 74.4 C 66.9 60.1, 66.8 74.5, 72.1 65.9 C 61.5 85.2, 81.9 7.9, 87.8 4.5 Z" fill="hsl(144, 86%, 72%)" fill-opacity="0.33" stroke="none" stroke-width="3.17" filter="url(#f1)" transform="translate(92.1 30.1) rotate(55.4) scale(1.76 1.52)" />
<rect x="53.5" y="3.2" width="42.4" height="32.2" rx="5.7" fill="none" fill-opacity="0.42"  filter="url(#f1)" transform="translate(83.0 74.6) rotate(223.6) scale(1.53 0.73)" />
<circle cx="93.3" cy="41.6" r="1.8" fill="hsl(151, 70%, 62%)" fill-opacity="0.61"  transform="translate(88.9 1.4) rotate(323.8) scale(0.93 0.77)" />
<circle cx="92.7" cy="13.0" r="1.9" fill="url(#g1)" fill-opacity="0.77"  transform="translate(82.3 50.9) rotate(139.4) scale(1.76 1.92)" />
<path d="M 37.1 52.2 C 32.3 55.5, 49.3 64.9, 63.2 67.1 C 50.0 78.3, 15.3 71.9, 18.8 60.6 C 2.2 60.2, 59.1 29.8, 57.6 35.8 C 67.7 44.9, 12.6 21.5, 8.8 8.9 C 0.0 19.9, 100.0 20.2, 92.0 26.5 C 89.3 43.7, 87.4 100.0, 73.6 90.7 C 91.9 100.0, 68.2 0.0, 82.2 5.1 C 80.4 24.2, 7.2 65.4, 21.6 66.3 C 26.6 77.1, 8.7 67.5, 18.4 81.8 Z" fill="hsl(242, 72%, 49%)" fill-opacity="0.44" stroke="none" stroke-width="2.55"  transform="translate(97.8 80.2) rotate(302.5) scale(1.52 1.19)" />
<rect x="43.4" y="5.9" width="39.9" height="29.4" rx="15.0" fill="hsl(183, 71%, 60%)" fill-opacity="0.56"   transform="translate(4.6 70.6) rotate(59.1) scale(1.09 1.87)" />
<circle cx="36.6" cy="65.7" r="2.5" fill="url(#g2)" fill-opacity="0.70"  transform="translate(49.9 60.3) rotate(349.4) scale(0.95 1.11)" />
<path d="M 3.4 0.6 C 0.0 16.3, 55.6 30.9, 68.0 27.1 C 59.6 25.3, 25.1 11.7, 18.8 0.8 C 7.4 0.0, 87.8 61.5, 73.4 71.6 C 75.2 85.2, 33.9 8.4, 41.5 3.8 C 56.6 0.0, 0.0 39.1, 1.2 30.6 C 0.0 28.9, 16.8 98.1, 28.2 86.3 " fill="hsl(290, 83%, 63%)" fill-opacity="0.34" stroke="none" stroke-width="2.51"  transform="translate(5.1 82.0) rotate(157.7) scale(0.52 0.74)" />
<path d="M 66.4 48.1 C 71.0 55.5, 85.5 39.9, 89.5 52.3 C 94.9 35.9, 24.0 97.6, 22.0 94.8 C 37.5 100.0, 29.9 64.2, 20.6 50.1 C 11.7 67.4, 80.3 52.8, 72.5 54.8 C 55.7 48.5, 21.7 43.6, 20.5 50.6 C 14.2 42.6, 20.9 93.5, 28.3 99.4 C 8.8 98.1, 48.7 64.7, 55.1 66.9 C 68.8 71.1, 79.7 3.7, 84.4 11.6 C 64.9 21.4, 38.7 15.4, 36.3 22.5 C 45.8 36.5, 68.1 84.3, 76.7 83.6 Z" fill="none" fill-opacity="0.99" stroke="hsl(2, 82%, 55%)" stroke-width="2.43"  transform="translate(42.0 31.8) rotate(356.5) scale(2.00 0.95)" />
<rect x="8.6" y="6.8" width="24.7" height="19.3" rx="0" fill="none" fill-opacity="0.81"    />
<path d="M 55.8 47.4 C 43.0 36.3, 22.1 39.1, 19.9 47.7 C 19.5 38.4, 44.9 25.8, 45.3 11.4 C 58.7 27.3, 71.0 50.1, 77.5 50.6 C 87.1 34.9, 0.0 87.3, 9.2 81.4 C 12.4 67.4, 4.8 29.2, 1.7 29.3 C 0.0 22.9, 68.8 81.2, 60.9 75.0 C 58.8 89.5, 75.2 29.7, 87.6 29.0 C 81.6 45.9, 15.1 84.6, 18.7 98.9 Z" fill="hsl(2, 82%, 55%)" fill-opacity="0.87" stroke="none" stroke-width="3.97"  transform="translate(92.1 5.1) rotate(73.6) scale(0.99 1.96)" />
<circle cx="47.7" cy="44.5" r="6.9" fill="url(#g0)" fill-opacity="0.93"  transform="translate(23.5 38.7) rotate(279.1) scale(1.24 1.00)" />
<rect x="32.2" y="35.9" width="29.1" height="29.1" rx="11.2" fill="none" fill-opacity="0.63"   transform="translate(74.8 1.2) rotate(105.8) scale(0.91 0.63)" />
<path d="M 78.8 9.3 C 65.5 0.1, 52.5 83.1, 40.3 87.1 C 57.9 86.6, 7.9 48.7, 1.3 55.6 C 0.0 48.0, 59.8 49.2, 49.0 58.5 C 61.4 73.1, 63.1 46.4, 61.9 46.7 C 60.3 34.8, 17.0 9.7, 3.0 21.5 C 0.0 8.7, 100.0 32.6, 98.8 22.7 C 87.2 6.3, 66.0 23.6, 60.6 38.1 C 68.9 30.8, 60.3 67.7, 61.5 75.9 C 56.0 74.8, 78.6 80.3, 90.3 79.3 Z" fill="hsl(106, 75%, 59%)" fill-opacity="0.36" stroke="none" stroke-width="3.23"  transform="translate(13.7 75.8) rotate(143.8) scale(0.83 1.92)" />
<path d="M 65.6 93.3 C 74.6 100.0, 16.7 81.6, 17.6 87.9 C 0.6 91.0, 62.6 25.3, 60.6 24.7 C 48.8 43.3, 68.3 86.0, 69.2 94.8 C 74.4 85.0, 89.2 9.5, 80.7 16.8 C 72.6 10.7, 0.0 78.4, 1.1 65.3 C 3.4 76.0, 82.9 36.1, 73.8 42.2 " fill="none" fill-opacity="0.68" stroke="hsl(2, 82%, 55%)" stroke-width="2.69"  transform="translate(3.0 89.3) rotate(357.3) scale(1.97 1.15)" />
<circle cx="98.7" cy="26.8" r="2.7" fill="url(#g1)" fill-opacity="0.96"   />
<path d="M 31.1 19.2 C 34.5 12.5, 52.5 51.6, 63.3 64.4 C 71.7 52.7, 0.0 94.2, 14.5 92.6 C 30.3 76.9, 1.0 23.9, 1.7 36.2 C 0.0 50.2, 70.4 96.0, 63.0 99.6 C 45.9 90.3, 15.0 89.4, 19.8 82.5 C 36.1 76.7, 60.5 24.7, 52.6 29.3 C 52.4 46.1, 70.0 72.9, 74.3 60.4 C 86.9 69.7, 43.9 8.7, 49.4 6.7 C 51.4 0.0, 51.8 99.5, 62.5 89.4 Z" fill="none" fill-opacity="0.64" stroke="hsl(322, 74%, 44%)" stroke-width="4.49"  transform="translate(18.1 6.8) rotate(20.3) scale(0.83 1.03)" />
<circle cx="34.3" cy="59.8" r="4.6" fill="hsl(2, 82%, 55%)" fill-opacity="0.90"  transform="translate(62.4 56.5) rotate(158.9) scale(0.61 2.00)" />
<rect x="55.3" y="5.8" width="41.4" height="24.7" rx="19.8" fill="none" fill-opacity="0.53"   transform="translate(42.8 11.5) rotate(250.8) scale(1.33 0.52)" />
<path d="M 34.3 8.2 C 48.6 9.3, 55.9 40.0, 46.8 33.5 C 30.5 17.3, 54.6 28.2, 62.6 40.4 C 42.7 40.8, 38.3 16.6, 38.0 15.6 C 40.0 4.2, 89.5 43.9, 81.1 37.6 C 89.1 39.8, 54.9 28.3, 64.7 33.9 C 62.0 36.6, 91.6 56.3, 83.2 65.1 Z" fill="hsl(106, 75%, 59%)" fill-opacity="0.47" stroke="none" stroke-width="1.35"  transform="translate(95.8 60.7) rotate(181.4) scale(0.67 1.60)" />
<path d="M 18.9 40.0 C 22.6 22.3, 86.8 66.9, 86.1 63.9 C 93.3 71.8, 76.9 15.5, 81.8 11.4 C 74.8 25.0, 98.5 44.9, 94.1 48.8 C 100.0 37.0, 21.3 32.1, 30.5 41.0 C 16.2 42.3, 21.3 48.7, 12.0 50.2 C 16.7 69.9, 56.6 75.1, 68.2 60.9 C 83.2 61.0, 58.5 0.0, 61.9 7.6 C 54.5 11.8, 55.3 0.4, 60.4 0.2 Z" fill="none" fill-opacity="0.92" stroke="hsl(106, 75%, 59%)" stroke-width="3.60" filter="url(#f1)"  />
<circle cx="77.0" cy="10.8" r="11.1" fill="url(#g1)" fill-opacity="0.53"  transform="translate(40.6 81.3) rotate(67.3) scale(1.80 1.08)" />
<path d="M 19.3 33.6 C 5.3 46.2, 78.8 23.2, 90.3 24.5 C 72.5 5.7, 2.6 0.0, 11.0 9.6 C 18.9 4.6, 48.9 80.7, 48.2 88.1 C 37.8 71.4, 63.5 100.0, 72.5 99.5 C 68.0 100.0, 83.7 8.3, 80.6 22.5 C 78.3 4.4, 55.6 58.8, 54.3 60.1 Z" fill="none" fill-opacity="0.38" stroke="hsl(183, 71%, 60%)" stroke-width="3.59"  transform="translate(60.0 57.7) rotate(295.2) scale(1.91 1.76)" />
<path d="M 23.1 58.6 C 11.4 50.9, 3.6 73.0, 4.0 58.3 C 17.0 48.0, 32.7 72.7, 41.7 79.4 C 31.5 70.0, 21.6 39.2, 20.1 39.2 C 23.1 36.5, 57.4 29.9, 64.0 15.3 C 81.8 27.8, 45.8 8.9, 44.7 20.3 C 34.5 34.3, 42.4 100.0, 41.8 95.1 C 52.3 77.2, 13.9 45.0, 11.2 38.0 C 0.0 19.6, 50.5 76.7, 54.0 63.5 C 54.9 69.3, 89.7 98.5, 74.8 91.1 C 67.3 100.0, 46.9 66.4, 46.0 70.5 Z" fill="none" fill-opacity="0.37" stroke="hsl(86, 72%, 68%)" stroke-width="3.76"  transform="translate(82.9 68.7) rotate(108.5) scale(1.41 1.92)" />
<rect x="22.8" y="64.0" width="20.9" height="33.7" rx="2.8" fill="hsl(83, 65%, 44%)" fill-opacity="0.31" stroke="hsl(86, 72%, 68%)" stroke-width="1.7"  transform="translate(74.3 66.8) rotate(247.1) scale(1.15 1.14)" />
<path d="M 15.1 24.1 C 7.1 33.8, 7.9 92.1, 8.6 97.5 C 13.8 100.0, 9.2 47.3, 7.3 40.5 C 0.0 39.4, 32.0 42.6, 40.0 53.3 C 52.8 48.8, 86.5 22.3, 83.0 23.6 C 77.9 36.4, 63.1 94.0, 61.1 94.3 C 52.0 84.7, 14.4 100.0, 24.7 93.0 C 24.5 83.7, 28.5 3.7, 24.1 6.5 C 11.8 0.0, 50.2 64.8, 61.2 75.5 Z" fill="hsl(151, 70%, 62%)" fill-opacity="0.96" stroke="none" stroke-width="4.69"  transform="translate(44.6 22.2) rotate(186.3) scale(0.94 1.78)" />
<circle cx="95.2" cy="19.5" r="7.3" fill="url(#g0)" fill-opacity="0.57"  transform="translate(0.9 53.0) rotate(102.2) scale(0.88 0.83)" />
<path d="M 32.6 78.1 C 20.6 93.6, 40.6 91.9, 44.6 94.6 C 32.7 100.0, 64.6 75.0, 76.0 64.3 C 94.0 55.5, 36.3 21.7, 44.5 18.3 C 49.5 8.4, 72.0 63.9, 77.8 50.3 C 80.0 44.9, 89.7 0.0, 98.3 11.2 C 86.2 6.1, 71.8 27.2, 81.2 40.5 C 88.5 60.4, 31.1 82.2, 30.7 86.9 C 41.5 97.6, 58.3 25.5, 47.6 17.9 Z" fill="hsl(106, 75%, 59%)" fill-opacity="0.27" stroke="none" stroke-width="3.80"   />
<path d="M 19.7 68.2 C 17.2 78.8, 63.4 86.6, 77.1 82.3 C 86.4 92.9, 89.4 33.3, 99.8 20.0 C 85.7 5.3, 8.2 54.8, 2.0 58.6 C 0.0 54.4, 10.6 0.0, 1.0 1.4 C 0.0 0.0, 12.5 78.9, 23.7 71.2 C 15.5 79.5, 85.7 58.2, 98.7 58.6 C 86.7 46.6, 33.9 74.0, 30.5 70.3 Z" fill="hsl(144, 86%, 72%)" fill-opacity="0.43" stroke="none" stroke-width="1.92"  transform="translate(81.8 73.7) rotate(114.5) scale(0.59 1.95)" />
<path d="M 22.1 5.7 C 24.5 15.1, 22.4 9.6, 35.9 16.3 C 50.5 12.1, 50.5 100.0, 45.0 99.6 C 63.8 100.0, 73.7 41.1, 73.0 50.9 C 80.0 58.9, 40.7 70.6, 33.3 60.0 C 41.1 63.8, 57.8 15.4, 60.7 22.3 C 58.0 23.6, 84.5 59.9, 90.3 68.4 C 79.0 57.0, 42.5 13.8, 53.7 27.9 C 44.1 35.7, 5.9 42.6, 17.6 38.6 C 0.4 40.1, 78.2 90.6, 73.1 92.0 C 53.6 100.0, 89.7 13.0, 98.9 2.4 Z" fill="none" fill-opacity="0.68" stroke="hsl(106, 75%, 59%)" stroke-width="2.47"  transform="translate(29.8 54.1) rotate(357.6) scale(0.90 0.95)" />
<rect x="12.9" y="31.9" width="24.1" height="24.7" rx="14.9" fill="none" fill-opacity="0.79"   transform="translate(94.0 70.0) rotate(88.0) scale(1.16 1.80)" />
<circle cx="82.4" cy="51.7" r="11.8" fill="hsl(151, 70%, 62%)" fill-opacity="0.85" filter="url(#f1)" transform="translate(2.7 36.3) rotate(111.6) scale(1.15 1.98)" />
<path d="M 34.3 47.9 C 37.8 66.1, 2.8 35.1, 10.7 48.2 C 12.1 30.7, 51.5 21.5, 50.6 33.3 C 35.4 30.6, 65.1 74.3, 75.0 65.9 C 88.7 71.4, 12.3 24.6, 23.2 38.7 C 5.6 57.4, 81.0 58.6, 78.4 51.6 C 85.4 52.5, 38.8 76.8, 40.1 73.6 C 40.1 61.9, 54.3 0.0, 50.4 4.3 Z" fill="hsl(40, 53%, 69%)" fill-opacity="0.86" stroke="none" stroke-width="4.49" filter="url(#f1)" transform="translate(43.8 34.3) rotate(197.5) scale(1.25 0.76)" />
<path d="M 81.0 62.9 C 70.8 72.3, 82.6 27.4, 77.7 30.4 C 79.4 19.0, 54.0 37.7, 47.7 45.0 C 28.8 48.5, 19.4 10.2, 31.6 15.8 C 28.3 35.4, 22.8 81.7, 10.3 88.3 C 0.0 100.0, 93.7 15.7, 94.6 21.1 C 100.0 28.8, 0.0 47.5, 8.1 38.7 C 0.0 21.0, 53.2 91.9, 63.2 83.1 C 49.5 99.0, 4.7 28.4, 2.8 20.6 Z" fill="hsl(40, 53%, 69%)" fill-opacity="0.82" stroke="none" stroke-width="2.19"  transform="translate(18.7 11.2) rotate(287.8) scale(0.91 1.23)" />
<rect x="0.3" y="51.3" width="47.6" height="33.3" rx="0" fill="none" fill-opacity="0.63"   transform="translate(72.8 36.8) rotate(229.8) scale(1.50 1.43)" />
<path d="M 49.0 90.9 C 62.6 98.9, 11.0 18.1, 20.6 14.2 C 1.8 31.5, 78.7 19.2, 70.9 13.7 C 66.2 27.2, 83.4 2.2, 88.6 11.0 C 78.7 4.1, 35.0 13.9, 23.2 26.5 C 39.9 25.8, 0.0 34.7, 0.2 34.5 C 19.2 27.3, 47.4 37.8, 37.7 45.8 C 19.3 29.7, 35.4 18.0, 34.7 31.9 C 41.8 48.2, 68.9 69.8, 65.2 65.2 C 60.8 69.3, 32.3 42.8, 32.8 53.6 C 33.6 46.7, 0.0 21.6, 2.6 9.2 Z" fill="hsl(290, 83%, 63%)" fill-opacity="0.62" stroke="none" stroke-width="4.35"  transform="translate(69.6 36.1) rotate(206.3) scale(1.21 1.55)" />
<rect x="29.7" y="7.9" width="31.9" height="38.6" rx="0" fill="none" fill-opacity="0.69"   transform="translate(45.7 39.5) rotate(181.6) scale(1.23 1.25)" />
<path d="M 97.4 83.7 C 82.2 83.2, 84.0 28.3, 82.2 35.8 C 71.6 49.4, 32.9 11.4, 39.5 9.9 C 24.6 3.2, 62.8 88.2, 56.4 83.8 C 51.2 83.7, 68.8 75.0, 61.4 72.9 C 69.5 77.0, 60.4 93.4, 62.3 82.4 C 43.6 63.1, 90.9 29.8, 88.6 23.7 C 76.6 19.1, 27.5 93.0, 24.4 94.6 C 14.1 88.7, 14.8 24.0, 15.7 33.2 C 7.9 31.9, 0.0 40.6, 3.2 53.6 C 1.1 63.9, 37.2 37.0, 38.6 49.9 Z" fill="none" fill-opacity="0.90" stroke="hsl(242, 72%, 49%)" stroke-width="1.04"  transform="translate(27.3 35.5) rotate(185.2) scale(1.82 0.59)" />
<rect x="68.6" y="79.8" width="20.6" height="14.4" rx="9.3" fill="none" fill-opacity="0.24" stroke="hsl(322, 74%, 44%)" stroke-width="2.6"  transform="translate(35.4 1.7) rotate(245.7) scale(1.94 1.79)" />
<path d="M 77.9 28.4 C 64.3 17.7, 0.0 61.1, 2.4 74.6 C 0.0 62.7, 63.6 4.7, 60.2 15.2 C 76.1 33.5, 10.8 92.3, 16.5 81.2 C 18.1 62.0, 59.3 6.6, 60.6 11.0 C 64.6 16.7, 78.7 49.2, 74.4 38.6 C 89.2 54.7, 30.5 30.2, 17.5 42.6 Z" fill="none" fill-opacity="0.75" stroke="hsl(40, 53%, 69%)" stroke-width="3.36"  transform="translate(67.5 95.3) rotate(190.6) scale(1.09 0.82)" />
<rect x="32.1" y="11.5" width="41.7" height="19.6" rx="0" fill="none" fill-opacity="0.44"   transform="translate(70.0 51.5) rotate(302.3) scale(0.96 1.49)" />
<path d="M 62.7 63.7 C 75.1 77.3, 69.5 43.7, 71.4 54.8 C 51.4 52.4, 84.8 100.0, 72.6 100.0 C 69.4 94.0, 65.5 11.2, 52.2 2.2 C 49.8 6.8, 26.2 81.9, 12.5 73.9 C 15.8 91.4, 74.4 11.8, 71.6 2.8 C 75.1 14.6, 53.4 0.0, 50.6 3.8 Z" fill="hsl(106, 75%, 59%)" fill-opacity="0.95" stroke="none" stroke-width="4.92"  transform="translate(28.8 84.2) rotate(15.5) scale(1.98 1.60)" />
<path d="M 33.5 84.5 C 44.5 100.0, 59.8 32.1, 67.3 33.0 C 54.9 35.4, 0.0 20.6, 4.7 23.6 C 24.0 18.1, 49.1 58.1, 38.3 70.0 C 50.9 51.1, 25.9 26.1, 31.0 22.4 C 44.7 41.8, 79.1 1.9, 65.8 16.5 C 69.1 29.5, 90.1 7.6, 84.0 7.5 Z" fill="none" fill-opacity="0.73" stroke="hsl(151, 70%, 62%)" stroke-width="2.28"  transform="translate(93.1 84.5) rotate(352.1) scale(1.95 1.30)" />
<path d="M 28.6 15.5 C 27.1 10.0, 51.3 8.9, 45.9 0.6 C 28.3 11.4, 54.6 87.4, 60.8 97.7 C 41.8 100.0, 77.3 11.1, 68.7 16.7 C 76.4 0.0, 9.5 85.2, 13.0 71.0 C 24.3 74.2, 31.0 20.7, 16.3 9.2 C 4.8 0.0, 52.2 23.3, 38.1 27.2 C 57.6 39.9, 25.5 100.0, 15.2 97.5 C 25.7 91.3, 81.3 65.8, 95.2 74.3 Z" fill="hsl(106, 75%, 59%)" fill-opacity="0.27" stroke="none" stroke-width="1.49"  transform="translate(9.6 21.8) rotate(224.5) scale(0.55 1.85)" />
<rect x="40.1" y="30.7" width="31.5" height="26.7" rx="13.3" fill="none" fill-opacity="0.44"   transform="translate(11.8 67.0) rotate(215.9) scale(1.31 1.64)" />
<rect x="25.6" y="61.3" width="46.4" height="22.1" rx="0" fill="hsl(104, 72%, 65%)" fill-opacity="0.94" stroke="hsl(144, 86%, 72%)" stroke-width="1.1"  transform="translate(34.5 93.9) rotate(32.0) scale(0.99 1.09)" />
<rect x="33.6" y="12.0" width="23.1" height="36.6" rx="0" fill="hsl(2, 82%, 55%)" fill-opacity="0.37" stroke="hsl(86, 72%, 68%)" stroke-width="2.9"  transform="translate(27.9 20.6) rotate(160.8) scale(0.95 1.68)" />
<rect x="0.1" y="46.2" width="43.3" height="38.9" rx="15.4" fill="none" fill-opacity="0.85"   transform="translate(61.7 30.7) rotate(259.4) scale(1.56 1.80)" />
<rect x="15.2" y="39.8" width="45.2" height="26.1" rx="0" fill="hsl(151, 70%, 62%)" fill-opacity="0.96" stroke="hsl(144, 86%, 72%)" stroke-width="4.1"  transform="translate(29.1 22.0) rotate(142.5) scale(1.91 0.99)" />
<path d="M 10.3 80.6 C 2.8 90.0, 86.1 20.8, 89.9 22.6 C 92.0 9.1, 82.3 32.1, 86.7 25.7 C 74.4 34.7, 24.7 57.6, 38.7 53.2 C 22.2 39.7, 53.5 18.2, 42.8 22.7 C 59.6 13.6, 28.5 1.2, 41.6 7.3 C 33.9 0.0, 56.4 11.2, 58.1 10.3 C 59.6 0.0, 3.7 66.1, 13.5 76.2 Z" fill="none" fill-opacity="0.37" stroke="hsl(290, 83%, 63%)" stroke-width="3.32" filter="url(#f1)" transform="translate(1.1 13.8) rotate(71.7) scale(1.75 1.16)" />
<path d="M 87.2 81.5 C 67.8 63.5, 57.7 16.2, 72.7 1.7 C 73.6 16.4, 35.0 52.7, 32.7 48.7 C 27.4 61.2, 65.0 83.5, 71.8 73.5 C 72.9 58.1, 17.2 85.4, 5.7 78.6 C 23.4 89.1, 76.0 0.0, 85.7 2.2 C 69.8 0.0, 32.6 66.6, 40.6 77.0 C 53.1 59.4, 59.9 5.9, 47.5 8.0 C 31.9 18.9, 35.1 97.2, 47.9 90.4 C 42.3 91.4, 81.8 42.9, 74.8 42.9 Z" fill="none" fill-opacity="0.66" stroke="hsl(106, 75%, 59%)" stroke-width="3.20"  transform="translate(70.1 51.9) rotate(188.4) scale(0.53 0.87)" />
<path d="M 48.9 25.0 C 62.1 36.7, 4.4 53.2, 5.9 64.0 C 7.8 47.6, 75.2 14.8, 86.7 9.5 C 100.0 19.4, 12.3 61.6, 5.1 75.2 C 0.2 58.7, 16.8 84.8, 24.9 97.2 C 27.9 99.2, 43.5 59.6, 37.1 68.3 C 18.5 59.3, 45.4 34.7, 42.1 33.6 C 34.2 14.5, 80.4 54.6, 72.3 66.6 Z" fill="hsl(290, 83%, 63%)" fill-opacity="0.68" stroke="none" stroke-width="3.29"  transform="translate(58.7 0.9) rotate(314.0) scale(0.80 1.24)" />
<rect x="29.2" y="62.6" width="31.4" height="34.8" rx="0" fill="hsl(86, 72%, 68%)" fill-opacity="0.94"    />
<path d="M 24.3 66.7 C 43.0 78.7, 65.8 76.0, 58.8 76.3 C 40.4 82.4, 93.7 14.3, 88.3 18.5 C 90.1 13.3, 47.7 59.4, 61.3 44.9 C 58.0 44.6, 10.2 33.7, 14.8 30.2 C 30.8 30.5, 28.4 50.3, 25.7 64.1 C 13.3 58.6, 52.7 40.1, 56.1 32.4 Z" fill="hsl(242, 72%, 49%)" fill-opacity="0.47" stroke="none" stroke-width="4.24"  transform="translate(61.3 81.1) rotate(45.2) scale(0.67 1.48)" />
<rect x="13.3" y="36.5" width="24.3" height="17.0" rx="9.6" fill="none" fill-opacity="0.78" stroke="hsl(2, 82%, 55%)" stroke-width="4.7"  transform="translate(19.7 24.6) rotate(218.6) scale(1.13 1.47)" />
<path d="M 18.3 67.8 C 15.7 70.0, 37.5 19.4, 25.0 27.9 C 9.7 44.0, 60.1 0.7, 65.4 6.7 C 69.2 0.0, 89.9 44.8, 76.3 53.4 C 60.6 72.3, 100.0 40.6, 89.4 32.8 C 100.0 15.5, 61.8 71.8, 53.8 80.0 C 41.6 88.7, 50.4 57.9, 59.1 44.8 Z" fill="none" fill-opacity="0.93" stroke="hsl(144, 86%, 72%)" stroke-width="2.12"  transform="translate(54.1 96.0) rotate(32.7) scale(1.29 1.52)" />
<circle cx="43.2" cy="44.3" r="11.6" fill="hsl(183, 71%, 60%)" fill-opacity="0.84"  transform="translate(17.6 89.0) rotate(267.3) scale(1.50 1.13)" />
<path d="M 20.9 83.2 C 20.3 100.0, 31.5 66.1, 23.6 68.3 C 30.4 84.2, 3.6 53.2, 18.0 54.3 C 20.9 47.6, 61.4 23.6, 63.9 36.4 C 56.4 46.5, 42.1 31.9, 56.3 25.0 C 69.7 28.3, 29.3 83.2, 17.1 72.1 C 36.7 84.3, 87.0 42.3, 86.9 32.1 C 95.6 47.8, 100.0 36.2, 96.5 33.9 Z" fill="none" fill-opacity="0.77" stroke="hsl(83, 65%, 44%)" stroke-width="4.13"   />
<path d="M 45.6 51.6 C 49.4 55.1, 74.8 70.3, 66.3 60.4 C 75.5 73.1, 6.2 45.0, 13.0 46.4 C 2.6 33.7, 8.8 62.3, 10.8 71.5 C 0.0 71.5, 77.8 94.0, 72.7 92.8 C 61.2 99.7, 47.0 26.6, 50.1 36.4 C 41.5 43.0, 59.1 82.0, 53.2 67.2 Z" fill="hsl(2, 82%, 55%)" fill-opacity="0.89" stroke="none" stroke-width="1.40"  transform="translate(50.2 3.1) rotate(138.4) scale(0.92 1.70)" />
<path d="M 60.3 74.3 C 62.2 67.0, 26.5 45.9, 15.2 38.4 C 4.1 21.7, 51.7 26.7, 64.8 21.5 C 70.7 4.5, 25.4 39.0, 15.4 25.6 C 24.9 18.0, 93.4 52.7, 82.1 67.1 C 100.0 80.0, 47.7 52.4, 55.0 54.2 C 35.6 70.6, 92.8 100.0, 92.5 90.8 C 84.1 100.0, 61.5 31.2, 47.8 18.1 Z" fill="hsl(83, 65%, 44%)" fill-opacity="0.90" stroke="none" stroke-width="3.08"   />
<path d="M 8.3 59.5 C 2.2 66.9, 65.4 79.8, 53.5 87.9 C 45.5 67.9, 74.8 3.6, 65.4 5.3 C 62.9 19.7, 77.3 51.0, 70.7 56.5 C 74.2 44.8, 100.0 90.0, 95.3 83.0 C 83.9 67.1, 53.7 52.1, 41.3 66.8 C 31.8 57.1, 29.1 58.6, 18.3 56.5 C 34.0 37.4, 100.0 46.3, 87.2 38.5 C 100.0 55.0, 98.5 24.1, 98.8 25.8 Z" fill="hsl(106, 75%, 59%)" fill-opacity="1.00" stroke="none" stroke-width="1.19"  transform="translate(19.4 75.6) rotate(23.2) scale(0.74 1.48)" />
<path d="M 72.5 15.7 C 57.8 0.9, 26.4 67.5, 38.9 60.8 C 58.3 70.3, 100.0 76.8, 98.2 89.6 C 99.4 70.4, 11.8 71.4, 24.0 77.3 C 30.9 97.2, 26.7 16.2, 38.2 27.8 C 44.1 21.4, 88.5 92.8, 86.6 78.4 C 74.4 79.1, 48.0 93.5, 40.6 80.9 C 29.4 90.0, 56.6 41.6, 45.3 29.6 C 48.9 32.8, 24.0 65.4, 31.4 61.3 Z" fill="hsl(183, 71%, 60%)" fill-opacity="0.82" stroke="none" stroke-width="3.64" filter="url(#f1)" transform="translate(40.4 7.4) rotate(201.8) scale(0.67 0.97)" />
<path d="M 75.3 30.1 C 77.9 39.9, 83.4 95.5, 95.5 88.9 C 88.3 94.7, 5.8 93.7, 17.1 97.5 C 30.3 100.0, 0.0 35.2, 5.1 45.3 C 13.3 63.2, 66.7 52.7, 71.1 44.1 C 80.4 45.3, 67.7 47.6, 54.5 34.6 C 58.9 28.1, 67.5 0.9, 54.7 1.5 C 69.8 20.5, 23.1 19.9, 27.4 32.4 C 36.8 48.1, 41.0 11.6, 54.8 16.5 C 54.7 34.3, 100.0 95.5, 95.4 95.0 Z" fill="none" fill-opacity="0.54" stroke="hsl(322, 74%, 44%)" stroke-width="1.88"  transform="translate(60.4 65.7) rotate(3.6) scale(1.18 1.27)" />
<path d="M 43.9 6.1 C 61.5 9.4, 19.0 49.1, 8.4 48.3 C 0.0 38.4, 87.7 15.6, 93.9 6.3 C 98.1 14.1, 29.6 21.8, 37.5 14.7 C 55.8 16.8, 22.5 27.5, 35.8 21.2 C 52.6 21.1, 59.3 53.6, 45.3 55.4 C 49.6 49.3, 38.4 9.5, 26.1 10.3 Z" fill="none" fill-opacity="0.44" stroke="hsl(322, 74%, 44%)" stroke-width="1.58"   />
<path d="M 15.3 77.2 C 1.2 69.4, 35.5 43.1, 31.1 46.1 C 11.5 55.3, 83.4 28.3, 80.7 38.6 C 91.5 20.7, 81.2 41.8, 83.2 47.3 C 87.0 34.7, 35.1 60.3, 23.6 50.8 C 41.6 52.4, 87.4 100.0, 81.7 90.9 C 62.5 95.9, 86.8 64.5, 88.8 63.4 C 90.8 47.1, 46.7 0.0, 37.8 3.3 Z" fill="none" fill-opacity="0.70" stroke="hsl(183, 71%, 60%)" stroke-width="2.00"  transform="translate(46.6 7.1) rotate(291.5) scale(1.63 0.85)" />
<path d="M 77.3 23.0 C 87.9 18.4, 94.4 83.5, 97.3 87.7 C 100.0 97.9, 18.0 4.3, 32.5 1.9 C 31.7 21.5, 100.0 62.3, 93.2 63.5 C 86.9 57.6, 26.3 58.4, 35.5 61.7 C 31.1 73.1, 69.5 52.1, 75.8 49.6 C 66.4 29.6, 64.5 51.5, 51.7 49.3 C 60.0 58.8, 86.0 36.6, 85.1 25.2 C 68.1 15.4, 96.3 15.0, 94.3 8.5 Z" fill="hsl(106, 75%, 59%)" fill-opacity="0.94" stroke="none" stroke-width="1.78"  transform="translate(8.7 59.1) rotate(186.3) scale(1.90 0.52)" />
<path d="M 84.6 97.6 C 95.6 86.8, 100.0 0.0, 93.8 0.0 C 100.0 0.0, 35.2 46.0, 26.4 52.6 C 45.8 37.9, 12.0 40.9, 22.5 40.9 C 4.5 48.7, 48.1 24.5, 50.3 32.9 C 52.9 22.6, 24.1 60.1, 20.3 71.5 C 28.9 88.5, 13.5 53.1, 17.7 63.1 C 0.4 79.9, 73.2 0.0, 84.1 4.8 C 68.5 0.0, 67.1 24.4, 64.9 12.5 C 84.6 0.0, 32.4 100.0, 23.0 99.5 " fill="none" fill-opacity="0.96" stroke="hsl(40, 53%, 69%)" stroke-width="1.28"  transform="translate(29.3 87.0) rotate(41.2) scale(1.96 0.57)" />
<path d="M 30.4 49.5 C 38.6 64.2, 26.5 70.3, 39.3 84.4 C 44.7 90.4, 29.8 53.1, 38.7 39.2 C 42.1 48.1, 25.9 19.8, 14.7 9.2 C 11.2 28.4, 25.2 70.4, 20.6 82.6 C 14.3 88.7, 35.0 75.0, 38.2 64.5 C 42.2 60.4, 60.1 56.1, 70.1 58.0 C 76.4 52.0, 21.3 22.7, 16.9 12.7 C 34.3 15.0, 78.8 60.1, 90.9 45.9 C 100.0 42.6, 100.0 63.7, 99.9 66.7 Z" fill="hsl(242, 72%, 49%)" fill-opacity="0.73" stroke="none" stroke-width="1.09"  transform="translate(55.7 92.6) rotate(87.3) scale(0.79 1.25)" />
<circle cx="3.9" cy="46.8" r="4.1" fill="url(#g2)" fill-opacity="0.92"  transform="translate(24.8 58.9) rotate(22.7) scale(1.06 1.85)" />
<rect x="35.2" y="65.5" width="49.0" height="20.3" rx="0" fill="none" fill-opacity="0.62"   transform="translate(23.6 92.6) rotate(352.6) scale(1.45 1.43)" />
<path d="M 13.2 66.1 C 4.5 78.0, 92.9 71.9, 79.1 58.2 C 60.2 67.9, 20.1 9.4, 33.8 9.0 C 23.5 24.9, 68.7 25.4, 64.8 18.4 C 45.9 0.0, 6.4 56.3, 14.3 61.3 C 17.3 78.2, 73.1 81.4, 58.9 77.9 C 78.5 59.7, 24.2 84.9, 26.1 83.8 C 13.3 73.1, 20.8 31.5, 8.0 29.8 C 19.7 27.9, 13.9 88.1, 18.3 92.9 Z" fill="hsl(83, 65%, 44%)" fill-opacity="0.94" stroke="none" stroke-width="3.27"   />
<path d="M 9.2 84.2 C 1.7 64.3, 17.0 94.5, 7.1 82.7 C 0.0 74.6, 72.0 52.6, 80.9 63.3 C 70.0 58.9, 36.6 27.4, 49.1 19.0 C 57.6 34.1, 62.3 81.7, 77.0 88.5 C 92.7 69.3, 90.5 88.1, 77.1 76.4 C 82.1 82.7, 44.6 100.0, 46.5 99.4 Z" fill="hsl(106, 75%, 59%)" fill-opacity="0.50" stroke="none" stroke-width="3.83"  transform="translate(88.4 62.2) rotate(137.0) scale(0.55 0.75)" />
<path d="M 30.4 8.2 C 35.4 7.2, 56.0 0.0, 63.5 11.1 C 50.2 25.4, 53.7 52.1, 64.1 56.6 C 63.7 39.9, 60.1 28.5, 51.9 35.5 C 57.4 47.3, 10.3 63.1, 9.7 58.7 C 21.8 50.4, 92.4 11.9, 93.1 24.6 C 79.5 26.2, 76.9 61.3, 70.4 72.2 C 53.1 56.2, 50.6 64.9, 52.8 61.8 Z" fill="none" fill-opacity="0.43" stroke="hsl(40, 53%, 69%)" stroke-width="4.70" filter="url(#f1)" transform="translate(46.7 99.5) rotate(266.7) scale(0.58 1.60)" />
<path d="M 61.2 53.0 C 80.9 62.0, 65.3 13.1, 80.1 26.8 C 68.9 19.4, 72.4 12.0, 58.1 13.4 C 44.0 17.0, 34.7 26.5, 20.9 18.0 C 22.0 37.7, 83.5 35.6, 86.9 36.9 C 82.2 28.6, 68.4 70.8, 82.9 79.8 C 100.0 69.6, 55.4 75.1, 64.6 84.5 C 49.5 91.9, 96.8 78.0, 85.2 86.0 C 65.8 100.0, 76.8 6.9, 89.5 0.8 C 70.5 0.0, 28.1 75.7, 15.4 88.7 C 12.3 76.8, 26.0 9.7, 12.0 3.5 Z" fill="none" fill-opacity="0.56" stroke="hsl(242, 72%, 49%)" stroke-width="1.63"  transform="translate(7.7 32.4) rotate(191.0) scale(1.93 0.75)" />
<path d="M 45.0 73.3 C 48.7 55.3, 50.2 13.4, 41.0 15.8 C 24.9 27.7, 32.9 42.2, 30.2 54.6 C 20.8 70.4, 54.6 58.1, 66.0 65.4 C 50.2 52.8, 80.5 40.7, 92.8 42.3 C 100.0 44.6, 43.4 39.8, 28.9 44.9 C 13.0 46.8, 42.4 43.6, 52.0 34.5 C 62.0 18.5, 36.6 79.8, 26.0 73.5 C 16.5 80.6, 88.6 13.1, 82.1 6.5 Z" fill="none" fill-opacity="0.87" stroke="hsl(151, 70%, 62%)" stroke-width="2.74"   />
<circle cx="87.7" cy="71.8" r="5.9" fill="hsl(2, 82%, 55%)" fill-opacity="0.71"  transform="translate(17.1 63.7) rotate(113.3) scale(1.04 0.83)" />
<circle cx="22.7" cy="65.5" r="6.3" fill="hsl(40, 53%, 69%)" fill-opacity="0.76"  transform="translate(29.6 64.9) rotate(324.6) scale(1.84 0.94)" />
<path d="M 97.3 38.6 C 100.0 38.4, 45.4 57.9, 58.2 45.8 C 66.0 27.2, 14.3 49.7, 9.2 47.0 C 22.1 31.2, 84.9 100.0, 96.0 99.2 C 82.3 99.8, 86.1 17.2, 74.6 8.0 C 92.0 19.8, 41.4 86.1, 52.6 91.4 C 68.6 87.6, 43.2 5.7, 33.5 9.3 C 17.5 20.4, 16.3 68.2, 30.2 61.9 C 44.2 64.5, 66.2 100.0, 60.2 99.6 Z" fill="hsl(86, 72%, 68%)" fill-opacity="0.77" stroke="none" stroke-width="4.35"  transform="translate(52.3 59.8) rotate(49.9) scale(1.14 0.75)" />
<path d="M 79.2 15.4 C 61.3 0.0, 69.9 27.0, 68.5 24.3 C 88.1 36.9, 80.1 79.2, 76.5 75.3 C 80.4 67.6, 13.7 17.2, 27.0 20.9 C 40.7 22.8, 68.6 70.9, 77.3 61.9 C 85.9 54.4, 98.5 83.6, 87.2 76.9 C 80.1 78.4, 15.6 49.9, 27.1 49.4 Z" fill="none" fill-opacity="0.46" stroke="hsl(40, 53%, 69%)" stroke-width="1.87"   />
<path d="M 13.0 87.0 C 0.0 86.2, 28.7 69.7, 17.2 66.5 C 5.4 78.3, 33.2 71.2, 37.6 81.8 C 33.1 85.2, 27.8 44.9, 19.7 54.2 C 28.6 68.8, 72.0 34.7, 67.7 28.6 C 49.3 40.9, 10.2 61.0, 13.4 62.4 C 32.9 65.0, 38.5 34.3, 32.6 27.4 C 47.2 16.9, 60.3 73.3, 73.5 71.3 C 87.4 84.7, 66.9 45.3, 67.9 54.5 C 84.6 40.6, 19.5 92.1, 28.5 79.7 Z" fill="hsl(151, 70%, 62%)" fill-opacity="0.79" stroke="none" stroke-width="5.21"  transform="translate(34.1 89.1) rotate(107.0) scale(0.89 1.69)" />
<path d="M 55.6 0.5 C 68.4 20.0, 35.2 74.8, 37.9 72.0 C 39.4 90.9, 36.9 61.2, 44.3 47.5 C 57.4 31.5, 1.5 8.4, 14.3 6.2 C 20.2 15.0, 28.7 30.7, 42.9 40.3 C 57.0 29.9, 12.7 16.8, 22.6 23.6 C 19.8 11.2, 6.6 33.1, 13.3 39.4 C 5.2 29.8, 19.4 12.2, 6.5 18.7 Z" fill="hsl(242, 72%, 49%)" fill-opacity="0.93" stroke="none" stroke-width="2.03"  transform="translate(43.2 19.5) rotate(87.2) scale(1.58 0.99)" />
<path d="M 90.0 66.3 C 100.0 60.7, 5.0 36.2, 4.7 40.5 C 0.0 45.9, 74.0 47.5, 76.5 48.2 C 79.5 58.7, 51.7 84.6, 65.2 82.0 C 57.3 88.4, 6.8 82.5, 5.9 69.4 C 23.9 80.0, 32.7 89.8, 41.1 85.5 C 36.2 76.4, 84.8 61.1, 79.0 57.7 C 88.3 72.8, 79.5 10.0, 82.4 22.7 C 66.9 18.1, 67.7 14.1, 67.7 3.5 C 76.3 17.9, 20.4 89.6, 19.6 95.0 Z" fill="hsl(106, 75%, 59%)" fill-opacity="0.56" stroke="none" stroke-width="5.17"  transform="translate(36.9 9.2) rotate(264.8) scale(1.32 1.97)" />
<circle cx="52.8" cy="51.7" r="4.6" fill="url(#g0)" fill-opacity="0.54"  transform="translate(48.7 0.6) rotate(147.7) scale(1.32 1.49)" />
<g opacity="0.049">
<rect x="0" y="0" width="1" height="100" fill="black" />
<rect x="22" y="0" width="1" height="100" fill="black" />
<rect x="44" y="0" width="1" height="100" fill="black" />
<rect x="66" y="0" width="1" height="100" fill="black" />
<rect x="88" y="0" width="1" height="100" fill="black" />
<rect x="0" y="0" width="100" height="1" fill="black" />
<rect x="0" y="22" width="100" height="1" fill="black" />
<rect x="0" y="44" width="100" height="1" fill="black" />
<rect x="0" y="66" width="100" height="1" fill="black" />
<rect x="0" y="88" width="100" height="1" fill="black" />
</g>

</svg>
