<?xml version="1.0" encoding="UTF-8"?>
<svg xmlns="http://www.w3.org/2000/svg" width="100" height="100" viewBox="0 0 100 100">
<defs>
<linearGradient id="g0" x1="0%" y1="0%" x2="100%" y2="100%">
<stop offset="0.0%" stop-color="hsl(106, 75%, 59%)" />
<stop offset="33.3%" stop-color="hsl(183, 71%, 60%)" />
<stop offset="66.7%" stop-color="hsl(242, 72%, 49%)" />
<stop offset="100.0%" stop-color="hsl(322, 74%, 44%)" />
</linearGradient>
<linearGradient id="g1" x1="0%" y1="0%" x2="100%" y2="100%">
<stop offset="0.0%" stop-color="hsl(290, 83%, 63%)" />
<stop offset="33.3%" stop-color="hsl(2, 82%, 55%)" />
<stop offset="66.7%" stop-color="hsl(86, 72%, 68%)" />
<stop offset="100.0%" stop-color="hsl(83, 65%, 44%)" />
</linearGradient>
<linearGradient id="g2" x1="0%" y1="0%" x2="100%" y2="100%">
<stop offset="0.0%" stop-color="hsl(40, 53%, 69%)" />
<stop offset="33.3%" stop-color="hsl(104, 72%, 65%)" />
<stop offset="66.7%" stop-color="hsl(144, 86%, 72%)" />
<stop offset="100.0%" stop-color="hsl(151, 70%, 62%)" />
</linearGradient>
<filter id="f1" x="-20%" y="-20%" width="140%" height="140%">
  <feGaussianBlur stdDeviation="1.3404038910125196" />
</filter>

</defs>

<rect x="43.6" y="29.3" width="40.9" height="33.7" rx="7.0" fill="none" fill-opacity="0.37"   transform="translate(78.7 87.5) rotate(38.3) scale(1.28 0.85)" />
<path d="M 45.6 98.0 C 39.0 99.6, 36.4 16.6, 50.2 9.5 C 56.5 22.7, 24.4 11.1, 29.3 23.6 C 28.7 32.7, 37.7 63.2, 49.4 59.4 C 33.2 48.3, 89.7 71.2, 90.5 82.5 C 98.4 64.4, 82.7 33.2, 87.9 25.3 C 75.6 7.1, 71.7 83.2, 63.3 92.3 Z" fill="none" fill-opacity="0.91" stroke="hsl(104, 72%, 65%)" stroke-width="3.27"  transform="translate(31.2 42.5) rotate(324.8) scale(1.22 1.93)" />
<path d="M 17.7 68.7 C 12.5 72.4, 23.1 50.5, 19.4 37.5 C 7.1 41.2, 51.7 71.2, 63.8 73.4 C 79.7 77.4, 52.0 18.3, 48.9 17.1 C 36.7 4.4, 100.0 95.6, 93.1 97.8 C 75.5 80.2, 31.2 14.3, 34.3 23.5 C 24.8 43.3, 9.5 33.8, 12.6 31.6 C 12.2 49.0, 92.6 8.5, 92.9 12.1 Z" fill="none" fill-opacity="0.76" stroke="hsl(242, 72%, 49%)" stroke-width="4.32"  transform="translate(87.6 70.0) rotate(325.4) scale(1.79 1.06)" />
<path d="M 7.7 6.0 C 6.9 0.0, 89.0 17.3, 85.1 10.8 C 86.8 0.0, 82.1 6.1, 77.9 10.4 C 72.4 0.0, 18.9 84.7, 5.3 84.6 C 23.4 100.0, 68.6 39.4, 66.8 48.1 C 68.3 58.4, 90.8 6.4, 89.5 7.4 C 80.4 4.5, 5.2 78.1, 19.2 75.7 C 13.8 89.1, 43.7 72.2, 40.2 67.7 C 26.4 81.2, 44.4 6.0, 57.4 8.0 C 59.9 25.2, 100.0 95.1, 95.9 84.7 Z" fill="hsl(151, 70%, 62%)" fill-opacity="0.60" stroke="none" stroke-width="0.86"  transform="translate(64.7 71.6) rotate(53.5) scale(1.87 1.17)" />
<rect x="76.0" y="52.6" width="20.7" height="20.6" rx="15.5" fill="hsl(104, 72%, 65%)" fill-opacity="0.89"   transform="translate(63.8 89.2) rotate(39.3) scale(1.74 1.42)" />
<path d="M 92.0 79.1 C 98.7 83.3, 55.9 99.7, 61.5 96.2 C 63.4 79.6, 34.8 5.5, 48.3 1.3 C 44.7 9.0, 71.6 99.3, 73.5 87.3 C 54.2 70.2, 31.7 19.4, 30.1 11.6 C 14.2 16.8, 41.4 4.8, 55.3 8.4 C 49.2 28.3, 19.1 2.1, 25.1 6.9 C 39.9 9.2, 74.9 84.2, 70.4 95.2 C 63.2 77.9, 69.1 62.4, 82.0 53.1 C 79.4 53.4, 17.8 100.0, 26.8 97.6 C 19.9 89.5, 100.0 75.7, 95.0 76.7 Z" fill="hsl(2, 82%, 55%)" fill-opacity="0.86" stroke="none" stroke-width="1.66"  transform="translate(57.3 88.2) rotate(201.3) scale(0.87 0.95)" />
<path d="M 27.7 84.4 C 38.5 92.9, 29.8 21.6, 22.7 6.7 C 18.0 1.7, 82.1 40.4, 88.5 31.5 C 97.4 43.5, 60.2 50.0, 51.7 48.0 C 47.0 46.0, 17.7 84.8, 32.5 81.8 C 42.6 90.8, 6.7 90.0, 8.6 80.8 C 0.0 67.2, 2.1 87.9, 4.1 79.3 C 17.9 87.8, 78.3 61.1, 91.7 57.2 C 97.3 76.5, 32.9 92.2, 27.8 99.1 Z" fill="hsl(151, 70%, 62%)" fill-opacity="0.36" stroke="none" stroke-width="2.81"  transform="translate(37.2 40.0) rotate(138.6) scale(1.63 1.70)" />
<path d="M 10.2 9.5 C 1.8 7.4, 11.8 75.3, 11.3 75.5 C 0.6 86.0, 49.9 100.0, 44.2 91.7 C 27.4 100.0, 100.0 15.2, 93.3 16.3 C 73.4 19.1, 45.6 27.1, 55.2 18.9 C 49.0 8.3, 51.4 21.5, 52.0 22.0 C 40.0 26.6, 66.0 96.0, 55.4 88.7 C 39.2 89.8, 62.7 13.0, 65.9 8.5 Z" fill="hsl(106, 75%, 59%)" fill-opacity="0.27" stroke="none" stroke-width="4.70"  transform="translate(72.0 43.9) rotate(82.4) scale(1.33 1.84)" />
<circle cx="12.3" cy="9.1" r="0.4" fill="url(#g2)" fill-opacity="0.77"  transform="translate(43.8 21.3) rotate(174.3) scale(1.36 1.16)" />
<rect x="6.2" y="23.5" width="33.0" height="11.5" rx="0" fill="hsl(106, 75%, 59%)" fill-opacity="0.87"   transform="translate(7.7 58.4) rotate(174.6) scale(1.83 0.76)" />
<path d="M 85.4 15.1 C 100.0 20.8, 36.8 74.7, 35.5 87.2 C 33.3 95.6, 54.7 58.6, 55.0 44.0 C 63.6 49.4, 96.8 38.7, 85.5 40.8 C 100.0 58.9, 83.9 4.6, 72.2 0.7 C 74.1 1.4, 83.3 0.0, 90.6 7.0 C 78.1 0.0, 58.3 37.8, 65.0 42.2 C 73.1 51.9, 60.7 25.1, 55.0 36.3 C 69.2 48.0, 28.3 79.4, 16.4 90.6 Z" fill="hsl(83, 65%, 44%)" fill-opacity="0.43" stroke="none" stroke-width="3.20"  transform="translate(30.0 51.6) rotate(275.2) scale(1.52 0.86)" />
<rect x="24.4" y="75.2" width="37.3" height="11.0" rx="0" fill="none" fill-opacity="0.48"   transform="translate(69.6 40.9) rotate(158.8) scale(0.90 0.56)" />
<circle cx="3.1" cy="31.1" r="5.0" fill="url(#g1)" fill-opacity="0.64"  transform="translate(6.4 30.1) rotate(177.6) scale(1.10 1.84)" />
<circle cx="75.5" cy="63.0" r="1.2" fill="hsl(2, 82%, 55%)" fill-opacity="0.47"  transform="translate(88.0 51.7) rotate(184.5) scale(1.79 1.18)" />
<path d="M 49.6 89.7 C 57.1 73.2, 86.5 71.3, 71.7 68.7 C 83.4 87.1, 56.2 61.2, 66.9 55.5 C 82.8 52.2, 7.1 3.7, 18.8 10.7 C 19.5 26.7, 57.7 74.4, 58.2 75.8 C 65.2 90.4, 10.8 5.6, 15.4 5.6 C 16.4 0.0, 84.6 37.1, 84.3 34.2 C 68.0 14.3, 44.4 52.6, 42.5 53.9 Z" fill="none" fill-opacity="0.25" stroke="hsl(86, 72%, 68%)" stroke-width="1.00"   />
<rect x="2.4" y="5.3" width="45.4" height="23.4" rx="0" fill="none" fill-opacity="0.55"   transform="translate(88.4 29.7) rotate(170.5) scale(1.27 1.73)" />
<circle cx="33.5" cy="78.3" r="3.2" fill="hsl(322, 74%, 44%)" fill-opacity="0.73"   />
<path d="M 48.1 32.0 C 46.3 35.8, 7.2 40.3, 6.3 36.5 C 14.1 17.5, 34.1 29.0, 43.6 37.8 C 47.3 54.5, 15.3 61.4, 18.5 52.6 C 7.8 40.5, 57.1 12.5, 60.6 14.6 C 78.6 9.1, 100.0 78.4, 99.7 70.8 C 100.0 81.0, 39.2 95.3, 42.8 96.4 C 29.1 97.9, 93.0 29.9, 96.2 16.7 C 100.0 3.8, 0.0 93.2, 6.7 83.9 Z" fill="none" fill-opacity="0.64" stroke="hsl(83, 65%, 44%)" stroke-width="3.48"  transform="translate(8.7 52.1) rotate(94.0) scale(1.06 1.88)" />
<circle cx="88.9" cy="35.9" r="16.9" fill="url(#g0)" fill-opacity="0.82"   />
<circle cx="33.1" cy="55.3" r="4.8" fill="hsl(104, 72%, 65%)" fill-opacity="0.61" filter="url(#f1)" transform="translate(96.7 54.9) rotate(198.9) scale(0.75 1.36)" />
<rect x="6.6" y="64.7" width="36.7" height="12.1" rx="11.9" fill="none" fill-opacity="0.30" stroke="hsl(183, 71%, 60%)" stroke-width="4.4"  transform="translate(52.3 76.9) rotate(162.2) scale(0.59 1.37)" />
<rect x="51.8" y="8.9" width="29.0" height="18.1" rx="19.4" fill="none" fill-opacity="0.21"   transform="translate(80.2 44.5) rotate(102.2) scale(1.66 1.60)" />
<rect x="3.5" y="78.7" width="39.0" height="18.5" rx="0" fill="hsl(104, 72%, 65%)" fill-opacity="0.36" stroke="hsl(40, 53%, 69%)" stroke-width="2.1"  transform="translate(77.8 51.8) rotate(207.7) scale(0.97 1.84)" />
<circle cx="87.8" cy="50.6" r="4.2" fill="url(#g1)" fill-opacity="0.87"  transform="translate(32.2 98.9) rotate(328.8) scale(1.32 0.94)" />
<path d="M 95.5 72.8 C 100.0 70.3, 25.2 72.6, 10.4 70.6 C 0.0 71.3, 26.5 42.4, 26.3 55.7 C 32.6 48.1, 1.1 46.4, 3.3 55.3 C 0.0 52.9, 50.6 33.0, 43.2 39.7 C 47.6 20.2, 8.4 78.5, 8.6 88.5 C 21.6 92.7, 81.0 62.7, 69.5 61.3 C 74.4 55.9, 15.7 89.7, 21.5 95.4 C 3.3 85.0, 92.0 32.1, 90.0 17.8 C 89.1 9.0, 37.1 3.0, 33.3 10.9 C 36.5 0.0, 11.5 47.8, 13.2 53.1 Z" fill="hsl(83, 65%, 44%)" fill-opacity="0.99" stroke="none" stroke-width="1.27"  transform="translate(34.5 54.3) rotate(92.3) scale(0.62 0.63)" />
<path d="M 7.0 96.9 C 0.0 86.1, 24.3 71.8, 30.0 86.3 C 42.3 84.8, 31.7 100.0, 23.5 98.1 C 23.7 80.1, 52.8 92.7, 48.1 98.3 C 47.9 88.8, 18.4 82.2, 22.1 96.3 C 9.0 100.0, 23.3 47.9, 30.6 60.0 C 28.1 50.8, 86.7 27.5, 97.1 25.3 Z" fill="hsl(86, 72%, 68%)" fill-opacity="0.47" stroke="none" stroke-width="0.96"  transform="translate(66.0 72.9) rotate(106.9) scale(0.64 1.65)" />
<circle cx="28.6" cy="71.3" r="13.0" fill="hsl(322, 74%, 44%)" fill-opacity="0.65"  transform="translate(80.4 91.0) rotate(214.3) scale(1.54 1.73)" />
<path d="M 74.7 19.0 C 64.5 36.1, 40.3 0.0, 43.5 8.4 C 41.8 23.8, 11.5 70.9, 14.5 81.3 C 13.2 63.4, 12.7 2.2, 5.2 7.0 C 12.2 21.1, 58.1 46.4, 69.7 57.5 C 60.7 55.8, 56.3 1.9, 69.7 4.9 C 88.7 22.7, 6.2 19.7, 2.4 9.2 Z" fill="hsl(183, 71%, 60%)" fill-opacity="0.53" stroke="none" stroke-width="2.96"  transform="translate(25.3 15.0) rotate(134.3) scale(1.38 1.99)" />
<circle cx="85.4" cy="87.6" r="0.1" fill="url(#g0)" fill-opacity="0.55" filter="url(#f1)" transform="translate(64.9 30.9) rotate(93.6) scale(0.60 0.69)" />
<circle cx="96.9" cy="33.6" r="2.5" fill="hsl(144, 86%, 72%)" fill-opacity="0.98"   />
<circle cx="73.4" cy="7.1" r="2.6" fill="url(#g1)" fill-opacity="0.75"  transform="translate(39.3 2.6) rotate(352.3) scale(1.32 0.70)" />
<rect x="67.2" y="18.7" width="21.9" height="11.6" rx="3.4" fill="none" fill-opacity="0.93"   transform="translate(55.0 48.5) rotate(111.4) scale(0.72 1.27)" />
<path d="M 83.1 37.0 C 79.0 42.7, 17.2 43.3, 26.7 32.7 C 25.0 34.1, 47.4 43.1, 57.7 47.8 C 73.9 41.4, 59.4 59.1, 67.8 62.2 C 82.6 52.9, 63.8 66.0, 55.2 69.4 C 36.6 76.9, 47.6 100.0, 34.6 98.3 C 19.3 100.0, 41.1 100.0, 47.4 93.3 Z" fill="hsl(104, 72%, 65%)" fill-opacity="0.42" stroke="none" stroke-width="2.11"  transform="translate(6.4 89.6) rotate(8.7) scale(0.57 0.84)" />
<path d="M 81.4 52.1 C 80.7 33.2, 18.3 31.0, 15.1 29.8 C 28.5 15.3, 90.4 100.0, 91.5 93.2 C 81.7 74.1, 86.8 73.6, 97.1 72.5 C 95.5 54.0, 82.9 63.7, 79.5 78.6 C 95.4 78.6, 46.0 43.3, 52.6 51.9 C 34.9 36.0, 56.7 95.4, 57.1 83.3 C 68.5 86.5, 42.0 45.0, 32.5 33.8 Z" fill="hsl(2, 82%, 55%)" fill-opacity="0.28" stroke="none" stroke-width="3.77"  transform="translate(21.7 61.2) rotate(249.5) scale(1.10 1.12)" />
<path d="M 28.2 73.4 C 22.8 75.6, 29.1 11.9, 22.2 24.1 C 23.0 30.0, 18.4 93.5, 13.7 97.0 C 26.4 100.0, 81.7 65.7, 94.1 60.5 C 100.0 41.5, 46.0 55.2, 40.9 50.1 C 53.0 55.5, 65.8 80.3, 76.3 93.9 C 73.8 77.7, 25.2 56.9, 10.7 49.8 " fill="hsl(151, 70%, 62%)" fill-opacity="0.90" stroke="none" stroke-width="1.62"  transform="translate(35.6 21.2) rotate(136.9) scale(1.57 0.51)" />
<circle cx="22.1" cy="51.0" r="6.1" fill="hsl(322, 74%, 44%)" fill-opacity="0.47"   />
<path d="M 65.0 9.1 C 71.2 0.0, 0.0 92.9, 7.8 88.6 C 8.8 98.2, 6.4 35.5, 20.3 32.4 C 16.3 20.3, 47.8 21.6, 42.7 13.7 C 31.2 24.0, 53.9 68.7, 59.9 61.5 C 76.1 43.4, 12.8 75.4, 25.8 71.8 C 20.0 76.5, 80.3 11.8, 94.1 0.8 C 100.0 7.7, 49.4 87.7, 39.5 94.3 C 33.1 89.2, 100.0 100.0, 91.4 95.9 C 100.0 100.0, 44.2 0.0, 40.9 7.9 C 33.1 0.0, 94.3 73.8, 81.9 85.3 Z" fill="none" fill-opacity="0.62" stroke="hsl(151, 70%, 62%)" stroke-width="4.47"  transform="translate(16.5 89.5) rotate(312.2) scale(0.84 0.57)" />
<rect x="10.8" y="32.4" width="28.5" height="11.6" rx="15.1" fill="hsl(83, 65%, 44%)" fill-opacity="0.56"   transform="translate(50.3 14.7) rotate(60.8) scale(0.94 1.97)" />
<rect x="2.6" y="73.1" width="34.2" height="10.9" rx="0" fill="hsl(106, 75%, 59%)" fill-opacity="0.47"   transform="translate(9.1 60.3) rotate(206.5) scale(1.89 1.43)" />
<path d="M 33.8 50.2 C 24.5 53.3, 12.6 59.5, 12.6 62.8 C 30.1 79.0, 21.6 47.1, 10.4 54.7 C 10.8 61.7, 66.4 19.9, 61.1 32.6 C 47.5 12.8, 71.2 87.1, 80.9 76.8 C 67.8 92.7, 40.4 14.4, 30.1 3.0 C 23.8 0.0, 52.1 65.7, 51.5 54.7 C 71.3 59.8, 37.8 23.0, 41.3 29.0 C 40.5 45.2, 45.5 11.0, 47.9 10.2 Z" fill="hsl(86, 72%, 68%)" fill-opacity="0.59" stroke="none" stroke-width="4.02"  transform="translate(84.1 41.8) rotate(27.6) scale(1.25 0.94)" />
<path d="M 23.2 85.3 C 7.2 99.1, 73.2 89.4, 65.2 98.5 C 46.1 100.0, 0.0 64.5, 0.9 59.7 C 17.6 55.8, 85.5 21.2, 99.1 30.1 C 94.0 32.7, 100.0 0.0, 89.8 1.5 C 71.0 19.8, 82.7 70.2, 97.4 64.4 C 92.4 67.3, 63.5 34.4, 53.5 35.7 C 56.7 54.4, 77.8 14.9, 64.6 19.9 Z" fill="none" fill-opacity="0.60" stroke="hsl(144, 86%, 72%)" stroke-width="4.92"  transform="translate(61.5 66.8) rotate(168.7) scale(0.94 0.70)" />
<rect x="26.4" y="42.0" width="42.4" height="15.8" rx="8.7" fill="none" fill-opacity="0.90" stroke="hsl(242, 72%, 49%)" stroke-width="1.3"  transform="translate(74.8 30.2) rotate(247.3) scale(1.30 0.90)" />
<path d="M 61.2 57.5 C 49.2 45.3, 0.0 44.4, 1.9 40.3 C 0.0 39.7, 71.6 72.7, 74.4 66.5 C 61.3 69.9, 47.9 39.4, 43.2 51.7 C 61.6 34.5, 90.4 75.9, 86.0 86.7 C 100.0 98.7, 40.5 88.7, 49.4 75.6 C 44.8 74.5, 26.5 77.8, 36.6 62.8 C 33.2 74.7, 2.1 76.6, 0.1 63.6 C 0.0 69.5, 38.8 43.5, 25.6 54.9 C 22.4 55.6, 40.2 52.7, 27.2 58.1 C 15.8 68.3, 45.2 32.4, 53.1 47.4 " fill="none" fill-opacity="0.93" stroke="hsl(40, 53%, 69%)" stroke-width="2.85"   />
<rect x="42.2" y="65.4" width="47.8" height="22.5" rx="3.8" fill="none" fill-opacity="0.93" stroke="hsl(2, 82%, 55%)" stroke-width="3.1"  transform="translate(98.0 91.6) rotate(341.1) scale(0.77 1.19)" />
<circle cx="22.2" cy="3.6" r="6.0" fill="url(#g1)" fill-opacity="0.47"  transform="translate(12.8 37.1) rotate(58.5) scale(1.37 1.33)" />
<path d="M 17.3 78.2 C 5.7 83.2, 39.8 47.7, 52.6 45.8 C 54.7 36.4, 34.3 32.6, 37.4 28.4 C 43.4 39.3, 12.0 54.5, 25.0 59.8 C 17.3 47.9, 49.3 57.1, 61.7 64.9 C 59.7 46.7, 58.0 72.2, 45.5 75.9 C 62.0 58.8, 89.9 13.0, 95.1 5.3 C 91.5 0.0, 4.4 44.1, 1.7 40.5 Z" fill="hsl(86, 72%, 68%)" fill-opacity="0.82" stroke="none" stroke-width="4.70"  transform="translate(43.6 73.8) rotate(63.1) scale(1.27 0.69)" />
<rect x="20.2" y="9.0" width="23.9" height="21.1" rx="0" fill="hsl(86, 72%, 68%)" fill-opacity="0.60" stroke="hsl(83, 65%, 44%)" stroke-width="2.8"  transform="translate(86.1 19.7) rotate(82.9) scale(0.72 1.25)" />
<rect x="26.2" y="26.3" width="34.3" height="11.3" rx="0" fill="none" fill-opacity="0.27"   transform="translate(88.2 59.6) rotate(107.0) scale(0.68 1.42)" />
<circle cx="76.5" cy="1.3" r="10.6" fill="hsl(183, 71%, 60%)" fill-opacity="0.64"  transform="translate(59.5 51.0) rotate(0.5) scale(1.41 1.64)" />
<path d="M 73.2 20.4 C 68.3 29.4, 53.5 20.3, 65.6 16.2 C 59.2 11.0, 79.7 31.0, 75.0 19.1 C 57.4 14.0, 70.0 52.8, 58.3 64.2 C 67.6 74.9, 100.0 52.9, 88.7 40.4 C 73.8 47.2, 38.5 32.4, 24.5 22.2 C 12.9 32.7, 60.7 99.4, 47.5 89.5 C 54.8 72.1, 100.0 43.7, 98.5 40.8 Z" fill="hsl(2, 82%, 55%)" fill-opacity="0.56" stroke="none" stroke-width="1.71" filter="url(#f1)" transform="translate(26.5 3.3) rotate(352.4) scale(1.27 1.97)" />
<circle cx="87.3" cy="74.2" r="1.5" fill="hsl(183, 71%, 60%)" fill-opacity="0.81"  transform="translate(64.6 73.4) rotate(257.2) scale(1.75 0.73)" />
<circle cx="82.2" cy="21.7" r="5.6" fill="hsl(106, 75%, 59%)" fill-opacity="0.59"  transform="translate(53.7 11.1) rotate(260.7) scale(0.96 0.97)" />
<rect x="30.8" y="52.2" width="26.6" height="29.2" rx="11.9" fill="none" fill-opacity="0.62"   transform="translate(15.9 45.9) rotate(327.7) scale(0.76 1.85)" />
<path d="M 5.8 87.4 C 10.1 87.8, 31.3 32.6, 29.2 26.2 C 45.4 17.1, 70.6 100.0, 75.9 88.0 C 94.7 69.1, 0.0 9.6, 0.5 5.8 C 8.5 20.2, 47.1 82.1, 43.7 89.5 C 29.2 75.7, 26.1 95.4, 34.0 94.3 C 35.7 100.0, 71.3 68.4, 58.4 78.5 Z" fill="hsl(86, 72%, 68%)" fill-opacity="0.71" stroke="none" stroke-width="4.29"  transform="translate(98.6 78.0) rotate(121.4) scale(1.21 1.91)" />
<rect x="49.4" y="22.6" width="31.3" height="24.3" rx="3.5" fill="none" fill-opacity="0.35" stroke="hsl(144, 86%, 72%)" stroke-width="3.0"  transform="translate(14.1 51.2) rotate(338.0) scale(0.81 1.61)" />
<path d="M 10.5 82.9 C 14.8 77.5, 85.3 23.9, 88.4 29.4 C 71.5 23.6, 83.9 7.8, 90.5 9.2 C 81.0 23.4, 3.0 90.2, 7.5 98.6 C 0.0 89.3, 57.7 90.5, 61.5 83.3 C 58.0 92.0, 18.5 45.6, 32.6 58.4 C 21.0 42.6, 38.6 40.0, 26.3 32.2 C 40.3 25.1, 55.3 1.8, 47.7 2.3 C 43.4 0.0, 43.0 100.0, 29.0 91.2 Z" fill="hsl(290, 83%, 63%)" fill-opacity="0.28" stroke="none" stroke-width="4.30"  transform="translate(53.4 26.1) rotate(52.1) scale(1.01 0.55)" />
<rect x="21.3" y="6.8" width="26.7" height="39.9" rx="0" fill="none" fill-opacity="0.57"   transform="translate(49.1 91.7) rotate(289.7) scale(1.37 0.55)" />
<rect x="47.3" y="30.9" width="33.7" height="20.9" rx="0" fill="hsl(40, 53%, 69%)" fill-opacity="0.72" stroke="hsl(104, 72%, 65%)" stroke-width="1.9"  transform="translate(90.4 48.6) rotate(273.5) scale(1.67 1.78)" />
<path d="M 0.4 97.7 C 15.6 97.6, 78.4 90.1, 73.1 76.4 C 57.2 68.5, 100.0 41.4, 97.0 36.1 C 86.5 54.7, 83.3 64.1, 93.3 63.9 C 94.2 57.4, 99.2 1.4, 96.0 7.6 C 100.0 0.0, 25.6 40.8, 11.7 28.8 C 29.6 24.2, 31.8 39.1, 39.5 33.1 C 39.7 27.2, 0.0 0.0, 1.5 3.3 C 0.0 0.0, 51.0 85.7, 59.9 91.6 C 79.3 96.7, 80.3 77.8, 80.5 92.2 Z" fill="none" fill-opacity="0.93" stroke="hsl(104, 72%, 65%)" stroke-width="4.51"  transform="translate(4.1 83.3) rotate(150.7) scale(0.83 1.44)" />
<rect x="29.6" y="21.5" width="48.5" height="25.1" rx="0" fill="none" fill-opacity="0.23"   transform="translate(16.2 71.4) rotate(292.2) scale(1.42 1.61)" />
<rect x="14.3" y="30.7" width="42.9" height="13.0" rx="0" fill="hsl(83, 65%, 44%)" fill-opacity="0.66"   transform="translate(34.6 34.0) rotate(254.4) scale(1.67 1.48)" />
<rect x="30.5" y="55.1" width="40.3" height="31.5" rx="0" fill="none" fill-opacity="0.79"  filter="url(#f1)" transform="translate(61.6 91.6) rotate(154.8) scale(1.44 1.08)" />
<rect x="21.5" y="40.5" width="27.9" height="39.7" rx="7.6" fill="none" fill-opacity="0.55" stroke="hsl(242, 72%, 49%)" stroke-width="1.3"   />
<path d="M 28.5 55.3 C 12.8 72.5, 72.6 83.8, 65.5 69.5 C 52.4 60.3, 90.7 5.6, 78.1 2.0 C 76.7 0.0, 69.7 98.0, 80.6 96.8 C 80.6 89.0, 46.0 72.4, 48.5 58.6 C 59.9 66.1, 3.3 60.5, 14.6 69.8 C 9.1 60.2, 74.1 61.9, 77.7 73.0 C 73.8 90.2, 100.0 79.8, 92.8 86.3 C 79.4 100.0, 35.4 68.7, 45.2 53.9 " fill="hsl(104, 72%, 65%)" fill-opacity="0.54" stroke="none" stroke-width="1.41"  transform="translate(16.6 13.2) rotate(359.7) scale(1.10 1.21)" />
<path d="M 86.5 45.5 C 97.1 36.3, 25.1 35.8, 31.7 47.9 C 33.6 44.6, 63.6 77.3, 72.4 69.0 C 60.2 58.0, 9.1 0.0, 4.4 7.4 C 0.0 0.0, 76.7 95.2, 63.6 84.6 C 59.8 86.6, 46.0 46.9, 37.7 37.3 C 30.9 24.4, 23.2 65.4, 11.6 55.9 C 25.4 58.1, 24.9 61.8, 15.9 60.2 C 8.9 75.3, 39.2 0.0, 39.9 2.3 C 39.6 0.0, 39.0 33.3, 38.2 43.2 " fill="none" fill-opacity="0.95" stroke="hsl(104, 72%, 65%)" stroke-width="5.17"  transform="translate(88.7 25.7) rotate(126.1) scale(0.64 0.83)" />
<path d="M 71.5 18.4 C 68.9 37.2, 100.0 39.2, 89.1 47.4 C 100.0 53.9, 14.3 10.9, 21.5 9.3 C 32.6 28.3, 40.9 28.9, 37.5 37.3 C 42.8 26.4, 78.8 41.7, 76.3 43.8 C 76.1 35.8, 100.0 0.0, 91.2 8.5 C 100.0 22.6, 84.6 90.9, 86.6 91.4 Z" fill="none" fill-opacity="0.28" stroke="hsl(183, 71%, 60%)" stroke-width="0.93"  transform="translate(33.8 83.9) rotate(335.0) scale(1.86 1.17)" />
<rect x="40.2" y="61.0" width="31.3" height="28.6" rx="0" fill="none" fill-opacity="0.43"   transform="translate(43.8 29.5) rotate(50.9) scale(1.64 0.61)" />
<path d="M 5.2 75.7 C 0.0 94.4, 48.1 21.7, 49.6 18.3 C 60.7 2.4, 35.4 83.6, 43.0 73.7 C 50.7 63.1, 39.8 89.3, 31.1 85.9 C 20.0 91.8, 77.1 100.0, 79.1 93.9 C 86.7 78.2, 16.1 0.0, 28.4 0.7 C 38.3 0.0, 50.2 98.5, 57.7 87.8 C 48.8 79.4, 66.0 0.0, 62.5 0.7 C 59.4 13.5, 0.8 100.0, 4.8 96.9 Z" fill="hsl(183, 71%, 60%)" fill-opacity="0.59" stroke="none" stroke-width="1.35"  transform="translate(39.5 95.1) rotate(201.4) scale(1.02 1.49)" />
<rect x="22.5" y="36.6" width="45.7" height="28.8" rx="0.1" fill="none" fill-opacity="0.37"   transform="translate(93.7 9.8) rotate(91.9) scale(1.06 0.70)" />
<path d="M 61.6 95.7 C 81.0 76.1, 36.9 6.4, 36.4 18.8 C 48.5 24.3, 75.6 65.8, 87.8 59.5 C 81.5 52.9, 85.1 67.1, 74.3 80.4 C 72.5 78.2, 0.0 37.6, 4.1 31.5 C 4.0 27.2, 38.1 68.8, 27.1 58.2 C 33.8 76.0, 30.6 94.2, 17.6 95.8 Z" fill="hsl(86, 72%, 68%)" fill-opacity="0.90" stroke="none" stroke-width="1.90"  transform="translate(45.7 27.3) rotate(195.4) scale(1.04 0.71)" />
<path d="M 11.0 91.2 C 0.0 72.8, 44.9 26.1, 30.2 27.5 C 28.9 24.5, 84.2 22.2, 71.2 27.5 C 67.5 30.5, 34.5 52.6, 19.9 37.8 C 29.3 21.6, 30.3 69.3, 38.7 71.7 C 53.1 63.8, 73.1 57.4, 64.9 60.0 C 46.8 77.7, 26.9 16.4, 17.0 24.1 C 24.0 38.9, 77.9 74.1, 83.7 87.7 C 67.4 96.6, 37.0 26.4, 35.2 36.6 Z" fill="none" fill-opacity="0.62" stroke="hsl(86, 72%, 68%)" stroke-width="3.62"  transform="translate(78.9 68.5) rotate(137.1) scale(0.76 1.21)" />
<circle cx="0.8" cy="0.6" r="8.0" fill="url(#g0)" fill-opacity="0.43"  transform="translate(39.4 19.5) rotate(174.7) scale(0.52 1.61)" />
<rect x="30.0" y="20.9" width="22.9" height="22.5" rx="0" fill="none" fill-opacity="0.53"    />
<rect x="37.2" y="65.7" width="42.4" height="31.0" rx="0" fill="hsl(242, 72%, 49%)" fill-opacity="0.21" stroke="hsl(106, 75%, 59%)" stroke-width="3.9"  transform="translate(29.5 13.1) rotate(87.0) scale(1.88 0.59)" />
<path d="M 46.1 82.7 C 57.4 96.5, 13.8 9.4, 23.9 17.3 C 14.9 2.8, 42.1 72.5, 48.4 65.5 C 64.4 69.6, 80.8 41.4, 77.3 31.9 C 66.4 33.9, 39.1 93.3, 25.2 85.3 C 37.3 67.3, 97.9 100.0, 83.7 99.8 C 85.1 89.1, 99.6 94.0, 99.2 84.7 C 91.4 99.7, 0.0 14.4, 5.3 18.5 Z" fill="none" fill-opacity="0.97" stroke="hsl(144, 86%, 72%)" stroke-width="1.04"  transform="translate(57.2 62.5) rotate(228.2) scale(0.58 0.71)" />
<rect x="30.3" y="63.3" width="45.7" height="30.4" rx="0" fill="none" fill-opacity="0.57"   transform="translate(4.9 66.5) rotate(318.6) scale(1.78 0.80)" />
<path d="M 55.0 42.8 C 41.8 31.1, 0.0 75.7, 1.6 89.0 C 12.7 78.7, 23.7 3.5, 14.9 8.9 C 0.0 3.3, 41.8 16.5, 48.7 3.2 C 57.4 18.1, 100.0 74.5, 87.8 66.9 C 100.0 78.2, 22.6 73.7, 33.6 73.4 C 36.7 84.6, 0.0 66.7, 8.8 61.1 Z" fill="hsl(144, 86%, 72%)" fill-opacity="0.51" stroke="none" stroke-width="4.59"  transform="translate(34.1 85.8) rotate(197.9) scale(1.92 0.72)" />
<rect x="33.1" y="63.8" width="50.0" height="16.2" rx="7.4" fill="none" fill-opacity="0.32"   transform="translate(83.0 31.6) rotate(273.6) scale(0.52 1.67)" />
<path d="M 55.3 58.0 C 56.9 57.0, 81.6 100.0, 80.4 90.6 C 86.7 100.0, 71.3 17.9, 62.0 9.1 C 64.5 19.9, 24.0 3.6, 27.3 1.7 C 12.0 11.5, 68.1 93.5, 75.9 90.3 C 85.6 78.8, 65.3 55.9, 50.6 55.2 C 47.5 51.8, 71.3 76.5, 66.4 82.7 C 81.2 85.1, 40.8 46.6, 37.5 31.8 Z" fill="hsl(106, 75%, 59%)" fill-opacity="0.65" stroke="none" stroke-width="2.12"  transform="translate(40.5 95.0) rotate(328.8) scale(0.68 1.86)" />
<rect x="35.4" y="25.0" width="34.4" height="15.5" rx="13.8" fill="hsl(104, 72%, 65%)" fill-opacity="0.52" stroke="hsl(40, 53%, 69%)" stroke-width="2.0"  transform="translate(19.3 57.6) rotate(341.5) scale(1.48 1.67)" />
<path d="M 69.6 52.5 C 50.2 40.5, 17.8 100.0, 23.0 97.9 C 14.3 96.5, 15.2 41.5, 29.6 28.4 C 11.0 32.3, 60.8 34.8, 53.6 22.1 C 57.6 28.5, 35.4 48.7, 42.6 59.6 C 35.2 76.1, 27.3 15.9, 29.1 28.8 C 46.5 26.1, 98.7 53.9, 84.4 68.1 C 77.6 82.3, 54.3 14.7, 58.8 27.1 C 53.3 41.0, 90.0 43.3, 84.2 45.8 C 72.5 62.7, 45.8 24.3, 50.6 11.4 C 44.7 12.7, 4.4 86.5, 6.8 90.3 Z" fill="hsl(83, 65%, 44%)" fill-opacity="0.87" stroke="none" stroke-width="4.57"  transform="translate(90.2 41.2) rotate(149.0) scale(0.53 0.95)" />
<path d="M 28.7 6.3 C 28.1 0.0, 40.6 29.6, 31.4 16.0 C 41.0 26.3, 59.6 39.8, 68.5 27.7 C 54.0 40.5, 85.2 84.0, 98.5 81.5 C 84.4 95.3, 85.1 2.3, 80.4 5.4 C 74.1 3.8, 0.0 38.1, 7.5 23.1 C 19.4 24.1, 17.7 76.1, 19.5 78.1 Z" fill="hsl(322, 74%, 44%)" fill-opacity="0.43" stroke="none" stroke-width="1.88"  transform="translate(95.2 90.1) rotate(123.5) scale(1.14 1.01)" />
<path d="M 65.5 38.9 C 55.3 33.5, 60.0 86.7, 55.0 99.2 C 61.3 85.0, 67.8 100.0, 78.7 96.7 C 59.1 100.0, 100.0 5.5, 92.2 14.9 C 91.6 0.0, 67.6 0.8, 70.4 3.1 C 55.1 1.1, 65.5 29.9, 51.3 20.4 C 35.6 27.4, 11.6 41.0, 16.1 38.9 Z" fill="hsl(151, 70%, 62%)" fill-opacity="0.53" stroke="none" stroke-width="1.07"  transform="translate(47.5 92.2) rotate(139.9) scale(1.02 0.59)" />
<path d="M 65.0 6.3 C 58.7 0.0, 0.7 47.4, 4.9 55.1 C 0.0 38.3, 0.0 86.1, 10.4 82.8 C 0.0 79.0, 27.9 58.8, 26.5 59.6 C 30.8 66.3, 35.4 30.0, 23.4 39.2 C 4.1 24.3, 60.6 85.1, 58.4 97.1 C 52.8 84.7, 66.0 42.9, 63.1 29.4 C 47.1 35.0, 56.5 43.2, 41.5 51.5 Z" fill="hsl(290, 83%, 63%)" fill-opacity="0.39" stroke="none" stroke-width="2.95"  transform="translate(91.0 22.9) rotate(145.3) scale(0.64 1.45)" />
<path d="M 0.4 93.3 C 11.0 93.1, 71.4 88.6, 61.6 81.2 C 50.3 78.7, 55.5 76.5, 54.3 83.7 C 70.9 89.5, 99.8 41.3, 86.6 34.6 C 71.8 35.5, 43.7 87.8, 39.0 87.1 C 27.7 94.6, 26.1 8.2, 23.1 12.6 C 4.4 20.7, 76.6 75.7, 86.3 72.7 C 74.9 59.4, 71.6 55.6, 79.7 44.3 Z" fill="none" fill-opacity="0.38" stroke="hsl(86, 72%, 68%)" stroke-width="3.70" filter="url(#f1)" transform="translate(11.1 14.6) rotate(196.7) scale(1.38 0.55)" />
<circle cx="75.8" cy="89.2" r="8.5" fill="url(#g0)" fill-opacity="0.53"  transform="translate(55.5 3.4) rotate(84.8) scale(1.46 1.29)" />
<path d="M 37.5 44.9 C 48.0 45.2, 70.3 23.6, 79.9 37.3 C 75.4 36.2, 74.3 45.2, 83.0 51.4 C 65.4 36.7, 48.4 84.2, 54.4 78.9 C 45.6 62.5, 37.7 39.2, 24.0 48.7 C 12.0 40.8, 32.4 92.6, 28.5 85.6 C 32.1 98.9, 72.8 89.8, 71.5 94.7 Z" fill="hsl(242, 72%, 49%)" fill-opacity="0.68" stroke="none" stroke-width="2.23" filter="url(#f1)" transform="translate(13.4 62.4) rotate(65.5) scale(0.97 1.06)" />
<path d="M 76.1 52.7 C 93.2 53.7, 37.6 33.1, 31.2 41.2 C 20.5 58.3, 9.7 6.8, 9.7 17.9 C 0.0 16.1, 6.4 75.7, 21.2 85.8 C 35.6 96.9, 12.2 8.7, 14.7 22.4 C 7.7 5.7, 69.2 15.4, 74.8 13.7 C 91.1 31.9, 0.6 37.8, 7.7 52.0 C 13.0 57.9, 63.3 31.2, 51.6 20.2 Z" fill="hsl(40, 53%, 69%)" fill-opacity="0.45" stroke="none" stroke-width="3.85"  transform="translate(92.3 28.5) rotate(272.7) scale(0.99 0.50)" />
<rect x="10.9" y="21.3" width="47.7" height="31.8" rx="19.1" fill="none" fill-opacity="0.78" stroke="hsl(290, 83%, 63%)" stroke-width="3.3"  transform="translate(68.3 99.8) rotate(132.4) scale(1.72 1.79)" />
<path d="M 53.5 62.6 C 54.0 65.8, 53.3 6.2, 49.3 2.4 C 58.1 0.0, 65.9 62.6, 52.0 76.7 C 42.2 85.7, 86.6 60.0, 97.4 45.0 C 100.0 30.6, 73.8 95.7, 81.2 83.3 C 92.5 82.4, 31.2 3.1, 36.7 10.4 C 25.0 9.1, 15.2 0.0, 6.4 8.4 C 3.6 0.0, 25.0 82.6, 33.5 87.3 Z" fill="none" fill-opacity="0.33" stroke="hsl(106, 75%, 59%)" stroke-width="3.22"  transform="translate(85.8 8.4) rotate(32.7) scale(1.90 1.55)" />
<path d="M 90.8 55.9 C 87.3 64.4, 83.5 42.8, 98.0 49.6 C 100.0 36.3, 50.4 85.1, 59.6 97.8 C 55.6 84.5, 25.9 83.0, 39.6 79.3 C 27.0 90.1, 66.7 91.2, 54.5 95.6 C 63.9 100.0, 76.3 24.7, 68.6 19.7 C 50.1 12.9, 84.1 13.2, 75.2 1.2 Z" fill="none" fill-opacity="0.97" stroke="hsl(151, 70%, 62%)" stroke-width="4.37"  transform="translate(40.2 78.3) rotate(101.2) scale(0.67 0.71)" />
<path d="M 22.8 13.3 C 20.7 0.3, 100.0 85.6, 97.5 84.8 C 88.4 100.0, 85.4 15.8, 99.5 26.4 C 97.0 46.2, 99.2 21.3, 93.3 18.7 C 84.8 19.7, 81.4 3.8, 96.3 15.1 C 100.0 5.0, 70.1 78.0, 58.5 91.4 C 42.1 75.2, 14.9 79.9, 7.6 72.0 C 15.0 58.4, 30.4 15.7, 28.8 6.8 C 46.9 0.0, 87.0 32.2, 81.9 26.6 " fill="none" fill-opacity="0.76" stroke="hsl(290, 83%, 63%)" stroke-width="0.81"  transform="translate(83.9 65.7) rotate(223.4) scale(1.98 1.77)" />
<path d="M 94.8 36.5 C 76.3 46.7, 38.7 66.6, 43.5 72.8 C 30.4 83.9, 20.4 79.3, 25.0 67.0 C 28.0 72.2, 74.2 65.7, 81.8 73.9 C 91.4 81.3, 4.9 32.7, 1.9 38.5 C 12.9 46.9, 53.0 31.7, 40.9 45.6 C 52.8 28.3, 0.6 87.0, 12.5 76.1 C 2.7 79.2, 3.3 62.2, 15.2 66.4 C 5.8 56.6, 51.3 100.0, 51.5 94.7 C 60.3 100.0, 90.4 52.3, 82.2 55.6 C 76.5 52.0, 18.8 39.9, 28.2 41.0 Z" fill="hsl(2, 82%, 55%)" fill-opacity="0.89" stroke="none" stroke-width="4.57"  transform="translate(89.0 58.3) rotate(171.0) scale(1.92 0.52)" />
<path d="M 72.8 99.3 C 74.5 100.0, 49.9 4.5, 50.0 8.4 C 59.2 0.0, 77.9 56.5, 87.2 62.0 C 100.0 47.3, 73.9 27.3, 67.1 35.5 C 86.1 26.6, 8.9 19.1, 0.3 24.3 C 13.2 12.2, 25.5 79.4, 39.4 79.3 C 32.6 77.2, 71.4 66.4, 78.1 73.7 C 96.9 56.4, 84.0 70.5, 82.0 78.9 C 86.2 67.4, 28.9 41.0, 17.0 41.4 C 0.0 48.1, 76.7 21.4, 72.0 34.4 C 79.2 27.2, 30.4 45.1, 35.8 58.1 Z" fill="hsl(106, 75%, 59%)" fill-opacity="0.98" stroke="none" stroke-width="4.18"  transform="translate(16.5 99.8) rotate(88.9) scale(0.51 0.86)" />
<path d="M 60.0 73.6 C 43.9 60.3, 57.9 64.5, 68.0 59.7 C 58.1 78.1, 75.4 9.0, 89.5 6.9 C 69.9 12.5, 98.5 45.7, 89.9 52.7 C 98.5 40.0, 56.9 16.2, 63.1 19.3 C 63.7 33.4, 61.8 32.8, 72.8 36.6 C 68.7 29.3, 51.1 61.1, 40.7 75.4 C 51.6 88.7, 38.1 29.8, 37.6 33.7 C 34.5 31.2, 14.5 43.0, 19.4 40.0 Z" fill="none" fill-opacity="0.83" stroke="hsl(106, 75%, 59%)" stroke-width="5.13"  transform="translate(49.3 21.3) rotate(112.7) scale(0.72 1.85)" />
<circle cx="97.4" cy="44.7" r="1.2" fill="url(#g2)" fill-opacity="0.88"  transform="translate(68.7 18.0) rotate(258.6) scale(0.80 1.52)" />
<rect x="23.7" y="47.0" width="28.9" height="29.6" rx="10.3" fill="hsl(40, 53%, 69%)" fill-opacity="0.90"   transform="translate(33.3 74.1) rotate(5.7) scale(1.52 1.23)" />
<path d="M 48.4 22.9 C 63.4 31.4, 11.0 67.7, 21.3 63.5 C 29.9 64.4, 51.5 11.3, 39.5 2.8 C 28.7 0.0, 3.0 96.3, 5.3 89.1 C 3.1 95.4, 100.0 37.8, 89.4 48.1 C 90.3 29.8, 76.1 54.7, 84.7 56.2 C 89.3 60.5, 62.0 47.9, 72.4 56.9 C 54.5 68.7, 45.8 66.5, 55.7 58.1 C 39.5 63.0, 9.2 8.7, 22.1 17.7 C 29.2 26.8, 50.1 57.8, 47.2 52.8 C 66.1 53.7, 10.6 85.4, 3.3 93.8 Z" fill="none" fill-opacity="0.74" stroke="hsl(86, 72%, 68%)" stroke-width="2.55"  transform="translate(37.5 48.0) rotate(72.4) scale(1.35 0.75)" />
<path d="M 62.3 82.6 C 56.3 83.4, 76.7 49.9, 86.8 57.0 C 81.9 62.5, 98.1 93.5, 91.5 95.4 C 100.0 77.6, 25.3 51.4, 25.9 55.0 C 17.7 36.2, 80.5 75.8, 75.8 65.3 C 75.8 71.4, 33.0 87.0, 32.9 95.2 C 50.3 100.0, 34.3 4.7, 36.9 15.5 C 52.0 30.9, 25.8 74.8, 30.0 63.2 C 44.5 58.7, 44.9 90.4, 35.0 84.5 " fill="hsl(106, 75%, 59%)" fill-opacity="0.38" stroke="none" stroke-width="3.10"  transform="translate(66.9 33.8) rotate(248.1) scale(0.88 1.20)" />
<path d="M 59.1 31.0 C 62.2 36.5, 0.0 30.6, 1.9 20.9 C 0.0 28.6, 69.4 32.7, 74.2 37.6 C 66.4 36.1, 89.3 85.9, 97.2 92.6 C 96.4 93.2, 73.3 10.9, 76.4 17.0 C 81.5 22.6, 72.9 0.0, 77.1 3.7 C 64.2 0.0, 89.9 30.2, 99.6 31.2 C 100.0 20.4, 3.6 93.7, 7.4 87.8 Z" fill="hsl(242, 72%, 49%)" fill-opacity="0.39" stroke="none" stroke-width="1.79"  transform="translate(55.4 94.6) rotate(308.8) scale(1.90 0.83)" />
<path d="M 97.9 63.5 C 84.3 65.3, 15.5 68.5, 8.7 75.6 C 24.1 80.9, 56.6 41.5, 43.4 45.7 C 49.2 32.9, 10.8 0.0, 16.8 6.3 C 22.3 7.0, 43.4 78.8, 35.0 78.3 C 40.7 86.3, 55.3 7.5, 41.2 13.0 C 37.6 9.1, 0.0 86.7, 9.2 95.1 C 24.4 100.0, 89.3 64.3, 77.7 77.0 C 58.8 82.0, 34.8 78.1, 33.3 75.1 C 27.5 76.3, 20.3 47.0, 33.8 49.0 C 32.5 59.3, 71.0 73.1, 74.7 83.6 " fill="none" fill-opacity="0.34" stroke="hsl(144, 86%, 72%)" stroke-width="1.92"  transform="translate(63.2 36.2) rotate(166.7) scale(1.05 1.15)" />
<path d="M 30.0 32.1 C 42.2 23.2, 76.1 44.3, 68.7 29.9 C 67.9 23.4, 96.8 53.4, 99.8 59.8 C 84.9 71.6, 30.2 23.2, 43.2 10.1 C 52.3 0.6, 49.8 88.1, 61.8 77.6 C 76.3 72.6, 22.1 46.7, 30.2 43.2 C 11.7 54.2, 55.8 46.0, 49.5 58.3 C 31.4 50.7, 83.0 47.8, 91.2 35.2 Z" fill="none" fill-opacity="0.69" stroke="hsl(242, 72%, 49%)" stroke-width="3.16"  transform="translate(90.6 48.6) rotate(353.0) scale(0.65 0.85)" />
<circle cx="80.9" cy="24.0" r="7.4" fill="hsl(322, 74%, 44%)" fill-opacity="0.61"  transform="translate(45.3 97.5) rotate(129.7) scale(0.62 0.91)" />
<path d="M 69.7 74.1 C 66.0 82.7, 11.5 91.3, 14.8 96.9 C 19.3 100.0, 75.4 5.6, 69.5 8.1 C 50.9 2.1, 90.9 53.1, 95.2 50.8 C 100.0 50.0, 38.1 53.6, 26.0 49.9 C 43.2 34.8, 72.1 69.8, 76.8 75.1 C 92.8 94.2, 41.0 6.6, 54.5 14.7 C 67.4 26.7, 57.3 55.5, 44.2 65.9 C 41.6 53.4, 14.1 14.2, 5.2 7.7 Z" fill="hsl(40, 53%, 69%)" fill-opacity="0.71" stroke="none" stroke-width="4.69" filter="url(#f1)"  />
<path d="M 47.2 49.0 C 31.4 35.6, 76.1 57.4, 73.5 45.4 C 93.1 36.0, 86.5 40.6, 95.1 54.0 C 77.5 35.0, 36.2 46.6, 36.7 42.8 C 24.7 34.6, 26.1 25.9, 30.6 12.5 C 21.7 0.0, 0.0 36.7, 3.4 32.2 C 13.8 14.9, 84.4 34.8, 88.2 49.4 C 100.0 45.6, 47.0 21.8, 52.1 26.5 C 48.5 16.8, 25.7 32.3, 12.4 46.2 C 17.4 31.5, 59.2 60.8, 74.1 69.0 " fill="hsl(290, 83%, 63%)" fill-opacity="0.61" stroke="none" stroke-width="3.34"  transform="translate(33.6 13.8) rotate(108.1) scale(1.55 1.59)" />
<path d="M 87.8 95.8 C 96.3 100.0, 46.3 86.4, 41.0 94.7 C 27.3 87.2, 88.9 85.3, 76.3 87.4 C 95.1 77.2, 0.0 46.5, 1.0 31.6 C 0.0 14.3, 9.9 34.3, 4.6 27.8 C 12.9 46.5, 27.0 49.0, 16.7 44.4 C 4.2 43.2, 17.7 100.0, 27.7 93.2 C 14.6 75.7, 75.6 11.8, 66.6 9.8 C 55.0 0.0, 72.5 56.7, 86.8 48.0 C 100.0 59.0, 36.2 84.3, 23.5 91.8 Z" fill="hsl(40, 53%, 69%)" fill-opacity="0.51" stroke="none" stroke-width="1.83"   />
<rect x="37.9" y="55.9" width="26.5" height="23.9" rx="14.6" fill="hsl(83, 65%, 44%)" fill-opacity="0.63"   transform="translate(41.3 89.8) rotate(247.2) scale(1.21 1.34)" />
<circle cx="39.1" cy="14.7" r="11.5" fill="hsl(40, 53%, 69%)" fill-opacity="0.53"  transform="translate(93.1 43.0) rotate(332.1) scale(1.90 0.74)" />
<rect x="20.2" y="22.0" width="48.3" height="32.7" rx="5.5" fill="none" fill-opacity="0.67" stroke="hsl(151, 70%, 62%)" stroke-width="2.8"  transform="translate(87.7 58.3) rotate(331.7) scale(1.71 1.03)" />
<path d="M 63.0 32.8 C 65.5 22.6, 3.9 46.1, 11.7 40.1 C 1.7 32.2, 81.2 61.9, 84.3 68.2 C 69.3 81.3, 57.1 94.8, 51.0 99.1 C 51.4 81.4, 13.6 10.3, 20.8 6.2 C 26.3 8.6, 60.2 12.0, 56.6 17.4 C 55.4 5.7, 39.5 100.0, 42.6 96.1 C 41.1 76.8, 70.4 17.5, 64.5 3.2 C 56.0 0.0, 66.3 66.4, 56.7 80.5 C 54.7 61.2, 52.5 97.9, 50.0 97.8 Z" fill="hsl(151, 70%, 62%)" fill-opacity="0.26" stroke="none" stroke-width="2.09"  transform="translate(17.5 58.5) rotate(49.7) scale(1.33 1.17)" />
<rect x="18.5" y="61.9" width="29.0" height="36.6" rx="0" fill="hsl(2, 82%, 55%)" fill-opacity="0.68"   transform="translate(93.4 76.2) rotate(90.5) scale(1.21 1.27)" />
<rect x="10.2" y="21.8" width="40.8" height="38.3" rx="19.6" fill="hsl(86, 72%, 68%)" fill-opacity="0.70"  filter="url(#f1)" transform="translate(42.0 9.1) rotate(8.9) scale(0.68 1.64)" />
<rect x="27.6" y="3.7" width="38.0" height="24.3" rx="0" fill="none" fill-opacity="0.21"   transform="translate(84.4 99.0) rotate(255.7) scale(0.66 1.14)" />
<rect x="46.0" y="25.2" width="21.8" height="15.2" rx="4.7" fill="hsl(104, 72%, 65%)" fill-opacity="0.42"   transform="translate(54.5 50.5) rotate(120.0) scale(1.61 1.60)" />
<path d="M 30.4 72.7 C 38.4 90.6, 64.4 15.8, 62.0 20.8 C 66.1 8.7, 35.9 21.4, 48.1 27.9 C 64.4 36.0, 49.7 0.0, 64.4 7.9 C 68.4 3.1, 5.8 64.0, 9.7 78.1 C 4.5 73.8, 78.8 55.6, 85.2 66.7 C 84.4 74.0, 4.5 70.4, 1.7 68.0 C 3.4 53.1, 84.4 4.8, 88.5 15.4 Z" fill="none" fill-opacity="0.51" stroke="hsl(104, 72%, 65%)" stroke-width="1.53" filter="url(#f1)"  />
<circle cx="11.5" cy="20.3" r="10.2" fill="url(#g2)" fill-opacity="0.45"  transform="translate(47.5 83.5) rotate(312.1) scale(1.35 1.01)" />
<path d="M 14.1 98.2 C 17.2 92.7, 46.0 61.9, 35.0 63.0 C 54.5 49.6, 22.4 83.2, 23.5 91.3 C 33.3 89.7, 1.9 80.3, 14.5 72.6 C 5.6 75.1, 53.2 92.4, 61.9 80.0 C 59.3 73.6, 30.8 93.3, 16.0 80.8 C 9.7 75.8, 42.3 85.9, 34.8 96.7 C 50.7 96.6, 68.4 96.5, 78.2 88.8 C 61.8 95.4, 31.1 59.6, 33.8 51.6 C 50.9 39.2, 98.8 11.1, 95.1 3.3 Z" fill="hsl(86, 72%, 68%)" fill-opacity="0.76" stroke="none" stroke-width="5.27"   />
<path d="M 89.9 22.6 C 95.5 40.1, 17.7 43.3, 12.1 29.3 C 25.3 48.7, 53.3 78.2, 66.3 76.4 C 68.1 80.1, 0.0 48.0, 1.8 49.8 C 13.4 44.0, 23.2 21.6, 10.8 23.7 C 9.0 35.0, 7.5 42.9, 18.3 52.2 C 11.9 37.4, 51.1 20.4, 56.7 27.0 Z" fill="none" fill-opacity="0.79" stroke="hsl(322, 74%, 44%)" stroke-width="3.29"  transform="translate(60.3 3.0) rotate(14.8) scale(0.87 1.13)" />
<path d="M 44.0 72.8 C 33.0 89.6, 51.7 73.8, 58.6 69.2 C 44.1 65.7, 0.3 14.0, 4.0 13.6 C 4.1 29.4, 23.5 74.9, 14.3 61.1 C 16.7 49.9, 0.0 83.3, 8.7 77.5 C 26.2 74.9, 64.9 57.1, 57.3 55.9 C 67.8 63.8, 44.4 29.6, 32.0 18.7 Z" fill="none" fill-opacity="0.48" stroke="hsl(290, 83%, 63%)" stroke-width="1.23" filter="url(#f1)"  />
<path d="M 64.0 69.4 C 82.5 61.2, 15.4 48.9, 22.4 38.6 C 15.3 51.4, 55.4 83.3, 59.0 87.9 C 58.4 74.0, 40.4 0.0, 50.8 4.3 C 51.1 0.0, 8.9 48.2, 21.1 59.5 C 29.1 64.9, 61.5 62.8, 53.3 55.5 C 40.6 63.9, 29.7 67.8, 18.0 59.1 Z" fill="none" fill-opacity="0.26" stroke="hsl(290, 83%, 63%)" stroke-width="4.75"  transform="translate(75.6 29.8) rotate(197.0) scale(0.92 1.84)" />
<path d="M 75.3 47.7 C 58.2 30.7, 84.2 72.8, 92.0 59.6 C 100.0 77.0, 21.9 48.8, 8.3 37.1 C 19.3 19.1, 9.5 72.9, 8.9 65.4 C 4.7 59.9, 79.0 93.9, 76.7 94.6 C 60.2 75.8, 66.8 49.8, 56.8 52.7 C 65.6 36.8, 40.9 58.3, 29.5 60.3 C 33.8 63.9, 35.8 47.5, 23.4 39.5 C 20.2 52.6, 23.3 51.5, 24.6 45.7 Z" fill="hsl(106, 75%, 59%)" fill-opacity="0.89" stroke="none" stroke-width="3.67"  transform="translate(16.1 88.3) rotate(73.2) scale(1.74 0.88)" />
<circle cx="57.6" cy="80.0" r="0.0" fill="url(#g1)" fill-opacity="0.76"  transform="translate(57.4 14.6) rotate(109.1) scale(0.51 0.66)" />
<circle cx="17.4" cy="49.7" r="4.2" fill="url(#g2)" fill-opacity="0.42"   />
<path d="M 78.6 76.2 C 76.2 62.6, 81.5 13.8, 77.7 20.7 C 65.6 14.7, 70.4 51.0, 67.2 52.4 C 68.1 35.6, 60.9 73.4, 65.2 68.7 C 60.9 80.8, 67.0 47.3, 52.4 44.1 C 50.9 41.5, 47.5 70.1, 46.5 77.3 C 33.9 74.5, 62.3 57.1, 56.1 57.5 C 57.7 55.3, 13.2 39.0, 6.5 32.9 Z" fill="hsl(151, 70%, 62%)" fill-opacity="0.28" stroke="none" stroke-width="3.00"  transform="translate(98.4 64.2) rotate(116.4) scale(1.40 1.81)" />
<path d="M 8.0 87.0 C 17.6 98.7, 43.3 57.4, 29.1 52.7 C 16.1 48.8, 78.6 92.5, 84.3 77.9 C 100.0 79.5, 29.9 53.9, 40.9 43.3 C 52.3 55.9, 31.6 37.5, 28.7 44.2 C 28.4 26.9, 58.0 56.5, 52.1 63.2 C 67.1 76.9, 52.7 100.0, 51.3 93.2 C 31.5 81.9, 94.0 9.3, 86.2 1.5 C 91.5 9.3, 26.1 14.4, 12.7 16.6 C 7.6 7.1, 22.0 24.5, 33.5 30.4 C 18.7 49.2, 25.4 60.8, 12.3 67.1 Z" fill="hsl(290, 83%, 63%)" fill-opacity="0.49" stroke="none" stroke-width="1.73"  transform="translate(3.8 12.5) rotate(332.9) scale(0.61 1.00)" />
<path d="M 67.4 94.3 C 78.1 97.8, 47.3 98.5, 50.2 98.5 C 48.4 79.9, 7.5 81.8, 3.2 96.1 C 0.0 100.0, 79.9 82.9, 75.9 70.3 C 86.3 74.6, 82.8 75.6, 85.4 89.4 C 70.9 100.0, 43.1 48.2, 39.6 45.0 C 56.4 34.6, 32.3 31.1, 47.3 29.2 Z" fill="hsl(86, 72%, 68%)" fill-opacity="0.97" stroke="none" stroke-width="1.66" filter="url(#f1)"  />
<path d="M 72.7 14.2 C 60.8 7.6, 68.8 74.8, 62.7 83.8 C 60.9 100.0, 69.0 57.9, 73.6 52.1 C 62.1 59.1, 79.0 8.1, 93.1 17.5 C 100.0 26.1, 0.0 58.0, 1.0 56.3 C 0.0 57.8, 88.9 15.8, 90.0 19.9 C 93.2 21.1, 47.0 33.5, 57.3 37.2 Z" fill="hsl(151, 70%, 62%)" fill-opacity="0.66" stroke="none" stroke-width="3.67"  transform="translate(75.0 28.5) rotate(244.0) scale(1.67 0.63)" />
<path d="M 15.9 16.0 C 14.7 0.0, 36.5 97.4, 39.5 92.5 C 29.4 90.6, 42.4 73.5, 49.3 84.0 C 55.2 83.1, 14.1 22.2, 20.8 13.9 C 34.5 4.1, 16.5 37.2, 31.1 45.6 C 23.8 61.4, 40.8 14.5, 26.9 20.5 C 7.0 12.6, 61.9 88.9, 62.2 92.4 C 51.3 74.9, 78.5 15.6, 71.6 17.3 C 58.4 33.4, 24.2 0.0, 25.2 9.3 Z" fill="none" fill-opacity="0.81" stroke="hsl(2, 82%, 55%)" stroke-width="4.83"  transform="translate(90.4 58.2) rotate(165.7) scale(0.81 0.87)" />
<rect x="62.9" y="49.3" width="34.2" height="13.7" rx="0" fill="none" fill-opacity="0.55"   transform="translate(29.0 64.2) rotate(154.4) scale(1.58 0.98)" />
<path d="M 92.8 13.9 C 100.0 13.8, 0.0 73.1, 5.5 65.0 C 22.3 69.6, 53.7 35.8, 67.7 31.4 C 51.6 45.4, 28.9 84.8, 25.2 84.0 C 13.2 89.1, 75.7 54.8, 66.2 42.5 C 73.2 52.7, 75.0 46.5, 79.3 44.9 C 80.3 44.5, 0.0 63.0, 7.4 67.4 C 23.8 83.4, 22.0 9.2, 36.2 18.1 C 25.4 1.5, 33.6 38.8, 19.8 25.7 Z" fill="none" fill-opacity="0.70" stroke="hsl(144, 86%, 72%)" stroke-width="3.77"  transform="translate(20.2 36.2) rotate(221.9) scale(1.06 0.93)" />
<path d="M 9.0 49.2 C 0.0 54.2, 74.8 68.6, 79.9 76.7 C 64.4 67.9, 94.8 95.3, 84.8 94.8 C 77.0 92.8, 32.3 14.5, 32.5 11.4 C 50.6 14.5, 99.9 78.0, 97.5 72.6 C 88.7 55.4, 12.5 68.2, 7.6 78.4 C 10.0 62.3, 13.5 52.1, 19.2 50.8 C 29.0 34.8, 11.6 59.5, 5.7 74.0 " fill="none" fill-opacity="0.76" stroke="hsl(242, 72%, 49%)" stroke-width="4.75"  transform="translate(67.4 59.0) rotate(285.6) scale(1.08 1.78)" />
<path d="M 85.7 19.4 C 94.9 1.2, 84.6 100.0, 77.6 90.3 C 73.7 100.0, 68.3 36.4, 58.7 46.6 C 44.8 50.6, 84.6 57.8, 82.1 51.3 C 89.4 60.4, 48.7 59.5, 59.9 53.9 C 76.4 51.6, 71.4 90.4, 62.2 80.4 C 46.4 93.6, 14.6 51.1, 8.3 58.1 C 17.5 61.2, 90.8 48.8, 93.1 44.0 C 96.1 62.5, 41.2 69.0, 43.2 67.6 C 41.0 60.7, 28.8 42.9, 32.2 54.0 C 25.0 57.5, 52.0 30.1, 41.0 38.8 Z" fill="hsl(183, 71%, 60%)" fill-opacity="0.42" stroke="none" stroke-width="2.30"  transform="translate(63.9 73.5) rotate(343.8) scale(1.04 1.29)" />
<circle cx="95.2" cy="25.6" r="7.8" fill="hsl(322, 74%, 44%)" fill-opacity="0.62"  transform="translate(16.8 91.6) rotate(151.4) scale(1.49 0.80)" />
<path d="M 23.8 68.1 C 33.2 68.3, 23.6 42.6, 28.5 50.8 C 39.3 42.4, 30.0 41.8, 28.7 51.3 C 34.3 40.0, 48.7 100.0, 44.3 95.0 C 29.7 100.0, 37.8 42.6, 51.3 35.8 C 32.0 34.7, 19.9 71.6, 23.5 71.4 C 30.7 90.0, 30.4 64.6, 32.9 60.9 C 21.6 68.1, 52.6 62.2, 57.8 49.2 C 45.0 33.8, 27.0 0.0, 22.9 4.2 C 14.1 0.0, 62.4 23.0, 49.6 35.8 Z" fill="hsl(144, 86%, 72%)" fill-opacity="0.92" stroke="none" stroke-width="3.44" filter="url(#f1)" transform="translate(90.3 15.8) rotate(91.0) scale(1.99 0.69)" />
<g opacity="0.054">
<rect x="0" y="0" width="1" height="100" fill="black" />
<rect x="22" y="0" width="1" height="100" fill="black" />
<rect x="44" y="0" width="1" height="100" fill="black" />
<rect x="66" y="0" width="1" height="100" fill="black" />
<rect x="88" y="0" width="1" height="100" fill="black" />
<rect x="0" y="0" width="100" height="1" fill="black" />
<rect x="0" y="22" width="100" height="1" fill="black" />
<rect x="0" y="44" width="100" height="1" fill="black" />
<rect x="0" y="66" width="100" height="1" fill="black" />
<rect x="0" y="88" width="100" height="1" fill="black" />
</g>

</svg>
