<?xml version="1.0" encoding="UTF-8"?>
<svg xmlns="http://www.w3.org/2000/svg" width="100" height="100" viewBox="0 0 100 100">
<defs>
<linearGradient id="g0" x1="0%" y1="0%" x2="100%" y2="100%">
<stop offset="0.0%" stop-color="hsl(106, 75%, 59%)" />
<stop offset="33.3%" stop-color="hsl(183, 71%, 60%)" />
<stop offset="66.7%" stop-color="hsl(242, 72%, 49%)" />
<stop offset="100.0%" stop-color="hsl(322, 74%, 44%)" />
</linearGradient>
<linearGradient id="g1" x1="0%" y1="0%" x2="100%" y2="100%">
<stop offset="0.0%" stop-color="hsl(290, 83%, 63%)" />
<stop offset="33.3%" stop-color="hsl(2, 82%, 55%)" />
<stop offset="66.7%" stop-color="hsl(86, 72%, 68%)" />
<stop offset="100.0%" stop-color="hsl(83, 65%, 44%)" />
</linearGradient>
<linearGradient id="g2" x1="0%" y1="0%" x2="100%" y2="100%">
<stop offset="0.0%" stop-color="hsl(40, 53%, 69%)" />
<stop offset="33.3%" stop-color="hsl(104, 72%, 65%)" />
<stop offset="66.7%" stop-color="hsl(144, 86%, 72%)" />
<stop offset="100.0%" stop-color="hsl(151, 70%, 62%)" />
</linearGradient>
<filter id="f1" x="-20%" y="-20%" width="140%" height="140%">
  <feGaussianBlur stdDeviation="1.2056065063886676" />
</filter>

</defs>

<path d="M 77.2 64.6 C 77.6 74.6, 78.6 59.9, 63.6 70.3 C 45.5 71.2, 67.3 80.5, 79.7 78.4 C 80.5 59.7, 51.3 28.0, 58.3 26.4 C 40.2 6.9, 62.4 79.5, 47.9 82.6 C 52.2 83.3, 39.0 38.4, 44.7 40.4 C 48.3 47.5, 30.6 23.9, 37.7 25.3 C 44.0 14.1, 27.3 11.7, 38.7 19.9 Z" fill="hsl(151, 70%, 62%)" fill-opacity="0.62" stroke="none" stroke-width="0.96"  transform="translate(91.3 16.6) rotate(238.1) scale(1.59 1.08)" />
<rect x="36.6" y="14.0" width="33.9" height="29.9" rx="16.8" fill="none" fill-opacity="0.57" stroke="hsl(40, 53%, 69%)" stroke-width="1.5"  transform="translate(29.8 77.1) rotate(176.9) scale(1.66 0.82)" />
<rect x="35.9" y="32.2" width="48.9" height="31.2" rx="0" fill="hsl(290, 83%, 63%)" fill-opacity="0.91"   transform="translate(17.9 31.2) rotate(247.4) scale(0.63 1.89)" />
<path d="M 86.2 66.9 C 100.0 47.5, 45.0 39.2, 39.8 49.0 C 20.9 32.1, 68.7 11.0, 56.8 25.8 C 46.9 23.8, 100.0 74.9, 95.3 88.7 C 79.2 100.0, 95.8 88.5, 83.8 86.0 C 97.3 76.5, 18.6 20.4, 9.2 12.9 C 16.8 0.0, 26.2 74.8, 26.0 82.2 C 13.8 98.5, 40.3 83.8, 32.2 82.7 C 16.5 89.8, 23.9 12.5, 37.3 25.4 C 46.3 43.3, 44.4 40.1, 58.7 52.3 C 60.4 39.4, 5.7 34.0, 5.4 28.0 " fill="hsl(106, 75%, 59%)" fill-opacity="1.00" stroke="none" stroke-width="2.74"  transform="translate(46.4 57.0) rotate(114.6) scale(0.80 1.20)" />
<path d="M 25.6 31.1 C 15.1 26.4, 100.0 76.6, 93.6 89.3 C 94.8 100.0, 56.0 94.2, 44.0 99.9 C 25.8 100.0, 74.3 93.0, 59.8 78.3 C 65.7 62.7, 78.6 75.1, 71.4 65.9 C 86.8 63.7, 83.1 24.5, 82.6 35.4 C 84.8 16.9, 12.5 0.0, 19.6 2.8 Z" fill="none" fill-opacity="0.46" stroke="hsl(144, 86%, 72%)" stroke-width="1.63"  transform="translate(87.2 26.5) rotate(173.7) scale(1.46 1.55)" />
<circle cx="57.6" cy="41.7" r="5.7" fill="hsl(106, 75%, 59%)" fill-opacity="0.53" filter="url(#f1)" transform="translate(48.5 41.8) rotate(193.0) scale(0.83 0.91)" />
<path d="M 41.6 38.1 C 27.8 57.8, 49.0 32.2, 41.4 26.5 C 21.6 13.9, 71.9 20.6, 61.7 24.8 C 70.8 44.8, 89.9 51.3, 89.2 62.6 C 71.1 67.4, 52.4 70.1, 54.2 74.7 C 42.1 67.5, 5.0 0.0, 5.0 4.3 C 0.0 13.5, 39.9 37.2, 47.1 35.6 C 46.3 49.3, 76.3 74.5, 74.5 60.7 C 67.4 76.2, 24.3 29.1, 19.5 30.4 C 3.8 31.4, 100.0 23.2, 94.3 17.2 C 100.0 28.8, 74.0 5.3, 84.0 3.7 Z" fill="hsl(86, 72%, 68%)" fill-opacity="0.73" stroke="none" stroke-width="4.96"  transform="translate(78.0 62.5) rotate(24.1) scale(1.28 1.59)" />
<path d="M 25.0 56.3 C 18.2 40.7, 87.6 83.6, 91.4 89.6 C 99.6 92.0, 9.9 28.6, 19.9 42.3 C 2.7 58.1, 61.6 82.1, 49.4 76.9 C 65.8 59.3, 100.0 30.4, 89.0 33.4 C 84.1 20.3, 47.3 45.9, 54.5 60.0 C 63.0 46.2, 81.0 0.0, 92.5 8.4 C 97.8 6.6, 77.8 90.5, 88.9 94.6 Z" fill="none" fill-opacity="0.41" stroke="hsl(86, 72%, 68%)" stroke-width="2.20"  transform="translate(84.1 68.1) rotate(253.2) scale(1.15 0.65)" />
<rect x="49.9" y="29.5" width="27.8" height="39.3" rx="0" fill="hsl(86, 72%, 68%)" fill-opacity="0.59"  filter="url(#f1)" transform="translate(55.3 36.6) rotate(162.4) scale(1.25 1.35)" />
<path d="M 84.1 27.0 C 68.9 22.2, 65.6 54.7, 78.6 49.9 C 74.9 37.0, 74.6 29.8, 76.4 21.1 C 58.2 29.0, 62.0 28.0, 66.3 41.7 C 53.9 39.5, 17.3 7.5, 11.2 13.5 C 27.6 4.4, 42.1 24.7, 55.7 39.1 C 45.0 49.2, 20.9 74.9, 10.5 87.0 C 19.8 93.7, 82.1 21.8, 79.7 29.1 C 65.8 24.0, 53.1 4.8, 57.9 18.8 Z" fill="hsl(83, 65%, 44%)" fill-opacity="0.68" stroke="none" stroke-width="1.47" filter="url(#f1)" transform="translate(75.9 10.7) rotate(11.4) scale(1.16 0.72)" />
<path d="M 9.3 4.9 C 10.3 23.6, 69.3 24.1, 65.2 9.8 C 64.7 24.6, 32.4 82.4, 24.4 67.4 C 16.9 81.1, 0.0 66.1, 1.4 73.8 C 0.0 88.8, 35.5 49.4, 31.6 61.4 C 14.4 71.8, 59.4 38.3, 63.6 30.1 C 77.4 46.8, 54.7 27.2, 58.8 23.2 C 44.4 14.7, 9.6 40.7, 2.0 40.1 C 6.9 37.4, 0.0 38.3, 9.4 35.5 C 9.0 33.7, 26.6 56.1, 22.6 66.0 Z" fill="hsl(290, 83%, 63%)" fill-opacity="0.62" stroke="none" stroke-width="4.47"  transform="translate(60.6 71.8) rotate(359.5) scale(0.79 1.31)" />
<rect x="26.1" y="1.8" width="32.2" height="24.6" rx="5.9" fill="none" fill-opacity="0.24"   transform="translate(54.3 44.9) rotate(353.9) scale(0.81 1.71)" />
<circle cx="28.1" cy="8.3" r="5.8" fill="url(#g2)" fill-opacity="0.59"   />
<path d="M 27.3 11.0 C 14.3 27.1, 38.2 90.2, 33.0 82.4 C 44.7 97.3, 87.3 56.0, 86.9 50.9 C 81.1 35.6, 58.8 22.0, 46.7 36.4 C 65.6 33.5, 35.4 9.6, 42.6 13.8 C 43.2 20.3, 22.1 81.3, 16.5 82.7 C 28.2 80.8, 67.5 74.8, 54.1 61.0 C 67.9 57.3, 12.5 0.0, 4.8 2.5 C 21.1 0.0, 18.6 29.3, 5.8 37.8 C 0.0 29.0, 2.6 29.1, 9.0 34.8 " fill="hsl(86, 72%, 68%)" fill-opacity="0.32" stroke="none" stroke-width="4.53"  transform="translate(37.9 67.5) rotate(166.5) scale(1.23 1.75)" />
<path d="M 67.1 25.4 C 73.9 36.3, 73.8 63.4, 66.1 56.8 C 68.6 63.3, 68.9 72.0, 57.3 76.0 C 40.1 62.5, 2.5 15.8, 0.9 25.8 C 4.8 11.0, 100.0 94.6, 92.3 94.1 C 88.4 96.9, 46.2 83.2, 42.9 92.8 C 58.0 80.0, 20.2 31.3, 23.9 30.5 C 22.5 46.8, 24.3 65.4, 19.7 66.8 C 2.4 75.4, 21.2 83.0, 30.6 86.6 C 49.0 89.1, 44.8 9.3, 51.0 9.4 C 59.5 21.0, 58.2 100.0, 53.6 93.0 Z" fill="hsl(83, 65%, 44%)" fill-opacity="0.30" stroke="none" stroke-width="5.17"  transform="translate(10.2 60.1) rotate(225.0) scale(1.36 1.01)" />
<rect x="39.1" y="48.5" width="24.8" height="33.7" rx="0" fill="hsl(290, 83%, 63%)" fill-opacity="0.75" stroke="hsl(86, 72%, 68%)" stroke-width="2.7"  transform="translate(3.0 71.3) rotate(225.5) scale(1.34 1.84)" />
<rect x="39.8" y="11.8" width="45.6" height="22.0" rx="0" fill="hsl(322, 74%, 44%)" fill-opacity="0.74"   transform="translate(3.3 55.6) rotate(353.3) scale(0.64 0.57)" />
<path d="M 75.2 64.1 C 55.8 50.2, 75.7 73.8, 66.5 75.4 C 61.3 57.4, 4.9 25.0, 3.8 20.5 C 0.0 0.6, 30.9 22.9, 28.5 16.4 C 16.8 10.6, 45.9 82.5, 51.8 93.7 C 55.7 88.7, 94.1 57.5, 95.9 50.8 C 95.3 32.7, 49.7 7.2, 51.1 19.7 C 44.8 7.2, 71.2 66.2, 85.0 63.2 C 88.3 59.0, 28.5 67.1, 24.5 74.7 C 44.2 62.7, 45.2 76.5, 31.9 79.0 Z" fill="none" fill-opacity="0.57" stroke="hsl(183, 71%, 60%)" stroke-width="4.82"  transform="translate(55.8 11.3) rotate(353.6) scale(0.63 0.59)" />
<path d="M 78.4 50.1 C 84.0 44.3, 72.1 80.4, 65.5 68.6 C 46.3 83.4, 35.4 38.3, 30.0 31.5 C 45.3 39.9, 21.4 21.2, 17.4 20.3 C 9.4 8.6, 75.8 89.4, 69.3 91.2 C 81.3 79.6, 78.1 30.8, 92.3 27.3 C 80.0 24.8, 51.8 5.8, 40.6 9.2 C 45.2 28.4, 50.1 49.7, 36.6 50.0 C 24.1 51.2, 12.5 27.0, 5.2 37.9 Z" fill="none" fill-opacity="0.47" stroke="hsl(183, 71%, 60%)" stroke-width="4.24" filter="url(#f1)" transform="translate(33.3 25.4) rotate(347.2) scale(1.63 1.40)" />
<path d="M 86.5 19.1 C 70.3 26.8, 72.2 29.3, 71.6 23.5 C 57.3 41.0, 87.2 39.2, 74.7 51.3 C 58.9 41.5, 19.7 9.0, 9.3 20.8 C 3.8 16.4, 59.3 67.7, 53.9 69.2 C 65.3 84.0, 57.8 45.9, 54.7 37.8 C 49.4 50.8, 80.9 100.0, 74.5 90.4 C 87.0 95.2, 79.3 56.9, 91.5 43.8 Z" fill="hsl(290, 83%, 63%)" fill-opacity="0.89" stroke="none" stroke-width="0.82"   />
<circle cx="6.6" cy="61.3" r="18.0" fill="url(#g0)" fill-opacity="0.90"  transform="translate(56.3 58.7) rotate(273.2) scale(1.09 1.37)" />
<path d="M 97.2 49.8 C 97.7 59.0, 45.2 72.9, 36.0 87.2 C 27.0 100.0, 23.1 10.3, 15.7 10.6 C 26.5 5.1, 46.3 72.5, 58.2 86.8 C 74.8 88.7, 38.6 84.9, 24.2 72.9 C 31.7 57.8, 91.0 13.4, 98.9 20.1 C 100.0 14.9, 48.4 22.6, 57.2 27.6 C 74.9 46.0, 92.6 56.2, 87.5 56.7 C 73.8 43.5, 90.6 46.7, 82.7 44.8 " fill="none" fill-opacity="0.27" stroke="hsl(2, 82%, 55%)" stroke-width="1.03"  transform="translate(95.2 17.9) rotate(136.5) scale(1.93 1.85)" />
<circle cx="62.9" cy="61.8" r="6.7" fill="hsl(106, 75%, 59%)" fill-opacity="0.52"  transform="translate(8.1 51.0) rotate(307.1) scale(1.08 1.79)" />
<path d="M 64.8 14.5 C 84.3 0.1, 99.9 54.5, 90.4 57.7 C 89.9 39.5, 75.1 59.9, 60.8 59.4 C 70.8 49.5, 65.0 82.0, 71.0 87.2 C 72.9 86.6, 43.4 100.0, 55.8 95.6 C 43.8 100.0, 30.2 9.0, 34.3 19.3 C 25.9 0.0, 100.0 9.6, 91.6 3.3 Z" fill="none" fill-opacity="0.53" stroke="hsl(322, 74%, 44%)" stroke-width="4.74"  transform="translate(42.7 92.6) rotate(50.9) scale(1.68 0.79)" />
<path d="M 12.4 71.5 C 0.0 62.3, 48.9 22.1, 39.4 17.6 C 43.6 27.8, 100.0 0.0, 89.0 3.7 C 92.2 8.8, 4.3 35.8, 4.6 34.5 C 2.9 22.5, 23.0 43.7, 35.9 47.2 C 38.8 48.4, 32.2 9.4, 23.3 21.5 C 15.8 15.0, 47.2 78.5, 48.9 77.9 C 54.8 95.3, 6.9 65.4, 9.5 74.9 " fill="hsl(322, 74%, 44%)" fill-opacity="0.35" stroke="none" stroke-width="3.39"  transform="translate(39.4 42.0) rotate(224.3) scale(1.42 0.78)" />
<circle cx="48.6" cy="60.5" r="1.9" fill="hsl(242, 72%, 49%)" fill-opacity="0.44"  transform="translate(67.3 5.3) rotate(132.6) scale(0.82 1.95)" />
<path d="M 63.5 22.7 C 65.9 25.4, 37.7 41.3, 30.0 32.9 C 17.0 46.1, 9.6 26.9, 13.2 24.3 C 14.8 8.2, 0.0 68.9, 0.8 72.7 C 0.0 69.6, 7.0 83.9, 6.0 75.8 C 9.6 88.5, 41.0 87.7, 40.2 84.0 C 51.1 83.8, 53.8 100.0, 39.5 92.1 C 20.6 88.5, 0.0 7.2, 0.3 15.1 C 12.1 25.0, 42.1 1.6, 31.5 0.3 Z" fill="hsl(151, 70%, 62%)" fill-opacity="0.60" stroke="none" stroke-width="3.87"   />
<circle cx="29.1" cy="30.8" r="10.0" fill="hsl(322, 74%, 44%)" fill-opacity="0.55"   />
<circle cx="69.2" cy="72.6" r="1.0" fill="hsl(86, 72%, 68%)" fill-opacity="0.89"  transform="translate(0.3 26.5) rotate(46.5) scale(1.97 0.61)" />
<path d="M 70.3 29.0 C 83.7 24.9, 44.1 25.2, 57.5 13.4 C 66.2 23.7, 33.3 88.4, 32.8 94.4 C 33.1 100.0, 23.0 38.1, 30.9 48.0 C 48.5 46.6, 7.1 42.2, 12.4 40.6 C 8.8 59.1, 62.4 33.0, 66.1 33.5 C 70.5 14.2, 41.3 100.0, 42.5 96.8 Z" fill="hsl(106, 75%, 59%)" fill-opacity="0.27" stroke="none" stroke-width="3.36"  transform="translate(68.6 85.7) rotate(245.6) scale(1.71 1.19)" />
<rect x="49.6" y="22.5" width="33.7" height="12.0" rx="0" fill="hsl(144, 86%, 72%)" fill-opacity="0.97"   transform="translate(89.8 47.9) rotate(21.2) scale(0.87 1.89)" />
<circle cx="11.5" cy="28.4" r="0.8" fill="hsl(183, 71%, 60%)" fill-opacity="0.90" filter="url(#f1)" transform="translate(8.3 16.2) rotate(240.9) scale(0.57 1.49)" />
<rect x="39.0" y="73.0" width="49.2" height="25.7" rx="9.9" fill="none" fill-opacity="0.49"  filter="url(#f1)" transform="translate(98.5 72.7) rotate(300.1) scale(1.96 1.24)" />
<path d="M 80.4 40.0 C 63.6 51.7, 44.2 72.2, 54.0 77.6 C 51.9 87.5, 17.9 82.7, 24.6 82.7 C 37.9 64.1, 0.0 41.9, 14.5 42.4 C 22.7 35.1, 82.0 6.1, 93.5 10.0 C 90.1 22.0, 79.2 4.7, 68.7 2.8 C 80.8 16.5, 26.8 32.9, 14.5 27.9 C 9.5 12.4, 17.8 67.4, 7.2 57.1 Z" fill="hsl(2, 82%, 55%)" fill-opacity="0.43" stroke="none" stroke-width="1.36"  transform="translate(2.5 68.7) rotate(162.0) scale(1.31 1.76)" />
<rect x="38.7" y="11.2" width="23.2" height="13.9" rx="0" fill="none" fill-opacity="0.22"    />
<rect x="27.3" y="19.5" width="48.0" height="39.8" rx="4.5" fill="hsl(104, 72%, 65%)" fill-opacity="0.94"   transform="translate(13.8 47.0) rotate(125.0) scale(0.67 0.72)" />
<circle cx="67.1" cy="31.3" r="11.2" fill="hsl(83, 65%, 44%)" fill-opacity="0.59" filter="url(#f1)" transform="translate(45.1 13.5) rotate(341.5) scale(1.75 1.66)" />
<circle cx="54.7" cy="80.2" r="7.8" fill="url(#g0)" fill-opacity="0.84" filter="url(#f1)" transform="translate(1.8 28.1) rotate(291.5) scale(1.15 1.78)" />
<path d="M 50.3 90.7 C 41.2 100.0, 77.8 20.2, 73.5 31.2 C 81.5 24.8, 11.6 74.4, 10.6 74.5 C 0.0 78.0, 27.6 29.3, 29.0 32.4 C 17.0 36.8, 44.4 72.0, 32.2 68.9 C 31.5 51.5, 0.0 34.2, 0.8 40.8 C 0.0 49.8, 100.0 1.9, 96.5 4.9 C 84.4 0.0, 78.8 8.5, 90.6 21.5 Z" fill="none" fill-opacity="0.41" stroke="hsl(183, 71%, 60%)" stroke-width="4.29"  transform="translate(40.0 11.1) rotate(87.6) scale(0.99 0.53)" />
<path d="M 17.4 85.8 C 31.6 73.7, 53.0 31.5, 38.3 39.0 C 43.1 28.6, 0.0 35.1, 5.1 39.4 C 0.0 31.0, 55.8 100.0, 61.4 97.8 C 50.1 90.0, 18.8 45.1, 29.1 46.4 C 36.4 52.3, 48.8 97.6, 53.7 94.5 C 71.8 79.4, 100.0 87.3, 96.3 78.0 " fill="hsl(322, 74%, 44%)" fill-opacity="0.53" stroke="none" stroke-width="4.95"  transform="translate(19.3 57.9) rotate(225.8) scale(1.29 0.66)" />
<path d="M 27.5 43.8 C 21.1 45.1, 81.0 15.0, 68.8 22.8 C 63.5 11.8, 33.1 95.3, 22.2 93.5 C 25.1 100.0, 46.9 53.6, 47.0 67.4 C 60.3 85.6, 76.2 36.2, 73.5 34.1 C 64.6 21.2, 39.5 69.0, 54.0 57.6 C 51.7 47.7, 86.1 92.8, 74.1 92.8 C 82.3 79.0, 58.3 83.7, 70.0 85.1 C 74.7 68.5, 92.8 67.3, 95.2 54.7 Z" fill="hsl(322, 74%, 44%)" fill-opacity="0.72" stroke="none" stroke-width="3.23"  transform="translate(87.6 33.4) rotate(118.9) scale(2.00 0.98)" />
<circle cx="42.3" cy="94.2" r="10.6" fill="url(#g2)" fill-opacity="0.55"  transform="translate(8.2 36.4) rotate(315.0) scale(1.90 1.44)" />
<path d="M 44.6 78.4 C 31.0 76.9, 21.1 87.8, 34.8 92.2 C 38.8 100.0, 32.8 0.0, 24.6 11.0 C 23.5 22.7, 89.0 29.0, 86.0 19.3 C 68.9 25.7, 54.0 84.3, 39.1 94.9 C 45.3 76.3, 13.0 90.8, 27.1 96.4 C 44.5 100.0, 60.3 45.2, 62.1 54.9 C 65.9 36.9, 17.9 68.0, 22.7 59.6 Z" fill="none" fill-opacity="1.00" stroke="hsl(106, 75%, 59%)" stroke-width="2.59"  transform="translate(97.1 55.3) rotate(343.0) scale(1.80 1.72)" />
<path d="M 66.6 4.4 C 74.7 15.9, 64.9 75.7, 58.7 64.5 C 50.4 73.3, 95.4 81.8, 91.5 93.0 C 90.7 96.8, 84.7 94.6, 70.6 85.3 C 84.9 100.0, 41.3 10.8, 45.8 12.1 C 32.0 14.2, 97.2 80.5, 96.3 84.8 C 100.0 94.4, 40.4 91.4, 44.1 89.2 C 54.9 98.7, 40.0 0.0, 49.6 7.3 " fill="hsl(106, 75%, 59%)" fill-opacity="0.39" stroke="none" stroke-width="3.50"   />
<rect x="57.6" y="6.8" width="36.1" height="20.2" rx="0" fill="hsl(290, 83%, 63%)" fill-opacity="0.47" stroke="hsl(83, 65%, 44%)" stroke-width="3.2"  transform="translate(99.3 44.1) rotate(246.8) scale(1.68 1.20)" />
<path d="M 8.1 79.3 C 7.3 98.2, 6.7 12.4, 0.4 9.7 C 0.0 0.0, 71.4 15.0, 59.1 1.0 C 76.8 2.0, 50.1 72.3, 49.5 74.3 C 43.0 94.1, 8.0 12.4, 22.2 15.5 C 24.7 18.3, 100.0 52.3, 98.3 49.4 C 100.0 68.8, 0.0 82.8, 11.2 97.6 Z" fill="hsl(86, 72%, 68%)" fill-opacity="0.56" stroke="none" stroke-width="5.06"  transform="translate(74.7 40.8) rotate(276.4) scale(1.04 1.64)" />
<path d="M 84.0 72.5 C 93.4 63.7, 69.9 100.0, 78.8 99.9 C 79.7 100.0, 53.8 62.9, 45.1 51.9 C 59.9 62.9, 60.1 93.7, 73.0 82.4 C 86.7 94.3, 3.4 60.2, 13.0 67.6 C 0.0 67.9, 56.6 30.5, 55.1 19.5 C 54.6 15.7, 93.7 26.6, 96.2 41.0 C 81.1 23.4, 97.8 73.5, 91.2 77.7 C 81.1 88.3, 91.9 37.0, 90.5 33.6 Z" fill="none" fill-opacity="0.51" stroke="hsl(104, 72%, 65%)" stroke-width="1.77"  transform="translate(26.6 99.3) rotate(88.3) scale(1.31 1.45)" />
<path d="M 62.0 98.5 C 75.5 87.2, 9.6 60.7, 20.5 71.6 C 15.0 85.9, 13.6 32.2, 3.1 41.8 C 0.9 61.2, 89.8 28.7, 75.1 20.7 C 89.9 22.5, 18.4 93.8, 8.3 95.5 C 11.8 99.9, 43.6 50.4, 34.8 48.8 C 51.9 60.3, 24.3 36.2, 37.4 42.7 Z" fill="hsl(151, 70%, 62%)" fill-opacity="0.50" stroke="none" stroke-width="4.52"  transform="translate(9.7 34.7) rotate(26.0) scale(1.61 0.82)" />
<rect x="16.5" y="32.0" width="22.6" height="10.2" rx="8.4" fill="hsl(86, 72%, 68%)" fill-opacity="0.45"   transform="translate(49.1 42.3) rotate(271.5) scale(1.86 0.89)" />
<path d="M 91.2 18.7 C 94.1 11.2, 45.1 64.6, 44.5 77.3 C 40.7 94.9, 41.0 60.8, 26.3 67.7 C 13.0 86.1, 94.7 82.5, 98.8 73.2 C 100.0 66.8, 61.0 37.7, 68.4 32.3 C 51.1 29.5, 75.0 70.3, 79.7 76.0 C 67.1 67.5, 47.6 72.2, 37.3 62.1 Z" fill="hsl(40, 53%, 69%)" fill-opacity="0.97" stroke="none" stroke-width="3.90"  transform="translate(19.1 75.0) rotate(308.9) scale(1.11 1.03)" />
<circle cx="41.4" cy="84.3" r="7.1" fill="url(#g2)" fill-opacity="0.64"  transform="translate(93.9 7.0) rotate(35.3) scale(0.76 1.76)" />
<path d="M 97.1 77.3 C 82.8 92.2, 60.9 82.7, 49.5 96.4 C 62.3 100.0, 98.1 0.0, 98.6 4.5 C 88.0 20.4, 27.8 47.3, 24.6 32.7 C 13.3 32.6, 14.9 33.7, 22.0 35.9 C 14.9 41.8, 64.9 76.1, 54.5 84.3 C 64.4 94.1, 75.9 84.7, 73.6 92.8 C 69.7 94.5, 90.7 12.1, 87.1 1.9 Z" fill="hsl(183, 71%, 60%)" fill-opacity="0.34" stroke="none" stroke-width="1.70"  transform="translate(21.0 32.7) rotate(229.5) scale(1.37 1.77)" />
<path d="M 59.8 99.9 C 47.8 100.0, 100.0 78.8, 98.6 81.9 C 100.0 93.2, 17.9 32.2, 28.7 40.6 C 36.5 52.1, 100.0 83.6, 98.8 76.8 C 83.2 88.7, 16.0 41.0, 26.4 48.2 C 18.2 45.9, 68.4 30.9, 73.5 16.0 C 77.3 0.0, 16.8 60.4, 25.2 58.1 C 23.4 41.6, 34.0 63.7, 36.1 64.2 Z" fill="hsl(2, 82%, 55%)" fill-opacity="0.32" stroke="none" stroke-width="5.22"  transform="translate(72.5 8.1) rotate(100.3) scale(1.85 1.53)" />
<circle cx="56.6" cy="51.6" r="5.6" fill="url(#g1)" fill-opacity="0.53"  transform="translate(26.2 13.4) rotate(318.7) scale(1.24 1.72)" />
<circle cx="49.4" cy="95.3" r="2.9" fill="url(#g0)" fill-opacity="0.84"  transform="translate(74.5 10.9) rotate(21.1) scale(1.42 1.69)" />
<circle cx="79.4" cy="28.1" r="0.0" fill="hsl(2, 82%, 55%)" fill-opacity="0.52"  transform="translate(21.3 74.5) rotate(328.4) scale(1.27 0.66)" />
<path d="M 7.6 89.9 C 6.3 100.0, 41.7 93.4, 43.4 85.5 C 32.1 78.6, 25.6 58.7, 18.6 54.9 C 25.4 60.7, 69.2 96.3, 60.7 92.4 C 67.6 100.0, 25.5 51.2, 14.2 57.9 C 25.1 68.8, 12.0 19.7, 8.1 28.0 C 0.0 30.8, 56.0 21.2, 55.0 31.0 C 39.4 17.8, 55.6 71.8, 59.1 74.6 Z" fill="hsl(83, 65%, 44%)" fill-opacity="0.87" stroke="none" stroke-width="2.27"   />
<rect x="32.1" y="32.3" width="46.1" height="34.0" rx="17.9" fill="hsl(290, 83%, 63%)" fill-opacity="0.42"   transform="translate(39.6 91.0) rotate(329.4) scale(0.73 0.86)" />
<path d="M 27.8 22.0 C 27.6 15.2, 51.7 83.0, 44.3 86.8 C 53.6 84.7, 33.1 65.1, 46.3 76.8 C 45.1 87.7, 59.1 24.5, 69.0 21.8 C 87.0 26.4, 1.8 79.5, 9.6 66.7 C 0.9 50.2, 91.0 0.0, 94.0 3.4 C 76.1 16.1, 36.0 24.7, 33.9 39.5 C 33.6 24.5, 0.0 43.0, 10.3 43.6 C 21.0 53.6, 18.0 39.1, 23.9 53.9 C 11.8 36.5, 86.2 61.8, 78.7 74.2 Z" fill="hsl(144, 86%, 72%)" fill-opacity="0.44" stroke="none" stroke-width="1.04"  transform="translate(64.9 76.3) rotate(131.7) scale(0.78 1.95)" />
<path d="M 80.2 65.9 C 62.1 65.6, 90.8 1.0, 99.4 7.0 C 100.0 0.0, 71.5 54.0, 69.3 46.4 C 71.1 62.9, 29.8 26.0, 25.2 13.8 C 22.4 1.9, 41.7 99.9, 51.0 99.8 C 59.0 86.7, 39.1 47.8, 34.0 41.2 C 32.2 60.1, 20.6 53.1, 27.1 45.0 C 33.1 57.2, 18.9 47.7, 10.6 50.3 C 19.4 67.1, 19.0 98.8, 28.1 89.2 C 36.0 93.2, 42.1 25.9, 28.0 32.9 C 45.7 28.4, 33.3 94.9, 27.2 97.8 Z" fill="hsl(183, 71%, 60%)" fill-opacity="0.78" stroke="none" stroke-width="3.15"  transform="translate(75.9 85.3) rotate(69.8) scale(1.74 1.67)" />
<path d="M 58.8 70.9 C 45.8 84.1, 72.9 62.8, 66.5 68.3 C 75.6 67.7, 93.1 100.0, 78.8 99.4 C 78.1 100.0, 72.2 66.1, 68.8 74.5 C 87.0 91.9, 0.0 67.0, 0.3 63.6 C 4.8 59.4, 42.6 27.4, 57.5 13.9 C 66.8 7.9, 36.4 54.9, 36.6 52.8 C 29.1 33.9, 46.8 51.0, 42.3 38.0 C 51.5 51.2, 37.2 96.6, 46.2 90.9 C 49.0 76.2, 29.3 20.5, 14.8 24.0 Z" fill="none" fill-opacity="0.52" stroke="hsl(151, 70%, 62%)" stroke-width="0.91"  transform="translate(89.1 62.2) rotate(270.4) scale(1.47 1.24)" />
<path d="M 82.6 21.8 C 78.8 33.3, 16.3 52.5, 21.0 51.7 C 5.4 60.0, 73.9 39.6, 71.1 36.4 C 81.6 51.8, 10.4 41.4, 17.1 53.7 C 7.7 47.6, 51.4 6.6, 43.8 3.8 C 46.3 8.6, 53.4 8.0, 53.0 21.9 C 52.6 18.0, 71.6 91.9, 83.6 79.2 C 86.3 65.5, 100.0 43.9, 86.2 35.3 C 79.7 34.4, 6.0 96.7, 2.6 96.5 Z" fill="hsl(83, 65%, 44%)" fill-opacity="0.96" stroke="none" stroke-width="3.48"  transform="translate(64.2 93.4) rotate(239.9) scale(1.63 0.95)" />
<rect x="1.3" y="9.3" width="23.1" height="38.2" rx="0" fill="none" fill-opacity="0.94"   transform="translate(45.9 66.6) rotate(337.4) scale(0.95 0.73)" />
<rect x="62.6" y="73.6" width="34.6" height="18.3" rx="0" fill="hsl(144, 86%, 72%)" fill-opacity="0.46"   transform="translate(44.1 89.9) rotate(119.8) scale(0.94 1.12)" />
<path d="M 35.8 42.7 C 52.5 39.2, 84.2 82.1, 74.6 86.1 C 67.6 81.8, 46.9 37.5, 42.2 29.3 C 45.9 33.5, 55.2 1.6, 67.8 14.1 C 74.9 0.0, 30.0 47.2, 41.8 53.7 C 35.6 39.7, 26.2 4.5, 19.7 12.3 C 31.7 32.2, 100.0 14.1, 97.1 7.3 " fill="none" fill-opacity="0.33" stroke="hsl(242, 72%, 49%)" stroke-width="2.13"  transform="translate(96.0 73.3) rotate(200.3) scale(0.93 1.38)" />
<path d="M 97.6 67.2 C 98.5 75.7, 40.1 64.4, 50.1 69.9 C 46.7 74.8, 38.1 60.4, 48.3 52.2 C 50.5 42.0, 63.5 91.1, 76.7 96.3 C 89.0 85.6, 69.7 80.7, 78.0 94.8 C 59.6 81.0, 10.7 42.3, 20.2 39.2 C 15.9 25.3, 25.8 0.0, 23.5 12.8 C 24.2 11.6, 39.4 46.2, 51.9 37.8 Z" fill="none" fill-opacity="0.42" stroke="hsl(290, 83%, 63%)" stroke-width="4.66"  transform="translate(95.8 25.0) rotate(237.6) scale(1.14 0.57)" />
<rect x="31.7" y="53.7" width="40.3" height="33.0" rx="0" fill="hsl(40, 53%, 69%)" fill-opacity="0.41" stroke="hsl(144, 86%, 72%)" stroke-width="4.8"  transform="translate(21.1 8.2) rotate(239.0) scale(1.45 1.55)" />
<path d="M 7.4 38.9 C 6.8 33.6, 52.6 13.8, 43.1 10.8 C 40.8 12.6, 60.3 78.0, 70.7 65.6 C 71.5 73.7, 36.4 24.5, 45.3 12.5 C 48.8 3.9, 52.2 37.1, 64.3 43.1 C 58.6 60.0, 68.1 62.4, 79.1 56.0 C 78.8 42.6, 89.3 100.0, 86.7 97.9 C 94.3 98.4, 83.9 55.5, 88.2 69.5 C 100.0 86.9, 54.7 38.1, 52.1 33.5 C 36.8 30.3, 36.8 65.8, 48.3 65.3 C 48.8 67.3, 73.6 20.3, 87.8 24.3 Z" fill="hsl(290, 83%, 63%)" fill-opacity="0.63" stroke="none" stroke-width="2.88"  transform="translate(44.6 51.9) rotate(5.5) scale(1.16 1.68)" />
<rect x="29.1" y="27.7" width="45.4" height="27.1" rx="10.3" fill="hsl(2, 82%, 55%)" fill-opacity="0.34"   transform="translate(14.5 76.5) rotate(261.1) scale(1.29 1.60)" />
<path d="M 24.9 0.6 C 33.6 0.9, 75.2 19.6, 71.3 5.8 C 60.5 0.0, 36.9 22.1, 38.5 13.6 C 18.7 5.3, 96.8 21.1, 85.4 8.2 C 82.8 0.0, 8.4 100.0, 10.7 98.4 C 17.8 100.0, 53.2 15.7, 50.8 2.7 C 54.6 0.0, 43.1 52.9, 34.5 58.7 C 39.9 41.1, 62.0 34.6, 48.1 39.8 C 35.2 40.4, 14.1 71.8, 25.6 80.7 Z" fill="none" fill-opacity="0.27" stroke="hsl(242, 72%, 49%)" stroke-width="4.54"  transform="translate(58.4 28.7) rotate(340.9) scale(0.75 0.52)" />
<path d="M 16.9 31.9 C 24.5 14.5, 33.6 48.9, 22.4 37.5 C 24.7 53.6, 10.2 36.0, 1.5 42.5 C 16.6 55.6, 32.3 11.8, 32.7 11.6 C 30.6 22.5, 43.5 72.2, 36.8 85.0 C 46.0 100.0, 79.5 30.1, 89.9 38.4 C 83.9 30.5, 88.5 66.8, 97.5 57.3 C 97.4 56.1, 20.6 100.0, 12.8 94.5 Z" fill="none" fill-opacity="0.73" stroke="hsl(151, 70%, 62%)" stroke-width="2.63"   />
<path d="M 56.6 13.1 C 59.2 24.2, 52.8 94.5, 48.3 84.2 C 36.3 100.0, 8.5 78.9, 6.4 67.3 C 5.8 73.2, 70.6 41.7, 72.4 34.0 C 61.5 28.1, 12.3 0.0, 6.3 3.4 C 11.9 9.6, 27.9 81.3, 30.2 92.1 C 26.4 100.0, 78.1 29.7, 74.7 36.5 C 65.2 42.4, 69.9 37.2, 75.0 50.0 C 72.3 50.2, 100.0 18.5, 95.1 23.1 Z" fill="hsl(40, 53%, 69%)" fill-opacity="0.67" stroke="none" stroke-width="3.20"   />
<rect x="38.1" y="59.5" width="38.8" height="20.7" rx="0.7" fill="none" fill-opacity="0.83"   transform="translate(86.2 79.7) rotate(265.4) scale(0.89 1.56)" />
<path d="M 19.3 64.9 C 9.6 62.5, 96.4 56.6, 98.2 46.6 C 100.0 35.4, 63.8 0.0, 65.1 1.2 C 61.5 5.5, 76.2 25.9, 67.9 21.8 C 73.0 37.0, 30.6 41.3, 22.0 51.9 C 28.5 65.4, 45.4 27.5, 48.2 27.5 C 48.9 8.7, 0.0 20.8, 3.1 21.8 C 0.0 22.0, 40.8 11.1, 38.2 24.5 C 53.4 29.4, 42.7 32.2, 49.6 32.9 Z" fill="hsl(290, 83%, 63%)" fill-opacity="0.93" stroke="none" stroke-width="2.21"  transform="translate(43.4 79.0) rotate(116.8) scale(1.52 0.60)" />
<path d="M 56.4 35.5 C 60.9 52.4, 22.1 53.9, 32.6 60.1 C 38.2 60.8, 88.3 24.9, 83.7 11.5 C 83.9 20.5, 85.0 45.1, 71.8 40.0 C 53.9 56.2, 100.0 0.0, 94.1 0.0 C 100.0 0.0, 68.9 54.2, 68.5 54.7 C 48.7 37.9, 71.4 95.2, 83.7 83.6 C 98.9 66.4, 45.8 90.2, 36.1 80.2 C 35.0 77.1, 36.1 12.5, 33.7 12.2 Z" fill="hsl(322, 74%, 44%)" fill-opacity="0.73" stroke="none" stroke-width="3.75" filter="url(#f1)" transform="translate(33.8 90.2) rotate(257.1) scale(1.21 1.65)" />
<circle cx="41.6" cy="81.7" r="6.5" fill="url(#g2)" fill-opacity="0.65"  transform="translate(25.4 9.3) rotate(181.9) scale(1.55 1.75)" />
<rect x="71.1" y="38.6" width="28.9" height="34.2" rx="0" fill="none" fill-opacity="0.78"   transform="translate(35.9 70.7) rotate(36.4) scale(1.78 1.74)" />
<rect x="42.6" y="18.4" width="23.2" height="13.0" rx="12.5" fill="hsl(86, 72%, 68%)" fill-opacity="0.28" stroke="hsl(290, 83%, 63%)" stroke-width="4.3"   />
<rect x="39.7" y="2.9" width="42.3" height="18.3" rx="0" fill="none" fill-opacity="0.57" stroke="hsl(151, 70%, 62%)" stroke-width="4.8"  transform="translate(42.5 48.4) rotate(208.8) scale(0.52 0.58)" />
<circle cx="18.0" cy="6.3" r="12.0" fill="url(#g1)" fill-opacity="0.95"  transform="translate(54.0 39.9) rotate(159.9) scale(1.53 0.55)" />
<rect x="14.1" y="2.9" width="29.5" height="15.9" rx="0" fill="hsl(290, 83%, 63%)" fill-opacity="0.38"   transform="translate(25.6 49.6) rotate(97.9) scale(1.08 1.29)" />
<circle cx="65.1" cy="77.4" r="4.2" fill="url(#g2)" fill-opacity="0.91"  transform="translate(14.5 36.4) rotate(293.3) scale(1.46 1.82)" />
<path d="M 88.2 73.8 C 69.5 58.3, 17.9 100.0, 6.7 98.7 C 0.0 84.3, 87.4 94.3, 95.1 89.8 C 77.3 82.4, 87.7 98.1, 74.8 93.7 C 65.0 100.0, 79.1 60.1, 70.2 72.1 C 55.4 56.9, 37.7 41.7, 34.1 54.5 C 29.0 39.4, 63.9 42.1, 63.1 27.8 Z" fill="hsl(183, 71%, 60%)" fill-opacity="0.54" stroke="none" stroke-width="4.22" filter="url(#f1)" transform="translate(19.9 29.8) rotate(319.6) scale(0.69 0.73)" />
<path d="M 57.6 93.0 C 54.9 90.6, 30.7 43.0, 21.1 32.5 C 6.2 20.9, 67.8 43.4, 62.2 28.9 C 70.1 46.5, 51.3 87.1, 39.5 96.7 C 44.1 99.8, 0.0 5.1, 1.8 14.1 C 8.0 22.6, 57.6 55.4, 50.0 49.3 C 60.9 32.5, 13.7 56.2, 25.2 68.0 Z" fill="none" fill-opacity="0.81" stroke="hsl(290, 83%, 63%)" stroke-width="2.79"  transform="translate(5.4 4.0) rotate(204.6) scale(1.07 0.78)" />
<path d="M 22.9 40.6 C 23.7 35.8, 14.2 25.9, 3.6 29.4 C 3.9 24.2, 63.8 72.4, 71.1 70.1 C 71.9 70.4, 23.9 59.5, 23.1 58.5 C 18.4 76.4, 97.7 40.3, 89.2 33.6 C 99.0 30.3, 92.3 24.2, 82.8 35.0 C 91.0 40.2, 71.5 9.6, 70.5 23.7 C 67.0 27.3, 81.2 61.8, 92.3 72.7 Z" fill="none" fill-opacity="0.26" stroke="hsl(2, 82%, 55%)" stroke-width="2.27"  transform="translate(57.2 73.2) rotate(126.5) scale(0.89 0.99)" />
<rect x="37.1" y="26.9" width="30.5" height="12.5" rx="0.7" fill="none" fill-opacity="0.74"   transform="translate(86.2 52.8) rotate(272.9) scale(0.54 1.64)" />
<rect x="51.9" y="24.5" width="38.7" height="28.3" rx="0" fill="hsl(40, 53%, 69%)" fill-opacity="0.51"   transform="translate(36.4 5.0) rotate(132.5) scale(1.17 1.05)" />
<path d="M 81.2 36.0 C 89.9 43.4, 55.0 0.0, 55.2 3.6 C 56.7 13.9, 5.0 47.1, 13.5 52.4 C 0.0 65.8, 16.9 100.0, 16.0 92.6 C 30.2 100.0, 18.4 96.1, 14.6 81.5 C 9.7 84.7, 22.4 43.2, 16.5 33.8 C 21.0 19.4, 62.3 0.0, 77.3 0.8 C 71.2 0.0, 19.4 50.5, 19.6 61.4 Z" fill="hsl(151, 70%, 62%)" fill-opacity="0.96" stroke="none" stroke-width="2.50"  transform="translate(13.0 73.6) rotate(186.7) scale(1.12 1.32)" />
<rect x="49.7" y="66.1" width="40.4" height="32.8" rx="0" fill="hsl(242, 72%, 49%)" fill-opacity="0.66"   transform="translate(88.9 18.6) rotate(263.3) scale(1.43 0.91)" />
<rect x="48.9" y="58.7" width="38.1" height="11.1" rx="0" fill="hsl(104, 72%, 65%)" fill-opacity="0.73"   transform="translate(9.3 71.6) rotate(85.1) scale(1.95 0.73)" />
<rect x="12.3" y="64.7" width="32.1" height="13.1" rx="0" fill="none" fill-opacity="0.57"   transform="translate(16.0 54.9) rotate(131.3) scale(0.57 1.88)" />
<path d="M 80.2 22.9 C 62.2 32.8, 4.0 76.0, 15.6 72.2 C 15.0 59.7, 23.2 31.2, 8.9 20.9 C 0.0 34.0, 15.0 29.0, 4.4 14.2 C 0.0 13.0, 73.8 68.1, 86.4 70.2 C 90.0 77.1, 62.7 88.1, 62.4 87.9 C 46.3 87.1, 58.8 96.0, 45.5 85.8 C 46.6 86.4, 3.5 80.3, 15.6 88.9 C 34.1 100.0, 77.6 22.8, 74.5 32.8 C 61.5 22.1, 81.6 96.3, 86.0 82.1 C 82.9 91.8, 34.8 19.5, 30.7 28.3 Z" fill="hsl(106, 75%, 59%)" fill-opacity="0.42" stroke="none" stroke-width="3.20"  transform="translate(80.9 51.9) rotate(19.1) scale(1.22 1.17)" />
<path d="M 7.6 41.5 C 9.4 46.0, 85.9 62.2, 92.7 59.6 C 96.5 49.7, 58.3 35.8, 55.3 26.7 C 72.4 33.2, 17.6 0.0, 30.7 12.4 C 28.9 8.7, 100.0 83.1, 94.8 71.7 C 94.0 57.8, 79.9 51.1, 79.8 58.8 C 85.2 44.9, 23.2 13.0, 24.4 0.2 C 26.9 3.2, 0.0 70.2, 3.2 63.0 C 19.9 44.6, 54.2 97.8, 40.8 98.6 C 46.1 83.0, 45.2 52.1, 31.2 61.6 Z" fill="hsl(40, 53%, 69%)" fill-opacity="0.33" stroke="none" stroke-width="2.78"  transform="translate(40.1 73.9) rotate(245.8) scale(1.42 1.24)" />
<path d="M 35.7 63.8 C 36.5 77.8, 72.2 0.2, 63.9 9.8 C 67.7 1.3, 63.4 0.0, 70.6 3.0 C 72.1 13.9, 20.6 88.9, 7.4 93.4 C 19.0 100.0, 52.3 99.1, 56.9 84.3 C 76.5 96.6, 61.4 18.9, 63.2 11.5 C 46.9 4.3, 0.0 0.0, 5.8 10.4 C 2.1 20.9, 5.5 70.1, 19.8 78.2 C 27.5 86.9, 10.6 76.2, 13.2 79.1 C 20.9 88.9, 24.0 23.5, 12.0 23.8 C 2.9 6.5, 38.6 72.2, 49.6 70.2 Z" fill="hsl(104, 72%, 65%)" fill-opacity="0.34" stroke="none" stroke-width="1.66"  transform="translate(20.7 57.1) rotate(131.6) scale(1.12 1.67)" />
<path d="M 55.2 94.8 C 46.6 91.3, 26.2 27.4, 27.9 39.3 C 8.2 27.8, 88.6 69.4, 74.1 67.6 C 89.2 51.1, 53.3 34.2, 66.5 39.5 C 82.5 37.2, 100.0 53.8, 99.4 41.3 C 85.7 33.9, 76.6 13.8, 64.1 0.3 C 64.9 0.0, 0.0 7.3, 9.5 20.1 C 23.9 20.3, 84.5 49.6, 96.3 35.9 C 100.0 31.6, 40.4 76.3, 28.3 73.8 C 15.4 68.3, 58.0 9.9, 44.8 6.0 C 49.8 13.5, 0.0 37.3, 12.1 39.0 Z" fill="none" fill-opacity="0.40" stroke="hsl(151, 70%, 62%)" stroke-width="5.05"   />
<rect x="28.7" y="8.1" width="30.5" height="38.3" rx="19.5" fill="none" fill-opacity="0.52"   transform="translate(4.7 21.0) rotate(191.8) scale(1.29 0.91)" />
<path d="M 97.1 2.2 C 84.9 16.8, 100.0 73.0, 99.0 87.1 C 90.0 98.4, 0.0 66.4, 8.4 78.8 C 28.3 89.7, 8.5 11.7, 13.4 9.8 C 23.6 22.9, 46.0 100.0, 52.6 91.6 C 55.5 100.0, 3.9 66.6, 2.9 73.0 C 11.2 84.4, 100.0 97.6, 95.9 99.5 C 82.2 96.6, 4.7 41.0, 14.9 41.0 C 32.1 51.5, 66.7 55.1, 68.2 41.6 C 84.4 47.0, 5.2 40.0, 18.5 34.3 Z" fill="none" fill-opacity="0.61" stroke="hsl(86, 72%, 68%)" stroke-width="0.85"  transform="translate(46.5 56.2) rotate(42.5) scale(1.43 0.73)" />
<path d="M 22.9 89.5 C 28.6 100.0, 25.4 84.6, 30.1 94.9 C 45.6 100.0, 50.8 69.2, 52.7 69.4 C 63.8 51.4, 67.8 58.8, 58.9 66.5 C 71.8 61.7, 41.8 77.1, 44.4 65.7 C 48.1 53.8, 6.6 86.7, 6.0 92.1 C 0.0 74.5, 49.3 11.2, 36.5 14.0 C 52.2 7.8, 42.7 7.4, 49.4 16.5 C 30.4 18.1, 65.1 62.5, 54.1 64.2 C 41.4 47.8, 46.7 17.7, 38.5 22.1 C 25.1 13.5, 71.1 59.9, 75.2 71.3 Z" fill="none" fill-opacity="0.47" stroke="hsl(40, 53%, 69%)" stroke-width="3.92"  transform="translate(55.1 58.1) rotate(329.0) scale(1.20 1.89)" />
<path d="M 92.6 11.9 C 85.7 0.0, 34.3 92.9, 44.9 87.9 C 51.2 82.6, 27.1 47.4, 37.2 56.7 C 45.6 56.5, 41.2 24.3, 45.2 36.2 C 60.9 24.6, 18.3 63.4, 15.9 75.8 C 11.7 82.9, 54.6 44.2, 66.3 42.9 C 53.2 30.4, 28.2 11.3, 20.1 0.9 C 8.6 0.0, 84.2 52.6, 86.5 46.0 Z" fill="none" fill-opacity="0.99" stroke="hsl(40, 53%, 69%)" stroke-width="3.49"  transform="translate(14.7 84.9) rotate(141.3) scale(0.73 1.71)" />
<path d="M 89.4 25.3 C 80.3 41.6, 15.1 65.9, 18.5 74.4 C 31.6 62.0, 78.8 9.5, 72.2 4.4 C 90.9 0.8, 47.5 15.8, 44.9 20.3 C 29.1 10.0, 4.9 42.7, 18.1 40.7 C 5.8 29.1, 25.7 65.1, 14.0 75.2 C 22.5 70.4, 33.3 23.6, 33.0 20.1 Z" fill="hsl(290, 83%, 63%)" fill-opacity="0.73" stroke="none" stroke-width="3.21"   />
<rect x="26.9" y="73.3" width="44.4" height="23.1" rx="7.2" fill="hsl(322, 74%, 44%)" fill-opacity="0.47"   transform="translate(52.9 58.9) rotate(185.8) scale(1.46 1.43)" />
<path d="M 35.4 74.4 C 55.4 81.6, 75.3 48.5, 66.4 40.7 C 75.8 32.9, 14.2 2.5, 17.3 11.3 C 32.7 19.6, 20.1 89.6, 33.7 81.2 C 18.9 74.4, 75.3 65.5, 79.8 71.7 C 95.0 84.5, 73.2 82.7, 80.7 70.1 C 99.7 59.6, 92.3 0.0, 84.5 7.4 C 76.9 5.0, 16.9 10.2, 14.9 4.8 C 8.0 9.9, 36.2 84.6, 32.2 97.8 Z" fill="hsl(40, 53%, 69%)" fill-opacity="0.44" stroke="none" stroke-width="1.34"  transform="translate(52.4 47.2) rotate(329.2) scale(1.20 2.00)" />
<path d="M 34.6 1.9 C 40.6 6.3, 37.4 5.3, 32.0 13.9 C 35.4 15.8, 93.5 61.6, 90.5 72.7 C 75.8 84.9, 68.5 55.7, 78.5 61.4 C 88.9 49.3, 44.8 46.4, 44.7 43.2 C 46.3 36.3, 42.6 88.2, 32.3 83.3 C 15.1 84.5, 16.4 100.0, 29.2 98.0 C 39.8 80.5, 69.6 29.1, 79.2 38.3 " fill="hsl(183, 71%, 60%)" fill-opacity="0.25" stroke="none" stroke-width="2.94"   />
<path d="M 72.3 63.3 C 65.9 80.5, 59.1 0.0, 51.0 4.7 C 37.1 7.3, 0.7 21.6, 1.6 17.9 C 0.0 5.4, 87.4 62.8, 97.0 71.3 C 95.2 56.2, 100.0 84.0, 90.2 98.1 C 100.0 92.3, 72.2 91.2, 84.0 82.0 C 95.6 98.7, 53.3 6.3, 53.2 7.8 Z" fill="hsl(40, 53%, 69%)" fill-opacity="0.76" stroke="none" stroke-width="3.93"  transform="translate(35.3 49.3) rotate(67.9) scale(1.12 1.81)" />
<path d="M 86.0 74.6 C 100.0 63.0, 0.0 52.9, 6.7 54.3 C 20.0 53.5, 29.1 100.0, 25.4 96.9 C 32.4 93.6, 26.4 88.3, 12.3 96.5 C 30.6 100.0, 82.0 38.1, 81.9 44.5 C 75.3 27.4, 80.9 67.2, 80.0 77.0 C 87.0 68.5, 85.2 82.0, 75.7 75.7 C 78.9 86.1, 20.5 45.7, 23.6 53.9 C 6.5 66.3, 73.8 46.2, 67.8 33.7 C 51.9 41.2, 26.7 29.8, 30.2 43.8 C 17.1 30.8, 14.1 93.6, 18.2 79.7 Z" fill="none" fill-opacity="0.31" stroke="hsl(322, 74%, 44%)" stroke-width="4.97"  transform="translate(39.1 34.0) rotate(85.5) scale(1.53 0.92)" />
<path d="M 16.2 69.1 C 8.8 89.0, 8.6 18.2, 18.1 31.2 C 0.0 47.0, 40.3 92.2, 54.8 92.0 C 67.3 100.0, 64.6 31.3, 53.7 39.7 C 71.9 29.9, 79.1 42.2, 86.7 32.5 C 73.7 19.4, 31.5 45.5, 38.9 44.4 C 55.7 25.1, 47.2 91.3, 40.4 78.8 C 47.1 88.6, 19.6 83.8, 12.6 77.1 C 9.5 68.8, 56.1 0.9, 41.4 2.7 Z" fill="hsl(106, 75%, 59%)" fill-opacity="0.37" stroke="none" stroke-width="3.93" filter="url(#f1)" transform="translate(85.6 81.2) rotate(299.8) scale(1.23 0.70)" />
<path d="M 30.4 3.4 C 29.0 10.2, 43.7 87.4, 34.3 79.9 C 22.1 94.9, 69.7 17.9, 81.5 32.8 C 67.4 24.7, 50.5 68.8, 54.2 71.8 C 70.1 71.3, 100.0 94.4, 97.9 95.5 C 100.0 100.0, 100.0 30.8, 97.7 30.8 C 98.5 45.9, 58.3 14.8, 56.5 9.0 C 65.5 0.0, 77.0 51.7, 62.6 53.0 C 54.3 47.6, 11.9 50.4, 2.0 62.3 Z" fill="hsl(86, 72%, 68%)" fill-opacity="0.49" stroke="none" stroke-width="4.31"  transform="translate(41.5 26.6) rotate(120.8) scale(1.29 0.64)" />
<path d="M 74.8 10.8 C 86.0 0.0, 47.0 95.0, 48.1 97.0 C 64.5 100.0, 63.4 60.2, 50.6 68.6 C 58.2 71.6, 72.2 94.9, 60.0 98.1 C 54.5 100.0, 46.8 52.6, 43.8 42.9 C 39.6 24.8, 99.3 100.0, 97.5 87.7 C 91.6 100.0, 79.9 82.8, 72.4 91.6 Z" fill="none" fill-opacity="0.48" stroke="hsl(183, 71%, 60%)" stroke-width="3.40"  transform="translate(25.0 59.9) rotate(22.3) scale(0.56 1.44)" />
<path d="M 65.6 10.9 C 58.2 0.0, 26.1 64.7, 37.7 71.8 C 25.3 70.8, 9.4 64.3, 17.1 71.4 C 30.0 83.4, 32.4 77.6, 25.0 64.0 C 7.6 68.2, 9.7 48.1, 10.1 34.7 C 0.0 31.8, 29.9 47.4, 31.5 57.3 C 48.9 73.8, 40.8 9.9, 49.4 8.2 Z" fill="none" fill-opacity="0.42" stroke="hsl(86, 72%, 68%)" stroke-width="3.36"  transform="translate(69.1 4.8) rotate(193.9) scale(1.25 1.12)" />
<g opacity="0.079">
<rect x="0" y="0" width="1" height="100" fill="black" />
<rect x="22" y="0" width="1" height="100" fill="black" />
<rect x="44" y="0" width="1" height="100" fill="black" />
<rect x="66" y="0" width="1" height="100" fill="black" />
<rect x="88" y="0" width="1" height="100" fill="black" />
<rect x="0" y="0" width="100" height="1" fill="black" />
<rect x="0" y="22" width="100" height="1" fill="black" />
<rect x="0" y="44" width="100" height="1" fill="black" />
<rect x="0" y="66" width="100" height="1" fill="black" />
<rect x="0" y="88" width="100" height="1" fill="black" />
</g>

</svg>
