<?xml version="1.0" encoding="UTF-8"?>
<svg xmlns="http://www.w3.org/2000/svg" width="100" height="100" viewBox="0 0 100 100">
<defs>
<linearGradient id="g0" x1="0%" y1="0%" x2="100%" y2="100%">
<stop offset="0.0%" stop-color="hsl(106, 75%, 59%)" />
<stop offset="33.3%" stop-color="hsl(183, 71%, 60%)" />
<stop offset="66.7%" stop-color="hsl(242, 72%, 49%)" />
<stop offset="100.0%" stop-color="hsl(322, 74%, 44%)" />
</linearGradient>
<linearGradient id="g1" x1="0%" y1="0%" x2="100%" y2="100%">
<stop offset="0.0%" stop-color="hsl(290, 83%, 63%)" />
<stop offset="33.3%" stop-color="hsl(2, 82%, 55%)" />
<stop offset="66.7%" stop-color="hsl(86, 72%, 68%)" />
<stop offset="100.0%" stop-color="hsl(83, 65%, 44%)" />
</linearGradient>
<linearGradient id="g2" x1="0%" y1="0%" x2="100%" y2="100%">
<stop offset="0.0%" stop-color="hsl(40, 53%, 69%)" />
<stop offset="33.3%" stop-color="hsl(104, 72%, 65%)" />
<stop offset="66.7%" stop-color="hsl(144, 86%, 72%)" />
<stop offset="100.0%" stop-color="hsl(151, 70%, 62%)" />
</linearGradient>
</defs>

<rect x="9.9" y="29.0" width="44.6" height="23.7" rx="0" fill="hsl(151, 70%, 62%)" fill-opacity="0.89"   transform="translate(76.6 57.5) rotate(89.3) scale(1.84 1.23)" />
<path d="M 50.8 13.3 C 48.9 3.6, 81.0 52.5, 73.4 45.3 C 80.6 56.2, 25.0 24.8, 11.2 18.3 C 25.4 24.7, 35.2 41.7, 48.1 35.4 C 65.7 49.7, 75.0 7.8, 60.6 3.6 C 49.5 0.8, 67.6 58.2, 81.8 48.4 C 85.0 56.9, 47.4 73.8, 46.5 59.3 C 55.9 70.4, 46.7 22.5, 36.5 31.6 Z" fill="hsl(322, 74%, 44%)" fill-opacity="0.62" stroke="none" stroke-width="1.10"  transform="translate(11.8 96.6) rotate(37.2) scale(1.27 1.09)" />
<rect x="52.6" y="59.9" width="32.6" height="16.7" rx="0" fill="none" fill-opacity="0.34" stroke="hsl(86, 72%, 68%)" stroke-width="4.7"  transform="translate(97.4 3.6) rotate(347.8) scale(0.72 0.64)" />
<path d="M 33.9 72.4 C 16.0 66.7, 54.1 51.1, 60.0 45.9 C 51.4 60.9, 45.2 32.8, 55.5 39.4 C 45.9 25.8, 19.2 40.6, 13.0 38.8 C 24.9 51.8, 53.9 100.0, 60.8 98.1 C 60.2 100.0, 32.2 100.0, 41.3 90.5 Z" fill="none" fill-opacity="0.79" stroke="hsl(86, 72%, 68%)" stroke-width="1.18"   />
<path d="M 64.8 80.3 C 59.2 72.8, 57.0 33.4, 63.2 22.7 C 68.2 10.9, 49.5 7.1, 57.1 18.8 C 39.3 5.2, 56.1 24.7, 56.1 39.3 Z" fill="none" fill-opacity="0.60" stroke="hsl(106, 75%, 59%)" stroke-width="1.14"  transform="translate(36.7 25.1) rotate(117.3) scale(1.09 0.79)" />
<path d="M 92.1 55.2 C 94.1 59.5, 47.5 41.4, 42.0 51.8 C 41.4 53.6, 100.0 21.3, 89.4 17.2 C 77.5 33.6, 57.5 75.2, 52.4 64.7 C 60.7 75.5, 58.4 66.2, 44.8 75.1 C 26.0 73.6, 44.9 37.8, 53.6 42.8 C 68.7 26.8, 73.8 46.5, 66.7 40.9 " fill="hsl(40, 53%, 69%)" fill-opacity="0.72" stroke="none" stroke-width="0.92"   />
<path d="M 14.6 42.1 C 0.0 24.8, 71.7 61.6, 63.0 72.3 C 69.6 58.4, 12.5 35.6, 20.1 38.0 C 13.5 53.6, 47.1 33.7, 39.0 26.0 C 42.1 40.3, 88.2 63.9, 86.9 74.0 C 66.9 69.0, 22.6 96.6, 18.7 91.6 C 32.6 99.5, 56.1 4.0, 61.5 6.4 " fill="none" fill-opacity="0.69" stroke="hsl(242, 72%, 49%)" stroke-width="1.21"   />
<circle cx="20.3" cy="68.4" r="0.2" fill="hsl(151, 70%, 62%)" fill-opacity="0.60"  transform="translate(89.5 73.9) rotate(335.4) scale(0.82 1.30)" />
</svg>
