<?xml version="1.0" encoding="UTF-8"?>
<svg xmlns="http://www.w3.org/2000/svg" width="100" height="100" viewBox="0 0 100 100">
<defs>
<linearGradient id="g0" x1="0%" y1="0%" x2="100%" y2="100%">
<stop offset="0.0%" stop-color="hsl(106, 75%, 59%)" />
<stop offset="33.3%" stop-color="hsl(183, 71%, 60%)" />
<stop offset="66.7%" stop-color="hsl(242, 72%, 49%)" />
<stop offset="100.0%" stop-color="hsl(322, 74%, 44%)" />
</linearGradient>
<linearGradient id="g1" x1="0%" y1="0%" x2="100%" y2="100%">
<stop offset="0.0%" stop-color="hsl(290, 83%, 63%)" />
<stop offset="33.3%" stop-color="hsl(2, 82%, 55%)" />
<stop offset="66.7%" stop-color="hsl(86, 72%, 68%)" />
<stop offset="100.0%" stop-color="hsl(83, 65%, 44%)" />
</linearGradient>
<linearGradient id="g2" x1="0%" y1="0%" x2="100%" y2="100%">
<stop offset="0.0%" stop-color="hsl(40, 53%, 69%)" />
<stop offset="33.3%" stop-color="hsl(104, 72%, 65%)" />
<stop offset="66.7%" stop-color="hsl(144, 86%, 72%)" />
<stop offset="100.0%" stop-color="hsl(151, 70%, 62%)" />
</linearGradient>
</defs>

<path d="M 78.7 5.2 C 64.7 22.5, 75.0 49.4, 69.2 61.8 C 78.0 56.3, 26.6 90.4, 14.1 83.1 C 1.1 92.7, 14.4 81.8, 15.7 79.3 C 19.9 85.1, 78.1 79.5, 81.7 92.2 C 86.7 77.2, 26.1 35.6, 26.0 38.7 C 21.8 34.1, 0.0 34.7, 1.8 22.0 C 17.1 27.8, 92.0 21.5, 85.9 8.1 " fill="hsl(144, 86%, 72%)" fill-opacity="0.86" stroke="none" stroke-width="0.99"   />
<circle cx="51.3" cy="4.0" r="0.2" fill="hsl(40, 53%, 69%)" fill-opacity="0.48"   />
<rect x="4.1" y="60.9" width="24.7" height="14.2" rx="0" fill="hsl(104, 72%, 65%)" fill-opacity="0.57"   transform="translate(57.5 68.3) rotate(221.9) scale(1.47 1.60)" />
<path d="M 63.7 14.6 C 51.0 8.7, 83.6 38.5, 88.5 33.5 C 69.2 51.2, 35.3 64.8, 38.9 78.2 C 20.2 72.0, 92.6 89.5, 96.6 91.6 C 93.4 78.9, 100.0 45.9, 97.9 36.9 C 86.7 50.8, 50.8 73.9, 50.5 79.9 Z" fill="hsl(40, 53%, 69%)" fill-opacity="0.87" stroke="none" stroke-width="1.14"   />
<circle cx="83.8" cy="3.1" r="0.2" fill="hsl(2, 82%, 55%)" fill-opacity="0.54"  transform="translate(71.7 47.9) rotate(146.3) scale(1.40 1.65)" />
<circle cx="29.9" cy="60.9" r="0.4" fill="hsl(151, 70%, 62%)" fill-opacity="0.80"   />
<rect x="64.3" y="10.3" width="25.9" height="27.6" rx="0" fill="none" fill-opacity="0.81"    />
<path d="M 47.7 9.4 C 49.7 0.0, 98.1 13.2, 86.3 21.4 C 72.8 26.1, 8.6 0.0, 0.2 9.5 C 0.0 7.5, 68.6 81.7, 76.1 77.4 C 88.5 60.0, 0.0 0.0, 4.8 10.1 C 0.0 4.8, 73.9 80.1, 85.2 69.9 C 85.3 88.7, 100.0 48.2, 93.4 47.3 C 97.4 62.1, 0.0 7.5, 3.8 9.4 " fill="hsl(151, 70%, 62%)" fill-opacity="0.77" stroke="none" stroke-width="0.91"   />
<path d="M 64.2 15.5 C 75.1 13.0, 42.1 66.1, 55.5 78.0 C 42.9 88.1, 15.6 79.6, 21.3 85.7 C 16.1 98.7, 92.8 26.3, 80.2 35.6 C 61.4 26.2, 30.2 23.2, 37.0 16.1 C 32.5 14.9, 87.3 34.8, 75.2 30.0 C 72.1 46.9, 100.0 83.9, 95.3 94.3 Z" fill="hsl(86, 72%, 68%)" fill-opacity="0.33" stroke="none" stroke-width="0.85"   />
<path d="M 35.7 42.8 C 49.2 56.8, 100.0 100.0, 88.4 97.9 C 87.1 78.7, 36.7 26.7, 37.0 22.7 C 37.7 40.1, 7.4 28.8, 8.0 22.8 " fill="none" fill-opacity="0.88" stroke="hsl(144, 86%, 72%)" stroke-width="1.16"  transform="translate(25.2 5.4) rotate(191.2) scale(0.81 1.22)" />
<path d="M 95.7 58.6 C 82.7 74.3, 100.0 98.2, 98.9 98.6 C 99.0 83.4, 59.5 88.6, 51.5 86.4 C 55.8 70.2, 67.3 34.6, 58.2 31.9 C 75.9 12.1, 19.5 57.0, 26.8 54.5 " fill="none" fill-opacity="0.94" stroke="hsl(290, 83%, 63%)" stroke-width="1.03"   />
<path d="M 64.6 23.9 C 46.9 11.7, 35.5 5.3, 43.2 18.0 C 29.9 37.8, 55.1 26.0, 54.7 40.7 C 72.0 54.4, 45.8 0.1, 48.1 14.6 C 51.8 8.3, 52.2 79.4, 52.2 94.3 C 53.0 92.5, 44.3 83.6, 31.1 80.8 C 16.3 72.6, 31.7 26.7, 24.7 27.0 " fill="hsl(322, 74%, 44%)" fill-opacity="0.52" stroke="none" stroke-width="0.95"  transform="translate(38.6 9.3) rotate(178.2) scale(1.88 0.92)" />
<path d="M 16.0 28.4 C 32.8 19.5, 57.9 75.1, 43.6 78.8 C 26.3 74.3, 51.2 12.2, 48.7 19.2 C 40.6 4.6, 100.0 90.4, 93.4 93.2 C 87.8 86.5, 38.1 80.7, 41.6 70.4 " fill="hsl(144, 86%, 72%)" fill-opacity="0.53" stroke="none" stroke-width="1.00"   />
<rect x="31.2" y="6.5" width="32.7" height="39.6" rx="0" fill="hsl(183, 71%, 60%)" fill-opacity="0.25"   transform="translate(71.4 56.7) rotate(30.9) scale(1.99 1.12)" />
<path d="M 67.5 32.7 C 50.1 34.1, 39.4 55.4, 39.6 60.4 C 32.0 58.0, 67.7 74.8, 65.9 81.7 C 52.8 66.7, 53.3 73.7, 55.6 69.4 C 39.0 68.2, 44.9 71.7, 56.5 78.2 C 66.0 76.5, 55.0 85.7, 60.3 96.3 Z" fill="hsl(290, 83%, 63%)" fill-opacity="0.37" stroke="none" stroke-width="0.84"   />
<rect x="23.8" y="30.9" width="21.3" height="38.8" rx="16.4" fill="hsl(242, 72%, 49%)" fill-opacity="0.55"    />
<path d="M 37.9 2.4 C 46.7 13.2, 74.8 63.2, 74.7 66.7 C 64.9 51.8, 51.9 14.6, 39.6 14.6 C 20.7 19.2, 65.1 80.3, 74.0 84.3 C 72.1 100.0, 58.4 54.3, 67.4 67.3 C 80.4 60.8, 15.4 64.1, 22.7 60.6 C 39.4 60.2, 75.2 67.9, 68.0 57.1 C 52.6 53.5, 79.1 15.5, 64.6 17.7 Z" fill="hsl(40, 53%, 69%)" fill-opacity="0.27" stroke="none" stroke-width="0.90"   />
</svg>
