<?xml version="1.0" encoding="UTF-8"?>
<svg xmlns="http://www.w3.org/2000/svg" width="100" height="100" viewBox="0 0 100 100">
<defs>
<linearGradient id="g0" x1="0%" y1="0%" x2="100%" y2="100%">
<stop offset="0.0%" stop-color="hsl(106, 75%, 59%)" />
<stop offset="33.3%" stop-color="hsl(183, 71%, 60%)" />
<stop offset="66.7%" stop-color="hsl(242, 72%, 49%)" />
<stop offset="100.0%" stop-color="hsl(322, 74%, 44%)" />
</linearGradient>
<linearGradient id="g1" x1="0%" y1="0%" x2="100%" y2="100%">
<stop offset="0.0%" stop-color="hsl(290, 83%, 63%)" />
<stop offset="33.3%" stop-color="hsl(2, 82%, 55%)" />
<stop offset="66.7%" stop-color="hsl(86, 72%, 68%)" />
<stop offset="100.0%" stop-color="hsl(83, 65%, 44%)" />
</linearGradient>
<linearGradient id="g2" x1="0%" y1="0%" x2="100%" y2="100%">
<stop offset="0.0%" stop-color="hsl(40, 53%, 69%)" />
<stop offset="33.3%" stop-color="hsl(104, 72%, 65%)" />
<stop offset="66.7%" stop-color="hsl(144, 86%, 72%)" />
<stop offset="100.0%" stop-color="hsl(151, 70%, 62%)" />
</linearGradient>
<filter id="f1" x="-20%" y="-20%" width="140%" height="140%">
  <feGaussianBlur stdDeviation="1.7877950789843156" />
</filter>

</defs>

<path d="M 51.8 79.2 C 32.7 92.3, 37.5 84.6, 24.0 72.6 C 38.4 59.9, 33.5 17.4, 20.2 19.3 C 21.8 29.4, 19.7 33.1, 11.0 27.5 C 20.2 27.4, 0.0 44.2, 9.3 30.2 C 1.8 36.6, 58.1 44.3, 60.3 34.5 C 75.0 16.0, 3.4 13.1, 10.0 12.1 C 25.1 10.0, 61.1 18.9, 66.8 16.6 Z" fill="none" fill-opacity="0.52" stroke="hsl(86, 72%, 68%)" stroke-width="2.82"  transform="translate(98.3 40.7) rotate(5.8) scale(1.74 1.59)" />
<rect x="59.5" y="71.4" width="36.5" height="10.8" rx="15.6" fill="none" fill-opacity="0.81"   transform="translate(90.8 69.1) rotate(240.5) scale(0.68 1.56)" />
<circle cx="54.9" cy="13.0" r="0.7" fill="hsl(322, 74%, 44%)" fill-opacity="0.53"  transform="translate(15.8 51.6) rotate(96.1) scale(1.63 1.88)" />
<rect x="16.0" y="1.1" width="29.4" height="16.8" rx="14.4" fill="none" fill-opacity="0.94" stroke="hsl(322, 74%, 44%)" stroke-width="1.3"  transform="translate(49.5 93.1) rotate(27.4) scale(0.97 0.80)" />
<path d="M 40.9 54.1 C 31.1 46.2, 66.7 30.0, 80.2 24.9 C 68.2 30.6, 84.9 100.0, 80.2 92.2 C 60.7 100.0, 62.4 85.2, 71.4 72.3 C 84.3 61.7, 16.1 44.7, 9.7 52.8 C 0.0 69.5, 63.4 14.5, 64.1 11.8 C 69.3 30.8, 51.5 63.3, 44.6 50.1 C 25.8 45.9, 11.0 96.5, 23.6 85.8 C 39.4 90.1, 46.3 56.7, 40.6 49.6 Z" fill="hsl(106, 75%, 59%)" fill-opacity="0.59" stroke="none" stroke-width="2.92"   />
<rect x="27.4" y="1.0" width="44.7" height="29.2" rx="0.3" fill="hsl(2, 82%, 55%)" fill-opacity="0.45"   transform="translate(52.3 33.8) rotate(303.7) scale(0.91 1.92)" />
<path d="M 37.1 72.4 C 49.9 55.2, 100.0 32.0, 98.8 34.0 C 100.0 32.7, 0.0 78.7, 6.7 93.3 C 0.8 89.1, 23.4 0.0, 19.6 4.3 C 33.9 24.1, 16.5 65.2, 2.8 65.6 C 10.3 67.0, 100.0 70.5, 97.7 63.3 C 100.0 76.0, 32.1 9.4, 39.4 2.2 C 52.4 0.8, 17.0 23.1, 25.7 24.1 Z" fill="hsl(322, 74%, 44%)" fill-opacity="0.30" stroke="none" stroke-width="1.91" filter="url(#f1)"  />
<path d="M 3.5 94.8 C 0.0 93.7, 82.1 62.5, 96.2 52.3 C 99.9 62.2, 23.8 63.0, 28.6 73.9 C 12.1 80.6, 66.2 81.0, 64.6 95.1 C 81.3 86.2, 79.3 70.0, 78.1 84.4 C 62.2 82.4, 71.0 52.9, 83.4 47.5 C 87.6 32.8, 4.6 0.0, 14.3 2.9 C 1.8 0.0, 13.6 34.7, 25.6 46.4 Z" fill="none" fill-opacity="0.86" stroke="hsl(151, 70%, 62%)" stroke-width="3.85"  transform="translate(25.1 19.4) rotate(193.8) scale(1.88 1.43)" />
<rect x="34.4" y="0.8" width="42.6" height="10.2" rx="0" fill="hsl(151, 70%, 62%)" fill-opacity="0.98"    />
<path d="M 94.9 86.1 C 86.1 95.4, 99.9 29.2, 91.1 31.8 C 99.8 46.0, 28.3 70.7, 33.5 73.5 C 42.7 63.7, 96.5 89.5, 89.4 93.9 C 80.5 77.1, 79.9 67.4, 86.9 81.6 C 86.7 78.8, 65.0 69.0, 51.6 66.5 C 37.7 50.2, 63.7 5.2, 77.6 19.4 C 73.9 11.3, 49.9 11.1, 37.1 16.8 C 39.9 27.0, 26.4 30.2, 38.1 15.6 C 36.1 23.9, 29.6 51.9, 37.4 37.1 Z" fill="hsl(290, 83%, 63%)" fill-opacity="0.97" stroke="none" stroke-width="2.28"  transform="translate(21.5 72.1) rotate(205.0) scale(0.67 0.55)" />
<path d="M 51.1 45.7 C 40.9 34.5, 87.4 100.0, 79.8 89.5 C 93.4 100.0, 18.1 98.5, 27.3 88.7 C 16.6 100.0, 100.0 0.5, 94.1 6.8 C 100.0 7.4, 34.6 49.8, 21.7 50.5 C 7.6 58.3, 0.0 30.9, 10.0 30.5 C 1.5 47.7, 71.1 38.8, 84.1 42.7 C 77.7 44.0, 73.8 17.0, 88.0 2.5 C 87.3 15.2, 75.8 74.2, 68.2 61.4 Z" fill="hsl(40, 53%, 69%)" fill-opacity="0.95" stroke="none" stroke-width="4.24"  transform="translate(94.7 30.0) rotate(68.0) scale(1.34 1.13)" />
<rect x="30.0" y="31.7" width="21.5" height="35.4" rx="0" fill="hsl(290, 83%, 63%)" fill-opacity="0.68" stroke="hsl(2, 82%, 55%)" stroke-width="1.7"  transform="translate(7.2 78.3) rotate(58.7) scale(1.45 1.13)" />
<path d="M 38.9 69.2 C 20.2 73.3, 78.9 82.3, 89.5 77.2 C 94.6 79.1, 85.1 50.6, 98.1 51.1 C 83.0 44.5, 97.8 19.6, 91.0 10.4 C 73.3 5.4, 0.0 27.0, 4.3 19.6 C 0.0 31.3, 20.4 52.4, 7.6 51.0 C 0.0 32.0, 28.3 12.9, 13.6 12.9 C 29.2 8.3, 79.1 56.2, 81.3 49.0 C 92.6 50.1, 84.8 63.2, 97.8 70.1 Z" fill="hsl(144, 86%, 72%)" fill-opacity="0.78" stroke="none" stroke-width="2.33"  transform="translate(100.0 23.9) rotate(136.6) scale(0.93 1.17)" />
<path d="M 74.8 61.1 C 65.8 80.5, 16.7 81.3, 7.5 93.6 C 0.0 100.0, 57.5 43.9, 61.1 32.9 C 51.6 22.3, 11.5 12.4, 24.2 24.1 C 12.7 11.1, 13.1 45.4, 5.5 44.4 C 0.6 31.4, 39.2 0.0, 45.8 5.4 C 33.9 7.3, 100.0 81.2, 99.8 76.7 C 84.7 86.4, 34.2 60.2, 25.0 46.7 C 35.5 37.4, 80.2 3.9, 80.5 6.5 C 69.9 0.0, 7.4 74.6, 22.1 83.0 C 32.6 85.7, 64.1 88.3, 78.4 98.5 Z" fill="hsl(104, 72%, 65%)" fill-opacity="0.74" stroke="none" stroke-width="3.83"  transform="translate(0.0 66.7) rotate(320.6) scale(0.93 1.62)" />
<rect x="52.1" y="1.4" width="27.5" height="15.4" rx="15.2" fill="hsl(242, 72%, 49%)" fill-opacity="0.93" stroke="hsl(322, 74%, 44%)" stroke-width="1.5" filter="url(#f1)" transform="translate(96.5 87.6) rotate(298.9) scale(0.92 1.57)" />
<rect x="41.0" y="32.5" width="39.4" height="19.5" rx="0" fill="hsl(183, 71%, 60%)" fill-opacity="0.74" stroke="hsl(183, 71%, 60%)" stroke-width="4.8"   />
<rect x="45.0" y="29.0" width="32.5" height="25.8" rx="16.2" fill="hsl(144, 86%, 72%)" fill-opacity="0.45"    />
<path d="M 21.2 95.7 C 21.5 100.0, 85.6 23.7, 94.7 26.7 C 100.0 31.6, 65.8 9.9, 58.1 11.2 C 49.8 6.8, 6.4 9.3, 11.1 14.8 C 24.8 4.5, 26.8 75.2, 39.8 86.5 C 26.9 100.0, 29.8 14.7, 32.7 1.4 C 52.0 14.2, 44.6 0.0, 44.4 1.5 C 34.3 12.3, 55.4 0.0, 56.4 0.8 " fill="none" fill-opacity="0.53" stroke="hsl(242, 72%, 49%)" stroke-width="1.23"  transform="translate(32.5 23.9) rotate(158.6) scale(1.42 1.63)" />
<circle cx="82.4" cy="31.2" r="5.0" fill="hsl(144, 86%, 72%)" fill-opacity="0.75" filter="url(#f1)" transform="translate(71.5 43.4) rotate(13.8) scale(0.60 1.09)" />
<circle cx="90.5" cy="88.8" r="10.0" fill="url(#g2)" fill-opacity="0.83"  transform="translate(21.1 38.2) rotate(185.6) scale(1.13 0.79)" />
<path d="M 94.8 100.0 C 100.0 100.0, 80.0 90.5, 83.8 79.6 C 75.1 66.0, 85.7 90.1, 99.8 78.2 C 100.0 85.7, 97.6 28.8, 83.3 37.7 C 80.1 30.8, 80.8 39.2, 94.7 39.6 C 99.9 22.2, 91.9 44.4, 94.7 47.0 C 85.8 49.6, 47.8 51.6, 47.4 62.7 C 42.0 48.4, 89.3 5.6, 91.7 12.7 C 93.6 21.8, 56.4 27.6, 55.0 21.7 Z" fill="none" fill-opacity="0.90" stroke="hsl(104, 72%, 65%)" stroke-width="1.37"   />
<rect x="71.5" y="3.2" width="23.7" height="31.2" rx="3.4" fill="none" fill-opacity="0.96"   transform="translate(12.5 44.5) rotate(66.2) scale(1.96 0.82)" />
<path d="M 40.6 33.2 C 25.8 34.1, 38.5 30.1, 41.6 15.2 C 28.2 11.5, 19.9 72.0, 7.2 68.9 C 5.4 58.6, 51.0 69.3, 55.6 60.0 C 49.2 75.0, 56.2 33.9, 60.8 42.7 C 53.3 59.9, 81.7 42.8, 77.5 38.6 C 81.4 56.8, 52.5 56.4, 48.7 56.9 C 60.6 57.4, 100.0 68.9, 96.0 74.8 C 100.0 66.8, 61.4 0.0, 55.5 1.3 Z" fill="hsl(242, 72%, 49%)" fill-opacity="0.95" stroke="none" stroke-width="4.89"  transform="translate(95.3 75.1) rotate(149.7) scale(1.90 0.80)" />
<rect x="54.9" y="46.0" width="31.1" height="34.1" rx="0" fill="none" fill-opacity="0.82" stroke="hsl(2, 82%, 55%)" stroke-width="4.2"  transform="translate(46.7 11.5) rotate(280.2) scale(0.56 1.61)" />
<circle cx="97.6" cy="90.5" r="2.1" fill="url(#g2)" fill-opacity="0.77"  transform="translate(17.8 18.4) rotate(313.0) scale(0.56 1.75)" />
<circle cx="98.3" cy="62.1" r="5.3" fill="url(#g1)" fill-opacity="0.89"   />
<path d="M 27.0 34.8 C 9.5 51.6, 7.5 36.9, 15.2 28.7 C 24.3 45.5, 42.4 18.3, 39.7 21.8 C 28.8 3.9, 12.3 11.4, 17.2 2.6 C 0.5 0.0, 70.3 88.3, 83.8 80.3 C 100.0 88.8, 42.5 89.3, 41.5 98.3 C 32.2 100.0, 17.1 30.0, 29.6 16.4 C 35.3 11.9, 83.1 82.6, 86.7 72.8 C 90.1 72.6, 78.3 45.4, 70.1 39.2 C 52.4 34.7, 27.1 26.9, 19.9 33.1 C 8.4 27.1, 88.8 10.2, 94.5 13.8 Z" fill="hsl(104, 72%, 65%)" fill-opacity="0.43" stroke="none" stroke-width="2.78"  transform="translate(5.8 63.3) rotate(4.0) scale(0.91 0.65)" />
<path d="M 4.6 50.3 C 19.2 53.2, 40.6 3.7, 45.3 13.9 C 28.0 18.0, 36.8 45.5, 46.9 30.5 C 52.5 19.3, 46.3 50.5, 32.1 46.1 C 34.8 57.4, 34.6 81.2, 30.3 72.9 C 21.6 71.4, 90.1 7.0, 89.2 9.3 C 100.0 12.7, 78.4 14.7, 91.0 21.7 C 96.1 3.3, 75.5 50.6, 89.4 37.3 C 71.1 37.3, 27.7 35.8, 32.1 42.6 C 37.9 32.6, 35.0 85.5, 24.7 76.7 Z" fill="hsl(106, 75%, 59%)" fill-opacity="0.57" stroke="none" stroke-width="2.74"  transform="translate(14.4 85.1) rotate(244.4) scale(1.77 1.61)" />
<path d="M 46.3 74.5 C 65.7 83.0, 32.0 44.2, 20.8 29.4 C 15.7 10.0, 76.6 61.6, 61.7 58.0 C 71.4 39.8, 48.9 25.6, 49.1 13.5 C 66.8 31.8, 60.6 72.5, 73.5 78.0 C 87.2 61.8, 87.6 67.5, 80.4 78.4 C 67.3 68.7, 73.8 3.1, 76.5 5.2 Z" fill="none" fill-opacity="0.99" stroke="hsl(86, 72%, 68%)" stroke-width="4.94"  transform="translate(18.7 96.7) rotate(173.7) scale(1.85 1.18)" />
<rect x="21.2" y="55.3" width="26.9" height="20.4" rx="0" fill="none" fill-opacity="0.43"   transform="translate(79.5 29.2) rotate(284.4) scale(1.35 0.81)" />
<path d="M 75.9 58.4 C 63.7 57.3, 79.6 13.5, 82.6 6.1 C 100.0 0.0, 68.7 100.0, 66.6 94.8 C 77.1 98.5, 71.3 5.6, 74.5 10.9 C 64.3 0.0, 42.1 19.2, 28.5 21.5 C 10.6 7.0, 56.9 72.7, 70.9 87.4 C 74.6 68.9, 69.2 57.8, 55.7 69.4 C 62.8 82.2, 4.2 100.0, 7.2 98.5 Z" fill="none" fill-opacity="0.86" stroke="hsl(290, 83%, 63%)" stroke-width="4.83"  transform="translate(32.4 84.6) rotate(320.9) scale(1.14 0.96)" />
<path d="M 59.3 96.8 C 59.7 91.1, 41.1 72.6, 40.3 78.6 C 56.2 69.7, 24.6 34.1, 15.1 27.8 C 25.4 27.8, 46.3 10.3, 37.3 21.9 C 29.8 20.5, 0.0 68.0, 1.4 80.2 C 0.0 94.5, 52.7 71.6, 37.7 74.3 C 35.3 54.7, 50.6 44.7, 36.5 59.7 C 38.5 44.5, 61.3 70.5, 67.3 81.5 C 64.8 99.0, 22.6 34.0, 10.6 26.0 C 30.1 25.0, 24.4 40.4, 21.0 53.9 C 17.1 51.7, 74.7 86.7, 76.5 77.8 Z" fill="hsl(106, 75%, 59%)" fill-opacity="0.79" stroke="none" stroke-width="3.47"  transform="translate(26.2 25.8) rotate(94.1) scale(1.97 0.72)" />
<circle cx="27.2" cy="89.7" r="4.4" fill="url(#g1)" fill-opacity="0.77" filter="url(#f1)" transform="translate(80.3 65.5) rotate(163.6) scale(1.79 1.88)" />
<path d="M 8.4 98.8 C 22.0 95.1, 84.8 39.8, 94.6 41.1 C 77.7 55.9, 66.1 59.5, 77.3 70.3 C 87.6 82.3, 0.0 32.4, 1.9 34.8 C 0.0 36.6, 18.4 4.1, 19.5 17.8 C 11.9 11.6, 64.1 14.7, 61.2 17.9 C 53.5 16.1, 88.0 24.9, 84.9 30.6 C 87.9 18.4, 8.3 19.7, 7.8 13.3 Z" fill="none" fill-opacity="0.44" stroke="hsl(144, 86%, 72%)" stroke-width="4.85"  transform="translate(92.1 77.9) rotate(250.1) scale(1.85 0.73)" />
<path d="M 76.9 93.5 C 80.0 100.0, 74.6 62.9, 85.8 60.3 C 100.0 46.7, 61.6 92.7, 64.6 96.9 C 69.6 100.0, 90.2 3.0, 86.7 4.3 C 89.8 24.1, 27.7 40.9, 42.0 47.2 C 28.2 38.8, 69.9 82.3, 57.6 71.5 C 41.1 86.5, 55.4 55.4, 55.3 69.6 C 63.2 71.9, 49.6 12.0, 49.8 23.9 C 30.8 15.9, 75.5 60.4, 81.2 58.9 Z" fill="hsl(2, 82%, 55%)" fill-opacity="0.95" stroke="none" stroke-width="1.99"  transform="translate(18.7 41.8) rotate(283.4) scale(1.36 1.03)" />
<path d="M 40.2 2.5 C 47.2 0.0, 59.3 43.4, 58.1 49.4 C 67.5 56.9, 92.7 52.8, 90.7 51.4 C 87.3 62.6, 24.1 100.0, 9.7 96.9 C 10.4 93.2, 46.9 82.4, 57.6 96.6 C 45.8 94.0, 77.9 68.1, 74.9 78.7 C 91.7 98.0, 57.4 29.9, 72.3 18.9 C 73.3 12.6, 38.4 98.5, 50.9 86.0 C 35.2 76.9, 97.3 90.7, 83.1 81.5 C 63.4 77.6, 15.6 82.8, 14.1 77.2 Z" fill="hsl(290, 83%, 63%)" fill-opacity="0.44" stroke="none" stroke-width="1.27"  transform="translate(30.2 7.7) rotate(320.9) scale(0.55 1.51)" />
<rect x="58.8" y="35.7" width="35.8" height="28.9" rx="0" fill="hsl(144, 86%, 72%)" fill-opacity="0.30" stroke="hsl(40, 53%, 69%)" stroke-width="4.4"   />
<path d="M 33.5 4.0 C 18.4 0.0, 22.5 5.2, 20.6 6.8 C 32.7 24.9, 25.2 37.6, 18.3 38.5 C 6.1 52.1, 36.0 91.2, 29.9 97.8 C 18.4 85.9, 96.8 61.4, 95.9 58.4 C 93.5 66.6, 66.7 84.1, 59.6 85.0 C 59.7 81.9, 35.5 13.9, 44.3 3.3 C 57.1 17.0, 82.5 30.5, 85.3 22.7 C 89.6 37.0, 40.0 86.4, 47.4 93.4 C 44.3 100.0, 65.5 12.7, 75.3 12.3 Z" fill="hsl(86, 72%, 68%)" fill-opacity="0.90" stroke="none" stroke-width="1.75" filter="url(#f1)" transform="translate(62.9 41.7) rotate(36.9) scale(1.51 1.64)" />
<path d="M 75.8 50.5 C 83.2 68.5, 100.0 77.3, 97.3 88.4 C 86.1 100.0, 49.3 48.7, 51.7 41.9 C 71.2 22.7, 28.8 86.4, 39.0 94.9 C 32.3 100.0, 13.7 65.8, 12.0 51.0 C 23.3 37.6, 73.3 45.3, 85.2 53.8 C 100.0 40.5, 92.2 40.8, 83.9 36.2 Z" fill="none" fill-opacity="0.52" stroke="hsl(104, 72%, 65%)" stroke-width="5.11"  transform="translate(69.5 98.5) rotate(63.2) scale(1.76 0.72)" />
<path d="M 81.6 31.6 C 84.1 36.8, 15.5 49.8, 30.4 39.9 C 43.5 41.1, 19.4 44.9, 8.0 42.5 C 23.5 46.9, 86.4 2.8, 88.0 10.6 C 100.0 19.3, 20.7 53.3, 10.5 54.6 C 1.0 55.0, 31.6 69.1, 35.2 59.3 C 54.7 60.5, 56.3 1.0, 42.6 8.1 C 33.9 20.7, 14.7 81.5, 26.3 82.2 C 39.7 88.4, 80.0 75.6, 80.8 73.0 C 89.7 85.4, 54.3 56.1, 50.6 44.0 C 67.8 63.6, 25.2 43.4, 35.1 33.7 Z" fill="hsl(83, 65%, 44%)" fill-opacity="0.78" stroke="none" stroke-width="4.92"   />
<circle cx="21.7" cy="20.2" r="7.7" fill="hsl(104, 72%, 65%)" fill-opacity="0.53"  transform="translate(44.1 65.7) rotate(270.9) scale(1.92 0.61)" />
<rect x="4.7" y="19.9" width="26.5" height="27.1" rx="11.0" fill="none" fill-opacity="0.57" stroke="hsl(144, 86%, 72%)" stroke-width="3.1"  transform="translate(64.8 46.0) rotate(155.3) scale(0.74 1.39)" />
<path d="M 57.0 45.0 C 76.6 59.2, 45.5 27.0, 58.4 31.1 C 77.9 45.6, 30.3 89.6, 28.2 80.4 C 34.9 80.3, 17.2 90.2, 18.7 75.7 C 3.8 59.9, 48.6 55.2, 48.8 65.7 C 53.5 47.2, 65.3 60.1, 74.2 46.6 C 80.7 34.9, 100.0 71.8, 93.3 60.6 C 100.0 77.7, 21.4 55.0, 29.0 55.1 C 40.6 72.9, 28.8 27.3, 30.6 20.3 Z" fill="none" fill-opacity="0.80" stroke="hsl(106, 75%, 59%)" stroke-width="1.72"  transform="translate(62.9 10.7) rotate(268.4) scale(0.67 1.89)" />
<path d="M 88.5 40.1 C 100.0 38.9, 51.6 42.1, 62.4 41.7 C 59.2 37.5, 0.0 45.1, 9.7 34.9 C 11.4 20.2, 11.6 41.6, 14.1 49.7 C 24.4 64.2, 15.6 27.5, 20.9 28.0 C 18.4 15.6, 61.3 99.7, 74.3 88.2 C 69.6 73.0, 9.2 8.7, 2.7 13.9 C 8.3 6.8, 53.2 60.9, 67.0 66.1 C 51.9 84.3, 74.3 91.4, 70.4 96.0 C 51.5 100.0, 37.0 32.9, 39.3 46.6 Z" fill="none" fill-opacity="0.63" stroke="hsl(104, 72%, 65%)" stroke-width="2.11"  transform="translate(31.3 71.0) rotate(65.4) scale(0.86 1.36)" />
<circle cx="95.8" cy="9.7" r="0.5" fill="url(#g0)" fill-opacity="0.54"  transform="translate(80.1 19.4) rotate(199.7) scale(1.31 0.80)" />
<rect x="22.9" y="43.1" width="47.8" height="39.8" rx="10.1" fill="hsl(183, 71%, 60%)" fill-opacity="0.49"   transform="translate(87.1 42.5) rotate(101.3) scale(1.29 1.69)" />
<path d="M 74.7 57.6 C 79.4 41.9, 81.3 26.6, 66.4 22.9 C 73.1 40.9, 55.2 63.3, 68.0 53.9 C 82.7 51.9, 55.6 36.5, 69.2 24.2 C 73.6 41.4, 87.0 99.4, 74.8 97.0 C 92.4 94.6, 57.4 48.5, 58.7 61.5 C 57.9 65.1, 100.0 76.3, 90.8 79.2 Z" fill="none" fill-opacity="0.96" stroke="hsl(2, 82%, 55%)" stroke-width="5.26" filter="url(#f1)" transform="translate(67.7 41.3) rotate(243.9) scale(0.86 1.84)" />
<rect x="17.0" y="53.4" width="48.6" height="25.0" rx="0" fill="none" fill-opacity="0.29"   transform="translate(69.6 72.3) rotate(306.4) scale(0.52 1.75)" />
<path d="M 74.6 42.1 C 73.7 57.9, 60.5 42.9, 68.6 56.1 C 77.5 59.3, 76.1 21.5, 70.3 32.3 C 87.0 27.8, 21.1 71.1, 22.8 59.4 C 11.9 71.1, 18.7 73.0, 26.4 71.6 C 43.6 66.5, 100.0 85.0, 95.4 95.8 C 97.9 100.0, 8.5 95.7, 19.9 97.9 C 9.3 81.6, 95.2 23.7, 81.8 31.9 C 88.6 16.9, 24.5 28.4, 25.8 27.4 C 39.1 22.2, 24.6 42.4, 15.4 35.5 C 18.7 54.0, 25.5 65.0, 19.9 75.0 " fill="hsl(144, 86%, 72%)" fill-opacity="0.73" stroke="none" stroke-width="2.22"  transform="translate(21.6 15.1) rotate(108.5) scale(0.93 1.96)" />
<path d="M 81.4 8.5 C 70.4 19.6, 6.6 35.2, 16.2 25.1 C 28.4 15.9, 9.7 12.7, 12.5 10.6 C 4.2 12.9, 70.0 54.1, 59.3 46.9 C 70.5 33.5, 100.0 21.5, 95.0 23.4 C 95.2 10.7, 38.9 30.3, 36.1 42.6 C 19.1 61.2, 9.0 16.8, 16.0 10.6 C 11.7 28.2, 44.0 100.0, 54.9 97.8 C 68.0 100.0, 33.5 34.2, 40.6 24.2 Z" fill="hsl(2, 82%, 55%)" fill-opacity="0.85" stroke="none" stroke-width="4.37"  transform="translate(20.0 41.1) rotate(143.2) scale(0.77 1.60)" />
<rect x="21.6" y="43.1" width="30.7" height="26.3" rx="14.9" fill="none" fill-opacity="0.67"   transform="translate(55.9 67.5) rotate(58.4) scale(1.27 0.65)" />
<path d="M 84.5 96.4 C 89.0 100.0, 29.7 18.6, 19.0 26.9 C 38.3 8.1, 16.5 68.6, 28.6 61.9 C 36.3 64.7, 81.0 93.9, 74.7 99.1 C 72.5 100.0, 70.2 56.4, 64.7 52.7 C 66.1 33.3, 51.7 25.6, 51.2 12.3 C 67.4 19.3, 0.0 68.1, 7.2 68.0 C 0.0 81.2, 8.7 44.0, 9.7 50.1 C 0.6 63.1, 15.9 100.0, 14.5 98.1 Z" fill="hsl(40, 53%, 69%)" fill-opacity="0.51" stroke="none" stroke-width="3.79"  transform="translate(67.8 81.4) rotate(297.7) scale(1.87 0.84)" />
<path d="M 58.0 6.4 C 56.9 12.0, 24.9 82.6, 16.9 73.1 C 13.7 57.6, 68.4 85.7, 69.4 88.0 C 70.7 75.1, 34.2 0.0, 39.9 0.9 C 23.8 0.0, 43.5 88.1, 29.0 99.2 C 11.1 100.0, 36.8 81.6, 26.6 91.6 C 44.1 95.9, 36.1 65.3, 47.9 63.4 Z" fill="hsl(242, 72%, 49%)" fill-opacity="0.67" stroke="none" stroke-width="4.12"  transform="translate(47.0 79.8) rotate(140.9) scale(1.98 1.79)" />
<circle cx="65.8" cy="3.2" r="1.3" fill="url(#g0)" fill-opacity="0.81" filter="url(#f1)" transform="translate(86.7 2.4) rotate(187.0) scale(1.78 0.90)" />
<path d="M 36.2 1.6 C 43.7 14.5, 81.0 71.2, 91.2 74.7 C 81.2 68.3, 68.7 27.5, 74.9 38.3 C 85.1 37.6, 86.9 100.0, 80.9 98.3 C 93.8 100.0, 5.0 13.3, 15.7 24.3 C 29.9 39.5, 74.6 11.9, 73.3 14.9 C 53.8 0.7, 0.0 67.7, 0.7 79.8 C 8.8 70.3, 59.2 56.3, 46.3 64.9 C 64.8 64.2, 32.3 66.6, 41.8 68.6 Z" fill="hsl(290, 83%, 63%)" fill-opacity="0.89" stroke="none" stroke-width="1.47"  transform="translate(95.4 89.8) rotate(41.4) scale(1.91 1.89)" />
<path d="M 62.1 69.5 C 77.7 89.0, 22.8 75.4, 16.8 67.7 C 5.4 80.1, 41.0 3.8, 46.3 8.3 C 35.3 25.1, 26.1 20.9, 32.8 24.4 C 37.3 24.0, 92.9 21.9, 92.3 26.1 C 82.4 13.4, 73.8 52.0, 75.1 42.4 C 72.4 41.7, 44.0 80.8, 36.8 76.9 C 18.2 60.8, 78.1 12.5, 66.3 0.6 Z" fill="hsl(104, 72%, 65%)" fill-opacity="0.47" stroke="none" stroke-width="3.48" filter="url(#f1)" transform="translate(19.7 90.8) rotate(324.1) scale(1.07 0.57)" />
<circle cx="96.2" cy="81.1" r="8.6" fill="hsl(183, 71%, 60%)" fill-opacity="0.55"  transform="translate(86.3 89.2) rotate(20.1) scale(1.64 1.02)" />
<circle cx="35.6" cy="46.7" r="1.7" fill="url(#g1)" fill-opacity="0.50"  transform="translate(29.9 93.8) rotate(316.8) scale(1.83 1.80)" />
<path d="M 58.5 76.5 C 69.1 69.7, 56.2 46.8, 52.7 42.8 C 41.5 38.4, 15.4 89.4, 1.0 81.9 C 0.0 90.7, 51.6 24.5, 41.8 31.4 C 32.5 19.0, 9.6 35.0, 11.1 27.4 C 7.2 29.4, 73.7 24.4, 88.4 36.8 C 94.9 56.0, 79.1 13.2, 65.5 11.8 Z" fill="hsl(322, 74%, 44%)" fill-opacity="0.29" stroke="none" stroke-width="3.40"  transform="translate(84.7 3.8) rotate(297.8) scale(1.84 1.87)" />
<path d="M 32.6 61.7 C 19.3 54.4, 13.6 99.2, 12.2 94.0 C 29.8 100.0, 83.6 76.9, 87.6 88.3 C 100.0 100.0, 13.2 75.2, 12.4 86.6 C 26.1 72.3, 82.5 0.0, 90.5 1.1 C 76.7 0.0, 29.4 59.0, 18.2 62.7 C 13.9 45.5, 62.2 30.0, 65.7 37.8 C 52.7 50.3, 60.3 28.6, 55.9 26.6 Z" fill="none" fill-opacity="0.26" stroke="hsl(83, 65%, 44%)" stroke-width="5.11"  transform="translate(87.2 70.9) rotate(268.4) scale(1.27 0.95)" />
<path d="M 11.3 20.1 C 25.7 10.4, 78.7 79.9, 81.3 83.9 C 90.5 88.3, 6.5 14.2, 15.0 4.3 C 21.6 0.0, 16.7 26.2, 9.0 13.1 C 0.0 23.4, 100.0 63.8, 99.9 71.0 C 82.1 55.1, 35.1 36.9, 29.3 31.0 C 26.5 13.3, 62.9 64.1, 55.6 54.1 C 63.5 59.5, 71.2 12.3, 79.9 7.0 C 80.2 23.5, 73.7 87.5, 64.8 78.9 Z" fill="hsl(290, 83%, 63%)" fill-opacity="0.47" stroke="none" stroke-width="4.94"  transform="translate(80.6 33.0) rotate(149.3) scale(1.60 1.15)" />
<rect x="71.1" y="27.6" width="26.2" height="25.5" rx="0" fill="hsl(40, 53%, 69%)" fill-opacity="0.33"   transform="translate(24.0 78.3) rotate(134.0) scale(0.54 0.54)" />
<circle cx="4.7" cy="72.6" r="15.0" fill="url(#g0)" fill-opacity="0.55"  transform="translate(16.4 92.9) rotate(209.6) scale(1.39 0.69)" />
<path d="M 68.6 94.3 C 57.7 96.1, 23.5 28.0, 23.4 19.4 C 5.7 34.9, 53.5 12.3, 67.0 14.5 C 73.0 15.9, 17.4 60.7, 23.4 57.5 C 28.5 52.5, 50.4 6.3, 41.1 19.0 C 39.8 0.3, 43.7 57.0, 44.2 58.2 C 26.5 62.7, 4.7 68.4, 12.5 81.6 Z" fill="none" fill-opacity="0.62" stroke="hsl(183, 71%, 60%)" stroke-width="4.03"  transform="translate(3.5 55.6) rotate(103.4) scale(0.98 1.17)" />
<path d="M 11.0 8.6 C 4.8 5.5, 74.6 9.1, 85.6 17.1 C 73.1 0.0, 47.0 70.3, 46.8 84.3 C 33.6 74.6, 27.5 45.2, 35.1 35.4 C 51.0 51.6, 34.7 31.3, 37.4 41.2 C 34.9 50.2, 11.9 97.3, 13.6 98.5 C 0.0 100.0, 11.8 58.2, 4.8 47.1 C 0.0 61.1, 28.1 58.2, 36.9 71.3 C 31.2 78.3, 59.9 66.8, 56.6 66.8 Z" fill="none" fill-opacity="0.41" stroke="hsl(183, 71%, 60%)" stroke-width="1.65"  transform="translate(93.2 19.8) rotate(2.8) scale(1.04 1.55)" />
<rect x="49.7" y="6.4" width="32.2" height="40.0" rx="7.4" fill="hsl(290, 83%, 63%)" fill-opacity="0.89"    />
<rect x="28.1" y="10.7" width="20.7" height="23.3" rx="0" fill="none" fill-opacity="0.92"   transform="translate(62.4 85.2) rotate(264.4) scale(1.55 1.49)" />
<path d="M 64.5 58.4 C 58.3 53.7, 74.9 0.0, 62.2 11.2 C 64.5 22.2, 34.9 73.1, 28.6 63.3 C 10.5 47.7, 37.5 28.5, 25.6 34.8 C 29.1 30.3, 8.9 54.4, 0.8 55.5 C 0.0 54.6, 14.1 96.6, 17.1 90.7 C 20.8 78.3, 96.4 80.0, 85.6 91.6 C 100.0 80.0, 81.5 93.2, 69.0 88.3 C 79.0 72.9, 60.4 74.0, 73.1 67.8 C 62.9 49.5, 44.6 43.1, 30.2 36.9 Z" fill="hsl(242, 72%, 49%)" fill-opacity="0.99" stroke="none" stroke-width="4.95"  transform="translate(92.0 11.2) rotate(317.9) scale(1.69 0.57)" />
<path d="M 75.6 4.1 C 86.5 0.7, 84.5 24.9, 77.5 24.9 C 64.8 29.6, 0.0 33.9, 2.3 41.1 C 2.2 57.7, 6.2 0.0, 19.7 11.6 C 13.0 8.2, 86.5 55.1, 91.2 54.4 C 85.0 66.4, 25.1 100.0, 29.4 98.8 C 25.1 100.0, 80.6 77.2, 86.7 88.2 C 96.5 89.0, 15.6 38.4, 7.7 29.6 C 21.4 11.8, 86.6 84.6, 82.7 98.8 C 94.0 100.0, 56.2 66.6, 44.4 62.6 " fill="none" fill-opacity="0.88" stroke="hsl(242, 72%, 49%)" stroke-width="2.22"  transform="translate(19.6 40.0) rotate(342.7) scale(1.95 0.72)" />
<path d="M 80.8 26.5 C 84.7 35.6, 58.5 70.2, 70.9 64.4 C 50.9 67.1, 34.5 0.0, 41.5 2.2 C 45.3 0.0, 62.3 16.0, 48.0 19.9 C 31.0 16.6, 63.4 97.4, 76.1 95.7 C 65.6 89.0, 72.7 100.0, 82.2 92.8 C 82.0 100.0, 59.7 84.7, 60.3 96.4 " fill="none" fill-opacity="0.62" stroke="hsl(151, 70%, 62%)" stroke-width="0.87"  transform="translate(35.8 76.1) rotate(141.8) scale(0.82 0.84)" />
<path d="M 49.4 2.9 C 49.0 4.1, 57.9 24.0, 63.1 16.8 C 67.1 22.8, 19.3 73.0, 22.0 78.0 C 4.8 87.7, 28.4 84.5, 42.0 83.3 C 42.0 93.4, 49.0 27.1, 41.2 20.1 C 49.9 11.5, 75.1 36.9, 80.4 43.9 C 62.1 57.4, 71.6 71.8, 79.0 59.6 C 63.3 56.4, 60.8 2.7, 61.5 4.7 C 77.5 22.9, 59.5 50.3, 55.8 39.8 C 70.3 24.2, 100.0 1.4, 92.8 11.9 C 94.6 19.0, 29.9 14.4, 20.6 12.8 Z" fill="hsl(144, 86%, 72%)" fill-opacity="0.28" stroke="none" stroke-width="1.14"  transform="translate(17.0 38.6) rotate(21.6) scale(1.92 0.51)" />
<rect x="40.3" y="52.4" width="42.2" height="27.7" rx="3.3" fill="hsl(86, 72%, 68%)" fill-opacity="0.23"  filter="url(#f1)" transform="translate(73.2 49.3) rotate(65.4) scale(1.98 0.60)" />
<rect x="16.5" y="3.0" width="30.3" height="36.8" rx="0" fill="none" fill-opacity="0.83"   transform="translate(80.3 30.2) rotate(0.2) scale(1.80 1.66)" />
<rect x="12.6" y="35.3" width="24.7" height="37.4" rx="0" fill="hsl(40, 53%, 69%)" fill-opacity="0.47" stroke="hsl(40, 53%, 69%)" stroke-width="1.8"  transform="translate(1.8 3.6) rotate(191.6) scale(1.29 1.89)" />
<path d="M 13.0 62.8 C 0.0 75.8, 0.0 48.7, 0.2 35.6 C 0.0 35.6, 69.1 64.8, 83.1 73.0 C 95.6 87.8, 4.7 74.5, 18.0 78.8 C 1.3 86.2, 93.1 69.7, 90.1 71.6 C 76.0 56.6, 100.0 38.6, 97.4 35.9 C 100.0 22.5, 32.1 13.9, 18.1 11.8 C 19.4 27.1, 46.9 94.6, 47.4 93.9 C 56.1 79.4, 8.8 30.1, 17.9 43.2 C 29.5 56.9, 12.6 79.4, 14.1 81.2 C 2.8 72.4, 3.2 46.8, 5.4 47.4 Z" fill="none" fill-opacity="0.51" stroke="hsl(2, 82%, 55%)" stroke-width="2.07" filter="url(#f1)" transform="translate(57.2 17.5) rotate(285.6) scale(1.59 1.72)" />
<path d="M 5.0 50.1 C 2.7 36.6, 91.5 71.1, 84.3 80.1 C 64.8 71.8, 65.2 39.9, 58.9 49.2 C 59.3 41.0, 27.7 39.9, 16.1 35.0 C 3.9 33.8, 15.7 15.6, 22.9 29.8 C 5.3 24.5, 88.9 99.0, 81.5 90.8 C 71.1 80.5, 70.1 74.9, 72.8 73.6 Z" fill="none" fill-opacity="0.47" stroke="hsl(290, 83%, 63%)" stroke-width="4.87"  transform="translate(6.2 48.3) rotate(315.3) scale(1.41 0.92)" />
<rect x="28.0" y="51.5" width="43.6" height="16.4" rx="0" fill="hsl(322, 74%, 44%)" fill-opacity="0.83"  filter="url(#f1)" transform="translate(75.6 56.4) rotate(349.3) scale(1.05 1.92)" />
<circle cx="65.7" cy="29.6" r="5.2" fill="hsl(2, 82%, 55%)" fill-opacity="0.94"  transform="translate(93.5 10.4) rotate(342.2) scale(1.79 0.55)" />
<path d="M 73.0 79.0 C 64.1 85.3, 100.0 80.6, 88.6 76.8 C 95.1 92.9, 88.7 81.5, 94.0 87.7 C 100.0 71.0, 22.2 70.7, 7.2 73.5 C 19.2 55.4, 87.3 37.8, 74.6 50.9 C 79.2 54.7, 15.8 70.6, 28.1 60.3 C 27.1 69.7, 84.5 0.1, 78.0 6.0 C 82.3 12.5, 64.3 68.9, 67.9 59.5 Z" fill="hsl(40, 53%, 69%)" fill-opacity="0.69" stroke="none" stroke-width="3.52"  transform="translate(79.9 0.1) rotate(275.5) scale(0.84 0.69)" />
<rect x="49.8" y="5.3" width="20.7" height="17.1" rx="0" fill="none" fill-opacity="0.68" stroke="hsl(104, 72%, 65%)" stroke-width="4.4"  transform="translate(80.2 59.7) rotate(236.2) scale(1.25 0.51)" />
<path d="M 98.6 51.9 C 96.2 46.7, 28.5 69.3, 21.3 57.6 C 16.6 68.3, 93.6 79.6, 83.8 94.4 C 100.0 93.5, 77.5 25.3, 78.6 32.5 C 95.0 30.9, 61.5 72.7, 68.6 72.1 C 76.7 84.8, 100.0 82.5, 98.6 87.0 C 98.3 74.9, 30.7 17.9, 38.0 3.4 C 50.4 2.6, 40.0 89.7, 40.8 90.9 C 52.6 84.1, 1.6 31.4, 9.8 21.4 C 29.5 14.4, 58.0 100.0, 59.4 97.8 Z" fill="hsl(2, 82%, 55%)" fill-opacity="0.62" stroke="none" stroke-width="0.86"  transform="translate(80.1 62.6) rotate(8.4) scale(0.81 1.26)" />
<path d="M 17.2 55.4 C 37.0 75.1, 64.5 23.2, 49.6 18.8 C 43.5 4.7, 50.2 28.7, 39.4 33.1 C 46.3 45.0, 24.4 55.2, 29.7 58.3 C 26.5 67.6, 65.3 82.2, 57.5 68.8 C 76.7 88.6, 15.8 29.8, 27.2 41.7 C 9.6 31.2, 86.6 55.0, 88.6 41.8 C 73.2 43.4, 53.5 100.0, 40.2 96.2 C 35.3 77.6, 40.9 35.7, 47.3 21.9 C 62.0 34.9, 22.6 80.4, 15.8 72.6 Z" fill="hsl(322, 74%, 44%)" fill-opacity="0.71" stroke="none" stroke-width="3.60" filter="url(#f1)" transform="translate(61.1 33.7) rotate(199.8) scale(0.64 1.94)" />
<circle cx="49.2" cy="75.6" r="10.6" fill="url(#g1)" fill-opacity="0.55"  transform="translate(38.0 38.4) rotate(156.4) scale(0.77 1.06)" />
<path d="M 56.3 89.7 C 52.3 90.8, 80.7 0.0, 84.6 8.3 C 67.8 0.0, 46.3 70.2, 45.7 62.4 C 53.0 44.8, 76.5 37.8, 63.0 47.4 C 46.6 45.5, 80.8 17.6, 66.9 12.2 C 51.6 4.8, 64.7 76.8, 76.8 90.0 C 65.3 87.5, 52.5 38.6, 45.2 42.0 Z" fill="hsl(242, 72%, 49%)" fill-opacity="0.99" stroke="none" stroke-width="1.58"  transform="translate(65.9 97.6) rotate(289.4) scale(1.70 0.71)" />
<path d="M 34.0 95.2 C 19.2 81.4, 59.3 0.0, 49.8 0.3 C 60.0 7.8, 73.4 38.9, 66.7 40.0 C 82.8 55.6, 71.9 10.2, 62.6 22.1 C 46.5 17.6, 65.5 14.2, 76.4 24.5 C 72.0 17.3, 13.0 19.7, 1.8 21.7 C 0.0 13.3, 0.0 61.4, 8.1 65.4 C 3.5 61.7, 28.5 74.1, 31.6 67.6 C 18.6 66.7, 85.4 64.9, 74.5 73.9 Z" fill="hsl(2, 82%, 55%)" fill-opacity="0.96" stroke="none" stroke-width="4.48"   />
<path d="M 12.2 72.2 C 4.3 57.6, 53.7 26.3, 41.4 19.2 C 41.0 32.2, 35.4 83.4, 26.2 78.3 C 7.0 91.7, 99.5 87.7, 99.9 88.4 C 80.5 93.2, 77.8 27.5, 69.6 42.5 C 74.4 38.0, 90.1 34.7, 81.3 25.4 C 92.8 37.5, 94.1 76.0, 92.4 72.0 Z" fill="hsl(151, 70%, 62%)" fill-opacity="0.35" stroke="none" stroke-width="4.95"  transform="translate(52.1 89.7) rotate(324.6) scale(1.34 1.54)" />
<circle cx="77.5" cy="89.8" r="16.0" fill="hsl(83, 65%, 44%)" fill-opacity="0.80"  transform="translate(14.9 21.1) rotate(276.7) scale(1.51 1.39)" />
<circle cx="81.6" cy="18.2" r="13.4" fill="url(#g1)" fill-opacity="0.57"  transform="translate(2.3 45.6) rotate(316.5) scale(1.68 1.14)" />
<path d="M 36.8 27.4 C 24.0 38.3, 32.5 33.1, 18.6 25.9 C 0.0 13.7, 57.0 57.2, 51.0 44.0 C 64.1 34.5, 32.9 66.5, 39.5 59.7 C 32.4 70.4, 54.9 90.1, 49.6 96.2 C 29.8 92.1, 23.2 5.6, 30.7 10.9 C 42.3 0.0, 11.4 87.4, 22.6 88.4 C 27.1 71.1, 19.1 66.6, 24.3 57.5 C 43.6 57.4, 17.1 89.9, 13.2 99.6 Z" fill="none" fill-opacity="0.64" stroke="hsl(144, 86%, 72%)" stroke-width="2.96"  transform="translate(93.8 29.2) rotate(186.4) scale(0.63 1.72)" />
<path d="M 69.8 10.6 C 68.7 3.2, 80.0 46.0, 69.3 60.4 C 66.7 48.9, 51.6 67.1, 49.4 81.9 C 42.6 94.5, 67.2 100.0, 55.0 97.1 C 46.9 90.4, 38.7 61.5, 25.1 64.7 C 37.3 80.1, 92.0 5.6, 87.5 19.5 C 85.4 15.7, 3.9 57.5, 15.5 67.5 C 3.0 82.7, 34.1 54.9, 33.0 62.4 Z" fill="none" fill-opacity="0.61" stroke="hsl(183, 71%, 60%)" stroke-width="0.81" filter="url(#f1)" transform="translate(36.5 7.3) rotate(9.9) scale(0.85 0.92)" />
<path d="M 12.8 61.1 C 10.1 46.6, 7.1 10.4, 15.2 18.9 C 23.4 7.6, 34.8 0.0, 30.1 0.3 C 17.1 0.0, 19.4 67.9, 29.9 64.1 C 33.1 57.2, 80.6 100.0, 67.7 98.6 C 67.3 100.0, 33.3 26.0, 41.4 34.9 C 53.8 50.2, 49.6 45.7, 51.9 44.9 C 53.2 59.5, 52.0 12.4, 61.9 20.6 C 55.2 3.2, 67.7 0.0, 59.1 3.3 Z" fill="none" fill-opacity="0.96" stroke="hsl(104, 72%, 65%)" stroke-width="2.44"  transform="translate(34.1 4.3) rotate(41.1) scale(1.36 0.66)" />
<path d="M 29.8 41.2 C 24.9 50.4, 33.4 73.9, 43.8 65.3 C 55.6 62.8, 5.9 8.7, 8.1 0.3 C 0.9 0.0, 25.1 42.7, 37.8 46.1 C 26.0 27.0, 6.3 62.8, 5.6 54.1 C 0.0 68.4, 100.0 21.6, 95.3 18.2 C 100.0 26.4, 99.8 55.4, 95.6 69.5 C 95.4 86.9, 19.5 22.6, 34.2 19.7 C 46.9 27.5, 29.4 80.2, 22.4 74.3 Z" fill="none" fill-opacity="0.83" stroke="hsl(83, 65%, 44%)" stroke-width="3.76"   />
<path d="M 60.4 34.7 C 50.5 53.2, 83.8 19.8, 92.0 7.0 C 75.3 0.0, 78.6 11.1, 83.8 18.4 C 65.2 5.5, 56.7 41.0, 65.4 41.9 C 73.5 52.1, 47.2 6.4, 55.6 5.5 C 47.7 16.4, 97.2 52.4, 98.5 39.3 C 100.0 34.8, 69.0 71.9, 59.1 76.8 C 66.2 73.7, 61.9 0.0, 60.7 9.3 C 72.9 22.3, 11.2 43.4, 15.2 50.5 Z" fill="hsl(322, 74%, 44%)" fill-opacity="0.61" stroke="none" stroke-width="4.82"  transform="translate(96.5 6.0) rotate(246.0) scale(1.25 1.58)" />
<path d="M 13.6 40.2 C 21.8 49.2, 70.8 15.3, 76.6 30.3 C 94.8 29.1, 85.8 35.0, 75.0 31.4 C 92.0 43.0, 6.8 49.9, 19.0 52.1 C 3.4 39.8, 75.0 78.9, 81.4 67.8 C 92.4 73.9, 19.4 47.5, 4.5 56.4 C 14.7 57.3, 27.3 42.0, 41.7 33.9 C 60.2 25.3, 96.0 96.0, 91.8 89.9 Z" fill="hsl(83, 65%, 44%)" fill-opacity="0.87" stroke="none" stroke-width="3.24"  transform="translate(58.0 51.7) rotate(11.7) scale(0.57 1.12)" />
<circle cx="6.7" cy="89.0" r="4.2" fill="url(#g1)" fill-opacity="0.49" filter="url(#f1)" transform="translate(77.2 92.9) rotate(5.0) scale(1.32 1.81)" />
<g opacity="0.031">
<rect x="0" y="0" width="1" height="100" fill="black" />
<rect x="22" y="0" width="1" height="100" fill="black" />
<rect x="44" y="0" width="1" height="100" fill="black" />
<rect x="66" y="0" width="1" height="100" fill="black" />
<rect x="88" y="0" width="1" height="100" fill="black" />
<rect x="0" y="0" width="100" height="1" fill="black" />
<rect x="0" y="22" width="100" height="1" fill="black" />
<rect x="0" y="44" width="100" height="1" fill="black" />
<rect x="0" y="66" width="100" height="1" fill="black" />
<rect x="0" y="88" width="100" height="1" fill="black" />
</g>

</svg>
