<?xml version="1.0" encoding="UTF-8"?>
<svg xmlns="http://www.w3.org/2000/svg" width="100" height="100" viewBox="0 0 100 100">
<defs>
<linearGradient id="g0" x1="0%" y1="0%" x2="100%" y2="100%">
<stop offset="0.0%" stop-color="hsl(106, 75%, 59%)" />
<stop offset="33.3%" stop-color="hsl(183, 71%, 60%)" />
<stop offset="66.7%" stop-color="hsl(242, 72%, 49%)" />
<stop offset="100.0%" stop-color="hsl(322, 74%, 44%)" />
</linearGradient>
<linearGradient id="g1" x1="0%" y1="0%" x2="100%" y2="100%">
<stop offset="0.0%" stop-color="hsl(290, 83%, 63%)" />
<stop offset="33.3%" stop-color="hsl(2, 82%, 55%)" />
<stop offset="66.7%" stop-color="hsl(86, 72%, 68%)" />
<stop offset="100.0%" stop-color="hsl(83, 65%, 44%)" />
</linearGradient>
<linearGradient id="g2" x1="0%" y1="0%" x2="100%" y2="100%">
<stop offset="0.0%" stop-color="hsl(40, 53%, 69%)" />
<stop offset="33.3%" stop-color="hsl(104, 72%, 65%)" />
<stop offset="66.7%" stop-color="hsl(144, 86%, 72%)" />
<stop offset="100.0%" stop-color="hsl(151, 70%, 62%)" />
</linearGradient>
<filter id="f1" x="-20%" y="-20%" width="140%" height="140%">
  <feGaussianBlur stdDeviation="1.218278799834891" />
</filter>

</defs>

<path d="M 79.8 50.0 C 96.8 52.4, 31.3 19.2, 43.0 13.1 C 38.5 0.0, 75.5 86.2, 68.2 93.7 C 88.1 91.6, 95.2 60.8, 82.5 49.9 C 84.0 63.2, 61.6 65.6, 62.4 61.2 C 52.9 76.9, 0.0 62.2, 0.1 47.5 C 0.0 39.3, 47.8 76.0, 54.3 87.0 Z" fill="hsl(242, 72%, 49%)" fill-opacity="0.90" stroke="none" stroke-width="3.77"   />
<path d="M 66.9 93.1 C 72.2 100.0, 36.3 63.0, 38.5 53.1 C 40.5 53.8, 97.7 75.0, 91.1 69.1 C 100.0 85.6, 72.8 45.9, 68.5 49.3 C 57.0 48.0, 16.2 13.1, 17.8 22.5 C 34.7 18.0, 38.1 22.8, 50.7 8.9 C 68.1 11.7, 24.5 28.3, 11.7 38.9 C 0.0 38.3, 14.3 17.8, 12.2 14.3 C 9.8 28.6, 96.0 68.1, 85.3 75.1 C 87.1 57.9, 23.2 80.4, 12.2 76.1 Z" fill="none" fill-opacity="0.88" stroke="hsl(83, 65%, 44%)" stroke-width="2.64"  transform="translate(74.8 80.5) rotate(191.6) scale(0.87 1.47)" />
<path d="M 75.8 68.5 C 67.3 57.4, 47.7 28.2, 58.6 27.1 C 48.6 13.2, 52.1 44.1, 48.6 52.6 C 38.7 72.6, 88.2 23.7, 93.6 19.4 C 100.0 14.1, 52.4 34.2, 51.1 23.9 C 33.3 27.4, 49.8 27.8, 51.3 22.5 C 38.4 27.6, 57.8 22.9, 53.0 28.6 C 56.5 40.3, 48.0 59.1, 53.4 46.2 Z" fill="hsl(242, 72%, 49%)" fill-opacity="0.65" stroke="none" stroke-width="2.22"   />
<path d="M 98.6 47.1 C 95.6 31.4, 78.2 11.7, 79.9 19.9 C 68.6 15.8, 46.0 48.7, 51.5 39.0 C 50.9 31.8, 51.8 47.8, 66.0 39.5 C 75.1 48.0, 4.9 58.7, 14.0 66.7 C 27.8 74.2, 78.7 83.7, 75.4 70.1 C 94.4 66.8, 38.9 25.4, 37.0 33.4 Z" fill="hsl(151, 70%, 62%)" fill-opacity="0.68" stroke="none" stroke-width="4.96" filter="url(#f1)" transform="translate(10.2 25.6) rotate(301.3) scale(0.57 1.85)" />
<path d="M 72.8 14.0 C 63.2 12.6, 81.5 68.7, 89.4 68.8 C 100.0 75.1, 33.4 26.6, 21.9 17.1 C 20.4 23.8, 43.7 89.3, 43.0 90.4 C 26.9 100.0, 71.0 57.0, 74.5 54.6 C 60.7 51.2, 0.0 0.0, 2.0 0.4 C 10.1 0.6, 38.3 48.5, 51.5 45.1 " fill="hsl(151, 70%, 62%)" fill-opacity="0.81" stroke="none" stroke-width="0.97"  transform="translate(52.6 0.7) rotate(119.6) scale(1.49 1.12)" />
<path d="M 41.1 64.9 C 56.7 62.4, 100.0 73.6, 99.8 84.7 C 100.0 100.0, 73.6 12.2, 78.2 17.5 C 79.2 27.7, 67.3 15.9, 62.9 13.6 C 80.2 6.7, 37.5 51.7, 36.3 42.2 C 43.9 35.2, 85.6 68.3, 81.3 62.2 C 66.0 73.9, 80.6 1.2, 66.6 9.8 C 61.9 0.0, 13.7 27.5, 28.4 28.5 Z" fill="hsl(106, 75%, 59%)" fill-opacity="0.93" stroke="none" stroke-width="3.71"  transform="translate(52.3 77.1) rotate(326.0) scale(1.01 0.65)" />
<path d="M 93.2 98.1 C 73.5 87.3, 0.0 36.1, 0.3 30.7 C 12.0 17.1, 94.0 67.2, 86.7 74.1 C 87.9 57.4, 24.6 43.6, 20.3 47.7 C 4.1 55.8, 56.6 0.0, 59.9 0.9 C 40.2 20.1, 83.5 29.5, 81.4 23.5 C 76.6 4.8, 65.5 13.4, 50.8 18.6 Z" fill="hsl(106, 75%, 59%)" fill-opacity="0.55" stroke="none" stroke-width="5.19"  transform="translate(93.5 82.2) rotate(171.8) scale(1.43 1.66)" />
<rect x="61.5" y="34.5" width="27.4" height="38.8" rx="0" fill="none" fill-opacity="0.59" stroke="hsl(2, 82%, 55%)" stroke-width="2.5"  transform="translate(17.1 99.3) rotate(298.2) scale(0.98 0.63)" />
<path d="M 27.4 11.9 C 23.0 15.7, 14.9 16.0, 4.8 14.4 C 0.0 33.6, 93.9 80.6, 82.9 91.2 C 89.3 78.2, 80.8 68.4, 67.9 80.6 C 53.1 89.6, 74.8 81.9, 89.6 91.3 C 96.5 78.8, 48.4 21.8, 50.9 15.9 C 64.9 0.1, 5.1 48.5, 16.7 43.5 C 22.1 50.2, 12.6 30.6, 2.7 38.4 Z" fill="hsl(242, 72%, 49%)" fill-opacity="0.72" stroke="none" stroke-width="2.33"  transform="translate(70.7 80.9) rotate(176.6) scale(1.38 1.89)" />
<path d="M 50.1 49.1 C 34.7 56.3, 30.7 63.8, 37.6 58.7 C 44.3 55.3, 41.3 68.5, 50.3 75.8 C 46.5 72.4, 57.4 18.0, 67.0 27.3 C 77.6 28.1, 94.1 39.3, 86.1 54.1 C 93.1 70.2, 40.4 30.8, 51.2 24.0 C 48.5 34.4, 87.9 41.1, 98.1 34.1 C 100.0 52.8, 81.8 0.0, 68.6 4.1 Z" fill="hsl(183, 71%, 60%)" fill-opacity="0.73" stroke="none" stroke-width="2.61"  transform="translate(56.0 49.2) rotate(228.8) scale(1.90 1.67)" />
<rect x="55.4" y="57.9" width="20.9" height="36.9" rx="0" fill="hsl(290, 83%, 63%)" fill-opacity="0.99"   transform="translate(45.1 31.0) rotate(215.8) scale(1.78 1.78)" />
<path d="M 82.8 2.5 C 75.2 19.4, 22.4 70.2, 16.0 75.4 C 2.7 80.1, 89.2 45.7, 87.0 35.5 C 68.0 31.3, 9.6 92.6, 22.4 88.0 C 34.2 84.3, 44.7 46.6, 42.2 35.7 C 43.2 21.3, 16.6 89.4, 13.7 86.2 C 12.6 95.1, 17.2 29.9, 21.4 32.7 C 7.7 46.8, 26.8 82.2, 23.2 74.9 Z" fill="hsl(83, 65%, 44%)" fill-opacity="0.97" stroke="none" stroke-width="2.18"  transform="translate(11.5 79.6) rotate(109.2) scale(1.48 0.82)" />
<path d="M 22.5 55.0 C 21.4 62.6, 2.7 100.0, 6.7 96.6 C 6.3 79.7, 77.2 16.8, 87.9 17.8 C 79.2 10.5, 41.3 71.3, 42.3 63.8 C 58.1 80.0, 0.0 67.3, 0.3 62.1 C 0.0 68.5, 69.9 76.3, 77.2 83.5 C 87.7 77.6, 37.1 92.9, 29.0 94.2 Z" fill="hsl(144, 86%, 72%)" fill-opacity="0.65" stroke="none" stroke-width="0.89" filter="url(#f1)" transform="translate(94.0 7.4) rotate(139.9) scale(1.94 1.81)" />
<rect x="63.9" y="56.8" width="23.1" height="10.4" rx="12.4" fill="none" fill-opacity="0.49"   transform="translate(88.6 19.3) rotate(66.3) scale(1.01 1.63)" />
<rect x="68.7" y="55.7" width="27.1" height="36.1" rx="6.2" fill="hsl(183, 71%, 60%)" fill-opacity="0.37"   transform="translate(74.8 13.1) rotate(308.7) scale(1.27 1.96)" />
<path d="M 61.1 31.9 C 45.7 44.5, 91.9 5.9, 88.5 4.0 C 71.5 0.0, 16.3 32.4, 25.6 33.3 C 9.3 47.0, 46.1 52.2, 46.4 51.5 C 65.1 48.9, 11.1 13.1, 17.9 1.4 C 26.7 2.3, 91.8 61.2, 94.9 58.6 C 75.1 46.5, 7.5 21.4, 16.3 14.5 C 34.1 9.0, 56.8 69.8, 62.1 55.8 C 79.9 68.8, 0.0 51.6, 1.6 52.4 Z" fill="none" fill-opacity="0.87" stroke="hsl(40, 53%, 69%)" stroke-width="2.40"  transform="translate(17.5 31.6) rotate(312.3) scale(1.18 0.62)" />
<path d="M 14.3 11.8 C 23.3 7.3, 91.8 27.6, 94.5 38.1 C 76.1 35.0, 56.9 24.7, 46.6 38.6 C 55.6 21.7, 79.3 17.2, 93.8 29.9 C 89.8 29.6, 88.8 66.0, 85.4 61.2 C 76.2 61.0, 22.9 46.3, 24.3 40.7 C 40.9 50.2, 59.1 67.2, 65.7 78.9 " fill="hsl(290, 83%, 63%)" fill-opacity="0.95" stroke="none" stroke-width="4.07"  transform="translate(90.8 73.4) rotate(146.5) scale(1.95 1.28)" />
<path d="M 89.8 84.9 C 100.0 96.8, 28.1 19.3, 39.5 33.0 C 56.8 37.1, 45.0 28.7, 33.8 38.7 C 44.2 47.6, 29.7 35.2, 23.8 40.4 C 10.8 30.8, 3.7 78.0, 3.5 89.6 C 0.0 88.8, 23.7 14.8, 26.7 27.9 C 40.9 26.4, 97.8 24.5, 86.7 33.7 C 98.2 51.8, 78.7 83.2, 89.0 95.5 C 71.0 100.0, 78.2 78.1, 76.9 85.1 C 81.3 76.5, 34.2 20.0, 43.5 10.3 Z" fill="hsl(104, 72%, 65%)" fill-opacity="0.42" stroke="none" stroke-width="3.31"  transform="translate(99.6 61.6) rotate(140.7) scale(0.87 1.86)" />
<path d="M 89.9 68.2 C 99.5 76.3, 22.0 67.4, 25.1 57.4 C 21.1 38.6, 45.0 100.0, 55.0 98.3 C 55.4 100.0, 80.1 28.0, 94.8 33.3 C 100.0 22.1, 28.8 7.8, 33.5 21.9 C 13.6 25.5, 60.7 28.5, 47.1 31.5 C 43.6 50.6, 100.0 90.3, 99.9 99.5 C 100.0 100.0, 95.3 8.2, 87.0 16.9 Z" fill="hsl(83, 65%, 44%)" fill-opacity="0.86" stroke="none" stroke-width="2.81" filter="url(#f1)" transform="translate(42.6 87.0) rotate(42.3) scale(1.52 1.93)" />
<rect x="59.4" y="51.0" width="27.8" height="18.1" rx="0" fill="none" fill-opacity="0.83"    />
<circle cx="98.1" cy="63.8" r="8.0" fill="url(#g0)" fill-opacity="0.88"  transform="translate(45.7 81.8) rotate(328.9) scale(1.67 1.17)" />
<path d="M 77.1 23.1 C 88.2 20.8, 60.3 69.1, 65.2 72.1 C 56.5 57.6, 92.1 100.0, 93.4 98.2 C 99.5 80.3, 73.8 19.1, 87.0 17.5 C 90.9 6.0, 20.3 81.2, 6.1 75.1 C 0.0 72.5, 74.4 79.9, 67.0 86.5 C 53.7 100.0, 59.3 44.6, 63.3 45.4 C 82.4 29.2, 1.4 87.7, 15.1 75.2 " fill="none" fill-opacity="0.34" stroke="hsl(2, 82%, 55%)" stroke-width="1.62" filter="url(#f1)" transform="translate(64.6 62.9) rotate(29.6) scale(1.88 1.39)" />
<circle cx="98.4" cy="8.8" r="2.1" fill="hsl(40, 53%, 69%)" fill-opacity="0.77"  transform="translate(54.1 53.0) rotate(171.1) scale(1.22 1.08)" />
<path d="M 5.4 63.2 C 11.9 47.4, 21.8 67.3, 34.2 57.1 C 14.6 40.3, 98.0 14.3, 94.3 6.7 C 79.3 24.0, 93.4 87.4, 94.4 75.5 C 99.8 65.4, 74.1 77.3, 73.9 69.5 C 67.3 61.7, 84.6 96.8, 75.3 93.6 C 74.5 100.0, 67.5 30.0, 60.0 23.5 C 47.3 11.4, 32.0 29.5, 31.3 16.9 C 50.3 0.6, 38.0 3.5, 29.9 8.4 Z" fill="hsl(322, 74%, 44%)" fill-opacity="0.55" stroke="none" stroke-width="5.06"  transform="translate(71.4 36.0) rotate(83.3) scale(1.57 1.55)" />
<circle cx="6.3" cy="70.1" r="0.7" fill="url(#g1)" fill-opacity="0.89"  transform="translate(70.5 58.6) rotate(154.9) scale(1.19 1.85)" />
<rect x="17.5" y="62.0" width="44.4" height="35.9" rx="5.0" fill="hsl(322, 74%, 44%)" fill-opacity="0.64" stroke="hsl(242, 72%, 49%)" stroke-width="4.4"  transform="translate(48.7 4.7) rotate(15.0) scale(1.92 0.94)" />
<circle cx="3.3" cy="29.6" r="0.6" fill="url(#g2)" fill-opacity="0.96"  transform="translate(80.2 36.4) rotate(59.9) scale(1.52 0.75)" />
<path d="M 38.5 90.4 C 28.6 100.0, 28.1 90.4, 19.2 84.1 C 13.9 81.7, 91.9 82.3, 94.5 85.9 C 95.7 100.0, 41.1 28.0, 35.7 24.5 C 29.7 40.3, 11.4 3.4, 17.1 4.2 C 10.1 0.0, 33.9 49.4, 48.5 52.8 C 65.6 36.0, 96.9 46.2, 93.9 45.1 Z" fill="hsl(322, 74%, 44%)" fill-opacity="0.78" stroke="none" stroke-width="4.64" filter="url(#f1)"  />
<path d="M 61.6 77.2 C 73.1 62.7, 31.7 71.6, 35.0 74.1 C 52.6 67.7, 71.0 84.4, 71.8 97.2 C 69.7 82.7, 18.8 23.0, 8.6 11.2 C 11.5 0.0, 56.0 78.8, 64.9 92.0 C 66.7 93.9, 17.0 76.9, 8.9 73.7 C 0.0 71.2, 97.2 0.0, 92.4 4.8 Z" fill="hsl(322, 74%, 44%)" fill-opacity="0.48" stroke="none" stroke-width="4.66"  transform="translate(47.6 35.8) rotate(60.1) scale(0.55 1.85)" />
<rect x="24.8" y="29.5" width="49.5" height="12.2" rx="0.2" fill="hsl(242, 72%, 49%)" fill-opacity="0.25" stroke="hsl(322, 74%, 44%)" stroke-width="3.3"  transform="translate(62.9 18.3) rotate(25.9) scale(1.05 1.39)" />
<path d="M 47.8 81.8 C 32.6 78.4, 46.3 0.4, 32.5 14.3 C 33.6 32.8, 84.8 83.0, 71.4 73.6 C 64.3 64.6, 44.5 92.0, 31.0 77.9 C 17.0 79.0, 56.1 90.0, 43.2 79.9 C 32.7 92.3, 95.2 61.1, 84.1 72.7 C 94.3 61.1, 52.8 46.9, 67.0 34.4 C 66.4 36.9, 88.1 9.5, 86.0 7.3 C 87.6 8.9, 55.8 8.0, 43.5 11.3 Z" fill="hsl(106, 75%, 59%)" fill-opacity="0.85" stroke="none" stroke-width="1.63"  transform="translate(11.1 22.5) rotate(59.0) scale(1.19 0.72)" />
<path d="M 20.2 19.3 C 27.9 30.2, 12.7 75.2, 1.4 79.7 C 13.3 71.8, 75.8 75.8, 82.8 77.4 C 94.1 72.5, 27.0 6.6, 28.0 2.9 C 38.5 1.1, 83.1 75.3, 86.5 89.2 C 98.1 77.4, 51.2 29.2, 42.7 39.2 C 49.9 39.5, 26.7 73.3, 35.2 58.3 C 36.0 56.4, 65.9 49.6, 75.5 63.9 C 71.4 47.8, 35.5 75.1, 46.3 78.6 C 63.8 90.6, 31.8 1.3, 20.1 4.8 Z" fill="hsl(104, 72%, 65%)" fill-opacity="0.35" stroke="none" stroke-width="1.39"  transform="translate(8.5 75.7) rotate(194.2) scale(0.67 1.02)" />
<rect x="46.4" y="32.5" width="41.3" height="37.6" rx="0" fill="none" fill-opacity="0.61"   transform="translate(38.4 17.5) rotate(278.1) scale(0.70 1.16)" />
<path d="M 7.7 64.4 C 17.9 65.3, 97.3 45.2, 84.3 37.4 C 96.3 20.4, 36.1 65.8, 34.5 77.3 C 38.5 92.0, 67.0 56.7, 77.3 56.9 C 76.5 69.4, 77.2 61.4, 86.7 57.3 C 67.8 53.2, 74.6 37.1, 62.4 26.4 C 75.6 22.2, 96.0 39.6, 96.2 33.0 C 88.4 51.6, 43.8 98.4, 47.0 98.1 Z" fill="hsl(183, 71%, 60%)" fill-opacity="0.78" stroke="none" stroke-width="4.92"  transform="translate(89.2 22.2) rotate(55.0) scale(1.87 1.25)" />
<path d="M 42.4 16.3 C 22.9 33.7, 77.2 56.6, 85.0 58.5 C 84.1 72.8, 64.7 96.8, 65.6 92.9 C 79.1 100.0, 48.7 100.0, 62.2 87.0 C 49.2 71.0, 66.6 14.7, 61.1 27.0 C 47.8 23.7, 93.7 2.7, 83.1 0.8 C 88.0 0.0, 59.8 100.0, 51.4 99.6 C 64.6 100.0, 3.6 73.9, 3.8 74.9 Z" fill="hsl(104, 72%, 65%)" fill-opacity="0.38" stroke="none" stroke-width="2.56"  transform="translate(5.2 33.7) rotate(288.7) scale(0.63 1.21)" />
<path d="M 60.8 12.0 C 78.6 0.0, 3.2 93.4, 13.7 81.4 C 0.0 88.2, 64.1 0.0, 75.3 0.3 C 71.0 0.0, 51.4 75.6, 39.4 71.2 C 38.4 58.5, 36.0 54.3, 21.6 63.9 C 30.2 48.0, 95.2 84.3, 84.7 83.2 C 77.4 68.4, 80.6 78.0, 68.3 89.9 C 87.6 100.0, 52.8 81.1, 43.1 69.8 C 58.4 68.5, 38.1 0.0, 47.1 11.0 C 58.0 22.2, 7.3 83.2, 14.2 91.1 C 7.3 100.0, 24.6 46.2, 19.8 32.0 Z" fill="none" fill-opacity="0.48" stroke="hsl(106, 75%, 59%)" stroke-width="4.72"  transform="translate(91.9 30.5) rotate(128.8) scale(0.89 0.56)" />
<path d="M 81.0 11.4 C 71.8 17.5, 100.0 65.4, 87.9 73.0 C 85.1 81.2, 38.2 0.0, 36.2 0.2 C 29.6 0.0, 68.2 32.2, 60.4 28.4 C 76.6 13.9, 54.3 77.5, 62.3 65.4 C 57.0 61.2, 7.9 70.2, 21.6 83.5 C 3.2 77.2, 47.4 9.9, 38.1 4.5 C 50.9 14.6, 95.6 53.2, 86.1 48.9 C 70.0 31.5, 16.1 19.1, 7.3 21.7 C 0.0 21.9, 95.5 9.4, 89.0 11.9 C 73.9 2.7, 39.9 93.8, 52.7 89.3 " fill="hsl(40, 53%, 69%)" fill-opacity="0.68" stroke="none" stroke-width="4.21"  transform="translate(32.5 77.3) rotate(332.2) scale(0.73 1.13)" />
<circle cx="59.5" cy="81.8" r="14.6" fill="url(#g2)" fill-opacity="0.74" filter="url(#f1)" transform="translate(58.1 75.7) rotate(23.0) scale(1.79 1.25)" />
<path d="M 68.5 59.9 C 85.0 62.4, 32.7 69.9, 37.5 61.7 C 35.1 71.5, 79.1 22.5, 68.5 36.7 C 69.7 32.3, 80.3 39.7, 86.5 37.4 C 94.6 25.7, 67.4 87.3, 67.8 81.9 C 56.8 84.0, 6.9 23.8, 15.4 25.1 C 0.0 28.5, 15.2 67.3, 25.3 66.3 C 16.3 66.0, 58.6 12.9, 59.9 9.5 C 43.2 25.9, 64.3 79.8, 78.1 70.9 C 81.7 57.8, 67.3 4.1, 72.4 6.9 C 64.1 26.9, 37.6 69.3, 23.5 80.4 Z" fill="none" fill-opacity="0.68" stroke="hsl(183, 71%, 60%)" stroke-width="4.32"   />
<path d="M 67.9 19.9 C 84.3 21.0, 100.0 87.0, 96.6 98.4 C 87.7 82.1, 64.8 8.7, 73.2 22.0 C 84.0 35.9, 59.9 37.9, 65.0 45.3 C 84.4 38.7, 35.0 47.0, 42.0 49.0 C 25.4 57.4, 25.4 99.4, 21.8 87.8 C 41.5 100.0, 0.0 45.5, 1.1 46.2 C 0.0 61.4, 70.9 13.0, 69.4 2.2 C 51.6 11.6, 14.8 96.7, 20.9 87.4 C 6.9 100.0, 53.1 100.0, 45.2 91.0 Z" fill="none" fill-opacity="0.39" stroke="hsl(83, 65%, 44%)" stroke-width="5.12"  transform="translate(17.3 20.8) rotate(337.1) scale(0.73 0.64)" />
<path d="M 6.6 96.9 C 0.0 100.0, 94.6 35.9, 92.9 33.2 C 100.0 27.6, 26.6 57.9, 40.1 58.2 C 37.6 43.3, 76.9 60.4, 61.9 68.5 C 66.3 53.1, 49.1 23.3, 63.1 25.1 C 73.5 9.2, 14.5 11.2, 8.9 1.1 C 15.7 0.0, 78.4 8.9, 79.5 17.5 C 95.8 0.0, 14.7 56.7, 18.5 57.1 Z" fill="hsl(104, 72%, 65%)" fill-opacity="0.78" stroke="none" stroke-width="3.19"  transform="translate(75.9 92.7) rotate(113.4) scale(1.89 1.39)" />
<path d="M 7.0 5.1 C 18.0 0.0, 45.5 85.3, 50.9 81.8 C 31.8 97.9, 52.0 70.3, 61.6 63.1 C 66.7 62.8, 85.8 8.6, 71.7 16.0 C 69.3 12.3, 39.1 16.8, 41.9 11.2 C 36.6 0.0, 78.3 31.9, 77.1 27.6 C 96.9 32.4, 17.7 64.1, 24.8 52.2 C 14.7 57.9, 51.5 41.3, 61.7 43.3 C 79.8 42.0, 17.0 18.5, 16.1 21.9 Z" fill="none" fill-opacity="0.95" stroke="hsl(83, 65%, 44%)" stroke-width="2.17"  transform="translate(31.8 68.4) rotate(27.6) scale(0.62 0.74)" />
<rect x="46.4" y="22.0" width="42.4" height="19.2" rx="0" fill="none" fill-opacity="0.21"   transform="translate(41.9 97.7) rotate(123.0) scale(1.68 0.74)" />
<path d="M 81.3 41.5 C 89.7 41.9, 84.1 64.9, 69.9 73.7 C 77.9 81.9, 5.6 0.0, 11.9 9.3 C 31.5 10.8, 35.5 100.0, 34.5 92.2 C 27.5 99.6, 88.5 7.2, 94.3 16.4 C 85.0 2.3, 25.6 32.1, 17.8 28.9 C 21.7 39.1, 100.0 17.4, 93.5 14.0 C 100.0 4.2, 38.4 0.0, 37.0 10.9 C 27.5 0.7, 92.6 67.6, 91.4 77.2 C 100.0 80.7, 74.9 0.0, 75.0 1.4 C 80.8 10.9, 1.9 0.0, 7.9 4.9 Z" fill="none" fill-opacity="0.86" stroke="hsl(40, 53%, 69%)" stroke-width="4.84"  transform="translate(8.9 7.5) rotate(125.9) scale(0.70 1.87)" />
<path d="M 19.0 76.4 C 0.8 83.6, 56.9 60.6, 65.1 60.7 C 58.3 56.2, 64.9 74.5, 63.3 74.9 C 69.5 93.8, 83.6 95.9, 82.6 95.0 C 67.8 94.6, 17.9 61.8, 9.9 71.4 C 6.9 74.4, 15.9 32.9, 21.8 30.0 C 10.5 46.4, 27.5 6.4, 29.4 3.3 C 38.9 17.9, 70.8 2.3, 83.8 10.5 C 86.2 19.4, 14.3 100.0, 3.0 97.7 Z" fill="hsl(151, 70%, 62%)" fill-opacity="0.38" stroke="none" stroke-width="1.21"  transform="translate(72.8 94.0) rotate(189.2) scale(1.85 0.76)" />
<path d="M 43.0 68.2 C 38.2 57.1, 0.0 99.0, 1.2 84.6 C 19.9 100.0, 68.8 72.4, 82.8 71.4 C 87.2 51.5, 85.6 61.9, 70.9 53.9 C 54.4 59.8, 43.3 66.4, 54.2 73.3 C 70.6 82.7, 3.6 49.2, 6.6 41.6 C 10.9 59.7, 38.3 68.9, 45.4 83.2 C 25.7 68.6, 7.0 13.6, 0.6 19.8 C 4.5 25.3, 10.9 0.0, 17.0 9.5 Z" fill="hsl(144, 86%, 72%)" fill-opacity="0.42" stroke="none" stroke-width="4.40"   />
<circle cx="63.0" cy="90.5" r="6.4" fill="hsl(40, 53%, 69%)" fill-opacity="0.89"  transform="translate(30.1 7.3) rotate(252.5) scale(1.33 0.88)" />
<circle cx="3.8" cy="77.5" r="19.7" fill="url(#g2)" fill-opacity="0.87"  transform="translate(73.1 17.6) rotate(208.7) scale(0.60 0.59)" />
<path d="M 81.7 62.1 C 95.1 55.8, 68.7 85.8, 62.1 98.8 C 73.3 100.0, 14.5 3.5, 13.8 0.6 C 28.6 0.0, 46.6 55.8, 56.9 70.1 C 49.8 88.9, 49.0 81.8, 52.1 67.2 C 32.4 67.4, 68.4 28.9, 55.4 27.1 C 61.4 13.7, 80.0 17.4, 74.9 10.9 C 82.2 0.0, 77.9 4.4, 82.1 1.1 Z" fill="hsl(151, 70%, 62%)" fill-opacity="0.32" stroke="none" stroke-width="4.58"  transform="translate(62.0 8.3) rotate(217.1) scale(1.67 1.68)" />
<path d="M 63.8 25.1 C 67.5 35.1, 84.3 57.9, 84.6 67.0 C 94.7 80.2, 14.9 56.5, 28.2 54.1 C 47.5 53.0, 0.3 98.0, 15.1 87.9 C 0.0 72.1, 49.8 18.7, 38.4 8.1 C 22.0 17.3, 92.1 97.7, 83.3 94.3 C 63.4 100.0, 75.2 100.0, 69.3 88.4 Z" fill="hsl(104, 72%, 65%)" fill-opacity="0.42" stroke="none" stroke-width="3.72"  transform="translate(15.2 62.5) rotate(81.4) scale(1.17 0.62)" />
<circle cx="12.1" cy="18.8" r="2.8" fill="hsl(104, 72%, 65%)" fill-opacity="0.75" filter="url(#f1)" transform="translate(70.8 61.6) rotate(330.5) scale(1.13 1.31)" />
<rect x="29.7" y="7.9" width="34.0" height="37.3" rx="4.3" fill="none" fill-opacity="0.59"   transform="translate(98.1 73.4) rotate(71.9) scale(1.34 1.55)" />
<circle cx="72.7" cy="74.0" r="1.6" fill="hsl(290, 83%, 63%)" fill-opacity="0.63"  transform="translate(81.8 62.2) rotate(283.0) scale(1.62 0.81)" />
<circle cx="10.3" cy="57.4" r="1.5" fill="hsl(2, 82%, 55%)" fill-opacity="0.60"  transform="translate(0.9 21.6) rotate(210.4) scale(1.30 0.62)" />
<path d="M 92.3 23.7 C 100.0 25.0, 14.4 74.9, 19.6 61.1 C 19.0 50.8, 7.5 42.5, 4.8 54.0 C 0.0 70.8, 76.1 19.0, 76.9 19.1 C 70.4 31.9, 87.3 0.8, 87.4 1.4 C 82.8 4.1, 72.9 81.1, 70.0 84.1 C 65.4 71.4, 22.2 69.9, 32.3 84.5 C 20.3 82.1, 67.7 62.0, 56.8 72.8 C 40.4 85.6, 86.3 10.8, 88.7 17.5 C 89.5 1.6, 20.3 99.6, 22.3 91.6 C 37.0 100.0, 14.2 0.0, 11.6 4.8 Z" fill="hsl(106, 75%, 59%)" fill-opacity="0.40" stroke="none" stroke-width="2.01"  transform="translate(7.7 19.9) rotate(340.8) scale(0.84 1.73)" />
<circle cx="19.0" cy="23.6" r="6.2" fill="url(#g2)" fill-opacity="0.52"   />
<rect x="18.9" y="48.7" width="35.7" height="14.9" rx="0" fill="none" fill-opacity="0.33"   transform="translate(12.6 30.2) rotate(146.8) scale(0.59 1.88)" />
<rect x="31.2" y="25.9" width="21.4" height="27.9" rx="0" fill="none" fill-opacity="0.88"   transform="translate(89.6 40.0) rotate(113.5) scale(0.97 1.16)" />
<circle cx="79.7" cy="11.0" r="3.5" fill="url(#g2)" fill-opacity="0.66"  transform="translate(1.0 11.6) rotate(294.1) scale(1.20 1.22)" />
<path d="M 68.5 10.2 C 59.0 16.5, 2.8 18.7, 2.9 20.0 C 15.5 22.4, 76.1 41.3, 85.0 39.0 C 100.0 42.6, 70.0 63.8, 73.5 62.0 C 76.5 79.1, 71.0 71.8, 84.8 61.2 C 89.0 65.6, 100.0 81.8, 95.3 82.4 C 100.0 73.5, 0.7 43.9, 3.7 56.0 C 0.0 40.0, 82.3 44.0, 85.0 46.1 C 100.0 59.7, 76.7 29.2, 69.7 43.3 C 63.2 50.7, 28.8 21.3, 25.5 23.1 C 29.6 20.2, 28.2 61.6, 41.6 54.6 Z" fill="hsl(144, 86%, 72%)" fill-opacity="0.87" stroke="none" stroke-width="4.22"  transform="translate(11.9 6.2) rotate(222.3) scale(1.02 1.47)" />
<path d="M 43.4 80.8 C 35.5 77.1, 80.1 100.0, 86.2 99.0 C 87.8 100.0, 21.3 97.2, 25.3 86.9 C 8.1 78.8, 61.1 35.4, 57.3 22.3 C 65.5 12.8, 96.5 91.0, 94.9 98.6 C 95.3 89.6, 45.6 33.9, 38.1 35.2 C 43.9 46.7, 63.9 70.3, 61.8 74.7 C 54.4 89.1, 48.2 52.2, 49.1 39.8 Z" fill="none" fill-opacity="0.92" stroke="hsl(144, 86%, 72%)" stroke-width="1.07"  transform="translate(53.5 38.0) rotate(72.4) scale(0.70 1.62)" />
<path d="M 57.9 77.7 C 60.9 86.0, 54.7 58.9, 43.6 59.7 C 50.4 57.2, 38.1 44.4, 23.4 40.6 C 32.9 33.3, 62.9 45.5, 57.1 39.1 C 73.6 31.5, 90.4 29.7, 81.5 30.5 C 97.8 43.6, 32.6 88.0, 39.6 79.3 C 23.8 61.2, 89.5 14.4, 81.9 29.0 C 62.0 46.8, 98.8 21.5, 97.2 35.3 C 100.0 17.4, 67.2 63.3, 64.9 70.4 C 81.0 59.9, 67.3 68.8, 67.0 54.5 C 60.4 61.8, 34.0 16.0, 48.2 5.9 Z" fill="none" fill-opacity="0.28" stroke="hsl(151, 70%, 62%)" stroke-width="3.70"  transform="translate(36.6 83.2) rotate(155.2) scale(1.44 0.98)" />
<path d="M 3.0 15.4 C 18.5 23.3, 91.5 89.7, 80.5 83.9 C 82.2 96.5, 75.0 38.9, 66.9 45.5 C 79.9 35.3, 86.0 48.6, 82.5 41.9 C 92.6 33.4, 65.9 64.6, 60.0 56.4 C 57.9 62.2, 72.6 25.6, 72.5 12.1 C 86.1 23.3, 55.7 78.6, 58.8 84.5 C 58.1 97.5, 42.2 14.0, 45.6 4.1 Z" fill="hsl(144, 86%, 72%)" fill-opacity="0.91" stroke="none" stroke-width="4.38"  transform="translate(23.9 73.0) rotate(144.3) scale(1.05 1.96)" />
<path d="M 45.4 52.3 C 64.0 49.3, 57.1 52.3, 63.2 56.1 C 48.9 37.7, 37.8 40.0, 40.5 54.8 C 34.7 44.7, 61.5 99.3, 61.3 94.2 C 62.9 92.9, 72.0 66.9, 60.6 76.7 C 65.8 59.5, 5.9 52.1, 11.3 47.8 C 15.8 28.2, 100.0 57.6, 98.2 46.7 C 91.7 56.8, 12.2 100.0, 4.4 93.6 C 0.0 100.0, 84.8 6.5, 80.0 18.8 C 63.0 20.2, 69.7 28.0, 80.2 14.2 Z" fill="hsl(151, 70%, 62%)" fill-opacity="0.48" stroke="none" stroke-width="3.67"  transform="translate(3.1 27.5) rotate(95.3) scale(0.81 1.74)" />
<path d="M 91.0 20.9 C 100.0 11.1, 76.9 29.4, 83.0 23.6 C 78.5 36.9, 75.7 76.0, 84.4 71.4 C 100.0 70.6, 45.2 44.7, 50.1 36.1 C 54.5 45.9, 9.9 76.6, 22.0 81.8 C 25.7 72.2, 35.1 100.0, 27.7 93.7 C 9.2 74.3, 69.0 94.0, 81.1 85.6 C 98.1 76.7, 71.0 100.0, 64.3 97.8 C 56.9 80.0, 61.2 66.0, 75.5 57.4 C 68.4 65.8, 76.2 50.0, 66.6 42.0 Z" fill="hsl(242, 72%, 49%)" fill-opacity="0.47" stroke="none" stroke-width="3.16"  transform="translate(63.5 54.8) rotate(158.0) scale(1.28 1.72)" />
<path d="M 83.5 55.7 C 94.6 44.3, 38.3 49.5, 45.9 40.1 C 58.1 42.7, 95.2 26.7, 97.6 28.2 C 85.7 21.5, 18.7 93.1, 5.9 98.4 C 0.0 100.0, 35.8 72.5, 45.8 79.1 C 45.4 67.0, 3.7 18.9, 7.0 22.6 C 0.0 17.9, 92.3 28.7, 80.7 21.2 C 72.1 10.5, 43.8 71.7, 37.0 85.8 C 39.1 91.5, 23.1 16.0, 14.8 7.5 C 20.2 0.0, 8.5 30.6, 11.8 37.7 C 12.5 29.8, 99.2 17.9, 99.4 32.5 Z" fill="none" fill-opacity="0.66" stroke="hsl(290, 83%, 63%)" stroke-width="4.33"  transform="translate(83.2 33.0) rotate(34.7) scale(1.08 1.75)" />
<path d="M 63.1 59.5 C 57.6 40.6, 79.7 74.6, 73.8 83.6 C 93.4 63.9, 26.3 100.0, 24.5 91.0 C 24.1 100.0, 40.5 53.2, 37.2 38.4 C 41.4 48.9, 29.0 17.0, 33.5 6.1 C 22.5 0.0, 53.3 44.4, 43.2 29.5 C 53.8 45.3, 96.7 87.4, 87.2 82.1 C 97.7 76.1, 71.4 86.6, 78.3 93.6 C 67.4 100.0, 79.2 51.4, 82.0 59.0 C 98.6 42.6, 20.3 68.4, 11.7 67.1 C 7.7 49.5, 93.5 96.0, 85.7 83.7 Z" fill="hsl(104, 72%, 65%)" fill-opacity="0.53" stroke="none" stroke-width="3.82"  transform="translate(95.3 28.4) rotate(357.1) scale(1.63 1.39)" />
<circle cx="98.2" cy="20.7" r="3.9" fill="url(#g2)" fill-opacity="0.86"  transform="translate(35.0 94.9) rotate(185.8) scale(1.00 2.00)" />
<rect x="18.1" y="15.2" width="44.1" height="28.7" rx="0" fill="hsl(322, 74%, 44%)" fill-opacity="0.22"   transform="translate(93.3 40.6) rotate(81.4) scale(1.22 0.86)" />
<circle cx="13.3" cy="87.0" r="1.7" fill="hsl(144, 86%, 72%)" fill-opacity="0.46"  transform="translate(87.2 14.1) rotate(84.1) scale(1.94 0.96)" />
<path d="M 11.7 54.5 C 0.0 48.5, 14.4 38.4, 4.0 24.3 C 4.3 10.5, 60.0 73.6, 64.7 78.7 C 65.7 94.8, 63.7 16.5, 52.4 12.2 C 58.0 0.0, 41.8 56.5, 34.1 50.4 C 51.6 30.6, 48.4 14.5, 59.6 11.1 C 46.3 7.9, 71.2 16.5, 71.1 17.1 C 71.9 4.5, 41.3 75.2, 49.0 87.4 C 51.7 69.9, 40.8 51.7, 51.9 42.2 C 42.1 39.9, 34.1 41.7, 46.7 34.8 C 48.2 34.2, 42.3 5.1, 47.3 18.1 Z" fill="hsl(86, 72%, 68%)" fill-opacity="0.98" stroke="none" stroke-width="2.60"  transform="translate(81.1 25.1) rotate(79.3) scale(1.72 1.96)" />
<path d="M 39.6 48.8 C 24.8 37.9, 57.8 66.0, 50.8 55.8 C 39.6 45.5, 23.0 0.0, 14.5 0.1 C 10.6 8.6, 25.1 71.4, 10.6 80.8 C 0.0 78.5, 20.7 79.4, 21.7 79.0 C 29.5 59.6, 60.6 97.8, 55.7 93.4 C 44.9 100.0, 35.4 76.2, 50.0 69.6 C 41.2 55.2, 39.0 54.4, 34.9 62.5 Z" fill="none" fill-opacity="0.30" stroke="hsl(40, 53%, 69%)" stroke-width="0.96"  transform="translate(69.1 94.6) rotate(299.6) scale(1.32 0.74)" />
<circle cx="36.6" cy="91.5" r="5.0" fill="url(#g1)" fill-opacity="0.77"  transform="translate(37.5 72.5) rotate(211.2) scale(1.97 1.07)" />
<rect x="27.9" y="2.0" width="36.4" height="14.6" rx="11.9" fill="hsl(242, 72%, 49%)" fill-opacity="1.00" stroke="hsl(322, 74%, 44%)" stroke-width="4.8"   />
<circle cx="11.0" cy="69.2" r="5.1" fill="hsl(183, 71%, 60%)" fill-opacity="0.94"  transform="translate(20.2 76.2) rotate(251.2) scale(1.72 0.76)" />
<path d="M 5.7 97.3 C 0.0 90.4, 25.6 0.0, 20.4 4.3 C 25.6 0.0, 76.1 42.5, 71.1 29.8 C 54.2 13.6, 95.5 3.7, 86.2 15.7 C 95.6 5.0, 63.8 0.0, 63.6 10.2 C 73.8 21.4, 84.6 91.9, 75.5 94.6 C 81.2 86.5, 20.4 41.6, 28.2 53.3 " fill="hsl(40, 53%, 69%)" fill-opacity="0.27" stroke="none" stroke-width="5.06"  transform="translate(84.2 14.1) rotate(249.3) scale(1.40 1.59)" />
<path d="M 21.3 5.1 C 9.2 0.2, 76.3 2.2, 83.6 6.3 C 92.5 13.5, 16.8 65.9, 15.1 79.7 C 27.5 70.4, 84.9 54.1, 77.2 61.0 C 69.3 47.4, 76.8 0.0, 88.3 4.1 C 86.3 21.3, 80.6 20.5, 95.2 18.1 C 93.8 20.6, 37.5 79.4, 29.9 74.5 C 49.3 82.0, 87.4 43.4, 90.5 33.3 C 85.5 41.5, 14.3 80.3, 27.8 87.9 C 46.0 78.7, 48.2 58.0, 48.9 54.4 C 30.6 55.5, 19.2 59.1, 13.0 65.8 Z" fill="hsl(322, 74%, 44%)" fill-opacity="0.86" stroke="none" stroke-width="5.11"  transform="translate(76.2 48.0) rotate(26.0) scale(0.82 1.29)" />
<path d="M 96.0 84.5 C 91.3 88.9, 29.0 35.5, 38.5 30.4 C 40.4 49.3, 87.1 35.2, 92.5 38.3 C 100.0 44.9, 14.5 84.4, 17.2 97.2 C 29.7 100.0, 34.5 73.3, 46.7 86.5 C 59.7 92.3, 100.0 59.6, 94.1 46.2 C 97.7 29.4, 62.4 37.2, 61.8 24.6 C 58.4 21.5, 58.5 93.7, 58.1 82.3 C 74.4 89.6, 91.6 54.7, 89.5 50.0 C 85.0 44.0, 54.0 4.9, 43.0 19.5 C 61.5 26.5, 43.7 100.0, 51.4 92.6 Z" fill="hsl(104, 72%, 65%)" fill-opacity="0.32" stroke="none" stroke-width="2.74"  transform="translate(42.3 78.0) rotate(306.5) scale(0.82 1.65)" />
<path d="M 34.1 44.6 C 15.5 25.5, 72.4 100.0, 61.3 96.4 C 49.5 81.3, 39.6 84.1, 49.2 88.4 C 32.3 76.3, 50.2 22.9, 49.0 11.1 C 29.5 18.1, 38.3 70.6, 49.1 60.5 C 43.8 69.1, 62.4 39.5, 66.1 43.8 C 74.0 27.6, 53.7 88.9, 48.8 85.5 Z" fill="hsl(83, 65%, 44%)" fill-opacity="0.46" stroke="none" stroke-width="2.04"  transform="translate(50.8 40.4) rotate(67.3) scale(1.89 1.75)" />
<rect x="38.9" y="6.9" width="49.9" height="16.4" rx="18.1" fill="hsl(322, 74%, 44%)" fill-opacity="0.56" stroke="hsl(106, 75%, 59%)" stroke-width="2.1"  transform="translate(32.4 4.5) rotate(267.4) scale(1.84 1.50)" />
<path d="M 70.8 91.9 C 52.0 80.0, 20.4 41.4, 8.9 50.8 C 0.0 36.4, 20.1 28.2, 18.5 17.3 C 31.1 0.0, 18.6 30.3, 5.6 44.7 C 23.1 48.3, 20.9 81.0, 22.6 87.9 C 41.6 70.3, 87.4 0.0, 76.4 0.4 C 70.9 0.0, 86.4 35.9, 97.2 40.5 C 100.0 29.6, 59.3 74.1, 71.3 77.1 C 76.0 76.3, 0.0 100.0, 4.7 89.8 C 2.1 80.1, 65.4 50.9, 63.9 38.2 Z" fill="hsl(183, 71%, 60%)" fill-opacity="0.87" stroke="none" stroke-width="4.97"  transform="translate(65.0 82.5) rotate(51.7) scale(0.70 1.34)" />
<circle cx="67.3" cy="75.6" r="2.0" fill="url(#g1)" fill-opacity="0.94"  transform="translate(77.9 44.1) rotate(243.0) scale(0.84 1.54)" />
<circle cx="69.8" cy="67.2" r="1.7" fill="hsl(86, 72%, 68%)" fill-opacity="0.97"  transform="translate(24.1 87.5) rotate(19.9) scale(1.64 1.10)" />
<rect x="60.8" y="41.9" width="34.7" height="35.6" rx="0" fill="hsl(83, 65%, 44%)" fill-opacity="0.92"    />
<path d="M 89.4 53.2 C 73.4 72.4, 0.0 53.3, 1.7 48.6 C 0.0 50.5, 64.6 83.9, 74.8 78.8 C 88.8 81.4, 24.8 47.3, 17.2 44.7 C 26.3 42.6, 64.1 69.4, 57.7 79.9 C 46.8 92.4, 44.5 61.7, 58.6 58.6 C 71.8 68.3, 78.7 51.3, 77.7 55.8 Z" fill="hsl(2, 82%, 55%)" fill-opacity="0.73" stroke="none" stroke-width="3.64"  transform="translate(50.6 50.6) rotate(111.5) scale(1.35 0.98)" />
<rect x="3.9" y="1.3" width="42.5" height="38.9" rx="0" fill="hsl(86, 72%, 68%)" fill-opacity="0.99" stroke="hsl(86, 72%, 68%)" stroke-width="2.3"  transform="translate(97.5 38.4) rotate(245.6) scale(0.61 0.86)" />
<g opacity="0.065">
<rect x="0" y="0" width="1" height="100" fill="black" />
<rect x="22" y="0" width="1" height="100" fill="black" />
<rect x="44" y="0" width="1" height="100" fill="black" />
<rect x="66" y="0" width="1" height="100" fill="black" />
<rect x="88" y="0" width="1" height="100" fill="black" />
<rect x="0" y="0" width="100" height="1" fill="black" />
<rect x="0" y="22" width="100" height="1" fill="black" />
<rect x="0" y="44" width="100" height="1" fill="black" />
<rect x="0" y="66" width="100" height="1" fill="black" />
<rect x="0" y="88" width="100" height="1" fill="black" />
</g>

</svg>
