<?xml version="1.0" encoding="UTF-8"?>
<svg xmlns="http://www.w3.org/2000/svg" width="100" height="100" viewBox="0 0 100 100">
<defs>
<linearGradient id="g0" x1="0%" y1="0%" x2="100%" y2="100%">
<stop offset="0.0%" stop-color="hsl(106, 75%, 59%)" />
<stop offset="33.3%" stop-color="hsl(183, 71%, 60%)" />
<stop offset="66.7%" stop-color="hsl(242, 72%, 49%)" />
<stop offset="100.0%" stop-color="hsl(322, 74%, 44%)" />
</linearGradient>
<linearGradient id="g1" x1="0%" y1="0%" x2="100%" y2="100%">
<stop offset="0.0%" stop-color="hsl(290, 83%, 63%)" />
<stop offset="33.3%" stop-color="hsl(2, 82%, 55%)" />
<stop offset="66.7%" stop-color="hsl(86, 72%, 68%)" />
<stop offset="100.0%" stop-color="hsl(83, 65%, 44%)" />
</linearGradient>
<linearGradient id="g2" x1="0%" y1="0%" x2="100%" y2="100%">
<stop offset="0.0%" stop-color="hsl(40, 53%, 69%)" />
<stop offset="33.3%" stop-color="hsl(104, 72%, 65%)" />
<stop offset="66.7%" stop-color="hsl(144, 86%, 72%)" />
<stop offset="100.0%" stop-color="hsl(151, 70%, 62%)" />
</linearGradient>
</defs>

<path d="M 12.6 43.5 C 16.5 40.5, 33.8 91.7, 40.4 86.7 C 49.6 98.9, 12.3 40.2, 5.4 26.4 C 11.1 42.8, 74.0 64.0, 76.6 65.0 C 67.2 62.9, 0.0 40.3, 9.0 43.7 Z" fill="hsl(40, 53%, 69%)" fill-opacity="0.41" stroke="none" stroke-width="0.91"   />
<path d="M 69.0 55.5 C 71.3 44.9, 38.1 81.7, 52.2 89.2 C 37.7 94.6, 90.3 64.2, 91.4 72.3 C 98.5 79.3, 8.9 0.0, 12.1 8.7 C 25.4 7.5, 74.0 88.6, 80.3 87.6 Z" fill="hsl(144, 86%, 72%)" fill-opacity="0.25" stroke="none" stroke-width="0.83"  transform="translate(77.0 36.5) rotate(175.0) scale(1.84 0.68)" />
<path d="M 9.9 49.2 C 22.4 35.3, 7.6 55.5, 10.6 70.0 C 0.0 56.6, 48.9 54.2, 55.1 60.4 C 39.8 51.3, 53.8 57.2, 57.4 60.5 C 60.7 56.0, 61.3 14.5, 74.4 11.1 C 69.7 23.1, 95.2 90.6, 80.3 93.7 C 95.3 93.1, 72.4 0.0, 64.2 4.2 Z" fill="hsl(83, 65%, 44%)" fill-opacity="0.90" stroke="none" stroke-width="0.86"  transform="translate(57.3 44.3) rotate(320.6) scale(1.55 1.11)" />
<path d="M 28.0 40.2 C 10.6 58.4, 48.7 21.8, 53.6 21.5 C 58.6 15.9, 56.1 12.5, 63.1 10.4 C 43.3 16.9, 61.2 56.1, 48.3 48.1 C 29.4 61.8, 6.4 73.4, 14.8 67.0 C 9.0 70.0, 68.9 34.6, 72.9 36.1 " fill="none" fill-opacity="0.86" stroke="hsl(86, 72%, 68%)" stroke-width="1.02"   />
<path d="M 3.6 30.3 C 0.0 31.3, 56.6 22.7, 70.5 8.6 C 84.2 0.0, 0.0 74.6, 10.2 68.2 C 26.9 55.5, 36.3 91.6, 41.7 89.9 C 38.8 100.0, 17.4 39.5, 23.4 43.7 C 39.1 57.1, 82.7 34.0, 81.2 45.4 C 70.8 35.9, 73.9 42.3, 78.4 54.7 C 82.4 58.4, 20.3 19.8, 33.8 28.5 " fill="hsl(106, 75%, 59%)" fill-opacity="0.80" stroke="none" stroke-width="1.26"  transform="translate(47.6 30.1) rotate(89.8) scale(1.85 1.54)" />
<path d="M 43.4 54.2 C 41.6 36.7, 32.1 2.7, 19.7 8.7 C 35.3 22.3, 4.9 100.0, 18.2 96.9 C 19.5 80.5, 96.8 66.3, 86.2 54.5 C 69.5 66.5, 59.3 81.4, 48.9 79.8 C 38.7 60.9, 8.3 77.1, 4.7 75.4 Z" fill="hsl(2, 82%, 55%)" fill-opacity="0.28" stroke="none" stroke-width="0.82"   />
<circle cx="24.0" cy="14.4" r="0.3" fill="hsl(104, 72%, 65%)" fill-opacity="0.66"  transform="translate(24.7 53.5) rotate(96.6) scale(0.76 1.43)" />
<circle cx="88.7" cy="91.7" r="1.6" fill="hsl(151, 70%, 62%)" fill-opacity="0.58"  transform="translate(1.3 32.4) rotate(3.0) scale(1.86 0.95)" />
<path d="M 81.3 78.7 C 93.7 68.1, 0.4 0.0, 10.8 1.8 C 0.0 15.0, 74.5 24.1, 79.2 21.7 C 83.9 25.2, 64.8 17.4, 74.3 15.9 " fill="hsl(151, 70%, 62%)" fill-opacity="0.53" stroke="none" stroke-width="1.13"  transform="translate(73.9 89.4) rotate(268.4) scale(0.62 0.79)" />
<rect x="16.6" y="34.7" width="22.8" height="31.6" rx="5.2" fill="none" fill-opacity="0.93"   transform="translate(9.6 65.0) rotate(193.0) scale(0.94 1.90)" />
<circle cx="46.2" cy="32.5" r="1.9" fill="hsl(86, 72%, 68%)" fill-opacity="0.88"   />
<path d="M 30.5 6.7 C 14.7 0.0, 37.0 38.4, 22.7 52.3 C 23.4 36.7, 78.1 76.7, 70.0 81.2 C 78.7 72.6, 88.1 67.5, 91.9 77.6 C 81.6 85.7, 29.5 59.0, 43.7 53.8 C 46.2 52.7, 47.0 14.2, 56.2 7.8 " fill="hsl(104, 72%, 65%)" fill-opacity="0.72" stroke="none" stroke-width="1.21"   />
<circle cx="66.3" cy="18.4" r="1.9" fill="hsl(40, 53%, 69%)" fill-opacity="0.42"  transform="translate(47.5 52.4) rotate(123.4) scale(1.89 0.89)" />
<rect x="47.8" y="55.7" width="33.4" height="13.7" rx="0" fill="hsl(2, 82%, 55%)" fill-opacity="0.51"   transform="translate(20.0 64.4) rotate(75.1) scale(1.40 1.27)" />
<rect x="46.9" y="62.4" width="37.0" height="13.6" rx="5.5" fill="none" fill-opacity="0.89"    />
<rect x="42.2" y="55.9" width="47.1" height="27.2" rx="8.3" fill="hsl(106, 75%, 59%)" fill-opacity="0.97"   transform="translate(58.8 16.8) rotate(308.4) scale(1.81 0.69)" />
<path d="M 69.7 68.0 C 69.4 62.4, 24.3 49.3, 10.4 39.4 C 9.2 33.3, 18.1 42.7, 25.3 50.4 C 37.6 65.3, 51.6 100.0, 40.9 88.3 " fill="hsl(242, 72%, 49%)" fill-opacity="0.48" stroke="none" stroke-width="0.88"  transform="translate(62.9 79.2) rotate(233.7) scale(0.93 1.40)" />
<rect x="31.9" y="16.0" width="24.3" height="36.4" rx="0" fill="none" fill-opacity="0.71"   transform="translate(27.9 19.7) rotate(260.1) scale(0.82 0.94)" />
</svg>
