<?xml version="1.0" encoding="UTF-8"?>
<svg xmlns="http://www.w3.org/2000/svg" width="100" height="100" viewBox="0 0 100 100">
<defs>
<linearGradient id="g0" x1="0%" y1="0%" x2="100%" y2="100%">
<stop offset="0.0%" stop-color="hsl(106, 75%, 59%)" />
<stop offset="33.3%" stop-color="hsl(183, 71%, 60%)" />
<stop offset="66.7%" stop-color="hsl(242, 72%, 49%)" />
<stop offset="100.0%" stop-color="hsl(322, 74%, 44%)" />
</linearGradient>
<linearGradient id="g1" x1="0%" y1="0%" x2="100%" y2="100%">
<stop offset="0.0%" stop-color="hsl(290, 83%, 63%)" />
<stop offset="33.3%" stop-color="hsl(2, 82%, 55%)" />
<stop offset="66.7%" stop-color="hsl(86, 72%, 68%)" />
<stop offset="100.0%" stop-color="hsl(83, 65%, 44%)" />
</linearGradient>
<linearGradient id="g2" x1="0%" y1="0%" x2="100%" y2="100%">
<stop offset="0.0%" stop-color="hsl(40, 53%, 69%)" />
<stop offset="33.3%" stop-color="hsl(104, 72%, 65%)" />
<stop offset="66.7%" stop-color="hsl(144, 86%, 72%)" />
<stop offset="100.0%" stop-color="hsl(151, 70%, 62%)" />
</linearGradient>
</defs>

<rect x="60.4" y="20.3" width="20.3" height="33.7" rx="2.8" fill="hsl(183, 71%, 60%)" fill-opacity="0.81"    />
<path d="M 38.5 6.1 C 42.4 0.2, 35.6 84.3, 50.3 84.3 C 42.5 74.6, 59.3 49.9, 45.6 36.3 C 51.4 23.6, 30.0 11.4, 23.8 24.6 C 26.0 13.9, 5.7 15.9, 3.7 30.7 C 14.2 10.9, 26.2 47.8, 19.2 49.5 C 26.7 55.2, 75.6 63.5, 63.2 49.1 C 62.8 53.3, 48.0 10.8, 38.6 16.0 " fill="hsl(290, 83%, 63%)" fill-opacity="0.27" stroke="none" stroke-width="1.23"   />
<circle cx="19.2" cy="59.4" r="1.7" fill="hsl(40, 53%, 69%)" fill-opacity="0.41"  transform="translate(11.0 79.7) rotate(327.2) scale(1.55 1.43)" />
<rect x="44.5" y="40.5" width="43.9" height="29.3" rx="7.9" fill="none" fill-opacity="0.43"    />
<path d="M 3.6 70.7 C 0.0 80.7, 30.2 49.7, 21.0 61.0 C 34.9 50.9, 6.5 13.6, 15.9 9.8 C 25.4 14.2, 76.4 56.4, 87.0 67.0 C 100.0 52.0, 67.8 96.3, 72.0 82.0 C 67.2 87.5, 29.7 94.0, 18.2 82.7 C 11.3 75.6, 6.1 19.3, 16.2 26.0 " fill="hsl(151, 70%, 62%)" fill-opacity="0.90" stroke="none" stroke-width="1.11"  transform="translate(13.1 15.1) rotate(197.2) scale(0.99 1.88)" />
<circle cx="87.9" cy="13.2" r="0.5" fill="hsl(242, 72%, 49%)" fill-opacity="0.83"   />
<path d="M 85.5 2.6 C 73.2 0.0, 72.5 35.5, 78.2 27.0 C 64.1 32.2, 61.9 39.0, 55.5 29.5 C 41.9 9.6, 100.0 20.5, 95.8 17.9 C 100.0 0.0, 66.1 61.7, 75.2 55.9 Z" fill="hsl(106, 75%, 59%)" fill-opacity="0.99" stroke="none" stroke-width="0.80"  transform="translate(50.4 55.2) rotate(228.4) scale(0.97 1.13)" />
<path d="M 69.4 24.2 C 67.7 10.9, 100.0 87.4, 95.6 76.1 C 100.0 67.7, 92.5 28.4, 93.7 29.0 C 89.8 45.8, 90.4 89.7, 81.1 92.8 " fill="hsl(144, 86%, 72%)" fill-opacity="0.82" stroke="none" stroke-width="0.82"  transform="translate(54.6 21.9) rotate(225.2) scale(1.96 0.86)" />
<rect x="39.5" y="36.1" width="33.8" height="20.5" rx="0" fill="hsl(151, 70%, 62%)" fill-opacity="0.45" stroke="hsl(151, 70%, 62%)" stroke-width="4.3"   />
<circle cx="81.3" cy="39.1" r="0.6" fill="hsl(290, 83%, 63%)" fill-opacity="0.47"  transform="translate(38.3 48.4) rotate(239.0) scale(0.70 1.51)" />
<rect x="16.2" y="35.0" width="22.9" height="28.9" rx="15.4" fill="none" fill-opacity="0.34"    />
<path d="M 45.9 76.3 C 33.1 92.9, 29.5 75.0, 23.0 84.1 C 4.5 100.0, 72.1 80.2, 75.0 87.5 C 80.3 95.4, 31.0 91.8, 34.4 96.8 C 22.0 100.0, 100.0 78.8, 94.3 90.1 C 85.2 75.0, 100.0 57.3, 92.1 61.3 " fill="hsl(144, 86%, 72%)" fill-opacity="0.92" stroke="none" stroke-width="0.94"  transform="translate(24.2 12.5) rotate(69.8) scale(1.36 1.76)" />
<path d="M 99.9 66.8 C 89.3 48.7, 22.8 67.1, 21.1 80.8 C 40.5 67.2, 98.5 61.0, 92.6 74.5 C 83.6 57.8, 55.0 27.8, 63.3 38.2 C 66.1 30.1, 36.1 14.4, 36.2 5.3 " fill="hsl(242, 72%, 49%)" fill-opacity="0.96" stroke="none" stroke-width="1.09"   />
<path d="M 57.2 5.8 C 50.6 2.9, 94.4 14.5, 84.4 21.3 C 85.2 18.6, 68.3 80.0, 77.9 85.1 C 64.6 87.0, 45.6 14.8, 56.8 23.0 C 44.5 36.4, 31.7 59.7, 30.2 53.1 C 45.7 34.4, 58.4 81.3, 65.0 95.1 C 69.6 81.5, 12.0 53.4, 21.6 65.2 C 10.1 49.6, 90.0 73.0, 80.1 76.8 " fill="hsl(151, 70%, 62%)" fill-opacity="0.67" stroke="none" stroke-width="0.92"  transform="translate(53.4 46.3) rotate(291.0) scale(0.53 1.15)" />
<path d="M 82.4 8.0 C 91.9 0.0, 46.5 58.4, 39.4 46.9 C 19.5 44.1, 81.0 100.0, 68.8 94.0 C 65.5 96.6, 82.7 40.2, 77.0 46.5 C 88.5 40.8, 7.4 47.0, 18.4 40.4 C 34.8 37.9, 1.3 23.4, 12.4 32.0 C 29.7 43.1, 58.9 68.7, 72.5 54.5 C 78.2 70.3, 29.5 17.5, 21.1 14.4 " fill="none" fill-opacity="0.45" stroke="hsl(104, 72%, 65%)" stroke-width="0.86"  transform="translate(79.3 74.8) rotate(325.2) scale(1.85 0.76)" />
<path d="M 97.8 27.5 C 92.7 17.8, 81.7 49.5, 83.2 40.3 C 99.1 57.2, 70.4 31.4, 65.7 34.9 C 55.6 40.1, 36.1 73.4, 30.1 73.8 " fill="hsl(106, 75%, 59%)" fill-opacity="0.74" stroke="none" stroke-width="1.04"   />
<rect x="47.2" y="38.8" width="39.1" height="23.5" rx="2.9" fill="hsl(183, 71%, 60%)" fill-opacity="0.48" stroke="hsl(322, 74%, 44%)" stroke-width="1.3"  transform="translate(54.6 50.2) rotate(211.0) scale(0.66 0.62)" />
<circle cx="3.4" cy="75.0" r="0.0" fill="hsl(322, 74%, 44%)" fill-opacity="0.67"  transform="translate(12.4 56.6) rotate(207.5) scale(1.87 1.92)" />
</svg>
