<?xml version="1.0" encoding="UTF-8"?>
<svg xmlns="http://www.w3.org/2000/svg" width="100" height="100" viewBox="0 0 100 100">
<defs>
<linearGradient id="g0" x1="0%" y1="0%" x2="100%" y2="100%">
<stop offset="0.0%" stop-color="hsl(106, 75%, 59%)" />
<stop offset="33.3%" stop-color="hsl(183, 71%, 60%)" />
<stop offset="66.7%" stop-color="hsl(242, 72%, 49%)" />
<stop offset="100.0%" stop-color="hsl(322, 74%, 44%)" />
</linearGradient>
<linearGradient id="g1" x1="0%" y1="0%" x2="100%" y2="100%">
<stop offset="0.0%" stop-color="hsl(290, 83%, 63%)" />
<stop offset="33.3%" stop-color="hsl(2, 82%, 55%)" />
<stop offset="66.7%" stop-color="hsl(86, 72%, 68%)" />
<stop offset="100.0%" stop-color="hsl(83, 65%, 44%)" />
</linearGradient>
<linearGradient id="g2" x1="0%" y1="0%" x2="100%" y2="100%">
<stop offset="0.0%" stop-color="hsl(40, 53%, 69%)" />
<stop offset="33.3%" stop-color="hsl(104, 72%, 65%)" />
<stop offset="66.7%" stop-color="hsl(144, 86%, 72%)" />
<stop offset="100.0%" stop-color="hsl(151, 70%, 62%)" />
</linearGradient>
<filter id="f1" x="-20%" y="-20%" width="140%" height="140%">
  <feGaussianBlur stdDeviation="0.5733190277722102" />
</filter>

</defs>

<rect x="66.8" y="16.3" width="27.9" height="28.9" rx="0.3" fill="hsl(183, 71%, 60%)" fill-opacity="0.25" stroke="hsl(242, 72%, 49%)" stroke-width="3.6"  transform="translate(48.9 95.3) rotate(176.0) scale(1.20 1.81)" />
<rect x="3.5" y="52.2" width="39.6" height="31.1" rx="0.7" fill="hsl(2, 82%, 55%)" fill-opacity="0.83"   transform="translate(62.7 95.8) rotate(216.0) scale(1.66 1.31)" />
<path d="M 32.7 69.7 C 43.9 60.7, 24.4 38.6, 12.8 53.5 C 9.6 67.7, 50.0 95.7, 61.4 92.0 C 76.9 100.0, 37.8 23.7, 41.2 18.0 C 36.0 20.8, 54.3 30.7, 57.5 27.6 C 62.4 20.1, 50.2 39.2, 59.3 25.2 C 71.0 22.4, 46.7 12.5, 34.6 13.7 C 15.1 17.6, 23.5 85.7, 37.0 89.2 C 54.7 100.0, 85.0 9.0, 83.8 16.4 C 86.5 17.2, 23.8 48.2, 25.1 59.5 C 39.1 52.8, 90.3 37.4, 99.6 40.7 Z" fill="none" fill-opacity="0.78" stroke="hsl(242, 72%, 49%)" stroke-width="3.06"  transform="translate(65.7 29.2) rotate(323.6) scale(1.71 0.53)" />
<rect x="10.5" y="81.2" width="43.9" height="18.5" rx="0" fill="none" fill-opacity="0.64" stroke="hsl(290, 83%, 63%)" stroke-width="3.0" filter="url(#f1)" transform="translate(27.4 47.5) rotate(6.9) scale(1.78 1.09)" />
<rect x="12.3" y="48.3" width="43.1" height="35.9" rx="18.7" fill="none" fill-opacity="0.53"   transform="translate(60.2 52.8) rotate(324.0) scale(0.64 1.20)" />
<rect x="58.2" y="51.7" width="37.5" height="14.3" rx="0" fill="hsl(86, 72%, 68%)" fill-opacity="0.52"   transform="translate(1.6 1.0) rotate(58.4) scale(0.75 1.87)" />
<path d="M 57.7 62.2 C 41.2 70.6, 37.9 10.4, 37.5 12.5 C 31.3 32.4, 67.7 21.3, 69.3 34.8 C 51.5 21.6, 13.1 15.2, 21.4 12.2 C 3.4 16.5, 77.5 76.0, 89.5 80.0 C 79.6 74.1, 100.0 57.5, 95.9 59.5 C 91.7 67.0, 56.3 57.4, 48.0 56.2 C 59.8 52.0, 81.6 38.5, 67.7 41.4 C 60.0 57.1, 84.5 64.6, 72.4 56.6 Z" fill="none" fill-opacity="0.42" stroke="hsl(151, 70%, 62%)" stroke-width="4.35"  transform="translate(72.1 95.7) rotate(190.6) scale(0.80 1.71)" />
<path d="M 85.2 18.9 C 100.0 32.4, 66.0 100.0, 58.9 97.2 C 77.7 100.0, 66.4 33.2, 54.5 27.6 C 38.7 46.3, 56.6 100.0, 62.6 96.8 C 51.3 77.8, 11.2 63.9, 12.1 61.0 C 0.0 56.4, 3.4 57.7, 3.1 54.1 C 0.0 68.7, 84.4 19.4, 93.8 21.2 C 94.9 14.3, 62.7 19.0, 48.3 31.9 C 44.7 35.7, 93.0 64.2, 95.4 76.2 Z" fill="hsl(290, 83%, 63%)" fill-opacity="0.61" stroke="none" stroke-width="2.77"  transform="translate(97.4 95.8) rotate(322.7) scale(1.82 0.60)" />
<circle cx="50.4" cy="58.3" r="7.9" fill="hsl(83, 65%, 44%)" fill-opacity="0.86"  transform="translate(50.5 31.5) rotate(199.8) scale(0.89 1.18)" />
<path d="M 34.2 72.9 C 22.9 56.0, 8.3 86.6, 19.8 98.5 C 16.8 100.0, 59.8 57.6, 73.7 60.1 C 57.0 67.5, 88.5 87.6, 85.1 74.0 C 76.1 83.1, 39.1 43.1, 49.7 49.3 C 36.6 61.2, 89.9 69.8, 92.1 58.2 C 100.0 77.0, 88.0 35.0, 89.3 34.2 C 95.7 37.5, 98.0 46.2, 98.6 49.3 C 84.6 30.4, 7.5 15.1, 6.1 22.2 C 13.3 35.3, 11.4 31.2, 1.5 31.3 Z" fill="hsl(40, 53%, 69%)" fill-opacity="0.43" stroke="none" stroke-width="3.56"  transform="translate(69.9 70.1) rotate(259.0) scale(0.87 1.05)" />
<circle cx="35.0" cy="79.0" r="9.4" fill="hsl(290, 83%, 63%)" fill-opacity="0.85"  transform="translate(41.4 55.8) rotate(339.2) scale(1.43 1.35)" />
<path d="M 90.5 55.5 C 94.7 40.2, 35.2 32.9, 44.8 28.6 C 41.5 28.8, 83.4 60.2, 72.2 59.6 C 69.8 55.2, 65.5 20.5, 57.2 7.6 C 61.3 26.7, 100.0 27.1, 96.6 34.2 C 100.0 44.6, 16.5 60.1, 15.0 49.5 C 18.2 56.9, 43.5 32.2, 41.9 43.8 C 51.3 62.7, 38.5 100.0, 52.2 93.9 C 32.3 99.5, 39.5 45.7, 27.1 42.4 Z" fill="none" fill-opacity="0.44" stroke="hsl(2, 82%, 55%)" stroke-width="4.94"  transform="translate(43.3 35.4) rotate(319.6) scale(1.22 1.48)" />
<path d="M 45.5 51.1 C 39.3 68.6, 0.0 85.5, 1.7 91.5 C 17.2 100.0, 6.9 40.6, 3.3 31.2 C 16.9 36.5, 87.0 28.2, 78.1 18.3 C 88.5 6.8, 70.3 20.8, 55.5 11.9 C 44.7 11.7, 89.2 85.6, 84.3 90.4 C 83.7 100.0, 61.1 53.1, 55.3 42.0 C 36.3 60.3, 50.7 100.0, 45.4 97.7 C 25.7 100.0, 69.1 52.6, 81.0 39.3 C 63.4 31.9, 87.4 34.6, 76.8 37.6 Z" fill="none" fill-opacity="0.95" stroke="hsl(290, 83%, 63%)" stroke-width="4.10"  transform="translate(97.2 16.0) rotate(114.9) scale(0.51 0.60)" />
<path d="M 21.5 98.6 C 24.3 79.6, 49.6 2.7, 35.9 5.7 C 38.0 15.2, 22.5 79.3, 14.5 70.8 C 2.9 69.8, 89.0 23.4, 84.0 24.9 C 99.8 24.7, 32.4 0.5, 19.3 13.9 C 18.6 28.0, 62.6 45.5, 50.5 41.3 C 64.4 59.9, 62.7 54.3, 76.2 53.1 C 85.5 54.8, 73.6 45.3, 78.2 50.2 C 67.9 42.8, 78.9 30.0, 77.0 21.0 C 96.2 12.4, 17.2 35.0, 16.1 37.3 " fill="hsl(322, 74%, 44%)" fill-opacity="0.41" stroke="none" stroke-width="5.14"   />
<path d="M 91.8 30.8 C 98.7 15.5, 49.1 72.2, 50.7 68.8 C 35.9 85.9, 100.0 74.3, 94.6 72.4 C 90.4 78.9, 5.9 43.8, 2.4 44.5 C 0.0 28.8, 100.0 100.0, 97.8 86.2 C 89.1 90.3, 100.0 91.1, 99.9 94.9 C 99.0 92.1, 59.4 74.0, 74.1 84.7 C 57.4 68.6, 8.3 15.7, 1.7 19.1 C 11.9 36.9, 45.1 43.8, 57.6 56.9 C 40.3 74.2, 15.8 47.3, 25.1 40.8 C 44.7 31.0, 76.1 7.6, 79.0 1.3 Z" fill="hsl(83, 65%, 44%)" fill-opacity="0.71" stroke="none" stroke-width="3.10"  transform="translate(88.8 45.6) rotate(175.1) scale(1.05 1.93)" />
<circle cx="36.2" cy="12.1" r="3.3" fill="hsl(322, 74%, 44%)" fill-opacity="0.47"  transform="translate(16.2 95.0) rotate(212.3) scale(1.49 1.33)" />
<path d="M 84.5 78.6 C 86.2 97.8, 70.6 100.0, 77.2 92.8 C 59.8 85.5, 54.1 81.9, 61.7 76.6 C 73.3 64.6, 56.5 89.2, 49.4 92.3 C 54.8 99.3, 23.2 15.2, 8.9 7.2 C 21.9 15.4, 74.2 97.6, 65.5 98.6 C 76.8 100.0, 60.1 69.4, 65.3 69.6 C 68.5 85.3, 34.1 69.9, 40.3 74.4 C 30.9 92.8, 20.4 0.0, 27.2 6.5 C 9.2 9.3, 40.9 2.3, 29.1 2.7 C 27.7 0.0, 76.1 86.9, 68.5 87.2 Z" fill="hsl(106, 75%, 59%)" fill-opacity="0.38" stroke="none" stroke-width="4.74"  transform="translate(60.9 48.5) rotate(30.6) scale(0.58 1.80)" />
<path d="M 0.1 83.0 C 0.2 64.2, 98.4 85.5, 86.8 78.6 C 100.0 59.3, 62.6 96.6, 76.8 83.5 C 94.9 87.0, 17.6 8.1, 2.9 22.0 C 0.0 26.4, 59.2 53.7, 57.5 39.4 C 64.6 49.6, 11.8 27.6, 1.7 23.1 C 0.0 10.0, 82.2 57.2, 67.4 65.9 C 68.9 82.4, 14.3 19.2, 3.5 15.6 Z" fill="hsl(2, 82%, 55%)" fill-opacity="0.41" stroke="none" stroke-width="4.16"   />
<rect x="15.6" y="11.5" width="40.0" height="37.5" rx="16.3" fill="hsl(86, 72%, 68%)" fill-opacity="0.82" stroke="hsl(83, 65%, 44%)" stroke-width="2.7"  transform="translate(73.1 11.7) rotate(236.5) scale(1.33 1.26)" />
<path d="M 60.3 52.1 C 73.6 36.8, 92.3 89.0, 90.1 87.1 C 95.7 99.5, 63.6 23.6, 76.5 11.6 C 70.8 0.0, 100.0 23.0, 98.7 30.1 C 100.0 36.5, 21.4 63.2, 12.0 52.3 C 12.9 65.8, 45.6 42.4, 47.0 38.0 C 27.1 33.5, 0.0 79.6, 0.5 74.3 C 0.0 70.3, 8.6 23.9, 22.6 28.2 C 36.2 20.4, 84.0 86.5, 77.1 90.3 " fill="none" fill-opacity="0.46" stroke="hsl(290, 83%, 63%)" stroke-width="3.70"  transform="translate(68.1 70.6) rotate(176.4) scale(1.54 1.16)" />
<rect x="59.5" y="26.3" width="38.4" height="24.6" rx="0" fill="none" fill-opacity="0.58" stroke="hsl(104, 72%, 65%)" stroke-width="1.5"  transform="translate(33.5 44.8) rotate(3.8) scale(1.35 1.59)" />
<path d="M 54.8 21.4 C 40.8 27.5, 32.0 37.1, 46.4 41.3 C 27.4 49.4, 22.6 41.6, 11.6 27.0 C 0.1 8.1, 71.5 7.1, 61.1 19.4 C 47.3 34.7, 55.4 35.7, 46.7 27.9 C 65.4 14.8, 58.4 57.3, 72.7 59.7 C 83.3 71.3, 84.4 60.2, 89.8 54.5 C 100.0 69.0, 27.9 81.7, 42.6 79.7 C 37.3 59.7, 55.4 6.7, 65.6 13.3 C 57.4 21.2, 76.9 57.0, 62.8 53.4 C 75.1 65.6, 92.0 40.2, 88.2 38.4 Z" fill="none" fill-opacity="0.94" stroke="hsl(322, 74%, 44%)" stroke-width="1.33"  transform="translate(57.2 13.1) rotate(212.9) scale(1.56 1.78)" />
<path d="M 12.7 2.3 C 12.6 20.4, 52.3 97.0, 42.6 95.9 C 61.4 89.9, 44.6 100.0, 30.8 99.6 C 24.1 100.0, 100.0 69.5, 94.8 61.0 C 100.0 80.2, 65.1 55.0, 64.0 68.0 C 60.8 49.8, 14.5 61.1, 8.5 66.5 C 7.4 74.7, 16.6 36.6, 21.5 30.8 C 35.8 14.2, 68.6 91.8, 73.9 80.1 C 89.7 75.7, 0.0 91.6, 4.8 77.9 C 8.6 79.5, 85.6 49.0, 91.3 59.2 C 100.0 65.2, 86.2 76.2, 90.6 71.3 Z" fill="hsl(40, 53%, 69%)" fill-opacity="0.75" stroke="none" stroke-width="3.57"   />
<rect x="42.7" y="46.7" width="46.4" height="22.3" rx="0" fill="none" fill-opacity="0.55"   transform="translate(83.4 48.4) rotate(183.8) scale(1.23 1.20)" />
<path d="M 16.0 49.4 C 25.4 61.6, 10.7 4.6, 7.2 17.8 C 0.0 9.4, 68.7 59.2, 73.2 52.5 C 69.6 52.5, 16.2 14.1, 18.2 0.8 C 29.3 0.0, 55.6 5.4, 41.5 15.0 C 27.0 33.3, 87.9 100.0, 72.9 96.0 C 69.1 95.6, 43.4 1.9, 35.5 5.7 C 51.4 0.0, 100.0 65.9, 98.0 77.4 Z" fill="hsl(104, 72%, 65%)" fill-opacity="0.87" stroke="none" stroke-width="3.33"  transform="translate(20.5 27.0) rotate(337.9) scale(1.60 0.81)" />
<circle cx="64.4" cy="85.6" r="12.6" fill="hsl(83, 65%, 44%)" fill-opacity="0.71"  transform="translate(37.0 20.8) rotate(323.2) scale(0.82 1.52)" />
<path d="M 6.0 19.4 C 0.0 5.1, 0.0 37.7, 6.1 48.9 C 9.6 43.1, 33.7 7.2, 22.8 6.7 C 26.5 0.0, 1.1 87.7, 9.1 97.8 C 28.5 98.6, 56.6 92.5, 49.8 98.6 C 63.8 79.2, 31.8 75.6, 24.3 84.4 C 5.2 90.4, 78.7 100.0, 91.1 96.5 Z" fill="hsl(83, 65%, 44%)" fill-opacity="0.60" stroke="none" stroke-width="2.01"  transform="translate(27.3 23.4) rotate(166.9) scale(1.09 1.76)" />
<circle cx="48.8" cy="45.1" r="3.6" fill="hsl(40, 53%, 69%)" fill-opacity="0.73"   />
<path d="M 21.2 48.2 C 33.7 35.7, 74.5 39.9, 83.4 54.4 C 75.8 69.9, 73.6 74.2, 86.3 68.0 C 100.0 81.2, 1.7 100.0, 11.8 95.7 C 23.1 100.0, 26.8 78.1, 27.0 66.2 C 25.2 57.8, 44.8 36.7, 54.8 43.6 C 35.3 39.5, 59.2 86.2, 73.8 74.9 Z" fill="none" fill-opacity="0.70" stroke="hsl(2, 82%, 55%)" stroke-width="3.88"  transform="translate(4.1 3.2) rotate(34.7) scale(1.78 0.53)" />
<rect x="46.3" y="32.5" width="42.0" height="30.4" rx="3.9" fill="hsl(40, 53%, 69%)" fill-opacity="0.49" stroke="hsl(40, 53%, 69%)" stroke-width="3.3"  transform="translate(89.3 34.8) rotate(354.1) scale(1.22 0.66)" />
<circle cx="14.0" cy="29.5" r="15.6" fill="hsl(144, 86%, 72%)" fill-opacity="0.72"  transform="translate(25.6 58.9) rotate(100.4) scale(1.71 1.35)" />
<path d="M 23.3 73.7 C 42.1 54.4, 23.9 93.9, 37.7 87.7 C 23.6 96.1, 81.2 10.6, 79.3 15.6 C 60.5 0.0, 64.8 19.3, 68.7 31.8 C 69.3 37.9, 31.8 7.3, 40.9 16.9 C 25.9 31.0, 95.9 87.1, 93.5 80.1 C 98.8 78.5, 58.9 51.4, 65.6 57.0 C 67.6 48.0, 13.3 45.0, 1.0 37.2 C 0.0 43.7, 37.4 81.8, 25.6 72.7 C 9.4 54.2, 23.8 15.8, 31.3 14.0 C 38.5 0.0, 73.6 24.8, 87.4 30.3 Z" fill="hsl(104, 72%, 65%)" fill-opacity="0.96" stroke="none" stroke-width="5.30"  transform="translate(2.5 24.9) rotate(354.3) scale(1.53 0.63)" />
<path d="M 75.3 65.5 C 60.6 71.4, 35.3 19.3, 45.1 31.9 C 43.3 22.7, 61.5 68.7, 75.7 58.2 C 85.6 60.7, 1.6 14.0, 10.2 2.5 C 5.5 20.8, 8.9 91.2, 12.8 87.1 C 6.0 99.1, 7.1 47.1, 11.1 57.8 C 0.0 50.0, 14.6 35.7, 13.4 38.0 C 22.7 34.6, 41.0 9.0, 47.8 9.0 C 46.7 10.2, 51.6 59.1, 41.8 73.9 C 30.0 62.1, 54.2 27.7, 68.1 33.8 " fill="hsl(86, 72%, 68%)" fill-opacity="0.74" stroke="none" stroke-width="3.41"  transform="translate(47.1 56.7) rotate(222.0) scale(1.89 1.22)" />
<rect x="1.4" y="58.0" width="23.4" height="26.1" rx="0" fill="none" fill-opacity="0.25"  filter="url(#f1)" transform="translate(49.9 13.8) rotate(42.5) scale(1.47 1.90)" />
<circle cx="81.6" cy="54.7" r="4.3" fill="hsl(151, 70%, 62%)" fill-opacity="0.64"  transform="translate(45.0 70.3) rotate(281.9) scale(0.50 1.49)" />
<path d="M 64.1 3.2 C 72.2 0.0, 23.0 100.0, 9.9 86.5 C 7.4 100.0, 16.3 62.6, 19.0 49.1 C 27.1 48.2, 22.5 51.4, 31.1 57.9 C 16.1 47.2, 18.8 20.4, 16.1 15.7 C 26.9 30.9, 41.8 7.0, 35.1 15.5 C 42.4 24.3, 43.0 87.9, 51.5 87.4 C 44.5 98.1, 67.2 41.6, 66.6 34.3 C 59.8 40.3, 75.3 74.2, 77.4 66.0 Z" fill="none" fill-opacity="0.32" stroke="hsl(290, 83%, 63%)" stroke-width="0.97"  transform="translate(71.0 26.9) rotate(20.3) scale(1.51 1.22)" />
<path d="M 56.3 61.1 C 66.2 51.9, 100.0 80.8, 90.4 89.2 C 100.0 72.7, 66.3 62.7, 63.7 75.1 C 50.0 83.4, 21.9 83.5, 27.1 93.3 C 13.9 93.1, 63.7 31.9, 64.6 32.9 C 59.7 39.6, 47.6 78.3, 59.8 93.1 C 67.3 82.8, 79.9 96.0, 69.1 89.4 Z" fill="none" fill-opacity="0.36" stroke="hsl(290, 83%, 63%)" stroke-width="2.74" filter="url(#f1)" transform="translate(0.7 64.0) rotate(21.7) scale(1.12 1.69)" />
<rect x="57.5" y="65.3" width="37.6" height="32.2" rx="0" fill="hsl(322, 74%, 44%)" fill-opacity="0.35"   transform="translate(82.5 81.2) rotate(30.0) scale(0.75 0.64)" />
<circle cx="50.8" cy="7.7" r="3.2" fill="url(#g2)" fill-opacity="0.61"  transform="translate(71.0 37.9) rotate(107.4) scale(1.70 1.43)" />
<rect x="47.0" y="37.1" width="29.3" height="34.6" rx="10.5" fill="none" fill-opacity="0.31" stroke="hsl(322, 74%, 44%)" stroke-width="3.2"  transform="translate(16.4 60.7) rotate(305.9) scale(0.93 1.20)" />
<rect x="14.6" y="10.1" width="24.8" height="37.5" rx="19.5" fill="none" fill-opacity="0.45"   transform="translate(36.3 71.4) rotate(233.7) scale(1.32 1.51)" />
<path d="M 28.8 91.0 C 31.5 81.3, 72.8 70.5, 75.5 66.3 C 72.5 47.3, 16.1 33.5, 5.6 44.8 C 0.0 56.8, 75.9 40.9, 81.9 52.3 C 65.7 50.3, 56.7 32.2, 44.4 42.8 C 62.0 28.2, 12.9 60.3, 19.6 65.5 C 5.0 61.7, 100.0 42.2, 97.7 56.9 C 100.0 71.2, 5.6 48.4, 20.3 34.6 C 24.3 39.4, 10.8 71.0, 6.9 73.0 C 24.2 56.3, 32.0 57.2, 18.4 58.3 " fill="hsl(144, 86%, 72%)" fill-opacity="0.86" stroke="none" stroke-width="0.96"  transform="translate(55.0 7.3) rotate(324.6) scale(1.97 0.95)" />
<circle cx="60.0" cy="63.4" r="5.0" fill="hsl(151, 70%, 62%)" fill-opacity="0.49"  transform="translate(57.2 12.7) rotate(358.2) scale(0.64 0.82)" />
<path d="M 70.0 2.6 C 89.4 0.0, 44.6 53.9, 56.6 67.5 C 55.6 51.3, 7.4 73.5, 16.3 58.8 C 16.2 60.7, 6.6 33.9, 21.2 44.0 C 12.1 59.0, 41.9 94.5, 48.7 80.4 C 57.3 75.5, 88.1 83.1, 91.2 96.2 C 88.5 94.4, 31.8 38.1, 17.7 31.2 C 21.3 26.5, 58.7 76.4, 64.4 64.0 C 59.2 65.3, 70.4 16.0, 84.3 1.1 C 68.0 0.0, 26.4 36.8, 18.8 35.1 C 10.1 17.6, 57.9 67.8, 65.9 58.1 Z" fill="hsl(2, 82%, 55%)" fill-opacity="0.38" stroke="none" stroke-width="1.96"   />
<circle cx="42.5" cy="9.9" r="1.6" fill="url(#g1)" fill-opacity="0.81"  transform="translate(4.3 6.1) rotate(0.1) scale(1.59 0.79)" />
<rect x="25.1" y="47.3" width="22.0" height="11.9" rx="0" fill="hsl(86, 72%, 68%)" fill-opacity="0.93" stroke="hsl(86, 72%, 68%)" stroke-width="2.8"  transform="translate(82.4 64.1) rotate(200.5) scale(1.86 1.86)" />
<circle cx="7.9" cy="14.5" r="3.3" fill="hsl(322, 74%, 44%)" fill-opacity="0.45"  transform="translate(98.7 68.4) rotate(216.2) scale(0.59 1.11)" />
<path d="M 11.7 42.5 C 29.1 39.5, 66.0 88.8, 62.5 87.3 C 54.6 89.5, 91.5 16.7, 92.6 30.5 C 82.7 25.1, 75.9 35.5, 63.6 33.3 C 76.7 28.4, 79.7 65.0, 85.7 54.2 C 76.2 45.2, 5.2 70.9, 11.4 69.1 C 28.6 69.5, 25.9 15.9, 35.3 19.9 C 50.1 12.1, 40.2 95.0, 52.5 93.4 C 64.4 100.0, 94.1 100.0, 93.1 94.4 C 84.0 100.0, 81.7 25.0, 67.0 36.5 C 53.6 33.7, 59.5 93.3, 59.4 82.4 Z" fill="hsl(144, 86%, 72%)" fill-opacity="0.46" stroke="none" stroke-width="2.64"  transform="translate(13.3 33.4) rotate(166.6) scale(1.83 0.61)" />
<circle cx="73.5" cy="37.6" r="2.5" fill="hsl(86, 72%, 68%)" fill-opacity="0.53"  transform="translate(57.7 57.2) rotate(171.3) scale(0.70 0.64)" />
<path d="M 54.2 81.2 C 35.2 92.1, 24.6 62.0, 22.1 52.3 C 28.2 70.6, 19.1 50.7, 20.9 38.9 C 3.7 38.0, 20.8 93.8, 32.2 79.7 C 28.6 64.1, 100.0 31.7, 98.2 42.9 C 100.0 36.2, 95.0 42.4, 80.7 44.1 C 83.6 40.1, 65.6 14.3, 72.5 16.8 C 64.1 1.1, 88.8 39.2, 79.2 26.9 C 81.7 22.0, 80.1 60.5, 72.1 62.2 Z" fill="none" fill-opacity="0.84" stroke="hsl(83, 65%, 44%)" stroke-width="2.29"  transform="translate(1.4 14.3) rotate(128.7) scale(1.14 1.49)" />
<path d="M 39.2 14.1 C 51.8 27.9, 55.3 1.9, 64.8 0.8 C 52.1 0.0, 63.1 100.0, 50.0 99.7 C 68.5 100.0, 95.0 14.9, 95.0 10.3 C 100.0 0.3, 100.0 100.0, 87.3 96.8 C 68.6 86.4, 61.7 30.6, 57.0 28.7 C 67.9 9.2, 41.4 89.5, 53.6 89.0 C 46.8 100.0, 31.2 3.1, 43.5 16.6 C 53.6 27.7, 9.7 85.5, 18.4 84.9 C 3.3 89.2, 83.1 100.0, 82.2 92.5 " fill="none" fill-opacity="0.49" stroke="hsl(290, 83%, 63%)" stroke-width="1.38"  transform="translate(60.5 0.9) rotate(196.5) scale(0.69 0.92)" />
<circle cx="26.0" cy="57.9" r="10.7" fill="url(#g0)" fill-opacity="0.87"  transform="translate(49.5 13.7) rotate(190.0) scale(1.74 1.16)" />
<path d="M 26.8 33.6 C 12.5 37.3, 18.1 29.2, 11.3 16.9 C 4.3 0.0, 43.6 92.6, 30.5 95.1 C 36.6 93.8, 58.4 44.2, 64.8 34.5 C 68.3 16.4, 100.0 35.0, 99.9 28.6 C 97.4 29.2, 60.2 58.5, 50.1 64.1 C 67.9 80.4, 3.0 0.0, 13.9 8.4 C 3.6 24.2, 99.1 18.4, 94.7 24.7 C 84.6 22.6, 70.5 6.6, 79.7 11.1 C 96.2 0.0, 29.3 76.5, 20.9 85.5 C 38.5 88.7, 94.9 61.9, 95.3 67.8 Z" fill="none" fill-opacity="0.29" stroke="hsl(183, 71%, 60%)" stroke-width="1.29"  transform="translate(6.5 12.2) rotate(35.5) scale(0.73 0.66)" />
<path d="M 34.5 45.0 C 17.6 34.6, 100.0 100.0, 91.2 90.9 C 76.1 100.0, 42.3 10.1, 32.7 23.3 C 28.2 34.8, 25.2 79.3, 11.5 79.2 C 1.5 93.2, 79.1 5.8, 65.0 2.3 C 82.3 0.0, 30.0 22.7, 32.9 28.9 C 33.7 45.7, 96.3 44.6, 91.2 48.2 C 84.0 29.9, 77.1 92.4, 90.5 83.6 C 79.5 74.9, 74.2 50.7, 77.7 43.3 C 68.7 42.8, 24.3 85.1, 29.9 89.5 Z" fill="none" fill-opacity="0.37" stroke="hsl(2, 82%, 55%)" stroke-width="2.95"  transform="translate(81.1 14.0) rotate(269.7) scale(1.11 1.29)" />
<path d="M 83.5 19.1 C 85.0 3.7, 80.7 91.0, 79.7 81.1 C 74.2 62.4, 77.1 87.8, 76.9 96.5 C 79.0 83.4, 29.8 14.6, 34.8 19.1 C 22.7 38.6, 0.0 19.4, 8.7 29.6 C 0.0 11.8, 38.2 92.6, 40.9 78.1 C 41.8 63.5, 6.6 0.0, 14.1 10.4 C 16.9 8.7, 7.3 71.6, 5.4 69.6 C 0.4 85.2, 22.3 47.8, 23.8 41.8 Z" fill="hsl(106, 75%, 59%)" fill-opacity="0.93" stroke="none" stroke-width="4.36"  transform="translate(56.5 75.4) rotate(33.5) scale(1.77 1.03)" />
<path d="M 31.3 80.8 C 39.3 66.1, 15.4 24.2, 20.2 12.2 C 25.5 19.8, 10.4 85.0, 22.8 76.7 C 17.0 65.0, 24.4 59.1, 13.7 45.6 C 25.4 34.5, 8.4 15.5, 11.6 13.8 C 17.5 0.0, 86.3 4.0, 99.7 18.5 C 100.0 31.7, 65.8 36.6, 54.2 27.2 C 46.9 37.0, 81.4 78.7, 69.9 79.3 C 71.7 96.3, 58.3 0.0, 66.1 6.5 Z" fill="none" fill-opacity="0.58" stroke="hsl(83, 65%, 44%)" stroke-width="1.67" filter="url(#f1)" transform="translate(5.3 25.3) rotate(102.6) scale(1.32 1.17)" />
<path d="M 85.9 85.5 C 87.5 95.7, 0.0 28.9, 3.1 25.7 C 21.7 28.1, 88.4 26.4, 87.1 30.1 C 96.2 46.8, 82.9 88.1, 76.3 75.0 C 62.3 77.0, 12.7 80.4, 11.0 90.0 C 1.7 100.0, 38.3 68.0, 33.4 55.3 C 35.6 71.9, 0.0 46.1, 11.5 33.0 C 12.6 40.4, 42.9 12.7, 53.2 24.1 C 71.9 33.8, 27.8 68.4, 24.8 53.6 C 22.9 68.8, 69.0 0.0, 81.1 7.1 Z" fill="none" fill-opacity="0.65" stroke="hsl(183, 71%, 60%)" stroke-width="4.48" filter="url(#f1)" transform="translate(99.0 78.6) rotate(195.1) scale(1.92 1.39)" />
<rect x="6.1" y="59.7" width="45.2" height="23.1" rx="3.5" fill="hsl(104, 72%, 65%)" fill-opacity="0.43" stroke="hsl(40, 53%, 69%)" stroke-width="1.9" filter="url(#f1)" transform="translate(41.5 57.4) rotate(80.7) scale(1.76 1.94)" />
<circle cx="18.3" cy="51.9" r="5.2" fill="url(#g2)" fill-opacity="0.63"  transform="translate(58.8 89.7) rotate(107.7) scale(0.99 0.95)" />
<path d="M 75.6 0.2 C 73.9 2.7, 87.6 45.7, 75.9 47.8 C 76.7 44.1, 100.0 66.9, 97.4 73.0 C 92.1 53.7, 91.8 85.6, 89.5 99.6 C 100.0 87.7, 21.8 49.5, 27.9 38.1 C 26.6 39.2, 23.4 43.6, 22.5 31.6 C 14.7 17.8, 41.1 32.4, 44.7 27.7 C 52.2 10.6, 32.8 45.0, 27.0 58.3 Z" fill="hsl(183, 71%, 60%)" fill-opacity="0.42" stroke="none" stroke-width="1.45"   />
<rect x="71.3" y="38.8" width="23.2" height="34.6" rx="7.7" fill="none" fill-opacity="0.75" stroke="hsl(106, 75%, 59%)" stroke-width="5.0"  transform="translate(99.2 21.8) rotate(136.2) scale(1.54 0.51)" />
<path d="M 75.7 95.8 C 86.7 98.4, 78.1 100.0, 76.3 91.3 C 95.7 91.5, 48.8 39.9, 49.5 33.8 C 61.8 52.3, 84.5 23.0, 82.4 31.5 C 78.7 35.7, 59.9 40.3, 59.5 41.7 C 63.8 22.8, 33.3 71.4, 44.6 84.1 C 45.7 68.8, 100.0 32.8, 98.2 31.6 C 100.0 33.0, 100.0 32.9, 98.7 27.6 C 100.0 34.0, 32.1 100.0, 27.0 89.6 C 13.4 73.1, 21.5 89.7, 31.5 75.2 Z" fill="none" fill-opacity="0.32" stroke="hsl(290, 83%, 63%)" stroke-width="4.48"  transform="translate(28.6 19.6) rotate(99.3) scale(0.97 0.65)" />
<circle cx="54.5" cy="58.7" r="15.9" fill="url(#g1)" fill-opacity="0.92"  transform="translate(81.9 37.0) rotate(199.5) scale(1.03 1.83)" />
<path d="M 17.4 73.8 C 21.4 59.6, 32.1 59.0, 31.4 69.2 C 43.8 54.7, 20.9 25.3, 9.7 16.3 C 8.2 7.7, 63.2 21.9, 49.6 34.8 C 34.2 39.5, 79.6 12.8, 90.0 1.2 C 91.8 0.0, 6.9 55.1, 13.1 68.1 C 22.9 49.8, 36.5 79.0, 40.9 72.9 C 22.2 65.5, 66.6 0.1, 76.9 8.9 Z" fill="hsl(290, 83%, 63%)" fill-opacity="0.85" stroke="none" stroke-width="1.30"  transform="translate(25.4 51.6) rotate(192.9) scale(1.11 0.61)" />
<path d="M 69.0 92.2 C 82.3 79.5, 0.0 58.3, 4.9 52.7 C 18.7 46.0, 7.0 67.1, 0.5 81.8 C 2.4 80.4, 77.3 98.5, 79.8 97.8 C 74.8 83.5, 33.8 100.0, 42.8 93.4 C 40.3 97.7, 79.2 33.6, 71.8 19.0 C 66.1 17.9, 25.5 80.4, 13.1 77.6 C 4.5 70.8, 93.6 79.8, 87.2 71.2 C 72.8 73.4, 77.6 67.2, 91.6 62.6 " fill="hsl(322, 74%, 44%)" fill-opacity="0.87" stroke="none" stroke-width="3.80"  transform="translate(86.3 89.7) rotate(159.4) scale(0.88 1.26)" />
<rect x="40.2" y="53.0" width="26.2" height="27.0" rx="0" fill="none" fill-opacity="0.46" stroke="hsl(86, 72%, 68%)" stroke-width="1.6"  transform="translate(87.3 23.4) rotate(262.2) scale(1.64 1.01)" />
<circle cx="74.3" cy="90.5" r="2.9" fill="hsl(144, 86%, 72%)" fill-opacity="0.76"  transform="translate(99.4 81.9) rotate(308.1) scale(0.62 1.08)" />
<rect x="18.6" y="46.9" width="42.9" height="28.4" rx="0" fill="hsl(83, 65%, 44%)" fill-opacity="0.59"   transform="translate(11.1 44.8) rotate(312.4) scale(1.02 1.71)" />
<path d="M 60.8 69.4 C 79.5 70.5, 54.4 19.7, 48.3 11.7 C 65.5 20.9, 94.0 12.8, 79.1 26.5 C 95.9 31.5, 22.8 37.7, 23.2 30.5 C 39.9 35.3, 58.6 51.4, 58.4 45.7 C 66.3 55.0, 27.3 64.2, 19.3 65.8 C 8.8 47.7, 32.1 0.0, 44.8 2.1 C 36.3 0.0, 38.0 0.0, 43.6 1.1 Z" fill="hsl(86, 72%, 68%)" fill-opacity="0.64" stroke="none" stroke-width="0.98" filter="url(#f1)" transform="translate(12.4 40.2) rotate(65.8) scale(0.70 1.85)" />
<path d="M 33.7 19.7 C 28.9 7.8, 59.1 7.2, 74.1 15.3 C 76.2 26.7, 43.9 54.9, 38.7 67.3 C 46.7 83.4, 49.9 24.6, 58.5 9.8 C 44.6 11.7, 21.1 68.4, 16.7 61.3 C 17.8 48.1, 61.8 0.1, 57.4 11.4 C 54.5 20.0, 45.2 26.3, 33.2 28.0 C 15.5 47.9, 69.8 0.0, 61.8 12.0 Z" fill="none" fill-opacity="0.96" stroke="hsl(104, 72%, 65%)" stroke-width="3.03" filter="url(#f1)" transform="translate(58.0 25.0) rotate(316.0) scale(1.83 1.50)" />
<circle cx="17.2" cy="62.2" r="1.7" fill="hsl(40, 53%, 69%)" fill-opacity="0.65"  transform="translate(92.3 75.8) rotate(59.0) scale(1.83 1.47)" />
<path d="M 91.3 35.2 C 73.3 35.8, 26.3 45.5, 21.9 32.1 C 13.4 28.7, 30.9 95.8, 29.8 96.1 C 34.9 98.3, 41.9 5.1, 44.4 5.5 C 38.1 19.8, 34.7 72.0, 31.6 58.7 C 48.7 74.6, 45.6 0.7, 46.4 1.2 C 53.7 0.0, 98.1 45.7, 94.6 56.2 C 93.6 64.0, 96.4 4.6, 87.4 10.5 C 83.1 0.0, 6.8 75.9, 2.4 63.4 Z" fill="hsl(40, 53%, 69%)" fill-opacity="0.83" stroke="none" stroke-width="3.96"  transform="translate(70.3 95.1) rotate(147.0) scale(0.83 0.88)" />
<rect x="36.3" y="5.7" width="30.9" height="36.7" rx="1.9" fill="hsl(144, 86%, 72%)" fill-opacity="0.36" stroke="hsl(40, 53%, 69%)" stroke-width="4.8"  transform="translate(73.1 87.4) rotate(328.0) scale(1.83 1.98)" />
<path d="M 33.9 83.8 C 32.0 84.6, 48.4 11.7, 37.4 13.3 C 50.4 27.4, 32.4 58.5, 20.5 44.9 C 16.6 29.3, 71.0 80.3, 80.2 82.9 C 81.4 95.7, 95.5 28.7, 80.6 33.6 C 78.8 25.2, 4.4 46.5, 15.3 43.0 C 25.5 48.0, 29.2 51.3, 43.7 51.9 C 49.0 71.8, 0.1 39.5, 10.3 26.2 C 13.2 40.4, 29.9 87.3, 30.0 89.0 C 22.6 80.6, 0.0 36.5, 4.2 41.2 Z" fill="none" fill-opacity="0.42" stroke="hsl(183, 71%, 60%)" stroke-width="4.82"  transform="translate(57.2 22.4) rotate(48.7) scale(0.67 0.98)" />
<rect x="26.6" y="21.7" width="23.7" height="31.7" rx="19.8" fill="hsl(83, 65%, 44%)" fill-opacity="0.78" stroke="hsl(290, 83%, 63%)" stroke-width="1.2"   />
<circle cx="90.5" cy="44.2" r="4.5" fill="hsl(83, 65%, 44%)" fill-opacity="0.76"  transform="translate(82.1 50.4) rotate(292.1) scale(1.78 0.54)" />
<g opacity="0.050">
<rect x="0" y="0" width="1" height="100" fill="black" />
<rect x="22" y="0" width="1" height="100" fill="black" />
<rect x="44" y="0" width="1" height="100" fill="black" />
<rect x="66" y="0" width="1" height="100" fill="black" />
<rect x="88" y="0" width="1" height="100" fill="black" />
<rect x="0" y="0" width="100" height="1" fill="black" />
<rect x="0" y="22" width="100" height="1" fill="black" />
<rect x="0" y="44" width="100" height="1" fill="black" />
<rect x="0" y="66" width="100" height="1" fill="black" />
<rect x="0" y="88" width="100" height="1" fill="black" />
</g>

</svg>
