<?xml version="1.0" encoding="UTF-8"?>
<svg xmlns="http://www.w3.org/2000/svg" width="100" height="100" viewBox="0 0 100 100">
<defs>
<linearGradient id="g0" x1="0%" y1="0%" x2="100%" y2="100%">
<stop offset="0.0%" stop-color="hsl(106, 75%, 59%)" />
<stop offset="33.3%" stop-color="hsl(183, 71%, 60%)" />
<stop offset="66.7%" stop-color="hsl(242, 72%, 49%)" />
<stop offset="100.0%" stop-color="hsl(322, 74%, 44%)" />
</linearGradient>
<linearGradient id="g1" x1="0%" y1="0%" x2="100%" y2="100%">
<stop offset="0.0%" stop-color="hsl(290, 83%, 63%)" />
<stop offset="33.3%" stop-color="hsl(2, 82%, 55%)" />
<stop offset="66.7%" stop-color="hsl(86, 72%, 68%)" />
<stop offset="100.0%" stop-color="hsl(83, 65%, 44%)" />
</linearGradient>
<linearGradient id="g2" x1="0%" y1="0%" x2="100%" y2="100%">
<stop offset="0.0%" stop-color="hsl(40, 53%, 69%)" />
<stop offset="33.3%" stop-color="hsl(104, 72%, 65%)" />
<stop offset="66.7%" stop-color="hsl(144, 86%, 72%)" />
<stop offset="100.0%" stop-color="hsl(151, 70%, 62%)" />
</linearGradient>
<filter id="f1" x="-20%" y="-20%" width="140%" height="140%">
  <feGaussianBlur stdDeviation="1.1059354617734707" />
</filter>

</defs>

<path d="M 31.8 12.5 C 35.2 5.4, 24.3 29.3, 21.3 27.1 C 31.6 34.8, 31.3 80.4, 22.4 81.2 C 21.4 99.7, 80.1 73.3, 75.5 63.2 C 65.9 49.6, 53.5 25.7, 62.4 34.9 C 79.9 42.5, 94.2 48.6, 87.3 40.7 C 75.2 45.0, 38.6 80.1, 32.6 69.6 " fill="none" fill-opacity="0.47" stroke="hsl(2, 82%, 55%)" stroke-width="2.74" filter="url(#f1)" transform="translate(61.6 25.0) rotate(159.5) scale(1.05 0.68)" />
<path d="M 49.2 11.3 C 59.6 0.0, 46.3 78.8, 52.2 78.1 C 45.8 65.0, 85.7 81.8, 71.3 88.5 C 72.6 100.0, 48.4 22.3, 38.2 32.1 C 22.9 24.2, 89.8 51.1, 94.0 64.3 C 84.1 52.2, 27.3 51.8, 28.5 44.5 C 32.7 34.6, 35.3 21.9, 43.8 28.5 C 61.5 25.7, 56.7 7.3, 63.2 19.4 C 64.9 12.2, 87.4 76.3, 75.3 64.4 C 79.8 63.2, 49.5 20.7, 46.1 11.9 Z" fill="hsl(40, 53%, 69%)" fill-opacity="0.44" stroke="none" stroke-width="3.90"  transform="translate(74.1 20.7) rotate(39.3) scale(0.50 1.96)" />
<rect x="14.3" y="74.4" width="43.9" height="10.6" rx="12.4" fill="hsl(104, 72%, 65%)" fill-opacity="0.92"   transform="translate(21.7 29.2) rotate(20.3) scale(1.56 1.28)" />
<path d="M 69.4 75.0 C 82.0 62.2, 73.3 34.7, 60.6 33.9 C 55.6 25.6, 89.4 27.7, 77.2 32.6 C 68.5 39.7, 15.3 78.4, 17.9 74.9 C 6.9 62.3, 68.7 41.7, 67.5 33.4 C 73.2 47.1, 39.1 69.0, 36.1 60.5 C 47.8 60.9, 14.5 82.0, 7.1 76.2 C 14.3 71.1, 100.0 54.4, 94.3 45.2 C 75.2 37.9, 67.2 28.0, 65.0 18.0 C 81.8 22.3, 38.3 32.1, 50.2 24.3 Z" fill="none" fill-opacity="0.76" stroke="hsl(83, 65%, 44%)" stroke-width="2.72"  transform="translate(11.2 28.7) rotate(64.1) scale(1.58 0.65)" />
<path d="M 58.2 27.2 C 71.2 41.5, 3.0 5.1, 8.6 16.9 C 0.0 25.9, 30.6 73.6, 17.9 61.4 C 17.9 63.5, 60.6 49.8, 74.8 51.0 C 83.0 34.7, 67.6 60.1, 62.3 49.8 C 57.2 60.9, 35.2 100.0, 30.2 95.5 C 40.2 93.0, 77.3 92.6, 82.6 88.7 Z" fill="none" fill-opacity="0.58" stroke="hsl(322, 74%, 44%)" stroke-width="4.39"   />
<circle cx="61.4" cy="42.6" r="14.1" fill="url(#g1)" fill-opacity="0.93" filter="url(#f1)"  />
<path d="M 92.6 85.3 C 98.4 99.7, 90.5 13.1, 80.8 9.6 C 100.0 2.1, 28.5 13.8, 14.1 2.3 C 27.8 0.0, 52.8 31.7, 38.4 17.6 C 52.5 6.6, 81.6 0.2, 96.5 2.9 C 77.2 7.8, 54.0 19.2, 47.2 8.8 C 61.0 0.0, 78.3 100.0, 65.5 96.1 C 84.8 100.0, 49.1 70.6, 48.6 81.2 Z" fill="none" fill-opacity="0.35" stroke="hsl(151, 70%, 62%)" stroke-width="4.14"  transform="translate(56.3 35.3) rotate(333.4) scale(1.32 1.69)" />
<circle cx="54.0" cy="46.5" r="3.5" fill="hsl(2, 82%, 55%)" fill-opacity="0.61"  transform="translate(95.4 93.5) rotate(162.8) scale(1.32 1.38)" />
<rect x="49.8" y="28.3" width="36.5" height="38.2" rx="9.7" fill="none" fill-opacity="0.53"   transform="translate(44.6 49.7) rotate(190.6) scale(1.70 0.79)" />
<path d="M 77.1 89.3 C 92.1 84.7, 36.0 12.3, 50.2 20.2 C 35.8 18.8, 60.5 44.0, 50.0 29.1 C 40.7 12.2, 90.6 84.6, 90.0 75.6 C 98.9 78.0, 12.3 49.1, 1.8 55.9 C 13.7 60.6, 18.2 59.9, 13.7 53.6 C 26.4 53.1, 93.5 41.4, 87.2 48.6 Z" fill="none" fill-opacity="0.82" stroke="hsl(183, 71%, 60%)" stroke-width="2.42"  transform="translate(60.0 78.9) rotate(261.8) scale(0.54 1.99)" />
<circle cx="33.4" cy="54.2" r="2.8" fill="url(#g2)" fill-opacity="0.71"  transform="translate(60.0 66.7) rotate(87.7) scale(1.19 1.20)" />
<path d="M 80.1 93.0 C 96.8 79.5, 84.9 3.4, 73.7 9.5 C 87.3 0.0, 59.1 61.2, 49.0 75.5 C 48.1 78.5, 83.3 41.5, 76.4 31.7 C 96.1 34.4, 6.3 31.1, 0.2 41.2 C 0.0 35.7, 89.2 42.2, 92.6 56.1 C 100.0 70.5, 3.7 95.4, 10.6 96.7 C 5.0 81.8, 78.5 23.3, 75.5 37.9 Z" fill="none" fill-opacity="0.94" stroke="hsl(290, 83%, 63%)" stroke-width="1.15"  transform="translate(51.5 81.2) rotate(8.5) scale(1.37 0.82)" />
<rect x="31.2" y="10.3" width="22.7" height="37.6" rx="19.2" fill="none" fill-opacity="0.69"   transform="translate(51.5 86.4) rotate(187.7) scale(1.85 0.89)" />
<path d="M 40.1 69.1 C 53.3 78.9, 100.0 3.3, 98.7 5.1 C 86.3 0.0, 69.9 74.7, 73.9 85.2 C 60.5 95.4, 78.9 0.0, 93.6 0.5 C 88.4 13.3, 69.3 51.1, 78.6 37.1 C 71.2 54.3, 24.4 60.6, 23.0 71.0 C 6.8 70.1, 90.4 39.5, 90.6 35.3 C 84.8 41.7, 85.5 6.8, 72.4 3.7 Z" fill="none" fill-opacity="0.91" stroke="hsl(86, 72%, 68%)" stroke-width="3.38"  transform="translate(81.8 81.2) rotate(74.1) scale(0.52 1.00)" />
<path d="M 66.4 97.2 C 59.9 94.5, 95.1 49.8, 80.1 59.5 C 89.1 40.1, 21.1 32.9, 31.0 32.2 C 49.2 14.7, 38.5 23.3, 48.6 28.7 C 50.8 15.8, 83.4 82.4, 83.2 72.2 C 87.9 59.5, 65.4 37.0, 65.5 38.3 C 78.8 47.1, 15.0 52.8, 14.8 62.6 C 3.3 73.3, 77.1 18.3, 86.5 22.7 C 85.5 36.2, 96.9 33.2, 93.0 20.8 C 91.3 22.0, 17.3 100.0, 16.0 95.7 C 34.4 80.2, 78.5 40.3, 78.7 39.6 " fill="hsl(2, 82%, 55%)" fill-opacity="0.75" stroke="none" stroke-width="4.00"  transform="translate(99.8 79.1) rotate(277.5) scale(0.91 0.96)" />
<path d="M 20.8 51.3 C 19.1 35.7, 65.2 10.9, 54.0 8.6 C 59.4 10.3, 68.0 0.0, 70.4 2.0 C 84.4 6.7, 40.5 98.0, 48.2 93.4 C 58.1 89.4, 72.2 30.7, 81.4 15.9 C 78.3 0.0, 8.8 51.7, 16.8 46.1 C 34.1 61.4, 32.6 86.1, 23.8 78.4 C 34.4 62.9, 75.5 0.0, 61.3 2.4 C 44.2 0.6, 69.6 56.9, 76.7 59.8 C 78.5 55.9, 78.6 88.4, 81.6 90.3 C 64.4 89.9, 100.0 30.8, 97.7 24.3 " fill="hsl(83, 65%, 44%)" fill-opacity="0.66" stroke="none" stroke-width="0.94"  transform="translate(92.6 93.7) rotate(109.5) scale(1.42 1.42)" />
<path d="M 79.4 31.8 C 99.2 13.4, 31.1 46.1, 35.8 53.3 C 44.2 45.0, 54.8 49.3, 60.1 45.0 C 75.6 48.1, 9.1 56.5, 8.9 58.6 C 25.7 72.5, 52.3 8.4, 55.1 4.5 C 58.4 8.6, 53.7 51.5, 60.3 38.3 C 48.6 21.4, 50.0 100.0, 51.4 91.8 Z" fill="hsl(106, 75%, 59%)" fill-opacity="0.29" stroke="none" stroke-width="2.33"   />
<circle cx="1.5" cy="86.3" r="17.1" fill="url(#g0)" fill-opacity="0.71"  transform="translate(90.8 62.9) rotate(235.1) scale(1.91 0.81)" />
<rect x="59.2" y="29.3" width="29.4" height="29.0" rx="12.2" fill="none" fill-opacity="0.70"   transform="translate(45.6 92.3) rotate(84.1) scale(1.49 0.72)" />
<path d="M 2.2 80.1 C 2.0 91.6, 42.4 82.1, 36.1 90.8 C 21.7 78.8, 45.8 20.2, 44.9 18.3 C 33.7 6.3, 79.3 2.5, 77.4 8.8 C 60.4 0.0, 50.3 54.6, 47.3 42.1 C 58.5 25.4, 91.7 67.5, 80.0 55.0 C 84.4 70.2, 48.3 91.9, 48.8 99.4 C 50.3 100.0, 26.8 98.9, 40.3 91.7 C 39.4 100.0, 0.0 67.0, 4.2 80.1 C 0.0 99.6, 43.2 71.5, 54.6 72.1 Z" fill="hsl(290, 83%, 63%)" fill-opacity="0.31" stroke="none" stroke-width="2.59"  transform="translate(94.4 78.0) rotate(172.8) scale(1.57 1.42)" />
<path d="M 48.1 86.0 C 55.4 79.4, 73.8 31.1, 72.5 20.3 C 55.1 24.0, 74.6 57.5, 65.9 46.4 C 58.4 60.5, 57.0 51.2, 47.6 40.2 C 64.5 57.9, 31.6 97.1, 37.7 98.7 C 27.6 100.0, 64.2 68.1, 69.4 65.1 C 59.4 70.0, 83.3 26.0, 85.7 25.4 C 86.9 35.5, 42.1 69.8, 44.6 67.9 C 29.1 80.4, 48.1 29.4, 61.2 21.7 C 72.3 19.3, 8.0 51.3, 3.5 47.4 " fill="none" fill-opacity="0.51" stroke="hsl(183, 71%, 60%)" stroke-width="3.05" filter="url(#f1)" transform="translate(86.4 77.8) rotate(24.2) scale(0.67 1.36)" />
<path d="M 0.3 19.7 C 0.0 13.6, 52.6 8.4, 41.7 0.4 C 45.7 2.3, 69.8 29.1, 71.6 14.7 C 82.2 11.5, 73.3 6.3, 79.0 12.0 C 60.6 13.4, 76.4 92.0, 81.5 91.3 C 95.0 100.0, 56.1 14.7, 63.0 15.1 C 63.4 34.4, 88.0 74.1, 84.1 78.1 Z" fill="none" fill-opacity="0.54" stroke="hsl(151, 70%, 62%)" stroke-width="1.14"  transform="translate(65.0 47.7) rotate(357.4) scale(0.56 1.78)" />
<rect x="64.7" y="59.8" width="34.1" height="19.0" rx="0" fill="hsl(144, 86%, 72%)" fill-opacity="0.50"   transform="translate(52.8 3.4) rotate(115.8) scale(0.73 0.72)" />
<path d="M 24.5 74.1 C 11.3 78.5, 89.8 71.8, 88.5 61.4 C 84.3 68.3, 78.3 47.7, 81.4 61.2 C 70.0 67.7, 0.0 84.0, 10.9 88.0 C 8.8 84.2, 44.3 83.2, 29.5 90.3 C 19.4 99.4, 17.0 48.3, 6.9 53.0 C 21.5 45.9, 48.5 51.7, 35.5 57.7 C 34.0 66.2, 16.4 15.6, 14.9 2.1 C 1.3 15.5, 32.0 46.6, 28.2 36.2 " fill="hsl(183, 71%, 60%)" fill-opacity="0.50" stroke="none" stroke-width="4.67"  transform="translate(50.5 20.4) rotate(33.1) scale(1.88 1.39)" />
<path d="M 48.1 86.4 C 43.5 100.0, 58.2 55.6, 58.8 55.7 C 71.8 36.4, 39.3 56.6, 36.8 65.2 C 41.9 66.9, 36.7 61.4, 42.8 48.5 C 40.4 54.7, 13.8 81.2, 17.3 75.9 C 13.8 65.3, 18.2 78.3, 25.7 86.6 C 9.9 83.9, 41.6 53.7, 43.2 60.0 C 56.1 47.2, 39.8 81.2, 53.3 87.2 C 37.5 74.7, 100.0 70.2, 99.8 67.4 C 100.0 62.4, 80.3 64.7, 92.9 61.4 Z" fill="hsl(322, 74%, 44%)" fill-opacity="0.74" stroke="none" stroke-width="3.58"  transform="translate(11.0 64.6) rotate(65.7) scale(1.81 0.80)" />
<path d="M 86.8 74.1 C 95.5 81.0, 62.3 10.7, 70.9 4.7 C 55.0 11.5, 82.5 17.6, 92.8 4.7 C 100.0 4.2, 70.7 18.0, 73.3 23.7 C 82.3 24.8, 81.2 65.4, 76.1 65.4 C 80.0 74.1, 100.0 1.0, 96.3 14.4 C 100.0 7.4, 43.1 72.1, 37.5 82.0 C 29.0 81.0, 36.4 100.0, 36.3 93.7 C 24.8 100.0, 86.5 69.2, 78.9 65.4 C 60.8 67.6, 100.0 4.2, 94.7 11.4 C 84.1 18.7, 79.6 78.3, 89.9 86.9 Z" fill="none" fill-opacity="0.69" stroke="hsl(290, 83%, 63%)" stroke-width="1.00"  transform="translate(77.0 42.5) rotate(17.9) scale(1.95 0.52)" />
<path d="M 48.6 16.5 C 38.5 35.8, 0.0 98.9, 4.2 96.6 C 16.3 100.0, 28.0 62.3, 39.8 73.6 C 24.9 86.7, 61.0 88.2, 67.2 79.2 C 56.7 86.1, 85.6 17.0, 90.6 19.6 C 72.5 33.2, 23.8 67.4, 19.0 72.2 C 25.0 87.6, 16.3 42.1, 30.6 42.5 C 25.6 40.6, 48.2 25.8, 61.6 26.6 C 81.0 19.7, 36.4 76.1, 50.4 72.9 C 31.0 73.8, 100.0 15.5, 95.1 29.9 Z" fill="hsl(144, 86%, 72%)" fill-opacity="0.80" stroke="none" stroke-width="4.27"  transform="translate(46.7 32.4) rotate(318.3) scale(1.17 1.32)" />
<path d="M 76.6 30.8 C 68.7 13.1, 28.8 82.4, 20.9 88.6 C 2.0 100.0, 80.4 68.2, 65.7 72.6 C 77.1 79.1, 13.8 61.4, 19.7 67.7 C 6.8 87.4, 100.0 34.2, 98.8 26.5 C 100.0 24.0, 57.1 65.7, 70.3 72.0 C 70.8 72.3, 4.6 22.1, 1.3 20.2 Z" fill="hsl(86, 72%, 68%)" fill-opacity="0.88" stroke="none" stroke-width="4.90"  transform="translate(84.1 96.8) rotate(301.7) scale(0.52 1.00)" />
<rect x="49.1" y="85.2" width="37.2" height="11.8" rx="17.5" fill="hsl(2, 82%, 55%)" fill-opacity="0.23"   transform="translate(75.0 65.9) rotate(266.2) scale(1.82 1.34)" />
<path d="M 23.6 41.9 C 5.0 36.8, 96.7 99.9, 88.7 96.3 C 70.7 79.9, 5.6 25.4, 7.5 10.5 C 0.0 14.6, 46.0 40.2, 45.7 33.8 C 60.9 26.1, 15.5 72.2, 13.9 86.8 C 0.0 70.8, 87.7 29.1, 88.9 20.3 C 91.9 24.4, 49.8 13.6, 35.0 25.1 C 46.4 9.2, 74.9 68.6, 77.8 60.1 C 75.1 74.2, 81.6 19.3, 89.1 17.0 " fill="none" fill-opacity="0.26" stroke="hsl(322, 74%, 44%)" stroke-width="4.20"   />
<path d="M 95.2 67.7 C 92.4 84.8, 6.5 79.8, 5.0 92.9 C 2.3 90.2, 11.7 36.4, 21.4 46.1 C 39.9 59.7, 21.5 98.2, 29.3 93.2 C 43.3 74.8, 91.7 27.8, 87.3 17.1 C 80.5 27.8, 38.7 12.2, 33.0 24.7 C 18.3 15.9, 66.7 29.3, 71.4 16.2 Z" fill="none" fill-opacity="0.94" stroke="hsl(144, 86%, 72%)" stroke-width="2.29"  transform="translate(73.6 93.0) rotate(3.1) scale(1.17 0.67)" />
<path d="M 67.8 90.2 C 50.6 94.6, 65.0 100.0, 70.2 90.0 C 62.3 86.7, 74.1 22.8, 72.3 8.3 C 61.8 0.0, 28.6 58.8, 39.0 65.8 C 35.9 77.2, 85.5 74.5, 87.2 77.3 C 69.8 81.0, 100.0 76.6, 99.7 76.6 C 100.0 61.2, 57.3 8.0, 44.1 2.0 C 49.4 17.6, 16.3 86.7, 14.4 79.8 C 0.0 76.9, 35.1 58.2, 29.8 69.1 Z" fill="none" fill-opacity="0.52" stroke="hsl(242, 72%, 49%)" stroke-width="3.82"  transform="translate(34.4 86.3) rotate(122.0) scale(1.43 1.66)" />
<rect x="51.9" y="62.9" width="47.7" height="34.1" rx="1.8" fill="none" fill-opacity="0.70"   transform="translate(51.6 20.8) rotate(352.9) scale(1.88 0.57)" />
<rect x="45.7" y="25.5" width="45.7" height="34.2" rx="0" fill="hsl(106, 75%, 59%)" fill-opacity="0.63"    />
<path d="M 98.3 85.7 C 89.6 89.9, 82.3 99.6, 77.1 91.8 C 93.9 72.0, 65.5 50.6, 64.9 36.4 C 49.2 17.9, 54.6 49.5, 61.6 51.8 C 44.2 38.0, 66.9 26.3, 64.3 15.5 C 65.4 35.3, 54.2 76.2, 43.3 90.6 C 39.5 94.8, 39.0 99.3, 35.8 91.7 C 44.8 90.4, 49.9 53.2, 38.2 56.1 C 56.3 58.3, 0.0 100.0, 10.8 95.3 C 7.5 87.0, 86.6 100.0, 90.6 87.7 Z" fill="hsl(242, 72%, 49%)" fill-opacity="0.32" stroke="none" stroke-width="3.59"  transform="translate(14.3 15.0) rotate(103.9) scale(1.36 1.69)" />
<rect x="37.0" y="28.4" width="31.1" height="38.4" rx="0" fill="none" fill-opacity="0.53"   transform="translate(0.6 84.7) rotate(349.5) scale(1.83 0.74)" />
<path d="M 35.5 28.8 C 30.9 29.0, 66.1 32.4, 76.6 28.3 C 71.6 24.2, 46.2 10.8, 38.5 7.2 C 39.8 25.2, 90.7 73.6, 86.8 84.8 C 74.5 79.1, 23.1 85.2, 27.3 74.0 C 41.0 65.8, 36.3 84.4, 34.6 94.5 C 17.8 100.0, 77.6 100.0, 88.1 99.8 C 95.7 89.5, 72.5 67.1, 70.2 76.2 C 89.5 75.2, 44.2 14.4, 52.1 24.7 C 54.0 30.3, 100.0 42.1, 93.8 32.4 Z" fill="none" fill-opacity="0.26" stroke="hsl(144, 86%, 72%)" stroke-width="3.99"  transform="translate(82.5 9.6) rotate(148.6) scale(1.32 1.77)" />
<path d="M 24.0 10.2 C 11.3 17.4, 94.1 49.1, 87.0 61.4 C 78.7 58.0, 47.7 10.2, 35.9 15.1 C 50.9 14.5, 34.1 70.2, 24.5 57.1 C 28.6 46.1, 30.3 2.8, 17.0 12.0 C 10.0 23.0, 40.8 83.7, 27.2 96.7 C 34.8 100.0, 55.6 62.9, 65.6 72.0 C 64.5 75.6, 0.0 56.1, 2.2 70.0 C 0.0 63.7, 37.3 20.0, 34.2 21.9 C 26.1 5.4, 33.6 68.5, 28.6 71.5 Z" fill="hsl(151, 70%, 62%)" fill-opacity="0.70" stroke="none" stroke-width="3.51"  transform="translate(74.7 99.7) rotate(7.8) scale(1.91 0.68)" />
<rect x="6.9" y="6.1" width="24.8" height="11.6" rx="11.6" fill="none" fill-opacity="0.42" stroke="hsl(242, 72%, 49%)" stroke-width="3.9"  transform="translate(67.2 19.6) rotate(145.1) scale(0.52 1.27)" />
<rect x="1.0" y="73.4" width="26.3" height="10.1" rx="16.2" fill="none" fill-opacity="0.76"   transform="translate(42.3 71.4) rotate(117.1) scale(0.93 0.97)" />
<path d="M 64.7 35.7 C 61.0 50.8, 89.4 65.3, 99.6 52.5 C 95.4 40.7, 83.6 58.3, 90.0 60.5 C 100.0 74.2, 13.1 63.3, 11.2 52.5 C 11.7 55.2, 91.9 26.6, 96.1 22.1 C 94.2 20.2, 26.9 13.7, 21.2 17.5 C 14.0 37.3, 29.5 7.1, 44.3 17.3 C 35.8 30.4, 18.9 6.2, 9.4 5.7 C 9.9 19.8, 8.1 44.2, 19.0 33.8 C 23.0 16.9, 96.2 11.6, 94.0 5.3 C 87.6 0.0, 100.0 8.6, 99.8 0.6 Z" fill="hsl(144, 86%, 72%)" fill-opacity="0.30" stroke="none" stroke-width="5.29"  transform="translate(97.3 97.3) rotate(96.7) scale(0.58 1.84)" />
<path d="M 71.4 51.0 C 89.9 60.4, 79.6 63.0, 91.9 58.2 C 86.5 70.8, 20.9 41.7, 15.3 49.3 C 16.0 63.6, 29.8 40.5, 27.7 47.6 C 21.0 52.2, 34.4 31.5, 28.2 46.0 C 43.6 30.2, 71.5 58.2, 62.4 54.9 C 44.1 46.2, 100.0 10.3, 90.5 23.4 C 94.2 38.4, 15.7 0.0, 24.9 4.8 C 31.4 0.0, 38.0 74.9, 24.8 85.9 C 42.0 75.9, 56.9 85.6, 46.3 95.7 Z" fill="hsl(183, 71%, 60%)" fill-opacity="0.29" stroke="none" stroke-width="1.64"  transform="translate(76.3 6.6) rotate(74.8) scale(0.87 0.84)" />
<circle cx="46.1" cy="38.7" r="4.1" fill="url(#g0)" fill-opacity="0.58"  transform="translate(10.9 33.8) rotate(270.0) scale(1.68 1.28)" />
<path d="M 14.6 65.0 C 14.8 84.1, 44.7 33.7, 41.3 32.4 C 28.5 45.5, 95.6 100.0, 80.9 99.4 C 66.2 100.0, 53.1 44.9, 67.7 55.5 C 75.2 61.8, 56.1 23.2, 51.9 26.2 C 54.4 42.3, 49.8 78.6, 35.7 76.6 C 30.5 65.0, 80.5 36.3, 91.1 47.6 C 100.0 43.6, 15.8 33.5, 8.7 19.6 C 3.3 30.6, 18.3 89.6, 13.1 99.2 Z" fill="hsl(183, 71%, 60%)" fill-opacity="0.89" stroke="none" stroke-width="4.77"   />
<path d="M 85.9 24.8 C 89.3 5.0, 100.0 51.4, 88.4 39.2 C 90.7 58.2, 78.3 32.5, 69.6 37.7 C 73.4 42.1, 0.0 0.1, 1.7 6.9 C 12.9 0.0, 48.9 38.7, 45.4 43.3 C 58.4 40.6, 10.6 0.0, 9.0 2.8 C 22.5 0.0, 71.2 27.8, 70.1 18.2 " fill="hsl(144, 86%, 72%)" fill-opacity="0.59" stroke="none" stroke-width="2.24"  transform="translate(9.5 18.3) rotate(190.6) scale(1.69 1.76)" />
<rect x="33.6" y="39.9" width="43.3" height="32.4" rx="12.1" fill="hsl(106, 75%, 59%)" fill-opacity="0.96" stroke="hsl(242, 72%, 49%)" stroke-width="1.1" filter="url(#f1)" transform="translate(99.0 48.6) rotate(327.5) scale(1.59 1.64)" />
<circle cx="24.8" cy="87.8" r="1.8" fill="hsl(106, 75%, 59%)" fill-opacity="0.72"  transform="translate(1.7 34.1) rotate(286.5) scale(0.96 1.23)" />
<rect x="26.4" y="7.1" width="48.5" height="34.3" rx="2.0" fill="none" fill-opacity="0.42"   transform="translate(58.2 98.0) rotate(28.0) scale(1.72 1.87)" />
<path d="M 69.6 92.6 C 61.0 84.6, 45.9 26.4, 50.9 17.6 C 50.7 31.4, 0.0 67.8, 2.3 77.9 C 2.2 73.8, 69.0 91.7, 65.2 79.3 C 70.4 68.8, 0.0 100.0, 5.5 98.3 C 0.0 78.3, 57.4 12.1, 69.1 11.3 C 56.8 12.9, 86.8 39.5, 71.9 47.5 C 80.1 61.9, 52.1 0.0, 58.4 7.7 C 43.9 0.0, 8.4 19.4, 20.9 14.6 C 28.0 27.0, 58.4 82.4, 56.7 70.0 Z" fill="none" fill-opacity="0.96" stroke="hsl(104, 72%, 65%)" stroke-width="3.17"  transform="translate(12.0 93.4) rotate(46.1) scale(0.87 1.74)" />
<rect x="18.2" y="39.8" width="44.9" height="25.1" rx="0" fill="none" fill-opacity="0.65" stroke="hsl(242, 72%, 49%)" stroke-width="1.3"  transform="translate(11.1 69.6) rotate(213.9) scale(0.74 0.90)" />
<circle cx="80.4" cy="90.1" r="20.3" fill="hsl(144, 86%, 72%)" fill-opacity="0.84"  transform="translate(34.0 54.1) rotate(198.5) scale(1.44 0.52)" />
<rect x="32.0" y="72.0" width="46.5" height="20.9" rx="1.8" fill="none" fill-opacity="0.84"    />
<path d="M 42.7 69.0 C 34.2 64.3, 2.3 21.2, 16.2 25.6 C 9.7 27.8, 15.0 33.8, 11.6 46.4 C 18.7 33.5, 82.2 7.6, 86.8 19.7 C 88.3 14.5, 45.1 71.8, 57.3 68.2 C 43.9 62.0, 33.6 100.0, 31.9 96.3 C 46.9 99.6, 91.9 27.2, 77.8 41.2 C 67.0 33.6, 89.6 100.0, 79.4 86.1 Z" fill="hsl(183, 71%, 60%)" fill-opacity="0.59" stroke="none" stroke-width="3.20"  transform="translate(28.9 12.9) rotate(100.9) scale(1.78 1.40)" />
<rect x="16.2" y="46.4" width="35.4" height="11.4" rx="18.7" fill="none" fill-opacity="0.26" stroke="hsl(144, 86%, 72%)" stroke-width="2.4"  transform="translate(19.8 5.6) rotate(97.2) scale(1.10 1.48)" />
<path d="M 8.7 40.8 C 0.2 38.4, 32.0 92.3, 25.2 96.2 C 29.6 100.0, 8.9 2.0, 8.8 6.7 C 11.0 10.9, 41.2 69.9, 40.3 81.1 C 39.5 100.0, 100.0 75.9, 85.8 76.3 C 86.2 95.5, 64.0 49.1, 59.5 42.9 C 73.6 55.3, 55.2 3.0, 45.4 10.7 C 31.2 6.7, 64.3 100.0, 55.6 96.8 C 37.1 90.3, 12.6 53.9, 4.1 42.8 C 0.0 23.1, 3.1 60.3, 6.2 69.6 C 1.5 55.6, 58.8 10.9, 61.6 23.3 Z" fill="hsl(183, 71%, 60%)" fill-opacity="0.61" stroke="none" stroke-width="2.16"   />
<path d="M 65.7 25.2 C 61.5 37.0, 0.0 50.0, 10.7 45.0 C 7.5 33.9, 23.0 90.1, 19.7 87.6 C 8.0 83.2, 27.0 100.0, 12.1 95.9 C 0.0 86.0, 26.2 100.0, 33.2 97.0 C 35.0 83.6, 28.5 20.9, 29.8 35.3 C 25.7 38.8, 63.5 25.6, 76.9 18.6 C 72.1 10.9, 37.2 6.2, 32.6 13.3 C 31.7 10.6, 14.6 38.3, 25.4 32.2 C 26.6 24.7, 50.2 22.7, 58.7 28.6 C 74.3 22.1, 89.4 76.6, 80.1 83.9 Z" fill="hsl(2, 82%, 55%)" fill-opacity="0.76" stroke="none" stroke-width="1.86"   />
<rect x="38.8" y="77.2" width="25.9" height="12.9" rx="0" fill="none" fill-opacity="0.38" stroke="hsl(290, 83%, 63%)" stroke-width="2.3"  transform="translate(45.4 17.0) rotate(92.0) scale(1.91 1.57)" />
<circle cx="16.2" cy="2.8" r="2.5" fill="hsl(86, 72%, 68%)" fill-opacity="0.81" filter="url(#f1)" transform="translate(52.5 12.3) rotate(121.1) scale(1.54 1.74)" />
<rect x="51.0" y="52.0" width="42.1" height="12.1" rx="1.7" fill="hsl(83, 65%, 44%)" fill-opacity="0.74"   transform="translate(5.8 94.3) rotate(325.8) scale(0.59 1.05)" />
<circle cx="3.4" cy="48.2" r="2.7" fill="url(#g2)" fill-opacity="0.86"  transform="translate(46.1 55.2) rotate(300.9) scale(0.62 1.93)" />
<circle cx="50.2" cy="31.2" r="6.4" fill="url(#g2)" fill-opacity="0.70"  transform="translate(41.0 69.4) rotate(264.8) scale(0.87 0.97)" />
<circle cx="93.7" cy="78.3" r="1.8" fill="hsl(144, 86%, 72%)" fill-opacity="0.74"  transform="translate(39.2 98.9) rotate(241.2) scale(0.66 1.94)" />
<rect x="36.7" y="55.3" width="24.3" height="37.4" rx="0" fill="hsl(144, 86%, 72%)" fill-opacity="0.90"   transform="translate(53.2 21.3) rotate(131.5) scale(1.23 1.17)" />
<path d="M 60.9 20.0 C 42.6 17.9, 100.0 62.0, 89.2 49.5 C 99.6 57.3, 30.8 53.2, 26.5 66.3 C 18.4 51.7, 18.4 27.1, 24.1 30.5 C 14.1 44.8, 74.9 31.8, 70.2 32.1 C 55.2 47.1, 21.0 33.2, 17.8 42.3 C 12.2 24.3, 1.1 40.3, 5.6 41.3 Z" fill="none" fill-opacity="0.98" stroke="hsl(322, 74%, 44%)" stroke-width="2.43"   />
<path d="M 28.0 94.9 C 23.0 83.2, 39.6 33.8, 37.9 22.1 C 37.1 29.0, 99.1 44.4, 94.0 54.5 C 100.0 72.3, 0.0 84.5, 0.4 70.1 C 0.0 62.7, 81.7 19.6, 83.8 26.4 C 100.0 24.6, 76.4 25.8, 89.5 38.8 C 92.5 21.8, 90.8 74.7, 85.8 88.2 C 80.8 73.7, 100.0 21.3, 96.2 34.4 C 100.0 35.7, 56.0 33.8, 50.6 26.0 Z" fill="hsl(183, 71%, 60%)" fill-opacity="0.48" stroke="none" stroke-width="4.98"  transform="translate(9.5 90.8) rotate(243.1) scale(1.98 1.58)" />
<path d="M 20.8 96.0 C 21.1 100.0, 62.3 98.3, 62.4 94.1 C 71.9 100.0, 19.0 38.0, 10.8 38.0 C 0.0 48.2, 50.0 35.7, 43.9 30.1 C 43.8 12.9, 16.7 53.9, 26.2 48.5 C 18.3 62.8, 4.0 42.6, 15.3 30.8 C 28.2 16.7, 57.2 78.2, 58.0 88.1 C 39.9 81.0, 86.2 100.0, 84.9 91.6 C 100.0 85.9, 64.9 50.6, 78.1 42.7 C 96.9 53.6, 74.0 40.8, 86.8 35.4 Z" fill="hsl(86, 72%, 68%)" fill-opacity="0.65" stroke="none" stroke-width="3.08"  transform="translate(2.6 29.7) rotate(127.8) scale(1.47 1.43)" />
<rect x="35.1" y="43.3" width="41.2" height="22.3" rx="0" fill="none" fill-opacity="0.78"   transform="translate(8.7 91.5) rotate(273.7) scale(1.48 1.47)" />
<circle cx="29.7" cy="3.1" r="2.4" fill="hsl(40, 53%, 69%)" fill-opacity="0.84"   />
<rect x="5.8" y="29.5" width="48.2" height="17.7" rx="0" fill="hsl(242, 72%, 49%)" fill-opacity="0.97" stroke="hsl(242, 72%, 49%)" stroke-width="4.3"  transform="translate(8.4 42.0) rotate(178.0) scale(1.44 0.77)" />
<path d="M 80.5 83.2 C 68.4 100.0, 0.0 100.0, 4.5 96.5 C 0.0 100.0, 13.0 1.1, 14.9 2.8 C 0.0 0.0, 27.9 74.5, 16.1 66.9 C 29.9 78.4, 61.7 56.9, 72.0 49.8 C 75.5 47.2, 13.2 88.1, 4.5 80.9 C 15.5 97.6, 6.9 21.1, 6.0 28.3 C 0.0 45.8, 88.2 33.4, 74.0 24.0 C 75.5 36.2, 6.1 49.5, 1.5 37.4 C 0.0 50.2, 29.7 4.1, 41.5 16.1 C 41.8 2.7, 32.5 68.3, 36.2 78.0 Z" fill="none" fill-opacity="0.30" stroke="hsl(106, 75%, 59%)" stroke-width="4.88"  transform="translate(40.2 58.4) rotate(69.9) scale(1.40 1.58)" />
<rect x="37.6" y="75.9" width="39.7" height="22.8" rx="0" fill="hsl(104, 72%, 65%)" fill-opacity="0.22"   transform="translate(35.4 73.9) rotate(6.1) scale(1.92 1.50)" />
<rect x="4.7" y="1.9" width="39.2" height="13.3" rx="5.5" fill="hsl(183, 71%, 60%)" fill-opacity="0.99"   transform="translate(1.4 13.0) rotate(165.9) scale(1.97 1.41)" />
<path d="M 71.0 15.3 C 90.4 14.7, 7.2 19.5, 8.6 28.3 C 16.1 28.8, 89.4 74.3, 81.4 80.4 C 91.4 86.4, 85.1 85.9, 86.8 92.9 C 83.1 100.0, 6.4 50.4, 18.8 62.9 C 9.8 75.0, 68.6 53.5, 62.6 40.6 C 69.8 34.2, 82.5 61.6, 77.4 59.7 C 91.4 67.2, 15.3 25.0, 16.9 34.7 C 14.2 28.8, 78.7 44.6, 81.8 55.5 Z" fill="hsl(40, 53%, 69%)" fill-opacity="0.67" stroke="none" stroke-width="2.58"   />
<path d="M 63.6 14.4 C 80.3 0.1, 28.4 58.2, 26.6 51.4 C 7.4 68.8, 60.2 42.4, 62.1 48.1 C 54.3 57.3, 84.4 10.2, 83.0 17.7 C 99.9 23.4, 14.6 50.5, 19.5 49.5 C 21.4 66.6, 37.4 13.4, 26.9 5.5 C 22.6 0.0, 26.9 48.8, 37.2 56.6 C 50.3 51.6, 8.5 9.3, 15.2 16.9 C 28.7 30.6, 59.9 7.9, 47.1 21.7 Z" fill="none" fill-opacity="0.55" stroke="hsl(322, 74%, 44%)" stroke-width="4.10"  transform="translate(60.2 41.9) rotate(246.6) scale(0.59 0.87)" />
<rect x="54.8" y="59.7" width="43.8" height="31.1" rx="11.3" fill="none" fill-opacity="0.78"  filter="url(#f1)" transform="translate(95.6 53.7) rotate(57.9) scale(1.01 1.08)" />
<path d="M 91.8 19.5 C 73.4 6.2, 25.0 41.6, 39.7 38.1 C 31.2 41.4, 10.7 47.0, 14.5 48.8 C 24.0 45.3, 11.4 77.8, 17.8 70.5 C 36.1 86.0, 27.3 26.8, 20.7 34.3 C 33.9 39.0, 93.2 31.9, 99.8 19.3 C 97.7 6.1, 52.5 58.2, 64.8 54.5 C 55.2 66.8, 100.0 39.9, 94.0 43.9 Z" fill="hsl(322, 74%, 44%)" fill-opacity="0.58" stroke="none" stroke-width="2.85"  transform="translate(66.3 57.0) rotate(182.7) scale(1.84 1.98)" />
<rect x="28.6" y="18.1" width="32.3" height="25.9" rx="0" fill="hsl(40, 53%, 69%)" fill-opacity="0.42" stroke="hsl(104, 72%, 65%)" stroke-width="4.6" filter="url(#f1)" transform="translate(73.4 90.9) rotate(55.1) scale(1.44 1.57)" />
<rect x="44.7" y="69.8" width="33.4" height="21.2" rx="2.1" fill="hsl(322, 74%, 44%)" fill-opacity="0.97"   transform="translate(44.5 80.0) rotate(217.5) scale(1.43 0.65)" />
<circle cx="90.1" cy="36.6" r="0.5" fill="hsl(151, 70%, 62%)" fill-opacity="0.61"  transform="translate(24.9 6.3) rotate(257.9) scale(0.79 1.01)" />
<rect x="36.1" y="0.3" width="40.5" height="23.0" rx="6.9" fill="none" fill-opacity="0.93"    />
<circle cx="98.9" cy="8.9" r="2.4" fill="url(#g1)" fill-opacity="0.70"   />
<rect x="47.9" y="5.4" width="32.0" height="33.0" rx="6.9" fill="hsl(104, 72%, 65%)" fill-opacity="0.53"   transform="translate(18.6 12.3) rotate(123.6) scale(1.34 0.83)" />
<path d="M 46.8 32.2 C 65.0 13.5, 17.6 59.5, 12.8 47.3 C 6.3 36.0, 49.8 13.7, 36.1 0.7 C 47.1 15.7, 90.7 100.0, 86.2 97.4 C 100.0 86.2, 85.0 22.7, 75.0 17.2 C 91.4 16.3, 41.7 67.4, 47.6 78.8 C 57.2 82.7, 61.7 70.0, 74.7 58.1 Z" fill="hsl(83, 65%, 44%)" fill-opacity="0.35" stroke="none" stroke-width="4.39"   />
<path d="M 15.1 6.5 C 0.0 0.3, 22.2 10.1, 23.5 10.0 C 17.1 0.0, 48.6 44.4, 50.7 50.4 C 46.8 60.6, 63.8 34.1, 56.2 25.6 C 46.1 40.3, 58.3 71.6, 51.4 64.0 C 62.6 44.3, 57.1 49.3, 59.9 39.8 C 62.2 30.0, 74.9 93.8, 71.2 99.0 C 86.3 100.0, 0.0 37.4, 6.6 24.7 C 14.5 39.0, 78.3 64.3, 63.7 57.4 Z" fill="hsl(242, 72%, 49%)" fill-opacity="0.32" stroke="none" stroke-width="4.45"  transform="translate(73.2 7.3) rotate(337.3) scale(1.95 1.95)" />
<circle cx="47.7" cy="88.9" r="1.5" fill="hsl(106, 75%, 59%)" fill-opacity="0.78"  transform="translate(58.8 63.0) rotate(214.1) scale(1.97 0.91)" />
<path d="M 76.5 27.3 C 61.0 15.5, 24.4 69.5, 21.0 81.6 C 30.8 64.8, 9.6 31.0, 22.7 43.6 C 34.0 41.9, 74.7 100.0, 80.3 93.1 C 95.1 92.1, 24.8 85.2, 39.4 77.6 C 50.6 85.7, 100.0 34.7, 92.0 32.3 C 91.2 25.4, 22.7 80.5, 28.0 93.2 C 26.5 95.6, 84.3 3.8, 88.2 2.3 C 99.2 0.0, 52.6 50.9, 37.7 59.8 C 42.9 75.0, 31.5 96.8, 24.6 89.5 Z" fill="none" fill-opacity="0.78" stroke="hsl(151, 70%, 62%)" stroke-width="5.04"   />
<circle cx="79.8" cy="31.5" r="0.7" fill="url(#g0)" fill-opacity="0.86"  transform="translate(38.6 98.6) rotate(115.5) scale(1.89 1.23)" />
<rect x="27.9" y="76.1" width="39.7" height="22.1" rx="14.8" fill="none" fill-opacity="0.74" stroke="hsl(83, 65%, 44%)" stroke-width="3.0"  transform="translate(21.9 71.1) rotate(255.9) scale(1.52 1.47)" />
<rect x="28.8" y="36.2" width="28.3" height="34.3" rx="6.4" fill="none" fill-opacity="0.62"    />
<rect x="36.4" y="62.8" width="48.1" height="32.5" rx="8.0" fill="none" fill-opacity="0.88" stroke="hsl(83, 65%, 44%)" stroke-width="4.4"  transform="translate(51.9 23.5) rotate(262.4) scale(1.17 1.99)" />
<rect x="47.1" y="52.9" width="37.7" height="30.2" rx="3.0" fill="hsl(151, 70%, 62%)" fill-opacity="0.90" stroke="hsl(151, 70%, 62%)" stroke-width="2.1"  transform="translate(28.2 3.2) rotate(136.3) scale(0.64 1.99)" />
<path d="M 55.4 55.8 C 60.8 63.0, 55.4 55.1, 40.7 47.5 C 25.2 62.4, 56.3 61.8, 56.3 55.6 C 43.7 65.5, 66.1 100.0, 68.7 95.2 C 71.4 94.6, 17.0 0.0, 13.3 2.1 C 9.5 18.5, 1.3 37.5, 7.5 31.0 C 8.7 36.2, 0.0 86.8, 1.6 88.5 C 0.0 91.7, 83.9 63.2, 96.0 64.4 Z" fill="hsl(104, 72%, 65%)" fill-opacity="0.51" stroke="none" stroke-width="2.33"  transform="translate(39.0 65.0) rotate(155.0) scale(1.24 1.52)" />
<circle cx="16.0" cy="8.7" r="0.8" fill="url(#g2)" fill-opacity="0.44"  transform="translate(22.4 42.9) rotate(26.4) scale(1.84 1.55)" />
<path d="M 78.8 40.5 C 74.9 60.1, 80.6 77.2, 86.9 62.7 C 74.6 56.5, 56.6 37.5, 51.5 41.2 C 46.7 52.4, 84.7 56.2, 85.7 62.2 C 70.1 73.6, 39.1 76.1, 53.5 67.8 C 48.8 81.1, 11.7 53.9, 19.3 45.2 C 34.1 57.0, 30.7 2.8, 42.3 4.9 C 50.2 3.2, 66.6 31.4, 77.0 28.1 C 95.0 27.3, 91.3 51.2, 94.9 47.6 Z" fill="none" fill-opacity="0.82" stroke="hsl(104, 72%, 65%)" stroke-width="4.69"  transform="translate(78.0 60.1) rotate(272.9) scale(1.14 1.47)" />
<circle cx="8.4" cy="30.6" r="1.5" fill="url(#g1)" fill-opacity="0.79"  transform="translate(25.0 23.3) rotate(215.1) scale(0.94 1.82)" />
<rect x="53.6" y="10.2" width="28.0" height="30.5" rx="0" fill="hsl(40, 53%, 69%)" fill-opacity="0.45"   transform="translate(1.6 35.2) rotate(96.3) scale(1.23 1.33)" />
<rect x="36.8" y="56.4" width="26.9" height="12.0" rx="9.4" fill="none" fill-opacity="0.30" stroke="hsl(242, 72%, 49%)" stroke-width="3.8"  transform="translate(12.9 13.6) rotate(144.9) scale(0.51 1.60)" />
<circle cx="61.9" cy="36.8" r="4.9" fill="url(#g0)" fill-opacity="0.81"  transform="translate(53.2 44.1) rotate(305.2) scale(1.56 0.61)" />
<rect x="25.3" y="2.4" width="42.7" height="17.3" rx="0" fill="none" fill-opacity="0.88" stroke="hsl(83, 65%, 44%)" stroke-width="1.7"  transform="translate(19.4 93.2) rotate(359.2) scale(1.88 0.94)" />
<path d="M 60.4 26.8 C 62.2 8.5, 69.9 68.1, 70.6 80.0 C 67.8 95.6, 64.5 66.7, 71.2 58.2 C 68.9 43.1, 20.8 9.6, 35.6 17.2 C 46.2 18.2, 44.0 60.3, 40.6 64.8 C 55.2 52.1, 95.7 4.4, 85.4 2.5 C 72.3 8.4, 70.6 67.1, 69.6 78.1 C 76.2 91.9, 55.5 89.2, 50.5 92.2 Z" fill="none" fill-opacity="0.86" stroke="hsl(322, 74%, 44%)" stroke-width="2.97"  transform="translate(1.7 89.4) rotate(199.2) scale(0.92 1.49)" />
<rect x="43.0" y="54.8" width="33.1" height="30.2" rx="0" fill="hsl(40, 53%, 69%)" fill-opacity="0.97"   transform="translate(88.0 68.1) rotate(241.2) scale(1.47 1.37)" />
<path d="M 58.7 87.4 C 64.5 92.1, 48.6 57.2, 42.0 51.2 C 60.2 41.5, 24.4 74.0, 10.4 61.5 C 22.3 70.5, 80.5 85.3, 91.4 90.9 C 76.8 83.9, 36.9 24.3, 37.1 18.8 C 18.7 19.0, 100.0 0.4, 95.9 14.0 C 77.3 32.8, 48.5 22.5, 33.7 17.2 C 49.0 32.1, 80.2 73.4, 93.1 67.7 C 75.1 58.9, 60.3 9.5, 60.6 19.9 Z" fill="hsl(2, 82%, 55%)" fill-opacity="0.54" stroke="none" stroke-width="2.89"  transform="translate(25.1 39.1) rotate(124.5) scale(1.04 1.75)" />
<rect x="17.4" y="61.6" width="35.3" height="25.9" rx="0" fill="none" fill-opacity="0.89"   transform="translate(43.1 75.1) rotate(99.6) scale(0.83 0.54)" />
<g opacity="0.072">
<rect x="0" y="0" width="1" height="100" fill="black" />
<rect x="22" y="0" width="1" height="100" fill="black" />
<rect x="44" y="0" width="1" height="100" fill="black" />
<rect x="66" y="0" width="1" height="100" fill="black" />
<rect x="88" y="0" width="1" height="100" fill="black" />
<rect x="0" y="0" width="100" height="1" fill="black" />
<rect x="0" y="22" width="100" height="1" fill="black" />
<rect x="0" y="44" width="100" height="1" fill="black" />
<rect x="0" y="66" width="100" height="1" fill="black" />
<rect x="0" y="88" width="100" height="1" fill="black" />
</g>

</svg>
