<?xml version="1.0" encoding="UTF-8"?>
<svg xmlns="http://www.w3.org/2000/svg" width="100" height="100" viewBox="0 0 100 100">
<defs>
<linearGradient id="g0" x1="0%" y1="0%" x2="100%" y2="100%">
<stop offset="0.0%" stop-color="hsl(106, 75%, 59%)" />
<stop offset="33.3%" stop-color="hsl(183, 71%, 60%)" />
<stop offset="66.7%" stop-color="hsl(242, 72%, 49%)" />
<stop offset="100.0%" stop-color="hsl(322, 74%, 44%)" />
</linearGradient>
<linearGradient id="g1" x1="0%" y1="0%" x2="100%" y2="100%">
<stop offset="0.0%" stop-color="hsl(290, 83%, 63%)" />
<stop offset="33.3%" stop-color="hsl(2, 82%, 55%)" />
<stop offset="66.7%" stop-color="hsl(86, 72%, 68%)" />
<stop offset="100.0%" stop-color="hsl(83, 65%, 44%)" />
</linearGradient>
<linearGradient id="g2" x1="0%" y1="0%" x2="100%" y2="100%">
<stop offset="0.0%" stop-color="hsl(40, 53%, 69%)" />
<stop offset="33.3%" stop-color="hsl(104, 72%, 65%)" />
<stop offset="66.7%" stop-color="hsl(144, 86%, 72%)" />
<stop offset="100.0%" stop-color="hsl(151, 70%, 62%)" />
</linearGradient>
</defs>

<circle cx="65.5" cy="27.8" r="0.8" fill="hsl(183, 71%, 60%)" fill-opacity="0.41"  transform="translate(92.8 3.9) rotate(211.1) scale(1.20 1.41)" />
<rect x="30.0" y="64.7" width="25.3" height="28.1" rx="0" fill="none" fill-opacity="0.39" stroke="hsl(106, 75%, 59%)" stroke-width="1.0"  transform="translate(48.0 69.0) rotate(214.4) scale(1.84 1.86)" />
<circle cx="85.5" cy="52.2" r="0.1" fill="hsl(242, 72%, 49%)" fill-opacity="0.97"  transform="translate(43.3 84.4) rotate(36.6) scale(1.88 0.52)" />
<path d="M 8.3 52.4 C 2.0 67.9, 43.8 12.2, 36.8 22.1 C 38.7 33.1, 34.4 87.5, 31.2 78.9 C 41.5 91.9, 93.8 79.2, 90.7 83.4 C 100.0 69.8, 90.0 21.4, 78.1 9.8 C 84.2 0.0, 49.7 72.9, 60.7 67.0 C 56.8 76.2, 45.2 75.0, 51.8 70.8 " fill="hsl(290, 83%, 63%)" fill-opacity="0.83" stroke="none" stroke-width="0.80"   />
<rect x="10.3" y="33.7" width="43.3" height="20.8" rx="0" fill="hsl(322, 74%, 44%)" fill-opacity="0.76"    />
<circle cx="61.5" cy="38.2" r="0.2" fill="hsl(86, 72%, 68%)" fill-opacity="0.62"  transform="translate(89.0 40.5) rotate(297.1) scale(1.64 1.79)" />
<path d="M 54.3 18.2 C 44.7 12.2, 73.8 94.0, 86.1 89.7 C 71.7 85.4, 27.7 40.9, 31.2 47.1 C 23.1 56.8, 28.7 100.0, 14.1 93.9 C 27.3 89.7, 75.3 64.7, 68.9 76.0 C 74.9 57.2, 53.8 67.5, 66.6 67.4 C 60.4 47.4, 40.8 31.0, 41.8 37.7 Z" fill="hsl(183, 71%, 60%)" fill-opacity="0.30" stroke="none" stroke-width="0.88"   />
<path d="M 92.6 25.7 C 83.7 11.2, 50.5 63.8, 45.3 65.2 C 38.3 63.8, 32.3 71.2, 31.0 84.5 C 39.2 68.7, 32.9 2.3, 39.2 4.5 " fill="none" fill-opacity="0.43" stroke="hsl(183, 71%, 60%)" stroke-width="1.22"  transform="translate(46.2 2.9) rotate(282.0) scale(1.10 1.38)" />
</svg>
