<?xml version="1.0" encoding="UTF-8"?>
<svg xmlns="http://www.w3.org/2000/svg" width="100" height="100" viewBox="0 0 100 100">
<defs>
<linearGradient id="g0" x1="0%" y1="0%" x2="100%" y2="100%">
<stop offset="0.0%" stop-color="hsl(106, 75%, 59%)" />
<stop offset="33.3%" stop-color="hsl(183, 71%, 60%)" />
<stop offset="66.7%" stop-color="hsl(242, 72%, 49%)" />
<stop offset="100.0%" stop-color="hsl(322, 74%, 44%)" />
</linearGradient>
<linearGradient id="g1" x1="0%" y1="0%" x2="100%" y2="100%">
<stop offset="0.0%" stop-color="hsl(290, 83%, 63%)" />
<stop offset="33.3%" stop-color="hsl(2, 82%, 55%)" />
<stop offset="66.7%" stop-color="hsl(86, 72%, 68%)" />
<stop offset="100.0%" stop-color="hsl(83, 65%, 44%)" />
</linearGradient>
<linearGradient id="g2" x1="0%" y1="0%" x2="100%" y2="100%">
<stop offset="0.0%" stop-color="hsl(40, 53%, 69%)" />
<stop offset="33.3%" stop-color="hsl(104, 72%, 65%)" />
<stop offset="66.7%" stop-color="hsl(144, 86%, 72%)" />
<stop offset="100.0%" stop-color="hsl(151, 70%, 62%)" />
</linearGradient>
<filter id="f1" x="-20%" y="-20%" width="140%" height="140%">
  <feGaussianBlur stdDeviation="1.039179580043751" />
</filter>

</defs>

<path d="M 19.9 90.6 C 13.6 100.0, 54.2 68.9, 65.8 80.8 C 78.5 63.7, 81.4 67.3, 75.9 53.5 C 60.7 34.2, 22.0 96.7, 13.9 83.4 C 7.6 69.3, 64.7 26.4, 61.5 19.1 C 64.6 38.9, 80.9 5.3, 69.3 0.1 C 81.3 0.0, 100.0 90.2, 97.8 99.4 C 89.6 87.1, 7.9 95.2, 18.3 82.7 C 10.9 68.0, 78.2 28.2, 66.1 24.3 C 59.3 4.6, 65.0 76.1, 77.9 62.5 " fill="hsl(83, 65%, 44%)" fill-opacity="0.60" stroke="none" stroke-width="1.55"   />
<path d="M 81.1 97.8 C 86.8 100.0, 60.3 94.3, 72.3 96.0 C 80.7 100.0, 90.9 74.4, 92.9 74.4 C 88.9 77.0, 14.8 76.9, 15.7 78.7 C 9.3 75.0, 5.9 9.0, 4.9 20.4 C 11.6 35.7, 86.5 65.7, 85.5 63.4 C 69.3 51.9, 0.0 26.0, 5.7 23.3 C 19.3 43.1, 25.8 100.0, 18.2 93.2 C 10.2 100.0, 8.9 86.1, 1.9 79.2 C 16.0 89.3, 60.8 75.2, 58.2 70.9 C 42.4 88.5, 62.4 23.0, 74.2 9.4 Z" fill="hsl(104, 72%, 65%)" fill-opacity="0.93" stroke="none" stroke-width="3.22" filter="url(#f1)" transform="translate(55.0 66.4) rotate(133.5) scale(1.22 0.96)" />
<path d="M 46.8 36.9 C 51.8 42.9, 36.6 44.5, 41.0 52.0 C 44.6 60.3, 38.2 20.3, 52.3 15.8 C 43.1 11.1, 89.7 28.8, 92.2 14.8 C 87.6 0.0, 49.9 25.6, 59.5 15.9 C 53.4 5.3, 83.3 5.6, 76.6 10.2 C 74.8 0.0, 66.9 30.4, 74.9 32.4 C 69.9 22.6, 72.6 21.2, 57.7 27.3 C 50.9 13.4, 13.3 21.7, 5.6 7.3 Z" fill="none" fill-opacity="0.62" stroke="hsl(104, 72%, 65%)" stroke-width="1.71"   />
<path d="M 62.1 67.1 C 70.2 81.2, 0.0 47.0, 12.4 42.2 C 16.1 22.5, 19.5 47.3, 24.8 62.1 C 39.7 47.9, 38.1 79.9, 50.8 74.0 C 43.8 76.8, 16.9 32.7, 26.2 27.1 C 32.0 25.9, 93.6 69.9, 85.4 63.1 C 86.7 65.1, 50.0 48.4, 42.3 59.3 C 25.6 43.1, 90.0 12.8, 83.0 6.1 C 92.6 0.0, 33.8 6.8, 40.7 9.7 C 33.9 0.0, 85.6 100.0, 90.7 94.9 Z" fill="hsl(2, 82%, 55%)" fill-opacity="0.64" stroke="none" stroke-width="4.64"  transform="translate(56.3 18.0) rotate(164.3) scale(1.16 1.41)" />
<path d="M 45.2 80.2 C 44.6 75.2, 92.9 81.1, 94.4 77.5 C 84.9 84.7, 69.8 80.4, 58.7 84.8 C 43.4 65.0, 18.9 70.9, 29.3 82.1 C 9.3 65.7, 53.5 16.3, 41.6 12.7 C 28.2 26.0, 36.6 29.1, 30.2 29.0 C 31.0 31.0, 15.6 52.9, 30.4 62.9 C 13.7 58.6, 0.0 19.3, 10.4 11.3 C 0.0 0.0, 62.8 95.5, 75.5 99.2 " fill="hsl(144, 86%, 72%)" fill-opacity="0.73" stroke="none" stroke-width="1.64"   />
<rect x="17.3" y="5.5" width="24.5" height="28.4" rx="6.7" fill="hsl(86, 72%, 68%)" fill-opacity="0.90" stroke="hsl(2, 82%, 55%)" stroke-width="1.3"   />
<path d="M 32.8 51.2 C 42.4 33.2, 100.0 39.7, 97.8 34.1 C 81.2 34.6, 90.3 54.6, 86.5 52.9 C 81.0 44.4, 75.0 100.0, 87.7 96.7 C 100.0 79.8, 76.7 100.0, 71.1 90.8 C 80.6 100.0, 55.8 59.2, 57.7 46.6 C 62.1 62.8, 47.4 58.0, 40.8 54.2 C 45.9 50.6, 54.8 60.9, 67.2 52.3 C 76.9 69.8, 69.2 78.4, 84.1 90.8 Z" fill="hsl(183, 71%, 60%)" fill-opacity="0.56" stroke="none" stroke-width="1.78"  transform="translate(24.3 7.2) rotate(321.6) scale(1.97 0.84)" />
<rect x="66.7" y="54.3" width="25.1" height="20.6" rx="19.1" fill="none" fill-opacity="0.98" stroke="hsl(151, 70%, 62%)" stroke-width="2.3"  transform="translate(95.1 31.1) rotate(140.0) scale(1.02 1.94)" />
<path d="M 72.9 64.6 C 71.5 82.6, 26.1 82.5, 28.6 71.3 C 48.3 85.4, 38.9 34.7, 46.6 40.2 C 40.7 51.0, 41.3 11.8, 36.4 24.8 C 34.8 34.4, 41.9 17.7, 45.5 4.4 C 28.4 12.4, 77.8 0.0, 91.0 6.0 C 100.0 0.0, 88.7 33.7, 93.5 33.1 C 90.0 16.2, 74.5 4.8, 65.4 14.2 C 74.9 22.0, 17.5 75.2, 26.1 84.0 C 38.9 81.2, 54.1 72.7, 41.3 83.7 C 27.2 77.0, 86.7 30.0, 74.3 39.1 " fill="hsl(242, 72%, 49%)" fill-opacity="0.38" stroke="none" stroke-width="3.12" filter="url(#f1)" transform="translate(92.8 32.1) rotate(259.5) scale(1.31 0.77)" />
<circle cx="73.3" cy="33.9" r="2.0" fill="hsl(2, 82%, 55%)" fill-opacity="0.79"  transform="translate(74.4 9.7) rotate(174.9) scale(1.83 1.48)" />
<path d="M 13.4 52.0 C 19.3 71.9, 0.0 50.8, 11.4 51.4 C 16.3 57.8, 18.0 18.4, 20.0 18.6 C 8.4 12.9, 37.9 13.9, 36.6 5.9 C 24.0 8.2, 25.5 89.8, 14.0 95.1 C 0.0 99.9, 10.9 100.0, 5.6 98.7 C 0.0 100.0, 63.6 0.0, 65.7 5.9 Z" fill="hsl(83, 65%, 44%)" fill-opacity="0.99" stroke="none" stroke-width="3.53" filter="url(#f1)" transform="translate(53.0 2.7) rotate(152.4) scale(0.79 0.89)" />
<path d="M 50.6 61.5 C 65.9 81.3, 67.7 0.4, 70.0 15.0 C 69.2 1.1, 84.8 8.5, 84.3 2.4 C 72.0 0.0, 90.3 100.0, 78.7 90.6 C 89.2 93.4, 84.0 4.4, 93.7 2.3 C 92.4 0.0, 44.9 1.0, 34.3 7.4 C 53.4 0.0, 75.8 13.3, 65.3 11.8 C 47.9 16.9, 10.5 100.0, 18.3 98.2 C 38.2 100.0, 75.5 21.5, 67.2 25.1 C 58.2 44.0, 19.8 96.1, 31.0 89.2 Z" fill="hsl(151, 70%, 62%)" fill-opacity="0.69" stroke="none" stroke-width="3.38"  transform="translate(49.6 41.7) rotate(207.6) scale(0.74 0.82)" />
<path d="M 97.1 47.0 C 100.0 38.3, 54.1 14.4, 60.4 5.3 C 50.6 11.6, 42.0 21.2, 29.1 17.8 C 45.3 0.0, 0.0 65.5, 0.9 72.5 C 0.0 68.4, 61.7 73.8, 55.5 76.5 C 60.5 58.7, 19.7 85.9, 20.4 76.2 C 3.8 90.9, 4.6 56.0, 8.4 65.3 C 2.9 84.8, 51.3 53.3, 36.4 53.7 C 48.6 61.0, 21.7 48.7, 12.4 49.6 C 17.1 33.2, 95.6 5.8, 91.6 13.4 Z" fill="hsl(322, 74%, 44%)" fill-opacity="0.96" stroke="none" stroke-width="3.62"   />
<rect x="71.8" y="47.0" width="25.3" height="38.7" rx="16.0" fill="none" fill-opacity="0.32"   transform="translate(42.7 88.0) rotate(132.6) scale(1.66 1.12)" />
<path d="M 72.7 10.4 C 83.5 9.3, 64.1 49.4, 73.4 49.6 C 85.0 48.0, 14.8 45.3, 21.4 57.4 C 21.7 67.2, 37.9 0.0, 24.5 0.3 C 22.1 0.0, 52.2 23.5, 49.3 22.9 C 45.9 42.9, 51.5 64.4, 64.3 53.8 C 54.2 34.9, 93.6 17.8, 93.2 20.3 C 100.0 34.2, 17.0 83.9, 20.5 71.0 Z" fill="hsl(322, 74%, 44%)" fill-opacity="0.42" stroke="none" stroke-width="4.20"  transform="translate(10.8 32.1) rotate(298.4) scale(1.51 1.99)" />
<path d="M 17.8 7.8 C 19.9 0.0, 44.5 51.6, 35.2 43.6 C 47.1 32.6, 10.2 34.7, 17.5 39.9 C 9.8 29.3, 0.0 66.5, 2.1 67.3 C 0.0 64.3, 30.9 44.3, 35.6 58.5 C 15.6 66.0, 72.3 72.1, 73.7 57.2 C 60.2 37.8, 74.3 92.5, 85.0 93.5 C 84.1 80.7, 46.4 62.5, 55.5 50.5 C 47.5 66.8, 80.9 73.1, 75.5 64.6 Z" fill="hsl(183, 71%, 60%)" fill-opacity="0.40" stroke="none" stroke-width="2.37"  transform="translate(71.2 60.7) rotate(146.6) scale(1.42 0.89)" />
<rect x="4.3" y="14.4" width="42.3" height="20.6" rx="19.9" fill="none" fill-opacity="0.21"    />
<path d="M 51.2 51.4 C 40.8 60.5, 53.7 14.1, 56.8 26.7 C 65.9 25.9, 7.3 59.1, 18.4 48.0 C 9.2 61.9, 58.7 47.9, 54.0 43.4 C 42.5 53.7, 1.5 41.6, 14.3 27.0 C 25.2 39.3, 33.4 100.0, 45.2 99.6 C 29.0 79.9, 65.5 71.6, 70.8 85.8 C 76.5 99.9, 72.4 56.0, 74.7 67.6 Z" fill="none" fill-opacity="0.84" stroke="hsl(151, 70%, 62%)" stroke-width="3.76"  transform="translate(56.2 12.8) rotate(154.5) scale(1.40 0.66)" />
<path d="M 49.4 23.5 C 67.6 39.5, 73.6 18.8, 67.0 14.9 C 51.8 12.4, 32.4 48.1, 22.9 41.4 C 21.1 47.2, 77.3 71.6, 69.1 62.5 C 77.5 66.5, 78.6 42.7, 67.1 53.0 C 73.3 40.9, 79.8 85.5, 92.5 95.0 C 100.0 85.7, 23.3 11.0, 18.5 2.5 C 21.1 0.0, 76.5 73.5, 69.0 77.5 C 67.2 68.9, 79.5 39.8, 93.5 50.5 C 95.5 36.1, 42.9 18.7, 53.0 28.4 C 50.8 8.5, 88.8 54.0, 81.2 64.7 Z" fill="none" fill-opacity="0.41" stroke="hsl(83, 65%, 44%)" stroke-width="2.16"  transform="translate(83.4 53.5) rotate(10.4) scale(1.74 1.07)" />
<rect x="29.2" y="30.4" width="40.2" height="37.5" rx="19.8" fill="none" fill-opacity="0.86"   transform="translate(47.2 88.6) rotate(358.1) scale(1.94 0.58)" />
<path d="M 29.0 94.5 C 21.3 100.0, 74.7 70.4, 75.3 81.3 C 94.3 72.4, 43.0 37.1, 32.4 22.8 C 47.0 39.8, 15.9 100.0, 5.7 97.6 C 24.0 90.7, 50.2 8.9, 65.1 13.9 C 52.6 3.1, 8.2 64.7, 2.9 67.8 C 20.1 75.6, 11.1 86.4, 18.5 83.2 C 23.5 88.9, 86.7 32.5, 76.8 37.5 Z" fill="none" fill-opacity="0.61" stroke="hsl(104, 72%, 65%)" stroke-width="5.19"  transform="translate(43.7 63.6) rotate(311.6) scale(1.74 1.87)" />
<path d="M 6.0 54.4 C 8.7 56.1, 30.1 81.7, 22.2 93.4 C 38.9 95.3, 47.2 33.2, 59.8 43.0 C 55.3 32.8, 35.2 51.4, 48.4 42.2 C 59.7 29.9, 30.7 78.3, 27.9 66.7 C 39.7 67.8, 20.3 83.6, 25.0 78.5 C 21.2 78.2, 2.8 33.6, 2.1 47.9 Z" fill="hsl(242, 72%, 49%)" fill-opacity="0.95" stroke="none" stroke-width="2.55"  transform="translate(64.0 62.3) rotate(237.7) scale(1.80 0.63)" />
<circle cx="52.5" cy="88.8" r="5.2" fill="hsl(106, 75%, 59%)" fill-opacity="0.41" filter="url(#f1)" transform="translate(16.0 33.7) rotate(190.8) scale(1.79 1.63)" />
<rect x="19.9" y="21.1" width="39.1" height="21.0" rx="15.9" fill="none" fill-opacity="0.65"   transform="translate(20.1 47.8) rotate(106.9) scale(0.52 0.62)" />
<circle cx="45.2" cy="65.6" r="6.0" fill="url(#g2)" fill-opacity="0.89"  transform="translate(38.5 18.3) rotate(330.3) scale(1.63 1.64)" />
<circle cx="49.9" cy="47.5" r="2.3" fill="url(#g0)" fill-opacity="0.50"  transform="translate(71.4 92.0) rotate(153.5) scale(0.73 0.86)" />
<path d="M 56.5 50.7 C 46.1 49.3, 42.9 38.6, 41.2 35.0 C 32.3 33.6, 100.0 62.8, 87.8 71.7 C 86.5 79.8, 25.2 84.9, 29.5 88.5 C 44.0 80.2, 3.4 45.2, 8.0 35.3 C 14.1 31.1, 87.7 88.1, 73.6 93.6 C 57.0 88.9, 99.8 46.7, 99.3 55.6 C 88.4 53.9, 54.9 24.9, 46.5 10.1 C 65.4 22.6, 21.1 14.8, 33.5 9.3 C 26.0 7.3, 52.7 7.4, 43.1 22.3 C 48.6 40.4, 100.0 96.4, 99.8 99.2 " fill="hsl(183, 71%, 60%)" fill-opacity="0.89" stroke="none" stroke-width="2.84" filter="url(#f1)"  />
<path d="M 76.6 19.4 C 77.0 17.3, 24.9 50.4, 17.7 38.2 C 21.1 35.6, 51.1 54.4, 39.2 45.3 C 35.8 36.0, 84.1 45.7, 87.3 38.7 C 100.0 53.0, 86.8 40.4, 91.4 46.9 C 79.8 33.2, 13.1 63.7, 1.3 60.4 C 3.1 76.8, 79.4 63.9, 86.9 58.2 C 81.5 59.6, 26.4 28.4, 39.4 39.6 C 49.2 59.2, 76.0 19.0, 83.1 27.8 C 77.0 26.7, 100.0 76.2, 89.9 86.8 " fill="hsl(40, 53%, 69%)" fill-opacity="0.34" stroke="none" stroke-width="4.19"  transform="translate(14.1 24.7) rotate(324.3) scale(1.16 1.21)" />
<path d="M 19.1 7.6 C 13.8 22.8, 15.6 50.6, 8.5 50.7 C 0.0 56.9, 32.2 68.1, 27.0 75.1 C 26.6 83.7, 42.4 30.4, 31.4 29.5 C 28.0 45.3, 28.2 4.0, 28.9 9.6 C 12.1 5.9, 48.7 16.6, 62.7 24.7 C 58.3 28.2, 47.3 52.5, 44.1 65.9 C 26.3 66.2, 55.1 34.9, 63.6 44.0 C 48.1 27.6, 71.9 100.0, 84.9 99.3 Z" fill="hsl(322, 74%, 44%)" fill-opacity="0.62" stroke="none" stroke-width="1.94"  transform="translate(85.1 99.9) rotate(43.0) scale(0.76 0.60)" />
<circle cx="76.2" cy="3.3" r="8.9" fill="url(#g2)" fill-opacity="0.52"  transform="translate(84.8 53.6) rotate(271.0) scale(0.68 0.70)" />
<rect x="44.5" y="62.5" width="46.0" height="20.9" rx="0" fill="hsl(40, 53%, 69%)" fill-opacity="0.70" stroke="hsl(40, 53%, 69%)" stroke-width="1.3" filter="url(#f1)" transform="translate(23.1 57.2) rotate(354.1) scale(1.94 0.94)" />
<path d="M 71.4 71.0 C 57.4 83.4, 93.9 71.3, 87.5 83.5 C 77.8 79.5, 46.2 85.8, 36.8 79.7 C 36.8 72.7, 17.3 78.5, 23.1 93.1 C 13.3 100.0, 27.3 30.7, 14.4 18.6 C 22.4 7.3, 27.4 13.0, 33.1 4.3 C 46.0 7.8, 45.3 86.7, 43.6 86.2 C 34.8 90.1, 49.3 25.8, 56.3 21.4 C 66.4 23.8, 39.0 44.7, 49.4 54.2 C 31.3 50.2, 84.8 87.2, 95.8 88.8 Z" fill="hsl(86, 72%, 68%)" fill-opacity="0.29" stroke="none" stroke-width="3.65"  transform="translate(50.1 97.4) rotate(13.8) scale(1.46 0.89)" />
<path d="M 84.5 43.9 C 100.0 35.3, 100.0 70.9, 94.9 83.7 C 96.6 72.1, 42.2 42.6, 37.2 47.6 C 20.1 52.1, 76.7 4.6, 74.6 15.8 C 82.0 0.0, 48.8 0.0, 43.3 5.7 C 63.2 0.0, 79.4 85.6, 88.5 94.4 C 84.7 100.0, 19.6 57.5, 18.6 47.6 C 16.8 41.3, 12.1 29.7, 0.9 24.1 C 11.7 32.2, 56.4 54.9, 64.5 66.7 Z" fill="none" fill-opacity="0.56" stroke="hsl(83, 65%, 44%)" stroke-width="5.09"  transform="translate(9.9 75.0) rotate(180.0) scale(1.53 1.54)" />
<path d="M 53.3 81.1 C 39.8 92.8, 69.0 1.9, 61.7 0.9 C 70.2 0.0, 86.9 31.9, 92.6 33.1 C 73.5 36.0, 85.7 18.3, 91.1 20.2 C 100.0 35.5, 47.6 89.9, 48.9 90.2 C 30.5 86.9, 72.4 35.4, 87.2 21.4 C 93.7 16.4, 59.0 58.7, 69.5 46.4 C 84.7 38.3, 58.0 92.8, 67.6 87.1 C 70.7 73.0, 86.0 39.7, 73.9 30.5 Z" fill="none" fill-opacity="0.96" stroke="hsl(2, 82%, 55%)" stroke-width="5.07"  transform="translate(29.8 6.6) rotate(354.0) scale(1.66 0.53)" />
<circle cx="31.4" cy="3.5" r="2.3" fill="hsl(86, 72%, 68%)" fill-opacity="0.89"  transform="translate(76.2 59.4) rotate(165.5) scale(1.48 1.60)" />
<path d="M 13.5 84.8 C 26.6 86.2, 23.5 27.7, 25.3 19.9 C 36.5 7.6, 57.9 27.4, 70.8 35.1 C 63.2 29.2, 19.9 76.5, 12.7 82.3 C 26.6 100.0, 35.1 60.1, 42.6 59.3 C 60.6 42.5, 4.6 90.4, 1.6 85.1 C 6.7 95.6, 42.9 0.0, 51.3 2.8 C 69.2 14.0, 34.2 100.0, 34.2 91.9 C 52.8 75.3, 51.9 77.4, 51.3 67.9 Z" fill="none" fill-opacity="0.69" stroke="hsl(183, 71%, 60%)" stroke-width="4.07"  transform="translate(77.9 100.0) rotate(224.8) scale(1.01 1.51)" />
<rect x="36.6" y="4.1" width="33.9" height="33.3" rx="0" fill="none" fill-opacity="0.94"   transform="translate(6.1 45.2) rotate(286.1) scale(1.42 1.79)" />
<path d="M 17.7 29.0 C 25.0 11.4, 64.8 87.3, 77.9 73.3 C 76.4 57.3, 64.4 50.2, 58.8 64.1 C 68.6 72.3, 57.0 60.4, 45.0 51.9 C 51.2 31.9, 13.1 52.5, 11.0 44.3 C 8.1 34.7, 79.8 36.9, 76.7 41.1 C 94.4 59.3, 63.2 44.7, 48.6 46.1 C 44.3 48.3, 67.4 14.9, 71.9 24.4 C 82.5 29.5, 48.3 1.4, 38.0 12.2 C 44.4 24.1, 92.7 87.8, 85.9 83.9 C 75.4 99.3, 100.0 85.9, 99.8 78.3 Z" fill="hsl(86, 72%, 68%)" fill-opacity="0.33" stroke="none" stroke-width="1.51"  transform="translate(98.8 39.9) rotate(149.0) scale(1.35 1.94)" />
<path d="M 3.0 71.6 C 3.4 84.7, 50.0 62.5, 48.7 62.8 C 62.0 49.7, 31.1 86.1, 19.7 71.4 C 10.2 80.6, 80.6 35.4, 94.6 43.0 C 99.7 48.0, 50.4 81.7, 42.4 73.7 C 40.5 85.6, 16.9 18.4, 27.8 32.1 C 38.9 45.3, 13.9 50.4, 21.8 39.9 C 34.7 38.4, 28.0 59.5, 14.7 68.9 C 31.5 82.8, 4.5 41.4, 8.4 34.5 " fill="hsl(104, 72%, 65%)" fill-opacity="0.46" stroke="none" stroke-width="1.74"   />
<circle cx="23.0" cy="19.4" r="6.6" fill="hsl(86, 72%, 68%)" fill-opacity="0.72" filter="url(#f1)"  />
<path d="M 70.0 89.9 C 83.6 81.5, 20.8 62.4, 32.7 48.6 C 18.2 35.4, 75.8 0.0, 64.0 9.8 C 73.9 13.6, 76.4 66.7, 91.3 62.8 C 77.0 60.0, 43.5 29.1, 51.5 21.8 C 40.0 37.9, 0.0 100.0, 0.3 97.9 C 0.0 100.0, 100.0 75.3, 98.6 67.9 C 79.1 76.6, 21.6 48.7, 21.2 57.2 Z" fill="hsl(106, 75%, 59%)" fill-opacity="0.64" stroke="none" stroke-width="3.39"  transform="translate(45.6 14.2) rotate(35.4) scale(1.11 1.38)" />
<path d="M 7.0 57.5 C 0.0 76.0, 14.1 24.2, 15.9 30.7 C 8.0 37.3, 100.0 64.4, 93.0 63.7 C 100.0 79.9, 0.0 49.4, 0.0 63.6 C 0.0 82.0, 98.1 89.9, 99.1 76.6 C 79.3 82.4, 50.8 71.7, 46.9 86.7 C 32.0 89.6, 17.1 55.7, 4.8 66.0 Z" fill="hsl(104, 72%, 65%)" fill-opacity="0.79" stroke="none" stroke-width="3.29"  transform="translate(4.5 93.5) rotate(68.6) scale(1.45 0.58)" />
<circle cx="25.7" cy="93.7" r="5.9" fill="url(#g2)" fill-opacity="0.92"  transform="translate(71.7 22.9) rotate(46.1) scale(1.02 1.72)" />
<path d="M 48.4 44.3 C 30.2 57.8, 17.5 82.7, 7.8 69.7 C 1.7 86.5, 17.7 18.5, 24.7 18.5 C 17.0 37.7, 79.4 28.2, 91.4 34.8 C 98.5 23.2, 54.8 92.9, 47.7 79.5 C 33.0 79.9, 17.7 51.1, 21.0 65.8 C 11.2 85.5, 13.1 38.9, 0.4 27.4 C 11.2 29.6, 35.8 41.6, 26.0 51.3 C 22.8 54.4, 87.0 37.3, 79.0 28.0 C 92.7 37.1, 40.6 11.0, 39.4 17.3 Z" fill="none" fill-opacity="0.46" stroke="hsl(151, 70%, 62%)" stroke-width="5.23"  transform="translate(77.7 88.9) rotate(106.6) scale(1.96 1.10)" />
<path d="M 74.0 12.3 C 93.0 18.3, 59.2 39.6, 44.8 30.3 C 29.8 45.8, 74.8 18.3, 70.1 23.6 C 78.7 27.0, 68.8 99.7, 74.7 93.3 C 64.1 100.0, 57.4 0.0, 44.8 0.1 C 56.1 0.0, 67.8 72.8, 74.6 77.7 C 81.4 61.2, 14.2 93.6, 28.0 88.0 C 21.3 69.4, 57.3 100.0, 60.0 95.7 C 52.4 100.0, 16.8 55.0, 23.2 68.3 Z" fill="hsl(106, 75%, 59%)" fill-opacity="0.38" stroke="none" stroke-width="3.54" filter="url(#f1)" transform="translate(33.7 72.6) rotate(16.7) scale(0.54 1.69)" />
<circle cx="14.7" cy="96.7" r="3.7" fill="url(#g0)" fill-opacity="0.92" filter="url(#f1)" transform="translate(59.2 26.4) rotate(348.0) scale(1.79 0.59)" />
<path d="M 27.9 2.3 C 40.5 21.8, 58.6 74.9, 52.4 64.7 C 41.0 81.5, 60.2 0.6, 58.0 13.8 C 51.9 32.5, 35.6 89.4, 48.3 90.9 C 35.3 79.3, 58.7 61.8, 67.8 71.9 C 75.1 83.0, 0.0 44.5, 4.7 37.2 C 0.3 41.7, 78.5 19.9, 83.6 17.1 C 85.5 31.8, 58.0 65.2, 49.2 50.8 Z" fill="none" fill-opacity="0.78" stroke="hsl(183, 71%, 60%)" stroke-width="2.35"  transform="translate(34.8 67.1) rotate(312.3) scale(1.21 1.20)" />
<rect x="35.6" y="38.6" width="25.2" height="17.7" rx="0" fill="none" fill-opacity="0.74" stroke="hsl(144, 86%, 72%)" stroke-width="2.4"  transform="translate(90.1 91.9) rotate(135.7) scale(0.73 1.62)" />
<circle cx="13.5" cy="30.2" r="11.9" fill="hsl(144, 86%, 72%)" fill-opacity="0.75"  transform="translate(25.1 97.4) rotate(214.1) scale(0.76 1.19)" />
<path d="M 59.1 54.1 C 48.0 60.6, 100.0 48.2, 99.1 61.5 C 100.0 61.5, 25.1 46.5, 20.7 32.8 C 27.4 50.8, 44.2 0.0, 35.5 9.3 C 31.1 0.0, 82.4 46.2, 74.9 31.4 C 80.5 32.4, 38.0 28.9, 27.4 43.1 C 7.4 38.6, 93.7 62.8, 95.6 59.7 C 85.2 66.5, 57.2 86.3, 64.6 98.9 C 63.6 98.2, 11.6 90.4, 23.6 80.5 Z" fill="hsl(144, 86%, 72%)" fill-opacity="0.59" stroke="none" stroke-width="4.93"  transform="translate(5.6 33.9) rotate(274.8) scale(1.89 1.02)" />
<circle cx="15.2" cy="77.2" r="2.7" fill="url(#g0)" fill-opacity="0.53"  transform="translate(84.2 76.2) rotate(253.5) scale(0.78 1.09)" />
<circle cx="12.3" cy="23.3" r="5.4" fill="hsl(40, 53%, 69%)" fill-opacity="0.40"   />
<path d="M 1.5 84.4 C 0.0 97.9, 76.1 16.1, 87.7 10.4 C 69.1 3.3, 84.3 69.4, 79.5 79.3 C 62.5 84.1, 71.3 72.6, 84.9 79.8 C 99.5 64.2, 41.8 3.4, 44.3 0.2 C 55.2 15.6, 94.6 46.2, 93.1 45.4 C 93.2 37.4, 44.7 59.8, 57.7 56.9 C 50.5 66.0, 59.8 19.0, 60.2 5.8 C 70.5 8.3, 0.2 11.2, 0.5 10.2 C 0.0 9.4, 19.9 49.7, 29.2 42.1 " fill="hsl(86, 72%, 68%)" fill-opacity="0.67" stroke="none" stroke-width="4.59"  transform="translate(59.2 9.5) rotate(287.7) scale(1.66 1.45)" />
<path d="M 6.6 15.4 C 0.0 0.0, 29.9 81.8, 38.7 72.8 C 23.0 83.4, 83.2 89.0, 86.7 78.2 C 67.4 76.8, 27.2 57.5, 35.5 55.8 C 51.4 58.6, 70.4 56.9, 68.3 63.6 C 81.8 47.5, 76.7 23.1, 66.4 30.1 C 57.2 11.2, 63.2 6.1, 56.5 5.1 Z" fill="hsl(106, 75%, 59%)" fill-opacity="0.61" stroke="none" stroke-width="1.72"  transform="translate(58.2 5.1) rotate(98.8) scale(1.66 0.83)" />
<circle cx="91.0" cy="39.4" r="10.3" fill="url(#g0)" fill-opacity="0.82" filter="url(#f1)"  />
<path d="M 51.0 71.9 C 63.2 85.6, 77.5 47.2, 71.7 61.4 C 58.6 67.6, 36.9 66.9, 32.7 80.4 C 32.4 80.1, 61.1 52.8, 62.4 48.7 C 51.5 46.1, 48.2 72.2, 51.0 82.1 C 69.5 95.1, 66.4 70.0, 72.0 58.9 C 73.2 69.4, 80.3 93.3, 77.8 95.4 C 72.4 79.5, 13.4 8.9, 24.7 23.5 C 19.8 19.3, 31.8 33.6, 46.6 37.1 " fill="none" fill-opacity="0.89" stroke="hsl(144, 86%, 72%)" stroke-width="1.01"  transform="translate(85.3 27.7) rotate(196.1) scale(1.57 0.65)" />
<path d="M 21.3 71.2 C 8.3 56.0, 51.3 84.6, 47.4 94.8 C 32.9 100.0, 65.3 44.3, 53.6 37.5 C 43.0 52.5, 46.4 9.8, 39.5 19.3 C 31.9 29.7, 33.1 56.2, 39.8 46.6 C 27.9 40.8, 26.7 56.3, 32.7 49.9 C 44.0 65.2, 46.4 13.0, 48.7 26.9 Z" fill="hsl(40, 53%, 69%)" fill-opacity="0.49" stroke="none" stroke-width="5.29"  transform="translate(99.9 17.0) rotate(93.8) scale(1.96 0.67)" />
<path d="M 48.9 74.8 C 30.3 61.8, 0.9 56.0, 14.8 45.4 C 19.0 25.6, 11.4 40.7, 21.7 44.2 C 35.4 32.5, 51.5 82.1, 40.9 92.8 C 38.3 74.9, 35.6 27.8, 22.4 26.6 C 25.8 40.1, 9.5 64.2, 15.9 57.3 C 7.4 45.4, 9.6 75.4, 16.0 88.2 C 4.6 100.0, 64.9 51.4, 71.4 66.1 C 72.8 83.4, 37.1 6.2, 24.4 14.3 Z" fill="hsl(40, 53%, 69%)" fill-opacity="0.49" stroke="none" stroke-width="1.52"  transform="translate(39.4 27.3) rotate(124.6) scale(0.88 1.41)" />
<circle cx="69.4" cy="77.1" r="7.6" fill="hsl(104, 72%, 65%)" fill-opacity="0.89"  transform="translate(33.0 27.3) rotate(154.3) scale(1.28 0.78)" />
<rect x="5.1" y="5.6" width="43.5" height="34.3" rx="0" fill="hsl(151, 70%, 62%)" fill-opacity="0.95"  filter="url(#f1)" transform="translate(25.7 49.4) rotate(305.8) scale(0.81 1.07)" />
<path d="M 80.6 71.6 C 97.6 83.2, 23.0 87.7, 18.5 99.7 C 36.3 91.2, 73.4 13.6, 73.8 22.8 C 88.0 29.8, 52.9 41.6, 46.7 38.1 C 56.9 45.8, 83.0 37.2, 89.6 43.5 C 72.8 43.7, 57.9 19.4, 68.4 20.7 C 88.3 39.6, 86.5 28.8, 94.4 37.6 Z" fill="hsl(40, 53%, 69%)" fill-opacity="0.46" stroke="none" stroke-width="3.30"  transform="translate(90.0 16.6) rotate(63.7) scale(1.80 1.02)" />
<circle cx="17.5" cy="1.2" r="14.0" fill="url(#g2)" fill-opacity="0.88"   />
<rect x="44.7" y="47.0" width="44.9" height="34.3" rx="0" fill="none" fill-opacity="0.99"   transform="translate(41.7 87.1) rotate(40.1) scale(0.64 1.64)" />
<path d="M 15.1 94.7 C 0.3 99.2, 72.9 61.5, 73.5 59.3 C 64.4 57.0, 55.0 93.6, 67.5 82.0 C 56.4 100.0, 80.4 84.3, 92.2 73.3 C 100.0 80.7, 90.9 66.1, 80.0 74.1 C 98.8 56.8, 18.4 84.4, 14.8 72.2 C 0.0 66.3, 17.7 69.5, 28.0 56.8 C 30.8 56.3, 37.6 67.9, 32.1 63.8 Z" fill="hsl(290, 83%, 63%)" fill-opacity="0.80" stroke="none" stroke-width="1.66"  transform="translate(62.0 23.7) rotate(30.1) scale(1.83 1.59)" />
<path d="M 48.4 90.9 C 38.1 100.0, 37.0 94.2, 50.1 87.7 C 46.5 71.0, 12.0 14.0, 19.6 28.7 C 24.4 43.3, 13.4 69.9, 15.6 83.7 C 3.3 66.1, 40.1 100.0, 31.4 92.4 C 46.4 93.1, 0.0 78.3, 7.2 70.0 C 0.0 59.9, 58.4 62.4, 64.6 61.4 C 60.5 46.0, 51.8 0.0, 52.7 1.2 C 72.3 0.0, 16.7 34.3, 23.3 46.4 C 6.3 60.8, 12.2 85.7, 10.1 72.1 C 9.5 61.4, 34.0 33.8, 46.8 47.9 Z" fill="none" fill-opacity="0.69" stroke="hsl(242, 72%, 49%)" stroke-width="1.44"  transform="translate(21.1 63.1) rotate(48.0) scale(1.46 1.37)" />
<circle cx="69.8" cy="9.9" r="11.3" fill="hsl(290, 83%, 63%)" fill-opacity="0.99"  transform="translate(49.2 15.2) rotate(78.3) scale(1.69 1.96)" />
<path d="M 5.8 34.4 C 0.0 53.2, 93.3 95.6, 99.8 81.6 C 100.0 76.7, 76.5 57.5, 74.4 45.4 C 81.7 34.6, 70.7 59.9, 61.1 70.0 C 73.2 52.5, 64.8 64.7, 53.4 64.4 C 35.9 63.8, 46.2 24.3, 36.8 37.0 C 47.2 37.6, 12.1 100.0, 17.3 95.5 C 12.2 90.8, 100.0 53.4, 88.9 44.0 Z" fill="none" fill-opacity="0.60" stroke="hsl(242, 72%, 49%)" stroke-width="2.42"  transform="translate(40.6 25.1) rotate(3.0) scale(0.77 1.64)" />
<path d="M 30.3 46.6 C 46.8 29.5, 13.1 20.4, 6.7 21.4 C 0.0 29.8, 50.0 73.2, 64.9 68.7 C 54.6 56.6, 59.0 25.5, 65.8 22.7 C 82.0 19.9, 66.0 36.3, 80.2 31.7 C 87.4 45.0, 27.8 26.6, 32.0 14.6 C 15.1 32.6, 6.0 52.7, 6.6 56.4 C 0.0 53.2, 47.6 12.3, 35.4 9.5 C 30.9 4.4, 74.4 79.8, 61.5 84.1 C 66.4 66.8, 27.9 79.1, 25.5 68.2 C 34.6 66.3, 0.0 18.1, 3.7 7.2 Z" fill="hsl(322, 74%, 44%)" fill-opacity="0.74" stroke="none" stroke-width="2.51"  transform="translate(69.5 40.9) rotate(16.2) scale(1.36 1.24)" />
<path d="M 51.9 9.6 C 52.9 5.6, 40.6 32.1, 50.7 29.1 C 47.5 47.1, 12.5 10.8, 25.9 1.4 C 14.1 0.0, 14.6 62.2, 6.4 72.2 C 11.1 59.5, 16.9 25.0, 24.4 31.8 C 21.1 32.8, 37.1 58.7, 50.7 52.0 C 40.6 34.2, 72.3 11.9, 72.8 12.0 C 66.2 0.5, 69.4 47.2, 62.9 51.2 Z" fill="none" fill-opacity="0.42" stroke="hsl(106, 75%, 59%)" stroke-width="3.00" filter="url(#f1)"  />
<path d="M 98.4 23.0 C 82.2 13.3, 98.5 67.5, 93.0 76.7 C 79.2 68.5, 13.1 31.7, 3.5 44.9 C 0.0 44.5, 76.9 3.5, 76.3 7.7 C 77.3 26.8, 32.1 97.8, 41.0 95.0 C 28.1 91.5, 67.9 21.7, 77.8 27.9 C 69.2 25.4, 38.4 77.9, 38.9 67.4 Z" fill="none" fill-opacity="0.85" stroke="hsl(106, 75%, 59%)" stroke-width="1.39"  transform="translate(68.1 34.0) rotate(62.3) scale(1.18 1.92)" />
<path d="M 36.2 50.8 C 32.6 33.9, 35.2 58.0, 48.1 65.7 C 47.9 62.0, 36.6 63.6, 30.3 60.8 C 19.1 76.9, 92.6 61.7, 98.8 54.3 C 100.0 63.1, 70.3 16.2, 69.9 27.0 C 87.2 20.7, 16.5 1.9, 19.1 9.4 C 33.9 3.0, 8.5 100.0, 14.1 96.4 C 27.6 77.3, 96.2 52.0, 87.4 47.3 C 93.7 62.5, 63.1 15.2, 56.9 29.0 C 38.6 33.3, 10.8 61.2, 4.2 58.1 C 0.5 42.3, 35.5 31.5, 38.6 45.0 Z" fill="hsl(322, 74%, 44%)" fill-opacity="0.91" stroke="none" stroke-width="4.39"  transform="translate(41.0 50.3) rotate(184.3) scale(0.83 1.31)" />
<path d="M 95.8 54.1 C 83.4 72.7, 5.6 76.5, 4.3 78.4 C 0.0 84.1, 21.5 41.6, 25.4 32.8 C 18.4 21.8, 4.2 55.8, 17.4 44.7 C 3.9 58.0, 16.6 74.3, 18.4 67.5 C 20.6 59.0, 0.0 0.0, 1.9 12.6 C 0.0 31.9, 70.0 32.9, 61.5 27.7 C 62.7 11.4, 60.7 46.0, 52.3 51.3 C 62.6 36.7, 32.7 43.9, 20.2 40.3 C 26.7 32.6, 55.2 85.7, 62.8 88.3 Z" fill="hsl(106, 75%, 59%)" fill-opacity="0.96" stroke="none" stroke-width="4.26"   />
<path d="M 97.0 87.6 C 100.0 93.8, 0.0 65.9, 2.0 66.4 C 19.0 51.2, 51.1 37.9, 40.3 42.6 C 20.5 61.6, 96.3 0.0, 99.1 6.5 C 85.6 0.0, 74.0 64.9, 67.4 71.5 C 77.5 70.8, 50.3 100.0, 41.3 97.7 C 59.9 94.1, 14.4 59.2, 10.0 54.2 C 24.2 55.9, 87.5 100.0, 89.8 98.9 Z" fill="hsl(104, 72%, 65%)" fill-opacity="0.26" stroke="none" stroke-width="3.03"   />
<path d="M 21.5 0.3 C 36.3 12.6, 95.5 24.5, 89.5 15.3 C 94.0 14.4, 23.1 90.6, 12.4 83.4 C 22.1 100.0, 89.7 15.8, 86.8 9.6 C 94.1 8.8, 56.4 90.0, 59.4 94.0 C 42.4 100.0, 51.3 86.2, 62.2 92.6 C 64.6 75.7, 27.1 44.6, 22.4 33.8 C 38.4 28.8, 93.3 28.6, 92.3 32.0 C 100.0 19.2, 70.5 10.5, 72.8 22.2 C 82.6 12.9, 87.1 46.8, 97.1 60.5 C 100.0 50.8, 77.0 12.8, 89.0 21.8 " fill="none" fill-opacity="0.31" stroke="hsl(86, 72%, 68%)" stroke-width="4.30"  transform="translate(14.4 24.0) rotate(284.6) scale(1.40 1.01)" />
<rect x="3.8" y="13.5" width="21.3" height="25.7" rx="5.8" fill="none" fill-opacity="0.85" stroke="hsl(83, 65%, 44%)" stroke-width="3.5"  transform="translate(74.9 17.4) rotate(96.1) scale(1.25 1.88)" />
<path d="M 74.7 67.9 C 65.0 67.5, 50.4 73.0, 58.3 76.3 C 70.0 76.0, 72.0 58.7, 64.3 45.1 C 45.5 61.7, 44.2 36.7, 44.1 44.3 C 58.0 56.4, 56.6 39.5, 67.3 41.6 C 71.1 59.4, 37.2 26.0, 48.2 20.1 C 67.2 36.9, 54.5 36.4, 42.0 43.7 C 49.8 29.0, 33.6 23.5, 45.0 13.0 Z" fill="hsl(290, 83%, 63%)" fill-opacity="0.89" stroke="none" stroke-width="3.70"   />
<path d="M 91.9 44.6 C 72.1 60.7, 73.4 59.2, 73.5 48.4 C 92.3 51.7, 67.8 77.1, 70.0 91.2 C 83.9 100.0, 0.0 97.6, 5.4 98.3 C 20.3 81.1, 13.4 46.4, 3.2 50.3 C 4.4 49.7, 31.8 67.2, 21.1 54.3 C 18.7 74.2, 68.7 0.0, 56.0 8.1 C 42.5 2.9, 27.6 6.4, 42.2 6.3 C 25.1 1.8, 17.6 19.8, 4.9 28.3 Z" fill="none" fill-opacity="0.72" stroke="hsl(86, 72%, 68%)" stroke-width="4.21"   />
<g opacity="0.038">
<rect x="0" y="0" width="1" height="100" fill="black" />
<rect x="22" y="0" width="1" height="100" fill="black" />
<rect x="44" y="0" width="1" height="100" fill="black" />
<rect x="66" y="0" width="1" height="100" fill="black" />
<rect x="88" y="0" width="1" height="100" fill="black" />
<rect x="0" y="0" width="100" height="1" fill="black" />
<rect x="0" y="22" width="100" height="1" fill="black" />
<rect x="0" y="44" width="100" height="1" fill="black" />
<rect x="0" y="66" width="100" height="1" fill="black" />
<rect x="0" y="88" width="100" height="1" fill="black" />
</g>

</svg>
