<?xml version="1.0" encoding="UTF-8"?>
<svg xmlns="http://www.w3.org/2000/svg" width="100" height="100" viewBox="0 0 100 100">
<defs>
<linearGradient id="g0" x1="0%" y1="0%" x2="100%" y2="100%">
<stop offset="0.0%" stop-color="hsl(106, 75%, 59%)" />
<stop offset="33.3%" stop-color="hsl(183, 71%, 60%)" />
<stop offset="66.7%" stop-color="hsl(242, 72%, 49%)" />
<stop offset="100.0%" stop-color="hsl(322, 74%, 44%)" />
</linearGradient>
<linearGradient id="g1" x1="0%" y1="0%" x2="100%" y2="100%">
<stop offset="0.0%" stop-color="hsl(290, 83%, 63%)" />
<stop offset="33.3%" stop-color="hsl(2, 82%, 55%)" />
<stop offset="66.7%" stop-color="hsl(86, 72%, 68%)" />
<stop offset="100.0%" stop-color="hsl(83, 65%, 44%)" />
</linearGradient>
<linearGradient id="g2" x1="0%" y1="0%" x2="100%" y2="100%">
<stop offset="0.0%" stop-color="hsl(40, 53%, 69%)" />
<stop offset="33.3%" stop-color="hsl(104, 72%, 65%)" />
<stop offset="66.7%" stop-color="hsl(144, 86%, 72%)" />
<stop offset="100.0%" stop-color="hsl(151, 70%, 62%)" />
</linearGradient>
<filter id="f1" x="-20%" y="-20%" width="140%" height="140%">
  <feGaussianBlur stdDeviation="0.7862173754729278" />
</filter>

</defs>

<path d="M 19.6 68.9 C 23.6 71.6, 14.6 62.2, 25.7 71.1 C 36.2 55.8, 47.3 100.0, 45.6 89.7 C 56.6 72.0, 30.8 90.6, 38.6 79.8 C 34.1 84.4, 65.8 38.5, 74.7 46.2 C 62.2 48.9, 81.8 69.5, 76.3 61.6 C 60.9 53.7, 62.4 25.0, 63.0 11.2 C 63.9 22.7, 90.6 53.9, 80.1 41.2 Z" fill="none" fill-opacity="0.53" stroke="hsl(183, 71%, 60%)" stroke-width="4.72"  transform="translate(70.4 3.1) rotate(189.0) scale(0.82 1.71)" />
<circle cx="6.4" cy="11.8" r="0.6" fill="hsl(183, 71%, 60%)" fill-opacity="0.48"   />
<circle cx="3.5" cy="44.3" r="11.9" fill="hsl(242, 72%, 49%)" fill-opacity="0.76"   />
<path d="M 43.0 33.5 C 24.6 32.5, 45.9 21.7, 43.6 31.4 C 43.9 34.2, 62.5 40.2, 48.3 41.9 C 66.1 36.8, 21.0 54.4, 33.1 51.4 C 36.4 59.6, 53.3 27.8, 48.0 20.1 C 63.5 10.1, 54.2 67.2, 39.5 60.9 C 58.4 80.1, 58.8 61.4, 48.7 52.6 C 33.5 37.5, 61.6 76.9, 62.2 70.8 C 79.0 56.3, 4.5 24.7, 13.2 11.3 C 22.0 23.5, 73.0 63.5, 68.7 52.9 C 82.4 55.7, 46.4 13.2, 47.2 7.4 Z" fill="hsl(242, 72%, 49%)" fill-opacity="0.82" stroke="none" stroke-width="4.27"  transform="translate(1.6 2.5) rotate(129.6) scale(1.28 1.27)" />
<path d="M 24.6 0.4 C 36.4 0.0, 54.0 58.7, 59.7 53.8 C 42.0 44.8, 0.0 78.4, 1.9 72.4 C 0.0 87.3, 40.1 50.9, 27.6 56.7 C 28.5 75.9, 6.7 87.5, 8.8 95.7 C 6.6 100.0, 0.0 84.9, 8.6 80.3 C 7.3 60.9, 94.2 24.1, 95.2 25.6 Z" fill="hsl(2, 82%, 55%)" fill-opacity="0.26" stroke="none" stroke-width="1.31"  transform="translate(61.7 87.3) rotate(340.8) scale(1.86 1.50)" />
<path d="M 17.9 63.8 C 5.2 67.4, 48.7 6.3, 33.7 1.0 C 28.8 0.0, 0.0 60.9, 3.8 55.9 C 0.0 47.9, 81.1 0.0, 75.3 2.2 C 74.0 0.0, 58.2 33.2, 70.1 34.5 C 61.6 27.5, 91.5 100.0, 81.2 99.6 C 94.0 100.0, 75.9 49.9, 87.6 41.8 C 78.2 30.6, 28.7 76.1, 22.0 80.4 Z" fill="none" fill-opacity="0.94" stroke="hsl(40, 53%, 69%)" stroke-width="3.51"  transform="translate(72.9 7.7) rotate(302.9) scale(0.69 0.91)" />
<circle cx="88.7" cy="63.6" r="15.1" fill="hsl(2, 82%, 55%)" fill-opacity="0.78"  transform="translate(17.3 92.4) rotate(351.1) scale(0.87 0.53)" />
<circle cx="82.2" cy="36.0" r="0.2" fill="url(#g2)" fill-opacity="0.79"  transform="translate(59.5 79.0) rotate(65.6) scale(0.99 0.61)" />
<path d="M 12.4 34.8 C 18.0 26.3, 31.0 81.9, 16.9 82.8 C 20.5 97.8, 35.0 57.4, 49.4 61.9 C 42.4 42.5, 82.4 0.0, 80.6 3.2 C 65.7 3.1, 0.0 0.0, 0.7 5.7 C 0.0 0.0, 6.3 57.3, 16.2 61.2 C 28.7 69.4, 68.5 64.3, 61.9 75.9 Z" fill="hsl(183, 71%, 60%)" fill-opacity="0.97" stroke="none" stroke-width="5.17"  transform="translate(50.4 8.0) rotate(225.7) scale(1.55 0.68)" />
<circle cx="50.3" cy="66.2" r="2.2" fill="url(#g0)" fill-opacity="0.51"  transform="translate(70.2 2.2) rotate(290.2) scale(1.50 0.93)" />
<circle cx="93.0" cy="66.2" r="4.3" fill="url(#g1)" fill-opacity="0.56"  transform="translate(1.0 51.4) rotate(121.2) scale(1.50 1.63)" />
<path d="M 2.4 66.2 C 12.2 56.3, 42.7 88.1, 30.9 97.5 C 31.4 81.7, 0.7 78.2, 6.9 70.7 C 18.2 60.4, 40.1 78.4, 26.6 83.8 C 29.8 89.5, 68.1 7.7, 57.3 6.6 C 55.9 4.0, 1.8 59.3, 6.9 69.2 C 4.9 75.6, 85.7 70.5, 89.1 64.7 C 100.0 52.8, 82.4 94.9, 73.5 93.0 C 76.6 84.3, 49.9 83.9, 58.4 82.5 C 58.9 90.9, 12.9 19.7, 1.9 15.2 Z" fill="hsl(86, 72%, 68%)" fill-opacity="0.35" stroke="none" stroke-width="4.17"  transform="translate(75.5 88.9) rotate(69.5) scale(0.64 0.91)" />
<path d="M 50.9 60.2 C 52.5 63.6, 15.5 35.6, 24.9 48.9 C 18.4 44.7, 39.1 12.5, 40.4 8.0 C 36.7 23.5, 52.9 80.0, 51.8 68.4 C 32.3 71.8, 16.6 36.4, 13.7 31.9 C 27.6 41.6, 100.0 10.7, 99.4 1.5 C 92.9 0.0, 97.2 39.4, 96.8 35.0 C 82.5 32.7, 40.2 65.8, 25.3 62.2 C 38.6 69.9, 55.7 38.4, 50.5 34.5 C 59.8 39.2, 62.2 52.1, 66.7 58.8 Z" fill="hsl(242, 72%, 49%)" fill-opacity="0.88" stroke="none" stroke-width="2.57"  transform="translate(69.7 44.0) rotate(229.9) scale(1.64 1.63)" />
<path d="M 77.0 81.9 C 66.4 73.0, 63.4 88.9, 52.3 85.9 C 54.4 100.0, 38.2 0.0, 31.1 9.8 C 37.3 23.4, 63.8 32.7, 78.0 37.0 C 68.8 24.7, 18.9 70.1, 25.8 81.2 C 17.6 87.2, 29.6 37.5, 40.9 43.0 C 51.7 43.5, 38.7 7.5, 45.0 18.5 Z" fill="hsl(2, 82%, 55%)" fill-opacity="0.81" stroke="none" stroke-width="3.26"  transform="translate(41.2 57.5) rotate(285.7) scale(0.90 1.47)" />
<circle cx="13.6" cy="1.3" r="1.9" fill="hsl(106, 75%, 59%)" fill-opacity="0.61" filter="url(#f1)" transform="translate(92.1 28.6) rotate(47.1) scale(0.69 1.08)" />
<path d="M 80.9 58.0 C 64.4 61.5, 65.4 68.4, 68.6 76.7 C 71.0 82.7, 20.0 74.8, 20.2 74.1 C 14.8 81.0, 0.0 67.3, 4.3 78.7 C 0.0 69.1, 0.0 19.0, 4.4 15.0 C 0.0 26.8, 85.5 100.0, 90.8 91.6 C 84.8 84.4, 45.3 25.0, 45.6 12.2 C 60.4 1.3, 58.3 9.9, 56.0 19.4 Z" fill="hsl(83, 65%, 44%)" fill-opacity="0.52" stroke="none" stroke-width="1.79"   />
<path d="M 85.6 9.9 C 85.1 0.0, 18.9 57.6, 16.5 48.4 C 0.0 35.5, 0.0 61.3, 9.2 63.2 C 21.2 46.5, 33.7 20.1, 29.9 20.5 C 15.3 32.3, 2.1 20.9, 1.3 23.5 C 9.0 35.2, 31.2 50.5, 33.9 57.9 C 41.6 62.4, 56.4 84.4, 64.3 95.6 Z" fill="none" fill-opacity="0.41" stroke="hsl(183, 71%, 60%)" stroke-width="4.32"  transform="translate(22.2 75.7) rotate(269.0) scale(1.18 1.35)" />
<rect x="48.3" y="11.6" width="38.2" height="12.0" rx="0" fill="hsl(183, 71%, 60%)" fill-opacity="1.00" stroke="hsl(322, 74%, 44%)" stroke-width="3.7"  transform="translate(72.1 10.0) rotate(118.5) scale(1.88 0.92)" />
<path d="M 20.0 49.3 C 39.7 41.5, 71.4 72.7, 85.6 72.3 C 76.6 59.0, 64.7 52.2, 71.1 60.9 C 54.0 70.7, 57.5 53.9, 70.7 47.9 C 81.3 54.6, 73.8 85.7, 85.9 83.1 C 76.2 78.3, 91.7 13.6, 80.0 8.1 C 80.5 2.8, 39.1 21.4, 35.0 9.3 C 45.9 0.0, 6.6 45.9, 10.5 50.0 C 8.4 68.3, 18.9 53.2, 25.4 47.1 Z" fill="none" fill-opacity="0.65" stroke="hsl(104, 72%, 65%)" stroke-width="3.83"  transform="translate(5.1 15.4) rotate(161.4) scale(1.23 0.79)" />
<rect x="56.0" y="2.3" width="37.1" height="32.3" rx="0" fill="none" fill-opacity="0.59"    />
<path d="M 53.4 62.9 C 54.7 75.4, 21.3 78.5, 21.4 86.4 C 10.3 84.8, 29.1 38.1, 14.2 39.0 C 26.5 25.3, 0.0 48.7, 4.2 45.0 C 0.0 25.8, 83.5 44.5, 86.2 48.9 C 69.2 44.8, 32.0 3.6, 21.6 10.2 C 4.3 0.1, 0.0 74.6, 7.3 63.4 Z" fill="hsl(151, 70%, 62%)" fill-opacity="0.68" stroke="none" stroke-width="2.38"  transform="translate(14.9 37.9) rotate(343.4) scale(0.53 0.54)" />
<rect x="31.0" y="9.2" width="48.4" height="28.2" rx="16.7" fill="hsl(290, 83%, 63%)" fill-opacity="0.86" stroke="hsl(2, 82%, 55%)" stroke-width="3.0" filter="url(#f1)"  />
<rect x="10.0" y="57.1" width="20.0" height="38.1" rx="10.3" fill="hsl(183, 71%, 60%)" fill-opacity="0.46"   transform="translate(32.8 54.3) rotate(306.0) scale(0.88 0.94)" />
<rect x="35.9" y="25.6" width="26.6" height="22.0" rx="0" fill="none" fill-opacity="0.24"   transform="translate(81.2 18.7) rotate(304.7) scale(1.35 1.02)" />
<rect x="25.3" y="21.1" width="45.4" height="40.0" rx="0" fill="none" fill-opacity="0.23" stroke="hsl(83, 65%, 44%)" stroke-width="1.9"  transform="translate(55.9 96.8) rotate(61.0) scale(1.04 1.47)" />
<path d="M 83.3 95.6 C 63.7 88.4, 32.1 37.1, 17.2 48.4 C 26.7 48.9, 39.9 83.9, 54.9 92.0 C 62.8 91.4, 34.8 58.9, 38.0 67.3 C 41.9 48.1, 73.2 35.3, 58.6 34.8 C 42.1 43.1, 1.8 94.6, 13.2 90.9 C 25.7 74.3, 38.9 65.2, 33.6 58.5 Z" fill="hsl(2, 82%, 55%)" fill-opacity="0.40" stroke="none" stroke-width="1.27"  transform="translate(88.5 42.7) rotate(329.9) scale(0.81 0.97)" />
<rect x="54.4" y="40.7" width="40.9" height="15.7" rx="0" fill="hsl(40, 53%, 69%)" fill-opacity="0.66"   transform="translate(78.8 35.7) rotate(144.1) scale(1.14 1.10)" />
<path d="M 74.0 31.2 C 89.8 35.2, 51.4 100.0, 48.3 99.7 C 66.7 100.0, 18.1 19.7, 17.4 26.8 C 34.9 24.9, 42.0 18.7, 43.5 24.4 C 48.9 19.3, 81.1 92.0, 78.0 93.3 C 64.2 76.5, 79.4 68.7, 82.7 82.4 C 66.0 79.4, 40.3 26.1, 44.0 13.8 C 33.1 14.1, 89.4 68.3, 80.6 82.6 C 92.8 97.4, 43.3 23.1, 49.4 28.9 C 45.5 12.2, 89.4 7.3, 84.3 15.3 Z" fill="none" fill-opacity="0.58" stroke="hsl(144, 86%, 72%)" stroke-width="2.33"  transform="translate(63.3 89.1) rotate(179.9) scale(0.71 0.76)" />
<circle cx="56.6" cy="97.3" r="16.3" fill="hsl(151, 70%, 62%)" fill-opacity="0.99"  transform="translate(24.8 5.3) rotate(294.6) scale(1.97 1.25)" />
<path d="M 94.4 49.9 C 97.5 36.6, 34.4 100.0, 44.8 95.3 C 62.4 92.8, 84.7 84.6, 89.7 81.2 C 90.8 89.7, 75.5 57.5, 80.7 66.8 C 82.9 83.0, 50.0 82.4, 41.2 82.9 C 52.9 65.9, 100.0 65.4, 96.2 68.7 C 78.0 54.0, 100.0 37.5, 98.4 51.7 Z" fill="none" fill-opacity="0.34" stroke="hsl(83, 65%, 44%)" stroke-width="2.90"  transform="translate(38.1 67.1) rotate(256.8) scale(1.12 0.79)" />
<path d="M 27.7 74.9 C 20.2 77.3, 49.5 28.9, 51.9 17.0 C 51.0 36.5, 83.3 34.5, 72.7 29.8 C 57.8 11.0, 69.2 64.4, 54.4 79.3 C 54.9 65.6, 79.6 33.8, 85.2 31.6 C 87.6 38.3, 82.5 68.7, 84.2 82.2 C 70.0 68.0, 37.6 100.0, 26.8 88.5 C 30.2 82.2, 62.2 59.2, 56.4 47.7 Z" fill="hsl(144, 86%, 72%)" fill-opacity="0.46" stroke="none" stroke-width="1.27"  transform="translate(32.1 20.5) rotate(335.0) scale(1.73 1.58)" />
<path d="M 47.4 18.3 C 41.2 0.0, 65.8 100.0, 74.4 97.7 C 60.5 77.9, 15.8 0.0, 2.3 2.9 C 0.0 0.0, 100.0 5.0, 97.6 16.5 C 100.0 1.2, 77.2 23.6, 72.6 27.0 C 70.8 13.4, 8.8 87.7, 20.1 91.0 C 25.3 100.0, 100.0 17.0, 94.5 17.8 C 100.0 0.0, 100.0 49.4, 88.0 50.4 C 93.0 67.2, 8.2 40.4, 2.7 40.0 C 0.0 43.2, 37.9 73.0, 24.1 78.6 C 32.5 86.5, 37.0 13.7, 37.8 1.9 " fill="none" fill-opacity="0.26" stroke="hsl(2, 82%, 55%)" stroke-width="1.18"  transform="translate(28.1 97.9) rotate(249.1) scale(0.58 0.76)" />
<circle cx="30.2" cy="0.2" r="6.8" fill="hsl(106, 75%, 59%)" fill-opacity="0.42"  transform="translate(46.0 48.2) rotate(201.8) scale(1.60 0.67)" />
<rect x="49.5" y="43.0" width="36.3" height="21.5" rx="0" fill="hsl(83, 65%, 44%)" fill-opacity="0.65"   transform="translate(59.6 14.6) rotate(203.2) scale(1.77 0.83)" />
<path d="M 32.0 98.5 C 32.1 100.0, 83.8 21.1, 72.0 23.0 C 53.1 23.4, 68.1 63.8, 61.5 55.7 C 56.3 67.5, 17.3 64.1, 28.4 76.8 C 28.5 88.4, 30.4 49.3, 22.6 59.2 C 29.5 75.5, 83.3 7.1, 72.2 6.7 C 81.9 0.0, 57.3 100.0, 50.1 97.6 C 56.6 91.8, 0.0 28.4, 0.7 23.9 C 0.0 14.4, 100.0 58.6, 92.6 44.4 C 76.0 48.6, 75.0 7.2, 75.6 15.2 C 70.5 3.9, 64.3 15.8, 56.4 25.9 Z" fill="hsl(144, 86%, 72%)" fill-opacity="0.57" stroke="none" stroke-width="1.56"  transform="translate(49.5 0.1) rotate(145.6) scale(1.13 1.05)" />
<circle cx="16.4" cy="28.9" r="11.6" fill="url(#g1)" fill-opacity="0.84"  transform="translate(19.8 28.3) rotate(184.5) scale(1.47 0.88)" />
<circle cx="72.5" cy="49.5" r="2.6" fill="hsl(290, 83%, 63%)" fill-opacity="0.99"  transform="translate(11.9 79.6) rotate(59.5) scale(1.37 1.92)" />
<path d="M 5.4 3.2 C 0.3 0.0, 2.0 74.2, 14.3 66.5 C 23.6 67.7, 0.3 65.6, 7.8 79.0 C 4.3 90.7, 39.0 81.3, 29.6 92.4 C 36.7 99.0, 77.9 18.1, 82.4 6.7 C 70.6 18.7, 25.9 60.0, 24.4 61.1 C 5.7 62.6, 0.0 6.1, 1.7 0.7 C 3.2 0.0, 14.9 0.0, 3.4 0.9 C 8.0 3.0, 91.3 37.6, 88.3 36.6 C 86.6 32.4, 0.0 39.4, 2.0 32.2 Z" fill="none" fill-opacity="0.90" stroke="hsl(183, 71%, 60%)" stroke-width="4.03"   />
<path d="M 83.0 0.3 C 86.4 8.2, 5.6 10.5, 1.8 8.6 C 12.0 0.0, 45.5 80.8, 38.1 84.4 C 32.1 67.6, 90.6 22.1, 96.6 12.9 C 86.0 14.3, 44.2 79.4, 58.3 87.8 C 62.3 70.4, 65.9 77.4, 79.7 69.8 C 89.1 80.8, 29.0 100.0, 41.5 96.2 C 26.2 100.0, 0.0 100.0, 1.1 97.2 C 19.6 77.6, 14.3 80.2, 16.8 67.5 Z" fill="none" fill-opacity="0.75" stroke="hsl(2, 82%, 55%)" stroke-width="5.16"  transform="translate(7.1 29.2) rotate(71.5) scale(1.42 1.21)" />
<path d="M 89.4 99.6 C 96.0 96.4, 55.5 60.2, 46.0 69.1 C 36.2 68.0, 65.3 65.7, 54.2 70.9 C 55.9 85.4, 57.4 30.4, 52.7 27.4 C 57.7 36.8, 39.9 91.9, 31.6 93.2 C 34.0 100.0, 28.0 60.4, 42.8 47.6 C 42.4 29.5, 42.2 47.3, 30.9 59.1 C 21.6 58.1, 87.9 25.0, 82.9 39.0 C 74.9 36.6, 100.0 45.1, 91.5 51.7 C 100.0 55.5, 68.0 42.1, 55.2 28.9 C 55.2 35.2, 100.0 42.7, 93.4 38.6 Z" fill="hsl(183, 71%, 60%)" fill-opacity="0.46" stroke="none" stroke-width="1.59"  transform="translate(50.6 0.8) rotate(192.7) scale(1.41 1.15)" />
<path d="M 73.8 89.5 C 72.3 100.0, 76.4 22.0, 63.4 33.8 C 68.4 46.8, 45.9 5.6, 53.8 11.8 C 63.0 13.6, 37.5 69.4, 49.7 60.6 C 46.1 73.5, 59.1 100.0, 44.4 98.9 C 53.3 98.7, 58.4 51.3, 72.0 65.5 C 90.6 56.7, 19.9 0.0, 29.2 2.3 Z" fill="hsl(151, 70%, 62%)" fill-opacity="0.78" stroke="none" stroke-width="1.70"  transform="translate(77.6 66.6) rotate(117.2) scale(1.25 1.53)" />
<path d="M 80.8 26.4 C 65.5 24.1, 62.5 61.8, 64.9 72.1 C 55.7 76.9, 13.7 32.0, 17.2 25.8 C 35.2 25.3, 46.1 63.6, 49.9 58.9 C 56.7 54.7, 20.4 34.8, 11.3 40.1 C 0.0 51.5, 13.8 64.1, 21.9 78.3 C 35.9 63.3, 68.9 38.7, 62.9 29.7 C 49.0 11.0, 65.4 23.7, 61.9 36.0 C 62.0 27.3, 20.0 34.1, 19.0 32.9 C 6.5 34.8, 86.3 19.2, 93.9 17.0 C 100.0 33.3, 21.3 31.0, 15.5 30.9 Z" fill="none" fill-opacity="0.54" stroke="hsl(242, 72%, 49%)" stroke-width="3.73"  transform="translate(40.8 53.5) rotate(0.9) scale(1.70 1.93)" />
<path d="M 4.1 39.0 C 11.2 41.6, 10.0 22.9, 24.6 35.1 C 38.6 51.8, 18.5 79.6, 21.8 71.7 C 16.0 66.0, 45.2 73.4, 33.9 87.5 C 48.8 72.9, 19.3 84.1, 23.2 91.0 C 31.2 98.8, 51.8 52.5, 54.4 42.2 C 72.5 31.5, 100.0 19.8, 90.5 22.9 Z" fill="hsl(106, 75%, 59%)" fill-opacity="0.25" stroke="none" stroke-width="1.52"  transform="translate(34.9 59.4) rotate(301.7) scale(1.82 0.90)" />
<circle cx="15.1" cy="1.0" r="2.8" fill="url(#g1)" fill-opacity="0.99"  transform="translate(74.4 13.7) rotate(54.8) scale(0.94 2.00)" />
<path d="M 7.4 42.2 C 0.0 28.8, 34.2 39.0, 49.1 42.8 C 49.6 45.0, 100.0 84.6, 99.2 84.5 C 87.8 71.7, 52.3 100.0, 40.7 99.5 C 39.8 100.0, 44.8 42.2, 41.5 37.0 C 58.9 32.3, 14.9 80.5, 5.1 74.2 C 0.0 60.8, 40.5 75.4, 50.9 73.0 C 44.5 54.5, 48.4 100.0, 37.9 98.2 Z" fill="hsl(144, 86%, 72%)" fill-opacity="0.52" stroke="none" stroke-width="0.92"  transform="translate(91.3 49.8) rotate(30.7) scale(1.36 1.68)" />
<circle cx="2.9" cy="3.7" r="5.9" fill="hsl(83, 65%, 44%)" fill-opacity="0.58"   />
<path d="M 81.4 52.6 C 65.5 36.9, 100.0 45.3, 98.7 52.1 C 100.0 33.6, 50.4 24.2, 56.2 28.0 C 71.1 24.2, 89.3 91.0, 82.7 87.5 C 76.3 78.4, 30.8 0.7, 17.0 3.1 C 22.9 0.6, 51.3 99.1, 65.6 96.1 C 49.8 100.0, 96.8 50.1, 91.5 51.7 C 100.0 69.7, 30.4 12.9, 43.2 8.9 C 44.6 0.0, 10.2 4.3, 12.9 17.4 C 0.2 7.4, 30.9 40.7, 40.0 41.1 " fill="hsl(144, 86%, 72%)" fill-opacity="0.75" stroke="none" stroke-width="4.82"  transform="translate(80.9 61.7) rotate(89.8) scale(1.03 1.82)" />
<path d="M 19.2 52.9 C 12.6 61.6, 75.5 81.4, 66.4 81.4 C 59.1 92.6, 55.3 46.6, 54.8 36.4 C 39.8 27.4, 20.3 91.1, 31.6 99.7 C 36.6 88.6, 45.8 60.8, 53.0 60.4 C 33.3 67.7, 25.4 20.8, 13.6 19.9 C 13.5 3.6, 53.4 82.2, 65.0 80.6 C 58.7 99.1, 48.1 56.5, 40.2 47.2 C 58.8 28.2, 84.8 48.9, 83.0 62.9 C 75.8 43.0, 2.5 48.9, 1.7 62.2 C 6.3 58.5, 84.4 26.0, 92.0 37.1 Z" fill="hsl(183, 71%, 60%)" fill-opacity="0.33" stroke="none" stroke-width="4.71" filter="url(#f1)" transform="translate(63.4 97.7) rotate(175.7) scale(0.93 1.25)" />
<path d="M 2.0 50.1 C 10.9 67.2, 23.7 51.0, 36.7 50.0 C 28.5 51.1, 56.7 15.8, 54.9 14.8 C 60.3 1.9, 53.1 48.3, 65.3 37.5 C 48.9 57.2, 88.3 61.4, 81.5 55.0 C 87.1 51.1, 90.5 34.6, 86.3 47.4 C 83.0 60.4, 69.2 71.4, 61.9 66.4 C 62.9 51.5, 15.2 96.7, 29.6 88.3 Z" fill="none" fill-opacity="0.95" stroke="hsl(83, 65%, 44%)" stroke-width="4.63"  transform="translate(80.6 30.6) rotate(238.2) scale(0.70 1.66)" />
<circle cx="31.2" cy="16.1" r="4.9" fill="hsl(2, 82%, 55%)" fill-opacity="0.92"  transform="translate(81.2 45.5) rotate(105.5) scale(0.76 1.56)" />
<circle cx="74.1" cy="31.8" r="2.9" fill="url(#g2)" fill-opacity="0.88"  transform="translate(57.2 17.6) rotate(259.4) scale(1.21 0.53)" />
<path d="M 74.0 51.6 C 88.9 70.5, 35.3 20.2, 31.3 23.1 C 38.6 35.6, 6.8 43.2, 12.4 42.7 C 22.5 34.8, 4.1 12.6, 15.4 5.7 C 19.1 0.0, 42.6 57.7, 53.4 71.3 C 59.7 77.3, 57.3 11.3, 51.2 5.9 C 39.6 4.3, 56.3 7.9, 61.9 11.9 Z" fill="hsl(104, 72%, 65%)" fill-opacity="0.60" stroke="none" stroke-width="5.10" filter="url(#f1)" transform="translate(94.8 9.7) rotate(38.3) scale(0.83 1.74)" />
<path d="M 39.5 70.8 C 48.4 83.1, 18.4 0.0, 20.3 0.1 C 23.0 0.0, 94.0 3.5, 85.2 14.9 C 88.6 29.5, 77.9 93.8, 83.1 95.3 C 100.0 90.9, 45.3 0.0, 60.0 0.9 C 72.8 2.5, 100.0 96.3, 91.6 89.8 C 81.7 100.0, 30.3 14.3, 44.4 11.6 C 38.8 0.0, 19.3 50.2, 21.6 48.4 Z" fill="none" fill-opacity="0.95" stroke="hsl(183, 71%, 60%)" stroke-width="4.48"  transform="translate(70.7 43.8) rotate(79.4) scale(0.99 1.54)" />
<path d="M 86.6 31.9 C 72.3 32.7, 4.9 52.1, 6.4 56.5 C 0.0 38.6, 8.7 30.8, 8.5 32.3 C 14.0 26.8, 38.5 92.8, 51.6 90.8 C 56.3 98.4, 27.4 28.5, 15.3 29.2 C 26.4 28.4, 100.0 3.3, 90.3 14.1 C 85.7 19.2, 49.4 75.9, 57.2 62.8 C 52.5 61.0, 100.0 0.0, 95.5 0.2 Z" fill="hsl(40, 53%, 69%)" fill-opacity="0.94" stroke="none" stroke-width="1.09"   />
<circle cx="16.7" cy="70.1" r="5.5" fill="hsl(83, 65%, 44%)" fill-opacity="0.56"  transform="translate(93.2 38.4) rotate(86.4) scale(1.74 0.84)" />
<path d="M 86.3 74.7 C 80.4 76.9, 73.4 34.5, 74.7 43.6 C 74.4 29.1, 74.2 100.0, 67.8 95.1 C 70.7 100.0, 94.7 30.7, 80.6 25.6 C 98.2 20.9, 21.1 17.6, 16.1 18.1 C 35.3 33.6, 29.6 15.5, 19.5 12.6 C 33.9 0.0, 65.7 52.0, 62.0 54.9 Z" fill="none" fill-opacity="0.59" stroke="hsl(144, 86%, 72%)" stroke-width="2.19" filter="url(#f1)"  />
<path d="M 52.3 77.4 C 60.0 62.8, 61.8 100.0, 72.9 93.2 C 54.4 91.8, 23.3 54.7, 17.3 51.0 C 19.1 67.6, 97.8 7.0, 89.9 20.8 C 100.0 15.5, 43.5 43.4, 34.5 55.8 C 44.9 48.3, 0.0 0.0, 2.2 1.1 C 0.0 13.0, 50.6 28.6, 62.1 38.4 Z" fill="hsl(106, 75%, 59%)" fill-opacity="0.52" stroke="none" stroke-width="4.76"  transform="translate(97.9 90.0) rotate(178.7) scale(1.35 0.93)" />
<circle cx="56.5" cy="35.3" r="0.1" fill="hsl(242, 72%, 49%)" fill-opacity="0.63"  transform="translate(63.6 14.2) rotate(58.0) scale(0.58 1.74)" />
<rect x="60.4" y="48.9" width="29.7" height="11.0" rx="0" fill="none" fill-opacity="0.45" stroke="hsl(183, 71%, 60%)" stroke-width="1.5"   />
<rect x="5.4" y="25.5" width="44.5" height="27.6" rx="0" fill="none" fill-opacity="0.93"    />
<rect x="47.1" y="69.8" width="37.9" height="18.3" rx="0" fill="hsl(290, 83%, 63%)" fill-opacity="0.31"   transform="translate(83.9 55.0) rotate(0.3) scale(1.96 0.58)" />
<circle cx="55.5" cy="28.4" r="15.0" fill="url(#g0)" fill-opacity="0.62"  transform="translate(95.6 69.5) rotate(46.0) scale(0.93 1.18)" />
<path d="M 8.6 42.1 C 0.0 24.9, 55.4 75.7, 46.8 86.2 C 48.7 76.6, 49.5 83.6, 53.9 81.6 C 71.1 68.5, 39.0 95.9, 38.1 86.9 C 29.0 89.7, 49.6 8.8, 59.1 8.7 C 51.5 17.5, 22.2 46.9, 30.2 45.2 C 26.3 38.2, 81.8 57.6, 82.8 42.8 C 100.0 32.6, 10.9 17.7, 17.0 14.5 C 8.9 31.6, 52.3 50.1, 50.1 52.0 C 36.8 45.5, 24.8 70.3, 20.1 82.2 C 20.4 97.1, 64.9 100.0, 67.1 98.5 Z" fill="hsl(290, 83%, 63%)" fill-opacity="0.29" stroke="none" stroke-width="1.42"  transform="translate(92.1 41.4) rotate(43.8) scale(0.59 0.89)" />
<path d="M 73.6 79.9 C 73.8 60.2, 68.9 10.7, 81.6 9.9 C 93.6 0.0, 82.8 18.5, 69.1 27.8 C 60.1 22.2, 25.2 36.2, 30.0 42.6 C 17.4 29.9, 93.3 41.1, 82.8 55.9 C 91.8 36.7, 63.2 82.9, 54.1 94.2 C 58.4 83.0, 100.0 10.5, 96.9 23.7 C 81.8 19.4, 49.9 61.9, 50.4 66.3 C 31.9 62.5, 80.8 0.0, 86.9 4.9 C 98.4 1.0, 23.7 76.2, 12.0 77.4 C 31.5 67.9, 26.8 80.3, 26.7 75.8 Z" fill="hsl(2, 82%, 55%)" fill-opacity="0.93" stroke="none" stroke-width="3.00"  transform="translate(13.2 73.7) rotate(193.3) scale(0.79 1.76)" />
<rect x="21.8" y="45.4" width="47.6" height="26.4" rx="0" fill="none" fill-opacity="0.54"   transform="translate(64.8 56.6) rotate(77.6) scale(0.71 1.92)" />
<rect x="62.3" y="31.4" width="34.6" height="18.9" rx="0" fill="none" fill-opacity="0.34"   transform="translate(34.9 4.0) rotate(304.8) scale(1.11 1.84)" />
<circle cx="24.9" cy="67.6" r="4.7" fill="url(#g2)" fill-opacity="0.86"   />
<circle cx="44.6" cy="25.3" r="5.2" fill="hsl(290, 83%, 63%)" fill-opacity="0.92" filter="url(#f1)" transform="translate(8.3 39.7) rotate(255.5) scale(1.28 1.01)" />
<path d="M 53.5 85.3 C 38.7 99.1, 83.4 13.1, 71.5 6.8 C 67.8 0.0, 11.3 97.5, 23.2 85.1 C 14.7 85.4, 45.1 9.4, 41.0 20.1 C 50.3 13.8, 53.9 43.4, 67.3 52.8 C 65.8 34.2, 48.1 0.0, 61.5 2.1 C 78.5 13.0, 21.5 3.0, 22.1 15.0 C 42.1 32.4, 0.0 100.0, 0.2 96.5 C 16.0 99.1, 23.7 74.4, 34.7 67.0 Z" fill="hsl(290, 83%, 63%)" fill-opacity="0.62" stroke="none" stroke-width="5.15"  transform="translate(66.4 78.7) rotate(142.6) scale(0.94 1.54)" />
<rect x="36.3" y="53.5" width="36.8" height="34.6" rx="0" fill="none" fill-opacity="0.91" stroke="hsl(290, 83%, 63%)" stroke-width="3.6"  transform="translate(29.5 54.1) rotate(88.4) scale(1.99 0.70)" />
<path d="M 23.1 97.4 C 34.5 100.0, 100.0 16.9, 94.8 12.6 C 100.0 4.9, 80.3 91.2, 73.6 84.1 C 85.1 86.1, 39.3 2.2, 45.1 8.4 C 56.9 10.5, 42.4 27.5, 45.2 15.1 C 39.5 8.1, 47.8 26.9, 36.8 14.9 C 29.0 20.4, 75.3 97.5, 64.4 90.2 C 58.8 76.1, 53.6 85.0, 63.6 83.6 C 79.7 87.6, 13.4 69.3, 11.4 56.4 C 0.0 39.3, 58.7 79.2, 67.8 76.7 Z" fill="hsl(290, 83%, 63%)" fill-opacity="0.51" stroke="none" stroke-width="3.88"  transform="translate(64.0 32.8) rotate(355.4) scale(1.33 0.58)" />
<rect x="12.5" y="50.1" width="27.8" height="31.5" rx="0" fill="none" fill-opacity="0.48"  filter="url(#f1)" transform="translate(24.0 93.2) rotate(44.3) scale(1.50 1.85)" />
<path d="M 68.6 22.1 C 72.2 36.7, 35.4 77.2, 40.3 67.2 C 40.4 67.8, 23.9 55.3, 17.2 68.9 C 27.4 79.1, 61.4 44.1, 76.1 30.8 C 89.9 15.1, 71.4 66.6, 74.9 71.5 C 55.1 67.5, 21.6 55.3, 22.6 45.3 C 38.1 56.0, 3.9 21.0, 11.8 15.7 C 31.7 6.1, 70.3 66.1, 70.0 73.6 C 64.1 89.8, 15.5 100.0, 9.1 97.4 " fill="none" fill-opacity="0.66" stroke="hsl(86, 72%, 68%)" stroke-width="2.26"  transform="translate(31.5 61.4) rotate(312.0) scale(1.45 1.61)" />
<path d="M 10.9 4.8 C 29.9 3.3, 35.8 10.1, 34.9 20.1 C 40.2 32.1, 93.4 19.6, 90.9 34.6 C 76.5 47.8, 11.3 2.0, 25.0 13.6 C 37.5 20.8, 93.8 96.7, 87.2 84.0 C 72.6 79.9, 0.0 39.9, 12.3 46.6 C 14.5 41.3, 90.1 63.5, 83.1 55.5 C 73.2 50.6, 14.6 100.0, 19.1 91.4 C 0.7 96.9, 31.0 5.7, 44.6 14.2 Z" fill="none" fill-opacity="0.89" stroke="hsl(106, 75%, 59%)" stroke-width="3.52"  transform="translate(1.3 63.5) rotate(295.1) scale(0.55 1.29)" />
<path d="M 24.0 46.9 C 17.3 62.8, 93.5 71.2, 91.3 56.7 C 100.0 70.7, 20.9 22.0, 16.9 32.1 C 10.1 18.5, 12.1 49.5, 19.7 47.5 C 21.4 53.2, 0.0 40.9, 7.3 27.1 C 20.9 37.3, 10.7 39.4, 8.8 27.4 C 11.4 15.7, 0.0 48.1, 4.8 33.8 C 18.9 49.1, 92.4 52.1, 99.4 48.4 Z" fill="none" fill-opacity="0.45" stroke="hsl(86, 72%, 68%)" stroke-width="4.77"  transform="translate(29.8 94.9) rotate(114.8) scale(0.88 0.67)" />
<rect x="56.1" y="23.6" width="41.4" height="14.9" rx="0" fill="hsl(83, 65%, 44%)" fill-opacity="0.41"   transform="translate(24.1 3.8) rotate(92.3) scale(1.26 1.84)" />
<path d="M 11.9 61.3 C 10.9 59.7, 100.0 44.8, 99.0 45.5 C 94.1 31.3, 56.3 76.2, 60.2 73.0 C 75.3 84.1, 39.1 7.3, 41.7 4.0 C 58.6 0.0, 13.0 32.2, 6.2 26.4 C 0.0 26.6, 78.3 33.4, 76.2 47.9 C 69.9 43.8, 5.4 76.0, 0.4 75.6 Z" fill="hsl(40, 53%, 69%)" fill-opacity="0.39" stroke="none" stroke-width="4.35"  transform="translate(27.7 33.9) rotate(66.4) scale(0.97 0.95)" />
<rect x="48.1" y="31.4" width="25.1" height="25.6" rx="10.0" fill="none" fill-opacity="0.80"   transform="translate(39.0 78.4) rotate(256.0) scale(0.59 1.59)" />
<path d="M 69.3 76.2 C 50.3 92.1, 80.4 57.0, 87.6 59.5 C 91.1 66.1, 92.0 85.1, 88.7 92.8 C 92.6 75.8, 15.1 69.0, 23.4 80.9 C 9.0 99.1, 29.2 89.0, 20.0 75.1 C 5.0 78.4, 66.1 3.7, 64.2 2.6 C 73.9 0.0, 30.5 100.0, 16.0 98.2 C 28.1 100.0, 0.0 100.0, 4.5 93.5 Z" fill="hsl(104, 72%, 65%)" fill-opacity="0.71" stroke="none" stroke-width="1.05"  transform="translate(71.3 27.5) rotate(265.6) scale(1.09 1.76)" />
<circle cx="15.9" cy="51.3" r="9.5" fill="hsl(144, 86%, 72%)" fill-opacity="0.41"  transform="translate(40.8 79.5) rotate(10.5) scale(0.57 1.67)" />
<path d="M 40.6 93.0 C 36.4 76.4, 70.9 54.9, 75.0 64.3 C 67.9 55.6, 41.6 57.6, 39.2 53.1 C 19.3 60.3, 8.5 80.6, 13.2 90.6 C 0.0 77.0, 47.9 1.4, 60.6 11.0 C 76.6 28.3, 95.9 93.0, 85.6 82.5 C 78.1 84.0, 35.9 66.0, 22.7 52.7 C 36.8 67.8, 97.6 96.7, 99.3 91.7 C 100.0 76.3, 19.7 8.8, 30.3 4.7 C 44.8 23.2, 20.2 61.1, 5.2 73.4 C 0.0 58.6, 45.5 26.4, 59.1 19.6 Z" fill="none" fill-opacity="0.78" stroke="hsl(151, 70%, 62%)" stroke-width="3.77"  transform="translate(92.6 60.8) rotate(78.2) scale(1.81 1.87)" />
<circle cx="82.1" cy="37.4" r="3.7" fill="url(#g2)" fill-opacity="0.96"  transform="translate(4.6 69.9) rotate(34.2) scale(1.28 0.96)" />
<rect x="42.9" y="51.7" width="44.4" height="20.7" rx="19.7" fill="none" fill-opacity="0.57" stroke="hsl(104, 72%, 65%)" stroke-width="4.0"  transform="translate(85.8 89.3) rotate(96.6) scale(0.72 1.70)" />
<path d="M 92.1 9.9 C 97.2 14.8, 38.0 50.0, 43.4 36.0 C 45.2 20.2, 50.1 59.0, 53.9 68.2 C 39.5 68.6, 29.9 59.6, 26.0 49.1 C 8.3 29.2, 100.0 30.2, 92.9 33.6 C 100.0 40.2, 66.1 0.0, 59.5 3.5 C 62.6 18.0, 9.6 26.1, 20.1 38.1 Z" fill="none" fill-opacity="0.25" stroke="hsl(106, 75%, 59%)" stroke-width="1.96"   />
<path d="M 78.4 91.8 C 92.5 82.9, 27.7 33.7, 14.2 36.2 C 1.0 43.3, 82.6 60.0, 89.0 61.1 C 94.7 50.1, 13.6 87.1, 5.3 77.7 C 7.3 90.0, 55.9 66.9, 53.5 64.2 C 43.3 46.2, 38.4 80.3, 23.8 76.6 C 39.5 94.4, 98.9 23.0, 97.1 13.0 C 94.8 20.9, 16.3 96.1, 15.6 84.0 Z" fill="hsl(2, 82%, 55%)" fill-opacity="0.34" stroke="none" stroke-width="4.97"  transform="translate(60.8 65.3) rotate(182.3) scale(0.81 0.99)" />
<circle cx="94.0" cy="22.4" r="2.1" fill="url(#g1)" fill-opacity="0.58"  transform="translate(69.6 87.8) rotate(118.3) scale(1.06 0.59)" />
<path d="M 92.5 36.6 C 77.2 37.6, 62.6 59.5, 52.3 51.2 C 60.5 34.7, 74.8 92.8, 73.3 94.8 C 74.7 91.0, 67.3 8.4, 77.4 5.8 C 83.3 23.4, 30.2 41.4, 29.4 54.1 C 36.2 45.8, 80.3 83.0, 78.9 72.0 C 75.7 64.4, 59.1 59.9, 53.7 51.5 C 67.5 39.6, 64.9 26.1, 72.0 35.9 " fill="none" fill-opacity="0.98" stroke="hsl(86, 72%, 68%)" stroke-width="2.80" filter="url(#f1)" transform="translate(15.0 63.9) rotate(27.6) scale(0.74 1.28)" />
<circle cx="32.0" cy="46.0" r="10.0" fill="url(#g2)" fill-opacity="0.42" filter="url(#f1)" transform="translate(82.6 70.8) rotate(277.5) scale(1.34 1.49)" />
<path d="M 52.1 27.8 C 45.9 15.0, 81.3 26.2, 89.8 38.7 C 86.1 26.3, 100.0 100.0, 98.6 93.5 C 90.0 76.5, 63.4 93.5, 58.2 93.6 C 76.3 100.0, 77.7 74.8, 78.1 78.7 C 82.0 98.3, 13.9 66.3, 4.1 58.8 C 0.0 77.4, 37.0 62.3, 34.0 55.8 C 22.5 52.0, 0.0 81.1, 1.2 87.6 C 0.0 100.0, 70.7 63.4, 73.8 61.4 Z" fill="hsl(83, 65%, 44%)" fill-opacity="0.77" stroke="none" stroke-width="5.22" filter="url(#f1)" transform="translate(71.1 75.9) rotate(66.4) scale(1.98 1.30)" />
<path d="M 77.7 67.4 C 68.2 53.9, 41.7 24.1, 49.4 20.4 C 31.0 5.8, 37.1 54.4, 38.5 57.6 C 36.1 44.2, 100.0 71.3, 100.0 85.2 C 83.9 78.9, 100.0 87.5, 99.8 84.2 C 93.7 83.9, 94.5 74.9, 95.0 74.0 C 100.0 84.6, 52.4 21.5, 53.2 31.6 C 56.0 23.7, 78.6 47.3, 92.2 53.0 C 84.5 41.3, 0.0 77.3, 2.4 90.6 C 13.5 83.2, 19.4 89.6, 21.8 97.4 " fill="hsl(2, 82%, 55%)" fill-opacity="0.32" stroke="none" stroke-width="1.40"  transform="translate(99.2 81.3) rotate(133.7) scale(0.99 1.59)" />
<path d="M 30.4 0.6 C 31.8 17.4, 51.6 44.0, 66.0 56.7 C 50.2 55.3, 73.9 0.0, 63.8 12.1 C 62.7 6.7, 25.5 27.8, 31.1 14.8 C 23.1 0.0, 64.4 0.0, 59.4 2.3 C 47.1 10.2, 40.8 23.1, 40.2 20.3 C 41.8 31.6, 45.1 6.5, 33.9 20.8 C 53.3 30.1, 45.6 6.0, 41.1 3.5 Z" fill="hsl(86, 72%, 68%)" fill-opacity="0.47" stroke="none" stroke-width="1.28"  transform="translate(68.9 73.8) rotate(298.8) scale(1.69 0.59)" />
<circle cx="39.4" cy="39.2" r="5.3" fill="url(#g1)" fill-opacity="0.71"  transform="translate(61.2 70.9) rotate(257.6) scale(0.78 1.98)" />
<rect x="14.1" y="10.4" width="28.7" height="31.4" rx="4.3" fill="none" fill-opacity="0.42"   transform="translate(79.0 35.2) rotate(109.7) scale(0.82 1.36)" />
<path d="M 25.0 35.8 C 42.4 46.7, 39.2 90.6, 24.8 98.2 C 6.4 100.0, 7.6 62.0, 8.4 72.1 C 1.9 76.0, 46.1 37.7, 55.3 50.1 C 58.0 53.1, 35.1 97.6, 34.3 87.9 C 23.7 71.1, 70.0 95.1, 70.2 89.7 C 63.7 100.0, 71.1 100.0, 60.6 94.8 Z" fill="none" fill-opacity="0.75" stroke="hsl(104, 72%, 65%)" stroke-width="4.94"  transform="translate(33.6 13.4) rotate(79.0) scale(1.91 1.85)" />
<path d="M 0.8 49.0 C 2.6 56.1, 72.9 37.3, 60.2 49.9 C 66.0 40.3, 90.4 72.4, 83.1 75.8 C 87.6 95.6, 50.0 83.8, 44.7 73.7 C 37.1 81.7, 51.6 66.7, 65.2 70.1 C 68.2 82.7, 92.1 7.1, 93.4 8.8 C 84.9 21.5, 85.1 55.4, 82.5 66.3 C 89.8 68.6, 82.9 0.2, 87.1 8.9 C 100.0 14.0, 95.2 39.5, 98.2 54.1 C 100.0 42.7, 26.0 93.6, 23.6 98.2 C 40.7 90.1, 31.7 30.7, 22.1 35.5 Z" fill="hsl(290, 83%, 63%)" fill-opacity="0.88" stroke="none" stroke-width="2.19"  transform="translate(14.2 62.7) rotate(265.2) scale(0.62 1.65)" />
<path d="M 69.6 36.7 C 62.7 35.1, 15.0 23.7, 8.7 26.0 C 22.1 42.3, 86.7 100.0, 86.5 99.0 C 76.7 90.6, 85.9 73.4, 80.3 86.0 C 82.1 93.2, 49.3 19.5, 52.4 28.4 C 56.8 42.7, 91.3 18.0, 93.0 6.3 C 100.0 0.0, 74.7 33.0, 89.1 28.3 C 81.9 32.1, 68.2 82.5, 69.7 70.4 C 66.3 68.6, 11.3 37.7, 5.6 51.5 C 24.3 61.0, 80.7 89.1, 70.1 81.3 C 83.0 66.1, 43.5 39.3, 44.9 53.1 Z" fill="none" fill-opacity="0.74" stroke="hsl(183, 71%, 60%)" stroke-width="4.52"  transform="translate(42.9 93.0) rotate(208.9) scale(1.00 0.64)" />
<path d="M 1.6 91.4 C 1.0 93.2, 25.0 63.5, 23.4 71.3 C 35.0 84.7, 59.3 21.3, 59.2 28.4 C 58.4 35.4, 92.4 19.3, 86.5 28.3 C 97.1 25.6, 24.7 2.8, 36.9 7.1 C 50.3 12.8, 80.5 87.1, 93.5 83.1 C 77.8 90.0, 41.5 95.2, 27.4 84.8 C 29.7 79.3, 27.7 84.5, 35.5 90.0 C 22.1 74.2, 73.6 13.3, 76.7 23.4 Z" fill="hsl(2, 82%, 55%)" fill-opacity="0.40" stroke="none" stroke-width="2.63" filter="url(#f1)" transform="translate(72.6 9.5) rotate(168.1) scale(1.79 0.88)" />
<path d="M 26.6 31.9 C 15.3 21.4, 62.2 0.0, 59.6 8.2 C 78.3 25.9, 66.8 52.8, 53.0 56.7 C 40.2 71.2, 82.9 34.7, 73.1 41.3 C 77.2 51.1, 92.9 14.9, 99.2 28.0 C 100.0 25.7, 39.2 70.9, 53.0 74.9 C 54.4 64.9, 44.7 44.8, 43.7 47.8 " fill="hsl(242, 72%, 49%)" fill-opacity="0.27" stroke="none" stroke-width="2.09"  transform="translate(36.5 28.0) rotate(325.2) scale(1.60 1.53)" />
<rect x="3.2" y="23.4" width="37.4" height="29.2" rx="0" fill="hsl(106, 75%, 59%)" fill-opacity="0.71" stroke="hsl(183, 71%, 60%)" stroke-width="3.8"   />
<rect x="54.2" y="14.8" width="28.0" height="25.8" rx="14.3" fill="hsl(40, 53%, 69%)" fill-opacity="0.21"   transform="translate(1.7 27.0) rotate(279.8) scale(1.92 0.76)" />
<path d="M 43.1 24.8 C 62.1 5.8, 3.0 79.9, 15.6 65.2 C 22.8 80.2, 93.5 75.5, 83.5 71.9 C 70.9 55.4, 65.3 58.6, 63.3 70.6 C 45.8 82.2, 21.3 64.5, 13.9 59.1 C 30.1 40.0, 13.5 39.8, 4.2 30.7 C 0.0 15.9, 20.2 47.1, 7.0 52.0 C 0.0 52.5, 30.9 46.2, 17.0 47.6 C 11.1 65.4, 37.7 80.6, 25.3 90.5 Z" fill="hsl(151, 70%, 62%)" fill-opacity="0.74" stroke="none" stroke-width="1.90"  transform="translate(12.7 35.6) rotate(3.4) scale(1.61 1.54)" />
<circle cx="48.2" cy="96.4" r="3.7" fill="hsl(144, 86%, 72%)" fill-opacity="0.80" filter="url(#f1)" transform="translate(54.1 55.2) rotate(214.2) scale(1.77 1.18)" />
<rect x="45.0" y="66.3" width="44.4" height="22.9" rx="8.8" fill="none" fill-opacity="0.99"    />
<path d="M 64.7 20.9 C 45.3 7.6, 90.0 83.0, 92.4 69.2 C 77.4 56.8, 58.2 24.6, 65.1 13.2 C 74.6 0.0, 77.4 18.4, 90.3 22.0 C 100.0 21.3, 10.5 6.1, 25.5 1.9 C 22.8 19.4, 55.1 100.0, 60.5 95.5 C 61.0 94.8, 29.4 83.4, 21.2 86.3 C 30.2 94.0, 30.8 9.1, 24.8 22.1 C 17.8 14.4, 0.1 59.0, 4.5 58.8 C 3.6 59.7, 67.7 54.8, 66.3 57.4 Z" fill="hsl(40, 53%, 69%)" fill-opacity="0.34" stroke="none" stroke-width="4.74"  transform="translate(96.5 23.9) rotate(210.9) scale(1.07 1.59)" />
<path d="M 11.5 88.7 C 4.0 78.0, 84.9 44.6, 85.9 41.9 C 90.9 54.4, 100.0 59.9, 93.4 53.0 C 99.5 49.1, 37.1 86.7, 38.8 87.9 C 37.1 75.4, 89.8 10.9, 87.3 7.4 C 100.0 2.5, 88.3 16.2, 86.3 15.1 C 86.6 3.8, 30.5 33.6, 45.5 26.7 C 53.9 34.9, 56.4 89.9, 48.0 89.5 C 50.3 84.8, 68.7 90.0, 61.2 88.2 C 68.8 75.4, 22.8 49.2, 34.5 44.7 C 25.8 56.8, 75.1 56.6, 82.6 69.1 " fill="hsl(242, 72%, 49%)" fill-opacity="0.55" stroke="none" stroke-width="4.94"  transform="translate(82.9 58.6) rotate(95.5) scale(1.15 1.02)" />
<path d="M 4.3 93.6 C 11.1 97.9, 43.7 48.1, 45.8 48.6 C 52.4 42.7, 14.4 5.8, 23.2 9.5 C 16.5 0.9, 20.0 77.1, 22.6 63.2 C 7.6 54.7, 14.2 29.8, 3.9 32.4 C 4.5 47.9, 24.3 95.9, 36.5 89.2 C 17.6 76.9, 58.8 0.0, 53.9 0.3 C 34.7 7.2, 57.3 45.5, 54.5 43.3 C 37.8 45.6, 73.3 4.7, 58.7 5.0 Z" fill="none" fill-opacity="0.85" stroke="hsl(2, 82%, 55%)" stroke-width="1.83"  transform="translate(75.5 58.9) rotate(94.2) scale(0.72 0.92)" />
<path d="M 70.8 38.1 C 62.2 39.9, 17.5 0.0, 24.7 1.1 C 36.0 0.0, 89.3 30.7, 96.7 25.9 C 98.9 24.5, 0.0 77.8, 3.8 82.3 C 10.0 89.1, 74.8 43.3, 75.7 32.2 C 67.5 13.9, 46.7 0.0, 61.1 4.3 C 53.7 0.0, 80.6 9.7, 88.6 5.2 Z" fill="none" fill-opacity="0.88" stroke="hsl(40, 53%, 69%)" stroke-width="3.73"  transform="translate(96.9 98.6) rotate(318.2) scale(1.54 1.22)" />
<path d="M 34.2 24.9 C 42.1 6.3, 99.7 15.9, 91.0 29.3 C 78.0 45.1, 55.7 4.3, 59.1 8.8 C 67.8 16.0, 17.1 25.1, 12.7 15.6 C 3.0 29.7, 70.7 30.0, 66.0 24.6 C 85.9 9.5, 77.2 39.8, 89.1 46.7 C 81.8 27.6, 86.5 21.4, 97.8 18.6 C 83.6 16.6, 83.9 32.1, 74.7 27.0 C 75.5 28.9, 45.7 15.2, 37.6 27.0 C 34.5 42.3, 46.0 59.0, 52.8 64.9 Z" fill="none" fill-opacity="0.63" stroke="hsl(183, 71%, 60%)" stroke-width="4.25"   />
<path d="M 40.7 13.3 C 22.0 7.7, 41.1 64.7, 39.9 73.7 C 35.9 86.0, 2.9 69.1, 17.1 74.1 C 0.0 79.8, 56.0 59.0, 54.0 52.1 C 54.8 36.1, 95.8 48.8, 93.9 46.1 C 100.0 26.6, 91.6 0.0, 89.5 6.7 C 100.0 19.0, 86.4 76.4, 71.6 70.9 C 63.7 68.9, 43.8 17.7, 44.0 29.2 C 54.3 30.6, 28.3 64.5, 33.9 76.7 C 20.4 91.9, 15.7 22.3, 4.9 8.0 Z" fill="none" fill-opacity="0.68" stroke="hsl(86, 72%, 68%)" stroke-width="5.10"  transform="translate(0.7 28.4) rotate(281.4) scale(1.52 0.74)" />
<path d="M 32.3 25.9 C 51.2 38.0, 58.2 15.7, 71.6 8.7 C 78.1 23.1, 22.6 78.1, 20.3 70.7 C 28.0 82.4, 43.6 64.5, 51.1 67.0 C 70.7 58.9, 3.5 67.7, 10.7 62.3 C 10.3 51.8, 61.1 96.0, 65.6 84.9 C 71.2 100.0, 72.4 73.0, 62.8 81.0 C 71.4 62.2, 22.0 0.0, 19.0 11.4 Z" fill="none" fill-opacity="0.99" stroke="hsl(2, 82%, 55%)" stroke-width="0.86"  transform="translate(6.6 5.1) rotate(44.8) scale(0.70 1.91)" />
<circle cx="55.3" cy="76.9" r="2.6" fill="hsl(2, 82%, 55%)" fill-opacity="0.60"  transform="translate(56.2 89.6) rotate(108.6) scale(0.93 0.80)" />
<path d="M 47.8 31.7 C 55.2 48.8, 38.3 37.6, 49.0 36.9 C 34.7 48.4, 32.3 26.7, 46.7 25.4 C 52.8 41.2, 88.0 24.8, 86.3 32.1 C 83.9 16.7, 59.7 38.9, 71.1 24.2 C 65.1 7.5, 100.0 13.4, 97.5 21.1 C 100.0 40.7, 44.5 50.6, 48.1 65.1 C 62.2 67.9, 88.6 90.4, 92.3 79.7 Z" fill="none" fill-opacity="0.72" stroke="hsl(322, 74%, 44%)" stroke-width="2.74"   />
<path d="M 49.5 90.0 C 66.2 100.0, 26.7 13.3, 23.9 7.2 C 41.3 7.9, 86.3 0.0, 86.6 0.9 C 81.9 0.0, 33.1 40.0, 21.5 53.7 C 40.6 52.6, 16.3 47.5, 9.4 39.7 C 0.0 37.2, 36.6 33.5, 36.7 27.3 C 52.2 33.0, 50.0 57.3, 53.0 45.4 C 58.9 45.5, 40.2 41.4, 47.0 47.3 C 27.0 64.1, 67.3 11.5, 55.9 22.5 Z" fill="none" fill-opacity="0.45" stroke="hsl(151, 70%, 62%)" stroke-width="1.56"   />
<path d="M 38.0 21.3 C 24.1 6.4, 44.3 73.4, 58.0 63.3 C 48.7 69.9, 39.1 64.5, 42.0 60.5 C 43.9 67.0, 57.9 99.5, 71.4 99.7 C 78.2 88.1, 21.1 17.0, 30.6 6.8 C 46.7 2.2, 31.4 100.0, 28.7 99.6 C 38.5 100.0, 32.1 29.6, 32.0 24.0 C 42.6 16.9, 40.8 68.3, 37.9 77.3 C 23.9 87.2, 94.0 29.5, 80.7 32.7 Z" fill="hsl(106, 75%, 59%)" fill-opacity="0.86" stroke="none" stroke-width="4.14"  transform="translate(98.6 69.8) rotate(81.8) scale(0.79 1.51)" />
<path d="M 72.9 25.6 C 54.9 9.0, 67.1 85.7, 74.8 94.1 C 85.9 78.3, 0.0 17.4, 0.5 25.1 C 18.7 29.0, 30.3 100.0, 27.4 98.2 C 17.3 87.4, 65.3 36.9, 53.5 49.1 C 68.7 35.2, 32.9 70.0, 24.1 62.1 C 18.2 61.4, 18.7 100.0, 10.0 94.0 C 14.4 85.8, 25.4 26.0, 26.1 36.9 C 7.5 47.8, 46.9 63.0, 39.8 53.0 C 22.3 35.6, 86.2 96.0, 77.4 93.7 Z" fill="hsl(144, 86%, 72%)" fill-opacity="0.62" stroke="none" stroke-width="2.74"  transform="translate(72.1 74.5) rotate(138.8) scale(0.83 0.70)" />
<path d="M 67.3 26.8 C 54.0 15.7, 17.6 26.5, 24.5 16.5 C 31.1 20.5, 89.5 94.6, 83.2 87.8 C 88.2 100.0, 13.1 68.2, 24.7 70.1 C 17.8 87.3, 57.1 30.2, 56.6 29.8 C 66.2 33.1, 8.9 79.9, 15.9 65.0 C 27.8 73.9, 85.1 35.8, 72.9 32.1 Z" fill="hsl(290, 83%, 63%)" fill-opacity="0.61" stroke="none" stroke-width="3.32" filter="url(#f1)" transform="translate(28.4 33.0) rotate(272.4) scale(1.83 1.89)" />
<circle cx="58.0" cy="85.4" r="17.9" fill="hsl(183, 71%, 60%)" fill-opacity="0.92"  transform="translate(35.4 61.2) rotate(196.7) scale(0.55 1.04)" />
<path d="M 84.6 56.4 C 100.0 48.4, 66.2 92.7, 79.5 80.4 C 78.0 76.3, 93.6 90.8, 87.2 99.6 C 72.4 100.0, 25.2 75.6, 21.9 88.2 C 13.0 100.0, 75.1 92.6, 69.1 91.2 C 60.4 99.0, 100.0 60.3, 98.1 66.8 C 78.7 81.3, 41.0 100.0, 28.0 97.5 C 19.6 100.0, 54.6 100.0, 61.5 88.8 C 64.7 72.3, 16.4 48.8, 20.4 51.8 C 16.0 69.6, 100.0 52.6, 95.1 41.5 C 100.0 29.9, 41.5 55.4, 53.7 44.3 Z" fill="none" fill-opacity="0.68" stroke="hsl(86, 72%, 68%)" stroke-width="1.66"  transform="translate(70.7 72.6) rotate(279.4) scale(0.51 1.26)" />
<path d="M 33.0 98.4 C 52.1 97.0, 11.9 46.4, 9.1 41.8 C 13.7 53.3, 54.6 72.0, 59.6 64.7 C 41.5 70.1, 56.3 90.3, 61.3 97.6 C 77.7 78.8, 75.6 97.6, 73.0 96.3 C 58.0 84.0, 77.7 88.7, 78.9 97.9 C 76.2 100.0, 0.0 68.8, 0.4 79.8 C 0.0 61.8, 97.4 82.7, 95.2 77.1 C 100.0 89.2, 0.0 39.9, 1.5 38.7 C 0.0 46.6, 41.4 100.0, 49.6 97.1 Z" fill="hsl(86, 72%, 68%)" fill-opacity="0.95" stroke="none" stroke-width="3.65"  transform="translate(95.1 55.9) rotate(280.3) scale(1.37 1.94)" />
<rect x="54.8" y="44.3" width="28.4" height="10.1" rx="0" fill="hsl(322, 74%, 44%)" fill-opacity="0.57"   transform="translate(43.7 26.4) rotate(214.3) scale(1.94 1.46)" />
<rect x="45.5" y="60.8" width="34.6" height="16.5" rx="0" fill="hsl(290, 83%, 63%)" fill-opacity="0.25"   transform="translate(29.2 5.1) rotate(29.7) scale(1.11 1.90)" />
<path d="M 8.6 0.9 C 3.0 3.4, 75.7 11.1, 68.9 16.9 C 63.3 33.8, 0.0 68.1, 9.0 83.1 C 6.3 98.3, 23.3 38.2, 23.3 26.0 C 18.3 33.5, 83.2 0.0, 70.2 8.1 C 50.5 0.0, 50.6 57.3, 44.7 57.4 C 25.1 50.2, 61.8 47.7, 64.9 44.7 C 61.7 62.1, 63.6 100.0, 54.1 97.9 C 49.0 100.0, 49.0 28.7, 47.2 27.8 C 51.2 39.9, 87.4 50.7, 81.9 42.3 C 96.6 27.2, 13.3 7.7, 18.0 2.2 " fill="hsl(83, 65%, 44%)" fill-opacity="0.93" stroke="none" stroke-width="1.62"  transform="translate(21.4 7.0) rotate(308.4) scale(0.90 1.21)" />
<path d="M 77.0 70.9 C 64.6 74.5, 41.0 36.5, 52.6 26.6 C 58.8 38.5, 49.8 87.4, 44.0 81.1 C 27.8 87.5, 93.1 75.5, 98.8 89.8 C 100.0 87.9, 67.3 70.1, 70.3 62.8 C 81.4 67.9, 78.1 96.7, 73.5 87.5 C 91.8 76.9, 100.0 59.4, 98.1 62.6 C 83.4 74.8, 7.2 91.4, 21.4 83.0 C 21.7 79.6, 0.0 97.9, 4.3 85.7 C 19.5 68.6, 71.4 48.6, 65.0 59.7 Z" fill="hsl(183, 71%, 60%)" fill-opacity="0.37" stroke="none" stroke-width="3.84"  transform="translate(6.7 36.1) rotate(324.7) scale(0.76 1.21)" />
<rect x="10.9" y="38.9" width="33.3" height="38.1" rx="16.7" fill="none" fill-opacity="0.53" stroke="hsl(144, 86%, 72%)" stroke-width="2.5" filter="url(#f1)" transform="translate(28.9 27.0) rotate(333.1) scale(1.70 0.78)" />
<path d="M 94.9 12.3 C 88.7 0.0, 52.4 40.0, 43.0 54.8 C 52.1 58.4, 93.2 23.8, 90.3 31.5 C 100.0 23.3, 43.9 37.3, 48.4 41.5 C 41.1 40.8, 53.0 71.5, 51.6 83.3 C 71.1 97.1, 49.1 56.3, 42.2 66.0 C 25.0 46.8, 36.8 96.5, 41.7 83.1 C 49.2 64.4, 92.3 28.8, 97.2 38.2 C 100.0 50.7, 67.7 77.2, 73.2 69.1 C 72.8 65.5, 0.0 12.6, 4.0 10.1 Z" fill="hsl(104, 72%, 65%)" fill-opacity="0.46" stroke="none" stroke-width="5.28"  transform="translate(59.3 82.3) rotate(30.5) scale(0.93 1.43)" />
<path d="M 74.6 53.3 C 56.0 53.5, 3.3 52.2, 14.6 37.3 C 12.0 56.8, 91.3 5.1, 89.1 3.5 C 100.0 0.0, 54.5 82.2, 47.0 82.2 C 45.0 81.2, 38.3 74.0, 31.5 81.8 C 31.6 98.4, 19.1 64.4, 30.2 74.6 C 12.0 64.6, 18.5 61.7, 30.7 57.3 C 33.3 45.0, 12.2 32.0, 25.6 24.0 C 26.9 36.9, 39.1 80.8, 51.5 93.3 Z" fill="hsl(40, 53%, 69%)" fill-opacity="0.59" stroke="none" stroke-width="3.76"  transform="translate(85.0 87.5) rotate(133.1) scale(0.55 0.87)" />
<path d="M 72.3 12.4 C 75.0 27.1, 65.8 100.0, 70.2 95.6 C 51.4 92.0, 89.6 40.5, 86.0 51.2 C 70.8 52.6, 81.3 0.0, 96.1 2.6 C 82.4 12.6, 81.7 0.0, 88.6 8.3 C 95.5 20.3, 85.5 4.8, 72.8 18.0 C 56.7 2.6, 34.9 9.6, 31.2 19.9 C 38.9 32.3, 79.5 60.1, 94.2 68.3 C 81.9 69.9, 0.0 79.6, 7.5 88.4 C 18.0 100.0, 84.3 38.0, 77.0 38.1 C 81.4 46.2, 36.9 89.2, 43.0 82.3 " fill="none" fill-opacity="0.92" stroke="hsl(106, 75%, 59%)" stroke-width="5.02"  transform="translate(35.4 75.3) rotate(9.7) scale(1.20 1.44)" />
<path d="M 82.4 9.7 C 94.9 27.7, 66.0 59.4, 59.9 54.5 C 50.2 46.4, 64.4 0.3, 67.3 9.2 C 55.1 12.2, 97.6 56.9, 97.1 68.5 C 98.8 54.8, 45.9 28.4, 58.1 16.9 C 53.8 15.0, 97.1 73.3, 93.8 60.4 C 95.4 60.5, 20.0 52.6, 26.7 67.0 C 37.8 76.6, 33.1 92.9, 30.2 82.8 C 31.6 64.3, 76.7 57.6, 73.5 44.2 C 83.3 37.3, 2.3 89.6, 8.2 84.5 C 3.4 87.3, 76.8 68.7, 68.7 77.1 Z" fill="hsl(2, 82%, 55%)" fill-opacity="0.47" stroke="none" stroke-width="3.63"  transform="translate(55.5 40.3) rotate(59.7) scale(1.48 1.72)" />
<rect x="46.3" y="33.9" width="45.6" height="30.0" rx="0" fill="none" fill-opacity="0.69" stroke="hsl(242, 72%, 49%)" stroke-width="2.7"  transform="translate(84.6 81.2) rotate(299.6) scale(1.10 1.12)" />
<path d="M 28.6 10.8 C 33.5 0.0, 79.4 0.0, 93.6 3.0 C 100.0 6.9, 62.2 27.6, 72.5 27.4 C 86.6 26.4, 62.0 27.5, 68.9 28.9 C 58.0 20.8, 67.1 66.0, 66.1 70.4 C 60.9 69.3, 31.7 62.8, 21.2 66.6 C 37.4 79.0, 6.5 19.1, 19.4 7.4 C 28.3 13.9, 40.3 73.1, 41.0 81.6 C 49.2 82.8, 5.3 43.5, 1.3 53.9 C 0.0 67.1, 68.6 81.3, 55.6 73.5 Z" fill="hsl(2, 82%, 55%)" fill-opacity="0.62" stroke="none" stroke-width="3.25" filter="url(#f1)"  />
<path d="M 21.8 92.6 C 36.5 74.0, 56.6 2.3, 44.7 15.4 C 57.7 9.4, 43.9 96.4, 44.6 99.1 C 31.3 100.0, 8.8 8.4, 19.8 17.4 C 35.3 3.2, 75.4 27.8, 60.4 29.4 C 55.0 47.6, 100.0 17.5, 98.8 23.2 C 89.0 37.8, 46.2 61.9, 38.6 68.9 C 42.3 55.6, 84.5 47.4, 76.1 50.3 C 63.8 42.1, 37.4 55.8, 48.2 45.7 Z" fill="none" fill-opacity="0.98" stroke="hsl(83, 65%, 44%)" stroke-width="2.78"   />
<circle cx="68.7" cy="32.5" r="3.2" fill="url(#g2)" fill-opacity="0.99"  transform="translate(25.4 88.1) rotate(314.6) scale(1.35 0.54)" />
<path d="M 22.6 95.7 C 17.7 76.4, 65.0 67.7, 69.8 73.6 C 64.4 58.1, 12.5 17.9, 24.1 19.0 C 37.0 27.9, 73.7 98.5, 86.3 91.0 C 78.7 90.0, 31.9 23.6, 41.8 21.7 C 56.3 40.1, 53.4 0.0, 60.2 0.7 C 73.1 17.2, 0.0 32.2, 3.1 36.6 C 0.0 50.7, 99.7 18.0, 90.1 19.4 C 93.1 7.4, 96.6 72.4, 88.6 72.4 C 95.3 52.8, 30.2 66.1, 41.3 74.0 Z" fill="none" fill-opacity="0.34" stroke="hsl(290, 83%, 63%)" stroke-width="4.55"  transform="translate(70.8 87.8) rotate(111.5) scale(0.75 1.97)" />
<path d="M 67.1 13.9 C 59.1 20.9, 39.2 68.5, 41.3 69.2 C 60.8 71.8, 69.1 0.0, 70.4 0.9 C 72.7 3.8, 76.3 69.8, 76.9 84.5 C 75.4 96.9, 23.6 2.4, 10.8 12.6 C 18.0 28.3, 77.4 53.7, 67.6 53.1 C 58.2 52.4, 23.3 37.5, 25.0 49.3 Z" fill="hsl(183, 71%, 60%)" fill-opacity="0.32" stroke="none" stroke-width="4.19"  transform="translate(87.9 77.4) rotate(167.6) scale(1.81 1.15)" />
<path d="M 85.7 53.7 C 84.9 65.5, 47.7 96.0, 36.1 93.8 C 24.0 100.0, 46.1 53.0, 32.3 60.2 C 18.3 58.2, 23.5 20.6, 8.9 19.1 C 6.4 10.9, 63.1 22.6, 63.1 35.7 C 45.7 32.2, 64.3 37.2, 58.3 50.6 C 39.0 70.1, 40.9 97.7, 48.9 96.9 C 32.2 77.4, 50.8 58.4, 47.5 70.2 C 47.8 73.1, 23.4 90.2, 21.8 84.3 Z" fill="none" fill-opacity="0.28" stroke="hsl(104, 72%, 65%)" stroke-width="1.76"   />
<path d="M 18.5 17.3 C 26.6 22.8, 17.3 47.0, 29.1 32.2 C 9.8 12.4, 63.6 25.1, 59.4 20.3 C 57.4 40.1, 18.6 69.8, 33.5 67.0 C 22.5 64.6, 72.5 23.8, 58.4 30.9 C 68.8 30.8, 100.0 4.9, 99.6 14.6 C 100.0 12.0, 45.6 14.6, 42.6 25.1 C 31.0 43.8, 60.6 1.6, 61.4 0.0 Z" fill="hsl(151, 70%, 62%)" fill-opacity="0.68" stroke="none" stroke-width="3.86" filter="url(#f1)" transform="translate(84.4 96.2) rotate(220.7) scale(1.90 1.03)" />
<rect x="46.2" y="38.7" width="34.2" height="33.5" rx="2.5" fill="hsl(104, 72%, 65%)" fill-opacity="0.62"    />
<path d="M 51.2 71.4 C 37.9 76.5, 41.6 62.0, 51.6 74.6 C 57.5 70.3, 8.7 33.4, 10.8 21.6 C 25.4 27.2, 7.7 36.4, 6.3 44.7 C 19.7 38.6, 41.8 25.6, 42.0 39.7 C 42.7 21.8, 61.1 100.0, 63.8 94.8 C 68.9 100.0, 31.4 56.8, 37.1 49.9 C 41.0 38.4, 66.1 11.9, 72.6 1.6 C 79.8 0.0, 12.9 77.5, 21.4 66.2 C 14.3 63.9, 25.7 91.1, 12.3 92.9 C 5.3 100.0, 10.3 47.2, 19.5 40.4 Z" fill="hsl(290, 83%, 63%)" fill-opacity="0.42" stroke="none" stroke-width="1.26"  transform="translate(0.6 15.1) rotate(121.7) scale(1.93 1.79)" />
<rect x="61.7" y="30.4" width="28.3" height="28.9" rx="0.0" fill="none" fill-opacity="0.75"    />
<path d="M 21.3 6.5 C 37.8 3.1, 48.7 100.0, 35.3 91.4 C 30.3 94.7, 84.7 17.1, 79.6 13.4 C 66.3 0.7, 9.4 100.0, 15.8 92.9 C 3.1 84.8, 0.0 94.5, 11.3 84.6 C 28.9 67.0, 29.4 99.0, 32.4 91.8 C 39.2 100.0, 94.0 26.2, 100.0 18.1 C 98.3 6.0, 23.3 37.8, 36.2 43.0 C 30.5 47.4, 93.3 73.9, 90.4 69.2 C 100.0 72.7, 1.8 100.0, 14.3 96.9 C 29.5 100.0, 33.2 93.3, 29.5 78.5 Z" fill="hsl(40, 53%, 69%)" fill-opacity="0.78" stroke="none" stroke-width="4.63"  transform="translate(34.2 5.4) rotate(314.8) scale(1.04 0.62)" />
<rect x="66.1" y="8.7" width="26.5" height="18.7" rx="0" fill="hsl(290, 83%, 63%)" fill-opacity="0.72"   transform="translate(17.6 8.7) rotate(123.1) scale(1.13 1.63)" />
<path d="M 15.6 2.8 C 23.3 20.1, 67.2 66.2, 53.2 70.3 C 54.7 57.0, 66.3 9.7, 78.2 11.4 C 91.5 30.3, 75.2 47.3, 75.7 48.6 C 62.9 29.5, 39.2 54.1, 49.8 39.2 C 54.6 57.2, 72.7 90.0, 80.7 81.2 C 61.7 87.1, 80.3 79.8, 73.0 92.3 C 68.8 93.4, 67.0 38.1, 54.9 43.3 C 40.5 41.8, 68.5 65.3, 61.6 67.5 Z" fill="hsl(2, 82%, 55%)" fill-opacity="0.59" stroke="none" stroke-width="4.93"  transform="translate(19.5 48.0) rotate(328.3) scale(0.91 0.56)" />
<path d="M 69.2 2.2 C 86.7 0.0, 18.2 3.6, 22.8 6.8 C 10.2 14.4, 12.8 67.4, 7.6 59.4 C 0.7 66.1, 11.9 40.0, 8.6 26.8 C 1.8 21.4, 22.0 78.1, 14.2 73.1 C 23.7 69.0, 73.1 100.0, 77.5 92.1 C 80.3 85.6, 46.2 0.0, 60.5 4.2 C 70.8 17.4, 17.5 74.3, 8.5 62.7 C 0.0 75.9, 80.0 100.0, 84.6 95.2 C 87.5 100.0, 35.7 40.4, 20.8 38.7 C 26.4 27.9, 77.8 63.2, 63.0 70.3 " fill="hsl(290, 83%, 63%)" fill-opacity="0.63" stroke="none" stroke-width="2.42"  transform="translate(99.8 73.7) rotate(147.2) scale(1.74 1.27)" />
<circle cx="98.4" cy="54.8" r="5.4" fill="hsl(151, 70%, 62%)" fill-opacity="0.58"  transform="translate(93.4 78.7) rotate(7.7) scale(0.86 0.78)" />
<rect x="19.0" y="63.1" width="21.5" height="35.1" rx="2.6" fill="hsl(86, 72%, 68%)" fill-opacity="0.78"   transform="translate(17.8 69.5) rotate(143.3) scale(1.75 1.72)" />
<circle cx="80.8" cy="6.8" r="8.2" fill="url(#g2)" fill-opacity="0.93"  transform="translate(83.9 13.5) rotate(62.8) scale(1.76 1.43)" />
<circle cx="85.6" cy="24.6" r="0.7" fill="url(#g0)" fill-opacity="0.74" filter="url(#f1)" transform="translate(82.3 24.4) rotate(56.4) scale(1.98 1.68)" />
<path d="M 29.7 0.6 C 23.0 0.0, 75.3 30.9, 87.4 31.4 C 70.4 33.3, 46.2 59.0, 53.7 65.6 C 68.4 74.7, 21.7 5.4, 19.1 3.3 C 11.2 0.0, 54.6 39.8, 62.6 54.2 C 65.6 42.4, 98.6 93.3, 96.2 82.4 C 100.0 78.1, 41.4 0.0, 46.2 5.4 C 39.0 15.3, 27.8 1.0, 24.2 9.1 C 40.1 12.3, 62.6 44.1, 71.4 57.6 Z" fill="none" fill-opacity="0.99" stroke="hsl(40, 53%, 69%)" stroke-width="3.49"   />
<circle cx="65.5" cy="44.3" r="5.3" fill="hsl(151, 70%, 62%)" fill-opacity="0.89"  transform="translate(41.2 99.6) rotate(101.3) scale(0.77 1.29)" />
<path d="M 88.5 6.5 C 80.1 3.8, 35.6 0.0, 49.7 1.4 C 38.0 20.2, 91.2 28.1, 78.2 42.3 C 67.4 27.7, 63.2 57.6, 63.1 57.7 C 47.6 59.2, 36.8 92.1, 43.7 91.8 C 52.8 72.0, 67.1 21.7, 65.0 24.0 C 82.5 39.4, 64.3 39.4, 49.6 32.5 Z" fill="none" fill-opacity="0.79" stroke="hsl(144, 86%, 72%)" stroke-width="2.24"  transform="translate(96.0 25.7) rotate(35.6) scale(1.94 1.36)" />
<rect x="21.1" y="19.5" width="27.2" height="37.6" rx="17.1" fill="none" fill-opacity="0.43"   transform="translate(83.8 23.1) rotate(338.4) scale(1.96 1.49)" />
<path d="M 95.1 80.3 C 80.6 64.8, 58.1 89.6, 54.7 89.9 C 52.4 93.3, 12.7 3.5, 14.0 7.3 C 9.5 9.7, 85.6 42.1, 85.4 37.8 C 92.8 42.0, 30.1 83.9, 26.5 92.7 C 10.4 79.2, 74.0 21.7, 77.7 12.5 C 91.6 0.0, 38.6 0.0, 42.2 0.3 C 45.5 16.7, 71.6 11.1, 63.0 7.7 Z" fill="none" fill-opacity="0.35" stroke="hsl(183, 71%, 60%)" stroke-width="4.54"  transform="translate(77.1 69.0) rotate(263.0) scale(0.95 1.21)" />
<circle cx="63.4" cy="57.9" r="10.8" fill="url(#g2)" fill-opacity="0.59"  transform="translate(33.3 34.9) rotate(265.3) scale(1.39 0.77)" />
<path d="M 87.2 59.8 C 78.2 64.9, 11.6 36.6, 23.3 50.7 C 11.6 55.7, 71.0 79.2, 75.5 73.5 C 57.9 62.6, 6.6 72.1, 10.4 67.7 C 30.2 60.1, 39.5 33.7, 32.0 22.8 C 46.4 32.6, 65.6 38.7, 73.8 33.6 C 58.5 45.8, 47.7 0.0, 43.0 3.7 C 53.9 0.0, 57.0 86.3, 71.5 85.8 C 86.5 66.1, 66.0 29.3, 78.6 19.1 Z" fill="hsl(290, 83%, 63%)" fill-opacity="0.63" stroke="none" stroke-width="4.89"  transform="translate(76.4 35.1) rotate(265.2) scale(1.53 1.85)" />
<circle cx="60.1" cy="51.2" r="8.3" fill="hsl(242, 72%, 49%)" fill-opacity="0.48"  transform="translate(42.0 28.5) rotate(353.3) scale(1.40 0.84)" />
<path d="M 64.6 9.5 C 48.3 12.0, 70.7 65.0, 76.8 79.0 C 72.2 73.5, 25.0 17.3, 11.7 27.2 C 21.4 15.9, 59.8 85.7, 70.4 94.7 C 69.7 80.0, 25.2 100.0, 37.7 93.5 C 41.4 100.0, 90.6 81.7, 80.7 80.2 C 66.9 99.8, 94.3 15.1, 84.5 29.9 C 95.3 36.9, 28.0 100.0, 31.9 88.9 Z" fill="hsl(40, 53%, 69%)" fill-opacity="0.34" stroke="none" stroke-width="4.06"  transform="translate(96.1 76.9) rotate(116.4) scale(0.75 1.82)" />
<circle cx="97.9" cy="12.0" r="20.5" fill="hsl(144, 86%, 72%)" fill-opacity="0.78"  transform="translate(31.8 61.5) rotate(82.3) scale(1.37 0.52)" />
<rect x="54.5" y="48.3" width="42.8" height="26.9" rx="17.0" fill="none" fill-opacity="0.55"   transform="translate(65.9 0.3) rotate(33.0) scale(1.11 0.52)" />
<path d="M 87.1 99.5 C 76.3 100.0, 71.1 60.9, 75.7 47.7 C 64.3 48.4, 22.7 76.3, 11.7 64.9 C 17.9 75.6, 14.5 0.0, 14.3 7.0 C 30.9 19.0, 78.7 32.1, 70.7 27.2 C 56.4 42.5, 76.9 53.5, 79.0 67.4 C 76.2 76.5, 46.2 69.8, 57.1 68.9 C 68.9 70.9, 22.4 43.2, 19.3 39.5 C 30.1 34.6, 63.8 68.0, 59.4 55.1 C 51.2 64.0, 94.3 51.9, 91.2 53.4 C 99.4 43.0, 80.8 22.5, 88.4 35.9 Z" fill="none" fill-opacity="0.94" stroke="hsl(40, 53%, 69%)" stroke-width="1.84" filter="url(#f1)" transform="translate(60.7 40.7) rotate(175.3) scale(1.77 0.67)" />
<path d="M 81.3 32.7 C 90.5 14.1, 28.0 12.7, 33.8 9.6 C 32.0 1.9, 21.3 32.9, 17.5 26.3 C 19.5 34.2, 79.6 12.6, 88.0 16.0 C 77.3 0.0, 50.4 51.7, 41.4 58.3 C 42.5 71.0, 61.1 5.2, 49.3 11.9 C 44.3 12.2, 40.1 33.9, 39.4 23.5 C 49.5 19.1, 73.2 13.7, 62.2 7.1 C 75.6 22.1, 77.6 74.8, 82.2 77.1 C 72.0 71.7, 100.0 66.8, 87.7 52.3 C 77.3 55.3, 1.5 2.1, 6.4 16.7 " fill="hsl(183, 71%, 60%)" fill-opacity="0.83" stroke="none" stroke-width="4.45"  transform="translate(24.4 20.7) rotate(125.6) scale(0.69 1.08)" />
<path d="M 67.6 1.0 C 84.1 0.0, 46.2 1.3, 37.4 7.1 C 27.1 26.2, 0.0 59.4, 9.2 61.5 C 24.2 70.8, 15.2 83.0, 6.6 84.4 C 21.0 76.9, 95.1 19.1, 89.9 4.9 C 83.1 13.7, 28.0 27.9, 21.5 14.9 C 21.8 6.3, 98.2 21.0, 91.4 30.8 C 93.2 50.1, 0.0 17.3, 4.9 4.4 C 0.0 5.0, 13.8 100.0, 24.5 99.0 Z" fill="none" fill-opacity="0.69" stroke="hsl(242, 72%, 49%)" stroke-width="1.82"  transform="translate(18.0 72.8) rotate(127.4) scale(0.86 0.61)" />
<g opacity="0.059">
<rect x="0" y="0" width="1" height="100" fill="black" />
<rect x="22" y="0" width="1" height="100" fill="black" />
<rect x="44" y="0" width="1" height="100" fill="black" />
<rect x="66" y="0" width="1" height="100" fill="black" />
<rect x="88" y="0" width="1" height="100" fill="black" />
<rect x="0" y="0" width="100" height="1" fill="black" />
<rect x="0" y="22" width="100" height="1" fill="black" />
<rect x="0" y="44" width="100" height="1" fill="black" />
<rect x="0" y="66" width="100" height="1" fill="black" />
<rect x="0" y="88" width="100" height="1" fill="black" />
</g>

</svg>
