<?xml version="1.0" encoding="UTF-8"?>
<svg xmlns="http://www.w3.org/2000/svg" width="100" height="100" viewBox="0 0 100 100">
<defs>
<linearGradient id="g0" x1="0%" y1="0%" x2="100%" y2="100%">
<stop offset="0.0%" stop-color="hsl(106, 75%, 59%)" />
<stop offset="33.3%" stop-color="hsl(183, 71%, 60%)" />
<stop offset="66.7%" stop-color="hsl(242, 72%, 49%)" />
<stop offset="100.0%" stop-color="hsl(322, 74%, 44%)" />
</linearGradient>
<linearGradient id="g1" x1="0%" y1="0%" x2="100%" y2="100%">
<stop offset="0.0%" stop-color="hsl(290, 83%, 63%)" />
<stop offset="33.3%" stop-color="hsl(2, 82%, 55%)" />
<stop offset="66.7%" stop-color="hsl(86, 72%, 68%)" />
<stop offset="100.0%" stop-color="hsl(83, 65%, 44%)" />
</linearGradient>
<linearGradient id="g2" x1="0%" y1="0%" x2="100%" y2="100%">
<stop offset="0.0%" stop-color="hsl(40, 53%, 69%)" />
<stop offset="33.3%" stop-color="hsl(104, 72%, 65%)" />
<stop offset="66.7%" stop-color="hsl(144, 86%, 72%)" />
<stop offset="100.0%" stop-color="hsl(151, 70%, 62%)" />
</linearGradient>
</defs>

<path d="M 78.1 77.8 C 76.2 66.1, 35.1 49.7, 33.1 53.3 C 18.9 36.3, 8.4 22.5, 4.3 8.4 C 23.8 20.5, 100.0 51.8, 99.1 58.4 C 95.2 50.4, 57.3 60.0, 52.5 62.2 C 56.3 77.5, 53.7 81.0, 62.5 74.6 C 71.4 56.8, 81.1 39.8, 87.8 33.4 C 69.5 40.1, 15.5 74.6, 29.5 72.2 " fill="hsl(144, 86%, 72%)" fill-opacity="0.26" stroke="none" stroke-width="1.26"  transform="translate(48.8 38.7) rotate(331.9) scale(0.57 1.92)" />
<path d="M 41.2 59.1 C 32.3 74.6, 13.1 29.3, 12.2 39.1 C 11.4 29.4, 21.9 72.6, 12.3 69.2 C 11.0 80.6, 64.4 70.8, 61.4 67.3 C 60.3 64.1, 36.3 92.6, 26.3 89.1 Z" fill="none" fill-opacity="0.35" stroke="hsl(83, 65%, 44%)" stroke-width="0.86"  transform="translate(9.8 38.2) rotate(122.8) scale(1.98 0.88)" />
<path d="M 96.3 57.6 C 94.7 65.6, 17.8 17.8, 18.5 27.8 C 22.5 16.5, 76.0 3.5, 74.2 11.3 C 94.2 16.4, 93.5 24.8, 97.0 14.5 C 100.0 22.3, 100.0 14.0, 98.9 1.7 C 84.5 0.0, 100.0 90.6, 97.7 93.3 C 100.0 100.0, 20.2 52.6, 10.5 52.3 C 0.0 59.5, 13.4 62.5, 14.4 68.5 Z" fill="hsl(151, 70%, 62%)" fill-opacity="0.58" stroke="none" stroke-width="0.81"  transform="translate(84.8 8.3) rotate(281.4) scale(1.47 0.66)" />
<circle cx="37.5" cy="60.4" r="1.0" fill="hsl(183, 71%, 60%)" fill-opacity="0.53"  transform="translate(97.7 5.5) rotate(10.4) scale(1.08 1.74)" />
<path d="M 46.6 8.4 C 40.4 0.0, 45.8 31.2, 58.5 16.6 C 60.0 23.5, 14.7 51.3, 17.7 45.9 C 36.0 31.7, 66.0 38.4, 75.5 34.0 C 86.9 25.2, 69.3 85.8, 66.9 92.9 C 73.1 85.7, 17.4 100.0, 22.5 89.5 C 17.5 83.8, 43.0 100.0, 40.8 95.4 C 50.9 100.0, 91.9 43.8, 84.2 33.6 Z" fill="hsl(144, 86%, 72%)" fill-opacity="0.28" stroke="none" stroke-width="1.08"  transform="translate(87.4 26.8) rotate(352.2) scale(0.85 0.53)" />
<path d="M 5.9 17.4 C 24.9 26.8, 51.3 36.0, 55.9 34.3 C 66.6 22.7, 22.8 61.0, 16.0 70.7 C 0.0 86.0, 41.4 42.6, 44.2 27.6 C 52.4 31.1, 82.8 12.8, 80.4 22.2 C 85.1 42.1, 40.4 49.0, 32.4 58.8 " fill="hsl(86, 72%, 68%)" fill-opacity="0.31" stroke="none" stroke-width="0.81"  transform="translate(94.6 30.4) rotate(304.5) scale(1.71 0.76)" />
<path d="M 52.7 54.2 C 67.4 54.8, 44.0 92.1, 33.3 88.9 C 23.1 74.7, 70.2 42.9, 65.3 39.2 C 63.9 23.4, 25.8 40.8, 11.6 30.3 C 6.6 11.2, 29.0 32.1, 14.2 37.2 C 12.1 38.2, 42.7 22.3, 57.0 23.4 C 47.4 12.0, 13.6 0.0, 1.4 4.8 " fill="none" fill-opacity="0.47" stroke="hsl(83, 65%, 44%)" stroke-width="0.86"  transform="translate(86.5 52.1) rotate(87.0) scale(1.52 1.62)" />
<path d="M 10.5 58.1 C 0.0 42.2, 0.0 42.3, 0.2 43.2 C 0.0 51.8, 51.5 45.4, 63.4 60.3 C 71.0 49.2, 84.3 89.2, 69.7 91.5 Z" fill="hsl(2, 82%, 55%)" fill-opacity="0.60" stroke="none" stroke-width="0.84"  transform="translate(59.6 0.5) rotate(173.2) scale(1.53 1.00)" />
<circle cx="41.9" cy="30.0" r="0.5" fill="hsl(144, 86%, 72%)" fill-opacity="0.73"   />
<path d="M 67.6 74.6 C 71.5 93.8, 68.0 55.9, 69.0 46.1 C 72.5 28.2, 97.7 81.1, 88.5 71.5 C 74.7 62.3, 36.0 96.0, 44.7 92.5 C 28.3 89.3, 99.4 100.0, 85.9 97.7 C 99.1 84.8, 82.7 77.6, 87.7 78.2 C 100.0 87.9, 88.3 84.2, 76.0 71.0 C 65.3 60.3, 49.9 93.6, 50.2 98.3 Z" fill="hsl(322, 74%, 44%)" fill-opacity="0.37" stroke="none" stroke-width="1.11"   />
<path d="M 1.2 11.8 C 0.0 14.1, 40.9 45.7, 36.6 31.7 C 33.4 28.1, 84.3 37.5, 88.9 34.7 C 84.1 43.2, 45.6 23.6, 45.6 18.1 C 30.4 15.6, 45.4 37.8, 37.4 31.3 C 44.8 44.7, 51.2 43.5, 58.8 42.3 C 45.6 42.1, 78.5 79.0, 64.8 74.5 " fill="none" fill-opacity="0.40" stroke="hsl(83, 65%, 44%)" stroke-width="1.10"   />
<rect x="41.1" y="43.6" width="35.5" height="37.8" rx="0" fill="hsl(242, 72%, 49%)" fill-opacity="0.62" stroke="hsl(106, 75%, 59%)" stroke-width="2.3"   />
<path d="M 45.1 71.6 C 36.8 57.1, 86.7 44.4, 95.1 36.1 C 80.9 42.4, 10.5 77.1, 10.5 84.3 C 0.0 100.0, 2.2 3.7, 1.2 11.1 C 0.0 17.5, 18.2 65.1, 18.2 70.0 C 4.2 81.5, 22.5 87.0, 32.2 87.2 " fill="hsl(322, 74%, 44%)" fill-opacity="0.80" stroke="none" stroke-width="1.11"   />
<path d="M 85.2 45.5 C 99.2 46.7, 32.8 19.6, 22.3 7.4 C 9.1 0.0, 78.4 21.3, 88.9 24.8 C 76.8 10.0, 49.1 38.8, 40.4 49.7 " fill="none" fill-opacity="0.31" stroke="hsl(322, 74%, 44%)" stroke-width="0.88"   />
<rect x="36.8" y="7.9" width="41.1" height="14.0" rx="2.7" fill="hsl(86, 72%, 68%)" fill-opacity="0.28"    />
</svg>
