<?xml version="1.0" encoding="UTF-8"?>
<svg xmlns="http://www.w3.org/2000/svg" width="100" height="100" viewBox="0 0 100 100">
<defs>
<linearGradient id="g0" x1="0%" y1="0%" x2="100%" y2="100%">
<stop offset="0.0%" stop-color="hsl(106, 75%, 59%)" />
<stop offset="33.3%" stop-color="hsl(183, 71%, 60%)" />
<stop offset="66.7%" stop-color="hsl(242, 72%, 49%)" />
<stop offset="100.0%" stop-color="hsl(322, 74%, 44%)" />
</linearGradient>
<linearGradient id="g1" x1="0%" y1="0%" x2="100%" y2="100%">
<stop offset="0.0%" stop-color="hsl(290, 83%, 63%)" />
<stop offset="33.3%" stop-color="hsl(2, 82%, 55%)" />
<stop offset="66.7%" stop-color="hsl(86, 72%, 68%)" />
<stop offset="100.0%" stop-color="hsl(83, 65%, 44%)" />
</linearGradient>
<linearGradient id="g2" x1="0%" y1="0%" x2="100%" y2="100%">
<stop offset="0.0%" stop-color="hsl(40, 53%, 69%)" />
<stop offset="33.3%" stop-color="hsl(104, 72%, 65%)" />
<stop offset="66.7%" stop-color="hsl(144, 86%, 72%)" />
<stop offset="100.0%" stop-color="hsl(151, 70%, 62%)" />
</linearGradient>
</defs>

<rect x="59.8" y="51.2" width="33.8" height="29.9" rx="0" fill="none" fill-opacity="0.28" stroke="hsl(104, 72%, 65%)" stroke-width="2.8"  transform="translate(10.3 0.1) rotate(214.8) scale(1.41 1.29)" />
<path d="M 27.8 35.1 C 19.1 34.2, 47.1 75.4, 45.8 64.3 C 53.1 62.5, 66.7 100.0, 79.5 97.8 C 60.4 100.0, 100.0 55.9, 97.3 63.3 C 100.0 76.0, 0.0 100.0, 3.2 95.8 " fill="none" fill-opacity="0.92" stroke="hsl(322, 74%, 44%)" stroke-width="1.23"   />
<circle cx="94.9" cy="68.7" r="0.2" fill="hsl(83, 65%, 44%)" fill-opacity="0.57"  transform="translate(98.9 63.7) rotate(228.1) scale(1.32 0.81)" />
<path d="M 53.3 44.8 C 68.6 45.3, 39.4 22.9, 37.9 19.9 C 25.1 20.0, 73.0 25.9, 76.2 25.6 C 61.5 17.0, 72.9 52.9, 61.8 47.2 C 61.0 51.5, 39.0 100.0, 35.7 99.4 C 53.3 90.8, 9.1 35.6, 9.5 40.9 " fill="none" fill-opacity="0.89" stroke="hsl(183, 71%, 60%)" stroke-width="1.02"  transform="translate(61.3 75.1) rotate(111.5) scale(1.30 0.62)" />
<circle cx="63.0" cy="69.2" r="0.2" fill="hsl(151, 70%, 62%)" fill-opacity="0.78"   />
<path d="M 88.3 67.4 C 82.8 61.7, 61.7 5.8, 61.1 7.5 C 75.0 0.0, 69.4 98.5, 74.2 85.4 C 75.2 98.5, 100.0 35.3, 91.4 35.0 C 87.9 48.1, 24.0 54.0, 23.7 44.3 C 40.8 36.4, 59.7 37.2, 69.2 35.8 C 57.0 43.4, 8.4 0.0, 5.4 2.2 " fill="hsl(290, 83%, 63%)" fill-opacity="0.90" stroke="none" stroke-width="1.15"   />
<rect x="30.1" y="37.4" width="32.7" height="14.2" rx="10.9" fill="none" fill-opacity="0.82"   transform="translate(1.0 5.4) rotate(79.5) scale(1.25 0.63)" />
<path d="M 46.1 58.7 C 58.6 48.8, 80.2 40.8, 73.4 35.2 C 87.6 47.7, 63.0 92.4, 54.0 91.5 C 52.8 92.8, 50.7 29.3, 64.2 43.3 C 70.3 39.8, 58.2 43.2, 56.3 44.8 C 56.9 40.5, 43.6 100.0, 56.1 96.1 Z" fill="hsl(86, 72%, 68%)" fill-opacity="1.00" stroke="none" stroke-width="1.14"  transform="translate(23.9 27.3) rotate(279.9) scale(1.12 1.44)" />
<rect x="27.4" y="38.5" width="49.5" height="25.3" rx="0" fill="hsl(144, 86%, 72%)" fill-opacity="0.24"    />
<rect x="49.9" y="32.7" width="48.5" height="29.1" rx="7.0" fill="hsl(86, 72%, 68%)" fill-opacity="0.65" stroke="hsl(2, 82%, 55%)" stroke-width="4.8"   />
<rect x="42.2" y="10.1" width="48.1" height="16.6" rx="0" fill="hsl(104, 72%, 65%)" fill-opacity="0.83" stroke="hsl(144, 86%, 72%)" stroke-width="4.2"   />
<circle cx="37.5" cy="85.2" r="0.9" fill="hsl(322, 74%, 44%)" fill-opacity="0.82"  transform="translate(5.9 15.8) rotate(352.5) scale(0.54 0.59)" />
<rect x="27.1" y="79.8" width="28.8" height="16.4" rx="0" fill="none" fill-opacity="0.76"   transform="translate(21.4 20.0) rotate(206.3) scale(1.68 0.90)" />
<rect x="3.4" y="16.4" width="35.8" height="36.7" rx="0.2" fill="none" fill-opacity="0.70" stroke="hsl(104, 72%, 65%)" stroke-width="1.3"   />
</svg>
