<?xml version="1.0" encoding="UTF-8"?>
<svg xmlns="http://www.w3.org/2000/svg" width="100" height="100" viewBox="0 0 100 100">
<defs>
<linearGradient id="g0" x1="0%" y1="0%" x2="100%" y2="100%">
<stop offset="0.0%" stop-color="hsl(106, 75%, 59%)" />
<stop offset="33.3%" stop-color="hsl(183, 71%, 60%)" />
<stop offset="66.7%" stop-color="hsl(242, 72%, 49%)" />
<stop offset="100.0%" stop-color="hsl(322, 74%, 44%)" />
</linearGradient>
<linearGradient id="g1" x1="0%" y1="0%" x2="100%" y2="100%">
<stop offset="0.0%" stop-color="hsl(290, 83%, 63%)" />
<stop offset="33.3%" stop-color="hsl(2, 82%, 55%)" />
<stop offset="66.7%" stop-color="hsl(86, 72%, 68%)" />
<stop offset="100.0%" stop-color="hsl(83, 65%, 44%)" />
</linearGradient>
<linearGradient id="g2" x1="0%" y1="0%" x2="100%" y2="100%">
<stop offset="0.0%" stop-color="hsl(40, 53%, 69%)" />
<stop offset="33.3%" stop-color="hsl(104, 72%, 65%)" />
<stop offset="66.7%" stop-color="hsl(144, 86%, 72%)" />
<stop offset="100.0%" stop-color="hsl(151, 70%, 62%)" />
</linearGradient>
</defs>

<path d="M 58.5 26.8 C 73.8 22.5, 66.2 44.3, 54.5 54.5 C 71.3 59.9, 62.3 14.0, 50.6 1.8 C 56.2 1.6, 65.6 70.6, 58.4 72.1 C 65.2 60.3, 76.9 17.5, 67.9 12.2 C 63.0 8.7, 57.6 81.4, 52.5 95.1 Z" fill="hsl(290, 83%, 63%)" fill-opacity="0.78" stroke="none" stroke-width="0.91"   />
<path d="M 1.6 19.4 C 3.7 30.4, 100.0 14.6, 99.5 12.4 C 100.0 5.5, 57.9 46.5, 59.5 40.6 C 58.1 45.4, 61.9 66.0, 69.3 78.8 C 52.3 93.2, 0.0 64.9, 0.2 73.9 " fill="none" fill-opacity="0.63" stroke="hsl(322, 74%, 44%)" stroke-width="0.93"  transform="translate(75.7 1.5) rotate(62.5) scale(0.67 1.33)" />
<path d="M 11.8 86.1 C 17.1 94.8, 96.6 27.9, 98.1 30.5 C 100.0 27.7, 0.0 15.6, 6.3 12.9 C 11.5 11.7, 70.4 14.4, 73.0 18.4 C 74.3 13.9, 100.0 13.6, 98.1 21.9 C 88.0 7.2, 47.9 26.7, 47.9 40.3 C 65.5 21.2, 78.2 68.5, 89.6 73.5 " fill="hsl(40, 53%, 69%)" fill-opacity="0.69" stroke="none" stroke-width="0.99"   />
<circle cx="69.4" cy="71.0" r="0.0" fill="hsl(151, 70%, 62%)" fill-opacity="0.67"  transform="translate(97.0 90.3) rotate(196.2) scale(1.44 0.87)" />
<path d="M 4.2 7.5 C 17.9 14.5, 5.6 41.1, 10.8 46.5 C 9.1 28.7, 85.8 63.6, 89.2 54.9 C 100.0 71.2, 97.7 13.6, 83.6 19.5 C 89.6 20.0, 29.9 76.4, 17.5 79.9 Z" fill="hsl(144, 86%, 72%)" fill-opacity="0.87" stroke="none" stroke-width="1.02"  transform="translate(54.5 16.3) rotate(231.0) scale(0.59 1.50)" />
<rect x="19.5" y="15.0" width="21.9" height="39.6" rx="17.0" fill="hsl(104, 72%, 65%)" fill-opacity="0.74"   transform="translate(92.3 16.4) rotate(22.3) scale(1.49 1.81)" />
<path d="M 5.8 85.9 C 21.4 99.4, 16.9 8.3, 27.5 2.4 C 38.9 17.3, 38.5 99.3, 30.6 98.2 C 21.5 100.0, 59.1 79.9, 65.5 71.8 C 69.9 84.5, 88.1 38.8, 74.1 49.7 C 88.7 52.2, 31.9 26.5, 25.3 17.3 " fill="none" fill-opacity="0.50" stroke="hsl(322, 74%, 44%)" stroke-width="0.99"  transform="translate(97.5 49.3) rotate(201.9) scale(0.57 1.12)" />
<path d="M 97.4 26.3 C 91.3 13.5, 59.5 22.5, 52.6 12.4 C 45.2 0.7, 82.7 62.9, 85.0 76.5 C 100.0 73.2, 91.5 51.6, 80.9 52.1 Z" fill="none" fill-opacity="0.59" stroke="hsl(2, 82%, 55%)" stroke-width="0.96"  transform="translate(50.4 44.4) rotate(87.0) scale(1.92 0.71)" />
<path d="M 17.2 82.7 C 35.4 99.9, 77.2 69.0, 86.2 54.7 C 76.7 43.7, 52.8 13.9, 48.3 20.3 C 58.1 19.1, 0.0 95.2, 10.2 97.0 " fill="none" fill-opacity="0.41" stroke="hsl(106, 75%, 59%)" stroke-width="1.02"   />
<rect x="20.9" y="13.7" width="41.8" height="33.3" rx="0" fill="hsl(322, 74%, 44%)" fill-opacity="0.48" stroke="hsl(183, 71%, 60%)" stroke-width="3.0"  transform="translate(21.8 39.4) rotate(359.2) scale(1.36 1.79)" />
<path d="M 33.5 88.1 C 44.6 73.2, 51.0 73.8, 58.1 69.6 C 53.6 62.5, 22.2 38.8, 20.2 30.5 C 36.1 27.9, 40.6 70.8, 36.1 64.5 C 26.7 59.8, 63.9 20.9, 60.1 30.2 C 79.6 26.6, 0.0 100.0, 0.8 89.0 Z" fill="none" fill-opacity="0.85" stroke="hsl(151, 70%, 62%)" stroke-width="0.99"  transform="translate(54.0 57.1) rotate(86.1) scale(0.86 0.95)" />
</svg>
