<?xml version="1.0" encoding="UTF-8"?>
<svg xmlns="http://www.w3.org/2000/svg" width="100" height="100" viewBox="0 0 100 100">
<defs>
<linearGradient id="g0" x1="0%" y1="0%" x2="100%" y2="100%">
<stop offset="0.0%" stop-color="hsl(106, 75%, 59%)" />
<stop offset="33.3%" stop-color="hsl(183, 71%, 60%)" />
<stop offset="66.7%" stop-color="hsl(242, 72%, 49%)" />
<stop offset="100.0%" stop-color="hsl(322, 74%, 44%)" />
</linearGradient>
<linearGradient id="g1" x1="0%" y1="0%" x2="100%" y2="100%">
<stop offset="0.0%" stop-color="hsl(290, 83%, 63%)" />
<stop offset="33.3%" stop-color="hsl(2, 82%, 55%)" />
<stop offset="66.7%" stop-color="hsl(86, 72%, 68%)" />
<stop offset="100.0%" stop-color="hsl(83, 65%, 44%)" />
</linearGradient>
<linearGradient id="g2" x1="0%" y1="0%" x2="100%" y2="100%">
<stop offset="0.0%" stop-color="hsl(40, 53%, 69%)" />
<stop offset="33.3%" stop-color="hsl(104, 72%, 65%)" />
<stop offset="66.7%" stop-color="hsl(144, 86%, 72%)" />
<stop offset="100.0%" stop-color="hsl(151, 70%, 62%)" />
</linearGradient>
<filter id="f1" x="-20%" y="-20%" width="140%" height="140%">
  <feGaussianBlur stdDeviation="0.5447480457090454" />
</filter>

</defs>

<path d="M 80.5 57.0 C 67.7 38.6, 42.8 72.5, 43.0 73.7 C 29.3 88.5, 4.5 59.5, 3.0 55.3 C 2.4 64.0, 22.2 75.3, 33.7 80.4 C 43.8 64.1, 70.3 40.9, 72.7 28.9 C 69.1 31.1, 37.6 32.4, 42.2 18.9 C 55.8 14.8, 0.0 15.2, 3.6 19.2 C 0.0 12.7, 83.4 12.9, 95.5 0.4 C 100.0 6.3, 37.9 14.5, 47.3 24.2 C 38.0 31.9, 17.7 59.8, 4.7 57.5 Z" fill="hsl(106, 75%, 59%)" fill-opacity="0.76" stroke="none" stroke-width="1.22" filter="url(#f1)" transform="translate(22.7 32.5) rotate(260.5) scale(0.95 0.86)" />
<path d="M 31.8 20.4 C 43.5 26.9, 40.5 82.9, 49.9 88.0 C 69.0 84.0, 100.0 12.8, 93.3 21.1 C 74.9 10.7, 44.8 21.9, 49.0 34.7 C 59.1 41.4, 28.9 92.6, 28.0 80.1 C 46.3 84.5, 0.0 31.5, 13.1 26.8 C 0.0 37.1, 76.7 86.6, 82.8 85.5 C 98.3 98.6, 17.3 55.1, 20.8 57.2 " fill="hsl(83, 65%, 44%)" fill-opacity="0.39" stroke="none" stroke-width="3.30"  transform="translate(73.9 77.2) rotate(325.7) scale(0.96 1.44)" />
<path d="M 5.2 87.0 C 0.0 83.3, 53.0 62.6, 61.2 73.2 C 49.3 79.2, 74.1 51.8, 62.3 39.5 C 53.7 48.7, 0.0 46.3, 1.1 33.0 C 0.0 25.7, 78.9 84.3, 78.8 92.6 C 84.5 95.6, 74.6 28.8, 75.9 34.3 C 77.0 46.6, 82.4 21.5, 91.3 12.7 C 94.2 6.5, 50.5 33.8, 63.6 45.1 C 81.5 52.8, 21.7 52.3, 34.7 43.9 C 23.1 31.6, 99.0 21.1, 94.9 33.4 Z" fill="hsl(40, 53%, 69%)" fill-opacity="0.78" stroke="none" stroke-width="3.24" filter="url(#f1)" transform="translate(58.8 85.2) rotate(27.4) scale(0.71 0.83)" />
<rect x="29.3" y="34.5" width="38.2" height="27.1" rx="9.8" fill="hsl(104, 72%, 65%)" fill-opacity="0.28"   transform="translate(70.0 45.7) rotate(42.1) scale(0.66 0.82)" />
<path d="M 22.6 66.5 C 18.4 48.8, 3.9 20.7, 10.1 10.7 C 27.6 26.3, 54.0 53.1, 43.4 46.2 C 40.2 35.1, 10.8 85.1, 0.2 96.3 C 0.0 85.6, 0.0 70.9, 8.0 82.6 C 12.5 71.4, 35.5 77.9, 38.5 66.5 C 24.2 54.5, 41.7 74.4, 50.1 69.9 C 68.8 71.1, 25.8 96.7, 28.5 98.9 Z" fill="none" fill-opacity="0.56" stroke="hsl(144, 86%, 72%)" stroke-width="3.84" filter="url(#f1)" transform="translate(59.6 36.5) rotate(309.0) scale(0.68 1.04)" />
<rect x="9.5" y="62.3" width="37.4" height="34.4" rx="11.6" fill="hsl(104, 72%, 65%)" fill-opacity="0.49"    />
<rect x="12.0" y="68.2" width="47.5" height="22.8" rx="2.3" fill="hsl(40, 53%, 69%)" fill-opacity="0.85" stroke="hsl(104, 72%, 65%)" stroke-width="1.1"  transform="translate(9.8 13.2) rotate(55.3) scale(1.15 1.73)" />
<circle cx="16.4" cy="6.6" r="4.7" fill="hsl(144, 86%, 72%)" fill-opacity="0.97"   />
<path d="M 26.7 48.2 C 22.6 57.6, 62.7 21.2, 53.5 35.9 C 37.3 39.3, 8.1 44.1, 7.0 44.8 C 0.0 30.4, 42.7 22.1, 30.6 17.1 C 37.1 17.7, 52.0 76.3, 52.0 68.1 C 39.1 51.5, 41.6 44.9, 56.4 52.4 C 41.2 55.2, 27.3 29.3, 19.7 32.9 Z" fill="hsl(290, 83%, 63%)" fill-opacity="0.31" stroke="none" stroke-width="1.11"  transform="translate(1.0 46.9) rotate(309.3) scale(1.66 1.54)" />
<circle cx="30.2" cy="2.3" r="2.0" fill="url(#g1)" fill-opacity="0.74"  transform="translate(61.5 79.4) rotate(33.2) scale(0.80 1.27)" />
<path d="M 59.7 16.9 C 48.7 20.9, 66.9 0.0, 58.6 3.4 C 61.3 0.0, 54.3 20.4, 54.6 16.0 C 46.0 6.2, 37.3 94.3, 40.8 87.4 C 24.5 92.4, 65.8 55.5, 58.1 66.1 C 74.0 72.6, 23.4 95.3, 21.9 97.3 C 37.6 100.0, 12.4 32.8, 3.3 34.6 C 0.0 17.0, 56.9 86.3, 43.6 82.1 C 33.0 79.5, 27.3 25.1, 33.9 25.3 Z" fill="hsl(322, 74%, 44%)" fill-opacity="0.72" stroke="none" stroke-width="1.70" filter="url(#f1)" transform="translate(98.3 77.7) rotate(44.3) scale(0.57 1.20)" />
<path d="M 56.3 21.4 C 70.4 1.8, 64.5 10.0, 65.7 13.6 C 66.3 8.1, 69.8 35.3, 80.4 41.8 C 97.7 54.4, 17.7 79.0, 6.9 75.3 C 0.0 85.3, 93.7 15.7, 86.9 4.0 C 77.1 17.7, 75.0 8.2, 79.3 16.8 C 97.6 18.7, 66.9 100.0, 61.3 99.4 Z" fill="hsl(290, 83%, 63%)" fill-opacity="0.25" stroke="none" stroke-width="1.17" filter="url(#f1)"  />
<rect x="45.9" y="13.0" width="43.7" height="26.6" rx="0" fill="hsl(83, 65%, 44%)" fill-opacity="0.67"  filter="url(#f1)" transform="translate(93.7 96.4) rotate(47.6) scale(1.23 1.91)" />
<rect x="65.4" y="34.5" width="25.0" height="28.5" rx="0" fill="hsl(106, 75%, 59%)" fill-opacity="0.56"   transform="translate(0.1 18.1) rotate(37.0) scale(1.65 1.06)" />
<path d="M 53.5 21.7 C 71.5 39.2, 18.2 69.1, 28.4 70.7 C 29.4 60.4, 54.4 0.0, 54.3 4.3 C 58.9 0.0, 51.4 43.3, 49.5 57.1 C 38.9 47.6, 84.4 8.0, 85.4 5.2 C 72.7 9.0, 81.0 93.2, 89.7 84.0 C 73.4 88.0, 24.2 15.5, 27.3 27.7 C 27.5 19.5, 21.2 13.1, 14.4 15.0 C 20.6 15.2, 30.4 8.6, 41.5 20.7 Z" fill="hsl(322, 74%, 44%)" fill-opacity="0.94" stroke="none" stroke-width="1.33"  transform="translate(66.9 83.4) rotate(45.7) scale(1.84 2.00)" />
<path d="M 10.9 87.4 C 28.5 98.9, 57.1 95.8, 60.5 89.8 C 73.3 79.4, 18.9 75.8, 25.8 66.0 C 24.5 70.7, 71.0 92.3, 64.4 83.8 C 53.3 93.2, 55.3 65.3, 58.4 75.7 C 77.6 71.4, 54.9 92.7, 52.4 84.2 C 46.0 80.1, 69.8 19.5, 65.0 24.0 C 71.4 6.8, 3.0 90.8, 8.0 93.1 C 0.0 73.6, 20.3 44.3, 14.1 34.5 C 32.3 20.4, 50.2 100.0, 48.6 93.0 " fill="hsl(322, 74%, 44%)" fill-opacity="0.43" stroke="none" stroke-width="3.00"  transform="translate(39.5 62.1) rotate(102.6) scale(1.17 1.60)" />
<path d="M 29.2 92.5 C 21.0 92.7, 61.1 47.0, 55.7 43.2 C 61.3 56.2, 29.5 68.2, 30.0 68.6 C 17.9 70.5, 90.6 79.8, 96.1 84.1 C 88.7 71.7, 77.5 87.1, 71.7 90.0 C 81.5 91.0, 75.0 40.6, 89.6 37.4 C 77.6 37.1, 0.0 31.5, 1.0 18.0 C 0.0 3.8, 47.4 91.4, 45.6 88.3 Z" fill="none" fill-opacity="0.64" stroke="hsl(2, 82%, 55%)" stroke-width="2.07"  transform="translate(10.2 89.9) rotate(318.1) scale(1.82 0.57)" />
<circle cx="1.7" cy="87.2" r="6.6" fill="hsl(242, 72%, 49%)" fill-opacity="0.90"  transform="translate(0.5 47.8) rotate(122.3) scale(1.66 0.69)" />
<circle cx="59.1" cy="43.1" r="8.0" fill="hsl(104, 72%, 65%)" fill-opacity="1.00"  transform="translate(64.2 53.0) rotate(303.0) scale(1.01 0.95)" />
<path d="M 90.0 92.1 C 100.0 95.1, 100.0 0.0, 95.0 6.4 C 90.4 0.0, 100.0 84.2, 95.5 79.1 C 98.5 90.6, 81.0 36.5, 84.9 37.7 C 78.0 49.7, 26.0 1.2, 28.0 12.7 C 22.8 0.0, 45.3 63.7, 56.6 60.4 C 47.9 74.8, 0.0 16.8, 0.2 14.1 C 3.9 34.1, 11.4 40.5, 4.5 44.3 C 9.8 44.5, 18.8 0.0, 4.7 11.5 C 0.0 6.8, 55.5 46.3, 49.2 35.9 Z" fill="none" fill-opacity="0.59" stroke="hsl(83, 65%, 44%)" stroke-width="1.21"  transform="translate(6.0 65.6) rotate(299.9) scale(0.83 1.38)" />
<path d="M 8.2 1.0 C 20.6 1.2, 20.6 31.3, 15.5 22.9 C 24.4 21.5, 69.7 21.8, 67.2 20.0 C 65.4 32.3, 81.7 8.1, 82.5 10.0 C 87.4 23.5, 3.6 47.0, 7.2 54.7 C 23.7 43.6, 76.6 46.6, 76.0 32.9 C 64.6 28.8, 39.0 50.8, 41.5 44.9 C 57.8 57.8, 43.0 83.3, 32.3 96.4 C 25.8 100.0, 40.4 36.0, 32.0 50.2 C 49.9 33.6, 86.9 70.0, 80.5 72.9 Z" fill="hsl(106, 75%, 59%)" fill-opacity="0.79" stroke="none" stroke-width="1.19" filter="url(#f1)" transform="translate(17.7 79.6) rotate(264.4) scale(1.71 1.04)" />
<circle cx="25.7" cy="33.4" r="6.0" fill="hsl(290, 83%, 63%)" fill-opacity="0.96"  transform="translate(90.9 23.5) rotate(81.5) scale(0.55 1.04)" />
<path d="M 58.3 93.8 C 47.6 100.0, 0.0 58.1, 0.8 65.0 C 0.0 70.6, 51.2 0.0, 51.7 1.5 C 51.5 10.2, 25.5 62.4, 17.5 70.8 C 9.6 70.0, 29.7 0.0, 17.4 3.2 C 16.7 2.8, 75.0 44.9, 65.5 40.4 C 49.6 53.2, 29.2 14.1, 43.8 5.6 C 42.1 19.3, 58.7 71.3, 69.0 71.0 C 76.4 66.5, 3.4 100.0, 4.8 98.6 Z" fill="hsl(242, 72%, 49%)" fill-opacity="0.30" stroke="none" stroke-width="5.25" filter="url(#f1)" transform="translate(94.9 92.3) rotate(142.5) scale(1.68 1.83)" />
<path d="M 95.0 43.7 C 76.3 44.3, 74.2 36.8, 70.6 41.8 C 80.3 30.7, 13.8 85.5, 22.4 88.9 C 6.1 92.2, 39.3 0.0, 48.3 4.4 C 54.2 0.0, 30.9 65.0, 32.7 52.3 C 20.0 43.9, 76.4 45.9, 87.9 43.9 C 100.0 56.1, 69.7 57.3, 58.1 69.8 C 77.5 61.6, 29.3 37.9, 35.2 39.0 C 47.6 30.5, 60.0 94.7, 68.2 92.3 Z" fill="hsl(290, 83%, 63%)" fill-opacity="0.81" stroke="none" stroke-width="1.98"   />
<path d="M 87.9 79.6 C 100.0 98.0, 39.5 34.0, 48.0 32.6 C 44.7 46.3, 51.2 91.7, 64.6 79.9 C 82.2 87.7, 63.2 35.8, 62.9 32.3 C 79.3 36.9, 100.0 36.0, 99.6 44.6 C 83.0 32.1, 8.6 73.2, 23.3 72.6 C 3.3 62.0, 31.1 84.7, 30.2 98.7 C 20.8 97.0, 5.1 21.6, 14.5 24.9 C 6.6 40.1, 94.2 9.4, 84.3 14.4 " fill="none" fill-opacity="0.78" stroke="hsl(2, 82%, 55%)" stroke-width="4.17"   />
<path d="M 20.7 42.7 C 21.6 26.6, 39.1 77.6, 50.6 77.9 C 56.2 85.1, 6.2 12.3, 3.9 14.9 C 0.0 5.5, 93.9 100.0, 93.7 98.7 C 79.6 100.0, 94.6 28.1, 88.8 22.1 C 100.0 30.0, 23.5 38.3, 9.5 29.5 C 11.9 16.6, 75.4 54.7, 74.1 46.3 C 75.2 30.4, 76.0 42.7, 61.7 53.1 C 81.1 45.5, 62.2 24.1, 53.5 25.4 C 57.8 13.9, 38.0 32.3, 42.1 17.9 C 55.2 28.9, 28.2 100.0, 29.4 90.7 Z" fill="hsl(322, 74%, 44%)" fill-opacity="0.81" stroke="none" stroke-width="5.13"  transform="translate(6.8 77.9) rotate(71.4) scale(1.50 0.91)" />
<rect x="57.6" y="34.2" width="28.8" height="18.8" rx="0" fill="none" fill-opacity="0.61"   transform="translate(31.0 24.3) rotate(249.7) scale(0.96 1.66)" />
<path d="M 28.0 45.2 C 29.3 60.3, 42.3 96.4, 35.2 89.4 C 20.2 97.3, 34.1 7.4, 24.1 13.2 C 22.3 0.0, 64.3 28.4, 76.7 15.4 C 79.9 2.4, 86.3 7.2, 80.8 16.2 C 92.7 10.6, 82.5 45.5, 80.9 31.3 C 88.6 15.6, 58.1 79.4, 65.7 91.1 C 82.0 96.8, 13.2 53.4, 6.7 61.3 C 0.0 73.6, 53.6 53.6, 63.7 40.9 C 81.5 52.4, 75.2 32.4, 75.9 28.6 Z" fill="hsl(86, 72%, 68%)" fill-opacity="0.69" stroke="none" stroke-width="2.29"  transform="translate(90.2 43.5) rotate(356.3) scale(1.11 1.04)" />
<circle cx="20.5" cy="1.7" r="2.1" fill="url(#g2)" fill-opacity="0.94" filter="url(#f1)" transform="translate(22.3 51.2) rotate(101.9) scale(1.27 1.40)" />
<path d="M 9.2 15.0 C 0.0 16.0, 21.6 52.7, 32.0 49.0 C 14.3 34.5, 77.1 22.5, 68.5 23.0 C 82.0 25.3, 12.7 20.9, 21.8 10.1 C 11.8 0.0, 84.6 20.1, 80.2 27.9 C 98.7 31.0, 100.0 12.6, 90.8 22.4 C 78.3 31.1, 81.4 66.6, 74.1 71.9 C 93.2 56.6, 52.9 64.0, 60.1 78.7 C 40.6 62.7, 23.8 7.4, 37.4 6.0 C 56.8 18.8, 28.9 76.2, 19.7 71.3 Z" fill="none" fill-opacity="0.53" stroke="hsl(290, 83%, 63%)" stroke-width="4.08"  transform="translate(45.4 26.4) rotate(325.3) scale(1.90 0.91)" />
<path d="M 94.4 43.1 C 74.6 48.4, 77.7 85.6, 65.2 84.0 C 45.7 92.3, 72.3 46.1, 61.5 34.8 C 54.7 43.0, 20.4 59.0, 11.1 62.1 C 0.0 75.1, 92.7 30.4, 90.6 41.8 C 92.9 46.0, 93.3 42.4, 89.2 29.6 C 100.0 48.9, 6.6 4.0, 6.9 9.9 Z" fill="none" fill-opacity="0.94" stroke="hsl(183, 71%, 60%)" stroke-width="5.04"  transform="translate(46.2 20.4) rotate(334.0) scale(0.85 1.55)" />
<rect x="16.4" y="68.1" width="45.9" height="23.3" rx="4.1" fill="none" fill-opacity="0.24"  filter="url(#f1)" transform="translate(97.4 31.1) rotate(349.8) scale(1.69 0.60)" />
<circle cx="77.7" cy="70.1" r="0.5" fill="hsl(2, 82%, 55%)" fill-opacity="0.64" filter="url(#f1)" transform="translate(83.3 92.7) rotate(87.6) scale(0.89 0.87)" />
<circle cx="25.3" cy="66.7" r="0.8" fill="url(#g2)" fill-opacity="0.48"  transform="translate(58.2 6.9) rotate(87.7) scale(1.80 1.13)" />
<path d="M 24.7 37.0 C 9.6 29.2, 34.3 43.0, 25.7 42.2 C 12.8 42.0, 22.9 72.2, 34.4 60.1 C 26.1 64.7, 77.8 38.9, 65.6 36.4 C 53.4 35.8, 89.6 45.7, 84.1 57.7 C 75.4 65.1, 74.9 1.4, 73.9 3.3 C 65.1 10.2, 44.7 66.5, 34.3 58.0 C 41.1 42.2, 45.3 74.4, 36.8 66.2 C 37.0 51.6, 9.2 73.2, 1.6 82.5 C 15.7 67.7, 32.1 39.9, 46.4 38.7 Z" fill="none" fill-opacity="0.65" stroke="hsl(106, 75%, 59%)" stroke-width="0.91"  transform="translate(37.0 24.7) rotate(357.2) scale(0.82 1.90)" />
<rect x="0.0" y="61.6" width="49.0" height="22.1" rx="9.1" fill="none" fill-opacity="0.57"   transform="translate(80.0 42.6) rotate(26.8) scale(1.20 0.56)" />
<path d="M 32.9 5.1 C 22.3 25.0, 98.1 0.0, 90.8 2.3 C 100.0 0.0, 69.5 85.6, 61.3 88.5 C 79.2 88.3, 57.7 91.1, 52.9 82.4 C 50.6 79.1, 82.6 18.8, 81.4 6.7 C 70.3 7.8, 66.0 49.2, 79.6 45.1 C 86.6 62.5, 100.0 0.0, 99.0 0.9 C 100.0 17.2, 14.0 64.2, 13.5 55.0 Z" fill="hsl(322, 74%, 44%)" fill-opacity="0.29" stroke="none" stroke-width="3.25"  transform="translate(38.9 29.2) rotate(192.2) scale(0.84 0.75)" />
<path d="M 42.6 43.6 C 47.8 35.9, 29.2 38.2, 16.3 25.8 C 14.0 28.4, 19.8 18.8, 11.3 24.8 C 28.8 44.6, 5.3 64.2, 4.7 53.8 C 22.5 60.7, 78.3 19.6, 86.3 11.1 C 77.5 28.2, 24.1 61.9, 24.4 51.2 C 22.9 46.9, 11.7 76.2, 22.9 86.6 C 10.2 82.6, 68.3 71.0, 75.7 60.1 C 75.9 65.9, 41.5 100.0, 34.1 94.5 C 44.8 99.6, 60.6 48.2, 61.7 44.2 Z" fill="hsl(40, 53%, 69%)" fill-opacity="0.67" stroke="none" stroke-width="1.63"  transform="translate(56.6 97.8) rotate(331.4) scale(0.69 1.51)" />
<rect x="18.3" y="81.5" width="39.4" height="10.8" rx="0" fill="none" fill-opacity="0.83"   transform="translate(81.2 92.2) rotate(296.3) scale(1.71 0.62)" />
<path d="M 68.5 39.7 C 70.3 23.6, 82.5 55.3, 79.0 46.6 C 94.5 48.4, 67.2 48.8, 59.5 55.5 C 71.2 37.3, 0.0 61.7, 3.8 57.3 C 20.8 46.9, 72.9 82.2, 60.8 90.2 C 55.2 100.0, 98.9 0.0, 84.4 5.3 C 71.8 0.0, 44.0 30.3, 56.1 44.5 C 70.7 36.0, 16.0 76.6, 5.7 81.7 Z" fill="hsl(144, 86%, 72%)" fill-opacity="0.42" stroke="none" stroke-width="1.40"  transform="translate(65.5 69.4) rotate(335.8) scale(0.78 1.26)" />
<path d="M 59.1 82.0 C 69.6 73.7, 85.4 2.4, 87.1 1.5 C 68.7 0.0, 4.4 15.1, 18.5 24.3 C 28.4 19.8, 59.9 83.1, 70.2 69.4 C 50.6 77.9, 17.9 66.7, 13.2 66.5 C 31.4 71.9, 53.4 49.4, 66.1 46.6 C 53.3 35.0, 20.3 16.9, 26.4 23.0 C 26.9 3.4, 34.5 19.5, 19.8 22.0 C 22.2 22.1, 40.3 88.6, 50.6 85.2 C 46.9 100.0, 67.5 25.6, 76.1 21.1 C 71.9 38.9, 24.0 82.5, 22.6 84.3 Z" fill="hsl(2, 82%, 55%)" fill-opacity="0.97" stroke="none" stroke-width="4.36"  transform="translate(55.9 19.1) rotate(50.5) scale(0.96 0.84)" />
<circle cx="8.3" cy="89.2" r="4.0" fill="url(#g1)" fill-opacity="0.51" filter="url(#f1)" transform="translate(76.5 36.6) rotate(285.6) scale(1.13 1.71)" />
<circle cx="64.8" cy="96.1" r="5.4" fill="url(#g2)" fill-opacity="0.61"  transform="translate(20.0 20.6) rotate(262.8) scale(1.03 1.26)" />
<path d="M 69.9 98.3 C 87.6 78.5, 35.8 56.6, 30.2 51.3 C 28.0 45.8, 13.5 77.8, 0.3 88.1 C 0.0 86.3, 80.2 45.2, 74.1 32.4 C 85.7 37.2, 20.1 12.3, 8.0 22.7 C 0.0 37.0, 68.6 73.7, 67.3 70.6 C 83.5 89.5, 52.5 98.5, 44.5 89.0 C 63.2 95.7, 61.6 74.7, 49.9 85.5 Z" fill="hsl(40, 53%, 69%)" fill-opacity="0.65" stroke="none" stroke-width="2.13" filter="url(#f1)" transform="translate(18.3 9.2) rotate(117.1) scale(1.28 1.15)" />
<path d="M 18.5 39.0 C 27.6 37.5, 19.0 76.4, 29.2 80.8 C 42.1 70.3, 29.1 30.4, 22.1 31.1 C 36.3 30.0, 46.8 68.6, 58.8 55.7 C 65.2 60.7, 80.5 20.0, 67.4 19.4 C 69.6 0.0, 26.2 81.1, 31.5 72.5 C 14.0 62.5, 52.9 80.8, 40.5 72.3 C 21.9 72.7, 71.1 80.2, 74.8 71.2 C 62.2 79.1, 55.2 92.2, 64.7 89.7 C 81.4 79.1, 76.7 30.0, 90.9 31.1 C 74.4 14.2, 31.1 85.9, 18.7 81.3 Z" fill="hsl(2, 82%, 55%)" fill-opacity="0.64" stroke="none" stroke-width="2.32"  transform="translate(15.1 26.1) rotate(299.4) scale(0.72 1.05)" />
<path d="M 75.1 42.8 C 85.1 28.0, 33.4 40.8, 37.2 44.8 C 55.5 59.9, 29.7 24.6, 31.4 32.9 C 29.7 24.4, 45.9 75.7, 54.0 68.4 C 69.7 59.6, 77.5 0.0, 64.2 1.5 C 46.2 19.9, 89.5 50.5, 78.3 40.1 C 71.5 21.8, 80.4 25.6, 69.6 21.1 C 81.6 4.6, 47.5 22.7, 42.2 36.0 C 44.5 31.5, 50.5 30.8, 52.0 30.6 Z" fill="hsl(242, 72%, 49%)" fill-opacity="0.97" stroke="none" stroke-width="3.56"  transform="translate(42.0 79.3) rotate(308.2) scale(0.67 1.82)" />
<circle cx="42.0" cy="86.4" r="6.4" fill="url(#g1)" fill-opacity="0.58" filter="url(#f1)" transform="translate(43.5 61.4) rotate(31.8) scale(1.64 0.60)" />
<path d="M 80.8 28.5 C 63.0 38.5, 27.7 33.5, 13.3 24.0 C 0.0 6.3, 81.3 45.2, 86.4 58.1 C 78.9 58.1, 34.9 92.5, 36.2 81.1 C 27.0 77.7, 35.5 100.0, 29.5 91.8 C 22.0 86.1, 74.7 77.3, 86.0 77.3 C 95.7 69.1, 20.3 65.9, 15.2 69.0 C 23.8 66.6, 15.1 22.6, 4.0 30.2 C 12.4 38.4, 19.0 84.2, 6.9 88.6 C 21.8 76.2, 8.6 18.3, 5.4 11.5 C 4.5 9.7, 9.1 86.3, 13.5 80.6 " fill="none" fill-opacity="0.35" stroke="hsl(40, 53%, 69%)" stroke-width="4.17"  transform="translate(1.2 93.2) rotate(123.7) scale(0.85 0.95)" />
<path d="M 88.2 55.9 C 73.6 59.6, 17.1 95.4, 19.0 82.1 C 15.6 83.4, 1.5 22.0, 6.6 14.5 C 26.4 20.4, 55.7 54.3, 55.5 47.5 C 48.3 61.9, 12.9 41.0, 23.0 50.4 C 14.7 30.8, 98.5 37.9, 90.6 39.5 C 79.7 51.1, 75.2 73.7, 88.1 64.2 C 99.9 57.8, 15.2 97.7, 25.8 91.8 C 37.9 100.0, 63.0 37.2, 70.9 49.4 C 65.9 32.0, 55.8 11.0, 41.4 17.3 Z" fill="none" fill-opacity="0.56" stroke="hsl(183, 71%, 60%)" stroke-width="2.30"  transform="translate(1.8 62.6) rotate(109.2) scale(0.54 1.34)" />
<circle cx="35.1" cy="67.3" r="3.3" fill="url(#g2)" fill-opacity="0.41"  transform="translate(82.8 95.4) rotate(254.6) scale(1.21 0.74)" />
<path d="M 49.3 17.2 C 57.6 36.5, 46.3 24.2, 43.5 13.9 C 36.0 33.6, 27.7 14.0, 14.3 2.5 C 0.0 0.0, 76.9 2.9, 66.7 11.7 C 61.9 0.0, 48.5 2.9, 42.5 12.1 C 36.2 8.7, 54.7 43.0, 69.2 45.5 C 55.5 38.4, 38.0 77.4, 40.1 73.9 C 52.6 78.4, 24.5 91.2, 12.8 76.9 C 16.5 90.4, 94.4 65.7, 89.0 65.5 C 100.0 56.8, 23.8 0.0, 22.2 2.6 Z" fill="none" fill-opacity="0.78" stroke="hsl(322, 74%, 44%)" stroke-width="1.19"  transform="translate(51.6 66.1) rotate(175.1) scale(0.80 1.05)" />
<path d="M 8.2 11.1 C 0.0 4.0, 74.9 66.6, 87.0 66.5 C 100.0 74.8, 26.7 0.9, 15.1 8.7 C 24.3 16.5, 64.8 100.0, 60.0 90.7 C 66.9 72.6, 84.1 91.8, 89.3 94.5 C 100.0 88.2, 46.3 7.3, 50.9 17.7 C 67.7 28.3, 0.0 0.0, 1.5 2.9 C 0.0 22.2, 77.9 77.8, 81.7 65.9 C 89.4 71.0, 89.2 57.0, 77.2 70.7 Z" fill="hsl(151, 70%, 62%)" fill-opacity="0.76" stroke="none" stroke-width="2.71"  transform="translate(85.5 27.5) rotate(4.6) scale(1.54 1.53)" />
<circle cx="5.1" cy="51.9" r="5.6" fill="url(#g2)" fill-opacity="0.57"  transform="translate(52.4 0.6) rotate(348.6) scale(1.58 0.78)" />
<rect x="18.8" y="31.7" width="29.9" height="11.9" rx="0" fill="hsl(104, 72%, 65%)" fill-opacity="0.59"  filter="url(#f1)" transform="translate(36.1 61.9) rotate(89.9) scale(1.68 0.90)" />
<path d="M 87.7 26.0 C 100.0 27.0, 49.6 0.0, 56.1 9.7 C 49.1 8.4, 100.0 62.4, 96.6 48.1 C 100.0 51.4, 13.0 56.2, 17.9 65.3 C 10.4 83.9, 75.2 63.3, 87.4 73.8 C 100.0 72.9, 18.9 41.0, 22.4 53.2 C 9.8 72.1, 100.0 91.6, 98.9 87.6 Z" fill="none" fill-opacity="0.43" stroke="hsl(40, 53%, 69%)" stroke-width="1.21"  transform="translate(98.0 11.3) rotate(294.7) scale(1.88 1.41)" />
<rect x="34.1" y="26.8" width="46.4" height="32.4" rx="0" fill="hsl(86, 72%, 68%)" fill-opacity="0.86" stroke="hsl(2, 82%, 55%)" stroke-width="1.1"   />
<path d="M 37.5 56.7 C 32.5 41.2, 20.6 11.9, 35.1 25.3 C 32.1 34.4, 36.5 81.8, 40.9 91.7 C 42.1 78.7, 79.8 39.8, 70.3 27.2 C 75.4 44.0, 0.2 95.3, 2.8 91.6 C 20.1 78.7, 37.8 32.4, 45.3 19.2 C 25.9 10.1, 100.0 52.8, 96.7 62.8 C 91.8 78.9, 89.6 63.6, 83.9 56.2 C 100.0 52.7, 85.1 22.6, 80.8 18.6 C 99.4 10.7, 62.7 25.7, 60.3 36.3 C 71.5 21.1, 81.6 63.8, 95.6 53.3 Z" fill="none" fill-opacity="0.88" stroke="hsl(2, 82%, 55%)" stroke-width="1.69"  transform="translate(78.9 68.9) rotate(118.8) scale(1.75 0.72)" />
<circle cx="69.1" cy="7.6" r="3.8" fill="url(#g1)" fill-opacity="0.75"  transform="translate(18.7 99.4) rotate(273.1) scale(0.81 0.95)" />
<circle cx="23.3" cy="5.8" r="6.6" fill="hsl(83, 65%, 44%)" fill-opacity="0.87"   />
<path d="M 92.9 23.6 C 100.0 7.0, 40.7 33.3, 30.1 33.5 C 37.6 47.9, 41.8 54.6, 54.7 43.6 C 65.1 46.7, 46.2 89.5, 59.5 78.7 C 57.6 63.9, 42.6 81.8, 40.7 78.8 C 54.2 78.2, 55.3 95.5, 45.8 81.8 C 31.0 89.3, 50.9 77.4, 36.6 84.4 Z" fill="none" fill-opacity="0.27" stroke="hsl(40, 53%, 69%)" stroke-width="5.24"  transform="translate(89.6 55.5) rotate(301.9) scale(1.06 1.07)" />
<path d="M 31.9 87.1 C 44.1 82.2, 20.7 9.4, 15.3 6.7 C 23.7 21.6, 55.3 100.0, 45.7 100.0 C 33.8 86.4, 87.9 31.1, 98.4 41.4 C 100.0 58.0, 53.2 40.6, 65.3 39.4 C 82.0 56.9, 73.1 61.3, 58.7 46.5 C 48.3 34.4, 57.6 0.0, 58.3 5.6 C 62.5 0.0, 68.0 19.4, 64.9 26.4 C 50.1 8.1, 80.3 48.0, 73.3 48.2 C 77.3 60.4, 70.4 52.7, 72.8 54.9 C 81.5 68.3, 84.6 0.0, 79.4 1.9 Z" fill="hsl(40, 53%, 69%)" fill-opacity="0.93" stroke="none" stroke-width="1.13"  transform="translate(16.9 57.9) rotate(276.6) scale(1.38 0.95)" />
<path d="M 29.1 97.0 C 36.0 91.1, 8.9 64.5, 19.7 51.5 C 22.1 69.7, 50.2 55.3, 35.6 68.0 C 20.4 87.0, 73.5 1.9, 79.7 8.5 C 80.5 6.7, 100.0 83.8, 93.2 95.7 C 97.8 94.1, 42.8 23.5, 38.1 31.9 C 41.2 42.1, 31.6 40.4, 33.1 43.4 C 27.4 46.7, 45.5 15.7, 42.5 0.9 C 24.4 0.0, 44.7 98.9, 32.0 93.3 " fill="hsl(86, 72%, 68%)" fill-opacity="0.60" stroke="none" stroke-width="2.75"   />
<circle cx="85.8" cy="72.6" r="6.3" fill="hsl(86, 72%, 68%)" fill-opacity="0.54"  transform="translate(28.9 67.9) rotate(279.6) scale(0.72 0.67)" />
<circle cx="62.2" cy="99.0" r="3.0" fill="url(#g1)" fill-opacity="0.64"  transform="translate(81.7 7.6) rotate(229.5) scale(1.78 0.57)" />
<rect x="50.6" y="14.1" width="47.0" height="20.3" rx="0" fill="hsl(40, 53%, 69%)" fill-opacity="0.25" stroke="hsl(151, 70%, 62%)" stroke-width="4.7"  transform="translate(56.0 76.6) rotate(139.4) scale(1.69 0.55)" />
<rect x="28.3" y="20.8" width="22.1" height="38.8" rx="14.6" fill="none" fill-opacity="0.85"   transform="translate(9.4 0.4) rotate(135.3) scale(1.02 1.26)" />
<path d="M 76.6 56.2 C 93.5 55.9, 81.2 80.7, 96.1 81.9 C 95.0 94.9, 9.4 46.3, 19.1 55.4 C 28.8 70.0, 40.7 0.2, 45.9 7.4 C 50.5 23.1, 7.8 58.5, 16.3 46.3 C 32.6 56.8, 4.6 32.2, 5.3 42.4 C 0.0 24.1, 81.6 72.8, 75.8 66.8 " fill="none" fill-opacity="0.68" stroke="hsl(290, 83%, 63%)" stroke-width="3.87"  transform="translate(45.6 48.0) rotate(127.5) scale(1.33 1.63)" />
<circle cx="40.9" cy="98.0" r="3.4" fill="url(#g2)" fill-opacity="0.69"  transform="translate(43.5 86.1) rotate(349.3) scale(1.49 1.27)" />
<path d="M 94.6 12.5 C 87.9 16.3, 33.0 20.3, 47.5 13.5 C 67.2 31.1, 61.3 89.9, 74.2 76.7 C 60.0 74.5, 100.0 57.3, 99.1 51.7 C 86.9 45.1, 10.5 29.3, 6.1 24.0 C 23.0 22.3, 60.7 23.5, 73.8 18.8 C 87.4 38.3, 91.0 40.3, 78.3 48.8 C 85.6 42.1, 24.7 30.0, 25.7 28.2 Z" fill="hsl(242, 72%, 49%)" fill-opacity="0.38" stroke="none" stroke-width="3.08"  transform="translate(87.4 71.0) rotate(109.3) scale(1.28 0.81)" />
<circle cx="95.7" cy="47.6" r="0.6" fill="hsl(144, 86%, 72%)" fill-opacity="0.74"  transform="translate(0.9 36.9) rotate(51.0) scale(0.56 1.44)" />
<rect x="3.3" y="16.4" width="44.7" height="37.7" rx="0" fill="hsl(104, 72%, 65%)" fill-opacity="0.97"  filter="url(#f1)"  />
<path d="M 98.0 5.2 C 94.1 0.0, 74.4 1.1, 83.0 15.3 C 93.1 0.0, 27.0 34.0, 20.6 40.0 C 7.2 23.0, 48.4 3.8, 62.7 12.6 C 71.7 11.0, 23.7 57.1, 10.2 60.7 C 0.0 66.7, 0.0 77.0, 9.7 80.6 C 27.1 62.4, 40.2 88.5, 25.9 99.6 C 20.0 85.9, 37.8 3.5, 31.5 0.1 C 32.1 13.8, 35.9 24.1, 31.2 24.8 C 41.5 35.2, 97.9 97.1, 96.3 90.7 C 85.4 82.4, 44.9 100.0, 56.0 95.2 Z" fill="hsl(183, 71%, 60%)" fill-opacity="0.61" stroke="none" stroke-width="4.20"  transform="translate(29.5 78.1) rotate(302.7) scale(1.66 1.64)" />
<circle cx="63.3" cy="39.1" r="13.2" fill="hsl(2, 82%, 55%)" fill-opacity="0.68"  transform="translate(61.2 20.1) rotate(244.6) scale(1.29 1.08)" />
<rect x="20.9" y="60.5" width="36.6" height="38.9" rx="3.5" fill="none" fill-opacity="0.46" stroke="hsl(86, 72%, 68%)" stroke-width="3.1"  transform="translate(30.7 64.7) rotate(183.3) scale(1.69 1.32)" />
<path d="M 40.5 57.9 C 44.4 58.0, 25.9 69.4, 35.6 75.0 C 43.3 85.8, 85.8 91.0, 81.7 94.1 C 79.7 100.0, 7.0 68.2, 17.8 78.8 C 29.6 83.6, 60.4 78.7, 64.4 91.9 C 80.5 89.8, 94.7 7.1, 98.7 21.9 C 99.1 22.5, 68.9 8.8, 63.6 0.2 C 66.4 3.5, 15.3 15.8, 18.6 10.9 Z" fill="none" fill-opacity="0.54" stroke="hsl(151, 70%, 62%)" stroke-width="2.75"  transform="translate(91.1 83.5) rotate(228.3) scale(1.63 1.64)" />
<circle cx="9.8" cy="99.7" r="2.9" fill="url(#g1)" fill-opacity="0.40"  transform="translate(41.8 51.8) rotate(100.5) scale(1.33 0.52)" />
<path d="M 88.8 29.7 C 87.3 27.5, 52.0 87.2, 53.8 94.6 C 37.4 75.0, 82.4 54.5, 80.8 55.9 C 96.7 45.3, 21.7 81.1, 13.7 69.8 C 21.8 76.6, 16.8 86.4, 22.9 79.8 C 4.9 87.9, 28.2 40.3, 36.2 35.5 C 43.0 22.9, 58.5 56.4, 56.1 59.2 Z" fill="none" fill-opacity="0.44" stroke="hsl(83, 65%, 44%)" stroke-width="3.71"  transform="translate(97.3 35.8) rotate(206.5) scale(1.46 0.64)" />
<g opacity="0.039">
<rect x="0" y="0" width="1" height="100" fill="black" />
<rect x="22" y="0" width="1" height="100" fill="black" />
<rect x="44" y="0" width="1" height="100" fill="black" />
<rect x="66" y="0" width="1" height="100" fill="black" />
<rect x="88" y="0" width="1" height="100" fill="black" />
<rect x="0" y="0" width="100" height="1" fill="black" />
<rect x="0" y="22" width="100" height="1" fill="black" />
<rect x="0" y="44" width="100" height="1" fill="black" />
<rect x="0" y="66" width="100" height="1" fill="black" />
<rect x="0" y="88" width="100" height="1" fill="black" />
</g>

</svg>
