<?xml version="1.0" encoding="UTF-8"?>
<svg xmlns="http://www.w3.org/2000/svg" width="100" height="100" viewBox="0 0 100 100">
<defs>
<linearGradient id="g0" x1="0%" y1="0%" x2="100%" y2="100%">
<stop offset="0.0%" stop-color="hsl(106, 75%, 59%)" />
<stop offset="33.3%" stop-color="hsl(183, 71%, 60%)" />
<stop offset="66.7%" stop-color="hsl(242, 72%, 49%)" />
<stop offset="100.0%" stop-color="hsl(322, 74%, 44%)" />
</linearGradient>
<linearGradient id="g1" x1="0%" y1="0%" x2="100%" y2="100%">
<stop offset="0.0%" stop-color="hsl(290, 83%, 63%)" />
<stop offset="33.3%" stop-color="hsl(2, 82%, 55%)" />
<stop offset="66.7%" stop-color="hsl(86, 72%, 68%)" />
<stop offset="100.0%" stop-color="hsl(83, 65%, 44%)" />
</linearGradient>
<linearGradient id="g2" x1="0%" y1="0%" x2="100%" y2="100%">
<stop offset="0.0%" stop-color="hsl(40, 53%, 69%)" />
<stop offset="33.3%" stop-color="hsl(104, 72%, 65%)" />
<stop offset="66.7%" stop-color="hsl(144, 86%, 72%)" />
<stop offset="100.0%" stop-color="hsl(151, 70%, 62%)" />
</linearGradient>
<filter id="f1" x="-20%" y="-20%" width="140%" height="140%">
  <feGaussianBlur stdDeviation="1.1271838854634175" />
</filter>

</defs>

<path d="M 25.0 42.5 C 42.9 48.2, 0.8 2.4, 3.0 17.0 C 14.8 2.6, 41.4 69.3, 32.2 82.0 C 38.0 71.9, 45.4 100.0, 53.7 88.2 C 71.8 96.7, 96.6 94.6, 96.1 89.5 C 100.0 81.2, 91.5 10.7, 91.4 8.4 C 84.1 19.8, 0.0 1.8, 11.3 6.7 C 28.0 0.0, 100.0 74.2, 94.0 71.0 C 84.9 77.2, 85.0 38.0, 87.6 33.4 Z" fill="none" fill-opacity="0.81" stroke="hsl(2, 82%, 55%)" stroke-width="5.14"  transform="translate(71.1 12.2) rotate(176.4) scale(1.70 1.76)" />
<path d="M 82.8 1.9 C 68.9 20.3, 39.7 22.2, 29.5 13.6 C 39.1 10.9, 34.3 32.1, 20.3 26.1 C 29.5 37.4, 73.9 60.9, 74.0 74.2 C 72.9 67.3, 45.2 0.0, 56.6 8.5 C 40.8 18.8, 4.1 60.9, 8.5 68.7 C 14.4 50.6, 53.1 25.4, 67.5 29.9 C 53.3 17.7, 54.1 89.7, 43.8 93.4 C 32.6 100.0, 100.0 53.7, 94.0 51.0 C 100.0 40.0, 68.8 53.7, 65.1 65.1 C 76.1 69.0, 3.0 62.1, 16.9 75.3 Z" fill="hsl(83, 65%, 44%)" fill-opacity="0.35" stroke="none" stroke-width="3.24"  transform="translate(2.2 85.3) rotate(273.8) scale(1.33 0.89)" />
<path d="M 96.2 6.1 C 100.0 0.0, 86.2 34.1, 78.7 21.7 C 82.8 13.1, 34.8 32.7, 21.3 38.4 C 30.1 44.9, 63.2 41.1, 73.8 52.0 C 68.6 64.8, 72.9 39.8, 59.8 33.1 C 48.6 51.1, 100.0 93.9, 99.3 85.8 C 100.0 94.3, 56.9 9.1, 70.7 16.5 " fill="none" fill-opacity="0.41" stroke="hsl(106, 75%, 59%)" stroke-width="1.23" filter="url(#f1)" transform="translate(28.1 39.2) rotate(354.9) scale(0.77 0.72)" />
<rect x="24.9" y="43.7" width="44.9" height="15.3" rx="16.7" fill="hsl(106, 75%, 59%)" fill-opacity="0.74" stroke="hsl(183, 71%, 60%)" stroke-width="2.8"  transform="translate(17.1 56.8) rotate(272.6) scale(0.53 1.52)" />
<rect x="50.3" y="42.4" width="22.6" height="13.8" rx="0" fill="none" fill-opacity="0.35"   transform="translate(33.0 56.7) rotate(5.3) scale(1.83 0.56)" />
<path d="M 96.3 29.2 C 93.0 41.1, 63.0 13.0, 57.2 14.6 C 65.2 10.6, 20.2 5.6, 27.3 4.2 C 46.1 17.7, 91.9 81.2, 97.6 83.6 C 100.0 73.3, 100.0 21.1, 99.0 28.1 C 95.8 16.5, 38.9 85.8, 46.0 80.0 C 47.1 88.6, 100.0 72.2, 97.1 71.0 C 100.0 84.4, 63.0 62.3, 48.9 53.7 C 53.6 56.4, 83.2 89.3, 79.8 94.9 C 96.2 100.0, 11.3 71.5, 20.4 80.9 Z" fill="none" fill-opacity="0.75" stroke="hsl(242, 72%, 49%)" stroke-width="4.54"  transform="translate(78.2 17.6) rotate(172.2) scale(0.84 0.74)" />
<path d="M 63.2 30.8 C 56.5 43.1, 71.7 30.6, 58.9 30.5 C 65.3 32.4, 95.6 67.2, 83.2 67.6 C 72.0 51.1, 37.7 67.3, 26.8 58.0 C 34.1 50.8, 37.6 59.9, 49.2 67.9 C 47.2 86.8, 27.2 69.7, 23.7 83.6 C 28.1 87.1, 33.3 82.9, 30.1 67.9 C 22.7 67.5, 11.6 32.2, 5.1 46.7 Z" fill="hsl(242, 72%, 49%)" fill-opacity="0.29" stroke="none" stroke-width="4.14"  transform="translate(40.0 14.3) rotate(6.3) scale(0.54 0.62)" />
<path d="M 72.3 55.3 C 65.7 74.5, 28.2 6.4, 38.4 5.6 C 48.9 0.0, 47.2 22.1, 57.9 18.6 C 66.7 19.4, 83.5 10.8, 74.0 22.5 C 85.0 35.6, 52.2 27.8, 51.6 20.3 C 58.9 23.0, 52.4 63.6, 54.8 55.0 C 67.2 47.1, 81.2 72.3, 91.0 77.1 C 94.6 71.4, 3.8 100.0, 10.1 94.5 C 20.7 100.0, 86.4 12.6, 73.5 21.6 C 57.2 16.0, 20.2 29.9, 27.3 18.5 " fill="hsl(86, 72%, 68%)" fill-opacity="0.79" stroke="none" stroke-width="4.86"  transform="translate(7.9 82.3) rotate(209.0) scale(0.63 1.91)" />
<rect x="60.5" y="33.4" width="35.1" height="16.8" rx="0" fill="hsl(290, 83%, 63%)" fill-opacity="0.60" stroke="hsl(290, 83%, 63%)" stroke-width="4.7"   />
<path d="M 11.1 26.4 C 26.7 32.4, 30.4 50.3, 20.9 42.4 C 5.3 60.4, 26.7 16.0, 21.5 4.3 C 4.9 16.7, 61.0 68.3, 56.1 64.9 C 68.0 77.3, 74.8 60.4, 61.5 52.2 C 66.7 61.0, 56.9 67.2, 65.6 61.1 C 66.2 60.5, 15.7 100.0, 26.4 97.6 Z" fill="hsl(83, 65%, 44%)" fill-opacity="0.60" stroke="none" stroke-width="2.38"  transform="translate(41.8 55.1) rotate(133.0) scale(0.66 1.33)" />
<path d="M 38.0 58.4 C 29.1 75.3, 43.9 20.3, 31.0 34.4 C 22.2 24.6, 23.2 72.4, 30.4 86.5 C 20.8 74.6, 86.3 75.7, 95.2 66.5 C 100.0 62.3, 83.8 9.2, 85.0 23.8 C 100.0 21.5, 36.7 65.3, 27.5 79.3 C 17.2 63.1, 86.6 24.6, 78.5 13.3 C 82.2 20.0, 65.4 39.4, 71.9 35.1 C 53.2 41.2, 92.3 37.3, 89.2 38.9 C 100.0 32.1, 20.6 72.4, 30.5 68.4 C 14.6 65.0, 43.3 78.5, 54.1 84.7 Z" fill="none" fill-opacity="0.59" stroke="hsl(83, 65%, 44%)" stroke-width="3.63" filter="url(#f1)" transform="translate(99.5 67.0) rotate(336.0) scale(0.98 0.79)" />
<rect x="22.2" y="22.3" width="24.9" height="24.7" rx="0" fill="hsl(2, 82%, 55%)" fill-opacity="0.49" stroke="hsl(86, 72%, 68%)" stroke-width="4.9"  transform="translate(47.2 38.4) rotate(7.9) scale(1.35 1.57)" />
<circle cx="32.5" cy="77.6" r="0.5" fill="hsl(183, 71%, 60%)" fill-opacity="0.74"   />
<circle cx="90.4" cy="69.6" r="7.5" fill="hsl(183, 71%, 60%)" fill-opacity="0.89"  transform="translate(35.2 14.4) rotate(96.1) scale(0.88 1.02)" />
<rect x="19.7" y="40.0" width="46.9" height="37.1" rx="15.8" fill="none" fill-opacity="0.79"   transform="translate(26.0 84.6) rotate(253.6) scale(1.72 1.15)" />
<path d="M 74.8 97.2 C 90.3 100.0, 63.2 92.3, 69.5 93.3 C 81.9 82.6, 4.8 64.9, 15.4 54.2 C 5.8 65.6, 12.6 42.7, 25.8 51.0 C 31.2 56.2, 39.4 82.9, 27.3 80.7 C 24.2 90.3, 16.3 93.7, 22.6 90.2 C 10.6 84.0, 67.4 42.1, 66.4 50.1 C 48.6 69.7, 93.7 10.9, 92.9 25.3 " fill="hsl(151, 70%, 62%)" fill-opacity="0.39" stroke="none" stroke-width="2.20"   />
<rect x="16.8" y="49.8" width="31.8" height="36.3" rx="10.0" fill="hsl(40, 53%, 69%)" fill-opacity="0.61"   transform="translate(52.6 68.6) rotate(235.4) scale(0.95 1.29)" />
<path d="M 88.5 83.0 C 80.2 89.8, 53.5 7.7, 45.4 14.3 C 49.6 5.9, 35.8 56.0, 37.7 51.7 C 22.6 37.8, 59.0 53.3, 45.1 48.6 C 51.9 63.5, 84.9 92.6, 78.7 85.9 C 81.8 78.9, 23.7 86.9, 11.2 73.1 C 4.8 78.1, 21.5 10.6, 6.9 22.2 C 5.4 22.4, 18.8 74.6, 4.4 69.8 C 3.8 78.3, 83.9 54.2, 82.2 66.3 C 75.7 84.1, 34.7 43.0, 32.6 49.5 Z" fill="none" fill-opacity="0.69" stroke="hsl(322, 74%, 44%)" stroke-width="2.21" filter="url(#f1)" transform="translate(55.2 94.8) rotate(122.5) scale(0.55 0.95)" />
<rect x="52.8" y="53.6" width="28.8" height="20.8" rx="9.3" fill="hsl(104, 72%, 65%)" fill-opacity="0.66" stroke="hsl(40, 53%, 69%)" stroke-width="4.7"  transform="translate(52.0 2.8) rotate(291.2) scale(1.27 1.97)" />
<path d="M 16.9 64.9 C 18.3 62.8, 21.4 60.4, 9.1 57.0 C 18.8 68.5, 94.0 57.0, 93.0 55.3 C 77.3 39.6, 58.7 12.5, 70.9 21.0 C 89.1 22.5, 65.4 47.9, 71.4 49.8 C 54.9 43.0, 3.9 12.5, 4.8 13.1 C 0.0 10.4, 88.8 83.4, 86.9 97.3 C 86.8 96.3, 0.0 100.0, 10.5 97.4 Z" fill="none" fill-opacity="0.75" stroke="hsl(144, 86%, 72%)" stroke-width="2.07"  transform="translate(74.3 94.1) rotate(65.1) scale(1.70 1.90)" />
<path d="M 34.3 15.7 C 38.5 30.0, 36.5 9.4, 24.5 4.2 C 24.1 12.5, 64.0 88.4, 64.3 83.3 C 69.5 76.6, 57.7 80.0, 58.2 76.5 C 71.0 76.4, 78.0 69.1, 87.4 60.8 C 83.7 71.8, 11.3 29.9, 22.5 15.7 C 6.5 21.8, 79.3 69.7, 88.0 83.1 C 100.0 98.3, 45.8 65.2, 46.0 61.1 C 41.0 55.2, 70.8 87.2, 72.4 89.1 Z" fill="hsl(106, 75%, 59%)" fill-opacity="0.25" stroke="none" stroke-width="2.83"  transform="translate(8.2 67.4) rotate(331.7) scale(1.69 1.87)" />
<rect x="36.6" y="57.2" width="48.6" height="19.0" rx="0.7" fill="none" fill-opacity="0.87"   transform="translate(47.5 44.7) rotate(292.6) scale(0.53 0.96)" />
<circle cx="74.1" cy="25.5" r="5.6" fill="url(#g0)" fill-opacity="0.63"   />
<rect x="50.0" y="21.6" width="48.8" height="28.8" rx="1.8" fill="hsl(106, 75%, 59%)" fill-opacity="0.97" stroke="hsl(242, 72%, 49%)" stroke-width="3.9" filter="url(#f1)" transform="translate(84.1 7.5) rotate(298.3) scale(1.24 1.16)" />
<path d="M 86.6 20.3 C 93.5 38.9, 60.3 100.0, 56.8 97.7 C 70.4 95.5, 79.7 89.1, 93.0 76.2 C 100.0 62.1, 83.5 12.6, 89.9 16.1 C 80.2 5.8, 56.1 78.5, 49.6 88.7 C 30.4 78.0, 40.1 0.0, 35.5 0.3 C 35.1 0.0, 39.6 52.6, 32.5 44.1 C 12.8 35.0, 56.9 19.0, 60.8 27.1 C 77.4 11.6, 53.5 79.2, 61.8 86.3 " fill="hsl(104, 72%, 65%)" fill-opacity="0.65" stroke="none" stroke-width="1.91"  transform="translate(13.8 72.1) rotate(22.5) scale(0.91 1.06)" />
<path d="M 57.9 14.4 C 67.5 14.4, 91.5 85.1, 98.4 76.0 C 100.0 82.7, 65.6 31.2, 64.5 31.4 C 59.7 12.1, 34.4 58.3, 44.0 51.6 C 26.3 52.2, 41.1 93.5, 53.2 97.7 C 37.4 98.3, 19.4 30.8, 25.7 24.4 C 39.0 24.9, 0.4 58.8, 10.9 65.7 C 19.9 82.8, 36.9 91.6, 44.2 82.9 Z" fill="none" fill-opacity="0.64" stroke="hsl(290, 83%, 63%)" stroke-width="4.65"  transform="translate(29.8 31.7) rotate(91.8) scale(1.83 0.74)" />
<path d="M 43.2 30.0 C 46.2 44.5, 29.3 20.2, 42.5 31.6 C 46.1 24.8, 63.0 99.0, 66.4 92.1 C 51.5 100.0, 88.4 62.3, 99.9 59.2 C 100.0 76.6, 90.6 54.5, 82.8 53.8 C 79.0 47.4, 23.3 67.0, 9.5 81.0 C 17.3 78.5, 46.7 75.1, 54.8 74.0 C 37.0 63.4, 63.3 29.9, 69.4 41.1 C 89.1 58.9, 0.6 0.3, 0.3 6.9 C 10.7 0.0, 97.5 51.3, 86.3 58.8 Z" fill="hsl(104, 72%, 65%)" fill-opacity="0.34" stroke="none" stroke-width="0.82"  transform="translate(81.7 22.4) rotate(180.7) scale(1.80 0.71)" />
<path d="M 3.4 32.3 C 11.1 16.8, 63.0 75.6, 56.6 64.1 C 49.1 52.5, 43.2 11.5, 36.8 4.6 C 28.3 0.0, 61.1 4.4, 55.7 0.4 C 42.3 7.8, 43.8 56.9, 33.4 45.7 C 25.8 35.7, 74.5 75.7, 66.8 62.5 C 54.6 49.4, 90.3 20.6, 84.0 17.2 C 78.8 11.4, 31.3 73.6, 19.0 64.3 " fill="hsl(40, 53%, 69%)" fill-opacity="0.68" stroke="none" stroke-width="2.96"  transform="translate(10.8 14.1) rotate(65.4) scale(1.82 0.68)" />
<path d="M 40.5 42.8 C 50.4 60.6, 72.7 11.1, 58.6 20.2 C 59.6 1.7, 70.6 52.2, 69.3 37.7 C 58.1 30.4, 49.0 61.0, 47.0 59.3 C 63.8 55.4, 57.0 76.7, 42.8 83.4 C 29.7 87.8, 0.0 23.2, 5.9 30.0 C 25.8 36.5, 96.1 62.6, 98.6 62.3 Z" fill="none" fill-opacity="0.39" stroke="hsl(106, 75%, 59%)" stroke-width="2.67"   />
<path d="M 19.8 29.2 C 13.8 43.6, 28.7 65.5, 26.6 69.5 C 9.4 72.8, 53.5 19.0, 68.0 29.1 C 78.7 16.6, 68.4 15.2, 67.9 9.6 C 76.4 0.0, 30.3 29.7, 33.4 18.7 C 26.1 29.2, 40.3 8.5, 32.7 12.4 C 13.2 13.9, 3.0 35.9, 3.3 41.4 C 10.3 45.2, 81.6 95.7, 69.6 89.4 Z" fill="hsl(144, 86%, 72%)" fill-opacity="0.38" stroke="none" stroke-width="3.20"  transform="translate(95.6 40.6) rotate(183.9) scale(0.84 0.59)" />
<path d="M 83.0 60.9 C 77.4 42.0, 73.2 18.0, 67.3 6.5 C 59.3 8.8, 36.1 29.4, 43.0 23.7 C 56.0 41.4, 88.0 90.6, 75.0 81.0 C 82.3 71.2, 10.6 4.5, 6.9 12.1 C 0.0 26.0, 67.0 2.4, 62.8 9.2 C 61.0 24.8, 33.9 81.4, 45.3 87.1 C 57.8 98.5, 35.5 18.7, 29.9 27.6 C 30.9 9.5, 55.2 5.4, 61.0 7.9 C 63.3 7.4, 44.6 81.1, 39.0 81.3 Z" fill="hsl(290, 83%, 63%)" fill-opacity="0.32" stroke="none" stroke-width="1.60" filter="url(#f1)" transform="translate(34.0 19.8) rotate(189.1) scale(0.83 1.76)" />
<path d="M 61.0 72.5 C 67.1 87.9, 0.0 93.1, 0.3 86.2 C 18.4 100.0, 86.0 55.2, 83.0 65.4 C 72.3 73.3, 50.2 31.1, 49.5 17.1 C 43.5 8.7, 91.8 14.9, 82.8 4.4 C 91.9 5.2, 44.8 85.6, 39.4 82.6 C 36.5 83.7, 55.8 17.6, 66.3 7.6 C 72.8 13.3, 45.2 59.1, 48.1 47.9 C 31.7 46.3, 84.7 57.9, 75.7 45.6 Z" fill="hsl(106, 75%, 59%)" fill-opacity="0.64" stroke="none" stroke-width="4.29"  transform="translate(21.1 63.3) rotate(9.1) scale(1.63 1.10)" />
<rect x="7.7" y="14.7" width="48.0" height="27.2" rx="14.3" fill="none" fill-opacity="0.40"   transform="translate(79.4 18.6) rotate(188.8) scale(1.58 1.07)" />
<circle cx="84.6" cy="14.1" r="3.9" fill="hsl(86, 72%, 68%)" fill-opacity="0.53"  transform="translate(41.6 4.2) rotate(209.7) scale(1.01 1.77)" />
<rect x="20.3" y="32.5" width="47.3" height="37.8" rx="4.0" fill="hsl(151, 70%, 62%)" fill-opacity="0.70"  filter="url(#f1)" transform="translate(36.0 27.5) rotate(343.3) scale(1.42 0.60)" />
<circle cx="9.9" cy="96.0" r="0.1" fill="hsl(290, 83%, 63%)" fill-opacity="0.51"   />
<rect x="45.5" y="42.0" width="28.7" height="26.3" rx="12.3" fill="none" fill-opacity="0.60" stroke="hsl(151, 70%, 62%)" stroke-width="4.6"  transform="translate(89.7 93.5) rotate(191.6) scale(1.18 1.73)" />
<path d="M 72.3 53.1 C 60.7 40.4, 5.4 66.9, 0.1 65.4 C 17.2 45.9, 64.9 41.3, 57.8 29.0 C 60.5 21.1, 9.1 44.9, 22.2 43.3 C 14.9 60.9, 99.2 66.3, 89.6 70.8 C 84.4 82.2, 81.1 100.0, 85.2 98.1 C 98.7 78.8, 2.8 0.0, 5.6 14.0 C 14.3 0.0, 51.5 22.2, 62.4 12.5 C 67.1 9.8, 93.6 36.9, 94.6 28.7 C 75.4 39.6, 37.4 60.9, 27.8 73.4 " fill="hsl(144, 86%, 72%)" fill-opacity="0.90" stroke="none" stroke-width="4.52"  transform="translate(78.6 95.2) rotate(221.0) scale(1.40 1.81)" />
<rect x="39.7" y="15.6" width="45.0" height="36.9" rx="0" fill="hsl(290, 83%, 63%)" fill-opacity="0.84"   transform="translate(57.4 81.5) rotate(228.7) scale(1.09 1.33)" />
<rect x="28.1" y="15.9" width="33.0" height="23.9" rx="8.7" fill="none" fill-opacity="0.35"  filter="url(#f1)" transform="translate(10.7 18.7) rotate(291.4) scale(1.16 0.82)" />
<path d="M 26.7 78.3 C 12.2 82.9, 65.1 0.0, 62.4 6.6 C 71.4 0.0, 69.0 52.3, 68.6 47.3 C 56.3 40.4, 48.7 64.3, 45.7 62.1 C 59.0 61.8, 84.9 0.0, 78.7 5.3 C 90.7 18.8, 12.4 71.9, 27.3 71.4 C 43.5 89.5, 0.0 8.2, 7.1 20.8 Z" fill="hsl(86, 72%, 68%)" fill-opacity="0.47" stroke="none" stroke-width="2.41"  transform="translate(18.4 10.0) rotate(111.6) scale(1.13 1.65)" />
<path d="M 37.7 1.3 C 25.9 1.2, 15.9 21.3, 24.1 25.5 C 17.1 38.0, 67.6 69.9, 77.2 58.9 C 59.2 74.4, 24.4 88.9, 20.0 76.4 C 33.0 78.6, 76.2 99.7, 67.2 87.6 C 49.6 81.7, 61.1 29.0, 67.1 14.8 C 76.8 33.2, 28.3 22.5, 40.4 20.4 C 57.5 1.4, 46.7 74.5, 43.4 74.5 C 36.9 67.6, 66.2 96.4, 69.7 98.4 C 73.0 100.0, 12.7 0.0, 7.6 9.7 Z" fill="hsl(151, 70%, 62%)" fill-opacity="0.72" stroke="none" stroke-width="4.78"  transform="translate(94.4 64.3) rotate(156.9) scale(0.83 1.74)" />
<rect x="54.6" y="30.1" width="37.8" height="23.8" rx="18.6" fill="none" fill-opacity="0.88"   transform="translate(7.3 67.8) rotate(126.7) scale(1.22 0.97)" />
<path d="M 13.4 88.3 C 0.0 94.1, 60.4 6.1, 66.2 4.9 C 69.1 11.1, 58.6 60.3, 69.0 69.7 C 72.4 71.1, 79.6 28.3, 76.0 39.0 C 62.8 27.5, 5.4 54.1, 13.7 39.9 C 29.3 40.8, 74.0 91.5, 64.5 91.9 C 54.7 82.9, 20.0 67.5, 8.5 80.2 C 20.9 70.1, 93.2 72.0, 78.5 80.3 Z" fill="none" fill-opacity="0.83" stroke="hsl(144, 86%, 72%)" stroke-width="2.64"  transform="translate(46.4 64.3) rotate(119.5) scale(1.94 1.18)" />
<path d="M 78.5 93.4 C 70.2 97.9, 6.2 1.3, 18.2 16.0 C 10.1 5.3, 45.9 93.0, 45.6 87.7 C 38.7 92.1, 22.1 60.5, 14.2 54.8 C 2.1 55.4, 16.1 55.1, 14.3 51.6 C 0.0 53.1, 84.6 94.6, 81.7 91.5 C 92.8 85.1, 73.0 62.6, 63.7 55.3 Z" fill="hsl(106, 75%, 59%)" fill-opacity="0.36" stroke="none" stroke-width="3.74" filter="url(#f1)" transform="translate(16.9 6.5) rotate(222.8) scale(1.36 1.29)" />
<path d="M 10.0 25.6 C 23.3 29.2, 49.3 51.6, 58.8 66.0 C 77.9 84.5, 18.4 53.7, 26.7 61.9 C 26.1 71.7, 74.2 0.0, 64.7 6.1 C 71.3 23.2, 100.0 65.2, 88.1 51.8 C 87.4 40.9, 75.8 55.6, 84.0 45.1 C 93.7 64.8, 2.0 76.8, 8.9 62.0 C 0.0 51.5, 34.2 6.4, 33.8 8.1 C 34.0 19.7, 17.2 38.9, 2.4 26.0 C 15.4 10.3, 4.7 23.6, 10.6 13.9 Z" fill="hsl(40, 53%, 69%)" fill-opacity="0.30" stroke="none" stroke-width="3.15"   />
<path d="M 85.0 92.4 C 85.5 94.5, 0.0 93.3, 3.5 93.3 C 0.0 84.7, 7.8 10.7, 21.6 24.0 C 24.7 9.8, 2.9 50.6, 2.1 45.7 C 11.4 42.5, 91.8 96.5, 92.6 97.1 C 100.0 77.5, 40.7 10.9, 26.1 0.8 C 37.6 17.9, 56.3 33.6, 46.9 35.7 C 44.8 16.2, 44.7 88.5, 42.3 90.5 C 31.3 74.8, 64.9 19.5, 50.2 31.1 C 41.8 40.6, 48.8 100.0, 61.0 96.4 C 69.6 99.3, 90.8 37.8, 96.1 41.6 Z" fill="none" fill-opacity="0.89" stroke="hsl(322, 74%, 44%)" stroke-width="1.76"  transform="translate(11.6 6.6) rotate(27.0) scale(1.22 1.54)" />
<path d="M 22.6 84.5 C 39.2 69.3, 100.0 68.0, 99.0 54.5 C 92.1 63.3, 47.2 70.6, 38.2 84.9 C 39.5 78.7, 5.8 67.0, 10.7 77.6 C 14.7 95.5, 44.1 42.4, 53.0 36.4 C 50.9 18.1, 60.8 14.6, 69.5 17.7 C 61.2 29.6, 84.6 86.2, 87.2 81.3 C 100.0 74.7, 30.3 27.3, 18.4 26.0 C 3.7 36.9, 41.9 38.7, 36.7 37.5 C 19.5 48.0, 31.8 43.2, 38.1 57.6 C 26.6 69.4, 80.2 67.0, 86.1 71.8 Z" fill="hsl(242, 72%, 49%)" fill-opacity="0.72" stroke="none" stroke-width="1.77"  transform="translate(17.8 46.0) rotate(337.1) scale(1.41 1.65)" />
<rect x="38.2" y="28.7" width="27.2" height="29.5" rx="9.3" fill="hsl(144, 86%, 72%)" fill-opacity="0.52"    />
<path d="M 30.0 42.0 C 32.1 33.6, 13.4 51.6, 7.8 46.5 C 0.9 47.1, 30.7 100.0, 43.1 87.6 C 33.1 100.0, 0.0 34.4, 3.8 28.7 C 16.2 44.6, 65.4 36.4, 58.9 22.9 C 65.6 25.2, 64.3 50.4, 67.2 61.7 C 53.5 59.9, 18.0 79.3, 30.4 65.9 Z" fill="hsl(40, 53%, 69%)" fill-opacity="0.25" stroke="none" stroke-width="1.37"  transform="translate(60.0 37.7) rotate(165.5) scale(1.65 1.29)" />
<path d="M 31.9 34.9 C 28.8 42.7, 56.3 35.9, 51.6 39.7 C 46.0 35.4, 74.2 24.0, 88.8 27.3 C 80.4 42.8, 13.9 10.4, 17.0 8.3 C 36.8 13.8, 33.5 58.2, 37.3 60.0 C 52.8 59.3, 46.8 62.6, 46.5 74.9 C 48.8 73.5, 56.4 42.0, 62.2 40.1 C 73.8 46.9, 34.5 26.8, 20.3 23.5 C 4.8 14.5, 27.1 0.0, 38.4 2.8 C 52.0 1.0, 18.3 89.5, 14.1 93.4 C 29.7 89.0, 17.8 92.1, 3.2 79.6 " fill="none" fill-opacity="0.50" stroke="hsl(144, 86%, 72%)" stroke-width="3.35"  transform="translate(40.3 18.9) rotate(300.4) scale(0.85 1.86)" />
<path d="M 32.0 10.3 C 15.5 0.0, 63.2 80.5, 77.0 71.6 C 94.5 60.7, 32.2 37.3, 19.5 41.9 C 11.9 25.0, 30.1 17.4, 39.2 2.9 C 44.0 0.0, 28.8 52.3, 32.0 67.0 C 45.1 60.8, 56.0 60.6, 47.7 74.7 C 40.5 69.8, 18.9 79.0, 29.4 71.6 C 25.9 86.7, 6.1 47.7, 4.4 35.1 C 0.0 44.7, 28.8 0.0, 43.6 8.6 C 52.5 0.0, 45.4 18.6, 35.9 15.5 C 40.5 8.2, 57.1 0.2, 69.8 10.1 Z" fill="hsl(86, 72%, 68%)" fill-opacity="0.43" stroke="none" stroke-width="3.44" filter="url(#f1)" transform="translate(17.5 79.4) rotate(122.7) scale(1.60 1.55)" />
<path d="M 20.1 79.6 C 33.9 79.2, 67.0 78.6, 66.8 68.9 C 65.3 84.9, 43.1 80.0, 43.8 79.7 C 52.5 65.5, 56.8 74.1, 57.1 71.6 C 51.7 75.4, 34.0 100.0, 47.4 90.4 C 28.7 95.4, 96.4 0.0, 96.3 3.5 C 100.0 0.0, 0.0 64.1, 0.8 53.3 Z" fill="hsl(242, 72%, 49%)" fill-opacity="0.42" stroke="none" stroke-width="4.20"  transform="translate(23.9 20.8) rotate(296.6) scale(1.00 0.82)" />
<path d="M 2.2 3.0 C 17.0 14.2, 79.4 12.4, 70.4 17.6 C 52.9 3.6, 11.7 90.6, 13.1 99.3 C 17.5 100.0, 55.0 35.4, 65.3 42.2 C 71.4 53.9, 57.0 30.4, 59.8 21.0 C 75.0 32.5, 92.9 31.6, 78.0 26.3 C 87.3 29.2, 47.8 36.1, 52.3 37.3 C 50.8 35.6, 22.2 72.2, 11.6 81.3 C 0.0 87.7, 64.1 15.6, 71.0 28.8 C 88.7 12.2, 0.0 46.4, 0.8 59.2 Z" fill="hsl(322, 74%, 44%)" fill-opacity="0.46" stroke="none" stroke-width="1.98"  transform="translate(8.6 64.5) rotate(134.4) scale(0.51 1.99)" />
<path d="M 97.5 62.9 C 100.0 58.8, 1.1 53.9, 2.9 59.9 C 13.0 47.5, 22.4 75.5, 35.1 87.2 C 17.8 68.4, 0.0 29.5, 5.3 20.2 C 0.0 28.6, 63.4 68.1, 65.7 57.0 C 53.0 62.0, 51.3 6.6, 49.5 3.8 C 33.8 0.0, 23.0 0.0, 14.7 4.0 Z" fill="hsl(86, 72%, 68%)" fill-opacity="1.00" stroke="none" stroke-width="4.31"  transform="translate(9.5 17.9) rotate(354.0) scale(1.65 1.97)" />
<path d="M 3.6 58.5 C 0.2 65.8, 56.7 67.1, 70.8 77.6 C 68.2 87.5, 94.4 47.6, 90.5 56.7 C 78.0 73.4, 53.8 45.3, 51.3 51.2 C 54.3 50.8, 83.6 87.9, 86.2 83.9 C 93.7 72.6, 23.3 83.1, 37.6 87.1 C 20.3 85.1, 48.4 19.8, 47.6 17.3 C 47.5 0.0, 30.7 13.6, 20.4 17.4 C 5.2 9.9, 61.1 41.5, 50.3 52.6 C 70.2 71.3, 83.5 80.3, 74.6 75.8 C 78.9 61.3, 9.8 45.7, 12.3 42.9 Z" fill="none" fill-opacity="0.41" stroke="hsl(2, 82%, 55%)" stroke-width="2.19" filter="url(#f1)" transform="translate(23.8 96.9) rotate(349.4) scale(0.83 0.72)" />
<path d="M 83.9 4.4 C 93.3 0.0, 96.5 1.4, 90.9 3.3 C 93.7 9.9, 96.0 68.2, 94.8 58.7 C 80.4 59.8, 8.4 51.1, 8.7 62.0 C 17.2 62.2, 27.2 35.1, 32.8 33.8 C 16.0 42.9, 45.0 10.8, 35.8 4.6 C 20.2 20.6, 27.8 100.0, 42.3 93.6 Z" fill="hsl(104, 72%, 65%)" fill-opacity="0.75" stroke="none" stroke-width="3.85"  transform="translate(28.7 8.6) rotate(160.5) scale(1.15 1.24)" />
<rect x="19.2" y="31.1" width="33.6" height="21.3" rx="0" fill="hsl(242, 72%, 49%)" fill-opacity="0.42"   transform="translate(95.8 63.3) rotate(339.6) scale(1.32 1.27)" />
<rect x="8.0" y="77.4" width="29.6" height="12.4" rx="0" fill="none" fill-opacity="0.51" stroke="hsl(2, 82%, 55%)" stroke-width="2.1"   />
<path d="M 82.6 51.3 C 99.1 36.8, 37.7 0.0, 37.6 5.9 C 23.9 21.5, 77.3 44.2, 76.7 44.6 C 86.6 62.3, 100.0 61.4, 95.5 59.8 C 100.0 59.0, 62.6 64.9, 72.3 58.6 C 68.4 65.2, 40.9 0.0, 48.4 0.9 C 29.8 0.0, 62.1 58.0, 58.9 61.3 Z" fill="hsl(2, 82%, 55%)" fill-opacity="0.35" stroke="none" stroke-width="1.22"  transform="translate(85.7 90.6) rotate(312.2) scale(0.87 1.46)" />
<path d="M 98.3 57.7 C 100.0 64.3, 3.5 2.4, 4.9 6.5 C 24.4 17.3, 7.8 96.3, 10.1 84.2 C 0.0 85.4, 51.4 35.9, 60.5 45.8 C 62.5 57.0, 23.2 21.8, 30.3 13.8 C 32.7 0.0, 43.7 48.6, 29.8 47.9 C 36.4 45.6, 0.0 74.0, 2.4 60.1 C 0.0 70.1, 18.8 22.1, 18.7 25.9 C 15.0 13.8, 100.0 16.6, 97.2 4.4 Z" fill="hsl(106, 75%, 59%)" fill-opacity="0.89" stroke="none" stroke-width="4.72"  transform="translate(16.0 33.4) rotate(110.1) scale(0.75 0.63)" />
<circle cx="97.5" cy="99.4" r="11.1" fill="hsl(104, 72%, 65%)" fill-opacity="0.97"  transform="translate(48.9 75.6) rotate(233.3) scale(1.91 1.88)" />
<rect x="54.5" y="33.2" width="43.5" height="32.9" rx="16.1" fill="none" fill-opacity="0.31"   transform="translate(45.1 13.0) rotate(267.6) scale(1.49 0.60)" />
<rect x="72.8" y="60.9" width="26.9" height="24.4" rx="0" fill="hsl(183, 71%, 60%)" fill-opacity="0.33"   transform="translate(69.5 58.4) rotate(207.4) scale(1.49 1.69)" />
<rect x="6.2" y="3.6" width="25.6" height="22.4" rx="0" fill="none" fill-opacity="0.93"   transform="translate(98.4 79.7) rotate(258.0) scale(0.97 1.10)" />
<path d="M 77.8 54.8 C 96.8 42.3, 100.0 39.3, 99.4 26.6 C 100.0 42.2, 61.9 100.0, 53.6 99.0 C 41.2 91.1, 26.5 25.1, 28.7 35.3 C 20.5 50.8, 64.8 80.7, 53.6 90.1 C 48.7 77.6, 79.1 100.0, 88.7 98.7 C 89.1 86.5, 91.4 57.8, 82.6 66.9 Z" fill="hsl(183, 71%, 60%)" fill-opacity="1.00" stroke="none" stroke-width="4.40"  transform="translate(6.5 11.3) rotate(107.8) scale(1.84 1.46)" />
<rect x="36.2" y="15.8" width="47.0" height="21.8" rx="0" fill="hsl(322, 74%, 44%)" fill-opacity="0.32"   transform="translate(54.4 90.5) rotate(50.7) scale(1.32 1.27)" />
<path d="M 7.4 86.9 C 24.8 68.9, 22.0 100.0, 17.6 94.6 C 33.8 100.0, 14.6 71.7, 18.8 61.5 C 6.4 79.3, 39.4 48.8, 38.3 51.1 C 19.6 37.7, 0.0 97.1, 4.0 95.3 C 0.0 100.0, 74.4 0.0, 72.3 2.2 C 53.6 0.0, 8.9 46.0, 6.4 57.7 Z" fill="none" fill-opacity="0.43" stroke="hsl(144, 86%, 72%)" stroke-width="3.25"   />
<path d="M 52.7 78.0 C 68.6 92.5, 14.8 20.8, 4.0 31.9 C 7.3 27.9, 81.2 3.3, 89.4 17.2 C 97.4 9.3, 56.2 58.4, 42.3 66.9 C 34.9 56.1, 18.8 24.0, 3.8 27.9 C 0.0 9.3, 41.6 29.3, 47.0 22.3 C 60.1 38.6, 61.1 0.0, 61.2 7.7 C 62.2 26.0, 42.3 92.2, 38.3 81.3 C 47.3 66.8, 36.7 95.0, 27.6 94.4 Z" fill="hsl(144, 86%, 72%)" fill-opacity="0.56" stroke="none" stroke-width="4.40"  transform="translate(11.1 70.4) rotate(294.7) scale(1.42 1.84)" />
<rect x="15.5" y="27.7" width="50.0" height="37.0" rx="8.3" fill="hsl(104, 72%, 65%)" fill-opacity="0.67"    />
<circle cx="66.1" cy="82.6" r="2.7" fill="url(#g1)" fill-opacity="0.78"   />
<rect x="65.9" y="78.3" width="21.1" height="21.3" rx="0" fill="none" fill-opacity="0.38"   transform="translate(91.5 28.5) rotate(143.3) scale(1.93 1.39)" />
<path d="M 56.0 98.7 C 52.9 100.0, 71.9 91.9, 72.6 91.9 C 81.1 100.0, 74.0 100.0, 79.9 99.6 C 81.4 91.3, 35.6 0.0, 21.5 3.1 C 11.2 17.3, 67.6 11.1, 59.1 22.1 C 46.0 6.4, 66.6 14.4, 79.0 9.6 C 95.6 7.0, 89.3 49.1, 99.2 40.5 C 81.3 55.1, 55.9 47.8, 57.1 42.8 C 63.2 43.4, 13.9 94.6, 18.5 84.3 C 29.7 68.6, 52.9 24.0, 61.5 30.6 Z" fill="hsl(151, 70%, 62%)" fill-opacity="0.34" stroke="none" stroke-width="2.70"   />
<path d="M 71.3 95.7 C 63.3 97.5, 67.3 100.0, 64.6 93.3 C 64.8 78.8, 73.3 16.5, 78.6 10.6 C 79.4 7.9, 72.9 45.2, 60.6 50.3 C 68.3 37.6, 2.2 65.5, 14.7 66.8 C 12.6 50.9, 22.7 98.9, 32.2 98.5 C 36.9 89.0, 63.9 34.8, 69.3 37.4 " fill="hsl(322, 74%, 44%)" fill-opacity="0.57" stroke="none" stroke-width="4.52" filter="url(#f1)" transform="translate(83.1 45.8) rotate(258.8) scale(0.72 1.64)" />
<path d="M 34.9 51.5 C 37.4 69.4, 74.6 43.1, 65.2 56.8 C 66.0 45.4, 69.5 91.2, 58.3 97.6 C 48.0 81.5, 84.6 73.4, 77.9 76.7 C 63.3 75.7, 63.0 72.9, 70.5 75.5 C 58.2 70.7, 88.1 68.5, 98.8 77.0 C 89.8 77.6, 8.3 85.3, 10.4 92.7 C 0.0 100.0, 0.4 46.2, 13.8 54.1 C 13.6 71.1, 72.6 22.3, 65.0 10.2 C 64.1 13.0, 94.3 22.9, 84.8 21.1 Z" fill="none" fill-opacity="0.54" stroke="hsl(183, 71%, 60%)" stroke-width="2.27"  transform="translate(74.2 28.2) rotate(352.7) scale(0.88 1.49)" />
<path d="M 87.9 8.1 C 73.6 16.9, 64.3 36.9, 77.3 41.4 C 95.7 52.7, 62.4 83.5, 71.8 90.9 C 58.9 95.0, 100.0 47.9, 91.5 36.9 C 81.2 32.0, 25.6 64.4, 16.4 61.7 C 8.2 60.2, 65.3 81.7, 64.9 72.6 C 58.4 72.7, 77.8 89.7, 76.7 91.2 C 81.4 84.4, 42.4 38.3, 51.0 45.2 C 40.2 60.5, 56.0 67.2, 64.7 52.6 C 60.2 49.3, 28.6 39.4, 42.6 28.7 C 35.7 16.5, 85.5 74.8, 75.5 68.4 " fill="hsl(242, 72%, 49%)" fill-opacity="0.49" stroke="none" stroke-width="4.24"  transform="translate(6.4 68.3) rotate(341.2) scale(0.57 1.86)" />
<path d="M 86.4 40.7 C 100.0 55.7, 47.4 25.7, 55.2 32.4 C 42.3 46.0, 100.0 60.7, 91.2 73.3 C 88.0 80.7, 0.9 50.2, 8.8 43.4 C 20.4 23.5, 13.5 73.8, 1.7 71.0 C 6.6 79.7, 13.1 30.8, 17.3 44.4 C 20.0 41.6, 25.2 65.7, 27.7 72.2 C 17.1 72.8, 57.7 11.2, 49.0 2.9 C 68.5 18.9, 36.8 2.8, 26.2 17.5 C 23.4 28.8, 94.0 54.2, 80.6 44.4 Z" fill="hsl(106, 75%, 59%)" fill-opacity="0.36" stroke="none" stroke-width="5.27"  transform="translate(27.0 1.7) rotate(248.6) scale(0.94 1.15)" />
<path d="M 79.7 40.5 C 87.4 31.1, 27.7 53.1, 36.5 54.8 C 21.7 37.5, 73.1 4.1, 66.1 4.4 C 70.2 10.7, 2.8 11.1, 2.0 11.2 C 10.3 17.1, 73.2 65.6, 73.2 75.1 C 65.2 75.4, 94.2 57.4, 89.1 46.2 C 86.4 27.7, 79.7 34.3, 65.3 22.1 C 61.0 33.1, 73.2 85.6, 61.7 98.6 Z" fill="none" fill-opacity="0.51" stroke="hsl(183, 71%, 60%)" stroke-width="2.71"  transform="translate(37.0 30.4) rotate(221.0) scale(0.92 1.87)" />
<path d="M 58.5 39.0 C 70.9 38.1, 80.3 25.6, 92.6 33.2 C 79.6 35.0, 94.1 14.7, 97.3 20.6 C 85.1 15.9, 85.7 69.2, 85.9 66.6 C 99.8 74.4, 76.0 46.9, 83.2 55.1 C 80.8 63.5, 13.7 68.7, 0.7 66.1 C 9.8 50.5, 81.5 0.0, 93.5 1.0 Z" fill="hsl(104, 72%, 65%)" fill-opacity="0.62" stroke="none" stroke-width="4.30"  transform="translate(90.9 28.1) rotate(138.6) scale(1.13 1.12)" />
<rect x="17.5" y="6.9" width="22.5" height="11.7" rx="0" fill="hsl(86, 72%, 68%)" fill-opacity="0.59"    />
<rect x="59.9" y="36.2" width="29.8" height="31.8" rx="1.9" fill="none" fill-opacity="0.81"   transform="translate(21.9 85.3) rotate(38.9) scale(0.60 1.51)" />
<rect x="71.6" y="1.4" width="21.1" height="36.4" rx="1.2" fill="none" fill-opacity="0.49"   transform="translate(97.6 64.1) rotate(318.0) scale(1.28 1.91)" />
<rect x="48.3" y="61.6" width="32.7" height="13.7" rx="14.8" fill="none" fill-opacity="0.37" stroke="hsl(183, 71%, 60%)" stroke-width="3.4" filter="url(#f1)" transform="translate(52.2 10.1) rotate(26.9) scale(1.99 1.08)" />
<path d="M 10.2 79.0 C 7.1 69.7, 76.8 46.3, 69.8 43.7 C 49.8 29.2, 91.8 25.0, 80.4 39.2 C 85.3 26.1, 18.5 100.0, 12.5 91.7 C 2.3 94.2, 79.4 92.1, 90.1 98.1 C 94.5 100.0, 68.8 11.1, 59.7 25.8 C 50.9 17.0, 57.2 59.0, 42.9 56.7 Z" fill="hsl(322, 74%, 44%)" fill-opacity="0.63" stroke="none" stroke-width="5.04"  transform="translate(44.5 85.2) rotate(212.2) scale(0.91 0.55)" />
<path d="M 90.2 91.7 C 100.0 84.2, 56.1 9.3, 70.1 18.1 C 50.5 0.0, 74.9 87.3, 71.8 73.2 C 82.9 69.9, 74.5 21.6, 79.5 36.0 C 79.4 32.9, 90.9 42.0, 89.8 27.7 C 83.5 44.1, 81.9 63.5, 89.4 51.2 C 100.0 43.1, 56.4 30.7, 55.6 29.0 C 75.1 17.2, 32.0 28.3, 20.3 35.1 Z" fill="hsl(106, 75%, 59%)" fill-opacity="0.69" stroke="none" stroke-width="4.45"  transform="translate(39.2 86.2) rotate(86.1) scale(1.85 1.26)" />
<rect x="44.7" y="53.7" width="35.3" height="36.8" rx="0" fill="none" fill-opacity="0.33"   transform="translate(24.4 19.5) rotate(315.4) scale(0.83 1.31)" />
<path d="M 98.9 5.5 C 83.8 6.4, 93.7 83.1, 99.6 91.1 C 100.0 100.0, 66.3 0.5, 72.6 14.8 C 63.2 0.0, 95.9 44.7, 87.4 48.5 C 100.0 31.6, 70.9 38.7, 77.8 43.1 C 95.9 45.7, 4.2 26.6, 0.9 25.1 C 0.0 38.9, 100.0 45.2, 98.5 44.4 C 87.9 29.4, 38.7 68.5, 47.7 57.7 C 59.1 62.6, 100.0 26.4, 98.6 18.7 " fill="hsl(86, 72%, 68%)" fill-opacity="0.85" stroke="none" stroke-width="2.07"  transform="translate(43.1 94.3) rotate(107.6) scale(1.75 1.27)" />
<path d="M 29.5 92.3 C 33.5 100.0, 2.9 0.0, 7.3 1.1 C 0.0 0.0, 64.9 29.6, 68.1 21.5 C 79.2 12.3, 9.3 46.5, 16.3 53.6 C 6.5 51.5, 77.5 80.6, 90.4 91.4 C 100.0 80.5, 41.2 100.0, 32.4 93.0 C 12.6 84.7, 65.9 0.7, 61.5 9.3 C 61.3 0.0, 43.5 71.6, 45.7 78.3 Z" fill="hsl(322, 74%, 44%)" fill-opacity="0.86" stroke="none" stroke-width="1.31"  transform="translate(2.8 2.3) rotate(221.9) scale(0.70 1.66)" />
<path d="M 37.4 72.3 C 56.3 66.6, 36.5 37.1, 36.6 40.5 C 24.6 47.6, 10.1 17.7, 11.6 14.5 C 11.8 1.8, 44.9 64.6, 48.1 63.1 C 33.9 78.1, 11.0 47.3, 14.5 44.9 C 24.6 64.1, 18.7 16.3, 5.2 19.1 C 0.0 21.9, 62.9 84.8, 68.8 92.4 C 65.0 87.9, 19.2 21.5, 11.2 12.7 C 15.1 0.0, 53.2 100.0, 60.7 99.0 C 47.5 100.0, 15.3 80.2, 7.9 74.0 C 21.0 70.9, 100.0 16.2, 97.8 6.8 Z" fill="hsl(106, 75%, 59%)" fill-opacity="0.51" stroke="none" stroke-width="1.99"  transform="translate(72.6 71.3) rotate(41.0) scale(0.55 0.64)" />
<path d="M 23.2 64.2 C 37.5 46.7, 92.5 27.7, 80.8 26.6 C 75.2 9.6, 30.7 0.0, 35.0 3.3 C 23.7 13.0, 61.6 45.0, 69.1 44.6 C 50.8 40.2, 65.9 33.8, 58.9 44.1 C 70.8 42.0, 100.0 22.5, 94.3 34.8 C 100.0 21.8, 52.8 54.3, 57.7 51.4 C 77.0 35.8, 81.6 7.3, 86.1 22.2 C 76.3 5.6, 55.6 35.8, 41.4 34.6 C 26.5 49.4, 10.4 12.6, 20.2 8.7 C 25.4 15.5, 3.4 47.1, 2.2 50.3 Z" fill="hsl(151, 70%, 62%)" fill-opacity="0.36" stroke="none" stroke-width="1.79"   />
<rect x="22.1" y="44.5" width="30.4" height="27.0" rx="7.5" fill="hsl(242, 72%, 49%)" fill-opacity="0.69"   transform="translate(89.2 37.8) rotate(345.5) scale(1.89 0.96)" />
<circle cx="53.4" cy="51.6" r="16.6" fill="url(#g1)" fill-opacity="0.56"   />
<path d="M 41.4 98.4 C 45.0 100.0, 53.2 51.7, 62.8 53.9 C 53.2 63.4, 36.8 69.6, 35.1 58.2 C 38.1 45.4, 56.3 70.7, 55.3 67.2 C 55.6 76.6, 46.6 71.9, 54.9 74.9 C 58.0 79.5, 92.2 86.0, 86.5 80.3 C 100.0 62.7, 83.8 18.7, 84.1 7.6 C 75.0 21.7, 75.6 23.9, 63.5 33.8 C 47.4 24.1, 27.8 34.9, 30.2 35.7 Z" fill="none" fill-opacity="0.50" stroke="hsl(2, 82%, 55%)" stroke-width="1.59"  transform="translate(75.3 56.1) rotate(222.2) scale(0.69 1.45)" />
<rect x="4.1" y="9.0" width="32.0" height="11.0" rx="0" fill="hsl(106, 75%, 59%)" fill-opacity="0.34"   transform="translate(45.7 63.0) rotate(255.7) scale(1.85 1.42)" />
<circle cx="48.4" cy="57.1" r="1.8" fill="url(#g1)" fill-opacity="0.72"  transform="translate(25.9 18.2) rotate(72.9) scale(1.34 0.78)" />
<circle cx="18.7" cy="55.5" r="5.8" fill="url(#g1)" fill-opacity="0.63"  transform="translate(8.0 68.8) rotate(255.6) scale(0.93 0.62)" />
<path d="M 20.9 52.0 C 24.1 51.4, 70.3 86.7, 62.6 85.2 C 58.2 73.4, 28.0 63.8, 14.8 76.0 C 28.8 74.5, 33.3 47.7, 34.5 46.4 C 49.4 48.5, 8.3 94.6, 4.8 86.5 C 0.0 94.3, 91.2 28.8, 82.9 17.8 C 63.0 34.2, 45.3 16.8, 51.1 26.5 C 55.6 25.5, 71.6 66.1, 65.8 59.5 C 79.7 50.8, 76.4 4.7, 67.4 5.4 C 85.7 6.8, 38.5 73.6, 26.1 66.9 C 40.0 84.5, 71.0 31.7, 60.2 32.9 Z" fill="hsl(83, 65%, 44%)" fill-opacity="0.58" stroke="none" stroke-width="1.08" filter="url(#f1)" transform="translate(8.6 53.7) rotate(112.9) scale(0.83 1.39)" />
<path d="M 42.9 28.2 C 55.2 41.7, 47.6 76.1, 58.6 72.3 C 76.1 81.6, 67.0 2.0, 63.6 1.8 C 49.6 0.0, 73.0 52.7, 70.3 38.4 C 58.0 42.8, 91.3 82.3, 95.3 90.2 C 99.9 95.2, 47.9 80.1, 46.6 71.3 C 33.2 79.8, 8.5 88.9, 20.9 92.5 C 21.9 87.8, 85.9 0.0, 99.1 0.1 C 100.0 0.0, 57.0 75.4, 65.4 87.0 C 61.7 67.2, 26.4 4.4, 20.1 1.7 C 19.7 8.5, 6.5 53.1, 12.9 48.8 Z" fill="hsl(151, 70%, 62%)" fill-opacity="0.67" stroke="none" stroke-width="1.69"  transform="translate(71.6 25.2) rotate(334.3) scale(0.93 1.78)" />
<path d="M 20.3 52.6 C 5.2 61.6, 62.5 52.6, 54.6 59.8 C 73.1 62.0, 63.5 72.2, 60.1 68.3 C 73.6 67.8, 92.5 20.6, 97.9 31.8 C 100.0 46.4, 48.7 75.0, 38.2 62.3 C 44.3 55.5, 56.8 13.5, 53.6 14.4 C 53.4 1.6, 44.2 0.0, 39.2 4.0 C 42.4 0.0, 44.0 4.4, 36.6 18.5 C 31.7 2.3, 12.8 47.3, 7.9 39.8 " fill="none" fill-opacity="0.60" stroke="hsl(144, 86%, 72%)" stroke-width="2.83"   />
<rect x="53.9" y="13.0" width="40.8" height="13.5" rx="7.6" fill="hsl(106, 75%, 59%)" fill-opacity="0.28"   transform="translate(22.1 25.4) rotate(298.8) scale(1.84 0.92)" />
<rect x="9.5" y="40.7" width="47.8" height="34.6" rx="0" fill="hsl(322, 74%, 44%)" fill-opacity="0.54" stroke="hsl(106, 75%, 59%)" stroke-width="3.2"   />
<path d="M 44.7 78.1 C 47.9 67.9, 31.8 40.8, 35.6 50.8 C 33.4 31.9, 100.0 10.6, 88.0 9.0 C 69.9 6.4, 65.8 0.0, 77.8 5.2 C 59.0 11.1, 72.3 77.1, 65.5 90.0 C 82.3 90.7, 45.4 90.9, 56.9 82.9 C 44.1 83.6, 64.4 100.0, 52.6 99.4 C 44.4 100.0, 0.0 49.6, 6.4 54.8 C 8.6 52.0, 31.8 6.9, 31.0 16.2 C 31.0 18.1, 80.3 74.2, 79.5 74.9 Z" fill="none" fill-opacity="0.96" stroke="hsl(83, 65%, 44%)" stroke-width="3.67"  transform="translate(99.3 53.3) rotate(73.1) scale(1.14 0.82)" />
<path d="M 10.7 19.3 C 1.0 10.0, 52.1 65.4, 39.5 58.3 C 26.1 46.5, 96.5 22.9, 93.7 10.9 C 100.0 24.5, 26.2 52.9, 11.2 51.3 C 13.1 48.4, 88.2 55.7, 97.3 55.6 C 99.1 41.8, 62.2 100.0, 61.0 97.4 C 46.0 100.0, 0.0 4.0, 5.3 3.0 " fill="none" fill-opacity="0.70" stroke="hsl(40, 53%, 69%)" stroke-width="5.27"  transform="translate(66.5 50.9) rotate(34.6) scale(0.60 1.17)" />
<path d="M 31.6 42.2 C 46.0 31.2, 54.0 52.0, 53.4 61.4 C 70.7 68.0, 64.4 93.0, 61.3 98.4 C 48.3 88.2, 45.4 0.0, 34.7 5.0 C 42.6 4.2, 48.6 51.3, 40.8 55.8 C 34.6 65.9, 13.1 16.4, 10.3 24.2 C 7.4 9.5, 21.7 19.0, 15.9 14.6 C 6.5 20.5, 19.8 0.0, 8.0 9.6 C 0.0 0.0, 60.1 88.7, 64.9 90.5 C 66.5 79.5, 21.6 53.5, 32.5 61.5 Z" fill="hsl(242, 72%, 49%)" fill-opacity="0.51" stroke="none" stroke-width="3.09"  transform="translate(30.9 2.3) rotate(134.2) scale(1.17 1.93)" />
<path d="M 84.6 78.5 C 81.2 96.6, 5.8 49.0, 19.7 61.6 C 3.9 51.1, 31.3 43.0, 43.3 53.7 C 26.8 54.4, 40.0 74.5, 37.7 78.3 C 50.8 86.1, 55.8 0.0, 57.2 1.1 C 49.8 0.0, 24.6 78.5, 31.0 66.7 C 29.3 59.9, 56.7 70.6, 59.9 68.1 C 64.7 69.1, 64.4 91.0, 77.5 98.0 Z" fill="hsl(242, 72%, 49%)" fill-opacity="0.95" stroke="none" stroke-width="2.72"   />
<rect x="23.6" y="67.3" width="28.7" height="21.6" rx="0" fill="hsl(290, 83%, 63%)" fill-opacity="0.51" stroke="hsl(86, 72%, 68%)" stroke-width="3.2"  transform="translate(4.1 71.5) rotate(135.9) scale(1.07 0.68)" />
<rect x="56.1" y="33.5" width="24.7" height="18.3" rx="11.0" fill="none" fill-opacity="0.62"  filter="url(#f1)" transform="translate(31.6 35.5) rotate(143.6) scale(1.41 0.91)" />
<rect x="7.4" y="59.1" width="48.4" height="37.1" rx="0" fill="none" fill-opacity="0.92"   transform="translate(56.6 78.2) rotate(235.8) scale(1.51 0.50)" />
<path d="M 39.9 8.4 C 52.8 0.0, 30.2 75.4, 38.7 86.6 C 29.7 75.0, 8.9 89.0, 4.0 89.5 C 4.6 90.8, 86.5 79.2, 99.5 70.2 C 94.7 58.7, 99.2 74.8, 94.8 73.4 C 100.0 93.3, 74.5 41.7, 76.3 55.6 C 58.5 54.7, 87.0 81.6, 96.3 76.1 C 80.1 68.2, 30.0 44.0, 24.3 52.0 C 41.4 37.0, 48.3 92.8, 55.1 83.7 C 46.6 100.0, 93.9 71.8, 97.6 67.8 " fill="hsl(40, 53%, 69%)" fill-opacity="0.40" stroke="none" stroke-width="4.86" filter="url(#f1)" transform="translate(40.3 79.3) rotate(157.8) scale(0.86 1.79)" />
<rect x="61.6" y="33.9" width="24.3" height="11.1" rx="0" fill="none" fill-opacity="0.75"   transform="translate(67.1 58.0) rotate(3.8) scale(1.98 1.27)" />
<path d="M 68.8 97.6 C 63.2 80.2, 76.4 58.6, 70.3 48.7 C 82.4 29.7, 100.0 5.1, 98.3 13.1 C 100.0 31.6, 94.7 27.2, 99.8 16.7 C 100.0 22.2, 54.9 55.1, 62.3 64.3 C 53.4 48.1, 61.9 11.3, 57.7 12.6 C 59.8 28.4, 39.9 93.4, 45.5 85.7 C 59.2 82.8, 100.0 22.4, 96.4 32.1 Z" fill="hsl(40, 53%, 69%)" fill-opacity="0.33" stroke="none" stroke-width="2.85"  transform="translate(35.5 55.0) rotate(50.8) scale(1.71 1.98)" />
<path d="M 18.9 63.0 C 18.9 61.4, 64.0 0.0, 59.2 11.4 C 58.5 17.5, 14.5 26.8, 22.5 23.5 C 16.8 36.8, 44.5 73.3, 30.8 68.4 C 42.8 73.0, 71.7 16.6, 72.8 4.4 C 88.8 0.0, 85.7 14.5, 94.3 14.7 C 100.0 16.8, 100.0 81.9, 96.7 78.8 C 80.2 75.0, 40.1 92.1, 37.4 97.7 C 52.4 83.0, 85.8 36.1, 71.8 43.8 C 70.7 32.6, 74.9 72.2, 81.7 74.8 C 72.9 62.0, 12.1 71.1, 1.5 75.5 " fill="hsl(144, 86%, 72%)" fill-opacity="0.94" stroke="none" stroke-width="4.64" filter="url(#f1)"  />
<path d="M 19.1 62.5 C 6.3 55.2, 79.3 57.0, 76.7 46.4 C 57.3 45.7, 91.8 62.7, 97.7 71.0 C 94.8 72.5, 100.0 77.3, 86.6 92.1 C 85.6 90.2, 79.9 92.3, 67.1 79.1 C 61.1 96.6, 44.5 79.8, 50.8 84.1 C 41.9 69.0, 87.3 2.8, 74.6 3.4 C 78.3 12.9, 0.0 35.4, 10.4 21.8 C 15.2 18.1, 97.8 55.1, 95.2 61.5 C 100.0 42.1, 21.6 71.0, 31.1 69.1 Z" fill="none" fill-opacity="0.61" stroke="hsl(40, 53%, 69%)" stroke-width="3.46"  transform="translate(74.7 17.6) rotate(80.6) scale(1.43 0.58)" />
<rect x="65.1" y="3.4" width="24.4" height="10.2" rx="7.6" fill="none" fill-opacity="0.82"   transform="translate(84.1 37.9) rotate(210.1) scale(1.75 1.01)" />
<rect x="43.8" y="31.7" width="21.8" height="23.4" rx="16.1" fill="hsl(242, 72%, 49%)" fill-opacity="0.83" stroke="hsl(242, 72%, 49%)" stroke-width="4.3"  transform="translate(68.6 3.5) rotate(340.0) scale(1.56 0.65)" />
<rect x="40.6" y="12.4" width="44.5" height="33.7" rx="8.8" fill="none" fill-opacity="0.75"   transform="translate(65.2 32.6) rotate(306.6) scale(1.43 1.82)" />
<path d="M 65.3 33.7 C 77.4 27.7, 42.5 43.8, 45.2 46.2 C 44.9 60.1, 3.3 90.2, 11.9 91.9 C 10.3 81.9, 2.4 100.0, 5.6 93.6 C 0.0 74.7, 47.8 24.3, 56.1 14.2 C 49.7 27.0, 20.4 72.8, 30.5 82.5 C 26.6 80.2, 72.6 94.0, 77.4 94.7 Z" fill="hsl(242, 72%, 49%)" fill-opacity="0.49" stroke="none" stroke-width="3.53"  transform="translate(22.9 39.3) rotate(82.0) scale(1.26 1.62)" />
<rect x="4.8" y="8.5" width="48.8" height="34.3" rx="16.4" fill="hsl(83, 65%, 44%)" fill-opacity="0.43"   transform="translate(61.9 82.4) rotate(292.6) scale(1.39 0.77)" />
<path d="M 8.2 54.3 C 28.1 47.1, 96.1 13.4, 88.2 7.1 C 71.5 11.7, 48.5 0.0, 42.1 7.3 C 60.1 24.9, 78.5 0.4, 78.4 6.7 C 77.6 8.1, 62.7 23.8, 50.2 18.8 C 61.1 4.0, 0.6 6.0, 13.3 6.3 C 16.5 0.0, 68.0 100.0, 61.3 91.1 Z" fill="hsl(290, 83%, 63%)" fill-opacity="0.37" stroke="none" stroke-width="1.89"  transform="translate(22.8 60.6) rotate(330.6) scale(0.88 0.54)" />
<g opacity="0.075">
<rect x="0" y="0" width="1" height="100" fill="black" />
<rect x="22" y="0" width="1" height="100" fill="black" />
<rect x="44" y="0" width="1" height="100" fill="black" />
<rect x="66" y="0" width="1" height="100" fill="black" />
<rect x="88" y="0" width="1" height="100" fill="black" />
<rect x="0" y="0" width="100" height="1" fill="black" />
<rect x="0" y="22" width="100" height="1" fill="black" />
<rect x="0" y="44" width="100" height="1" fill="black" />
<rect x="0" y="66" width="100" height="1" fill="black" />
<rect x="0" y="88" width="100" height="1" fill="black" />
</g>

</svg>
