<?xml version="1.0" encoding="UTF-8"?>
<svg xmlns="http://www.w3.org/2000/svg" width="100" height="100" viewBox="0 0 100 100">
<defs>
<linearGradient id="g0" x1="0%" y1="0%" x2="100%" y2="100%">
<stop offset="0.0%" stop-color="hsl(106, 75%, 59%)" />
<stop offset="33.3%" stop-color="hsl(183, 71%, 60%)" />
<stop offset="66.7%" stop-color="hsl(242, 72%, 49%)" />
<stop offset="100.0%" stop-color="hsl(322, 74%, 44%)" />
</linearGradient>
<linearGradient id="g1" x1="0%" y1="0%" x2="100%" y2="100%">
<stop offset="0.0%" stop-color="hsl(290, 83%, 63%)" />
<stop offset="33.3%" stop-color="hsl(2, 82%, 55%)" />
<stop offset="66.7%" stop-color="hsl(86, 72%, 68%)" />
<stop offset="100.0%" stop-color="hsl(83, 65%, 44%)" />
</linearGradient>
<linearGradient id="g2" x1="0%" y1="0%" x2="100%" y2="100%">
<stop offset="0.0%" stop-color="hsl(40, 53%, 69%)" />
<stop offset="33.3%" stop-color="hsl(104, 72%, 65%)" />
<stop offset="66.7%" stop-color="hsl(144, 86%, 72%)" />
<stop offset="100.0%" stop-color="hsl(151, 70%, 62%)" />
</linearGradient>
</defs>

<path d="M 66.4 3.8 C 55.0 0.0, 64.1 12.1, 77.3 0.2 C 63.0 0.0, 33.3 69.0, 42.7 59.1 C 51.7 72.2, 2.6 80.3, 5.9 67.6 C 0.0 80.2, 82.8 49.1, 75.3 53.8 C 56.5 53.6, 14.1 34.6, 25.9 48.7 C 30.8 52.0, 0.0 78.5, 12.3 71.0 C 1.6 78.2, 38.1 88.8, 34.6 90.7 " fill="hsl(104, 72%, 65%)" fill-opacity="0.81" stroke="none" stroke-width="1.28"  transform="translate(9.3 58.1) rotate(26.6) scale(1.93 1.90)" />
<path d="M 65.6 1.4 C 57.8 14.8, 39.9 40.1, 35.5 48.4 C 47.2 48.7, 65.8 17.6, 73.3 30.6 C 89.1 24.0, 41.3 41.8, 44.3 37.4 C 57.8 51.4, 28.2 22.8, 35.9 30.5 C 25.7 49.9, 77.8 48.7, 69.5 58.8 C 70.7 42.5, 53.2 14.5, 59.6 18.3 C 64.5 29.6, 80.4 45.1, 77.6 44.8 " fill="hsl(183, 71%, 60%)" fill-opacity="0.46" stroke="none" stroke-width="1.05"  transform="translate(21.5 83.2) rotate(283.9) scale(1.48 1.76)" />
<path d="M 13.6 76.3 C 0.0 94.9, 71.2 46.6, 60.1 54.0 C 53.9 40.5, 65.6 49.2, 53.4 48.9 C 70.7 43.1, 62.8 68.3, 72.9 63.4 Z" fill="hsl(104, 72%, 65%)" fill-opacity="0.27" stroke="none" stroke-width="1.23"   />
<circle cx="57.7" cy="1.2" r="0.0" fill="hsl(83, 65%, 44%)" fill-opacity="0.87"  transform="translate(65.4 91.8) rotate(331.9) scale(1.41 1.26)" />
<rect x="46.1" y="30.7" width="37.1" height="26.5" rx="3.9" fill="hsl(40, 53%, 69%)" fill-opacity="0.60" stroke="hsl(151, 70%, 62%)" stroke-width="1.9"  transform="translate(70.6 62.5) rotate(226.9) scale(1.08 0.78)" />
<path d="M 68.5 15.0 C 72.7 4.8, 40.0 74.5, 48.6 68.0 C 51.1 83.6, 7.9 89.5, 21.4 76.7 C 16.1 81.0, 93.4 8.5, 82.8 5.7 C 100.0 14.3, 98.8 44.1, 95.9 38.6 C 100.0 56.5, 27.0 83.9, 40.6 96.2 Z" fill="none" fill-opacity="0.34" stroke="hsl(2, 82%, 55%)" stroke-width="0.80"   />
<circle cx="91.2" cy="24.9" r="0.3" fill="hsl(144, 86%, 72%)" fill-opacity="0.62"   />
<path d="M 47.1 94.1 C 30.0 100.0, 62.5 100.0, 56.1 87.1 C 70.3 81.8, 28.1 86.0, 13.3 74.1 C 16.1 55.7, 88.1 44.7, 81.1 53.2 C 92.6 57.5, 43.4 12.4, 58.0 9.0 C 39.5 19.6, 48.4 46.9, 55.0 34.3 C 73.2 18.0, 96.5 100.0, 99.2 97.6 C 100.0 87.4, 81.9 75.8, 69.0 74.2 Z" fill="hsl(2, 82%, 55%)" fill-opacity="0.95" stroke="none" stroke-width="0.89"   />
<path d="M 82.5 89.7 C 98.3 84.3, 100.0 40.0, 96.7 51.9 C 84.7 36.1, 10.9 54.4, 11.4 45.3 C 4.9 27.6, 18.2 2.5, 11.5 1.2 C 7.7 0.0, 78.2 45.0, 80.8 57.1 C 76.2 63.8, 0.0 34.9, 9.5 47.4 C 0.0 36.3, 56.4 54.5, 47.9 56.1 C 38.9 57.7, 66.1 11.3, 68.6 2.8 Z" fill="hsl(242, 72%, 49%)" fill-opacity="0.40" stroke="none" stroke-width="0.95"  transform="translate(6.0 32.1) rotate(70.8) scale(0.93 1.51)" />
<path d="M 5.5 62.7 C 23.7 80.3, 41.5 100.0, 49.5 98.9 C 43.0 89.3, 33.6 92.4, 19.3 99.2 C 7.9 100.0, 17.2 35.5, 12.0 27.0 C 0.0 16.1, 100.0 72.3, 100.0 61.6 " fill="none" fill-opacity="0.58" stroke="hsl(183, 71%, 60%)" stroke-width="1.29"   />
<path d="M 36.2 83.2 C 41.3 91.4, 36.4 90.1, 31.7 84.9 C 14.6 93.3, 35.0 90.5, 22.5 99.9 C 17.7 97.1, 75.6 84.7, 85.6 89.1 C 95.4 85.5, 30.4 0.0, 33.6 5.8 Z" fill="hsl(183, 71%, 60%)" fill-opacity="0.92" stroke="none" stroke-width="1.04"   />
<path d="M 39.0 81.2 C 42.1 93.9, 40.5 71.1, 33.7 66.0 C 50.6 83.5, 73.0 30.8, 68.2 41.6 C 70.2 31.7, 46.3 53.1, 56.8 45.2 C 40.5 62.8, 72.3 81.1, 75.7 95.3 C 92.0 77.2, 26.3 75.6, 12.4 77.9 C 16.4 97.2, 72.6 21.5, 65.8 9.4 " fill="hsl(144, 86%, 72%)" fill-opacity="0.59" stroke="none" stroke-width="0.88"   />
</svg>
