<?xml version="1.0" encoding="UTF-8"?>
<svg xmlns="http://www.w3.org/2000/svg" width="100" height="100" viewBox="0 0 100 100">
<defs>
<linearGradient id="g0" x1="0%" y1="0%" x2="100%" y2="100%">
<stop offset="0.0%" stop-color="hsl(106, 75%, 59%)" />
<stop offset="33.3%" stop-color="hsl(183, 71%, 60%)" />
<stop offset="66.7%" stop-color="hsl(242, 72%, 49%)" />
<stop offset="100.0%" stop-color="hsl(322, 74%, 44%)" />
</linearGradient>
<linearGradient id="g1" x1="0%" y1="0%" x2="100%" y2="100%">
<stop offset="0.0%" stop-color="hsl(290, 83%, 63%)" />
<stop offset="33.3%" stop-color="hsl(2, 82%, 55%)" />
<stop offset="66.7%" stop-color="hsl(86, 72%, 68%)" />
<stop offset="100.0%" stop-color="hsl(83, 65%, 44%)" />
</linearGradient>
<linearGradient id="g2" x1="0%" y1="0%" x2="100%" y2="100%">
<stop offset="0.0%" stop-color="hsl(40, 53%, 69%)" />
<stop offset="33.3%" stop-color="hsl(104, 72%, 65%)" />
<stop offset="66.7%" stop-color="hsl(144, 86%, 72%)" />
<stop offset="100.0%" stop-color="hsl(151, 70%, 62%)" />
</linearGradient>
<filter id="f1" x="-20%" y="-20%" width="140%" height="140%">
  <feGaussianBlur stdDeviation="0.9837444721696482" />
</filter>

</defs>

<path d="M 45.3 54.8 C 53.8 42.0, 67.2 73.8, 81.8 75.8 C 73.2 94.3, 58.6 78.0, 44.5 71.8 C 24.6 55.4, 14.9 15.0, 21.8 14.6 C 5.4 0.0, 91.5 91.7, 79.1 96.0 C 78.5 100.0, 100.0 0.0, 91.7 5.3 C 91.6 19.8, 49.7 57.4, 46.8 46.3 C 65.2 55.4, 65.8 66.9, 51.4 67.8 C 54.3 68.3, 14.4 60.5, 9.3 49.7 Z" fill="hsl(2, 82%, 55%)" fill-opacity="1.00" stroke="none" stroke-width="1.07"  transform="translate(91.2 45.8) rotate(124.6) scale(1.73 1.41)" />
<circle cx="34.5" cy="93.0" r="12.1" fill="url(#g2)" fill-opacity="0.62"  transform="translate(72.2 10.6) rotate(97.6) scale(1.31 0.67)" />
<path d="M 22.2 37.0 C 17.1 23.6, 57.4 51.1, 68.7 51.0 C 51.6 59.9, 82.7 71.9, 88.0 79.7 C 100.0 92.1, 95.4 75.4, 82.0 78.7 C 87.2 67.9, 100.0 5.4, 86.3 6.4 C 84.1 6.0, 93.4 18.2, 81.4 24.3 C 76.4 13.9, 95.0 49.6, 86.5 38.9 C 69.0 43.3, 92.5 47.7, 80.3 54.7 C 91.1 62.8, 29.7 36.3, 28.4 30.1 C 26.4 20.5, 41.2 3.8, 38.1 7.3 C 37.3 22.5, 57.8 65.1, 61.7 79.7 Z" fill="hsl(83, 65%, 44%)" fill-opacity="0.94" stroke="none" stroke-width="4.50"   />
<rect x="41.0" y="25.1" width="40.2" height="25.9" rx="0.1" fill="hsl(106, 75%, 59%)" fill-opacity="0.40"  filter="url(#f1)" transform="translate(90.7 47.3) rotate(108.7) scale(1.76 1.79)" />
<rect x="39.3" y="25.5" width="20.6" height="20.2" rx="0" fill="none" fill-opacity="0.23"   transform="translate(83.8 58.5) rotate(122.6) scale(1.66 1.39)" />
<rect x="26.8" y="40.1" width="47.1" height="10.5" rx="2.3" fill="none" fill-opacity="0.63"   transform="translate(38.9 17.7) rotate(209.4) scale(1.28 1.88)" />
<path d="M 68.6 0.4 C 54.4 0.0, 69.8 0.0, 76.8 2.8 C 59.0 7.9, 32.3 74.8, 37.6 60.2 C 35.1 51.2, 64.7 23.9, 69.7 15.5 C 59.0 23.1, 55.3 35.4, 64.9 49.9 C 51.4 33.0, 56.1 48.3, 54.5 41.0 C 52.8 52.3, 64.8 98.2, 53.0 93.8 C 54.2 81.2, 84.1 17.1, 91.2 8.5 C 96.7 23.3, 100.0 10.3, 96.2 24.2 C 100.0 18.8, 100.0 75.3, 92.2 87.5 Z" fill="hsl(106, 75%, 59%)" fill-opacity="0.42" stroke="none" stroke-width="5.16"  transform="translate(55.1 26.7) rotate(347.5) scale(1.96 0.67)" />
<path d="M 19.3 65.8 C 28.0 70.7, 21.8 53.8, 23.8 39.2 C 30.6 43.6, 36.1 16.7, 23.2 12.4 C 18.7 17.3, 50.8 28.5, 35.9 30.4 C 44.1 46.9, 29.5 23.6, 33.0 17.3 C 27.6 23.7, 7.7 88.3, 22.1 80.3 C 3.7 97.3, 24.3 61.9, 16.3 47.1 C 19.4 32.1, 25.0 22.6, 12.4 13.0 C 3.7 1.3, 40.3 42.0, 42.8 48.3 Z" fill="none" fill-opacity="0.74" stroke="hsl(104, 72%, 65%)" stroke-width="3.46"   />
<path d="M 80.4 41.9 C 83.3 55.3, 19.4 5.2, 6.0 17.9 C 1.5 0.0, 99.4 51.8, 96.7 49.3 C 100.0 39.7, 41.2 1.8, 44.3 11.5 C 55.0 0.0, 80.8 67.5, 93.4 77.2 C 100.0 66.0, 100.0 76.1, 87.9 62.7 C 85.7 78.2, 96.3 36.6, 82.5 38.7 C 98.6 43.6, 42.9 100.0, 40.4 99.7 Z" fill="none" fill-opacity="0.26" stroke="hsl(183, 71%, 60%)" stroke-width="1.56"  transform="translate(15.8 54.9) rotate(26.6) scale(1.05 0.63)" />
<path d="M 85.7 67.3 C 66.8 50.2, 88.2 77.4, 92.7 80.8 C 78.5 64.8, 35.6 0.0, 46.3 2.5 C 36.8 10.7, 30.6 83.1, 26.0 87.6 C 7.4 100.0, 89.5 38.8, 94.6 43.5 C 100.0 36.6, 26.5 22.2, 21.2 32.0 C 8.5 40.5, 37.9 94.8, 32.6 93.0 C 21.5 75.2, 35.1 75.1, 47.5 82.6 C 62.4 73.9, 100.0 0.0, 93.7 5.4 C 96.6 0.0, 17.2 90.2, 28.5 84.9 Z" fill="none" fill-opacity="0.70" stroke="hsl(151, 70%, 62%)" stroke-width="3.60"  transform="translate(2.2 19.9) rotate(111.4) scale(1.32 0.59)" />
<circle cx="10.5" cy="88.6" r="1.1" fill="hsl(151, 70%, 62%)" fill-opacity="0.65"  transform="translate(41.4 9.3) rotate(198.0) scale(1.08 0.78)" />
<circle cx="99.2" cy="54.8" r="4.5" fill="url(#g0)" fill-opacity="0.69"   />
<path d="M 71.4 42.3 C 80.2 25.8, 24.1 15.1, 20.5 25.4 C 33.7 13.4, 95.3 86.5, 92.6 84.1 C 83.3 75.6, 0.0 91.4, 1.7 79.6 C 0.0 91.8, 22.5 96.4, 32.2 86.8 C 39.6 96.4, 100.0 66.2, 93.7 76.9 C 100.0 58.8, 77.6 44.0, 64.5 46.9 C 74.9 58.6, 6.8 9.8, 9.4 6.8 C 0.0 23.0, 69.3 7.4, 67.3 17.6 C 63.0 9.3, 29.1 100.0, 28.6 89.1 C 33.1 95.5, 1.6 46.3, 9.0 54.1 Z" fill="none" fill-opacity="0.78" stroke="hsl(242, 72%, 49%)" stroke-width="1.40"  transform="translate(47.4 55.7) rotate(346.4) scale(1.00 1.93)" />
<rect x="8.7" y="13.3" width="49.4" height="34.2" rx="0" fill="none" fill-opacity="0.80"  filter="url(#f1)" transform="translate(66.8 62.9) rotate(99.0) scale(1.48 1.73)" />
<rect x="29.2" y="37.1" width="37.3" height="16.6" rx="1.1" fill="none" fill-opacity="0.94" stroke="hsl(151, 70%, 62%)" stroke-width="1.3"  transform="translate(63.0 84.9) rotate(213.2) scale(0.96 1.96)" />
<path d="M 41.5 80.4 C 57.7 90.6, 77.7 81.0, 77.8 86.0 C 70.6 96.3, 56.3 32.7, 44.7 43.4 C 59.6 62.5, 16.3 20.9, 18.6 31.8 C 23.8 26.0, 20.5 49.2, 11.8 44.3 C 25.0 28.0, 46.4 63.5, 52.4 60.3 C 55.1 42.2, 61.7 22.6, 63.2 10.9 C 79.4 28.6, 31.4 19.0, 24.2 26.2 C 29.9 33.7, 72.1 24.1, 61.7 18.9 Z" fill="none" fill-opacity="0.34" stroke="hsl(83, 65%, 44%)" stroke-width="2.24"  transform="translate(46.6 28.6) rotate(14.1) scale(1.04 1.01)" />
<path d="M 69.7 89.2 C 65.7 70.3, 55.9 47.1, 52.6 35.7 C 69.7 52.2, 0.6 10.1, 6.7 7.2 C 21.9 0.0, 48.8 65.5, 47.3 58.8 C 42.5 51.4, 49.2 94.8, 46.2 88.6 C 57.3 99.8, 100.0 57.1, 96.8 64.6 C 100.0 69.2, 49.1 92.1, 40.5 97.6 C 54.4 88.6, 50.5 8.6, 49.8 16.0 C 32.9 0.0, 55.9 33.0, 70.5 39.8 " fill="hsl(86, 72%, 68%)" fill-opacity="0.75" stroke="none" stroke-width="4.30"  transform="translate(32.8 40.6) rotate(264.0) scale(1.54 1.70)" />
<rect x="4.7" y="17.6" width="23.2" height="36.6" rx="16.8" fill="none" fill-opacity="0.85"   transform="translate(94.6 31.8) rotate(315.3) scale(0.96 1.78)" />
<rect x="43.1" y="60.6" width="21.6" height="31.3" rx="0" fill="none" fill-opacity="0.31"   transform="translate(88.4 33.0) rotate(87.8) scale(0.99 1.40)" />
<path d="M 68.0 91.5 C 58.4 93.8, 0.2 64.1, 1.1 49.2 C 0.0 51.4, 97.9 56.2, 99.0 56.8 C 96.0 39.7, 47.1 49.2, 45.1 42.4 C 43.6 45.0, 87.4 100.0, 82.6 97.4 C 99.1 86.4, 64.6 87.6, 73.4 74.4 C 86.2 63.3, 100.0 20.4, 95.1 34.7 C 95.1 23.0, 13.4 48.0, 0.8 60.5 C 16.4 64.9, 43.4 85.3, 43.8 97.5 C 62.6 90.9, 92.0 47.3, 98.1 51.0 C 100.0 33.6, 39.8 83.9, 26.7 90.0 Z" fill="hsl(151, 70%, 62%)" fill-opacity="0.86" stroke="none" stroke-width="3.28"   />
<path d="M 83.6 29.7 C 98.2 33.2, 40.4 25.1, 35.8 25.9 C 50.0 14.9, 51.4 12.6, 49.3 2.6 C 33.3 20.3, 58.3 21.4, 67.4 7.2 C 49.1 0.0, 97.3 88.2, 83.9 96.9 C 67.7 80.1, 98.3 18.4, 88.6 21.2 C 68.6 13.6, 40.8 6.8, 27.4 17.8 C 40.7 9.8, 76.8 30.4, 84.6 27.3 C 71.0 25.7, 62.1 23.7, 65.7 32.0 Z" fill="hsl(2, 82%, 55%)" fill-opacity="0.52" stroke="none" stroke-width="3.81"  transform="translate(74.2 22.9) rotate(262.9) scale(1.90 1.59)" />
<rect x="37.2" y="15.5" width="35.5" height="25.8" rx="0" fill="hsl(144, 86%, 72%)" fill-opacity="0.36"  filter="url(#f1)" transform="translate(7.6 80.9) rotate(144.8) scale(1.41 1.62)" />
<path d="M 6.3 51.0 C 9.8 70.9, 100.0 52.5, 93.7 48.5 C 90.2 55.2, 100.0 57.6, 99.8 61.6 C 100.0 58.4, 17.0 16.2, 9.4 24.0 C 0.0 15.2, 13.2 48.0, 11.1 33.5 C 18.1 29.3, 23.3 20.0, 16.9 11.5 C 0.3 10.2, 18.7 28.7, 30.2 32.1 C 11.0 24.2, 53.4 25.2, 42.4 17.4 Z" fill="hsl(2, 82%, 55%)" fill-opacity="0.40" stroke="none" stroke-width="2.94"  transform="translate(81.5 94.9) rotate(287.3) scale(1.37 1.91)" />
<rect x="48.0" y="14.7" width="30.3" height="27.6" rx="0" fill="hsl(2, 82%, 55%)" fill-opacity="0.33"   transform="translate(17.8 19.3) rotate(22.2) scale(1.47 1.50)" />
<path d="M 56.1 44.4 C 42.1 62.2, 64.3 46.3, 61.3 49.2 C 47.9 52.4, 26.5 45.7, 20.7 35.5 C 39.8 38.7, 77.9 47.0, 75.9 45.4 C 83.3 39.9, 14.6 64.4, 1.1 79.0 C 0.0 90.3, 100.0 77.0, 92.2 88.3 C 100.0 70.8, 46.6 100.0, 32.6 98.8 C 39.4 93.6, 16.9 76.5, 20.1 66.2 C 18.9 63.4, 98.8 31.2, 95.4 41.3 Z" fill="hsl(322, 74%, 44%)" fill-opacity="0.80" stroke="none" stroke-width="1.26"  transform="translate(61.5 44.0) rotate(73.7) scale(1.83 0.88)" />
<rect x="8.3" y="39.1" width="29.3" height="33.4" rx="3.8" fill="hsl(242, 72%, 49%)" fill-opacity="0.72" stroke="hsl(242, 72%, 49%)" stroke-width="2.8"  transform="translate(38.2 21.2) rotate(83.1) scale(1.27 0.59)" />
<rect x="55.7" y="9.3" width="25.6" height="16.8" rx="0" fill="none" fill-opacity="0.34"   transform="translate(71.7 51.7) rotate(43.5) scale(0.50 1.96)" />
<path d="M 63.4 38.2 C 65.2 28.1, 82.9 81.5, 93.3 66.5 C 76.0 65.4, 38.3 73.3, 49.1 67.7 C 49.3 83.6, 85.9 40.6, 94.9 29.2 C 83.4 27.8, 55.8 78.4, 48.0 75.2 C 28.2 80.6, 81.3 18.8, 82.5 22.8 C 76.4 27.2, 100.0 30.7, 99.2 19.3 C 100.0 17.5, 37.2 0.0, 27.6 0.4 C 14.5 18.7, 30.5 12.1, 20.1 15.2 C 37.7 31.3, 62.1 62.0, 65.4 58.8 Z" fill="hsl(322, 74%, 44%)" fill-opacity="0.39" stroke="none" stroke-width="4.03"  transform="translate(19.4 60.6) rotate(205.8) scale(1.95 1.92)" />
<path d="M 50.3 32.8 C 49.6 15.1, 41.0 2.9, 49.2 14.8 C 46.1 34.3, 87.5 99.8, 78.2 95.7 C 79.7 91.9, 0.0 44.5, 9.8 36.9 C 9.0 50.6, 64.6 59.7, 50.1 65.9 C 61.5 49.3, 20.3 36.7, 32.8 31.5 C 52.0 26.2, 76.8 34.5, 76.1 21.5 C 60.8 13.7, 100.0 20.0, 93.9 25.1 C 100.0 38.0, 70.5 67.1, 81.7 71.1 C 74.9 62.5, 31.2 7.0, 16.8 0.1 Z" fill="hsl(144, 86%, 72%)" fill-opacity="0.32" stroke="none" stroke-width="2.73"  transform="translate(1.9 45.9) rotate(44.4) scale(1.95 2.00)" />
<path d="M 21.6 27.2 C 9.1 20.6, 61.9 89.0, 67.3 78.4 C 59.5 63.7, 10.3 37.4, 5.1 44.6 C 0.0 36.0, 61.2 56.8, 67.5 57.2 C 68.4 65.2, 23.2 73.2, 30.0 68.9 C 34.7 77.4, 53.1 86.2, 63.0 92.1 C 74.1 97.7, 89.0 26.2, 88.7 27.8 C 100.0 23.2, 56.3 80.6, 57.2 68.0 Z" fill="hsl(40, 53%, 69%)" fill-opacity="0.79" stroke="none" stroke-width="5.09"  transform="translate(2.8 4.3) rotate(76.1) scale(0.55 1.87)" />
<path d="M 44.9 72.1 C 36.4 70.8, 32.9 74.9, 42.7 83.4 C 23.4 67.8, 0.0 76.9, 3.5 81.7 C 17.4 93.2, 43.2 21.8, 56.7 11.3 C 48.1 0.0, 0.0 74.4, 2.7 73.6 C 0.0 66.6, 30.3 77.2, 43.8 64.3 C 61.9 73.1, 42.7 79.7, 40.8 75.6 C 40.9 67.9, 87.8 75.0, 99.8 68.0 C 80.7 56.6, 14.6 100.0, 11.2 98.4 Z" fill="hsl(242, 72%, 49%)" fill-opacity="0.73" stroke="none" stroke-width="3.42"  transform="translate(31.8 96.4) rotate(10.6) scale(1.34 0.90)" />
<path d="M 98.1 9.6 C 100.0 0.0, 20.6 73.0, 19.7 75.3 C 3.2 68.2, 36.9 2.3, 39.0 12.0 C 49.1 0.0, 13.0 89.3, 13.6 77.1 C 0.0 75.5, 70.2 17.7, 71.8 10.5 C 75.3 30.0, 100.0 0.0, 93.3 3.5 C 93.2 3.5, 14.8 94.1, 8.9 82.6 C 24.1 91.6, 37.2 21.5, 45.6 34.0 C 26.4 48.4, 76.9 75.7, 68.7 63.0 Z" fill="none" fill-opacity="0.35" stroke="hsl(144, 86%, 72%)" stroke-width="3.44"  transform="translate(30.4 42.8) rotate(255.7) scale(0.78 1.01)" />
<path d="M 79.1 2.4 C 76.6 16.3, 12.8 77.9, 23.2 78.4 C 9.5 93.6, 44.7 63.0, 37.7 73.2 C 25.7 87.7, 77.1 97.5, 90.0 96.1 C 80.5 82.5, 69.9 84.5, 81.6 79.0 C 93.0 75.8, 60.4 0.0, 74.4 3.5 C 64.4 23.5, 28.0 92.1, 21.7 87.1 C 22.8 100.0, 18.6 4.4, 13.8 10.7 C 20.2 0.0, 20.2 38.5, 21.8 39.4 C 9.3 52.3, 43.9 5.3, 35.6 10.2 C 36.8 0.0, 52.7 21.9, 47.4 29.7 " fill="hsl(290, 83%, 63%)" fill-opacity="0.48" stroke="none" stroke-width="3.48"   />
<path d="M 99.9 44.3 C 95.6 34.4, 39.1 29.2, 52.3 31.5 C 66.1 50.7, 8.2 28.9, 11.9 14.9 C 11.8 2.6, 93.2 58.9, 89.0 57.6 C 85.7 71.3, 68.5 88.9, 83.3 81.4 C 96.8 74.9, 46.8 49.3, 54.7 60.6 C 66.0 55.2, 77.2 38.3, 67.0 34.0 C 60.9 29.7, 34.1 25.7, 42.9 29.7 C 34.7 40.1, 51.4 76.2, 51.2 70.0 Z" fill="none" fill-opacity="0.81" stroke="hsl(290, 83%, 63%)" stroke-width="4.06"  transform="translate(56.7 67.7) rotate(128.3) scale(1.34 0.64)" />
<rect x="64.5" y="79.8" width="30.2" height="19.0" rx="12.6" fill="none" fill-opacity="0.67"   transform="translate(76.2 76.3) rotate(4.0) scale(1.92 0.98)" />
<path d="M 60.5 84.4 C 80.2 76.8, 22.3 74.6, 10.7 89.6 C 0.0 79.4, 59.6 70.3, 56.4 78.7 C 49.5 85.2, 57.2 31.9, 63.3 36.4 C 52.8 19.4, 9.0 98.8, 15.5 86.8 C 6.6 79.7, 40.8 44.3, 41.0 33.0 C 23.6 50.0, 81.4 81.4, 74.3 95.7 C 60.9 84.8, 61.6 66.8, 63.5 73.7 C 47.3 86.3, 50.4 93.6, 55.2 79.4 C 36.7 91.8, 45.2 17.3, 34.2 10.5 C 36.6 0.0, 20.1 47.4, 6.4 56.9 Z" fill="none" fill-opacity="0.33" stroke="hsl(86, 72%, 68%)" stroke-width="1.53"  transform="translate(45.2 12.7) rotate(132.9) scale(1.99 1.07)" />
<rect x="17.0" y="52.1" width="42.8" height="22.3" rx="17.6" fill="none" fill-opacity="0.94"   transform="translate(27.9 52.7) rotate(71.8) scale(0.53 1.88)" />
<path d="M 43.6 3.3 C 25.7 0.0, 31.4 0.0, 27.2 1.9 C 44.3 1.8, 71.6 0.0, 81.7 11.0 C 68.4 12.9, 0.0 49.9, 10.8 61.2 C 19.1 65.4, 100.0 12.9, 88.8 4.3 C 100.0 15.4, 25.3 55.6, 15.9 40.9 C 11.3 60.6, 2.3 96.0, 11.4 91.5 Z" fill="hsl(144, 86%, 72%)" fill-opacity="0.82" stroke="none" stroke-width="4.20"   />
<rect x="33.8" y="49.9" width="37.8" height="32.7" rx="0" fill="hsl(322, 74%, 44%)" fill-opacity="0.61" stroke="hsl(242, 72%, 49%)" stroke-width="4.2"  transform="translate(97.9 82.9) rotate(327.3) scale(0.69 1.28)" />
<circle cx="67.8" cy="79.4" r="13.3" fill="url(#g2)" fill-opacity="0.49" filter="url(#f1)" transform="translate(32.8 86.6) rotate(272.1) scale(1.59 1.33)" />
<path d="M 96.3 32.1 C 100.0 27.3, 60.7 88.5, 70.6 77.1 C 71.8 70.0, 54.2 45.6, 59.2 51.0 C 39.4 53.3, 32.1 81.3, 23.1 84.3 C 42.4 93.3, 76.6 45.9, 77.4 38.9 C 74.9 32.9, 67.6 22.0, 73.5 8.9 C 56.8 8.6, 80.6 11.4, 83.8 26.1 C 71.8 13.4, 91.2 0.0, 90.5 0.9 Z" fill="none" fill-opacity="0.74" stroke="hsl(242, 72%, 49%)" stroke-width="1.30"  transform="translate(48.3 57.0) rotate(307.1) scale(1.63 1.52)" />
<path d="M 88.1 74.5 C 77.6 73.8, 0.0 25.1, 0.7 27.6 C 0.0 14.0, 62.7 47.4, 50.5 42.3 C 33.5 41.6, 33.0 51.2, 34.3 49.0 C 34.7 64.5, 35.6 71.6, 32.1 77.5 C 43.0 89.0, 25.4 46.8, 32.7 48.1 C 27.6 43.2, 74.9 82.9, 83.0 71.0 C 76.2 62.0, 23.4 33.0, 11.5 33.4 C 12.8 50.3, 47.3 16.7, 44.7 26.2 C 44.4 13.5, 61.1 7.7, 62.8 20.8 Z" fill="none" fill-opacity="0.90" stroke="hsl(104, 72%, 65%)" stroke-width="3.53"  transform="translate(31.9 18.8) rotate(332.0) scale(1.10 0.80)" />
<circle cx="13.6" cy="48.4" r="12.4" fill="hsl(151, 70%, 62%)" fill-opacity="0.53"  transform="translate(45.5 50.9) rotate(34.3) scale(0.69 1.42)" />
<path d="M 62.1 59.0 C 79.2 50.5, 15.6 82.1, 13.5 69.5 C 31.8 74.3, 33.3 59.8, 36.6 54.6 C 40.4 65.5, 44.4 68.3, 57.8 64.9 C 63.3 59.0, 54.0 6.5, 58.9 13.6 C 77.1 24.2, 74.4 75.6, 70.3 70.6 C 61.4 72.8, 62.7 57.1, 55.2 52.2 C 55.9 43.7, 34.1 37.5, 47.2 45.6 Z" fill="hsl(183, 71%, 60%)" fill-opacity="0.67" stroke="none" stroke-width="1.31"   />
<circle cx="96.8" cy="4.9" r="2.4" fill="url(#g2)" fill-opacity="0.75"  transform="translate(31.2 89.5) rotate(334.6) scale(1.15 0.75)" />
<path d="M 72.2 44.1 C 57.1 50.0, 98.6 12.2, 92.4 9.7 C 73.3 25.3, 28.5 80.4, 42.5 89.5 C 61.9 75.8, 7.8 66.4, 6.5 69.5 C 4.3 87.1, 56.2 91.8, 46.7 80.6 C 57.1 67.5, 93.6 28.2, 85.1 29.3 C 100.0 16.6, 1.4 38.5, 6.7 43.7 Z" fill="none" fill-opacity="0.93" stroke="hsl(86, 72%, 68%)" stroke-width="1.13"  transform="translate(78.9 99.4) rotate(124.5) scale(1.83 1.49)" />
<circle cx="52.3" cy="14.2" r="4.9" fill="url(#g0)" fill-opacity="0.45"  transform="translate(29.3 5.9) rotate(149.8) scale(1.29 1.82)" />
<rect x="3.5" y="77.2" width="35.4" height="18.0" rx="2.1" fill="hsl(106, 75%, 59%)" fill-opacity="0.79"  filter="url(#f1)" transform="translate(62.0 19.5) rotate(133.9) scale(1.56 1.07)" />
<path d="M 16.2 85.8 C 18.3 79.3, 39.9 76.1, 34.3 74.5 C 18.8 56.7, 0.0 15.8, 8.1 9.1 C 3.7 12.0, 28.7 72.0, 31.1 59.5 C 35.6 47.7, 13.2 65.8, 11.4 66.9 C 11.0 52.6, 45.5 78.3, 30.9 73.4 C 12.4 93.4, 84.7 80.9, 90.6 73.4 Z" fill="hsl(40, 53%, 69%)" fill-opacity="0.83" stroke="none" stroke-width="3.39" filter="url(#f1)" transform="translate(62.1 43.5) rotate(358.0) scale(1.38 1.86)" />
<rect x="26.5" y="30.6" width="35.0" height="36.4" rx="9.4" fill="hsl(106, 75%, 59%)" fill-opacity="0.81"   transform="translate(27.9 71.0) rotate(34.8) scale(1.89 1.64)" />
<rect x="2.5" y="67.0" width="33.2" height="28.1" rx="14.6" fill="none" fill-opacity="0.67"   transform="translate(57.1 58.9) rotate(46.7) scale(1.09 0.94)" />
<path d="M 41.6 90.8 C 33.2 71.5, 24.1 77.3, 27.3 85.2 C 31.2 99.3, 72.6 7.6, 63.1 6.7 C 72.3 0.0, 72.0 29.1, 78.4 37.4 C 71.3 19.5, 19.0 42.9, 18.2 42.7 C 13.9 58.7, 0.0 86.0, 7.1 89.1 C 0.0 74.1, 46.0 68.2, 59.4 53.5 C 51.8 65.9, 44.5 33.1, 59.5 48.1 C 65.1 49.5, 38.9 82.1, 31.9 93.2 Z" fill="none" fill-opacity="0.49" stroke="hsl(183, 71%, 60%)" stroke-width="1.23"  transform="translate(11.7 80.0) rotate(62.1) scale(0.85 1.42)" />
<path d="M 46.8 59.1 C 63.1 74.8, 91.5 72.5, 84.9 79.0 C 78.9 66.1, 41.0 66.5, 47.2 75.8 C 47.2 67.6, 51.8 42.4, 54.1 34.2 C 55.2 39.2, 28.5 79.6, 36.6 64.8 C 30.8 64.5, 95.8 63.4, 89.0 73.0 C 86.5 74.0, 53.1 56.5, 64.6 67.3 C 74.8 66.9, 96.9 91.0, 96.5 97.3 C 98.0 100.0, 81.9 9.8, 67.1 2.2 C 53.0 0.0, 10.4 82.8, 13.3 72.7 C 15.8 54.9, 69.1 20.6, 69.0 13.4 Z" fill="hsl(2, 82%, 55%)" fill-opacity="0.86" stroke="none" stroke-width="4.12" filter="url(#f1)" transform="translate(6.8 68.4) rotate(199.1) scale(0.92 0.68)" />
<path d="M 78.6 1.9 C 91.9 0.0, 13.5 15.5, 14.4 9.8 C 22.8 9.1, 5.1 50.7, 8.6 41.9 C 14.9 24.1, 67.5 0.6, 67.3 0.3 C 75.3 0.0, 76.0 68.6, 61.5 60.7 C 47.3 42.8, 19.0 41.4, 13.7 30.0 C 6.8 47.9, 35.5 73.8, 30.8 71.2 C 13.5 90.3, 83.5 55.2, 94.7 43.4 C 100.0 48.3, 66.0 46.9, 51.5 55.0 C 35.3 42.0, 51.8 100.0, 45.8 98.2 Z" fill="none" fill-opacity="0.49" stroke="hsl(106, 75%, 59%)" stroke-width="1.09"  transform="translate(90.5 85.1) rotate(199.7) scale(0.66 1.81)" />
<path d="M 72.9 96.9 C 60.9 100.0, 100.0 0.0, 98.2 5.8 C 90.3 22.2, 23.5 18.8, 14.6 33.8 C 2.6 41.3, 32.2 29.5, 38.7 26.0 C 43.4 38.2, 100.0 79.1, 87.5 78.6 C 100.0 79.3, 69.8 6.9, 81.5 19.8 C 78.1 39.2, 27.6 0.0, 25.4 4.6 Z" fill="hsl(104, 72%, 65%)" fill-opacity="0.46" stroke="none" stroke-width="1.23"  transform="translate(72.6 41.0) rotate(357.7) scale(1.42 0.90)" />
<circle cx="79.6" cy="38.4" r="4.1" fill="hsl(242, 72%, 49%)" fill-opacity="0.50"  transform="translate(67.5 24.7) rotate(56.2) scale(1.59 0.95)" />
<path d="M 27.9 9.5 C 29.7 0.0, 35.8 56.0, 26.3 48.4 C 35.4 56.4, 20.8 27.8, 16.2 24.8 C 12.1 23.5, 51.7 87.1, 41.6 73.3 C 41.4 79.1, 55.3 52.2, 64.5 60.2 C 66.4 61.5, 7.7 82.3, 14.0 84.8 C 7.2 93.0, 6.2 65.4, 16.3 63.5 C 21.9 79.8, 32.1 21.2, 17.9 14.0 C 0.0 33.6, 59.3 98.4, 66.8 92.2 Z" fill="none" fill-opacity="0.37" stroke="hsl(106, 75%, 59%)" stroke-width="4.81"  transform="translate(5.0 90.4) rotate(217.5) scale(1.03 1.21)" />
<rect x="29.4" y="83.5" width="41.9" height="16.1" rx="6.7" fill="none" fill-opacity="0.75" stroke="hsl(322, 74%, 44%)" stroke-width="2.6"   />
<rect x="15.4" y="57.8" width="24.8" height="24.6" rx="0.1" fill="hsl(151, 70%, 62%)" fill-opacity="0.96"   transform="translate(64.7 76.7) rotate(181.0) scale(1.17 0.72)" />
<rect x="19.5" y="25.8" width="32.4" height="22.0" rx="0" fill="hsl(106, 75%, 59%)" fill-opacity="0.76" stroke="hsl(322, 74%, 44%)" stroke-width="4.4"   />
<rect x="50.7" y="28.2" width="28.6" height="13.8" rx="5.8" fill="hsl(144, 86%, 72%)" fill-opacity="0.93"    />
<path d="M 85.9 91.1 C 77.8 100.0, 62.1 63.5, 47.5 70.0 C 29.9 78.7, 9.0 64.0, 23.2 69.3 C 16.6 52.3, 32.2 80.7, 17.9 78.3 C 30.6 82.0, 0.0 73.8, 6.7 68.8 C 20.2 60.8, 72.4 18.7, 77.8 25.9 C 58.6 18.1, 80.3 43.1, 67.1 45.2 C 51.0 41.3, 64.6 100.0, 79.2 99.8 Z" fill="hsl(104, 72%, 65%)" fill-opacity="0.26" stroke="none" stroke-width="5.10"  transform="translate(20.3 19.0) rotate(95.5) scale(1.06 1.46)" />
<rect x="4.1" y="0.2" width="37.7" height="31.0" rx="0" fill="hsl(104, 72%, 65%)" fill-opacity="0.34"   transform="translate(85.8 46.6) rotate(224.5) scale(1.95 1.29)" />
<path d="M 3.6 4.3 C 19.4 0.0, 96.3 81.9, 90.5 83.1 C 83.0 69.5, 100.0 46.1, 94.2 43.6 C 100.0 43.0, 37.1 31.3, 48.1 30.4 C 40.7 33.1, 62.7 27.5, 51.9 15.6 C 69.3 31.1, 0.0 48.1, 4.6 35.7 C 0.0 36.7, 17.9 33.5, 23.2 26.4 C 5.6 28.1, 55.3 61.9, 64.1 63.7 C 81.8 69.6, 71.9 68.5, 69.2 61.8 C 75.3 49.0, 57.0 59.4, 56.9 53.6 C 75.3 62.8, 53.1 28.3, 57.7 34.9 Z" fill="none" fill-opacity="0.74" stroke="hsl(151, 70%, 62%)" stroke-width="4.26" filter="url(#f1)" transform="translate(64.9 62.4) rotate(290.5) scale(1.13 0.88)" />
<circle cx="64.3" cy="93.3" r="18.4" fill="hsl(40, 53%, 69%)" fill-opacity="0.60"  transform="translate(40.1 90.4) rotate(40.7) scale(1.06 1.51)" />
<rect x="19.3" y="60.7" width="48.2" height="24.9" rx="0" fill="none" fill-opacity="0.53"  filter="url(#f1)" transform="translate(53.5 21.0) rotate(299.5) scale(1.72 1.87)" />
<rect x="20.3" y="63.3" width="46.0" height="35.1" rx="0" fill="hsl(40, 53%, 69%)" fill-opacity="0.24"    />
<path d="M 74.7 37.8 C 86.5 31.5, 37.4 89.9, 23.7 83.2 C 9.9 77.9, 29.9 87.7, 20.9 83.0 C 21.7 86.4, 85.7 18.3, 97.6 18.9 C 100.0 5.8, 61.5 90.3, 59.6 93.5 C 57.9 100.0, 15.4 100.0, 9.9 96.5 C 0.0 97.4, 44.8 25.7, 54.5 24.1 Z" fill="hsl(151, 70%, 62%)" fill-opacity="0.60" stroke="none" stroke-width="1.01" filter="url(#f1)"  />
<circle cx="51.4" cy="44.1" r="18.8" fill="hsl(104, 72%, 65%)" fill-opacity="0.62"  transform="translate(68.8 85.2) rotate(47.2) scale(1.87 0.63)" />
<circle cx="30.3" cy="89.6" r="9.6" fill="hsl(83, 65%, 44%)" fill-opacity="0.78"  transform="translate(71.4 87.4) rotate(314.3) scale(0.71 1.82)" />
<rect x="24.8" y="12.9" width="44.8" height="28.3" rx="0" fill="hsl(144, 86%, 72%)" fill-opacity="0.63" stroke="hsl(104, 72%, 65%)" stroke-width="3.8" filter="url(#f1)" transform="translate(7.8 83.4) rotate(213.1) scale(1.91 0.85)" />
<circle cx="85.5" cy="17.5" r="4.6" fill="hsl(83, 65%, 44%)" fill-opacity="0.90"  transform="translate(60.5 70.5) rotate(256.7) scale(1.38 1.19)" />
<path d="M 24.2 38.7 C 14.3 26.1, 100.0 35.6, 93.4 29.7 C 100.0 14.3, 38.8 77.8, 52.2 85.6 C 53.0 70.1, 33.5 30.7, 46.1 25.8 C 41.5 14.4, 9.9 27.5, 23.4 25.8 C 24.5 39.6, 40.5 54.2, 32.0 69.1 C 44.3 57.0, 70.6 74.2, 57.4 61.7 C 39.6 46.6, 33.8 82.1, 32.7 68.7 C 50.8 78.4, 53.7 73.3, 62.7 77.3 C 52.3 59.9, 54.6 61.1, 65.4 69.4 C 76.5 73.8, 54.0 83.1, 68.5 70.1 Z" fill="hsl(151, 70%, 62%)" fill-opacity="0.42" stroke="none" stroke-width="3.07"  transform="translate(84.8 23.5) rotate(53.8) scale(0.87 1.97)" />
<circle cx="20.2" cy="20.3" r="4.4" fill="url(#g2)" fill-opacity="0.78"  transform="translate(32.2 89.7) rotate(169.6) scale(0.80 0.62)" />
<g opacity="0.033">
<rect x="0" y="0" width="1" height="100" fill="black" />
<rect x="22" y="0" width="1" height="100" fill="black" />
<rect x="44" y="0" width="1" height="100" fill="black" />
<rect x="66" y="0" width="1" height="100" fill="black" />
<rect x="88" y="0" width="1" height="100" fill="black" />
<rect x="0" y="0" width="100" height="1" fill="black" />
<rect x="0" y="22" width="100" height="1" fill="black" />
<rect x="0" y="44" width="100" height="1" fill="black" />
<rect x="0" y="66" width="100" height="1" fill="black" />
<rect x="0" y="88" width="100" height="1" fill="black" />
</g>

</svg>
