<?xml version="1.0" encoding="UTF-8"?>
<svg xmlns="http://www.w3.org/2000/svg" width="100" height="100" viewBox="0 0 100 100">
<defs>
<linearGradient id="g0" x1="0%" y1="0%" x2="100%" y2="100%">
<stop offset="0.0%" stop-color="hsl(106, 75%, 59%)" />
<stop offset="33.3%" stop-color="hsl(183, 71%, 60%)" />
<stop offset="66.7%" stop-color="hsl(242, 72%, 49%)" />
<stop offset="100.0%" stop-color="hsl(322, 74%, 44%)" />
</linearGradient>
<linearGradient id="g1" x1="0%" y1="0%" x2="100%" y2="100%">
<stop offset="0.0%" stop-color="hsl(290, 83%, 63%)" />
<stop offset="33.3%" stop-color="hsl(2, 82%, 55%)" />
<stop offset="66.7%" stop-color="hsl(86, 72%, 68%)" />
<stop offset="100.0%" stop-color="hsl(83, 65%, 44%)" />
</linearGradient>
<linearGradient id="g2" x1="0%" y1="0%" x2="100%" y2="100%">
<stop offset="0.0%" stop-color="hsl(40, 53%, 69%)" />
<stop offset="33.3%" stop-color="hsl(104, 72%, 65%)" />
<stop offset="66.7%" stop-color="hsl(144, 86%, 72%)" />
<stop offset="100.0%" stop-color="hsl(151, 70%, 62%)" />
</linearGradient>
<filter id="f1" x="-20%" y="-20%" width="140%" height="140%">
  <feGaussianBlur stdDeviation="1.2913643267920045" />
</filter>

</defs>

<rect x="36.6" y="15.2" width="48.6" height="36.6" rx="15.6" fill="none" fill-opacity="0.71"   transform="translate(81.2 35.6) rotate(123.1) scale(0.96 1.76)" />
<circle cx="97.5" cy="82.8" r="9.9" fill="url(#g0)" fill-opacity="0.73"  transform="translate(21.7 17.3) rotate(133.4) scale(1.15 1.16)" />
<path d="M 79.8 47.2 C 94.5 40.4, 85.0 80.3, 75.6 69.2 C 78.6 54.3, 34.1 55.9, 33.7 45.5 C 19.0 59.1, 93.6 58.1, 80.8 55.0 C 93.4 54.9, 85.2 22.6, 73.2 19.3 C 67.7 11.2, 99.8 55.8, 85.7 55.7 C 100.0 51.7, 98.2 72.6, 83.3 70.0 C 85.4 60.3, 0.0 0.0, 0.7 6.9 C 3.2 13.3, 0.0 37.5, 0.3 25.4 C 11.6 19.3, 86.1 46.0, 95.6 50.4 Z" fill="hsl(290, 83%, 63%)" fill-opacity="0.63" stroke="none" stroke-width="2.33"  transform="translate(22.7 47.0) rotate(170.4) scale(1.90 1.75)" />
<rect x="29.0" y="48.8" width="25.8" height="34.9" rx="4.3" fill="hsl(104, 72%, 65%)" fill-opacity="0.22"   transform="translate(64.6 6.2) rotate(353.6) scale(1.96 1.62)" />
<path d="M 34.5 80.8 C 44.1 81.0, 81.0 6.1, 89.3 12.8 C 77.0 13.1, 62.6 43.9, 70.7 49.3 C 63.2 57.4, 42.2 88.0, 28.0 92.5 C 44.3 100.0, 68.0 27.0, 64.6 14.4 C 84.5 0.0, 72.6 38.6, 71.9 24.4 C 75.5 36.3, 47.2 40.3, 55.7 52.2 C 58.7 64.2, 48.5 55.7, 58.3 55.6 Z" fill="hsl(2, 82%, 55%)" fill-opacity="0.51" stroke="none" stroke-width="2.32" filter="url(#f1)" transform="translate(61.2 13.8) rotate(325.5) scale(1.82 1.45)" />
<circle cx="98.2" cy="45.8" r="10.2" fill="hsl(40, 53%, 69%)" fill-opacity="0.98"  transform="translate(86.6 84.9) rotate(356.1) scale(1.35 0.81)" />
<path d="M 12.2 44.9 C 1.2 58.0, 48.5 26.1, 45.6 20.7 C 26.4 13.5, 64.2 50.0, 52.0 50.7 C 47.2 64.7, 57.1 92.7, 69.4 82.6 C 81.3 62.7, 20.4 80.6, 19.0 95.4 C 20.1 100.0, 36.5 60.4, 28.0 71.6 C 41.2 52.4, 95.9 86.0, 92.1 82.3 Z" fill="hsl(242, 72%, 49%)" fill-opacity="0.80" stroke="none" stroke-width="4.64"  transform="translate(67.1 20.2) rotate(355.9) scale(0.87 0.56)" />
<path d="M 26.6 42.4 C 14.2 45.8, 19.8 88.6, 25.0 87.0 C 9.3 71.9, 77.8 11.3, 75.5 14.2 C 84.2 6.3, 69.3 85.9, 61.1 71.4 C 54.0 51.5, 84.8 33.7, 89.7 31.7 C 93.2 29.1, 11.6 80.9, 17.1 86.8 C 30.7 81.0, 79.9 100.0, 66.8 92.1 C 73.9 95.3, 68.3 23.3, 76.5 8.6 C 90.7 2.6, 14.4 86.5, 6.8 87.3 C 16.5 84.9, 58.1 64.1, 46.8 67.4 C 42.3 60.8, 70.8 100.0, 69.0 96.4 Z" fill="hsl(183, 71%, 60%)" fill-opacity="0.31" stroke="none" stroke-width="2.24"  transform="translate(3.4 59.7) rotate(37.8) scale(0.56 1.59)" />
<circle cx="2.1" cy="60.6" r="0.8" fill="url(#g1)" fill-opacity="0.76"  transform="translate(18.0 44.3) rotate(228.6) scale(1.40 1.27)" />
<path d="M 32.0 78.6 C 28.1 86.4, 77.4 99.1, 86.2 91.5 C 84.0 100.0, 67.2 58.9, 56.2 54.3 C 67.9 41.0, 43.6 40.6, 50.7 47.2 C 53.1 52.9, 56.7 34.3, 55.6 42.3 C 56.1 60.8, 67.7 27.1, 58.0 25.9 C 74.0 28.7, 97.9 22.9, 96.6 12.2 C 88.8 11.6, 77.9 13.4, 88.2 6.2 C 90.3 14.3, 92.1 77.4, 81.1 85.2 C 94.2 88.2, 44.8 15.7, 35.8 18.4 C 31.2 14.6, 67.7 23.9, 78.7 35.0 Z" fill="hsl(104, 72%, 65%)" fill-opacity="0.37" stroke="none" stroke-width="1.15"  transform="translate(6.0 52.0) rotate(242.0) scale(0.80 1.69)" />
<path d="M 47.0 45.1 C 60.4 50.0, 67.5 16.3, 67.4 22.0 C 73.3 8.9, 84.9 38.6, 82.3 43.1 C 95.8 60.7, 94.7 14.8, 93.2 12.6 C 100.0 14.7, 64.8 13.6, 64.4 13.7 C 50.0 18.9, 20.8 72.9, 19.0 62.4 C 28.0 74.3, 43.0 21.8, 28.5 26.1 Z" fill="none" fill-opacity="0.92" stroke="hsl(183, 71%, 60%)" stroke-width="4.66"  transform="translate(15.4 50.9) rotate(55.7) scale(0.52 1.28)" />
<rect x="34.3" y="16.5" width="42.7" height="11.9" rx="16.1" fill="none" fill-opacity="0.67"   transform="translate(44.9 73.4) rotate(106.1) scale(1.22 1.40)" />
<circle cx="77.0" cy="23.2" r="17.4" fill="url(#g0)" fill-opacity="0.99"  transform="translate(55.0 99.7) rotate(163.6) scale(1.95 1.03)" />
<path d="M 94.9 28.0 C 77.6 33.2, 23.3 88.3, 26.8 75.8 C 26.2 56.6, 61.2 4.6, 64.9 11.0 C 67.6 28.9, 43.6 94.1, 31.9 81.4 C 26.5 65.7, 58.7 45.6, 52.8 58.6 C 59.5 69.5, 24.6 32.0, 14.8 45.3 C 22.0 32.4, 20.0 57.7, 14.2 71.0 C 0.0 67.0, 88.7 32.1, 91.5 29.1 Z" fill="hsl(242, 72%, 49%)" fill-opacity="0.32" stroke="none" stroke-width="4.88"  transform="translate(86.8 54.1) rotate(175.9) scale(0.54 1.32)" />
<circle cx="44.8" cy="41.7" r="9.1" fill="hsl(86, 72%, 68%)" fill-opacity="0.77"  transform="translate(50.7 94.7) rotate(132.3) scale(1.62 1.92)" />
<path d="M 61.4 61.0 C 47.2 67.5, 0.0 68.8, 13.5 82.2 C 4.6 84.1, 68.1 32.7, 57.5 29.8 C 57.2 24.6, 46.7 17.9, 39.0 23.9 C 36.5 10.1, 41.0 83.3, 46.8 88.5 C 42.7 78.1, 74.3 53.3, 73.0 59.8 C 60.2 53.4, 17.2 60.9, 21.6 61.3 C 25.1 79.5, 32.2 64.1, 46.8 76.3 Z" fill="hsl(104, 72%, 65%)" fill-opacity="0.51" stroke="none" stroke-width="3.20"   />
<rect x="52.3" y="62.2" width="24.3" height="32.9" rx="0" fill="hsl(83, 65%, 44%)" fill-opacity="0.80"   transform="translate(8.7 16.0) rotate(20.6) scale(0.80 0.76)" />
<path d="M 89.0 54.2 C 100.0 49.7, 37.4 83.2, 50.8 92.3 C 67.2 82.7, 64.1 0.9, 59.1 15.0 C 52.3 3.2, 22.9 47.3, 36.3 43.3 C 27.2 49.0, 61.5 30.5, 57.3 22.2 C 55.6 16.9, 97.6 69.7, 94.4 79.9 C 100.0 94.0, 89.8 4.9, 98.1 13.8 C 96.8 6.8, 58.1 60.6, 52.7 55.9 C 71.5 53.1, 0.0 6.9, 4.9 2.5 " fill="none" fill-opacity="0.82" stroke="hsl(106, 75%, 59%)" stroke-width="3.73"  transform="translate(13.6 24.3) rotate(229.4) scale(1.96 1.25)" />
<path d="M 5.1 63.4 C 2.3 77.1, 96.6 59.0, 91.1 55.7 C 100.0 51.3, 85.4 23.7, 96.5 16.9 C 94.4 28.1, 49.6 55.2, 49.3 62.6 C 63.0 50.4, 23.1 56.2, 28.2 62.1 C 32.1 44.9, 0.0 40.0, 3.7 34.9 C 16.6 33.6, 34.2 60.8, 35.5 52.4 C 47.4 36.1, 50.4 6.0, 48.9 5.5 C 52.1 0.0, 33.1 28.6, 36.3 18.5 Z" fill="none" fill-opacity="0.29" stroke="hsl(144, 86%, 72%)" stroke-width="2.05"   />
<rect x="17.7" y="11.3" width="44.8" height="17.4" rx="0" fill="hsl(83, 65%, 44%)" fill-opacity="0.47"  filter="url(#f1)"  />
<circle cx="72.7" cy="66.1" r="3.5" fill="url(#g2)" fill-opacity="0.86"  transform="translate(80.3 40.6) rotate(144.5) scale(1.30 1.77)" />
<circle cx="25.1" cy="39.9" r="5.5" fill="url(#g1)" fill-opacity="0.90" filter="url(#f1)" transform="translate(13.0 31.3) rotate(253.6) scale(0.60 0.59)" />
<path d="M 48.6 63.7 C 67.2 49.0, 44.5 78.2, 49.4 68.1 C 49.9 81.1, 52.7 23.9, 62.0 22.8 C 79.7 18.4, 80.2 48.6, 75.9 38.0 C 86.8 50.5, 35.6 0.0, 50.2 2.9 C 59.6 5.7, 44.5 35.2, 51.9 30.5 C 63.9 13.7, 89.9 83.0, 91.6 81.5 Z" fill="none" fill-opacity="0.96" stroke="hsl(40, 53%, 69%)" stroke-width="3.39"  transform="translate(53.1 53.4) rotate(248.9) scale(0.97 1.34)" />
<path d="M 93.7 49.2 C 100.0 50.3, 60.4 57.2, 64.2 57.9 C 60.6 63.1, 15.3 44.2, 2.2 44.6 C 0.0 28.1, 51.5 0.0, 41.7 5.6 C 29.5 5.2, 0.0 71.9, 12.0 61.8 C 28.0 78.3, 16.2 47.3, 10.5 36.3 C 20.3 42.2, 35.3 77.0, 39.9 91.5 C 30.8 81.1, 59.8 13.5, 45.8 22.9 C 42.3 7.0, 26.0 51.7, 28.5 57.0 C 25.0 48.5, 71.2 11.3, 82.2 14.1 C 100.0 5.0, 55.2 75.1, 59.0 80.7 Z" fill="none" fill-opacity="0.66" stroke="hsl(322, 74%, 44%)" stroke-width="4.84"   />
<rect x="58.5" y="39.5" width="38.1" height="32.2" rx="7.3" fill="none" fill-opacity="0.97"   transform="translate(48.0 72.6) rotate(45.0) scale(1.09 1.36)" />
<path d="M 42.3 20.4 C 59.1 25.4, 84.2 17.2, 81.3 23.4 C 85.9 34.7, 4.7 94.2, 18.0 88.1 C 11.2 83.2, 33.9 66.4, 21.4 53.0 C 22.6 46.6, 23.4 60.0, 31.4 73.3 C 45.6 90.5, 22.2 54.4, 13.9 62.3 C 7.4 51.0, 22.9 95.2, 11.4 85.5 Z" fill="none" fill-opacity="0.77" stroke="hsl(86, 72%, 68%)" stroke-width="1.65" filter="url(#f1)" transform="translate(7.7 10.9) rotate(9.7) scale(1.73 0.67)" />
<circle cx="1.1" cy="94.6" r="18.6" fill="url(#g1)" fill-opacity="0.86"  transform="translate(1.1 94.7) rotate(347.9) scale(1.26 1.86)" />
<circle cx="21.7" cy="84.7" r="10.6" fill="url(#g2)" fill-opacity="0.71"  transform="translate(39.9 21.3) rotate(203.7) scale(1.80 0.85)" />
<path d="M 8.6 99.9 C 28.3 92.9, 4.9 77.4, 14.6 77.0 C 17.9 68.4, 53.3 19.9, 40.5 11.8 C 58.7 16.4, 44.3 100.0, 38.5 98.0 C 49.4 83.8, 68.0 41.9, 70.6 52.7 C 89.3 35.8, 81.2 77.0, 95.8 90.7 C 100.0 82.4, 35.1 86.5, 45.0 90.7 C 41.8 100.0, 36.3 35.7, 44.9 47.6 C 30.9 67.3, 0.0 0.0, 3.5 3.2 Z" fill="hsl(83, 65%, 44%)" fill-opacity="0.42" stroke="none" stroke-width="2.66"  transform="translate(85.8 53.7) rotate(28.8) scale(1.22 1.66)" />
<path d="M 36.4 25.6 C 25.7 39.6, 1.8 53.3, 11.4 54.9 C 4.7 52.5, 22.4 55.9, 15.8 44.9 C 7.6 47.6, 22.9 38.8, 34.3 44.5 C 48.7 54.7, 99.2 32.9, 93.6 40.8 C 97.4 21.4, 35.9 97.5, 38.1 88.3 C 19.7 87.7, 46.8 34.6, 44.8 49.2 Z" fill="none" fill-opacity="0.94" stroke="hsl(151, 70%, 62%)" stroke-width="1.28"  transform="translate(79.4 13.7) rotate(27.8) scale(0.60 1.43)" />
<path d="M 86.3 16.6 C 73.4 0.0, 69.0 58.8, 61.4 64.8 C 74.7 77.3, 87.8 81.1, 93.4 94.7 C 91.4 100.0, 43.9 74.8, 43.0 78.9 C 58.2 73.1, 85.3 36.9, 77.0 24.1 C 88.4 25.1, 19.0 24.5, 25.3 15.2 C 23.3 24.6, 83.1 28.5, 97.2 42.8 " fill="none" fill-opacity="0.78" stroke="hsl(2, 82%, 55%)" stroke-width="1.54" filter="url(#f1)" transform="translate(88.1 78.6) rotate(192.8) scale(1.76 1.75)" />
<circle cx="56.1" cy="22.8" r="12.1" fill="url(#g1)" fill-opacity="0.57"  transform="translate(90.2 25.2) rotate(337.9) scale(1.15 1.82)" />
<path d="M 65.5 66.0 C 73.1 46.2, 18.4 23.7, 7.7 11.9 C 25.4 29.6, 55.7 6.9, 41.7 5.5 C 36.4 16.0, 70.6 46.9, 83.3 49.2 C 96.5 40.7, 0.0 70.1, 0.7 62.2 C 0.1 63.1, 66.4 81.8, 67.6 91.1 C 72.9 98.5, 96.4 73.6, 89.5 67.6 C 77.5 73.0, 52.5 26.5, 63.9 27.5 C 61.8 27.2, 45.9 65.4, 46.9 62.8 C 37.2 49.3, 100.0 36.2, 92.4 38.3 Z" fill="hsl(2, 82%, 55%)" fill-opacity="0.27" stroke="none" stroke-width="4.96"  transform="translate(16.0 42.5) rotate(8.2) scale(1.70 1.40)" />
<path d="M 33.4 71.5 C 44.8 59.5, 29.1 31.1, 18.1 37.1 C 5.4 44.0, 85.9 71.3, 90.3 58.7 C 73.4 53.4, 91.2 36.9, 90.6 41.4 C 91.6 29.0, 2.5 34.5, 1.3 23.1 C 2.0 28.6, 100.0 85.2, 93.1 72.5 C 87.3 53.4, 1.7 9.2, 4.4 22.8 " fill="hsl(242, 72%, 49%)" fill-opacity="0.87" stroke="none" stroke-width="3.55"  transform="translate(57.8 93.4) rotate(73.3) scale(1.38 1.77)" />
<circle cx="0.0" cy="10.1" r="1.9" fill="hsl(242, 72%, 49%)" fill-opacity="1.00"   />
<rect x="76.5" y="20.7" width="21.4" height="40.0" rx="10.3" fill="hsl(106, 75%, 59%)" fill-opacity="0.31"    />
<path d="M 93.9 55.6 C 100.0 38.2, 49.0 41.2, 41.4 39.9 C 42.7 30.9, 29.1 5.7, 32.9 3.2 C 25.5 0.0, 27.5 75.1, 18.8 70.4 C 36.1 88.3, 55.1 89.3, 61.5 93.6 C 75.2 84.1, 50.7 0.0, 46.9 4.8 C 65.3 0.0, 16.2 72.7, 9.9 60.2 C 0.0 77.1, 49.2 42.6, 51.4 52.1 C 68.6 37.3, 99.2 22.3, 85.1 21.1 C 66.6 8.5, 35.6 47.4, 22.1 52.2 Z" fill="hsl(104, 72%, 65%)" fill-opacity="0.25" stroke="none" stroke-width="2.00"  transform="translate(10.1 24.2) rotate(13.0) scale(0.72 0.56)" />
<rect x="3.8" y="32.6" width="44.3" height="16.8" rx="0" fill="hsl(144, 86%, 72%)" fill-opacity="0.62"   transform="translate(46.5 3.9) rotate(325.1) scale(1.90 1.62)" />
<rect x="13.9" y="2.9" width="30.5" height="16.6" rx="3.8" fill="none" fill-opacity="0.63"   transform="translate(31.2 22.1) rotate(158.5) scale(1.72 1.19)" />
<path d="M 7.9 13.3 C 0.0 15.7, 2.4 42.3, 5.4 50.4 C 15.9 54.3, 96.1 29.3, 90.3 27.2 C 81.1 22.0, 69.9 55.4, 78.1 67.8 C 92.4 66.4, 74.0 98.9, 77.0 86.2 C 73.1 88.6, 59.2 48.1, 57.3 50.4 C 68.8 41.6, 51.0 44.9, 58.9 54.4 C 51.3 46.5, 36.7 10.9, 29.5 22.8 C 13.4 18.6, 52.8 80.1, 64.0 77.3 C 68.2 93.8, 92.8 48.4, 85.0 38.7 Z" fill="hsl(2, 82%, 55%)" fill-opacity="0.72" stroke="none" stroke-width="4.43"  transform="translate(7.4 95.2) rotate(250.4) scale(1.30 0.91)" />
<rect x="49.8" y="13.4" width="31.4" height="26.3" rx="0" fill="hsl(104, 72%, 65%)" fill-opacity="0.48"   transform="translate(54.0 81.5) rotate(232.0) scale(1.45 1.50)" />
<path d="M 10.7 93.3 C 23.6 93.4, 47.0 64.9, 46.7 55.6 C 35.3 71.1, 47.6 100.0, 36.4 87.5 C 19.3 90.0, 51.0 37.9, 60.1 49.8 C 68.8 46.2, 40.4 21.9, 50.8 24.0 C 67.3 31.2, 94.1 40.2, 93.8 28.0 C 100.0 20.5, 57.8 81.0, 51.0 71.3 C 40.2 73.7, 3.0 14.9, 1.6 0.2 C 0.0 10.7, 83.7 56.1, 92.5 65.5 C 100.0 83.3, 95.6 8.7, 86.1 17.1 C 96.6 11.4, 85.9 41.9, 82.6 47.3 Z" fill="hsl(40, 53%, 69%)" fill-opacity="0.30" stroke="none" stroke-width="4.78"  transform="translate(42.9 73.0) rotate(179.0) scale(1.97 1.31)" />
<rect x="62.7" y="60.2" width="22.7" height="39.0" rx="0" fill="hsl(83, 65%, 44%)" fill-opacity="0.61"   transform="translate(66.5 35.4) rotate(160.2) scale(1.74 1.32)" />
<circle cx="24.5" cy="69.4" r="0.8" fill="url(#g1)" fill-opacity="0.45"  transform="translate(19.5 18.7) rotate(218.8) scale(1.43 1.31)" />
<path d="M 60.2 30.6 C 40.5 37.1, 93.7 89.3, 88.4 77.1 C 79.2 65.0, 57.8 71.1, 70.7 69.6 C 76.9 69.2, 11.3 0.0, 5.1 10.9 C 0.0 17.8, 9.6 17.6, 24.3 27.4 C 12.7 10.1, 14.9 23.3, 14.2 21.7 C 23.7 28.4, 27.6 3.3, 13.5 6.1 C 1.6 23.6, 48.5 68.7, 40.1 66.4 C 29.3 75.5, 44.2 91.4, 40.5 81.4 C 23.3 93.8, 16.1 47.4, 6.3 34.3 Z" fill="hsl(151, 70%, 62%)" fill-opacity="0.86" stroke="none" stroke-width="1.55"   />
<circle cx="41.4" cy="42.1" r="5.5" fill="url(#g0)" fill-opacity="0.97"  transform="translate(35.5 20.3) rotate(279.1) scale(0.91 0.55)" />
<path d="M 30.0 10.1 C 37.1 29.2, 39.4 45.7, 45.4 52.6 C 47.6 69.4, 11.4 9.5, 10.3 10.9 C 18.1 24.7, 52.7 81.7, 57.0 90.9 C 74.2 75.9, 34.2 24.0, 44.3 37.2 C 39.6 56.2, 0.0 28.5, 8.0 18.1 C 20.1 30.5, 10.9 26.4, 13.0 22.4 C 23.8 27.0, 28.0 54.2, 19.3 50.0 C 12.5 39.0, 37.7 82.4, 52.4 92.3 Z" fill="hsl(151, 70%, 62%)" fill-opacity="0.40" stroke="none" stroke-width="1.99"  transform="translate(23.4 48.7) rotate(208.8) scale(0.73 1.72)" />
<path d="M 95.5 37.9 C 76.0 29.7, 100.0 3.3, 93.2 17.7 C 92.0 9.9, 48.4 100.0, 55.9 99.1 C 59.8 100.0, 0.0 66.6, 0.7 54.0 C 8.6 66.4, 12.9 87.7, 10.6 84.0 C 25.0 96.4, 79.1 26.9, 64.5 40.0 C 60.5 37.5, 38.0 44.1, 31.3 54.1 Z" fill="hsl(106, 75%, 59%)" fill-opacity="0.93" stroke="none" stroke-width="2.25" filter="url(#f1)" transform="translate(60.4 78.9) rotate(30.0) scale(1.78 1.08)" />
<circle cx="32.9" cy="21.9" r="10.2" fill="url(#g0)" fill-opacity="0.89"  transform="translate(60.1 29.0) rotate(279.7) scale(1.42 1.95)" />
<path d="M 80.9 30.7 C 81.6 23.9, 53.7 1.1, 45.3 7.0 C 35.2 0.0, 54.3 67.4, 40.0 62.1 C 48.4 80.4, 40.7 81.6, 51.0 85.1 C 33.8 72.4, 39.9 1.2, 36.9 9.2 C 27.6 0.0, 12.6 75.3, 1.5 82.1 C 0.0 82.0, 35.4 78.6, 23.7 91.6 C 25.6 85.5, 43.3 83.2, 57.5 85.2 " fill="none" fill-opacity="0.94" stroke="hsl(144, 86%, 72%)" stroke-width="4.53" filter="url(#f1)" transform="translate(7.0 31.7) rotate(20.3) scale(1.45 1.83)" />
<path d="M 4.6 44.1 C 0.0 25.1, 30.9 21.3, 18.8 8.6 C 35.9 27.7, 77.0 46.0, 75.6 50.1 C 74.1 59.2, 79.7 13.1, 67.3 21.7 C 73.3 25.5, 5.7 85.3, 4.7 88.9 C 16.9 89.2, 100.0 38.7, 91.8 45.7 C 76.7 62.9, 84.0 22.4, 95.0 34.3 C 81.0 20.6, 53.4 88.1, 65.5 86.4 Z" fill="hsl(104, 72%, 65%)" fill-opacity="0.31" stroke="none" stroke-width="3.66"  transform="translate(29.5 63.5) rotate(190.9) scale(1.46 1.66)" />
<path d="M 58.1 10.6 C 40.3 3.4, 79.9 83.7, 67.0 90.0 C 57.3 91.2, 33.9 96.1, 36.7 98.9 C 17.9 100.0, 16.1 44.3, 17.6 49.4 C 13.5 60.6, 74.8 76.8, 72.5 68.7 C 80.4 64.8, 85.0 33.0, 86.9 39.4 C 100.0 33.9, 31.6 25.8, 22.5 13.0 C 6.7 23.4, 17.6 64.8, 30.2 75.3 C 24.6 59.6, 95.0 100.0, 95.4 95.8 C 100.0 89.1, 32.7 74.3, 30.4 63.1 C 13.2 56.2, 17.9 66.5, 13.3 79.3 Z" fill="none" fill-opacity="0.67" stroke="hsl(242, 72%, 49%)" stroke-width="4.87"   />
<rect x="11.8" y="10.9" width="20.1" height="14.7" rx="0" fill="none" fill-opacity="0.25"   transform="translate(85.4 45.5) rotate(109.5) scale(1.62 1.06)" />
<circle cx="25.6" cy="94.7" r="9.2" fill="hsl(144, 86%, 72%)" fill-opacity="0.72"  transform="translate(72.5 43.1) rotate(322.5) scale(0.88 1.27)" />
<rect x="29.5" y="57.4" width="25.1" height="21.6" rx="15.6" fill="hsl(290, 83%, 63%)" fill-opacity="0.67"   transform="translate(40.8 29.1) rotate(347.4) scale(1.40 0.98)" />
<rect x="46.0" y="61.2" width="41.1" height="25.3" rx="8.2" fill="hsl(183, 71%, 60%)" fill-opacity="0.91"   transform="translate(55.7 92.0) rotate(67.0) scale(1.13 1.27)" />
<path d="M 17.2 66.6 C 21.8 67.2, 82.2 0.0, 68.5 2.9 C 61.8 0.0, 52.4 100.0, 47.9 85.7 C 28.4 95.7, 91.2 69.1, 97.5 73.5 C 100.0 66.2, 44.1 54.9, 31.4 69.7 C 18.1 80.4, 56.3 91.0, 53.4 94.7 C 69.3 88.8, 9.3 79.9, 4.9 65.2 C 17.8 49.4, 97.0 92.4, 95.4 91.4 " fill="none" fill-opacity="0.56" stroke="hsl(2, 82%, 55%)" stroke-width="1.15"  transform="translate(51.9 31.1) rotate(260.8) scale(0.56 0.62)" />
<circle cx="9.4" cy="70.8" r="1.5" fill="url(#g2)" fill-opacity="0.46"   />
<circle cx="67.7" cy="41.1" r="2.2" fill="hsl(2, 82%, 55%)" fill-opacity="0.54"  transform="translate(35.9 56.2) rotate(87.2) scale(1.66 1.55)" />
<path d="M 70.4 22.4 C 69.8 37.7, 57.0 38.8, 65.5 40.2 C 68.9 45.6, 92.4 74.9, 82.3 68.4 C 100.0 87.0, 56.6 4.1, 62.9 4.6 C 66.7 0.0, 62.9 36.6, 69.8 40.2 C 50.2 58.3, 50.4 100.0, 46.2 97.4 C 53.2 100.0, 94.2 10.1, 89.4 18.3 C 98.2 22.9, 23.8 99.9, 12.8 98.4 C 0.0 100.0, 31.8 60.2, 45.3 48.4 Z" fill="hsl(183, 71%, 60%)" fill-opacity="0.55" stroke="none" stroke-width="4.46"  transform="translate(78.9 70.4) rotate(42.8) scale(0.64 1.98)" />
<path d="M 49.9 35.5 C 34.1 28.9, 39.9 0.0, 30.9 1.8 C 39.4 0.0, 39.0 33.7, 28.1 33.1 C 16.4 37.0, 35.8 27.3, 38.2 32.7 C 55.2 52.6, 23.5 48.6, 12.4 60.8 C 3.2 48.7, 82.2 56.7, 90.9 43.0 C 87.6 56.6, 17.2 80.3, 10.2 86.3 Z" fill="hsl(144, 86%, 72%)" fill-opacity="0.26" stroke="none" stroke-width="2.62"  transform="translate(82.7 71.1) rotate(295.2) scale(1.27 0.72)" />
<path d="M 100.0 18.0 C 100.0 21.4, 27.4 47.0, 42.2 51.7 C 41.0 68.3, 35.2 65.4, 47.1 74.9 C 52.5 71.3, 4.4 94.1, 18.5 86.7 C 4.7 88.2, 75.2 26.1, 62.3 36.5 C 47.4 36.1, 93.1 9.9, 90.0 8.5 C 94.0 0.0, 100.0 0.0, 85.8 10.6 C 77.0 20.5, 62.7 40.7, 69.3 31.6 C 72.0 21.7, 20.1 25.4, 25.2 11.4 Z" fill="hsl(83, 65%, 44%)" fill-opacity="0.63" stroke="none" stroke-width="4.35"  transform="translate(29.3 6.1) rotate(79.9) scale(1.29 1.28)" />
<path d="M 19.3 32.6 C 30.0 26.3, 28.8 19.8, 23.0 24.5 C 38.9 21.4, 100.0 100.0, 94.0 92.5 C 77.0 98.3, 7.1 49.6, 8.7 51.3 C 21.0 69.4, 74.0 34.0, 63.4 24.8 C 71.5 38.9, 59.2 46.9, 52.5 40.7 C 67.9 36.5, 38.2 41.0, 31.6 42.4 C 48.2 46.2, 25.1 86.4, 19.3 78.3 Z" fill="hsl(242, 72%, 49%)" fill-opacity="0.29" stroke="none" stroke-width="3.49" filter="url(#f1)" transform="translate(85.4 85.8) rotate(300.0) scale(0.65 0.91)" />
<rect x="1.9" y="13.0" width="23.0" height="38.0" rx="0" fill="none" fill-opacity="0.86"   transform="translate(39.9 78.5) rotate(163.6) scale(0.86 0.73)" />
<path d="M 25.7 13.0 C 17.8 0.0, 78.1 18.5, 88.0 24.3 C 86.9 29.5, 98.3 25.5, 88.9 13.5 C 69.8 2.0, 46.2 9.1, 60.7 0.5 C 71.0 0.0, 91.4 12.9, 84.1 0.9 C 82.6 4.7, 51.7 68.5, 63.1 65.4 C 74.1 53.4, 22.9 36.9, 32.7 29.2 C 29.6 11.3, 96.7 100.0, 99.0 88.5 C 85.8 100.0, 99.3 58.9, 98.4 47.2 C 100.0 61.3, 58.7 20.1, 70.2 19.8 Z" fill="none" fill-opacity="0.92" stroke="hsl(242, 72%, 49%)" stroke-width="3.68"   />
<path d="M 47.5 39.4 C 48.2 47.8, 71.7 86.9, 83.6 78.6 C 89.4 88.1, 35.1 85.3, 43.8 99.3 C 48.3 87.3, 54.8 28.7, 61.7 35.9 C 76.0 32.8, 0.0 0.0, 11.3 3.1 C 6.2 0.0, 63.9 43.6, 53.2 39.1 C 39.7 33.3, 92.5 14.6, 77.5 10.7 C 59.1 3.6, 60.4 30.7, 55.6 24.8 C 56.0 42.3, 42.9 94.9, 45.5 91.3 C 39.3 96.2, 17.7 29.0, 9.8 16.7 C 13.5 0.2, 28.9 51.5, 21.9 63.8 Z" fill="hsl(183, 71%, 60%)" fill-opacity="0.95" stroke="none" stroke-width="4.97"  transform="translate(13.0 9.0) rotate(27.1) scale(1.76 0.70)" />
<path d="M 19.7 51.7 C 27.6 37.5, 16.5 5.2, 3.7 14.7 C 5.7 29.4, 38.1 100.0, 50.7 96.6 C 50.8 98.1, 17.9 100.0, 17.9 93.3 C 15.8 89.6, 83.0 100.0, 71.9 98.8 C 73.1 93.5, 65.9 53.9, 80.2 66.5 C 81.5 75.1, 99.3 88.9, 86.3 84.1 Z" fill="none" fill-opacity="0.96" stroke="hsl(40, 53%, 69%)" stroke-width="2.73"  transform="translate(33.9 55.0) rotate(303.9) scale(0.53 1.34)" />
<path d="M 46.2 83.6 C 65.0 95.8, 29.3 94.2, 38.4 89.3 C 52.3 100.0, 16.6 73.3, 10.5 60.9 C 17.9 58.1, 38.6 78.8, 40.6 70.5 C 28.8 66.2, 0.0 9.4, 2.6 14.0 C 0.6 5.7, 100.0 54.7, 95.4 41.4 C 96.0 39.5, 9.5 45.6, 6.3 46.8 C 0.0 35.7, 23.4 10.1, 37.2 13.1 Z" fill="hsl(151, 70%, 62%)" fill-opacity="0.29" stroke="none" stroke-width="2.36"  transform="translate(40.0 35.7) rotate(123.2) scale(0.67 0.92)" />
<path d="M 0.2 80.4 C 0.0 77.5, 52.3 86.5, 65.2 80.3 C 68.1 98.2, 26.2 68.4, 26.6 80.9 C 21.5 77.7, 55.1 40.8, 51.1 40.6 C 31.4 49.7, 48.5 64.8, 58.7 66.3 C 70.5 84.6, 66.0 66.8, 66.2 59.2 C 49.1 76.4, 36.1 85.5, 26.0 82.4 C 9.3 85.0, 12.0 62.7, 20.9 74.1 C 37.8 92.0, 39.8 99.9, 52.7 87.3 C 58.0 88.8, 100.0 9.5, 98.9 15.1 C 100.0 25.7, 33.4 51.1, 26.0 57.7 Z" fill="none" fill-opacity="0.37" stroke="hsl(144, 86%, 72%)" stroke-width="1.99"  transform="translate(16.5 77.8) rotate(268.7) scale(1.30 1.23)" />
<rect x="27.0" y="56.8" width="37.7" height="34.3" rx="8.1" fill="none" fill-opacity="0.86"   transform="translate(99.1 62.5) rotate(132.6) scale(0.90 1.94)" />
<path d="M 57.6 40.0 C 72.8 49.8, 100.0 76.2, 95.1 77.9 C 91.5 74.0, 0.0 71.6, 2.4 59.0 C 2.9 51.9, 24.2 3.9, 10.2 6.0 C 8.1 0.0, 72.3 16.9, 82.9 2.6 C 70.7 0.0, 52.1 92.6, 60.3 79.2 C 40.8 79.7, 87.2 45.8, 88.3 56.9 C 84.7 65.6, 95.5 75.3, 95.1 61.0 C 100.0 60.9, 12.0 16.7, 25.4 7.0 " fill="hsl(242, 72%, 49%)" fill-opacity="0.77" stroke="none" stroke-width="5.19" filter="url(#f1)" transform="translate(47.4 55.7) rotate(101.8) scale(1.53 1.15)" />
<rect x="22.3" y="54.9" width="24.0" height="13.6" rx="4.2" fill="hsl(83, 65%, 44%)" fill-opacity="0.94"    />
<path d="M 13.1 66.2 C 18.8 65.0, 61.2 3.6, 65.9 12.4 C 46.5 0.0, 46.2 98.3, 53.9 93.4 C 70.8 100.0, 52.2 86.3, 48.5 98.7 C 58.2 100.0, 66.5 72.0, 61.2 86.9 C 41.7 73.5, 38.4 22.8, 42.2 20.5 C 49.2 22.4, 34.7 96.8, 24.3 94.8 C 27.6 100.0, 19.2 81.5, 7.6 92.1 C 0.9 84.0, 4.6 77.0, 4.0 79.2 C 0.5 90.2, 81.2 71.1, 91.4 71.3 C 83.2 70.4, 66.0 66.9, 72.1 67.7 Z" fill="hsl(322, 74%, 44%)" fill-opacity="0.98" stroke="none" stroke-width="3.05"   />
<path d="M 100.0 56.8 C 89.1 65.3, 84.2 53.5, 88.0 38.5 C 74.1 53.4, 14.1 73.8, 23.2 72.5 C 4.4 63.6, 52.6 24.6, 63.4 29.5 C 81.2 19.9, 62.6 91.6, 62.7 89.6 C 69.9 100.0, 51.2 73.3, 62.6 70.4 C 71.5 66.3, 96.0 76.1, 83.6 80.7 Z" fill="hsl(40, 53%, 69%)" fill-opacity="0.49" stroke="none" stroke-width="2.47"  transform="translate(43.8 70.9) rotate(23.2) scale(1.85 0.75)" />
<path d="M 87.7 10.3 C 90.1 13.4, 69.4 87.8, 67.2 88.2 C 52.0 82.4, 11.2 61.6, 5.7 50.3 C 4.8 31.5, 44.3 13.1, 51.5 0.2 C 46.7 19.8, 58.4 85.6, 50.7 79.7 C 35.7 70.1, 36.0 45.6, 36.9 32.2 C 54.0 32.4, 10.3 66.8, 21.0 70.7 C 17.1 60.9, 41.8 13.0, 33.7 8.3 C 39.4 8.4, 84.9 86.0, 90.7 78.8 C 85.5 63.6, 93.2 19.6, 84.3 11.0 C 100.0 3.8, 38.7 28.3, 36.0 22.0 Z" fill="hsl(104, 72%, 65%)" fill-opacity="0.87" stroke="none" stroke-width="3.90"  transform="translate(64.2 51.5) rotate(45.9) scale(0.98 1.42)" />
<circle cx="57.2" cy="58.1" r="0.7" fill="hsl(2, 82%, 55%)" fill-opacity="0.73"  transform="translate(3.2 79.8) rotate(247.4) scale(1.49 1.40)" />
<rect x="42.4" y="87.8" width="31.9" height="12.0" rx="9.2" fill="none" fill-opacity="0.32"   transform="translate(24.0 95.6) rotate(16.6) scale(1.98 1.37)" />
<path d="M 42.6 13.5 C 61.2 27.1, 19.7 0.0, 19.7 0.1 C 28.1 0.0, 82.5 80.4, 87.8 65.5 C 95.0 61.6, 37.2 73.5, 40.1 66.2 C 40.5 58.9, 75.2 97.3, 68.3 87.0 C 59.8 86.6, 27.3 35.4, 26.7 24.8 C 11.5 43.7, 93.5 60.2, 98.7 47.2 C 86.5 52.5, 68.9 56.2, 62.4 60.4 C 46.8 54.8, 5.7 52.8, 4.2 52.0 Z" fill="hsl(40, 53%, 69%)" fill-opacity="0.78" stroke="none" stroke-width="0.90"  transform="translate(55.3 3.5) rotate(331.6) scale(1.14 1.34)" />
<path d="M 79.9 90.2 C 62.5 71.0, 44.9 61.2, 30.6 47.1 C 17.3 32.7, 42.7 63.7, 30.5 65.8 C 40.7 47.0, 81.3 55.0, 95.8 51.1 C 95.7 40.8, 99.2 74.4, 96.5 87.9 C 90.0 69.9, 3.7 68.9, 11.2 54.9 C 15.2 64.7, 28.5 82.6, 21.4 85.5 Z" fill="none" fill-opacity="0.46" stroke="hsl(144, 86%, 72%)" stroke-width="4.02"  transform="translate(64.8 85.9) rotate(220.3) scale(0.64 1.20)" />
<g opacity="0.056">
<rect x="0" y="0" width="1" height="100" fill="black" />
<rect x="22" y="0" width="1" height="100" fill="black" />
<rect x="44" y="0" width="1" height="100" fill="black" />
<rect x="66" y="0" width="1" height="100" fill="black" />
<rect x="88" y="0" width="1" height="100" fill="black" />
<rect x="0" y="0" width="100" height="1" fill="black" />
<rect x="0" y="22" width="100" height="1" fill="black" />
<rect x="0" y="44" width="100" height="1" fill="black" />
<rect x="0" y="66" width="100" height="1" fill="black" />
<rect x="0" y="88" width="100" height="1" fill="black" />
</g>

</svg>
