<?xml version="1.0" encoding="UTF-8"?>
<svg xmlns="http://www.w3.org/2000/svg" width="100" height="100" viewBox="0 0 100 100">
<defs>
<linearGradient id="g0" x1="0%" y1="0%" x2="100%" y2="100%">
<stop offset="0.0%" stop-color="hsl(106, 75%, 59%)" />
<stop offset="33.3%" stop-color="hsl(183, 71%, 60%)" />
<stop offset="66.7%" stop-color="hsl(242, 72%, 49%)" />
<stop offset="100.0%" stop-color="hsl(322, 74%, 44%)" />
</linearGradient>
<linearGradient id="g1" x1="0%" y1="0%" x2="100%" y2="100%">
<stop offset="0.0%" stop-color="hsl(290, 83%, 63%)" />
<stop offset="33.3%" stop-color="hsl(2, 82%, 55%)" />
<stop offset="66.7%" stop-color="hsl(86, 72%, 68%)" />
<stop offset="100.0%" stop-color="hsl(83, 65%, 44%)" />
</linearGradient>
<linearGradient id="g2" x1="0%" y1="0%" x2="100%" y2="100%">
<stop offset="0.0%" stop-color="hsl(40, 53%, 69%)" />
<stop offset="33.3%" stop-color="hsl(104, 72%, 65%)" />
<stop offset="66.7%" stop-color="hsl(144, 86%, 72%)" />
<stop offset="100.0%" stop-color="hsl(151, 70%, 62%)" />
</linearGradient>
</defs>

<path d="M 70.2 65.5 C 89.3 83.9, 68.7 73.4, 81.4 88.2 C 76.7 74.2, 32.1 77.2, 44.2 83.7 C 32.8 100.0, 58.8 31.7, 73.2 36.1 " fill="hsl(322, 74%, 44%)" fill-opacity="0.33" stroke="none" stroke-width="1.19"  transform="translate(94.0 29.1) rotate(122.6) scale(1.07 0.68)" />
<path d="M 73.3 33.5 C 73.1 37.7, 58.4 12.7, 71.9 6.1 C 81.4 20.8, 46.5 88.4, 41.0 88.4 C 46.5 71.9, 79.9 0.0, 81.0 1.5 C 69.8 1.4, 73.3 62.4, 84.8 48.5 C 80.8 61.1, 43.2 48.5, 43.8 45.7 C 35.2 32.7, 4.4 71.2, 1.1 64.8 Z" fill="none" fill-opacity="0.92" stroke="hsl(2, 82%, 55%)" stroke-width="0.89"  transform="translate(95.1 3.1) rotate(110.0) scale(1.03 0.59)" />
<rect x="18.1" y="33.0" width="23.6" height="36.4" rx="17.4" fill="none" fill-opacity="0.71" stroke="hsl(106, 75%, 59%)" stroke-width="3.9"  transform="translate(47.1 69.9) rotate(218.5) scale(0.87 0.97)" />
<path d="M 69.2 25.9 C 53.7 32.8, 55.2 90.0, 57.0 85.0 C 62.3 80.3, 6.1 11.5, 3.2 7.9 C 19.4 0.0, 32.1 81.5, 45.8 69.3 C 50.0 74.3, 15.0 61.1, 2.3 67.2 C 2.6 61.8, 64.0 67.3, 70.6 67.4 " fill="hsl(322, 74%, 44%)" fill-opacity="0.72" stroke="none" stroke-width="0.93"  transform="translate(39.6 83.0) rotate(102.4) scale(0.86 1.55)" />
<circle cx="16.1" cy="33.7" r="0.7" fill="hsl(183, 71%, 60%)" fill-opacity="0.86"  transform="translate(99.4 97.3) rotate(113.2) scale(0.88 1.02)" />
<path d="M 8.1 97.3 C 7.2 89.5, 39.9 57.7, 52.3 51.5 C 44.1 35.5, 64.4 43.7, 51.7 29.8 C 55.9 21.6, 26.5 100.0, 14.7 97.1 " fill="none" fill-opacity="0.28" stroke="hsl(151, 70%, 62%)" stroke-width="0.83"  transform="translate(98.9 31.8) rotate(278.0) scale(0.76 1.14)" />
<rect x="7.5" y="46.8" width="27.1" height="26.4" rx="6.9" fill="hsl(183, 71%, 60%)" fill-opacity="0.82"   transform="translate(91.7 82.8) rotate(317.5) scale(1.78 0.79)" />
<path d="M 20.7 28.9 C 26.5 37.3, 29.2 54.1, 39.5 57.6 C 42.3 59.5, 13.6 42.6, 9.7 30.1 C 25.1 46.2, 35.1 11.7, 40.2 4.7 C 40.1 23.1, 78.1 54.9, 78.1 45.0 C 89.3 57.0, 97.6 97.4, 93.1 97.1 C 82.0 91.7, 27.2 9.9, 30.6 4.9 Z" fill="none" fill-opacity="0.30" stroke="hsl(183, 71%, 60%)" stroke-width="0.89"  transform="translate(80.4 81.2) rotate(238.7) scale(1.83 1.14)" />
</svg>
