<?xml version="1.0" encoding="UTF-8"?>
<svg xmlns="http://www.w3.org/2000/svg" width="100" height="100" viewBox="0 0 100 100">
<defs>
<linearGradient id="g0" x1="0%" y1="0%" x2="100%" y2="100%">
<stop offset="0.0%" stop-color="hsl(106, 75%, 59%)" />
<stop offset="33.3%" stop-color="hsl(183, 71%, 60%)" />
<stop offset="66.7%" stop-color="hsl(242, 72%, 49%)" />
<stop offset="100.0%" stop-color="hsl(322, 74%, 44%)" />
</linearGradient>
<linearGradient id="g1" x1="0%" y1="0%" x2="100%" y2="100%">
<stop offset="0.0%" stop-color="hsl(290, 83%, 63%)" />
<stop offset="33.3%" stop-color="hsl(2, 82%, 55%)" />
<stop offset="66.7%" stop-color="hsl(86, 72%, 68%)" />
<stop offset="100.0%" stop-color="hsl(83, 65%, 44%)" />
</linearGradient>
<linearGradient id="g2" x1="0%" y1="0%" x2="100%" y2="100%">
<stop offset="0.0%" stop-color="hsl(40, 53%, 69%)" />
<stop offset="33.3%" stop-color="hsl(104, 72%, 65%)" />
<stop offset="66.7%" stop-color="hsl(144, 86%, 72%)" />
<stop offset="100.0%" stop-color="hsl(151, 70%, 62%)" />
</linearGradient>
</defs>

<circle cx="74.2" cy="1.7" r="0.4" fill="hsl(104, 72%, 65%)" fill-opacity="0.95"  transform="translate(30.9 68.7) rotate(219.1) scale(1.63 1.74)" />
<path d="M 72.7 18.3 C 83.7 17.6, 67.8 53.8, 55.3 56.6 C 61.7 39.0, 100.0 100.0, 93.3 97.3 C 100.0 100.0, 38.6 81.1, 46.8 76.0 C 31.8 58.2, 65.3 81.5, 52.1 96.3 C 42.3 97.6, 31.6 46.6, 17.3 49.2 C 21.0 39.5, 7.6 37.6, 16.6 36.9 Z" fill="hsl(40, 53%, 69%)" fill-opacity="0.95" stroke="none" stroke-width="0.86"   />
<path d="M 63.4 69.5 C 55.5 52.6, 73.6 16.6, 63.7 17.1 C 76.8 5.7, 45.5 86.4, 46.5 93.1 C 63.1 100.0, 44.2 29.0, 57.4 42.6 C 41.5 28.4, 31.0 65.4, 18.2 78.8 C 31.8 80.2, 95.3 21.6, 86.8 7.7 C 96.0 0.0, 91.3 95.3, 87.4 89.4 Z" fill="none" fill-opacity="0.59" stroke="hsl(104, 72%, 65%)" stroke-width="1.03"   />
<path d="M 34.7 37.8 C 18.1 38.4, 92.0 83.5, 79.5 75.9 C 92.8 92.1, 9.8 19.6, 14.9 32.1 C 21.7 25.7, 37.6 7.3, 50.8 18.4 C 67.4 4.4, 57.4 3.2, 58.6 17.7 " fill="hsl(106, 75%, 59%)" fill-opacity="0.72" stroke="none" stroke-width="0.83"   />
<circle cx="3.4" cy="94.9" r="1.0" fill="hsl(2, 82%, 55%)" fill-opacity="0.61"  transform="translate(25.0 55.5) rotate(350.6) scale(1.39 1.75)" />
<path d="M 68.1 31.6 C 85.5 30.6, 18.2 81.9, 9.8 81.1 C 20.7 91.4, 54.1 61.9, 63.5 52.8 C 68.1 68.7, 58.7 33.0, 55.8 30.4 Z" fill="none" fill-opacity="0.91" stroke="hsl(83, 65%, 44%)" stroke-width="1.10"   />
<path d="M 4.7 18.9 C 3.8 26.6, 56.3 17.6, 46.6 28.4 C 45.0 29.6, 90.0 24.1, 87.8 26.2 C 98.9 46.2, 56.8 100.0, 49.3 97.3 C 55.1 81.8, 41.2 7.1, 32.9 16.6 Z" fill="none" fill-opacity="0.55" stroke="hsl(151, 70%, 62%)" stroke-width="0.82"  transform="translate(55.1 10.4) rotate(225.0) scale(0.82 0.89)" />
<circle cx="15.1" cy="99.3" r="0.8" fill="hsl(106, 75%, 59%)" fill-opacity="0.78"  transform="translate(68.1 12.4) rotate(301.3) scale(1.71 1.93)" />
<rect x="79.5" y="8.9" width="20.5" height="16.0" rx="0" fill="none" fill-opacity="0.61" stroke="hsl(86, 72%, 68%)" stroke-width="4.1"   />
<path d="M 40.6 9.2 C 50.1 0.5, 100.0 55.4, 97.2 70.0 C 93.9 71.5, 20.3 69.6, 34.8 73.9 C 19.7 83.0, 91.3 100.0, 77.9 96.5 C 64.8 80.9, 25.9 21.3, 22.6 10.5 C 26.2 7.4, 56.0 73.9, 50.8 81.8 C 32.4 82.6, 74.5 100.0, 71.7 99.9 Z" fill="none" fill-opacity="0.48" stroke="hsl(104, 72%, 65%)" stroke-width="0.93"   />
<path d="M 8.6 42.7 C 17.7 43.1, 31.3 44.5, 27.9 45.1 C 34.8 28.3, 47.9 19.9, 57.8 34.5 C 58.1 17.1, 0.0 55.8, 0.2 45.1 " fill="hsl(144, 86%, 72%)" fill-opacity="0.25" stroke="none" stroke-width="0.83"  transform="translate(94.7 57.1) rotate(86.8) scale(0.51 1.46)" />
</svg>
