<?xml version="1.0" encoding="UTF-8"?>
<svg xmlns="http://www.w3.org/2000/svg" width="100" height="100" viewBox="0 0 100 100">
<defs>
<linearGradient id="g0" x1="0%" y1="0%" x2="100%" y2="100%">
<stop offset="0.0%" stop-color="hsl(106, 75%, 59%)" />
<stop offset="33.3%" stop-color="hsl(183, 71%, 60%)" />
<stop offset="66.7%" stop-color="hsl(242, 72%, 49%)" />
<stop offset="100.0%" stop-color="hsl(322, 74%, 44%)" />
</linearGradient>
<linearGradient id="g1" x1="0%" y1="0%" x2="100%" y2="100%">
<stop offset="0.0%" stop-color="hsl(290, 83%, 63%)" />
<stop offset="33.3%" stop-color="hsl(2, 82%, 55%)" />
<stop offset="66.7%" stop-color="hsl(86, 72%, 68%)" />
<stop offset="100.0%" stop-color="hsl(83, 65%, 44%)" />
</linearGradient>
<linearGradient id="g2" x1="0%" y1="0%" x2="100%" y2="100%">
<stop offset="0.0%" stop-color="hsl(40, 53%, 69%)" />
<stop offset="33.3%" stop-color="hsl(104, 72%, 65%)" />
<stop offset="66.7%" stop-color="hsl(144, 86%, 72%)" />
<stop offset="100.0%" stop-color="hsl(151, 70%, 62%)" />
</linearGradient>
<filter id="f1" x="-20%" y="-20%" width="140%" height="140%">
  <feGaussianBlur stdDeviation="1.3186844541073732" />
</filter>

</defs>

<path d="M 37.2 24.8 C 52.8 12.5, 18.3 19.2, 7.0 31.1 C 24.8 25.8, 56.0 74.0, 69.0 86.7 C 76.4 84.5, 58.3 90.9, 47.3 80.6 C 29.4 81.2, 39.3 85.0, 47.5 75.5 C 57.0 75.5, 51.7 19.9, 49.8 14.7 C 59.8 24.3, 97.1 0.0, 98.6 1.5 Z" fill="hsl(83, 65%, 44%)" fill-opacity="0.34" stroke="none" stroke-width="3.56"   />
<circle cx="66.2" cy="96.0" r="7.7" fill="hsl(83, 65%, 44%)" fill-opacity="0.44"   />
<rect x="65.2" y="57.7" width="34.7" height="37.1" rx="0" fill="hsl(290, 83%, 63%)" fill-opacity="0.89" stroke="hsl(86, 72%, 68%)" stroke-width="3.1"  transform="translate(93.0 79.0) rotate(326.0) scale(1.85 1.03)" />
<rect x="41.4" y="12.1" width="36.3" height="11.5" rx="10.6" fill="none" fill-opacity="0.91"   transform="translate(88.4 82.6) rotate(13.0) scale(1.01 0.72)" />
<rect x="41.9" y="13.4" width="44.1" height="39.8" rx="0" fill="hsl(151, 70%, 62%)" fill-opacity="0.61" stroke="hsl(151, 70%, 62%)" stroke-width="1.7"  transform="translate(90.6 80.5) rotate(9.3) scale(1.82 0.59)" />
<path d="M 88.1 66.7 C 69.0 84.4, 92.4 85.0, 77.9 77.2 C 66.0 71.7, 46.4 56.8, 36.5 45.8 C 23.5 28.2, 45.6 58.6, 38.6 68.9 C 52.5 76.6, 20.2 83.7, 12.6 74.9 C 27.4 68.3, 100.0 29.3, 99.1 23.7 C 82.9 20.9, 41.1 41.3, 28.4 31.7 C 16.9 40.9, 68.6 77.0, 78.8 69.7 C 62.9 60.5, 33.9 5.7, 25.8 16.0 C 7.3 14.9, 53.1 41.6, 50.5 42.9 Z" fill="none" fill-opacity="0.90" stroke="hsl(242, 72%, 49%)" stroke-width="2.08"  transform="translate(53.4 97.1) rotate(231.5) scale(0.91 1.94)" />
<path d="M 50.8 21.9 C 37.3 2.2, 1.7 75.1, 12.1 60.6 C 19.0 70.9, 36.0 65.0, 39.4 79.5 C 54.9 84.5, 68.5 55.9, 74.3 62.6 C 61.5 76.1, 33.9 16.8, 45.9 9.8 C 39.5 0.0, 71.2 59.7, 72.3 51.2 C 71.4 61.7, 33.7 21.3, 35.4 27.0 C 50.1 14.9, 58.9 29.9, 55.9 21.9 C 41.3 32.0, 48.5 54.2, 44.1 61.9 C 45.9 47.4, 87.1 28.7, 94.5 26.8 C 100.0 6.9, 42.2 46.8, 42.1 55.6 Z" fill="none" fill-opacity="0.77" stroke="hsl(83, 65%, 44%)" stroke-width="1.51"  transform="translate(16.7 61.3) rotate(317.2) scale(1.89 1.45)" />
<path d="M 12.9 42.3 C 0.0 56.4, 91.5 80.5, 76.8 79.9 C 86.2 70.9, 87.4 40.7, 86.7 37.8 C 99.7 33.0, 29.7 52.7, 23.0 49.9 C 32.9 65.8, 49.5 50.0, 50.5 54.1 C 49.7 48.1, 0.0 33.5, 5.8 45.1 C 0.0 31.7, 100.0 13.7, 96.4 28.5 Z" fill="hsl(144, 86%, 72%)" fill-opacity="0.77" stroke="none" stroke-width="2.49"   />
<path d="M 12.7 72.5 C 32.1 79.2, 4.3 67.2, 8.2 63.9 C 25.4 70.0, 51.7 47.7, 53.7 56.0 C 36.9 37.3, 18.6 54.5, 25.7 39.7 C 43.1 57.5, 83.4 83.1, 76.3 94.7 C 75.5 100.0, 63.3 88.3, 58.1 76.9 C 70.1 75.1, 44.4 70.3, 40.1 70.3 C 57.6 72.2, 5.5 42.6, 7.7 34.3 Z" fill="none" fill-opacity="0.48" stroke="hsl(2, 82%, 55%)" stroke-width="2.56"  transform="translate(29.5 45.2) rotate(27.7) scale(1.88 0.91)" />
<path d="M 27.3 0.2 C 9.0 0.0, 35.1 6.0, 47.4 15.2 C 54.0 0.0, 24.0 0.0, 34.5 11.1 C 39.2 5.9, 41.3 20.9, 47.2 31.5 C 32.4 23.2, 12.9 0.0, 2.6 2.2 C 13.2 0.0, 52.2 54.6, 61.4 58.6 C 67.4 57.1, 55.5 19.8, 51.6 20.2 C 65.0 22.1, 0.0 88.5, 4.1 94.9 C 18.4 83.8, 39.5 15.9, 42.5 7.6 C 53.6 0.0, 60.0 74.7, 61.4 84.6 Z" fill="hsl(322, 74%, 44%)" fill-opacity="0.93" stroke="none" stroke-width="1.37"  transform="translate(85.6 50.5) rotate(289.4) scale(0.96 1.29)" />
<path d="M 66.1 16.4 C 66.5 21.8, 26.5 58.8, 13.9 61.1 C 26.5 64.1, 24.2 55.6, 22.8 46.3 C 24.8 49.4, 29.5 40.4, 37.8 26.7 C 28.1 43.1, 17.0 62.2, 16.8 55.7 C 0.0 52.1, 14.8 28.3, 0.0 14.7 C 0.0 26.3, 63.1 64.6, 58.3 78.5 C 78.1 62.9, 0.0 3.6, 6.4 0.4 C 0.0 1.1, 62.6 74.4, 49.7 60.0 C 62.7 72.6, 57.8 0.0, 65.6 7.2 Z" fill="hsl(86, 72%, 68%)" fill-opacity="0.54" stroke="none" stroke-width="2.87"  transform="translate(68.5 89.2) rotate(77.1) scale(0.98 0.72)" />
<circle cx="5.9" cy="91.8" r="1.9" fill="url(#g0)" fill-opacity="0.55"  transform="translate(6.2 3.7) rotate(229.3) scale(0.83 1.12)" />
<path d="M 76.9 69.8 C 64.6 57.7, 77.9 25.9, 73.7 27.4 C 62.7 33.5, 80.8 6.8, 94.1 9.1 C 74.8 0.0, 78.5 43.7, 86.6 37.0 C 77.2 55.4, 17.6 81.1, 26.2 66.3 C 20.8 82.1, 67.8 14.7, 61.0 10.9 C 53.5 2.1, 15.5 35.6, 7.3 38.4 C 22.8 22.5, 73.5 100.0, 60.1 99.0 Z" fill="hsl(144, 86%, 72%)" fill-opacity="0.53" stroke="none" stroke-width="1.98"  transform="translate(97.8 9.5) rotate(142.7) scale(1.13 1.83)" />
<path d="M 92.3 72.0 C 100.0 63.5, 25.0 17.3, 22.4 7.3 C 11.3 0.0, 29.2 10.5, 28.2 3.5 C 14.4 0.0, 25.8 73.2, 22.9 68.9 C 9.7 72.8, 78.0 29.3, 67.1 42.8 C 82.0 33.4, 19.0 75.0, 16.1 80.5 C 9.1 95.4, 54.8 24.6, 51.1 35.7 C 46.7 52.8, 27.4 75.6, 18.1 88.8 C 32.0 100.0, 98.8 81.8, 90.1 71.0 C 85.2 69.1, 94.5 57.0, 87.0 62.9 Z" fill="hsl(83, 65%, 44%)" fill-opacity="0.62" stroke="none" stroke-width="4.07" filter="url(#f1)" transform="translate(45.8 2.3) rotate(273.8) scale(1.53 0.67)" />
<rect x="43.9" y="46.7" width="25.2" height="24.2" rx="10.9" fill="hsl(290, 83%, 63%)" fill-opacity="0.93"  filter="url(#f1)" transform="translate(37.8 40.4) rotate(6.8) scale(0.83 1.13)" />
<rect x="58.0" y="2.5" width="22.6" height="11.5" rx="8.8" fill="none" fill-opacity="0.70"   transform="translate(21.9 27.1) rotate(249.0) scale(1.35 0.87)" />
<path d="M 69.6 32.2 C 82.4 50.9, 59.4 11.0, 55.8 22.7 C 53.9 38.1, 61.8 77.8, 63.6 80.3 C 45.2 70.7, 96.4 6.9, 91.2 4.8 C 100.0 0.0, 68.7 19.5, 82.8 10.9 C 100.0 10.5, 71.6 36.5, 60.8 47.5 C 74.0 58.7, 92.7 93.9, 91.3 95.3 C 72.7 84.5, 1.3 31.9, 13.9 41.9 Z" fill="none" fill-opacity="0.89" stroke="hsl(322, 74%, 44%)" stroke-width="2.44"  transform="translate(38.7 3.3) rotate(323.0) scale(0.97 1.75)" />
<path d="M 22.1 69.4 C 17.8 64.0, 78.5 73.7, 93.5 79.5 C 100.0 66.3, 68.8 50.9, 66.4 62.3 C 79.2 61.9, 77.7 78.1, 68.3 78.4 C 72.3 93.2, 28.9 87.2, 33.2 88.9 C 48.6 72.7, 20.3 7.3, 8.8 4.2 C 20.0 13.9, 36.7 92.6, 51.4 90.4 Z" fill="hsl(290, 83%, 63%)" fill-opacity="0.68" stroke="none" stroke-width="4.26"   />
<path d="M 7.6 50.3 C 8.4 48.6, 0.1 100.0, 1.0 98.5 C 19.4 81.5, 18.0 46.5, 14.3 56.1 C 11.2 58.8, 60.5 10.8, 74.1 8.2 C 76.1 0.0, 27.5 54.8, 24.8 67.6 C 37.7 48.9, 2.3 52.0, 6.0 62.1 C 4.0 48.7, 76.3 34.9, 80.2 27.0 C 84.7 18.1, 90.0 10.2, 75.3 10.1 Z" fill="hsl(290, 83%, 63%)" fill-opacity="0.72" stroke="none" stroke-width="3.58"  transform="translate(16.7 70.4) rotate(248.3) scale(1.97 1.69)" />
<rect x="34.0" y="24.9" width="49.6" height="25.6" rx="0" fill="none" fill-opacity="0.72" stroke="hsl(322, 74%, 44%)" stroke-width="4.7"  transform="translate(95.1 82.3) rotate(171.2) scale(1.34 1.23)" />
<rect x="66.5" y="43.0" width="26.5" height="25.5" rx="10.2" fill="none" fill-opacity="0.49" stroke="hsl(40, 53%, 69%)" stroke-width="4.9"  transform="translate(38.6 57.8) rotate(329.2) scale(1.17 0.89)" />
<rect x="7.6" y="4.8" width="24.7" height="36.3" rx="12.0" fill="none" fill-opacity="0.70" stroke="hsl(40, 53%, 69%)" stroke-width="3.5"  transform="translate(7.3 13.6) rotate(22.8) scale(0.65 2.00)" />
<rect x="55.0" y="17.7" width="43.7" height="38.1" rx="13.8" fill="hsl(290, 83%, 63%)" fill-opacity="0.69"   transform="translate(83.8 54.2) rotate(299.0) scale(1.08 2.00)" />
<rect x="38.0" y="5.4" width="43.8" height="38.2" rx="0" fill="hsl(183, 71%, 60%)" fill-opacity="0.74" stroke="hsl(183, 71%, 60%)" stroke-width="3.1"  transform="translate(45.9 46.3) rotate(27.0) scale(0.57 1.85)" />
<path d="M 24.0 38.2 C 34.1 20.4, 31.3 93.5, 33.4 81.0 C 21.4 61.1, 22.3 64.6, 24.0 62.0 C 43.7 81.8, 73.0 84.6, 78.7 71.7 C 82.7 66.2, 74.5 66.9, 67.5 78.5 C 51.4 69.8, 83.8 87.8, 94.7 76.6 C 99.7 95.3, 81.8 25.4, 82.1 12.4 C 75.3 0.0, 50.5 42.7, 48.2 44.7 C 65.7 61.4, 44.4 15.4, 41.9 17.6 Z" fill="hsl(106, 75%, 59%)" fill-opacity="0.99" stroke="none" stroke-width="3.21"  transform="translate(11.3 48.4) rotate(25.0) scale(0.59 0.69)" />
<rect x="12.1" y="61.7" width="28.1" height="18.3" rx="1.2" fill="none" fill-opacity="0.78"   transform="translate(44.8 48.4) rotate(303.3) scale(0.85 0.79)" />
<circle cx="36.9" cy="94.6" r="4.9" fill="hsl(290, 83%, 63%)" fill-opacity="0.83"  transform="translate(53.0 16.9) rotate(299.2) scale(1.30 1.92)" />
<rect x="64.6" y="13.6" width="34.8" height="14.5" rx="2.8" fill="hsl(242, 72%, 49%)" fill-opacity="0.34"   transform="translate(50.2 21.4) rotate(114.8) scale(1.42 1.33)" />
<path d="M 19.0 83.8 C 36.6 66.6, 83.6 9.6, 91.3 24.1 C 100.0 19.4, 0.0 39.6, 7.4 40.0 C 0.0 27.8, 28.8 39.8, 22.4 45.6 C 22.1 58.8, 69.6 35.7, 69.0 39.0 C 69.0 29.4, 50.6 76.5, 51.7 87.9 C 44.8 70.7, 61.1 13.8, 72.6 10.7 C 70.3 20.1, 45.2 99.3, 43.1 89.6 C 62.2 83.9, 66.0 5.9, 63.1 4.6 Z" fill="hsl(151, 70%, 62%)" fill-opacity="0.54" stroke="none" stroke-width="3.04"   />
<path d="M 3.5 35.9 C 0.0 16.3, 83.6 78.2, 97.5 89.3 C 86.5 74.9, 8.5 69.4, 7.1 57.2 C 0.0 51.6, 20.8 44.3, 30.1 34.7 C 46.8 27.6, 40.4 78.0, 40.3 87.8 C 38.1 95.8, 51.1 31.1, 57.0 39.0 C 50.4 58.2, 12.7 54.4, 10.7 68.4 C 29.6 67.2, 100.0 84.6, 95.0 85.4 Z" fill="hsl(40, 53%, 69%)" fill-opacity="0.59" stroke="none" stroke-width="2.16"  transform="translate(29.1 85.1) rotate(136.7) scale(1.33 0.52)" />
<rect x="24.3" y="9.7" width="40.4" height="33.1" rx="10.8" fill="hsl(86, 72%, 68%)" fill-opacity="0.74" stroke="hsl(83, 65%, 44%)" stroke-width="4.5"  transform="translate(82.5 81.0) rotate(213.5) scale(1.39 1.98)" />
<path d="M 84.8 13.7 C 74.8 11.3, 42.6 28.5, 44.5 42.6 C 40.0 52.6, 60.9 16.7, 69.2 2.4 C 57.8 15.2, 64.3 53.1, 50.0 61.1 C 49.9 58.2, 0.0 65.7, 2.6 78.0 C 15.9 84.1, 76.3 40.3, 90.7 44.9 C 94.8 58.9, 0.0 30.8, 3.9 25.9 C 11.1 23.5, 21.4 0.0, 21.2 3.5 C 28.6 9.8, 34.1 0.0, 35.1 6.1 C 21.0 8.4, 26.7 30.3, 11.9 43.5 " fill="hsl(322, 74%, 44%)" fill-opacity="0.78" stroke="none" stroke-width="4.17"  transform="translate(50.1 5.5) rotate(340.6) scale(0.82 0.93)" />
<rect x="45.3" y="39.3" width="44.9" height="26.1" rx="0" fill="none" fill-opacity="0.44" stroke="hsl(290, 83%, 63%)" stroke-width="2.1"  transform="translate(15.8 19.6) rotate(118.2) scale(1.43 1.57)" />
<path d="M 59.6 23.0 C 75.1 15.8, 53.1 44.2, 43.8 58.4 C 40.0 46.7, 97.1 11.9, 92.2 10.7 C 82.3 0.0, 9.3 81.3, 14.6 76.2 C 24.7 90.3, 83.6 23.6, 93.1 34.2 C 94.0 48.4, 14.0 41.1, 26.5 53.8 C 25.3 62.8, 41.0 35.6, 38.0 40.5 C 21.6 53.1, 36.2 39.0, 40.0 53.2 C 26.0 41.7, 45.0 72.8, 39.3 80.2 C 58.3 91.2, 28.6 34.6, 27.7 29.1 C 37.0 10.4, 63.7 58.1, 71.9 69.1 " fill="hsl(104, 72%, 65%)" fill-opacity="0.99" stroke="none" stroke-width="4.50"  transform="translate(28.9 76.2) rotate(70.6) scale(0.95 0.84)" />
<path d="M 92.4 16.2 C 88.7 8.8, 74.1 75.5, 63.4 86.9 C 59.5 74.0, 72.4 75.0, 80.0 68.9 C 72.1 76.6, 19.7 71.7, 34.7 76.4 C 27.7 62.6, 51.1 35.0, 40.2 31.2 C 26.8 26.3, 23.8 82.2, 33.3 95.4 C 36.1 85.2, 10.0 79.6, 17.9 88.0 C 8.7 81.5, 100.0 84.7, 93.8 95.3 C 85.5 100.0, 52.4 62.7, 58.0 50.2 Z" fill="hsl(104, 72%, 65%)" fill-opacity="0.57" stroke="none" stroke-width="3.49"  transform="translate(69.9 18.9) rotate(280.9) scale(0.53 1.30)" />
<path d="M 1.9 7.0 C 17.3 23.7, 0.0 97.6, 5.1 98.7 C 0.3 100.0, 4.7 79.0, 13.0 83.0 C 10.0 86.0, 43.7 8.4, 50.5 11.9 C 42.8 0.0, 32.3 21.6, 28.7 19.4 C 22.3 15.3, 29.8 57.1, 43.7 50.4 C 42.7 47.4, 62.7 39.6, 67.6 38.2 C 53.3 55.0, 0.0 72.0, 3.3 77.9 C 0.0 74.5, 22.0 74.0, 16.7 69.8 C 20.9 80.5, 38.1 52.0, 33.6 42.0 Z" fill="hsl(322, 74%, 44%)" fill-opacity="0.58" stroke="none" stroke-width="1.49"  transform="translate(69.5 12.5) rotate(4.2) scale(0.70 0.53)" />
<path d="M 20.2 38.2 C 17.5 52.7, 11.1 50.2, 6.6 45.0 C 23.3 42.4, 55.1 97.3, 57.1 96.3 C 69.5 94.3, 18.3 61.3, 14.0 72.8 C 12.4 55.9, 51.6 0.0, 51.7 10.8 C 49.6 19.2, 61.5 63.4, 59.1 67.1 C 63.3 72.6, 58.6 65.2, 60.2 79.2 C 61.7 64.5, 100.0 53.3, 96.9 43.5 " fill="hsl(83, 65%, 44%)" fill-opacity="0.71" stroke="none" stroke-width="4.76"   />
<path d="M 28.8 44.2 C 43.4 42.7, 33.4 87.2, 22.7 80.7 C 25.9 95.1, 22.5 25.6, 25.8 13.5 C 20.8 9.6, 2.0 74.5, 10.1 81.5 C 23.7 67.9, 68.8 62.7, 73.9 72.3 C 64.1 91.0, 48.6 100.0, 38.9 92.5 C 24.1 100.0, 10.3 30.5, 11.1 23.7 C 26.0 40.9, 40.8 18.4, 26.7 28.9 Z" fill="hsl(322, 74%, 44%)" fill-opacity="0.42" stroke="none" stroke-width="3.44"  transform="translate(41.1 85.5) rotate(125.5) scale(1.57 1.43)" />
<path d="M 49.6 10.2 C 44.4 4.0, 81.5 83.6, 72.1 71.9 C 61.2 84.8, 85.4 20.0, 99.0 6.5 C 100.0 20.2, 29.6 38.0, 39.4 25.1 C 23.7 12.9, 53.3 16.7, 42.8 9.2 C 37.0 29.0, 70.3 41.6, 72.7 32.6 C 87.7 37.4, 7.9 73.5, 10.9 86.5 C 25.4 75.3, 77.1 0.6, 74.1 2.6 Z" fill="hsl(2, 82%, 55%)" fill-opacity="0.82" stroke="none" stroke-width="1.93"  transform="translate(76.3 52.2) rotate(211.2) scale(1.51 1.90)" />
<rect x="17.6" y="55.9" width="22.6" height="16.5" rx="14.6" fill="hsl(106, 75%, 59%)" fill-opacity="0.35"   transform="translate(84.9 46.3) rotate(92.4) scale(0.94 1.07)" />
<path d="M 21.0 65.1 C 3.8 62.4, 35.8 47.5, 43.5 43.1 C 25.0 36.8, 2.1 30.2, 12.8 35.5 C 3.2 15.9, 55.1 25.4, 46.0 27.8 C 44.7 11.7, 17.8 65.8, 5.9 75.6 C 0.0 91.8, 17.4 100.0, 32.2 97.4 C 51.9 79.0, 77.7 15.9, 91.6 13.2 C 94.1 20.5, 86.4 95.1, 94.9 97.3 Z" fill="none" fill-opacity="0.30" stroke="hsl(83, 65%, 44%)" stroke-width="3.10"  transform="translate(83.1 49.3) rotate(212.0) scale(1.81 1.25)" />
<circle cx="97.7" cy="51.7" r="5.6" fill="url(#g0)" fill-opacity="0.78"  transform="translate(48.7 5.7) rotate(27.8) scale(1.07 0.64)" />
<circle cx="4.9" cy="85.7" r="1.0" fill="hsl(86, 72%, 68%)" fill-opacity="0.73"  transform="translate(71.1 61.9) rotate(93.7) scale(1.48 0.73)" />
<path d="M 49.8 70.7 C 69.4 82.1, 29.5 6.5, 15.8 3.1 C 0.0 14.6, 100.0 100.0, 97.2 96.6 C 77.4 100.0, 14.0 68.2, 20.2 82.1 C 34.0 92.2, 31.1 59.1, 31.1 55.4 C 30.3 43.3, 44.2 18.0, 41.7 7.5 C 56.0 0.0, 41.7 33.1, 49.5 24.0 Z" fill="hsl(322, 74%, 44%)" fill-opacity="0.87" stroke="none" stroke-width="4.98"  transform="translate(85.2 76.8) rotate(158.8) scale(1.42 1.71)" />
<path d="M 46.8 30.0 C 54.2 48.1, 13.6 76.4, 6.5 79.2 C 17.4 76.0, 24.6 40.5, 21.6 33.8 C 29.2 48.3, 44.8 74.6, 52.0 81.4 C 37.6 92.2, 15.6 84.4, 5.3 83.0 C 0.0 65.2, 88.9 48.8, 88.3 44.0 C 78.4 38.1, 28.9 67.9, 36.6 58.4 C 41.1 51.8, 96.9 78.7, 89.4 89.4 C 88.1 74.6, 11.2 76.0, 24.4 72.6 C 43.2 91.9, 11.8 87.8, 8.5 98.0 C 0.0 100.0, 56.1 72.0, 59.8 79.4 Z" fill="hsl(322, 74%, 44%)" fill-opacity="0.27" stroke="none" stroke-width="3.96"  transform="translate(18.3 46.8) rotate(313.4) scale(0.91 0.50)" />
<path d="M 78.7 11.9 C 79.7 4.5, 3.8 68.6, 17.3 62.0 C 6.2 43.2, 58.7 58.0, 70.6 58.9 C 64.7 45.3, 54.1 90.3, 40.4 92.6 C 54.0 81.8, 100.0 8.9, 88.8 8.3 C 72.7 6.4, 49.6 0.0, 44.3 8.4 C 31.6 2.6, 52.3 73.7, 47.3 61.7 C 31.5 43.5, 61.4 9.4, 57.5 0.5 C 76.4 0.0, 47.5 16.5, 43.2 7.5 C 40.9 0.0, 99.1 5.9, 87.5 6.0 C 85.5 3.5, 65.9 46.7, 72.2 46.5 Z" fill="none" fill-opacity="0.37" stroke="hsl(242, 72%, 49%)" stroke-width="1.15"  transform="translate(85.4 97.9) rotate(159.3) scale(1.37 0.90)" />
<rect x="50.2" y="66.8" width="38.8" height="21.9" rx="0" fill="hsl(183, 71%, 60%)" fill-opacity="0.43" stroke="hsl(106, 75%, 59%)" stroke-width="1.8" filter="url(#f1)" transform="translate(57.6 89.1) rotate(294.1) scale(1.12 1.30)" />
<path d="M 47.8 8.7 C 60.7 6.3, 56.4 23.2, 56.1 12.5 C 53.9 14.2, 33.6 32.2, 39.7 32.4 C 57.0 38.3, 34.7 32.4, 42.9 34.3 C 52.7 30.7, 34.5 83.7, 43.0 89.3 C 26.7 99.3, 37.1 57.4, 34.4 48.0 C 54.0 33.6, 99.3 88.1, 85.9 79.0 C 99.1 62.4, 20.3 23.9, 18.1 11.9 C 0.0 4.2, 78.4 76.0, 82.9 65.8 C 92.1 84.2, 70.7 45.5, 55.7 34.0 Z" fill="none" fill-opacity="0.43" stroke="hsl(290, 83%, 63%)" stroke-width="4.75"  transform="translate(87.4 57.0) rotate(103.2) scale(0.85 1.85)" />
<path d="M 82.7 78.7 C 91.2 85.4, 23.8 58.5, 30.0 47.7 C 47.4 40.4, 8.4 24.7, 14.7 20.3 C 29.8 25.5, 34.1 30.5, 25.2 40.6 C 13.9 36.7, 67.6 29.9, 75.0 33.9 C 84.2 21.4, 70.2 90.6, 58.3 90.9 C 44.1 100.0, 0.0 31.4, 5.5 32.7 C 0.0 26.0, 79.1 6.3, 83.0 8.5 C 80.5 3.3, 88.2 10.4, 98.9 10.2 C 90.1 8.9, 13.2 85.0, 0.7 98.5 Z" fill="none" fill-opacity="0.43" stroke="hsl(106, 75%, 59%)" stroke-width="5.09"  transform="translate(70.8 67.5) rotate(184.4) scale(1.44 0.67)" />
<rect x="46.8" y="18.2" width="26.2" height="38.4" rx="18.8" fill="none" fill-opacity="0.51"    />
<path d="M 36.5 61.0 C 51.4 51.1, 80.9 81.6, 66.9 96.3 C 63.9 100.0, 50.5 59.2, 42.4 51.6 C 55.9 46.5, 70.8 13.8, 71.0 13.7 C 52.6 25.3, 78.4 57.3, 79.3 67.4 C 73.2 52.1, 7.6 60.7, 22.6 60.5 C 8.2 53.1, 32.9 15.0, 19.1 29.3 C 14.5 28.3, 0.0 57.9, 8.1 59.1 C 10.9 55.1, 80.3 93.2, 82.1 87.2 C 68.7 94.4, 77.6 83.5, 78.0 71.6 Z" fill="hsl(106, 75%, 59%)" fill-opacity="0.71" stroke="none" stroke-width="5.01"   />
<path d="M 73.5 90.5 C 70.9 100.0, 71.0 28.2, 72.8 38.3 C 83.4 41.4, 0.0 41.2, 2.3 39.1 C 0.0 52.0, 15.8 17.8, 4.1 26.3 C 13.7 32.5, 100.0 2.8, 88.9 7.0 C 94.0 0.0, 77.7 66.4, 64.6 55.7 C 57.6 56.8, 100.0 60.9, 94.7 68.1 Z" fill="hsl(183, 71%, 60%)" fill-opacity="0.83" stroke="none" stroke-width="3.94"  transform="translate(10.2 11.8) rotate(158.6) scale(0.88 1.53)" />
<path d="M 77.8 51.0 C 60.7 59.4, 82.8 74.3, 92.9 68.8 C 100.0 67.0, 26.3 50.5, 14.3 64.7 C 7.0 81.0, 95.2 84.6, 87.0 97.7 C 93.9 81.8, 41.4 72.2, 29.1 67.0 C 28.2 85.3, 18.2 65.7, 15.3 75.9 C 27.8 78.7, 39.2 18.9, 25.4 31.5 C 41.0 47.1, 90.3 69.2, 76.1 56.4 Z" fill="hsl(151, 70%, 62%)" fill-opacity="0.97" stroke="none" stroke-width="4.72"  transform="translate(5.4 31.1) rotate(134.3) scale(1.88 1.60)" />
<rect x="19.9" y="25.1" width="20.8" height="14.2" rx="0" fill="hsl(104, 72%, 65%)" fill-opacity="0.91"   transform="translate(88.1 27.6) rotate(92.6) scale(0.78 1.42)" />
<circle cx="52.9" cy="41.2" r="13.3" fill="url(#g2)" fill-opacity="0.91"  transform="translate(54.6 17.2) rotate(4.9) scale(0.92 0.82)" />
<rect x="47.0" y="32.3" width="45.2" height="39.1" rx="14.8" fill="none" fill-opacity="0.80"   transform="translate(90.8 5.9) rotate(292.2) scale(0.97 1.19)" />
<rect x="4.8" y="31.3" width="48.5" height="22.9" rx="0.9" fill="none" fill-opacity="0.94"  filter="url(#f1)" transform="translate(90.1 76.8) rotate(245.2) scale(1.86 1.88)" />
<circle cx="40.9" cy="48.7" r="9.7" fill="url(#g0)" fill-opacity="0.91"  transform="translate(16.9 16.5) rotate(286.7) scale(1.86 1.00)" />
<rect x="19.8" y="1.3" width="49.3" height="31.3" rx="4.6" fill="hsl(242, 72%, 49%)" fill-opacity="0.91" stroke="hsl(183, 71%, 60%)" stroke-width="3.8" filter="url(#f1)" transform="translate(20.5 50.3) rotate(314.5) scale(1.71 0.86)" />
<rect x="59.8" y="52.6" width="23.0" height="34.9" rx="1.4" fill="hsl(83, 65%, 44%)" fill-opacity="0.59"   transform="translate(11.2 63.9) rotate(72.8) scale(1.75 0.99)" />
<rect x="45.3" y="7.8" width="49.0" height="20.9" rx="14.1" fill="none" fill-opacity="0.96"   transform="translate(28.0 69.1) rotate(288.7) scale(1.41 0.61)" />
<path d="M 28.9 79.1 C 14.3 72.9, 28.1 64.7, 29.5 52.4 C 27.2 69.2, 37.9 73.5, 24.4 82.5 C 7.1 100.0, 77.9 27.2, 75.4 30.1 C 59.9 28.7, 0.0 17.0, 0.4 29.0 C 0.8 9.8, 41.0 48.8, 46.5 41.8 C 42.0 55.3, 22.4 21.3, 23.3 13.4 C 3.8 0.8, 80.5 77.6, 73.0 80.0 C 71.4 89.6, 94.6 77.8, 87.4 80.9 C 99.7 80.6, 0.0 67.7, 8.4 55.4 Z" fill="none" fill-opacity="0.41" stroke="hsl(40, 53%, 69%)" stroke-width="2.72"  transform="translate(38.5 33.7) rotate(300.2) scale(1.82 1.97)" />
<path d="M 43.0 75.6 C 32.5 84.6, 100.0 80.3, 90.1 86.3 C 80.4 93.1, 7.0 88.1, 4.8 74.4 C 19.8 55.6, 31.0 56.7, 29.1 43.5 C 43.2 57.2, 9.7 57.8, 15.3 43.2 C 11.2 43.9, 77.5 61.9, 77.9 61.7 C 91.1 43.4, 81.9 42.1, 79.3 34.4 C 69.6 48.2, 20.9 79.9, 29.5 65.7 Z" fill="hsl(144, 86%, 72%)" fill-opacity="0.82" stroke="none" stroke-width="1.51"  transform="translate(22.2 81.8) rotate(101.7) scale(0.83 1.17)" />
<path d="M 30.2 45.9 C 26.5 28.4, 0.0 51.0, 11.8 64.7 C 0.0 60.1, 11.6 45.0, 14.1 31.9 C 16.8 13.6, 0.8 70.4, 3.4 58.1 C 0.0 77.8, 50.3 43.4, 39.6 34.2 C 58.2 23.6, 57.1 33.3, 58.9 37.8 C 71.1 52.9, 50.1 26.6, 45.6 19.2 " fill="hsl(242, 72%, 49%)" fill-opacity="0.94" stroke="none" stroke-width="4.38"  transform="translate(77.7 68.3) rotate(238.9) scale(0.69 0.72)" />
<path d="M 8.5 55.3 C 0.0 40.7, 2.7 89.1, 6.8 75.8 C 0.0 56.5, 51.4 100.0, 58.1 98.5 C 57.5 100.0, 3.2 46.2, 0.9 35.0 C 10.9 53.6, 84.2 40.9, 94.2 35.0 C 87.8 53.2, 3.8 39.0, 15.4 45.2 C 35.1 45.5, 37.1 44.9, 39.9 50.5 C 35.8 33.2, 36.8 24.3, 39.1 29.7 C 23.6 45.4, 90.8 51.3, 75.9 63.7 C 65.1 74.1, 73.7 53.4, 63.2 60.0 C 47.4 40.9, 71.7 52.4, 84.7 63.8 Z" fill="hsl(104, 72%, 65%)" fill-opacity="0.86" stroke="none" stroke-width="4.72"  transform="translate(23.1 51.0) rotate(355.2) scale(0.52 0.70)" />
<path d="M 10.9 28.7 C 28.0 10.1, 35.7 41.2, 32.0 51.4 C 42.9 52.3, 10.0 14.2, 8.5 26.4 C 25.1 14.2, 57.9 83.5, 45.6 75.4 C 47.6 71.7, 4.8 9.2, 6.0 9.4 C 23.1 0.0, 88.1 10.6, 74.4 25.5 C 58.5 43.5, 51.8 83.1, 62.7 92.3 Z" fill="none" fill-opacity="0.98" stroke="hsl(322, 74%, 44%)" stroke-width="1.94"  transform="translate(52.8 84.8) rotate(8.6) scale(1.95 1.47)" />
<circle cx="15.0" cy="9.0" r="2.4" fill="hsl(2, 82%, 55%)" fill-opacity="0.48"  transform="translate(44.5 93.5) rotate(7.1) scale(1.67 0.75)" />
<path d="M 58.2 23.0 C 77.0 28.4, 100.0 14.2, 91.2 2.4 C 100.0 0.0, 28.8 10.0, 17.2 16.5 C 28.7 4.3, 47.9 36.6, 57.0 33.4 C 74.6 39.8, 31.8 44.4, 37.0 30.4 C 27.0 35.6, 47.6 100.0, 42.4 90.7 C 49.5 72.6, 86.8 22.2, 90.0 32.1 C 80.3 44.6, 100.0 68.8, 93.8 60.5 Z" fill="hsl(83, 65%, 44%)" fill-opacity="0.27" stroke="none" stroke-width="3.83" filter="url(#f1)" transform="translate(97.6 59.9) rotate(314.9) scale(0.92 1.26)" />
<circle cx="56.5" cy="88.4" r="6.1" fill="url(#g1)" fill-opacity="0.96" filter="url(#f1)" transform="translate(49.7 83.3) rotate(233.8) scale(1.22 1.71)" />
<path d="M 54.9 52.3 C 62.0 35.9, 58.4 79.5, 69.3 87.0 C 72.4 83.0, 3.8 62.5, 18.0 73.9 C 0.0 90.8, 74.5 14.4, 60.1 18.9 C 69.5 16.5, 3.3 55.2, 2.0 43.3 C 7.7 27.8, 39.6 25.8, 46.6 36.3 C 37.3 42.3, 28.9 88.6, 43.8 82.3 C 30.9 84.9, 47.9 95.6, 45.1 91.4 C 62.2 78.0, 21.4 0.0, 32.6 2.9 C 38.5 10.4, 63.5 56.8, 67.2 46.2 C 69.2 61.6, 37.4 7.0, 25.8 3.1 Z" fill="hsl(144, 86%, 72%)" fill-opacity="0.30" stroke="none" stroke-width="3.89"  transform="translate(79.0 17.6) rotate(112.5) scale(1.95 1.81)" />
<path d="M 44.8 82.9 C 41.8 71.0, 24.2 75.0, 33.5 66.5 C 25.3 64.8, 63.3 85.4, 69.9 88.8 C 74.9 97.5, 16.4 23.5, 2.2 37.2 C 0.0 45.3, 62.7 80.0, 61.7 87.3 C 53.3 75.4, 68.5 84.4, 59.1 72.3 C 60.3 67.2, 46.7 34.0, 44.0 33.6 C 47.8 40.5, 49.5 90.6, 38.1 78.3 C 41.0 73.7, 98.0 70.4, 83.6 70.2 Z" fill="hsl(322, 74%, 44%)" fill-opacity="0.65" stroke="none" stroke-width="2.95" filter="url(#f1)" transform="translate(86.1 14.6) rotate(48.7) scale(0.64 0.79)" />
<path d="M 80.3 7.1 C 98.9 0.0, 15.8 50.0, 21.6 57.2 C 40.8 57.7, 100.0 9.0, 88.7 22.7 C 75.4 9.9, 100.0 85.7, 96.0 79.6 C 87.4 90.6, 52.9 51.0, 43.5 39.8 C 24.4 48.2, 26.9 77.1, 31.5 84.9 C 36.0 100.0, 77.5 85.5, 88.1 82.4 C 100.0 83.0, 0.0 26.7, 3.0 31.0 C 0.0 23.4, 63.3 52.5, 76.3 62.7 Z" fill="hsl(104, 72%, 65%)" fill-opacity="0.46" stroke="none" stroke-width="4.39"  transform="translate(32.6 99.4) rotate(53.4) scale(1.46 1.62)" />
<rect x="52.5" y="3.4" width="24.3" height="32.8" rx="0" fill="none" fill-opacity="0.28"  filter="url(#f1)" transform="translate(21.4 2.7) rotate(163.6) scale(1.64 1.84)" />
<path d="M 33.7 86.5 C 28.3 69.9, 20.8 68.9, 12.7 70.8 C 18.4 88.2, 16.7 71.0, 16.0 83.2 C 14.1 100.0, 87.1 47.3, 98.1 59.8 C 100.0 62.9, 23.5 34.5, 17.6 26.1 C 10.0 23.7, 18.0 23.6, 21.1 30.4 C 37.9 37.5, 0.0 48.3, 4.5 48.6 Z" fill="hsl(2, 82%, 55%)" fill-opacity="0.60" stroke="none" stroke-width="2.87"  transform="translate(41.2 22.9) rotate(353.0) scale(1.67 1.40)" />
<path d="M 31.7 11.6 C 22.3 8.7, 37.9 8.7, 38.9 2.2 C 56.9 0.0, 19.4 85.3, 33.3 72.1 C 27.3 65.5, 73.7 19.4, 60.1 19.3 C 57.4 28.6, 22.8 19.0, 16.2 15.4 C 13.5 11.2, 15.2 19.0, 24.2 10.4 C 11.7 7.8, 51.1 100.0, 41.4 99.5 C 40.2 83.3, 77.1 20.5, 72.9 25.7 " fill="hsl(322, 74%, 44%)" fill-opacity="0.52" stroke="none" stroke-width="3.23"  transform="translate(86.7 11.4) rotate(198.9) scale(0.51 1.29)" />
<rect x="48.4" y="80.1" width="24.7" height="17.3" rx="13.0" fill="hsl(2, 82%, 55%)" fill-opacity="0.28" stroke="hsl(290, 83%, 63%)" stroke-width="1.3"   />
<rect x="67.1" y="14.4" width="30.4" height="27.5" rx="6.8" fill="none" fill-opacity="1.00"    />
<rect x="58.5" y="26.0" width="40.8" height="28.8" rx="4.0" fill="hsl(144, 86%, 72%)" fill-opacity="0.28" stroke="hsl(104, 72%, 65%)" stroke-width="2.7"  transform="translate(11.2 86.1) rotate(191.8) scale(1.52 1.57)" />
<circle cx="41.1" cy="51.7" r="5.1" fill="url(#g0)" fill-opacity="0.83" filter="url(#f1)" transform="translate(18.8 13.5) rotate(349.9) scale(0.68 1.85)" />
<path d="M 54.8 82.7 C 55.3 97.4, 87.5 67.3, 82.8 69.1 C 89.6 89.0, 31.7 55.6, 20.0 46.9 C 28.9 39.5, 80.9 86.0, 93.4 87.2 C 73.9 82.7, 100.0 7.2, 90.5 1.4 C 95.8 0.0, 19.0 50.6, 18.2 38.9 C 37.5 46.1, 23.1 84.3, 33.8 79.3 C 46.1 80.7, 27.0 86.1, 21.3 79.1 C 29.9 88.1, 4.7 42.8, 16.7 56.4 C 25.0 71.3, 73.5 86.9, 86.5 92.0 C 76.9 82.3, 46.9 79.0, 52.6 90.8 Z" fill="hsl(83, 65%, 44%)" fill-opacity="0.63" stroke="none" stroke-width="4.72"  transform="translate(4.2 39.0) rotate(351.5) scale(1.22 0.86)" />
<path d="M 42.4 87.6 C 24.8 98.7, 26.8 60.4, 26.1 67.4 C 13.2 77.5, 40.2 42.0, 27.9 44.6 C 33.3 50.8, 76.4 54.9, 69.7 47.7 C 55.5 57.7, 80.8 77.7, 74.0 70.3 C 79.0 83.1, 34.2 70.2, 21.0 80.2 C 39.1 73.0, 6.9 65.8, 17.6 52.0 Z" fill="hsl(40, 53%, 69%)" fill-opacity="0.79" stroke="none" stroke-width="2.04"  transform="translate(71.5 51.8) rotate(295.6) scale(0.72 0.88)" />
<path d="M 6.4 84.6 C 4.4 66.9, 32.6 32.7, 24.9 33.5 C 31.3 25.5, 55.9 45.7, 54.0 31.7 C 69.9 23.2, 22.5 36.1, 19.9 34.4 C 13.0 38.5, 40.8 82.6, 40.4 92.5 C 21.1 78.1, 82.6 0.0, 79.2 2.9 C 67.5 0.0, 62.6 0.8, 53.7 15.6 C 41.0 11.3, 90.6 81.9, 76.6 75.8 Z" fill="none" fill-opacity="0.32" stroke="hsl(183, 71%, 60%)" stroke-width="2.63"  transform="translate(25.7 71.4) rotate(211.9) scale(0.81 1.59)" />
<rect x="36.4" y="27.4" width="35.7" height="32.2" rx="17.8" fill="hsl(40, 53%, 69%)" fill-opacity="0.85"   transform="translate(27.8 47.4) rotate(131.0) scale(1.31 0.82)" />
<rect x="60.5" y="20.3" width="32.3" height="36.4" rx="0" fill="hsl(106, 75%, 59%)" fill-opacity="0.89"   transform="translate(0.9 13.8) rotate(104.0) scale(1.65 1.43)" />
<rect x="23.3" y="42.5" width="29.8" height="15.7" rx="0" fill="hsl(144, 86%, 72%)" fill-opacity="0.93" stroke="hsl(104, 72%, 65%)" stroke-width="2.1"  transform="translate(44.9 98.6) rotate(147.4) scale(0.62 0.99)" />
<rect x="45.7" y="23.7" width="46.8" height="11.1" rx="0" fill="hsl(144, 86%, 72%)" fill-opacity="0.49"   transform="translate(84.3 13.4) rotate(321.6) scale(0.93 1.34)" />
<path d="M 61.9 93.3 C 46.6 99.3, 6.7 11.0, 17.5 3.2 C 36.1 0.0, 51.2 55.3, 42.8 62.5 C 24.8 76.2, 93.8 88.6, 87.1 87.9 C 85.4 81.7, 14.4 74.3, 20.0 86.6 C 8.8 94.8, 14.6 0.0, 14.8 7.8 C 28.6 0.0, 74.8 67.6, 64.8 67.8 C 78.6 73.3, 53.0 92.1, 42.7 93.4 " fill="none" fill-opacity="0.69" stroke="hsl(106, 75%, 59%)" stroke-width="3.20" filter="url(#f1)" transform="translate(46.5 28.0) rotate(80.0) scale(0.62 1.50)" />
<circle cx="30.2" cy="16.9" r="0.8" fill="hsl(144, 86%, 72%)" fill-opacity="0.53"   />
<rect x="24.1" y="54.9" width="22.2" height="28.8" rx="0" fill="none" fill-opacity="0.60"   transform="translate(32.1 14.4) rotate(139.1) scale(1.56 1.55)" />
<path d="M 98.9 64.4 C 100.0 54.2, 57.2 34.3, 58.4 31.3 C 68.3 49.7, 13.8 62.9, 9.8 59.4 C 0.0 65.8, 37.3 15.4, 43.2 24.9 C 39.5 23.9, 41.5 37.2, 38.8 25.4 C 43.8 26.4, 38.4 28.3, 30.5 29.5 C 35.6 41.1, 81.6 47.1, 87.6 58.6 C 100.0 40.3, 54.4 42.0, 53.4 54.8 C 67.9 66.7, 66.4 82.7, 59.9 88.3 C 58.6 100.0, 43.3 13.0, 53.9 3.7 " fill="hsl(183, 71%, 60%)" fill-opacity="0.76" stroke="none" stroke-width="4.98"  transform="translate(79.5 86.2) rotate(35.6) scale(0.96 1.40)" />
<rect x="38.9" y="15.7" width="38.7" height="29.5" rx="0" fill="hsl(40, 53%, 69%)" fill-opacity="0.90"   transform="translate(59.7 85.3) rotate(254.2) scale(1.33 0.64)" />
<path d="M 56.8 53.7 C 73.4 66.0, 81.9 55.9, 94.1 45.0 C 94.0 55.9, 22.0 39.9, 29.3 39.9 C 16.4 28.2, 91.0 91.5, 86.4 93.3 C 68.6 95.1, 10.2 97.0, 15.8 95.8 C 26.6 95.6, 57.7 23.4, 53.4 32.0 C 58.0 26.6, 27.5 88.5, 31.7 84.4 C 31.0 72.0, 41.1 71.2, 31.6 58.1 C 22.3 55.3, 16.5 10.1, 3.5 20.0 Z" fill="hsl(290, 83%, 63%)" fill-opacity="0.82" stroke="none" stroke-width="3.17"  transform="translate(73.0 83.3) rotate(33.0) scale(1.98 0.79)" />
<path d="M 95.3 62.0 C 75.5 62.7, 98.6 78.9, 95.8 77.6 C 95.4 77.8, 13.6 31.0, 1.6 39.2 C 0.0 36.2, 59.8 69.2, 64.0 71.7 C 51.4 82.8, 29.4 100.0, 18.9 99.4 C 0.7 100.0, 30.5 86.5, 15.7 75.5 C 0.0 65.2, 27.2 52.7, 13.0 51.7 C 10.9 37.5, 29.1 66.7, 17.8 74.8 C 30.2 65.4, 9.4 30.4, 5.3 42.4 C 5.0 27.6, 66.8 100.0, 61.6 93.9 C 71.0 100.0, 75.4 45.2, 79.4 47.5 Z" fill="hsl(104, 72%, 65%)" fill-opacity="0.37" stroke="none" stroke-width="5.02"  transform="translate(52.2 77.1) rotate(231.6) scale(0.58 0.70)" />
<path d="M 34.6 94.8 C 40.7 76.5, 73.7 49.2, 86.2 39.5 C 80.6 42.1, 81.8 65.1, 85.2 59.0 C 86.9 65.4, 77.8 47.1, 77.5 50.2 C 96.2 50.3, 63.8 24.9, 78.6 28.8 C 65.3 9.4, 56.2 83.2, 65.1 68.7 C 63.4 58.2, 13.6 62.0, 3.4 65.6 C 0.0 72.8, 68.5 81.4, 67.1 76.0 C 76.6 92.5, 62.0 36.0, 65.7 43.9 Z" fill="hsl(290, 83%, 63%)" fill-opacity="1.00" stroke="none" stroke-width="3.51"  transform="translate(92.8 68.7) rotate(274.6) scale(0.78 1.31)" />
<rect x="37.0" y="42.9" width="42.8" height="18.4" rx="17.1" fill="hsl(106, 75%, 59%)" fill-opacity="0.73"   transform="translate(47.4 30.1) rotate(117.6) scale(1.21 1.20)" />
<path d="M 49.7 4.7 C 59.5 3.3, 33.6 100.0, 19.6 99.3 C 32.4 99.4, 30.6 100.0, 16.2 92.8 C 20.0 88.7, 83.3 50.8, 92.3 54.5 C 100.0 50.1, 26.4 50.5, 21.0 44.2 C 9.0 50.7, 14.9 10.8, 5.3 24.4 C 4.4 19.2, 27.7 56.8, 33.5 66.3 C 24.8 79.6, 51.2 52.3, 49.9 56.4 Z" fill="hsl(2, 82%, 55%)" fill-opacity="0.46" stroke="none" stroke-width="3.46"  transform="translate(21.2 58.8) rotate(191.4) scale(1.79 1.71)" />
<circle cx="49.3" cy="29.8" r="9.0" fill="hsl(144, 86%, 72%)" fill-opacity="0.86"  transform="translate(74.1 3.1) rotate(281.2) scale(1.16 1.99)" />
<circle cx="80.6" cy="98.5" r="4.8" fill="url(#g2)" fill-opacity="0.44"  transform="translate(23.1 52.9) rotate(329.1) scale(0.65 1.22)" />
<path d="M 35.1 81.9 C 42.4 85.1, 29.4 47.5, 23.6 38.3 C 35.3 47.5, 100.0 61.8, 95.7 54.0 C 77.8 58.9, 57.9 93.9, 43.5 98.1 C 47.8 100.0, 46.5 62.4, 42.8 59.9 C 45.5 53.9, 21.0 52.2, 34.7 45.3 C 54.3 56.3, 65.9 12.9, 59.9 1.5 Z" fill="none" fill-opacity="0.71" stroke="hsl(86, 72%, 68%)" stroke-width="2.98"  transform="translate(49.2 87.8) rotate(147.0) scale(1.43 1.29)" />
<rect x="27.3" y="9.3" width="30.8" height="33.8" rx="15.3" fill="none" fill-opacity="0.79"   transform="translate(70.6 98.5) rotate(161.8) scale(0.68 1.70)" />
<rect x="34.9" y="70.9" width="37.4" height="20.0" rx="7.1" fill="none" fill-opacity="0.26"   transform="translate(39.4 14.8) rotate(344.6) scale(1.60 1.68)" />
<path d="M 95.4 86.9 C 88.8 100.0, 27.8 89.4, 27.0 85.6 C 30.2 82.7, 0.0 42.3, 3.0 49.1 C 17.3 35.5, 0.0 0.0, 10.4 3.1 C 9.4 0.0, 13.2 23.8, 20.5 29.0 C 33.9 10.3, 67.5 80.9, 55.3 87.1 C 62.4 81.3, 71.9 69.8, 71.7 55.0 C 59.8 35.4, 22.0 33.9, 25.9 37.1 Z" fill="hsl(144, 86%, 72%)" fill-opacity="0.88" stroke="none" stroke-width="2.79"  transform="translate(7.1 82.3) rotate(287.4) scale(0.59 1.59)" />
<path d="M 78.4 81.8 C 75.4 78.1, 11.2 58.5, 11.0 52.0 C 24.2 38.4, 69.2 0.0, 80.0 7.1 C 64.2 0.0, 24.6 30.7, 14.7 45.0 C 34.5 58.7, 76.6 67.9, 85.1 59.6 C 85.0 45.8, 70.9 9.7, 75.3 2.5 C 81.9 0.0, 0.0 81.0, 3.1 77.4 C 19.9 92.0, 88.8 32.1, 76.4 32.6 Z" fill="none" fill-opacity="0.32" stroke="hsl(242, 72%, 49%)" stroke-width="3.08"  transform="translate(8.6 31.5) rotate(32.7) scale(1.36 1.55)" />
<path d="M 8.0 15.3 C 2.4 26.5, 48.2 93.0, 50.4 83.9 C 59.8 82.9, 33.9 89.3, 44.0 77.5 C 42.1 81.2, 1.3 0.0, 7.3 12.1 C 0.1 9.6, 19.9 41.4, 28.7 51.8 C 33.7 42.9, 97.5 16.7, 96.9 2.8 C 87.1 0.0, 94.5 94.8, 85.2 86.1 C 68.4 83.4, 14.6 13.9, 0.0 8.2 C 8.9 17.6, 69.3 72.8, 69.9 63.8 Z" fill="hsl(322, 74%, 44%)" fill-opacity="0.73" stroke="none" stroke-width="5.00"  transform="translate(68.7 48.1) rotate(35.6) scale(1.91 1.01)" />
<circle cx="18.7" cy="40.5" r="2.3" fill="url(#g0)" fill-opacity="0.49" filter="url(#f1)" transform="translate(96.1 43.5) rotate(233.5) scale(0.78 0.59)" />
<circle cx="16.3" cy="17.6" r="5.8" fill="url(#g0)" fill-opacity="0.69"  transform="translate(16.4 25.7) rotate(221.9) scale(1.39 0.70)" />
<rect x="9.7" y="28.1" width="34.7" height="28.7" rx="0" fill="none" fill-opacity="0.52"   transform="translate(6.9 74.4) rotate(159.7) scale(0.55 1.79)" />
<rect x="46.0" y="16.5" width="38.1" height="36.6" rx="11.4" fill="hsl(144, 86%, 72%)" fill-opacity="0.45"    />
<path d="M 46.0 19.7 C 33.7 15.2, 0.0 6.7, 6.1 19.9 C 0.2 38.5, 17.9 88.1, 28.8 91.0 C 33.1 86.6, 33.1 56.2, 19.4 70.3 C 7.8 85.2, 41.9 9.3, 44.3 7.4 C 41.1 0.5, 51.1 2.4, 38.6 3.4 C 40.1 9.3, 23.7 53.2, 19.1 67.1 C 16.8 69.6, 92.2 0.0, 82.2 5.0 Z" fill="hsl(290, 83%, 63%)" fill-opacity="0.35" stroke="none" stroke-width="3.49"  transform="translate(88.0 84.8) rotate(309.7) scale(0.71 0.96)" />
<path d="M 20.4 46.8 C 25.0 28.1, 9.4 83.9, 4.7 96.4 C 12.1 100.0, 80.4 21.6, 86.3 32.2 C 100.0 21.5, 84.9 54.0, 71.8 64.0 C 88.4 74.6, 28.4 5.1, 16.5 19.4 C 12.3 19.7, 12.3 51.4, 1.8 43.2 C 2.3 34.0, 32.0 72.2, 34.0 79.7 C 38.1 96.8, 53.6 38.0, 44.6 34.6 C 43.6 15.6, 0.0 99.2, 0.5 89.6 Z" fill="hsl(290, 83%, 63%)" fill-opacity="0.50" stroke="none" stroke-width="3.02"  transform="translate(37.0 12.3) rotate(315.1) scale(1.70 1.82)" />
<rect x="42.7" y="7.8" width="39.3" height="28.4" rx="2.0" fill="none" fill-opacity="0.30" stroke="hsl(40, 53%, 69%)" stroke-width="1.9" filter="url(#f1)" transform="translate(79.7 48.5) rotate(111.5) scale(0.90 1.34)" />
<path d="M 54.8 81.6 C 72.6 91.3, 16.4 17.0, 20.8 4.6 C 22.6 4.6, 12.5 38.3, 3.0 38.8 C 0.0 40.0, 8.8 85.1, 4.5 82.0 C 7.9 69.1, 48.7 55.4, 58.2 69.5 C 59.2 69.1, 64.2 94.1, 55.4 97.1 C 37.6 82.3, 73.0 0.0, 82.1 5.3 C 77.3 19.0, 5.5 64.1, 1.2 58.0 C 0.0 56.8, 34.7 84.2, 34.3 81.1 Z" fill="hsl(83, 65%, 44%)" fill-opacity="0.70" stroke="none" stroke-width="4.56"  transform="translate(12.2 58.4) rotate(119.4) scale(0.51 1.99)" />
<path d="M 49.3 5.7 C 41.1 0.0, 57.1 42.3, 56.8 34.4 C 72.2 28.6, 52.9 6.4, 56.8 6.1 C 38.3 2.3, 13.3 0.0, 18.0 0.9 C 19.1 19.2, 80.3 85.4, 91.9 75.2 C 100.0 95.0, 13.6 19.0, 6.3 32.9 C 25.1 26.4, 92.7 29.3, 86.1 32.8 C 69.0 31.8, 0.0 54.0, 0.6 68.7 C 0.0 60.3, 71.2 58.1, 75.6 47.8 Z" fill="hsl(83, 65%, 44%)" fill-opacity="0.76" stroke="none" stroke-width="3.23"  transform="translate(42.4 24.3) rotate(313.1) scale(1.67 0.66)" />
<circle cx="79.3" cy="38.5" r="8.5" fill="url(#g0)" fill-opacity="0.99"   />
<path d="M 89.5 82.2 C 100.0 93.9, 0.0 93.7, 1.9 94.1 C 0.0 80.9, 15.3 0.0, 23.1 5.2 C 14.4 19.4, 77.9 78.5, 83.8 68.8 C 80.5 79.5, 21.4 53.3, 13.5 65.7 C 0.0 54.8, 40.9 20.5, 26.1 23.0 C 28.8 42.0, 33.9 12.4, 30.9 4.3 C 35.4 10.8, 22.5 9.2, 34.6 24.0 C 32.6 24.5, 63.7 22.7, 72.3 20.3 C 56.4 37.3, 0.0 54.0, 5.8 39.0 C 0.0 29.6, 84.0 84.7, 95.1 85.6 Z" fill="hsl(151, 70%, 62%)" fill-opacity="0.57" stroke="none" stroke-width="2.02"  transform="translate(45.8 92.1) rotate(39.4) scale(0.63 1.35)" />
<path d="M 4.9 42.2 C 0.0 28.3, 86.9 42.0, 74.9 51.6 C 74.4 65.4, 68.4 81.1, 56.9 79.8 C 62.9 92.5, 62.2 0.0, 75.4 5.2 C 67.9 22.7, 39.9 71.5, 50.6 64.8 C 60.1 51.7, 48.0 21.0, 62.4 12.8 C 73.5 16.2, 11.6 83.1, 25.3 83.6 C 30.4 68.4, 12.3 78.9, 20.3 80.0 C 23.7 86.1, 41.5 0.0, 41.6 1.6 C 30.2 0.0, 37.0 39.0, 48.3 32.6 C 49.7 34.0, 55.8 47.9, 42.9 60.2 Z" fill="none" fill-opacity="0.68" stroke="hsl(322, 74%, 44%)" stroke-width="1.94"  transform="translate(15.1 55.2) rotate(114.4) scale(0.80 1.16)" />
<rect x="27.1" y="67.6" width="44.5" height="19.7" rx="0" fill="hsl(144, 86%, 72%)" fill-opacity="0.39"   transform="translate(11.6 77.2) rotate(141.4) scale(1.82 1.15)" />
<rect x="49.9" y="58.8" width="37.4" height="16.3" rx="0" fill="none" fill-opacity="0.20"    />
<circle cx="1.8" cy="52.7" r="1.3" fill="url(#g2)" fill-opacity="0.95"   />
<rect x="40.7" y="29.9" width="49.3" height="32.7" rx="0" fill="none" fill-opacity="0.87" stroke="hsl(322, 74%, 44%)" stroke-width="3.8" filter="url(#f1)" transform="translate(45.3 69.7) rotate(169.5) scale(1.90 1.74)" />
<circle cx="28.9" cy="61.9" r="5.0" fill="hsl(144, 86%, 72%)" fill-opacity="0.62"  transform="translate(62.3 63.2) rotate(4.1) scale(1.17 0.82)" />
<circle cx="21.4" cy="81.3" r="6.9" fill="hsl(322, 74%, 44%)" fill-opacity="0.96"  transform="translate(81.5 40.6) rotate(254.9) scale(1.87 1.32)" />
<rect x="18.2" y="28.3" width="44.9" height="37.6" rx="2.1" fill="hsl(290, 83%, 63%)" fill-opacity="0.25" stroke="hsl(290, 83%, 63%)" stroke-width="3.1"  transform="translate(2.9 1.8) rotate(33.3) scale(1.47 0.60)" />
<rect x="41.3" y="56.9" width="35.3" height="24.4" rx="6.9" fill="none" fill-opacity="0.27" stroke="hsl(183, 71%, 60%)" stroke-width="1.8"  transform="translate(25.0 72.4) rotate(132.6) scale(0.62 1.11)" />
<path d="M 64.0 95.0 C 57.5 98.1, 43.6 32.8, 37.4 21.0 C 41.3 27.9, 71.0 30.8, 74.1 23.8 C 89.3 5.3, 50.7 41.6, 43.3 52.1 C 28.6 64.8, 51.9 12.5, 66.5 4.4 C 62.2 12.8, 24.0 72.1, 29.2 63.6 C 46.8 76.6, 39.6 75.2, 28.1 88.4 C 27.9 100.0, 63.9 9.6, 57.2 2.9 Z" fill="hsl(104, 72%, 65%)" fill-opacity="0.85" stroke="none" stroke-width="1.95"  transform="translate(65.4 28.8) rotate(5.3) scale(1.64 0.58)" />
<circle cx="96.2" cy="95.0" r="2.1" fill="url(#g2)" fill-opacity="0.45"   />
<path d="M 25.7 48.2 C 17.9 33.8, 26.4 77.7, 19.4 79.6 C 18.5 81.9, 67.7 63.0, 57.2 62.0 C 54.6 47.0, 16.0 46.5, 24.6 39.1 C 8.8 29.9, 12.6 92.6, 24.2 99.0 C 9.2 97.6, 75.7 30.3, 66.5 34.7 C 60.8 36.0, 0.0 19.1, 0.6 16.3 C 0.0 14.1, 62.6 20.5, 50.4 11.3 C 58.4 17.9, 60.4 89.8, 52.6 99.7 C 34.6 100.0, 22.6 33.0, 11.8 26.2 Z" fill="hsl(86, 72%, 68%)" fill-opacity="0.75" stroke="none" stroke-width="4.43"  transform="translate(68.2 59.1) rotate(196.6) scale(0.65 1.55)" />
<path d="M 30.8 90.4 C 37.3 72.8, 57.5 16.4, 59.0 11.6 C 44.2 28.5, 0.0 70.7, 3.0 74.3 C 4.1 68.8, 13.0 63.7, 7.9 72.5 C 26.6 59.4, 6.5 70.4, 7.2 67.4 C 11.8 57.1, 72.1 54.5, 82.1 53.7 C 92.5 65.7, 43.9 98.5, 33.9 86.7 C 27.1 100.0, 97.7 0.0, 86.8 2.7 C 71.0 0.0, 39.4 48.0, 40.2 53.7 Z" fill="hsl(104, 72%, 65%)" fill-opacity="0.76" stroke="none" stroke-width="4.28" filter="url(#f1)" transform="translate(36.0 6.7) rotate(348.0) scale(1.14 1.70)" />
<circle cx="80.0" cy="63.1" r="4.0" fill="hsl(322, 74%, 44%)" fill-opacity="0.57"   />
<path d="M 50.4 10.8 C 69.4 28.7, 51.6 7.6, 57.4 15.7 C 66.2 12.7, 60.7 56.9, 48.6 64.5 C 58.7 65.5, 2.4 58.3, 15.2 59.9 C 28.3 53.0, 75.0 78.4, 61.2 92.8 C 67.7 89.4, 37.6 49.5, 24.6 60.2 C 42.2 41.1, 4.4 56.8, 3.9 68.2 C 0.0 78.6, 0.0 33.6, 4.4 34.7 C 0.0 49.7, 36.5 24.6, 33.8 35.0 " fill="hsl(83, 65%, 44%)" fill-opacity="0.79" stroke="none" stroke-width="2.78"  transform="translate(24.2 67.1) rotate(136.3) scale(0.89 1.41)" />
<path d="M 65.7 94.0 C 81.9 79.3, 53.3 10.2, 50.9 3.8 C 36.1 0.0, 89.0 35.3, 82.6 29.5 C 93.6 17.0, 76.9 21.5, 64.9 27.7 C 79.5 21.6, 67.7 12.6, 56.2 4.1 C 70.4 0.0, 71.4 59.3, 76.5 68.1 C 79.6 60.5, 85.5 62.5, 83.1 51.6 C 88.3 39.7, 15.6 40.0, 7.7 27.3 C 2.5 15.2, 90.8 61.6, 84.7 68.2 C 79.8 75.1, 77.2 57.6, 71.8 45.1 Z" fill="none" fill-opacity="0.33" stroke="hsl(106, 75%, 59%)" stroke-width="0.87" filter="url(#f1)" transform="translate(80.4 12.0) rotate(201.4) scale(1.25 1.26)" />
<circle cx="96.8" cy="3.2" r="17.9" fill="hsl(151, 70%, 62%)" fill-opacity="0.98"  transform="translate(56.7 26.6) rotate(341.9) scale(1.25 1.08)" />
<circle cx="26.5" cy="33.3" r="0.2" fill="hsl(40, 53%, 69%)" fill-opacity="0.79" filter="url(#f1)" transform="translate(0.9 95.5) rotate(348.7) scale(1.71 1.89)" />
<circle cx="15.8" cy="23.3" r="6.0" fill="url(#g0)" fill-opacity="0.63"  transform="translate(59.1 47.5) rotate(241.8) scale(1.12 0.75)" />
<path d="M 65.0 30.9 C 47.1 32.4, 66.9 37.7, 53.5 30.6 C 66.8 27.5, 41.8 83.4, 39.2 84.6 C 27.7 81.6, 70.5 54.7, 79.6 65.0 C 83.8 84.7, 6.7 8.6, 8.5 21.5 C 4.9 23.1, 67.3 45.5, 73.9 48.1 C 87.3 49.9, 50.5 67.1, 38.5 75.9 C 44.7 58.5, 62.5 87.3, 59.0 81.1 " fill="hsl(290, 83%, 63%)" fill-opacity="0.40" stroke="none" stroke-width="2.34"  transform="translate(63.3 9.9) rotate(22.7) scale(0.94 0.70)" />
<path d="M 16.5 92.5 C 5.3 85.3, 98.9 3.4, 92.0 0.1 C 91.7 0.9, 81.7 17.5, 93.9 26.3 C 100.0 9.7, 83.4 9.5, 94.4 17.3 C 79.2 29.4, 21.3 16.7, 8.0 19.3 C 20.7 5.0, 62.0 44.0, 69.4 42.9 C 65.4 56.0, 14.8 94.0, 29.8 86.9 C 36.6 91.9, 11.5 37.1, 0.4 32.5 " fill="none" fill-opacity="0.31" stroke="hsl(83, 65%, 44%)" stroke-width="2.08" filter="url(#f1)" transform="translate(66.5 2.9) rotate(70.2) scale(1.54 1.50)" />
<path d="M 30.9 72.8 C 49.2 56.7, 39.0 41.8, 40.4 41.4 C 50.1 32.3, 99.9 16.2, 91.6 30.9 C 100.0 19.7, 100.0 22.9, 98.2 23.5 C 89.0 29.4, 71.7 72.8, 75.3 60.9 C 77.7 63.0, 67.5 9.9, 54.2 21.8 C 57.7 19.9, 12.1 15.4, 8.0 2.6 C 2.0 18.6, 89.5 88.5, 96.6 98.2 Z" fill="hsl(242, 72%, 49%)" fill-opacity="0.41" stroke="none" stroke-width="3.03"  transform="translate(67.0 29.3) rotate(333.7) scale(1.79 1.78)" />
<rect x="36.9" y="50.8" width="48.9" height="19.1" rx="0" fill="hsl(144, 86%, 72%)" fill-opacity="0.73"    />
<circle cx="38.0" cy="38.8" r="20.3" fill="url(#g0)" fill-opacity="0.85"  transform="translate(86.8 37.4) rotate(184.3) scale(0.74 1.46)" />
<path d="M 86.7 32.0 C 93.0 29.4, 0.0 6.9, 1.7 21.4 C 1.3 31.4, 50.7 10.4, 47.3 20.2 C 36.9 21.2, 34.2 88.4, 25.9 87.3 C 41.9 90.2, 100.0 67.9, 92.5 58.6 C 100.0 61.1, 82.7 21.8, 79.9 27.7 C 98.5 17.3, 83.5 84.8, 96.3 89.9 C 83.6 100.0, 13.4 49.1, 4.4 51.2 Z" fill="hsl(2, 82%, 55%)" fill-opacity="0.64" stroke="none" stroke-width="3.21"  transform="translate(77.1 63.0) rotate(293.4) scale(1.93 0.81)" />
<rect x="22.3" y="58.1" width="22.5" height="15.5" rx="0" fill="hsl(151, 70%, 62%)" fill-opacity="0.96"   transform="translate(97.8 69.5) rotate(253.9) scale(0.53 1.98)" />
<circle cx="92.4" cy="53.5" r="3.3" fill="url(#g2)" fill-opacity="0.49"  transform="translate(63.0 4.1) rotate(77.1) scale(1.95 1.13)" />
<path d="M 31.0 64.3 C 26.5 56.0, 77.6 65.5, 75.4 70.5 C 67.5 87.0, 49.3 100.0, 43.0 92.8 C 53.7 89.2, 12.6 52.8, 15.6 53.3 C 7.6 70.6, 70.3 37.7, 68.2 32.4 C 62.3 41.9, 16.4 73.6, 13.2 75.1 C 0.3 58.0, 41.6 66.4, 37.8 78.3 C 38.3 65.2, 100.0 69.8, 94.8 63.2 Z" fill="hsl(104, 72%, 65%)" fill-opacity="0.69" stroke="none" stroke-width="4.20"  transform="translate(62.1 93.7) rotate(218.3) scale(1.72 1.91)" />
<path d="M 7.5 12.0 C 26.8 17.0, 70.2 85.7, 59.9 87.3 C 67.8 99.6, 49.4 53.1, 51.1 38.8 C 69.7 26.8, 30.5 28.9, 26.1 40.7 C 30.4 47.5, 47.9 97.6, 41.0 97.2 C 41.2 100.0, 40.7 43.8, 50.2 58.7 C 34.3 67.8, 72.9 70.8, 58.5 67.6 C 52.0 60.6, 82.5 66.8, 79.2 79.3 " fill="none" fill-opacity="0.90" stroke="hsl(86, 72%, 68%)" stroke-width="3.64"  transform="translate(91.9 63.2) rotate(28.5) scale(1.51 1.96)" />
<rect x="1.3" y="7.4" width="33.7" height="32.4" rx="0" fill="none" fill-opacity="0.39"   transform="translate(7.2 96.8) rotate(155.4) scale(1.44 1.27)" />
<g opacity="0.061">
<rect x="0" y="0" width="1" height="100" fill="black" />
<rect x="22" y="0" width="1" height="100" fill="black" />
<rect x="44" y="0" width="1" height="100" fill="black" />
<rect x="66" y="0" width="1" height="100" fill="black" />
<rect x="88" y="0" width="1" height="100" fill="black" />
<rect x="0" y="0" width="100" height="1" fill="black" />
<rect x="0" y="22" width="100" height="1" fill="black" />
<rect x="0" y="44" width="100" height="1" fill="black" />
<rect x="0" y="66" width="100" height="1" fill="black" />
<rect x="0" y="88" width="100" height="1" fill="black" />
</g>

</svg>
