<?xml version="1.0" encoding="UTF-8"?>
<svg xmlns="http://www.w3.org/2000/svg" width="100" height="100" viewBox="0 0 100 100">
<defs>
<linearGradient id="g0" x1="0%" y1="0%" x2="100%" y2="100%">
<stop offset="0.0%" stop-color="hsl(106, 75%, 59%)" />
<stop offset="33.3%" stop-color="hsl(183, 71%, 60%)" />
<stop offset="66.7%" stop-color="hsl(242, 72%, 49%)" />
<stop offset="100.0%" stop-color="hsl(322, 74%, 44%)" />
</linearGradient>
<linearGradient id="g1" x1="0%" y1="0%" x2="100%" y2="100%">
<stop offset="0.0%" stop-color="hsl(290, 83%, 63%)" />
<stop offset="33.3%" stop-color="hsl(2, 82%, 55%)" />
<stop offset="66.7%" stop-color="hsl(86, 72%, 68%)" />
<stop offset="100.0%" stop-color="hsl(83, 65%, 44%)" />
</linearGradient>
<linearGradient id="g2" x1="0%" y1="0%" x2="100%" y2="100%">
<stop offset="0.0%" stop-color="hsl(40, 53%, 69%)" />
<stop offset="33.3%" stop-color="hsl(104, 72%, 65%)" />
<stop offset="66.7%" stop-color="hsl(144, 86%, 72%)" />
<stop offset="100.0%" stop-color="hsl(151, 70%, 62%)" />
</linearGradient>
<filter id="f1" x="-20%" y="-20%" width="140%" height="140%">
  <feGaussianBlur stdDeviation="0.7481569806698365" />
</filter>

</defs>

<path d="M 23.7 60.5 C 19.9 74.3, 6.1 84.8, 8.3 69.9 C 16.2 85.7, 79.5 57.4, 87.4 71.0 C 99.9 87.0, 74.7 16.9, 67.0 28.9 C 79.5 33.4, 0.0 20.4, 3.1 10.2 C 0.0 25.1, 30.5 35.4, 30.4 48.3 C 23.3 36.0, 2.0 44.4, 10.3 41.7 Z" fill="none" fill-opacity="0.68" stroke="hsl(322, 74%, 44%)" stroke-width="3.35"   />
<path d="M 7.9 59.1 C 0.0 62.6, 100.0 34.5, 85.9 33.0 C 92.1 29.7, 71.1 36.5, 59.0 23.3 C 79.0 30.3, 46.4 38.4, 54.3 41.3 C 38.8 55.6, 73.4 31.8, 62.7 46.3 C 68.5 38.9, 48.5 29.0, 52.3 28.8 C 59.7 15.0, 37.0 19.2, 44.3 30.4 Z" fill="hsl(104, 72%, 65%)" fill-opacity="0.39" stroke="none" stroke-width="4.09"  transform="translate(68.9 5.1) rotate(27.9) scale(1.04 1.56)" />
<circle cx="1.7" cy="29.0" r="13.0" fill="url(#g2)" fill-opacity="0.75"  transform="translate(38.8 49.7) rotate(147.3) scale(1.56 0.54)" />
<rect x="35.3" y="43.1" width="26.7" height="26.7" rx="9.4" fill="hsl(322, 74%, 44%)" fill-opacity="0.59" stroke="hsl(242, 72%, 49%)" stroke-width="1.6"  transform="translate(31.4 75.4) rotate(17.1) scale(1.66 1.50)" />
<rect x="56.1" y="46.5" width="40.5" height="24.9" rx="0" fill="none" fill-opacity="0.46" stroke="hsl(322, 74%, 44%)" stroke-width="1.7"  transform="translate(69.9 11.4) rotate(234.6) scale(1.91 0.93)" />
<path d="M 92.3 91.7 C 88.3 93.3, 0.0 93.1, 1.3 87.6 C 0.0 85.7, 55.3 31.4, 49.3 44.1 C 29.5 41.6, 50.6 17.1, 62.0 22.8 C 74.9 26.2, 0.0 44.4, 4.9 42.6 C 14.1 48.4, 93.6 88.4, 85.9 85.6 C 81.3 88.1, 47.7 35.8, 61.9 27.6 C 45.8 10.6, 65.1 8.2, 65.5 22.4 Z" fill="none" fill-opacity="0.91" stroke="hsl(2, 82%, 55%)" stroke-width="3.28"  transform="translate(39.7 35.9) rotate(335.6) scale(1.49 0.66)" />
<circle cx="56.0" cy="16.8" r="9.6" fill="hsl(322, 74%, 44%)" fill-opacity="0.84"  transform="translate(22.6 60.0) rotate(210.5) scale(1.98 1.47)" />
<rect x="40.8" y="60.5" width="41.2" height="32.8" rx="1.5" fill="none" fill-opacity="0.20"    />
<path d="M 45.4 52.9 C 43.0 60.6, 43.5 11.7, 44.2 25.3 C 48.1 6.7, 50.7 100.0, 43.0 98.6 C 45.3 92.0, 57.5 84.6, 62.1 79.9 C 60.7 80.5, 71.9 81.3, 76.6 86.3 C 84.2 83.5, 33.5 12.2, 18.8 16.8 C 6.0 2.4, 100.0 35.1, 96.5 24.5 C 100.0 29.1, 2.5 22.6, 3.0 36.2 C 4.0 53.6, 5.9 7.9, 4.8 3.5 C 0.0 6.8, 0.0 100.0, 6.3 91.5 Z" fill="hsl(290, 83%, 63%)" fill-opacity="0.88" stroke="none" stroke-width="1.97"   />
<path d="M 62.9 95.7 C 66.2 100.0, 38.8 85.6, 47.6 78.4 C 40.9 82.8, 57.5 48.9, 64.1 48.6 C 71.1 57.2, 46.5 82.8, 59.2 71.8 C 60.5 81.6, 31.7 84.3, 46.2 79.1 C 58.8 78.9, 25.0 44.3, 39.1 37.6 C 41.1 34.9, 72.3 46.5, 65.3 51.1 C 78.0 44.1, 100.0 8.0, 88.2 4.8 C 68.9 0.0, 56.7 83.6, 46.8 97.4 C 40.3 100.0, 93.9 58.3, 91.6 54.5 C 86.2 58.8, 22.0 36.2, 8.6 47.1 " fill="none" fill-opacity="0.45" stroke="hsl(104, 72%, 65%)" stroke-width="5.14" filter="url(#f1)" transform="translate(65.5 79.6) rotate(4.2) scale(1.50 1.74)" />
<path d="M 49.8 36.4 C 34.9 53.0, 0.0 63.9, 4.8 78.8 C 0.0 68.0, 89.2 0.0, 88.5 2.9 C 89.7 17.4, 65.4 76.9, 67.3 62.0 C 80.8 64.0, 100.0 24.3, 88.9 36.2 C 83.8 20.8, 34.3 86.6, 46.1 86.7 C 31.3 95.1, 100.0 62.0, 97.0 49.7 C 100.0 66.5, 37.3 14.1, 51.3 3.8 C 35.2 0.0, 0.0 45.6, 1.1 31.1 Z" fill="hsl(2, 82%, 55%)" fill-opacity="0.66" stroke="none" stroke-width="4.75"  transform="translate(0.5 22.6) rotate(12.2) scale(1.16 0.61)" />
<path d="M 26.0 86.0 C 21.7 100.0, 53.0 16.5, 40.6 23.9 C 54.5 23.3, 9.8 62.1, 12.6 69.0 C 9.7 63.4, 25.5 0.0, 13.7 9.1 C 19.6 1.7, 14.8 66.2, 21.8 56.4 C 41.2 72.2, 47.5 38.3, 51.4 40.1 C 70.3 43.0, 48.2 100.0, 38.1 91.1 C 40.6 100.0, 93.9 22.2, 98.7 27.3 Z" fill="none" fill-opacity="0.45" stroke="hsl(86, 72%, 68%)" stroke-width="3.84"  transform="translate(44.3 80.4) rotate(95.6) scale(0.73 0.86)" />
<circle cx="47.7" cy="23.3" r="4.8" fill="hsl(106, 75%, 59%)" fill-opacity="0.59" filter="url(#f1)" transform="translate(80.2 67.3) rotate(318.8) scale(0.55 0.80)" />
<rect x="22.0" y="68.1" width="46.2" height="25.9" rx="0" fill="hsl(104, 72%, 65%)" fill-opacity="0.86"   transform="translate(87.7 91.4) rotate(324.0) scale(1.19 0.86)" />
<path d="M 58.0 38.7 C 47.0 37.5, 100.0 13.6, 93.9 6.0 C 94.4 22.4, 19.1 31.1, 29.3 38.1 C 24.5 21.4, 0.0 91.9, 4.0 83.8 C 0.0 67.6, 18.8 15.8, 21.0 7.6 C 28.0 25.2, 79.7 50.8, 88.6 56.9 C 74.3 50.7, 14.5 89.1, 29.4 88.0 C 29.7 96.2, 100.0 21.4, 95.5 18.8 Z" fill="hsl(83, 65%, 44%)" fill-opacity="0.41" stroke="none" stroke-width="4.05"  transform="translate(83.6 89.8) rotate(111.0) scale(1.56 0.84)" />
<path d="M 98.4 21.9 C 100.0 16.4, 36.0 0.0, 33.3 2.6 C 19.6 15.2, 55.7 90.6, 57.1 97.0 C 39.2 99.0, 22.3 44.3, 24.9 43.0 C 17.7 47.0, 46.4 21.9, 57.7 29.0 C 76.0 20.1, 44.3 39.9, 49.0 38.1 C 31.8 29.7, 0.0 64.3, 5.1 55.6 " fill="hsl(322, 74%, 44%)" fill-opacity="0.53" stroke="none" stroke-width="4.13" filter="url(#f1)" transform="translate(95.6 55.3) rotate(323.6) scale(0.63 1.47)" />
<rect x="60.6" y="6.8" width="28.7" height="14.9" rx="1.5" fill="hsl(40, 53%, 69%)" fill-opacity="0.21"   transform="translate(35.6 98.4) rotate(339.5) scale(1.46 1.05)" />
<circle cx="65.3" cy="11.5" r="10.9" fill="hsl(83, 65%, 44%)" fill-opacity="0.96"  transform="translate(80.9 15.5) rotate(148.9) scale(1.57 1.30)" />
<rect x="10.2" y="62.3" width="27.2" height="34.4" rx="0" fill="none" fill-opacity="0.92"   transform="translate(89.8 93.5) rotate(187.3) scale(0.62 1.46)" />
<circle cx="61.7" cy="1.9" r="9.6" fill="hsl(322, 74%, 44%)" fill-opacity="0.95"  transform="translate(96.5 84.7) rotate(264.9) scale(1.61 1.02)" />
<path d="M 52.2 84.9 C 48.4 71.5, 16.2 42.8, 13.1 29.4 C 0.0 46.1, 100.0 99.9, 95.2 98.0 C 100.0 100.0, 87.1 95.3, 96.2 86.1 C 86.4 79.6, 77.6 0.0, 87.6 13.4 C 100.0 21.0, 46.5 26.0, 58.5 30.8 C 41.1 21.8, 22.1 56.0, 34.8 44.7 Z" fill="hsl(2, 82%, 55%)" fill-opacity="0.92" stroke="none" stroke-width="3.94"  transform="translate(17.7 10.1) rotate(287.2) scale(1.39 0.76)" />
<rect x="30.9" y="39.0" width="32.2" height="23.3" rx="15.8" fill="hsl(83, 65%, 44%)" fill-opacity="0.44"   transform="translate(42.5 10.6) rotate(41.7) scale(1.55 1.54)" />
<path d="M 15.2 50.7 C 23.7 43.1, 53.1 23.2, 57.2 10.1 C 58.0 0.0, 27.3 95.2, 19.7 99.6 C 21.8 86.7, 45.4 83.0, 57.1 81.2 C 47.0 99.3, 89.4 79.7, 84.4 81.5 C 87.7 63.3, 61.7 4.3, 64.5 16.7 C 80.9 31.3, 53.8 13.4, 42.9 9.3 C 25.2 0.0, 22.0 13.3, 20.4 21.1 C 19.7 40.4, 94.4 93.1, 92.7 93.4 Z" fill="hsl(151, 70%, 62%)" fill-opacity="0.93" stroke="none" stroke-width="4.01"  transform="translate(60.7 33.6) rotate(118.9) scale(1.14 1.01)" />
<rect x="12.1" y="27.6" width="27.1" height="22.6" rx="0" fill="none" fill-opacity="0.35" stroke="hsl(183, 71%, 60%)" stroke-width="4.6"  transform="translate(11.7 74.0) rotate(320.7) scale(0.69 1.95)" />
<path d="M 82.8 57.6 C 78.7 38.1, 100.0 81.4, 92.7 78.2 C 82.5 83.2, 80.0 29.6, 68.4 29.3 C 51.9 29.5, 100.0 94.6, 85.7 98.2 C 65.9 90.9, 84.7 0.0, 82.4 3.0 C 68.4 0.0, 81.1 94.6, 91.6 83.0 C 100.0 67.6, 1.8 89.9, 6.9 98.9 Z" fill="hsl(40, 53%, 69%)" fill-opacity="0.49" stroke="none" stroke-width="3.45"  transform="translate(7.1 72.7) rotate(90.3) scale(1.52 0.70)" />
<rect x="25.8" y="43.4" width="45.5" height="28.9" rx="0" fill="none" fill-opacity="0.51"    />
<rect x="31.2" y="8.9" width="33.0" height="28.2" rx="8.0" fill="none" fill-opacity="0.44"   transform="translate(2.3 3.2) rotate(318.9) scale(0.97 0.80)" />
<circle cx="91.0" cy="71.5" r="2.8" fill="url(#g1)" fill-opacity="0.64" filter="url(#f1)" transform="translate(84.4 80.8) rotate(169.5) scale(0.93 1.95)" />
<rect x="1.2" y="37.5" width="35.0" height="10.9" rx="8.7" fill="hsl(83, 65%, 44%)" fill-opacity="0.35"   transform="translate(65.9 50.1) rotate(358.7) scale(1.84 0.86)" />
<circle cx="72.3" cy="65.0" r="2.3" fill="url(#g0)" fill-opacity="0.96"   />
<circle cx="90.7" cy="17.2" r="3.1" fill="hsl(322, 74%, 44%)" fill-opacity="0.70"  transform="translate(64.7 27.8) rotate(263.6) scale(0.93 0.82)" />
<rect x="74.3" y="44.0" width="21.5" height="11.3" rx="0" fill="none" fill-opacity="0.77" stroke="hsl(83, 65%, 44%)" stroke-width="4.2"  transform="translate(34.1 63.1) rotate(108.2) scale(0.73 1.78)" />
<path d="M 53.7 4.5 C 57.0 8.8, 60.5 65.8, 58.9 78.5 C 50.6 75.4, 30.5 43.9, 18.8 58.6 C 1.6 43.9, 7.8 22.0, 0.1 29.2 C 12.1 47.8, 15.2 54.9, 2.5 46.8 C 12.8 49.1, 64.4 63.1, 74.4 58.2 C 56.2 71.6, 9.1 17.7, 0.9 25.4 C 0.0 18.2, 15.5 59.1, 26.9 66.4 C 7.7 52.6, 13.2 30.0, 23.0 19.3 C 13.1 19.4, 26.7 1.6, 28.8 1.2 Z" fill="none" fill-opacity="0.58" stroke="hsl(40, 53%, 69%)" stroke-width="4.06"  transform="translate(62.3 11.7) rotate(71.2) scale(1.46 1.67)" />
<path d="M 25.0 67.3 C 19.5 72.4, 88.9 49.0, 94.0 55.8 C 82.9 43.3, 75.2 58.0, 65.1 45.5 C 49.0 63.2, 59.6 84.3, 67.7 71.7 C 74.8 54.8, 99.5 93.4, 88.4 99.5 C 100.0 100.0, 100.0 0.0, 99.1 1.6 C 100.0 15.6, 26.8 74.1, 18.0 74.7 C 7.6 91.4, 46.4 72.3, 32.2 82.8 C 47.8 83.5, 95.9 43.3, 94.6 48.6 Z" fill="none" fill-opacity="0.38" stroke="hsl(83, 65%, 44%)" stroke-width="3.83"  transform="translate(13.0 28.2) rotate(334.9) scale(0.82 1.17)" />
<path d="M 89.7 98.8 C 92.7 100.0, 25.6 47.2, 35.5 36.0 C 17.3 44.8, 67.8 85.8, 70.3 94.4 C 73.1 77.4, 0.0 56.0, 0.1 56.2 C 0.7 73.9, 88.2 4.9, 90.9 3.9 C 79.4 0.0, 74.4 21.3, 61.1 29.2 C 42.0 26.2, 75.1 63.6, 85.7 62.8 C 81.7 53.8, 62.8 53.8, 66.3 56.6 " fill="none" fill-opacity="0.43" stroke="hsl(106, 75%, 59%)" stroke-width="1.86"  transform="translate(16.1 26.5) rotate(0.6) scale(1.92 1.13)" />
<rect x="40.5" y="69.3" width="36.6" height="11.3" rx="14.7" fill="none" fill-opacity="0.42" stroke="hsl(83, 65%, 44%)" stroke-width="4.8"  transform="translate(87.2 83.6) rotate(42.5) scale(1.70 1.92)" />
<rect x="8.5" y="9.0" width="29.9" height="27.2" rx="16.4" fill="none" fill-opacity="0.91"   transform="translate(12.8 97.3) rotate(101.7) scale(1.25 0.65)" />
<path d="M 59.8 26.7 C 40.2 7.2, 100.0 24.0, 86.4 27.6 C 93.5 35.9, 32.0 60.3, 32.4 55.2 C 34.5 49.8, 46.2 2.4, 46.3 0.3 C 61.3 7.5, 59.6 44.6, 54.9 49.5 C 49.4 35.8, 88.7 78.8, 83.5 68.5 C 90.3 54.3, 2.2 26.1, 10.9 23.9 Z" fill="hsl(242, 72%, 49%)" fill-opacity="0.87" stroke="none" stroke-width="4.69"  transform="translate(66.2 12.8) rotate(305.5) scale(1.73 1.87)" />
<circle cx="64.3" cy="9.7" r="10.8" fill="url(#g2)" fill-opacity="0.67"  transform="translate(66.7 79.3) rotate(142.5) scale(1.31 1.81)" />
<path d="M 52.5 94.3 C 68.5 97.9, 19.1 86.4, 26.8 86.2 C 25.7 91.9, 24.4 76.4, 22.5 90.7 C 29.3 76.3, 31.6 87.3, 37.1 86.5 C 52.7 68.6, 75.0 84.2, 80.2 74.5 C 64.8 91.8, 50.7 0.0, 49.5 5.3 C 31.7 0.0, 74.4 52.8, 88.1 43.0 C 81.7 57.1, 100.0 7.2, 97.7 12.9 C 78.0 17.2, 86.2 99.4, 91.8 86.6 C 94.9 88.2, 62.4 8.8, 66.2 17.9 Z" fill="none" fill-opacity="0.51" stroke="hsl(104, 72%, 65%)" stroke-width="1.56"  transform="translate(70.8 59.8) rotate(37.1) scale(0.64 0.90)" />
<circle cx="71.5" cy="61.9" r="7.1" fill="hsl(144, 86%, 72%)" fill-opacity="0.68"  transform="translate(93.2 1.3) rotate(154.7) scale(1.49 0.72)" />
<rect x="11.5" y="68.2" width="24.8" height="24.4" rx="0" fill="none" fill-opacity="0.24"   transform="translate(52.2 57.3) rotate(81.7) scale(1.48 0.63)" />
<rect x="26.9" y="54.9" width="48.8" height="38.8" rx="0" fill="none" fill-opacity="0.73"   transform="translate(18.1 92.6) rotate(345.9) scale(1.77 1.40)" />
<path d="M 85.6 42.9 C 89.4 35.9, 44.7 67.8, 37.3 61.2 C 24.0 74.3, 56.5 15.2, 61.0 21.8 C 41.2 39.1, 71.1 13.9, 62.9 27.1 C 76.0 38.3, 69.8 91.0, 59.5 91.5 C 77.4 89.2, 28.9 0.1, 30.0 9.3 C 11.2 28.6, 23.1 72.3, 31.3 60.7 C 21.4 57.8, 3.4 77.2, 14.8 89.1 Z" fill="none" fill-opacity="0.46" stroke="hsl(83, 65%, 44%)" stroke-width="1.11"  transform="translate(6.6 68.9) rotate(341.7) scale(0.56 1.17)" />
<path d="M 4.9 55.5 C 5.3 35.7, 53.6 68.2, 43.5 62.1 C 61.4 57.4, 82.9 5.9, 68.0 11.9 C 76.1 16.8, 20.1 83.3, 30.2 95.6 C 24.2 78.0, 0.0 84.7, 7.0 87.5 C 4.5 70.1, 26.8 46.3, 36.2 60.5 C 42.0 44.8, 55.2 93.7, 50.5 99.0 C 64.3 100.0, 0.0 6.3, 5.3 10.9 C 21.9 25.8, 27.4 93.0, 38.8 99.9 Z" fill="none" fill-opacity="0.41" stroke="hsl(2, 82%, 55%)" stroke-width="4.49"  transform="translate(17.4 96.5) rotate(197.2) scale(0.64 1.06)" />
<path d="M 75.5 74.0 C 58.2 70.8, 34.1 97.5, 30.8 95.6 C 13.0 90.1, 50.7 29.8, 52.3 22.5 C 34.8 41.9, 14.4 95.6, 13.1 98.2 C 3.8 87.8, 5.4 77.4, 2.4 73.4 C 3.3 58.0, 49.6 100.0, 55.3 97.8 C 47.6 100.0, 81.8 71.3, 73.1 61.3 Z" fill="none" fill-opacity="0.87" stroke="hsl(83, 65%, 44%)" stroke-width="1.27"  transform="translate(32.8 93.2) rotate(20.4) scale(1.91 0.55)" />
<path d="M 86.2 32.8 C 82.1 25.4, 89.6 15.3, 91.7 16.0 C 76.7 18.7, 91.6 48.1, 83.9 34.5 C 70.4 43.0, 93.5 17.6, 88.1 23.7 C 74.1 14.0, 76.9 26.4, 78.5 13.3 C 69.8 30.2, 58.2 46.9, 63.2 54.5 C 72.9 54.4, 96.5 42.7, 97.8 31.6 Z" fill="hsl(40, 53%, 69%)" fill-opacity="0.47" stroke="none" stroke-width="3.61"  transform="translate(18.7 40.9) rotate(270.1) scale(1.47 1.97)" />
<circle cx="75.5" cy="48.8" r="0.7" fill="url(#g1)" fill-opacity="0.48"  transform="translate(71.9 80.5) rotate(294.9) scale(1.68 1.02)" />
<rect x="32.3" y="73.0" width="37.4" height="13.6" rx="14.9" fill="hsl(144, 86%, 72%)" fill-opacity="0.60"   transform="translate(24.0 84.1) rotate(13.2) scale(1.46 1.34)" />
<path d="M 58.3 70.0 C 77.2 66.5, 3.8 78.9, 4.5 74.9 C 0.0 83.0, 37.5 6.0, 39.6 12.3 C 23.9 7.1, 24.5 75.8, 32.8 76.2 C 50.5 62.6, 100.0 62.6, 86.7 58.5 C 100.0 77.6, 93.5 22.6, 86.6 17.2 C 97.8 24.6, 7.4 22.7, 3.9 34.2 C 7.5 39.5, 0.0 57.5, 2.8 43.7 C 0.0 44.3, 28.1 86.9, 28.1 94.0 C 43.6 76.7, 51.6 76.7, 58.0 80.1 Z" fill="hsl(151, 70%, 62%)" fill-opacity="0.68" stroke="none" stroke-width="4.38"  transform="translate(90.5 71.8) rotate(71.0) scale(0.98 1.77)" />
<circle cx="41.5" cy="44.0" r="4.5" fill="hsl(151, 70%, 62%)" fill-opacity="0.99"  transform="translate(71.5 61.2) rotate(192.6) scale(1.50 0.69)" />
<circle cx="98.2" cy="97.1" r="5.2" fill="hsl(104, 72%, 65%)" fill-opacity="0.42"  transform="translate(79.9 28.0) rotate(177.7) scale(1.64 0.64)" />
<rect x="38.3" y="58.5" width="28.3" height="36.8" rx="15.8" fill="hsl(242, 72%, 49%)" fill-opacity="0.90"   transform="translate(19.9 81.6) rotate(347.5) scale(1.43 1.74)" />
<path d="M 47.3 82.6 C 63.1 94.0, 33.2 60.6, 29.4 53.4 C 40.6 48.3, 44.5 94.5, 36.1 96.8 C 36.9 100.0, 83.6 50.1, 82.1 45.4 C 100.0 37.7, 92.3 21.8, 93.3 12.6 C 89.1 16.7, 0.0 40.5, 7.3 27.4 C 0.0 30.4, 93.4 45.3, 85.3 45.1 C 89.0 63.6, 56.5 80.0, 62.0 83.3 C 55.4 91.6, 36.4 80.0, 46.0 81.2 C 63.4 91.4, 10.6 66.8, 0.6 56.7 Z" fill="hsl(151, 70%, 62%)" fill-opacity="0.83" stroke="none" stroke-width="2.84" filter="url(#f1)" transform="translate(50.3 94.3) rotate(222.4) scale(1.55 0.90)" />
<rect x="24.1" y="76.2" width="48.9" height="16.8" rx="0" fill="hsl(86, 72%, 68%)" fill-opacity="0.89"   transform="translate(2.6 6.9) rotate(238.6) scale(0.96 1.20)" />
<path d="M 93.6 19.1 C 100.0 1.7, 100.0 99.5, 98.3 95.1 C 100.0 76.3, 88.0 49.5, 80.8 36.4 C 75.2 20.3, 72.5 58.5, 59.9 63.7 C 61.4 77.1, 88.3 89.0, 91.2 80.3 C 76.7 89.4, 89.0 60.7, 86.9 58.6 C 100.0 49.3, 32.9 64.8, 18.2 67.3 C 30.5 87.3, 47.9 84.0, 51.8 95.0 C 55.6 87.5, 0.0 30.4, 0.0 19.9 " fill="hsl(106, 75%, 59%)" fill-opacity="0.66" stroke="none" stroke-width="4.97"   />
<path d="M 11.2 25.5 C 26.2 38.0, 92.4 71.0, 91.1 73.1 C 84.1 84.1, 18.7 73.1, 19.6 60.4 C 28.9 66.4, 72.7 16.0, 68.2 9.4 C 59.2 24.2, 60.6 62.4, 70.9 59.0 C 58.9 73.7, 100.0 31.0, 100.0 27.9 C 80.1 32.3, 43.8 77.9, 53.8 80.9 C 56.9 81.2, 62.8 52.3, 66.1 49.5 C 68.7 41.5, 100.0 30.7, 98.7 42.4 Z" fill="hsl(40, 53%, 69%)" fill-opacity="0.44" stroke="none" stroke-width="5.29"  transform="translate(79.6 97.9) rotate(179.1) scale(0.75 1.11)" />
<rect x="45.4" y="31.9" width="20.4" height="38.5" rx="17.1" fill="none" fill-opacity="0.67"    />
<path d="M 44.0 73.2 C 49.4 68.7, 17.2 82.1, 15.8 88.4 C 29.2 100.0, 100.0 21.2, 98.7 32.8 C 100.0 43.5, 0.0 73.5, 1.7 63.8 C 8.5 57.5, 64.2 59.2, 64.8 48.7 C 62.2 40.3, 83.2 9.6, 87.0 16.6 C 79.6 34.4, 80.1 20.6, 88.6 6.9 C 76.3 8.5, 5.6 100.0, 5.9 88.1 C 0.0 70.2, 40.1 60.7, 30.1 52.4 C 40.4 39.0, 7.1 41.7, 5.5 32.8 C 23.0 45.8, 93.7 70.4, 91.3 57.1 Z" fill="hsl(322, 74%, 44%)" fill-opacity="0.65" stroke="none" stroke-width="2.29" filter="url(#f1)" transform="translate(32.1 31.0) rotate(74.7) scale(1.32 1.78)" />
<rect x="54.1" y="76.8" width="28.5" height="13.5" rx="0.2" fill="none" fill-opacity="0.59"   transform="translate(85.7 39.5) rotate(96.3) scale(1.42 1.94)" />
<rect x="7.3" y="30.1" width="28.5" height="30.7" rx="0" fill="hsl(151, 70%, 62%)" fill-opacity="0.73"   transform="translate(61.0 99.1) rotate(261.4) scale(0.57 1.18)" />
<path d="M 63.7 17.4 C 50.3 26.3, 58.7 63.4, 63.1 63.0 C 71.2 72.3, 98.6 42.9, 87.9 32.7 C 85.7 25.5, 68.0 11.6, 56.9 21.9 C 66.7 39.0, 48.3 64.3, 58.7 54.0 C 52.9 51.9, 100.0 56.4, 89.3 69.9 C 85.0 84.3, 34.0 27.3, 31.8 21.0 Z" fill="hsl(40, 53%, 69%)" fill-opacity="0.85" stroke="none" stroke-width="5.02"   />
<path d="M 62.9 81.0 C 71.2 81.9, 22.2 7.9, 28.3 22.1 C 36.9 42.0, 20.3 26.3, 27.4 39.5 C 41.6 23.5, 31.1 32.1, 17.5 30.9 C 35.7 33.8, 49.9 93.0, 46.9 94.9 C 60.3 100.0, 24.7 11.6, 25.9 17.4 C 25.2 11.5, 74.8 45.1, 69.3 53.8 C 58.9 38.2, 45.0 77.6, 33.0 87.9 C 26.8 93.0, 66.6 83.4, 72.2 91.8 C 55.4 100.0, 76.1 23.4, 86.5 34.2 Z" fill="none" fill-opacity="0.41" stroke="hsl(322, 74%, 44%)" stroke-width="1.18"  transform="translate(62.9 9.2) rotate(214.0) scale(0.51 1.78)" />
<path d="M 35.4 32.3 C 39.6 12.7, 38.4 98.1, 44.2 87.3 C 35.6 78.6, 0.0 39.9, 7.8 42.3 C 26.1 32.4, 82.2 31.5, 86.5 42.9 C 93.1 53.8, 18.5 54.7, 30.7 41.5 C 19.3 49.8, 92.1 76.1, 91.0 83.6 C 77.2 88.7, 84.2 84.7, 90.5 82.4 C 83.1 68.9, 83.3 12.8, 89.8 2.3 Z" fill="hsl(144, 86%, 72%)" fill-opacity="0.50" stroke="none" stroke-width="1.27"  transform="translate(11.1 75.2) rotate(273.6) scale(1.10 1.11)" />
<path d="M 25.7 87.1 C 30.4 81.3, 53.0 22.1, 41.9 9.2 C 40.4 12.8, 24.7 5.0, 36.7 13.0 C 49.4 16.8, 82.1 11.3, 75.6 3.9 C 75.4 10.9, 31.4 17.6, 25.9 21.6 C 17.6 3.2, 38.8 78.9, 37.3 65.9 C 45.5 53.9, 17.4 35.7, 19.1 21.7 C 0.5 4.1, 19.7 93.9, 24.9 91.6 C 13.5 80.5, 64.4 92.4, 57.5 80.0 C 57.7 76.5, 79.1 94.7, 93.9 90.2 C 100.0 91.8, 61.1 12.1, 55.0 3.1 Z" fill="none" fill-opacity="0.46" stroke="hsl(106, 75%, 59%)" stroke-width="2.90" filter="url(#f1)" transform="translate(34.2 14.2) rotate(333.2) scale(1.78 1.83)" />
<circle cx="33.7" cy="17.8" r="3.1" fill="hsl(86, 72%, 68%)" fill-opacity="0.90" filter="url(#f1)" transform="translate(26.5 18.4) rotate(215.7) scale(1.38 0.92)" />
<path d="M 49.7 71.5 C 63.2 82.5, 31.1 35.0, 20.6 22.6 C 34.0 19.2, 14.8 5.6, 27.8 19.2 C 20.6 37.1, 65.6 100.0, 60.2 87.1 C 50.4 100.0, 12.5 67.9, 2.2 54.8 C 11.7 54.9, 68.6 97.4, 72.6 90.8 C 66.1 97.7, 82.4 24.4, 77.8 32.4 C 60.7 13.1, 15.7 91.2, 27.5 82.7 Z" fill="hsl(183, 71%, 60%)" fill-opacity="0.37" stroke="none" stroke-width="2.94"  transform="translate(19.5 82.3) rotate(93.2) scale(1.15 1.99)" />
<path d="M 95.3 76.2 C 77.6 72.7, 40.9 0.0, 31.8 3.6 C 40.4 0.0, 43.1 69.3, 28.2 58.8 C 35.5 63.4, 74.3 42.8, 72.8 53.4 C 82.5 62.4, 9.1 59.3, 17.4 71.5 C 33.6 58.0, 51.8 47.3, 43.2 55.1 C 39.4 37.4, 3.4 12.8, 4.8 23.9 Z" fill="hsl(40, 53%, 69%)" fill-opacity="0.40" stroke="none" stroke-width="4.49"  transform="translate(56.0 87.1) rotate(270.3) scale(1.71 0.57)" />
<circle cx="64.5" cy="88.5" r="5.9" fill="url(#g1)" fill-opacity="0.55"  transform="translate(62.3 10.4) rotate(61.4) scale(1.78 1.34)" />
<rect x="23.7" y="55.7" width="48.8" height="30.4" rx="15.5" fill="none" fill-opacity="0.23"   transform="translate(78.0 32.7) rotate(254.4) scale(1.19 1.57)" />
<rect x="37.4" y="31.1" width="38.7" height="28.7" rx="0" fill="none" fill-opacity="0.60" stroke="hsl(106, 75%, 59%)" stroke-width="4.2"  transform="translate(82.6 8.7) rotate(16.8) scale(0.66 1.31)" />
<path d="M 59.8 33.1 C 53.2 32.3, 70.9 13.4, 80.8 14.8 C 62.8 29.0, 98.1 61.0, 86.0 56.3 C 69.7 47.3, 61.8 87.3, 52.1 91.1 C 41.9 91.5, 45.1 89.2, 36.1 88.9 C 43.4 76.9, 100.0 50.1, 90.6 63.9 C 90.0 53.2, 56.3 30.0, 42.6 20.2 C 33.5 0.3, 10.6 46.1, 18.1 48.9 C 13.4 52.3, 15.5 68.5, 16.2 59.3 C 3.4 70.3, 10.8 51.3, 20.7 62.6 C 4.9 53.3, 22.6 26.0, 20.2 14.2 Z" fill="none" fill-opacity="0.62" stroke="hsl(322, 74%, 44%)" stroke-width="3.42"   />
<path d="M 24.9 28.7 C 6.8 31.1, 0.0 29.4, 5.4 33.9 C 7.0 39.7, 66.8 46.4, 56.7 54.0 C 58.1 55.7, 31.8 43.3, 39.0 34.5 C 41.2 41.9, 87.6 64.5, 81.4 66.6 C 95.5 76.5, 77.4 72.8, 74.6 68.3 C 88.9 55.9, 79.5 0.4, 91.1 10.1 C 89.1 13.7, 53.0 33.7, 64.1 25.0 C 61.6 35.3, 80.3 18.6, 79.9 18.7 C 65.7 14.0, 25.3 59.9, 35.1 58.4 C 49.1 54.2, 71.0 86.6, 61.7 93.2 Z" fill="hsl(83, 65%, 44%)" fill-opacity="0.36" stroke="none" stroke-width="4.58"   />
<rect x="25.3" y="27.0" width="46.7" height="29.0" rx="0" fill="hsl(2, 82%, 55%)" fill-opacity="0.50"   transform="translate(73.4 31.2) rotate(298.4) scale(1.69 1.48)" />
<circle cx="5.6" cy="20.3" r="2.0" fill="hsl(40, 53%, 69%)" fill-opacity="0.83"  transform="translate(70.2 4.1) rotate(190.8) scale(0.81 1.68)" />
<path d="M 47.5 46.1 C 52.8 37.9, 21.0 67.5, 17.9 73.5 C 26.3 74.9, 69.4 18.2, 80.0 28.0 C 94.2 34.8, 43.8 2.1, 40.1 7.2 C 43.9 21.2, 22.6 61.3, 29.0 50.4 C 32.7 46.5, 35.8 11.0, 37.9 3.2 C 49.9 0.0, 5.7 31.6, 12.7 25.4 C 31.2 14.0, 3.3 5.2, 1.4 15.3 C 0.0 11.8, 77.7 42.6, 72.2 37.1 C 59.8 40.0, 20.7 80.4, 34.2 95.3 C 28.7 84.3, 94.3 78.5, 90.5 67.1 Z" fill="none" fill-opacity="0.82" stroke="hsl(86, 72%, 68%)" stroke-width="4.52"   />
<rect x="10.1" y="37.7" width="34.8" height="15.1" rx="0" fill="none" fill-opacity="0.82" stroke="hsl(86, 72%, 68%)" stroke-width="2.0"  transform="translate(79.5 14.5) rotate(132.7) scale(1.43 0.51)" />
<path d="M 12.5 0.2 C 26.1 0.0, 5.1 69.5, 1.4 83.9 C 3.4 83.9, 27.5 71.3, 31.5 73.7 C 23.9 88.2, 90.3 28.5, 93.3 27.9 C 85.5 44.2, 30.0 63.2, 16.9 53.7 C 4.9 47.3, 17.8 80.6, 8.0 92.2 C 10.1 78.3, 2.6 50.7, 9.6 43.6 C 13.0 55.6, 36.3 0.6, 37.9 2.2 C 43.4 14.8, 0.0 27.3, 12.1 14.7 C 12.4 17.8, 40.8 100.0, 31.3 97.0 C 29.5 88.4, 26.2 87.6, 31.4 99.2 Z" fill="hsl(104, 72%, 65%)" fill-opacity="0.71" stroke="none" stroke-width="1.62"  transform="translate(71.4 60.7) rotate(238.0) scale(1.22 1.16)" />
<rect x="4.0" y="34.8" width="41.3" height="10.6" rx="12.1" fill="hsl(242, 72%, 49%)" fill-opacity="0.75"   transform="translate(3.4 20.5) rotate(70.6) scale(0.54 0.85)" />
<rect x="34.5" y="51.9" width="32.1" height="11.3" rx="0" fill="none" fill-opacity="0.39"    />
<path d="M 52.7 80.0 C 52.9 77.5, 82.8 17.3, 80.1 27.5 C 61.5 28.1, 0.0 49.8, 11.3 48.5 C 0.0 65.6, 35.3 49.2, 31.8 49.7 C 20.7 67.9, 23.1 5.5, 14.4 2.6 C 33.2 6.6, 34.6 28.3, 34.2 32.5 C 42.2 40.4, 75.5 2.2, 63.9 6.7 Z" fill="none" fill-opacity="0.80" stroke="hsl(290, 83%, 63%)" stroke-width="2.54"   />
<circle cx="17.7" cy="6.0" r="3.6" fill="hsl(40, 53%, 69%)" fill-opacity="0.73"  transform="translate(90.8 93.9) rotate(346.4) scale(1.78 0.84)" />
<rect x="33.9" y="78.7" width="35.8" height="13.4" rx="10.7" fill="hsl(183, 71%, 60%)" fill-opacity="0.38" stroke="hsl(322, 74%, 44%)" stroke-width="3.4"  transform="translate(44.8 69.9) rotate(330.6) scale(1.40 1.58)" />
<rect x="9.4" y="66.0" width="28.6" height="32.7" rx="0" fill="none" fill-opacity="0.59"   transform="translate(19.5 55.0) rotate(199.8) scale(1.07 1.17)" />
<path d="M 7.6 31.6 C 11.5 24.2, 45.1 13.4, 39.1 25.7 C 22.0 27.9, 29.5 2.5, 40.4 9.9 C 31.2 19.1, 31.3 26.7, 24.8 34.5 C 18.1 51.5, 56.5 72.0, 65.7 69.7 C 75.1 72.8, 27.1 19.7, 35.1 16.3 C 19.4 30.4, 38.9 100.0, 53.6 91.9 Z" fill="none" fill-opacity="0.87" stroke="hsl(86, 72%, 68%)" stroke-width="4.95"  transform="translate(62.9 77.1) rotate(11.7) scale(0.89 1.76)" />
<path d="M 61.4 7.6 C 54.0 14.9, 75.0 36.4, 79.1 45.2 C 86.7 34.0, 96.1 23.6, 97.7 17.8 C 100.0 7.5, 86.8 44.4, 81.1 52.5 C 98.9 39.9, 22.7 54.6, 9.9 63.0 C 24.0 45.6, 57.0 1.3, 66.9 9.6 C 55.3 18.3, 62.8 100.0, 77.3 87.9 " fill="hsl(322, 74%, 44%)" fill-opacity="0.79" stroke="none" stroke-width="4.01"  transform="translate(88.3 35.6) rotate(7.4) scale(1.56 0.91)" />
<path d="M 9.1 20.2 C 7.4 12.9, 76.1 79.7, 83.7 81.8 C 91.6 97.4, 0.0 1.9, 14.1 1.3 C 4.8 1.3, 54.1 19.2, 42.5 14.3 C 48.8 22.8, 66.2 36.2, 69.7 29.8 C 62.5 47.2, 62.5 100.0, 72.0 92.8 C 80.8 79.3, 86.6 24.9, 80.0 28.5 Z" fill="hsl(104, 72%, 65%)" fill-opacity="0.70" stroke="none" stroke-width="2.49"  transform="translate(80.0 20.4) rotate(48.8) scale(0.77 1.16)" />
<rect x="65.0" y="63.3" width="26.6" height="31.0" rx="18.6" fill="none" fill-opacity="0.21"   transform="translate(17.0 44.3) rotate(137.9) scale(1.45 1.67)" />
<rect x="18.1" y="75.4" width="47.2" height="23.6" rx="10.7" fill="hsl(2, 82%, 55%)" fill-opacity="0.21" stroke="hsl(2, 82%, 55%)" stroke-width="4.9"  transform="translate(77.8 44.8) rotate(114.9) scale(0.59 1.01)" />
<path d="M 79.8 54.1 C 82.8 71.6, 21.5 100.0, 24.5 94.0 C 11.0 75.3, 15.7 82.9, 25.7 90.0 C 23.6 100.0, 0.2 80.2, 14.8 87.7 C 23.1 86.5, 8.9 16.4, 8.1 28.9 C 21.8 34.4, 2.4 31.5, 5.1 44.5 C 16.4 27.7, 20.7 4.2, 28.2 16.6 Z" fill="hsl(242, 72%, 49%)" fill-opacity="0.26" stroke="none" stroke-width="1.77"  transform="translate(58.2 51.4) rotate(173.2) scale(0.97 1.95)" />
<path d="M 78.3 33.1 C 60.9 28.8, 97.5 63.9, 83.7 77.2 C 76.8 65.2, 55.0 94.7, 47.6 92.7 C 52.5 100.0, 100.0 23.9, 95.8 10.3 C 85.1 13.1, 17.8 49.6, 10.3 41.1 C 27.0 59.6, 70.9 83.4, 69.9 96.6 C 70.2 98.1, 39.9 42.3, 36.3 36.7 Z" fill="hsl(2, 82%, 55%)" fill-opacity="0.84" stroke="none" stroke-width="3.06"   />
<path d="M 43.4 26.7 C 34.7 21.9, 0.0 0.0, 8.5 3.1 C 26.1 8.8, 69.3 56.3, 65.9 42.9 C 81.0 61.3, 66.9 18.6, 74.2 20.9 C 81.3 25.7, 63.2 9.6, 53.1 23.1 C 71.0 3.4, 17.7 33.9, 19.4 38.2 C 23.5 39.1, 43.5 61.1, 51.3 47.7 Z" fill="none" fill-opacity="0.57" stroke="hsl(104, 72%, 65%)" stroke-width="2.03"  transform="translate(7.2 52.2) rotate(276.1) scale(1.71 1.36)" />
<circle cx="69.1" cy="86.4" r="8.1" fill="hsl(290, 83%, 63%)" fill-opacity="0.49"   />
<path d="M 30.6 2.8 C 48.3 22.0, 68.6 77.0, 81.1 80.1 C 86.8 70.9, 41.4 55.7, 53.4 55.7 C 63.8 53.3, 60.4 9.5, 58.9 16.2 C 40.4 34.5, 1.9 62.7, 9.0 56.6 C 16.8 42.4, 30.5 63.8, 33.5 78.6 C 25.1 92.7, 50.8 77.2, 49.2 85.6 C 48.3 79.9, 70.0 14.0, 63.9 20.4 " fill="hsl(151, 70%, 62%)" fill-opacity="0.48" stroke="none" stroke-width="5.20"  transform="translate(26.9 61.2) rotate(201.6) scale(1.91 0.52)" />
<circle cx="9.1" cy="82.9" r="4.4" fill="url(#g2)" fill-opacity="0.52" filter="url(#f1)" transform="translate(60.1 70.1) rotate(165.2) scale(1.64 1.30)" />
<rect x="49.2" y="12.1" width="28.9" height="31.2" rx="16.2" fill="none" fill-opacity="0.70"   transform="translate(96.1 69.6) rotate(153.0) scale(1.80 1.08)" />
<path d="M 43.3 39.7 C 57.0 37.5, 68.6 16.5, 58.4 23.4 C 75.8 42.4, 37.3 65.5, 28.9 77.8 C 27.8 96.3, 66.3 26.6, 58.7 18.8 C 53.4 6.2, 35.2 43.9, 28.7 48.7 C 44.3 46.1, 84.3 54.1, 78.7 58.1 C 92.8 39.5, 38.5 28.4, 35.5 17.8 C 21.1 22.7, 33.3 46.7, 36.4 35.7 C 39.4 20.2, 88.5 80.4, 95.4 84.6 C 100.0 80.7, 25.3 42.9, 36.9 57.0 C 50.2 57.9, 100.0 16.7, 97.3 15.1 Z" fill="hsl(290, 83%, 63%)" fill-opacity="0.69" stroke="none" stroke-width="1.56"  transform="translate(83.0 28.7) rotate(102.6) scale(0.93 1.98)" />
<path d="M 59.2 7.7 C 71.6 4.3, 57.6 67.8, 44.6 58.0 C 41.6 47.1, 94.0 0.0, 90.9 2.7 C 71.2 16.2, 99.4 100.0, 94.1 92.0 C 100.0 75.8, 11.1 78.6, 20.0 79.7 C 36.7 76.4, 76.8 18.5, 87.2 13.3 C 87.5 19.0, 100.0 76.3, 93.3 75.9 C 88.0 59.6, 30.5 45.2, 24.7 47.8 C 39.2 55.8, 10.1 55.3, 24.7 43.4 C 20.7 58.5, 31.8 18.5, 46.0 6.8 C 51.4 21.4, 42.0 100.0, 28.9 93.3 " fill="none" fill-opacity="0.96" stroke="hsl(86, 72%, 68%)" stroke-width="1.30"  transform="translate(62.5 38.9) rotate(172.8) scale(0.55 1.91)" />
<path d="M 96.4 75.3 C 100.0 93.8, 33.7 69.6, 44.6 82.5 C 28.5 87.1, 7.5 100.0, 3.2 96.5 C 0.0 88.1, 26.3 94.0, 34.2 96.5 C 25.8 100.0, 41.1 35.8, 49.8 31.5 C 64.3 13.8, 0.0 27.3, 3.0 34.5 C 0.0 37.4, 29.5 24.7, 19.6 18.3 " fill="none" fill-opacity="0.72" stroke="hsl(40, 53%, 69%)" stroke-width="1.25"  transform="translate(60.0 83.4) rotate(219.2) scale(1.13 0.76)" />
<path d="M 81.5 34.8 C 85.4 39.8, 29.7 100.0, 31.3 90.2 C 26.3 84.2, 26.4 51.2, 14.3 47.3 C 21.1 63.8, 41.9 75.6, 56.3 88.5 C 52.8 100.0, 69.1 94.7, 75.9 95.4 C 76.2 100.0, 29.0 7.7, 18.0 21.6 C 32.5 37.6, 82.9 94.8, 77.2 89.6 C 63.5 78.1, 44.4 75.2, 33.6 65.6 " fill="hsl(40, 53%, 69%)" fill-opacity="0.51" stroke="none" stroke-width="3.51"   />
<path d="M 34.2 10.6 C 32.3 0.0, 98.5 12.1, 84.8 21.7 C 90.5 11.3, 47.2 82.0, 43.3 86.7 C 43.5 68.3, 100.0 17.3, 93.6 13.4 C 100.0 33.4, 71.8 26.2, 57.4 11.7 C 41.5 26.5, 59.3 42.6, 49.3 32.9 C 56.7 51.9, 87.3 74.6, 77.5 79.0 Z" fill="hsl(151, 70%, 62%)" fill-opacity="0.98" stroke="none" stroke-width="4.61"  transform="translate(74.4 44.1) rotate(302.8) scale(1.45 1.15)" />
<rect x="18.4" y="44.1" width="45.0" height="15.5" rx="0" fill="none" fill-opacity="0.52" stroke="hsl(106, 75%, 59%)" stroke-width="1.7"  transform="translate(47.0 86.2) rotate(209.7) scale(1.44 1.19)" />
<rect x="19.2" y="16.8" width="27.9" height="38.3" rx="0" fill="none" fill-opacity="0.44" stroke="hsl(83, 65%, 44%)" stroke-width="2.3"  transform="translate(1.2 66.5) rotate(86.9) scale(0.66 0.61)" />
<path d="M 77.8 16.5 C 92.1 13.5, 82.8 75.4, 68.1 65.7 C 58.3 79.6, 50.2 100.0, 48.0 98.6 C 45.0 81.5, 0.0 12.3, 7.3 26.7 C 26.6 28.8, 37.1 100.0, 31.6 96.0 C 27.7 83.9, 75.9 80.3, 89.1 74.1 C 89.2 55.1, 27.1 100.0, 35.9 95.7 Z" fill="hsl(290, 83%, 63%)" fill-opacity="0.69" stroke="none" stroke-width="2.92" filter="url(#f1)" transform="translate(5.8 71.4) rotate(339.1) scale(1.07 1.38)" />
<path d="M 22.7 5.1 C 14.8 19.0, 41.6 88.7, 31.7 79.2 C 14.1 98.2, 35.6 7.1, 24.9 1.7 C 31.7 0.0, 65.7 89.0, 76.9 84.3 C 94.6 90.9, 86.3 68.9, 79.1 81.5 C 62.7 93.9, 7.1 20.5, 6.4 8.6 C 0.0 27.8, 37.7 58.6, 31.7 53.4 C 41.4 42.3, 75.6 0.0, 77.6 0.7 C 65.0 9.7, 3.3 89.1, 8.5 82.9 C 9.4 95.6, 26.7 80.2, 32.4 95.0 " fill="hsl(151, 70%, 62%)" fill-opacity="0.60" stroke="none" stroke-width="3.21"   />
<circle cx="76.6" cy="16.1" r="11.8" fill="url(#g2)" fill-opacity="0.56"  transform="translate(34.0 28.8) rotate(86.7) scale(1.48 1.66)" />
<circle cx="3.4" cy="87.5" r="0.1" fill="url(#g2)" fill-opacity="0.57" filter="url(#f1)" transform="translate(94.8 90.5) rotate(99.7) scale(0.55 1.00)" />
<path d="M 7.0 31.0 C 17.9 36.6, 25.2 34.0, 29.6 35.4 C 13.4 53.4, 26.4 58.5, 24.3 54.0 C 6.1 48.4, 22.8 89.6, 23.1 95.4 C 32.4 100.0, 16.4 68.9, 30.9 58.7 C 29.6 77.4, 74.6 21.0, 79.0 6.1 C 98.6 15.3, 44.0 30.5, 43.0 31.4 C 36.4 38.6, 45.1 24.2, 36.9 25.5 Z" fill="none" fill-opacity="0.35" stroke="hsl(2, 82%, 55%)" stroke-width="5.17"  transform="translate(11.0 58.7) rotate(150.0) scale(1.53 1.93)" />
<path d="M 49.7 49.0 C 59.2 37.2, 7.7 18.9, 0.2 6.3 C 0.0 25.9, 93.0 7.2, 82.3 14.2 C 74.4 23.7, 34.5 55.6, 43.7 57.5 C 49.2 58.5, 89.0 61.3, 78.2 55.1 C 62.7 74.8, 25.6 70.4, 39.7 70.7 C 30.3 50.7, 74.7 10.5, 89.6 4.2 C 72.9 0.0, 46.0 25.3, 35.9 20.8 C 21.8 10.5, 47.4 57.8, 36.2 70.3 C 52.3 56.7, 15.9 65.4, 2.9 61.4 Z" fill="hsl(2, 82%, 55%)" fill-opacity="0.38" stroke="none" stroke-width="1.06"   />
<g opacity="0.055">
<rect x="0" y="0" width="1" height="100" fill="black" />
<rect x="22" y="0" width="1" height="100" fill="black" />
<rect x="44" y="0" width="1" height="100" fill="black" />
<rect x="66" y="0" width="1" height="100" fill="black" />
<rect x="88" y="0" width="1" height="100" fill="black" />
<rect x="0" y="0" width="100" height="1" fill="black" />
<rect x="0" y="22" width="100" height="1" fill="black" />
<rect x="0" y="44" width="100" height="1" fill="black" />
<rect x="0" y="66" width="100" height="1" fill="black" />
<rect x="0" y="88" width="100" height="1" fill="black" />
</g>

</svg>
