<?xml version="1.0" encoding="UTF-8"?>
<svg xmlns="http://www.w3.org/2000/svg" width="100" height="100" viewBox="0 0 100 100">
<defs>
<linearGradient id="g0" x1="0%" y1="0%" x2="100%" y2="100%">
<stop offset="0.0%" stop-color="hsl(106, 75%, 59%)" />
<stop offset="33.3%" stop-color="hsl(183, 71%, 60%)" />
<stop offset="66.7%" stop-color="hsl(242, 72%, 49%)" />
<stop offset="100.0%" stop-color="hsl(322, 74%, 44%)" />
</linearGradient>
<linearGradient id="g1" x1="0%" y1="0%" x2="100%" y2="100%">
<stop offset="0.0%" stop-color="hsl(290, 83%, 63%)" />
<stop offset="33.3%" stop-color="hsl(2, 82%, 55%)" />
<stop offset="66.7%" stop-color="hsl(86, 72%, 68%)" />
<stop offset="100.0%" stop-color="hsl(83, 65%, 44%)" />
</linearGradient>
<linearGradient id="g2" x1="0%" y1="0%" x2="100%" y2="100%">
<stop offset="0.0%" stop-color="hsl(40, 53%, 69%)" />
<stop offset="33.3%" stop-color="hsl(104, 72%, 65%)" />
<stop offset="66.7%" stop-color="hsl(144, 86%, 72%)" />
<stop offset="100.0%" stop-color="hsl(151, 70%, 62%)" />
</linearGradient>
<filter id="f1" x="-20%" y="-20%" width="140%" height="140%">
  <feGaussianBlur stdDeviation="1.9896574102729736" />
</filter>

</defs>

<path d="M 51.9 82.3 C 70.1 86.4, 28.5 70.2, 15.1 77.3 C 13.9 89.2, 88.1 49.3, 85.1 34.7 C 67.4 26.5, 18.3 51.3, 17.4 46.9 C 13.3 27.2, 76.8 18.7, 76.7 4.1 C 88.2 24.0, 6.8 38.2, 4.3 46.8 C 23.0 37.7, 1.7 35.6, 14.5 37.6 " fill="none" fill-opacity="0.59" stroke="hsl(106, 75%, 59%)" stroke-width="1.15"  transform="translate(40.0 45.6) rotate(162.4) scale(0.88 1.27)" />
<path d="M 99.6 45.8 C 89.5 35.6, 51.6 0.0, 37.4 1.6 C 50.2 0.0, 56.3 52.5, 51.6 61.7 C 38.8 48.5, 21.6 7.8, 19.5 20.1 C 37.3 9.1, 78.2 100.0, 79.0 97.7 C 96.2 92.3, 59.9 71.4, 67.6 70.2 C 55.1 81.0, 58.3 11.2, 49.4 3.9 C 59.4 0.0, 32.3 36.0, 35.4 21.1 C 44.8 19.8, 85.2 63.0, 88.0 63.7 C 92.9 61.7, 85.3 100.0, 90.4 88.7 Z" fill="none" fill-opacity="0.84" stroke="hsl(106, 75%, 59%)" stroke-width="2.06"  transform="translate(39.5 31.9) rotate(315.2) scale(0.97 0.50)" />
<path d="M 77.5 69.7 C 69.3 87.4, 11.1 84.0, 9.3 96.1 C 24.1 81.5, 19.1 76.3, 33.9 70.6 C 38.8 53.8, 14.3 0.0, 20.0 5.6 C 3.1 0.0, 16.4 55.4, 21.6 41.6 C 4.4 41.0, 89.8 38.7, 81.1 33.4 C 100.0 50.7, 14.8 49.5, 13.6 48.6 " fill="none" fill-opacity="0.99" stroke="hsl(151, 70%, 62%)" stroke-width="2.20"  transform="translate(14.0 38.5) rotate(244.3) scale(1.49 1.71)" />
<path d="M 53.9 76.6 C 34.1 92.7, 0.0 62.9, 2.1 57.7 C 19.2 71.1, 70.6 31.6, 79.8 29.4 C 70.6 18.6, 13.3 17.3, 12.2 6.5 C 0.0 3.4, 37.2 45.8, 44.1 43.8 C 45.8 53.0, 40.9 84.1, 30.6 80.7 C 29.8 76.9, 64.5 92.8, 75.3 91.7 C 82.5 100.0, 87.5 68.6, 91.7 58.7 Z" fill="none" fill-opacity="0.95" stroke="hsl(104, 72%, 65%)" stroke-width="5.10"   />
<path d="M 60.5 60.2 C 54.9 78.2, 42.8 32.8, 48.5 32.3 C 41.3 17.8, 71.2 52.4, 83.2 57.8 C 65.2 51.5, 18.4 77.4, 14.5 72.2 C 0.0 72.8, 58.9 3.4, 68.0 7.1 C 55.8 5.3, 0.0 100.0, 0.8 98.4 C 0.0 97.7, 65.6 27.5, 61.0 12.5 C 75.2 0.0, 50.0 58.5, 63.0 54.7 Z" fill="hsl(242, 72%, 49%)" fill-opacity="0.76" stroke="none" stroke-width="1.15"  transform="translate(8.2 78.9) rotate(321.6) scale(1.92 1.12)" />
<rect x="75.8" y="33.9" width="21.4" height="18.5" rx="0" fill="hsl(183, 71%, 60%)" fill-opacity="0.46"   transform="translate(0.6 31.6) rotate(5.1) scale(0.68 0.57)" />
<path d="M 31.6 81.8 C 34.3 90.5, 81.6 100.0, 71.1 90.0 C 61.8 87.0, 51.6 25.9, 43.5 15.9 C 49.7 21.7, 17.6 59.5, 30.4 49.2 C 26.5 52.1, 92.0 16.7, 80.5 9.5 C 89.5 0.0, 30.4 16.9, 17.8 13.1 C 2.1 9.9, 82.1 33.7, 78.5 26.0 C 93.8 40.8, 40.6 57.4, 28.7 48.2 C 48.0 61.0, 29.8 71.2, 28.7 65.9 Z" fill="hsl(104, 72%, 65%)" fill-opacity="0.89" stroke="none" stroke-width="1.92"   />
<path d="M 25.8 1.5 C 26.7 0.0, 34.9 61.5, 40.8 63.5 C 48.2 49.8, 71.8 88.1, 68.3 78.5 C 56.7 80.6, 9.1 63.7, 18.6 57.0 C 15.1 45.7, 86.2 60.0, 92.1 65.9 C 94.1 62.2, 0.0 3.0, 10.6 5.5 C 27.7 13.6, 0.0 51.3, 3.1 64.0 C 2.9 48.2, 66.0 45.9, 59.4 48.3 C 54.4 60.8, 36.2 73.2, 30.3 84.8 Z" fill="hsl(144, 86%, 72%)" fill-opacity="0.84" stroke="none" stroke-width="1.88"   />
<rect x="21.3" y="17.6" width="24.9" height="33.5" rx="19.8" fill="hsl(83, 65%, 44%)" fill-opacity="0.74" stroke="hsl(2, 82%, 55%)" stroke-width="2.5"  transform="translate(3.9 96.9) rotate(86.1) scale(0.62 0.54)" />
<path d="M 91.9 9.6 C 81.8 11.4, 77.5 16.7, 80.0 14.3 C 70.8 24.0, 37.9 72.0, 34.3 66.5 C 19.0 60.8, 83.3 57.4, 84.7 48.7 C 76.9 36.0, 72.6 32.6, 75.5 39.1 C 92.2 55.4, 7.2 29.2, 17.9 28.0 C 15.3 45.3, 11.1 24.3, 16.5 33.7 C 33.4 43.4, 77.5 100.0, 91.5 99.7 C 100.0 88.2, 65.6 96.1, 75.4 97.0 C 63.8 78.2, 73.6 8.7, 67.2 22.2 C 52.3 30.0, 99.2 0.0, 93.1 5.0 Z" fill="hsl(86, 72%, 68%)" fill-opacity="0.93" stroke="none" stroke-width="5.29"  transform="translate(27.7 68.8) rotate(334.9) scale(1.14 0.88)" />
<rect x="26.0" y="45.1" width="28.0" height="20.3" rx="0" fill="hsl(322, 74%, 44%)" fill-opacity="0.95" stroke="hsl(106, 75%, 59%)" stroke-width="3.5"  transform="translate(30.7 40.6) rotate(5.6) scale(0.72 1.31)" />
<rect x="24.7" y="84.8" width="35.8" height="11.6" rx="0" fill="hsl(290, 83%, 63%)" fill-opacity="0.28" stroke="hsl(86, 72%, 68%)" stroke-width="1.1" filter="url(#f1)" transform="translate(59.2 98.6) rotate(197.9) scale(1.85 1.95)" />
<circle cx="33.3" cy="97.1" r="5.0" fill="hsl(40, 53%, 69%)" fill-opacity="0.70"  transform="translate(82.1 42.9) rotate(324.0) scale(1.34 1.85)" />
<path d="M 55.2 47.8 C 74.5 59.3, 86.1 7.6, 83.0 18.5 C 100.0 29.9, 25.8 93.1, 13.2 82.0 C 30.2 78.2, 27.8 47.5, 33.0 52.7 C 42.6 59.8, 70.6 40.5, 70.4 35.7 C 85.6 46.0, 93.5 58.6, 91.5 50.5 C 90.1 42.2, 97.8 52.4, 84.3 66.0 C 79.0 69.6, 0.0 88.5, 5.8 81.5 C 0.0 98.1, 20.3 58.8, 8.7 57.4 C 24.6 65.2, 12.1 93.4, 16.5 94.4 Z" fill="hsl(322, 74%, 44%)" fill-opacity="0.96" stroke="none" stroke-width="2.54"  transform="translate(57.9 93.5) rotate(4.9) scale(1.87 1.38)" />
<path d="M 15.1 57.8 C 9.6 57.9, 67.9 65.3, 69.9 68.3 C 59.9 68.4, 38.1 55.4, 32.4 64.2 C 40.7 60.7, 56.4 100.0, 50.8 89.6 C 63.6 100.0, 0.0 42.4, 1.8 39.2 C 8.6 32.4, 72.7 38.9, 72.9 26.2 C 60.5 8.4, 77.3 73.0, 75.2 67.6 C 57.2 54.6, 7.6 57.4, 8.6 55.7 Z" fill="none" fill-opacity="0.92" stroke="hsl(83, 65%, 44%)" stroke-width="2.51"  transform="translate(15.6 68.1) rotate(257.6) scale(0.68 0.77)" />
<rect x="17.0" y="48.8" width="46.9" height="30.6" rx="6.2" fill="hsl(144, 86%, 72%)" fill-opacity="0.39" stroke="hsl(144, 86%, 72%)" stroke-width="3.4" filter="url(#f1)" transform="translate(54.0 85.3) rotate(170.9) scale(0.54 1.40)" />
<path d="M 19.8 44.5 C 14.4 29.0, 72.4 79.6, 75.6 69.4 C 93.2 52.0, 78.6 68.5, 69.6 68.9 C 88.2 84.7, 10.4 0.0, 11.1 9.0 C 18.2 17.0, 89.4 97.8, 88.9 99.8 C 81.7 84.4, 73.5 88.8, 66.2 78.2 C 81.4 73.4, 29.1 100.0, 28.1 89.9 C 9.8 100.0, 100.0 50.4, 94.3 40.9 Z" fill="none" fill-opacity="0.90" stroke="hsl(40, 53%, 69%)" stroke-width="5.14"   />
<path d="M 28.2 2.8 C 29.0 0.0, 9.2 86.0, 23.6 93.9 C 5.2 85.9, 49.4 23.8, 61.2 9.8 C 72.1 9.7, 68.2 100.0, 69.8 93.9 C 79.3 99.2, 73.8 78.0, 78.1 67.3 C 92.2 54.9, 2.0 29.6, 9.9 23.1 C 12.3 32.2, 48.5 4.8, 46.5 12.2 C 48.0 26.5, 89.6 19.0, 78.4 28.5 C 67.6 34.6, 25.5 68.4, 30.1 66.2 Z" fill="none" fill-opacity="0.58" stroke="hsl(144, 86%, 72%)" stroke-width="0.87"  transform="translate(22.2 31.2) rotate(306.4) scale(1.33 1.78)" />
<path d="M 60.9 85.7 C 49.7 100.0, 17.6 23.4, 5.3 15.7 C 0.0 3.6, 60.3 31.8, 49.9 21.4 C 64.7 8.4, 54.6 56.9, 57.7 54.9 C 51.5 63.8, 88.3 66.3, 80.5 56.7 C 86.0 70.8, 68.7 33.2, 82.1 28.0 C 70.2 8.0, 21.6 62.4, 33.2 48.2 C 45.0 47.8, 37.5 60.2, 32.5 59.1 C 38.0 70.7, 79.6 74.1, 84.3 68.9 C 95.2 85.1, 46.3 68.4, 51.5 77.2 Z" fill="none" fill-opacity="0.88" stroke="hsl(242, 72%, 49%)" stroke-width="1.66"   />
<path d="M 4.1 53.3 C 10.6 51.6, 24.1 53.0, 13.7 52.2 C 16.7 53.5, 0.0 64.1, 9.9 56.1 C 0.0 59.5, 82.2 46.9, 85.2 43.6 C 94.9 63.5, 60.1 68.3, 56.6 68.8 C 38.3 49.9, 47.8 39.3, 34.5 33.0 C 18.2 50.0, 8.6 51.5, 3.3 51.4 C 19.8 52.9, 88.9 9.3, 76.1 20.2 C 89.1 5.9, 11.9 47.6, 20.1 50.1 C 28.3 39.6, 39.9 25.1, 52.3 23.6 Z" fill="none" fill-opacity="0.29" stroke="hsl(2, 82%, 55%)" stroke-width="0.83" filter="url(#f1)" transform="translate(78.9 76.8) rotate(53.3) scale(1.63 1.24)" />
<path d="M 66.3 60.1 C 51.1 63.6, 63.1 97.1, 54.7 94.3 C 72.5 100.0, 18.9 100.0, 10.9 92.6 C 16.9 100.0, 100.0 98.8, 98.4 89.5 C 100.0 89.4, 100.0 65.0, 92.2 67.4 C 100.0 61.6, 82.4 63.2, 91.7 73.4 C 79.0 85.7, 59.4 47.3, 54.6 44.5 C 48.9 57.3, 34.1 5.8, 44.4 8.2 C 38.1 3.4, 42.4 53.0, 47.2 59.0 C 40.6 70.5, 18.4 84.8, 29.0 78.1 C 42.4 84.7, 69.1 75.5, 79.2 68.9 Z" fill="none" fill-opacity="0.87" stroke="hsl(144, 86%, 72%)" stroke-width="3.83"  transform="translate(42.7 66.5) rotate(109.0) scale(1.78 0.82)" />
<circle cx="18.2" cy="24.7" r="2.2" fill="url(#g0)" fill-opacity="0.41"  transform="translate(82.6 72.9) rotate(225.6) scale(0.59 0.96)" />
<rect x="7.8" y="31.5" width="21.0" height="33.8" rx="0" fill="hsl(40, 53%, 69%)" fill-opacity="0.94"   transform="translate(59.9 96.1) rotate(236.3) scale(1.76 1.09)" />
<rect x="34.9" y="43.0" width="31.3" height="15.5" rx="0" fill="hsl(2, 82%, 55%)" fill-opacity="0.29"   transform="translate(12.0 56.3) rotate(317.7) scale(0.83 1.15)" />
<path d="M 89.4 96.9 C 73.3 100.0, 12.6 49.8, 6.2 41.0 C 4.8 55.8, 15.5 0.0, 20.3 5.7 C 26.4 0.0, 2.3 96.6, 16.0 91.4 C 26.8 75.8, 69.7 27.7, 57.6 38.9 C 41.4 31.6, 50.0 71.2, 43.4 76.2 C 52.7 75.1, 85.0 16.4, 74.1 10.8 Z" fill="hsl(104, 72%, 65%)" fill-opacity="0.84" stroke="none" stroke-width="4.02"   />
<circle cx="95.0" cy="53.5" r="3.0" fill="url(#g1)" fill-opacity="0.45"  transform="translate(75.9 57.2) rotate(268.3) scale(1.92 1.79)" />
<rect x="30.1" y="21.1" width="49.0" height="35.7" rx="0" fill="none" fill-opacity="0.31"   transform="translate(56.3 41.3) rotate(40.5) scale(1.67 1.96)" />
<rect x="18.1" y="11.0" width="24.6" height="36.1" rx="14.8" fill="none" fill-opacity="0.33" stroke="hsl(86, 72%, 68%)" stroke-width="1.4"  transform="translate(76.2 0.1) rotate(60.2) scale(1.41 1.84)" />
<circle cx="66.9" cy="64.4" r="8.2" fill="hsl(242, 72%, 49%)" fill-opacity="0.40"  transform="translate(75.8 44.4) rotate(138.0) scale(0.58 1.27)" />
<rect x="22.8" y="41.3" width="28.1" height="32.7" rx="19.5" fill="none" fill-opacity="0.29" stroke="hsl(104, 72%, 65%)" stroke-width="4.3"  transform="translate(60.2 54.0) rotate(155.9) scale(0.69 1.43)" />
<circle cx="9.8" cy="62.9" r="7.1" fill="url(#g0)" fill-opacity="0.97"  transform="translate(54.6 26.7) rotate(91.4) scale(1.88 0.55)" />
<path d="M 38.2 48.6 C 42.8 53.2, 8.5 42.4, 7.5 54.0 C 0.1 73.3, 43.5 45.0, 30.2 32.4 C 11.1 17.8, 62.9 19.3, 53.2 23.1 C 65.5 25.9, 86.3 82.9, 76.6 76.1 C 57.7 93.7, 72.7 85.2, 70.2 86.3 C 77.7 100.0, 10.1 49.2, 0.2 43.5 C 0.0 38.5, 26.9 61.2, 37.6 63.1 C 46.3 52.8, 2.3 41.8, 9.3 34.0 Z" fill="hsl(183, 71%, 60%)" fill-opacity="0.84" stroke="none" stroke-width="0.93"  transform="translate(86.3 98.4) rotate(247.7) scale(1.61 1.91)" />
<circle cx="21.8" cy="47.7" r="9.8" fill="url(#g2)" fill-opacity="0.67"  transform="translate(10.8 42.7) rotate(202.1) scale(1.50 1.32)" />
<circle cx="52.3" cy="67.3" r="1.6" fill="url(#g0)" fill-opacity="0.91" filter="url(#f1)" transform="translate(55.2 25.5) rotate(196.3) scale(1.91 1.61)" />
<path d="M 79.5 28.1 C 99.0 20.9, 0.0 18.2, 1.4 9.1 C 0.0 11.4, 16.2 30.9, 11.0 29.3 C 16.0 26.7, 74.7 71.4, 64.6 73.6 C 64.3 78.1, 59.2 31.2, 72.0 41.5 C 64.4 29.9, 45.5 37.1, 37.6 27.4 C 24.1 36.8, 16.4 74.6, 11.7 76.4 C 27.7 82.1, 42.6 50.1, 48.4 36.0 Z" fill="hsl(151, 70%, 62%)" fill-opacity="0.74" stroke="none" stroke-width="1.05"  transform="translate(89.1 73.0) rotate(178.3) scale(0.70 0.66)" />
<rect x="8.1" y="33.0" width="47.4" height="10.1" rx="14.9" fill="hsl(106, 75%, 59%)" fill-opacity="0.93"   transform="translate(63.8 5.9) rotate(81.9) scale(0.84 1.03)" />
<path d="M 88.0 8.5 C 79.3 20.2, 72.8 32.9, 64.5 23.5 C 79.7 9.4, 0.0 53.1, 2.7 58.7 C 10.9 50.5, 36.7 66.8, 31.5 58.3 C 44.4 43.6, 64.5 35.4, 60.6 28.6 C 48.9 46.0, 22.5 76.9, 14.7 67.4 C 0.0 76.2, 21.3 28.6, 34.1 15.2 C 45.3 10.6, 88.0 69.3, 97.8 73.2 C 82.4 73.7, 59.4 0.0, 57.3 5.9 C 64.7 0.0, 56.4 56.1, 42.4 68.4 Z" fill="hsl(322, 74%, 44%)" fill-opacity="0.35" stroke="none" stroke-width="1.61"  transform="translate(71.3 75.2) rotate(342.4) scale(0.53 1.66)" />
<path d="M 67.4 72.1 C 75.5 69.2, 10.6 57.2, 16.5 46.3 C 22.0 63.7, 47.2 49.7, 34.8 36.7 C 46.3 49.5, 75.1 37.9, 75.7 48.6 C 66.9 36.4, 86.7 57.1, 98.5 48.8 C 100.0 56.6, 95.8 16.4, 85.4 9.2 C 83.9 27.7, 87.2 49.1, 87.8 49.5 C 75.8 43.2, 64.9 84.8, 63.2 94.0 C 65.0 82.8, 0.1 0.0, 9.2 4.5 Z" fill="hsl(144, 86%, 72%)" fill-opacity="0.35" stroke="none" stroke-width="1.87"  transform="translate(97.1 78.9) rotate(36.4) scale(1.94 0.55)" />
<circle cx="16.7" cy="67.6" r="7.9" fill="url(#g2)" fill-opacity="0.70"  transform="translate(97.3 46.2) rotate(234.7) scale(1.31 1.96)" />
<path d="M 44.3 12.9 C 55.8 23.9, 53.3 45.7, 67.4 48.9 C 47.6 40.1, 23.3 74.1, 29.5 85.5 C 38.3 91.3, 66.9 85.3, 71.8 73.9 C 74.0 74.7, 75.3 63.9, 70.7 69.1 C 72.0 49.7, 14.4 48.4, 12.2 48.8 C 17.6 39.5, 44.2 68.7, 36.2 83.3 Z" fill="none" fill-opacity="0.46" stroke="hsl(104, 72%, 65%)" stroke-width="1.26" filter="url(#f1)" transform="translate(57.9 81.2) rotate(124.7) scale(0.86 0.82)" />
<circle cx="0.7" cy="94.7" r="6.3" fill="hsl(86, 72%, 68%)" fill-opacity="0.98" filter="url(#f1)" transform="translate(30.1 63.5) rotate(227.6) scale(1.42 0.81)" />
<rect x="48.0" y="56.9" width="42.9" height="25.5" rx="0" fill="hsl(242, 72%, 49%)" fill-opacity="0.55" stroke="hsl(242, 72%, 49%)" stroke-width="1.3" filter="url(#f1)" transform="translate(61.4 42.1) rotate(109.3) scale(1.79 1.86)" />
<path d="M 51.7 64.2 C 60.2 77.4, 77.8 76.9, 90.9 70.7 C 97.0 80.8, 18.1 93.7, 9.8 90.2 C 5.8 74.1, 46.6 55.2, 51.5 41.6 C 42.0 59.2, 37.6 39.9, 43.2 26.8 C 52.6 37.4, 22.6 79.0, 24.4 68.1 C 11.0 85.8, 73.9 31.6, 60.0 45.4 C 40.5 34.9, 58.6 79.8, 49.9 67.2 C 57.5 77.3, 57.9 16.7, 44.2 17.9 " fill="hsl(144, 86%, 72%)" fill-opacity="0.70" stroke="none" stroke-width="4.79"  transform="translate(38.6 52.5) rotate(153.2) scale(1.04 0.82)" />
<rect x="48.2" y="29.7" width="32.7" height="31.2" rx="0" fill="hsl(104, 72%, 65%)" fill-opacity="0.90" stroke="hsl(151, 70%, 62%)" stroke-width="3.2"  transform="translate(45.5 65.3) rotate(58.3) scale(0.50 1.02)" />
<path d="M 64.5 34.7 C 60.1 50.4, 70.4 32.5, 69.1 44.9 C 76.6 35.9, 31.9 35.7, 39.8 20.8 C 32.5 36.2, 0.0 52.1, 4.0 43.1 C 0.0 35.2, 28.8 32.9, 14.3 21.5 C 26.5 35.1, 12.1 0.0, 25.7 3.2 C 35.5 21.1, 25.6 53.3, 21.7 44.5 C 21.0 41.0, 80.7 41.8, 94.0 32.0 Z" fill="hsl(86, 72%, 68%)" fill-opacity="0.26" stroke="none" stroke-width="5.25"  transform="translate(76.8 74.7) rotate(306.9) scale(0.76 1.87)" />
<path d="M 39.4 12.9 C 46.8 0.0, 37.4 14.3, 24.3 27.8 C 41.1 30.3, 37.4 12.4, 46.6 7.0 C 48.5 0.0, 48.1 64.3, 37.3 69.7 C 42.1 56.1, 92.8 78.0, 86.1 64.0 C 84.8 58.8, 52.9 38.0, 62.8 46.6 C 57.7 42.6, 81.7 67.1, 88.6 79.9 C 73.0 72.3, 90.5 60.5, 79.2 65.9 Z" fill="hsl(242, 72%, 49%)" fill-opacity="0.81" stroke="none" stroke-width="4.75"  transform="translate(97.9 23.0) rotate(316.6) scale(1.51 0.56)" />
<rect x="55.4" y="44.9" width="42.5" height="14.0" rx="0" fill="hsl(2, 82%, 55%)" fill-opacity="0.50"   transform="translate(68.0 17.1) rotate(76.5) scale(1.69 0.66)" />
<rect x="55.5" y="31.4" width="26.9" height="21.6" rx="15.3" fill="none" fill-opacity="0.73" stroke="hsl(322, 74%, 44%)" stroke-width="2.5"   />
<path d="M 83.4 11.5 C 67.0 0.6, 38.7 16.3, 49.7 20.6 C 49.8 24.5, 40.7 53.9, 48.4 59.3 C 32.7 42.6, 42.7 62.4, 30.5 66.7 C 37.9 47.9, 16.3 22.5, 26.2 12.0 C 7.5 5.8, 14.2 0.3, 10.4 1.1 C 13.2 14.7, 59.9 22.9, 46.5 12.2 C 47.8 29.7, 11.1 28.0, 0.6 31.2 C 4.6 40.7, 53.5 50.0, 42.9 51.2 C 25.9 35.1, 18.3 100.0, 25.2 99.1 C 22.6 93.2, 82.1 63.9, 69.3 63.1 Z" fill="none" fill-opacity="0.59" stroke="hsl(86, 72%, 68%)" stroke-width="4.65" filter="url(#f1)" transform="translate(34.0 77.3) rotate(319.8) scale(0.86 0.62)" />
<path d="M 58.7 17.9 C 50.5 36.6, 78.4 100.0, 67.2 96.4 C 64.2 87.9, 65.2 67.5, 77.0 79.8 C 84.8 83.3, 77.0 12.2, 79.0 5.1 C 87.2 5.3, 70.0 0.4, 75.2 12.0 C 94.3 0.0, 67.0 49.2, 64.0 55.4 C 70.6 38.0, 74.6 49.8, 69.1 52.3 Z" fill="none" fill-opacity="0.97" stroke="hsl(183, 71%, 60%)" stroke-width="2.38"  transform="translate(62.9 94.6) rotate(77.0) scale(0.92 1.11)" />
<rect x="19.2" y="36.5" width="23.8" height="36.8" rx="0" fill="none" fill-opacity="0.30"   transform="translate(23.1 53.9) rotate(319.4) scale(1.25 1.17)" />
<circle cx="51.1" cy="55.4" r="8.1" fill="hsl(104, 72%, 65%)" fill-opacity="0.62"  transform="translate(37.3 10.5) rotate(205.0) scale(1.64 0.88)" />
<path d="M 10.2 6.3 C 0.0 17.9, 95.3 51.6, 93.0 56.5 C 100.0 76.3, 94.6 27.0, 96.4 34.5 C 100.0 31.4, 58.9 46.0, 59.6 52.0 C 42.1 48.3, 66.6 0.0, 53.6 11.7 C 65.3 20.5, 39.8 13.9, 41.2 1.1 C 35.7 0.0, 72.1 13.2, 77.1 13.6 C 92.1 15.5, 45.1 40.0, 59.7 43.5 C 68.4 53.6, 22.9 25.6, 11.3 37.1 C 21.4 44.2, 30.6 60.6, 24.0 52.4 C 30.3 69.0, 17.2 100.0, 18.5 92.5 Z" fill="none" fill-opacity="0.49" stroke="hsl(83, 65%, 44%)" stroke-width="4.93"   />
<rect x="56.2" y="32.4" width="31.7" height="28.2" rx="19.1" fill="hsl(40, 53%, 69%)" fill-opacity="0.60" stroke="hsl(144, 86%, 72%)" stroke-width="4.4"  transform="translate(53.4 0.7) rotate(172.4) scale(1.59 1.84)" />
<rect x="24.4" y="68.3" width="38.5" height="16.9" rx="0.1" fill="hsl(322, 74%, 44%)" fill-opacity="0.89"    />
<path d="M 18.0 90.9 C 36.5 100.0, 18.1 93.0, 29.8 96.0 C 23.1 100.0, 71.0 99.4, 82.0 90.3 C 79.3 100.0, 83.0 8.1, 76.6 1.5 C 65.6 20.2, 74.7 61.4, 87.3 72.5 C 97.9 58.3, 38.5 83.6, 44.4 90.7 C 25.8 98.6, 37.1 52.2, 32.7 49.0 C 15.5 52.3, 60.7 34.5, 56.8 30.1 Z" fill="none" fill-opacity="0.45" stroke="hsl(242, 72%, 49%)" stroke-width="2.93"  transform="translate(99.5 63.4) rotate(315.6) scale(0.53 0.86)" />
<rect x="44.4" y="7.6" width="40.1" height="20.9" rx="0" fill="none" fill-opacity="0.87" stroke="hsl(322, 74%, 44%)" stroke-width="2.7"  transform="translate(53.2 14.4) rotate(176.7) scale(0.71 1.76)" />
<path d="M 13.5 32.3 C 14.1 22.0, 39.7 79.7, 47.7 87.3 C 50.2 76.4, 7.1 31.5, 17.8 36.9 C 10.0 42.3, 55.9 82.4, 47.5 82.4 C 28.1 85.1, 50.8 85.0, 60.5 75.6 C 60.1 90.7, 2.0 100.0, 6.0 89.1 C 0.7 89.0, 41.0 32.6, 27.5 35.9 C 42.6 45.5, 61.3 84.1, 50.2 72.4 C 36.9 89.8, 37.3 22.9, 41.0 20.7 C 34.2 24.5, 100.0 41.5, 92.4 45.0 C 100.0 50.8, 81.2 36.7, 81.7 36.2 Z" fill="none" fill-opacity="0.54" stroke="hsl(2, 82%, 55%)" stroke-width="3.12"  transform="translate(93.6 89.4) rotate(273.4) scale(1.46 1.92)" />
<path d="M 25.4 89.9 C 25.5 83.1, 57.2 27.5, 51.7 34.6 C 33.9 37.3, 32.0 65.2, 34.3 69.9 C 39.3 67.6, 31.2 58.9, 36.9 46.2 C 53.3 60.3, 39.2 46.2, 37.2 45.6 C 25.4 45.6, 71.5 100.0, 72.7 96.9 C 89.0 100.0, 19.6 33.5, 6.9 28.1 Z" fill="hsl(144, 86%, 72%)" fill-opacity="0.28" stroke="none" stroke-width="2.39"  transform="translate(95.3 75.1) rotate(140.1) scale(1.38 0.61)" />
<path d="M 12.4 22.8 C 22.3 15.2, 15.0 0.0, 8.5 14.2 C 19.8 23.9, 0.0 15.8, 2.5 27.1 C 0.0 8.1, 42.1 0.0, 48.3 0.7 C 44.7 0.0, 42.0 50.8, 39.4 49.3 C 40.0 64.4, 87.5 49.1, 99.0 34.5 C 97.2 39.5, 25.8 23.1, 26.2 28.9 C 27.5 11.6, 21.5 76.5, 22.9 80.9 C 11.5 69.5, 62.9 26.9, 50.7 27.0 Z" fill="none" fill-opacity="0.42" stroke="hsl(144, 86%, 72%)" stroke-width="5.21"  transform="translate(21.3 56.0) rotate(258.1) scale(0.88 1.60)" />
<rect x="34.7" y="40.2" width="44.2" height="32.5" rx="0" fill="hsl(40, 53%, 69%)" fill-opacity="0.70"   transform="translate(40.6 56.6) rotate(10.4) scale(1.09 0.86)" />
<path d="M 30.1 70.4 C 47.2 53.7, 4.5 3.1, 11.7 10.5 C 1.8 13.8, 47.5 78.3, 48.4 68.8 C 39.6 49.6, 40.1 19.0, 38.5 26.3 C 24.1 45.0, 87.7 24.5, 89.9 28.3 C 91.5 37.7, 34.6 31.2, 35.4 35.9 C 25.9 51.1, 37.4 63.1, 36.3 56.1 C 16.9 55.3, 81.8 18.3, 77.4 31.9 Z" fill="none" fill-opacity="0.88" stroke="hsl(290, 83%, 63%)" stroke-width="1.62"  transform="translate(53.7 85.0) rotate(238.6) scale(1.28 1.06)" />
<path d="M 74.2 84.8 C 73.6 73.1, 35.6 21.7, 38.2 20.5 C 39.9 26.4, 68.5 28.4, 73.6 21.6 C 93.5 17.6, 45.9 63.0, 56.5 71.5 C 59.7 73.7, 91.6 0.0, 86.5 8.2 C 100.0 11.9, 54.7 37.4, 54.7 46.7 C 36.7 53.6, 20.7 100.0, 30.1 96.1 C 35.5 100.0, 68.4 100.0, 83.3 98.0 C 100.0 90.6, 87.6 31.2, 81.5 38.3 C 69.1 52.2, 72.3 68.8, 84.9 59.0 C 69.4 62.8, 19.5 21.3, 23.0 30.1 Z" fill="hsl(242, 72%, 49%)" fill-opacity="0.83" stroke="none" stroke-width="2.60"  transform="translate(28.8 11.3) rotate(339.6) scale(1.50 1.18)" />
<circle cx="40.8" cy="2.3" r="4.4" fill="hsl(2, 82%, 55%)" fill-opacity="0.73"  transform="translate(40.6 92.7) rotate(251.0) scale(0.64 1.37)" />
<rect x="13.1" y="3.0" width="42.9" height="21.2" rx="0" fill="hsl(40, 53%, 69%)" fill-opacity="0.85"   transform="translate(67.5 77.0) rotate(68.5) scale(1.49 1.14)" />
<circle cx="81.6" cy="68.4" r="1.6" fill="hsl(40, 53%, 69%)" fill-opacity="0.55" filter="url(#f1)" transform="translate(77.2 7.4) rotate(7.7) scale(0.56 1.45)" />
<rect x="46.3" y="1.9" width="37.5" height="38.7" rx="0" fill="hsl(290, 83%, 63%)" fill-opacity="0.50" stroke="hsl(86, 72%, 68%)" stroke-width="2.1"  transform="translate(11.7 38.1) rotate(10.5) scale(1.11 1.15)" />
<circle cx="1.4" cy="50.9" r="12.4" fill="url(#g2)" fill-opacity="0.43" filter="url(#f1)" transform="translate(75.5 39.2) rotate(186.0) scale(1.21 1.75)" />
<rect x="9.5" y="46.6" width="48.7" height="32.4" rx="0" fill="hsl(322, 74%, 44%)" fill-opacity="0.23"   transform="translate(58.2 93.1) rotate(358.8) scale(0.97 1.03)" />
<path d="M 58.5 58.7 C 59.7 53.1, 26.8 33.2, 35.7 42.3 C 55.6 47.5, 15.8 4.1, 4.4 19.0 C 3.4 19.0, 94.7 51.1, 98.0 62.2 C 84.7 79.1, 41.3 50.1, 33.0 49.0 C 47.6 54.9, 34.4 50.5, 40.3 44.1 C 52.3 55.4, 34.1 0.0, 20.5 5.0 Z" fill="hsl(40, 53%, 69%)" fill-opacity="0.94" stroke="none" stroke-width="1.37" filter="url(#f1)" transform="translate(85.7 82.4) rotate(337.6) scale(1.03 1.40)" />
<path d="M 1.0 7.9 C 0.0 2.0, 0.0 32.9, 0.3 33.7 C 16.0 16.2, 6.7 74.9, 12.4 63.6 C 10.8 54.9, 98.4 55.5, 98.7 53.5 C 92.7 43.4, 56.7 95.6, 42.9 95.5 C 26.6 100.0, 82.7 1.5, 74.6 13.1 C 61.3 15.4, 33.7 29.2, 44.6 37.2 Z" fill="hsl(86, 72%, 68%)" fill-opacity="0.97" stroke="none" stroke-width="4.38"  transform="translate(53.8 82.4) rotate(41.7) scale(1.54 1.73)" />
<path d="M 85.2 75.3 C 97.1 64.4, 0.0 81.1, 5.6 75.4 C 3.2 92.6, 22.1 51.9, 35.0 63.6 C 51.7 54.5, 0.0 100.0, 0.5 99.6 C 4.7 81.4, 22.8 73.7, 30.5 80.1 C 49.6 78.9, 48.8 18.1, 34.3 15.5 C 21.9 0.9, 84.7 33.1, 72.2 44.9 Z" fill="none" fill-opacity="0.58" stroke="hsl(290, 83%, 63%)" stroke-width="2.29"  transform="translate(91.3 85.3) rotate(270.4) scale(1.74 1.65)" />
<path d="M 66.0 54.8 C 69.1 59.9, 99.7 43.2, 88.1 40.3 C 100.0 52.2, 37.7 5.3, 42.5 6.6 C 26.9 19.3, 92.6 17.8, 79.0 24.0 C 71.1 43.6, 65.7 40.7, 59.0 36.8 C 61.2 26.4, 54.8 74.5, 60.0 88.4 C 71.8 97.3, 0.0 16.0, 6.0 26.6 C 15.9 25.1, 75.3 72.2, 80.0 68.4 C 76.7 66.4, 97.0 57.6, 94.3 67.5 Z" fill="hsl(104, 72%, 65%)" fill-opacity="0.33" stroke="none" stroke-width="4.97"  transform="translate(46.7 29.4) rotate(148.0) scale(1.76 1.04)" />
<path d="M 22.9 53.6 C 36.3 50.8, 5.7 8.4, 8.0 9.9 C 0.0 0.0, 69.4 59.9, 83.6 52.3 C 98.8 70.1, 30.8 60.8, 44.7 72.0 C 36.5 90.0, 81.5 71.1, 94.7 69.2 C 99.7 66.2, 48.8 85.2, 56.0 86.1 C 71.1 69.1, 30.3 74.6, 18.2 68.0 C 23.4 84.8, 90.3 84.3, 82.0 87.0 C 80.6 98.1, 15.3 87.8, 1.7 73.8 C 21.3 63.1, 97.3 7.0, 86.8 1.4 C 68.5 11.1, 18.4 1.8, 17.9 13.8 Z" fill="hsl(2, 82%, 55%)" fill-opacity="0.53" stroke="none" stroke-width="0.83"  transform="translate(90.7 53.4) rotate(33.0) scale(1.02 0.66)" />
<circle cx="3.5" cy="55.0" r="4.9" fill="hsl(144, 86%, 72%)" fill-opacity="0.92"  transform="translate(61.9 15.8) rotate(28.7) scale(1.87 1.53)" />
<circle cx="12.9" cy="84.0" r="10.1" fill="url(#g1)" fill-opacity="0.83"  transform="translate(40.4 18.9) rotate(256.4) scale(1.15 0.89)" />
<rect x="13.5" y="12.9" width="46.8" height="37.0" rx="11.3" fill="hsl(242, 72%, 49%)" fill-opacity="0.74" stroke="hsl(106, 75%, 59%)" stroke-width="3.6"  transform="translate(53.1 89.9) rotate(216.4) scale(1.73 1.97)" />
<circle cx="42.3" cy="61.1" r="8.6" fill="url(#g1)" fill-opacity="0.75"  transform="translate(32.9 59.7) rotate(164.5) scale(1.20 1.86)" />
<path d="M 46.2 17.7 C 28.6 7.8, 80.8 49.0, 68.0 60.0 C 50.6 65.1, 57.7 57.7, 64.2 58.1 C 50.7 64.5, 0.0 0.0, 4.2 5.9 C 0.0 0.0, 92.8 72.3, 85.1 57.9 C 84.6 69.0, 29.5 56.4, 26.4 60.2 C 15.6 49.0, 90.9 55.0, 98.5 44.9 C 90.6 49.2, 73.0 48.7, 69.2 53.7 C 62.0 63.9, 18.7 20.1, 32.2 20.3 Z" fill="hsl(183, 71%, 60%)" fill-opacity="0.38" stroke="none" stroke-width="4.82" filter="url(#f1)" transform="translate(30.1 60.2) rotate(168.5) scale(1.56 1.08)" />
<rect x="10.6" y="20.0" width="39.2" height="13.3" rx="0" fill="hsl(144, 86%, 72%)" fill-opacity="0.24"   transform="translate(67.1 68.9) rotate(252.0) scale(1.16 1.97)" />
<path d="M 91.0 76.3 C 80.7 56.4, 14.3 94.0, 19.1 92.5 C 25.2 100.0, 36.8 94.4, 24.2 96.9 C 38.9 100.0, 57.1 54.5, 61.9 50.4 C 78.8 55.2, 31.4 45.9, 28.3 46.4 C 45.3 30.9, 3.2 78.0, 1.1 74.0 C 0.0 88.6, 54.3 100.0, 58.4 98.9 C 59.2 100.0, 34.4 98.6, 33.8 85.3 C 43.2 75.5, 85.1 18.4, 75.3 13.8 Z" fill="hsl(290, 83%, 63%)" fill-opacity="0.30" stroke="none" stroke-width="3.31"  transform="translate(3.0 68.5) rotate(211.3) scale(1.84 0.78)" />
<path d="M 51.4 20.8 C 54.0 2.9, 90.7 22.4, 94.8 29.6 C 85.9 47.8, 96.1 2.4, 94.9 14.8 C 97.2 0.5, 70.6 100.0, 78.0 98.4 C 70.4 84.5, 66.1 34.7, 73.7 30.2 C 62.8 27.4, 47.4 66.5, 34.0 75.7 C 32.0 61.9, 25.6 5.6, 21.2 20.2 C 14.3 23.3, 29.1 58.0, 29.3 70.2 C 20.6 72.4, 4.5 16.2, 19.4 17.7 Z" fill="none" fill-opacity="0.35" stroke="hsl(83, 65%, 44%)" stroke-width="3.21"  transform="translate(87.4 40.4) rotate(13.4) scale(1.13 1.16)" />
<rect x="51.9" y="2.3" width="27.8" height="20.4" rx="6.5" fill="hsl(151, 70%, 62%)" fill-opacity="0.42" stroke="hsl(104, 72%, 65%)" stroke-width="3.2"  transform="translate(65.7 63.6) rotate(235.0) scale(1.54 1.02)" />
<rect x="57.1" y="40.7" width="26.7" height="15.4" rx="9.3" fill="none" fill-opacity="0.24"   transform="translate(46.5 58.0) rotate(238.1) scale(1.21 1.51)" />
<path d="M 66.8 82.0 C 82.7 73.5, 3.2 14.3, 14.3 13.7 C 7.7 1.4, 23.2 72.2, 29.7 57.5 C 48.7 61.2, 90.1 93.2, 80.2 97.9 C 75.7 100.0, 99.7 80.7, 93.9 90.8 C 100.0 100.0, 87.8 26.4, 97.0 26.1 C 90.9 30.4, 95.3 47.7, 83.8 45.8 C 98.3 64.6, 33.4 100.0, 43.3 93.9 C 40.4 98.1, 19.9 76.4, 23.7 83.8 Z" fill="hsl(151, 70%, 62%)" fill-opacity="0.97" stroke="none" stroke-width="1.84"  transform="translate(81.0 96.4) rotate(240.5) scale(1.13 1.59)" />
<path d="M 64.0 92.2 C 77.7 99.4, 38.3 100.0, 38.6 95.0 C 33.1 100.0, 78.6 73.7, 90.9 78.6 C 100.0 74.2, 31.9 17.1, 36.4 7.9 C 53.9 25.4, 60.2 0.0, 66.0 1.1 C 74.0 12.9, 68.4 12.8, 79.1 14.1 C 69.6 14.4, 75.6 93.0, 80.5 89.5 C 64.6 92.6, 100.0 23.9, 93.3 15.6 C 95.7 10.1, 100.0 16.5, 86.9 24.6 Z" fill="hsl(86, 72%, 68%)" fill-opacity="0.63" stroke="none" stroke-width="3.50"  transform="translate(89.4 22.7) rotate(276.0) scale(0.80 0.76)" />
<path d="M 41.7 64.7 C 55.7 68.1, 8.4 12.8, 6.4 14.9 C 16.8 27.6, 59.9 84.9, 60.4 78.5 C 46.8 91.6, 48.6 42.2, 38.8 48.3 C 47.6 34.5, 45.9 42.1, 59.8 41.5 C 74.7 50.2, 5.7 77.9, 5.9 79.9 C 21.8 85.1, 56.5 36.2, 42.2 45.3 C 22.5 38.4, 35.2 37.7, 20.2 29.1 Z" fill="hsl(242, 72%, 49%)" fill-opacity="0.36" stroke="none" stroke-width="3.07"  transform="translate(16.5 20.9) rotate(53.1) scale(1.73 1.83)" />
<path d="M 27.5 1.0 C 12.3 0.0, 43.3 0.0, 51.7 5.7 C 65.0 3.2, 2.4 52.6, 4.7 64.9 C 20.6 52.8, 71.9 56.3, 62.7 65.0 C 66.5 50.5, 100.0 94.9, 93.8 80.0 C 100.0 65.9, 82.4 48.9, 70.9 49.5 C 72.1 56.6, 25.1 7.1, 26.1 13.9 Z" fill="hsl(40, 53%, 69%)" fill-opacity="0.64" stroke="none" stroke-width="4.38"  transform="translate(98.9 34.1) rotate(47.7) scale(1.44 0.76)" />
<path d="M 41.7 88.6 C 30.9 87.6, 81.1 43.2, 82.3 46.0 C 78.7 59.7, 30.6 73.5, 28.3 69.4 C 40.0 53.0, 38.1 92.6, 27.7 91.2 C 44.1 91.8, 75.3 59.8, 81.6 50.0 C 64.4 34.3, 8.6 20.1, 10.6 21.7 C 8.3 33.7, 16.3 42.5, 9.7 47.9 Z" fill="none" fill-opacity="0.46" stroke="hsl(106, 75%, 59%)" stroke-width="0.85"   />
<path d="M 92.5 85.3 C 91.0 67.2, 47.4 91.2, 43.1 87.7 C 31.0 93.0, 78.0 70.1, 74.6 66.1 C 65.3 61.2, 34.8 18.1, 24.2 29.4 C 39.9 40.1, 16.1 20.8, 11.3 7.2 C 25.4 14.3, 91.3 100.0, 85.3 92.6 C 66.0 92.1, 96.7 14.8, 92.6 15.9 C 87.1 31.5, 87.8 80.7, 94.2 68.6 Z" fill="hsl(151, 70%, 62%)" fill-opacity="0.51" stroke="none" stroke-width="2.21"  transform="translate(51.3 10.5) rotate(47.2) scale(0.55 1.75)" />
<path d="M 38.1 3.3 C 35.0 0.0, 35.8 84.3, 39.7 89.7 C 56.7 80.4, 91.7 50.0, 88.0 36.6 C 94.3 24.1, 47.6 51.7, 35.8 62.7 C 30.6 52.5, 77.2 1.4, 89.8 5.6 C 91.1 12.7, 74.3 43.1, 70.3 36.0 C 66.5 45.1, 92.5 64.8, 97.7 70.0 C 96.0 56.3, 71.4 41.8, 59.7 49.8 Z" fill="hsl(183, 71%, 60%)" fill-opacity="0.37" stroke="none" stroke-width="3.68"   />
<rect x="12.8" y="51.0" width="34.0" height="23.4" rx="0" fill="hsl(106, 75%, 59%)" fill-opacity="0.20"   transform="translate(50.8 20.8) rotate(172.0) scale(0.59 1.72)" />
<path d="M 31.4 66.4 C 30.1 51.2, 36.3 31.4, 23.5 21.1 C 35.8 40.0, 64.5 45.0, 56.7 43.3 C 60.4 53.6, 83.1 31.2, 93.4 30.9 C 94.7 37.0, 52.5 94.1, 58.1 96.7 C 68.9 81.6, 7.9 5.4, 14.6 10.9 C 33.7 0.0, 89.6 18.9, 95.0 26.0 C 80.2 7.0, 44.5 32.1, 43.6 33.6 Z" fill="hsl(144, 86%, 72%)" fill-opacity="0.98" stroke="none" stroke-width="4.43"  transform="translate(5.2 80.1) rotate(79.3) scale(1.19 1.54)" />
<path d="M 94.2 36.3 C 100.0 47.8, 71.5 14.2, 63.2 20.0 C 47.4 14.7, 45.0 77.2, 54.2 67.6 C 39.8 49.8, 11.0 83.2, 24.8 71.1 C 25.3 53.4, 18.6 26.4, 28.5 35.3 C 23.3 22.2, 37.9 97.2, 50.9 99.6 C 52.1 100.0, 100.0 35.0, 95.8 45.8 Z" fill="none" fill-opacity="0.47" stroke="hsl(104, 72%, 65%)" stroke-width="4.14" filter="url(#f1)" transform="translate(50.7 33.8) rotate(65.5) scale(0.71 1.78)" />
<rect x="65.5" y="3.1" width="22.9" height="16.4" rx="0" fill="hsl(106, 75%, 59%)" fill-opacity="0.41"   transform="translate(45.3 21.9) rotate(9.0) scale(0.59 1.78)" />
<path d="M 18.0 56.7 C 16.5 37.9, 58.2 63.2, 62.8 62.5 C 70.1 54.8, 65.4 18.3, 61.5 15.0 C 69.2 5.6, 98.5 27.2, 86.7 29.6 C 100.0 42.2, 9.5 5.8, 13.9 0.4 C 23.9 0.0, 41.2 95.0, 38.9 89.6 C 33.9 85.3, 83.6 84.7, 86.2 90.5 Z" fill="hsl(86, 72%, 68%)" fill-opacity="0.57" stroke="none" stroke-width="3.09"  transform="translate(36.3 95.6) rotate(151.9) scale(1.17 1.63)" />
<circle cx="70.7" cy="14.4" r="13.3" fill="url(#g0)" fill-opacity="0.41"  transform="translate(6.4 16.7) rotate(26.2) scale(0.97 1.57)" />
<path d="M 31.4 22.8 C 37.5 36.7, 0.7 32.3, 11.5 25.0 C 0.0 29.0, 65.8 79.7, 54.7 85.1 C 51.0 69.9, 54.6 57.5, 59.3 47.6 C 54.5 66.0, 55.7 57.0, 43.9 68.4 C 46.6 56.3, 0.0 9.6, 6.9 0.7 C 9.6 17.3, 20.6 14.5, 12.1 20.3 C 16.7 20.6, 37.0 18.7, 31.9 13.9 C 14.4 8.0, 16.3 14.3, 3.1 2.9 C 15.0 0.0, 56.9 65.7, 65.4 56.5 C 45.9 72.2, 63.5 100.0, 76.0 95.9 Z" fill="hsl(40, 53%, 69%)" fill-opacity="0.77" stroke="none" stroke-width="1.36" filter="url(#f1)" transform="translate(75.2 2.8) rotate(267.5) scale(1.99 0.89)" />
<path d="M 91.2 77.5 C 90.9 92.3, 50.6 36.2, 64.6 28.8 C 79.5 21.4, 24.4 69.0, 35.4 65.0 C 55.1 57.5, 11.4 35.1, 12.1 44.6 C 11.9 30.3, 37.5 92.9, 45.8 92.5 C 29.1 100.0, 81.8 67.9, 80.5 61.7 C 95.6 73.0, 28.8 66.1, 30.5 66.2 C 36.9 71.3, 33.3 0.0, 29.0 0.2 Z" fill="hsl(151, 70%, 62%)" fill-opacity="0.66" stroke="none" stroke-width="3.16"  transform="translate(85.9 85.1) rotate(335.2) scale(0.92 1.08)" />
<rect x="21.8" y="22.2" width="46.5" height="22.8" rx="8.6" fill="none" fill-opacity="0.84"  filter="url(#f1)" transform="translate(91.8 51.0) rotate(96.5) scale(1.59 1.97)" />
<path d="M 52.3 98.6 C 67.2 96.1, 0.0 37.9, 1.7 30.2 C 10.1 23.1, 43.1 52.2, 46.8 62.0 C 33.2 58.0, 50.3 4.8, 52.8 13.9 C 57.3 17.4, 31.9 100.0, 45.7 98.4 C 40.9 79.5, 88.5 81.8, 79.1 86.5 C 76.7 80.4, 33.4 59.0, 31.6 69.2 C 42.9 61.1, 61.7 72.3, 68.0 60.6 Z" fill="none" fill-opacity="0.67" stroke="hsl(290, 83%, 63%)" stroke-width="3.48"  transform="translate(85.0 85.9) rotate(12.4) scale(0.58 0.95)" />
<path d="M 12.0 22.9 C 30.5 34.5, 5.0 53.3, 2.1 53.0 C 12.4 42.5, 9.1 6.2, 16.0 13.7 C 28.2 30.5, 24.3 55.9, 22.3 45.2 C 14.5 48.9, 68.9 100.0, 66.8 95.9 C 72.6 100.0, 0.0 38.1, 3.3 37.6 C 22.6 26.0, 85.1 95.0, 88.3 97.8 C 98.2 93.6, 97.0 48.3, 98.8 45.0 Z" fill="hsl(290, 83%, 63%)" fill-opacity="0.46" stroke="none" stroke-width="1.16"  transform="translate(52.7 14.9) rotate(284.0) scale(1.30 1.50)" />
<path d="M 29.0 19.7 C 26.4 30.1, 25.7 100.0, 26.5 99.1 C 33.9 100.0, 0.8 83.2, 8.7 79.9 C 20.0 74.2, 74.6 23.7, 83.5 31.1 C 77.9 15.5, 4.7 100.0, 18.4 89.4 C 20.3 87.0, 49.1 57.4, 37.0 45.6 C 21.2 57.5, 80.5 30.1, 94.1 40.2 C 76.8 58.9, 81.7 17.0, 92.1 11.5 C 75.3 0.0, 86.1 16.4, 85.1 9.9 Z" fill="hsl(151, 70%, 62%)" fill-opacity="0.67" stroke="none" stroke-width="3.13"  transform="translate(97.2 10.0) rotate(111.0) scale(0.65 0.59)" />
<circle cx="21.1" cy="51.6" r="2.0" fill="hsl(183, 71%, 60%)" fill-opacity="0.72"  transform="translate(83.0 37.7) rotate(218.3) scale(1.03 0.86)" />
<rect x="5.5" y="47.3" width="25.3" height="28.2" rx="0" fill="hsl(86, 72%, 68%)" fill-opacity="0.65" stroke="hsl(83, 65%, 44%)" stroke-width="1.7"  transform="translate(3.1 14.3) rotate(205.9) scale(1.87 1.89)" />
<rect x="20.3" y="16.9" width="46.9" height="37.0" rx="19.0" fill="none" fill-opacity="0.24"   transform="translate(1.4 65.7) rotate(303.5) scale(0.72 1.26)" />
<rect x="19.3" y="66.9" width="46.9" height="19.2" rx="4.7" fill="hsl(242, 72%, 49%)" fill-opacity="0.23"   transform="translate(74.0 35.0) rotate(101.2) scale(1.60 0.77)" />
<rect x="27.8" y="53.7" width="47.0" height="35.0" rx="0" fill="hsl(322, 74%, 44%)" fill-opacity="0.45"   transform="translate(62.2 59.6) rotate(240.2) scale(1.95 1.28)" />
<path d="M 16.4 89.7 C 10.1 81.0, 17.0 44.0, 15.4 53.0 C 23.0 43.8, 39.1 73.2, 27.7 83.1 C 46.9 97.6, 88.4 58.5, 74.5 52.6 C 65.2 51.6, 100.0 80.8, 99.1 91.4 C 100.0 72.5, 36.2 67.8, 39.0 75.9 C 51.2 58.5, 66.5 20.7, 58.1 29.3 C 72.4 10.0, 47.3 40.2, 44.8 52.7 C 49.9 33.0, 41.6 75.2, 32.6 84.3 C 15.1 94.3, 53.5 8.9, 65.4 8.0 Z" fill="hsl(144, 86%, 72%)" fill-opacity="0.42" stroke="none" stroke-width="4.70"  transform="translate(75.1 75.3) rotate(54.6) scale(1.11 0.95)" />
<path d="M 40.7 97.2 C 44.6 100.0, 57.8 67.8, 66.8 76.1 C 82.6 79.6, 23.7 83.4, 18.1 80.9 C 31.9 63.0, 17.2 73.0, 9.9 60.2 C 27.3 79.0, 37.2 45.5, 41.1 45.9 C 59.2 40.5, 74.8 27.5, 83.6 38.2 C 74.2 23.9, 27.2 28.5, 41.6 32.9 C 42.5 33.3, 35.7 15.4, 30.4 27.3 C 49.7 13.7, 65.8 53.2, 71.1 59.8 C 62.8 60.1, 54.3 30.6, 63.6 36.0 Z" fill="none" fill-opacity="0.26" stroke="hsl(151, 70%, 62%)" stroke-width="3.88"  transform="translate(30.4 41.8) rotate(56.1) scale(1.64 1.62)" />
<path d="M 39.3 84.2 C 42.9 80.6, 0.0 19.9, 7.4 14.6 C 11.5 8.2, 32.1 53.1, 39.3 39.9 C 56.4 59.1, 14.8 67.8, 19.6 63.8 C 14.5 69.0, 33.3 8.5, 29.0 7.8 C 25.3 6.8, 0.0 53.0, 5.2 43.7 C 16.1 49.4, 8.3 65.7, 17.1 80.0 Z" fill="none" fill-opacity="0.42" stroke="hsl(104, 72%, 65%)" stroke-width="2.30"  transform="translate(30.4 11.7) rotate(142.5) scale(1.95 0.71)" />
<rect x="5.2" y="28.6" width="35.1" height="39.6" rx="0" fill="hsl(83, 65%, 44%)" fill-opacity="0.24"   transform="translate(45.8 21.3) rotate(40.9) scale(0.84 0.83)" />
<circle cx="50.0" cy="12.3" r="3.2" fill="url(#g0)" fill-opacity="0.84"   />
<path d="M 22.0 61.9 C 40.4 58.3, 9.9 25.5, 24.9 12.8 C 42.9 31.6, 60.5 3.5, 70.1 14.6 C 60.4 22.0, 98.1 29.0, 86.3 38.5 C 94.6 26.1, 70.8 94.2, 80.4 92.5 C 90.2 76.3, 31.7 11.6, 23.0 7.7 C 30.3 17.2, 64.4 37.0, 75.6 37.2 Z" fill="none" fill-opacity="0.44" stroke="hsl(83, 65%, 44%)" stroke-width="0.81"   />
<rect x="49.1" y="78.4" width="45.9" height="14.7" rx="0" fill="none" fill-opacity="0.58"  filter="url(#f1)"  />
<path d="M 8.3 4.5 C 0.0 4.4, 11.7 53.0, 12.8 44.1 C 24.2 36.4, 73.2 63.0, 66.9 76.5 C 51.1 93.3, 77.4 61.9, 83.1 58.8 C 100.0 70.1, 100.0 15.5, 100.0 23.3 C 99.7 27.9, 65.3 68.9, 65.5 55.7 C 65.9 58.6, 39.8 77.4, 53.6 67.9 C 69.9 60.5, 79.5 54.9, 82.3 44.8 Z" fill="none" fill-opacity="0.93" stroke="hsl(151, 70%, 62%)" stroke-width="3.93" filter="url(#f1)"  />
<rect x="62.9" y="3.1" width="28.8" height="13.4" rx="13.0" fill="hsl(290, 83%, 63%)" fill-opacity="0.76"   transform="translate(75.5 70.3) rotate(281.7) scale(0.66 1.53)" />
<rect x="60.6" y="40.3" width="34.0" height="17.9" rx="0" fill="hsl(40, 53%, 69%)" fill-opacity="0.87"   transform="translate(25.4 5.5) rotate(227.4) scale(1.65 1.55)" />
<path d="M 36.7 35.5 C 20.8 27.8, 95.5 63.4, 86.5 71.2 C 100.0 61.7, 79.5 83.0, 90.7 83.2 C 94.9 85.3, 34.3 11.5, 46.1 9.7 C 56.3 3.2, 28.7 86.2, 42.2 77.1 C 56.4 88.4, 14.7 35.8, 16.1 22.1 C 4.7 9.9, 82.9 2.0, 93.3 4.1 Z" fill="none" fill-opacity="0.80" stroke="hsl(40, 53%, 69%)" stroke-width="4.10"  transform="translate(36.5 8.1) rotate(88.9) scale(1.88 0.58)" />
<path d="M 27.3 80.7 C 33.7 62.9, 32.5 89.3, 47.0 83.4 C 58.3 93.2, 10.9 28.4, 16.0 40.5 C 23.2 28.2, 5.6 37.7, 20.5 33.9 C 10.3 19.4, 31.0 57.2, 29.7 51.3 C 13.9 34.3, 0.0 61.0, 0.0 70.8 C 0.0 72.9, 18.0 83.7, 14.2 73.0 C 5.1 87.1, 11.7 53.9, 20.5 60.9 " fill="hsl(290, 83%, 63%)" fill-opacity="0.89" stroke="none" stroke-width="1.96" filter="url(#f1)" transform="translate(31.5 55.0) rotate(245.8) scale(0.93 1.79)" />
<path d="M 33.3 64.1 C 51.2 81.6, 25.4 36.8, 17.5 26.3 C 16.4 8.9, 0.0 56.2, 6.8 67.8 C 26.8 80.8, 55.3 100.0, 46.7 94.1 C 62.4 84.3, 48.2 65.3, 38.7 74.8 C 29.8 84.4, 14.8 54.6, 17.0 65.5 C 28.9 63.1, 74.3 38.1, 59.3 39.8 C 40.5 22.9, 26.0 85.8, 24.9 74.9 C 32.8 74.1, 83.3 24.4, 95.4 21.8 Z" fill="hsl(86, 72%, 68%)" fill-opacity="0.72" stroke="none" stroke-width="1.05"  transform="translate(10.4 88.6) rotate(333.3) scale(1.80 1.34)" />
<circle cx="29.2" cy="99.9" r="9.0" fill="hsl(86, 72%, 68%)" fill-opacity="0.88"  transform="translate(48.4 14.6) rotate(341.2) scale(0.56 1.43)" />
<path d="M 83.2 78.6 C 72.7 72.2, 13.8 61.8, 19.0 55.9 C 26.5 53.9, 71.3 15.3, 82.6 16.2 C 83.0 0.0, 74.5 54.7, 73.8 65.0 C 77.9 67.1, 79.4 54.9, 83.6 55.2 C 66.0 63.3, 78.2 85.0, 90.7 78.1 C 72.6 81.5, 19.5 100.0, 22.1 99.4 C 24.4 82.7, 34.2 0.0, 27.7 1.1 C 36.6 0.0, 42.1 0.4, 43.8 11.5 C 56.8 0.0, 91.6 49.4, 92.2 35.7 Z" fill="none" fill-opacity="0.40" stroke="hsl(83, 65%, 44%)" stroke-width="4.16"  transform="translate(81.7 52.9) rotate(128.9) scale(0.56 1.22)" />
<path d="M 51.7 6.5 C 34.0 20.6, 47.2 90.4, 39.1 97.1 C 47.5 81.4, 63.9 51.3, 48.9 39.5 C 65.4 26.1, 59.6 60.7, 69.8 46.3 C 82.7 49.0, 73.6 37.8, 65.8 25.0 C 63.1 33.8, 90.0 69.6, 83.9 66.3 C 79.7 57.1, 100.0 10.5, 94.2 20.8 Z" fill="hsl(151, 70%, 62%)" fill-opacity="0.34" stroke="none" stroke-width="4.20"  transform="translate(48.3 85.6) rotate(33.5) scale(1.49 1.14)" />
<rect x="57.1" y="35.9" width="25.6" height="26.5" rx="19.3" fill="hsl(144, 86%, 72%)" fill-opacity="0.84"   transform="translate(46.9 36.8) rotate(10.1) scale(1.58 0.72)" />
<path d="M 49.3 11.1 C 52.6 13.5, 26.5 36.5, 20.2 31.6 C 36.9 39.8, 34.0 45.1, 19.6 52.5 C 10.8 65.9, 4.1 82.6, 14.7 83.0 C 24.6 78.4, 93.2 95.3, 82.0 94.4 C 86.7 100.0, 67.8 84.1, 69.2 98.6 C 81.4 100.0, 9.3 75.9, 5.0 83.8 C 0.0 68.9, 9.2 23.0, 0.7 37.1 C 0.0 24.6, 51.4 24.0, 52.5 19.6 C 58.2 2.5, 27.7 100.0, 34.5 96.0 Z" fill="hsl(322, 74%, 44%)" fill-opacity="0.57" stroke="none" stroke-width="4.93"  transform="translate(11.3 71.2) rotate(282.1) scale(1.78 0.80)" />
<rect x="24.3" y="29.0" width="47.4" height="18.1" rx="0" fill="none" fill-opacity="0.61"  filter="url(#f1)"  />
<path d="M 87.0 33.2 C 78.4 17.9, 16.2 73.1, 8.5 82.7 C 14.3 89.8, 100.0 2.9, 99.6 7.3 C 89.5 18.5, 19.0 14.1, 21.4 22.3 C 11.3 14.1, 35.7 0.0, 38.8 11.5 C 28.9 16.5, 64.6 31.9, 67.9 40.6 C 71.0 26.7, 81.7 53.4, 79.5 40.6 C 84.5 23.2, 55.3 16.3, 58.9 9.4 Z" fill="none" fill-opacity="0.53" stroke="hsl(183, 71%, 60%)" stroke-width="1.54" filter="url(#f1)" transform="translate(51.0 48.3) rotate(6.9) scale(1.44 1.98)" />
<path d="M 83.5 85.3 C 68.3 100.0, 61.5 27.2, 73.3 25.7 C 71.7 12.3, 29.7 48.7, 29.7 40.5 C 30.4 20.8, 100.0 40.9, 95.0 36.4 C 100.0 55.6, 7.3 72.4, 14.6 82.1 C 6.3 91.0, 13.2 85.9, 14.1 97.6 C 12.3 91.2, 76.1 15.4, 63.6 22.0 C 60.5 9.4, 40.9 76.1, 38.4 65.7 C 36.8 59.9, 74.6 61.4, 62.1 65.7 C 66.0 50.4, 49.8 80.9, 39.5 75.6 C 43.2 56.5, 53.3 38.2, 59.9 43.3 Z" fill="none" fill-opacity="0.42" stroke="hsl(290, 83%, 63%)" stroke-width="5.28"   />
<circle cx="63.6" cy="99.6" r="5.4" fill="hsl(2, 82%, 55%)" fill-opacity="0.51"  transform="translate(41.1 76.9) rotate(203.3) scale(0.83 0.73)" />
<g opacity="0.055">
<rect x="0" y="0" width="1" height="100" fill="black" />
<rect x="22" y="0" width="1" height="100" fill="black" />
<rect x="44" y="0" width="1" height="100" fill="black" />
<rect x="66" y="0" width="1" height="100" fill="black" />
<rect x="88" y="0" width="1" height="100" fill="black" />
<rect x="0" y="0" width="100" height="1" fill="black" />
<rect x="0" y="22" width="100" height="1" fill="black" />
<rect x="0" y="44" width="100" height="1" fill="black" />
<rect x="0" y="66" width="100" height="1" fill="black" />
<rect x="0" y="88" width="100" height="1" fill="black" />
</g>

</svg>
