<?xml version="1.0" encoding="UTF-8"?>
<svg xmlns="http://www.w3.org/2000/svg" width="100" height="100" viewBox="0 0 100 100">
<defs>
<linearGradient id="g0" x1="0%" y1="0%" x2="100%" y2="100%">
<stop offset="0.0%" stop-color="hsl(106, 75%, 59%)" />
<stop offset="33.3%" stop-color="hsl(183, 71%, 60%)" />
<stop offset="66.7%" stop-color="hsl(242, 72%, 49%)" />
<stop offset="100.0%" stop-color="hsl(322, 74%, 44%)" />
</linearGradient>
<linearGradient id="g1" x1="0%" y1="0%" x2="100%" y2="100%">
<stop offset="0.0%" stop-color="hsl(290, 83%, 63%)" />
<stop offset="33.3%" stop-color="hsl(2, 82%, 55%)" />
<stop offset="66.7%" stop-color="hsl(86, 72%, 68%)" />
<stop offset="100.0%" stop-color="hsl(83, 65%, 44%)" />
</linearGradient>
<linearGradient id="g2" x1="0%" y1="0%" x2="100%" y2="100%">
<stop offset="0.0%" stop-color="hsl(40, 53%, 69%)" />
<stop offset="33.3%" stop-color="hsl(104, 72%, 65%)" />
<stop offset="66.7%" stop-color="hsl(144, 86%, 72%)" />
<stop offset="100.0%" stop-color="hsl(151, 70%, 62%)" />
</linearGradient>
</defs>

<circle cx="4.1" cy="30.8" r="1.0" fill="hsl(322, 74%, 44%)" fill-opacity="0.77"   />
<circle cx="96.3" cy="27.8" r="0.2" fill="hsl(144, 86%, 72%)" fill-opacity="0.87"  transform="translate(2.0 67.3) rotate(283.1) scale(0.64 1.60)" />
<path d="M 87.8 59.8 C 78.8 49.0, 43.0 53.4, 57.3 41.3 C 62.0 56.4, 97.2 56.8, 97.2 67.8 C 100.0 64.6, 31.1 61.8, 42.7 68.1 " fill="hsl(151, 70%, 62%)" fill-opacity="0.91" stroke="none" stroke-width="1.06"  transform="translate(2.7 50.1) rotate(318.9) scale(0.64 1.75)" />
<path d="M 75.5 56.8 C 81.9 62.9, 68.7 62.4, 79.6 52.9 C 77.8 62.9, 66.1 3.7, 78.2 13.0 C 77.0 0.0, 95.0 27.6, 91.5 27.2 C 100.0 30.0, 40.9 26.1, 33.2 15.9 C 42.2 0.0, 0.0 56.0, 7.7 62.2 C 21.6 69.1, 93.8 66.4, 81.7 75.5 Z" fill="hsl(183, 71%, 60%)" fill-opacity="0.77" stroke="none" stroke-width="1.15"   />
<rect x="43.8" y="56.3" width="45.1" height="34.0" rx="13.5" fill="hsl(104, 72%, 65%)" fill-opacity="0.77" stroke="hsl(151, 70%, 62%)" stroke-width="4.1"  transform="translate(84.4 26.9) rotate(310.9) scale(1.64 1.63)" />
<path d="M 84.3 95.2 C 84.8 100.0, 76.7 97.0, 68.1 98.0 C 57.5 100.0, 26.6 0.0, 23.8 12.7 C 5.6 1.6, 55.1 52.0, 67.0 51.2 C 81.1 69.6, 2.8 94.0, 5.8 90.0 C 22.5 100.0, 41.8 62.1, 34.8 67.5 " fill="none" fill-opacity="0.73" stroke="hsl(183, 71%, 60%)" stroke-width="1.24"   />
<path d="M 44.2 21.6 C 36.3 21.6, 55.4 50.2, 53.9 47.5 C 37.5 58.3, 32.3 82.6, 36.2 89.0 C 33.7 69.7, 82.5 51.5, 82.0 58.9 C 79.1 45.8, 100.0 28.0, 92.2 37.8 C 100.0 41.4, 40.0 66.1, 36.9 56.4 C 43.6 59.9, 74.4 29.7, 86.1 39.2 C 99.3 22.2, 73.8 47.9, 73.4 54.9 " fill="none" fill-opacity="0.35" stroke="hsl(2, 82%, 55%)" stroke-width="0.94"  transform="translate(75.4 24.1) rotate(200.4) scale(1.41 1.09)" />
<path d="M 43.4 34.2 C 41.0 19.5, 14.2 29.4, 15.7 34.8 C 5.0 41.3, 64.1 15.1, 55.7 15.1 C 65.4 0.0, 48.7 71.7, 63.6 66.3 C 62.1 57.9, 79.8 82.4, 87.4 78.3 C 77.6 72.1, 8.2 65.9, 14.2 75.0 C 0.0 56.9, 93.6 100.0, 86.5 91.6 " fill="hsl(83, 65%, 44%)" fill-opacity="0.86" stroke="none" stroke-width="1.14"   />
</svg>
