<?xml version="1.0" encoding="UTF-8"?>
<svg xmlns="http://www.w3.org/2000/svg" width="100" height="100" viewBox="0 0 100 100">
<defs>
<linearGradient id="g0" x1="0%" y1="0%" x2="100%" y2="100%">
<stop offset="0.0%" stop-color="hsl(106, 75%, 59%)" />
<stop offset="33.3%" stop-color="hsl(183, 71%, 60%)" />
<stop offset="66.7%" stop-color="hsl(242, 72%, 49%)" />
<stop offset="100.0%" stop-color="hsl(322, 74%, 44%)" />
</linearGradient>
<linearGradient id="g1" x1="0%" y1="0%" x2="100%" y2="100%">
<stop offset="0.0%" stop-color="hsl(290, 83%, 63%)" />
<stop offset="33.3%" stop-color="hsl(2, 82%, 55%)" />
<stop offset="66.7%" stop-color="hsl(86, 72%, 68%)" />
<stop offset="100.0%" stop-color="hsl(83, 65%, 44%)" />
</linearGradient>
<linearGradient id="g2" x1="0%" y1="0%" x2="100%" y2="100%">
<stop offset="0.0%" stop-color="hsl(40, 53%, 69%)" />
<stop offset="33.3%" stop-color="hsl(104, 72%, 65%)" />
<stop offset="66.7%" stop-color="hsl(144, 86%, 72%)" />
<stop offset="100.0%" stop-color="hsl(151, 70%, 62%)" />
</linearGradient>
</defs>

<path d="M 59.2 88.7 C 40.5 95.2, 77.9 56.4, 66.8 49.6 C 78.7 55.1, 31.7 6.8, 30.4 6.6 C 36.2 6.8, 28.7 39.8, 29.0 38.8 C 40.8 19.2, 93.0 0.0, 79.0 12.5 " fill="none" fill-opacity="0.47" stroke="hsl(183, 71%, 60%)" stroke-width="1.06"  transform="translate(80.8 76.2) rotate(117.3) scale(1.15 1.61)" />
<rect x="7.3" y="69.0" width="42.1" height="30.7" rx="12.9" fill="hsl(106, 75%, 59%)" fill-opacity="0.97"   transform="translate(2.7 69.4) rotate(161.6) scale(1.76 1.04)" />
<path d="M 80.5 56.5 C 84.0 75.9, 58.3 95.0, 73.2 82.6 C 85.3 99.1, 29.2 58.9, 23.2 46.3 C 9.3 47.8, 73.8 87.7, 84.0 86.8 C 98.9 81.4, 37.9 41.0, 36.5 29.9 C 49.6 20.0, 37.1 90.7, 35.6 81.5 C 25.2 74.6, 71.3 96.3, 81.2 98.5 " fill="hsl(151, 70%, 62%)" fill-opacity="0.52" stroke="none" stroke-width="1.18"   />
<circle cx="2.5" cy="32.6" r="0.3" fill="hsl(322, 74%, 44%)" fill-opacity="0.50"   />
<circle cx="98.3" cy="81.6" r="1.4" fill="hsl(2, 82%, 55%)" fill-opacity="0.61"   />
<path d="M 52.4 14.7 C 36.6 30.6, 8.7 9.1, 22.0 6.1 C 25.0 22.6, 95.2 69.1, 98.2 78.0 C 91.2 90.6, 43.1 0.5, 56.5 5.1 C 53.1 0.0, 67.4 33.6, 71.3 32.2 " fill="hsl(2, 82%, 55%)" fill-opacity="0.41" stroke="none" stroke-width="0.93"  transform="translate(55.2 5.7) rotate(171.5) scale(1.52 1.87)" />
<circle cx="63.8" cy="68.9" r="0.1" fill="hsl(151, 70%, 62%)" fill-opacity="0.41"  transform="translate(50.8 39.3) rotate(111.7) scale(1.68 1.14)" />
<path d="M 37.2 70.8 C 30.6 71.8, 25.5 79.6, 26.1 65.5 C 27.7 64.6, 55.4 98.0, 53.3 96.7 C 66.1 86.8, 38.5 65.2, 39.5 61.0 C 30.6 45.5, 46.7 71.0, 60.3 61.1 C 44.6 42.5, 12.4 21.2, 7.9 12.1 " fill="none" fill-opacity="0.75" stroke="hsl(183, 71%, 60%)" stroke-width="1.25"   />
<path d="M 9.5 46.7 C 4.9 42.8, 5.7 40.1, 6.1 41.2 C 24.3 48.4, 72.7 58.5, 78.9 72.9 C 79.4 66.4, 76.0 37.5, 64.7 26.3 C 49.2 34.5, 58.4 84.2, 50.7 93.3 C 63.5 88.4, 21.2 38.9, 34.0 41.7 C 16.6 39.0, 15.2 39.0, 10.4 38.8 C 24.2 35.3, 69.1 2.4, 62.6 12.3 " fill="none" fill-opacity="0.47" stroke="hsl(106, 75%, 59%)" stroke-width="0.83"   />
<path d="M 49.3 23.9 C 52.3 10.5, 81.4 50.2, 89.7 47.3 C 74.2 34.8, 62.2 92.8, 59.5 91.6 C 69.0 100.0, 84.0 31.5, 77.1 21.0 C 90.8 40.1, 43.2 80.7, 50.0 85.2 C 54.0 100.0, 0.0 100.0, 4.9 95.7 Z" fill="hsl(106, 75%, 59%)" fill-opacity="0.55" stroke="none" stroke-width="0.99"   />
<path d="M 41.0 96.8 C 57.6 100.0, 37.2 83.7, 24.3 77.6 C 5.6 96.3, 54.2 75.3, 51.1 80.7 C 36.7 95.4, 100.0 79.9, 98.6 92.4 C 82.8 100.0, 24.5 47.8, 30.9 55.9 " fill="hsl(106, 75%, 59%)" fill-opacity="0.87" stroke="none" stroke-width="0.92"  transform="translate(25.7 94.9) rotate(89.1) scale(1.30 0.96)" />
<circle cx="83.0" cy="89.1" r="1.1" fill="hsl(2, 82%, 55%)" fill-opacity="0.63"  transform="translate(29.7 44.0) rotate(209.0) scale(1.03 1.09)" />
<circle cx="26.2" cy="50.7" r="1.4" fill="hsl(2, 82%, 55%)" fill-opacity="0.67"  transform="translate(19.8 92.3) rotate(140.7) scale(0.74 1.00)" />
<rect x="55.6" y="51.3" width="32.3" height="10.0" rx="0" fill="hsl(86, 72%, 68%)" fill-opacity="0.48"   transform="translate(58.4 62.4) rotate(198.4) scale(1.59 1.38)" />
</svg>
