<?xml version="1.0" encoding="UTF-8"?>
<svg xmlns="http://www.w3.org/2000/svg" width="100" height="100" viewBox="0 0 100 100">
<defs>
<linearGradient id="g0" x1="0%" y1="0%" x2="100%" y2="100%">
<stop offset="0.0%" stop-color="hsl(106, 75%, 59%)" />
<stop offset="33.3%" stop-color="hsl(183, 71%, 60%)" />
<stop offset="66.7%" stop-color="hsl(242, 72%, 49%)" />
<stop offset="100.0%" stop-color="hsl(322, 74%, 44%)" />
</linearGradient>
<linearGradient id="g1" x1="0%" y1="0%" x2="100%" y2="100%">
<stop offset="0.0%" stop-color="hsl(290, 83%, 63%)" />
<stop offset="33.3%" stop-color="hsl(2, 82%, 55%)" />
<stop offset="66.7%" stop-color="hsl(86, 72%, 68%)" />
<stop offset="100.0%" stop-color="hsl(83, 65%, 44%)" />
</linearGradient>
<linearGradient id="g2" x1="0%" y1="0%" x2="100%" y2="100%">
<stop offset="0.0%" stop-color="hsl(40, 53%, 69%)" />
<stop offset="33.3%" stop-color="hsl(104, 72%, 65%)" />
<stop offset="66.7%" stop-color="hsl(144, 86%, 72%)" />
<stop offset="100.0%" stop-color="hsl(151, 70%, 62%)" />
</linearGradient>
</defs>

<path d="M 54.6 28.3 C 40.8 15.3, 34.9 36.1, 39.6 27.2 C 56.2 8.3, 51.1 34.8, 39.0 24.8 C 54.5 13.6, 70.2 18.4, 76.9 33.4 C 57.4 52.0, 100.0 41.5, 96.7 44.8 C 100.0 46.3, 19.3 11.7, 16.7 7.0 C 35.7 23.4, 51.4 65.4, 44.0 51.8 " fill="hsl(86, 72%, 68%)" fill-opacity="0.39" stroke="none" stroke-width="1.16"   />
<rect x="70.4" y="15.8" width="20.0" height="26.2" rx="19.9" fill="none" fill-opacity="0.22"   transform="translate(38.4 23.0) rotate(264.6) scale(0.55 1.91)" />
<rect x="20.7" y="62.6" width="23.1" height="35.4" rx="15.5" fill="none" fill-opacity="0.60"    />
<circle cx="45.7" cy="51.8" r="1.4" fill="hsl(40, 53%, 69%)" fill-opacity="0.82"  transform="translate(95.7 53.0) rotate(307.0) scale(0.61 1.10)" />
<rect x="27.3" y="31.1" width="40.8" height="12.4" rx="11.7" fill="none" fill-opacity="0.89" stroke="hsl(144, 86%, 72%)" stroke-width="1.9"   />
<rect x="38.6" y="40.4" width="46.4" height="29.7" rx="5.8" fill="none" fill-opacity="0.89" stroke="hsl(40, 53%, 69%)" stroke-width="3.3"   />
<path d="M 60.6 53.5 C 66.5 34.8, 49.0 56.4, 47.0 65.6 C 58.3 73.2, 44.8 20.3, 46.6 34.8 C 40.2 50.9, 48.6 89.9, 49.8 99.3 C 55.7 96.9, 58.4 93.1, 55.6 83.0 C 65.0 81.9, 37.8 73.9, 24.8 62.3 C 44.7 73.1, 42.9 84.9, 30.3 78.2 " fill="hsl(151, 70%, 62%)" fill-opacity="0.51" stroke="none" stroke-width="0.83"  transform="translate(68.1 89.7) rotate(198.4) scale(1.45 0.70)" />
<path d="M 51.9 1.5 C 50.3 16.6, 69.9 82.9, 74.9 80.5 C 58.6 100.0, 28.0 46.8, 30.2 35.8 C 41.8 21.4, 22.3 28.9, 23.9 34.0 C 22.9 43.9, 100.0 6.5, 91.3 5.5 C 93.5 7.7, 72.2 52.0, 62.7 49.3 C 66.3 42.5, 34.5 95.4, 41.5 84.5 C 38.9 81.6, 83.9 46.1, 88.4 54.9 Z" fill="hsl(290, 83%, 63%)" fill-opacity="0.33" stroke="none" stroke-width="1.29"   />
<circle cx="34.1" cy="50.0" r="0.2" fill="hsl(290, 83%, 63%)" fill-opacity="0.53"   />
<path d="M 68.1 24.9 C 67.5 29.1, 5.3 11.9, 0.7 12.0 C 6.7 22.2, 0.0 47.3, 0.5 35.5 C 19.4 43.6, 85.4 20.2, 71.5 15.9 C 88.5 0.0, 70.0 74.7, 64.7 62.9 " fill="none" fill-opacity="0.95" stroke="hsl(2, 82%, 55%)" stroke-width="1.15"   />
<rect x="48.0" y="16.2" width="26.1" height="27.7" rx="1.6" fill="none" fill-opacity="0.60"    />
<circle cx="3.8" cy="83.0" r="0.3" fill="hsl(106, 75%, 59%)" fill-opacity="0.80"  transform="translate(52.5 72.8) rotate(137.8) scale(1.50 1.54)" />
</svg>
