<?xml version="1.0" encoding="UTF-8"?>
<svg xmlns="http://www.w3.org/2000/svg" width="100" height="100" viewBox="0 0 100 100">
<defs>
<linearGradient id="g0" x1="0%" y1="0%" x2="100%" y2="100%">
<stop offset="0.0%" stop-color="hsl(106, 75%, 59%)" />
<stop offset="33.3%" stop-color="hsl(183, 71%, 60%)" />
<stop offset="66.7%" stop-color="hsl(242, 72%, 49%)" />
<stop offset="100.0%" stop-color="hsl(322, 74%, 44%)" />
</linearGradient>
<linearGradient id="g1" x1="0%" y1="0%" x2="100%" y2="100%">
<stop offset="0.0%" stop-color="hsl(290, 83%, 63%)" />
<stop offset="33.3%" stop-color="hsl(2, 82%, 55%)" />
<stop offset="66.7%" stop-color="hsl(86, 72%, 68%)" />
<stop offset="100.0%" stop-color="hsl(83, 65%, 44%)" />
</linearGradient>
<linearGradient id="g2" x1="0%" y1="0%" x2="100%" y2="100%">
<stop offset="0.0%" stop-color="hsl(40, 53%, 69%)" />
<stop offset="33.3%" stop-color="hsl(104, 72%, 65%)" />
<stop offset="66.7%" stop-color="hsl(144, 86%, 72%)" />
<stop offset="100.0%" stop-color="hsl(151, 70%, 62%)" />
</linearGradient>
</defs>

<circle cx="94.2" cy="77.9" r="1.8" fill="hsl(106, 75%, 59%)" fill-opacity="0.74"   />
<circle cx="69.4" cy="19.5" r="0.7" fill="hsl(242, 72%, 49%)" fill-opacity="0.81"   />
<circle cx="84.6" cy="69.3" r="0.2" fill="hsl(183, 71%, 60%)" fill-opacity="0.67"  transform="translate(70.1 82.2) rotate(290.0) scale(1.59 1.00)" />
<path d="M 28.4 31.7 C 45.3 44.5, 29.9 78.9, 21.3 73.0 C 7.7 82.8, 3.1 16.9, 10.3 27.1 C 21.2 13.3, 3.9 45.2, 3.7 47.3 C 7.2 45.6, 52.9 56.5, 57.0 63.0 " fill="hsl(151, 70%, 62%)" fill-opacity="0.73" stroke="none" stroke-width="1.29"  transform="translate(96.1 23.9) rotate(220.1) scale(1.69 1.84)" />
<path d="M 0.6 12.1 C 4.9 0.0, 100.0 64.1, 98.3 67.3 C 100.0 62.7, 5.4 96.1, 1.7 88.8 C 6.7 81.1, 37.9 16.8, 27.8 18.0 C 11.7 2.0, 63.0 40.8, 73.2 34.1 C 73.7 32.7, 86.2 43.4, 78.3 47.8 C 69.1 45.5, 22.0 88.4, 31.1 86.6 C 19.9 90.6, 84.1 11.7, 76.5 13.5 " fill="none" fill-opacity="0.35" stroke="hsl(183, 71%, 60%)" stroke-width="1.07"   />
<rect x="50.8" y="0.2" width="27.6" height="26.9" rx="15.8" fill="none" fill-opacity="0.60"    />
<rect x="12.9" y="11.6" width="24.8" height="30.6" rx="0" fill="none" fill-opacity="0.94"    />
<path d="M 12.9 42.3 C 0.0 56.4, 91.5 80.5, 76.8 79.9 C 86.2 70.9, 87.4 40.7, 86.7 37.8 C 99.7 33.0, 29.7 52.7, 23.0 49.9 " fill="none" fill-opacity="0.60" stroke="hsl(322, 74%, 44%)" stroke-width="1.07"  transform="translate(48.0 34.9) rotate(20.7) scale(1.18 0.75)" />
<circle cx="19.3" cy="16.4" r="0.9" fill="hsl(322, 74%, 44%)" fill-opacity="0.91"   />
<path d="M 37.5 69.7 C 56.4 80.3, 66.9 37.4, 67.7 45.9 C 76.3 62.4, 82.0 24.8, 80.4 31.2 C 63.3 15.6, 59.4 71.8, 58.4 83.1 C 53.2 78.2, 95.2 65.7, 92.8 52.2 C 94.5 56.7, 35.4 33.0, 40.9 38.0 Z" fill="hsl(106, 75%, 59%)" fill-opacity="0.88" stroke="none" stroke-width="1.00"  transform="translate(56.2 88.4) rotate(317.4) scale(1.50 1.74)" />
<path d="M 54.7 7.7 C 48.5 4.7, 78.5 60.3, 77.5 67.1 C 73.1 59.1, 61.8 16.8, 63.2 29.5 C 80.0 20.4, 25.8 69.8, 33.8 57.0 C 18.5 37.4, 20.9 49.0, 20.1 47.5 C 11.0 55.0, 39.2 67.0, 44.8 74.1 C 54.4 75.4, 13.4 73.8, 1.2 69.3 " fill="none" fill-opacity="0.78" stroke="hsl(322, 74%, 44%)" stroke-width="1.15"   />
<path d="M 10.4 61.4 C 13.8 49.2, 35.6 65.5, 36.7 65.0 C 24.8 70.1, 49.9 69.8, 48.5 83.6 C 66.5 77.3, 20.3 83.4, 28.6 85.7 Z" fill="hsl(290, 83%, 63%)" fill-opacity="0.26" stroke="none" stroke-width="1.19"   />
<path d="M 95.9 89.2 C 85.6 92.8, 57.5 63.8, 61.3 74.5 C 61.4 61.3, 74.2 79.1, 72.8 85.0 C 89.4 91.5, 20.5 40.1, 16.4 50.9 C 20.9 67.7, 44.6 73.4, 42.3 81.5 " fill="none" fill-opacity="0.68" stroke="hsl(322, 74%, 44%)" stroke-width="1.08"  transform="translate(26.7 22.3) rotate(344.9) scale(0.89 1.87)" />
<circle cx="55.7" cy="50.7" r="0.3" fill="hsl(242, 72%, 49%)" fill-opacity="0.69"  transform="translate(21.8 57.5) rotate(227.3) scale(0.99 1.94)" />
<path d="M 3.6 99.4 C 0.0 82.0, 3.6 12.9, 0.4 24.2 C 1.1 24.1, 74.4 100.0, 60.0 93.1 C 72.6 99.4, 0.0 17.2, 7.2 24.1 " fill="none" fill-opacity="0.69" stroke="hsl(106, 75%, 59%)" stroke-width="1.00"   />
</svg>
