<?xml version="1.0" encoding="UTF-8"?>
<svg xmlns="http://www.w3.org/2000/svg" width="100" height="100" viewBox="0 0 100 100">
<defs>
<linearGradient id="g0" x1="0%" y1="0%" x2="100%" y2="100%">
<stop offset="0.0%" stop-color="hsl(106, 75%, 59%)" />
<stop offset="33.3%" stop-color="hsl(183, 71%, 60%)" />
<stop offset="66.7%" stop-color="hsl(242, 72%, 49%)" />
<stop offset="100.0%" stop-color="hsl(322, 74%, 44%)" />
</linearGradient>
<linearGradient id="g1" x1="0%" y1="0%" x2="100%" y2="100%">
<stop offset="0.0%" stop-color="hsl(290, 83%, 63%)" />
<stop offset="33.3%" stop-color="hsl(2, 82%, 55%)" />
<stop offset="66.7%" stop-color="hsl(86, 72%, 68%)" />
<stop offset="100.0%" stop-color="hsl(83, 65%, 44%)" />
</linearGradient>
<linearGradient id="g2" x1="0%" y1="0%" x2="100%" y2="100%">
<stop offset="0.0%" stop-color="hsl(40, 53%, 69%)" />
<stop offset="33.3%" stop-color="hsl(104, 72%, 65%)" />
<stop offset="66.7%" stop-color="hsl(144, 86%, 72%)" />
<stop offset="100.0%" stop-color="hsl(151, 70%, 62%)" />
</linearGradient>
<filter id="f1" x="-20%" y="-20%" width="140%" height="140%">
  <feGaussianBlur stdDeviation="0.5885289011014334" />
</filter>

</defs>

<rect x="6.6" y="13.2" width="31.2" height="10.5" rx="0" fill="none" fill-opacity="0.39"   transform="translate(59.3 51.9) rotate(323.4) scale(1.31 1.99)" />
<path d="M 33.2 32.3 C 20.3 49.5, 50.1 34.2, 35.3 23.2 C 23.7 31.5, 8.4 67.3, 5.7 56.5 C 25.2 66.8, 93.5 16.5, 83.9 25.8 C 100.0 41.5, 72.1 35.3, 58.4 21.6 C 73.0 35.4, 0.0 22.2, 5.5 15.1 C 0.0 29.4, 21.7 86.2, 24.4 87.8 C 12.3 97.9, 13.4 100.0, 1.5 96.9 C 0.0 100.0, 36.8 59.9, 47.4 47.9 Z" fill="none" fill-opacity="0.37" stroke="hsl(183, 71%, 60%)" stroke-width="1.59"  transform="translate(95.0 62.3) rotate(36.6) scale(0.95 1.12)" />
<rect x="54.2" y="55.5" width="22.0" height="39.4" rx="13.7" fill="hsl(290, 83%, 63%)" fill-opacity="0.36"   transform="translate(53.9 3.1) rotate(301.7) scale(1.57 0.92)" />
<circle cx="44.2" cy="1.4" r="6.3" fill="hsl(83, 65%, 44%)" fill-opacity="0.71" filter="url(#f1)" transform="translate(71.7 92.8) rotate(254.5) scale(1.78 0.79)" />
<path d="M 39.8 93.9 C 53.3 87.7, 100.0 28.4, 99.5 27.4 C 86.2 7.8, 56.9 0.0, 62.2 6.9 C 58.5 24.5, 100.0 67.5, 90.4 76.3 C 74.1 90.5, 57.4 21.1, 67.5 30.6 C 73.2 34.5, 75.5 45.8, 78.7 59.7 C 97.8 54.6, 31.7 63.1, 44.3 63.1 C 57.1 55.9, 84.1 47.4, 90.0 33.0 C 100.0 19.3, 27.2 32.2, 16.4 40.8 C 32.4 22.9, 85.8 2.5, 82.5 16.2 Z" fill="hsl(242, 72%, 49%)" fill-opacity="0.67" stroke="none" stroke-width="2.31"  transform="translate(44.9 89.5) rotate(192.6) scale(0.55 1.30)" />
<path d="M 16.3 65.0 C 33.6 79.6, 41.5 16.1, 28.0 23.4 C 38.2 34.6, 100.0 46.7, 93.8 38.2 C 99.1 26.4, 90.3 39.5, 78.0 29.2 C 64.9 26.4, 58.3 43.9, 66.9 41.3 C 85.4 50.6, 100.0 27.5, 97.0 19.9 C 97.7 16.9, 72.7 3.2, 80.2 8.3 C 65.1 0.0, 55.8 77.2, 59.6 74.3 C 47.6 93.1, 49.0 45.6, 42.7 56.3 C 29.6 67.0, 100.0 30.6, 98.1 24.5 C 92.9 26.4, 100.0 84.5, 88.1 91.3 Z" fill="none" fill-opacity="0.94" stroke="hsl(86, 72%, 68%)" stroke-width="1.45"  transform="translate(68.5 54.3) rotate(29.8) scale(1.62 1.57)" />
<rect x="31.4" y="72.5" width="38.1" height="21.4" rx="0" fill="hsl(322, 74%, 44%)" fill-opacity="0.95" stroke="hsl(183, 71%, 60%)" stroke-width="2.8" filter="url(#f1)" transform="translate(35.2 74.6) rotate(105.4) scale(1.00 0.89)" />
<circle cx="50.1" cy="28.7" r="9.7" fill="url(#g2)" fill-opacity="0.93"  transform="translate(44.4 29.6) rotate(256.2) scale(1.05 1.34)" />
<circle cx="45.8" cy="66.9" r="4.7" fill="url(#g0)" fill-opacity="0.76"  transform="translate(30.8 19.6) rotate(36.0) scale(0.97 1.43)" />
<path d="M 10.8 78.6 C 4.9 61.2, 0.0 97.0, 7.4 87.5 C 18.6 69.5, 67.2 67.1, 70.7 80.1 C 66.5 70.6, 84.0 38.3, 82.8 37.0 C 96.0 23.3, 72.6 80.2, 76.0 80.7 C 67.2 73.9, 39.3 88.3, 52.9 98.4 C 44.9 87.7, 72.0 35.0, 60.0 34.6 Z" fill="hsl(151, 70%, 62%)" fill-opacity="0.30" stroke="none" stroke-width="3.85" filter="url(#f1)"  />
<path d="M 7.2 63.7 C 0.0 53.4, 92.7 18.8, 89.7 30.9 C 76.6 33.3, 21.8 35.0, 35.4 27.0 C 32.7 23.2, 62.1 81.1, 58.1 75.3 C 65.8 60.1, 14.5 46.8, 6.5 35.3 C 4.7 43.8, 34.0 38.5, 20.5 24.0 C 28.8 30.3, 98.1 80.1, 89.0 87.4 C 99.3 84.0, 80.8 81.1, 85.8 90.3 C 100.0 92.8, 38.0 0.8, 29.5 8.4 C 28.0 0.0, 74.9 92.9, 77.8 85.2 C 84.3 100.0, 23.8 88.3, 37.0 82.6 Z" fill="none" fill-opacity="0.83" stroke="hsl(183, 71%, 60%)" stroke-width="1.85"  transform="translate(68.3 44.9) rotate(91.0) scale(1.86 1.60)" />
<path d="M 87.9 88.7 C 76.5 90.1, 71.3 30.7, 61.8 33.7 C 58.4 42.4, 0.0 94.4, 6.1 91.1 C 0.0 92.5, 100.0 44.5, 94.9 56.4 C 80.2 52.8, 80.4 27.5, 75.6 14.2 C 93.3 23.0, 84.6 44.5, 72.6 30.0 C 79.3 23.9, 47.9 29.9, 50.9 39.9 C 39.5 51.6, 41.0 24.3, 27.9 17.3 C 47.1 19.2, 27.9 68.5, 26.6 64.4 Z" fill="none" fill-opacity="0.66" stroke="hsl(151, 70%, 62%)" stroke-width="4.23"  transform="translate(28.6 94.8) rotate(235.3) scale(1.07 1.16)" />
<rect x="28.6" y="16.0" width="33.8" height="25.7" rx="0" fill="hsl(40, 53%, 69%)" fill-opacity="0.53" stroke="hsl(104, 72%, 65%)" stroke-width="1.9"  transform="translate(17.4 40.8) rotate(318.5) scale(1.25 1.15)" />
<path d="M 51.2 62.4 C 37.3 46.0, 21.1 43.7, 15.8 30.5 C 2.6 46.3, 54.4 0.0, 45.6 2.9 C 31.0 2.4, 18.0 16.8, 18.8 1.9 C 4.2 0.0, 38.9 60.8, 26.5 50.6 C 33.8 69.3, 55.9 26.5, 57.0 36.4 C 54.4 52.2, 100.0 25.6, 91.8 17.3 C 93.4 15.3, 56.1 63.8, 61.4 68.7 Z" fill="hsl(183, 71%, 60%)" fill-opacity="0.31" stroke="none" stroke-width="3.83"   />
<path d="M 24.9 48.2 C 27.3 54.5, 68.4 57.5, 61.6 44.9 C 45.0 46.7, 64.9 61.1, 55.3 57.3 C 50.6 44.8, 81.5 0.0, 79.9 0.5 C 89.9 0.0, 77.8 93.8, 86.1 81.5 C 99.5 84.0, 67.1 2.2, 65.0 12.9 C 48.3 23.0, 0.0 54.7, 6.0 54.5 C 0.0 68.7, 55.8 68.1, 67.5 70.2 Z" fill="none" fill-opacity="0.98" stroke="hsl(40, 53%, 69%)" stroke-width="2.83"  transform="translate(65.0 49.1) rotate(163.5) scale(0.52 0.84)" />
<path d="M 41.0 18.5 C 21.1 20.6, 60.9 74.7, 55.3 88.3 C 45.4 91.0, 18.3 60.6, 13.2 45.7 C 23.2 55.9, 50.3 60.1, 58.9 63.9 C 75.2 60.0, 29.3 23.4, 29.8 8.5 C 32.6 0.0, 58.1 0.0, 49.0 11.1 C 43.8 19.2, 37.2 75.9, 25.9 70.4 C 15.6 57.8, 59.4 29.6, 48.6 30.7 C 54.7 14.2, 12.8 52.3, 4.6 42.8 C 0.0 26.6, 35.1 58.9, 43.1 53.1 C 36.5 59.8, 71.5 14.4, 72.4 21.9 Z" fill="none" fill-opacity="0.31" stroke="hsl(322, 74%, 44%)" stroke-width="3.62"  transform="translate(45.0 35.1) rotate(353.7) scale(0.50 1.62)" />
<circle cx="19.2" cy="61.4" r="0.8" fill="url(#g0)" fill-opacity="0.47"  transform="translate(6.0 84.8) rotate(72.3) scale(1.08 1.11)" />
<circle cx="39.3" cy="93.4" r="2.0" fill="hsl(144, 86%, 72%)" fill-opacity="0.60"  transform="translate(30.4 27.4) rotate(131.2) scale(0.51 1.66)" />
<path d="M 4.9 69.5 C 5.2 86.7, 60.8 27.5, 50.1 18.8 C 49.6 3.5, 83.8 26.3, 75.1 27.3 C 71.3 17.7, 91.2 83.3, 96.6 88.5 C 77.4 79.2, 46.2 45.0, 33.6 53.8 C 16.2 48.3, 85.0 70.5, 80.3 61.7 C 93.1 76.4, 100.0 59.2, 99.7 53.7 C 81.4 71.8, 22.5 45.0, 9.7 36.5 C 3.9 28.4, 18.4 78.8, 14.1 74.6 C 30.5 63.2, 47.1 74.7, 34.6 67.4 Z" fill="none" fill-opacity="0.34" stroke="hsl(290, 83%, 63%)" stroke-width="2.86"  transform="translate(39.4 15.1) rotate(65.1) scale(1.96 1.26)" />
<rect x="31.1" y="37.9" width="31.8" height="14.7" rx="0" fill="none" fill-opacity="0.99"   transform="translate(93.9 82.5) rotate(136.5) scale(1.50 1.70)" />
<path d="M 96.0 14.5 C 100.0 9.3, 38.1 35.7, 40.9 42.7 C 32.5 28.1, 83.0 18.9, 85.5 7.2 C 89.5 0.0, 83.3 9.7, 76.7 10.1 C 77.7 27.3, 87.1 35.4, 86.1 23.8 C 87.5 39.1, 18.2 84.1, 16.1 72.2 C 12.6 55.3, 77.8 0.0, 66.9 1.5 C 63.5 1.4, 32.9 29.4, 21.6 34.5 " fill="hsl(290, 83%, 63%)" fill-opacity="0.97" stroke="none" stroke-width="1.04"  transform="translate(29.8 15.2) rotate(83.2) scale(1.21 1.72)" />
<path d="M 58.4 74.4 C 49.2 55.9, 11.1 74.6, 6.2 79.2 C 0.0 68.9, 6.7 0.0, 1.3 2.9 C 0.5 1.4, 55.9 79.0, 45.5 70.5 C 54.2 69.6, 42.0 46.5, 36.0 32.7 C 23.9 33.2, 53.1 0.0, 43.3 6.3 C 35.6 23.1, 60.6 68.3, 71.1 78.6 C 58.3 88.0, 84.1 82.0, 82.0 80.6 C 74.9 66.3, 49.2 58.5, 39.3 65.3 " fill="hsl(106, 75%, 59%)" fill-opacity="0.67" stroke="none" stroke-width="3.57"  transform="translate(17.8 54.8) rotate(109.4) scale(0.82 0.84)" />
<rect x="2.3" y="36.3" width="48.3" height="21.8" rx="0" fill="hsl(104, 72%, 65%)" fill-opacity="0.42"  filter="url(#f1)" transform="translate(95.2 42.9) rotate(275.3) scale(1.58 1.78)" />
<path d="M 7.5 33.4 C 18.2 17.7, 66.7 46.5, 73.8 42.9 C 68.6 42.6, 46.0 5.8, 53.7 11.1 C 70.8 17.0, 35.9 100.0, 42.9 95.6 C 42.7 94.2, 38.6 58.0, 38.4 53.8 C 51.4 47.7, 28.7 0.0, 30.2 12.6 C 46.5 0.0, 0.0 96.7, 6.8 85.9 C 19.1 68.9, 45.6 48.7, 31.1 55.0 C 28.3 63.6, 73.7 40.4, 64.4 46.2 C 74.8 57.5, 81.5 16.4, 81.7 21.0 C 65.5 33.8, 39.3 89.2, 48.4 74.9 " fill="none" fill-opacity="0.98" stroke="hsl(40, 53%, 69%)" stroke-width="1.66"  transform="translate(11.3 43.0) rotate(19.7) scale(0.89 0.93)" />
<rect x="59.1" y="38.4" width="25.8" height="10.7" rx="10.7" fill="hsl(106, 75%, 59%)" fill-opacity="0.24"   transform="translate(95.7 77.3) rotate(107.2) scale(0.76 0.51)" />
<path d="M 85.7 78.2 C 93.4 63.6, 52.3 28.3, 47.7 39.6 C 49.5 22.3, 65.9 85.8, 79.3 76.6 C 90.9 81.8, 29.4 40.9, 19.0 41.5 C 33.2 47.6, 67.1 0.0, 70.7 13.0 C 52.8 15.8, 86.8 67.2, 99.0 78.1 C 100.0 67.5, 57.1 0.0, 43.8 5.2 C 53.5 10.2, 100.0 38.3, 91.4 32.7 C 80.8 26.6, 45.0 9.4, 56.8 4.6 Z" fill="none" fill-opacity="0.47" stroke="hsl(40, 53%, 69%)" stroke-width="4.98"   />
<circle cx="69.4" cy="49.3" r="9.8" fill="hsl(183, 71%, 60%)" fill-opacity="0.50"  transform="translate(19.8 30.2) rotate(3.2) scale(1.74 1.99)" />
<rect x="40.3" y="31.2" width="48.2" height="15.4" rx="0" fill="hsl(183, 71%, 60%)" fill-opacity="0.90"   transform="translate(75.7 97.8) rotate(199.7) scale(0.58 0.58)" />
<path d="M 34.3 48.3 C 29.2 43.4, 67.7 64.0, 73.6 59.6 C 59.9 46.0, 13.8 14.5, 27.1 24.0 C 23.6 21.3, 0.0 20.7, 4.0 16.4 C 1.4 22.6, 99.6 11.0, 89.2 15.1 C 79.7 22.3, 3.6 99.4, 14.6 87.3 C 1.2 81.1, 28.7 42.8, 38.8 36.2 C 19.5 52.6, 89.7 74.5, 98.5 77.3 Z" fill="none" fill-opacity="0.67" stroke="hsl(183, 71%, 60%)" stroke-width="2.58"   />
<rect x="37.8" y="31.8" width="28.2" height="26.0" rx="0.6" fill="hsl(144, 86%, 72%)" fill-opacity="0.74"   transform="translate(98.1 10.4) rotate(64.3) scale(1.08 1.58)" />
<path d="M 54.1 51.9 C 61.8 63.1, 93.2 76.7, 87.7 68.6 C 100.0 56.7, 4.2 34.2, 16.7 22.8 C 6.0 34.3, 57.9 27.1, 62.1 12.6 C 49.3 9.4, 0.0 86.6, 0.7 80.2 C 10.3 84.2, 84.4 49.8, 79.3 45.6 C 93.3 37.5, 100.0 67.1, 97.2 75.1 C 77.4 73.5, 85.1 23.2, 73.2 32.2 C 65.4 14.7, 26.8 6.6, 27.1 18.3 C 43.6 23.3, 0.0 35.4, 2.7 35.3 Z" fill="none" fill-opacity="0.78" stroke="hsl(183, 71%, 60%)" stroke-width="3.76"  transform="translate(18.9 54.5) rotate(149.2) scale(1.16 1.67)" />
<path d="M 17.5 98.3 C 21.4 100.0, 41.0 13.3, 43.9 8.4 C 47.0 27.0, 86.8 64.1, 98.4 64.4 C 100.0 49.2, 92.7 33.7, 92.6 20.1 C 75.4 9.0, 18.8 30.3, 18.6 25.1 C 15.1 24.1, 77.6 12.5, 91.5 0.9 C 87.3 20.1, 93.8 49.9, 84.2 56.3 C 96.8 49.5, 36.7 84.7, 29.0 81.3 C 25.0 81.6, 28.9 21.2, 43.5 31.1 C 44.6 36.1, 75.2 86.4, 84.8 84.5 C 100.0 69.6, 61.0 0.0, 51.0 1.2 Z" fill="none" fill-opacity="0.45" stroke="hsl(183, 71%, 60%)" stroke-width="1.70" filter="url(#f1)" transform="translate(97.4 44.1) rotate(351.0) scale(1.04 1.48)" />
<circle cx="91.0" cy="36.7" r="0.1" fill="url(#g2)" fill-opacity="0.96"  transform="translate(83.5 72.5) rotate(313.8) scale(0.95 1.36)" />
<path d="M 26.0 42.0 C 15.6 33.6, 35.0 66.2, 39.0 61.0 C 45.4 55.7, 76.5 40.2, 84.0 52.4 C 72.3 64.6, 1.0 56.0, 8.9 63.0 C 0.0 61.3, 13.7 21.2, 15.9 26.8 C 28.6 32.6, 12.8 79.3, 5.5 71.5 C 0.0 88.9, 12.0 88.0, 14.4 92.5 C 8.4 91.3, 68.2 66.1, 55.3 61.8 C 39.3 60.1, 69.6 0.0, 64.6 1.9 C 49.0 0.0, 0.0 100.0, 7.6 88.8 Z" fill="none" fill-opacity="0.47" stroke="hsl(106, 75%, 59%)" stroke-width="4.12"  transform="translate(23.6 55.5) rotate(39.0) scale(1.98 1.07)" />
<path d="M 66.5 20.6 C 72.6 10.4, 70.6 48.1, 76.5 42.1 C 83.1 36.2, 46.9 67.9, 37.6 59.3 C 34.7 59.8, 22.4 74.5, 17.4 70.9 C 3.0 84.9, 46.7 7.8, 57.7 0.1 C 60.6 0.0, 40.5 2.3, 26.5 8.2 C 26.6 0.0, 100.0 52.9, 99.0 64.1 C 100.0 53.1, 84.8 53.8, 96.5 45.8 " fill="none" fill-opacity="0.68" stroke="hsl(83, 65%, 44%)" stroke-width="5.17" filter="url(#f1)" transform="translate(45.1 66.0) rotate(18.0) scale(0.76 1.86)" />
<circle cx="31.8" cy="7.9" r="6.8" fill="hsl(2, 82%, 55%)" fill-opacity="0.63"  transform="translate(49.8 11.9) rotate(163.4) scale(1.57 0.64)" />
<rect x="71.7" y="54.6" width="27.8" height="34.1" rx="0" fill="hsl(106, 75%, 59%)" fill-opacity="0.92"   transform="translate(17.3 62.4) rotate(78.5) scale(0.54 1.33)" />
<circle cx="19.5" cy="74.5" r="2.2" fill="hsl(151, 70%, 62%)" fill-opacity="0.56"  transform="translate(71.7 13.3) rotate(275.5) scale(1.53 0.52)" />
<path d="M 42.5 75.7 C 36.3 72.5, 53.5 100.0, 57.5 96.8 C 46.6 88.6, 21.3 39.8, 13.2 29.0 C 22.7 27.1, 46.3 15.6, 57.0 11.9 C 57.7 3.5, 21.4 47.9, 21.2 59.3 C 21.1 60.0, 97.6 92.7, 94.3 82.5 C 94.6 98.1, 95.4 66.2, 88.3 65.8 C 79.0 47.6, 47.8 21.7, 52.6 12.3 C 51.8 15.8, 47.8 74.4, 43.3 64.0 C 26.9 67.7, 14.0 2.6, 28.4 9.4 Z" fill="hsl(86, 72%, 68%)" fill-opacity="0.31" stroke="none" stroke-width="0.92"  transform="translate(66.3 88.2) rotate(58.3) scale(1.63 1.93)" />
<path d="M 74.1 30.2 C 87.2 45.5, 0.0 14.3, 2.9 25.4 C 0.0 18.9, 53.0 68.2, 62.5 72.0 C 48.7 81.7, 87.2 29.7, 88.2 37.4 C 69.1 53.9, 31.0 94.8, 26.0 84.6 C 16.4 68.3, 33.5 35.1, 36.3 21.5 C 45.2 19.2, 48.3 75.5, 52.3 69.4 C 48.7 71.8, 68.9 0.1, 71.8 7.1 C 67.5 13.5, 20.4 66.3, 9.2 60.3 C 13.9 49.5, 39.0 20.8, 34.9 7.2 Z" fill="hsl(242, 72%, 49%)" fill-opacity="0.86" stroke="none" stroke-width="2.04" filter="url(#f1)" transform="translate(39.3 11.3) rotate(122.7) scale(1.98 1.16)" />
<path d="M 28.8 23.9 C 48.2 5.2, 4.2 39.2, 11.2 36.1 C 0.0 43.5, 72.5 45.4, 65.1 40.5 C 84.0 27.0, 0.0 75.5, 10.8 64.7 C 0.0 65.0, 100.0 91.0, 88.2 85.5 C 71.3 71.3, 32.5 19.3, 40.8 21.1 C 49.3 22.7, 93.2 16.7, 95.3 12.5 C 96.5 17.8, 100.0 55.4, 89.8 56.3 C 100.0 51.8, 56.6 57.4, 61.9 50.8 C 49.0 61.7, 47.2 94.7, 46.9 97.5 Z" fill="hsl(40, 53%, 69%)" fill-opacity="0.66" stroke="none" stroke-width="1.15"  transform="translate(8.8 2.4) rotate(188.8) scale(1.79 0.76)" />
<path d="M 45.6 21.6 C 61.5 21.6, 55.9 14.1, 53.5 15.0 C 34.6 5.2, 12.4 31.5, 27.0 31.4 C 24.4 20.4, 67.6 81.1, 62.6 80.7 C 43.6 93.6, 26.1 32.4, 34.9 44.1 C 40.1 50.0, 51.5 85.7, 37.7 90.5 C 30.6 89.8, 65.2 27.0, 57.9 22.9 C 38.8 8.0, 6.1 13.8, 19.8 0.6 C 1.9 0.0, 40.4 100.0, 28.7 93.9 C 39.7 75.5, 32.1 60.8, 36.9 73.0 C 41.9 64.5, 98.1 9.0, 87.0 3.0 Z" fill="hsl(322, 74%, 44%)" fill-opacity="0.68" stroke="none" stroke-width="1.07"  transform="translate(67.8 16.7) rotate(157.0) scale(1.15 1.04)" />
<circle cx="54.9" cy="75.8" r="8.7" fill="url(#g1)" fill-opacity="0.67" filter="url(#f1)" transform="translate(60.5 73.7) rotate(242.2) scale(0.97 0.74)" />
<path d="M 90.2 57.8 C 83.1 52.8, 0.0 15.9, 0.1 22.7 C 1.0 21.1, 41.7 29.2, 30.2 43.5 C 23.4 27.0, 1.6 21.1, 5.0 19.7 C 8.4 27.3, 49.5 84.2, 64.3 83.6 C 83.0 66.3, 42.1 100.0, 52.1 99.4 C 57.2 98.4, 19.7 53.5, 9.5 58.0 C 0.0 51.8, 43.2 75.3, 46.8 86.5 C 34.5 100.0, 63.9 12.9, 59.0 15.7 C 61.4 33.0, 91.6 65.0, 82.1 56.1 Z" fill="hsl(144, 86%, 72%)" fill-opacity="0.66" stroke="none" stroke-width="2.50" filter="url(#f1)" transform="translate(38.3 16.2) rotate(280.5) scale(1.58 1.99)" />
<circle cx="74.7" cy="53.1" r="9.1" fill="hsl(144, 86%, 72%)" fill-opacity="0.57"  transform="translate(86.2 83.3) rotate(200.4) scale(1.18 0.54)" />
<path d="M 96.1 98.7 C 83.0 100.0, 66.8 73.6, 66.0 59.2 C 49.2 51.5, 70.0 74.1, 75.1 82.1 C 58.0 97.1, 21.7 94.4, 24.5 91.5 C 8.0 100.0, 87.5 65.3, 84.7 69.8 C 100.0 89.0, 10.4 10.7, 24.8 17.2 C 29.4 30.7, 95.7 86.5, 86.1 83.8 C 100.0 87.2, 39.6 55.8, 38.6 69.7 C 20.7 77.5, 12.6 76.6, 10.8 67.6 " fill="none" fill-opacity="0.35" stroke="hsl(242, 72%, 49%)" stroke-width="4.70"   />
<path d="M 2.2 51.0 C 0.0 50.6, 42.8 99.7, 35.3 95.4 C 18.3 84.1, 25.0 49.0, 38.5 40.9 C 47.7 39.4, 39.6 0.0, 26.2 5.0 C 9.9 11.3, 40.2 2.2, 43.8 15.4 C 38.0 18.5, 33.3 6.8, 27.1 1.3 C 10.6 0.0, 20.0 19.8, 24.0 21.4 Z" fill="none" fill-opacity="0.36" stroke="hsl(86, 72%, 68%)" stroke-width="2.33"  transform="translate(31.4 94.1) rotate(288.8) scale(0.99 1.75)" />
<path d="M 75.8 54.4 C 64.7 36.2, 18.8 9.9, 9.4 15.2 C 26.6 23.9, 64.8 23.2, 64.5 28.6 C 56.0 23.7, 28.3 0.0, 21.9 2.9 C 2.3 13.1, 5.2 20.8, 1.3 10.0 C 14.5 0.0, 80.5 74.9, 93.4 67.6 C 100.0 86.1, 1.3 55.5, 9.1 57.2 C 17.0 59.6, 9.1 11.8, 2.7 10.4 Z" fill="none" fill-opacity="0.62" stroke="hsl(86, 72%, 68%)" stroke-width="4.73" filter="url(#f1)" transform="translate(96.0 19.2) rotate(54.1) scale(1.63 1.04)" />
<path d="M 24.2 77.5 C 43.6 75.5, 39.8 68.3, 34.1 74.8 C 17.5 76.1, 15.1 99.3, 23.3 84.7 C 39.3 93.4, 83.5 21.6, 71.6 35.5 C 87.0 21.5, 50.5 34.8, 56.4 42.3 C 36.7 27.4, 76.7 35.3, 66.3 49.0 C 48.9 46.9, 99.4 100.0, 99.8 97.8 C 100.0 95.6, 100.0 100.0, 97.0 97.0 C 86.0 86.4, 74.7 4.1, 67.0 15.3 C 62.3 15.5, 85.9 68.6, 89.9 57.9 Z" fill="hsl(322, 74%, 44%)" fill-opacity="0.64" stroke="none" stroke-width="1.38"  transform="translate(39.0 62.0) rotate(36.5) scale(0.52 0.88)" />
<path d="M 47.7 37.5 C 50.9 23.9, 91.3 31.1, 90.9 33.6 C 100.0 25.9, 71.9 92.5, 60.6 83.7 C 48.1 64.2, 18.5 36.0, 6.8 48.0 C 7.8 29.9, 0.0 41.2, 8.1 41.1 C 0.0 47.7, 62.1 43.5, 51.8 55.5 C 58.4 73.4, 9.6 71.6, 19.1 73.5 C 19.8 53.9, 82.2 0.0, 91.2 0.8 C 75.5 0.0, 1.5 19.8, 1.3 21.2 Z" fill="none" fill-opacity="0.32" stroke="hsl(83, 65%, 44%)" stroke-width="2.65"  transform="translate(16.2 90.3) rotate(221.5) scale(1.41 1.75)" />
<circle cx="1.2" cy="90.7" r="2.8" fill="url(#g0)" fill-opacity="0.46"  transform="translate(98.6 61.0) rotate(261.8) scale(1.51 1.64)" />
<rect x="26.3" y="27.6" width="46.6" height="39.9" rx="0" fill="hsl(144, 86%, 72%)" fill-opacity="0.49"   transform="translate(33.4 35.7) rotate(198.2) scale(1.57 1.06)" />
<rect x="35.7" y="1.5" width="28.5" height="39.0" rx="0" fill="none" fill-opacity="0.28"   transform="translate(39.6 46.7) rotate(310.2) scale(1.41 1.09)" />
<path d="M 19.6 48.4 C 28.4 47.4, 45.6 82.8, 30.9 74.5 C 15.2 90.0, 46.1 13.3, 59.4 9.9 C 57.4 6.3, 18.9 0.0, 5.7 3.4 C 20.1 5.6, 44.3 23.3, 41.6 35.6 C 47.4 43.8, 80.4 49.6, 83.3 47.1 C 98.9 27.6, 61.2 13.8, 51.3 23.2 C 63.4 10.9, 68.1 0.0, 71.5 0.3 C 75.9 20.0, 47.1 11.4, 39.1 2.8 C 52.8 19.3, 0.0 63.7, 3.7 77.0 Z" fill="hsl(40, 53%, 69%)" fill-opacity="0.45" stroke="none" stroke-width="3.83" filter="url(#f1)" transform="translate(95.1 91.8) rotate(167.7) scale(0.87 1.10)" />
<rect x="39.6" y="81.0" width="22.1" height="10.9" rx="12.6" fill="none" fill-opacity="0.58" stroke="hsl(144, 86%, 72%)" stroke-width="1.1"  transform="translate(52.6 62.3) rotate(118.6) scale(1.35 1.47)" />
<path d="M 23.5 99.1 C 24.0 85.5, 53.1 33.7, 55.4 42.2 C 50.7 36.2, 44.7 42.4, 58.7 33.8 C 65.4 49.9, 0.8 70.3, 1.9 60.7 C 0.0 44.1, 26.2 43.1, 17.3 35.6 C 23.8 32.1, 39.3 32.3, 36.0 27.8 C 26.4 31.5, 41.4 87.6, 34.3 87.8 C 40.2 85.9, 85.6 13.7, 80.2 26.5 C 86.6 10.8, 69.8 53.7, 62.7 57.6 Z" fill="hsl(86, 72%, 68%)" fill-opacity="0.60" stroke="none" stroke-width="1.30"  transform="translate(38.8 7.0) rotate(158.0) scale(1.67 0.96)" />
<rect x="36.3" y="21.1" width="23.0" height="14.7" rx="0" fill="none" fill-opacity="0.78" stroke="hsl(104, 72%, 65%)" stroke-width="2.7"  transform="translate(4.7 11.3) rotate(210.4) scale(0.80 1.28)" />
<circle cx="78.7" cy="32.9" r="8.3" fill="hsl(83, 65%, 44%)" fill-opacity="0.98"  transform="translate(14.1 25.4) rotate(214.7) scale(0.67 0.63)" />
<path d="M 87.0 72.0 C 100.0 75.1, 74.6 82.7, 88.6 71.3 C 100.0 51.8, 43.1 5.0, 48.2 14.2 C 33.2 12.5, 23.5 69.0, 18.4 69.3 C 24.5 62.4, 92.7 100.0, 79.5 93.6 C 63.2 93.5, 75.7 15.9, 74.3 30.7 C 74.4 11.6, 65.6 86.9, 66.2 82.1 C 53.6 86.3, 0.0 72.7, 0.1 81.4 C 18.1 62.4, 0.0 81.2, 0.5 86.7 C 0.0 93.2, 36.4 44.2, 39.8 52.2 " fill="none" fill-opacity="0.60" stroke="hsl(144, 86%, 72%)" stroke-width="4.92"  transform="translate(29.4 33.3) rotate(12.9) scale(0.54 0.50)" />
<rect x="35.2" y="44.5" width="42.1" height="21.4" rx="8.2" fill="hsl(104, 72%, 65%)" fill-opacity="0.90"   transform="translate(8.3 60.0) rotate(176.1) scale(0.81 1.12)" />
<rect x="18.5" y="30.2" width="40.8" height="25.7" rx="0" fill="hsl(86, 72%, 68%)" fill-opacity="0.80" stroke="hsl(290, 83%, 63%)" stroke-width="1.2"  transform="translate(87.7 51.0) rotate(246.0) scale(1.29 1.64)" />
<rect x="2.9" y="17.7" width="44.6" height="38.7" rx="0" fill="none" fill-opacity="0.43"   transform="translate(46.9 5.6) rotate(268.4) scale(1.58 0.56)" />
<circle cx="34.2" cy="25.8" r="2.6" fill="url(#g1)" fill-opacity="0.54"  transform="translate(49.2 24.4) rotate(119.4) scale(0.91 1.00)" />
<rect x="52.9" y="41.7" width="46.4" height="12.0" rx="2.5" fill="hsl(104, 72%, 65%)" fill-opacity="0.29"   transform="translate(76.4 93.5) rotate(333.8) scale(0.93 1.15)" />
<rect x="71.9" y="41.2" width="25.2" height="32.5" rx="0" fill="none" fill-opacity="0.63"    />
<path d="M 1.6 45.8 C 0.0 54.6, 0.0 36.8, 4.4 29.2 C 0.0 25.9, 21.4 65.4, 21.5 50.5 C 1.9 45.0, 69.6 92.4, 74.2 82.9 C 86.9 72.6, 77.6 76.5, 71.2 62.7 C 72.1 47.3, 30.2 100.0, 45.2 97.4 C 48.5 87.3, 44.5 41.4, 29.8 28.6 " fill="hsl(322, 74%, 44%)" fill-opacity="0.73" stroke="none" stroke-width="1.66"   />
<circle cx="80.6" cy="22.1" r="2.8" fill="url(#g0)" fill-opacity="0.42"   />
<circle cx="9.1" cy="23.1" r="5.5" fill="url(#g2)" fill-opacity="0.98" filter="url(#f1)" transform="translate(4.8 16.1) rotate(58.8) scale(1.27 1.06)" />
<circle cx="21.8" cy="22.4" r="7.9" fill="url(#g1)" fill-opacity="0.97"  transform="translate(45.0 45.7) rotate(122.6) scale(1.16 1.85)" />
<rect x="4.9" y="40.3" width="41.3" height="33.4" rx="0" fill="none" fill-opacity="0.33"   transform="translate(92.4 2.2) rotate(198.2) scale(1.28 1.34)" />
<path d="M 28.0 29.3 C 14.9 10.6, 43.7 0.0, 57.1 4.3 C 64.6 0.0, 95.1 53.2, 96.3 56.4 C 100.0 55.0, 52.5 82.7, 64.4 72.0 C 56.9 65.6, 32.3 0.3, 17.7 12.5 C 24.3 1.3, 87.0 53.6, 83.2 47.7 C 80.1 31.8, 74.6 68.3, 60.7 64.3 Z" fill="hsl(242, 72%, 49%)" fill-opacity="0.31" stroke="none" stroke-width="3.14"  transform="translate(77.2 20.6) rotate(74.1) scale(1.64 1.01)" />
<rect x="30.2" y="40.4" width="43.0" height="18.7" rx="0.5" fill="none" fill-opacity="0.72"   transform="translate(98.6 70.4) rotate(15.6) scale(1.33 0.64)" />
<path d="M 40.5 84.4 C 32.8 100.0, 34.5 24.7, 42.3 12.9 C 31.9 0.7, 81.9 13.8, 75.7 11.9 C 73.0 4.9, 15.6 81.6, 27.1 71.1 C 30.3 52.1, 65.3 45.0, 71.6 43.9 C 66.4 38.9, 43.9 39.2, 55.2 53.6 C 58.0 33.9, 54.9 81.9, 61.9 75.3 C 51.6 95.0, 17.2 20.0, 23.8 9.1 C 33.0 4.7, 86.5 16.3, 89.7 5.7 Z" fill="none" fill-opacity="0.67" stroke="hsl(183, 71%, 60%)" stroke-width="1.64"  transform="translate(49.0 75.6) rotate(182.1) scale(1.82 0.73)" />
<circle cx="45.7" cy="16.9" r="4.4" fill="hsl(40, 53%, 69%)" fill-opacity="0.44"  transform="translate(89.5 65.7) rotate(351.2) scale(0.69 1.26)" />
<path d="M 49.7 58.9 C 45.1 40.0, 45.5 15.1, 50.8 26.7 C 31.6 8.8, 60.7 70.0, 72.1 79.1 C 52.5 66.4, 100.0 67.1, 94.2 55.7 C 77.2 64.1, 12.8 3.2, 20.7 17.5 C 30.6 15.4, 18.0 56.1, 11.8 64.4 C 0.0 72.0, 83.5 61.3, 97.0 48.5 C 100.0 46.2, 35.1 11.7, 37.8 6.7 Z" fill="hsl(104, 72%, 65%)" fill-opacity="0.37" stroke="none" stroke-width="1.64"  transform="translate(11.2 52.8) rotate(220.4) scale(2.00 0.70)" />
<path d="M 68.2 18.6 C 72.1 16.0, 68.2 34.2, 76.3 23.6 C 95.5 17.5, 59.8 9.2, 45.1 14.2 C 54.2 0.6, 52.6 98.2, 66.0 87.2 C 47.3 84.5, 89.0 33.0, 96.0 33.3 C 100.0 47.4, 22.7 1.7, 19.4 8.3 C 18.8 18.9, 90.6 29.3, 82.5 27.8 C 99.2 40.1, 56.5 100.0, 70.4 96.2 C 83.8 80.3, 32.0 76.4, 36.9 89.6 Z" fill="none" fill-opacity="0.85" stroke="hsl(183, 71%, 60%)" stroke-width="3.89"  transform="translate(83.3 76.8) rotate(287.7) scale(0.62 1.98)" />
<rect x="59.6" y="30.0" width="21.1" height="26.7" rx="2.9" fill="hsl(322, 74%, 44%)" fill-opacity="0.70"   transform="translate(97.3 85.7) rotate(142.5) scale(1.13 1.25)" />
<path d="M 80.9 50.1 C 100.0 49.4, 42.0 0.0, 53.6 4.2 C 43.9 13.8, 39.1 52.5, 51.9 60.0 C 54.5 75.2, 51.1 83.9, 47.1 81.1 C 59.4 68.8, 0.0 80.0, 2.0 89.8 C 10.4 99.4, 40.6 72.2, 28.1 71.5 C 14.4 62.6, 10.0 46.6, 21.6 47.4 C 6.7 58.3, 24.0 90.6, 20.3 96.7 C 8.0 100.0, 91.7 61.1, 94.1 48.5 C 100.0 33.3, 27.4 2.1, 15.9 12.7 Z" fill="none" fill-opacity="0.53" stroke="hsl(242, 72%, 49%)" stroke-width="2.31"  transform="translate(81.6 87.9) rotate(169.1) scale(1.04 1.73)" />
<circle cx="68.8" cy="23.1" r="3.6" fill="hsl(40, 53%, 69%)" fill-opacity="0.45"  transform="translate(38.5 45.5) rotate(216.2) scale(1.22 1.26)" />
<path d="M 49.0 9.3 C 67.8 0.0, 89.4 76.3, 84.6 82.8 C 72.4 66.5, 9.4 18.1, 2.6 28.9 C 18.4 35.2, 27.6 60.7, 22.9 46.0 C 15.1 46.9, 37.7 25.2, 45.1 21.9 C 49.6 39.6, 82.6 60.7, 87.3 55.6 C 100.0 39.9, 87.0 57.3, 84.7 56.2 C 67.3 67.0, 42.5 37.2, 34.8 38.2 C 40.3 21.4, 55.9 1.8, 45.4 16.4 C 35.9 35.2, 0.0 80.8, 3.1 88.8 C 0.0 100.0, 49.1 34.6, 42.3 47.8 Z" fill="hsl(151, 70%, 62%)" fill-opacity="0.59" stroke="none" stroke-width="3.37"  transform="translate(76.8 6.5) rotate(30.0) scale(1.49 0.53)" />
<circle cx="57.3" cy="21.2" r="16.3" fill="url(#g0)" fill-opacity="0.45" filter="url(#f1)" transform="translate(98.0 88.3) rotate(163.9) scale(0.60 1.42)" />
<path d="M 27.9 59.6 C 17.6 72.6, 70.9 57.5, 70.0 47.2 C 75.6 60.8, 9.2 1.8, 19.1 2.7 C 28.8 0.0, 41.6 73.2, 46.0 60.6 C 41.1 59.6, 60.0 87.6, 66.8 94.4 C 77.7 92.5, 25.9 23.8, 21.8 22.3 C 25.5 11.3, 34.7 47.1, 28.4 37.0 C 33.3 24.7, 100.0 8.7, 99.8 8.5 " fill="none" fill-opacity="0.91" stroke="hsl(40, 53%, 69%)" stroke-width="1.45"  transform="translate(79.1 6.3) rotate(237.4) scale(1.57 0.75)" />
<rect x="62.2" y="20.3" width="34.1" height="33.6" rx="11.3" fill="none" fill-opacity="0.67"   transform="translate(67.5 83.1) rotate(139.2) scale(1.10 1.62)" />
<circle cx="38.4" cy="11.7" r="3.8" fill="hsl(242, 72%, 49%)" fill-opacity="0.70"  transform="translate(51.1 79.0) rotate(68.5) scale(1.76 1.57)" />
<path d="M 88.4 62.8 C 99.9 49.5, 3.9 51.7, 11.3 66.0 C 0.0 53.0, 77.8 41.2, 63.0 28.4 C 75.4 44.9, 11.5 74.7, 3.3 84.0 C 10.8 100.0, 25.3 70.8, 15.1 85.1 C 0.0 77.9, 79.6 72.5, 84.5 85.9 C 73.3 99.6, 32.4 20.8, 36.0 8.4 C 51.3 17.6, 18.3 0.0, 16.3 12.4 C 24.9 0.0, 85.4 32.3, 91.5 34.6 " fill="hsl(86, 72%, 68%)" fill-opacity="0.72" stroke="none" stroke-width="2.80"  transform="translate(85.7 77.8) rotate(81.3) scale(1.53 0.68)" />
<circle cx="65.2" cy="70.4" r="4.3" fill="url(#g0)" fill-opacity="0.85"   />
<circle cx="97.1" cy="76.6" r="4.3" fill="url(#g0)" fill-opacity="0.91"  transform="translate(43.9 80.3) rotate(56.1) scale(1.81 1.50)" />
<circle cx="28.4" cy="62.4" r="1.8" fill="url(#g0)" fill-opacity="0.50"  transform="translate(77.1 59.8) rotate(20.5) scale(1.56 1.80)" />
<path d="M 95.1 50.7 C 100.0 46.1, 60.9 55.0, 59.9 68.7 C 40.0 82.1, 100.0 45.1, 99.0 30.9 C 86.4 34.0, 99.7 68.4, 93.7 62.4 C 83.3 48.1, 93.8 19.9, 96.8 25.9 C 99.5 9.0, 100.0 3.5, 99.7 4.8 C 100.0 0.0, 89.5 0.0, 75.0 8.0 C 66.3 16.8, 100.0 34.9, 87.3 48.9 C 100.0 64.8, 55.1 40.0, 68.5 34.3 Z" fill="none" fill-opacity="0.79" stroke="hsl(104, 72%, 65%)" stroke-width="3.56"  transform="translate(70.8 57.4) rotate(200.5) scale(1.19 1.50)" />
<path d="M 55.5 85.8 C 41.0 89.7, 0.0 55.7, 7.5 45.3 C 25.8 37.0, 49.7 33.2, 38.4 24.2 C 44.4 41.6, 75.5 8.2, 65.7 0.6 C 72.5 18.2, 65.3 85.0, 58.9 73.3 C 68.3 77.9, 39.2 68.8, 28.4 56.5 C 28.8 74.3, 84.3 97.4, 98.4 87.1 C 81.1 88.2, 18.9 80.4, 8.6 67.5 C 28.5 51.6, 73.3 63.6, 86.3 68.9 C 99.1 62.9, 88.4 58.5, 87.8 66.8 C 84.7 47.6, 79.3 25.4, 73.0 25.3 Z" fill="none" fill-opacity="0.79" stroke="hsl(322, 74%, 44%)" stroke-width="3.04"  transform="translate(73.2 41.0) rotate(292.8) scale(1.98 1.07)" />
<path d="M 91.5 70.7 C 91.1 63.3, 63.6 89.9, 78.2 78.0 C 82.2 75.0, 63.6 39.9, 74.3 44.0 C 60.6 30.9, 29.7 43.8, 36.2 46.3 C 51.3 29.6, 91.4 96.0, 80.3 86.2 C 75.2 98.1, 49.0 72.1, 59.4 59.8 C 71.2 61.6, 78.4 62.0, 76.0 52.1 C 90.5 71.0, 85.9 93.8, 99.3 84.7 C 100.0 85.2, 28.2 39.2, 18.7 34.5 C 8.2 31.5, 69.0 45.5, 58.6 45.4 C 57.3 40.8, 55.2 52.6, 52.2 61.0 Z" fill="hsl(83, 65%, 44%)" fill-opacity="0.71" stroke="none" stroke-width="0.86"  transform="translate(3.9 11.5) rotate(328.0) scale(0.98 0.75)" />
<rect x="27.1" y="44.3" width="32.8" height="27.1" rx="2.9" fill="none" fill-opacity="0.38"   transform="translate(39.0 61.7) rotate(214.4) scale(0.78 1.16)" />
<rect x="48.7" y="18.4" width="30.1" height="26.5" rx="8.6" fill="hsl(40, 53%, 69%)" fill-opacity="0.75"   transform="translate(82.8 44.7) rotate(155.1) scale(0.61 1.51)" />
<rect x="12.8" y="30.8" width="46.8" height="34.6" rx="0" fill="hsl(151, 70%, 62%)" fill-opacity="0.51" stroke="hsl(40, 53%, 69%)" stroke-width="2.5"  transform="translate(85.8 29.0) rotate(132.5) scale(1.35 1.79)" />
<path d="M 23.6 77.8 C 31.7 93.3, 37.6 100.0, 39.6 95.6 C 44.5 82.8, 26.8 20.6, 24.8 7.7 C 35.4 0.0, 79.5 55.2, 91.0 70.0 C 90.6 74.0, 100.0 98.2, 96.6 92.2 C 100.0 100.0, 90.3 47.5, 81.6 58.9 C 87.0 68.0, 88.6 0.0, 81.2 7.5 C 62.4 14.4, 73.9 89.8, 69.0 75.4 C 75.8 79.8, 50.3 100.0, 42.3 87.1 Z" fill="hsl(144, 86%, 72%)" fill-opacity="0.71" stroke="none" stroke-width="0.92"   />
<circle cx="17.2" cy="42.9" r="5.7" fill="hsl(242, 72%, 49%)" fill-opacity="0.56" filter="url(#f1)" transform="translate(23.4 3.7) rotate(51.0) scale(0.78 1.76)" />
<path d="M 42.9 31.1 C 54.6 26.2, 42.9 63.3, 50.2 74.2 C 62.0 85.5, 0.0 53.1, 0.6 52.3 C 0.0 40.5, 30.9 58.5, 43.5 43.9 C 40.1 49.3, 25.9 75.9, 25.6 90.2 C 32.0 86.9, 24.3 52.7, 10.3 60.3 C 27.9 57.8, 56.9 55.8, 61.3 53.9 C 56.9 58.4, 15.4 64.3, 19.4 71.7 Z" fill="none" fill-opacity="0.60" stroke="hsl(2, 82%, 55%)" stroke-width="5.17"  transform="translate(22.7 90.8) rotate(302.5) scale(1.59 1.36)" />
<path d="M 34.4 16.6 C 16.7 24.8, 32.7 66.0, 35.8 63.8 C 36.1 54.5, 38.7 27.0, 48.8 39.3 C 55.6 53.4, 20.7 75.5, 7.0 70.5 C 23.5 55.7, 74.9 63.9, 89.6 63.0 C 70.1 64.4, 19.0 78.6, 25.3 90.4 C 43.7 86.0, 13.7 100.0, 6.7 96.5 " fill="none" fill-opacity="0.98" stroke="hsl(151, 70%, 62%)" stroke-width="3.32"  transform="translate(78.0 0.4) rotate(166.3) scale(0.60 0.97)" />
<path d="M 67.6 48.8 C 67.1 35.4, 35.7 79.2, 22.6 94.0 C 41.9 81.9, 11.9 53.5, 22.4 47.8 C 9.4 28.5, 47.1 53.9, 49.9 59.5 C 60.8 75.6, 100.0 46.3, 97.5 34.9 C 100.0 52.4, 84.0 10.6, 95.1 25.1 C 77.7 10.7, 8.7 11.0, 6.1 5.7 " fill="none" fill-opacity="0.80" stroke="hsl(151, 70%, 62%)" stroke-width="5.08"  transform="translate(74.3 86.1) rotate(88.0) scale(1.31 1.25)" />
<circle cx="89.0" cy="31.3" r="1.6" fill="url(#g0)" fill-opacity="0.62"  transform="translate(53.9 56.1) rotate(147.9) scale(1.46 1.25)" />
<g opacity="0.041">
<rect x="0" y="0" width="1" height="100" fill="black" />
<rect x="22" y="0" width="1" height="100" fill="black" />
<rect x="44" y="0" width="1" height="100" fill="black" />
<rect x="66" y="0" width="1" height="100" fill="black" />
<rect x="88" y="0" width="1" height="100" fill="black" />
<rect x="0" y="0" width="100" height="1" fill="black" />
<rect x="0" y="22" width="100" height="1" fill="black" />
<rect x="0" y="44" width="100" height="1" fill="black" />
<rect x="0" y="66" width="100" height="1" fill="black" />
<rect x="0" y="88" width="100" height="1" fill="black" />
</g>

</svg>
