<?xml version="1.0" encoding="UTF-8"?>
<svg xmlns="http://www.w3.org/2000/svg" width="100" height="100" viewBox="0 0 100 100">
<defs>
<linearGradient id="g0" x1="0%" y1="0%" x2="100%" y2="100%">
<stop offset="0.0%" stop-color="hsl(106, 75%, 59%)" />
<stop offset="33.3%" stop-color="hsl(183, 71%, 60%)" />
<stop offset="66.7%" stop-color="hsl(242, 72%, 49%)" />
<stop offset="100.0%" stop-color="hsl(322, 74%, 44%)" />
</linearGradient>
<linearGradient id="g1" x1="0%" y1="0%" x2="100%" y2="100%">
<stop offset="0.0%" stop-color="hsl(290, 83%, 63%)" />
<stop offset="33.3%" stop-color="hsl(2, 82%, 55%)" />
<stop offset="66.7%" stop-color="hsl(86, 72%, 68%)" />
<stop offset="100.0%" stop-color="hsl(83, 65%, 44%)" />
</linearGradient>
<linearGradient id="g2" x1="0%" y1="0%" x2="100%" y2="100%">
<stop offset="0.0%" stop-color="hsl(40, 53%, 69%)" />
<stop offset="33.3%" stop-color="hsl(104, 72%, 65%)" />
<stop offset="66.7%" stop-color="hsl(144, 86%, 72%)" />
<stop offset="100.0%" stop-color="hsl(151, 70%, 62%)" />
</linearGradient>
</defs>

<path d="M 70.0 86.6 C 67.4 88.5, 12.6 100.0, 26.0 96.6 C 21.2 100.0, 30.6 9.4, 36.6 6.1 C 41.5 7.5, 26.2 100.0, 16.8 94.1 " fill="hsl(144, 86%, 72%)" fill-opacity="0.40" stroke="none" stroke-width="1.02"  transform="translate(86.3 39.7) rotate(136.5) scale(1.30 0.99)" />
<circle cx="81.4" cy="0.9" r="0.9" fill="hsl(322, 74%, 44%)" fill-opacity="0.73"   />
<path d="M 48.0 64.7 C 61.2 76.1, 62.8 67.3, 51.6 63.2 C 46.8 63.6, 30.1 30.2, 32.1 21.8 C 12.2 36.9, 62.7 42.0, 74.9 45.8 C 86.6 45.1, 67.5 39.6, 71.2 34.7 C 63.0 34.8, 67.7 100.0, 55.9 97.9 C 37.2 94.4, 75.8 20.2, 70.2 16.5 Z" fill="none" fill-opacity="0.88" stroke="hsl(290, 83%, 63%)" stroke-width="1.30"   />
<rect x="2.3" y="55.2" width="23.4" height="25.9" rx="0" fill="hsl(106, 75%, 59%)" fill-opacity="0.62"   transform="translate(4.7 64.5) rotate(295.2) scale(1.25 1.72)" />
<path d="M 14.8 67.6 C 15.7 80.8, 53.3 78.0, 60.9 70.8 C 41.7 59.7, 8.3 65.5, 10.7 55.6 C 0.0 53.7, 95.0 66.7, 86.5 78.2 C 93.4 67.1, 55.2 0.0, 46.4 1.5 Z" fill="none" fill-opacity="0.73" stroke="hsl(83, 65%, 44%)" stroke-width="0.80"   />
<rect x="44.1" y="16.9" width="39.5" height="25.6" rx="0" fill="hsl(104, 72%, 65%)" fill-opacity="0.32"   transform="translate(98.1 50.3) rotate(223.8) scale(1.10 1.22)" />
<path d="M 3.0 28.3 C 0.0 35.5, 18.1 21.0, 29.7 10.0 C 32.9 1.2, 42.6 81.6, 32.7 74.9 C 51.0 86.3, 51.5 100.0, 50.0 97.6 C 54.0 85.2, 48.2 61.8, 36.2 69.0 C 39.4 88.5, 16.0 99.9, 20.0 90.5 C 22.5 92.4, 67.4 38.0, 77.2 49.3 " fill="hsl(144, 86%, 72%)" fill-opacity="0.85" stroke="none" stroke-width="1.08"  transform="translate(20.7 68.8) rotate(327.6) scale(1.53 1.56)" />
<circle cx="5.2" cy="21.3" r="0.1" fill="hsl(40, 53%, 69%)" fill-opacity="0.43"   />
<path d="M 69.6 51.9 C 77.3 43.9, 92.9 28.1, 93.3 37.3 C 89.2 54.3, 0.0 29.1, 6.8 19.4 C 11.4 12.6, 66.1 25.2, 79.3 27.1 C 74.2 15.8, 100.0 6.4, 94.7 16.3 C 95.7 7.8, 15.1 32.5, 11.8 27.4 C 10.6 34.7, 77.0 33.6, 85.0 43.8 C 77.9 42.3, 100.0 19.3, 99.0 16.4 " fill="hsl(83, 65%, 44%)" fill-opacity="0.48" stroke="none" stroke-width="0.84"   />
<rect x="27.5" y="43.3" width="28.8" height="38.6" rx="0" fill="hsl(2, 82%, 55%)" fill-opacity="0.26" stroke="hsl(2, 82%, 55%)" stroke-width="3.4"  transform="translate(13.3 52.5) rotate(357.1) scale(0.75 0.83)" />
</svg>
