<?xml version="1.0" encoding="UTF-8"?>
<svg xmlns="http://www.w3.org/2000/svg" width="100" height="100" viewBox="0 0 100 100">
<defs>
<linearGradient id="g0" x1="0%" y1="0%" x2="100%" y2="100%">
<stop offset="0.0%" stop-color="hsl(106, 75%, 59%)" />
<stop offset="33.3%" stop-color="hsl(183, 71%, 60%)" />
<stop offset="66.7%" stop-color="hsl(242, 72%, 49%)" />
<stop offset="100.0%" stop-color="hsl(322, 74%, 44%)" />
</linearGradient>
<linearGradient id="g1" x1="0%" y1="0%" x2="100%" y2="100%">
<stop offset="0.0%" stop-color="hsl(290, 83%, 63%)" />
<stop offset="33.3%" stop-color="hsl(2, 82%, 55%)" />
<stop offset="66.7%" stop-color="hsl(86, 72%, 68%)" />
<stop offset="100.0%" stop-color="hsl(83, 65%, 44%)" />
</linearGradient>
<linearGradient id="g2" x1="0%" y1="0%" x2="100%" y2="100%">
<stop offset="0.0%" stop-color="hsl(40, 53%, 69%)" />
<stop offset="33.3%" stop-color="hsl(104, 72%, 65%)" />
<stop offset="66.7%" stop-color="hsl(144, 86%, 72%)" />
<stop offset="100.0%" stop-color="hsl(151, 70%, 62%)" />
</linearGradient>
</defs>

<rect x="61.9" y="53.4" width="21.8" height="30.3" rx="0" fill="none" fill-opacity="0.45"    />
<circle cx="71.2" cy="8.8" r="0.6" fill="hsl(242, 72%, 49%)" fill-opacity="0.44"  transform="translate(13.0 88.8) rotate(291.0) scale(0.84 0.79)" />
<path d="M 71.1 84.4 C 61.2 79.7, 76.1 16.0, 90.8 1.8 C 75.6 8.3, 92.0 59.4, 99.6 68.1 C 82.1 70.1, 9.8 83.3, 3.2 77.6 Z" fill="hsl(322, 74%, 44%)" fill-opacity="0.87" stroke="none" stroke-width="0.98"  transform="translate(88.2 68.0) rotate(140.8) scale(0.54 0.71)" />
<circle cx="53.2" cy="48.3" r="1.0" fill="hsl(242, 72%, 49%)" fill-opacity="0.41"  transform="translate(31.6 20.0) rotate(274.1) scale(1.44 0.89)" />
<path d="M 99.3 71.4 C 81.4 89.4, 63.6 86.8, 59.3 98.4 C 57.7 100.0, 24.9 25.8, 30.0 19.5 C 20.5 13.0, 0.0 80.5, 1.4 89.7 Z" fill="hsl(83, 65%, 44%)" fill-opacity="0.27" stroke="none" stroke-width="1.21"  transform="translate(55.4 43.0) rotate(206.7) scale(1.59 1.37)" />
<circle cx="54.5" cy="100.0" r="0.0" fill="hsl(104, 72%, 65%)" fill-opacity="0.87"   />
<path d="M 9.9 34.8 C 20.1 53.9, 29.4 22.8, 43.5 21.6 C 33.9 40.0, 69.9 69.6, 63.6 83.8 C 69.8 100.0, 35.4 19.7, 21.0 15.8 " fill="none" fill-opacity="0.83" stroke="hsl(83, 65%, 44%)" stroke-width="1.00"   />
<circle cx="20.7" cy="73.0" r="2.0" fill="hsl(40, 53%, 69%)" fill-opacity="0.54"   />
<circle cx="33.0" cy="20.7" r="0.3" fill="hsl(2, 82%, 55%)" fill-opacity="0.71"   />
<circle cx="51.7" cy="13.5" r="1.5" fill="hsl(242, 72%, 49%)" fill-opacity="0.58"   />
<circle cx="54.8" cy="63.0" r="1.4" fill="hsl(83, 65%, 44%)" fill-opacity="0.65"   />
<path d="M 42.5 98.2 C 46.8 78.5, 82.7 21.6, 72.2 18.0 C 53.5 19.1, 6.3 100.0, 1.5 96.2 C 19.7 83.1, 81.9 22.6, 90.1 13.4 C 100.0 11.4, 95.0 22.0, 97.2 30.0 C 78.2 46.3, 83.4 65.5, 97.3 62.1 C 81.7 60.2, 60.4 16.1, 57.5 12.7 C 75.9 17.6, 35.8 47.9, 29.7 38.7 " fill="hsl(83, 65%, 44%)" fill-opacity="0.73" stroke="none" stroke-width="1.09"  transform="translate(74.4 38.7) rotate(338.4) scale(1.11 0.51)" />
<rect x="40.4" y="8.3" width="27.2" height="12.9" rx="0" fill="none" fill-opacity="0.30" stroke="hsl(2, 82%, 55%)" stroke-width="2.7"  transform="translate(30.1 53.9) rotate(65.7) scale(1.27 1.11)" />
<circle cx="99.1" cy="39.4" r="0.0" fill="hsl(2, 82%, 55%)" fill-opacity="0.89"   />
</svg>
