<?xml version="1.0" encoding="UTF-8"?>
<svg xmlns="http://www.w3.org/2000/svg" width="100" height="100" viewBox="0 0 100 100">
<defs>
<linearGradient id="g0" x1="0%" y1="0%" x2="100%" y2="100%">
<stop offset="0.0%" stop-color="hsl(106, 75%, 59%)" />
<stop offset="33.3%" stop-color="hsl(183, 71%, 60%)" />
<stop offset="66.7%" stop-color="hsl(242, 72%, 49%)" />
<stop offset="100.0%" stop-color="hsl(322, 74%, 44%)" />
</linearGradient>
<linearGradient id="g1" x1="0%" y1="0%" x2="100%" y2="100%">
<stop offset="0.0%" stop-color="hsl(290, 83%, 63%)" />
<stop offset="33.3%" stop-color="hsl(2, 82%, 55%)" />
<stop offset="66.7%" stop-color="hsl(86, 72%, 68%)" />
<stop offset="100.0%" stop-color="hsl(83, 65%, 44%)" />
</linearGradient>
<linearGradient id="g2" x1="0%" y1="0%" x2="100%" y2="100%">
<stop offset="0.0%" stop-color="hsl(40, 53%, 69%)" />
<stop offset="33.3%" stop-color="hsl(104, 72%, 65%)" />
<stop offset="66.7%" stop-color="hsl(144, 86%, 72%)" />
<stop offset="100.0%" stop-color="hsl(151, 70%, 62%)" />
</linearGradient>
<filter id="f1" x="-20%" y="-20%" width="140%" height="140%">
  <feGaussianBlur stdDeviation="1.4172391543771463" />
</filter>

</defs>

<path d="M 8.0 76.6 C 24.6 81.2, 0.2 16.7, 8.6 24.5 C 0.0 22.3, 14.8 49.8, 16.7 55.3 C 0.3 61.3, 57.8 99.9, 68.0 96.2 C 68.8 76.7, 7.5 34.8, 22.0 32.0 C 11.3 17.2, 61.6 13.6, 73.0 13.8 C 70.6 6.8, 43.2 76.8, 55.8 83.9 C 42.1 86.1, 51.0 23.0, 60.9 30.4 Z" fill="hsl(104, 72%, 65%)" fill-opacity="0.40" stroke="none" stroke-width="2.93"  transform="translate(81.8 50.7) rotate(340.7) scale(0.76 1.03)" />
<rect x="50.6" y="51.2" width="24.3" height="30.8" rx="0" fill="none" fill-opacity="0.55" stroke="hsl(322, 74%, 44%)" stroke-width="2.9"  transform="translate(81.1 66.9) rotate(234.9) scale(1.63 1.90)" />
<path d="M 27.7 4.2 C 14.1 5.2, 96.4 85.6, 98.6 83.9 C 91.6 97.7, 0.0 46.8, 1.8 49.1 C 12.3 68.5, 56.4 1.4, 67.0 14.4 C 81.9 0.0, 14.8 76.6, 22.7 86.4 C 23.2 83.5, 94.1 41.2, 97.7 55.3 C 100.0 40.6, 100.0 54.4, 93.9 50.7 C 100.0 50.8, 100.0 25.3, 96.9 31.0 C 100.0 37.1, 4.3 18.6, 7.5 8.1 Z" fill="none" fill-opacity="0.61" stroke="hsl(83, 65%, 44%)" stroke-width="4.22"  transform="translate(1.8 29.8) rotate(51.7) scale(1.83 0.73)" />
<path d="M 34.3 49.7 C 22.8 30.5, 0.3 72.3, 12.6 58.5 C 10.6 74.6, 67.6 12.3, 57.3 20.3 C 69.2 13.3, 85.0 26.9, 77.0 35.0 C 59.2 45.5, 76.2 93.7, 84.1 92.9 C 100.0 96.9, 10.7 67.1, 24.9 71.0 C 20.3 65.8, 41.6 36.5, 38.2 48.8 C 33.1 34.3, 68.7 43.4, 79.2 40.3 C 70.8 40.8, 79.3 83.0, 88.1 82.4 C 90.2 62.7, 81.9 69.3, 77.9 74.4 C 82.5 79.0, 87.4 38.7, 96.5 52.6 Z" fill="hsl(2, 82%, 55%)" fill-opacity="0.94" stroke="none" stroke-width="1.78"  transform="translate(7.2 9.0) rotate(202.6) scale(1.54 0.78)" />
<rect x="57.7" y="23.4" width="31.2" height="19.6" rx="15.9" fill="hsl(144, 86%, 72%)" fill-opacity="0.99"   transform="translate(18.0 24.4) rotate(338.4) scale(1.25 1.60)" />
<path d="M 68.7 40.6 C 62.8 60.3, 0.0 32.0, 1.1 24.0 C 0.0 25.4, 0.0 32.2, 10.7 41.9 C 16.7 35.6, 34.6 57.0, 48.4 57.6 C 29.2 43.1, 72.6 0.0, 66.6 1.8 C 78.5 8.7, 38.9 68.2, 45.7 75.1 C 28.0 77.5, 42.2 100.0, 38.7 94.2 C 46.7 78.7, 71.9 42.2, 67.2 33.3 C 53.9 46.0, 31.3 14.4, 24.4 1.8 C 23.5 0.0, 63.6 59.0, 69.7 69.3 C 62.2 54.8, 62.2 43.3, 61.6 44.6 Z" fill="hsl(86, 72%, 68%)" fill-opacity="0.60" stroke="none" stroke-width="2.34"  transform="translate(33.0 59.3) rotate(143.9) scale(1.53 0.59)" />
<rect x="18.8" y="59.5" width="43.2" height="11.6" rx="1.1" fill="hsl(106, 75%, 59%)" fill-opacity="0.25"   transform="translate(45.3 65.7) rotate(12.4) scale(1.29 0.56)" />
<path d="M 66.3 90.8 C 71.0 100.0, 24.3 53.6, 15.3 43.0 C 22.3 53.4, 96.9 65.7, 99.7 77.7 C 91.1 91.2, 78.9 6.2, 92.4 10.6 C 78.0 23.9, 83.9 79.9, 71.5 88.7 C 90.9 94.9, 79.0 44.1, 74.0 57.8 C 89.0 42.7, 60.1 41.5, 74.5 47.2 Z" fill="none" fill-opacity="0.48" stroke="hsl(83, 65%, 44%)" stroke-width="2.77"  transform="translate(40.6 54.2) rotate(278.2) scale(1.19 1.39)" />
<path d="M 44.3 45.8 C 59.7 61.7, 87.1 80.2, 76.8 71.8 C 68.6 53.1, 29.3 84.6, 19.8 99.6 C 7.8 97.0, 31.0 70.3, 39.2 68.4 C 23.3 71.4, 71.3 28.8, 58.0 18.9 C 56.8 22.9, 62.4 65.1, 54.6 67.1 C 69.2 52.7, 11.0 85.8, 4.0 91.7 Z" fill="hsl(144, 86%, 72%)" fill-opacity="0.63" stroke="none" stroke-width="1.06"  transform="translate(30.0 19.9) rotate(315.1) scale(1.28 1.41)" />
<rect x="38.7" y="45.5" width="39.6" height="19.2" rx="14.3" fill="hsl(183, 71%, 60%)" fill-opacity="0.85"   transform="translate(96.8 77.8) rotate(103.4) scale(1.95 1.07)" />
<path d="M 71.8 38.2 C 57.1 57.6, 64.7 68.4, 62.2 56.3 C 52.5 40.1, 88.7 83.6, 88.7 79.2 C 100.0 85.4, 59.6 82.9, 45.7 86.9 C 38.9 69.9, 7.8 54.3, 10.3 51.7 C 0.0 53.0, 100.0 0.0, 92.0 5.7 C 100.0 0.3, 99.0 39.9, 87.5 44.3 " fill="hsl(86, 72%, 68%)" fill-opacity="0.66" stroke="none" stroke-width="2.66"  transform="translate(27.9 86.0) rotate(155.5) scale(0.57 1.90)" />
<path d="M 25.3 88.3 C 31.8 94.2, 0.0 65.9, 2.6 65.0 C 3.4 62.6, 43.4 0.0, 34.6 4.8 C 54.1 0.0, 37.5 68.1, 42.3 68.4 C 56.3 68.4, 70.6 10.9, 62.8 23.5 C 43.0 29.9, 87.8 19.2, 83.5 12.8 C 74.6 9.6, 33.0 26.4, 36.5 21.2 C 18.8 13.2, 59.9 41.2, 51.6 48.1 C 41.7 54.7, 79.9 32.7, 77.6 46.4 C 91.8 58.2, 58.8 80.4, 45.4 88.8 C 59.9 100.0, 27.1 69.9, 18.6 67.4 Z" fill="hsl(106, 75%, 59%)" fill-opacity="0.77" stroke="none" stroke-width="2.87"  transform="translate(71.3 62.4) rotate(330.8) scale(1.59 0.51)" />
<path d="M 60.7 67.1 C 72.0 82.2, 78.3 27.7, 80.6 26.0 C 73.3 21.6, 58.7 96.8, 50.8 90.4 C 52.8 89.7, 53.6 56.8, 55.1 58.2 C 74.4 52.7, 78.2 81.8, 82.8 82.6 C 83.7 71.1, 42.8 41.3, 34.3 36.6 C 37.0 30.9, 52.2 93.3, 46.3 96.4 C 40.7 84.0, 13.3 21.1, 8.2 13.8 Z" fill="none" fill-opacity="0.36" stroke="hsl(322, 74%, 44%)" stroke-width="3.67"  transform="translate(95.6 45.4) rotate(0.4) scale(1.87 0.77)" />
<path d="M 16.7 77.0 C 11.6 79.3, 72.8 57.6, 85.3 43.6 C 71.7 41.7, 47.0 40.5, 47.1 51.8 C 30.7 53.3, 69.0 96.7, 69.9 95.3 C 58.1 89.5, 76.1 54.0, 63.5 51.5 C 73.0 56.2, 7.7 23.5, 3.8 18.9 C 0.0 29.7, 54.7 80.0, 61.4 75.6 C 58.9 62.6, 43.5 98.6, 38.2 95.2 Z" fill="hsl(144, 86%, 72%)" fill-opacity="0.79" stroke="none" stroke-width="1.22" filter="url(#f1)" transform="translate(26.4 63.4) rotate(46.4) scale(1.21 1.38)" />
<circle cx="80.0" cy="39.0" r="8.4" fill="url(#g0)" fill-opacity="0.95"   />
<path d="M 36.9 84.9 C 52.9 74.7, 18.5 10.3, 11.6 16.8 C 8.9 0.0, 94.0 60.9, 99.1 49.9 C 100.0 66.4, 36.6 38.4, 35.4 36.8 C 51.7 54.7, 18.5 42.7, 7.3 31.6 C 0.0 23.4, 1.3 27.9, 13.1 16.1 C 24.6 20.4, 61.2 35.2, 59.5 34.7 C 73.7 28.9, 88.2 62.5, 80.8 62.9 C 91.8 56.2, 63.4 66.9, 67.8 71.6 C 82.9 63.3, 81.3 46.9, 88.1 51.2 Z" fill="hsl(40, 53%, 69%)" fill-opacity="0.35" stroke="none" stroke-width="5.03"   />
<rect x="8.4" y="58.0" width="42.8" height="28.4" rx="3.0" fill="hsl(242, 72%, 49%)" fill-opacity="0.75"    />
<path d="M 98.8 83.0 C 90.5 68.0, 26.3 45.8, 28.2 57.7 C 32.1 73.9, 86.1 55.4, 75.9 55.4 C 87.3 74.3, 98.5 29.8, 99.7 16.9 C 100.0 31.9, 93.4 17.9, 83.4 7.1 C 93.8 0.0, 74.5 83.0, 60.1 93.3 C 42.4 100.0, 7.5 32.7, 11.4 41.4 C 0.0 26.6, 56.0 51.8, 65.2 62.7 Z" fill="hsl(242, 72%, 49%)" fill-opacity="0.92" stroke="none" stroke-width="4.16"  transform="translate(80.3 17.8) rotate(208.3) scale(1.76 1.17)" />
<path d="M 67.2 46.9 C 49.4 30.2, 100.0 15.2, 99.0 2.6 C 99.5 10.8, 98.6 18.4, 84.7 15.4 C 85.3 13.3, 44.4 30.1, 42.8 33.3 C 60.5 45.7, 9.6 89.6, 9.5 90.7 C 7.0 73.7, 4.5 49.4, 17.6 52.1 C 32.9 51.9, 99.6 88.9, 86.7 83.9 Z" fill="hsl(40, 53%, 69%)" fill-opacity="0.56" stroke="none" stroke-width="0.97"  transform="translate(17.4 50.2) rotate(186.9) scale(0.77 1.33)" />
<path d="M 49.1 10.3 C 32.7 15.2, 58.0 100.0, 62.8 98.8 C 54.6 100.0, 54.2 0.8, 51.8 4.2 C 61.5 0.0, 22.1 20.9, 30.6 32.8 C 12.4 25.0, 60.3 45.3, 71.0 58.7 C 65.4 53.3, 71.9 52.8, 67.0 59.9 C 58.1 66.4, 27.5 33.5, 36.6 25.4 C 40.4 12.3, 95.6 41.1, 91.3 27.4 C 99.7 18.0, 5.4 72.9, 11.0 58.4 Z" fill="none" fill-opacity="0.98" stroke="hsl(104, 72%, 65%)" stroke-width="5.29"  transform="translate(88.6 50.9) rotate(262.6) scale(1.27 1.07)" />
<path d="M 27.6 47.4 C 42.7 27.9, 82.9 8.0, 97.4 1.2 C 84.4 1.5, 49.7 45.9, 35.9 49.0 C 54.2 53.6, 39.1 43.8, 42.3 57.9 C 47.1 54.5, 18.2 84.1, 11.5 88.9 C 0.0 100.0, 35.6 64.1, 38.7 56.1 C 23.2 45.7, 100.0 37.2, 99.7 23.9 C 100.0 33.1, 73.5 0.0, 86.0 10.5 C 71.3 14.4, 47.6 38.3, 38.7 31.3 C 47.3 31.5, 6.0 44.5, 11.5 50.9 Z" fill="hsl(2, 82%, 55%)" fill-opacity="0.94" stroke="none" stroke-width="2.90" filter="url(#f1)" transform="translate(8.8 15.7) rotate(278.4) scale(1.36 1.76)" />
<circle cx="1.1" cy="29.3" r="7.5" fill="hsl(322, 74%, 44%)" fill-opacity="0.45" filter="url(#f1)"  />
<circle cx="91.4" cy="80.9" r="7.4" fill="url(#g1)" fill-opacity="0.41"  transform="translate(37.2 36.3) rotate(263.3) scale(1.30 0.67)" />
<rect x="41.4" y="1.1" width="28.1" height="38.8" rx="14.3" fill="none" fill-opacity="0.96"    />
<rect x="26.7" y="39.0" width="36.0" height="24.9" rx="0" fill="hsl(86, 72%, 68%)" fill-opacity="0.21"   transform="translate(63.5 24.4) rotate(65.3) scale(0.97 1.65)" />
<circle cx="12.0" cy="46.3" r="9.6" fill="url(#g1)" fill-opacity="0.89"  transform="translate(97.5 25.8) rotate(165.3) scale(0.86 1.77)" />
<circle cx="68.1" cy="55.1" r="3.8" fill="url(#g1)" fill-opacity="0.73"  transform="translate(69.6 5.3) rotate(143.7) scale(1.35 1.45)" />
<rect x="73.0" y="36.8" width="22.1" height="17.8" rx="5.3" fill="hsl(322, 74%, 44%)" fill-opacity="0.64" stroke="hsl(106, 75%, 59%)" stroke-width="3.5"  transform="translate(98.4 60.0) rotate(151.7) scale(0.86 0.75)" />
<path d="M 2.4 97.3 C 14.4 100.0, 70.3 6.3, 73.7 1.1 C 78.7 6.1, 32.9 7.4, 36.9 13.1 C 53.8 16.3, 47.6 14.9, 53.9 7.8 C 44.3 20.5, 45.6 59.1, 53.1 45.2 C 61.2 28.4, 65.3 40.2, 62.1 51.1 C 79.3 70.5, 67.0 58.2, 59.6 58.7 C 75.4 72.6, 86.7 15.2, 89.9 5.6 C 79.6 0.0, 91.3 84.0, 76.9 87.9 " fill="hsl(104, 72%, 65%)" fill-opacity="0.89" stroke="none" stroke-width="3.04"  transform="translate(88.7 89.7) rotate(177.3) scale(1.94 0.92)" />
<path d="M 76.7 74.6 C 87.7 78.1, 30.2 59.0, 39.5 70.1 C 44.5 81.3, 80.9 46.7, 84.2 55.4 C 65.9 61.2, 65.6 87.0, 77.3 79.3 C 69.0 67.1, 0.0 72.6, 3.2 74.7 C 12.1 71.9, 81.3 57.6, 90.7 43.5 C 97.8 38.4, 16.8 10.7, 5.1 9.3 Z" fill="hsl(290, 83%, 63%)" fill-opacity="0.60" stroke="none" stroke-width="1.78" filter="url(#f1)" transform="translate(64.3 98.0) rotate(182.7) scale(0.74 0.97)" />
<path d="M 26.2 3.4 C 40.0 0.0, 28.8 53.2, 41.0 44.8 C 32.6 40.6, 35.0 63.2, 48.6 68.9 C 33.4 63.6, 93.9 78.7, 83.9 83.8 C 76.2 94.5, 42.2 25.9, 49.1 11.2 C 63.3 17.8, 3.4 18.5, 8.2 32.4 C 20.4 48.7, 15.1 0.0, 27.7 4.2 Z" fill="hsl(86, 72%, 68%)" fill-opacity="0.42" stroke="none" stroke-width="4.22"  transform="translate(58.8 21.5) rotate(117.2) scale(1.04 0.63)" />
<circle cx="49.6" cy="33.9" r="8.4" fill="url(#g0)" fill-opacity="0.60"  transform="translate(98.5 23.4) rotate(14.7) scale(0.87 0.98)" />
<circle cx="45.8" cy="65.7" r="12.1" fill="url(#g0)" fill-opacity="0.88"  transform="translate(72.0 31.0) rotate(23.7) scale(0.89 1.15)" />
<rect x="16.0" y="27.3" width="46.1" height="18.6" rx="1.8" fill="hsl(83, 65%, 44%)" fill-opacity="0.32"   transform="translate(19.0 22.2) rotate(93.4) scale(1.50 0.57)" />
<path d="M 62.4 68.6 C 54.5 65.4, 70.9 39.0, 64.8 39.3 C 80.9 38.7, 34.9 99.5, 30.0 93.8 C 13.2 77.4, 52.7 47.4, 64.6 40.3 C 81.7 27.7, 55.5 60.2, 68.0 49.8 C 49.6 40.3, 80.2 30.4, 71.6 38.7 C 74.7 18.9, 51.4 33.3, 55.0 18.8 Z" fill="hsl(40, 53%, 69%)" fill-opacity="0.55" stroke="none" stroke-width="0.82"  transform="translate(75.1 76.4) rotate(114.2) scale(1.61 1.18)" />
<path d="M 71.6 0.3 C 75.4 0.2, 0.1 62.3, 13.4 74.0 C 33.3 70.1, 35.6 47.5, 20.8 59.7 C 32.2 73.2, 65.7 48.4, 59.3 46.0 C 68.4 34.5, 75.4 32.6, 82.0 31.9 C 100.0 22.2, 38.8 42.4, 35.3 52.1 C 27.1 33.2, 22.5 46.9, 34.9 44.5 C 46.6 39.6, 82.9 41.3, 96.1 52.7 C 100.0 70.4, 49.0 76.3, 57.4 65.2 C 68.0 50.9, 54.1 26.9, 62.6 31.3 C 50.8 28.9, 65.5 80.5, 62.6 72.6 Z" fill="hsl(242, 72%, 49%)" fill-opacity="0.43" stroke="none" stroke-width="3.27"  transform="translate(60.3 27.7) rotate(290.3) scale(1.74 1.45)" />
<path d="M 24.6 45.2 C 18.2 57.8, 14.0 45.2, 21.8 32.6 C 22.9 23.3, 67.6 75.9, 67.0 82.9 C 80.2 72.4, 8.5 39.5, 18.0 44.7 C 1.6 42.7, 65.7 72.9, 52.9 63.0 C 56.2 67.7, 0.1 64.5, 12.2 62.2 C 0.0 58.8, 48.2 45.2, 62.1 33.8 C 81.0 26.9, 83.9 71.0, 87.5 68.1 C 97.8 78.3, 72.5 6.8, 69.9 11.2 Z" fill="none" fill-opacity="0.70" stroke="hsl(322, 74%, 44%)" stroke-width="3.24" filter="url(#f1)"  />
<circle cx="89.4" cy="42.4" r="5.9" fill="url(#g0)" fill-opacity="0.90" filter="url(#f1)" transform="translate(86.4 52.9) rotate(200.3) scale(0.97 0.69)" />
<rect x="46.7" y="5.1" width="40.7" height="26.7" rx="0" fill="none" fill-opacity="0.70"    />
<rect x="69.0" y="55.9" width="28.0" height="20.1" rx="10.9" fill="none" fill-opacity="0.60"   transform="translate(31.3 49.7) rotate(324.7) scale(1.76 0.83)" />
<rect x="37.2" y="9.3" width="20.7" height="24.2" rx="0" fill="hsl(2, 82%, 55%)" fill-opacity="0.75" stroke="hsl(83, 65%, 44%)" stroke-width="4.9"  transform="translate(5.5 43.3) rotate(201.2) scale(1.90 0.78)" />
<path d="M 86.6 95.4 C 100.0 96.5, 94.6 31.4, 96.9 21.5 C 92.5 25.4, 53.3 10.1, 62.4 17.0 C 74.3 34.1, 17.6 63.1, 7.5 52.9 C 13.9 44.3, 39.5 77.9, 34.0 63.4 C 39.7 57.1, 22.7 54.0, 26.8 60.0 C 16.8 67.0, 55.7 0.0, 60.5 3.8 C 70.8 3.7, 82.6 88.6, 93.8 76.5 C 100.0 68.8, 70.1 0.0, 60.5 12.6 Z" fill="hsl(242, 72%, 49%)" fill-opacity="0.99" stroke="none" stroke-width="4.46"  transform="translate(89.4 71.7) rotate(91.8) scale(1.27 1.05)" />
<path d="M 88.0 37.4 C 94.5 45.5, 26.7 17.6, 30.7 19.0 C 22.0 28.3, 95.2 0.3, 87.8 6.1 C 68.5 22.4, 0.0 61.7, 12.3 49.1 C 0.0 41.0, 98.8 22.1, 94.9 24.7 C 91.1 16.7, 52.1 17.8, 44.0 2.8 C 53.8 0.0, 15.2 2.3, 13.1 14.5 Z" fill="hsl(106, 75%, 59%)" fill-opacity="0.43" stroke="none" stroke-width="2.59"  transform="translate(37.7 17.7) rotate(79.4) scale(0.82 0.71)" />
<circle cx="7.1" cy="72.0" r="13.5" fill="hsl(322, 74%, 44%)" fill-opacity="0.41"  transform="translate(50.0 5.2) rotate(284.4) scale(0.71 1.61)" />
<path d="M 91.1 10.0 C 91.0 11.6, 15.5 60.3, 26.3 54.8 C 15.4 35.5, 30.4 84.1, 15.8 92.0 C 23.8 79.3, 35.1 19.1, 35.9 10.1 C 38.3 16.3, 69.1 65.3, 83.9 80.1 C 99.2 66.2, 100.0 100.0, 94.8 93.8 C 100.0 89.9, 73.8 67.9, 81.9 78.3 Z" fill="none" fill-opacity="0.54" stroke="hsl(144, 86%, 72%)" stroke-width="2.85"  transform="translate(96.9 63.3) rotate(77.8) scale(1.56 0.52)" />
<path d="M 92.2 78.0 C 100.0 78.9, 52.0 27.5, 47.1 27.6 C 60.4 30.9, 75.0 42.6, 84.2 30.8 C 72.7 13.4, 5.4 61.7, 15.1 57.8 C 29.0 73.7, 13.3 22.5, 0.7 17.0 C 0.0 8.8, 41.5 52.2, 27.1 41.5 C 24.6 25.5, 19.6 54.2, 24.0 49.6 C 31.8 43.3, 73.0 38.1, 68.8 33.4 Z" fill="none" fill-opacity="0.74" stroke="hsl(104, 72%, 65%)" stroke-width="1.72"  transform="translate(5.5 95.0) rotate(81.6) scale(1.59 1.39)" />
<path d="M 16.7 61.2 C 0.0 79.9, 84.3 28.9, 81.2 34.0 C 67.2 30.3, 100.0 13.8, 92.4 8.6 C 89.4 18.4, 73.8 37.3, 73.2 40.3 C 62.6 22.5, 0.0 51.0, 3.7 43.6 C 0.0 48.8, 20.7 32.4, 20.5 43.4 C 10.5 30.4, 67.9 42.4, 77.2 55.3 C 76.4 40.5, 14.3 62.2, 17.0 49.0 C 8.3 37.4, 41.8 26.9, 33.8 39.9 C 49.1 34.4, 39.7 35.9, 35.1 40.1 Z" fill="none" fill-opacity="0.71" stroke="hsl(183, 71%, 60%)" stroke-width="5.06"  transform="translate(11.4 30.2) rotate(261.0) scale(1.43 1.16)" />
<circle cx="71.5" cy="86.5" r="4.3" fill="url(#g1)" fill-opacity="0.74"  transform="translate(3.5 51.6) rotate(191.0) scale(1.86 1.05)" />
<path d="M 52.1 37.6 C 34.5 36.6, 25.7 51.3, 36.3 40.9 C 23.9 23.2, 61.7 42.4, 66.5 30.3 C 69.4 26.3, 80.6 34.5, 66.7 35.1 C 67.3 54.4, 41.4 6.3, 33.5 20.3 C 52.2 2.6, 13.1 8.9, 16.7 13.3 C 1.5 29.7, 77.4 27.5, 88.5 31.8 C 89.3 29.1, 15.1 3.0, 11.2 15.9 C 0.0 29.8, 48.3 100.0, 37.5 93.6 Z" fill="hsl(322, 74%, 44%)" fill-opacity="0.46" stroke="none" stroke-width="2.62"  transform="translate(6.2 21.0) rotate(114.2) scale(1.92 1.79)" />
<path d="M 41.0 43.3 C 27.5 37.5, 30.0 100.0, 30.4 88.0 C 44.4 70.4, 65.8 72.7, 79.0 63.8 C 65.2 47.0, 49.2 8.6, 51.7 12.2 C 40.2 0.0, 99.8 41.3, 98.8 28.5 C 87.8 8.7, 39.8 13.5, 54.2 21.3 C 51.5 19.1, 72.2 24.0, 81.9 25.4 Z" fill="none" fill-opacity="0.34" stroke="hsl(242, 72%, 49%)" stroke-width="4.56"   />
<path d="M 93.9 25.8 C 100.0 44.8, 56.3 14.9, 47.1 27.0 C 44.7 33.1, 76.2 73.8, 74.6 88.7 C 67.8 92.6, 100.0 75.3, 94.0 82.8 C 84.6 97.1, 78.4 1.7, 89.2 12.2 C 100.0 20.0, 31.4 69.3, 35.0 69.5 C 46.8 82.8, 84.9 20.4, 93.8 9.8 " fill="hsl(144, 86%, 72%)" fill-opacity="0.33" stroke="none" stroke-width="1.21"   />
<circle cx="91.9" cy="47.1" r="1.0" fill="url(#g0)" fill-opacity="0.51"   />
<rect x="10.8" y="6.3" width="44.4" height="36.0" rx="2.1" fill="none" fill-opacity="0.28"   transform="translate(55.5 11.9) rotate(197.0) scale(0.71 1.34)" />
<circle cx="10.7" cy="65.5" r="7.9" fill="hsl(151, 70%, 62%)" fill-opacity="0.83" filter="url(#f1)" transform="translate(15.6 53.8) rotate(26.3) scale(1.49 1.91)" />
<circle cx="39.8" cy="29.0" r="11.5" fill="hsl(183, 71%, 60%)" fill-opacity="0.94"  transform="translate(50.4 94.5) rotate(242.3) scale(0.83 1.01)" />
<rect x="6.3" y="47.2" width="42.9" height="32.4" rx="0" fill="none" fill-opacity="0.26"    />
<rect x="27.8" y="51.6" width="49.1" height="28.0" rx="1.2" fill="hsl(40, 53%, 69%)" fill-opacity="0.24"   transform="translate(31.5 34.0) rotate(63.6) scale(1.70 0.86)" />
<path d="M 43.3 57.8 C 47.7 62.2, 32.5 71.8, 46.9 77.9 C 31.1 61.6, 100.0 21.7, 96.4 23.6 C 88.1 40.7, 30.2 18.6, 41.3 32.0 C 42.6 19.2, 74.1 80.0, 64.2 85.2 C 63.1 100.0, 45.3 36.1, 58.5 50.6 C 40.2 60.6, 100.0 74.6, 96.7 64.2 C 100.0 50.4, 14.1 93.6, 9.6 80.8 C 0.0 63.5, 69.4 70.8, 78.9 82.8 C 89.3 72.1, 82.9 94.5, 74.7 92.2 Z" fill="hsl(83, 65%, 44%)" fill-opacity="0.69" stroke="none" stroke-width="2.25"   />
<path d="M 44.3 72.1 C 58.6 58.0, 80.0 25.7, 91.8 36.9 C 100.0 45.6, 24.3 63.6, 30.7 52.9 C 43.0 62.6, 10.3 6.4, 3.9 17.3 C 0.0 12.5, 15.8 50.3, 3.8 54.9 C 0.0 37.7, 39.3 62.8, 32.3 60.6 C 18.4 48.9, 61.2 44.0, 58.5 54.9 C 50.7 35.2, 37.4 16.4, 23.5 3.4 C 35.6 21.9, 88.6 99.8, 90.6 99.8 Z" fill="hsl(151, 70%, 62%)" fill-opacity="0.40" stroke="none" stroke-width="3.33"  transform="translate(43.1 76.3) rotate(163.3) scale(1.02 1.27)" />
<rect x="65.6" y="15.6" width="33.8" height="23.6" rx="0" fill="hsl(2, 82%, 55%)" fill-opacity="0.69"   transform="translate(79.2 48.8) rotate(347.0) scale(1.55 0.77)" />
<circle cx="30.8" cy="99.3" r="12.2" fill="url(#g1)" fill-opacity="0.84"   />
<rect x="32.1" y="40.9" width="42.2" height="21.7" rx="17.9" fill="none" fill-opacity="0.89"   transform="translate(99.1 98.2) rotate(110.7) scale(1.64 0.76)" />
<rect x="59.9" y="60.3" width="22.8" height="31.3" rx="7.2" fill="none" fill-opacity="0.62" stroke="hsl(242, 72%, 49%)" stroke-width="2.8"  transform="translate(34.4 98.2) rotate(350.8) scale(1.51 1.50)" />
<rect x="65.7" y="53.8" width="22.6" height="28.0" rx="0" fill="hsl(290, 83%, 63%)" fill-opacity="0.38"   transform="translate(47.2 24.3) rotate(35.4) scale(1.77 0.73)" />
<path d="M 39.9 1.1 C 43.2 0.5, 60.4 24.6, 55.8 22.1 C 59.1 31.6, 49.1 61.1, 39.7 75.5 C 32.2 70.9, 51.8 5.6, 66.2 20.6 C 63.8 8.4, 53.0 53.7, 62.6 55.6 C 48.4 49.0, 15.8 97.5, 8.4 90.3 C 14.9 78.9, 0.0 100.0, 6.2 87.2 C 9.6 100.0, 73.5 42.5, 76.8 38.6 C 61.7 52.0, 27.2 34.1, 29.9 43.2 C 36.3 50.4, 16.9 31.8, 4.5 26.3 " fill="none" fill-opacity="0.39" stroke="hsl(151, 70%, 62%)" stroke-width="3.50"  transform="translate(17.7 83.2) rotate(203.0) scale(1.50 1.43)" />
<path d="M 56.3 18.2 C 39.1 19.5, 2.4 74.0, 4.1 74.0 C 12.7 71.8, 91.4 64.5, 88.2 78.9 C 83.9 91.2, 32.4 31.2, 33.6 38.4 C 37.3 57.7, 53.1 60.9, 48.2 74.9 C 33.7 84.4, 6.5 64.4, 15.7 52.7 C 0.0 43.0, 70.4 29.6, 65.0 18.4 Z" fill="none" fill-opacity="0.58" stroke="hsl(2, 82%, 55%)" stroke-width="5.08"  transform="translate(39.7 87.8) rotate(262.5) scale(1.16 1.24)" />
<circle cx="90.5" cy="98.6" r="9.2" fill="hsl(183, 71%, 60%)" fill-opacity="0.72"  transform="translate(31.1 76.7) rotate(217.7) scale(1.85 1.28)" />
<path d="M 23.6 83.6 C 33.7 77.7, 67.1 34.3, 71.7 31.3 C 77.7 41.0, 69.9 99.1, 65.7 84.9 C 77.4 100.0, 47.6 90.3, 46.9 89.4 C 59.5 76.3, 75.3 83.9, 86.9 76.4 C 84.8 93.4, 83.1 9.3, 87.5 19.4 C 98.7 12.8, 99.5 25.0, 96.6 17.6 C 77.3 21.3, 55.9 84.8, 41.2 75.9 C 43.8 72.3, 36.6 86.5, 37.1 93.0 C 20.4 92.2, 17.4 100.0, 13.4 91.6 C 28.7 82.8, 67.2 9.6, 52.8 7.4 Z" fill="hsl(242, 72%, 49%)" fill-opacity="0.69" stroke="none" stroke-width="5.20"  transform="translate(24.9 70.7) rotate(134.0) scale(0.95 1.39)" />
<path d="M 61.2 75.6 C 68.6 56.4, 20.3 80.3, 7.3 69.6 C 10.5 65.4, 33.6 54.8, 20.1 56.9 C 1.6 63.4, 55.9 88.5, 53.4 85.5 C 69.9 88.8, 23.9 92.5, 34.0 80.6 C 50.0 77.2, 100.0 52.7, 93.1 40.9 C 83.0 22.2, 77.0 80.6, 66.3 84.4 Z" fill="hsl(104, 72%, 65%)" fill-opacity="0.33" stroke="none" stroke-width="2.45"  transform="translate(54.0 98.6) rotate(238.9) scale(1.37 1.38)" />
<path d="M 10.4 8.0 C 29.8 19.5, 60.3 89.3, 63.2 81.5 C 78.1 72.3, 41.4 28.1, 48.3 31.9 C 33.1 28.6, 50.0 15.5, 47.9 21.1 C 32.6 38.4, 62.9 5.9, 69.9 15.4 C 64.6 21.6, 76.9 34.3, 88.4 44.9 C 91.7 51.0, 46.2 0.0, 53.8 0.6 C 67.5 0.0, 13.5 42.2, 25.1 47.6 Z" fill="hsl(104, 72%, 65%)" fill-opacity="0.83" stroke="none" stroke-width="3.43"  transform="translate(65.6 49.0) rotate(231.1) scale(1.91 1.28)" />
<rect x="40.3" y="4.8" width="34.7" height="39.9" rx="0" fill="none" fill-opacity="0.48" stroke="hsl(290, 83%, 63%)" stroke-width="3.8"  transform="translate(99.5 87.9) rotate(211.5) scale(1.27 0.86)" />
<rect x="31.9" y="13.8" width="25.1" height="14.5" rx="0" fill="hsl(242, 72%, 49%)" fill-opacity="0.31" stroke="hsl(322, 74%, 44%)" stroke-width="1.9"  transform="translate(85.7 40.4) rotate(326.6) scale(1.12 1.67)" />
<path d="M 87.7 79.2 C 95.4 85.2, 100.0 56.9, 88.6 56.4 C 77.8 57.0, 73.9 33.9, 77.9 21.1 C 75.7 33.0, 80.9 90.0, 73.6 91.2 C 73.3 92.2, 100.0 87.2, 99.1 81.3 C 100.0 70.1, 46.9 8.4, 56.3 22.2 C 65.4 18.9, 15.4 97.7, 24.4 83.4 C 33.3 98.4, 18.7 11.9, 28.2 19.8 C 25.2 22.6, 10.1 15.7, 2.2 17.8 Z" fill="none" fill-opacity="0.33" stroke="hsl(83, 65%, 44%)" stroke-width="4.81"   />
<path d="M 24.6 8.8 C 12.1 21.8, 0.0 6.5, 3.0 10.6 C 11.8 9.2, 84.0 1.2, 75.2 2.3 C 69.5 0.0, 20.9 5.9, 21.9 1.2 C 8.5 20.9, 13.6 13.8, 22.9 15.1 C 21.4 11.5, 66.9 73.3, 52.0 80.7 C 71.5 72.9, 60.0 45.6, 74.9 59.1 " fill="hsl(242, 72%, 49%)" fill-opacity="0.92" stroke="none" stroke-width="2.36" filter="url(#f1)" transform="translate(79.6 94.0) rotate(140.4) scale(0.74 0.93)" />
<circle cx="25.3" cy="18.4" r="19.2" fill="url(#g0)" fill-opacity="0.75"  transform="translate(58.7 41.4) rotate(335.6) scale(0.99 1.75)" />
<circle cx="2.2" cy="39.7" r="1.8" fill="hsl(40, 53%, 69%)" fill-opacity="0.81" filter="url(#f1)" transform="translate(57.8 90.3) rotate(13.8) scale(1.32 0.83)" />
<rect x="32.3" y="25.7" width="44.2" height="28.4" rx="0" fill="hsl(2, 82%, 55%)" fill-opacity="0.32"    />
<path d="M 83.4 71.0 C 66.5 71.7, 40.9 33.6, 48.1 24.4 C 59.5 11.0, 100.0 73.5, 99.9 67.9 C 86.8 50.4, 42.0 48.1, 45.7 46.1 C 33.1 31.7, 96.0 31.5, 97.9 42.3 C 83.7 32.3, 29.8 63.9, 27.5 54.2 C 19.6 56.6, 69.8 64.4, 77.1 59.9 C 67.6 73.3, 76.3 79.5, 75.3 75.5 C 72.8 66.7, 82.7 13.8, 95.4 28.7 C 79.9 11.8, 43.2 40.3, 34.2 54.4 Z" fill="none" fill-opacity="0.73" stroke="hsl(106, 75%, 59%)" stroke-width="2.36"  transform="translate(10.7 70.7) rotate(78.5) scale(1.45 1.53)" />
<rect x="33.4" y="8.3" width="29.3" height="30.0" rx="0" fill="none" fill-opacity="0.74"    />
<circle cx="14.9" cy="50.5" r="1.8" fill="hsl(322, 74%, 44%)" fill-opacity="0.46"  transform="translate(54.3 67.2) rotate(60.0) scale(1.65 1.03)" />
<path d="M 59.1 24.4 C 76.5 6.3, 79.2 30.3, 92.2 24.3 C 85.2 6.2, 10.0 36.9, 9.9 35.8 C 9.5 53.6, 56.6 40.6, 67.7 53.2 C 50.0 65.8, 42.4 25.2, 31.1 32.8 C 31.1 32.9, 17.2 73.5, 20.5 67.8 C 13.0 78.1, 39.6 57.9, 51.0 56.2 C 41.7 36.4, 38.6 19.1, 42.1 6.1 C 41.0 10.0, 93.1 11.7, 86.6 16.0 Z" fill="none" fill-opacity="0.89" stroke="hsl(40, 53%, 69%)" stroke-width="2.05"  transform="translate(76.6 72.1) rotate(231.0) scale(1.56 0.81)" />
<rect x="36.9" y="68.4" width="21.0" height="19.1" rx="0" fill="none" fill-opacity="0.48" stroke="hsl(290, 83%, 63%)" stroke-width="3.7"  transform="translate(49.4 83.2) rotate(117.4) scale(1.36 0.89)" />
<path d="M 99.1 11.2 C 100.0 3.1, 60.1 81.7, 45.1 80.7 C 38.9 94.0, 51.1 16.3, 60.3 5.6 C 47.7 18.1, 14.5 16.7, 5.4 5.2 C 25.0 0.0, 68.6 89.0, 72.5 84.4 C 58.9 75.7, 35.4 90.3, 27.9 78.5 C 29.7 73.8, 0.0 0.0, 2.1 6.4 C 0.0 0.0, 25.6 46.1, 17.5 43.9 C 22.8 55.1, 13.4 30.2, 24.5 33.3 Z" fill="none" fill-opacity="0.36" stroke="hsl(106, 75%, 59%)" stroke-width="1.62"  transform="translate(4.1 74.1) rotate(124.5) scale(0.57 1.87)" />
<path d="M 86.1 47.6 C 79.8 50.3, 40.7 5.8, 49.7 4.0 C 43.1 0.0, 33.3 92.7, 34.4 95.5 C 38.2 90.7, 87.9 32.1, 80.7 46.0 C 63.7 49.0, 32.6 0.0, 25.3 1.1 C 17.5 19.3, 67.8 71.5, 71.5 65.0 C 83.2 51.3, 100.0 100.0, 99.5 97.8 C 100.0 100.0, 0.0 15.0, 1.6 2.7 C 4.3 0.0, 81.2 3.0, 74.4 11.4 C 73.7 0.0, 70.6 38.8, 57.4 49.0 C 40.1 40.7, 87.2 32.5, 76.7 25.3 Z" fill="hsl(40, 53%, 69%)" fill-opacity="0.79" stroke="none" stroke-width="3.49"  transform="translate(60.5 19.2) rotate(5.1) scale(1.97 0.67)" />
<path d="M 25.5 74.4 C 32.0 78.3, 58.2 27.8, 70.9 39.6 C 57.0 35.7, 71.8 63.7, 75.6 68.2 C 68.1 55.0, 44.9 0.0, 49.5 5.0 C 61.1 0.0, 42.6 19.1, 52.9 14.0 C 46.2 0.0, 83.0 11.5, 91.0 3.4 C 92.0 0.0, 81.7 90.4, 86.8 79.1 Z" fill="hsl(86, 72%, 68%)" fill-opacity="0.37" stroke="none" stroke-width="2.15"  transform="translate(81.2 26.3) rotate(37.2) scale(1.77 0.59)" />
<path d="M 0.9 42.6 C 0.0 46.9, 89.5 68.2, 85.5 55.5 C 67.3 36.9, 65.2 51.7, 67.1 58.4 C 57.6 50.0, 48.8 19.0, 51.9 4.3 C 49.5 0.1, 21.5 77.7, 22.4 78.3 C 3.1 73.8, 68.4 50.2, 74.1 43.5 C 79.6 37.0, 80.1 83.9, 81.9 93.4 C 62.3 100.0, 71.1 77.5, 79.6 75.4 C 62.5 78.5, 60.0 0.0, 45.7 5.9 Z" fill="none" fill-opacity="0.38" stroke="hsl(290, 83%, 63%)" stroke-width="4.12"  transform="translate(53.8 60.9) rotate(168.4) scale(1.97 1.81)" />
<circle cx="72.3" cy="25.7" r="8.6" fill="hsl(83, 65%, 44%)" fill-opacity="0.72"  transform="translate(96.1 48.8) rotate(322.5) scale(1.46 0.79)" />
<path d="M 83.9 56.0 C 98.2 39.7, 58.1 48.1, 65.4 57.0 C 83.7 42.9, 74.8 62.3, 66.6 55.7 C 58.4 42.0, 56.7 46.1, 55.0 50.3 C 54.3 63.7, 13.7 76.4, 21.0 72.6 C 3.7 83.1, 48.0 68.4, 55.4 66.9 C 60.4 86.7, 79.9 70.0, 82.8 82.2 C 79.0 71.9, 12.9 5.5, 9.5 4.1 C 20.0 1.5, 73.2 70.3, 80.1 56.4 Z" fill="hsl(144, 86%, 72%)" fill-opacity="0.99" stroke="none" stroke-width="4.37"  transform="translate(26.4 47.5) rotate(229.2) scale(0.72 1.20)" />
<path d="M 7.8 69.7 C 0.0 66.6, 65.8 7.3, 74.9 2.3 C 85.5 0.0, 76.9 13.6, 70.8 28.2 C 51.9 10.6, 0.0 63.7, 5.0 53.4 C 2.4 45.5, 54.2 59.5, 41.9 57.6 C 33.4 73.1, 90.3 81.5, 90.4 67.6 C 100.0 67.6, 35.1 91.0, 35.6 88.0 " fill="hsl(104, 72%, 65%)" fill-opacity="0.59" stroke="none" stroke-width="3.18"  transform="translate(24.4 39.8) rotate(138.8) scale(0.73 0.82)" />
<path d="M 80.2 31.5 C 79.7 21.4, 67.3 73.3, 66.2 65.1 C 53.3 55.7, 43.0 0.2, 36.8 12.5 C 53.8 20.3, 86.0 43.1, 84.7 31.0 C 80.5 28.4, 94.2 17.8, 82.7 18.9 C 99.6 18.7, 29.5 0.0, 40.4 0.6 C 40.0 0.0, 31.0 100.0, 26.7 97.4 C 7.0 79.9, 66.3 0.0, 72.6 6.5 " fill="none" fill-opacity="0.94" stroke="hsl(290, 83%, 63%)" stroke-width="1.10"  transform="translate(33.5 69.1) rotate(171.7) scale(0.53 1.00)" />
<path d="M 81.6 32.7 C 87.6 41.5, 20.7 15.5, 23.0 5.2 C 8.6 16.2, 27.4 19.6, 18.4 33.4 C 7.3 53.3, 94.4 0.0, 85.5 1.3 C 89.7 7.0, 81.7 37.1, 76.5 47.6 C 65.9 42.9, 91.7 100.0, 98.9 99.6 C 100.0 85.3, 57.0 25.2, 43.8 15.7 C 29.4 2.1, 15.6 20.4, 3.1 11.2 C 10.4 12.0, 30.7 8.2, 33.2 13.7 C 29.8 10.4, 49.4 77.8, 35.7 80.6 C 55.6 75.3, 23.2 78.2, 30.3 74.4 Z" fill="hsl(40, 53%, 69%)" fill-opacity="0.32" stroke="none" stroke-width="4.01"  transform="translate(39.3 67.0) rotate(351.1) scale(0.50 1.40)" />
<rect x="31.5" y="39.4" width="49.2" height="20.3" rx="0" fill="hsl(40, 53%, 69%)" fill-opacity="0.74" stroke="hsl(40, 53%, 69%)" stroke-width="1.3"  transform="translate(69.7 32.4) rotate(264.2) scale(1.73 1.36)" />
<path d="M 80.5 84.1 C 72.7 77.7, 8.0 100.0, 9.7 92.9 C 6.1 74.0, 25.5 79.9, 14.8 72.5 C 31.2 53.0, 44.6 3.0, 58.1 5.1 C 62.6 6.4, 21.5 70.6, 32.9 85.2 C 43.7 100.0, 94.2 60.9, 100.0 59.4 C 100.0 47.8, 26.5 54.1, 12.8 65.8 C 9.9 67.1, 47.4 12.9, 44.7 9.1 C 39.5 0.0, 100.0 93.4, 99.9 89.0 C 100.0 86.6, 44.9 55.3, 56.6 63.0 C 44.8 64.8, 100.0 84.5, 94.4 86.6 " fill="hsl(104, 72%, 65%)" fill-opacity="0.80" stroke="none" stroke-width="1.74"  transform="translate(24.0 42.4) rotate(333.4) scale(1.55 0.51)" />
<path d="M 38.3 34.1 C 54.8 48.1, 59.8 23.0, 71.4 36.0 C 52.1 41.2, 71.3 14.3, 80.4 14.8 C 79.1 4.9, 56.0 7.7, 63.6 4.8 C 45.9 24.4, 75.3 48.3, 83.9 60.8 C 94.2 58.6, 80.3 46.0, 73.3 44.1 C 53.9 38.8, 34.3 0.0, 26.7 7.9 C 16.6 16.2, 54.2 34.5, 46.9 34.2 C 58.2 36.6, 84.9 35.5, 83.6 41.3 C 77.5 53.9, 84.4 81.4, 97.0 89.0 Z" fill="hsl(151, 70%, 62%)" fill-opacity="0.35" stroke="none" stroke-width="5.18"  transform="translate(27.8 14.2) rotate(293.4) scale(1.63 1.02)" />
<path d="M 94.1 52.4 C 80.0 38.0, 47.7 9.0, 39.6 23.6 C 36.8 14.3, 5.6 19.4, 19.2 17.7 C 2.4 0.0, 53.2 33.6, 51.7 27.9 C 44.6 23.3, 87.8 96.8, 97.0 86.1 C 98.3 78.1, 85.6 80.0, 85.8 90.1 C 85.0 100.0, 45.8 54.8, 58.9 43.0 C 63.2 48.1, 37.5 25.0, 28.0 37.1 C 13.8 31.2, 53.7 73.7, 51.9 85.2 Z" fill="none" fill-opacity="0.55" stroke="hsl(183, 71%, 60%)" stroke-width="3.78"  transform="translate(58.0 42.5) rotate(3.1) scale(1.95 1.49)" />
<rect x="40.8" y="28.6" width="25.3" height="32.5" rx="0" fill="none" fill-opacity="0.31"   transform="translate(51.3 13.2) rotate(187.1) scale(1.15 1.30)" />
<path d="M 46.0 55.4 C 44.0 38.5, 45.6 58.7, 53.2 48.4 C 38.4 35.8, 6.9 46.2, 16.9 38.3 C 34.0 30.4, 3.7 61.7, 3.2 65.3 C 0.0 54.0, 33.7 79.4, 33.1 66.2 C 24.4 69.8, 95.1 80.5, 95.9 66.1 C 89.9 80.3, 85.3 10.7, 73.5 19.6 C 83.5 18.2, 40.5 89.1, 52.4 98.2 C 69.5 93.7, 19.4 50.1, 27.1 35.2 Z" fill="hsl(242, 72%, 49%)" fill-opacity="0.57" stroke="none" stroke-width="4.01"  transform="translate(55.8 15.2) rotate(43.8) scale(1.15 1.41)" />
<rect x="36.1" y="67.7" width="37.5" height="16.8" rx="0" fill="hsl(151, 70%, 62%)" fill-opacity="0.70"   transform="translate(29.0 17.0) rotate(289.1) scale(0.57 0.76)" />
<path d="M 65.9 53.3 C 77.5 49.7, 55.8 69.6, 54.6 65.8 C 73.3 51.8, 0.0 46.5, 0.5 32.4 C 11.3 28.5, 47.3 4.7, 49.5 6.3 C 51.9 1.7, 68.9 0.0, 55.3 0.9 C 48.5 10.1, 51.8 3.3, 46.6 3.3 C 35.2 0.0, 6.3 52.3, 18.4 60.2 C 2.8 76.3, 65.6 43.5, 78.8 37.2 Z" fill="none" fill-opacity="0.88" stroke="hsl(183, 71%, 60%)" stroke-width="1.20"  transform="translate(35.7 11.0) rotate(353.7) scale(1.30 1.90)" />
<rect x="42.7" y="51.6" width="33.7" height="34.5" rx="0" fill="none" fill-opacity="0.58"   transform="translate(89.6 25.0) rotate(167.4) scale(1.60 1.87)" />
<path d="M 81.8 11.4 C 94.1 15.8, 4.0 73.0, 16.7 82.1 C 8.4 92.8, 38.4 25.6, 27.1 24.3 C 24.0 7.2, 92.3 8.5, 89.0 0.4 C 71.5 0.0, 13.4 75.1, 8.2 69.0 C 25.2 88.4, 74.5 51.8, 80.4 54.3 C 87.6 56.4, 95.9 45.0, 91.7 55.4 Z" fill="hsl(183, 71%, 60%)" fill-opacity="0.62" stroke="none" stroke-width="0.84"  transform="translate(89.0 70.8) rotate(335.9) scale(1.27 1.79)" />
<path d="M 99.8 83.3 C 100.0 80.5, 82.9 57.2, 78.9 44.3 C 95.3 58.2, 88.4 71.8, 82.8 57.2 C 74.6 60.7, 39.0 45.9, 26.8 50.6 C 40.5 68.6, 72.6 27.7, 81.5 24.3 C 85.7 30.3, 18.6 0.0, 5.2 10.2 C 4.8 0.6, 57.0 12.4, 43.0 8.3 Z" fill="none" fill-opacity="0.79" stroke="hsl(106, 75%, 59%)" stroke-width="2.26"  transform="translate(86.3 14.7) rotate(21.0) scale(1.01 0.95)" />
<path d="M 79.1 91.6 C 88.6 87.7, 40.2 78.2, 25.3 76.2 C 14.3 92.1, 100.0 43.2, 95.6 39.8 C 88.4 24.3, 54.7 41.0, 62.1 48.4 C 55.7 50.7, 74.8 100.0, 82.0 98.0 C 98.0 85.9, 16.9 69.7, 6.5 56.4 C 14.9 50.9, 74.9 14.7, 62.2 6.7 C 54.2 14.5, 87.1 36.9, 77.5 41.1 C 68.9 43.5, 41.7 52.1, 49.8 45.0 C 36.5 33.8, 0.0 79.8, 5.0 68.1 C 5.4 53.0, 39.6 71.1, 40.2 59.7 Z" fill="hsl(40, 53%, 69%)" fill-opacity="0.51" stroke="none" stroke-width="2.45"  transform="translate(4.9 72.7) rotate(99.5) scale(1.92 1.37)" />
<circle cx="71.2" cy="82.8" r="3.0" fill="hsl(183, 71%, 60%)" fill-opacity="0.44"  transform="translate(57.3 50.8) rotate(348.7) scale(1.92 0.96)" />
<path d="M 80.8 36.6 C 86.3 43.3, 51.6 100.0, 46.8 97.8 C 39.5 100.0, 69.7 69.3, 84.5 60.4 C 100.0 67.6, 88.9 73.0, 98.2 78.7 C 100.0 98.1, 7.1 16.0, 15.8 29.6 C 13.3 11.2, 59.0 69.3, 63.8 63.1 C 48.4 55.3, 37.9 66.4, 37.8 55.5 C 44.7 40.0, 64.4 60.2, 57.2 64.7 Z" fill="hsl(290, 83%, 63%)" fill-opacity="0.81" stroke="none" stroke-width="0.98" filter="url(#f1)" transform="translate(89.7 73.0) rotate(351.6) scale(1.43 0.89)" />
<path d="M 48.1 76.2 C 58.2 80.7, 49.2 100.0, 53.2 92.3 C 51.4 100.0, 35.6 52.6, 38.0 63.2 C 27.3 69.9, 31.1 83.3, 39.9 68.6 C 37.9 62.1, 0.0 7.8, 12.6 8.3 C 25.7 27.8, 31.2 97.2, 36.2 86.9 C 49.3 78.2, 94.9 18.6, 96.2 4.8 Z" fill="hsl(290, 83%, 63%)" fill-opacity="0.32" stroke="none" stroke-width="3.63"  transform="translate(42.0 35.2) rotate(112.9) scale(1.88 1.95)" />
<rect x="42.6" y="33.5" width="41.8" height="18.9" rx="14.4" fill="none" fill-opacity="0.85" stroke="hsl(151, 70%, 62%)" stroke-width="3.6"  transform="translate(0.7 2.4) rotate(55.8) scale(1.10 1.37)" />
<path d="M 60.7 24.1 C 50.0 20.3, 49.1 11.4, 62.7 20.8 C 55.1 23.5, 44.4 35.0, 40.5 27.7 C 32.4 22.2, 87.9 16.7, 82.7 28.3 C 95.7 18.9, 26.8 100.0, 30.7 90.0 C 45.5 100.0, 80.6 64.1, 76.8 68.0 C 92.4 56.6, 51.1 14.0, 64.9 16.3 " fill="none" fill-opacity="0.29" stroke="hsl(183, 71%, 60%)" stroke-width="1.19"  transform="translate(11.1 11.5) rotate(91.1) scale(1.79 1.52)" />
<path d="M 59.6 14.7 C 49.0 28.5, 62.5 73.6, 56.6 83.8 C 51.4 86.2, 8.6 35.8, 17.6 34.8 C 0.0 34.8, 90.1 13.7, 90.2 12.8 C 76.9 20.9, 52.4 49.6, 66.0 39.3 C 51.4 44.5, 73.3 59.6, 67.3 69.5 C 80.6 65.6, 0.0 69.0, 12.0 65.4 C 12.3 65.1, 78.8 70.6, 78.4 61.3 C 91.1 56.7, 22.1 39.9, 18.3 46.6 C 36.4 45.6, 27.2 0.0, 16.0 2.4 Z" fill="hsl(144, 86%, 72%)" fill-opacity="0.26" stroke="none" stroke-width="3.68"  transform="translate(1.1 66.6) rotate(344.8) scale(1.70 1.58)" />
<path d="M 13.3 16.5 C 22.5 3.4, 0.0 55.4, 4.9 49.9 C 8.7 38.7, 62.0 13.5, 72.4 12.3 C 91.8 21.1, 61.3 18.8, 48.6 20.5 C 66.9 28.5, 59.0 12.1, 68.4 26.6 C 70.5 39.2, 23.3 62.4, 12.5 63.0 C 0.0 80.7, 29.0 68.2, 16.9 58.5 C 31.0 56.1, 84.6 55.4, 71.0 40.8 Z" fill="hsl(40, 53%, 69%)" fill-opacity="0.73" stroke="none" stroke-width="2.40"  transform="translate(46.9 2.0) rotate(58.9) scale(0.57 1.96)" />
<circle cx="60.2" cy="24.1" r="1.9" fill="hsl(242, 72%, 49%)" fill-opacity="0.77"  transform="translate(88.8 78.4) rotate(27.1) scale(1.92 1.05)" />
<rect x="54.6" y="31.9" width="23.9" height="23.9" rx="0" fill="hsl(290, 83%, 63%)" fill-opacity="0.54"   transform="translate(70.1 44.7) rotate(58.2) scale(1.56 1.61)" />
<path d="M 72.9 71.3 C 88.1 70.7, 58.4 57.1, 60.3 49.0 C 66.5 40.8, 31.6 30.2, 42.3 41.1 C 24.8 54.1, 73.0 64.5, 84.1 69.1 C 98.7 62.8, 83.7 44.3, 78.3 35.7 C 87.0 24.0, 57.8 62.4, 65.4 51.9 C 52.4 32.1, 77.6 95.7, 71.7 88.2 C 58.3 93.8, 57.5 51.8, 66.0 46.7 C 69.6 57.3, 0.9 0.2, 15.2 3.4 C 14.9 6.4, 19.4 38.4, 22.6 36.0 C 15.7 20.7, 80.2 95.9, 94.4 95.4 " fill="none" fill-opacity="0.70" stroke="hsl(83, 65%, 44%)" stroke-width="2.59"   />
<path d="M 24.1 17.8 C 5.4 35.1, 10.2 81.8, 9.3 78.1 C 0.0 63.5, 65.5 21.9, 55.9 18.8 C 63.0 26.9, 61.3 30.0, 63.7 31.2 C 73.3 23.9, 24.3 54.6, 11.2 66.9 C 0.4 84.1, 37.3 71.9, 25.6 85.6 C 10.7 80.8, 56.3 92.5, 57.0 86.0 Z" fill="none" fill-opacity="0.76" stroke="hsl(40, 53%, 69%)" stroke-width="1.63"  transform="translate(17.8 38.4) rotate(45.1) scale(0.56 1.64)" />
<rect x="27.7" y="15.0" width="41.6" height="32.5" rx="5.9" fill="hsl(242, 72%, 49%)" fill-opacity="0.82" stroke="hsl(183, 71%, 60%)" stroke-width="3.6"  transform="translate(15.6 80.0) rotate(142.5) scale(1.94 1.26)" />
<path d="M 16.4 43.1 C 17.4 57.3, 17.9 0.4, 21.4 6.8 C 14.9 0.0, 40.8 85.1, 53.8 87.2 C 56.5 100.0, 100.0 9.1, 94.1 19.4 C 74.6 28.8, 12.9 0.0, 19.0 7.5 C 25.1 0.0, 63.5 86.2, 70.5 74.3 C 79.3 91.2, 60.9 83.0, 66.9 84.5 Z" fill="none" fill-opacity="0.41" stroke="hsl(242, 72%, 49%)" stroke-width="2.81"  transform="translate(33.1 58.8) rotate(26.1) scale(0.63 1.91)" />
<rect x="48.4" y="5.4" width="28.6" height="23.7" rx="0" fill="none" fill-opacity="0.47"   transform="translate(76.2 40.1) rotate(296.4) scale(1.25 1.39)" />
<path d="M 92.5 6.6 C 76.3 11.2, 80.9 78.6, 68.0 88.7 C 65.3 100.0, 4.6 27.1, 4.2 34.5 C 0.0 28.5, 76.4 75.0, 85.7 86.0 C 95.8 94.0, 96.4 65.1, 90.8 61.3 C 92.2 67.8, 28.4 97.7, 27.9 86.9 C 27.0 84.5, 39.3 76.7, 49.9 62.3 C 65.0 44.9, 78.2 93.6, 68.7 87.2 Z" fill="hsl(242, 72%, 49%)" fill-opacity="0.60" stroke="none" stroke-width="4.60" filter="url(#f1)" transform="translate(12.9 96.5) rotate(159.5) scale(1.39 0.58)" />
<rect x="32.4" y="48.7" width="46.7" height="19.0" rx="0" fill="hsl(40, 53%, 69%)" fill-opacity="0.49"   transform="translate(31.1 64.3) rotate(214.4) scale(1.43 1.81)" />
<circle cx="61.8" cy="12.0" r="8.2" fill="url(#g1)" fill-opacity="0.90"  transform="translate(88.6 46.9) rotate(1.6) scale(1.91 1.63)" />
<path d="M 53.0 89.0 C 47.0 76.2, 70.3 17.6, 58.0 32.0 C 45.6 40.6, 49.4 100.0, 62.0 96.9 C 66.3 93.7, 92.9 66.4, 91.9 71.1 C 100.0 51.9, 100.0 62.7, 98.5 69.0 C 80.2 66.2, 3.9 80.2, 10.2 92.4 C 28.8 91.3, 36.4 36.1, 50.5 34.9 C 69.8 19.6, 79.0 59.8, 65.7 63.5 Z" fill="hsl(2, 82%, 55%)" fill-opacity="0.70" stroke="none" stroke-width="2.00"   />
<path d="M 20.0 2.4 C 10.5 0.0, 63.1 76.8, 71.1 77.4 C 73.9 67.3, 9.9 39.2, 20.5 49.9 C 21.8 32.4, 14.2 21.1, 10.2 10.6 C 23.8 29.3, 81.1 77.4, 69.2 91.9 C 62.1 92.2, 27.5 17.3, 25.3 24.7 C 12.7 14.4, 84.1 74.5, 84.7 65.5 C 93.6 55.7, 64.9 38.2, 79.4 38.3 C 64.5 19.4, 36.6 49.0, 26.2 35.8 C 30.1 31.6, 0.8 92.1, 2.4 87.3 Z" fill="hsl(322, 74%, 44%)" fill-opacity="0.30" stroke="none" stroke-width="4.47"  transform="translate(98.8 89.0) rotate(130.9) scale(1.71 1.98)" />
<circle cx="77.4" cy="56.4" r="15.3" fill="hsl(151, 70%, 62%)" fill-opacity="0.56"  transform="translate(20.3 43.5) rotate(290.1) scale(1.85 0.65)" />
<path d="M 31.0 66.4 C 25.2 72.4, 89.3 15.5, 94.6 28.7 C 93.5 11.8, 91.9 41.1, 99.3 32.6 C 86.2 42.4, 11.3 34.8, 17.7 20.8 C 9.1 22.7, 7.3 76.3, 11.2 74.8 C 17.6 64.5, 100.0 26.8, 98.7 34.3 C 88.0 21.1, 65.2 56.1, 61.9 62.9 C 72.8 69.2, 57.7 62.0, 67.0 66.4 Z" fill="hsl(290, 83%, 63%)" fill-opacity="0.67" stroke="none" stroke-width="1.74"   />
<path d="M 82.2 94.1 C 88.0 78.6, 79.1 96.4, 88.9 87.1 C 83.4 73.1, 49.5 86.7, 50.6 75.8 C 65.7 72.7, 44.9 25.8, 38.8 19.8 C 46.3 8.4, 57.7 44.7, 56.6 38.2 C 73.9 49.8, 55.8 12.0, 50.2 15.0 C 44.0 13.4, 45.8 52.8, 35.7 44.0 C 29.2 45.3, 50.9 38.5, 48.8 31.8 C 46.9 28.7, 33.4 29.4, 19.0 43.8 Z" fill="hsl(151, 70%, 62%)" fill-opacity="0.73" stroke="none" stroke-width="2.67"  transform="translate(62.5 83.4) rotate(349.7) scale(0.55 1.75)" />
<rect x="4.0" y="47.2" width="39.6" height="39.2" rx="12.4" fill="hsl(104, 72%, 65%)" fill-opacity="0.59" stroke="hsl(144, 86%, 72%)" stroke-width="4.4"  transform="translate(14.6 85.0) rotate(189.4) scale(1.42 1.85)" />
<path d="M 2.1 31.8 C 21.8 36.2, 33.7 75.4, 41.4 73.5 C 40.6 84.4, 78.6 32.9, 84.7 24.5 C 87.2 38.4, 24.2 42.7, 12.7 27.9 C 4.0 43.2, 83.2 25.5, 77.2 23.8 C 69.4 13.1, 0.0 83.8, 9.6 74.9 C 25.7 61.2, 32.6 35.8, 18.2 35.3 C 16.8 34.1, 38.1 0.1, 27.9 2.7 C 45.9 12.8, 70.6 63.2, 57.1 76.1 Z" fill="hsl(86, 72%, 68%)" fill-opacity="0.98" stroke="none" stroke-width="1.70"  transform="translate(98.7 63.0) rotate(265.5) scale(1.88 1.28)" />
<circle cx="5.1" cy="3.1" r="5.8" fill="url(#g2)" fill-opacity="0.42"  transform="translate(58.4 60.4) rotate(56.8) scale(0.61 1.25)" />
<path d="M 66.6 29.7 C 52.5 17.1, 36.2 27.3, 49.0 25.3 C 67.2 35.0, 20.1 45.7, 12.1 40.9 C 5.6 54.5, 33.8 91.4, 37.8 91.1 C 45.2 75.9, 55.1 6.5, 49.9 16.1 C 63.0 28.4, 16.5 52.5, 31.1 51.0 C 47.1 40.3, 20.9 87.8, 14.7 96.9 C 34.4 82.9, 13.9 80.3, 23.1 74.4 C 12.1 61.2, 38.8 100.0, 31.9 95.1 Z" fill="hsl(183, 71%, 60%)" fill-opacity="0.51" stroke="none" stroke-width="2.53"  transform="translate(30.6 10.5) rotate(347.0) scale(1.57 1.50)" />
<path d="M 33.5 83.9 C 14.2 72.1, 82.0 17.3, 89.5 25.2 C 87.1 44.8, 88.8 16.2, 74.5 16.6 C 91.8 23.0, 88.8 82.3, 81.3 92.2 C 97.2 89.5, 22.4 34.9, 21.8 43.8 C 20.9 25.0, 21.4 56.4, 22.9 69.6 C 18.6 79.6, 15.7 66.1, 12.8 69.8 C 0.0 72.3, 13.4 22.9, 17.7 17.7 C 9.3 11.5, 49.1 18.9, 38.2 32.4 C 27.8 41.9, 65.0 52.7, 77.8 63.5 C 60.8 57.5, 14.9 19.5, 1.5 32.7 Z" fill="none" fill-opacity="0.73" stroke="hsl(290, 83%, 63%)" stroke-width="2.64"  transform="translate(5.3 4.8) rotate(58.3) scale(1.59 1.00)" />
<rect x="0.1" y="2.3" width="49.6" height="29.4" rx="0" fill="hsl(104, 72%, 65%)" fill-opacity="0.61"   transform="translate(94.5 79.2) rotate(239.7) scale(1.81 1.91)" />
<path d="M 85.5 13.3 C 71.7 29.6, 37.2 32.8, 34.4 43.6 C 21.0 34.4, 49.9 58.8, 49.5 67.9 C 40.4 70.4, 79.8 49.0, 71.3 62.5 C 79.8 56.9, 23.8 74.4, 18.1 67.9 C 0.0 81.0, 12.4 11.9, 3.5 5.4 C 3.1 14.0, 67.7 47.7, 69.5 62.2 Z" fill="none" fill-opacity="0.87" stroke="hsl(144, 86%, 72%)" stroke-width="2.40"   />
<path d="M 23.9 17.7 C 37.4 6.1, 45.6 15.2, 33.4 2.7 C 18.2 20.8, 100.0 96.6, 96.8 95.6 C 86.0 91.0, 6.9 34.0, 20.0 43.1 C 33.4 38.4, 59.6 31.4, 52.8 28.5 C 48.1 28.6, 86.0 56.5, 94.1 59.9 C 94.5 64.5, 70.0 45.8, 69.6 31.0 C 53.9 48.3, 99.8 25.1, 89.7 27.2 Z" fill="hsl(83, 65%, 44%)" fill-opacity="0.59" stroke="none" stroke-width="4.49"  transform="translate(31.0 43.7) rotate(261.6) scale(0.68 1.07)" />
<path d="M 99.8 96.5 C 100.0 89.5, 44.5 30.5, 34.7 44.5 C 51.3 63.8, 22.6 97.2, 25.0 84.6 C 18.6 93.6, 68.7 0.8, 54.6 3.7 C 45.1 12.5, 84.3 15.8, 94.7 6.2 C 100.0 8.6, 41.6 44.5, 38.1 53.6 C 20.5 39.1, 78.0 37.2, 83.8 34.9 C 87.1 37.6, 23.0 52.0, 16.5 55.7 C 10.5 54.1, 57.9 100.0, 50.2 97.8 C 47.3 100.0, 78.2 82.5, 74.3 84.2 Z" fill="hsl(40, 53%, 69%)" fill-opacity="0.40" stroke="none" stroke-width="1.15"  transform="translate(9.7 32.4) rotate(115.9) scale(1.43 1.73)" />
<path d="M 75.4 32.8 C 92.0 34.2, 81.1 43.6, 93.0 40.3 C 100.0 40.2, 71.9 92.3, 81.0 96.9 C 79.0 96.0, 82.4 49.4, 70.5 59.3 C 65.5 74.9, 71.1 58.8, 57.2 64.7 C 54.2 57.6, 44.8 16.3, 50.0 25.7 C 56.8 27.3, 91.9 74.1, 78.7 84.9 C 81.5 91.9, 99.9 22.3, 91.5 12.9 C 100.0 28.3, 86.9 38.1, 79.0 45.5 C 83.8 31.5, 45.7 63.8, 45.8 58.0 C 26.8 68.2, 27.1 75.7, 12.9 81.1 Z" fill="hsl(290, 83%, 63%)" fill-opacity="0.75" stroke="none" stroke-width="2.05"  transform="translate(54.0 87.3) rotate(179.8) scale(1.94 1.33)" />
<path d="M 60.8 69.5 C 65.8 80.6, 38.0 65.0, 24.1 74.7 C 39.9 92.3, 13.8 15.5, 17.7 4.7 C 16.2 0.0, 34.5 73.4, 25.5 66.2 C 41.1 81.1, 21.5 83.6, 17.2 81.3 C 18.4 61.5, 42.7 46.4, 28.1 51.0 C 8.2 67.0, 31.5 79.7, 35.1 71.1 Z" fill="none" fill-opacity="0.59" stroke="hsl(183, 71%, 60%)" stroke-width="2.83"  transform="translate(31.0 86.0) rotate(80.4) scale(1.61 1.97)" />
<g opacity="0.034">
<rect x="0" y="0" width="1" height="100" fill="black" />
<rect x="22" y="0" width="1" height="100" fill="black" />
<rect x="44" y="0" width="1" height="100" fill="black" />
<rect x="66" y="0" width="1" height="100" fill="black" />
<rect x="88" y="0" width="1" height="100" fill="black" />
<rect x="0" y="0" width="100" height="1" fill="black" />
<rect x="0" y="22" width="100" height="1" fill="black" />
<rect x="0" y="44" width="100" height="1" fill="black" />
<rect x="0" y="66" width="100" height="1" fill="black" />
<rect x="0" y="88" width="100" height="1" fill="black" />
</g>

</svg>
