<?xml version="1.0" encoding="UTF-8"?>
<svg xmlns="http://www.w3.org/2000/svg" width="100" height="100" viewBox="0 0 100 100">
<defs>
<linearGradient id="g0" x1="0%" y1="0%" x2="100%" y2="100%">
<stop offset="0.0%" stop-color="hsl(106, 75%, 59%)" />
<stop offset="33.3%" stop-color="hsl(183, 71%, 60%)" />
<stop offset="66.7%" stop-color="hsl(242, 72%, 49%)" />
<stop offset="100.0%" stop-color="hsl(322, 74%, 44%)" />
</linearGradient>
<linearGradient id="g1" x1="0%" y1="0%" x2="100%" y2="100%">
<stop offset="0.0%" stop-color="hsl(290, 83%, 63%)" />
<stop offset="33.3%" stop-color="hsl(2, 82%, 55%)" />
<stop offset="66.7%" stop-color="hsl(86, 72%, 68%)" />
<stop offset="100.0%" stop-color="hsl(83, 65%, 44%)" />
</linearGradient>
<linearGradient id="g2" x1="0%" y1="0%" x2="100%" y2="100%">
<stop offset="0.0%" stop-color="hsl(40, 53%, 69%)" />
<stop offset="33.3%" stop-color="hsl(104, 72%, 65%)" />
<stop offset="66.7%" stop-color="hsl(144, 86%, 72%)" />
<stop offset="100.0%" stop-color="hsl(151, 70%, 62%)" />
</linearGradient>
<filter id="f1" x="-20%" y="-20%" width="140%" height="140%">
  <feGaussianBlur stdDeviation="0.9333588375978046" />
</filter>

</defs>

<path d="M 28.4 30.6 C 32.5 14.3, 10.6 56.6, 7.9 70.5 C 4.3 76.3, 60.8 20.6, 62.5 13.0 C 74.7 0.0, 49.4 20.9, 45.6 12.7 C 31.9 29.0, 2.4 56.2, 17.3 41.7 C 19.8 24.6, 17.7 98.9, 15.4 100.0 C 1.5 100.0, 7.6 90.0, 18.5 94.3 C 31.7 74.4, 29.7 45.7, 18.2 50.7 C 23.4 56.3, 100.0 100.0, 98.1 92.7 C 100.0 78.4, 13.4 79.2, 4.6 83.4 C 0.0 80.8, 97.9 29.1, 97.9 42.5 Z" fill="none" fill-opacity="0.35" stroke="hsl(86, 72%, 68%)" stroke-width="3.19"  transform="translate(1.4 55.0) rotate(52.9) scale(1.36 1.28)" />
<path d="M 46.7 24.8 C 54.6 13.4, 22.2 33.1, 25.1 47.7 C 21.7 58.5, 89.0 83.5, 74.5 95.1 C 90.7 100.0, 60.3 34.0, 72.3 24.0 C 80.6 43.0, 11.7 73.2, 4.9 66.7 C 21.7 63.0, 5.4 59.2, 18.7 64.5 C 0.2 54.4, 33.8 21.0, 37.4 26.9 C 43.7 25.2, 57.5 0.0, 55.7 3.3 C 70.0 4.2, 2.4 21.0, 11.7 31.0 C 5.7 34.9, 41.9 55.4, 34.2 64.9 Z" fill="none" fill-opacity="0.73" stroke="hsl(290, 83%, 63%)" stroke-width="0.95"  transform="translate(76.6 66.2) rotate(92.1) scale(0.65 1.70)" />
<path d="M 75.0 45.8 C 78.5 56.1, 95.8 76.3, 99.3 85.8 C 81.6 100.0, 45.0 100.0, 42.7 95.3 C 45.7 86.3, 34.7 14.4, 31.6 5.4 C 15.0 0.0, 45.4 73.7, 47.9 72.4 C 29.8 86.1, 58.3 72.5, 51.3 75.9 C 32.1 65.2, 37.1 15.0, 43.0 7.8 C 35.5 1.5, 64.5 24.5, 59.2 29.0 Z" fill="none" fill-opacity="0.48" stroke="hsl(104, 72%, 65%)" stroke-width="3.58"   />
<rect x="6.1" y="56.9" width="40.8" height="34.9" rx="0" fill="hsl(106, 75%, 59%)" fill-opacity="0.54"   transform="translate(77.8 70.8) rotate(105.9) scale(1.95 1.16)" />
<path d="M 7.1 34.1 C 4.9 36.9, 59.3 41.9, 56.3 40.4 C 72.5 27.3, 17.4 2.3, 15.6 4.6 C 0.3 0.0, 11.3 22.8, 17.7 33.9 C 37.4 53.9, 53.5 30.2, 56.3 29.1 C 45.9 36.2, 84.9 39.7, 81.4 45.6 C 82.5 43.3, 78.5 82.6, 80.1 78.0 C 86.5 81.2, 54.4 100.0, 41.4 99.2 Z" fill="hsl(2, 82%, 55%)" fill-opacity="0.35" stroke="none" stroke-width="2.57"  transform="translate(29.0 23.1) rotate(171.2) scale(0.96 1.80)" />
<circle cx="46.2" cy="61.8" r="7.4" fill="url(#g2)" fill-opacity="0.66"  transform="translate(25.2 94.2) rotate(76.7) scale(1.20 1.82)" />
<circle cx="76.8" cy="75.4" r="9.0" fill="url(#g1)" fill-opacity="0.59"  transform="translate(11.0 37.2) rotate(341.0) scale(0.94 0.93)" />
<circle cx="84.6" cy="35.0" r="1.7" fill="url(#g1)" fill-opacity="0.84"  transform="translate(7.6 62.1) rotate(241.5) scale(1.70 0.93)" />
<rect x="48.5" y="50.8" width="24.7" height="23.0" rx="0" fill="none" fill-opacity="0.58"   transform="translate(43.6 60.8) rotate(168.7) scale(0.69 1.96)" />
<path d="M 1.2 26.8 C 0.0 15.8, 96.7 75.4, 92.4 88.2 C 83.8 93.5, 52.0 26.0, 55.5 40.8 C 71.7 44.7, 15.1 13.1, 11.2 24.1 C 0.0 36.2, 49.7 99.2, 61.9 92.6 C 75.5 100.0, 93.8 27.3, 92.5 31.9 C 81.2 12.6, 35.5 30.9, 23.0 28.7 Z" fill="hsl(151, 70%, 62%)" fill-opacity="0.39" stroke="none" stroke-width="1.62" filter="url(#f1)" transform="translate(84.7 19.4) rotate(16.7) scale(1.05 1.74)" />
<path d="M 20.3 57.1 C 39.2 44.9, 41.5 14.9, 30.5 21.3 C 14.7 34.2, 100.0 44.8, 91.9 48.4 C 81.4 51.3, 47.7 17.8, 41.6 24.4 C 54.1 11.2, 74.0 18.9, 78.9 7.4 C 90.2 0.0, 44.7 85.2, 46.3 75.1 C 37.3 59.3, 34.0 76.8, 25.4 70.7 C 32.3 58.5, 21.9 85.7, 12.3 74.4 C 7.0 57.5, 16.4 39.6, 21.4 48.7 C 40.9 57.5, 0.0 23.5, 5.5 35.8 C 0.0 25.3, 50.4 71.6, 55.7 70.8 Z" fill="none" fill-opacity="0.41" stroke="hsl(104, 72%, 65%)" stroke-width="5.16"   />
<path d="M 28.5 47.1 C 11.3 36.0, 71.9 67.4, 64.6 77.2 C 59.8 71.6, 68.4 20.5, 62.7 15.5 C 73.2 2.7, 73.7 17.9, 76.4 25.7 C 81.9 9.1, 23.7 94.5, 20.1 92.5 C 32.1 78.0, 32.9 62.0, 36.2 75.8 C 48.7 81.2, 79.0 60.8, 83.8 56.2 C 79.2 37.3, 33.8 73.7, 22.4 75.4 C 30.7 85.8, 12.1 84.9, 14.2 79.5 Z" fill="none" fill-opacity="1.00" stroke="hsl(106, 75%, 59%)" stroke-width="2.65"  transform="translate(77.9 0.9) rotate(43.7) scale(1.71 0.59)" />
<path d="M 92.0 13.4 C 78.3 25.6, 44.6 43.8, 50.3 52.4 C 37.9 66.1, 36.2 51.2, 46.6 58.3 C 60.3 59.5, 0.0 70.0, 5.8 78.3 C 0.2 91.7, 67.7 93.8, 55.3 97.3 C 71.8 100.0, 100.0 31.4, 98.5 30.9 C 100.0 38.0, 42.7 10.8, 49.8 23.6 C 58.6 25.9, 44.5 55.0, 58.7 59.3 C 40.7 60.2, 27.6 32.1, 35.8 24.5 C 26.4 30.1, 90.1 39.6, 86.0 50.0 Z" fill="none" fill-opacity="0.39" stroke="hsl(144, 86%, 72%)" stroke-width="3.33"  transform="translate(81.2 27.0) rotate(112.1) scale(1.99 1.33)" />
<path d="M 3.9 15.9 C 2.4 0.1, 57.8 61.9, 63.8 74.3 C 83.5 60.0, 30.4 21.0, 29.8 22.2 C 47.1 25.9, 41.6 52.2, 55.2 52.8 C 71.7 38.3, 57.8 66.8, 63.2 59.4 C 63.6 45.6, 57.9 73.0, 55.6 73.9 C 62.2 88.1, 2.3 76.1, 14.8 66.5 C 6.4 62.5, 23.7 73.8, 12.2 78.1 C 0.0 78.4, 49.6 21.3, 54.8 34.3 Z" fill="none" fill-opacity="0.92" stroke="hsl(106, 75%, 59%)" stroke-width="1.29"  transform="translate(13.6 83.8) rotate(9.4) scale(1.05 1.18)" />
<circle cx="3.0" cy="93.5" r="6.6" fill="hsl(290, 83%, 63%)" fill-opacity="0.76"  transform="translate(49.4 63.6) rotate(263.8) scale(0.76 1.74)" />
<path d="M 90.2 97.6 C 70.4 100.0, 38.2 47.6, 48.6 62.0 C 39.9 53.3, 55.6 47.1, 61.0 53.1 C 72.2 40.0, 13.7 26.0, 23.0 35.9 C 15.3 49.8, 59.7 81.4, 52.4 91.4 C 52.1 94.5, 48.4 83.8, 42.8 87.3 C 42.6 75.5, 65.7 30.0, 60.8 28.5 C 60.7 31.5, 94.7 58.5, 90.9 49.7 C 78.6 39.8, 16.6 44.7, 16.1 40.9 C 3.2 27.4, 21.9 10.9, 31.2 8.3 C 17.2 19.8, 83.4 58.5, 94.0 68.9 Z" fill="hsl(144, 86%, 72%)" fill-opacity="0.84" stroke="none" stroke-width="2.17"  transform="translate(94.6 86.1) rotate(229.4) scale(1.06 1.95)" />
<path d="M 26.9 81.7 C 38.8 70.7, 31.3 0.4, 21.4 2.3 C 12.2 0.0, 18.2 69.4, 30.9 83.8 C 38.1 98.2, 100.0 46.4, 95.5 45.4 C 100.0 37.3, 34.5 31.6, 21.8 42.5 C 7.5 56.4, 73.0 38.6, 63.1 46.5 C 64.7 55.9, 80.1 54.3, 84.3 41.2 Z" fill="hsl(322, 74%, 44%)" fill-opacity="0.33" stroke="none" stroke-width="5.26"   />
<path d="M 12.3 9.7 C 4.0 18.4, 61.1 14.8, 67.8 11.7 C 81.4 14.6, 0.0 33.7, 8.9 21.5 C 0.0 38.2, 0.0 87.1, 8.5 98.0 C 0.0 100.0, 96.3 26.7, 91.1 20.5 C 100.0 25.2, 77.7 76.7, 65.3 70.1 C 49.5 90.0, 30.8 32.2, 41.9 23.3 Z" fill="none" fill-opacity="0.80" stroke="hsl(290, 83%, 63%)" stroke-width="2.10"  transform="translate(68.6 97.6) rotate(272.6) scale(0.54 1.21)" />
<path d="M 64.3 81.9 C 78.2 84.0, 71.2 53.8, 75.8 42.4 C 57.0 42.8, 86.4 100.0, 96.7 98.9 C 100.0 99.8, 63.8 76.1, 65.7 76.2 C 79.2 89.0, 12.8 88.6, 1.5 74.4 C 0.0 88.8, 34.3 86.8, 34.1 80.7 C 42.2 64.5, 54.8 10.7, 52.1 18.7 C 42.5 12.2, 86.7 81.5, 83.0 90.7 C 66.7 100.0, 51.2 77.7, 60.5 78.3 Z" fill="hsl(290, 83%, 63%)" fill-opacity="0.28" stroke="none" stroke-width="5.01"  transform="translate(28.3 65.6) rotate(289.8) scale(0.87 1.80)" />
<circle cx="74.2" cy="8.5" r="1.2" fill="hsl(151, 70%, 62%)" fill-opacity="0.50"   />
<rect x="0.7" y="20.5" width="32.5" height="28.5" rx="0" fill="hsl(144, 86%, 72%)" fill-opacity="0.92" stroke="hsl(104, 72%, 65%)" stroke-width="2.2" filter="url(#f1)" transform="translate(84.5 68.4) rotate(261.4) scale(1.20 1.74)" />
<path d="M 45.0 61.3 C 50.8 47.5, 48.6 94.1, 41.2 84.7 C 51.2 69.5, 52.3 70.0, 62.0 82.8 C 60.8 73.7, 80.7 1.5, 82.4 2.5 C 64.6 0.0, 5.3 74.5, 0.6 63.7 C 0.0 71.8, 40.8 73.6, 44.8 64.1 C 35.9 52.3, 97.4 96.9, 88.0 84.0 C 100.0 64.9, 34.5 22.8, 23.7 8.6 C 25.4 27.0, 15.9 50.9, 14.3 43.6 C 13.9 40.8, 28.5 20.0, 30.4 15.8 Z" fill="none" fill-opacity="0.76" stroke="hsl(2, 82%, 55%)" stroke-width="2.21"  transform="translate(81.3 13.8) rotate(201.1) scale(0.62 0.86)" />
<circle cx="68.6" cy="2.5" r="1.8" fill="url(#g0)" fill-opacity="0.92"  transform="translate(1.6 64.5) rotate(315.5) scale(1.46 0.99)" />
<rect x="55.1" y="6.5" width="43.3" height="26.3" rx="0" fill="none" fill-opacity="0.24"   transform="translate(78.8 40.5) rotate(345.1) scale(1.41 1.69)" />
<rect x="72.3" y="65.4" width="25.8" height="31.0" rx="0" fill="hsl(2, 82%, 55%)" fill-opacity="0.78"    />
<path d="M 79.6 61.8 C 72.7 81.1, 2.5 91.4, 3.6 89.3 C 3.9 84.0, 68.3 21.4, 58.4 21.2 C 76.4 5.7, 87.7 13.3, 85.8 18.3 C 90.3 0.0, 49.6 47.4, 61.6 46.4 C 49.5 65.7, 70.1 9.1, 77.9 15.6 C 90.7 19.7, 71.2 92.5, 80.3 92.8 C 83.1 86.3, 52.2 44.3, 64.5 37.6 C 46.1 53.6, 10.0 86.8, 13.8 94.1 Z" fill="hsl(106, 75%, 59%)" fill-opacity="0.45" stroke="none" stroke-width="2.78"  transform="translate(88.3 1.7) rotate(89.7) scale(1.57 1.38)" />
<rect x="47.9" y="46.7" width="36.2" height="39.5" rx="15.4" fill="hsl(144, 86%, 72%)" fill-opacity="0.33"  filter="url(#f1)" transform="translate(66.3 80.0) rotate(269.6) scale(1.10 0.96)" />
<circle cx="65.7" cy="2.7" r="3.3" fill="url(#g2)" fill-opacity="0.90" filter="url(#f1)" transform="translate(36.3 82.5) rotate(29.5) scale(1.68 1.30)" />
<path d="M 74.3 30.3 C 56.2 11.0, 42.8 83.1, 56.6 85.8 C 68.0 96.7, 6.7 29.1, 15.0 33.3 C 18.5 34.4, 7.4 68.4, 2.9 59.5 C 0.0 44.9, 32.5 7.1, 19.9 5.5 C 31.0 22.2, 67.0 42.7, 60.5 32.3 C 48.3 31.1, 37.3 75.5, 34.9 81.1 C 18.3 87.8, 60.7 45.4, 69.4 47.4 C 88.2 27.8, 92.6 43.0, 84.8 51.0 Z" fill="none" fill-opacity="0.53" stroke="hsl(40, 53%, 69%)" stroke-width="1.05"  transform="translate(31.3 19.4) rotate(119.2) scale(1.23 1.73)" />
<path d="M 11.0 17.2 C 0.0 33.0, 48.7 12.4, 43.7 17.9 C 39.0 10.9, 14.6 99.8, 19.1 93.3 C 12.8 87.5, 71.7 13.5, 82.2 11.9 C 77.6 4.4, 79.6 81.4, 83.2 72.6 C 78.5 90.7, 79.1 71.0, 90.9 82.6 C 93.5 74.6, 59.8 17.7, 55.5 16.5 C 39.1 19.8, 46.7 45.2, 41.2 37.3 C 26.7 52.6, 29.8 0.0, 27.5 2.4 Z" fill="none" fill-opacity="0.92" stroke="hsl(151, 70%, 62%)" stroke-width="2.11" filter="url(#f1)" transform="translate(73.3 52.2) rotate(258.2) scale(0.72 1.63)" />
<circle cx="89.0" cy="11.7" r="7.6" fill="url(#g0)" fill-opacity="0.57"   />
<circle cx="50.6" cy="11.6" r="1.0" fill="url(#g2)" fill-opacity="0.89"  transform="translate(71.0 25.5) rotate(227.7) scale(1.44 1.18)" />
<path d="M 48.9 39.2 C 40.9 58.9, 68.6 18.7, 74.5 22.1 C 80.6 18.5, 61.8 59.2, 63.9 67.0 C 61.7 74.4, 60.5 36.7, 71.9 32.2 C 63.7 39.7, 98.5 75.9, 85.0 73.6 C 90.7 64.5, 100.0 82.0, 93.8 92.9 C 92.4 100.0, 99.8 84.6, 97.6 91.5 C 100.0 86.8, 42.0 40.6, 41.9 33.5 C 28.3 22.2, 54.2 57.4, 39.8 69.3 C 23.4 87.7, 27.5 59.3, 41.5 60.0 Z" fill="hsl(104, 72%, 65%)" fill-opacity="0.46" stroke="none" stroke-width="2.40"  transform="translate(34.0 15.9) rotate(85.8) scale(1.77 1.31)" />
<path d="M 53.3 64.6 C 54.2 83.9, 98.3 93.9, 96.5 80.1 C 97.4 91.7, 19.4 56.2, 33.7 45.2 C 34.8 42.5, 55.9 1.9, 52.8 7.3 C 62.9 0.0, 35.8 0.9, 39.6 15.1 C 43.1 31.4, 26.1 31.2, 39.8 20.2 C 29.7 14.3, 83.4 52.5, 88.9 47.9 C 71.2 60.1, 0.0 64.8, 12.2 54.8 Z" fill="hsl(322, 74%, 44%)" fill-opacity="0.86" stroke="none" stroke-width="3.91"  transform="translate(9.8 91.1) rotate(69.8) scale(0.76 1.81)" />
<circle cx="67.3" cy="6.3" r="3.0" fill="hsl(104, 72%, 65%)" fill-opacity="0.53"  transform="translate(96.7 42.6) rotate(19.7) scale(1.69 0.67)" />
<circle cx="51.4" cy="59.8" r="5.5" fill="hsl(104, 72%, 65%)" fill-opacity="0.80"  transform="translate(61.3 12.0) rotate(164.5) scale(1.85 0.97)" />
<path d="M 20.3 21.6 C 17.8 26.4, 39.6 22.1, 42.1 19.1 C 26.4 26.0, 20.2 43.1, 21.1 55.9 C 28.7 72.3, 59.6 81.9, 61.7 87.8 C 67.5 71.5, 100.0 98.0, 93.4 90.5 C 77.6 95.5, 73.9 68.4, 82.7 70.5 C 77.8 87.5, 12.7 28.4, 6.1 40.1 C 0.0 37.8, 29.4 20.8, 28.2 13.0 C 23.7 14.8, 37.0 30.7, 29.7 28.2 " fill="hsl(40, 53%, 69%)" fill-opacity="0.66" stroke="none" stroke-width="4.43"  transform="translate(61.1 29.5) rotate(216.6) scale(0.80 0.70)" />
<rect x="34.9" y="63.5" width="49.9" height="16.6" rx="0" fill="hsl(242, 72%, 49%)" fill-opacity="0.57"   transform="translate(77.6 31.1) rotate(280.1) scale(1.75 0.69)" />
<rect x="19.8" y="37.8" width="46.0" height="11.7" rx="0" fill="none" fill-opacity="0.96"   transform="translate(89.2 80.0) rotate(315.9) scale(1.08 1.01)" />
<path d="M 54.5 32.9 C 73.3 34.2, 0.0 49.1, 2.2 51.8 C 0.0 70.3, 62.8 66.4, 56.9 54.4 C 60.5 50.3, 94.0 41.6, 81.7 43.5 C 89.8 42.6, 47.2 47.3, 49.9 32.8 C 44.1 39.9, 60.6 61.5, 56.1 67.2 C 67.9 76.6, 6.7 49.3, 7.1 37.7 C 19.7 52.9, 1.8 97.6, 10.2 88.1 C 7.9 90.7, 6.2 47.4, 20.6 36.8 C 9.4 51.7, 78.8 63.6, 76.3 68.1 C 70.3 84.8, 29.9 90.6, 19.4 88.9 Z" fill="hsl(86, 72%, 68%)" fill-opacity="0.49" stroke="none" stroke-width="5.29"  transform="translate(78.3 32.7) rotate(40.5) scale(0.57 0.81)" />
<path d="M 76.9 61.7 C 66.3 50.8, 56.9 59.5, 60.5 48.5 C 58.3 35.4, 94.5 0.0, 95.9 8.0 C 94.4 0.0, 3.3 98.0, 13.3 97.5 C 20.4 82.1, 93.5 62.5, 93.0 71.1 C 100.0 90.4, 73.5 1.5, 76.2 3.3 C 92.6 0.0, 13.6 23.4, 25.0 18.3 C 33.0 5.8, 42.1 22.0, 33.5 36.8 Z" fill="hsl(86, 72%, 68%)" fill-opacity="0.69" stroke="none" stroke-width="4.49"  transform="translate(59.3 74.8) rotate(225.0) scale(0.82 1.02)" />
<rect x="25.6" y="61.3" width="42.1" height="18.3" rx="11.2" fill="none" fill-opacity="0.92"   transform="translate(28.7 62.7) rotate(242.8) scale(1.28 1.84)" />
<path d="M 41.9 57.2 C 39.3 44.8, 17.6 18.3, 13.0 11.5 C 4.0 0.0, 43.1 67.8, 48.1 69.9 C 54.6 52.1, 62.2 87.2, 69.2 88.1 C 86.3 73.0, 18.0 38.0, 4.6 40.7 C 19.4 32.0, 41.7 22.4, 38.1 24.6 C 25.8 37.4, 34.8 39.4, 36.5 42.8 C 29.5 51.0, 51.7 68.6, 48.3 80.0 C 60.7 75.3, 57.4 58.0, 72.0 44.4 C 69.6 40.7, 87.3 87.0, 82.2 96.0 Z" fill="none" fill-opacity="0.97" stroke="hsl(151, 70%, 62%)" stroke-width="3.82"  transform="translate(25.9 70.4) rotate(192.7) scale(1.03 1.66)" />
<path d="M 76.0 2.1 C 71.8 6.2, 72.4 63.8, 78.9 75.8 C 85.5 88.2, 51.9 82.9, 38.6 76.0 C 37.6 64.9, 78.0 8.4, 73.6 5.9 C 83.5 0.0, 96.1 0.0, 83.2 7.9 C 80.8 0.0, 0.0 70.9, 6.6 83.6 C 16.1 90.6, 37.8 67.4, 36.1 74.0 C 27.4 65.5, 27.7 66.9, 13.7 57.9 C 0.0 54.0, 58.6 56.4, 60.6 52.1 C 69.9 47.9, 98.4 88.6, 86.1 88.6 C 97.0 79.7, 69.9 21.0, 68.9 9.2 Z" fill="hsl(183, 71%, 60%)" fill-opacity="0.98" stroke="none" stroke-width="4.95"  transform="translate(90.4 31.4) rotate(154.3) scale(1.73 1.65)" />
<path d="M 59.9 27.5 C 63.7 32.5, 16.9 66.8, 5.8 61.4 C 10.6 78.9, 0.0 80.4, 3.1 87.0 C 0.0 91.9, 22.0 53.0, 21.3 48.6 C 24.6 36.2, 33.9 87.4, 48.3 74.2 C 59.7 84.8, 0.7 59.8, 4.0 74.3 C 7.6 75.0, 34.2 43.0, 37.9 32.9 C 37.7 43.8, 100.0 92.6, 93.2 98.8 C 79.7 97.8, 64.2 87.8, 66.3 86.2 C 61.4 67.1, 13.7 58.0, 19.5 65.7 Z" fill="none" fill-opacity="0.60" stroke="hsl(290, 83%, 63%)" stroke-width="0.96"  transform="translate(58.5 56.7) rotate(187.9) scale(0.76 0.88)" />
<rect x="47.8" y="37.6" width="38.4" height="29.7" rx="0" fill="none" fill-opacity="0.94"  filter="url(#f1)"  />
<rect x="15.9" y="39.9" width="35.3" height="27.7" rx="11.8" fill="none" fill-opacity="0.59"   transform="translate(12.1 86.0) rotate(237.9) scale(1.42 0.67)" />
<path d="M 67.8 62.2 C 77.4 45.9, 49.6 100.0, 50.2 97.9 C 60.1 100.0, 34.3 0.3, 23.4 1.5 C 30.8 0.0, 52.6 48.2, 39.2 43.2 C 20.8 50.9, 13.9 74.9, 1.9 88.9 C 0.0 71.2, 35.4 46.3, 37.2 40.0 C 36.8 39.0, 21.3 69.5, 25.3 56.1 C 26.4 38.6, 15.6 68.8, 7.0 74.9 C 15.9 59.8, 16.9 68.2, 7.9 65.2 C 22.0 78.8, 70.9 51.4, 66.1 53.0 C 58.5 56.7, 92.3 49.9, 84.4 49.8 Z" fill="none" fill-opacity="0.50" stroke="hsl(151, 70%, 62%)" stroke-width="5.10"  transform="translate(30.1 83.9) rotate(354.6) scale(1.05 1.29)" />
<path d="M 17.6 75.5 C 19.4 61.9, 38.8 54.2, 27.9 55.6 C 24.2 54.5, 23.3 54.2, 30.8 63.2 C 13.2 55.7, 100.0 79.4, 95.6 70.0 C 96.4 80.3, 86.4 55.3, 75.7 59.6 C 70.1 53.1, 31.0 58.5, 42.6 67.3 C 30.1 77.5, 0.0 19.9, 6.8 31.3 C 16.8 49.1, 83.8 34.5, 90.0 26.3 C 77.4 39.8, 26.8 5.9, 39.9 3.0 Z" fill="hsl(144, 86%, 72%)" fill-opacity="0.46" stroke="none" stroke-width="4.97"  transform="translate(84.5 1.5) rotate(311.9) scale(0.82 1.82)" />
<rect x="6.1" y="86.2" width="25.4" height="12.5" rx="0" fill="none" fill-opacity="0.31"    />
<circle cx="5.2" cy="52.8" r="1.2" fill="url(#g0)" fill-opacity="0.99"  transform="translate(82.3 98.4) rotate(210.6) scale(0.84 0.83)" />
<circle cx="91.5" cy="88.5" r="13.7" fill="hsl(83, 65%, 44%)" fill-opacity="0.85"  transform="translate(43.0 53.4) rotate(17.1) scale(1.68 0.55)" />
<rect x="68.2" y="11.0" width="26.0" height="16.1" rx="0" fill="none" fill-opacity="0.73"   transform="translate(81.2 63.9) rotate(211.7) scale(1.53 1.27)" />
<path d="M 75.3 84.1 C 78.2 91.3, 31.5 74.2, 34.4 70.8 C 50.8 54.3, 17.4 71.3, 7.4 67.0 C 14.4 82.4, 94.1 0.0, 91.2 6.8 C 100.0 17.0, 73.5 57.9, 69.5 53.1 C 55.9 36.2, 100.0 78.3, 96.8 90.9 C 100.0 95.4, 12.7 83.9, 17.8 98.0 C 27.4 83.6, 56.9 23.2, 70.8 13.2 C 84.5 1.8, 33.4 81.8, 25.0 75.2 " fill="hsl(104, 72%, 65%)" fill-opacity="0.48" stroke="none" stroke-width="4.23" filter="url(#f1)" transform="translate(12.7 30.4) rotate(179.8) scale(1.97 1.85)" />
<circle cx="77.3" cy="69.4" r="3.8" fill="hsl(151, 70%, 62%)" fill-opacity="0.52"  transform="translate(8.0 51.9) rotate(238.3) scale(0.90 1.68)" />
<rect x="51.6" y="49.9" width="45.4" height="39.9" rx="0" fill="hsl(86, 72%, 68%)" fill-opacity="0.92"  filter="url(#f1)" transform="translate(75.0 79.4) rotate(30.3) scale(1.89 1.37)" />
<circle cx="95.2" cy="42.4" r="2.2" fill="url(#g0)" fill-opacity="0.97"   />
<rect x="8.0" y="74.3" width="35.6" height="12.1" rx="6.6" fill="hsl(2, 82%, 55%)" fill-opacity="0.95" stroke="hsl(2, 82%, 55%)" stroke-width="1.1"  transform="translate(82.4 80.4) rotate(278.5) scale(1.14 0.65)" />
<path d="M 63.3 88.4 C 68.7 97.3, 32.2 44.0, 47.0 39.0 C 35.8 52.3, 61.3 25.2, 64.0 12.0 C 82.5 29.3, 8.3 61.0, 1.7 64.4 C 0.0 56.6, 31.9 40.2, 45.6 54.6 C 35.6 66.1, 16.5 9.3, 30.6 22.6 C 48.9 28.2, 36.8 100.0, 31.4 99.6 Z" fill="none" fill-opacity="0.32" stroke="hsl(183, 71%, 60%)" stroke-width="4.47"  transform="translate(10.5 65.6) rotate(111.8) scale(1.42 1.10)" />
<rect x="50.2" y="23.3" width="45.9" height="30.1" rx="0" fill="hsl(322, 74%, 44%)" fill-opacity="0.81"  filter="url(#f1)" transform="translate(28.9 8.7) rotate(1.3) scale(1.75 1.41)" />
<circle cx="75.1" cy="60.2" r="2.8" fill="hsl(2, 82%, 55%)" fill-opacity="0.85"  transform="translate(27.1 99.8) rotate(156.3) scale(1.50 1.26)" />
<path d="M 33.5 86.9 C 40.5 100.0, 63.6 61.2, 48.6 66.8 C 48.9 68.3, 7.7 94.9, 2.4 98.5 C 0.0 84.7, 5.5 80.0, 11.0 65.2 C 19.5 50.0, 58.9 23.9, 48.0 13.9 C 57.1 14.2, 39.1 92.8, 39.8 99.3 C 41.7 100.0, 0.0 52.1, 5.1 57.6 C 23.2 47.4, 53.4 31.0, 61.7 18.9 C 76.7 7.4, 62.8 85.6, 64.1 75.2 C 74.4 65.4, 80.9 50.4, 81.1 36.0 C 100.0 32.6, 20.8 95.9, 8.8 98.5 Z" fill="hsl(144, 86%, 72%)" fill-opacity="0.64" stroke="none" stroke-width="1.43"  transform="translate(72.8 27.5) rotate(51.9) scale(0.82 0.88)" />
<path d="M 12.3 80.0 C 0.0 89.1, 98.4 33.6, 88.2 20.2 C 73.9 4.5, 31.0 23.1, 42.9 12.6 C 48.4 8.3, 36.4 31.1, 32.8 24.0 C 40.3 28.7, 11.7 98.6, 7.2 95.0 C 8.9 87.6, 43.9 85.2, 52.4 94.0 C 47.4 76.7, 26.9 47.8, 27.9 35.7 C 14.3 24.8, 1.3 80.0, 10.0 93.9 C 11.0 86.9, 0.0 11.8, 6.6 18.0 C 23.7 35.6, 46.0 19.3, 48.0 12.3 C 56.5 5.8, 49.9 85.4, 60.3 83.5 Z" fill="hsl(322, 74%, 44%)" fill-opacity="0.52" stroke="none" stroke-width="4.66"  transform="translate(31.9 55.4) rotate(99.4) scale(1.69 0.61)" />
<path d="M 25.0 89.9 C 29.8 70.1, 16.8 94.5, 2.9 82.8 C 11.5 100.0, 83.6 48.9, 77.8 51.7 C 81.1 52.1, 100.0 22.0, 91.7 17.1 C 79.8 8.1, 70.5 33.3, 74.5 29.5 C 66.6 25.2, 100.0 59.6, 98.7 54.1 C 83.0 43.9, 66.5 73.4, 65.9 83.6 C 85.2 72.9, 31.7 0.0, 29.4 12.4 Z" fill="none" fill-opacity="0.82" stroke="hsl(106, 75%, 59%)" stroke-width="4.29"  transform="translate(66.0 65.5) rotate(292.1) scale(0.60 1.05)" />
<circle cx="0.9" cy="96.1" r="13.6" fill="hsl(242, 72%, 49%)" fill-opacity="0.76"  transform="translate(9.9 81.7) rotate(83.7) scale(1.42 1.53)" />
<path d="M 90.2 84.7 C 89.4 84.6, 36.3 2.6, 41.0 11.5 C 39.7 9.5, 16.6 69.1, 27.1 65.6 C 45.3 75.8, 17.3 11.6, 31.6 17.4 C 31.2 34.2, 28.4 14.4, 31.3 5.1 C 25.3 0.0, 26.1 93.6, 30.4 85.8 C 31.4 70.7, 66.5 0.0, 74.0 5.3 C 63.6 20.2, 39.0 83.7, 46.5 69.0 C 34.9 71.8, 42.2 56.6, 32.0 60.4 C 27.6 52.3, 58.8 30.9, 73.7 27.5 C 84.4 20.9, 0.0 36.6, 9.9 34.6 Z" fill="hsl(322, 74%, 44%)" fill-opacity="0.38" stroke="none" stroke-width="4.28" filter="url(#f1)" transform="translate(44.2 97.7) rotate(303.5) scale(1.41 1.89)" />
<path d="M 35.1 81.4 C 40.4 76.2, 69.4 35.6, 61.6 30.2 C 64.5 28.6, 48.3 17.3, 59.2 27.4 C 63.5 32.1, 100.0 43.8, 98.4 39.0 C 100.0 25.1, 0.0 76.7, 8.3 64.7 C 10.0 61.5, 82.6 52.5, 71.2 50.3 C 70.9 31.6, 78.0 41.7, 73.6 54.4 Z" fill="hsl(86, 72%, 68%)" fill-opacity="0.72" stroke="none" stroke-width="3.75"  transform="translate(1.2 75.0) rotate(275.8) scale(1.38 1.21)" />
<path d="M 71.4 70.4 C 84.8 50.8, 53.1 0.0, 43.1 9.1 C 37.7 0.0, 42.7 48.9, 34.6 42.3 C 48.6 53.2, 57.3 64.4, 52.9 73.2 C 68.2 63.1, 70.2 69.4, 70.5 54.9 C 60.3 41.6, 9.9 45.4, 5.5 49.9 C 0.0 31.0, 44.0 30.8, 54.4 24.0 C 39.6 14.7, 71.8 25.2, 59.3 39.5 C 77.0 29.1, 6.9 87.8, 17.5 73.6 C 5.2 71.3, 50.4 100.0, 61.8 90.7 Z" fill="none" fill-opacity="0.38" stroke="hsl(83, 65%, 44%)" stroke-width="3.73"  transform="translate(58.5 19.0) rotate(212.7) scale(1.02 1.50)" />
<path d="M 57.1 57.9 C 42.2 42.2, 41.1 61.2, 37.6 68.4 C 18.0 72.1, 22.1 9.1, 17.3 7.7 C 34.9 22.8, 68.7 21.0, 64.0 34.2 C 64.8 41.1, 1.9 100.0, 5.6 97.9 C 12.2 79.0, 6.5 33.7, 6.3 42.2 C 6.6 59.6, 65.6 20.7, 70.4 30.0 C 78.4 48.3, 5.2 100.0, 14.8 96.7 Z" fill="none" fill-opacity="0.32" stroke="hsl(83, 65%, 44%)" stroke-width="2.75"  transform="translate(50.7 24.7) rotate(102.2) scale(1.94 1.15)" />
<rect x="42.8" y="59.5" width="27.0" height="20.8" rx="0.5" fill="none" fill-opacity="0.65" stroke="hsl(144, 86%, 72%)" stroke-width="1.4"  transform="translate(84.2 27.3) rotate(205.6) scale(1.09 1.54)" />
<path d="M 26.6 64.8 C 31.1 50.8, 80.4 54.2, 86.8 64.8 C 94.3 60.6, 51.6 24.5, 56.4 38.1 C 43.1 47.8, 64.5 44.8, 74.0 44.1 C 67.3 43.0, 8.2 11.3, 21.4 9.8 C 19.0 2.9, 6.8 31.0, 10.3 37.9 C 29.0 37.1, 1.0 99.2, 1.6 98.1 C 14.7 100.0, 75.5 100.0, 67.1 99.3 Z" fill="none" fill-opacity="0.42" stroke="hsl(106, 75%, 59%)" stroke-width="2.00"  transform="translate(9.8 86.4) rotate(246.9) scale(1.75 1.20)" />
<path d="M 81.1 39.1 C 94.6 27.2, 72.7 89.3, 63.1 90.5 C 73.2 100.0, 63.1 33.0, 63.0 30.0 C 45.5 24.5, 79.7 74.7, 83.8 82.7 C 98.6 95.1, 70.3 50.7, 60.5 62.6 C 59.5 42.9, 19.1 0.0, 22.3 2.1 C 38.0 7.3, 21.6 21.1, 19.5 13.6 C 5.3 10.2, 44.3 44.3, 59.3 56.6 C 40.5 37.9, 0.0 6.1, 3.7 1.2 Z" fill="none" fill-opacity="0.91" stroke="hsl(151, 70%, 62%)" stroke-width="4.42"  transform="translate(19.0 45.8) rotate(293.0) scale(1.83 1.99)" />
<circle cx="33.9" cy="86.2" r="0.4" fill="url(#g0)" fill-opacity="0.79" filter="url(#f1)" transform="translate(47.2 66.4) rotate(314.7) scale(1.30 1.29)" />
<path d="M 95.5 80.3 C 100.0 86.6, 38.1 71.1, 39.1 67.8 C 41.6 56.8, 18.7 41.4, 20.3 31.0 C 15.2 43.8, 30.9 32.5, 17.7 38.3 C 0.0 18.6, 59.2 3.5, 51.6 0.3 C 66.3 0.0, 56.1 77.4, 62.6 62.6 C 68.3 69.0, 78.1 100.0, 85.1 98.6 C 75.5 100.0, 64.1 24.4, 52.9 20.5 C 67.7 32.7, 98.9 45.0, 89.3 55.4 C 100.0 57.6, 100.0 100.0, 96.1 94.8 C 83.3 82.9, 8.1 4.2, 5.5 18.2 Z" fill="none" fill-opacity="0.59" stroke="hsl(290, 83%, 63%)" stroke-width="1.03" filter="url(#f1)" transform="translate(55.1 49.3) rotate(226.1) scale(1.36 1.82)" />
<circle cx="25.8" cy="86.9" r="9.1" fill="url(#g0)" fill-opacity="0.82"  transform="translate(82.0 36.8) rotate(211.0) scale(1.90 1.58)" />
<path d="M 71.5 78.9 C 82.1 68.1, 83.3 79.2, 87.1 70.7 C 93.2 58.9, 16.5 44.2, 12.8 47.8 C 21.6 63.5, 68.3 3.2, 71.1 12.2 C 61.8 19.4, 88.6 11.7, 83.2 18.5 C 73.2 9.8, 77.1 83.9, 84.7 88.7 C 77.5 89.8, 36.0 58.9, 39.4 52.7 Z" fill="hsl(2, 82%, 55%)" fill-opacity="0.37" stroke="none" stroke-width="1.83"  transform="translate(20.4 21.6) rotate(105.5) scale(1.89 1.92)" />
<rect x="34.6" y="39.7" width="25.0" height="27.5" rx="0" fill="none" fill-opacity="0.28"   transform="translate(86.6 31.4) rotate(248.7) scale(1.24 1.36)" />
<path d="M 31.3 84.4 C 46.1 85.6, 91.0 62.3, 95.0 58.5 C 100.0 44.7, 59.6 36.7, 50.7 24.6 C 36.2 17.0, 0.0 24.4, 10.8 21.3 C 0.0 30.7, 41.8 67.9, 34.8 78.7 C 31.8 95.1, 18.5 0.0, 6.6 4.6 C 0.0 21.7, 100.0 34.3, 92.5 26.2 C 77.1 13.6, 99.3 4.4, 90.7 9.6 C 91.3 6.6, 58.0 17.3, 54.4 18.0 C 43.3 20.1, 31.3 27.9, 24.5 29.8 Z" fill="none" fill-opacity="0.69" stroke="hsl(104, 72%, 65%)" stroke-width="2.61"  transform="translate(88.9 9.1) rotate(321.6) scale(0.62 2.00)" />
<path d="M 32.9 44.1 C 49.7 49.8, 68.2 45.2, 68.2 31.0 C 54.3 46.1, 69.8 47.9, 82.0 50.2 C 62.0 60.0, 45.6 91.5, 31.1 82.5 C 34.2 64.1, 0.0 25.6, 2.9 19.6 C 10.6 21.9, 54.3 70.1, 67.1 78.2 C 74.1 59.4, 45.6 19.5, 42.0 26.2 C 49.8 36.5, 97.5 27.3, 99.7 26.0 C 100.0 10.2, 62.9 66.5, 49.1 74.7 C 37.2 68.7, 94.4 100.0, 81.9 94.3 Z" fill="none" fill-opacity="0.70" stroke="hsl(106, 75%, 59%)" stroke-width="2.94" filter="url(#f1)" transform="translate(34.0 91.4) rotate(86.4) scale(1.12 1.24)" />
<path d="M 49.5 9.0 C 43.8 0.0, 86.2 41.5, 85.9 47.7 C 100.0 41.3, 51.8 87.4, 54.8 88.9 C 57.2 92.0, 14.9 32.5, 9.5 30.4 C 0.0 40.6, 91.5 30.2, 97.6 28.9 C 100.0 34.2, 29.3 64.9, 28.3 77.6 C 36.0 70.7, 62.0 73.7, 50.0 76.6 C 60.5 80.1, 7.0 65.0, 10.9 76.0 C 0.0 95.7, 100.0 47.4, 92.0 56.6 C 92.1 52.4, 22.6 19.0, 24.2 26.3 Z" fill="none" fill-opacity="0.80" stroke="hsl(290, 83%, 63%)" stroke-width="4.55"  transform="translate(84.8 48.4) rotate(297.3) scale(0.67 1.82)" />
<path d="M 62.6 30.8 C 73.3 33.4, 1.3 45.5, 9.8 44.2 C 27.7 52.3, 27.7 66.9, 38.4 59.5 C 43.7 73.5, 72.8 70.2, 73.9 81.8 C 93.1 93.8, 46.4 100.0, 33.9 94.0 C 35.7 96.9, 12.7 72.9, 14.8 69.9 C 11.2 52.3, 44.4 84.0, 47.3 93.7 C 42.5 100.0, 27.5 16.4, 41.6 11.7 " fill="hsl(183, 71%, 60%)" fill-opacity="0.76" stroke="none" stroke-width="5.03"  transform="translate(40.2 84.8) rotate(58.3) scale(1.43 1.48)" />
<circle cx="26.3" cy="81.2" r="13.1" fill="hsl(2, 82%, 55%)" fill-opacity="0.63" filter="url(#f1)" transform="translate(36.6 86.9) rotate(259.6) scale(1.74 1.26)" />
<path d="M 32.2 16.4 C 21.3 18.4, 25.7 0.0, 32.6 8.1 C 17.7 6.8, 50.3 51.7, 58.6 56.6 C 71.8 64.9, 11.7 69.6, 2.5 64.2 C 0.0 57.0, 6.2 41.2, 7.9 29.6 C 27.5 35.6, 59.8 0.0, 55.0 0.0 C 60.4 15.9, 66.4 91.4, 70.2 92.0 Z" fill="none" fill-opacity="0.43" stroke="hsl(83, 65%, 44%)" stroke-width="2.27"  transform="translate(5.6 71.4) rotate(330.7) scale(1.45 0.67)" />
<rect x="50.9" y="76.6" width="27.5" height="18.5" rx="0" fill="none" fill-opacity="0.86"  filter="url(#f1)"  />
<rect x="15.3" y="29.4" width="29.4" height="12.8" rx="0" fill="none" fill-opacity="0.67" stroke="hsl(322, 74%, 44%)" stroke-width="2.6"  transform="translate(7.9 88.0) rotate(241.7) scale(1.09 0.51)" />
<circle cx="81.7" cy="27.6" r="13.0" fill="hsl(290, 83%, 63%)" fill-opacity="0.88" filter="url(#f1)" transform="translate(81.1 29.1) rotate(6.0) scale(0.68 1.49)" />
<path d="M 15.1 0.6 C 18.4 6.4, 0.0 84.5, 12.1 91.9 C 8.3 100.0, 48.4 37.9, 50.5 44.3 C 48.7 56.2, 35.9 99.8, 42.4 88.5 C 34.8 84.3, 7.4 100.0, 5.8 97.7 C 0.0 87.8, 70.4 31.1, 67.5 40.9 C 56.7 28.0, 32.1 73.3, 25.6 78.7 C 11.0 75.7, 30.4 27.3, 21.1 39.1 C 33.0 24.6, 33.2 4.8, 19.5 17.4 C 7.7 35.3, 32.8 30.2, 19.0 36.8 C 25.1 47.1, 26.2 61.9, 17.6 76.4 Z" fill="none" fill-opacity="0.49" stroke="hsl(144, 86%, 72%)" stroke-width="3.29"  transform="translate(5.0 68.0) rotate(178.4) scale(1.62 1.70)" />
<path d="M 30.2 83.5 C 19.2 85.4, 89.4 62.5, 98.9 73.2 C 97.0 72.6, 24.7 12.1, 9.9 18.1 C 0.0 26.1, 88.3 88.8, 82.0 96.8 C 66.8 100.0, 94.8 7.7, 82.2 2.8 C 70.5 0.0, 59.7 54.2, 46.3 39.6 C 40.2 52.2, 62.4 45.0, 56.3 55.8 C 63.9 69.0, 66.7 95.7, 68.3 95.6 C 69.2 94.2, 31.0 51.6, 40.9 50.3 C 57.3 58.7, 48.9 64.0, 60.6 51.3 C 71.5 63.2, 84.3 12.9, 71.6 11.7 " fill="hsl(106, 75%, 59%)" fill-opacity="0.28" stroke="none" stroke-width="1.16"  transform="translate(76.3 20.3) rotate(319.8) scale(1.02 1.79)" />
<rect x="32.8" y="30.0" width="30.4" height="17.6" rx="7.2" fill="hsl(83, 65%, 44%)" fill-opacity="0.43"   transform="translate(60.3 26.9) rotate(71.1) scale(1.34 1.31)" />
<path d="M 33.7 26.8 C 28.4 8.9, 41.0 0.0, 30.5 0.7 C 39.7 11.8, 66.4 54.3, 59.1 40.7 C 71.0 53.5, 78.6 62.1, 78.4 68.0 C 87.8 63.8, 4.4 83.2, 17.0 81.5 C 33.6 97.8, 49.5 19.9, 56.9 32.8 C 74.2 21.1, 2.4 72.3, 10.0 82.9 Z" fill="hsl(151, 70%, 62%)" fill-opacity="0.34" stroke="none" stroke-width="1.24"  transform="translate(5.4 4.2) rotate(271.9) scale(1.02 0.73)" />
<circle cx="89.9" cy="81.4" r="4.6" fill="url(#g0)" fill-opacity="0.91"  transform="translate(54.6 18.3) rotate(316.0) scale(1.79 1.81)" />
<path d="M 31.7 79.6 C 27.3 91.1, 89.7 49.3, 86.5 51.3 C 73.2 33.2, 40.5 69.3, 37.9 57.4 C 46.4 53.7, 17.6 24.9, 27.6 32.1 C 19.8 17.2, 87.9 100.0, 99.1 98.3 C 95.4 100.0, 58.5 86.2, 70.6 96.3 C 53.4 100.0, 17.6 76.0, 7.1 71.2 C 0.0 85.9, 59.3 18.8, 56.9 22.6 Z" fill="hsl(242, 72%, 49%)" fill-opacity="0.69" stroke="none" stroke-width="4.02" filter="url(#f1)" transform="translate(21.7 18.1) rotate(223.7) scale(0.51 0.78)" />
<rect x="22.8" y="1.1" width="23.0" height="16.0" rx="16.7" fill="none" fill-opacity="0.62"   transform="translate(50.7 86.5) rotate(12.3) scale(1.62 0.66)" />
<path d="M 33.8 47.7 C 31.3 41.8, 89.3 61.5, 82.2 75.7 C 90.1 92.4, 51.4 40.9, 40.0 40.0 C 57.1 23.6, 82.1 100.0, 94.2 95.1 C 100.0 87.1, 42.4 91.7, 32.2 96.0 C 16.0 80.7, 86.9 100.0, 74.5 99.1 C 72.3 100.0, 76.4 77.4, 61.7 84.8 C 67.9 71.6, 1.8 27.4, 0.4 13.4 C 12.1 0.0, 39.8 42.0, 44.3 51.0 C 37.7 40.0, 100.0 49.3, 99.2 34.6 Z" fill="hsl(106, 75%, 59%)" fill-opacity="0.44" stroke="none" stroke-width="5.22"  transform="translate(89.4 81.5) rotate(307.4) scale(1.59 1.89)" />
<rect x="38.4" y="65.2" width="31.7" height="15.1" rx="4.9" fill="none" fill-opacity="0.56"   transform="translate(83.1 28.2) rotate(33.9) scale(1.68 1.61)" />
<rect x="39.2" y="39.2" width="26.5" height="16.7" rx="8.7" fill="hsl(183, 71%, 60%)" fill-opacity="0.68"   transform="translate(74.3 77.1) rotate(108.7) scale(0.71 1.19)" />
<path d="M 72.0 29.7 C 55.2 38.9, 89.0 60.8, 92.7 73.3 C 100.0 88.0, 73.8 0.0, 85.3 3.1 C 85.5 15.2, 1.7 64.4, 4.9 59.4 C 22.1 64.1, 75.7 84.1, 78.7 87.9 C 96.7 78.7, 21.9 0.0, 12.2 0.5 C 16.9 0.0, 45.3 37.1, 46.0 35.5 C 58.4 18.2, 33.7 9.7, 24.4 9.3 Z" fill="hsl(104, 72%, 65%)" fill-opacity="0.78" stroke="none" stroke-width="3.39"   />
<path d="M 100.0 56.1 C 86.6 70.2, 25.9 67.9, 32.4 63.8 C 42.3 68.9, 73.8 42.8, 79.9 36.4 C 84.5 56.2, 67.8 22.5, 55.5 21.8 C 47.8 16.9, 3.7 95.5, 9.4 86.0 C 3.0 85.3, 82.4 15.6, 84.2 12.1 C 94.9 0.0, 48.4 42.4, 50.1 37.9 C 37.5 21.0, 50.6 82.4, 56.8 75.1 C 57.7 65.4, 11.5 100.0, 5.7 90.4 C 0.0 90.3, 72.0 0.0, 82.4 9.4 C 82.8 0.0, 54.6 66.2, 48.0 54.7 Z" fill="hsl(106, 75%, 59%)" fill-opacity="0.83" stroke="none" stroke-width="2.25"  transform="translate(44.5 30.6) rotate(134.7) scale(0.55 0.56)" />
<circle cx="9.0" cy="4.0" r="1.4" fill="hsl(86, 72%, 68%)" fill-opacity="0.74" filter="url(#f1)" transform="translate(26.2 43.0) rotate(5.5) scale(0.79 0.80)" />
<path d="M 46.1 46.6 C 35.9 54.1, 80.4 51.6, 78.2 59.1 C 60.6 48.6, 80.7 0.0, 76.3 5.2 C 89.3 0.0, 0.0 12.7, 0.2 0.6 C 0.0 0.0, 54.4 43.2, 56.6 44.6 C 46.3 60.7, 23.8 0.0, 16.7 4.2 C 15.7 0.0, 79.3 64.7, 82.3 64.1 C 72.5 81.2, 69.1 55.1, 63.1 59.4 C 65.7 56.8, 48.1 76.2, 49.2 76.4 C 40.5 67.2, 11.3 33.5, 5.8 27.9 C 0.0 23.2, 83.2 24.0, 76.0 10.8 Z" fill="none" fill-opacity="0.42" stroke="hsl(242, 72%, 49%)" stroke-width="4.74"  transform="translate(51.0 23.7) rotate(135.3) scale(0.61 1.51)" />
<path d="M 54.0 69.0 C 59.1 53.0, 22.8 2.4, 28.3 3.8 C 43.5 4.6, 36.8 45.9, 22.1 51.4 C 37.4 55.9, 93.3 56.2, 80.1 45.9 C 96.4 29.0, 96.5 77.6, 88.5 68.1 C 72.3 53.2, 47.3 39.5, 42.6 39.5 C 53.1 39.7, 20.2 72.5, 23.1 86.2 C 20.3 94.0, 77.6 86.0, 87.0 96.0 Z" fill="hsl(151, 70%, 62%)" fill-opacity="0.34" stroke="none" stroke-width="1.37"  transform="translate(83.7 84.6) rotate(156.4) scale(1.61 1.00)" />
<path d="M 1.6 89.2 C 2.4 80.4, 53.4 100.0, 44.1 96.4 C 53.6 100.0, 59.6 9.6, 52.0 9.1 C 40.5 28.4, 48.2 23.0, 49.2 32.8 C 43.4 37.5, 55.6 71.2, 62.5 72.8 C 81.9 91.8, 28.5 1.6, 40.5 2.7 C 39.7 0.0, 45.1 17.2, 36.1 25.0 C 16.7 29.1, 55.0 5.2, 50.7 9.6 C 59.1 8.9, 14.1 15.5, 12.0 21.5 C 31.9 28.8, 3.2 87.0, 17.7 82.3 C 36.1 64.6, 46.9 55.6, 45.7 40.9 Z" fill="hsl(290, 83%, 63%)" fill-opacity="0.29" stroke="none" stroke-width="4.76"  transform="translate(90.8 51.4) rotate(207.2) scale(1.24 1.77)" />
<path d="M 16.2 36.2 C 25.7 21.4, 82.7 82.4, 71.3 88.0 C 82.2 74.9, 76.7 53.3, 65.9 55.8 C 46.4 67.1, 59.6 50.8, 59.1 64.8 C 72.5 71.1, 24.3 72.0, 35.2 65.5 C 52.6 69.4, 44.6 71.4, 53.4 83.1 C 69.3 87.8, 93.2 48.4, 97.2 54.9 " fill="none" fill-opacity="0.34" stroke="hsl(144, 86%, 72%)" stroke-width="2.70"   />
<circle cx="78.3" cy="40.4" r="0.6" fill="hsl(183, 71%, 60%)" fill-opacity="0.94"  transform="translate(58.5 32.5) rotate(276.3) scale(1.72 1.90)" />
<path d="M 2.4 61.2 C 0.0 66.7, 60.8 100.0, 69.8 96.9 C 57.2 92.9, 32.5 51.9, 31.9 47.3 C 13.4 49.2, 30.5 86.3, 36.4 96.5 C 21.9 93.6, 5.1 89.0, 20.0 88.8 C 16.7 80.9, 63.9 26.4, 51.3 35.3 C 68.3 28.9, 34.9 95.6, 40.7 82.8 C 59.3 72.8, 89.0 100.0, 98.2 93.6 C 100.0 85.1, 87.3 75.0, 94.1 82.1 Z" fill="hsl(40, 53%, 69%)" fill-opacity="0.65" stroke="none" stroke-width="4.35" filter="url(#f1)"  />
<circle cx="58.2" cy="80.7" r="6.1" fill="hsl(183, 71%, 60%)" fill-opacity="0.96"   />
<path d="M 48.7 59.3 C 56.9 43.3, 60.5 74.9, 64.6 70.9 C 55.1 67.1, 12.0 78.0, 2.9 67.8 C 1.5 60.9, 88.4 34.1, 91.7 38.4 C 72.9 28.9, 4.8 100.0, 17.5 92.0 C 8.4 99.8, 45.5 6.5, 44.3 15.7 C 34.8 4.5, 55.9 29.1, 43.6 17.4 C 40.6 11.8, 78.2 92.1, 63.3 96.0 C 54.8 100.0, 29.2 24.1, 39.9 28.3 Z" fill="none" fill-opacity="0.26" stroke="hsl(83, 65%, 44%)" stroke-width="3.27"   />
<path d="M 25.0 66.0 C 7.5 74.3, 45.2 78.1, 47.6 84.4 C 38.9 67.6, 3.9 29.4, 0.2 37.1 C 6.2 21.6, 33.5 29.2, 30.0 15.3 C 37.0 27.9, 65.2 9.5, 52.6 0.3 C 46.9 0.0, 78.9 87.8, 80.9 80.9 C 95.7 100.0, 41.3 55.2, 31.2 50.5 C 32.1 44.0, 25.2 54.9, 29.7 49.0 C 20.1 44.6, 69.4 90.1, 61.8 96.7 C 51.0 100.0, 64.7 1.6, 53.1 9.5 Z" fill="none" fill-opacity="0.96" stroke="hsl(183, 71%, 60%)" stroke-width="4.21"  transform="translate(92.5 27.1) rotate(141.4) scale(1.58 1.00)" />
<path d="M 49.7 49.9 C 65.4 62.1, 46.8 73.9, 47.8 80.6 C 42.1 86.7, 5.0 54.1, 13.4 58.7 C 8.1 44.0, 96.5 2.9, 94.1 11.6 C 100.0 0.0, 38.7 0.0, 31.4 6.1 C 18.6 9.8, 56.7 80.9, 65.5 69.1 C 64.4 71.0, 2.6 60.7, 7.4 63.6 C 2.9 52.6, 50.1 4.7, 62.7 16.8 " fill="hsl(144, 86%, 72%)" fill-opacity="0.41" stroke="none" stroke-width="1.55"  transform="translate(73.4 3.6) rotate(233.7) scale(0.93 0.92)" />
<path d="M 47.1 69.2 C 41.9 69.0, 94.7 16.9, 90.1 21.8 C 100.0 25.1, 82.2 17.7, 93.6 20.6 C 99.8 24.8, 100.0 50.9, 98.7 44.0 C 83.8 44.7, 91.7 20.6, 78.4 22.8 C 63.1 26.1, 66.9 100.0, 72.2 99.6 C 58.6 96.1, 52.3 29.9, 65.3 38.9 C 52.6 44.3, 87.0 16.9, 99.7 22.0 " fill="hsl(290, 83%, 63%)" fill-opacity="0.61" stroke="none" stroke-width="1.00"  transform="translate(10.6 13.8) rotate(240.5) scale(0.56 1.31)" />
<path d="M 34.0 99.0 C 52.6 98.2, 90.9 85.0, 76.7 80.5 C 79.3 93.4, 67.9 70.2, 79.2 84.2 C 92.5 100.0, 87.3 62.9, 91.5 55.8 C 81.5 63.8, 20.1 67.5, 23.5 80.8 C 24.3 69.5, 57.8 85.0, 48.8 91.0 C 65.6 100.0, 76.1 88.0, 82.1 80.0 C 62.2 87.1, 17.1 75.2, 19.3 81.7 C 8.9 84.8, 63.7 48.1, 77.7 52.2 Z" fill="hsl(183, 71%, 60%)" fill-opacity="0.73" stroke="none" stroke-width="4.54"  transform="translate(30.2 3.5) rotate(332.2) scale(0.85 1.70)" />
<path d="M 84.4 99.6 C 66.4 100.0, 66.0 52.4, 73.7 58.1 C 89.6 50.1, 99.7 58.2, 92.4 51.2 C 81.0 52.2, 47.1 7.1, 47.9 13.2 C 65.7 28.6, 56.0 74.3, 56.9 70.8 C 69.9 87.3, 50.8 48.8, 56.2 51.1 C 74.8 33.3, 4.0 31.0, 12.0 37.7 C 24.3 31.3, 16.5 87.4, 22.8 73.3 C 31.1 60.4, 67.5 19.1, 69.3 8.7 C 59.4 4.0, 86.4 20.7, 87.4 18.7 Z" fill="none" fill-opacity="0.83" stroke="hsl(183, 71%, 60%)" stroke-width="4.20"  transform="translate(79.9 32.4) rotate(2.6) scale(1.57 0.81)" />
<circle cx="75.4" cy="18.6" r="9.2" fill="url(#g0)" fill-opacity="0.47"  transform="translate(6.6 88.7) rotate(211.0) scale(0.92 1.76)" />
<path d="M 49.5 47.4 C 31.4 45.3, 42.0 19.2, 46.9 19.7 C 45.5 28.6, 78.6 38.0, 63.9 38.9 C 68.9 35.0, 73.1 65.6, 64.7 63.4 C 81.6 75.1, 35.9 21.8, 30.2 10.3 C 27.3 20.6, 73.9 74.2, 69.5 76.7 C 72.2 57.7, 17.4 72.1, 3.1 58.0 C 4.2 42.3, 26.5 76.8, 24.6 67.8 C 10.3 50.3, 62.8 27.5, 49.0 18.9 Z" fill="none" fill-opacity="0.41" stroke="hsl(151, 70%, 62%)" stroke-width="1.59"  transform="translate(51.4 30.1) rotate(252.1) scale(0.69 1.54)" />
<path d="M 43.3 10.0 C 48.5 18.1, 6.6 5.8, 16.3 20.7 C 27.5 20.5, 93.4 100.0, 95.2 97.5 C 91.2 96.3, 19.1 20.1, 15.1 10.2 C 30.9 5.8, 67.6 21.7, 64.6 10.6 C 67.1 20.8, 6.6 35.8, 0.1 33.5 C 1.7 32.4, 89.5 92.1, 97.8 93.1 C 98.2 74.5, 0.0 22.7, 2.8 12.2 C 0.0 3.9, 51.0 11.2, 52.6 20.7 C 43.4 33.5, 23.0 0.0, 28.2 1.0 Z" fill="hsl(83, 65%, 44%)" fill-opacity="0.56" stroke="none" stroke-width="3.86"   />
<path d="M 90.0 38.3 C 84.1 58.0, 31.7 0.0, 43.9 6.1 C 34.2 0.4, 44.5 33.1, 41.6 38.0 C 27.5 30.4, 32.2 73.3, 43.8 59.2 C 62.1 67.7, 78.5 76.7, 89.4 65.8 C 91.1 83.1, 65.5 46.2, 75.2 40.8 C 75.6 20.8, 29.4 53.0, 24.9 57.7 Z" fill="hsl(290, 83%, 63%)" fill-opacity="0.80" stroke="none" stroke-width="1.37"  transform="translate(23.6 12.7) rotate(55.1) scale(1.67 1.62)" />
<path d="M 59.7 72.2 C 48.0 70.3, 13.9 76.2, 17.0 72.9 C 16.9 85.0, 76.1 91.8, 88.4 83.6 C 99.1 84.8, 91.1 72.0, 78.3 66.7 C 89.7 47.1, 81.4 95.3, 85.9 86.7 C 99.7 73.9, 93.1 46.8, 95.7 56.6 C 98.1 51.2, 74.1 98.8, 83.0 91.5 C 100.0 82.5, 6.8 45.3, 1.4 36.4 C 19.4 51.6, 90.6 14.2, 85.0 5.2 Z" fill="none" fill-opacity="0.70" stroke="hsl(290, 83%, 63%)" stroke-width="5.26"  transform="translate(61.5 88.3) rotate(209.7) scale(0.62 0.91)" />
<rect x="23.3" y="14.5" width="32.5" height="38.2" rx="0" fill="none" fill-opacity="0.38" stroke="hsl(86, 72%, 68%)" stroke-width="1.9"  transform="translate(72.7 38.2) rotate(195.4) scale(0.82 0.60)" />
<rect x="31.4" y="51.0" width="47.6" height="17.6" rx="0" fill="none" fill-opacity="0.40"   transform="translate(11.2 25.6) rotate(141.7) scale(1.14 0.86)" />
<path d="M 32.3 38.8 C 45.5 47.9, 74.4 4.6, 77.4 9.6 C 68.1 8.0, 58.2 36.4, 48.5 39.2 C 37.2 41.7, 78.4 62.8, 80.8 76.5 C 84.6 71.2, 38.7 80.7, 52.3 70.8 C 44.7 85.6, 50.0 38.9, 59.5 45.1 C 55.9 35.1, 20.1 0.0, 28.2 8.5 C 45.0 17.0, 63.2 82.1, 53.7 91.9 C 37.4 73.3, 71.6 20.0, 72.9 12.5 Z" fill="hsl(183, 71%, 60%)" fill-opacity="0.68" stroke="none" stroke-width="1.59"  transform="translate(14.8 52.1) rotate(39.7) scale(0.67 0.98)" />
<circle cx="17.2" cy="36.9" r="7.6" fill="url(#g1)" fill-opacity="0.91" filter="url(#f1)" transform="translate(39.8 34.3) rotate(78.8) scale(0.57 1.75)" />
<path d="M 76.0 99.5 C 91.7 100.0, 55.0 0.0, 44.8 6.2 C 36.4 21.9, 55.8 33.8, 60.5 40.4 C 67.1 20.8, 73.0 79.8, 71.9 70.7 C 66.4 85.6, 63.4 36.1, 71.2 47.6 C 87.2 44.3, 78.8 0.0, 68.4 7.1 C 86.4 7.5, 100.0 34.4, 97.9 27.6 C 88.2 38.9, 78.9 82.3, 71.1 92.9 Z" fill="none" fill-opacity="0.82" stroke="hsl(83, 65%, 44%)" stroke-width="2.07"  transform="translate(82.4 44.0) rotate(75.4) scale(1.02 0.81)" />
<circle cx="28.1" cy="72.8" r="18.3" fill="url(#g2)" fill-opacity="0.59"  transform="translate(98.7 68.9) rotate(251.2) scale(1.71 1.08)" />
<circle cx="95.2" cy="66.1" r="3.2" fill="url(#g1)" fill-opacity="0.83"   />
<rect x="22.1" y="23.9" width="41.1" height="32.7" rx="11.5" fill="hsl(242, 72%, 49%)" fill-opacity="0.72"    />
<circle cx="18.0" cy="47.8" r="7.1" fill="url(#g2)" fill-opacity="0.71"  transform="translate(14.1 15.9) rotate(309.2) scale(0.80 1.72)" />
<path d="M 14.5 51.8 C 20.7 52.0, 100.0 83.2, 97.3 76.6 C 88.2 94.0, 22.4 68.3, 36.0 63.7 C 20.2 73.7, 89.2 100.0, 91.3 92.4 C 100.0 97.8, 1.2 86.5, 5.4 87.7 C 0.0 77.1, 69.9 12.7, 58.7 15.1 C 61.9 32.0, 98.6 77.8, 95.8 70.6 C 90.6 57.8, 78.6 74.5, 76.0 73.2 C 77.3 90.3, 13.8 50.6, 0.7 46.5 Z" fill="none" fill-opacity="0.86" stroke="hsl(104, 72%, 65%)" stroke-width="3.70"  transform="translate(4.8 26.7) rotate(56.2) scale(0.83 1.22)" />
<path d="M 58.1 2.0 C 68.0 0.0, 69.1 45.3, 69.0 59.3 C 88.5 53.3, 74.3 35.3, 66.8 30.7 C 84.1 44.2, 21.1 11.8, 14.9 7.9 C 16.9 23.1, 0.0 1.8, 11.7 4.3 C 8.2 21.2, 98.6 18.8, 99.2 11.1 C 79.5 0.0, 45.4 79.2, 36.1 88.1 Z" fill="hsl(242, 72%, 49%)" fill-opacity="0.28" stroke="none" stroke-width="1.63" filter="url(#f1)" transform="translate(54.8 91.8) rotate(84.6) scale(1.91 1.83)" />
<circle cx="63.5" cy="46.3" r="1.3" fill="hsl(106, 75%, 59%)" fill-opacity="0.46" filter="url(#f1)" transform="translate(97.5 71.5) rotate(37.1) scale(1.74 0.51)" />
<rect x="4.3" y="77.0" width="27.9" height="18.9" rx="6.9" fill="hsl(322, 74%, 44%)" fill-opacity="0.57"   transform="translate(60.3 58.5) rotate(87.4) scale(1.65 0.63)" />
<path d="M 67.7 6.2 C 84.4 19.6, 16.1 64.7, 9.5 60.4 C 12.9 59.5, 25.5 79.0, 25.1 84.3 C 33.0 92.7, 85.2 72.3, 89.7 59.1 C 84.8 64.5, 100.0 79.7, 98.5 91.7 C 100.0 100.0, 11.8 86.1, 22.6 79.4 C 40.2 65.4, 52.8 100.0, 48.4 98.1 C 54.5 91.7, 62.9 70.9, 57.1 65.8 C 56.1 62.0, 52.7 87.5, 55.1 88.4 C 64.4 71.2, 10.9 83.3, 7.8 70.3 Z" fill="hsl(106, 75%, 59%)" fill-opacity="0.91" stroke="none" stroke-width="3.41"  transform="translate(32.8 10.7) rotate(243.5) scale(0.73 1.57)" />
<rect x="60.6" y="5.5" width="31.5" height="33.7" rx="19.2" fill="hsl(183, 71%, 60%)" fill-opacity="0.96"   transform="translate(88.7 11.9) rotate(69.3) scale(1.41 1.01)" />
<path d="M 15.4 42.2 C 4.8 49.5, 67.5 23.8, 60.8 15.0 C 58.6 13.3, 99.1 37.4, 85.8 42.0 C 83.9 34.8, 55.4 69.1, 61.6 79.5 C 81.4 66.5, 45.4 100.0, 42.2 97.4 C 52.5 100.0, 73.7 34.0, 72.2 48.5 C 55.8 28.7, 95.2 35.4, 91.8 21.9 C 86.0 8.0, 15.7 0.0, 8.6 8.5 " fill="hsl(106, 75%, 59%)" fill-opacity="0.97" stroke="none" stroke-width="3.75"   />
<path d="M 69.1 28.2 C 54.1 24.0, 0.0 53.3, 7.8 57.7 C 0.0 43.8, 44.4 56.3, 57.4 47.4 C 38.3 54.0, 67.8 59.7, 82.2 63.8 C 96.2 66.0, 20.6 54.7, 35.3 54.9 C 28.5 49.3, 74.8 63.3, 73.1 53.5 C 80.6 56.2, 8.1 26.7, 22.1 19.8 Z" fill="hsl(106, 75%, 59%)" fill-opacity="0.95" stroke="none" stroke-width="2.25"  transform="translate(98.5 39.1) rotate(53.1) scale(1.66 0.63)" />
<circle cx="31.7" cy="74.2" r="5.3" fill="url(#g2)" fill-opacity="0.75"  transform="translate(82.4 49.8) rotate(128.7) scale(1.63 1.05)" />
<path d="M 71.0 3.9 C 59.0 2.9, 100.0 23.4, 97.4 27.9 C 84.7 35.2, 39.9 97.9, 41.1 96.7 C 51.7 87.0, 26.6 75.5, 27.2 61.9 C 37.8 56.0, 42.7 41.1, 41.3 35.9 C 27.6 16.4, 55.1 71.7, 66.9 60.6 C 78.9 57.0, 64.0 76.4, 51.0 83.8 C 35.3 78.3, 85.0 27.3, 84.0 25.5 " fill="hsl(144, 86%, 72%)" fill-opacity="0.28" stroke="none" stroke-width="2.48"  transform="translate(4.8 67.7) rotate(185.2) scale(1.16 1.91)" />
<rect x="25.8" y="88.1" width="31.9" height="11.3" rx="0" fill="none" fill-opacity="0.68" stroke="hsl(290, 83%, 63%)" stroke-width="4.6"  transform="translate(49.8 69.6) rotate(311.9) scale(0.84 1.97)" />
<path d="M 33.1 86.0 C 13.7 84.0, 29.6 39.3, 19.6 47.8 C 17.7 39.7, 21.5 70.9, 9.0 79.5 C 0.0 78.6, 72.4 95.7, 85.7 83.9 C 81.4 79.7, 33.5 76.4, 21.2 86.4 C 3.3 81.5, 70.4 95.9, 83.9 91.8 C 75.6 100.0, 35.4 31.7, 32.8 41.7 C 41.2 54.4, 0.0 68.8, 5.1 81.7 C 0.5 91.6, 28.7 39.1, 42.1 26.6 C 45.9 10.2, 49.2 76.3, 62.0 76.1 Z" fill="hsl(106, 75%, 59%)" fill-opacity="0.34" stroke="none" stroke-width="1.73"  transform="translate(51.4 57.9) rotate(208.5) scale(1.35 1.59)" />
<circle cx="34.0" cy="0.1" r="12.4" fill="url(#g0)" fill-opacity="0.69"  transform="translate(11.8 82.6) rotate(19.0) scale(1.75 1.49)" />
<rect x="42.5" y="42.0" width="22.4" height="40.0" rx="14.7" fill="none" fill-opacity="0.45"   transform="translate(93.9 81.9) rotate(339.1) scale(1.09 1.53)" />
<rect x="56.8" y="6.0" width="33.2" height="33.1" rx="0" fill="hsl(86, 72%, 68%)" fill-opacity="0.64"   transform="translate(67.0 52.2) rotate(249.8) scale(1.91 1.83)" />
<circle cx="95.5" cy="11.4" r="6.9" fill="url(#g1)" fill-opacity="0.75"  transform="translate(55.3 8.1) rotate(92.1) scale(1.78 0.56)" />
<g opacity="0.075">
<rect x="0" y="0" width="1" height="100" fill="black" />
<rect x="22" y="0" width="1" height="100" fill="black" />
<rect x="44" y="0" width="1" height="100" fill="black" />
<rect x="66" y="0" width="1" height="100" fill="black" />
<rect x="88" y="0" width="1" height="100" fill="black" />
<rect x="0" y="0" width="100" height="1" fill="black" />
<rect x="0" y="22" width="100" height="1" fill="black" />
<rect x="0" y="44" width="100" height="1" fill="black" />
<rect x="0" y="66" width="100" height="1" fill="black" />
<rect x="0" y="88" width="100" height="1" fill="black" />
</g>

</svg>
