<?xml version="1.0" encoding="UTF-8"?>
<svg xmlns="http://www.w3.org/2000/svg" width="100" height="100" viewBox="0 0 100 100">
<defs>
<linearGradient id="g0" x1="0%" y1="0%" x2="100%" y2="100%">
<stop offset="0.0%" stop-color="hsl(106, 75%, 59%)" />
<stop offset="33.3%" stop-color="hsl(183, 71%, 60%)" />
<stop offset="66.7%" stop-color="hsl(242, 72%, 49%)" />
<stop offset="100.0%" stop-color="hsl(322, 74%, 44%)" />
</linearGradient>
<linearGradient id="g1" x1="0%" y1="0%" x2="100%" y2="100%">
<stop offset="0.0%" stop-color="hsl(290, 83%, 63%)" />
<stop offset="33.3%" stop-color="hsl(2, 82%, 55%)" />
<stop offset="66.7%" stop-color="hsl(86, 72%, 68%)" />
<stop offset="100.0%" stop-color="hsl(83, 65%, 44%)" />
</linearGradient>
<linearGradient id="g2" x1="0%" y1="0%" x2="100%" y2="100%">
<stop offset="0.0%" stop-color="hsl(40, 53%, 69%)" />
<stop offset="33.3%" stop-color="hsl(104, 72%, 65%)" />
<stop offset="66.7%" stop-color="hsl(144, 86%, 72%)" />
<stop offset="100.0%" stop-color="hsl(151, 70%, 62%)" />
</linearGradient>
</defs>

<circle cx="76.3" cy="78.9" r="1.3" fill="hsl(104, 72%, 65%)" fill-opacity="0.93"   />
<path d="M 23.7 43.1 C 24.3 31.7, 19.2 100.0, 26.2 91.4 C 35.4 84.1, 81.7 84.4, 91.5 90.7 C 92.7 100.0, 58.6 18.9, 67.7 21.3 C 60.2 17.9, 61.6 17.4, 71.5 17.9 C 66.9 7.5, 0.0 100.0, 12.0 89.1 Z" fill="none" fill-opacity="0.90" stroke="hsl(144, 86%, 72%)" stroke-width="0.96"   />
<path d="M 38.1 18.6 C 44.1 28.8, 81.5 86.8, 73.2 86.9 C 79.9 95.8, 12.7 0.0, 7.5 1.7 C 12.9 21.5, 47.6 97.9, 35.3 94.0 C 53.1 97.4, 34.6 43.7, 44.8 29.7 C 39.6 16.4, 87.8 87.4, 98.3 96.3 C 92.1 100.0, 49.4 34.1, 40.2 32.0 C 44.4 26.1, 100.0 39.8, 98.8 49.0 " fill="hsl(151, 70%, 62%)" fill-opacity="0.31" stroke="none" stroke-width="1.26"   />
<rect x="53.0" y="23.4" width="31.3" height="34.9" rx="0" fill="none" fill-opacity="0.93" stroke="hsl(40, 53%, 69%)" stroke-width="3.3"  transform="translate(60.1 24.3) rotate(161.6) scale(0.51 1.24)" />
<rect x="32.3" y="6.9" width="36.9" height="14.5" rx="0" fill="hsl(83, 65%, 44%)" fill-opacity="0.27"   transform="translate(98.7 1.1) rotate(226.5) scale(1.06 0.98)" />
<circle cx="0.5" cy="82.6" r="0.6" fill="hsl(144, 86%, 72%)" fill-opacity="0.80"  transform="translate(15.0 77.7) rotate(168.8) scale(0.68 1.04)" />
<path d="M 30.0 93.3 C 41.4 88.3, 45.8 39.9, 51.0 40.6 C 40.2 33.0, 81.5 34.1, 80.4 43.3 C 62.4 61.7, 82.0 6.4, 90.4 14.3 C 100.0 6.6, 0.0 70.4, 3.2 57.9 Z" fill="none" fill-opacity="0.60" stroke="hsl(290, 83%, 63%)" stroke-width="1.08"  transform="translate(11.6 75.6) rotate(304.4) scale(0.96 1.32)" />
<rect x="38.4" y="61.6" width="34.7" height="20.2" rx="0" fill="hsl(83, 65%, 44%)" fill-opacity="0.95"    />
<path d="M 38.7 46.0 C 20.8 38.7, 56.3 17.5, 60.7 21.1 C 78.4 10.5, 71.4 76.1, 81.9 85.2 C 70.5 99.0, 2.6 54.8, 3.2 53.5 C 0.0 48.6, 14.6 89.2, 8.9 94.9 " fill="none" fill-opacity="0.41" stroke="hsl(290, 83%, 63%)" stroke-width="0.82"   />
<path d="M 90.6 82.9 C 71.9 92.6, 14.1 33.5, 2.3 46.2 C 20.2 59.4, 77.5 44.8, 62.6 43.2 C 62.1 32.7, 93.0 19.1, 85.6 4.8 C 100.0 16.3, 17.9 93.4, 8.5 98.1 C 0.0 100.0, 42.2 28.1, 48.2 19.6 Z" fill="none" fill-opacity="0.38" stroke="hsl(104, 72%, 65%)" stroke-width="1.14"   />
<path d="M 35.3 78.9 C 36.5 66.9, 50.2 10.7, 62.2 23.5 C 78.7 35.6, 73.6 55.3, 64.5 49.8 C 65.8 54.0, 37.0 90.8, 48.3 98.1 " fill="none" fill-opacity="0.52" stroke="hsl(290, 83%, 63%)" stroke-width="0.88"  transform="translate(15.7 50.1) rotate(119.4) scale(1.26 0.90)" />
</svg>
