<?xml version="1.0" encoding="UTF-8"?>
<svg xmlns="http://www.w3.org/2000/svg" width="100" height="100" viewBox="0 0 100 100">
<defs>
<linearGradient id="g0" x1="0%" y1="0%" x2="100%" y2="100%">
<stop offset="0.0%" stop-color="hsl(106, 75%, 59%)" />
<stop offset="33.3%" stop-color="hsl(183, 71%, 60%)" />
<stop offset="66.7%" stop-color="hsl(242, 72%, 49%)" />
<stop offset="100.0%" stop-color="hsl(322, 74%, 44%)" />
</linearGradient>
<linearGradient id="g1" x1="0%" y1="0%" x2="100%" y2="100%">
<stop offset="0.0%" stop-color="hsl(290, 83%, 63%)" />
<stop offset="33.3%" stop-color="hsl(2, 82%, 55%)" />
<stop offset="66.7%" stop-color="hsl(86, 72%, 68%)" />
<stop offset="100.0%" stop-color="hsl(83, 65%, 44%)" />
</linearGradient>
<linearGradient id="g2" x1="0%" y1="0%" x2="100%" y2="100%">
<stop offset="0.0%" stop-color="hsl(40, 53%, 69%)" />
<stop offset="33.3%" stop-color="hsl(104, 72%, 65%)" />
<stop offset="66.7%" stop-color="hsl(144, 86%, 72%)" />
<stop offset="100.0%" stop-color="hsl(151, 70%, 62%)" />
</linearGradient>
<filter id="f1" x="-20%" y="-20%" width="140%" height="140%">
  <feGaussianBlur stdDeviation="0.6808489013377672" />
</filter>

</defs>

<rect x="13.8" y="53.9" width="24.9" height="34.5" rx="17.0" fill="hsl(242, 72%, 49%)" fill-opacity="0.84"   transform="translate(92.3 7.9) rotate(52.6) scale(1.14 1.40)" />
<rect x="34.0" y="70.8" width="29.7" height="14.7" rx="10.6" fill="none" fill-opacity="0.49"    />
<path d="M 29.7 59.9 C 15.9 64.3, 66.5 95.2, 62.2 87.7 C 75.4 73.9, 96.8 64.2, 99.4 69.4 C 87.9 59.5, 42.2 70.6, 28.4 75.0 C 47.4 82.8, 54.5 8.6, 54.7 16.6 C 45.4 28.9, 71.6 94.0, 83.5 87.9 C 100.0 100.0, 58.3 90.7, 52.6 83.3 C 56.1 80.0, 30.4 32.1, 16.2 44.6 C 4.3 28.4, 43.4 30.9, 35.8 33.7 Z" fill="hsl(144, 86%, 72%)" fill-opacity="0.57" stroke="none" stroke-width="1.49"  transform="translate(91.1 3.4) rotate(62.8) scale(1.26 1.69)" />
<circle cx="96.0" cy="18.3" r="5.7" fill="hsl(183, 71%, 60%)" fill-opacity="0.80"  transform="translate(80.9 69.0) rotate(186.7) scale(0.51 1.78)" />
<path d="M 78.6 91.8 C 71.1 97.0, 52.7 0.0, 50.9 2.7 C 49.9 13.3, 7.4 41.9, 12.2 32.3 C 10.3 14.7, 68.3 0.0, 63.3 3.6 C 70.2 0.0, 79.7 77.1, 90.8 73.0 C 100.0 88.7, 29.0 29.0, 42.0 24.9 C 44.9 34.3, 61.3 35.3, 60.1 29.4 Z" fill="hsl(290, 83%, 63%)" fill-opacity="0.26" stroke="none" stroke-width="3.55" filter="url(#f1)" transform="translate(66.4 92.1) rotate(150.6) scale(1.13 0.69)" />
<path d="M 20.9 6.4 C 18.3 22.0, 56.2 39.8, 68.1 49.6 C 84.6 32.6, 73.7 79.5, 67.4 69.6 C 63.2 82.5, 84.4 24.2, 71.6 33.6 C 72.7 42.7, 99.5 13.1, 91.0 5.6 C 71.9 0.0, 40.2 100.0, 43.5 98.9 C 50.4 100.0, 85.8 50.7, 86.5 57.4 Z" fill="hsl(290, 83%, 63%)" fill-opacity="0.39" stroke="none" stroke-width="3.80" filter="url(#f1)" transform="translate(12.8 77.6) rotate(287.7) scale(1.14 1.58)" />
<path d="M 83.7 52.0 C 83.7 57.2, 2.8 4.5, 9.4 19.4 C 0.0 14.0, 30.6 0.0, 20.6 6.4 C 4.1 5.6, 51.8 59.6, 60.6 59.0 C 78.0 42.7, 80.3 82.5, 95.0 85.4 C 76.9 99.3, 22.2 82.8, 18.6 80.8 C 13.0 72.5, 8.8 34.4, 14.4 27.1 Z" fill="none" fill-opacity="0.65" stroke="hsl(2, 82%, 55%)" stroke-width="1.70"   />
<rect x="51.1" y="53.1" width="35.8" height="28.3" rx="19.0" fill="none" fill-opacity="0.83" stroke="hsl(151, 70%, 62%)" stroke-width="3.9"   />
<rect x="13.8" y="23.8" width="38.7" height="11.4" rx="17.5" fill="none" fill-opacity="0.65"  filter="url(#f1)" transform="translate(54.1 39.8) rotate(21.4) scale(1.51 1.15)" />
<rect x="58.2" y="11.7" width="37.9" height="22.2" rx="0" fill="none" fill-opacity="0.88"   transform="translate(55.0 23.7) rotate(240.5) scale(1.83 0.77)" />
<rect x="3.3" y="35.9" width="23.1" height="38.4" rx="0" fill="hsl(290, 83%, 63%)" fill-opacity="0.63" stroke="hsl(2, 82%, 55%)" stroke-width="2.2"   />
<circle cx="2.3" cy="0.5" r="8.7" fill="hsl(290, 83%, 63%)" fill-opacity="0.78"  transform="translate(13.9 21.7) rotate(132.4) scale(1.22 1.27)" />
<circle cx="40.6" cy="61.6" r="2.0" fill="hsl(86, 72%, 68%)" fill-opacity="0.43"  transform="translate(6.5 66.8) rotate(164.0) scale(0.82 0.88)" />
<circle cx="73.9" cy="15.7" r="2.9" fill="url(#g2)" fill-opacity="0.41"  transform="translate(77.8 1.1) rotate(352.5) scale(0.72 1.19)" />
<rect x="8.8" y="3.3" width="42.6" height="35.5" rx="13.2" fill="none" fill-opacity="0.30"   transform="translate(76.2 83.9) rotate(26.9) scale(1.66 0.86)" />
<path d="M 30.8 82.2 C 38.2 72.9, 44.6 75.4, 41.7 77.2 C 28.3 66.0, 76.8 90.9, 75.2 91.7 C 56.2 84.8, 54.1 68.7, 40.8 71.5 C 43.0 70.7, 56.4 99.4, 55.5 96.8 C 41.1 88.4, 97.3 71.3, 91.2 69.6 C 71.7 62.0, 100.0 70.0, 96.4 57.7 C 99.8 51.6, 26.9 61.3, 16.0 68.2 C 13.0 67.4, 86.0 96.3, 84.1 90.5 Z" fill="hsl(86, 72%, 68%)" fill-opacity="0.54" stroke="none" stroke-width="4.84"  transform="translate(86.6 18.7) rotate(156.7) scale(1.81 1.41)" />
<path d="M 55.1 89.7 C 74.8 88.6, 61.8 43.9, 63.3 46.8 C 57.4 37.5, 50.8 46.6, 42.6 54.4 C 42.3 56.9, 75.5 32.4, 80.1 46.4 C 97.4 45.0, 88.8 82.3, 96.1 91.7 C 97.7 89.8, 73.4 10.8, 83.2 19.9 C 92.7 2.9, 17.3 92.9, 28.7 87.4 C 30.6 83.3, 9.7 12.0, 17.7 19.1 Z" fill="hsl(322, 74%, 44%)" fill-opacity="0.53" stroke="none" stroke-width="2.77"  transform="translate(46.9 15.5) rotate(291.0) scale(0.95 0.96)" />
<path d="M 88.6 99.2 C 100.0 100.0, 70.9 4.8, 85.0 6.0 C 71.2 1.2, 46.8 83.2, 47.8 75.9 C 54.2 73.0, 34.3 45.8, 39.4 33.5 C 52.1 46.9, 100.0 49.5, 91.5 55.5 C 95.8 59.4, 60.7 100.0, 66.4 91.8 C 65.9 100.0, 81.2 62.6, 94.1 75.3 C 86.4 58.0, 28.4 11.2, 13.4 12.3 C 7.7 29.1, 51.4 52.3, 57.0 66.9 C 42.2 58.1, 64.4 12.2, 58.4 9.4 " fill="hsl(183, 71%, 60%)" fill-opacity="0.51" stroke="none" stroke-width="1.02"  transform="translate(77.8 2.8) rotate(93.5) scale(1.60 1.63)" />
<path d="M 46.4 28.1 C 30.9 19.6, 79.4 5.6, 67.5 15.0 C 71.2 13.0, 34.2 29.4, 43.9 17.5 C 47.9 11.5, 100.0 61.6, 90.8 66.4 C 72.7 85.1, 35.8 42.9, 44.2 46.4 C 61.7 51.6, 22.7 25.9, 13.2 40.7 C 16.9 44.2, 100.0 8.6, 96.1 0.3 C 87.8 0.0, 92.4 92.7, 94.9 85.0 C 100.0 87.2, 69.7 69.9, 61.9 72.1 C 70.8 76.4, 87.7 59.6, 73.0 63.7 C 65.5 57.7, 87.7 92.0, 83.7 78.6 Z" fill="none" fill-opacity="0.50" stroke="hsl(242, 72%, 49%)" stroke-width="1.48"  transform="translate(42.5 90.9) rotate(294.9) scale(1.30 0.66)" />
<rect x="4.2" y="49.4" width="31.1" height="10.8" rx="0" fill="none" fill-opacity="0.78"   transform="translate(79.3 89.8) rotate(203.5) scale(1.56 0.82)" />
<circle cx="61.9" cy="39.2" r="7.8" fill="url(#g1)" fill-opacity="0.77"  transform="translate(35.7 68.3) rotate(111.4) scale(1.33 0.72)" />
<rect x="45.2" y="45.3" width="44.9" height="31.7" rx="7.1" fill="hsl(40, 53%, 69%)" fill-opacity="0.55"   transform="translate(95.4 25.3) rotate(89.4) scale(1.26 1.96)" />
<path d="M 62.0 18.8 C 77.5 36.1, 57.9 71.4, 55.8 73.3 C 69.3 85.9, 71.9 46.3, 73.7 32.4 C 92.6 14.0, 79.0 47.1, 74.2 59.9 C 58.7 69.6, 21.6 73.0, 15.3 83.4 C 0.0 82.5, 58.2 100.0, 57.1 93.0 C 66.8 100.0, 91.0 63.3, 79.1 66.9 C 84.1 85.3, 51.0 21.1, 45.5 14.1 Z" fill="none" fill-opacity="0.63" stroke="hsl(83, 65%, 44%)" stroke-width="3.58"  transform="translate(59.3 34.9) rotate(41.8) scale(1.82 1.29)" />
<circle cx="41.7" cy="44.6" r="8.5" fill="hsl(183, 71%, 60%)" fill-opacity="0.68"  transform="translate(47.3 83.7) rotate(13.0) scale(1.62 0.65)" />
<path d="M 90.6 22.6 C 85.1 2.9, 37.7 42.3, 24.1 45.3 C 25.5 29.7, 91.4 98.4, 84.6 84.2 C 95.1 84.9, 22.7 41.6, 36.5 43.9 C 43.9 55.5, 22.6 0.0, 8.8 13.5 C 18.2 10.8, 9.8 95.8, 11.8 91.4 C 7.8 100.0, 98.4 54.3, 88.2 40.2 Z" fill="hsl(144, 86%, 72%)" fill-opacity="0.81" stroke="none" stroke-width="2.49"  transform="translate(28.1 11.9) rotate(79.3) scale(1.72 1.45)" />
<rect x="28.3" y="0.6" width="36.2" height="36.9" rx="0" fill="hsl(104, 72%, 65%)" fill-opacity="0.30"   transform="translate(56.2 51.8) rotate(113.4) scale(1.16 1.32)" />
<path d="M 24.9 17.2 C 22.2 5.2, 100.0 43.4, 89.4 54.3 C 100.0 69.0, 36.9 43.1, 41.8 40.8 C 54.3 40.9, 17.0 16.4, 3.5 15.1 C 0.0 34.9, 33.3 24.3, 38.7 16.5 C 38.0 29.0, 43.6 64.2, 37.2 69.5 C 36.5 70.9, 65.2 67.8, 52.0 58.7 C 70.2 64.6, 57.2 86.6, 56.7 98.3 C 58.1 100.0, 94.8 21.6, 80.2 17.7 Z" fill="none" fill-opacity="0.49" stroke="hsl(106, 75%, 59%)" stroke-width="1.76"  transform="translate(27.9 43.0) rotate(313.6) scale(0.61 0.91)" />
<circle cx="65.5" cy="60.9" r="2.9" fill="hsl(322, 74%, 44%)" fill-opacity="0.93"  transform="translate(56.2 82.7) rotate(274.1) scale(1.97 1.18)" />
<path d="M 49.4 0.7 C 46.2 13.5, 25.9 16.1, 27.5 17.8 C 17.0 0.0, 58.9 54.8, 67.0 60.6 C 78.3 80.2, 46.7 74.9, 40.5 64.0 C 21.7 52.8, 83.6 14.0, 75.2 14.0 C 72.9 12.4, 77.2 60.7, 70.4 72.9 C 72.0 55.2, 28.7 63.8, 40.1 54.9 Z" fill="hsl(106, 75%, 59%)" fill-opacity="0.81" stroke="none" stroke-width="4.35"  transform="translate(67.4 45.1) rotate(26.9) scale(0.52 1.74)" />
<circle cx="10.4" cy="86.9" r="3.1" fill="url(#g1)" fill-opacity="0.68" filter="url(#f1)" transform="translate(92.7 45.2) rotate(7.9) scale(1.24 1.78)" />
<path d="M 43.5 87.4 C 44.7 83.5, 70.1 27.6, 63.1 18.6 C 56.9 6.3, 42.4 3.8, 54.4 1.8 C 38.6 0.0, 68.3 60.0, 71.8 57.3 C 80.1 53.9, 40.8 100.0, 40.0 90.5 C 23.2 100.0, 54.5 38.5, 63.6 32.1 C 69.1 51.2, 60.5 27.3, 69.4 32.0 Z" fill="none" fill-opacity="0.70" stroke="hsl(86, 72%, 68%)" stroke-width="4.42"  transform="translate(61.6 75.2) rotate(308.4) scale(1.38 0.98)" />
<rect x="13.7" y="44.1" width="27.2" height="26.0" rx="15.4" fill="hsl(104, 72%, 65%)" fill-opacity="0.84"   transform="translate(70.0 83.1) rotate(21.6) scale(0.88 0.61)" />
<path d="M 96.0 90.7 C 100.0 91.2, 50.0 27.8, 39.6 32.0 C 24.2 13.4, 8.0 0.0, 19.0 5.5 C 12.3 0.0, 42.7 46.7, 53.3 46.7 C 47.7 36.3, 65.9 57.5, 76.8 67.7 C 79.9 67.0, 22.7 37.9, 8.4 37.0 C 0.0 22.9, 80.0 88.7, 77.6 94.3 C 88.9 95.8, 20.1 52.3, 10.6 55.1 C 13.7 48.3, 100.0 19.4, 95.4 16.9 Z" fill="hsl(2, 82%, 55%)" fill-opacity="0.27" stroke="none" stroke-width="2.18"  transform="translate(50.9 44.3) rotate(297.9) scale(0.98 1.39)" />
<rect x="42.4" y="48.3" width="20.4" height="24.8" rx="0" fill="none" fill-opacity="0.26"   transform="translate(5.6 17.9) rotate(183.3) scale(1.07 0.58)" />
<circle cx="42.3" cy="76.6" r="9.5" fill="hsl(40, 53%, 69%)" fill-opacity="0.62"  transform="translate(45.1 94.1) rotate(122.9) scale(1.38 0.75)" />
<path d="M 68.7 5.8 C 69.9 1.9, 100.0 54.0, 95.7 50.3 C 87.1 47.1, 86.4 96.9, 80.4 97.9 C 95.1 99.3, 20.2 0.0, 28.2 8.7 C 34.0 0.0, 22.3 33.7, 11.6 24.0 C 13.2 21.8, 84.4 89.2, 80.0 93.4 C 84.4 100.0, 82.1 0.0, 75.3 8.6 C 81.7 0.0, 51.2 97.2, 50.4 89.7 C 38.6 100.0, 65.8 69.0, 71.9 79.2 Z" fill="hsl(2, 82%, 55%)" fill-opacity="0.27" stroke="none" stroke-width="3.87"  transform="translate(50.7 57.1) rotate(22.9) scale(1.68 1.83)" />
<rect x="42.8" y="27.8" width="39.8" height="32.1" rx="0" fill="hsl(86, 72%, 68%)" fill-opacity="0.73"   transform="translate(85.5 32.0) rotate(274.5) scale(1.36 1.69)" />
<rect x="48.2" y="23.7" width="44.1" height="38.6" rx="11.7" fill="hsl(40, 53%, 69%)" fill-opacity="0.76"   transform="translate(31.3 7.7) rotate(334.5) scale(1.38 0.63)" />
<rect x="22.6" y="6.2" width="34.5" height="18.3" rx="0" fill="hsl(104, 72%, 65%)" fill-opacity="0.82"   transform="translate(8.3 57.4) rotate(128.1) scale(0.76 1.60)" />
<path d="M 13.5 10.5 C 17.7 20.9, 59.6 95.7, 54.5 98.2 C 49.0 92.6, 92.0 0.0, 81.3 5.0 C 89.7 6.4, 74.0 61.8, 83.5 65.6 C 66.9 63.5, 96.3 68.3, 90.5 76.9 C 100.0 63.4, 80.4 84.9, 77.8 89.2 C 82.4 81.9, 30.0 21.9, 42.1 16.0 C 51.0 5.7, 73.5 87.6, 75.3 87.6 C 70.1 71.2, 100.0 2.2, 86.1 0.9 C 89.6 9.7, 7.0 68.1, 19.5 64.7 C 38.6 57.0, 33.4 16.2, 35.9 27.9 Z" fill="none" fill-opacity="0.37" stroke="hsl(83, 65%, 44%)" stroke-width="2.11"  transform="translate(74.6 29.2) rotate(204.4) scale(0.57 0.78)" />
<circle cx="15.9" cy="47.8" r="6.6" fill="hsl(83, 65%, 44%)" fill-opacity="0.82"  transform="translate(56.6 16.5) rotate(238.7) scale(0.62 0.89)" />
<circle cx="12.0" cy="68.2" r="17.2" fill="url(#g2)" fill-opacity="0.61"   />
<path d="M 12.0 79.5 C 11.1 68.6, 89.1 100.0, 79.5 93.3 C 95.8 77.9, 71.7 16.5, 67.0 21.6 C 52.4 12.4, 80.8 48.9, 89.4 54.3 C 96.9 71.8, 35.7 16.1, 29.4 26.3 C 48.4 30.9, 43.0 28.1, 55.9 41.2 C 58.9 24.8, 31.7 17.6, 45.9 25.9 C 28.8 13.5, 90.2 64.7, 85.8 61.3 C 95.3 69.5, 19.4 30.6, 32.9 17.9 C 47.4 35.1, 67.2 24.0, 59.1 14.5 " fill="hsl(104, 72%, 65%)" fill-opacity="0.58" stroke="none" stroke-width="5.09"  transform="translate(74.2 11.6) rotate(184.1) scale(1.71 1.74)" />
<rect x="3.6" y="15.0" width="35.7" height="18.6" rx="1.7" fill="hsl(151, 70%, 62%)" fill-opacity="0.22"   transform="translate(24.9 65.5) rotate(12.4) scale(1.58 1.07)" />
<rect x="2.7" y="45.9" width="23.9" height="16.3" rx="17.6" fill="hsl(40, 53%, 69%)" fill-opacity="0.82"   transform="translate(6.2 28.4) rotate(220.5) scale(1.98 1.89)" />
<path d="M 7.6 46.1 C 0.0 51.8, 80.7 89.9, 79.3 94.3 C 66.9 100.0, 12.7 50.4, 20.3 37.2 C 16.9 28.1, 27.7 79.7, 23.7 85.7 C 17.7 83.1, 6.9 66.8, 21.1 63.2 C 35.2 55.7, 27.3 21.6, 19.1 32.9 C 3.3 41.1, 67.6 46.3, 57.3 34.9 Z" fill="hsl(40, 53%, 69%)" fill-opacity="0.75" stroke="none" stroke-width="2.55"  transform="translate(21.0 72.9) rotate(256.5) scale(1.17 1.08)" />
<path d="M 38.2 85.4 C 25.1 99.7, 33.9 40.3, 37.4 35.3 C 36.7 16.1, 77.2 3.3, 68.9 6.8 C 88.2 0.5, 71.4 33.1, 82.7 36.1 C 66.1 37.2, 34.8 12.0, 31.6 19.4 C 24.8 17.7, 30.4 20.0, 43.3 32.0 C 49.4 42.6, 24.1 88.0, 24.6 92.6 C 25.6 95.0, 63.1 7.6, 74.9 4.5 C 58.5 0.0, 30.6 49.2, 38.2 45.7 " fill="hsl(151, 70%, 62%)" fill-opacity="0.59" stroke="none" stroke-width="5.19"  transform="translate(47.2 88.5) rotate(82.8) scale(1.97 0.59)" />
<path d="M 39.7 9.9 C 40.1 13.2, 18.2 75.4, 30.6 63.0 C 44.0 81.8, 70.8 93.9, 70.9 95.3 C 75.2 100.0, 60.0 11.0, 58.1 9.7 C 77.5 21.2, 69.5 73.8, 68.8 65.4 C 85.1 73.9, 37.8 50.8, 52.3 46.7 C 55.5 60.4, 95.1 18.7, 85.8 20.8 C 100.0 16.2, 76.8 0.0, 79.5 2.8 C 61.2 15.6, 99.6 79.2, 90.8 87.0 Z" fill="none" fill-opacity="0.95" stroke="hsl(322, 74%, 44%)" stroke-width="3.36"  transform="translate(57.2 6.9) rotate(73.5) scale(0.95 1.61)" />
<path d="M 25.5 35.0 C 33.0 39.2, 44.7 21.7, 40.1 22.2 C 49.4 37.9, 36.6 24.1, 46.3 11.7 C 45.7 0.0, 79.4 43.0, 75.2 50.6 C 87.7 46.7, 66.3 81.8, 66.9 77.9 C 65.7 86.6, 15.5 37.2, 2.8 44.6 C 16.7 51.8, 60.4 24.0, 63.1 22.5 C 50.6 23.0, 76.0 92.5, 90.5 93.8 C 80.5 100.0, 27.5 2.9, 42.1 8.3 C 51.4 22.0, 1.0 99.4, 8.6 85.9 Z" fill="hsl(106, 75%, 59%)" fill-opacity="0.51" stroke="none" stroke-width="1.90" filter="url(#f1)" transform="translate(11.6 86.1) rotate(82.3) scale(1.17 1.51)" />
<circle cx="51.2" cy="10.5" r="4.4" fill="url(#g1)" fill-opacity="0.92"  transform="translate(62.2 18.2) rotate(327.8) scale(1.01 1.99)" />
<path d="M 48.0 86.9 C 29.3 96.9, 48.7 50.6, 35.0 65.2 C 29.8 77.6, 87.8 32.2, 91.5 32.2 C 79.9 19.7, 34.8 86.9, 26.6 88.7 C 35.5 94.5, 55.6 79.8, 59.4 68.9 C 52.4 80.6, 79.2 86.6, 92.2 94.6 C 100.0 100.0, 41.4 70.0, 42.6 76.2 C 47.1 93.4, 92.6 35.9, 86.4 39.9 C 82.7 54.5, 49.4 100.0, 62.7 90.2 C 69.7 100.0, 21.8 21.8, 15.7 18.4 " fill="none" fill-opacity="0.56" stroke="hsl(106, 75%, 59%)" stroke-width="2.99"  transform="translate(28.1 28.8) rotate(97.2) scale(1.51 1.09)" />
<path d="M 18.9 46.2 C 30.4 58.4, 65.2 43.7, 69.7 32.4 C 87.7 50.3, 0.0 82.6, 3.8 70.4 C 0.0 69.7, 22.3 28.8, 21.7 17.5 C 24.1 9.1, 93.3 41.8, 83.0 28.7 C 94.8 33.4, 56.9 77.7, 70.3 90.5 C 88.4 100.0, 30.5 40.1, 33.3 48.0 C 45.4 57.3, 21.4 48.3, 12.7 48.4 C 15.5 53.1, 61.0 100.0, 73.8 91.1 C 93.6 94.7, 0.0 47.5, 0.8 52.7 Z" fill="hsl(86, 72%, 68%)" fill-opacity="0.56" stroke="none" stroke-width="1.45"  transform="translate(11.3 0.0) rotate(336.6) scale(1.47 1.90)" />
<path d="M 100.0 100.0 C 98.7 88.5, 10.7 22.1, 24.3 12.1 C 16.8 7.8, 64.0 11.1, 50.3 19.8 C 38.8 27.1, 36.3 71.6, 41.0 78.7 C 52.0 78.1, 60.2 90.4, 47.4 76.1 C 58.7 76.2, 44.0 84.4, 35.6 94.1 C 52.1 99.0, 89.9 2.6, 91.7 2.1 C 99.0 17.1, 59.1 0.4, 69.9 13.8 C 85.7 29.7, 2.2 73.0, 7.8 80.9 C 12.1 87.7, 38.3 88.0, 28.2 82.6 Z" fill="none" fill-opacity="0.91" stroke="hsl(144, 86%, 72%)" stroke-width="4.49"  transform="translate(85.2 84.4) rotate(135.9) scale(1.90 1.69)" />
<rect x="32.5" y="59.7" width="34.1" height="23.7" rx="13.0" fill="none" fill-opacity="0.40" stroke="hsl(86, 72%, 68%)" stroke-width="2.8"   />
<path d="M 96.1 8.8 C 100.0 15.3, 28.1 24.9, 20.7 22.0 C 21.1 33.3, 45.5 21.3, 59.2 20.4 C 79.2 13.1, 73.8 3.3, 88.3 3.9 C 73.0 21.3, 65.5 12.7, 52.9 10.2 C 48.3 5.7, 91.5 72.6, 78.7 68.3 C 60.2 59.2, 40.8 30.1, 41.3 16.3 C 53.7 29.8, 64.9 89.7, 66.4 86.5 Z" fill="hsl(2, 82%, 55%)" fill-opacity="0.40" stroke="none" stroke-width="4.05"  transform="translate(71.3 69.1) rotate(275.7) scale(1.53 1.22)" />
<path d="M 64.7 84.6 C 68.5 71.4, 44.2 100.0, 46.0 98.6 C 57.3 93.6, 7.3 15.3, 3.3 5.8 C 0.0 16.3, 100.0 60.1, 99.7 64.8 C 100.0 52.6, 54.0 5.3, 65.5 15.9 C 70.2 27.7, 71.7 23.7, 61.5 31.5 C 67.2 49.1, 55.9 40.3, 46.3 50.4 C 35.1 59.5, 8.5 68.5, 14.2 68.8 C 3.4 81.9, 14.1 69.4, 5.8 79.7 C 0.0 80.4, 97.0 95.6, 98.8 88.2 Z" fill="hsl(290, 83%, 63%)" fill-opacity="0.82" stroke="none" stroke-width="3.48"  transform="translate(72.4 21.2) rotate(31.2) scale(1.16 1.81)" />
<path d="M 62.1 0.6 C 64.4 0.0, 42.3 49.2, 47.6 36.2 C 43.2 31.7, 58.7 23.6, 69.9 20.3 C 51.3 25.4, 53.6 29.0, 54.5 15.9 C 58.8 0.0, 100.0 31.5, 89.5 23.0 C 94.8 36.0, 59.7 47.8, 51.1 57.2 C 51.1 58.2, 34.1 14.0, 35.3 26.2 C 51.8 33.0, 82.3 29.2, 73.2 34.2 C 69.9 25.1, 41.8 25.8, 28.5 33.7 C 42.7 34.1, 19.3 39.2, 16.1 46.2 C 6.7 60.6, 30.6 70.1, 20.2 75.3 Z" fill="hsl(242, 72%, 49%)" fill-opacity="0.35" stroke="none" stroke-width="3.53"  transform="translate(86.9 25.6) rotate(280.8) scale(1.52 0.94)" />
<path d="M 58.0 49.7 C 43.9 41.8, 16.3 50.7, 24.6 65.6 C 37.2 55.8, 100.0 0.0, 95.5 7.0 C 100.0 24.0, 10.5 81.4, 8.1 66.7 C 10.2 72.6, 31.1 59.3, 23.4 46.8 C 37.9 57.0, 14.3 19.1, 28.4 25.2 C 23.7 37.6, 3.7 95.2, 8.2 95.6 Z" fill="none" fill-opacity="0.77" stroke="hsl(183, 71%, 60%)" stroke-width="4.72" filter="url(#f1)" transform="translate(56.4 79.8) rotate(118.8) scale(0.70 1.77)" />
<rect x="22.1" y="65.4" width="35.4" height="12.9" rx="19.7" fill="none" fill-opacity="0.84" stroke="hsl(290, 83%, 63%)" stroke-width="2.9"  transform="translate(23.2 51.6) rotate(278.3) scale(0.84 1.02)" />
<path d="M 97.7 88.3 C 100.0 99.0, 53.2 33.5, 47.6 47.1 C 63.0 51.2, 92.8 2.0, 96.1 0.8 C 92.7 0.0, 24.0 66.9, 23.4 74.8 C 34.6 68.8, 100.0 54.5, 88.6 57.7 C 100.0 43.3, 57.7 84.0, 52.5 91.6 C 38.2 95.5, 86.2 67.6, 87.8 61.1 C 89.6 63.1, 100.0 12.1, 99.9 21.2 C 85.3 18.7, 100.0 61.3, 99.9 56.1 C 98.3 52.2, 76.4 61.4, 80.5 57.0 Z" fill="hsl(86, 72%, 68%)" fill-opacity="0.99" stroke="none" stroke-width="1.40"  transform="translate(60.4 20.5) rotate(61.3) scale(1.04 0.58)" />
<path d="M 90.2 50.5 C 100.0 34.3, 18.1 89.0, 18.2 96.9 C 19.5 100.0, 35.9 47.3, 48.4 56.8 C 63.1 37.0, 97.8 15.0, 86.1 13.9 C 74.8 24.2, 80.8 87.9, 68.7 81.4 C 61.5 66.2, 83.6 20.7, 95.2 5.9 C 100.0 0.0, 53.2 87.3, 57.4 73.1 Z" fill="none" fill-opacity="0.78" stroke="hsl(2, 82%, 55%)" stroke-width="2.36"  transform="translate(30.5 15.7) rotate(172.7) scale(1.23 0.56)" />
<path d="M 33.4 52.1 C 45.6 38.2, 74.8 83.6, 81.2 70.0 C 69.7 69.7, 24.1 24.4, 37.3 21.2 C 24.5 24.0, 40.0 24.0, 44.5 23.4 C 41.6 32.5, 45.8 72.1, 47.5 66.0 C 49.5 57.9, 37.5 100.0, 40.7 93.5 C 53.1 100.0, 77.4 95.6, 84.7 93.1 C 88.0 100.0, 72.1 34.8, 86.9 40.5 C 85.1 42.3, 3.6 0.0, 6.4 4.5 Z" fill="none" fill-opacity="0.75" stroke="hsl(40, 53%, 69%)" stroke-width="2.74"   />
<circle cx="83.1" cy="21.5" r="14.0" fill="hsl(322, 74%, 44%)" fill-opacity="0.90"  transform="translate(5.5 16.6) rotate(80.0) scale(1.69 0.88)" />
<rect x="32.4" y="6.9" width="25.2" height="24.9" rx="19.8" fill="none" fill-opacity="0.89"   transform="translate(7.9 13.1) rotate(185.6) scale(0.71 1.08)" />
<rect x="1.7" y="58.7" width="29.7" height="37.9" rx="0" fill="none" fill-opacity="0.36"  filter="url(#f1)" transform="translate(84.5 51.9) rotate(204.1) scale(1.03 1.26)" />
<rect x="33.6" y="36.7" width="36.4" height="19.7" rx="0" fill="none" fill-opacity="0.47"    />
<circle cx="33.9" cy="66.0" r="5.1" fill="url(#g0)" fill-opacity="0.46"   />
<rect x="10.3" y="20.4" width="44.5" height="39.1" rx="0" fill="hsl(2, 82%, 55%)" fill-opacity="0.32" stroke="hsl(2, 82%, 55%)" stroke-width="4.8"  transform="translate(57.9 52.9) rotate(316.1) scale(1.34 0.91)" />
<path d="M 45.5 38.2 C 60.6 39.9, 27.6 59.9, 37.1 60.9 C 26.6 48.6, 62.9 93.2, 65.2 92.6 C 53.6 100.0, 50.9 78.8, 55.1 64.4 C 39.2 59.8, 26.8 72.3, 37.7 64.1 C 56.7 81.1, 8.9 0.4, 23.8 6.2 C 16.3 0.0, 33.8 82.2, 31.4 87.6 C 22.0 95.8, 41.9 19.1, 41.0 18.5 C 33.3 27.8, 4.6 84.5, 17.2 96.6 Z" fill="none" fill-opacity="0.68" stroke="hsl(106, 75%, 59%)" stroke-width="2.90"  transform="translate(21.1 34.1) rotate(215.6) scale(1.44 1.39)" />
<path d="M 74.7 93.1 C 61.4 86.7, 24.9 0.0, 30.5 3.2 C 14.3 23.2, 57.0 85.9, 68.1 78.9 C 53.5 85.3, 14.0 91.2, 23.6 86.3 C 23.0 76.8, 67.2 22.2, 62.9 24.6 C 69.0 22.1, 0.0 14.8, 4.1 6.4 C 1.1 5.5, 95.5 80.2, 86.1 92.1 Z" fill="hsl(242, 72%, 49%)" fill-opacity="0.28" stroke="none" stroke-width="3.47"  transform="translate(17.9 76.3) rotate(37.2) scale(1.23 1.75)" />
<path d="M 6.2 15.2 C 24.4 35.0, 2.8 13.3, 13.4 18.9 C 0.0 12.4, 0.6 0.5, 12.3 7.8 C 12.8 0.0, 31.5 32.3, 42.0 36.1 C 33.9 25.5, 98.9 27.0, 96.5 14.2 C 87.7 0.0, 4.9 14.3, 12.2 10.0 C 6.9 0.0, 100.0 74.2, 99.8 81.4 C 100.0 92.6, 20.6 74.1, 5.7 69.7 C 16.5 59.3, 46.3 0.0, 41.9 3.6 C 56.0 0.0, 83.5 89.8, 96.3 83.4 Z" fill="hsl(104, 72%, 65%)" fill-opacity="0.73" stroke="none" stroke-width="2.63"  transform="translate(50.1 24.8) rotate(321.3) scale(1.28 1.17)" />
<path d="M 33.5 5.9 C 32.9 0.0, 68.4 0.0, 70.0 6.6 C 80.9 13.3, 84.3 26.9, 85.7 33.3 C 84.3 13.5, 15.7 52.5, 19.9 61.1 C 14.3 55.7, 37.6 51.3, 32.9 53.2 C 44.9 41.4, 57.7 36.5, 64.2 32.1 C 72.7 30.8, 51.9 66.2, 56.8 59.6 C 70.7 68.9, 100.0 84.1, 92.7 69.4 C 92.3 88.3, 25.7 60.1, 24.4 55.5 C 16.6 51.2, 10.2 73.1, 17.1 83.4 Z" fill="none" fill-opacity="0.41" stroke="hsl(83, 65%, 44%)" stroke-width="1.16" filter="url(#f1)" transform="translate(98.9 35.8) rotate(180.8) scale(1.05 1.45)" />
<rect x="35.3" y="52.1" width="42.3" height="25.4" rx="0" fill="none" fill-opacity="0.91"   transform="translate(60.3 91.2) rotate(131.0) scale(1.66 0.92)" />
<path d="M 74.7 2.7 C 82.7 14.4, 31.6 31.5, 45.2 32.9 C 43.4 17.6, 42.4 57.9, 54.5 60.9 C 64.6 79.6, 48.6 13.0, 61.8 9.3 C 58.8 6.0, 64.3 59.0, 65.9 46.5 C 56.8 47.1, 31.0 0.0, 31.6 5.5 C 35.8 0.0, 46.1 98.3, 52.3 87.9 Z" fill="hsl(106, 75%, 59%)" fill-opacity="0.76" stroke="none" stroke-width="2.32"   />
<rect x="58.5" y="38.2" width="32.8" height="15.1" rx="0" fill="hsl(2, 82%, 55%)" fill-opacity="0.40" stroke="hsl(290, 83%, 63%)" stroke-width="3.1" filter="url(#f1)" transform="translate(38.7 86.8) rotate(347.5) scale(0.91 0.73)" />
<path d="M 94.2 85.4 C 77.5 81.5, 56.7 47.5, 54.3 36.4 C 73.6 20.5, 6.1 59.3, 16.8 50.2 C 24.9 30.8, 9.1 75.3, 18.2 89.5 C 6.9 76.6, 25.5 52.6, 32.3 59.1 C 51.1 62.8, 68.6 72.1, 79.0 72.8 C 70.5 52.9, 64.2 7.5, 78.3 8.3 Z" fill="hsl(40, 53%, 69%)" fill-opacity="0.60" stroke="none" stroke-width="5.11"  transform="translate(75.0 12.8) rotate(64.4) scale(1.74 1.41)" />
<path d="M 54.4 45.0 C 46.0 34.1, 41.0 52.7, 49.0 49.2 C 36.3 33.4, 49.0 84.1, 63.8 90.0 C 53.8 94.4, 21.5 24.2, 32.5 25.3 C 22.5 40.9, 31.0 51.9, 16.3 46.7 C 35.8 48.0, 73.8 48.6, 61.9 57.1 C 65.3 70.9, 83.8 67.3, 77.4 57.0 C 91.5 49.4, 98.1 91.7, 91.8 84.3 Z" fill="none" fill-opacity="0.43" stroke="hsl(83, 65%, 44%)" stroke-width="2.40"  transform="translate(28.2 45.5) rotate(244.9) scale(0.75 1.45)" />
<circle cx="50.8" cy="96.6" r="2.8" fill="url(#g0)" fill-opacity="0.98" filter="url(#f1)" transform="translate(98.8 53.5) rotate(269.4) scale(0.79 1.52)" />
<circle cx="39.6" cy="50.6" r="19.8" fill="url(#g1)" fill-opacity="0.52"  transform="translate(76.2 6.4) rotate(259.9) scale(1.01 1.75)" />
<path d="M 95.9 9.0 C 83.2 21.0, 6.5 71.6, 20.0 78.0 C 0.7 86.5, 26.6 9.3, 38.9 17.9 C 48.7 10.0, 17.3 38.8, 17.8 43.0 C 3.1 43.8, 81.4 17.5, 79.2 19.9 C 69.8 27.8, 5.5 63.3, 19.9 67.8 C 11.6 67.4, 75.9 56.7, 86.5 42.5 C 96.7 33.1, 46.5 92.1, 58.6 78.5 Z" fill="hsl(242, 72%, 49%)" fill-opacity="0.86" stroke="none" stroke-width="1.10"   />
<rect x="34.8" y="28.8" width="33.7" height="25.9" rx="0" fill="none" fill-opacity="0.35" stroke="hsl(290, 83%, 63%)" stroke-width="1.2"  transform="translate(65.9 57.6) rotate(292.1) scale(0.53 1.32)" />
<circle cx="68.1" cy="95.6" r="9.8" fill="url(#g2)" fill-opacity="0.63"  transform="translate(87.4 66.6) rotate(63.1) scale(1.51 1.72)" />
<path d="M 75.1 49.2 C 71.5 55.0, 65.0 87.5, 69.7 82.8 C 71.1 92.5, 1.8 98.4, 2.5 98.0 C 12.1 100.0, 17.7 63.9, 16.1 78.0 C 4.3 66.5, 70.5 11.7, 84.3 3.9 C 86.3 22.9, 92.0 33.3, 89.7 28.0 C 94.3 33.1, 38.5 48.7, 44.0 53.5 C 62.3 53.2, 81.2 7.2, 84.8 2.7 C 94.1 16.7, 52.2 92.2, 39.4 93.4 C 59.2 82.9, 50.3 89.7, 40.8 95.7 Z" fill="none" fill-opacity="0.71" stroke="hsl(2, 82%, 55%)" stroke-width="5.08"  transform="translate(81.2 91.5) rotate(308.5) scale(1.95 1.04)" />
<rect x="32.5" y="79.1" width="38.2" height="10.7" rx="19.7" fill="none" fill-opacity="0.87"   transform="translate(74.8 37.3) rotate(316.4) scale(0.97 1.17)" />
<rect x="11.2" y="4.4" width="32.6" height="29.0" rx="6.1" fill="none" fill-opacity="0.60"   transform="translate(86.5 7.6) rotate(333.8) scale(0.62 0.96)" />
<path d="M 69.9 60.8 C 52.6 54.6, 59.4 40.2, 66.0 44.3 C 65.1 58.8, 79.5 18.8, 73.0 9.4 C 56.7 16.1, 77.9 46.8, 63.4 38.7 C 62.5 29.4, 20.8 47.2, 20.5 33.5 C 15.9 33.6, 48.7 7.9, 36.1 15.8 C 48.8 2.7, 55.5 72.7, 63.9 72.5 C 56.5 63.0, 57.0 69.0, 69.2 76.8 C 58.2 59.7, 8.4 52.2, 16.6 49.3 C 19.1 53.7, 74.1 54.4, 73.0 41.1 C 61.1 34.7, 69.7 24.6, 57.3 24.6 Z" fill="hsl(104, 72%, 65%)" fill-opacity="0.60" stroke="none" stroke-width="3.65" filter="url(#f1)" transform="translate(71.7 14.5) rotate(348.6) scale(1.42 0.70)" />
<path d="M 84.3 15.7 C 82.6 23.2, 43.4 10.1, 54.4 1.5 C 40.8 18.7, 0.0 47.8, 5.2 39.4 C 12.2 29.1, 10.5 96.0, 17.8 87.4 C 27.2 80.9, 44.2 58.8, 55.5 70.9 C 71.5 68.9, 78.9 64.2, 69.1 62.1 C 59.9 44.9, 94.8 67.8, 96.4 55.1 C 100.0 47.5, 32.7 82.9, 29.3 79.5 Z" fill="hsl(151, 70%, 62%)" fill-opacity="0.45" stroke="none" stroke-width="2.31" filter="url(#f1)" transform="translate(22.5 47.9) rotate(162.6) scale(0.92 0.61)" />
<circle cx="32.9" cy="82.4" r="0.5" fill="url(#g1)" fill-opacity="0.66"  transform="translate(6.4 81.9) rotate(212.9) scale(0.65 0.91)" />
<circle cx="9.4" cy="55.9" r="8.0" fill="hsl(86, 72%, 68%)" fill-opacity="0.81" filter="url(#f1)" transform="translate(37.5 18.5) rotate(139.1) scale(1.26 1.10)" />
<circle cx="27.8" cy="2.1" r="9.3" fill="url(#g1)" fill-opacity="0.95"  transform="translate(2.3 44.1) rotate(89.3) scale(1.57 1.51)" />
<path d="M 32.7 52.6 C 36.8 60.3, 73.3 73.6, 85.6 81.8 C 100.0 98.5, 52.5 6.7, 46.6 21.3 C 52.7 31.9, 56.2 56.4, 47.3 68.7 C 31.1 66.2, 36.3 0.0, 22.8 1.2 C 15.1 0.0, 4.4 18.2, 5.9 30.1 C 0.0 49.7, 65.5 45.4, 69.9 46.6 C 51.6 62.1, 83.6 100.0, 80.4 99.6 C 63.6 100.0, 55.6 21.6, 62.1 27.5 C 60.3 33.4, 56.7 43.6, 69.9 37.1 C 76.4 17.9, 39.9 17.6, 50.0 10.5 Z" fill="hsl(86, 72%, 68%)" fill-opacity="0.92" stroke="none" stroke-width="2.94" filter="url(#f1)" transform="translate(64.7 81.2) rotate(97.9) scale(1.98 1.04)" />
<path d="M 52.5 46.6 C 71.9 45.1, 72.2 26.6, 62.4 27.6 C 72.9 7.9, 80.0 70.0, 71.6 78.6 C 71.4 67.0, 85.5 77.5, 92.8 81.8 C 100.0 83.8, 39.8 10.2, 53.3 5.0 C 43.8 16.7, 48.7 50.7, 55.1 65.1 C 55.5 76.0, 51.1 84.5, 39.7 87.7 C 31.7 90.8, 47.8 50.7, 58.0 49.6 C 55.6 57.8, 7.1 73.0, 4.4 77.9 C 7.5 59.0, 27.8 10.8, 16.7 25.4 C 33.1 30.4, 63.7 42.0, 65.9 46.2 Z" fill="hsl(106, 75%, 59%)" fill-opacity="0.35" stroke="none" stroke-width="3.19" filter="url(#f1)"  />
<rect x="17.8" y="19.1" width="32.7" height="26.2" rx="14.3" fill="hsl(290, 83%, 63%)" fill-opacity="0.77" stroke="hsl(83, 65%, 44%)" stroke-width="4.5"  transform="translate(5.7 18.4) rotate(35.9) scale(0.97 1.51)" />
<circle cx="84.6" cy="86.3" r="6.5" fill="url(#g0)" fill-opacity="0.67"  transform="translate(45.7 84.6) rotate(190.8) scale(0.70 1.26)" />
<circle cx="73.2" cy="52.4" r="0.4" fill="hsl(183, 71%, 60%)" fill-opacity="0.97"  transform="translate(77.3 19.2) rotate(292.3) scale(0.61 1.15)" />
<circle cx="14.9" cy="55.2" r="14.2" fill="hsl(2, 82%, 55%)" fill-opacity="0.77" filter="url(#f1)" transform="translate(0.7 45.6) rotate(69.9) scale(1.29 1.10)" />
<path d="M 15.4 64.2 C 16.3 50.5, 81.0 69.5, 87.7 70.2 C 71.9 64.8, 40.1 15.2, 53.7 8.3 C 63.1 0.0, 16.2 26.7, 14.3 38.7 C 0.8 23.3, 16.0 27.4, 18.4 14.9 C 22.0 6.2, 77.2 0.1, 78.3 10.7 C 89.2 7.7, 40.8 64.8, 37.0 55.6 Z" fill="none" fill-opacity="0.69" stroke="hsl(290, 83%, 63%)" stroke-width="3.43"  transform="translate(61.8 11.1) rotate(323.8) scale(1.27 1.46)" />
<circle cx="34.7" cy="73.3" r="4.1" fill="hsl(106, 75%, 59%)" fill-opacity="0.70"  transform="translate(51.9 82.6) rotate(212.9) scale(0.83 1.27)" />
<path d="M 96.7 31.8 C 100.0 12.3, 39.6 37.8, 26.5 33.7 C 45.8 34.1, 1.7 0.0, 6.8 1.5 C 8.1 6.4, 54.3 52.0, 61.3 50.1 C 51.2 53.1, 11.4 61.8, 18.5 61.7 C 8.9 59.8, 28.3 33.2, 40.9 33.2 C 22.6 25.9, 20.5 97.8, 16.9 88.0 C 5.1 88.3, 65.0 90.5, 76.0 80.1 C 90.8 74.5, 65.3 28.0, 51.8 23.0 C 55.0 42.9, 33.2 49.9, 29.8 37.3 C 27.7 41.8, 9.7 0.0, 11.7 1.7 Z" fill="none" fill-opacity="0.30" stroke="hsl(104, 72%, 65%)" stroke-width="4.92"  transform="translate(52.1 23.1) rotate(201.8) scale(0.80 1.84)" />
<circle cx="49.7" cy="79.3" r="13.4" fill="hsl(242, 72%, 49%)" fill-opacity="0.42"  transform="translate(56.7 34.5) rotate(63.9) scale(1.20 1.11)" />
<circle cx="42.9" cy="60.6" r="7.6" fill="url(#g0)" fill-opacity="0.70" filter="url(#f1)" transform="translate(59.6 39.3) rotate(70.8) scale(1.06 1.30)" />
<circle cx="98.1" cy="40.8" r="6.8" fill="hsl(2, 82%, 55%)" fill-opacity="0.79"   />
<rect x="0.5" y="78.2" width="21.5" height="20.2" rx="0" fill="hsl(104, 72%, 65%)" fill-opacity="0.27"  filter="url(#f1)" transform="translate(18.3 36.9) rotate(298.2) scale(0.58 1.83)" />
<path d="M 61.7 97.9 C 45.9 82.1, 24.2 30.7, 21.4 30.5 C 6.9 33.0, 23.5 40.0, 36.4 37.8 C 55.7 55.0, 100.0 57.1, 91.5 66.5 C 74.1 56.2, 0.0 32.0, 0.2 22.6 C 3.8 27.6, 56.2 76.0, 53.8 83.1 C 44.9 91.8, 0.0 100.0, 5.4 90.3 C 0.0 95.5, 61.6 39.9, 68.7 36.5 C 72.4 23.1, 53.0 4.9, 41.1 8.2 C 52.5 18.1, 77.9 50.3, 91.1 41.3 Z" fill="none" fill-opacity="0.74" stroke="hsl(242, 72%, 49%)" stroke-width="2.90"  transform="translate(40.9 67.2) rotate(93.5) scale(1.57 1.37)" />
<path d="M 50.4 27.9 C 64.4 24.0, 28.9 4.2, 36.3 1.8 C 45.6 19.9, 1.2 47.9, 0.9 34.0 C 8.1 42.4, 100.0 44.1, 87.6 47.7 C 93.5 60.5, 22.3 38.7, 33.8 52.8 C 48.7 44.2, 38.6 29.5, 33.4 27.7 C 32.0 34.6, 69.1 38.4, 58.9 46.1 C 41.7 59.2, 52.9 21.7, 66.9 9.4 Z" fill="hsl(144, 86%, 72%)" fill-opacity="0.48" stroke="none" stroke-width="4.21" filter="url(#f1)"  />
<rect x="48.1" y="8.1" width="27.7" height="32.4" rx="4.2" fill="hsl(144, 86%, 72%)" fill-opacity="0.61"   transform="translate(99.0 54.8) rotate(145.5) scale(0.72 1.08)" />
<path d="M 17.4 24.8 C 2.5 18.6, 34.3 38.9, 20.4 44.2 C 16.8 28.6, 100.0 58.1, 94.7 66.6 C 87.4 71.7, 78.7 45.1, 87.6 55.3 C 87.5 36.1, 80.0 79.0, 67.3 84.8 C 59.2 83.8, 26.5 22.1, 40.7 34.0 C 44.9 42.9, 52.6 53.2, 43.3 39.0 " fill="hsl(106, 75%, 59%)" fill-opacity="0.49" stroke="none" stroke-width="2.15"  transform="translate(64.7 55.0) rotate(171.7) scale(1.25 1.59)" />
<rect x="16.3" y="27.4" width="36.0" height="30.2" rx="0" fill="hsl(242, 72%, 49%)" fill-opacity="0.37" stroke="hsl(242, 72%, 49%)" stroke-width="4.7"  transform="translate(16.8 79.3) rotate(354.3) scale(1.32 0.92)" />
<path d="M 9.8 70.0 C 0.3 56.7, 28.0 6.7, 36.2 12.8 C 41.3 0.0, 2.9 82.2, 13.7 92.9 C 0.0 79.6, 18.5 28.6, 13.1 20.8 C 9.4 14.9, 42.2 31.3, 39.6 30.7 C 37.2 12.5, 85.1 65.0, 98.8 78.8 C 99.8 84.4, 50.3 67.1, 38.6 62.4 C 29.5 71.7, 28.5 80.8, 35.9 86.9 Z" fill="hsl(144, 86%, 72%)" fill-opacity="0.45" stroke="none" stroke-width="3.91"  transform="translate(21.6 38.8) rotate(66.0) scale(1.56 1.83)" />
<circle cx="94.5" cy="33.6" r="3.3" fill="url(#g1)" fill-opacity="0.64"  transform="translate(22.9 11.9) rotate(178.8) scale(0.59 0.73)" />
<path d="M 72.5 52.6 C 57.4 44.7, 11.2 0.0, 18.9 11.4 C 29.7 11.7, 26.0 78.8, 37.7 65.6 C 34.2 81.5, 1.3 30.1, 4.5 35.9 C 0.0 22.8, 9.5 18.8, 4.3 26.6 C 0.0 32.9, 87.6 27.5, 84.9 31.1 C 73.5 11.4, 0.0 64.4, 1.6 69.0 C 0.0 78.8, 17.7 71.7, 6.5 62.9 C 3.3 50.3, 90.5 82.0, 90.2 95.9 C 73.0 100.0, 87.5 93.3, 76.4 84.3 C 67.4 84.1, 39.8 84.8, 35.3 75.8 Z" fill="none" fill-opacity="0.88" stroke="hsl(151, 70%, 62%)" stroke-width="4.48"   />
<path d="M 55.1 72.3 C 36.2 81.5, 86.8 41.0, 84.3 51.5 C 97.6 66.5, 85.9 96.4, 91.8 96.0 C 79.2 100.0, 35.7 29.4, 31.2 24.0 C 30.5 7.6, 60.5 35.7, 69.5 40.9 C 78.3 36.9, 45.8 63.2, 36.7 48.6 C 52.8 67.3, 48.1 65.1, 33.2 52.9 C 50.8 72.6, 19.1 19.5, 13.3 31.5 Z" fill="none" fill-opacity="0.68" stroke="hsl(183, 71%, 60%)" stroke-width="0.96" filter="url(#f1)" transform="translate(25.5 75.6) rotate(292.3) scale(0.96 1.93)" />
<path d="M 18.8 12.1 C 3.5 25.2, 1.7 65.4, 8.8 67.2 C 5.3 64.6, 87.5 38.2, 87.8 23.8 C 96.6 11.1, 76.2 38.2, 77.3 31.9 C 60.6 28.6, 53.9 74.9, 47.9 61.6 C 39.2 74.1, 43.0 75.9, 42.9 75.2 C 44.3 69.4, 22.0 63.1, 31.7 65.7 C 23.8 80.9, 68.1 8.3, 63.7 20.7 C 64.9 17.8, 72.3 72.3, 66.8 57.4 C 68.5 77.2, 62.7 45.0, 47.8 33.5 Z" fill="hsl(86, 72%, 68%)" fill-opacity="0.81" stroke="none" stroke-width="1.53"  transform="translate(94.6 60.5) rotate(200.4) scale(0.85 1.64)" />
<circle cx="24.4" cy="30.2" r="0.9" fill="url(#g0)" fill-opacity="0.83"  transform="translate(39.4 44.8) rotate(266.4) scale(0.76 0.95)" />
<path d="M 90.1 87.2 C 100.0 100.0, 89.3 7.9, 97.0 19.1 C 86.4 32.6, 61.4 49.8, 76.1 51.5 C 57.5 66.7, 20.8 17.1, 15.9 24.6 C 26.2 10.4, 78.4 78.2, 67.1 66.2 C 72.2 75.1, 82.0 100.0, 94.3 96.9 C 100.0 96.5, 51.2 62.4, 50.6 74.5 Z" fill="none" fill-opacity="0.72" stroke="hsl(2, 82%, 55%)" stroke-width="1.47"  transform="translate(46.7 75.1) rotate(308.2) scale(1.37 1.90)" />
<path d="M 34.0 98.0 C 32.5 100.0, 51.2 41.9, 61.0 33.8 C 78.9 15.4, 53.3 7.8, 56.1 13.4 C 37.3 29.8, 58.9 53.3, 72.5 46.9 C 89.1 36.1, 88.3 3.2, 91.5 17.0 C 77.9 13.8, 100.0 95.7, 85.8 92.7 C 86.8 96.9, 66.9 11.1, 76.0 13.2 C 94.6 0.0, 0.0 25.3, 1.4 22.4 C 0.0 13.8, 80.6 55.4, 88.4 46.6 Z" fill="hsl(290, 83%, 63%)" fill-opacity="0.91" stroke="none" stroke-width="2.10"  transform="translate(27.6 12.3) rotate(32.5) scale(1.15 1.64)" />
<path d="M 76.8 34.4 C 82.9 42.9, 89.3 61.8, 93.0 66.4 C 82.8 46.5, 34.1 90.0, 28.6 84.4 C 33.2 76.8, 89.5 86.5, 82.0 78.6 C 89.8 63.8, 42.6 22.3, 29.2 15.0 C 25.4 12.4, 50.5 10.5, 48.6 7.9 C 50.7 2.9, 61.6 15.4, 59.9 6.2 C 53.1 5.0, 41.1 11.8, 45.6 17.3 C 34.1 8.7, 28.0 49.4, 24.8 38.6 C 34.8 37.9, 59.6 30.6, 71.7 29.6 Z" fill="none" fill-opacity="0.64" stroke="hsl(151, 70%, 62%)" stroke-width="1.13"  transform="translate(66.3 50.8) rotate(330.3) scale(1.34 1.52)" />
<path d="M 6.1 14.1 C 0.0 0.2, 100.0 4.9, 96.1 7.2 C 98.1 0.0, 96.8 20.0, 82.2 29.1 C 76.7 32.8, 55.9 41.5, 66.3 28.5 C 75.5 17.4, 28.4 90.0, 36.2 77.5 C 23.4 72.1, 96.2 26.0, 93.0 15.4 C 93.1 0.0, 84.6 69.2, 73.0 82.1 C 66.8 97.9, 8.1 58.3, 4.2 59.6 Z" fill="hsl(104, 72%, 65%)" fill-opacity="0.51" stroke="none" stroke-width="3.52"  transform="translate(28.5 22.4) rotate(5.0) scale(1.53 0.91)" />
<path d="M 31.1 42.9 C 32.8 27.5, 61.6 5.8, 70.1 5.5 C 68.8 0.1, 56.4 43.3, 50.9 52.3 C 58.0 51.0, 77.5 28.8, 78.6 28.4 C 96.3 14.2, 26.5 83.0, 17.2 86.1 C 13.6 99.0, 47.2 59.4, 56.9 62.1 C 41.3 46.6, 0.0 36.2, 10.2 23.1 C 5.5 34.2, 72.3 97.3, 79.3 85.2 C 81.0 76.3, 51.0 42.3, 42.4 41.3 C 40.1 61.0, 37.8 37.5, 35.1 44.9 Z" fill="hsl(86, 72%, 68%)" fill-opacity="0.94" stroke="none" stroke-width="5.06"  transform="translate(61.5 35.7) rotate(194.9) scale(0.55 1.35)" />
<path d="M 12.5 13.5 C 0.0 12.7, 100.0 100.0, 92.1 94.3 C 100.0 75.9, 4.9 15.8, 17.9 3.1 C 31.8 0.3, 99.3 100.0, 86.0 91.8 C 75.3 100.0, 11.9 33.8, 19.7 38.7 C 38.2 44.8, 28.9 55.2, 21.3 42.2 C 40.5 36.5, 57.7 15.1, 67.8 25.9 Z" fill="hsl(290, 83%, 63%)" fill-opacity="0.67" stroke="none" stroke-width="3.40"   />
<path d="M 35.0 11.3 C 35.4 12.3, 40.9 50.4, 29.3 44.6 C 14.0 33.9, 65.1 5.6, 71.8 6.4 C 67.5 8.7, 16.8 37.4, 2.4 33.6 C 5.5 30.2, 96.9 74.3, 95.7 65.3 C 100.0 73.4, 40.9 1.7, 34.8 11.3 C 37.0 14.7, 89.3 53.6, 99.2 46.5 C 100.0 52.2, 56.0 13.1, 43.9 18.9 C 45.2 9.5, 16.9 18.6, 4.8 17.7 Z" fill="none" fill-opacity="0.46" stroke="hsl(83, 65%, 44%)" stroke-width="1.32"  transform="translate(76.9 93.4) rotate(236.6) scale(0.55 1.24)" />
<g opacity="0.060">
<rect x="0" y="0" width="1" height="100" fill="black" />
<rect x="22" y="0" width="1" height="100" fill="black" />
<rect x="44" y="0" width="1" height="100" fill="black" />
<rect x="66" y="0" width="1" height="100" fill="black" />
<rect x="88" y="0" width="1" height="100" fill="black" />
<rect x="0" y="0" width="100" height="1" fill="black" />
<rect x="0" y="22" width="100" height="1" fill="black" />
<rect x="0" y="44" width="100" height="1" fill="black" />
<rect x="0" y="66" width="100" height="1" fill="black" />
<rect x="0" y="88" width="100" height="1" fill="black" />
</g>

</svg>
