<?xml version="1.0" encoding="UTF-8"?>
<svg xmlns="http://www.w3.org/2000/svg" width="100" height="100" viewBox="0 0 100 100">
<defs>
<linearGradient id="g0" x1="0%" y1="0%" x2="100%" y2="100%">
<stop offset="0.0%" stop-color="hsl(106, 75%, 59%)" />
<stop offset="33.3%" stop-color="hsl(183, 71%, 60%)" />
<stop offset="66.7%" stop-color="hsl(242, 72%, 49%)" />
<stop offset="100.0%" stop-color="hsl(322, 74%, 44%)" />
</linearGradient>
<linearGradient id="g1" x1="0%" y1="0%" x2="100%" y2="100%">
<stop offset="0.0%" stop-color="hsl(290, 83%, 63%)" />
<stop offset="33.3%" stop-color="hsl(2, 82%, 55%)" />
<stop offset="66.7%" stop-color="hsl(86, 72%, 68%)" />
<stop offset="100.0%" stop-color="hsl(83, 65%, 44%)" />
</linearGradient>
<linearGradient id="g2" x1="0%" y1="0%" x2="100%" y2="100%">
<stop offset="0.0%" stop-color="hsl(40, 53%, 69%)" />
<stop offset="33.3%" stop-color="hsl(104, 72%, 65%)" />
<stop offset="66.7%" stop-color="hsl(144, 86%, 72%)" />
<stop offset="100.0%" stop-color="hsl(151, 70%, 62%)" />
</linearGradient>
</defs>

<circle cx="14.9" cy="16.4" r="0.5" fill="hsl(242, 72%, 49%)" fill-opacity="0.98"   />
<path d="M 28.5 26.7 C 38.8 15.5, 7.1 3.6, 7.9 15.1 C 0.0 26.0, 66.4 91.5, 81.2 99.4 C 95.9 100.0, 16.2 56.5, 9.8 53.7 C 20.6 34.1, 94.5 0.0, 98.3 3.1 C 100.0 14.3, 68.2 67.8, 69.1 76.4 C 59.4 59.6, 11.2 40.9, 6.2 39.7 Z" fill="none" fill-opacity="0.35" stroke="hsl(290, 83%, 63%)" stroke-width="0.87"  transform="translate(15.5 86.5) rotate(215.5) scale(0.55 1.07)" />
<rect x="54.0" y="14.6" width="24.2" height="22.2" rx="0" fill="none" fill-opacity="0.99"    />
<path d="M 70.8 76.9 C 62.9 87.4, 90.0 84.3, 96.5 91.1 C 83.7 100.0, 26.1 53.1, 20.2 63.6 C 5.0 49.3, 49.2 73.0, 40.3 79.0 " fill="hsl(106, 75%, 59%)" fill-opacity="0.73" stroke="none" stroke-width="1.21"  transform="translate(14.4 94.4) rotate(214.4) scale(0.69 0.71)" />
<path d="M 6.5 6.8 C 2.6 0.0, 0.0 16.6, 1.3 23.5 C 0.0 38.6, 95.1 91.0, 95.9 99.3 C 100.0 92.6, 51.2 3.1, 38.7 16.1 C 33.0 25.9, 50.0 31.6, 38.8 42.6 C 41.5 31.3, 55.3 16.5, 58.5 26.9 " fill="hsl(183, 71%, 60%)" fill-opacity="0.68" stroke="none" stroke-width="1.10"  transform="translate(89.9 44.7) rotate(147.4) scale(0.52 1.97)" />
<circle cx="17.7" cy="59.5" r="0.7" fill="hsl(2, 82%, 55%)" fill-opacity="0.72"   />
<rect x="36.7" y="42.8" width="39.0" height="28.5" rx="0" fill="hsl(40, 53%, 69%)" fill-opacity="0.90"   transform="translate(57.6 59.6) rotate(53.9) scale(1.42 1.65)" />
<path d="M 4.5 31.9 C 2.2 22.3, 71.9 88.2, 59.3 77.3 C 68.5 69.9, 92.4 55.3, 94.7 68.0 C 89.1 61.2, 45.9 36.0, 36.9 37.2 C 54.3 49.9, 100.0 100.0, 96.5 92.3 Z" fill="hsl(40, 53%, 69%)" fill-opacity="0.35" stroke="none" stroke-width="1.02"   />
<path d="M 83.3 16.1 C 70.4 3.4, 44.9 8.9, 57.5 23.7 C 65.6 21.0, 70.6 67.6, 81.4 73.1 C 68.4 61.5, 19.7 68.4, 28.1 57.1 C 25.0 76.6, 11.9 59.7, 21.1 72.5 C 2.8 74.9, 26.1 38.6, 20.6 38.5 C 27.1 42.2, 59.1 72.5, 70.9 76.8 " fill="hsl(104, 72%, 65%)" fill-opacity="0.63" stroke="none" stroke-width="1.29"   />
<path d="M 50.6 36.4 C 49.2 23.1, 19.0 90.7, 10.1 89.3 C 0.0 100.0, 31.4 10.4, 42.4 0.5 C 27.9 12.4, 28.2 100.0, 25.6 93.6 C 28.7 75.7, 36.0 37.8, 26.3 25.3 C 15.4 30.4, 55.0 19.1, 69.8 30.3 C 87.6 22.1, 33.3 62.3, 32.0 49.9 " fill="hsl(290, 83%, 63%)" fill-opacity="0.93" stroke="none" stroke-width="0.80"   />
<path d="M 54.5 66.4 C 46.1 60.4, 54.5 73.0, 47.6 82.4 C 46.1 85.9, 53.4 40.4, 58.7 42.3 C 46.2 28.3, 49.2 33.3, 62.5 34.2 C 73.4 31.2, 70.0 31.8, 55.4 27.1 C 46.1 46.8, 60.0 62.1, 46.5 57.2 C 59.2 72.3, 6.6 72.4, 10.9 62.4 C 29.4 74.5, 50.9 71.4, 55.3 72.3 " fill="hsl(322, 74%, 44%)" fill-opacity="0.98" stroke="none" stroke-width="1.20"  transform="translate(75.2 53.3) rotate(54.0) scale(1.64 1.15)" />
<path d="M 79.7 26.5 C 83.3 21.7, 58.2 26.2, 70.8 35.8 C 55.9 49.3, 43.6 63.2, 30.3 76.8 C 38.0 93.9, 36.1 84.2, 33.3 81.0 " fill="hsl(83, 65%, 44%)" fill-opacity="0.37" stroke="none" stroke-width="0.91"  transform="translate(51.0 7.1) rotate(343.1) scale(1.67 1.98)" />
<path d="M 36.6 8.4 C 28.3 0.0, 83.6 78.1, 94.5 70.6 C 100.0 81.5, 15.3 94.8, 8.9 81.5 C 0.0 98.9, 46.6 31.2, 32.3 39.2 " fill="none" fill-opacity="0.72" stroke="hsl(183, 71%, 60%)" stroke-width="0.86"   />
<path d="M 24.0 9.9 C 9.1 0.0, 54.3 53.6, 50.2 38.9 C 55.7 34.6, 14.5 83.6, 28.4 95.3 C 44.3 100.0, 94.3 100.0, 94.0 99.1 C 75.5 99.5, 53.6 73.0, 50.2 77.5 C 34.3 91.0, 10.8 45.6, 15.6 53.4 " fill="none" fill-opacity="0.96" stroke="hsl(40, 53%, 69%)" stroke-width="0.99"  transform="translate(96.9 10.8) rotate(340.0) scale(1.37 1.86)" />
<path d="M 43.3 30.7 C 62.6 28.9, 3.7 42.5, 3.9 29.0 C 15.2 37.9, 75.7 30.0, 71.7 21.6 C 64.4 37.4, 16.3 31.1, 10.7 23.5 C 5.4 41.4, 10.2 29.8, 25.0 29.8 C 41.3 36.3, 100.0 100.0, 94.8 93.9 C 90.3 79.6, 4.2 95.3, 4.7 97.8 C 17.1 100.0, 53.3 25.4, 55.1 11.4 Z" fill="hsl(151, 70%, 62%)" fill-opacity="0.35" stroke="none" stroke-width="1.29"  transform="translate(0.3 97.0) rotate(257.6) scale(1.64 0.97)" />
<rect x="34.8" y="41.9" width="29.9" height="11.7" rx="16.5" fill="hsl(83, 65%, 44%)" fill-opacity="0.98" stroke="hsl(2, 82%, 55%)" stroke-width="1.7"   />
</svg>
