<?xml version="1.0" encoding="UTF-8"?>
<svg xmlns="http://www.w3.org/2000/svg" width="100" height="100" viewBox="0 0 100 100">
<defs>
<linearGradient id="g0" x1="0%" y1="0%" x2="100%" y2="100%">
<stop offset="0.0%" stop-color="hsl(106, 75%, 59%)" />
<stop offset="33.3%" stop-color="hsl(183, 71%, 60%)" />
<stop offset="66.7%" stop-color="hsl(242, 72%, 49%)" />
<stop offset="100.0%" stop-color="hsl(322, 74%, 44%)" />
</linearGradient>
<linearGradient id="g1" x1="0%" y1="0%" x2="100%" y2="100%">
<stop offset="0.0%" stop-color="hsl(290, 83%, 63%)" />
<stop offset="33.3%" stop-color="hsl(2, 82%, 55%)" />
<stop offset="66.7%" stop-color="hsl(86, 72%, 68%)" />
<stop offset="100.0%" stop-color="hsl(83, 65%, 44%)" />
</linearGradient>
<linearGradient id="g2" x1="0%" y1="0%" x2="100%" y2="100%">
<stop offset="0.0%" stop-color="hsl(40, 53%, 69%)" />
<stop offset="33.3%" stop-color="hsl(104, 72%, 65%)" />
<stop offset="66.7%" stop-color="hsl(144, 86%, 72%)" />
<stop offset="100.0%" stop-color="hsl(151, 70%, 62%)" />
</linearGradient>
<filter id="f1" x="-20%" y="-20%" width="140%" height="140%">
  <feGaussianBlur stdDeviation="1.007835262263051" />
</filter>

</defs>

<rect x="17.8" y="6.6" width="41.1" height="14.3" rx="1.1" fill="hsl(322, 74%, 44%)" fill-opacity="0.64"   transform="translate(75.3 32.4) rotate(253.9) scale(1.44 0.85)" />
<path d="M 81.3 8.4 C 76.4 15.4, 43.6 13.4, 54.4 5.5 C 61.4 0.0, 37.8 21.4, 25.2 28.3 C 25.9 19.0, 6.9 76.1, 21.4 84.6 C 11.9 92.4, 18.4 1.3, 23.1 0.9 C 38.8 0.0, 16.0 87.4, 13.8 86.0 C 26.9 91.4, 75.2 74.4, 75.7 62.0 Z" fill="none" fill-opacity="0.44" stroke="hsl(290, 83%, 63%)" stroke-width="4.18" filter="url(#f1)" transform="translate(77.2 8.8) rotate(164.7) scale(0.91 1.37)" />
<circle cx="99.3" cy="96.3" r="0.6" fill="url(#g2)" fill-opacity="0.86"  transform="translate(62.1 61.3) rotate(270.6) scale(1.51 1.56)" />
<path d="M 17.0 23.4 C 34.9 10.3, 59.6 63.7, 57.7 77.3 C 45.0 97.0, 45.8 76.2, 42.8 79.4 C 42.4 85.4, 48.5 21.6, 51.2 19.4 C 63.7 31.1, 7.6 65.9, 10.2 73.9 C 24.4 86.5, 100.0 79.7, 92.0 93.9 C 100.0 95.9, 80.2 16.2, 82.8 5.7 Z" fill="none" fill-opacity="0.70" stroke="hsl(86, 72%, 68%)" stroke-width="2.21"  transform="translate(84.1 16.2) rotate(298.5) scale(1.57 0.97)" />
<rect x="4.2" y="69.2" width="34.9" height="11.4" rx="0" fill="none" fill-opacity="0.89"   transform="translate(34.0 1.9) rotate(96.7) scale(1.93 1.90)" />
<path d="M 33.4 62.1 C 23.3 49.5, 96.4 52.1, 83.6 60.2 C 86.0 73.2, 98.3 28.3, 94.5 22.5 C 100.0 28.8, 82.0 55.5, 67.9 62.6 C 74.9 62.5, 85.6 31.4, 85.4 29.1 C 80.3 22.5, 28.7 45.0, 22.1 30.9 C 36.1 33.2, 58.0 34.8, 59.0 37.4 C 49.8 44.0, 40.6 65.3, 47.2 77.7 C 46.1 76.0, 87.2 82.5, 85.4 72.7 C 94.1 68.0, 72.8 37.1, 74.8 44.0 C 70.4 48.5, 64.3 38.6, 63.3 53.3 Z" fill="hsl(86, 72%, 68%)" fill-opacity="0.59" stroke="none" stroke-width="4.98"  transform="translate(91.9 31.1) rotate(1.6) scale(1.41 0.69)" />
<circle cx="51.8" cy="79.7" r="9.0" fill="url(#g2)" fill-opacity="0.97"  transform="translate(6.8 6.3) rotate(268.9) scale(0.61 0.84)" />
<path d="M 26.9 20.2 C 37.7 7.2, 2.0 44.1, 12.9 46.3 C 1.9 29.8, 31.4 80.4, 29.0 74.8 C 11.6 80.4, 97.5 20.2, 88.2 23.5 C 98.6 30.0, 69.1 36.7, 80.8 23.4 C 75.0 18.6, 7.1 85.4, 21.8 90.1 C 10.6 83.5, 20.8 28.9, 14.8 27.7 Z" fill="none" fill-opacity="0.83" stroke="hsl(290, 83%, 63%)" stroke-width="0.89"  transform="translate(67.1 87.7) rotate(228.9) scale(0.81 1.73)" />
<path d="M 35.3 92.6 C 18.6 82.9, 68.1 100.0, 64.5 93.6 C 70.1 91.8, 32.6 100.0, 46.4 89.8 C 42.9 100.0, 49.4 17.6, 54.6 22.8 C 52.4 16.0, 93.9 87.7, 88.2 93.8 C 92.1 97.7, 55.6 79.6, 43.5 81.5 C 25.8 64.4, 46.0 17.2, 34.8 3.9 C 54.3 22.1, 16.2 73.3, 25.2 62.5 C 32.8 60.1, 27.0 0.0, 20.7 0.3 C 31.0 0.0, 27.6 100.0, 13.9 90.8 C 0.0 79.4, 33.2 79.7, 27.9 89.9 Z" fill="hsl(290, 83%, 63%)" fill-opacity="0.31" stroke="none" stroke-width="2.59"  transform="translate(59.9 23.1) rotate(119.0) scale(0.87 0.99)" />
<path d="M 86.0 59.8 C 97.4 46.2, 50.4 90.0, 39.2 83.0 C 33.3 89.3, 87.5 56.1, 82.7 53.1 C 80.3 70.0, 4.5 20.3, 3.3 22.1 C 0.0 24.4, 16.5 74.7, 13.3 70.7 C 14.1 72.8, 27.3 81.9, 29.7 85.4 C 42.5 84.6, 32.0 100.0, 24.9 97.2 C 36.7 79.9, 61.6 92.9, 48.6 95.9 C 35.5 81.0, 34.7 56.8, 32.8 49.1 Z" fill="hsl(290, 83%, 63%)" fill-opacity="0.65" stroke="none" stroke-width="1.10"  transform="translate(26.5 51.1) rotate(51.2) scale(1.95 1.99)" />
<rect x="33.8" y="30.1" width="34.4" height="30.6" rx="9.8" fill="none" fill-opacity="0.48" stroke="hsl(106, 75%, 59%)" stroke-width="3.5"  transform="translate(34.8 52.6) rotate(75.4) scale(1.57 1.59)" />
<path d="M 39.4 80.8 C 46.4 80.3, 1.1 37.4, 13.4 40.7 C 0.0 26.6, 38.3 78.8, 48.9 90.8 C 35.6 72.2, 23.1 70.2, 10.5 83.9 C 29.9 84.0, 100.0 8.4, 97.9 10.5 C 100.0 14.8, 35.8 0.0, 39.4 7.1 C 41.8 23.5, 48.1 0.0, 44.6 1.4 C 31.4 0.0, 65.3 6.7, 72.6 4.7 C 88.1 16.7, 48.8 95.5, 38.4 89.2 C 24.9 82.4, 54.0 64.1, 63.0 62.3 C 57.3 45.1, 69.6 13.5, 81.1 3.4 Z" fill="none" fill-opacity="0.55" stroke="hsl(104, 72%, 65%)" stroke-width="5.21" filter="url(#f1)" transform="translate(3.7 50.6) rotate(300.1) scale(1.70 1.29)" />
<path d="M 52.4 84.8 C 50.2 100.0, 24.8 100.0, 16.9 87.7 C 34.8 82.4, 28.3 95.7, 31.3 92.8 C 41.9 89.7, 58.0 17.4, 63.1 18.6 C 70.5 33.9, 17.8 34.3, 24.1 25.3 C 43.0 25.3, 79.7 19.9, 72.0 10.2 C 85.6 0.0, 65.8 56.3, 76.1 68.8 C 58.5 50.3, 52.5 88.6, 57.2 77.9 C 45.4 64.1, 0.0 54.5, 0.8 54.8 C 9.5 71.8, 8.4 57.9, 0.3 57.3 Z" fill="none" fill-opacity="0.70" stroke="hsl(290, 83%, 63%)" stroke-width="3.73"   />
<rect x="37.5" y="3.2" width="25.2" height="31.0" rx="0" fill="none" fill-opacity="0.72" stroke="hsl(2, 82%, 55%)" stroke-width="1.0"  transform="translate(96.1 35.7) rotate(243.8) scale(1.02 1.52)" />
<path d="M 64.4 55.6 C 71.8 63.4, 21.8 100.0, 12.8 95.1 C 0.0 100.0, 79.1 26.6, 89.2 34.3 C 100.0 23.8, 38.4 97.4, 26.1 90.8 C 12.3 100.0, 0.0 68.8, 6.0 60.4 C 8.7 41.1, 43.4 25.2, 40.6 34.4 C 31.4 42.1, 71.2 33.0, 61.4 37.1 C 79.3 50.9, 16.8 28.2, 30.0 22.5 Z" fill="hsl(144, 86%, 72%)" fill-opacity="0.44" stroke="none" stroke-width="3.35"  transform="translate(31.4 82.3) rotate(323.1) scale(1.92 1.22)" />
<circle cx="77.3" cy="80.2" r="4.7" fill="url(#g2)" fill-opacity="0.95"  transform="translate(43.5 12.7) rotate(152.4) scale(1.85 1.42)" />
<rect x="50.9" y="17.5" width="28.5" height="23.1" rx="0" fill="hsl(183, 71%, 60%)" fill-opacity="0.74" stroke="hsl(322, 74%, 44%)" stroke-width="4.4"  transform="translate(27.1 66.0) rotate(49.4) scale(1.05 1.82)" />
<path d="M 91.6 41.1 C 88.7 36.7, 26.4 92.3, 30.3 94.9 C 12.9 91.8, 55.5 28.2, 48.4 37.8 C 60.9 33.7, 63.7 23.5, 76.7 21.1 C 88.2 24.5, 20.2 60.6, 28.9 61.3 C 48.6 45.2, 98.4 84.2, 91.1 86.4 C 100.0 90.3, 44.9 50.7, 46.6 64.4 C 34.6 70.7, 76.4 40.8, 85.8 34.3 C 99.1 24.2, 59.3 89.0, 60.2 99.7 C 78.2 100.0, 43.9 66.9, 55.6 64.3 Z" fill="hsl(2, 82%, 55%)" fill-opacity="0.77" stroke="none" stroke-width="4.90"  transform="translate(94.7 85.7) rotate(328.6) scale(0.82 1.77)" />
<path d="M 36.3 72.2 C 43.5 56.1, 60.8 67.2, 51.8 62.3 C 56.2 74.1, 27.3 43.0, 29.2 39.4 C 42.4 30.9, 86.7 32.2, 96.7 33.3 C 93.6 33.0, 35.9 1.8, 41.6 12.9 C 42.3 12.8, 29.2 76.2, 19.4 81.4 C 17.6 80.0, 42.6 48.6, 50.1 56.6 Z" fill="hsl(83, 65%, 44%)" fill-opacity="0.94" stroke="none" stroke-width="4.36"  transform="translate(76.3 84.1) rotate(68.1) scale(1.14 1.72)" />
<path d="M 35.7 29.5 C 51.8 28.3, 0.7 54.7, 2.2 40.7 C 12.7 57.4, 18.2 36.3, 12.9 21.4 C 15.0 23.0, 22.3 96.5, 36.9 99.1 C 45.8 100.0, 82.0 47.8, 72.6 47.9 C 69.8 42.9, 61.5 17.1, 57.9 25.0 C 57.7 23.0, 57.4 32.7, 42.6 19.0 Z" fill="none" fill-opacity="0.51" stroke="hsl(40, 53%, 69%)" stroke-width="4.27"  transform="translate(0.3 7.8) rotate(325.6) scale(1.25 1.52)" />
<path d="M 33.2 71.2 C 35.5 80.4, 62.6 38.6, 55.0 47.9 C 42.6 32.4, 100.0 60.5, 98.8 55.8 C 79.4 55.2, 30.6 35.2, 44.2 27.7 C 58.9 11.3, 26.0 41.9, 36.5 49.2 C 26.1 47.5, 32.5 9.9, 26.7 18.6 C 40.8 32.9, 67.2 73.4, 75.4 73.1 Z" fill="hsl(2, 82%, 55%)" fill-opacity="0.26" stroke="none" stroke-width="2.19"  transform="translate(21.3 1.8) rotate(146.5) scale(0.87 0.84)" />
<path d="M 73.3 57.3 C 71.6 54.9, 63.8 35.6, 57.4 41.2 C 37.7 56.4, 98.0 62.7, 92.0 66.0 C 100.0 76.7, 82.9 28.4, 97.0 38.5 C 100.0 50.1, 23.0 54.3, 13.0 46.9 C 0.7 47.1, 16.0 18.6, 24.3 16.2 C 41.1 7.5, 18.8 70.6, 14.2 77.6 C 24.3 67.1, 78.6 81.9, 73.6 67.8 C 91.3 78.3, 88.7 36.1, 85.1 41.4 C 95.0 35.7, 71.6 0.0, 74.4 7.8 C 76.4 0.0, 79.4 35.4, 75.1 46.0 Z" fill="none" fill-opacity="0.64" stroke="hsl(242, 72%, 49%)" stroke-width="1.06"  transform="translate(92.9 93.7) rotate(302.9) scale(0.97 0.94)" />
<path d="M 6.1 32.8 C 18.6 31.4, 85.2 33.6, 70.6 25.8 C 53.0 41.3, 0.0 93.2, 6.8 83.2 C 11.3 81.4, 77.9 86.0, 87.7 78.9 C 74.2 87.4, 21.4 64.9, 32.9 66.1 C 24.8 56.4, 100.0 78.1, 99.0 70.8 C 100.0 51.3, 73.2 48.5, 68.9 42.7 C 70.3 27.6, 26.8 11.4, 12.7 13.6 Z" fill="hsl(86, 72%, 68%)" fill-opacity="0.71" stroke="none" stroke-width="2.93"  transform="translate(99.7 9.7) rotate(42.0) scale(1.97 1.36)" />
<path d="M 96.9 7.2 C 91.2 8.6, 90.3 28.5, 98.0 16.4 C 100.0 13.1, 25.7 40.9, 36.7 28.8 C 55.9 14.4, 0.0 68.3, 1.4 59.0 C 10.5 41.9, 31.7 76.5, 41.3 63.3 C 24.7 57.5, 0.0 71.4, 7.2 81.7 C 8.4 65.5, 15.8 36.2, 19.8 31.1 C 23.7 24.4, 32.8 100.0, 20.0 96.9 C 5.0 79.6, 19.5 49.0, 34.5 46.5 C 48.0 42.2, 85.0 35.9, 84.3 23.8 C 66.7 26.0, 31.2 32.7, 44.1 37.7 Z" fill="none" fill-opacity="0.28" stroke="hsl(40, 53%, 69%)" stroke-width="1.12"  transform="translate(74.6 63.5) rotate(341.1) scale(1.93 0.62)" />
<circle cx="20.2" cy="37.3" r="16.8" fill="url(#g0)" fill-opacity="0.85" filter="url(#f1)" transform="translate(53.0 98.8) rotate(13.0) scale(0.58 1.13)" />
<circle cx="8.2" cy="19.6" r="3.7" fill="url(#g0)" fill-opacity="0.67"  transform="translate(37.9 86.9) rotate(91.0) scale(1.43 0.64)" />
<path d="M 73.8 57.4 C 75.9 62.9, 53.1 73.4, 62.1 85.5 C 79.1 73.8, 35.3 36.0, 20.4 37.8 C 28.1 24.8, 30.5 26.9, 33.9 33.6 C 17.5 47.7, 16.6 72.4, 3.1 75.5 C 1.1 61.9, 68.2 84.2, 81.1 88.1 C 61.3 76.5, 38.6 67.2, 51.6 54.8 C 40.9 73.1, 10.7 48.3, 21.7 43.5 Z" fill="hsl(83, 65%, 44%)" fill-opacity="0.28" stroke="none" stroke-width="1.65" filter="url(#f1)" transform="translate(95.9 90.8) rotate(281.6) scale(0.83 1.64)" />
<rect x="51.9" y="1.2" width="24.9" height="37.8" rx="0" fill="hsl(2, 82%, 55%)" fill-opacity="0.36" stroke="hsl(83, 65%, 44%)" stroke-width="2.7"   />
<circle cx="53.2" cy="31.3" r="0.0" fill="url(#g1)" fill-opacity="0.61"  transform="translate(97.9 58.1) rotate(178.6) scale(1.34 1.87)" />
<rect x="30.7" y="35.5" width="43.7" height="18.4" rx="6.0" fill="hsl(322, 74%, 44%)" fill-opacity="0.38"    />
<path d="M 90.9 53.3 C 100.0 68.1, 45.9 67.5, 38.9 82.3 C 33.4 85.0, 75.7 55.3, 76.3 48.6 C 80.2 63.9, 82.5 10.8, 80.5 8.6 C 97.1 0.0, 90.8 47.7, 88.0 54.0 C 92.5 54.5, 67.5 54.4, 54.3 40.3 C 56.4 50.9, 58.2 29.6, 53.3 32.2 C 62.7 14.0, 100.0 52.3, 95.7 40.1 C 79.3 59.4, 85.0 0.0, 90.5 3.7 C 91.3 18.6, 31.1 56.9, 36.4 68.0 " fill="hsl(151, 70%, 62%)" fill-opacity="0.56" stroke="none" stroke-width="3.64"  transform="translate(17.9 98.8) rotate(97.3) scale(1.66 0.87)" />
<path d="M 14.0 82.1 C 9.9 62.8, 13.9 100.0, 2.3 93.4 C 13.2 99.0, 85.3 82.6, 71.4 75.6 C 60.0 69.3, 28.3 45.6, 25.2 56.1 C 34.7 47.7, 41.3 24.8, 54.8 31.4 C 46.5 13.6, 18.0 12.8, 26.3 8.4 C 15.5 18.1, 55.3 100.0, 67.5 91.7 C 58.7 93.4, 92.2 33.7, 84.5 39.5 C 66.7 46.6, 100.0 99.2, 97.1 98.8 C 100.0 97.5, 50.6 32.4, 35.9 34.9 C 38.5 50.4, 17.0 59.0, 13.8 52.9 Z" fill="hsl(83, 65%, 44%)" fill-opacity="0.41" stroke="none" stroke-width="0.85"  transform="translate(89.2 14.6) rotate(140.1) scale(0.78 1.95)" />
<circle cx="20.3" cy="35.1" r="8.5" fill="hsl(322, 74%, 44%)" fill-opacity="0.60"  transform="translate(84.9 49.4) rotate(130.7) scale(1.48 1.63)" />
<circle cx="48.4" cy="40.5" r="6.6" fill="url(#g1)" fill-opacity="0.74"  transform="translate(82.3 10.9) rotate(189.1) scale(0.53 0.73)" />
<path d="M 89.4 23.2 C 100.0 11.9, 9.1 100.0, 15.5 99.7 C 26.1 96.7, 26.1 20.6, 18.6 14.5 C 22.3 0.0, 51.6 54.5, 46.9 42.7 C 56.5 29.7, 78.4 63.5, 77.5 61.5 C 58.0 54.9, 84.9 13.7, 97.4 5.9 C 79.6 0.0, 85.0 58.8, 97.8 54.0 Z" fill="hsl(106, 75%, 59%)" fill-opacity="0.53" stroke="none" stroke-width="2.85"  transform="translate(35.6 52.5) rotate(214.6) scale(1.53 1.37)" />
<circle cx="76.6" cy="45.6" r="16.5" fill="url(#g0)" fill-opacity="0.78"   />
<rect x="30.3" y="57.8" width="37.0" height="29.8" rx="0" fill="none" fill-opacity="0.67"    />
<rect x="39.8" y="81.6" width="25.2" height="13.2" rx="8.5" fill="hsl(2, 82%, 55%)" fill-opacity="0.60"   transform="translate(6.7 50.8) rotate(43.5) scale(1.06 0.50)" />
<rect x="32.4" y="35.8" width="22.4" height="31.2" rx="0" fill="none" fill-opacity="0.39"   transform="translate(6.0 86.8) rotate(258.0) scale(1.53 1.99)" />
<path d="M 27.4 9.8 C 27.3 0.0, 84.8 67.1, 85.3 80.2 C 83.1 63.2, 52.0 12.1, 45.5 18.4 C 30.0 5.4, 29.5 95.7, 27.6 91.2 C 24.7 100.0, 18.3 36.4, 10.3 22.3 C 8.7 12.7, 57.3 23.9, 61.5 9.3 C 63.1 19.8, 16.8 43.9, 27.0 36.7 " fill="hsl(106, 75%, 59%)" fill-opacity="0.44" stroke="none" stroke-width="2.46" filter="url(#f1)"  />
<circle cx="74.4" cy="98.9" r="1.4" fill="url(#g0)" fill-opacity="0.44"   />
<path d="M 24.1 47.4 C 31.0 58.8, 95.6 16.1, 83.9 28.2 C 67.5 39.3, 90.3 43.1, 98.9 29.0 C 100.0 30.0, 30.6 68.4, 18.9 76.5 C 30.2 65.7, 77.9 45.9, 63.6 48.4 C 45.3 46.2, 33.6 29.7, 19.4 34.1 C 28.4 23.2, 2.3 36.1, 12.8 25.4 Z" fill="hsl(104, 72%, 65%)" fill-opacity="0.27" stroke="none" stroke-width="5.24"  transform="translate(30.7 61.8) rotate(204.8) scale(0.86 1.65)" />
<circle cx="10.3" cy="45.4" r="4.2" fill="url(#g0)" fill-opacity="0.92"  transform="translate(4.4 38.9) rotate(217.7) scale(1.66 0.69)" />
<circle cx="73.9" cy="55.9" r="12.1" fill="hsl(40, 53%, 69%)" fill-opacity="0.94"  transform="translate(43.7 3.4) rotate(224.3) scale(0.69 1.34)" />
<rect x="44.2" y="38.5" width="36.0" height="32.0" rx="0" fill="hsl(322, 74%, 44%)" fill-opacity="0.78"    />
<path d="M 51.2 52.2 C 48.4 65.8, 77.9 100.0, 81.4 91.0 C 78.7 82.5, 95.7 19.8, 84.2 23.1 C 93.9 6.5, 80.7 74.2, 80.3 75.6 C 82.0 60.2, 40.4 55.8, 54.7 48.6 C 68.7 61.1, 48.9 100.0, 35.6 96.8 C 31.2 81.6, 53.3 13.2, 47.7 8.0 C 32.4 7.7, 71.9 58.3, 85.8 47.2 Z" fill="hsl(40, 53%, 69%)" fill-opacity="0.55" stroke="none" stroke-width="1.91"  transform="translate(40.7 26.6) rotate(46.6) scale(0.61 1.42)" />
<path d="M 41.7 21.9 C 46.2 28.0, 19.0 69.4, 17.6 75.1 C 31.8 85.4, 61.0 82.8, 49.6 97.3 C 53.5 88.7, 60.6 33.1, 64.8 40.6 C 71.5 55.8, 37.1 49.2, 45.3 64.0 C 64.2 73.2, 78.0 72.2, 74.0 70.1 C 76.1 57.6, 37.0 0.0, 28.4 1.1 Z" fill="hsl(290, 83%, 63%)" fill-opacity="0.37" stroke="none" stroke-width="2.96"  transform="translate(81.2 16.1) rotate(353.0) scale(1.24 0.70)" />
<circle cx="61.6" cy="98.9" r="2.5" fill="url(#g2)" fill-opacity="0.63"  transform="translate(62.3 71.6) rotate(351.8) scale(0.55 0.76)" />
<path d="M 56.2 27.2 C 38.9 12.4, 99.4 12.1, 87.5 4.3 C 94.0 6.4, 29.3 100.0, 31.9 92.2 C 39.8 100.0, 100.0 74.9, 99.5 76.8 C 96.5 90.8, 28.5 87.3, 28.9 86.5 C 43.8 70.8, 62.7 74.1, 77.3 62.9 C 78.9 60.5, 60.3 84.3, 74.5 87.8 C 74.4 100.0, 20.3 62.8, 7.4 65.0 Z" fill="none" fill-opacity="0.91" stroke="hsl(86, 72%, 68%)" stroke-width="4.19" filter="url(#f1)"  />
<rect x="44.1" y="22.1" width="43.8" height="23.1" rx="0" fill="hsl(322, 74%, 44%)" fill-opacity="0.21"   transform="translate(34.0 49.8) rotate(242.5) scale(0.96 1.10)" />
<circle cx="69.4" cy="17.7" r="1.5" fill="url(#g2)" fill-opacity="0.89" filter="url(#f1)" transform="translate(65.7 48.1) rotate(234.1) scale(1.51 1.14)" />
<path d="M 42.7 17.5 C 54.8 3.7, 61.0 91.5, 57.6 91.5 C 37.6 100.0, 0.0 90.9, 3.3 80.3 C 0.0 70.1, 69.7 74.7, 56.3 68.1 C 48.2 79.1, 81.5 62.9, 76.3 74.0 C 85.0 81.2, 6.9 46.1, 17.7 58.5 C 12.1 57.7, 45.8 73.0, 33.0 83.7 C 44.5 81.2, 67.5 97.8, 70.1 90.7 Z" fill="hsl(242, 72%, 49%)" fill-opacity="0.61" stroke="none" stroke-width="1.13"  transform="translate(5.7 23.5) rotate(356.5) scale(0.82 1.94)" />
<circle cx="55.8" cy="7.6" r="12.8" fill="hsl(40, 53%, 69%)" fill-opacity="0.60"  transform="translate(56.6 30.1) rotate(171.0) scale(1.49 0.81)" />
<path d="M 96.4 22.3 C 82.9 38.6, 18.1 84.6, 6.2 77.2 C 0.0 58.6, 99.5 81.8, 86.6 88.0 C 83.4 85.6, 89.7 75.3, 76.3 77.2 C 85.6 87.5, 77.4 66.5, 81.1 56.9 C 94.3 63.6, 3.9 10.8, 8.2 25.1 C 6.0 31.8, 11.7 28.8, 4.5 16.7 C 11.6 15.1, 62.1 96.2, 59.0 89.2 C 55.7 88.1, 88.9 2.5, 82.7 14.6 C 100.0 0.7, 31.7 78.1, 28.3 88.2 Z" fill="hsl(151, 70%, 62%)" fill-opacity="0.98" stroke="none" stroke-width="2.08"   />
<path d="M 61.0 52.7 C 62.2 56.0, 22.9 100.0, 21.5 92.3 C 9.9 89.6, 87.2 97.6, 99.6 87.6 C 100.0 97.5, 21.1 30.5, 30.7 39.2 C 34.6 32.6, 82.6 66.0, 73.1 76.6 C 73.6 63.4, 36.5 5.7, 34.6 6.7 C 46.8 25.3, 60.0 8.7, 70.5 20.0 C 71.2 32.8, 85.8 48.7, 91.1 57.3 C 99.5 72.8, 19.1 66.1, 28.0 54.9 C 10.4 74.3, 2.6 48.8, 0.6 62.9 C 1.3 69.8, 17.2 24.3, 3.4 13.7 Z" fill="hsl(83, 65%, 44%)" fill-opacity="0.92" stroke="none" stroke-width="1.07"  transform="translate(84.8 63.4) rotate(94.6) scale(1.46 0.84)" />
<circle cx="86.1" cy="56.1" r="11.9" fill="url(#g0)" fill-opacity="0.42"  transform="translate(24.8 60.0) rotate(115.2) scale(1.28 1.25)" />
<circle cx="19.1" cy="10.2" r="9.5" fill="hsl(104, 72%, 65%)" fill-opacity="0.94"   />
<path d="M 44.7 34.6 C 31.9 38.8, 51.7 46.0, 39.9 55.4 C 44.1 51.3, 47.6 22.6, 42.2 23.9 C 54.9 5.7, 40.5 36.6, 39.4 44.6 C 36.2 63.7, 11.7 15.4, 2.8 27.6 C 4.5 36.0, 100.0 33.6, 91.4 23.7 C 78.3 42.2, 17.9 45.2, 19.6 36.6 C 22.1 46.4, 52.4 88.7, 40.7 91.4 C 32.4 100.0, 49.8 10.2, 52.0 6.2 Z" fill="hsl(151, 70%, 62%)" fill-opacity="0.55" stroke="none" stroke-width="2.52"  transform="translate(41.1 61.1) rotate(330.6) scale(1.29 1.74)" />
<path d="M 1.1 35.2 C 0.0 54.5, 22.2 44.3, 34.0 58.2 C 44.0 50.9, 18.8 66.7, 23.3 78.8 C 28.9 95.4, 19.8 68.8, 24.5 60.6 C 22.6 45.4, 25.3 80.0, 11.3 67.1 C 25.6 61.4, 88.9 1.1, 77.6 8.4 C 79.8 4.4, 19.5 29.5, 15.7 32.5 C 21.1 46.2, 19.5 55.9, 13.1 55.6 C 3.4 72.5, 46.3 1.9, 59.5 2.9 Z" fill="none" fill-opacity="0.33" stroke="hsl(40, 53%, 69%)" stroke-width="4.51"  transform="translate(17.6 55.9) rotate(238.8) scale(1.11 1.27)" />
<circle cx="63.1" cy="95.2" r="7.0" fill="hsl(106, 75%, 59%)" fill-opacity="0.84"   />
<circle cx="64.7" cy="38.9" r="1.2" fill="hsl(83, 65%, 44%)" fill-opacity="0.75"  transform="translate(74.0 58.5) rotate(1.3) scale(1.80 0.59)" />
<path d="M 45.7 1.6 C 36.6 7.2, 4.4 43.6, 18.8 30.6 C 34.0 38.9, 11.0 57.1, 14.7 72.0 C 33.1 75.4, 4.7 53.7, 0.6 65.7 C 0.2 58.5, 47.8 57.7, 44.4 67.5 C 36.6 72.8, 73.8 41.3, 67.5 36.4 C 72.4 21.5, 1.0 38.7, 12.5 29.0 C 2.8 47.8, 75.5 0.0, 60.6 2.6 Z" fill="hsl(106, 75%, 59%)" fill-opacity="0.29" stroke="none" stroke-width="3.97"  transform="translate(46.8 92.0) rotate(215.8) scale(1.50 1.39)" />
<path d="M 42.3 58.9 C 36.0 51.4, 3.7 14.8, 7.7 15.8 C 12.6 33.7, 42.7 53.2, 31.8 64.1 C 24.1 50.4, 8.3 0.2, 16.5 4.8 C 13.4 0.8, 50.2 37.4, 56.5 30.3 C 42.9 25.5, 21.8 100.0, 19.6 95.7 C 23.6 97.0, 49.1 50.8, 35.0 52.7 C 28.3 37.7, 26.9 30.9, 39.9 21.6 C 56.5 36.8, 67.6 100.0, 56.6 95.7 C 63.4 100.0, 96.1 48.7, 95.7 36.2 Z" fill="hsl(40, 53%, 69%)" fill-opacity="0.66" stroke="none" stroke-width="3.07" filter="url(#f1)" transform="translate(83.8 72.5) rotate(47.6) scale(1.51 0.68)" />
<rect x="60.5" y="62.3" width="25.5" height="28.3" rx="7.8" fill="hsl(290, 83%, 63%)" fill-opacity="0.84"   transform="translate(51.2 72.5) rotate(317.6) scale(1.01 1.62)" />
<path d="M 91.6 91.4 C 76.7 87.9, 50.8 30.1, 52.0 21.5 C 50.0 33.5, 82.4 63.8, 81.5 60.2 C 76.6 52.2, 43.9 12.2, 44.6 9.0 C 46.3 0.0, 58.0 20.2, 43.3 19.7 C 27.8 15.8, 0.6 80.7, 13.1 93.9 C 2.7 100.0, 73.5 73.2, 63.3 75.9 C 78.1 88.3, 0.0 10.8, 7.9 4.4 C 27.2 0.0, 0.0 47.1, 3.2 57.1 C 22.4 56.0, 57.8 33.8, 58.8 24.8 C 39.4 19.8, 76.4 74.8, 72.8 82.1 " fill="none" fill-opacity="0.77" stroke="hsl(322, 74%, 44%)" stroke-width="1.58" filter="url(#f1)" transform="translate(3.2 14.5) rotate(239.2) scale(1.85 1.52)" />
<path d="M 44.0 66.7 C 32.3 76.5, 84.0 49.0, 84.8 41.5 C 93.1 27.1, 42.7 80.9, 46.9 68.4 C 27.5 85.2, 99.8 86.2, 91.7 90.7 C 88.8 89.0, 37.3 81.0, 45.9 88.8 C 56.2 71.4, 51.0 71.4, 52.3 63.2 C 66.7 51.6, 42.1 15.4, 56.4 19.2 C 48.7 34.2, 100.0 34.2, 99.2 26.7 C 100.0 10.2, 37.2 63.1, 24.0 65.3 C 33.0 76.8, 66.6 65.4, 63.8 79.7 Z" fill="hsl(183, 71%, 60%)" fill-opacity="0.59" stroke="none" stroke-width="2.09"   />
<circle cx="17.9" cy="87.4" r="6.0" fill="hsl(322, 74%, 44%)" fill-opacity="0.47"  transform="translate(45.7 40.5) rotate(211.2) scale(0.82 1.30)" />
<rect x="74.0" y="4.3" width="21.8" height="30.9" rx="11.5" fill="none" fill-opacity="0.52"   transform="translate(46.6 58.3) rotate(99.5) scale(1.91 1.85)" />
<path d="M 10.4 73.7 C 0.0 56.3, 74.2 35.0, 78.6 26.0 C 78.7 42.8, 100.0 82.1, 97.2 91.9 C 93.2 82.1, 77.3 72.4, 76.1 68.2 C 79.4 59.7, 55.8 36.9, 61.9 38.6 C 56.6 56.6, 83.8 91.0, 94.4 87.1 C 100.0 99.2, 52.4 1.4, 65.8 3.4 C 77.7 0.0, 59.2 62.4, 51.1 69.6 C 61.2 68.5, 26.1 52.0, 16.9 57.1 C 28.8 70.2, 58.8 19.2, 44.5 14.1 C 62.1 20.1, 40.3 46.3, 49.3 50.4 " fill="none" fill-opacity="0.75" stroke="hsl(40, 53%, 69%)" stroke-width="3.52"  transform="translate(84.3 10.8) rotate(87.9) scale(1.84 1.00)" />
<path d="M 10.1 57.9 C 0.0 47.5, 23.6 61.9, 14.2 67.3 C 29.0 78.5, 38.2 51.1, 40.6 39.9 C 40.1 38.1, 52.7 22.3, 56.8 32.1 C 76.4 22.5, 100.0 75.6, 92.2 70.9 C 96.5 69.5, 22.2 83.4, 19.6 76.7 C 25.3 64.2, 62.7 36.3, 62.7 29.8 C 49.8 15.4, 42.5 0.0, 37.8 12.3 C 36.8 21.7, 82.7 88.0, 93.5 94.6 Z" fill="none" fill-opacity="0.78" stroke="hsl(242, 72%, 49%)" stroke-width="4.23"  transform="translate(98.3 23.3) rotate(40.7) scale(1.74 0.93)" />
<path d="M 84.6 69.1 C 74.1 66.6, 33.6 67.7, 27.1 64.6 C 35.4 70.7, 0.0 14.7, 1.9 9.2 C 0.0 12.6, 90.7 97.9, 97.7 85.6 C 90.9 72.5, 6.6 37.7, 21.3 42.4 C 10.0 29.3, 58.8 75.1, 59.8 72.9 C 72.5 67.0, 65.9 1.9, 75.6 8.4 C 95.5 19.4, 31.0 10.7, 20.7 17.6 C 24.0 35.4, 17.5 69.1, 21.3 63.4 C 23.6 52.2, 92.1 58.3, 91.2 44.2 Z" fill="hsl(106, 75%, 59%)" fill-opacity="0.30" stroke="none" stroke-width="4.18"  transform="translate(97.2 50.6) rotate(228.0) scale(1.64 1.95)" />
<rect x="0.0" y="44.1" width="42.3" height="19.9" rx="0" fill="hsl(144, 86%, 72%)" fill-opacity="0.62"   transform="translate(61.9 88.3) rotate(158.5) scale(1.81 1.95)" />
<path d="M 79.1 11.2 C 67.9 11.3, 5.3 69.0, 7.3 58.7 C 1.5 66.8, 19.7 92.7, 21.3 94.8 C 6.4 100.0, 43.5 65.5, 43.7 67.8 C 56.6 62.8, 90.4 13.6, 84.3 19.4 C 77.9 14.8, 17.5 55.2, 12.5 69.8 C 31.9 78.3, 84.7 61.7, 85.5 74.0 C 77.9 80.7, 0.0 37.7, 2.8 29.2 C 4.3 47.6, 83.3 24.9, 73.5 23.7 C 76.3 16.7, 1.0 37.2, 13.2 46.1 Z" fill="hsl(322, 74%, 44%)" fill-opacity="0.52" stroke="none" stroke-width="3.46"  transform="translate(61.1 21.3) rotate(212.2) scale(0.65 1.20)" />
<rect x="58.3" y="59.5" width="32.9" height="32.7" rx="0" fill="hsl(83, 65%, 44%)" fill-opacity="0.95" stroke="hsl(290, 83%, 63%)" stroke-width="1.8"  transform="translate(35.6 15.1) rotate(269.8) scale(1.87 1.16)" />
<rect x="43.4" y="68.1" width="46.6" height="26.6" rx="3.2" fill="none" fill-opacity="0.97"   transform="translate(91.7 21.6) rotate(276.1) scale(1.75 1.71)" />
<rect x="51.3" y="0.1" width="33.7" height="26.8" rx="15.1" fill="hsl(86, 72%, 68%)" fill-opacity="0.53"   transform="translate(24.8 40.4) rotate(105.8) scale(1.75 1.79)" />
<path d="M 60.6 1.0 C 44.3 2.3, 77.2 73.5, 65.3 70.4 C 71.9 63.8, 90.6 3.9, 89.3 3.3 C 92.9 22.5, 65.0 72.5, 71.7 75.7 C 66.1 68.6, 27.5 49.2, 33.0 46.9 C 23.5 30.6, 84.9 1.1, 80.4 12.9 C 79.4 32.5, 0.0 67.5, 1.1 65.5 C 13.0 67.7, 88.1 52.1, 73.9 56.0 C 67.6 40.3, 50.3 46.3, 58.7 50.3 Z" fill="hsl(322, 74%, 44%)" fill-opacity="0.33" stroke="none" stroke-width="1.61"  transform="translate(31.2 52.6) rotate(157.0) scale(0.96 0.92)" />
<rect x="31.3" y="77.1" width="35.9" height="17.2" rx="7.8" fill="none" fill-opacity="0.75"   transform="translate(39.9 44.3) rotate(137.1) scale(0.77 0.87)" />
<circle cx="87.3" cy="83.0" r="6.4" fill="hsl(83, 65%, 44%)" fill-opacity="0.53"  transform="translate(32.6 46.1) rotate(297.4) scale(0.93 0.76)" />
<path d="M 57.5 39.7 C 74.4 49.2, 36.5 100.0, 33.1 98.2 C 37.0 96.1, 69.2 29.8, 77.4 20.7 C 76.0 33.6, 94.2 14.9, 91.4 28.8 C 74.4 33.7, 0.0 46.4, 1.9 50.2 C 15.6 53.6, 58.9 57.2, 65.0 60.4 C 58.4 57.4, 80.3 2.9, 78.9 0.3 C 95.4 0.0, 13.0 68.5, 10.2 71.9 C 19.8 57.6, 59.3 87.2, 64.1 88.8 C 68.0 100.0, 62.1 0.0, 68.0 1.8 Z" fill="hsl(290, 83%, 63%)" fill-opacity="0.31" stroke="none" stroke-width="1.13"   />
<path d="M 9.5 74.0 C 5.5 82.6, 76.1 91.5, 80.0 91.5 C 95.4 83.4, 60.5 0.0, 48.6 5.6 C 58.2 0.0, 53.5 20.3, 66.3 9.1 C 48.0 0.0, 37.2 47.4, 29.6 51.9 C 15.4 53.0, 25.2 59.4, 35.3 69.6 C 53.7 61.0, 0.0 14.6, 3.5 28.3 Z" fill="hsl(242, 72%, 49%)" fill-opacity="0.31" stroke="none" stroke-width="0.89"  transform="translate(94.5 78.3) rotate(23.9) scale(1.62 0.82)" />
<path d="M 70.3 34.0 C 67.8 35.5, 67.5 30.6, 69.0 45.5 C 81.1 55.5, 100.0 17.9, 95.8 14.6 C 81.9 12.7, 40.6 16.8, 50.7 20.4 C 30.9 3.8, 53.5 38.8, 40.0 32.6 C 34.5 37.6, 29.1 91.3, 17.2 95.3 C 3.1 100.0, 39.6 60.5, 43.4 72.0 C 45.9 57.3, 11.3 17.7, 0.8 13.4 C 0.0 1.6, 6.0 87.5, 4.8 95.6 Z" fill="hsl(144, 86%, 72%)" fill-opacity="0.74" stroke="none" stroke-width="1.44"   />
<rect x="36.4" y="72.9" width="45.9" height="15.5" rx="0" fill="hsl(183, 71%, 60%)" fill-opacity="0.70"   transform="translate(93.2 49.4) rotate(115.0) scale(0.75 1.13)" />
<path d="M 48.8 71.7 C 35.9 55.7, 82.3 89.6, 77.4 81.2 C 94.9 62.9, 58.2 15.8, 72.2 20.2 C 52.7 35.4, 100.0 42.1, 95.6 36.0 C 97.8 25.6, 93.6 80.7, 87.8 94.0 C 74.4 75.2, 95.3 31.4, 80.7 17.4 C 89.4 9.0, 51.0 7.8, 49.4 6.2 C 61.2 12.9, 0.5 99.1, 3.8 90.2 C 0.0 74.6, 69.2 4.2, 63.7 8.7 Z" fill="hsl(2, 82%, 55%)" fill-opacity="0.53" stroke="none" stroke-width="0.92"  transform="translate(49.3 96.7) rotate(287.4) scale(1.76 1.84)" />
<path d="M 28.7 88.2 C 10.6 83.1, 94.5 71.7, 81.1 75.8 C 98.3 62.1, 25.4 13.2, 28.2 21.5 C 11.8 27.6, 100.0 7.3, 94.3 15.6 C 100.0 34.0, 60.6 86.7, 55.7 95.8 C 59.8 81.6, 100.0 0.0, 90.9 5.8 C 100.0 0.0, 39.4 100.0, 24.5 99.2 C 31.6 98.7, 58.5 12.6, 52.6 4.9 Z" fill="hsl(322, 74%, 44%)" fill-opacity="0.72" stroke="none" stroke-width="0.89"   />
<path d="M 69.7 46.3 C 73.7 53.4, 29.8 71.0, 24.1 73.5 C 19.4 58.8, 12.1 21.9, 2.0 23.4 C 5.9 7.2, 2.2 46.0, 16.0 52.3 C 5.6 43.7, 26.0 1.9, 22.0 2.5 C 3.9 2.2, 66.6 71.3, 52.5 61.1 C 67.3 44.2, 61.7 78.9, 72.7 69.3 Z" fill="hsl(40, 53%, 69%)" fill-opacity="0.34" stroke="none" stroke-width="4.07"  transform="translate(50.2 63.8) rotate(236.3) scale(1.11 1.13)" />
<path d="M 50.5 44.6 C 37.7 28.6, 97.0 13.4, 89.9 10.8 C 92.0 0.0, 1.8 97.3, 16.4 90.7 C 22.3 84.6, 57.3 57.5, 51.1 57.2 C 51.4 51.9, 100.0 4.1, 94.4 1.1 C 100.0 5.1, 87.5 0.0, 87.8 5.1 C 87.4 7.4, 74.6 93.6, 65.4 91.0 C 47.7 100.0, 27.5 56.1, 19.0 54.6 C 6.5 57.9, 42.2 32.1, 39.7 17.8 C 25.4 19.2, 61.0 0.0, 55.0 3.4 C 59.7 19.5, 23.3 8.6, 8.9 2.1 Z" fill="hsl(144, 86%, 72%)" fill-opacity="0.79" stroke="none" stroke-width="3.45" filter="url(#f1)"  />
<path d="M 44.4 55.9 C 61.8 46.1, 42.3 87.4, 52.6 83.9 C 45.7 100.0, 73.8 100.0, 68.2 96.1 C 72.5 100.0, 5.0 70.3, 15.2 71.4 C 20.4 67.2, 81.2 12.6, 79.5 23.7 C 75.2 30.7, 13.9 14.9, 26.0 18.9 C 14.4 19.4, 72.4 61.4, 65.8 49.8 C 70.6 65.5, 67.8 18.9, 61.9 33.6 C 64.1 17.3, 52.5 14.3, 67.1 15.3 C 57.9 19.5, 0.0 49.6, 5.6 48.0 " fill="none" fill-opacity="0.88" stroke="hsl(322, 74%, 44%)" stroke-width="4.73"  transform="translate(61.6 7.5) rotate(231.0) scale(0.59 1.00)" />
<rect x="49.6" y="8.5" width="38.0" height="36.3" rx="0" fill="hsl(242, 72%, 49%)" fill-opacity="0.23"  filter="url(#f1)" transform="translate(96.0 6.1) rotate(247.8) scale(1.56 0.68)" />
<rect x="63.1" y="46.5" width="22.3" height="15.7" rx="0" fill="none" fill-opacity="0.94"   transform="translate(10.4 99.5) rotate(328.2) scale(0.88 1.71)" />
<path d="M 48.2 11.1 C 48.6 0.0, 12.2 63.4, 16.9 75.2 C 16.6 76.8, 62.3 47.8, 65.8 54.3 C 48.7 73.1, 29.0 21.9, 36.9 7.3 C 25.1 0.0, 100.0 58.7, 99.2 55.8 C 82.7 38.1, 52.4 58.9, 43.0 54.8 C 40.4 68.1, 54.0 46.6, 47.9 55.7 C 37.6 58.6, 0.0 58.4, 2.3 57.6 C 2.5 77.3, 20.2 55.2, 30.9 63.3 Z" fill="none" fill-opacity="0.95" stroke="hsl(144, 86%, 72%)" stroke-width="2.53"   />
<path d="M 62.3 55.6 C 62.3 42.5, 39.4 90.5, 27.2 80.3 C 17.1 74.1, 81.9 58.1, 94.5 47.5 C 76.0 50.5, 14.7 55.1, 29.4 64.9 C 18.6 72.8, 18.4 55.5, 14.0 42.2 C 0.0 47.4, 85.8 90.5, 71.8 87.4 C 83.3 95.9, 48.8 84.0, 44.2 78.4 C 62.2 73.1, 32.5 12.9, 39.7 17.5 C 25.4 1.5, 100.0 0.0, 97.5 7.0 Z" fill="hsl(151, 70%, 62%)" fill-opacity="0.59" stroke="none" stroke-width="3.29"   />
<path d="M 52.0 52.6 C 55.8 70.4, 92.2 23.4, 82.4 18.6 C 72.0 5.6, 22.7 89.9, 34.0 80.7 C 52.5 99.0, 67.1 100.0, 53.4 98.9 C 34.8 100.0, 84.6 29.7, 78.7 40.6 C 87.2 32.4, 86.7 30.5, 85.9 44.2 C 82.5 38.9, 26.2 7.7, 14.7 5.1 C 34.7 0.0, 29.4 90.5, 30.0 79.5 C 40.1 85.0, 13.1 100.0, 0.4 96.4 C 16.2 100.0, 33.6 79.2, 36.7 90.7 Z" fill="none" fill-opacity="0.33" stroke="hsl(151, 70%, 62%)" stroke-width="2.12"  transform="translate(67.8 67.7) rotate(147.4) scale(1.01 1.41)" />
<path d="M 66.9 55.7 C 63.0 46.8, 75.8 0.0, 80.1 9.7 C 72.6 24.4, 70.0 77.7, 67.7 79.4 C 52.8 70.3, 100.0 51.6, 91.2 55.9 C 82.8 48.7, 61.5 87.0, 72.1 79.9 C 52.7 71.3, 83.8 73.2, 70.7 75.1 C 56.6 78.7, 28.1 52.3, 37.3 46.9 C 36.6 58.9, 67.5 0.0, 72.1 10.7 C 78.1 10.4, 77.2 32.4, 72.4 36.0 Z" fill="none" fill-opacity="0.31" stroke="hsl(183, 71%, 60%)" stroke-width="3.88"  transform="translate(50.8 92.6) rotate(310.6) scale(0.70 1.79)" />
<circle cx="79.3" cy="40.6" r="11.5" fill="hsl(104, 72%, 65%)" fill-opacity="0.72"  transform="translate(32.0 46.6) rotate(4.9) scale(0.75 0.80)" />
<path d="M 78.7 90.5 C 62.0 87.8, 85.1 52.7, 90.6 41.1 C 100.0 54.1, 40.1 47.3, 31.7 54.3 C 46.5 46.5, 12.0 95.2, 6.4 81.1 C 0.0 67.7, 29.8 99.8, 39.4 87.6 C 55.4 92.6, 69.2 57.7, 72.5 72.3 C 70.4 84.3, 70.0 80.4, 83.9 69.8 C 66.1 56.4, 37.6 16.7, 29.5 27.6 C 29.5 38.5, 22.8 0.0, 12.6 3.2 C 0.0 13.7, 93.2 20.8, 91.1 8.6 C 73.3 0.8, 21.3 89.0, 13.1 99.1 Z" fill="none" fill-opacity="0.73" stroke="hsl(290, 83%, 63%)" stroke-width="0.93" filter="url(#f1)" transform="translate(46.6 9.6) rotate(63.6) scale(1.33 1.66)" />
<path d="M 15.5 22.3 C 20.9 38.0, 67.9 16.3, 65.1 14.8 C 54.9 13.8, 76.4 98.5, 67.8 99.8 C 55.6 100.0, 85.8 100.0, 89.1 96.6 C 74.6 90.1, 52.9 61.0, 59.9 46.6 C 50.5 57.3, 29.0 80.8, 18.5 85.2 C 13.8 100.0, 8.5 86.1, 20.7 87.7 C 3.0 100.0, 55.3 64.8, 51.2 69.3 C 41.2 55.4, 12.8 15.2, 22.6 0.9 C 8.2 0.0, 67.9 91.7, 73.7 84.3 C 72.2 95.4, 56.8 5.3, 62.5 6.1 Z" fill="none" fill-opacity="0.93" stroke="hsl(83, 65%, 44%)" stroke-width="4.55" filter="url(#f1)" transform="translate(80.8 17.2) rotate(209.7) scale(0.69 0.67)" />
<path d="M 49.2 48.1 C 46.3 45.6, 83.5 49.2, 86.4 34.8 C 87.8 46.7, 45.7 69.6, 59.9 60.4 C 57.5 42.5, 13.4 60.5, 7.3 61.1 C 4.1 62.9, 37.3 83.7, 47.5 98.5 C 57.2 100.0, 39.9 18.6, 32.2 15.0 C 44.3 31.7, 3.8 42.7, 3.9 46.7 Z" fill="none" fill-opacity="0.75" stroke="hsl(322, 74%, 44%)" stroke-width="3.03"  transform="translate(76.2 18.2) rotate(13.1) scale(1.31 1.98)" />
<path d="M 12.8 79.3 C 27.3 91.0, 2.9 83.3, 5.5 81.8 C 4.3 85.9, 58.4 0.0, 51.9 4.0 C 69.5 7.1, 73.7 62.9, 69.7 55.3 C 70.0 57.5, 43.0 13.3, 38.8 20.5 C 26.7 20.9, 40.8 37.4, 29.7 35.6 C 41.2 19.6, 89.3 51.3, 88.0 39.7 C 89.8 28.7, 0.0 88.5, 1.3 99.5 C 19.9 100.0, 98.5 92.5, 94.4 89.0 C 100.0 95.5, 93.4 14.0, 82.6 3.8 C 87.1 0.0, 27.5 91.3, 28.0 83.5 " fill="hsl(183, 71%, 60%)" fill-opacity="0.92" stroke="none" stroke-width="4.97"   />
<rect x="17.1" y="49.5" width="38.4" height="11.8" rx="6.5" fill="none" fill-opacity="0.56"   transform="translate(69.6 57.4) rotate(220.1) scale(1.19 1.97)" />
<path d="M 82.9 54.7 C 90.8 57.6, 82.3 56.3, 74.1 63.8 C 68.7 48.9, 40.6 24.7, 50.3 35.1 C 44.8 22.8, 63.2 51.5, 56.3 65.4 C 37.3 73.4, 41.2 72.6, 39.6 78.6 C 52.1 71.9, 5.9 75.6, 9.9 64.4 C 27.6 62.5, 52.5 61.3, 59.0 70.6 C 44.7 62.3, 67.6 100.0, 59.0 97.5 C 56.1 100.0, 18.4 91.4, 10.0 93.0 C 6.4 91.6, 9.9 41.1, 11.7 54.3 C 17.7 50.1, 19.9 23.2, 10.4 17.8 Z" fill="hsl(144, 86%, 72%)" fill-opacity="0.57" stroke="none" stroke-width="1.12"  transform="translate(36.7 1.9) rotate(94.1) scale(1.68 1.04)" />
<path d="M 82.3 59.3 C 86.0 53.8, 51.9 84.9, 53.8 82.2 C 65.8 83.1, 33.1 85.3, 27.9 84.0 C 18.3 64.6, 48.9 35.3, 35.3 21.7 C 39.4 12.0, 91.6 26.4, 98.8 12.6 C 100.0 11.2, 98.9 20.4, 91.1 17.5 C 100.0 20.5, 62.6 0.0, 77.3 2.0 C 64.8 0.0, 7.4 44.0, 10.8 46.7 C 14.2 48.4, 53.7 82.4, 44.1 74.0 Z" fill="none" fill-opacity="0.52" stroke="hsl(151, 70%, 62%)" stroke-width="2.42"  transform="translate(78.0 70.3) rotate(70.8) scale(1.50 1.75)" />
<path d="M 79.6 69.2 C 72.3 87.0, 52.7 79.0, 52.1 92.8 C 51.5 84.0, 51.5 95.2, 53.1 86.3 C 61.0 66.9, 44.3 19.5, 41.2 15.1 C 54.0 8.0, 17.7 56.5, 26.3 67.5 C 32.5 58.5, 13.1 96.7, 10.0 86.8 C 13.8 88.5, 5.1 75.8, 3.5 71.5 Z" fill="hsl(104, 72%, 65%)" fill-opacity="0.82" stroke="none" stroke-width="3.41"  transform="translate(86.0 52.1) rotate(73.1) scale(0.77 1.29)" />
<path d="M 27.6 76.3 C 33.3 57.5, 0.0 16.9, 5.6 28.6 C 0.0 44.0, 27.7 56.7, 39.5 44.2 C 32.7 53.1, 32.2 6.9, 39.4 18.9 C 35.2 32.5, 98.7 79.4, 94.8 85.1 C 94.8 89.0, 74.8 20.6, 65.9 9.7 C 53.8 0.0, 2.5 31.0, 0.2 35.2 C 17.6 44.4, 41.5 72.6, 40.9 59.5 C 59.2 61.8, 39.9 83.5, 54.5 85.6 C 54.3 100.0, 95.0 58.7, 88.7 57.1 C 100.0 75.0, 99.5 68.0, 87.7 69.7 Z" fill="hsl(106, 75%, 59%)" fill-opacity="0.94" stroke="none" stroke-width="4.25"  transform="translate(48.8 6.9) rotate(112.5) scale(1.15 1.25)" />
<circle cx="37.3" cy="52.2" r="1.2" fill="hsl(2, 82%, 55%)" fill-opacity="0.63"  transform="translate(52.9 73.0) rotate(155.8) scale(1.87 1.70)" />
<rect x="21.7" y="0.9" width="30.4" height="22.1" rx="0" fill="none" fill-opacity="0.48"   transform="translate(65.8 67.6) rotate(110.8) scale(1.92 0.74)" />
<rect x="37.6" y="5.0" width="40.4" height="15.9" rx="5.0" fill="hsl(104, 72%, 65%)" fill-opacity="0.44"   transform="translate(14.4 83.3) rotate(211.6) scale(1.20 1.41)" />
<circle cx="50.1" cy="76.6" r="2.3" fill="url(#g0)" fill-opacity="0.60"  transform="translate(41.9 79.2) rotate(256.5) scale(0.57 0.93)" />
<circle cx="56.8" cy="47.9" r="0.3" fill="hsl(104, 72%, 65%)" fill-opacity="0.85"  transform="translate(92.3 26.7) rotate(119.5) scale(1.71 1.01)" />
<path d="M 9.8 9.6 C 7.3 14.2, 53.1 39.2, 46.9 26.5 C 28.3 15.3, 100.0 100.0, 97.6 96.6 C 100.0 84.0, 0.0 68.1, 0.9 60.5 C 19.5 49.0, 41.8 37.0, 39.1 40.4 C 37.8 55.1, 39.8 79.3, 33.4 72.7 C 39.4 84.1, 57.2 7.4, 65.0 11.3 C 71.8 31.0, 28.0 37.8, 16.8 40.3 C 35.0 46.4, 83.6 36.3, 87.9 34.4 C 90.5 37.2, 68.6 68.2, 77.5 81.1 Z" fill="none" fill-opacity="0.68" stroke="hsl(83, 65%, 44%)" stroke-width="1.75"  transform="translate(79.7 1.8) rotate(107.2) scale(1.86 1.31)" />
<path d="M 82.9 70.5 C 98.2 73.6, 73.3 27.6, 71.1 15.4 C 59.6 6.2, 60.9 50.8, 56.2 56.7 C 65.5 49.5, 42.9 55.1, 53.0 47.5 C 50.7 34.0, 43.0 15.0, 48.6 27.4 C 40.2 32.4, 22.2 40.8, 34.6 40.9 C 33.1 38.9, 25.8 55.1, 40.1 40.7 C 29.6 35.4, 97.1 69.6, 96.1 58.1 C 78.4 61.6, 35.0 64.6, 22.1 64.9 Z" fill="hsl(242, 72%, 49%)" fill-opacity="0.47" stroke="none" stroke-width="4.83"  transform="translate(4.9 88.3) rotate(246.9) scale(1.67 1.24)" />
<path d="M 50.4 47.7 C 68.5 52.8, 6.8 82.4, 15.9 84.8 C 1.0 80.7, 22.6 0.0, 31.1 6.8 C 50.5 12.2, 87.7 37.9, 81.6 26.7 C 70.2 26.2, 60.4 72.3, 57.4 70.8 C 70.8 53.5, 83.1 37.1, 82.9 41.2 C 71.1 42.8, 49.9 61.7, 64.6 57.1 C 63.1 72.8, 15.6 21.6, 8.5 16.3 C 0.0 4.7, 34.9 43.0, 25.8 30.0 C 18.4 49.4, 84.2 41.7, 76.6 32.5 Z" fill="hsl(2, 82%, 55%)" fill-opacity="0.41" stroke="none" stroke-width="1.32"  transform="translate(35.2 58.8) rotate(346.1) scale(1.54 0.50)" />
<rect x="37.1" y="37.2" width="48.1" height="15.7" rx="0.3" fill="hsl(86, 72%, 68%)" fill-opacity="0.71" stroke="hsl(290, 83%, 63%)" stroke-width="2.0"  transform="translate(48.5 34.2) rotate(36.1) scale(1.04 1.86)" />
<path d="M 53.1 80.1 C 69.0 99.3, 0.2 100.0, 0.5 95.1 C 0.0 87.1, 79.6 40.5, 69.1 51.6 C 66.0 68.7, 42.5 34.2, 48.7 42.1 C 65.7 40.3, 33.2 41.9, 31.9 35.6 C 12.6 26.1, 64.7 2.2, 69.6 13.2 C 80.2 16.9, 48.2 51.0, 60.2 39.3 C 51.7 56.7, 15.3 27.1, 21.9 34.2 C 28.0 36.3, 91.8 81.7, 92.2 74.9 Z" fill="hsl(183, 71%, 60%)" fill-opacity="0.33" stroke="none" stroke-width="1.63"  transform="translate(62.4 46.3) rotate(72.2) scale(1.22 1.93)" />
<path d="M 55.1 50.9 C 47.9 41.5, 27.4 100.0, 15.7 94.3 C 2.6 100.0, 30.0 90.0, 35.5 88.5 C 34.2 74.9, 64.2 15.5, 71.4 10.9 C 66.4 14.0, 31.9 52.2, 17.5 59.6 C 4.1 77.2, 96.2 74.4, 86.6 86.1 C 94.6 100.0, 22.5 12.5, 21.9 21.5 C 3.8 33.5, 48.9 23.9, 49.9 15.6 C 39.2 31.4, 81.1 62.3, 87.2 74.9 Z" fill="hsl(242, 72%, 49%)" fill-opacity="0.74" stroke="none" stroke-width="5.00"  transform="translate(8.7 14.2) rotate(80.1) scale(0.80 1.34)" />
<rect x="38.2" y="38.5" width="45.6" height="17.6" rx="1.6" fill="hsl(183, 71%, 60%)" fill-opacity="0.61"   transform="translate(86.6 49.9) rotate(50.7) scale(1.60 1.60)" />
<rect x="23.4" y="60.3" width="23.7" height="17.0" rx="9.7" fill="hsl(242, 72%, 49%)" fill-opacity="0.76"   transform="translate(90.7 86.3) rotate(93.8) scale(1.66 0.67)" />
<circle cx="6.0" cy="79.7" r="9.2" fill="hsl(290, 83%, 63%)" fill-opacity="0.55" filter="url(#f1)" transform="translate(45.4 37.6) rotate(171.4) scale(0.51 1.04)" />
<path d="M 56.3 66.0 C 74.8 46.7, 86.5 52.8, 88.9 54.3 C 76.2 47.9, 60.6 13.9, 71.8 13.7 C 89.5 3.4, 15.2 0.0, 14.9 11.9 C 12.5 10.1, 53.4 48.8, 62.5 45.9 C 62.7 49.2, 36.1 62.8, 50.0 77.3 C 64.4 95.4, 60.1 15.5, 67.6 6.2 C 83.7 11.5, 67.5 8.6, 56.1 3.5 Z" fill="hsl(86, 72%, 68%)" fill-opacity="0.63" stroke="none" stroke-width="1.37"  transform="translate(73.7 41.3) rotate(258.3) scale(0.51 1.67)" />
<circle cx="42.2" cy="87.8" r="1.6" fill="hsl(144, 86%, 72%)" fill-opacity="0.90"  transform="translate(55.6 45.1) rotate(224.7) scale(0.86 0.94)" />
<path d="M 62.4 41.1 C 80.2 52.0, 21.1 75.7, 30.8 60.8 C 36.6 71.8, 79.3 48.3, 92.3 49.9 C 83.6 31.1, 37.8 49.6, 35.9 60.0 C 22.6 77.9, 1.1 88.1, 6.7 83.0 C 21.7 77.9, 92.0 30.7, 88.4 27.6 C 79.8 29.8, 84.3 100.0, 99.2 88.9 C 100.0 99.3, 5.5 11.9, 7.4 25.0 C 12.3 45.0, 95.6 82.7, 90.7 71.4 C 75.5 77.7, 20.9 34.0, 23.1 38.0 C 31.3 44.3, 70.1 16.7, 76.7 29.9 " fill="hsl(322, 74%, 44%)" fill-opacity="0.67" stroke="none" stroke-width="2.42"  transform="translate(91.2 10.1) rotate(134.0) scale(0.62 1.32)" />
<path d="M 55.6 34.9 C 45.8 37.3, 17.5 17.2, 19.7 3.2 C 24.4 7.8, 56.4 39.7, 71.2 27.3 C 89.5 40.0, 28.7 81.2, 26.4 88.1 C 23.0 77.0, 72.4 10.1, 61.9 4.0 C 59.5 1.9, 89.3 32.4, 85.7 36.8 C 93.8 54.8, 42.5 29.8, 56.9 44.4 C 64.1 60.9, 1.2 80.5, 0.6 91.1 C 0.0 76.5, 97.9 30.2, 83.5 44.8 Z" fill="hsl(2, 82%, 55%)" fill-opacity="0.56" stroke="none" stroke-width="2.33"  transform="translate(50.7 10.9) rotate(184.9) scale(0.70 1.50)" />
<path d="M 28.5 51.8 C 37.5 69.2, 100.0 18.6, 97.5 32.3 C 100.0 16.9, 0.0 24.0, 8.5 37.1 C 0.0 53.5, 2.8 9.7, 8.8 1.8 C 0.0 19.9, 73.6 52.2, 62.7 64.6 C 67.3 80.3, 74.5 10.4, 79.2 0.1 C 72.2 14.5, 13.2 40.9, 17.8 37.3 C 32.8 43.1, 44.4 49.6, 57.4 59.5 C 69.7 50.1, 56.6 0.0, 67.2 6.1 C 74.0 11.6, 100.0 93.7, 99.1 97.5 Z" fill="none" fill-opacity="0.82" stroke="hsl(106, 75%, 59%)" stroke-width="2.84"  transform="translate(58.9 76.8) rotate(249.1) scale(1.34 1.52)" />
<rect x="29.9" y="16.2" width="23.6" height="37.9" rx="0" fill="none" fill-opacity="0.66"   transform="translate(86.4 45.2) rotate(336.7) scale(1.56 0.91)" />
<rect x="38.1" y="12.8" width="33.9" height="38.0" rx="0" fill="hsl(242, 72%, 49%)" fill-opacity="0.36"   transform="translate(16.7 62.8) rotate(313.8) scale(0.76 0.99)" />
<path d="M 65.8 20.2 C 64.1 12.1, 86.7 33.4, 95.2 27.4 C 100.0 45.6, 19.0 0.0, 7.3 7.3 C 0.0 24.4, 53.3 28.5, 58.5 19.9 C 75.7 4.6, 54.4 64.6, 58.6 63.5 C 69.2 63.8, 19.1 0.0, 32.1 3.7 C 29.2 7.0, 38.6 48.0, 34.4 45.2 C 16.3 60.6, 0.0 41.9, 3.9 33.7 C 0.0 19.3, 20.2 100.0, 30.2 92.8 Z" fill="none" fill-opacity="0.27" stroke="hsl(290, 83%, 63%)" stroke-width="1.01"   />
<circle cx="87.2" cy="33.5" r="7.6" fill="hsl(86, 72%, 68%)" fill-opacity="0.52"  transform="translate(77.9 83.3) rotate(102.8) scale(1.53 0.92)" />
<path d="M 76.8 87.0 C 94.1 100.0, 11.5 0.0, 21.5 6.6 C 2.3 23.2, 37.9 98.9, 43.0 84.7 C 49.9 75.4, 62.4 89.2, 59.0 82.3 C 52.9 69.1, 24.0 74.3, 31.6 78.0 C 15.2 78.3, 88.8 88.1, 95.6 90.6 C 100.0 100.0, 9.2 34.3, 22.5 39.2 C 16.6 31.5, 13.8 90.5, 20.2 98.3 Z" fill="hsl(144, 86%, 72%)" fill-opacity="0.79" stroke="none" stroke-width="1.31"  transform="translate(82.2 71.8) rotate(228.8) scale(1.83 0.66)" />
<path d="M 41.9 17.6 C 39.7 2.9, 16.6 65.6, 31.1 62.8 C 24.4 49.9, 61.7 31.6, 76.4 26.1 C 57.1 23.4, 6.4 33.8, 19.5 31.2 C 16.1 24.2, 89.0 83.2, 92.1 91.1 C 98.1 83.9, 9.5 31.5, 2.3 32.2 C 0.0 30.0, 72.1 55.3, 60.3 47.3 C 58.2 49.4, 88.5 57.0, 78.9 51.3 C 77.5 35.2, 54.6 41.5, 42.9 44.6 Z" fill="hsl(86, 72%, 68%)" fill-opacity="0.58" stroke="none" stroke-width="3.54"  transform="translate(92.1 30.6) rotate(51.9) scale(1.76 0.60)" />
<path d="M 55.0 69.8 C 43.2 52.3, 38.5 96.2, 44.9 91.3 C 47.7 100.0, 100.0 30.5, 93.8 43.3 C 79.3 54.5, 82.8 100.0, 82.3 95.5 C 69.9 80.5, 71.0 24.6, 79.3 21.6 C 84.3 40.1, 14.9 5.5, 10.5 1.3 C 0.0 0.0, 46.6 59.7, 55.4 73.6 C 65.8 59.8, 90.1 9.1, 81.7 22.3 C 92.1 13.9, 47.1 42.0, 48.3 29.5 Z" fill="hsl(322, 74%, 44%)" fill-opacity="0.85" stroke="none" stroke-width="5.19"  transform="translate(53.1 60.6) rotate(320.8) scale(1.94 0.62)" />
<circle cx="82.8" cy="37.1" r="5.1" fill="url(#g0)" fill-opacity="0.51"  transform="translate(17.0 93.7) rotate(237.6) scale(1.59 1.47)" />
<path d="M 45.0 21.7 C 63.8 3.8, 23.6 87.9, 32.2 78.0 C 48.8 62.3, 15.2 95.1, 11.1 96.7 C 6.9 100.0, 33.2 50.2, 41.4 56.3 C 26.7 67.6, 49.9 34.4, 44.7 27.0 C 47.3 36.8, 31.1 2.6, 19.9 13.6 C 23.4 23.5, 0.0 31.8, 1.0 19.6 Z" fill="hsl(86, 72%, 68%)" fill-opacity="0.56" stroke="none" stroke-width="2.73"  transform="translate(53.8 16.5) rotate(114.4) scale(1.97 1.67)" />
<path d="M 27.6 62.8 C 8.5 74.5, 20.7 75.6, 14.3 67.6 C 15.8 51.3, 97.4 98.9, 95.4 89.0 C 100.0 70.2, 67.7 100.0, 67.1 88.3 C 49.5 93.4, 24.1 76.6, 28.0 62.2 C 10.9 64.5, 51.3 61.0, 49.1 50.5 C 56.9 57.7, 29.8 11.7, 42.1 24.0 C 33.3 23.4, 0.5 40.3, 0.1 54.6 C 8.8 63.6, 19.7 69.5, 15.8 67.7 C 30.0 48.2, 86.6 39.4, 98.7 46.2 C 88.8 42.7, 87.3 50.7, 86.8 36.3 Z" fill="hsl(144, 86%, 72%)" fill-opacity="0.82" stroke="none" stroke-width="4.59"  transform="translate(47.3 89.7) rotate(50.6) scale(0.92 0.72)" />
<rect x="58.5" y="2.0" width="29.1" height="25.5" rx="0" fill="none" fill-opacity="0.80"   transform="translate(43.2 96.7) rotate(55.7) scale(1.92 1.02)" />
<rect x="59.2" y="36.0" width="39.7" height="36.1" rx="0" fill="none" fill-opacity="0.24"   transform="translate(92.0 10.9) rotate(196.3) scale(0.76 1.15)" />
<path d="M 20.6 62.7 C 8.2 69.8, 95.6 11.6, 95.7 14.8 C 80.8 0.0, 12.7 62.9, 23.2 63.5 C 34.6 50.1, 19.6 16.0, 32.7 19.3 C 39.6 29.9, 79.3 97.6, 84.3 89.6 C 86.8 77.6, 20.5 12.8, 24.9 21.1 C 15.6 34.9, 77.1 24.7, 90.9 17.9 C 88.7 35.4, 79.2 19.6, 75.6 34.3 " fill="hsl(144, 86%, 72%)" fill-opacity="0.60" stroke="none" stroke-width="1.52"  transform="translate(81.9 2.0) rotate(68.5) scale(1.26 1.03)" />
<circle cx="56.7" cy="54.2" r="13.4" fill="url(#g1)" fill-opacity="0.71"  transform="translate(39.7 54.2) rotate(215.3) scale(0.50 1.42)" />
<circle cx="55.4" cy="68.8" r="3.8" fill="url(#g2)" fill-opacity="0.96"  transform="translate(92.3 76.2) rotate(128.4) scale(1.80 1.55)" />
<rect x="19.3" y="68.6" width="22.3" height="16.0" rx="14.5" fill="none" fill-opacity="0.90"   transform="translate(96.6 25.9) rotate(91.4) scale(1.29 1.92)" />
<rect x="46.9" y="17.5" width="49.8" height="22.1" rx="12.9" fill="none" fill-opacity="0.72"   transform="translate(82.7 33.6) rotate(260.4) scale(1.20 0.96)" />
<path d="M 69.6 82.8 C 67.3 95.8, 94.8 16.4, 87.3 20.6 C 95.7 23.1, 27.6 20.4, 34.0 31.1 C 40.1 34.1, 39.2 40.7, 43.1 31.3 C 51.3 25.1, 100.0 81.3, 93.1 72.4 C 78.6 63.0, 93.0 70.0, 92.7 75.2 C 87.0 83.1, 92.5 52.0, 95.5 56.3 C 100.0 46.0, 21.6 71.2, 7.1 75.9 C 1.9 83.6, 72.8 22.8, 57.9 35.9 " fill="hsl(104, 72%, 65%)" fill-opacity="0.51" stroke="none" stroke-width="3.04"  transform="translate(50.5 17.0) rotate(88.0) scale(1.78 1.65)" />
<path d="M 10.1 2.1 C 13.5 0.0, 7.1 58.8, 16.0 59.9 C 25.6 41.9, 81.2 0.0, 73.4 6.5 C 68.5 0.0, 48.6 88.7, 47.4 79.0 C 60.4 89.3, 32.8 92.0, 25.3 84.9 C 10.8 66.2, 91.8 35.9, 99.9 34.1 C 89.8 40.4, 1.5 73.5, 16.5 63.4 C 35.4 73.5, 72.2 69.5, 66.9 82.0 C 80.0 76.8, 25.8 63.5, 32.0 62.1 C 15.5 47.2, 67.4 30.5, 74.8 18.6 " fill="hsl(242, 72%, 49%)" fill-opacity="0.69" stroke="none" stroke-width="3.03"  transform="translate(86.2 12.6) rotate(297.4) scale(0.63 0.77)" />
<rect x="14.0" y="58.9" width="44.2" height="31.8" rx="0" fill="none" fill-opacity="0.76"   transform="translate(17.3 87.9) rotate(193.6) scale(1.83 1.59)" />
<path d="M 70.9 54.9 C 58.0 40.6, 15.6 87.2, 4.1 89.8 C 14.8 83.1, 95.0 26.8, 95.6 26.0 C 100.0 12.5, 92.1 34.9, 86.8 34.9 C 67.6 19.1, 94.2 71.5, 97.4 75.0 C 87.1 94.0, 41.3 59.4, 47.1 62.4 C 47.7 49.3, 85.7 44.5, 93.4 35.8 C 100.0 46.4, 90.6 92.4, 96.1 85.1 C 100.0 88.6, 65.1 100.0, 50.5 90.1 C 52.5 87.6, 22.1 30.9, 30.7 19.3 C 22.1 6.1, 87.2 100.0, 80.3 94.0 Z" fill="hsl(242, 72%, 49%)" fill-opacity="0.50" stroke="none" stroke-width="3.10"  transform="translate(19.5 84.3) rotate(281.1) scale(1.41 1.87)" />
<path d="M 14.5 25.8 C 26.8 39.1, 51.2 85.8, 50.1 75.7 C 44.0 89.7, 89.0 57.3, 99.2 44.2 C 97.5 30.0, 40.0 64.9, 46.9 65.3 C 43.3 58.8, 59.1 77.0, 45.2 71.3 C 30.3 89.5, 9.5 19.6, 14.2 30.5 C 26.4 30.8, 100.0 53.4, 88.4 53.2 C 79.6 46.1, 65.0 90.0, 70.4 95.1 C 64.2 97.7, 85.9 100.0, 78.0 92.5 Z" fill="hsl(104, 72%, 65%)" fill-opacity="0.62" stroke="none" stroke-width="4.67"  transform="translate(22.2 95.8) rotate(313.5) scale(0.89 0.73)" />
<path d="M 39.8 2.1 C 25.5 7.6, 19.5 60.7, 20.6 69.4 C 21.8 56.1, 11.5 60.7, 18.3 73.9 C 16.4 81.9, 40.2 81.2, 27.2 66.9 C 34.0 78.2, 60.5 40.2, 53.1 39.6 C 35.8 44.5, 66.3 79.9, 59.1 92.9 C 66.6 100.0, 10.1 83.7, 8.1 80.9 C 4.6 73.9, 86.2 64.1, 86.5 52.3 C 76.3 45.2, 58.3 100.0, 64.5 94.7 C 77.4 79.7, 0.0 38.7, 0.6 48.9 Z" fill="hsl(242, 72%, 49%)" fill-opacity="0.45" stroke="none" stroke-width="3.15"  transform="translate(94.5 94.3) rotate(119.7) scale(1.01 1.74)" />
<path d="M 0.9 85.0 C 0.0 97.6, 27.6 67.7, 25.4 72.3 C 36.0 88.4, 50.3 16.4, 56.5 24.7 C 57.7 26.7, 56.1 79.1, 46.5 91.4 C 47.8 100.0, 59.0 57.5, 57.5 55.1 C 52.0 53.9, 49.7 61.8, 52.3 69.6 C 48.6 52.1, 10.9 97.6, 20.7 99.6 C 19.5 100.0, 85.9 27.6, 76.7 22.1 C 58.3 26.6, 35.4 28.7, 46.1 23.2 Z" fill="none" fill-opacity="0.90" stroke="hsl(242, 72%, 49%)" stroke-width="2.49"  transform="translate(40.3 14.8) rotate(153.8) scale(1.92 1.20)" />
<path d="M 56.6 59.4 C 52.6 73.0, 36.6 29.7, 32.0 26.3 C 46.7 15.5, 30.3 57.9, 20.2 60.7 C 10.8 79.0, 57.7 91.9, 72.5 79.5 C 82.4 96.6, 5.0 76.3, 13.7 70.2 C 17.5 81.5, 69.2 42.8, 79.6 47.4 C 74.0 35.6, 57.9 50.0, 54.7 36.0 C 56.3 32.5, 70.1 82.5, 60.1 88.6 C 63.7 90.4, 59.9 5.7, 49.6 6.8 C 35.0 0.0, 33.8 33.7, 26.7 46.6 Z" fill="hsl(290, 83%, 63%)" fill-opacity="0.72" stroke="none" stroke-width="1.70"  transform="translate(83.3 96.3) rotate(313.9) scale(1.08 1.32)" />
<path d="M 13.7 65.1 C 15.5 63.3, 41.1 57.7, 29.7 57.8 C 25.7 71.3, 23.2 86.6, 13.2 79.9 C 24.2 83.0, 31.1 13.0, 32.5 3.4 C 24.4 5.4, 55.6 59.9, 66.5 59.3 C 60.2 69.7, 85.8 89.0, 78.9 76.9 C 87.6 61.1, 16.8 76.4, 17.2 73.7 Z" fill="hsl(2, 82%, 55%)" fill-opacity="0.76" stroke="none" stroke-width="2.61"  transform="translate(99.9 28.4) rotate(54.5) scale(1.00 1.64)" />
<circle cx="57.1" cy="88.4" r="10.7" fill="hsl(144, 86%, 72%)" fill-opacity="0.79" filter="url(#f1)" transform="translate(34.4 42.0) rotate(132.1) scale(1.92 1.06)" />
<rect x="36.6" y="6.3" width="27.6" height="19.2" rx="19.2" fill="none" fill-opacity="0.25" stroke="hsl(290, 83%, 63%)" stroke-width="4.6"  transform="translate(5.7 50.9) rotate(339.5) scale(1.16 1.04)" />
<path d="M 75.3 1.3 C 86.6 0.0, 85.1 100.0, 70.6 87.9 C 83.7 90.1, 55.3 63.7, 46.5 61.3 C 40.2 63.8, 0.0 6.0, 0.3 16.6 C 0.0 3.7, 61.5 0.0, 65.5 13.7 C 71.5 26.2, 71.8 100.0, 83.4 91.6 C 92.9 99.3, 20.4 80.1, 31.5 66.2 C 29.6 47.5, 100.0 35.0, 98.2 44.7 C 84.2 54.3, 2.0 82.1, 16.0 77.1 C 13.9 84.9, 19.0 46.1, 20.9 49.7 C 33.4 68.1, 83.0 95.0, 79.5 82.7 Z" fill="hsl(144, 86%, 72%)" fill-opacity="0.70" stroke="none" stroke-width="2.78" filter="url(#f1)" transform="translate(6.4 59.4) rotate(14.0) scale(1.55 0.87)" />
<path d="M 37.8 10.1 C 40.9 19.7, 45.6 51.0, 44.1 38.6 C 53.2 34.2, 52.2 93.9, 54.8 85.6 C 34.9 91.4, 25.4 11.9, 14.2 1.4 C 6.6 18.2, 31.8 51.0, 40.9 37.5 C 46.8 45.1, 53.1 83.6, 51.6 80.8 C 57.4 95.0, 65.5 82.3, 75.9 96.5 C 95.0 89.8, 47.4 0.0, 43.1 6.8 Z" fill="hsl(2, 82%, 55%)" fill-opacity="0.48" stroke="none" stroke-width="2.36"  transform="translate(74.1 20.5) rotate(75.0) scale(1.54 0.66)" />
<path d="M 9.9 94.3 C 6.0 100.0, 71.6 24.5, 59.1 23.2 C 60.9 39.2, 55.0 41.0, 68.3 41.8 C 49.2 60.9, 22.7 73.8, 18.7 61.0 C 15.6 79.7, 90.1 21.8, 75.6 9.0 C 66.9 21.5, 81.4 9.0, 68.1 8.2 C 76.8 6.0, 5.7 67.0, 7.5 57.2 Z" fill="none" fill-opacity="0.39" stroke="hsl(86, 72%, 68%)" stroke-width="1.29"  transform="translate(99.6 9.2) rotate(41.0) scale(1.49 1.15)" />
<g opacity="0.062">
<rect x="0" y="0" width="1" height="100" fill="black" />
<rect x="22" y="0" width="1" height="100" fill="black" />
<rect x="44" y="0" width="1" height="100" fill="black" />
<rect x="66" y="0" width="1" height="100" fill="black" />
<rect x="88" y="0" width="1" height="100" fill="black" />
<rect x="0" y="0" width="100" height="1" fill="black" />
<rect x="0" y="22" width="100" height="1" fill="black" />
<rect x="0" y="44" width="100" height="1" fill="black" />
<rect x="0" y="66" width="100" height="1" fill="black" />
<rect x="0" y="88" width="100" height="1" fill="black" />
</g>

</svg>
