<?xml version="1.0" encoding="UTF-8"?>
<svg xmlns="http://www.w3.org/2000/svg" width="100" height="100" viewBox="0 0 100 100">
<defs>
<linearGradient id="g0" x1="0%" y1="0%" x2="100%" y2="100%">
<stop offset="0.0%" stop-color="hsl(106, 75%, 59%)" />
<stop offset="33.3%" stop-color="hsl(183, 71%, 60%)" />
<stop offset="66.7%" stop-color="hsl(242, 72%, 49%)" />
<stop offset="100.0%" stop-color="hsl(322, 74%, 44%)" />
</linearGradient>
<linearGradient id="g1" x1="0%" y1="0%" x2="100%" y2="100%">
<stop offset="0.0%" stop-color="hsl(290, 83%, 63%)" />
<stop offset="33.3%" stop-color="hsl(2, 82%, 55%)" />
<stop offset="66.7%" stop-color="hsl(86, 72%, 68%)" />
<stop offset="100.0%" stop-color="hsl(83, 65%, 44%)" />
</linearGradient>
<linearGradient id="g2" x1="0%" y1="0%" x2="100%" y2="100%">
<stop offset="0.0%" stop-color="hsl(40, 53%, 69%)" />
<stop offset="33.3%" stop-color="hsl(104, 72%, 65%)" />
<stop offset="66.7%" stop-color="hsl(144, 86%, 72%)" />
<stop offset="100.0%" stop-color="hsl(151, 70%, 62%)" />
</linearGradient>
</defs>

<path d="M 89.6 3.7 C 100.0 16.2, 20.7 23.1, 30.8 19.0 C 27.2 5.4, 42.2 51.9, 40.7 66.6 C 26.1 83.9, 35.7 0.0, 42.0 3.3 Z" fill="none" fill-opacity="0.91" stroke="hsl(290, 83%, 63%)" stroke-width="0.87"  transform="translate(34.7 38.0) rotate(226.0) scale(1.24 1.92)" />
<circle cx="97.7" cy="65.5" r="1.0" fill="hsl(322, 74%, 44%)" fill-opacity="0.95"   />
<circle cx="33.4" cy="77.4" r="0.3" fill="hsl(151, 70%, 62%)" fill-opacity="0.48"  transform="translate(89.3 86.8) rotate(144.1) scale(0.82 0.58)" />
<path d="M 94.9 60.1 C 100.0 60.8, 49.7 79.4, 44.7 92.1 C 62.5 85.1, 50.4 0.0, 37.2 8.4 C 30.1 5.7, 7.2 39.6, 17.7 29.7 C 9.9 46.4, 38.2 4.8, 50.6 6.1 C 47.1 23.9, 96.3 0.0, 94.3 9.7 C 100.0 15.8, 54.5 61.3, 66.0 46.6 " fill="hsl(144, 86%, 72%)" fill-opacity="0.45" stroke="none" stroke-width="1.24"  transform="translate(55.2 97.2) rotate(234.6) scale(1.40 1.96)" />
<circle cx="66.4" cy="24.1" r="0.7" fill="hsl(104, 72%, 65%)" fill-opacity="0.60"  transform="translate(59.4 66.7) rotate(330.6) scale(1.87 1.19)" />
<rect x="51.1" y="80.1" width="48.1" height="14.6" rx="0" fill="hsl(83, 65%, 44%)" fill-opacity="0.23"   transform="translate(59.2 97.8) rotate(72.0) scale(0.74 0.87)" />
<circle cx="77.0" cy="99.5" r="1.1" fill="hsl(183, 71%, 60%)" fill-opacity="0.95"  transform="translate(80.9 41.4) rotate(359.5) scale(1.00 1.61)" />
<circle cx="37.8" cy="96.2" r="0.6" fill="hsl(104, 72%, 65%)" fill-opacity="0.67"   />
<path d="M 16.6 0.2 C 27.0 3.5, 48.9 43.8, 53.4 50.4 C 41.5 50.2, 55.9 29.6, 68.2 21.0 C 49.1 24.1, 58.1 67.1, 57.7 56.6 C 41.8 68.5, 0.0 16.2, 0.5 31.0 C 0.0 34.5, 0.0 11.1, 2.8 13.2 C 0.0 12.4, 49.9 49.5, 52.5 51.4 " fill="hsl(104, 72%, 65%)" fill-opacity="0.56" stroke="none" stroke-width="0.97"   />
<path d="M 36.5 42.0 C 36.6 36.7, 35.6 0.0, 24.4 1.8 C 39.2 0.0, 34.6 100.0, 21.1 93.3 C 4.1 100.0, 70.5 22.4, 65.0 24.2 C 58.0 28.3, 100.0 46.4, 98.4 38.8 C 90.8 37.7, 48.2 56.9, 56.7 43.7 C 47.6 34.1, 39.0 25.6, 38.4 11.1 C 41.0 24.6, 32.4 95.7, 18.7 99.3 Z" fill="hsl(183, 71%, 60%)" fill-opacity="0.34" stroke="none" stroke-width="0.92"   />
<path d="M 41.9 51.7 C 28.3 63.6, 38.5 73.8, 25.6 61.3 C 23.1 75.5, 24.5 49.7, 32.1 44.5 C 39.7 24.7, 27.9 13.8, 30.2 26.3 C 45.5 37.4, 40.2 65.3, 42.6 80.1 C 36.0 71.0, 67.8 52.5, 57.9 57.8 C 46.7 75.1, 100.0 82.9, 97.7 95.9 C 97.9 87.9, 28.0 47.8, 27.4 56.4 " fill="hsl(290, 83%, 63%)" fill-opacity="0.99" stroke="none" stroke-width="1.02"  transform="translate(13.6 42.8) rotate(299.0) scale(1.06 1.83)" />
<rect x="19.8" y="60.0" width="21.8" height="10.1" rx="0" fill="none" fill-opacity="0.28" stroke="hsl(144, 86%, 72%)" stroke-width="1.5"   />
<rect x="59.6" y="44.6" width="21.8" height="27.1" rx="0" fill="none" fill-opacity="0.75"    />
<circle cx="51.4" cy="23.1" r="1.6" fill="hsl(104, 72%, 65%)" fill-opacity="0.58"  transform="translate(71.9 4.9) rotate(306.7) scale(1.62 1.23)" />
<rect x="19.1" y="64.5" width="27.8" height="10.1" rx="14.0" fill="hsl(290, 83%, 63%)" fill-opacity="0.71"    />
</svg>
