<?xml version="1.0" encoding="UTF-8"?>
<svg xmlns="http://www.w3.org/2000/svg" width="100" height="100" viewBox="0 0 100 100">
<defs>
<linearGradient id="g0" x1="0%" y1="0%" x2="100%" y2="100%">
<stop offset="0.0%" stop-color="hsl(106, 75%, 59%)" />
<stop offset="33.3%" stop-color="hsl(183, 71%, 60%)" />
<stop offset="66.7%" stop-color="hsl(242, 72%, 49%)" />
<stop offset="100.0%" stop-color="hsl(322, 74%, 44%)" />
</linearGradient>
<linearGradient id="g1" x1="0%" y1="0%" x2="100%" y2="100%">
<stop offset="0.0%" stop-color="hsl(290, 83%, 63%)" />
<stop offset="33.3%" stop-color="hsl(2, 82%, 55%)" />
<stop offset="66.7%" stop-color="hsl(86, 72%, 68%)" />
<stop offset="100.0%" stop-color="hsl(83, 65%, 44%)" />
</linearGradient>
<linearGradient id="g2" x1="0%" y1="0%" x2="100%" y2="100%">
<stop offset="0.0%" stop-color="hsl(40, 53%, 69%)" />
<stop offset="33.3%" stop-color="hsl(104, 72%, 65%)" />
<stop offset="66.7%" stop-color="hsl(144, 86%, 72%)" />
<stop offset="100.0%" stop-color="hsl(151, 70%, 62%)" />
</linearGradient>
</defs>

<path d="M 16.1 47.1 C 0.0 42.5, 45.2 33.2, 52.1 46.0 C 71.6 53.3, 44.8 37.4, 52.1 42.4 C 57.9 36.7, 61.8 42.9, 58.0 49.8 C 50.2 66.9, 24.0 61.6, 31.4 57.3 Z" fill="hsl(183, 71%, 60%)" fill-opacity="0.28" stroke="none" stroke-width="1.23"   />
<path d="M 28.1 51.1 C 8.4 47.7, 83.3 74.5, 81.5 87.5 C 73.8 70.1, 82.1 20.2, 71.4 32.7 C 77.9 18.4, 12.8 66.4, 26.3 64.3 C 40.2 71.9, 83.0 94.5, 95.3 81.6 C 100.0 95.8, 38.4 23.3, 25.6 14.8 C 16.2 1.9, 6.8 48.3, 13.4 53.7 C 22.8 67.2, 24.6 70.3, 34.2 79.7 Z" fill="none" fill-opacity="0.29" stroke="hsl(106, 75%, 59%)" stroke-width="0.89"  transform="translate(83.8 78.7) rotate(152.8) scale(1.11 1.93)" />
<path d="M 66.3 22.5 C 68.7 20.9, 51.8 80.5, 55.4 81.7 C 63.9 63.8, 100.0 9.7, 96.3 1.0 C 80.5 4.6, 12.4 81.9, 7.4 77.3 C 2.0 66.0, 76.6 47.0, 76.5 43.6 C 81.2 42.6, 34.3 38.5, 30.5 37.4 C 41.5 52.9, 0.0 18.6, 6.6 29.7 C 16.4 28.3, 69.2 72.3, 67.2 71.6 Z" fill="none" fill-opacity="0.83" stroke="hsl(151, 70%, 62%)" stroke-width="0.83"  transform="translate(33.1 20.6) rotate(303.3) scale(1.63 0.53)" />
<rect x="46.7" y="51.7" width="41.2" height="12.4" rx="0" fill="hsl(2, 82%, 55%)" fill-opacity="0.41"   transform="translate(88.4 97.5) rotate(227.5) scale(1.31 1.43)" />
<rect x="20.3" y="23.2" width="33.5" height="21.3" rx="0" fill="none" fill-opacity="0.84"   transform="translate(39.9 33.6) rotate(34.7) scale(1.30 1.52)" />
<path d="M 68.4 81.8 C 71.7 75.3, 56.4 24.0, 56.1 26.2 C 58.8 41.8, 9.3 70.6, 6.3 60.5 C 4.1 54.9, 50.8 75.0, 36.0 83.5 C 36.4 85.3, 100.0 60.7, 99.8 58.1 C 96.8 55.4, 100.0 25.6, 98.4 15.5 C 100.0 34.7, 45.4 18.6, 38.9 17.7 " fill="hsl(242, 72%, 49%)" fill-opacity="0.56" stroke="none" stroke-width="0.91"   />
<path d="M 4.9 9.2 C 24.7 0.4, 40.7 12.3, 46.3 8.5 C 31.5 0.0, 100.0 97.1, 98.7 88.4 C 100.0 90.2, 43.8 96.6, 36.9 97.1 C 42.4 94.8, 21.1 7.8, 9.8 2.0 C 3.1 10.7, 47.4 40.9, 32.8 34.5 " fill="hsl(104, 72%, 65%)" fill-opacity="0.93" stroke="none" stroke-width="1.05"  transform="translate(86.2 60.0) rotate(335.5) scale(1.77 1.87)" />
<path d="M 44.8 84.4 C 33.0 85.8, 21.7 50.2, 18.7 51.5 C 7.3 53.3, 48.9 25.6, 57.3 27.8 C 54.2 14.0, 81.1 83.0, 73.7 86.2 " fill="hsl(40, 53%, 69%)" fill-opacity="0.39" stroke="none" stroke-width="0.87"  transform="translate(91.5 95.8) rotate(289.1) scale(1.58 1.84)" />
<rect x="4.4" y="3.5" width="44.1" height="29.0" rx="4.4" fill="hsl(144, 86%, 72%)" fill-opacity="0.55"    />
<path d="M 26.0 72.5 C 41.5 83.1, 77.5 0.0, 78.7 1.8 C 93.3 4.2, 18.9 25.9, 12.1 40.6 C 26.4 41.8, 75.8 33.8, 81.4 46.7 C 77.5 58.1, 40.1 92.1, 43.8 85.5 C 30.5 90.4, 12.1 100.0, 26.8 97.1 " fill="hsl(2, 82%, 55%)" fill-opacity="0.84" stroke="none" stroke-width="1.05"   />
<path d="M 17.3 55.5 C 0.0 72.9, 68.9 61.7, 59.8 49.2 C 51.8 56.1, 66.7 66.9, 76.8 60.9 C 76.3 65.3, 93.4 69.5, 99.7 60.2 C 87.3 76.7, 91.1 4.9, 77.2 6.0 C 94.3 0.0, 96.5 68.7, 89.6 77.8 C 100.0 83.9, 81.0 99.5, 91.7 92.3 C 100.0 77.2, 5.6 35.1, 6.3 27.2 Z" fill="none" fill-opacity="0.34" stroke="hsl(322, 74%, 44%)" stroke-width="0.82"  transform="translate(37.9 90.8) rotate(231.6) scale(0.97 1.80)" />
</svg>
